<?xml version="1.0" encoding="UTF-8" standalone="no"?>
<!DOCTYPE svg PUBLIC "-//W3C//DTD SVG 1.1//EN"
 "http://www.w3.org/Graphics/SVG/1.1/DTD/svg11.dtd">
<!-- Generated by graphviz version 2.43.0 (0)
 -->
<!-- Title: /home/phcoval/mnt/z&#45;wave&#45;protocol&#45;controller/components/unify_attribute_poll/include/attribute_poll.h Pages: 1 -->
<svg width="178pt" height="173pt"
 viewBox="0.00 0.00 178.00 173.00" xmlns="http://www.w3.org/2000/svg" xmlns:xlink="http://www.w3.org/1999/xlink">
<g id="graph0" class="graph" transform="scale(1 1) rotate(0) translate(4 169)">
<title>/home/phcoval/mnt/z&#45;wave&#45;protocol&#45;controller/components/unify_attribute_poll/include/attribute_poll.h</title>
<!-- Node1 -->
<g id="node1" class="node">
<title>Node1</title>
<g id="a_node1"><a xlink:title=" ">
<polygon fill="#bfbfbf" stroke="black" points="11,-112.5 11,-164.5 148,-164.5 148,-112.5 11,-112.5"/>
<text text-anchor="start" x="19" y="-152.5" font-family="Helvetica,sans-Serif" font-size="10.00">/home/phcoval/mnt/z</text>
<text text-anchor="start" x="19" y="-141.5" font-family="Helvetica,sans-Serif" font-size="10.00">&#45;wave&#45;protocol&#45;controller</text>
<text text-anchor="start" x="19" y="-130.5" font-family="Helvetica,sans-Serif" font-size="10.00">/components/unify_attribute</text>
<text text-anchor="middle" x="79.5" y="-119.5" font-family="Helvetica,sans-Serif" font-size="10.00">_poll/include/attribute_poll.h</text>
</a>
</g>
</g>
<!-- Node2 -->
<g id="node2" class="node">
<title>Node2</title>
<g id="a_node2"><a xlink:href="sl__status_8h.html" target="_top" xlink:title="SL Status Codes.">
<polygon fill="none" stroke="black" points="0,-56.5 0,-75.5 65,-75.5 65,-56.5 0,-56.5"/>
<text text-anchor="middle" x="32.5" y="-63.5" font-family="Helvetica,sans-Serif" font-size="10.00">sl_status.h</text>
</a>
</g>
</g>
<!-- Node1&#45;&gt;Node2 -->
<g id="edge1" class="edge">
<title>Node1&#45;&gt;Node2</title>
<path fill="none" stroke="midnightblue" d="M62.8,-112.45C56.52,-103.03 49.53,-92.55 43.85,-84.03"/>
<polygon fill="midnightblue" stroke="midnightblue" points="46.76,-82.07 38.3,-75.7 40.93,-85.96 46.76,-82.07"/>
</g>
<!-- Node4 -->
<g id="node4" class="node">
<title>Node4</title>
<g id="a_node4"><a xlink:title=" ">
<polygon fill="none" stroke="#bfbfbf" points="83,-56.5 83,-75.5 170,-75.5 170,-56.5 83,-56.5"/>
<text text-anchor="middle" x="126.5" y="-63.5" font-family="Helvetica,sans-Serif" font-size="10.00">attribute_store.h</text>
</a>
</g>
</g>
<!-- Node1&#45;&gt;Node4 -->
<g id="edge3" class="edge">
<title>Node1&#45;&gt;Node4</title>
<path fill="none" stroke="midnightblue" d="M96.2,-112.45C102.48,-103.03 109.47,-92.55 115.15,-84.03"/>
<polygon fill="midnightblue" stroke="midnightblue" points="118.07,-85.96 120.7,-75.7 112.24,-82.07 118.07,-85.96"/>
</g>
<!-- Node3 -->
<g id="node3" class="node">
<title>Node3</title>
<g id="a_node3"><a xlink:title=" ">
<polygon fill="none" stroke="#bfbfbf" points="8,-0.5 8,-19.5 57,-19.5 57,-0.5 8,-0.5"/>
<text text-anchor="middle" x="32.5" y="-7.5" font-family="Helvetica,sans-Serif" font-size="10.00">stdint.h</text>
</a>
</g>
</g>
<!-- Node2&#45;&gt;Node3 -->
<g id="edge2" class="edge">
<title>Node2&#45;&gt;Node3</title>
<path fill="none" stroke="midnightblue" d="M32.5,-56.08C32.5,-49.01 32.5,-38.86 32.5,-29.99"/>
<polygon fill="midnightblue" stroke="midnightblue" points="36,-29.75 32.5,-19.75 29,-29.75 36,-29.75"/>
</g>
</g>
</svg>
