<?xml version="1.0" encoding="UTF-8" standalone="no"?>
<!DOCTYPE svg PUBLIC "-//W3C//DTD SVG 1.1//EN"
 "http://www.w3.org/Graphics/SVG/1.1/DTD/svg11.dtd">
<!-- Generated by graphviz version 2.43.0 (0)
 -->
<!-- Title: publish_supported_generated_commands Pages: 1 -->
<svg width="683pt" height="132pt"
 viewBox="0.00 0.00 683.00 131.50" xmlns="http://www.w3.org/2000/svg" xmlns:xlink="http://www.w3.org/1999/xlink">
<g id="graph0" class="graph" transform="scale(1 1) rotate(0) translate(4 127.5)">
<title>publish_supported_generated_commands</title>
<!-- Node1 -->
<g id="node1" class="node">
<title>Node1</title>
<g id="a_node1"><a xlink:title="Publishes the Supported Generated Commands based on AGI data for an Endpoint.">
<polygon fill="#bfbfbf" stroke="black" points="0,-38.5 0,-68.5 143,-68.5 143,-38.5 0,-38.5"/>
<text text-anchor="start" x="8" y="-56.5" font-family="Helvetica,sans-Serif" font-size="10.00">publish_supported_generated</text>
<text text-anchor="middle" x="71.5" y="-45.5" font-family="Helvetica,sans-Serif" font-size="10.00">_commands</text>
</a>
</g>
</g>
<!-- Node2 -->
<g id="node2" class="node">
<title>Node2</title>
<g id="a_node2"><a xlink:href="group__zpc__attribute__store__network__helpers.html#gafae8b9288ffd88bbbe138edf03680b14" target="_top" xlink:title="Traverse the tree up from a node and find under which UNID/endpoints it is.">
<polygon fill="none" stroke="black" points="179,-82 179,-123 311,-123 311,-82 179,-82"/>
<text text-anchor="start" x="187" y="-111" font-family="Helvetica,sans-Serif" font-size="10.00">attribute_store_network</text>
<text text-anchor="start" x="187" y="-100" font-family="Helvetica,sans-Serif" font-size="10.00">_helper_get_unid_endpoint</text>
<text text-anchor="middle" x="245" y="-89" font-family="Helvetica,sans-Serif" font-size="10.00">_from_node</text>
</a>
</g>
</g>
<!-- Node1&#45;&gt;Node2 -->
<g id="edge1" class="edge">
<title>Node1&#45;&gt;Node2</title>
<path fill="none" stroke="midnightblue" d="M125.36,-68.6C139.24,-72.57 154.48,-76.92 169.28,-81.15"/>
<polygon fill="midnightblue" stroke="midnightblue" points="168.35,-84.52 178.92,-83.91 170.27,-77.79 168.35,-84.52"/>
</g>
<!-- Node6 -->
<g id="node6" class="node">
<title>Node6</title>
<g id="a_node6"><a xlink:href="group__zwave__utils.html#ga9786ad7027d49770b17b9f7e238d3049" target="_top" xlink:title="Searches if a Command Class/Command pair is in a byte array of Command class/command pairs.">
<polygon fill="none" stroke="black" points="189,-44 189,-63 301,-63 301,-44 189,-44"/>
<text text-anchor="middle" x="245" y="-51" font-family="Helvetica,sans-Serif" font-size="10.00">is_command_in_array</text>
</a>
</g>
</g>
<!-- Node1&#45;&gt;Node6 -->
<g id="edge5" class="edge">
<title>Node1&#45;&gt;Node6</title>
<path fill="none" stroke="midnightblue" d="M143.25,-53.5C155.02,-53.5 167.19,-53.5 178.81,-53.5"/>
<polygon fill="midnightblue" stroke="midnightblue" points="178.87,-57 188.87,-53.5 178.87,-50 178.87,-57"/>
</g>
<!-- Node7 -->
<g id="node7" class="node">
<title>Node7</title>
<g id="a_node7"><a xlink:href="group__zpc__attribute__store.html#gaabb0477455a85ee31737f3d503acd3b9" target="_top" xlink:title="Verify if a UNID is the ZPC&#39;s UNID.">
<polygon fill="none" stroke="black" points="211,-6 211,-25 279,-25 279,-6 211,-6"/>
<text text-anchor="middle" x="245" y="-13" font-family="Helvetica,sans-Serif" font-size="10.00">is_zpc_unid</text>
</a>
</g>
</g>
<!-- Node1&#45;&gt;Node7 -->
<g id="edge6" class="edge">
<title>Node1&#45;&gt;Node7</title>
<path fill="none" stroke="midnightblue" d="M140.28,-38.48C160.66,-33.97 182.46,-29.14 200.79,-25.07"/>
<polygon fill="midnightblue" stroke="midnightblue" points="201.58,-28.48 210.58,-22.9 200.06,-21.65 201.58,-28.48"/>
</g>
<!-- Node3 -->
<g id="node3" class="node">
<title>Node3</title>
<g id="a_node3"><a xlink:href="group__zpc__attribute__store.html#gaa77e8f9b18958337bb68279c8c53ccdc" target="_top" xlink:title="Returns the HomeID (attribute store) node of our current network.">
<polygon fill="none" stroke="black" points="361.5,-93 361.5,-112 478.5,-112 478.5,-93 361.5,-93"/>
<text text-anchor="middle" x="420" y="-100" font-family="Helvetica,sans-Serif" font-size="10.00">get_zpc_network_node</text>
</a>
</g>
</g>
<!-- Node2&#45;&gt;Node3 -->
<g id="edge2" class="edge">
<title>Node2&#45;&gt;Node3</title>
<path fill="none" stroke="midnightblue" d="M311.4,-102.5C324.39,-102.5 338.05,-102.5 351.12,-102.5"/>
<polygon fill="midnightblue" stroke="midnightblue" points="351.45,-106 361.45,-102.5 351.45,-99 351.45,-106"/>
</g>
<!-- Node5 -->
<g id="node5" class="node">
<title>Node5</title>
<g id="a_node5"><a xlink:href="group__zwave__unid.html#ga421deceb8a12916f049e4f3446774439" target="_top" xlink:title="Form a UNID.">
<polygon fill="none" stroke="black" points="354,-53 354,-72 486,-72 486,-53 354,-53"/>
<text text-anchor="middle" x="420" y="-60" font-family="Helvetica,sans-Serif" font-size="10.00">zwave_unid_from_node_id</text>
</a>
</g>
</g>
<!-- Node2&#45;&gt;Node5 -->
<g id="edge4" class="edge">
<title>Node2&#45;&gt;Node5</title>
<path fill="none" stroke="midnightblue" d="M311.4,-87.38C330.04,-83.07 350.07,-78.44 367.73,-74.35"/>
<polygon fill="midnightblue" stroke="midnightblue" points="368.88,-77.68 377.83,-72.02 367.3,-70.86 368.88,-77.68"/>
</g>
<!-- Node4 -->
<g id="node4" class="node">
<title>Node4</title>
<g id="a_node4"><a xlink:href="group__zwave__network__management.html#gac01bf38badf30f94eac9a04b486cb967" target="_top" xlink:title="Get the cached HomeID.">
<polygon fill="none" stroke="black" points="529,-87.5 529,-117.5 675,-117.5 675,-87.5 529,-87.5"/>
<text text-anchor="start" x="537" y="-105.5" font-family="Helvetica,sans-Serif" font-size="10.00">zwave_network_management</text>
<text text-anchor="middle" x="602" y="-94.5" font-family="Helvetica,sans-Serif" font-size="10.00">_get_home_id</text>
</a>
</g>
</g>
<!-- Node3&#45;&gt;Node4 -->
<g id="edge3" class="edge">
<title>Node3&#45;&gt;Node4</title>
<path fill="none" stroke="midnightblue" d="M478.94,-102.5C491.64,-102.5 505.31,-102.5 518.75,-102.5"/>
<polygon fill="midnightblue" stroke="midnightblue" points="518.96,-106 528.96,-102.5 518.96,-99 518.96,-106"/>
</g>
<!-- Node7&#45;&gt;Node5 -->
<g id="edge8" class="edge">
<title>Node7&#45;&gt;Node5</title>
<path fill="none" stroke="midnightblue" d="M279.36,-24.56C306.35,-31.9 344.62,-42.29 374.27,-50.35"/>
<polygon fill="midnightblue" stroke="midnightblue" points="373.4,-53.74 383.96,-52.98 375.23,-46.98 373.4,-53.74"/>
</g>
<!-- Node8 -->
<g id="node8" class="node">
<title>Node8</title>
<g id="a_node8"><a xlink:href="group__zwave__network__management.html#gae265f1e935804f3f0b971755ab0ee61e" target="_top" xlink:title="Get the cached NodeID.">
<polygon fill="none" stroke="black" points="347,-0.5 347,-30.5 493,-30.5 493,-0.5 347,-0.5"/>
<text text-anchor="start" x="355" y="-18.5" font-family="Helvetica,sans-Serif" font-size="10.00">zwave_network_management</text>
<text text-anchor="middle" x="420" y="-7.5" font-family="Helvetica,sans-Serif" font-size="10.00">_get_node_id</text>
</a>
</g>
</g>
<!-- Node7&#45;&gt;Node8 -->
<g id="edge7" class="edge">
<title>Node7&#45;&gt;Node8</title>
<path fill="none" stroke="midnightblue" d="M279.36,-15.5C295.74,-15.5 316.27,-15.5 336.5,-15.5"/>
<polygon fill="midnightblue" stroke="midnightblue" points="336.71,-19 346.71,-15.5 336.71,-12 336.71,-19"/>
</g>
</g>
</svg>
