<?xml version="1.0" encoding="UTF-8" standalone="no"?>
<!DOCTYPE svg PUBLIC "-//W3C//DTD SVG 1.1//EN"
 "http://www.w3.org/Graphics/SVG/1.1/DTD/svg11.dtd">
<!-- Generated by graphviz version 2.43.0 (0)
 -->
<!-- Title: priority_queue::biggest_child Pages: 1 -->
<svg width="440pt" height="137pt"
 viewBox="0.00 0.00 440.00 137.00" xmlns="http://www.w3.org/2000/svg" xmlns:xlink="http://www.w3.org/1999/xlink">
<g id="graph0" class="graph" transform="scale(1 1) rotate(0) translate(4 133)">
<title>priority_queue::biggest_child</title>
<!-- Node1 -->
<g id="node1" class="node">
<title>Node1</title>
<g id="a_node1"><a xlink:title=" ">
<polygon fill="#bfbfbf" stroke="black" points="317,-49.5 317,-79.5 432,-79.5 432,-49.5 317,-49.5"/>
<text text-anchor="start" x="325" y="-67.5" font-family="Helvetica,sans-Serif" font-size="10.00">priority_queue::biggest</text>
<text text-anchor="middle" x="374.5" y="-56.5" font-family="Helvetica,sans-Serif" font-size="10.00">_child</text>
</a>
</g>
</g>
<!-- Node2 -->
<g id="node2" class="node">
<title>Node2</title>
<g id="a_node2"><a xlink:href="classpriority__queue.html#ab4ca371aa1a80e5c76bd86d3892ebc81" target="_top" xlink:title="removes an item from the queue by iterator. Performance: O(log n)">
<polygon fill="none" stroke="black" points="174,-55 174,-74 281,-74 281,-55 174,-55"/>
<text text-anchor="middle" x="227.5" y="-62" font-family="Helvetica,sans-Serif" font-size="10.00">priority_queue::erase</text>
</a>
</g>
</g>
<!-- Node1&#45;&gt;Node2 -->
<g id="edge1" class="edge">
<title>Node1&#45;&gt;Node2</title>
<path fill="none" stroke="midnightblue" d="M306.45,-64.5C298.06,-64.5 289.58,-64.5 281.44,-64.5"/>
<polygon fill="midnightblue" stroke="midnightblue" points="306.61,-68 316.61,-64.5 306.61,-61 306.61,-68"/>
</g>
<!-- Node3 -->
<g id="node3" class="node">
<title>Node3</title>
<g id="a_node3"><a xlink:href="classzwave__tx__incoming__frames.html#a832a92ea18a6ab0e8b389764e3ecea99" target="_top" xlink:title="Decrements the number of expected frames from a NodeID.">
<polygon fill="none" stroke="black" points="0,-98.5 0,-128.5 138,-128.5 138,-98.5 0,-98.5"/>
<text text-anchor="start" x="8" y="-116.5" font-family="Helvetica,sans-Serif" font-size="10.00">zwave_tx_incoming_frames</text>
<text text-anchor="middle" x="69" y="-105.5" font-family="Helvetica,sans-Serif" font-size="10.00">::decrement_frames</text>
</a>
</g>
</g>
<!-- Node2&#45;&gt;Node3 -->
<g id="edge2" class="edge">
<title>Node2&#45;&gt;Node3</title>
<path fill="none" stroke="midnightblue" d="M186.16,-77.13C165.35,-83.64 139.84,-91.63 118.03,-98.46"/>
<polygon fill="midnightblue" stroke="midnightblue" points="187.46,-80.39 195.95,-74.06 185.36,-73.71 187.46,-80.39"/>
</g>
<!-- Node4 -->
<g id="node4" class="node">
<title>Node4</title>
<g id="a_node4"><a xlink:href="classpriority__queue.html#a247b598580393c90bfc8f2477018d84b" target="_top" xlink:title="takes the first item in the queue and returns it. The item is deleted from the queue....">
<polygon fill="none" stroke="black" points="19.5,-49.5 19.5,-79.5 118.5,-79.5 118.5,-49.5 19.5,-49.5"/>
<text text-anchor="start" x="27.5" y="-67.5" font-family="Helvetica,sans-Serif" font-size="10.00">priority_queue::pop</text>
<text text-anchor="middle" x="69" y="-56.5" font-family="Helvetica,sans-Serif" font-size="10.00">_front</text>
</a>
</g>
</g>
<!-- Node2&#45;&gt;Node4 -->
<g id="edge3" class="edge">
<title>Node2&#45;&gt;Node4</title>
<path fill="none" stroke="midnightblue" d="M163.73,-64.5C148.74,-64.5 132.96,-64.5 118.71,-64.5"/>
<polygon fill="midnightblue" stroke="midnightblue" points="163.95,-68 173.95,-64.5 163.95,-61 163.95,-68"/>
</g>
<!-- Node5 -->
<g id="node5" class="node">
<title>Node5</title>
<g id="a_node5"><a xlink:href="classzwave__tx__incoming__frames.html#acabcd3234228a480ef137ef1fe13252b" target="_top" xlink:title="Sets the number of expected frames from a NodeID.">
<polygon fill="none" stroke="black" points="0,-0.5 0,-30.5 138,-30.5 138,-0.5 0,-0.5"/>
<text text-anchor="start" x="8" y="-18.5" font-family="Helvetica,sans-Serif" font-size="10.00">zwave_tx_incoming_frames</text>
<text text-anchor="middle" x="69" y="-7.5" font-family="Helvetica,sans-Serif" font-size="10.00">::set_frames</text>
</a>
</g>
</g>
<!-- Node2&#45;&gt;Node5 -->
<g id="edge4" class="edge">
<title>Node2&#45;&gt;Node5</title>
<path fill="none" stroke="midnightblue" d="M186.16,-51.87C165.35,-45.36 139.84,-37.37 118.03,-30.54"/>
<polygon fill="midnightblue" stroke="midnightblue" points="185.36,-55.29 195.95,-54.94 187.46,-48.61 185.36,-55.29"/>
</g>
</g>
</svg>
