<?xml version="1.0" encoding="UTF-8" standalone="no"?>
<!DOCTYPE svg PUBLIC "-//W3C//DTD SVG 1.1//EN"
 "http://www.w3.org/Graphics/SVG/1.1/DTD/svg11.dtd">
<!-- Generated by graphviz version 2.43.0 (0)
 -->
<!-- Title: priority_queue::clear Pages: 1 -->
<svg width="460pt" height="137pt"
 viewBox="0.00 0.00 460.00 137.00" xmlns="http://www.w3.org/2000/svg" xmlns:xlink="http://www.w3.org/1999/xlink">
<g id="graph0" class="graph" transform="scale(1 1) rotate(0) translate(4 133)">
<title>priority_queue::clear</title>
<!-- Node1 -->
<g id="node1" class="node">
<title>Node1</title>
<g id="a_node1"><a xlink:title="remove all items from the queue.">
<polygon fill="#bfbfbf" stroke="black" points="348,-77 348,-96 452,-96 452,-77 348,-77"/>
<text text-anchor="middle" x="400" y="-84" font-family="Helvetica,sans-Serif" font-size="10.00">priority_queue::clear</text>
</a>
</g>
</g>
<!-- Node2 -->
<g id="node2" class="node">
<title>Node2</title>
<g id="a_node2"><a xlink:href="classzwave__tx__incoming__frames.html#a97e667c2e2f467f92e8c827b871a3d50" target="_top" xlink:title="Clears the entire list of expected frames.">
<polygon fill="none" stroke="black" points="174,-93.5 174,-123.5 312,-123.5 312,-93.5 174,-93.5"/>
<text text-anchor="start" x="182" y="-111.5" font-family="Helvetica,sans-Serif" font-size="10.00">zwave_tx_incoming_frames</text>
<text text-anchor="middle" x="243" y="-100.5" font-family="Helvetica,sans-Serif" font-size="10.00">::clear</text>
</a>
</g>
</g>
<!-- Node1&#45;&gt;Node2 -->
<g id="edge1" class="edge">
<title>Node1&#45;&gt;Node2</title>
<path fill="none" stroke="midnightblue" d="M337.77,-95.19C329.39,-96.38 320.76,-97.61 312.27,-98.81"/>
<polygon fill="midnightblue" stroke="midnightblue" points="338.41,-98.64 347.82,-93.76 337.42,-91.7 338.41,-98.64"/>
</g>
<!-- Node3 -->
<g id="node3" class="node">
<title>Node3</title>
<g id="a_node3"><a xlink:href="classpriority__queue.html#ab4ca371aa1a80e5c76bd86d3892ebc81" target="_top" xlink:title="removes an item from the queue by iterator. Performance: O(log n)">
<polygon fill="none" stroke="black" points="189.5,-55 189.5,-74 296.5,-74 296.5,-55 189.5,-55"/>
<text text-anchor="middle" x="243" y="-62" font-family="Helvetica,sans-Serif" font-size="10.00">priority_queue::erase</text>
</a>
</g>
</g>
<!-- Node1&#45;&gt;Node3 -->
<g id="edge2" class="edge">
<title>Node1&#45;&gt;Node3</title>
<path fill="none" stroke="midnightblue" d="M337.63,-77.79C324.1,-75.87 309.88,-73.85 296.72,-71.98"/>
<polygon fill="midnightblue" stroke="midnightblue" points="337.42,-81.3 347.82,-79.24 338.41,-74.36 337.42,-81.3"/>
</g>
<!-- Node4 -->
<g id="node4" class="node">
<title>Node4</title>
<g id="a_node4"><a xlink:href="classzwave__tx__incoming__frames.html#a832a92ea18a6ab0e8b389764e3ecea99" target="_top" xlink:title="Decrements the number of expected frames from a NodeID.">
<polygon fill="none" stroke="black" points="0,-98.5 0,-128.5 138,-128.5 138,-98.5 0,-98.5"/>
<text text-anchor="start" x="8" y="-116.5" font-family="Helvetica,sans-Serif" font-size="10.00">zwave_tx_incoming_frames</text>
<text text-anchor="middle" x="69" y="-105.5" font-family="Helvetica,sans-Serif" font-size="10.00">::decrement_frames</text>
</a>
</g>
</g>
<!-- Node3&#45;&gt;Node4 -->
<g id="edge3" class="edge">
<title>Node3&#45;&gt;Node4</title>
<path fill="none" stroke="midnightblue" d="M198.59,-76.87C175.56,-83.43 147.08,-91.54 122.78,-98.46"/>
<polygon fill="midnightblue" stroke="midnightblue" points="199.77,-80.17 208.43,-74.06 197.85,-73.44 199.77,-80.17"/>
</g>
<!-- Node5 -->
<g id="node5" class="node">
<title>Node5</title>
<g id="a_node5"><a xlink:href="classpriority__queue.html#a247b598580393c90bfc8f2477018d84b" target="_top" xlink:title="takes the first item in the queue and returns it. The item is deleted from the queue....">
<polygon fill="none" stroke="black" points="19.5,-49.5 19.5,-79.5 118.5,-79.5 118.5,-49.5 19.5,-49.5"/>
<text text-anchor="start" x="27.5" y="-67.5" font-family="Helvetica,sans-Serif" font-size="10.00">priority_queue::pop</text>
<text text-anchor="middle" x="69" y="-56.5" font-family="Helvetica,sans-Serif" font-size="10.00">_front</text>
</a>
</g>
</g>
<!-- Node3&#45;&gt;Node5 -->
<g id="edge4" class="edge">
<title>Node3&#45;&gt;Node5</title>
<path fill="none" stroke="midnightblue" d="M179.21,-64.5C159.26,-64.5 137.5,-64.5 118.7,-64.5"/>
<polygon fill="midnightblue" stroke="midnightblue" points="179.46,-68 189.46,-64.5 179.46,-61 179.46,-68"/>
</g>
<!-- Node6 -->
<g id="node6" class="node">
<title>Node6</title>
<g id="a_node6"><a xlink:href="classzwave__tx__incoming__frames.html#acabcd3234228a480ef137ef1fe13252b" target="_top" xlink:title="Sets the number of expected frames from a NodeID.">
<polygon fill="none" stroke="black" points="0,-0.5 0,-30.5 138,-30.5 138,-0.5 0,-0.5"/>
<text text-anchor="start" x="8" y="-18.5" font-family="Helvetica,sans-Serif" font-size="10.00">zwave_tx_incoming_frames</text>
<text text-anchor="middle" x="69" y="-7.5" font-family="Helvetica,sans-Serif" font-size="10.00">::set_frames</text>
</a>
</g>
</g>
<!-- Node3&#45;&gt;Node6 -->
<g id="edge5" class="edge">
<title>Node3&#45;&gt;Node6</title>
<path fill="none" stroke="midnightblue" d="M198.59,-52.13C175.56,-45.57 147.08,-37.46 122.78,-30.54"/>
<polygon fill="midnightblue" stroke="midnightblue" points="197.85,-55.56 208.43,-54.94 199.77,-48.83 197.85,-55.56"/>
</g>
</g>
</svg>
