<?xml version="1.0" encoding="UTF-8" standalone="no"?>
<!DOCTYPE svg PUBLIC "-//W3C//DTD SVG 1.1//EN"
 "http://www.w3.org/Graphics/SVG/1.1/DTD/svg11.dtd">
<!-- Generated by graphviz version 2.43.0 (0)
 -->
<!-- Title: zwave_tx_incoming_frames::insert Pages: 1 -->
<svg width="593pt" height="185pt"
 viewBox="0.00 0.00 593.00 184.50" xmlns="http://www.w3.org/2000/svg" xmlns:xlink="http://www.w3.org/1999/xlink">
<g id="graph0" class="graph" transform="scale(1 1) rotate(0) translate(4 180.5)">
<title>zwave_tx_incoming_frames::insert</title>
<!-- Node1 -->
<g id="node1" class="node">
<title>Node1</title>
<g id="a_node1"><a xlink:title="Helper function that inserts a NodeID / Frame pair in the frame list.">
<polygon fill="#bfbfbf" stroke="black" points="0,-80 0,-110 138,-110 138,-80 0,-80"/>
<text text-anchor="start" x="8" y="-98" font-family="Helvetica,sans-Serif" font-size="10.00">zwave_tx_incoming_frames</text>
<text text-anchor="middle" x="69" y="-87" font-family="Helvetica,sans-Serif" font-size="10.00">::insert</text>
</a>
</g>
</g>
<!-- Node2 -->
<g id="node2" class="node">
<title>Node2</title>
<g id="a_node2"><a xlink:href="classpriority__queue.html#ab60cbadb59c9e35d68f3be8ce76ca8b7" target="_top" xlink:title="inserts a value into the queue. inserts are ordered by their priority. this function takes O(log n) t...">
<polygon fill="none" stroke="black" points="174,-85.5 174,-104.5 281,-104.5 281,-85.5 174,-85.5"/>
<text text-anchor="middle" x="227.5" y="-92.5" font-family="Helvetica,sans-Serif" font-size="10.00">priority_queue::insert</text>
</a>
</g>
</g>
<!-- Node1&#45;&gt;Node2 -->
<g id="edge1" class="edge">
<title>Node1&#45;&gt;Node2</title>
<path fill="none" stroke="midnightblue" d="M138.19,-95C146.62,-95 155.21,-95 163.56,-95"/>
<polygon fill="midnightblue" stroke="midnightblue" points="163.6,-98.5 173.6,-95 163.6,-91.5 163.6,-98.5"/>
</g>
<!-- Node3 -->
<g id="node3" class="node">
<title>Node3</title>
<g id="a_node3"><a xlink:href="classpriority__queue.html#a4c6923892bda36c46ac54443a8da993d" target="_top" xlink:title=" ">
<polygon fill="none" stroke="black" points="331.5,-146 331.5,-176 427.5,-176 427.5,-146 331.5,-146"/>
<text text-anchor="start" x="339.5" y="-164" font-family="Helvetica,sans-Serif" font-size="10.00">priority_queue::init</text>
<text text-anchor="middle" x="379.5" y="-153" font-family="Helvetica,sans-Serif" font-size="10.00">_iterators</text>
</a>
</g>
</g>
<!-- Node2&#45;&gt;Node3 -->
<g id="edge2" class="edge">
<title>Node2&#45;&gt;Node3</title>
<path fill="none" stroke="midnightblue" d="M248.41,-104.56C266.27,-113.05 293.24,-125.67 317,-136 321.64,-138.02 326.49,-140.07 331.35,-142.1"/>
<polygon fill="midnightblue" stroke="midnightblue" points="330.07,-145.36 340.65,-145.95 332.75,-138.89 330.07,-145.36"/>
</g>
<!-- Node4 -->
<g id="node4" class="node">
<title>Node4</title>
<g id="a_node4"><a xlink:href="classpriority__queue.html#aac22927a2d0722d40f3d0398ea721060" target="_top" xlink:title=" ">
<polygon fill="none" stroke="black" points="317,-107.5 317,-126.5 442,-126.5 442,-107.5 317,-107.5"/>
<text text-anchor="middle" x="379.5" y="-114.5" font-family="Helvetica,sans-Serif" font-size="10.00">priority_queue::max_size</text>
</a>
</g>
</g>
<!-- Node2&#45;&gt;Node4 -->
<g id="edge3" class="edge">
<title>Node2&#45;&gt;Node4</title>
<path fill="none" stroke="midnightblue" d="M281.38,-102.76C289.63,-103.97 298.27,-105.23 306.84,-106.49"/>
<polygon fill="midnightblue" stroke="midnightblue" points="306.46,-109.97 316.86,-107.96 307.47,-103.05 306.46,-109.97"/>
</g>
<!-- Node5 -->
<g id="node5" class="node">
<title>Node5</title>
<g id="a_node5"><a xlink:href="classpriority__queue.html#a348aed26554afd2b52cda7bef58b232b" target="_top" xlink:title=" ">
<polygon fill="none" stroke="black" points="324.5,-58 324.5,-88 434.5,-88 434.5,-58 324.5,-58"/>
<text text-anchor="start" x="332.5" y="-76" font-family="Helvetica,sans-Serif" font-size="10.00">priority_queue::parent</text>
<text text-anchor="middle" x="379.5" y="-65" font-family="Helvetica,sans-Serif" font-size="10.00">_index</text>
</a>
</g>
</g>
<!-- Node2&#45;&gt;Node5 -->
<g id="edge4" class="edge">
<title>Node2&#45;&gt;Node5</title>
<path fill="none" stroke="midnightblue" d="M281.38,-87.24C292.04,-85.68 303.35,-84.02 314.34,-82.41"/>
<polygon fill="midnightblue" stroke="midnightblue" points="314.93,-85.86 324.32,-80.95 313.92,-78.93 314.93,-85.86"/>
</g>
<!-- Node6 -->
<g id="node6" class="node">
<title>Node6</title>
<g id="a_node6"><a xlink:href="classpriority__queue.html#a0969698a8e4fd95156738ef09eb43dc9" target="_top" xlink:title=" ">
<polygon fill="none" stroke="black" points="329,-19.5 329,-38.5 430,-38.5 430,-19.5 329,-19.5"/>
<text text-anchor="middle" x="379.5" y="-26.5" font-family="Helvetica,sans-Serif" font-size="10.00">priority_queue::size</text>
</a>
</g>
</g>
<!-- Node2&#45;&gt;Node6 -->
<g id="edge5" class="edge">
<title>Node2&#45;&gt;Node6</title>
<path fill="none" stroke="midnightblue" d="M245.07,-85.33C262.56,-75.38 291.13,-59.84 317,-49 322.98,-46.49 329.39,-44.1 335.74,-41.9"/>
<polygon fill="midnightblue" stroke="midnightblue" points="337.21,-45.1 345.58,-38.6 334.98,-38.46 337.21,-45.1"/>
</g>
<!-- Node7 -->
<g id="node7" class="node">
<title>Node7</title>
<g id="a_node7"><a xlink:href="classpriority__queue.html#a45867a21e151e7709b0c0a676404756f" target="_top" xlink:title="if queue != empty() it returns a pointer to the beginning of the queue. The item with the highest pri...">
<polygon fill="none" stroke="black" points="478,-38.5 478,-57.5 585,-57.5 585,-38.5 478,-38.5"/>
<text text-anchor="middle" x="531.5" y="-45.5" font-family="Helvetica,sans-Serif" font-size="10.00">priority_queue::begin</text>
</a>
</g>
</g>
<!-- Node6&#45;&gt;Node7 -->
<g id="edge6" class="edge">
<title>Node6&#45;&gt;Node7</title>
<path fill="none" stroke="midnightblue" d="M430.03,-35.27C442.15,-36.81 455.28,-38.47 467.92,-40.07"/>
<polygon fill="midnightblue" stroke="midnightblue" points="467.57,-43.56 477.93,-41.34 468.45,-36.61 467.57,-43.56"/>
</g>
<!-- Node8 -->
<g id="node8" class="node">
<title>Node8</title>
<g id="a_node8"><a xlink:href="classpriority__queue.html#a479561d461dbafc6b7d2813d6344b0d0" target="_top" xlink:title="iterator that points past the last element in the queue.">
<polygon fill="none" stroke="black" points="482,-0.5 482,-19.5 581,-19.5 581,-0.5 482,-0.5"/>
<text text-anchor="middle" x="531.5" y="-7.5" font-family="Helvetica,sans-Serif" font-size="10.00">priority_queue::end</text>
</a>
</g>
</g>
<!-- Node6&#45;&gt;Node8 -->
<g id="edge7" class="edge">
<title>Node6&#45;&gt;Node8</title>
<path fill="none" stroke="midnightblue" d="M430.03,-22.73C443.29,-21.05 457.76,-19.21 471.48,-17.48"/>
<polygon fill="midnightblue" stroke="midnightblue" points="472.31,-20.9 481.79,-16.17 471.43,-13.95 472.31,-20.9"/>
</g>
</g>
</svg>
