<?xml version="1.0" encoding="UTF-8" standalone="no"?>
<!DOCTYPE svg PUBLIC "-//W3C//DTD SVG 1.1//EN"
 "http://www.w3.org/Graphics/SVG/1.1/DTD/svg11.dtd">
<!-- Generated by graphviz version 2.43.0 (0)
 -->
<!-- Title: priority_queue::pop_front Pages: 1 -->
<svg width="682pt" height="268pt"
 viewBox="0.00 0.00 682.00 268.08" xmlns="http://www.w3.org/2000/svg" xmlns:xlink="http://www.w3.org/1999/xlink">
<g id="graph0" class="graph" transform="scale(1 1) rotate(0) translate(4 264.08)">
<title>priority_queue::pop_front</title>
<!-- Node1 -->
<g id="node1" class="node">
<title>Node1</title>
<g id="a_node1"><a xlink:title="takes the first item in the queue and returns it. The item is deleted from the queue....">
<polygon fill="#bfbfbf" stroke="black" points="0,-181.33 0,-211.33 99,-211.33 99,-181.33 0,-181.33"/>
<text text-anchor="start" x="8" y="-199.33" font-family="Helvetica,sans-Serif" font-size="10.00">priority_queue::pop</text>
<text text-anchor="middle" x="49.5" y="-188.33" font-family="Helvetica,sans-Serif" font-size="10.00">_front</text>
</a>
</g>
</g>
<!-- Node2 -->
<g id="node2" class="node">
<title>Node2</title>
<g id="a_node2"><a xlink:href="classpriority__queue.html#a45867a21e151e7709b0c0a676404756f" target="_top" xlink:title="if queue != empty() it returns a pointer to the beginning of the queue. The item with the highest pri...">
<polygon fill="none" stroke="black" points="567,-200.83 567,-219.83 674,-219.83 674,-200.83 567,-200.83"/>
<text text-anchor="middle" x="620.5" y="-207.83" font-family="Helvetica,sans-Serif" font-size="10.00">priority_queue::begin</text>
</a>
</g>
</g>
<!-- Node1&#45;&gt;Node2 -->
<g id="edge1" class="edge">
<title>Node1&#45;&gt;Node2</title>
<path fill="none" stroke="midnightblue" d="M84.95,-211.46C100.08,-217.67 118.2,-224.51 135,-229.33 197.17,-247.17 213.6,-250.31 278,-256.33 328.89,-261.1 342.15,-261.45 393,-256.33 456.47,-249.95 528.46,-233.76 573.91,-222.4"/>
<polygon fill="midnightblue" stroke="midnightblue" points="574.91,-225.75 583.75,-219.91 573.2,-218.97 574.91,-225.75"/>
</g>
<!-- Node3 -->
<g id="node3" class="node">
<title>Node3</title>
<g id="a_node3"><a xlink:href="classpriority__queue.html#aaaae65e0f719978138017d58571a42ff" target="_top" xlink:title="returns if the queue is empty. in this case both begin() and end() point to nullptr">
<polygon fill="none" stroke="black" points="280.5,-227.83 280.5,-246.83 390.5,-246.83 390.5,-227.83 280.5,-227.83"/>
<text text-anchor="middle" x="335.5" y="-234.83" font-family="Helvetica,sans-Serif" font-size="10.00">priority_queue::empty</text>
</a>
</g>
</g>
<!-- Node1&#45;&gt;Node3 -->
<g id="edge2" class="edge">
<title>Node1&#45;&gt;Node3</title>
<path fill="none" stroke="midnightblue" d="M99.32,-203.38C146.45,-210.19 218.11,-220.53 269.93,-228.01"/>
<polygon fill="midnightblue" stroke="midnightblue" points="269.62,-231.5 280.02,-229.47 270.62,-224.58 269.62,-231.5"/>
</g>
<!-- Node4 -->
<g id="node4" class="node">
<title>Node4</title>
<g id="a_node4"><a xlink:href="classpriority__queue.html#a479561d461dbafc6b7d2813d6344b0d0" target="_top" xlink:title="iterator that points past the last element in the queue.">
<polygon fill="none" stroke="black" points="571,-25.83 571,-44.83 670,-44.83 670,-25.83 571,-25.83"/>
<text text-anchor="middle" x="620.5" y="-32.83" font-family="Helvetica,sans-Serif" font-size="10.00">priority_queue::end</text>
</a>
</g>
</g>
<!-- Node1&#45;&gt;Node4 -->
<g id="edge3" class="edge">
<title>Node1&#45;&gt;Node4</title>
<path fill="none" stroke="midnightblue" d="M63.42,-181.12C95.35,-144.81 182.36,-53.58 278,-19.33 380.1,17.23 510.43,-6.56 576.68,-23.17"/>
<polygon fill="midnightblue" stroke="midnightblue" points="576.19,-26.65 586.74,-25.76 577.93,-19.87 576.19,-26.65"/>
</g>
<!-- Node5 -->
<g id="node5" class="node">
<title>Node5</title>
<g id="a_node5"><a xlink:href="classpriority__queue.html#ab4ca371aa1a80e5c76bd86d3892ebc81" target="_top" xlink:title="removes an item from the queue by iterator. Performance: O(log n)">
<polygon fill="none" stroke="black" points="135,-145.83 135,-164.83 242,-164.83 242,-145.83 135,-145.83"/>
<text text-anchor="middle" x="188.5" y="-152.83" font-family="Helvetica,sans-Serif" font-size="10.00">priority_queue::erase</text>
</a>
</g>
</g>
<!-- Node1&#45;&gt;Node5 -->
<g id="edge4" class="edge">
<title>Node1&#45;&gt;Node5</title>
<path fill="none" stroke="midnightblue" d="M99.19,-181.76C114.43,-177.2 131.11,-172.21 145.83,-167.8"/>
<polygon fill="midnightblue" stroke="midnightblue" points="147.09,-171.08 155.67,-164.86 145.08,-164.37 147.09,-171.08"/>
</g>
<!-- Node5&#45;&gt;Node2 -->
<g id="edge5" class="edge">
<title>Node5&#45;&gt;Node2</title>
<path fill="none" stroke="midnightblue" d="M218.27,-164.94C235.43,-170.3 257.74,-176.62 278,-180.33 374.19,-197.98 487.59,-205.33 556.48,-208.34"/>
<polygon fill="midnightblue" stroke="midnightblue" points="556.59,-211.84 566.73,-208.77 556.88,-204.85 556.59,-211.84"/>
</g>
<!-- Node5&#45;&gt;Node3 -->
<g id="edge13" class="edge">
<title>Node5&#45;&gt;Node3</title>
<path fill="none" stroke="midnightblue" d="M202.54,-164.95C219.41,-177.13 249.97,-198.35 278,-213.33 284.85,-216.99 292.38,-220.52 299.64,-223.68"/>
<polygon fill="midnightblue" stroke="midnightblue" points="298.73,-227.09 309.3,-227.76 301.45,-220.64 298.73,-227.09"/>
</g>
<!-- Node5&#45;&gt;Node4 -->
<g id="edge14" class="edge">
<title>Node5&#45;&gt;Node4</title>
<path fill="none" stroke="midnightblue" d="M194.51,-145.56C205.95,-124.41 236.29,-74.66 278,-54.33 368.82,-10.08 489.75,-16.25 560.66,-25.38"/>
<polygon fill="midnightblue" stroke="midnightblue" points="560.38,-28.87 570.75,-26.74 561.31,-21.93 560.38,-28.87"/>
</g>
<!-- Node6 -->
<g id="node6" class="node">
<title>Node6</title>
<g id="a_node6"><a xlink:href="classpriority__queue.html#af2cfe02abcc1bb97f1e8c19d275fa59b" target="_top" xlink:title=" ">
<polygon fill="none" stroke="black" points="278,-140.33 278,-170.33 393,-170.33 393,-140.33 278,-140.33"/>
<text text-anchor="start" x="286" y="-158.33" font-family="Helvetica,sans-Serif" font-size="10.00">priority_queue::biggest</text>
<text text-anchor="middle" x="335.5" y="-147.33" font-family="Helvetica,sans-Serif" font-size="10.00">_child</text>
</a>
</g>
</g>
<!-- Node5&#45;&gt;Node6 -->
<g id="edge6" class="edge">
<title>Node5&#45;&gt;Node6</title>
<path fill="none" stroke="midnightblue" d="M242.26,-155.33C250.43,-155.33 258.97,-155.33 267.41,-155.33"/>
<polygon fill="midnightblue" stroke="midnightblue" points="267.62,-158.83 277.62,-155.33 267.62,-151.83 267.62,-158.83"/>
</g>
<!-- Node9 -->
<g id="node9" class="node">
<title>Node9</title>
<g id="a_node9"><a xlink:href="classpriority__queue.html#a0969698a8e4fd95156738ef09eb43dc9" target="_top" xlink:title=" ">
<polygon fill="none" stroke="black" points="429.5,-63.83 429.5,-82.83 530.5,-82.83 530.5,-63.83 429.5,-63.83"/>
<text text-anchor="middle" x="480" y="-70.83" font-family="Helvetica,sans-Serif" font-size="10.00">priority_queue::size</text>
</a>
</g>
</g>
<!-- Node5&#45;&gt;Node9 -->
<g id="edge15" class="edge">
<title>Node5&#45;&gt;Node9</title>
<path fill="none" stroke="midnightblue" d="M223.28,-145.77C275.9,-130.86 377.43,-102.1 435.47,-85.66"/>
<polygon fill="midnightblue" stroke="midnightblue" points="436.77,-88.93 445.44,-82.84 434.86,-82.2 436.77,-88.93"/>
</g>
<!-- Node10 -->
<g id="node10" class="node">
<title>Node10</title>
<g id="a_node10"><a xlink:href="classpriority__queue.html#a4c0d7a69f3e7366ba4610874ce7c78d5" target="_top" xlink:title="remove all items from the queue.">
<polygon fill="none" stroke="black" points="283.5,-63.83 283.5,-82.83 387.5,-82.83 387.5,-63.83 283.5,-63.83"/>
<text text-anchor="middle" x="335.5" y="-70.83" font-family="Helvetica,sans-Serif" font-size="10.00">priority_queue::clear</text>
</a>
</g>
</g>
<!-- Node5&#45;&gt;Node10 -->
<g id="edge12" class="edge">
<title>Node5&#45;&gt;Node10</title>
<path fill="none" stroke="midnightblue" d="M202.54,-145.72C219.41,-133.54 249.97,-112.32 278,-97.33 284.85,-93.67 292.38,-90.15 299.64,-86.99"/>
<polygon fill="midnightblue" stroke="midnightblue" points="301.45,-90.02 309.3,-82.91 298.73,-83.57 301.45,-90.02"/>
</g>
<!-- Node7 -->
<g id="node7" class="node">
<title>Node7</title>
<g id="a_node7"><a xlink:href="classpriority__queue.html#a87e7eda50501b61eb4f216c7a82ada37" target="_top" xlink:title=" ">
<polygon fill="none" stroke="black" points="431.5,-102.33 431.5,-132.33 528.5,-132.33 528.5,-102.33 431.5,-102.33"/>
<text text-anchor="start" x="439.5" y="-120.33" font-family="Helvetica,sans-Serif" font-size="10.00">priority_queue::left</text>
<text text-anchor="middle" x="480" y="-109.33" font-family="Helvetica,sans-Serif" font-size="10.00">_index</text>
</a>
</g>
</g>
<!-- Node6&#45;&gt;Node7 -->
<g id="edge7" class="edge">
<title>Node6&#45;&gt;Node7</title>
<path fill="none" stroke="midnightblue" d="M392.82,-140.31C402.29,-137.79 412.13,-135.17 421.62,-132.63"/>
<polygon fill="midnightblue" stroke="midnightblue" points="422.6,-135.99 431.36,-130.04 420.8,-129.23 422.6,-135.99"/>
</g>
<!-- Node8 -->
<g id="node8" class="node">
<title>Node8</title>
<g id="a_node8"><a xlink:href="classpriority__queue.html#a12d267782b2922604cdf7dd8756a491b" target="_top" xlink:title=" ">
<polygon fill="none" stroke="black" points="429,-151.33 429,-181.33 531,-181.33 531,-151.33 429,-151.33"/>
<text text-anchor="start" x="437" y="-169.33" font-family="Helvetica,sans-Serif" font-size="10.00">priority_queue::right</text>
<text text-anchor="middle" x="480" y="-158.33" font-family="Helvetica,sans-Serif" font-size="10.00">_index</text>
</a>
</g>
</g>
<!-- Node6&#45;&gt;Node8 -->
<g id="edge8" class="edge">
<title>Node6&#45;&gt;Node8</title>
<path fill="none" stroke="midnightblue" d="M393.23,-159.71C401.62,-160.36 410.28,-161.03 418.74,-161.68"/>
<polygon fill="midnightblue" stroke="midnightblue" points="418.68,-165.19 428.92,-162.47 419.22,-158.21 418.68,-165.19"/>
</g>
<!-- Node6&#45;&gt;Node9 -->
<g id="edge9" class="edge">
<title>Node6&#45;&gt;Node9</title>
<path fill="none" stroke="midnightblue" d="M368.42,-140.19C376.68,-135.8 385.38,-130.72 393,-125.33 410.73,-112.81 410.52,-103.73 429,-92.33 432.15,-90.39 435.53,-88.59 438.99,-86.94"/>
<polygon fill="midnightblue" stroke="midnightblue" points="440.48,-90.11 448.25,-82.91 437.68,-83.69 440.48,-90.11"/>
</g>
<!-- Node9&#45;&gt;Node2 -->
<g id="edge10" class="edge">
<title>Node9&#45;&gt;Node2</title>
<path fill="none" stroke="midnightblue" d="M514.13,-82.88C520.06,-85.42 525.95,-88.54 531,-92.33 567.3,-119.66 595.8,-165.8 609.87,-191.54"/>
<polygon fill="midnightblue" stroke="midnightblue" points="606.91,-193.43 614.69,-200.62 613.09,-190.15 606.91,-193.43"/>
</g>
<!-- Node9&#45;&gt;Node4 -->
<g id="edge11" class="edge">
<title>Node9&#45;&gt;Node4</title>
<path fill="none" stroke="midnightblue" d="M515.95,-63.74C533.83,-58.84 555.79,-52.81 574.88,-47.58"/>
<polygon fill="midnightblue" stroke="midnightblue" points="575.84,-50.94 584.56,-44.92 573.99,-44.19 575.84,-50.94"/>
</g>
</g>
</svg>
