<?xml version="1.0" encoding="UTF-8" standalone="no"?>
<!DOCTYPE svg PUBLIC "-//W3C//DTD SVG 1.1//EN"
 "http://www.w3.org/Graphics/SVG/1.1/DTD/svg11.dtd">
<!-- Generated by graphviz version 2.43.0 (0)
 -->
<!-- Title: applications/zpc/components/zpc_ncp_update Pages: 1 -->
<svg width="370pt" height="231pt"
 viewBox="0.00 0.00 370.00 231.00" xmlns="http://www.w3.org/2000/svg" xmlns:xlink="http://www.w3.org/1999/xlink">
<g id="graph0" class="graph" transform="scale(1 1) rotate(0) translate(4 227)">
<title>applications/zpc/components/zpc_ncp_update</title>
<g id="clust1" class="cluster">
<title>clusterdir_a9d74fe2658e12bc01226d530457853c</title>
<g id="a_clust1"><a xlink:href="dir_a9d74fe2658e12bc01226d530457853c.html" target="_top" xlink:title="components">
<polygon fill="#edf0f7" stroke="#7f7f7f" stroke-dasharray="5,2" points="8,-56 8,-215 354,-215 354,-56 8,-56"/>
<text text-anchor="middle" x="181" y="-203" font-family="Helvetica,sans-Serif" font-size="10.00">components</text>
</a>
</g>
</g>
<g id="clust2" class="cluster">
<title>clusterdir_0702e875c38133d4acbf8400b64f3860</title>
<g id="a_clust2"><a xlink:href="dir_0702e875c38133d4acbf8400b64f3860.html" target="_top">
<polygon fill="#edf0f7" stroke="#404040" stroke-width="2" points="16,-64 16,-188 192,-188 192,-64 16,-64"/>
</a>
</g>
</g>
<!-- dir_5069f7b084fe544be8c98b9141a6d7eb -->
<g id="node1" class="node">
<title>dir_5069f7b084fe544be8c98b9141a6d7eb</title>
<g id="a_node1"><a xlink:href="dir_5069f7b084fe544be8c98b9141a6d7eb.html" target="_top" xlink:title="zwave_api">
<polygon fill="#a2b4d6" stroke="red" points="263.5,-108 200.5,-108 200.5,-72 263.5,-72 263.5,-108"/>
<text text-anchor="middle" x="232" y="-87.5" font-family="Helvetica,sans-Serif" font-size="10.00">zwave_api</text>
</a>
</g>
</g>
<!-- dir_8589c6044240c4706ed85574715a24d5 -->
<g id="node2" class="node">
<title>dir_8589c6044240c4706ed85574715a24d5</title>
<g id="a_node2"><a xlink:href="dir_8589c6044240c4706ed85574715a24d5.html" target="_top" xlink:title="zpc_config">
<polygon fill="#a2b4d6" stroke="red" points="346,-108 282,-108 282,-72 346,-72 346,-108"/>
<text text-anchor="middle" x="314" y="-87.5" font-family="Helvetica,sans-Serif" font-size="10.00">zpc_config</text>
</a>
</g>
</g>
<!-- dir_0702e875c38133d4acbf8400b64f3860 -->
<g id="node3" class="node">
<title>dir_0702e875c38133d4acbf8400b64f3860</title>
<text text-anchor="middle" x="140" y="-159.5" font-family="Helvetica,sans-Serif" font-size="10.00">zpc_ncp_update</text>
</g>
<!-- dir_c455c17ac8b95ef044bc6a2cfc365601 -->
<g id="node4" class="node">
<title>dir_c455c17ac8b95ef044bc6a2cfc365601</title>
<g id="a_node4"><a xlink:href="dir_c455c17ac8b95ef044bc6a2cfc365601.html" target="_top" xlink:title="include">
<polygon fill="#a2b4d6" stroke="#404040" points="78,-108 24,-108 24,-72 78,-72 78,-108"/>
<text text-anchor="middle" x="51" y="-87.5" font-family="Helvetica,sans-Serif" font-size="10.00">include</text>
</a>
</g>
</g>
<!-- dir_19225156eb7ba052e31d1a736469917a -->
<g id="node6" class="node">
<title>dir_19225156eb7ba052e31d1a736469917a</title>
<g id="a_node6"><a xlink:href="dir_19225156eb7ba052e31d1a736469917a.html" target="_top" xlink:title="mnt">
<polygon fill="none" stroke="red" points="78,-36 24,-36 24,0 78,0 78,-36"/>
<text text-anchor="middle" x="51" y="-15.5" font-family="Helvetica,sans-Serif" font-size="10.00">mnt</text>
</a>
</g>
</g>
<!-- dir_c455c17ac8b95ef044bc6a2cfc365601&#45;&gt;dir_19225156eb7ba052e31d1a736469917a -->
<g id="edge1" class="edge">
<title>dir_c455c17ac8b95ef044bc6a2cfc365601&#45;&gt;dir_19225156eb7ba052e31d1a736469917a</title>
<path fill="none" stroke="black" d="M51,-71.7C51,-63.98 51,-54.71 51,-46.11"/>
<polygon fill="black" stroke="black" points="54.5,-46.1 51,-36.1 47.5,-46.1 54.5,-46.1"/>
<g id="a_edge1&#45;headlabel"><a xlink:href="dir_000023_000048.html" target="_top" xlink:title="1">
<text text-anchor="middle" x="57.34" y="-47.2" font-family="Helvetica,sans-Serif" font-size="10.00">1</text>
</a>
</g>
</g>
<!-- dir_730d8b73ddab55b92470dfdb25ab7778 -->
<g id="node5" class="node">
<title>dir_730d8b73ddab55b92470dfdb25ab7778</title>
<g id="a_node5"><a xlink:href="dir_730d8b73ddab55b92470dfdb25ab7778.html" target="_top" xlink:title="src">
<polygon fill="#a2b4d6" stroke="#404040" points="78,-180 24,-180 24,-144 78,-144 78,-180"/>
<text text-anchor="middle" x="51" y="-159.5" font-family="Helvetica,sans-Serif" font-size="10.00">src</text>
</a>
</g>
</g>
<!-- dir_730d8b73ddab55b92470dfdb25ab7778&#45;&gt;dir_5069f7b084fe544be8c98b9141a6d7eb -->
<g id="edge2" class="edge">
<title>dir_730d8b73ddab55b92470dfdb25ab7778&#45;&gt;dir_5069f7b084fe544be8c98b9141a6d7eb</title>
<path fill="none" stroke="black" d="M78.36,-147.66C81.26,-146.37 84.18,-145.13 87,-144 131.32,-126.29 146.65,-126.77 190.75,-109.96"/>
<polygon fill="black" stroke="black" points="192.25,-113.13 200.29,-106.23 189.7,-106.61 192.25,-113.13"/>
<g id="a_edge2&#45;headlabel"><a xlink:href="dir_000071_000116.html" target="_top" xlink:title="1">
<text text-anchor="middle" x="189.94" y="-114.59" font-family="Helvetica,sans-Serif" font-size="10.00">1</text>
</a>
</g>
</g>
<!-- dir_730d8b73ddab55b92470dfdb25ab7778&#45;&gt;dir_8589c6044240c4706ed85574715a24d5 -->
<g id="edge3" class="edge">
<title>dir_730d8b73ddab55b92470dfdb25ab7778&#45;&gt;dir_8589c6044240c4706ed85574715a24d5</title>
<path fill="none" stroke="black" d="M78.23,-147.28C81.15,-146.07 84.11,-144.95 87,-144 164.06,-118.79 190.41,-131.23 272.28,-107.86"/>
<polygon fill="black" stroke="black" points="273.39,-111.18 281.99,-104.99 271.41,-104.46 273.39,-111.18"/>
<g id="a_edge3&#45;headlabel"><a xlink:href="dir_000071_000108.html" target="_top" xlink:title="1">
<text text-anchor="middle" x="270.75" y="-112.42" font-family="Helvetica,sans-Serif" font-size="10.00">1</text>
</a>
</g>
</g>
<!-- dir_730d8b73ddab55b92470dfdb25ab7778&#45;&gt;dir_c455c17ac8b95ef044bc6a2cfc365601 -->
<g id="edge4" class="edge">
<title>dir_730d8b73ddab55b92470dfdb25ab7778&#45;&gt;dir_c455c17ac8b95ef044bc6a2cfc365601</title>
<path fill="none" stroke="black" d="M51,-143.7C51,-135.98 51,-126.71 51,-118.11"/>
<polygon fill="black" stroke="black" points="54.5,-118.1 51,-108.1 47.5,-118.1 54.5,-118.1"/>
<g id="a_edge4&#45;headlabel"><a xlink:href="dir_000071_000023.html" target="_top" xlink:title="1">
<text text-anchor="middle" x="57.34" y="-119.2" font-family="Helvetica,sans-Serif" font-size="10.00">1</text>
</a>
</g>
</g>
</g>
</svg>
