<?xml version="1.0" encoding="UTF-8" standalone="no"?>
<!DOCTYPE svg PUBLIC "-//W3C//DTD SVG 1.1//EN"
 "http://www.w3.org/Graphics/SVG/1.1/DTD/svg11.dtd">
<!-- Generated by graphviz version 2.43.0 (0)
 -->
<!-- Title: applications/zpc/components/zwave/zwave_rx Pages: 1 -->
<svg width="451pt" height="247pt"
 viewBox="0.00 0.00 451.37 247.00" xmlns="http://www.w3.org/2000/svg" xmlns:xlink="http://www.w3.org/1999/xlink">
<g id="graph0" class="graph" transform="scale(1 1) rotate(0) translate(4 243)">
<title>applications/zpc/components/zwave/zwave_rx</title>
<g id="clust1" class="cluster">
<title>clusterdir_f3e54dd29e621d563099d452e62da9f8</title>
<g id="a_clust1"><a xlink:href="dir_f3e54dd29e621d563099d452e62da9f8.html" target="_top" xlink:title="zwave">
<polygon fill="#edf0f7" stroke="#7f7f7f" stroke-dasharray="5,2" points="8,-8 8,-231 270,-231 270,-8 8,-8"/>
<text text-anchor="middle" x="139" y="-219" font-family="Helvetica,sans-Serif" font-size="10.00">zwave</text>
</a>
</g>
</g>
<g id="clust2" class="cluster">
<title>clusterdir_0ae112d56e74946f02cfe5bffaa8cbc8</title>
<g id="a_clust2"><a xlink:href="dir_0ae112d56e74946f02cfe5bffaa8cbc8.html" target="_top">
<polygon fill="#edf0f7" stroke="#404040" stroke-width="2" points="16,-80 16,-204 164,-204 164,-80 16,-80"/>
</a>
</g>
</g>
<!-- dir_3a7f05f1ae2c2d2f6fc896203c15febc -->
<g id="node1" class="node">
<title>dir_3a7f05f1ae2c2d2f6fc896203c15febc</title>
<g id="a_node1"><a xlink:href="dir_3a7f05f1ae2c2d2f6fc896203c15febc.html" target="_top" xlink:title="zwave_definitions">
<polygon fill="#a2b4d6" stroke="red" points="128.5,-52 33.5,-52 33.5,-16 128.5,-16 128.5,-52"/>
<text text-anchor="middle" x="81" y="-31.5" font-family="Helvetica,sans-Serif" font-size="10.00">zwave_definitions</text>
</a>
</g>
</g>
<!-- dir_3fdbfed0850fd95dbe3b2b1a1a1ffa0e -->
<g id="node2" class="node">
<title>dir_3fdbfed0850fd95dbe3b2b1a1a1ffa0e</title>
<g id="a_node2"><a xlink:href="dir_3fdbfed0850fd95dbe3b2b1a1a1ffa0e.html" target="_top" xlink:title="zwave_controller">
<polygon fill="#a2b4d6" stroke="red" points="262,-124 172,-124 172,-88 262,-88 262,-124"/>
<text text-anchor="middle" x="217" y="-103.5" font-family="Helvetica,sans-Serif" font-size="10.00">zwave_controller</text>
</a>
</g>
</g>
<!-- dir_0ae112d56e74946f02cfe5bffaa8cbc8 -->
<g id="node3" class="node">
<title>dir_0ae112d56e74946f02cfe5bffaa8cbc8</title>
<text text-anchor="middle" x="126" y="-175.5" font-family="Helvetica,sans-Serif" font-size="10.00">zwave_rx</text>
</g>
<!-- dir_65d068b0b0ce5eb6577877ff7cd1b651 -->
<g id="node4" class="node">
<title>dir_65d068b0b0ce5eb6577877ff7cd1b651</title>
<g id="a_node4"><a xlink:href="dir_65d068b0b0ce5eb6577877ff7cd1b651.html" target="_top" xlink:title="include">
<polygon fill="#a2b4d6" stroke="#404040" points="124,-124 70,-124 70,-88 124,-88 124,-124"/>
<text text-anchor="middle" x="97" y="-103.5" font-family="Helvetica,sans-Serif" font-size="10.00">include</text>
</a>
</g>
</g>
<!-- dir_65d068b0b0ce5eb6577877ff7cd1b651&#45;&gt;dir_3a7f05f1ae2c2d2f6fc896203c15febc -->
<g id="edge1" class="edge">
<title>dir_65d068b0b0ce5eb6577877ff7cd1b651&#45;&gt;dir_3a7f05f1ae2c2d2f6fc896203c15febc</title>
<path fill="none" stroke="black" d="M93.04,-87.7C91.28,-79.98 89.16,-70.71 87.2,-62.11"/>
<polygon fill="black" stroke="black" points="90.55,-61.07 84.91,-52.1 83.73,-62.63 90.55,-61.07"/>
<g id="a_edge1&#45;headlabel"><a xlink:href="dir_000026_000119.html" target="_top" xlink:title="1">
<text text-anchor="middle" x="94.12" y="-61.44" font-family="Helvetica,sans-Serif" font-size="10.00">1</text>
</a>
</g>
</g>
<!-- dir_d44c64559bbebec7f509842c48db8b23 -->
<g id="node8" class="node">
<title>dir_d44c64559bbebec7f509842c48db8b23</title>
<g id="a_node8"><a xlink:href="dir_d44c64559bbebec7f509842c48db8b23.html" target="_top" xlink:title="include">
<polygon fill="none" stroke="#404040" points="406,-52 352,-52 352,-16 406,-16 406,-52"/>
<text text-anchor="middle" x="379" y="-31.5" font-family="Helvetica,sans-Serif" font-size="10.00">include</text>
</a>
</g>
</g>
<!-- dir_65d068b0b0ce5eb6577877ff7cd1b651&#45;&gt;dir_d44c64559bbebec7f509842c48db8b23 -->
<g id="edge2" class="edge">
<title>dir_65d068b0b0ce5eb6577877ff7cd1b651&#45;&gt;dir_d44c64559bbebec7f509842c48db8b23</title>
<path fill="none" stroke="black" d="M115.34,-87.77C119.28,-84.79 123.6,-82.01 128,-80 137.65,-75.6 273.65,-52.54 341.32,-41.25"/>
<polygon fill="black" stroke="black" points="342.28,-44.64 351.56,-39.54 341.13,-37.73 342.28,-44.64"/>
<g id="a_edge2&#45;headlabel"><a xlink:href="dir_000026_000047.html" target="_top" xlink:title="3">
<text text-anchor="middle" x="339.2" y="-45.53" font-family="Helvetica,sans-Serif" font-size="10.00">3</text>
</a>
</g>
</g>
<!-- dir_67230de944c36a2fe8e46bf0668f7216 -->
<g id="node5" class="node">
<title>dir_67230de944c36a2fe8e46bf0668f7216</title>
<g id="a_node5"><a xlink:href="dir_67230de944c36a2fe8e46bf0668f7216.html" target="_top" xlink:title="src">
<polygon fill="#a2b4d6" stroke="#404040" points="78,-196 24,-196 24,-160 78,-160 78,-196"/>
<text text-anchor="middle" x="51" y="-175.5" font-family="Helvetica,sans-Serif" font-size="10.00">src</text>
</a>
</g>
</g>
<!-- dir_67230de944c36a2fe8e46bf0668f7216&#45;&gt;dir_3a7f05f1ae2c2d2f6fc896203c15febc -->
<g id="edge3" class="edge">
<title>dir_67230de944c36a2fe8e46bf0668f7216&#45;&gt;dir_3a7f05f1ae2c2d2f6fc896203c15febc</title>
<path fill="none" stroke="black" d="M51.15,-159.89C51.68,-140.27 53.72,-107.32 61,-80 62.64,-73.86 65.01,-67.49 67.55,-61.55"/>
<polygon fill="black" stroke="black" points="70.91,-62.61 71.89,-52.06 64.55,-59.7 70.91,-62.61"/>
<g id="a_edge3&#45;headlabel"><a xlink:href="dir_000075_000119.html" target="_top" xlink:title="2">
<text text-anchor="middle" x="72" y="-64.56" font-family="Helvetica,sans-Serif" font-size="10.00">2</text>
</a>
</g>
</g>
<!-- dir_67230de944c36a2fe8e46bf0668f7216&#45;&gt;dir_3fdbfed0850fd95dbe3b2b1a1a1ffa0e -->
<g id="edge4" class="edge">
<title>dir_67230de944c36a2fe8e46bf0668f7216&#45;&gt;dir_3fdbfed0850fd95dbe3b2b1a1a1ffa0e</title>
<path fill="none" stroke="black" d="M78.05,-164.03C81.06,-162.65 84.09,-161.28 87,-160 112.1,-148.97 140.25,-137.39 163.91,-127.89"/>
<polygon fill="black" stroke="black" points="165.44,-131.05 173.42,-124.08 162.84,-124.55 165.44,-131.05"/>
<g id="a_edge4&#45;headlabel"><a xlink:href="dir_000075_000118.html" target="_top" xlink:title="2">
<text text-anchor="middle" x="163.15" y="-132.52" font-family="Helvetica,sans-Serif" font-size="10.00">2</text>
</a>
</g>
</g>
<!-- dir_67230de944c36a2fe8e46bf0668f7216&#45;&gt;dir_65d068b0b0ce5eb6577877ff7cd1b651 -->
<g id="edge5" class="edge">
<title>dir_67230de944c36a2fe8e46bf0668f7216&#45;&gt;dir_65d068b0b0ce5eb6577877ff7cd1b651</title>
<path fill="none" stroke="black" d="M62.37,-159.7C67.72,-151.56 74.2,-141.69 80.11,-132.7"/>
<polygon fill="black" stroke="black" points="83.19,-134.38 85.76,-124.1 77.34,-130.54 83.19,-134.38"/>
<g id="a_edge5&#45;headlabel"><a xlink:href="dir_000075_000026.html" target="_top" xlink:title="5">
<text text-anchor="middle" x="83.59" y="-136.45" font-family="Helvetica,sans-Serif" font-size="10.00">5</text>
</a>
</g>
</g>
<!-- dir_8d1bf46fc0d19bf25ff00546b2658a9b -->
<g id="node6" class="node">
<title>dir_8d1bf46fc0d19bf25ff00546b2658a9b</title>
<g id="a_node6"><a xlink:href="dir_8d1bf46fc0d19bf25ff00546b2658a9b.html" target="_top" xlink:title="zpc_config">
<polygon fill="none" stroke="red" stroke-dasharray="5,2" points="344,-124 280,-124 280,-88 344,-88 344,-124"/>
<text text-anchor="middle" x="312" y="-103.5" font-family="Helvetica,sans-Serif" font-size="10.00">zpc_config</text>
</a>
</g>
</g>
<!-- dir_67230de944c36a2fe8e46bf0668f7216&#45;&gt;dir_8d1bf46fc0d19bf25ff00546b2658a9b -->
<g id="edge6" class="edge">
<title>dir_67230de944c36a2fe8e46bf0668f7216&#45;&gt;dir_8d1bf46fc0d19bf25ff00546b2658a9b</title>
<path fill="none" stroke="black" d="M78.23,-163.28C81.15,-162.07 84.11,-160.94 87,-160 164.31,-134.75 191.18,-148.29 269.98,-125.01"/>
<polygon fill="black" stroke="black" points="271.32,-128.26 279.86,-121.99 269.27,-121.57 271.32,-128.26"/>
<g id="a_edge6&#45;headlabel"><a xlink:href="dir_000075_000106.html" target="_top" xlink:title="2">
<text text-anchor="middle" x="268.72" y="-129.53" font-family="Helvetica,sans-Serif" font-size="10.00">2</text>
</a>
</g>
</g>
<!-- dir_9376f99cbc649c5813b13d9244dc2fa3 -->
<g id="node7" class="node">
<title>dir_9376f99cbc649c5813b13d9244dc2fa3</title>
<g id="a_node7"><a xlink:href="dir_9376f99cbc649c5813b13d9244dc2fa3.html" target="_top" xlink:title="zwave_api">
<polygon fill="none" stroke="red" stroke-dasharray="5,2" points="425.5,-124 362.5,-124 362.5,-88 425.5,-88 425.5,-124"/>
<text text-anchor="middle" x="394" y="-103.5" font-family="Helvetica,sans-Serif" font-size="10.00">zwave_api</text>
</a>
</g>
</g>
<!-- dir_67230de944c36a2fe8e46bf0668f7216&#45;&gt;dir_9376f99cbc649c5813b13d9244dc2fa3 -->
<g id="edge7" class="edge">
<title>dir_67230de944c36a2fe8e46bf0668f7216&#45;&gt;dir_9376f99cbc649c5813b13d9244dc2fa3</title>
<path fill="none" stroke="black" d="M78.18,-163.11C81.11,-161.93 84.08,-160.86 87,-160 198.38,-127.02 235.85,-153.62 352.82,-123.58"/>
<polygon fill="black" stroke="black" points="353.73,-126.96 362.5,-121.01 351.94,-120.19 353.73,-126.96"/>
<g id="a_edge7&#45;headlabel"><a xlink:href="dir_000075_000114.html" target="_top" xlink:title="6">
<text text-anchor="middle" x="350.98" y="-128.12" font-family="Helvetica,sans-Serif" font-size="10.00">6</text>
</a>
</g>
</g>
<!-- dir_67230de944c36a2fe8e46bf0668f7216&#45;&gt;dir_d44c64559bbebec7f509842c48db8b23 -->
<g id="edge8" class="edge">
<title>dir_67230de944c36a2fe8e46bf0668f7216&#45;&gt;dir_d44c64559bbebec7f509842c48db8b23</title>
<path fill="none" stroke="black" d="M78.15,-163.02C81.08,-161.86 84.07,-160.82 87,-160 161.89,-139.1 382.93,-181.73 435,-124 448.1,-109.48 443.45,-97.63 435,-80 430.38,-70.37 422.59,-62.15 414.26,-55.47"/>
<polygon fill="black" stroke="black" points="416.33,-52.64 406.2,-49.54 412.18,-58.28 416.33,-52.64"/>
<g id="a_edge8&#45;headlabel"><a xlink:href="dir_000075_000047.html" target="_top" xlink:title="2">
<text text-anchor="middle" x="420.91" y="-49.98" font-family="Helvetica,sans-Serif" font-size="10.00">2</text>
</a>
</g>
</g>
</g>
</svg>
