<?xml version="1.0" encoding="UTF-8" standalone="no"?>
<!DOCTYPE svg PUBLIC "-//W3C//DTD SVG 1.1//EN"
 "http://www.w3.org/Graphics/SVG/1.1/DTD/svg11.dtd">
<!-- Generated by graphviz version 2.43.0 (0)
 -->
<!-- Title: applications/zpc/components/zcl_cluster_servers/src Pages: 1 -->
<svg width="334pt" height="151pt"
 viewBox="0.00 0.00 334.00 151.00" xmlns="http://www.w3.org/2000/svg" xmlns:xlink="http://www.w3.org/1999/xlink">
<g id="graph0" class="graph" transform="scale(1 1) rotate(0) translate(4 147)">
<title>applications/zpc/components/zcl_cluster_servers/src</title>
<g id="clust1" class="cluster">
<title>clusterdir_d91d23ed1d6406dcb702936bf15f1c1b</title>
<g id="a_clust1"><a xlink:href="dir_d91d23ed1d6406dcb702936bf15f1c1b.html" target="_top" xlink:title="zcl_cluster_servers">
<polygon fill="#edf0f7" stroke="#7f7f7f" stroke-dasharray="5,2" points="138,-64 138,-135 239,-135 239,-64 138,-64"/>
<text text-anchor="middle" x="188.5" y="-123" font-family="Helvetica,sans-Serif" font-size="10.00">zcl_cluster_servers</text>
</a>
</g>
</g>
<!-- dir_a0d683a24e7dff25c3602744bd1f23f9 -->
<g id="node1" class="node">
<title>dir_a0d683a24e7dff25c3602744bd1f23f9</title>
<g id="a_node1"><a xlink:href="dir_a0d683a24e7dff25c3602744bd1f23f9.html" target="_top" xlink:title="src">
<polygon fill="#edf0f7" stroke="#404040" stroke-width="2" points="215,-108 161,-108 161,-72 215,-72 215,-108"/>
<text text-anchor="middle" x="188" y="-87.5" font-family="Helvetica,sans-Serif" font-size="10.00">src</text>
</a>
</g>
</g>
<!-- dir_20462f6d7be47578489ee94c8a2b0b2b -->
<g id="node2" class="node">
<title>dir_20462f6d7be47578489ee94c8a2b0b2b</title>
<g id="a_node2"><a xlink:href="dir_20462f6d7be47578489ee94c8a2b0b2b.html" target="_top" xlink:title="zpc_attribute_store">
<polygon fill="none" stroke="red" stroke-dasharray="5,2" points="100,-36 0,-36 0,0 100,0 100,-36"/>
<text text-anchor="middle" x="50" y="-15.5" font-family="Helvetica,sans-Serif" font-size="10.00">zpc_attribute_store</text>
</a>
</g>
</g>
<!-- dir_a0d683a24e7dff25c3602744bd1f23f9&#45;&gt;dir_20462f6d7be47578489ee94c8a2b0b2b -->
<g id="edge1" class="edge">
<title>dir_a0d683a24e7dff25c3602744bd1f23f9&#45;&gt;dir_20462f6d7be47578489ee94c8a2b0b2b</title>
<path fill="none" stroke="black" d="M160.74,-75.17C141.35,-65.34 114.93,-51.94 92.76,-40.69"/>
<polygon fill="black" stroke="black" points="94.05,-37.42 83.55,-36.02 90.89,-43.66 94.05,-37.42"/>
<g id="a_edge1&#45;headlabel"><a xlink:href="dir_000062_000105.html" target="_top" xlink:title="8">
<text text-anchor="middle" x="98.54" y="-34.02" font-family="Helvetica,sans-Serif" font-size="10.00">8</text>
</a>
</g>
</g>
<!-- dir_9376f99cbc649c5813b13d9244dc2fa3 -->
<g id="node3" class="node">
<title>dir_9376f99cbc649c5813b13d9244dc2fa3</title>
<g id="a_node3"><a xlink:href="dir_9376f99cbc649c5813b13d9244dc2fa3.html" target="_top" xlink:title="zwave_api">
<polygon fill="none" stroke="red" stroke-dasharray="5,2" points="181.5,-36 118.5,-36 118.5,0 181.5,0 181.5,-36"/>
<text text-anchor="middle" x="150" y="-15.5" font-family="Helvetica,sans-Serif" font-size="10.00">zwave_api</text>
</a>
</g>
</g>
<!-- dir_a0d683a24e7dff25c3602744bd1f23f9&#45;&gt;dir_9376f99cbc649c5813b13d9244dc2fa3 -->
<g id="edge2" class="edge">
<title>dir_a0d683a24e7dff25c3602744bd1f23f9&#45;&gt;dir_9376f99cbc649c5813b13d9244dc2fa3</title>
<path fill="none" stroke="black" d="M178.61,-71.7C174.24,-63.64 168.94,-53.89 164.1,-44.98"/>
<polygon fill="black" stroke="black" points="167.13,-43.22 159.29,-36.1 160.98,-46.56 167.13,-43.22"/>
<g id="a_edge2&#45;headlabel"><a xlink:href="dir_000062_000114.html" target="_top" xlink:title="1">
<text text-anchor="middle" x="171.34" y="-42.53" font-family="Helvetica,sans-Serif" font-size="10.00">1</text>
</a>
</g>
</g>
<!-- dir_d44c64559bbebec7f509842c48db8b23 -->
<g id="node4" class="node">
<title>dir_d44c64559bbebec7f509842c48db8b23</title>
<g id="a_node4"><a xlink:href="dir_d44c64559bbebec7f509842c48db8b23.html" target="_top" xlink:title="include">
<polygon fill="none" stroke="#404040" points="254,-36 200,-36 200,0 254,0 254,-36"/>
<text text-anchor="middle" x="227" y="-15.5" font-family="Helvetica,sans-Serif" font-size="10.00">include</text>
</a>
</g>
</g>
<!-- dir_a0d683a24e7dff25c3602744bd1f23f9&#45;&gt;dir_d44c64559bbebec7f509842c48db8b23 -->
<g id="edge3" class="edge">
<title>dir_a0d683a24e7dff25c3602744bd1f23f9&#45;&gt;dir_d44c64559bbebec7f509842c48db8b23</title>
<path fill="none" stroke="black" d="M197.64,-71.7C202.13,-63.64 207.56,-53.89 212.52,-44.98"/>
<polygon fill="black" stroke="black" points="215.66,-46.54 217.47,-36.1 209.55,-43.14 215.66,-46.54"/>
<g id="a_edge3&#45;headlabel"><a xlink:href="dir_000062_000047.html" target="_top" xlink:title="11">
<text text-anchor="middle" x="216.39" y="-48.57" font-family="Helvetica,sans-Serif" font-size="10.00">11</text>
</a>
</g>
</g>
<!-- dir_f3e54dd29e621d563099d452e62da9f8 -->
<g id="node5" class="node">
<title>dir_f3e54dd29e621d563099d452e62da9f8</title>
<g id="a_node5"><a xlink:href="dir_f3e54dd29e621d563099d452e62da9f8.html" target="_top" xlink:title="zwave">
<polygon fill="none" stroke="red" stroke-dasharray="5,2" points="326,-36 272,-36 272,0 326,0 326,-36"/>
<text text-anchor="middle" x="299" y="-15.5" font-family="Helvetica,sans-Serif" font-size="10.00">zwave</text>
</a>
</g>
</g>
<!-- dir_a0d683a24e7dff25c3602744bd1f23f9&#45;&gt;dir_f3e54dd29e621d563099d452e62da9f8 -->
<g id="edge4" class="edge">
<title>dir_a0d683a24e7dff25c3602744bd1f23f9&#45;&gt;dir_f3e54dd29e621d563099d452e62da9f8</title>
<path fill="none" stroke="black" d="M215.15,-71.88C229.53,-62.81 247.38,-51.55 262.91,-41.76"/>
<polygon fill="black" stroke="black" points="265.15,-44.48 271.74,-36.19 261.42,-38.56 265.15,-44.48"/>
<g id="a_edge4&#45;headlabel"><a xlink:href="dir_000062_000113.html" target="_top" xlink:title="5">
<text text-anchor="middle" x="263.62" y="-46.3" font-family="Helvetica,sans-Serif" font-size="10.00">5</text>
</a>
</g>
</g>
</g>
</svg>
