<?xml version="1.0" encoding="UTF-8" standalone="no"?>
<!DOCTYPE svg PUBLIC "-//W3C//DTD SVG 1.1//EN"
 "http://www.w3.org/Graphics/SVG/1.1/DTD/svg11.dtd">
<!-- Generated by graphviz version 2.43.0 (0)
 -->
<!-- Title: applications/zpc/components/zwave/zwave_network_management Pages: 1 -->
<svg width="800pt" height="247pt"
 viewBox="0.00 0.00 800.21 247.00" xmlns="http://www.w3.org/2000/svg" xmlns:xlink="http://www.w3.org/1999/xlink">
<g id="graph0" class="graph" transform="scale(1 1) rotate(0) translate(4 243)">
<title>applications/zpc/components/zwave/zwave_network_management</title>
<g id="clust1" class="cluster">
<title>clusterdir_f3e54dd29e621d563099d452e62da9f8</title>
<g id="a_clust1"><a xlink:href="dir_f3e54dd29e621d563099d452e62da9f8.html" target="_top" xlink:title="zwave">
<polygon fill="#edf0f7" stroke="#7f7f7f" stroke-dasharray="5,2" points="8,-8 8,-231 526,-231 526,-8 8,-8"/>
<text text-anchor="middle" x="267" y="-219" font-family="Helvetica,sans-Serif" font-size="10.00">zwave</text>
</a>
</g>
</g>
<g id="clust2" class="cluster">
<title>clusterdir_4c7246e6a1b2917f2d670822ca0c83f7</title>
<g id="a_clust2"><a xlink:href="dir_4c7246e6a1b2917f2d670822ca0c83f7.html" target="_top">
<polygon fill="#edf0f7" stroke="#404040" stroke-width="2" points="104,-80 104,-204 338,-204 338,-80 104,-80"/>
</a>
</g>
</g>
<!-- dir_0ae112d56e74946f02cfe5bffaa8cbc8 -->
<g id="node1" class="node">
<title>dir_0ae112d56e74946f02cfe5bffaa8cbc8</title>
<g id="a_node1"><a xlink:href="dir_0ae112d56e74946f02cfe5bffaa8cbc8.html" target="_top" xlink:title="zwave_rx">
<polygon fill="#a2b4d6" stroke="red" points="95.5,-124 36.5,-124 36.5,-88 95.5,-88 95.5,-124"/>
<text text-anchor="middle" x="66" y="-103.5" font-family="Helvetica,sans-Serif" font-size="10.00">zwave_rx</text>
</a>
</g>
</g>
<!-- dir_3a7f05f1ae2c2d2f6fc896203c15febc -->
<g id="node2" class="node">
<title>dir_3a7f05f1ae2c2d2f6fc896203c15febc</title>
<g id="a_node2"><a xlink:href="dir_3a7f05f1ae2c2d2f6fc896203c15febc.html" target="_top" xlink:title="zwave_definitions">
<polygon fill="#a2b4d6" stroke="red" points="117.5,-52 22.5,-52 22.5,-16 117.5,-16 117.5,-52"/>
<text text-anchor="middle" x="70" y="-31.5" font-family="Helvetica,sans-Serif" font-size="10.00">zwave_definitions</text>
</a>
</g>
</g>
<!-- dir_3fdbfed0850fd95dbe3b2b1a1a1ffa0e -->
<g id="node3" class="node">
<title>dir_3fdbfed0850fd95dbe3b2b1a1a1ffa0e</title>
<g id="a_node3"><a xlink:href="dir_3fdbfed0850fd95dbe3b2b1a1a1ffa0e.html" target="_top" xlink:title="zwave_controller">
<polygon fill="#a2b4d6" stroke="red" points="229,-52 139,-52 139,-16 229,-16 229,-52"/>
<text text-anchor="middle" x="184" y="-31.5" font-family="Helvetica,sans-Serif" font-size="10.00">zwave_controller</text>
</a>
</g>
</g>
<!-- dir_99fcbcb75e556cb0c2dfb06eb3d295b0 -->
<g id="node4" class="node">
<title>dir_99fcbcb75e556cb0c2dfb06eb3d295b0</title>
<g id="a_node4"><a xlink:href="dir_99fcbcb75e556cb0c2dfb06eb3d295b0.html" target="_top" xlink:title="zwave_tx">
<polygon fill="#a2b4d6" stroke="red" points="405.5,-124 346.5,-124 346.5,-88 405.5,-88 405.5,-124"/>
<text text-anchor="middle" x="376" y="-103.5" font-family="Helvetica,sans-Serif" font-size="10.00">zwave_tx</text>
</a>
</g>
</g>
<!-- dir_f4b467f0a960798c9a570e0236e928b5 -->
<g id="node5" class="node">
<title>dir_f4b467f0a960798c9a570e0236e928b5</title>
<g id="a_node5"><a xlink:href="dir_f4b467f0a960798c9a570e0236e928b5.html" target="_top" xlink:title="zwave_transports">
<polygon fill="#a2b4d6" stroke="red" points="518,-124 424,-124 424,-88 518,-88 518,-124"/>
<text text-anchor="middle" x="471" y="-103.5" font-family="Helvetica,sans-Serif" font-size="10.00">zwave_transports</text>
</a>
</g>
</g>
<!-- dir_4c7246e6a1b2917f2d670822ca0c83f7 -->
<g id="node6" class="node">
<title>dir_4c7246e6a1b2917f2d670822ca0c83f7</title>
<text text-anchor="middle" x="257" y="-175.5" font-family="Helvetica,sans-Serif" font-size="10.00">zwave_network_management</text>
</g>
<!-- dir_c14c6764f85e0cf0d868013a8d53f6b7 -->
<g id="node7" class="node">
<title>dir_c14c6764f85e0cf0d868013a8d53f6b7</title>
<g id="a_node7"><a xlink:href="dir_c14c6764f85e0cf0d868013a8d53f6b7.html" target="_top" xlink:title="include">
<polygon fill="#a2b4d6" stroke="#404040" points="168,-124 114,-124 114,-88 168,-88 168,-124"/>
<text text-anchor="middle" x="141" y="-103.5" font-family="Helvetica,sans-Serif" font-size="10.00">include</text>
</a>
</g>
</g>
<!-- dir_c14c6764f85e0cf0d868013a8d53f6b7&#45;&gt;dir_3a7f05f1ae2c2d2f6fc896203c15febc -->
<g id="edge1" class="edge">
<title>dir_c14c6764f85e0cf0d868013a8d53f6b7&#45;&gt;dir_3a7f05f1ae2c2d2f6fc896203c15febc</title>
<path fill="none" stroke="black" d="M123.45,-87.7C114.77,-79.14 104.14,-68.66 94.65,-59.3"/>
<polygon fill="black" stroke="black" points="96.93,-56.63 87.35,-52.1 92.01,-61.62 96.93,-56.63"/>
<g id="a_edge1&#45;headlabel"><a xlink:href="dir_000025_000119.html" target="_top" xlink:title="3">
<text text-anchor="middle" x="101.48" y="-54.63" font-family="Helvetica,sans-Serif" font-size="10.00">3</text>
</a>
</g>
</g>
<!-- dir_c14c6764f85e0cf0d868013a8d53f6b7&#45;&gt;dir_3fdbfed0850fd95dbe3b2b1a1a1ffa0e -->
<g id="edge2" class="edge">
<title>dir_c14c6764f85e0cf0d868013a8d53f6b7&#45;&gt;dir_3fdbfed0850fd95dbe3b2b1a1a1ffa0e</title>
<path fill="none" stroke="black" d="M151.63,-87.7C156.63,-79.56 162.69,-69.69 168.21,-60.7"/>
<polygon fill="black" stroke="black" points="171.24,-62.46 173.49,-52.1 165.28,-58.79 171.24,-62.46"/>
<g id="a_edge2&#45;headlabel"><a xlink:href="dir_000025_000118.html" target="_top" xlink:title="1">
<text text-anchor="middle" x="171.78" y="-64.51" font-family="Helvetica,sans-Serif" font-size="10.00">1</text>
</a>
</g>
</g>
<!-- dir_d44c64559bbebec7f509842c48db8b23 -->
<g id="node11" class="node">
<title>dir_d44c64559bbebec7f509842c48db8b23</title>
<g id="a_node11"><a xlink:href="dir_d44c64559bbebec7f509842c48db8b23.html" target="_top" xlink:title="include">
<polygon fill="none" stroke="#404040" points="708,-52 654,-52 654,-16 708,-16 708,-52"/>
<text text-anchor="middle" x="681" y="-31.5" font-family="Helvetica,sans-Serif" font-size="10.00">include</text>
</a>
</g>
</g>
<!-- dir_c14c6764f85e0cf0d868013a8d53f6b7&#45;&gt;dir_d44c64559bbebec7f509842c48db8b23 -->
<g id="edge3" class="edge">
<title>dir_c14c6764f85e0cf0d868013a8d53f6b7&#45;&gt;dir_d44c64559bbebec7f509842c48db8b23</title>
<path fill="none" stroke="black" d="M158.52,-87.92C162.65,-84.78 167.25,-81.89 172,-80 246.15,-50.52 450.56,-59.58 530,-52 568.76,-48.3 613.02,-43.22 643.55,-39.57"/>
<polygon fill="black" stroke="black" points="644.24,-43.02 653.75,-38.35 643.4,-36.07 644.24,-43.02"/>
<g id="a_edge3&#45;headlabel"><a xlink:href="dir_000025_000047.html" target="_top" xlink:title="2">
<text text-anchor="middle" x="641.01" y="-43.77" font-family="Helvetica,sans-Serif" font-size="10.00">2</text>
</a>
</g>
</g>
<!-- dir_140a5582e5dd5795b7b4430df83ea200 -->
<g id="node8" class="node">
<title>dir_140a5582e5dd5795b7b4430df83ea200</title>
<g id="a_node8"><a xlink:href="dir_140a5582e5dd5795b7b4430df83ea200.html" target="_top" xlink:title="src">
<polygon fill="#a2b4d6" stroke="#404040" points="166,-196 112,-196 112,-160 166,-160 166,-196"/>
<text text-anchor="middle" x="139" y="-175.5" font-family="Helvetica,sans-Serif" font-size="10.00">src</text>
</a>
</g>
</g>
<!-- dir_140a5582e5dd5795b7b4430df83ea200&#45;&gt;dir_0ae112d56e74946f02cfe5bffaa8cbc8 -->
<g id="edge4" class="edge">
<title>dir_140a5582e5dd5795b7b4430df83ea200&#45;&gt;dir_0ae112d56e74946f02cfe5bffaa8cbc8</title>
<path fill="none" stroke="black" d="M120.96,-159.7C111.94,-151.05 100.88,-140.45 91.06,-131.03"/>
<polygon fill="black" stroke="black" points="93.48,-128.5 83.84,-124.1 88.63,-133.55 93.48,-128.5"/>
<g id="a_edge4&#45;headlabel"><a xlink:href="dir_000074_000121.html" target="_top" xlink:title="2">
<text text-anchor="middle" x="98.04" y="-126.44" font-family="Helvetica,sans-Serif" font-size="10.00">2</text>
</a>
</g>
</g>
<!-- dir_140a5582e5dd5795b7b4430df83ea200&#45;&gt;dir_3a7f05f1ae2c2d2f6fc896203c15febc -->
<g id="edge5" class="edge">
<title>dir_140a5582e5dd5795b7b4430df83ea200&#45;&gt;dir_3a7f05f1ae2c2d2f6fc896203c15febc</title>
<path fill="none" stroke="black" d="M111.83,-172.61C85.05,-166.68 45.53,-153.26 27,-124 16.54,-107.48 19.72,-98.15 27,-80 30,-72.52 34.89,-65.59 40.33,-59.51"/>
<polygon fill="black" stroke="black" points="42.9,-61.89 47.4,-52.29 37.9,-56.99 42.9,-61.89"/>
<g id="a_edge5&#45;headlabel"><a xlink:href="dir_000074_000119.html" target="_top" xlink:title="11">
<text text-anchor="middle" x="42.41" y="-63.94" font-family="Helvetica,sans-Serif" font-size="10.00">11</text>
</a>
</g>
</g>
<!-- dir_140a5582e5dd5795b7b4430df83ea200&#45;&gt;dir_3fdbfed0850fd95dbe3b2b1a1a1ffa0e -->
<g id="edge6" class="edge">
<title>dir_140a5582e5dd5795b7b4430df83ea200&#45;&gt;dir_3fdbfed0850fd95dbe3b2b1a1a1ffa0e</title>
<path fill="none" stroke="black" d="M155.05,-159.78C163.12,-150.03 172.18,-137.19 177,-124 184.21,-104.26 185.75,-80.45 185.6,-62.43"/>
<polygon fill="black" stroke="black" points="189.09,-62.21 185.33,-52.31 182.09,-62.4 189.09,-62.21"/>
<g id="a_edge6&#45;headlabel"><a xlink:href="dir_000074_000118.html" target="_top" xlink:title="7">
<text text-anchor="middle" x="192.02" y="-63.23" font-family="Helvetica,sans-Serif" font-size="10.00">7</text>
</a>
</g>
</g>
<!-- dir_140a5582e5dd5795b7b4430df83ea200&#45;&gt;dir_99fcbcb75e556cb0c2dfb06eb3d295b0 -->
<g id="edge9" class="edge">
<title>dir_140a5582e5dd5795b7b4430df83ea200&#45;&gt;dir_99fcbcb75e556cb0c2dfb06eb3d295b0</title>
<path fill="none" stroke="black" d="M166.25,-163.34C169.17,-162.12 172.12,-160.98 175,-160 243.82,-136.68 268.26,-148.08 336.66,-125.67"/>
<polygon fill="black" stroke="black" points="337.81,-128.97 346.14,-122.44 335.55,-122.35 337.81,-128.97"/>
<g id="a_edge9&#45;headlabel"><a xlink:href="dir_000074_000125.html" target="_top" xlink:title="1">
<text text-anchor="middle" x="335.32" y="-130.32" font-family="Helvetica,sans-Serif" font-size="10.00">1</text>
</a>
</g>
</g>
<!-- dir_140a5582e5dd5795b7b4430df83ea200&#45;&gt;dir_f4b467f0a960798c9a570e0236e928b5 -->
<g id="edge12" class="edge">
<title>dir_140a5582e5dd5795b7b4430df83ea200&#45;&gt;dir_f4b467f0a960798c9a570e0236e928b5</title>
<path fill="none" stroke="black" d="M166.19,-163.16C169.12,-161.97 172.09,-160.89 175,-160 277.77,-128.73 309.16,-147.41 414,-124 414.1,-123.98 414.2,-123.95 414.3,-123.93"/>
<polygon fill="black" stroke="black" points="414.96,-127.37 423.86,-121.62 413.31,-120.57 414.96,-127.37"/>
<g id="a_edge12&#45;headlabel"><a xlink:href="dir_000074_000124.html" target="_top" xlink:title="4">
<text text-anchor="middle" x="412.14" y="-128.48" font-family="Helvetica,sans-Serif" font-size="10.00">4</text>
</a>
</g>
</g>
<!-- dir_140a5582e5dd5795b7b4430df83ea200&#45;&gt;dir_c14c6764f85e0cf0d868013a8d53f6b7 -->
<g id="edge10" class="edge">
<title>dir_140a5582e5dd5795b7b4430df83ea200&#45;&gt;dir_c14c6764f85e0cf0d868013a8d53f6b7</title>
<path fill="none" stroke="black" d="M139.49,-159.7C139.71,-151.98 139.98,-142.71 140.23,-134.11"/>
<polygon fill="black" stroke="black" points="143.72,-134.2 140.51,-124.1 136.73,-134 143.72,-134.2"/>
<g id="a_edge10&#45;headlabel"><a xlink:href="dir_000074_000025.html" target="_top" xlink:title="6">
<text text-anchor="middle" x="146.46" y="-135.37" font-family="Helvetica,sans-Serif" font-size="10.00">6</text>
</a>
</g>
</g>
<!-- dir_4280e0bf143a41fe6bb6f470b1e054fe -->
<g id="node9" class="node">
<title>dir_4280e0bf143a41fe6bb6f470b1e054fe</title>
<g id="a_node9"><a xlink:href="dir_4280e0bf143a41fe6bb6f470b1e054fe.html" target="_top" xlink:title="zwave_smartstart_management">
<polygon fill="none" stroke="red" stroke-dasharray="5,2" points="692,-124 536,-124 536,-88 692,-88 692,-124"/>
<text text-anchor="middle" x="614" y="-103.5" font-family="Helvetica,sans-Serif" font-size="10.00">zwave_smartstart_management</text>
</a>
</g>
</g>
<!-- dir_140a5582e5dd5795b7b4430df83ea200&#45;&gt;dir_4280e0bf143a41fe6bb6f470b1e054fe -->
<g id="edge7" class="edge">
<title>dir_140a5582e5dd5795b7b4430df83ea200&#45;&gt;dir_4280e0bf143a41fe6bb6f470b1e054fe</title>
<path fill="none" stroke="black" d="M166.15,-163.01C169.08,-161.85 172.07,-160.81 175,-160 324.51,-118.44 371.2,-146.49 525.48,-124.6"/>
<polygon fill="black" stroke="black" points="526.41,-128.01 535.8,-123.09 525.39,-121.08 526.41,-128.01"/>
<g id="a_edge7&#45;headlabel"><a xlink:href="dir_000074_000123.html" target="_top" xlink:title="1">
<text text-anchor="middle" x="523.27" y="-128.84" font-family="Helvetica,sans-Serif" font-size="10.00">1</text>
</a>
</g>
</g>
<!-- dir_9376f99cbc649c5813b13d9244dc2fa3 -->
<g id="node10" class="node">
<title>dir_9376f99cbc649c5813b13d9244dc2fa3</title>
<g id="a_node10"><a xlink:href="dir_9376f99cbc649c5813b13d9244dc2fa3.html" target="_top" xlink:title="zwave_api">
<polygon fill="none" stroke="red" stroke-dasharray="5,2" points="773.5,-124 710.5,-124 710.5,-88 773.5,-88 773.5,-124"/>
<text text-anchor="middle" x="742" y="-103.5" font-family="Helvetica,sans-Serif" font-size="10.00">zwave_api</text>
</a>
</g>
</g>
<!-- dir_140a5582e5dd5795b7b4430df83ea200&#45;&gt;dir_9376f99cbc649c5813b13d9244dc2fa3 -->
<g id="edge8" class="edge">
<title>dir_140a5582e5dd5795b7b4430df83ea200&#45;&gt;dir_9376f99cbc649c5813b13d9244dc2fa3</title>
<path fill="none" stroke="black" d="M166.12,-162.91C169.06,-161.77 172.06,-160.77 175,-160 398.55,-101.78 470.84,-175.44 700.12,-123.69"/>
<polygon fill="black" stroke="black" points="701.14,-127.04 710.1,-121.38 699.57,-120.22 701.14,-127.04"/>
<g id="a_edge8&#45;headlabel"><a xlink:href="dir_000074_000114.html" target="_top" xlink:title="9">
<text text-anchor="middle" x="698.28" y="-128.12" font-family="Helvetica,sans-Serif" font-size="10.00">9</text>
</a>
</g>
</g>
<!-- dir_140a5582e5dd5795b7b4430df83ea200&#45;&gt;dir_d44c64559bbebec7f509842c48db8b23 -->
<g id="edge11" class="edge">
<title>dir_140a5582e5dd5795b7b4430df83ea200&#45;&gt;dir_d44c64559bbebec7f509842c48db8b23</title>
<path fill="none" stroke="black" d="M166.11,-162.88C169.06,-161.75 172.05,-160.75 175,-160 240.57,-143.25 736.58,-173.25 783,-124 796.41,-109.77 793.68,-96.38 783,-80 768.73,-58.11 741.14,-46.79 718.25,-40.98"/>
<polygon fill="black" stroke="black" points="718.98,-37.56 708.45,-38.75 717.42,-44.39 718.98,-37.56"/>
<g id="a_edge11&#45;headlabel"><a xlink:href="dir_000074_000047.html" target="_top" xlink:title="3">
<text text-anchor="middle" x="723.12" y="-33.09" font-family="Helvetica,sans-Serif" font-size="10.00">3</text>
</a>
</g>
</g>
</g>
</svg>
