<?xml version="1.0" encoding="UTF-8" standalone="no"?>
<!DOCTYPE svg PUBLIC "-//W3C//DTD SVG 1.1//EN"
 "http://www.w3.org/Graphics/SVG/1.1/DTD/svg11.dtd">
<!-- Generated by graphviz version 2.43.0 (0)
 -->
<!-- Title: applications/zpc/components/zwave/zwave_security_validation Pages: 1 -->
<svg width="568pt" height="247pt"
 viewBox="0.00 0.00 568.00 247.00" xmlns="http://www.w3.org/2000/svg" xmlns:xlink="http://www.w3.org/1999/xlink">
<g id="graph0" class="graph" transform="scale(1 1) rotate(0) translate(4 243)">
<title>applications/zpc/components/zwave/zwave_security_validation</title>
<g id="clust1" class="cluster">
<title>clusterdir_f3e54dd29e621d563099d452e62da9f8</title>
<g id="a_clust1"><a xlink:href="dir_f3e54dd29e621d563099d452e62da9f8.html" target="_top" xlink:title="zwave">
<polygon fill="#edf0f7" stroke="#7f7f7f" stroke-dasharray="5,2" points="8,-8 8,-231 498,-231 498,-8 8,-8"/>
<text text-anchor="middle" x="253" y="-219" font-family="Helvetica,sans-Serif" font-size="10.00">zwave</text>
</a>
</g>
</g>
<g id="clust2" class="cluster">
<title>clusterdir_c555c22730fd06747a384ffdde9de6e8</title>
<g id="a_clust2"><a xlink:href="dir_c555c22730fd06747a384ffdde9de6e8.html" target="_top">
<polygon fill="#edf0f7" stroke="#404040" stroke-width="2" points="16,-80 16,-204 236,-204 236,-80 16,-80"/>
</a>
</g>
</g>
<!-- dir_3a7f05f1ae2c2d2f6fc896203c15febc -->
<g id="node1" class="node">
<title>dir_3a7f05f1ae2c2d2f6fc896203c15febc</title>
<g id="a_node1"><a xlink:href="dir_3a7f05f1ae2c2d2f6fc896203c15febc.html" target="_top" xlink:title="zwave_definitions">
<polygon fill="#a2b4d6" stroke="red" points="178.5,-52 83.5,-52 83.5,-16 178.5,-16 178.5,-52"/>
<text text-anchor="middle" x="131" y="-31.5" font-family="Helvetica,sans-Serif" font-size="10.00">zwave_definitions</text>
</a>
</g>
</g>
<!-- dir_3fdbfed0850fd95dbe3b2b1a1a1ffa0e -->
<g id="node2" class="node">
<title>dir_3fdbfed0850fd95dbe3b2b1a1a1ffa0e</title>
<g id="a_node2"><a xlink:href="dir_3fdbfed0850fd95dbe3b2b1a1a1ffa0e.html" target="_top" xlink:title="zwave_controller">
<polygon fill="#a2b4d6" stroke="red" points="334,-124 244,-124 244,-88 334,-88 334,-124"/>
<text text-anchor="middle" x="289" y="-103.5" font-family="Helvetica,sans-Serif" font-size="10.00">zwave_controller</text>
</a>
</g>
</g>
<!-- dir_a27393278c6967746e623cef03ee3c39 -->
<g id="node3" class="node">
<title>dir_a27393278c6967746e623cef03ee3c39</title>
<g id="a_node3"><a xlink:href="dir_a27393278c6967746e623cef03ee3c39.html" target="_top" xlink:title="zwave_tx_scheme_selector">
<polygon fill="#a2b4d6" stroke="red" points="490,-124 352,-124 352,-88 490,-88 490,-124"/>
<text text-anchor="middle" x="421" y="-103.5" font-family="Helvetica,sans-Serif" font-size="10.00">zwave_tx_scheme_selector</text>
</a>
</g>
</g>
<!-- dir_c555c22730fd06747a384ffdde9de6e8 -->
<g id="node4" class="node">
<title>dir_c555c22730fd06747a384ffdde9de6e8</title>
<text text-anchor="middle" x="162" y="-175.5" font-family="Helvetica,sans-Serif" font-size="10.00">zwave_security_validation</text>
</g>
<!-- dir_cdc8c47edc27745c7e173f83df106520 -->
<g id="node5" class="node">
<title>dir_cdc8c47edc27745c7e173f83df106520</title>
<g id="a_node5"><a xlink:href="dir_cdc8c47edc27745c7e173f83df106520.html" target="_top" xlink:title="include">
<polygon fill="#a2b4d6" stroke="#404040" points="158,-124 104,-124 104,-88 158,-88 158,-124"/>
<text text-anchor="middle" x="131" y="-103.5" font-family="Helvetica,sans-Serif" font-size="10.00">include</text>
</a>
</g>
</g>
<!-- dir_cdc8c47edc27745c7e173f83df106520&#45;&gt;dir_3a7f05f1ae2c2d2f6fc896203c15febc -->
<g id="edge1" class="edge">
<title>dir_cdc8c47edc27745c7e173f83df106520&#45;&gt;dir_3a7f05f1ae2c2d2f6fc896203c15febc</title>
<path fill="none" stroke="black" d="M131,-87.7C131,-79.98 131,-70.71 131,-62.11"/>
<polygon fill="black" stroke="black" points="134.5,-62.1 131,-52.1 127.5,-62.1 134.5,-62.1"/>
<g id="a_edge1&#45;headlabel"><a xlink:href="dir_000027_000119.html" target="_top" xlink:title="1">
<text text-anchor="middle" x="137.34" y="-63.2" font-family="Helvetica,sans-Serif" font-size="10.00">1</text>
</a>
</g>
</g>
<!-- dir_d44c64559bbebec7f509842c48db8b23 -->
<g id="node7" class="node">
<title>dir_d44c64559bbebec7f509842c48db8b23</title>
<g id="a_node7"><a xlink:href="dir_d44c64559bbebec7f509842c48db8b23.html" target="_top" xlink:title="include">
<polygon fill="none" stroke="#404040" points="560,-52 506,-52 506,-16 560,-16 560,-52"/>
<text text-anchor="middle" x="533" y="-31.5" font-family="Helvetica,sans-Serif" font-size="10.00">include</text>
</a>
</g>
</g>
<!-- dir_cdc8c47edc27745c7e173f83df106520&#45;&gt;dir_d44c64559bbebec7f509842c48db8b23 -->
<g id="edge2" class="edge">
<title>dir_cdc8c47edc27745c7e173f83df106520&#45;&gt;dir_d44c64559bbebec7f509842c48db8b23</title>
<path fill="none" stroke="black" d="M148.52,-87.94C152.65,-84.79 157.25,-81.9 162,-80 299.62,-24.97 354.32,-92.46 495.98,-53.53"/>
<polygon fill="black" stroke="black" points="497.25,-56.8 505.89,-50.67 495.31,-50.08 497.25,-56.8"/>
<g id="a_edge2&#45;headlabel"><a xlink:href="dir_000027_000047.html" target="_top" xlink:title="1">
<text text-anchor="middle" x="494.58" y="-58.03" font-family="Helvetica,sans-Serif" font-size="10.00">1</text>
</a>
</g>
</g>
<!-- dir_964434ba1bc861356b7b928c943975a6 -->
<g id="node6" class="node">
<title>dir_964434ba1bc861356b7b928c943975a6</title>
<g id="a_node6"><a xlink:href="dir_964434ba1bc861356b7b928c943975a6.html" target="_top" xlink:title="src">
<polygon fill="#a2b4d6" stroke="#404040" points="78,-196 24,-196 24,-160 78,-160 78,-196"/>
<text text-anchor="middle" x="51" y="-175.5" font-family="Helvetica,sans-Serif" font-size="10.00">src</text>
</a>
</g>
</g>
<!-- dir_964434ba1bc861356b7b928c943975a6&#45;&gt;dir_3fdbfed0850fd95dbe3b2b1a1a1ffa0e -->
<g id="edge3" class="edge">
<title>dir_964434ba1bc861356b7b928c943975a6&#45;&gt;dir_3fdbfed0850fd95dbe3b2b1a1a1ffa0e</title>
<path fill="none" stroke="black" d="M78.23,-163.76C81.49,-162.39 84.79,-161.1 88,-160 150.44,-138.5 171.31,-142.88 233.95,-125.66"/>
<polygon fill="black" stroke="black" points="235.27,-128.92 243.93,-122.83 233.36,-122.19 235.27,-128.92"/>
<g id="a_edge3&#45;headlabel"><a xlink:href="dir_000076_000118.html" target="_top" xlink:title="3">
<text text-anchor="middle" x="232.58" y="-130.13" font-family="Helvetica,sans-Serif" font-size="10.00">3</text>
</a>
</g>
</g>
<!-- dir_964434ba1bc861356b7b928c943975a6&#45;&gt;dir_a27393278c6967746e623cef03ee3c39 -->
<g id="edge4" class="edge">
<title>dir_964434ba1bc861356b7b928c943975a6&#45;&gt;dir_a27393278c6967746e623cef03ee3c39</title>
<path fill="none" stroke="black" d="M78.14,-163.46C81.41,-162.15 84.74,-160.96 88,-160 194.71,-128.68 228.44,-143.31 341.63,-124.14"/>
<polygon fill="black" stroke="black" points="342.48,-127.54 351.73,-122.38 341.28,-120.65 342.48,-127.54"/>
<g id="a_edge4&#45;headlabel"><a xlink:href="dir_000076_000127.html" target="_top" xlink:title="1">
<text text-anchor="middle" x="339.43" y="-128.46" font-family="Helvetica,sans-Serif" font-size="10.00">1</text>
</a>
</g>
</g>
<!-- dir_964434ba1bc861356b7b928c943975a6&#45;&gt;dir_cdc8c47edc27745c7e173f83df106520 -->
<g id="edge5" class="edge">
<title>dir_964434ba1bc861356b7b928c943975a6&#45;&gt;dir_cdc8c47edc27745c7e173f83df106520</title>
<path fill="none" stroke="black" d="M70.78,-159.7C80.75,-150.97 93.01,-140.24 103.86,-130.75"/>
<polygon fill="black" stroke="black" points="106.23,-133.32 111.45,-124.1 101.62,-128.06 106.23,-133.32"/>
<g id="a_edge5&#45;headlabel"><a xlink:href="dir_000076_000027.html" target="_top" xlink:title="1">
<text text-anchor="middle" x="105.4" y="-135.33" font-family="Helvetica,sans-Serif" font-size="10.00">1</text>
</a>
</g>
</g>
</g>
</svg>
