<?xml version="1.0" encoding="UTF-8" standalone="no"?>
<!DOCTYPE svg PUBLIC "-//W3C//DTD SVG 1.1//EN"
 "http://www.w3.org/Graphics/SVG/1.1/DTD/svg11.dtd">
<!-- Generated by graphviz version 2.43.0 (0)
 -->
<!-- Title: applications/zpc/components/zwave/zwave_transports/crc16/src Pages: 1 -->
<svg width="724pt" height="167pt"
 viewBox="0.00 0.00 723.50 167.00" xmlns="http://www.w3.org/2000/svg" xmlns:xlink="http://www.w3.org/1999/xlink">
<g id="graph0" class="graph" transform="scale(1 1) rotate(0) translate(4 163)">
<title>applications/zpc/components/zwave/zwave_transports/crc16/src</title>
<g id="clust1" class="cluster">
<title>clusterdir_71be16fc5a53286c0aa24b3aa45cfa0e</title>
<g id="a_clust1"><a xlink:href="dir_71be16fc5a53286c0aa24b3aa45cfa0e.html" target="_top" xlink:title="crc16">
<polygon fill="#edf0f7" stroke="#7f7f7f" stroke-dasharray="5,2" points="8,-8 8,-151 78,-151 78,-8 8,-8"/>
<text text-anchor="middle" x="43" y="-139" font-family="Helvetica,sans-Serif" font-size="10.00">crc16</text>
</a>
</g>
</g>
<!-- dir_652595afa0aa4e35659f64705db81d5e -->
<g id="node1" class="node">
<title>dir_652595afa0aa4e35659f64705db81d5e</title>
<g id="a_node1"><a xlink:href="dir_652595afa0aa4e35659f64705db81d5e.html" target="_top" xlink:title="include">
<polygon fill="#a2b4d6" stroke="#404040" points="70,-52 16,-52 16,-16 70,-16 70,-52"/>
<text text-anchor="middle" x="43" y="-31.5" font-family="Helvetica,sans-Serif" font-size="10.00">include</text>
</a>
</g>
</g>
<!-- dir_b76b665abcb8b67e515d04de9537dacc -->
<g id="node2" class="node">
<title>dir_b76b665abcb8b67e515d04de9537dacc</title>
<g id="a_node2"><a xlink:href="dir_b76b665abcb8b67e515d04de9537dacc.html" target="_top" xlink:title="src">
<polygon fill="#edf0f7" stroke="#404040" stroke-width="2" points="70,-124 16,-124 16,-88 70,-88 70,-124"/>
<text text-anchor="middle" x="43" y="-103.5" font-family="Helvetica,sans-Serif" font-size="10.00">src</text>
</a>
</g>
</g>
<!-- dir_b76b665abcb8b67e515d04de9537dacc&#45;&gt;dir_652595afa0aa4e35659f64705db81d5e -->
<g id="edge5" class="edge">
<title>dir_b76b665abcb8b67e515d04de9537dacc&#45;&gt;dir_652595afa0aa4e35659f64705db81d5e</title>
<path fill="none" stroke="black" d="M43,-87.7C43,-79.98 43,-70.71 43,-62.11"/>
<polygon fill="black" stroke="black" points="46.5,-62.1 43,-52.1 39.5,-62.1 46.5,-62.1"/>
<g id="a_edge5&#45;headlabel"><a xlink:href="dir_000077_000028.html" target="_top" xlink:title="1">
<text text-anchor="middle" x="49.34" y="-63.2" font-family="Helvetica,sans-Serif" font-size="10.00">1</text>
</a>
</g>
</g>
<!-- dir_0ae112d56e74946f02cfe5bffaa8cbc8 -->
<g id="node3" class="node">
<title>dir_0ae112d56e74946f02cfe5bffaa8cbc8</title>
<g id="a_node3"><a xlink:href="dir_0ae112d56e74946f02cfe5bffaa8cbc8.html" target="_top" xlink:title="zwave_rx">
<polygon fill="none" stroke="red" stroke-dasharray="5,2" points="147.5,-52 88.5,-52 88.5,-16 147.5,-16 147.5,-52"/>
<text text-anchor="middle" x="118" y="-31.5" font-family="Helvetica,sans-Serif" font-size="10.00">zwave_rx</text>
</a>
</g>
</g>
<!-- dir_b76b665abcb8b67e515d04de9537dacc&#45;&gt;dir_0ae112d56e74946f02cfe5bffaa8cbc8 -->
<g id="edge1" class="edge">
<title>dir_b76b665abcb8b67e515d04de9537dacc&#45;&gt;dir_0ae112d56e74946f02cfe5bffaa8cbc8</title>
<path fill="none" stroke="black" d="M61.54,-87.7C70.8,-79.05 82.16,-68.45 92.26,-59.03"/>
<polygon fill="black" stroke="black" points="94.75,-61.49 99.67,-52.1 89.98,-56.37 94.75,-61.49"/>
<g id="a_edge1&#45;headlabel"><a xlink:href="dir_000077_000121.html" target="_top" xlink:title="1">
<text text-anchor="middle" x="94.06" y="-63.51" font-family="Helvetica,sans-Serif" font-size="10.00">1</text>
</a>
</g>
</g>
<!-- dir_20462f6d7be47578489ee94c8a2b0b2b -->
<g id="node4" class="node">
<title>dir_20462f6d7be47578489ee94c8a2b0b2b</title>
<g id="a_node4"><a xlink:href="dir_20462f6d7be47578489ee94c8a2b0b2b.html" target="_top" xlink:title="zpc_attribute_store">
<polygon fill="none" stroke="red" stroke-dasharray="5,2" points="266,-52 166,-52 166,-16 266,-16 266,-52"/>
<text text-anchor="middle" x="216" y="-31.5" font-family="Helvetica,sans-Serif" font-size="10.00">zpc_attribute_store</text>
</a>
</g>
</g>
<!-- dir_b76b665abcb8b67e515d04de9537dacc&#45;&gt;dir_20462f6d7be47578489ee94c8a2b0b2b -->
<g id="edge2" class="edge">
<title>dir_b76b665abcb8b67e515d04de9537dacc&#45;&gt;dir_20462f6d7be47578489ee94c8a2b0b2b</title>
<path fill="none" stroke="black" d="M70.03,-94.06C95.18,-83.89 133.32,-68.45 164.31,-55.91"/>
<polygon fill="black" stroke="black" points="165.72,-59.12 173.68,-52.12 163.1,-52.63 165.72,-59.12"/>
<g id="a_edge2&#45;headlabel"><a xlink:href="dir_000077_000105.html" target="_top" xlink:title="1">
<text text-anchor="middle" x="163.46" y="-60.6" font-family="Helvetica,sans-Serif" font-size="10.00">1</text>
</a>
</g>
</g>
<!-- dir_3a7f05f1ae2c2d2f6fc896203c15febc -->
<g id="node5" class="node">
<title>dir_3a7f05f1ae2c2d2f6fc896203c15febc</title>
<g id="a_node5"><a xlink:href="dir_3a7f05f1ae2c2d2f6fc896203c15febc.html" target="_top" xlink:title="zwave_definitions">
<polygon fill="none" stroke="red" stroke-dasharray="5,2" points="379.5,-52 284.5,-52 284.5,-16 379.5,-16 379.5,-52"/>
<text text-anchor="middle" x="332" y="-31.5" font-family="Helvetica,sans-Serif" font-size="10.00">zwave_definitions</text>
</a>
</g>
</g>
<!-- dir_b76b665abcb8b67e515d04de9537dacc&#45;&gt;dir_3a7f05f1ae2c2d2f6fc896203c15febc -->
<g id="edge3" class="edge">
<title>dir_b76b665abcb8b67e515d04de9537dacc&#45;&gt;dir_3a7f05f1ae2c2d2f6fc896203c15febc</title>
<path fill="none" stroke="black" d="M70.29,-99.37C112.09,-90.61 194.7,-72.8 274.73,-51.98"/>
<polygon fill="black" stroke="black" points="275.69,-55.35 284.48,-49.43 273.92,-48.57 275.69,-55.35"/>
<g id="a_edge3&#45;headlabel"><a xlink:href="dir_000077_000119.html" target="_top" xlink:title="2">
<text text-anchor="middle" x="272.94" y="-56.5" font-family="Helvetica,sans-Serif" font-size="10.00">2</text>
</a>
</g>
</g>
<!-- dir_3fdbfed0850fd95dbe3b2b1a1a1ffa0e -->
<g id="node6" class="node">
<title>dir_3fdbfed0850fd95dbe3b2b1a1a1ffa0e</title>
<g id="a_node6"><a xlink:href="dir_3fdbfed0850fd95dbe3b2b1a1a1ffa0e.html" target="_top" xlink:title="zwave_controller">
<polygon fill="none" stroke="red" stroke-dasharray="5,2" points="488,-52 398,-52 398,-16 488,-16 488,-52"/>
<text text-anchor="middle" x="443" y="-31.5" font-family="Helvetica,sans-Serif" font-size="10.00">zwave_controller</text>
</a>
</g>
</g>
<!-- dir_b76b665abcb8b67e515d04de9537dacc&#45;&gt;dir_3fdbfed0850fd95dbe3b2b1a1a1ffa0e -->
<g id="edge4" class="edge">
<title>dir_b76b665abcb8b67e515d04de9537dacc&#45;&gt;dir_3fdbfed0850fd95dbe3b2b1a1a1ffa0e</title>
<path fill="none" stroke="black" d="M70.19,-102.27C127.37,-96.22 264.33,-80.13 387.77,-52.1"/>
<polygon fill="black" stroke="black" points="388.81,-55.45 397.77,-49.79 387.24,-48.63 388.81,-55.45"/>
<g id="a_edge4&#45;headlabel"><a xlink:href="dir_000077_000118.html" target="_top" xlink:title="3">
<text text-anchor="middle" x="385.94" y="-56.52" font-family="Helvetica,sans-Serif" font-size="10.00">3</text>
</a>
</g>
</g>
<!-- dir_6ac9bb75d77e4d974481da8e3d01cbca -->
<g id="node7" class="node">
<title>dir_6ac9bb75d77e4d974481da8e3d01cbca</title>
<g id="a_node7"><a xlink:href="dir_6ac9bb75d77e4d974481da8e3d01cbca.html" target="_top" xlink:title="zwave_command_classes">
<polygon fill="none" stroke="red" stroke-dasharray="5,2" points="638,-52 506,-52 506,-16 638,-16 638,-52"/>
<text text-anchor="middle" x="572" y="-31.5" font-family="Helvetica,sans-Serif" font-size="10.00">zwave_command_classes</text>
</a>
</g>
</g>
<!-- dir_b76b665abcb8b67e515d04de9537dacc&#45;&gt;dir_6ac9bb75d77e4d974481da8e3d01cbca -->
<g id="edge6" class="edge">
<title>dir_b76b665abcb8b67e515d04de9537dacc&#45;&gt;dir_6ac9bb75d77e4d974481da8e3d01cbca</title>
<path fill="none" stroke="black" d="M70.01,-102.86C139.18,-97.16 328.48,-80.23 495.85,-52.1"/>
<polygon fill="black" stroke="black" points="496.55,-55.53 505.82,-50.4 495.38,-48.63 496.55,-55.53"/>
<g id="a_edge6&#45;headlabel"><a xlink:href="dir_000077_000116.html" target="_top" xlink:title="1">
<text text-anchor="middle" x="493.48" y="-56.43" font-family="Helvetica,sans-Serif" font-size="10.00">1</text>
</a>
</g>
</g>
<!-- dir_99fcbcb75e556cb0c2dfb06eb3d295b0 -->
<g id="node8" class="node">
<title>dir_99fcbcb75e556cb0c2dfb06eb3d295b0</title>
<g id="a_node8"><a xlink:href="dir_99fcbcb75e556cb0c2dfb06eb3d295b0.html" target="_top" xlink:title="zwave_tx">
<polygon fill="none" stroke="red" stroke-dasharray="5,2" points="715.5,-52 656.5,-52 656.5,-16 715.5,-16 715.5,-52"/>
<text text-anchor="middle" x="686" y="-31.5" font-family="Helvetica,sans-Serif" font-size="10.00">zwave_tx</text>
</a>
</g>
</g>
<!-- dir_b76b665abcb8b67e515d04de9537dacc&#45;&gt;dir_99fcbcb75e556cb0c2dfb06eb3d295b0 -->
<g id="edge7" class="edge">
<title>dir_b76b665abcb8b67e515d04de9537dacc&#45;&gt;dir_99fcbcb75e556cb0c2dfb06eb3d295b0</title>
<path fill="none" stroke="black" d="M70.2,-103.78C169.99,-99.13 516.36,-81.41 646.06,-51.62"/>
<polygon fill="black" stroke="black" points="647.22,-54.94 656.11,-49.17 645.56,-48.14 647.22,-54.94"/>
<g id="a_edge7&#45;headlabel"><a xlink:href="dir_000077_000125.html" target="_top" xlink:title="1">
<text text-anchor="middle" x="644.4" y="-56.05" font-family="Helvetica,sans-Serif" font-size="10.00">1</text>
</a>
</g>
</g>
</g>
</svg>
