<?xml version="1.0" encoding="UTF-8" standalone="no"?>
<!DOCTYPE svg PUBLIC "-//W3C//DTD SVG 1.1//EN"
 "http://www.w3.org/Graphics/SVG/1.1/DTD/svg11.dtd">
<!-- Generated by graphviz version 2.43.0 (0)
 -->
<!-- Title: applications/zpc/components/zpc_stdin Pages: 1 -->
<svg width="256pt" height="231pt"
 viewBox="0.00 0.00 255.93 231.00" xmlns="http://www.w3.org/2000/svg" xmlns:xlink="http://www.w3.org/1999/xlink">
<g id="graph0" class="graph" transform="scale(1 1) rotate(0) translate(4 227)">
<title>applications/zpc/components/zpc_stdin</title>
<g id="clust1" class="cluster">
<title>clusterdir_a9d74fe2658e12bc01226d530457853c</title>
<g id="a_clust1"><a xlink:href="dir_a9d74fe2658e12bc01226d530457853c.html" target="_top" xlink:title="components">
<polygon fill="#edf0f7" stroke="#7f7f7f" stroke-dasharray="5,2" points="8,-56 8,-215 234,-215 234,-56 8,-56"/>
<text text-anchor="middle" x="121" y="-203" font-family="Helvetica,sans-Serif" font-size="10.00">components</text>
</a>
</g>
</g>
<g id="clust2" class="cluster">
<title>clusterdir_0c221b9d9a9277b286f84d3997ad5983</title>
<g id="a_clust2"><a xlink:href="dir_0c221b9d9a9277b286f84d3997ad5983.html" target="_top">
<polygon fill="#edf0f7" stroke="#404040" stroke-width="2" points="16,-64 16,-188 164,-188 164,-64 16,-64"/>
</a>
</g>
</g>
<!-- dir_c783b693d7274e9a4de597a35ccd1b8b -->
<g id="node1" class="node">
<title>dir_c783b693d7274e9a4de597a35ccd1b8b</title>
<g id="a_node1"><a xlink:href="dir_c783b693d7274e9a4de597a35ccd1b8b.html" target="_top" xlink:title="zwave">
<polygon fill="#a2b4d6" stroke="red" points="226,-108 172,-108 172,-72 226,-72 226,-108"/>
<text text-anchor="middle" x="199" y="-87.5" font-family="Helvetica,sans-Serif" font-size="10.00">zwave</text>
</a>
</g>
</g>
<!-- dir_0c221b9d9a9277b286f84d3997ad5983 -->
<g id="node2" class="node">
<title>dir_0c221b9d9a9277b286f84d3997ad5983</title>
<text text-anchor="middle" x="126" y="-159.5" font-family="Helvetica,sans-Serif" font-size="10.00">zpc_stdin</text>
</g>
<!-- dir_92df2bcea45b493da266cb82bded19f0 -->
<g id="node3" class="node">
<title>dir_92df2bcea45b493da266cb82bded19f0</title>
<g id="a_node3"><a xlink:href="dir_92df2bcea45b493da266cb82bded19f0.html" target="_top" xlink:title="include">
<polygon fill="#a2b4d6" stroke="#404040" points="116,-108 62,-108 62,-72 116,-72 116,-108"/>
<text text-anchor="middle" x="89" y="-87.5" font-family="Helvetica,sans-Serif" font-size="10.00">include</text>
</a>
</g>
</g>
<!-- dir_19225156eb7ba052e31d1a736469917a -->
<g id="node5" class="node">
<title>dir_19225156eb7ba052e31d1a736469917a</title>
<g id="a_node5"><a xlink:href="dir_19225156eb7ba052e31d1a736469917a.html" target="_top" xlink:title="mnt">
<polygon fill="none" stroke="red" points="198,-36 144,-36 144,0 198,0 198,-36"/>
<text text-anchor="middle" x="171" y="-15.5" font-family="Helvetica,sans-Serif" font-size="10.00">mnt</text>
</a>
</g>
</g>
<!-- dir_92df2bcea45b493da266cb82bded19f0&#45;&gt;dir_19225156eb7ba052e31d1a736469917a -->
<g id="edge1" class="edge">
<title>dir_92df2bcea45b493da266cb82bded19f0&#45;&gt;dir_19225156eb7ba052e31d1a736469917a</title>
<path fill="none" stroke="black" d="M103.87,-71.95C108.8,-66.63 114.46,-60.88 120,-56 125.29,-51.34 131.16,-46.67 136.97,-42.31"/>
<polygon fill="black" stroke="black" points="139.37,-44.89 145.37,-36.16 135.23,-39.24 139.37,-44.89"/>
<g id="a_edge1&#45;headlabel"><a xlink:href="dir_000025_000048.html" target="_top" xlink:title="1">
<text text-anchor="middle" x="138.15" y="-46.8" font-family="Helvetica,sans-Serif" font-size="10.00">1</text>
</a>
</g>
</g>
<!-- dir_e0bd66e323acfdbcff3d49b6818d0db8 -->
<g id="node4" class="node">
<title>dir_e0bd66e323acfdbcff3d49b6818d0db8</title>
<g id="a_node4"><a xlink:href="dir_e0bd66e323acfdbcff3d49b6818d0db8.html" target="_top" xlink:title="src">
<polygon fill="#a2b4d6" stroke="#404040" points="78,-180 24,-180 24,-144 78,-144 78,-180"/>
<text text-anchor="middle" x="51" y="-159.5" font-family="Helvetica,sans-Serif" font-size="10.00">src</text>
</a>
</g>
</g>
<!-- dir_e0bd66e323acfdbcff3d49b6818d0db8&#45;&gt;dir_c783b693d7274e9a4de597a35ccd1b8b -->
<g id="edge4" class="edge">
<title>dir_e0bd66e323acfdbcff3d49b6818d0db8&#45;&gt;dir_c783b693d7274e9a4de597a35ccd1b8b</title>
<path fill="none" stroke="black" d="M78.07,-148.53C81.41,-147 84.78,-145.46 88,-144 120.44,-129.25 131.26,-125.91 162.34,-110.75"/>
<polygon fill="black" stroke="black" points="164.26,-113.7 171.68,-106.14 161.16,-107.42 164.26,-113.7"/>
<g id="a_edge4&#45;headlabel"><a xlink:href="dir_000072_000115.html" target="_top" xlink:title="1">
<text text-anchor="middle" x="162.29" y="-115.34" font-family="Helvetica,sans-Serif" font-size="10.00">1</text>
</a>
</g>
</g>
<!-- dir_e0bd66e323acfdbcff3d49b6818d0db8&#45;&gt;dir_92df2bcea45b493da266cb82bded19f0 -->
<g id="edge3" class="edge">
<title>dir_e0bd66e323acfdbcff3d49b6818d0db8&#45;&gt;dir_92df2bcea45b493da266cb82bded19f0</title>
<path fill="none" stroke="black" d="M60.39,-143.7C64.76,-135.64 70.06,-125.89 74.9,-116.98"/>
<polygon fill="black" stroke="black" points="78.02,-118.56 79.71,-108.1 71.87,-115.22 78.02,-118.56"/>
<g id="a_edge3&#45;headlabel"><a xlink:href="dir_000072_000025.html" target="_top" xlink:title="1">
<text text-anchor="middle" x="78.8" y="-120.58" font-family="Helvetica,sans-Serif" font-size="10.00">1</text>
</a>
</g>
</g>
<!-- dir_e0bd66e323acfdbcff3d49b6818d0db8&#45;&gt;dir_19225156eb7ba052e31d1a736469917a -->
<g id="edge2" class="edge">
<title>dir_e0bd66e323acfdbcff3d49b6818d0db8&#45;&gt;dir_19225156eb7ba052e31d1a736469917a</title>
<path fill="none" stroke="black" d="M78.23,-147.77C81.49,-146.4 84.79,-145.11 88,-144 152.79,-121.58 195.55,-161.84 238,-108 252.31,-89.85 249.75,-75.9 238,-56 231.18,-44.44 219.31,-36.24 207.44,-30.56"/>
<polygon fill="black" stroke="black" points="208.59,-27.24 198.02,-26.51 205.83,-33.67 208.59,-27.24"/>
<g id="a_edge2&#45;headlabel"><a xlink:href="dir_000072_000048.html" target="_top" xlink:title="1">
<text text-anchor="middle" x="213.01" y="-23.55" font-family="Helvetica,sans-Serif" font-size="10.00">1</text>
</a>
</g>
</g>
</g>
</svg>
