<?xml version="1.0" encoding="UTF-8" standalone="no"?>
<!DOCTYPE svg PUBLIC "-//W3C//DTD SVG 1.1//EN"
 "http://www.w3.org/Graphics/SVG/1.1/DTD/svg11.dtd">
<!-- Generated by graphviz version 2.43.0 (0)
 -->
<!-- Title: applications/zpc/components/zwave/zwave_controller/include Pages: 1 -->
<svg width="499pt" height="151pt"
 viewBox="0.00 0.00 498.50 151.00" xmlns="http://www.w3.org/2000/svg" xmlns:xlink="http://www.w3.org/1999/xlink">
<g id="graph0" class="graph" transform="scale(1 1) rotate(0) translate(4 147)">
<title>applications/zpc/components/zwave/zwave_controller/include</title>
<g id="clust1" class="cluster">
<title>clusterdir_3fa5244362f007e8bde329718bf5b05b</title>
<g id="a_clust1"><a xlink:href="dir_3fa5244362f007e8bde329718bf5b05b.html" target="_top" xlink:title="zwave_controller">
<polygon fill="#edf0f7" stroke="#7f7f7f" stroke-dasharray="5,2" points="182,-64 182,-135 272,-135 272,-64 182,-64"/>
<text text-anchor="middle" x="227" y="-123" font-family="Helvetica,sans-Serif" font-size="10.00">zwave_controller</text>
</a>
</g>
</g>
<!-- dir_9834c9384b16917f57c6635f269e32a5 -->
<g id="node1" class="node">
<title>dir_9834c9384b16917f57c6635f269e32a5</title>
<g id="a_node1"><a xlink:href="dir_9834c9384b16917f57c6635f269e32a5.html" target="_top" xlink:title="include">
<polygon fill="#edf0f7" stroke="#404040" stroke-width="2" points="254,-108 200,-108 200,-72 254,-72 254,-108"/>
<text text-anchor="middle" x="227" y="-87.5" font-family="Helvetica,sans-Serif" font-size="10.00">include</text>
</a>
</g>
</g>
<!-- dir_19225156eb7ba052e31d1a736469917a -->
<g id="node2" class="node">
<title>dir_19225156eb7ba052e31d1a736469917a</title>
<g id="a_node2"><a xlink:href="dir_19225156eb7ba052e31d1a736469917a.html" target="_top" xlink:title="mnt">
<polygon fill="none" stroke="red" points="54,-36 0,-36 0,0 54,0 54,-36"/>
<text text-anchor="middle" x="27" y="-15.5" font-family="Helvetica,sans-Serif" font-size="10.00">mnt</text>
</a>
</g>
</g>
<!-- dir_9834c9384b16917f57c6635f269e32a5&#45;&gt;dir_19225156eb7ba052e31d1a736469917a -->
<g id="edge1" class="edge">
<title>dir_9834c9384b16917f57c6635f269e32a5&#45;&gt;dir_19225156eb7ba052e31d1a736469917a</title>
<path fill="none" stroke="black" d="M199.92,-81.41C168.96,-72.49 116.66,-56.65 63.87,-36.11"/>
<polygon fill="black" stroke="black" points="64.94,-32.78 54.36,-32.36 62.38,-39.29 64.94,-32.78"/>
<g id="a_edge1&#45;headlabel"><a xlink:href="dir_000027_000048.html" target="_top" xlink:title="1">
<text text-anchor="middle" x="69.33" y="-28.95" font-family="Helvetica,sans-Serif" font-size="10.00">1</text>
</a>
</g>
</g>
<!-- dir_5069f7b084fe544be8c98b9141a6d7eb -->
<g id="node3" class="node">
<title>dir_5069f7b084fe544be8c98b9141a6d7eb</title>
<g id="a_node3"><a xlink:href="dir_5069f7b084fe544be8c98b9141a6d7eb.html" target="_top" xlink:title="zwave_api">
<polygon fill="none" stroke="red" stroke-dasharray="5,2" points="135.5,-36 72.5,-36 72.5,0 135.5,0 135.5,-36"/>
<text text-anchor="middle" x="104" y="-15.5" font-family="Helvetica,sans-Serif" font-size="10.00">zwave_api</text>
</a>
</g>
</g>
<!-- dir_9834c9384b16917f57c6635f269e32a5&#45;&gt;dir_5069f7b084fe544be8c98b9141a6d7eb -->
<g id="edge2" class="edge">
<title>dir_9834c9384b16917f57c6635f269e32a5&#45;&gt;dir_5069f7b084fe544be8c98b9141a6d7eb</title>
<path fill="none" stroke="black" d="M199.7,-73.46C183.04,-63.98 161.46,-51.7 143.01,-41.2"/>
<polygon fill="black" stroke="black" points="144.66,-38.12 134.24,-36.21 141.2,-44.2 144.66,-38.12"/>
<g id="a_edge2&#45;headlabel"><a xlink:href="dir_000027_000116.html" target="_top" xlink:title="2">
<text text-anchor="middle" x="149.19" y="-34.93" font-family="Helvetica,sans-Serif" font-size="10.00">2</text>
</a>
</g>
</g>
<!-- dir_6bf5ab666b78078c9885531001583184 -->
<g id="node4" class="node">
<title>dir_6bf5ab666b78078c9885531001583184</title>
<g id="a_node4"><a xlink:href="dir_6bf5ab666b78078c9885531001583184.html" target="_top" xlink:title="zwave_network_management">
<polygon fill="none" stroke="red" stroke-dasharray="5,2" points="300,-36 154,-36 154,0 300,0 300,-36"/>
<text text-anchor="middle" x="227" y="-15.5" font-family="Helvetica,sans-Serif" font-size="10.00">zwave_network_management</text>
</a>
</g>
</g>
<!-- dir_9834c9384b16917f57c6635f269e32a5&#45;&gt;dir_6bf5ab666b78078c9885531001583184 -->
<g id="edge3" class="edge">
<title>dir_9834c9384b16917f57c6635f269e32a5&#45;&gt;dir_6bf5ab666b78078c9885531001583184</title>
<path fill="none" stroke="black" d="M227,-71.7C227,-63.98 227,-54.71 227,-46.11"/>
<polygon fill="black" stroke="black" points="230.5,-46.1 227,-36.1 223.5,-46.1 230.5,-46.1"/>
<g id="a_edge3&#45;headlabel"><a xlink:href="dir_000027_000122.html" target="_top" xlink:title="1">
<text text-anchor="middle" x="233.34" y="-47.2" font-family="Helvetica,sans-Serif" font-size="10.00">1</text>
</a>
</g>
</g>
<!-- dir_aaeea3ab9bade49a9826938239097a89 -->
<g id="node5" class="node">
<title>dir_aaeea3ab9bade49a9826938239097a89</title>
<g id="a_node5"><a xlink:href="dir_aaeea3ab9bade49a9826938239097a89.html" target="_top" xlink:title="zwave_tx">
<polygon fill="none" stroke="red" stroke-dasharray="5,2" points="377.5,-36 318.5,-36 318.5,0 377.5,0 377.5,-36"/>
<text text-anchor="middle" x="348" y="-15.5" font-family="Helvetica,sans-Serif" font-size="10.00">zwave_tx</text>
</a>
</g>
</g>
<!-- dir_9834c9384b16917f57c6635f269e32a5&#45;&gt;dir_aaeea3ab9bade49a9826938239097a89 -->
<g id="edge4" class="edge">
<title>dir_9834c9384b16917f57c6635f269e32a5&#45;&gt;dir_aaeea3ab9bade49a9826938239097a89</title>
<path fill="none" stroke="black" d="M254.15,-73.29C270.41,-63.89 291.34,-51.78 309.31,-41.38"/>
<polygon fill="black" stroke="black" points="311.49,-44.16 318.39,-36.13 307.99,-38.11 311.49,-44.16"/>
<g id="a_edge4&#45;headlabel"><a xlink:href="dir_000027_000127.html" target="_top" xlink:title="3">
<text text-anchor="middle" x="309.8" y="-45.92" font-family="Helvetica,sans-Serif" font-size="10.00">3</text>
</a>
</g>
</g>
<!-- dir_c12de1a8336cf24f106a4dc7aae08da4 -->
<g id="node6" class="node">
<title>dir_c12de1a8336cf24f106a4dc7aae08da4</title>
<g id="a_node6"><a xlink:href="dir_c12de1a8336cf24f106a4dc7aae08da4.html" target="_top" xlink:title="zwave_definitions">
<polygon fill="none" stroke="red" stroke-dasharray="5,2" points="490.5,-36 395.5,-36 395.5,0 490.5,0 490.5,-36"/>
<text text-anchor="middle" x="443" y="-15.5" font-family="Helvetica,sans-Serif" font-size="10.00">zwave_definitions</text>
</a>
</g>
</g>
<!-- dir_9834c9384b16917f57c6635f269e32a5&#45;&gt;dir_c12de1a8336cf24f106a4dc7aae08da4 -->
<g id="edge5" class="edge">
<title>dir_9834c9384b16917f57c6635f269e32a5&#45;&gt;dir_c12de1a8336cf24f106a4dc7aae08da4</title>
<path fill="none" stroke="black" d="M254.36,-80.13C287.22,-69.49 343.21,-51.34 385.69,-37.57"/>
<polygon fill="black" stroke="black" points="386.91,-40.86 395.35,-34.44 384.76,-34.2 386.91,-40.86"/>
<g id="a_edge5&#45;headlabel"><a xlink:href="dir_000027_000121.html" target="_top" xlink:title="15">
<text text-anchor="middle" x="384.37" y="-42.16" font-family="Helvetica,sans-Serif" font-size="10.00">15</text>
</a>
</g>
</g>
</g>
</svg>
