<?xml version="1.0" encoding="UTF-8" standalone="no"?>
<!DOCTYPE svg PUBLIC "-//W3C//DTD SVG 1.1//EN"
 "http://www.w3.org/Graphics/SVG/1.1/DTD/svg11.dtd">
<!-- Generated by graphviz version 2.43.0 (0)
 -->
<!-- Title: applications/zpc/components/zwave/zwave_tx_groups Pages: 1 -->
<svg width="347pt" height="175pt"
 viewBox="0.00 0.00 347.00 175.00" xmlns="http://www.w3.org/2000/svg" xmlns:xlink="http://www.w3.org/1999/xlink">
<g id="graph0" class="graph" transform="scale(1 1) rotate(0) translate(4 171)">
<title>applications/zpc/components/zwave/zwave_tx_groups</title>
<g id="clust1" class="cluster">
<title>clusterdir_c783b693d7274e9a4de597a35ccd1b8b</title>
<g id="a_clust1"><a xlink:href="dir_c783b693d7274e9a4de597a35ccd1b8b.html" target="_top" xlink:title="zwave">
<polygon fill="#edf0f7" stroke="#7f7f7f" stroke-dasharray="5,2" points="8,-8 8,-159 277,-159 277,-8 8,-8"/>
<text text-anchor="middle" x="142.5" y="-147" font-family="Helvetica,sans-Serif" font-size="10.00">zwave</text>
</a>
</g>
</g>
<g id="clust2" class="cluster">
<title>clusterdir_e1211e04e305074fbca8f62130f3357b</title>
<g id="a_clust2"><a xlink:href="dir_e1211e04e305074fbca8f62130f3357b.html" target="_top">
<polygon fill="#edf0f7" stroke="#404040" stroke-width="2" points="16,-80 16,-132 269,-132 269,-80 16,-80"/>
</a>
</g>
</g>
<!-- dir_c12de1a8336cf24f106a4dc7aae08da4 -->
<g id="node1" class="node">
<title>dir_c12de1a8336cf24f106a4dc7aae08da4</title>
<g id="a_node1"><a xlink:href="dir_c12de1a8336cf24f106a4dc7aae08da4.html" target="_top" xlink:title="zwave_definitions">
<polygon fill="#a2b4d6" stroke="red" points="170.5,-52 75.5,-52 75.5,-16 170.5,-16 170.5,-52"/>
<text text-anchor="middle" x="123" y="-31.5" font-family="Helvetica,sans-Serif" font-size="10.00">zwave_definitions</text>
</a>
</g>
</g>
<!-- dir_e1211e04e305074fbca8f62130f3357b -->
<g id="node2" class="node">
<title>dir_e1211e04e305074fbca8f62130f3357b</title>
<text text-anchor="middle" x="215" y="-103.5" font-family="Helvetica,sans-Serif" font-size="10.00">zwave_tx_groups</text>
</g>
<!-- dir_aa65d56b7c731378c2c74ed3fa892a35 -->
<g id="node3" class="node">
<title>dir_aa65d56b7c731378c2c74ed3fa892a35</title>
<g id="a_node3"><a xlink:href="dir_aa65d56b7c731378c2c74ed3fa892a35.html" target="_top" xlink:title="include">
<polygon fill="#a2b4d6" stroke="#404040" points="150,-124 96,-124 96,-88 150,-88 150,-124"/>
<text text-anchor="middle" x="123" y="-103.5" font-family="Helvetica,sans-Serif" font-size="10.00">include</text>
</a>
</g>
</g>
<!-- dir_aa65d56b7c731378c2c74ed3fa892a35&#45;&gt;dir_c12de1a8336cf24f106a4dc7aae08da4 -->
<g id="edge2" class="edge">
<title>dir_aa65d56b7c731378c2c74ed3fa892a35&#45;&gt;dir_c12de1a8336cf24f106a4dc7aae08da4</title>
<path fill="none" stroke="black" d="M123,-87.7C123,-79.98 123,-70.71 123,-62.11"/>
<polygon fill="black" stroke="black" points="126.5,-62.1 123,-52.1 119.5,-62.1 126.5,-62.1"/>
<g id="a_edge2&#45;headlabel"><a xlink:href="dir_000042_000121.html" target="_top" xlink:title="1">
<text text-anchor="middle" x="129.34" y="-63.2" font-family="Helvetica,sans-Serif" font-size="10.00">1</text>
</a>
</g>
</g>
<!-- dir_19225156eb7ba052e31d1a736469917a -->
<g id="node5" class="node">
<title>dir_19225156eb7ba052e31d1a736469917a</title>
<g id="a_node5"><a xlink:href="dir_19225156eb7ba052e31d1a736469917a.html" target="_top" xlink:title="mnt">
<polygon fill="none" stroke="red" points="339,-52 285,-52 285,-16 339,-16 339,-52"/>
<text text-anchor="middle" x="312" y="-31.5" font-family="Helvetica,sans-Serif" font-size="10.00">mnt</text>
</a>
</g>
</g>
<!-- dir_aa65d56b7c731378c2c74ed3fa892a35&#45;&gt;dir_19225156eb7ba052e31d1a736469917a -->
<g id="edge1" class="edge">
<title>dir_aa65d56b7c731378c2c74ed3fa892a35&#45;&gt;dir_19225156eb7ba052e31d1a736469917a</title>
<path fill="none" stroke="black" d="M145.74,-87.76C150.29,-84.86 155.17,-82.11 160,-80 207.54,-59.29 227.03,-70.15 275.14,-53.93"/>
<polygon fill="black" stroke="black" points="276.59,-57.12 284.81,-50.44 274.22,-50.54 276.59,-57.12"/>
<g id="a_edge1&#45;headlabel"><a xlink:href="dir_000042_000048.html" target="_top" xlink:title="1">
<text text-anchor="middle" x="274.17" y="-58.51" font-family="Helvetica,sans-Serif" font-size="10.00">1</text>
</a>
</g>
</g>
<!-- dir_b42732e918e9021409cc2039f48f3741 -->
<g id="node4" class="node">
<title>dir_b42732e918e9021409cc2039f48f3741</title>
<g id="a_node4"><a xlink:href="dir_b42732e918e9021409cc2039f48f3741.html" target="_top" xlink:title="src">
<polygon fill="#a2b4d6" stroke="#404040" points="78,-124 24,-124 24,-88 78,-88 78,-124"/>
<text text-anchor="middle" x="51" y="-103.5" font-family="Helvetica,sans-Serif" font-size="10.00">src</text>
</a>
</g>
</g>
</g>
</svg>
