<?xml version="1.0" encoding="UTF-8" standalone="no"?>
<!DOCTYPE svg PUBLIC "-//W3C//DTD SVG 1.1//EN"
 "http://www.w3.org/Graphics/SVG/1.1/DTD/svg11.dtd">
<!-- Generated by graphviz version 2.43.0 (0)
 -->
<!-- Title: applications/zpc/components/zwave_command_classes Pages: 1 -->
<svg width="842pt" height="247pt"
 viewBox="0.00 0.00 842.00 247.00" xmlns="http://www.w3.org/2000/svg" xmlns:xlink="http://www.w3.org/1999/xlink">
<g id="graph0" class="graph" transform="scale(1 1) rotate(0) translate(4 243)">
<title>applications/zpc/components/zwave_command_classes</title>
<g id="clust1" class="cluster">
<title>clusterdir_a9d74fe2658e12bc01226d530457853c</title>
<g id="a_clust1"><a xlink:href="dir_a9d74fe2658e12bc01226d530457853c.html" target="_top" xlink:title="components">
<polygon fill="#edf0f7" stroke="#7f7f7f" stroke-dasharray="5,2" points="8,-8 8,-231 772,-231 772,-8 8,-8"/>
<text text-anchor="middle" x="390" y="-219" font-family="Helvetica,sans-Serif" font-size="10.00">components</text>
</a>
</g>
</g>
<g id="clust2" class="cluster">
<title>clusterdir_fc09578cd440002feefbaf84c6220fc7</title>
<g id="a_clust2"><a xlink:href="dir_fc09578cd440002feefbaf84c6220fc7.html" target="_top">
<polygon fill="#edf0f7" stroke="#404040" stroke-width="2" points="16,-80 16,-204 236,-204 236,-80 16,-80"/>
</a>
</g>
</g>
<!-- dir_017d710f61a4ad7b8d32a487b67eadb9 -->
<g id="node1" class="node">
<title>dir_017d710f61a4ad7b8d32a487b67eadb9</title>
<g id="a_node1"><a xlink:href="dir_017d710f61a4ad7b8d32a487b67eadb9.html" target="_top" xlink:title="zpc_attribute_store">
<polygon fill="#a2b4d6" stroke="red" points="141,-52 41,-52 41,-16 141,-16 141,-52"/>
<text text-anchor="middle" x="91" y="-31.5" font-family="Helvetica,sans-Serif" font-size="10.00">zpc_attribute_store</text>
</a>
</g>
</g>
<!-- dir_5069f7b084fe544be8c98b9141a6d7eb -->
<g id="node2" class="node">
<title>dir_5069f7b084fe544be8c98b9141a6d7eb</title>
<g id="a_node2"><a xlink:href="dir_5069f7b084fe544be8c98b9141a6d7eb.html" target="_top" xlink:title="zwave_api">
<polygon fill="#a2b4d6" stroke="red" points="681.5,-124 618.5,-124 618.5,-88 681.5,-88 681.5,-124"/>
<text text-anchor="middle" x="650" y="-103.5" font-family="Helvetica,sans-Serif" font-size="10.00">zwave_api</text>
</a>
</g>
</g>
<!-- dir_8589c6044240c4706ed85574715a24d5 -->
<g id="node3" class="node">
<title>dir_8589c6044240c4706ed85574715a24d5</title>
<g id="a_node3"><a xlink:href="dir_8589c6044240c4706ed85574715a24d5.html" target="_top" xlink:title="zpc_config">
<polygon fill="#a2b4d6" stroke="red" points="764,-124 700,-124 700,-88 764,-88 764,-124"/>
<text text-anchor="middle" x="732" y="-103.5" font-family="Helvetica,sans-Serif" font-size="10.00">zpc_config</text>
</a>
</g>
</g>
<!-- dir_8dd07b6421d13d9011235c84b3640412 -->
<g id="node4" class="node">
<title>dir_8dd07b6421d13d9011235c84b3640412</title>
<g id="a_node4"><a xlink:href="dir_8dd07b6421d13d9011235c84b3640412.html" target="_top" xlink:title="zpc_attribute_resolver">
<polygon fill="#a2b4d6" stroke="red" points="357.5,-124 244.5,-124 244.5,-88 357.5,-88 357.5,-124"/>
<text text-anchor="middle" x="301" y="-103.5" font-family="Helvetica,sans-Serif" font-size="10.00">zpc_attribute_resolver</text>
</a>
</g>
</g>
<!-- dir_c783b693d7274e9a4de597a35ccd1b8b -->
<g id="node5" class="node">
<title>dir_c783b693d7274e9a4de597a35ccd1b8b</title>
<g id="a_node5"><a xlink:href="dir_c783b693d7274e9a4de597a35ccd1b8b.html" target="_top" xlink:title="zwave">
<polygon fill="#a2b4d6" stroke="red" points="298,-52 244,-52 244,-16 298,-16 298,-52"/>
<text text-anchor="middle" x="271" y="-31.5" font-family="Helvetica,sans-Serif" font-size="10.00">zwave</text>
</a>
</g>
</g>
<!-- dir_c95c1ba524e09276fef14530df7252bf -->
<g id="node6" class="node">
<title>dir_c95c1ba524e09276fef14530df7252bf</title>
<g id="a_node6"><a xlink:href="dir_c95c1ba524e09276fef14530df7252bf.html" target="_top" xlink:title="zwave_command_handler">
<polygon fill="#a2b4d6" stroke="red" points="526,-124 396,-124 396,-88 526,-88 526,-124"/>
<text text-anchor="middle" x="461" y="-103.5" font-family="Helvetica,sans-Serif" font-size="10.00">zwave_command_handler</text>
</a>
</g>
</g>
<!-- dir_ec7d7fcaf198621f6dc9f48ecf5d8fa9 -->
<g id="node7" class="node">
<title>dir_ec7d7fcaf198621f6dc9f48ecf5d8fa9</title>
<g id="a_node7"><a xlink:href="dir_ec7d7fcaf198621f6dc9f48ecf5d8fa9.html" target="_top" xlink:title="zpc_utils">
<polygon fill="#a2b4d6" stroke="red" points="600,-124 544,-124 544,-88 600,-88 600,-124"/>
<text text-anchor="middle" x="572" y="-103.5" font-family="Helvetica,sans-Serif" font-size="10.00">zpc_utils</text>
</a>
</g>
</g>
<!-- dir_fc09578cd440002feefbaf84c6220fc7 -->
<g id="node8" class="node">
<title>dir_fc09578cd440002feefbaf84c6220fc7</title>
<text text-anchor="middle" x="162" y="-175.5" font-family="Helvetica,sans-Serif" font-size="10.00">zwave_command_classes</text>
</g>
<!-- dir_5f27990706e4ecd18f73148762bc6a90 -->
<g id="node9" class="node">
<title>dir_5f27990706e4ecd18f73148762bc6a90</title>
<g id="a_node9"><a xlink:href="dir_5f27990706e4ecd18f73148762bc6a90.html" target="_top" xlink:title="include">
<polygon fill="#a2b4d6" stroke="#404040" points="143,-124 89,-124 89,-88 143,-88 143,-124"/>
<text text-anchor="middle" x="116" y="-103.5" font-family="Helvetica,sans-Serif" font-size="10.00">include</text>
</a>
</g>
</g>
<!-- dir_5f27990706e4ecd18f73148762bc6a90&#45;&gt;dir_017d710f61a4ad7b8d32a487b67eadb9 -->
<g id="edge1" class="edge">
<title>dir_5f27990706e4ecd18f73148762bc6a90&#45;&gt;dir_017d710f61a4ad7b8d32a487b67eadb9</title>
<path fill="none" stroke="black" d="M109.82,-87.7C107,-79.81 103.61,-70.3 100.48,-61.55"/>
<polygon fill="black" stroke="black" points="103.77,-60.34 97.11,-52.1 97.18,-62.7 103.77,-60.34"/>
<g id="a_edge1&#45;headlabel"><a xlink:href="dir_000045_000107.html" target="_top" xlink:title="6">
<text text-anchor="middle" x="107.65" y="-60.27" font-family="Helvetica,sans-Serif" font-size="10.00">6</text>
</a>
</g>
</g>
<!-- dir_5f27990706e4ecd18f73148762bc6a90&#45;&gt;dir_c783b693d7274e9a4de597a35ccd1b8b -->
<g id="edge3" class="edge">
<title>dir_5f27990706e4ecd18f73148762bc6a90&#45;&gt;dir_c783b693d7274e9a4de597a35ccd1b8b</title>
<path fill="none" stroke="black" d="M143.44,-88.26C148.54,-85.37 153.88,-82.5 159,-80 183.6,-67.98 212.27,-56.51 234.44,-48.16"/>
<polygon fill="black" stroke="black" points="235.67,-51.43 243.82,-44.66 233.23,-44.87 235.67,-51.43"/>
<g id="a_edge3&#45;headlabel"><a xlink:href="dir_000045_000115.html" target="_top" xlink:title="12">
<text text-anchor="middle" x="233.3" y="-52.85" font-family="Helvetica,sans-Serif" font-size="10.00">12</text>
</a>
</g>
</g>
<!-- dir_19225156eb7ba052e31d1a736469917a -->
<g id="node12" class="node">
<title>dir_19225156eb7ba052e31d1a736469917a</title>
<g id="a_node12"><a xlink:href="dir_19225156eb7ba052e31d1a736469917a.html" target="_top" xlink:title="mnt">
<polygon fill="none" stroke="red" points="834,-52 780,-52 780,-16 834,-16 834,-52"/>
<text text-anchor="middle" x="807" y="-31.5" font-family="Helvetica,sans-Serif" font-size="10.00">mnt</text>
</a>
</g>
</g>
<!-- dir_5f27990706e4ecd18f73148762bc6a90&#45;&gt;dir_19225156eb7ba052e31d1a736469917a -->
<g id="edge2" class="edge">
<title>dir_5f27990706e4ecd18f73148762bc6a90&#45;&gt;dir_19225156eb7ba052e31d1a736469917a</title>
<path fill="none" stroke="black" d="M141,-87.79C146.69,-84.65 152.87,-81.8 159,-80 419.14,-3.51 509.49,-123.15 770.16,-53.4"/>
<polygon fill="black" stroke="black" points="771.19,-56.75 779.91,-50.73 769.34,-50 771.19,-56.75"/>
<g id="a_edge2&#45;headlabel"><a xlink:href="dir_000045_000048.html" target="_top" xlink:title="8">
<text text-anchor="middle" x="768.47" y="-57.94" font-family="Helvetica,sans-Serif" font-size="10.00">8</text>
</a>
</g>
</g>
<!-- dir_a2bed2f5e6993e5b92d99a1b5219c71a -->
<g id="node10" class="node">
<title>dir_a2bed2f5e6993e5b92d99a1b5219c71a</title>
<g id="a_node10"><a xlink:href="dir_a2bed2f5e6993e5b92d99a1b5219c71a.html" target="_top" xlink:title="platform">
<polygon fill="#a2b4d6" stroke="#404040" points="222,-124 168,-124 168,-88 222,-88 222,-124"/>
<text text-anchor="middle" x="195" y="-103.5" font-family="Helvetica,sans-Serif" font-size="10.00">platform</text>
</a>
</g>
</g>
<!-- dir_a2bed2f5e6993e5b92d99a1b5219c71a&#45;&gt;dir_19225156eb7ba052e31d1a736469917a -->
<g id="edge4" class="edge">
<title>dir_a2bed2f5e6993e5b92d99a1b5219c71a&#45;&gt;dir_19225156eb7ba052e31d1a736469917a</title>
<path fill="none" stroke="black" d="M212.48,-87.83C216.61,-84.68 221.22,-81.83 226,-80 337.31,-37.49 641.63,-82.86 769.88,-53.29"/>
<polygon fill="black" stroke="black" points="771.09,-56.6 779.9,-50.72 769.35,-49.81 771.09,-56.6"/>
<g id="a_edge4&#45;headlabel"><a xlink:href="dir_000054_000048.html" target="_top" xlink:title="1">
<text text-anchor="middle" x="768.31" y="-57.74" font-family="Helvetica,sans-Serif" font-size="10.00">1</text>
</a>
</g>
</g>
<!-- dir_5fe62cf5c8080ff57169b53e9829ef5a -->
<g id="node11" class="node">
<title>dir_5fe62cf5c8080ff57169b53e9829ef5a</title>
<g id="a_node11"><a xlink:href="dir_5fe62cf5c8080ff57169b53e9829ef5a.html" target="_top" xlink:title="src">
<polygon fill="#a2b4d6" stroke="#404040" points="78,-196 24,-196 24,-160 78,-160 78,-196"/>
<text text-anchor="middle" x="51" y="-175.5" font-family="Helvetica,sans-Serif" font-size="10.00">src</text>
</a>
</g>
</g>
<!-- dir_5fe62cf5c8080ff57169b53e9829ef5a&#45;&gt;dir_017d710f61a4ad7b8d32a487b67eadb9 -->
<g id="edge5" class="edge">
<title>dir_5fe62cf5c8080ff57169b53e9829ef5a&#45;&gt;dir_017d710f61a4ad7b8d32a487b67eadb9</title>
<path fill="none" stroke="black" d="M55.82,-159.87C62.67,-135.56 75.28,-90.82 83.39,-62.01"/>
<polygon fill="black" stroke="black" points="86.82,-62.76 86.16,-52.19 80.08,-60.87 86.82,-62.76"/>
<g id="a_edge5&#45;headlabel"><a xlink:href="dir_000091_000107.html" target="_top" xlink:title="94">
<text text-anchor="middle" x="88.57" y="-64.49" font-family="Helvetica,sans-Serif" font-size="10.00">94</text>
</a>
</g>
</g>
<!-- dir_5fe62cf5c8080ff57169b53e9829ef5a&#45;&gt;dir_5069f7b084fe544be8c98b9141a6d7eb -->
<g id="edge7" class="edge">
<title>dir_5fe62cf5c8080ff57169b53e9829ef5a&#45;&gt;dir_5069f7b084fe544be8c98b9141a6d7eb</title>
<path fill="none" stroke="black" d="M78.12,-162.91C81.06,-161.77 84.06,-160.77 87,-160 308.84,-102.17 380.59,-175.11 608.19,-123.67"/>
<polygon fill="black" stroke="black" points="609.15,-127.04 618.1,-121.38 607.57,-120.22 609.15,-127.04"/>
<g id="a_edge7&#45;headlabel"><a xlink:href="dir_000091_000116.html" target="_top" xlink:title="4">
<text text-anchor="middle" x="606.28" y="-128.12" font-family="Helvetica,sans-Serif" font-size="10.00">4</text>
</a>
</g>
</g>
<!-- dir_5fe62cf5c8080ff57169b53e9829ef5a&#45;&gt;dir_8589c6044240c4706ed85574715a24d5 -->
<g id="edge9" class="edge">
<title>dir_5fe62cf5c8080ff57169b53e9829ef5a&#45;&gt;dir_8589c6044240c4706ed85574715a24d5</title>
<path fill="none" stroke="black" d="M78.11,-162.88C81.06,-161.75 84.05,-160.75 87,-160 347.1,-93.47 428.12,-183.14 690,-124 690.1,-123.98 690.2,-123.95 690.3,-123.93"/>
<polygon fill="black" stroke="black" points="691.11,-127.34 699.78,-121.25 689.2,-120.61 691.11,-127.34"/>
<g id="a_edge9&#45;headlabel"><a xlink:href="dir_000091_000108.html" target="_top" xlink:title="3">
<text text-anchor="middle" x="688.42" y="-128.55" font-family="Helvetica,sans-Serif" font-size="10.00">3</text>
</a>
</g>
</g>
<!-- dir_5fe62cf5c8080ff57169b53e9829ef5a&#45;&gt;dir_8dd07b6421d13d9011235c84b3640412 -->
<g id="edge10" class="edge">
<title>dir_5fe62cf5c8080ff57169b53e9829ef5a&#45;&gt;dir_8dd07b6421d13d9011235c84b3640412</title>
<path fill="none" stroke="black" d="M78.27,-163.4C81.18,-162.16 84.13,-161 87,-160 149.86,-138.04 170.42,-141.03 234.43,-125.36"/>
<polygon fill="black" stroke="black" points="235.35,-128.74 244.2,-122.91 233.65,-121.95 235.35,-128.74"/>
<g id="a_edge10&#45;headlabel"><a xlink:href="dir_000091_000106.html" target="_top" xlink:title="11">
<text text-anchor="middle" x="232.55" y="-129.87" font-family="Helvetica,sans-Serif" font-size="10.00">11</text>
</a>
</g>
</g>
<!-- dir_5fe62cf5c8080ff57169b53e9829ef5a&#45;&gt;dir_c783b693d7274e9a4de597a35ccd1b8b -->
<g id="edge12" class="edge">
<title>dir_5fe62cf5c8080ff57169b53e9829ef5a&#45;&gt;dir_c783b693d7274e9a4de597a35ccd1b8b</title>
<path fill="none" stroke="black" d="M78.17,-163.09C81.1,-161.92 84.08,-160.85 87,-160 147,-142.44 324.72,-170.95 366,-124 378.91,-109.31 376.46,-96.52 366,-80 353.34,-59.99 329.1,-48.7 308.28,-42.44"/>
<polygon fill="black" stroke="black" points="308.97,-39 298.4,-39.75 307.13,-45.75 308.97,-39"/>
<g id="a_edge12&#45;headlabel"><a xlink:href="dir_000091_000115.html" target="_top" xlink:title="122">
<text text-anchor="middle" x="313.18" y="-34.7" font-family="Helvetica,sans-Serif" font-size="10.00">122</text>
</a>
</g>
</g>
<!-- dir_5fe62cf5c8080ff57169b53e9829ef5a&#45;&gt;dir_c95c1ba524e09276fef14530df7252bf -->
<g id="edge13" class="edge">
<title>dir_5fe62cf5c8080ff57169b53e9829ef5a&#45;&gt;dir_c95c1ba524e09276fef14530df7252bf</title>
<path fill="none" stroke="black" d="M78.16,-163.07C81.1,-161.9 84.08,-160.84 87,-160 213.89,-123.33 251.75,-145.92 382,-124 383.28,-123.78 384.58,-123.56 385.88,-123.33"/>
<polygon fill="black" stroke="black" points="386.79,-126.72 395.99,-121.48 385.53,-119.84 386.79,-126.72"/>
<g id="a_edge13&#45;headlabel"><a xlink:href="dir_000091_000119.html" target="_top" xlink:title="34">
<text text-anchor="middle" x="383.77" y="-127.67" font-family="Helvetica,sans-Serif" font-size="10.00">34</text>
</a>
</g>
</g>
<!-- dir_5fe62cf5c8080ff57169b53e9829ef5a&#45;&gt;dir_ec7d7fcaf198621f6dc9f48ecf5d8fa9 -->
<g id="edge14" class="edge">
<title>dir_5fe62cf5c8080ff57169b53e9829ef5a&#45;&gt;dir_ec7d7fcaf198621f6dc9f48ecf5d8fa9</title>
<path fill="none" stroke="black" d="M78.13,-162.95C81.07,-161.8 84.06,-160.78 87,-160 276.8,-109.37 339.64,-172.31 533.74,-123.76"/>
<polygon fill="black" stroke="black" points="534.87,-127.08 543.68,-121.2 533.13,-120.3 534.87,-127.08"/>
<g id="a_edge14&#45;headlabel"><a xlink:href="dir_000091_000114.html" target="_top" xlink:title="11">
<text text-anchor="middle" x="532.09" y="-128.23" font-family="Helvetica,sans-Serif" font-size="10.00">11</text>
</a>
</g>
</g>
<!-- dir_5fe62cf5c8080ff57169b53e9829ef5a&#45;&gt;dir_5f27990706e4ecd18f73148762bc6a90 -->
<g id="edge8" class="edge">
<title>dir_5fe62cf5c8080ff57169b53e9829ef5a&#45;&gt;dir_5f27990706e4ecd18f73148762bc6a90</title>
<path fill="none" stroke="black" d="M67.07,-159.7C74.94,-151.22 84.56,-140.86 93.17,-131.58"/>
<polygon fill="black" stroke="black" points="95.88,-133.81 100.12,-124.1 90.75,-129.05 95.88,-133.81"/>
<g id="a_edge8&#45;headlabel"><a xlink:href="dir_000091_000045.html" target="_top" xlink:title="44">
<text text-anchor="middle" x="95.51" y="-135.88" font-family="Helvetica,sans-Serif" font-size="10.00">44</text>
</a>
</g>
</g>
<!-- dir_5fe62cf5c8080ff57169b53e9829ef5a&#45;&gt;dir_a2bed2f5e6993e5b92d99a1b5219c71a -->
<g id="edge11" class="edge">
<title>dir_5fe62cf5c8080ff57169b53e9829ef5a&#45;&gt;dir_a2bed2f5e6993e5b92d99a1b5219c71a</title>
<path fill="none" stroke="black" d="M78.09,-163.83C100.77,-152.81 133.36,-136.97 158.37,-124.81"/>
<polygon fill="black" stroke="black" points="160.08,-127.87 167.55,-120.35 157.02,-121.57 160.08,-127.87"/>
<g id="a_edge11&#45;headlabel"><a xlink:href="dir_000091_000054.html" target="_top" xlink:title="2">
<text text-anchor="middle" x="158.09" y="-129.49" font-family="Helvetica,sans-Serif" font-size="10.00">2</text>
</a>
</g>
</g>
<!-- dir_5fe62cf5c8080ff57169b53e9829ef5a&#45;&gt;dir_19225156eb7ba052e31d1a736469917a -->
<g id="edge6" class="edge">
<title>dir_5fe62cf5c8080ff57169b53e9829ef5a&#45;&gt;dir_19225156eb7ba052e31d1a736469917a</title>
<path fill="none" stroke="black" d="M78.11,-162.86C81.05,-161.73 84.05,-160.74 87,-160 161.34,-141.28 714.69,-170.02 776,-124 795.17,-109.61 802.55,-82.55 805.36,-62.03"/>
<polygon fill="black" stroke="black" points="808.85,-62.32 806.45,-52 801.89,-61.56 808.85,-62.32"/>
<g id="a_edge6&#45;headlabel"><a xlink:href="dir_000091_000048.html" target="_top" xlink:title="51">
<text text-anchor="middle" x="811.28" y="-63.7" font-family="Helvetica,sans-Serif" font-size="10.00">51</text>
</a>
</g>
</g>
</g>
</svg>
