<?xml version="1.0" encoding="UTF-8" standalone="no"?>
<!DOCTYPE svg PUBLIC "-//W3C//DTD SVG 1.1//EN"
 "http://www.w3.org/Graphics/SVG/1.1/DTD/svg11.dtd">
<!-- Generated by graphviz version 2.43.0 (0)
 -->
<!-- Title: applications/zpc/components/zpc_attribute_resolver Pages: 1 -->
<svg width="736pt" height="231pt"
 viewBox="0.00 0.00 735.72 231.00" xmlns="http://www.w3.org/2000/svg" xmlns:xlink="http://www.w3.org/1999/xlink">
<g id="graph0" class="graph" transform="scale(1 1) rotate(0) translate(4 227)">
<title>applications/zpc/components/zpc_attribute_resolver</title>
<g id="clust1" class="cluster">
<title>clusterdir_a9d74fe2658e12bc01226d530457853c</title>
<g id="a_clust1"><a xlink:href="dir_a9d74fe2658e12bc01226d530457853c.html" target="_top" xlink:title="components">
<polygon fill="#edf0f7" stroke="#7f7f7f" stroke-dasharray="5,2" points="8,-56 8,-215 712,-215 712,-56 8,-56"/>
<text text-anchor="middle" x="360" y="-203" font-family="Helvetica,sans-Serif" font-size="10.00">components</text>
</a>
</g>
</g>
<g id="clust2" class="cluster">
<title>clusterdir_8dd07b6421d13d9011235c84b3640412</title>
<g id="a_clust2"><a xlink:href="dir_8dd07b6421d13d9011235c84b3640412.html" target="_top">
<polygon fill="#edf0f7" stroke="#404040" stroke-width="2" points="16,-64 16,-188 218,-188 218,-64 16,-64"/>
</a>
</g>
</g>
<!-- dir_017d710f61a4ad7b8d32a487b67eadb9 -->
<g id="node1" class="node">
<title>dir_017d710f61a4ad7b8d32a487b67eadb9</title>
<g id="a_node1"><a xlink:href="dir_017d710f61a4ad7b8d32a487b67eadb9.html" target="_top" xlink:title="zpc_attribute_store">
<polygon fill="#a2b4d6" stroke="red" points="326,-108 226,-108 226,-72 326,-72 326,-108"/>
<text text-anchor="middle" x="276" y="-87.5" font-family="Helvetica,sans-Serif" font-size="10.00">zpc_attribute_store</text>
</a>
</g>
</g>
<!-- dir_5069f7b084fe544be8c98b9141a6d7eb -->
<g id="node2" class="node">
<title>dir_5069f7b084fe544be8c98b9141a6d7eb</title>
<g id="a_node2"><a xlink:href="dir_5069f7b084fe544be8c98b9141a6d7eb.html" target="_top" xlink:title="zwave_api">
<polygon fill="#a2b4d6" stroke="red" points="407.5,-108 344.5,-108 344.5,-72 407.5,-72 407.5,-108"/>
<text text-anchor="middle" x="376" y="-87.5" font-family="Helvetica,sans-Serif" font-size="10.00">zwave_api</text>
</a>
</g>
</g>
<!-- dir_c783b693d7274e9a4de597a35ccd1b8b -->
<g id="node3" class="node">
<title>dir_c783b693d7274e9a4de597a35ccd1b8b</title>
<g id="a_node3"><a xlink:href="dir_c783b693d7274e9a4de597a35ccd1b8b.html" target="_top" xlink:title="zwave">
<polygon fill="#a2b4d6" stroke="red" points="480,-108 426,-108 426,-72 480,-72 480,-108"/>
<text text-anchor="middle" x="453" y="-87.5" font-family="Helvetica,sans-Serif" font-size="10.00">zwave</text>
</a>
</g>
</g>
<!-- dir_ec7d7fcaf198621f6dc9f48ecf5d8fa9 -->
<g id="node4" class="node">
<title>dir_ec7d7fcaf198621f6dc9f48ecf5d8fa9</title>
<g id="a_node4"><a xlink:href="dir_ec7d7fcaf198621f6dc9f48ecf5d8fa9.html" target="_top" xlink:title="zpc_utils">
<polygon fill="#a2b4d6" stroke="red" points="554,-108 498,-108 498,-72 554,-72 554,-108"/>
<text text-anchor="middle" x="526" y="-87.5" font-family="Helvetica,sans-Serif" font-size="10.00">zpc_utils</text>
</a>
</g>
</g>
<!-- dir_fc09578cd440002feefbaf84c6220fc7 -->
<g id="node5" class="node">
<title>dir_fc09578cd440002feefbaf84c6220fc7</title>
<g id="a_node5"><a xlink:href="dir_fc09578cd440002feefbaf84c6220fc7.html" target="_top" xlink:title="zwave_command_classes">
<polygon fill="#a2b4d6" stroke="red" points="704,-108 572,-108 572,-72 704,-72 704,-108"/>
<text text-anchor="middle" x="638" y="-87.5" font-family="Helvetica,sans-Serif" font-size="10.00">zwave_command_classes</text>
</a>
</g>
</g>
<!-- dir_8dd07b6421d13d9011235c84b3640412 -->
<g id="node6" class="node">
<title>dir_8dd07b6421d13d9011235c84b3640412</title>
<text text-anchor="middle" x="153" y="-159.5" font-family="Helvetica,sans-Serif" font-size="10.00">zpc_attribute_resolver</text>
</g>
<!-- dir_d7e30f2b714713cdae99da4e5061112b -->
<g id="node7" class="node">
<title>dir_d7e30f2b714713cdae99da4e5061112b</title>
<g id="a_node7"><a xlink:href="dir_d7e30f2b714713cdae99da4e5061112b.html" target="_top" xlink:title="include">
<polygon fill="#a2b4d6" stroke="#404040" points="143,-108 89,-108 89,-72 143,-72 143,-108"/>
<text text-anchor="middle" x="116" y="-87.5" font-family="Helvetica,sans-Serif" font-size="10.00">include</text>
</a>
</g>
</g>
<!-- dir_19225156eb7ba052e31d1a736469917a -->
<g id="node9" class="node">
<title>dir_19225156eb7ba052e31d1a736469917a</title>
<g id="a_node9"><a xlink:href="dir_19225156eb7ba052e31d1a736469917a.html" target="_top" xlink:title="mnt">
<polygon fill="none" stroke="red" points="451,-36 397,-36 397,0 451,0 451,-36"/>
<text text-anchor="middle" x="424" y="-15.5" font-family="Helvetica,sans-Serif" font-size="10.00">mnt</text>
</a>
</g>
</g>
<!-- dir_d7e30f2b714713cdae99da4e5061112b&#45;&gt;dir_19225156eb7ba052e31d1a736469917a -->
<g id="edge1" class="edge">
<title>dir_d7e30f2b714713cdae99da4e5061112b&#45;&gt;dir_19225156eb7ba052e31d1a736469917a</title>
<path fill="none" stroke="black" d="M128.12,-71.87C133.25,-65.88 139.73,-59.74 147,-56 187.98,-34.94 320.62,-24.76 386.36,-20.91"/>
<polygon fill="black" stroke="black" points="386.9,-24.39 396.69,-20.33 386.51,-17.4 386.9,-24.39"/>
<g id="a_edge1&#45;headlabel"><a xlink:href="dir_000018_000048.html" target="_top" xlink:title="1">
<text text-anchor="middle" x="383.47" y="-24.93" font-family="Helvetica,sans-Serif" font-size="10.00">1</text>
</a>
</g>
</g>
<!-- dir_e96cb851b031742ca2dc97ef3e2c5069 -->
<g id="node8" class="node">
<title>dir_e96cb851b031742ca2dc97ef3e2c5069</title>
<g id="a_node8"><a xlink:href="dir_e96cb851b031742ca2dc97ef3e2c5069.html" target="_top" xlink:title="src">
<polygon fill="#a2b4d6" stroke="#404040" points="78,-180 24,-180 24,-144 78,-144 78,-180"/>
<text text-anchor="middle" x="51" y="-159.5" font-family="Helvetica,sans-Serif" font-size="10.00">src</text>
</a>
</g>
</g>
<!-- dir_e96cb851b031742ca2dc97ef3e2c5069&#45;&gt;dir_017d710f61a4ad7b8d32a487b67eadb9 -->
<g id="edge2" class="edge">
<title>dir_e96cb851b031742ca2dc97ef3e2c5069&#45;&gt;dir_017d710f61a4ad7b8d32a487b67eadb9</title>
<path fill="none" stroke="black" d="M78.26,-147.85C81.51,-146.47 84.81,-145.15 88,-144 142.83,-124.2 160.84,-125.09 215.8,-109.74"/>
<polygon fill="black" stroke="black" points="217.06,-113.02 225.72,-106.91 215.14,-106.29 217.06,-113.02"/>
<g id="a_edge2&#45;headlabel"><a xlink:href="dir_000066_000107.html" target="_top" xlink:title="3">
<text text-anchor="middle" x="214.39" y="-114.24" font-family="Helvetica,sans-Serif" font-size="10.00">3</text>
</a>
</g>
</g>
<!-- dir_e96cb851b031742ca2dc97ef3e2c5069&#45;&gt;dir_5069f7b084fe544be8c98b9141a6d7eb -->
<g id="edge4" class="edge">
<title>dir_e96cb851b031742ca2dc97ef3e2c5069&#45;&gt;dir_5069f7b084fe544be8c98b9141a6d7eb</title>
<path fill="none" stroke="black" d="M78.14,-147.48C81.41,-146.16 84.75,-144.96 88,-144 191.36,-113.41 226.08,-136.1 334.79,-107.6"/>
<polygon fill="black" stroke="black" points="335.75,-110.97 344.49,-104.97 333.92,-104.21 335.75,-110.97"/>
<g id="a_edge4&#45;headlabel"><a xlink:href="dir_000066_000116.html" target="_top" xlink:title="1">
<text text-anchor="middle" x="333.02" y="-112.15" font-family="Helvetica,sans-Serif" font-size="10.00">1</text>
</a>
</g>
</g>
<!-- dir_e96cb851b031742ca2dc97ef3e2c5069&#45;&gt;dir_c783b693d7274e9a4de597a35ccd1b8b -->
<g id="edge5" class="edge">
<title>dir_e96cb851b031742ca2dc97ef3e2c5069&#45;&gt;dir_c783b693d7274e9a4de597a35ccd1b8b</title>
<path fill="none" stroke="black" d="M78.11,-147.36C81.38,-146.07 84.73,-144.9 88,-144 226.59,-105.67 273.34,-146.06 415.87,-107.73"/>
<polygon fill="black" stroke="black" points="417.15,-111.01 425.85,-104.97 415.27,-104.27 417.15,-111.01"/>
<g id="a_edge5&#45;headlabel"><a xlink:href="dir_000066_000115.html" target="_top" xlink:title="4">
<text text-anchor="middle" x="414.44" y="-112.21" font-family="Helvetica,sans-Serif" font-size="10.00">4</text>
</a>
</g>
</g>
<!-- dir_e96cb851b031742ca2dc97ef3e2c5069&#45;&gt;dir_ec7d7fcaf198621f6dc9f48ecf5d8fa9 -->
<g id="edge7" class="edge">
<title>dir_e96cb851b031742ca2dc97ef3e2c5069&#45;&gt;dir_ec7d7fcaf198621f6dc9f48ecf5d8fa9</title>
<path fill="none" stroke="black" d="M78.09,-147.3C81.37,-146.02 84.72,-144.87 88,-144 257.8,-98.81 314.05,-152.03 487.96,-107.72"/>
<polygon fill="black" stroke="black" points="488.89,-111.1 497.68,-105.18 487.12,-104.32 488.89,-111.1"/>
<g id="a_edge7&#45;headlabel"><a xlink:href="dir_000066_000114.html" target="_top" xlink:title="1">
<text text-anchor="middle" x="486.13" y="-112.25" font-family="Helvetica,sans-Serif" font-size="10.00">1</text>
</a>
</g>
</g>
<!-- dir_e96cb851b031742ca2dc97ef3e2c5069&#45;&gt;dir_fc09578cd440002feefbaf84c6220fc7 -->
<g id="edge8" class="edge">
<title>dir_e96cb851b031742ca2dc97ef3e2c5069&#45;&gt;dir_fc09578cd440002feefbaf84c6220fc7</title>
<path fill="none" stroke="black" d="M78.08,-147.25C81.36,-145.98 84.71,-144.85 88,-144 289.77,-91.8 351.71,-137.99 561.73,-108.03"/>
<polygon fill="black" stroke="black" points="562.46,-111.47 571.85,-106.55 561.44,-104.54 562.46,-111.47"/>
<g id="a_edge8&#45;headlabel"><a xlink:href="dir_000066_000118.html" target="_top" xlink:title="1">
<text text-anchor="middle" x="559.32" y="-112.3" font-family="Helvetica,sans-Serif" font-size="10.00">1</text>
</a>
</g>
</g>
<!-- dir_e96cb851b031742ca2dc97ef3e2c5069&#45;&gt;dir_d7e30f2b714713cdae99da4e5061112b -->
<g id="edge6" class="edge">
<title>dir_e96cb851b031742ca2dc97ef3e2c5069&#45;&gt;dir_d7e30f2b714713cdae99da4e5061112b</title>
<path fill="none" stroke="black" d="M67.07,-143.7C74.94,-135.22 84.56,-124.86 93.17,-115.58"/>
<polygon fill="black" stroke="black" points="95.88,-117.81 100.12,-108.1 90.75,-113.05 95.88,-117.81"/>
<g id="a_edge6&#45;headlabel"><a xlink:href="dir_000066_000018.html" target="_top" xlink:title="1">
<text text-anchor="middle" x="95.51" y="-119.88" font-family="Helvetica,sans-Serif" font-size="10.00">1</text>
</a>
</g>
</g>
<!-- dir_e96cb851b031742ca2dc97ef3e2c5069&#45;&gt;dir_19225156eb7ba052e31d1a736469917a -->
<g id="edge3" class="edge">
<title>dir_e96cb851b031742ca2dc97ef3e2c5069&#45;&gt;dir_19225156eb7ba052e31d1a736469917a</title>
<path fill="none" stroke="black" d="M78.06,-147.19C81.35,-145.93 84.71,-144.82 88,-144 155.82,-127.12 668.01,-158.82 716,-108 731.87,-91.2 731.28,-73.34 716,-56 699.42,-37.18 536.5,-25.46 461.48,-21.03"/>
<polygon fill="black" stroke="black" points="461.26,-17.51 451.07,-20.42 460.86,-24.5 461.26,-17.51"/>
<g id="a_edge3&#45;headlabel"><a xlink:href="dir_000066_000048.html" target="_top" xlink:title="1">
<text text-anchor="middle" x="465.01" y="-12.38" font-family="Helvetica,sans-Serif" font-size="10.00">1</text>
</a>
</g>
</g>
</g>
</svg>
