<?xml version="1.0" encoding="UTF-8" standalone="no"?>
<!DOCTYPE svg PUBLIC "-//W3C//DTD SVG 1.1//EN"
 "http://www.w3.org/Graphics/SVG/1.1/DTD/svg11.dtd">
<!-- Generated by graphviz version 2.43.0 (0)
 -->
<!-- Title: applications/zpc/components/zwave/zwave_transports/transport_service_wrapper Pages: 1 -->
<svg width="643pt" height="231pt"
 viewBox="0.00 0.00 643.04 231.00" xmlns="http://www.w3.org/2000/svg" xmlns:xlink="http://www.w3.org/1999/xlink">
<g id="graph0" class="graph" transform="scale(1 1) rotate(0) translate(4 227)">
<title>applications/zpc/components/zwave/zwave_transports/transport_service_wrapper</title>
<g id="clust1" class="cluster">
<title>clusterdir_f4b467f0a960798c9a570e0236e928b5</title>
<g id="a_clust1"><a xlink:href="dir_f4b467f0a960798c9a570e0236e928b5.html" target="_top" xlink:title="zwave_transports">
<polygon fill="#edf0f7" stroke="#7f7f7f" stroke-dasharray="5,2" points="160.5,-56 160.5,-215 468.5,-215 468.5,-56 160.5,-56"/>
<text text-anchor="middle" x="314.5" y="-203" font-family="Helvetica,sans-Serif" font-size="10.00">zwave_transports</text>
</a>
</g>
</g>
<g id="clust2" class="cluster">
<title>clusterdir_72118fa05438b5cd025d190be21a2a64</title>
<g id="a_clust2"><a xlink:href="dir_72118fa05438b5cd025d190be21a2a64.html" target="_top">
<polygon fill="#edf0f7" stroke="#404040" stroke-width="2" points="168.5,-64 168.5,-188 460.5,-188 460.5,-64 168.5,-64"/>
</a>
</g>
</g>
<!-- dir_72118fa05438b5cd025d190be21a2a64 -->
<g id="node1" class="node">
<title>dir_72118fa05438b5cd025d190be21a2a64</title>
<text text-anchor="middle" x="386.5" y="-159.5" font-family="Helvetica,sans-Serif" font-size="10.00">transport_service_wrapper</text>
</g>
<!-- dir_13fd57f04c6c94ec1c42b0a31032a30a -->
<g id="node2" class="node">
<title>dir_13fd57f04c6c94ec1c42b0a31032a30a</title>
<g id="a_node2"><a xlink:href="dir_13fd57f04c6c94ec1c42b0a31032a30a.html" target="_top" xlink:title="include">
<polygon fill="#a2b4d6" stroke="#404040" points="302.5,-180 248.5,-180 248.5,-144 302.5,-144 302.5,-180"/>
<text text-anchor="middle" x="275.5" y="-159.5" font-family="Helvetica,sans-Serif" font-size="10.00">include</text>
</a>
</g>
</g>
<!-- dir_0ae112d56e74946f02cfe5bffaa8cbc8 -->
<g id="node5" class="node">
<title>dir_0ae112d56e74946f02cfe5bffaa8cbc8</title>
<g id="a_node5"><a xlink:href="dir_0ae112d56e74946f02cfe5bffaa8cbc8.html" target="_top" xlink:title="zwave_rx">
<polygon fill="none" stroke="red" stroke-dasharray="5,2" points="152,-108 93,-108 93,-72 152,-72 152,-108"/>
<text text-anchor="middle" x="122.5" y="-87.5" font-family="Helvetica,sans-Serif" font-size="10.00">zwave_rx</text>
</a>
</g>
</g>
<!-- dir_13fd57f04c6c94ec1c42b0a31032a30a&#45;&gt;dir_0ae112d56e74946f02cfe5bffaa8cbc8 -->
<g id="edge1" class="edge">
<title>dir_13fd57f04c6c94ec1c42b0a31032a30a&#45;&gt;dir_0ae112d56e74946f02cfe5bffaa8cbc8</title>
<path fill="none" stroke="black" d="M248.39,-148.14C245.4,-146.74 242.39,-145.33 239.5,-144 213.64,-132.04 184.46,-118.82 161.7,-108.57"/>
<polygon fill="black" stroke="black" points="162.93,-105.29 152.37,-104.38 160.06,-111.67 162.93,-105.29"/>
<g id="a_edge1&#45;headlabel"><a xlink:href="dir_000034_000121.html" target="_top" xlink:title="1">
<text text-anchor="middle" x="167.37" y="-101.67" font-family="Helvetica,sans-Serif" font-size="10.00">1</text>
</a>
</g>
</g>
<!-- dir_3fdbfed0850fd95dbe3b2b1a1a1ffa0e -->
<g id="node7" class="node">
<title>dir_3fdbfed0850fd95dbe3b2b1a1a1ffa0e</title>
<g id="a_node7"><a xlink:href="dir_3fdbfed0850fd95dbe3b2b1a1a1ffa0e.html" target="_top" xlink:title="zwave_controller">
<polygon fill="none" stroke="red" stroke-dasharray="5,2" points="341.5,-36 251.5,-36 251.5,0 341.5,0 341.5,-36"/>
<text text-anchor="middle" x="296.5" y="-15.5" font-family="Helvetica,sans-Serif" font-size="10.00">zwave_controller</text>
</a>
</g>
</g>
<!-- dir_13fd57f04c6c94ec1c42b0a31032a30a&#45;&gt;dir_3fdbfed0850fd95dbe3b2b1a1a1ffa0e -->
<g id="edge2" class="edge">
<title>dir_13fd57f04c6c94ec1c42b0a31032a30a&#45;&gt;dir_3fdbfed0850fd95dbe3b2b1a1a1ffa0e</title>
<path fill="none" stroke="black" d="M302.61,-147.38C305.89,-146.08 309.23,-144.91 312.5,-144 379.5,-125.24 577.22,-159.95 623.5,-108 638.87,-90.74 638.9,-73.24 623.5,-56 605.74,-36.12 440.12,-25.56 351.64,-21.3"/>
<polygon fill="black" stroke="black" points="351.66,-17.8 341.5,-20.82 351.33,-24.79 351.66,-17.8"/>
<g id="a_edge2&#45;headlabel"><a xlink:href="dir_000034_000118.html" target="_top" xlink:title="1">
<text text-anchor="middle" x="355.38" y="-12.63" font-family="Helvetica,sans-Serif" font-size="10.00">1</text>
</a>
</g>
</g>
<!-- dir_34a604b38a6d606ac9cc5f6847487d5a -->
<g id="node3" class="node">
<title>dir_34a604b38a6d606ac9cc5f6847487d5a</title>
<g id="a_node3"><a xlink:href="dir_34a604b38a6d606ac9cc5f6847487d5a.html" target="_top" xlink:title="src">
<polygon fill="#a2b4d6" stroke="#404040" points="230.5,-180 176.5,-180 176.5,-144 230.5,-144 230.5,-180"/>
<text text-anchor="middle" x="203.5" y="-159.5" font-family="Helvetica,sans-Serif" font-size="10.00">src</text>
</a>
</g>
</g>
<!-- dir_0cfa19ae1e9b75b682737a7863663f61 -->
<g id="node4" class="node">
<title>dir_0cfa19ae1e9b75b682737a7863663f61</title>
<g id="a_node4"><a xlink:href="dir_0cfa19ae1e9b75b682737a7863663f61.html" target="_top" xlink:title="transport_service">
<polygon fill="#a2b4d6" stroke="#404040" points="268.5,-108 176.5,-108 176.5,-72 268.5,-72 268.5,-108"/>
<text text-anchor="middle" x="222.5" y="-87.5" font-family="Helvetica,sans-Serif" font-size="10.00">transport_service</text>
</a>
</g>
</g>
<!-- dir_34a604b38a6d606ac9cc5f6847487d5a&#45;&gt;dir_0cfa19ae1e9b75b682737a7863663f61 -->
<g id="edge3" class="edge">
<title>dir_34a604b38a6d606ac9cc5f6847487d5a&#45;&gt;dir_0cfa19ae1e9b75b682737a7863663f61</title>
<path fill="none" stroke="black" d="M208.2,-143.7C210.31,-135.9 212.86,-126.51 215.22,-117.83"/>
<polygon fill="black" stroke="black" points="218.62,-118.67 217.86,-108.1 211.86,-116.84 218.62,-118.67"/>
<g id="a_edge3&#45;headlabel"><a xlink:href="dir_000083_000094.html" target="_top" xlink:title="1">
<text text-anchor="middle" x="220.41" y="-120.38" font-family="Helvetica,sans-Serif" font-size="10.00">1</text>
</a>
</g>
</g>
<!-- dir_3a7f05f1ae2c2d2f6fc896203c15febc -->
<g id="node6" class="node">
<title>dir_3a7f05f1ae2c2d2f6fc896203c15febc</title>
<g id="a_node6"><a xlink:href="dir_3a7f05f1ae2c2d2f6fc896203c15febc.html" target="_top" xlink:title="zwave_definitions">
<polygon fill="none" stroke="red" stroke-dasharray="5,2" points="95,-36 0,-36 0,0 95,0 95,-36"/>
<text text-anchor="middle" x="47.5" y="-15.5" font-family="Helvetica,sans-Serif" font-size="10.00">zwave_definitions</text>
</a>
</g>
</g>
<!-- dir_34a604b38a6d606ac9cc5f6847487d5a&#45;&gt;dir_3a7f05f1ae2c2d2f6fc896203c15febc -->
<g id="edge4" class="edge">
<title>dir_34a604b38a6d606ac9cc5f6847487d5a&#45;&gt;dir_3a7f05f1ae2c2d2f6fc896203c15febc</title>
<path fill="none" stroke="black" d="M176.4,-157.53C146.18,-152.21 97.94,-139.15 70.5,-108 55.55,-91.03 50.1,-65.56 48.22,-46.21"/>
<polygon fill="black" stroke="black" points="51.71,-45.91 47.5,-36.19 44.72,-46.41 51.71,-45.91"/>
<g id="a_edge4&#45;headlabel"><a xlink:href="dir_000083_000119.html" target="_top" xlink:title="2">
<text text-anchor="middle" x="54.79" y="-46.8" font-family="Helvetica,sans-Serif" font-size="10.00">2</text>
</a>
</g>
</g>
<!-- dir_34a604b38a6d606ac9cc5f6847487d5a&#45;&gt;dir_3fdbfed0850fd95dbe3b2b1a1a1ffa0e -->
<g id="edge5" class="edge">
<title>dir_34a604b38a6d606ac9cc5f6847487d5a&#45;&gt;dir_3fdbfed0850fd95dbe3b2b1a1a1ffa0e</title>
<path fill="none" stroke="black" d="M230.72,-148.02C246.75,-139 266.07,-125.45 277.5,-108 289.51,-89.66 294.08,-65.05 295.75,-46.36"/>
<polygon fill="black" stroke="black" points="299.26,-46.34 296.43,-36.13 292.28,-45.88 299.26,-46.34"/>
<g id="a_edge5&#45;headlabel"><a xlink:href="dir_000083_000118.html" target="_top" xlink:title="5">
<text text-anchor="middle" x="301.86" y="-47.62" font-family="Helvetica,sans-Serif" font-size="10.00">5</text>
</a>
</g>
</g>
<!-- dir_99fcbcb75e556cb0c2dfb06eb3d295b0 -->
<g id="node8" class="node">
<title>dir_99fcbcb75e556cb0c2dfb06eb3d295b0</title>
<g id="a_node8"><a xlink:href="dir_99fcbcb75e556cb0c2dfb06eb3d295b0.html" target="_top" xlink:title="zwave_tx">
<polygon fill="none" stroke="red" stroke-dasharray="5,2" points="213,-36 154,-36 154,0 213,0 213,-36"/>
<text text-anchor="middle" x="183.5" y="-15.5" font-family="Helvetica,sans-Serif" font-size="10.00">zwave_tx</text>
</a>
</g>
</g>
<!-- dir_34a604b38a6d606ac9cc5f6847487d5a&#45;&gt;dir_99fcbcb75e556cb0c2dfb06eb3d295b0 -->
<g id="edge6" class="edge">
<title>dir_34a604b38a6d606ac9cc5f6847487d5a&#45;&gt;dir_99fcbcb75e556cb0c2dfb06eb3d295b0</title>
<path fill="none" stroke="black" d="M176.31,-157.56C147.67,-152.32 103.95,-139.39 83.5,-108 70.88,-88.64 70.29,-74.97 83.5,-56 97.11,-36.46 122.28,-27.21 143.97,-22.85"/>
<polygon fill="black" stroke="black" points="144.7,-26.28 153.95,-21.12 143.5,-19.38 144.7,-26.28"/>
<g id="a_edge6&#45;headlabel"><a xlink:href="dir_000083_000125.html" target="_top" xlink:title="1">
<text text-anchor="middle" x="141.64" y="-27.19" font-family="Helvetica,sans-Serif" font-size="10.00">1</text>
</a>
</g>
</g>
<!-- dir_a27393278c6967746e623cef03ee3c39 -->
<g id="node9" class="node">
<title>dir_a27393278c6967746e623cef03ee3c39</title>
<g id="a_node9"><a xlink:href="dir_a27393278c6967746e623cef03ee3c39.html" target="_top" xlink:title="zwave_tx_scheme_selector">
<polygon fill="none" stroke="red" stroke-dasharray="5,2" points="614.5,-108 476.5,-108 476.5,-72 614.5,-72 614.5,-108"/>
<text text-anchor="middle" x="545.5" y="-87.5" font-family="Helvetica,sans-Serif" font-size="10.00">zwave_tx_scheme_selector</text>
</a>
</g>
</g>
<!-- dir_34a604b38a6d606ac9cc5f6847487d5a&#45;&gt;dir_a27393278c6967746e623cef03ee3c39 -->
<g id="edge7" class="edge">
<title>dir_34a604b38a6d606ac9cc5f6847487d5a&#45;&gt;dir_a27393278c6967746e623cef03ee3c39</title>
<path fill="none" stroke="black" d="M230.7,-147.18C233.62,-145.99 236.59,-144.9 239.5,-144 336.25,-114.08 364.91,-126.41 464.5,-108 465.1,-107.89 465.69,-107.78 466.3,-107.67"/>
<polygon fill="black" stroke="black" points="467.01,-111.09 476.17,-105.78 465.69,-104.22 467.01,-111.09"/>
<g id="a_edge7&#45;headlabel"><a xlink:href="dir_000083_000127.html" target="_top" xlink:title="1">
<text text-anchor="middle" x="464.01" y="-112.06" font-family="Helvetica,sans-Serif" font-size="10.00">1</text>
</a>
</g>
</g>
<!-- dir_0cfa19ae1e9b75b682737a7863663f61&#45;&gt;dir_3a7f05f1ae2c2d2f6fc896203c15febc -->
<g id="edge8" class="edge">
<title>dir_0cfa19ae1e9b75b682737a7863663f61&#45;&gt;dir_3a7f05f1ae2c2d2f6fc896203c15febc</title>
<path fill="none" stroke="black" d="M193.56,-71.95C183.59,-66.45 172.24,-60.6 161.5,-56 143.42,-48.25 123.16,-41.18 104.78,-35.35"/>
<polygon fill="black" stroke="black" points="105.67,-31.96 95.08,-32.32 103.58,-38.64 105.67,-31.96"/>
<g id="a_edge8&#45;headlabel"><a xlink:href="dir_000094_000119.html" target="_top" xlink:title="1">
<text text-anchor="middle" x="109.94" y="-27.82" font-family="Helvetica,sans-Serif" font-size="10.00">1</text>
</a>
</g>
</g>
<!-- dir_0cfa19ae1e9b75b682737a7863663f61&#45;&gt;dir_3fdbfed0850fd95dbe3b2b1a1a1ffa0e -->
<g id="edge9" class="edge">
<title>dir_0cfa19ae1e9b75b682737a7863663f61&#45;&gt;dir_3fdbfed0850fd95dbe3b2b1a1a1ffa0e</title>
<path fill="none" stroke="black" d="M240.79,-71.7C249.93,-63.05 261.14,-52.45 271.1,-43.03"/>
<polygon fill="black" stroke="black" points="273.56,-45.52 278.42,-36.1 268.75,-40.43 273.56,-45.52"/>
<g id="a_edge9&#45;headlabel"><a xlink:href="dir_000094_000118.html" target="_top" xlink:title="1">
<text text-anchor="middle" x="272.9" y="-47.55" font-family="Helvetica,sans-Serif" font-size="10.00">1</text>
</a>
</g>
</g>
<!-- dir_0cfa19ae1e9b75b682737a7863663f61&#45;&gt;dir_99fcbcb75e556cb0c2dfb06eb3d295b0 -->
<g id="edge10" class="edge">
<title>dir_0cfa19ae1e9b75b682737a7863663f61&#45;&gt;dir_99fcbcb75e556cb0c2dfb06eb3d295b0</title>
<path fill="none" stroke="black" d="M212.86,-71.7C208.37,-63.64 202.94,-53.89 197.98,-44.98"/>
<polygon fill="black" stroke="black" points="200.95,-43.14 193.03,-36.1 194.84,-46.54 200.95,-43.14"/>
<g id="a_edge10&#45;headlabel"><a xlink:href="dir_000094_000125.html" target="_top" xlink:title="1">
<text text-anchor="middle" x="205.18" y="-42.39" font-family="Helvetica,sans-Serif" font-size="10.00">1</text>
</a>
</g>
</g>
</g>
</svg>
