<?xml version="1.0" encoding="UTF-8" standalone="no"?>
<!DOCTYPE svg PUBLIC "-//W3C//DTD SVG 1.1//EN"
 "http://www.w3.org/Graphics/SVG/1.1/DTD/svg11.dtd">
<!-- Generated by graphviz version 2.43.0 (0)
 -->
<!-- Title: applications/zpc/components/zwave Pages: 1 -->
<svg width="879pt" height="615pt"
 viewBox="0.00 0.00 879.00 615.00" xmlns="http://www.w3.org/2000/svg" xmlns:xlink="http://www.w3.org/1999/xlink">
<g id="graph0" class="graph" transform="scale(1 1) rotate(0) translate(4 611)">
<title>applications/zpc/components/zwave</title>
<g id="clust1" class="cluster">
<title>clusterdir_a9d74fe2658e12bc01226d530457853c</title>
<g id="a_clust1"><a xlink:href="dir_a9d74fe2658e12bc01226d530457853c.html" target="_top" xlink:title="components">
<polygon fill="#edf0f7" stroke="#7f7f7f" stroke-dasharray="5,2" points="8,-8 8,-599 730,-599 730,-8 8,-8"/>
<text text-anchor="middle" x="369" y="-587" font-family="Helvetica,sans-Serif" font-size="10.00">components</text>
</a>
</g>
</g>
<g id="clust2" class="cluster">
<title>clusterdir_c783b693d7274e9a4de597a35ccd1b8b</title>
<g id="a_clust2"><a xlink:href="dir_c783b693d7274e9a4de597a35ccd1b8b.html" target="_top">
<polygon fill="#edf0f7" stroke="#404040" stroke-width="2" points="126,-16 126,-572 500,-572 500,-16 126,-16"/>
</a>
</g>
</g>
<!-- dir_017d710f61a4ad7b8d32a487b67eadb9 -->
<g id="node1" class="node">
<title>dir_017d710f61a4ad7b8d32a487b67eadb9</title>
<g id="a_node1"><a xlink:href="dir_017d710f61a4ad7b8d32a487b67eadb9.html" target="_top" xlink:title="zpc_attribute_store">
<polygon fill="#a2b4d6" stroke="red" points="116,-276 16,-276 16,-240 116,-240 116,-276"/>
<text text-anchor="middle" x="66" y="-255.5" font-family="Helvetica,sans-Serif" font-size="10.00">zpc_attribute_store</text>
</a>
</g>
</g>
<!-- dir_5069f7b084fe544be8c98b9141a6d7eb -->
<g id="node2" class="node">
<title>dir_5069f7b084fe544be8c98b9141a6d7eb</title>
<g id="a_node2"><a xlink:href="dir_5069f7b084fe544be8c98b9141a6d7eb.html" target="_top" xlink:title="zwave_api">
<polygon fill="#a2b4d6" stroke="red" points="653.5,-60 590.5,-60 590.5,-24 653.5,-24 653.5,-60"/>
<text text-anchor="middle" x="622" y="-39.5" font-family="Helvetica,sans-Serif" font-size="10.00">zwave_api</text>
</a>
</g>
</g>
<!-- dir_6d8ef7a8e836ab784377de8c84e0a115 -->
<g id="node3" class="node">
<title>dir_6d8ef7a8e836ab784377de8c84e0a115</title>
<g id="a_node3"><a xlink:href="dir_6d8ef7a8e836ab784377de8c84e0a115.html" target="_top" xlink:title="zwave_smartstart_management">
<polygon fill="#a2b4d6" stroke="red" points="682,-348 526,-348 526,-312 682,-312 682,-348"/>
<text text-anchor="middle" x="604" y="-327.5" font-family="Helvetica,sans-Serif" font-size="10.00">zwave_smartstart_management</text>
</a>
</g>
</g>
<!-- dir_8589c6044240c4706ed85574715a24d5 -->
<g id="node4" class="node">
<title>dir_8589c6044240c4706ed85574715a24d5</title>
<g id="a_node4"><a xlink:href="dir_8589c6044240c4706ed85574715a24d5.html" target="_top" xlink:title="zpc_config">
<polygon fill="#a2b4d6" stroke="red" points="572,-60 508,-60 508,-24 572,-24 572,-60"/>
<text text-anchor="middle" x="540" y="-39.5" font-family="Helvetica,sans-Serif" font-size="10.00">zpc_config</text>
</a>
</g>
</g>
<!-- dir_ec7d7fcaf198621f6dc9f48ecf5d8fa9 -->
<g id="node5" class="node">
<title>dir_ec7d7fcaf198621f6dc9f48ecf5d8fa9</title>
<g id="a_node5"><a xlink:href="dir_ec7d7fcaf198621f6dc9f48ecf5d8fa9.html" target="_top" xlink:title="zpc_utils">
<polygon fill="#a2b4d6" stroke="red" points="564,-420 508,-420 508,-384 564,-384 564,-420"/>
<text text-anchor="middle" x="536" y="-399.5" font-family="Helvetica,sans-Serif" font-size="10.00">zpc_utils</text>
</a>
</g>
</g>
<!-- dir_fc09578cd440002feefbaf84c6220fc7 -->
<g id="node6" class="node">
<title>dir_fc09578cd440002feefbaf84c6220fc7</title>
<g id="a_node6"><a xlink:href="dir_fc09578cd440002feefbaf84c6220fc7.html" target="_top" xlink:title="zwave_command_classes">
<polygon fill="#a2b4d6" stroke="red" points="662,-276 530,-276 530,-240 662,-240 662,-276"/>
<text text-anchor="middle" x="596" y="-255.5" font-family="Helvetica,sans-Serif" font-size="10.00">zwave_command_classes</text>
</a>
</g>
</g>
<!-- dir_c783b693d7274e9a4de597a35ccd1b8b -->
<g id="node7" class="node">
<title>dir_c783b693d7274e9a4de597a35ccd1b8b</title>
<text text-anchor="middle" x="426" y="-543.5" font-family="Helvetica,sans-Serif" font-size="10.00">zwave</text>
</g>
<!-- dir_3fa5244362f007e8bde329718bf5b05b -->
<g id="node8" class="node">
<title>dir_3fa5244362f007e8bde329718bf5b05b</title>
<g id="a_node8"><a xlink:href="dir_3fa5244362f007e8bde329718bf5b05b.html" target="_top" xlink:title="zwave_controller">
<polygon fill="#a2b4d6" stroke="#404040" points="398,-492 308,-492 308,-456 398,-456 398,-492"/>
<text text-anchor="middle" x="353" y="-471.5" font-family="Helvetica,sans-Serif" font-size="10.00">zwave_controller</text>
</a>
</g>
</g>
<!-- dir_3fa5244362f007e8bde329718bf5b05b&#45;&gt;dir_5069f7b084fe544be8c98b9141a6d7eb -->
<g id="edge2" class="edge">
<title>dir_3fa5244362f007e8bde329718bf5b05b&#45;&gt;dir_5069f7b084fe544be8c98b9141a6d7eb</title>
<path fill="none" stroke="black" d="M398.09,-468.8C469.57,-461.5 604.98,-444.83 646,-420 680.68,-399.01 687.78,-385.97 702,-348 739.65,-247.44 672.64,-121.92 639.25,-68.73"/>
<polygon fill="black" stroke="black" points="642.15,-66.78 633.82,-60.24 636.26,-70.55 642.15,-66.78"/>
<g id="a_edge2&#45;headlabel"><a xlink:href="dir_000120_000116.html" target="_top" xlink:title="5">
<text text-anchor="middle" x="646.48" y="-65.77" font-family="Helvetica,sans-Serif" font-size="10.00">5</text>
</a>
</g>
</g>
<!-- dir_3fa5244362f007e8bde329718bf5b05b&#45;&gt;dir_8589c6044240c4706ed85574715a24d5 -->
<g id="edge4" class="edge">
<title>dir_3fa5244362f007e8bde329718bf5b05b&#45;&gt;dir_8589c6044240c4706ed85574715a24d5</title>
<path fill="none" stroke="black" d="M398.13,-473C476.06,-470.16 633.05,-451.25 691,-348 748.31,-245.89 626.4,-119.09 568.4,-67.02"/>
<polygon fill="black" stroke="black" points="570.48,-64.19 560.67,-60.18 565.84,-69.43 570.48,-64.19"/>
<g id="a_edge4&#45;headlabel"><a xlink:href="dir_000120_000108.html" target="_top" xlink:title="1">
<text text-anchor="middle" x="575.05" y="-61.94" font-family="Helvetica,sans-Serif" font-size="10.00">1</text>
</a>
</g>
</g>
<!-- dir_3fa5244362f007e8bde329718bf5b05b&#45;&gt;dir_ec7d7fcaf198621f6dc9f48ecf5d8fa9 -->
<g id="edge10" class="edge">
<title>dir_3fa5244362f007e8bde329718bf5b05b&#45;&gt;dir_ec7d7fcaf198621f6dc9f48ecf5d8fa9</title>
<path fill="none" stroke="black" d="M398.28,-459.08C426.15,-450.08 462.67,-437.5 498.32,-422.37"/>
<polygon fill="black" stroke="black" points="500.05,-425.43 507.85,-418.25 497.28,-419 500.05,-425.43"/>
<g id="a_edge10&#45;headlabel"><a xlink:href="dir_000120_000114.html" target="_top" xlink:title="3">
<text text-anchor="middle" x="497.88" y="-426.96" font-family="Helvetica,sans-Serif" font-size="10.00">3</text>
</a>
</g>
</g>
<!-- dir_c12de1a8336cf24f106a4dc7aae08da4 -->
<g id="node9" class="node">
<title>dir_c12de1a8336cf24f106a4dc7aae08da4</title>
<g id="a_node9"><a xlink:href="dir_c12de1a8336cf24f106a4dc7aae08da4.html" target="_top" xlink:title="zwave_definitions">
<polygon fill="#a2b4d6" stroke="#404040" points="312.5,-60 217.5,-60 217.5,-24 312.5,-24 312.5,-60"/>
<text text-anchor="middle" x="265" y="-39.5" font-family="Helvetica,sans-Serif" font-size="10.00">zwave_definitions</text>
</a>
</g>
</g>
<!-- dir_3fa5244362f007e8bde329718bf5b05b&#45;&gt;dir_c12de1a8336cf24f106a4dc7aae08da4 -->
<g id="edge7" class="edge">
<title>dir_3fa5244362f007e8bde329718bf5b05b&#45;&gt;dir_c12de1a8336cf24f106a4dc7aae08da4</title>
<path fill="none" stroke="black" d="M307.66,-469.84C270.15,-464.88 217.86,-452.23 185,-420 155.2,-390.77 155,-372.74 155,-331 155,-331 155,-331 155,-185 155,-134.76 198.56,-91.52 230.86,-66.36"/>
<polygon fill="black" stroke="black" points="233.34,-68.88 239.21,-60.06 229.12,-63.29 233.34,-68.88"/>
<g id="a_edge7&#45;headlabel"><a xlink:href="dir_000120_000121.html" target="_top" xlink:title="18">
<text text-anchor="middle" x="232.18" y="-70.81" font-family="Helvetica,sans-Serif" font-size="10.00">18</text>
</a>
</g>
</g>
<!-- dir_6bf5ab666b78078c9885531001583184 -->
<g id="node10" class="node">
<title>dir_6bf5ab666b78078c9885531001583184</title>
<g id="a_node10"><a xlink:href="dir_6bf5ab666b78078c9885531001583184.html" target="_top" xlink:title="zwave_network_management">
<polygon fill="#a2b4d6" stroke="#404040" points="380,-420 234,-420 234,-384 380,-384 380,-420"/>
<text text-anchor="middle" x="307" y="-399.5" font-family="Helvetica,sans-Serif" font-size="10.00">zwave_network_management</text>
</a>
</g>
</g>
<!-- dir_3fa5244362f007e8bde329718bf5b05b&#45;&gt;dir_6bf5ab666b78078c9885531001583184 -->
<g id="edge3" class="edge">
<title>dir_3fa5244362f007e8bde329718bf5b05b&#45;&gt;dir_6bf5ab666b78078c9885531001583184</title>
<path fill="none" stroke="black" d="M335.71,-455.7C329.59,-447.64 322.97,-437.89 317.53,-428.98"/>
<polygon fill="black" stroke="black" points="320.41,-426.98 312.34,-420.1 314.36,-430.51 320.41,-426.98"/>
<g id="a_edge3&#45;headlabel"><a xlink:href="dir_000120_000122.html" target="_top" xlink:title="3">
<text text-anchor="middle" x="324.67" y="-426.15" font-family="Helvetica,sans-Serif" font-size="10.00">3</text>
</a>
</g>
</g>
<!-- dir_d70407e153feddef216c6988ce7d9828 -->
<g id="node11" class="node">
<title>dir_d70407e153feddef216c6988ce7d9828</title>
<g id="a_node11"><a xlink:href="dir_d70407e153feddef216c6988ce7d9828.html" target="_top" xlink:title="zwave_rx">
<polygon fill="#a2b4d6" stroke="#404040" points="353.5,-132 294.5,-132 294.5,-96 353.5,-96 353.5,-132"/>
<text text-anchor="middle" x="324" y="-111.5" font-family="Helvetica,sans-Serif" font-size="10.00">zwave_rx</text>
</a>
</g>
</g>
<!-- dir_3fa5244362f007e8bde329718bf5b05b&#45;&gt;dir_d70407e153feddef216c6988ce7d9828 -->
<g id="edge8" class="edge">
<title>dir_3fa5244362f007e8bde329718bf5b05b&#45;&gt;dir_d70407e153feddef216c6988ce7d9828</title>
<path fill="none" stroke="black" d="M307.91,-470.74C271.56,-466.45 222.96,-454.27 199,-420 133.85,-326.82 177.27,-260.77 243,-168 253.73,-152.86 270.13,-140.3 285.5,-131.22"/>
<polygon fill="black" stroke="black" points="287.33,-134.2 294.37,-126.28 283.93,-128.08 287.33,-134.2"/>
<g id="a_edge8&#45;headlabel"><a xlink:href="dir_000120_000123.html" target="_top" xlink:title="1">
<text text-anchor="middle" x="285.58" y="-135.93" font-family="Helvetica,sans-Serif" font-size="10.00">1</text>
</a>
</g>
</g>
<!-- dir_b6d4be4b090f7ca389d4d7467bf58f00 -->
<g id="node13" class="node">
<title>dir_b6d4be4b090f7ca389d4d7467bf58f00</title>
<g id="a_node13"><a xlink:href="dir_b6d4be4b090f7ca389d4d7467bf58f00.html" target="_top" xlink:title="zwave_transports">
<polygon fill="#a2b4d6" stroke="#404040" points="408,-348 314,-348 314,-312 408,-312 408,-348"/>
<text text-anchor="middle" x="361" y="-327.5" font-family="Helvetica,sans-Serif" font-size="10.00">zwave_transports</text>
</a>
</g>
</g>
<!-- dir_3fa5244362f007e8bde329718bf5b05b&#45;&gt;dir_b6d4be4b090f7ca389d4d7467bf58f00 -->
<g id="edge6" class="edge">
<title>dir_3fa5244362f007e8bde329718bf5b05b&#45;&gt;dir_b6d4be4b090f7ca389d4d7467bf58f00</title>
<path fill="none" stroke="black" d="M360.63,-455.77C367.37,-446.03 375.95,-433.18 380,-420 384.7,-404.71 383.85,-399.53 380,-384 377.73,-374.85 373.56,-365.54 369.52,-357.33"/>
<polygon fill="black" stroke="black" points="372.59,-355.63 364.96,-348.28 366.33,-358.78 372.59,-355.63"/>
<g id="a_edge6&#45;headlabel"><a xlink:href="dir_000120_000126.html" target="_top" xlink:title="1">
<text text-anchor="middle" x="376.74" y="-355.06" font-family="Helvetica,sans-Serif" font-size="10.00">1</text>
</a>
</g>
</g>
<!-- dir_aaeea3ab9bade49a9826938239097a89 -->
<g id="node14" class="node">
<title>dir_aaeea3ab9bade49a9826938239097a89</title>
<g id="a_node14"><a xlink:href="dir_aaeea3ab9bade49a9826938239097a89.html" target="_top" xlink:title="zwave_tx">
<polygon fill="#a2b4d6" stroke="#404040" points="333.5,-204 274.5,-204 274.5,-168 333.5,-168 333.5,-204"/>
<text text-anchor="middle" x="304" y="-183.5" font-family="Helvetica,sans-Serif" font-size="10.00">zwave_tx</text>
</a>
</g>
</g>
<!-- dir_3fa5244362f007e8bde329718bf5b05b&#45;&gt;dir_aaeea3ab9bade49a9826938239097a89 -->
<g id="edge5" class="edge">
<title>dir_3fa5244362f007e8bde329718bf5b05b&#45;&gt;dir_aaeea3ab9bade49a9826938239097a89</title>
<path fill="none" stroke="black" d="M307.82,-468.58C276.01,-462.86 235.91,-449.8 216,-420 170.78,-352.33 236.65,-256.3 277,-211.63"/>
<polygon fill="black" stroke="black" points="279.71,-213.86 283.96,-204.15 274.58,-209.08 279.71,-213.86"/>
<g id="a_edge5&#45;headlabel"><a xlink:href="dir_000120_000127.html" target="_top" xlink:title="5">
<text text-anchor="middle" x="279.33" y="-215.92" font-family="Helvetica,sans-Serif" font-size="10.00">5</text>
</a>
</g>
</g>
<!-- dir_e3c92bd8d5b3c8665918aa687114f533 -->
<g id="node16" class="node">
<title>dir_e3c92bd8d5b3c8665918aa687114f533</title>
<g id="a_node16"><a xlink:href="dir_e3c92bd8d5b3c8665918aa687114f533.html" target="_top" xlink:title="zwave_tx_scheme_selector">
<polygon fill="#a2b4d6" stroke="#404040" points="472,-276 334,-276 334,-240 472,-240 472,-276"/>
<text text-anchor="middle" x="403" y="-255.5" font-family="Helvetica,sans-Serif" font-size="10.00">zwave_tx_scheme_selector</text>
</a>
</g>
</g>
<!-- dir_3fa5244362f007e8bde329718bf5b05b&#45;&gt;dir_e3c92bd8d5b3c8665918aa687114f533 -->
<g id="edge9" class="edge">
<title>dir_3fa5244362f007e8bde329718bf5b05b&#45;&gt;dir_e3c92bd8d5b3c8665918aa687114f533</title>
<path fill="none" stroke="black" d="M362.09,-455.64C369.88,-445.86 380.18,-433.01 387,-420 402.47,-390.48 403.29,-381 408,-348 410.26,-332.16 410.06,-327.87 408,-312 406.9,-303.51 404.84,-294.43 403.03,-286.24"/>
<polygon fill="black" stroke="black" points="406.45,-285.5 400.95,-276.44 399.6,-286.95 406.45,-285.5"/>
<g id="a_edge9&#45;headlabel"><a xlink:href="dir_000120_000129.html" target="_top" xlink:title="2">
<text text-anchor="middle" x="409.97" y="-285.92" font-family="Helvetica,sans-Serif" font-size="10.00">2</text>
</a>
</g>
</g>
<!-- dir_19225156eb7ba052e31d1a736469917a -->
<g id="node17" class="node">
<title>dir_19225156eb7ba052e31d1a736469917a</title>
<g id="a_node17"><a xlink:href="dir_19225156eb7ba052e31d1a736469917a.html" target="_top" xlink:title="mnt">
<polygon fill="none" stroke="red" points="792,-60 738,-60 738,-24 792,-24 792,-60"/>
<text text-anchor="middle" x="765" y="-39.5" font-family="Helvetica,sans-Serif" font-size="10.00">mnt</text>
</a>
</g>
</g>
<!-- dir_3fa5244362f007e8bde329718bf5b05b&#45;&gt;dir_19225156eb7ba052e31d1a736469917a -->
<g id="edge1" class="edge">
<title>dir_3fa5244362f007e8bde329718bf5b05b&#45;&gt;dir_19225156eb7ba052e31d1a736469917a</title>
<path fill="none" stroke="black" d="M398.2,-470.03C485.77,-463.75 675.11,-447.38 734,-420 787.65,-395.05 833,-390.17 833,-331 833,-331 833,-331 833,-185 833,-140.6 805.63,-95.38 785.62,-68.25"/>
<polygon fill="black" stroke="black" points="788.26,-65.95 779.42,-60.11 782.69,-70.18 788.26,-65.95"/>
<g id="a_edge1&#45;headlabel"><a xlink:href="dir_000120_000048.html" target="_top" xlink:title="1">
<text text-anchor="middle" x="792.7" y="-64.59" font-family="Helvetica,sans-Serif" font-size="10.00">1</text>
</a>
</g>
</g>
<!-- dir_6bf5ab666b78078c9885531001583184&#45;&gt;dir_5069f7b084fe544be8c98b9141a6d7eb -->
<g id="edge13" class="edge">
<title>dir_6bf5ab666b78078c9885531001583184&#45;&gt;dir_5069f7b084fe544be8c98b9141a6d7eb</title>
<path fill="none" stroke="black" d="M341.96,-383.99C383.08,-364.51 453.75,-332.63 517,-312 583.83,-290.21 627.32,-331.07 671,-276 680.94,-263.46 672.95,-255.88 671,-240 666.96,-207.06 642.35,-115.97 629.62,-70.11"/>
<polygon fill="black" stroke="black" points="632.93,-68.96 626.87,-60.27 626.19,-70.84 632.93,-68.96"/>
<g id="a_edge13&#45;headlabel"><a xlink:href="dir_000122_000116.html" target="_top" xlink:title="9">
<text text-anchor="middle" x="636.63" y="-69.16" font-family="Helvetica,sans-Serif" font-size="10.00">9</text>
</a>
</g>
</g>
<!-- dir_6bf5ab666b78078c9885531001583184&#45;&gt;dir_6d8ef7a8e836ab784377de8c84e0a115 -->
<g id="edge14" class="edge">
<title>dir_6bf5ab666b78078c9885531001583184&#45;&gt;dir_6d8ef7a8e836ab784377de8c84e0a115</title>
<path fill="none" stroke="black" d="M379.27,-383.97C422.3,-373.83 477.03,-360.93 521.7,-350.4"/>
<polygon fill="black" stroke="black" points="522.73,-353.75 531.66,-348.05 521.12,-346.94 522.73,-353.75"/>
<g id="a_edge14&#45;headlabel"><a xlink:href="dir_000122_000125.html" target="_top" xlink:title="1">
<text text-anchor="middle" x="519.88" y="-354.84" font-family="Helvetica,sans-Serif" font-size="10.00">1</text>
</a>
</g>
</g>
<!-- dir_6bf5ab666b78078c9885531001583184&#45;&gt;dir_3fa5244362f007e8bde329718bf5b05b -->
<g id="edge12" class="edge">
<title>dir_6bf5ab666b78078c9885531001583184&#45;&gt;dir_3fa5244362f007e8bde329718bf5b05b</title>
<path fill="none" stroke="black" d="M324.14,-420.1C330.25,-428.13 336.87,-437.87 342.34,-446.8"/>
<polygon fill="black" stroke="black" points="339.47,-448.83 347.54,-455.7 345.52,-445.3 339.47,-448.83"/>
<g id="a_edge12&#45;headlabel"><a xlink:href="dir_000122_000120.html" target="_top" xlink:title="8">
<text text-anchor="middle" x="335.21" y="-444.66" font-family="Helvetica,sans-Serif" font-size="10.00">8</text>
</a>
</g>
</g>
<!-- dir_6bf5ab666b78078c9885531001583184&#45;&gt;dir_c12de1a8336cf24f106a4dc7aae08da4 -->
<g id="edge17" class="edge">
<title>dir_6bf5ab666b78078c9885531001583184&#45;&gt;dir_c12de1a8336cf24f106a4dc7aae08da4</title>
<path fill="none" stroke="black" d="M289.45,-383.88C280.5,-374.16 270.22,-361.31 264,-348 220.12,-254.02 243.97,-125.3 257.6,-70.02"/>
<polygon fill="black" stroke="black" points="261,-70.83 260.09,-60.27 254.22,-69.1 261,-70.83"/>
<g id="a_edge17&#45;headlabel"><a xlink:href="dir_000122_000121.html" target="_top" xlink:title="14">
<text text-anchor="middle" x="262.87" y="-72.51" font-family="Helvetica,sans-Serif" font-size="10.00">14</text>
</a>
</g>
</g>
<!-- dir_6bf5ab666b78078c9885531001583184&#45;&gt;dir_d70407e153feddef216c6988ce7d9828 -->
<g id="edge18" class="edge">
<title>dir_6bf5ab666b78078c9885531001583184&#45;&gt;dir_d70407e153feddef216c6988ce7d9828</title>
<path fill="none" stroke="black" d="M297.36,-383.81C276.43,-344.06 231.35,-243.46 265,-168 270.08,-156.6 278.96,-146.63 288.31,-138.51"/>
<polygon fill="black" stroke="black" points="290.63,-141.14 296.2,-132.13 286.22,-135.69 290.63,-141.14"/>
<g id="a_edge18&#45;headlabel"><a xlink:href="dir_000122_000123.html" target="_top" xlink:title="2">
<text text-anchor="middle" x="289.62" y="-143.11" font-family="Helvetica,sans-Serif" font-size="10.00">2</text>
</a>
</g>
</g>
<!-- dir_6bf5ab666b78078c9885531001583184&#45;&gt;dir_b6d4be4b090f7ca389d4d7467bf58f00 -->
<g id="edge16" class="edge">
<title>dir_6bf5ab666b78078c9885531001583184&#45;&gt;dir_b6d4be4b090f7ca389d4d7467bf58f00</title>
<path fill="none" stroke="black" d="M314.43,-383.7C320.04,-375.3 327.74,-365.07 335.33,-355.86"/>
<polygon fill="black" stroke="black" points="338.11,-357.99 341.91,-348.1 332.77,-353.47 338.11,-357.99"/>
<g id="a_edge16&#45;headlabel"><a xlink:href="dir_000122_000126.html" target="_top" xlink:title="4">
<text text-anchor="middle" x="337.95" y="-360.07" font-family="Helvetica,sans-Serif" font-size="10.00">4</text>
</a>
</g>
</g>
<!-- dir_6bf5ab666b78078c9885531001583184&#45;&gt;dir_aaeea3ab9bade49a9826938239097a89 -->
<g id="edge15" class="edge">
<title>dir_6bf5ab666b78078c9885531001583184&#45;&gt;dir_aaeea3ab9bade49a9826938239097a89</title>
<path fill="none" stroke="black" d="M293.3,-383.56C289.07,-373.33 285.57,-360.08 284,-348 277.94,-301.32 284.57,-246.57 292.39,-214.44"/>
<polygon fill="black" stroke="black" points="295.86,-215.03 295.07,-204.46 289.1,-213.21 295.86,-215.03"/>
<g id="a_edge15&#45;headlabel"><a xlink:href="dir_000122_000127.html" target="_top" xlink:title="1">
<text text-anchor="middle" x="297.67" y="-216.73" font-family="Helvetica,sans-Serif" font-size="10.00">1</text>
</a>
</g>
</g>
<!-- dir_6bf5ab666b78078c9885531001583184&#45;&gt;dir_19225156eb7ba052e31d1a736469917a -->
<g id="edge11" class="edge">
<title>dir_6bf5ab666b78078c9885531001583184&#45;&gt;dir_19225156eb7ba052e31d1a736469917a</title>
<path fill="none" stroke="black" d="M380.32,-384.61C381.56,-384.4 382.78,-384.2 384,-384 461.19,-371.55 666.79,-387.95 734,-348 775.22,-323.5 795,-306.95 795,-259 795,-259 795,-259 795,-185 795,-144.16 782.97,-98.11 774.15,-69.82"/>
<polygon fill="black" stroke="black" points="777.46,-68.69 771.07,-60.24 770.8,-70.83 777.46,-68.69"/>
<g id="a_edge11&#45;headlabel"><a xlink:href="dir_000122_000048.html" target="_top" xlink:title="5">
<text text-anchor="middle" x="781.27" y="-68.74" font-family="Helvetica,sans-Serif" font-size="10.00">5</text>
</a>
</g>
</g>
<!-- dir_d70407e153feddef216c6988ce7d9828&#45;&gt;dir_5069f7b084fe544be8c98b9141a6d7eb -->
<g id="edge21" class="edge">
<title>dir_d70407e153feddef216c6988ce7d9828&#45;&gt;dir_5069f7b084fe544be8c98b9141a6d7eb</title>
<path fill="none" stroke="black" d="M353.68,-97.18C354.79,-96.76 355.9,-96.36 357,-96 449.8,-65.5 481.98,-86.11 580.71,-59.64"/>
<polygon fill="black" stroke="black" points="581.78,-62.98 590.48,-56.93 579.9,-56.23 581.78,-62.98"/>
<g id="a_edge21&#45;headlabel"><a xlink:href="dir_000123_000116.html" target="_top" xlink:title="6">
<text text-anchor="middle" x="579.07" y="-64.17" font-family="Helvetica,sans-Serif" font-size="10.00">6</text>
</a>
</g>
</g>
<!-- dir_d70407e153feddef216c6988ce7d9828&#45;&gt;dir_8589c6044240c4706ed85574715a24d5 -->
<g id="edge22" class="edge">
<title>dir_d70407e153feddef216c6988ce7d9828&#45;&gt;dir_8589c6044240c4706ed85574715a24d5</title>
<path fill="none" stroke="black" d="M353.72,-97.29C354.82,-96.84 355.91,-96.41 357,-96 416.92,-73.59 438.49,-81.57 498.41,-61.8"/>
<polygon fill="black" stroke="black" points="499.62,-65.08 507.95,-58.53 497.35,-58.46 499.62,-65.08"/>
<g id="a_edge22&#45;headlabel"><a xlink:href="dir_000123_000108.html" target="_top" xlink:title="2">
<text text-anchor="middle" x="497.14" y="-66.43" font-family="Helvetica,sans-Serif" font-size="10.00">2</text>
</a>
</g>
</g>
<!-- dir_d70407e153feddef216c6988ce7d9828&#45;&gt;dir_3fa5244362f007e8bde329718bf5b05b -->
<g id="edge20" class="edge">
<title>dir_d70407e153feddef216c6988ce7d9828&#45;&gt;dir_3fa5244362f007e8bde329718bf5b05b</title>
<path fill="none" stroke="black" d="M300.45,-132.03C287.17,-141.05 271.41,-153.31 261,-168 195.27,-260.77 151.85,-326.82 217,-420 235.48,-446.43 268.62,-459.72 297.62,-466.39"/>
<polygon fill="black" stroke="black" points="297.17,-469.87 307.67,-468.48 298.59,-463.02 297.17,-469.87"/>
<g id="a_edge20&#45;headlabel"><a xlink:href="dir_000123_000120.html" target="_top" xlink:title="2">
<text text-anchor="middle" x="293.07" y="-469.42" font-family="Helvetica,sans-Serif" font-size="10.00">2</text>
</a>
</g>
</g>
<!-- dir_d70407e153feddef216c6988ce7d9828&#45;&gt;dir_c12de1a8336cf24f106a4dc7aae08da4 -->
<g id="edge23" class="edge">
<title>dir_d70407e153feddef216c6988ce7d9828&#45;&gt;dir_c12de1a8336cf24f106a4dc7aae08da4</title>
<path fill="none" stroke="black" d="M309.42,-95.7C302.34,-87.3 293.72,-77.07 285.95,-67.86"/>
<polygon fill="black" stroke="black" points="288.54,-65.49 279.42,-60.1 283.19,-70.01 288.54,-65.49"/>
<g id="a_edge23&#45;headlabel"><a xlink:href="dir_000123_000121.html" target="_top" xlink:title="3">
<text text-anchor="middle" x="293.03" y="-63.91" font-family="Helvetica,sans-Serif" font-size="10.00">3</text>
</a>
</g>
</g>
<!-- dir_d70407e153feddef216c6988ce7d9828&#45;&gt;dir_19225156eb7ba052e31d1a736469917a -->
<g id="edge19" class="edge">
<title>dir_d70407e153feddef216c6988ce7d9828&#45;&gt;dir_19225156eb7ba052e31d1a736469917a</title>
<path fill="none" stroke="black" d="M353.65,-112.9C420.77,-111.91 589.05,-105.03 728.31,-61.64"/>
<polygon fill="black" stroke="black" points="729.4,-64.97 737.87,-58.6 727.27,-58.3 729.4,-64.97"/>
<g id="a_edge19&#45;headlabel"><a xlink:href="dir_000123_000048.html" target="_top" xlink:title="5">
<text text-anchor="middle" x="726.84" y="-66.27" font-family="Helvetica,sans-Serif" font-size="10.00">5</text>
</a>
</g>
</g>
<!-- dir_6f10042381e51e33437525df17aaed36 -->
<g id="node12" class="node">
<title>dir_6f10042381e51e33437525df17aaed36</title>
<g id="a_node12"><a xlink:href="dir_6f10042381e51e33437525df17aaed36.html" target="_top" xlink:title="zwave_security_validation">
<polygon fill="#a2b4d6" stroke="#404040" points="342.5,-564 211.5,-564 211.5,-528 342.5,-528 342.5,-564"/>
<text text-anchor="middle" x="277" y="-543.5" font-family="Helvetica,sans-Serif" font-size="10.00">zwave_security_validation</text>
</a>
</g>
</g>
<!-- dir_6f10042381e51e33437525df17aaed36&#45;&gt;dir_3fa5244362f007e8bde329718bf5b05b -->
<g id="edge25" class="edge">
<title>dir_6f10042381e51e33437525df17aaed36&#45;&gt;dir_3fa5244362f007e8bde329718bf5b05b</title>
<path fill="none" stroke="black" d="M295.79,-527.7C305.17,-519.05 316.68,-508.45 326.91,-499.03"/>
<polygon fill="black" stroke="black" points="329.45,-501.45 334.43,-492.1 324.7,-496.3 329.45,-501.45"/>
<g id="a_edge25&#45;headlabel"><a xlink:href="dir_000124_000120.html" target="_top" xlink:title="3">
<text text-anchor="middle" x="328.72" y="-503.48" font-family="Helvetica,sans-Serif" font-size="10.00">3</text>
</a>
</g>
</g>
<!-- dir_6f10042381e51e33437525df17aaed36&#45;&gt;dir_c12de1a8336cf24f106a4dc7aae08da4 -->
<g id="edge26" class="edge">
<title>dir_6f10042381e51e33437525df17aaed36&#45;&gt;dir_c12de1a8336cf24f106a4dc7aae08da4</title>
<path fill="none" stroke="black" d="M240.06,-527.95C197.99,-505.69 135,-462.44 135,-403 135,-403 135,-403 135,-185 135,-142.97 139.6,-127.87 167,-96 178.17,-83 193.35,-72.65 208.43,-64.68"/>
<polygon fill="black" stroke="black" points="210.38,-67.61 217.76,-60.01 207.25,-61.35 210.38,-67.61"/>
<g id="a_edge26&#45;headlabel"><a xlink:href="dir_000124_000121.html" target="_top" xlink:title="1">
<text text-anchor="middle" x="208.43" y="-69.26" font-family="Helvetica,sans-Serif" font-size="10.00">1</text>
</a>
</g>
</g>
<!-- dir_6f10042381e51e33437525df17aaed36&#45;&gt;dir_e3c92bd8d5b3c8665918aa687114f533 -->
<g id="edge27" class="edge">
<title>dir_6f10042381e51e33437525df17aaed36&#45;&gt;dir_e3c92bd8d5b3c8665918aa687114f533</title>
<path fill="none" stroke="black" d="M263.62,-527.82C242.21,-498.09 204.6,-435.31 225,-384 245.34,-332.84 300.25,-299.41 343.75,-280.11"/>
<polygon fill="black" stroke="black" points="345.32,-283.24 353.13,-276.08 342.56,-276.81 345.32,-283.24"/>
<g id="a_edge27&#45;headlabel"><a xlink:href="dir_000124_000129.html" target="_top" xlink:title="1">
<text text-anchor="middle" x="343.13" y="-284.77" font-family="Helvetica,sans-Serif" font-size="10.00">1</text>
</a>
</g>
</g>
<!-- dir_6f10042381e51e33437525df17aaed36&#45;&gt;dir_19225156eb7ba052e31d1a736469917a -->
<g id="edge24" class="edge">
<title>dir_6f10042381e51e33437525df17aaed36&#45;&gt;dir_19225156eb7ba052e31d1a736469917a</title>
<path fill="none" stroke="black" d="M342.55,-532.77C497.03,-503.52 871,-429.92 871,-403 871,-403 871,-403 871,-185 871,-135.3 828.78,-91.77 797.63,-66.42"/>
<polygon fill="black" stroke="black" points="799.6,-63.52 789.58,-60.07 795.27,-69.01 799.6,-63.52"/>
<g id="a_edge24&#45;headlabel"><a xlink:href="dir_000124_000048.html" target="_top" xlink:title="1">
<text text-anchor="middle" x="804.18" y="-61.02" font-family="Helvetica,sans-Serif" font-size="10.00">1</text>
</a>
</g>
</g>
<!-- dir_b6d4be4b090f7ca389d4d7467bf58f00&#45;&gt;dir_017d710f61a4ad7b8d32a487b67eadb9 -->
<g id="edge28" class="edge">
<title>dir_b6d4be4b090f7ca389d4d7467bf58f00&#45;&gt;dir_017d710f61a4ad7b8d32a487b67eadb9</title>
<path fill="none" stroke="black" d="M313.58,-319.6C267.35,-310.19 194.86,-294.77 125.74,-276.92"/>
<polygon fill="black" stroke="black" points="126.58,-273.52 116.02,-274.39 124.81,-280.3 126.58,-273.52"/>
<g id="a_edge28&#45;headlabel"><a xlink:href="dir_000126_000107.html" target="_top" xlink:title="2">
<text text-anchor="middle" x="130.77" y="-269.18" font-family="Helvetica,sans-Serif" font-size="10.00">2</text>
</a>
</g>
</g>
<!-- dir_b6d4be4b090f7ca389d4d7467bf58f00&#45;&gt;dir_5069f7b084fe544be8c98b9141a6d7eb -->
<g id="edge31" class="edge">
<title>dir_b6d4be4b090f7ca389d4d7467bf58f00&#45;&gt;dir_5069f7b084fe544be8c98b9141a6d7eb</title>
<path fill="none" stroke="black" d="M408.08,-312.88C439.02,-301.65 476.09,-286.81 489,-276 518.11,-251.61 562.79,-165.32 581,-132 592.22,-111.47 603.22,-87.31 610.99,-69.35"/>
<polygon fill="black" stroke="black" points="614.25,-70.64 614.96,-60.07 607.81,-67.89 614.25,-70.64"/>
<g id="a_edge31&#45;headlabel"><a xlink:href="dir_000126_000116.html" target="_top" xlink:title="8">
<text text-anchor="middle" x="615.44" y="-72.56" font-family="Helvetica,sans-Serif" font-size="10.00">8</text>
</a>
</g>
</g>
<!-- dir_b6d4be4b090f7ca389d4d7467bf58f00&#45;&gt;dir_fc09578cd440002feefbaf84c6220fc7 -->
<g id="edge38" class="edge">
<title>dir_b6d4be4b090f7ca389d4d7467bf58f00&#45;&gt;dir_fc09578cd440002feefbaf84c6220fc7</title>
<path fill="none" stroke="black" d="M408.21,-313.19C409.49,-312.78 410.75,-312.39 412,-312 448.99,-300.51 490.41,-288.51 524.58,-278.83"/>
<polygon fill="black" stroke="black" points="525.81,-282.12 534.48,-276.04 523.9,-275.39 525.81,-282.12"/>
<g id="a_edge38&#45;headlabel"><a xlink:href="dir_000126_000118.html" target="_top" xlink:title="1">
<text text-anchor="middle" x="523.12" y="-283.33" font-family="Helvetica,sans-Serif" font-size="10.00">1</text>
</a>
</g>
</g>
<!-- dir_b6d4be4b090f7ca389d4d7467bf58f00&#45;&gt;dir_3fa5244362f007e8bde329718bf5b05b -->
<g id="edge30" class="edge">
<title>dir_b6d4be4b090f7ca389d4d7467bf58f00&#45;&gt;dir_3fa5244362f007e8bde329718bf5b05b</title>
<path fill="none" stroke="black" d="M380.81,-348.28C388.01,-358.24 394.84,-371.27 398,-384 401.85,-399.53 402.7,-404.71 398,-420 394.96,-429.89 389.38,-439.59 383.07,-447.93"/>
<polygon fill="black" stroke="black" points="380.26,-445.84 376.59,-455.77 385.65,-450.29 380.26,-445.84"/>
<g id="a_edge30&#45;headlabel"><a xlink:href="dir_000126_000120.html" target="_top" xlink:title="31">
<text text-anchor="middle" x="380.36" y="-438.76" font-family="Helvetica,sans-Serif" font-size="10.00">31</text>
</a>
</g>
</g>
<!-- dir_b6d4be4b090f7ca389d4d7467bf58f00&#45;&gt;dir_c12de1a8336cf24f106a4dc7aae08da4 -->
<g id="edge34" class="edge">
<title>dir_b6d4be4b090f7ca389d4d7467bf58f00&#45;&gt;dir_c12de1a8336cf24f106a4dc7aae08da4</title>
<path fill="none" stroke="black" d="M335.66,-311.81C323.12,-302.36 308.47,-289.76 298,-276 276.68,-247.99 272.51,-238.39 265,-204 254.93,-157.87 258.15,-102.53 261.5,-70.21"/>
<polygon fill="black" stroke="black" points="264.99,-70.5 262.63,-60.18 258.04,-69.73 264.99,-70.5"/>
<g id="a_edge34&#45;headlabel"><a xlink:href="dir_000126_000121.html" target="_top" xlink:title="24">
<text text-anchor="middle" x="267.41" y="-71.89" font-family="Helvetica,sans-Serif" font-size="10.00">24</text>
</a>
</g>
</g>
<!-- dir_b6d4be4b090f7ca389d4d7467bf58f00&#45;&gt;dir_6bf5ab666b78078c9885531001583184 -->
<g id="edge32" class="edge">
<title>dir_b6d4be4b090f7ca389d4d7467bf58f00&#45;&gt;dir_6bf5ab666b78078c9885531001583184</title>
<path fill="none" stroke="black" d="M353.7,-348.1C348.13,-356.47 340.44,-366.69 332.85,-375.92"/>
<polygon fill="black" stroke="black" points="330.06,-373.8 326.26,-383.7 335.4,-378.33 330.06,-373.8"/>
<g id="a_edge32&#45;headlabel"><a xlink:href="dir_000126_000122.html" target="_top" xlink:title="4">
<text text-anchor="middle" x="330.21" y="-366.73" font-family="Helvetica,sans-Serif" font-size="10.00">4</text>
</a>
</g>
</g>
<!-- dir_b6d4be4b090f7ca389d4d7467bf58f00&#45;&gt;dir_d70407e153feddef216c6988ce7d9828 -->
<g id="edge35" class="edge">
<title>dir_b6d4be4b090f7ca389d4d7467bf58f00&#45;&gt;dir_d70407e153feddef216c6988ce7d9828</title>
<path fill="none" stroke="black" d="M345.39,-311.77C337.63,-302.03 329.05,-289.18 325,-276 320.3,-260.71 321.5,-255.61 325,-240 328.87,-222.73 338.13,-221.27 342,-204 345.5,-188.39 344.61,-183.79 342,-168 340.56,-159.28 337.87,-150.06 335,-141.8"/>
<polygon fill="black" stroke="black" points="338.23,-140.46 331.48,-132.3 331.67,-142.89 338.23,-140.46"/>
<g id="a_edge35&#45;headlabel"><a xlink:href="dir_000126_000123.html" target="_top" xlink:title="7">
<text text-anchor="middle" x="342.14" y="-140.34" font-family="Helvetica,sans-Serif" font-size="10.00">7</text>
</a>
</g>
</g>
<!-- dir_b6d4be4b090f7ca389d4d7467bf58f00&#45;&gt;dir_aaeea3ab9bade49a9826938239097a89 -->
<g id="edge33" class="edge">
<title>dir_b6d4be4b090f7ca389d4d7467bf58f00&#45;&gt;dir_aaeea3ab9bade49a9826938239097a89</title>
<path fill="none" stroke="black" d="M338.36,-311.88C327.8,-302.53 316.2,-290.01 310,-276 301.45,-256.68 300.31,-232.67 301.11,-214.46"/>
<polygon fill="black" stroke="black" points="304.62,-214.43 301.78,-204.22 297.63,-213.97 304.62,-214.43"/>
<g id="a_edge33&#45;headlabel"><a xlink:href="dir_000126_000127.html" target="_top" xlink:title="9">
<text text-anchor="middle" x="307.21" y="-215.71" font-family="Helvetica,sans-Serif" font-size="10.00">9</text>
</a>
</g>
</g>
<!-- dir_e1211e04e305074fbca8f62130f3357b -->
<g id="node15" class="node">
<title>dir_e1211e04e305074fbca8f62130f3357b</title>
<g id="a_node15"><a xlink:href="dir_e1211e04e305074fbca8f62130f3357b.html" target="_top" xlink:title="zwave_tx_groups">
<polygon fill="#a2b4d6" stroke="#404040" points="490.5,-204 397.5,-204 397.5,-168 490.5,-168 490.5,-204"/>
<text text-anchor="middle" x="444" y="-183.5" font-family="Helvetica,sans-Serif" font-size="10.00">zwave_tx_groups</text>
</a>
</g>
</g>
<!-- dir_b6d4be4b090f7ca389d4d7467bf58f00&#45;&gt;dir_e1211e04e305074fbca8f62130f3357b -->
<g id="edge36" class="edge">
<title>dir_b6d4be4b090f7ca389d4d7467bf58f00&#45;&gt;dir_e1211e04e305074fbca8f62130f3357b</title>
<path fill="none" stroke="black" d="M405.91,-311.91C438.07,-299.22 476.46,-282.96 481,-276 493.99,-256.06 481.13,-230.81 467.13,-212.3"/>
<polygon fill="black" stroke="black" points="469.7,-209.91 460.71,-204.31 464.25,-214.3 469.7,-209.91"/>
<g id="a_edge36&#45;headlabel"><a xlink:href="dir_000126_000128.html" target="_top" xlink:title="3">
<text text-anchor="middle" x="474.17" y="-208.43" font-family="Helvetica,sans-Serif" font-size="10.00">3</text>
</a>
</g>
</g>
<!-- dir_b6d4be4b090f7ca389d4d7467bf58f00&#45;&gt;dir_e3c92bd8d5b3c8665918aa687114f533 -->
<g id="edge37" class="edge">
<title>dir_b6d4be4b090f7ca389d4d7467bf58f00&#45;&gt;dir_e3c92bd8d5b3c8665918aa687114f533</title>
<path fill="none" stroke="black" d="M371.38,-311.7C376.26,-303.56 382.19,-293.69 387.58,-284.7"/>
<polygon fill="black" stroke="black" points="390.59,-286.48 392.74,-276.1 384.59,-282.88 390.59,-286.48"/>
<g id="a_edge37&#45;headlabel"><a xlink:href="dir_000126_000129.html" target="_top" xlink:title="2">
<text text-anchor="middle" x="391.18" y="-288.52" font-family="Helvetica,sans-Serif" font-size="10.00">2</text>
</a>
</g>
</g>
<!-- dir_b6d4be4b090f7ca389d4d7467bf58f00&#45;&gt;dir_19225156eb7ba052e31d1a736469917a -->
<g id="edge29" class="edge">
<title>dir_b6d4be4b090f7ca389d4d7467bf58f00&#45;&gt;dir_19225156eb7ba052e31d1a736469917a</title>
<path fill="none" stroke="black" d="M408.14,-312.9C409.43,-312.58 410.72,-312.28 412,-312 482.32,-296.53 682.56,-326.38 734,-276 789.57,-221.58 779.58,-119.05 770.85,-70.21"/>
<polygon fill="black" stroke="black" points="774.23,-69.26 768.92,-60.09 767.35,-70.57 774.23,-69.26"/>
<g id="a_edge29&#45;headlabel"><a xlink:href="dir_000126_000048.html" target="_top" xlink:title="12">
<text text-anchor="middle" x="777.69" y="-69.75" font-family="Helvetica,sans-Serif" font-size="10.00">12</text>
</a>
</g>
</g>
<!-- dir_aaeea3ab9bade49a9826938239097a89&#45;&gt;dir_5069f7b084fe544be8c98b9141a6d7eb -->
<g id="edge41" class="edge">
<title>dir_aaeea3ab9bade49a9826938239097a89&#45;&gt;dir_5069f7b084fe544be8c98b9141a6d7eb</title>
<path fill="none" stroke="black" d="M333.63,-171.77C390.68,-146.29 515.87,-90.39 580.93,-61.34"/>
<polygon fill="black" stroke="black" points="582.75,-64.36 590.45,-57.09 579.9,-57.97 582.75,-64.36"/>
<g id="a_edge41&#45;headlabel"><a xlink:href="dir_000127_000116.html" target="_top" xlink:title="3">
<text text-anchor="middle" x="580.62" y="-65.92" font-family="Helvetica,sans-Serif" font-size="10.00">3</text>
</a>
</g>
</g>
<!-- dir_aaeea3ab9bade49a9826938239097a89&#45;&gt;dir_3fa5244362f007e8bde329718bf5b05b -->
<g id="edge40" class="edge">
<title>dir_aaeea3ab9bade49a9826938239097a89&#45;&gt;dir_3fa5244362f007e8bde329718bf5b05b</title>
<path fill="none" stroke="black" d="M293.12,-204.15C262.96,-244.67 186.06,-348.26 234,-420 248.68,-441.97 274.34,-454.84 298.13,-462.38"/>
<polygon fill="black" stroke="black" points="297.25,-465.77 307.83,-465.21 299.2,-459.05 297.25,-465.77"/>
<g id="a_edge40&#45;headlabel"><a xlink:href="dir_000127_000120.html" target="_top" xlink:title="1">
<text text-anchor="middle" x="293" y="-464.99" font-family="Helvetica,sans-Serif" font-size="10.00">1</text>
</a>
</g>
</g>
<!-- dir_aaeea3ab9bade49a9826938239097a89&#45;&gt;dir_c12de1a8336cf24f106a4dc7aae08da4 -->
<g id="edge43" class="edge">
<title>dir_aaeea3ab9bade49a9826938239097a89&#45;&gt;dir_c12de1a8336cf24f106a4dc7aae08da4</title>
<path fill="none" stroke="black" d="M297.3,-167.99C293.39,-157.68 288.54,-144.2 285,-132 279.07,-111.6 273.87,-88.14 270.25,-70.43"/>
<polygon fill="black" stroke="black" points="273.61,-69.34 268.22,-60.22 266.74,-70.71 273.61,-69.34"/>
<g id="a_edge43&#45;headlabel"><a xlink:href="dir_000127_000121.html" target="_top" xlink:title="7">
<text text-anchor="middle" x="277.09" y="-69.81" font-family="Helvetica,sans-Serif" font-size="10.00">7</text>
</a>
</g>
</g>
<!-- dir_aaeea3ab9bade49a9826938239097a89&#45;&gt;dir_6bf5ab666b78078c9885531001583184 -->
<g id="edge42" class="edge">
<title>dir_aaeea3ab9bade49a9826938239097a89&#45;&gt;dir_6bf5ab666b78078c9885531001583184</title>
<path fill="none" stroke="black" d="M306.06,-204.46C304.23,-234.09 295.25,-296.05 302,-348 303.1,-356.49 305.16,-365.57 306.97,-373.76"/>
<polygon fill="black" stroke="black" points="303.55,-374.5 309.05,-383.56 310.4,-373.05 303.55,-374.5"/>
<g id="a_edge42&#45;headlabel"><a xlink:href="dir_000127_000122.html" target="_top" xlink:title="1">
<text text-anchor="middle" x="300.03" y="-369.08" font-family="Helvetica,sans-Serif" font-size="10.00">1</text>
</a>
</g>
</g>
<!-- dir_aaeea3ab9bade49a9826938239097a89&#45;&gt;dir_d70407e153feddef216c6988ce7d9828 -->
<g id="edge44" class="edge">
<title>dir_aaeea3ab9bade49a9826938239097a89&#45;&gt;dir_d70407e153feddef216c6988ce7d9828</title>
<path fill="none" stroke="black" d="M308.94,-167.7C311.17,-159.9 313.85,-150.51 316.33,-141.83"/>
<polygon fill="black" stroke="black" points="319.73,-142.68 319.11,-132.1 313,-140.76 319.73,-142.68"/>
<g id="a_edge44&#45;headlabel"><a xlink:href="dir_000127_000123.html" target="_top" xlink:title="1">
<text text-anchor="middle" x="321.47" y="-144.42" font-family="Helvetica,sans-Serif" font-size="10.00">1</text>
</a>
</g>
</g>
<!-- dir_aaeea3ab9bade49a9826938239097a89&#45;&gt;dir_19225156eb7ba052e31d1a736469917a -->
<g id="edge39" class="edge">
<title>dir_aaeea3ab9bade49a9826938239097a89&#45;&gt;dir_19225156eb7ba052e31d1a736469917a</title>
<path fill="none" stroke="black" d="M333.84,-178.42C349.85,-175.03 369.94,-170.99 388,-168 511.35,-147.59 558.44,-194.02 667,-132 684.6,-121.95 680.57,-110.24 695,-96 705.82,-85.32 718.85,-74.91 730.71,-66.18"/>
<polygon fill="black" stroke="black" points="733.02,-68.83 739.09,-60.15 728.93,-63.15 733.02,-68.83"/>
<g id="a_edge39&#45;headlabel"><a xlink:href="dir_000127_000048.html" target="_top" xlink:title="3">
<text text-anchor="middle" x="731.76" y="-70.74" font-family="Helvetica,sans-Serif" font-size="10.00">3</text>
</a>
</g>
</g>
<!-- dir_e1211e04e305074fbca8f62130f3357b&#45;&gt;dir_c12de1a8336cf24f106a4dc7aae08da4 -->
<g id="edge46" class="edge">
<title>dir_e1211e04e305074fbca8f62130f3357b&#45;&gt;dir_c12de1a8336cf24f106a4dc7aae08da4</title>
<path fill="none" stroke="black" d="M435.26,-167.89C424.52,-148.31 404.67,-116.34 380,-96 369.55,-87.38 342.5,-74.78 317.27,-64.02"/>
<polygon fill="black" stroke="black" points="318.29,-60.66 307.72,-60 315.58,-67.11 318.29,-60.66"/>
<g id="a_edge46&#45;headlabel"><a xlink:href="dir_000128_000121.html" target="_top" xlink:title="1">
<text text-anchor="middle" x="322.71" y="-56.93" font-family="Helvetica,sans-Serif" font-size="10.00">1</text>
</a>
</g>
</g>
<!-- dir_e1211e04e305074fbca8f62130f3357b&#45;&gt;dir_19225156eb7ba052e31d1a736469917a -->
<g id="edge45" class="edge">
<title>dir_e1211e04e305074fbca8f62130f3357b&#45;&gt;dir_19225156eb7ba052e31d1a736469917a</title>
<path fill="none" stroke="black" d="M490.54,-184.5C543.74,-181.92 631.65,-171.39 695,-132 719.76,-116.61 739.32,-89.19 751.4,-68.83"/>
<polygon fill="black" stroke="black" points="754.5,-70.47 756.42,-60.05 748.42,-67 754.5,-70.47"/>
<g id="a_edge45&#45;headlabel"><a xlink:href="dir_000128_000048.html" target="_top" xlink:title="1">
<text text-anchor="middle" x="755.18" y="-72.5" font-family="Helvetica,sans-Serif" font-size="10.00">1</text>
</a>
</g>
</g>
<!-- dir_e3c92bd8d5b3c8665918aa687114f533&#45;&gt;dir_5069f7b084fe544be8c98b9141a6d7eb -->
<g id="edge48" class="edge">
<title>dir_e3c92bd8d5b3c8665918aa687114f533&#45;&gt;dir_5069f7b084fe544be8c98b9141a6d7eb</title>
<path fill="none" stroke="black" d="M442.25,-239.96C460.63,-230.86 482.13,-218.54 499,-204 545.64,-163.8 586,-103.3 606.87,-69.06"/>
<polygon fill="black" stroke="black" points="610.08,-70.51 612.23,-60.14 604.08,-66.91 610.08,-70.51"/>
<g id="a_edge48&#45;headlabel"><a xlink:href="dir_000129_000116.html" target="_top" xlink:title="1">
<text text-anchor="middle" x="610.66" y="-72.55" font-family="Helvetica,sans-Serif" font-size="10.00">1</text>
</a>
</g>
</g>
<!-- dir_e3c92bd8d5b3c8665918aa687114f533&#45;&gt;dir_3fa5244362f007e8bde329718bf5b05b -->
<g id="edge47" class="edge">
<title>dir_e3c92bd8d5b3c8665918aa687114f533&#45;&gt;dir_3fa5244362f007e8bde329718bf5b05b</title>
<path fill="none" stroke="black" d="M416.7,-276.44C420.93,-286.67 424.43,-299.92 426,-312 428.06,-327.87 428.26,-332.16 426,-348 421.29,-381 420.47,-390.48 405,-420 399.78,-429.96 392.52,-439.83 384.99,-448.29"/>
<polygon fill="black" stroke="black" points="382.37,-445.97 378.05,-455.64 387.46,-450.77 382.37,-445.97"/>
<g id="a_edge47&#45;headlabel"><a xlink:href="dir_000129_000120.html" target="_top" xlink:title="3">
<text text-anchor="middle" x="382.77" y="-438.9" font-family="Helvetica,sans-Serif" font-size="10.00">3</text>
</a>
</g>
</g>
<!-- dir_e3c92bd8d5b3c8665918aa687114f533&#45;&gt;dir_c12de1a8336cf24f106a4dc7aae08da4 -->
<g id="edge51" class="edge">
<title>dir_e3c92bd8d5b3c8665918aa687114f533&#45;&gt;dir_c12de1a8336cf24f106a4dc7aae08da4</title>
<path fill="none" stroke="black" d="M397.96,-239.86C394.97,-229.51 391.15,-216.03 388,-204 375.5,-156.24 392.02,-135.2 362,-96 351.66,-82.5 336.86,-71.99 321.92,-64.03"/>
<polygon fill="black" stroke="black" points="323.15,-60.73 312.64,-59.39 320.02,-66.99 323.15,-60.73"/>
<g id="a_edge51&#45;headlabel"><a xlink:href="dir_000129_000121.html" target="_top" xlink:title="2">
<text text-anchor="middle" x="327.64" y="-57.3" font-family="Helvetica,sans-Serif" font-size="10.00">2</text>
</a>
</g>
</g>
<!-- dir_e3c92bd8d5b3c8665918aa687114f533&#45;&gt;dir_6bf5ab666b78078c9885531001583184 -->
<g id="edge49" class="edge">
<title>dir_e3c92bd8d5b3c8665918aa687114f533&#45;&gt;dir_6bf5ab666b78078c9885531001583184</title>
<path fill="none" stroke="black" d="M348.18,-276.04C331.34,-284.13 314.71,-295.72 305,-312 293.97,-330.51 295.54,-355.25 299.27,-373.95"/>
<polygon fill="black" stroke="black" points="295.91,-374.95 301.56,-383.91 302.73,-373.38 295.91,-374.95"/>
<g id="a_edge49&#45;headlabel"><a xlink:href="dir_000129_000122.html" target="_top" xlink:title="1">
<text text-anchor="middle" x="292.33" y="-369.58" font-family="Helvetica,sans-Serif" font-size="10.00">1</text>
</a>
</g>
</g>
<!-- dir_e3c92bd8d5b3c8665918aa687114f533&#45;&gt;dir_aaeea3ab9bade49a9826938239097a89 -->
<g id="edge50" class="edge">
<title>dir_e3c92bd8d5b3c8665918aa687114f533&#45;&gt;dir_aaeea3ab9bade49a9826938239097a89</title>
<path fill="none" stroke="black" d="M378.78,-239.88C366.08,-230.89 350.34,-219.76 336.58,-210.03"/>
<polygon fill="black" stroke="black" points="338.5,-207.11 328.31,-204.19 334.46,-212.82 338.5,-207.11"/>
<g id="a_edge50&#45;headlabel"><a xlink:href="dir_000129_000127.html" target="_top" xlink:title="1">
<text text-anchor="middle" x="343.07" y="-204.36" font-family="Helvetica,sans-Serif" font-size="10.00">1</text>
</a>
</g>
</g>
<!-- dir_e3c92bd8d5b3c8665918aa687114f533&#45;&gt;dir_e1211e04e305074fbca8f62130f3357b -->
<g id="edge52" class="edge">
<title>dir_e3c92bd8d5b3c8665918aa687114f533&#45;&gt;dir_e1211e04e305074fbca8f62130f3357b</title>
<path fill="none" stroke="black" d="M413.13,-239.7C417.85,-231.64 423.56,-221.89 428.78,-212.98"/>
<polygon fill="black" stroke="black" points="431.95,-214.5 433.98,-204.1 425.91,-210.96 431.95,-214.5"/>
<g id="a_edge52&#45;headlabel"><a xlink:href="dir_000129_000128.html" target="_top" xlink:title="1">
<text text-anchor="middle" x="432.58" y="-216.54" font-family="Helvetica,sans-Serif" font-size="10.00">1</text>
</a>
</g>
</g>
</g>
</svg>
