<?xml version="1.0" encoding="UTF-8" standalone="no"?>
<!DOCTYPE svg PUBLIC "-//W3C//DTD SVG 1.1//EN"
 "http://www.w3.org/Graphics/SVG/1.1/DTD/svg11.dtd">
<!-- Generated by graphviz version 2.43.0 (0)
 -->
<!-- Title: applications/zpc/components/zpc_attribute_store/src Pages: 1 -->
<svg width="406pt" height="167pt"
 viewBox="0.00 0.00 406.00 167.00" xmlns="http://www.w3.org/2000/svg" xmlns:xlink="http://www.w3.org/1999/xlink">
<g id="graph0" class="graph" transform="scale(1 1) rotate(0) translate(4 163)">
<title>applications/zpc/components/zpc_attribute_store/src</title>
<g id="clust1" class="cluster">
<title>clusterdir_017d710f61a4ad7b8d32a487b67eadb9</title>
<g id="a_clust1"><a xlink:href="dir_017d710f61a4ad7b8d32a487b67eadb9.html" target="_top" xlink:title="zpc_attribute_store">
<polygon fill="#edf0f7" stroke="#7f7f7f" stroke-dasharray="5,2" points="8,-8 8,-151 108,-151 108,-8 8,-8"/>
<text text-anchor="middle" x="58" y="-139" font-family="Helvetica,sans-Serif" font-size="10.00">zpc_attribute_store</text>
</a>
</g>
</g>
<!-- dir_e95dc7ff18ee975f8f72df30a1db0a2e -->
<g id="node1" class="node">
<title>dir_e95dc7ff18ee975f8f72df30a1db0a2e</title>
<g id="a_node1"><a xlink:href="dir_e95dc7ff18ee975f8f72df30a1db0a2e.html" target="_top" xlink:title="include">
<polygon fill="#a2b4d6" stroke="red" points="98,-52 44,-52 44,-16 98,-16 98,-52"/>
<text text-anchor="middle" x="71" y="-31.5" font-family="Helvetica,sans-Serif" font-size="10.00">include</text>
</a>
</g>
</g>
<!-- dir_9561b4585b73319c9794904b88e86f72 -->
<g id="node2" class="node">
<title>dir_9561b4585b73319c9794904b88e86f72</title>
<g id="a_node2"><a xlink:href="dir_9561b4585b73319c9794904b88e86f72.html" target="_top" xlink:title="src">
<polygon fill="#edf0f7" stroke="#404040" stroke-width="2" points="100,-124 46,-124 46,-88 100,-88 100,-124"/>
<text text-anchor="middle" x="73" y="-103.5" font-family="Helvetica,sans-Serif" font-size="10.00">src</text>
</a>
</g>
</g>
<!-- dir_9561b4585b73319c9794904b88e86f72&#45;&gt;dir_e95dc7ff18ee975f8f72df30a1db0a2e -->
<g id="edge4" class="edge">
<title>dir_9561b4585b73319c9794904b88e86f72&#45;&gt;dir_e95dc7ff18ee975f8f72df30a1db0a2e</title>
<path fill="none" stroke="black" d="M72.51,-87.7C72.29,-79.98 72.02,-70.71 71.77,-62.11"/>
<polygon fill="black" stroke="black" points="75.27,-62 71.49,-52.1 68.28,-62.2 75.27,-62"/>
<g id="a_edge4&#45;headlabel"><a xlink:href="dir_000067_000019.html" target="_top" xlink:title="12">
<text text-anchor="middle" x="78.21" y="-63.01" font-family="Helvetica,sans-Serif" font-size="10.00">12</text>
</a>
</g>
</g>
<!-- dir_19225156eb7ba052e31d1a736469917a -->
<g id="node3" class="node">
<title>dir_19225156eb7ba052e31d1a736469917a</title>
<g id="a_node3"><a xlink:href="dir_19225156eb7ba052e31d1a736469917a.html" target="_top" xlink:title="mnt">
<polygon fill="none" stroke="red" points="170,-52 116,-52 116,-16 170,-16 170,-52"/>
<text text-anchor="middle" x="143" y="-31.5" font-family="Helvetica,sans-Serif" font-size="10.00">mnt</text>
</a>
</g>
</g>
<!-- dir_9561b4585b73319c9794904b88e86f72&#45;&gt;dir_19225156eb7ba052e31d1a736469917a -->
<g id="edge1" class="edge">
<title>dir_9561b4585b73319c9794904b88e86f72&#45;&gt;dir_19225156eb7ba052e31d1a736469917a</title>
<path fill="none" stroke="black" d="M90.3,-87.7C98.86,-79.14 109.34,-68.66 118.7,-59.3"/>
<polygon fill="black" stroke="black" points="121.3,-61.65 125.9,-52.1 116.35,-56.7 121.3,-61.65"/>
<g id="a_edge1&#45;headlabel"><a xlink:href="dir_000067_000048.html" target="_top" xlink:title="1">
<text text-anchor="middle" x="120.77" y="-63.7" font-family="Helvetica,sans-Serif" font-size="10.00">1</text>
</a>
</g>
</g>
<!-- dir_5069f7b084fe544be8c98b9141a6d7eb -->
<g id="node4" class="node">
<title>dir_5069f7b084fe544be8c98b9141a6d7eb</title>
<g id="a_node4"><a xlink:href="dir_5069f7b084fe544be8c98b9141a6d7eb.html" target="_top" xlink:title="zwave_api">
<polygon fill="none" stroke="red" stroke-dasharray="5,2" points="251.5,-52 188.5,-52 188.5,-16 251.5,-16 251.5,-52"/>
<text text-anchor="middle" x="220" y="-31.5" font-family="Helvetica,sans-Serif" font-size="10.00">zwave_api</text>
</a>
</g>
</g>
<!-- dir_9561b4585b73319c9794904b88e86f72&#45;&gt;dir_5069f7b084fe544be8c98b9141a6d7eb -->
<g id="edge2" class="edge">
<title>dir_9561b4585b73319c9794904b88e86f72&#45;&gt;dir_5069f7b084fe544be8c98b9141a6d7eb</title>
<path fill="none" stroke="black" d="M100.31,-92C122.39,-81.48 153.84,-66.51 178.96,-54.54"/>
<polygon fill="black" stroke="black" points="180.72,-57.58 188.24,-50.12 177.71,-51.26 180.72,-57.58"/>
<g id="a_edge2&#45;headlabel"><a xlink:href="dir_000067_000116.html" target="_top" xlink:title="1">
<text text-anchor="middle" x="178.69" y="-59.19" font-family="Helvetica,sans-Serif" font-size="10.00">1</text>
</a>
</g>
</g>
<!-- dir_c783b693d7274e9a4de597a35ccd1b8b -->
<g id="node5" class="node">
<title>dir_c783b693d7274e9a4de597a35ccd1b8b</title>
<g id="a_node5"><a xlink:href="dir_c783b693d7274e9a4de597a35ccd1b8b.html" target="_top" xlink:title="zwave">
<polygon fill="none" stroke="red" stroke-dasharray="5,2" points="324,-52 270,-52 270,-16 324,-16 324,-52"/>
<text text-anchor="middle" x="297" y="-31.5" font-family="Helvetica,sans-Serif" font-size="10.00">zwave</text>
</a>
</g>
</g>
<!-- dir_9561b4585b73319c9794904b88e86f72&#45;&gt;dir_c783b693d7274e9a4de597a35ccd1b8b -->
<g id="edge3" class="edge">
<title>dir_9561b4585b73319c9794904b88e86f72&#45;&gt;dir_c783b693d7274e9a4de597a35ccd1b8b</title>
<path fill="none" stroke="black" d="M100.23,-98.83C135.4,-90.55 198.54,-74.57 260.2,-52"/>
<polygon fill="black" stroke="black" points="261.53,-55.24 269.69,-48.47 259.09,-48.68 261.53,-55.24"/>
<g id="a_edge3&#45;headlabel"><a xlink:href="dir_000067_000115.html" target="_top" xlink:title="4">
<text text-anchor="middle" x="259.16" y="-56.66" font-family="Helvetica,sans-Serif" font-size="10.00">4</text>
</a>
</g>
</g>
<!-- dir_ec7d7fcaf198621f6dc9f48ecf5d8fa9 -->
<g id="node6" class="node">
<title>dir_ec7d7fcaf198621f6dc9f48ecf5d8fa9</title>
<g id="a_node6"><a xlink:href="dir_ec7d7fcaf198621f6dc9f48ecf5d8fa9.html" target="_top" xlink:title="zpc_utils">
<polygon fill="none" stroke="red" stroke-dasharray="5,2" points="398,-52 342,-52 342,-16 398,-16 398,-52"/>
<text text-anchor="middle" x="370" y="-31.5" font-family="Helvetica,sans-Serif" font-size="10.00">zpc_utils</text>
</a>
</g>
</g>
<!-- dir_9561b4585b73319c9794904b88e86f72&#45;&gt;dir_ec7d7fcaf198621f6dc9f48ecf5d8fa9 -->
<g id="edge5" class="edge">
<title>dir_9561b4585b73319c9794904b88e86f72&#45;&gt;dir_ec7d7fcaf198621f6dc9f48ecf5d8fa9</title>
<path fill="none" stroke="black" d="M100.1,-101.57C146.28,-95.28 243.12,-80.16 332.27,-51.83"/>
<polygon fill="black" stroke="black" points="333.55,-55.09 341.99,-48.68 331.39,-48.43 333.55,-55.09"/>
<g id="a_edge5&#45;headlabel"><a xlink:href="dir_000067_000114.html" target="_top" xlink:title="1">
<text text-anchor="middle" x="331.01" y="-56.4" font-family="Helvetica,sans-Serif" font-size="10.00">1</text>
</a>
</g>
</g>
</g>
</svg>
