<?xml version="1.0" encoding="UTF-8" standalone="no"?>
<!DOCTYPE svg PUBLIC "-//W3C//DTD SVG 1.1//EN"
 "http://www.w3.org/Graphics/SVG/1.1/DTD/svg11.dtd">
<!-- Generated by graphviz version 2.43.0 (0)
 -->
<!-- Title: applications/zpc/components/zwave/zwave_controller Pages: 1 -->
<svg width="752pt" height="247pt"
 viewBox="0.00 0.00 752.00 247.00" xmlns="http://www.w3.org/2000/svg" xmlns:xlink="http://www.w3.org/1999/xlink">
<g id="graph0" class="graph" transform="scale(1 1) rotate(0) translate(4 243)">
<title>applications/zpc/components/zwave/zwave_controller</title>
<g id="clust1" class="cluster">
<title>clusterdir_c783b693d7274e9a4de597a35ccd1b8b</title>
<g id="a_clust1"><a xlink:href="dir_c783b693d7274e9a4de597a35ccd1b8b.html" target="_top" xlink:title="zwave">
<polygon fill="#edf0f7" stroke="#7f7f7f" stroke-dasharray="5,2" points="8,-8 8,-231 558,-231 558,-8 8,-8"/>
<text text-anchor="middle" x="283" y="-219" font-family="Helvetica,sans-Serif" font-size="10.00">zwave</text>
</a>
</g>
</g>
<g id="clust2" class="cluster">
<title>clusterdir_3fa5244362f007e8bde329718bf5b05b</title>
<g id="a_clust2"><a xlink:href="dir_3fa5244362f007e8bde329718bf5b05b.html" target="_top">
<polygon fill="#edf0f7" stroke="#404040" stroke-width="2" points="16,-80 16,-204 194,-204 194,-80 16,-80"/>
</a>
</g>
</g>
<!-- dir_6bf5ab666b78078c9885531001583184 -->
<g id="node1" class="node">
<title>dir_6bf5ab666b78078c9885531001583184</title>
<g id="a_node1"><a xlink:href="dir_6bf5ab666b78078c9885531001583184.html" target="_top" xlink:title="zwave_network_management">
<polygon fill="#a2b4d6" stroke="red" points="162,-52 16,-52 16,-16 162,-16 162,-52"/>
<text text-anchor="middle" x="89" y="-31.5" font-family="Helvetica,sans-Serif" font-size="10.00">zwave_network_management</text>
</a>
</g>
</g>
<!-- dir_aaeea3ab9bade49a9826938239097a89 -->
<g id="node2" class="node">
<title>dir_aaeea3ab9bade49a9826938239097a89</title>
<g id="a_node2"><a xlink:href="dir_aaeea3ab9bade49a9826938239097a89.html" target="_top" xlink:title="zwave_tx">
<polygon fill="#a2b4d6" stroke="red" points="239.5,-52 180.5,-52 180.5,-16 239.5,-16 239.5,-52"/>
<text text-anchor="middle" x="210" y="-31.5" font-family="Helvetica,sans-Serif" font-size="10.00">zwave_tx</text>
</a>
</g>
</g>
<!-- dir_b6d4be4b090f7ca389d4d7467bf58f00 -->
<g id="node3" class="node">
<title>dir_b6d4be4b090f7ca389d4d7467bf58f00</title>
<g id="a_node3"><a xlink:href="dir_b6d4be4b090f7ca389d4d7467bf58f00.html" target="_top" xlink:title="zwave_transports">
<polygon fill="#a2b4d6" stroke="red" points="296,-124 202,-124 202,-88 296,-88 296,-124"/>
<text text-anchor="middle" x="249" y="-103.5" font-family="Helvetica,sans-Serif" font-size="10.00">zwave_transports</text>
</a>
</g>
</g>
<!-- dir_c12de1a8336cf24f106a4dc7aae08da4 -->
<g id="node4" class="node">
<title>dir_c12de1a8336cf24f106a4dc7aae08da4</title>
<g id="a_node4"><a xlink:href="dir_c12de1a8336cf24f106a4dc7aae08da4.html" target="_top" xlink:title="zwave_definitions">
<polygon fill="#a2b4d6" stroke="red" points="357.5,-52 262.5,-52 262.5,-16 357.5,-16 357.5,-52"/>
<text text-anchor="middle" x="310" y="-31.5" font-family="Helvetica,sans-Serif" font-size="10.00">zwave_definitions</text>
</a>
</g>
</g>
<!-- dir_d70407e153feddef216c6988ce7d9828 -->
<g id="node5" class="node">
<title>dir_d70407e153feddef216c6988ce7d9828</title>
<g id="a_node5"><a xlink:href="dir_d70407e153feddef216c6988ce7d9828.html" target="_top" xlink:title="zwave_rx">
<polygon fill="#a2b4d6" stroke="red" points="393.5,-124 334.5,-124 334.5,-88 393.5,-88 393.5,-124"/>
<text text-anchor="middle" x="364" y="-103.5" font-family="Helvetica,sans-Serif" font-size="10.00">zwave_rx</text>
</a>
</g>
</g>
<!-- dir_e3c92bd8d5b3c8665918aa687114f533 -->
<g id="node6" class="node">
<title>dir_e3c92bd8d5b3c8665918aa687114f533</title>
<g id="a_node6"><a xlink:href="dir_e3c92bd8d5b3c8665918aa687114f533.html" target="_top" xlink:title="zwave_tx_scheme_selector">
<polygon fill="#a2b4d6" stroke="red" points="550,-124 412,-124 412,-88 550,-88 550,-124"/>
<text text-anchor="middle" x="481" y="-103.5" font-family="Helvetica,sans-Serif" font-size="10.00">zwave_tx_scheme_selector</text>
</a>
</g>
</g>
<!-- dir_3fa5244362f007e8bde329718bf5b05b -->
<g id="node7" class="node">
<title>dir_3fa5244362f007e8bde329718bf5b05b</title>
<text text-anchor="middle" x="141" y="-175.5" font-family="Helvetica,sans-Serif" font-size="10.00">zwave_controller</text>
</g>
<!-- dir_9834c9384b16917f57c6635f269e32a5 -->
<g id="node8" class="node">
<title>dir_9834c9384b16917f57c6635f269e32a5</title>
<g id="a_node8"><a xlink:href="dir_9834c9384b16917f57c6635f269e32a5.html" target="_top" xlink:title="include">
<polygon fill="#a2b4d6" stroke="#404040" points="184,-124 130,-124 130,-88 184,-88 184,-124"/>
<text text-anchor="middle" x="157" y="-103.5" font-family="Helvetica,sans-Serif" font-size="10.00">include</text>
</a>
</g>
</g>
<!-- dir_9834c9384b16917f57c6635f269e32a5&#45;&gt;dir_6bf5ab666b78078c9885531001583184 -->
<g id="edge3" class="edge">
<title>dir_9834c9384b16917f57c6635f269e32a5&#45;&gt;dir_6bf5ab666b78078c9885531001583184</title>
<path fill="none" stroke="black" d="M140.19,-87.7C131.87,-79.14 121.69,-68.66 112.61,-59.3"/>
<polygon fill="black" stroke="black" points="115.09,-56.84 105.62,-52.1 110.07,-61.72 115.09,-56.84"/>
<g id="a_edge3&#45;headlabel"><a xlink:href="dir_000027_000122.html" target="_top" xlink:title="1">
<text text-anchor="middle" x="119.64" y="-54.94" font-family="Helvetica,sans-Serif" font-size="10.00">1</text>
</a>
</g>
</g>
<!-- dir_9834c9384b16917f57c6635f269e32a5&#45;&gt;dir_aaeea3ab9bade49a9826938239097a89 -->
<g id="edge4" class="edge">
<title>dir_9834c9384b16917f57c6635f269e32a5&#45;&gt;dir_aaeea3ab9bade49a9826938239097a89</title>
<path fill="none" stroke="black" d="M170.1,-87.7C176.39,-79.39 184.05,-69.28 190.96,-60.14"/>
<polygon fill="black" stroke="black" points="193.8,-62.19 197.05,-52.1 188.22,-57.96 193.8,-62.19"/>
<g id="a_edge4&#45;headlabel"><a xlink:href="dir_000027_000127.html" target="_top" xlink:title="3">
<text text-anchor="middle" x="193.9" y="-64.27" font-family="Helvetica,sans-Serif" font-size="10.00">3</text>
</a>
</g>
</g>
<!-- dir_9834c9384b16917f57c6635f269e32a5&#45;&gt;dir_c12de1a8336cf24f106a4dc7aae08da4 -->
<g id="edge5" class="edge">
<title>dir_9834c9384b16917f57c6635f269e32a5&#45;&gt;dir_c12de1a8336cf24f106a4dc7aae08da4</title>
<path fill="none" stroke="black" d="M176.32,-87.85C180.05,-85 184.03,-82.25 188,-80 208.09,-68.6 231.6,-59.13 252.6,-51.86"/>
<polygon fill="black" stroke="black" points="254,-55.08 262.36,-48.58 251.77,-48.45 254,-55.08"/>
<g id="a_edge5&#45;headlabel"><a xlink:href="dir_000027_000121.html" target="_top" xlink:title="15">
<text text-anchor="middle" x="251.5" y="-56.42" font-family="Helvetica,sans-Serif" font-size="10.00">15</text>
</a>
</g>
</g>
<!-- dir_19225156eb7ba052e31d1a736469917a -->
<g id="node10" class="node">
<title>dir_19225156eb7ba052e31d1a736469917a</title>
<g id="a_node10"><a xlink:href="dir_19225156eb7ba052e31d1a736469917a.html" target="_top" xlink:title="mnt">
<polygon fill="none" stroke="red" points="620,-52 566,-52 566,-16 620,-16 620,-52"/>
<text text-anchor="middle" x="593" y="-31.5" font-family="Helvetica,sans-Serif" font-size="10.00">mnt</text>
</a>
</g>
</g>
<!-- dir_9834c9384b16917f57c6635f269e32a5&#45;&gt;dir_19225156eb7ba052e31d1a736469917a -->
<g id="edge1" class="edge">
<title>dir_9834c9384b16917f57c6635f269e32a5&#45;&gt;dir_19225156eb7ba052e31d1a736469917a</title>
<path fill="none" stroke="black" d="M174.51,-87.91C178.64,-84.76 183.24,-81.88 188,-80 339.82,-19.94 399.72,-96.12 555.95,-53.52"/>
<polygon fill="black" stroke="black" points="557.24,-56.79 565.89,-50.68 555.32,-50.06 557.24,-56.79"/>
<g id="a_edge1&#45;headlabel"><a xlink:href="dir_000027_000048.html" target="_top" xlink:title="1">
<text text-anchor="middle" x="554.56" y="-58.01" font-family="Helvetica,sans-Serif" font-size="10.00">1</text>
</a>
</g>
</g>
<!-- dir_5069f7b084fe544be8c98b9141a6d7eb -->
<g id="node11" class="node">
<title>dir_5069f7b084fe544be8c98b9141a6d7eb</title>
<g id="a_node11"><a xlink:href="dir_5069f7b084fe544be8c98b9141a6d7eb.html" target="_top" xlink:title="zwave_api">
<polygon fill="none" stroke="red" stroke-dasharray="5,2" points="701.5,-52 638.5,-52 638.5,-16 701.5,-16 701.5,-52"/>
<text text-anchor="middle" x="670" y="-31.5" font-family="Helvetica,sans-Serif" font-size="10.00">zwave_api</text>
</a>
</g>
</g>
<!-- dir_9834c9384b16917f57c6635f269e32a5&#45;&gt;dir_5069f7b084fe544be8c98b9141a6d7eb -->
<g id="edge2" class="edge">
<title>dir_9834c9384b16917f57c6635f269e32a5&#45;&gt;dir_5069f7b084fe544be8c98b9141a6d7eb</title>
<path fill="none" stroke="black" d="M174.5,-87.87C178.63,-84.73 183.23,-81.86 188,-80 276.74,-45.47 518.13,-72.47 628.19,-51.5"/>
<polygon fill="black" stroke="black" points="629.05,-54.9 638.1,-49.4 627.59,-48.05 629.05,-54.9"/>
<g id="a_edge2&#45;headlabel"><a xlink:href="dir_000027_000116.html" target="_top" xlink:title="2">
<text text-anchor="middle" x="626.12" y="-55.92" font-family="Helvetica,sans-Serif" font-size="10.00">2</text>
</a>
</g>
</g>
<!-- dir_883cec6a0574af2dab21f84702f23d2d -->
<g id="node9" class="node">
<title>dir_883cec6a0574af2dab21f84702f23d2d</title>
<g id="a_node9"><a xlink:href="dir_883cec6a0574af2dab21f84702f23d2d.html" target="_top" xlink:title="src">
<polygon fill="#a2b4d6" stroke="#404040" points="78,-196 24,-196 24,-160 78,-160 78,-196"/>
<text text-anchor="middle" x="51" y="-175.5" font-family="Helvetica,sans-Serif" font-size="10.00">src</text>
</a>
</g>
</g>
<!-- dir_883cec6a0574af2dab21f84702f23d2d&#45;&gt;dir_6bf5ab666b78078c9885531001583184 -->
<g id="edge7" class="edge">
<title>dir_883cec6a0574af2dab21f84702f23d2d&#45;&gt;dir_6bf5ab666b78078c9885531001583184</title>
<path fill="none" stroke="black" d="M55.58,-159.87C62.09,-135.56 74.06,-90.82 81.77,-62.01"/>
<polygon fill="black" stroke="black" points="85.2,-62.75 84.4,-52.19 78.43,-60.94 85.2,-62.75"/>
<g id="a_edge7&#45;headlabel"><a xlink:href="dir_000074_000122.html" target="_top" xlink:title="2">
<text text-anchor="middle" x="87.01" y="-64.46" font-family="Helvetica,sans-Serif" font-size="10.00">2</text>
</a>
</g>
</g>
<!-- dir_883cec6a0574af2dab21f84702f23d2d&#45;&gt;dir_aaeea3ab9bade49a9826938239097a89 -->
<g id="edge10" class="edge">
<title>dir_883cec6a0574af2dab21f84702f23d2d&#45;&gt;dir_aaeea3ab9bade49a9826938239097a89</title>
<path fill="none" stroke="black" d="M60.1,-159.65C71.84,-138.6 94,-103.06 121,-80 129.3,-72.91 151,-61.9 170.89,-52.54"/>
<polygon fill="black" stroke="black" points="172.55,-55.63 180.15,-48.24 169.6,-49.28 172.55,-55.63"/>
<g id="a_edge10&#45;headlabel"><a xlink:href="dir_000074_000127.html" target="_top" xlink:title="2">
<text text-anchor="middle" x="170.49" y="-57.21" font-family="Helvetica,sans-Serif" font-size="10.00">2</text>
</a>
</g>
</g>
<!-- dir_883cec6a0574af2dab21f84702f23d2d&#45;&gt;dir_b6d4be4b090f7ca389d4d7467bf58f00 -->
<g id="edge11" class="edge">
<title>dir_883cec6a0574af2dab21f84702f23d2d&#45;&gt;dir_b6d4be4b090f7ca389d4d7467bf58f00</title>
<path fill="none" stroke="black" d="M78.36,-163.64C81.25,-162.36 84.17,-161.12 87,-160 132.11,-142.12 146.85,-140.37 191.99,-125.93"/>
<polygon fill="black" stroke="black" points="193.34,-129.17 201.77,-122.76 191.18,-122.52 193.34,-129.17"/>
<g id="a_edge11&#45;headlabel"><a xlink:href="dir_000074_000126.html" target="_top" xlink:title="1">
<text text-anchor="middle" x="190.79" y="-130.48" font-family="Helvetica,sans-Serif" font-size="10.00">1</text>
</a>
</g>
</g>
<!-- dir_883cec6a0574af2dab21f84702f23d2d&#45;&gt;dir_c12de1a8336cf24f106a4dc7aae08da4 -->
<g id="edge12" class="edge">
<title>dir_883cec6a0574af2dab21f84702f23d2d&#45;&gt;dir_c12de1a8336cf24f106a4dc7aae08da4</title>
<path fill="none" stroke="black" d="M78.2,-163.2C81.13,-162 84.1,-160.91 87,-160 180.74,-130.75 239.39,-197.07 305,-124 319.81,-107.5 319.61,-81.6 316.56,-61.98"/>
<polygon fill="black" stroke="black" points="319.99,-61.29 314.71,-52.11 313.11,-62.58 319.99,-61.29"/>
<g id="a_edge12&#45;headlabel"><a xlink:href="dir_000074_000121.html" target="_top" xlink:title="3">
<text text-anchor="middle" x="323.45" y="-61.8" font-family="Helvetica,sans-Serif" font-size="10.00">3</text>
</a>
</g>
</g>
<!-- dir_883cec6a0574af2dab21f84702f23d2d&#45;&gt;dir_d70407e153feddef216c6988ce7d9828 -->
<g id="edge13" class="edge">
<title>dir_883cec6a0574af2dab21f84702f23d2d&#45;&gt;dir_d70407e153feddef216c6988ce7d9828</title>
<path fill="none" stroke="black" d="M78.19,-163.17C81.12,-161.98 84.09,-160.89 87,-160 187.19,-129.31 218.76,-151.04 320,-124 321.63,-123.56 323.29,-123.09 324.95,-122.58"/>
<polygon fill="black" stroke="black" points="326.09,-125.89 334.47,-119.41 323.87,-119.25 326.09,-125.89"/>
<g id="a_edge13&#45;headlabel"><a xlink:href="dir_000074_000123.html" target="_top" xlink:title="1">
<text text-anchor="middle" x="323.58" y="-127.22" font-family="Helvetica,sans-Serif" font-size="10.00">1</text>
</a>
</g>
</g>
<!-- dir_883cec6a0574af2dab21f84702f23d2d&#45;&gt;dir_e3c92bd8d5b3c8665918aa687114f533 -->
<g id="edge14" class="edge">
<title>dir_883cec6a0574af2dab21f84702f23d2d&#45;&gt;dir_e3c92bd8d5b3c8665918aa687114f533</title>
<path fill="none" stroke="black" d="M78.16,-163.05C81.09,-161.88 84.08,-160.83 87,-160 219.34,-122.3 261.01,-145.69 401.43,-123.96"/>
<polygon fill="black" stroke="black" points="402.39,-127.35 411.71,-122.31 401.28,-120.44 402.39,-127.35"/>
<g id="a_edge14&#45;headlabel"><a xlink:href="dir_000074_000129.html" target="_top" xlink:title="2">
<text text-anchor="middle" x="399.29" y="-128.22" font-family="Helvetica,sans-Serif" font-size="10.00">2</text>
</a>
</g>
</g>
<!-- dir_883cec6a0574af2dab21f84702f23d2d&#45;&gt;dir_9834c9384b16917f57c6635f269e32a5 -->
<g id="edge9" class="edge">
<title>dir_883cec6a0574af2dab21f84702f23d2d&#45;&gt;dir_9834c9384b16917f57c6635f269e32a5</title>
<path fill="none" stroke="black" d="M76.93,-159.88C90.66,-150.81 107.71,-139.55 122.54,-129.76"/>
<polygon fill="black" stroke="black" points="124.55,-132.62 130.97,-124.19 120.7,-126.78 124.55,-132.62"/>
<g id="a_edge9&#45;headlabel"><a xlink:href="dir_000074_000027.html" target="_top" xlink:title="13">
<text text-anchor="middle" x="123.12" y="-134.47" font-family="Helvetica,sans-Serif" font-size="10.00">13</text>
</a>
</g>
</g>
<!-- dir_883cec6a0574af2dab21f84702f23d2d&#45;&gt;dir_5069f7b084fe544be8c98b9141a6d7eb -->
<g id="edge6" class="edge">
<title>dir_883cec6a0574af2dab21f84702f23d2d&#45;&gt;dir_5069f7b084fe544be8c98b9141a6d7eb</title>
<path fill="none" stroke="black" d="M78.12,-162.9C81.06,-161.77 84.06,-160.76 87,-160 204.71,-129.5 534.13,-194.78 633,-124 652.93,-109.73 662.17,-82.66 666.42,-62.1"/>
<polygon fill="black" stroke="black" points="669.9,-62.51 668.22,-52.05 663.01,-61.27 669.9,-62.51"/>
<g id="a_edge6&#45;headlabel"><a xlink:href="dir_000074_000116.html" target="_top" xlink:title="3">
<text text-anchor="middle" x="672.06" y="-64.05" font-family="Helvetica,sans-Serif" font-size="10.00">3</text>
</a>
</g>
</g>
<!-- dir_8589c6044240c4706ed85574715a24d5 -->
<g id="node12" class="node">
<title>dir_8589c6044240c4706ed85574715a24d5</title>
<g id="a_node12"><a xlink:href="dir_8589c6044240c4706ed85574715a24d5.html" target="_top" xlink:title="zpc_config">
<polygon fill="none" stroke="red" stroke-dasharray="5,2" points="744,-124 680,-124 680,-88 744,-88 744,-124"/>
<text text-anchor="middle" x="712" y="-103.5" font-family="Helvetica,sans-Serif" font-size="10.00">zpc_config</text>
</a>
</g>
</g>
<!-- dir_883cec6a0574af2dab21f84702f23d2d&#45;&gt;dir_8589c6044240c4706ed85574715a24d5 -->
<g id="edge8" class="edge">
<title>dir_883cec6a0574af2dab21f84702f23d2d&#45;&gt;dir_8589c6044240c4706ed85574715a24d5</title>
<path fill="none" stroke="black" d="M78.12,-162.89C81.06,-161.76 84.05,-160.76 87,-160 336.71,-95.8 413.73,-177.25 666,-124 667.29,-123.73 668.59,-123.43 669.9,-123.1"/>
<polygon fill="black" stroke="black" points="671.3,-126.34 679.93,-120.19 669.35,-119.61 671.3,-126.34"/>
<g id="a_edge8&#45;headlabel"><a xlink:href="dir_000074_000108.html" target="_top" xlink:title="1">
<text text-anchor="middle" x="668.64" y="-127.57" font-family="Helvetica,sans-Serif" font-size="10.00">1</text>
</a>
</g>
</g>
<!-- dir_ec7d7fcaf198621f6dc9f48ecf5d8fa9 -->
<g id="node13" class="node">
<title>dir_ec7d7fcaf198621f6dc9f48ecf5d8fa9</title>
<g id="a_node13"><a xlink:href="dir_ec7d7fcaf198621f6dc9f48ecf5d8fa9.html" target="_top" xlink:title="zpc_utils">
<polygon fill="none" stroke="red" stroke-dasharray="5,2" points="624,-124 568,-124 568,-88 624,-88 624,-124"/>
<text text-anchor="middle" x="596" y="-103.5" font-family="Helvetica,sans-Serif" font-size="10.00">zpc_utils</text>
</a>
</g>
</g>
<!-- dir_883cec6a0574af2dab21f84702f23d2d&#45;&gt;dir_ec7d7fcaf198621f6dc9f48ecf5d8fa9 -->
<g id="edge15" class="edge">
<title>dir_883cec6a0574af2dab21f84702f23d2d&#45;&gt;dir_ec7d7fcaf198621f6dc9f48ecf5d8fa9</title>
<path fill="none" stroke="black" d="M78.13,-162.93C81.07,-161.79 84.06,-160.78 87,-160 288.49,-106.74 355.83,-178.1 558.02,-124.76"/>
<polygon fill="black" stroke="black" points="559.02,-128.11 567.75,-122.12 557.19,-121.36 559.02,-128.11"/>
<g id="a_edge15&#45;headlabel"><a xlink:href="dir_000074_000114.html" target="_top" xlink:title="3">
<text text-anchor="middle" x="556.29" y="-129.29" font-family="Helvetica,sans-Serif" font-size="10.00">3</text>
</a>
</g>
</g>
</g>
</svg>
