<?xml version="1.0" encoding="UTF-8" standalone="no"?>
<!DOCTYPE svg PUBLIC "-//W3C//DTD SVG 1.1//EN"
 "http://www.w3.org/Graphics/SVG/1.1/DTD/svg11.dtd">
<!-- Generated by graphviz version 2.43.0 (0)
 -->
<!-- Title: applications/zpc/components/network_monitor/src Pages: 1 -->
<svg width="357pt" height="167pt"
 viewBox="0.00 0.00 357.00 167.00" xmlns="http://www.w3.org/2000/svg" xmlns:xlink="http://www.w3.org/1999/xlink">
<g id="graph0" class="graph" transform="scale(1 1) rotate(0) translate(4 163)">
<title>applications/zpc/components/network_monitor/src</title>
<g id="clust1" class="cluster">
<title>clusterdir_4dc3880ef0e7f703101e273e5485b898</title>
<g id="a_clust1"><a xlink:href="dir_4dc3880ef0e7f703101e273e5485b898.html" target="_top" xlink:title="network_monitor">
<polygon fill="#edf0f7" stroke="#7f7f7f" stroke-dasharray="5,2" points="8,-8 8,-151 97,-151 97,-8 8,-8"/>
<text text-anchor="middle" x="52.5" y="-139" font-family="Helvetica,sans-Serif" font-size="10.00">network_monitor</text>
</a>
</g>
</g>
<!-- dir_af39ec73fd06e395192ca208891381fe -->
<g id="node1" class="node">
<title>dir_af39ec73fd06e395192ca208891381fe</title>
<g id="a_node1"><a xlink:href="dir_af39ec73fd06e395192ca208891381fe.html" target="_top" xlink:title="include">
<polygon fill="#a2b4d6" stroke="#404040" points="87,-52 33,-52 33,-16 87,-16 87,-52"/>
<text text-anchor="middle" x="60" y="-31.5" font-family="Helvetica,sans-Serif" font-size="10.00">include</text>
</a>
</g>
</g>
<!-- dir_f88f47f12b6bfc9ecc8be1dbc77ed26a -->
<g id="node2" class="node">
<title>dir_f88f47f12b6bfc9ecc8be1dbc77ed26a</title>
<g id="a_node2"><a xlink:href="dir_f88f47f12b6bfc9ecc8be1dbc77ed26a.html" target="_top" xlink:title="src">
<polygon fill="#edf0f7" stroke="#404040" stroke-width="2" points="89,-124 35,-124 35,-88 89,-88 89,-124"/>
<text text-anchor="middle" x="62" y="-103.5" font-family="Helvetica,sans-Serif" font-size="10.00">src</text>
</a>
</g>
</g>
<!-- dir_f88f47f12b6bfc9ecc8be1dbc77ed26a&#45;&gt;dir_af39ec73fd06e395192ca208891381fe -->
<g id="edge3" class="edge">
<title>dir_f88f47f12b6bfc9ecc8be1dbc77ed26a&#45;&gt;dir_af39ec73fd06e395192ca208891381fe</title>
<path fill="none" stroke="black" d="M61.51,-87.7C61.29,-79.98 61.02,-70.71 60.77,-62.11"/>
<polygon fill="black" stroke="black" points="64.27,-62 60.49,-52.1 57.28,-62.2 64.27,-62"/>
<g id="a_edge3&#45;headlabel"><a xlink:href="dir_000061_000013.html" target="_top" xlink:title="1">
<text text-anchor="middle" x="67.21" y="-63.01" font-family="Helvetica,sans-Serif" font-size="10.00">1</text>
</a>
</g>
</g>
<!-- dir_017d710f61a4ad7b8d32a487b67eadb9 -->
<g id="node3" class="node">
<title>dir_017d710f61a4ad7b8d32a487b67eadb9</title>
<g id="a_node3"><a xlink:href="dir_017d710f61a4ad7b8d32a487b67eadb9.html" target="_top" xlink:title="zpc_attribute_store">
<polygon fill="none" stroke="red" stroke-dasharray="5,2" points="205,-52 105,-52 105,-16 205,-16 205,-52"/>
<text text-anchor="middle" x="155" y="-31.5" font-family="Helvetica,sans-Serif" font-size="10.00">zpc_attribute_store</text>
</a>
</g>
</g>
<!-- dir_f88f47f12b6bfc9ecc8be1dbc77ed26a&#45;&gt;dir_017d710f61a4ad7b8d32a487b67eadb9 -->
<g id="edge1" class="edge">
<title>dir_f88f47f12b6bfc9ecc8be1dbc77ed26a&#45;&gt;dir_017d710f61a4ad7b8d32a487b67eadb9</title>
<path fill="none" stroke="black" d="M84.99,-87.7C96.81,-78.8 111.39,-67.82 124.18,-58.2"/>
<polygon fill="black" stroke="black" points="126.39,-60.91 132.28,-52.1 122.18,-55.32 126.39,-60.91"/>
<g id="a_edge1&#45;headlabel"><a xlink:href="dir_000061_000107.html" target="_top" xlink:title="4">
<text text-anchor="middle" x="125.23" y="-62.84" font-family="Helvetica,sans-Serif" font-size="10.00">4</text>
</a>
</g>
</g>
<!-- dir_19225156eb7ba052e31d1a736469917a -->
<g id="node4" class="node">
<title>dir_19225156eb7ba052e31d1a736469917a</title>
<g id="a_node4"><a xlink:href="dir_19225156eb7ba052e31d1a736469917a.html" target="_top" xlink:title="mnt">
<polygon fill="none" stroke="red" points="277,-52 223,-52 223,-16 277,-16 277,-52"/>
<text text-anchor="middle" x="250" y="-31.5" font-family="Helvetica,sans-Serif" font-size="10.00">mnt</text>
</a>
</g>
</g>
<!-- dir_f88f47f12b6bfc9ecc8be1dbc77ed26a&#45;&gt;dir_19225156eb7ba052e31d1a736469917a -->
<g id="edge2" class="edge">
<title>dir_f88f47f12b6bfc9ecc8be1dbc77ed26a&#45;&gt;dir_19225156eb7ba052e31d1a736469917a</title>
<path fill="none" stroke="black" d="M89.23,-96.47C118.04,-87.23 164.94,-71.61 213.26,-52.11"/>
<polygon fill="black" stroke="black" points="214.68,-55.31 222.62,-48.3 212.03,-48.83 214.68,-55.31"/>
<g id="a_edge2&#45;headlabel"><a xlink:href="dir_000061_000048.html" target="_top" xlink:title="1">
<text text-anchor="middle" x="212.42" y="-56.8" font-family="Helvetica,sans-Serif" font-size="10.00">1</text>
</a>
</g>
</g>
<!-- dir_c783b693d7274e9a4de597a35ccd1b8b -->
<g id="node5" class="node">
<title>dir_c783b693d7274e9a4de597a35ccd1b8b</title>
<g id="a_node5"><a xlink:href="dir_c783b693d7274e9a4de597a35ccd1b8b.html" target="_top" xlink:title="zwave">
<polygon fill="none" stroke="red" stroke-dasharray="5,2" points="349,-52 295,-52 295,-16 349,-16 349,-52"/>
<text text-anchor="middle" x="322" y="-31.5" font-family="Helvetica,sans-Serif" font-size="10.00">zwave</text>
</a>
</g>
</g>
<!-- dir_f88f47f12b6bfc9ecc8be1dbc77ed26a&#45;&gt;dir_c783b693d7274e9a4de597a35ccd1b8b -->
<g id="edge4" class="edge">
<title>dir_f88f47f12b6bfc9ecc8be1dbc77ed26a&#45;&gt;dir_c783b693d7274e9a4de597a35ccd1b8b</title>
<path fill="none" stroke="black" d="M89.07,-100.49C129.96,-93.26 209.88,-77.59 285.11,-51.94"/>
<polygon fill="black" stroke="black" points="286.43,-55.19 294.73,-48.6 284.14,-48.58 286.43,-55.19"/>
<g id="a_edge4&#45;headlabel"><a xlink:href="dir_000061_000115.html" target="_top" xlink:title="5">
<text text-anchor="middle" x="283.97" y="-56.55" font-family="Helvetica,sans-Serif" font-size="10.00">5</text>
</a>
</g>
</g>
</g>
</svg>
