<?xml version="1.0" encoding="UTF-8" standalone="no"?>
<!DOCTYPE svg PUBLIC "-//W3C//DTD SVG 1.1//EN"
 "http://www.w3.org/Graphics/SVG/1.1/DTD/svg11.dtd">
<!-- Generated by graphviz version 2.43.0 (0)
 -->
<!-- Title: applications/zpc/components/zpc_attribute_store Pages: 1 -->
<svg width="478pt" height="247pt"
 viewBox="0.00 0.00 478.00 247.00" xmlns="http://www.w3.org/2000/svg" xmlns:xlink="http://www.w3.org/1999/xlink">
<g id="graph0" class="graph" transform="scale(1 1) rotate(0) translate(4 243)">
<title>applications/zpc/components/zpc_attribute_store</title>
<g id="clust1" class="cluster">
<title>clusterdir_a9d74fe2658e12bc01226d530457853c</title>
<g id="a_clust1"><a xlink:href="dir_a9d74fe2658e12bc01226d530457853c.html" target="_top" xlink:title="components">
<polygon fill="#edf0f7" stroke="#7f7f7f" stroke-dasharray="5,2" points="8,-8 8,-231 408,-231 408,-8 8,-8"/>
<text text-anchor="middle" x="208" y="-219" font-family="Helvetica,sans-Serif" font-size="10.00">components</text>
</a>
</g>
</g>
<g id="clust2" class="cluster">
<title>clusterdir_017d710f61a4ad7b8d32a487b67eadb9</title>
<g id="a_clust2"><a xlink:href="dir_017d710f61a4ad7b8d32a487b67eadb9.html" target="_top">
<polygon fill="#edf0f7" stroke="#404040" stroke-width="2" points="128,-80 128,-204 400,-204 400,-80 128,-80"/>
</a>
</g>
</g>
<!-- dir_5069f7b084fe544be8c98b9141a6d7eb -->
<g id="node1" class="node">
<title>dir_5069f7b084fe544be8c98b9141a6d7eb</title>
<g id="a_node1"><a xlink:href="dir_5069f7b084fe544be8c98b9141a6d7eb.html" target="_top" xlink:title="zwave_api">
<polygon fill="#a2b4d6" stroke="red" points="119.5,-124 56.5,-124 56.5,-88 119.5,-88 119.5,-124"/>
<text text-anchor="middle" x="88" y="-103.5" font-family="Helvetica,sans-Serif" font-size="10.00">zwave_api</text>
</a>
</g>
</g>
<!-- dir_c783b693d7274e9a4de597a35ccd1b8b -->
<g id="node2" class="node">
<title>dir_c783b693d7274e9a4de597a35ccd1b8b</title>
<g id="a_node2"><a xlink:href="dir_c783b693d7274e9a4de597a35ccd1b8b.html" target="_top" xlink:title="zwave">
<polygon fill="#a2b4d6" stroke="red" points="194,-52 140,-52 140,-16 194,-16 194,-52"/>
<text text-anchor="middle" x="167" y="-31.5" font-family="Helvetica,sans-Serif" font-size="10.00">zwave</text>
</a>
</g>
</g>
<!-- dir_ec7d7fcaf198621f6dc9f48ecf5d8fa9 -->
<g id="node3" class="node">
<title>dir_ec7d7fcaf198621f6dc9f48ecf5d8fa9</title>
<g id="a_node3"><a xlink:href="dir_ec7d7fcaf198621f6dc9f48ecf5d8fa9.html" target="_top" xlink:title="zpc_utils">
<polygon fill="#a2b4d6" stroke="red" points="268,-52 212,-52 212,-16 268,-16 268,-52"/>
<text text-anchor="middle" x="240" y="-31.5" font-family="Helvetica,sans-Serif" font-size="10.00">zpc_utils</text>
</a>
</g>
</g>
<!-- dir_017d710f61a4ad7b8d32a487b67eadb9 -->
<g id="node4" class="node">
<title>dir_017d710f61a4ad7b8d32a487b67eadb9</title>
<text text-anchor="middle" x="342" y="-175.5" font-family="Helvetica,sans-Serif" font-size="10.00">zpc_attribute_store</text>
</g>
<!-- dir_e95dc7ff18ee975f8f72df30a1db0a2e -->
<g id="node5" class="node">
<title>dir_e95dc7ff18ee975f8f72df30a1db0a2e</title>
<g id="a_node5"><a xlink:href="dir_e95dc7ff18ee975f8f72df30a1db0a2e.html" target="_top" xlink:title="include">
<polygon fill="#a2b4d6" stroke="#404040" points="297,-124 243,-124 243,-88 297,-88 297,-124"/>
<text text-anchor="middle" x="270" y="-103.5" font-family="Helvetica,sans-Serif" font-size="10.00">include</text>
</a>
</g>
</g>
<!-- dir_e95dc7ff18ee975f8f72df30a1db0a2e&#45;&gt;dir_c783b693d7274e9a4de597a35ccd1b8b -->
<g id="edge2" class="edge">
<title>dir_e95dc7ff18ee975f8f72df30a1db0a2e&#45;&gt;dir_c783b693d7274e9a4de597a35ccd1b8b</title>
<path fill="none" stroke="black" d="M249.59,-87.97C246.11,-85.23 242.49,-82.49 239,-80 227.52,-71.83 214.57,-63.48 202.85,-56.23"/>
<polygon fill="black" stroke="black" points="204.53,-53.15 194.17,-50.92 200.87,-59.13 204.53,-53.15"/>
<g id="a_edge2&#45;headlabel"><a xlink:href="dir_000019_000115.html" target="_top" xlink:title="8">
<text text-anchor="middle" x="209.07" y="-50.11" font-family="Helvetica,sans-Serif" font-size="10.00">8</text>
</a>
</g>
</g>
<!-- dir_e95dc7ff18ee975f8f72df30a1db0a2e&#45;&gt;dir_ec7d7fcaf198621f6dc9f48ecf5d8fa9 -->
<g id="edge3" class="edge">
<title>dir_e95dc7ff18ee975f8f72df30a1db0a2e&#45;&gt;dir_ec7d7fcaf198621f6dc9f48ecf5d8fa9</title>
<path fill="none" stroke="black" d="M262.58,-87.7C259.21,-79.81 255.13,-70.3 251.38,-61.55"/>
<polygon fill="black" stroke="black" points="254.49,-59.92 247.33,-52.1 248.05,-62.67 254.49,-59.92"/>
<g id="a_edge3&#45;headlabel"><a xlink:href="dir_000019_000114.html" target="_top" xlink:title="2">
<text text-anchor="middle" x="258.51" y="-59.6" font-family="Helvetica,sans-Serif" font-size="10.00">2</text>
</a>
</g>
</g>
<!-- dir_19225156eb7ba052e31d1a736469917a -->
<g id="node8" class="node">
<title>dir_19225156eb7ba052e31d1a736469917a</title>
<g id="a_node8"><a xlink:href="dir_19225156eb7ba052e31d1a736469917a.html" target="_top" xlink:title="mnt">
<polygon fill="none" stroke="red" points="470,-52 416,-52 416,-16 470,-16 470,-52"/>
<text text-anchor="middle" x="443" y="-31.5" font-family="Helvetica,sans-Serif" font-size="10.00">mnt</text>
</a>
</g>
</g>
<!-- dir_e95dc7ff18ee975f8f72df30a1db0a2e&#45;&gt;dir_19225156eb7ba052e31d1a736469917a -->
<g id="edge1" class="edge">
<title>dir_e95dc7ff18ee975f8f72df30a1db0a2e&#45;&gt;dir_19225156eb7ba052e31d1a736469917a</title>
<path fill="none" stroke="black" d="M297.16,-96.17C324.01,-87.16 366.32,-72.22 406.41,-54.44"/>
<polygon fill="black" stroke="black" points="408.05,-57.54 415.72,-50.24 405.17,-51.16 408.05,-57.54"/>
<g id="a_edge1&#45;headlabel"><a xlink:href="dir_000019_000048.html" target="_top" xlink:title="6">
<text text-anchor="middle" x="405.94" y="-59.11" font-family="Helvetica,sans-Serif" font-size="10.00">6</text>
</a>
</g>
</g>
<!-- dir_9561b4585b73319c9794904b88e86f72 -->
<g id="node6" class="node">
<title>dir_9561b4585b73319c9794904b88e86f72</title>
<g id="a_node6"><a xlink:href="dir_9561b4585b73319c9794904b88e86f72.html" target="_top" xlink:title="src">
<polygon fill="#a2b4d6" stroke="#404040" points="274,-196 220,-196 220,-160 274,-160 274,-196"/>
<text text-anchor="middle" x="247" y="-175.5" font-family="Helvetica,sans-Serif" font-size="10.00">src</text>
</a>
</g>
</g>
<!-- dir_9561b4585b73319c9794904b88e86f72&#45;&gt;dir_5069f7b084fe544be8c98b9141a6d7eb -->
<g id="edge5" class="edge">
<title>dir_9561b4585b73319c9794904b88e86f72&#45;&gt;dir_5069f7b084fe544be8c98b9141a6d7eb</title>
<path fill="none" stroke="black" d="M219.97,-164.45C216.62,-162.93 213.24,-161.42 210,-160 175.02,-144.65 163.62,-141.33 129.08,-126.21"/>
<polygon fill="black" stroke="black" points="130.33,-122.93 119.77,-122.09 127.5,-129.34 130.33,-122.93"/>
<g id="a_edge5&#45;headlabel"><a xlink:href="dir_000067_000116.html" target="_top" xlink:title="1">
<text text-anchor="middle" x="134.76" y="-119.29" font-family="Helvetica,sans-Serif" font-size="10.00">1</text>
</a>
</g>
</g>
<!-- dir_9561b4585b73319c9794904b88e86f72&#45;&gt;dir_c783b693d7274e9a4de597a35ccd1b8b -->
<g id="edge6" class="edge">
<title>dir_9561b4585b73319c9794904b88e86f72&#45;&gt;dir_c783b693d7274e9a4de597a35ccd1b8b</title>
<path fill="none" stroke="black" d="M237.35,-159.87C223.54,-135.35 198,-90.03 181.79,-61.26"/>
<polygon fill="black" stroke="black" points="184.64,-59.18 176.68,-52.19 178.54,-62.62 184.64,-59.18"/>
<g id="a_edge6&#45;headlabel"><a xlink:href="dir_000067_000115.html" target="_top" xlink:title="4">
<text text-anchor="middle" x="188.88" y="-58.42" font-family="Helvetica,sans-Serif" font-size="10.00">4</text>
</a>
</g>
</g>
<!-- dir_9561b4585b73319c9794904b88e86f72&#45;&gt;dir_ec7d7fcaf198621f6dc9f48ecf5d8fa9 -->
<g id="edge8" class="edge">
<title>dir_9561b4585b73319c9794904b88e86f72&#45;&gt;dir_ec7d7fcaf198621f6dc9f48ecf5d8fa9</title>
<path fill="none" stroke="black" d="M241.59,-159.53C238.7,-149.29 235.45,-136.04 234,-124 231.65,-104.59 232.7,-99.51 234,-80 234.38,-74.2 235.05,-68.01 235.79,-62.13"/>
<polygon fill="black" stroke="black" points="239.28,-62.43 237.19,-52.04 232.35,-61.47 239.28,-62.43"/>
<g id="a_edge8&#45;headlabel"><a xlink:href="dir_000067_000114.html" target="_top" xlink:title="1">
<text text-anchor="middle" x="241.61" y="-63.88" font-family="Helvetica,sans-Serif" font-size="10.00">1</text>
</a>
</g>
</g>
<!-- dir_9561b4585b73319c9794904b88e86f72&#45;&gt;dir_e95dc7ff18ee975f8f72df30a1db0a2e -->
<g id="edge7" class="edge">
<title>dir_9561b4585b73319c9794904b88e86f72&#45;&gt;dir_e95dc7ff18ee975f8f72df30a1db0a2e</title>
<path fill="none" stroke="black" d="M252.69,-159.7C255.25,-151.9 258.33,-142.51 261.18,-133.83"/>
<polygon fill="black" stroke="black" points="264.58,-134.7 264.38,-124.1 257.93,-132.51 264.58,-134.7"/>
<g id="a_edge7&#45;headlabel"><a xlink:href="dir_000067_000019.html" target="_top" xlink:title="12">
<text text-anchor="middle" x="266.16" y="-136.5" font-family="Helvetica,sans-Serif" font-size="10.00">12</text>
</a>
</g>
</g>
<!-- dir_9561b4585b73319c9794904b88e86f72&#45;&gt;dir_19225156eb7ba052e31d1a736469917a -->
<g id="edge4" class="edge">
<title>dir_9561b4585b73319c9794904b88e86f72&#45;&gt;dir_19225156eb7ba052e31d1a736469917a</title>
<path fill="none" stroke="black" d="M270.64,-159.87C305.67,-134.5 371.43,-86.85 410.81,-58.32"/>
<polygon fill="black" stroke="black" points="413.23,-60.89 419.27,-52.19 409.12,-55.22 413.23,-60.89"/>
<g id="a_edge4&#45;headlabel"><a xlink:href="dir_000067_000048.html" target="_top" xlink:title="1">
<text text-anchor="middle" x="411.98" y="-62.8" font-family="Helvetica,sans-Serif" font-size="10.00">1</text>
</a>
</g>
</g>
<!-- dir_967e5db14313721c1404cb9ee8be46ef -->
<g id="node7" class="node">
<title>dir_967e5db14313721c1404cb9ee8be46ef</title>
<g id="a_node7"><a xlink:href="dir_967e5db14313721c1404cb9ee8be46ef.html" target="_top" xlink:title="test_helper">
<polygon fill="#a2b4d6" stroke="#404040" points="201.5,-196 136.5,-196 136.5,-160 201.5,-160 201.5,-196"/>
<text text-anchor="middle" x="169" y="-175.5" font-family="Helvetica,sans-Serif" font-size="10.00">test_helper</text>
</a>
</g>
</g>
<!-- dir_967e5db14313721c1404cb9ee8be46ef&#45;&gt;dir_c783b693d7274e9a4de597a35ccd1b8b -->
<g id="edge9" class="edge">
<title>dir_967e5db14313721c1404cb9ee8be46ef&#45;&gt;dir_c783b693d7274e9a4de597a35ccd1b8b</title>
<path fill="none" stroke="black" d="M136.3,-174.55C103.71,-170.18 55.28,-157.97 32,-124 20.94,-107.87 20.57,-95.86 32,-80 54.06,-49.39 97.85,-39.29 129.59,-36.12"/>
<polygon fill="black" stroke="black" points="130.16,-39.58 139.84,-35.29 129.59,-32.61 130.16,-39.58"/>
<g id="a_edge9&#45;headlabel"><a xlink:href="dir_000093_000115.html" target="_top" xlink:title="3">
<text text-anchor="middle" x="126.8" y="-40.2" font-family="Helvetica,sans-Serif" font-size="10.00">3</text>
</a>
</g>
</g>
<!-- dir_967e5db14313721c1404cb9ee8be46ef&#45;&gt;dir_ec7d7fcaf198621f6dc9f48ecf5d8fa9 -->
<g id="edge10" class="edge">
<title>dir_967e5db14313721c1404cb9ee8be46ef&#45;&gt;dir_ec7d7fcaf198621f6dc9f48ecf5d8fa9</title>
<path fill="none" stroke="black" d="M136.46,-172.79C107.48,-167.13 66.69,-154.03 47,-124 36.28,-107.65 34.45,-95 47,-80 90.17,-28.4 131.87,-69.07 201.58,-51.76"/>
<polygon fill="black" stroke="black" points="202.93,-55.01 211.6,-48.91 201.02,-48.27 202.93,-55.01"/>
<g id="a_edge10&#45;headlabel"><a xlink:href="dir_000093_000114.html" target="_top" xlink:title="1">
<text text-anchor="middle" x="200.25" y="-56.22" font-family="Helvetica,sans-Serif" font-size="10.00">1</text>
</a>
</g>
</g>
</g>
</svg>
