<?xml version="1.0" encoding="UTF-8" standalone="no"?>
<!DOCTYPE svg PUBLIC "-//W3C//DTD SVG 1.1//EN"
 "http://www.w3.org/Graphics/SVG/1.1/DTD/svg11.dtd">
<!-- Generated by graphviz version 2.43.0 (0)
 -->
<!-- Title: applications/zpc/components/dotdot_mapper/include Pages: 1 -->
<svg width="252pt" height="151pt"
 viewBox="0.00 0.00 252.00 151.00" xmlns="http://www.w3.org/2000/svg" xmlns:xlink="http://www.w3.org/1999/xlink">
<g id="graph0" class="graph" transform="scale(1 1) rotate(0) translate(4 147)">
<title>applications/zpc/components/dotdot_mapper/include</title>
<g id="clust1" class="cluster">
<title>clusterdir_fc5e30e6d560322ea12b12d1fc01c4d3</title>
<g id="a_clust1"><a xlink:href="dir_fc5e30e6d560322ea12b12d1fc01c4d3.html" target="_top" xlink:title="dotdot_mapper">
<polygon fill="#edf0f7" stroke="#7f7f7f" stroke-dasharray="5,2" points="105,-64 105,-135 186,-135 186,-64 105,-64"/>
<text text-anchor="middle" x="145.5" y="-123" font-family="Helvetica,sans-Serif" font-size="10.00">dotdot_mapper</text>
</a>
</g>
</g>
<!-- dir_eac562421e101a7cb413755d1b08b357 -->
<g id="node1" class="node">
<title>dir_eac562421e101a7cb413755d1b08b357</title>
<g id="a_node1"><a xlink:href="dir_eac562421e101a7cb413755d1b08b357.html" target="_top" xlink:title="include">
<polygon fill="#edf0f7" stroke="#404040" stroke-width="2" points="172,-108 118,-108 118,-72 172,-72 172,-108"/>
<text text-anchor="middle" x="145" y="-87.5" font-family="Helvetica,sans-Serif" font-size="10.00">include</text>
</a>
</g>
</g>
<!-- dir_20462f6d7be47578489ee94c8a2b0b2b -->
<g id="node2" class="node">
<title>dir_20462f6d7be47578489ee94c8a2b0b2b</title>
<g id="a_node2"><a xlink:href="dir_20462f6d7be47578489ee94c8a2b0b2b.html" target="_top" xlink:title="zpc_attribute_store">
<polygon fill="none" stroke="red" stroke-dasharray="5,2" points="100,-36 0,-36 0,0 100,0 100,-36"/>
<text text-anchor="middle" x="50" y="-15.5" font-family="Helvetica,sans-Serif" font-size="10.00">zpc_attribute_store</text>
</a>
</g>
</g>
<!-- dir_eac562421e101a7cb413755d1b08b357&#45;&gt;dir_20462f6d7be47578489ee94c8a2b0b2b -->
<g id="edge1" class="edge">
<title>dir_eac562421e101a7cb413755d1b08b357&#45;&gt;dir_20462f6d7be47578489ee94c8a2b0b2b</title>
<path fill="none" stroke="black" d="M121.52,-71.7C109.44,-62.8 94.55,-51.82 81.48,-42.2"/>
<polygon fill="black" stroke="black" points="83.34,-39.22 73.21,-36.1 79.19,-44.85 83.34,-39.22"/>
<g id="a_edge1&#45;headlabel"><a xlink:href="dir_000008_000105.html" target="_top" xlink:title="1">
<text text-anchor="middle" x="87.92" y="-36.57" font-family="Helvetica,sans-Serif" font-size="10.00">1</text>
</a>
</g>
</g>
<!-- dir_d44c64559bbebec7f509842c48db8b23 -->
<g id="node3" class="node">
<title>dir_d44c64559bbebec7f509842c48db8b23</title>
<g id="a_node3"><a xlink:href="dir_d44c64559bbebec7f509842c48db8b23.html" target="_top" xlink:title="include">
<polygon fill="none" stroke="#404040" points="172,-36 118,-36 118,0 172,0 172,-36"/>
<text text-anchor="middle" x="145" y="-15.5" font-family="Helvetica,sans-Serif" font-size="10.00">include</text>
</a>
</g>
</g>
<!-- dir_eac562421e101a7cb413755d1b08b357&#45;&gt;dir_d44c64559bbebec7f509842c48db8b23 -->
<g id="edge2" class="edge">
<title>dir_eac562421e101a7cb413755d1b08b357&#45;&gt;dir_d44c64559bbebec7f509842c48db8b23</title>
<path fill="none" stroke="black" d="M145,-71.7C145,-63.98 145,-54.71 145,-46.11"/>
<polygon fill="black" stroke="black" points="148.5,-46.1 145,-36.1 141.5,-46.1 148.5,-46.1"/>
<g id="a_edge2&#45;headlabel"><a xlink:href="dir_000008_000047.html" target="_top" xlink:title="1">
<text text-anchor="middle" x="151.34" y="-47.2" font-family="Helvetica,sans-Serif" font-size="10.00">1</text>
</a>
</g>
</g>
<!-- dir_f3e54dd29e621d563099d452e62da9f8 -->
<g id="node4" class="node">
<title>dir_f3e54dd29e621d563099d452e62da9f8</title>
<g id="a_node4"><a xlink:href="dir_f3e54dd29e621d563099d452e62da9f8.html" target="_top" xlink:title="zwave">
<polygon fill="none" stroke="red" stroke-dasharray="5,2" points="244,-36 190,-36 190,0 244,0 244,-36"/>
<text text-anchor="middle" x="217" y="-15.5" font-family="Helvetica,sans-Serif" font-size="10.00">zwave</text>
</a>
</g>
</g>
<!-- dir_eac562421e101a7cb413755d1b08b357&#45;&gt;dir_f3e54dd29e621d563099d452e62da9f8 -->
<g id="edge3" class="edge">
<title>dir_eac562421e101a7cb413755d1b08b357&#45;&gt;dir_f3e54dd29e621d563099d452e62da9f8</title>
<path fill="none" stroke="black" d="M162.8,-71.7C171.6,-63.14 182.38,-52.66 192,-43.3"/>
<polygon fill="black" stroke="black" points="194.68,-45.58 199.41,-36.1 189.8,-40.57 194.68,-45.58"/>
<g id="a_edge3&#45;headlabel"><a xlink:href="dir_000008_000113.html" target="_top" xlink:title="1">
<text text-anchor="middle" x="194.08" y="-47.63" font-family="Helvetica,sans-Serif" font-size="10.00">1</text>
</a>
</g>
</g>
</g>
</svg>
