<?xml version="1.0" encoding="UTF-8" standalone="no"?>
<!DOCTYPE svg PUBLIC "-//W3C//DTD SVG 1.1//EN"
 "http://www.w3.org/Graphics/SVG/1.1/DTD/svg11.dtd">
<!-- Generated by graphviz version 2.43.0 (0)
 -->
<!-- Title: applications/zpc/components/zwave/zwave_transports/src Pages: 1 -->
<svg width="836pt" height="167pt"
 viewBox="0.00 0.00 836.00 167.00" xmlns="http://www.w3.org/2000/svg" xmlns:xlink="http://www.w3.org/1999/xlink">
<g id="graph0" class="graph" transform="scale(1 1) rotate(0) translate(4 163)">
<title>applications/zpc/components/zwave/zwave_transports/src</title>
<g id="clust1" class="cluster">
<title>clusterdir_f4b467f0a960798c9a570e0236e928b5</title>
<g id="a_clust1"><a xlink:href="dir_f4b467f0a960798c9a570e0236e928b5.html" target="_top" xlink:title="zwave_transports">
<polygon fill="#edf0f7" stroke="#7f7f7f" stroke-dasharray="5,2" points="8,-8 8,-151 764,-151 764,-8 8,-8"/>
<text text-anchor="middle" x="386" y="-139" font-family="Helvetica,sans-Serif" font-size="10.00">zwave_transports</text>
</a>
</g>
</g>
<!-- dir_6fba1e772b51ab46cce9ac80a46e75aa -->
<g id="node1" class="node">
<title>dir_6fba1e772b51ab46cce9ac80a46e75aa</title>
<g id="a_node1"><a xlink:href="dir_6fba1e772b51ab46cce9ac80a46e75aa.html" target="_top" xlink:title="s0">
<polygon fill="#a2b4d6" stroke="red" points="70,-52 16,-52 16,-16 70,-16 70,-52"/>
<text text-anchor="middle" x="43" y="-31.5" font-family="Helvetica,sans-Serif" font-size="10.00">s0</text>
</a>
</g>
</g>
<!-- dir_71be16fc5a53286c0aa24b3aa45cfa0e -->
<g id="node2" class="node">
<title>dir_71be16fc5a53286c0aa24b3aa45cfa0e</title>
<g id="a_node2"><a xlink:href="dir_71be16fc5a53286c0aa24b3aa45cfa0e.html" target="_top" xlink:title="crc16">
<polygon fill="#a2b4d6" stroke="red" points="142,-52 88,-52 88,-16 142,-16 142,-52"/>
<text text-anchor="middle" x="115" y="-31.5" font-family="Helvetica,sans-Serif" font-size="10.00">crc16</text>
</a>
</g>
</g>
<!-- dir_72118fa05438b5cd025d190be21a2a64 -->
<g id="node3" class="node">
<title>dir_72118fa05438b5cd025d190be21a2a64</title>
<g id="a_node3"><a xlink:href="dir_72118fa05438b5cd025d190be21a2a64.html" target="_top" xlink:title="transport_service_wrapper">
<polygon fill="#a2b4d6" stroke="red" points="291.5,-52 160.5,-52 160.5,-16 291.5,-16 291.5,-52"/>
<text text-anchor="middle" x="226" y="-31.5" font-family="Helvetica,sans-Serif" font-size="10.00">transport_service_wrapper</text>
</a>
</g>
</g>
<!-- dir_84a6dc4f25071dec08df379617189698 -->
<g id="node4" class="node">
<title>dir_84a6dc4f25071dec08df379617189698</title>
<g id="a_node4"><a xlink:href="dir_84a6dc4f25071dec08df379617189698.html" target="_top" xlink:title="include">
<polygon fill="#a2b4d6" stroke="#404040" points="364,-52 310,-52 310,-16 364,-16 364,-52"/>
<text text-anchor="middle" x="337" y="-31.5" font-family="Helvetica,sans-Serif" font-size="10.00">include</text>
</a>
</g>
</g>
<!-- dir_8c3c1d9796d048ce4531ea5496f33374 -->
<g id="node5" class="node">
<title>dir_8c3c1d9796d048ce4531ea5496f33374</title>
<g id="a_node5"><a xlink:href="dir_8c3c1d9796d048ce4531ea5496f33374.html" target="_top" xlink:title="zwave_api_transport">
<polygon fill="#a2b4d6" stroke="red" points="489.5,-52 382.5,-52 382.5,-16 489.5,-16 489.5,-52"/>
<text text-anchor="middle" x="436" y="-31.5" font-family="Helvetica,sans-Serif" font-size="10.00">zwave_api_transport</text>
</a>
</g>
</g>
<!-- dir_99a79c521bb99507f14d74a59d5db713 -->
<g id="node6" class="node">
<title>dir_99a79c521bb99507f14d74a59d5db713</title>
<g id="a_node6"><a xlink:href="dir_99a79c521bb99507f14d74a59d5db713.html" target="_top" xlink:title="multicast_follow_ups_transport">
<polygon fill="#a2b4d6" stroke="red" points="660,-52 508,-52 508,-16 660,-16 660,-52"/>
<text text-anchor="middle" x="584" y="-31.5" font-family="Helvetica,sans-Serif" font-size="10.00">multicast_follow_ups_transport</text>
</a>
</g>
</g>
<!-- dir_f82e5e054538ba07a310c9dba1d0bbe0 -->
<g id="node7" class="node">
<title>dir_f82e5e054538ba07a310c9dba1d0bbe0</title>
<g id="a_node7"><a xlink:href="dir_f82e5e054538ba07a310c9dba1d0bbe0.html" target="_top" xlink:title="multi_channel">
<polygon fill="#a2b4d6" stroke="red" points="755.5,-52 678.5,-52 678.5,-16 755.5,-16 755.5,-52"/>
<text text-anchor="middle" x="717" y="-31.5" font-family="Helvetica,sans-Serif" font-size="10.00">multi_channel</text>
</a>
</g>
</g>
<!-- dir_ec94800aa0786adca467957222a327c5 -->
<g id="node8" class="node">
<title>dir_ec94800aa0786adca467957222a327c5</title>
<g id="a_node8"><a xlink:href="dir_ec94800aa0786adca467957222a327c5.html" target="_top" xlink:title="src">
<polygon fill="#edf0f7" stroke="#404040" stroke-width="2" points="413,-124 359,-124 359,-88 413,-88 413,-124"/>
<text text-anchor="middle" x="386" y="-103.5" font-family="Helvetica,sans-Serif" font-size="10.00">src</text>
</a>
</g>
</g>
<!-- dir_ec94800aa0786adca467957222a327c5&#45;&gt;dir_6fba1e772b51ab46cce9ac80a46e75aa -->
<g id="edge1" class="edge">
<title>dir_ec94800aa0786adca467957222a327c5&#45;&gt;dir_6fba1e772b51ab46cce9ac80a46e75aa</title>
<path fill="none" stroke="black" d="M358.73,-102.78C306,-97.97 186.58,-84.52 79.84,-51.8"/>
<polygon fill="black" stroke="black" points="80.8,-48.43 70.21,-48.78 78.71,-55.11 80.8,-48.43"/>
<g id="a_edge1&#45;headlabel"><a xlink:href="dir_000082_000057.html" target="_top" xlink:title="1">
<text text-anchor="middle" x="85.08" y="-44.29" font-family="Helvetica,sans-Serif" font-size="10.00">1</text>
</a>
</g>
</g>
<!-- dir_ec94800aa0786adca467957222a327c5&#45;&gt;dir_71be16fc5a53286c0aa24b3aa45cfa0e -->
<g id="edge2" class="edge">
<title>dir_ec94800aa0786adca467957222a327c5&#45;&gt;dir_71be16fc5a53286c0aa24b3aa45cfa0e</title>
<path fill="none" stroke="black" d="M358.83,-100.74C314.69,-93.4 224.98,-76.73 152,-52 151.9,-51.97 151.8,-51.93 151.7,-51.9"/>
<polygon fill="black" stroke="black" points="152.81,-48.58 142.22,-48.27 150.31,-55.11 152.81,-48.58"/>
<g id="a_edge2&#45;headlabel"><a xlink:href="dir_000082_000005.html" target="_top" xlink:title="1">
<text text-anchor="middle" x="157.18" y="-44.71" font-family="Helvetica,sans-Serif" font-size="10.00">1</text>
</a>
</g>
</g>
<!-- dir_ec94800aa0786adca467957222a327c5&#45;&gt;dir_72118fa05438b5cd025d190be21a2a64 -->
<g id="edge3" class="edge">
<title>dir_ec94800aa0786adca467957222a327c5&#45;&gt;dir_72118fa05438b5cd025d190be21a2a64</title>
<path fill="none" stroke="black" d="M358.86,-93.13C335.81,-83.04 302.16,-68.32 274.5,-56.22"/>
<polygon fill="black" stroke="black" points="275.56,-52.86 264.99,-52.06 272.75,-59.27 275.56,-52.86"/>
<g id="a_edge3&#45;headlabel"><a xlink:href="dir_000082_000095.html" target="_top" xlink:title="1">
<text text-anchor="middle" x="279.99" y="-49.2" font-family="Helvetica,sans-Serif" font-size="10.00">1</text>
</a>
</g>
</g>
<!-- dir_ec94800aa0786adca467957222a327c5&#45;&gt;dir_84a6dc4f25071dec08df379617189698 -->
<g id="edge4" class="edge">
<title>dir_ec94800aa0786adca467957222a327c5&#45;&gt;dir_84a6dc4f25071dec08df379617189698</title>
<path fill="none" stroke="black" d="M373.89,-87.7C368.13,-79.47 361.14,-69.48 354.79,-60.42"/>
<polygon fill="black" stroke="black" points="357.58,-58.29 348.97,-52.1 351.84,-62.3 357.58,-58.29"/>
<g id="a_edge4&#45;headlabel"><a xlink:href="dir_000082_000029.html" target="_top" xlink:title="1">
<text text-anchor="middle" x="361.96" y="-57.11" font-family="Helvetica,sans-Serif" font-size="10.00">1</text>
</a>
</g>
</g>
<!-- dir_ec94800aa0786adca467957222a327c5&#45;&gt;dir_8c3c1d9796d048ce4531ea5496f33374 -->
<g id="edge5" class="edge">
<title>dir_ec94800aa0786adca467957222a327c5&#45;&gt;dir_8c3c1d9796d048ce4531ea5496f33374</title>
<path fill="none" stroke="black" d="M398.36,-87.7C404.23,-79.47 411.37,-69.48 417.84,-60.42"/>
<polygon fill="black" stroke="black" points="420.82,-62.28 423.78,-52.1 415.12,-58.21 420.82,-62.28"/>
<g id="a_edge5&#45;headlabel"><a xlink:href="dir_000082_000115.html" target="_top" xlink:title="1">
<text text-anchor="middle" x="421.04" y="-64.35" font-family="Helvetica,sans-Serif" font-size="10.00">1</text>
</a>
</g>
</g>
<!-- dir_ec94800aa0786adca467957222a327c5&#45;&gt;dir_99a79c521bb99507f14d74a59d5db713 -->
<g id="edge6" class="edge">
<title>dir_ec94800aa0786adca467957222a327c5&#45;&gt;dir_99a79c521bb99507f14d74a59d5db713</title>
<path fill="none" stroke="black" d="M413.12,-95.41C441.99,-85.21 488.57,-68.74 525.81,-55.57"/>
<polygon fill="black" stroke="black" points="527.29,-58.76 535.55,-52.13 524.95,-52.16 527.29,-58.76"/>
<g id="a_edge6&#45;headlabel"><a xlink:href="dir_000082_000049.html" target="_top" xlink:title="1">
<text text-anchor="middle" x="524.84" y="-60.14" font-family="Helvetica,sans-Serif" font-size="10.00">1</text>
</a>
</g>
</g>
<!-- dir_ec94800aa0786adca467957222a327c5&#45;&gt;dir_f82e5e054538ba07a310c9dba1d0bbe0 -->
<g id="edge8" class="edge">
<title>dir_ec94800aa0786adca467957222a327c5&#45;&gt;dir_f82e5e054538ba07a310c9dba1d0bbe0</title>
<path fill="none" stroke="black" d="M413.24,-101.34C462.42,-94.42 569.38,-77.97 668.51,-51.89"/>
<polygon fill="black" stroke="black" points="669.63,-55.22 678.39,-49.25 667.83,-48.45 669.63,-55.22"/>
<g id="a_edge8&#45;headlabel"><a xlink:href="dir_000082_000048.html" target="_top" xlink:title="1">
<text text-anchor="middle" x="666.89" y="-56.39" font-family="Helvetica,sans-Serif" font-size="10.00">1</text>
</a>
</g>
</g>
<!-- dir_d44c64559bbebec7f509842c48db8b23 -->
<g id="node9" class="node">
<title>dir_d44c64559bbebec7f509842c48db8b23</title>
<g id="a_node9"><a xlink:href="dir_d44c64559bbebec7f509842c48db8b23.html" target="_top" xlink:title="include">
<polygon fill="none" stroke="#404040" points="828,-52 774,-52 774,-16 828,-16 828,-52"/>
<text text-anchor="middle" x="801" y="-31.5" font-family="Helvetica,sans-Serif" font-size="10.00">include</text>
</a>
</g>
</g>
<!-- dir_ec94800aa0786adca467957222a327c5&#45;&gt;dir_d44c64559bbebec7f509842c48db8b23 -->
<g id="edge7" class="edge">
<title>dir_ec94800aa0786adca467957222a327c5&#45;&gt;dir_d44c64559bbebec7f509842c48db8b23</title>
<path fill="none" stroke="black" d="M413.08,-104.36C475.02,-102.24 631.49,-93.2 764.03,-52.92"/>
<polygon fill="black" stroke="black" points="765.43,-56.15 773.93,-49.84 763.35,-49.47 765.43,-56.15"/>
<g id="a_edge7&#45;headlabel"><a xlink:href="dir_000082_000047.html" target="_top" xlink:title="1">
<text text-anchor="middle" x="762.84" y="-57.43" font-family="Helvetica,sans-Serif" font-size="10.00">1</text>
</a>
</g>
</g>
</g>
</svg>
