<?xml version="1.0" encoding="UTF-8" standalone="no"?>
<!DOCTYPE svg PUBLIC "-//W3C//DTD SVG 1.1//EN"
 "http://www.w3.org/Graphics/SVG/1.1/DTD/svg11.dtd">
<!-- Generated by graphviz version 2.43.0 (0)
 -->
<!-- Title: applications/zpc/components/zwave_api Pages: 1 -->
<svg width="318pt" height="247pt"
 viewBox="0.00 0.00 318.00 247.00" xmlns="http://www.w3.org/2000/svg" xmlns:xlink="http://www.w3.org/1999/xlink">
<g id="graph0" class="graph" transform="scale(1 1) rotate(0) translate(4 243)">
<title>applications/zpc/components/zwave_api</title>
<g id="clust1" class="cluster">
<title>clusterdir_7619deabe98ce62d677c018eac259f19</title>
<g id="a_clust1"><a xlink:href="dir_7619deabe98ce62d677c018eac259f19.html" target="_top" xlink:title="components">
<polygon fill="#edf0f7" stroke="#7f7f7f" stroke-dasharray="5,2" points="8,-8 8,-231 248,-231 248,-8 8,-8"/>
<text text-anchor="middle" x="128" y="-219" font-family="Helvetica,sans-Serif" font-size="10.00">components</text>
</a>
</g>
</g>
<g id="clust2" class="cluster">
<title>clusterdir_9376f99cbc649c5813b13d9244dc2fa3</title>
<g id="a_clust2"><a xlink:href="dir_9376f99cbc649c5813b13d9244dc2fa3.html" target="_top">
<polygon fill="#edf0f7" stroke="#404040" stroke-width="2" points="16,-80 16,-204 240,-204 240,-80 16,-80"/>
</a>
</g>
</g>
<!-- dir_f3e54dd29e621d563099d452e62da9f8 -->
<g id="node1" class="node">
<title>dir_f3e54dd29e621d563099d452e62da9f8</title>
<g id="a_node1"><a xlink:href="dir_f3e54dd29e621d563099d452e62da9f8.html" target="_top" xlink:title="zwave">
<polygon fill="#a2b4d6" stroke="red" points="116,-52 62,-52 62,-16 116,-16 116,-52"/>
<text text-anchor="middle" x="89" y="-31.5" font-family="Helvetica,sans-Serif" font-size="10.00">zwave</text>
</a>
</g>
</g>
<!-- dir_9376f99cbc649c5813b13d9244dc2fa3 -->
<g id="node2" class="node">
<title>dir_9376f99cbc649c5813b13d9244dc2fa3</title>
<text text-anchor="middle" x="200" y="-175.5" font-family="Helvetica,sans-Serif" font-size="10.00">zwave_api</text>
</g>
<!-- dir_a4e09f02a3ed9e56293d393189a78a0f -->
<g id="node3" class="node">
<title>dir_a4e09f02a3ed9e56293d393189a78a0f</title>
<g id="a_node3"><a xlink:href="dir_a4e09f02a3ed9e56293d393189a78a0f.html" target="_top" xlink:title="external">
<polygon fill="#a2b4d6" stroke="#404040" points="150,-196 96,-196 96,-160 150,-160 150,-196"/>
<text text-anchor="middle" x="123" y="-175.5" font-family="Helvetica,sans-Serif" font-size="10.00">external</text>
</a>
</g>
</g>
<!-- dir_94fe450d7509a69caa22c7b9bc339a62 -->
<g id="node4" class="node">
<title>dir_94fe450d7509a69caa22c7b9bc339a62</title>
<g id="a_node4"><a xlink:href="dir_94fe450d7509a69caa22c7b9bc339a62.html" target="_top" xlink:title="include">
<polygon fill="#a2b4d6" stroke="#404040" points="162,-124 108,-124 108,-88 162,-88 162,-124"/>
<text text-anchor="middle" x="135" y="-103.5" font-family="Helvetica,sans-Serif" font-size="10.00">include</text>
</a>
</g>
</g>
<!-- dir_94fe450d7509a69caa22c7b9bc339a62&#45;&gt;dir_f3e54dd29e621d563099d452e62da9f8 -->
<g id="edge2" class="edge">
<title>dir_94fe450d7509a69caa22c7b9bc339a62&#45;&gt;dir_f3e54dd29e621d563099d452e62da9f8</title>
<path fill="none" stroke="black" d="M123.63,-87.7C118.28,-79.56 111.8,-69.69 105.89,-60.7"/>
<polygon fill="black" stroke="black" points="108.66,-58.54 100.24,-52.1 102.81,-62.38 108.66,-58.54"/>
<g id="a_edge2&#45;headlabel"><a xlink:href="dir_000040_000113.html" target="_top" xlink:title="5">
<text text-anchor="middle" x="113" y="-57.48" font-family="Helvetica,sans-Serif" font-size="10.00">5</text>
</a>
</g>
</g>
<!-- dir_d44c64559bbebec7f509842c48db8b23 -->
<g id="node7" class="node">
<title>dir_d44c64559bbebec7f509842c48db8b23</title>
<g id="a_node7"><a xlink:href="dir_d44c64559bbebec7f509842c48db8b23.html" target="_top" xlink:title="include">
<polygon fill="none" stroke="#404040" points="310,-52 256,-52 256,-16 310,-16 310,-52"/>
<text text-anchor="middle" x="283" y="-31.5" font-family="Helvetica,sans-Serif" font-size="10.00">include</text>
</a>
</g>
</g>
<!-- dir_94fe450d7509a69caa22c7b9bc339a62&#45;&gt;dir_d44c64559bbebec7f509842c48db8b23 -->
<g id="edge1" class="edge">
<title>dir_94fe450d7509a69caa22c7b9bc339a62&#45;&gt;dir_d44c64559bbebec7f509842c48db8b23</title>
<path fill="none" stroke="black" d="M162.23,-93.37C183.97,-83.93 215.38,-69.96 246.48,-54.69"/>
<polygon fill="black" stroke="black" points="248.27,-57.71 255.68,-50.13 245.16,-51.44 248.27,-57.71"/>
<g id="a_edge1&#45;headlabel"><a xlink:href="dir_000040_000047.html" target="_top" xlink:title="5">
<text text-anchor="middle" x="246.31" y="-59.35" font-family="Helvetica,sans-Serif" font-size="10.00">5</text>
</a>
</g>
</g>
<!-- dir_f36dd6b9fac7edd4bbb7482a40f5ea50 -->
<g id="node5" class="node">
<title>dir_f36dd6b9fac7edd4bbb7482a40f5ea50</title>
<g id="a_node5"><a xlink:href="dir_f36dd6b9fac7edd4bbb7482a40f5ea50.html" target="_top" xlink:title="platform">
<polygon fill="#a2b4d6" stroke="#404040" points="90,-124 36,-124 36,-88 90,-88 90,-124"/>
<text text-anchor="middle" x="63" y="-103.5" font-family="Helvetica,sans-Serif" font-size="10.00">platform</text>
</a>
</g>
</g>
<!-- dir_997db13a0f767278426e906412983c64 -->
<g id="node6" class="node">
<title>dir_997db13a0f767278426e906412983c64</title>
<g id="a_node6"><a xlink:href="dir_997db13a0f767278426e906412983c64.html" target="_top" xlink:title="src">
<polygon fill="#a2b4d6" stroke="#404040" points="78,-196 24,-196 24,-160 78,-160 78,-196"/>
<text text-anchor="middle" x="51" y="-175.5" font-family="Helvetica,sans-Serif" font-size="10.00">src</text>
</a>
</g>
</g>
<!-- dir_f36dd6b9fac7edd4bbb7482a40f5ea50&#45;&gt;dir_997db13a0f767278426e906412983c64 -->
<g id="edge3" class="edge">
<title>dir_f36dd6b9fac7edd4bbb7482a40f5ea50&#45;&gt;dir_997db13a0f767278426e906412983c64</title>
<path fill="none" stroke="black" d="M65.96,-124.1C65.44,-131.88 64.07,-141.26 62.23,-149.95"/>
<polygon fill="black" stroke="black" points="58.82,-149.16 59.88,-159.7 65.63,-150.79 58.82,-149.16"/>
<g id="a_edge3&#45;headlabel"><a xlink:href="dir_000052_000089.html" target="_top" xlink:title="2">
<text text-anchor="middle" x="56.9" y="-142.5" font-family="Helvetica,sans-Serif" font-size="10.00">2</text>
</a>
</g>
</g>
<!-- dir_997db13a0f767278426e906412983c64&#45;&gt;dir_f3e54dd29e621d563099d452e62da9f8 -->
<g id="edge7" class="edge">
<title>dir_997db13a0f767278426e906412983c64&#45;&gt;dir_f3e54dd29e621d563099d452e62da9f8</title>
<path fill="none" stroke="black" d="M39.75,-159.7C28.24,-139.63 13.76,-105.97 27,-80 32.76,-68.71 42.82,-59.58 53.19,-52.58"/>
<polygon fill="black" stroke="black" points="55.22,-55.44 61.88,-47.2 51.54,-49.49 55.22,-55.44"/>
<g id="a_edge7&#45;headlabel"><a xlink:href="dir_000089_000113.html" target="_top" xlink:title="3">
<text text-anchor="middle" x="53.66" y="-57.25" font-family="Helvetica,sans-Serif" font-size="10.00">3</text>
</a>
</g>
</g>
<!-- dir_997db13a0f767278426e906412983c64&#45;&gt;dir_94fe450d7509a69caa22c7b9bc339a62 -->
<g id="edge4" class="edge">
<title>dir_997db13a0f767278426e906412983c64&#45;&gt;dir_94fe450d7509a69caa22c7b9bc339a62</title>
<path fill="none" stroke="black" d="M71.76,-159.7C82.24,-150.97 95.11,-140.24 106.5,-130.75"/>
<polygon fill="black" stroke="black" points="109.03,-133.19 114.47,-124.1 104.55,-127.82 109.03,-133.19"/>
<g id="a_edge4&#45;headlabel"><a xlink:href="dir_000089_000040.html" target="_top" xlink:title="19">
<text text-anchor="middle" x="108.09" y="-135.18" font-family="Helvetica,sans-Serif" font-size="10.00">19</text>
</a>
</g>
</g>
<!-- dir_997db13a0f767278426e906412983c64&#45;&gt;dir_f36dd6b9fac7edd4bbb7482a40f5ea50 -->
<g id="edge6" class="edge">
<title>dir_997db13a0f767278426e906412983c64&#45;&gt;dir_f36dd6b9fac7edd4bbb7482a40f5ea50</title>
<path fill="none" stroke="black" d="M48.05,-159.7C48.58,-151.9 49.97,-142.51 51.82,-133.83"/>
<polygon fill="black" stroke="black" points="55.22,-134.65 54.17,-124.1 48.42,-133 55.22,-134.65"/>
<g id="a_edge6&#45;headlabel"><a xlink:href="dir_000089_000052.html" target="_top" xlink:title="1">
<text text-anchor="middle" x="57.13" y="-136.31" font-family="Helvetica,sans-Serif" font-size="10.00">1</text>
</a>
</g>
</g>
<!-- dir_997db13a0f767278426e906412983c64&#45;&gt;dir_d44c64559bbebec7f509842c48db8b23 -->
<g id="edge5" class="edge">
<title>dir_997db13a0f767278426e906412983c64&#45;&gt;dir_d44c64559bbebec7f509842c48db8b23</title>
<path fill="none" stroke="black" d="M78.08,-164.08C81.08,-162.69 84.1,-161.31 87,-160 124.04,-143.33 136.12,-144.82 171,-124 202.72,-105.07 235.39,-78.09 257.19,-58.81"/>
<polygon fill="black" stroke="black" points="259.59,-61.36 264.71,-52.08 254.93,-56.14 259.59,-61.36"/>
<g id="a_edge5&#45;headlabel"><a xlink:href="dir_000089_000047.html" target="_top" xlink:title="2">
<text text-anchor="middle" x="258.81" y="-63.37" font-family="Helvetica,sans-Serif" font-size="10.00">2</text>
</a>
</g>
</g>
</g>
</svg>
