<?xml version="1.0" encoding="UTF-8" standalone="no"?>
<!DOCTYPE svg PUBLIC "-//W3C//DTD SVG 1.1//EN"
 "http://www.w3.org/Graphics/SVG/1.1/DTD/svg11.dtd">
<!-- Generated by graphviz version 2.43.0 (0)
 -->
<!-- Title: applications/zpc/components/zwave_smartstart_management Pages: 1 -->
<svg width="338pt" height="175pt"
 viewBox="0.00 0.00 338.00 175.00" xmlns="http://www.w3.org/2000/svg" xmlns:xlink="http://www.w3.org/1999/xlink">
<g id="graph0" class="graph" transform="scale(1 1) rotate(0) translate(4 171)">
<title>applications/zpc/components/zwave_smartstart_management</title>
<g id="clust1" class="cluster">
<title>clusterdir_7619deabe98ce62d677c018eac259f19</title>
<g id="a_clust1"><a xlink:href="dir_7619deabe98ce62d677c018eac259f19.html" target="_top" xlink:title="components">
<polygon fill="#edf0f7" stroke="#7f7f7f" stroke-dasharray="5,2" points="8,-8 8,-159 268,-159 268,-8 8,-8"/>
<text text-anchor="middle" x="138" y="-147" font-family="Helvetica,sans-Serif" font-size="10.00">components</text>
</a>
</g>
</g>
<g id="clust2" class="cluster">
<title>clusterdir_4280e0bf143a41fe6bb6f470b1e054fe</title>
<g id="a_clust2"><a xlink:href="dir_4280e0bf143a41fe6bb6f470b1e054fe.html" target="_top">
<polygon fill="#edf0f7" stroke="#404040" stroke-width="2" points="16,-80 16,-132 260,-132 260,-80 16,-80"/>
</a>
</g>
</g>
<!-- dir_f3e54dd29e621d563099d452e62da9f8 -->
<g id="node1" class="node">
<title>dir_f3e54dd29e621d563099d452e62da9f8</title>
<g id="a_node1"><a xlink:href="dir_f3e54dd29e621d563099d452e62da9f8.html" target="_top" xlink:title="zwave">
<polygon fill="#a2b4d6" stroke="red" points="78,-52 24,-52 24,-16 78,-16 78,-52"/>
<text text-anchor="middle" x="51" y="-31.5" font-family="Helvetica,sans-Serif" font-size="10.00">zwave</text>
</a>
</g>
</g>
<!-- dir_4280e0bf143a41fe6bb6f470b1e054fe -->
<g id="node2" class="node">
<title>dir_4280e0bf143a41fe6bb6f470b1e054fe</title>
<text text-anchor="middle" x="174" y="-103.5" font-family="Helvetica,sans-Serif" font-size="10.00">zwave_smartstart_management</text>
</g>
<!-- dir_c63be1ccab009ccaf42debf6d312f964 -->
<g id="node3" class="node">
<title>dir_c63be1ccab009ccaf42debf6d312f964</title>
<g id="a_node3"><a xlink:href="dir_c63be1ccab009ccaf42debf6d312f964.html" target="_top" xlink:title="include">
<polygon fill="#a2b4d6" stroke="#404040" points="78,-124 24,-124 24,-88 78,-88 78,-124"/>
<text text-anchor="middle" x="51" y="-103.5" font-family="Helvetica,sans-Serif" font-size="10.00">include</text>
</a>
</g>
</g>
<!-- dir_c63be1ccab009ccaf42debf6d312f964&#45;&gt;dir_f3e54dd29e621d563099d452e62da9f8 -->
<g id="edge2" class="edge">
<title>dir_c63be1ccab009ccaf42debf6d312f964&#45;&gt;dir_f3e54dd29e621d563099d452e62da9f8</title>
<path fill="none" stroke="black" d="M51,-87.7C51,-79.98 51,-70.71 51,-62.11"/>
<polygon fill="black" stroke="black" points="54.5,-62.1 51,-52.1 47.5,-62.1 54.5,-62.1"/>
<g id="a_edge2&#45;headlabel"><a xlink:href="dir_000043_000113.html" target="_top" xlink:title="1">
<text text-anchor="middle" x="57.34" y="-63.2" font-family="Helvetica,sans-Serif" font-size="10.00">1</text>
</a>
</g>
</g>
<!-- dir_d44c64559bbebec7f509842c48db8b23 -->
<g id="node4" class="node">
<title>dir_d44c64559bbebec7f509842c48db8b23</title>
<g id="a_node4"><a xlink:href="dir_d44c64559bbebec7f509842c48db8b23.html" target="_top" xlink:title="include">
<polygon fill="none" stroke="#404040" points="330,-52 276,-52 276,-16 330,-16 330,-52"/>
<text text-anchor="middle" x="303" y="-31.5" font-family="Helvetica,sans-Serif" font-size="10.00">include</text>
</a>
</g>
</g>
<!-- dir_c63be1ccab009ccaf42debf6d312f964&#45;&gt;dir_d44c64559bbebec7f509842c48db8b23 -->
<g id="edge1" class="edge">
<title>dir_c63be1ccab009ccaf42debf6d312f964&#45;&gt;dir_d44c64559bbebec7f509842c48db8b23</title>
<path fill="none" stroke="black" d="M72.17,-87.96C76.83,-84.89 81.91,-82.03 87,-80 161.1,-50.52 190.76,-76.32 265.95,-53.73"/>
<polygon fill="black" stroke="black" points="267.4,-56.94 275.85,-50.56 265.26,-50.28 267.4,-56.94"/>
<g id="a_edge1&#45;headlabel"><a xlink:href="dir_000043_000047.html" target="_top" xlink:title="1">
<text text-anchor="middle" x="264.84" y="-58.24" font-family="Helvetica,sans-Serif" font-size="10.00">1</text>
</a>
</g>
</g>
</g>
</svg>
