<?xml version="1.0" encoding="UTF-8" standalone="no"?>
<!DOCTYPE svg PUBLIC "-//W3C//DTD SVG 1.1//EN"
 "http://www.w3.org/Graphics/SVG/1.1/DTD/svg11.dtd">
<!-- Generated by graphviz version 2.43.0 (0)
 -->
<!-- Title: applications/zpc/components/zwave/zwave_transports/multicast_follow_ups_transport/src Pages: 1 -->
<svg width="650pt" height="167pt"
 viewBox="0.00 0.00 649.50 167.00" xmlns="http://www.w3.org/2000/svg" xmlns:xlink="http://www.w3.org/1999/xlink">
<g id="graph0" class="graph" transform="scale(1 1) rotate(0) translate(4 163)">
<title>applications/zpc/components/zwave/zwave_transports/multicast_follow_ups_transport/src</title>
<g id="clust1" class="cluster">
<title>clusterdir_99a79c521bb99507f14d74a59d5db713</title>
<g id="a_clust1"><a xlink:href="dir_99a79c521bb99507f14d74a59d5db713.html" target="_top" xlink:title="multicast_follow_ups_transport">
<polygon fill="#edf0f7" stroke="#7f7f7f" stroke-dasharray="5,2" points="8,-8 8,-151 160,-151 160,-8 8,-8"/>
<text text-anchor="middle" x="84" y="-139" font-family="Helvetica,sans-Serif" font-size="10.00">multicast_follow_ups_transport</text>
</a>
</g>
</g>
<!-- dir_041a8df8e8263536fb9c4fefe1894d11 -->
<g id="node1" class="node">
<title>dir_041a8df8e8263536fb9c4fefe1894d11</title>
<g id="a_node1"><a xlink:href="dir_041a8df8e8263536fb9c4fefe1894d11.html" target="_top" xlink:title="include">
<polygon fill="#a2b4d6" stroke="#404040" points="150,-52 96,-52 96,-16 150,-16 150,-52"/>
<text text-anchor="middle" x="123" y="-31.5" font-family="Helvetica,sans-Serif" font-size="10.00">include</text>
</a>
</g>
</g>
<!-- dir_50e33d1db622111cf49307a39d1a4b0b -->
<g id="node2" class="node">
<title>dir_50e33d1db622111cf49307a39d1a4b0b</title>
<g id="a_node2"><a xlink:href="dir_50e33d1db622111cf49307a39d1a4b0b.html" target="_top" xlink:title="src">
<polygon fill="#edf0f7" stroke="#404040" stroke-width="2" points="152,-124 98,-124 98,-88 152,-88 152,-124"/>
<text text-anchor="middle" x="125" y="-103.5" font-family="Helvetica,sans-Serif" font-size="10.00">src</text>
</a>
</g>
</g>
<!-- dir_50e33d1db622111cf49307a39d1a4b0b&#45;&gt;dir_041a8df8e8263536fb9c4fefe1894d11 -->
<g id="edge1" class="edge">
<title>dir_50e33d1db622111cf49307a39d1a4b0b&#45;&gt;dir_041a8df8e8263536fb9c4fefe1894d11</title>
<path fill="none" stroke="black" d="M124.51,-87.7C124.29,-79.98 124.02,-70.71 123.77,-62.11"/>
<polygon fill="black" stroke="black" points="127.27,-62 123.49,-52.1 120.28,-62.2 127.27,-62"/>
<g id="a_edge1&#45;headlabel"><a xlink:href="dir_000079_000031.html" target="_top" xlink:title="1">
<text text-anchor="middle" x="130.21" y="-63.01" font-family="Helvetica,sans-Serif" font-size="10.00">1</text>
</a>
</g>
</g>
<!-- dir_3a7f05f1ae2c2d2f6fc896203c15febc -->
<g id="node3" class="node">
<title>dir_3a7f05f1ae2c2d2f6fc896203c15febc</title>
<g id="a_node3"><a xlink:href="dir_3a7f05f1ae2c2d2f6fc896203c15febc.html" target="_top" xlink:title="zwave_definitions">
<polygon fill="none" stroke="red" stroke-dasharray="5,2" points="263.5,-52 168.5,-52 168.5,-16 263.5,-16 263.5,-52"/>
<text text-anchor="middle" x="216" y="-31.5" font-family="Helvetica,sans-Serif" font-size="10.00">zwave_definitions</text>
</a>
</g>
</g>
<!-- dir_50e33d1db622111cf49307a39d1a4b0b&#45;&gt;dir_3a7f05f1ae2c2d2f6fc896203c15febc -->
<g id="edge2" class="edge">
<title>dir_50e33d1db622111cf49307a39d1a4b0b&#45;&gt;dir_3a7f05f1ae2c2d2f6fc896203c15febc</title>
<path fill="none" stroke="black" d="M147.49,-87.7C158.96,-78.88 173.06,-68.03 185.48,-58.47"/>
<polygon fill="black" stroke="black" points="187.97,-60.98 193.76,-52.1 183.7,-55.43 187.97,-60.98"/>
<g id="a_edge2&#45;headlabel"><a xlink:href="dir_000079_000119.html" target="_top" xlink:title="2">
<text text-anchor="middle" x="186.85" y="-62.92" font-family="Helvetica,sans-Serif" font-size="10.00">2</text>
</a>
</g>
</g>
<!-- dir_3fdbfed0850fd95dbe3b2b1a1a1ffa0e -->
<g id="node4" class="node">
<title>dir_3fdbfed0850fd95dbe3b2b1a1a1ffa0e</title>
<g id="a_node4"><a xlink:href="dir_3fdbfed0850fd95dbe3b2b1a1a1ffa0e.html" target="_top" xlink:title="zwave_controller">
<polygon fill="none" stroke="red" stroke-dasharray="5,2" points="372,-52 282,-52 282,-16 372,-16 372,-52"/>
<text text-anchor="middle" x="327" y="-31.5" font-family="Helvetica,sans-Serif" font-size="10.00">zwave_controller</text>
</a>
</g>
</g>
<!-- dir_50e33d1db622111cf49307a39d1a4b0b&#45;&gt;dir_3fdbfed0850fd95dbe3b2b1a1a1ffa0e -->
<g id="edge3" class="edge">
<title>dir_50e33d1db622111cf49307a39d1a4b0b&#45;&gt;dir_3fdbfed0850fd95dbe3b2b1a1a1ffa0e</title>
<path fill="none" stroke="black" d="M152.24,-95.56C182.82,-84.96 233.23,-67.5 272.07,-54.04"/>
<polygon fill="black" stroke="black" points="273.37,-57.29 281.68,-50.71 271.08,-50.67 273.37,-57.29"/>
<g id="a_edge3&#45;headlabel"><a xlink:href="dir_000079_000118.html" target="_top" xlink:title="2">
<text text-anchor="middle" x="270.91" y="-58.65" font-family="Helvetica,sans-Serif" font-size="10.00">2</text>
</a>
</g>
</g>
<!-- dir_631bcc7ffdbfdf79dfcc6fd58e2e4c5c -->
<g id="node5" class="node">
<title>dir_631bcc7ffdbfdf79dfcc6fd58e2e4c5c</title>
<g id="a_node5"><a xlink:href="dir_631bcc7ffdbfdf79dfcc6fd58e2e4c5c.html" target="_top" xlink:title="zwave_tx_groups">
<polygon fill="none" stroke="red" stroke-dasharray="5,2" points="483.5,-52 390.5,-52 390.5,-16 483.5,-16 483.5,-52"/>
<text text-anchor="middle" x="437" y="-31.5" font-family="Helvetica,sans-Serif" font-size="10.00">zwave_tx_groups</text>
</a>
</g>
</g>
<!-- dir_50e33d1db622111cf49307a39d1a4b0b&#45;&gt;dir_631bcc7ffdbfdf79dfcc6fd58e2e4c5c -->
<g id="edge4" class="edge">
<title>dir_50e33d1db622111cf49307a39d1a4b0b&#45;&gt;dir_631bcc7ffdbfdf79dfcc6fd58e2e4c5c</title>
<path fill="none" stroke="black" d="M152.09,-100.23C197.36,-92.07 291.4,-74.37 380.61,-51.98"/>
<polygon fill="black" stroke="black" points="381.5,-55.36 390.34,-49.51 379.78,-48.57 381.5,-55.36"/>
<g id="a_edge4&#45;headlabel"><a xlink:href="dir_000079_000126.html" target="_top" xlink:title="1">
<text text-anchor="middle" x="378.72" y="-56.5" font-family="Helvetica,sans-Serif" font-size="10.00">1</text>
</a>
</g>
</g>
<!-- dir_9376f99cbc649c5813b13d9244dc2fa3 -->
<g id="node6" class="node">
<title>dir_9376f99cbc649c5813b13d9244dc2fa3</title>
<g id="a_node6"><a xlink:href="dir_9376f99cbc649c5813b13d9244dc2fa3.html" target="_top" xlink:title="zwave_api">
<polygon fill="none" stroke="red" stroke-dasharray="5,2" points="564.5,-52 501.5,-52 501.5,-16 564.5,-16 564.5,-52"/>
<text text-anchor="middle" x="533" y="-31.5" font-family="Helvetica,sans-Serif" font-size="10.00">zwave_api</text>
</a>
</g>
</g>
<!-- dir_50e33d1db622111cf49307a39d1a4b0b&#45;&gt;dir_9376f99cbc649c5813b13d9244dc2fa3 -->
<g id="edge5" class="edge">
<title>dir_50e33d1db622111cf49307a39d1a4b0b&#45;&gt;dir_9376f99cbc649c5813b13d9244dc2fa3</title>
<path fill="none" stroke="black" d="M152.28,-103.49C212.49,-99.64 361.17,-87.36 491.63,-52.01"/>
<polygon fill="black" stroke="black" points="492.68,-55.35 501.39,-49.31 490.82,-48.6 492.68,-55.35"/>
<g id="a_edge5&#45;headlabel"><a xlink:href="dir_000079_000114.html" target="_top" xlink:title="2">
<text text-anchor="middle" x="489.98" y="-56.54" font-family="Helvetica,sans-Serif" font-size="10.00">2</text>
</a>
</g>
</g>
<!-- dir_99fcbcb75e556cb0c2dfb06eb3d295b0 -->
<g id="node7" class="node">
<title>dir_99fcbcb75e556cb0c2dfb06eb3d295b0</title>
<g id="a_node7"><a xlink:href="dir_99fcbcb75e556cb0c2dfb06eb3d295b0.html" target="_top" xlink:title="zwave_tx">
<polygon fill="none" stroke="red" stroke-dasharray="5,2" points="641.5,-52 582.5,-52 582.5,-16 641.5,-16 641.5,-52"/>
<text text-anchor="middle" x="612" y="-31.5" font-family="Helvetica,sans-Serif" font-size="10.00">zwave_tx</text>
</a>
</g>
</g>
<!-- dir_50e33d1db622111cf49307a39d1a4b0b&#45;&gt;dir_99fcbcb75e556cb0c2dfb06eb3d295b0 -->
<g id="edge6" class="edge">
<title>dir_50e33d1db622111cf49307a39d1a4b0b&#45;&gt;dir_99fcbcb75e556cb0c2dfb06eb3d295b0</title>
<path fill="none" stroke="black" d="M152.11,-104.64C221.47,-103.12 410.73,-95.25 572.79,-51.88"/>
<polygon fill="black" stroke="black" points="573.72,-55.25 582.45,-49.24 571.88,-48.5 573.72,-55.25"/>
<g id="a_edge6&#45;headlabel"><a xlink:href="dir_000079_000125.html" target="_top" xlink:title="1">
<text text-anchor="middle" x="571" y="-56.44" font-family="Helvetica,sans-Serif" font-size="10.00">1</text>
</a>
</g>
</g>
</g>
</svg>
