<?xml version="1.0" encoding="UTF-8" standalone="no"?>
<!DOCTYPE svg PUBLIC "-//W3C//DTD SVG 1.1//EN"
 "http://www.w3.org/Graphics/SVG/1.1/DTD/svg11.dtd">
<!-- Generated by graphviz version 2.43.0 (0)
 -->
<!-- Title: applications/zpc/components/zwave/zwave_transports/zwave_api_transport Pages: 1 -->
<svg width="730pt" height="231pt"
 viewBox="0.00 0.00 729.66 231.00" xmlns="http://www.w3.org/2000/svg" xmlns:xlink="http://www.w3.org/1999/xlink">
<g id="graph0" class="graph" transform="scale(1 1) rotate(0) translate(4 227)">
<title>applications/zpc/components/zwave/zwave_transports/zwave_api_transport</title>
<g id="clust1" class="cluster">
<title>clusterdir_f4b467f0a960798c9a570e0236e928b5</title>
<g id="a_clust1"><a xlink:href="dir_f4b467f0a960798c9a570e0236e928b5.html" target="_top" xlink:title="zwave_transports">
<polygon fill="#edf0f7" stroke="#7f7f7f" stroke-dasharray="5,2" points="8,-56 8,-215 219,-215 219,-56 8,-56"/>
<text text-anchor="middle" x="113.5" y="-203" font-family="Helvetica,sans-Serif" font-size="10.00">zwave_transports</text>
</a>
</g>
</g>
<g id="clust2" class="cluster">
<title>clusterdir_8c3c1d9796d048ce4531ea5496f33374</title>
<g id="a_clust2"><a xlink:href="dir_8c3c1d9796d048ce4531ea5496f33374.html" target="_top">
<polygon fill="#edf0f7" stroke="#404040" stroke-width="2" points="16,-64 16,-188 211,-188 211,-64 16,-64"/>
</a>
</g>
</g>
<!-- dir_8c3c1d9796d048ce4531ea5496f33374 -->
<g id="node1" class="node">
<title>dir_8c3c1d9796d048ce4531ea5496f33374</title>
<text text-anchor="middle" x="150" y="-159.5" font-family="Helvetica,sans-Serif" font-size="10.00">zwave_api_transport</text>
</g>
<!-- dir_b44e3426de09dc6bd82d7016a45fc3ac -->
<g id="node2" class="node">
<title>dir_b44e3426de09dc6bd82d7016a45fc3ac</title>
<g id="a_node2"><a xlink:href="dir_b44e3426de09dc6bd82d7016a45fc3ac.html" target="_top" xlink:title="include">
<polygon fill="#a2b4d6" stroke="#404040" points="140,-108 86,-108 86,-72 140,-72 140,-108"/>
<text text-anchor="middle" x="113" y="-87.5" font-family="Helvetica,sans-Serif" font-size="10.00">include</text>
</a>
</g>
</g>
<!-- dir_99fcbcb75e556cb0c2dfb06eb3d295b0 -->
<g id="node9" class="node">
<title>dir_99fcbcb75e556cb0c2dfb06eb3d295b0</title>
<g id="a_node9"><a xlink:href="dir_99fcbcb75e556cb0c2dfb06eb3d295b0.html" target="_top" xlink:title="zwave_tx">
<polygon fill="none" stroke="red" stroke-dasharray="5,2" points="487.5,-36 428.5,-36 428.5,0 487.5,0 487.5,-36"/>
<text text-anchor="middle" x="458" y="-15.5" font-family="Helvetica,sans-Serif" font-size="10.00">zwave_tx</text>
</a>
</g>
</g>
<!-- dir_b44e3426de09dc6bd82d7016a45fc3ac&#45;&gt;dir_99fcbcb75e556cb0c2dfb06eb3d295b0 -->
<g id="edge1" class="edge">
<title>dir_b44e3426de09dc6bd82d7016a45fc3ac&#45;&gt;dir_99fcbcb75e556cb0c2dfb06eb3d295b0</title>
<path fill="none" stroke="black" d="M140.15,-79.33C161.38,-72.06 191.77,-62.31 219,-56 288.21,-39.96 370.34,-28.96 418.08,-23.35"/>
<polygon fill="black" stroke="black" points="418.76,-26.79 428.3,-22.16 417.96,-19.84 418.76,-26.79"/>
<g id="a_edge1&#45;headlabel"><a xlink:href="dir_000036_000125.html" target="_top" xlink:title="1">
<text text-anchor="middle" x="415.52" y="-27.52" font-family="Helvetica,sans-Serif" font-size="10.00">1</text>
</a>
</g>
</g>
<!-- dir_d44c64559bbebec7f509842c48db8b23 -->
<g id="node10" class="node">
<title>dir_d44c64559bbebec7f509842c48db8b23</title>
<g id="a_node10"><a xlink:href="dir_d44c64559bbebec7f509842c48db8b23.html" target="_top" xlink:title="include">
<polygon fill="none" stroke="#404040" points="140,-36 86,-36 86,0 140,0 140,-36"/>
<text text-anchor="middle" x="113" y="-15.5" font-family="Helvetica,sans-Serif" font-size="10.00">include</text>
</a>
</g>
</g>
<!-- dir_b44e3426de09dc6bd82d7016a45fc3ac&#45;&gt;dir_d44c64559bbebec7f509842c48db8b23 -->
<g id="edge2" class="edge">
<title>dir_b44e3426de09dc6bd82d7016a45fc3ac&#45;&gt;dir_d44c64559bbebec7f509842c48db8b23</title>
<path fill="none" stroke="black" d="M113,-71.7C113,-63.98 113,-54.71 113,-46.11"/>
<polygon fill="black" stroke="black" points="116.5,-46.1 113,-36.1 109.5,-46.1 116.5,-46.1"/>
<g id="a_edge2&#45;headlabel"><a xlink:href="dir_000036_000047.html" target="_top" xlink:title="1">
<text text-anchor="middle" x="119.34" y="-47.2" font-family="Helvetica,sans-Serif" font-size="10.00">1</text>
</a>
</g>
</g>
<!-- dir_2e322de74f74e20871179f1280ce3dc9 -->
<g id="node3" class="node">
<title>dir_2e322de74f74e20871179f1280ce3dc9</title>
<g id="a_node3"><a xlink:href="dir_2e322de74f74e20871179f1280ce3dc9.html" target="_top" xlink:title="src">
<polygon fill="#a2b4d6" stroke="#404040" points="78,-180 24,-180 24,-144 78,-144 78,-180"/>
<text text-anchor="middle" x="51" y="-159.5" font-family="Helvetica,sans-Serif" font-size="10.00">src</text>
</a>
</g>
</g>
<!-- dir_2e322de74f74e20871179f1280ce3dc9&#45;&gt;dir_b44e3426de09dc6bd82d7016a45fc3ac -->
<g id="edge9" class="edge">
<title>dir_2e322de74f74e20871179f1280ce3dc9&#45;&gt;dir_b44e3426de09dc6bd82d7016a45fc3ac</title>
<path fill="none" stroke="black" d="M66.33,-143.7C73.76,-135.3 82.82,-125.07 90.98,-115.86"/>
<polygon fill="black" stroke="black" points="93.84,-117.91 97.85,-108.1 88.6,-113.27 93.84,-117.91"/>
<g id="a_edge9&#45;headlabel"><a xlink:href="dir_000085_000036.html" target="_top" xlink:title="1">
<text text-anchor="middle" x="93.58" y="-119.98" font-family="Helvetica,sans-Serif" font-size="10.00">1</text>
</a>
</g>
</g>
<!-- dir_0ae112d56e74946f02cfe5bffaa8cbc8 -->
<g id="node4" class="node">
<title>dir_0ae112d56e74946f02cfe5bffaa8cbc8</title>
<g id="a_node4"><a xlink:href="dir_0ae112d56e74946f02cfe5bffaa8cbc8.html" target="_top" xlink:title="zwave_rx">
<polygon fill="none" stroke="red" stroke-dasharray="5,2" points="286.5,-108 227.5,-108 227.5,-72 286.5,-72 286.5,-108"/>
<text text-anchor="middle" x="257" y="-87.5" font-family="Helvetica,sans-Serif" font-size="10.00">zwave_rx</text>
</a>
</g>
</g>
<!-- dir_2e322de74f74e20871179f1280ce3dc9&#45;&gt;dir_0ae112d56e74946f02cfe5bffaa8cbc8 -->
<g id="edge3" class="edge">
<title>dir_2e322de74f74e20871179f1280ce3dc9&#45;&gt;dir_0ae112d56e74946f02cfe5bffaa8cbc8</title>
<path fill="none" stroke="black" d="M78.28,-147.89C81.53,-146.51 84.82,-145.17 88,-144 143.04,-123.69 159.51,-127.03 215,-108 215.88,-107.7 216.77,-107.39 217.66,-107.07"/>
<polygon fill="black" stroke="black" points="219.17,-110.24 227.32,-103.48 216.73,-103.68 219.17,-110.24"/>
<g id="a_edge3&#45;headlabel"><a xlink:href="dir_000085_000121.html" target="_top" xlink:title="1">
<text text-anchor="middle" x="216.79" y="-111.66" font-family="Helvetica,sans-Serif" font-size="10.00">1</text>
</a>
</g>
</g>
<!-- dir_3a7f05f1ae2c2d2f6fc896203c15febc -->
<g id="node5" class="node">
<title>dir_3a7f05f1ae2c2d2f6fc896203c15febc</title>
<g id="a_node5"><a xlink:href="dir_3a7f05f1ae2c2d2f6fc896203c15febc.html" target="_top" xlink:title="zwave_definitions">
<polygon fill="none" stroke="red" stroke-dasharray="5,2" points="399.5,-108 304.5,-108 304.5,-72 399.5,-72 399.5,-108"/>
<text text-anchor="middle" x="352" y="-87.5" font-family="Helvetica,sans-Serif" font-size="10.00">zwave_definitions</text>
</a>
</g>
</g>
<!-- dir_2e322de74f74e20871179f1280ce3dc9&#45;&gt;dir_3a7f05f1ae2c2d2f6fc896203c15febc -->
<g id="edge4" class="edge">
<title>dir_2e322de74f74e20871179f1280ce3dc9&#45;&gt;dir_3a7f05f1ae2c2d2f6fc896203c15febc</title>
<path fill="none" stroke="black" d="M78.17,-147.56C81.43,-146.23 84.76,-145.01 88,-144 174.54,-117.13 202.79,-128.79 294.47,-108.18"/>
<polygon fill="black" stroke="black" points="295.5,-111.54 304.45,-105.87 293.92,-104.72 295.5,-111.54"/>
<g id="a_edge4&#45;headlabel"><a xlink:href="dir_000085_000119.html" target="_top" xlink:title="3">
<text text-anchor="middle" x="292.64" y="-112.62" font-family="Helvetica,sans-Serif" font-size="10.00">3</text>
</a>
</g>
</g>
<!-- dir_3fdbfed0850fd95dbe3b2b1a1a1ffa0e -->
<g id="node6" class="node">
<title>dir_3fdbfed0850fd95dbe3b2b1a1a1ffa0e</title>
<g id="a_node6"><a xlink:href="dir_3fdbfed0850fd95dbe3b2b1a1a1ffa0e.html" target="_top" xlink:title="zwave_controller">
<polygon fill="none" stroke="red" stroke-dasharray="5,2" points="508,-108 418,-108 418,-72 508,-72 508,-108"/>
<text text-anchor="middle" x="463" y="-87.5" font-family="Helvetica,sans-Serif" font-size="10.00">zwave_controller</text>
</a>
</g>
</g>
<!-- dir_2e322de74f74e20871179f1280ce3dc9&#45;&gt;dir_3fdbfed0850fd95dbe3b2b1a1a1ffa0e -->
<g id="edge5" class="edge">
<title>dir_2e322de74f74e20871179f1280ce3dc9&#45;&gt;dir_3fdbfed0850fd95dbe3b2b1a1a1ffa0e</title>
<path fill="none" stroke="black" d="M78.11,-147.37C81.39,-146.07 84.73,-144.91 88,-144 223.21,-106.41 266.6,-136.28 407.9,-107.97"/>
<polygon fill="black" stroke="black" points="408.71,-111.38 417.8,-105.93 407.29,-104.52 408.71,-111.38"/>
<g id="a_edge5&#45;headlabel"><a xlink:href="dir_000085_000118.html" target="_top" xlink:title="2">
<text text-anchor="middle" x="405.77" y="-112.39" font-family="Helvetica,sans-Serif" font-size="10.00">2</text>
</a>
</g>
</g>
<!-- dir_631bcc7ffdbfdf79dfcc6fd58e2e4c5c -->
<g id="node7" class="node">
<title>dir_631bcc7ffdbfdf79dfcc6fd58e2e4c5c</title>
<g id="a_node7"><a xlink:href="dir_631bcc7ffdbfdf79dfcc6fd58e2e4c5c.html" target="_top" xlink:title="zwave_tx_groups">
<polygon fill="none" stroke="red" stroke-dasharray="5,2" points="619.5,-108 526.5,-108 526.5,-72 619.5,-72 619.5,-108"/>
<text text-anchor="middle" x="573" y="-87.5" font-family="Helvetica,sans-Serif" font-size="10.00">zwave_tx_groups</text>
</a>
</g>
</g>
<!-- dir_2e322de74f74e20871179f1280ce3dc9&#45;&gt;dir_631bcc7ffdbfdf79dfcc6fd58e2e4c5c -->
<g id="edge6" class="edge">
<title>dir_2e322de74f74e20871179f1280ce3dc9&#45;&gt;dir_631bcc7ffdbfdf79dfcc6fd58e2e4c5c</title>
<path fill="none" stroke="black" d="M78.09,-147.28C81.37,-146 84.72,-144.86 88,-144 269.88,-96.16 327.13,-142.36 516.44,-107.82"/>
<polygon fill="black" stroke="black" points="517.25,-111.22 526.43,-105.94 515.96,-104.34 517.25,-111.22"/>
<g id="a_edge6&#45;headlabel"><a xlink:href="dir_000085_000126.html" target="_top" xlink:title="1">
<text text-anchor="middle" x="514.24" y="-112.18" font-family="Helvetica,sans-Serif" font-size="10.00">1</text>
</a>
</g>
</g>
<!-- dir_9376f99cbc649c5813b13d9244dc2fa3 -->
<g id="node8" class="node">
<title>dir_9376f99cbc649c5813b13d9244dc2fa3</title>
<g id="a_node8"><a xlink:href="dir_9376f99cbc649c5813b13d9244dc2fa3.html" target="_top" xlink:title="zwave_api">
<polygon fill="none" stroke="red" stroke-dasharray="5,2" points="700.5,-108 637.5,-108 637.5,-72 700.5,-72 700.5,-108"/>
<text text-anchor="middle" x="669" y="-87.5" font-family="Helvetica,sans-Serif" font-size="10.00">zwave_api</text>
</a>
</g>
</g>
<!-- dir_2e322de74f74e20871179f1280ce3dc9&#45;&gt;dir_9376f99cbc649c5813b13d9244dc2fa3 -->
<g id="edge7" class="edge">
<title>dir_2e322de74f74e20871179f1280ce3dc9&#45;&gt;dir_9376f99cbc649c5813b13d9244dc2fa3</title>
<path fill="none" stroke="black" d="M78.07,-147.22C81.35,-145.95 84.71,-144.83 88,-144 318.38,-85.53 392.57,-161.77 627.58,-107.86"/>
<polygon fill="black" stroke="black" points="628.52,-111.23 637.45,-105.54 626.91,-104.42 628.52,-111.23"/>
<g id="a_edge7&#45;headlabel"><a xlink:href="dir_000085_000114.html" target="_top" xlink:title="2">
<text text-anchor="middle" x="625.67" y="-112.32" font-family="Helvetica,sans-Serif" font-size="10.00">2</text>
</a>
</g>
</g>
<!-- dir_2e322de74f74e20871179f1280ce3dc9&#45;&gt;dir_99fcbcb75e556cb0c2dfb06eb3d295b0 -->
<g id="edge8" class="edge">
<title>dir_2e322de74f74e20871179f1280ce3dc9&#45;&gt;dir_99fcbcb75e556cb0c2dfb06eb3d295b0</title>
<path fill="none" stroke="black" d="M78.06,-147.19C81.35,-145.93 84.71,-144.82 88,-144 155.17,-127.26 662.48,-158.35 710,-108 725.86,-91.19 725.11,-73.49 710,-56 683.1,-24.86 562.09,-19.44 498.05,-18.8"/>
<polygon fill="black" stroke="black" points="497.93,-15.3 487.91,-18.74 497.89,-22.3 497.93,-15.3"/>
<g id="a_edge8&#45;headlabel"><a xlink:href="dir_000085_000125.html" target="_top" xlink:title="1">
<text text-anchor="middle" x="501.54" y="-9.99" font-family="Helvetica,sans-Serif" font-size="10.00">1</text>
</a>
</g>
</g>
</g>
</svg>
