<?xml version="1.0" encoding="UTF-8" standalone="no"?>
<!DOCTYPE svg PUBLIC "-//W3C//DTD SVG 1.1//EN"
 "http://www.w3.org/Graphics/SVG/1.1/DTD/svg11.dtd">
<!-- Generated by graphviz version 2.43.0 (0)
 -->
<!-- Title: applications/zpc/components/zwave/zwave_tx_scheme_selector Pages: 1 -->
<svg width="597pt" height="247pt"
 viewBox="0.00 0.00 596.50 247.00" xmlns="http://www.w3.org/2000/svg" xmlns:xlink="http://www.w3.org/1999/xlink">
<g id="graph0" class="graph" transform="scale(1 1) rotate(0) translate(4 243)">
<title>applications/zpc/components/zwave/zwave_tx_scheme_selector</title>
<g id="clust1" class="cluster">
<title>clusterdir_f3e54dd29e621d563099d452e62da9f8</title>
<g id="a_clust1"><a xlink:href="dir_f3e54dd29e621d563099d452e62da9f8.html" target="_top" xlink:title="zwave">
<polygon fill="#edf0f7" stroke="#7f7f7f" stroke-dasharray="5,2" points="8,-8 8,-231 515,-231 515,-8 8,-8"/>
<text text-anchor="middle" x="261.5" y="-219" font-family="Helvetica,sans-Serif" font-size="10.00">zwave</text>
</a>
</g>
</g>
<g id="clust2" class="cluster">
<title>clusterdir_a27393278c6967746e623cef03ee3c39</title>
<g id="a_clust2"><a xlink:href="dir_a27393278c6967746e623cef03ee3c39.html" target="_top">
<polygon fill="#edf0f7" stroke="#404040" stroke-width="2" points="16,-80 16,-204 242,-204 242,-80 16,-80"/>
</a>
</g>
</g>
<!-- dir_3a7f05f1ae2c2d2f6fc896203c15febc -->
<g id="node1" class="node">
<title>dir_3a7f05f1ae2c2d2f6fc896203c15febc</title>
<g id="a_node1"><a xlink:href="dir_3a7f05f1ae2c2d2f6fc896203c15febc.html" target="_top" xlink:title="zwave_definitions">
<polygon fill="#a2b4d6" stroke="red" points="111.5,-52 16.5,-52 16.5,-16 111.5,-16 111.5,-52"/>
<text text-anchor="middle" x="64" y="-31.5" font-family="Helvetica,sans-Serif" font-size="10.00">zwave_definitions</text>
</a>
</g>
</g>
<!-- dir_3fdbfed0850fd95dbe3b2b1a1a1ffa0e -->
<g id="node2" class="node">
<title>dir_3fdbfed0850fd95dbe3b2b1a1a1ffa0e</title>
<g id="a_node2"><a xlink:href="dir_3fdbfed0850fd95dbe3b2b1a1a1ffa0e.html" target="_top" xlink:title="zwave_controller">
<polygon fill="#a2b4d6" stroke="red" points="297,-52 207,-52 207,-16 297,-16 297,-52"/>
<text text-anchor="middle" x="252" y="-31.5" font-family="Helvetica,sans-Serif" font-size="10.00">zwave_controller</text>
</a>
</g>
</g>
<!-- dir_4c7246e6a1b2917f2d670822ca0c83f7 -->
<g id="node3" class="node">
<title>dir_4c7246e6a1b2917f2d670822ca0c83f7</title>
<g id="a_node3"><a xlink:href="dir_4c7246e6a1b2917f2d670822ca0c83f7.html" target="_top" xlink:title="zwave_network_management">
<polygon fill="#a2b4d6" stroke="red" points="396,-124 250,-124 250,-88 396,-88 396,-124"/>
<text text-anchor="middle" x="323" y="-103.5" font-family="Helvetica,sans-Serif" font-size="10.00">zwave_network_management</text>
</a>
</g>
</g>
<!-- dir_631bcc7ffdbfdf79dfcc6fd58e2e4c5c -->
<g id="node4" class="node">
<title>dir_631bcc7ffdbfdf79dfcc6fd58e2e4c5c</title>
<g id="a_node4"><a xlink:href="dir_631bcc7ffdbfdf79dfcc6fd58e2e4c5c.html" target="_top" xlink:title="zwave_tx_groups">
<polygon fill="#a2b4d6" stroke="red" points="507.5,-124 414.5,-124 414.5,-88 507.5,-88 507.5,-124"/>
<text text-anchor="middle" x="461" y="-103.5" font-family="Helvetica,sans-Serif" font-size="10.00">zwave_tx_groups</text>
</a>
</g>
</g>
<!-- dir_99fcbcb75e556cb0c2dfb06eb3d295b0 -->
<g id="node5" class="node">
<title>dir_99fcbcb75e556cb0c2dfb06eb3d295b0</title>
<g id="a_node5"><a xlink:href="dir_99fcbcb75e556cb0c2dfb06eb3d295b0.html" target="_top" xlink:title="zwave_tx">
<polygon fill="#a2b4d6" stroke="red" points="188.5,-52 129.5,-52 129.5,-16 188.5,-16 188.5,-52"/>
<text text-anchor="middle" x="159" y="-31.5" font-family="Helvetica,sans-Serif" font-size="10.00">zwave_tx</text>
</a>
</g>
</g>
<!-- dir_a27393278c6967746e623cef03ee3c39 -->
<g id="node6" class="node">
<title>dir_a27393278c6967746e623cef03ee3c39</title>
<text text-anchor="middle" x="165" y="-175.5" font-family="Helvetica,sans-Serif" font-size="10.00">zwave_tx_scheme_selector</text>
</g>
<!-- dir_b95c84ac234367608547f3e4592fbfaf -->
<g id="node7" class="node">
<title>dir_b95c84ac234367608547f3e4592fbfaf</title>
<g id="a_node7"><a xlink:href="dir_b95c84ac234367608547f3e4592fbfaf.html" target="_top" xlink:title="include">
<polygon fill="#a2b4d6" stroke="#404040" points="121,-124 67,-124 67,-88 121,-88 121,-124"/>
<text text-anchor="middle" x="94" y="-103.5" font-family="Helvetica,sans-Serif" font-size="10.00">include</text>
</a>
</g>
</g>
<!-- dir_b95c84ac234367608547f3e4592fbfaf&#45;&gt;dir_3a7f05f1ae2c2d2f6fc896203c15febc -->
<g id="edge1" class="edge">
<title>dir_b95c84ac234367608547f3e4592fbfaf&#45;&gt;dir_3a7f05f1ae2c2d2f6fc896203c15febc</title>
<path fill="none" stroke="black" d="M86.58,-87.7C83.21,-79.81 79.13,-70.3 75.38,-61.55"/>
<polygon fill="black" stroke="black" points="78.49,-59.92 71.33,-52.1 72.05,-62.67 78.49,-59.92"/>
<g id="a_edge1&#45;headlabel"><a xlink:href="dir_000039_000119.html" target="_top" xlink:title="2">
<text text-anchor="middle" x="82.51" y="-59.6" font-family="Helvetica,sans-Serif" font-size="10.00">2</text>
</a>
</g>
</g>
<!-- dir_b95c84ac234367608547f3e4592fbfaf&#45;&gt;dir_3fdbfed0850fd95dbe3b2b1a1a1ffa0e -->
<g id="edge2" class="edge">
<title>dir_b95c84ac234367608547f3e4592fbfaf&#45;&gt;dir_3fdbfed0850fd95dbe3b2b1a1a1ffa0e</title>
<path fill="none" stroke="black" d="M113.3,-87.81C117.03,-84.97 121.02,-82.23 125,-80 137.88,-72.8 168.89,-61.77 197.05,-52.44"/>
<polygon fill="black" stroke="black" points="198.45,-55.66 206.86,-49.21 196.26,-49.01 198.45,-55.66"/>
<g id="a_edge2&#45;headlabel"><a xlink:href="dir_000039_000118.html" target="_top" xlink:title="1">
<text text-anchor="middle" x="195.92" y="-56.98" font-family="Helvetica,sans-Serif" font-size="10.00">1</text>
</a>
</g>
</g>
<!-- dir_b95c84ac234367608547f3e4592fbfaf&#45;&gt;dir_99fcbcb75e556cb0c2dfb06eb3d295b0 -->
<g id="edge3" class="edge">
<title>dir_b95c84ac234367608547f3e4592fbfaf&#45;&gt;dir_99fcbcb75e556cb0c2dfb06eb3d295b0</title>
<path fill="none" stroke="black" d="M110.07,-87.7C117.94,-79.22 127.56,-68.86 136.17,-59.58"/>
<polygon fill="black" stroke="black" points="138.88,-61.81 143.12,-52.1 133.75,-57.05 138.88,-61.81"/>
<g id="a_edge3&#45;headlabel"><a xlink:href="dir_000039_000125.html" target="_top" xlink:title="1">
<text text-anchor="middle" x="138.51" y="-63.88" font-family="Helvetica,sans-Serif" font-size="10.00">1</text>
</a>
</g>
</g>
<!-- dir_f4e6710a133b057d2fef16d5c2939e0b -->
<g id="node8" class="node">
<title>dir_f4e6710a133b057d2fef16d5c2939e0b</title>
<g id="a_node8"><a xlink:href="dir_f4e6710a133b057d2fef16d5c2939e0b.html" target="_top" xlink:title="src">
<polygon fill="#a2b4d6" stroke="#404040" points="78,-196 24,-196 24,-160 78,-160 78,-196"/>
<text text-anchor="middle" x="51" y="-175.5" font-family="Helvetica,sans-Serif" font-size="10.00">src</text>
</a>
</g>
</g>
<!-- dir_f4e6710a133b057d2fef16d5c2939e0b&#45;&gt;dir_3fdbfed0850fd95dbe3b2b1a1a1ffa0e -->
<g id="edge4" class="edge">
<title>dir_f4e6710a133b057d2fef16d5c2939e0b&#45;&gt;dir_3fdbfed0850fd95dbe3b2b1a1a1ffa0e</title>
<path fill="none" stroke="black" d="M77.15,-159.83C92.62,-149.58 112.54,-136.22 130,-124 161.32,-102.08 196.54,-76.26 221.06,-58.09"/>
<polygon fill="black" stroke="black" points="223.32,-60.77 229.26,-52 219.14,-55.15 223.32,-60.77"/>
<g id="a_edge4&#45;headlabel"><a xlink:href="dir_000088_000118.html" target="_top" xlink:title="2">
<text text-anchor="middle" x="222.12" y="-62.7" font-family="Helvetica,sans-Serif" font-size="10.00">2</text>
</a>
</g>
</g>
<!-- dir_f4e6710a133b057d2fef16d5c2939e0b&#45;&gt;dir_4c7246e6a1b2917f2d670822ca0c83f7 -->
<g id="edge5" class="edge">
<title>dir_f4e6710a133b057d2fef16d5c2939e0b&#45;&gt;dir_4c7246e6a1b2917f2d670822ca0c83f7</title>
<path fill="none" stroke="black" d="M78.26,-163.37C81.17,-162.14 84.12,-160.99 87,-160 90.77,-158.7 173.21,-140.27 239.6,-125.51"/>
<polygon fill="black" stroke="black" points="240.68,-128.85 249.69,-123.26 239.16,-122.02 240.68,-128.85"/>
<g id="a_edge5&#45;headlabel"><a xlink:href="dir_000088_000120.html" target="_top" xlink:title="1">
<text text-anchor="middle" x="237.79" y="-129.9" font-family="Helvetica,sans-Serif" font-size="10.00">1</text>
</a>
</g>
</g>
<!-- dir_f4e6710a133b057d2fef16d5c2939e0b&#45;&gt;dir_631bcc7ffdbfdf79dfcc6fd58e2e4c5c -->
<g id="edge6" class="edge">
<title>dir_f4e6710a133b057d2fef16d5c2939e0b&#45;&gt;dir_631bcc7ffdbfdf79dfcc6fd58e2e4c5c</title>
<path fill="none" stroke="black" d="M78.16,-163.04C81.09,-161.88 84.07,-160.83 87,-160 220.74,-121.98 263.78,-151.39 404.55,-123.83"/>
<polygon fill="black" stroke="black" points="405.3,-127.25 414.41,-121.84 403.92,-120.38 405.3,-127.25"/>
<g id="a_edge6&#45;headlabel"><a xlink:href="dir_000088_000126.html" target="_top" xlink:title="1">
<text text-anchor="middle" x="402.34" y="-128.24" font-family="Helvetica,sans-Serif" font-size="10.00">1</text>
</a>
</g>
</g>
<!-- dir_f4e6710a133b057d2fef16d5c2939e0b&#45;&gt;dir_b95c84ac234367608547f3e4592fbfaf -->
<g id="edge8" class="edge">
<title>dir_f4e6710a133b057d2fef16d5c2939e0b&#45;&gt;dir_b95c84ac234367608547f3e4592fbfaf</title>
<path fill="none" stroke="black" d="M61.63,-159.7C66.63,-151.56 72.69,-141.69 78.21,-132.7"/>
<polygon fill="black" stroke="black" points="81.24,-134.46 83.49,-124.1 75.28,-130.79 81.24,-134.46"/>
<g id="a_edge8&#45;headlabel"><a xlink:href="dir_000088_000039.html" target="_top" xlink:title="1">
<text text-anchor="middle" x="81.78" y="-136.51" font-family="Helvetica,sans-Serif" font-size="10.00">1</text>
</a>
</g>
</g>
<!-- dir_9376f99cbc649c5813b13d9244dc2fa3 -->
<g id="node9" class="node">
<title>dir_9376f99cbc649c5813b13d9244dc2fa3</title>
<g id="a_node9"><a xlink:href="dir_9376f99cbc649c5813b13d9244dc2fa3.html" target="_top" xlink:title="zwave_api">
<polygon fill="none" stroke="red" stroke-dasharray="5,2" points="588.5,-124 525.5,-124 525.5,-88 588.5,-88 588.5,-124"/>
<text text-anchor="middle" x="557" y="-103.5" font-family="Helvetica,sans-Serif" font-size="10.00">zwave_api</text>
</a>
</g>
</g>
<!-- dir_f4e6710a133b057d2fef16d5c2939e0b&#45;&gt;dir_9376f99cbc649c5813b13d9244dc2fa3 -->
<g id="edge7" class="edge">
<title>dir_f4e6710a133b057d2fef16d5c2939e0b&#45;&gt;dir_9376f99cbc649c5813b13d9244dc2fa3</title>
<path fill="none" stroke="black" d="M78.13,-162.96C81.07,-161.81 84.06,-160.79 87,-160 269.9,-110.92 330.35,-169.94 515.58,-124.55"/>
<polygon fill="black" stroke="black" points="516.51,-127.93 525.35,-122.09 514.8,-121.14 516.51,-127.93"/>
<g id="a_edge7&#45;headlabel"><a xlink:href="dir_000088_000114.html" target="_top" xlink:title="1">
<text text-anchor="middle" x="513.72" y="-129.06" font-family="Helvetica,sans-Serif" font-size="10.00">1</text>
</a>
</g>
</g>
</g>
</svg>
