<?xml version="1.0" encoding="UTF-8" standalone="no"?>
<!DOCTYPE svg PUBLIC "-//W3C//DTD SVG 1.1//EN"
 "http://www.w3.org/Graphics/SVG/1.1/DTD/svg11.dtd">
<!-- Generated by graphviz version 2.43.0 (0)
 -->
<!-- Title: ZW_NVM_Backup Pages: 1 -->
<svg width="1560pt" height="542pt"
 viewBox="0.00 0.00 1560.00 541.50" xmlns="http://www.w3.org/2000/svg" xmlns:xlink="http://www.w3.org/1999/xlink">
<g id="graph0" class="graph" transform="scale(1 1) rotate(0) translate(4 537.5)">
<title>ZW_NVM_Backup</title>
<!-- Node1 -->
<g id="node1" class="node">
<title>Node1</title>
<g id="a_node1"><a xlink:title=" ">
<polygon fill="#bfbfbf" stroke="black" points="0,-391.5 0,-410.5 98,-410.5 98,-391.5 0,-391.5"/>
<text text-anchor="middle" x="49" y="-398.5" font-family="Helvetica,sans-Serif" font-size="10.00">ZW_NVM_Backup</text>
</a>
</g>
</g>
<!-- Node2 -->
<g id="node2" class="node">
<title>Node2</title>
<g id="a_node2"><a xlink:href="group__ZWAPI__NVM.html#gaa75887eb62f6dd84494755a10dd49675" target="_top" xlink:title="Close the NVM (restart the radio) after a read or write operation.">
<polygon fill="none" stroke="black" points="134,-410.5 134,-429.5 229,-429.5 229,-410.5 134,-410.5"/>
<text text-anchor="middle" x="181.5" y="-417.5" font-family="Helvetica,sans-Serif" font-size="10.00">zwapi_nvm_close</text>
</a>
</g>
</g>
<!-- Node1&#45;&gt;Node2 -->
<g id="edge1" class="edge">
<title>Node1&#45;&gt;Node2</title>
<path fill="none" stroke="midnightblue" d="M98.22,-408.02C106.57,-409.24 115.32,-410.51 123.87,-411.76"/>
<polygon fill="midnightblue" stroke="midnightblue" points="123.38,-415.22 133.78,-413.2 124.39,-408.29 123.38,-415.22"/>
</g>
<!-- Node32 -->
<g id="node32" class="node">
<title>Node32</title>
<g id="a_node32"><a xlink:href="group__ZWAPI__NVM.html#ga4830db53c13536f064c5939b73eec571" target="_top" xlink:title="Open the NVM (stops the radio) before read or write operation.">
<polygon fill="none" stroke="black" points="135.5,-372.5 135.5,-391.5 227.5,-391.5 227.5,-372.5 135.5,-372.5"/>
<text text-anchor="middle" x="181.5" y="-379.5" font-family="Helvetica,sans-Serif" font-size="10.00">zwapi_nvm_open</text>
</a>
</g>
</g>
<!-- Node1&#45;&gt;Node32 -->
<g id="edge49" class="edge">
<title>Node1&#45;&gt;Node32</title>
<path fill="none" stroke="midnightblue" d="M98.22,-393.98C106.98,-392.7 116.18,-391.37 125.12,-390.06"/>
<polygon fill="midnightblue" stroke="midnightblue" points="125.68,-393.52 135.07,-388.61 124.67,-386.59 125.68,-393.52"/>
</g>
<!-- Node33 -->
<g id="node33" class="node">
<title>Node33</title>
<g id="a_node33"><a xlink:href="group__ZWAPI__NVM.html#ga65c8c1f70766e560a877dd4c3e8343a7" target="_top" xlink:title="Read a chunk of the 500&#45;series NVM or 700&#45;series NVM3.">
<polygon fill="none" stroke="black" points="136.5,-448.5 136.5,-467.5 226.5,-467.5 226.5,-448.5 136.5,-448.5"/>
<text text-anchor="middle" x="181.5" y="-455.5" font-family="Helvetica,sans-Serif" font-size="10.00">zwapi_nvm_read</text>
</a>
</g>
</g>
<!-- Node1&#45;&gt;Node33 -->
<g id="edge51" class="edge">
<title>Node1&#45;&gt;Node33</title>
<path fill="none" stroke="midnightblue" d="M70.62,-410.58C87.56,-418.4 112.24,-429.64 134,-439 138.17,-440.79 142.56,-442.64 146.92,-444.45"/>
<polygon fill="midnightblue" stroke="midnightblue" points="145.72,-447.74 156.29,-448.31 148.38,-441.27 145.72,-447.74"/>
</g>
<!-- Node34 -->
<g id="node34" class="node">
<title>Node34</title>
<g id="a_node34"><a xlink:href="group__ZWAPI__BASIS.html#ga45a7a3a57b78698e53c58625f36c909c" target="_top" xlink:title="Reset the Z&#45;Wave module.">
<polygon fill="none" stroke="black" points="136,-334.5 136,-353.5 227,-353.5 227,-334.5 136,-334.5"/>
<text text-anchor="middle" x="181.5" y="-341.5" font-family="Helvetica,sans-Serif" font-size="10.00">zwapi_soft_reset</text>
</a>
</g>
</g>
<!-- Node1&#45;&gt;Node34 -->
<g id="edge53" class="edge">
<title>Node1&#45;&gt;Node34</title>
<path fill="none" stroke="midnightblue" d="M70.62,-391.42C87.56,-383.6 112.24,-372.36 134,-363 138.17,-361.21 142.56,-359.36 146.92,-357.55"/>
<polygon fill="midnightblue" stroke="midnightblue" points="148.38,-360.73 156.29,-353.69 145.72,-354.26 148.38,-360.73"/>
</g>
<!-- Node3 -->
<g id="node3" class="node">
<title>Node3</title>
<g id="a_node3"><a xlink:href="zwapi__init_8c.html#a5ec89d5817b8ce00454fce891ae8400e" target="_top" xlink:title="Send a command to the Z&#45;Wave module and waits for an ACK.">
<polygon fill="none" stroke="black" points="265,-405 265,-435 381,-435 381,-405 265,-405"/>
<text text-anchor="start" x="273" y="-423" font-family="Helvetica,sans-Serif" font-size="10.00">zwapi_send_command</text>
<text text-anchor="middle" x="323" y="-412" font-family="Helvetica,sans-Serif" font-size="10.00">_with_response</text>
</a>
</g>
</g>
<!-- Node2&#45;&gt;Node3 -->
<g id="edge2" class="edge">
<title>Node2&#45;&gt;Node3</title>
<path fill="none" stroke="midnightblue" d="M229.34,-420C237.53,-420 246.2,-420 254.81,-420"/>
<polygon fill="midnightblue" stroke="midnightblue" points="254.87,-423.5 264.87,-420 254.87,-416.5 254.87,-423.5"/>
</g>
<!-- Node4 -->
<g id="node4" class="node">
<title>Node4</title>
<g id="a_node4"><a xlink:href="zwapi__session_8c.html#abf613a2ad7710ac80fb239ba55e621d7" target="_top" xlink:title="Send data frame to Z&#45;Wave chip via serial API, wait for ACK and a RES frame.">
<polygon fill="none" stroke="black" points="435.5,-405 435.5,-435 550.5,-435 550.5,-405 435.5,-405"/>
<text text-anchor="start" x="443.5" y="-423" font-family="Helvetica,sans-Serif" font-size="10.00">zwapi_session_send</text>
<text text-anchor="middle" x="493" y="-412" font-family="Helvetica,sans-Serif" font-size="10.00">_frame_with_response</text>
</a>
</g>
</g>
<!-- Node3&#45;&gt;Node4 -->
<g id="edge3" class="edge">
<title>Node3&#45;&gt;Node4</title>
<path fill="none" stroke="midnightblue" d="M381.35,-420C395.42,-420 410.61,-420 425.09,-420"/>
<polygon fill="midnightblue" stroke="midnightblue" points="425.48,-423.5 435.48,-420 425.48,-416.5 425.48,-423.5"/>
</g>
<!-- Node31 -->
<g id="node31" class="node">
<title>Node31</title>
<g id="a_node31"><a xlink:href="group__ZWAPI__INIT.html#ga0a823074baec69913d0e8590b46e4e33" target="_top" xlink:title="Check if a command is supported by the connected Z&#45;Wave module.">
<polygon fill="none" stroke="black" points="417,-361.5 417,-380.5 569,-380.5 569,-361.5 417,-361.5"/>
<text text-anchor="middle" x="493" y="-368.5" font-family="Helvetica,sans-Serif" font-size="10.00">zwapi_support_command_func</text>
</a>
</g>
</g>
<!-- Node3&#45;&gt;Node31 -->
<g id="edge48" class="edge">
<title>Node3&#45;&gt;Node31</title>
<path fill="none" stroke="midnightblue" d="M375.78,-404.9C399.44,-398 427.12,-389.92 449.53,-383.39"/>
<polygon fill="midnightblue" stroke="midnightblue" points="450.8,-386.66 459.42,-380.5 448.84,-379.94 450.8,-386.66"/>
</g>
<!-- Node5 -->
<g id="node5" class="node">
<title>Node5</title>
<g id="a_node5"><a xlink:href="zwapi__connection_8c.html#a91ce3acd7eff779496789637a9c27f40" target="_top" xlink:title="Provides the data of the serial buffer for the last received frame.">
<polygon fill="none" stroke="black" points="1100.5,-503 1100.5,-533 1213.5,-533 1213.5,-503 1100.5,-503"/>
<text text-anchor="start" x="1108.5" y="-521" font-family="Helvetica,sans-Serif" font-size="10.00">zwapi_connection_get</text>
<text text-anchor="middle" x="1157" y="-510" font-family="Helvetica,sans-Serif" font-size="10.00">_last_rx_frame</text>
</a>
</g>
</g>
<!-- Node4&#45;&gt;Node5 -->
<g id="edge4" class="edge">
<title>Node4&#45;&gt;Node5</title>
<path fill="none" stroke="midnightblue" d="M525.29,-435.14C547.11,-445.01 577.2,-457.27 605,-464 776.78,-505.59 986.06,-515.29 1090.34,-517.46"/>
<polygon fill="midnightblue" stroke="midnightblue" points="1090.34,-520.96 1100.41,-517.65 1090.48,-513.96 1090.34,-520.96"/>
</g>
<!-- Node6 -->
<g id="node6" class="node">
<title>Node6</title>
<g id="a_node6"><a xlink:href="zwapi__connection_8c.html#a86b069d152a5c2f8ac95774a688dff48" target="_top" xlink:title="make the zwapi_connection_status types human readable.">
<polygon fill="none" stroke="black" points="605,-405 605,-435 732,-435 732,-405 605,-405"/>
<text text-anchor="start" x="613" y="-423" font-family="Helvetica,sans-Serif" font-size="10.00">zwapi_connection_status</text>
<text text-anchor="middle" x="668.5" y="-412" font-family="Helvetica,sans-Serif" font-size="10.00">_to_string</text>
</a>
</g>
</g>
<!-- Node4&#45;&gt;Node6 -->
<g id="edge5" class="edge">
<title>Node4&#45;&gt;Node6</title>
<path fill="none" stroke="midnightblue" d="M550.81,-420C564.86,-420 580.11,-420 594.8,-420"/>
<polygon fill="midnightblue" stroke="midnightblue" points="594.87,-423.5 604.87,-420 594.87,-416.5 594.87,-423.5"/>
</g>
<!-- Node7 -->
<g id="node7" class="node">
<title>Node7</title>
<g id="a_node7"><a xlink:href="zwapi__session_8c.html#a1f2b3e7c2dcf31708ef8d333747352ba" target="_top" xlink:title=" ">
<polygon fill="none" stroke="black" points="930.5,-440 930.5,-470 1053.5,-470 1053.5,-440 930.5,-440"/>
<text text-anchor="start" x="938.5" y="-458" font-family="Helvetica,sans-Serif" font-size="10.00">zwapi_session_enqueue</text>
<text text-anchor="middle" x="992" y="-447" font-family="Helvetica,sans-Serif" font-size="10.00">_frame</text>
</a>
</g>
</g>
<!-- Node4&#45;&gt;Node7 -->
<g id="edge6" class="edge">
<title>Node4&#45;&gt;Node7</title>
<path fill="none" stroke="midnightblue" d="M550.69,-434.82C568,-438.79 587.18,-442.63 605,-445 714.23,-459.53 842.32,-459.52 920.03,-457.66"/>
<polygon fill="midnightblue" stroke="midnightblue" points="920.27,-461.15 930.18,-457.4 920.09,-454.15 920.27,-461.15"/>
</g>
<!-- Node10 -->
<g id="node10" class="node">
<title>Node10</title>
<g id="a_node10"><a xlink:href="zwapi__session_8c.html#a32577f3500efc3d937dbc68eebb3c370" target="_top" xlink:title="Send data frame to Z&#45;Wave chip via serial port and wait for ACK.">
<polygon fill="none" stroke="black" points="615,-312 615,-342 722,-342 722,-312 615,-312"/>
<text text-anchor="start" x="623" y="-330" font-family="Helvetica,sans-Serif" font-size="10.00">zwapi_session_send</text>
<text text-anchor="middle" x="668.5" y="-319" font-family="Helvetica,sans-Serif" font-size="10.00">_frame</text>
</a>
</g>
</g>
<!-- Node4&#45;&gt;Node10 -->
<g id="edge10" class="edge">
<title>Node4&#45;&gt;Node10</title>
<path fill="none" stroke="midnightblue" d="M538.33,-404.94C548.7,-400.7 559.48,-395.67 569,-390 586.89,-379.33 587.7,-371.59 605,-360 611.81,-355.44 619.32,-351.01 626.7,-346.96"/>
<polygon fill="midnightblue" stroke="midnightblue" points="628.75,-349.83 635.92,-342.04 625.45,-343.66 628.75,-349.83"/>
</g>
<!-- Node30 -->
<g id="node30" class="node">
<title>Node30</title>
<g id="a_node30"><a xlink:href="zwapi__session_8c.html#a9d30e1677f02d7730ab035aa9333235d" target="_top" xlink:title=" ">
<polygon fill="none" stroke="black" points="777.5,-295 777.5,-325 881.5,-325 881.5,-295 777.5,-295"/>
<text text-anchor="start" x="785.5" y="-313" font-family="Helvetica,sans-Serif" font-size="10.00">zwapi_session_wait</text>
<text text-anchor="middle" x="829.5" y="-302" font-family="Helvetica,sans-Serif" font-size="10.00">_for_response</text>
</a>
</g>
</g>
<!-- Node4&#45;&gt;Node30 -->
<g id="edge47" class="edge">
<title>Node4&#45;&gt;Node30</title>
<path fill="none" stroke="midnightblue" d="M550.87,-405.57C599.47,-392.74 671,-372.71 732,-351 750.06,-344.57 769.6,-336.49 786.34,-329.21"/>
<polygon fill="midnightblue" stroke="midnightblue" points="788.09,-332.26 795.84,-325.03 785.27,-325.85 788.09,-332.26"/>
</g>
<!-- Node7&#45;&gt;Node5 -->
<g id="edge7" class="edge">
<title>Node7&#45;&gt;Node5</title>
<path fill="none" stroke="midnightblue" d="M1031.44,-470.07C1050.02,-477.34 1072.66,-486.16 1093,-494 1097.47,-495.72 1102.13,-497.51 1106.79,-499.3"/>
<polygon fill="midnightblue" stroke="midnightblue" points="1105.74,-502.64 1116.33,-502.94 1108.23,-496.1 1105.74,-502.64"/>
</g>
<!-- Node8 -->
<g id="node8" class="node">
<title>Node8</title>
<g id="a_node8"><a xlink:href="zwapi__session_8c.html#ad7bac697ee2388b38ed3777b5a3862bc" target="_top" xlink:title=" ">
<polygon fill="none" stroke="black" points="1100.5,-454 1100.5,-484 1213.5,-484 1213.5,-454 1100.5,-454"/>
<text text-anchor="start" x="1108.5" y="-472" font-family="Helvetica,sans-Serif" font-size="10.00">zwapi_session_get_rx</text>
<text text-anchor="middle" x="1157" y="-461" font-family="Helvetica,sans-Serif" font-size="10.00">_queue_length</text>
</a>
</g>
</g>
<!-- Node7&#45;&gt;Node8 -->
<g id="edge8" class="edge">
<title>Node7&#45;&gt;Node8</title>
<path fill="none" stroke="midnightblue" d="M1053.7,-460.21C1065.65,-461.24 1078.24,-462.32 1090.34,-463.36"/>
<polygon fill="midnightblue" stroke="midnightblue" points="1090.11,-466.85 1100.37,-464.22 1090.71,-459.88 1090.11,-466.85"/>
</g>
<!-- Node9 -->
<g id="node9" class="node">
<title>Node9</title>
<g id="a_node9"><a xlink:href="group__ZWAPI__INIT.html#ga438a74c9752197d20d377874d5a61694" target="_top" xlink:title="Returns the pointer to the callbacks registered at init.">
<polygon fill="none" stroke="black" points="1093,-415.5 1093,-434.5 1221,-434.5 1221,-415.5 1093,-415.5"/>
<text text-anchor="middle" x="1157" y="-422.5" font-family="Helvetica,sans-Serif" font-size="10.00">zwave_api_get_callbacks</text>
</a>
</g>
</g>
<!-- Node7&#45;&gt;Node9 -->
<g id="edge9" class="edge">
<title>Node7&#45;&gt;Node9</title>
<path fill="none" stroke="midnightblue" d="M1053.7,-443.83C1066.97,-441.39 1081.03,-438.8 1094.34,-436.35"/>
<polygon fill="midnightblue" stroke="midnightblue" points="1095.14,-439.76 1104.34,-434.51 1093.87,-432.88 1095.14,-439.76"/>
</g>
<!-- Node10&#45;&gt;Node7 -->
<g id="edge28" class="edge">
<title>Node10&#45;&gt;Node7</title>
<path fill="none" stroke="midnightblue" d="M682.74,-342.01C704.64,-366.46 747.97,-413.14 768,-423 815.3,-446.29 874.62,-453.93 920.19,-455.93"/>
<polygon fill="midnightblue" stroke="midnightblue" points="920.16,-459.44 930.28,-456.3 920.41,-452.44 920.16,-459.44"/>
</g>
<!-- Node11 -->
<g id="node11" class="node">
<title>Node11</title>
<g id="a_node11"><a xlink:href="zwapi__connection_8c.html#a13b6e6b6c56844f4344fabe490bc5eac" target="_top" xlink:title="Closes and re&#45;initializes the zwapi_connection to the Z&#45;Wave module.">
<polygon fill="none" stroke="black" points="928,-156.5 928,-175.5 1056,-175.5 1056,-156.5 928,-156.5"/>
<text text-anchor="middle" x="992" y="-163.5" font-family="Helvetica,sans-Serif" font-size="10.00">zwapi_connection_restart</text>
</a>
</g>
</g>
<!-- Node10&#45;&gt;Node11 -->
<g id="edge11" class="edge">
<title>Node10&#45;&gt;Node11</title>
<path fill="none" stroke="midnightblue" d="M675.39,-311.82C687.65,-282.53 718.89,-218.6 768,-190 812.89,-163.86 871.56,-158.45 917.45,-159.26"/>
<polygon fill="midnightblue" stroke="midnightblue" points="917.54,-162.76 927.63,-159.54 917.73,-155.76 917.54,-162.76"/>
</g>
<!-- Node21 -->
<g id="node21" class="node">
<title>Node21</title>
<g id="a_node21"><a xlink:href="zwapi__timestamp_8c.html#a6ebe1ddfe689bce6ee72fc12f708aece" target="_top" xlink:title="get the timestamp">
<polygon fill="none" stroke="black" points="1101,-164.5 1101,-183.5 1213,-183.5 1213,-164.5 1101,-164.5"/>
<text text-anchor="middle" x="1157" y="-171.5" font-family="Helvetica,sans-Serif" font-size="10.00">zwapi_timestamp_get</text>
</a>
</g>
</g>
<!-- Node10&#45;&gt;Node21 -->
<g id="edge46" class="edge">
<title>Node10&#45;&gt;Node21</title>
<path fill="none" stroke="midnightblue" d="M704.59,-312C723.39,-303.97 746.95,-293.92 768,-285 838.6,-255.07 853.61,-240.24 927,-218 981.14,-201.59 1044.41,-189.98 1090.71,-182.83"/>
<polygon fill="midnightblue" stroke="midnightblue" points="1091.26,-186.28 1100.62,-181.32 1090.21,-179.36 1091.26,-186.28"/>
</g>
<!-- Node22 -->
<g id="node22" class="node">
<title>Node22</title>
<g id="a_node22"><a xlink:href="zwapi__connection_8c.html#af47f8cbd93974d5c91d659fdeb7a870b" target="_top" xlink:title="Transmit a frame via serial port by adding SOF, Len, Type, cmd and Checksum.">
<polygon fill="none" stroke="black" points="938,-118.5 938,-137.5 1046,-137.5 1046,-118.5 938,-118.5"/>
<text text-anchor="middle" x="992" y="-125.5" font-family="Helvetica,sans-Serif" font-size="10.00">zwapi_connection_tx</text>
</a>
</g>
</g>
<!-- Node10&#45;&gt;Node22 -->
<g id="edge22" class="edge">
<title>Node10&#45;&gt;Node22</title>
<path fill="none" stroke="midnightblue" d="M673.24,-311.99C682.63,-277.79 710.65,-194.12 768,-156 814.93,-124.81 879.87,-119.9 927.57,-121.54"/>
<polygon fill="midnightblue" stroke="midnightblue" points="927.63,-125.05 937.78,-122 927.95,-118.06 927.63,-125.05"/>
</g>
<!-- Node24 -->
<g id="node24" class="node">
<title>Node24</title>
<g id="a_node24"><a xlink:href="zwapi__timestamp_8c.html#a3925f2732e344672608db38351236688" target="_top" xlink:title="compare the current timestamp with the timestamp passed as an argument">
<polygon fill="none" stroke="black" points="1104,-366 1104,-396 1210,-396 1210,-366 1104,-366"/>
<text text-anchor="start" x="1112" y="-384" font-family="Helvetica,sans-Serif" font-size="10.00">zwapi_is_timestamp</text>
<text text-anchor="middle" x="1157" y="-373" font-family="Helvetica,sans-Serif" font-size="10.00">_elapsed</text>
</a>
</g>
</g>
<!-- Node10&#45;&gt;Node24 -->
<g id="edge27" class="edge">
<title>Node10&#45;&gt;Node24</title>
<path fill="none" stroke="midnightblue" d="M722.03,-332.83C812.35,-342.86 996.68,-363.32 1093.47,-374.06"/>
<polygon fill="midnightblue" stroke="midnightblue" points="1093.37,-377.57 1103.69,-375.19 1094.14,-370.61 1093.37,-377.57"/>
</g>
<!-- Node25 -->
<g id="node25" class="node">
<title>Node25</title>
<g id="a_node25"><a xlink:href="zwapi__session_8c.html#a2875fbfa250b7b25ecb6bc4f0b032cb8" target="_top" xlink:title="Loads the received frames from the serial device into the zwapi_session receive queue.">
<polygon fill="none" stroke="black" points="768,-383 768,-413 891,-413 891,-383 768,-383"/>
<text text-anchor="start" x="776" y="-401" font-family="Helvetica,sans-Serif" font-size="10.00">zwapi_session_enqueue</text>
<text text-anchor="middle" x="829.5" y="-390" font-family="Helvetica,sans-Serif" font-size="10.00">_rx_frames</text>
</a>
</g>
</g>
<!-- Node10&#45;&gt;Node25 -->
<g id="edge29" class="edge">
<title>Node10&#45;&gt;Node25</title>
<path fill="none" stroke="midnightblue" d="M703.22,-342.06C727.25,-352.79 759.75,-367.3 785.62,-378.85"/>
<polygon fill="midnightblue" stroke="midnightblue" points="784.27,-382.08 794.83,-382.96 787.12,-375.69 784.27,-382.08"/>
</g>
<!-- Node10&#45;&gt;Node30 -->
<g id="edge42" class="edge">
<title>Node10&#45;&gt;Node30</title>
<path fill="none" stroke="midnightblue" d="M722,-321.39C736.48,-319.84 752.32,-318.15 767.24,-316.55"/>
<polygon fill="midnightblue" stroke="midnightblue" points="767.83,-320.01 777.4,-315.46 767.09,-313.05 767.83,-320.01"/>
</g>
<!-- Node12 -->
<g id="node12" class="node">
<title>Node12</title>
<g id="a_node12"><a xlink:href="zwapi__serial_8c.html#a3f2b3bd848e9fe0e6e137482bed06b46" target="_top" xlink:title="Flush the serial output if using buffered output.">
<polygon fill="none" stroke="black" points="1108.5,-115 1108.5,-145 1205.5,-145 1205.5,-115 1108.5,-115"/>
<text text-anchor="start" x="1116.5" y="-133" font-family="Helvetica,sans-Serif" font-size="10.00">zwapi_serial_drain</text>
<text text-anchor="middle" x="1157" y="-122" font-family="Helvetica,sans-Serif" font-size="10.00">_buffer</text>
</a>
</g>
</g>
<!-- Node11&#45;&gt;Node12 -->
<g id="edge12" class="edge">
<title>Node11&#45;&gt;Node12</title>
<path fill="none" stroke="midnightblue" d="M1036.25,-156.45C1055.3,-152.24 1077.95,-147.24 1098.4,-142.72"/>
<polygon fill="midnightblue" stroke="midnightblue" points="1099.23,-146.12 1108.24,-140.55 1097.72,-139.29 1099.23,-146.12"/>
</g>
<!-- Node13 -->
<g id="node13" class="node">
<title>Node13</title>
<g id="a_node13"><a xlink:href="zwapi__serial_8c.html#a7762d0358e9f398b92edbfd6a550984a" target="_top" xlink:title="Write a byte to serial port device.">
<polygon fill="none" stroke="black" points="1100.5,-202.5 1100.5,-221.5 1213.5,-221.5 1213.5,-202.5 1100.5,-202.5"/>
<text text-anchor="middle" x="1157" y="-209.5" font-family="Helvetica,sans-Serif" font-size="10.00">zwapi_serial_put_byte</text>
</a>
</g>
</g>
<!-- Node11&#45;&gt;Node13 -->
<g id="edge13" class="edge">
<title>Node11&#45;&gt;Node13</title>
<path fill="none" stroke="midnightblue" d="M1026.77,-175.53C1051.58,-182.53 1085.49,-192.1 1112.35,-199.68"/>
<polygon fill="midnightblue" stroke="midnightblue" points="1111.69,-203.13 1122.27,-202.48 1113.6,-196.4 1111.69,-203.13"/>
</g>
<!-- Node17 -->
<g id="node17" class="node">
<title>Node17</title>
<g id="a_node17"><a xlink:href="zwapi__serial_8c.html#aadf3397d0bd2c1657d4b1a373599acfe" target="_top" xlink:title="Closes and re&#45;initialize the last open serial port.">
<polygon fill="none" stroke="black" points="1105,-38.5 1105,-57.5 1209,-57.5 1209,-38.5 1105,-38.5"/>
<text text-anchor="middle" x="1157" y="-45.5" font-family="Helvetica,sans-Serif" font-size="10.00">zwapi_serial_restart</text>
</a>
</g>
</g>
<!-- Node11&#45;&gt;Node17 -->
<g id="edge17" class="edge">
<title>Node11&#45;&gt;Node17</title>
<path fill="none" stroke="midnightblue" d="M1037.51,-156.42C1044.33,-153.94 1051.07,-150.85 1057,-147 1077.63,-133.62 1075.85,-122.62 1093,-105 1107.01,-90.61 1123.94,-75.4 1136.72,-64.32"/>
<polygon fill="midnightblue" stroke="midnightblue" points="1139.14,-66.85 1144.45,-57.68 1134.58,-61.54 1139.14,-66.85"/>
</g>
<!-- Node11&#45;&gt;Node21 -->
<g id="edge21" class="edge">
<title>Node11&#45;&gt;Node21</title>
<path fill="none" stroke="midnightblue" d="M1056.02,-169.09C1067.34,-169.65 1079.16,-170.23 1090.54,-170.79"/>
<polygon fill="midnightblue" stroke="midnightblue" points="1090.69,-174.3 1100.85,-171.29 1091.03,-167.31 1090.69,-174.3"/>
</g>
<!-- Node14 -->
<g id="node14" class="node">
<title>Node14</title>
<g id="a_node14"><a xlink:href="zwapi__serial_8c.html#af9054824651df422bab5076d16a80fda" target="_top" xlink:title="Writes the content of a buffer to the serial port device.">
<polygon fill="none" stroke="black" points="1257,-201.5 1257,-220.5 1376,-220.5 1376,-201.5 1257,-201.5"/>
<text text-anchor="middle" x="1316.5" y="-208.5" font-family="Helvetica,sans-Serif" font-size="10.00">zwapi_serial_put_buffer</text>
</a>
</g>
</g>
<!-- Node13&#45;&gt;Node14 -->
<g id="edge14" class="edge">
<title>Node13&#45;&gt;Node14</title>
<path fill="none" stroke="midnightblue" d="M1213.53,-211.65C1224.24,-211.58 1235.59,-211.51 1246.66,-211.44"/>
<polygon fill="midnightblue" stroke="midnightblue" points="1246.76,-214.94 1256.74,-211.37 1246.71,-207.94 1246.76,-214.94"/>
</g>
<!-- Node15 -->
<g id="node15" class="node">
<title>Node15</title>
<g id="a_node15"><a xlink:href="zwapi__serial_8c.html#a0accbbf7ddb7aeab10f5df1fe3df6642" target="_top" xlink:title=" ">
<polygon fill="none" stroke="black" points="1412,-242.5 1412,-261.5 1552,-261.5 1552,-242.5 1412,-242.5"/>
<text text-anchor="middle" x="1482" y="-249.5" font-family="Helvetica,sans-Serif" font-size="10.00">zwapi_serial_log_timestamp</text>
</a>
</g>
</g>
<!-- Node14&#45;&gt;Node15 -->
<g id="edge15" class="edge">
<title>Node14&#45;&gt;Node15</title>
<path fill="none" stroke="midnightblue" d="M1355.42,-220.51C1378.55,-226.31 1408.33,-233.78 1433.09,-239.99"/>
<polygon fill="midnightblue" stroke="midnightblue" points="1432.45,-243.43 1443,-242.47 1434.15,-236.64 1432.45,-243.43"/>
</g>
<!-- Node16 -->
<g id="node16" class="node">
<title>Node16</title>
<g id="a_node16"><a xlink:href="zwapi__serial_8c.html#abf18afb71e14daaf65d937149ef1639f" target="_top" xlink:title="Test if a is less than b + ms.">
<polygon fill="none" stroke="black" points="1428.5,-193 1428.5,-223 1535.5,-223 1535.5,-193 1428.5,-193"/>
<text text-anchor="start" x="1436.5" y="-211" font-family="Helvetica,sans-Serif" font-size="10.00">zwapi_serial_timeval</text>
<text text-anchor="middle" x="1482" y="-200" font-family="Helvetica,sans-Serif" font-size="10.00">_a_lt_b_milis</text>
</a>
</g>
</g>
<!-- Node14&#45;&gt;Node16 -->
<g id="edge16" class="edge">
<title>Node14&#45;&gt;Node16</title>
<path fill="none" stroke="midnightblue" d="M1376.07,-209.93C1389.65,-209.68 1404.16,-209.41 1417.92,-209.16"/>
<polygon fill="midnightblue" stroke="midnightblue" points="1418.34,-212.65 1428.28,-208.97 1418.22,-205.65 1418.34,-212.65"/>
</g>
<!-- Node18 -->
<g id="node18" class="node">
<title>Node18</title>
<g id="a_node18"><a xlink:href="zwapi__serial_8c.html#aae586785021ac9a605cd77651429f0c9" target="_top" xlink:title="De&#45;Initialize the serial port.">
<polygon fill="none" stroke="black" points="1267,-19.5 1267,-38.5 1366,-38.5 1366,-19.5 1267,-19.5"/>
<text text-anchor="middle" x="1316.5" y="-26.5" font-family="Helvetica,sans-Serif" font-size="10.00">zwapi_serial_close</text>
</a>
</g>
</g>
<!-- Node17&#45;&gt;Node18 -->
<g id="edge18" class="edge">
<title>Node17&#45;&gt;Node18</title>
<path fill="none" stroke="midnightblue" d="M1209.14,-41.83C1224.31,-40 1241.06,-37.98 1256.68,-36.1"/>
<polygon fill="midnightblue" stroke="midnightblue" points="1257.25,-39.55 1266.76,-34.88 1256.42,-32.6 1257.25,-39.55"/>
</g>
<!-- Node19 -->
<g id="node19" class="node">
<title>Node19</title>
<g id="a_node19"><a xlink:href="zwapi__serial_8c.html#a07b09de97f4932d882fc77e191c44638" target="_top" xlink:title="Initialize the serial port to 115200 BAUD 8N1.">
<polygon fill="none" stroke="black" points="1272,-57.5 1272,-76.5 1361,-76.5 1361,-57.5 1272,-57.5"/>
<text text-anchor="middle" x="1316.5" y="-64.5" font-family="Helvetica,sans-Serif" font-size="10.00">zwapi_serial_init</text>
</a>
</g>
</g>
<!-- Node17&#45;&gt;Node19 -->
<g id="edge19" class="edge">
<title>Node17&#45;&gt;Node19</title>
<path fill="none" stroke="midnightblue" d="M1209.14,-54.17C1225.87,-56.19 1244.51,-58.44 1261.46,-60.48"/>
<polygon fill="midnightblue" stroke="midnightblue" points="1261.41,-64 1271.76,-61.72 1262.25,-57.05 1261.41,-64"/>
</g>
<!-- Node20 -->
<g id="node20" class="node">
<title>Node20</title>
<g id="a_node20"><a xlink:href="zwapi__serial_8c.html#aefeac5909b0bf6411db1492f69c3bc68" target="_top" xlink:title=" ">
<polygon fill="none" stroke="black" points="1422.5,-57.5 1422.5,-76.5 1541.5,-76.5 1541.5,-57.5 1422.5,-57.5"/>
<text text-anchor="middle" x="1482" y="-64.5" font-family="Helvetica,sans-Serif" font-size="10.00">zwapi_open_serial_port</text>
</a>
</g>
</g>
<!-- Node19&#45;&gt;Node20 -->
<g id="edge20" class="edge">
<title>Node19&#45;&gt;Node20</title>
<path fill="none" stroke="midnightblue" d="M1361.31,-67C1376.97,-67 1395.01,-67 1412.26,-67"/>
<polygon fill="midnightblue" stroke="midnightblue" points="1412.3,-70.5 1422.3,-67 1412.3,-63.5 1412.3,-70.5"/>
</g>
<!-- Node22&#45;&gt;Node12 -->
<g id="edge24" class="edge">
<title>Node22&#45;&gt;Node12</title>
<path fill="none" stroke="midnightblue" d="M1046.37,-128.65C1062.9,-128.86 1081.19,-129.08 1098.02,-129.29"/>
<polygon fill="midnightblue" stroke="midnightblue" points="1098.24,-132.79 1108.28,-129.41 1098.33,-125.79 1098.24,-132.79"/>
</g>
<!-- Node22&#45;&gt;Node14 -->
<g id="edge25" class="edge">
<title>Node22&#45;&gt;Node14</title>
<path fill="none" stroke="midnightblue" d="M1015.89,-118.42C1058.38,-102.17 1151.48,-73.84 1221,-105 1260.92,-122.89 1290.9,-166.91 1305.54,-192.24"/>
<polygon fill="midnightblue" stroke="midnightblue" points="1302.63,-194.2 1310.55,-201.23 1308.74,-190.79 1302.63,-194.2"/>
</g>
<!-- Node22&#45;&gt;Node21 -->
<g id="edge26" class="edge">
<title>Node22&#45;&gt;Node21</title>
<path fill="none" stroke="midnightblue" d="M1026.77,-137.53C1051.58,-144.53 1085.49,-154.1 1112.35,-161.68"/>
<polygon fill="midnightblue" stroke="midnightblue" points="1111.69,-165.13 1122.27,-164.48 1113.6,-158.4 1111.69,-165.13"/>
</g>
<!-- Node23 -->
<g id="node23" class="node">
<title>Node23</title>
<g id="a_node23"><a xlink:href="zwapi__connection_8c.html#a96d24d537c5b8d6aa0aa6a7638ba2f09" target="_top" xlink:title=" ">
<polygon fill="none" stroke="black" points="1099.5,-0.5 1099.5,-19.5 1214.5,-19.5 1214.5,-0.5 1099.5,-0.5"/>
<text text-anchor="middle" x="1157" y="-7.5" font-family="Helvetica,sans-Serif" font-size="10.00">zwapi_frame_to_string</text>
</a>
</g>
</g>
<!-- Node22&#45;&gt;Node23 -->
<g id="edge23" class="edge">
<title>Node22&#45;&gt;Node23</title>
<path fill="none" stroke="midnightblue" d="M1000.12,-118.27C1015.09,-98.51 1051.85,-53.48 1093,-29 1096.59,-26.86 1100.44,-24.95 1104.4,-23.24"/>
<polygon fill="midnightblue" stroke="midnightblue" points="1105.72,-26.48 1113.78,-19.61 1103.19,-19.96 1105.72,-26.48"/>
</g>
<!-- Node25&#45;&gt;Node7 -->
<g id="edge41" class="edge">
<title>Node25&#45;&gt;Node7</title>
<path fill="none" stroke="midnightblue" d="M873.09,-413.13C893.3,-420.3 917.64,-428.95 938.94,-436.51"/>
<polygon fill="midnightblue" stroke="midnightblue" points="937.9,-439.85 948.49,-439.9 940.24,-433.26 937.9,-439.85"/>
</g>
<!-- Node26 -->
<g id="node26" class="node">
<title>Node26</title>
<g id="a_node26"><a xlink:href="zwapi__connection_8c.html#a1e45c6c9695b5e7b415adfad40080720" target="_top" xlink:title="Parses serial data sent from the Z&#45;Wave module to the serial port. Should be frequently called by mai...">
<polygon fill="none" stroke="black" points="927,-270.5 927,-289.5 1057,-289.5 1057,-270.5 927,-270.5"/>
<text text-anchor="middle" x="992" y="-277.5" font-family="Helvetica,sans-Serif" font-size="10.00">zwapi_connection_refresh</text>
</a>
</g>
</g>
<!-- Node25&#45;&gt;Node26 -->
<g id="edge30" class="edge">
<title>Node25&#45;&gt;Node26</title>
<path fill="none" stroke="midnightblue" d="M851.15,-382.82C881.67,-360.38 938.52,-318.58 969.51,-295.8"/>
<polygon fill="midnightblue" stroke="midnightblue" points="971.9,-298.39 977.88,-289.65 967.75,-292.75 971.9,-298.39"/>
</g>
<!-- Node26&#45;&gt;Node12 -->
<g id="edge32" class="edge">
<title>Node26&#45;&gt;Node12</title>
<path fill="none" stroke="midnightblue" d="M998.25,-270.46C1011.34,-247.49 1047.64,-188.55 1093,-155 1095.47,-153.17 1098.1,-151.45 1100.82,-149.84"/>
<polygon fill="midnightblue" stroke="midnightblue" points="1102.59,-152.87 1109.77,-145.07 1099.3,-146.69 1102.59,-152.87"/>
</g>
<!-- Node26&#45;&gt;Node13 -->
<g id="edge39" class="edge">
<title>Node26&#45;&gt;Node13</title>
<path fill="none" stroke="midnightblue" d="M1021.09,-270.49C1032.4,-266.39 1045.47,-261.33 1057,-256 1073.61,-248.32 1076.41,-243.72 1093,-236 1101.25,-232.16 1110.3,-228.44 1118.9,-225.12"/>
<polygon fill="midnightblue" stroke="midnightblue" points="1120.23,-228.36 1128.36,-221.56 1117.77,-221.81 1120.23,-228.36"/>
</g>
<!-- Node26&#45;&gt;Node21 -->
<g id="edge40" class="edge">
<title>Node26&#45;&gt;Node21</title>
<path fill="none" stroke="midnightblue" d="M1031.57,-270.42C1040.59,-266.92 1049.68,-262.23 1057,-256 1081.56,-235.1 1067.77,-213.08 1093,-193 1095.3,-191.17 1097.78,-189.51 1100.38,-188.01"/>
<polygon fill="midnightblue" stroke="midnightblue" points="1102.13,-191.05 1109.57,-183.51 1099.05,-184.77 1102.13,-191.05"/>
</g>
<!-- Node26&#45;&gt;Node24 -->
<g id="edge31" class="edge">
<title>Node26&#45;&gt;Node24</title>
<path fill="none" stroke="midnightblue" d="M1029.87,-289.52C1039.32,-293.07 1049.04,-297.8 1057,-304 1079.17,-321.28 1070.99,-338.51 1093,-356 1095.25,-357.78 1097.63,-359.46 1100.12,-361.02"/>
<polygon fill="midnightblue" stroke="midnightblue" points="1098.43,-364.09 1108.87,-365.93 1101.86,-357.98 1098.43,-364.09"/>
</g>
<!-- Node27 -->
<g id="node27" class="node">
<title>Node27</title>
<g id="a_node27"><a xlink:href="zwapi__serial_8c.html#a538134f9fdbb1ce052667b3a041357bd" target="_top" xlink:title="Reads the output of the serial port device and stores the content in a buffer.">
<polygon fill="none" stroke="black" points="1257,-241.5 1257,-260.5 1376,-260.5 1376,-241.5 1257,-241.5"/>
<text text-anchor="middle" x="1316.5" y="-248.5" font-family="Helvetica,sans-Serif" font-size="10.00">zwapi_serial_get_buffer</text>
</a>
</g>
</g>
<!-- Node26&#45;&gt;Node27 -->
<g id="edge33" class="edge">
<title>Node26&#45;&gt;Node27</title>
<path fill="none" stroke="midnightblue" d="M1057.26,-272.65C1069.13,-271.38 1081.44,-270.1 1093,-269 1144.54,-264.08 1202.88,-259.39 1246.89,-256.04"/>
<polygon fill="midnightblue" stroke="midnightblue" points="1247.19,-259.52 1256.9,-255.28 1246.66,-252.54 1247.19,-259.52"/>
</g>
<!-- Node28 -->
<g id="node28" class="node">
<title>Node28</title>
<g id="a_node28"><a xlink:href="zwapi__serial_8c.html#abb082b1e7e727203e3ca5fbeb41f7c2b" target="_top" xlink:title="Reads a byte from the serial port device.">
<polygon fill="none" stroke="black" points="1100.5,-278.5 1100.5,-297.5 1213.5,-297.5 1213.5,-278.5 1100.5,-278.5"/>
<text text-anchor="middle" x="1157" y="-285.5" font-family="Helvetica,sans-Serif" font-size="10.00">zwapi_serial_get_byte</text>
</a>
</g>
</g>
<!-- Node26&#45;&gt;Node28 -->
<g id="edge36" class="edge">
<title>Node26&#45;&gt;Node28</title>
<path fill="none" stroke="midnightblue" d="M1057.42,-283.16C1068.21,-283.69 1079.42,-284.24 1090.24,-284.77"/>
<polygon fill="midnightblue" stroke="midnightblue" points="1090.31,-288.28 1100.47,-285.27 1090.66,-281.29 1090.31,-288.28"/>
</g>
<!-- Node29 -->
<g id="node29" class="node">
<title>Node29</title>
<g id="a_node29"><a xlink:href="zwapi__serial_8c.html#a9a952dc2b34d92960246f6dc4e7d58f7" target="_top" xlink:title="Check the file descriptor for the serial device is available for I/O operations.">
<polygon fill="none" stroke="black" points="1106.5,-317 1106.5,-347 1207.5,-347 1207.5,-317 1106.5,-317"/>
<text text-anchor="start" x="1114.5" y="-335" font-family="Helvetica,sans-Serif" font-size="10.00">zwapi_serial_is_file</text>
<text text-anchor="middle" x="1157" y="-324" font-family="Helvetica,sans-Serif" font-size="10.00">_available</text>
</a>
</g>
</g>
<!-- Node26&#45;&gt;Node29 -->
<g id="edge38" class="edge">
<title>Node26&#45;&gt;Node29</title>
<path fill="none" stroke="midnightblue" d="M1022.9,-289.54C1044.17,-296.32 1073.4,-305.65 1099.06,-313.83"/>
<polygon fill="midnightblue" stroke="midnightblue" points="1098.1,-317.2 1108.69,-316.91 1100.23,-310.53 1098.1,-317.2"/>
</g>
<!-- Node27&#45;&gt;Node15 -->
<g id="edge34" class="edge">
<title>Node27&#45;&gt;Node15</title>
<path fill="none" stroke="midnightblue" d="M1376.07,-251.36C1384.43,-251.41 1393.15,-251.46 1401.82,-251.52"/>
<polygon fill="midnightblue" stroke="midnightblue" points="1401.95,-255.02 1411.97,-251.58 1401.99,-248.02 1401.95,-255.02"/>
</g>
<!-- Node27&#45;&gt;Node16 -->
<g id="edge35" class="edge">
<title>Node27&#45;&gt;Node16</title>
<path fill="none" stroke="midnightblue" d="M1353.79,-241.46C1372.8,-236.46 1396.61,-230.19 1418.48,-224.44"/>
<polygon fill="midnightblue" stroke="midnightblue" points="1419.59,-227.77 1428.37,-221.84 1417.81,-221 1419.59,-227.77"/>
</g>
<!-- Node28&#45;&gt;Node27 -->
<g id="edge37" class="edge">
<title>Node28&#45;&gt;Node27</title>
<path fill="none" stroke="midnightblue" d="M1198.56,-278.47C1218.78,-273.72 1243.44,-267.93 1264.88,-262.89"/>
<polygon fill="midnightblue" stroke="midnightblue" points="1265.87,-266.25 1274.8,-260.56 1264.27,-259.44 1265.87,-266.25"/>
</g>
<!-- Node30&#45;&gt;Node21 -->
<g id="edge45" class="edge">
<title>Node30&#45;&gt;Node21</title>
<path fill="none" stroke="midnightblue" d="M857.44,-294.94C876.51,-284.62 902.89,-271.04 927,-261 983.18,-237.6 1002.56,-245.19 1057,-218 1074.43,-209.3 1075.46,-201.47 1093,-193 1097.64,-190.76 1102.6,-188.72 1107.62,-186.88"/>
<polygon fill="midnightblue" stroke="midnightblue" points="1108.96,-190.12 1117.29,-183.58 1106.7,-183.49 1108.96,-190.12"/>
</g>
<!-- Node30&#45;&gt;Node24 -->
<g id="edge44" class="edge">
<title>Node30&#45;&gt;Node24</title>
<path fill="none" stroke="midnightblue" d="M881.55,-313.77C927.91,-317.99 997.86,-326.41 1057,-342 1058.45,-342.38 1083.92,-352.42 1108.66,-362.21"/>
<polygon fill="midnightblue" stroke="midnightblue" points="1107.47,-365.51 1118.05,-365.93 1110.05,-359 1107.47,-365.51"/>
</g>
<!-- Node30&#45;&gt;Node26 -->
<g id="edge43" class="edge">
<title>Node30&#45;&gt;Node26</title>
<path fill="none" stroke="midnightblue" d="M881.72,-300.43C897,-297.57 913.9,-294.41 929.75,-291.45"/>
<polygon fill="midnightblue" stroke="midnightblue" points="930.8,-294.81 939.99,-289.54 929.51,-287.93 930.8,-294.81"/>
</g>
<!-- Node32&#45;&gt;Node3 -->
<g id="edge50" class="edge">
<title>Node32&#45;&gt;Node3</title>
<path fill="none" stroke="midnightblue" d="M217.7,-391.59C229.65,-394.84 243.41,-398.59 256.94,-402.28"/>
<polygon fill="midnightblue" stroke="midnightblue" points="256.15,-405.69 266.72,-404.94 257.99,-398.94 256.15,-405.69"/>
</g>
<!-- Node33&#45;&gt;Node3 -->
<g id="edge52" class="edge">
<title>Node33&#45;&gt;Node3</title>
<path fill="none" stroke="midnightblue" d="M217.7,-448.41C229.65,-445.16 243.41,-441.41 256.94,-437.72"/>
<polygon fill="midnightblue" stroke="midnightblue" points="257.99,-441.06 266.72,-435.06 256.15,-434.31 257.99,-441.06"/>
</g>
<!-- Node35 -->
<g id="node35" class="node">
<title>Node35</title>
<g id="a_node35"><a xlink:href="zwapi__init_8c.html#a67064ee382c07d0af51a9d9339b3fcde" target="_top" xlink:title="Verifies that the command is supported by the Z&#45;Wave module.">
<polygon fill="none" stroke="black" points="265,-317.5 265,-336.5 381,-336.5 381,-317.5 265,-317.5"/>
<text text-anchor="middle" x="323" y="-324.5" font-family="Helvetica,sans-Serif" font-size="10.00">zwapi_send_command</text>
</a>
</g>
</g>
<!-- Node34&#45;&gt;Node35 -->
<g id="edge54" class="edge">
<title>Node34&#45;&gt;Node35</title>
<path fill="none" stroke="midnightblue" d="M227.02,-338.57C235.86,-337.5 245.33,-336.34 254.74,-335.2"/>
<polygon fill="midnightblue" stroke="midnightblue" points="255.39,-338.64 264.89,-333.96 254.54,-331.7 255.39,-338.64"/>
</g>
<!-- Node36 -->
<g id="node36" class="node">
<title>Node36</title>
<g id="a_node36"><a xlink:href="group__ZWAPI__INIT.html#gac747addbb718dc86d958ba5f38bb5ad5" target="_top" xlink:title="Sets the value of &quot;awaiting a Z&#45;Wave API started callback&quot;.">
<polygon fill="none" stroke="black" points="271,-356 271,-386 375,-386 375,-356 271,-356"/>
<text text-anchor="start" x="279" y="-374" font-family="Helvetica,sans-Serif" font-size="10.00">zwapi_set_awaiting</text>
<text text-anchor="middle" x="323" y="-363" font-family="Helvetica,sans-Serif" font-size="10.00">_zwave_api_started</text>
</a>
</g>
</g>
<!-- Node34&#45;&gt;Node36 -->
<g id="edge57" class="edge">
<title>Node34&#45;&gt;Node36</title>
<path fill="none" stroke="midnightblue" d="M227.02,-352.62C237.75,-354.69 249.4,-356.95 260.75,-359.15"/>
<polygon fill="midnightblue" stroke="midnightblue" points="260.13,-362.59 270.61,-361.05 261.46,-355.72 260.13,-362.59"/>
</g>
<!-- Node35&#45;&gt;Node10 -->
<g id="edge55" class="edge">
<title>Node35&#45;&gt;Node10</title>
<path fill="none" stroke="midnightblue" d="M381.11,-327C442.73,-327 540.59,-327 604.44,-327"/>
<polygon fill="midnightblue" stroke="midnightblue" points="604.77,-330.5 614.77,-327 604.77,-323.5 604.77,-330.5"/>
</g>
<!-- Node35&#45;&gt;Node31 -->
<g id="edge56" class="edge">
<title>Node35&#45;&gt;Node31</title>
<path fill="none" stroke="midnightblue" d="M360.45,-336.55C385.44,-343.09 418.8,-351.83 445.67,-358.87"/>
<polygon fill="midnightblue" stroke="midnightblue" points="445.06,-362.32 455.62,-361.47 446.83,-355.55 445.06,-362.32"/>
</g>
</g>
</svg>
