<?xml version="1.0" encoding="UTF-8" standalone="no"?>
<!DOCTYPE svg PUBLIC "-//W3C//DTD SVG 1.1//EN"
 "http://www.w3.org/Graphics/SVG/1.1/DTD/svg11.dtd">
<!-- Generated by graphviz version 2.43.0 (0)
 -->
<!-- Title: zwapi_add_smartstart_node_to_network Pages: 1 -->
<svg width="411pt" height="52pt"
 viewBox="0.00 0.00 411.00 51.50" xmlns="http://www.w3.org/2000/svg" xmlns:xlink="http://www.w3.org/1999/xlink">
<g id="graph0" class="graph" transform="scale(1 1) rotate(0) translate(4 47.5)">
<title>zwapi_add_smartstart_node_to_network</title>
<!-- Node1 -->
<g id="node1" class="node">
<title>Node1</title>
<g id="a_node1"><a xlink:title="Add any type of node to the network and accept prekit inclusion.">
<polygon fill="#bfbfbf" stroke="black" points="290,-0.5 290,-30.5 403,-30.5 403,-0.5 290,-0.5"/>
<text text-anchor="start" x="298" y="-18.5" font-family="Helvetica,sans-Serif" font-size="10.00">zwapi_add_smartstart</text>
<text text-anchor="middle" x="346.5" y="-7.5" font-family="Helvetica,sans-Serif" font-size="10.00">_node_to_network</text>
</a>
</g>
</g>
<!-- Node2 -->
<g id="node2" class="node">
<title>Node2</title>
<g id="a_node2"><a xlink:href="nm__state__machine_8c.html#ac9fe4041f9ca45bad16c9b6ad7bae02f" target="_top" xlink:title=" ">
<polygon fill="none" stroke="black" points="149,-6 149,-25 254,-25 254,-6 149,-6"/>
<text text-anchor="middle" x="201.5" y="-13" font-family="Helvetica,sans-Serif" font-size="10.00">nm_fsm_post_event</text>
</a>
</g>
</g>
<!-- Node1&#45;&gt;Node2 -->
<g id="edge1" class="edge">
<title>Node1&#45;&gt;Node2</title>
<path fill="none" stroke="midnightblue" d="M279.77,-15.5C271.15,-15.5 262.41,-15.5 254.07,-15.5"/>
<polygon fill="midnightblue" stroke="midnightblue" points="279.8,-19 289.8,-15.5 279.8,-12 279.8,-19"/>
</g>
<!-- Node2&#45;&gt;Node2 -->
<g id="edge2" class="edge">
<title>Node2&#45;&gt;Node2</title>
<path fill="none" stroke="midnightblue" d="M228.38,-34.15C227.26,-39.44 218.3,-43.5 201.5,-43.5 175.91,-43.5 168.51,-34.07 179.31,-25.26"/>
<polygon fill="midnightblue" stroke="midnightblue" points="231.45,-32.47 223.69,-25.26 225.26,-35.74 231.45,-32.47"/>
</g>
<!-- Node3 -->
<g id="node3" class="node">
<title>Node3</title>
<g id="a_node3"><a xlink:href="zwave__network__management__process_8c.html#a59cf655b084839b45cc25e23b3aef04c" target="_top" xlink:title=" ">
<polygon fill="none" stroke="black" points="0,-6 0,-25 113,-25 113,-6 0,-6"/>
<text text-anchor="middle" x="56.5" y="-13" font-family="Helvetica,sans-Serif" font-size="10.00">PROCESS_THREAD</text>
</a>
</g>
</g>
<!-- Node2&#45;&gt;Node3 -->
<g id="edge3" class="edge">
<title>Node2&#45;&gt;Node3</title>
<path fill="none" stroke="midnightblue" d="M138.73,-15.5C130.31,-15.5 121.71,-15.5 113.4,-15.5"/>
<polygon fill="midnightblue" stroke="midnightblue" points="138.87,-19 148.87,-15.5 138.87,-12 138.87,-19"/>
</g>
</g>
</svg>
