<?xml version="1.0" encoding="UTF-8" standalone="no"?>
<!DOCTYPE svg PUBLIC "-//W3C//DTD SVG 1.1//EN"
 "http://www.w3.org/Graphics/SVG/1.1/DTD/svg11.dtd">
<!-- Generated by graphviz version 2.43.0 (0)
 -->
<!-- Title: zwapi_is_pti_enabled Pages: 1 -->
<svg width="1444pt" height="541pt"
 viewBox="0.00 0.00 1444.00 541.00" xmlns="http://www.w3.org/2000/svg" xmlns:xlink="http://www.w3.org/1999/xlink">
<g id="graph0" class="graph" transform="scale(1 1) rotate(0) translate(4 537)">
<title>zwapi_is_pti_enabled</title>
<!-- Node1 -->
<g id="node1" class="node">
<title>Node1</title>
<g id="a_node1"><a xlink:title="Get the current state of pti.">
<polygon fill="#bfbfbf" stroke="black" points="0,-292 0,-311 110,-311 110,-292 0,-292"/>
<text text-anchor="middle" x="55" y="-299" font-family="Helvetica,sans-Serif" font-size="10.00">zwapi_is_pti_enabled</text>
</a>
</g>
</g>
<!-- Node2 -->
<g id="node2" class="node">
<title>Node2</title>
<g id="a_node2"><a xlink:href="group__ZWAPI__BASIS.html#ga86f39675ef90062b9d5b97ba4701a1bd" target="_top" xlink:title="Check if PTI supported.">
<polygon fill="none" stroke="black" points="146,-314 146,-333 265,-333 265,-314 146,-314"/>
<text text-anchor="middle" x="205.5" y="-321" font-family="Helvetica,sans-Serif" font-size="10.00">zwapi_is_pti_supported</text>
</a>
</g>
</g>
<!-- Node1&#45;&gt;Node2 -->
<g id="edge1" class="edge">
<title>Node1&#45;&gt;Node2</title>
<path fill="none" stroke="midnightblue" d="M110.03,-309.5C118.44,-310.75 127.21,-312.05 135.89,-313.34"/>
<polygon fill="midnightblue" stroke="midnightblue" points="135.59,-316.83 146,-314.83 136.62,-309.91 135.59,-316.83"/>
</g>
<!-- Node4 -->
<g id="node4" class="node">
<title>Node4</title>
<g id="a_node4"><a xlink:href="zwapi__init_8c.html#a5ec89d5817b8ce00454fce891ae8400e" target="_top" xlink:title="Send a command to the Z&#45;Wave module and waits for an ACK.">
<polygon fill="none" stroke="black" points="147.5,-264.5 147.5,-294.5 263.5,-294.5 263.5,-264.5 147.5,-264.5"/>
<text text-anchor="start" x="155.5" y="-282.5" font-family="Helvetica,sans-Serif" font-size="10.00">zwapi_send_command</text>
<text text-anchor="middle" x="205.5" y="-271.5" font-family="Helvetica,sans-Serif" font-size="10.00">_with_response</text>
</a>
</g>
</g>
<!-- Node1&#45;&gt;Node4 -->
<g id="edge3" class="edge">
<title>Node1&#45;&gt;Node4</title>
<path fill="none" stroke="midnightblue" d="M110.03,-293.5C118.83,-292.19 128.04,-290.83 137.11,-289.48"/>
<polygon fill="midnightblue" stroke="midnightblue" points="137.88,-292.91 147.26,-287.98 136.85,-285.98 137.88,-292.91"/>
</g>
<!-- Node3 -->
<g id="node3" class="node">
<title>Node3</title>
<g id="a_node3"><a xlink:href="group__ZWAPI__INIT.html#ga0a823074baec69913d0e8590b46e4e33" target="_top" xlink:title="Check if a command is supported by the connected Z&#45;Wave module.">
<polygon fill="none" stroke="black" points="301,-314 301,-333 453,-333 453,-314 301,-314"/>
<text text-anchor="middle" x="377" y="-321" font-family="Helvetica,sans-Serif" font-size="10.00">zwapi_support_command_func</text>
</a>
</g>
</g>
<!-- Node2&#45;&gt;Node3 -->
<g id="edge2" class="edge">
<title>Node2&#45;&gt;Node3</title>
<path fill="none" stroke="midnightblue" d="M265.31,-323.5C273.55,-323.5 282.16,-323.5 290.78,-323.5"/>
<polygon fill="midnightblue" stroke="midnightblue" points="290.88,-327 300.88,-323.5 290.88,-320 290.88,-327"/>
</g>
<!-- Node4&#45;&gt;Node3 -->
<g id="edge49" class="edge">
<title>Node4&#45;&gt;Node3</title>
<path fill="none" stroke="midnightblue" d="M263.88,-294.4C285.16,-299.92 309.02,-306.11 329.24,-311.36"/>
<polygon fill="midnightblue" stroke="midnightblue" points="328.59,-314.81 339.15,-313.93 330.35,-308.03 328.59,-314.81"/>
</g>
<!-- Node5 -->
<g id="node5" class="node">
<title>Node5</title>
<g id="a_node5"><a xlink:href="zwapi__session_8c.html#abf613a2ad7710ac80fb239ba55e621d7" target="_top" xlink:title="Send data frame to Z&#45;Wave chip via serial API, wait for ACK and a RES frame.">
<polygon fill="none" stroke="black" points="319.5,-264.5 319.5,-294.5 434.5,-294.5 434.5,-264.5 319.5,-264.5"/>
<text text-anchor="start" x="327.5" y="-282.5" font-family="Helvetica,sans-Serif" font-size="10.00">zwapi_session_send</text>
<text text-anchor="middle" x="377" y="-271.5" font-family="Helvetica,sans-Serif" font-size="10.00">_frame_with_response</text>
</a>
</g>
</g>
<!-- Node4&#45;&gt;Node5 -->
<g id="edge4" class="edge">
<title>Node4&#45;&gt;Node5</title>
<path fill="none" stroke="midnightblue" d="M263.88,-279.5C278.4,-279.5 294.11,-279.5 309.05,-279.5"/>
<polygon fill="midnightblue" stroke="midnightblue" points="309.25,-283 319.25,-279.5 309.25,-276 309.25,-283"/>
</g>
<!-- Node6 -->
<g id="node6" class="node">
<title>Node6</title>
<g id="a_node6"><a xlink:href="zwapi__connection_8c.html#a91ce3acd7eff779496789637a9c27f40" target="_top" xlink:title="Provides the data of the serial buffer for the last received frame.">
<polygon fill="none" stroke="black" points="984.5,-502.5 984.5,-532.5 1097.5,-532.5 1097.5,-502.5 984.5,-502.5"/>
<text text-anchor="start" x="992.5" y="-520.5" font-family="Helvetica,sans-Serif" font-size="10.00">zwapi_connection_get</text>
<text text-anchor="middle" x="1041" y="-509.5" font-family="Helvetica,sans-Serif" font-size="10.00">_last_rx_frame</text>
</a>
</g>
</g>
<!-- Node5&#45;&gt;Node6 -->
<g id="edge5" class="edge">
<title>Node5&#45;&gt;Node6</title>
<path fill="none" stroke="midnightblue" d="M434.52,-293.13C441.16,-296.2 447.51,-299.94 453,-304.5 478.4,-325.61 463.64,-348.35 489,-369.5 631.91,-488.71 861.84,-512.66 974.08,-516.96"/>
<polygon fill="midnightblue" stroke="midnightblue" points="974.13,-520.46 984.25,-517.31 974.37,-513.47 974.13,-520.46"/>
</g>
<!-- Node7 -->
<g id="node7" class="node">
<title>Node7</title>
<g id="a_node7"><a xlink:href="zwapi__connection_8c.html#a86b069d152a5c2f8ac95774a688dff48" target="_top" xlink:title="make the zwapi_connection_status types human readable.">
<polygon fill="none" stroke="black" points="489,-176.5 489,-206.5 616,-206.5 616,-176.5 489,-176.5"/>
<text text-anchor="start" x="497" y="-194.5" font-family="Helvetica,sans-Serif" font-size="10.00">zwapi_connection_status</text>
<text text-anchor="middle" x="552.5" y="-183.5" font-family="Helvetica,sans-Serif" font-size="10.00">_to_string</text>
</a>
</g>
</g>
<!-- Node5&#45;&gt;Node7 -->
<g id="edge6" class="edge">
<title>Node5&#45;&gt;Node7</title>
<path fill="none" stroke="midnightblue" d="M406.15,-264.45C428.51,-252.59 460.62,-235.72 489,-221.5 495.81,-218.09 503.06,-214.53 510.14,-211.11"/>
<polygon fill="midnightblue" stroke="midnightblue" points="512.11,-214.04 519.6,-206.55 509.07,-207.74 512.11,-214.04"/>
</g>
<!-- Node8 -->
<g id="node8" class="node">
<title>Node8</title>
<g id="a_node8"><a xlink:href="zwapi__session_8c.html#a1f2b3e7c2dcf31708ef8d333747352ba" target="_top" xlink:title=" ">
<polygon fill="none" stroke="black" points="814.5,-409.5 814.5,-439.5 937.5,-439.5 937.5,-409.5 814.5,-409.5"/>
<text text-anchor="start" x="822.5" y="-427.5" font-family="Helvetica,sans-Serif" font-size="10.00">zwapi_session_enqueue</text>
<text text-anchor="middle" x="876" y="-416.5" font-family="Helvetica,sans-Serif" font-size="10.00">_frame</text>
</a>
</g>
</g>
<!-- Node5&#45;&gt;Node8 -->
<g id="edge7" class="edge">
<title>Node5&#45;&gt;Node8</title>
<path fill="none" stroke="midnightblue" d="M426.36,-294.57C435.29,-297.65 444.49,-301.02 453,-304.5 544.09,-341.69 557.39,-374.48 652,-401.5 701.65,-415.68 759.73,-421.34 804.17,-423.5"/>
<polygon fill="midnightblue" stroke="midnightblue" points="804.15,-427 814.29,-423.95 804.45,-420.01 804.15,-427"/>
</g>
<!-- Node11 -->
<g id="node11" class="node">
<title>Node11</title>
<g id="a_node11"><a xlink:href="zwapi__session_8c.html#a32577f3500efc3d937dbc68eebb3c370" target="_top" xlink:title="Send data frame to Z&#45;Wave chip via serial port and wait for ACK.">
<polygon fill="none" stroke="black" points="499,-264.5 499,-294.5 606,-294.5 606,-264.5 499,-264.5"/>
<text text-anchor="start" x="507" y="-282.5" font-family="Helvetica,sans-Serif" font-size="10.00">zwapi_session_send</text>
<text text-anchor="middle" x="552.5" y="-271.5" font-family="Helvetica,sans-Serif" font-size="10.00">_frame</text>
</a>
</g>
</g>
<!-- Node5&#45;&gt;Node11 -->
<g id="edge11" class="edge">
<title>Node5&#45;&gt;Node11</title>
<path fill="none" stroke="midnightblue" d="M434.81,-279.5C452.08,-279.5 471.15,-279.5 488.78,-279.5"/>
<polygon fill="midnightblue" stroke="midnightblue" points="488.97,-283 498.97,-279.5 488.97,-276 488.97,-283"/>
</g>
<!-- Node31 -->
<g id="node31" class="node">
<title>Node31</title>
<g id="a_node31"><a xlink:href="zwapi__session_8c.html#a9d30e1677f02d7730ab035aa9333235d" target="_top" xlink:title=" ">
<polygon fill="none" stroke="black" points="661.5,-163.5 661.5,-193.5 765.5,-193.5 765.5,-163.5 661.5,-163.5"/>
<text text-anchor="start" x="669.5" y="-181.5" font-family="Helvetica,sans-Serif" font-size="10.00">zwapi_session_wait</text>
<text text-anchor="middle" x="713.5" y="-170.5" font-family="Helvetica,sans-Serif" font-size="10.00">_for_response</text>
</a>
</g>
</g>
<!-- Node5&#45;&gt;Node31 -->
<g id="edge48" class="edge">
<title>Node5&#45;&gt;Node31</title>
<path fill="none" stroke="midnightblue" d="M434.75,-266C483.27,-254.03 554.76,-235.41 616,-215.5 632.53,-210.12 650.37,-203.52 666.17,-197.38"/>
<polygon fill="midnightblue" stroke="midnightblue" points="667.67,-200.55 675.7,-193.64 665.12,-194.03 667.67,-200.55"/>
</g>
<!-- Node8&#45;&gt;Node6 -->
<g id="edge8" class="edge">
<title>Node8&#45;&gt;Node6</title>
<path fill="none" stroke="midnightblue" d="M896.04,-439.71C915.53,-454.77 947.13,-477.8 977,-493.5 980.25,-495.21 983.64,-496.86 987.1,-498.44"/>
<polygon fill="midnightblue" stroke="midnightblue" points="985.79,-501.68 996.36,-502.45 988.57,-495.26 985.79,-501.68"/>
</g>
<!-- Node9 -->
<g id="node9" class="node">
<title>Node9</title>
<g id="a_node9"><a xlink:href="zwapi__session_8c.html#ad7bac697ee2388b38ed3777b5a3862bc" target="_top" xlink:title=" ">
<polygon fill="none" stroke="black" points="984.5,-453.5 984.5,-483.5 1097.5,-483.5 1097.5,-453.5 984.5,-453.5"/>
<text text-anchor="start" x="992.5" y="-471.5" font-family="Helvetica,sans-Serif" font-size="10.00">zwapi_session_get_rx</text>
<text text-anchor="middle" x="1041" y="-460.5" font-family="Helvetica,sans-Serif" font-size="10.00">_queue_length</text>
</a>
</g>
</g>
<!-- Node8&#45;&gt;Node9 -->
<g id="edge9" class="edge">
<title>Node8&#45;&gt;Node9</title>
<path fill="none" stroke="midnightblue" d="M932.64,-439.52C946.07,-443.15 960.55,-447.05 974.39,-450.79"/>
<polygon fill="midnightblue" stroke="midnightblue" points="973.77,-454.25 984.33,-453.47 975.59,-447.49 973.77,-454.25"/>
</g>
<!-- Node10 -->
<g id="node10" class="node">
<title>Node10</title>
<g id="a_node10"><a xlink:href="group__ZWAPI__INIT.html#ga438a74c9752197d20d377874d5a61694" target="_top" xlink:title="Returns the pointer to the callbacks registered at init.">
<polygon fill="none" stroke="black" points="977,-415 977,-434 1105,-434 1105,-415 977,-415"/>
<text text-anchor="middle" x="1041" y="-422" font-family="Helvetica,sans-Serif" font-size="10.00">zwave_api_get_callbacks</text>
</a>
</g>
</g>
<!-- Node8&#45;&gt;Node10 -->
<g id="edge10" class="edge">
<title>Node8&#45;&gt;Node10</title>
<path fill="none" stroke="midnightblue" d="M937.7,-424.5C947.17,-424.5 957.04,-424.5 966.76,-424.5"/>
<polygon fill="midnightblue" stroke="midnightblue" points="966.8,-428 976.8,-424.5 966.8,-421 966.8,-428"/>
</g>
<!-- Node11&#45;&gt;Node8 -->
<g id="edge29" class="edge">
<title>Node11&#45;&gt;Node8</title>
<path fill="none" stroke="midnightblue" d="M566.21,-294.69C583.56,-314.43 616.59,-348.62 652,-367.5 699.54,-392.84 758.84,-407.3 804.35,-415.31"/>
<polygon fill="midnightblue" stroke="midnightblue" points="803.98,-418.79 814.42,-417.02 805.15,-411.89 803.98,-418.79"/>
</g>
<!-- Node12 -->
<g id="node12" class="node">
<title>Node12</title>
<g id="a_node12"><a xlink:href="zwapi__connection_8c.html#a13b6e6b6c56844f4344fabe490bc5eac" target="_top" xlink:title="Closes and re&#45;initializes the zwapi_connection to the Z&#45;Wave module.">
<polygon fill="none" stroke="black" points="812,-251 812,-270 940,-270 940,-251 812,-251"/>
<text text-anchor="middle" x="876" y="-258" font-family="Helvetica,sans-Serif" font-size="10.00">zwapi_connection_restart</text>
</a>
</g>
</g>
<!-- Node11&#45;&gt;Node12 -->
<g id="edge12" class="edge">
<title>Node11&#45;&gt;Node12</title>
<path fill="none" stroke="midnightblue" d="M606.23,-276.38C659.44,-273.24 742.05,-268.36 801.64,-264.84"/>
<polygon fill="midnightblue" stroke="midnightblue" points="801.97,-268.32 811.74,-264.24 801.55,-261.33 801.97,-268.32"/>
</g>
<!-- Node22 -->
<g id="node22" class="node">
<title>Node22</title>
<g id="a_node22"><a xlink:href="zwapi__timestamp_8c.html#a6ebe1ddfe689bce6ee72fc12f708aece" target="_top" xlink:title="get the timestamp">
<polygon fill="none" stroke="black" points="985,-213 985,-232 1097,-232 1097,-213 985,-213"/>
<text text-anchor="middle" x="1041" y="-220" font-family="Helvetica,sans-Serif" font-size="10.00">zwapi_timestamp_get</text>
</a>
</g>
</g>
<!-- Node11&#45;&gt;Node22 -->
<g id="edge47" class="edge">
<title>Node11&#45;&gt;Node22</title>
<path fill="none" stroke="midnightblue" d="M606.12,-270.72C620.94,-268.31 637.09,-265.74 652,-263.5 722.55,-252.89 740.09,-249.34 811,-241.5 866.11,-235.41 928.88,-230.33 974.75,-226.96"/>
<polygon fill="midnightblue" stroke="midnightblue" points="975.14,-230.44 984.86,-226.23 974.63,-223.46 975.14,-230.44"/>
</g>
<!-- Node23 -->
<g id="node23" class="node">
<title>Node23</title>
<g id="a_node23"><a xlink:href="zwapi__connection_8c.html#af47f8cbd93974d5c91d659fdeb7a870b" target="_top" xlink:title="Transmit a frame via serial port by adding SOF, Len, Type, cmd and Checksum.">
<polygon fill="none" stroke="black" points="822,-289 822,-308 930,-308 930,-289 822,-289"/>
<text text-anchor="middle" x="876" y="-296" font-family="Helvetica,sans-Serif" font-size="10.00">zwapi_connection_tx</text>
</a>
</g>
</g>
<!-- Node11&#45;&gt;Node23 -->
<g id="edge23" class="edge">
<title>Node11&#45;&gt;Node23</title>
<path fill="none" stroke="midnightblue" d="M606.23,-282.62C662.56,-285.95 751.83,-291.22 811.86,-294.77"/>
<polygon fill="midnightblue" stroke="midnightblue" points="811.79,-298.27 821.97,-295.37 812.2,-291.28 811.79,-298.27"/>
</g>
<!-- Node25 -->
<g id="node25" class="node">
<title>Node25</title>
<g id="a_node25"><a xlink:href="zwapi__timestamp_8c.html#a3925f2732e344672608db38351236688" target="_top" xlink:title="compare the current timestamp with the timestamp passed as an argument">
<polygon fill="none" stroke="black" points="988,-0.5 988,-30.5 1094,-30.5 1094,-0.5 988,-0.5"/>
<text text-anchor="start" x="996" y="-18.5" font-family="Helvetica,sans-Serif" font-size="10.00">zwapi_is_timestamp</text>
<text text-anchor="middle" x="1041" y="-7.5" font-family="Helvetica,sans-Serif" font-size="10.00">_elapsed</text>
</a>
</g>
</g>
<!-- Node11&#45;&gt;Node25 -->
<g id="edge28" class="edge">
<title>Node11&#45;&gt;Node25</title>
<path fill="none" stroke="midnightblue" d="M570.33,-264.46C583.63,-252.08 602.19,-233.68 616,-215.5 635.28,-190.13 629.87,-176.43 652,-153.5 709.98,-93.44 732.96,-83.14 811,-53.5 865.05,-32.97 930.45,-23.52 977.49,-19.17"/>
<polygon fill="midnightblue" stroke="midnightblue" points="977.88,-22.65 987.54,-18.3 977.27,-15.68 977.88,-22.65"/>
</g>
<!-- Node26 -->
<g id="node26" class="node">
<title>Node26</title>
<g id="a_node26"><a xlink:href="zwapi__session_8c.html#a2875fbfa250b7b25ecb6bc4f0b032cb8" target="_top" xlink:title="Loads the received frames from the serial device into the zwapi_session receive queue.">
<polygon fill="none" stroke="black" points="652,-327.5 652,-357.5 775,-357.5 775,-327.5 652,-327.5"/>
<text text-anchor="start" x="660" y="-345.5" font-family="Helvetica,sans-Serif" font-size="10.00">zwapi_session_enqueue</text>
<text text-anchor="middle" x="713.5" y="-334.5" font-family="Helvetica,sans-Serif" font-size="10.00">_rx_frames</text>
</a>
</g>
</g>
<!-- Node11&#45;&gt;Node26 -->
<g id="edge30" class="edge">
<title>Node11&#45;&gt;Node26</title>
<path fill="none" stroke="midnightblue" d="M591.58,-294.59C613.63,-303.32 641.57,-314.39 665.03,-323.69"/>
<polygon fill="midnightblue" stroke="midnightblue" points="663.86,-326.99 674.45,-327.42 666.44,-320.49 663.86,-326.99"/>
</g>
<!-- Node11&#45;&gt;Node31 -->
<g id="edge43" class="edge">
<title>Node11&#45;&gt;Node31</title>
<path fill="none" stroke="midnightblue" d="M591.28,-264.39C599.8,-260.17 608.52,-255.17 616,-249.5 635.32,-234.85 632.77,-223.28 652,-208.5 656.7,-204.88 661.91,-201.53 667.24,-198.46"/>
<polygon fill="midnightblue" stroke="midnightblue" points="669.12,-201.43 676.26,-193.6 665.8,-195.27 669.12,-201.43"/>
</g>
<!-- Node13 -->
<g id="node13" class="node">
<title>Node13</title>
<g id="a_node13"><a xlink:href="zwapi__serial_8c.html#a3f2b3bd848e9fe0e6e137482bed06b46" target="_top" xlink:title="Flush the serial output if using buffered output.">
<polygon fill="none" stroke="black" points="992.5,-251.5 992.5,-281.5 1089.5,-281.5 1089.5,-251.5 992.5,-251.5"/>
<text text-anchor="start" x="1000.5" y="-269.5" font-family="Helvetica,sans-Serif" font-size="10.00">zwapi_serial_drain</text>
<text text-anchor="middle" x="1041" y="-258.5" font-family="Helvetica,sans-Serif" font-size="10.00">_buffer</text>
</a>
</g>
</g>
<!-- Node12&#45;&gt;Node13 -->
<g id="edge13" class="edge">
<title>Node12&#45;&gt;Node13</title>
<path fill="none" stroke="midnightblue" d="M940.02,-262.82C953.87,-263.33 968.47,-263.87 982.11,-264.37"/>
<polygon fill="midnightblue" stroke="midnightblue" points="982.2,-267.87 992.32,-264.74 982.45,-260.88 982.2,-267.87"/>
</g>
<!-- Node14 -->
<g id="node14" class="node">
<title>Node14</title>
<g id="a_node14"><a xlink:href="zwapi__serial_8c.html#a7762d0358e9f398b92edbfd6a550984a" target="_top" xlink:title="Write a byte to serial port device.">
<polygon fill="none" stroke="black" points="984.5,-175 984.5,-194 1097.5,-194 1097.5,-175 984.5,-175"/>
<text text-anchor="middle" x="1041" y="-182" font-family="Helvetica,sans-Serif" font-size="10.00">zwapi_serial_put_byte</text>
</a>
</g>
</g>
<!-- Node12&#45;&gt;Node14 -->
<g id="edge14" class="edge">
<title>Node12&#45;&gt;Node14</title>
<path fill="none" stroke="midnightblue" d="M891.37,-250.92C910.33,-238.62 945.05,-217.22 977,-203.5 982.31,-201.22 987.99,-199.1 993.67,-197.16"/>
<polygon fill="midnightblue" stroke="midnightblue" points="994.75,-200.49 1003.19,-194.08 992.6,-193.83 994.75,-200.49"/>
</g>
<!-- Node18 -->
<g id="node18" class="node">
<title>Node18</title>
<g id="a_node18"><a xlink:href="zwapi__serial_8c.html#aadf3397d0bd2c1657d4b1a373599acfe" target="_top" xlink:title="Closes and re&#45;initialize the last open serial port.">
<polygon fill="none" stroke="black" points="989,-339 989,-358 1093,-358 1093,-339 989,-339"/>
<text text-anchor="middle" x="1041" y="-346" font-family="Helvetica,sans-Serif" font-size="10.00">zwapi_serial_restart</text>
</a>
</g>
</g>
<!-- Node12&#45;&gt;Node18 -->
<g id="edge18" class="edge">
<title>Node12&#45;&gt;Node18</title>
<path fill="none" stroke="midnightblue" d="M916.33,-270.01C924.66,-272.62 933.27,-275.78 941,-279.5 970.96,-293.92 1001.82,-316.98 1020.95,-332.42"/>
<polygon fill="midnightblue" stroke="midnightblue" points="1018.92,-335.28 1028.87,-338.92 1023.36,-329.87 1018.92,-335.28"/>
</g>
<!-- Node12&#45;&gt;Node22 -->
<g id="edge22" class="edge">
<title>Node12&#45;&gt;Node22</title>
<path fill="none" stroke="midnightblue" d="M918.13,-250.91C939.74,-245.87 966.41,-239.66 989.29,-234.32"/>
<polygon fill="midnightblue" stroke="midnightblue" points="990.22,-237.7 999.16,-232.02 988.63,-230.88 990.22,-237.7"/>
</g>
<!-- Node15 -->
<g id="node15" class="node">
<title>Node15</title>
<g id="a_node15"><a xlink:href="zwapi__serial_8c.html#af9054824651df422bab5076d16a80fda" target="_top" xlink:title="Writes the content of a buffer to the serial port device.">
<polygon fill="none" stroke="black" points="1141,-176 1141,-195 1260,-195 1260,-176 1141,-176"/>
<text text-anchor="middle" x="1200.5" y="-183" font-family="Helvetica,sans-Serif" font-size="10.00">zwapi_serial_put_buffer</text>
</a>
</g>
</g>
<!-- Node14&#45;&gt;Node15 -->
<g id="edge15" class="edge">
<title>Node14&#45;&gt;Node15</title>
<path fill="none" stroke="midnightblue" d="M1097.53,-184.85C1108.24,-184.92 1119.59,-184.99 1130.66,-185.06"/>
<polygon fill="midnightblue" stroke="midnightblue" points="1130.71,-188.56 1140.74,-185.13 1130.76,-181.56 1130.71,-188.56"/>
</g>
<!-- Node16 -->
<g id="node16" class="node">
<title>Node16</title>
<g id="a_node16"><a xlink:href="zwapi__serial_8c.html#a0accbbf7ddb7aeab10f5df1fe3df6642" target="_top" xlink:title=" ">
<polygon fill="none" stroke="black" points="1296,-133 1296,-152 1436,-152 1436,-133 1296,-133"/>
<text text-anchor="middle" x="1366" y="-140" font-family="Helvetica,sans-Serif" font-size="10.00">zwapi_serial_log_timestamp</text>
</a>
</g>
</g>
<!-- Node15&#45;&gt;Node16 -->
<g id="edge16" class="edge">
<title>Node15&#45;&gt;Node16</title>
<path fill="none" stroke="midnightblue" d="M1237.79,-175.96C1261.71,-169.67 1293.24,-161.37 1318.93,-154.62"/>
<polygon fill="midnightblue" stroke="midnightblue" points="1320.03,-157.94 1328.82,-152.02 1318.25,-151.18 1320.03,-157.94"/>
</g>
<!-- Node17 -->
<g id="node17" class="node">
<title>Node17</title>
<g id="a_node17"><a xlink:href="zwapi__serial_8c.html#abf18afb71e14daaf65d937149ef1639f" target="_top" xlink:title="Test if a is less than b + ms.">
<polygon fill="none" stroke="black" points="1312.5,-171.5 1312.5,-201.5 1419.5,-201.5 1419.5,-171.5 1312.5,-171.5"/>
<text text-anchor="start" x="1320.5" y="-189.5" font-family="Helvetica,sans-Serif" font-size="10.00">zwapi_serial_timeval</text>
<text text-anchor="middle" x="1366" y="-178.5" font-family="Helvetica,sans-Serif" font-size="10.00">_a_lt_b_milis</text>
</a>
</g>
</g>
<!-- Node15&#45;&gt;Node17 -->
<g id="edge17" class="edge">
<title>Node15&#45;&gt;Node17</title>
<path fill="none" stroke="midnightblue" d="M1260.07,-185.86C1273.65,-185.94 1288.16,-186.03 1301.92,-186.11"/>
<polygon fill="midnightblue" stroke="midnightblue" points="1302.26,-189.62 1312.28,-186.18 1302.3,-182.62 1302.26,-189.62"/>
</g>
<!-- Node19 -->
<g id="node19" class="node">
<title>Node19</title>
<g id="a_node19"><a xlink:href="zwapi__serial_8c.html#aae586785021ac9a605cd77651429f0c9" target="_top" xlink:title="De&#45;Initialize the serial port.">
<polygon fill="none" stroke="black" points="1151,-358 1151,-377 1250,-377 1250,-358 1151,-358"/>
<text text-anchor="middle" x="1200.5" y="-365" font-family="Helvetica,sans-Serif" font-size="10.00">zwapi_serial_close</text>
</a>
</g>
</g>
<!-- Node18&#45;&gt;Node19 -->
<g id="edge19" class="edge">
<title>Node18&#45;&gt;Node19</title>
<path fill="none" stroke="midnightblue" d="M1093.14,-354.67C1108.31,-356.5 1125.06,-358.52 1140.68,-360.4"/>
<polygon fill="midnightblue" stroke="midnightblue" points="1140.42,-363.9 1150.76,-361.62 1141.25,-356.95 1140.42,-363.9"/>
</g>
<!-- Node20 -->
<g id="node20" class="node">
<title>Node20</title>
<g id="a_node20"><a xlink:href="zwapi__serial_8c.html#a07b09de97f4932d882fc77e191c44638" target="_top" xlink:title="Initialize the serial port to 115200 BAUD 8N1.">
<polygon fill="none" stroke="black" points="1156,-320 1156,-339 1245,-339 1245,-320 1156,-320"/>
<text text-anchor="middle" x="1200.5" y="-327" font-family="Helvetica,sans-Serif" font-size="10.00">zwapi_serial_init</text>
</a>
</g>
</g>
<!-- Node18&#45;&gt;Node20 -->
<g id="edge20" class="edge">
<title>Node18&#45;&gt;Node20</title>
<path fill="none" stroke="midnightblue" d="M1093.14,-342.33C1109.87,-340.31 1128.51,-338.06 1145.46,-336.02"/>
<polygon fill="midnightblue" stroke="midnightblue" points="1146.25,-339.45 1155.76,-334.78 1145.41,-332.5 1146.25,-339.45"/>
</g>
<!-- Node21 -->
<g id="node21" class="node">
<title>Node21</title>
<g id="a_node21"><a xlink:href="zwapi__serial_8c.html#aefeac5909b0bf6411db1492f69c3bc68" target="_top" xlink:title=" ">
<polygon fill="none" stroke="black" points="1306.5,-320 1306.5,-339 1425.5,-339 1425.5,-320 1306.5,-320"/>
<text text-anchor="middle" x="1366" y="-327" font-family="Helvetica,sans-Serif" font-size="10.00">zwapi_open_serial_port</text>
</a>
</g>
</g>
<!-- Node20&#45;&gt;Node21 -->
<g id="edge21" class="edge">
<title>Node20&#45;&gt;Node21</title>
<path fill="none" stroke="midnightblue" d="M1245.31,-329.5C1260.97,-329.5 1279.01,-329.5 1296.26,-329.5"/>
<polygon fill="midnightblue" stroke="midnightblue" points="1296.3,-333 1306.3,-329.5 1296.3,-326 1296.3,-333"/>
</g>
<!-- Node23&#45;&gt;Node13 -->
<g id="edge25" class="edge">
<title>Node23&#45;&gt;Node13</title>
<path fill="none" stroke="midnightblue" d="M925.46,-288.99C943.36,-285.47 963.82,-281.46 982.44,-277.8"/>
<polygon fill="midnightblue" stroke="midnightblue" points="983.15,-281.23 992.28,-275.87 981.8,-274.36 983.15,-281.23"/>
</g>
<!-- Node23&#45;&gt;Node15 -->
<g id="edge26" class="edge">
<title>Node23&#45;&gt;Node15</title>
<path fill="none" stroke="midnightblue" d="M930.42,-307.98C978.44,-313.95 1049.72,-316.29 1105,-290.5 1144.44,-272.1 1174.61,-228.76 1189.41,-203.9"/>
<polygon fill="midnightblue" stroke="midnightblue" points="1192.53,-205.49 1194.47,-195.07 1186.46,-202 1192.53,-205.49"/>
</g>
<!-- Node23&#45;&gt;Node22 -->
<g id="edge27" class="edge">
<title>Node23&#45;&gt;Node22</title>
<path fill="none" stroke="midnightblue" d="M920.67,-288.9C927.74,-286.41 934.78,-283.32 941,-279.5 960.83,-267.33 957.2,-253.71 977,-241.5 980.4,-239.4 984.05,-237.52 987.82,-235.84"/>
<polygon fill="midnightblue" stroke="midnightblue" points="989.34,-239 997.34,-232.05 986.76,-232.49 989.34,-239"/>
</g>
<!-- Node24 -->
<g id="node24" class="node">
<title>Node24</title>
<g id="a_node24"><a xlink:href="zwapi__connection_8c.html#a96d24d537c5b8d6aa0aa6a7638ba2f09" target="_top" xlink:title=" ">
<polygon fill="none" stroke="black" points="983.5,-377 983.5,-396 1098.5,-396 1098.5,-377 983.5,-377"/>
<text text-anchor="middle" x="1041" y="-384" font-family="Helvetica,sans-Serif" font-size="10.00">zwapi_frame_to_string</text>
</a>
</g>
</g>
<!-- Node23&#45;&gt;Node24 -->
<g id="edge24" class="edge">
<title>Node23&#45;&gt;Node24</title>
<path fill="none" stroke="midnightblue" d="M888.27,-308.05C906.06,-322.7 942.22,-350.76 977,-367.5 981.64,-369.73 986.6,-371.77 991.63,-373.61"/>
<polygon fill="midnightblue" stroke="midnightblue" points="990.71,-376.99 1001.3,-376.9 992.96,-370.37 990.71,-376.99"/>
</g>
<!-- Node26&#45;&gt;Node8 -->
<g id="edge42" class="edge">
<title>Node26&#45;&gt;Node8</title>
<path fill="none" stroke="midnightblue" d="M745.34,-357.65C754.86,-362.37 765.38,-367.62 775,-372.5 795.6,-382.96 818.46,-394.83 837.13,-404.59"/>
<polygon fill="midnightblue" stroke="midnightblue" points="835.71,-407.8 846.19,-409.33 838.96,-401.6 835.71,-407.8"/>
</g>
<!-- Node27 -->
<g id="node27" class="node">
<title>Node27</title>
<g id="a_node27"><a xlink:href="zwapi__connection_8c.html#a1e45c6c9695b5e7b415adfad40080720" target="_top" xlink:title="Parses serial data sent from the Z&#45;Wave module to the serial port. Should be frequently called by mai...">
<polygon fill="none" stroke="black" points="811,-137 811,-156 941,-156 941,-137 811,-137"/>
<text text-anchor="middle" x="876" y="-144" font-family="Helvetica,sans-Serif" font-size="10.00">zwapi_connection_refresh</text>
</a>
</g>
</g>
<!-- Node26&#45;&gt;Node27 -->
<g id="edge31" class="edge">
<title>Node26&#45;&gt;Node27</title>
<path fill="none" stroke="midnightblue" d="M726.83,-327.45C755.91,-291.93 828.72,-203.01 860.16,-164.62"/>
<polygon fill="midnightblue" stroke="midnightblue" points="863.25,-166.37 866.88,-156.42 857.84,-161.93 863.25,-166.37"/>
</g>
<!-- Node27&#45;&gt;Node13 -->
<g id="edge33" class="edge">
<title>Node27&#45;&gt;Node13</title>
<path fill="none" stroke="midnightblue" d="M884.87,-156.11C900.61,-174.82 937.86,-216.48 977,-241.5 979.97,-243.4 983.1,-245.19 986.32,-246.88"/>
<polygon fill="midnightblue" stroke="midnightblue" points="985.03,-250.15 995.56,-251.37 988.09,-243.85 985.03,-250.15"/>
</g>
<!-- Node27&#45;&gt;Node14 -->
<g id="edge40" class="edge">
<title>Node27&#45;&gt;Node14</title>
<path fill="none" stroke="midnightblue" d="M918.13,-156.09C939.74,-161.13 966.41,-167.34 989.29,-172.68"/>
<polygon fill="midnightblue" stroke="midnightblue" points="988.63,-176.12 999.16,-174.98 990.22,-169.3 988.63,-176.12"/>
</g>
<!-- Node27&#45;&gt;Node22 -->
<g id="edge41" class="edge">
<title>Node27&#45;&gt;Node22</title>
<path fill="none" stroke="midnightblue" d="M909.7,-156.04C920.1,-159.78 931.39,-164.6 941,-170.5 959.5,-181.85 958.14,-192.76 977,-203.5 980.85,-205.69 984.97,-207.65 989.2,-209.4"/>
<polygon fill="midnightblue" stroke="midnightblue" points="987.97,-212.68 998.56,-212.91 990.43,-206.13 987.97,-212.68"/>
</g>
<!-- Node27&#45;&gt;Node25 -->
<g id="edge32" class="edge">
<title>Node27&#45;&gt;Node25</title>
<path fill="none" stroke="midnightblue" d="M899.55,-136.96C912.88,-130.46 929.36,-120.79 941,-108.5 964.78,-83.38 951.15,-62.49 977,-39.5 978.32,-38.32 979.71,-37.2 981.15,-36.13"/>
<polygon fill="midnightblue" stroke="midnightblue" points="983.31,-38.9 989.86,-30.58 979.55,-33 983.31,-38.9"/>
</g>
<!-- Node28 -->
<g id="node28" class="node">
<title>Node28</title>
<g id="a_node28"><a xlink:href="zwapi__serial_8c.html#a538134f9fdbb1ce052667b3a041357bd" target="_top" xlink:title="Reads the output of the serial port device and stores the content in a buffer.">
<polygon fill="none" stroke="black" points="1141,-136 1141,-155 1260,-155 1260,-136 1141,-136"/>
<text text-anchor="middle" x="1200.5" y="-143" font-family="Helvetica,sans-Serif" font-size="10.00">zwapi_serial_get_buffer</text>
</a>
</g>
</g>
<!-- Node27&#45;&gt;Node28 -->
<g id="edge34" class="edge">
<title>Node27&#45;&gt;Node28</title>
<path fill="none" stroke="midnightblue" d="M941.1,-146.3C995.92,-146.13 1074.62,-145.89 1130.74,-145.71"/>
<polygon fill="midnightblue" stroke="midnightblue" points="1130.96,-149.21 1140.95,-145.68 1130.93,-142.21 1130.96,-149.21"/>
</g>
<!-- Node29 -->
<g id="node29" class="node">
<title>Node29</title>
<g id="a_node29"><a xlink:href="zwapi__serial_8c.html#abb082b1e7e727203e3ca5fbeb41f7c2b" target="_top" xlink:title="Reads a byte from the serial port device.">
<polygon fill="none" stroke="black" points="984.5,-99 984.5,-118 1097.5,-118 1097.5,-99 984.5,-99"/>
<text text-anchor="middle" x="1041" y="-106" font-family="Helvetica,sans-Serif" font-size="10.00">zwapi_serial_get_byte</text>
</a>
</g>
</g>
<!-- Node27&#45;&gt;Node29 -->
<g id="edge37" class="edge">
<title>Node27&#45;&gt;Node29</title>
<path fill="none" stroke="midnightblue" d="M918.13,-136.91C939.74,-131.87 966.41,-125.66 989.29,-120.32"/>
<polygon fill="midnightblue" stroke="midnightblue" points="990.22,-123.7 999.16,-118.02 988.63,-116.88 990.22,-123.7"/>
</g>
<!-- Node30 -->
<g id="node30" class="node">
<title>Node30</title>
<g id="a_node30"><a xlink:href="zwapi__serial_8c.html#a9a952dc2b34d92960246f6dc4e7d58f7" target="_top" xlink:title="Check the file descriptor for the serial device is available for I/O operations.">
<polygon fill="none" stroke="black" points="990.5,-49.5 990.5,-79.5 1091.5,-79.5 1091.5,-49.5 990.5,-49.5"/>
<text text-anchor="start" x="998.5" y="-67.5" font-family="Helvetica,sans-Serif" font-size="10.00">zwapi_serial_is_file</text>
<text text-anchor="middle" x="1041" y="-56.5" font-family="Helvetica,sans-Serif" font-size="10.00">_available</text>
</a>
</g>
</g>
<!-- Node27&#45;&gt;Node30 -->
<g id="edge39" class="edge">
<title>Node27&#45;&gt;Node30</title>
<path fill="none" stroke="midnightblue" d="M893.13,-136.94C916.98,-122.86 960.61,-97.38 977,-89.5 981.28,-87.44 985.78,-85.41 990.32,-83.45"/>
<polygon fill="midnightblue" stroke="midnightblue" points="991.78,-86.64 999.64,-79.54 989.07,-80.18 991.78,-86.64"/>
</g>
<!-- Node28&#45;&gt;Node16 -->
<g id="edge35" class="edge">
<title>Node28&#45;&gt;Node16</title>
<path fill="none" stroke="midnightblue" d="M1260.07,-144.43C1268.43,-144.27 1277.15,-144.11 1285.82,-143.95"/>
<polygon fill="midnightblue" stroke="midnightblue" points="1286.04,-147.45 1295.97,-143.77 1285.91,-140.45 1286.04,-147.45"/>
</g>
<!-- Node28&#45;&gt;Node17 -->
<g id="edge36" class="edge">
<title>Node28&#45;&gt;Node17</title>
<path fill="none" stroke="midnightblue" d="M1239.42,-155.01C1258.15,-159.71 1281.24,-165.5 1302.49,-170.82"/>
<polygon fill="midnightblue" stroke="midnightblue" points="1301.87,-174.28 1312.42,-173.32 1303.58,-167.49 1301.87,-174.28"/>
</g>
<!-- Node29&#45;&gt;Node28 -->
<g id="edge38" class="edge">
<title>Node29&#45;&gt;Node28</title>
<path fill="none" stroke="midnightblue" d="M1082.56,-118.03C1102.78,-122.78 1127.44,-128.57 1148.88,-133.61"/>
<polygon fill="midnightblue" stroke="midnightblue" points="1148.27,-137.06 1158.8,-135.94 1149.87,-130.25 1148.27,-137.06"/>
</g>
<!-- Node31&#45;&gt;Node22 -->
<g id="edge46" class="edge">
<title>Node31&#45;&gt;Node22</title>
<path fill="none" stroke="midnightblue" d="M765.79,-185.16C811.71,-191.16 880.87,-200.27 941,-208.5 951.86,-209.99 963.39,-211.59 974.6,-213.17"/>
<polygon fill="midnightblue" stroke="midnightblue" points="974.38,-216.67 984.77,-214.6 975.36,-209.74 974.38,-216.67"/>
</g>
<!-- Node31&#45;&gt;Node25 -->
<g id="edge45" class="edge">
<title>Node31&#45;&gt;Node25</title>
<path fill="none" stroke="midnightblue" d="M740.42,-163.4C786.92,-136.62 887.99,-79.84 977,-39.5 980.84,-37.76 984.84,-36.04 988.89,-34.36"/>
<polygon fill="midnightblue" stroke="midnightblue" points="990.4,-37.52 998.36,-30.53 987.77,-31.03 990.4,-37.52"/>
</g>
<!-- Node31&#45;&gt;Node27 -->
<g id="edge44" class="edge">
<title>Node31&#45;&gt;Node27</title>
<path fill="none" stroke="midnightblue" d="M765.72,-168.29C782.06,-165.03 800.25,-161.4 817.02,-158.06"/>
<polygon fill="midnightblue" stroke="midnightblue" points="818.14,-161.41 827.26,-156.02 816.77,-154.54 818.14,-161.41"/>
</g>
</g>
</svg>
