<?xml version="1.0" encoding="UTF-8" standalone="no"?>
<!DOCTYPE svg PUBLIC "-//W3C//DTD SVG 1.1//EN"
 "http://www.w3.org/Graphics/SVG/1.1/DTD/svg11.dtd">
<!-- Generated by graphviz version 2.43.0 (0)
 -->
<!-- Title: zwave_command_class_security_2_init Pages: 1 -->
<svg width="1353pt" height="499pt"
 viewBox="0.00 0.00 1353.00 499.00" xmlns="http://www.w3.org/2000/svg" xmlns:xlink="http://www.w3.org/1999/xlink">
<g id="graph0" class="graph" transform="scale(1 1) rotate(0) translate(4 495)">
<title>zwave_command_class_security_2_init</title>
<!-- Node1 -->
<g id="node1" class="node">
<title>Node1</title>
<g id="a_node1"><a xlink:title="Intitialize the security 2 command class handler.">
<polygon fill="#bfbfbf" stroke="black" points="0,-188.5 0,-218.5 122,-218.5 122,-188.5 0,-188.5"/>
<text text-anchor="start" x="8" y="-206.5" font-family="Helvetica,sans-Serif" font-size="10.00">zwave_command_class</text>
<text text-anchor="middle" x="61" y="-195.5" font-family="Helvetica,sans-Serif" font-size="10.00">_security_2_init</text>
</a>
</g>
</g>
<!-- Node2 -->
<g id="node2" class="node">
<title>Node2</title>
<g id="a_node2"><a xlink:href="zwave__command__class__security__2_8c.html#acc7d1c62131cdbd36899cf7c21fa4d71" target="_top" xlink:title=" ">
<polygon fill="none" stroke="black" points="158,-304.5 158,-334.5 293,-334.5 293,-304.5 158,-304.5"/>
<text text-anchor="start" x="166" y="-322.5" font-family="Helvetica,sans-Serif" font-size="10.00">on_attribute_zwave</text>
<text text-anchor="middle" x="225.5" y="-311.5" font-family="Helvetica,sans-Serif" font-size="10.00">_nls_state_desired_change</text>
</a>
</g>
</g>
<!-- Node1&#45;&gt;Node2 -->
<g id="edge1" class="edge">
<title>Node1&#45;&gt;Node2</title>
<path fill="none" stroke="midnightblue" d="M83.24,-218.66C111.83,-239.07 162.81,-275.47 195.08,-298.5"/>
<polygon fill="midnightblue" stroke="midnightblue" points="193.08,-301.37 203.25,-304.33 197.15,-295.67 193.08,-301.37"/>
</g>
<!-- Node12 -->
<g id="node12" class="node">
<title>Node12</title>
<g id="a_node12"><a xlink:href="zwave__command__class__security__2_8c.html#aa9d9bbdae7f77c34856a744f20f6bd34" target="_top" xlink:title=" ">
<polygon fill="none" stroke="black" points="164.5,-213 164.5,-254 286.5,-254 286.5,-213 164.5,-213"/>
<text text-anchor="start" x="172.5" y="-242" font-family="Helvetica,sans-Serif" font-size="10.00">zwave_command_class</text>
<text text-anchor="start" x="172.5" y="-231" font-family="Helvetica,sans-Serif" font-size="10.00">_security_2_control</text>
<text text-anchor="middle" x="225.5" y="-220" font-family="Helvetica,sans-Serif" font-size="10.00">_handler</text>
</a>
</g>
</g>
<!-- Node1&#45;&gt;Node12 -->
<g id="edge14" class="edge">
<title>Node1&#45;&gt;Node12</title>
<path fill="none" stroke="midnightblue" d="M122.05,-214.59C132.64,-216.54 143.75,-218.59 154.58,-220.59"/>
<polygon fill="midnightblue" stroke="midnightblue" points="153.96,-224.04 164.43,-222.41 155.23,-217.15 153.96,-224.04"/>
</g>
<!-- Node29 -->
<g id="node29" class="node">
<title>Node29</title>
<g id="a_node29"><a xlink:href="zwave__command__class__security__2_8c.html#a371e1c6f2a526119ee0bb383bf33c687" target="_top" xlink:title=" ">
<polygon fill="none" stroke="black" points="164.5,-153 164.5,-194 286.5,-194 286.5,-153 164.5,-153"/>
<text text-anchor="start" x="172.5" y="-182" font-family="Helvetica,sans-Serif" font-size="10.00">zwave_command_class</text>
<text text-anchor="start" x="172.5" y="-171" font-family="Helvetica,sans-Serif" font-size="10.00">_security_2_support</text>
<text text-anchor="middle" x="225.5" y="-160" font-family="Helvetica,sans-Serif" font-size="10.00">_handler</text>
</a>
</g>
</g>
<!-- Node1&#45;&gt;Node29 -->
<g id="edge35" class="edge">
<title>Node1&#45;&gt;Node29</title>
<path fill="none" stroke="midnightblue" d="M122.05,-192.41C132.64,-190.46 143.75,-188.41 154.58,-186.41"/>
<polygon fill="midnightblue" stroke="midnightblue" points="155.23,-189.85 164.43,-184.59 153.96,-182.96 155.23,-189.85"/>
</g>
<!-- Node30 -->
<g id="node30" class="node">
<title>Node30</title>
<g id="a_node30"><a xlink:href="group__zwave__command__handler.html#gae1313215c0459775bb126a2ba636eb2f" target="_top" xlink:title="Register a command class handler.">
<polygon fill="none" stroke="black" points="160.5,-103.5 160.5,-133.5 290.5,-133.5 290.5,-103.5 160.5,-103.5"/>
<text text-anchor="start" x="168.5" y="-121.5" font-family="Helvetica,sans-Serif" font-size="10.00">zwave_command_handler</text>
<text text-anchor="middle" x="225.5" y="-110.5" font-family="Helvetica,sans-Serif" font-size="10.00">_register_handler</text>
</a>
</g>
</g>
<!-- Node1&#45;&gt;Node30 -->
<g id="edge36" class="edge">
<title>Node1&#45;&gt;Node30</title>
<path fill="none" stroke="midnightblue" d="M83.4,-188.39C102.4,-175.41 131.22,-156.74 158,-143.5 162.27,-141.39 166.76,-139.35 171.31,-137.4"/>
<polygon fill="midnightblue" stroke="midnightblue" points="172.77,-140.59 180.69,-133.55 170.11,-134.11 172.77,-140.59"/>
</g>
<!-- Node3 -->
<g id="node3" class="node">
<title>Node3</title>
<g id="a_node3"><a xlink:href="group__zpc__attribute__store__network__helpers.html#ga715be25ab9c545f84ff524bc5a7eb7db" target="_top" xlink:title="Traverse up the tree from a node and finds under which Z&#45;Wave NodeID it is.">
<polygon fill="none" stroke="black" points="329,-304.5 329,-334.5 486,-334.5 486,-304.5 329,-304.5"/>
<text text-anchor="start" x="337" y="-322.5" font-family="Helvetica,sans-Serif" font-size="10.00">attribute_store_network</text>
<text text-anchor="middle" x="407.5" y="-311.5" font-family="Helvetica,sans-Serif" font-size="10.00">_helper_get_node_id_from_node</text>
</a>
</g>
</g>
<!-- Node2&#45;&gt;Node3 -->
<g id="edge2" class="edge">
<title>Node2&#45;&gt;Node3</title>
<path fill="none" stroke="midnightblue" d="M293.01,-319.5C301.36,-319.5 310,-319.5 318.62,-319.5"/>
<polygon fill="midnightblue" stroke="midnightblue" points="318.7,-323 328.7,-319.5 318.7,-316 318.7,-323"/>
</g>
<!-- Node4 -->
<g id="node4" class="node">
<title>Node4</title>
<g id="a_node4"><a xlink:href="zwave__command__class__security__2_8c.html#abfa810865bff307d3645a0a4e565d91e" target="_top" xlink:title=" ">
<polygon fill="none" stroke="black" points="342,-365.5 342,-395.5 473,-395.5 473,-365.5 342,-365.5"/>
<text text-anchor="start" x="350" y="-383.5" font-family="Helvetica,sans-Serif" font-size="10.00">zwave_command_class</text>
<text text-anchor="middle" x="407.5" y="-372.5" font-family="Helvetica,sans-Serif" font-size="10.00">_security_2_nls_state_set</text>
</a>
</g>
</g>
<!-- Node2&#45;&gt;Node4 -->
<g id="edge3" class="edge">
<title>Node2&#45;&gt;Node4</title>
<path fill="none" stroke="midnightblue" d="M270.99,-334.58C295.64,-342.93 326.47,-353.38 352.49,-362.2"/>
<polygon fill="midnightblue" stroke="midnightblue" points="351.61,-365.59 362.21,-365.49 353.86,-358.96 351.61,-365.59"/>
</g>
<!-- Node5 -->
<g id="node5" class="node">
<title>Node5</title>
<g id="a_node5"><a xlink:href="zwave__command__class__security__2_8c.html#a1b10608a516efe377385f9b6cbc651f3" target="_top" xlink:title=" ">
<polygon fill="none" stroke="black" points="529.5,-409.5 529.5,-439.5 636.5,-439.5 636.5,-409.5 529.5,-409.5"/>
<text text-anchor="start" x="537.5" y="-427.5" font-family="Helvetica,sans-Serif" font-size="10.00">on_nls_state_set_v2</text>
<text text-anchor="middle" x="583" y="-416.5" font-family="Helvetica,sans-Serif" font-size="10.00">_send_complete</text>
</a>
</g>
</g>
<!-- Node4&#45;&gt;Node5 -->
<g id="edge4" class="edge">
<title>Node4&#45;&gt;Node5</title>
<path fill="none" stroke="midnightblue" d="M467.72,-395.52C484.46,-399.76 502.73,-404.4 519.65,-408.69"/>
<polygon fill="midnightblue" stroke="midnightblue" points="518.88,-412.1 529.43,-411.17 520.6,-405.32 518.88,-412.1"/>
</g>
<!-- Node7 -->
<g id="node7" class="node">
<title>Node7</title>
<g id="a_node7"><a xlink:href="group__zwave__tx__scheme__selector.html#ga2c884bc863b6f63eac2a074fdde828d8" target="_top" xlink:title="Return a connection info parameters for sending a Z&#45;Wave frame.">
<polygon fill="none" stroke="black" points="697.5,-323.5 697.5,-353.5 814.5,-353.5 814.5,-323.5 697.5,-323.5"/>
<text text-anchor="start" x="705.5" y="-341.5" font-family="Helvetica,sans-Serif" font-size="10.00">zwave_tx_scheme_get</text>
<text text-anchor="middle" x="756" y="-330.5" font-family="Helvetica,sans-Serif" font-size="10.00">_node_connection_info</text>
</a>
</g>
</g>
<!-- Node4&#45;&gt;Node7 -->
<g id="edge11" class="edge">
<title>Node4&#45;&gt;Node7</title>
<path fill="none" stroke="midnightblue" d="M473.27,-372.65C534.31,-365.25 625.43,-354.21 687.39,-346.7"/>
<polygon fill="midnightblue" stroke="midnightblue" points="687.95,-350.15 697.45,-345.48 687.1,-343.2 687.95,-350.15"/>
</g>
<!-- Node10 -->
<g id="node10" class="node">
<title>Node10</title>
<g id="a_node10"><a xlink:href="group__zwave__tx__scheme__selector.html#ga8f8d4442ddf4c165d5a79b9a25d6420d" target="_top" xlink:title="Define a Z&#45;Wave frame transmission options.">
<polygon fill="none" stroke="black" points="697.5,-460.5 697.5,-490.5 814.5,-490.5 814.5,-460.5 697.5,-460.5"/>
<text text-anchor="start" x="705.5" y="-478.5" font-family="Helvetica,sans-Serif" font-size="10.00">zwave_tx_scheme_get</text>
<text text-anchor="middle" x="756" y="-467.5" font-family="Helvetica,sans-Serif" font-size="10.00">_node_tx_options</text>
</a>
</g>
</g>
<!-- Node4&#45;&gt;Node10 -->
<g id="edge12" class="edge">
<title>Node4&#45;&gt;Node10</title>
<path fill="none" stroke="midnightblue" d="M427.73,-395.55C449.34,-411.58 486.11,-436.31 522,-448.5 575.52,-466.69 639.51,-473.09 686.87,-475.14"/>
<polygon fill="midnightblue" stroke="midnightblue" points="686.9,-478.64 697.02,-475.52 687.16,-471.65 686.9,-478.64"/>
</g>
<!-- Node11 -->
<g id="node11" class="node">
<title>Node11</title>
<g id="a_node11"><a xlink:href="group__zwave__tx.html#gad1538f36d226fe8147c5e538625568df" target="_top" xlink:title="Queue and send frames to Z&#45;Wave nodes.">
<polygon fill="none" stroke="black" points="701.5,-373 701.5,-392 810.5,-392 810.5,-373 701.5,-373"/>
<text text-anchor="middle" x="756" y="-380" font-family="Helvetica,sans-Serif" font-size="10.00">zwave_tx_send_data</text>
</a>
</g>
</g>
<!-- Node4&#45;&gt;Node11 -->
<g id="edge13" class="edge">
<title>Node4&#45;&gt;Node11</title>
<path fill="none" stroke="midnightblue" d="M473.27,-380.87C535.61,-381.23 629.32,-381.77 691.3,-382.13"/>
<polygon fill="midnightblue" stroke="midnightblue" points="691.33,-385.63 701.35,-382.19 691.37,-378.63 691.33,-385.63"/>
</g>
<!-- Node6 -->
<g id="node6" class="node">
<title>Node6</title>
<g id="a_node6"><a xlink:href="zwave__command__class__security__2_8c.html#a2a1147d4c8dc5832ec859abf891e6a53" target="_top" xlink:title=" ">
<polygon fill="none" stroke="black" points="702.5,-411.5 702.5,-441.5 809.5,-441.5 809.5,-411.5 702.5,-411.5"/>
<text text-anchor="start" x="710.5" y="-429.5" font-family="Helvetica,sans-Serif" font-size="10.00">on_nls_state_get_v2</text>
<text text-anchor="middle" x="756" y="-418.5" font-family="Helvetica,sans-Serif" font-size="10.00">_send_complete</text>
</a>
</g>
</g>
<!-- Node5&#45;&gt;Node6 -->
<g id="edge5" class="edge">
<title>Node5&#45;&gt;Node6</title>
<path fill="none" stroke="midnightblue" d="M636.7,-425.12C654.26,-425.32 673.98,-425.55 692.23,-425.77"/>
<polygon fill="midnightblue" stroke="midnightblue" points="692.43,-429.27 702.47,-425.89 692.51,-422.27 692.43,-429.27"/>
</g>
<!-- Node5&#45;&gt;Node7 -->
<g id="edge6" class="edge">
<title>Node5&#45;&gt;Node7</title>
<path fill="none" stroke="midnightblue" d="M604.5,-409.39C623.38,-395.98 652.54,-376.56 680,-363.5 684.68,-361.27 689.62,-359.16 694.63,-357.17"/>
<polygon fill="midnightblue" stroke="midnightblue" points="696.19,-360.32 704.31,-353.51 693.71,-353.78 696.19,-360.32"/>
</g>
<!-- Node5&#45;&gt;Node10 -->
<g id="edge9" class="edge">
<title>Node5&#45;&gt;Node10</title>
<path fill="none" stroke="midnightblue" d="M634.38,-439.53C653.34,-445.18 675.1,-451.67 694.86,-457.56"/>
<polygon fill="midnightblue" stroke="midnightblue" points="694.1,-460.99 704.68,-460.49 696.1,-454.28 694.1,-460.99"/>
</g>
<!-- Node5&#45;&gt;Node11 -->
<g id="edge10" class="edge">
<title>Node5&#45;&gt;Node11</title>
<path fill="none" stroke="midnightblue" d="M636.7,-411.56C659,-406.08 684.8,-399.74 706.61,-394.39"/>
<polygon fill="midnightblue" stroke="midnightblue" points="707.44,-397.78 716.32,-392 705.77,-390.99 707.44,-397.78"/>
</g>
<!-- Node8 -->
<g id="node8" class="node">
<title>Node8</title>
<g id="a_node8"><a xlink:href="group__zwave__controller__keyset.html#ga43a73c5ae7dc860fa2e5edb9814c432f" target="_top" xlink:title="Get the hight encapsulation supported by a given key set.">
<polygon fill="none" stroke="black" points="881.5,-284.5 881.5,-314.5 1000.5,-314.5 1000.5,-284.5 881.5,-284.5"/>
<text text-anchor="start" x="889.5" y="-302.5" font-family="Helvetica,sans-Serif" font-size="10.00">zwave_controller_get</text>
<text text-anchor="middle" x="941" y="-291.5" font-family="Helvetica,sans-Serif" font-size="10.00">_highest_encapsulation</text>
</a>
</g>
</g>
<!-- Node7&#45;&gt;Node8 -->
<g id="edge7" class="edge">
<title>Node7&#45;&gt;Node8</title>
<path fill="none" stroke="midnightblue" d="M814.65,-326.21C832.68,-322.37 852.75,-318.09 871.45,-314.11"/>
<polygon fill="midnightblue" stroke="midnightblue" points="872.33,-317.5 881.38,-311.99 870.87,-310.65 872.33,-317.5"/>
</g>
<!-- Node9 -->
<g id="node9" class="node">
<title>Node9</title>
<g id="a_node9"><a xlink:href="group__zwave__controller__storage.html#ga771d01deff646dfda3f8406d6fbf5736" target="_top" xlink:title="Return the granted keys for a node.">
<polygon fill="none" stroke="black" points="877,-235.5 877,-265.5 1005,-265.5 1005,-235.5 877,-235.5"/>
<text text-anchor="start" x="885" y="-253.5" font-family="Helvetica,sans-Serif" font-size="10.00">zwave_controller_storage</text>
<text text-anchor="middle" x="941" y="-242.5" font-family="Helvetica,sans-Serif" font-size="10.00">_get_node_granted_keys</text>
</a>
</g>
</g>
<!-- Node7&#45;&gt;Node9 -->
<g id="edge8" class="edge">
<title>Node7&#45;&gt;Node9</title>
<path fill="none" stroke="midnightblue" d="M780.09,-323.34C802.05,-309.38 836.35,-288.73 868,-274.5 872.1,-272.66 876.38,-270.88 880.73,-269.18"/>
<polygon fill="midnightblue" stroke="midnightblue" points="882.17,-272.38 890.31,-265.6 879.71,-265.83 882.17,-272.38"/>
</g>
<!-- Node13 -->
<g id="node13" class="node">
<title>Node13</title>
<g id="a_node13"><a xlink:href="zwave__command__class__security__2_8c.html#ad6cf88ba96647fbb110ad024d13ad927" target="_top" xlink:title=" ">
<polygon fill="none" stroke="black" points="346.5,-207 346.5,-248 468.5,-248 468.5,-207 346.5,-207"/>
<text text-anchor="start" x="354.5" y="-236" font-family="Helvetica,sans-Serif" font-size="10.00">zwave_command_class</text>
<text text-anchor="start" x="354.5" y="-225" font-family="Helvetica,sans-Serif" font-size="10.00">_security_2_commands</text>
<text text-anchor="middle" x="407.5" y="-214" font-family="Helvetica,sans-Serif" font-size="10.00">_supported_report</text>
</a>
</g>
</g>
<!-- Node12&#45;&gt;Node13 -->
<g id="edge15" class="edge">
<title>Node12&#45;&gt;Node13</title>
<path fill="none" stroke="midnightblue" d="M286.69,-231.49C302.6,-230.96 319.91,-230.39 336.3,-229.84"/>
<polygon fill="midnightblue" stroke="midnightblue" points="336.49,-233.34 346.37,-229.5 336.26,-226.34 336.49,-233.34"/>
</g>
<!-- Node14 -->
<g id="node14" class="node">
<title>Node14</title>
<g id="a_node14"><a xlink:href="group__command__classes__utils.html#ga9c5cc33bc4f4b02b55abb6d39878d1fe" target="_top" xlink:title="function helper function that determines if a transmission was done using the ZPC&#39;s highest security ...">
<polygon fill="none" stroke="black" points="528,-256.5 528,-286.5 638,-286.5 638,-256.5 528,-256.5"/>
<text text-anchor="start" x="536" y="-274.5" font-family="Helvetica,sans-Serif" font-size="10.00">is_using_zpc_highest</text>
<text text-anchor="middle" x="583" y="-263.5" font-family="Helvetica,sans-Serif" font-size="10.00">_security_class</text>
</a>
</g>
</g>
<!-- Node13&#45;&gt;Node14 -->
<g id="edge16" class="edge">
<title>Node13&#45;&gt;Node14</title>
<path fill="none" stroke="midnightblue" d="M468.69,-242.77C484.58,-246.79 501.78,-251.16 517.87,-255.24"/>
<polygon fill="midnightblue" stroke="midnightblue" points="517.16,-258.67 527.72,-257.73 518.88,-251.88 517.16,-258.67"/>
</g>
<!-- Node17 -->
<g id="node17" class="node">
<title>Node17</title>
<g id="a_node17"><a xlink:href="group__command__classes__utils.html#gaff12f5d1f5b9eed08201efab5854190c" target="_top" xlink:title="Find the Z&#45;Wave Endpoint ID Node attribute based on a const zwave_controller_connection_info_t object...">
<polygon fill="none" stroke="black" points="522,-142.5 522,-172.5 644,-172.5 644,-142.5 522,-142.5"/>
<text text-anchor="start" x="530" y="-160.5" font-family="Helvetica,sans-Serif" font-size="10.00">zwave_command_class</text>
<text text-anchor="middle" x="583" y="-149.5" font-family="Helvetica,sans-Serif" font-size="10.00">_get_endpoint_node</text>
</a>
</g>
</g>
<!-- Node13&#45;&gt;Node17 -->
<g id="edge21" class="edge">
<title>Node13&#45;&gt;Node17</title>
<path fill="none" stroke="midnightblue" d="M459.62,-206.88C483.6,-197.2 511.98,-185.75 535.37,-176.31"/>
<polygon fill="midnightblue" stroke="midnightblue" points="536.77,-179.52 544.73,-172.54 534.15,-173.03 536.77,-179.52"/>
</g>
<!-- Node24 -->
<g id="node24" class="node">
<title>Node24</title>
<g id="a_node24"><a xlink:href="group__zwave__granted__keys.html#gacb95eae0e7a3adbbba13fd3116addd46" target="_top" xlink:title="Updates the Attribute Store to indicate that the Security key and Protocol that we just used are work...">
<polygon fill="none" stroke="black" points="522,-44 522,-85 644,-85 644,-44 522,-44"/>
<text text-anchor="start" x="530" y="-73" font-family="Helvetica,sans-Serif" font-size="10.00">zwave_command_class</text>
<text text-anchor="start" x="530" y="-62" font-family="Helvetica,sans-Serif" font-size="10.00">_mark_key_protocol_as</text>
<text text-anchor="middle" x="583" y="-51" font-family="Helvetica,sans-Serif" font-size="10.00">_supported</text>
</a>
</g>
</g>
<!-- Node13&#45;&gt;Node24 -->
<g id="edge28" class="edge">
<title>Node13&#45;&gt;Node24</title>
<path fill="none" stroke="midnightblue" d="M430.47,-206.86C461.42,-177.79 517.9,-124.72 552.48,-92.23"/>
<polygon fill="midnightblue" stroke="midnightblue" points="555.04,-94.63 559.93,-85.23 550.25,-89.53 555.04,-94.63"/>
</g>
<!-- Node28 -->
<g id="node28" class="node">
<title>Node28</title>
<g id="a_node28"><a xlink:href="group__zwave__tx__scheme__selector.html#ga0efa34ef87df3cef0f14ac47c733d491" target="_top" xlink:title="Return the Highest security Class of a NodeID.">
<polygon fill="none" stroke="black" points="682,-235.5 682,-265.5 830,-265.5 830,-235.5 682,-235.5"/>
<text text-anchor="start" x="690" y="-253.5" font-family="Helvetica,sans-Serif" font-size="10.00">zwave_tx_scheme_get</text>
<text text-anchor="middle" x="756" y="-242.5" font-family="Helvetica,sans-Serif" font-size="10.00">_node_highest_security_class</text>
</a>
</g>
</g>
<!-- Node13&#45;&gt;Node28 -->
<g id="edge32" class="edge">
<title>Node13&#45;&gt;Node28</title>
<path fill="none" stroke="midnightblue" d="M468.86,-231.51C524.97,-235.23 609.06,-240.81 671.58,-244.96"/>
<polygon fill="midnightblue" stroke="midnightblue" points="671.6,-248.47 681.81,-245.64 672.07,-241.49 671.6,-248.47"/>
</g>
<!-- Node14&#45;&gt;Node8 -->
<g id="edge17" class="edge">
<title>Node14&#45;&gt;Node8</title>
<path fill="none" stroke="midnightblue" d="M638.07,-275.75C700.42,-280.66 803.04,-288.73 871.07,-294.08"/>
<polygon fill="midnightblue" stroke="midnightblue" points="871.02,-297.59 881.27,-294.88 871.57,-290.61 871.02,-297.59"/>
</g>
<!-- Node15 -->
<g id="node15" class="node">
<title>Node15</title>
<g id="a_node15"><a xlink:href="group__zwave__tx__scheme__selector.html#ga13b472eb06e679638bad680aa33825db" target="_top" xlink:title="Return a list of security keys which the controller can use.">
<polygon fill="none" stroke="black" points="697.5,-186.5 697.5,-216.5 814.5,-216.5 814.5,-186.5 697.5,-186.5"/>
<text text-anchor="start" x="705.5" y="-204.5" font-family="Helvetica,sans-Serif" font-size="10.00">zwave_tx_scheme_get</text>
<text text-anchor="middle" x="756" y="-193.5" font-family="Helvetica,sans-Serif" font-size="10.00">_zpc_granted_keys</text>
</a>
</g>
</g>
<!-- Node14&#45;&gt;Node15 -->
<g id="edge18" class="edge">
<title>Node14&#45;&gt;Node15</title>
<path fill="none" stroke="midnightblue" d="M612.95,-256.35C631.76,-246.82 656.99,-234.65 680,-225.5 684.8,-223.59 689.82,-221.73 694.88,-219.93"/>
<polygon fill="midnightblue" stroke="midnightblue" points="696.32,-223.13 704.64,-216.57 694.04,-216.52 696.32,-223.13"/>
</g>
<!-- Node15&#45;&gt;Node9 -->
<g id="edge19" class="edge">
<title>Node15&#45;&gt;Node9</title>
<path fill="none" stroke="midnightblue" d="M813.4,-216.6C832.54,-221.73 854.09,-227.5 873.91,-232.8"/>
<polygon fill="midnightblue" stroke="midnightblue" points="873.22,-236.24 883.79,-235.45 875.03,-229.48 873.22,-236.24"/>
</g>
<!-- Node16 -->
<g id="node16" class="node">
<title>Node16</title>
<g id="a_node16"><a xlink:href="group__zwave__network__management.html#gae265f1e935804f3f0b971755ab0ee61e" target="_top" xlink:title="Get the cached NodeID.">
<polygon fill="none" stroke="black" points="868,-186.5 868,-216.5 1014,-216.5 1014,-186.5 868,-186.5"/>
<text text-anchor="start" x="876" y="-204.5" font-family="Helvetica,sans-Serif" font-size="10.00">zwave_network_management</text>
<text text-anchor="middle" x="941" y="-193.5" font-family="Helvetica,sans-Serif" font-size="10.00">_get_node_id</text>
</a>
</g>
</g>
<!-- Node15&#45;&gt;Node16 -->
<g id="edge20" class="edge">
<title>Node15&#45;&gt;Node16</title>
<path fill="none" stroke="midnightblue" d="M814.65,-201.5C828.36,-201.5 843.24,-201.5 857.81,-201.5"/>
<polygon fill="midnightblue" stroke="midnightblue" points="857.82,-205 867.82,-201.5 857.82,-198 857.82,-205"/>
</g>
<!-- Node18 -->
<g id="node18" class="node">
<title>Node18</title>
<g id="a_node18"><a xlink:href="group__zpc__attribute__store__network__helpers.html#gae4d15b8e0c61c88d94c8f342bd2014fc" target="_top" xlink:title="Take a UNID/endpoint combination and returns its attribute store node.">
<polygon fill="none" stroke="black" points="688.5,-98.5 688.5,-128.5 823.5,-128.5 823.5,-98.5 688.5,-98.5"/>
<text text-anchor="start" x="696.5" y="-116.5" font-family="Helvetica,sans-Serif" font-size="10.00">attribute_store_network</text>
<text text-anchor="middle" x="756" y="-105.5" font-family="Helvetica,sans-Serif" font-size="10.00">_helper_get_endpoint_node</text>
</a>
</g>
</g>
<!-- Node17&#45;&gt;Node18 -->
<g id="edge22" class="edge">
<title>Node17&#45;&gt;Node18</title>
<path fill="none" stroke="midnightblue" d="M642.37,-142.48C656.6,-138.82 671.95,-134.87 686.59,-131.1"/>
<polygon fill="midnightblue" stroke="midnightblue" points="687.79,-134.41 696.6,-128.53 686.05,-127.63 687.79,-134.41"/>
</g>
<!-- Node23 -->
<g id="node23" class="node">
<title>Node23</title>
<g id="a_node23"><a xlink:href="group__zwave__unid.html#ga421deceb8a12916f049e4f3446774439" target="_top" xlink:title="Form a UNID.">
<polygon fill="none" stroke="black" points="690,-148 690,-167 822,-167 822,-148 690,-148"/>
<text text-anchor="middle" x="756" y="-155" font-family="Helvetica,sans-Serif" font-size="10.00">zwave_unid_from_node_id</text>
</a>
</g>
</g>
<!-- Node17&#45;&gt;Node23 -->
<g id="edge27" class="edge">
<title>Node17&#45;&gt;Node23</title>
<path fill="none" stroke="midnightblue" d="M644.29,-157.5C655.67,-157.5 667.7,-157.5 679.48,-157.5"/>
<polygon fill="midnightblue" stroke="midnightblue" points="679.74,-161 689.74,-157.5 679.74,-154 679.74,-161"/>
</g>
<!-- Node19 -->
<g id="node19" class="node">
<title>Node19</title>
<g id="a_node19"><a xlink:href="group__zpc__attribute__store__network__helpers.html#gafb993ff484b3c826743c4695d6659cf0" target="_top" xlink:title="Take a UNID and return its attribute store node representing the NodeID.">
<polygon fill="none" stroke="black" points="875,-98.5 875,-128.5 1007,-128.5 1007,-98.5 875,-98.5"/>
<text text-anchor="start" x="883" y="-116.5" font-family="Helvetica,sans-Serif" font-size="10.00">attribute_store_network</text>
<text text-anchor="middle" x="941" y="-105.5" font-family="Helvetica,sans-Serif" font-size="10.00">_helper_get_node_id_node</text>
</a>
</g>
</g>
<!-- Node18&#45;&gt;Node19 -->
<g id="edge23" class="edge">
<title>Node18&#45;&gt;Node19</title>
<path fill="none" stroke="midnightblue" d="M823.58,-113.5C836.94,-113.5 851.06,-113.5 864.69,-113.5"/>
<polygon fill="midnightblue" stroke="midnightblue" points="864.99,-117 874.99,-113.5 864.99,-110 864.99,-117"/>
</g>
<!-- Node20 -->
<g id="node20" class="node">
<title>Node20</title>
<g id="a_node20"><a xlink:href="group__zpc__attribute__store__network__helpers.html#ga05cb572c96f7dc8e6657f86e135fafed" target="_top" xlink:title="Take a UNID and return its attribute store node representing the HomeID.">
<polygon fill="none" stroke="black" points="1050,-120.5 1050,-150.5 1185,-150.5 1185,-120.5 1050,-120.5"/>
<text text-anchor="start" x="1058" y="-138.5" font-family="Helvetica,sans-Serif" font-size="10.00">attribute_store_network</text>
<text text-anchor="middle" x="1117.5" y="-127.5" font-family="Helvetica,sans-Serif" font-size="10.00">_helper_get_home_id_node</text>
</a>
</g>
</g>
<!-- Node19&#45;&gt;Node20 -->
<g id="edge24" class="edge">
<title>Node19&#45;&gt;Node20</title>
<path fill="none" stroke="midnightblue" d="M1007.47,-121.75C1017.95,-123.08 1028.88,-124.45 1039.6,-125.8"/>
<polygon fill="midnightblue" stroke="midnightblue" points="1039.43,-129.31 1049.79,-127.09 1040.3,-122.37 1039.43,-129.31"/>
</g>
<!-- Node22 -->
<g id="node22" class="node">
<title>Node22</title>
<g id="a_node22"><a xlink:href="group__zwave__unid.html#ga76885767debd174e96e6df00b0a368c3" target="_top" xlink:title="Convert a UNID to a node ID.">
<polygon fill="none" stroke="black" points="1057,-82 1057,-101 1178,-101 1178,-82 1057,-82"/>
<text text-anchor="middle" x="1117.5" y="-89" font-family="Helvetica,sans-Serif" font-size="10.00">zwave_unid_to_node_id</text>
</a>
</g>
</g>
<!-- Node19&#45;&gt;Node22 -->
<g id="edge26" class="edge">
<title>Node19&#45;&gt;Node22</title>
<path fill="none" stroke="midnightblue" d="M1007.47,-105.25C1020.29,-103.63 1033.78,-101.93 1046.74,-100.3"/>
<polygon fill="midnightblue" stroke="midnightblue" points="1047.5,-103.73 1056.99,-99 1046.63,-96.78 1047.5,-103.73"/>
</g>
<!-- Node21 -->
<g id="node21" class="node">
<title>Node21</title>
<g id="a_node21"><a xlink:href="group__zwave__unid.html#ga92f9808a08c2ce1c0a6a9dc2debf3580" target="_top" xlink:title="Convert a UNID to a Home ID.">
<polygon fill="none" stroke="black" points="1221,-126 1221,-145 1345,-145 1345,-126 1221,-126"/>
<text text-anchor="middle" x="1283" y="-133" font-family="Helvetica,sans-Serif" font-size="10.00">zwave_unid_to_home_id</text>
</a>
</g>
</g>
<!-- Node20&#45;&gt;Node21 -->
<g id="edge25" class="edge">
<title>Node20&#45;&gt;Node21</title>
<path fill="none" stroke="midnightblue" d="M1185,-135.5C1193.42,-135.5 1202.07,-135.5 1210.57,-135.5"/>
<polygon fill="midnightblue" stroke="midnightblue" points="1210.83,-139 1220.83,-135.5 1210.83,-132 1210.83,-139"/>
</g>
<!-- Node25 -->
<g id="node25" class="node">
<title>Node25</title>
<g id="a_node25"><a xlink:href="zwave__command__class__granted__keys__resolver_8c.html#a89837c6f52ad963a8943085fec4afa5d" target="_top" xlink:title="Remove some discovery combinations if we know the protocol.">
<polygon fill="none" stroke="black" points="680,-0.5 680,-30.5 832,-30.5 832,-0.5 680,-0.5"/>
<text text-anchor="start" x="688" y="-18.5" font-family="Helvetica,sans-Serif" font-size="10.00">exclude_combinations</text>
<text text-anchor="middle" x="756" y="-7.5" font-family="Helvetica,sans-Serif" font-size="10.00">_with_protocol_from_discovery</text>
</a>
</g>
</g>
<!-- Node24&#45;&gt;Node25 -->
<g id="edge29" class="edge">
<title>Node24&#45;&gt;Node25</title>
<path fill="none" stroke="midnightblue" d="M644.29,-47.22C660.05,-42.71 677.08,-37.83 692.93,-33.28"/>
<polygon fill="midnightblue" stroke="midnightblue" points="693.99,-36.62 702.64,-30.5 692.06,-29.89 693.99,-36.62"/>
</g>
<!-- Node27 -->
<g id="node27" class="node">
<title>Node27</title>
<g id="a_node27"><a xlink:href="group__zwave__controller__keyset.html#gad06107f2d1f4698eb96817423dc98d74" target="_top" xlink:title="Get the Z&#45;Wave Key used for a given encapsulation.">
<polygon fill="none" stroke="black" points="692,-49.5 692,-79.5 820,-79.5 820,-49.5 692,-49.5"/>
<text text-anchor="start" x="700" y="-67.5" font-family="Helvetica,sans-Serif" font-size="10.00">zwave_controller_get</text>
<text text-anchor="middle" x="756" y="-56.5" font-family="Helvetica,sans-Serif" font-size="10.00">_key_from_encapsulation</text>
</a>
</g>
</g>
<!-- Node24&#45;&gt;Node27 -->
<g id="edge31" class="edge">
<title>Node24&#45;&gt;Node27</title>
<path fill="none" stroke="midnightblue" d="M644.29,-64.5C656.31,-64.5 669.06,-64.5 681.46,-64.5"/>
<polygon fill="midnightblue" stroke="midnightblue" points="681.78,-68 691.78,-64.5 681.78,-61 681.78,-68"/>
</g>
<!-- Node26 -->
<g id="node26" class="node">
<title>Node26</title>
<g id="a_node26"><a xlink:href="group__zpc__attribute__store__network__helpers.html#ga1148a8bb5e8a4630bf6d6f5361f17770" target="_top" xlink:title="Returns the Attribute Store node for Endpoint 0, under a NodeID node.">
<polygon fill="none" stroke="black" points="892,-0.5 892,-30.5 990,-30.5 990,-0.5 892,-0.5"/>
<text text-anchor="start" x="900" y="-18.5" font-family="Helvetica,sans-Serif" font-size="10.00">attribute_store_get</text>
<text text-anchor="middle" x="941" y="-7.5" font-family="Helvetica,sans-Serif" font-size="10.00">_endpoint_0_node</text>
</a>
</g>
</g>
<!-- Node25&#45;&gt;Node26 -->
<g id="edge30" class="edge">
<title>Node25&#45;&gt;Node26</title>
<path fill="none" stroke="midnightblue" d="M832.23,-15.5C848.72,-15.5 865.95,-15.5 881.67,-15.5"/>
<polygon fill="midnightblue" stroke="midnightblue" points="881.75,-19 891.75,-15.5 881.75,-12 881.75,-19"/>
</g>
<!-- Node28&#45;&gt;Node8 -->
<g id="edge33" class="edge">
<title>Node28&#45;&gt;Node8</title>
<path fill="none" stroke="midnightblue" d="M813.4,-265.6C832.54,-270.73 854.09,-276.5 873.91,-281.8"/>
<polygon fill="midnightblue" stroke="midnightblue" points="873.22,-285.24 883.79,-284.45 875.03,-278.48 873.22,-285.24"/>
</g>
<!-- Node28&#45;&gt;Node9 -->
<g id="edge34" class="edge">
<title>Node28&#45;&gt;Node9</title>
<path fill="none" stroke="midnightblue" d="M830.12,-250.5C842.17,-250.5 854.67,-250.5 866.73,-250.5"/>
<polygon fill="midnightblue" stroke="midnightblue" points="866.74,-254 876.74,-250.5 866.74,-247 866.74,-254"/>
</g>
</g>
</svg>
