<?xml version="1.0" encoding="UTF-8" standalone="no"?>
<!DOCTYPE svg PUBLIC "-//W3C//DTD SVG 1.1//EN"
 "http://www.w3.org/Graphics/SVG/1.1/DTD/svg11.dtd">
<!-- Generated by graphviz version 2.43.0 (0)
 -->
<!-- Title: zwave_rx_fixt_teardown Pages: 1 -->
<svg width="909pt" height="105pt"
 viewBox="0.00 0.00 909.00 105.00" xmlns="http://www.w3.org/2000/svg" xmlns:xlink="http://www.w3.org/1999/xlink">
<g id="graph0" class="graph" transform="scale(1 1) rotate(0) translate(4 101)">
<title>zwave_rx_fixt_teardown</title>
<!-- Node1 -->
<g id="node1" class="node">
<title>Node1</title>
<g id="a_node1"><a xlink:title=" ">
<polygon fill="#bfbfbf" stroke="black" points="0,-50 0,-69 122,-69 122,-50 0,-50"/>
<text text-anchor="middle" x="61" y="-57" font-family="Helvetica,sans-Serif" font-size="10.00">zwave_rx_fixt_teardown</text>
</a>
</g>
</g>
<!-- Node2 -->
<g id="node2" class="node">
<title>Node2</title>
<g id="a_node2"><a xlink:href="group__ZWAPI__INIT.html#ga256d0ca55a0e5388cf665a3630d28fe0" target="_top" xlink:title="Disable/stop logging serial data to file.">
<polygon fill="none" stroke="black" points="158,-70 158,-89 286,-89 286,-70 158,-70"/>
<text text-anchor="middle" x="222" y="-77" font-family="Helvetica,sans-Serif" font-size="10.00">zwapi_log_to_file_disable</text>
</a>
</g>
</g>
<!-- Node1&#45;&gt;Node2 -->
<g id="edge1" class="edge">
<title>Node1&#45;&gt;Node2</title>
<path fill="none" stroke="midnightblue" d="M122.11,-67.06C130.52,-68.12 139.23,-69.21 147.85,-70.3"/>
<polygon fill="midnightblue" stroke="midnightblue" points="147.53,-73.79 157.89,-71.56 148.4,-66.84 147.53,-73.79"/>
</g>
<!-- Node4 -->
<g id="node4" class="node">
<title>Node4</title>
<g id="a_node4"><a xlink:href="group__zwave__rx__internals.html#gaed3606fa8bb6eff34c27efe91c3525a6" target="_top" xlink:title="Shutdown the module.">
<polygon fill="none" stroke="black" points="169,-31 169,-50 275,-50 275,-31 169,-31"/>
<text text-anchor="middle" x="222" y="-38" font-family="Helvetica,sans-Serif" font-size="10.00">zwave_rx_shutdown</text>
</a>
</g>
</g>
<!-- Node1&#45;&gt;Node4 -->
<g id="edge3" class="edge">
<title>Node1&#45;&gt;Node4</title>
<path fill="none" stroke="midnightblue" d="M122.11,-52.32C134.13,-50.88 146.79,-49.37 158.88,-47.92"/>
<polygon fill="midnightblue" stroke="midnightblue" points="159.36,-51.39 168.87,-46.73 158.53,-44.44 159.36,-51.39"/>
</g>
<!-- Node3 -->
<g id="node3" class="node">
<title>Node3</title>
<g id="a_node3"><a xlink:href="zwapi__serial_8c.html#aace970ac426fe88b9a6e61b275726e17" target="_top" xlink:title="Disable/stop logging serial data to file.">
<polygon fill="none" stroke="black" points="322,-66.5 322,-96.5 424,-96.5 424,-66.5 322,-66.5"/>
<text text-anchor="start" x="330" y="-84.5" font-family="Helvetica,sans-Serif" font-size="10.00">zwapi_serial_log_to</text>
<text text-anchor="middle" x="373" y="-73.5" font-family="Helvetica,sans-Serif" font-size="10.00">_file_disable</text>
</a>
</g>
</g>
<!-- Node2&#45;&gt;Node3 -->
<g id="edge2" class="edge">
<title>Node2&#45;&gt;Node3</title>
<path fill="none" stroke="midnightblue" d="M286.19,-80.35C294.65,-80.46 303.31,-80.58 311.71,-80.69"/>
<polygon fill="midnightblue" stroke="midnightblue" points="311.77,-84.19 321.81,-80.83 311.86,-77.19 311.77,-84.19"/>
</g>
<!-- Node5 -->
<g id="node5" class="node">
<title>Node5</title>
<g id="a_node5"><a xlink:href="group__ZWAPI__INIT.html#ga87ccde341e5cf630064d51222bf56fb9" target="_top" xlink:title="Shut down the Z&#45;Wave API and close the communication ports.">
<polygon fill="none" stroke="black" points="333,-28 333,-47 413,-47 413,-28 333,-28"/>
<text text-anchor="middle" x="373" y="-35" font-family="Helvetica,sans-Serif" font-size="10.00">zwapi_destroy</text>
</a>
</g>
</g>
<!-- Node4&#45;&gt;Node5 -->
<g id="edge4" class="edge">
<title>Node4&#45;&gt;Node5</title>
<path fill="none" stroke="midnightblue" d="M275.11,-39.45C290.52,-39.14 307.34,-38.8 322.58,-38.5"/>
<polygon fill="midnightblue" stroke="midnightblue" points="322.91,-41.99 332.83,-38.29 322.77,-34.99 322.91,-41.99"/>
</g>
<!-- Node6 -->
<g id="node6" class="node">
<title>Node6</title>
<g id="a_node6"><a xlink:href="zwapi__session_8c.html#a6f5555814b03c924b3d057d1b4080cf1" target="_top" xlink:title="Close the zwapi_session with the Z&#45;Wave module.">
<polygon fill="none" stroke="black" points="460,-28 460,-47 588,-47 588,-28 460,-28"/>
<text text-anchor="middle" x="524" y="-35" font-family="Helvetica,sans-Serif" font-size="10.00">zwapi_session_shutdown</text>
</a>
</g>
</g>
<!-- Node5&#45;&gt;Node6 -->
<g id="edge5" class="edge">
<title>Node5&#45;&gt;Node6</title>
<path fill="none" stroke="midnightblue" d="M413.15,-37.5C424.44,-37.5 437.15,-37.5 449.8,-37.5"/>
<polygon fill="midnightblue" stroke="midnightblue" points="449.91,-41 459.91,-37.5 449.91,-34 449.91,-41"/>
</g>
<!-- Node7 -->
<g id="node7" class="node">
<title>Node7</title>
<g id="a_node7"><a xlink:href="zwapi__connection_8c.html#ad89586e01dc2af5757f767f0bbe6e889" target="_top" xlink:title="Close the zwapi_connection to the Z&#45;Wave module.">
<polygon fill="none" stroke="black" points="624,-50 624,-69 766,-69 766,-50 624,-50"/>
<text text-anchor="middle" x="695" y="-57" font-family="Helvetica,sans-Serif" font-size="10.00">zwapi_connection_shutdown</text>
</a>
</g>
</g>
<!-- Node6&#45;&gt;Node7 -->
<g id="edge6" class="edge">
<title>Node6&#45;&gt;Node7</title>
<path fill="none" stroke="midnightblue" d="M588.41,-45.75C596.76,-46.84 605.4,-47.97 613.98,-49.08"/>
<polygon fill="midnightblue" stroke="midnightblue" points="613.63,-52.57 624,-50.39 614.53,-45.63 613.63,-52.57"/>
</g>
<!-- Node9 -->
<g id="node9" class="node">
<title>Node9</title>
<g id="a_node9"><a xlink:href="zwapi__session_8c.html#ae9af89b1122e8be3a8704581079dd824" target="_top" xlink:title="Flush the zwapi_session receive queue.">
<polygon fill="none" stroke="black" points="641.5,-0.5 641.5,-30.5 748.5,-30.5 748.5,-0.5 641.5,-0.5"/>
<text text-anchor="start" x="649.5" y="-18.5" font-family="Helvetica,sans-Serif" font-size="10.00">zwapi_session_flush</text>
<text text-anchor="middle" x="695" y="-7.5" font-family="Helvetica,sans-Serif" font-size="10.00">_queue</text>
</a>
</g>
</g>
<!-- Node6&#45;&gt;Node9 -->
<g id="edge8" class="edge">
<title>Node6&#45;&gt;Node9</title>
<path fill="none" stroke="midnightblue" d="M588.41,-29.25C602.43,-27.42 617.27,-25.49 631.27,-23.67"/>
<polygon fill="midnightblue" stroke="midnightblue" points="631.81,-27.12 641.28,-22.36 630.91,-20.18 631.81,-27.12"/>
</g>
<!-- Node8 -->
<g id="node8" class="node">
<title>Node8</title>
<g id="a_node8"><a xlink:href="zwapi__serial_8c.html#aae586785021ac9a605cd77651429f0c9" target="_top" xlink:title="De&#45;Initialize the serial port.">
<polygon fill="none" stroke="black" points="802,-50 802,-69 901,-69 901,-50 802,-50"/>
<text text-anchor="middle" x="851.5" y="-57" font-family="Helvetica,sans-Serif" font-size="10.00">zwapi_serial_close</text>
</a>
</g>
</g>
<!-- Node7&#45;&gt;Node8 -->
<g id="edge7" class="edge">
<title>Node7&#45;&gt;Node8</title>
<path fill="none" stroke="midnightblue" d="M766.02,-59.5C774.65,-59.5 783.39,-59.5 791.83,-59.5"/>
<polygon fill="midnightblue" stroke="midnightblue" points="791.93,-63 801.93,-59.5 791.93,-56 791.93,-63"/>
</g>
</g>
</svg>
