<?xml version="1.0" encoding="UTF-8" standalone="no"?>
<!DOCTYPE svg PUBLIC "-//W3C//DTD SVG 1.1//EN"
 "http://www.w3.org/Graphics/SVG/1.1/DTD/svg11.dtd">
<!-- Generated by graphviz version 2.43.0 (0)
 -->
<!-- Title: zwave_command_class_crc16_decapsulate Pages: 1 -->
<svg width="609pt" height="78pt"
 viewBox="0.00 0.00 609.00 77.50" xmlns="http://www.w3.org/2000/svg" xmlns:xlink="http://www.w3.org/1999/xlink">
<g id="graph0" class="graph" transform="scale(1 1) rotate(0) translate(4 73.5)">
<title>zwave_command_class_crc16_decapsulate</title>
<!-- Node1 -->
<g id="node1" class="node">
<title>Node1</title>
<g id="a_node1"><a xlink:title="Decapsulate Multi Channel encapsulation and inject the frame back to the Z&#45;Wave Controller.">
<polygon fill="#bfbfbf" stroke="black" points="0,-22.5 0,-52.5 122,-52.5 122,-22.5 0,-22.5"/>
<text text-anchor="start" x="8" y="-40.5" font-family="Helvetica,sans-Serif" font-size="10.00">zwave_command_class</text>
<text text-anchor="middle" x="61" y="-29.5" font-family="Helvetica,sans-Serif" font-size="10.00">_crc16_decapsulate</text>
</a>
</g>
</g>
<!-- Node2 -->
<g id="node2" class="node">
<title>Node2</title>
<g id="a_node2"><a xlink:href="group__zwave__controller__crc16.html#ga13ba4b98080a23413214afb6886b6eec" target="_top" xlink:title="Calculation of CRC16&#45;CCITT with Polynomial 0x1021 on data.">
<polygon fill="none" stroke="black" points="158,-50 158,-69 277,-69 277,-50 158,-50"/>
<text text-anchor="middle" x="217.5" y="-57" font-family="Helvetica,sans-Serif" font-size="10.00">zwave_controller_crc16</text>
</a>
</g>
</g>
<!-- Node1&#45;&gt;Node2 -->
<g id="edge1" class="edge">
<title>Node1&#45;&gt;Node2</title>
<path fill="none" stroke="midnightblue" d="M122.18,-46.07C130.58,-47.27 139.27,-48.5 147.81,-49.72"/>
<polygon fill="midnightblue" stroke="midnightblue" points="147.36,-53.19 157.76,-51.14 148.35,-46.26 147.36,-53.19"/>
</g>
<!-- Node3 -->
<g id="node3" class="node">
<title>Node3</title>
<g id="a_node3"><a xlink:href="group__zwave__controller__internal.html#ga79b433f95d08d541cd2a4d74ed27fd65" target="_top" xlink:title="see zwave_controller_callbacks_t">
<polygon fill="none" stroke="black" points="164.5,-0.5 164.5,-30.5 270.5,-30.5 270.5,-0.5 164.5,-0.5"/>
<text text-anchor="start" x="172.5" y="-18.5" font-family="Helvetica,sans-Serif" font-size="10.00">zwave_controller_on</text>
<text text-anchor="middle" x="217.5" y="-7.5" font-family="Helvetica,sans-Serif" font-size="10.00">_frame_received</text>
</a>
</g>
</g>
<!-- Node1&#45;&gt;Node3 -->
<g id="edge2" class="edge">
<title>Node1&#45;&gt;Node3</title>
<path fill="none" stroke="midnightblue" d="M122.18,-28.93C132.71,-27.43 143.68,-25.87 154.27,-24.36"/>
<polygon fill="midnightblue" stroke="midnightblue" points="154.86,-27.81 164.27,-22.94 153.87,-20.88 154.86,-27.81"/>
</g>
<!-- Node4 -->
<g id="node4" class="node">
<title>Node4</title>
<g id="a_node4"><a xlink:href="group__zwave__controller__transport__internal.html#gab1d371c3594b30fb5e48405df834696a" target="_top" xlink:title="Entry point of of frame to the transport plugin system .">
<polygon fill="none" stroke="black" points="313,-0.5 313,-30.5 447,-30.5 447,-0.5 313,-0.5"/>
<text text-anchor="start" x="321" y="-18.5" font-family="Helvetica,sans-Serif" font-size="10.00">zwave_controller_transport</text>
<text text-anchor="middle" x="380" y="-7.5" font-family="Helvetica,sans-Serif" font-size="10.00">_on_frame_received</text>
</a>
</g>
</g>
<!-- Node3&#45;&gt;Node4 -->
<g id="edge3" class="edge">
<title>Node3&#45;&gt;Node4</title>
<path fill="none" stroke="midnightblue" d="M270.61,-15.5C280.81,-15.5 291.7,-15.5 302.5,-15.5"/>
<polygon fill="midnightblue" stroke="midnightblue" points="302.8,-19 312.8,-15.5 302.8,-12 302.8,-19"/>
</g>
<!-- Node5 -->
<g id="node5" class="node">
<title>Node5</title>
<g id="a_node5"><a xlink:href="zwave__controller__transport_8c.html#a98ff30ad35d280415fc1d0c576dfcbe2" target="_top" xlink:title="Get the transport by class object.">
<polygon fill="none" stroke="black" points="483,-6 483,-25 601,-25 601,-6 483,-6"/>
<text text-anchor="middle" x="542" y="-13" font-family="Helvetica,sans-Serif" font-size="10.00">get_transport_by_class</text>
</a>
</g>
</g>
<!-- Node4&#45;&gt;Node5 -->
<g id="edge4" class="edge">
<title>Node4&#45;&gt;Node5</title>
<path fill="none" stroke="midnightblue" d="M447,-15.5C455.45,-15.5 464.11,-15.5 472.59,-15.5"/>
<polygon fill="midnightblue" stroke="midnightblue" points="472.82,-19 482.82,-15.5 472.82,-12 472.82,-19"/>
</g>
</g>
</svg>
