<?xml version="1.0" encoding="UTF-8" standalone="no"?>
<!DOCTYPE svg PUBLIC "-//W3C//DTD SVG 1.1//EN"
 "http://www.w3.org/Graphics/SVG/1.1/DTD/svg11.dtd">
<!-- Generated by graphviz version 2.43.0 (0)
 -->
<!-- Title: zwave_rx_poll_request Pages: 1 -->
<svg width="380pt" height="28pt"
 viewBox="0.00 0.00 380.00 28.00" xmlns="http://www.w3.org/2000/svg" xmlns:xlink="http://www.w3.org/1999/xlink">
<g id="graph0" class="graph" transform="scale(1 1) rotate(0) translate(4 24)">
<title>zwave_rx_poll_request</title>
<!-- Node1 -->
<g id="node1" class="node">
<title>Node1</title>
<g id="a_node1"><a xlink:title="Request call zwapi_poll again.">
<polygon fill="#bfbfbf" stroke="black" points="256,-0.5 256,-19.5 372,-19.5 372,-0.5 256,-0.5"/>
<text text-anchor="middle" x="314" y="-7.5" font-family="Helvetica,sans-Serif" font-size="10.00">zwave_rx_poll_request</text>
</a>
</g>
</g>
<!-- Node2 -->
<g id="node2" class="node">
<title>Node2</title>
<g id="a_node2"><a xlink:href="group__zwave__rx__internals.html#ga5fb555f285dbe1b21ba750d0443476c8" target="_top" xlink:title="Initialize the Z&#45;Wave Rx component.">
<polygon fill="none" stroke="black" points="143,-0.5 143,-19.5 220,-19.5 220,-0.5 143,-0.5"/>
<text text-anchor="middle" x="181.5" y="-7.5" font-family="Helvetica,sans-Serif" font-size="10.00">zwave_rx_init</text>
</a>
</g>
</g>
<!-- Node1&#45;&gt;Node2 -->
<g id="edge1" class="edge">
<title>Node1&#45;&gt;Node2</title>
<path fill="none" stroke="midnightblue" d="M245.54,-10C236.82,-10 228.16,-10 220.17,-10"/>
<polygon fill="midnightblue" stroke="midnightblue" points="245.76,-13.5 255.76,-10 245.76,-6.5 245.76,-13.5"/>
</g>
<!-- Node3 -->
<g id="node3" class="node">
<title>Node3</title>
<g id="a_node3"><a xlink:href="group__zwave__rx__fixt.html#ga89a6db07ef29cb6ad8f8cdeec935b442" target="_top" xlink:title=" ">
<polygon fill="none" stroke="black" points="0,-0.5 0,-19.5 107,-19.5 107,-0.5 0,-0.5"/>
<text text-anchor="middle" x="53.5" y="-7.5" font-family="Helvetica,sans-Serif" font-size="10.00">zwave_rx_fixt_setup</text>
</a>
</g>
</g>
<!-- Node2&#45;&gt;Node3 -->
<g id="edge2" class="edge">
<title>Node2&#45;&gt;Node3</title>
<path fill="none" stroke="midnightblue" d="M132.47,-10C124.2,-10 115.57,-10 107.19,-10"/>
<polygon fill="midnightblue" stroke="midnightblue" points="132.7,-13.5 142.7,-10 132.7,-6.5 132.7,-13.5"/>
</g>
</g>
</svg>
