<?xml version="1.0" encoding="UTF-8" standalone="no"?>
<!DOCTYPE svg PUBLIC "-//W3C//DTD SVG 1.1//EN"
 "http://www.w3.org/Graphics/SVG/1.1/DTD/svg11.dtd">
<!-- Generated by graphviz version 2.43.0 (0)
 -->
<!-- Title: zwave_store_inclusion_protocol Pages: 1 -->
<svg width="786pt" height="100pt"
 viewBox="0.00 0.00 786.00 99.50" xmlns="http://www.w3.org/2000/svg" xmlns:xlink="http://www.w3.org/1999/xlink">
<g id="graph0" class="graph" transform="scale(1 1) rotate(0) translate(4 95.5)">
<title>zwave_store_inclusion_protocol</title>
<!-- Node1 -->
<g id="node1" class="node">
<title>Node1</title>
<g id="a_node1"><a xlink:title="Stores a protocol value for a NodeID in the attribute store.">
<polygon fill="#bfbfbf" stroke="black" points="0,-17 0,-47 116,-47 116,-17 0,-17"/>
<text text-anchor="start" x="8" y="-35" font-family="Helvetica,sans-Serif" font-size="10.00">zwave_store_inclusion</text>
<text text-anchor="middle" x="58" y="-24" font-family="Helvetica,sans-Serif" font-size="10.00">_protocol</text>
</a>
</g>
</g>
<!-- Node2 -->
<g id="node2" class="node">
<title>Node2</title>
<g id="a_node2"><a xlink:href="group__zpc__attribute__store__network__helpers.html#ga7a3f40a9cbc90f2674b9e9e454fd6207" target="_top" xlink:title="Take a Z&#45;Wave NodeID and return its Attribute Store node representing the NodeID.">
<polygon fill="none" stroke="black" points="152,-11.5 152,-52.5 279,-52.5 279,-11.5 152,-11.5"/>
<text text-anchor="start" x="160" y="-40.5" font-family="Helvetica,sans-Serif" font-size="10.00">attribute_store_network</text>
<text text-anchor="start" x="160" y="-29.5" font-family="Helvetica,sans-Serif" font-size="10.00">_helper_get_zwave_node</text>
<text text-anchor="middle" x="215.5" y="-18.5" font-family="Helvetica,sans-Serif" font-size="10.00">_id_node</text>
</a>
</g>
</g>
<!-- Node1&#45;&gt;Node2 -->
<g id="edge1" class="edge">
<title>Node1&#45;&gt;Node2</title>
<path fill="none" stroke="midnightblue" d="M116.02,-32C124.43,-32 133.19,-32 141.86,-32"/>
<polygon fill="midnightblue" stroke="midnightblue" points="141.98,-35.5 151.98,-32 141.98,-28.5 141.98,-35.5"/>
</g>
<!-- Node3 -->
<g id="node3" class="node">
<title>Node3</title>
<g id="a_node3"><a xlink:href="group__zpc__attribute__store__network__helpers.html#gafb993ff484b3c826743c4695d6659cf0" target="_top" xlink:title="Take a UNID and return its attribute store node representing the NodeID.">
<polygon fill="none" stroke="black" points="315,-39 315,-69 447,-69 447,-39 315,-39"/>
<text text-anchor="start" x="323" y="-57" font-family="Helvetica,sans-Serif" font-size="10.00">attribute_store_network</text>
<text text-anchor="middle" x="381" y="-46" font-family="Helvetica,sans-Serif" font-size="10.00">_helper_get_node_id_node</text>
</a>
</g>
</g>
<!-- Node2&#45;&gt;Node3 -->
<g id="edge2" class="edge">
<title>Node2&#45;&gt;Node3</title>
<path fill="none" stroke="midnightblue" d="M279.25,-40.44C287.66,-41.58 296.36,-42.75 304.96,-43.9"/>
<polygon fill="midnightblue" stroke="midnightblue" points="304.61,-47.39 314.98,-45.25 305.54,-40.45 304.61,-47.39"/>
</g>
<!-- Node7 -->
<g id="node7" class="node">
<title>Node7</title>
<g id="a_node7"><a xlink:href="group__zwave__unid.html#ga421deceb8a12916f049e4f3446774439" target="_top" xlink:title="Form a UNID.">
<polygon fill="none" stroke="black" points="315,-0.5 315,-19.5 447,-19.5 447,-0.5 315,-0.5"/>
<text text-anchor="middle" x="381" y="-7.5" font-family="Helvetica,sans-Serif" font-size="10.00">zwave_unid_from_node_id</text>
</a>
</g>
</g>
<!-- Node2&#45;&gt;Node7 -->
<g id="edge6" class="edge">
<title>Node2&#45;&gt;Node7</title>
<path fill="none" stroke="midnightblue" d="M279.25,-23.56C287.66,-22.42 296.36,-21.25 304.96,-20.1"/>
<polygon fill="midnightblue" stroke="midnightblue" points="305.54,-23.55 314.98,-18.75 304.61,-16.61 305.54,-23.55"/>
</g>
<!-- Node4 -->
<g id="node4" class="node">
<title>Node4</title>
<g id="a_node4"><a xlink:href="group__zpc__attribute__store__network__helpers.html#ga05cb572c96f7dc8e6657f86e135fafed" target="_top" xlink:title="Take a UNID and return its attribute store node representing the HomeID.">
<polygon fill="none" stroke="black" points="483,-61 483,-91 618,-91 618,-61 483,-61"/>
<text text-anchor="start" x="491" y="-79" font-family="Helvetica,sans-Serif" font-size="10.00">attribute_store_network</text>
<text text-anchor="middle" x="550.5" y="-68" font-family="Helvetica,sans-Serif" font-size="10.00">_helper_get_home_id_node</text>
</a>
</g>
</g>
<!-- Node3&#45;&gt;Node4 -->
<g id="edge3" class="edge">
<title>Node3&#45;&gt;Node4</title>
<path fill="none" stroke="midnightblue" d="M447.24,-62.57C455.62,-63.67 464.27,-64.81 472.82,-65.93"/>
<polygon fill="midnightblue" stroke="midnightblue" points="472.41,-69.4 482.78,-67.24 473.32,-62.46 472.41,-69.4"/>
</g>
<!-- Node6 -->
<g id="node6" class="node">
<title>Node6</title>
<g id="a_node6"><a xlink:href="group__zwave__unid.html#ga76885767debd174e96e6df00b0a368c3" target="_top" xlink:title="Convert a UNID to a node ID.">
<polygon fill="none" stroke="black" points="490,-22.5 490,-41.5 611,-41.5 611,-22.5 490,-22.5"/>
<text text-anchor="middle" x="550.5" y="-29.5" font-family="Helvetica,sans-Serif" font-size="10.00">zwave_unid_to_node_id</text>
</a>
</g>
</g>
<!-- Node3&#45;&gt;Node6 -->
<g id="edge5" class="edge">
<title>Node3&#45;&gt;Node6</title>
<path fill="none" stroke="midnightblue" d="M447.24,-45.43C457.89,-44.03 468.96,-42.58 479.72,-41.17"/>
<polygon fill="midnightblue" stroke="midnightblue" points="480.45,-44.6 489.91,-39.83 479.54,-37.66 480.45,-44.6"/>
</g>
<!-- Node5 -->
<g id="node5" class="node">
<title>Node5</title>
<g id="a_node5"><a xlink:href="group__zwave__unid.html#ga92f9808a08c2ce1c0a6a9dc2debf3580" target="_top" xlink:title="Convert a UNID to a Home ID.">
<polygon fill="none" stroke="black" points="654,-66.5 654,-85.5 778,-85.5 778,-66.5 654,-66.5"/>
<text text-anchor="middle" x="716" y="-73.5" font-family="Helvetica,sans-Serif" font-size="10.00">zwave_unid_to_home_id</text>
</a>
</g>
</g>
<!-- Node4&#45;&gt;Node5 -->
<g id="edge4" class="edge">
<title>Node4&#45;&gt;Node5</title>
<path fill="none" stroke="midnightblue" d="M618,-76C626.42,-76 635.07,-76 643.57,-76"/>
<polygon fill="midnightblue" stroke="midnightblue" points="643.83,-79.5 653.83,-76 643.83,-72.5 643.83,-79.5"/>
</g>
</g>
</svg>
