<?xml version="1.0" encoding="UTF-8" standalone="no"?>
<!DOCTYPE svg PUBLIC "-//W3C//DTD SVG 1.1//EN"
 "http://www.w3.org/Graphics/SVG/1.1/DTD/svg11.dtd">
<!-- Generated by graphviz version 2.43.0 (0)
 -->
<!-- Title: zwapi_set_priority_route Pages: 1 -->
<svg width="1426pt" height="541pt"
 viewBox="0.00 0.00 1426.00 541.00" xmlns="http://www.w3.org/2000/svg" xmlns:xlink="http://www.w3.org/1999/xlink">
<g id="graph0" class="graph" transform="scale(1 1) rotate(0) translate(4 537)">
<title>zwapi_set_priority_route</title>
<!-- Node1 -->
<g id="node1" class="node">
<title>Node1</title>
<g id="a_node1"><a xlink:title="Set the Last Working Route (LWR) for a destination node.">
<polygon fill="#bfbfbf" stroke="black" points="0,-242.5 0,-272.5 95,-272.5 95,-242.5 0,-242.5"/>
<text text-anchor="start" x="8" y="-260.5" font-family="Helvetica,sans-Serif" font-size="10.00">zwapi_set_priority</text>
<text text-anchor="middle" x="47.5" y="-249.5" font-family="Helvetica,sans-Serif" font-size="10.00">_route</text>
</a>
</g>
</g>
<!-- Node2 -->
<g id="node2" class="node">
<title>Node2</title>
<g id="a_node2"><a xlink:href="zwapi__init_8c.html#a5ec89d5817b8ce00454fce891ae8400e" target="_top" xlink:title="Send a command to the Z&#45;Wave module and waits for an ACK.">
<polygon fill="none" stroke="black" points="131,-264.5 131,-294.5 247,-294.5 247,-264.5 131,-264.5"/>
<text text-anchor="start" x="139" y="-282.5" font-family="Helvetica,sans-Serif" font-size="10.00">zwapi_send_command</text>
<text text-anchor="middle" x="189" y="-271.5" font-family="Helvetica,sans-Serif" font-size="10.00">_with_response</text>
</a>
</g>
</g>
<!-- Node1&#45;&gt;Node2 -->
<g id="edge1" class="edge">
<title>Node1&#45;&gt;Node2</title>
<path fill="none" stroke="midnightblue" d="M95.34,-264.89C103.53,-266.18 112.2,-267.55 120.81,-268.9"/>
<polygon fill="midnightblue" stroke="midnightblue" points="120.45,-272.39 130.87,-270.49 121.54,-265.48 120.45,-272.39"/>
</g>
<!-- Node31 -->
<g id="node31" class="node">
<title>Node31</title>
<g id="a_node31"><a xlink:href="zwapi__utils_8c.html#aeea16d7db2f976466a2c0f4aa9b0416f" target="_top" xlink:title="Write the node ID in buffer based on node ID basetype. Note that this helper also advances the index.">
<polygon fill="none" stroke="black" points="135.5,-226 135.5,-245 242.5,-245 242.5,-226 135.5,-226"/>
<text text-anchor="middle" x="189" y="-233" font-family="Helvetica,sans-Serif" font-size="10.00">zwapi_write_node_id</text>
</a>
</g>
</g>
<!-- Node1&#45;&gt;Node31 -->
<g id="edge48" class="edge">
<title>Node1&#45;&gt;Node31</title>
<path fill="none" stroke="midnightblue" d="M95.34,-250.11C104.96,-248.6 115.23,-246.98 125.3,-245.39"/>
<polygon fill="midnightblue" stroke="midnightblue" points="125.94,-248.83 135.28,-243.82 124.85,-241.92 125.94,-248.83"/>
</g>
<!-- Node3 -->
<g id="node3" class="node">
<title>Node3</title>
<g id="a_node3"><a xlink:href="zwapi__session_8c.html#abf613a2ad7710ac80fb239ba55e621d7" target="_top" xlink:title="Send data frame to Z&#45;Wave chip via serial API, wait for ACK and a RES frame.">
<polygon fill="none" stroke="black" points="301.5,-264.5 301.5,-294.5 416.5,-294.5 416.5,-264.5 301.5,-264.5"/>
<text text-anchor="start" x="309.5" y="-282.5" font-family="Helvetica,sans-Serif" font-size="10.00">zwapi_session_send</text>
<text text-anchor="middle" x="359" y="-271.5" font-family="Helvetica,sans-Serif" font-size="10.00">_frame_with_response</text>
</a>
</g>
</g>
<!-- Node2&#45;&gt;Node3 -->
<g id="edge2" class="edge">
<title>Node2&#45;&gt;Node3</title>
<path fill="none" stroke="midnightblue" d="M247.35,-279.5C261.42,-279.5 276.61,-279.5 291.09,-279.5"/>
<polygon fill="midnightblue" stroke="midnightblue" points="291.48,-283 301.48,-279.5 291.48,-276 291.48,-283"/>
</g>
<!-- Node30 -->
<g id="node30" class="node">
<title>Node30</title>
<g id="a_node30"><a xlink:href="group__ZWAPI__INIT.html#ga0a823074baec69913d0e8590b46e4e33" target="_top" xlink:title="Check if a command is supported by the connected Z&#45;Wave module.">
<polygon fill="none" stroke="black" points="283,-314 283,-333 435,-333 435,-314 283,-314"/>
<text text-anchor="middle" x="359" y="-321" font-family="Helvetica,sans-Serif" font-size="10.00">zwapi_support_command_func</text>
</a>
</g>
</g>
<!-- Node2&#45;&gt;Node30 -->
<g id="edge47" class="edge">
<title>Node2&#45;&gt;Node30</title>
<path fill="none" stroke="midnightblue" d="M247.35,-294.52C268.41,-300.04 291.96,-306.2 311.91,-311.43"/>
<polygon fill="midnightblue" stroke="midnightblue" points="311.12,-314.84 321.68,-313.99 312.89,-308.07 311.12,-314.84"/>
</g>
<!-- Node4 -->
<g id="node4" class="node">
<title>Node4</title>
<g id="a_node4"><a xlink:href="zwapi__connection_8c.html#a91ce3acd7eff779496789637a9c27f40" target="_top" xlink:title="Provides the data of the serial buffer for the last received frame.">
<polygon fill="none" stroke="black" points="966.5,-502.5 966.5,-532.5 1079.5,-532.5 1079.5,-502.5 966.5,-502.5"/>
<text text-anchor="start" x="974.5" y="-520.5" font-family="Helvetica,sans-Serif" font-size="10.00">zwapi_connection_get</text>
<text text-anchor="middle" x="1023" y="-509.5" font-family="Helvetica,sans-Serif" font-size="10.00">_last_rx_frame</text>
</a>
</g>
</g>
<!-- Node3&#45;&gt;Node4 -->
<g id="edge3" class="edge">
<title>Node3&#45;&gt;Node4</title>
<path fill="none" stroke="midnightblue" d="M416.54,-293.1C423.18,-296.17 429.53,-299.92 435,-304.5 460.63,-325.94 445.41,-349.01 471,-370.5 613.46,-490.11 843.6,-513.33 955.99,-517.22"/>
<polygon fill="midnightblue" stroke="midnightblue" points="956.06,-520.73 966.16,-517.53 956.28,-513.73 956.06,-520.73"/>
</g>
<!-- Node5 -->
<g id="node5" class="node">
<title>Node5</title>
<g id="a_node5"><a xlink:href="zwapi__connection_8c.html#a86b069d152a5c2f8ac95774a688dff48" target="_top" xlink:title="make the zwapi_connection_status types human readable.">
<polygon fill="none" stroke="black" points="471,-176.5 471,-206.5 598,-206.5 598,-176.5 471,-176.5"/>
<text text-anchor="start" x="479" y="-194.5" font-family="Helvetica,sans-Serif" font-size="10.00">zwapi_connection_status</text>
<text text-anchor="middle" x="534.5" y="-183.5" font-family="Helvetica,sans-Serif" font-size="10.00">_to_string</text>
</a>
</g>
</g>
<!-- Node3&#45;&gt;Node5 -->
<g id="edge4" class="edge">
<title>Node3&#45;&gt;Node5</title>
<path fill="none" stroke="midnightblue" d="M414.46,-264.39C421.58,-261.54 428.61,-258.26 435,-254.5 453.71,-243.49 453.02,-233.66 471,-221.5 476.36,-217.87 482.24,-214.44 488.16,-211.29"/>
<polygon fill="midnightblue" stroke="midnightblue" points="490.12,-214.22 497.46,-206.57 486.96,-207.98 490.12,-214.22"/>
</g>
<!-- Node6 -->
<g id="node6" class="node">
<title>Node6</title>
<g id="a_node6"><a xlink:href="zwapi__session_8c.html#a1f2b3e7c2dcf31708ef8d333747352ba" target="_top" xlink:title=" ">
<polygon fill="none" stroke="black" points="796.5,-409.5 796.5,-439.5 919.5,-439.5 919.5,-409.5 796.5,-409.5"/>
<text text-anchor="start" x="804.5" y="-427.5" font-family="Helvetica,sans-Serif" font-size="10.00">zwapi_session_enqueue</text>
<text text-anchor="middle" x="858" y="-416.5" font-family="Helvetica,sans-Serif" font-size="10.00">_frame</text>
</a>
</g>
</g>
<!-- Node3&#45;&gt;Node6 -->
<g id="edge5" class="edge">
<title>Node3&#45;&gt;Node6</title>
<path fill="none" stroke="midnightblue" d="M408.36,-294.57C417.29,-297.65 426.49,-301.02 435,-304.5 526.09,-341.69 539.39,-374.48 634,-401.5 683.65,-415.68 741.73,-421.34 786.17,-423.5"/>
<polygon fill="midnightblue" stroke="midnightblue" points="786.15,-427 796.29,-423.95 786.45,-420.01 786.15,-427"/>
</g>
<!-- Node9 -->
<g id="node9" class="node">
<title>Node9</title>
<g id="a_node9"><a xlink:href="zwapi__session_8c.html#a32577f3500efc3d937dbc68eebb3c370" target="_top" xlink:title="Send data frame to Z&#45;Wave chip via serial port and wait for ACK.">
<polygon fill="none" stroke="black" points="481,-264.5 481,-294.5 588,-294.5 588,-264.5 481,-264.5"/>
<text text-anchor="start" x="489" y="-282.5" font-family="Helvetica,sans-Serif" font-size="10.00">zwapi_session_send</text>
<text text-anchor="middle" x="534.5" y="-271.5" font-family="Helvetica,sans-Serif" font-size="10.00">_frame</text>
</a>
</g>
</g>
<!-- Node3&#45;&gt;Node9 -->
<g id="edge9" class="edge">
<title>Node3&#45;&gt;Node9</title>
<path fill="none" stroke="midnightblue" d="M416.81,-279.5C434.08,-279.5 453.15,-279.5 470.78,-279.5"/>
<polygon fill="midnightblue" stroke="midnightblue" points="470.97,-283 480.97,-279.5 470.97,-276 470.97,-283"/>
</g>
<!-- Node29 -->
<g id="node29" class="node">
<title>Node29</title>
<g id="a_node29"><a xlink:href="zwapi__session_8c.html#a9d30e1677f02d7730ab035aa9333235d" target="_top" xlink:title=" ">
<polygon fill="none" stroke="black" points="643.5,-163.5 643.5,-193.5 747.5,-193.5 747.5,-163.5 643.5,-163.5"/>
<text text-anchor="start" x="651.5" y="-181.5" font-family="Helvetica,sans-Serif" font-size="10.00">zwapi_session_wait</text>
<text text-anchor="middle" x="695.5" y="-170.5" font-family="Helvetica,sans-Serif" font-size="10.00">_for_response</text>
</a>
</g>
</g>
<!-- Node3&#45;&gt;Node29 -->
<g id="edge46" class="edge">
<title>Node3&#45;&gt;Node29</title>
<path fill="none" stroke="midnightblue" d="M416.75,-266C465.27,-254.03 536.76,-235.41 598,-215.5 614.53,-210.12 632.37,-203.52 648.17,-197.38"/>
<polygon fill="midnightblue" stroke="midnightblue" points="649.67,-200.55 657.7,-193.64 647.12,-194.03 649.67,-200.55"/>
</g>
<!-- Node6&#45;&gt;Node4 -->
<g id="edge6" class="edge">
<title>Node6&#45;&gt;Node4</title>
<path fill="none" stroke="midnightblue" d="M878.49,-439.66C898.07,-454.42 929.51,-476.86 959,-492.5 962.91,-494.57 967.02,-496.57 971.21,-498.48"/>
<polygon fill="midnightblue" stroke="midnightblue" points="969.84,-501.7 980.41,-502.5 972.64,-495.29 969.84,-501.7"/>
</g>
<!-- Node7 -->
<g id="node7" class="node">
<title>Node7</title>
<g id="a_node7"><a xlink:href="zwapi__session_8c.html#ad7bac697ee2388b38ed3777b5a3862bc" target="_top" xlink:title=" ">
<polygon fill="none" stroke="black" points="966.5,-453.5 966.5,-483.5 1079.5,-483.5 1079.5,-453.5 966.5,-453.5"/>
<text text-anchor="start" x="974.5" y="-471.5" font-family="Helvetica,sans-Serif" font-size="10.00">zwapi_session_get_rx</text>
<text text-anchor="middle" x="1023" y="-460.5" font-family="Helvetica,sans-Serif" font-size="10.00">_queue_length</text>
</a>
</g>
</g>
<!-- Node6&#45;&gt;Node7 -->
<g id="edge7" class="edge">
<title>Node6&#45;&gt;Node7</title>
<path fill="none" stroke="midnightblue" d="M914.64,-439.52C928.07,-443.15 942.55,-447.05 956.39,-450.79"/>
<polygon fill="midnightblue" stroke="midnightblue" points="955.77,-454.25 966.33,-453.47 957.59,-447.49 955.77,-454.25"/>
</g>
<!-- Node8 -->
<g id="node8" class="node">
<title>Node8</title>
<g id="a_node8"><a xlink:href="group__ZWAPI__INIT.html#ga438a74c9752197d20d377874d5a61694" target="_top" xlink:title="Returns the pointer to the callbacks registered at init.">
<polygon fill="none" stroke="black" points="959,-415 959,-434 1087,-434 1087,-415 959,-415"/>
<text text-anchor="middle" x="1023" y="-422" font-family="Helvetica,sans-Serif" font-size="10.00">zwave_api_get_callbacks</text>
</a>
</g>
</g>
<!-- Node6&#45;&gt;Node8 -->
<g id="edge8" class="edge">
<title>Node6&#45;&gt;Node8</title>
<path fill="none" stroke="midnightblue" d="M919.7,-424.5C929.17,-424.5 939.04,-424.5 948.76,-424.5"/>
<polygon fill="midnightblue" stroke="midnightblue" points="948.8,-428 958.8,-424.5 948.8,-421 948.8,-428"/>
</g>
<!-- Node9&#45;&gt;Node6 -->
<g id="edge27" class="edge">
<title>Node9&#45;&gt;Node6</title>
<path fill="none" stroke="midnightblue" d="M548.56,-294.82C566.04,-314.36 598.95,-347.85 634,-366.5 681.61,-391.83 740.91,-406.57 786.39,-414.84"/>
<polygon fill="midnightblue" stroke="midnightblue" points="786.01,-418.33 796.46,-416.61 787.22,-411.43 786.01,-418.33"/>
</g>
<!-- Node10 -->
<g id="node10" class="node">
<title>Node10</title>
<g id="a_node10"><a xlink:href="zwapi__connection_8c.html#a13b6e6b6c56844f4344fabe490bc5eac" target="_top" xlink:title="Closes and re&#45;initializes the zwapi_connection to the Z&#45;Wave module.">
<polygon fill="none" stroke="black" points="794,-251 794,-270 922,-270 922,-251 794,-251"/>
<text text-anchor="middle" x="858" y="-258" font-family="Helvetica,sans-Serif" font-size="10.00">zwapi_connection_restart</text>
</a>
</g>
</g>
<!-- Node9&#45;&gt;Node10 -->
<g id="edge10" class="edge">
<title>Node9&#45;&gt;Node10</title>
<path fill="none" stroke="midnightblue" d="M588.23,-276.38C641.44,-273.24 724.05,-268.36 783.64,-264.84"/>
<polygon fill="midnightblue" stroke="midnightblue" points="783.97,-268.32 793.74,-264.24 783.55,-261.33 783.97,-268.32"/>
</g>
<!-- Node20 -->
<g id="node20" class="node">
<title>Node20</title>
<g id="a_node20"><a xlink:href="zwapi__timestamp_8c.html#a6ebe1ddfe689bce6ee72fc12f708aece" target="_top" xlink:title="get the timestamp">
<polygon fill="none" stroke="black" points="967,-213 967,-232 1079,-232 1079,-213 967,-213"/>
<text text-anchor="middle" x="1023" y="-220" font-family="Helvetica,sans-Serif" font-size="10.00">zwapi_timestamp_get</text>
</a>
</g>
</g>
<!-- Node9&#45;&gt;Node20 -->
<g id="edge45" class="edge">
<title>Node9&#45;&gt;Node20</title>
<path fill="none" stroke="midnightblue" d="M588.12,-270.72C602.94,-268.31 619.09,-265.74 634,-263.5 704.55,-252.89 722.09,-249.34 793,-241.5 848.11,-235.41 910.88,-230.33 956.75,-226.96"/>
<polygon fill="midnightblue" stroke="midnightblue" points="957.14,-230.44 966.86,-226.23 956.63,-223.46 957.14,-230.44"/>
</g>
<!-- Node21 -->
<g id="node21" class="node">
<title>Node21</title>
<g id="a_node21"><a xlink:href="zwapi__connection_8c.html#af47f8cbd93974d5c91d659fdeb7a870b" target="_top" xlink:title="Transmit a frame via serial port by adding SOF, Len, Type, cmd and Checksum.">
<polygon fill="none" stroke="black" points="804,-289 804,-308 912,-308 912,-289 804,-289"/>
<text text-anchor="middle" x="858" y="-296" font-family="Helvetica,sans-Serif" font-size="10.00">zwapi_connection_tx</text>
</a>
</g>
</g>
<!-- Node9&#45;&gt;Node21 -->
<g id="edge21" class="edge">
<title>Node9&#45;&gt;Node21</title>
<path fill="none" stroke="midnightblue" d="M588.23,-282.62C644.56,-285.95 733.83,-291.22 793.86,-294.77"/>
<polygon fill="midnightblue" stroke="midnightblue" points="793.79,-298.27 803.97,-295.37 794.2,-291.28 793.79,-298.27"/>
</g>
<!-- Node23 -->
<g id="node23" class="node">
<title>Node23</title>
<g id="a_node23"><a xlink:href="zwapi__timestamp_8c.html#a3925f2732e344672608db38351236688" target="_top" xlink:title="compare the current timestamp with the timestamp passed as an argument">
<polygon fill="none" stroke="black" points="970,-0.5 970,-30.5 1076,-30.5 1076,-0.5 970,-0.5"/>
<text text-anchor="start" x="978" y="-18.5" font-family="Helvetica,sans-Serif" font-size="10.00">zwapi_is_timestamp</text>
<text text-anchor="middle" x="1023" y="-7.5" font-family="Helvetica,sans-Serif" font-size="10.00">_elapsed</text>
</a>
</g>
</g>
<!-- Node9&#45;&gt;Node23 -->
<g id="edge26" class="edge">
<title>Node9&#45;&gt;Node23</title>
<path fill="none" stroke="midnightblue" d="M552.33,-264.46C565.63,-252.08 584.19,-233.68 598,-215.5 617.28,-190.13 611.87,-176.43 634,-153.5 691.98,-93.44 714.96,-83.14 793,-53.5 847.05,-32.97 912.45,-23.52 959.49,-19.17"/>
<polygon fill="midnightblue" stroke="midnightblue" points="959.88,-22.65 969.54,-18.3 959.27,-15.68 959.88,-22.65"/>
</g>
<!-- Node24 -->
<g id="node24" class="node">
<title>Node24</title>
<g id="a_node24"><a xlink:href="zwapi__session_8c.html#a2875fbfa250b7b25ecb6bc4f0b032cb8" target="_top" xlink:title="Loads the received frames from the serial device into the zwapi_session receive queue.">
<polygon fill="none" stroke="black" points="634,-327.5 634,-357.5 757,-357.5 757,-327.5 634,-327.5"/>
<text text-anchor="start" x="642" y="-345.5" font-family="Helvetica,sans-Serif" font-size="10.00">zwapi_session_enqueue</text>
<text text-anchor="middle" x="695.5" y="-334.5" font-family="Helvetica,sans-Serif" font-size="10.00">_rx_frames</text>
</a>
</g>
</g>
<!-- Node9&#45;&gt;Node24 -->
<g id="edge28" class="edge">
<title>Node9&#45;&gt;Node24</title>
<path fill="none" stroke="midnightblue" d="M573.58,-294.59C595.63,-303.32 623.57,-314.39 647.03,-323.69"/>
<polygon fill="midnightblue" stroke="midnightblue" points="645.86,-326.99 656.45,-327.42 648.44,-320.49 645.86,-326.99"/>
</g>
<!-- Node9&#45;&gt;Node29 -->
<g id="edge41" class="edge">
<title>Node9&#45;&gt;Node29</title>
<path fill="none" stroke="midnightblue" d="M573.28,-264.39C581.8,-260.17 590.52,-255.17 598,-249.5 617.32,-234.85 614.77,-223.28 634,-208.5 638.7,-204.88 643.91,-201.53 649.24,-198.46"/>
<polygon fill="midnightblue" stroke="midnightblue" points="651.12,-201.43 658.26,-193.6 647.8,-195.27 651.12,-201.43"/>
</g>
<!-- Node11 -->
<g id="node11" class="node">
<title>Node11</title>
<g id="a_node11"><a xlink:href="zwapi__serial_8c.html#a3f2b3bd848e9fe0e6e137482bed06b46" target="_top" xlink:title="Flush the serial output if using buffered output.">
<polygon fill="none" stroke="black" points="974.5,-251.5 974.5,-281.5 1071.5,-281.5 1071.5,-251.5 974.5,-251.5"/>
<text text-anchor="start" x="982.5" y="-269.5" font-family="Helvetica,sans-Serif" font-size="10.00">zwapi_serial_drain</text>
<text text-anchor="middle" x="1023" y="-258.5" font-family="Helvetica,sans-Serif" font-size="10.00">_buffer</text>
</a>
</g>
</g>
<!-- Node10&#45;&gt;Node11 -->
<g id="edge11" class="edge">
<title>Node10&#45;&gt;Node11</title>
<path fill="none" stroke="midnightblue" d="M922.02,-262.82C935.87,-263.33 950.47,-263.87 964.11,-264.37"/>
<polygon fill="midnightblue" stroke="midnightblue" points="964.2,-267.87 974.32,-264.74 964.45,-260.88 964.2,-267.87"/>
</g>
<!-- Node12 -->
<g id="node12" class="node">
<title>Node12</title>
<g id="a_node12"><a xlink:href="zwapi__serial_8c.html#a7762d0358e9f398b92edbfd6a550984a" target="_top" xlink:title="Write a byte to serial port device.">
<polygon fill="none" stroke="black" points="966.5,-175 966.5,-194 1079.5,-194 1079.5,-175 966.5,-175"/>
<text text-anchor="middle" x="1023" y="-182" font-family="Helvetica,sans-Serif" font-size="10.00">zwapi_serial_put_byte</text>
</a>
</g>
</g>
<!-- Node10&#45;&gt;Node12 -->
<g id="edge12" class="edge">
<title>Node10&#45;&gt;Node12</title>
<path fill="none" stroke="midnightblue" d="M873.37,-250.92C892.33,-238.62 927.05,-217.22 959,-203.5 964.31,-201.22 969.99,-199.1 975.67,-197.16"/>
<polygon fill="midnightblue" stroke="midnightblue" points="976.75,-200.49 985.19,-194.08 974.6,-193.83 976.75,-200.49"/>
</g>
<!-- Node16 -->
<g id="node16" class="node">
<title>Node16</title>
<g id="a_node16"><a xlink:href="zwapi__serial_8c.html#aadf3397d0bd2c1657d4b1a373599acfe" target="_top" xlink:title="Closes and re&#45;initialize the last open serial port.">
<polygon fill="none" stroke="black" points="971,-339 971,-358 1075,-358 1075,-339 971,-339"/>
<text text-anchor="middle" x="1023" y="-346" font-family="Helvetica,sans-Serif" font-size="10.00">zwapi_serial_restart</text>
</a>
</g>
</g>
<!-- Node10&#45;&gt;Node16 -->
<g id="edge16" class="edge">
<title>Node10&#45;&gt;Node16</title>
<path fill="none" stroke="midnightblue" d="M898.33,-270.01C906.66,-272.62 915.27,-275.78 923,-279.5 952.96,-293.92 983.82,-316.98 1002.95,-332.42"/>
<polygon fill="midnightblue" stroke="midnightblue" points="1000.92,-335.28 1010.87,-338.92 1005.36,-329.87 1000.92,-335.28"/>
</g>
<!-- Node10&#45;&gt;Node20 -->
<g id="edge20" class="edge">
<title>Node10&#45;&gt;Node20</title>
<path fill="none" stroke="midnightblue" d="M900.13,-250.91C921.74,-245.87 948.41,-239.66 971.29,-234.32"/>
<polygon fill="midnightblue" stroke="midnightblue" points="972.22,-237.7 981.16,-232.02 970.63,-230.88 972.22,-237.7"/>
</g>
<!-- Node13 -->
<g id="node13" class="node">
<title>Node13</title>
<g id="a_node13"><a xlink:href="zwapi__serial_8c.html#af9054824651df422bab5076d16a80fda" target="_top" xlink:title="Writes the content of a buffer to the serial port device.">
<polygon fill="none" stroke="black" points="1123,-176 1123,-195 1242,-195 1242,-176 1123,-176"/>
<text text-anchor="middle" x="1182.5" y="-183" font-family="Helvetica,sans-Serif" font-size="10.00">zwapi_serial_put_buffer</text>
</a>
</g>
</g>
<!-- Node12&#45;&gt;Node13 -->
<g id="edge13" class="edge">
<title>Node12&#45;&gt;Node13</title>
<path fill="none" stroke="midnightblue" d="M1079.53,-184.85C1090.24,-184.92 1101.59,-184.99 1112.66,-185.06"/>
<polygon fill="midnightblue" stroke="midnightblue" points="1112.71,-188.56 1122.74,-185.13 1112.76,-181.56 1112.71,-188.56"/>
</g>
<!-- Node14 -->
<g id="node14" class="node">
<title>Node14</title>
<g id="a_node14"><a xlink:href="zwapi__serial_8c.html#a0accbbf7ddb7aeab10f5df1fe3df6642" target="_top" xlink:title=" ">
<polygon fill="none" stroke="black" points="1278,-133 1278,-152 1418,-152 1418,-133 1278,-133"/>
<text text-anchor="middle" x="1348" y="-140" font-family="Helvetica,sans-Serif" font-size="10.00">zwapi_serial_log_timestamp</text>
</a>
</g>
</g>
<!-- Node13&#45;&gt;Node14 -->
<g id="edge14" class="edge">
<title>Node13&#45;&gt;Node14</title>
<path fill="none" stroke="midnightblue" d="M1219.79,-175.96C1243.71,-169.67 1275.24,-161.37 1300.93,-154.62"/>
<polygon fill="midnightblue" stroke="midnightblue" points="1302.03,-157.94 1310.82,-152.02 1300.25,-151.18 1302.03,-157.94"/>
</g>
<!-- Node15 -->
<g id="node15" class="node">
<title>Node15</title>
<g id="a_node15"><a xlink:href="zwapi__serial_8c.html#abf18afb71e14daaf65d937149ef1639f" target="_top" xlink:title="Test if a is less than b + ms.">
<polygon fill="none" stroke="black" points="1294.5,-171.5 1294.5,-201.5 1401.5,-201.5 1401.5,-171.5 1294.5,-171.5"/>
<text text-anchor="start" x="1302.5" y="-189.5" font-family="Helvetica,sans-Serif" font-size="10.00">zwapi_serial_timeval</text>
<text text-anchor="middle" x="1348" y="-178.5" font-family="Helvetica,sans-Serif" font-size="10.00">_a_lt_b_milis</text>
</a>
</g>
</g>
<!-- Node13&#45;&gt;Node15 -->
<g id="edge15" class="edge">
<title>Node13&#45;&gt;Node15</title>
<path fill="none" stroke="midnightblue" d="M1242.07,-185.86C1255.65,-185.94 1270.16,-186.03 1283.92,-186.11"/>
<polygon fill="midnightblue" stroke="midnightblue" points="1284.26,-189.62 1294.28,-186.18 1284.3,-182.62 1284.26,-189.62"/>
</g>
<!-- Node17 -->
<g id="node17" class="node">
<title>Node17</title>
<g id="a_node17"><a xlink:href="zwapi__serial_8c.html#aae586785021ac9a605cd77651429f0c9" target="_top" xlink:title="De&#45;Initialize the serial port.">
<polygon fill="none" stroke="black" points="1133,-358 1133,-377 1232,-377 1232,-358 1133,-358"/>
<text text-anchor="middle" x="1182.5" y="-365" font-family="Helvetica,sans-Serif" font-size="10.00">zwapi_serial_close</text>
</a>
</g>
</g>
<!-- Node16&#45;&gt;Node17 -->
<g id="edge17" class="edge">
<title>Node16&#45;&gt;Node17</title>
<path fill="none" stroke="midnightblue" d="M1075.14,-354.67C1090.31,-356.5 1107.06,-358.52 1122.68,-360.4"/>
<polygon fill="midnightblue" stroke="midnightblue" points="1122.42,-363.9 1132.76,-361.62 1123.25,-356.95 1122.42,-363.9"/>
</g>
<!-- Node18 -->
<g id="node18" class="node">
<title>Node18</title>
<g id="a_node18"><a xlink:href="zwapi__serial_8c.html#a07b09de97f4932d882fc77e191c44638" target="_top" xlink:title="Initialize the serial port to 115200 BAUD 8N1.">
<polygon fill="none" stroke="black" points="1138,-320 1138,-339 1227,-339 1227,-320 1138,-320"/>
<text text-anchor="middle" x="1182.5" y="-327" font-family="Helvetica,sans-Serif" font-size="10.00">zwapi_serial_init</text>
</a>
</g>
</g>
<!-- Node16&#45;&gt;Node18 -->
<g id="edge18" class="edge">
<title>Node16&#45;&gt;Node18</title>
<path fill="none" stroke="midnightblue" d="M1075.14,-342.33C1091.87,-340.31 1110.51,-338.06 1127.46,-336.02"/>
<polygon fill="midnightblue" stroke="midnightblue" points="1128.25,-339.45 1137.76,-334.78 1127.41,-332.5 1128.25,-339.45"/>
</g>
<!-- Node19 -->
<g id="node19" class="node">
<title>Node19</title>
<g id="a_node19"><a xlink:href="zwapi__serial_8c.html#aefeac5909b0bf6411db1492f69c3bc68" target="_top" xlink:title=" ">
<polygon fill="none" stroke="black" points="1288.5,-320 1288.5,-339 1407.5,-339 1407.5,-320 1288.5,-320"/>
<text text-anchor="middle" x="1348" y="-327" font-family="Helvetica,sans-Serif" font-size="10.00">zwapi_open_serial_port</text>
</a>
</g>
</g>
<!-- Node18&#45;&gt;Node19 -->
<g id="edge19" class="edge">
<title>Node18&#45;&gt;Node19</title>
<path fill="none" stroke="midnightblue" d="M1227.31,-329.5C1242.97,-329.5 1261.01,-329.5 1278.26,-329.5"/>
<polygon fill="midnightblue" stroke="midnightblue" points="1278.3,-333 1288.3,-329.5 1278.3,-326 1278.3,-333"/>
</g>
<!-- Node21&#45;&gt;Node11 -->
<g id="edge23" class="edge">
<title>Node21&#45;&gt;Node11</title>
<path fill="none" stroke="midnightblue" d="M907.46,-288.99C925.36,-285.47 945.82,-281.46 964.44,-277.8"/>
<polygon fill="midnightblue" stroke="midnightblue" points="965.15,-281.23 974.28,-275.87 963.8,-274.36 965.15,-281.23"/>
</g>
<!-- Node21&#45;&gt;Node13 -->
<g id="edge24" class="edge">
<title>Node21&#45;&gt;Node13</title>
<path fill="none" stroke="midnightblue" d="M912.42,-307.98C960.44,-313.95 1031.72,-316.29 1087,-290.5 1126.44,-272.1 1156.61,-228.76 1171.41,-203.9"/>
<polygon fill="midnightblue" stroke="midnightblue" points="1174.53,-205.49 1176.47,-195.07 1168.46,-202 1174.53,-205.49"/>
</g>
<!-- Node21&#45;&gt;Node20 -->
<g id="edge25" class="edge">
<title>Node21&#45;&gt;Node20</title>
<path fill="none" stroke="midnightblue" d="M902.67,-288.9C909.74,-286.41 916.78,-283.32 923,-279.5 942.83,-267.33 939.2,-253.71 959,-241.5 962.4,-239.4 966.05,-237.52 969.82,-235.84"/>
<polygon fill="midnightblue" stroke="midnightblue" points="971.34,-239 979.34,-232.05 968.76,-232.49 971.34,-239"/>
</g>
<!-- Node22 -->
<g id="node22" class="node">
<title>Node22</title>
<g id="a_node22"><a xlink:href="zwapi__connection_8c.html#a96d24d537c5b8d6aa0aa6a7638ba2f09" target="_top" xlink:title=" ">
<polygon fill="none" stroke="black" points="965.5,-377 965.5,-396 1080.5,-396 1080.5,-377 965.5,-377"/>
<text text-anchor="middle" x="1023" y="-384" font-family="Helvetica,sans-Serif" font-size="10.00">zwapi_frame_to_string</text>
</a>
</g>
</g>
<!-- Node21&#45;&gt;Node22 -->
<g id="edge22" class="edge">
<title>Node21&#45;&gt;Node22</title>
<path fill="none" stroke="midnightblue" d="M870.27,-308.05C888.06,-322.7 924.22,-350.76 959,-367.5 963.64,-369.73 968.6,-371.77 973.63,-373.61"/>
<polygon fill="midnightblue" stroke="midnightblue" points="972.71,-376.99 983.3,-376.9 974.96,-370.37 972.71,-376.99"/>
</g>
<!-- Node24&#45;&gt;Node6 -->
<g id="edge40" class="edge">
<title>Node24&#45;&gt;Node6</title>
<path fill="none" stroke="midnightblue" d="M727.34,-357.65C736.86,-362.37 747.38,-367.62 757,-372.5 777.6,-382.96 800.46,-394.83 819.13,-404.59"/>
<polygon fill="midnightblue" stroke="midnightblue" points="817.71,-407.8 828.19,-409.33 820.96,-401.6 817.71,-407.8"/>
</g>
<!-- Node25 -->
<g id="node25" class="node">
<title>Node25</title>
<g id="a_node25"><a xlink:href="zwapi__connection_8c.html#a1e45c6c9695b5e7b415adfad40080720" target="_top" xlink:title="Parses serial data sent from the Z&#45;Wave module to the serial port. Should be frequently called by mai...">
<polygon fill="none" stroke="black" points="793,-137 793,-156 923,-156 923,-137 793,-137"/>
<text text-anchor="middle" x="858" y="-144" font-family="Helvetica,sans-Serif" font-size="10.00">zwapi_connection_refresh</text>
</a>
</g>
</g>
<!-- Node24&#45;&gt;Node25 -->
<g id="edge29" class="edge">
<title>Node24&#45;&gt;Node25</title>
<path fill="none" stroke="midnightblue" d="M708.83,-327.45C737.91,-291.93 810.72,-203.01 842.16,-164.62"/>
<polygon fill="midnightblue" stroke="midnightblue" points="845.25,-166.37 848.88,-156.42 839.84,-161.93 845.25,-166.37"/>
</g>
<!-- Node25&#45;&gt;Node11 -->
<g id="edge31" class="edge">
<title>Node25&#45;&gt;Node11</title>
<path fill="none" stroke="midnightblue" d="M866.87,-156.11C882.61,-174.82 919.86,-216.48 959,-241.5 961.97,-243.4 965.1,-245.19 968.32,-246.88"/>
<polygon fill="midnightblue" stroke="midnightblue" points="967.03,-250.15 977.56,-251.37 970.09,-243.85 967.03,-250.15"/>
</g>
<!-- Node25&#45;&gt;Node12 -->
<g id="edge38" class="edge">
<title>Node25&#45;&gt;Node12</title>
<path fill="none" stroke="midnightblue" d="M900.13,-156.09C921.74,-161.13 948.41,-167.34 971.29,-172.68"/>
<polygon fill="midnightblue" stroke="midnightblue" points="970.63,-176.12 981.16,-174.98 972.22,-169.3 970.63,-176.12"/>
</g>
<!-- Node25&#45;&gt;Node20 -->
<g id="edge39" class="edge">
<title>Node25&#45;&gt;Node20</title>
<path fill="none" stroke="midnightblue" d="M891.7,-156.04C902.1,-159.78 913.39,-164.6 923,-170.5 941.5,-181.85 940.14,-192.76 959,-203.5 962.85,-205.69 966.97,-207.65 971.2,-209.4"/>
<polygon fill="midnightblue" stroke="midnightblue" points="969.97,-212.68 980.56,-212.91 972.43,-206.13 969.97,-212.68"/>
</g>
<!-- Node25&#45;&gt;Node23 -->
<g id="edge30" class="edge">
<title>Node25&#45;&gt;Node23</title>
<path fill="none" stroke="midnightblue" d="M881.55,-136.96C894.88,-130.46 911.36,-120.79 923,-108.5 946.78,-83.38 933.15,-62.49 959,-39.5 960.32,-38.32 961.71,-37.2 963.15,-36.13"/>
<polygon fill="midnightblue" stroke="midnightblue" points="965.31,-38.9 971.86,-30.58 961.55,-33 965.31,-38.9"/>
</g>
<!-- Node26 -->
<g id="node26" class="node">
<title>Node26</title>
<g id="a_node26"><a xlink:href="zwapi__serial_8c.html#a538134f9fdbb1ce052667b3a041357bd" target="_top" xlink:title="Reads the output of the serial port device and stores the content in a buffer.">
<polygon fill="none" stroke="black" points="1123,-136 1123,-155 1242,-155 1242,-136 1123,-136"/>
<text text-anchor="middle" x="1182.5" y="-143" font-family="Helvetica,sans-Serif" font-size="10.00">zwapi_serial_get_buffer</text>
</a>
</g>
</g>
<!-- Node25&#45;&gt;Node26 -->
<g id="edge32" class="edge">
<title>Node25&#45;&gt;Node26</title>
<path fill="none" stroke="midnightblue" d="M923.1,-146.3C977.92,-146.13 1056.62,-145.89 1112.74,-145.71"/>
<polygon fill="midnightblue" stroke="midnightblue" points="1112.96,-149.21 1122.95,-145.68 1112.93,-142.21 1112.96,-149.21"/>
</g>
<!-- Node27 -->
<g id="node27" class="node">
<title>Node27</title>
<g id="a_node27"><a xlink:href="zwapi__serial_8c.html#abb082b1e7e727203e3ca5fbeb41f7c2b" target="_top" xlink:title="Reads a byte from the serial port device.">
<polygon fill="none" stroke="black" points="966.5,-99 966.5,-118 1079.5,-118 1079.5,-99 966.5,-99"/>
<text text-anchor="middle" x="1023" y="-106" font-family="Helvetica,sans-Serif" font-size="10.00">zwapi_serial_get_byte</text>
</a>
</g>
</g>
<!-- Node25&#45;&gt;Node27 -->
<g id="edge35" class="edge">
<title>Node25&#45;&gt;Node27</title>
<path fill="none" stroke="midnightblue" d="M900.13,-136.91C921.74,-131.87 948.41,-125.66 971.29,-120.32"/>
<polygon fill="midnightblue" stroke="midnightblue" points="972.22,-123.7 981.16,-118.02 970.63,-116.88 972.22,-123.7"/>
</g>
<!-- Node28 -->
<g id="node28" class="node">
<title>Node28</title>
<g id="a_node28"><a xlink:href="zwapi__serial_8c.html#a9a952dc2b34d92960246f6dc4e7d58f7" target="_top" xlink:title="Check the file descriptor for the serial device is available for I/O operations.">
<polygon fill="none" stroke="black" points="972.5,-49.5 972.5,-79.5 1073.5,-79.5 1073.5,-49.5 972.5,-49.5"/>
<text text-anchor="start" x="980.5" y="-67.5" font-family="Helvetica,sans-Serif" font-size="10.00">zwapi_serial_is_file</text>
<text text-anchor="middle" x="1023" y="-56.5" font-family="Helvetica,sans-Serif" font-size="10.00">_available</text>
</a>
</g>
</g>
<!-- Node25&#45;&gt;Node28 -->
<g id="edge37" class="edge">
<title>Node25&#45;&gt;Node28</title>
<path fill="none" stroke="midnightblue" d="M875.13,-136.94C898.98,-122.86 942.61,-97.38 959,-89.5 963.28,-87.44 967.78,-85.41 972.32,-83.45"/>
<polygon fill="midnightblue" stroke="midnightblue" points="973.78,-86.64 981.64,-79.54 971.07,-80.18 973.78,-86.64"/>
</g>
<!-- Node26&#45;&gt;Node14 -->
<g id="edge33" class="edge">
<title>Node26&#45;&gt;Node14</title>
<path fill="none" stroke="midnightblue" d="M1242.07,-144.43C1250.43,-144.27 1259.15,-144.11 1267.82,-143.95"/>
<polygon fill="midnightblue" stroke="midnightblue" points="1268.04,-147.45 1277.97,-143.77 1267.91,-140.45 1268.04,-147.45"/>
</g>
<!-- Node26&#45;&gt;Node15 -->
<g id="edge34" class="edge">
<title>Node26&#45;&gt;Node15</title>
<path fill="none" stroke="midnightblue" d="M1221.42,-155.01C1240.15,-159.71 1263.24,-165.5 1284.49,-170.82"/>
<polygon fill="midnightblue" stroke="midnightblue" points="1283.87,-174.28 1294.42,-173.32 1285.58,-167.49 1283.87,-174.28"/>
</g>
<!-- Node27&#45;&gt;Node26 -->
<g id="edge36" class="edge">
<title>Node27&#45;&gt;Node26</title>
<path fill="none" stroke="midnightblue" d="M1064.56,-118.03C1084.78,-122.78 1109.44,-128.57 1130.88,-133.61"/>
<polygon fill="midnightblue" stroke="midnightblue" points="1130.27,-137.06 1140.8,-135.94 1131.87,-130.25 1130.27,-137.06"/>
</g>
<!-- Node29&#45;&gt;Node20 -->
<g id="edge44" class="edge">
<title>Node29&#45;&gt;Node20</title>
<path fill="none" stroke="midnightblue" d="M747.79,-185.16C793.71,-191.16 862.87,-200.27 923,-208.5 933.86,-209.99 945.39,-211.59 956.6,-213.17"/>
<polygon fill="midnightblue" stroke="midnightblue" points="956.38,-216.67 966.77,-214.6 957.36,-209.74 956.38,-216.67"/>
</g>
<!-- Node29&#45;&gt;Node23 -->
<g id="edge43" class="edge">
<title>Node29&#45;&gt;Node23</title>
<path fill="none" stroke="midnightblue" d="M722.42,-163.4C768.92,-136.62 869.99,-79.84 959,-39.5 962.84,-37.76 966.84,-36.04 970.89,-34.36"/>
<polygon fill="midnightblue" stroke="midnightblue" points="972.4,-37.52 980.36,-30.53 969.77,-31.03 972.4,-37.52"/>
</g>
<!-- Node29&#45;&gt;Node25 -->
<g id="edge42" class="edge">
<title>Node29&#45;&gt;Node25</title>
<path fill="none" stroke="midnightblue" d="M747.72,-168.29C764.06,-165.03 782.25,-161.4 799.02,-158.06"/>
<polygon fill="midnightblue" stroke="midnightblue" points="800.14,-161.41 809.26,-156.02 798.77,-154.54 800.14,-161.41"/>
</g>
<!-- Node32 -->
<g id="node32" class="node">
<title>Node32</title>
<g id="a_node32"><a xlink:href="group__ZWAPI__BASIS.html#ga956fbfe63267baacd31dd20aa1c444d1" target="_top" xlink:title="Get the current node ID basetype setting.">
<polygon fill="none" stroke="black" points="286.5,-226 286.5,-245 431.5,-245 431.5,-226 286.5,-226"/>
<text text-anchor="middle" x="359" y="-233" font-family="Helvetica,sans-Serif" font-size="10.00">zwapi_get_node_id_basetype</text>
</a>
</g>
</g>
<!-- Node31&#45;&gt;Node32 -->
<g id="edge49" class="edge">
<title>Node31&#45;&gt;Node32</title>
<path fill="none" stroke="midnightblue" d="M242.7,-235.5C253.41,-235.5 264.92,-235.5 276.38,-235.5"/>
<polygon fill="midnightblue" stroke="midnightblue" points="276.4,-239 286.4,-235.5 276.4,-232 276.4,-239"/>
</g>
</g>
</svg>
