<?xml version="1.0" encoding="UTF-8" standalone="no"?>
<!DOCTYPE svg PUBLIC "-//W3C//DTD SVG 1.1//EN"
 "http://www.w3.org/Graphics/SVG/1.1/DTD/svg11.dtd">
<!-- Generated by graphviz version 2.43.0 (0)
 -->
<!-- Title: zwave_controller_transport_on_frame_received Pages: 1 -->
<svg width="965pt" height="287pt"
 viewBox="0.00 0.00 965.00 286.50" xmlns="http://www.w3.org/2000/svg" xmlns:xlink="http://www.w3.org/1999/xlink">
<g id="graph0" class="graph" transform="scale(1 1) rotate(0) translate(4 282.5)">
<title>zwave_controller_transport_on_frame_received</title>
<!-- Node1 -->
<g id="node1" class="node">
<title>Node1</title>
<g id="a_node1"><a xlink:title="Entry point of of frame to the transport plugin system .">
<polygon fill="#bfbfbf" stroke="black" points="823,-135 823,-165 957,-165 957,-135 823,-135"/>
<text text-anchor="start" x="831" y="-153" font-family="Helvetica,sans-Serif" font-size="10.00">zwave_controller_transport</text>
<text text-anchor="middle" x="890" y="-142" font-family="Helvetica,sans-Serif" font-size="10.00">_on_frame_received</text>
</a>
</g>
</g>
<!-- Node2 -->
<g id="node2" class="node">
<title>Node2</title>
<g id="a_node2"><a xlink:href="group__zwave__controller__internal.html#ga79b433f95d08d541cd2a4d74ed27fd65" target="_top" xlink:title="see zwave_controller_callbacks_t">
<polygon fill="none" stroke="black" points="681,-135 681,-165 787,-165 787,-135 681,-135"/>
<text text-anchor="start" x="689" y="-153" font-family="Helvetica,sans-Serif" font-size="10.00">zwave_controller_on</text>
<text text-anchor="middle" x="734" y="-142" font-family="Helvetica,sans-Serif" font-size="10.00">_frame_received</text>
</a>
</g>
</g>
<!-- Node1&#45;&gt;Node2 -->
<g id="edge1" class="edge">
<title>Node1&#45;&gt;Node2</title>
<path fill="none" stroke="midnightblue" d="M812.7,-150C804.07,-150 795.42,-150 787.2,-150"/>
<polygon fill="midnightblue" stroke="midnightblue" points="812.8,-153.5 822.8,-150 812.8,-146.5 812.8,-153.5"/>
</g>
<!-- Node3 -->
<g id="node3" class="node">
<title>Node3</title>
<g id="a_node3"><a xlink:href="zwave__s0__transport_8c.html#a03d95837da2b91dfbf98786f7e753fe4" target="_top" xlink:title=" ">
<polygon fill="none" stroke="black" points="511.5,-248 511.5,-278 638.5,-278 638.5,-248 511.5,-248"/>
<text text-anchor="start" x="519.5" y="-266" font-family="Helvetica,sans-Serif" font-size="10.00">s0_application_command</text>
<text text-anchor="middle" x="575" y="-255" font-family="Helvetica,sans-Serif" font-size="10.00">_handler</text>
</a>
</g>
</g>
<!-- Node2&#45;&gt;Node3 -->
<g id="edge2" class="edge">
<title>Node2&#45;&gt;Node3</title>
<path fill="none" stroke="midnightblue" d="M715.03,-172.95C698.62,-192.56 672.76,-220.35 645,-238 639.09,-241.76 632.53,-245.06 625.88,-247.92"/>
<polygon fill="midnightblue" stroke="midnightblue" points="717.83,-175.05 721.46,-165.09 712.42,-170.61 717.83,-175.05"/>
</g>
<!-- Node7 -->
<g id="node7" class="node">
<title>Node7</title>
<g id="a_node7"><a xlink:href="zwave__s2__transport_8c.html#ae80cacc705779dec5e5fbe10e09b2cfc" target="_top" xlink:title=" ">
<polygon fill="none" stroke="black" points="513,-209.5 513,-228.5 637,-228.5 637,-209.5 513,-209.5"/>
<text text-anchor="middle" x="575" y="-216.5" font-family="Helvetica,sans-Serif" font-size="10.00">S2_msg_received_event</text>
</a>
</g>
</g>
<!-- Node2&#45;&gt;Node7 -->
<g id="edge6" class="edge">
<title>Node2&#45;&gt;Node7</title>
<path fill="none" stroke="midnightblue" d="M701.64,-170.35C685.26,-180.31 664.59,-191.89 645,-200 636.16,-203.66 626.4,-206.84 617.06,-209.49"/>
<polygon fill="midnightblue" stroke="midnightblue" points="703.61,-173.24 710.27,-165 699.92,-167.29 703.61,-173.24"/>
</g>
<!-- Node8 -->
<g id="node8" class="node">
<title>Node8</title>
<g id="a_node8"><a xlink:href="zwave__transport__service__wrapper_8c.html#a04926f37c647baa66ef6b553310f24b3" target="_top" xlink:title=" ">
<polygon fill="none" stroke="black" points="517.5,-160 517.5,-190 632.5,-190 632.5,-160 517.5,-160"/>
<text text-anchor="start" x="525.5" y="-178" font-family="Helvetica,sans-Serif" font-size="10.00">upper_layer_command</text>
<text text-anchor="middle" x="575" y="-167" font-family="Helvetica,sans-Serif" font-size="10.00">_handler</text>
</a>
</g>
</g>
<!-- Node2&#45;&gt;Node8 -->
<g id="edge7" class="edge">
<title>Node2&#45;&gt;Node8</title>
<path fill="none" stroke="midnightblue" d="M670.78,-159.91C658.19,-161.91 645.02,-164.01 632.64,-165.98"/>
<polygon fill="midnightblue" stroke="midnightblue" points="671.4,-163.35 680.72,-158.32 670.3,-156.44 671.4,-163.35"/>
</g>
<!-- Node10 -->
<g id="node10" class="node">
<title>Node10</title>
<g id="a_node10"><a xlink:href="group__crc16__transport.html#ga80c8141d0da796e08a58f51d7a6bc625" target="_top" xlink:title="Decapsulate Multi Channel encapsulation and inject the frame back to the Z&#45;Wave Controller.">
<polygon fill="none" stroke="black" points="514,-111 514,-141 636,-141 636,-111 514,-111"/>
<text text-anchor="start" x="522" y="-129" font-family="Helvetica,sans-Serif" font-size="10.00">zwave_command_class</text>
<text text-anchor="middle" x="575" y="-118" font-family="Helvetica,sans-Serif" font-size="10.00">_crc16_decapsulate</text>
</a>
</g>
</g>
<!-- Node2&#45;&gt;Node10 -->
<g id="edge10" class="edge">
<title>Node2&#45;&gt;Node10</title>
<path fill="none" stroke="midnightblue" d="M670.5,-140.45C659.2,-138.72 647.43,-136.92 636.2,-135.2"/>
<polygon fill="midnightblue" stroke="midnightblue" points="670.31,-143.96 680.72,-142.01 671.37,-137.04 670.31,-143.96"/>
</g>
<!-- Node12 -->
<g id="node12" class="node">
<title>Node12</title>
<g id="a_node12"><a xlink:href="group__multi__channel__transport.html#ga165d494c164d63ae0ad3b95fdc9eb39f" target="_top" xlink:title="Decapsulate Multi Channel encapsulation and inject the frame back to the Z&#45;Wave Controller.">
<polygon fill="none" stroke="black" points="505,-62 505,-92 645,-92 645,-62 505,-62"/>
<text text-anchor="start" x="513" y="-80" font-family="Helvetica,sans-Serif" font-size="10.00">zwave_command_class</text>
<text text-anchor="middle" x="575" y="-69" font-family="Helvetica,sans-Serif" font-size="10.00">_multi_channel_decapsulate</text>
</a>
</g>
</g>
<!-- Node2&#45;&gt;Node12 -->
<g id="edge13" class="edge">
<title>Node2&#45;&gt;Node12</title>
<path fill="none" stroke="midnightblue" d="M698.72,-129.73C682.69,-120.66 663.17,-110.19 645,-102 637.22,-98.49 628.78,-95.11 620.57,-92.02"/>
<polygon fill="midnightblue" stroke="midnightblue" points="697.31,-132.95 707.72,-134.88 700.78,-126.87 697.31,-132.95"/>
</g>
<!-- Node14 -->
<g id="node14" class="node">
<title>Node14</title>
<g id="a_node14"><a xlink:href="group__zwave__rx__zwapi__callbacks.html#gad4081a8d944b8daad978322699bc01e3" target="_top" xlink:title="application_command_handler function for zwapi_callbacks. Z&#45;Wave API controller libraries will call t...">
<polygon fill="none" stroke="black" points="520,-13 520,-43 630,-43 630,-13 520,-13"/>
<text text-anchor="start" x="528" y="-31" font-family="Helvetica,sans-Serif" font-size="10.00">zwave_rx_application</text>
<text text-anchor="middle" x="575" y="-20" font-family="Helvetica,sans-Serif" font-size="10.00">_command_handler</text>
</a>
</g>
</g>
<!-- Node2&#45;&gt;Node14 -->
<g id="edge16" class="edge">
<title>Node2&#45;&gt;Node14</title>
<path fill="none" stroke="midnightblue" d="M716.83,-126.39C700.84,-104.64 674.54,-72.81 645,-53 639.39,-49.24 633.15,-45.96 626.77,-43.13"/>
<polygon fill="midnightblue" stroke="midnightblue" points="714.16,-128.67 722.83,-134.75 719.84,-124.59 714.16,-128.67"/>
</g>
<!-- Node4 -->
<g id="node4" class="node">
<title>Node4</title>
<g id="a_node4"><a xlink:href="group__zwave__s0__transport.html#ga075cd6959f4f2b9cbd757c5d43f97820" target="_top" xlink:title="Entry point of S0 frames received from the PHY/radio stack.">
<polygon fill="none" stroke="black" points="320,-242.5 320,-261.5 469,-261.5 469,-242.5 320,-242.5"/>
<text text-anchor="middle" x="394.5" y="-249.5" font-family="Helvetica,sans-Serif" font-size="10.00">zwave_s0_on_frame_received</text>
</a>
</g>
</g>
<!-- Node3&#45;&gt;Node4 -->
<g id="edge3" class="edge">
<title>Node3&#45;&gt;Node4</title>
<path fill="none" stroke="midnightblue" d="M501.25,-258.52C490.63,-257.86 479.68,-257.19 469.04,-256.53"/>
<polygon fill="midnightblue" stroke="midnightblue" points="501.12,-262.02 511.32,-259.14 501.55,-255.03 501.12,-262.02"/>
</g>
<!-- Node5 -->
<g id="node5" class="node">
<title>Node5</title>
<g id="a_node5"><a xlink:href="group__zwave__s0__transport.html#ga7fcd7083b5fe3b6b2838d0d64f815f53" target="_top" xlink:title="Initialize the S0 Transport Also calls zwave_s0_network_init() which aborts all tx sessions and frees...">
<polygon fill="none" stroke="black" points="155,-218.5 155,-237.5 277,-237.5 277,-218.5 155,-218.5"/>
<text text-anchor="middle" x="216" y="-225.5" font-family="Helvetica,sans-Serif" font-size="10.00">zwave_s0_transport_init</text>
</a>
</g>
</g>
<!-- Node4&#45;&gt;Node5 -->
<g id="edge4" class="edge">
<title>Node4&#45;&gt;Node5</title>
<path fill="none" stroke="midnightblue" d="M313.36,-241.1C301.21,-239.45 288.86,-237.77 277.24,-236.19"/>
<polygon fill="midnightblue" stroke="midnightblue" points="313.11,-244.6 323.49,-242.48 314.05,-237.66 313.11,-244.6"/>
</g>
<!-- Node6 -->
<g id="node6" class="node">
<title>Node6</title>
<g id="a_node6"><a xlink:href="group__zwave__transports__fixt.html#ga26fb2571e272a5094bd0320eca3a896d" target="_top" xlink:title="Setup fixture for Z&#45;Wave Transports.">
<polygon fill="none" stroke="black" points="0,-140.5 0,-159.5 112,-159.5 112,-140.5 0,-140.5"/>
<text text-anchor="middle" x="56" y="-147.5" font-family="Helvetica,sans-Serif" font-size="10.00">zwave_transports_init</text>
</a>
</g>
</g>
<!-- Node5&#45;&gt;Node6 -->
<g id="edge5" class="edge">
<title>Node5&#45;&gt;Node6</title>
<path fill="none" stroke="midnightblue" d="M183.37,-214.34C172.13,-209.35 159.43,-203.57 148,-198 121.98,-185.33 92.45,-169.47 74.27,-159.54"/>
<polygon fill="midnightblue" stroke="midnightblue" points="182.24,-217.67 192.81,-218.49 185.06,-211.26 182.24,-217.67"/>
</g>
<!-- Node9 -->
<g id="node9" class="node">
<title>Node9</title>
<g id="a_node9"><a xlink:href="group__transport__service__transport__wrapper.html#gad02263e40b63853166ac8a7601954f33" target="_top" xlink:title=" ">
<polygon fill="none" stroke="black" points="153.5,-158 153.5,-188 278.5,-188 278.5,-158 153.5,-158"/>
<text text-anchor="start" x="161.5" y="-176" font-family="Helvetica,sans-Serif" font-size="10.00">zwave_transport_service</text>
<text text-anchor="middle" x="216" y="-165" font-family="Helvetica,sans-Serif" font-size="10.00">_transport_init</text>
</a>
</g>
</g>
<!-- Node8&#45;&gt;Node9 -->
<g id="edge8" class="edge">
<title>Node8&#45;&gt;Node9</title>
<path fill="none" stroke="midnightblue" d="M507.21,-174.63C441.64,-174.26 342.45,-173.7 278.69,-173.35"/>
<polygon fill="midnightblue" stroke="midnightblue" points="507.41,-178.13 517.43,-174.68 507.45,-171.13 507.41,-178.13"/>
</g>
<!-- Node9&#45;&gt;Node6 -->
<g id="edge9" class="edge">
<title>Node9&#45;&gt;Node6</title>
<path fill="none" stroke="midnightblue" d="M143.47,-162.59C132.97,-161.06 122.3,-159.51 112.19,-158.03"/>
<polygon fill="midnightblue" stroke="midnightblue" points="143.06,-166.06 153.46,-164.04 144.07,-159.14 143.06,-166.06"/>
</g>
<!-- Node11 -->
<g id="node11" class="node">
<title>Node11</title>
<g id="a_node11"><a xlink:href="group__crc16__transport.html#ga41d7716fd0dc4dd78d6747b6f8226671" target="_top" xlink:title="Initialize the CRC16 Transport *.">
<polygon fill="none" stroke="black" points="148,-118.5 148,-137.5 284,-137.5 284,-118.5 148,-118.5"/>
<text text-anchor="middle" x="216" y="-125.5" font-family="Helvetica,sans-Serif" font-size="10.00">zwave_crc16_transport_init</text>
</a>
</g>
</g>
<!-- Node10&#45;&gt;Node11 -->
<g id="edge11" class="edge">
<title>Node10&#45;&gt;Node11</title>
<path fill="none" stroke="midnightblue" d="M503.49,-126.4C439.8,-126.75 346.71,-127.27 284.1,-127.62"/>
<polygon fill="midnightblue" stroke="midnightblue" points="503.86,-129.89 513.84,-126.34 503.82,-122.89 503.86,-129.89"/>
</g>
<!-- Node11&#45;&gt;Node6 -->
<g id="edge12" class="edge">
<title>Node11&#45;&gt;Node6</title>
<path fill="none" stroke="midnightblue" d="M137.85,-138.74C129.18,-139.95 120.48,-141.16 112.17,-142.32"/>
<polygon fill="midnightblue" stroke="midnightblue" points="138.57,-142.18 147.99,-137.33 137.61,-135.24 138.57,-142.18"/>
</g>
<!-- Node13 -->
<g id="node13" class="node">
<title>Node13</title>
<g id="a_node13"><a xlink:href="group__zwave__multi__channel__transport.html#ga41f607e54c3aedd8783d43f185df6c0a" target="_top" xlink:title="Initialize the Multi Channel Transport *.">
<polygon fill="none" stroke="black" points="339.5,-68 339.5,-98 449.5,-98 449.5,-68 339.5,-68"/>
<text text-anchor="start" x="347.5" y="-86" font-family="Helvetica,sans-Serif" font-size="10.00">zwave_multi_channel</text>
<text text-anchor="middle" x="394.5" y="-75" font-family="Helvetica,sans-Serif" font-size="10.00">_transport_init</text>
</a>
</g>
</g>
<!-- Node12&#45;&gt;Node13 -->
<g id="edge14" class="edge">
<title>Node12&#45;&gt;Node13</title>
<path fill="none" stroke="midnightblue" d="M494.56,-79.67C479.38,-80.18 463.82,-80.7 449.66,-81.18"/>
<polygon fill="midnightblue" stroke="midnightblue" points="495.11,-83.15 504.99,-79.32 494.88,-76.16 495.11,-83.15"/>
</g>
<!-- Node13&#45;&gt;Node6 -->
<g id="edge15" class="edge">
<title>Node13&#45;&gt;Node6</title>
<path fill="none" stroke="midnightblue" d="M329.39,-84.24C279.25,-86.53 208.18,-92.7 148,-109 120.9,-116.34 91.66,-130.81 73.84,-140.44"/>
<polygon fill="midnightblue" stroke="midnightblue" points="329.6,-87.74 339.44,-83.82 329.31,-80.74 329.6,-87.74"/>
</g>
<!-- Node15 -->
<g id="node15" class="node">
<title>Node15</title>
<g id="a_node15"><a xlink:href="group__zwave__rx__zwapi__callbacks.html#gaa36427751230efea8a45e11214b73e99" target="_top" xlink:title="application_command_handler_bridge function for zwapi_callbacks. Z&#45;Wave API Bridge libraries will cal...">
<polygon fill="none" stroke="black" points="328,-17 328,-47 461,-47 461,-17 328,-17"/>
<text text-anchor="start" x="336" y="-35" font-family="Helvetica,sans-Serif" font-size="10.00">zwave_rx_application</text>
<text text-anchor="middle" x="394.5" y="-24" font-family="Helvetica,sans-Serif" font-size="10.00">_command_handler_bridge</text>
</a>
</g>
</g>
<!-- Node14&#45;&gt;Node15 -->
<g id="edge17" class="edge">
<title>Node14&#45;&gt;Node15</title>
<path fill="none" stroke="midnightblue" d="M509.74,-29.44C493.89,-29.8 476.91,-30.18 461.01,-30.53"/>
<polygon fill="midnightblue" stroke="midnightblue" points="510.04,-32.93 519.96,-29.21 509.88,-25.94 510.04,-32.93"/>
</g>
<!-- Node16 -->
<g id="node16" class="node">
<title>Node16</title>
<g id="a_node16"><a xlink:href="group__zwave__rx__internals.html#ga5fb555f285dbe1b21ba750d0443476c8" target="_top" xlink:title="Initialize the Z&#45;Wave Rx component.">
<polygon fill="none" stroke="black" points="177.5,-0.5 177.5,-19.5 254.5,-19.5 254.5,-0.5 177.5,-0.5"/>
<text text-anchor="middle" x="216" y="-7.5" font-family="Helvetica,sans-Serif" font-size="10.00">zwave_rx_init</text>
</a>
</g>
</g>
<!-- Node14&#45;&gt;Node16 -->
<g id="edge20" class="edge">
<title>Node14&#45;&gt;Node16</title>
<path fill="none" stroke="midnightblue" d="M509.73,-13.06C496.34,-10.54 482.27,-8.31 469,-7 393.24,0.5 304.05,-3.58 254.68,-6.96"/>
<polygon fill="midnightblue" stroke="midnightblue" points="509.32,-16.55 519.81,-15.04 510.67,-9.68 509.32,-16.55"/>
</g>
<!-- Node15&#45;&gt;Node16 -->
<g id="edge18" class="edge">
<title>Node15&#45;&gt;Node16</title>
<path fill="none" stroke="midnightblue" d="M317.82,-22.57C295.95,-19.84 273.03,-16.98 254.58,-14.68"/>
<polygon fill="midnightblue" stroke="midnightblue" points="317.42,-26.04 327.78,-23.81 318.29,-19.1 317.42,-26.04"/>
</g>
<!-- Node17 -->
<g id="node17" class="node">
<title>Node17</title>
<g id="a_node17"><a xlink:href="group__zwave__rx__fixt.html#ga89a6db07ef29cb6ad8f8cdeec935b442" target="_top" xlink:title=" ">
<polygon fill="none" stroke="black" points="2.5,-0.5 2.5,-19.5 109.5,-19.5 109.5,-0.5 2.5,-0.5"/>
<text text-anchor="middle" x="56" y="-7.5" font-family="Helvetica,sans-Serif" font-size="10.00">zwave_rx_fixt_setup</text>
</a>
</g>
</g>
<!-- Node16&#45;&gt;Node17 -->
<g id="edge19" class="edge">
<title>Node16&#45;&gt;Node17</title>
<path fill="none" stroke="midnightblue" d="M167.11,-10C149,-10 128.3,-10 109.77,-10"/>
<polygon fill="midnightblue" stroke="midnightblue" points="167.16,-13.5 177.16,-10 167.16,-6.5 167.16,-13.5"/>
</g>
</g>
</svg>
