<?xml version="1.0" encoding="UTF-8" standalone="no"?>
<!DOCTYPE svg PUBLIC "-//W3C//DTD SVG 1.1//EN"
 "http://www.w3.org/Graphics/SVG/1.1/DTD/svg11.dtd">
<!-- Generated by graphviz version 2.43.0 (0)
 -->
<!-- Title: ZCL Cluster Servers Pages: 1 -->
<svg width="293pt" height="209pt"
 viewBox="0.00 0.00 293.00 209.00" xmlns="http://www.w3.org/2000/svg" xmlns:xlink="http://www.w3.org/1999/xlink">
<g id="graph0" class="graph" transform="scale(1 1) rotate(0) translate(4 205)">
<title>ZCL Cluster Servers</title>
<!-- Node2 -->
<g id="node1" class="node">
<title>Node2</title>
<g id="a_node1"><a xlink:href="group__configuration__parameter__cluster__server.html" target="_top" xlink:title="The module handlers the Configuration Parmater Cluster commands and update directly the attribute on ...">
<polygon fill="none" stroke="black" points="285,-201 142,-201 142,-171 285,-171 285,-201"/>
<text text-anchor="start" x="150" y="-189" font-family="Helvetica,sans-Serif" font-size="10.00">ZCL Configuration Parameter</text>
<text text-anchor="middle" x="213.5" y="-178" font-family="Helvetica,sans-Serif" font-size="10.00"> cluster</text>
</a>
</g>
</g>
<!-- Node3 -->
<g id="node2" class="node">
<title>Node3</title>
<g id="a_node2"><a xlink:href="group__user__code__cluster__server.html" target="_top" xlink:title="The module handlers the User Code command mapping.">
<polygon fill="none" stroke="black" points="278.5,-152.5 148.5,-152.5 148.5,-133.5 278.5,-133.5 278.5,-152.5"/>
<text text-anchor="middle" x="213.5" y="-140.5" font-family="Helvetica,sans-Serif" font-size="10.00">User Code Cluster Server</text>
</a>
</g>
</g>
<!-- Node1 -->
<g id="node3" class="node">
<title>Node1</title>
<g id="a_node3"><a xlink:title="List of ZCL Clusters that the Protocol Controller provides on behalf of its PAN Nodes.">
<polygon fill="#bfbfbf" stroke="black" points="106,-115.5 0,-115.5 0,-96.5 106,-96.5 106,-115.5"/>
<text text-anchor="middle" x="53" y="-103.5" font-family="Helvetica,sans-Serif" font-size="10.00">ZCL Cluster Servers</text>
</a>
</g>
</g>
<!-- Node1&#45;&gt;Node2 -->
<g id="edge1" class="edge">
<title>Node1&#45;&gt;Node2</title>
<path fill="none" stroke="black" d="M75.11,-121.47C92.44,-133.65 117.95,-150.46 142,-162 148.76,-165.24 156.08,-168.25 163.35,-170.96"/>
<polygon fill="black" stroke="black" points="77.02,-118.53 66.85,-115.57 72.95,-124.23 77.02,-118.53"/>
</g>
<!-- Node1&#45;&gt;Node3 -->
<g id="edge2" class="edge">
<title>Node1&#45;&gt;Node3</title>
<path fill="none" stroke="black" d="M104.79,-117.86C126.36,-122.89 151.18,-128.68 171.55,-133.44"/>
<polygon fill="black" stroke="black" points="105.35,-114.39 94.82,-115.53 103.76,-121.21 105.35,-114.39"/>
</g>
<!-- Node4 -->
<g id="node4" class="node">
<title>Node4</title>
<g id="a_node4"><a xlink:href="group__zcl__cluster__servers__helpers.html" target="_top" xlink:title="Helper functions that all ZCL Cluster servers can use.">
<polygon fill="none" stroke="black" points="268,-115.5 159,-115.5 159,-96.5 268,-96.5 268,-115.5"/>
<text text-anchor="middle" x="213.5" y="-103.5" font-family="Helvetica,sans-Serif" font-size="10.00">ZCL Clusters helpers</text>
</a>
</g>
</g>
<!-- Node1&#45;&gt;Node4 -->
<g id="edge3" class="edge">
<title>Node1&#45;&gt;Node4</title>
<path fill="none" stroke="black" d="M116.4,-106C130.44,-106 145.22,-106 158.86,-106"/>
<polygon fill="black" stroke="black" points="116.34,-102.5 106.34,-106 116.34,-109.5 116.34,-102.5"/>
</g>
<!-- Node5 -->
<g id="node5" class="node">
<title>Node5</title>
<g id="a_node5"><a xlink:href="group__zcl__rf__telemetry__cluster__server.html" target="_top" xlink:title="ZCL cluster server providing ProtocolController/RFTelemetry for the ZPC.">
<polygon fill="none" stroke="black" points="279,-78 148,-78 148,-48 279,-48 279,-78"/>
<text text-anchor="start" x="156" y="-66" font-family="Helvetica,sans-Serif" font-size="10.00">ZCL RF Telemetry Cluster</text>
<text text-anchor="middle" x="213.5" y="-55" font-family="Helvetica,sans-Serif" font-size="10.00"> server</text>
</a>
</g>
</g>
<!-- Node1&#45;&gt;Node5 -->
<g id="edge4" class="edge">
<title>Node1&#45;&gt;Node5</title>
<path fill="none" stroke="black" d="M98.91,-93.82C117.03,-88.9 138.13,-83.18 157.19,-78.01"/>
<polygon fill="black" stroke="black" points="97.91,-90.46 89.18,-96.46 99.74,-97.22 97.91,-90.46"/>
</g>
<!-- Node6 -->
<g id="node6" class="node">
<title>Node6</title>
<g id="a_node6"><a xlink:href="group__zcl__scenes__cluster__server.html" target="_top" xlink:title="Pretends that all our (actuator) nodes support the ZCL Scenes cluster.">
<polygon fill="none" stroke="black" points="265,-30 162,-30 162,0 265,0 265,-30"/>
<text text-anchor="start" x="170" y="-18" font-family="Helvetica,sans-Serif" font-size="10.00">ZCL Scenes cluster</text>
<text text-anchor="middle" x="213.5" y="-7" font-family="Helvetica,sans-Serif" font-size="10.00"> server</text>
</a>
</g>
</g>
<!-- Node1&#45;&gt;Node6 -->
<g id="edge5" class="edge">
<title>Node1&#45;&gt;Node6</title>
<path fill="none" stroke="black" d="M71.84,-89.63C88.82,-74.75 115.64,-53.04 142,-39 148.28,-35.66 155.11,-32.64 161.97,-29.97"/>
<polygon fill="black" stroke="black" points="69.47,-87.06 64.34,-96.32 74.13,-92.28 69.47,-87.06"/>
</g>
</g>
</svg>
