<?xml version="1.0" encoding="UTF-8" standalone="no"?>
<!DOCTYPE svg PUBLIC "-//W3C//DTD SVG 1.1//EN"
 "http://www.w3.org/Graphics/SVG/1.1/DTD/svg11.dtd">
<!-- Generated by graphviz version 2.43.0 (0)
 -->
<!-- Title: zwave_controller_is_reset_ongoing Pages: 1 -->
<svg width="624pt" height="402pt"
 viewBox="0.00 0.00 624.00 401.50" xmlns="http://www.w3.org/2000/svg" xmlns:xlink="http://www.w3.org/1999/xlink">
<g id="graph0" class="graph" transform="scale(1 1) rotate(0) translate(4 397.5)">
<title>zwave_controller_is_reset_ongoing</title>
<!-- Node1 -->
<g id="node1" class="node">
<title>Node1</title>
<g id="a_node1"><a xlink:title="Tells if we are currently reseting the ZPC.">
<polygon fill="#bfbfbf" stroke="black" points="513,-155.5 513,-185.5 616,-185.5 616,-155.5 513,-155.5"/>
<text text-anchor="start" x="521" y="-173.5" font-family="Helvetica,sans-Serif" font-size="10.00">zwave_controller_is</text>
<text text-anchor="middle" x="564.5" y="-162.5" font-family="Helvetica,sans-Serif" font-size="10.00">_reset_ongoing</text>
</a>
</g>
</g>
<!-- Node2 -->
<g id="node2" class="node">
<title>Node2</title>
<g id="a_node2"><a xlink:href="group__zwave__network__management__helpers.html#ga49b020a521982049a986e9d0daee026e" target="_top" xlink:title="Checks if all the conditions are fulfilled to start a new network management operation....">
<polygon fill="none" stroke="black" points="347.5,-178 347.5,-219 460.5,-219 460.5,-178 347.5,-178"/>
<text text-anchor="start" x="355.5" y="-207" font-family="Helvetica,sans-Serif" font-size="10.00">network_management</text>
<text text-anchor="start" x="355.5" y="-196" font-family="Helvetica,sans-Serif" font-size="10.00">_is_ready_for_a_new</text>
<text text-anchor="middle" x="404" y="-185" font-family="Helvetica,sans-Serif" font-size="10.00">_operation</text>
</a>
</g>
</g>
<!-- Node1&#45;&gt;Node2 -->
<g id="edge1" class="edge">
<title>Node1&#45;&gt;Node2</title>
<path fill="none" stroke="midnightblue" d="M502.95,-181.2C489.03,-183.66 474.29,-186.26 460.6,-188.68"/>
<polygon fill="midnightblue" stroke="midnightblue" points="503.68,-184.62 512.91,-179.44 502.46,-177.73 503.68,-184.62"/>
</g>
<!-- Node12 -->
<g id="node12" class="node">
<title>Node12</title>
<g id="a_node12"><a xlink:href="group__zwave__network__management.html#gaea33750f3c0be561e79df3f46fc036cb" target="_top" xlink:title="Assign static return routes to End Nodes.">
<polygon fill="none" stroke="black" points="331,-128.5 331,-158.5 477,-158.5 477,-128.5 331,-128.5"/>
<text text-anchor="start" x="339" y="-146.5" font-family="Helvetica,sans-Serif" font-size="10.00">zwave_network_management</text>
<text text-anchor="middle" x="404" y="-135.5" font-family="Helvetica,sans-Serif" font-size="10.00">_assign_return_route</text>
</a>
</g>
</g>
<!-- Node1&#45;&gt;Node12 -->
<g id="edge12" class="edge">
<title>Node1&#45;&gt;Node12</title>
<path fill="none" stroke="midnightblue" d="M502.81,-160.16C494.39,-158.73 485.67,-157.24 477.06,-155.78"/>
<polygon fill="midnightblue" stroke="midnightblue" points="502.47,-163.65 512.91,-161.88 503.64,-156.75 502.47,-163.65"/>
</g>
<!-- Node3 -->
<g id="node3" class="node">
<title>Node3</title>
<g id="a_node3"><a xlink:href="nm__state__machine_8c.html#ac9fe4041f9ca45bad16c9b6ad7bae02f" target="_top" xlink:title=" ">
<polygon fill="none" stroke="black" points="169.5,-356 169.5,-375 274.5,-375 274.5,-356 169.5,-356"/>
<text text-anchor="middle" x="222" y="-363" font-family="Helvetica,sans-Serif" font-size="10.00">nm_fsm_post_event</text>
</a>
</g>
</g>
<!-- Node2&#45;&gt;Node3 -->
<g id="edge2" class="edge">
<title>Node2&#45;&gt;Node3</title>
<path fill="none" stroke="midnightblue" d="M388.97,-228.58C371.64,-262.39 338.99,-316.46 295,-346.5 288.91,-350.66 281.97,-353.9 274.85,-356.44"/>
<polygon fill="midnightblue" stroke="midnightblue" points="392.31,-229.71 393.65,-219.2 386.05,-226.59 392.31,-229.71"/>
</g>
<!-- Node5 -->
<g id="node5" class="node">
<title>Node5</title>
<g id="a_node5"><a xlink:href="group__zwave__network__management.html#gabcb05aa3686ebc777a52d45f2cc093ad" target="_top" xlink:title="Put the Z&#45;Wave controller in add node mode.">
<polygon fill="none" stroke="black" points="149,-306.5 149,-336.5 295,-336.5 295,-306.5 149,-306.5"/>
<text text-anchor="start" x="157" y="-324.5" font-family="Helvetica,sans-Serif" font-size="10.00">zwave_network_management</text>
<text text-anchor="middle" x="222" y="-313.5" font-family="Helvetica,sans-Serif" font-size="10.00">_add_node</text>
</a>
</g>
</g>
<!-- Node2&#45;&gt;Node5 -->
<g id="edge5" class="edge">
<title>Node2&#45;&gt;Node5</title>
<path fill="none" stroke="midnightblue" d="M378.71,-226.48C358.3,-248.47 327.36,-278.46 295,-297.5 289.32,-300.84 283.12,-303.79 276.8,-306.38"/>
<polygon fill="midnightblue" stroke="midnightblue" points="381.32,-228.81 385.47,-219.07 376.15,-224.09 381.32,-228.81"/>
</g>
<!-- Node6 -->
<g id="node6" class="node">
<title>Node6</title>
<g id="a_node6"><a xlink:href="group__zwave__network__management.html#ga70d33229419c634dfb25b946dbc5eb7d" target="_top" xlink:title="Put the Z&#45;Wave controller in SmartStart add node mode.">
<polygon fill="none" stroke="black" points="149,-257.5 149,-287.5 295,-287.5 295,-257.5 149,-257.5"/>
<text text-anchor="start" x="157" y="-275.5" font-family="Helvetica,sans-Serif" font-size="10.00">zwave_network_management</text>
<text text-anchor="middle" x="222" y="-264.5" font-family="Helvetica,sans-Serif" font-size="10.00">_add_node_with_dsk</text>
</a>
</g>
</g>
<!-- Node2&#45;&gt;Node6 -->
<g id="edge6" class="edge">
<title>Node2&#45;&gt;Node6</title>
<path fill="none" stroke="midnightblue" d="M352.3,-223.4C334.38,-231.81 313.97,-240.97 295,-248.5 287.16,-251.61 278.74,-254.66 270.52,-257.5"/>
<polygon fill="midnightblue" stroke="midnightblue" points="353.88,-226.52 361.42,-219.08 350.88,-220.19 353.88,-226.52"/>
</g>
<!-- Node7 -->
<g id="node7" class="node">
<title>Node7</title>
<g id="a_node7"><a xlink:href="group__zwave__network__management.html#ga9872a0f15f3797e33edc76f73c7972e6" target="_top" xlink:title="Put the Z&#45;Wave controller in learn mode.">
<polygon fill="none" stroke="black" points="149,-208.5 149,-238.5 295,-238.5 295,-208.5 149,-208.5"/>
<text text-anchor="start" x="157" y="-226.5" font-family="Helvetica,sans-Serif" font-size="10.00">zwave_network_management</text>
<text text-anchor="middle" x="222" y="-215.5" font-family="Helvetica,sans-Serif" font-size="10.00">_learn_mode</text>
</a>
</g>
</g>
<!-- Node2&#45;&gt;Node7 -->
<g id="edge7" class="edge">
<title>Node2&#45;&gt;Node7</title>
<path fill="none" stroke="midnightblue" d="M336.84,-207.69C323.28,-209.57 308.94,-211.56 295.18,-213.48"/>
<polygon fill="midnightblue" stroke="midnightblue" points="337.61,-211.12 347.03,-206.27 336.65,-204.18 337.61,-211.12"/>
</g>
<!-- Node8 -->
<g id="node8" class="node">
<title>Node8</title>
<g id="a_node8"><a xlink:href="group__zwave__network__management.html#gade18f44167921855f974d5efb34f4837" target="_top" xlink:title="Remove a failed node.">
<polygon fill="none" stroke="black" points="149,-159.5 149,-189.5 295,-189.5 295,-159.5 149,-159.5"/>
<text text-anchor="start" x="157" y="-177.5" font-family="Helvetica,sans-Serif" font-size="10.00">zwave_network_management</text>
<text text-anchor="middle" x="222" y="-166.5" font-family="Helvetica,sans-Serif" font-size="10.00">_remove_failed</text>
</a>
</g>
</g>
<!-- Node2&#45;&gt;Node8 -->
<g id="edge8" class="edge">
<title>Node2&#45;&gt;Node8</title>
<path fill="none" stroke="midnightblue" d="M336.84,-189.68C323.28,-187.87 308.94,-185.96 295.18,-184.12"/>
<polygon fill="midnightblue" stroke="midnightblue" points="336.66,-193.19 347.03,-191.04 337.58,-186.25 336.66,-193.19"/>
</g>
<!-- Node9 -->
<g id="node9" class="node">
<title>Node9</title>
<g id="a_node9"><a xlink:href="group__zwave__network__management.html#ga9cf0dfbb0b6c2dcf64ff3d218eb7c839" target="_top" xlink:title="Put the Z&#45;Wave controller in remove node mode.">
<polygon fill="none" stroke="black" points="149,-110.5 149,-140.5 295,-140.5 295,-110.5 149,-110.5"/>
<text text-anchor="start" x="157" y="-128.5" font-family="Helvetica,sans-Serif" font-size="10.00">zwave_network_management</text>
<text text-anchor="middle" x="222" y="-117.5" font-family="Helvetica,sans-Serif" font-size="10.00">_remove_node</text>
</a>
</g>
</g>
<!-- Node2&#45;&gt;Node9 -->
<g id="edge9" class="edge">
<title>Node2&#45;&gt;Node9</title>
<path fill="none" stroke="midnightblue" d="M342.95,-173.85C338.89,-172.07 334.88,-170.28 331,-168.5 314.73,-161.06 311.48,-157.45 295,-150.5 286.83,-147.06 278.01,-143.7 269.43,-140.63"/>
<polygon fill="midnightblue" stroke="midnightblue" points="341.89,-177.2 352.45,-177.96 344.67,-170.77 341.89,-177.2"/>
</g>
<!-- Node10 -->
<g id="node10" class="node">
<title>Node10</title>
<g id="a_node10"><a xlink:href="group__zwave__network__management.html#ga529c2e3e0edac5ed86f98fe55fc77c57" target="_top" xlink:title="Request Node Neighbor Discovery.">
<polygon fill="none" stroke="black" points="149,-50 149,-91 295,-91 295,-50 149,-50"/>
<text text-anchor="start" x="157" y="-79" font-family="Helvetica,sans-Serif" font-size="10.00">zwave_network_management</text>
<text text-anchor="start" x="157" y="-68" font-family="Helvetica,sans-Serif" font-size="10.00">_request_node_neighbor</text>
<text text-anchor="middle" x="222" y="-57" font-family="Helvetica,sans-Serif" font-size="10.00">_discovery</text>
</a>
</g>
</g>
<!-- Node2&#45;&gt;Node10 -->
<g id="edge10" class="edge">
<title>Node2&#45;&gt;Node10</title>
<path fill="none" stroke="midnightblue" d="M338.46,-174.44C335.84,-172.59 333.33,-170.61 331,-168.5 305.95,-145.8 319.91,-124.35 295,-101.5 290.79,-97.64 286.02,-94.21 280.99,-91.17"/>
<polygon fill="midnightblue" stroke="midnightblue" points="336.85,-177.56 347.18,-179.91 340.57,-171.63 336.85,-177.56"/>
</g>
<!-- Node11 -->
<g id="node11" class="node">
<title>Node11</title>
<g id="a_node11"><a xlink:href="group__zwave__network__management.html#ga9423226296d636674ffa006952a5f172" target="_top" xlink:title="Request the NM to perform proxy inclusion.">
<polygon fill="none" stroke="black" points="149,-0.5 149,-30.5 295,-30.5 295,-0.5 149,-0.5"/>
<text text-anchor="start" x="157" y="-18.5" font-family="Helvetica,sans-Serif" font-size="10.00">zwave_network_management</text>
<text text-anchor="middle" x="222" y="-7.5" font-family="Helvetica,sans-Serif" font-size="10.00">_start_proxy_inclusion</text>
</a>
</g>
</g>
<!-- Node2&#45;&gt;Node11 -->
<g id="edge11" class="edge">
<title>Node2&#45;&gt;Node11</title>
<path fill="none" stroke="midnightblue" d="M338.83,-175.82C336,-173.6 333.36,-171.17 331,-168.5 291.81,-124.27 335.51,-83.52 295,-40.5 291.37,-36.65 287.12,-33.39 282.53,-30.63"/>
<polygon fill="midnightblue" stroke="midnightblue" points="337.01,-178.82 347.25,-181.54 340.94,-173.03 337.01,-178.82"/>
</g>
<!-- Node3&#45;&gt;Node3 -->
<g id="edge3" class="edge">
<title>Node3&#45;&gt;Node3</title>
<path fill="none" stroke="midnightblue" d="M252.69,-383.77C251.81,-389.24 241.58,-393.5 222,-393.5 192.85,-393.5 184.43,-384.07 196.72,-375.26"/>
<polygon fill="midnightblue" stroke="midnightblue" points="255.59,-381.82 247.28,-375.26 249.69,-385.57 255.59,-381.82"/>
</g>
<!-- Node4 -->
<g id="node4" class="node">
<title>Node4</title>
<g id="a_node4"><a xlink:href="zwave__network__management__process_8c.html#a59cf655b084839b45cc25e23b3aef04c" target="_top" xlink:title=" ">
<polygon fill="none" stroke="black" points="0,-356 0,-375 113,-375 113,-356 0,-356"/>
<text text-anchor="middle" x="56.5" y="-363" font-family="Helvetica,sans-Serif" font-size="10.00">PROCESS_THREAD</text>
</a>
</g>
</g>
<!-- Node3&#45;&gt;Node4 -->
<g id="edge4" class="edge">
<title>Node3&#45;&gt;Node4</title>
<path fill="none" stroke="midnightblue" d="M159.01,-365.5C143.93,-365.5 127.9,-365.5 113.14,-365.5"/>
<polygon fill="midnightblue" stroke="midnightblue" points="159.27,-369 169.27,-365.5 159.27,-362 159.27,-369"/>
</g>
</g>
</svg>
