<?xml version="1.0" encoding="UTF-8" standalone="no"?>
<!DOCTYPE svg PUBLIC "-//W3C//DTD SVG 1.1//EN"
 "http://www.w3.org/Graphics/SVG/1.1/DTD/svg11.dtd">
<!-- Generated by graphviz version 2.43.0 (0)
 -->
<!-- Title: Firmware Update Command Class Pages: 1 -->
<svg width="497pt" height="38pt"
 viewBox="0.00 0.00 497.00 38.00" xmlns="http://www.w3.org/2000/svg" xmlns:xlink="http://www.w3.org/1999/xlink">
<g id="graph0" class="graph" transform="scale(1 1) rotate(0) translate(4 34)">
<title>Firmware Update Command Class</title>
<!-- Node2 -->
<g id="node1" class="node">
<title>Node2</title>
<g id="a_node1"><a xlink:href="group__command__classes.html" target="_top" xlink:title="List of supported and controlled Z&#45;Wave Command Classes.">
<polygon fill="none" stroke="black" points="137,-24.5 0,-24.5 0,-5.5 137,-5.5 137,-24.5"/>
<text text-anchor="middle" x="68.5" y="-12.5" font-family="Helvetica,sans-Serif" font-size="10.00">Z&#45;Wave Command Classes</text>
</a>
</g>
</g>
<!-- Node1 -->
<g id="node2" class="node">
<title>Node1</title>
<g id="a_node2"><a xlink:title="Firmware Update Command Class transfer API functions.">
<polygon fill="#bfbfbf" stroke="black" points="313,-30 173,-30 173,0 313,0 313,-30"/>
<text text-anchor="start" x="181" y="-18" font-family="Helvetica,sans-Serif" font-size="10.00">Firmware Update Command</text>
<text text-anchor="middle" x="243" y="-7" font-family="Helvetica,sans-Serif" font-size="10.00"> Class</text>
</a>
</g>
</g>
<!-- Node2&#45;&gt;Node1 -->
<g id="edge1" class="edge">
<title>Node2&#45;&gt;Node1</title>
<path fill="none" stroke="black" d="M147.43,-15C155.89,-15 164.46,-15 172.81,-15"/>
<polygon fill="black" stroke="black" points="147.18,-11.5 137.18,-15 147.18,-18.5 147.18,-11.5"/>
</g>
<!-- Node3 -->
<g id="node3" class="node">
<title>Node3</title>
<g id="a_node3"><a xlink:href="group__zwave__command__class__firmware__update__internals.html" target="_top" xlink:title="Internal types and definitions for the Firmware Update Command Class.">
<polygon fill="none" stroke="black" points="489,-30 349,-30 349,0 489,0 489,-30"/>
<text text-anchor="start" x="357" y="-18" font-family="Helvetica,sans-Serif" font-size="10.00">Firmware Update Command</text>
<text text-anchor="middle" x="419" y="-7" font-family="Helvetica,sans-Serif" font-size="10.00"> Class internal types</text>
</a>
</g>
</g>
<!-- Node1&#45;&gt;Node3 -->
<g id="edge2" class="edge">
<title>Node1&#45;&gt;Node3</title>
<path fill="none" stroke="black" d="M323.03,-15C331.62,-15 340.32,-15 348.78,-15"/>
<polygon fill="black" stroke="black" points="323.02,-11.5 313.02,-15 323.02,-18.5 323.02,-11.5"/>
</g>
</g>
</svg>
