<?xml version="1.0" encoding="UTF-8" standalone="no"?>
<!DOCTYPE svg PUBLIC "-//W3C//DTD SVG 1.1//EN"
 "http://www.w3.org/Graphics/SVG/1.1/DTD/svg11.dtd">
<!-- Generated by graphviz version 2.43.0 (0)
 -->
<!-- Title: network_management_refresh_cached_ids Pages: 1 -->
<svg width="786pt" height="131pt"
 viewBox="0.00 0.00 786.00 131.00" xmlns="http://www.w3.org/2000/svg" xmlns:xlink="http://www.w3.org/1999/xlink">
<g id="graph0" class="graph" transform="scale(1 1) rotate(0) translate(4 127)">
<title>network_management_refresh_cached_ids</title>
<!-- Node1 -->
<g id="node1" class="node">
<title>Node1</title>
<g id="a_node1"><a xlink:title="Asks the Z&#45;Wave API to tell us our current HomeID and NodeID.">
<polygon fill="#bfbfbf" stroke="black" points="665,-0.5 665,-30.5 778,-30.5 778,-0.5 665,-0.5"/>
<text text-anchor="start" x="673" y="-18.5" font-family="Helvetica,sans-Serif" font-size="10.00">network_management</text>
<text text-anchor="middle" x="721.5" y="-7.5" font-family="Helvetica,sans-Serif" font-size="10.00">_refresh_cached_ids</text>
</a>
</g>
</g>
<!-- Node2 -->
<g id="node2" class="node">
<title>Node2</title>
<g id="a_node2"><a xlink:href="group__zwave__network__management__helpers.html#ga928b8064fa28f0d83d52c176d8dd994b" target="_top" xlink:title="Quick helper function that will refresh all network information (HomeID, NodeID, Node list,...">
<polygon fill="none" stroke="black" points="484,-38.5 484,-68.5 629,-68.5 629,-38.5 484,-38.5"/>
<text text-anchor="start" x="492" y="-56.5" font-family="Helvetica,sans-Serif" font-size="10.00">network_management</text>
<text text-anchor="middle" x="556.5" y="-45.5" font-family="Helvetica,sans-Serif" font-size="10.00">_refresh_network_information</text>
</a>
</g>
</g>
<!-- Node1&#45;&gt;Node2 -->
<g id="edge1" class="edge">
<title>Node1&#45;&gt;Node2</title>
<path fill="none" stroke="midnightblue" d="M654.97,-30.78C644.06,-33.32 632.75,-35.96 621.87,-38.49"/>
<polygon fill="midnightblue" stroke="midnightblue" points="655.92,-34.15 664.86,-28.47 654.33,-27.33 655.92,-34.15"/>
</g>
<!-- Node3 -->
<g id="node3" class="node">
<title>Node3</title>
<g id="a_node3"><a xlink:href="nm__state__machine_8c.html#ac9fe4041f9ca45bad16c9b6ad7bae02f" target="_top" xlink:title=" ">
<polygon fill="none" stroke="black" points="169.5,-22 169.5,-41 274.5,-41 274.5,-22 169.5,-22"/>
<text text-anchor="middle" x="222" y="-29" font-family="Helvetica,sans-Serif" font-size="10.00">nm_fsm_post_event</text>
</a>
</g>
</g>
<!-- Node1&#45;&gt;Node3 -->
<g id="edge9" class="edge">
<title>Node1&#45;&gt;Node3</title>
<path fill="none" stroke="midnightblue" d="M654.79,-11.21C577.24,-7.02 444.47,-2.59 331,-12.5 309.76,-14.35 286.43,-18.22 266.91,-21.99"/>
<polygon fill="midnightblue" stroke="midnightblue" points="654.72,-14.71 664.9,-11.77 655.11,-7.72 654.72,-14.71"/>
</g>
<!-- Node2&#45;&gt;Node3 -->
<g id="edge2" class="edge">
<title>Node2&#45;&gt;Node3</title>
<path fill="none" stroke="midnightblue" d="M473.76,-55.56C431.12,-55.83 378.16,-54.93 331,-50.5 310.06,-48.53 287.07,-44.72 267.71,-41.03"/>
<polygon fill="midnightblue" stroke="midnightblue" points="473.84,-59.06 483.81,-55.47 473.78,-52.06 473.84,-59.06"/>
</g>
<!-- Node5 -->
<g id="node5" class="node">
<title>Node5</title>
<g id="a_node5"><a xlink:href="nm__state__machine_8c.html#a4bedb93fa551c5f612efe78db1642309" target="_top" xlink:title="Initialize the Z&#45;Wave network management state machine.">
<polygon fill="none" stroke="black" points="331,-98 331,-117 448,-117 448,-98 331,-98"/>
<text text-anchor="middle" x="389.5" y="-105" font-family="Helvetica,sans-Serif" font-size="10.00">nm_state_machine_init</text>
</a>
</g>
</g>
<!-- Node2&#45;&gt;Node5 -->
<g id="edge5" class="edge">
<title>Node2&#45;&gt;Node5</title>
<path fill="none" stroke="midnightblue" d="M499.85,-71.71C472.95,-80.52 441.78,-90.72 419.62,-97.97"/>
<polygon fill="midnightblue" stroke="midnightblue" points="501.12,-74.98 509.54,-68.54 498.95,-68.33 501.12,-74.98"/>
</g>
<!-- Node7 -->
<g id="node7" class="node">
<title>Node7</title>
<g id="a_node7"><a xlink:href="nm__state__machine_8c.html#abcdc17538148dcf4141793a866836aae" target="_top" xlink:title="This function is called at the end of a set default or after learnmode.">
<polygon fill="none" stroke="black" points="344.5,-22 344.5,-41 434.5,-41 434.5,-22 344.5,-22"/>
<text text-anchor="middle" x="389.5" y="-29" font-family="Helvetica,sans-Serif" font-size="10.00">on_new_network</text>
</a>
</g>
</g>
<!-- Node2&#45;&gt;Node7 -->
<g id="edge7" class="edge">
<title>Node2&#45;&gt;Node7</title>
<path fill="none" stroke="midnightblue" d="M473.4,-42.55C460.01,-40.77 446.61,-38.98 434.61,-37.38"/>
<polygon fill="midnightblue" stroke="midnightblue" points="473.23,-46.06 483.61,-43.91 474.16,-39.12 473.23,-46.06"/>
</g>
<!-- Node3&#45;&gt;Node3 -->
<g id="edge3" class="edge">
<title>Node3&#45;&gt;Node3</title>
<path fill="none" stroke="midnightblue" d="M252.69,-49.77C251.81,-55.24 241.58,-59.5 222,-59.5 192.85,-59.5 184.43,-50.07 196.72,-41.26"/>
<polygon fill="midnightblue" stroke="midnightblue" points="255.59,-47.82 247.28,-41.26 249.69,-51.57 255.59,-47.82"/>
</g>
<!-- Node4 -->
<g id="node4" class="node">
<title>Node4</title>
<g id="a_node4"><a xlink:href="zwave__network__management__process_8c.html#a59cf655b084839b45cc25e23b3aef04c" target="_top" xlink:title=" ">
<polygon fill="none" stroke="black" points="0,-22 0,-41 113,-41 113,-22 0,-22"/>
<text text-anchor="middle" x="56.5" y="-29" font-family="Helvetica,sans-Serif" font-size="10.00">PROCESS_THREAD</text>
</a>
</g>
</g>
<!-- Node3&#45;&gt;Node4 -->
<g id="edge4" class="edge">
<title>Node3&#45;&gt;Node4</title>
<path fill="none" stroke="midnightblue" d="M159.01,-31.5C143.93,-31.5 127.9,-31.5 113.14,-31.5"/>
<polygon fill="midnightblue" stroke="midnightblue" points="159.27,-35 169.27,-31.5 159.27,-28 159.27,-35"/>
</g>
<!-- Node6 -->
<g id="node6" class="node">
<title>Node6</title>
<g id="a_node6"><a xlink:href="group__zwave__network__management__fixt.html#gaa8950dbf92037e3ec5e0385641176c98" target="_top" xlink:title="Initialize the Z&#45;Wave Network Management Module.">
<polygon fill="none" stroke="black" points="149,-92.5 149,-122.5 295,-122.5 295,-92.5 149,-92.5"/>
<text text-anchor="start" x="157" y="-110.5" font-family="Helvetica,sans-Serif" font-size="10.00">zwave_network_management</text>
<text text-anchor="middle" x="222" y="-99.5" font-family="Helvetica,sans-Serif" font-size="10.00">_fixt_setup</text>
</a>
</g>
</g>
<!-- Node5&#45;&gt;Node6 -->
<g id="edge6" class="edge">
<title>Node5&#45;&gt;Node6</title>
<path fill="none" stroke="midnightblue" d="M320.52,-107.5C312.14,-107.5 303.55,-107.5 295.11,-107.5"/>
<polygon fill="midnightblue" stroke="midnightblue" points="320.62,-111 330.62,-107.5 320.62,-104 320.62,-111"/>
</g>
<!-- Node7&#45;&gt;Node3 -->
<g id="edge8" class="edge">
<title>Node7&#45;&gt;Node3</title>
<path fill="none" stroke="midnightblue" d="M334.07,-31.5C314.9,-31.5 293.43,-31.5 274.51,-31.5"/>
<polygon fill="midnightblue" stroke="midnightblue" points="334.15,-35 344.15,-31.5 334.15,-28 334.15,-35"/>
</g>
</g>
</svg>
