<?xml version="1.0" encoding="UTF-8" standalone="no"?>
<!DOCTYPE svg PUBLIC "-//W3C//DTD SVG 1.1//EN"
 "http://www.w3.org/Graphics/SVG/1.1/DTD/svg11.dtd">
<!-- Generated by graphviz version 2.43.0 (0)
 -->
<!-- Title: Security 2 Transport Pages: 1 -->
<svg width="392pt" height="113pt"
 viewBox="0.00 0.00 392.00 113.00" xmlns="http://www.w3.org/2000/svg" xmlns:xlink="http://www.w3.org/1999/xlink">
<g id="graph0" class="graph" transform="scale(1 1) rotate(0) translate(4 109)">
<title>Security 2 Transport</title>
<!-- Node3 -->
<g id="node1" class="node">
<title>Node3</title>
<g id="a_node1"><a xlink:href="group__zwave__s2__internal.html" target="_top" xlink:title="Internal functions for the S2 component.">
<polygon fill="none" stroke="black" points="383,-105 278,-105 278,-86 383,-86 383,-105"/>
<text text-anchor="middle" x="330.5" y="-93" font-family="Helvetica,sans-Serif" font-size="10.00">Z&#45;Wave S2 internals</text>
</a>
</g>
</g>
<!-- Node4 -->
<g id="node2" class="node">
<title>Node4</title>
<g id="a_node2"><a xlink:href="group__zwave__s2__keystore__internals.html" target="_top" xlink:title="Internal functions for the S2 Keystore.">
<polygon fill="none" stroke="black" points="384,-67.5 277,-67.5 277,-37.5 384,-37.5 384,-67.5"/>
<text text-anchor="start" x="285" y="-55.5" font-family="Helvetica,sans-Serif" font-size="10.00">Z&#45;Wave S2 Keystore</text>
<text text-anchor="middle" x="330.5" y="-44.5" font-family="Helvetica,sans-Serif" font-size="10.00"> internals</text>
</a>
</g>
</g>
<!-- Node5 -->
<g id="node3" class="node">
<title>Node5</title>
<g id="a_node3"><a xlink:href="group__zwave__s2__process.html" target="_top" xlink:title="Z&#45;Wave S2 process functions.">
<polygon fill="none" stroke="black" points="382.5,-19 278.5,-19 278.5,0 382.5,0 382.5,-19"/>
<text text-anchor="middle" x="330.5" y="-7" font-family="Helvetica,sans-Serif" font-size="10.00">Z&#45;Wave S2 Process</text>
</a>
</g>
</g>
<!-- Node1 -->
<g id="node4" class="node">
<title>Node1</title>
<g id="a_node4"><a xlink:title="Transport for Security 2.">
<polygon fill="#bfbfbf" stroke="black" points="241,-62 136,-62 136,-43 241,-43 241,-62"/>
<text text-anchor="middle" x="188.5" y="-50" font-family="Helvetica,sans-Serif" font-size="10.00">Security 2 Transport</text>
</a>
</g>
</g>
<!-- Node1&#45;&gt;Node3 -->
<g id="edge2" class="edge">
<title>Node1&#45;&gt;Node3</title>
<path fill="none" stroke="black" d="M230.22,-65.01C252.01,-71.7 278.42,-79.81 298.52,-85.98"/>
<polygon fill="black" stroke="black" points="231.16,-61.63 220.57,-62.04 229.1,-68.32 231.16,-61.63"/>
</g>
<!-- Node1&#45;&gt;Node4 -->
<g id="edge3" class="edge">
<title>Node1&#45;&gt;Node4</title>
<path fill="none" stroke="black" d="M251.37,-52.5C259.78,-52.5 268.35,-52.5 276.58,-52.5"/>
<polygon fill="black" stroke="black" points="251.23,-49 241.23,-52.5 251.23,-56 251.23,-49"/>
</g>
<!-- Node1&#45;&gt;Node5 -->
<g id="edge4" class="edge">
<title>Node1&#45;&gt;Node5</title>
<path fill="none" stroke="black" d="M230.22,-39.99C252.01,-33.3 278.42,-25.19 298.52,-19.02"/>
<polygon fill="black" stroke="black" points="229.1,-36.68 220.57,-42.96 231.16,-43.37 229.1,-36.68"/>
</g>
<!-- Node2 -->
<g id="node5" class="node">
<title>Node2</title>
<g id="a_node5"><a xlink:href="group__zwave__transports.html" target="_top" xlink:title="Encapsulation/Decapsulation Z&#45;Wave Command Class services.">
<polygon fill="none" stroke="black" points="100,-62 0,-62 0,-43 100,-43 100,-62"/>
<text text-anchor="middle" x="50" y="-50" font-family="Helvetica,sans-Serif" font-size="10.00">Z&#45;Wave Transports</text>
</a>
</g>
</g>
<!-- Node2&#45;&gt;Node1 -->
<g id="edge1" class="edge">
<title>Node2&#45;&gt;Node1</title>
<path fill="none" stroke="black" d="M110.51,-52.5C119,-52.5 127.67,-52.5 135.99,-52.5"/>
<polygon fill="black" stroke="black" points="110.28,-49 100.28,-52.5 110.28,-56 110.28,-49"/>
</g>
</g>
</svg>
