<?xml version="1.0" encoding="UTF-8" standalone="no"?>
<!DOCTYPE svg PUBLIC "-//W3C//DTD SVG 1.1//EN"
 "http://www.w3.org/Graphics/SVG/1.1/DTD/svg11.dtd">
<!-- Generated by graphviz version 2.43.0 (0)
 -->
<!-- Title: zwave_tx_get_nodes Pages: 1 -->
<svg width="741pt" height="186pt"
 viewBox="0.00 0.00 741.00 185.50" xmlns="http://www.w3.org/2000/svg" xmlns:xlink="http://www.w3.org/1999/xlink">
<g id="graph0" class="graph" transform="scale(1 1) rotate(0) translate(4 181.5)">
<title>zwave_tx_get_nodes</title>
<!-- Node1 -->
<g id="node1" class="node">
<title>Node1</title>
<g id="a_node1"><a xlink:title="Returns the list of NodeIDs part of a group.">
<polygon fill="#bfbfbf" stroke="black" points="624,-63.5 624,-82.5 733,-82.5 733,-63.5 624,-63.5"/>
<text text-anchor="middle" x="678.5" y="-70.5" font-family="Helvetica,sans-Serif" font-size="10.00">zwave_tx_get_nodes</text>
</a>
</g>
</g>
<!-- Node2 -->
<g id="node2" class="node">
<title>Node2</title>
<g id="a_node2"><a xlink:href="zwave__s2__transport_8c.html#a09d06c6e68cce5284f0e4388c768ccdc" target="_top" xlink:title="Finds out which keyset to use for S2 transmissions to a Group ID.">
<polygon fill="none" stroke="black" points="472.5,-147 472.5,-177 577.5,-177 577.5,-147 472.5,-147"/>
<text text-anchor="start" x="480.5" y="-165" font-family="Helvetica,sans-Serif" font-size="10.00">get_s2_keyset_from</text>
<text text-anchor="middle" x="525" y="-154" font-family="Helvetica,sans-Serif" font-size="10.00">_group</text>
</a>
</g>
</g>
<!-- Node1&#45;&gt;Node2 -->
<g id="edge1" class="edge">
<title>Node1&#45;&gt;Node2</title>
<path fill="none" stroke="midnightblue" d="M658.51,-89.04C641.02,-103.25 613.94,-123.87 588,-138 582.12,-141.2 575.72,-144.19 569.34,-146.88"/>
<polygon fill="midnightblue" stroke="midnightblue" points="660.78,-91.7 666.27,-82.64 656.33,-86.3 660.78,-91.7"/>
</g>
<!-- Node6 -->
<g id="node6" class="node">
<title>Node6</title>
<g id="a_node6"><a xlink:href="multicast__follow__ups__transport_8c.html#af78062dfc8f1abab4d7bdba9a42935fb" target="_top" xlink:title=" ">
<polygon fill="none" stroke="black" points="466.5,-80 466.5,-110 583.5,-110 583.5,-80 466.5,-80"/>
<text text-anchor="start" x="474.5" y="-98" font-family="Helvetica,sans-Serif" font-size="10.00">on_multicast_message</text>
<text text-anchor="middle" x="525" y="-87" font-family="Helvetica,sans-Serif" font-size="10.00">_send_complete</text>
</a>
</g>
</g>
<!-- Node1&#45;&gt;Node6 -->
<g id="edge5" class="edge">
<title>Node1&#45;&gt;Node6</title>
<path fill="none" stroke="midnightblue" d="M613.75,-82.26C603.72,-83.71 593.4,-85.21 583.52,-86.65"/>
<polygon fill="midnightblue" stroke="midnightblue" points="614.27,-85.72 623.66,-80.82 613.26,-78.79 614.27,-85.72"/>
</g>
<!-- Node10 -->
<g id="node10" class="node">
<title>Node10</title>
<g id="a_node10"><a xlink:href="network__monitor__span__persistence_8c.html#a1cc4de64d758d45902a82f4f37e14f6f" target="_top" xlink:title="Saves a Multicast Group under each nodeID that are part of that group.">
<polygon fill="none" stroke="black" points="462,-41.5 462,-60.5 588,-60.5 588,-41.5 462,-41.5"/>
<text text-anchor="middle" x="525" y="-48.5" font-family="Helvetica,sans-Serif" font-size="10.00">store_group_membership</text>
</a>
</g>
</g>
<!-- Node1&#45;&gt;Node10 -->
<g id="edge10" class="edge">
<title>Node1&#45;&gt;Node10</title>
<path fill="none" stroke="midnightblue" d="M613.55,-63.71C605.15,-62.49 596.56,-61.25 588.2,-60.03"/>
<polygon fill="midnightblue" stroke="midnightblue" points="613.26,-67.21 623.66,-65.18 614.27,-60.28 613.26,-67.21"/>
</g>
<!-- Node12 -->
<g id="node12" class="node">
<title>Node12</title>
<g id="a_node12"><a xlink:href="zwave__api__transport_8c.html#a825851abed8977dfab0e305f7ae30610" target="_top" xlink:title="Encapsulates with Multi Channel and send a frame to the Z&#45;Wave TX queue.">
<polygon fill="none" stroke="black" points="468.5,-0.5 468.5,-19.5 581.5,-19.5 581.5,-0.5 468.5,-0.5"/>
<text text-anchor="middle" x="525" y="-7.5" font-family="Helvetica,sans-Serif" font-size="10.00">zwave_api_send_data</text>
</a>
</g>
</g>
<!-- Node1&#45;&gt;Node12 -->
<g id="edge12" class="edge">
<title>Node1&#45;&gt;Node12</title>
<path fill="none" stroke="midnightblue" d="M648.74,-59.04C631.33,-50.78 608.58,-40.35 588,-32 577.2,-27.62 565.17,-23.24 554.6,-19.55"/>
<polygon fill="midnightblue" stroke="midnightblue" points="647.28,-62.22 657.81,-63.37 650.3,-55.9 647.28,-62.22"/>
</g>
<!-- Node3 -->
<g id="node3" class="node">
<title>Node3</title>
<g id="a_node3"><a xlink:href="group__zwave__s2__internal.html#ga3ed55d2315fdd494c0e209f5e31986f9" target="_top" xlink:title="Sending an S2 encapsulated frame.">
<polygon fill="none" stroke="black" points="312.5,-152.5 312.5,-171.5 423.5,-171.5 423.5,-152.5 312.5,-152.5"/>
<text text-anchor="middle" x="368" y="-159.5" font-family="Helvetica,sans-Serif" font-size="10.00">zwave_s2_send_data</text>
</a>
</g>
</g>
<!-- Node2&#45;&gt;Node3 -->
<g id="edge2" class="edge">
<title>Node2&#45;&gt;Node3</title>
<path fill="none" stroke="midnightblue" d="M462.28,-162C449.49,-162 436.09,-162 423.58,-162"/>
<polygon fill="midnightblue" stroke="midnightblue" points="462.39,-165.5 472.39,-162 462.39,-158.5 462.39,-165.5"/>
</g>
<!-- Node4 -->
<g id="node4" class="node">
<title>Node4</title>
<g id="a_node4"><a xlink:href="zwave__s2__process_8c.html#a51f51bd8129a84a685510bf2aaa812a9" target="_top" xlink:title=" ">
<polygon fill="none" stroke="black" points="172,-152.5 172,-171.5 251,-171.5 251,-152.5 172,-152.5"/>
<text text-anchor="middle" x="211.5" y="-159.5" font-family="Helvetica,sans-Serif" font-size="10.00">zwave_s2_init</text>
</a>
</g>
</g>
<!-- Node3&#45;&gt;Node4 -->
<g id="edge3" class="edge">
<title>Node3&#45;&gt;Node4</title>
<path fill="none" stroke="midnightblue" d="M302.04,-162C284.75,-162 266.62,-162 251.23,-162"/>
<polygon fill="midnightblue" stroke="midnightblue" points="302.09,-165.5 312.09,-162 302.09,-158.5 302.09,-165.5"/>
</g>
<!-- Node5 -->
<g id="node5" class="node">
<title>Node5</title>
<g id="a_node5"><a xlink:href="zwave__s2__process_8c.html#afac04df3afbbd6765ef8bc3841257d47" target="_top" xlink:title=" ">
<polygon fill="none" stroke="black" points="0,-152.5 0,-171.5 113,-171.5 113,-152.5 0,-152.5"/>
<text text-anchor="middle" x="56.5" y="-159.5" font-family="Helvetica,sans-Serif" font-size="10.00">PROCESS_THREAD</text>
</a>
</g>
</g>
<!-- Node4&#45;&gt;Node5 -->
<g id="edge4" class="edge">
<title>Node4&#45;&gt;Node5</title>
<path fill="none" stroke="midnightblue" d="M161.53,-162C146.12,-162 128.99,-162 113.15,-162"/>
<polygon fill="midnightblue" stroke="midnightblue" points="161.89,-165.5 171.89,-162 161.89,-158.5 161.89,-165.5"/>
</g>
<!-- Node6&#45;&gt;Node6 -->
<g id="edge9" class="edge">
<title>Node6&#45;&gt;Node6</title>
<path fill="none" stroke="midnightblue" d="M552.01,-120.46C548.66,-125.18 539.65,-128.5 525,-128.5 500.95,-128.5 492.12,-119.56 498.51,-110.16"/>
<polygon fill="midnightblue" stroke="midnightblue" points="555.49,-119.97 551.49,-110.16 548.5,-120.32 555.49,-119.97"/>
</g>
<!-- Node7 -->
<g id="node7" class="node">
<title>Node7</title>
<g id="a_node7"><a xlink:href="multicast__follow__ups__transport_8c.html#ad20e0ce7d5da14af7d8b379f42845af8" target="_top" xlink:title="Verifies if we want automatic singlecast follow&#45;up for a frame and schedule queueing these frames aut...">
<polygon fill="none" stroke="black" points="314,-85 314,-115 422,-115 422,-85 314,-85"/>
<text text-anchor="start" x="322" y="-103" font-family="Helvetica,sans-Serif" font-size="10.00">multicast_follow_ups</text>
<text text-anchor="middle" x="368" y="-92" font-family="Helvetica,sans-Serif" font-size="10.00">_send_data</text>
</a>
</g>
</g>
<!-- Node6&#45;&gt;Node7 -->
<g id="edge6" class="edge">
<title>Node6&#45;&gt;Node7</title>
<path fill="none" stroke="midnightblue" d="M455.98,-97.19C444.65,-97.56 433.04,-97.93 422.15,-98.29"/>
<polygon fill="midnightblue" stroke="midnightblue" points="456.4,-100.68 466.28,-96.86 456.18,-93.69 456.4,-100.68"/>
</g>
<!-- Node8 -->
<g id="node8" class="node">
<title>Node8</title>
<g id="a_node8"><a xlink:href="group__multicast__follow__up__transport.html#gaa29ae9f5d8ccc34d50cad0109e69411b" target="_top" xlink:title="Initialize the Multicast Follow&#45;Ups Transport *.">
<polygon fill="none" stroke="black" points="157.5,-73 157.5,-103 265.5,-103 265.5,-73 157.5,-73"/>
<text text-anchor="start" x="165.5" y="-91" font-family="Helvetica,sans-Serif" font-size="10.00">multicast_follow_ups</text>
<text text-anchor="middle" x="211.5" y="-80" font-family="Helvetica,sans-Serif" font-size="10.00">_transport_init</text>
</a>
</g>
</g>
<!-- Node7&#45;&gt;Node8 -->
<g id="edge7" class="edge">
<title>Node7&#45;&gt;Node8</title>
<path fill="none" stroke="midnightblue" d="M303.78,-95.09C291.06,-94.1 277.83,-93.07 265.51,-92.12"/>
<polygon fill="midnightblue" stroke="midnightblue" points="303.59,-98.59 313.83,-95.87 304.13,-91.61 303.59,-98.59"/>
</g>
<!-- Node9 -->
<g id="node9" class="node">
<title>Node9</title>
<g id="a_node9"><a xlink:href="group__zwave__transports__fixt.html#ga26fb2571e272a5094bd0320eca3a896d" target="_top" xlink:title="Setup fixture for Z&#45;Wave Transports.">
<polygon fill="none" stroke="black" points="0.5,-56.5 0.5,-75.5 112.5,-75.5 112.5,-56.5 0.5,-56.5"/>
<text text-anchor="middle" x="56.5" y="-63.5" font-family="Helvetica,sans-Serif" font-size="10.00">zwave_transports_init</text>
</a>
</g>
</g>
<!-- Node8&#45;&gt;Node9 -->
<g id="edge8" class="edge">
<title>Node8&#45;&gt;Node9</title>
<path fill="none" stroke="midnightblue" d="M147.4,-78.93C135.84,-77.26 123.87,-75.54 112.57,-73.92"/>
<polygon fill="midnightblue" stroke="midnightblue" points="147.02,-82.41 157.42,-80.37 148.02,-75.48 147.02,-82.41"/>
</g>
<!-- Node11 -->
<g id="node11" class="node">
<title>Node11</title>
<g id="a_node11"><a xlink:href="group__network__monitor__span__persistence.html#ga55123adecc9117e5326b583f8db189e6" target="_top" xlink:title="Saves all the MPAN data owned by the ZPC from Z&#45;Wave S2 in the Attribute Store.">
<polygon fill="none" stroke="black" points="310,-36 310,-66 426,-66 426,-36 310,-36"/>
<text text-anchor="start" x="318" y="-54" font-family="Helvetica,sans-Serif" font-size="10.00">network_monitor_store</text>
<text text-anchor="middle" x="368" y="-43" font-family="Helvetica,sans-Serif" font-size="10.00">_mpan_table_data</text>
</a>
</g>
</g>
<!-- Node10&#45;&gt;Node11 -->
<g id="edge11" class="edge">
<title>Node10&#45;&gt;Node11</title>
<path fill="none" stroke="midnightblue" d="M451.81,-51C443.2,-51 434.5,-51 426.15,-51"/>
<polygon fill="midnightblue" stroke="midnightblue" points="451.85,-54.5 461.85,-51 451.85,-47.5 451.85,-54.5"/>
</g>
<!-- Node13 -->
<g id="node13" class="node">
<title>Node13</title>
<g id="a_node13"><a xlink:href="group__zwave__api__transport.html#ga0b879fc413b5e3faaf848287f0d36d22" target="_top" xlink:title="Initialize the Z&#45;Wave API Transport *.">
<polygon fill="none" stroke="black" points="149,-10.5 149,-29.5 274,-29.5 274,-10.5 149,-10.5"/>
<text text-anchor="middle" x="211.5" y="-17.5" font-family="Helvetica,sans-Serif" font-size="10.00">zwave_api_transport_init</text>
</a>
</g>
</g>
<!-- Node12&#45;&gt;Node13 -->
<g id="edge13" class="edge">
<title>Node12&#45;&gt;Node13</title>
<path fill="none" stroke="midnightblue" d="M458.09,-12.12C403.75,-13.86 327.24,-16.32 274.11,-18.02"/>
<polygon fill="midnightblue" stroke="midnightblue" points="458.43,-15.61 468.31,-11.79 458.2,-8.61 458.43,-15.61"/>
</g>
<!-- Node13&#45;&gt;Node9 -->
<g id="edge14" class="edge">
<title>Node13&#45;&gt;Node9</title>
<path fill="none" stroke="midnightblue" d="M169.15,-32.43C143.99,-40 112.33,-49.51 89.16,-56.48"/>
<polygon fill="midnightblue" stroke="midnightblue" points="170.23,-35.76 178.8,-29.53 168.21,-29.06 170.23,-35.76"/>
</g>
</g>
</svg>
