<?xml version="1.0" encoding="UTF-8" standalone="no"?>
<!DOCTYPE svg PUBLIC "-//W3C//DTD SVG 1.1//EN"
 "http://www.w3.org/Graphics/SVG/1.1/DTD/svg11.dtd">
<!-- Generated by graphviz version 2.43.0 (0)
 -->
<!-- Title: zwave_get_wake_up_interval Pages: 1 -->
<svg width="815pt" height="100pt"
 viewBox="0.00 0.00 815.00 99.50" xmlns="http://www.w3.org/2000/svg" xmlns:xlink="http://www.w3.org/1999/xlink">
<g id="graph0" class="graph" transform="scale(1 1) rotate(0) translate(4 95.5)">
<title>zwave_get_wake_up_interval</title>
<!-- Node1 -->
<g id="node1" class="node">
<title>Node1</title>
<g id="a_node1"><a xlink:title="Navigates the attribute store to find out what is the Wake Up Interval of a node.">
<polygon fill="#bfbfbf" stroke="black" points="0,-22.5 0,-41.5 145,-41.5 145,-22.5 0,-22.5"/>
<text text-anchor="middle" x="72.5" y="-29.5" font-family="Helvetica,sans-Serif" font-size="10.00">zwave_get_wake_up_interval</text>
</a>
</g>
</g>
<!-- Node2 -->
<g id="node2" class="node">
<title>Node2</title>
<g id="a_node2"><a xlink:href="group__zpc__attribute__store__network__helpers.html#ga7a3f40a9cbc90f2674b9e9e454fd6207" target="_top" xlink:title="Take a Z&#45;Wave NodeID and return its Attribute Store node representing the NodeID.">
<polygon fill="none" stroke="black" points="181,-11.5 181,-52.5 308,-52.5 308,-11.5 181,-11.5"/>
<text text-anchor="start" x="189" y="-40.5" font-family="Helvetica,sans-Serif" font-size="10.00">attribute_store_network</text>
<text text-anchor="start" x="189" y="-29.5" font-family="Helvetica,sans-Serif" font-size="10.00">_helper_get_zwave_node</text>
<text text-anchor="middle" x="244.5" y="-18.5" font-family="Helvetica,sans-Serif" font-size="10.00">_id_node</text>
</a>
</g>
</g>
<!-- Node1&#45;&gt;Node2 -->
<g id="edge1" class="edge">
<title>Node1&#45;&gt;Node2</title>
<path fill="none" stroke="midnightblue" d="M145.1,-32C153.55,-32 162.19,-32 170.65,-32"/>
<polygon fill="midnightblue" stroke="midnightblue" points="170.88,-35.5 180.88,-32 170.88,-28.5 170.88,-35.5"/>
</g>
<!-- Node3 -->
<g id="node3" class="node">
<title>Node3</title>
<g id="a_node3"><a xlink:href="group__zpc__attribute__store__network__helpers.html#gafb993ff484b3c826743c4695d6659cf0" target="_top" xlink:title="Take a UNID and return its attribute store node representing the NodeID.">
<polygon fill="none" stroke="black" points="344,-39 344,-69 476,-69 476,-39 344,-39"/>
<text text-anchor="start" x="352" y="-57" font-family="Helvetica,sans-Serif" font-size="10.00">attribute_store_network</text>
<text text-anchor="middle" x="410" y="-46" font-family="Helvetica,sans-Serif" font-size="10.00">_helper_get_node_id_node</text>
</a>
</g>
</g>
<!-- Node2&#45;&gt;Node3 -->
<g id="edge2" class="edge">
<title>Node2&#45;&gt;Node3</title>
<path fill="none" stroke="midnightblue" d="M308.25,-40.44C316.66,-41.58 325.36,-42.75 333.96,-43.9"/>
<polygon fill="midnightblue" stroke="midnightblue" points="333.61,-47.39 343.98,-45.25 334.54,-40.45 333.61,-47.39"/>
</g>
<!-- Node7 -->
<g id="node7" class="node">
<title>Node7</title>
<g id="a_node7"><a xlink:href="group__zwave__unid.html#ga421deceb8a12916f049e4f3446774439" target="_top" xlink:title="Form a UNID.">
<polygon fill="none" stroke="black" points="344,-0.5 344,-19.5 476,-19.5 476,-0.5 344,-0.5"/>
<text text-anchor="middle" x="410" y="-7.5" font-family="Helvetica,sans-Serif" font-size="10.00">zwave_unid_from_node_id</text>
</a>
</g>
</g>
<!-- Node2&#45;&gt;Node7 -->
<g id="edge6" class="edge">
<title>Node2&#45;&gt;Node7</title>
<path fill="none" stroke="midnightblue" d="M308.25,-23.56C316.66,-22.42 325.36,-21.25 333.96,-20.1"/>
<polygon fill="midnightblue" stroke="midnightblue" points="334.54,-23.55 343.98,-18.75 333.61,-16.61 334.54,-23.55"/>
</g>
<!-- Node4 -->
<g id="node4" class="node">
<title>Node4</title>
<g id="a_node4"><a xlink:href="group__zpc__attribute__store__network__helpers.html#ga05cb572c96f7dc8e6657f86e135fafed" target="_top" xlink:title="Take a UNID and return its attribute store node representing the HomeID.">
<polygon fill="none" stroke="black" points="512,-61 512,-91 647,-91 647,-61 512,-61"/>
<text text-anchor="start" x="520" y="-79" font-family="Helvetica,sans-Serif" font-size="10.00">attribute_store_network</text>
<text text-anchor="middle" x="579.5" y="-68" font-family="Helvetica,sans-Serif" font-size="10.00">_helper_get_home_id_node</text>
</a>
</g>
</g>
<!-- Node3&#45;&gt;Node4 -->
<g id="edge3" class="edge">
<title>Node3&#45;&gt;Node4</title>
<path fill="none" stroke="midnightblue" d="M476.24,-62.57C484.62,-63.67 493.27,-64.81 501.82,-65.93"/>
<polygon fill="midnightblue" stroke="midnightblue" points="501.41,-69.4 511.78,-67.24 502.32,-62.46 501.41,-69.4"/>
</g>
<!-- Node6 -->
<g id="node6" class="node">
<title>Node6</title>
<g id="a_node6"><a xlink:href="group__zwave__unid.html#ga76885767debd174e96e6df00b0a368c3" target="_top" xlink:title="Convert a UNID to a node ID.">
<polygon fill="none" stroke="black" points="519,-22.5 519,-41.5 640,-41.5 640,-22.5 519,-22.5"/>
<text text-anchor="middle" x="579.5" y="-29.5" font-family="Helvetica,sans-Serif" font-size="10.00">zwave_unid_to_node_id</text>
</a>
</g>
</g>
<!-- Node3&#45;&gt;Node6 -->
<g id="edge5" class="edge">
<title>Node3&#45;&gt;Node6</title>
<path fill="none" stroke="midnightblue" d="M476.24,-45.43C486.89,-44.03 497.96,-42.58 508.72,-41.17"/>
<polygon fill="midnightblue" stroke="midnightblue" points="509.45,-44.6 518.91,-39.83 508.54,-37.66 509.45,-44.6"/>
</g>
<!-- Node5 -->
<g id="node5" class="node">
<title>Node5</title>
<g id="a_node5"><a xlink:href="group__zwave__unid.html#ga92f9808a08c2ce1c0a6a9dc2debf3580" target="_top" xlink:title="Convert a UNID to a Home ID.">
<polygon fill="none" stroke="black" points="683,-66.5 683,-85.5 807,-85.5 807,-66.5 683,-66.5"/>
<text text-anchor="middle" x="745" y="-73.5" font-family="Helvetica,sans-Serif" font-size="10.00">zwave_unid_to_home_id</text>
</a>
</g>
</g>
<!-- Node4&#45;&gt;Node5 -->
<g id="edge4" class="edge">
<title>Node4&#45;&gt;Node5</title>
<path fill="none" stroke="midnightblue" d="M647,-76C655.42,-76 664.07,-76 672.57,-76"/>
<polygon fill="midnightblue" stroke="midnightblue" points="672.83,-79.5 682.83,-76 672.83,-72.5 672.83,-79.5"/>
</g>
</g>
</svg>
