<?xml version="1.0" encoding="UTF-8" standalone="no"?>
<!DOCTYPE svg PUBLIC "-//W3C//DTD SVG 1.1//EN"
 "http://www.w3.org/Graphics/SVG/1.1/DTD/svg11.dtd">
<!-- Generated by graphviz version 2.43.0 (0)
 -->
<!-- Title: Transport API Pages: 1 -->
<svg width="343pt" height="38pt"
 viewBox="0.00 0.00 343.00 38.00" xmlns="http://www.w3.org/2000/svg" xmlns:xlink="http://www.w3.org/1999/xlink">
<g id="graph0" class="graph" transform="scale(1 1) rotate(0) translate(4 34)">
<title>Transport API</title>
<!-- Node1 -->
<g id="node1" class="node">
<title>Node1</title>
<g id="a_node1"><a xlink:title="Functions used to send data to Z&#45;Wave nodes.">
<polygon fill="#bfbfbf" stroke="black" points="182,-24.5 105,-24.5 105,-5.5 182,-5.5 182,-24.5"/>
<text text-anchor="middle" x="143.5" y="-12.5" font-family="Helvetica,sans-Serif" font-size="10.00">Transport API</text>
</a>
</g>
</g>
<!-- Node3 -->
<g id="node2" class="node">
<title>Node3</title>
<g id="a_node2"><a xlink:href="group__zwapi__transmit__complete__codes.html" target="_top" xlink:title=" ">
<polygon fill="none" stroke="black" points="335,-30 218,-30 218,0 335,0 335,-30"/>
<text text-anchor="start" x="226" y="-18" font-family="Helvetica,sans-Serif" font-size="10.00">Z&#45;Wave API send_data</text>
<text text-anchor="middle" x="276.5" y="-7" font-family="Helvetica,sans-Serif" font-size="10.00"> return codes</text>
</a>
</g>
</g>
<!-- Node1&#45;&gt;Node3 -->
<g id="edge2" class="edge">
<title>Node1&#45;&gt;Node3</title>
<path fill="none" stroke="black" d="M192.31,-15C200.64,-15 209.37,-15 217.92,-15"/>
<polygon fill="black" stroke="black" points="192.04,-11.5 182.04,-15 192.04,-18.5 192.04,-11.5"/>
</g>
<!-- Node2 -->
<g id="node3" class="node">
<title>Node2</title>
<g id="a_node3"><a xlink:href="group__zwave__api.html" target="_top" xlink:title="Access to the serial API of a Z&#45;Wave module.">
<polygon fill="none" stroke="black" points="69,-24.5 0,-24.5 0,-5.5 69,-5.5 69,-24.5"/>
<text text-anchor="middle" x="34.5" y="-12.5" font-family="Helvetica,sans-Serif" font-size="10.00">Z&#45;Wave API</text>
</a>
</g>
</g>
<!-- Node2&#45;&gt;Node1 -->
<g id="edge1" class="edge">
<title>Node2&#45;&gt;Node1</title>
<path fill="none" stroke="black" d="M79.24,-15C87.77,-15 96.65,-15 104.96,-15"/>
<polygon fill="black" stroke="black" points="79.06,-11.5 69.06,-15 79.06,-18.5 79.06,-11.5"/>
</g>
</g>
</svg>
