<?xml version="1.0" encoding="UTF-8" standalone="no"?>
<!DOCTYPE svg PUBLIC "-//W3C//DTD SVG 1.1//EN"
 "http://www.w3.org/Graphics/SVG/1.1/DTD/svg11.dtd">
<!-- Generated by graphviz version 2.43.0 (0)
 -->
<!-- Title: is_command_in_array Pages: 1 -->
<svg width="777pt" height="39pt"
 viewBox="0.00 0.00 777.00 39.00" xmlns="http://www.w3.org/2000/svg" xmlns:xlink="http://www.w3.org/1999/xlink">
<g id="graph0" class="graph" transform="scale(1 1) rotate(0) translate(4 35)">
<title>is_command_in_array</title>
<!-- Node1 -->
<g id="node1" class="node">
<title>Node1</title>
<g id="a_node1"><a xlink:title="Searches if a Command Class/Command pair is in a byte array of Command class/command pairs.">
<polygon fill="#bfbfbf" stroke="black" points="657,-6 657,-25 769,-25 769,-6 657,-6"/>
<text text-anchor="middle" x="713" y="-13" font-family="Helvetica,sans-Serif" font-size="10.00">is_command_in_array</text>
</a>
</g>
</g>
<!-- Node2 -->
<g id="node2" class="node">
<title>Node2</title>
<g id="a_node2"><a xlink:href="binding__cluster__mapper_8c.html#ae4e4c1cd4e64b12304508cb8be9a2833" target="_top" xlink:title="Publishes the Supported Generated Commands based on AGI data for an Endpoint.">
<polygon fill="none" stroke="black" points="478,-0.5 478,-30.5 621,-30.5 621,-0.5 478,-0.5"/>
<text text-anchor="start" x="486" y="-18.5" font-family="Helvetica,sans-Serif" font-size="10.00">publish_supported_generated</text>
<text text-anchor="middle" x="549.5" y="-7.5" font-family="Helvetica,sans-Serif" font-size="10.00">_commands</text>
</a>
</g>
</g>
<!-- Node1&#45;&gt;Node2 -->
<g id="edge1" class="edge">
<title>Node1&#45;&gt;Node2</title>
<path fill="none" stroke="midnightblue" d="M646.72,-15.5C638.28,-15.5 629.61,-15.5 621.08,-15.5"/>
<polygon fill="midnightblue" stroke="midnightblue" points="646.87,-19 656.87,-15.5 646.87,-12 646.87,-19"/>
</g>
<!-- Node3 -->
<g id="node3" class="node">
<title>Node3</title>
<g id="a_node3"><a xlink:href="binding__cluster__mapper_8c.html#ac3ce6c9081329e81d4c7fbf956a8bf60" target="_top" xlink:title="Publishes the supported Generated commands when the network status is moved to online functional.">
<polygon fill="none" stroke="black" points="308,-6 308,-25 442,-25 442,-6 308,-6"/>
<text text-anchor="middle" x="375" y="-13" font-family="Helvetica,sans-Serif" font-size="10.00">on_network_status_update</text>
</a>
</g>
</g>
<!-- Node2&#45;&gt;Node3 -->
<g id="edge2" class="edge">
<title>Node2&#45;&gt;Node3</title>
<path fill="none" stroke="midnightblue" d="M467.79,-15.5C459.19,-15.5 450.51,-15.5 442.11,-15.5"/>
<polygon fill="midnightblue" stroke="midnightblue" points="467.84,-19 477.84,-15.5 467.84,-12 467.84,-19"/>
</g>
<!-- Node4 -->
<g id="node4" class="node">
<title>Node4</title>
<g id="a_node4"><a xlink:href="group__binding__cluster__mapper.html#ga5611c9657d18a729af17e2c73297f6ef" target="_top" xlink:title="Initializes the Binding cluster mapper.">
<polygon fill="none" stroke="black" points="135,-6 135,-25 272,-25 272,-6 135,-6"/>
<text text-anchor="middle" x="203.5" y="-13" font-family="Helvetica,sans-Serif" font-size="10.00">binding_cluster_mapper_init</text>
</a>
</g>
</g>
<!-- Node3&#45;&gt;Node4 -->
<g id="edge3" class="edge">
<title>Node3&#45;&gt;Node4</title>
<path fill="none" stroke="midnightblue" d="M297.92,-15.5C289.29,-15.5 280.53,-15.5 272.01,-15.5"/>
<polygon fill="midnightblue" stroke="midnightblue" points="297.98,-19 307.98,-15.5 297.98,-12 297.98,-19"/>
</g>
<!-- Node5 -->
<g id="node5" class="node">
<title>Node5</title>
<g id="a_node5"><a xlink:href="group__dotdot__mapper.html#gade4f574e9bce9945ba630a42b0bcc3c5" target="_top" xlink:title="Initialize all known cluster mappers.">
<polygon fill="none" stroke="black" points="0,-6 0,-25 99,-25 99,-6 0,-6"/>
<text text-anchor="middle" x="49.5" y="-13" font-family="Helvetica,sans-Serif" font-size="10.00">dotdot_mapper_init</text>
</a>
</g>
</g>
<!-- Node4&#45;&gt;Node5 -->
<g id="edge4" class="edge">
<title>Node4&#45;&gt;Node5</title>
<path fill="none" stroke="midnightblue" d="M124.74,-15.5C116.03,-15.5 107.35,-15.5 99.16,-15.5"/>
<polygon fill="midnightblue" stroke="midnightblue" points="124.95,-19 134.95,-15.5 124.95,-12 124.95,-19"/>
</g>
</g>
</svg>
