<?xml version="1.0" encoding="UTF-8" standalone="no"?>
<!DOCTYPE svg PUBLIC "-//W3C//DTD SVG 1.1//EN"
 "http://www.w3.org/Graphics/SVG/1.1/DTD/svg11.dtd">
<!-- Generated by graphviz version 2.43.0 (0)
 -->
<!-- Title: zwave_command_class_wake_up_init Pages: 1 -->
<svg width="1701pt" height="706pt"
 viewBox="0.00 0.00 1701.00 706.00" xmlns="http://www.w3.org/2000/svg" xmlns:xlink="http://www.w3.org/1999/xlink">
<g id="graph0" class="graph" transform="scale(1 1) rotate(0) translate(4 702)">
<title>zwave_command_class_wake_up_init</title>
<!-- Node1 -->
<g id="node1" class="node">
<title>Node1</title>
<g id="a_node1"><a xlink:title="Initializes the Wake Up Command Class handler.">
<polygon fill="#bfbfbf" stroke="black" points="0,-180.5 0,-210.5 122,-210.5 122,-180.5 0,-180.5"/>
<text text-anchor="start" x="8" y="-198.5" font-family="Helvetica,sans-Serif" font-size="10.00">zwave_command_class</text>
<text text-anchor="middle" x="61" y="-187.5" font-family="Helvetica,sans-Serif" font-size="10.00">_wake_up_init</text>
</a>
</g>
</g>
<!-- Node2 -->
<g id="node2" class="node">
<title>Node2</title>
<g id="a_node2"><a xlink:href="zwave__command__class__wake__up_8c.html#af927fc2e0ebd3d6502c5167a6e8c6e27" target="_top" xlink:title="Verifies if we are resolving capabilities, and if yes, set a resolutio listener to set the Wake Up In...">
<polygon fill="none" stroke="black" points="162,-418.5 162,-448.5 284,-448.5 284,-418.5 162,-418.5"/>
<text text-anchor="start" x="170" y="-436.5" font-family="Helvetica,sans-Serif" font-size="10.00">on_capabilities_attribute</text>
<text text-anchor="middle" x="223" y="-425.5" font-family="Helvetica,sans-Serif" font-size="10.00">_update</text>
</a>
</g>
</g>
<!-- Node1&#45;&gt;Node2 -->
<g id="edge1" class="edge">
<title>Node1&#45;&gt;Node2</title>
<path fill="none" stroke="midnightblue" d="M68.76,-210.55C82.97,-241.47 118,-313.72 158,-367.5 169.68,-383.2 184.84,-398.99 197.48,-411.19"/>
<polygon fill="midnightblue" stroke="midnightblue" points="195.3,-413.95 204.97,-418.29 200.12,-408.87 195.3,-413.95"/>
</g>
<!-- Node21 -->
<g id="node21" class="node">
<title>Node21</title>
<g id="a_node21"><a xlink:href="zwave__command__class__wake__up_8c.html#ae5ff8372dbe888c88db63f4ba9198fa2" target="_top" xlink:title="Verifies if either NodeID / Wake Up interval settings have changed and need resolution in this case,...">
<polygon fill="none" stroke="black" points="341,-78.5 341,-108.5 449,-108.5 449,-78.5 341,-78.5"/>
<text text-anchor="start" x="349" y="-96.5" font-family="Helvetica,sans-Serif" font-size="10.00">on_desired_wake_up</text>
<text text-anchor="middle" x="395" y="-85.5" font-family="Helvetica,sans-Serif" font-size="10.00">_setting_update</text>
</a>
</g>
</g>
<!-- Node1&#45;&gt;Node21 -->
<g id="edge23" class="edge">
<title>Node1&#45;&gt;Node21</title>
<path fill="none" stroke="midnightblue" d="M93.97,-180.41C112.42,-172.07 136.21,-161.92 158,-154.5 215.59,-134.88 282.93,-118.06 330.91,-107.08"/>
<polygon fill="midnightblue" stroke="midnightblue" points="331.86,-110.45 340.84,-104.83 330.31,-103.63 331.86,-110.45"/>
</g>
<!-- Node23 -->
<g id="node23" class="node">
<title>Node23</title>
<g id="a_node23"><a xlink:href="zwave__command__class__wake__up_8c.html#ad2c55aec9b04c76f33eaf024aee36881" target="_top" xlink:title=" ">
<polygon fill="none" stroke="black" points="343,-269.5 343,-299.5 447,-299.5 447,-269.5 343,-269.5"/>
<text text-anchor="start" x="351" y="-287.5" font-family="Helvetica,sans-Serif" font-size="10.00">on_version_attribute</text>
<text text-anchor="middle" x="395" y="-276.5" font-family="Helvetica,sans-Serif" font-size="10.00">_update</text>
</a>
</g>
</g>
<!-- Node1&#45;&gt;Node23 -->
<g id="edge25" class="edge">
<title>Node1&#45;&gt;Node23</title>
<path fill="none" stroke="midnightblue" d="M71.53,-210.66C86.66,-233.1 118.53,-274.27 158,-290.5 213.85,-313.46 283.6,-308.01 332.74,-299.23"/>
<polygon fill="midnightblue" stroke="midnightblue" points="333.41,-302.67 342.59,-297.38 332.11,-295.79 333.41,-302.67"/>
</g>
<!-- Node34 -->
<g id="node34" class="node">
<title>Node34</title>
<g id="a_node34"><a xlink:href="zwave__command__class__wake__up_8c.html#ad7709e1f938934fc7dcec1aa5b487b76" target="_top" xlink:title=" ">
<polygon fill="none" stroke="black" points="167,-251.5 167,-281.5 279,-281.5 279,-251.5 167,-251.5"/>
<text text-anchor="start" x="175" y="-269.5" font-family="Helvetica,sans-Serif" font-size="10.00">on_wake_up_setting</text>
<text text-anchor="middle" x="223" y="-258.5" font-family="Helvetica,sans-Serif" font-size="10.00">_send_data_complete</text>
</a>
</g>
</g>
<!-- Node1&#45;&gt;Node34 -->
<g id="edge38" class="edge">
<title>Node1&#45;&gt;Node34</title>
<path fill="none" stroke="midnightblue" d="M92,-210.58C110.8,-219.86 135.62,-231.78 158,-241.5 162.73,-243.56 167.7,-245.63 172.67,-247.66"/>
<polygon fill="midnightblue" stroke="midnightblue" points="171.63,-251.01 182.21,-251.49 174.23,-244.51 171.63,-251.01"/>
</g>
<!-- Node35 -->
<g id="node35" class="node">
<title>Node35</title>
<g id="a_node35"><a xlink:href="group__zpc__attribute__resolver.html#ga6b06a7863343b85f1a8882394124e820" target="_top" xlink:title="Registers a custom function for sent events. The ZPC Resolver will call this function and will not ex...">
<polygon fill="none" stroke="black" points="171,-202.5 171,-232.5 275,-232.5 275,-202.5 171,-202.5"/>
<text text-anchor="start" x="179" y="-220.5" font-family="Helvetica,sans-Serif" font-size="10.00">register_send_event</text>
<text text-anchor="middle" x="223" y="-209.5" font-family="Helvetica,sans-Serif" font-size="10.00">_handler</text>
</a>
</g>
</g>
<!-- Node1&#45;&gt;Node35 -->
<g id="edge39" class="edge">
<title>Node1&#45;&gt;Node35</title>
<path fill="none" stroke="midnightblue" d="M122.03,-203.75C134.7,-205.5 148.08,-207.34 160.78,-209.08"/>
<polygon fill="midnightblue" stroke="midnightblue" points="160.42,-212.57 170.8,-210.46 161.37,-205.63 160.42,-212.57"/>
</g>
<!-- Node36 -->
<g id="node36" class="node">
<title>Node36</title>
<g id="a_node36"><a xlink:href="zwave__command__class__wake__up_8c.html#a8f966daf7a0db642b035c023a4877115" target="_top" xlink:title=" ">
<polygon fill="none" stroke="black" points="159,-339 159,-358 287,-358 287,-339 159,-339"/>
<text text-anchor="middle" x="223" y="-346" font-family="Helvetica,sans-Serif" font-size="10.00">wake_up_capabilities_get</text>
</a>
</g>
</g>
<!-- Node1&#45;&gt;Node36 -->
<g id="edge40" class="edge">
<title>Node1&#45;&gt;Node36</title>
<path fill="none" stroke="midnightblue" d="M69.62,-210.87C83.6,-237.59 115.83,-292.78 158,-324.5 163.48,-328.62 169.75,-332.11 176.17,-335.03"/>
<polygon fill="midnightblue" stroke="midnightblue" points="175.03,-338.35 185.6,-338.92 177.69,-331.87 175.03,-338.35"/>
</g>
<!-- Node39 -->
<g id="node39" class="node">
<title>Node39</title>
<g id="a_node39"><a xlink:href="zwave__command__class__wake__up_8c.html#a88bb847c5b28073f2eebf61a9c6fe6f6" target="_top" xlink:title=" ">
<polygon fill="none" stroke="black" points="159.5,-164 159.5,-183 286.5,-183 286.5,-164 159.5,-164"/>
<text text-anchor="middle" x="223" y="-171" font-family="Helvetica,sans-Serif" font-size="10.00">wake_up_control_handler</text>
</a>
</g>
</g>
<!-- Node1&#45;&gt;Node39 -->
<g id="edge46" class="edge">
<title>Node1&#45;&gt;Node39</title>
<path fill="none" stroke="midnightblue" d="M122.03,-187.25C131.02,-186.01 140.37,-184.72 149.58,-183.46"/>
<polygon fill="midnightblue" stroke="midnightblue" points="150.06,-186.92 159.49,-182.09 149.11,-179.99 150.06,-186.92"/>
</g>
<!-- Node45 -->
<g id="node45" class="node">
<title>Node45</title>
<g id="a_node45"><a xlink:href="zwave__command__class__wake__up_8c.html#a9a8b027d6bc6ddb6ccfe5f216291fb31" target="_top" xlink:title=" ">
<polygon fill="none" stroke="black" points="167.5,-88 167.5,-107 278.5,-107 278.5,-88 167.5,-88"/>
<text text-anchor="middle" x="223" y="-95" font-family="Helvetica,sans-Serif" font-size="10.00">wake_up_interval_get</text>
</a>
</g>
</g>
<!-- Node1&#45;&gt;Node45 -->
<g id="edge59" class="edge">
<title>Node1&#45;&gt;Node45</title>
<path fill="none" stroke="midnightblue" d="M78.27,-180.5C96.55,-164.24 127.66,-138.38 158,-121.5 165.3,-117.44 173.42,-113.8 181.36,-110.65"/>
<polygon fill="midnightblue" stroke="midnightblue" points="182.77,-113.86 190.89,-107.06 180.3,-107.31 182.77,-113.86"/>
</g>
<!-- Node46 -->
<g id="node46" class="node">
<title>Node46</title>
<g id="a_node46"><a xlink:href="zwave__command__class__wake__up_8c.html#a84e29105d1064d01c7551336860230a7" target="_top" xlink:title=" ">
<polygon fill="none" stroke="black" points="167.5,-50 167.5,-69 278.5,-69 278.5,-50 167.5,-50"/>
<text text-anchor="middle" x="223" y="-57" font-family="Helvetica,sans-Serif" font-size="10.00">wake_up_interval_set</text>
</a>
</g>
</g>
<!-- Node1&#45;&gt;Node46 -->
<g id="edge60" class="edge">
<title>Node1&#45;&gt;Node46</title>
<path fill="none" stroke="midnightblue" d="M70.48,-180.1C85.06,-155.05 117.29,-105.53 158,-78.5 161.08,-76.46 164.38,-74.63 167.81,-72.99"/>
<polygon fill="midnightblue" stroke="midnightblue" points="169.22,-76.19 177.09,-69.09 166.51,-69.74 169.22,-76.19"/>
</g>
<!-- Node47 -->
<g id="node47" class="node">
<title>Node47</title>
<g id="a_node47"><a xlink:href="group__zwave__command__handler.html#gae1313215c0459775bb126a2ba636eb2f" target="_top" xlink:title="Register a command class handler.">
<polygon fill="none" stroke="black" points="158,-0.5 158,-30.5 288,-30.5 288,-0.5 158,-0.5"/>
<text text-anchor="start" x="166" y="-18.5" font-family="Helvetica,sans-Serif" font-size="10.00">zwave_command_handler</text>
<text text-anchor="middle" x="223" y="-7.5" font-family="Helvetica,sans-Serif" font-size="10.00">_register_handler</text>
</a>
</g>
</g>
<!-- Node1&#45;&gt;Node47 -->
<g id="edge61" class="edge">
<title>Node1&#45;&gt;Node47</title>
<path fill="none" stroke="midnightblue" d="M67.49,-180.49C79.38,-149.97 110.32,-80.2 158,-40.5 160.01,-38.83 162.14,-37.26 164.35,-35.79"/>
<polygon fill="midnightblue" stroke="midnightblue" points="166.39,-38.66 173.27,-30.6 162.87,-32.61 166.39,-38.66"/>
</g>
<!-- Node3 -->
<g id="node3" class="node">
<title>Node3</title>
<g id="a_node3"><a xlink:href="zwave__command__class__wake__up_8c.html#aaff9153e6b7f2f12495d4528a1e348f5" target="_top" xlink:title="Configures the Wake Up Interval setting for a node.">
<polygon fill="none" stroke="black" points="326.5,-473 326.5,-492 463.5,-492 463.5,-473 326.5,-473"/>
<text text-anchor="middle" x="395" y="-480" font-family="Helvetica,sans-Serif" font-size="10.00">configure_wake_up_interval</text>
</a>
</g>
</g>
<!-- Node2&#45;&gt;Node3 -->
<g id="edge2" class="edge">
<title>Node2&#45;&gt;Node3</title>
<path fill="none" stroke="midnightblue" d="M276.39,-448.6C300.44,-455.53 328.6,-463.65 351.33,-470.2"/>
<polygon fill="midnightblue" stroke="midnightblue" points="350.46,-473.59 361.03,-473 352.39,-466.87 350.46,-473.59"/>
</g>
<!-- Node3&#45;&gt;Node3 -->
<g id="edge3" class="edge">
<title>Node3&#45;&gt;Node3</title>
<path fill="none" stroke="midnightblue" d="M368.49,-492.26C355.59,-501.07 364.43,-510.5 395,-510.5 415.54,-510.5 426.27,-506.24 427.19,-500.77"/>
<polygon fill="midnightblue" stroke="midnightblue" points="429.97,-498.64 421.51,-492.26 424.14,-502.52 429.97,-498.64"/>
</g>
<!-- Node4 -->
<g id="node4" class="node">
<title>Node4</title>
<g id="a_node4"><a xlink:href="zwave__command__class__wake__up_8c.html#aafee6942702a86d4aaea1f91c18ccce7" target="_top" xlink:title="Finds the closest supported value for a Wake Up Interval.">
<polygon fill="none" stroke="black" points="517.5,-355.5 517.5,-385.5 632.5,-385.5 632.5,-355.5 517.5,-355.5"/>
<text text-anchor="start" x="525.5" y="-373.5" font-family="Helvetica,sans-Serif" font-size="10.00">get_closest_supported</text>
<text text-anchor="middle" x="575" y="-362.5" font-family="Helvetica,sans-Serif" font-size="10.00">_interval</text>
</a>
</g>
</g>
<!-- Node3&#45;&gt;Node4 -->
<g id="edge4" class="edge">
<title>Node3&#45;&gt;Node4</title>
<path fill="none" stroke="midnightblue" d="M405.36,-472.82C422.85,-455.22 462.33,-417.73 502,-395.5 505.7,-393.43 509.6,-391.48 513.6,-389.66"/>
<polygon fill="midnightblue" stroke="midnightblue" points="515.21,-392.78 523.05,-385.65 512.47,-386.34 515.21,-392.78"/>
</g>
<!-- Node5 -->
<g id="node5" class="node">
<title>Node5</title>
<g id="a_node5"><a xlink:href="zwave__command__class__wake__up_8c.html#a86fe76f7c6c116734a69cb35ef264f26" target="_top" xlink:title="Finds the value that would lead to the largest time between Wake Ups for a node.">
<polygon fill="none" stroke="black" points="515.5,-443.5 515.5,-473.5 634.5,-473.5 634.5,-443.5 515.5,-443.5"/>
<text text-anchor="start" x="523.5" y="-461.5" font-family="Helvetica,sans-Serif" font-size="10.00">get_maximum_possible</text>
<text text-anchor="middle" x="575" y="-450.5" font-family="Helvetica,sans-Serif" font-size="10.00">_interval</text>
</a>
</g>
</g>
<!-- Node3&#45;&gt;Node5 -->
<g id="edge5" class="edge">
<title>Node3&#45;&gt;Node5</title>
<path fill="none" stroke="midnightblue" d="M463.55,-473.39C477.11,-471.56 491.37,-469.64 504.98,-467.81"/>
<polygon fill="midnightblue" stroke="midnightblue" points="505.79,-471.23 515.23,-466.42 504.86,-464.29 505.79,-471.23"/>
</g>
<!-- Node6 -->
<g id="node6" class="node">
<title>Node6</title>
<g id="a_node6"><a xlink:href="group__command__classes__utils.html#ga7dd7a32346c549c1f82f97037625db40" target="_top" xlink:title="Verifies if a Node is a Portable End Node. (PS / PEN Role type)">
<polygon fill="none" stroke="black" points="707,-580 707,-599 818,-599 818,-580 707,-580"/>
<text text-anchor="middle" x="762.5" y="-587" font-family="Helvetica,sans-Serif" font-size="10.00">is_portable_end_node</text>
</a>
</g>
</g>
<!-- Node3&#45;&gt;Node6 -->
<g id="edge6" class="edge">
<title>Node3&#45;&gt;Node6</title>
<path fill="none" stroke="midnightblue" d="M404.48,-492.08C421.12,-510.13 460.08,-548.84 502,-565.5 564.81,-590.46 642.67,-594.46 696.63,-593.47"/>
<polygon fill="midnightblue" stroke="midnightblue" points="696.85,-596.96 706.76,-593.22 696.67,-589.97 696.85,-596.96"/>
</g>
<!-- Node14 -->
<g id="node14" class="node">
<title>Node14</title>
<g id="a_node14"><a xlink:href="group__zpc__config.html#ga4b057e8eb480ccf7000ecdaf97dcc168" target="_top" xlink:title="Get the current configuration. This must only be called after zpc_config_init.">
<polygon fill="none" stroke="black" points="533.5,-405 533.5,-424 616.5,-424 616.5,-405 533.5,-405"/>
<text text-anchor="middle" x="575" y="-412" font-family="Helvetica,sans-Serif" font-size="10.00">zpc_get_config</text>
</a>
</g>
</g>
<!-- Node3&#45;&gt;Node14 -->
<g id="edge14" class="edge">
<title>Node3&#45;&gt;Node14</title>
<path fill="none" stroke="midnightblue" d="M414.35,-472.82C435.17,-462.12 470.33,-444.9 502,-433.5 508.86,-431.03 516.19,-428.73 523.45,-426.64"/>
<polygon fill="midnightblue" stroke="midnightblue" points="524.55,-429.97 533.25,-423.92 522.68,-423.22 524.55,-429.97"/>
</g>
<!-- Node15 -->
<g id="node15" class="node">
<title>Node15</title>
<g id="a_node15"><a xlink:href="group__zwave__command__class__wake__up.html#ga3f21bf48988be7063716ec5cbddd37fa" target="_top" xlink:title="Verifies if a Node supports the Wake Up on demand functionality.">
<polygon fill="none" stroke="black" points="509,-618 509,-659 641,-659 641,-618 509,-618"/>
<text text-anchor="start" x="517" y="-647" font-family="Helvetica,sans-Serif" font-size="10.00">zwave_command_class</text>
<text text-anchor="start" x="517" y="-636" font-family="Helvetica,sans-Serif" font-size="10.00">_wake_up_supports_wake</text>
<text text-anchor="middle" x="575" y="-625" font-family="Helvetica,sans-Serif" font-size="10.00">_up_on_demand</text>
</a>
</g>
</g>
<!-- Node3&#45;&gt;Node15 -->
<g id="edge15" class="edge">
<title>Node3&#45;&gt;Node15</title>
<path fill="none" stroke="midnightblue" d="M402.4,-492.14C417.48,-514.27 457.38,-569.44 502,-603.5 506.35,-606.82 511.07,-609.95 515.93,-612.86"/>
<polygon fill="midnightblue" stroke="midnightblue" points="514.38,-616 524.8,-617.87 517.82,-609.91 514.38,-616"/>
</g>
<!-- Node19 -->
<g id="node19" class="node">
<title>Node19</title>
<g id="a_node19"><a xlink:href="group__zwave__network__management.html#gae265f1e935804f3f0b971755ab0ee61e" target="_top" xlink:title="Get the cached NodeID.">
<polygon fill="none" stroke="black" points="877,-495.5 877,-525.5 1023,-525.5 1023,-495.5 877,-495.5"/>
<text text-anchor="start" x="885" y="-513.5" font-family="Helvetica,sans-Serif" font-size="10.00">zwave_network_management</text>
<text text-anchor="middle" x="950" y="-502.5" font-family="Helvetica,sans-Serif" font-size="10.00">_get_node_id</text>
</a>
</g>
</g>
<!-- Node3&#45;&gt;Node19 -->
<g id="edge21" class="edge">
<title>Node3&#45;&gt;Node19</title>
<path fill="none" stroke="midnightblue" d="M411.05,-492.03C430.96,-504.01 467.55,-523.92 502,-531.5 627.06,-559.01 776.38,-542.39 866.87,-527.06"/>
<polygon fill="midnightblue" stroke="midnightblue" points="867.54,-530.5 876.8,-525.35 866.35,-523.6 867.54,-530.5"/>
</g>
<!-- Node20 -->
<g id="node20" class="node">
<title>Node20</title>
<g id="a_node20"><a xlink:href="group__zwave__network__management.html#ga10d248f803b45c70adf8ecec24308109" target="_top" xlink:title="Checks if we have the SIS role in the current network.">
<polygon fill="none" stroke="black" points="502,-492.5 502,-522.5 648,-522.5 648,-492.5 502,-492.5"/>
<text text-anchor="start" x="510" y="-510.5" font-family="Helvetica,sans-Serif" font-size="10.00">zwave_network_management</text>
<text text-anchor="middle" x="575" y="-499.5" font-family="Helvetica,sans-Serif" font-size="10.00">_is_zpc_sis</text>
</a>
</g>
</g>
<!-- Node3&#45;&gt;Node20 -->
<g id="edge22" class="edge">
<title>Node3&#45;&gt;Node20</title>
<path fill="none" stroke="midnightblue" d="M463.55,-491.99C472.72,-493.28 482.22,-494.61 491.61,-495.93"/>
<polygon fill="midnightblue" stroke="midnightblue" points="491.36,-499.43 501.75,-497.35 492.34,-492.5 491.36,-499.43"/>
</g>
<!-- Node7 -->
<g id="node7" class="node">
<title>Node7</title>
<g id="a_node7"><a xlink:href="group__command__classes__utils.html#gaf1fbb6a0e57bf5218e97120ed7adc966" target="_top" xlink:title="Provides the Role Type of a node.">
<polygon fill="none" stroke="black" points="882.5,-564 882.5,-583 1017.5,-583 1017.5,-564 882.5,-564"/>
<text text-anchor="middle" x="950" y="-571" font-family="Helvetica,sans-Serif" font-size="10.00">get_zwave_node_role_type</text>
</a>
</g>
</g>
<!-- Node6&#45;&gt;Node7 -->
<g id="edge7" class="edge">
<title>Node6&#45;&gt;Node7</title>
<path fill="none" stroke="midnightblue" d="M818.15,-584.79C835.11,-583.32 854.11,-581.68 872.27,-580.12"/>
<polygon fill="midnightblue" stroke="midnightblue" points="872.6,-583.6 882.26,-579.26 872,-576.63 872.6,-583.6"/>
</g>
<!-- Node8 -->
<g id="node8" class="node">
<title>Node8</title>
<g id="a_node8"><a xlink:href="group__zpc__attribute__store__network__helpers.html#gae4d15b8e0c61c88d94c8f342bd2014fc" target="_top" xlink:title="Take a UNID/endpoint combination and returns its attribute store node.">
<polygon fill="none" stroke="black" points="1059,-577.5 1059,-607.5 1194,-607.5 1194,-577.5 1059,-577.5"/>
<text text-anchor="start" x="1067" y="-595.5" font-family="Helvetica,sans-Serif" font-size="10.00">attribute_store_network</text>
<text text-anchor="middle" x="1126.5" y="-584.5" font-family="Helvetica,sans-Serif" font-size="10.00">_helper_get_endpoint_node</text>
</a>
</g>
</g>
<!-- Node7&#45;&gt;Node8 -->
<g id="edge8" class="edge">
<title>Node7&#45;&gt;Node8</title>
<path fill="none" stroke="midnightblue" d="M1017.97,-580.79C1027.99,-581.88 1038.38,-583.01 1048.59,-584.13"/>
<polygon fill="midnightblue" stroke="midnightblue" points="1048.39,-587.62 1058.71,-585.23 1049.15,-580.67 1048.39,-587.62"/>
</g>
<!-- Node13 -->
<g id="node13" class="node">
<title>Node13</title>
<g id="a_node13"><a xlink:href="group__zwave__unid.html#ga421deceb8a12916f049e4f3446774439" target="_top" xlink:title="Form a UNID.">
<polygon fill="none" stroke="black" points="1060.5,-539 1060.5,-558 1192.5,-558 1192.5,-539 1060.5,-539"/>
<text text-anchor="middle" x="1126.5" y="-546" font-family="Helvetica,sans-Serif" font-size="10.00">zwave_unid_from_node_id</text>
</a>
</g>
</g>
<!-- Node7&#45;&gt;Node13 -->
<g id="edge13" class="edge">
<title>Node7&#45;&gt;Node13</title>
<path fill="none" stroke="midnightblue" d="M1017.47,-563.98C1028.24,-562.43 1039.45,-560.83 1050.4,-559.26"/>
<polygon fill="midnightblue" stroke="midnightblue" points="1050.97,-562.71 1060.37,-557.83 1049.97,-555.78 1050.97,-562.71"/>
</g>
<!-- Node9 -->
<g id="node9" class="node">
<title>Node9</title>
<g id="a_node9"><a xlink:href="group__zpc__attribute__store__network__helpers.html#gafb993ff484b3c826743c4695d6659cf0" target="_top" xlink:title="Take a UNID and return its attribute store node representing the NodeID.">
<polygon fill="none" stroke="black" points="1230,-577.5 1230,-607.5 1362,-607.5 1362,-577.5 1230,-577.5"/>
<text text-anchor="start" x="1238" y="-595.5" font-family="Helvetica,sans-Serif" font-size="10.00">attribute_store_network</text>
<text text-anchor="middle" x="1296" y="-584.5" font-family="Helvetica,sans-Serif" font-size="10.00">_helper_get_node_id_node</text>
</a>
</g>
</g>
<!-- Node8&#45;&gt;Node9 -->
<g id="edge9" class="edge">
<title>Node8&#45;&gt;Node9</title>
<path fill="none" stroke="midnightblue" d="M1194.18,-592.5C1202.55,-592.5 1211.15,-592.5 1219.64,-592.5"/>
<polygon fill="midnightblue" stroke="midnightblue" points="1219.91,-596 1229.91,-592.5 1219.91,-589 1219.91,-596"/>
</g>
<!-- Node10 -->
<g id="node10" class="node">
<title>Node10</title>
<g id="a_node10"><a xlink:href="group__zpc__attribute__store__network__helpers.html#ga05cb572c96f7dc8e6657f86e135fafed" target="_top" xlink:title="Take a UNID and return its attribute store node representing the HomeID.">
<polygon fill="none" stroke="black" points="1398,-599.5 1398,-629.5 1533,-629.5 1533,-599.5 1398,-599.5"/>
<text text-anchor="start" x="1406" y="-617.5" font-family="Helvetica,sans-Serif" font-size="10.00">attribute_store_network</text>
<text text-anchor="middle" x="1465.5" y="-606.5" font-family="Helvetica,sans-Serif" font-size="10.00">_helper_get_home_id_node</text>
</a>
</g>
</g>
<!-- Node9&#45;&gt;Node10 -->
<g id="edge10" class="edge">
<title>Node9&#45;&gt;Node10</title>
<path fill="none" stroke="midnightblue" d="M1362.24,-601.07C1370.62,-602.17 1379.27,-603.31 1387.82,-604.43"/>
<polygon fill="midnightblue" stroke="midnightblue" points="1387.41,-607.9 1397.78,-605.74 1388.32,-600.96 1387.41,-607.9"/>
</g>
<!-- Node12 -->
<g id="node12" class="node">
<title>Node12</title>
<g id="a_node12"><a xlink:href="group__zwave__unid.html#ga76885767debd174e96e6df00b0a368c3" target="_top" xlink:title="Convert a UNID to a node ID.">
<polygon fill="none" stroke="black" points="1405,-561 1405,-580 1526,-580 1526,-561 1405,-561"/>
<text text-anchor="middle" x="1465.5" y="-568" font-family="Helvetica,sans-Serif" font-size="10.00">zwave_unid_to_node_id</text>
</a>
</g>
</g>
<!-- Node9&#45;&gt;Node12 -->
<g id="edge12" class="edge">
<title>Node9&#45;&gt;Node12</title>
<path fill="none" stroke="midnightblue" d="M1362.24,-583.93C1372.89,-582.53 1383.96,-581.08 1394.72,-579.67"/>
<polygon fill="midnightblue" stroke="midnightblue" points="1395.45,-583.1 1404.91,-578.33 1394.54,-576.16 1395.45,-583.1"/>
</g>
<!-- Node11 -->
<g id="node11" class="node">
<title>Node11</title>
<g id="a_node11"><a xlink:href="group__zwave__unid.html#ga92f9808a08c2ce1c0a6a9dc2debf3580" target="_top" xlink:title="Convert a UNID to a Home ID.">
<polygon fill="none" stroke="black" points="1569,-605 1569,-624 1693,-624 1693,-605 1569,-605"/>
<text text-anchor="middle" x="1631" y="-612" font-family="Helvetica,sans-Serif" font-size="10.00">zwave_unid_to_home_id</text>
</a>
</g>
</g>
<!-- Node10&#45;&gt;Node11 -->
<g id="edge11" class="edge">
<title>Node10&#45;&gt;Node11</title>
<path fill="none" stroke="midnightblue" d="M1533,-614.5C1541.42,-614.5 1550.07,-614.5 1558.57,-614.5"/>
<polygon fill="midnightblue" stroke="midnightblue" points="1558.83,-618 1568.83,-614.5 1558.83,-611 1558.83,-618"/>
</g>
<!-- Node16 -->
<g id="node16" class="node">
<title>Node16</title>
<g id="a_node16"><a xlink:href="group__zpc__attribute__store__network__helpers.html#ga715be25ab9c545f84ff524bc5a7eb7db" target="_top" xlink:title="Traverse up the tree from a node and finds under which Z&#45;Wave NodeID it is.">
<polygon fill="none" stroke="black" points="684,-618.5 684,-648.5 841,-648.5 841,-618.5 684,-618.5"/>
<text text-anchor="start" x="692" y="-636.5" font-family="Helvetica,sans-Serif" font-size="10.00">attribute_store_network</text>
<text text-anchor="middle" x="762.5" y="-625.5" font-family="Helvetica,sans-Serif" font-size="10.00">_helper_get_node_id_from_node</text>
</a>
</g>
</g>
<!-- Node15&#45;&gt;Node16 -->
<g id="edge16" class="edge">
<title>Node15&#45;&gt;Node16</title>
<path fill="none" stroke="midnightblue" d="M641.14,-636.74C651.69,-636.46 662.76,-636.16 673.75,-635.87"/>
<polygon fill="midnightblue" stroke="midnightblue" points="673.88,-639.36 683.79,-635.59 673.7,-632.37 673.88,-639.36"/>
</g>
<!-- Node17 -->
<g id="node17" class="node">
<title>Node17</title>
<g id="a_node17"><a xlink:href="group__zwave__utils.html#ga1fb87a67860c11e6e89930eb51fda21f" target="_top" xlink:title="Return the version of a Command Class implemented by a node.">
<polygon fill="none" stroke="black" points="693.5,-667.5 693.5,-697.5 831.5,-697.5 831.5,-667.5 693.5,-667.5"/>
<text text-anchor="start" x="701.5" y="-685.5" font-family="Helvetica,sans-Serif" font-size="10.00">zwave_node_get_command</text>
<text text-anchor="middle" x="762.5" y="-674.5" font-family="Helvetica,sans-Serif" font-size="10.00">_class_version</text>
</a>
</g>
</g>
<!-- Node15&#45;&gt;Node17 -->
<g id="edge17" class="edge">
<title>Node15&#45;&gt;Node17</title>
<path fill="none" stroke="midnightblue" d="M641.14,-653.95C656.3,-657.55 672.54,-661.4 688.03,-665.07"/>
<polygon fill="midnightblue" stroke="midnightblue" points="687.54,-668.55 698.08,-667.46 689.16,-661.74 687.54,-668.55"/>
</g>
<!-- Node18 -->
<g id="node18" class="node">
<title>Node18</title>
<g id="a_node18"><a xlink:href="group__zwave__utils.html#ga6f7851dd2a96668e3a246c0292607579" target="_top" xlink:title="Get endpoint node associated with the ZWave NodeID and Endpoint ID.">
<polygon fill="none" stroke="black" points="884,-602 884,-621 1016,-621 1016,-602 884,-602"/>
<text text-anchor="middle" x="950" y="-609" font-family="Helvetica,sans-Serif" font-size="10.00">zwave_get_endpoint_node</text>
</a>
</g>
</g>
<!-- Node17&#45;&gt;Node18 -->
<g id="edge18" class="edge">
<title>Node17&#45;&gt;Node18</title>
<path fill="none" stroke="midnightblue" d="M815.04,-667.41C823.76,-664.61 832.68,-661.59 841,-658.5 868.1,-648.44 898.2,-635.16 919.72,-625.28"/>
<polygon fill="midnightblue" stroke="midnightblue" points="921.36,-628.38 928.97,-621.01 918.42,-622.03 921.36,-628.38"/>
</g>
<!-- Node18&#45;&gt;Node8 -->
<g id="edge19" class="edge">
<title>Node18&#45;&gt;Node8</title>
<path fill="none" stroke="midnightblue" d="M1016.47,-604.37C1026.95,-603.23 1037.88,-602.04 1048.6,-600.87"/>
<polygon fill="midnightblue" stroke="midnightblue" points="1049.22,-604.33 1058.79,-599.76 1048.47,-597.37 1049.22,-604.33"/>
</g>
<!-- Node18&#45;&gt;Node13 -->
<g id="edge20" class="edge">
<title>Node18&#45;&gt;Node13</title>
<path fill="none" stroke="midnightblue" d="M996.78,-601.99C1005.68,-599.43 1014.78,-596.29 1023,-592.5 1040.69,-584.34 1041.4,-575.84 1059,-567.5 1063.88,-565.19 1069.1,-563.1 1074.39,-561.23"/>
<polygon fill="midnightblue" stroke="midnightblue" points="1075.52,-564.54 1083.93,-558.1 1073.34,-557.89 1075.52,-564.54"/>
</g>
<!-- Node22 -->
<g id="node22" class="node">
<title>Node22</title>
<g id="a_node22"><a xlink:href="zwave__command__class__wake__up_8c.html#a719d1633ae7a1ff72a7073da6a741c29" target="_top" xlink:title="Verifies if either NodeID / Wake Up interval settings are still undefined or mismatched and a resolut...">
<polygon fill="none" stroke="black" points="510,-82.5 510,-112.5 640,-112.5 640,-82.5 510,-82.5"/>
<text text-anchor="start" x="518" y="-100.5" font-family="Helvetica,sans-Serif" font-size="10.00">verify_if_wake_up_setting</text>
<text text-anchor="middle" x="575" y="-89.5" font-family="Helvetica,sans-Serif" font-size="10.00">_needs_resolution</text>
</a>
</g>
</g>
<!-- Node21&#45;&gt;Node22 -->
<g id="edge24" class="edge">
<title>Node21&#45;&gt;Node22</title>
<path fill="none" stroke="midnightblue" d="M449.41,-94.7C465.18,-95.05 482.74,-95.45 499.58,-95.83"/>
<polygon fill="midnightblue" stroke="midnightblue" points="499.88,-99.34 509.95,-96.06 500.04,-92.34 499.88,-99.34"/>
</g>
<!-- Node24 -->
<g id="node24" class="node">
<title>Node24</title>
<g id="a_node24"><a xlink:href="zwave__command__class__wake__up_8c.html#ab1683172e412f4f4b4f3090e6e2ac2b8" target="_top" xlink:title="Check if we need and send a Wake Up No more command to a node and puts it in the Tx Queue.">
<polygon fill="none" stroke="black" points="512.5,-261 512.5,-280 637.5,-280 637.5,-261 512.5,-261"/>
<text text-anchor="middle" x="575" y="-268" font-family="Helvetica,sans-Serif" font-size="10.00">send_wake_up_no_more</text>
</a>
</g>
</g>
<!-- Node23&#45;&gt;Node24 -->
<g id="edge26" class="edge">
<title>Node23&#45;&gt;Node24</title>
<path fill="none" stroke="midnightblue" d="M447.01,-280.49C464.17,-279.14 483.65,-277.61 502.12,-276.15"/>
<polygon fill="midnightblue" stroke="midnightblue" points="502.55,-279.63 512.25,-275.36 502,-272.65 502.55,-279.63"/>
</g>
<!-- Node24&#45;&gt;Node24 -->
<g id="edge27" class="edge">
<title>Node24&#45;&gt;Node24</title>
<path fill="none" stroke="midnightblue" d="M547.26,-280.26C533.76,-289.07 543.01,-298.5 575,-298.5 596.99,-298.5 608.24,-294.04 608.73,-288.39"/>
<polygon fill="midnightblue" stroke="midnightblue" points="611.49,-286.23 602.74,-280.26 605.85,-290.38 611.49,-286.23"/>
</g>
<!-- Node25 -->
<g id="node25" class="node">
<title>Node25</title>
<g id="a_node25"><a xlink:href="zwave__command__class__wake__up_8c.html#acc185d175a4ebc31e69cd02437d885dd" target="_top" xlink:title="Verifies if we are the Wake Up destination of a NodeID.">
<polygon fill="none" stroke="black" points="707,-479.5 707,-509.5 818,-509.5 818,-479.5 707,-479.5"/>
<text text-anchor="start" x="715" y="-497.5" font-family="Helvetica,sans-Serif" font-size="10.00">we_are_the_wake_up</text>
<text text-anchor="middle" x="762.5" y="-486.5" font-family="Helvetica,sans-Serif" font-size="10.00">_destination</text>
</a>
</g>
</g>
<!-- Node24&#45;&gt;Node25 -->
<g id="edge28" class="edge">
<title>Node24&#45;&gt;Node25</title>
<path fill="none" stroke="midnightblue" d="M607.99,-280.11C622.17,-285.91 637.9,-294.7 648,-307.5 689.67,-360.3 642.38,-401.66 684,-454.5 690.32,-462.53 698.7,-469.1 707.61,-474.43"/>
<polygon fill="midnightblue" stroke="midnightblue" points="706.18,-477.64 716.64,-479.36 709.53,-471.5 706.18,-477.64"/>
</g>
<!-- Node26 -->
<g id="node26" class="node">
<title>Node26</title>
<g id="a_node26"><a xlink:href="group__zwave__network__management.html#ga38921e3a42a10fc5135615b50f0573cd" target="_top" xlink:title="Checks if the protocol may be sending some frames to a particular NodeID.">
<polygon fill="none" stroke="black" points="689.5,-404 689.5,-445 835.5,-445 835.5,-404 689.5,-404"/>
<text text-anchor="start" x="697.5" y="-433" font-family="Helvetica,sans-Serif" font-size="10.00">zwave_network_management</text>
<text text-anchor="start" x="697.5" y="-422" font-family="Helvetica,sans-Serif" font-size="10.00">_is_protocol_sending_frames</text>
<text text-anchor="middle" x="762.5" y="-411" font-family="Helvetica,sans-Serif" font-size="10.00">_to_node</text>
</a>
</g>
</g>
<!-- Node24&#45;&gt;Node26 -->
<g id="edge30" class="edge">
<title>Node24&#45;&gt;Node26</title>
<path fill="none" stroke="midnightblue" d="M605.32,-280.1C619.74,-286.07 636.46,-295.01 648,-307.5 676.13,-337.92 654.47,-364.43 684,-393.5 685.64,-395.11 687.37,-396.64 689.17,-398.09"/>
<polygon fill="midnightblue" stroke="midnightblue" points="687.34,-401.08 697.53,-403.98 691.37,-395.36 687.34,-401.08"/>
</g>
<!-- Node28 -->
<g id="node28" class="node">
<title>Node28</title>
<g id="a_node28"><a xlink:href="group__zwave__tx.html#gabb799c67f2008618877071e96e2fca77" target="_top" xlink:title="Verifies if we have frames in the queue to send to a NodeID.">
<polygon fill="none" stroke="black" points="705,-354.5 705,-384.5 820,-384.5 820,-354.5 705,-354.5"/>
<text text-anchor="start" x="713" y="-372.5" font-family="Helvetica,sans-Serif" font-size="10.00">zwave_tx_has_frames</text>
<text text-anchor="middle" x="762.5" y="-361.5" font-family="Helvetica,sans-Serif" font-size="10.00">_for_node</text>
</a>
</g>
</g>
<!-- Node24&#45;&gt;Node28 -->
<g id="edge32" class="edge">
<title>Node24&#45;&gt;Node28</title>
<path fill="none" stroke="midnightblue" d="M599.16,-280.07C613.84,-286.69 632.86,-296.3 648,-307.5 666.45,-321.14 664.51,-332.4 684,-344.5 687.58,-346.72 691.38,-348.77 695.29,-350.64"/>
<polygon fill="midnightblue" stroke="midnightblue" points="694.04,-353.91 704.6,-354.73 696.85,-347.5 694.04,-353.91"/>
</g>
<!-- Node29 -->
<g id="node29" class="node">
<title>Node29</title>
<g id="a_node29"><a xlink:href="group__zwave__tx__scheme__selector.html#ga2c884bc863b6f63eac2a074fdde828d8" target="_top" xlink:title="Return a connection info parameters for sending a Z&#45;Wave frame.">
<polygon fill="none" stroke="black" points="704,-305.5 704,-335.5 821,-335.5 821,-305.5 704,-305.5"/>
<text text-anchor="start" x="712" y="-323.5" font-family="Helvetica,sans-Serif" font-size="10.00">zwave_tx_scheme_get</text>
<text text-anchor="middle" x="762.5" y="-312.5" font-family="Helvetica,sans-Serif" font-size="10.00">_node_connection_info</text>
</a>
</g>
</g>
<!-- Node24&#45;&gt;Node29 -->
<g id="edge33" class="edge">
<title>Node24&#45;&gt;Node29</title>
<path fill="none" stroke="midnightblue" d="M611.33,-280.02C635.12,-286.43 667.22,-295.09 695.63,-302.75"/>
<polygon fill="midnightblue" stroke="midnightblue" points="694.94,-306.19 705.51,-305.41 696.77,-299.43 694.94,-306.19"/>
</g>
<!-- Node32 -->
<g id="node32" class="node">
<title>Node32</title>
<g id="a_node32"><a xlink:href="group__zwave__tx__scheme__selector.html#ga8f8d4442ddf4c165d5a79b9a25d6420d" target="_top" xlink:title="Define a Z&#45;Wave frame transmission options.">
<polygon fill="none" stroke="black" points="704,-256.5 704,-286.5 821,-286.5 821,-256.5 704,-256.5"/>
<text text-anchor="start" x="712" y="-274.5" font-family="Helvetica,sans-Serif" font-size="10.00">zwave_tx_scheme_get</text>
<text text-anchor="middle" x="762.5" y="-263.5" font-family="Helvetica,sans-Serif" font-size="10.00">_node_tx_options</text>
</a>
</g>
</g>
<!-- Node24&#45;&gt;Node32 -->
<g id="edge36" class="edge">
<title>Node24&#45;&gt;Node32</title>
<path fill="none" stroke="midnightblue" d="M637.51,-270.83C655.58,-270.93 675.43,-271.04 693.85,-271.14"/>
<polygon fill="midnightblue" stroke="midnightblue" points="693.9,-274.64 703.92,-271.19 693.94,-267.64 693.9,-274.64"/>
</g>
<!-- Node33 -->
<g id="node33" class="node">
<title>Node33</title>
<g id="a_node33"><a xlink:href="group__zwave__tx.html#gad1538f36d226fe8147c5e538625568df" target="_top" xlink:title="Queue and send frames to Z&#45;Wave nodes.">
<polygon fill="none" stroke="black" points="708,-218 708,-237 817,-237 817,-218 708,-218"/>
<text text-anchor="middle" x="762.5" y="-225" font-family="Helvetica,sans-Serif" font-size="10.00">zwave_tx_send_data</text>
</a>
</g>
</g>
<!-- Node24&#45;&gt;Node33 -->
<g id="edge37" class="edge">
<title>Node24&#45;&gt;Node33</title>
<path fill="none" stroke="midnightblue" d="M617.17,-260.96C644.67,-254.58 681.03,-246.15 710.38,-239.35"/>
<polygon fill="midnightblue" stroke="midnightblue" points="711.5,-242.68 720.45,-237.02 709.91,-235.87 711.5,-242.68"/>
</g>
<!-- Node25&#45;&gt;Node19 -->
<g id="edge29" class="edge">
<title>Node25&#45;&gt;Node19</title>
<path fill="none" stroke="midnightblue" d="M818.15,-499.21C833.38,-500.53 850.25,-501.98 866.69,-503.4"/>
<polygon fill="midnightblue" stroke="midnightblue" points="866.59,-506.9 876.85,-504.28 867.19,-499.93 866.59,-506.9"/>
</g>
<!-- Node27 -->
<g id="node27" class="node">
<title>Node27</title>
<g id="a_node27"><a xlink:href="group__zwave__network__management.html#ga90aba971e0bdba90096c533bcd803dc4" target="_top" xlink:title="Checks if we have return routes to assign for a given NodeID.">
<polygon fill="none" stroke="black" points="891,-409.5 891,-439.5 1009,-439.5 1009,-409.5 891,-409.5"/>
<text text-anchor="start" x="899" y="-427.5" font-family="Helvetica,sans-Serif" font-size="10.00">we_have_return_routes</text>
<text text-anchor="middle" x="950" y="-416.5" font-family="Helvetica,sans-Serif" font-size="10.00">_to_assign</text>
</a>
</g>
</g>
<!-- Node26&#45;&gt;Node27 -->
<g id="edge31" class="edge">
<title>Node26&#45;&gt;Node27</title>
<path fill="none" stroke="midnightblue" d="M835.75,-424.5C850.63,-424.5 866.25,-424.5 880.97,-424.5"/>
<polygon fill="midnightblue" stroke="midnightblue" points="881,-428 891,-424.5 881,-421 881,-428"/>
</g>
<!-- Node30 -->
<g id="node30" class="node">
<title>Node30</title>
<g id="a_node30"><a xlink:href="group__zwave__controller__keyset.html#ga43a73c5ae7dc860fa2e5edb9814c432f" target="_top" xlink:title="Get the hight encapsulation supported by a given key set.">
<polygon fill="none" stroke="black" points="890.5,-329.5 890.5,-359.5 1009.5,-359.5 1009.5,-329.5 890.5,-329.5"/>
<text text-anchor="start" x="898.5" y="-347.5" font-family="Helvetica,sans-Serif" font-size="10.00">zwave_controller_get</text>
<text text-anchor="middle" x="950" y="-336.5" font-family="Helvetica,sans-Serif" font-size="10.00">_highest_encapsulation</text>
</a>
</g>
</g>
<!-- Node29&#45;&gt;Node30 -->
<g id="edge34" class="edge">
<title>Node29&#45;&gt;Node30</title>
<path fill="none" stroke="midnightblue" d="M821.18,-327.96C839.92,-330.39 860.91,-333.1 880.38,-335.62"/>
<polygon fill="midnightblue" stroke="midnightblue" points="880.03,-339.11 890.4,-336.92 880.93,-332.16 880.03,-339.11"/>
</g>
<!-- Node31 -->
<g id="node31" class="node">
<title>Node31</title>
<g id="a_node31"><a xlink:href="group__zwave__controller__storage.html#ga771d01deff646dfda3f8406d6fbf5736" target="_top" xlink:title="Return the granted keys for a node.">
<polygon fill="none" stroke="black" points="886,-280.5 886,-310.5 1014,-310.5 1014,-280.5 886,-280.5"/>
<text text-anchor="start" x="894" y="-298.5" font-family="Helvetica,sans-Serif" font-size="10.00">zwave_controller_storage</text>
<text text-anchor="middle" x="950" y="-287.5" font-family="Helvetica,sans-Serif" font-size="10.00">_get_node_granted_keys</text>
</a>
</g>
</g>
<!-- Node29&#45;&gt;Node31 -->
<g id="edge35" class="edge">
<title>Node29&#45;&gt;Node31</title>
<path fill="none" stroke="midnightblue" d="M821.18,-312.73C838.5,-310.39 857.73,-307.8 875.91,-305.35"/>
<polygon fill="midnightblue" stroke="midnightblue" points="876.43,-308.81 885.88,-304.01 875.5,-301.87 876.43,-308.81"/>
</g>
<!-- Node37 -->
<g id="node37" class="node">
<title>Node37</title>
<g id="a_node37"><a xlink:href="zwave__command__class__wake__up_8c.html#a9a61799d62b6c368681fb8a80b0ddf43" target="_top" xlink:title="Writes down assumed non&#45;advertised capabilities for a v1 node.">
<polygon fill="none" stroke="black" points="328,-360 328,-379 462,-379 462,-360 328,-360"/>
<text text-anchor="middle" x="395" y="-367" font-family="Helvetica,sans-Serif" font-size="10.00">set_default_v1_capabilities</text>
</a>
</g>
</g>
<!-- Node36&#45;&gt;Node37 -->
<g id="edge41" class="edge">
<title>Node36&#45;&gt;Node37</title>
<path fill="none" stroke="midnightblue" d="M287.3,-356.32C297.21,-357.54 307.55,-358.82 317.71,-360.08"/>
<polygon fill="midnightblue" stroke="midnightblue" points="317.45,-363.57 327.8,-361.32 318.31,-356.62 317.45,-363.57"/>
</g>
<!-- Node38 -->
<g id="node38" class="node">
<title>Node38</title>
<g id="a_node38"><a xlink:href="zwave__command__class__wake__up_8c.html#afa3117b84d0ee4baa2ce7d5807d34f9f" target="_top" xlink:title="Writes down assumed non&#45;advertised capabilities for a v2 node.">
<polygon fill="none" stroke="black" points="508,-317 508,-336 642,-336 642,-317 508,-317"/>
<text text-anchor="middle" x="575" y="-324" font-family="Helvetica,sans-Serif" font-size="10.00">set_default_v2_capabilities</text>
</a>
</g>
</g>
<!-- Node36&#45;&gt;Node38 -->
<g id="edge45" class="edge">
<title>Node36&#45;&gt;Node38</title>
<path fill="none" stroke="midnightblue" d="M287.38,-344.52C346.44,-340.8 434.61,-335.26 497.55,-331.31"/>
<polygon fill="midnightblue" stroke="midnightblue" points="498.06,-334.78 507.82,-330.66 497.62,-327.79 498.06,-334.78"/>
</g>
<!-- Node37&#45;&gt;Node4 -->
<g id="edge42" class="edge">
<title>Node37&#45;&gt;Node4</title>
<path fill="none" stroke="midnightblue" d="M462.03,-369.87C476.82,-369.95 492.52,-370.04 507.34,-370.13"/>
<polygon fill="midnightblue" stroke="midnightblue" points="507.41,-373.63 517.43,-370.18 507.45,-366.63 507.41,-373.63"/>
</g>
<!-- Node37&#45;&gt;Node14 -->
<g id="edge44" class="edge">
<title>Node37&#45;&gt;Node14</title>
<path fill="none" stroke="midnightblue" d="M433.75,-379.04C460.77,-385.87 497.35,-395.12 526.38,-402.46"/>
<polygon fill="midnightblue" stroke="midnightblue" points="525.75,-405.91 536.31,-404.97 527.47,-399.13 525.75,-405.91"/>
</g>
<!-- Node37&#45;&gt;Node38 -->
<g id="edge43" class="edge">
<title>Node37&#45;&gt;Node38</title>
<path fill="none" stroke="midnightblue" d="M435.5,-359.96C461.78,-353.61 496.48,-345.23 524.58,-338.44"/>
<polygon fill="midnightblue" stroke="midnightblue" points="525.71,-341.77 534.61,-336.02 524.06,-334.96 525.71,-341.77"/>
</g>
<!-- Node40 -->
<g id="node40" class="node">
<title>Node40</title>
<g id="a_node40"><a xlink:href="zwave__command__class__wake__up_8c.html#a9f8081a6c4ea47edf7b8345a0689a1c3" target="_top" xlink:title=" ">
<polygon fill="none" stroke="black" points="332,-176.5 332,-206.5 458,-206.5 458,-176.5 332,-176.5"/>
<text text-anchor="start" x="340" y="-194.5" font-family="Helvetica,sans-Serif" font-size="10.00">handle_wake_up_interval</text>
<text text-anchor="middle" x="395" y="-183.5" font-family="Helvetica,sans-Serif" font-size="10.00">_capabilities_report</text>
</a>
</g>
</g>
<!-- Node39&#45;&gt;Node40 -->
<g id="edge47" class="edge">
<title>Node39&#45;&gt;Node40</title>
<path fill="none" stroke="midnightblue" d="M286.82,-180.15C298.16,-181.35 310.06,-182.61 321.65,-183.84"/>
<polygon fill="midnightblue" stroke="midnightblue" points="321.41,-187.33 331.72,-184.91 322.15,-180.37 321.41,-187.33"/>
</g>
<!-- Node43 -->
<g id="node43" class="node">
<title>Node43</title>
<g id="a_node43"><a xlink:href="zwave__command__class__wake__up_8c.html#a113c3f11c4fb5f5eb6abccec9cf51535" target="_top" xlink:title=" ">
<polygon fill="none" stroke="black" points="332,-127.5 332,-157.5 458,-157.5 458,-127.5 332,-127.5"/>
<text text-anchor="start" x="340" y="-145.5" font-family="Helvetica,sans-Serif" font-size="10.00">handle_wake_up_interval</text>
<text text-anchor="middle" x="395" y="-134.5" font-family="Helvetica,sans-Serif" font-size="10.00">_report</text>
</a>
</g>
</g>
<!-- Node39&#45;&gt;Node43 -->
<g id="edge52" class="edge">
<title>Node39&#45;&gt;Node43</title>
<path fill="none" stroke="midnightblue" d="M276.39,-163.95C290.8,-161.32 306.68,-158.42 321.98,-155.63"/>
<polygon fill="midnightblue" stroke="midnightblue" points="322.72,-159.06 331.93,-153.82 321.47,-152.17 322.72,-159.06"/>
</g>
<!-- Node44 -->
<g id="node44" class="node">
<title>Node44</title>
<g id="a_node44"><a xlink:href="zwave__command__class__wake__up_8c.html#a37cb450d8a624bde29f877595e193d16" target="_top" xlink:title=" ">
<polygon fill="none" stroke="black" points="324,-226 324,-245 466,-245 466,-226 324,-226"/>
<text text-anchor="middle" x="395" y="-233" font-family="Helvetica,sans-Serif" font-size="10.00">handle_wake_up_notification</text>
</a>
</g>
</g>
<!-- Node39&#45;&gt;Node44 -->
<g id="edge56" class="edge">
<title>Node39&#45;&gt;Node44</title>
<path fill="none" stroke="midnightblue" d="M262.54,-183.04C271.09,-185.68 279.99,-188.84 288,-192.5 305.27,-200.39 306.69,-207.7 324,-215.5 330.12,-218.26 336.71,-220.73 343.31,-222.92"/>
<polygon fill="midnightblue" stroke="midnightblue" points="342.35,-226.29 352.94,-225.92 344.43,-219.6 342.35,-226.29"/>
</g>
<!-- Node41 -->
<g id="node41" class="node">
<title>Node41</title>
<g id="a_node41"><a xlink:href="zwave__command__class__wake__up_8c.html#a7610a0e7b1f581a8a1991541eda124ea" target="_top" xlink:title="Takes the 3 bytes of a wake_up_interval_t and saves it in the attribute store.">
<polygon fill="none" stroke="black" points="517.5,-134 517.5,-153 632.5,-153 632.5,-134 517.5,-134"/>
<text text-anchor="middle" x="575" y="-141" font-family="Helvetica,sans-Serif" font-size="10.00">save_reported_interval</text>
</a>
</g>
</g>
<!-- Node40&#45;&gt;Node41 -->
<g id="edge48" class="edge">
<title>Node40&#45;&gt;Node41</title>
<path fill="none" stroke="midnightblue" d="M451.83,-176.44C476.63,-169.76 505.44,-161.99 528.86,-155.67"/>
<polygon fill="midnightblue" stroke="midnightblue" points="529.79,-159.05 538.53,-153.06 527.97,-152.29 529.79,-159.05"/>
</g>
<!-- Node42 -->
<g id="node42" class="node">
<title>Node42</title>
<g id="a_node42"><a xlink:href="group__command__classes__utils.html#gaff12f5d1f5b9eed08201efab5854190c" target="_top" xlink:title="Find the Z&#45;Wave Endpoint ID Node attribute based on a const zwave_controller_connection_info_t object...">
<polygon fill="none" stroke="black" points="514,-174.5 514,-204.5 636,-204.5 636,-174.5 514,-174.5"/>
<text text-anchor="start" x="522" y="-192.5" font-family="Helvetica,sans-Serif" font-size="10.00">zwave_command_class</text>
<text text-anchor="middle" x="575" y="-181.5" font-family="Helvetica,sans-Serif" font-size="10.00">_get_endpoint_node</text>
</a>
</g>
</g>
<!-- Node40&#45;&gt;Node42 -->
<g id="edge49" class="edge">
<title>Node40&#45;&gt;Node42</title>
<path fill="none" stroke="midnightblue" d="M458.26,-190.8C472.92,-190.64 488.65,-190.46 503.64,-190.29"/>
<polygon fill="midnightblue" stroke="midnightblue" points="503.92,-193.79 513.88,-190.18 503.84,-186.79 503.92,-193.79"/>
</g>
<!-- Node42&#45;&gt;Node8 -->
<g id="edge50" class="edge">
<title>Node42&#45;&gt;Node8</title>
<path fill="none" stroke="midnightblue" d="M636.06,-189.44C690.16,-190.41 771.61,-194.44 841,-208.5 924.75,-225.47 969.16,-204.14 1023,-270.5 1106.77,-373.76 976.86,-462.94 1059,-567.5 1059.95,-568.71 1060.97,-569.87 1062.05,-570.96"/>
<polygon fill="midnightblue" stroke="midnightblue" points="1059.93,-573.76 1069.87,-577.43 1064.39,-568.36 1059.93,-573.76"/>
</g>
<!-- Node42&#45;&gt;Node13 -->
<g id="edge51" class="edge">
<title>Node42&#45;&gt;Node13</title>
<path fill="none" stroke="midnightblue" d="M636.41,-178.56C744.23,-160.47 964.03,-130.55 1023,-175.5 1081.06,-219.75 1114.43,-457.84 1123.17,-528.63"/>
<polygon fill="midnightblue" stroke="midnightblue" points="1119.73,-529.33 1124.4,-538.84 1126.68,-528.49 1119.73,-529.33"/>
</g>
<!-- Node43&#45;&gt;Node22 -->
<g id="edge54" class="edge">
<title>Node43&#45;&gt;Node22</title>
<path fill="none" stroke="midnightblue" d="M455.77,-127.39C471.41,-123.44 488.4,-119.14 504.5,-115.07"/>
<polygon fill="midnightblue" stroke="midnightblue" points="505.55,-118.41 514.39,-112.57 503.84,-111.63 505.55,-118.41"/>
</g>
<!-- Node43&#45;&gt;Node41 -->
<g id="edge53" class="edge">
<title>Node43&#45;&gt;Node41</title>
<path fill="none" stroke="midnightblue" d="M458.26,-142.85C474.05,-142.94 491.07,-143.03 507.08,-143.12"/>
<polygon fill="midnightblue" stroke="midnightblue" points="507.42,-146.63 517.44,-143.18 507.45,-139.63 507.42,-146.63"/>
</g>
<!-- Node43&#45;&gt;Node42 -->
<g id="edge55" class="edge">
<title>Node43&#45;&gt;Node42</title>
<path fill="none" stroke="midnightblue" d="M452.81,-157.5C470.15,-162.08 489.38,-167.16 507.31,-171.89"/>
<polygon fill="midnightblue" stroke="midnightblue" points="506.56,-175.31 517.12,-174.48 508.34,-168.54 506.56,-175.31"/>
</g>
<!-- Node44&#45;&gt;Node24 -->
<g id="edge57" class="edge">
<title>Node44&#45;&gt;Node24</title>
<path fill="none" stroke="midnightblue" d="M444.64,-245.06C466.52,-249.37 492.52,-254.48 515.46,-258.99"/>
<polygon fill="midnightblue" stroke="midnightblue" points="514.93,-262.45 525.42,-260.95 516.28,-255.58 514.93,-262.45"/>
</g>
<!-- Node44&#45;&gt;Node42 -->
<g id="edge58" class="edge">
<title>Node44&#45;&gt;Node42</title>
<path fill="none" stroke="midnightblue" d="M432.88,-225.97C454.01,-220.51 481.18,-213.49 506.04,-207.06"/>
<polygon fill="midnightblue" stroke="midnightblue" points="506.99,-210.43 515.79,-204.54 505.23,-203.66 506.99,-210.43"/>
</g>
</g>
</svg>
