<?xml version="1.0" encoding="UTF-8" standalone="no"?>
<!DOCTYPE svg PUBLIC "-//W3C//DTD SVG 1.1//EN"
 "http://www.w3.org/Graphics/SVG/1.1/DTD/svg11.dtd">
<!-- Generated by graphviz version 2.43.0 (0)
 -->
<!-- Title: zwave_controller_transport_send_data Pages: 1 -->
<svg width="401pt" height="78pt"
 viewBox="0.00 0.00 401.00 77.50" xmlns="http://www.w3.org/2000/svg" xmlns:xlink="http://www.w3.org/1999/xlink">
<g id="graph0" class="graph" transform="scale(1 1) rotate(0) translate(4 73.5)">
<title>zwave_controller_transport_send_data</title>
<!-- Node1 -->
<g id="node1" class="node">
<title>Node1</title>
<g id="a_node1"><a xlink:title="Send a frame with transport plugin system.">
<polygon fill="#bfbfbf" stroke="black" points="0,-17 0,-47 134,-47 134,-17 0,-17"/>
<text text-anchor="start" x="8" y="-35" font-family="Helvetica,sans-Serif" font-size="10.00">zwave_controller_transport</text>
<text text-anchor="middle" x="67" y="-24" font-family="Helvetica,sans-Serif" font-size="10.00">_send_data</text>
</a>
</g>
</g>
<!-- Node2 -->
<g id="node2" class="node">
<title>Node2</title>
<g id="a_node2"><a xlink:href="zwave__transport__service__wrapper_8c.html#a1ecdc6b768ff564a70d88b535b5296db" target="_top" xlink:title=" ">
<polygon fill="none" stroke="black" points="170,-22.5 170,-41.5 232,-41.5 232,-22.5 170,-22.5"/>
<text text-anchor="middle" x="201" y="-29.5" font-family="Helvetica,sans-Serif" font-size="10.00">send_data</text>
</a>
</g>
</g>
<!-- Node1&#45;&gt;Node2 -->
<g id="edge1" class="edge">
<title>Node1&#45;&gt;Node2</title>
<path fill="none" stroke="midnightblue" d="M134.39,-32C143.05,-32 151.7,-32 159.74,-32"/>
<polygon fill="midnightblue" stroke="midnightblue" points="159.92,-35.5 169.92,-32 159.92,-28.5 159.92,-35.5"/>
</g>
<!-- Node3 -->
<g id="node3" class="node">
<title>Node3</title>
<g id="a_node3"><a xlink:href="zwave__transport__service__wrapper_8c.html#a37f708fac73bae814b7bef4f7a9fc95b" target="_top" xlink:title=" ">
<polygon fill="none" stroke="black" points="268,-39 268,-69 393,-69 393,-39 268,-39"/>
<text text-anchor="start" x="276" y="-57" font-family="Helvetica,sans-Serif" font-size="10.00">on_zwave_tx_send_data</text>
<text text-anchor="middle" x="330.5" y="-46" font-family="Helvetica,sans-Serif" font-size="10.00">_complete</text>
</a>
</g>
</g>
<!-- Node2&#45;&gt;Node3 -->
<g id="edge2" class="edge">
<title>Node2&#45;&gt;Node3</title>
<path fill="none" stroke="midnightblue" d="M232.22,-37.21C240.11,-38.58 248.97,-40.1 258.03,-41.67"/>
<polygon fill="midnightblue" stroke="midnightblue" points="257.47,-45.12 267.92,-43.37 258.66,-38.22 257.47,-45.12"/>
</g>
<!-- Node4 -->
<g id="node4" class="node">
<title>Node4</title>
<g id="a_node4"><a xlink:href="group__zwave__tx.html#gad1538f36d226fe8147c5e538625568df" target="_top" xlink:title="Queue and send frames to Z&#45;Wave nodes.">
<polygon fill="none" stroke="black" points="276,-0.5 276,-19.5 385,-19.5 385,-0.5 276,-0.5"/>
<text text-anchor="middle" x="330.5" y="-7.5" font-family="Helvetica,sans-Serif" font-size="10.00">zwave_tx_send_data</text>
</a>
</g>
</g>
<!-- Node2&#45;&gt;Node4 -->
<g id="edge3" class="edge">
<title>Node2&#45;&gt;Node4</title>
<path fill="none" stroke="midnightblue" d="M232.22,-26.79C242.3,-25.05 253.94,-23.04 265.59,-21.03"/>
<polygon fill="midnightblue" stroke="midnightblue" points="266.54,-24.42 275.8,-19.27 265.35,-17.52 266.54,-24.42"/>
</g>
</g>
</svg>
