<?xml version="1.0" encoding="UTF-8" standalone="no"?>
<!DOCTYPE svg PUBLIC "-//W3C//DTD SVG 1.1//EN"
 "http://www.w3.org/Graphics/SVG/1.1/DTD/svg11.dtd">
<!-- Generated by graphviz version 2.43.0 (0)
 -->
<!-- Title: zwave_controller_encapsulation_scheme_greater_equal Pages: 1 -->
<svg width="857pt" height="176pt"
 viewBox="0.00 0.00 857.00 175.50" xmlns="http://www.w3.org/2000/svg" xmlns:xlink="http://www.w3.org/1999/xlink">
<g id="graph0" class="graph" transform="scale(1 1) rotate(0) translate(4 171.5)">
<title>zwave_controller_encapsulation_scheme_greater_equal</title>
<!-- Node1 -->
<g id="node1" class="node">
<title>Node1</title>
<g id="a_node1"><a xlink:title="Function to tell whether scheme k is greater or equal to scheme v.">
<polygon fill="#bfbfbf" stroke="black" points="694,-55 694,-85 849,-85 849,-55 694,-55"/>
<text text-anchor="start" x="702" y="-73" font-family="Helvetica,sans-Serif" font-size="10.00">zwave_controller_encapsulation</text>
<text text-anchor="middle" x="771.5" y="-62" font-family="Helvetica,sans-Serif" font-size="10.00">_scheme_greater_equal</text>
</a>
</g>
</g>
<!-- Node2 -->
<g id="node2" class="node">
<title>Node2</title>
<g id="a_node2"><a xlink:href="zwave__command__class__node__info__resolver_8c.html#a1ead83b0b81912e1938044ad2fb86368" target="_top" xlink:title=" ">
<polygon fill="none" stroke="black" points="543,-99 543,-129 642,-129 642,-99 543,-99"/>
<text text-anchor="start" x="551" y="-117" font-family="Helvetica,sans-Serif" font-size="10.00">create_secure_nifs</text>
<text text-anchor="middle" x="592.5" y="-106" font-family="Helvetica,sans-Serif" font-size="10.00">_if_missing</text>
</a>
</g>
</g>
<!-- Node1&#45;&gt;Node2 -->
<g id="edge1" class="edge">
<title>Node1&#45;&gt;Node2</title>
<path fill="none" stroke="midnightblue" d="M700.34,-87.44C680.87,-92.28 660.17,-97.43 642.22,-101.89"/>
<polygon fill="midnightblue" stroke="midnightblue" points="701.22,-90.83 710.08,-85.02 699.53,-84.04 701.22,-90.83"/>
</g>
<!-- Node7 -->
<g id="node7" class="node">
<title>Node7</title>
<g id="a_node7"><a xlink:href="zwave__command__class__node__info__resolver_8c.html#a17a378ba062b28606c84948c3fba8559" target="_top" xlink:title=" ">
<polygon fill="none" stroke="black" points="527.5,-60.5 527.5,-79.5 657.5,-79.5 657.5,-60.5 527.5,-60.5"/>
<text text-anchor="middle" x="592.5" y="-67.5" font-family="Helvetica,sans-Serif" font-size="10.00">resolve_secure_node_info</text>
</a>
</g>
</g>
<!-- Node1&#45;&gt;Node7 -->
<g id="edge7" class="edge">
<title>Node1&#45;&gt;Node7</title>
<path fill="none" stroke="midnightblue" d="M683.67,-70C674.94,-70 666.19,-70 657.75,-70"/>
<polygon fill="midnightblue" stroke="midnightblue" points="683.89,-73.5 693.89,-70 683.89,-66.5 683.89,-73.5"/>
</g>
<!-- Node8 -->
<g id="node8" class="node">
<title>Node8</title>
<g id="a_node8"><a xlink:href="group__zwave__security__validation.html#ga8f0224aa1344af06e424ee8e86214f6a" target="_top" xlink:title="Verifies if a frame supported by us can be accepted based on the security it was received on.">
<polygon fill="none" stroke="black" points="527,-0.5 527,-41.5 658,-41.5 658,-0.5 527,-0.5"/>
<text text-anchor="start" x="535" y="-29.5" font-family="Helvetica,sans-Serif" font-size="10.00">zwave_security_validation</text>
<text text-anchor="start" x="535" y="-18.5" font-family="Helvetica,sans-Serif" font-size="10.00">_is_security_valid_for</text>
<text text-anchor="middle" x="592.5" y="-7.5" font-family="Helvetica,sans-Serif" font-size="10.00">_support</text>
</a>
</g>
</g>
<!-- Node1&#45;&gt;Node8 -->
<g id="edge9" class="edge">
<title>Node1&#45;&gt;Node8</title>
<path fill="none" stroke="midnightblue" d="M705.9,-52.12C690.33,-47.81 673.69,-43.2 658.12,-38.89"/>
<polygon fill="midnightblue" stroke="midnightblue" points="705.38,-55.6 715.95,-54.9 707.25,-48.86 705.38,-55.6"/>
</g>
<!-- Node3 -->
<g id="node3" class="node">
<title>Node3</title>
<g id="a_node3"><a xlink:href="zwave__command__class__node__info__resolver_8c.html#a1432f8191a83b8d0ad5906bc65dfc243" target="_top" xlink:title=" ">
<polygon fill="none" stroke="black" points="372.5,-137 372.5,-167 476.5,-167 476.5,-137 372.5,-137"/>
<text text-anchor="start" x="380.5" y="-155" font-family="Helvetica,sans-Serif" font-size="10.00">on_granted_security</text>
<text text-anchor="middle" x="424.5" y="-144" font-family="Helvetica,sans-Serif" font-size="10.00">_key_update</text>
</a>
</g>
</g>
<!-- Node2&#45;&gt;Node3 -->
<g id="edge2" class="edge">
<title>Node2&#45;&gt;Node3</title>
<path fill="none" stroke="midnightblue" d="M532.64,-127.47C514.36,-131.66 494.36,-136.24 476.65,-140.29"/>
<polygon fill="midnightblue" stroke="midnightblue" points="533.63,-130.84 542.59,-125.2 532.06,-124.02 533.63,-130.84"/>
</g>
<!-- Node6 -->
<g id="node6" class="node">
<title>Node6</title>
<g id="a_node6"><a xlink:href="zwave__command__class__node__info__resolver_8c.html#a3922df75d3ca3f6b2feb8ef5c43418f5" target="_top" xlink:title=" ">
<polygon fill="none" stroke="black" points="358,-98.5 358,-117.5 491,-117.5 491,-98.5 358,-98.5"/>
<text text-anchor="middle" x="424.5" y="-105.5" font-family="Helvetica,sans-Serif" font-size="10.00">on_non_secure_nif_update</text>
</a>
</g>
</g>
<!-- Node2&#45;&gt;Node6 -->
<g id="edge5" class="edge">
<title>Node2&#45;&gt;Node6</title>
<path fill="none" stroke="midnightblue" d="M532.57,-111.87C519.2,-111.39 504.92,-110.87 491.29,-110.38"/>
<polygon fill="midnightblue" stroke="midnightblue" points="532.47,-115.37 542.59,-112.23 532.73,-108.37 532.47,-115.37"/>
</g>
<!-- Node4 -->
<g id="node4" class="node">
<title>Node4</title>
<g id="a_node4"><a xlink:href="group__zwave__nif__resolver.html#gae3d7718b1013ff52f8ea4984621b762c" target="_top" xlink:title="Registers callbacks to the attribute store and rules to the attribute resolver to be able to resolve ...">
<polygon fill="none" stroke="black" points="193,-83 193,-113 315,-113 315,-83 193,-83"/>
<text text-anchor="start" x="201" y="-101" font-family="Helvetica,sans-Serif" font-size="10.00">zwave_command_class</text>
<text text-anchor="middle" x="254" y="-90" font-family="Helvetica,sans-Serif" font-size="10.00">_node_info_resolver_init</text>
</a>
</g>
</g>
<!-- Node3&#45;&gt;Node4 -->
<g id="edge3" class="edge">
<title>Node3&#45;&gt;Node4</title>
<path fill="none" stroke="midnightblue" d="M366.77,-133.82C345.71,-127.07 322.07,-119.5 301.98,-113.05"/>
<polygon fill="midnightblue" stroke="midnightblue" points="365.97,-137.24 376.56,-136.96 368.11,-130.57 365.97,-137.24"/>
</g>
<!-- Node5 -->
<g id="node5" class="node">
<title>Node5</title>
<g id="a_node5"><a xlink:href="group__command__classes__fixt.html#ga5272651939ced1723158340039e8da19" target="_top" xlink:title="Setup fixture for Z&#45;Wave Command Classes.">
<polygon fill="none" stroke="black" points="0,-54.5 0,-73.5 150,-73.5 150,-54.5 0,-54.5"/>
<text text-anchor="middle" x="75" y="-61.5" font-family="Helvetica,sans-Serif" font-size="10.00">zwave_command_classes_init</text>
</a>
</g>
</g>
<!-- Node4&#45;&gt;Node5 -->
<g id="edge4" class="edge">
<title>Node4&#45;&gt;Node5</title>
<path fill="none" stroke="midnightblue" d="M182.71,-84.5C163.59,-80.83 143.29,-76.93 125.58,-73.52"/>
<polygon fill="midnightblue" stroke="midnightblue" points="182.1,-87.94 192.58,-86.39 183.42,-81.07 182.1,-87.94"/>
</g>
<!-- Node6&#45;&gt;Node4 -->
<g id="edge6" class="edge">
<title>Node6&#45;&gt;Node4</title>
<path fill="none" stroke="midnightblue" d="M347.56,-103.49C336.73,-102.85 325.7,-102.2 315.22,-101.57"/>
<polygon fill="midnightblue" stroke="midnightblue" points="347.68,-107.01 357.87,-104.11 348.1,-100.02 347.68,-107.01"/>
</g>
<!-- Node7&#45;&gt;Node4 -->
<g id="edge8" class="edge">
<title>Node7&#45;&gt;Node4</title>
<path fill="none" stroke="midnightblue" d="M516.92,-75.95C471.07,-79.64 411.13,-84.52 358,-89 344.14,-90.17 329.23,-91.46 315.18,-92.68"/>
<polygon fill="midnightblue" stroke="midnightblue" points="517.38,-79.43 527.07,-75.14 516.82,-72.45 517.38,-79.43"/>
</g>
<!-- Node9 -->
<g id="node9" class="node">
<title>Node9</title>
<g id="a_node9"><a xlink:href="zwave__command__class__manufacturer__specific_8c.html#ad5bb8ee2108954f010636d93e41755f6" target="_top" xlink:title="Handles incoming manufacturer specific encapsulated commands.">
<polygon fill="none" stroke="black" points="363.5,-0.5 363.5,-41.5 485.5,-41.5 485.5,-0.5 363.5,-0.5"/>
<text text-anchor="start" x="371.5" y="-29.5" font-family="Helvetica,sans-Serif" font-size="10.00">zwave_command_class</text>
<text text-anchor="start" x="371.5" y="-18.5" font-family="Helvetica,sans-Serif" font-size="10.00">_manufacturer_specific</text>
<text text-anchor="middle" x="424.5" y="-7.5" font-family="Helvetica,sans-Serif" font-size="10.00">_support_handler</text>
</a>
</g>
</g>
<!-- Node8&#45;&gt;Node9 -->
<g id="edge10" class="edge">
<title>Node8&#45;&gt;Node9</title>
<path fill="none" stroke="midnightblue" d="M516.57,-21C506.21,-21 495.68,-21 485.64,-21"/>
<polygon fill="midnightblue" stroke="midnightblue" points="516.84,-24.5 526.84,-21 516.84,-17.5 516.84,-24.5"/>
</g>
<!-- Node10 -->
<g id="node10" class="node">
<title>Node10</title>
<g id="a_node10"><a xlink:href="zwave__command__class__manufacturer__specific_8c.html#a68b75e94eac46dc0380c3f045ab0653b" target="_top" xlink:title="setup for manufacturer specific command class">
<polygon fill="none" stroke="black" points="186,-25 186,-55 322,-55 322,-25 186,-25"/>
<text text-anchor="start" x="194" y="-43" font-family="Helvetica,sans-Serif" font-size="10.00">zwave_command_class</text>
<text text-anchor="middle" x="254" y="-32" font-family="Helvetica,sans-Serif" font-size="10.00">_manufacturer_specific_init</text>
</a>
</g>
</g>
<!-- Node9&#45;&gt;Node10 -->
<g id="edge11" class="edge">
<title>Node9&#45;&gt;Node10</title>
<path fill="none" stroke="midnightblue" d="M353.02,-28.95C342.78,-30.1 332.25,-31.29 322.08,-32.44"/>
<polygon fill="midnightblue" stroke="midnightblue" points="353.6,-32.4 363.14,-27.81 352.81,-25.45 353.6,-32.4"/>
</g>
<!-- Node10&#45;&gt;Node5 -->
<g id="edge12" class="edge">
<title>Node10&#45;&gt;Node5</title>
<path fill="none" stroke="midnightblue" d="M175.66,-50.49C165.82,-51.82 155.79,-53.18 146.07,-54.5"/>
<polygon fill="midnightblue" stroke="midnightblue" points="176.39,-53.92 185.83,-49.11 175.45,-46.98 176.39,-53.92"/>
</g>
</g>
</svg>
