<?xml version="1.0" encoding="UTF-8" standalone="no"?>
<!DOCTYPE svg PUBLIC "-//W3C//DTD SVG 1.1//EN"
 "http://www.w3.org/Graphics/SVG/1.1/DTD/svg11.dtd">
<!-- Generated by graphviz version 2.43.0 (0)
 -->
<!-- Title: attribute_store_get_endpoint_0_node Pages: 1 -->
<svg width="1128pt" height="184pt"
 viewBox="0.00 0.00 1128.00 183.50" xmlns="http://www.w3.org/2000/svg" xmlns:xlink="http://www.w3.org/1999/xlink">
<g id="graph0" class="graph" transform="scale(1 1) rotate(0) translate(4 179.5)">
<title>attribute_store_get_endpoint_0_node</title>
<!-- Node1 -->
<g id="node1" class="node">
<title>Node1</title>
<g id="a_node1"><a xlink:title="Returns the Attribute Store node for Endpoint 0, under a NodeID node.">
<polygon fill="#bfbfbf" stroke="black" points="1022,-96 1022,-126 1120,-126 1120,-96 1022,-96"/>
<text text-anchor="start" x="1030" y="-114" font-family="Helvetica,sans-Serif" font-size="10.00">attribute_store_get</text>
<text text-anchor="middle" x="1071" y="-103" font-family="Helvetica,sans-Serif" font-size="10.00">_endpoint_0_node</text>
</a>
</g>
</g>
<!-- Node2 -->
<g id="node2" class="node">
<title>Node2</title>
<g id="a_node2"><a xlink:href="zwave__command__class__granted__keys__resolver_8c.html#a8db576f0183b58aba47c8e28d14ebe78" target="_top" xlink:title="Create a list of keys/protocol objects to resolve.">
<polygon fill="none" stroke="black" points="856.5,-96 856.5,-126 963.5,-126 963.5,-96 856.5,-96"/>
<text text-anchor="start" x="864.5" y="-114" font-family="Helvetica,sans-Serif" font-size="10.00">create_list_of_keys</text>
<text text-anchor="middle" x="910" y="-103" font-family="Helvetica,sans-Serif" font-size="10.00">_protocol_to_resolve</text>
</a>
</g>
</g>
<!-- Node1&#45;&gt;Node2 -->
<g id="edge1" class="edge">
<title>Node1&#45;&gt;Node2</title>
<path fill="none" stroke="midnightblue" d="M1011.73,-111C996.01,-111 979.09,-111 963.69,-111"/>
<polygon fill="midnightblue" stroke="midnightblue" points="1011.86,-114.5 1021.86,-111 1011.86,-107.5 1011.86,-114.5"/>
</g>
<!-- Node7 -->
<g id="node7" class="node">
<title>Node7</title>
<g id="a_node7"><a xlink:href="zwave__command__class__granted__keys__resolver_8c.html#a89837c6f52ad963a8943085fec4afa5d" target="_top" xlink:title="Remove some discovery combinations if we know the protocol.">
<polygon fill="none" stroke="black" points="834,-44 834,-74 986,-74 986,-44 834,-44"/>
<text text-anchor="start" x="842" y="-62" font-family="Helvetica,sans-Serif" font-size="10.00">exclude_combinations</text>
<text text-anchor="middle" x="910" y="-51" font-family="Helvetica,sans-Serif" font-size="10.00">_with_protocol_from_discovery</text>
</a>
</g>
</g>
<!-- Node1&#45;&gt;Node7 -->
<g id="edge7" class="edge">
<title>Node1&#45;&gt;Node7</title>
<path fill="none" stroke="midnightblue" d="M1014.39,-92.81C995.59,-86.67 974.84,-79.88 956.89,-74.01"/>
<polygon fill="midnightblue" stroke="midnightblue" points="1013.42,-96.18 1024.01,-95.96 1015.59,-89.52 1013.42,-96.18"/>
</g>
<!-- Node15 -->
<g id="node15" class="node">
<title>Node15</title>
<g id="a_node15"><a xlink:href="zwave__command__class__granted__keys__resolver_8c.html#a0d76b9377c99cb20933ba60435d220d1" target="_top" xlink:title="Verifies if the Non&#45;secure NIF is already resolved.">
<polygon fill="none" stroke="black" points="869,-145.5 869,-164.5 951,-164.5 951,-145.5 869,-145.5"/>
<text text-anchor="middle" x="910" y="-152.5" font-family="Helvetica,sans-Serif" font-size="10.00">is_nif_resolved</text>
</a>
</g>
</g>
<!-- Node1&#45;&gt;Node15 -->
<g id="edge17" class="edge">
<title>Node1&#45;&gt;Node15</title>
<path fill="none" stroke="midnightblue" d="M1011.93,-127.74C1003.24,-130.2 994.39,-132.68 986,-135 973.4,-138.48 959.58,-142.19 947.28,-145.47"/>
<polygon fill="midnightblue" stroke="midnightblue" points="1012.96,-131.08 1021.62,-124.98 1011.05,-124.35 1012.96,-131.08"/>
</g>
<!-- Node3 -->
<g id="node3" class="node">
<title>Node3</title>
<g id="a_node3"><a xlink:href="zwave__command__class__granted__keys__resolver_8c.html#a74a98b0cd4bbe97369750b3f46c1fbee" target="_top" xlink:title=" ">
<polygon fill="none" stroke="black" points="676,-145 676,-175 798,-175 798,-145 676,-145"/>
<text text-anchor="start" x="684" y="-163" font-family="Helvetica,sans-Serif" font-size="10.00">zwave_command_class</text>
<text text-anchor="middle" x="737" y="-152" font-family="Helvetica,sans-Serif" font-size="10.00">_get_granted_keys</text>
</a>
</g>
</g>
<!-- Node2&#45;&gt;Node3 -->
<g id="edge2" class="edge">
<title>Node2&#45;&gt;Node3</title>
<path fill="none" stroke="midnightblue" d="M846.55,-128.89C828.16,-134.16 808.23,-139.88 790.53,-144.95"/>
<polygon fill="midnightblue" stroke="midnightblue" points="847.65,-132.22 856.3,-126.1 845.72,-125.49 847.65,-132.22"/>
</g>
<!-- Node6 -->
<g id="node6" class="node">
<title>Node6</title>
<g id="a_node6"><a xlink:href="zwave__command__class__granted__keys__resolver_8c.html#a01f00fa8761d22472cefe7c8d53266cf" target="_top" xlink:title=" ">
<polygon fill="none" stroke="black" points="676,-96 676,-126 798,-126 798,-96 676,-96"/>
<text text-anchor="start" x="684" y="-114" font-family="Helvetica,sans-Serif" font-size="10.00">zwave_command_class</text>
<text text-anchor="middle" x="737" y="-103" font-family="Helvetica,sans-Serif" font-size="10.00">_get_inclusion_protocol</text>
</a>
</g>
</g>
<!-- Node2&#45;&gt;Node6 -->
<g id="edge5" class="edge">
<title>Node2&#45;&gt;Node6</title>
<path fill="none" stroke="midnightblue" d="M846.2,-111C830.56,-111 813.82,-111 798.3,-111"/>
<polygon fill="midnightblue" stroke="midnightblue" points="846.3,-114.5 856.3,-111 846.3,-107.5 846.3,-114.5"/>
</g>
<!-- Node4 -->
<g id="node4" class="node">
<title>Node4</title>
<g id="a_node4"><a xlink:href="group__zwave__granted__keys.html#ga1e9daa986c6a8ce94e4301aaa01e74a4" target="_top" xlink:title="Registers callbacks to the attribute store and rules to the attribute resolver to be able to resolve ...">
<polygon fill="none" stroke="black" points="502,-121 502,-151 640,-151 640,-121 502,-121"/>
<text text-anchor="start" x="510" y="-139" font-family="Helvetica,sans-Serif" font-size="10.00">zwave_command_class</text>
<text text-anchor="middle" x="571" y="-128" font-family="Helvetica,sans-Serif" font-size="10.00">_granted_keys_resolver_init</text>
</a>
</g>
</g>
<!-- Node3&#45;&gt;Node4 -->
<g id="edge3" class="edge">
<title>Node3&#45;&gt;Node4</title>
<path fill="none" stroke="midnightblue" d="M665.94,-149.75C657.4,-148.5 648.68,-147.22 640.17,-145.98"/>
<polygon fill="midnightblue" stroke="midnightblue" points="665.46,-153.21 675.86,-151.2 666.48,-146.29 665.46,-153.21"/>
</g>
<!-- Node5 -->
<g id="node5" class="node">
<title>Node5</title>
<g id="a_node5"><a xlink:href="group__command__classes__fixt.html#ga5272651939ced1723158340039e8da19" target="_top" xlink:title="Setup fixture for Z&#45;Wave Command Classes.">
<polygon fill="none" stroke="black" points="0,-71.5 0,-90.5 150,-90.5 150,-71.5 0,-71.5"/>
<text text-anchor="middle" x="75" y="-78.5" font-family="Helvetica,sans-Serif" font-size="10.00">zwave_command_classes_init</text>
</a>
</g>
</g>
<!-- Node4&#45;&gt;Node5 -->
<g id="edge4" class="edge">
<title>Node4&#45;&gt;Node5</title>
<path fill="none" stroke="midnightblue" d="M491.5,-132.75C413.64,-128.8 291.1,-120.64 186,-105 161.74,-101.39 134.83,-95.55 113.7,-90.54"/>
<polygon fill="midnightblue" stroke="midnightblue" points="491.55,-136.26 501.71,-133.26 491.89,-129.27 491.55,-136.26"/>
</g>
<!-- Node6&#45;&gt;Node4 -->
<g id="edge6" class="edge">
<title>Node6&#45;&gt;Node4</title>
<path fill="none" stroke="midnightblue" d="M665.94,-121.68C657.4,-122.98 648.68,-124.31 640.17,-125.61"/>
<polygon fill="midnightblue" stroke="midnightblue" points="666.51,-125.13 675.86,-120.17 665.45,-118.21 666.51,-125.13"/>
</g>
<!-- Node8 -->
<g id="node8" class="node">
<title>Node8</title>
<g id="a_node8"><a xlink:href="group__zwave__granted__keys.html#gacb95eae0e7a3adbbba13fd3116addd46" target="_top" xlink:title="Updates the Attribute Store to indicate that the Security key and Protocol that we just used are work...">
<polygon fill="none" stroke="black" points="676,-35.5 676,-76.5 798,-76.5 798,-35.5 676,-35.5"/>
<text text-anchor="start" x="684" y="-64.5" font-family="Helvetica,sans-Serif" font-size="10.00">zwave_command_class</text>
<text text-anchor="start" x="684" y="-53.5" font-family="Helvetica,sans-Serif" font-size="10.00">_mark_key_protocol_as</text>
<text text-anchor="middle" x="737" y="-42.5" font-family="Helvetica,sans-Serif" font-size="10.00">_supported</text>
</a>
</g>
</g>
<!-- Node7&#45;&gt;Node8 -->
<g id="edge8" class="edge">
<title>Node7&#45;&gt;Node8</title>
<path fill="none" stroke="midnightblue" d="M823.81,-57.51C815.1,-57.35 806.4,-57.2 798.05,-57.05"/>
<polygon fill="midnightblue" stroke="midnightblue" points="823.94,-61.01 834,-57.68 824.06,-54.01 823.94,-61.01"/>
</g>
<!-- Node9 -->
<g id="node9" class="node">
<title>Node9</title>
<g id="a_node9"><a xlink:href="zwave__command__class__security__0_8c.html#a5cf6b9b12b9423c27a470a35d57d1a8c" target="_top" xlink:title=" ">
<polygon fill="none" stroke="black" points="510,-0.5 510,-41.5 632,-41.5 632,-0.5 510,-0.5"/>
<text text-anchor="start" x="518" y="-29.5" font-family="Helvetica,sans-Serif" font-size="10.00">zwave_command_class</text>
<text text-anchor="start" x="518" y="-18.5" font-family="Helvetica,sans-Serif" font-size="10.00">_security_0_commands</text>
<text text-anchor="middle" x="571" y="-7.5" font-family="Helvetica,sans-Serif" font-size="10.00">_supported_report</text>
</a>
</g>
</g>
<!-- Node8&#45;&gt;Node9 -->
<g id="edge9" class="edge">
<title>Node8&#45;&gt;Node9</title>
<path fill="none" stroke="midnightblue" d="M666.05,-41.07C654.76,-38.66 643.16,-36.19 632.13,-33.83"/>
<polygon fill="midnightblue" stroke="midnightblue" points="665.35,-44.5 675.86,-43.17 666.81,-37.66 665.35,-44.5"/>
</g>
<!-- Node12 -->
<g id="node12" class="node">
<title>Node12</title>
<g id="a_node12"><a xlink:href="zwave__command__class__security__2_8c.html#ad6cf88ba96647fbb110ad024d13ad927" target="_top" xlink:title=" ">
<polygon fill="none" stroke="black" points="510,-60.5 510,-101.5 632,-101.5 632,-60.5 510,-60.5"/>
<text text-anchor="start" x="518" y="-89.5" font-family="Helvetica,sans-Serif" font-size="10.00">zwave_command_class</text>
<text text-anchor="start" x="518" y="-78.5" font-family="Helvetica,sans-Serif" font-size="10.00">_security_2_commands</text>
<text text-anchor="middle" x="571" y="-67.5" font-family="Helvetica,sans-Serif" font-size="10.00">_supported_report</text>
</a>
</g>
</g>
<!-- Node8&#45;&gt;Node12 -->
<g id="edge13" class="edge">
<title>Node8&#45;&gt;Node12</title>
<path fill="none" stroke="midnightblue" d="M665.7,-66.72C654.52,-68.42 643.05,-70.17 632.13,-71.83"/>
<polygon fill="midnightblue" stroke="midnightblue" points="666.51,-70.13 675.86,-65.17 665.45,-63.21 666.51,-70.13"/>
</g>
<!-- Node10 -->
<g id="node10" class="node">
<title>Node10</title>
<g id="a_node10"><a xlink:href="group__security__0__command__class.html#gaf1dd75d7ea7af6746142a01c7f9aed2e" target="_top" xlink:title=" ">
<polygon fill="none" stroke="black" points="344,-0.5 344,-41.5 466,-41.5 466,-0.5 344,-0.5"/>
<text text-anchor="start" x="352" y="-29.5" font-family="Helvetica,sans-Serif" font-size="10.00">zwave_command_class</text>
<text text-anchor="start" x="352" y="-18.5" font-family="Helvetica,sans-Serif" font-size="10.00">_security_0_control</text>
<text text-anchor="middle" x="405" y="-7.5" font-family="Helvetica,sans-Serif" font-size="10.00">_handler</text>
</a>
</g>
</g>
<!-- Node9&#45;&gt;Node10 -->
<g id="edge10" class="edge">
<title>Node9&#45;&gt;Node10</title>
<path fill="none" stroke="midnightblue" d="M499.7,-21C488.52,-21 477.05,-21 466.13,-21"/>
<polygon fill="midnightblue" stroke="midnightblue" points="499.86,-24.5 509.86,-21 499.86,-17.5 499.86,-24.5"/>
</g>
<!-- Node11 -->
<g id="node11" class="node">
<title>Node11</title>
<g id="a_node11"><a xlink:href="group__security__0__command__class.html#ga7460f029f90a343242e45c6233e1cdc2" target="_top" xlink:title="Intitialize the Security 0 Command Class handler.">
<polygon fill="none" stroke="black" points="186,-12 186,-42 308,-42 308,-12 186,-12"/>
<text text-anchor="start" x="194" y="-30" font-family="Helvetica,sans-Serif" font-size="10.00">zwave_command_class</text>
<text text-anchor="middle" x="247" y="-19" font-family="Helvetica,sans-Serif" font-size="10.00">_security_0_init</text>
</a>
</g>
</g>
<!-- Node10&#45;&gt;Node11 -->
<g id="edge11" class="edge">
<title>Node10&#45;&gt;Node11</title>
<path fill="none" stroke="midnightblue" d="M333.46,-23.71C325.01,-24.04 316.44,-24.37 308.15,-24.69"/>
<polygon fill="midnightblue" stroke="midnightblue" points="333.83,-27.2 343.69,-23.32 333.56,-20.21 333.83,-27.2"/>
</g>
<!-- Node11&#45;&gt;Node5 -->
<g id="edge12" class="edge">
<title>Node11&#45;&gt;Node5</title>
<path fill="none" stroke="midnightblue" d="M189.02,-45.1C161.23,-53.93 128.93,-64.19 106,-71.47"/>
<polygon fill="midnightblue" stroke="midnightblue" points="190.17,-48.41 198.65,-42.04 188.06,-41.73 190.17,-48.41"/>
</g>
<!-- Node13 -->
<g id="node13" class="node">
<title>Node13</title>
<g id="a_node13"><a xlink:href="zwave__command__class__security__2_8c.html#aa9d9bbdae7f77c34856a744f20f6bd34" target="_top" xlink:title=" ">
<polygon fill="none" stroke="black" points="344,-60.5 344,-101.5 466,-101.5 466,-60.5 344,-60.5"/>
<text text-anchor="start" x="352" y="-89.5" font-family="Helvetica,sans-Serif" font-size="10.00">zwave_command_class</text>
<text text-anchor="start" x="352" y="-78.5" font-family="Helvetica,sans-Serif" font-size="10.00">_security_2_control</text>
<text text-anchor="middle" x="405" y="-67.5" font-family="Helvetica,sans-Serif" font-size="10.00">_handler</text>
</a>
</g>
</g>
<!-- Node12&#45;&gt;Node13 -->
<g id="edge14" class="edge">
<title>Node12&#45;&gt;Node13</title>
<path fill="none" stroke="midnightblue" d="M499.7,-81C488.52,-81 477.05,-81 466.13,-81"/>
<polygon fill="midnightblue" stroke="midnightblue" points="499.86,-84.5 509.86,-81 499.86,-77.5 499.86,-84.5"/>
</g>
<!-- Node14 -->
<g id="node14" class="node">
<title>Node14</title>
<g id="a_node14"><a xlink:href="group__security__2__command__class.html#ga8d46dba73126d88511566e7ae09eced5" target="_top" xlink:title="Intitialize the security 2 command class handler.">
<polygon fill="none" stroke="black" points="186,-66 186,-96 308,-96 308,-66 186,-66"/>
<text text-anchor="start" x="194" y="-84" font-family="Helvetica,sans-Serif" font-size="10.00">zwave_command_class</text>
<text text-anchor="middle" x="247" y="-73" font-family="Helvetica,sans-Serif" font-size="10.00">_security_2_init</text>
</a>
</g>
</g>
<!-- Node13&#45;&gt;Node14 -->
<g id="edge15" class="edge">
<title>Node13&#45;&gt;Node14</title>
<path fill="none" stroke="midnightblue" d="M333.46,-81C325.01,-81 316.44,-81 308.15,-81"/>
<polygon fill="midnightblue" stroke="midnightblue" points="333.69,-84.5 343.69,-81 333.69,-77.5 333.69,-84.5"/>
</g>
<!-- Node14&#45;&gt;Node5 -->
<g id="edge16" class="edge">
<title>Node14&#45;&gt;Node5</title>
<path fill="none" stroke="midnightblue" d="M175.51,-81C167.16,-81 158.61,-81 150.21,-81"/>
<polygon fill="midnightblue" stroke="midnightblue" points="175.59,-84.5 185.59,-81 175.59,-77.5 175.59,-84.5"/>
</g>
<!-- Node15&#45;&gt;Node3 -->
<g id="edge18" class="edge">
<title>Node15&#45;&gt;Node3</title>
<path fill="none" stroke="midnightblue" d="M858.7,-156.47C839.77,-157.02 818.03,-157.66 798.28,-158.24"/>
<polygon fill="midnightblue" stroke="midnightblue" points="859.01,-159.96 868.91,-156.17 858.81,-152.97 859.01,-159.96"/>
</g>
<!-- Node15&#45;&gt;Node6 -->
<g id="edge19" class="edge">
<title>Node15&#45;&gt;Node6</title>
<path fill="none" stroke="midnightblue" d="M861.99,-142.9C841.76,-137.7 817.91,-131.56 796.55,-126.07"/>
<polygon fill="midnightblue" stroke="midnightblue" points="861.34,-146.35 871.9,-145.45 863.08,-139.57 861.34,-146.35"/>
</g>
</g>
</svg>
