<?xml version="1.0" encoding="UTF-8" standalone="no"?>
<!DOCTYPE svg PUBLIC "-//W3C//DTD SVG 1.1//EN"
 "http://www.w3.org/Graphics/SVG/1.1/DTD/svg11.dtd">
<!-- Generated by graphviz version 2.43.0 (0)
 -->
<!-- Title: zwave_s2_keystore_get_dsk Pages: 1 -->
<svg width="486pt" height="94pt"
 viewBox="0.00 0.00 486.00 93.50" xmlns="http://www.w3.org/2000/svg" xmlns:xlink="http://www.w3.org/1999/xlink">
<g id="graph0" class="graph" transform="scale(1 1) rotate(0) translate(4 89.5)">
<title>zwave_s2_keystore_get_dsk</title>
<!-- Node1 -->
<g id="node1" class="node">
<title>Node1</title>
<g id="a_node1"><a xlink:title="Return one of the DSKs of the controller.">
<polygon fill="#bfbfbf" stroke="black" points="335,-28 335,-47 478,-47 478,-28 335,-28"/>
<text text-anchor="middle" x="406.5" y="-35" font-family="Helvetica,sans-Serif" font-size="10.00">zwave_s2_keystore_get_dsk</text>
</a>
</g>
</g>
<!-- Node2 -->
<g id="node2" class="node">
<title>Node2</title>
<g id="a_node2"><a xlink:href="nm__state__machine_8c.html#ac9fe4041f9ca45bad16c9b6ad7bae02f" target="_top" xlink:title=" ">
<polygon fill="none" stroke="black" points="188,-48 188,-67 293,-67 293,-48 188,-48"/>
<text text-anchor="middle" x="240.5" y="-55" font-family="Helvetica,sans-Serif" font-size="10.00">nm_fsm_post_event</text>
</a>
</g>
</g>
<!-- Node1&#45;&gt;Node2 -->
<g id="edge1" class="edge">
<title>Node1&#45;&gt;Node2</title>
<path fill="none" stroke="midnightblue" d="M325.05,-47.31C314.19,-48.63 303.3,-49.96 293.12,-51.2"/>
<polygon fill="midnightblue" stroke="midnightblue" points="325.49,-50.78 335,-46.1 324.65,-43.83 325.49,-50.78"/>
</g>
<!-- Node4 -->
<g id="node4" class="node">
<title>Node4</title>
<g id="a_node4"><a xlink:href="nm__state__machine_8c.html#a4bedb93fa551c5f612efe78db1642309" target="_top" xlink:title="Initialize the Z&#45;Wave network management state machine.">
<polygon fill="none" stroke="black" points="182,-9 182,-28 299,-28 299,-9 182,-9"/>
<text text-anchor="middle" x="240.5" y="-16" font-family="Helvetica,sans-Serif" font-size="10.00">nm_state_machine_init</text>
</a>
</g>
</g>
<!-- Node1&#45;&gt;Node4 -->
<g id="edge4" class="edge">
<title>Node1&#45;&gt;Node4</title>
<path fill="none" stroke="midnightblue" d="M324.83,-28.15C316.15,-27.15 307.44,-26.14 299.1,-25.17"/>
<polygon fill="midnightblue" stroke="midnightblue" points="324.66,-31.66 335,-29.33 325.47,-24.7 324.66,-31.66"/>
</g>
<!-- Node2&#45;&gt;Node2 -->
<g id="edge2" class="edge">
<title>Node2&#45;&gt;Node2</title>
<path fill="none" stroke="midnightblue" d="M271.56,-75.77C270.68,-81.24 260.32,-85.5 240.5,-85.5 211,-85.5 202.47,-76.07 214.91,-67.26"/>
<polygon fill="midnightblue" stroke="midnightblue" points="274.44,-73.77 266.09,-67.26 268.55,-77.56 274.44,-73.77"/>
</g>
<!-- Node3 -->
<g id="node3" class="node">
<title>Node3</title>
<g id="a_node3"><a xlink:href="zwave__network__management__process_8c.html#a59cf655b084839b45cc25e23b3aef04c" target="_top" xlink:title=" ">
<polygon fill="none" stroke="black" points="16.5,-50 16.5,-69 129.5,-69 129.5,-50 16.5,-50"/>
<text text-anchor="middle" x="73" y="-57" font-family="Helvetica,sans-Serif" font-size="10.00">PROCESS_THREAD</text>
</a>
</g>
</g>
<!-- Node2&#45;&gt;Node3 -->
<g id="edge3" class="edge">
<title>Node2&#45;&gt;Node3</title>
<path fill="none" stroke="midnightblue" d="M177.47,-58.25C161.8,-58.44 145.08,-58.64 129.74,-58.83"/>
<polygon fill="midnightblue" stroke="midnightblue" points="177.63,-61.75 187.59,-58.13 177.55,-54.75 177.63,-61.75"/>
</g>
<!-- Node5 -->
<g id="node5" class="node">
<title>Node5</title>
<g id="a_node5"><a xlink:href="group__zwave__network__management__fixt.html#gaa8950dbf92037e3ec5e0385641176c98" target="_top" xlink:title="Initialize the Z&#45;Wave Network Management Module.">
<polygon fill="none" stroke="black" points="0,-0.5 0,-30.5 146,-30.5 146,-0.5 0,-0.5"/>
<text text-anchor="start" x="8" y="-18.5" font-family="Helvetica,sans-Serif" font-size="10.00">zwave_network_management</text>
<text text-anchor="middle" x="73" y="-7.5" font-family="Helvetica,sans-Serif" font-size="10.00">_fixt_setup</text>
</a>
</g>
</g>
<!-- Node4&#45;&gt;Node5 -->
<g id="edge5" class="edge">
<title>Node4&#45;&gt;Node5</title>
<path fill="none" stroke="midnightblue" d="M171.52,-17.27C163.14,-17.12 154.55,-16.96 146.11,-16.81"/>
<polygon fill="midnightblue" stroke="midnightblue" points="171.55,-20.77 181.62,-17.45 171.68,-13.77 171.55,-20.77"/>
</g>
</g>
</svg>
