<?xml version="1.0" encoding="UTF-8" standalone="no"?>
<!DOCTYPE svg PUBLIC "-//W3C//DTD SVG 1.1//EN"
 "http://www.w3.org/Graphics/SVG/1.1/DTD/svg11.dtd">
<!-- Generated by graphviz version 2.43.0 (0)
 -->
<!-- Title: zpc_attribute_resolver_init Pages: 1 -->
<svg width="1335pt" height="646pt"
 viewBox="0.00 0.00 1335.00 645.50" xmlns="http://www.w3.org/2000/svg" xmlns:xlink="http://www.w3.org/1999/xlink">
<g id="graph0" class="graph" transform="scale(1 1) rotate(0) translate(4 641.5)">
<title>zpc_attribute_resolver_init</title>
<!-- Node1 -->
<g id="node1" class="node">
<title>Node1</title>
<g id="a_node1"><a xlink:title="Initialize the ZPC attribute resolver, which in turn calls Unify attribute resolver init.">
<polygon fill="#bfbfbf" stroke="black" points="0,-296 0,-315 131,-315 131,-296 0,-296"/>
<text text-anchor="middle" x="65.5" y="-303" font-family="Helvetica,sans-Serif" font-size="10.00">zpc_attribute_resolver_init</text>
</a>
</g>
</g>
<!-- Node2 -->
<g id="node2" class="node">
<title>Node2</title>
<g id="a_node2"><a xlink:href="group__zpc__attribute__resolver__callbacks.html#gaeadd5482c3aa0371af1156ebb049fc85" target="_top" xlink:title="Aborts that removes a node from the resolution list.">
<polygon fill="none" stroke="black" points="167,-356.5 167,-386.5 297,-386.5 297,-356.5 167,-356.5"/>
<text text-anchor="start" x="175" y="-374.5" font-family="Helvetica,sans-Serif" font-size="10.00">attribute_resolver</text>
<text text-anchor="middle" x="232" y="-363.5" font-family="Helvetica,sans-Serif" font-size="10.00">_abort_pending_resolution</text>
</a>
</g>
</g>
<!-- Node1&#45;&gt;Node2 -->
<g id="edge1" class="edge">
<title>Node1&#45;&gt;Node2</title>
<path fill="none" stroke="midnightblue" d="M89.61,-315.04C109.96,-323.42 140.4,-335.88 167,-346.5 172.05,-348.52 177.34,-350.61 182.61,-352.69"/>
<polygon fill="midnightblue" stroke="midnightblue" points="181.45,-355.99 192.04,-356.39 184.01,-349.48 181.45,-355.99"/>
</g>
<!-- Node3 -->
<g id="node3" class="node">
<title>Node3</title>
<g id="a_node3"><a xlink:href="group__attribute__resolver__send.html#ga577f6ba4fa977a389873ee62e02aeead" target="_top" xlink:title="function that the ZPC attribute resolver uses send PAN frames">
<polygon fill="none" stroke="black" points="173,-318 173,-337 291,-337 291,-318 173,-318"/>
<text text-anchor="middle" x="232" y="-325" font-family="Helvetica,sans-Serif" font-size="10.00">attribute_resolver_send</text>
</a>
</g>
</g>
<!-- Node1&#45;&gt;Node3 -->
<g id="edge2" class="edge">
<title>Node1&#45;&gt;Node3</title>
<path fill="none" stroke="midnightblue" d="M131.04,-314.13C141.48,-315.53 152.31,-316.98 162.83,-318.38"/>
<polygon fill="midnightblue" stroke="midnightblue" points="162.42,-321.86 172.8,-319.72 163.35,-314.92 162.42,-321.86"/>
</g>
<!-- Node32 -->
<g id="node32" class="node">
<title>Node32</title>
<g id="a_node32"><a xlink:href="group__attribute__resolver__send.html#gaa1f49d2c7338a3b7132262f6cecc59ab" target="_top" xlink:title="Initialization function for the attribute_resolver_send subcomponent.">
<polygon fill="none" stroke="black" points="186,-268.5 186,-298.5 278,-298.5 278,-268.5 186,-268.5"/>
<text text-anchor="start" x="194" y="-286.5" font-family="Helvetica,sans-Serif" font-size="10.00">attribute_resolver</text>
<text text-anchor="middle" x="232" y="-275.5" font-family="Helvetica,sans-Serif" font-size="10.00">_send_init</text>
</a>
</g>
</g>
<!-- Node1&#45;&gt;Node32 -->
<g id="edge36" class="edge">
<title>Node1&#45;&gt;Node32</title>
<path fill="none" stroke="midnightblue" d="M131.04,-296.87C145.82,-294.89 161.39,-292.81 175.74,-290.89"/>
<polygon fill="midnightblue" stroke="midnightblue" points="176.49,-294.32 185.94,-289.53 175.56,-287.38 176.49,-294.32"/>
</g>
<!-- Node34 -->
<g id="node34" class="node">
<title>Node34</title>
<g id="a_node34"><a xlink:href="group__attribute__resolver__group__send.html#gaa7816f441fb15ed4151a71eed2a7208f" target="_top" xlink:title="Initializes the resolver group sub&#45;component.">
<polygon fill="none" stroke="black" points="175.5,-219.5 175.5,-249.5 288.5,-249.5 288.5,-219.5 175.5,-219.5"/>
<text text-anchor="start" x="183.5" y="-237.5" font-family="Helvetica,sans-Serif" font-size="10.00">zpc_attribute_resolver</text>
<text text-anchor="middle" x="232" y="-226.5" font-family="Helvetica,sans-Serif" font-size="10.00">_group_init</text>
</a>
</g>
</g>
<!-- Node1&#45;&gt;Node34 -->
<g id="edge38" class="edge">
<title>Node1&#45;&gt;Node34</title>
<path fill="none" stroke="midnightblue" d="M86.37,-296C106.54,-286.45 138.73,-271.48 167,-259.5 171.75,-257.49 176.73,-255.44 181.71,-253.43"/>
<polygon fill="midnightblue" stroke="midnightblue" points="183.26,-256.58 191.26,-249.62 180.67,-250.07 183.26,-256.58"/>
</g>
<!-- Node4 -->
<g id="node4" class="node">
<title>Node4</title>
<g id="a_node4"><a xlink:href="group__zpc__attribute__resolver__callbacks.html#gaedfe2d05000418de39a6c7ea025acd43" target="_top" xlink:title="Functions that adds a new node in the resolution list.">
<polygon fill="none" stroke="black" points="342,-618 342,-637 479,-637 479,-618 342,-618"/>
<text text-anchor="middle" x="410.5" y="-625" font-family="Helvetica,sans-Serif" font-size="10.00">add_node_in_resolution_list</text>
</a>
</g>
</g>
<!-- Node3&#45;&gt;Node4 -->
<g id="edge3" class="edge">
<title>Node3&#45;&gt;Node4</title>
<path fill="none" stroke="midnightblue" d="M283.63,-337.04C288.7,-339.73 293.31,-343.15 297,-347.5 372.66,-436.87 254.72,-521.41 333,-608.5 334.06,-609.68 335.18,-610.79 336.35,-611.83"/>
<polygon fill="midnightblue" stroke="midnightblue" points="334.59,-614.88 344.76,-617.84 338.66,-609.18 334.59,-614.88"/>
</g>
<!-- Node5 -->
<g id="node5" class="node">
<title>Node5</title>
<g id="a_node5"><a xlink:href="group__zpc__attribute__resolver__callbacks.html#ga593c3bfe54a3da7cabf85c992d9f629f" target="_top" xlink:title="Links a TX Session ID with a node under resolution.">
<polygon fill="none" stroke="black" points="354,-558 354,-599 467,-599 467,-558 354,-558"/>
<text text-anchor="start" x="362" y="-587" font-family="Helvetica,sans-Serif" font-size="10.00">attribute_resolver</text>
<text text-anchor="start" x="362" y="-576" font-family="Helvetica,sans-Serif" font-size="10.00">_associate_node_with</text>
<text text-anchor="middle" x="410.5" y="-565" font-family="Helvetica,sans-Serif" font-size="10.00">_tx_sessions_id</text>
</a>
</g>
</g>
<!-- Node3&#45;&gt;Node5 -->
<g id="edge4" class="edge">
<title>Node3&#45;&gt;Node5</title>
<path fill="none" stroke="midnightblue" d="M283.15,-337.03C288.36,-339.71 293.15,-343.13 297,-347.5 357.02,-415.58 275.43,-478.34 333,-548.5 336.51,-552.77 340.7,-556.44 345.3,-559.59"/>
<polygon fill="midnightblue" stroke="midnightblue" points="343.57,-562.63 353.95,-564.71 347.13,-556.6 343.57,-562.63"/>
</g>
<!-- Node6 -->
<g id="node6" class="node">
<title>Node6</title>
<g id="a_node6"><a xlink:href="group__zpc__attribute__store__network__helpers.html#gacd36836093319f5642cf566d6f26cb61" target="_top" xlink:title="Traverse up the tree from a node and finds under which Z&#45;Wave NodeID/endpoint id it is located.">
<polygon fill="none" stroke="black" points="351,-498 351,-539 470,-539 470,-498 351,-498"/>
<text text-anchor="start" x="359" y="-527" font-family="Helvetica,sans-Serif" font-size="10.00">attribute_store_network</text>
<text text-anchor="start" x="359" y="-516" font-family="Helvetica,sans-Serif" font-size="10.00">_helper_get_zwave_ids</text>
<text text-anchor="middle" x="410.5" y="-505" font-family="Helvetica,sans-Serif" font-size="10.00">_from_node</text>
</a>
</g>
</g>
<!-- Node3&#45;&gt;Node6 -->
<g id="edge5" class="edge">
<title>Node3&#45;&gt;Node6</title>
<path fill="none" stroke="midnightblue" d="M282.53,-337.15C287.92,-339.81 292.91,-343.19 297,-347.5 341.51,-394.43 290.18,-440.03 333,-488.5 335.82,-491.69 339.01,-494.54 342.46,-497.09"/>
<polygon fill="midnightblue" stroke="midnightblue" points="340.61,-500.06 350.92,-502.51 344.39,-494.17 340.61,-500.06"/>
</g>
<!-- Node7 -->
<g id="node7" class="node">
<title>Node7</title>
<g id="a_node7"><a xlink:href="group__zpc__attribute__resolver__callbacks.html#gac0ee9f0e45a7567f713480bc2e968eff" target="_top" xlink:title="Helper function verifying if we are currently waiting for a send data callback for a given node resol...">
<polygon fill="none" stroke="black" points="346.5,-460 346.5,-479 474.5,-479 474.5,-460 346.5,-460"/>
<text text-anchor="middle" x="410.5" y="-467" font-family="Helvetica,sans-Serif" font-size="10.00">is_node_in_resolution_list</text>
</a>
</g>
</g>
<!-- Node3&#45;&gt;Node7 -->
<g id="edge6" class="edge">
<title>Node3&#45;&gt;Node7</title>
<path fill="none" stroke="midnightblue" d="M281.22,-337.04C287.02,-339.71 292.48,-343.13 297,-347.5 331.86,-381.21 297.16,-417.84 333,-450.5 334.73,-452.07 336.56,-453.52 338.48,-454.85"/>
<polygon fill="midnightblue" stroke="midnightblue" points="336.99,-458.03 347.41,-459.98 340.48,-451.96 336.99,-458.03"/>
</g>
<!-- Node8 -->
<g id="node8" class="node">
<title>Node8</title>
<g id="a_node8"><a xlink:href="group__zpc__attribute__resolver__callbacks.html#gae00539432000f51f17d1b7741ddcb8ac" target="_top" xlink:title="Send_data callback for transmissions that did not use Supervision encapsulation.">
<polygon fill="none" stroke="black" points="347,-410.5 347,-440.5 474,-440.5 474,-410.5 347,-410.5"/>
<text text-anchor="start" x="355" y="-428.5" font-family="Helvetica,sans-Serif" font-size="10.00">on_resolver_zwave_send</text>
<text text-anchor="middle" x="410.5" y="-417.5" font-family="Helvetica,sans-Serif" font-size="10.00">_data_complete</text>
</a>
</g>
</g>
<!-- Node3&#45;&gt;Node8 -->
<g id="edge7" class="edge">
<title>Node3&#45;&gt;Node8</title>
<path fill="none" stroke="midnightblue" d="M277.6,-337.09C284.49,-339.77 291.22,-343.17 297,-347.5 320.09,-364.79 309.92,-384.2 333,-401.5 334.85,-402.89 336.79,-404.2 338.79,-405.44"/>
<polygon fill="midnightblue" stroke="midnightblue" points="337.46,-408.7 347.92,-410.39 340.8,-402.55 337.46,-408.7"/>
</g>
<!-- Node9 -->
<g id="node9" class="node">
<title>Node9</title>
<g id="a_node9"><a xlink:href="group__zpc__attribute__resolver__callbacks.html#gaa07fbb13c7f4f061192accb2d607e5a6" target="_top" xlink:title="Send_data callback for transmissions that used Supervision encapsulation.">
<polygon fill="none" stroke="black" points="333,-361.5 333,-391.5 488,-391.5 488,-361.5 333,-361.5"/>
<text text-anchor="start" x="341" y="-379.5" font-family="Helvetica,sans-Serif" font-size="10.00">on_resolver_zwave_supervision</text>
<text text-anchor="middle" x="410.5" y="-368.5" font-family="Helvetica,sans-Serif" font-size="10.00">_complete</text>
</a>
</g>
</g>
<!-- Node3&#45;&gt;Node9 -->
<g id="edge8" class="edge">
<title>Node3&#45;&gt;Node9</title>
<path fill="none" stroke="midnightblue" d="M267.45,-337.06C289.6,-343.21 319.06,-351.39 345.41,-358.71"/>
<polygon fill="midnightblue" stroke="midnightblue" points="344.76,-362.16 355.34,-361.46 346.64,-355.42 344.76,-362.16"/>
</g>
<!-- Node10 -->
<g id="node10" class="node">
<title>Node10</title>
<g id="a_node10"><a xlink:href="group__attribute__resolver__group__send.html#ga0660259eed482b3146d8d9b5d20d4fbe" target="_top" xlink:title="Verifies if the node can be part of a multicast transmission, and if yes, trigger it.">
<polygon fill="none" stroke="black" points="354,-312.5 354,-342.5 467,-342.5 467,-312.5 354,-312.5"/>
<text text-anchor="start" x="362" y="-330.5" font-family="Helvetica,sans-Serif" font-size="10.00">zpc_attribute_resolver</text>
<text text-anchor="middle" x="410.5" y="-319.5" font-family="Helvetica,sans-Serif" font-size="10.00">_send_group</text>
</a>
</g>
</g>
<!-- Node3&#45;&gt;Node10 -->
<g id="edge9" class="edge">
<title>Node3&#45;&gt;Node10</title>
<path fill="none" stroke="midnightblue" d="M291.28,-327.5C308.15,-327.5 326.68,-327.5 343.97,-327.5"/>
<polygon fill="midnightblue" stroke="midnightblue" points="343.98,-331 353.98,-327.5 343.98,-324 343.98,-331"/>
</g>
<!-- Node11 -->
<g id="node11" class="node">
<title>Node11</title>
<g id="a_node11"><a xlink:href="group__zwave__command__class__supervision__handler.html#ga42cb4c65214e0c6b70f4b149a3e18fd9" target="_top" xlink:title="Take a frame and create a Supervision Session.">
<polygon fill="none" stroke="black" points="349.5,-263.5 349.5,-293.5 471.5,-293.5 471.5,-263.5 349.5,-263.5"/>
<text text-anchor="start" x="357.5" y="-281.5" font-family="Helvetica,sans-Serif" font-size="10.00">zwave_command_class</text>
<text text-anchor="middle" x="410.5" y="-270.5" font-family="Helvetica,sans-Serif" font-size="10.00">_supervision_send_data</text>
</a>
</g>
</g>
<!-- Node3&#45;&gt;Node11 -->
<g id="edge10" class="edge">
<title>Node3&#45;&gt;Node11</title>
<path fill="none" stroke="midnightblue" d="M267.45,-317.94C289.6,-311.79 319.06,-303.61 345.41,-296.29"/>
<polygon fill="midnightblue" stroke="midnightblue" points="346.64,-299.58 355.34,-293.54 344.76,-292.84 346.64,-299.58"/>
</g>
<!-- Node18 -->
<g id="node18" class="node">
<title>Node18</title>
<g id="a_node18"><a xlink:href="group__zwave__tx.html#gad1538f36d226fe8147c5e538625568df" target="_top" xlink:title="Queue and send frames to Z&#45;Wave nodes.">
<polygon fill="none" stroke="black" points="534,-225 534,-244 643,-244 643,-225 534,-225"/>
<text text-anchor="middle" x="588.5" y="-232" font-family="Helvetica,sans-Serif" font-size="10.00">zwave_tx_send_data</text>
</a>
</g>
</g>
<!-- Node3&#45;&gt;Node18 -->
<g id="edge35" class="edge">
<title>Node3&#45;&gt;Node18</title>
<path fill="none" stroke="midnightblue" d="M279.59,-317.89C285.78,-315.43 291.78,-312.35 297,-308.5 320.21,-291.37 308.12,-269.1 333,-254.5 390.82,-220.58 469.16,-219.76 523.58,-224.77"/>
<polygon fill="midnightblue" stroke="midnightblue" points="523.49,-228.28 533.8,-225.8 524.2,-221.31 523.49,-228.28"/>
</g>
<!-- Node19 -->
<g id="node19" class="node">
<title>Node19</title>
<g id="a_node19"><a xlink:href="group__zwave__utils.html#gac8d153b683bd589dfe639ebc5840b8f7" target="_top" xlink:title="Verify whether a node/endpoint supports Supervision CC AND wants to use it.">
<polygon fill="none" stroke="black" points="334.5,-175.5 334.5,-205.5 486.5,-205.5 486.5,-175.5 334.5,-175.5"/>
<text text-anchor="start" x="342.5" y="-193.5" font-family="Helvetica,sans-Serif" font-size="10.00">zwave_node_want_supervision</text>
<text text-anchor="middle" x="410.5" y="-182.5" font-family="Helvetica,sans-Serif" font-size="10.00">_frame</text>
</a>
</g>
</g>
<!-- Node3&#45;&gt;Node19 -->
<g id="edge20" class="edge">
<title>Node3&#45;&gt;Node19</title>
<path fill="none" stroke="midnightblue" d="M282.28,-317.94C287.64,-315.48 292.7,-312.39 297,-308.5 328.33,-280.15 302.9,-250.16 333,-220.5 336.78,-216.78 341.07,-213.5 345.65,-210.63"/>
<polygon fill="midnightblue" stroke="midnightblue" points="347.71,-213.49 354.75,-205.57 344.31,-207.37 347.71,-213.49"/>
</g>
<!-- Node28 -->
<g id="node28" class="node">
<title>Node28</title>
<g id="a_node28"><a xlink:href="group__zwave__tx__scheme__selector.html#ga2c884bc863b6f63eac2a074fdde828d8" target="_top" xlink:title="Return a connection info parameters for sending a Z&#45;Wave frame.">
<polygon fill="none" stroke="black" points="352,-126.5 352,-156.5 469,-156.5 469,-126.5 352,-126.5"/>
<text text-anchor="start" x="360" y="-144.5" font-family="Helvetica,sans-Serif" font-size="10.00">zwave_tx_scheme_get</text>
<text text-anchor="middle" x="410.5" y="-133.5" font-family="Helvetica,sans-Serif" font-size="10.00">_node_connection_info</text>
</a>
</g>
</g>
<!-- Node3&#45;&gt;Node28 -->
<g id="edge31" class="edge">
<title>Node3&#45;&gt;Node28</title>
<path fill="none" stroke="midnightblue" d="M284.09,-317.88C288.87,-315.42 293.31,-312.35 297,-308.5 342.1,-261.54 288.54,-214.07 333,-166.5 335.95,-163.34 339.31,-160.58 342.93,-158.17"/>
<polygon fill="midnightblue" stroke="midnightblue" points="344.81,-161.13 351.78,-153.15 341.36,-155.04 344.81,-161.13"/>
</g>
<!-- Node31 -->
<g id="node31" class="node">
<title>Node31</title>
<g id="a_node31"><a xlink:href="group__zwave__tx__scheme__selector.html#ga8f8d4442ddf4c165d5a79b9a25d6420d" target="_top" xlink:title="Define a Z&#45;Wave frame transmission options.">
<polygon fill="none" stroke="black" points="352,-77.5 352,-107.5 469,-107.5 469,-77.5 352,-77.5"/>
<text text-anchor="start" x="360" y="-95.5" font-family="Helvetica,sans-Serif" font-size="10.00">zwave_tx_scheme_get</text>
<text text-anchor="middle" x="410.5" y="-84.5" font-family="Helvetica,sans-Serif" font-size="10.00">_node_tx_options</text>
</a>
</g>
</g>
<!-- Node3&#45;&gt;Node31 -->
<g id="edge34" class="edge">
<title>Node3&#45;&gt;Node31</title>
<path fill="none" stroke="midnightblue" d="M284.64,-317.95C289.26,-315.47 293.51,-312.37 297,-308.5 354.88,-244.37 276,-182.41 333,-117.5 335.9,-114.19 339.25,-111.32 342.89,-108.83"/>
<polygon fill="midnightblue" stroke="midnightblue" points="344.92,-111.7 351.83,-103.67 341.42,-105.63 344.92,-111.7"/>
</g>
<!-- Node12 -->
<g id="node12" class="node">
<title>Node12</title>
<g id="a_node12"><a xlink:href="group__zwave__command__class__supervision__process.html#ga785b4034cff72c8f6a0f57601639e769" target="_top" xlink:title="Assigns a Z&#45;Wave TX Session ID to a supervision Session ID.">
<polygon fill="none" stroke="black" points="527.5,-509 527.5,-550 649.5,-550 649.5,-509 527.5,-509"/>
<text text-anchor="start" x="535.5" y="-538" font-family="Helvetica,sans-Serif" font-size="10.00">zwave_command_class</text>
<text text-anchor="start" x="535.5" y="-527" font-family="Helvetica,sans-Serif" font-size="10.00">_supervision_assign</text>
<text text-anchor="middle" x="588.5" y="-516" font-family="Helvetica,sans-Serif" font-size="10.00">_session_tx_id</text>
</a>
</g>
</g>
<!-- Node11&#45;&gt;Node12 -->
<g id="edge11" class="edge">
<title>Node11&#45;&gt;Node12</title>
<path fill="none" stroke="midnightblue" d="M471.8,-291.01C477.89,-294.26 483.48,-298.36 488,-303.5 545,-368.41 473.34,-424.53 524,-494.5 525.99,-497.25 528.27,-499.81 530.75,-502.19"/>
<polygon fill="midnightblue" stroke="midnightblue" points="528.8,-505.12 538.73,-508.8 533.26,-499.73 528.8,-505.12"/>
</g>
<!-- Node13 -->
<g id="node13" class="node">
<title>Node13</title>
<g id="a_node13"><a xlink:href="group__zwave__command__class__supervision__process.html#ga76afa571a1b7e0f43fd6e417266e47a0" target="_top" xlink:title="Closes a supervised session.">
<polygon fill="none" stroke="black" points="689,-437.5 689,-467.5 828,-467.5 828,-437.5 689,-437.5"/>
<text text-anchor="start" x="697" y="-455.5" font-family="Helvetica,sans-Serif" font-size="10.00">zwave_command_class</text>
<text text-anchor="middle" x="758.5" y="-444.5" font-family="Helvetica,sans-Serif" font-size="10.00">_supervision_close_session</text>
</a>
</g>
</g>
<!-- Node11&#45;&gt;Node13 -->
<g id="edge12" class="edge">
<title>Node11&#45;&gt;Node13</title>
<path fill="none" stroke="midnightblue" d="M471.61,-291.18C477.74,-294.4 483.39,-298.44 488,-303.5 536.54,-356.71 467.7,-416.58 524,-461.5 576.44,-503.33 658.54,-487.37 710.12,-470.82"/>
<polygon fill="midnightblue" stroke="midnightblue" points="711.32,-474.12 719.7,-467.63 709.1,-467.47 711.32,-474.12"/>
</g>
<!-- Node14 -->
<g id="node14" class="node">
<title>Node14</title>
<g id="a_node14"><a xlink:href="group__zwave__command__class__supervision__process.html#gaa40921f99821f9336ae8b49bd10849b1" target="_top" xlink:title="Creates a new supe a supervised session.">
<polygon fill="none" stroke="black" points="527.5,-411 527.5,-452 649.5,-452 649.5,-411 527.5,-411"/>
<text text-anchor="start" x="535.5" y="-440" font-family="Helvetica,sans-Serif" font-size="10.00">zwave_command_class</text>
<text text-anchor="start" x="535.5" y="-429" font-family="Helvetica,sans-Serif" font-size="10.00">_supervision_create</text>
<text text-anchor="middle" x="588.5" y="-418" font-family="Helvetica,sans-Serif" font-size="10.00">_session</text>
</a>
</g>
</g>
<!-- Node11&#45;&gt;Node14 -->
<g id="edge13" class="edge">
<title>Node11&#45;&gt;Node14</title>
<path fill="none" stroke="midnightblue" d="M471.76,-292.17C477.7,-295.21 483.27,-298.94 488,-303.5 521.4,-335.71 492.69,-367.26 524,-401.5 524.9,-402.49 525.84,-403.44 526.82,-404.37"/>
<polygon fill="midnightblue" stroke="midnightblue" points="524.92,-407.34 534.89,-410.94 529.34,-401.91 524.92,-407.34"/>
</g>
<!-- Node15 -->
<g id="node15" class="node">
<title>Node15</title>
<g id="a_node15"><a xlink:href="group__zwave__command__class__supervision__process.html#ga91640ed2880586dce469b65e3a888355" target="_top" xlink:title=" ">
<polygon fill="none" stroke="black" points="693,-326 693,-367 824,-367 824,-326 693,-326"/>
<text text-anchor="start" x="701" y="-355" font-family="Helvetica,sans-Serif" font-size="10.00">zwave_command_class</text>
<text text-anchor="start" x="701" y="-344" font-family="Helvetica,sans-Serif" font-size="10.00">_supervision_find_session</text>
<text text-anchor="middle" x="758.5" y="-333" font-family="Helvetica,sans-Serif" font-size="10.00">_by_unique_id</text>
</a>
</g>
</g>
<!-- Node11&#45;&gt;Node15 -->
<g id="edge14" class="edge">
<title>Node11&#45;&gt;Node15</title>
<path fill="none" stroke="midnightblue" d="M471.55,-292.27C488.48,-296.04 506.94,-300.04 524,-303.5 577.06,-314.28 637.15,-325.32 683.08,-333.51"/>
<polygon fill="midnightblue" stroke="midnightblue" points="682.5,-336.96 692.96,-335.27 683.72,-330.07 682.5,-336.96"/>
</g>
<!-- Node16 -->
<g id="node16" class="node">
<title>Node16</title>
<g id="a_node16"><a xlink:href="zwave__command__class__supervision_8c.html#aace8983e67aecb69a062967f18389354" target="_top" xlink:title="Callback function registered to Z&#45;Wave TX used to track when a Supervision frame has been sent succes...">
<polygon fill="none" stroke="black" points="527.5,-351 527.5,-392 649.5,-392 649.5,-351 527.5,-351"/>
<text text-anchor="start" x="535.5" y="-380" font-family="Helvetica,sans-Serif" font-size="10.00">zwave_command_class</text>
<text text-anchor="start" x="535.5" y="-369" font-family="Helvetica,sans-Serif" font-size="10.00">_supervision_on_send</text>
<text text-anchor="middle" x="588.5" y="-358" font-family="Helvetica,sans-Serif" font-size="10.00">_data_complete</text>
</a>
</g>
</g>
<!-- Node11&#45;&gt;Node16 -->
<g id="edge15" class="edge">
<title>Node11&#45;&gt;Node16</title>
<path fill="none" stroke="midnightblue" d="M467.06,-293.52C474.32,-296.38 481.49,-299.69 488,-303.5 506.74,-314.45 506.37,-323.84 524,-336.5 528.41,-339.67 533.13,-342.76 537.95,-345.71"/>
<polygon fill="midnightblue" stroke="midnightblue" points="536.26,-348.78 546.65,-350.87 539.83,-342.76 536.26,-348.78"/>
</g>
<!-- Node17 -->
<g id="node17" class="node">
<title>Node17</title>
<g id="a_node17"><a xlink:href="group__zwave__command__class__supervision__process.html#gafcf27d707708434ed099675c564a4b6c" target="_top" xlink:title="Logs the state of the Supervision process, with sessions and timers.">
<polygon fill="none" stroke="black" points="524,-263.5 524,-293.5 653,-293.5 653,-263.5 524,-263.5"/>
<text text-anchor="start" x="532" y="-281.5" font-family="Helvetica,sans-Serif" font-size="10.00">zwave_command_class</text>
<text text-anchor="middle" x="588.5" y="-270.5" font-family="Helvetica,sans-Serif" font-size="10.00">_supervision_process_log</text>
</a>
</g>
</g>
<!-- Node11&#45;&gt;Node17 -->
<g id="edge18" class="edge">
<title>Node11&#45;&gt;Node17</title>
<path fill="none" stroke="midnightblue" d="M471.58,-278.5C485.12,-278.5 499.65,-278.5 513.68,-278.5"/>
<polygon fill="midnightblue" stroke="midnightblue" points="513.79,-282 523.79,-278.5 513.79,-275 513.79,-282"/>
</g>
<!-- Node11&#45;&gt;Node18 -->
<g id="edge19" class="edge">
<title>Node11&#45;&gt;Node18</title>
<path fill="none" stroke="midnightblue" d="M471.58,-263.48C493.74,-257.94 518.54,-251.74 539.5,-246.5"/>
<polygon fill="midnightblue" stroke="midnightblue" points="540.6,-249.83 549.45,-244.01 538.9,-243.04 540.6,-249.83"/>
</g>
<!-- Node16&#45;&gt;Node13 -->
<g id="edge16" class="edge">
<title>Node16&#45;&gt;Node13</title>
<path fill="none" stroke="midnightblue" d="M633.26,-392.08C639.88,-395.22 646.63,-398.44 653,-401.5 674.43,-411.79 698.25,-423.4 717.73,-432.94"/>
<polygon fill="midnightblue" stroke="midnightblue" points="716.39,-436.19 726.91,-437.45 719.47,-429.9 716.39,-436.19"/>
</g>
<!-- Node16&#45;&gt;Node15 -->
<g id="edge17" class="edge">
<title>Node16&#45;&gt;Node15</title>
<path fill="none" stroke="midnightblue" d="M649.68,-362.55C660.42,-360.95 671.73,-359.26 682.81,-357.61"/>
<polygon fill="midnightblue" stroke="midnightblue" points="683.54,-361.05 692.91,-356.11 682.51,-354.12 683.54,-361.05"/>
</g>
<!-- Node20 -->
<g id="node20" class="node">
<title>Node20</title>
<g id="a_node20"><a xlink:href="group__zpc__attribute__store__network__helpers.html#gae4d15b8e0c61c88d94c8f342bd2014fc" target="_top" xlink:title="Take a UNID/endpoint combination and returns its attribute store node.">
<polygon fill="none" stroke="black" points="691,-186.5 691,-216.5 826,-216.5 826,-186.5 691,-186.5"/>
<text text-anchor="start" x="699" y="-204.5" font-family="Helvetica,sans-Serif" font-size="10.00">attribute_store_network</text>
<text text-anchor="middle" x="758.5" y="-193.5" font-family="Helvetica,sans-Serif" font-size="10.00">_helper_get_endpoint_node</text>
</a>
</g>
</g>
<!-- Node19&#45;&gt;Node20 -->
<g id="edge21" class="edge">
<title>Node19&#45;&gt;Node20</title>
<path fill="none" stroke="midnightblue" d="M486.58,-192.89C543.95,-194.71 622.75,-197.22 680.58,-199.05"/>
<polygon fill="midnightblue" stroke="midnightblue" points="680.65,-202.56 690.76,-199.38 680.87,-195.56 680.65,-202.56"/>
</g>
<!-- Node25 -->
<g id="node25" class="node">
<title>Node25</title>
<g id="a_node25"><a xlink:href="group__zwave__utils.html#gaaa5d4e371acabd40b10dcf27edd993ff" target="_top" xlink:title="Verify whether a node/endpoint supports a Command Class using the attribute Store.">
<polygon fill="none" stroke="black" points="531.5,-137.5 531.5,-167.5 645.5,-167.5 645.5,-137.5 531.5,-137.5"/>
<text text-anchor="start" x="539.5" y="-155.5" font-family="Helvetica,sans-Serif" font-size="10.00">zwave_node_supports</text>
<text text-anchor="middle" x="588.5" y="-144.5" font-family="Helvetica,sans-Serif" font-size="10.00">_command_class</text>
</a>
</g>
</g>
<!-- Node19&#45;&gt;Node25 -->
<g id="edge26" class="edge">
<title>Node19&#45;&gt;Node25</title>
<path fill="none" stroke="midnightblue" d="M481.06,-175.48C494.38,-172.6 508.3,-169.6 521.5,-166.75"/>
<polygon fill="midnightblue" stroke="midnightblue" points="522.41,-170.14 531.44,-164.6 520.93,-163.29 522.41,-170.14"/>
</g>
<!-- Node27 -->
<g id="node27" class="node">
<title>Node27</title>
<g id="a_node27"><a xlink:href="group__zwave__unid.html#ga421deceb8a12916f049e4f3446774439" target="_top" xlink:title="Form a UNID.">
<polygon fill="none" stroke="black" points="692.5,-99 692.5,-118 824.5,-118 824.5,-99 692.5,-99"/>
<text text-anchor="middle" x="758.5" y="-106" font-family="Helvetica,sans-Serif" font-size="10.00">zwave_unid_from_node_id</text>
</a>
</g>
</g>
<!-- Node19&#45;&gt;Node27 -->
<g id="edge30" class="edge">
<title>Node19&#45;&gt;Node27</title>
<path fill="none" stroke="midnightblue" d="M470.51,-175.39C476.62,-172.84 482.57,-169.89 488,-166.5 507.73,-154.18 503.04,-138.6 524,-128.5 573,-104.89 634.51,-100.49 682.09,-101.67"/>
<polygon fill="midnightblue" stroke="midnightblue" points="682.21,-105.17 692.33,-102.01 682.45,-98.18 682.21,-105.17"/>
</g>
<!-- Node21 -->
<g id="node21" class="node">
<title>Node21</title>
<g id="a_node21"><a xlink:href="group__zpc__attribute__store__network__helpers.html#gafb993ff484b3c826743c4695d6659cf0" target="_top" xlink:title="Take a UNID and return its attribute store node representing the NodeID.">
<polygon fill="none" stroke="black" points="864,-186.5 864,-216.5 996,-216.5 996,-186.5 864,-186.5"/>
<text text-anchor="start" x="872" y="-204.5" font-family="Helvetica,sans-Serif" font-size="10.00">attribute_store_network</text>
<text text-anchor="middle" x="930" y="-193.5" font-family="Helvetica,sans-Serif" font-size="10.00">_helper_get_node_id_node</text>
</a>
</g>
</g>
<!-- Node20&#45;&gt;Node21 -->
<g id="edge22" class="edge">
<title>Node20&#45;&gt;Node21</title>
<path fill="none" stroke="midnightblue" d="M826,-201.5C835.03,-201.5 844.35,-201.5 853.53,-201.5"/>
<polygon fill="midnightblue" stroke="midnightblue" points="853.8,-205 863.8,-201.5 853.8,-198 853.8,-205"/>
</g>
<!-- Node22 -->
<g id="node22" class="node">
<title>Node22</title>
<g id="a_node22"><a xlink:href="group__zpc__attribute__store__network__helpers.html#ga05cb572c96f7dc8e6657f86e135fafed" target="_top" xlink:title="Take a UNID and return its attribute store node representing the HomeID.">
<polygon fill="none" stroke="black" points="1032,-208.5 1032,-238.5 1167,-238.5 1167,-208.5 1032,-208.5"/>
<text text-anchor="start" x="1040" y="-226.5" font-family="Helvetica,sans-Serif" font-size="10.00">attribute_store_network</text>
<text text-anchor="middle" x="1099.5" y="-215.5" font-family="Helvetica,sans-Serif" font-size="10.00">_helper_get_home_id_node</text>
</a>
</g>
</g>
<!-- Node21&#45;&gt;Node22 -->
<g id="edge23" class="edge">
<title>Node21&#45;&gt;Node22</title>
<path fill="none" stroke="midnightblue" d="M996.24,-210.07C1004.62,-211.17 1013.27,-212.31 1021.82,-213.43"/>
<polygon fill="midnightblue" stroke="midnightblue" points="1021.41,-216.9 1031.78,-214.74 1022.32,-209.96 1021.41,-216.9"/>
</g>
<!-- Node24 -->
<g id="node24" class="node">
<title>Node24</title>
<g id="a_node24"><a xlink:href="group__zwave__unid.html#ga76885767debd174e96e6df00b0a368c3" target="_top" xlink:title="Convert a UNID to a node ID.">
<polygon fill="none" stroke="black" points="1039,-170 1039,-189 1160,-189 1160,-170 1039,-170"/>
<text text-anchor="middle" x="1099.5" y="-177" font-family="Helvetica,sans-Serif" font-size="10.00">zwave_unid_to_node_id</text>
</a>
</g>
</g>
<!-- Node21&#45;&gt;Node24 -->
<g id="edge25" class="edge">
<title>Node21&#45;&gt;Node24</title>
<path fill="none" stroke="midnightblue" d="M996.24,-192.93C1006.89,-191.53 1017.96,-190.08 1028.72,-188.67"/>
<polygon fill="midnightblue" stroke="midnightblue" points="1029.45,-192.1 1038.91,-187.33 1028.54,-185.16 1029.45,-192.1"/>
</g>
<!-- Node23 -->
<g id="node23" class="node">
<title>Node23</title>
<g id="a_node23"><a xlink:href="group__zwave__unid.html#ga92f9808a08c2ce1c0a6a9dc2debf3580" target="_top" xlink:title="Convert a UNID to a Home ID.">
<polygon fill="none" stroke="black" points="1203,-214 1203,-233 1327,-233 1327,-214 1203,-214"/>
<text text-anchor="middle" x="1265" y="-221" font-family="Helvetica,sans-Serif" font-size="10.00">zwave_unid_to_home_id</text>
</a>
</g>
</g>
<!-- Node22&#45;&gt;Node23 -->
<g id="edge24" class="edge">
<title>Node22&#45;&gt;Node23</title>
<path fill="none" stroke="midnightblue" d="M1167,-223.5C1175.42,-223.5 1184.07,-223.5 1192.57,-223.5"/>
<polygon fill="midnightblue" stroke="midnightblue" points="1192.83,-227 1202.83,-223.5 1192.83,-220 1192.83,-227"/>
</g>
<!-- Node25&#45;&gt;Node20 -->
<g id="edge27" class="edge">
<title>Node25&#45;&gt;Node20</title>
<path fill="none" stroke="midnightblue" d="M641.28,-167.6C658.6,-172.66 678.09,-178.34 696.08,-183.58"/>
<polygon fill="midnightblue" stroke="midnightblue" points="695.31,-187.01 705.89,-186.45 697.27,-180.29 695.31,-187.01"/>
</g>
<!-- Node26 -->
<g id="node26" class="node">
<title>Node26</title>
<g id="a_node26"><a xlink:href="group__zwave__controller__utils.html#ga4b9cc899709547a170141ba7e0583e16" target="_top" xlink:title="Verifies if a CC is in a raw array of Command Classes.">
<polygon fill="none" stroke="black" points="702,-137.5 702,-167.5 815,-167.5 815,-137.5 702,-137.5"/>
<text text-anchor="start" x="710" y="-155.5" font-family="Helvetica,sans-Serif" font-size="10.00">is_command_class_in</text>
<text text-anchor="middle" x="758.5" y="-144.5" font-family="Helvetica,sans-Serif" font-size="10.00">_supported_list</text>
</a>
</g>
</g>
<!-- Node25&#45;&gt;Node26 -->
<g id="edge28" class="edge">
<title>Node25&#45;&gt;Node26</title>
<path fill="none" stroke="midnightblue" d="M645.91,-152.5C660.55,-152.5 676.44,-152.5 691.52,-152.5"/>
<polygon fill="midnightblue" stroke="midnightblue" points="691.81,-156 701.81,-152.5 691.81,-149 691.81,-156"/>
</g>
<!-- Node25&#45;&gt;Node27 -->
<g id="edge29" class="edge">
<title>Node25&#45;&gt;Node27</title>
<path fill="none" stroke="midnightblue" d="M645.91,-137.73C667.11,-132.17 690.95,-125.93 711.14,-120.64"/>
<polygon fill="midnightblue" stroke="midnightblue" points="712.24,-123.97 721.02,-118.05 710.46,-117.2 712.24,-123.97"/>
</g>
<!-- Node29 -->
<g id="node29" class="node">
<title>Node29</title>
<g id="a_node29"><a xlink:href="group__zwave__controller__keyset.html#ga43a73c5ae7dc860fa2e5edb9814c432f" target="_top" xlink:title="Get the hight encapsulation supported by a given key set.">
<polygon fill="none" stroke="black" points="529,-49.5 529,-79.5 648,-79.5 648,-49.5 529,-49.5"/>
<text text-anchor="start" x="537" y="-67.5" font-family="Helvetica,sans-Serif" font-size="10.00">zwave_controller_get</text>
<text text-anchor="middle" x="588.5" y="-56.5" font-family="Helvetica,sans-Serif" font-size="10.00">_highest_encapsulation</text>
</a>
</g>
</g>
<!-- Node28&#45;&gt;Node29 -->
<g id="edge32" class="edge">
<title>Node28&#45;&gt;Node29</title>
<path fill="none" stroke="midnightblue" d="M465.68,-126.47C473.3,-123.79 480.94,-120.79 488,-117.5 505.21,-109.48 507.38,-103.68 524,-94.5 530.46,-90.93 537.41,-87.37 544.26,-84.02"/>
<polygon fill="midnightblue" stroke="midnightblue" points="545.98,-87.08 553.48,-79.6 542.95,-80.77 545.98,-87.08"/>
</g>
<!-- Node30 -->
<g id="node30" class="node">
<title>Node30</title>
<g id="a_node30"><a xlink:href="group__zwave__controller__storage.html#ga771d01deff646dfda3f8406d6fbf5736" target="_top" xlink:title="Return the granted keys for a node.">
<polygon fill="none" stroke="black" points="524.5,-0.5 524.5,-30.5 652.5,-30.5 652.5,-0.5 524.5,-0.5"/>
<text text-anchor="start" x="532.5" y="-18.5" font-family="Helvetica,sans-Serif" font-size="10.00">zwave_controller_storage</text>
<text text-anchor="middle" x="588.5" y="-7.5" font-family="Helvetica,sans-Serif" font-size="10.00">_get_node_granted_keys</text>
</a>
</g>
</g>
<!-- Node28&#45;&gt;Node30 -->
<g id="edge33" class="edge">
<title>Node28&#45;&gt;Node30</title>
<path fill="none" stroke="midnightblue" d="M469.05,-129.32C475.92,-126.23 482.45,-122.36 488,-117.5 516.43,-92.63 496.47,-66.37 524,-40.5 525.65,-38.95 527.4,-37.49 529.24,-36.12"/>
<polygon fill="midnightblue" stroke="midnightblue" points="531.23,-39.01 537.75,-30.66 527.44,-33.12 531.23,-39.01"/>
</g>
<!-- Node33 -->
<g id="node33" class="node">
<title>Node33</title>
<g id="a_node33"><a xlink:href="group__zpc__attribute__resolver__callbacks.html#gaca81e0c2fa13985834fdd26ef39bbaa3" target="_top" xlink:title="Initializes the resources to keep track of ongoing resolutions and process send_data callbacks.">
<polygon fill="none" stroke="black" points="364.5,-28.5 364.5,-58.5 456.5,-58.5 456.5,-28.5 364.5,-28.5"/>
<text text-anchor="start" x="372.5" y="-46.5" font-family="Helvetica,sans-Serif" font-size="10.00">attribute_resolver</text>
<text text-anchor="middle" x="410.5" y="-35.5" font-family="Helvetica,sans-Serif" font-size="10.00">_callbacks_reset</text>
</a>
</g>
</g>
<!-- Node32&#45;&gt;Node33 -->
<g id="edge37" class="edge">
<title>Node32&#45;&gt;Node33</title>
<path fill="none" stroke="midnightblue" d="M278.1,-273.37C285.26,-269.99 291.96,-265.49 297,-259.5 352.59,-193.38 276,-133.41 333,-68.5 338.89,-61.79 346.62,-56.87 354.89,-53.27"/>
<polygon fill="midnightblue" stroke="midnightblue" points="356.23,-56.5 364.39,-49.73 353.79,-49.94 356.23,-56.5"/>
</g>
</g>
</svg>
