<?xml version="1.0" encoding="UTF-8" standalone="no"?>
<!DOCTYPE svg PUBLIC "-//W3C//DTD SVG 1.1//EN"
 "http://www.w3.org/Graphics/SVG/1.1/DTD/svg11.dtd">
<!-- Generated by graphviz version 2.43.0 (0)
 -->
<!-- Title: zwave_controller_transport_register Pages: 1 -->
<svg width="463pt" height="292pt"
 viewBox="0.00 0.00 463.00 291.50" xmlns="http://www.w3.org/2000/svg" xmlns:xlink="http://www.w3.org/1999/xlink">
<g id="graph0" class="graph" transform="scale(1 1) rotate(0) translate(4 287.5)">
<title>zwave_controller_transport_register</title>
<!-- Node1 -->
<g id="node1" class="node">
<title>Node1</title>
<g id="a_node1"><a xlink:title="Must be called to register a transport.">
<polygon fill="#bfbfbf" stroke="black" points="321,-127 321,-157 455,-157 455,-127 321,-127"/>
<text text-anchor="start" x="329" y="-145" font-family="Helvetica,sans-Serif" font-size="10.00">zwave_controller_transport</text>
<text text-anchor="middle" x="388" y="-134" font-family="Helvetica,sans-Serif" font-size="10.00">_register</text>
</a>
</g>
</g>
<!-- Node2 -->
<g id="node2" class="node">
<title>Node2</title>
<g id="a_node2"><a xlink:href="group__multicast__follow__up__transport.html#gaa29ae9f5d8ccc34d50cad0109e69411b" target="_top" xlink:title="Initialize the Multicast Follow&#45;Ups Transport *.">
<polygon fill="none" stroke="black" points="163,-253 163,-283 271,-283 271,-253 163,-253"/>
<text text-anchor="start" x="171" y="-271" font-family="Helvetica,sans-Serif" font-size="10.00">multicast_follow_ups</text>
<text text-anchor="middle" x="217" y="-260" font-family="Helvetica,sans-Serif" font-size="10.00">_transport_init</text>
</a>
</g>
</g>
<!-- Node1&#45;&gt;Node2 -->
<g id="edge1" class="edge">
<title>Node1&#45;&gt;Node2</title>
<path fill="none" stroke="midnightblue" d="M369.01,-164.76C350.16,-187.31 318.66,-221.48 285,-243 279.14,-246.74 272.64,-250.05 266.06,-252.92"/>
<polygon fill="midnightblue" stroke="midnightblue" points="371.72,-166.98 375.36,-157.03 366.31,-162.54 371.72,-166.98"/>
</g>
<!-- Node4 -->
<g id="node4" class="node">
<title>Node4</title>
<g id="a_node4"><a xlink:href="group__zwave__api__transport.html#ga0b879fc413b5e3faaf848287f0d36d22" target="_top" xlink:title="Initialize the Z&#45;Wave API Transport *.">
<polygon fill="none" stroke="black" points="154.5,-214.5 154.5,-233.5 279.5,-233.5 279.5,-214.5 154.5,-214.5"/>
<text text-anchor="middle" x="217" y="-221.5" font-family="Helvetica,sans-Serif" font-size="10.00">zwave_api_transport_init</text>
</a>
</g>
</g>
<!-- Node1&#45;&gt;Node4 -->
<g id="edge3" class="edge">
<title>Node1&#45;&gt;Node4</title>
<path fill="none" stroke="midnightblue" d="M358.18,-162.8C338.38,-176.33 311.05,-193.53 285,-205 276.7,-208.65 267.51,-211.8 258.67,-214.42"/>
<polygon fill="midnightblue" stroke="midnightblue" points="360.23,-165.64 366.45,-157.07 356.24,-159.89 360.23,-165.64"/>
</g>
<!-- Node5 -->
<g id="node5" class="node">
<title>Node5</title>
<g id="a_node5"><a xlink:href="group__crc16__transport.html#ga41d7716fd0dc4dd78d6747b6f8226671" target="_top" xlink:title="Initialize the CRC16 Transport *.">
<polygon fill="none" stroke="black" points="149,-176.5 149,-195.5 285,-195.5 285,-176.5 149,-176.5"/>
<text text-anchor="middle" x="217" y="-183.5" font-family="Helvetica,sans-Serif" font-size="10.00">zwave_crc16_transport_init</text>
</a>
</g>
</g>
<!-- Node1&#45;&gt;Node5 -->
<g id="edge5" class="edge">
<title>Node1&#45;&gt;Node5</title>
<path fill="none" stroke="midnightblue" d="M319.59,-159.55C297.38,-165.33 273.54,-171.54 254.54,-176.49"/>
<polygon fill="midnightblue" stroke="midnightblue" points="320.52,-162.93 329.31,-157.02 318.75,-156.15 320.52,-162.93"/>
</g>
<!-- Node6 -->
<g id="node6" class="node">
<title>Node6</title>
<g id="a_node6"><a xlink:href="group__zwave__multi__channel__transport.html#ga41f607e54c3aedd8783d43f185df6c0a" target="_top" xlink:title="Initialize the Multi Channel Transport *.">
<polygon fill="none" stroke="black" points="162,-127 162,-157 272,-157 272,-127 162,-127"/>
<text text-anchor="start" x="170" y="-145" font-family="Helvetica,sans-Serif" font-size="10.00">zwave_multi_channel</text>
<text text-anchor="middle" x="217" y="-134" font-family="Helvetica,sans-Serif" font-size="10.00">_transport_init</text>
</a>
</g>
</g>
<!-- Node1&#45;&gt;Node6 -->
<g id="edge7" class="edge">
<title>Node1&#45;&gt;Node6</title>
<path fill="none" stroke="midnightblue" d="M310.41,-142C297.49,-142 284.33,-142 272.14,-142"/>
<polygon fill="midnightblue" stroke="midnightblue" points="310.69,-145.5 320.69,-142 310.69,-138.5 310.69,-145.5"/>
</g>
<!-- Node7 -->
<g id="node7" class="node">
<title>Node7</title>
<g id="a_node7"><a xlink:href="group__zwave__s0__transport.html#ga7fcd7083b5fe3b6b2838d0d64f815f53" target="_top" xlink:title="Initialize the S0 Transport Also calls zwave_s0_network_init() which aborts all tx sessions and frees...">
<polygon fill="none" stroke="black" points="156,-88.5 156,-107.5 278,-107.5 278,-88.5 156,-88.5"/>
<text text-anchor="middle" x="217" y="-95.5" font-family="Helvetica,sans-Serif" font-size="10.00">zwave_s0_transport_init</text>
</a>
</g>
</g>
<!-- Node1&#45;&gt;Node7 -->
<g id="edge9" class="edge">
<title>Node1&#45;&gt;Node7</title>
<path fill="none" stroke="midnightblue" d="M319.59,-124.45C297.38,-118.67 273.54,-112.46 254.54,-107.51"/>
<polygon fill="midnightblue" stroke="midnightblue" points="318.75,-127.85 329.31,-126.98 320.52,-121.07 318.75,-127.85"/>
</g>
<!-- Node8 -->
<g id="node8" class="node">
<title>Node8</title>
<g id="a_node8"><a xlink:href="zwave__s2__process_8c.html#a51f51bd8129a84a685510bf2aaa812a9" target="_top" xlink:title=" ">
<polygon fill="none" stroke="black" points="177.5,-0.5 177.5,-19.5 256.5,-19.5 256.5,-0.5 177.5,-0.5"/>
<text text-anchor="middle" x="217" y="-7.5" font-family="Helvetica,sans-Serif" font-size="10.00">zwave_s2_init</text>
</a>
</g>
</g>
<!-- Node1&#45;&gt;Node8 -->
<g id="edge11" class="edge">
<title>Node1&#45;&gt;Node8</title>
<path fill="none" stroke="midnightblue" d="M371.69,-118.27C353.89,-92.55 322.14,-52.1 285,-29 276.48,-23.7 266.44,-19.84 256.76,-17.04"/>
<polygon fill="midnightblue" stroke="midnightblue" points="368.89,-120.38 377.39,-126.7 374.69,-116.46 368.89,-120.38"/>
</g>
<!-- Node10 -->
<g id="node10" class="node">
<title>Node10</title>
<g id="a_node10"><a xlink:href="group__transport__service__transport__wrapper.html#gad02263e40b63853166ac8a7601954f33" target="_top" xlink:title=" ">
<polygon fill="none" stroke="black" points="154.5,-39 154.5,-69 279.5,-69 279.5,-39 154.5,-39"/>
<text text-anchor="start" x="162.5" y="-57" font-family="Helvetica,sans-Serif" font-size="10.00">zwave_transport_service</text>
<text text-anchor="middle" x="217" y="-46" font-family="Helvetica,sans-Serif" font-size="10.00">_transport_init</text>
</a>
</g>
</g>
<!-- Node1&#45;&gt;Node10 -->
<g id="edge13" class="edge">
<title>Node1&#45;&gt;Node10</title>
<path fill="none" stroke="midnightblue" d="M357.1,-121.37C337.23,-108.2 310.24,-91.36 285,-79 277.75,-75.45 269.86,-72.09 262.13,-69.06"/>
<polygon fill="midnightblue" stroke="midnightblue" points="355.17,-124.29 365.43,-126.94 359.07,-118.47 355.17,-124.29"/>
</g>
<!-- Node3 -->
<g id="node3" class="node">
<title>Node3</title>
<g id="a_node3"><a xlink:href="group__zwave__transports__fixt.html#ga26fb2571e272a5094bd0320eca3a896d" target="_top" xlink:title="Setup fixture for Z&#45;Wave Transports.">
<polygon fill="none" stroke="black" points="0.5,-154.5 0.5,-173.5 112.5,-173.5 112.5,-154.5 0.5,-154.5"/>
<text text-anchor="middle" x="56.5" y="-161.5" font-family="Helvetica,sans-Serif" font-size="10.00">zwave_transports_init</text>
</a>
</g>
</g>
<!-- Node2&#45;&gt;Node3 -->
<g id="edge2" class="edge">
<title>Node2&#45;&gt;Node3</title>
<path fill="none" stroke="midnightblue" d="M159.63,-248.68C155.97,-246.9 152.39,-245.01 149,-243 115.05,-222.89 81.62,-189.71 66.25,-173.51"/>
<polygon fill="midnightblue" stroke="midnightblue" points="158.32,-251.93 168.88,-252.85 161.21,-245.55 158.32,-251.93"/>
</g>
<!-- Node4&#45;&gt;Node3 -->
<g id="edge4" class="edge">
<title>Node4&#45;&gt;Node3</title>
<path fill="none" stroke="midnightblue" d="M169.02,-211.61C162.25,-209.56 155.41,-207.33 149,-205 123.48,-195.72 95.08,-182.52 76.8,-173.63"/>
<polygon fill="midnightblue" stroke="midnightblue" points="168.25,-215.04 178.83,-214.5 170.22,-208.32 168.25,-215.04"/>
</g>
<!-- Node5&#45;&gt;Node3 -->
<g id="edge6" class="edge">
<title>Node5&#45;&gt;Node3</title>
<path fill="none" stroke="midnightblue" d="M138.61,-175.26C129.91,-174.05 121.18,-172.84 112.84,-171.68"/>
<polygon fill="midnightblue" stroke="midnightblue" points="138.4,-178.76 148.78,-176.67 139.36,-171.83 138.4,-178.76"/>
</g>
<!-- Node6&#45;&gt;Node3 -->
<g id="edge8" class="edge">
<title>Node6&#45;&gt;Node3</title>
<path fill="none" stroke="midnightblue" d="M151.68,-150.93C138.76,-152.72 125.29,-154.59 112.71,-156.34"/>
<polygon fill="midnightblue" stroke="midnightblue" points="152.47,-154.35 161.9,-149.51 151.51,-147.42 152.47,-154.35"/>
</g>
<!-- Node7&#45;&gt;Node3 -->
<g id="edge10" class="edge">
<title>Node7&#45;&gt;Node3</title>
<path fill="none" stroke="midnightblue" d="M170.15,-110.51C163,-112.8 155.75,-115.32 149,-118 122.06,-128.69 92.33,-144.42 74.29,-154.43"/>
<polygon fill="midnightblue" stroke="midnightblue" points="171.26,-113.83 179.79,-107.54 169.2,-107.15 171.26,-113.83"/>
</g>
<!-- Node9 -->
<g id="node9" class="node">
<title>Node9</title>
<g id="a_node9"><a xlink:href="zwave__s2__process_8c.html#afac04df3afbbd6765ef8bc3841257d47" target="_top" xlink:title=" ">
<polygon fill="none" stroke="black" points="0,-0.5 0,-19.5 113,-19.5 113,-0.5 0,-0.5"/>
<text text-anchor="middle" x="56.5" y="-7.5" font-family="Helvetica,sans-Serif" font-size="10.00">PROCESS_THREAD</text>
</a>
</g>
</g>
<!-- Node8&#45;&gt;Node9 -->
<g id="edge12" class="edge">
<title>Node8&#45;&gt;Node9</title>
<path fill="none" stroke="midnightblue" d="M166.95,-10C149.94,-10 130.75,-10 113.24,-10"/>
<polygon fill="midnightblue" stroke="midnightblue" points="167.23,-13.5 177.23,-10 167.23,-6.5 167.23,-13.5"/>
</g>
<!-- Node10&#45;&gt;Node3 -->
<g id="edge14" class="edge">
<title>Node10&#45;&gt;Node3</title>
<path fill="none" stroke="midnightblue" d="M159.05,-73.43C155.58,-75.17 152.2,-77.03 149,-79 113.94,-100.63 80.52,-136.98 65.62,-154.28"/>
<polygon fill="midnightblue" stroke="midnightblue" points="160.8,-76.48 168.4,-69.1 157.86,-70.12 160.8,-76.48"/>
</g>
</g>
</svg>
