<?xml version="1.0" encoding="UTF-8" standalone="no"?>
<!DOCTYPE svg PUBLIC "-//W3C//DTD SVG 1.1//EN"
 "http://www.w3.org/Graphics/SVG/1.1/DTD/svg11.dtd">
<!-- Generated by graphviz version 2.43.0 (0)
 -->
<!-- Title: is_node_in_resolution_list Pages: 1 -->
<svg width="457pt" height="28pt"
 viewBox="0.00 0.00 457.00 28.00" xmlns="http://www.w3.org/2000/svg" xmlns:xlink="http://www.w3.org/1999/xlink">
<g id="graph0" class="graph" transform="scale(1 1) rotate(0) translate(4 24)">
<title>is_node_in_resolution_list</title>
<!-- Node1 -->
<g id="node1" class="node">
<title>Node1</title>
<g id="a_node1"><a xlink:title="Helper function verifying if we are currently waiting for a send data callback for a given node resol...">
<polygon fill="#bfbfbf" stroke="black" points="321,-0.5 321,-19.5 449,-19.5 449,-0.5 321,-0.5"/>
<text text-anchor="middle" x="385" y="-7.5" font-family="Helvetica,sans-Serif" font-size="10.00">is_node_in_resolution_list</text>
</a>
</g>
</g>
<!-- Node2 -->
<g id="node2" class="node">
<title>Node2</title>
<g id="a_node2"><a xlink:href="group__attribute__resolver__send.html#ga577f6ba4fa977a389873ee62e02aeead" target="_top" xlink:title="function that the ZPC attribute resolver uses send PAN frames">
<polygon fill="none" stroke="black" points="167,-0.5 167,-19.5 285,-19.5 285,-0.5 167,-0.5"/>
<text text-anchor="middle" x="226" y="-7.5" font-family="Helvetica,sans-Serif" font-size="10.00">attribute_resolver_send</text>
</a>
</g>
</g>
<!-- Node1&#45;&gt;Node2 -->
<g id="edge1" class="edge">
<title>Node1&#45;&gt;Node2</title>
<path fill="none" stroke="midnightblue" d="M310.32,-10C301.84,-10 293.29,-10 285.06,-10"/>
<polygon fill="midnightblue" stroke="midnightblue" points="310.59,-13.5 320.59,-10 310.59,-6.5 310.59,-13.5"/>
</g>
<!-- Node3 -->
<g id="node3" class="node">
<title>Node3</title>
<g id="a_node3"><a xlink:href="group__zpc__attribute__resolver__fixt.html#ga50dc081eb97c7ba1ec9259257613cfc4" target="_top" xlink:title="Initialize the ZPC attribute resolver, which in turn calls Unify attribute resolver init.">
<polygon fill="none" stroke="black" points="0,-0.5 0,-19.5 131,-19.5 131,-0.5 0,-0.5"/>
<text text-anchor="middle" x="65.5" y="-7.5" font-family="Helvetica,sans-Serif" font-size="10.00">zpc_attribute_resolver_init</text>
</a>
</g>
</g>
<!-- Node2&#45;&gt;Node3 -->
<g id="edge2" class="edge">
<title>Node2&#45;&gt;Node3</title>
<path fill="none" stroke="midnightblue" d="M156.63,-10C148.13,-10 139.47,-10 131.03,-10"/>
<polygon fill="midnightblue" stroke="midnightblue" points="156.88,-13.5 166.88,-10 156.88,-6.5 156.88,-13.5"/>
</g>
</g>
</svg>
