<?xml version="1.0" encoding="UTF-8" standalone="no"?>
<!DOCTYPE svg PUBLIC "-//W3C//DTD SVG 1.1//EN"
 "http://www.w3.org/Graphics/SVG/1.1/DTD/svg11.dtd">
<!-- Generated by graphviz version 2.43.0 (0)
 -->
<!-- Title: zwave_s2_create_new_dynamic_ecdh_key Pages: 1 -->
<svg width="727pt" height="131pt"
 viewBox="0.00 0.00 727.00 131.20" xmlns="http://www.w3.org/2000/svg" xmlns:xlink="http://www.w3.org/1999/xlink">
<g id="graph0" class="graph" transform="scale(1 1) rotate(0) translate(4 127.2)">
<title>zwave_s2_create_new_dynamic_ecdh_key</title>
<!-- Node1 -->
<g id="node1" class="node">
<title>Node1</title>
<g id="a_node1"><a xlink:title=" ">
<polygon fill="#bfbfbf" stroke="black" points="603,-38.2 603,-68.2 719,-68.2 719,-38.2 603,-38.2"/>
<text text-anchor="start" x="611" y="-56.2" font-family="Helvetica,sans-Serif" font-size="10.00">zwave_s2_create_new</text>
<text text-anchor="middle" x="661" y="-45.2" font-family="Helvetica,sans-Serif" font-size="10.00">_dynamic_ecdh_key</text>
</a>
</g>
</g>
<!-- Node2 -->
<g id="node2" class="node">
<title>Node2</title>
<g id="a_node2"><a xlink:href="zwave__s2__network_8c.html#a825285685f41a3ccbab132180aaec83d" target="_top" xlink:title=" ">
<polygon fill="none" stroke="black" points="469,-103.7 469,-122.7 546,-122.7 546,-103.7 469,-103.7"/>
<text text-anchor="middle" x="507.5" y="-110.7" font-family="Helvetica,sans-Serif" font-size="10.00">event_handler</text>
</a>
</g>
</g>
<!-- Node1&#45;&gt;Node2 -->
<g id="edge1" class="edge">
<title>Node1&#45;&gt;Node2</title>
<path fill="none" stroke="midnightblue" d="M612.27,-72.11C585.73,-82.62 553.86,-95.24 532.51,-103.7"/>
<polygon fill="midnightblue" stroke="midnightblue" points="613.76,-75.28 621.77,-68.34 611.18,-68.77 613.76,-75.28"/>
</g>
<!-- Node3 -->
<g id="node3" class="node">
<title>Node3</title>
<g id="a_node3"><a xlink:href="group__zwave__s2__network.html#ga0be26cd9f5167a9c1f8cbe812b6b899f" target="_top" xlink:title="Initialize the S2 network layer.">
<polygon fill="none" stroke="black" points="291.5,-65.7 291.5,-84.7 410.5,-84.7 410.5,-65.7 291.5,-65.7"/>
<text text-anchor="middle" x="351" y="-72.7" font-family="Helvetica,sans-Serif" font-size="10.00">zwave_s2_network_init</text>
</a>
</g>
</g>
<!-- Node1&#45;&gt;Node3 -->
<g id="edge12" class="edge">
<title>Node1&#45;&gt;Node3</title>
<path fill="none" stroke="midnightblue" d="M592.56,-58.02C538.23,-61.9 462.61,-67.3 410.74,-71.01"/>
<polygon fill="midnightblue" stroke="midnightblue" points="593.06,-61.49 602.79,-57.29 592.57,-54.51 593.06,-61.49"/>
</g>
<!-- Node8 -->
<g id="node8" class="node">
<title>Node8</title>
<g id="a_node8"><a xlink:href="zwave__s2__keystore_8c.html#a05061e136e066ce35c864fbf5a28d1bf" target="_top" xlink:title=" ">
<polygon fill="none" stroke="black" points="448,-16.2 448,-46.2 567,-46.2 567,-16.2 448,-16.2"/>
<text text-anchor="start" x="456" y="-34.2" font-family="Helvetica,sans-Serif" font-size="10.00">zwave_s2_create_new</text>
<text text-anchor="middle" x="507.5" y="-23.2" font-family="Helvetica,sans-Serif" font-size="10.00">_learn_mode_ecdh_key</text>
</a>
</g>
</g>
<!-- Node1&#45;&gt;Node8 -->
<g id="edge8" class="edge">
<title>Node1&#45;&gt;Node8</title>
<path fill="none" stroke="midnightblue" d="M592.78,-43.44C584.22,-42.2 575.52,-40.94 567.12,-39.72"/>
<polygon fill="midnightblue" stroke="midnightblue" points="592.33,-46.91 602.72,-44.89 593.33,-39.99 592.33,-46.91"/>
</g>
<!-- Node9 -->
<g id="node9" class="node">
<title>Node9</title>
<g id="a_node9"><a xlink:href="group__zwave__s2__keystore__internals.html#gad872f58f76c4d4974b5fe50ac641004b" target="_top" xlink:title="Initialize the keystore.">
<polygon fill="none" stroke="black" points="290,-21.7 290,-40.7 412,-40.7 412,-21.7 290,-21.7"/>
<text text-anchor="middle" x="351" y="-28.7" font-family="Helvetica,sans-Serif" font-size="10.00">zwave_s2_keystore_init</text>
</a>
</g>
</g>
<!-- Node1&#45;&gt;Node9 -->
<g id="edge11" class="edge">
<title>Node1&#45;&gt;Node9</title>
<path fill="none" stroke="midnightblue" d="M628.86,-32.83C611.44,-22.65 588.88,-11.42 567,-6.2 501.39,9.43 422.08,-9.15 380.55,-21.65"/>
<polygon fill="midnightblue" stroke="midnightblue" points="627.1,-35.86 637.47,-38.02 630.72,-29.86 627.1,-35.86"/>
</g>
<!-- Node2&#45;&gt;Node3 -->
<g id="edge2" class="edge">
<title>Node2&#45;&gt;Node3</title>
<path fill="none" stroke="midnightblue" d="M458.95,-101.51C437.06,-96.13 411.43,-89.82 390.75,-84.73"/>
<polygon fill="midnightblue" stroke="midnightblue" points="458.16,-104.92 468.71,-103.91 459.83,-98.12 458.16,-104.92"/>
</g>
<!-- Node4 -->
<g id="node4" class="node">
<title>Node4</title>
<g id="a_node4"><a xlink:href="nm__state__machine_8c.html#ac9fe4041f9ca45bad16c9b6ad7bae02f" target="_top" xlink:title=" ">
<polygon fill="none" stroke="black" points="149,-65.7 149,-84.7 254,-84.7 254,-65.7 149,-65.7"/>
<text text-anchor="middle" x="201.5" y="-72.7" font-family="Helvetica,sans-Serif" font-size="10.00">nm_fsm_post_event</text>
</a>
</g>
</g>
<!-- Node3&#45;&gt;Node4 -->
<g id="edge3" class="edge">
<title>Node3&#45;&gt;Node4</title>
<path fill="none" stroke="midnightblue" d="M281.16,-75.2C272.14,-75.2 263.02,-75.2 254.34,-75.2"/>
<polygon fill="midnightblue" stroke="midnightblue" points="281.28,-78.7 291.28,-75.2 281.28,-71.7 281.28,-78.7"/>
</g>
<!-- Node6 -->
<g id="node6" class="node">
<title>Node6</title>
<g id="a_node6"><a xlink:href="zwave__s2__process_8c.html#a51f51bd8129a84a685510bf2aaa812a9" target="_top" xlink:title=" ">
<polygon fill="none" stroke="black" points="162,-24.7 162,-43.7 241,-43.7 241,-24.7 162,-24.7"/>
<text text-anchor="middle" x="201.5" y="-31.7" font-family="Helvetica,sans-Serif" font-size="10.00">zwave_s2_init</text>
</a>
</g>
</g>
<!-- Node3&#45;&gt;Node6 -->
<g id="edge6" class="edge">
<title>Node3&#45;&gt;Node6</title>
<path fill="none" stroke="midnightblue" d="M305.95,-62.96C283.81,-56.81 257.38,-49.46 236.78,-43.73"/>
<polygon fill="midnightblue" stroke="midnightblue" points="305.22,-66.39 315.79,-65.69 307.09,-59.64 305.22,-66.39"/>
</g>
<!-- Node4&#45;&gt;Node4 -->
<g id="edge4" class="edge">
<title>Node4&#45;&gt;Node4</title>
<path fill="none" stroke="midnightblue" d="M228.38,-93.86C227.26,-99.14 218.3,-103.2 201.5,-103.2 175.91,-103.2 168.51,-93.77 179.31,-84.96"/>
<polygon fill="midnightblue" stroke="midnightblue" points="231.45,-92.18 223.69,-84.96 225.26,-95.44 231.45,-92.18"/>
</g>
<!-- Node5 -->
<g id="node5" class="node">
<title>Node5</title>
<g id="a_node5"><a xlink:href="zwave__network__management__process_8c.html#a59cf655b084839b45cc25e23b3aef04c" target="_top" xlink:title=" ">
<polygon fill="none" stroke="black" points="0,-65.7 0,-84.7 113,-84.7 113,-65.7 0,-65.7"/>
<text text-anchor="middle" x="56.5" y="-72.7" font-family="Helvetica,sans-Serif" font-size="10.00">PROCESS_THREAD</text>
</a>
</g>
</g>
<!-- Node4&#45;&gt;Node5 -->
<g id="edge5" class="edge">
<title>Node4&#45;&gt;Node5</title>
<path fill="none" stroke="midnightblue" d="M138.73,-75.2C130.31,-75.2 121.71,-75.2 113.4,-75.2"/>
<polygon fill="midnightblue" stroke="midnightblue" points="138.87,-78.7 148.87,-75.2 138.87,-71.7 138.87,-78.7"/>
</g>
<!-- Node7 -->
<g id="node7" class="node">
<title>Node7</title>
<g id="a_node7"><a xlink:href="zwave__s2__process_8c.html#afac04df3afbbd6765ef8bc3841257d47" target="_top" xlink:title=" ">
<polygon fill="none" stroke="black" points="0,-24.7 0,-43.7 113,-43.7 113,-24.7 0,-24.7"/>
<text text-anchor="middle" x="56.5" y="-31.7" font-family="Helvetica,sans-Serif" font-size="10.00">PROCESS_THREAD</text>
</a>
</g>
</g>
<!-- Node6&#45;&gt;Node7 -->
<g id="edge7" class="edge">
<title>Node6&#45;&gt;Node7</title>
<path fill="none" stroke="midnightblue" d="M151.66,-34.2C139.26,-34.2 125.85,-34.2 113.14,-34.2"/>
<polygon fill="midnightblue" stroke="midnightblue" points="151.8,-37.7 161.8,-34.2 151.8,-30.7 151.8,-37.7"/>
</g>
<!-- Node8&#45;&gt;Node9 -->
<g id="edge9" class="edge">
<title>Node8&#45;&gt;Node9</title>
<path fill="none" stroke="midnightblue" d="M437.47,-31.2C429.05,-31.2 420.5,-31.2 412.22,-31.2"/>
<polygon fill="midnightblue" stroke="midnightblue" points="437.65,-34.7 447.65,-31.2 437.65,-27.7 437.65,-34.7"/>
</g>
<!-- Node9&#45;&gt;Node6 -->
<g id="edge10" class="edge">
<title>Node9&#45;&gt;Node6</title>
<path fill="none" stroke="midnightblue" d="M279.51,-32.64C266.27,-32.91 252.88,-33.18 241.07,-33.42"/>
<polygon fill="midnightblue" stroke="midnightblue" points="279.65,-36.14 289.58,-32.43 279.51,-29.14 279.65,-36.14"/>
</g>
</g>
</svg>
