<?xml version="1.0" encoding="UTF-8" standalone="no"?>
<!DOCTYPE svg PUBLIC "-//W3C//DTD SVG 1.1//EN"
 "http://www.w3.org/Graphics/SVG/1.1/DTD/svg11.dtd">
<!-- Generated by graphviz version 2.43.0 (0)
 -->
<!-- Title: network_management_take_sis_role_if_no_suc_in_network Pages: 1 -->
<svg width="1931pt" height="541pt"
 viewBox="0.00 0.00 1931.00 541.00" xmlns="http://www.w3.org/2000/svg" xmlns:xlink="http://www.w3.org/1999/xlink">
<g id="graph0" class="graph" transform="scale(1 1) rotate(0) translate(4 537)">
<title>network_management_take_sis_role_if_no_suc_in_network</title>
<!-- Node1 -->
<g id="node1" class="node">
<title>Node1</title>
<g id="a_node1"><a xlink:title="Attempts to take the SUC/SIS Role, if there is no SUC in the network.">
<polygon fill="#bfbfbf" stroke="black" points="0,-255 0,-296 113,-296 113,-255 0,-255"/>
<text text-anchor="start" x="8" y="-284" font-family="Helvetica,sans-Serif" font-size="10.00">network_management</text>
<text text-anchor="start" x="8" y="-273" font-family="Helvetica,sans-Serif" font-size="10.00">_take_sis_role_if_no</text>
<text text-anchor="middle" x="56.5" y="-262" font-family="Helvetica,sans-Serif" font-size="10.00">_suc_in_network</text>
</a>
</g>
</g>
<!-- Node2 -->
<g id="node2" class="node">
<title>Node2</title>
<g id="a_node2"><a xlink:href="group__zwave__network__management__helpers.html#gad93f9cb8e3a634d25bc50f6b452a143e" target="_top" xlink:title="Asks the Z&#45;Wave API to tell us what are the controller&#39;s capabilities in this network.">
<polygon fill="none" stroke="black" points="306,-283 306,-324 419,-324 419,-283 306,-283"/>
<text text-anchor="start" x="314" y="-312" font-family="Helvetica,sans-Serif" font-size="10.00">network_management</text>
<text text-anchor="start" x="314" y="-301" font-family="Helvetica,sans-Serif" font-size="10.00">_refresh_controller</text>
<text text-anchor="middle" x="362.5" y="-290" font-family="Helvetica,sans-Serif" font-size="10.00">_capabilities_bitmask</text>
</a>
</g>
</g>
<!-- Node1&#45;&gt;Node2 -->
<g id="edge1" class="edge">
<title>Node1&#45;&gt;Node2</title>
<path fill="none" stroke="midnightblue" d="M113.26,-280.64C164.71,-285.37 241.15,-292.42 295.6,-297.43"/>
<polygon fill="midnightblue" stroke="midnightblue" points="295.56,-300.94 305.84,-298.37 296.2,-293.97 295.56,-300.94"/>
</g>
<!-- Node33 -->
<g id="node33" class="node">
<title>Node33</title>
<g id="a_node33"><a xlink:href="group__zwave__network__management__callbacks.html#gab508cf96457f21a32bdca2bbbafccb42" target="_top" xlink:title="callback function for zwapi_set_suc_node_id()">
<polygon fill="none" stroke="black" points="156.5,-304.5 156.5,-334.5 262.5,-334.5 262.5,-304.5 156.5,-304.5"/>
<text text-anchor="start" x="164.5" y="-322.5" font-family="Helvetica,sans-Serif" font-size="10.00">on_set_suc_node_id</text>
<text text-anchor="middle" x="209.5" y="-311.5" font-family="Helvetica,sans-Serif" font-size="10.00">_completed</text>
</a>
</g>
</g>
<!-- Node1&#45;&gt;Node33 -->
<g id="edge50" class="edge">
<title>Node1&#45;&gt;Node33</title>
<path fill="none" stroke="midnightblue" d="M113.3,-291.76C124.34,-294.98 136,-298.37 147.21,-301.64"/>
<polygon fill="midnightblue" stroke="midnightblue" points="146.35,-305.04 156.93,-304.47 148.31,-298.32 146.35,-305.04"/>
</g>
<!-- Node34 -->
<g id="node34" class="node">
<title>Node34</title>
<g id="a_node34"><a xlink:href="group__ZWAPI__CONTROLLER.html#ga6d91d2887a006b8da28f68961174ae54" target="_top" xlink:title="Enable/disable the Static Update Controller functionality in a specified static controller.">
<polygon fill="none" stroke="black" points="149,-228 149,-247 270,-247 270,-228 149,-228"/>
<text text-anchor="middle" x="209.5" y="-235" font-family="Helvetica,sans-Serif" font-size="10.00">zwapi_set_suc_node_id</text>
</a>
</g>
</g>
<!-- Node1&#45;&gt;Node34 -->
<g id="edge52" class="edge">
<title>Node1&#45;&gt;Node34</title>
<path fill="none" stroke="midnightblue" d="M113.3,-261.46C128.72,-257.58 145.33,-253.4 160.29,-249.63"/>
<polygon fill="midnightblue" stroke="midnightblue" points="161.5,-252.94 170.34,-247.1 159.79,-246.15 161.5,-252.94"/>
</g>
<!-- Node3 -->
<g id="node3" class="node">
<title>Node3</title>
<g id="a_node3"><a xlink:href="group__ZWAPI__CONTROLLER.html#ga1c8e6e8d406243318e491e21b6ceb838" target="_top" xlink:title="Get capabilities of a controller.">
<polygon fill="none" stroke="black" points="474.5,-285.5 474.5,-315.5 580.5,-315.5 580.5,-285.5 474.5,-285.5"/>
<text text-anchor="start" x="482.5" y="-303.5" font-family="Helvetica,sans-Serif" font-size="10.00">zwapi_get_controller</text>
<text text-anchor="middle" x="527.5" y="-292.5" font-family="Helvetica,sans-Serif" font-size="10.00">_capabilities</text>
</a>
</g>
</g>
<!-- Node2&#45;&gt;Node3 -->
<g id="edge2" class="edge">
<title>Node2&#45;&gt;Node3</title>
<path fill="none" stroke="midnightblue" d="M419.14,-302.48C433.68,-302.21 449.44,-301.92 464.29,-301.64"/>
<polygon fill="midnightblue" stroke="midnightblue" points="464.47,-305.14 474.41,-301.46 464.34,-298.14 464.47,-305.14"/>
</g>
<!-- Node4 -->
<g id="node4" class="node">
<title>Node4</title>
<g id="a_node4"><a xlink:href="zwapi__init_8c.html#a5ec89d5817b8ce00454fce891ae8400e" target="_top" xlink:title="Send a command to the Z&#45;Wave module and waits for an ACK.">
<polygon fill="none" stroke="black" points="636,-242.5 636,-272.5 752,-272.5 752,-242.5 636,-242.5"/>
<text text-anchor="start" x="644" y="-260.5" font-family="Helvetica,sans-Serif" font-size="10.00">zwapi_send_command</text>
<text text-anchor="middle" x="694" y="-249.5" font-family="Helvetica,sans-Serif" font-size="10.00">_with_response</text>
</a>
</g>
</g>
<!-- Node3&#45;&gt;Node4 -->
<g id="edge3" class="edge">
<title>Node3&#45;&gt;Node4</title>
<path fill="none" stroke="midnightblue" d="M580.55,-286.89C594.99,-283.12 610.87,-278.97 626.03,-275.01"/>
<polygon fill="midnightblue" stroke="midnightblue" points="627.08,-278.35 635.87,-272.43 625.31,-271.58 627.08,-278.35"/>
</g>
<!-- Node5 -->
<g id="node5" class="node">
<title>Node5</title>
<g id="a_node5"><a xlink:href="zwapi__session_8c.html#abf613a2ad7710ac80fb239ba55e621d7" target="_top" xlink:title="Send data frame to Z&#45;Wave chip via serial API, wait for ACK and a RES frame.">
<polygon fill="none" stroke="black" points="806.5,-264.5 806.5,-294.5 921.5,-294.5 921.5,-264.5 806.5,-264.5"/>
<text text-anchor="start" x="814.5" y="-282.5" font-family="Helvetica,sans-Serif" font-size="10.00">zwapi_session_send</text>
<text text-anchor="middle" x="864" y="-271.5" font-family="Helvetica,sans-Serif" font-size="10.00">_frame_with_response</text>
</a>
</g>
</g>
<!-- Node4&#45;&gt;Node5 -->
<g id="edge4" class="edge">
<title>Node4&#45;&gt;Node5</title>
<path fill="none" stroke="midnightblue" d="M752.35,-265.01C766.56,-266.87 781.9,-268.88 796.51,-270.79"/>
<polygon fill="midnightblue" stroke="midnightblue" points="796.11,-274.27 806.48,-272.1 797.02,-267.33 796.11,-274.27"/>
</g>
<!-- Node32 -->
<g id="node32" class="node">
<title>Node32</title>
<g id="a_node32"><a xlink:href="group__ZWAPI__INIT.html#ga0a823074baec69913d0e8590b46e4e33" target="_top" xlink:title="Check if a command is supported by the connected Z&#45;Wave module.">
<polygon fill="none" stroke="black" points="788,-226 788,-245 940,-245 940,-226 788,-226"/>
<text text-anchor="middle" x="864" y="-233" font-family="Helvetica,sans-Serif" font-size="10.00">zwapi_support_command_func</text>
</a>
</g>
</g>
<!-- Node4&#45;&gt;Node32 -->
<g id="edge49" class="edge">
<title>Node4&#45;&gt;Node32</title>
<path fill="none" stroke="midnightblue" d="M752.35,-249.99C761.28,-248.82 770.67,-247.59 780.03,-246.36"/>
<polygon fill="midnightblue" stroke="midnightblue" points="780.71,-249.81 790.17,-245.04 779.8,-242.87 780.71,-249.81"/>
</g>
<!-- Node6 -->
<g id="node6" class="node">
<title>Node6</title>
<g id="a_node6"><a xlink:href="zwapi__connection_8c.html#a91ce3acd7eff779496789637a9c27f40" target="_top" xlink:title="Provides the data of the serial buffer for the last received frame.">
<polygon fill="none" stroke="black" points="1471.5,-502.5 1471.5,-532.5 1584.5,-532.5 1584.5,-502.5 1471.5,-502.5"/>
<text text-anchor="start" x="1479.5" y="-520.5" font-family="Helvetica,sans-Serif" font-size="10.00">zwapi_connection_get</text>
<text text-anchor="middle" x="1528" y="-509.5" font-family="Helvetica,sans-Serif" font-size="10.00">_last_rx_frame</text>
</a>
</g>
</g>
<!-- Node5&#45;&gt;Node6 -->
<g id="edge5" class="edge">
<title>Node5&#45;&gt;Node6</title>
<path fill="none" stroke="midnightblue" d="M878.14,-294.76C897.47,-316.27 935.66,-355.36 976,-377.5 1136.51,-465.61 1353.74,-499.54 1461.2,-511.54"/>
<polygon fill="midnightblue" stroke="midnightblue" points="1460.93,-515.03 1471.25,-512.64 1461.68,-508.07 1460.93,-515.03"/>
</g>
<!-- Node7 -->
<g id="node7" class="node">
<title>Node7</title>
<g id="a_node7"><a xlink:href="zwapi__connection_8c.html#a86b069d152a5c2f8ac95774a688dff48" target="_top" xlink:title="make the zwapi_connection_status types human readable.">
<polygon fill="none" stroke="black" points="976,-176.5 976,-206.5 1103,-206.5 1103,-176.5 976,-176.5"/>
<text text-anchor="start" x="984" y="-194.5" font-family="Helvetica,sans-Serif" font-size="10.00">zwapi_connection_status</text>
<text text-anchor="middle" x="1039.5" y="-183.5" font-family="Helvetica,sans-Serif" font-size="10.00">_to_string</text>
</a>
</g>
</g>
<!-- Node5&#45;&gt;Node7 -->
<g id="edge6" class="edge">
<title>Node5&#45;&gt;Node7</title>
<path fill="none" stroke="midnightblue" d="M919.46,-264.39C926.58,-261.54 933.61,-258.26 940,-254.5 958.71,-243.49 958.02,-233.66 976,-221.5 981.36,-217.87 987.24,-214.44 993.16,-211.29"/>
<polygon fill="midnightblue" stroke="midnightblue" points="995.12,-214.22 1002.46,-206.57 991.96,-207.98 995.12,-214.22"/>
</g>
<!-- Node8 -->
<g id="node8" class="node">
<title>Node8</title>
<g id="a_node8"><a xlink:href="zwapi__session_8c.html#a1f2b3e7c2dcf31708ef8d333747352ba" target="_top" xlink:title=" ">
<polygon fill="none" stroke="black" points="1301.5,-409.5 1301.5,-439.5 1424.5,-439.5 1424.5,-409.5 1301.5,-409.5"/>
<text text-anchor="start" x="1309.5" y="-427.5" font-family="Helvetica,sans-Serif" font-size="10.00">zwapi_session_enqueue</text>
<text text-anchor="middle" x="1363" y="-416.5" font-family="Helvetica,sans-Serif" font-size="10.00">_frame</text>
</a>
</g>
</g>
<!-- Node5&#45;&gt;Node8 -->
<g id="edge7" class="edge">
<title>Node5&#45;&gt;Node8</title>
<path fill="none" stroke="midnightblue" d="M891.18,-294.56C938.78,-321.14 1043.41,-375.99 1139,-401.5 1188.89,-414.82 1246.96,-420.51 1291.33,-422.9"/>
<polygon fill="midnightblue" stroke="midnightblue" points="1291.28,-426.4 1301.44,-423.4 1291.63,-419.41 1291.28,-426.4"/>
</g>
<!-- Node11 -->
<g id="node11" class="node">
<title>Node11</title>
<g id="a_node11"><a xlink:href="zwapi__session_8c.html#a32577f3500efc3d937dbc68eebb3c370" target="_top" xlink:title="Send data frame to Z&#45;Wave chip via serial port and wait for ACK.">
<polygon fill="none" stroke="black" points="986,-264.5 986,-294.5 1093,-294.5 1093,-264.5 986,-264.5"/>
<text text-anchor="start" x="994" y="-282.5" font-family="Helvetica,sans-Serif" font-size="10.00">zwapi_session_send</text>
<text text-anchor="middle" x="1039.5" y="-271.5" font-family="Helvetica,sans-Serif" font-size="10.00">_frame</text>
</a>
</g>
</g>
<!-- Node5&#45;&gt;Node11 -->
<g id="edge11" class="edge">
<title>Node5&#45;&gt;Node11</title>
<path fill="none" stroke="midnightblue" d="M921.81,-279.5C939.08,-279.5 958.15,-279.5 975.78,-279.5"/>
<polygon fill="midnightblue" stroke="midnightblue" points="975.97,-283 985.97,-279.5 975.97,-276 975.97,-283"/>
</g>
<!-- Node31 -->
<g id="node31" class="node">
<title>Node31</title>
<g id="a_node31"><a xlink:href="zwapi__session_8c.html#a9d30e1677f02d7730ab035aa9333235d" target="_top" xlink:title=" ">
<polygon fill="none" stroke="black" points="1148.5,-163.5 1148.5,-193.5 1252.5,-193.5 1252.5,-163.5 1148.5,-163.5"/>
<text text-anchor="start" x="1156.5" y="-181.5" font-family="Helvetica,sans-Serif" font-size="10.00">zwapi_session_wait</text>
<text text-anchor="middle" x="1200.5" y="-170.5" font-family="Helvetica,sans-Serif" font-size="10.00">_for_response</text>
</a>
</g>
</g>
<!-- Node5&#45;&gt;Node31 -->
<g id="edge48" class="edge">
<title>Node5&#45;&gt;Node31</title>
<path fill="none" stroke="midnightblue" d="M921.75,-266C970.27,-254.03 1041.76,-235.41 1103,-215.5 1119.53,-210.12 1137.37,-203.52 1153.17,-197.38"/>
<polygon fill="midnightblue" stroke="midnightblue" points="1154.67,-200.55 1162.7,-193.64 1152.12,-194.03 1154.67,-200.55"/>
</g>
<!-- Node8&#45;&gt;Node6 -->
<g id="edge8" class="edge">
<title>Node8&#45;&gt;Node6</title>
<path fill="none" stroke="midnightblue" d="M1383.04,-439.71C1402.53,-454.77 1434.13,-477.8 1464,-493.5 1467.25,-495.21 1470.64,-496.86 1474.1,-498.44"/>
<polygon fill="midnightblue" stroke="midnightblue" points="1472.79,-501.68 1483.36,-502.45 1475.57,-495.26 1472.79,-501.68"/>
</g>
<!-- Node9 -->
<g id="node9" class="node">
<title>Node9</title>
<g id="a_node9"><a xlink:href="zwapi__session_8c.html#ad7bac697ee2388b38ed3777b5a3862bc" target="_top" xlink:title=" ">
<polygon fill="none" stroke="black" points="1471.5,-453.5 1471.5,-483.5 1584.5,-483.5 1584.5,-453.5 1471.5,-453.5"/>
<text text-anchor="start" x="1479.5" y="-471.5" font-family="Helvetica,sans-Serif" font-size="10.00">zwapi_session_get_rx</text>
<text text-anchor="middle" x="1528" y="-460.5" font-family="Helvetica,sans-Serif" font-size="10.00">_queue_length</text>
</a>
</g>
</g>
<!-- Node8&#45;&gt;Node9 -->
<g id="edge9" class="edge">
<title>Node8&#45;&gt;Node9</title>
<path fill="none" stroke="midnightblue" d="M1419.64,-439.52C1433.07,-443.15 1447.55,-447.05 1461.39,-450.79"/>
<polygon fill="midnightblue" stroke="midnightblue" points="1460.77,-454.25 1471.33,-453.47 1462.59,-447.49 1460.77,-454.25"/>
</g>
<!-- Node10 -->
<g id="node10" class="node">
<title>Node10</title>
<g id="a_node10"><a xlink:href="group__ZWAPI__INIT.html#ga438a74c9752197d20d377874d5a61694" target="_top" xlink:title="Returns the pointer to the callbacks registered at init.">
<polygon fill="none" stroke="black" points="1464,-415 1464,-434 1592,-434 1592,-415 1464,-415"/>
<text text-anchor="middle" x="1528" y="-422" font-family="Helvetica,sans-Serif" font-size="10.00">zwave_api_get_callbacks</text>
</a>
</g>
</g>
<!-- Node8&#45;&gt;Node10 -->
<g id="edge10" class="edge">
<title>Node8&#45;&gt;Node10</title>
<path fill="none" stroke="midnightblue" d="M1424.7,-424.5C1434.17,-424.5 1444.04,-424.5 1453.76,-424.5"/>
<polygon fill="midnightblue" stroke="midnightblue" points="1453.8,-428 1463.8,-424.5 1453.8,-421 1453.8,-428"/>
</g>
<!-- Node11&#45;&gt;Node8 -->
<g id="edge29" class="edge">
<title>Node11&#45;&gt;Node8</title>
<path fill="none" stroke="midnightblue" d="M1053.21,-294.69C1070.56,-314.43 1103.59,-348.62 1139,-367.5 1186.54,-392.84 1245.84,-407.3 1291.35,-415.31"/>
<polygon fill="midnightblue" stroke="midnightblue" points="1290.98,-418.79 1301.42,-417.02 1292.15,-411.89 1290.98,-418.79"/>
</g>
<!-- Node12 -->
<g id="node12" class="node">
<title>Node12</title>
<g id="a_node12"><a xlink:href="zwapi__connection_8c.html#a13b6e6b6c56844f4344fabe490bc5eac" target="_top" xlink:title="Closes and re&#45;initializes the zwapi_connection to the Z&#45;Wave module.">
<polygon fill="none" stroke="black" points="1299,-251 1299,-270 1427,-270 1427,-251 1299,-251"/>
<text text-anchor="middle" x="1363" y="-258" font-family="Helvetica,sans-Serif" font-size="10.00">zwapi_connection_restart</text>
</a>
</g>
</g>
<!-- Node11&#45;&gt;Node12 -->
<g id="edge12" class="edge">
<title>Node11&#45;&gt;Node12</title>
<path fill="none" stroke="midnightblue" d="M1093.23,-276.38C1146.44,-273.24 1229.05,-268.36 1288.64,-264.84"/>
<polygon fill="midnightblue" stroke="midnightblue" points="1288.97,-268.32 1298.74,-264.24 1288.55,-261.33 1288.97,-268.32"/>
</g>
<!-- Node22 -->
<g id="node22" class="node">
<title>Node22</title>
<g id="a_node22"><a xlink:href="zwapi__timestamp_8c.html#a6ebe1ddfe689bce6ee72fc12f708aece" target="_top" xlink:title="get the timestamp">
<polygon fill="none" stroke="black" points="1472,-213 1472,-232 1584,-232 1584,-213 1472,-213"/>
<text text-anchor="middle" x="1528" y="-220" font-family="Helvetica,sans-Serif" font-size="10.00">zwapi_timestamp_get</text>
</a>
</g>
</g>
<!-- Node11&#45;&gt;Node22 -->
<g id="edge47" class="edge">
<title>Node11&#45;&gt;Node22</title>
<path fill="none" stroke="midnightblue" d="M1093.09,-270.03C1107.92,-267.46 1124.07,-264.77 1139,-262.5 1209.47,-251.77 1227.13,-249.12 1298,-241.5 1353.13,-235.58 1415.9,-230.48 1461.76,-227.07"/>
<polygon fill="midnightblue" stroke="midnightblue" points="1462.15,-230.55 1471.87,-226.32 1461.64,-223.57 1462.15,-230.55"/>
</g>
<!-- Node23 -->
<g id="node23" class="node">
<title>Node23</title>
<g id="a_node23"><a xlink:href="zwapi__connection_8c.html#af47f8cbd93974d5c91d659fdeb7a870b" target="_top" xlink:title="Transmit a frame via serial port by adding SOF, Len, Type, cmd and Checksum.">
<polygon fill="none" stroke="black" points="1309,-289 1309,-308 1417,-308 1417,-289 1309,-289"/>
<text text-anchor="middle" x="1363" y="-296" font-family="Helvetica,sans-Serif" font-size="10.00">zwapi_connection_tx</text>
</a>
</g>
</g>
<!-- Node11&#45;&gt;Node23 -->
<g id="edge23" class="edge">
<title>Node11&#45;&gt;Node23</title>
<path fill="none" stroke="midnightblue" d="M1093.23,-282.62C1149.56,-285.95 1238.83,-291.22 1298.86,-294.77"/>
<polygon fill="midnightblue" stroke="midnightblue" points="1298.79,-298.27 1308.97,-295.37 1299.2,-291.28 1298.79,-298.27"/>
</g>
<!-- Node25 -->
<g id="node25" class="node">
<title>Node25</title>
<g id="a_node25"><a xlink:href="zwapi__timestamp_8c.html#a3925f2732e344672608db38351236688" target="_top" xlink:title="compare the current timestamp with the timestamp passed as an argument">
<polygon fill="none" stroke="black" points="1475,-0.5 1475,-30.5 1581,-30.5 1581,-0.5 1475,-0.5"/>
<text text-anchor="start" x="1483" y="-18.5" font-family="Helvetica,sans-Serif" font-size="10.00">zwapi_is_timestamp</text>
<text text-anchor="middle" x="1528" y="-7.5" font-family="Helvetica,sans-Serif" font-size="10.00">_elapsed</text>
</a>
</g>
</g>
<!-- Node11&#45;&gt;Node25 -->
<g id="edge28" class="edge">
<title>Node11&#45;&gt;Node25</title>
<path fill="none" stroke="midnightblue" d="M1057.33,-264.46C1070.63,-252.08 1089.19,-233.68 1103,-215.5 1122.28,-190.13 1116.87,-176.43 1139,-153.5 1196.98,-93.44 1219.96,-83.14 1298,-53.5 1352.05,-32.97 1417.45,-23.52 1464.49,-19.17"/>
<polygon fill="midnightblue" stroke="midnightblue" points="1464.88,-22.65 1474.54,-18.3 1464.27,-15.68 1464.88,-22.65"/>
</g>
<!-- Node26 -->
<g id="node26" class="node">
<title>Node26</title>
<g id="a_node26"><a xlink:href="zwapi__session_8c.html#a2875fbfa250b7b25ecb6bc4f0b032cb8" target="_top" xlink:title="Loads the received frames from the serial device into the zwapi_session receive queue.">
<polygon fill="none" stroke="black" points="1139,-327.5 1139,-357.5 1262,-357.5 1262,-327.5 1139,-327.5"/>
<text text-anchor="start" x="1147" y="-345.5" font-family="Helvetica,sans-Serif" font-size="10.00">zwapi_session_enqueue</text>
<text text-anchor="middle" x="1200.5" y="-334.5" font-family="Helvetica,sans-Serif" font-size="10.00">_rx_frames</text>
</a>
</g>
</g>
<!-- Node11&#45;&gt;Node26 -->
<g id="edge30" class="edge">
<title>Node11&#45;&gt;Node26</title>
<path fill="none" stroke="midnightblue" d="M1078.58,-294.59C1100.63,-303.32 1128.57,-314.39 1152.03,-323.69"/>
<polygon fill="midnightblue" stroke="midnightblue" points="1150.86,-326.99 1161.45,-327.42 1153.44,-320.49 1150.86,-326.99"/>
</g>
<!-- Node11&#45;&gt;Node31 -->
<g id="edge43" class="edge">
<title>Node11&#45;&gt;Node31</title>
<path fill="none" stroke="midnightblue" d="M1078.28,-264.39C1086.8,-260.17 1095.52,-255.17 1103,-249.5 1122.32,-234.85 1119.77,-223.28 1139,-208.5 1143.7,-204.88 1148.91,-201.53 1154.24,-198.46"/>
<polygon fill="midnightblue" stroke="midnightblue" points="1156.12,-201.43 1163.26,-193.6 1152.8,-195.27 1156.12,-201.43"/>
</g>
<!-- Node13 -->
<g id="node13" class="node">
<title>Node13</title>
<g id="a_node13"><a xlink:href="zwapi__serial_8c.html#a3f2b3bd848e9fe0e6e137482bed06b46" target="_top" xlink:title="Flush the serial output if using buffered output.">
<polygon fill="none" stroke="black" points="1479.5,-251.5 1479.5,-281.5 1576.5,-281.5 1576.5,-251.5 1479.5,-251.5"/>
<text text-anchor="start" x="1487.5" y="-269.5" font-family="Helvetica,sans-Serif" font-size="10.00">zwapi_serial_drain</text>
<text text-anchor="middle" x="1528" y="-258.5" font-family="Helvetica,sans-Serif" font-size="10.00">_buffer</text>
</a>
</g>
</g>
<!-- Node12&#45;&gt;Node13 -->
<g id="edge13" class="edge">
<title>Node12&#45;&gt;Node13</title>
<path fill="none" stroke="midnightblue" d="M1427.02,-262.82C1440.87,-263.33 1455.47,-263.87 1469.11,-264.37"/>
<polygon fill="midnightblue" stroke="midnightblue" points="1469.2,-267.87 1479.32,-264.74 1469.45,-260.88 1469.2,-267.87"/>
</g>
<!-- Node14 -->
<g id="node14" class="node">
<title>Node14</title>
<g id="a_node14"><a xlink:href="zwapi__serial_8c.html#a7762d0358e9f398b92edbfd6a550984a" target="_top" xlink:title="Write a byte to serial port device.">
<polygon fill="none" stroke="black" points="1471.5,-175 1471.5,-194 1584.5,-194 1584.5,-175 1471.5,-175"/>
<text text-anchor="middle" x="1528" y="-182" font-family="Helvetica,sans-Serif" font-size="10.00">zwapi_serial_put_byte</text>
</a>
</g>
</g>
<!-- Node12&#45;&gt;Node14 -->
<g id="edge14" class="edge">
<title>Node12&#45;&gt;Node14</title>
<path fill="none" stroke="midnightblue" d="M1378.37,-250.92C1397.33,-238.62 1432.05,-217.22 1464,-203.5 1469.31,-201.22 1474.99,-199.1 1480.67,-197.16"/>
<polygon fill="midnightblue" stroke="midnightblue" points="1481.75,-200.49 1490.19,-194.08 1479.6,-193.83 1481.75,-200.49"/>
</g>
<!-- Node18 -->
<g id="node18" class="node">
<title>Node18</title>
<g id="a_node18"><a xlink:href="zwapi__serial_8c.html#aadf3397d0bd2c1657d4b1a373599acfe" target="_top" xlink:title="Closes and re&#45;initialize the last open serial port.">
<polygon fill="none" stroke="black" points="1476,-339 1476,-358 1580,-358 1580,-339 1476,-339"/>
<text text-anchor="middle" x="1528" y="-346" font-family="Helvetica,sans-Serif" font-size="10.00">zwapi_serial_restart</text>
</a>
</g>
</g>
<!-- Node12&#45;&gt;Node18 -->
<g id="edge18" class="edge">
<title>Node12&#45;&gt;Node18</title>
<path fill="none" stroke="midnightblue" d="M1403.33,-270.01C1411.66,-272.62 1420.27,-275.78 1428,-279.5 1457.96,-293.92 1488.82,-316.98 1507.95,-332.42"/>
<polygon fill="midnightblue" stroke="midnightblue" points="1505.92,-335.28 1515.87,-338.92 1510.36,-329.87 1505.92,-335.28"/>
</g>
<!-- Node12&#45;&gt;Node22 -->
<g id="edge22" class="edge">
<title>Node12&#45;&gt;Node22</title>
<path fill="none" stroke="midnightblue" d="M1405.13,-250.91C1426.74,-245.87 1453.41,-239.66 1476.29,-234.32"/>
<polygon fill="midnightblue" stroke="midnightblue" points="1477.22,-237.7 1486.16,-232.02 1475.63,-230.88 1477.22,-237.7"/>
</g>
<!-- Node15 -->
<g id="node15" class="node">
<title>Node15</title>
<g id="a_node15"><a xlink:href="zwapi__serial_8c.html#af9054824651df422bab5076d16a80fda" target="_top" xlink:title="Writes the content of a buffer to the serial port device.">
<polygon fill="none" stroke="black" points="1628,-176 1628,-195 1747,-195 1747,-176 1628,-176"/>
<text text-anchor="middle" x="1687.5" y="-183" font-family="Helvetica,sans-Serif" font-size="10.00">zwapi_serial_put_buffer</text>
</a>
</g>
</g>
<!-- Node14&#45;&gt;Node15 -->
<g id="edge15" class="edge">
<title>Node14&#45;&gt;Node15</title>
<path fill="none" stroke="midnightblue" d="M1584.53,-184.85C1595.24,-184.92 1606.59,-184.99 1617.66,-185.06"/>
<polygon fill="midnightblue" stroke="midnightblue" points="1617.71,-188.56 1627.74,-185.13 1617.76,-181.56 1617.71,-188.56"/>
</g>
<!-- Node16 -->
<g id="node16" class="node">
<title>Node16</title>
<g id="a_node16"><a xlink:href="zwapi__serial_8c.html#a0accbbf7ddb7aeab10f5df1fe3df6642" target="_top" xlink:title=" ">
<polygon fill="none" stroke="black" points="1783,-133 1783,-152 1923,-152 1923,-133 1783,-133"/>
<text text-anchor="middle" x="1853" y="-140" font-family="Helvetica,sans-Serif" font-size="10.00">zwapi_serial_log_timestamp</text>
</a>
</g>
</g>
<!-- Node15&#45;&gt;Node16 -->
<g id="edge16" class="edge">
<title>Node15&#45;&gt;Node16</title>
<path fill="none" stroke="midnightblue" d="M1724.79,-175.96C1748.71,-169.67 1780.24,-161.37 1805.93,-154.62"/>
<polygon fill="midnightblue" stroke="midnightblue" points="1807.03,-157.94 1815.82,-152.02 1805.25,-151.18 1807.03,-157.94"/>
</g>
<!-- Node17 -->
<g id="node17" class="node">
<title>Node17</title>
<g id="a_node17"><a xlink:href="zwapi__serial_8c.html#abf18afb71e14daaf65d937149ef1639f" target="_top" xlink:title="Test if a is less than b + ms.">
<polygon fill="none" stroke="black" points="1799.5,-171.5 1799.5,-201.5 1906.5,-201.5 1906.5,-171.5 1799.5,-171.5"/>
<text text-anchor="start" x="1807.5" y="-189.5" font-family="Helvetica,sans-Serif" font-size="10.00">zwapi_serial_timeval</text>
<text text-anchor="middle" x="1853" y="-178.5" font-family="Helvetica,sans-Serif" font-size="10.00">_a_lt_b_milis</text>
</a>
</g>
</g>
<!-- Node15&#45;&gt;Node17 -->
<g id="edge17" class="edge">
<title>Node15&#45;&gt;Node17</title>
<path fill="none" stroke="midnightblue" d="M1747.07,-185.86C1760.65,-185.94 1775.16,-186.03 1788.92,-186.11"/>
<polygon fill="midnightblue" stroke="midnightblue" points="1789.26,-189.62 1799.28,-186.18 1789.3,-182.62 1789.26,-189.62"/>
</g>
<!-- Node19 -->
<g id="node19" class="node">
<title>Node19</title>
<g id="a_node19"><a xlink:href="zwapi__serial_8c.html#aae586785021ac9a605cd77651429f0c9" target="_top" xlink:title="De&#45;Initialize the serial port.">
<polygon fill="none" stroke="black" points="1638,-358 1638,-377 1737,-377 1737,-358 1638,-358"/>
<text text-anchor="middle" x="1687.5" y="-365" font-family="Helvetica,sans-Serif" font-size="10.00">zwapi_serial_close</text>
</a>
</g>
</g>
<!-- Node18&#45;&gt;Node19 -->
<g id="edge19" class="edge">
<title>Node18&#45;&gt;Node19</title>
<path fill="none" stroke="midnightblue" d="M1580.14,-354.67C1595.31,-356.5 1612.06,-358.52 1627.68,-360.4"/>
<polygon fill="midnightblue" stroke="midnightblue" points="1627.42,-363.9 1637.76,-361.62 1628.25,-356.95 1627.42,-363.9"/>
</g>
<!-- Node20 -->
<g id="node20" class="node">
<title>Node20</title>
<g id="a_node20"><a xlink:href="zwapi__serial_8c.html#a07b09de97f4932d882fc77e191c44638" target="_top" xlink:title="Initialize the serial port to 115200 BAUD 8N1.">
<polygon fill="none" stroke="black" points="1643,-320 1643,-339 1732,-339 1732,-320 1643,-320"/>
<text text-anchor="middle" x="1687.5" y="-327" font-family="Helvetica,sans-Serif" font-size="10.00">zwapi_serial_init</text>
</a>
</g>
</g>
<!-- Node18&#45;&gt;Node20 -->
<g id="edge20" class="edge">
<title>Node18&#45;&gt;Node20</title>
<path fill="none" stroke="midnightblue" d="M1580.14,-342.33C1596.87,-340.31 1615.51,-338.06 1632.46,-336.02"/>
<polygon fill="midnightblue" stroke="midnightblue" points="1633.25,-339.45 1642.76,-334.78 1632.41,-332.5 1633.25,-339.45"/>
</g>
<!-- Node21 -->
<g id="node21" class="node">
<title>Node21</title>
<g id="a_node21"><a xlink:href="zwapi__serial_8c.html#aefeac5909b0bf6411db1492f69c3bc68" target="_top" xlink:title=" ">
<polygon fill="none" stroke="black" points="1793.5,-320 1793.5,-339 1912.5,-339 1912.5,-320 1793.5,-320"/>
<text text-anchor="middle" x="1853" y="-327" font-family="Helvetica,sans-Serif" font-size="10.00">zwapi_open_serial_port</text>
</a>
</g>
</g>
<!-- Node20&#45;&gt;Node21 -->
<g id="edge21" class="edge">
<title>Node20&#45;&gt;Node21</title>
<path fill="none" stroke="midnightblue" d="M1732.31,-329.5C1747.97,-329.5 1766.01,-329.5 1783.26,-329.5"/>
<polygon fill="midnightblue" stroke="midnightblue" points="1783.3,-333 1793.3,-329.5 1783.3,-326 1783.3,-333"/>
</g>
<!-- Node23&#45;&gt;Node13 -->
<g id="edge25" class="edge">
<title>Node23&#45;&gt;Node13</title>
<path fill="none" stroke="midnightblue" d="M1412.46,-288.99C1430.36,-285.47 1450.82,-281.46 1469.44,-277.8"/>
<polygon fill="midnightblue" stroke="midnightblue" points="1470.15,-281.23 1479.28,-275.87 1468.8,-274.36 1470.15,-281.23"/>
</g>
<!-- Node23&#45;&gt;Node15 -->
<g id="edge26" class="edge">
<title>Node23&#45;&gt;Node15</title>
<path fill="none" stroke="midnightblue" d="M1415.1,-308.03C1463.14,-314.49 1535.84,-317.71 1592,-291.5 1631.64,-273 1661.73,-229.22 1676.46,-204.09"/>
<polygon fill="midnightblue" stroke="midnightblue" points="1679.63,-205.6 1681.51,-195.17 1673.54,-202.16 1679.63,-205.6"/>
</g>
<!-- Node23&#45;&gt;Node22 -->
<g id="edge27" class="edge">
<title>Node23&#45;&gt;Node22</title>
<path fill="none" stroke="midnightblue" d="M1407.67,-288.9C1414.74,-286.41 1421.78,-283.32 1428,-279.5 1447.83,-267.33 1444.2,-253.71 1464,-241.5 1467.4,-239.4 1471.05,-237.52 1474.82,-235.84"/>
<polygon fill="midnightblue" stroke="midnightblue" points="1476.34,-239 1484.34,-232.05 1473.76,-232.49 1476.34,-239"/>
</g>
<!-- Node24 -->
<g id="node24" class="node">
<title>Node24</title>
<g id="a_node24"><a xlink:href="zwapi__connection_8c.html#a96d24d537c5b8d6aa0aa6a7638ba2f09" target="_top" xlink:title=" ">
<polygon fill="none" stroke="black" points="1470.5,-377 1470.5,-396 1585.5,-396 1585.5,-377 1470.5,-377"/>
<text text-anchor="middle" x="1528" y="-384" font-family="Helvetica,sans-Serif" font-size="10.00">zwapi_frame_to_string</text>
</a>
</g>
</g>
<!-- Node23&#45;&gt;Node24 -->
<g id="edge24" class="edge">
<title>Node23&#45;&gt;Node24</title>
<path fill="none" stroke="midnightblue" d="M1375.27,-308.05C1393.06,-322.7 1429.22,-350.76 1464,-367.5 1468.64,-369.73 1473.6,-371.77 1478.63,-373.61"/>
<polygon fill="midnightblue" stroke="midnightblue" points="1477.71,-376.99 1488.3,-376.9 1479.96,-370.37 1477.71,-376.99"/>
</g>
<!-- Node26&#45;&gt;Node8 -->
<g id="edge42" class="edge">
<title>Node26&#45;&gt;Node8</title>
<path fill="none" stroke="midnightblue" d="M1232.34,-357.65C1241.86,-362.37 1252.38,-367.62 1262,-372.5 1282.6,-382.96 1305.46,-394.83 1324.13,-404.59"/>
<polygon fill="midnightblue" stroke="midnightblue" points="1322.71,-407.8 1333.19,-409.33 1325.96,-401.6 1322.71,-407.8"/>
</g>
<!-- Node27 -->
<g id="node27" class="node">
<title>Node27</title>
<g id="a_node27"><a xlink:href="zwapi__connection_8c.html#a1e45c6c9695b5e7b415adfad40080720" target="_top" xlink:title="Parses serial data sent from the Z&#45;Wave module to the serial port. Should be frequently called by mai...">
<polygon fill="none" stroke="black" points="1298,-137 1298,-156 1428,-156 1428,-137 1298,-137"/>
<text text-anchor="middle" x="1363" y="-144" font-family="Helvetica,sans-Serif" font-size="10.00">zwapi_connection_refresh</text>
</a>
</g>
</g>
<!-- Node26&#45;&gt;Node27 -->
<g id="edge31" class="edge">
<title>Node26&#45;&gt;Node27</title>
<path fill="none" stroke="midnightblue" d="M1213.83,-327.45C1242.91,-291.93 1315.72,-203.01 1347.16,-164.62"/>
<polygon fill="midnightblue" stroke="midnightblue" points="1350.25,-166.37 1353.88,-156.42 1344.84,-161.93 1350.25,-166.37"/>
</g>
<!-- Node27&#45;&gt;Node13 -->
<g id="edge33" class="edge">
<title>Node27&#45;&gt;Node13</title>
<path fill="none" stroke="midnightblue" d="M1371.87,-156.11C1387.61,-174.82 1424.86,-216.48 1464,-241.5 1466.97,-243.4 1470.1,-245.19 1473.32,-246.88"/>
<polygon fill="midnightblue" stroke="midnightblue" points="1472.03,-250.15 1482.56,-251.37 1475.09,-243.85 1472.03,-250.15"/>
</g>
<!-- Node27&#45;&gt;Node14 -->
<g id="edge40" class="edge">
<title>Node27&#45;&gt;Node14</title>
<path fill="none" stroke="midnightblue" d="M1405.13,-156.09C1426.74,-161.13 1453.41,-167.34 1476.29,-172.68"/>
<polygon fill="midnightblue" stroke="midnightblue" points="1475.63,-176.12 1486.16,-174.98 1477.22,-169.3 1475.63,-176.12"/>
</g>
<!-- Node27&#45;&gt;Node22 -->
<g id="edge41" class="edge">
<title>Node27&#45;&gt;Node22</title>
<path fill="none" stroke="midnightblue" d="M1396.7,-156.04C1407.1,-159.78 1418.39,-164.6 1428,-170.5 1446.5,-181.85 1445.14,-192.76 1464,-203.5 1467.85,-205.69 1471.97,-207.65 1476.2,-209.4"/>
<polygon fill="midnightblue" stroke="midnightblue" points="1474.97,-212.68 1485.56,-212.91 1477.43,-206.13 1474.97,-212.68"/>
</g>
<!-- Node27&#45;&gt;Node25 -->
<g id="edge32" class="edge">
<title>Node27&#45;&gt;Node25</title>
<path fill="none" stroke="midnightblue" d="M1386.55,-136.96C1399.88,-130.46 1416.36,-120.79 1428,-108.5 1451.78,-83.38 1438.15,-62.49 1464,-39.5 1465.32,-38.32 1466.71,-37.2 1468.15,-36.13"/>
<polygon fill="midnightblue" stroke="midnightblue" points="1470.31,-38.9 1476.86,-30.58 1466.55,-33 1470.31,-38.9"/>
</g>
<!-- Node28 -->
<g id="node28" class="node">
<title>Node28</title>
<g id="a_node28"><a xlink:href="zwapi__serial_8c.html#a538134f9fdbb1ce052667b3a041357bd" target="_top" xlink:title="Reads the output of the serial port device and stores the content in a buffer.">
<polygon fill="none" stroke="black" points="1628,-136 1628,-155 1747,-155 1747,-136 1628,-136"/>
<text text-anchor="middle" x="1687.5" y="-143" font-family="Helvetica,sans-Serif" font-size="10.00">zwapi_serial_get_buffer</text>
</a>
</g>
</g>
<!-- Node27&#45;&gt;Node28 -->
<g id="edge34" class="edge">
<title>Node27&#45;&gt;Node28</title>
<path fill="none" stroke="midnightblue" d="M1428.1,-146.3C1482.92,-146.13 1561.62,-145.89 1617.74,-145.71"/>
<polygon fill="midnightblue" stroke="midnightblue" points="1617.96,-149.21 1627.95,-145.68 1617.93,-142.21 1617.96,-149.21"/>
</g>
<!-- Node29 -->
<g id="node29" class="node">
<title>Node29</title>
<g id="a_node29"><a xlink:href="zwapi__serial_8c.html#abb082b1e7e727203e3ca5fbeb41f7c2b" target="_top" xlink:title="Reads a byte from the serial port device.">
<polygon fill="none" stroke="black" points="1471.5,-99 1471.5,-118 1584.5,-118 1584.5,-99 1471.5,-99"/>
<text text-anchor="middle" x="1528" y="-106" font-family="Helvetica,sans-Serif" font-size="10.00">zwapi_serial_get_byte</text>
</a>
</g>
</g>
<!-- Node27&#45;&gt;Node29 -->
<g id="edge37" class="edge">
<title>Node27&#45;&gt;Node29</title>
<path fill="none" stroke="midnightblue" d="M1405.13,-136.91C1426.74,-131.87 1453.41,-125.66 1476.29,-120.32"/>
<polygon fill="midnightblue" stroke="midnightblue" points="1477.22,-123.7 1486.16,-118.02 1475.63,-116.88 1477.22,-123.7"/>
</g>
<!-- Node30 -->
<g id="node30" class="node">
<title>Node30</title>
<g id="a_node30"><a xlink:href="zwapi__serial_8c.html#a9a952dc2b34d92960246f6dc4e7d58f7" target="_top" xlink:title="Check the file descriptor for the serial device is available for I/O operations.">
<polygon fill="none" stroke="black" points="1477.5,-49.5 1477.5,-79.5 1578.5,-79.5 1578.5,-49.5 1477.5,-49.5"/>
<text text-anchor="start" x="1485.5" y="-67.5" font-family="Helvetica,sans-Serif" font-size="10.00">zwapi_serial_is_file</text>
<text text-anchor="middle" x="1528" y="-56.5" font-family="Helvetica,sans-Serif" font-size="10.00">_available</text>
</a>
</g>
</g>
<!-- Node27&#45;&gt;Node30 -->
<g id="edge39" class="edge">
<title>Node27&#45;&gt;Node30</title>
<path fill="none" stroke="midnightblue" d="M1380.13,-136.94C1403.98,-122.86 1447.61,-97.38 1464,-89.5 1468.28,-87.44 1472.78,-85.41 1477.32,-83.45"/>
<polygon fill="midnightblue" stroke="midnightblue" points="1478.78,-86.64 1486.64,-79.54 1476.07,-80.18 1478.78,-86.64"/>
</g>
<!-- Node28&#45;&gt;Node16 -->
<g id="edge35" class="edge">
<title>Node28&#45;&gt;Node16</title>
<path fill="none" stroke="midnightblue" d="M1747.07,-144.43C1755.43,-144.27 1764.15,-144.11 1772.82,-143.95"/>
<polygon fill="midnightblue" stroke="midnightblue" points="1773.04,-147.45 1782.97,-143.77 1772.91,-140.45 1773.04,-147.45"/>
</g>
<!-- Node28&#45;&gt;Node17 -->
<g id="edge36" class="edge">
<title>Node28&#45;&gt;Node17</title>
<path fill="none" stroke="midnightblue" d="M1726.42,-155.01C1745.15,-159.71 1768.24,-165.5 1789.49,-170.82"/>
<polygon fill="midnightblue" stroke="midnightblue" points="1788.87,-174.28 1799.42,-173.32 1790.58,-167.49 1788.87,-174.28"/>
</g>
<!-- Node29&#45;&gt;Node28 -->
<g id="edge38" class="edge">
<title>Node29&#45;&gt;Node28</title>
<path fill="none" stroke="midnightblue" d="M1569.56,-118.03C1589.78,-122.78 1614.44,-128.57 1635.88,-133.61"/>
<polygon fill="midnightblue" stroke="midnightblue" points="1635.27,-137.06 1645.8,-135.94 1636.87,-130.25 1635.27,-137.06"/>
</g>
<!-- Node31&#45;&gt;Node22 -->
<g id="edge46" class="edge">
<title>Node31&#45;&gt;Node22</title>
<path fill="none" stroke="midnightblue" d="M1252.79,-185.16C1298.71,-191.16 1367.87,-200.27 1428,-208.5 1438.86,-209.99 1450.39,-211.59 1461.6,-213.17"/>
<polygon fill="midnightblue" stroke="midnightblue" points="1461.38,-216.67 1471.77,-214.6 1462.36,-209.74 1461.38,-216.67"/>
</g>
<!-- Node31&#45;&gt;Node25 -->
<g id="edge45" class="edge">
<title>Node31&#45;&gt;Node25</title>
<path fill="none" stroke="midnightblue" d="M1227.42,-163.4C1273.92,-136.62 1374.99,-79.84 1464,-39.5 1467.84,-37.76 1471.84,-36.04 1475.89,-34.36"/>
<polygon fill="midnightblue" stroke="midnightblue" points="1477.4,-37.52 1485.36,-30.53 1474.77,-31.03 1477.4,-37.52"/>
</g>
<!-- Node31&#45;&gt;Node27 -->
<g id="edge44" class="edge">
<title>Node31&#45;&gt;Node27</title>
<path fill="none" stroke="midnightblue" d="M1252.72,-168.29C1269.06,-165.03 1287.25,-161.4 1304.02,-158.06"/>
<polygon fill="midnightblue" stroke="midnightblue" points="1305.14,-161.41 1314.26,-156.02 1303.77,-154.54 1305.14,-161.41"/>
</g>
<!-- Node33&#45;&gt;Node2 -->
<g id="edge51" class="edge">
<title>Node33&#45;&gt;Node2</title>
<path fill="none" stroke="midnightblue" d="M262.89,-313.95C273.52,-312.82 284.83,-311.62 295.85,-310.46"/>
<polygon fill="midnightblue" stroke="midnightblue" points="296.29,-313.93 305.86,-309.4 295.55,-306.97 296.29,-313.93"/>
</g>
<!-- Node34&#45;&gt;Node4 -->
<g id="edge53" class="edge">
<title>Node34&#45;&gt;Node4</title>
<path fill="none" stroke="midnightblue" d="M270.14,-232.73C346.78,-227.62 483.8,-221.94 600,-235.5 609.42,-236.6 619.27,-238.3 628.88,-240.29"/>
<polygon fill="midnightblue" stroke="midnightblue" points="628.28,-243.74 638.79,-242.45 629.76,-236.9 628.28,-243.74"/>
</g>
<!-- Node35 -->
<g id="node35" class="node">
<title>Node35</title>
<g id="a_node35"><a xlink:href="zwapi__utils_8c.html#aeea16d7db2f976466a2c0f4aa9b0416f" target="_top" xlink:title="Write the node ID in buffer based on node ID basetype. Note that this helper also advances the index.">
<polygon fill="none" stroke="black" points="309,-245 309,-264 416,-264 416,-245 309,-245"/>
<text text-anchor="middle" x="362.5" y="-252" font-family="Helvetica,sans-Serif" font-size="10.00">zwapi_write_node_id</text>
</a>
</g>
</g>
<!-- Node34&#45;&gt;Node35 -->
<g id="edge54" class="edge">
<title>Node34&#45;&gt;Node35</title>
<path fill="none" stroke="midnightblue" d="M270.18,-244.22C279.5,-245.27 289.16,-246.36 298.56,-247.41"/>
<polygon fill="midnightblue" stroke="midnightblue" points="298.29,-250.91 308.61,-248.55 299.07,-243.95 298.29,-250.91"/>
</g>
<!-- Node36 -->
<g id="node36" class="node">
<title>Node36</title>
<g id="a_node36"><a xlink:href="group__ZWAPI__BASIS.html#ga956fbfe63267baacd31dd20aa1c444d1" target="_top" xlink:title="Get the current node ID basetype setting.">
<polygon fill="none" stroke="black" points="455,-245 455,-264 600,-264 600,-245 455,-245"/>
<text text-anchor="middle" x="527.5" y="-252" font-family="Helvetica,sans-Serif" font-size="10.00">zwapi_get_node_id_basetype</text>
</a>
</g>
</g>
<!-- Node35&#45;&gt;Node36 -->
<g id="edge55" class="edge">
<title>Node35&#45;&gt;Node36</title>
<path fill="none" stroke="midnightblue" d="M416.42,-254.5C425.53,-254.5 435.18,-254.5 444.84,-254.5"/>
<polygon fill="midnightblue" stroke="midnightblue" points="444.88,-258 454.88,-254.5 444.88,-251 444.88,-258"/>
</g>
</g>
</svg>
