<?xml version="1.0" encoding="UTF-8" standalone="no"?>
<!DOCTYPE svg PUBLIC "-//W3C//DTD SVG 1.1//EN"
 "http://www.w3.org/Graphics/SVG/1.1/DTD/svg11.dtd">
<!-- Generated by graphviz version 2.43.0 (0)
 -->
<!-- Title: binding_cluster_mapper_init Pages: 1 -->
<svg width="1026pt" height="132pt"
 viewBox="0.00 0.00 1026.00 131.50" xmlns="http://www.w3.org/2000/svg" xmlns:xlink="http://www.w3.org/1999/xlink">
<g id="graph0" class="graph" transform="scale(1 1) rotate(0) translate(4 127.5)">
<title>binding_cluster_mapper_init</title>
<!-- Node1 -->
<g id="node1" class="node">
<title>Node1</title>
<g id="a_node1"><a xlink:title="Initializes the Binding cluster mapper.">
<polygon fill="#bfbfbf" stroke="black" points="0,-44 0,-63 137,-63 137,-44 0,-44"/>
<text text-anchor="middle" x="68.5" y="-51" font-family="Helvetica,sans-Serif" font-size="10.00">binding_cluster_mapper_init</text>
</a>
</g>
</g>
<!-- Node2 -->
<g id="node2" class="node">
<title>Node2</title>
<g id="a_node2"><a xlink:href="binding__cluster__mapper_8c.html#ac3ce6c9081329e81d4c7fbf956a8bf60" target="_top" xlink:title="Publishes the supported Generated commands when the network status is moved to online functional.">
<polygon fill="none" stroke="black" points="173,-44 173,-63 307,-63 307,-44 173,-44"/>
<text text-anchor="middle" x="240" y="-51" font-family="Helvetica,sans-Serif" font-size="10.00">on_network_status_update</text>
</a>
</g>
</g>
<!-- Node1&#45;&gt;Node2 -->
<g id="edge1" class="edge">
<title>Node1&#45;&gt;Node2</title>
<path fill="none" stroke="midnightblue" d="M137.47,-53.5C145.78,-53.5 154.32,-53.5 162.75,-53.5"/>
<polygon fill="midnightblue" stroke="midnightblue" points="162.95,-57 172.95,-53.5 162.95,-50 162.95,-57"/>
</g>
<!-- Node3 -->
<g id="node3" class="node">
<title>Node3</title>
<g id="a_node3"><a xlink:href="binding__cluster__mapper_8c.html#ae4e4c1cd4e64b12304508cb8be9a2833" target="_top" xlink:title="Publishes the Supported Generated Commands based on AGI data for an Endpoint.">
<polygon fill="none" stroke="black" points="343,-38.5 343,-68.5 486,-68.5 486,-38.5 343,-38.5"/>
<text text-anchor="start" x="351" y="-56.5" font-family="Helvetica,sans-Serif" font-size="10.00">publish_supported_generated</text>
<text text-anchor="middle" x="414.5" y="-45.5" font-family="Helvetica,sans-Serif" font-size="10.00">_commands</text>
</a>
</g>
</g>
<!-- Node2&#45;&gt;Node3 -->
<g id="edge2" class="edge">
<title>Node2&#45;&gt;Node3</title>
<path fill="none" stroke="midnightblue" d="M307.2,-53.5C315.6,-53.5 324.27,-53.5 332.86,-53.5"/>
<polygon fill="midnightblue" stroke="midnightblue" points="332.89,-57 342.89,-53.5 332.89,-50 332.89,-57"/>
</g>
<!-- Node4 -->
<g id="node4" class="node">
<title>Node4</title>
<g id="a_node4"><a xlink:href="group__zpc__attribute__store__network__helpers.html#gafae8b9288ffd88bbbe138edf03680b14" target="_top" xlink:title="Traverse the tree up from a node and find under which UNID/endpoints it is.">
<polygon fill="none" stroke="black" points="522,-82 522,-123 654,-123 654,-82 522,-82"/>
<text text-anchor="start" x="530" y="-111" font-family="Helvetica,sans-Serif" font-size="10.00">attribute_store_network</text>
<text text-anchor="start" x="530" y="-100" font-family="Helvetica,sans-Serif" font-size="10.00">_helper_get_unid_endpoint</text>
<text text-anchor="middle" x="588" y="-89" font-family="Helvetica,sans-Serif" font-size="10.00">_from_node</text>
</a>
</g>
</g>
<!-- Node3&#45;&gt;Node4 -->
<g id="edge3" class="edge">
<title>Node3&#45;&gt;Node4</title>
<path fill="none" stroke="midnightblue" d="M468.36,-68.6C482.24,-72.57 497.48,-76.92 512.28,-81.15"/>
<polygon fill="midnightblue" stroke="midnightblue" points="511.35,-84.52 521.92,-83.91 513.27,-77.79 511.35,-84.52"/>
</g>
<!-- Node8 -->
<g id="node8" class="node">
<title>Node8</title>
<g id="a_node8"><a xlink:href="group__zwave__utils.html#ga9786ad7027d49770b17b9f7e238d3049" target="_top" xlink:title="Searches if a Command Class/Command pair is in a byte array of Command class/command pairs.">
<polygon fill="none" stroke="black" points="532,-44 532,-63 644,-63 644,-44 532,-44"/>
<text text-anchor="middle" x="588" y="-51" font-family="Helvetica,sans-Serif" font-size="10.00">is_command_in_array</text>
</a>
</g>
</g>
<!-- Node3&#45;&gt;Node8 -->
<g id="edge7" class="edge">
<title>Node3&#45;&gt;Node8</title>
<path fill="none" stroke="midnightblue" d="M486.25,-53.5C498.02,-53.5 510.19,-53.5 521.81,-53.5"/>
<polygon fill="midnightblue" stroke="midnightblue" points="521.87,-57 531.87,-53.5 521.87,-50 521.87,-57"/>
</g>
<!-- Node9 -->
<g id="node9" class="node">
<title>Node9</title>
<g id="a_node9"><a xlink:href="group__zpc__attribute__store.html#gaabb0477455a85ee31737f3d503acd3b9" target="_top" xlink:title="Verify if a UNID is the ZPC&#39;s UNID.">
<polygon fill="none" stroke="black" points="554,-6 554,-25 622,-25 622,-6 554,-6"/>
<text text-anchor="middle" x="588" y="-13" font-family="Helvetica,sans-Serif" font-size="10.00">is_zpc_unid</text>
</a>
</g>
</g>
<!-- Node3&#45;&gt;Node9 -->
<g id="edge8" class="edge">
<title>Node3&#45;&gt;Node9</title>
<path fill="none" stroke="midnightblue" d="M483.28,-38.48C503.66,-33.97 525.46,-29.14 543.79,-25.07"/>
<polygon fill="midnightblue" stroke="midnightblue" points="544.58,-28.48 553.58,-22.9 543.06,-21.65 544.58,-28.48"/>
</g>
<!-- Node5 -->
<g id="node5" class="node">
<title>Node5</title>
<g id="a_node5"><a xlink:href="group__zpc__attribute__store.html#gaa77e8f9b18958337bb68279c8c53ccdc" target="_top" xlink:title="Returns the HomeID (attribute store) node of our current network.">
<polygon fill="none" stroke="black" points="704.5,-93 704.5,-112 821.5,-112 821.5,-93 704.5,-93"/>
<text text-anchor="middle" x="763" y="-100" font-family="Helvetica,sans-Serif" font-size="10.00">get_zpc_network_node</text>
</a>
</g>
</g>
<!-- Node4&#45;&gt;Node5 -->
<g id="edge4" class="edge">
<title>Node4&#45;&gt;Node5</title>
<path fill="none" stroke="midnightblue" d="M654.4,-102.5C667.39,-102.5 681.05,-102.5 694.12,-102.5"/>
<polygon fill="midnightblue" stroke="midnightblue" points="694.45,-106 704.45,-102.5 694.45,-99 694.45,-106"/>
</g>
<!-- Node7 -->
<g id="node7" class="node">
<title>Node7</title>
<g id="a_node7"><a xlink:href="group__zwave__unid.html#ga421deceb8a12916f049e4f3446774439" target="_top" xlink:title="Form a UNID.">
<polygon fill="none" stroke="black" points="697,-53 697,-72 829,-72 829,-53 697,-53"/>
<text text-anchor="middle" x="763" y="-60" font-family="Helvetica,sans-Serif" font-size="10.00">zwave_unid_from_node_id</text>
</a>
</g>
</g>
<!-- Node4&#45;&gt;Node7 -->
<g id="edge6" class="edge">
<title>Node4&#45;&gt;Node7</title>
<path fill="none" stroke="midnightblue" d="M654.4,-87.38C673.04,-83.07 693.07,-78.44 710.73,-74.35"/>
<polygon fill="midnightblue" stroke="midnightblue" points="711.88,-77.68 720.83,-72.02 710.3,-70.86 711.88,-77.68"/>
</g>
<!-- Node6 -->
<g id="node6" class="node">
<title>Node6</title>
<g id="a_node6"><a xlink:href="group__zwave__network__management.html#gac01bf38badf30f94eac9a04b486cb967" target="_top" xlink:title="Get the cached HomeID.">
<polygon fill="none" stroke="black" points="872,-87.5 872,-117.5 1018,-117.5 1018,-87.5 872,-87.5"/>
<text text-anchor="start" x="880" y="-105.5" font-family="Helvetica,sans-Serif" font-size="10.00">zwave_network_management</text>
<text text-anchor="middle" x="945" y="-94.5" font-family="Helvetica,sans-Serif" font-size="10.00">_get_home_id</text>
</a>
</g>
</g>
<!-- Node5&#45;&gt;Node6 -->
<g id="edge5" class="edge">
<title>Node5&#45;&gt;Node6</title>
<path fill="none" stroke="midnightblue" d="M821.94,-102.5C834.64,-102.5 848.31,-102.5 861.75,-102.5"/>
<polygon fill="midnightblue" stroke="midnightblue" points="861.96,-106 871.96,-102.5 861.96,-99 861.96,-106"/>
</g>
<!-- Node9&#45;&gt;Node7 -->
<g id="edge10" class="edge">
<title>Node9&#45;&gt;Node7</title>
<path fill="none" stroke="midnightblue" d="M622.36,-24.56C649.35,-31.9 687.62,-42.29 717.27,-50.35"/>
<polygon fill="midnightblue" stroke="midnightblue" points="716.4,-53.74 726.96,-52.98 718.23,-46.98 716.4,-53.74"/>
</g>
<!-- Node10 -->
<g id="node10" class="node">
<title>Node10</title>
<g id="a_node10"><a xlink:href="group__zwave__network__management.html#gae265f1e935804f3f0b971755ab0ee61e" target="_top" xlink:title="Get the cached NodeID.">
<polygon fill="none" stroke="black" points="690,-0.5 690,-30.5 836,-30.5 836,-0.5 690,-0.5"/>
<text text-anchor="start" x="698" y="-18.5" font-family="Helvetica,sans-Serif" font-size="10.00">zwave_network_management</text>
<text text-anchor="middle" x="763" y="-7.5" font-family="Helvetica,sans-Serif" font-size="10.00">_get_node_id</text>
</a>
</g>
</g>
<!-- Node9&#45;&gt;Node10 -->
<g id="edge9" class="edge">
<title>Node9&#45;&gt;Node10</title>
<path fill="none" stroke="midnightblue" d="M622.36,-15.5C638.74,-15.5 659.27,-15.5 679.5,-15.5"/>
<polygon fill="midnightblue" stroke="midnightblue" points="679.71,-19 689.71,-15.5 679.71,-12 679.71,-19"/>
</g>
</g>
</svg>
