<?xml version="1.0" encoding="UTF-8" standalone="no"?>
<!DOCTYPE svg PUBLIC "-//W3C//DTD SVG 1.1//EN"
 "http://www.w3.org/Graphics/SVG/1.1/DTD/svg11.dtd">
<!-- Generated by graphviz version 2.43.0 (0)
 -->
<!-- Title: zwapi_send_data_multi Pages: 1 -->
<svg width="585pt" height="28pt"
 viewBox="0.00 0.00 585.00 28.00" xmlns="http://www.w3.org/2000/svg" xmlns:xlink="http://www.w3.org/1999/xlink">
<g id="graph0" class="graph" transform="scale(1 1) rotate(0) translate(4 24)">
<title>zwapi_send_data_multi</title>
<!-- Node1 -->
<g id="node1" class="node">
<title>Node1</title>
<g id="a_node1"><a xlink:title="Send data to a list of Z&#45;Wave Nodes (multicast frame).">
<polygon fill="#bfbfbf" stroke="black" points="458,-0.5 458,-19.5 577,-19.5 577,-0.5 458,-0.5"/>
<text text-anchor="middle" x="517.5" y="-7.5" font-family="Helvetica,sans-Serif" font-size="10.00">zwapi_send_data_multi</text>
</a>
</g>
</g>
<!-- Node2 -->
<g id="node2" class="node">
<title>Node2</title>
<g id="a_node2"><a xlink:href="zwave__api__transport_8c.html#a825851abed8977dfab0e305f7ae30610" target="_top" xlink:title="Encapsulates with Multi Channel and send a frame to the Z&#45;Wave TX queue.">
<polygon fill="none" stroke="black" points="309,-0.5 309,-19.5 422,-19.5 422,-0.5 309,-0.5"/>
<text text-anchor="middle" x="365.5" y="-7.5" font-family="Helvetica,sans-Serif" font-size="10.00">zwave_api_send_data</text>
</a>
</g>
</g>
<!-- Node1&#45;&gt;Node2 -->
<g id="edge1" class="edge">
<title>Node1&#45;&gt;Node2</title>
<path fill="none" stroke="midnightblue" d="M447.43,-10C438.99,-10 430.45,-10 422.24,-10"/>
<polygon fill="midnightblue" stroke="midnightblue" points="447.65,-13.5 457.65,-10 447.65,-6.5 447.65,-13.5"/>
</g>
<!-- Node3 -->
<g id="node3" class="node">
<title>Node3</title>
<g id="a_node3"><a xlink:href="group__zwave__api__transport.html#ga0b879fc413b5e3faaf848287f0d36d22" target="_top" xlink:title="Initialize the Z&#45;Wave API Transport *.">
<polygon fill="none" stroke="black" points="148,-0.5 148,-19.5 273,-19.5 273,-0.5 148,-0.5"/>
<text text-anchor="middle" x="210.5" y="-7.5" font-family="Helvetica,sans-Serif" font-size="10.00">zwave_api_transport_init</text>
</a>
</g>
</g>
<!-- Node2&#45;&gt;Node3 -->
<g id="edge2" class="edge">
<title>Node2&#45;&gt;Node3</title>
<path fill="none" stroke="midnightblue" d="M298.61,-10C290.13,-10 281.48,-10 273.08,-10"/>
<polygon fill="midnightblue" stroke="midnightblue" points="298.83,-13.5 308.83,-10 298.83,-6.5 298.83,-13.5"/>
</g>
<!-- Node4 -->
<g id="node4" class="node">
<title>Node4</title>
<g id="a_node4"><a xlink:href="group__zwave__transports__fixt.html#ga26fb2571e272a5094bd0320eca3a896d" target="_top" xlink:title="Setup fixture for Z&#45;Wave Transports.">
<polygon fill="none" stroke="black" points="0,-0.5 0,-19.5 112,-19.5 112,-0.5 0,-0.5"/>
<text text-anchor="middle" x="56" y="-7.5" font-family="Helvetica,sans-Serif" font-size="10.00">zwave_transports_init</text>
</a>
</g>
</g>
<!-- Node3&#45;&gt;Node4 -->
<g id="edge3" class="edge">
<title>Node3&#45;&gt;Node4</title>
<path fill="none" stroke="midnightblue" d="M137.64,-10C129.17,-10 120.62,-10 112.42,-10"/>
<polygon fill="midnightblue" stroke="midnightblue" points="137.91,-13.5 147.91,-10 137.91,-6.5 137.91,-13.5"/>
</g>
</g>
</svg>
