<?xml version="1.0" encoding="UTF-8" standalone="no"?>
<!DOCTYPE svg PUBLIC "-//W3C//DTD SVG 1.1//EN"
 "http://www.w3.org/Graphics/SVG/1.1/DTD/svg11.dtd">
<!-- Generated by graphviz version 2.43.0 (0)
 -->
<!-- Title: zwave_tx_set_expected_frames Pages: 1 -->
<svg width="1117pt" height="239pt"
 viewBox="0.00 0.00 1117.00 238.50" xmlns="http://www.w3.org/2000/svg" xmlns:xlink="http://www.w3.org/1999/xlink">
<g id="graph0" class="graph" transform="scale(1 1) rotate(0) translate(4 234.5)">
<title>zwave_tx_set_expected_frames</title>
<!-- Node1 -->
<g id="node1" class="node">
<title>Node1</title>
<g id="a_node1"><a xlink:title="Tell the Tx Queue that a remote NodeID is about to send some frames and we should back&#45;off a little m...">
<polygon fill="#bfbfbf" stroke="black" points="987,-85 987,-115 1109,-115 1109,-85 987,-85"/>
<text text-anchor="start" x="995" y="-103" font-family="Helvetica,sans-Serif" font-size="10.00">zwave_tx_set_expected</text>
<text text-anchor="middle" x="1048" y="-92" font-family="Helvetica,sans-Serif" font-size="10.00">_frames</text>
</a>
</g>
</g>
<!-- Node2 -->
<g id="node2" class="node">
<title>Node2</title>
<g id="a_node2"><a xlink:href="transport__service_8c.html#a7800e90df0e417d85ec84937638ad29c" target="_top" xlink:title=" ">
<polygon fill="none" stroke="black" points="866,-166.5 866,-185.5 914,-185.5 914,-166.5 866,-166.5"/>
<text text-anchor="middle" x="890" y="-173.5" font-family="Helvetica,sans-Serif" font-size="10.00">receive</text>
</a>
</g>
</g>
<!-- Node1&#45;&gt;Node2 -->
<g id="edge1" class="edge">
<title>Node1&#45;&gt;Node2</title>
<path fill="none" stroke="midnightblue" d="M1006.99,-119.49C976.21,-134.49 934.98,-154.57 910.88,-166.32"/>
<polygon fill="midnightblue" stroke="midnightblue" points="1008.72,-122.54 1016.18,-115.02 1005.66,-116.25 1008.72,-122.54"/>
</g>
<!-- Node8 -->
<g id="node8" class="node">
<title>Node8</title>
<g id="a_node8"><a xlink:href="group__command__classes__utils.html#gae5b058ae65bbc7ee9ab4b959db376513" target="_top" xlink:title="Places a ATTRIBUTE_REPORTS_TO_FOLLOW attribute under an attribute if it does not exist and set it to ...">
<polygon fill="none" stroke="black" points="835,-90.5 835,-109.5 945,-109.5 945,-90.5 835,-90.5"/>
<text text-anchor="middle" x="890" y="-97.5" font-family="Helvetica,sans-Serif" font-size="10.00">set_reports_to_follow</text>
</a>
</g>
</g>
<!-- Node1&#45;&gt;Node8 -->
<g id="edge7" class="edge">
<title>Node1&#45;&gt;Node8</title>
<path fill="none" stroke="midnightblue" d="M976.61,-100C966.01,-100 955.22,-100 945.04,-100"/>
<polygon fill="midnightblue" stroke="midnightblue" points="976.69,-103.5 986.69,-100 976.69,-96.5 976.69,-103.5"/>
</g>
<!-- Node17 -->
<g id="node17" class="node">
<title>Node17</title>
<g id="a_node17"><a xlink:href="zwave__command__class__configuration__control_8c.html#accd85e03b56e05ab3299ece4ee2f07a3" target="_top" xlink:title="Handle incoming Configuration Bulk Report Commands.">
<polygon fill="none" stroke="black" points="829,-0.5 829,-41.5 951,-41.5 951,-0.5 829,-0.5"/>
<text text-anchor="start" x="837" y="-29.5" font-family="Helvetica,sans-Serif" font-size="10.00">zwave_command_class</text>
<text text-anchor="start" x="837" y="-18.5" font-family="Helvetica,sans-Serif" font-size="10.00">_configuration_handle</text>
<text text-anchor="middle" x="890" y="-7.5" font-family="Helvetica,sans-Serif" font-size="10.00">_bulk_report_command</text>
</a>
</g>
</g>
<!-- Node1&#45;&gt;Node17 -->
<g id="edge18" class="edge">
<title>Node1&#45;&gt;Node17</title>
<path fill="none" stroke="midnightblue" d="M1008.35,-80.43C984.97,-68.59 955.2,-53.51 931.5,-41.51"/>
<polygon fill="midnightblue" stroke="midnightblue" points="1006.79,-83.56 1017.29,-84.95 1009.95,-77.31 1006.79,-83.56"/>
</g>
<!-- Node3 -->
<g id="node3" class="node">
<title>Node3</title>
<g id="a_node3"><a xlink:href="transport__service_8c.html#afe4b474eca116806850af8ce6182384c" target="_top" xlink:title=" ">
<polygon fill="none" stroke="black" points="653,-200 653,-230 793,-230 793,-200 653,-200"/>
<text text-anchor="start" x="661" y="-218" font-family="Helvetica,sans-Serif" font-size="10.00">transport_service_command</text>
<text text-anchor="middle" x="723" y="-207" font-family="Helvetica,sans-Serif" font-size="10.00">_handler</text>
</a>
</g>
</g>
<!-- Node2&#45;&gt;Node3 -->
<g id="edge2" class="edge">
<title>Node2&#45;&gt;Node3</title>
<path fill="none" stroke="midnightblue" d="M855.8,-183.85C836.29,-188.46 810.96,-194.44 787.74,-199.93"/>
<polygon fill="midnightblue" stroke="midnightblue" points="856.78,-187.21 865.71,-181.51 855.17,-180.4 856.78,-187.21"/>
</g>
<!-- Node4 -->
<g id="node4" class="node">
<title>Node4</title>
<g id="a_node4"><a xlink:href="group__transport__service.html#ga8373376f01c78a3ecfb1941605eb9c1a" target="_top" xlink:title="Transport service RX function.">
<polygon fill="none" stroke="black" points="502.5,-200 502.5,-230 609.5,-230 609.5,-200 502.5,-200"/>
<text text-anchor="start" x="510.5" y="-218" font-family="Helvetica,sans-Serif" font-size="10.00">transport_service_on</text>
<text text-anchor="middle" x="556" y="-207" font-family="Helvetica,sans-Serif" font-size="10.00">_frame_received</text>
</a>
</g>
</g>
<!-- Node3&#45;&gt;Node4 -->
<g id="edge3" class="edge">
<title>Node3&#45;&gt;Node4</title>
<path fill="none" stroke="midnightblue" d="M642.73,-215C631.51,-215 620.22,-215 609.67,-215"/>
<polygon fill="midnightblue" stroke="midnightblue" points="642.98,-218.5 652.98,-215 642.98,-211.5 642.98,-218.5"/>
</g>
<!-- Node5 -->
<g id="node5" class="node">
<title>Node5</title>
<g id="a_node5"><a xlink:href="group__transport__service__transport__wrapper.html#ga836e1af25a73aef2bc515da73660cd3b" target="_top" xlink:title="Entry point of Transport service frames received from the PHY/radio stack.">
<polygon fill="none" stroke="black" points="334,-200 334,-230 459,-230 459,-200 334,-200"/>
<text text-anchor="start" x="342" y="-218" font-family="Helvetica,sans-Serif" font-size="10.00">zwave_transport_service</text>
<text text-anchor="middle" x="396.5" y="-207" font-family="Helvetica,sans-Serif" font-size="10.00">_on_frame_received</text>
</a>
</g>
</g>
<!-- Node4&#45;&gt;Node5 -->
<g id="edge4" class="edge">
<title>Node4&#45;&gt;Node5</title>
<path fill="none" stroke="midnightblue" d="M491.94,-215C481.16,-215 469.97,-215 459.23,-215"/>
<polygon fill="midnightblue" stroke="midnightblue" points="492.12,-218.5 502.12,-215 492.12,-211.5 492.12,-218.5"/>
</g>
<!-- Node6 -->
<g id="node6" class="node">
<title>Node6</title>
<g id="a_node6"><a xlink:href="group__transport__service__transport__wrapper.html#gad02263e40b63853166ac8a7601954f33" target="_top" xlink:title=" ">
<polygon fill="none" stroke="black" points="160.5,-200 160.5,-230 285.5,-230 285.5,-200 160.5,-200"/>
<text text-anchor="start" x="168.5" y="-218" font-family="Helvetica,sans-Serif" font-size="10.00">zwave_transport_service</text>
<text text-anchor="middle" x="223" y="-207" font-family="Helvetica,sans-Serif" font-size="10.00">_transport_init</text>
</a>
</g>
</g>
<!-- Node5&#45;&gt;Node6 -->
<g id="edge5" class="edge">
<title>Node5&#45;&gt;Node6</title>
<path fill="none" stroke="midnightblue" d="M323.56,-215C310.91,-215 297.86,-215 285.54,-215"/>
<polygon fill="midnightblue" stroke="midnightblue" points="323.58,-218.5 333.58,-215 323.58,-211.5 323.58,-218.5"/>
</g>
<!-- Node7 -->
<g id="node7" class="node">
<title>Node7</title>
<g id="a_node7"><a xlink:href="group__zwave__transports__fixt.html#ga26fb2571e272a5094bd0320eca3a896d" target="_top" xlink:title="Setup fixture for Z&#45;Wave Transports.">
<polygon fill="none" stroke="black" points="0,-205.5 0,-224.5 112,-224.5 112,-205.5 0,-205.5"/>
<text text-anchor="middle" x="56" y="-212.5" font-family="Helvetica,sans-Serif" font-size="10.00">zwave_transports_init</text>
</a>
</g>
</g>
<!-- Node6&#45;&gt;Node7 -->
<g id="edge6" class="edge">
<title>Node6&#45;&gt;Node7</title>
<path fill="none" stroke="midnightblue" d="M150.02,-215C137.34,-215 124.33,-215 112.2,-215"/>
<polygon fill="midnightblue" stroke="midnightblue" points="150.09,-218.5 160.09,-215 150.09,-211.5 150.09,-218.5"/>
</g>
<!-- Node9 -->
<g id="node9" class="node">
<title>Node9</title>
<g id="a_node9"><a xlink:href="zwave__command__class__configuration__control_8c.html#a1b9bd71581a2b43662357bf5ba5db309" target="_top" xlink:title="Handle incoming Configuration Info Report Commands.">
<polygon fill="none" stroke="black" points="662,-19.5 662,-60.5 784,-60.5 784,-19.5 662,-19.5"/>
<text text-anchor="start" x="670" y="-48.5" font-family="Helvetica,sans-Serif" font-size="10.00">zwave_command_class</text>
<text text-anchor="start" x="670" y="-37.5" font-family="Helvetica,sans-Serif" font-size="10.00">_configuration_handle</text>
<text text-anchor="middle" x="723" y="-26.5" font-family="Helvetica,sans-Serif" font-size="10.00">_info_report_command</text>
</a>
</g>
</g>
<!-- Node8&#45;&gt;Node9 -->
<g id="edge8" class="edge">
<title>Node8&#45;&gt;Node9</title>
<path fill="none" stroke="midnightblue" d="M853.26,-87C832,-79.27 804.55,-69.29 780.43,-60.52"/>
<polygon fill="midnightblue" stroke="midnightblue" points="852.26,-90.36 862.86,-90.49 854.65,-83.79 852.26,-90.36"/>
</g>
<!-- Node13 -->
<g id="node13" class="node">
<title>Node13</title>
<g id="a_node13"><a xlink:href="zwave__command__class__configuration__control_8c.html#af79edd8997b1b51917ac3b53b9d2c0cb" target="_top" xlink:title="Handle incoming Configuration Name Report Commands.">
<polygon fill="none" stroke="black" points="661,-79.5 661,-120.5 785,-120.5 785,-79.5 661,-79.5"/>
<text text-anchor="start" x="669" y="-108.5" font-family="Helvetica,sans-Serif" font-size="10.00">zwave_command_class</text>
<text text-anchor="start" x="669" y="-97.5" font-family="Helvetica,sans-Serif" font-size="10.00">_configuration_handle</text>
<text text-anchor="middle" x="723" y="-86.5" font-family="Helvetica,sans-Serif" font-size="10.00">_name_report_command</text>
</a>
</g>
</g>
<!-- Node8&#45;&gt;Node13 -->
<g id="edge12" class="edge">
<title>Node8&#45;&gt;Node13</title>
<path fill="none" stroke="midnightblue" d="M824.67,-100C811.62,-100 797.94,-100 785.01,-100"/>
<polygon fill="midnightblue" stroke="midnightblue" points="824.97,-103.5 834.97,-100 824.97,-96.5 824.97,-103.5"/>
</g>
<!-- Node14 -->
<g id="node14" class="node">
<title>Node14</title>
<g id="a_node14"><a xlink:href="zwave__command__class__security__0_8c.html#a5cf6b9b12b9423c27a470a35d57d1a8c" target="_top" xlink:title=" ">
<polygon fill="none" stroke="black" points="662,-139.5 662,-180.5 784,-180.5 784,-139.5 662,-139.5"/>
<text text-anchor="start" x="670" y="-168.5" font-family="Helvetica,sans-Serif" font-size="10.00">zwave_command_class</text>
<text text-anchor="start" x="670" y="-157.5" font-family="Helvetica,sans-Serif" font-size="10.00">_security_0_commands</text>
<text text-anchor="middle" x="723" y="-146.5" font-family="Helvetica,sans-Serif" font-size="10.00">_supported_report</text>
</a>
</g>
</g>
<!-- Node8&#45;&gt;Node14 -->
<g id="edge14" class="edge">
<title>Node8&#45;&gt;Node14</title>
<path fill="none" stroke="midnightblue" d="M853.26,-113C832,-120.73 804.55,-130.71 780.43,-139.48"/>
<polygon fill="midnightblue" stroke="midnightblue" points="854.65,-116.21 862.86,-109.51 852.26,-109.64 854.65,-116.21"/>
</g>
<!-- Node10 -->
<g id="node10" class="node">
<title>Node10</title>
<g id="a_node10"><a xlink:href="zwave__command__class__configuration__control_8c.html#a47d754a17f1ac5b2d479005308d7084f" target="_top" xlink:title="Dispatches incoming Configuration Commands to individual command handlers.">
<polygon fill="none" stroke="black" points="495,-34.5 495,-75.5 617,-75.5 617,-34.5 495,-34.5"/>
<text text-anchor="start" x="503" y="-63.5" font-family="Helvetica,sans-Serif" font-size="10.00">zwave_command_class</text>
<text text-anchor="start" x="503" y="-52.5" font-family="Helvetica,sans-Serif" font-size="10.00">_configuration_control</text>
<text text-anchor="middle" x="556" y="-41.5" font-family="Helvetica,sans-Serif" font-size="10.00">_handler</text>
</a>
</g>
</g>
<!-- Node9&#45;&gt;Node10 -->
<g id="edge9" class="edge">
<title>Node9&#45;&gt;Node10</title>
<path fill="none" stroke="midnightblue" d="M651.94,-46.37C640.4,-47.42 628.54,-48.5 617.27,-49.52"/>
<polygon fill="midnightblue" stroke="midnightblue" points="652.32,-49.85 661.96,-45.46 651.69,-42.88 652.32,-49.85"/>
</g>
<!-- Node11 -->
<g id="node11" class="node">
<title>Node11</title>
<g id="a_node11"><a xlink:href="group__zwave__command__class__configuration.html#gacc11ad9afa837acce0d1aada6408e1ce" target="_top" xlink:title="This function initialize the Configuration Command Class handler.">
<polygon fill="none" stroke="black" points="335.5,-73 335.5,-103 457.5,-103 457.5,-73 335.5,-73"/>
<text text-anchor="start" x="343.5" y="-91" font-family="Helvetica,sans-Serif" font-size="10.00">zwave_command_class</text>
<text text-anchor="middle" x="396.5" y="-80" font-family="Helvetica,sans-Serif" font-size="10.00">_configuration_init</text>
</a>
</g>
</g>
<!-- Node10&#45;&gt;Node11 -->
<g id="edge10" class="edge">
<title>Node10&#45;&gt;Node11</title>
<path fill="none" stroke="midnightblue" d="M484.48,-69.78C475.48,-71.66 466.33,-73.58 457.52,-75.42"/>
<polygon fill="midnightblue" stroke="midnightblue" points="485.49,-73.14 494.56,-67.66 484.05,-66.29 485.49,-73.14"/>
</g>
<!-- Node12 -->
<g id="node12" class="node">
<title>Node12</title>
<g id="a_node12"><a xlink:href="group__command__classes__fixt.html#ga5272651939ced1723158340039e8da19" target="_top" xlink:title="Setup fixture for Z&#45;Wave Command Classes.">
<polygon fill="none" stroke="black" points="148,-106.5 148,-125.5 298,-125.5 298,-106.5 148,-106.5"/>
<text text-anchor="middle" x="223" y="-113.5" font-family="Helvetica,sans-Serif" font-size="10.00">zwave_command_classes_init</text>
</a>
</g>
</g>
<!-- Node11&#45;&gt;Node12 -->
<g id="edge11" class="edge">
<title>Node11&#45;&gt;Node12</title>
<path fill="none" stroke="midnightblue" d="M324.83,-99.54C310.65,-101.85 295.89,-104.26 282.19,-106.5"/>
<polygon fill="midnightblue" stroke="midnightblue" points="325.73,-102.94 335.04,-97.87 324.6,-96.03 325.73,-102.94"/>
</g>
<!-- Node13&#45;&gt;Node10 -->
<g id="edge13" class="edge">
<title>Node13&#45;&gt;Node10</title>
<path fill="none" stroke="midnightblue" d="M650.79,-80.58C639.57,-77.52 628.06,-74.38 617.12,-71.4"/>
<polygon fill="midnightblue" stroke="midnightblue" points="649.99,-83.99 660.56,-83.24 651.83,-77.24 649.99,-83.99"/>
</g>
<!-- Node15 -->
<g id="node15" class="node">
<title>Node15</title>
<g id="a_node15"><a xlink:href="group__security__0__command__class.html#gaf1dd75d7ea7af6746142a01c7f9aed2e" target="_top" xlink:title=" ">
<polygon fill="none" stroke="black" points="495,-124.5 495,-165.5 617,-165.5 617,-124.5 495,-124.5"/>
<text text-anchor="start" x="503" y="-153.5" font-family="Helvetica,sans-Serif" font-size="10.00">zwave_command_class</text>
<text text-anchor="start" x="503" y="-142.5" font-family="Helvetica,sans-Serif" font-size="10.00">_security_0_control</text>
<text text-anchor="middle" x="556" y="-131.5" font-family="Helvetica,sans-Serif" font-size="10.00">_handler</text>
</a>
</g>
</g>
<!-- Node14&#45;&gt;Node15 -->
<g id="edge15" class="edge">
<title>Node14&#45;&gt;Node15</title>
<path fill="none" stroke="midnightblue" d="M651.94,-153.63C640.4,-152.58 628.54,-151.5 617.27,-150.48"/>
<polygon fill="midnightblue" stroke="midnightblue" points="651.69,-157.12 661.96,-154.54 652.32,-150.15 651.69,-157.12"/>
</g>
<!-- Node16 -->
<g id="node16" class="node">
<title>Node16</title>
<g id="a_node16"><a xlink:href="group__security__0__command__class.html#ga7460f029f90a343242e45c6233e1cdc2" target="_top" xlink:title="Intitialize the Security 0 Command Class handler.">
<polygon fill="none" stroke="black" points="335.5,-125 335.5,-155 457.5,-155 457.5,-125 335.5,-125"/>
<text text-anchor="start" x="343.5" y="-143" font-family="Helvetica,sans-Serif" font-size="10.00">zwave_command_class</text>
<text text-anchor="middle" x="396.5" y="-132" font-family="Helvetica,sans-Serif" font-size="10.00">_security_0_init</text>
</a>
</g>
</g>
<!-- Node15&#45;&gt;Node16 -->
<g id="edge16" class="edge">
<title>Node15&#45;&gt;Node16</title>
<path fill="none" stroke="midnightblue" d="M484.48,-142.76C475.48,-142.48 466.33,-142.19 457.52,-141.91"/>
<polygon fill="midnightblue" stroke="midnightblue" points="484.45,-146.26 494.56,-143.08 484.67,-139.27 484.45,-146.26"/>
</g>
<!-- Node16&#45;&gt;Node12 -->
<g id="edge17" class="edge">
<title>Node16&#45;&gt;Node12</title>
<path fill="none" stroke="midnightblue" d="M324.8,-130.11C313.99,-128.59 302.85,-127.04 292.1,-125.53"/>
<polygon fill="midnightblue" stroke="midnightblue" points="324.65,-133.62 335.04,-131.54 325.62,-126.69 324.65,-133.62"/>
</g>
<!-- Node17&#45;&gt;Node10 -->
<g id="edge19" class="edge">
<title>Node17&#45;&gt;Node10</title>
<path fill="none" stroke="midnightblue" d="M818.44,-8.09C771.1,-1.76 707.64,2.17 653,-10 631.44,-14.8 609,-24.99 591.24,-34.46"/>
<polygon fill="midnightblue" stroke="midnightblue" points="818.21,-11.59 828.6,-9.51 819.18,-4.66 818.21,-11.59"/>
</g>
</g>
</svg>
