<?xml version="1.0" encoding="UTF-8" standalone="no"?>
<!DOCTYPE svg PUBLIC "-//W3C//DTD SVG 1.1//EN"
 "http://www.w3.org/Graphics/SVG/1.1/DTD/svg11.dtd">
<!-- Generated by graphviz version 2.43.0 (0)
 -->
<!-- Title: Z&#45;Wave Command Classes Pages: 1 -->
<svg width="331pt" height="1865pt"
 viewBox="0.00 0.00 331.00 1864.50" xmlns="http://www.w3.org/2000/svg" xmlns:xlink="http://www.w3.org/1999/xlink">
<g id="graph0" class="graph" transform="scale(1 1) rotate(0) translate(4 1860.5)">
<title>Z&#45;Wave Command Classes</title>
<!-- Node9 -->
<g id="node1" class="node">
<title>Node9</title>
<g id="a_node1"><a xlink:href="group__agi__command__class.html" target="_top" xlink:title="Association Group Information (AGI) Command Class handlers and control functions.">
<polygon fill="none" stroke="black" points="322.5,-1856.5 173.5,-1856.5 173.5,-1826.5 322.5,-1826.5 322.5,-1856.5"/>
<text text-anchor="start" x="181.5" y="-1844.5" font-family="Helvetica,sans-Serif" font-size="10.00">Association Group Information</text>
<text text-anchor="middle" x="248" y="-1833.5" font-family="Helvetica,sans-Serif" font-size="10.00"> (AGI) Command Class</text>
</a>
</g>
</g>
<!-- Node10 -->
<g id="node2" class="node">
<title>Node10</title>
<g id="a_node2"><a xlink:href="group__alarm__sensor__command__class.html" target="_top" xlink:title="Alarm Sensor Command Class handlers and control functions.">
<polygon fill="none" stroke="black" points="310,-1808.5 186,-1808.5 186,-1778.5 310,-1778.5 310,-1808.5"/>
<text text-anchor="start" x="194" y="-1796.5" font-family="Helvetica,sans-Serif" font-size="10.00">Alarm Sensor Command</text>
<text text-anchor="middle" x="248" y="-1785.5" font-family="Helvetica,sans-Serif" font-size="10.00"> Class</text>
</a>
</g>
</g>
<!-- Node11 -->
<g id="node3" class="node">
<title>Node11</title>
<g id="a_node3"><a xlink:href="group__association__command__class.html" target="_top" xlink:title="Association Command Class handlers and control functions.">
<polygon fill="none" stroke="black" points="306,-1760.5 190,-1760.5 190,-1730.5 306,-1730.5 306,-1760.5"/>
<text text-anchor="start" x="198" y="-1748.5" font-family="Helvetica,sans-Serif" font-size="10.00">Association Command</text>
<text text-anchor="middle" x="248" y="-1737.5" font-family="Helvetica,sans-Serif" font-size="10.00"> Class</text>
</a>
</g>
</g>
<!-- Node12 -->
<g id="node4" class="node">
<title>Node12</title>
<g id="a_node4"><a xlink:href="group__barrier__operator__command__class.html" target="_top" xlink:title="Barrier Operator Command Class handlers and control functions.">
<polygon fill="none" stroke="black" points="315,-1712.5 181,-1712.5 181,-1682.5 315,-1682.5 315,-1712.5"/>
<text text-anchor="start" x="189" y="-1700.5" font-family="Helvetica,sans-Serif" font-size="10.00">Barrier Operator Command</text>
<text text-anchor="middle" x="248" y="-1689.5" font-family="Helvetica,sans-Serif" font-size="10.00"> Class</text>
</a>
</g>
</g>
<!-- Node15 -->
<g id="node5" class="node">
<title>Node15</title>
<g id="a_node5"><a xlink:href="group__binary__switch__command__class.html" target="_top" xlink:title="Binary Switch Command Class handlers and control functions.">
<polygon fill="none" stroke="black" points="310.5,-1664.5 185.5,-1664.5 185.5,-1634.5 310.5,-1634.5 310.5,-1664.5"/>
<text text-anchor="start" x="193.5" y="-1652.5" font-family="Helvetica,sans-Serif" font-size="10.00">Binary Switch Command</text>
<text text-anchor="middle" x="248" y="-1641.5" font-family="Helvetica,sans-Serif" font-size="10.00"> Class</text>
</a>
</g>
</g>
<!-- Node1 -->
<g id="node6" class="node">
<title>Node1</title>
<g id="a_node6"><a xlink:title="List of supported and controlled Z&#45;Wave Command Classes.">
<polygon fill="#bfbfbf" stroke="black" points="137,-927 0,-927 0,-908 137,-908 137,-927"/>
<text text-anchor="middle" x="68.5" y="-915" font-family="Helvetica,sans-Serif" font-size="10.00">Z&#45;Wave Command Classes</text>
</a>
</g>
</g>
<!-- Node1&#45;&gt;Node9 -->
<g id="edge8" class="edge">
<title>Node1&#45;&gt;Node9</title>
<path fill="none" stroke="black" d="M70.49,-937.08C77,-1062.21 115.1,-1746.75 173,-1817.5 175.82,-1820.95 179.15,-1823.91 182.8,-1826.45"/>
<polygon fill="black" stroke="black" points="73.99,-936.84 69.98,-927.04 66.99,-937.2 73.99,-936.84"/>
</g>
<!-- Node1&#45;&gt;Node10 -->
<g id="edge9" class="edge">
<title>Node1&#45;&gt;Node10</title>
<path fill="none" stroke="black" d="M69.12,-937.47C67.34,-1053.19 63.89,-1637.04 173,-1769.5 176.61,-1773.88 181.02,-1777.47 185.88,-1780.4"/>
<polygon fill="black" stroke="black" points="72.63,-937.3 69.3,-927.24 65.63,-937.18 72.63,-937.3"/>
</g>
<!-- Node1&#45;&gt;Node11 -->
<g id="edge10" class="edge">
<title>Node1&#45;&gt;Node11</title>
<path fill="none" stroke="black" d="M69.28,-937.39C68.47,-1049.02 69.82,-1597.15 173,-1721.5 177.57,-1727.01 183.42,-1731.27 189.82,-1734.55"/>
<polygon fill="black" stroke="black" points="72.79,-937.24 69.37,-927.21 65.79,-937.18 72.79,-937.24"/>
</g>
<!-- Node1&#45;&gt;Node12 -->
<g id="edge11" class="edge">
<title>Node1&#45;&gt;Node12</title>
<path fill="none" stroke="black" d="M69.46,-937.2C69.66,-1044.43 75.71,-1557.2 173,-1673.5 175.86,-1676.92 179.21,-1679.85 182.88,-1682.38"/>
<polygon fill="black" stroke="black" points="72.96,-937.13 69.46,-927.13 65.96,-937.13 72.96,-937.13"/>
</g>
<!-- Node1&#45;&gt;Node15 -->
<g id="edge14" class="edge">
<title>Node1&#45;&gt;Node15</title>
<path fill="none" stroke="black" d="M69.67,-937.55C70.94,-1041.39 81.75,-1517.43 173,-1625.5 176.49,-1629.63 180.69,-1633.05 185.3,-1635.89"/>
<polygon fill="black" stroke="black" points="73.17,-937.21 69.56,-927.24 66.17,-937.28 73.17,-937.21"/>
</g>
<!-- Node7 -->
<g id="node7" class="node">
<title>Node7</title>
<g id="a_node7"><a xlink:href="group__command__classes__fixt.html" target="_top" xlink:title="Initializations for Command Classes handlers.">
<polygon fill="none" stroke="black" points="310.5,-1616 185.5,-1616 185.5,-1597 310.5,-1597 310.5,-1616"/>
<text text-anchor="middle" x="248" y="-1604" font-family="Helvetica,sans-Serif" font-size="10.00">Command Class fixtures</text>
</a>
</g>
</g>
<!-- Node1&#45;&gt;Node7 -->
<g id="edge6" class="edge">
<title>Node1&#45;&gt;Node7</title>
<path fill="none" stroke="black" d="M69.7,-937.57C71.12,-1038.54 82.53,-1489.94 173,-1588.5 176.58,-1592.4 180.84,-1595.51 185.49,-1598"/>
<polygon fill="black" stroke="black" points="73.2,-937.23 69.57,-927.27 66.2,-937.31 73.2,-937.23"/>
</g>
<!-- Node8 -->
<g id="node8" class="node">
<title>Node8</title>
<g id="a_node8"><a xlink:href="group__command__classes__utils.html" target="_top" xlink:title="Utils for Command Classes handlers.">
<polygon fill="none" stroke="black" points="309,-1579 187,-1579 187,-1560 309,-1560 309,-1579"/>
<text text-anchor="middle" x="248" y="-1567" font-family="Helvetica,sans-Serif" font-size="10.00">Command Classes utils</text>
</a>
</g>
</g>
<!-- Node1&#45;&gt;Node8 -->
<g id="edge7" class="edge">
<title>Node1&#45;&gt;Node8</title>
<path fill="none" stroke="black" d="M69.92,-937.33C72.39,-1034.28 87.97,-1457.52 173,-1550.5 176.94,-1554.81 181.71,-1558.19 186.91,-1560.85"/>
<polygon fill="black" stroke="black" points="73.42,-937.08 69.68,-927.17 66.42,-937.25 73.42,-937.08"/>
</g>
<!-- Node18 -->
<g id="node9" class="node">
<title>Node18</title>
<g id="a_node9"><a xlink:href="group__device__reset__locally__command__class.html" target="_top" xlink:title="Device Reset Locally Command Class handlers and init functions.">
<polygon fill="none" stroke="black" points="303,-1541.5 193,-1541.5 193,-1511.5 303,-1511.5 303,-1541.5"/>
<text text-anchor="start" x="201" y="-1529.5" font-family="Helvetica,sans-Serif" font-size="10.00">Device Reset Locally</text>
<text text-anchor="middle" x="248" y="-1518.5" font-family="Helvetica,sans-Serif" font-size="10.00"> Command Class</text>
</a>
</g>
</g>
<!-- Node1&#45;&gt;Node18 -->
<g id="edge17" class="edge">
<title>Node1&#45;&gt;Node18</title>
<path fill="none" stroke="black" d="M70.34,-937.45C74.62,-1029.81 96.87,-1415.02 173,-1502.5 178.32,-1508.61 185.21,-1513.18 192.64,-1516.59"/>
<polygon fill="black" stroke="black" points="73.83,-937.09 69.89,-927.26 66.84,-937.4 73.83,-937.09"/>
</g>
<!-- Node19 -->
<g id="node10" class="node">
<title>Node19</title>
<g id="a_node10"><a xlink:href="group__door__lock__command__class.html" target="_top" xlink:title="The module handles the control part of DoorLock Command Class.">
<polygon fill="none" stroke="black" points="315.5,-1493 180.5,-1493 180.5,-1474 315.5,-1474 315.5,-1493"/>
<text text-anchor="middle" x="248" y="-1481" font-family="Helvetica,sans-Serif" font-size="10.00">DoorLock Command Class</text>
</a>
</g>
</g>
<!-- Node1&#45;&gt;Node19 -->
<g id="edge18" class="edge">
<title>Node1&#45;&gt;Node19</title>
<path fill="none" stroke="black" d="M70.47,-937.1C75.21,-1025.4 98.9,-1385.47 173,-1464.5 176.54,-1468.27 180.72,-1471.34 185.26,-1473.82"/>
<polygon fill="black" stroke="black" points="73.96,-936.9 69.95,-927.1 66.97,-937.26 73.96,-936.9"/>
</g>
<!-- Node26 -->
<g id="node11" class="node">
<title>Node26</title>
<g id="a_node11"><a xlink:href="group__multi__channel__association__command__class.html" target="_top" xlink:title="Multi Channel Association Command Class handlers and control functions.">
<polygon fill="none" stroke="black" points="313,-1455.5 183,-1455.5 183,-1425.5 313,-1425.5 313,-1455.5"/>
<text text-anchor="start" x="191" y="-1443.5" font-family="Helvetica,sans-Serif" font-size="10.00">Multi Channel Association</text>
<text text-anchor="middle" x="248" y="-1432.5" font-family="Helvetica,sans-Serif" font-size="10.00"> Command Class</text>
</a>
</g>
</g>
<!-- Node1&#45;&gt;Node26 -->
<g id="edge25" class="edge">
<title>Node1&#45;&gt;Node26</title>
<path fill="none" stroke="black" d="M70.97,-937.1C77.61,-1020.27 107.29,-1343.2 173,-1416.5 176.07,-1419.92 179.62,-1422.85 183.48,-1425.37"/>
<polygon fill="black" stroke="black" points="74.45,-936.7 70.19,-927 67.48,-937.24 74.45,-936.7"/>
</g>
<!-- Node4 -->
<g id="node12" class="node">
<title>Node4</title>
<g id="a_node12"><a xlink:href="group__multi__channel__command__class.html" target="_top" xlink:title="Multi Channel Command Class implementation.">
<polygon fill="none" stroke="black" points="310.5,-1407.5 185.5,-1407.5 185.5,-1377.5 310.5,-1377.5 310.5,-1407.5"/>
<text text-anchor="start" x="193.5" y="-1395.5" font-family="Helvetica,sans-Serif" font-size="10.00">Multi Channel Command</text>
<text text-anchor="middle" x="248" y="-1384.5" font-family="Helvetica,sans-Serif" font-size="10.00"> Class</text>
</a>
</g>
</g>
<!-- Node1&#45;&gt;Node4 -->
<g id="edge3" class="edge">
<title>Node1&#45;&gt;Node4</title>
<path fill="none" stroke="black" d="M71.45,-937.19C79.58,-1015.41 113.15,-1303.13 173,-1368.5 176.56,-1372.38 180.75,-1375.64 185.3,-1378.38"/>
<polygon fill="black" stroke="black" points="74.93,-936.81 70.44,-927.22 67.97,-937.52 74.93,-936.81"/>
</g>
<!-- Node27 -->
<g id="node13" class="node">
<title>Node27</title>
<g id="a_node13"><a xlink:href="group__multi__command__command__class.html" target="_top" xlink:title="Multi Command Command Class handlers.">
<polygon fill="none" stroke="black" points="315,-1359.5 181,-1359.5 181,-1329.5 315,-1329.5 315,-1359.5"/>
<text text-anchor="start" x="189" y="-1347.5" font-family="Helvetica,sans-Serif" font-size="10.00">Multi Command Command</text>
<text text-anchor="middle" x="248" y="-1336.5" font-family="Helvetica,sans-Serif" font-size="10.00"> Class</text>
</a>
</g>
</g>
<!-- Node1&#45;&gt;Node27 -->
<g id="edge26" class="edge">
<title>Node1&#45;&gt;Node27</title>
<path fill="none" stroke="black" d="M72.06,-937.39C81.83,-1010.49 119,-1263.04 173,-1320.5 176.24,-1323.94 179.97,-1326.9 184.01,-1329.43"/>
<polygon fill="black" stroke="black" points="75.5,-936.71 70.73,-927.25 68.56,-937.62 75.5,-936.71"/>
</g>
<!-- Node28 -->
<g id="node14" class="node">
<title>Node28</title>
<g id="a_node14"><a xlink:href="group__multilevel__sensor__command__class.html" target="_top" xlink:title="Multilevel Sensor Command Class handlers and control functions.">
<polygon fill="none" stroke="black" points="318,-1311.5 178,-1311.5 178,-1281.5 318,-1281.5 318,-1311.5"/>
<text text-anchor="start" x="186" y="-1299.5" font-family="Helvetica,sans-Serif" font-size="10.00">Multilevel Sensor Command</text>
<text text-anchor="middle" x="248" y="-1288.5" font-family="Helvetica,sans-Serif" font-size="10.00"> Class</text>
</a>
</g>
</g>
<!-- Node1&#45;&gt;Node28 -->
<g id="edge27" class="edge">
<title>Node1&#45;&gt;Node28</title>
<path fill="none" stroke="black" d="M69.23,-937.59C69.53,-997.27 78.69,-1175.32 173,-1272.5 176.29,-1275.89 180.07,-1278.81 184.13,-1281.31"/>
<polygon fill="black" stroke="black" points="72.73,-937.31 69.26,-927.3 65.73,-937.28 72.73,-937.31"/>
</g>
<!-- Node30 -->
<g id="node15" class="node">
<title>Node30</title>
<g id="a_node15"><a xlink:href="group__notification__command__class.html" target="_top" xlink:title="A Z&#45;Wave Notification Command Class handlers and control functions.">
<polygon fill="none" stroke="black" points="305,-1263.5 191,-1263.5 191,-1233.5 305,-1233.5 305,-1263.5"/>
<text text-anchor="start" x="199" y="-1251.5" font-family="Helvetica,sans-Serif" font-size="10.00">Notification Command</text>
<text text-anchor="middle" x="248" y="-1240.5" font-family="Helvetica,sans-Serif" font-size="10.00"> Class</text>
</a>
</g>
</g>
<!-- Node1&#45;&gt;Node30 -->
<g id="edge29" class="edge">
<title>Node1&#45;&gt;Node30</title>
<path fill="none" stroke="black" d="M70.29,-937.35C73.51,-991.34 89.9,-1142.35 173,-1224.5 178.09,-1229.53 184.25,-1233.51 190.81,-1236.65"/>
<polygon fill="black" stroke="black" points="73.77,-936.9 69.77,-927.09 66.78,-937.26 73.77,-936.9"/>
</g>
<!-- Node34 -->
<g id="node16" class="node">
<title>Node34</title>
<g id="a_node16"><a xlink:href="group__security__0__command__class.html" target="_top" xlink:title="Security 0 (S0) Commmand Class handler and control functions.">
<polygon fill="none" stroke="black" points="302.5,-1215.5 193.5,-1215.5 193.5,-1185.5 302.5,-1185.5 302.5,-1215.5"/>
<text text-anchor="start" x="201.5" y="-1203.5" font-family="Helvetica,sans-Serif" font-size="10.00">Security 0 Command</text>
<text text-anchor="middle" x="248" y="-1192.5" font-family="Helvetica,sans-Serif" font-size="10.00"> Class</text>
</a>
</g>
</g>
<!-- Node1&#45;&gt;Node34 -->
<g id="edge33" class="edge">
<title>Node1&#45;&gt;Node34</title>
<path fill="none" stroke="black" d="M71.68,-937.1C78.05,-985.02 100.98,-1109.12 173,-1176.5 178.82,-1181.94 185.89,-1186.15 193.32,-1189.41"/>
<polygon fill="black" stroke="black" points="75.14,-936.61 70.45,-927.11 68.2,-937.46 75.14,-936.61"/>
</g>
<!-- Node35 -->
<g id="node17" class="node">
<title>Node35</title>
<g id="a_node17"><a xlink:href="group__security__2__command__class.html" target="_top" xlink:title="Security 2 (S2) Commmand Class handler and control functions.">
<polygon fill="none" stroke="black" points="302.5,-1167.5 193.5,-1167.5 193.5,-1137.5 302.5,-1137.5 302.5,-1167.5"/>
<text text-anchor="start" x="201.5" y="-1155.5" font-family="Helvetica,sans-Serif" font-size="10.00">Security 2 Command</text>
<text text-anchor="middle" x="248" y="-1144.5" font-family="Helvetica,sans-Serif" font-size="10.00"> Class</text>
</a>
</g>
</g>
<!-- Node1&#45;&gt;Node35 -->
<g id="edge34" class="edge">
<title>Node1&#45;&gt;Node35</title>
<path fill="none" stroke="black" d="M73.65,-937.02C83.47,-978.44 112,-1075.62 173,-1128.5 178.92,-1133.63 185.95,-1137.67 193.3,-1140.85"/>
<polygon fill="black" stroke="black" points="77.03,-936.1 71.41,-927.12 70.2,-937.64 77.03,-936.1"/>
</g>
<!-- Node37 -->
<g id="node18" class="node">
<title>Node37</title>
<g id="a_node18"><a xlink:href="group__switch__multilevel__command__class.html" target="_top" xlink:title="Switch Multilevel Command Class handlers and control functions.">
<polygon fill="none" stroke="black" points="317.5,-1119.5 178.5,-1119.5 178.5,-1089.5 317.5,-1089.5 317.5,-1119.5"/>
<text text-anchor="start" x="186.5" y="-1107.5" font-family="Helvetica,sans-Serif" font-size="10.00">Switch Multilevel Command</text>
<text text-anchor="middle" x="248" y="-1096.5" font-family="Helvetica,sans-Serif" font-size="10.00"> Class</text>
</a>
</g>
</g>
<!-- Node1&#45;&gt;Node37 -->
<g id="edge36" class="edge">
<title>Node1&#45;&gt;Node37</title>
<path fill="none" stroke="black" d="M76.66,-936.91C90.21,-970.97 122.79,-1041.59 173,-1080.5 177.38,-1083.89 182.25,-1086.81 187.35,-1089.33"/>
<polygon fill="black" stroke="black" points="79.79,-935.3 72.93,-927.22 73.26,-937.81 79.79,-935.3"/>
</g>
<!-- Node38 -->
<g id="node19" class="node">
<title>Node38</title>
<g id="a_node19"><a xlink:href="group__thermostat__mode__command__class.html" target="_top" xlink:title="Thermostat Mode Command Class handlers and control functions.">
<polygon fill="none" stroke="black" points="318.5,-1071.5 177.5,-1071.5 177.5,-1041.5 318.5,-1041.5 318.5,-1071.5"/>
<text text-anchor="start" x="185.5" y="-1059.5" font-family="Helvetica,sans-Serif" font-size="10.00">Thermostat Mode Command</text>
<text text-anchor="middle" x="248" y="-1048.5" font-family="Helvetica,sans-Serif" font-size="10.00"> Class</text>
</a>
</g>
</g>
<!-- Node1&#45;&gt;Node38 -->
<g id="edge37" class="edge">
<title>Node1&#45;&gt;Node38</title>
<path fill="none" stroke="black" d="M81.23,-935.67C98.44,-960.92 132.85,-1006.43 173,-1032.5 178.21,-1035.88 183.94,-1038.82 189.83,-1041.38"/>
<polygon fill="black" stroke="black" points="83.96,-933.46 75.51,-927.07 78.14,-937.34 83.96,-933.46"/>
</g>
<!-- Node39 -->
<g id="node20" class="node">
<title>Node39</title>
<g id="a_node20"><a xlink:href="group__thermostat__setpoint__command__class.html" target="_top" xlink:title="Thermostat Setpoint Command Class handlers and control functions.">
<polygon fill="none" stroke="black" points="300.5,-1023.5 195.5,-1023.5 195.5,-993.5 300.5,-993.5 300.5,-1023.5"/>
<text text-anchor="start" x="203.5" y="-1011.5" font-family="Helvetica,sans-Serif" font-size="10.00">Thermostat Setpoint</text>
<text text-anchor="middle" x="248" y="-1000.5" font-family="Helvetica,sans-Serif" font-size="10.00"> Command Class</text>
</a>
</g>
</g>
<!-- Node1&#45;&gt;Node39 -->
<g id="edge38" class="edge">
<title>Node1&#45;&gt;Node39</title>
<path fill="none" stroke="black" d="M90.09,-933.14C110.33,-947.95 142.52,-970 173,-984.5 180.07,-987.87 187.74,-990.94 195.37,-993.68"/>
<polygon fill="black" stroke="black" points="92.05,-930.24 81.94,-927.1 87.88,-935.86 92.05,-930.24"/>
</g>
<!-- Node2 -->
<g id="node21" class="node">
<title>Node2</title>
<g id="a_node21"><a xlink:href="group__zwave__command__class__association__helper.html" target="_top" xlink:title="Utils/Helpers for Association Command Classes.">
<polygon fill="none" stroke="black" points="306,-975.5 190,-975.5 190,-945.5 306,-945.5 306,-975.5"/>
<text text-anchor="start" x="198" y="-963.5" font-family="Helvetica,sans-Serif" font-size="10.00">Association Command</text>
<text text-anchor="middle" x="248" y="-952.5" font-family="Helvetica,sans-Serif" font-size="10.00"> Classes helpers</text>
</a>
</g>
</g>
<!-- Node1&#45;&gt;Node2 -->
<g id="edge1" class="edge">
<title>Node1&#45;&gt;Node2</title>
<path fill="none" stroke="black" d="M118.72,-929.42C140.78,-934.77 166.94,-941.11 189.86,-946.66"/>
<polygon fill="black" stroke="black" points="119.44,-926 108.89,-927.04 117.79,-932.8 119.44,-926"/>
</g>
<!-- Node13 -->
<g id="node22" class="node">
<title>Node13</title>
<g id="a_node22"><a xlink:href="group__zwave__command__class__basic.html" target="_top" xlink:title="Basic Command Class control handler.">
<polygon fill="none" stroke="black" points="307,-927 189,-927 189,-908 307,-908 307,-927"/>
<text text-anchor="middle" x="248" y="-915" font-family="Helvetica,sans-Serif" font-size="10.00">Basic Command Class</text>
</a>
</g>
</g>
<!-- Node1&#45;&gt;Node13 -->
<g id="edge12" class="edge">
<title>Node1&#45;&gt;Node13</title>
<path fill="none" stroke="black" d="M147.21,-917.5C161.19,-917.5 175.54,-917.5 188.85,-917.5"/>
<polygon fill="black" stroke="black" points="147.11,-914 137.11,-917.5 147.11,-921 147.11,-914"/>
</g>
<!-- Node14 -->
<g id="node23" class="node">
<title>Node14</title>
<g id="a_node23"><a xlink:href="group__zwave__command__class__battery.html" target="_top" xlink:title="The module handles the control part of Battery Command Class.">
<polygon fill="none" stroke="black" points="310.5,-889.5 185.5,-889.5 185.5,-859.5 310.5,-859.5 310.5,-889.5"/>
<text text-anchor="start" x="193.5" y="-877.5" font-family="Helvetica,sans-Serif" font-size="10.00">Battery Command Class</text>
<text text-anchor="middle" x="248" y="-866.5" font-family="Helvetica,sans-Serif" font-size="10.00"> control handler</text>
</a>
</g>
</g>
<!-- Node1&#45;&gt;Node14 -->
<g id="edge13" class="edge">
<title>Node1&#45;&gt;Node14</title>
<path fill="none" stroke="black" d="M118.71,-905.58C139.36,-900.58 163.59,-894.71 185.4,-889.42"/>
<polygon fill="black" stroke="black" points="117.79,-902.2 108.89,-907.96 119.44,-909 117.79,-902.2"/>
</g>
<!-- Node16 -->
<g id="node24" class="node">
<title>Node16</title>
<g id="a_node24"><a xlink:href="group__zwave__command__class__central__scene.html" target="_top" xlink:title="Central Scene Command Class handlers and control functions.">
<polygon fill="none" stroke="black" points="311.5,-841.5 184.5,-841.5 184.5,-811.5 311.5,-811.5 311.5,-841.5"/>
<text text-anchor="start" x="192.5" y="-829.5" font-family="Helvetica,sans-Serif" font-size="10.00">Central Scene Command</text>
<text text-anchor="middle" x="248" y="-818.5" font-family="Helvetica,sans-Serif" font-size="10.00"> Class</text>
</a>
</g>
</g>
<!-- Node1&#45;&gt;Node16 -->
<g id="edge15" class="edge">
<title>Node1&#45;&gt;Node16</title>
<path fill="none" stroke="black" d="M90.09,-901.86C110.33,-887.05 142.52,-865 173,-850.5 179.83,-847.25 187.21,-844.27 194.58,-841.61"/>
<polygon fill="black" stroke="black" points="87.88,-899.14 81.94,-907.9 92.05,-904.76 87.88,-899.14"/>
</g>
<!-- Node17 -->
<g id="node25" class="node">
<title>Node17</title>
<g id="a_node25"><a xlink:href="group__zwave__command__class__configuration.html" target="_top" xlink:title="Configuration Command Class handlers and control functions.">
<polygon fill="none" stroke="black" points="309,-793.5 187,-793.5 187,-763.5 309,-763.5 309,-793.5"/>
<text text-anchor="start" x="195" y="-781.5" font-family="Helvetica,sans-Serif" font-size="10.00">Configuration Command</text>
<text text-anchor="middle" x="248" y="-770.5" font-family="Helvetica,sans-Serif" font-size="10.00"> Class</text>
</a>
</g>
</g>
<!-- Node1&#45;&gt;Node17 -->
<g id="edge16" class="edge">
<title>Node1&#45;&gt;Node17</title>
<path fill="none" stroke="black" d="M81.23,-899.33C98.44,-874.08 132.85,-828.57 173,-802.5 178.21,-799.12 183.94,-796.18 189.83,-793.62"/>
<polygon fill="black" stroke="black" points="78.14,-897.66 75.51,-907.93 83.96,-901.54 78.14,-897.66"/>
</g>
<!-- Node3 -->
<g id="node26" class="node">
<title>Node3</title>
<g id="a_node26"><a xlink:href="group__zwave__command__class__firmware__update.html" target="_top" xlink:title="Firmware Update Command Class transfer API functions.">
<polygon fill="none" stroke="black" points="318,-745.5 178,-745.5 178,-715.5 318,-715.5 318,-745.5"/>
<text text-anchor="start" x="186" y="-733.5" font-family="Helvetica,sans-Serif" font-size="10.00">Firmware Update Command</text>
<text text-anchor="middle" x="248" y="-722.5" font-family="Helvetica,sans-Serif" font-size="10.00"> Class</text>
</a>
</g>
</g>
<!-- Node1&#45;&gt;Node3 -->
<g id="edge2" class="edge">
<title>Node1&#45;&gt;Node3</title>
<path fill="none" stroke="black" d="M76.66,-898.09C90.21,-864.03 122.79,-793.41 173,-754.5 177.38,-751.11 182.25,-748.19 187.35,-745.67"/>
<polygon fill="black" stroke="black" points="73.26,-897.19 72.93,-907.78 79.79,-899.7 73.26,-897.19"/>
</g>
<!-- Node21 -->
<g id="node27" class="node">
<title>Node21</title>
<g id="a_node27"><a xlink:href="group__zwave__command__class__inclusion__controller.html" target="_top" xlink:title="The module handles the SIS side of the Inclusion Controller Command Class.">
<polygon fill="none" stroke="black" points="298.5,-697.5 197.5,-697.5 197.5,-667.5 298.5,-667.5 298.5,-697.5"/>
<text text-anchor="start" x="205.5" y="-685.5" font-family="Helvetica,sans-Serif" font-size="10.00">Inclusion Controller</text>
<text text-anchor="middle" x="248" y="-674.5" font-family="Helvetica,sans-Serif" font-size="10.00"> Command Class</text>
</a>
</g>
</g>
<!-- Node1&#45;&gt;Node21 -->
<g id="edge20" class="edge">
<title>Node1&#45;&gt;Node21</title>
<path fill="none" stroke="black" d="M73.65,-897.98C83.47,-856.56 112,-759.38 173,-706.5 179.94,-700.48 188.41,-695.97 197.12,-692.59"/>
<polygon fill="black" stroke="black" points="70.2,-897.36 71.41,-907.88 77.03,-898.9 70.2,-897.36"/>
</g>
<!-- Node23 -->
<g id="node28" class="node">
<title>Node23</title>
<g id="a_node28"><a xlink:href="group__zwave__command__class__indicator__control.html" target="_top" xlink:title="The module handles the control part of the Indicator Command Class.">
<polygon fill="none" stroke="black" points="313.5,-649.5 182.5,-649.5 182.5,-619.5 313.5,-619.5 313.5,-649.5"/>
<text text-anchor="start" x="190.5" y="-637.5" font-family="Helvetica,sans-Serif" font-size="10.00">Indicator Command Class</text>
<text text-anchor="middle" x="248" y="-626.5" font-family="Helvetica,sans-Serif" font-size="10.00"> Control</text>
</a>
</g>
</g>
<!-- Node1&#45;&gt;Node23 -->
<g id="edge22" class="edge">
<title>Node1&#45;&gt;Node23</title>
<path fill="none" stroke="black" d="M71.68,-897.9C78.05,-849.98 100.98,-725.88 173,-658.5 176.65,-655.09 180.79,-652.16 185.2,-649.65"/>
<polygon fill="black" stroke="black" points="68.2,-897.54 70.45,-907.89 75.14,-898.39 68.2,-897.54"/>
</g>
<!-- Node22 -->
<g id="node29" class="node">
<title>Node22</title>
<g id="a_node29"><a xlink:href="group__zwave__command__class__indicator__support.html" target="_top" xlink:title="The module handles the support part of the Indicator Command Class.">
<polygon fill="none" stroke="black" points="313.5,-601.5 182.5,-601.5 182.5,-571.5 313.5,-571.5 313.5,-601.5"/>
<text text-anchor="start" x="190.5" y="-589.5" font-family="Helvetica,sans-Serif" font-size="10.00">Indicator Command Class</text>
<text text-anchor="middle" x="248" y="-578.5" font-family="Helvetica,sans-Serif" font-size="10.00"> Support</text>
</a>
</g>
</g>
<!-- Node1&#45;&gt;Node22 -->
<g id="edge21" class="edge">
<title>Node1&#45;&gt;Node22</title>
<path fill="none" stroke="black" d="M70.29,-897.65C73.51,-843.66 89.9,-692.65 173,-610.5 176.46,-607.08 180.41,-604.15 184.64,-601.64"/>
<polygon fill="black" stroke="black" points="66.78,-897.74 69.77,-907.91 73.77,-898.1 66.78,-897.74"/>
</g>
<!-- Node24 -->
<g id="node30" class="node">
<title>Node24</title>
<g id="a_node30"><a xlink:href="group__zwave__command__class__manufacturer__specific__control.html" target="_top" xlink:title="The module handles the control part of the Manufacturer Specifc command class. The auto&#45;generated com...">
<polygon fill="none" stroke="black" points="286,-553 210,-553 210,-534 286,-534 286,-553"/>
<text text-anchor="middle" x="248" y="-541" font-family="Helvetica,sans-Serif" font-size="10.00">Control of the</text>
</a>
</g>
</g>
<!-- Node1&#45;&gt;Node24 -->
<g id="edge23" class="edge">
<title>Node1&#45;&gt;Node24</title>
<path fill="none" stroke="black" d="M68.95,-897.53C68.45,-837.48 75.49,-656.9 173,-562.5 182.82,-553 196.71,-548.07 209.82,-545.56"/>
<polygon fill="black" stroke="black" points="65.46,-897.93 69.13,-907.87 72.46,-897.81 65.46,-897.93"/>
</g>
<!-- Node25 -->
<g id="node31" class="node">
<title>Node25</title>
<g id="a_node31"><a xlink:href="group__zwave__command__class__meter__control.html" target="_top" xlink:title="Meter Command Class control functions.">
<polygon fill="none" stroke="black" points="307,-515.5 189,-515.5 189,-485.5 307,-485.5 307,-515.5"/>
<text text-anchor="start" x="197" y="-503.5" font-family="Helvetica,sans-Serif" font-size="10.00">Meter Command Class</text>
<text text-anchor="middle" x="248" y="-492.5" font-family="Helvetica,sans-Serif" font-size="10.00"> Control</text>
</a>
</g>
</g>
<!-- Node1&#45;&gt;Node25 -->
<g id="edge24" class="edge">
<title>Node1&#45;&gt;Node25</title>
<path fill="none" stroke="black" d="M72.22,-897.71C82.45,-826.06 120.65,-581.52 173,-525.5 177.54,-520.65 183.05,-516.73 188.99,-513.58"/>
<polygon fill="black" stroke="black" points="68.75,-897.28 70.82,-907.67 75.68,-898.25 68.75,-897.28"/>
</g>
<!-- Node31 -->
<g id="node32" class="node">
<title>Node31</title>
<g id="a_node32"><a xlink:href="group__zwave__command__class__scene__activation__control.html" target="_top" xlink:title="Scene Activation Command Class control functions.">
<polygon fill="none" stroke="black" points="317,-467.5 179,-467.5 179,-437.5 317,-437.5 317,-467.5"/>
<text text-anchor="start" x="187" y="-455.5" font-family="Helvetica,sans-Serif" font-size="10.00">Scene Activation Command</text>
<text text-anchor="middle" x="248" y="-444.5" font-family="Helvetica,sans-Serif" font-size="10.00"> Class Control</text>
</a>
</g>
</g>
<!-- Node1&#45;&gt;Node31 -->
<g id="edge30" class="edge">
<title>Node1&#45;&gt;Node31</title>
<path fill="none" stroke="black" d="M71.57,-897.77C80.03,-820.59 114.37,-540.21 173,-476.5 176.11,-473.12 179.7,-470.22 183.58,-467.72"/>
<polygon fill="black" stroke="black" points="68.06,-897.68 70.47,-908 75.02,-898.43 68.06,-897.68"/>
</g>
<!-- Node32 -->
<g id="node33" class="node">
<title>Node32</title>
<g id="a_node33"><a xlink:href="group__zwave__command__class__scene__actuator__configuration__control.html" target="_top" xlink:title="Scene Actuator Configuration Command Class control functions.">
<polygon fill="none" stroke="black" points="320,-419.5 176,-419.5 176,-389.5 320,-389.5 320,-419.5"/>
<text text-anchor="start" x="184" y="-407.5" font-family="Helvetica,sans-Serif" font-size="10.00">Scene Actuator Configuration</text>
<text text-anchor="middle" x="248" y="-396.5" font-family="Helvetica,sans-Serif" font-size="10.00"> Command Class Control</text>
</a>
</g>
</g>
<!-- Node1&#45;&gt;Node32 -->
<g id="edge31" class="edge">
<title>Node1&#45;&gt;Node32</title>
<path fill="none" stroke="black" d="M71.08,-897.76C78.03,-815.41 108.54,-500.11 173,-428.5 176.07,-425.09 179.63,-422.16 183.5,-419.64"/>
<polygon fill="black" stroke="black" points="67.58,-897.54 70.25,-907.79 74.56,-898.11 67.58,-897.54"/>
</g>
<!-- Node33 -->
<g id="node34" class="node">
<title>Node33</title>
<g id="a_node34"><a xlink:href="group__zwave__command__class__scene__controller__configuration__control.html" target="_top" xlink:title="Scene Controller Configuration Command Class control functions.">
<polygon fill="none" stroke="black" points="323,-371.5 173,-371.5 173,-341.5 323,-341.5 323,-371.5"/>
<text text-anchor="start" x="181" y="-359.5" font-family="Helvetica,sans-Serif" font-size="10.00">Scene Controller Configuration</text>
<text text-anchor="middle" x="248" y="-348.5" font-family="Helvetica,sans-Serif" font-size="10.00"> Command Class</text>
</a>
</g>
</g>
<!-- Node1&#45;&gt;Node33 -->
<g id="edge32" class="edge">
<title>Node1&#45;&gt;Node33</title>
<path fill="none" stroke="black" d="M70.69,-897.54C76.28,-809.89 102.75,-459.99 173,-380.5 176.04,-377.06 179.58,-374.11 183.43,-371.58"/>
<polygon fill="black" stroke="black" points="67.18,-897.51 70.06,-907.71 74.17,-897.94 67.18,-897.51"/>
</g>
<!-- Node5 -->
<g id="node35" class="node">
<title>Node5</title>
<g id="a_node35"><a xlink:href="group__zwave__command__class__supervision.html" target="_top" xlink:title="A Z&#45;Wave Supervision Command Class handlers and control functions.">
<polygon fill="none" stroke="black" points="306,-323.5 190,-323.5 190,-293.5 306,-293.5 306,-323.5"/>
<text text-anchor="start" x="198" y="-311.5" font-family="Helvetica,sans-Serif" font-size="10.00">Supervision Command</text>
<text text-anchor="middle" x="248" y="-300.5" font-family="Helvetica,sans-Serif" font-size="10.00"> Class</text>
</a>
</g>
</g>
<!-- Node1&#45;&gt;Node5 -->
<g id="edge4" class="edge">
<title>Node1&#45;&gt;Node5</title>
<path fill="none" stroke="black" d="M70.34,-897.55C74.62,-805.19 96.87,-419.98 173,-332.5 177.61,-327.2 183.4,-323.07 189.7,-319.84"/>
<polygon fill="black" stroke="black" points="66.84,-897.6 69.89,-907.74 73.83,-897.91 66.84,-897.6"/>
</g>
<!-- Node36 -->
<g id="node36" class="node">
<title>Node36</title>
<g id="a_node36"><a xlink:href="group__zwave__command__class__switch__color.html" target="_top" xlink:title="Switch Color Command Class handlers and control functions.">
<polygon fill="none" stroke="black" points="308.5,-275.5 187.5,-275.5 187.5,-245.5 308.5,-245.5 308.5,-275.5"/>
<text text-anchor="start" x="195.5" y="-263.5" font-family="Helvetica,sans-Serif" font-size="10.00">Switch Color Command</text>
<text text-anchor="middle" x="248" y="-252.5" font-family="Helvetica,sans-Serif" font-size="10.00"> Class</text>
</a>
</g>
</g>
<!-- Node1&#45;&gt;Node36 -->
<g id="edge35" class="edge">
<title>Node1&#45;&gt;Node36</title>
<path fill="none" stroke="black" d="M70.04,-897.78C73.07,-801.33 90.91,-380.08 173,-284.5 177.05,-279.79 182.03,-275.99 187.48,-272.94"/>
<polygon fill="black" stroke="black" points="66.54,-897.79 69.74,-907.89 73.54,-897.99 66.54,-897.79"/>
</g>
<!-- Node40 -->
<g id="node37" class="node">
<title>Node40</title>
<g id="a_node37"><a xlink:href="group__zwave__command__class__transport__service.html" target="_top" xlink:title="Transport Service Command Class support and control handler.">
<polygon fill="none" stroke="black" points="319,-227.5 177,-227.5 177,-197.5 319,-197.5 319,-227.5"/>
<text text-anchor="start" x="185" y="-215.5" font-family="Helvetica,sans-Serif" font-size="10.00">Transport Service Command</text>
<text text-anchor="middle" x="248" y="-204.5" font-family="Helvetica,sans-Serif" font-size="10.00"> Class</text>
</a>
</g>
</g>
<!-- Node1&#45;&gt;Node40 -->
<g id="edge39" class="edge">
<title>Node1&#45;&gt;Node40</title>
<path fill="none" stroke="black" d="M69.8,-897.57C71.69,-796.36 85.05,-340.07 173,-236.5 175.88,-233.1 179.26,-230.18 182.94,-227.67"/>
<polygon fill="black" stroke="black" points="66.29,-897.59 69.62,-907.65 73.29,-897.71 66.29,-897.59"/>
</g>
<!-- Node41 -->
<g id="node38" class="node">
<title>Node41</title>
<g id="a_node38"><a xlink:href="group__zwave__command__class__user__code.html" target="_top" xlink:title="Command Class handler for the User Code Command Class.">
<polygon fill="none" stroke="black" points="318,-179 178,-179 178,-160 318,-160 318,-179"/>
<text text-anchor="middle" x="248" y="-167" font-family="Helvetica,sans-Serif" font-size="10.00">User Code Command Class</text>
</a>
</g>
</g>
<!-- Node1&#45;&gt;Node41 -->
<g id="edge40" class="edge">
<title>Node1&#45;&gt;Node41</title>
<path fill="none" stroke="black" d="M69.45,-897.75C69.61,-792.39 75.61,-297.28 173,-188.5 176.45,-184.65 180.57,-181.53 185.07,-179"/>
<polygon fill="black" stroke="black" points="65.95,-897.91 69.46,-907.91 72.95,-897.91 65.95,-897.91"/>
</g>
<!-- Node6 -->
<g id="node39" class="node">
<title>Node6</title>
<g id="a_node39"><a xlink:href="group__zwave__command__class__version.html" target="_top" xlink:title="Version Command Class support and control handlers.">
<polygon fill="none" stroke="black" points="311,-142 185,-142 185,-123 311,-123 311,-142"/>
<text text-anchor="middle" x="248" y="-130" font-family="Helvetica,sans-Serif" font-size="10.00">Version Command Class</text>
</a>
</g>
</g>
<!-- Node1&#45;&gt;Node6 -->
<g id="edge5" class="edge">
<title>Node1&#45;&gt;Node6</title>
<path fill="none" stroke="black" d="M69.3,-897.78C68.64,-789.35 70.82,-266.39 173,-151.5 176.35,-147.73 180.34,-144.67 184.69,-142.17"/>
<polygon fill="black" stroke="black" points="65.81,-897.97 69.38,-907.94 72.81,-897.92 65.81,-897.97"/>
</g>
<!-- Node42 -->
<g id="node40" class="node">
<title>Node42</title>
<g id="a_node40"><a xlink:href="group__zwave__command__class__wake__up.html" target="_top" xlink:title="Command Class handler for the Wake Up Command Class.">
<polygon fill="none" stroke="black" points="315,-105 181,-105 181,-86 315,-86 315,-105"/>
<text text-anchor="middle" x="248" y="-93" font-family="Helvetica,sans-Serif" font-size="10.00">Wake Up Command Class</text>
</a>
</g>
</g>
<!-- Node1&#45;&gt;Node42 -->
<g id="edge41" class="edge">
<title>Node1&#45;&gt;Node42</title>
<path fill="none" stroke="black" d="M69.17,-897.53C67.71,-785.47 66.12,-235.42 173,-114.5 176.34,-110.72 180.32,-107.65 184.67,-105.15"/>
<polygon fill="black" stroke="black" points="65.67,-897.8 69.32,-907.75 72.67,-897.7 65.67,-897.8"/>
</g>
<!-- Node20 -->
<g id="node41" class="node">
<title>Node20</title>
<g id="a_node41"><a xlink:href="group__zwave__granted__keys.html" target="_top" xlink:title="This component orchestrate the discovery of granted security keys for a NodeID.">
<polygon fill="none" stroke="black" points="304.5,-67.5 191.5,-67.5 191.5,-37.5 304.5,-37.5 304.5,-67.5"/>
<text text-anchor="start" x="199.5" y="-55.5" font-family="Helvetica,sans-Serif" font-size="10.00">Z&#45;Wave Granted Keys</text>
<text text-anchor="middle" x="248" y="-44.5" font-family="Helvetica,sans-Serif" font-size="10.00"> Resolver</text>
</a>
</g>
</g>
<!-- Node1&#45;&gt;Node20 -->
<g id="edge19" class="edge">
<title>Node1&#45;&gt;Node20</title>
<path fill="none" stroke="black" d="M69.19,-897.83C67.78,-783.84 66.09,-208.68 173,-77.5 177.88,-71.51 184.26,-66.95 191.22,-63.47"/>
<polygon fill="black" stroke="black" points="65.69,-897.95 69.33,-907.9 72.69,-897.85 65.69,-897.95"/>
</g>
<!-- Node29 -->
<g id="node42" class="node">
<title>Node29</title>
<g id="a_node42"><a xlink:href="group__zwave__nif__resolver.html" target="_top" xlink:title="This component handles resolving Node Info Frame attributes and kickstart Z&#45;Wave node interviews.">
<polygon fill="none" stroke="black" points="304,-19 192,-19 192,0 304,0 304,-19"/>
<text text-anchor="middle" x="248" y="-7" font-family="Helvetica,sans-Serif" font-size="10.00">Z&#45;Wave NIF Resolver</text>
</a>
</g>
</g>
<!-- Node1&#45;&gt;Node29 -->
<g id="edge28" class="edge">
<title>Node1&#45;&gt;Node29</title>
<path fill="none" stroke="black" d="M70.48,-897.72C76.8,-772.81 113.67,-96.46 173,-28.5 178.06,-22.7 184.62,-18.56 191.75,-15.62"/>
<polygon fill="black" stroke="black" points="66.98,-897.61 69.97,-907.77 73.97,-897.96 66.98,-897.61"/>
</g>
</g>
</svg>
