<?xml version="1.0" encoding="UTF-8" standalone="no"?>
<!DOCTYPE svg PUBLIC "-//W3C//DTD SVG 1.1//EN"
 "http://www.w3.org/Graphics/SVG/1.1/DTD/svg11.dtd">
<!-- Generated by graphviz version 2.43.0 (0)
 -->
<!-- Title: zwave_s2_network_init Pages: 1 -->
<svg width="474pt" height="166pt"
 viewBox="0.00 0.00 474.00 165.50" xmlns="http://www.w3.org/2000/svg" xmlns:xlink="http://www.w3.org/1999/xlink">
<g id="graph0" class="graph" transform="scale(1 1) rotate(0) translate(4 161.5)">
<title>zwave_s2_network_init</title>
<!-- Node1 -->
<g id="node1" class="node">
<title>Node1</title>
<g id="a_node1"><a xlink:title="Initialize the S2 network layer.">
<polygon fill="#bfbfbf" stroke="black" points="0,-72 0,-91 119,-91 119,-72 0,-72"/>
<text text-anchor="middle" x="59.5" y="-79" font-family="Helvetica,sans-Serif" font-size="10.00">zwave_s2_network_init</text>
</a>
</g>
</g>
<!-- Node2 -->
<g id="node2" class="node">
<title>Node2</title>
<g id="a_node2"><a xlink:href="zwave__s2__network_8c.html#a825285685f41a3ccbab132180aaec83d" target="_top" xlink:title=" ">
<polygon fill="none" stroke="black" points="189.5,-132 189.5,-151 266.5,-151 266.5,-132 189.5,-132"/>
<text text-anchor="middle" x="228" y="-139" font-family="Helvetica,sans-Serif" font-size="10.00">event_handler</text>
</a>
</g>
</g>
<!-- Node1&#45;&gt;Node2 -->
<g id="edge1" class="edge">
<title>Node1&#45;&gt;Node2</title>
<path fill="none" stroke="midnightblue" d="M84.87,-91.11C103.89,-98.53 131.02,-108.94 155,-117.5 165.64,-121.3 177.23,-125.24 187.94,-128.81"/>
<polygon fill="midnightblue" stroke="midnightblue" points="186.88,-132.15 197.48,-131.97 189.08,-125.51 186.88,-132.15"/>
</g>
<!-- Node4 -->
<g id="node4" class="node">
<title>Node4</title>
<g id="a_node4"><a xlink:href="group__zwave__s2__keystore__internals.html#ga24eb7d30be4a7bac0c387a98640a1be9" target="_top" xlink:title=" ">
<polygon fill="none" stroke="black" points="343.5,-88.5 343.5,-118.5 459.5,-118.5 459.5,-88.5 343.5,-88.5"/>
<text text-anchor="start" x="351.5" y="-106.5" font-family="Helvetica,sans-Serif" font-size="10.00">zwave_s2_create_new</text>
<text text-anchor="middle" x="401.5" y="-95.5" font-family="Helvetica,sans-Serif" font-size="10.00">_dynamic_ecdh_key</text>
</a>
</g>
</g>
<!-- Node1&#45;&gt;Node4 -->
<g id="edge5" class="edge">
<title>Node1&#45;&gt;Node4</title>
<path fill="none" stroke="midnightblue" d="M119.34,-85.31C178.84,-89.16 270.7,-95.1 333.1,-99.14"/>
<polygon fill="midnightblue" stroke="midnightblue" points="333.03,-102.64 343.23,-99.79 333.48,-95.66 333.03,-102.64"/>
</g>
<!-- Node5 -->
<g id="node5" class="node">
<title>Node5</title>
<g id="a_node5"><a xlink:href="group__zwave__network__management.html#gac01bf38badf30f94eac9a04b486cb967" target="_top" xlink:title="Get the cached HomeID.">
<polygon fill="none" stroke="black" points="155,-44.5 155,-74.5 301,-74.5 301,-44.5 155,-44.5"/>
<text text-anchor="start" x="163" y="-62.5" font-family="Helvetica,sans-Serif" font-size="10.00">zwave_network_management</text>
<text text-anchor="middle" x="228" y="-51.5" font-family="Helvetica,sans-Serif" font-size="10.00">_get_home_id</text>
</a>
</g>
</g>
<!-- Node1&#45;&gt;Node5 -->
<g id="edge4" class="edge">
<title>Node1&#45;&gt;Node5</title>
<path fill="none" stroke="midnightblue" d="M119.2,-73.74C127.48,-72.65 136.11,-71.51 144.73,-70.37"/>
<polygon fill="midnightblue" stroke="midnightblue" points="145.36,-73.82 154.82,-69.04 144.45,-66.88 145.36,-73.82"/>
</g>
<!-- Node6 -->
<g id="node6" class="node">
<title>Node6</title>
<g id="a_node6"><a xlink:href="group__zwave__s2__keystore.html#ga6e7eb7c062ee0f17a650a0e7ca7c9831" target="_top" xlink:title=" ">
<polygon fill="none" stroke="black" points="155.5,-6 155.5,-25 300.5,-25 300.5,-6 155.5,-6"/>
<text text-anchor="middle" x="228" y="-13" font-family="Helvetica,sans-Serif" font-size="10.00">zwave_s2_log_security_keys</text>
</a>
</g>
</g>
<!-- Node1&#45;&gt;Node6 -->
<g id="edge6" class="edge">
<title>Node1&#45;&gt;Node6</title>
<path fill="none" stroke="midnightblue" d="M77.11,-71.94C95.62,-61.59 126.7,-45.14 155,-34.5 161.42,-32.08 168.28,-29.85 175.11,-27.83"/>
<polygon fill="midnightblue" stroke="midnightblue" points="176.37,-31.11 185.05,-25.03 174.47,-24.38 176.37,-31.11"/>
</g>
<!-- Node3 -->
<g id="node3" class="node">
<title>Node3</title>
<g id="a_node3"><a xlink:href="zwave__s2__network_8c.html#a3a2e8cb33082af1e8c32573f95b61813" target="_top" xlink:title=" ">
<polygon fill="none" stroke="black" points="337,-138 337,-157 466,-157 466,-138 337,-138"/>
<text text-anchor="middle" x="401.5" y="-145" font-family="Helvetica,sans-Serif" font-size="10.00">s2_inclusion_event_name</text>
</a>
</g>
</g>
<!-- Node2&#45;&gt;Node3 -->
<g id="edge2" class="edge">
<title>Node2&#45;&gt;Node3</title>
<path fill="none" stroke="midnightblue" d="M266.64,-142.82C284.35,-143.44 306.1,-144.2 326.89,-144.92"/>
<polygon fill="midnightblue" stroke="midnightblue" points="326.88,-148.43 336.99,-145.28 327.12,-141.43 326.88,-148.43"/>
</g>
<!-- Node2&#45;&gt;Node4 -->
<g id="edge3" class="edge">
<title>Node2&#45;&gt;Node4</title>
<path fill="none" stroke="midnightblue" d="M266.64,-133.16C286.22,-128.82 310.75,-123.39 333.45,-118.36"/>
<polygon fill="midnightblue" stroke="midnightblue" points="334.38,-121.74 343.38,-116.16 332.86,-114.9 334.38,-121.74"/>
</g>
<!-- Node7 -->
<g id="node7" class="node">
<title>Node7</title>
<g id="a_node7"><a xlink:href="group__zwave__s2__keystore.html#ga42cbe7b3856c32fcde78b52c3b0be2ae" target="_top" xlink:title="Get the set of the currently assigned keys.">
<polygon fill="none" stroke="black" points="340.5,-0.5 340.5,-30.5 462.5,-30.5 462.5,-0.5 340.5,-0.5"/>
<text text-anchor="start" x="348.5" y="-18.5" font-family="Helvetica,sans-Serif" font-size="10.00">zwave_s2_keystore_get</text>
<text text-anchor="middle" x="401.5" y="-7.5" font-family="Helvetica,sans-Serif" font-size="10.00">_assigned_keys</text>
</a>
</g>
</g>
<!-- Node6&#45;&gt;Node7 -->
<g id="edge7" class="edge">
<title>Node6&#45;&gt;Node7</title>
<path fill="none" stroke="midnightblue" d="M300.74,-15.5C310.55,-15.5 320.61,-15.5 330.39,-15.5"/>
<polygon fill="midnightblue" stroke="midnightblue" points="330.46,-19 340.46,-15.5 330.46,-12 330.46,-19"/>
</g>
</g>
</svg>
