<?xml version="1.0" encoding="UTF-8" standalone="no"?>
<!DOCTYPE svg PUBLIC "-//W3C//DTD SVG 1.1//EN"
 "http://www.w3.org/Graphics/SVG/1.1/DTD/svg11.dtd">
<!-- Generated by graphviz version 2.43.0 (0)
 -->
<!-- Title: zwave_network_management_is_busy Pages: 1 -->
<svg width="734pt" height="96pt"
 viewBox="0.00 0.00 734.00 95.50" xmlns="http://www.w3.org/2000/svg" xmlns:xlink="http://www.w3.org/1999/xlink">
<g id="graph0" class="graph" transform="scale(1 1) rotate(0) translate(4 91.5)">
<title>zwave_network_management_is_busy</title>
<!-- Node1 -->
<g id="node1" class="node">
<title>Node1</title>
<g id="a_node1"><a xlink:title="Verify if we are carrying some network management operations.">
<polygon fill="#bfbfbf" stroke="black" points="580,-22.5 580,-52.5 726,-52.5 726,-22.5 580,-22.5"/>
<text text-anchor="start" x="588" y="-40.5" font-family="Helvetica,sans-Serif" font-size="10.00">zwave_network_management</text>
<text text-anchor="middle" x="653" y="-29.5" font-family="Helvetica,sans-Serif" font-size="10.00">_is_busy</text>
</a>
</g>
</g>
<!-- Node2 -->
<g id="node2" class="node">
<title>Node2</title>
<g id="a_node2"><a xlink:href="group__zwave__controller__internal.html#gadce8e3c18cd1e82f04b34e2f5ec8c0bc" target="_top" xlink:title="see zwave_controller_callbacks_t">
<polygon fill="none" stroke="black" points="438,-22.5 438,-52.5 544,-52.5 544,-22.5 438,-22.5"/>
<text text-anchor="start" x="446" y="-40.5" font-family="Helvetica,sans-Serif" font-size="10.00">zwave_controller_on</text>
<text text-anchor="middle" x="491" y="-29.5" font-family="Helvetica,sans-Serif" font-size="10.00">_node_id_assigned</text>
</a>
</g>
</g>
<!-- Node1&#45;&gt;Node2 -->
<g id="edge1" class="edge">
<title>Node1&#45;&gt;Node2</title>
<path fill="none" stroke="midnightblue" d="M569.71,-37.5C560.97,-37.5 552.26,-37.5 544.01,-37.5"/>
<polygon fill="midnightblue" stroke="midnightblue" points="569.96,-41 579.96,-37.5 569.96,-34 569.96,-41"/>
</g>
<!-- Node3 -->
<g id="node3" class="node">
<title>Node3</title>
<g id="a_node3"><a xlink:href="nm__state__machine_8c.html#ac9fe4041f9ca45bad16c9b6ad7bae02f" target="_top" xlink:title=" ">
<polygon fill="none" stroke="black" points="294.5,-50 294.5,-69 399.5,-69 399.5,-50 294.5,-50"/>
<text text-anchor="middle" x="347" y="-57" font-family="Helvetica,sans-Serif" font-size="10.00">nm_fsm_post_event</text>
</a>
</g>
</g>
<!-- Node2&#45;&gt;Node3 -->
<g id="edge2" class="edge">
<title>Node2&#45;&gt;Node3</title>
<path fill="none" stroke="midnightblue" d="M427.82,-47.13C418.39,-48.59 408.76,-50.09 399.59,-51.51"/>
<polygon fill="midnightblue" stroke="midnightblue" points="428.58,-50.56 437.93,-45.57 427.51,-43.64 428.58,-50.56"/>
</g>
<!-- Node5 -->
<g id="node5" class="node">
<title>Node5</title>
<g id="a_node5"><a xlink:href="group__zwave__rx__zwapi__callbacks.html#gad8a7864d183b913f74d0f18edbf89f36" target="_top" xlink:title="application_controller_update function for zwapi_callbacks. Incoming NIF from the Z&#45;Wave nodes will b...">
<polygon fill="none" stroke="black" points="292,-0.5 292,-30.5 402,-30.5 402,-0.5 292,-0.5"/>
<text text-anchor="start" x="300" y="-18.5" font-family="Helvetica,sans-Serif" font-size="10.00">zwave_rx_application</text>
<text text-anchor="middle" x="347" y="-7.5" font-family="Helvetica,sans-Serif" font-size="10.00">_controller_update</text>
</a>
</g>
</g>
<!-- Node2&#45;&gt;Node5 -->
<g id="edge5" class="edge">
<title>Node2&#45;&gt;Node5</title>
<path fill="none" stroke="midnightblue" d="M428.04,-27.9C419.52,-26.58 410.82,-25.23 402.45,-23.94"/>
<polygon fill="midnightblue" stroke="midnightblue" points="427.51,-31.36 437.93,-29.43 428.58,-24.44 427.51,-31.36"/>
</g>
<!-- Node3&#45;&gt;Node3 -->
<g id="edge3" class="edge">
<title>Node3&#45;&gt;Node3</title>
<path fill="none" stroke="midnightblue" d="M373.88,-78.15C372.76,-83.44 363.8,-87.5 347,-87.5 321.41,-87.5 314.01,-78.07 324.81,-69.26"/>
<polygon fill="midnightblue" stroke="midnightblue" points="376.95,-76.47 369.19,-69.26 370.76,-79.74 376.95,-76.47"/>
</g>
<!-- Node4 -->
<g id="node4" class="node">
<title>Node4</title>
<g id="a_node4"><a xlink:href="zwave__network__management__process_8c.html#a59cf655b084839b45cc25e23b3aef04c" target="_top" xlink:title=" ">
<polygon fill="none" stroke="black" points="143,-50 143,-69 256,-69 256,-50 143,-50"/>
<text text-anchor="middle" x="199.5" y="-57" font-family="Helvetica,sans-Serif" font-size="10.00">PROCESS_THREAD</text>
</a>
</g>
</g>
<!-- Node3&#45;&gt;Node4 -->
<g id="edge4" class="edge">
<title>Node3&#45;&gt;Node4</title>
<path fill="none" stroke="midnightblue" d="M284.08,-59.5C274.92,-59.5 265.52,-59.5 256.48,-59.5"/>
<polygon fill="midnightblue" stroke="midnightblue" points="284.29,-63 294.29,-59.5 284.29,-56 284.29,-63"/>
</g>
<!-- Node6 -->
<g id="node6" class="node">
<title>Node6</title>
<g id="a_node6"><a xlink:href="group__zwave__rx__internals.html#ga5fb555f285dbe1b21ba750d0443476c8" target="_top" xlink:title="Initialize the Z&#45;Wave Rx component.">
<polygon fill="none" stroke="black" points="161,-6 161,-25 238,-25 238,-6 161,-6"/>
<text text-anchor="middle" x="199.5" y="-13" font-family="Helvetica,sans-Serif" font-size="10.00">zwave_rx_init</text>
</a>
</g>
</g>
<!-- Node5&#45;&gt;Node6 -->
<g id="edge6" class="edge">
<title>Node5&#45;&gt;Node6</title>
<path fill="none" stroke="midnightblue" d="M281.69,-15.5C266.89,-15.5 251.63,-15.5 238.38,-15.5"/>
<polygon fill="midnightblue" stroke="midnightblue" points="281.82,-19 291.82,-15.5 281.82,-12 281.82,-19"/>
</g>
<!-- Node7 -->
<g id="node7" class="node">
<title>Node7</title>
<g id="a_node7"><a xlink:href="group__zwave__rx__fixt.html#ga89a6db07ef29cb6ad8f8cdeec935b442" target="_top" xlink:title=" ">
<polygon fill="none" stroke="black" points="0,-6 0,-25 107,-25 107,-6 0,-6"/>
<text text-anchor="middle" x="53.5" y="-13" font-family="Helvetica,sans-Serif" font-size="10.00">zwave_rx_fixt_setup</text>
</a>
</g>
</g>
<!-- Node6&#45;&gt;Node7 -->
<g id="edge7" class="edge">
<title>Node6&#45;&gt;Node7</title>
<path fill="none" stroke="midnightblue" d="M150.37,-15.5C136.53,-15.5 121.35,-15.5 107.24,-15.5"/>
<polygon fill="midnightblue" stroke="midnightblue" points="150.67,-19 160.67,-15.5 150.67,-12 150.67,-19"/>
</g>
</g>
</svg>
