<?xml version="1.0" encoding="UTF-8" standalone="no"?>
<!DOCTYPE svg PUBLIC "-//W3C//DTD SVG 1.1//EN"
 "http://www.w3.org/Graphics/SVG/1.1/DTD/svg11.dtd">
<!-- Generated by graphviz version 2.43.0 (0)
 -->
<!-- Title: zwapi_log_to_file_enable Pages: 1 -->
<svg width="447pt" height="39pt"
 viewBox="0.00 0.00 447.00 39.00" xmlns="http://www.w3.org/2000/svg" xmlns:xlink="http://www.w3.org/1999/xlink">
<g id="graph0" class="graph" transform="scale(1 1) rotate(0) translate(4 35)">
<title>zwapi_log_to_file_enable</title>
<!-- Node1 -->
<g id="node1" class="node">
<title>Node1</title>
<g id="a_node1"><a xlink:title="Enable logging of serial data to a file.">
<polygon fill="#bfbfbf" stroke="black" points="0,-6 0,-25 125,-25 125,-6 0,-6"/>
<text text-anchor="middle" x="62.5" y="-13" font-family="Helvetica,sans-Serif" font-size="10.00">zwapi_log_to_file_enable</text>
</a>
</g>
</g>
<!-- Node2 -->
<g id="node2" class="node">
<title>Node2</title>
<g id="a_node2"><a xlink:href="zwapi__serial_8c.html#a9be54f19266fab28cce5d6b7cf65e3db" target="_top" xlink:title="Enable logging of serial data to a file.">
<polygon fill="none" stroke="black" points="161,-0.5 161,-30.5 263,-30.5 263,-0.5 161,-0.5"/>
<text text-anchor="start" x="169" y="-18.5" font-family="Helvetica,sans-Serif" font-size="10.00">zwapi_serial_log_to</text>
<text text-anchor="middle" x="212" y="-7.5" font-family="Helvetica,sans-Serif" font-size="10.00">_file_enable</text>
</a>
</g>
</g>
<!-- Node1&#45;&gt;Node2 -->
<g id="edge1" class="edge">
<title>Node1&#45;&gt;Node2</title>
<path fill="none" stroke="midnightblue" d="M125.2,-15.5C133.62,-15.5 142.25,-15.5 150.65,-15.5"/>
<polygon fill="midnightblue" stroke="midnightblue" points="150.74,-19 160.74,-15.5 150.74,-12 150.74,-19"/>
</g>
<!-- Node3 -->
<g id="node3" class="node">
<title>Node3</title>
<g id="a_node3"><a xlink:href="zwapi__serial_8c.html#a0accbbf7ddb7aeab10f5df1fe3df6642" target="_top" xlink:title=" ">
<polygon fill="none" stroke="black" points="299,-6 299,-25 439,-25 439,-6 299,-6"/>
<text text-anchor="middle" x="369" y="-13" font-family="Helvetica,sans-Serif" font-size="10.00">zwapi_serial_log_timestamp</text>
</a>
</g>
</g>
<!-- Node2&#45;&gt;Node3 -->
<g id="edge2" class="edge">
<title>Node2&#45;&gt;Node3</title>
<path fill="none" stroke="midnightblue" d="M263.32,-15.5C271.46,-15.5 280.05,-15.5 288.67,-15.5"/>
<polygon fill="midnightblue" stroke="midnightblue" points="288.77,-19 298.77,-15.5 288.77,-12 288.77,-19"/>
</g>
</g>
</svg>
