<?xml version="1.0" encoding="UTF-8" standalone="no"?>
<!DOCTYPE svg PUBLIC "-//W3C//DTD SVG 1.1//EN"
 "http://www.w3.org/Graphics/SVG/1.1/DTD/svg11.dtd">
<!-- Generated by graphviz version 2.43.0 (0)
 -->
<!-- Title: reset_s0_timers Pages: 1 -->
<svg width="237pt" height="46pt"
 viewBox="0.00 0.00 237.00 46.00" xmlns="http://www.w3.org/2000/svg" xmlns:xlink="http://www.w3.org/1999/xlink">
<g id="graph0" class="graph" transform="scale(1 1) rotate(0) translate(4 42)">
<title>reset_s0_timers</title>
<!-- Node1 -->
<g id="node1" class="node">
<title>Node1</title>
<g id="a_node1"><a xlink:title="Reset nonce timer.">
<polygon fill="#bfbfbf" stroke="black" points="0,-0.5 0,-19.5 86,-19.5 86,-0.5 0,-0.5"/>
<text text-anchor="middle" x="43" y="-7.5" font-family="Helvetica,sans-Serif" font-size="10.00">reset_s0_timers</text>
</a>
</g>
</g>
<!-- Node2 -->
<g id="node2" class="node">
<title>Node2</title>
<g id="a_node2"><a xlink:href="zwave__s0__transport_8c.html#a23cc9cf50d02cdaa152e984177674bf9" target="_top" xlink:title=" ">
<polygon fill="none" stroke="black" points="122,-0.5 122,-19.5 229,-19.5 229,-0.5 122,-0.5"/>
<text text-anchor="middle" x="175.5" y="-7.5" font-family="Helvetica,sans-Serif" font-size="10.00">nonce_timer_timeout</text>
</a>
</g>
</g>
<!-- Node1&#45;&gt;Node2 -->
<g id="edge1" class="edge">
<title>Node1&#45;&gt;Node2</title>
<path fill="none" stroke="midnightblue" d="M86.01,-10C94.15,-10 102.84,-10 111.49,-10"/>
<polygon fill="midnightblue" stroke="midnightblue" points="111.57,-13.5 121.57,-10 111.57,-6.5 111.57,-13.5"/>
</g>
<!-- Node2&#45;&gt;Node2 -->
<g id="edge2" class="edge">
<title>Node2&#45;&gt;Node2</title>
<path fill="none" stroke="midnightblue" d="M155.15,-19.76C145.26,-28.57 152.04,-38 175.5,-38 190.53,-38 198.71,-34.13 200.05,-29.03"/>
<polygon fill="midnightblue" stroke="midnightblue" points="203.17,-27.42 195.85,-19.76 196.79,-30.31 203.17,-27.42"/>
</g>
</g>
</svg>
