<?xml version="1.0" encoding="UTF-8" standalone="no"?>
<!DOCTYPE svg PUBLIC "-//W3C//DTD SVG 1.1//EN"
 "http://www.w3.org/Graphics/SVG/1.1/DTD/svg11.dtd">
<!-- Generated by graphviz version 2.43.0 (0)
 -->
<!-- Title: zwave_s2_create_new_network_keys Pages: 1 -->
<svg width="1759pt" height="541pt"
 viewBox="0.00 0.00 1759.00 541.00" xmlns="http://www.w3.org/2000/svg" xmlns:xlink="http://www.w3.org/1999/xlink">
<g id="graph0" class="graph" transform="scale(1 1) rotate(0) translate(4 537)">
<title>zwave_s2_create_new_network_keys</title>
<!-- Node1 -->
<g id="node1" class="node">
<title>Node1</title>
<g id="a_node1"><a xlink:title=" ">
<polygon fill="#bfbfbf" stroke="black" points="0,-264.5 0,-294.5 116,-294.5 116,-264.5 0,-264.5"/>
<text text-anchor="start" x="8" y="-282.5" font-family="Helvetica,sans-Serif" font-size="10.00">zwave_s2_create_new</text>
<text text-anchor="middle" x="58" y="-271.5" font-family="Helvetica,sans-Serif" font-size="10.00">_network_keys</text>
</a>
</g>
</g>
<!-- Node2 -->
<g id="node2" class="node">
<title>Node2</title>
<g id="a_node2"><a xlink:href="zwave__s2__keystore_8c.html#a31a90d54793018a56888b3d269bb62cc" target="_top" xlink:title=" ">
<polygon fill="none" stroke="black" points="152,-286.5 152,-316.5 267,-316.5 267,-286.5 152,-286.5"/>
<text text-anchor="start" x="160" y="-304.5" font-family="Helvetica,sans-Serif" font-size="10.00">keystore_network_key</text>
<text text-anchor="middle" x="209.5" y="-293.5" font-family="Helvetica,sans-Serif" font-size="10.00">_write</text>
</a>
</g>
</g>
<!-- Node1&#45;&gt;Node2 -->
<g id="edge1" class="edge">
<title>Node1&#45;&gt;Node2</title>
<path fill="none" stroke="midnightblue" d="M116.37,-287.94C124.57,-289.15 133.06,-290.4 141.42,-291.63"/>
<polygon fill="midnightblue" stroke="midnightblue" points="141.12,-295.12 151.53,-293.12 142.14,-288.2 141.12,-295.12"/>
</g>
<!-- Node6 -->
<g id="node6" class="node">
<title>Node6</title>
<g id="a_node6"><a xlink:href="zwave__s2__transport_8c.html#aeb95889ce5b21261e0052c260a60ffe3" target="_top" xlink:title=" ">
<polygon fill="none" stroke="black" points="158,-248 158,-267 261,-267 261,-248 158,-248"/>
<text text-anchor="middle" x="209.5" y="-255" font-family="Helvetica,sans-Serif" font-size="10.00">S2_get_hw_random</text>
</a>
</g>
</g>
<!-- Node1&#45;&gt;Node6 -->
<g id="edge5" class="edge">
<title>Node1&#45;&gt;Node6</title>
<path fill="none" stroke="midnightblue" d="M116.37,-271.06C126.62,-269.55 137.34,-267.97 147.68,-266.45"/>
<polygon fill="midnightblue" stroke="midnightblue" points="148.49,-269.87 157.87,-264.95 147.47,-262.94 148.49,-269.87"/>
</g>
<!-- Node3 -->
<g id="node3" class="node">
<title>Node3</title>
<g id="a_node3"><a xlink:href="group__zwave__s0__transport.html#ga0751a5b8e725df3e789789230b886395" target="_top" xlink:title="Set the S0 network key.">
<polygon fill="none" stroke="black" points="332,-292 332,-311 399,-311 399,-292 332,-292"/>
<text text-anchor="middle" x="365.5" y="-299" font-family="Helvetica,sans-Serif" font-size="10.00">s0_set_key</text>
</a>
</g>
</g>
<!-- Node2&#45;&gt;Node3 -->
<g id="edge2" class="edge">
<title>Node2&#45;&gt;Node3</title>
<path fill="none" stroke="midnightblue" d="M267.41,-301.5C285.43,-301.5 305.03,-301.5 321.87,-301.5"/>
<polygon fill="midnightblue" stroke="midnightblue" points="321.96,-305 331.96,-301.5 321.96,-298 321.96,-305"/>
</g>
<!-- Node5 -->
<g id="node5" class="node">
<title>Node5</title>
<g id="a_node5"><a xlink:href="group__zwave__s2__keystore.html#ga42cbe7b3856c32fcde78b52c3b0be2ae" target="_top" xlink:title="Get the set of the currently assigned keys.">
<polygon fill="none" stroke="black" points="304.5,-330.5 304.5,-360.5 426.5,-360.5 426.5,-330.5 304.5,-330.5"/>
<text text-anchor="start" x="312.5" y="-348.5" font-family="Helvetica,sans-Serif" font-size="10.00">zwave_s2_keystore_get</text>
<text text-anchor="middle" x="365.5" y="-337.5" font-family="Helvetica,sans-Serif" font-size="10.00">_assigned_keys</text>
</a>
</g>
</g>
<!-- Node2&#45;&gt;Node5 -->
<g id="edge4" class="edge">
<title>Node2&#45;&gt;Node5</title>
<path fill="none" stroke="midnightblue" d="M263.07,-316.52C275.64,-320.11 289.17,-323.98 302.13,-327.68"/>
<polygon fill="midnightblue" stroke="midnightblue" points="301.33,-331.09 311.91,-330.47 303.25,-324.36 301.33,-331.09"/>
</g>
<!-- Node4 -->
<g id="node4" class="node">
<title>Node4</title>
<g id="a_node4"><a xlink:href="zwave__s0__transport_8c.html#a81a1edfa8dd156b07bbe49d8c85095bf" target="_top" xlink:title=" ">
<polygon fill="none" stroke="black" points="487,-292 487,-311 557,-311 557,-292 487,-292"/>
<text text-anchor="middle" x="522" y="-299" font-family="Helvetica,sans-Serif" font-size="10.00">aes_encrypt</text>
</a>
</g>
</g>
<!-- Node3&#45;&gt;Node4 -->
<g id="edge3" class="edge">
<title>Node3&#45;&gt;Node4</title>
<path fill="none" stroke="midnightblue" d="M399.27,-301.5C421.82,-301.5 452.05,-301.5 476.74,-301.5"/>
<polygon fill="midnightblue" stroke="midnightblue" points="476.94,-305 486.94,-301.5 476.94,-298 476.94,-305"/>
</g>
<!-- Node7 -->
<g id="node7" class="node">
<title>Node7</title>
<g id="a_node7"><a xlink:href="group__ZWAPI__BASIS.html#gab4cbb3aff7f05e54065f56a34a67a707" target="_top" xlink:title="Generate an array of random bytes using the random number generator (RNG) on the Z&#45;Wave module.">
<polygon fill="none" stroke="black" points="303,-248 303,-267 428,-267 428,-248 303,-248"/>
<text text-anchor="middle" x="365.5" y="-255" font-family="Helvetica,sans-Serif" font-size="10.00">zwapi_get_random_word</text>
</a>
</g>
</g>
<!-- Node6&#45;&gt;Node7 -->
<g id="edge6" class="edge">
<title>Node6&#45;&gt;Node7</title>
<path fill="none" stroke="midnightblue" d="M261.35,-257.5C271.44,-257.5 282.22,-257.5 292.85,-257.5"/>
<polygon fill="midnightblue" stroke="midnightblue" points="292.98,-261 302.98,-257.5 292.98,-254 292.98,-261"/>
</g>
<!-- Node8 -->
<g id="node8" class="node">
<title>Node8</title>
<g id="a_node8"><a xlink:href="zwapi__init_8c.html#a5ec89d5817b8ce00454fce891ae8400e" target="_top" xlink:title="Send a command to the Z&#45;Wave module and waits for an ACK.">
<polygon fill="none" stroke="black" points="464,-242.5 464,-272.5 580,-272.5 580,-242.5 464,-242.5"/>
<text text-anchor="start" x="472" y="-260.5" font-family="Helvetica,sans-Serif" font-size="10.00">zwapi_send_command</text>
<text text-anchor="middle" x="522" y="-249.5" font-family="Helvetica,sans-Serif" font-size="10.00">_with_response</text>
</a>
</g>
</g>
<!-- Node7&#45;&gt;Node8 -->
<g id="edge7" class="edge">
<title>Node7&#45;&gt;Node8</title>
<path fill="none" stroke="midnightblue" d="M428.01,-257.5C436.38,-257.5 445.02,-257.5 453.49,-257.5"/>
<polygon fill="midnightblue" stroke="midnightblue" points="453.72,-261 463.72,-257.5 453.72,-254 453.72,-261"/>
</g>
<!-- Node9 -->
<g id="node9" class="node">
<title>Node9</title>
<g id="a_node9"><a xlink:href="zwapi__session_8c.html#abf613a2ad7710ac80fb239ba55e621d7" target="_top" xlink:title="Send data frame to Z&#45;Wave chip via serial API, wait for ACK and a RES frame.">
<polygon fill="none" stroke="black" points="634.5,-264.5 634.5,-294.5 749.5,-294.5 749.5,-264.5 634.5,-264.5"/>
<text text-anchor="start" x="642.5" y="-282.5" font-family="Helvetica,sans-Serif" font-size="10.00">zwapi_session_send</text>
<text text-anchor="middle" x="692" y="-271.5" font-family="Helvetica,sans-Serif" font-size="10.00">_frame_with_response</text>
</a>
</g>
</g>
<!-- Node8&#45;&gt;Node9 -->
<g id="edge8" class="edge">
<title>Node8&#45;&gt;Node9</title>
<path fill="none" stroke="midnightblue" d="M580.35,-265.01C594.56,-266.87 609.9,-268.88 624.51,-270.79"/>
<polygon fill="midnightblue" stroke="midnightblue" points="624.11,-274.27 634.48,-272.1 625.02,-267.33 624.11,-274.27"/>
</g>
<!-- Node36 -->
<g id="node36" class="node">
<title>Node36</title>
<g id="a_node36"><a xlink:href="group__ZWAPI__INIT.html#ga0a823074baec69913d0e8590b46e4e33" target="_top" xlink:title="Check if a command is supported by the connected Z&#45;Wave module.">
<polygon fill="none" stroke="black" points="616,-226 616,-245 768,-245 768,-226 616,-226"/>
<text text-anchor="middle" x="692" y="-233" font-family="Helvetica,sans-Serif" font-size="10.00">zwapi_support_command_func</text>
</a>
</g>
</g>
<!-- Node8&#45;&gt;Node36 -->
<g id="edge53" class="edge">
<title>Node8&#45;&gt;Node36</title>
<path fill="none" stroke="midnightblue" d="M580.35,-249.99C589.28,-248.82 598.67,-247.59 608.03,-246.36"/>
<polygon fill="midnightblue" stroke="midnightblue" points="608.71,-249.81 618.17,-245.04 607.8,-242.87 608.71,-249.81"/>
</g>
<!-- Node10 -->
<g id="node10" class="node">
<title>Node10</title>
<g id="a_node10"><a xlink:href="zwapi__connection_8c.html#a91ce3acd7eff779496789637a9c27f40" target="_top" xlink:title="Provides the data of the serial buffer for the last received frame.">
<polygon fill="none" stroke="black" points="1299.5,-502.5 1299.5,-532.5 1412.5,-532.5 1412.5,-502.5 1299.5,-502.5"/>
<text text-anchor="start" x="1307.5" y="-520.5" font-family="Helvetica,sans-Serif" font-size="10.00">zwapi_connection_get</text>
<text text-anchor="middle" x="1356" y="-509.5" font-family="Helvetica,sans-Serif" font-size="10.00">_last_rx_frame</text>
</a>
</g>
</g>
<!-- Node9&#45;&gt;Node10 -->
<g id="edge9" class="edge">
<title>Node9&#45;&gt;Node10</title>
<path fill="none" stroke="midnightblue" d="M706.14,-294.76C725.47,-316.27 763.66,-355.36 804,-377.5 964.51,-465.61 1181.74,-499.54 1289.2,-511.54"/>
<polygon fill="midnightblue" stroke="midnightblue" points="1288.93,-515.03 1299.25,-512.64 1289.68,-508.07 1288.93,-515.03"/>
</g>
<!-- Node11 -->
<g id="node11" class="node">
<title>Node11</title>
<g id="a_node11"><a xlink:href="zwapi__connection_8c.html#a86b069d152a5c2f8ac95774a688dff48" target="_top" xlink:title="make the zwapi_connection_status types human readable.">
<polygon fill="none" stroke="black" points="804,-176.5 804,-206.5 931,-206.5 931,-176.5 804,-176.5"/>
<text text-anchor="start" x="812" y="-194.5" font-family="Helvetica,sans-Serif" font-size="10.00">zwapi_connection_status</text>
<text text-anchor="middle" x="867.5" y="-183.5" font-family="Helvetica,sans-Serif" font-size="10.00">_to_string</text>
</a>
</g>
</g>
<!-- Node9&#45;&gt;Node11 -->
<g id="edge10" class="edge">
<title>Node9&#45;&gt;Node11</title>
<path fill="none" stroke="midnightblue" d="M747.46,-264.39C754.58,-261.54 761.61,-258.26 768,-254.5 786.71,-243.49 786.02,-233.66 804,-221.5 809.36,-217.87 815.24,-214.44 821.16,-211.29"/>
<polygon fill="midnightblue" stroke="midnightblue" points="823.12,-214.22 830.46,-206.57 819.96,-207.98 823.12,-214.22"/>
</g>
<!-- Node12 -->
<g id="node12" class="node">
<title>Node12</title>
<g id="a_node12"><a xlink:href="zwapi__session_8c.html#a1f2b3e7c2dcf31708ef8d333747352ba" target="_top" xlink:title=" ">
<polygon fill="none" stroke="black" points="1129.5,-409.5 1129.5,-439.5 1252.5,-439.5 1252.5,-409.5 1129.5,-409.5"/>
<text text-anchor="start" x="1137.5" y="-427.5" font-family="Helvetica,sans-Serif" font-size="10.00">zwapi_session_enqueue</text>
<text text-anchor="middle" x="1191" y="-416.5" font-family="Helvetica,sans-Serif" font-size="10.00">_frame</text>
</a>
</g>
</g>
<!-- Node9&#45;&gt;Node12 -->
<g id="edge11" class="edge">
<title>Node9&#45;&gt;Node12</title>
<path fill="none" stroke="midnightblue" d="M719.18,-294.56C766.78,-321.14 871.41,-375.99 967,-401.5 1016.89,-414.82 1074.96,-420.51 1119.33,-422.9"/>
<polygon fill="midnightblue" stroke="midnightblue" points="1119.28,-426.4 1129.44,-423.4 1119.63,-419.41 1119.28,-426.4"/>
</g>
<!-- Node15 -->
<g id="node15" class="node">
<title>Node15</title>
<g id="a_node15"><a xlink:href="zwapi__session_8c.html#a32577f3500efc3d937dbc68eebb3c370" target="_top" xlink:title="Send data frame to Z&#45;Wave chip via serial port and wait for ACK.">
<polygon fill="none" stroke="black" points="814,-264.5 814,-294.5 921,-294.5 921,-264.5 814,-264.5"/>
<text text-anchor="start" x="822" y="-282.5" font-family="Helvetica,sans-Serif" font-size="10.00">zwapi_session_send</text>
<text text-anchor="middle" x="867.5" y="-271.5" font-family="Helvetica,sans-Serif" font-size="10.00">_frame</text>
</a>
</g>
</g>
<!-- Node9&#45;&gt;Node15 -->
<g id="edge15" class="edge">
<title>Node9&#45;&gt;Node15</title>
<path fill="none" stroke="midnightblue" d="M749.81,-279.5C767.08,-279.5 786.15,-279.5 803.78,-279.5"/>
<polygon fill="midnightblue" stroke="midnightblue" points="803.97,-283 813.97,-279.5 803.97,-276 803.97,-283"/>
</g>
<!-- Node35 -->
<g id="node35" class="node">
<title>Node35</title>
<g id="a_node35"><a xlink:href="zwapi__session_8c.html#a9d30e1677f02d7730ab035aa9333235d" target="_top" xlink:title=" ">
<polygon fill="none" stroke="black" points="976.5,-163.5 976.5,-193.5 1080.5,-193.5 1080.5,-163.5 976.5,-163.5"/>
<text text-anchor="start" x="984.5" y="-181.5" font-family="Helvetica,sans-Serif" font-size="10.00">zwapi_session_wait</text>
<text text-anchor="middle" x="1028.5" y="-170.5" font-family="Helvetica,sans-Serif" font-size="10.00">_for_response</text>
</a>
</g>
</g>
<!-- Node9&#45;&gt;Node35 -->
<g id="edge52" class="edge">
<title>Node9&#45;&gt;Node35</title>
<path fill="none" stroke="midnightblue" d="M749.75,-266C798.27,-254.03 869.76,-235.41 931,-215.5 947.53,-210.12 965.37,-203.52 981.17,-197.38"/>
<polygon fill="midnightblue" stroke="midnightblue" points="982.67,-200.55 990.7,-193.64 980.12,-194.03 982.67,-200.55"/>
</g>
<!-- Node12&#45;&gt;Node10 -->
<g id="edge12" class="edge">
<title>Node12&#45;&gt;Node10</title>
<path fill="none" stroke="midnightblue" d="M1211.04,-439.71C1230.53,-454.77 1262.13,-477.8 1292,-493.5 1295.25,-495.21 1298.64,-496.86 1302.1,-498.44"/>
<polygon fill="midnightblue" stroke="midnightblue" points="1300.79,-501.68 1311.36,-502.45 1303.57,-495.26 1300.79,-501.68"/>
</g>
<!-- Node13 -->
<g id="node13" class="node">
<title>Node13</title>
<g id="a_node13"><a xlink:href="zwapi__session_8c.html#ad7bac697ee2388b38ed3777b5a3862bc" target="_top" xlink:title=" ">
<polygon fill="none" stroke="black" points="1299.5,-453.5 1299.5,-483.5 1412.5,-483.5 1412.5,-453.5 1299.5,-453.5"/>
<text text-anchor="start" x="1307.5" y="-471.5" font-family="Helvetica,sans-Serif" font-size="10.00">zwapi_session_get_rx</text>
<text text-anchor="middle" x="1356" y="-460.5" font-family="Helvetica,sans-Serif" font-size="10.00">_queue_length</text>
</a>
</g>
</g>
<!-- Node12&#45;&gt;Node13 -->
<g id="edge13" class="edge">
<title>Node12&#45;&gt;Node13</title>
<path fill="none" stroke="midnightblue" d="M1247.64,-439.52C1261.07,-443.15 1275.55,-447.05 1289.39,-450.79"/>
<polygon fill="midnightblue" stroke="midnightblue" points="1288.77,-454.25 1299.33,-453.47 1290.59,-447.49 1288.77,-454.25"/>
</g>
<!-- Node14 -->
<g id="node14" class="node">
<title>Node14</title>
<g id="a_node14"><a xlink:href="group__ZWAPI__INIT.html#ga438a74c9752197d20d377874d5a61694" target="_top" xlink:title="Returns the pointer to the callbacks registered at init.">
<polygon fill="none" stroke="black" points="1292,-415 1292,-434 1420,-434 1420,-415 1292,-415"/>
<text text-anchor="middle" x="1356" y="-422" font-family="Helvetica,sans-Serif" font-size="10.00">zwave_api_get_callbacks</text>
</a>
</g>
</g>
<!-- Node12&#45;&gt;Node14 -->
<g id="edge14" class="edge">
<title>Node12&#45;&gt;Node14</title>
<path fill="none" stroke="midnightblue" d="M1252.7,-424.5C1262.17,-424.5 1272.04,-424.5 1281.76,-424.5"/>
<polygon fill="midnightblue" stroke="midnightblue" points="1281.8,-428 1291.8,-424.5 1281.8,-421 1281.8,-428"/>
</g>
<!-- Node15&#45;&gt;Node12 -->
<g id="edge33" class="edge">
<title>Node15&#45;&gt;Node12</title>
<path fill="none" stroke="midnightblue" d="M881.21,-294.69C898.56,-314.43 931.59,-348.62 967,-367.5 1014.54,-392.84 1073.84,-407.3 1119.35,-415.31"/>
<polygon fill="midnightblue" stroke="midnightblue" points="1118.98,-418.79 1129.42,-417.02 1120.15,-411.89 1118.98,-418.79"/>
</g>
<!-- Node16 -->
<g id="node16" class="node">
<title>Node16</title>
<g id="a_node16"><a xlink:href="zwapi__connection_8c.html#a13b6e6b6c56844f4344fabe490bc5eac" target="_top" xlink:title="Closes and re&#45;initializes the zwapi_connection to the Z&#45;Wave module.">
<polygon fill="none" stroke="black" points="1127,-251 1127,-270 1255,-270 1255,-251 1127,-251"/>
<text text-anchor="middle" x="1191" y="-258" font-family="Helvetica,sans-Serif" font-size="10.00">zwapi_connection_restart</text>
</a>
</g>
</g>
<!-- Node15&#45;&gt;Node16 -->
<g id="edge16" class="edge">
<title>Node15&#45;&gt;Node16</title>
<path fill="none" stroke="midnightblue" d="M921.23,-276.38C974.44,-273.24 1057.05,-268.36 1116.64,-264.84"/>
<polygon fill="midnightblue" stroke="midnightblue" points="1116.97,-268.32 1126.74,-264.24 1116.55,-261.33 1116.97,-268.32"/>
</g>
<!-- Node26 -->
<g id="node26" class="node">
<title>Node26</title>
<g id="a_node26"><a xlink:href="zwapi__timestamp_8c.html#a6ebe1ddfe689bce6ee72fc12f708aece" target="_top" xlink:title="get the timestamp">
<polygon fill="none" stroke="black" points="1300,-213 1300,-232 1412,-232 1412,-213 1300,-213"/>
<text text-anchor="middle" x="1356" y="-220" font-family="Helvetica,sans-Serif" font-size="10.00">zwapi_timestamp_get</text>
</a>
</g>
</g>
<!-- Node15&#45;&gt;Node26 -->
<g id="edge51" class="edge">
<title>Node15&#45;&gt;Node26</title>
<path fill="none" stroke="midnightblue" d="M921.12,-270.72C935.94,-268.31 952.09,-265.74 967,-263.5 1037.55,-252.89 1055.09,-249.34 1126,-241.5 1181.11,-235.41 1243.88,-230.33 1289.75,-226.96"/>
<polygon fill="midnightblue" stroke="midnightblue" points="1290.14,-230.44 1299.86,-226.23 1289.63,-223.46 1290.14,-230.44"/>
</g>
<!-- Node27 -->
<g id="node27" class="node">
<title>Node27</title>
<g id="a_node27"><a xlink:href="zwapi__connection_8c.html#af47f8cbd93974d5c91d659fdeb7a870b" target="_top" xlink:title="Transmit a frame via serial port by adding SOF, Len, Type, cmd and Checksum.">
<polygon fill="none" stroke="black" points="1137,-289 1137,-308 1245,-308 1245,-289 1137,-289"/>
<text text-anchor="middle" x="1191" y="-296" font-family="Helvetica,sans-Serif" font-size="10.00">zwapi_connection_tx</text>
</a>
</g>
</g>
<!-- Node15&#45;&gt;Node27 -->
<g id="edge27" class="edge">
<title>Node15&#45;&gt;Node27</title>
<path fill="none" stroke="midnightblue" d="M921.23,-282.62C977.56,-285.95 1066.83,-291.22 1126.86,-294.77"/>
<polygon fill="midnightblue" stroke="midnightblue" points="1126.79,-298.27 1136.97,-295.37 1127.2,-291.28 1126.79,-298.27"/>
</g>
<!-- Node29 -->
<g id="node29" class="node">
<title>Node29</title>
<g id="a_node29"><a xlink:href="zwapi__timestamp_8c.html#a3925f2732e344672608db38351236688" target="_top" xlink:title="compare the current timestamp with the timestamp passed as an argument">
<polygon fill="none" stroke="black" points="1303,-0.5 1303,-30.5 1409,-30.5 1409,-0.5 1303,-0.5"/>
<text text-anchor="start" x="1311" y="-18.5" font-family="Helvetica,sans-Serif" font-size="10.00">zwapi_is_timestamp</text>
<text text-anchor="middle" x="1356" y="-7.5" font-family="Helvetica,sans-Serif" font-size="10.00">_elapsed</text>
</a>
</g>
</g>
<!-- Node15&#45;&gt;Node29 -->
<g id="edge32" class="edge">
<title>Node15&#45;&gt;Node29</title>
<path fill="none" stroke="midnightblue" d="M885.33,-264.46C898.63,-252.08 917.19,-233.68 931,-215.5 950.28,-190.13 944.87,-176.43 967,-153.5 1024.98,-93.44 1047.96,-83.14 1126,-53.5 1180.05,-32.97 1245.45,-23.52 1292.49,-19.17"/>
<polygon fill="midnightblue" stroke="midnightblue" points="1292.88,-22.65 1302.54,-18.3 1292.27,-15.68 1292.88,-22.65"/>
</g>
<!-- Node30 -->
<g id="node30" class="node">
<title>Node30</title>
<g id="a_node30"><a xlink:href="zwapi__session_8c.html#a2875fbfa250b7b25ecb6bc4f0b032cb8" target="_top" xlink:title="Loads the received frames from the serial device into the zwapi_session receive queue.">
<polygon fill="none" stroke="black" points="967,-327.5 967,-357.5 1090,-357.5 1090,-327.5 967,-327.5"/>
<text text-anchor="start" x="975" y="-345.5" font-family="Helvetica,sans-Serif" font-size="10.00">zwapi_session_enqueue</text>
<text text-anchor="middle" x="1028.5" y="-334.5" font-family="Helvetica,sans-Serif" font-size="10.00">_rx_frames</text>
</a>
</g>
</g>
<!-- Node15&#45;&gt;Node30 -->
<g id="edge34" class="edge">
<title>Node15&#45;&gt;Node30</title>
<path fill="none" stroke="midnightblue" d="M906.58,-294.59C928.63,-303.32 956.57,-314.39 980.03,-323.69"/>
<polygon fill="midnightblue" stroke="midnightblue" points="978.86,-326.99 989.45,-327.42 981.44,-320.49 978.86,-326.99"/>
</g>
<!-- Node15&#45;&gt;Node35 -->
<g id="edge47" class="edge">
<title>Node15&#45;&gt;Node35</title>
<path fill="none" stroke="midnightblue" d="M906.28,-264.39C914.8,-260.17 923.52,-255.17 931,-249.5 950.32,-234.85 947.77,-223.28 967,-208.5 971.7,-204.88 976.91,-201.53 982.24,-198.46"/>
<polygon fill="midnightblue" stroke="midnightblue" points="984.12,-201.43 991.26,-193.6 980.8,-195.27 984.12,-201.43"/>
</g>
<!-- Node17 -->
<g id="node17" class="node">
<title>Node17</title>
<g id="a_node17"><a xlink:href="zwapi__serial_8c.html#a3f2b3bd848e9fe0e6e137482bed06b46" target="_top" xlink:title="Flush the serial output if using buffered output.">
<polygon fill="none" stroke="black" points="1307.5,-251.5 1307.5,-281.5 1404.5,-281.5 1404.5,-251.5 1307.5,-251.5"/>
<text text-anchor="start" x="1315.5" y="-269.5" font-family="Helvetica,sans-Serif" font-size="10.00">zwapi_serial_drain</text>
<text text-anchor="middle" x="1356" y="-258.5" font-family="Helvetica,sans-Serif" font-size="10.00">_buffer</text>
</a>
</g>
</g>
<!-- Node16&#45;&gt;Node17 -->
<g id="edge17" class="edge">
<title>Node16&#45;&gt;Node17</title>
<path fill="none" stroke="midnightblue" d="M1255.02,-262.82C1268.87,-263.33 1283.47,-263.87 1297.11,-264.37"/>
<polygon fill="midnightblue" stroke="midnightblue" points="1297.2,-267.87 1307.32,-264.74 1297.45,-260.88 1297.2,-267.87"/>
</g>
<!-- Node18 -->
<g id="node18" class="node">
<title>Node18</title>
<g id="a_node18"><a xlink:href="zwapi__serial_8c.html#a7762d0358e9f398b92edbfd6a550984a" target="_top" xlink:title="Write a byte to serial port device.">
<polygon fill="none" stroke="black" points="1299.5,-175 1299.5,-194 1412.5,-194 1412.5,-175 1299.5,-175"/>
<text text-anchor="middle" x="1356" y="-182" font-family="Helvetica,sans-Serif" font-size="10.00">zwapi_serial_put_byte</text>
</a>
</g>
</g>
<!-- Node16&#45;&gt;Node18 -->
<g id="edge18" class="edge">
<title>Node16&#45;&gt;Node18</title>
<path fill="none" stroke="midnightblue" d="M1206.37,-250.92C1225.33,-238.62 1260.05,-217.22 1292,-203.5 1297.31,-201.22 1302.99,-199.1 1308.67,-197.16"/>
<polygon fill="midnightblue" stroke="midnightblue" points="1309.75,-200.49 1318.19,-194.08 1307.6,-193.83 1309.75,-200.49"/>
</g>
<!-- Node22 -->
<g id="node22" class="node">
<title>Node22</title>
<g id="a_node22"><a xlink:href="zwapi__serial_8c.html#aadf3397d0bd2c1657d4b1a373599acfe" target="_top" xlink:title="Closes and re&#45;initialize the last open serial port.">
<polygon fill="none" stroke="black" points="1304,-339 1304,-358 1408,-358 1408,-339 1304,-339"/>
<text text-anchor="middle" x="1356" y="-346" font-family="Helvetica,sans-Serif" font-size="10.00">zwapi_serial_restart</text>
</a>
</g>
</g>
<!-- Node16&#45;&gt;Node22 -->
<g id="edge22" class="edge">
<title>Node16&#45;&gt;Node22</title>
<path fill="none" stroke="midnightblue" d="M1231.33,-270.01C1239.66,-272.62 1248.27,-275.78 1256,-279.5 1285.96,-293.92 1316.82,-316.98 1335.95,-332.42"/>
<polygon fill="midnightblue" stroke="midnightblue" points="1333.92,-335.28 1343.87,-338.92 1338.36,-329.87 1333.92,-335.28"/>
</g>
<!-- Node16&#45;&gt;Node26 -->
<g id="edge26" class="edge">
<title>Node16&#45;&gt;Node26</title>
<path fill="none" stroke="midnightblue" d="M1233.13,-250.91C1254.74,-245.87 1281.41,-239.66 1304.29,-234.32"/>
<polygon fill="midnightblue" stroke="midnightblue" points="1305.22,-237.7 1314.16,-232.02 1303.63,-230.88 1305.22,-237.7"/>
</g>
<!-- Node19 -->
<g id="node19" class="node">
<title>Node19</title>
<g id="a_node19"><a xlink:href="zwapi__serial_8c.html#af9054824651df422bab5076d16a80fda" target="_top" xlink:title="Writes the content of a buffer to the serial port device.">
<polygon fill="none" stroke="black" points="1456,-176 1456,-195 1575,-195 1575,-176 1456,-176"/>
<text text-anchor="middle" x="1515.5" y="-183" font-family="Helvetica,sans-Serif" font-size="10.00">zwapi_serial_put_buffer</text>
</a>
</g>
</g>
<!-- Node18&#45;&gt;Node19 -->
<g id="edge19" class="edge">
<title>Node18&#45;&gt;Node19</title>
<path fill="none" stroke="midnightblue" d="M1412.53,-184.85C1423.24,-184.92 1434.59,-184.99 1445.66,-185.06"/>
<polygon fill="midnightblue" stroke="midnightblue" points="1445.71,-188.56 1455.74,-185.13 1445.76,-181.56 1445.71,-188.56"/>
</g>
<!-- Node20 -->
<g id="node20" class="node">
<title>Node20</title>
<g id="a_node20"><a xlink:href="zwapi__serial_8c.html#a0accbbf7ddb7aeab10f5df1fe3df6642" target="_top" xlink:title=" ">
<polygon fill="none" stroke="black" points="1611,-133 1611,-152 1751,-152 1751,-133 1611,-133"/>
<text text-anchor="middle" x="1681" y="-140" font-family="Helvetica,sans-Serif" font-size="10.00">zwapi_serial_log_timestamp</text>
</a>
</g>
</g>
<!-- Node19&#45;&gt;Node20 -->
<g id="edge20" class="edge">
<title>Node19&#45;&gt;Node20</title>
<path fill="none" stroke="midnightblue" d="M1552.79,-175.96C1576.71,-169.67 1608.24,-161.37 1633.93,-154.62"/>
<polygon fill="midnightblue" stroke="midnightblue" points="1635.03,-157.94 1643.82,-152.02 1633.25,-151.18 1635.03,-157.94"/>
</g>
<!-- Node21 -->
<g id="node21" class="node">
<title>Node21</title>
<g id="a_node21"><a xlink:href="zwapi__serial_8c.html#abf18afb71e14daaf65d937149ef1639f" target="_top" xlink:title="Test if a is less than b + ms.">
<polygon fill="none" stroke="black" points="1627.5,-171.5 1627.5,-201.5 1734.5,-201.5 1734.5,-171.5 1627.5,-171.5"/>
<text text-anchor="start" x="1635.5" y="-189.5" font-family="Helvetica,sans-Serif" font-size="10.00">zwapi_serial_timeval</text>
<text text-anchor="middle" x="1681" y="-178.5" font-family="Helvetica,sans-Serif" font-size="10.00">_a_lt_b_milis</text>
</a>
</g>
</g>
<!-- Node19&#45;&gt;Node21 -->
<g id="edge21" class="edge">
<title>Node19&#45;&gt;Node21</title>
<path fill="none" stroke="midnightblue" d="M1575.07,-185.86C1588.65,-185.94 1603.16,-186.03 1616.92,-186.11"/>
<polygon fill="midnightblue" stroke="midnightblue" points="1617.26,-189.62 1627.28,-186.18 1617.3,-182.62 1617.26,-189.62"/>
</g>
<!-- Node23 -->
<g id="node23" class="node">
<title>Node23</title>
<g id="a_node23"><a xlink:href="zwapi__serial_8c.html#aae586785021ac9a605cd77651429f0c9" target="_top" xlink:title="De&#45;Initialize the serial port.">
<polygon fill="none" stroke="black" points="1466,-358 1466,-377 1565,-377 1565,-358 1466,-358"/>
<text text-anchor="middle" x="1515.5" y="-365" font-family="Helvetica,sans-Serif" font-size="10.00">zwapi_serial_close</text>
</a>
</g>
</g>
<!-- Node22&#45;&gt;Node23 -->
<g id="edge23" class="edge">
<title>Node22&#45;&gt;Node23</title>
<path fill="none" stroke="midnightblue" d="M1408.14,-354.67C1423.31,-356.5 1440.06,-358.52 1455.68,-360.4"/>
<polygon fill="midnightblue" stroke="midnightblue" points="1455.42,-363.9 1465.76,-361.62 1456.25,-356.95 1455.42,-363.9"/>
</g>
<!-- Node24 -->
<g id="node24" class="node">
<title>Node24</title>
<g id="a_node24"><a xlink:href="zwapi__serial_8c.html#a07b09de97f4932d882fc77e191c44638" target="_top" xlink:title="Initialize the serial port to 115200 BAUD 8N1.">
<polygon fill="none" stroke="black" points="1471,-320 1471,-339 1560,-339 1560,-320 1471,-320"/>
<text text-anchor="middle" x="1515.5" y="-327" font-family="Helvetica,sans-Serif" font-size="10.00">zwapi_serial_init</text>
</a>
</g>
</g>
<!-- Node22&#45;&gt;Node24 -->
<g id="edge24" class="edge">
<title>Node22&#45;&gt;Node24</title>
<path fill="none" stroke="midnightblue" d="M1408.14,-342.33C1424.87,-340.31 1443.51,-338.06 1460.46,-336.02"/>
<polygon fill="midnightblue" stroke="midnightblue" points="1461.25,-339.45 1470.76,-334.78 1460.41,-332.5 1461.25,-339.45"/>
</g>
<!-- Node25 -->
<g id="node25" class="node">
<title>Node25</title>
<g id="a_node25"><a xlink:href="zwapi__serial_8c.html#aefeac5909b0bf6411db1492f69c3bc68" target="_top" xlink:title=" ">
<polygon fill="none" stroke="black" points="1621.5,-320 1621.5,-339 1740.5,-339 1740.5,-320 1621.5,-320"/>
<text text-anchor="middle" x="1681" y="-327" font-family="Helvetica,sans-Serif" font-size="10.00">zwapi_open_serial_port</text>
</a>
</g>
</g>
<!-- Node24&#45;&gt;Node25 -->
<g id="edge25" class="edge">
<title>Node24&#45;&gt;Node25</title>
<path fill="none" stroke="midnightblue" d="M1560.31,-329.5C1575.97,-329.5 1594.01,-329.5 1611.26,-329.5"/>
<polygon fill="midnightblue" stroke="midnightblue" points="1611.3,-333 1621.3,-329.5 1611.3,-326 1611.3,-333"/>
</g>
<!-- Node27&#45;&gt;Node17 -->
<g id="edge29" class="edge">
<title>Node27&#45;&gt;Node17</title>
<path fill="none" stroke="midnightblue" d="M1240.46,-288.99C1258.36,-285.47 1278.82,-281.46 1297.44,-277.8"/>
<polygon fill="midnightblue" stroke="midnightblue" points="1298.15,-281.23 1307.28,-275.87 1296.8,-274.36 1298.15,-281.23"/>
</g>
<!-- Node27&#45;&gt;Node19 -->
<g id="edge30" class="edge">
<title>Node27&#45;&gt;Node19</title>
<path fill="none" stroke="midnightblue" d="M1245.42,-307.98C1293.44,-313.95 1364.72,-316.29 1420,-290.5 1459.44,-272.1 1489.61,-228.76 1504.41,-203.9"/>
<polygon fill="midnightblue" stroke="midnightblue" points="1507.53,-205.49 1509.47,-195.07 1501.46,-202 1507.53,-205.49"/>
</g>
<!-- Node27&#45;&gt;Node26 -->
<g id="edge31" class="edge">
<title>Node27&#45;&gt;Node26</title>
<path fill="none" stroke="midnightblue" d="M1235.67,-288.9C1242.74,-286.41 1249.78,-283.32 1256,-279.5 1275.83,-267.33 1272.2,-253.71 1292,-241.5 1295.4,-239.4 1299.05,-237.52 1302.82,-235.84"/>
<polygon fill="midnightblue" stroke="midnightblue" points="1304.34,-239 1312.34,-232.05 1301.76,-232.49 1304.34,-239"/>
</g>
<!-- Node28 -->
<g id="node28" class="node">
<title>Node28</title>
<g id="a_node28"><a xlink:href="zwapi__connection_8c.html#a96d24d537c5b8d6aa0aa6a7638ba2f09" target="_top" xlink:title=" ">
<polygon fill="none" stroke="black" points="1298.5,-377 1298.5,-396 1413.5,-396 1413.5,-377 1298.5,-377"/>
<text text-anchor="middle" x="1356" y="-384" font-family="Helvetica,sans-Serif" font-size="10.00">zwapi_frame_to_string</text>
</a>
</g>
</g>
<!-- Node27&#45;&gt;Node28 -->
<g id="edge28" class="edge">
<title>Node27&#45;&gt;Node28</title>
<path fill="none" stroke="midnightblue" d="M1203.27,-308.05C1221.06,-322.7 1257.22,-350.76 1292,-367.5 1296.64,-369.73 1301.6,-371.77 1306.63,-373.61"/>
<polygon fill="midnightblue" stroke="midnightblue" points="1305.71,-376.99 1316.3,-376.9 1307.96,-370.37 1305.71,-376.99"/>
</g>
<!-- Node30&#45;&gt;Node12 -->
<g id="edge46" class="edge">
<title>Node30&#45;&gt;Node12</title>
<path fill="none" stroke="midnightblue" d="M1060.34,-357.65C1069.86,-362.37 1080.38,-367.62 1090,-372.5 1110.6,-382.96 1133.46,-394.83 1152.13,-404.59"/>
<polygon fill="midnightblue" stroke="midnightblue" points="1150.71,-407.8 1161.19,-409.33 1153.96,-401.6 1150.71,-407.8"/>
</g>
<!-- Node31 -->
<g id="node31" class="node">
<title>Node31</title>
<g id="a_node31"><a xlink:href="zwapi__connection_8c.html#a1e45c6c9695b5e7b415adfad40080720" target="_top" xlink:title="Parses serial data sent from the Z&#45;Wave module to the serial port. Should be frequently called by mai...">
<polygon fill="none" stroke="black" points="1126,-137 1126,-156 1256,-156 1256,-137 1126,-137"/>
<text text-anchor="middle" x="1191" y="-144" font-family="Helvetica,sans-Serif" font-size="10.00">zwapi_connection_refresh</text>
</a>
</g>
</g>
<!-- Node30&#45;&gt;Node31 -->
<g id="edge35" class="edge">
<title>Node30&#45;&gt;Node31</title>
<path fill="none" stroke="midnightblue" d="M1041.83,-327.45C1070.91,-291.93 1143.72,-203.01 1175.16,-164.62"/>
<polygon fill="midnightblue" stroke="midnightblue" points="1178.25,-166.37 1181.88,-156.42 1172.84,-161.93 1178.25,-166.37"/>
</g>
<!-- Node31&#45;&gt;Node17 -->
<g id="edge37" class="edge">
<title>Node31&#45;&gt;Node17</title>
<path fill="none" stroke="midnightblue" d="M1199.87,-156.11C1215.61,-174.82 1252.86,-216.48 1292,-241.5 1294.97,-243.4 1298.1,-245.19 1301.32,-246.88"/>
<polygon fill="midnightblue" stroke="midnightblue" points="1300.03,-250.15 1310.56,-251.37 1303.09,-243.85 1300.03,-250.15"/>
</g>
<!-- Node31&#45;&gt;Node18 -->
<g id="edge44" class="edge">
<title>Node31&#45;&gt;Node18</title>
<path fill="none" stroke="midnightblue" d="M1233.13,-156.09C1254.74,-161.13 1281.41,-167.34 1304.29,-172.68"/>
<polygon fill="midnightblue" stroke="midnightblue" points="1303.63,-176.12 1314.16,-174.98 1305.22,-169.3 1303.63,-176.12"/>
</g>
<!-- Node31&#45;&gt;Node26 -->
<g id="edge45" class="edge">
<title>Node31&#45;&gt;Node26</title>
<path fill="none" stroke="midnightblue" d="M1224.7,-156.04C1235.1,-159.78 1246.39,-164.6 1256,-170.5 1274.5,-181.85 1273.14,-192.76 1292,-203.5 1295.85,-205.69 1299.97,-207.65 1304.2,-209.4"/>
<polygon fill="midnightblue" stroke="midnightblue" points="1302.97,-212.68 1313.56,-212.91 1305.43,-206.13 1302.97,-212.68"/>
</g>
<!-- Node31&#45;&gt;Node29 -->
<g id="edge36" class="edge">
<title>Node31&#45;&gt;Node29</title>
<path fill="none" stroke="midnightblue" d="M1214.55,-136.96C1227.88,-130.46 1244.36,-120.79 1256,-108.5 1279.78,-83.38 1266.15,-62.49 1292,-39.5 1293.32,-38.32 1294.71,-37.2 1296.15,-36.13"/>
<polygon fill="midnightblue" stroke="midnightblue" points="1298.31,-38.9 1304.86,-30.58 1294.55,-33 1298.31,-38.9"/>
</g>
<!-- Node32 -->
<g id="node32" class="node">
<title>Node32</title>
<g id="a_node32"><a xlink:href="zwapi__serial_8c.html#a538134f9fdbb1ce052667b3a041357bd" target="_top" xlink:title="Reads the output of the serial port device and stores the content in a buffer.">
<polygon fill="none" stroke="black" points="1456,-136 1456,-155 1575,-155 1575,-136 1456,-136"/>
<text text-anchor="middle" x="1515.5" y="-143" font-family="Helvetica,sans-Serif" font-size="10.00">zwapi_serial_get_buffer</text>
</a>
</g>
</g>
<!-- Node31&#45;&gt;Node32 -->
<g id="edge38" class="edge">
<title>Node31&#45;&gt;Node32</title>
<path fill="none" stroke="midnightblue" d="M1256.1,-146.3C1310.92,-146.13 1389.62,-145.89 1445.74,-145.71"/>
<polygon fill="midnightblue" stroke="midnightblue" points="1445.96,-149.21 1455.95,-145.68 1445.93,-142.21 1445.96,-149.21"/>
</g>
<!-- Node33 -->
<g id="node33" class="node">
<title>Node33</title>
<g id="a_node33"><a xlink:href="zwapi__serial_8c.html#abb082b1e7e727203e3ca5fbeb41f7c2b" target="_top" xlink:title="Reads a byte from the serial port device.">
<polygon fill="none" stroke="black" points="1299.5,-99 1299.5,-118 1412.5,-118 1412.5,-99 1299.5,-99"/>
<text text-anchor="middle" x="1356" y="-106" font-family="Helvetica,sans-Serif" font-size="10.00">zwapi_serial_get_byte</text>
</a>
</g>
</g>
<!-- Node31&#45;&gt;Node33 -->
<g id="edge41" class="edge">
<title>Node31&#45;&gt;Node33</title>
<path fill="none" stroke="midnightblue" d="M1233.13,-136.91C1254.74,-131.87 1281.41,-125.66 1304.29,-120.32"/>
<polygon fill="midnightblue" stroke="midnightblue" points="1305.22,-123.7 1314.16,-118.02 1303.63,-116.88 1305.22,-123.7"/>
</g>
<!-- Node34 -->
<g id="node34" class="node">
<title>Node34</title>
<g id="a_node34"><a xlink:href="zwapi__serial_8c.html#a9a952dc2b34d92960246f6dc4e7d58f7" target="_top" xlink:title="Check the file descriptor for the serial device is available for I/O operations.">
<polygon fill="none" stroke="black" points="1305.5,-49.5 1305.5,-79.5 1406.5,-79.5 1406.5,-49.5 1305.5,-49.5"/>
<text text-anchor="start" x="1313.5" y="-67.5" font-family="Helvetica,sans-Serif" font-size="10.00">zwapi_serial_is_file</text>
<text text-anchor="middle" x="1356" y="-56.5" font-family="Helvetica,sans-Serif" font-size="10.00">_available</text>
</a>
</g>
</g>
<!-- Node31&#45;&gt;Node34 -->
<g id="edge43" class="edge">
<title>Node31&#45;&gt;Node34</title>
<path fill="none" stroke="midnightblue" d="M1208.13,-136.94C1231.98,-122.86 1275.61,-97.38 1292,-89.5 1296.28,-87.44 1300.78,-85.41 1305.32,-83.45"/>
<polygon fill="midnightblue" stroke="midnightblue" points="1306.78,-86.64 1314.64,-79.54 1304.07,-80.18 1306.78,-86.64"/>
</g>
<!-- Node32&#45;&gt;Node20 -->
<g id="edge39" class="edge">
<title>Node32&#45;&gt;Node20</title>
<path fill="none" stroke="midnightblue" d="M1575.07,-144.43C1583.43,-144.27 1592.15,-144.11 1600.82,-143.95"/>
<polygon fill="midnightblue" stroke="midnightblue" points="1601.04,-147.45 1610.97,-143.77 1600.91,-140.45 1601.04,-147.45"/>
</g>
<!-- Node32&#45;&gt;Node21 -->
<g id="edge40" class="edge">
<title>Node32&#45;&gt;Node21</title>
<path fill="none" stroke="midnightblue" d="M1554.42,-155.01C1573.15,-159.71 1596.24,-165.5 1617.49,-170.82"/>
<polygon fill="midnightblue" stroke="midnightblue" points="1616.87,-174.28 1627.42,-173.32 1618.58,-167.49 1616.87,-174.28"/>
</g>
<!-- Node33&#45;&gt;Node32 -->
<g id="edge42" class="edge">
<title>Node33&#45;&gt;Node32</title>
<path fill="none" stroke="midnightblue" d="M1397.56,-118.03C1417.78,-122.78 1442.44,-128.57 1463.88,-133.61"/>
<polygon fill="midnightblue" stroke="midnightblue" points="1463.27,-137.06 1473.8,-135.94 1464.87,-130.25 1463.27,-137.06"/>
</g>
<!-- Node35&#45;&gt;Node26 -->
<g id="edge50" class="edge">
<title>Node35&#45;&gt;Node26</title>
<path fill="none" stroke="midnightblue" d="M1080.79,-185.16C1126.71,-191.16 1195.87,-200.27 1256,-208.5 1266.86,-209.99 1278.39,-211.59 1289.6,-213.17"/>
<polygon fill="midnightblue" stroke="midnightblue" points="1289.38,-216.67 1299.77,-214.6 1290.36,-209.74 1289.38,-216.67"/>
</g>
<!-- Node35&#45;&gt;Node29 -->
<g id="edge49" class="edge">
<title>Node35&#45;&gt;Node29</title>
<path fill="none" stroke="midnightblue" d="M1055.42,-163.4C1101.92,-136.62 1202.99,-79.84 1292,-39.5 1295.84,-37.76 1299.84,-36.04 1303.89,-34.36"/>
<polygon fill="midnightblue" stroke="midnightblue" points="1305.4,-37.52 1313.36,-30.53 1302.77,-31.03 1305.4,-37.52"/>
</g>
<!-- Node35&#45;&gt;Node31 -->
<g id="edge48" class="edge">
<title>Node35&#45;&gt;Node31</title>
<path fill="none" stroke="midnightblue" d="M1080.72,-168.29C1097.06,-165.03 1115.25,-161.4 1132.02,-158.06"/>
<polygon fill="midnightblue" stroke="midnightblue" points="1133.14,-161.41 1142.26,-156.02 1131.77,-154.54 1133.14,-161.41"/>
</g>
</g>
</svg>
