<?xml version="1.0" encoding="UTF-8" standalone="no"?>
<!DOCTYPE svg PUBLIC "-//W3C//DTD SVG 1.1//EN"
 "http://www.w3.org/Graphics/SVG/1.1/DTD/svg11.dtd">
<!-- Generated by graphviz version 2.43.0 (0)
 -->
<!-- Title: zwave_command_class_thermostat_fan_state_init Pages: 1 -->
<svg width="1491pt" height="282pt"
 viewBox="0.00 0.00 1491.00 281.50" xmlns="http://www.w3.org/2000/svg" xmlns:xlink="http://www.w3.org/1999/xlink">
<g id="graph0" class="graph" transform="scale(1 1) rotate(0) translate(4 277.5)">
<title>zwave_command_class_thermostat_fan_state_init</title>
<!-- Node1 -->
<g id="node1" class="node">
<title>Node1</title>
<g id="a_node1"><a xlink:title=" ">
<polygon fill="#bfbfbf" stroke="black" points="0,-79.5 0,-109.5 132,-109.5 132,-79.5 0,-79.5"/>
<text text-anchor="start" x="8" y="-97.5" font-family="Helvetica,sans-Serif" font-size="10.00">zwave_command_class</text>
<text text-anchor="middle" x="66" y="-86.5" font-family="Helvetica,sans-Serif" font-size="10.00">_thermostat_fan_state_init</text>
</a>
</g>
</g>
<!-- Node2 -->
<g id="node2" class="node">
<title>Node2</title>
<g id="a_node2"><a xlink:href="zwave__command__class__thermostat__fan__state_8c.html#a31d6c6712622137e483b64780de31182" target="_top" xlink:title=" ">
<polygon fill="none" stroke="black" points="343,-190 343,-231 465,-231 465,-190 343,-190"/>
<text text-anchor="start" x="351" y="-219" font-family="Helvetica,sans-Serif" font-size="10.00">zwave_command_class</text>
<text text-anchor="start" x="351" y="-208" font-family="Helvetica,sans-Serif" font-size="10.00">_thermostat_fan_state</text>
<text text-anchor="middle" x="404" y="-197" font-family="Helvetica,sans-Serif" font-size="10.00">_control_handler</text>
</a>
</g>
</g>
<!-- Node1&#45;&gt;Node2 -->
<g id="edge1" class="edge">
<title>Node1&#45;&gt;Node2</title>
<path fill="none" stroke="midnightblue" d="M85.95,-109.68C105.43,-124.53 137.18,-146.73 168,-159.5 221.11,-181.5 285.08,-194.59 332.86,-201.99"/>
<polygon fill="midnightblue" stroke="midnightblue" points="332.39,-205.46 342.8,-203.48 333.43,-198.54 332.39,-205.46"/>
</g>
<!-- Node11 -->
<g id="node11" class="node">
<title>Node11</title>
<g id="a_node11"><a xlink:href="zwave__command__class__thermostat__fan__state_8c.html#ac0c589d6103cca5725bbff763724098b" target="_top" xlink:title=" ">
<polygon fill="none" stroke="black" points="168,-49.5 168,-79.5 301,-79.5 301,-49.5 168,-49.5"/>
<text text-anchor="start" x="176" y="-67.5" font-family="Helvetica,sans-Serif" font-size="10.00">zwave_command_class</text>
<text text-anchor="middle" x="234.5" y="-56.5" font-family="Helvetica,sans-Serif" font-size="10.00">_thermostat_fan_state_get</text>
</a>
</g>
</g>
<!-- Node1&#45;&gt;Node11 -->
<g id="edge10" class="edge">
<title>Node1&#45;&gt;Node11</title>
<path fill="none" stroke="midnightblue" d="M132.33,-82.73C140.71,-81.22 149.35,-79.66 157.87,-78.13"/>
<polygon fill="midnightblue" stroke="midnightblue" points="158.59,-81.55 167.81,-76.34 157.35,-74.66 158.59,-81.55"/>
</g>
<!-- Node12 -->
<g id="node12" class="node">
<title>Node12</title>
<g id="a_node12"><a xlink:href="zwave__command__class__thermostat__fan__state_8c.html#ae0807cc1ce89db0b0b1124a709f13c81" target="_top" xlink:title=" ">
<polygon fill="none" stroke="black" points="173.5,-98.5 173.5,-150.5 295.5,-150.5 295.5,-98.5 173.5,-98.5"/>
<text text-anchor="start" x="181.5" y="-138.5" font-family="Helvetica,sans-Serif" font-size="10.00">zwave_command_class</text>
<text text-anchor="start" x="181.5" y="-127.5" font-family="Helvetica,sans-Serif" font-size="10.00">_thermostat_fan_state</text>
<text text-anchor="start" x="181.5" y="-116.5" font-family="Helvetica,sans-Serif" font-size="10.00">_on_version_attribute</text>
<text text-anchor="middle" x="234.5" y="-105.5" font-family="Helvetica,sans-Serif" font-size="10.00">_update</text>
</a>
</g>
</g>
<!-- Node1&#45;&gt;Node12 -->
<g id="edge11" class="edge">
<title>Node1&#45;&gt;Node12</title>
<path fill="none" stroke="midnightblue" d="M132.33,-106.27C142.44,-108.09 152.92,-109.98 163.14,-111.82"/>
<polygon fill="midnightblue" stroke="midnightblue" points="162.78,-115.31 173.25,-113.64 164.03,-108.43 162.78,-115.31"/>
</g>
<!-- Node21 -->
<g id="node21" class="node">
<title>Node21</title>
<g id="a_node21"><a xlink:href="group__zwave__command__handler.html#gae1313215c0459775bb126a2ba636eb2f" target="_top" xlink:title="Register a command class handler.">
<polygon fill="none" stroke="black" points="169.5,-0.5 169.5,-30.5 299.5,-30.5 299.5,-0.5 169.5,-0.5"/>
<text text-anchor="start" x="177.5" y="-18.5" font-family="Helvetica,sans-Serif" font-size="10.00">zwave_command_handler</text>
<text text-anchor="middle" x="234.5" y="-7.5" font-family="Helvetica,sans-Serif" font-size="10.00">_register_handler</text>
</a>
</g>
</g>
<!-- Node1&#45;&gt;Node21 -->
<g id="edge24" class="edge">
<title>Node1&#45;&gt;Node21</title>
<path fill="none" stroke="midnightblue" d="M92.21,-79.42C112.33,-67.72 141.44,-51.52 168,-39.5 171.85,-37.76 175.86,-36.05 179.93,-34.39"/>
<polygon fill="midnightblue" stroke="midnightblue" points="181.44,-37.56 189.45,-30.63 178.86,-31.05 181.44,-37.56"/>
</g>
<!-- Node3 -->
<g id="node3" class="node">
<title>Node3</title>
<g id="a_node3"><a xlink:href="zwave__command__class__thermostat__fan__state_8c.html#a1b98c903faec030c846701b394d813c5" target="_top" xlink:title=" ">
<polygon fill="none" stroke="black" points="515,-232 515,-273 637,-273 637,-232 515,-232"/>
<text text-anchor="start" x="523" y="-261" font-family="Helvetica,sans-Serif" font-size="10.00">zwave_command_class</text>
<text text-anchor="start" x="523" y="-250" font-family="Helvetica,sans-Serif" font-size="10.00">_thermostat_fan_state</text>
<text text-anchor="middle" x="576" y="-239" font-family="Helvetica,sans-Serif" font-size="10.00">_handle_report</text>
</a>
</g>
</g>
<!-- Node2&#45;&gt;Node3 -->
<g id="edge2" class="edge">
<title>Node2&#45;&gt;Node3</title>
<path fill="none" stroke="midnightblue" d="M465.41,-225.43C478.19,-228.58 491.78,-231.94 504.88,-235.18"/>
<polygon fill="midnightblue" stroke="midnightblue" points="504.23,-238.62 514.78,-237.62 505.91,-231.83 504.23,-238.62"/>
</g>
<!-- Node4 -->
<g id="node4" class="node">
<title>Node4</title>
<g id="a_node4"><a xlink:href="group__command__classes__utils.html#gaff12f5d1f5b9eed08201efab5854190c" target="_top" xlink:title="Find the Z&#45;Wave Endpoint ID Node attribute based on a const zwave_controller_connection_info_t object...">
<polygon fill="none" stroke="black" points="686,-226.5 686,-256.5 808,-256.5 808,-226.5 686,-226.5"/>
<text text-anchor="start" x="694" y="-244.5" font-family="Helvetica,sans-Serif" font-size="10.00">zwave_command_class</text>
<text text-anchor="middle" x="747" y="-233.5" font-family="Helvetica,sans-Serif" font-size="10.00">_get_endpoint_node</text>
</a>
</g>
</g>
<!-- Node3&#45;&gt;Node4 -->
<g id="edge3" class="edge">
<title>Node3&#45;&gt;Node4</title>
<path fill="none" stroke="midnightblue" d="M637.06,-248.59C649.56,-247.78 662.84,-246.91 675.68,-246.08"/>
<polygon fill="midnightblue" stroke="midnightblue" points="676.1,-249.56 685.85,-245.42 675.64,-242.57 676.1,-249.56"/>
</g>
<!-- Node5 -->
<g id="node5" class="node">
<title>Node5</title>
<g id="a_node5"><a xlink:href="group__zpc__attribute__store__network__helpers.html#gae4d15b8e0c61c88d94c8f342bd2014fc" target="_top" xlink:title="Take a UNID/endpoint combination and returns its attribute store node.">
<polygon fill="none" stroke="black" points="849,-182.5 849,-212.5 984,-212.5 984,-182.5 849,-182.5"/>
<text text-anchor="start" x="857" y="-200.5" font-family="Helvetica,sans-Serif" font-size="10.00">attribute_store_network</text>
<text text-anchor="middle" x="916.5" y="-189.5" font-family="Helvetica,sans-Serif" font-size="10.00">_helper_get_endpoint_node</text>
</a>
</g>
</g>
<!-- Node4&#45;&gt;Node5 -->
<g id="edge4" class="edge">
<title>Node4&#45;&gt;Node5</title>
<path fill="none" stroke="midnightblue" d="M805.18,-226.48C819.11,-222.82 834.15,-218.87 848.5,-215.1"/>
<polygon fill="midnightblue" stroke="midnightblue" points="849.52,-218.45 858.3,-212.53 847.74,-211.68 849.52,-218.45"/>
</g>
<!-- Node10 -->
<g id="node10" class="node">
<title>Node10</title>
<g id="a_node10"><a xlink:href="group__zwave__unid.html#ga421deceb8a12916f049e4f3446774439" target="_top" xlink:title="Form a UNID.">
<polygon fill="none" stroke="black" points="850.5,-232 850.5,-251 982.5,-251 982.5,-232 850.5,-232"/>
<text text-anchor="middle" x="916.5" y="-239" font-family="Helvetica,sans-Serif" font-size="10.00">zwave_unid_from_node_id</text>
</a>
</g>
</g>
<!-- Node4&#45;&gt;Node10 -->
<g id="edge9" class="edge">
<title>Node4&#45;&gt;Node10</title>
<path fill="none" stroke="midnightblue" d="M808.47,-241.5C818.77,-241.5 829.58,-241.5 840.2,-241.5"/>
<polygon fill="midnightblue" stroke="midnightblue" points="840.31,-245 850.31,-241.5 840.31,-238 840.31,-245"/>
</g>
<!-- Node6 -->
<g id="node6" class="node">
<title>Node6</title>
<g id="a_node6"><a xlink:href="group__zpc__attribute__store__network__helpers.html#gafb993ff484b3c826743c4695d6659cf0" target="_top" xlink:title="Take a UNID and return its attribute store node representing the NodeID.">
<polygon fill="none" stroke="black" points="1020,-182.5 1020,-212.5 1152,-212.5 1152,-182.5 1020,-182.5"/>
<text text-anchor="start" x="1028" y="-200.5" font-family="Helvetica,sans-Serif" font-size="10.00">attribute_store_network</text>
<text text-anchor="middle" x="1086" y="-189.5" font-family="Helvetica,sans-Serif" font-size="10.00">_helper_get_node_id_node</text>
</a>
</g>
</g>
<!-- Node5&#45;&gt;Node6 -->
<g id="edge5" class="edge">
<title>Node5&#45;&gt;Node6</title>
<path fill="none" stroke="midnightblue" d="M984.18,-197.5C992.55,-197.5 1001.15,-197.5 1009.64,-197.5"/>
<polygon fill="midnightblue" stroke="midnightblue" points="1009.91,-201 1019.91,-197.5 1009.91,-194 1009.91,-201"/>
</g>
<!-- Node7 -->
<g id="node7" class="node">
<title>Node7</title>
<g id="a_node7"><a xlink:href="group__zpc__attribute__store__network__helpers.html#ga05cb572c96f7dc8e6657f86e135fafed" target="_top" xlink:title="Take a UNID and return its attribute store node representing the HomeID.">
<polygon fill="none" stroke="black" points="1188,-204.5 1188,-234.5 1323,-234.5 1323,-204.5 1188,-204.5"/>
<text text-anchor="start" x="1196" y="-222.5" font-family="Helvetica,sans-Serif" font-size="10.00">attribute_store_network</text>
<text text-anchor="middle" x="1255.5" y="-211.5" font-family="Helvetica,sans-Serif" font-size="10.00">_helper_get_home_id_node</text>
</a>
</g>
</g>
<!-- Node6&#45;&gt;Node7 -->
<g id="edge6" class="edge">
<title>Node6&#45;&gt;Node7</title>
<path fill="none" stroke="midnightblue" d="M1152.24,-206.07C1160.62,-207.17 1169.27,-208.31 1177.82,-209.43"/>
<polygon fill="midnightblue" stroke="midnightblue" points="1177.41,-212.9 1187.78,-210.74 1178.32,-205.96 1177.41,-212.9"/>
</g>
<!-- Node9 -->
<g id="node9" class="node">
<title>Node9</title>
<g id="a_node9"><a xlink:href="group__zwave__unid.html#ga76885767debd174e96e6df00b0a368c3" target="_top" xlink:title="Convert a UNID to a node ID.">
<polygon fill="none" stroke="black" points="1195,-166 1195,-185 1316,-185 1316,-166 1195,-166"/>
<text text-anchor="middle" x="1255.5" y="-173" font-family="Helvetica,sans-Serif" font-size="10.00">zwave_unid_to_node_id</text>
</a>
</g>
</g>
<!-- Node6&#45;&gt;Node9 -->
<g id="edge8" class="edge">
<title>Node6&#45;&gt;Node9</title>
<path fill="none" stroke="midnightblue" d="M1152.24,-188.93C1162.89,-187.53 1173.96,-186.08 1184.72,-184.67"/>
<polygon fill="midnightblue" stroke="midnightblue" points="1185.45,-188.1 1194.91,-183.33 1184.54,-181.16 1185.45,-188.1"/>
</g>
<!-- Node8 -->
<g id="node8" class="node">
<title>Node8</title>
<g id="a_node8"><a xlink:href="group__zwave__unid.html#ga92f9808a08c2ce1c0a6a9dc2debf3580" target="_top" xlink:title="Convert a UNID to a Home ID.">
<polygon fill="none" stroke="black" points="1359,-210 1359,-229 1483,-229 1483,-210 1359,-210"/>
<text text-anchor="middle" x="1421" y="-217" font-family="Helvetica,sans-Serif" font-size="10.00">zwave_unid_to_home_id</text>
</a>
</g>
</g>
<!-- Node7&#45;&gt;Node8 -->
<g id="edge7" class="edge">
<title>Node7&#45;&gt;Node8</title>
<path fill="none" stroke="midnightblue" d="M1323,-219.5C1331.42,-219.5 1340.07,-219.5 1348.57,-219.5"/>
<polygon fill="midnightblue" stroke="midnightblue" points="1348.83,-223 1358.83,-219.5 1348.83,-216 1348.83,-223"/>
</g>
<!-- Node13 -->
<g id="node13" class="node">
<title>Node13</title>
<g id="a_node13"><a xlink:href="group__command__classes__utils.html#gab8c8edb0b4667b409c3ec1e67ae71361" target="_top" xlink:title="function helper function to help Command Classes decide if they should create the supporting node att...">
<polygon fill="none" stroke="black" points="337,-99.5 337,-129.5 471,-129.5 471,-99.5 337,-99.5"/>
<text text-anchor="start" x="345" y="-117.5" font-family="Helvetica,sans-Serif" font-size="10.00">is_zwave_command_class</text>
<text text-anchor="middle" x="404" y="-106.5" font-family="Helvetica,sans-Serif" font-size="10.00">_filtered_for_root_device</text>
</a>
</g>
</g>
<!-- Node12&#45;&gt;Node13 -->
<g id="edge12" class="edge">
<title>Node12&#45;&gt;Node13</title>
<path fill="none" stroke="midnightblue" d="M295.97,-120.89C305.95,-120.29 316.41,-119.67 326.72,-119.05"/>
<polygon fill="midnightblue" stroke="midnightblue" points="327.18,-122.53 336.95,-118.44 326.76,-115.55 327.18,-122.53"/>
</g>
<!-- Node14 -->
<g id="node14" class="node">
<title>Node14</title>
<g id="a_node14"><a xlink:href="group__zpc__attribute__store__network__helpers.html#gacd36836093319f5642cf566d6f26cb61" target="_top" xlink:title="Traverse up the tree from a node and finds under which Z&#45;Wave NodeID/endpoint id it is located.">
<polygon fill="none" stroke="black" points="516.5,-122 516.5,-163 635.5,-163 635.5,-122 516.5,-122"/>
<text text-anchor="start" x="524.5" y="-151" font-family="Helvetica,sans-Serif" font-size="10.00">attribute_store_network</text>
<text text-anchor="start" x="524.5" y="-140" font-family="Helvetica,sans-Serif" font-size="10.00">_helper_get_zwave_ids</text>
<text text-anchor="middle" x="576" y="-129" font-family="Helvetica,sans-Serif" font-size="10.00">_from_node</text>
</a>
</g>
</g>
<!-- Node13&#45;&gt;Node14 -->
<g id="edge13" class="edge">
<title>Node13&#45;&gt;Node14</title>
<path fill="none" stroke="midnightblue" d="M471.21,-125.41C482.75,-127.31 494.77,-129.29 506.37,-131.2"/>
<polygon fill="midnightblue" stroke="midnightblue" points="506,-134.68 516.44,-132.85 507.14,-127.78 506,-134.68"/>
</g>
<!-- Node15 -->
<g id="node15" class="node">
<title>Node15</title>
<g id="a_node15"><a xlink:href="group__command__classes__utils.html#gadfa3418577b4f55243888933db59bc0f" target="_top" xlink:title="Verifies if a Command Class is an actuator Command Class.">
<polygon fill="none" stroke="black" points="519.5,-72.5 519.5,-102.5 632.5,-102.5 632.5,-72.5 519.5,-72.5"/>
<text text-anchor="start" x="527.5" y="-90.5" font-family="Helvetica,sans-Serif" font-size="10.00">is_actuator_command</text>
<text text-anchor="middle" x="576" y="-79.5" font-family="Helvetica,sans-Serif" font-size="10.00">_class</text>
</a>
</g>
</g>
<!-- Node13&#45;&gt;Node15 -->
<g id="edge14" class="edge">
<title>Node13&#45;&gt;Node15</title>
<path fill="none" stroke="midnightblue" d="M471.21,-103.98C483.79,-101.99 496.95,-99.9 509.51,-97.9"/>
<polygon fill="midnightblue" stroke="midnightblue" points="510.1,-101.35 519.43,-96.33 509,-94.44 510.1,-101.35"/>
</g>
<!-- Node16 -->
<g id="node16" class="node">
<title>Node16</title>
<g id="a_node16"><a xlink:href="group__zwave__command__class__version.html#ga6d1fd9e5a91e2a18487d313684db45b3" target="_top" xlink:title="Checks we know that the version CC is supported by the node.">
<polygon fill="none" stroke="black" points="523,-34 523,-53 629,-53 629,-34 523,-34"/>
<text text-anchor="middle" x="576" y="-41" font-family="Helvetica,sans-Serif" font-size="10.00">is_version_cc_found</text>
</a>
</g>
</g>
<!-- Node13&#45;&gt;Node16 -->
<g id="edge15" class="edge">
<title>Node13&#45;&gt;Node16</title>
<path fill="none" stroke="midnightblue" d="M431.18,-99.32C451.39,-88.06 480.33,-72.9 507,-62.5 513,-60.16 519.39,-57.98 525.77,-56"/>
<polygon fill="midnightblue" stroke="midnightblue" points="527.14,-59.24 535.73,-53.04 525.14,-52.53 527.14,-59.24"/>
</g>
<!-- Node17 -->
<g id="node17" class="node">
<title>Node17</title>
<g id="a_node17"><a xlink:href="group__zwave__utils.html#ga1fb87a67860c11e6e89930eb51fda21f" target="_top" xlink:title="Return the version of a Command Class implemented by a node.">
<polygon fill="none" stroke="black" points="507,-182.5 507,-212.5 645,-212.5 645,-182.5 507,-182.5"/>
<text text-anchor="start" x="515" y="-200.5" font-family="Helvetica,sans-Serif" font-size="10.00">zwave_node_get_command</text>
<text text-anchor="middle" x="576" y="-189.5" font-family="Helvetica,sans-Serif" font-size="10.00">_class_version</text>
</a>
</g>
</g>
<!-- Node13&#45;&gt;Node17 -->
<g id="edge16" class="edge">
<title>Node13&#45;&gt;Node17</title>
<path fill="none" stroke="midnightblue" d="M429.13,-129.73C449.43,-142.17 479.47,-159.72 507,-172.5 511.59,-174.63 516.41,-176.71 521.29,-178.7"/>
<polygon fill="midnightblue" stroke="midnightblue" points="520.09,-181.99 530.67,-182.41 522.66,-175.48 520.09,-181.99"/>
</g>
<!-- Node19 -->
<g id="node19" class="node">
<title>Node19</title>
<g id="a_node19"><a xlink:href="group__zwave__utils.html#gaaa5d4e371acabd40b10dcf27edd993ff" target="_top" xlink:title="Verify whether a node/endpoint supports a Command Class using the attribute Store.">
<polygon fill="none" stroke="black" points="690,-135.5 690,-165.5 804,-165.5 804,-135.5 690,-135.5"/>
<text text-anchor="start" x="698" y="-153.5" font-family="Helvetica,sans-Serif" font-size="10.00">zwave_node_supports</text>
<text text-anchor="middle" x="747" y="-142.5" font-family="Helvetica,sans-Serif" font-size="10.00">_command_class</text>
</a>
</g>
</g>
<!-- Node13&#45;&gt;Node19 -->
<g id="edge20" class="edge">
<title>Node13&#45;&gt;Node19</title>
<path fill="none" stroke="midnightblue" d="M416.12,-99.39C432.96,-77.92 467.24,-39.53 507,-24.5 564.37,-2.81 589.71,2.04 645,-24.5 688.79,-45.52 719.57,-95.8 734.89,-126.1"/>
<polygon fill="midnightblue" stroke="midnightblue" points="731.79,-127.73 739.32,-135.18 738.08,-124.66 731.79,-127.73"/>
</g>
<!-- Node18 -->
<g id="node18" class="node">
<title>Node18</title>
<g id="a_node18"><a xlink:href="group__zwave__utils.html#ga6f7851dd2a96668e3a246c0292607579" target="_top" xlink:title="Get endpoint node associated with the ZWave NodeID and Endpoint ID.">
<polygon fill="none" stroke="black" points="681,-188 681,-207 813,-207 813,-188 681,-188"/>
<text text-anchor="middle" x="747" y="-195" font-family="Helvetica,sans-Serif" font-size="10.00">zwave_get_endpoint_node</text>
</a>
</g>
</g>
<!-- Node17&#45;&gt;Node18 -->
<g id="edge17" class="edge">
<title>Node17&#45;&gt;Node18</title>
<path fill="none" stroke="midnightblue" d="M645.25,-197.5C653.59,-197.5 662.14,-197.5 670.58,-197.5"/>
<polygon fill="midnightblue" stroke="midnightblue" points="670.78,-201 680.78,-197.5 670.78,-194 670.78,-201"/>
</g>
<!-- Node18&#45;&gt;Node5 -->
<g id="edge18" class="edge">
<title>Node18&#45;&gt;Node5</title>
<path fill="none" stroke="midnightblue" d="M813.24,-197.5C821.53,-197.5 830.08,-197.5 838.54,-197.5"/>
<polygon fill="midnightblue" stroke="midnightblue" points="838.78,-201 848.78,-197.5 838.78,-194 838.78,-201"/>
</g>
<!-- Node18&#45;&gt;Node10 -->
<g id="edge19" class="edge">
<title>Node18&#45;&gt;Node10</title>
<path fill="none" stroke="midnightblue" d="M784.35,-207.05C809.26,-213.59 842.51,-222.33 869.31,-229.37"/>
<polygon fill="midnightblue" stroke="midnightblue" points="868.66,-232.82 879.23,-231.97 870.44,-226.05 868.66,-232.82"/>
</g>
<!-- Node19&#45;&gt;Node5 -->
<g id="edge21" class="edge">
<title>Node19&#45;&gt;Node5</title>
<path fill="none" stroke="midnightblue" d="M801.46,-165.5C817.63,-170.04 835.53,-175.06 852.27,-179.76"/>
<polygon fill="midnightblue" stroke="midnightblue" points="851.4,-183.15 861.97,-182.48 853.29,-176.41 851.4,-183.15"/>
</g>
<!-- Node19&#45;&gt;Node10 -->
<g id="edge23" class="edge">
<title>Node19&#45;&gt;Node10</title>
<path fill="none" stroke="midnightblue" d="M791.22,-165.65C798.84,-169.27 806.43,-173.54 813,-178.5 833.18,-193.71 827.89,-208.62 849,-222.5 852.14,-224.57 855.52,-226.41 859.01,-228.06"/>
<polygon fill="midnightblue" stroke="midnightblue" points="857.91,-231.39 868.48,-231.98 860.58,-224.92 857.91,-231.39"/>
</g>
<!-- Node20 -->
<g id="node20" class="node">
<title>Node20</title>
<g id="a_node20"><a xlink:href="group__zwave__controller__utils.html#ga4b9cc899709547a170141ba7e0583e16" target="_top" xlink:title="Verifies if a CC is in a raw array of Command Classes.">
<polygon fill="none" stroke="black" points="860,-133.5 860,-163.5 973,-163.5 973,-133.5 860,-133.5"/>
<text text-anchor="start" x="868" y="-151.5" font-family="Helvetica,sans-Serif" font-size="10.00">is_command_class_in</text>
<text text-anchor="middle" x="916.5" y="-140.5" font-family="Helvetica,sans-Serif" font-size="10.00">_supported_list</text>
</a>
</g>
</g>
<!-- Node19&#45;&gt;Node20 -->
<g id="edge22" class="edge">
<title>Node19&#45;&gt;Node20</title>
<path fill="none" stroke="midnightblue" d="M804.24,-149.83C818.84,-149.65 834.68,-149.46 849.72,-149.29"/>
<polygon fill="midnightblue" stroke="midnightblue" points="850.02,-152.78 859.98,-149.16 849.94,-145.78 850.02,-152.78"/>
</g>
</g>
</svg>
