<?xml version="1.0" encoding="UTF-8" standalone="no"?>
<!DOCTYPE svg PUBLIC "-//W3C//DTD SVG 1.1//EN"
 "http://www.w3.org/Graphics/SVG/1.1/DTD/svg11.dtd">
<!-- Generated by graphviz version 2.43.0 (0)
 -->
<!-- Title: zwave_command_class_mark_key_protocol_as_supported Pages: 1 -->
<svg width="452pt" height="88pt"
 viewBox="0.00 0.00 452.00 88.00" xmlns="http://www.w3.org/2000/svg" xmlns:xlink="http://www.w3.org/1999/xlink">
<g id="graph0" class="graph" transform="scale(1 1) rotate(0) translate(4 84)">
<title>zwave_command_class_mark_key_protocol_as_supported</title>
<!-- Node1 -->
<g id="node1" class="node">
<title>Node1</title>
<g id="a_node1"><a xlink:title="Updates the Attribute Store to indicate that the Security key and Protocol that we just used are work...">
<polygon fill="#bfbfbf" stroke="black" points="0,-19 0,-60 122,-60 122,-19 0,-19"/>
<text text-anchor="start" x="8" y="-48" font-family="Helvetica,sans-Serif" font-size="10.00">zwave_command_class</text>
<text text-anchor="start" x="8" y="-37" font-family="Helvetica,sans-Serif" font-size="10.00">_mark_key_protocol_as</text>
<text text-anchor="middle" x="61" y="-26" font-family="Helvetica,sans-Serif" font-size="10.00">_supported</text>
</a>
</g>
</g>
<!-- Node2 -->
<g id="node2" class="node">
<title>Node2</title>
<g id="a_node2"><a xlink:href="zwave__command__class__granted__keys__resolver_8c.html#a89837c6f52ad963a8943085fec4afa5d" target="_top" xlink:title="Remove some discovery combinations if we know the protocol.">
<polygon fill="none" stroke="black" points="158,-49.5 158,-79.5 310,-79.5 310,-49.5 158,-49.5"/>
<text text-anchor="start" x="166" y="-67.5" font-family="Helvetica,sans-Serif" font-size="10.00">exclude_combinations</text>
<text text-anchor="middle" x="234" y="-56.5" font-family="Helvetica,sans-Serif" font-size="10.00">_with_protocol_from_discovery</text>
</a>
</g>
</g>
<!-- Node1&#45;&gt;Node2 -->
<g id="edge1" class="edge">
<title>Node1&#45;&gt;Node2</title>
<path fill="none" stroke="midnightblue" d="M122.29,-48.31C130.58,-49.53 139.22,-50.79 147.86,-52.05"/>
<polygon fill="midnightblue" stroke="midnightblue" points="147.57,-55.55 157.97,-53.53 148.59,-48.62 147.57,-55.55"/>
</g>
<!-- Node4 -->
<g id="node4" class="node">
<title>Node4</title>
<g id="a_node4"><a xlink:href="group__zwave__controller__keyset.html#gad06107f2d1f4698eb96817423dc98d74" target="_top" xlink:title="Get the Z&#45;Wave Key used for a given encapsulation.">
<polygon fill="none" stroke="black" points="170,-0.5 170,-30.5 298,-30.5 298,-0.5 170,-0.5"/>
<text text-anchor="start" x="178" y="-18.5" font-family="Helvetica,sans-Serif" font-size="10.00">zwave_controller_get</text>
<text text-anchor="middle" x="234" y="-7.5" font-family="Helvetica,sans-Serif" font-size="10.00">_key_from_encapsulation</text>
</a>
</g>
</g>
<!-- Node1&#45;&gt;Node4 -->
<g id="edge3" class="edge">
<title>Node1&#45;&gt;Node4</title>
<path fill="none" stroke="midnightblue" d="M122.29,-31.04C134.43,-29.33 147.31,-27.53 159.84,-25.77"/>
<polygon fill="midnightblue" stroke="midnightblue" points="160.36,-29.23 169.78,-24.37 159.39,-22.3 160.36,-29.23"/>
</g>
<!-- Node3 -->
<g id="node3" class="node">
<title>Node3</title>
<g id="a_node3"><a xlink:href="group__zpc__attribute__store__network__helpers.html#ga1148a8bb5e8a4630bf6d6f5361f17770" target="_top" xlink:title="Returns the Attribute Store node for Endpoint 0, under a NodeID node.">
<polygon fill="none" stroke="black" points="346,-49.5 346,-79.5 444,-79.5 444,-49.5 346,-49.5"/>
<text text-anchor="start" x="354" y="-67.5" font-family="Helvetica,sans-Serif" font-size="10.00">attribute_store_get</text>
<text text-anchor="middle" x="395" y="-56.5" font-family="Helvetica,sans-Serif" font-size="10.00">_endpoint_0_node</text>
</a>
</g>
</g>
<!-- Node2&#45;&gt;Node3 -->
<g id="edge2" class="edge">
<title>Node2&#45;&gt;Node3</title>
<path fill="none" stroke="midnightblue" d="M310.31,-64.5C318.77,-64.5 327.3,-64.5 335.51,-64.5"/>
<polygon fill="midnightblue" stroke="midnightblue" points="335.71,-68 345.71,-64.5 335.71,-61 335.71,-68"/>
</g>
</g>
</svg>
