<?xml version="1.0" encoding="UTF-8" standalone="no"?>
<!DOCTYPE svg PUBLIC "-//W3C//DTD SVG 1.1//EN"
 "http://www.w3.org/Graphics/SVG/1.1/DTD/svg11.dtd">
<!-- Generated by graphviz version 2.43.0 (0)
 -->
<!-- Title: s0_set_callback Pages: 1 -->
<svg width="585pt" height="39pt"
 viewBox="0.00 0.00 585.00 39.00" xmlns="http://www.w3.org/2000/svg" xmlns:xlink="http://www.w3.org/1999/xlink">
<g id="graph0" class="graph" transform="scale(1 1) rotate(0) translate(4 35)">
<title>s0_set_callback</title>
<!-- Node1 -->
<g id="node1" class="node">
<title>Node1</title>
<g id="a_node1"><a xlink:title="Set callback function for the S0 bootstrap. This callback function is copied internally into S0 and c...">
<polygon fill="#bfbfbf" stroke="black" points="490,-6 490,-25 577,-25 577,-6 490,-6"/>
<text text-anchor="middle" x="533.5" y="-13" font-family="Helvetica,sans-Serif" font-size="10.00">s0_set_callback</text>
</a>
</g>
</g>
<!-- Node2 -->
<g id="node2" class="node">
<title>Node2</title>
<g id="a_node2"><a xlink:href="group__zwave__s0__network.html#ga87da65496dd77458d5c14dbe30209d82" target="_top" xlink:title="Set callback function for the S0 inclusion. This function ptr is saved internally in s0.">
<polygon fill="none" stroke="black" points="335,-0.5 335,-30.5 454,-30.5 454,-0.5 335,-0.5"/>
<text text-anchor="start" x="343" y="-18.5" font-family="Helvetica,sans-Serif" font-size="10.00">zwave_s0_set_network</text>
<text text-anchor="middle" x="394.5" y="-7.5" font-family="Helvetica,sans-Serif" font-size="10.00">_callbacks</text>
</a>
</g>
</g>
<!-- Node1&#45;&gt;Node2 -->
<g id="edge1" class="edge">
<title>Node1&#45;&gt;Node2</title>
<path fill="none" stroke="midnightblue" d="M479.85,-15.5C471.45,-15.5 462.71,-15.5 454.17,-15.5"/>
<polygon fill="midnightblue" stroke="midnightblue" points="479.9,-19 489.9,-15.5 479.9,-12 479.9,-19"/>
</g>
<!-- Node3 -->
<g id="node3" class="node">
<title>Node3</title>
<g id="a_node3"><a xlink:href="nm__state__machine_8c.html#a4bedb93fa551c5f612efe78db1642309" target="_top" xlink:title="Initialize the Z&#45;Wave network management state machine.">
<polygon fill="none" stroke="black" points="182,-6 182,-25 299,-25 299,-6 182,-6"/>
<text text-anchor="middle" x="240.5" y="-13" font-family="Helvetica,sans-Serif" font-size="10.00">nm_state_machine_init</text>
</a>
</g>
</g>
<!-- Node2&#45;&gt;Node3 -->
<g id="edge2" class="edge">
<title>Node2&#45;&gt;Node3</title>
<path fill="none" stroke="midnightblue" d="M324.48,-15.5C315.99,-15.5 307.4,-15.5 299.11,-15.5"/>
<polygon fill="midnightblue" stroke="midnightblue" points="324.73,-19 334.73,-15.5 324.73,-12 324.73,-19"/>
</g>
<!-- Node4 -->
<g id="node4" class="node">
<title>Node4</title>
<g id="a_node4"><a xlink:href="group__zwave__network__management__fixt.html#gaa8950dbf92037e3ec5e0385641176c98" target="_top" xlink:title="Initialize the Z&#45;Wave Network Management Module.">
<polygon fill="none" stroke="black" points="0,-0.5 0,-30.5 146,-30.5 146,-0.5 0,-0.5"/>
<text text-anchor="start" x="8" y="-18.5" font-family="Helvetica,sans-Serif" font-size="10.00">zwave_network_management</text>
<text text-anchor="middle" x="73" y="-7.5" font-family="Helvetica,sans-Serif" font-size="10.00">_fixt_setup</text>
</a>
</g>
</g>
<!-- Node3&#45;&gt;Node4 -->
<g id="edge3" class="edge">
<title>Node3&#45;&gt;Node4</title>
<path fill="none" stroke="midnightblue" d="M171.52,-15.5C163.14,-15.5 154.55,-15.5 146.11,-15.5"/>
<polygon fill="midnightblue" stroke="midnightblue" points="171.62,-19 181.62,-15.5 171.62,-12 171.62,-19"/>
</g>
</g>
</svg>
