<?xml version="1.0" encoding="UTF-8" standalone="no"?>
<!DOCTYPE svg PUBLIC "-//W3C//DTD SVG 1.1//EN"
 "http://www.w3.org/Graphics/SVG/1.1/DTD/svg11.dtd">
<!-- Generated by graphviz version 2.43.0 (0)
 -->
<!-- Title: zwave_duration_to_time Pages: 1 -->
<svg width="808pt" height="210pt"
 viewBox="0.00 0.00 808.00 209.50" xmlns="http://www.w3.org/2000/svg" xmlns:xlink="http://www.w3.org/1999/xlink">
<g id="graph0" class="graph" transform="scale(1 1) rotate(0) translate(4 205.5)">
<title>zwave_duration_to_time</title>
<!-- Node1 -->
<g id="node1" class="node">
<title>Node1</title>
<g id="a_node1"><a xlink:title="Converts a duration byte encoded for a Z&#45;Wave command class and returns its corresponding value in cl...">
<polygon fill="#bfbfbf" stroke="black" points="678,-91.5 678,-110.5 800,-110.5 800,-91.5 678,-91.5"/>
<text text-anchor="middle" x="739" y="-98.5" font-family="Helvetica,sans-Serif" font-size="10.00">zwave_duration_to_time</text>
</a>
</g>
</g>
<!-- Node2 -->
<g id="node2" class="node">
<title>Node2</title>
<g id="a_node2"><a xlink:href="zwave__command__class__switch__multilevel_8c.html#aefdc747956727fa542d10bc6fe464140" target="_top" xlink:title=" ">
<polygon fill="none" stroke="black" points="357.5,-61 357.5,-91 461.5,-91 461.5,-61 357.5,-61"/>
<text text-anchor="start" x="365.5" y="-79" font-family="Helvetica,sans-Serif" font-size="10.00">on_state_send_data</text>
<text text-anchor="middle" x="409.5" y="-68" font-family="Helvetica,sans-Serif" font-size="10.00">_complete</text>
</a>
</g>
</g>
<!-- Node1&#45;&gt;Node2 -->
<g id="edge1" class="edge">
<title>Node1&#45;&gt;Node2</title>
<path fill="none" stroke="midnightblue" d="M667.84,-95.64C605.89,-90.92 517.02,-84.13 461.58,-79.9"/>
<polygon fill="midnightblue" stroke="midnightblue" points="667.69,-99.14 677.93,-96.41 668.23,-92.16 667.69,-99.14"/>
</g>
<!-- Node5 -->
<g id="node5" class="node">
<title>Node5</title>
<g id="a_node5"><a xlink:href="zwave__command__class__basic_8c.html#a3da5f1f2ae5cfe60e041dea68a68a0ba" target="_top" xlink:title=" ">
<polygon fill="none" stroke="black" points="515.5,-170 515.5,-200 637.5,-200 637.5,-170 515.5,-170"/>
<text text-anchor="start" x="523.5" y="-188" font-family="Helvetica,sans-Serif" font-size="10.00">zwave_command_class</text>
<text text-anchor="middle" x="576.5" y="-177" font-family="Helvetica,sans-Serif" font-size="10.00">_basic_handle_report</text>
</a>
</g>
</g>
<!-- Node1&#45;&gt;Node5 -->
<g id="edge4" class="edge">
<title>Node1&#45;&gt;Node5</title>
<path fill="none" stroke="midnightblue" d="M715.18,-116.21C696.09,-128.59 667.9,-146.06 642,-159 634.33,-162.83 625.96,-166.54 617.85,-169.89"/>
<polygon fill="midnightblue" stroke="midnightblue" points="717.32,-119 723.77,-110.59 713.49,-113.14 717.32,-119"/>
</g>
<!-- Node8 -->
<g id="node8" class="node">
<title>Node8</title>
<g id="a_node8"><a xlink:href="zwave__command__class__supervision_8c.html#a033177d7c253b3c99982f2a591dd1180" target="_top" xlink:title=" ">
<polygon fill="none" stroke="black" points="515.5,-4.5 515.5,-45.5 637.5,-45.5 637.5,-4.5 515.5,-4.5"/>
<text text-anchor="start" x="523.5" y="-33.5" font-family="Helvetica,sans-Serif" font-size="10.00">zwave_command_class</text>
<text text-anchor="start" x="523.5" y="-22.5" font-family="Helvetica,sans-Serif" font-size="10.00">_supervision_handle</text>
<text text-anchor="middle" x="576.5" y="-11.5" font-family="Helvetica,sans-Serif" font-size="10.00">_supervision_report</text>
</a>
</g>
</g>
<!-- Node1&#45;&gt;Node8 -->
<g id="edge8" class="edge">
<title>Node1&#45;&gt;Node8</title>
<path fill="none" stroke="midnightblue" d="M708.51,-87.03C683.96,-75.41 648.66,-58.7 620.89,-45.55"/>
<polygon fill="midnightblue" stroke="midnightblue" points="707.14,-90.26 717.67,-91.37 710.13,-83.93 707.14,-90.26"/>
</g>
<!-- Node11 -->
<g id="node11" class="node">
<title>Node11</title>
<g id="a_node11"><a xlink:href="zwave__command__class__switch__multilevel_8c.html#ab1f99263283de8de6f75fd276f5774d2" target="_top" xlink:title=" ">
<polygon fill="none" stroke="black" points="511,-108.5 511,-149.5 642,-149.5 642,-108.5 511,-108.5"/>
<text text-anchor="start" x="519" y="-137.5" font-family="Helvetica,sans-Serif" font-size="10.00">zwave_command_class</text>
<text text-anchor="start" x="519" y="-126.5" font-family="Helvetica,sans-Serif" font-size="10.00">_switch_multilevel_handle</text>
<text text-anchor="middle" x="576.5" y="-115.5" font-family="Helvetica,sans-Serif" font-size="10.00">_report</text>
</a>
</g>
</g>
<!-- Node1&#45;&gt;Node11 -->
<g id="edge12" class="edge">
<title>Node1&#45;&gt;Node11</title>
<path fill="none" stroke="midnightblue" d="M673.1,-112.32C662.85,-114.11 652.25,-115.96 642,-117.75"/>
<polygon fill="midnightblue" stroke="midnightblue" points="673.96,-115.72 683.21,-110.56 672.76,-108.83 673.96,-115.72"/>
</g>
<!-- Node3 -->
<g id="node3" class="node">
<title>Node3</title>
<g id="a_node3"><a xlink:href="group__switch__multilevel__command__class.html#ga866d4efa5431c875235b5540a38dcc4c" target="_top" xlink:title="This function initialize the Multilevel Switch Command Class handler.">
<polygon fill="none" stroke="black" points="186,-76 186,-106 308,-106 308,-76 186,-76"/>
<text text-anchor="start" x="194" y="-94" font-family="Helvetica,sans-Serif" font-size="10.00">zwave_command_class</text>
<text text-anchor="middle" x="247" y="-83" font-family="Helvetica,sans-Serif" font-size="10.00">_switch_multilevel_init</text>
</a>
</g>
</g>
<!-- Node2&#45;&gt;Node3 -->
<g id="edge2" class="edge">
<title>Node2&#45;&gt;Node3</title>
<path fill="none" stroke="midnightblue" d="M347.21,-81.73C334.44,-82.92 320.99,-84.18 308.26,-85.37"/>
<polygon fill="midnightblue" stroke="midnightblue" points="347.64,-85.2 357.28,-80.79 346.99,-78.23 347.64,-85.2"/>
</g>
<!-- Node4 -->
<g id="node4" class="node">
<title>Node4</title>
<g id="a_node4"><a xlink:href="group__command__classes__fixt.html#ga5272651939ced1723158340039e8da19" target="_top" xlink:title="Setup fixture for Z&#45;Wave Command Classes.">
<polygon fill="none" stroke="black" points="0,-81.5 0,-100.5 150,-100.5 150,-81.5 0,-81.5"/>
<text text-anchor="middle" x="75" y="-88.5" font-family="Helvetica,sans-Serif" font-size="10.00">zwave_command_classes_init</text>
</a>
</g>
</g>
<!-- Node3&#45;&gt;Node4 -->
<g id="edge3" class="edge">
<title>Node3&#45;&gt;Node4</title>
<path fill="none" stroke="midnightblue" d="M175.51,-91C167.16,-91 158.61,-91 150.21,-91"/>
<polygon fill="midnightblue" stroke="midnightblue" points="175.59,-94.5 185.59,-91 175.59,-87.5 175.59,-94.5"/>
</g>
<!-- Node6 -->
<g id="node6" class="node">
<title>Node6</title>
<g id="a_node6"><a xlink:href="zwave__command__class__basic_8c.html#a9bfdc42dbc2abe60e4a0a70ffeb05985" target="_top" xlink:title=" ">
<polygon fill="none" stroke="black" points="348.5,-171 348.5,-201 470.5,-201 470.5,-171 348.5,-171"/>
<text text-anchor="start" x="356.5" y="-189" font-family="Helvetica,sans-Serif" font-size="10.00">zwave_command_class</text>
<text text-anchor="middle" x="409.5" y="-178" font-family="Helvetica,sans-Serif" font-size="10.00">_basic_control_handler</text>
</a>
</g>
</g>
<!-- Node5&#45;&gt;Node6 -->
<g id="edge5" class="edge">
<title>Node5&#45;&gt;Node6</title>
<path fill="none" stroke="midnightblue" d="M505.44,-185.42C493.9,-185.49 482.04,-185.57 470.77,-185.63"/>
<polygon fill="midnightblue" stroke="midnightblue" points="505.49,-188.92 515.46,-185.36 505.44,-181.92 505.49,-188.92"/>
</g>
<!-- Node7 -->
<g id="node7" class="node">
<title>Node7</title>
<g id="a_node7"><a xlink:href="group__zwave__command__class__basic.html#ga6780c7bc2310c30c76e7a54aa101604f" target="_top" xlink:title="Initialize the basic command class handler.">
<polygon fill="none" stroke="black" points="186,-155 186,-185 308,-185 308,-155 186,-155"/>
<text text-anchor="start" x="194" y="-173" font-family="Helvetica,sans-Serif" font-size="10.00">zwave_command_class</text>
<text text-anchor="middle" x="247" y="-162" font-family="Helvetica,sans-Serif" font-size="10.00">_basic_init</text>
</a>
</g>
</g>
<!-- Node6&#45;&gt;Node7 -->
<g id="edge6" class="edge">
<title>Node6&#45;&gt;Node7</title>
<path fill="none" stroke="midnightblue" d="M338.29,-179C328.2,-177.99 317.89,-176.97 308.02,-175.98"/>
<polygon fill="midnightblue" stroke="midnightblue" points="337.98,-182.49 348.28,-180 338.68,-175.52 337.98,-182.49"/>
</g>
<!-- Node7&#45;&gt;Node4 -->
<g id="edge7" class="edge">
<title>Node7&#45;&gt;Node4</title>
<path fill="none" stroke="midnightblue" d="M204.34,-150.64C170.11,-134.74 123.09,-112.88 96.5,-100.53"/>
<polygon fill="midnightblue" stroke="midnightblue" points="203.08,-153.91 213.62,-154.95 206.03,-147.57 203.08,-153.91"/>
</g>
<!-- Node9 -->
<g id="node9" class="node">
<title>Node9</title>
<g id="a_node9"><a xlink:href="zwave__command__class__supervision_8c.html#a81051603777138c5a8aa82e61c1a131b" target="_top" xlink:title=" ">
<polygon fill="none" stroke="black" points="348.5,-0.5 348.5,-41.5 470.5,-41.5 470.5,-0.5 348.5,-0.5"/>
<text text-anchor="start" x="356.5" y="-29.5" font-family="Helvetica,sans-Serif" font-size="10.00">zwave_command_class</text>
<text text-anchor="start" x="356.5" y="-18.5" font-family="Helvetica,sans-Serif" font-size="10.00">_supervision_control</text>
<text text-anchor="middle" x="409.5" y="-7.5" font-family="Helvetica,sans-Serif" font-size="10.00">_handler</text>
</a>
</g>
</g>
<!-- Node8&#45;&gt;Node9 -->
<g id="edge9" class="edge">
<title>Node8&#45;&gt;Node9</title>
<path fill="none" stroke="midnightblue" d="M505.44,-23.3C493.9,-23.02 482.04,-22.73 470.77,-22.46"/>
<polygon fill="midnightblue" stroke="midnightblue" points="505.38,-26.8 515.46,-23.54 505.55,-19.8 505.38,-26.8"/>
</g>
<!-- Node10 -->
<g id="node10" class="node">
<title>Node10</title>
<g id="a_node10"><a xlink:href="group__zwave__command__class__supervision__handler.html#gaeaff3d9d85a38b52f67f91ea41163a72" target="_top" xlink:title="Setup fixture for the Supervision Command Class.">
<polygon fill="none" stroke="black" points="186,-24 186,-54 308,-54 308,-24 186,-24"/>
<text text-anchor="start" x="194" y="-42" font-family="Helvetica,sans-Serif" font-size="10.00">zwave_command_class</text>
<text text-anchor="middle" x="247" y="-31" font-family="Helvetica,sans-Serif" font-size="10.00">_supervision_init</text>
</a>
</g>
</g>
<!-- Node9&#45;&gt;Node10 -->
<g id="edge10" class="edge">
<title>Node9&#45;&gt;Node10</title>
<path fill="none" stroke="midnightblue" d="M338.29,-28.87C328.2,-30.01 317.89,-31.16 308.02,-32.27"/>
<polygon fill="midnightblue" stroke="midnightblue" points="338.73,-32.35 348.28,-27.75 337.95,-25.39 338.73,-32.35"/>
</g>
<!-- Node10&#45;&gt;Node4 -->
<g id="edge11" class="edge">
<title>Node10&#45;&gt;Node4</title>
<path fill="none" stroke="midnightblue" d="M187.12,-57.01C160.22,-65.24 129.45,-74.65 107.13,-81.48"/>
<polygon fill="midnightblue" stroke="midnightblue" points="188.29,-60.31 196.83,-54.04 186.24,-53.62 188.29,-60.31"/>
</g>
<!-- Node12 -->
<g id="node12" class="node">
<title>Node12</title>
<g id="a_node12"><a xlink:href="zwave__command__class__switch__multilevel_8c.html#ae3088526ca025e0a4f4d75d2c67dab7a" target="_top" xlink:title=" ">
<polygon fill="none" stroke="black" points="344,-110.5 344,-151.5 475,-151.5 475,-110.5 344,-110.5"/>
<text text-anchor="start" x="352" y="-139.5" font-family="Helvetica,sans-Serif" font-size="10.00">zwave_command_class</text>
<text text-anchor="start" x="352" y="-128.5" font-family="Helvetica,sans-Serif" font-size="10.00">_switch_multilevel_control</text>
<text text-anchor="middle" x="409.5" y="-117.5" font-family="Helvetica,sans-Serif" font-size="10.00">_handler</text>
</a>
</g>
</g>
<!-- Node11&#45;&gt;Node12 -->
<g id="edge13" class="edge">
<title>Node11&#45;&gt;Node12</title>
<path fill="none" stroke="midnightblue" d="M500.76,-129.91C492.18,-130.01 483.48,-130.12 475.05,-130.22"/>
<polygon fill="midnightblue" stroke="midnightblue" points="500.8,-133.41 510.76,-129.78 500.72,-126.41 500.8,-133.41"/>
</g>
<!-- Node12&#45;&gt;Node3 -->
<g id="edge14" class="edge">
<title>Node12&#45;&gt;Node3</title>
<path fill="none" stroke="midnightblue" d="M333.97,-112.42C325.31,-110.27 316.56,-108.09 308.13,-105.99"/>
<polygon fill="midnightblue" stroke="midnightblue" points="333.13,-115.82 343.68,-114.85 334.82,-109.03 333.13,-115.82"/>
</g>
</g>
</svg>
