<?xml version="1.0" encoding="UTF-8" standalone="no"?>
<!DOCTYPE svg PUBLIC "-//W3C//DTD SVG 1.1//EN"
 "http://www.w3.org/Graphics/SVG/1.1/DTD/svg11.dtd">
<!-- Generated by graphviz version 2.43.0 (0)
 -->
<!-- Title: network_management_stop_ongoing_operations Pages: 1 -->
<svg width="1640pt" height="543pt"
 viewBox="0.00 0.00 1640.00 542.50" xmlns="http://www.w3.org/2000/svg" xmlns:xlink="http://www.w3.org/1999/xlink">
<g id="graph0" class="graph" transform="scale(1 1) rotate(0) translate(4 538.5)">
<title>network_management_stop_ongoing_operations</title>
<!-- Node1 -->
<g id="node1" class="node">
<title>Node1</title>
<g id="a_node1"><a xlink:title="Makes sure that the Z&#45;Wave API is not performing any network management operation.">
<polygon fill="#bfbfbf" stroke="black" points="0,-346 0,-376 130,-376 130,-346 0,-346"/>
<text text-anchor="start" x="8" y="-364" font-family="Helvetica,sans-Serif" font-size="10.00">network_management</text>
<text text-anchor="middle" x="65" y="-353" font-family="Helvetica,sans-Serif" font-size="10.00">_stop_ongoing_operations</text>
</a>
</g>
</g>
<!-- Node2 -->
<g id="node2" class="node">
<title>Node2</title>
<g id="a_node2"><a xlink:href="group__ZWAPI__CONTROLLER.html#ga0cb52b0caf7e30cb792032c6a814b148" target="_top" xlink:title="Add any type of node to the network.">
<polygon fill="none" stroke="black" points="166,-307.5 166,-326.5 309,-326.5 309,-307.5 166,-307.5"/>
<text text-anchor="middle" x="237.5" y="-314.5" font-family="Helvetica,sans-Serif" font-size="10.00">zwapi_add_node_to_network</text>
</a>
</g>
</g>
<!-- Node1&#45;&gt;Node2 -->
<g id="edge1" class="edge">
<title>Node1&#45;&gt;Node2</title>
<path fill="none" stroke="midnightblue" d="M124.2,-345.98C145.57,-340.46 169.48,-334.3 189.72,-329.07"/>
<polygon fill="midnightblue" stroke="midnightblue" points="190.83,-332.4 199.64,-326.51 189.08,-325.62 190.83,-332.4"/>
</g>
<!-- Node30 -->
<g id="node30" class="node">
<title>Node30</title>
<g id="a_node30"><a xlink:href="group__ZWAPI__CONTROLLER.html#ga3e5775eb9485817712be83dc69d644e4" target="_top" xlink:title="Remove any type of node from the network.">
<polygon fill="none" stroke="black" points="172,-346 172,-376 303,-376 303,-346 172,-346"/>
<text text-anchor="start" x="180" y="-364" font-family="Helvetica,sans-Serif" font-size="10.00">zwapi_remove_node_from</text>
<text text-anchor="middle" x="237.5" y="-353" font-family="Helvetica,sans-Serif" font-size="10.00">_network</text>
</a>
</g>
</g>
<!-- Node1&#45;&gt;Node30 -->
<g id="edge44" class="edge">
<title>Node1&#45;&gt;Node30</title>
<path fill="none" stroke="midnightblue" d="M130.46,-361C140.64,-361 151.25,-361 161.65,-361"/>
<polygon fill="midnightblue" stroke="midnightblue" points="161.95,-364.5 171.95,-361 161.95,-357.5 161.95,-364.5"/>
</g>
<!-- Node31 -->
<g id="node31" class="node">
<title>Node31</title>
<g id="a_node31"><a xlink:href="group__ZWAPI__CONTROLLER.html#ga6e50a93518af078f107923bca22a6880" target="_top" xlink:title="Enable/disable Z&#45;Wave Learn Mode.">
<polygon fill="none" stroke="black" points="179.5,-395.5 179.5,-414.5 295.5,-414.5 295.5,-395.5 179.5,-395.5"/>
<text text-anchor="middle" x="237.5" y="-402.5" font-family="Helvetica,sans-Serif" font-size="10.00">zwapi_set_learn_mode</text>
</a>
</g>
</g>
<!-- Node1&#45;&gt;Node31 -->
<g id="edge46" class="edge">
<title>Node1&#45;&gt;Node31</title>
<path fill="none" stroke="midnightblue" d="M124.2,-376.02C145.57,-381.54 169.48,-387.7 189.72,-392.93"/>
<polygon fill="midnightblue" stroke="midnightblue" points="189.08,-396.38 199.64,-395.49 190.83,-389.6 189.08,-396.38"/>
</g>
<!-- Node3 -->
<g id="node3" class="node">
<title>Node3</title>
<g id="a_node3"><a xlink:href="zwapi__init_8c.html#a67064ee382c07d0af51a9d9339b3fcde" target="_top" xlink:title="Verifies that the command is supported by the Z&#45;Wave module.">
<polygon fill="none" stroke="black" points="345,-332.5 345,-351.5 461,-351.5 461,-332.5 345,-332.5"/>
<text text-anchor="middle" x="403" y="-339.5" font-family="Helvetica,sans-Serif" font-size="10.00">zwapi_send_command</text>
</a>
</g>
</g>
<!-- Node2&#45;&gt;Node3 -->
<g id="edge2" class="edge">
<title>Node2&#45;&gt;Node3</title>
<path fill="none" stroke="midnightblue" d="M300.78,-326.52C311.9,-328.22 323.54,-330 334.79,-331.72"/>
<polygon fill="midnightblue" stroke="midnightblue" points="334.58,-335.23 345,-333.28 335.64,-328.31 334.58,-335.23"/>
</g>
<!-- Node4 -->
<g id="node4" class="node">
<title>Node4</title>
<g id="a_node4"><a xlink:href="zwapi__session_8c.html#a32577f3500efc3d937dbc68eebb3c370" target="_top" xlink:title="Send data frame to Z&#45;Wave chip via serial port and wait for ACK.">
<polygon fill="none" stroke="black" points="695,-315 695,-345 802,-345 802,-315 695,-315"/>
<text text-anchor="start" x="703" y="-333" font-family="Helvetica,sans-Serif" font-size="10.00">zwapi_session_send</text>
<text text-anchor="middle" x="748.5" y="-322" font-family="Helvetica,sans-Serif" font-size="10.00">_frame</text>
</a>
</g>
</g>
<!-- Node3&#45;&gt;Node4 -->
<g id="edge3" class="edge">
<title>Node3&#45;&gt;Node4</title>
<path fill="none" stroke="midnightblue" d="M461.11,-340C522.73,-337.85 620.59,-334.43 684.44,-332.2"/>
<polygon fill="midnightblue" stroke="midnightblue" points="684.9,-335.69 694.77,-331.84 684.65,-328.69 684.9,-335.69"/>
</g>
<!-- Node29 -->
<g id="node29" class="node">
<title>Node29</title>
<g id="a_node29"><a xlink:href="group__ZWAPI__INIT.html#ga0a823074baec69913d0e8590b46e4e33" target="_top" xlink:title="Check if a command is supported by the connected Z&#45;Wave module.">
<polygon fill="none" stroke="black" points="497,-362.5 497,-381.5 649,-381.5 649,-362.5 497,-362.5"/>
<text text-anchor="middle" x="573" y="-369.5" font-family="Helvetica,sans-Serif" font-size="10.00">zwapi_support_command_func</text>
</a>
</g>
</g>
<!-- Node3&#45;&gt;Node29 -->
<g id="edge43" class="edge">
<title>Node3&#45;&gt;Node29</title>
<path fill="none" stroke="midnightblue" d="M457.62,-351.57C473.76,-354.46 491.63,-357.65 508.36,-360.64"/>
<polygon fill="midnightblue" stroke="midnightblue" points="508.14,-364.15 518.6,-362.46 509.37,-357.26 508.14,-364.15"/>
</g>
<!-- Node5 -->
<g id="node5" class="node">
<title>Node5</title>
<g id="a_node5"><a xlink:href="zwapi__connection_8c.html#a13b6e6b6c56844f4344fabe490bc5eac" target="_top" xlink:title="Closes and re&#45;initializes the zwapi_connection to the Z&#45;Wave module.">
<polygon fill="none" stroke="black" points="1008,-157.5 1008,-176.5 1136,-176.5 1136,-157.5 1008,-157.5"/>
<text text-anchor="middle" x="1072" y="-164.5" font-family="Helvetica,sans-Serif" font-size="10.00">zwapi_connection_restart</text>
</a>
</g>
</g>
<!-- Node4&#45;&gt;Node5 -->
<g id="edge4" class="edge">
<title>Node4&#45;&gt;Node5</title>
<path fill="none" stroke="midnightblue" d="M755.33,-314.6C767.46,-284.89 798.51,-220.04 848,-191 892.8,-164.7 951.47,-159.3 997.39,-160.15"/>
<polygon fill="midnightblue" stroke="midnightblue" points="997.48,-163.65 1007.57,-160.44 997.68,-156.66 997.48,-163.65"/>
</g>
<!-- Node15 -->
<g id="node15" class="node">
<title>Node15</title>
<g id="a_node15"><a xlink:href="zwapi__timestamp_8c.html#a6ebe1ddfe689bce6ee72fc12f708aece" target="_top" xlink:title="get the timestamp">
<polygon fill="none" stroke="black" points="1181,-164.5 1181,-183.5 1293,-183.5 1293,-164.5 1181,-164.5"/>
<text text-anchor="middle" x="1237" y="-171.5" font-family="Helvetica,sans-Serif" font-size="10.00">zwapi_timestamp_get</text>
</a>
</g>
</g>
<!-- Node4&#45;&gt;Node15 -->
<g id="edge42" class="edge">
<title>Node4&#45;&gt;Node15</title>
<path fill="none" stroke="midnightblue" d="M782.71,-314.96C801.77,-306.37 826.18,-295.47 848,-286 918.35,-255.47 933.66,-241.4 1007,-219 1061.15,-202.46 1124.42,-190.57 1170.72,-183.18"/>
<polygon fill="midnightblue" stroke="midnightblue" points="1171.29,-186.63 1180.63,-181.63 1170.2,-179.72 1171.29,-186.63"/>
</g>
<!-- Node16 -->
<g id="node16" class="node">
<title>Node16</title>
<g id="a_node16"><a xlink:href="zwapi__connection_8c.html#af47f8cbd93974d5c91d659fdeb7a870b" target="_top" xlink:title="Transmit a frame via serial port by adding SOF, Len, Type, cmd and Checksum.">
<polygon fill="none" stroke="black" points="1018,-119.5 1018,-138.5 1126,-138.5 1126,-119.5 1018,-119.5"/>
<text text-anchor="middle" x="1072" y="-126.5" font-family="Helvetica,sans-Serif" font-size="10.00">zwapi_connection_tx</text>
</a>
</g>
</g>
<!-- Node4&#45;&gt;Node16 -->
<g id="edge15" class="edge">
<title>Node4&#45;&gt;Node16</title>
<path fill="none" stroke="midnightblue" d="M753.19,-314.82C762.46,-280.23 790.24,-195.6 848,-157 894.85,-125.7 959.8,-120.8 1007.53,-122.48"/>
<polygon fill="midnightblue" stroke="midnightblue" points="1007.59,-125.98 1017.74,-122.95 1007.91,-118.99 1007.59,-125.98"/>
</g>
<!-- Node18 -->
<g id="node18" class="node">
<title>Node18</title>
<g id="a_node18"><a xlink:href="zwapi__timestamp_8c.html#a3925f2732e344672608db38351236688" target="_top" xlink:title="compare the current timestamp with the timestamp passed as an argument">
<polygon fill="none" stroke="black" points="1184,-367 1184,-397 1290,-397 1290,-367 1184,-367"/>
<text text-anchor="start" x="1192" y="-385" font-family="Helvetica,sans-Serif" font-size="10.00">zwapi_is_timestamp</text>
<text text-anchor="middle" x="1237" y="-374" font-family="Helvetica,sans-Serif" font-size="10.00">_elapsed</text>
</a>
</g>
</g>
<!-- Node4&#45;&gt;Node18 -->
<g id="edge20" class="edge">
<title>Node4&#45;&gt;Node18</title>
<path fill="none" stroke="midnightblue" d="M802.03,-335.61C892.35,-345.27 1076.68,-364.97 1173.47,-375.32"/>
<polygon fill="midnightblue" stroke="midnightblue" points="1173.38,-378.83 1183.69,-376.41 1174.12,-371.87 1173.38,-378.83"/>
</g>
<!-- Node19 -->
<g id="node19" class="node">
<title>Node19</title>
<g id="a_node19"><a xlink:href="zwapi__session_8c.html#a1f2b3e7c2dcf31708ef8d333747352ba" target="_top" xlink:title=" ">
<polygon fill="none" stroke="black" points="1010.5,-441 1010.5,-471 1133.5,-471 1133.5,-441 1010.5,-441"/>
<text text-anchor="start" x="1018.5" y="-459" font-family="Helvetica,sans-Serif" font-size="10.00">zwapi_session_enqueue</text>
<text text-anchor="middle" x="1072" y="-448" font-family="Helvetica,sans-Serif" font-size="10.00">_frame</text>
</a>
</g>
</g>
<!-- Node4&#45;&gt;Node19 -->
<g id="edge21" class="edge">
<title>Node4&#45;&gt;Node19</title>
<path fill="none" stroke="midnightblue" d="M764.54,-345.35C789.57,-370.73 838.01,-419.14 848,-424 895.42,-447.04 954.74,-454.69 1000.27,-456.77"/>
<polygon fill="midnightblue" stroke="midnightblue" points="1000.23,-460.27 1010.35,-457.15 1000.49,-453.27 1000.23,-460.27"/>
</g>
<!-- Node23 -->
<g id="node23" class="node">
<title>Node23</title>
<g id="a_node23"><a xlink:href="zwapi__session_8c.html#a2875fbfa250b7b25ecb6bc4f0b032cb8" target="_top" xlink:title="Loads the received frames from the serial device into the zwapi_session receive queue.">
<polygon fill="none" stroke="black" points="848,-384 848,-414 971,-414 971,-384 848,-384"/>
<text text-anchor="start" x="856" y="-402" font-family="Helvetica,sans-Serif" font-size="10.00">zwapi_session_enqueue</text>
<text text-anchor="middle" x="909.5" y="-391" font-family="Helvetica,sans-Serif" font-size="10.00">_rx_frames</text>
</a>
</g>
</g>
<!-- Node4&#45;&gt;Node23 -->
<g id="edge25" class="edge">
<title>Node4&#45;&gt;Node23</title>
<path fill="none" stroke="midnightblue" d="M784.39,-345.14C807.9,-355.34 839.1,-368.88 864.34,-379.83"/>
<polygon fill="midnightblue" stroke="midnightblue" points="863.12,-383.12 873.69,-383.89 865.91,-376.7 863.12,-383.12"/>
</g>
<!-- Node28 -->
<g id="node28" class="node">
<title>Node28</title>
<g id="a_node28"><a xlink:href="zwapi__session_8c.html#a9d30e1677f02d7730ab035aa9333235d" target="_top" xlink:title=" ">
<polygon fill="none" stroke="black" points="857.5,-296 857.5,-326 961.5,-326 961.5,-296 857.5,-296"/>
<text text-anchor="start" x="865.5" y="-314" font-family="Helvetica,sans-Serif" font-size="10.00">zwapi_session_wait</text>
<text text-anchor="middle" x="909.5" y="-303" font-family="Helvetica,sans-Serif" font-size="10.00">_for_response</text>
</a>
</g>
</g>
<!-- Node4&#45;&gt;Node28 -->
<g id="edge38" class="edge">
<title>Node4&#45;&gt;Node28</title>
<path fill="none" stroke="midnightblue" d="M802,-323.73C816.48,-322 832.32,-320.1 847.24,-318.32"/>
<polygon fill="midnightblue" stroke="midnightblue" points="847.89,-321.77 857.4,-317.11 847.06,-314.82 847.89,-321.77"/>
</g>
<!-- Node6 -->
<g id="node6" class="node">
<title>Node6</title>
<g id="a_node6"><a xlink:href="zwapi__serial_8c.html#a3f2b3bd848e9fe0e6e137482bed06b46" target="_top" xlink:title="Flush the serial output if using buffered output.">
<polygon fill="none" stroke="black" points="1188.5,-115 1188.5,-145 1285.5,-145 1285.5,-115 1188.5,-115"/>
<text text-anchor="start" x="1196.5" y="-133" font-family="Helvetica,sans-Serif" font-size="10.00">zwapi_serial_drain</text>
<text text-anchor="middle" x="1237" y="-122" font-family="Helvetica,sans-Serif" font-size="10.00">_buffer</text>
</a>
</g>
</g>
<!-- Node5&#45;&gt;Node6 -->
<g id="edge5" class="edge">
<title>Node5&#45;&gt;Node6</title>
<path fill="none" stroke="midnightblue" d="M1114.98,-157.47C1134.36,-153.07 1157.67,-147.78 1178.64,-143.02"/>
<polygon fill="midnightblue" stroke="midnightblue" points="1179.43,-146.43 1188.41,-140.8 1177.88,-139.6 1179.43,-146.43"/>
</g>
<!-- Node7 -->
<g id="node7" class="node">
<title>Node7</title>
<g id="a_node7"><a xlink:href="zwapi__serial_8c.html#a7762d0358e9f398b92edbfd6a550984a" target="_top" xlink:title="Write a byte to serial port device.">
<polygon fill="none" stroke="black" points="1180.5,-202.5 1180.5,-221.5 1293.5,-221.5 1293.5,-202.5 1180.5,-202.5"/>
<text text-anchor="middle" x="1237" y="-209.5" font-family="Helvetica,sans-Serif" font-size="10.00">zwapi_serial_put_byte</text>
</a>
</g>
</g>
<!-- Node5&#45;&gt;Node7 -->
<g id="edge6" class="edge">
<title>Node5&#45;&gt;Node7</title>
<path fill="none" stroke="midnightblue" d="M1107.57,-176.54C1132.1,-183.31 1165.23,-192.46 1191.7,-199.77"/>
<polygon fill="midnightblue" stroke="midnightblue" points="1190.91,-203.18 1201.48,-202.47 1192.77,-196.44 1190.91,-203.18"/>
</g>
<!-- Node11 -->
<g id="node11" class="node">
<title>Node11</title>
<g id="a_node11"><a xlink:href="zwapi__serial_8c.html#aadf3397d0bd2c1657d4b1a373599acfe" target="_top" xlink:title="Closes and re&#45;initialize the last open serial port.">
<polygon fill="none" stroke="black" points="1185,-38.5 1185,-57.5 1289,-57.5 1289,-38.5 1185,-38.5"/>
<text text-anchor="middle" x="1237" y="-45.5" font-family="Helvetica,sans-Serif" font-size="10.00">zwapi_serial_restart</text>
</a>
</g>
</g>
<!-- Node5&#45;&gt;Node11 -->
<g id="edge10" class="edge">
<title>Node5&#45;&gt;Node11</title>
<path fill="none" stroke="midnightblue" d="M1117.54,-157.48C1124.36,-154.99 1131.09,-151.88 1137,-148 1157.83,-134.32 1155.72,-122.96 1173,-105 1186.93,-90.53 1203.86,-75.32 1216.67,-64.26"/>
<polygon fill="midnightblue" stroke="midnightblue" points="1219.08,-66.8 1224.41,-57.64 1214.54,-61.48 1219.08,-66.8"/>
</g>
<!-- Node5&#45;&gt;Node15 -->
<g id="edge14" class="edge">
<title>Node5&#45;&gt;Node15</title>
<path fill="none" stroke="midnightblue" d="M1136.02,-169.71C1147.34,-170.19 1159.16,-170.7 1170.54,-171.19"/>
<polygon fill="midnightblue" stroke="midnightblue" points="1170.71,-174.7 1180.85,-171.63 1171.01,-167.71 1170.71,-174.7"/>
</g>
<!-- Node8 -->
<g id="node8" class="node">
<title>Node8</title>
<g id="a_node8"><a xlink:href="zwapi__serial_8c.html#af9054824651df422bab5076d16a80fda" target="_top" xlink:title="Writes the content of a buffer to the serial port device.">
<polygon fill="none" stroke="black" points="1337,-201.5 1337,-220.5 1456,-220.5 1456,-201.5 1337,-201.5"/>
<text text-anchor="middle" x="1396.5" y="-208.5" font-family="Helvetica,sans-Serif" font-size="10.00">zwapi_serial_put_buffer</text>
</a>
</g>
</g>
<!-- Node7&#45;&gt;Node8 -->
<g id="edge7" class="edge">
<title>Node7&#45;&gt;Node8</title>
<path fill="none" stroke="midnightblue" d="M1293.53,-211.65C1304.24,-211.58 1315.59,-211.51 1326.66,-211.44"/>
<polygon fill="midnightblue" stroke="midnightblue" points="1326.76,-214.94 1336.74,-211.37 1326.71,-207.94 1326.76,-214.94"/>
</g>
<!-- Node9 -->
<g id="node9" class="node">
<title>Node9</title>
<g id="a_node9"><a xlink:href="zwapi__serial_8c.html#a0accbbf7ddb7aeab10f5df1fe3df6642" target="_top" xlink:title=" ">
<polygon fill="none" stroke="black" points="1492,-242.5 1492,-261.5 1632,-261.5 1632,-242.5 1492,-242.5"/>
<text text-anchor="middle" x="1562" y="-249.5" font-family="Helvetica,sans-Serif" font-size="10.00">zwapi_serial_log_timestamp</text>
</a>
</g>
</g>
<!-- Node8&#45;&gt;Node9 -->
<g id="edge8" class="edge">
<title>Node8&#45;&gt;Node9</title>
<path fill="none" stroke="midnightblue" d="M1435.42,-220.51C1458.55,-226.31 1488.33,-233.78 1513.09,-239.99"/>
<polygon fill="midnightblue" stroke="midnightblue" points="1512.45,-243.43 1523,-242.47 1514.15,-236.64 1512.45,-243.43"/>
</g>
<!-- Node10 -->
<g id="node10" class="node">
<title>Node10</title>
<g id="a_node10"><a xlink:href="zwapi__serial_8c.html#abf18afb71e14daaf65d937149ef1639f" target="_top" xlink:title="Test if a is less than b + ms.">
<polygon fill="none" stroke="black" points="1508.5,-193 1508.5,-223 1615.5,-223 1615.5,-193 1508.5,-193"/>
<text text-anchor="start" x="1516.5" y="-211" font-family="Helvetica,sans-Serif" font-size="10.00">zwapi_serial_timeval</text>
<text text-anchor="middle" x="1562" y="-200" font-family="Helvetica,sans-Serif" font-size="10.00">_a_lt_b_milis</text>
</a>
</g>
</g>
<!-- Node8&#45;&gt;Node10 -->
<g id="edge9" class="edge">
<title>Node8&#45;&gt;Node10</title>
<path fill="none" stroke="midnightblue" d="M1456.07,-209.93C1469.65,-209.68 1484.16,-209.41 1497.92,-209.16"/>
<polygon fill="midnightblue" stroke="midnightblue" points="1498.34,-212.65 1508.28,-208.97 1498.22,-205.65 1498.34,-212.65"/>
</g>
<!-- Node12 -->
<g id="node12" class="node">
<title>Node12</title>
<g id="a_node12"><a xlink:href="zwapi__serial_8c.html#aae586785021ac9a605cd77651429f0c9" target="_top" xlink:title="De&#45;Initialize the serial port.">
<polygon fill="none" stroke="black" points="1347,-57.5 1347,-76.5 1446,-76.5 1446,-57.5 1347,-57.5"/>
<text text-anchor="middle" x="1396.5" y="-64.5" font-family="Helvetica,sans-Serif" font-size="10.00">zwapi_serial_close</text>
</a>
</g>
</g>
<!-- Node11&#45;&gt;Node12 -->
<g id="edge11" class="edge">
<title>Node11&#45;&gt;Node12</title>
<path fill="none" stroke="midnightblue" d="M1289.14,-54.17C1304.31,-56 1321.06,-58.02 1336.68,-59.9"/>
<polygon fill="midnightblue" stroke="midnightblue" points="1336.42,-63.4 1346.76,-61.12 1337.25,-56.45 1336.42,-63.4"/>
</g>
<!-- Node13 -->
<g id="node13" class="node">
<title>Node13</title>
<g id="a_node13"><a xlink:href="zwapi__serial_8c.html#a07b09de97f4932d882fc77e191c44638" target="_top" xlink:title="Initialize the serial port to 115200 BAUD 8N1.">
<polygon fill="none" stroke="black" points="1352,-19.5 1352,-38.5 1441,-38.5 1441,-19.5 1352,-19.5"/>
<text text-anchor="middle" x="1396.5" y="-26.5" font-family="Helvetica,sans-Serif" font-size="10.00">zwapi_serial_init</text>
</a>
</g>
</g>
<!-- Node11&#45;&gt;Node13 -->
<g id="edge12" class="edge">
<title>Node11&#45;&gt;Node13</title>
<path fill="none" stroke="midnightblue" d="M1289.14,-41.83C1305.87,-39.81 1324.51,-37.56 1341.46,-35.52"/>
<polygon fill="midnightblue" stroke="midnightblue" points="1342.25,-38.95 1351.76,-34.28 1341.41,-32 1342.25,-38.95"/>
</g>
<!-- Node14 -->
<g id="node14" class="node">
<title>Node14</title>
<g id="a_node14"><a xlink:href="zwapi__serial_8c.html#aefeac5909b0bf6411db1492f69c3bc68" target="_top" xlink:title=" ">
<polygon fill="none" stroke="black" points="1502.5,-19.5 1502.5,-38.5 1621.5,-38.5 1621.5,-19.5 1502.5,-19.5"/>
<text text-anchor="middle" x="1562" y="-26.5" font-family="Helvetica,sans-Serif" font-size="10.00">zwapi_open_serial_port</text>
</a>
</g>
</g>
<!-- Node13&#45;&gt;Node14 -->
<g id="edge13" class="edge">
<title>Node13&#45;&gt;Node14</title>
<path fill="none" stroke="midnightblue" d="M1441.31,-29C1456.97,-29 1475.01,-29 1492.26,-29"/>
<polygon fill="midnightblue" stroke="midnightblue" points="1492.3,-32.5 1502.3,-29 1492.3,-25.5 1492.3,-32.5"/>
</g>
<!-- Node16&#45;&gt;Node6 -->
<g id="edge17" class="edge">
<title>Node16&#45;&gt;Node6</title>
<path fill="none" stroke="midnightblue" d="M1126.37,-129.33C1142.9,-129.43 1161.19,-129.54 1178.02,-129.64"/>
<polygon fill="midnightblue" stroke="midnightblue" points="1178.26,-133.15 1188.28,-129.71 1178.3,-126.15 1178.26,-133.15"/>
</g>
<!-- Node16&#45;&gt;Node8 -->
<g id="edge18" class="edge">
<title>Node16&#45;&gt;Node8</title>
<path fill="none" stroke="midnightblue" d="M1095.55,-119.39C1137.88,-102.87 1231.26,-73.75 1301,-105 1340.92,-122.89 1370.9,-166.91 1385.54,-192.24"/>
<polygon fill="midnightblue" stroke="midnightblue" points="1382.63,-194.2 1390.55,-201.23 1388.74,-190.79 1382.63,-194.2"/>
</g>
<!-- Node16&#45;&gt;Node15 -->
<g id="edge19" class="edge">
<title>Node16&#45;&gt;Node15</title>
<path fill="none" stroke="midnightblue" d="M1107.57,-138.54C1132.1,-145.31 1165.23,-154.46 1191.7,-161.77"/>
<polygon fill="midnightblue" stroke="midnightblue" points="1190.91,-165.18 1201.48,-164.47 1192.77,-158.44 1190.91,-165.18"/>
</g>
<!-- Node17 -->
<g id="node17" class="node">
<title>Node17</title>
<g id="a_node17"><a xlink:href="zwapi__connection_8c.html#a96d24d537c5b8d6aa0aa6a7638ba2f09" target="_top" xlink:title=" ">
<polygon fill="none" stroke="black" points="1179.5,-0.5 1179.5,-19.5 1294.5,-19.5 1294.5,-0.5 1179.5,-0.5"/>
<text text-anchor="middle" x="1237" y="-7.5" font-family="Helvetica,sans-Serif" font-size="10.00">zwapi_frame_to_string</text>
</a>
</g>
</g>
<!-- Node16&#45;&gt;Node17 -->
<g id="edge16" class="edge">
<title>Node16&#45;&gt;Node17</title>
<path fill="none" stroke="midnightblue" d="M1079.87,-119.47C1094.65,-99.66 1131.49,-53.83 1173,-29 1176.58,-26.86 1180.43,-24.94 1184.39,-23.22"/>
<polygon fill="midnightblue" stroke="midnightblue" points="1185.71,-26.46 1193.76,-19.58 1183.17,-19.94 1185.71,-26.46"/>
</g>
<!-- Node20 -->
<g id="node20" class="node">
<title>Node20</title>
<g id="a_node20"><a xlink:href="zwapi__connection_8c.html#a91ce3acd7eff779496789637a9c27f40" target="_top" xlink:title="Provides the data of the serial buffer for the last received frame.">
<polygon fill="none" stroke="black" points="1180.5,-504 1180.5,-534 1293.5,-534 1293.5,-504 1180.5,-504"/>
<text text-anchor="start" x="1188.5" y="-522" font-family="Helvetica,sans-Serif" font-size="10.00">zwapi_connection_get</text>
<text text-anchor="middle" x="1237" y="-511" font-family="Helvetica,sans-Serif" font-size="10.00">_last_rx_frame</text>
</a>
</g>
</g>
<!-- Node19&#45;&gt;Node20 -->
<g id="edge22" class="edge">
<title>Node19&#45;&gt;Node20</title>
<path fill="none" stroke="midnightblue" d="M1111.44,-471.07C1130.02,-478.34 1152.66,-487.16 1173,-495 1177.47,-496.72 1182.13,-498.51 1186.79,-500.3"/>
<polygon fill="midnightblue" stroke="midnightblue" points="1185.74,-503.64 1196.33,-503.94 1188.23,-497.1 1185.74,-503.64"/>
</g>
<!-- Node21 -->
<g id="node21" class="node">
<title>Node21</title>
<g id="a_node21"><a xlink:href="zwapi__session_8c.html#ad7bac697ee2388b38ed3777b5a3862bc" target="_top" xlink:title=" ">
<polygon fill="none" stroke="black" points="1180.5,-455 1180.5,-485 1293.5,-485 1293.5,-455 1180.5,-455"/>
<text text-anchor="start" x="1188.5" y="-473" font-family="Helvetica,sans-Serif" font-size="10.00">zwapi_session_get_rx</text>
<text text-anchor="middle" x="1237" y="-462" font-family="Helvetica,sans-Serif" font-size="10.00">_queue_length</text>
</a>
</g>
</g>
<!-- Node19&#45;&gt;Node21 -->
<g id="edge23" class="edge">
<title>Node19&#45;&gt;Node21</title>
<path fill="none" stroke="midnightblue" d="M1133.7,-461.21C1145.65,-462.24 1158.24,-463.32 1170.34,-464.36"/>
<polygon fill="midnightblue" stroke="midnightblue" points="1170.11,-467.85 1180.37,-465.22 1170.71,-460.88 1170.11,-467.85"/>
</g>
<!-- Node22 -->
<g id="node22" class="node">
<title>Node22</title>
<g id="a_node22"><a xlink:href="group__ZWAPI__INIT.html#ga438a74c9752197d20d377874d5a61694" target="_top" xlink:title="Returns the pointer to the callbacks registered at init.">
<polygon fill="none" stroke="black" points="1173,-416.5 1173,-435.5 1301,-435.5 1301,-416.5 1173,-416.5"/>
<text text-anchor="middle" x="1237" y="-423.5" font-family="Helvetica,sans-Serif" font-size="10.00">zwave_api_get_callbacks</text>
</a>
</g>
</g>
<!-- Node19&#45;&gt;Node22 -->
<g id="edge24" class="edge">
<title>Node19&#45;&gt;Node22</title>
<path fill="none" stroke="midnightblue" d="M1133.7,-444.83C1146.97,-442.39 1161.03,-439.8 1174.34,-437.35"/>
<polygon fill="midnightblue" stroke="midnightblue" points="1175.14,-440.76 1184.34,-435.51 1173.87,-433.88 1175.14,-440.76"/>
</g>
<!-- Node23&#45;&gt;Node19 -->
<g id="edge37" class="edge">
<title>Node23&#45;&gt;Node19</title>
<path fill="none" stroke="midnightblue" d="M953.09,-414.13C973.3,-421.3 997.64,-429.95 1018.94,-437.51"/>
<polygon fill="midnightblue" stroke="midnightblue" points="1017.9,-440.85 1028.49,-440.9 1020.24,-434.26 1017.9,-440.85"/>
</g>
<!-- Node24 -->
<g id="node24" class="node">
<title>Node24</title>
<g id="a_node24"><a xlink:href="zwapi__connection_8c.html#a1e45c6c9695b5e7b415adfad40080720" target="_top" xlink:title="Parses serial data sent from the Z&#45;Wave module to the serial port. Should be frequently called by mai...">
<polygon fill="none" stroke="black" points="1007,-271.5 1007,-290.5 1137,-290.5 1137,-271.5 1007,-271.5"/>
<text text-anchor="middle" x="1072" y="-278.5" font-family="Helvetica,sans-Serif" font-size="10.00">zwapi_connection_refresh</text>
</a>
</g>
</g>
<!-- Node23&#45;&gt;Node24 -->
<g id="edge26" class="edge">
<title>Node23&#45;&gt;Node24</title>
<path fill="none" stroke="midnightblue" d="M931.15,-383.82C961.67,-361.38 1018.52,-319.58 1049.51,-296.8"/>
<polygon fill="midnightblue" stroke="midnightblue" points="1051.9,-299.39 1057.88,-290.65 1047.75,-293.75 1051.9,-299.39"/>
</g>
<!-- Node24&#45;&gt;Node6 -->
<g id="edge28" class="edge">
<title>Node24&#45;&gt;Node6</title>
<path fill="none" stroke="midnightblue" d="M1078.23,-271.38C1091.28,-248.23 1127.49,-188.8 1173,-155 1175.47,-153.16 1178.09,-151.44 1180.81,-149.83"/>
<polygon fill="midnightblue" stroke="midnightblue" points="1182.58,-152.85 1189.76,-145.06 1179.29,-146.68 1182.58,-152.85"/>
</g>
<!-- Node24&#45;&gt;Node7 -->
<g id="edge35" class="edge">
<title>Node24&#45;&gt;Node7</title>
<path fill="none" stroke="midnightblue" d="M1101.47,-271.5C1112.71,-267.44 1125.64,-262.4 1137,-257 1153.73,-249.05 1156.29,-243.99 1173,-236 1181.13,-232.11 1190.07,-228.39 1198.6,-225.09"/>
<polygon fill="midnightblue" stroke="midnightblue" points="1199.86,-228.35 1207.99,-221.55 1197.4,-221.8 1199.86,-228.35"/>
</g>
<!-- Node24&#45;&gt;Node15 -->
<g id="edge36" class="edge">
<title>Node24&#45;&gt;Node15</title>
<path fill="none" stroke="midnightblue" d="M1111.6,-271.46C1120.61,-267.95 1129.7,-263.26 1137,-257 1161.78,-235.76 1147.53,-213.41 1173,-193 1175.26,-191.19 1177.68,-189.55 1180.22,-188.07"/>
<polygon fill="midnightblue" stroke="midnightblue" points="1181.81,-191.19 1189.22,-183.61 1178.7,-184.92 1181.81,-191.19"/>
</g>
<!-- Node24&#45;&gt;Node18 -->
<g id="edge27" class="edge">
<title>Node24&#45;&gt;Node18</title>
<path fill="none" stroke="midnightblue" d="M1109.87,-290.52C1119.32,-294.07 1129.04,-298.8 1137,-305 1159.17,-322.28 1150.99,-339.51 1173,-357 1175.25,-358.78 1177.63,-360.46 1180.12,-362.02"/>
<polygon fill="midnightblue" stroke="midnightblue" points="1178.43,-365.09 1188.87,-366.93 1181.86,-358.98 1178.43,-365.09"/>
</g>
<!-- Node25 -->
<g id="node25" class="node">
<title>Node25</title>
<g id="a_node25"><a xlink:href="zwapi__serial_8c.html#a538134f9fdbb1ce052667b3a041357bd" target="_top" xlink:title="Reads the output of the serial port device and stores the content in a buffer.">
<polygon fill="none" stroke="black" points="1337,-241.5 1337,-260.5 1456,-260.5 1456,-241.5 1337,-241.5"/>
<text text-anchor="middle" x="1396.5" y="-248.5" font-family="Helvetica,sans-Serif" font-size="10.00">zwapi_serial_get_buffer</text>
</a>
</g>
</g>
<!-- Node24&#45;&gt;Node25 -->
<g id="edge29" class="edge">
<title>Node24&#45;&gt;Node25</title>
<path fill="none" stroke="midnightblue" d="M1137.24,-272.92C1149.12,-271.53 1161.43,-270.16 1173,-269 1224.51,-263.83 1282.86,-259.15 1326.87,-255.86"/>
<polygon fill="midnightblue" stroke="midnightblue" points="1327.17,-259.35 1336.89,-255.12 1326.65,-252.37 1327.17,-259.35"/>
</g>
<!-- Node26 -->
<g id="node26" class="node">
<title>Node26</title>
<g id="a_node26"><a xlink:href="zwapi__serial_8c.html#abb082b1e7e727203e3ca5fbeb41f7c2b" target="_top" xlink:title="Reads a byte from the serial port device.">
<polygon fill="none" stroke="black" points="1180.5,-328.5 1180.5,-347.5 1293.5,-347.5 1293.5,-328.5 1180.5,-328.5"/>
<text text-anchor="middle" x="1237" y="-335.5" font-family="Helvetica,sans-Serif" font-size="10.00">zwapi_serial_get_byte</text>
</a>
</g>
</g>
<!-- Node24&#45;&gt;Node26 -->
<g id="edge32" class="edge">
<title>Node24&#45;&gt;Node26</title>
<path fill="none" stroke="midnightblue" d="M1098.27,-290.5C1122.99,-299.77 1158.91,-313.16 1173,-318 1180.09,-320.43 1187.66,-322.93 1195.01,-325.29"/>
<polygon fill="midnightblue" stroke="midnightblue" points="1194.23,-328.72 1204.82,-328.42 1196.36,-322.05 1194.23,-328.72"/>
</g>
<!-- Node27 -->
<g id="node27" class="node">
<title>Node27</title>
<g id="a_node27"><a xlink:href="zwapi__serial_8c.html#a9a952dc2b34d92960246f6dc4e7d58f7" target="_top" xlink:title="Check the file descriptor for the serial device is available for I/O operations.">
<polygon fill="none" stroke="black" points="1186.5,-279 1186.5,-309 1287.5,-309 1287.5,-279 1186.5,-279"/>
<text text-anchor="start" x="1194.5" y="-297" font-family="Helvetica,sans-Serif" font-size="10.00">zwapi_serial_is_file</text>
<text text-anchor="middle" x="1237" y="-286" font-family="Helvetica,sans-Serif" font-size="10.00">_available</text>
</a>
</g>
</g>
<!-- Node24&#45;&gt;Node27 -->
<g id="edge34" class="edge">
<title>Node24&#45;&gt;Node27</title>
<path fill="none" stroke="midnightblue" d="M1137.42,-286.14C1150.27,-287.16 1163.71,-288.23 1176.39,-289.25"/>
<polygon fill="midnightblue" stroke="midnightblue" points="1176.13,-292.74 1186.37,-290.04 1176.68,-285.76 1176.13,-292.74"/>
</g>
<!-- Node25&#45;&gt;Node9 -->
<g id="edge30" class="edge">
<title>Node25&#45;&gt;Node9</title>
<path fill="none" stroke="midnightblue" d="M1456.07,-251.36C1464.43,-251.41 1473.15,-251.46 1481.82,-251.52"/>
<polygon fill="midnightblue" stroke="midnightblue" points="1481.95,-255.02 1491.97,-251.58 1481.99,-248.02 1481.95,-255.02"/>
</g>
<!-- Node25&#45;&gt;Node10 -->
<g id="edge31" class="edge">
<title>Node25&#45;&gt;Node10</title>
<path fill="none" stroke="midnightblue" d="M1433.79,-241.46C1452.8,-236.46 1476.61,-230.19 1498.48,-224.44"/>
<polygon fill="midnightblue" stroke="midnightblue" points="1499.59,-227.77 1508.37,-221.84 1497.81,-221 1499.59,-227.77"/>
</g>
<!-- Node26&#45;&gt;Node25 -->
<g id="edge33" class="edge">
<title>Node26&#45;&gt;Node25</title>
<path fill="none" stroke="midnightblue" d="M1274.74,-328.44C1283.55,-325.58 1292.78,-322.09 1301,-318 1329,-304.05 1357.86,-282.32 1376.2,-267.41"/>
<polygon fill="midnightblue" stroke="midnightblue" points="1378.84,-269.77 1384.31,-260.7 1374.37,-264.38 1378.84,-269.77"/>
</g>
<!-- Node28&#45;&gt;Node15 -->
<g id="edge41" class="edge">
<title>Node28&#45;&gt;Node15</title>
<path fill="none" stroke="midnightblue" d="M937.44,-295.94C956.51,-285.62 982.89,-272.04 1007,-262 1063.18,-238.6 1082.81,-246.69 1137,-219 1154.57,-210.02 1155.31,-201.75 1173,-193 1177.56,-190.75 1182.43,-188.7 1187.38,-186.87"/>
<polygon fill="midnightblue" stroke="midnightblue" points="1188.59,-190.15 1196.91,-183.58 1186.31,-183.53 1188.59,-190.15"/>
</g>
<!-- Node28&#45;&gt;Node18 -->
<g id="edge40" class="edge">
<title>Node28&#45;&gt;Node18</title>
<path fill="none" stroke="midnightblue" d="M961.55,-314.77C1007.91,-318.99 1077.86,-327.41 1137,-343 1138.45,-343.38 1163.92,-353.42 1188.66,-363.21"/>
<polygon fill="midnightblue" stroke="midnightblue" points="1187.47,-366.51 1198.05,-366.93 1190.05,-360 1187.47,-366.51"/>
</g>
<!-- Node28&#45;&gt;Node24 -->
<g id="edge39" class="edge">
<title>Node28&#45;&gt;Node24</title>
<path fill="none" stroke="midnightblue" d="M961.72,-301.43C977,-298.57 993.9,-295.41 1009.75,-292.45"/>
<polygon fill="midnightblue" stroke="midnightblue" points="1010.8,-295.81 1019.99,-290.54 1009.51,-288.93 1010.8,-295.81"/>
</g>
<!-- Node30&#45;&gt;Node3 -->
<g id="edge45" class="edge">
<title>Node30&#45;&gt;Node3</title>
<path fill="none" stroke="midnightblue" d="M303.12,-353.49C313.6,-352.27 324.48,-351.01 335.02,-349.78"/>
<polygon fill="midnightblue" stroke="midnightblue" points="335.47,-353.26 345,-348.62 334.66,-346.3 335.47,-353.26"/>
</g>
<!-- Node32 -->
<g id="node32" class="node">
<title>Node32</title>
<g id="a_node32"><a xlink:href="zwapi__init_8c.html#a5ec89d5817b8ce00454fce891ae8400e" target="_top" xlink:title="Send a command to the Z&#45;Wave module and waits for an ACK.">
<polygon fill="none" stroke="black" points="345,-390 345,-420 461,-420 461,-390 345,-390"/>
<text text-anchor="start" x="353" y="-408" font-family="Helvetica,sans-Serif" font-size="10.00">zwapi_send_command</text>
<text text-anchor="middle" x="403" y="-397" font-family="Helvetica,sans-Serif" font-size="10.00">_with_response</text>
</a>
</g>
</g>
<!-- Node31&#45;&gt;Node32 -->
<g id="edge47" class="edge">
<title>Node31&#45;&gt;Node32</title>
<path fill="none" stroke="midnightblue" d="M295.68,-405C308.25,-405 321.68,-405 334.61,-405"/>
<polygon fill="midnightblue" stroke="midnightblue" points="334.85,-408.5 344.85,-405 334.85,-401.5 334.85,-408.5"/>
</g>
<!-- Node32&#45;&gt;Node29 -->
<g id="edge54" class="edge">
<title>Node32&#45;&gt;Node29</title>
<path fill="none" stroke="midnightblue" d="M461.35,-393.74C478.11,-390.44 496.46,-386.84 513.31,-383.53"/>
<polygon fill="midnightblue" stroke="midnightblue" points="514.44,-386.87 523.58,-381.51 513.09,-380 514.44,-386.87"/>
</g>
<!-- Node33 -->
<g id="node33" class="node">
<title>Node33</title>
<g id="a_node33"><a xlink:href="zwapi__session_8c.html#abf613a2ad7710ac80fb239ba55e621d7" target="_top" xlink:title="Send data frame to Z&#45;Wave chip via serial API, wait for ACK and a RES frame.">
<polygon fill="none" stroke="black" points="515.5,-402 515.5,-432 630.5,-432 630.5,-402 515.5,-402"/>
<text text-anchor="start" x="523.5" y="-420" font-family="Helvetica,sans-Serif" font-size="10.00">zwapi_session_send</text>
<text text-anchor="middle" x="573" y="-409" font-family="Helvetica,sans-Serif" font-size="10.00">_frame_with_response</text>
</a>
</g>
</g>
<!-- Node32&#45;&gt;Node33 -->
<g id="edge48" class="edge">
<title>Node32&#45;&gt;Node33</title>
<path fill="none" stroke="midnightblue" d="M461.35,-409.1C475.42,-410.1 490.61,-411.19 505.09,-412.22"/>
<polygon fill="midnightblue" stroke="midnightblue" points="505.26,-415.74 515.48,-412.96 505.76,-408.76 505.26,-415.74"/>
</g>
<!-- Node33&#45;&gt;Node4 -->
<g id="edge52" class="edge">
<title>Node33&#45;&gt;Node4</title>
<path fill="none" stroke="midnightblue" d="M625.97,-401.87C633.91,-398.74 641.83,-395.13 649,-391 667.3,-380.47 667.33,-371.56 685,-360 690.62,-356.33 696.75,-352.83 702.91,-349.61"/>
<polygon fill="midnightblue" stroke="midnightblue" points="704.54,-352.71 711.9,-345.09 701.4,-346.45 704.54,-352.71"/>
</g>
<!-- Node33&#45;&gt;Node19 -->
<g id="edge51" class="edge">
<title>Node33&#45;&gt;Node19</title>
<path fill="none" stroke="midnightblue" d="M629.83,-432.02C647.37,-436.21 666.89,-440.34 685,-443 794.2,-459.02 922.56,-459.81 1000.3,-458.34"/>
<polygon fill="midnightblue" stroke="midnightblue" points="1000.53,-461.83 1010.45,-458.13 1000.38,-454.84 1000.53,-461.83"/>
</g>
<!-- Node33&#45;&gt;Node20 -->
<g id="edge49" class="edge">
<title>Node33&#45;&gt;Node20</title>
<path fill="none" stroke="midnightblue" d="M604.32,-432.01C626.2,-442.16 656.75,-454.96 685,-462 856.59,-504.74 1065.95,-515.49 1170.3,-518.15"/>
<polygon fill="midnightblue" stroke="midnightblue" points="1170.29,-521.65 1180.37,-518.39 1170.45,-514.66 1170.29,-521.65"/>
</g>
<!-- Node33&#45;&gt;Node28 -->
<g id="edge53" class="edge">
<title>Node33&#45;&gt;Node28</title>
<path fill="none" stroke="midnightblue" d="M630.55,-404.73C679.26,-393.52 751.13,-375.46 812,-354 831.12,-347.26 851.72,-338.32 868.95,-330.34"/>
<polygon fill="midnightblue" stroke="midnightblue" points="870.59,-333.44 878.15,-326.03 867.61,-327.11 870.59,-333.44"/>
</g>
<!-- Node34 -->
<g id="node34" class="node">
<title>Node34</title>
<g id="a_node34"><a xlink:href="zwapi__connection_8c.html#a86b069d152a5c2f8ac95774a688dff48" target="_top" xlink:title="make the zwapi_connection_status types human readable.">
<polygon fill="none" stroke="black" points="685,-403 685,-433 812,-433 812,-403 685,-403"/>
<text text-anchor="start" x="693" y="-421" font-family="Helvetica,sans-Serif" font-size="10.00">zwapi_connection_status</text>
<text text-anchor="middle" x="748.5" y="-410" font-family="Helvetica,sans-Serif" font-size="10.00">_to_string</text>
</a>
</g>
</g>
<!-- Node33&#45;&gt;Node34 -->
<g id="edge50" class="edge">
<title>Node33&#45;&gt;Node34</title>
<path fill="none" stroke="midnightblue" d="M630.81,-417.33C644.86,-417.41 660.11,-417.5 674.8,-417.58"/>
<polygon fill="midnightblue" stroke="midnightblue" points="674.85,-421.08 684.87,-417.64 674.89,-414.08 674.85,-421.08"/>
</g>
</g>
</svg>
