<?xml version="1.0" encoding="UTF-8" standalone="no"?>
<!DOCTYPE svg PUBLIC "-//W3C//DTD SVG 1.1//EN"
 "http://www.w3.org/Graphics/SVG/1.1/DTD/svg11.dtd">
<!-- Generated by graphviz version 2.43.0 (0)
 -->
<!-- Title: Z&#45;Wave Application Command Class Handler Pages: 1 -->
<svg width="306pt" height="98pt"
 viewBox="0.00 0.00 306.00 97.50" xmlns="http://www.w3.org/2000/svg" xmlns:xlink="http://www.w3.org/1999/xlink">
<g id="graph0" class="graph" transform="scale(1 1) rotate(0) translate(4 93.5)">
<title>Z&#45;Wave Application Command Class Handler</title>
<!-- Node1 -->
<g id="node1" class="node">
<title>Node1</title>
<g id="a_node1"><a xlink:title="Application Command Class handler framework, dispatching incoming Z&#45;Wave Commands to the correspondin...">
<polygon fill="#bfbfbf" stroke="black" points="130,-62.5 0,-62.5 0,-32.5 130,-32.5 130,-62.5"/>
<text text-anchor="start" x="8" y="-50.5" font-family="Helvetica,sans-Serif" font-size="10.00">Z&#45;Wave Application</text>
<text text-anchor="middle" x="65" y="-39.5" font-family="Helvetica,sans-Serif" font-size="10.00"> Command Class Handler</text>
</a>
</g>
</g>
<!-- Node2 -->
<g id="node2" class="node">
<title>Node2</title>
<g id="a_node2"><a xlink:href="group__zwave__command__handler__callbacks.html" target="_top" xlink:title="List of callback functions that are registered to the Z&#45;Wave Controller.">
<polygon fill="none" stroke="black" points="296.5,-89.5 167.5,-89.5 167.5,-59.5 296.5,-59.5 296.5,-89.5"/>
<text text-anchor="start" x="175.5" y="-77.5" font-family="Helvetica,sans-Serif" font-size="10.00">Callbacks for the Z</text>
<text text-anchor="middle" x="232" y="-66.5" font-family="Helvetica,sans-Serif" font-size="10.00">&#45;Wave Command Handler</text>
</a>
</g>
</g>
<!-- Node1&#45;&gt;Node2 -->
<g id="edge1" class="edge">
<title>Node1&#45;&gt;Node2</title>
<path fill="none" stroke="black" d="M140.39,-59.67C149.43,-61.15 158.59,-62.65 167.45,-64.1"/>
<polygon fill="black" stroke="black" points="140.7,-56.18 130.27,-58.02 139.57,-63.09 140.7,-56.18"/>
</g>
<!-- Node3 -->
<g id="node3" class="node">
<title>Node3</title>
<g id="a_node3"><a xlink:href="group__zwave__command__handler__internals.html" target="_top" xlink:title="Shared internal functions and variables for the Z&#45;Wave Command Handler. *.">
<polygon fill="none" stroke="black" points="298,-41 166,-41 166,0 298,0 298,-41"/>
<text text-anchor="start" x="174" y="-29" font-family="Helvetica,sans-Serif" font-size="10.00">Internal definitions</text>
<text text-anchor="start" x="174" y="-18" font-family="Helvetica,sans-Serif" font-size="10.00"> for the Z&#45;Wave Command</text>
<text text-anchor="middle" x="232" y="-7" font-family="Helvetica,sans-Serif" font-size="10.00"> Handler</text>
</a>
</g>
</g>
<!-- Node1&#45;&gt;Node3 -->
<g id="edge2" class="edge">
<title>Node1&#45;&gt;Node3</title>
<path fill="none" stroke="black" d="M140.21,-35.36C148.75,-33.96 157.41,-32.54 165.82,-31.17"/>
<polygon fill="black" stroke="black" points="139.57,-31.91 130.27,-36.98 140.7,-38.82 139.57,-31.91"/>
</g>
</g>
</svg>
