<?xml version="1.0" encoding="UTF-8" standalone="no"?>
<!DOCTYPE svg PUBLIC "-//W3C//DTD SVG 1.1//EN"
 "http://www.w3.org/Graphics/SVG/1.1/DTD/svg11.dtd">
<!-- Generated by graphviz version 2.43.0 (0)
 -->
<!-- Title: zwapi_get_lr_maximum_payload_size Pages: 1 -->
<svg width="1467pt" height="541pt"
 viewBox="0.00 0.00 1467.00 541.00" xmlns="http://www.w3.org/2000/svg" xmlns:xlink="http://www.w3.org/1999/xlink">
<g id="graph0" class="graph" transform="scale(1 1) rotate(0) translate(4 537)">
<title>zwapi_get_lr_maximum_payload_size</title>
<!-- Node1 -->
<g id="node1" class="node">
<title>Node1</title>
<g id="a_node1"><a xlink:title="Get the maximum payload size allowed for sending frames in Z&#45;Wave Long Range.">
<polygon fill="#bfbfbf" stroke="black" points="0,-220.5 0,-250.5 119,-250.5 119,-220.5 0,-220.5"/>
<text text-anchor="start" x="8" y="-238.5" font-family="Helvetica,sans-Serif" font-size="10.00">zwapi_get_lr_maximum</text>
<text text-anchor="middle" x="59.5" y="-227.5" font-family="Helvetica,sans-Serif" font-size="10.00">_payload_size</text>
</a>
</g>
</g>
<!-- Node2 -->
<g id="node2" class="node">
<title>Node2</title>
<g id="a_node2"><a xlink:href="zwapi__init_8c.html#a5ec89d5817b8ce00454fce891ae8400e" target="_top" xlink:title="Send a command to the Z&#45;Wave module and waits for an ACK.">
<polygon fill="none" stroke="black" points="163.5,-264.5 163.5,-294.5 279.5,-294.5 279.5,-264.5 163.5,-264.5"/>
<text text-anchor="start" x="171.5" y="-282.5" font-family="Helvetica,sans-Serif" font-size="10.00">zwapi_send_command</text>
<text text-anchor="middle" x="221.5" y="-271.5" font-family="Helvetica,sans-Serif" font-size="10.00">_with_response</text>
</a>
</g>
</g>
<!-- Node1&#45;&gt;Node2 -->
<g id="edge1" class="edge">
<title>Node1&#45;&gt;Node2</title>
<path fill="none" stroke="midnightblue" d="M115.12,-250.52C128.3,-254.15 142.51,-258.05 156.1,-261.79"/>
<polygon fill="midnightblue" stroke="midnightblue" points="155.29,-265.2 165.86,-264.47 157.15,-258.45 155.29,-265.2"/>
</g>
<!-- Node30 -->
<g id="node30" class="node">
<title>Node30</title>
<g id="a_node30"><a xlink:href="group__ZWAPI__INIT.html#ga0a823074baec69913d0e8590b46e4e33" target="_top" xlink:title="Check if a command is supported by the connected Z&#45;Wave module.">
<polygon fill="none" stroke="black" points="324,-226 324,-245 476,-245 476,-226 324,-226"/>
<text text-anchor="middle" x="400" y="-233" font-family="Helvetica,sans-Serif" font-size="10.00">zwapi_support_command_func</text>
</a>
</g>
</g>
<!-- Node1&#45;&gt;Node30 -->
<g id="edge48" class="edge">
<title>Node1&#45;&gt;Node30</title>
<path fill="none" stroke="midnightblue" d="M119.08,-235.5C172.74,-235.5 252.83,-235.5 313.62,-235.5"/>
<polygon fill="midnightblue" stroke="midnightblue" points="313.96,-239 323.96,-235.5 313.96,-232 313.96,-239"/>
</g>
<!-- Node31 -->
<g id="node31" class="node">
<title>Node31</title>
<g id="a_node31"><a xlink:href="group__ZWAPI__INIT.html#ga647114dcb008816008cf9389548b1a12" target="_top" xlink:title="Check if one of the serial API setup commands is supported.">
<polygon fill="none" stroke="black" points="155,-188 155,-207 288,-207 288,-188 155,-188"/>
<text text-anchor="middle" x="221.5" y="-195" font-family="Helvetica,sans-Serif" font-size="10.00">zwapi_support_setup_func</text>
</a>
</g>
</g>
<!-- Node1&#45;&gt;Node31 -->
<g id="edge49" class="edge">
<title>Node1&#45;&gt;Node31</title>
<path fill="none" stroke="midnightblue" d="M119.17,-221.57C136.01,-217.57 154.21,-213.24 170.48,-209.38"/>
<polygon fill="midnightblue" stroke="midnightblue" points="171.4,-212.76 180.33,-207.04 169.79,-205.95 171.4,-212.76"/>
</g>
<!-- Node3 -->
<g id="node3" class="node">
<title>Node3</title>
<g id="a_node3"><a xlink:href="zwapi__session_8c.html#abf613a2ad7710ac80fb239ba55e621d7" target="_top" xlink:title="Send data frame to Z&#45;Wave chip via serial API, wait for ACK and a RES frame.">
<polygon fill="none" stroke="black" points="342.5,-264.5 342.5,-294.5 457.5,-294.5 457.5,-264.5 342.5,-264.5"/>
<text text-anchor="start" x="350.5" y="-282.5" font-family="Helvetica,sans-Serif" font-size="10.00">zwapi_session_send</text>
<text text-anchor="middle" x="400" y="-271.5" font-family="Helvetica,sans-Serif" font-size="10.00">_frame_with_response</text>
</a>
</g>
</g>
<!-- Node2&#45;&gt;Node3 -->
<g id="edge2" class="edge">
<title>Node2&#45;&gt;Node3</title>
<path fill="none" stroke="midnightblue" d="M279.8,-279.5C296.55,-279.5 315,-279.5 332.27,-279.5"/>
<polygon fill="midnightblue" stroke="midnightblue" points="332.28,-283 342.28,-279.5 332.28,-276 332.28,-283"/>
</g>
<!-- Node2&#45;&gt;Node30 -->
<g id="edge47" class="edge">
<title>Node2&#45;&gt;Node30</title>
<path fill="none" stroke="midnightblue" d="M279.8,-265.21C302.76,-259.49 328.92,-252.97 350.87,-247.5"/>
<polygon fill="midnightblue" stroke="midnightblue" points="351.77,-250.88 360.63,-245.07 350.08,-244.09 351.77,-250.88"/>
</g>
<!-- Node4 -->
<g id="node4" class="node">
<title>Node4</title>
<g id="a_node4"><a xlink:href="zwapi__connection_8c.html#a91ce3acd7eff779496789637a9c27f40" target="_top" xlink:title="Provides the data of the serial buffer for the last received frame.">
<polygon fill="none" stroke="black" points="1007.5,-502.5 1007.5,-532.5 1120.5,-532.5 1120.5,-502.5 1007.5,-502.5"/>
<text text-anchor="start" x="1015.5" y="-520.5" font-family="Helvetica,sans-Serif" font-size="10.00">zwapi_connection_get</text>
<text text-anchor="middle" x="1064" y="-509.5" font-family="Helvetica,sans-Serif" font-size="10.00">_last_rx_frame</text>
</a>
</g>
</g>
<!-- Node3&#45;&gt;Node4 -->
<g id="edge3" class="edge">
<title>Node3&#45;&gt;Node4</title>
<path fill="none" stroke="midnightblue" d="M414.14,-294.76C433.47,-316.27 471.66,-355.36 512,-377.5 672.51,-465.61 889.74,-499.54 997.2,-511.54"/>
<polygon fill="midnightblue" stroke="midnightblue" points="996.93,-515.03 1007.25,-512.64 997.68,-508.07 996.93,-515.03"/>
</g>
<!-- Node5 -->
<g id="node5" class="node">
<title>Node5</title>
<g id="a_node5"><a xlink:href="zwapi__connection_8c.html#a86b069d152a5c2f8ac95774a688dff48" target="_top" xlink:title="make the zwapi_connection_status types human readable.">
<polygon fill="none" stroke="black" points="512,-176.5 512,-206.5 639,-206.5 639,-176.5 512,-176.5"/>
<text text-anchor="start" x="520" y="-194.5" font-family="Helvetica,sans-Serif" font-size="10.00">zwapi_connection_status</text>
<text text-anchor="middle" x="575.5" y="-183.5" font-family="Helvetica,sans-Serif" font-size="10.00">_to_string</text>
</a>
</g>
</g>
<!-- Node3&#45;&gt;Node5 -->
<g id="edge4" class="edge">
<title>Node3&#45;&gt;Node5</title>
<path fill="none" stroke="midnightblue" d="M455.46,-264.39C462.58,-261.54 469.61,-258.26 476,-254.5 494.71,-243.49 494.02,-233.66 512,-221.5 517.36,-217.87 523.24,-214.44 529.16,-211.29"/>
<polygon fill="midnightblue" stroke="midnightblue" points="531.12,-214.22 538.46,-206.57 527.96,-207.98 531.12,-214.22"/>
</g>
<!-- Node6 -->
<g id="node6" class="node">
<title>Node6</title>
<g id="a_node6"><a xlink:href="zwapi__session_8c.html#a1f2b3e7c2dcf31708ef8d333747352ba" target="_top" xlink:title=" ">
<polygon fill="none" stroke="black" points="837.5,-409.5 837.5,-439.5 960.5,-439.5 960.5,-409.5 837.5,-409.5"/>
<text text-anchor="start" x="845.5" y="-427.5" font-family="Helvetica,sans-Serif" font-size="10.00">zwapi_session_enqueue</text>
<text text-anchor="middle" x="899" y="-416.5" font-family="Helvetica,sans-Serif" font-size="10.00">_frame</text>
</a>
</g>
</g>
<!-- Node3&#45;&gt;Node6 -->
<g id="edge5" class="edge">
<title>Node3&#45;&gt;Node6</title>
<path fill="none" stroke="midnightblue" d="M427.18,-294.56C474.78,-321.14 579.41,-375.99 675,-401.5 724.89,-414.82 782.96,-420.51 827.33,-422.9"/>
<polygon fill="midnightblue" stroke="midnightblue" points="827.28,-426.4 837.44,-423.4 827.63,-419.41 827.28,-426.4"/>
</g>
<!-- Node9 -->
<g id="node9" class="node">
<title>Node9</title>
<g id="a_node9"><a xlink:href="zwapi__session_8c.html#a32577f3500efc3d937dbc68eebb3c370" target="_top" xlink:title="Send data frame to Z&#45;Wave chip via serial port and wait for ACK.">
<polygon fill="none" stroke="black" points="522,-264.5 522,-294.5 629,-294.5 629,-264.5 522,-264.5"/>
<text text-anchor="start" x="530" y="-282.5" font-family="Helvetica,sans-Serif" font-size="10.00">zwapi_session_send</text>
<text text-anchor="middle" x="575.5" y="-271.5" font-family="Helvetica,sans-Serif" font-size="10.00">_frame</text>
</a>
</g>
</g>
<!-- Node3&#45;&gt;Node9 -->
<g id="edge9" class="edge">
<title>Node3&#45;&gt;Node9</title>
<path fill="none" stroke="midnightblue" d="M457.81,-279.5C475.08,-279.5 494.15,-279.5 511.78,-279.5"/>
<polygon fill="midnightblue" stroke="midnightblue" points="511.97,-283 521.97,-279.5 511.97,-276 511.97,-283"/>
</g>
<!-- Node29 -->
<g id="node29" class="node">
<title>Node29</title>
<g id="a_node29"><a xlink:href="zwapi__session_8c.html#a9d30e1677f02d7730ab035aa9333235d" target="_top" xlink:title=" ">
<polygon fill="none" stroke="black" points="684.5,-163.5 684.5,-193.5 788.5,-193.5 788.5,-163.5 684.5,-163.5"/>
<text text-anchor="start" x="692.5" y="-181.5" font-family="Helvetica,sans-Serif" font-size="10.00">zwapi_session_wait</text>
<text text-anchor="middle" x="736.5" y="-170.5" font-family="Helvetica,sans-Serif" font-size="10.00">_for_response</text>
</a>
</g>
</g>
<!-- Node3&#45;&gt;Node29 -->
<g id="edge46" class="edge">
<title>Node3&#45;&gt;Node29</title>
<path fill="none" stroke="midnightblue" d="M457.75,-266C506.27,-254.03 577.76,-235.41 639,-215.5 655.53,-210.12 673.37,-203.52 689.17,-197.38"/>
<polygon fill="midnightblue" stroke="midnightblue" points="690.67,-200.55 698.7,-193.64 688.12,-194.03 690.67,-200.55"/>
</g>
<!-- Node6&#45;&gt;Node4 -->
<g id="edge6" class="edge">
<title>Node6&#45;&gt;Node4</title>
<path fill="none" stroke="midnightblue" d="M919.04,-439.71C938.53,-454.77 970.13,-477.8 1000,-493.5 1003.25,-495.21 1006.64,-496.86 1010.1,-498.44"/>
<polygon fill="midnightblue" stroke="midnightblue" points="1008.79,-501.68 1019.36,-502.45 1011.57,-495.26 1008.79,-501.68"/>
</g>
<!-- Node7 -->
<g id="node7" class="node">
<title>Node7</title>
<g id="a_node7"><a xlink:href="zwapi__session_8c.html#ad7bac697ee2388b38ed3777b5a3862bc" target="_top" xlink:title=" ">
<polygon fill="none" stroke="black" points="1007.5,-453.5 1007.5,-483.5 1120.5,-483.5 1120.5,-453.5 1007.5,-453.5"/>
<text text-anchor="start" x="1015.5" y="-471.5" font-family="Helvetica,sans-Serif" font-size="10.00">zwapi_session_get_rx</text>
<text text-anchor="middle" x="1064" y="-460.5" font-family="Helvetica,sans-Serif" font-size="10.00">_queue_length</text>
</a>
</g>
</g>
<!-- Node6&#45;&gt;Node7 -->
<g id="edge7" class="edge">
<title>Node6&#45;&gt;Node7</title>
<path fill="none" stroke="midnightblue" d="M955.64,-439.52C969.07,-443.15 983.55,-447.05 997.39,-450.79"/>
<polygon fill="midnightblue" stroke="midnightblue" points="996.77,-454.25 1007.33,-453.47 998.59,-447.49 996.77,-454.25"/>
</g>
<!-- Node8 -->
<g id="node8" class="node">
<title>Node8</title>
<g id="a_node8"><a xlink:href="group__ZWAPI__INIT.html#ga438a74c9752197d20d377874d5a61694" target="_top" xlink:title="Returns the pointer to the callbacks registered at init.">
<polygon fill="none" stroke="black" points="1000,-415 1000,-434 1128,-434 1128,-415 1000,-415"/>
<text text-anchor="middle" x="1064" y="-422" font-family="Helvetica,sans-Serif" font-size="10.00">zwave_api_get_callbacks</text>
</a>
</g>
</g>
<!-- Node6&#45;&gt;Node8 -->
<g id="edge8" class="edge">
<title>Node6&#45;&gt;Node8</title>
<path fill="none" stroke="midnightblue" d="M960.7,-424.5C970.17,-424.5 980.04,-424.5 989.76,-424.5"/>
<polygon fill="midnightblue" stroke="midnightblue" points="989.8,-428 999.8,-424.5 989.8,-421 989.8,-428"/>
</g>
<!-- Node9&#45;&gt;Node6 -->
<g id="edge27" class="edge">
<title>Node9&#45;&gt;Node6</title>
<path fill="none" stroke="midnightblue" d="M589.21,-294.69C606.56,-314.43 639.59,-348.62 675,-367.5 722.54,-392.84 781.84,-407.3 827.35,-415.31"/>
<polygon fill="midnightblue" stroke="midnightblue" points="826.98,-418.79 837.42,-417.02 828.15,-411.89 826.98,-418.79"/>
</g>
<!-- Node10 -->
<g id="node10" class="node">
<title>Node10</title>
<g id="a_node10"><a xlink:href="zwapi__connection_8c.html#a13b6e6b6c56844f4344fabe490bc5eac" target="_top" xlink:title="Closes and re&#45;initializes the zwapi_connection to the Z&#45;Wave module.">
<polygon fill="none" stroke="black" points="835,-251 835,-270 963,-270 963,-251 835,-251"/>
<text text-anchor="middle" x="899" y="-258" font-family="Helvetica,sans-Serif" font-size="10.00">zwapi_connection_restart</text>
</a>
</g>
</g>
<!-- Node9&#45;&gt;Node10 -->
<g id="edge10" class="edge">
<title>Node9&#45;&gt;Node10</title>
<path fill="none" stroke="midnightblue" d="M629.23,-276.38C682.44,-273.24 765.05,-268.36 824.64,-264.84"/>
<polygon fill="midnightblue" stroke="midnightblue" points="824.97,-268.32 834.74,-264.24 824.55,-261.33 824.97,-268.32"/>
</g>
<!-- Node20 -->
<g id="node20" class="node">
<title>Node20</title>
<g id="a_node20"><a xlink:href="zwapi__timestamp_8c.html#a6ebe1ddfe689bce6ee72fc12f708aece" target="_top" xlink:title="get the timestamp">
<polygon fill="none" stroke="black" points="1008,-213 1008,-232 1120,-232 1120,-213 1008,-213"/>
<text text-anchor="middle" x="1064" y="-220" font-family="Helvetica,sans-Serif" font-size="10.00">zwapi_timestamp_get</text>
</a>
</g>
</g>
<!-- Node9&#45;&gt;Node20 -->
<g id="edge45" class="edge">
<title>Node9&#45;&gt;Node20</title>
<path fill="none" stroke="midnightblue" d="M629.09,-270.03C643.92,-267.46 660.07,-264.77 675,-262.5 745.47,-251.77 763.13,-249.12 834,-241.5 889.13,-235.58 951.9,-230.48 997.76,-227.07"/>
<polygon fill="midnightblue" stroke="midnightblue" points="998.15,-230.55 1007.87,-226.32 997.64,-223.57 998.15,-230.55"/>
</g>
<!-- Node21 -->
<g id="node21" class="node">
<title>Node21</title>
<g id="a_node21"><a xlink:href="zwapi__connection_8c.html#af47f8cbd93974d5c91d659fdeb7a870b" target="_top" xlink:title="Transmit a frame via serial port by adding SOF, Len, Type, cmd and Checksum.">
<polygon fill="none" stroke="black" points="845,-289 845,-308 953,-308 953,-289 845,-289"/>
<text text-anchor="middle" x="899" y="-296" font-family="Helvetica,sans-Serif" font-size="10.00">zwapi_connection_tx</text>
</a>
</g>
</g>
<!-- Node9&#45;&gt;Node21 -->
<g id="edge21" class="edge">
<title>Node9&#45;&gt;Node21</title>
<path fill="none" stroke="midnightblue" d="M629.23,-282.62C685.56,-285.95 774.83,-291.22 834.86,-294.77"/>
<polygon fill="midnightblue" stroke="midnightblue" points="834.79,-298.27 844.97,-295.37 835.2,-291.28 834.79,-298.27"/>
</g>
<!-- Node23 -->
<g id="node23" class="node">
<title>Node23</title>
<g id="a_node23"><a xlink:href="zwapi__timestamp_8c.html#a3925f2732e344672608db38351236688" target="_top" xlink:title="compare the current timestamp with the timestamp passed as an argument">
<polygon fill="none" stroke="black" points="1011,-0.5 1011,-30.5 1117,-30.5 1117,-0.5 1011,-0.5"/>
<text text-anchor="start" x="1019" y="-18.5" font-family="Helvetica,sans-Serif" font-size="10.00">zwapi_is_timestamp</text>
<text text-anchor="middle" x="1064" y="-7.5" font-family="Helvetica,sans-Serif" font-size="10.00">_elapsed</text>
</a>
</g>
</g>
<!-- Node9&#45;&gt;Node23 -->
<g id="edge26" class="edge">
<title>Node9&#45;&gt;Node23</title>
<path fill="none" stroke="midnightblue" d="M593.33,-264.46C606.63,-252.08 625.19,-233.68 639,-215.5 658.28,-190.13 652.87,-176.43 675,-153.5 732.98,-93.44 755.96,-83.14 834,-53.5 888.05,-32.97 953.45,-23.52 1000.49,-19.17"/>
<polygon fill="midnightblue" stroke="midnightblue" points="1000.88,-22.65 1010.54,-18.3 1000.27,-15.68 1000.88,-22.65"/>
</g>
<!-- Node24 -->
<g id="node24" class="node">
<title>Node24</title>
<g id="a_node24"><a xlink:href="zwapi__session_8c.html#a2875fbfa250b7b25ecb6bc4f0b032cb8" target="_top" xlink:title="Loads the received frames from the serial device into the zwapi_session receive queue.">
<polygon fill="none" stroke="black" points="675,-327.5 675,-357.5 798,-357.5 798,-327.5 675,-327.5"/>
<text text-anchor="start" x="683" y="-345.5" font-family="Helvetica,sans-Serif" font-size="10.00">zwapi_session_enqueue</text>
<text text-anchor="middle" x="736.5" y="-334.5" font-family="Helvetica,sans-Serif" font-size="10.00">_rx_frames</text>
</a>
</g>
</g>
<!-- Node9&#45;&gt;Node24 -->
<g id="edge28" class="edge">
<title>Node9&#45;&gt;Node24</title>
<path fill="none" stroke="midnightblue" d="M614.58,-294.59C636.63,-303.32 664.57,-314.39 688.03,-323.69"/>
<polygon fill="midnightblue" stroke="midnightblue" points="686.86,-326.99 697.45,-327.42 689.44,-320.49 686.86,-326.99"/>
</g>
<!-- Node9&#45;&gt;Node29 -->
<g id="edge41" class="edge">
<title>Node9&#45;&gt;Node29</title>
<path fill="none" stroke="midnightblue" d="M614.28,-264.39C622.8,-260.17 631.52,-255.17 639,-249.5 658.32,-234.85 655.77,-223.28 675,-208.5 679.7,-204.88 684.91,-201.53 690.24,-198.46"/>
<polygon fill="midnightblue" stroke="midnightblue" points="692.12,-201.43 699.26,-193.6 688.8,-195.27 692.12,-201.43"/>
</g>
<!-- Node11 -->
<g id="node11" class="node">
<title>Node11</title>
<g id="a_node11"><a xlink:href="zwapi__serial_8c.html#a3f2b3bd848e9fe0e6e137482bed06b46" target="_top" xlink:title="Flush the serial output if using buffered output.">
<polygon fill="none" stroke="black" points="1015.5,-251.5 1015.5,-281.5 1112.5,-281.5 1112.5,-251.5 1015.5,-251.5"/>
<text text-anchor="start" x="1023.5" y="-269.5" font-family="Helvetica,sans-Serif" font-size="10.00">zwapi_serial_drain</text>
<text text-anchor="middle" x="1064" y="-258.5" font-family="Helvetica,sans-Serif" font-size="10.00">_buffer</text>
</a>
</g>
</g>
<!-- Node10&#45;&gt;Node11 -->
<g id="edge11" class="edge">
<title>Node10&#45;&gt;Node11</title>
<path fill="none" stroke="midnightblue" d="M963.02,-262.82C976.87,-263.33 991.47,-263.87 1005.11,-264.37"/>
<polygon fill="midnightblue" stroke="midnightblue" points="1005.2,-267.87 1015.32,-264.74 1005.45,-260.88 1005.2,-267.87"/>
</g>
<!-- Node12 -->
<g id="node12" class="node">
<title>Node12</title>
<g id="a_node12"><a xlink:href="zwapi__serial_8c.html#a7762d0358e9f398b92edbfd6a550984a" target="_top" xlink:title="Write a byte to serial port device.">
<polygon fill="none" stroke="black" points="1007.5,-175 1007.5,-194 1120.5,-194 1120.5,-175 1007.5,-175"/>
<text text-anchor="middle" x="1064" y="-182" font-family="Helvetica,sans-Serif" font-size="10.00">zwapi_serial_put_byte</text>
</a>
</g>
</g>
<!-- Node10&#45;&gt;Node12 -->
<g id="edge12" class="edge">
<title>Node10&#45;&gt;Node12</title>
<path fill="none" stroke="midnightblue" d="M914.37,-250.92C933.33,-238.62 968.05,-217.22 1000,-203.5 1005.31,-201.22 1010.99,-199.1 1016.67,-197.16"/>
<polygon fill="midnightblue" stroke="midnightblue" points="1017.75,-200.49 1026.19,-194.08 1015.6,-193.83 1017.75,-200.49"/>
</g>
<!-- Node16 -->
<g id="node16" class="node">
<title>Node16</title>
<g id="a_node16"><a xlink:href="zwapi__serial_8c.html#aadf3397d0bd2c1657d4b1a373599acfe" target="_top" xlink:title="Closes and re&#45;initialize the last open serial port.">
<polygon fill="none" stroke="black" points="1012,-339 1012,-358 1116,-358 1116,-339 1012,-339"/>
<text text-anchor="middle" x="1064" y="-346" font-family="Helvetica,sans-Serif" font-size="10.00">zwapi_serial_restart</text>
</a>
</g>
</g>
<!-- Node10&#45;&gt;Node16 -->
<g id="edge16" class="edge">
<title>Node10&#45;&gt;Node16</title>
<path fill="none" stroke="midnightblue" d="M939.33,-270.01C947.66,-272.62 956.27,-275.78 964,-279.5 993.96,-293.92 1024.82,-316.98 1043.95,-332.42"/>
<polygon fill="midnightblue" stroke="midnightblue" points="1041.92,-335.28 1051.87,-338.92 1046.36,-329.87 1041.92,-335.28"/>
</g>
<!-- Node10&#45;&gt;Node20 -->
<g id="edge20" class="edge">
<title>Node10&#45;&gt;Node20</title>
<path fill="none" stroke="midnightblue" d="M941.13,-250.91C962.74,-245.87 989.41,-239.66 1012.29,-234.32"/>
<polygon fill="midnightblue" stroke="midnightblue" points="1013.22,-237.7 1022.16,-232.02 1011.63,-230.88 1013.22,-237.7"/>
</g>
<!-- Node13 -->
<g id="node13" class="node">
<title>Node13</title>
<g id="a_node13"><a xlink:href="zwapi__serial_8c.html#af9054824651df422bab5076d16a80fda" target="_top" xlink:title="Writes the content of a buffer to the serial port device.">
<polygon fill="none" stroke="black" points="1164,-176 1164,-195 1283,-195 1283,-176 1164,-176"/>
<text text-anchor="middle" x="1223.5" y="-183" font-family="Helvetica,sans-Serif" font-size="10.00">zwapi_serial_put_buffer</text>
</a>
</g>
</g>
<!-- Node12&#45;&gt;Node13 -->
<g id="edge13" class="edge">
<title>Node12&#45;&gt;Node13</title>
<path fill="none" stroke="midnightblue" d="M1120.53,-184.85C1131.24,-184.92 1142.59,-184.99 1153.66,-185.06"/>
<polygon fill="midnightblue" stroke="midnightblue" points="1153.71,-188.56 1163.74,-185.13 1153.76,-181.56 1153.71,-188.56"/>
</g>
<!-- Node14 -->
<g id="node14" class="node">
<title>Node14</title>
<g id="a_node14"><a xlink:href="zwapi__serial_8c.html#a0accbbf7ddb7aeab10f5df1fe3df6642" target="_top" xlink:title=" ">
<polygon fill="none" stroke="black" points="1319,-133 1319,-152 1459,-152 1459,-133 1319,-133"/>
<text text-anchor="middle" x="1389" y="-140" font-family="Helvetica,sans-Serif" font-size="10.00">zwapi_serial_log_timestamp</text>
</a>
</g>
</g>
<!-- Node13&#45;&gt;Node14 -->
<g id="edge14" class="edge">
<title>Node13&#45;&gt;Node14</title>
<path fill="none" stroke="midnightblue" d="M1260.79,-175.96C1284.71,-169.67 1316.24,-161.37 1341.93,-154.62"/>
<polygon fill="midnightblue" stroke="midnightblue" points="1343.03,-157.94 1351.82,-152.02 1341.25,-151.18 1343.03,-157.94"/>
</g>
<!-- Node15 -->
<g id="node15" class="node">
<title>Node15</title>
<g id="a_node15"><a xlink:href="zwapi__serial_8c.html#abf18afb71e14daaf65d937149ef1639f" target="_top" xlink:title="Test if a is less than b + ms.">
<polygon fill="none" stroke="black" points="1335.5,-171.5 1335.5,-201.5 1442.5,-201.5 1442.5,-171.5 1335.5,-171.5"/>
<text text-anchor="start" x="1343.5" y="-189.5" font-family="Helvetica,sans-Serif" font-size="10.00">zwapi_serial_timeval</text>
<text text-anchor="middle" x="1389" y="-178.5" font-family="Helvetica,sans-Serif" font-size="10.00">_a_lt_b_milis</text>
</a>
</g>
</g>
<!-- Node13&#45;&gt;Node15 -->
<g id="edge15" class="edge">
<title>Node13&#45;&gt;Node15</title>
<path fill="none" stroke="midnightblue" d="M1283.07,-185.86C1296.65,-185.94 1311.16,-186.03 1324.92,-186.11"/>
<polygon fill="midnightblue" stroke="midnightblue" points="1325.26,-189.62 1335.28,-186.18 1325.3,-182.62 1325.26,-189.62"/>
</g>
<!-- Node17 -->
<g id="node17" class="node">
<title>Node17</title>
<g id="a_node17"><a xlink:href="zwapi__serial_8c.html#aae586785021ac9a605cd77651429f0c9" target="_top" xlink:title="De&#45;Initialize the serial port.">
<polygon fill="none" stroke="black" points="1174,-358 1174,-377 1273,-377 1273,-358 1174,-358"/>
<text text-anchor="middle" x="1223.5" y="-365" font-family="Helvetica,sans-Serif" font-size="10.00">zwapi_serial_close</text>
</a>
</g>
</g>
<!-- Node16&#45;&gt;Node17 -->
<g id="edge17" class="edge">
<title>Node16&#45;&gt;Node17</title>
<path fill="none" stroke="midnightblue" d="M1116.14,-354.67C1131.31,-356.5 1148.06,-358.52 1163.68,-360.4"/>
<polygon fill="midnightblue" stroke="midnightblue" points="1163.42,-363.9 1173.76,-361.62 1164.25,-356.95 1163.42,-363.9"/>
</g>
<!-- Node18 -->
<g id="node18" class="node">
<title>Node18</title>
<g id="a_node18"><a xlink:href="zwapi__serial_8c.html#a07b09de97f4932d882fc77e191c44638" target="_top" xlink:title="Initialize the serial port to 115200 BAUD 8N1.">
<polygon fill="none" stroke="black" points="1179,-320 1179,-339 1268,-339 1268,-320 1179,-320"/>
<text text-anchor="middle" x="1223.5" y="-327" font-family="Helvetica,sans-Serif" font-size="10.00">zwapi_serial_init</text>
</a>
</g>
</g>
<!-- Node16&#45;&gt;Node18 -->
<g id="edge18" class="edge">
<title>Node16&#45;&gt;Node18</title>
<path fill="none" stroke="midnightblue" d="M1116.14,-342.33C1132.87,-340.31 1151.51,-338.06 1168.46,-336.02"/>
<polygon fill="midnightblue" stroke="midnightblue" points="1169.25,-339.45 1178.76,-334.78 1168.41,-332.5 1169.25,-339.45"/>
</g>
<!-- Node19 -->
<g id="node19" class="node">
<title>Node19</title>
<g id="a_node19"><a xlink:href="zwapi__serial_8c.html#aefeac5909b0bf6411db1492f69c3bc68" target="_top" xlink:title=" ">
<polygon fill="none" stroke="black" points="1329.5,-320 1329.5,-339 1448.5,-339 1448.5,-320 1329.5,-320"/>
<text text-anchor="middle" x="1389" y="-327" font-family="Helvetica,sans-Serif" font-size="10.00">zwapi_open_serial_port</text>
</a>
</g>
</g>
<!-- Node18&#45;&gt;Node19 -->
<g id="edge19" class="edge">
<title>Node18&#45;&gt;Node19</title>
<path fill="none" stroke="midnightblue" d="M1268.31,-329.5C1283.97,-329.5 1302.01,-329.5 1319.26,-329.5"/>
<polygon fill="midnightblue" stroke="midnightblue" points="1319.3,-333 1329.3,-329.5 1319.3,-326 1319.3,-333"/>
</g>
<!-- Node21&#45;&gt;Node11 -->
<g id="edge23" class="edge">
<title>Node21&#45;&gt;Node11</title>
<path fill="none" stroke="midnightblue" d="M948.46,-288.99C966.36,-285.47 986.82,-281.46 1005.44,-277.8"/>
<polygon fill="midnightblue" stroke="midnightblue" points="1006.15,-281.23 1015.28,-275.87 1004.8,-274.36 1006.15,-281.23"/>
</g>
<!-- Node21&#45;&gt;Node13 -->
<g id="edge24" class="edge">
<title>Node21&#45;&gt;Node13</title>
<path fill="none" stroke="midnightblue" d="M951.1,-308.03C999.14,-314.49 1071.84,-317.71 1128,-291.5 1167.64,-273 1197.73,-229.22 1212.46,-204.09"/>
<polygon fill="midnightblue" stroke="midnightblue" points="1215.63,-205.6 1217.51,-195.17 1209.54,-202.16 1215.63,-205.6"/>
</g>
<!-- Node21&#45;&gt;Node20 -->
<g id="edge25" class="edge">
<title>Node21&#45;&gt;Node20</title>
<path fill="none" stroke="midnightblue" d="M943.29,-288.95C950.48,-286.44 957.65,-283.34 964,-279.5 983.63,-267.63 980.48,-254.56 1000,-242.5 1004.12,-239.96 1008.58,-237.71 1013.18,-235.73"/>
<polygon fill="midnightblue" stroke="midnightblue" points="1014.65,-238.91 1022.71,-232.03 1012.12,-232.39 1014.65,-238.91"/>
</g>
<!-- Node22 -->
<g id="node22" class="node">
<title>Node22</title>
<g id="a_node22"><a xlink:href="zwapi__connection_8c.html#a96d24d537c5b8d6aa0aa6a7638ba2f09" target="_top" xlink:title=" ">
<polygon fill="none" stroke="black" points="1006.5,-377 1006.5,-396 1121.5,-396 1121.5,-377 1006.5,-377"/>
<text text-anchor="middle" x="1064" y="-384" font-family="Helvetica,sans-Serif" font-size="10.00">zwapi_frame_to_string</text>
</a>
</g>
</g>
<!-- Node21&#45;&gt;Node22 -->
<g id="edge22" class="edge">
<title>Node21&#45;&gt;Node22</title>
<path fill="none" stroke="midnightblue" d="M911.27,-308.05C929.06,-322.7 965.22,-350.76 1000,-367.5 1004.64,-369.73 1009.6,-371.77 1014.63,-373.61"/>
<polygon fill="midnightblue" stroke="midnightblue" points="1013.71,-376.99 1024.3,-376.9 1015.96,-370.37 1013.71,-376.99"/>
</g>
<!-- Node24&#45;&gt;Node6 -->
<g id="edge40" class="edge">
<title>Node24&#45;&gt;Node6</title>
<path fill="none" stroke="midnightblue" d="M768.34,-357.65C777.86,-362.37 788.38,-367.62 798,-372.5 818.6,-382.96 841.46,-394.83 860.13,-404.59"/>
<polygon fill="midnightblue" stroke="midnightblue" points="858.71,-407.8 869.19,-409.33 861.96,-401.6 858.71,-407.8"/>
</g>
<!-- Node25 -->
<g id="node25" class="node">
<title>Node25</title>
<g id="a_node25"><a xlink:href="zwapi__connection_8c.html#a1e45c6c9695b5e7b415adfad40080720" target="_top" xlink:title="Parses serial data sent from the Z&#45;Wave module to the serial port. Should be frequently called by mai...">
<polygon fill="none" stroke="black" points="834,-137 834,-156 964,-156 964,-137 834,-137"/>
<text text-anchor="middle" x="899" y="-144" font-family="Helvetica,sans-Serif" font-size="10.00">zwapi_connection_refresh</text>
</a>
</g>
</g>
<!-- Node24&#45;&gt;Node25 -->
<g id="edge29" class="edge">
<title>Node24&#45;&gt;Node25</title>
<path fill="none" stroke="midnightblue" d="M749.83,-327.45C778.91,-291.93 851.72,-203.01 883.16,-164.62"/>
<polygon fill="midnightblue" stroke="midnightblue" points="886.25,-166.37 889.88,-156.42 880.84,-161.93 886.25,-166.37"/>
</g>
<!-- Node25&#45;&gt;Node11 -->
<g id="edge31" class="edge">
<title>Node25&#45;&gt;Node11</title>
<path fill="none" stroke="midnightblue" d="M907.87,-156.11C923.61,-174.82 960.86,-216.48 1000,-241.5 1002.97,-243.4 1006.1,-245.19 1009.32,-246.88"/>
<polygon fill="midnightblue" stroke="midnightblue" points="1008.03,-250.15 1018.56,-251.37 1011.09,-243.85 1008.03,-250.15"/>
</g>
<!-- Node25&#45;&gt;Node12 -->
<g id="edge38" class="edge">
<title>Node25&#45;&gt;Node12</title>
<path fill="none" stroke="midnightblue" d="M941.13,-156.09C962.74,-161.13 989.41,-167.34 1012.29,-172.68"/>
<polygon fill="midnightblue" stroke="midnightblue" points="1011.63,-176.12 1022.16,-174.98 1013.22,-169.3 1011.63,-176.12"/>
</g>
<!-- Node25&#45;&gt;Node20 -->
<g id="edge39" class="edge">
<title>Node25&#45;&gt;Node20</title>
<path fill="none" stroke="midnightblue" d="M932.7,-156.04C943.1,-159.78 954.39,-164.6 964,-170.5 982.5,-181.85 981.14,-192.76 1000,-203.5 1003.85,-205.69 1007.97,-207.65 1012.2,-209.4"/>
<polygon fill="midnightblue" stroke="midnightblue" points="1010.97,-212.68 1021.56,-212.91 1013.43,-206.13 1010.97,-212.68"/>
</g>
<!-- Node25&#45;&gt;Node23 -->
<g id="edge30" class="edge">
<title>Node25&#45;&gt;Node23</title>
<path fill="none" stroke="midnightblue" d="M922.55,-136.96C935.88,-130.46 952.36,-120.79 964,-108.5 987.78,-83.38 974.15,-62.49 1000,-39.5 1001.32,-38.32 1002.71,-37.2 1004.15,-36.13"/>
<polygon fill="midnightblue" stroke="midnightblue" points="1006.31,-38.9 1012.86,-30.58 1002.55,-33 1006.31,-38.9"/>
</g>
<!-- Node26 -->
<g id="node26" class="node">
<title>Node26</title>
<g id="a_node26"><a xlink:href="zwapi__serial_8c.html#a538134f9fdbb1ce052667b3a041357bd" target="_top" xlink:title="Reads the output of the serial port device and stores the content in a buffer.">
<polygon fill="none" stroke="black" points="1164,-136 1164,-155 1283,-155 1283,-136 1164,-136"/>
<text text-anchor="middle" x="1223.5" y="-143" font-family="Helvetica,sans-Serif" font-size="10.00">zwapi_serial_get_buffer</text>
</a>
</g>
</g>
<!-- Node25&#45;&gt;Node26 -->
<g id="edge32" class="edge">
<title>Node25&#45;&gt;Node26</title>
<path fill="none" stroke="midnightblue" d="M964.1,-146.3C1018.92,-146.13 1097.62,-145.89 1153.74,-145.71"/>
<polygon fill="midnightblue" stroke="midnightblue" points="1153.96,-149.21 1163.95,-145.68 1153.93,-142.21 1153.96,-149.21"/>
</g>
<!-- Node27 -->
<g id="node27" class="node">
<title>Node27</title>
<g id="a_node27"><a xlink:href="zwapi__serial_8c.html#abb082b1e7e727203e3ca5fbeb41f7c2b" target="_top" xlink:title="Reads a byte from the serial port device.">
<polygon fill="none" stroke="black" points="1007.5,-99 1007.5,-118 1120.5,-118 1120.5,-99 1007.5,-99"/>
<text text-anchor="middle" x="1064" y="-106" font-family="Helvetica,sans-Serif" font-size="10.00">zwapi_serial_get_byte</text>
</a>
</g>
</g>
<!-- Node25&#45;&gt;Node27 -->
<g id="edge35" class="edge">
<title>Node25&#45;&gt;Node27</title>
<path fill="none" stroke="midnightblue" d="M941.13,-136.91C962.74,-131.87 989.41,-125.66 1012.29,-120.32"/>
<polygon fill="midnightblue" stroke="midnightblue" points="1013.22,-123.7 1022.16,-118.02 1011.63,-116.88 1013.22,-123.7"/>
</g>
<!-- Node28 -->
<g id="node28" class="node">
<title>Node28</title>
<g id="a_node28"><a xlink:href="zwapi__serial_8c.html#a9a952dc2b34d92960246f6dc4e7d58f7" target="_top" xlink:title="Check the file descriptor for the serial device is available for I/O operations.">
<polygon fill="none" stroke="black" points="1013.5,-49.5 1013.5,-79.5 1114.5,-79.5 1114.5,-49.5 1013.5,-49.5"/>
<text text-anchor="start" x="1021.5" y="-67.5" font-family="Helvetica,sans-Serif" font-size="10.00">zwapi_serial_is_file</text>
<text text-anchor="middle" x="1064" y="-56.5" font-family="Helvetica,sans-Serif" font-size="10.00">_available</text>
</a>
</g>
</g>
<!-- Node25&#45;&gt;Node28 -->
<g id="edge37" class="edge">
<title>Node25&#45;&gt;Node28</title>
<path fill="none" stroke="midnightblue" d="M916.13,-136.94C939.98,-122.86 983.61,-97.38 1000,-89.5 1004.28,-87.44 1008.78,-85.41 1013.32,-83.45"/>
<polygon fill="midnightblue" stroke="midnightblue" points="1014.78,-86.64 1022.64,-79.54 1012.07,-80.18 1014.78,-86.64"/>
</g>
<!-- Node26&#45;&gt;Node14 -->
<g id="edge33" class="edge">
<title>Node26&#45;&gt;Node14</title>
<path fill="none" stroke="midnightblue" d="M1283.07,-144.43C1291.43,-144.27 1300.15,-144.11 1308.82,-143.95"/>
<polygon fill="midnightblue" stroke="midnightblue" points="1309.04,-147.45 1318.97,-143.77 1308.91,-140.45 1309.04,-147.45"/>
</g>
<!-- Node26&#45;&gt;Node15 -->
<g id="edge34" class="edge">
<title>Node26&#45;&gt;Node15</title>
<path fill="none" stroke="midnightblue" d="M1262.42,-155.01C1281.15,-159.71 1304.24,-165.5 1325.49,-170.82"/>
<polygon fill="midnightblue" stroke="midnightblue" points="1324.87,-174.28 1335.42,-173.32 1326.58,-167.49 1324.87,-174.28"/>
</g>
<!-- Node27&#45;&gt;Node26 -->
<g id="edge36" class="edge">
<title>Node27&#45;&gt;Node26</title>
<path fill="none" stroke="midnightblue" d="M1105.56,-118.03C1125.78,-122.78 1150.44,-128.57 1171.88,-133.61"/>
<polygon fill="midnightblue" stroke="midnightblue" points="1171.27,-137.06 1181.8,-135.94 1172.87,-130.25 1171.27,-137.06"/>
</g>
<!-- Node29&#45;&gt;Node20 -->
<g id="edge44" class="edge">
<title>Node29&#45;&gt;Node20</title>
<path fill="none" stroke="midnightblue" d="M788.79,-185.16C834.71,-191.16 903.87,-200.27 964,-208.5 974.86,-209.99 986.39,-211.59 997.6,-213.17"/>
<polygon fill="midnightblue" stroke="midnightblue" points="997.38,-216.67 1007.77,-214.6 998.36,-209.74 997.38,-216.67"/>
</g>
<!-- Node29&#45;&gt;Node23 -->
<g id="edge43" class="edge">
<title>Node29&#45;&gt;Node23</title>
<path fill="none" stroke="midnightblue" d="M763.42,-163.4C809.92,-136.62 910.99,-79.84 1000,-39.5 1003.84,-37.76 1007.84,-36.04 1011.89,-34.36"/>
<polygon fill="midnightblue" stroke="midnightblue" points="1013.4,-37.52 1021.36,-30.53 1010.77,-31.03 1013.4,-37.52"/>
</g>
<!-- Node29&#45;&gt;Node25 -->
<g id="edge42" class="edge">
<title>Node29&#45;&gt;Node25</title>
<path fill="none" stroke="midnightblue" d="M788.72,-168.29C805.06,-165.03 823.25,-161.4 840.02,-158.06"/>
<polygon fill="midnightblue" stroke="midnightblue" points="841.14,-161.41 850.26,-156.02 839.77,-154.54 841.14,-161.41"/>
</g>
<!-- Node32 -->
<g id="node32" class="node">
<title>Node32</title>
<g id="a_node32"><a xlink:href="zwapi__init_8c.html#af1ea16c1c68903ed2ac99307e0870929" target="_top" xlink:title=" ">
<polygon fill="none" stroke="black" points="340.5,-188 340.5,-207 459.5,-207 459.5,-188 340.5,-188"/>
<text text-anchor="middle" x="400" y="-195" font-family="Helvetica,sans-Serif" font-size="10.00">is_bit_num_set_in_byte</text>
</a>
</g>
</g>
<!-- Node31&#45;&gt;Node32 -->
<g id="edge50" class="edge">
<title>Node31&#45;&gt;Node32</title>
<path fill="none" stroke="midnightblue" d="M288.22,-197.5C301.89,-197.5 316.33,-197.5 330.11,-197.5"/>
<polygon fill="midnightblue" stroke="midnightblue" points="330.49,-201 340.49,-197.5 330.49,-194 330.49,-201"/>
</g>
</g>
</svg>
