<?xml version="1.0" encoding="UTF-8" standalone="no"?>
<!DOCTYPE svg PUBLIC "-//W3C//DTD SVG 1.1//EN"
 "http://www.w3.org/Graphics/SVG/1.1/DTD/svg11.dtd">
<!-- Generated by graphviz version 2.43.0 (0)
 -->
<!-- Title: zwapi_get_app_version Pages: 1 -->
<svg width="817pt" height="100pt"
 viewBox="0.00 0.00 817.00 99.50" xmlns="http://www.w3.org/2000/svg" xmlns:xlink="http://www.w3.org/1999/xlink">
<g id="graph0" class="graph" transform="scale(1 1) rotate(0) translate(4 95.5)">
<title>zwapi_get_app_version</title>
<!-- Node1 -->
<g id="node1" class="node">
<title>Node1</title>
<g id="a_node1"><a xlink:title="Get the application version of the serial API on the Z&#45;Wave module.">
<polygon fill="#bfbfbf" stroke="black" points="690,-38.5 690,-57.5 809,-57.5 809,-38.5 690,-38.5"/>
<text text-anchor="middle" x="749.5" y="-45.5" font-family="Helvetica,sans-Serif" font-size="10.00">zwapi_get_app_version</text>
</a>
</g>
</g>
<!-- Node2 -->
<g id="node2" class="node">
<title>Node2</title>
<g id="a_node2"><a xlink:href="zwave__command__class__version_8c.html#a49e98971c907a7d4b0ab3b86f941df0e" target="_top" xlink:title=" ">
<polygon fill="none" stroke="black" points="508,-61 508,-91 654,-91 654,-61 508,-61"/>
<text text-anchor="start" x="516" y="-79" font-family="Helvetica,sans-Serif" font-size="10.00">zwave_command_classes</text>
<text text-anchor="middle" x="581" y="-68" font-family="Helvetica,sans-Serif" font-size="10.00">_version_handler_version_get</text>
</a>
</g>
</g>
<!-- Node1&#45;&gt;Node2 -->
<g id="edge1" class="edge">
<title>Node1&#45;&gt;Node2</title>
<path fill="none" stroke="midnightblue" d="M681.61,-59.25C672.59,-60.77 663.29,-62.33 654.18,-63.86"/>
<polygon fill="midnightblue" stroke="midnightblue" points="682.38,-62.67 691.67,-57.56 681.22,-55.76 682.38,-62.67"/>
</g>
<!-- Node6 -->
<g id="node6" class="node">
<title>Node6</title>
<g id="a_node6"><a xlink:href="zwave__command__class__version_8c.html#a56dc326e5f799651f923c5bdf81c79d4" target="_top" xlink:title=" ">
<polygon fill="none" stroke="black" points="515,-0.5 515,-41.5 647,-41.5 647,-0.5 515,-0.5"/>
<text text-anchor="start" x="523" y="-29.5" font-family="Helvetica,sans-Serif" font-size="10.00">zwave_command_classes</text>
<text text-anchor="start" x="523" y="-18.5" font-family="Helvetica,sans-Serif" font-size="10.00">_version_handler_version</text>
<text text-anchor="middle" x="581" y="-7.5" font-family="Helvetica,sans-Serif" font-size="10.00">_software_get</text>
</a>
</g>
</g>
<!-- Node1&#45;&gt;Node6 -->
<g id="edge5" class="edge">
<title>Node1&#45;&gt;Node6</title>
<path fill="none" stroke="midnightblue" d="M679.65,-36.84C668.93,-35.1 657.89,-33.31 647.26,-31.58"/>
<polygon fill="midnightblue" stroke="midnightblue" points="679.37,-40.33 689.8,-38.48 680.49,-33.43 679.37,-40.33"/>
</g>
<!-- Node3 -->
<g id="node3" class="node">
<title>Node3</title>
<g id="a_node3"><a xlink:href="zwave__command__class__version_8c.html#a75a0004cf86479f6896b5b515576d83f" target="_top" xlink:title=" ">
<polygon fill="none" stroke="black" points="344,-33 344,-63 472,-63 472,-33 344,-33"/>
<text text-anchor="start" x="352" y="-51" font-family="Helvetica,sans-Serif" font-size="10.00">zwave_command_class</text>
<text text-anchor="middle" x="408" y="-40" font-family="Helvetica,sans-Serif" font-size="10.00">_version_support_handler</text>
</a>
</g>
</g>
<!-- Node2&#45;&gt;Node3 -->
<g id="edge2" class="edge">
<title>Node2&#45;&gt;Node3</title>
<path fill="none" stroke="midnightblue" d="M497.9,-62.56C489.28,-61.15 480.62,-59.73 472.26,-58.36"/>
<polygon fill="midnightblue" stroke="midnightblue" points="497.54,-66.04 507.98,-64.21 498.67,-59.14 497.54,-66.04"/>
</g>
<!-- Node4 -->
<g id="node4" class="node">
<title>Node4</title>
<g id="a_node4"><a xlink:href="group__zwave__command__class__version.html#gabae96a5c6c82334f5979f3b407b973e3" target="_top" xlink:title="Intitialize the Version Command Class control APIs.">
<polygon fill="none" stroke="black" points="186,-33 186,-63 308,-63 308,-33 186,-33"/>
<text text-anchor="start" x="194" y="-51" font-family="Helvetica,sans-Serif" font-size="10.00">zwave_command_class</text>
<text text-anchor="middle" x="247" y="-40" font-family="Helvetica,sans-Serif" font-size="10.00">_version_init</text>
</a>
</g>
</g>
<!-- Node3&#45;&gt;Node4 -->
<g id="edge3" class="edge">
<title>Node3&#45;&gt;Node4</title>
<path fill="none" stroke="midnightblue" d="M333.47,-48C325.02,-48 316.48,-48 308.23,-48"/>
<polygon fill="midnightblue" stroke="midnightblue" points="333.7,-51.5 343.7,-48 333.7,-44.5 333.7,-51.5"/>
</g>
<!-- Node5 -->
<g id="node5" class="node">
<title>Node5</title>
<g id="a_node5"><a xlink:href="group__command__classes__fixt.html#ga5272651939ced1723158340039e8da19" target="_top" xlink:title="Setup fixture for Z&#45;Wave Command Classes.">
<polygon fill="none" stroke="black" points="0,-38.5 0,-57.5 150,-57.5 150,-38.5 0,-38.5"/>
<text text-anchor="middle" x="75" y="-45.5" font-family="Helvetica,sans-Serif" font-size="10.00">zwave_command_classes_init</text>
</a>
</g>
</g>
<!-- Node4&#45;&gt;Node5 -->
<g id="edge4" class="edge">
<title>Node4&#45;&gt;Node5</title>
<path fill="none" stroke="midnightblue" d="M175.51,-48C167.16,-48 158.61,-48 150.21,-48"/>
<polygon fill="midnightblue" stroke="midnightblue" points="175.59,-51.5 185.59,-48 175.59,-44.5 175.59,-51.5"/>
</g>
<!-- Node6&#45;&gt;Node3 -->
<g id="edge6" class="edge">
<title>Node6&#45;&gt;Node3</title>
<path fill="none" stroke="midnightblue" d="M504.94,-32.85C494.03,-34.57 482.9,-36.33 472.26,-38.01"/>
<polygon fill="midnightblue" stroke="midnightblue" points="505.53,-36.3 514.86,-31.28 504.44,-29.39 505.53,-36.3"/>
</g>
</g>
</svg>
