<?xml version="1.0" encoding="UTF-8" standalone="no"?>
<!DOCTYPE svg PUBLIC "-//W3C//DTD SVG 1.1//EN"
 "http://www.w3.org/Graphics/SVG/1.1/DTD/svg11.dtd">
<!-- Generated by graphviz version 2.43.0 (0)
 -->
<!-- Title: zwave_controller_storage_inclusion_protocol Pages: 1 -->
<svg width="961pt" height="176pt"
 viewBox="0.00 0.00 961.00 176.00" xmlns="http://www.w3.org/2000/svg" xmlns:xlink="http://www.w3.org/1999/xlink">
<g id="graph0" class="graph" transform="scale(1 1) rotate(0) translate(4 172)">
<title>zwave_controller_storage_inclusion_protocol</title>
<!-- Node1 -->
<g id="node1" class="node">
<title>Node1</title>
<g id="a_node1"><a xlink:title="Returns the protocol that the node is running in this network.">
<polygon fill="#bfbfbf" stroke="black" points="825,-71.5 825,-101.5 953,-101.5 953,-71.5 825,-71.5"/>
<text text-anchor="start" x="833" y="-89.5" font-family="Helvetica,sans-Serif" font-size="10.00">zwave_controller_storage</text>
<text text-anchor="middle" x="889" y="-78.5" font-family="Helvetica,sans-Serif" font-size="10.00">_inclusion_protocol</text>
</a>
</g>
</g>
<!-- Node2 -->
<g id="node2" class="node">
<title>Node2</title>
<g id="a_node2"><a xlink:href="zwave__s2__transport_8c.html#a941224c0fe3a7bdef2ee00d21c72e4bb" target="_top" xlink:title="Finds out which keyset to use for S2 transmissions to a NodeID.">
<polygon fill="none" stroke="black" points="658,-99 658,-118 789,-118 789,-99 658,-99"/>
<text text-anchor="middle" x="723.5" y="-106" font-family="Helvetica,sans-Serif" font-size="10.00">get_s2_keyset_from_node</text>
</a>
</g>
</g>
<!-- Node1&#45;&gt;Node2 -->
<g id="edge1" class="edge">
<title>Node1&#45;&gt;Node2</title>
<path fill="none" stroke="midnightblue" d="M814.83,-96.35C806.27,-97.5 797.59,-98.66 789.17,-99.8"/>
<polygon fill="midnightblue" stroke="midnightblue" points="815.34,-99.81 824.79,-95.01 814.41,-92.87 815.34,-99.81"/>
</g>
<!-- Node7 -->
<g id="node7" class="node">
<title>Node7</title>
<g id="a_node7"><a xlink:href="group__zwave__tx__scheme__selector.html#gab15d83efc0084ff753e16826ce063136" target="_top" xlink:title="Computes the maximum number of bytes that can be sent to a given NodeID. (lowest layer)">
<polygon fill="none" stroke="black" points="665,-49.5 665,-79.5 782,-79.5 782,-49.5 665,-49.5"/>
<text text-anchor="start" x="673" y="-67.5" font-family="Helvetica,sans-Serif" font-size="10.00">zwave_tx_scheme_get</text>
<text text-anchor="middle" x="723.5" y="-56.5" font-family="Helvetica,sans-Serif" font-size="10.00">_max_payload</text>
</a>
</g>
</g>
<!-- Node1&#45;&gt;Node7 -->
<g id="edge7" class="edge">
<title>Node1&#45;&gt;Node7</title>
<path fill="none" stroke="midnightblue" d="M814.83,-76.65C803.89,-75.18 792.75,-73.68 782.2,-72.26"/>
<polygon fill="midnightblue" stroke="midnightblue" points="814.41,-80.13 824.79,-77.99 815.34,-73.19 814.41,-80.13"/>
</g>
<!-- Node3 -->
<g id="node3" class="node">
<title>Node3</title>
<g id="a_node3"><a xlink:href="zwave__s2__transport_8c.html#a09d06c6e68cce5284f0e4388c768ccdc" target="_top" xlink:title="Finds out which keyset to use for S2 transmissions to a Group ID.">
<polygon fill="none" stroke="black" points="504,-137.5 504,-167.5 609,-167.5 609,-137.5 504,-137.5"/>
<text text-anchor="start" x="512" y="-155.5" font-family="Helvetica,sans-Serif" font-size="10.00">get_s2_keyset_from</text>
<text text-anchor="middle" x="556.5" y="-144.5" font-family="Helvetica,sans-Serif" font-size="10.00">_group</text>
</a>
</g>
</g>
<!-- Node2&#45;&gt;Node3 -->
<g id="edge2" class="edge">
<title>Node2&#45;&gt;Node3</title>
<path fill="none" stroke="midnightblue" d="M676.76,-120.7C655.79,-126.29 630.85,-132.94 609.2,-138.71"/>
<polygon fill="midnightblue" stroke="midnightblue" points="677.94,-124.01 686.7,-118.05 676.13,-117.24 677.94,-124.01"/>
</g>
<!-- Node4 -->
<g id="node4" class="node">
<title>Node4</title>
<g id="a_node4"><a xlink:href="group__zwave__s2__internal.html#ga3ed55d2315fdd494c0e209f5e31986f9" target="_top" xlink:title="Sending an S2 encapsulated frame.">
<polygon fill="none" stroke="black" points="320.5,-121 320.5,-140 431.5,-140 431.5,-121 320.5,-121"/>
<text text-anchor="middle" x="376" y="-128" font-family="Helvetica,sans-Serif" font-size="10.00">zwave_s2_send_data</text>
</a>
</g>
</g>
<!-- Node2&#45;&gt;Node4 -->
<g id="edge6" class="edge">
<title>Node2&#45;&gt;Node4</title>
<path fill="none" stroke="midnightblue" d="M647.72,-113.26C582.66,-117.4 489.9,-123.31 431.6,-127.02"/>
<polygon fill="midnightblue" stroke="midnightblue" points="648.16,-116.74 657.92,-112.61 647.72,-109.75 648.16,-116.74"/>
</g>
<!-- Node3&#45;&gt;Node4 -->
<g id="edge3" class="edge">
<title>Node3&#45;&gt;Node4</title>
<path fill="none" stroke="midnightblue" d="M493.82,-144.9C473.6,-142.41 451.29,-139.66 431.62,-137.23"/>
<polygon fill="midnightblue" stroke="midnightblue" points="493.52,-148.39 503.87,-146.14 494.37,-141.44 493.52,-148.39"/>
</g>
<!-- Node5 -->
<g id="node5" class="node">
<title>Node5</title>
<g id="a_node5"><a xlink:href="zwave__s2__process_8c.html#a51f51bd8129a84a685510bf2aaa812a9" target="_top" xlink:title=" ">
<polygon fill="none" stroke="black" points="165.5,-121 165.5,-140 244.5,-140 244.5,-121 165.5,-121"/>
<text text-anchor="middle" x="205" y="-128" font-family="Helvetica,sans-Serif" font-size="10.00">zwave_s2_init</text>
</a>
</g>
</g>
<!-- Node4&#45;&gt;Node5 -->
<g id="edge4" class="edge">
<title>Node4&#45;&gt;Node5</title>
<path fill="none" stroke="midnightblue" d="M310.12,-130.5C287.99,-130.5 263.95,-130.5 244.56,-130.5"/>
<polygon fill="midnightblue" stroke="midnightblue" points="310.13,-134 320.13,-130.5 310.13,-127 310.13,-134"/>
</g>
<!-- Node6 -->
<g id="node6" class="node">
<title>Node6</title>
<g id="a_node6"><a xlink:href="zwave__s2__process_8c.html#afac04df3afbbd6765ef8bc3841257d47" target="_top" xlink:title=" ">
<polygon fill="none" stroke="black" points="0,-121 0,-140 113,-140 113,-121 0,-121"/>
<text text-anchor="middle" x="56.5" y="-128" font-family="Helvetica,sans-Serif" font-size="10.00">PROCESS_THREAD</text>
</a>
</g>
</g>
<!-- Node5&#45;&gt;Node6 -->
<g id="edge5" class="edge">
<title>Node5&#45;&gt;Node6</title>
<path fill="none" stroke="midnightblue" d="M155.1,-130.5C141.63,-130.5 126.92,-130.5 113.1,-130.5"/>
<polygon fill="midnightblue" stroke="midnightblue" points="155.13,-134 165.13,-130.5 155.13,-127 155.13,-134"/>
</g>
<!-- Node8 -->
<g id="node8" class="node">
<title>Node8</title>
<g id="a_node8"><a xlink:href="group__transport__service__transport__wrapper.html#ga6216ae3a018a4028bfc3025695784f0e" target="_top" xlink:title="Sending a frame with Transport service.">
<polygon fill="none" stroke="black" points="494,-49.5 494,-79.5 619,-79.5 619,-49.5 494,-49.5"/>
<text text-anchor="start" x="502" y="-67.5" font-family="Helvetica,sans-Serif" font-size="10.00">zwave_transport_service</text>
<text text-anchor="middle" x="556.5" y="-56.5" font-family="Helvetica,sans-Serif" font-size="10.00">_send_data</text>
</a>
</g>
</g>
<!-- Node7&#45;&gt;Node8 -->
<g id="edge8" class="edge">
<title>Node7&#45;&gt;Node8</title>
<path fill="none" stroke="midnightblue" d="M654.59,-64.5C642.84,-64.5 630.68,-64.5 619.1,-64.5"/>
<polygon fill="midnightblue" stroke="midnightblue" points="654.79,-68 664.79,-64.5 654.79,-61 654.79,-68"/>
</g>
<!-- Node11 -->
<g id="node11" class="node">
<title>Node11</title>
<g id="a_node11"><a xlink:href="group__zwave__tx__scheme__selector.html#ga6128c675d7c258737616e44ef823516d" target="_top" xlink:title="Computes how long of a frame can be sent to a given NodeID / Endpoint when queuing a frame at the app...">
<polygon fill="none" stroke="black" points="491,-0.5 491,-30.5 622,-30.5 622,-0.5 491,-0.5"/>
<text text-anchor="start" x="499" y="-18.5" font-family="Helvetica,sans-Serif" font-size="10.00">zwave_tx_scheme_get</text>
<text text-anchor="middle" x="556.5" y="-7.5" font-family="Helvetica,sans-Serif" font-size="10.00">_max_application_payload</text>
</a>
</g>
</g>
<!-- Node7&#45;&gt;Node11 -->
<g id="edge11" class="edge">
<title>Node7&#45;&gt;Node11</title>
<path fill="none" stroke="midnightblue" d="M662,-46.53C644.32,-41.28 625.19,-35.6 608.18,-30.55"/>
<polygon fill="midnightblue" stroke="midnightblue" points="661.07,-49.91 671.65,-49.4 663.06,-43.2 661.07,-49.91"/>
</g>
<!-- Node9 -->
<g id="node9" class="node">
<title>Node9</title>
<g id="a_node9"><a xlink:href="group__transport__service__transport__wrapper.html#gad02263e40b63853166ac8a7601954f33" target="_top" xlink:title=" ">
<polygon fill="none" stroke="black" points="313.5,-49.5 313.5,-79.5 438.5,-79.5 438.5,-49.5 313.5,-49.5"/>
<text text-anchor="start" x="321.5" y="-67.5" font-family="Helvetica,sans-Serif" font-size="10.00">zwave_transport_service</text>
<text text-anchor="middle" x="376" y="-56.5" font-family="Helvetica,sans-Serif" font-size="10.00">_transport_init</text>
</a>
</g>
</g>
<!-- Node8&#45;&gt;Node9 -->
<g id="edge9" class="edge">
<title>Node8&#45;&gt;Node9</title>
<path fill="none" stroke="midnightblue" d="M483.64,-64.5C468.74,-64.5 453.17,-64.5 438.68,-64.5"/>
<polygon fill="midnightblue" stroke="midnightblue" points="483.82,-68 493.82,-64.5 483.82,-61 483.82,-68"/>
</g>
<!-- Node10 -->
<g id="node10" class="node">
<title>Node10</title>
<g id="a_node10"><a xlink:href="group__zwave__transports__fixt.html#ga26fb2571e272a5094bd0320eca3a896d" target="_top" xlink:title="Setup fixture for Z&#45;Wave Transports.">
<polygon fill="none" stroke="black" points="149,-55 149,-74 261,-74 261,-55 149,-55"/>
<text text-anchor="middle" x="205" y="-62" font-family="Helvetica,sans-Serif" font-size="10.00">zwave_transports_init</text>
</a>
</g>
</g>
<!-- Node9&#45;&gt;Node10 -->
<g id="edge10" class="edge">
<title>Node9&#45;&gt;Node10</title>
<path fill="none" stroke="midnightblue" d="M302.97,-64.5C289,-64.5 274.58,-64.5 261.26,-64.5"/>
<polygon fill="midnightblue" stroke="midnightblue" points="303.03,-68 313.03,-64.5 303.03,-61 303.03,-68"/>
</g>
<!-- Node12 -->
<g id="node12" class="node">
<title>Node12</title>
<g id="a_node12"><a xlink:href="group__zwave__command__class__firmware__update__internals.html#ga1073e79c7ee689cf7b15f15075f3e5d4" target="_top" xlink:title="Gets the theoretical max fragment size with a node/endpoint.">
<polygon fill="none" stroke="black" points="297,-0.5 297,-30.5 455,-30.5 455,-0.5 297,-0.5"/>
<text text-anchor="start" x="305" y="-18.5" font-family="Helvetica,sans-Serif" font-size="10.00">firmware_transfer_get</text>
<text text-anchor="middle" x="376" y="-7.5" font-family="Helvetica,sans-Serif" font-size="10.00">_theoretical_max_fragment_size</text>
</a>
</g>
</g>
<!-- Node11&#45;&gt;Node12 -->
<g id="edge12" class="edge">
<title>Node11&#45;&gt;Node12</title>
<path fill="none" stroke="midnightblue" d="M480.64,-15.5C472.22,-15.5 463.62,-15.5 455.16,-15.5"/>
<polygon fill="midnightblue" stroke="midnightblue" points="480.81,-19 490.81,-15.5 480.8,-12 480.81,-19"/>
</g>
</g>
</svg>
