<?xml version="1.0" encoding="UTF-8" standalone="no"?>
<!DOCTYPE svg PUBLIC "-//W3C//DTD SVG 1.1//EN"
 "http://www.w3.org/Graphics/SVG/1.1/DTD/svg11.dtd">
<!-- Generated by graphviz version 2.43.0 (0)
 -->
<!-- Title: zwave_controller_on_frame_reception Pages: 1 -->
<svg width="685pt" height="127pt"
 viewBox="0.00 0.00 685.00 127.00" xmlns="http://www.w3.org/2000/svg" xmlns:xlink="http://www.w3.org/1999/xlink">
<g id="graph0" class="graph" transform="scale(1 1) rotate(0) translate(4 123)">
<title>zwave_controller_on_frame_reception</title>
<!-- Node1 -->
<g id="node1" class="node">
<title>Node1</title>
<g id="a_node1"><a xlink:title="Tell the Z&#45;Wave Controller that we received a frame (Rx) from a NodeID.">
<polygon fill="#bfbfbf" stroke="black" points="571,-22.5 571,-52.5 677,-52.5 677,-22.5 571,-22.5"/>
<text text-anchor="start" x="579" y="-40.5" font-family="Helvetica,sans-Serif" font-size="10.00">zwave_controller_on</text>
<text text-anchor="middle" x="624" y="-29.5" font-family="Helvetica,sans-Serif" font-size="10.00">_frame_reception</text>
</a>
</g>
</g>
<!-- Node2 -->
<g id="node2" class="node">
<title>Node2</title>
<g id="a_node2"><a xlink:href="group__zwave__rx__zwapi__callbacks.html#gad4081a8d944b8daad978322699bc01e3" target="_top" xlink:title="application_command_handler function for zwapi_callbacks. Z&#45;Wave API controller libraries will call t...">
<polygon fill="none" stroke="black" points="425,-44.5 425,-74.5 535,-74.5 535,-44.5 425,-44.5"/>
<text text-anchor="start" x="433" y="-62.5" font-family="Helvetica,sans-Serif" font-size="10.00">zwave_rx_application</text>
<text text-anchor="middle" x="480" y="-51.5" font-family="Helvetica,sans-Serif" font-size="10.00">_command_handler</text>
</a>
</g>
</g>
<!-- Node1&#45;&gt;Node2 -->
<g id="edge1" class="edge">
<title>Node1&#45;&gt;Node2</title>
<path fill="none" stroke="midnightblue" d="M561.04,-47.1C552.52,-48.42 543.82,-49.77 535.45,-51.06"/>
<polygon fill="midnightblue" stroke="midnightblue" points="561.58,-50.56 570.93,-45.57 560.51,-43.64 561.58,-50.56"/>
</g>
<!-- Node6 -->
<g id="node6" class="node">
<title>Node6</title>
<g id="a_node6"><a xlink:href="group__zwave__rx__zwapi__callbacks.html#gad8a7864d183b913f74d0f18edbf89f36" target="_top" xlink:title="application_controller_update function for zwapi_callbacks. Incoming NIF from the Z&#45;Wave nodes will b...">
<polygon fill="none" stroke="black" points="267.5,-0.5 267.5,-30.5 377.5,-30.5 377.5,-0.5 267.5,-0.5"/>
<text text-anchor="start" x="275.5" y="-18.5" font-family="Helvetica,sans-Serif" font-size="10.00">zwave_rx_application</text>
<text text-anchor="middle" x="322.5" y="-7.5" font-family="Helvetica,sans-Serif" font-size="10.00">_controller_update</text>
</a>
</g>
</g>
<!-- Node1&#45;&gt;Node6 -->
<g id="edge6" class="edge">
<title>Node1&#45;&gt;Node6</title>
<path fill="none" stroke="midnightblue" d="M560.68,-32.92C506.6,-28.95 429.11,-23.26 377.6,-19.47"/>
<polygon fill="midnightblue" stroke="midnightblue" points="560.6,-36.43 570.83,-33.67 561.11,-29.44 560.6,-36.43"/>
</g>
<!-- Node3 -->
<g id="node3" class="node">
<title>Node3</title>
<g id="a_node3"><a xlink:href="group__zwave__rx__zwapi__callbacks.html#gaa36427751230efea8a45e11214b73e99" target="_top" xlink:title="application_command_handler_bridge function for zwapi_callbacks. Z&#45;Wave API Bridge libraries will cal...">
<polygon fill="none" stroke="black" points="256,-88.5 256,-118.5 389,-118.5 389,-88.5 256,-88.5"/>
<text text-anchor="start" x="264" y="-106.5" font-family="Helvetica,sans-Serif" font-size="10.00">zwave_rx_application</text>
<text text-anchor="middle" x="322.5" y="-95.5" font-family="Helvetica,sans-Serif" font-size="10.00">_command_handler_bridge</text>
</a>
</g>
</g>
<!-- Node2&#45;&gt;Node3 -->
<g id="edge2" class="edge">
<title>Node2&#45;&gt;Node3</title>
<path fill="none" stroke="midnightblue" d="M416.05,-77.31C402.96,-81.02 389.3,-84.88 376.6,-88.47"/>
<polygon fill="midnightblue" stroke="midnightblue" points="417.25,-80.61 425.92,-74.52 415.35,-73.87 417.25,-80.61"/>
</g>
<!-- Node4 -->
<g id="node4" class="node">
<title>Node4</title>
<g id="a_node4"><a xlink:href="group__zwave__rx__internals.html#ga5fb555f285dbe1b21ba750d0443476c8" target="_top" xlink:title="Initialize the Z&#45;Wave Rx component.">
<polygon fill="none" stroke="black" points="143,-50 143,-69 220,-69 220,-50 143,-50"/>
<text text-anchor="middle" x="181.5" y="-57" font-family="Helvetica,sans-Serif" font-size="10.00">zwave_rx_init</text>
</a>
</g>
</g>
<!-- Node2&#45;&gt;Node4 -->
<g id="edge5" class="edge">
<title>Node2&#45;&gt;Node4</title>
<path fill="none" stroke="midnightblue" d="M414.94,-59.5C355.55,-59.5 269.2,-59.5 220.19,-59.5"/>
<polygon fill="midnightblue" stroke="midnightblue" points="414.96,-63 424.96,-59.5 414.96,-56 414.96,-63"/>
</g>
<!-- Node3&#45;&gt;Node4 -->
<g id="edge3" class="edge">
<title>Node3&#45;&gt;Node4</title>
<path fill="none" stroke="midnightblue" d="M264.37,-85.41C246.67,-79.81 227.87,-73.86 212.76,-69.08"/>
<polygon fill="midnightblue" stroke="midnightblue" points="263.46,-88.8 274.05,-88.48 265.58,-82.13 263.46,-88.8"/>
</g>
<!-- Node5 -->
<g id="node5" class="node">
<title>Node5</title>
<g id="a_node5"><a xlink:href="group__zwave__rx__fixt.html#ga89a6db07ef29cb6ad8f8cdeec935b442" target="_top" xlink:title=" ">
<polygon fill="none" stroke="black" points="0,-50 0,-69 107,-69 107,-50 0,-50"/>
<text text-anchor="middle" x="53.5" y="-57" font-family="Helvetica,sans-Serif" font-size="10.00">zwave_rx_fixt_setup</text>
</a>
</g>
</g>
<!-- Node4&#45;&gt;Node5 -->
<g id="edge4" class="edge">
<title>Node4&#45;&gt;Node5</title>
<path fill="none" stroke="midnightblue" d="M132.47,-59.5C124.2,-59.5 115.57,-59.5 107.19,-59.5"/>
<polygon fill="midnightblue" stroke="midnightblue" points="132.7,-63 142.7,-59.5 132.7,-56 132.7,-63"/>
</g>
<!-- Node6&#45;&gt;Node4 -->
<g id="edge7" class="edge">
<title>Node6&#45;&gt;Node4</title>
<path fill="none" stroke="midnightblue" d="M264.37,-33.59C246.67,-39.19 227.87,-45.14 212.76,-49.92"/>
<polygon fill="midnightblue" stroke="midnightblue" points="265.58,-36.87 274.05,-30.52 263.46,-30.2 265.58,-36.87"/>
</g>
</g>
</svg>
