<?xml version="1.0" encoding="UTF-8" standalone="no"?>
<!DOCTYPE svg PUBLIC "-//W3C//DTD SVG 1.1//EN"
 "http://www.w3.org/Graphics/SVG/1.1/DTD/svg11.dtd">
<!-- Generated by graphviz version 2.43.0 (0)
 -->
<!-- Title: zwave_controller_request_protocol_cc_encryption_callback Pages: 1 -->
<svg width="1456pt" height="541pt"
 viewBox="0.00 0.00 1456.00 541.00" xmlns="http://www.w3.org/2000/svg" xmlns:xlink="http://www.w3.org/1999/xlink">
<g id="graph0" class="graph" transform="scale(1 1) rotate(0) translate(4 537)">
<title>zwave_controller_request_protocol_cc_encryption_callback</title>
<!-- Node1 -->
<g id="node1" class="node">
<title>Node1</title>
<g id="a_node1"><a xlink:title="Callback function for requesting protocol Command Class encryption.">
<polygon fill="#bfbfbf" stroke="black" points="0,-216.5 0,-257.5 128,-257.5 128,-216.5 0,-216.5"/>
<text text-anchor="start" x="8" y="-245.5" font-family="Helvetica,sans-Serif" font-size="10.00">zwave_controller_request</text>
<text text-anchor="start" x="8" y="-234.5" font-family="Helvetica,sans-Serif" font-size="10.00">_protocol_cc_encryption</text>
<text text-anchor="middle" x="64" y="-223.5" font-family="Helvetica,sans-Serif" font-size="10.00">_callback</text>
</a>
</g>
</g>
<!-- Node2 -->
<g id="node2" class="node">
<title>Node2</title>
<g id="a_node2"><a xlink:href="group__ZWAPI__CONTROLLER.html#gaf87c30a585843d4d452c9ff4e0eab5ec" target="_top" xlink:title="Sends TX status, TX report and session ID of the ongoing protocol command class encryption session to...">
<polygon fill="none" stroke="black" points="164,-222 164,-252 288,-252 288,-222 164,-222"/>
<text text-anchor="start" x="172" y="-240" font-family="Helvetica,sans-Serif" font-size="10.00">zwapi_request_protocol</text>
<text text-anchor="middle" x="226" y="-229" font-family="Helvetica,sans-Serif" font-size="10.00">_cc_encryption_callback</text>
</a>
</g>
</g>
<!-- Node1&#45;&gt;Node2 -->
<g id="edge1" class="edge">
<title>Node1&#45;&gt;Node2</title>
<path fill="none" stroke="midnightblue" d="M128.24,-237C136.56,-237 145.13,-237 153.58,-237"/>
<polygon fill="midnightblue" stroke="midnightblue" points="153.79,-240.5 163.79,-237 153.79,-233.5 153.79,-240.5"/>
</g>
<!-- Node3 -->
<g id="node3" class="node">
<title>Node3</title>
<g id="a_node3"><a xlink:href="zwapi__init_8c.html#a67064ee382c07d0af51a9d9339b3fcde" target="_top" xlink:title="Verifies that the command is supported by the Z&#45;Wave module.">
<polygon fill="none" stroke="black" points="324,-227.5 324,-246.5 440,-246.5 440,-227.5 324,-227.5"/>
<text text-anchor="middle" x="382" y="-234.5" font-family="Helvetica,sans-Serif" font-size="10.00">zwapi_send_command</text>
</a>
</g>
</g>
<!-- Node2&#45;&gt;Node3 -->
<g id="edge2" class="edge">
<title>Node2&#45;&gt;Node3</title>
<path fill="none" stroke="midnightblue" d="M288.31,-237C296.66,-237 305.26,-237 313.71,-237"/>
<polygon fill="midnightblue" stroke="midnightblue" points="313.91,-240.5 323.91,-237 313.91,-233.5 313.91,-240.5"/>
</g>
<!-- Node4 -->
<g id="node4" class="node">
<title>Node4</title>
<g id="a_node4"><a xlink:href="zwapi__session_8c.html#a32577f3500efc3d937dbc68eebb3c370" target="_top" xlink:title="Send data frame to Z&#45;Wave chip via serial port and wait for ACK.">
<polygon fill="none" stroke="black" points="498.5,-244 498.5,-274 605.5,-274 605.5,-244 498.5,-244"/>
<text text-anchor="start" x="506.5" y="-262" font-family="Helvetica,sans-Serif" font-size="10.00">zwapi_session_send</text>
<text text-anchor="middle" x="552" y="-251" font-family="Helvetica,sans-Serif" font-size="10.00">_frame</text>
</a>
</g>
</g>
<!-- Node3&#45;&gt;Node4 -->
<g id="edge3" class="edge">
<title>Node3&#45;&gt;Node4</title>
<path fill="none" stroke="midnightblue" d="M440.35,-244.51C455.79,-246.53 472.56,-248.73 488.28,-250.79"/>
<polygon fill="midnightblue" stroke="midnightblue" points="488.06,-254.29 498.43,-252.12 488.97,-247.35 488.06,-254.29"/>
</g>
<!-- Node29 -->
<g id="node29" class="node">
<title>Node29</title>
<g id="a_node29"><a xlink:href="group__ZWAPI__INIT.html#ga0a823074baec69913d0e8590b46e4e33" target="_top" xlink:title="Check if a command is supported by the connected Z&#45;Wave module.">
<polygon fill="none" stroke="black" points="476,-205.5 476,-224.5 628,-224.5 628,-205.5 476,-205.5"/>
<text text-anchor="middle" x="552" y="-212.5" font-family="Helvetica,sans-Serif" font-size="10.00">zwapi_support_command_func</text>
</a>
</g>
</g>
<!-- Node3&#45;&gt;Node29 -->
<g id="edge43" class="edge">
<title>Node3&#45;&gt;Node29</title>
<path fill="none" stroke="midnightblue" d="M440.35,-229.49C449.28,-228.32 458.67,-227.09 468.03,-225.86"/>
<polygon fill="midnightblue" stroke="midnightblue" points="468.71,-229.31 478.17,-224.54 467.8,-222.37 468.71,-229.31"/>
</g>
<!-- Node5 -->
<g id="node5" class="node">
<title>Node5</title>
<g id="a_node5"><a xlink:href="zwapi__connection_8c.html#a13b6e6b6c56844f4344fabe490bc5eac" target="_top" xlink:title="Closes and re&#45;initializes the zwapi_connection to the Z&#45;Wave module.">
<polygon fill="none" stroke="black" points="824,-363.5 824,-382.5 952,-382.5 952,-363.5 824,-363.5"/>
<text text-anchor="middle" x="888" y="-370.5" font-family="Helvetica,sans-Serif" font-size="10.00">zwapi_connection_restart</text>
</a>
</g>
</g>
<!-- Node4&#45;&gt;Node5 -->
<g id="edge4" class="edge">
<title>Node4&#45;&gt;Node5</title>
<path fill="none" stroke="midnightblue" d="M566.28,-274.25C585.49,-295.15 623.23,-332.04 664,-349 711.2,-368.63 768.63,-374.44 813.39,-375.44"/>
<polygon fill="midnightblue" stroke="midnightblue" points="813.55,-378.95 823.6,-375.59 813.66,-371.95 813.55,-378.95"/>
</g>
<!-- Node15 -->
<g id="node15" class="node">
<title>Node15</title>
<g id="a_node15"><a xlink:href="zwapi__timestamp_8c.html#a6ebe1ddfe689bce6ee72fc12f708aece" target="_top" xlink:title="get the timestamp">
<polygon fill="none" stroke="black" points="997,-349.5 997,-368.5 1109,-368.5 1109,-349.5 997,-349.5"/>
<text text-anchor="middle" x="1053" y="-356.5" font-family="Helvetica,sans-Serif" font-size="10.00">zwapi_timestamp_get</text>
</a>
</g>
</g>
<!-- Node4&#45;&gt;Node15 -->
<g id="edge42" class="edge">
<title>Node4&#45;&gt;Node15</title>
<path fill="none" stroke="midnightblue" d="M605.77,-270.5C624.19,-274.49 645,-278.97 664,-283 734.61,-297.96 752.2,-302.01 823,-316 879.38,-327.14 943.71,-339.16 989.81,-347.65"/>
<polygon fill="midnightblue" stroke="midnightblue" points="989.18,-351.1 999.65,-349.46 990.45,-344.21 989.18,-351.1"/>
</g>
<!-- Node16 -->
<g id="node16" class="node">
<title>Node16</title>
<g id="a_node16"><a xlink:href="zwapi__connection_8c.html#af47f8cbd93974d5c91d659fdeb7a870b" target="_top" xlink:title="Transmit a frame via serial port by adding SOF, Len, Type, cmd and Checksum.">
<polygon fill="none" stroke="black" points="834,-401.5 834,-420.5 942,-420.5 942,-401.5 834,-401.5"/>
<text text-anchor="middle" x="888" y="-408.5" font-family="Helvetica,sans-Serif" font-size="10.00">zwapi_connection_tx</text>
</a>
</g>
</g>
<!-- Node4&#45;&gt;Node16 -->
<g id="edge15" class="edge">
<title>Node4&#45;&gt;Node16</title>
<path fill="none" stroke="midnightblue" d="M562.47,-274.2C579.38,-299.9 617.4,-351.52 664,-376 713.51,-402.01 777.12,-409.9 823.72,-411.78"/>
<polygon fill="midnightblue" stroke="midnightblue" points="823.88,-415.29 833.99,-412.11 824.11,-408.29 823.88,-415.29"/>
</g>
<!-- Node18 -->
<g id="node18" class="node">
<title>Node18</title>
<g id="a_node18"><a xlink:href="zwapi__timestamp_8c.html#a3925f2732e344672608db38351236688" target="_top" xlink:title="compare the current timestamp with the timestamp passed as an argument">
<polygon fill="none" stroke="black" points="1000,-137 1000,-167 1106,-167 1106,-137 1000,-137"/>
<text text-anchor="start" x="1008" y="-155" font-family="Helvetica,sans-Serif" font-size="10.00">zwapi_is_timestamp</text>
<text text-anchor="middle" x="1053" y="-144" font-family="Helvetica,sans-Serif" font-size="10.00">_elapsed</text>
</a>
</g>
</g>
<!-- Node4&#45;&gt;Node18 -->
<g id="edge20" class="edge">
<title>Node4&#45;&gt;Node18</title>
<path fill="none" stroke="midnightblue" d="M605.66,-246.39C660,-233.5 747.27,-213.13 823,-197 879.3,-185.01 943.64,-172.47 989.76,-163.68"/>
<polygon fill="midnightblue" stroke="midnightblue" points="990.44,-167.11 999.61,-161.81 989.13,-160.24 990.44,-167.11"/>
</g>
<!-- Node19 -->
<g id="node19" class="node">
<title>Node19</title>
<g id="a_node19"><a xlink:href="zwapi__session_8c.html#a1f2b3e7c2dcf31708ef8d333747352ba" target="_top" xlink:title=" ">
<polygon fill="none" stroke="black" points="826.5,-80 826.5,-110 949.5,-110 949.5,-80 826.5,-80"/>
<text text-anchor="start" x="834.5" y="-98" font-family="Helvetica,sans-Serif" font-size="10.00">zwapi_session_enqueue</text>
<text text-anchor="middle" x="888" y="-87" font-family="Helvetica,sans-Serif" font-size="10.00">_frame</text>
</a>
</g>
</g>
<!-- Node4&#45;&gt;Node19 -->
<g id="edge21" class="edge">
<title>Node4&#45;&gt;Node19</title>
<path fill="none" stroke="midnightblue" d="M605.58,-248.71C613.9,-245.17 621.79,-240.4 628,-234 666.77,-194.04 620.78,-149.11 664,-114 705.95,-79.92 768.16,-77.27 816.22,-81.95"/>
<polygon fill="midnightblue" stroke="midnightblue" points="815.92,-85.44 826.25,-83.05 816.69,-78.48 815.92,-85.44"/>
</g>
<!-- Node23 -->
<g id="node23" class="node">
<title>Node23</title>
<g id="a_node23"><a xlink:href="zwapi__session_8c.html#a2875fbfa250b7b25ecb6bc4f0b032cb8" target="_top" xlink:title="Loads the received frames from the serial device into the zwapi_session receive queue.">
<polygon fill="none" stroke="black" points="664,-124 664,-154 787,-154 787,-124 664,-124"/>
<text text-anchor="start" x="672" y="-142" font-family="Helvetica,sans-Serif" font-size="10.00">zwapi_session_enqueue</text>
<text text-anchor="middle" x="725.5" y="-131" font-family="Helvetica,sans-Serif" font-size="10.00">_rx_frames</text>
</a>
</g>
</g>
<!-- Node4&#45;&gt;Node23 -->
<g id="edge25" class="edge">
<title>Node4&#45;&gt;Node23</title>
<path fill="none" stroke="midnightblue" d="M605.66,-247.06C613.68,-243.71 621.46,-239.44 628,-234 653.4,-212.89 640.12,-191.81 664,-169 667.77,-165.4 672.06,-162.14 676.57,-159.22"/>
<polygon fill="midnightblue" stroke="midnightblue" points="678.59,-162.09 685.44,-154.01 675.04,-156.05 678.59,-162.09"/>
</g>
<!-- Node28 -->
<g id="node28" class="node">
<title>Node28</title>
<g id="a_node28"><a xlink:href="zwapi__session_8c.html#a9d30e1677f02d7730ab035aa9333235d" target="_top" xlink:title=" ">
<polygon fill="none" stroke="black" points="673.5,-244 673.5,-274 777.5,-274 777.5,-244 673.5,-244"/>
<text text-anchor="start" x="681.5" y="-262" font-family="Helvetica,sans-Serif" font-size="10.00">zwapi_session_wait</text>
<text text-anchor="middle" x="725.5" y="-251" font-family="Helvetica,sans-Serif" font-size="10.00">_for_response</text>
</a>
</g>
</g>
<!-- Node4&#45;&gt;Node28 -->
<g id="edge38" class="edge">
<title>Node4&#45;&gt;Node28</title>
<path fill="none" stroke="midnightblue" d="M605.86,-259C623.96,-259 644.37,-259 663.09,-259"/>
<polygon fill="midnightblue" stroke="midnightblue" points="663.29,-262.5 673.29,-259 663.29,-255.5 663.29,-262.5"/>
</g>
<!-- Node6 -->
<g id="node6" class="node">
<title>Node6</title>
<g id="a_node6"><a xlink:href="zwapi__serial_8c.html#a3f2b3bd848e9fe0e6e137482bed06b46" target="_top" xlink:title="Flush the serial output if using buffered output.">
<polygon fill="none" stroke="black" points="1004.5,-388 1004.5,-418 1101.5,-418 1101.5,-388 1004.5,-388"/>
<text text-anchor="start" x="1012.5" y="-406" font-family="Helvetica,sans-Serif" font-size="10.00">zwapi_serial_drain</text>
<text text-anchor="middle" x="1053" y="-395" font-family="Helvetica,sans-Serif" font-size="10.00">_buffer</text>
</a>
</g>
</g>
<!-- Node5&#45;&gt;Node6 -->
<g id="edge5" class="edge">
<title>Node5&#45;&gt;Node6</title>
<path fill="none" stroke="midnightblue" d="M941.02,-382.57C958,-385.7 976.95,-389.19 994.32,-392.38"/>
<polygon fill="midnightblue" stroke="midnightblue" points="993.87,-395.86 1004.34,-394.23 995.14,-388.98 993.87,-395.86"/>
</g>
<!-- Node7 -->
<g id="node7" class="node">
<title>Node7</title>
<g id="a_node7"><a xlink:href="zwapi__serial_8c.html#a7762d0358e9f398b92edbfd6a550984a" target="_top" xlink:title="Write a byte to serial port device.">
<polygon fill="none" stroke="black" points="996.5,-311.5 996.5,-330.5 1109.5,-330.5 1109.5,-311.5 996.5,-311.5"/>
<text text-anchor="middle" x="1053" y="-318.5" font-family="Helvetica,sans-Serif" font-size="10.00">zwapi_serial_put_byte</text>
</a>
</g>
</g>
<!-- Node5&#45;&gt;Node7 -->
<g id="edge6" class="edge">
<title>Node5&#45;&gt;Node7</title>
<path fill="none" stroke="midnightblue" d="M917.39,-363.42C937.37,-356.72 964.77,-347.65 989,-340 995.73,-337.87 1002.89,-335.67 1009.87,-333.54"/>
<polygon fill="midnightblue" stroke="midnightblue" points="1011.34,-336.75 1019.9,-330.51 1009.32,-330.05 1011.34,-336.75"/>
</g>
<!-- Node11 -->
<g id="node11" class="node">
<title>Node11</title>
<g id="a_node11"><a xlink:href="zwapi__serial_8c.html#aadf3397d0bd2c1657d4b1a373599acfe" target="_top" xlink:title="Closes and re&#45;initialize the last open serial port.">
<polygon fill="none" stroke="black" points="1001,-475.5 1001,-494.5 1105,-494.5 1105,-475.5 1001,-475.5"/>
<text text-anchor="middle" x="1053" y="-482.5" font-family="Helvetica,sans-Serif" font-size="10.00">zwapi_serial_restart</text>
</a>
</g>
</g>
<!-- Node5&#45;&gt;Node11 -->
<g id="edge10" class="edge">
<title>Node5&#45;&gt;Node11</title>
<path fill="none" stroke="midnightblue" d="M931.86,-382.59C939.17,-385.09 946.5,-388.19 953,-392 972.25,-403.28 972.79,-411.66 989,-427 1003.88,-441.08 1021,-456.81 1033.63,-468.33"/>
<polygon fill="midnightblue" stroke="midnightblue" points="1031.47,-471.09 1041.22,-475.24 1036.18,-465.92 1031.47,-471.09"/>
</g>
<!-- Node5&#45;&gt;Node15 -->
<g id="edge14" class="edge">
<title>Node5&#45;&gt;Node15</title>
<path fill="none" stroke="midnightblue" d="M952.02,-367.59C963.34,-366.62 975.16,-365.6 986.54,-364.62"/>
<polygon fill="midnightblue" stroke="midnightblue" points="987.18,-368.08 996.85,-363.74 986.58,-361.11 987.18,-368.08"/>
</g>
<!-- Node8 -->
<g id="node8" class="node">
<title>Node8</title>
<g id="a_node8"><a xlink:href="zwapi__serial_8c.html#af9054824651df422bab5076d16a80fda" target="_top" xlink:title="Writes the content of a buffer to the serial port device.">
<polygon fill="none" stroke="black" points="1153,-312.5 1153,-331.5 1272,-331.5 1272,-312.5 1153,-312.5"/>
<text text-anchor="middle" x="1212.5" y="-319.5" font-family="Helvetica,sans-Serif" font-size="10.00">zwapi_serial_put_buffer</text>
</a>
</g>
</g>
<!-- Node7&#45;&gt;Node8 -->
<g id="edge7" class="edge">
<title>Node7&#45;&gt;Node8</title>
<path fill="none" stroke="midnightblue" d="M1109.53,-321.35C1120.24,-321.42 1131.59,-321.49 1142.66,-321.56"/>
<polygon fill="midnightblue" stroke="midnightblue" points="1142.71,-325.06 1152.74,-321.63 1142.76,-318.06 1142.71,-325.06"/>
</g>
<!-- Node9 -->
<g id="node9" class="node">
<title>Node9</title>
<g id="a_node9"><a xlink:href="zwapi__serial_8c.html#a0accbbf7ddb7aeab10f5df1fe3df6642" target="_top" xlink:title=" ">
<polygon fill="none" stroke="black" points="1308,-313.5 1308,-332.5 1448,-332.5 1448,-313.5 1308,-313.5"/>
<text text-anchor="middle" x="1378" y="-320.5" font-family="Helvetica,sans-Serif" font-size="10.00">zwapi_serial_log_timestamp</text>
</a>
</g>
</g>
<!-- Node8&#45;&gt;Node9 -->
<g id="edge8" class="edge">
<title>Node8&#45;&gt;Node9</title>
<path fill="none" stroke="midnightblue" d="M1272.07,-322.36C1280.43,-322.41 1289.15,-322.46 1297.82,-322.52"/>
<polygon fill="midnightblue" stroke="midnightblue" points="1297.95,-326.02 1307.97,-322.58 1297.99,-319.02 1297.95,-326.02"/>
</g>
<!-- Node10 -->
<g id="node10" class="node">
<title>Node10</title>
<g id="a_node10"><a xlink:href="zwapi__serial_8c.html#abf18afb71e14daaf65d937149ef1639f" target="_top" xlink:title="Test if a is less than b + ms.">
<polygon fill="none" stroke="black" points="1324.5,-264 1324.5,-294 1431.5,-294 1431.5,-264 1324.5,-264"/>
<text text-anchor="start" x="1332.5" y="-282" font-family="Helvetica,sans-Serif" font-size="10.00">zwapi_serial_timeval</text>
<text text-anchor="middle" x="1378" y="-271" font-family="Helvetica,sans-Serif" font-size="10.00">_a_lt_b_milis</text>
</a>
</g>
</g>
<!-- Node8&#45;&gt;Node10 -->
<g id="edge9" class="edge">
<title>Node8&#45;&gt;Node10</title>
<path fill="none" stroke="midnightblue" d="M1249.79,-312.46C1268.8,-307.46 1292.61,-301.19 1314.48,-295.44"/>
<polygon fill="midnightblue" stroke="midnightblue" points="1315.59,-298.77 1324.37,-292.84 1313.81,-292 1315.59,-298.77"/>
</g>
<!-- Node12 -->
<g id="node12" class="node">
<title>Node12</title>
<g id="a_node12"><a xlink:href="zwapi__serial_8c.html#aae586785021ac9a605cd77651429f0c9" target="_top" xlink:title="De&#45;Initialize the serial port.">
<polygon fill="none" stroke="black" points="1163,-494.5 1163,-513.5 1262,-513.5 1262,-494.5 1163,-494.5"/>
<text text-anchor="middle" x="1212.5" y="-501.5" font-family="Helvetica,sans-Serif" font-size="10.00">zwapi_serial_close</text>
</a>
</g>
</g>
<!-- Node11&#45;&gt;Node12 -->
<g id="edge11" class="edge">
<title>Node11&#45;&gt;Node12</title>
<path fill="none" stroke="midnightblue" d="M1105.14,-491.17C1120.31,-493 1137.06,-495.02 1152.68,-496.9"/>
<polygon fill="midnightblue" stroke="midnightblue" points="1152.42,-500.4 1162.76,-498.12 1153.25,-493.45 1152.42,-500.4"/>
</g>
<!-- Node13 -->
<g id="node13" class="node">
<title>Node13</title>
<g id="a_node13"><a xlink:href="zwapi__serial_8c.html#a07b09de97f4932d882fc77e191c44638" target="_top" xlink:title="Initialize the serial port to 115200 BAUD 8N1.">
<polygon fill="none" stroke="black" points="1168,-456.5 1168,-475.5 1257,-475.5 1257,-456.5 1168,-456.5"/>
<text text-anchor="middle" x="1212.5" y="-463.5" font-family="Helvetica,sans-Serif" font-size="10.00">zwapi_serial_init</text>
</a>
</g>
</g>
<!-- Node11&#45;&gt;Node13 -->
<g id="edge12" class="edge">
<title>Node11&#45;&gt;Node13</title>
<path fill="none" stroke="midnightblue" d="M1105.14,-478.83C1121.87,-476.81 1140.51,-474.56 1157.46,-472.52"/>
<polygon fill="midnightblue" stroke="midnightblue" points="1158.25,-475.95 1167.76,-471.28 1157.41,-469 1158.25,-475.95"/>
</g>
<!-- Node14 -->
<g id="node14" class="node">
<title>Node14</title>
<g id="a_node14"><a xlink:href="zwapi__serial_8c.html#aefeac5909b0bf6411db1492f69c3bc68" target="_top" xlink:title=" ">
<polygon fill="none" stroke="black" points="1318.5,-456.5 1318.5,-475.5 1437.5,-475.5 1437.5,-456.5 1318.5,-456.5"/>
<text text-anchor="middle" x="1378" y="-463.5" font-family="Helvetica,sans-Serif" font-size="10.00">zwapi_open_serial_port</text>
</a>
</g>
</g>
<!-- Node13&#45;&gt;Node14 -->
<g id="edge13" class="edge">
<title>Node13&#45;&gt;Node14</title>
<path fill="none" stroke="midnightblue" d="M1257.31,-466C1272.97,-466 1291.01,-466 1308.26,-466"/>
<polygon fill="midnightblue" stroke="midnightblue" points="1308.3,-469.5 1318.3,-466 1308.3,-462.5 1308.3,-469.5"/>
</g>
<!-- Node16&#45;&gt;Node6 -->
<g id="edge17" class="edge">
<title>Node16&#45;&gt;Node6</title>
<path fill="none" stroke="midnightblue" d="M942.37,-408.38C958.9,-407.57 977.19,-406.67 994.02,-405.85"/>
<polygon fill="midnightblue" stroke="midnightblue" points="994.47,-409.33 1004.28,-405.34 994.12,-402.34 994.47,-409.33"/>
</g>
<!-- Node16&#45;&gt;Node8 -->
<g id="edge18" class="edge">
<title>Node16&#45;&gt;Node8</title>
<path fill="none" stroke="midnightblue" d="M915.34,-420.55C959.29,-434.86 1049.4,-457.11 1117,-427 1156.75,-409.3 1186.8,-365.69 1201.5,-340.59"/>
<polygon fill="midnightblue" stroke="midnightblue" points="1204.66,-342.11 1206.52,-331.68 1198.56,-338.67 1204.66,-342.11"/>
</g>
<!-- Node16&#45;&gt;Node15 -->
<g id="edge19" class="edge">
<title>Node16&#45;&gt;Node15</title>
<path fill="none" stroke="midnightblue" d="M923.04,-401.46C932.77,-398.58 943.35,-395.3 953,-392 969.24,-386.44 972.77,-383.59 989,-378 995.39,-375.8 1002.18,-373.6 1008.86,-371.52"/>
<polygon fill="midnightblue" stroke="midnightblue" points="1009.96,-374.85 1018.49,-368.58 1007.91,-368.15 1009.96,-374.85"/>
</g>
<!-- Node17 -->
<g id="node17" class="node">
<title>Node17</title>
<g id="a_node17"><a xlink:href="zwapi__connection_8c.html#a96d24d537c5b8d6aa0aa6a7638ba2f09" target="_top" xlink:title=" ">
<polygon fill="none" stroke="black" points="995.5,-513.5 995.5,-532.5 1110.5,-532.5 1110.5,-513.5 995.5,-513.5"/>
<text text-anchor="middle" x="1053" y="-520.5" font-family="Helvetica,sans-Serif" font-size="10.00">zwapi_frame_to_string</text>
</a>
</g>
</g>
<!-- Node16&#45;&gt;Node17 -->
<g id="edge16" class="edge">
<title>Node16&#45;&gt;Node17</title>
<path fill="none" stroke="midnightblue" d="M896.74,-420.69C912.25,-439.5 949.11,-481.11 989,-504 992.73,-506.14 996.73,-508.07 1000.84,-509.79"/>
<polygon fill="midnightblue" stroke="midnightblue" points="999.95,-513.19 1010.54,-513.45 1002.42,-506.65 999.95,-513.19"/>
</g>
<!-- Node20 -->
<g id="node20" class="node">
<title>Node20</title>
<g id="a_node20"><a xlink:href="zwapi__connection_8c.html#a91ce3acd7eff779496789637a9c27f40" target="_top" xlink:title="Provides the data of the serial buffer for the last received frame.">
<polygon fill="none" stroke="black" points="996.5,-88 996.5,-118 1109.5,-118 1109.5,-88 996.5,-88"/>
<text text-anchor="start" x="1004.5" y="-106" font-family="Helvetica,sans-Serif" font-size="10.00">zwapi_connection_get</text>
<text text-anchor="middle" x="1053" y="-95" font-family="Helvetica,sans-Serif" font-size="10.00">_last_rx_frame</text>
</a>
</g>
</g>
<!-- Node19&#45;&gt;Node20 -->
<g id="edge22" class="edge">
<title>Node19&#45;&gt;Node20</title>
<path fill="none" stroke="midnightblue" d="M949.7,-97.98C961.65,-98.57 974.24,-99.18 986.34,-99.78"/>
<polygon fill="midnightblue" stroke="midnightblue" points="986.21,-103.28 996.37,-100.27 986.55,-96.28 986.21,-103.28"/>
</g>
<!-- Node21 -->
<g id="node21" class="node">
<title>Node21</title>
<g id="a_node21"><a xlink:href="zwapi__session_8c.html#ad7bac697ee2388b38ed3777b5a3862bc" target="_top" xlink:title=" ">
<polygon fill="none" stroke="black" points="996.5,-39 996.5,-69 1109.5,-69 1109.5,-39 996.5,-39"/>
<text text-anchor="start" x="1004.5" y="-57" font-family="Helvetica,sans-Serif" font-size="10.00">zwapi_session_get_rx</text>
<text text-anchor="middle" x="1053" y="-46" font-family="Helvetica,sans-Serif" font-size="10.00">_queue_length</text>
</a>
</g>
</g>
<!-- Node19&#45;&gt;Node21 -->
<g id="edge23" class="edge">
<title>Node19&#45;&gt;Node21</title>
<path fill="none" stroke="midnightblue" d="M948.77,-79.97C961.03,-76.88 974,-73.62 986.45,-70.49"/>
<polygon fill="midnightblue" stroke="midnightblue" points="987.45,-73.84 996.3,-68.01 985.75,-67.06 987.45,-73.84"/>
</g>
<!-- Node22 -->
<g id="node22" class="node">
<title>Node22</title>
<g id="a_node22"><a xlink:href="group__ZWAPI__INIT.html#ga438a74c9752197d20d377874d5a61694" target="_top" xlink:title="Returns the pointer to the callbacks registered at init.">
<polygon fill="none" stroke="black" points="989,-0.5 989,-19.5 1117,-19.5 1117,-0.5 989,-0.5"/>
<text text-anchor="middle" x="1053" y="-7.5" font-family="Helvetica,sans-Serif" font-size="10.00">zwave_api_get_callbacks</text>
</a>
</g>
</g>
<!-- Node19&#45;&gt;Node22 -->
<g id="edge24" class="edge">
<title>Node19&#45;&gt;Node22</title>
<path fill="none" stroke="midnightblue" d="M908.29,-79.8C927.73,-65.09 959.05,-43.03 989,-29 993.91,-26.7 999.17,-24.6 1004.48,-22.7"/>
<polygon fill="midnightblue" stroke="midnightblue" points="1005.65,-26 1014.02,-19.51 1003.43,-19.36 1005.65,-26"/>
</g>
<!-- Node23&#45;&gt;Node19 -->
<g id="edge37" class="edge">
<title>Node23&#45;&gt;Node19</title>
<path fill="none" stroke="midnightblue" d="M781.29,-123.98C794.51,-120.35 808.77,-116.45 822.4,-112.71"/>
<polygon fill="midnightblue" stroke="midnightblue" points="823.47,-116.05 832.19,-110.03 821.62,-109.29 823.47,-116.05"/>
</g>
<!-- Node24 -->
<g id="node24" class="node">
<title>Node24</title>
<g id="a_node24"><a xlink:href="zwapi__connection_8c.html#a1e45c6c9695b5e7b415adfad40080720" target="_top" xlink:title="Parses serial data sent from the Z&#45;Wave module to the serial port. Should be frequently called by mai...">
<polygon fill="none" stroke="black" points="823,-249.5 823,-268.5 953,-268.5 953,-249.5 823,-249.5"/>
<text text-anchor="middle" x="888" y="-256.5" font-family="Helvetica,sans-Serif" font-size="10.00">zwapi_connection_refresh</text>
</a>
</g>
</g>
<!-- Node23&#45;&gt;Node24 -->
<g id="edge26" class="edge">
<title>Node23&#45;&gt;Node24</title>
<path fill="none" stroke="midnightblue" d="M746.83,-154.2C777.38,-177.04 834.87,-220.02 865.88,-243.21"/>
<polygon fill="midnightblue" stroke="midnightblue" points="864.14,-246.28 874.24,-249.46 868.33,-240.67 864.14,-246.28"/>
</g>
<!-- Node24&#45;&gt;Node6 -->
<g id="edge28" class="edge">
<title>Node24&#45;&gt;Node6</title>
<path fill="none" stroke="midnightblue" d="M894.77,-268.72C908.45,-291.01 945.01,-346.27 989,-378 991.62,-379.89 994.41,-381.67 997.3,-383.33"/>
<polygon fill="midnightblue" stroke="midnightblue" points="995.7,-386.44 1006.18,-387.97 998.94,-380.24 995.7,-386.44"/>
</g>
<!-- Node24&#45;&gt;Node7 -->
<g id="edge35" class="edge">
<title>Node24&#45;&gt;Node7</title>
<path fill="none" stroke="midnightblue" d="M916.72,-268.52C928.09,-272.66 941.31,-277.75 953,-283 969.5,-290.41 972.26,-295.13 989,-302 994.48,-304.25 1000.33,-306.37 1006.18,-308.32"/>
<polygon fill="midnightblue" stroke="midnightblue" points="1005.34,-311.72 1015.93,-311.43 1007.47,-305.05 1005.34,-311.72"/>
</g>
<!-- Node24&#45;&gt;Node15 -->
<g id="edge36" class="edge">
<title>Node24&#45;&gt;Node15</title>
<path fill="none" stroke="midnightblue" d="M926.71,-268.55C935.95,-272.07 945.36,-276.78 953,-283 976.24,-301.91 965.15,-321.86 989,-340 991.47,-341.88 994.12,-343.57 996.89,-345.09"/>
<polygon fill="midnightblue" stroke="midnightblue" points="995.51,-348.31 1006.05,-349.42 998.5,-341.99 995.51,-348.31"/>
</g>
<!-- Node24&#45;&gt;Node18 -->
<g id="edge27" class="edge">
<title>Node24&#45;&gt;Node18</title>
<path fill="none" stroke="midnightblue" d="M927.11,-249.4C936.24,-245.89 945.5,-241.2 953,-235 976.67,-215.43 965.38,-195.64 989,-176 990.55,-174.71 992.18,-173.48 993.87,-172.32"/>
<polygon fill="midnightblue" stroke="midnightblue" points="995.95,-175.15 1002.73,-167.01 992.35,-169.15 995.95,-175.15"/>
</g>
<!-- Node25 -->
<g id="node25" class="node">
<title>Node25</title>
<g id="a_node25"><a xlink:href="zwapi__serial_8c.html#a538134f9fdbb1ce052667b3a041357bd" target="_top" xlink:title="Reads the output of the serial port device and stores the content in a buffer.">
<polygon fill="none" stroke="black" points="1153,-272.5 1153,-291.5 1272,-291.5 1272,-272.5 1153,-272.5"/>
<text text-anchor="middle" x="1212.5" y="-279.5" font-family="Helvetica,sans-Serif" font-size="10.00">zwapi_serial_get_buffer</text>
</a>
</g>
</g>
<!-- Node24&#45;&gt;Node25 -->
<g id="edge29" class="edge">
<title>Node24&#45;&gt;Node25</title>
<path fill="none" stroke="midnightblue" d="M953.06,-257.57C998.86,-257.24 1061.88,-258.19 1117,-264 1130.76,-265.45 1145.52,-267.85 1159.18,-270.43"/>
<polygon fill="midnightblue" stroke="midnightblue" points="1158.9,-273.94 1169.39,-272.43 1160.24,-267.07 1158.9,-273.94"/>
</g>
<!-- Node26 -->
<g id="node26" class="node">
<title>Node26</title>
<g id="a_node26"><a xlink:href="zwapi__serial_8c.html#abb082b1e7e727203e3ca5fbeb41f7c2b" target="_top" xlink:title="Reads a byte from the serial port device.">
<polygon fill="none" stroke="black" points="996.5,-273.5 996.5,-292.5 1109.5,-292.5 1109.5,-273.5 996.5,-273.5"/>
<text text-anchor="middle" x="1053" y="-280.5" font-family="Helvetica,sans-Serif" font-size="10.00">zwapi_serial_get_byte</text>
</a>
</g>
</g>
<!-- Node24&#45;&gt;Node26 -->
<g id="edge32" class="edge">
<title>Node24&#45;&gt;Node26</title>
<path fill="none" stroke="midnightblue" d="M953.42,-268.49C964.32,-270.09 975.65,-271.76 986.58,-273.37"/>
<polygon fill="midnightblue" stroke="midnightblue" points="986.07,-276.83 996.47,-274.82 987.09,-269.91 986.07,-276.83"/>
</g>
<!-- Node27 -->
<g id="node27" class="node">
<title>Node27</title>
<g id="a_node27"><a xlink:href="zwapi__serial_8c.html#a9a952dc2b34d92960246f6dc4e7d58f7" target="_top" xlink:title="Check the file descriptor for the serial device is available for I/O operations.">
<polygon fill="none" stroke="black" points="1002.5,-186 1002.5,-216 1103.5,-216 1103.5,-186 1002.5,-186"/>
<text text-anchor="start" x="1010.5" y="-204" font-family="Helvetica,sans-Serif" font-size="10.00">zwapi_serial_is_file</text>
<text text-anchor="middle" x="1053" y="-193" font-family="Helvetica,sans-Serif" font-size="10.00">_available</text>
</a>
</g>
</g>
<!-- Node24&#45;&gt;Node27 -->
<g id="edge34" class="edge">
<title>Node24&#45;&gt;Node27</title>
<path fill="none" stroke="midnightblue" d="M915.92,-249.42C938.73,-241.31 972.09,-229.43 1000.08,-219.48"/>
<polygon fill="midnightblue" stroke="midnightblue" points="1001.48,-222.69 1009.73,-216.04 999.13,-216.1 1001.48,-222.69"/>
</g>
<!-- Node25&#45;&gt;Node9 -->
<g id="edge30" class="edge">
<title>Node25&#45;&gt;Node9</title>
<path fill="none" stroke="midnightblue" d="M1251.42,-291.51C1274.55,-297.31 1304.33,-304.78 1329.09,-310.99"/>
<polygon fill="midnightblue" stroke="midnightblue" points="1328.45,-314.43 1339,-313.47 1330.15,-307.64 1328.45,-314.43"/>
</g>
<!-- Node25&#45;&gt;Node10 -->
<g id="edge31" class="edge">
<title>Node25&#45;&gt;Node10</title>
<path fill="none" stroke="midnightblue" d="M1272.07,-280.93C1285.65,-280.68 1300.16,-280.41 1313.92,-280.16"/>
<polygon fill="midnightblue" stroke="midnightblue" points="1314.34,-283.65 1324.28,-279.97 1314.22,-276.65 1314.34,-283.65"/>
</g>
<!-- Node26&#45;&gt;Node25 -->
<g id="edge33" class="edge">
<title>Node26&#45;&gt;Node25</title>
<path fill="none" stroke="midnightblue" d="M1109.53,-282.65C1120.24,-282.58 1131.59,-282.51 1142.66,-282.44"/>
<polygon fill="midnightblue" stroke="midnightblue" points="1142.76,-285.94 1152.74,-282.37 1142.71,-278.94 1142.76,-285.94"/>
</g>
<!-- Node28&#45;&gt;Node15 -->
<g id="edge41" class="edge">
<title>Node28&#45;&gt;Node15</title>
<path fill="none" stroke="midnightblue" d="M777.91,-269.69C824.51,-280.17 894.61,-297.92 953,-321 969.83,-327.65 972.26,-333.13 989,-340 994.48,-342.25 1000.33,-344.37 1006.18,-346.32"/>
<polygon fill="midnightblue" stroke="midnightblue" points="1005.34,-349.72 1015.93,-349.43 1007.47,-343.05 1005.34,-349.72"/>
</g>
<!-- Node28&#45;&gt;Node18 -->
<g id="edge40" class="edge">
<title>Node28&#45;&gt;Node18</title>
<path fill="none" stroke="midnightblue" d="M777.7,-248.99C824.45,-238.92 894.93,-221.39 953,-197 970.08,-189.83 972.29,-183.99 989,-176 992.58,-174.29 996.32,-172.61 1000.11,-170.98"/>
<polygon fill="midnightblue" stroke="midnightblue" points="1001.67,-174.12 1009.57,-167.07 999,-167.65 1001.67,-174.12"/>
</g>
<!-- Node28&#45;&gt;Node24 -->
<g id="edge39" class="edge">
<title>Node28&#45;&gt;Node24</title>
<path fill="none" stroke="midnightblue" d="M777.72,-259C788.79,-259 800.71,-259 812.47,-259"/>
<polygon fill="midnightblue" stroke="midnightblue" points="812.73,-262.5 822.73,-259 812.73,-255.5 812.73,-262.5"/>
</g>
</g>
</svg>
