<?xml version="1.0" encoding="UTF-8" standalone="no"?>
<!DOCTYPE svg PUBLIC "-//W3C//DTD SVG 1.1//EN"
 "http://www.w3.org/Graphics/SVG/1.1/DTD/svg11.dtd">
<!-- Generated by graphviz version 2.43.0 (0)
 -->
<!-- Title: zwapi_init Pages: 1 -->
<svg width="1721pt" height="641pt"
 viewBox="0.00 0.00 1721.00 640.50" xmlns="http://www.w3.org/2000/svg" xmlns:xlink="http://www.w3.org/1999/xlink">
<g id="graph0" class="graph" transform="scale(1 1) rotate(0) translate(4 636.5)">
<title>zwapi_init</title>
<!-- Node1 -->
<g id="node1" class="node">
<title>Node1</title>
<g id="a_node1"><a xlink:title=" ">
<polygon fill="#bfbfbf" stroke="black" points="0,-369.5 0,-388.5 60,-388.5 60,-369.5 0,-369.5"/>
<text text-anchor="middle" x="30" y="-376.5" font-family="Helvetica,sans-Serif" font-size="10.00">zwapi_init</text>
</a>
</g>
</g>
<!-- Node2 -->
<g id="node2" class="node">
<title>Node2</title>
<g id="a_node2"><a xlink:href="zwapi__init_8c.html#ad6b74219e50e600461d29c191ce07809" target="_top" xlink:title=" ">
<polygon fill="none" stroke="black" points="96.5,-535.5 96.5,-554.5 226.5,-554.5 226.5,-535.5 96.5,-535.5"/>
<text text-anchor="middle" x="161.5" y="-542.5" font-family="Helvetica,sans-Serif" font-size="10.00">zwapi_init_local_variables</text>
</a>
</g>
</g>
<!-- Node1&#45;&gt;Node2 -->
<g id="edge1" class="edge">
<title>Node1&#45;&gt;Node2</title>
<path fill="none" stroke="midnightblue" d="M38.71,-388.89C59.91,-416.05 119.26,-492.13 146.5,-527.06"/>
<polygon fill="midnightblue" stroke="midnightblue" points="144.08,-529.64 152.99,-535.37 149.6,-525.34 144.08,-529.64"/>
</g>
<!-- Node4 -->
<g id="node4" class="node">
<title>Node4</title>
<g id="a_node4"><a xlink:href="group__ZWAPI__INIT.html#gab39e440bdb6435b04e754771c5ad41b5" target="_top" xlink:title="Refresh the whole zwapi_chip_data_t structure from the Z&#45;Wave module.">
<polygon fill="none" stroke="black" points="96,-426.5 96,-445.5 227,-445.5 227,-426.5 96,-426.5"/>
<text text-anchor="middle" x="161.5" y="-433.5" font-family="Helvetica,sans-Serif" font-size="10.00">zwapi_refresh_capabilities</text>
</a>
</g>
</g>
<!-- Node1&#45;&gt;Node4 -->
<g id="edge3" class="edge">
<title>Node1&#45;&gt;Node4</title>
<path fill="none" stroke="midnightblue" d="M52.68,-388.54C73.69,-397.79 105.77,-411.91 129.48,-422.35"/>
<polygon fill="midnightblue" stroke="midnightblue" points="128.19,-425.6 138.75,-426.43 131.01,-419.2 128.19,-425.6"/>
</g>
<!-- Node40 -->
<g id="node40" class="node">
<title>Node40</title>
<g id="a_node40"><a xlink:href="zwapi__session_8c.html#ad653c0891822b4877c2c1eaeda3dcd46" target="_top" xlink:title="Initialize a zwapi_session with the Z&#45;Wave module.">
<polygon fill="none" stroke="black" points="780,-194.5 780,-213.5 879,-213.5 879,-194.5 780,-194.5"/>
<text text-anchor="middle" x="829.5" y="-201.5" font-family="Helvetica,sans-Serif" font-size="10.00">zwapi_session_init</text>
</a>
</g>
</g>
<!-- Node1&#45;&gt;Node40 -->
<g id="edge61" class="edge">
<title>Node1&#45;&gt;Node40</title>
<path fill="none" stroke="midnightblue" d="M59.45,-369.46C110.44,-353.23 221.06,-322 317,-322 317,-322 317,-322 476.5,-322 605.06,-322 746.97,-250.37 803.39,-218.72"/>
<polygon fill="midnightblue" stroke="midnightblue" points="805.34,-221.64 812.3,-213.66 801.88,-215.56 805.34,-221.64"/>
</g>
<!-- Node42 -->
<g id="node42" class="node">
<title>Node42</title>
<g id="a_node42"><a xlink:href="zwapi__protocol__rx__dispatch_8c.html#af8a0f2e49dcc15d4fd7b84a1704342f3" target="_top" xlink:title="Initialize functions pointers for Z&#45;Wave module callbacks.">
<polygon fill="none" stroke="black" points="110,-263 110,-293 213,-293 213,-263 110,-263"/>
<text text-anchor="start" x="118" y="-281" font-family="Helvetica,sans-Serif" font-size="10.00">zwave_api_protocol</text>
<text text-anchor="middle" x="161.5" y="-270" font-family="Helvetica,sans-Serif" font-size="10.00">_init_callbacks</text>
</a>
</g>
</g>
<!-- Node1&#45;&gt;Node42 -->
<g id="edge67" class="edge">
<title>Node1&#45;&gt;Node42</title>
<path fill="none" stroke="midnightblue" d="M38,-369.14C48.96,-354.28 71.47,-325.98 96,-308 101.1,-304.26 106.74,-300.82 112.5,-297.71"/>
<polygon fill="midnightblue" stroke="midnightblue" points="114.26,-300.74 121.58,-293.08 111.08,-294.5 114.26,-300.74"/>
</g>
<!-- Node3 -->
<g id="node3" class="node">
<title>Node3</title>
<g id="a_node3"><a xlink:href="group__ZWAPI__INIT.html#gac747addbb718dc86d958ba5f38bb5ad5" target="_top" xlink:title="Sets the value of &quot;awaiting a Z&#45;Wave API started callback&quot;.">
<polygon fill="none" stroke="black" points="266,-602 266,-632 370,-632 370,-602 266,-602"/>
<text text-anchor="start" x="274" y="-620" font-family="Helvetica,sans-Serif" font-size="10.00">zwapi_set_awaiting</text>
<text text-anchor="middle" x="318" y="-609" font-family="Helvetica,sans-Serif" font-size="10.00">_zwave_api_started</text>
</a>
</g>
</g>
<!-- Node2&#45;&gt;Node3 -->
<g id="edge2" class="edge">
<title>Node2&#45;&gt;Node3</title>
<path fill="none" stroke="midnightblue" d="M183.02,-554.56C206.42,-565.47 245.31,-583.59 275.18,-597.51"/>
<polygon fill="midnightblue" stroke="midnightblue" points="273.99,-600.82 284.53,-601.87 276.95,-594.47 273.99,-600.82"/>
</g>
<!-- Node5 -->
<g id="node5" class="node">
<title>Node5</title>
<g id="a_node5"><a xlink:href="group__ZWAPI__INIT.html#gaf72f3e780e6152b385987b0c075675f7" target="_top" xlink:title="Get zwave_api initialization data from the remote side (Enhanced Z&#45;Wave module).">
<polygon fill="none" stroke="black" points="424,-350.5 424,-369.5 527,-369.5 527,-350.5 424,-350.5"/>
<text text-anchor="middle" x="475.5" y="-357.5" font-family="Helvetica,sans-Serif" font-size="10.00">zwapi_get_init_data</text>
</a>
</g>
</g>
<!-- Node4&#45;&gt;Node5 -->
<g id="edge4" class="edge">
<title>Node4&#45;&gt;Node5</title>
<path fill="none" stroke="midnightblue" d="M176.76,-426.47C195.62,-414.39 230.3,-393.95 263,-384 312.42,-368.97 370.94,-363.2 413.88,-361.05"/>
<polygon fill="midnightblue" stroke="midnightblue" points="414.06,-364.55 423.89,-360.61 413.74,-357.56 414.06,-364.55"/>
</g>
<!-- Node6 -->
<g id="node6" class="node">
<title>Node6</title>
<g id="a_node6"><a xlink:href="zwapi__session_8c.html#abf613a2ad7710ac80fb239ba55e621d7" target="_top" xlink:title="Send data frame to Z&#45;Wave chip via serial API, wait for ACK and a RES frame.">
<polygon fill="none" stroke="black" points="596.5,-383 596.5,-413 711.5,-413 711.5,-383 596.5,-383"/>
<text text-anchor="start" x="604.5" y="-401" font-family="Helvetica,sans-Serif" font-size="10.00">zwapi_session_send</text>
<text text-anchor="middle" x="654" y="-390" font-family="Helvetica,sans-Serif" font-size="10.00">_frame_with_response</text>
</a>
</g>
</g>
<!-- Node4&#45;&gt;Node6 -->
<g id="edge59" class="edge">
<title>Node4&#45;&gt;Node6</title>
<path fill="none" stroke="midnightblue" d="M205.83,-426.45C223.48,-422.92 244.13,-419.23 263,-417 375.91,-403.64 508.27,-399.63 586.13,-398.45"/>
<polygon fill="midnightblue" stroke="midnightblue" points="586.33,-401.95 596.28,-398.31 586.24,-394.95 586.33,-401.95"/>
</g>
<!-- Node33 -->
<g id="node33" class="node">
<title>Node33</title>
<g id="a_node33"><a xlink:href="group__ZWAPI__BASIS.html#ga28dff025f7f823c31eb08946f9d5af03" target="_top" xlink:title="Get the current RF region.">
<polygon fill="none" stroke="black" points="266,-426.5 266,-445.5 370,-445.5 370,-426.5 266,-426.5"/>
<text text-anchor="middle" x="318" y="-433.5" font-family="Helvetica,sans-Serif" font-size="10.00">zwapi_get_rf_region</text>
</a>
</g>
</g>
<!-- Node4&#45;&gt;Node33 -->
<g id="edge50" class="edge">
<title>Node4&#45;&gt;Node33</title>
<path fill="none" stroke="midnightblue" d="M227.13,-436C236.6,-436 246.33,-436 255.74,-436"/>
<polygon fill="midnightblue" stroke="midnightblue" points="255.78,-439.5 265.78,-436 255.78,-432.5 255.78,-439.5"/>
</g>
<!-- Node35 -->
<g id="node35" class="node">
<title>Node35</title>
<g id="a_node35"><a xlink:href="group__ZWAPI__INIT.html#ga0a823074baec69913d0e8590b46e4e33" target="_top" xlink:title="Check if a command is supported by the connected Z&#45;Wave module.">
<polygon fill="none" stroke="black" points="578,-516.5 578,-535.5 730,-535.5 730,-516.5 578,-516.5"/>
<text text-anchor="middle" x="654" y="-523.5" font-family="Helvetica,sans-Serif" font-size="10.00">zwapi_support_command_func</text>
</a>
</g>
</g>
<!-- Node4&#45;&gt;Node35 -->
<g id="edge60" class="edge">
<title>Node4&#45;&gt;Node35</title>
<path fill="none" stroke="midnightblue" d="M169.1,-445.65C187.13,-471.7 237.59,-542.27 263,-554 383.71,-609.75 548.01,-563.8 618.53,-539.14"/>
<polygon fill="midnightblue" stroke="midnightblue" points="620,-542.33 628.24,-535.67 617.65,-535.74 620,-542.33"/>
</g>
<!-- Node38 -->
<g id="node38" class="node">
<title>Node38</title>
<g id="a_node38"><a xlink:href="group__ZWAPI__BASIS.html#gad17a2025ad92cd82aaf16bc44da27d7c" target="_top" xlink:title="Get the Z&#45;Wave library basis version.">
<polygon fill="none" stroke="black" points="263,-465 263,-495 373,-495 373,-465 263,-465"/>
<text text-anchor="start" x="271" y="-483" font-family="Helvetica,sans-Serif" font-size="10.00">zwapi_get_zw_library</text>
<text text-anchor="middle" x="318" y="-472" font-family="Helvetica,sans-Serif" font-size="10.00">_version</text>
</a>
</g>
</g>
<!-- Node4&#45;&gt;Node38 -->
<g id="edge56" class="edge">
<title>Node4&#45;&gt;Node38</title>
<path fill="none" stroke="midnightblue" d="M196.02,-445.55C213.11,-450.41 234.45,-456.49 254.43,-462.18"/>
<polygon fill="midnightblue" stroke="midnightblue" points="253.52,-465.56 264.1,-464.93 255.44,-458.83 253.52,-465.56"/>
</g>
<!-- Node39 -->
<g id="node39" class="node">
<title>Node39</title>
<g id="a_node39"><a xlink:href="zwapi__session_8c.html#ae9af89b1122e8be3a8704581079dd824" target="_top" xlink:title="Flush the zwapi_session receive queue.">
<polygon fill="none" stroke="black" points="264.5,-514 264.5,-544 371.5,-544 371.5,-514 264.5,-514"/>
<text text-anchor="start" x="272.5" y="-532" font-family="Helvetica,sans-Serif" font-size="10.00">zwapi_session_flush</text>
<text text-anchor="middle" x="318" y="-521" font-family="Helvetica,sans-Serif" font-size="10.00">_queue</text>
</a>
</g>
</g>
<!-- Node4&#45;&gt;Node39 -->
<g id="edge58" class="edge">
<title>Node4&#45;&gt;Node39</title>
<path fill="none" stroke="midnightblue" d="M175.02,-445.72C193.57,-459.85 229.75,-486.4 263,-505 265.69,-506.5 268.49,-507.99 271.34,-509.43"/>
<polygon fill="midnightblue" stroke="midnightblue" points="270.01,-512.67 280.53,-513.89 273.06,-506.37 270.01,-512.67"/>
</g>
<!-- Node5&#45;&gt;Node6 -->
<g id="edge5" class="edge">
<title>Node5&#45;&gt;Node6</title>
<path fill="none" stroke="midnightblue" d="M521.04,-369.59C540.88,-373.86 564.66,-378.98 586.53,-383.69"/>
<polygon fill="midnightblue" stroke="midnightblue" points="585.91,-387.14 596.43,-385.82 587.39,-380.29 585.91,-387.14"/>
</g>
<!-- Node7 -->
<g id="node7" class="node">
<title>Node7</title>
<g id="a_node7"><a xlink:href="zwapi__connection_8c.html#a91ce3acd7eff779496789637a9c27f40" target="_top" xlink:title="Provides the data of the serial buffer for the last received frame.">
<polygon fill="none" stroke="black" points="1261.5,-542 1261.5,-572 1374.5,-572 1374.5,-542 1261.5,-542"/>
<text text-anchor="start" x="1269.5" y="-560" font-family="Helvetica,sans-Serif" font-size="10.00">zwapi_connection_get</text>
<text text-anchor="middle" x="1318" y="-549" font-family="Helvetica,sans-Serif" font-size="10.00">_last_rx_frame</text>
</a>
</g>
</g>
<!-- Node6&#45;&gt;Node7 -->
<g id="edge6" class="edge">
<title>Node6&#45;&gt;Node7</title>
<path fill="none" stroke="midnightblue" d="M711.59,-412.2C718.14,-415.17 724.46,-418.73 730,-423 753.14,-440.83 741.43,-462.19 766,-478 917.75,-575.64 1141.27,-572.87 1251.13,-564.22"/>
<polygon fill="midnightblue" stroke="midnightblue" points="1251.73,-567.69 1261.4,-563.37 1251.15,-560.71 1251.73,-567.69"/>
</g>
<!-- Node8 -->
<g id="node8" class="node">
<title>Node8</title>
<g id="a_node8"><a xlink:href="zwapi__connection_8c.html#a86b069d152a5c2f8ac95774a688dff48" target="_top" xlink:title="make the zwapi_connection_status types human readable.">
<polygon fill="none" stroke="black" points="766,-408 766,-438 893,-438 893,-408 766,-408"/>
<text text-anchor="start" x="774" y="-426" font-family="Helvetica,sans-Serif" font-size="10.00">zwapi_connection_status</text>
<text text-anchor="middle" x="829.5" y="-415" font-family="Helvetica,sans-Serif" font-size="10.00">_to_string</text>
</a>
</g>
</g>
<!-- Node6&#45;&gt;Node8 -->
<g id="edge7" class="edge">
<title>Node6&#45;&gt;Node8</title>
<path fill="none" stroke="midnightblue" d="M711.81,-406.19C725.86,-408.21 741.11,-410.41 755.8,-412.52"/>
<polygon fill="midnightblue" stroke="midnightblue" points="755.47,-416.01 765.87,-413.97 756.47,-409.08 755.47,-416.01"/>
</g>
<!-- Node9 -->
<g id="node9" class="node">
<title>Node9</title>
<g id="a_node9"><a xlink:href="zwapi__session_8c.html#a1f2b3e7c2dcf31708ef8d333747352ba" target="_top" xlink:title=" ">
<polygon fill="none" stroke="black" points="1091.5,-470 1091.5,-500 1214.5,-500 1214.5,-470 1091.5,-470"/>
<text text-anchor="start" x="1099.5" y="-488" font-family="Helvetica,sans-Serif" font-size="10.00">zwapi_session_enqueue</text>
<text text-anchor="middle" x="1153" y="-477" font-family="Helvetica,sans-Serif" font-size="10.00">_frame</text>
</a>
</g>
</g>
<!-- Node6&#45;&gt;Node9 -->
<g id="edge8" class="edge">
<title>Node6&#45;&gt;Node9</title>
<path fill="none" stroke="midnightblue" d="M706.62,-413.04C714.61,-415.98 722.64,-419.31 730,-423 747.42,-431.72 748.06,-440.41 766,-448 869.09,-491.64 1001.11,-494.2 1080.99,-490.63"/>
<polygon fill="midnightblue" stroke="midnightblue" points="1081.61,-494.1 1091.43,-490.12 1081.27,-487.11 1081.61,-494.1"/>
</g>
<!-- Node12 -->
<g id="node12" class="node">
<title>Node12</title>
<g id="a_node12"><a xlink:href="zwapi__session_8c.html#a32577f3500efc3d937dbc68eebb3c370" target="_top" xlink:title="Send data frame to Z&#45;Wave chip via serial port and wait for ACK.">
<polygon fill="none" stroke="black" points="776,-359 776,-389 883,-389 883,-359 776,-359"/>
<text text-anchor="start" x="784" y="-377" font-family="Helvetica,sans-Serif" font-size="10.00">zwapi_session_send</text>
<text text-anchor="middle" x="829.5" y="-366" font-family="Helvetica,sans-Serif" font-size="10.00">_frame</text>
</a>
</g>
</g>
<!-- Node6&#45;&gt;Node12 -->
<g id="edge12" class="edge">
<title>Node6&#45;&gt;Node12</title>
<path fill="none" stroke="midnightblue" d="M711.81,-390.14C729.08,-387.75 748.15,-385.12 765.78,-382.68"/>
<polygon fill="midnightblue" stroke="midnightblue" points="766.54,-386.1 775.97,-381.27 765.58,-379.17 766.54,-386.1"/>
</g>
<!-- Node32 -->
<g id="node32" class="node">
<title>Node32</title>
<g id="a_node32"><a xlink:href="zwapi__session_8c.html#a9d30e1677f02d7730ab035aa9333235d" target="_top" xlink:title=" ">
<polygon fill="none" stroke="black" points="938.5,-315 938.5,-345 1042.5,-345 1042.5,-315 938.5,-315"/>
<text text-anchor="start" x="946.5" y="-333" font-family="Helvetica,sans-Serif" font-size="10.00">zwapi_session_wait</text>
<text text-anchor="middle" x="990.5" y="-322" font-family="Helvetica,sans-Serif" font-size="10.00">_for_response</text>
</a>
</g>
</g>
<!-- Node6&#45;&gt;Node32 -->
<g id="edge49" class="edge">
<title>Node6&#45;&gt;Node32</title>
<path fill="none" stroke="midnightblue" d="M682.37,-382.85C704.29,-371.48 736.2,-356.62 766,-349 819.55,-335.31 882.43,-330.96 927.83,-329.8"/>
<polygon fill="midnightblue" stroke="midnightblue" points="928.18,-333.3 938.11,-329.59 928.04,-326.3 928.18,-333.3"/>
</g>
<!-- Node9&#45;&gt;Node7 -->
<g id="edge9" class="edge">
<title>Node9&#45;&gt;Node7</title>
<path fill="none" stroke="midnightblue" d="M1184.86,-500.1C1204.51,-509.57 1230.59,-521.86 1254,-532 1258.67,-534.02 1263.56,-536.08 1268.47,-538.09"/>
<polygon fill="midnightblue" stroke="midnightblue" points="1267.28,-541.39 1277.86,-541.9 1269.91,-534.9 1267.28,-541.39"/>
</g>
<!-- Node10 -->
<g id="node10" class="node">
<title>Node10</title>
<g id="a_node10"><a xlink:href="zwapi__session_8c.html#ad7bac697ee2388b38ed3777b5a3862bc" target="_top" xlink:title=" ">
<polygon fill="none" stroke="black" points="1261.5,-454 1261.5,-484 1374.5,-484 1374.5,-454 1261.5,-454"/>
<text text-anchor="start" x="1269.5" y="-472" font-family="Helvetica,sans-Serif" font-size="10.00">zwapi_session_get_rx</text>
<text text-anchor="middle" x="1318" y="-461" font-family="Helvetica,sans-Serif" font-size="10.00">_queue_length</text>
</a>
</g>
</g>
<!-- Node9&#45;&gt;Node10 -->
<g id="edge10" class="edge">
<title>Node9&#45;&gt;Node10</title>
<path fill="none" stroke="midnightblue" d="M1214.7,-479.04C1226.65,-477.87 1239.24,-476.63 1251.34,-475.45"/>
<polygon fill="midnightblue" stroke="midnightblue" points="1251.76,-478.92 1261.37,-474.46 1251.08,-471.95 1251.76,-478.92"/>
</g>
<!-- Node11 -->
<g id="node11" class="node">
<title>Node11</title>
<g id="a_node11"><a xlink:href="group__ZWAPI__INIT.html#ga438a74c9752197d20d377874d5a61694" target="_top" xlink:title="Returns the pointer to the callbacks registered at init.">
<polygon fill="none" stroke="black" points="1254,-503.5 1254,-522.5 1382,-522.5 1382,-503.5 1254,-503.5"/>
<text text-anchor="middle" x="1318" y="-510.5" font-family="Helvetica,sans-Serif" font-size="10.00">zwave_api_get_callbacks</text>
</a>
</g>
</g>
<!-- Node9&#45;&gt;Node11 -->
<g id="edge11" class="edge">
<title>Node9&#45;&gt;Node11</title>
<path fill="none" stroke="midnightblue" d="M1214.7,-495.43C1226.72,-497.49 1239.39,-499.67 1251.56,-501.76"/>
<polygon fill="midnightblue" stroke="midnightblue" points="1251.19,-505.25 1261.64,-503.49 1252.37,-498.35 1251.19,-505.25"/>
</g>
<!-- Node12&#45;&gt;Node9 -->
<g id="edge30" class="edge">
<title>Node12&#45;&gt;Node9</title>
<path fill="none" stroke="midnightblue" d="M876.83,-389.08C882.55,-391.91 888.1,-395.21 893,-399 914.37,-415.54 905.97,-433.86 929,-448 974.55,-475.97 1034.75,-484.66 1081.12,-486.65"/>
<polygon fill="midnightblue" stroke="midnightblue" points="1081.28,-490.16 1091.39,-487 1081.52,-483.17 1081.28,-490.16"/>
</g>
<!-- Node13 -->
<g id="node13" class="node">
<title>Node13</title>
<g id="a_node13"><a xlink:href="zwapi__connection_8c.html#a13b6e6b6c56844f4344fabe490bc5eac" target="_top" xlink:title="Closes and re&#45;initializes the zwapi_connection to the Z&#45;Wave module.">
<polygon fill="none" stroke="black" points="1089,-139.5 1089,-158.5 1217,-158.5 1217,-139.5 1089,-139.5"/>
<text text-anchor="middle" x="1153" y="-146.5" font-family="Helvetica,sans-Serif" font-size="10.00">zwapi_connection_restart</text>
</a>
</g>
</g>
<!-- Node12&#45;&gt;Node13 -->
<g id="edge13" class="edge">
<title>Node12&#45;&gt;Node13</title>
<path fill="none" stroke="midnightblue" d="M834.67,-358.83C844.77,-325.01 873.88,-243.21 929,-202 972.05,-169.81 1031.76,-156.83 1078.56,-151.76"/>
<polygon fill="midnightblue" stroke="midnightblue" points="1079.04,-155.23 1088.65,-150.76 1078.35,-148.26 1079.04,-155.23"/>
</g>
<!-- Node23 -->
<g id="node23" class="node">
<title>Node23</title>
<g id="a_node23"><a xlink:href="zwapi__timestamp_8c.html#a6ebe1ddfe689bce6ee72fc12f708aece" target="_top" xlink:title="get the timestamp">
<polygon fill="none" stroke="black" points="1262,-240.5 1262,-259.5 1374,-259.5 1374,-240.5 1262,-240.5"/>
<text text-anchor="middle" x="1318" y="-247.5" font-family="Helvetica,sans-Serif" font-size="10.00">zwapi_timestamp_get</text>
</a>
</g>
</g>
<!-- Node12&#45;&gt;Node23 -->
<g id="edge48" class="edge">
<title>Node12&#45;&gt;Node23</title>
<path fill="none" stroke="midnightblue" d="M847.34,-358.93C865.98,-343.08 897.57,-318.58 929,-305 1035.39,-259.03 1172,-249.89 1251.5,-248.91"/>
<polygon fill="midnightblue" stroke="midnightblue" points="1251.88,-252.41 1261.85,-248.83 1251.82,-245.41 1251.88,-252.41"/>
</g>
<!-- Node24 -->
<g id="node24" class="node">
<title>Node24</title>
<g id="a_node24"><a xlink:href="zwapi__connection_8c.html#af47f8cbd93974d5c91d659fdeb7a870b" target="_top" xlink:title="Transmit a frame via serial port by adding SOF, Len, Type, cmd and Checksum.">
<polygon fill="none" stroke="black" points="1099,-202.5 1099,-221.5 1207,-221.5 1207,-202.5 1099,-202.5"/>
<text text-anchor="middle" x="1153" y="-209.5" font-family="Helvetica,sans-Serif" font-size="10.00">zwapi_connection_tx</text>
</a>
</g>
</g>
<!-- Node12&#45;&gt;Node24 -->
<g id="edge24" class="edge">
<title>Node12&#45;&gt;Node24</title>
<path fill="none" stroke="midnightblue" d="M836.36,-358.71C848.55,-329.21 879.7,-264.82 929,-236 977.23,-207.8 1041.44,-203.67 1088.57,-205.49"/>
<polygon fill="midnightblue" stroke="midnightblue" points="1088.5,-208.99 1098.66,-205.98 1088.84,-202 1088.5,-208.99"/>
</g>
<!-- Node26 -->
<g id="node26" class="node">
<title>Node26</title>
<g id="a_node26"><a xlink:href="zwapi__timestamp_8c.html#a3925f2732e344672608db38351236688" target="_top" xlink:title="compare the current timestamp with the timestamp passed as an argument">
<polygon fill="none" stroke="black" points="1265,-405 1265,-435 1371,-435 1371,-405 1265,-405"/>
<text text-anchor="start" x="1273" y="-423" font-family="Helvetica,sans-Serif" font-size="10.00">zwapi_is_timestamp</text>
<text text-anchor="middle" x="1318" y="-412" font-family="Helvetica,sans-Serif" font-size="10.00">_elapsed</text>
</a>
</g>
</g>
<!-- Node12&#45;&gt;Node26 -->
<g id="edge29" class="edge">
<title>Node12&#45;&gt;Node26</title>
<path fill="none" stroke="midnightblue" d="M883.03,-378.97C973.35,-387.51 1157.68,-404.94 1254.47,-414.09"/>
<polygon fill="midnightblue" stroke="midnightblue" points="1254.41,-417.6 1264.69,-415.05 1255.07,-410.63 1254.41,-417.6"/>
</g>
<!-- Node27 -->
<g id="node27" class="node">
<title>Node27</title>
<g id="a_node27"><a xlink:href="zwapi__session_8c.html#a2875fbfa250b7b25ecb6bc4f0b032cb8" target="_top" xlink:title="Loads the received frames from the serial device into the zwapi_session receive queue.">
<polygon fill="none" stroke="black" points="929,-408 929,-438 1052,-438 1052,-408 929,-408"/>
<text text-anchor="start" x="937" y="-426" font-family="Helvetica,sans-Serif" font-size="10.00">zwapi_session_enqueue</text>
<text text-anchor="middle" x="990.5" y="-415" font-family="Helvetica,sans-Serif" font-size="10.00">_rx_frames</text>
</a>
</g>
</g>
<!-- Node12&#45;&gt;Node27 -->
<g id="edge31" class="edge">
<title>Node12&#45;&gt;Node27</title>
<path fill="none" stroke="midnightblue" d="M879.5,-389.1C895.75,-394.11 914,-399.73 930.89,-404.94"/>
<polygon fill="midnightblue" stroke="midnightblue" points="930.07,-408.35 940.66,-407.95 932.13,-401.66 930.07,-408.35"/>
</g>
<!-- Node12&#45;&gt;Node32 -->
<g id="edge44" class="edge">
<title>Node12&#45;&gt;Node32</title>
<path fill="none" stroke="midnightblue" d="M883,-359.47C897.62,-355.43 913.62,-351 928.67,-346.83"/>
<polygon fill="midnightblue" stroke="midnightblue" points="929.7,-350.18 938.4,-344.14 927.83,-343.43 929.7,-350.18"/>
</g>
<!-- Node14 -->
<g id="node14" class="node">
<title>Node14</title>
<g id="a_node14"><a xlink:href="zwapi__serial_8c.html#a3f2b3bd848e9fe0e6e137482bed06b46" target="_top" xlink:title="Flush the serial output if using buffered output.">
<polygon fill="none" stroke="black" points="1269.5,-115 1269.5,-145 1366.5,-145 1366.5,-115 1269.5,-115"/>
<text text-anchor="start" x="1277.5" y="-133" font-family="Helvetica,sans-Serif" font-size="10.00">zwapi_serial_drain</text>
<text text-anchor="middle" x="1318" y="-122" font-family="Helvetica,sans-Serif" font-size="10.00">_buffer</text>
</a>
</g>
</g>
<!-- Node13&#45;&gt;Node14 -->
<g id="edge14" class="edge">
<title>Node13&#45;&gt;Node14</title>
<path fill="none" stroke="midnightblue" d="M1217.02,-141.65C1230.87,-140.04 1245.47,-138.34 1259.11,-136.75"/>
<polygon fill="midnightblue" stroke="midnightblue" points="1259.79,-140.19 1269.32,-135.56 1258.98,-133.24 1259.79,-140.19"/>
</g>
<!-- Node15 -->
<g id="node15" class="node">
<title>Node15</title>
<g id="a_node15"><a xlink:href="zwapi__serial_8c.html#a7762d0358e9f398b92edbfd6a550984a" target="_top" xlink:title="Write a byte to serial port device.">
<polygon fill="none" stroke="black" points="1261.5,-76.5 1261.5,-95.5 1374.5,-95.5 1374.5,-76.5 1261.5,-76.5"/>
<text text-anchor="middle" x="1318" y="-83.5" font-family="Helvetica,sans-Serif" font-size="10.00">zwapi_serial_put_byte</text>
</a>
</g>
</g>
<!-- Node13&#45;&gt;Node15 -->
<g id="edge15" class="edge">
<title>Node13&#45;&gt;Node15</title>
<path fill="none" stroke="midnightblue" d="M1193.33,-139.48C1201.66,-136.87 1210.27,-133.71 1218,-130 1235.56,-121.57 1236.46,-113.47 1254,-105 1258.64,-102.76 1263.6,-100.72 1268.62,-98.88"/>
<polygon fill="midnightblue" stroke="midnightblue" points="1269.96,-102.12 1278.29,-95.58 1267.7,-95.49 1269.96,-102.12"/>
</g>
<!-- Node19 -->
<g id="node19" class="node">
<title>Node19</title>
<g id="a_node19"><a xlink:href="zwapi__serial_8c.html#aadf3397d0bd2c1657d4b1a373599acfe" target="_top" xlink:title="Closes and re&#45;initialize the last open serial port.">
<polygon fill="none" stroke="black" points="1266,-38.5 1266,-57.5 1370,-57.5 1370,-38.5 1266,-38.5"/>
<text text-anchor="middle" x="1318" y="-45.5" font-family="Helvetica,sans-Serif" font-size="10.00">zwapi_serial_restart</text>
</a>
</g>
</g>
<!-- Node13&#45;&gt;Node19 -->
<g id="edge19" class="edge">
<title>Node13&#45;&gt;Node19</title>
<path fill="none" stroke="midnightblue" d="M1201.5,-139.44C1207.41,-136.98 1213.09,-133.89 1218,-130 1243.28,-109.97 1228.77,-87.08 1254,-67 1256.3,-65.17 1258.78,-63.51 1261.38,-62.01"/>
<polygon fill="midnightblue" stroke="midnightblue" points="1263.13,-65.05 1270.57,-57.51 1260.05,-58.77 1263.13,-65.05"/>
</g>
<!-- Node13&#45;&gt;Node23 -->
<g id="edge23" class="edge">
<title>Node13&#45;&gt;Node23</title>
<path fill="none" stroke="midnightblue" d="M1169.92,-158.62C1183.3,-167.01 1202.63,-179.86 1218,-193 1235.68,-208.12 1234.2,-218.79 1254,-231 1257.4,-233.1 1261.05,-234.98 1264.82,-236.66"/>
<polygon fill="midnightblue" stroke="midnightblue" points="1263.76,-240.01 1274.34,-240.45 1266.34,-233.5 1263.76,-240.01"/>
</g>
<!-- Node16 -->
<g id="node16" class="node">
<title>Node16</title>
<g id="a_node16"><a xlink:href="zwapi__serial_8c.html#af9054824651df422bab5076d16a80fda" target="_top" xlink:title="Writes the content of a buffer to the serial port device.">
<polygon fill="none" stroke="black" points="1418,-173.5 1418,-192.5 1537,-192.5 1537,-173.5 1418,-173.5"/>
<text text-anchor="middle" x="1477.5" y="-180.5" font-family="Helvetica,sans-Serif" font-size="10.00">zwapi_serial_put_buffer</text>
</a>
</g>
</g>
<!-- Node15&#45;&gt;Node16 -->
<g id="edge16" class="edge">
<title>Node15&#45;&gt;Node16</title>
<path fill="none" stroke="midnightblue" d="M1359.28,-95.54C1367.04,-98.1 1374.95,-101.23 1382,-105 1412.58,-121.37 1442.53,-148.52 1460.26,-166.09"/>
<polygon fill="midnightblue" stroke="midnightblue" points="1457.98,-168.76 1467.5,-173.41 1462.96,-163.84 1457.98,-168.76"/>
</g>
<!-- Node17 -->
<g id="node17" class="node">
<title>Node17</title>
<g id="a_node17"><a xlink:href="zwapi__serial_8c.html#a0accbbf7ddb7aeab10f5df1fe3df6642" target="_top" xlink:title=" ">
<polygon fill="none" stroke="black" points="1573,-238.5 1573,-257.5 1713,-257.5 1713,-238.5 1573,-238.5"/>
<text text-anchor="middle" x="1643" y="-245.5" font-family="Helvetica,sans-Serif" font-size="10.00">zwapi_serial_log_timestamp</text>
</a>
</g>
</g>
<!-- Node16&#45;&gt;Node17 -->
<g id="edge17" class="edge">
<title>Node16&#45;&gt;Node17</title>
<path fill="none" stroke="midnightblue" d="M1502.62,-192.59C1530.6,-203.71 1576.89,-222.11 1608.38,-234.63"/>
<polygon fill="midnightblue" stroke="midnightblue" points="1607.46,-238.03 1618.04,-238.48 1610.04,-231.53 1607.46,-238.03"/>
</g>
<!-- Node18 -->
<g id="node18" class="node">
<title>Node18</title>
<g id="a_node18"><a xlink:href="zwapi__serial_8c.html#abf18afb71e14daaf65d937149ef1639f" target="_top" xlink:title="Test if a is less than b + ms.">
<polygon fill="none" stroke="black" points="1589.5,-172 1589.5,-202 1696.5,-202 1696.5,-172 1589.5,-172"/>
<text text-anchor="start" x="1597.5" y="-190" font-family="Helvetica,sans-Serif" font-size="10.00">zwapi_serial_timeval</text>
<text text-anchor="middle" x="1643" y="-179" font-family="Helvetica,sans-Serif" font-size="10.00">_a_lt_b_milis</text>
</a>
</g>
</g>
<!-- Node16&#45;&gt;Node18 -->
<g id="edge18" class="edge">
<title>Node16&#45;&gt;Node18</title>
<path fill="none" stroke="midnightblue" d="M1537.07,-184.43C1550.65,-184.77 1565.16,-185.12 1578.92,-185.46"/>
<polygon fill="midnightblue" stroke="midnightblue" points="1579.2,-188.96 1589.28,-185.71 1579.37,-181.97 1579.2,-188.96"/>
</g>
<!-- Node20 -->
<g id="node20" class="node">
<title>Node20</title>
<g id="a_node20"><a xlink:href="zwapi__serial_8c.html#aae586785021ac9a605cd77651429f0c9" target="_top" xlink:title="De&#45;Initialize the serial port.">
<polygon fill="none" stroke="black" points="1428,-38.5 1428,-57.5 1527,-57.5 1527,-38.5 1428,-38.5"/>
<text text-anchor="middle" x="1477.5" y="-45.5" font-family="Helvetica,sans-Serif" font-size="10.00">zwapi_serial_close</text>
</a>
</g>
</g>
<!-- Node19&#45;&gt;Node20 -->
<g id="edge20" class="edge">
<title>Node19&#45;&gt;Node20</title>
<path fill="none" stroke="midnightblue" d="M1370.14,-48C1385.31,-48 1402.06,-48 1417.68,-48"/>
<polygon fill="midnightblue" stroke="midnightblue" points="1417.76,-51.5 1427.76,-48 1417.76,-44.5 1417.76,-51.5"/>
</g>
<!-- Node21 -->
<g id="node21" class="node">
<title>Node21</title>
<g id="a_node21"><a xlink:href="zwapi__serial_8c.html#a07b09de97f4932d882fc77e191c44638" target="_top" xlink:title="Initialize the serial port to 115200 BAUD 8N1.">
<polygon fill="none" stroke="black" points="1433,-0.5 1433,-19.5 1522,-19.5 1522,-0.5 1433,-0.5"/>
<text text-anchor="middle" x="1477.5" y="-7.5" font-family="Helvetica,sans-Serif" font-size="10.00">zwapi_serial_init</text>
</a>
</g>
</g>
<!-- Node19&#45;&gt;Node21 -->
<g id="edge21" class="edge">
<title>Node19&#45;&gt;Node21</title>
<path fill="none" stroke="midnightblue" d="M1358.74,-38.41C1379.53,-33.4 1405.16,-27.21 1427.2,-21.89"/>
<polygon fill="midnightblue" stroke="midnightblue" points="1428.14,-25.27 1437.04,-19.52 1426.5,-18.46 1428.14,-25.27"/>
</g>
<!-- Node22 -->
<g id="node22" class="node">
<title>Node22</title>
<g id="a_node22"><a xlink:href="zwapi__serial_8c.html#aefeac5909b0bf6411db1492f69c3bc68" target="_top" xlink:title=" ">
<polygon fill="none" stroke="black" points="1583.5,-0.5 1583.5,-19.5 1702.5,-19.5 1702.5,-0.5 1583.5,-0.5"/>
<text text-anchor="middle" x="1643" y="-7.5" font-family="Helvetica,sans-Serif" font-size="10.00">zwapi_open_serial_port</text>
</a>
</g>
</g>
<!-- Node21&#45;&gt;Node22 -->
<g id="edge22" class="edge">
<title>Node21&#45;&gt;Node22</title>
<path fill="none" stroke="midnightblue" d="M1522.31,-10C1537.97,-10 1556.01,-10 1573.26,-10"/>
<polygon fill="midnightblue" stroke="midnightblue" points="1573.3,-13.5 1583.3,-10 1573.3,-6.5 1573.3,-13.5"/>
</g>
<!-- Node24&#45;&gt;Node14 -->
<g id="edge26" class="edge">
<title>Node24&#45;&gt;Node14</title>
<path fill="none" stroke="midnightblue" d="M1171.97,-202.41C1191.91,-191.83 1225.1,-174.39 1254,-160 1261.01,-156.51 1268.51,-152.86 1275.79,-149.37"/>
<polygon fill="midnightblue" stroke="midnightblue" points="1277.33,-152.51 1284.84,-145.05 1274.31,-146.2 1277.33,-152.51"/>
</g>
<!-- Node24&#45;&gt;Node16 -->
<g id="edge27" class="edge">
<title>Node24&#45;&gt;Node16</title>
<path fill="none" stroke="midnightblue" d="M1197.11,-202.41C1214.67,-198.87 1235.22,-195.19 1254,-193 1305.31,-187 1363.66,-184.54 1407.73,-183.56"/>
<polygon fill="midnightblue" stroke="midnightblue" points="1407.83,-187.06 1417.76,-183.36 1407.69,-180.06 1407.83,-187.06"/>
</g>
<!-- Node24&#45;&gt;Node23 -->
<g id="edge28" class="edge">
<title>Node24&#45;&gt;Node23</title>
<path fill="none" stroke="midnightblue" d="M1195.13,-221.59C1216.74,-226.63 1243.41,-232.84 1266.29,-238.18"/>
<polygon fill="midnightblue" stroke="midnightblue" points="1265.63,-241.62 1276.16,-240.48 1267.22,-234.8 1265.63,-241.62"/>
</g>
<!-- Node25 -->
<g id="node25" class="node">
<title>Node25</title>
<g id="a_node25"><a xlink:href="zwapi__connection_8c.html#a96d24d537c5b8d6aa0aa6a7638ba2f09" target="_top" xlink:title=" ">
<polygon fill="none" stroke="black" points="1260.5,-202.5 1260.5,-221.5 1375.5,-221.5 1375.5,-202.5 1260.5,-202.5"/>
<text text-anchor="middle" x="1318" y="-209.5" font-family="Helvetica,sans-Serif" font-size="10.00">zwapi_frame_to_string</text>
</a>
</g>
</g>
<!-- Node24&#45;&gt;Node25 -->
<g id="edge25" class="edge">
<title>Node24&#45;&gt;Node25</title>
<path fill="none" stroke="midnightblue" d="M1207.37,-212C1221.04,-212 1235.92,-212 1250.18,-212"/>
<polygon fill="midnightblue" stroke="midnightblue" points="1250.42,-215.5 1260.42,-212 1250.42,-208.5 1250.42,-215.5"/>
</g>
<!-- Node27&#45;&gt;Node9 -->
<g id="edge43" class="edge">
<title>Node27&#45;&gt;Node9</title>
<path fill="none" stroke="midnightblue" d="M1030.35,-438.01C1052.37,-446.51 1080.11,-457.23 1103.54,-466.28"/>
<polygon fill="midnightblue" stroke="midnightblue" points="1102.36,-469.58 1112.95,-469.91 1104.88,-463.05 1102.36,-469.58"/>
</g>
<!-- Node28 -->
<g id="node28" class="node">
<title>Node28</title>
<g id="a_node28"><a xlink:href="zwapi__connection_8c.html#a1e45c6c9695b5e7b415adfad40080720" target="_top" xlink:title="Parses serial data sent from the Z&#45;Wave module to the serial port. Should be frequently called by mai...">
<polygon fill="none" stroke="black" points="1088,-316.5 1088,-335.5 1218,-335.5 1218,-316.5 1088,-316.5"/>
<text text-anchor="middle" x="1153" y="-323.5" font-family="Helvetica,sans-Serif" font-size="10.00">zwapi_connection_refresh</text>
</a>
</g>
</g>
<!-- Node27&#45;&gt;Node28 -->
<g id="edge32" class="edge">
<title>Node27&#45;&gt;Node28</title>
<path fill="none" stroke="midnightblue" d="M1016.58,-407.84C1046.78,-389.59 1097.19,-359.13 1127.25,-340.96"/>
<polygon fill="midnightblue" stroke="midnightblue" points="1129.13,-343.91 1135.88,-335.74 1125.51,-337.92 1129.13,-343.91"/>
</g>
<!-- Node28&#45;&gt;Node14 -->
<g id="edge34" class="edge">
<title>Node28&#45;&gt;Node14</title>
<path fill="none" stroke="midnightblue" d="M1160.59,-316.29C1175.99,-293.83 1215.93,-236.84 1254,-193 1266.23,-178.92 1280.92,-164.12 1293.03,-152.41"/>
<polygon fill="midnightblue" stroke="midnightblue" points="1295.76,-154.64 1300.57,-145.2 1290.92,-149.58 1295.76,-154.64"/>
</g>
<!-- Node28&#45;&gt;Node15 -->
<g id="edge41" class="edge">
<title>Node28&#45;&gt;Node15</title>
<path fill="none" stroke="midnightblue" d="M1162.02,-316.36C1175.39,-299.87 1202.31,-264.72 1218,-231 1242.57,-178.2 1213.12,-146.48 1254,-105 1255.44,-103.54 1257,-102.18 1258.63,-100.93"/>
<polygon fill="midnightblue" stroke="midnightblue" points="1260.76,-103.74 1267.44,-95.51 1257.09,-97.78 1260.76,-103.74"/>
</g>
<!-- Node28&#45;&gt;Node23 -->
<g id="edge42" class="edge">
<title>Node28&#45;&gt;Node23</title>
<path fill="none" stroke="midnightblue" d="M1185.12,-316.46C1195.85,-312.62 1207.75,-307.73 1218,-302 1235.69,-292.11 1236.33,-283.94 1254,-274 1261.18,-269.96 1269.17,-266.33 1276.99,-263.18"/>
<polygon fill="midnightblue" stroke="midnightblue" points="1278.28,-266.44 1286.37,-259.6 1275.78,-259.9 1278.28,-266.44"/>
</g>
<!-- Node28&#45;&gt;Node26 -->
<g id="edge33" class="edge">
<title>Node28&#45;&gt;Node26</title>
<path fill="none" stroke="midnightblue" d="M1189.59,-335.52C1199.34,-339.12 1209.55,-343.87 1218,-350 1238.73,-365.04 1233.41,-379.77 1254,-395 1256.47,-396.83 1259.1,-398.55 1261.82,-400.16"/>
<polygon fill="midnightblue" stroke="midnightblue" points="1260.3,-403.31 1270.77,-404.93 1263.59,-397.13 1260.3,-403.31"/>
</g>
<!-- Node29 -->
<g id="node29" class="node">
<title>Node29</title>
<g id="a_node29"><a xlink:href="zwapi__serial_8c.html#a538134f9fdbb1ce052667b3a041357bd" target="_top" xlink:title="Reads the output of the serial port device and stores the content in a buffer.">
<polygon fill="none" stroke="black" points="1418,-273.5 1418,-292.5 1537,-292.5 1537,-273.5 1418,-273.5"/>
<text text-anchor="middle" x="1477.5" y="-280.5" font-family="Helvetica,sans-Serif" font-size="10.00">zwapi_serial_get_buffer</text>
</a>
</g>
</g>
<!-- Node28&#45;&gt;Node29 -->
<g id="edge35" class="edge">
<title>Node28&#45;&gt;Node29</title>
<path fill="none" stroke="midnightblue" d="M1199.92,-316.47C1216.87,-313.17 1236.26,-309.64 1254,-307 1305.34,-299.37 1363.69,-293.16 1407.75,-288.98"/>
<polygon fill="midnightblue" stroke="midnightblue" points="1408.15,-292.46 1417.78,-288.04 1407.49,-285.49 1408.15,-292.46"/>
</g>
<!-- Node30 -->
<g id="node30" class="node">
<title>Node30</title>
<g id="a_node30"><a xlink:href="zwapi__serial_8c.html#abb082b1e7e727203e3ca5fbeb41f7c2b" target="_top" xlink:title="Reads a byte from the serial port device.">
<polygon fill="none" stroke="black" points="1261.5,-366.5 1261.5,-385.5 1374.5,-385.5 1374.5,-366.5 1261.5,-366.5"/>
<text text-anchor="middle" x="1318" y="-373.5" font-family="Helvetica,sans-Serif" font-size="10.00">zwapi_serial_get_byte</text>
</a>
</g>
</g>
<!-- Node28&#45;&gt;Node30 -->
<g id="edge38" class="edge">
<title>Node28&#45;&gt;Node30</title>
<path fill="none" stroke="midnightblue" d="M1185.04,-335.52C1210.9,-343.46 1247.94,-354.82 1276.2,-363.48"/>
<polygon fill="midnightblue" stroke="midnightblue" points="1275.21,-366.84 1285.8,-366.43 1277.26,-360.15 1275.21,-366.84"/>
</g>
<!-- Node31 -->
<g id="node31" class="node">
<title>Node31</title>
<g id="a_node31"><a xlink:href="zwapi__serial_8c.html#a9a952dc2b34d92960246f6dc4e7d58f7" target="_top" xlink:title="Check the file descriptor for the serial device is available for I/O operations.">
<polygon fill="none" stroke="black" points="1267.5,-317 1267.5,-347 1368.5,-347 1368.5,-317 1267.5,-317"/>
<text text-anchor="start" x="1275.5" y="-335" font-family="Helvetica,sans-Serif" font-size="10.00">zwapi_serial_is_file</text>
<text text-anchor="middle" x="1318" y="-324" font-family="Helvetica,sans-Serif" font-size="10.00">_available</text>
</a>
</g>
</g>
<!-- Node28&#45;&gt;Node31 -->
<g id="edge40" class="edge">
<title>Node28&#45;&gt;Node31</title>
<path fill="none" stroke="midnightblue" d="M1218.42,-328.37C1231.14,-328.84 1244.45,-329.33 1257.02,-329.79"/>
<polygon fill="midnightblue" stroke="midnightblue" points="1257.25,-333.3 1267.37,-330.17 1257.51,-326.31 1257.25,-333.3"/>
</g>
<!-- Node29&#45;&gt;Node17 -->
<g id="edge36" class="edge">
<title>Node29&#45;&gt;Node17</title>
<path fill="none" stroke="midnightblue" d="M1523.18,-273.44C1543,-269.19 1566.52,-264.16 1587.38,-259.69"/>
<polygon fill="midnightblue" stroke="midnightblue" points="1588.33,-263.07 1597.38,-257.55 1586.87,-256.22 1588.33,-263.07"/>
</g>
<!-- Node29&#45;&gt;Node18 -->
<g id="edge37" class="edge">
<title>Node29&#45;&gt;Node18</title>
<path fill="none" stroke="midnightblue" d="M1494.77,-273.44C1520.87,-258.12 1572.67,-227.71 1607.33,-207.36"/>
<polygon fill="midnightblue" stroke="midnightblue" points="1609.33,-210.24 1616.18,-202.16 1605.79,-204.2 1609.33,-210.24"/>
</g>
<!-- Node30&#45;&gt;Node29 -->
<g id="edge39" class="edge">
<title>Node30&#45;&gt;Node29</title>
<path fill="none" stroke="midnightblue" d="M1356.52,-366.46C1365.13,-363.63 1374.07,-360.15 1382,-356 1411.46,-340.57 1441.11,-315.81 1459.14,-299.47"/>
<polygon fill="midnightblue" stroke="midnightblue" points="1461.59,-301.98 1466.56,-292.62 1456.84,-296.83 1461.59,-301.98"/>
</g>
<!-- Node32&#45;&gt;Node23 -->
<g id="edge47" class="edge">
<title>Node32&#45;&gt;Node23</title>
<path fill="none" stroke="midnightblue" d="M1042.72,-317.41C1104.49,-302.23 1207.57,-276.9 1268.23,-261.99"/>
<polygon fill="midnightblue" stroke="midnightblue" points="1269.44,-265.29 1278.31,-259.51 1267.77,-258.5 1269.44,-265.29"/>
</g>
<!-- Node32&#45;&gt;Node26 -->
<g id="edge46" class="edge">
<title>Node32&#45;&gt;Node26</title>
<path fill="none" stroke="midnightblue" d="M1042.57,-342.12C1088.64,-353.28 1158.15,-370.68 1218,-388 1232.52,-392.2 1248.13,-397.08 1262.56,-401.73"/>
<polygon fill="midnightblue" stroke="midnightblue" points="1261.74,-405.15 1272.33,-404.91 1263.91,-398.49 1261.74,-405.15"/>
</g>
<!-- Node32&#45;&gt;Node28 -->
<g id="edge45" class="edge">
<title>Node32&#45;&gt;Node28</title>
<path fill="none" stroke="midnightblue" d="M1042.72,-328.72C1053.79,-328.45 1065.71,-328.15 1077.47,-327.86"/>
<polygon fill="midnightblue" stroke="midnightblue" points="1077.82,-331.35 1087.73,-327.6 1077.65,-324.35 1077.82,-331.35"/>
</g>
<!-- Node34 -->
<g id="node34" class="node">
<title>Node34</title>
<g id="a_node34"><a xlink:href="zwapi__init_8c.html#a5ec89d5817b8ce00454fce891ae8400e" target="_top" xlink:title="Send a command to the Z&#45;Wave module and waits for an ACK.">
<polygon fill="none" stroke="black" points="417.5,-465 417.5,-495 533.5,-495 533.5,-465 417.5,-465"/>
<text text-anchor="start" x="425.5" y="-483" font-family="Helvetica,sans-Serif" font-size="10.00">zwapi_send_command</text>
<text text-anchor="middle" x="475.5" y="-472" font-family="Helvetica,sans-Serif" font-size="10.00">_with_response</text>
</a>
</g>
</g>
<!-- Node33&#45;&gt;Node34 -->
<g id="edge51" class="edge">
<title>Node33&#45;&gt;Node34</title>
<path fill="none" stroke="midnightblue" d="M352.74,-445.55C369.94,-450.41 391.41,-456.49 411.52,-462.18"/>
<polygon fill="midnightblue" stroke="midnightblue" points="410.68,-465.58 421.26,-464.93 412.59,-458.84 410.68,-465.58"/>
</g>
<!-- Node36 -->
<g id="node36" class="node">
<title>Node36</title>
<g id="a_node36"><a xlink:href="group__ZWAPI__INIT.html#ga647114dcb008816008cf9389548b1a12" target="_top" xlink:title="Check if one of the serial API setup commands is supported.">
<polygon fill="none" stroke="black" points="409,-426.5 409,-445.5 542,-445.5 542,-426.5 409,-426.5"/>
<text text-anchor="middle" x="475.5" y="-433.5" font-family="Helvetica,sans-Serif" font-size="10.00">zwapi_support_setup_func</text>
</a>
</g>
</g>
<!-- Node33&#45;&gt;Node36 -->
<g id="edge54" class="edge">
<title>Node33&#45;&gt;Node36</title>
<path fill="none" stroke="midnightblue" d="M370.35,-436C379.47,-436 389.15,-436 398.79,-436"/>
<polygon fill="midnightblue" stroke="midnightblue" points="398.79,-439.5 408.79,-436 398.79,-432.5 398.79,-439.5"/>
</g>
<!-- Node34&#45;&gt;Node6 -->
<g id="edge52" class="edge">
<title>Node34&#45;&gt;Node6</title>
<path fill="none" stroke="midnightblue" d="M522.26,-464.99C529.07,-462.06 535.86,-458.73 542,-455 560.3,-443.89 559.47,-433.71 578,-423 581.68,-420.87 585.56,-418.9 589.55,-417.06"/>
<polygon fill="midnightblue" stroke="midnightblue" points="591.15,-420.18 598.98,-413.05 588.41,-413.74 591.15,-420.18"/>
</g>
<!-- Node34&#45;&gt;Node35 -->
<g id="edge53" class="edge">
<title>Node34&#45;&gt;Node35</title>
<path fill="none" stroke="midnightblue" d="M533.8,-494.93C557.37,-501.08 584.31,-508.1 606.61,-513.91"/>
<polygon fill="midnightblue" stroke="midnightblue" points="605.94,-517.35 616.5,-516.49 607.71,-510.58 605.94,-517.35"/>
</g>
<!-- Node37 -->
<g id="node37" class="node">
<title>Node37</title>
<g id="a_node37"><a xlink:href="zwapi__init_8c.html#af1ea16c1c68903ed2ac99307e0870929" target="_top" xlink:title=" ">
<polygon fill="none" stroke="black" points="594.5,-432.5 594.5,-451.5 713.5,-451.5 713.5,-432.5 594.5,-432.5"/>
<text text-anchor="middle" x="654" y="-439.5" font-family="Helvetica,sans-Serif" font-size="10.00">is_bit_num_set_in_byte</text>
</a>
</g>
</g>
<!-- Node36&#45;&gt;Node37 -->
<g id="edge55" class="edge">
<title>Node36&#45;&gt;Node37</title>
<path fill="none" stroke="midnightblue" d="M542.22,-438.23C555.89,-438.7 570.33,-439.19 584.11,-439.66"/>
<polygon fill="midnightblue" stroke="midnightblue" points="584.38,-443.17 594.49,-440.01 584.62,-436.17 584.38,-443.17"/>
</g>
<!-- Node38&#45;&gt;Node34 -->
<g id="edge57" class="edge">
<title>Node38&#45;&gt;Node34</title>
<path fill="none" stroke="midnightblue" d="M373.39,-480C384.25,-480 395.78,-480 407.02,-480"/>
<polygon fill="midnightblue" stroke="midnightblue" points="407.24,-483.5 417.24,-480 407.24,-476.5 407.24,-483.5"/>
</g>
<!-- Node41 -->
<g id="node41" class="node">
<title>Node41</title>
<g id="a_node41"><a xlink:href="zwapi__connection_8c.html#a8d164694b886daa887b418a0765d6030" target="_top" xlink:title="Initialize the zwapi_connection to the Z&#45;Wave module.">
<polygon fill="none" stroke="black" points="1096.5,-101.5 1096.5,-120.5 1209.5,-120.5 1209.5,-101.5 1096.5,-101.5"/>
<text text-anchor="middle" x="1153" y="-108.5" font-family="Helvetica,sans-Serif" font-size="10.00">zwapi_connection_init</text>
</a>
</g>
</g>
<!-- Node40&#45;&gt;Node41 -->
<g id="edge62" class="edge">
<title>Node40&#45;&gt;Node41</title>
<path fill="none" stroke="midnightblue" d="M843.44,-194.42C861.58,-181.49 896.06,-158.74 929,-147 980,-128.83 1040.85,-119.78 1086.09,-115.31"/>
<polygon fill="midnightblue" stroke="midnightblue" points="1086.45,-118.79 1096.08,-114.37 1085.79,-111.82 1086.45,-118.79"/>
</g>
<!-- Node41&#45;&gt;Node14 -->
<g id="edge63" class="edge">
<title>Node41&#45;&gt;Node14</title>
<path fill="none" stroke="midnightblue" d="M1209.64,-117.49C1225.6,-119.35 1243.04,-121.38 1259.14,-123.26"/>
<polygon fill="midnightblue" stroke="midnightblue" points="1259.15,-126.78 1269.49,-124.46 1259.96,-119.83 1259.15,-126.78"/>
</g>
<!-- Node41&#45;&gt;Node15 -->
<g id="edge65" class="edge">
<title>Node41&#45;&gt;Node15</title>
<path fill="none" stroke="midnightblue" d="M1209.64,-102.47C1223.07,-100.41 1237.55,-98.19 1251.39,-96.06"/>
<polygon fill="midnightblue" stroke="midnightblue" points="1251.98,-99.51 1261.33,-94.54 1250.92,-92.59 1251.98,-99.51"/>
</g>
<!-- Node41&#45;&gt;Node21 -->
<g id="edge64" class="edge">
<title>Node41&#45;&gt;Node21</title>
<path fill="none" stroke="midnightblue" d="M1162.14,-101.23C1177.78,-83.24 1214.06,-45.23 1254,-29 1308.43,-6.88 1376.38,-4.29 1422.78,-5.86"/>
<polygon fill="midnightblue" stroke="midnightblue" points="1422.78,-9.36 1432.92,-6.28 1423.08,-2.37 1422.78,-9.36"/>
</g>
<!-- Node41&#45;&gt;Node23 -->
<g id="edge66" class="edge">
<title>Node41&#45;&gt;Node23</title>
<path fill="none" stroke="midnightblue" d="M1203.78,-120.52C1208.99,-122.99 1213.88,-126.09 1218,-130 1252.59,-162.78 1219.48,-198.15 1254,-231 1255.65,-232.57 1257.42,-234.01 1259.29,-235.33"/>
<polygon fill="midnightblue" stroke="midnightblue" points="1257.59,-238.39 1267.99,-240.39 1261.11,-232.34 1257.59,-238.39"/>
</g>
</g>
</svg>
