<?xml version="1.0" encoding="UTF-8" standalone="no"?>
<!DOCTYPE svg PUBLIC "-//W3C//DTD SVG 1.1//EN"
 "http://www.w3.org/Graphics/SVG/1.1/DTD/svg11.dtd">
<!-- Generated by graphviz version 2.43.0 (0)
 -->
<!-- Title: network_management_is_ready_for_a_new_operation Pages: 1 -->
<svg width="452pt" height="402pt"
 viewBox="0.00 0.00 452.00 401.50" xmlns="http://www.w3.org/2000/svg" xmlns:xlink="http://www.w3.org/1999/xlink">
<g id="graph0" class="graph" transform="scale(1 1) rotate(0) translate(4 397.5)">
<title>network_management_is_ready_for_a_new_operation</title>
<!-- Node1 -->
<g id="node1" class="node">
<title>Node1</title>
<g id="a_node1"><a xlink:title="Checks if all the conditions are fulfilled to start a new network management operation....">
<polygon fill="#bfbfbf" stroke="black" points="331,-178 331,-219 444,-219 444,-178 331,-178"/>
<text text-anchor="start" x="339" y="-207" font-family="Helvetica,sans-Serif" font-size="10.00">network_management</text>
<text text-anchor="start" x="339" y="-196" font-family="Helvetica,sans-Serif" font-size="10.00">_is_ready_for_a_new</text>
<text text-anchor="middle" x="387.5" y="-185" font-family="Helvetica,sans-Serif" font-size="10.00">_operation</text>
</a>
</g>
</g>
<!-- Node2 -->
<g id="node2" class="node">
<title>Node2</title>
<g id="a_node2"><a xlink:href="nm__state__machine_8c.html#ac9fe4041f9ca45bad16c9b6ad7bae02f" target="_top" xlink:title=" ">
<polygon fill="none" stroke="black" points="169.5,-356 169.5,-375 274.5,-375 274.5,-356 169.5,-356"/>
<text text-anchor="middle" x="222" y="-363" font-family="Helvetica,sans-Serif" font-size="10.00">nm_fsm_post_event</text>
</a>
</g>
</g>
<!-- Node1&#45;&gt;Node2 -->
<g id="edge1" class="edge">
<title>Node1&#45;&gt;Node2</title>
<path fill="none" stroke="midnightblue" d="M375.83,-228.55C362.27,-262.34 335.65,-316.39 295,-346.5 288.97,-350.96 281.98,-354.38 274.77,-356.99"/>
<polygon fill="midnightblue" stroke="midnightblue" points="379.11,-229.77 379.46,-219.18 372.58,-227.24 379.11,-229.77"/>
</g>
<!-- Node4 -->
<g id="node4" class="node">
<title>Node4</title>
<g id="a_node4"><a xlink:href="group__zwave__network__management.html#gabcb05aa3686ebc777a52d45f2cc093ad" target="_top" xlink:title="Put the Z&#45;Wave controller in add node mode.">
<polygon fill="none" stroke="black" points="149,-306.5 149,-336.5 295,-336.5 295,-306.5 149,-306.5"/>
<text text-anchor="start" x="157" y="-324.5" font-family="Helvetica,sans-Serif" font-size="10.00">zwave_network_management</text>
<text text-anchor="middle" x="222" y="-313.5" font-family="Helvetica,sans-Serif" font-size="10.00">_add_node</text>
</a>
</g>
</g>
<!-- Node1&#45;&gt;Node4 -->
<g id="edge4" class="edge">
<title>Node1&#45;&gt;Node4</title>
<path fill="none" stroke="midnightblue" d="M366.34,-227.22C349.54,-249.25 323.77,-278.93 295,-297.5 289.8,-300.86 284.08,-303.79 278.21,-306.35"/>
<polygon fill="midnightblue" stroke="midnightblue" points="369.16,-229.3 372.33,-219.2 363.55,-225.12 369.16,-229.3"/>
</g>
<!-- Node5 -->
<g id="node5" class="node">
<title>Node5</title>
<g id="a_node5"><a xlink:href="group__zwave__network__management.html#ga70d33229419c634dfb25b946dbc5eb7d" target="_top" xlink:title="Put the Z&#45;Wave controller in SmartStart add node mode.">
<polygon fill="none" stroke="black" points="149,-257.5 149,-287.5 295,-287.5 295,-257.5 149,-257.5"/>
<text text-anchor="start" x="157" y="-275.5" font-family="Helvetica,sans-Serif" font-size="10.00">zwave_network_management</text>
<text text-anchor="middle" x="222" y="-264.5" font-family="Helvetica,sans-Serif" font-size="10.00">_add_node_with_dsk</text>
</a>
</g>
</g>
<!-- Node1&#45;&gt;Node5 -->
<g id="edge5" class="edge">
<title>Node1&#45;&gt;Node5</title>
<path fill="none" stroke="midnightblue" d="M343.03,-224.32C328.09,-232.63 311.08,-241.49 295,-248.5 287.75,-251.66 279.95,-254.65 272.24,-257.39"/>
<polygon fill="midnightblue" stroke="midnightblue" points="345.05,-227.2 352.04,-219.23 341.61,-221.1 345.05,-227.2"/>
</g>
<!-- Node6 -->
<g id="node6" class="node">
<title>Node6</title>
<g id="a_node6"><a xlink:href="group__zwave__network__management.html#ga9872a0f15f3797e33edc76f73c7972e6" target="_top" xlink:title="Put the Z&#45;Wave controller in learn mode.">
<polygon fill="none" stroke="black" points="149,-208.5 149,-238.5 295,-238.5 295,-208.5 149,-208.5"/>
<text text-anchor="start" x="157" y="-226.5" font-family="Helvetica,sans-Serif" font-size="10.00">zwave_network_management</text>
<text text-anchor="middle" x="222" y="-215.5" font-family="Helvetica,sans-Serif" font-size="10.00">_learn_mode</text>
</a>
</g>
</g>
<!-- Node1&#45;&gt;Node6 -->
<g id="edge6" class="edge">
<title>Node1&#45;&gt;Node6</title>
<path fill="none" stroke="midnightblue" d="M320.58,-208.58C312.17,-209.87 303.53,-211.19 295.04,-212.49"/>
<polygon fill="midnightblue" stroke="midnightblue" points="321.33,-212.01 330.69,-207.03 320.28,-205.09 321.33,-212.01"/>
</g>
<!-- Node7 -->
<g id="node7" class="node">
<title>Node7</title>
<g id="a_node7"><a xlink:href="group__zwave__network__management.html#gade18f44167921855f974d5efb34f4837" target="_top" xlink:title="Remove a failed node.">
<polygon fill="none" stroke="black" points="149,-159.5 149,-189.5 295,-189.5 295,-159.5 149,-159.5"/>
<text text-anchor="start" x="157" y="-177.5" font-family="Helvetica,sans-Serif" font-size="10.00">zwave_network_management</text>
<text text-anchor="middle" x="222" y="-166.5" font-family="Helvetica,sans-Serif" font-size="10.00">_remove_failed</text>
</a>
</g>
</g>
<!-- Node1&#45;&gt;Node7 -->
<g id="edge7" class="edge">
<title>Node1&#45;&gt;Node7</title>
<path fill="none" stroke="midnightblue" d="M320.58,-188.82C312.17,-187.59 303.53,-186.32 295.04,-185.07"/>
<polygon fill="midnightblue" stroke="midnightblue" points="320.29,-192.32 330.69,-190.31 321.3,-185.39 320.29,-192.32"/>
</g>
<!-- Node8 -->
<g id="node8" class="node">
<title>Node8</title>
<g id="a_node8"><a xlink:href="group__zwave__network__management.html#ga9cf0dfbb0b6c2dcf64ff3d218eb7c839" target="_top" xlink:title="Put the Z&#45;Wave controller in remove node mode.">
<polygon fill="none" stroke="black" points="149,-110.5 149,-140.5 295,-140.5 295,-110.5 149,-110.5"/>
<text text-anchor="start" x="157" y="-128.5" font-family="Helvetica,sans-Serif" font-size="10.00">zwave_network_management</text>
<text text-anchor="middle" x="222" y="-117.5" font-family="Helvetica,sans-Serif" font-size="10.00">_remove_node</text>
</a>
</g>
</g>
<!-- Node1&#45;&gt;Node8 -->
<g id="edge8" class="edge">
<title>Node1&#45;&gt;Node8</title>
<path fill="none" stroke="midnightblue" d="M341.34,-173.11C326.77,-165.38 310.4,-157.17 295,-150.5 286.99,-147.03 278.32,-143.69 269.87,-140.64"/>
<polygon fill="midnightblue" stroke="midnightblue" points="339.69,-176.19 350.16,-177.84 343,-170.03 339.69,-176.19"/>
</g>
<!-- Node9 -->
<g id="node9" class="node">
<title>Node9</title>
<g id="a_node9"><a xlink:href="group__zwave__network__management.html#ga529c2e3e0edac5ed86f98fe55fc77c57" target="_top" xlink:title="Request Node Neighbor Discovery.">
<polygon fill="none" stroke="black" points="149,-50 149,-91 295,-91 295,-50 149,-50"/>
<text text-anchor="start" x="157" y="-79" font-family="Helvetica,sans-Serif" font-size="10.00">zwave_network_management</text>
<text text-anchor="start" x="157" y="-68" font-family="Helvetica,sans-Serif" font-size="10.00">_request_node_neighbor</text>
<text text-anchor="middle" x="222" y="-57" font-family="Helvetica,sans-Serif" font-size="10.00">_discovery</text>
</a>
</g>
</g>
<!-- Node1&#45;&gt;Node9 -->
<g id="edge9" class="edge">
<title>Node1&#45;&gt;Node9</title>
<path fill="none" stroke="midnightblue" d="M364.93,-169.98C347.81,-148.88 322.29,-120.6 295,-101.5 289.54,-97.68 283.53,-94.18 277.38,-91.03"/>
<polygon fill="midnightblue" stroke="midnightblue" points="362.32,-172.32 371.29,-177.96 367.8,-167.96 362.32,-172.32"/>
</g>
<!-- Node10 -->
<g id="node10" class="node">
<title>Node10</title>
<g id="a_node10"><a xlink:href="group__zwave__network__management.html#ga9423226296d636674ffa006952a5f172" target="_top" xlink:title="Request the NM to perform proxy inclusion.">
<polygon fill="none" stroke="black" points="149,-0.5 149,-30.5 295,-30.5 295,-0.5 149,-0.5"/>
<text text-anchor="start" x="157" y="-18.5" font-family="Helvetica,sans-Serif" font-size="10.00">zwave_network_management</text>
<text text-anchor="middle" x="222" y="-7.5" font-family="Helvetica,sans-Serif" font-size="10.00">_start_proxy_inclusion</text>
</a>
</g>
</g>
<!-- Node1&#45;&gt;Node10 -->
<g id="edge10" class="edge">
<title>Node1&#45;&gt;Node10</title>
<path fill="none" stroke="midnightblue" d="M376.36,-168.16C363.05,-132.73 336.39,-74.66 295,-40.5 290.31,-36.63 284.97,-33.34 279.38,-30.55"/>
<polygon fill="midnightblue" stroke="midnightblue" points="373.21,-169.73 379.92,-177.94 379.79,-167.34 373.21,-169.73"/>
</g>
<!-- Node2&#45;&gt;Node2 -->
<g id="edge2" class="edge">
<title>Node2&#45;&gt;Node2</title>
<path fill="none" stroke="midnightblue" d="M252.69,-383.77C251.81,-389.24 241.58,-393.5 222,-393.5 192.85,-393.5 184.43,-384.07 196.72,-375.26"/>
<polygon fill="midnightblue" stroke="midnightblue" points="255.59,-381.82 247.28,-375.26 249.69,-385.57 255.59,-381.82"/>
</g>
<!-- Node3 -->
<g id="node3" class="node">
<title>Node3</title>
<g id="a_node3"><a xlink:href="zwave__network__management__process_8c.html#a59cf655b084839b45cc25e23b3aef04c" target="_top" xlink:title=" ">
<polygon fill="none" stroke="black" points="0,-356 0,-375 113,-375 113,-356 0,-356"/>
<text text-anchor="middle" x="56.5" y="-363" font-family="Helvetica,sans-Serif" font-size="10.00">PROCESS_THREAD</text>
</a>
</g>
</g>
<!-- Node2&#45;&gt;Node3 -->
<g id="edge3" class="edge">
<title>Node2&#45;&gt;Node3</title>
<path fill="none" stroke="midnightblue" d="M159.01,-365.5C143.93,-365.5 127.9,-365.5 113.14,-365.5"/>
<polygon fill="midnightblue" stroke="midnightblue" points="159.27,-369 169.27,-365.5 159.27,-362 159.27,-369"/>
</g>
</g>
</svg>
