<?xml version="1.0" encoding="UTF-8" standalone="no"?>
<!DOCTYPE svg PUBLIC "-//W3C//DTD SVG 1.1//EN"
 "http://www.w3.org/Graphics/SVG/1.1/DTD/svg11.dtd">
<!-- Generated by graphviz version 2.43.0 (0)
 -->
<!-- Title: zwave_command_handler_controls Pages: 1 -->
<svg width="874pt" height="57pt"
 viewBox="0.00 0.00 874.00 57.00" xmlns="http://www.w3.org/2000/svg" xmlns:xlink="http://www.w3.org/1999/xlink">
<g id="graph0" class="graph" transform="scale(1 1) rotate(0) translate(4 53)">
<title>zwave_command_handler_controls</title>
<!-- Node1 -->
<g id="node1" class="node">
<title>Node1</title>
<g id="a_node1"><a xlink:title="Check if we control a given command class.">
<polygon fill="#bfbfbf" stroke="black" points="736,-0.5 736,-30.5 866,-30.5 866,-0.5 736,-0.5"/>
<text text-anchor="start" x="744" y="-18.5" font-family="Helvetica,sans-Serif" font-size="10.00">zwave_command_handler</text>
<text text-anchor="middle" x="801" y="-7.5" font-family="Helvetica,sans-Serif" font-size="10.00">_controls</text>
</a>
</g>
</g>
<!-- Node2 -->
<g id="node2" class="node">
<title>Node2</title>
<g id="a_node2"><a xlink:href="zwave__command__class__basic_8c.html#a37f575a4f171b8aeaa5b46e94ea197a8" target="_top" xlink:title="Checks if we can use Basic to control a node.">
<polygon fill="none" stroke="black" points="609,-6 609,-25 700,-25 700,-6 609,-6"/>
<text text-anchor="middle" x="654.5" y="-13" font-family="Helvetica,sans-Serif" font-size="10.00">do_not_try_basic</text>
</a>
</g>
</g>
<!-- Node1&#45;&gt;Node2 -->
<g id="edge1" class="edge">
<title>Node1&#45;&gt;Node2</title>
<path fill="none" stroke="midnightblue" d="M725.56,-15.5C716.85,-15.5 708.18,-15.5 700.06,-15.5"/>
<polygon fill="midnightblue" stroke="midnightblue" points="725.78,-19 735.78,-15.5 725.78,-12 725.78,-19"/>
</g>
<!-- Node3 -->
<g id="node3" class="node">
<title>Node3</title>
<g id="a_node3"><a xlink:href="zwave__command__class__basic_8c.html#ae484083357f2a3ed5b7beb6223d93d5a" target="_top" xlink:title=" ">
<polygon fill="none" stroke="black" points="460,-0.5 460,-30.5 573,-30.5 573,-0.5 460,-0.5"/>
<text text-anchor="start" x="468" y="-18.5" font-family="Helvetica,sans-Serif" font-size="10.00">on_endpoint_interview</text>
<text text-anchor="middle" x="516.5" y="-7.5" font-family="Helvetica,sans-Serif" font-size="10.00">_completed</text>
</a>
</g>
</g>
<!-- Node2&#45;&gt;Node3 -->
<g id="edge2" class="edge">
<title>Node2&#45;&gt;Node3</title>
<path fill="none" stroke="midnightblue" d="M598.81,-15.5C590.33,-15.5 581.57,-15.5 573.07,-15.5"/>
<polygon fill="midnightblue" stroke="midnightblue" points="598.97,-19 608.97,-15.5 598.97,-12 598.97,-19"/>
</g>
<!-- Node3&#45;&gt;Node3 -->
<g id="edge3" class="edge">
<title>Node3&#45;&gt;Node3</title>
<path fill="none" stroke="midnightblue" d="M539.95,-40.96C537.04,-45.68 529.23,-49 516.5,-49 495.62,-49 487.95,-40.06 493.5,-30.66"/>
<polygon fill="midnightblue" stroke="midnightblue" points="543.44,-40.5 539.5,-30.66 536.44,-40.8 543.44,-40.5"/>
</g>
<!-- Node4 -->
<g id="node4" class="node">
<title>Node4</title>
<g id="a_node4"><a xlink:href="zwave__command__class__basic_8c.html#a6f16bae2e9206d5fe826d468866deba4" target="_top" xlink:title=" ">
<polygon fill="none" stroke="black" points="344,-6 344,-25 424,-25 424,-6 344,-6"/>
<text text-anchor="middle" x="384" y="-13" font-family="Helvetica,sans-Serif" font-size="10.00">on_nif_created</text>
</a>
</g>
</g>
<!-- Node3&#45;&gt;Node4 -->
<g id="edge4" class="edge">
<title>Node3&#45;&gt;Node4</title>
<path fill="none" stroke="midnightblue" d="M449.66,-15.5C441.01,-15.5 432.38,-15.5 424.37,-15.5"/>
<polygon fill="midnightblue" stroke="midnightblue" points="449.78,-19 459.78,-15.5 449.78,-12 449.78,-19"/>
</g>
<!-- Node5 -->
<g id="node5" class="node">
<title>Node5</title>
<g id="a_node5"><a xlink:href="group__zwave__command__class__basic.html#ga6780c7bc2310c30c76e7a54aa101604f" target="_top" xlink:title="Initialize the basic command class handler.">
<polygon fill="none" stroke="black" points="186,-0.5 186,-30.5 308,-30.5 308,-0.5 186,-0.5"/>
<text text-anchor="start" x="194" y="-18.5" font-family="Helvetica,sans-Serif" font-size="10.00">zwave_command_class</text>
<text text-anchor="middle" x="247" y="-7.5" font-family="Helvetica,sans-Serif" font-size="10.00">_basic_init</text>
</a>
</g>
</g>
<!-- Node4&#45;&gt;Node5 -->
<g id="edge5" class="edge">
<title>Node4&#45;&gt;Node5</title>
<path fill="none" stroke="midnightblue" d="M333.95,-15.5C325.54,-15.5 316.72,-15.5 308.07,-15.5"/>
<polygon fill="midnightblue" stroke="midnightblue" points="333.95,-19 343.95,-15.5 333.95,-12 333.95,-19"/>
</g>
<!-- Node6 -->
<g id="node6" class="node">
<title>Node6</title>
<g id="a_node6"><a xlink:href="group__command__classes__fixt.html#ga5272651939ced1723158340039e8da19" target="_top" xlink:title="Setup fixture for Z&#45;Wave Command Classes.">
<polygon fill="none" stroke="black" points="0,-6 0,-25 150,-25 150,-6 0,-6"/>
<text text-anchor="middle" x="75" y="-13" font-family="Helvetica,sans-Serif" font-size="10.00">zwave_command_classes_init</text>
</a>
</g>
</g>
<!-- Node5&#45;&gt;Node6 -->
<g id="edge6" class="edge">
<title>Node5&#45;&gt;Node6</title>
<path fill="none" stroke="midnightblue" d="M175.51,-15.5C167.16,-15.5 158.61,-15.5 150.21,-15.5"/>
<polygon fill="midnightblue" stroke="midnightblue" points="175.59,-19 185.59,-15.5 175.59,-12 175.59,-19"/>
</g>
</g>
</svg>
