<?xml version="1.0" encoding="UTF-8" standalone="no"?>
<!DOCTYPE svg PUBLIC "-//W3C//DTD SVG 1.1//EN"
 "http://www.w3.org/Graphics/SVG/1.1/DTD/svg11.dtd">
<!-- Generated by graphviz version 2.43.0 (0)
 -->
<!-- Title: zwapi_enable_watchdog Pages: 1 -->
<svg width="1291pt" height="541pt"
 viewBox="0.00 0.00 1291.00 541.00" xmlns="http://www.w3.org/2000/svg" xmlns:xlink="http://www.w3.org/1999/xlink">
<g id="graph0" class="graph" transform="scale(1 1) rotate(0) translate(4 537)">
<title>zwapi_enable_watchdog</title>
<!-- Node1 -->
<g id="node1" class="node">
<title>Node1</title>
<g id="a_node1"><a xlink:title="Enable the Watchdog.">
<polygon fill="#bfbfbf" stroke="black" points="0,-227.5 0,-246.5 123,-246.5 123,-227.5 0,-227.5"/>
<text text-anchor="middle" x="61.5" y="-234.5" font-family="Helvetica,sans-Serif" font-size="10.00">zwapi_enable_watchdog</text>
</a>
</g>
</g>
<!-- Node2 -->
<g id="node2" class="node">
<title>Node2</title>
<g id="a_node2"><a xlink:href="zwapi__init_8c.html#a67064ee382c07d0af51a9d9339b3fcde" target="_top" xlink:title="Verifies that the command is supported by the Z&#45;Wave module.">
<polygon fill="none" stroke="black" points="159,-227.5 159,-246.5 275,-246.5 275,-227.5 159,-227.5"/>
<text text-anchor="middle" x="217" y="-234.5" font-family="Helvetica,sans-Serif" font-size="10.00">zwapi_send_command</text>
</a>
</g>
</g>
<!-- Node1&#45;&gt;Node2 -->
<g id="edge1" class="edge">
<title>Node1&#45;&gt;Node2</title>
<path fill="none" stroke="midnightblue" d="M123.17,-237C131.51,-237 140.11,-237 148.57,-237"/>
<polygon fill="midnightblue" stroke="midnightblue" points="148.77,-240.5 158.77,-237 148.77,-233.5 148.77,-240.5"/>
</g>
<!-- Node3 -->
<g id="node3" class="node">
<title>Node3</title>
<g id="a_node3"><a xlink:href="zwapi__session_8c.html#a32577f3500efc3d937dbc68eebb3c370" target="_top" xlink:title="Send data frame to Z&#45;Wave chip via serial port and wait for ACK.">
<polygon fill="none" stroke="black" points="333.5,-244 333.5,-274 440.5,-274 440.5,-244 333.5,-244"/>
<text text-anchor="start" x="341.5" y="-262" font-family="Helvetica,sans-Serif" font-size="10.00">zwapi_session_send</text>
<text text-anchor="middle" x="387" y="-251" font-family="Helvetica,sans-Serif" font-size="10.00">_frame</text>
</a>
</g>
</g>
<!-- Node2&#45;&gt;Node3 -->
<g id="edge2" class="edge">
<title>Node2&#45;&gt;Node3</title>
<path fill="none" stroke="midnightblue" d="M275.35,-244.51C290.79,-246.53 307.56,-248.73 323.28,-250.79"/>
<polygon fill="midnightblue" stroke="midnightblue" points="323.06,-254.29 333.43,-252.12 323.97,-247.35 323.06,-254.29"/>
</g>
<!-- Node28 -->
<g id="node28" class="node">
<title>Node28</title>
<g id="a_node28"><a xlink:href="group__ZWAPI__INIT.html#ga0a823074baec69913d0e8590b46e4e33" target="_top" xlink:title="Check if a command is supported by the connected Z&#45;Wave module.">
<polygon fill="none" stroke="black" points="311,-205.5 311,-224.5 463,-224.5 463,-205.5 311,-205.5"/>
<text text-anchor="middle" x="387" y="-212.5" font-family="Helvetica,sans-Serif" font-size="10.00">zwapi_support_command_func</text>
</a>
</g>
</g>
<!-- Node2&#45;&gt;Node28 -->
<g id="edge42" class="edge">
<title>Node2&#45;&gt;Node28</title>
<path fill="none" stroke="midnightblue" d="M275.35,-229.49C284.28,-228.32 293.67,-227.09 303.03,-225.86"/>
<polygon fill="midnightblue" stroke="midnightblue" points="303.71,-229.31 313.17,-224.54 302.8,-222.37 303.71,-229.31"/>
</g>
<!-- Node4 -->
<g id="node4" class="node">
<title>Node4</title>
<g id="a_node4"><a xlink:href="zwapi__connection_8c.html#a13b6e6b6c56844f4344fabe490bc5eac" target="_top" xlink:title="Closes and re&#45;initializes the zwapi_connection to the Z&#45;Wave module.">
<polygon fill="none" stroke="black" points="659,-363.5 659,-382.5 787,-382.5 787,-363.5 659,-363.5"/>
<text text-anchor="middle" x="723" y="-370.5" font-family="Helvetica,sans-Serif" font-size="10.00">zwapi_connection_restart</text>
</a>
</g>
</g>
<!-- Node3&#45;&gt;Node4 -->
<g id="edge3" class="edge">
<title>Node3&#45;&gt;Node4</title>
<path fill="none" stroke="midnightblue" d="M401.28,-274.25C420.49,-295.15 458.23,-332.04 499,-349 546.2,-368.63 603.63,-374.44 648.39,-375.44"/>
<polygon fill="midnightblue" stroke="midnightblue" points="648.55,-378.95 658.6,-375.59 648.66,-371.95 648.55,-378.95"/>
</g>
<!-- Node14 -->
<g id="node14" class="node">
<title>Node14</title>
<g id="a_node14"><a xlink:href="zwapi__timestamp_8c.html#a6ebe1ddfe689bce6ee72fc12f708aece" target="_top" xlink:title="get the timestamp">
<polygon fill="none" stroke="black" points="832,-349.5 832,-368.5 944,-368.5 944,-349.5 832,-349.5"/>
<text text-anchor="middle" x="888" y="-356.5" font-family="Helvetica,sans-Serif" font-size="10.00">zwapi_timestamp_get</text>
</a>
</g>
</g>
<!-- Node3&#45;&gt;Node14 -->
<g id="edge41" class="edge">
<title>Node3&#45;&gt;Node14</title>
<path fill="none" stroke="midnightblue" d="M440.77,-270.5C459.19,-274.49 480,-278.97 499,-283 569.61,-297.96 587.2,-302.01 658,-316 714.38,-327.14 778.71,-339.16 824.81,-347.65"/>
<polygon fill="midnightblue" stroke="midnightblue" points="824.18,-351.1 834.65,-349.46 825.45,-344.21 824.18,-351.1"/>
</g>
<!-- Node15 -->
<g id="node15" class="node">
<title>Node15</title>
<g id="a_node15"><a xlink:href="zwapi__connection_8c.html#af47f8cbd93974d5c91d659fdeb7a870b" target="_top" xlink:title="Transmit a frame via serial port by adding SOF, Len, Type, cmd and Checksum.">
<polygon fill="none" stroke="black" points="669,-401.5 669,-420.5 777,-420.5 777,-401.5 669,-401.5"/>
<text text-anchor="middle" x="723" y="-408.5" font-family="Helvetica,sans-Serif" font-size="10.00">zwapi_connection_tx</text>
</a>
</g>
</g>
<!-- Node3&#45;&gt;Node15 -->
<g id="edge14" class="edge">
<title>Node3&#45;&gt;Node15</title>
<path fill="none" stroke="midnightblue" d="M397.47,-274.2C414.38,-299.9 452.4,-351.52 499,-376 548.51,-402.01 612.12,-409.9 658.72,-411.78"/>
<polygon fill="midnightblue" stroke="midnightblue" points="658.88,-415.29 668.99,-412.11 659.11,-408.29 658.88,-415.29"/>
</g>
<!-- Node17 -->
<g id="node17" class="node">
<title>Node17</title>
<g id="a_node17"><a xlink:href="zwapi__timestamp_8c.html#a3925f2732e344672608db38351236688" target="_top" xlink:title="compare the current timestamp with the timestamp passed as an argument">
<polygon fill="none" stroke="black" points="835,-137 835,-167 941,-167 941,-137 835,-137"/>
<text text-anchor="start" x="843" y="-155" font-family="Helvetica,sans-Serif" font-size="10.00">zwapi_is_timestamp</text>
<text text-anchor="middle" x="888" y="-144" font-family="Helvetica,sans-Serif" font-size="10.00">_elapsed</text>
</a>
</g>
</g>
<!-- Node3&#45;&gt;Node17 -->
<g id="edge19" class="edge">
<title>Node3&#45;&gt;Node17</title>
<path fill="none" stroke="midnightblue" d="M440.66,-246.39C495,-233.5 582.27,-213.13 658,-197 714.3,-185.01 778.64,-172.47 824.76,-163.68"/>
<polygon fill="midnightblue" stroke="midnightblue" points="825.44,-167.11 834.61,-161.81 824.13,-160.24 825.44,-167.11"/>
</g>
<!-- Node18 -->
<g id="node18" class="node">
<title>Node18</title>
<g id="a_node18"><a xlink:href="zwapi__session_8c.html#a1f2b3e7c2dcf31708ef8d333747352ba" target="_top" xlink:title=" ">
<polygon fill="none" stroke="black" points="661.5,-80 661.5,-110 784.5,-110 784.5,-80 661.5,-80"/>
<text text-anchor="start" x="669.5" y="-98" font-family="Helvetica,sans-Serif" font-size="10.00">zwapi_session_enqueue</text>
<text text-anchor="middle" x="723" y="-87" font-family="Helvetica,sans-Serif" font-size="10.00">_frame</text>
</a>
</g>
</g>
<!-- Node3&#45;&gt;Node18 -->
<g id="edge20" class="edge">
<title>Node3&#45;&gt;Node18</title>
<path fill="none" stroke="midnightblue" d="M440.58,-248.71C448.9,-245.17 456.79,-240.4 463,-234 501.77,-194.04 455.78,-149.11 499,-114 540.95,-79.92 603.16,-77.27 651.22,-81.95"/>
<polygon fill="midnightblue" stroke="midnightblue" points="650.92,-85.44 661.25,-83.05 651.69,-78.48 650.92,-85.44"/>
</g>
<!-- Node22 -->
<g id="node22" class="node">
<title>Node22</title>
<g id="a_node22"><a xlink:href="zwapi__session_8c.html#a2875fbfa250b7b25ecb6bc4f0b032cb8" target="_top" xlink:title="Loads the received frames from the serial device into the zwapi_session receive queue.">
<polygon fill="none" stroke="black" points="499,-124 499,-154 622,-154 622,-124 499,-124"/>
<text text-anchor="start" x="507" y="-142" font-family="Helvetica,sans-Serif" font-size="10.00">zwapi_session_enqueue</text>
<text text-anchor="middle" x="560.5" y="-131" font-family="Helvetica,sans-Serif" font-size="10.00">_rx_frames</text>
</a>
</g>
</g>
<!-- Node3&#45;&gt;Node22 -->
<g id="edge24" class="edge">
<title>Node3&#45;&gt;Node22</title>
<path fill="none" stroke="midnightblue" d="M440.66,-247.06C448.68,-243.71 456.46,-239.44 463,-234 488.4,-212.89 475.12,-191.81 499,-169 502.77,-165.4 507.06,-162.14 511.57,-159.22"/>
<polygon fill="midnightblue" stroke="midnightblue" points="513.59,-162.09 520.44,-154.01 510.04,-156.05 513.59,-162.09"/>
</g>
<!-- Node27 -->
<g id="node27" class="node">
<title>Node27</title>
<g id="a_node27"><a xlink:href="zwapi__session_8c.html#a9d30e1677f02d7730ab035aa9333235d" target="_top" xlink:title=" ">
<polygon fill="none" stroke="black" points="508.5,-244 508.5,-274 612.5,-274 612.5,-244 508.5,-244"/>
<text text-anchor="start" x="516.5" y="-262" font-family="Helvetica,sans-Serif" font-size="10.00">zwapi_session_wait</text>
<text text-anchor="middle" x="560.5" y="-251" font-family="Helvetica,sans-Serif" font-size="10.00">_for_response</text>
</a>
</g>
</g>
<!-- Node3&#45;&gt;Node27 -->
<g id="edge37" class="edge">
<title>Node3&#45;&gt;Node27</title>
<path fill="none" stroke="midnightblue" d="M440.86,-259C458.96,-259 479.37,-259 498.09,-259"/>
<polygon fill="midnightblue" stroke="midnightblue" points="498.29,-262.5 508.29,-259 498.29,-255.5 498.29,-262.5"/>
</g>
<!-- Node5 -->
<g id="node5" class="node">
<title>Node5</title>
<g id="a_node5"><a xlink:href="zwapi__serial_8c.html#a3f2b3bd848e9fe0e6e137482bed06b46" target="_top" xlink:title="Flush the serial output if using buffered output.">
<polygon fill="none" stroke="black" points="839.5,-388 839.5,-418 936.5,-418 936.5,-388 839.5,-388"/>
<text text-anchor="start" x="847.5" y="-406" font-family="Helvetica,sans-Serif" font-size="10.00">zwapi_serial_drain</text>
<text text-anchor="middle" x="888" y="-395" font-family="Helvetica,sans-Serif" font-size="10.00">_buffer</text>
</a>
</g>
</g>
<!-- Node4&#45;&gt;Node5 -->
<g id="edge4" class="edge">
<title>Node4&#45;&gt;Node5</title>
<path fill="none" stroke="midnightblue" d="M776.02,-382.57C793,-385.7 811.95,-389.19 829.32,-392.38"/>
<polygon fill="midnightblue" stroke="midnightblue" points="828.87,-395.86 839.34,-394.23 830.14,-388.98 828.87,-395.86"/>
</g>
<!-- Node6 -->
<g id="node6" class="node">
<title>Node6</title>
<g id="a_node6"><a xlink:href="zwapi__serial_8c.html#a7762d0358e9f398b92edbfd6a550984a" target="_top" xlink:title="Write a byte to serial port device.">
<polygon fill="none" stroke="black" points="831.5,-311.5 831.5,-330.5 944.5,-330.5 944.5,-311.5 831.5,-311.5"/>
<text text-anchor="middle" x="888" y="-318.5" font-family="Helvetica,sans-Serif" font-size="10.00">zwapi_serial_put_byte</text>
</a>
</g>
</g>
<!-- Node4&#45;&gt;Node6 -->
<g id="edge5" class="edge">
<title>Node4&#45;&gt;Node6</title>
<path fill="none" stroke="midnightblue" d="M752.39,-363.42C772.37,-356.72 799.77,-347.65 824,-340 830.73,-337.87 837.89,-335.67 844.87,-333.54"/>
<polygon fill="midnightblue" stroke="midnightblue" points="846.34,-336.75 854.9,-330.51 844.32,-330.05 846.34,-336.75"/>
</g>
<!-- Node10 -->
<g id="node10" class="node">
<title>Node10</title>
<g id="a_node10"><a xlink:href="zwapi__serial_8c.html#aadf3397d0bd2c1657d4b1a373599acfe" target="_top" xlink:title="Closes and re&#45;initialize the last open serial port.">
<polygon fill="none" stroke="black" points="836,-475.5 836,-494.5 940,-494.5 940,-475.5 836,-475.5"/>
<text text-anchor="middle" x="888" y="-482.5" font-family="Helvetica,sans-Serif" font-size="10.00">zwapi_serial_restart</text>
</a>
</g>
</g>
<!-- Node4&#45;&gt;Node10 -->
<g id="edge9" class="edge">
<title>Node4&#45;&gt;Node10</title>
<path fill="none" stroke="midnightblue" d="M766.86,-382.59C774.17,-385.09 781.5,-388.19 788,-392 807.25,-403.28 807.79,-411.66 824,-427 838.88,-441.08 856,-456.81 868.63,-468.33"/>
<polygon fill="midnightblue" stroke="midnightblue" points="866.47,-471.09 876.22,-475.24 871.18,-465.92 866.47,-471.09"/>
</g>
<!-- Node4&#45;&gt;Node14 -->
<g id="edge13" class="edge">
<title>Node4&#45;&gt;Node14</title>
<path fill="none" stroke="midnightblue" d="M787.02,-367.59C798.34,-366.62 810.16,-365.6 821.54,-364.62"/>
<polygon fill="midnightblue" stroke="midnightblue" points="822.18,-368.08 831.85,-363.74 821.58,-361.11 822.18,-368.08"/>
</g>
<!-- Node7 -->
<g id="node7" class="node">
<title>Node7</title>
<g id="a_node7"><a xlink:href="zwapi__serial_8c.html#af9054824651df422bab5076d16a80fda" target="_top" xlink:title="Writes the content of a buffer to the serial port device.">
<polygon fill="none" stroke="black" points="988,-312.5 988,-331.5 1107,-331.5 1107,-312.5 988,-312.5"/>
<text text-anchor="middle" x="1047.5" y="-319.5" font-family="Helvetica,sans-Serif" font-size="10.00">zwapi_serial_put_buffer</text>
</a>
</g>
</g>
<!-- Node6&#45;&gt;Node7 -->
<g id="edge6" class="edge">
<title>Node6&#45;&gt;Node7</title>
<path fill="none" stroke="midnightblue" d="M944.53,-321.35C955.24,-321.42 966.59,-321.49 977.66,-321.56"/>
<polygon fill="midnightblue" stroke="midnightblue" points="977.71,-325.06 987.74,-321.63 977.76,-318.06 977.71,-325.06"/>
</g>
<!-- Node8 -->
<g id="node8" class="node">
<title>Node8</title>
<g id="a_node8"><a xlink:href="zwapi__serial_8c.html#a0accbbf7ddb7aeab10f5df1fe3df6642" target="_top" xlink:title=" ">
<polygon fill="none" stroke="black" points="1143,-313.5 1143,-332.5 1283,-332.5 1283,-313.5 1143,-313.5"/>
<text text-anchor="middle" x="1213" y="-320.5" font-family="Helvetica,sans-Serif" font-size="10.00">zwapi_serial_log_timestamp</text>
</a>
</g>
</g>
<!-- Node7&#45;&gt;Node8 -->
<g id="edge7" class="edge">
<title>Node7&#45;&gt;Node8</title>
<path fill="none" stroke="midnightblue" d="M1107.07,-322.36C1115.43,-322.41 1124.15,-322.46 1132.82,-322.52"/>
<polygon fill="midnightblue" stroke="midnightblue" points="1132.95,-326.02 1142.97,-322.58 1132.99,-319.02 1132.95,-326.02"/>
</g>
<!-- Node9 -->
<g id="node9" class="node">
<title>Node9</title>
<g id="a_node9"><a xlink:href="zwapi__serial_8c.html#abf18afb71e14daaf65d937149ef1639f" target="_top" xlink:title="Test if a is less than b + ms.">
<polygon fill="none" stroke="black" points="1159.5,-264 1159.5,-294 1266.5,-294 1266.5,-264 1159.5,-264"/>
<text text-anchor="start" x="1167.5" y="-282" font-family="Helvetica,sans-Serif" font-size="10.00">zwapi_serial_timeval</text>
<text text-anchor="middle" x="1213" y="-271" font-family="Helvetica,sans-Serif" font-size="10.00">_a_lt_b_milis</text>
</a>
</g>
</g>
<!-- Node7&#45;&gt;Node9 -->
<g id="edge8" class="edge">
<title>Node7&#45;&gt;Node9</title>
<path fill="none" stroke="midnightblue" d="M1084.79,-312.46C1103.8,-307.46 1127.61,-301.19 1149.48,-295.44"/>
<polygon fill="midnightblue" stroke="midnightblue" points="1150.59,-298.77 1159.37,-292.84 1148.81,-292 1150.59,-298.77"/>
</g>
<!-- Node11 -->
<g id="node11" class="node">
<title>Node11</title>
<g id="a_node11"><a xlink:href="zwapi__serial_8c.html#aae586785021ac9a605cd77651429f0c9" target="_top" xlink:title="De&#45;Initialize the serial port.">
<polygon fill="none" stroke="black" points="998,-494.5 998,-513.5 1097,-513.5 1097,-494.5 998,-494.5"/>
<text text-anchor="middle" x="1047.5" y="-501.5" font-family="Helvetica,sans-Serif" font-size="10.00">zwapi_serial_close</text>
</a>
</g>
</g>
<!-- Node10&#45;&gt;Node11 -->
<g id="edge10" class="edge">
<title>Node10&#45;&gt;Node11</title>
<path fill="none" stroke="midnightblue" d="M940.14,-491.17C955.31,-493 972.06,-495.02 987.68,-496.9"/>
<polygon fill="midnightblue" stroke="midnightblue" points="987.42,-500.4 997.76,-498.12 988.25,-493.45 987.42,-500.4"/>
</g>
<!-- Node12 -->
<g id="node12" class="node">
<title>Node12</title>
<g id="a_node12"><a xlink:href="zwapi__serial_8c.html#a07b09de97f4932d882fc77e191c44638" target="_top" xlink:title="Initialize the serial port to 115200 BAUD 8N1.">
<polygon fill="none" stroke="black" points="1003,-456.5 1003,-475.5 1092,-475.5 1092,-456.5 1003,-456.5"/>
<text text-anchor="middle" x="1047.5" y="-463.5" font-family="Helvetica,sans-Serif" font-size="10.00">zwapi_serial_init</text>
</a>
</g>
</g>
<!-- Node10&#45;&gt;Node12 -->
<g id="edge11" class="edge">
<title>Node10&#45;&gt;Node12</title>
<path fill="none" stroke="midnightblue" d="M940.14,-478.83C956.87,-476.81 975.51,-474.56 992.46,-472.52"/>
<polygon fill="midnightblue" stroke="midnightblue" points="993.25,-475.95 1002.76,-471.28 992.41,-469 993.25,-475.95"/>
</g>
<!-- Node13 -->
<g id="node13" class="node">
<title>Node13</title>
<g id="a_node13"><a xlink:href="zwapi__serial_8c.html#aefeac5909b0bf6411db1492f69c3bc68" target="_top" xlink:title=" ">
<polygon fill="none" stroke="black" points="1153.5,-456.5 1153.5,-475.5 1272.5,-475.5 1272.5,-456.5 1153.5,-456.5"/>
<text text-anchor="middle" x="1213" y="-463.5" font-family="Helvetica,sans-Serif" font-size="10.00">zwapi_open_serial_port</text>
</a>
</g>
</g>
<!-- Node12&#45;&gt;Node13 -->
<g id="edge12" class="edge">
<title>Node12&#45;&gt;Node13</title>
<path fill="none" stroke="midnightblue" d="M1092.31,-466C1107.97,-466 1126.01,-466 1143.26,-466"/>
<polygon fill="midnightblue" stroke="midnightblue" points="1143.3,-469.5 1153.3,-466 1143.3,-462.5 1143.3,-469.5"/>
</g>
<!-- Node15&#45;&gt;Node5 -->
<g id="edge16" class="edge">
<title>Node15&#45;&gt;Node5</title>
<path fill="none" stroke="midnightblue" d="M777.37,-408.38C793.9,-407.57 812.19,-406.67 829.02,-405.85"/>
<polygon fill="midnightblue" stroke="midnightblue" points="829.47,-409.33 839.28,-405.34 829.12,-402.34 829.47,-409.33"/>
</g>
<!-- Node15&#45;&gt;Node7 -->
<g id="edge17" class="edge">
<title>Node15&#45;&gt;Node7</title>
<path fill="none" stroke="midnightblue" d="M750.34,-420.55C794.29,-434.86 884.4,-457.11 952,-427 991.75,-409.3 1021.8,-365.69 1036.5,-340.59"/>
<polygon fill="midnightblue" stroke="midnightblue" points="1039.66,-342.11 1041.52,-331.68 1033.56,-338.67 1039.66,-342.11"/>
</g>
<!-- Node15&#45;&gt;Node14 -->
<g id="edge18" class="edge">
<title>Node15&#45;&gt;Node14</title>
<path fill="none" stroke="midnightblue" d="M758.04,-401.46C767.77,-398.58 778.35,-395.3 788,-392 804.24,-386.44 807.77,-383.59 824,-378 830.39,-375.8 837.18,-373.6 843.86,-371.52"/>
<polygon fill="midnightblue" stroke="midnightblue" points="844.96,-374.85 853.49,-368.58 842.91,-368.15 844.96,-374.85"/>
</g>
<!-- Node16 -->
<g id="node16" class="node">
<title>Node16</title>
<g id="a_node16"><a xlink:href="zwapi__connection_8c.html#a96d24d537c5b8d6aa0aa6a7638ba2f09" target="_top" xlink:title=" ">
<polygon fill="none" stroke="black" points="830.5,-513.5 830.5,-532.5 945.5,-532.5 945.5,-513.5 830.5,-513.5"/>
<text text-anchor="middle" x="888" y="-520.5" font-family="Helvetica,sans-Serif" font-size="10.00">zwapi_frame_to_string</text>
</a>
</g>
</g>
<!-- Node15&#45;&gt;Node16 -->
<g id="edge15" class="edge">
<title>Node15&#45;&gt;Node16</title>
<path fill="none" stroke="midnightblue" d="M731.74,-420.69C747.25,-439.5 784.11,-481.11 824,-504 827.73,-506.14 831.73,-508.07 835.84,-509.79"/>
<polygon fill="midnightblue" stroke="midnightblue" points="834.95,-513.19 845.54,-513.45 837.42,-506.65 834.95,-513.19"/>
</g>
<!-- Node19 -->
<g id="node19" class="node">
<title>Node19</title>
<g id="a_node19"><a xlink:href="zwapi__connection_8c.html#a91ce3acd7eff779496789637a9c27f40" target="_top" xlink:title="Provides the data of the serial buffer for the last received frame.">
<polygon fill="none" stroke="black" points="831.5,-88 831.5,-118 944.5,-118 944.5,-88 831.5,-88"/>
<text text-anchor="start" x="839.5" y="-106" font-family="Helvetica,sans-Serif" font-size="10.00">zwapi_connection_get</text>
<text text-anchor="middle" x="888" y="-95" font-family="Helvetica,sans-Serif" font-size="10.00">_last_rx_frame</text>
</a>
</g>
</g>
<!-- Node18&#45;&gt;Node19 -->
<g id="edge21" class="edge">
<title>Node18&#45;&gt;Node19</title>
<path fill="none" stroke="midnightblue" d="M784.7,-97.98C796.65,-98.57 809.24,-99.18 821.34,-99.78"/>
<polygon fill="midnightblue" stroke="midnightblue" points="821.21,-103.28 831.37,-100.27 821.55,-96.28 821.21,-103.28"/>
</g>
<!-- Node20 -->
<g id="node20" class="node">
<title>Node20</title>
<g id="a_node20"><a xlink:href="zwapi__session_8c.html#ad7bac697ee2388b38ed3777b5a3862bc" target="_top" xlink:title=" ">
<polygon fill="none" stroke="black" points="831.5,-39 831.5,-69 944.5,-69 944.5,-39 831.5,-39"/>
<text text-anchor="start" x="839.5" y="-57" font-family="Helvetica,sans-Serif" font-size="10.00">zwapi_session_get_rx</text>
<text text-anchor="middle" x="888" y="-46" font-family="Helvetica,sans-Serif" font-size="10.00">_queue_length</text>
</a>
</g>
</g>
<!-- Node18&#45;&gt;Node20 -->
<g id="edge22" class="edge">
<title>Node18&#45;&gt;Node20</title>
<path fill="none" stroke="midnightblue" d="M783.77,-79.97C796.03,-76.88 809,-73.62 821.45,-70.49"/>
<polygon fill="midnightblue" stroke="midnightblue" points="822.45,-73.84 831.3,-68.01 820.75,-67.06 822.45,-73.84"/>
</g>
<!-- Node21 -->
<g id="node21" class="node">
<title>Node21</title>
<g id="a_node21"><a xlink:href="group__ZWAPI__INIT.html#ga438a74c9752197d20d377874d5a61694" target="_top" xlink:title="Returns the pointer to the callbacks registered at init.">
<polygon fill="none" stroke="black" points="824,-0.5 824,-19.5 952,-19.5 952,-0.5 824,-0.5"/>
<text text-anchor="middle" x="888" y="-7.5" font-family="Helvetica,sans-Serif" font-size="10.00">zwave_api_get_callbacks</text>
</a>
</g>
</g>
<!-- Node18&#45;&gt;Node21 -->
<g id="edge23" class="edge">
<title>Node18&#45;&gt;Node21</title>
<path fill="none" stroke="midnightblue" d="M743.29,-79.8C762.73,-65.09 794.05,-43.03 824,-29 828.91,-26.7 834.17,-24.6 839.48,-22.7"/>
<polygon fill="midnightblue" stroke="midnightblue" points="840.65,-26 849.02,-19.51 838.43,-19.36 840.65,-26"/>
</g>
<!-- Node22&#45;&gt;Node18 -->
<g id="edge36" class="edge">
<title>Node22&#45;&gt;Node18</title>
<path fill="none" stroke="midnightblue" d="M616.29,-123.98C629.51,-120.35 643.77,-116.45 657.4,-112.71"/>
<polygon fill="midnightblue" stroke="midnightblue" points="658.47,-116.05 667.19,-110.03 656.62,-109.29 658.47,-116.05"/>
</g>
<!-- Node23 -->
<g id="node23" class="node">
<title>Node23</title>
<g id="a_node23"><a xlink:href="zwapi__connection_8c.html#a1e45c6c9695b5e7b415adfad40080720" target="_top" xlink:title="Parses serial data sent from the Z&#45;Wave module to the serial port. Should be frequently called by mai...">
<polygon fill="none" stroke="black" points="658,-249.5 658,-268.5 788,-268.5 788,-249.5 658,-249.5"/>
<text text-anchor="middle" x="723" y="-256.5" font-family="Helvetica,sans-Serif" font-size="10.00">zwapi_connection_refresh</text>
</a>
</g>
</g>
<!-- Node22&#45;&gt;Node23 -->
<g id="edge25" class="edge">
<title>Node22&#45;&gt;Node23</title>
<path fill="none" stroke="midnightblue" d="M581.83,-154.2C612.38,-177.04 669.87,-220.02 700.88,-243.21"/>
<polygon fill="midnightblue" stroke="midnightblue" points="699.14,-246.28 709.24,-249.46 703.33,-240.67 699.14,-246.28"/>
</g>
<!-- Node23&#45;&gt;Node5 -->
<g id="edge27" class="edge">
<title>Node23&#45;&gt;Node5</title>
<path fill="none" stroke="midnightblue" d="M729.77,-268.72C743.45,-291.01 780.01,-346.27 824,-378 826.62,-379.89 829.41,-381.67 832.3,-383.33"/>
<polygon fill="midnightblue" stroke="midnightblue" points="830.7,-386.44 841.18,-387.97 833.94,-380.24 830.7,-386.44"/>
</g>
<!-- Node23&#45;&gt;Node6 -->
<g id="edge34" class="edge">
<title>Node23&#45;&gt;Node6</title>
<path fill="none" stroke="midnightblue" d="M751.72,-268.52C763.09,-272.66 776.31,-277.75 788,-283 804.5,-290.41 807.26,-295.13 824,-302 829.48,-304.25 835.33,-306.37 841.18,-308.32"/>
<polygon fill="midnightblue" stroke="midnightblue" points="840.34,-311.72 850.93,-311.43 842.47,-305.05 840.34,-311.72"/>
</g>
<!-- Node23&#45;&gt;Node14 -->
<g id="edge35" class="edge">
<title>Node23&#45;&gt;Node14</title>
<path fill="none" stroke="midnightblue" d="M761.71,-268.55C770.95,-272.07 780.36,-276.78 788,-283 811.24,-301.91 800.15,-321.86 824,-340 826.47,-341.88 829.12,-343.57 831.89,-345.09"/>
<polygon fill="midnightblue" stroke="midnightblue" points="830.51,-348.31 841.05,-349.42 833.5,-341.99 830.51,-348.31"/>
</g>
<!-- Node23&#45;&gt;Node17 -->
<g id="edge26" class="edge">
<title>Node23&#45;&gt;Node17</title>
<path fill="none" stroke="midnightblue" d="M762.11,-249.4C771.24,-245.89 780.5,-241.2 788,-235 811.67,-215.43 800.38,-195.64 824,-176 825.55,-174.71 827.18,-173.48 828.87,-172.32"/>
<polygon fill="midnightblue" stroke="midnightblue" points="830.95,-175.15 837.73,-167.01 827.35,-169.15 830.95,-175.15"/>
</g>
<!-- Node24 -->
<g id="node24" class="node">
<title>Node24</title>
<g id="a_node24"><a xlink:href="zwapi__serial_8c.html#a538134f9fdbb1ce052667b3a041357bd" target="_top" xlink:title="Reads the output of the serial port device and stores the content in a buffer.">
<polygon fill="none" stroke="black" points="988,-272.5 988,-291.5 1107,-291.5 1107,-272.5 988,-272.5"/>
<text text-anchor="middle" x="1047.5" y="-279.5" font-family="Helvetica,sans-Serif" font-size="10.00">zwapi_serial_get_buffer</text>
</a>
</g>
</g>
<!-- Node23&#45;&gt;Node24 -->
<g id="edge28" class="edge">
<title>Node23&#45;&gt;Node24</title>
<path fill="none" stroke="midnightblue" d="M788.06,-257.57C833.86,-257.24 896.88,-258.19 952,-264 965.76,-265.45 980.52,-267.85 994.18,-270.43"/>
<polygon fill="midnightblue" stroke="midnightblue" points="993.9,-273.94 1004.39,-272.43 995.24,-267.07 993.9,-273.94"/>
</g>
<!-- Node25 -->
<g id="node25" class="node">
<title>Node25</title>
<g id="a_node25"><a xlink:href="zwapi__serial_8c.html#abb082b1e7e727203e3ca5fbeb41f7c2b" target="_top" xlink:title="Reads a byte from the serial port device.">
<polygon fill="none" stroke="black" points="831.5,-273.5 831.5,-292.5 944.5,-292.5 944.5,-273.5 831.5,-273.5"/>
<text text-anchor="middle" x="888" y="-280.5" font-family="Helvetica,sans-Serif" font-size="10.00">zwapi_serial_get_byte</text>
</a>
</g>
</g>
<!-- Node23&#45;&gt;Node25 -->
<g id="edge31" class="edge">
<title>Node23&#45;&gt;Node25</title>
<path fill="none" stroke="midnightblue" d="M788.42,-268.49C799.32,-270.09 810.65,-271.76 821.58,-273.37"/>
<polygon fill="midnightblue" stroke="midnightblue" points="821.07,-276.83 831.47,-274.82 822.09,-269.91 821.07,-276.83"/>
</g>
<!-- Node26 -->
<g id="node26" class="node">
<title>Node26</title>
<g id="a_node26"><a xlink:href="zwapi__serial_8c.html#a9a952dc2b34d92960246f6dc4e7d58f7" target="_top" xlink:title="Check the file descriptor for the serial device is available for I/O operations.">
<polygon fill="none" stroke="black" points="837.5,-186 837.5,-216 938.5,-216 938.5,-186 837.5,-186"/>
<text text-anchor="start" x="845.5" y="-204" font-family="Helvetica,sans-Serif" font-size="10.00">zwapi_serial_is_file</text>
<text text-anchor="middle" x="888" y="-193" font-family="Helvetica,sans-Serif" font-size="10.00">_available</text>
</a>
</g>
</g>
<!-- Node23&#45;&gt;Node26 -->
<g id="edge33" class="edge">
<title>Node23&#45;&gt;Node26</title>
<path fill="none" stroke="midnightblue" d="M750.92,-249.42C773.73,-241.31 807.09,-229.43 835.08,-219.48"/>
<polygon fill="midnightblue" stroke="midnightblue" points="836.48,-222.69 844.73,-216.04 834.13,-216.1 836.48,-222.69"/>
</g>
<!-- Node24&#45;&gt;Node8 -->
<g id="edge29" class="edge">
<title>Node24&#45;&gt;Node8</title>
<path fill="none" stroke="midnightblue" d="M1086.42,-291.51C1109.55,-297.31 1139.33,-304.78 1164.09,-310.99"/>
<polygon fill="midnightblue" stroke="midnightblue" points="1163.45,-314.43 1174,-313.47 1165.15,-307.64 1163.45,-314.43"/>
</g>
<!-- Node24&#45;&gt;Node9 -->
<g id="edge30" class="edge">
<title>Node24&#45;&gt;Node9</title>
<path fill="none" stroke="midnightblue" d="M1107.07,-280.93C1120.65,-280.68 1135.16,-280.41 1148.92,-280.16"/>
<polygon fill="midnightblue" stroke="midnightblue" points="1149.34,-283.65 1159.28,-279.97 1149.22,-276.65 1149.34,-283.65"/>
</g>
<!-- Node25&#45;&gt;Node24 -->
<g id="edge32" class="edge">
<title>Node25&#45;&gt;Node24</title>
<path fill="none" stroke="midnightblue" d="M944.53,-282.65C955.24,-282.58 966.59,-282.51 977.66,-282.44"/>
<polygon fill="midnightblue" stroke="midnightblue" points="977.76,-285.94 987.74,-282.37 977.71,-278.94 977.76,-285.94"/>
</g>
<!-- Node27&#45;&gt;Node14 -->
<g id="edge40" class="edge">
<title>Node27&#45;&gt;Node14</title>
<path fill="none" stroke="midnightblue" d="M612.91,-269.69C659.51,-280.17 729.61,-297.92 788,-321 804.83,-327.65 807.26,-333.13 824,-340 829.48,-342.25 835.33,-344.37 841.18,-346.32"/>
<polygon fill="midnightblue" stroke="midnightblue" points="840.34,-349.72 850.93,-349.43 842.47,-343.05 840.34,-349.72"/>
</g>
<!-- Node27&#45;&gt;Node17 -->
<g id="edge39" class="edge">
<title>Node27&#45;&gt;Node17</title>
<path fill="none" stroke="midnightblue" d="M612.7,-248.99C659.45,-238.92 729.93,-221.39 788,-197 805.08,-189.83 807.29,-183.99 824,-176 827.58,-174.29 831.32,-172.61 835.11,-170.98"/>
<polygon fill="midnightblue" stroke="midnightblue" points="836.67,-174.12 844.57,-167.07 834,-167.65 836.67,-174.12"/>
</g>
<!-- Node27&#45;&gt;Node23 -->
<g id="edge38" class="edge">
<title>Node27&#45;&gt;Node23</title>
<path fill="none" stroke="midnightblue" d="M612.72,-259C623.79,-259 635.71,-259 647.47,-259"/>
<polygon fill="midnightblue" stroke="midnightblue" points="647.73,-262.5 657.73,-259 647.73,-255.5 647.73,-262.5"/>
</g>
</g>
</svg>
