<?xml version="1.0" encoding="UTF-8" standalone="no"?>
<!DOCTYPE svg PUBLIC "-//W3C//DTD SVG 1.1//EN"
 "http://www.w3.org/Graphics/SVG/1.1/DTD/svg11.dtd">
<!-- Generated by graphviz version 2.43.0 (0)
 -->
<!-- Title: zwave_command_class_multi_channel_capability_get Pages: 1 -->
<svg width="630pt" height="39pt"
 viewBox="0.00 0.00 630.00 39.00" xmlns="http://www.w3.org/2000/svg" xmlns:xlink="http://www.w3.org/1999/xlink">
<g id="graph0" class="graph" transform="scale(1 1) rotate(0) translate(4 35)">
<title>zwave_command_class_multi_channel_capability_get</title>
<!-- Node1 -->
<g id="node1" class="node">
<title>Node1</title>
<g id="a_node1"><a xlink:title="Resolves a Non&#45;secure NIF for an Endpoint ID &gt; 0.">
<polygon fill="#bfbfbf" stroke="black" points="475,-0.5 475,-30.5 622,-30.5 622,-0.5 475,-0.5"/>
<text text-anchor="start" x="483" y="-18.5" font-family="Helvetica,sans-Serif" font-size="10.00">zwave_command_class</text>
<text text-anchor="middle" x="548.5" y="-7.5" font-family="Helvetica,sans-Serif" font-size="10.00">_multi_channel_capability_get</text>
</a>
</g>
</g>
<!-- Node2 -->
<g id="node2" class="node">
<title>Node2</title>
<g id="a_node2"><a xlink:href="zwave__command__class__node__info__resolver_8c.html#a7a477d2057fb3dde2000ac80351d9e5c" target="_top" xlink:title=" ">
<polygon fill="none" stroke="black" points="344,-6 344,-25 439,-25 439,-6 344,-6"/>
<text text-anchor="middle" x="391.5" y="-13" font-family="Helvetica,sans-Serif" font-size="10.00">resolve_node_info</text>
</a>
</g>
</g>
<!-- Node1&#45;&gt;Node2 -->
<g id="edge1" class="edge">
<title>Node1&#45;&gt;Node2</title>
<path fill="none" stroke="midnightblue" d="M464.74,-15.5C456.02,-15.5 447.39,-15.5 439.3,-15.5"/>
<polygon fill="midnightblue" stroke="midnightblue" points="464.99,-19 474.99,-15.5 464.99,-12 464.99,-19"/>
</g>
<!-- Node3 -->
<g id="node3" class="node">
<title>Node3</title>
<g id="a_node3"><a xlink:href="group__zwave__nif__resolver.html#gae3d7718b1013ff52f8ea4984621b762c" target="_top" xlink:title="Registers callbacks to the attribute store and rules to the attribute resolver to be able to resolve ...">
<polygon fill="none" stroke="black" points="186,-0.5 186,-30.5 308,-30.5 308,-0.5 186,-0.5"/>
<text text-anchor="start" x="194" y="-18.5" font-family="Helvetica,sans-Serif" font-size="10.00">zwave_command_class</text>
<text text-anchor="middle" x="247" y="-7.5" font-family="Helvetica,sans-Serif" font-size="10.00">_node_info_resolver_init</text>
</a>
</g>
</g>
<!-- Node2&#45;&gt;Node3 -->
<g id="edge2" class="edge">
<title>Node2&#45;&gt;Node3</title>
<path fill="none" stroke="midnightblue" d="M333.71,-15.5C325.26,-15.5 316.52,-15.5 308.01,-15.5"/>
<polygon fill="midnightblue" stroke="midnightblue" points="333.84,-19 343.84,-15.5 333.84,-12 333.84,-19"/>
</g>
<!-- Node4 -->
<g id="node4" class="node">
<title>Node4</title>
<g id="a_node4"><a xlink:href="group__command__classes__fixt.html#ga5272651939ced1723158340039e8da19" target="_top" xlink:title="Setup fixture for Z&#45;Wave Command Classes.">
<polygon fill="none" stroke="black" points="0,-6 0,-25 150,-25 150,-6 0,-6"/>
<text text-anchor="middle" x="75" y="-13" font-family="Helvetica,sans-Serif" font-size="10.00">zwave_command_classes_init</text>
</a>
</g>
</g>
<!-- Node3&#45;&gt;Node4 -->
<g id="edge3" class="edge">
<title>Node3&#45;&gt;Node4</title>
<path fill="none" stroke="midnightblue" d="M175.51,-15.5C167.16,-15.5 158.61,-15.5 150.21,-15.5"/>
<polygon fill="midnightblue" stroke="midnightblue" points="175.59,-19 185.59,-15.5 175.59,-12 175.59,-19"/>
</g>
</g>
</svg>
