<?xml version="1.0" encoding="UTF-8" standalone="no"?>
<!DOCTYPE svg PUBLIC "-//W3C//DTD SVG 1.1//EN"
 "http://www.w3.org/Graphics/SVG/1.1/DTD/svg11.dtd">
<!-- Generated by graphviz version 2.43.0 (0)
 -->
<!-- Title: UCL MQTT Pages: 1 -->
<svg width="246pt" height="124pt"
 viewBox="0.00 0.00 246.00 124.00" xmlns="http://www.w3.org/2000/svg" xmlns:xlink="http://www.w3.org/1999/xlink">
<g id="graph0" class="graph" transform="scale(1 1) rotate(0) translate(4 120)">
<title>UCL MQTT</title>
<!-- Node1 -->
<g id="node1" class="node">
<title>Node1</title>
<g id="a_node1"><a xlink:title="Component interfacing between UCL states/commands and MQTT.">
<polygon fill="#bfbfbf" stroke="black" points="67,-67.5 0,-67.5 0,-48.5 67,-48.5 67,-67.5"/>
<text text-anchor="middle" x="33.5" y="-55.5" font-family="Helvetica,sans-Serif" font-size="10.00">UCL MQTT</text>
</a>
</g>
</g>
<!-- Node2 -->
<g id="node2" class="node">
<title>Node2</title>
<g id="a_node2"><a xlink:href="group__ucl__mqtt__node__interview.html" target="_top" xlink:title="This submodule provides APIs to initiate a node re&#45;interview *.">
<polygon fill="none" stroke="black" points="237.5,-116 103.5,-116 103.5,-86 237.5,-86 237.5,-116"/>
<text text-anchor="start" x="111.5" y="-104" font-family="Helvetica,sans-Serif" font-size="10.00">UCL MQTT Node/Endpoint</text>
<text text-anchor="middle" x="170.5" y="-93" font-family="Helvetica,sans-Serif" font-size="10.00"> interview</text>
</a>
</g>
</g>
<!-- Node1&#45;&gt;Node2 -->
<g id="edge1" class="edge">
<title>Node1&#45;&gt;Node2</title>
<path fill="none" stroke="black" d="M74.04,-70.59C89.18,-75.42 106.61,-80.97 122.39,-85.99"/>
<polygon fill="black" stroke="black" points="75.05,-67.24 64.46,-67.54 72.93,-73.91 75.05,-67.24"/>
</g>
<!-- Node3 -->
<g id="node3" class="node">
<title>Node3</title>
<g id="a_node3"><a xlink:href="group__ucl__network__management.html" target="_top" xlink:title="Handle ucl/by&#45;unid/&lt;node&gt;/ProtocolController/NetworkManagement topic.">
<polygon fill="none" stroke="black" points="238,-67.5 103,-67.5 103,-48.5 238,-48.5 238,-67.5"/>
<text text-anchor="middle" x="170.5" y="-55.5" font-family="Helvetica,sans-Serif" font-size="10.00">UCL Network Management</text>
</a>
</g>
</g>
<!-- Node1&#45;&gt;Node3 -->
<g id="edge2" class="edge">
<title>Node1&#45;&gt;Node3</title>
<path fill="none" stroke="black" d="M77.23,-58C85.44,-58 94.22,-58 102.98,-58"/>
<polygon fill="black" stroke="black" points="77.18,-54.5 67.18,-58 77.18,-61.5 77.18,-54.5"/>
</g>
<!-- Node4 -->
<g id="node4" class="node">
<title>Node4</title>
<g id="a_node4"><a xlink:href="group__ucl__nm__neighbor__discovery.html" target="_top" xlink:title="This submodule provides APIs to trigger a node neighbor discovery.">
<polygon fill="none" stroke="black" points="238,-30 103,-30 103,0 238,0 238,-30"/>
<text text-anchor="start" x="111" y="-18" font-family="Helvetica,sans-Serif" font-size="10.00">UCL Network Management</text>
<text text-anchor="middle" x="170.5" y="-7" font-family="Helvetica,sans-Serif" font-size="10.00"> Node Neighbor Discovery</text>
</a>
</g>
</g>
<!-- Node1&#45;&gt;Node4 -->
<g id="edge3" class="edge">
<title>Node1&#45;&gt;Node4</title>
<path fill="none" stroke="black" d="M74.04,-45.41C89.18,-40.58 106.61,-35.03 122.39,-30.01"/>
<polygon fill="black" stroke="black" points="72.93,-42.09 64.46,-48.46 75.05,-48.76 72.93,-42.09"/>
</g>
</g>
</svg>
