<?xml version="1.0" encoding="UTF-8" standalone="no"?>
<!DOCTYPE svg PUBLIC "-//W3C//DTD SVG 1.1//EN"
 "http://www.w3.org/Graphics/SVG/1.1/DTD/svg11.dtd">
<!-- Generated by graphviz version 2.43.0 (0)
 -->
<!-- Title: zwave_s0_send_data Pages: 1 -->
<svg width="867pt" height="294pt"
 viewBox="0.00 0.00 867.00 294.00" xmlns="http://www.w3.org/2000/svg" xmlns:xlink="http://www.w3.org/1999/xlink">
<g id="graph0" class="graph" transform="scale(1 1) rotate(0) translate(4 290)">
<title>zwave_s0_send_data</title>
<!-- Node1 -->
<g id="node1" class="node">
<title>Node1</title>
<g id="a_node1"><a xlink:title="Sending an S0 encapsulated frame.">
<polygon fill="#bfbfbf" stroke="black" points="0,-151.5 0,-170.5 111,-170.5 111,-151.5 0,-151.5"/>
<text text-anchor="middle" x="55.5" y="-158.5" font-family="Helvetica,sans-Serif" font-size="10.00">zwave_s0_send_data</text>
</a>
</g>
</g>
<!-- Node2 -->
<g id="node2" class="node">
<title>Node2</title>
<g id="a_node2"><a xlink:href="zwave__s0__transport_8c.html#ac0f595613ded622cf74daf3471ad1257" target="_top" xlink:title=" ">
<polygon fill="none" stroke="black" points="184,-189.5 184,-208.5 235,-208.5 235,-189.5 184,-189.5"/>
<text text-anchor="middle" x="209.5" y="-196.5" font-family="Helvetica,sans-Serif" font-size="10.00">get_seq</text>
</a>
</g>
</g>
<!-- Node1&#45;&gt;Node2 -->
<g id="edge1" class="edge">
<title>Node1&#45;&gt;Node2</title>
<path fill="none" stroke="midnightblue" d="M94.86,-170.59C119.22,-176.68 150.48,-184.5 174.05,-190.39"/>
<polygon fill="midnightblue" stroke="midnightblue" points="173.41,-193.84 183.96,-192.87 175.11,-187.04 173.41,-193.84"/>
</g>
<!-- Node3 -->
<g id="node3" class="node">
<title>Node3</title>
<g id="a_node3"><a xlink:href="zwave__s0__transport_8c.html#ae93eb9dcc0a79cf781c4d6143ae54570" target="_top" xlink:title=" ">
<polygon fill="none" stroke="black" points="147,-151.5 147,-170.5 272,-170.5 272,-151.5 147,-151.5"/>
<text text-anchor="middle" x="209.5" y="-158.5" font-family="Helvetica,sans-Serif" font-size="10.00">get_tx_session_by_node</text>
</a>
</g>
</g>
<!-- Node1&#45;&gt;Node3 -->
<g id="edge2" class="edge">
<title>Node1&#45;&gt;Node3</title>
<path fill="none" stroke="midnightblue" d="M111.38,-161C119.54,-161 128.05,-161 136.5,-161"/>
<polygon fill="midnightblue" stroke="midnightblue" points="136.74,-164.5 146.74,-161 136.74,-157.5 136.74,-164.5"/>
</g>
<!-- Node4 -->
<g id="node4" class="node">
<title>Node4</title>
<g id="a_node4"><a xlink:href="zwave__s0__transport_8c.html#ab8425b35b3d704f2108b438158fad2f1" target="_top" xlink:title="Move a S0 Tx Session state to a new state.">
<polygon fill="none" stroke="black" points="154.5,-95.5 154.5,-114.5 264.5,-114.5 264.5,-95.5 154.5,-95.5"/>
<text text-anchor="middle" x="209.5" y="-102.5" font-family="Helvetica,sans-Serif" font-size="10.00">tx_session_state_set</text>
</a>
</g>
</g>
<!-- Node1&#45;&gt;Node4 -->
<g id="edge3" class="edge">
<title>Node1&#45;&gt;Node4</title>
<path fill="none" stroke="midnightblue" d="M82.63,-151.37C107.58,-142.18 145.36,-128.26 173.02,-118.07"/>
<polygon fill="midnightblue" stroke="midnightblue" points="174.54,-121.24 182.71,-114.5 172.12,-114.67 174.54,-121.24"/>
</g>
<!-- Node4&#45;&gt;Node4 -->
<g id="edge24" class="edge">
<title>Node4&#45;&gt;Node4</title>
<path fill="none" stroke="midnightblue" d="M185.76,-114.76C174.22,-123.57 182.13,-133 209.5,-133 227.46,-133 237.04,-128.94 238.25,-123.65"/>
<polygon fill="midnightblue" stroke="midnightblue" points="241.19,-121.75 233.24,-114.76 235.09,-125.19 241.19,-121.75"/>
</g>
<!-- Node5 -->
<g id="node5" class="node">
<title>Node5</title>
<g id="a_node5"><a xlink:href="zwave__s0__transport_8c.html#a800e1cc61a01bde0fe6d9a3eddb91b5e" target="_top" xlink:title="Z&#45;Wave Tx Send data callback function.">
<polygon fill="none" stroke="black" points="339,-190.5 339,-209.5 392,-209.5 392,-190.5 339,-190.5"/>
<text text-anchor="middle" x="365.5" y="-197.5" font-family="Helvetica,sans-Serif" font-size="10.00">callback</text>
</a>
</g>
</g>
<!-- Node4&#45;&gt;Node5 -->
<g id="edge4" class="edge">
<title>Node4&#45;&gt;Node5</title>
<path fill="none" stroke="midnightblue" d="M244.85,-114.67C254.02,-119.84 263.69,-126.23 272,-133 290.29,-147.9 288.2,-159.17 308,-172 318.14,-178.57 330.77,-183.1 341.52,-186.93"/>
<polygon fill="midnightblue" stroke="midnightblue" points="340.52,-190.29 351.11,-190.44 342.92,-183.72 340.52,-190.29"/>
</g>
<!-- Node6 -->
<g id="node6" class="node">
<title>Node6</title>
<g id="a_node6"><a xlink:href="zwave__s0__transport_8c.html#a395227710e5a6b32c1c55b6a389384b3" target="_top" xlink:title="Resets the data from the previous S0 Tx Session.">
<polygon fill="none" stroke="black" points="308,-152.5 308,-171.5 423,-171.5 423,-152.5 308,-152.5"/>
<text text-anchor="middle" x="365.5" y="-159.5" font-family="Helvetica,sans-Serif" font-size="10.00">reset_tx_session_data</text>
</a>
</g>
</g>
<!-- Node4&#45;&gt;Node6 -->
<g id="edge6" class="edge">
<title>Node4&#45;&gt;Node6</title>
<path fill="none" stroke="midnightblue" d="M234.02,-114.53C253.7,-122.41 282.55,-133.77 308,-143 313.67,-145.06 319.69,-147.16 325.6,-149.19"/>
<polygon fill="midnightblue" stroke="midnightblue" points="324.78,-152.61 335.38,-152.5 327.03,-145.98 324.78,-152.61"/>
</g>
<!-- Node7 -->
<g id="node7" class="node">
<title>Node7</title>
<g id="a_node7"><a xlink:href="zwave__s0__transport_8c.html#abfe0a749d5d321ae13b810ea1043d90f" target="_top" xlink:title=" ">
<polygon fill="none" stroke="black" points="310.5,-114.5 310.5,-133.5 420.5,-133.5 420.5,-114.5 310.5,-114.5"/>
<text text-anchor="middle" x="365.5" y="-121.5" font-family="Helvetica,sans-Serif" font-size="10.00">s0_encrypt_message</text>
</a>
</g>
</g>
<!-- Node4&#45;&gt;Node7 -->
<g id="edge7" class="edge">
<title>Node4&#45;&gt;Node7</title>
<path fill="none" stroke="midnightblue" d="M264.79,-111.7C276.25,-113.11 288.44,-114.62 300.22,-116.07"/>
<polygon fill="midnightblue" stroke="midnightblue" points="300.08,-119.58 310.44,-117.33 300.94,-112.63 300.08,-119.58"/>
</g>
<!-- Node18 -->
<g id="node18" class="node">
<title>Node18</title>
<g id="a_node18"><a xlink:href="zwave__s0__transport_8c.html#ae58733ec136a4bb85e6a2b7ea6aef6bb" target="_top" xlink:title=" ">
<polygon fill="none" stroke="black" points="484.5,-0.5 484.5,-19.5 567.5,-19.5 567.5,-0.5 484.5,-0.5"/>
<text text-anchor="middle" x="526" y="-7.5" font-family="Helvetica,sans-Serif" font-size="10.00">s0_state_name</text>
</a>
</g>
</g>
<!-- Node4&#45;&gt;Node18 -->
<g id="edge20" class="edge">
<title>Node4&#45;&gt;Node18</title>
<path fill="none" stroke="midnightblue" d="M264.63,-104.55C309.5,-102.09 373.69,-93.6 423,-67 443.48,-55.96 439.12,-41.09 459,-29 463.96,-25.98 469.42,-23.43 475.01,-21.27"/>
<polygon fill="midnightblue" stroke="midnightblue" points="476.18,-24.57 484.48,-17.99 473.89,-17.95 476.18,-24.57"/>
</g>
<!-- Node19 -->
<g id="node19" class="node">
<title>Node19</title>
<g id="a_node19"><a xlink:href="zwave__s0__transport_8c.html#adb0e729c11b7fdb81d7c2f776453e8ab" target="_top" xlink:title=" ">
<polygon fill="none" stroke="black" points="333,-38.5 333,-57.5 398,-57.5 398,-38.5 333,-38.5"/>
<text text-anchor="middle" x="365.5" y="-45.5" font-family="Helvetica,sans-Serif" font-size="10.00">s0_timeout</text>
</a>
</g>
</g>
<!-- Node4&#45;&gt;Node19 -->
<g id="edge21" class="edge">
<title>Node4&#45;&gt;Node19</title>
<path fill="none" stroke="midnightblue" d="M224.99,-95.49C247.24,-84.62 290.68,-67.91 323.2,-57.23"/>
<polygon fill="midnightblue" stroke="midnightblue" points="324.46,-60.5 332.91,-54.12 322.32,-53.83 324.46,-60.5"/>
</g>
<!-- Node20 -->
<g id="node20" class="node">
<title>Node20</title>
<g id="a_node20"><a xlink:href="group__zwave__tx.html#gad1538f36d226fe8147c5e538625568df" target="_top" xlink:title="Queue and send frames to Z&#45;Wave nodes.">
<polygon fill="none" stroke="black" points="311,-0.5 311,-19.5 420,-19.5 420,-0.5 311,-0.5"/>
<text text-anchor="middle" x="365.5" y="-7.5" font-family="Helvetica,sans-Serif" font-size="10.00">zwave_tx_send_data</text>
</a>
</g>
</g>
<!-- Node4&#45;&gt;Node20 -->
<g id="edge25" class="edge">
<title>Node4&#45;&gt;Node20</title>
<path fill="none" stroke="midnightblue" d="M220.5,-95.3C237.3,-79.46 272.84,-47.9 308,-29 311.95,-26.88 316.19,-24.93 320.49,-23.15"/>
<polygon fill="midnightblue" stroke="midnightblue" points="321.86,-26.38 329.96,-19.55 319.37,-19.84 321.86,-26.38"/>
</g>
<!-- Node5&#45;&gt;Node4 -->
<g id="edge5" class="edge">
<title>Node5&#45;&gt;Node4</title>
<path fill="none" stroke="midnightblue" d="M338.8,-202.64C328.69,-200.33 317.29,-196.02 308,-190 288.2,-177.17 290.29,-165.9 272,-151 257.85,-139.48 239.76,-129.03 226.87,-120.51"/>
<polygon fill="midnightblue" stroke="midnightblue" points="228.73,-117.54 218.54,-114.66 224.71,-123.27 228.73,-117.54"/>
</g>
<!-- Node8 -->
<g id="node8" class="node">
<title>Node8</title>
<g id="a_node8"><a xlink:href="zwave__s0__transport_8c.html#a09886e580f2471de3c1ebe56fabd6891" target="_top" xlink:title=" ">
<polygon fill="none" stroke="black" points="487.5,-266.5 487.5,-285.5 564.5,-285.5 564.5,-266.5 487.5,-266.5"/>
<text text-anchor="middle" x="526" y="-273.5" font-family="Helvetica,sans-Serif" font-size="10.00">aes_cbc_mac</text>
</a>
</g>
</g>
<!-- Node7&#45;&gt;Node8 -->
<g id="edge8" class="edge">
<title>Node7&#45;&gt;Node8</title>
<path fill="none" stroke="midnightblue" d="M409.49,-133.51C414.48,-135.98 419.16,-139.09 423,-143 460.22,-180.92 420.95,-219.91 459,-257 464.28,-262.15 470.87,-265.92 477.82,-268.68"/>
<polygon fill="midnightblue" stroke="midnightblue" points="476.84,-272.04 487.43,-271.84 479.03,-265.39 476.84,-272.04"/>
</g>
<!-- Node10 -->
<g id="node10" class="node">
<title>Node10</title>
<g id="a_node10"><a xlink:href="zwave__s0__transport_8c.html#a64c4a69fb8c2e230b1437142e84c3c62" target="_top" xlink:title=" ">
<polygon fill="none" stroke="black" points="500.5,-228.5 500.5,-247.5 551.5,-247.5 551.5,-228.5 500.5,-228.5"/>
<text text-anchor="middle" x="526" y="-235.5" font-family="Helvetica,sans-Serif" font-size="10.00">aes_ofb</text>
</a>
</g>
</g>
<!-- Node7&#45;&gt;Node10 -->
<g id="edge10" class="edge">
<title>Node7&#45;&gt;Node10</title>
<path fill="none" stroke="midnightblue" d="M408.14,-133.62C413.53,-136.08 418.67,-139.15 423,-143 450.94,-167.82 430.52,-194.8 459,-219 467.83,-226.51 479.48,-231.05 490.53,-233.8"/>
<polygon fill="midnightblue" stroke="midnightblue" points="489.9,-237.25 500.4,-235.86 491.33,-230.4 489.9,-237.25"/>
</g>
<!-- Node11 -->
<g id="node11" class="node">
<title>Node11</title>
<g id="a_node11"><a xlink:href="zwave__s0__transport_8c.html#aa131994ce2700672584c8e7eb43abbcf" target="_top" xlink:title=" ">
<polygon fill="none" stroke="black" points="481.5,-190.5 481.5,-209.5 570.5,-209.5 570.5,-190.5 481.5,-190.5"/>
<text text-anchor="middle" x="526" y="-197.5" font-family="Helvetica,sans-Serif" font-size="10.00">aes_set_key_tpt</text>
</a>
</g>
</g>
<!-- Node7&#45;&gt;Node11 -->
<g id="edge12" class="edge">
<title>Node7&#45;&gt;Node11</title>
<path fill="none" stroke="midnightblue" d="M403.56,-133.56C410.3,-136.1 417.07,-139.21 423,-143 442.61,-155.52 439.12,-168.91 459,-181 463.05,-183.46 467.44,-185.62 471.96,-187.51"/>
<polygon fill="midnightblue" stroke="midnightblue" points="470.76,-190.8 481.36,-191.01 473.21,-184.24 470.76,-190.8"/>
</g>
<!-- Node12 -->
<g id="node12" class="node">
<title>Node12</title>
<g id="a_node12"><a xlink:href="zwave__s0__transport_8c.html#aeb22afea5af0dc149f03d08edb74a44a" target="_top" xlink:title=" ">
<polygon fill="none" stroke="black" points="459,-152.5 459,-171.5 593,-171.5 593,-152.5 459,-152.5"/>
<text text-anchor="middle" x="526" y="-159.5" font-family="Helvetica,sans-Serif" font-size="10.00">get_node_max_frame_size</text>
</a>
</g>
</g>
<!-- Node7&#45;&gt;Node12 -->
<g id="edge13" class="edge">
<title>Node7&#45;&gt;Node12</title>
<path fill="none" stroke="midnightblue" d="M406.5,-133.59C427.41,-138.6 453.21,-144.79 475.39,-150.11"/>
<polygon fill="midnightblue" stroke="midnightblue" points="474.75,-153.55 485.29,-152.48 476.38,-146.74 474.75,-153.55"/>
</g>
<!-- Node13 -->
<g id="node13" class="node">
<title>Node13</title>
<g id="a_node13"><a xlink:href="zwave__s0__transport_8c.html#ade289797a519efdfbcbb8176339c60f3" target="_top" xlink:title=" ">
<polygon fill="none" stroke="black" points="487.5,-114.5 487.5,-133.5 564.5,-133.5 564.5,-114.5 487.5,-114.5"/>
<text text-anchor="middle" x="526" y="-121.5" font-family="Helvetica,sans-Serif" font-size="10.00">get_s0_nonce</text>
</a>
</g>
</g>
<!-- Node7&#45;&gt;Node13 -->
<g id="edge14" class="edge">
<title>Node7&#45;&gt;Node13</title>
<path fill="none" stroke="midnightblue" d="M420.6,-124C438.9,-124 459.18,-124 476.97,-124"/>
<polygon fill="midnightblue" stroke="midnightblue" points="477.12,-127.5 487.12,-124 477.12,-120.5 477.12,-127.5"/>
</g>
<!-- Node14 -->
<g id="node14" class="node">
<title>Node14</title>
<g id="a_node14"><a xlink:href="zwave__s0__transport_8c.html#a9944c78203e0b476f5cd80bca6dd76d1" target="_top" xlink:title=" ">
<polygon fill="none" stroke="black" points="491.5,-76.5 491.5,-95.5 560.5,-95.5 560.5,-76.5 491.5,-76.5"/>
<text text-anchor="middle" x="526" y="-83.5" font-family="Helvetica,sans-Serif" font-size="10.00">nonce_clear</text>
</a>
</g>
</g>
<!-- Node7&#45;&gt;Node14 -->
<g id="edge15" class="edge">
<title>Node7&#45;&gt;Node14</title>
<path fill="none" stroke="midnightblue" d="M406.5,-114.41C429.34,-108.93 458.01,-102.06 481.43,-96.45"/>
<polygon fill="midnightblue" stroke="midnightblue" points="482.54,-99.78 491.45,-94.04 480.91,-92.97 482.54,-99.78"/>
</g>
<!-- Node15 -->
<g id="node15" class="node">
<title>Node15</title>
<g id="a_node15"><a xlink:href="zwave__s0__transport_8c.html#a804b1de1ad94923895000f9f239341e0" target="_top" xlink:title=" ">
<polygon fill="none" stroke="black" points="486,-38.5 486,-57.5 566,-57.5 566,-38.5 486,-38.5"/>
<text text-anchor="middle" x="526" y="-45.5" font-family="Helvetica,sans-Serif" font-size="10.00">register_nonce</text>
</a>
</g>
</g>
<!-- Node7&#45;&gt;Node15 -->
<g id="edge16" class="edge">
<title>Node7&#45;&gt;Node15</title>
<path fill="none" stroke="midnightblue" d="M394.18,-114.43C403.67,-110.59 414.13,-105.71 423,-100 441.25,-88.25 440.07,-77.62 459,-67 464.26,-64.05 470.02,-61.52 475.88,-59.37"/>
<polygon fill="midnightblue" stroke="midnightblue" points="477.37,-62.56 485.76,-56.08 475.17,-55.92 477.37,-62.56"/>
</g>
<!-- Node9 -->
<g id="node9" class="node">
<title>Node9</title>
<g id="a_node9"><a xlink:href="zwave__s0__transport_8c.html#a81a1edfa8dd156b07bbe49d8c85095bf" target="_top" xlink:title=" ">
<polygon fill="none" stroke="black" points="637.5,-247.5 637.5,-266.5 707.5,-266.5 707.5,-247.5 637.5,-247.5"/>
<text text-anchor="middle" x="672.5" y="-254.5" font-family="Helvetica,sans-Serif" font-size="10.00">aes_encrypt</text>
</a>
</g>
</g>
<!-- Node8&#45;&gt;Node9 -->
<g id="edge9" class="edge">
<title>Node8&#45;&gt;Node9</title>
<path fill="none" stroke="midnightblue" d="M564.59,-271.06C583.67,-268.55 606.99,-265.48 626.97,-262.86"/>
<polygon fill="midnightblue" stroke="midnightblue" points="627.61,-266.3 637.07,-261.53 626.7,-259.36 627.61,-266.3"/>
</g>
<!-- Node10&#45;&gt;Node9 -->
<g id="edge11" class="edge">
<title>Node10&#45;&gt;Node9</title>
<path fill="none" stroke="midnightblue" d="M551.51,-241.22C572.25,-243.95 602.48,-247.92 627.41,-251.2"/>
<polygon fill="midnightblue" stroke="midnightblue" points="627,-254.68 637.37,-252.51 627.91,-247.74 627,-254.68"/>
</g>
<!-- Node16 -->
<g id="node16" class="node">
<title>Node16</title>
<g id="a_node16"><a xlink:href="zwave__s0__transport_8c.html#aed7c30c1d59e44aab5ba91ad6e78d447" target="_top" xlink:title=" ">
<polygon fill="none" stroke="black" points="629,-38.5 629,-57.5 716,-57.5 716,-38.5 629,-38.5"/>
<text text-anchor="middle" x="672.5" y="-45.5" font-family="Helvetica,sans-Serif" font-size="10.00">restart_s0_timer</text>
</a>
</g>
</g>
<!-- Node15&#45;&gt;Node16 -->
<g id="edge17" class="edge">
<title>Node15&#45;&gt;Node16</title>
<path fill="none" stroke="midnightblue" d="M566.1,-48C582.31,-48 601.37,-48 618.78,-48"/>
<polygon fill="midnightblue" stroke="midnightblue" points="618.81,-51.5 628.81,-48 618.81,-44.5 618.81,-51.5"/>
</g>
<!-- Node17 -->
<g id="node17" class="node">
<title>Node17</title>
<g id="a_node17"><a xlink:href="zwave__s0__transport_8c.html#a23cc9cf50d02cdaa152e984177674bf9" target="_top" xlink:title=" ">
<polygon fill="none" stroke="black" points="752,-38.5 752,-57.5 859,-57.5 859,-38.5 752,-38.5"/>
<text text-anchor="middle" x="805.5" y="-45.5" font-family="Helvetica,sans-Serif" font-size="10.00">nonce_timer_timeout</text>
</a>
</g>
</g>
<!-- Node16&#45;&gt;Node17 -->
<g id="edge18" class="edge">
<title>Node16&#45;&gt;Node17</title>
<path fill="none" stroke="midnightblue" d="M716.03,-48C724.19,-48 732.9,-48 741.55,-48"/>
<polygon fill="midnightblue" stroke="midnightblue" points="741.64,-51.5 751.64,-48 741.64,-44.5 741.64,-51.5"/>
</g>
<!-- Node17&#45;&gt;Node17 -->
<g id="edge19" class="edge">
<title>Node17&#45;&gt;Node17</title>
<path fill="none" stroke="midnightblue" d="M785.15,-57.76C775.26,-66.57 782.04,-76 805.5,-76 820.53,-76 828.71,-72.13 830.05,-67.03"/>
<polygon fill="midnightblue" stroke="midnightblue" points="833.17,-65.42 825.85,-57.76 826.79,-68.31 833.17,-65.42"/>
</g>
<!-- Node19&#45;&gt;Node4 -->
<g id="edge23" class="edge">
<title>Node19&#45;&gt;Node4</title>
<path fill="none" stroke="midnightblue" d="M349.69,-57.66C329.77,-67.35 293.3,-81.6 262.69,-92.11"/>
<polygon fill="midnightblue" stroke="midnightblue" points="261.35,-88.87 252.99,-95.38 263.58,-95.5 261.35,-88.87"/>
</g>
<!-- Node19&#45;&gt;Node18 -->
<g id="edge22" class="edge">
<title>Node19&#45;&gt;Node18</title>
<path fill="none" stroke="midnightblue" d="M398.19,-40.4C420.29,-35.11 450.2,-27.93 475.43,-21.88"/>
<polygon fill="midnightblue" stroke="midnightblue" points="476.29,-25.28 485.2,-19.54 474.66,-18.47 476.29,-25.28"/>
</g>
</g>
</svg>
