<?xml version="1.0" encoding="UTF-8" standalone="no"?>
<!DOCTYPE svg PUBLIC "-//W3C//DTD SVG 1.1//EN"
 "http://www.w3.org/Graphics/SVG/1.1/DTD/svg11.dtd">
<!-- Generated by graphviz version 2.43.0 (0)
 -->
<!-- Title: zwave_command_class_crc16_send_data Pages: 1 -->
<svg width="1244pt" height="412pt"
 viewBox="0.00 0.00 1244.00 412.00" xmlns="http://www.w3.org/2000/svg" xmlns:xlink="http://www.w3.org/1999/xlink">
<g id="graph0" class="graph" transform="scale(1 1) rotate(0) translate(4 408)">
<title>zwave_command_class_crc16_send_data</title>
<!-- Node1 -->
<g id="node1" class="node">
<title>Node1</title>
<g id="a_node1"><a xlink:title="Encapsulates with CRC16.">
<polygon fill="#bfbfbf" stroke="black" points="0,-193 0,-223 122,-223 122,-193 0,-193"/>
<text text-anchor="start" x="8" y="-211" font-family="Helvetica,sans-Serif" font-size="10.00">zwave_command_class</text>
<text text-anchor="middle" x="61" y="-200" font-family="Helvetica,sans-Serif" font-size="10.00">_crc16_send_data</text>
</a>
</g>
</g>
<!-- Node2 -->
<g id="node2" class="node">
<title>Node2</title>
<g id="a_node2"><a xlink:href="group__crc16__transport.html#ga58f3082ab876a466d61459f15790e5ee" target="_top" xlink:title="Callback function registered to Z&#45;Wave TX zwave_tx_send_data.">
<polygon fill="none" stroke="black" points="160,-384.5 160,-403.5 288,-403.5 288,-384.5 160,-384.5"/>
<text text-anchor="middle" x="224" y="-391.5" font-family="Helvetica,sans-Serif" font-size="10.00">on_crc16_send_complete</text>
</a>
</g>
</g>
<!-- Node1&#45;&gt;Node2 -->
<g id="edge1" class="edge">
<title>Node1&#45;&gt;Node2</title>
<path fill="none" stroke="midnightblue" d="M66.38,-223.03C76.7,-255.76 105.7,-333.84 158,-375 160.3,-376.81 162.76,-378.44 165.33,-379.92"/>
<polygon fill="midnightblue" stroke="midnightblue" points="163.92,-383.13 174.44,-384.38 167,-376.84 163.92,-383.13"/>
</g>
<!-- Node4 -->
<g id="node4" class="node">
<title>Node4</title>
<g id="a_node4"><a xlink:href="group__zwave__command__class__crc16.html#gaaf3d30f1b1c42961d400392d76635b52" target="_top" xlink:title="Clear the CRC16 expecting response flag for a given node and endpoint.">
<polygon fill="none" stroke="black" points="163,-324.5 163,-365.5 285,-365.5 285,-324.5 163,-324.5"/>
<text text-anchor="start" x="171" y="-353.5" font-family="Helvetica,sans-Serif" font-size="10.00">zwave_command_class</text>
<text text-anchor="start" x="171" y="-342.5" font-family="Helvetica,sans-Serif" font-size="10.00">_crc16_clear_expect</text>
<text text-anchor="middle" x="224" y="-331.5" font-family="Helvetica,sans-Serif" font-size="10.00">_crc16_response</text>
</a>
</g>
</g>
<!-- Node1&#45;&gt;Node4 -->
<g id="edge3" class="edge">
<title>Node1&#45;&gt;Node4</title>
<path fill="none" stroke="midnightblue" d="M72.53,-223.26C88.72,-245.79 121.66,-288.17 158,-315 159.87,-316.38 161.81,-317.72 163.81,-319.01"/>
<polygon fill="midnightblue" stroke="midnightblue" points="162.45,-322.28 172.83,-324.41 166.04,-316.27 162.45,-322.28"/>
</g>
<!-- Node5 -->
<g id="node5" class="node">
<title>Node5</title>
<g id="a_node5"><a xlink:href="group__zwave__command__class__crc16.html#ga641144f7f07fbb32524bb97293eaf344" target="_top" xlink:title="Check if the given node_id and endpoint_id is expecting a CRC16 response.">
<polygon fill="none" stroke="black" points="163,-264.5 163,-305.5 285,-305.5 285,-264.5 163,-264.5"/>
<text text-anchor="start" x="171" y="-293.5" font-family="Helvetica,sans-Serif" font-size="10.00">zwave_command_class</text>
<text text-anchor="start" x="171" y="-282.5" font-family="Helvetica,sans-Serif" font-size="10.00">_crc16_is_expecting</text>
<text text-anchor="middle" x="224" y="-271.5" font-family="Helvetica,sans-Serif" font-size="10.00">_crc16_response</text>
</a>
</g>
</g>
<!-- Node1&#45;&gt;Node5 -->
<g id="edge4" class="edge">
<title>Node1&#45;&gt;Node5</title>
<path fill="none" stroke="midnightblue" d="M92.61,-223.21C111.42,-232.5 136.05,-244.56 158,-255 161.56,-256.69 165.24,-258.43 168.94,-260.17"/>
<polygon fill="midnightblue" stroke="midnightblue" points="167.64,-263.42 178.18,-264.48 170.6,-257.08 167.64,-263.42"/>
</g>
<!-- Node6 -->
<g id="node6" class="node">
<title>Node6</title>
<g id="a_node6"><a xlink:href="group__zwave__command__class__crc16.html#ga1c90ed3e17c6a48d650dd46e4c0f0caa" target="_top" xlink:title="Check if the CRC16 command class is supported by a given node and endpoint.">
<polygon fill="none" stroke="black" points="163,-215 163,-245 285,-245 285,-215 163,-215"/>
<text text-anchor="start" x="171" y="-233" font-family="Helvetica,sans-Serif" font-size="10.00">zwave_command_class</text>
<text text-anchor="middle" x="224" y="-222" font-family="Helvetica,sans-Serif" font-size="10.00">_crc16_is_supported</text>
</a>
</g>
</g>
<!-- Node1&#45;&gt;Node6 -->
<g id="edge5" class="edge">
<title>Node1&#45;&gt;Node6</title>
<path fill="none" stroke="midnightblue" d="M122.41,-216.25C132.31,-217.61 142.65,-219.02 152.77,-220.4"/>
<polygon fill="midnightblue" stroke="midnightblue" points="152.41,-223.89 162.79,-221.77 153.35,-216.95 152.41,-223.89"/>
</g>
<!-- Node7 -->
<g id="node7" class="node">
<title>Node7</title>
<g id="a_node7"><a xlink:href="group__zwave__controller__crc16.html#ga13ba4b98080a23413214afb6886b6eec" target="_top" xlink:title="Calculation of CRC16&#45;CCITT with Polynomial 0x1021 on data.">
<polygon fill="none" stroke="black" points="164.5,-176.5 164.5,-195.5 283.5,-195.5 283.5,-176.5 164.5,-176.5"/>
<text text-anchor="middle" x="224" y="-183.5" font-family="Helvetica,sans-Serif" font-size="10.00">zwave_controller_crc16</text>
</a>
</g>
</g>
<!-- Node1&#45;&gt;Node7 -->
<g id="edge6" class="edge">
<title>Node1&#45;&gt;Node7</title>
<path fill="none" stroke="midnightblue" d="M122.41,-199.75C132.82,-198.32 143.71,-196.83 154.33,-195.38"/>
<polygon fill="midnightblue" stroke="midnightblue" points="154.96,-198.83 164.39,-194.01 154.01,-191.9 154.96,-198.83"/>
</g>
<!-- Node8 -->
<g id="node8" class="node">
<title>Node8</title>
<g id="a_node8"><a xlink:href="zwave__crc16__transport_8c.html#ac74ef60931ee4df805153154f13d6feb" target="_top" xlink:title=" ">
<polygon fill="none" stroke="black" points="165,-127 165,-157 283,-157 283,-127 165,-127"/>
<text text-anchor="start" x="173" y="-145" font-family="Helvetica,sans-Serif" font-size="10.00">zwave_crc16_transport</text>
<text text-anchor="middle" x="224" y="-134" font-family="Helvetica,sans-Serif" font-size="10.00">_start_transmission</text>
</a>
</g>
</g>
<!-- Node1&#45;&gt;Node8 -->
<g id="edge7" class="edge">
<title>Node1&#45;&gt;Node8</title>
<path fill="none" stroke="midnightblue" d="M96.53,-192.89C114.75,-185.01 137.51,-175.31 158,-167 163.04,-164.95 168.32,-162.86 173.59,-160.79"/>
<polygon fill="midnightblue" stroke="midnightblue" points="174.99,-164 183.03,-157.11 172.45,-157.48 174.99,-164"/>
</g>
<!-- Node25 -->
<g id="node25" class="node">
<title>Node25</title>
<g id="a_node25"><a xlink:href="group__zwave__tx.html#gad1538f36d226fe8147c5e538625568df" target="_top" xlink:title="Queue and send frames to Z&#45;Wave nodes.">
<polygon fill="none" stroke="black" points="678,-88.5 678,-107.5 787,-107.5 787,-88.5 678,-88.5"/>
<text text-anchor="middle" x="732.5" y="-95.5" font-family="Helvetica,sans-Serif" font-size="10.00">zwave_tx_send_data</text>
</a>
</g>
</g>
<!-- Node1&#45;&gt;Node25 -->
<g id="edge38" class="edge">
<title>Node1&#45;&gt;Node25</title>
<path fill="none" stroke="midnightblue" d="M72.58,-192.73C88.35,-171.45 120.24,-133.7 158,-118 248.35,-80.44 537.7,-88.74 667.47,-94.64"/>
<polygon fill="midnightblue" stroke="midnightblue" points="667.5,-98.15 677.65,-95.12 667.83,-91.16 667.5,-98.15"/>
</g>
<!-- Node26 -->
<g id="node26" class="node">
<title>Node26</title>
<g id="a_node26"><a xlink:href="group__zwave__utils.html#ga6f7851dd2a96668e3a246c0292607579" target="_top" xlink:title="Get endpoint node associated with the ZWave NodeID and Endpoint ID.">
<polygon fill="none" stroke="black" points="158,-44.5 158,-63.5 290,-63.5 290,-44.5 158,-44.5"/>
<text text-anchor="middle" x="224" y="-51.5" font-family="Helvetica,sans-Serif" font-size="10.00">zwave_get_endpoint_node</text>
</a>
</g>
</g>
<!-- Node1&#45;&gt;Node26 -->
<g id="edge31" class="edge">
<title>Node1&#45;&gt;Node26</title>
<path fill="none" stroke="midnightblue" d="M70.48,-192.74C85.3,-167.25 118.16,-115.7 158,-84 166.17,-77.5 175.98,-72.03 185.46,-67.63"/>
<polygon fill="midnightblue" stroke="midnightblue" points="187.01,-70.77 194.78,-63.57 184.21,-64.35 187.01,-70.77"/>
</g>
<!-- Node3 -->
<g id="node3" class="node">
<title>Node3</title>
<g id="a_node3"><a xlink:href="zwave__crc16__transport_8c.html#a0ed4a2b2d10e1b29b1b29df0c53dbd4d" target="_top" xlink:title="Initializes our array of callback settings by setting everything to NULL.">
<polygon fill="none" stroke="black" points="329.5,-384.5 329.5,-403.5 457.5,-403.5 457.5,-384.5 329.5,-384.5"/>
<text text-anchor="middle" x="393.5" y="-391.5" font-family="Helvetica,sans-Serif" font-size="10.00">reset_send_data_settings</text>
</a>
</g>
</g>
<!-- Node2&#45;&gt;Node3 -->
<g id="edge2" class="edge">
<title>Node2&#45;&gt;Node3</title>
<path fill="none" stroke="midnightblue" d="M288.32,-394C298.4,-394 308.89,-394 319.18,-394"/>
<polygon fill="midnightblue" stroke="midnightblue" points="319.36,-397.5 329.36,-394 319.36,-390.5 319.36,-397.5"/>
</g>
<!-- Node9 -->
<g id="node9" class="node">
<title>Node9</title>
<g id="a_node9"><a xlink:href="zwave__s0__transport_8c.html#a800e1cc61a01bde0fe6d9a3eddb91b5e" target="_top" xlink:title="Z&#45;Wave Tx Send data callback function.">
<polygon fill="none" stroke="black" points="367,-132.5 367,-151.5 420,-151.5 420,-132.5 367,-132.5"/>
<text text-anchor="middle" x="393.5" y="-139.5" font-family="Helvetica,sans-Serif" font-size="10.00">callback</text>
</a>
</g>
</g>
<!-- Node8&#45;&gt;Node9 -->
<g id="edge8" class="edge">
<title>Node8&#45;&gt;Node9</title>
<path fill="none" stroke="midnightblue" d="M283.11,-142C307.52,-142 335.15,-142 356.53,-142"/>
<polygon fill="midnightblue" stroke="midnightblue" points="356.79,-145.5 366.79,-142 356.79,-138.5 356.79,-145.5"/>
</g>
<!-- Node10 -->
<g id="node10" class="node">
<title>Node10</title>
<g id="a_node10"><a xlink:href="zwave__s0__transport_8c.html#ab8425b35b3d704f2108b438158fad2f1" target="_top" xlink:title="Move a S0 Tx Session state to a new state.">
<polygon fill="none" stroke="black" points="508,-132.5 508,-151.5 618,-151.5 618,-132.5 508,-132.5"/>
<text text-anchor="middle" x="563" y="-139.5" font-family="Helvetica,sans-Serif" font-size="10.00">tx_session_state_set</text>
</a>
</g>
</g>
<!-- Node9&#45;&gt;Node10 -->
<g id="edge9" class="edge">
<title>Node9&#45;&gt;Node10</title>
<path fill="none" stroke="midnightblue" d="M420.3,-136.96C440.89,-135.47 470.64,-134.95 497.57,-135.41"/>
<polygon fill="midnightblue" stroke="midnightblue" points="497.66,-138.91 507.73,-135.64 497.81,-131.92 497.66,-138.91"/>
</g>
<!-- Node10&#45;&gt;Node9 -->
<g id="edge10" class="edge">
<title>Node10&#45;&gt;Node9</title>
<path fill="none" stroke="midnightblue" d="M507.73,-148.36C482.4,-149.05 452.95,-148.82 430.44,-147.66"/>
<polygon fill="midnightblue" stroke="midnightblue" points="430.5,-144.15 420.3,-147.04 430.07,-151.14 430.5,-144.15"/>
</g>
<!-- Node10&#45;&gt;Node10 -->
<g id="edge29" class="edge">
<title>Node10&#45;&gt;Node10</title>
<path fill="none" stroke="midnightblue" d="M537.11,-151.76C524.51,-160.57 533.14,-170 563,-170 583.06,-170 593.54,-165.74 594.44,-160.27"/>
<polygon fill="midnightblue" stroke="midnightblue" points="597.28,-158.23 588.89,-151.76 591.42,-162.05 597.28,-158.23"/>
</g>
<!-- Node11 -->
<g id="node11" class="node">
<title>Node11</title>
<g id="a_node11"><a xlink:href="zwave__s0__transport_8c.html#a395227710e5a6b32c1c55b6a389384b3" target="_top" xlink:title="Resets the data from the previous S0 Tx Session.">
<polygon fill="none" stroke="black" points="675,-259.5 675,-278.5 790,-278.5 790,-259.5 675,-259.5"/>
<text text-anchor="middle" x="732.5" y="-266.5" font-family="Helvetica,sans-Serif" font-size="10.00">reset_tx_session_data</text>
</a>
</g>
</g>
<!-- Node10&#45;&gt;Node11 -->
<g id="edge11" class="edge">
<title>Node10&#45;&gt;Node11</title>
<path fill="none" stroke="midnightblue" d="M570.31,-151.72C584.56,-172.88 621.41,-223.36 665,-250 668.57,-252.18 672.41,-254.13 676.36,-255.85"/>
<polygon fill="midnightblue" stroke="midnightblue" points="675.17,-259.14 685.76,-259.49 677.7,-252.61 675.17,-259.14"/>
</g>
<!-- Node12 -->
<g id="node12" class="node">
<title>Node12</title>
<g id="a_node12"><a xlink:href="zwave__s0__transport_8c.html#abfe0a749d5d321ae13b810ea1043d90f" target="_top" xlink:title=" ">
<polygon fill="none" stroke="black" points="677.5,-221.5 677.5,-240.5 787.5,-240.5 787.5,-221.5 677.5,-221.5"/>
<text text-anchor="middle" x="732.5" y="-228.5" font-family="Helvetica,sans-Serif" font-size="10.00">s0_encrypt_message</text>
</a>
</g>
</g>
<!-- Node10&#45;&gt;Node12 -->
<g id="edge12" class="edge">
<title>Node10&#45;&gt;Node12</title>
<path fill="none" stroke="midnightblue" d="M581.93,-151.52C611.32,-167.14 669.93,-198.28 704.41,-216.61"/>
<polygon fill="midnightblue" stroke="midnightblue" points="702.98,-219.81 713.45,-221.41 706.26,-213.63 702.98,-219.81"/>
</g>
<!-- Node23 -->
<g id="node23" class="node">
<title>Node23</title>
<g id="a_node23"><a xlink:href="zwave__s0__transport_8c.html#ae58733ec136a4bb85e6a2b7ea6aef6bb" target="_top" xlink:title=" ">
<polygon fill="none" stroke="black" points="861.5,-107.5 861.5,-126.5 944.5,-126.5 944.5,-107.5 861.5,-107.5"/>
<text text-anchor="middle" x="903" y="-114.5" font-family="Helvetica,sans-Serif" font-size="10.00">s0_state_name</text>
</a>
</g>
</g>
<!-- Node10&#45;&gt;Node23 -->
<g id="edge25" class="edge">
<title>Node10&#45;&gt;Node23</title>
<path fill="none" stroke="midnightblue" d="M605.19,-151.51C652.84,-160.86 733.28,-171.53 800,-155 817.56,-150.65 819.22,-142.76 836,-136 841.81,-133.66 848.01,-131.48 854.2,-129.5"/>
<polygon fill="midnightblue" stroke="midnightblue" points="855.32,-132.81 863.85,-126.54 853.27,-126.12 855.32,-132.81"/>
</g>
<!-- Node24 -->
<g id="node24" class="node">
<title>Node24</title>
<g id="a_node24"><a xlink:href="zwave__s0__transport_8c.html#adb0e729c11b7fdb81d7c2f776453e8ab" target="_top" xlink:title=" ">
<polygon fill="none" stroke="black" points="700,-126.5 700,-145.5 765,-145.5 765,-126.5 700,-126.5"/>
<text text-anchor="middle" x="732.5" y="-133.5" font-family="Helvetica,sans-Serif" font-size="10.00">s0_timeout</text>
</a>
</g>
</g>
<!-- Node10&#45;&gt;Node24 -->
<g id="edge26" class="edge">
<title>Node10&#45;&gt;Node24</title>
<path fill="none" stroke="midnightblue" d="M618.38,-133.69C641.53,-132.23 668.11,-131.42 689.68,-131.56"/>
<polygon fill="midnightblue" stroke="midnightblue" points="689.79,-135.07 699.84,-131.71 689.89,-128.07 689.79,-135.07"/>
</g>
<!-- Node10&#45;&gt;Node25 -->
<g id="edge30" class="edge">
<title>Node10&#45;&gt;Node25</title>
<path fill="none" stroke="midnightblue" d="M600.35,-132.45C625.26,-125.91 658.51,-117.17 685.31,-110.13"/>
<polygon fill="midnightblue" stroke="midnightblue" points="686.44,-113.45 695.23,-107.53 684.66,-106.68 686.44,-113.45"/>
</g>
<!-- Node13 -->
<g id="node13" class="node">
<title>Node13</title>
<g id="a_node13"><a xlink:href="zwave__s0__transport_8c.html#a09886e580f2471de3c1ebe56fabd6891" target="_top" xlink:title=" ">
<polygon fill="none" stroke="black" points="864.5,-373.5 864.5,-392.5 941.5,-392.5 941.5,-373.5 864.5,-373.5"/>
<text text-anchor="middle" x="903" y="-380.5" font-family="Helvetica,sans-Serif" font-size="10.00">aes_cbc_mac</text>
</a>
</g>
</g>
<!-- Node12&#45;&gt;Node13 -->
<g id="edge13" class="edge">
<title>Node12&#45;&gt;Node13</title>
<path fill="none" stroke="midnightblue" d="M786.34,-240.61C791.36,-243.07 796.04,-246.15 800,-250 838.09,-287.05 797.95,-326.91 836,-364 841.28,-369.15 847.87,-372.92 854.82,-375.68"/>
<polygon fill="midnightblue" stroke="midnightblue" points="853.84,-379.04 864.43,-378.84 856.03,-372.39 853.84,-379.04"/>
</g>
<!-- Node15 -->
<g id="node15" class="node">
<title>Node15</title>
<g id="a_node15"><a xlink:href="zwave__s0__transport_8c.html#a64c4a69fb8c2e230b1437142e84c3c62" target="_top" xlink:title=" ">
<polygon fill="none" stroke="black" points="877.5,-335.5 877.5,-354.5 928.5,-354.5 928.5,-335.5 877.5,-335.5"/>
<text text-anchor="middle" x="903" y="-342.5" font-family="Helvetica,sans-Serif" font-size="10.00">aes_ofb</text>
</a>
</g>
</g>
<!-- Node12&#45;&gt;Node15 -->
<g id="edge15" class="edge">
<title>Node12&#45;&gt;Node15</title>
<path fill="none" stroke="midnightblue" d="M784.49,-240.57C790.09,-243.03 795.42,-246.12 800,-250 828.51,-274.17 807.52,-301.8 836,-326 844.83,-333.51 856.48,-338.05 867.53,-340.8"/>
<polygon fill="midnightblue" stroke="midnightblue" points="866.9,-344.25 877.4,-342.86 868.33,-337.4 866.9,-344.25"/>
</g>
<!-- Node16 -->
<g id="node16" class="node">
<title>Node16</title>
<g id="a_node16"><a xlink:href="zwave__s0__transport_8c.html#aa131994ce2700672584c8e7eb43abbcf" target="_top" xlink:title=" ">
<polygon fill="none" stroke="black" points="858.5,-297.5 858.5,-316.5 947.5,-316.5 947.5,-297.5 858.5,-297.5"/>
<text text-anchor="middle" x="903" y="-304.5" font-family="Helvetica,sans-Serif" font-size="10.00">aes_set_key_tpt</text>
</a>
</g>
</g>
<!-- Node12&#45;&gt;Node16 -->
<g id="edge17" class="edge">
<title>Node12&#45;&gt;Node16</title>
<path fill="none" stroke="midnightblue" d="M779.22,-240.54C786.45,-243.03 793.64,-246.14 800,-250 819.89,-262.07 816.12,-275.91 836,-288 840.05,-290.46 844.44,-292.62 848.96,-294.51"/>
<polygon fill="midnightblue" stroke="midnightblue" points="847.76,-297.8 858.36,-298.01 850.21,-291.24 847.76,-297.8"/>
</g>
<!-- Node17 -->
<g id="node17" class="node">
<title>Node17</title>
<g id="a_node17"><a xlink:href="zwave__s0__transport_8c.html#aeb22afea5af0dc149f03d08edb74a44a" target="_top" xlink:title=" ">
<polygon fill="none" stroke="black" points="836,-259.5 836,-278.5 970,-278.5 970,-259.5 836,-259.5"/>
<text text-anchor="middle" x="903" y="-266.5" font-family="Helvetica,sans-Serif" font-size="10.00">get_node_max_frame_size</text>
</a>
</g>
</g>
<!-- Node12&#45;&gt;Node17 -->
<g id="edge18" class="edge">
<title>Node12&#45;&gt;Node17</title>
<path fill="none" stroke="midnightblue" d="M776.02,-240.59C798.46,-245.65 826.17,-251.9 849.89,-257.25"/>
<polygon fill="midnightblue" stroke="midnightblue" points="849.26,-260.69 859.79,-259.48 850.8,-253.87 849.26,-260.69"/>
</g>
<!-- Node18 -->
<g id="node18" class="node">
<title>Node18</title>
<g id="a_node18"><a xlink:href="zwave__s0__transport_8c.html#ade289797a519efdfbcbb8176339c60f3" target="_top" xlink:title=" ">
<polygon fill="none" stroke="black" points="864.5,-221.5 864.5,-240.5 941.5,-240.5 941.5,-221.5 864.5,-221.5"/>
<text text-anchor="middle" x="903" y="-228.5" font-family="Helvetica,sans-Serif" font-size="10.00">get_s0_nonce</text>
</a>
</g>
</g>
<!-- Node12&#45;&gt;Node18 -->
<g id="edge19" class="edge">
<title>Node12&#45;&gt;Node18</title>
<path fill="none" stroke="midnightblue" d="M787.74,-231C809.14,-231 833.51,-231 854.23,-231"/>
<polygon fill="midnightblue" stroke="midnightblue" points="854.39,-234.5 864.39,-231 854.39,-227.5 854.39,-234.5"/>
</g>
<!-- Node19 -->
<g id="node19" class="node">
<title>Node19</title>
<g id="a_node19"><a xlink:href="zwave__s0__transport_8c.html#a9944c78203e0b476f5cd80bca6dd76d1" target="_top" xlink:title=" ">
<polygon fill="none" stroke="black" points="868.5,-183.5 868.5,-202.5 937.5,-202.5 937.5,-183.5 868.5,-183.5"/>
<text text-anchor="middle" x="903" y="-190.5" font-family="Helvetica,sans-Serif" font-size="10.00">nonce_clear</text>
</a>
</g>
</g>
<!-- Node12&#45;&gt;Node19 -->
<g id="edge20" class="edge">
<title>Node12&#45;&gt;Node19</title>
<path fill="none" stroke="midnightblue" d="M776.02,-221.41C801.13,-215.75 832.85,-208.6 858.18,-202.88"/>
<polygon fill="midnightblue" stroke="midnightblue" points="859.26,-206.23 868.25,-200.61 857.72,-199.4 859.26,-206.23"/>
</g>
<!-- Node20 -->
<g id="node20" class="node">
<title>Node20</title>
<g id="a_node20"><a xlink:href="zwave__s0__transport_8c.html#a804b1de1ad94923895000f9f239341e0" target="_top" xlink:title=" ">
<polygon fill="none" stroke="black" points="863,-145.5 863,-164.5 943,-164.5 943,-145.5 863,-145.5"/>
<text text-anchor="middle" x="903" y="-152.5" font-family="Helvetica,sans-Serif" font-size="10.00">register_nonce</text>
</a>
</g>
</g>
<!-- Node12&#45;&gt;Node20 -->
<g id="edge21" class="edge">
<title>Node12&#45;&gt;Node20</title>
<path fill="none" stroke="midnightblue" d="M748.24,-221.39C767.69,-209.04 803.28,-187.6 836,-174 841.57,-171.68 847.52,-169.54 853.48,-167.59"/>
<polygon fill="midnightblue" stroke="midnightblue" points="854.93,-170.81 863.45,-164.5 852.86,-164.12 854.93,-170.81"/>
</g>
<!-- Node14 -->
<g id="node14" class="node">
<title>Node14</title>
<g id="a_node14"><a xlink:href="zwave__s0__transport_8c.html#a81a1edfa8dd156b07bbe49d8c85095bf" target="_top" xlink:title=" ">
<polygon fill="none" stroke="black" points="1014.5,-354.5 1014.5,-373.5 1084.5,-373.5 1084.5,-354.5 1014.5,-354.5"/>
<text text-anchor="middle" x="1049.5" y="-361.5" font-family="Helvetica,sans-Serif" font-size="10.00">aes_encrypt</text>
</a>
</g>
</g>
<!-- Node13&#45;&gt;Node14 -->
<g id="edge14" class="edge">
<title>Node13&#45;&gt;Node14</title>
<path fill="none" stroke="midnightblue" d="M941.59,-378.06C960.67,-375.55 983.99,-372.48 1003.97,-369.86"/>
<polygon fill="midnightblue" stroke="midnightblue" points="1004.61,-373.3 1014.07,-368.53 1003.7,-366.36 1004.61,-373.3"/>
</g>
<!-- Node15&#45;&gt;Node14 -->
<g id="edge16" class="edge">
<title>Node15&#45;&gt;Node14</title>
<path fill="none" stroke="midnightblue" d="M928.51,-348.22C949.25,-350.95 979.48,-354.92 1004.41,-358.2"/>
<polygon fill="midnightblue" stroke="midnightblue" points="1004,-361.68 1014.37,-359.51 1004.91,-354.74 1004,-361.68"/>
</g>
<!-- Node21 -->
<g id="node21" class="node">
<title>Node21</title>
<g id="a_node21"><a xlink:href="zwave__s0__transport_8c.html#aed7c30c1d59e44aab5ba91ad6e78d447" target="_top" xlink:title=" ">
<polygon fill="none" stroke="black" points="1006,-145.5 1006,-164.5 1093,-164.5 1093,-145.5 1006,-145.5"/>
<text text-anchor="middle" x="1049.5" y="-152.5" font-family="Helvetica,sans-Serif" font-size="10.00">restart_s0_timer</text>
</a>
</g>
</g>
<!-- Node20&#45;&gt;Node21 -->
<g id="edge22" class="edge">
<title>Node20&#45;&gt;Node21</title>
<path fill="none" stroke="midnightblue" d="M943.1,-155C959.31,-155 978.37,-155 995.78,-155"/>
<polygon fill="midnightblue" stroke="midnightblue" points="995.81,-158.5 1005.81,-155 995.81,-151.5 995.81,-158.5"/>
</g>
<!-- Node22 -->
<g id="node22" class="node">
<title>Node22</title>
<g id="a_node22"><a xlink:href="zwave__s0__transport_8c.html#a23cc9cf50d02cdaa152e984177674bf9" target="_top" xlink:title=" ">
<polygon fill="none" stroke="black" points="1129,-145.5 1129,-164.5 1236,-164.5 1236,-145.5 1129,-145.5"/>
<text text-anchor="middle" x="1182.5" y="-152.5" font-family="Helvetica,sans-Serif" font-size="10.00">nonce_timer_timeout</text>
</a>
</g>
</g>
<!-- Node21&#45;&gt;Node22 -->
<g id="edge23" class="edge">
<title>Node21&#45;&gt;Node22</title>
<path fill="none" stroke="midnightblue" d="M1093.03,-155C1101.19,-155 1109.9,-155 1118.55,-155"/>
<polygon fill="midnightblue" stroke="midnightblue" points="1118.64,-158.5 1128.64,-155 1118.64,-151.5 1118.64,-158.5"/>
</g>
<!-- Node22&#45;&gt;Node22 -->
<g id="edge24" class="edge">
<title>Node22&#45;&gt;Node22</title>
<path fill="none" stroke="midnightblue" d="M1162.15,-164.76C1152.26,-173.57 1159.04,-183 1182.5,-183 1197.53,-183 1205.71,-179.13 1207.05,-174.03"/>
<polygon fill="midnightblue" stroke="midnightblue" points="1210.17,-172.42 1202.85,-164.76 1203.79,-175.31 1210.17,-172.42"/>
</g>
<!-- Node24&#45;&gt;Node10 -->
<g id="edge28" class="edge">
<title>Node24&#45;&gt;Node10</title>
<path fill="none" stroke="midnightblue" d="M699.84,-142.56C679.77,-144.47 653.08,-145.81 628.68,-146.28"/>
<polygon fill="midnightblue" stroke="midnightblue" points="628.33,-142.78 618.38,-146.42 628.43,-149.78 628.33,-142.78"/>
</g>
<!-- Node24&#45;&gt;Node23 -->
<g id="edge27" class="edge">
<title>Node24&#45;&gt;Node23</title>
<path fill="none" stroke="midnightblue" d="M765.19,-132.43C789.39,-129.7 823.22,-125.88 851.18,-122.73"/>
<polygon fill="midnightblue" stroke="midnightblue" points="851.65,-126.2 861.19,-121.6 850.86,-119.24 851.65,-126.2"/>
</g>
<!-- Node27 -->
<g id="node27" class="node">
<title>Node27</title>
<g id="a_node27"><a xlink:href="group__zpc__attribute__store__network__helpers.html#gae4d15b8e0c61c88d94c8f342bd2014fc" target="_top" xlink:title="Take a UNID/endpoint combination and returns its attribute store node.">
<polygon fill="none" stroke="black" points="326,-39 326,-69 461,-69 461,-39 326,-39"/>
<text text-anchor="start" x="334" y="-57" font-family="Helvetica,sans-Serif" font-size="10.00">attribute_store_network</text>
<text text-anchor="middle" x="393.5" y="-46" font-family="Helvetica,sans-Serif" font-size="10.00">_helper_get_endpoint_node</text>
</a>
</g>
</g>
<!-- Node26&#45;&gt;Node27 -->
<g id="edge32" class="edge">
<title>Node26&#45;&gt;Node27</title>
<path fill="none" stroke="midnightblue" d="M290.24,-54C298.53,-54 307.08,-54 315.54,-54"/>
<polygon fill="midnightblue" stroke="midnightblue" points="315.78,-57.5 325.78,-54 315.78,-50.5 315.78,-57.5"/>
</g>
<!-- Node32 -->
<g id="node32" class="node">
<title>Node32</title>
<g id="a_node32"><a xlink:href="group__zwave__unid.html#ga421deceb8a12916f049e4f3446774439" target="_top" xlink:title="Form a UNID.">
<polygon fill="none" stroke="black" points="327.5,-0.5 327.5,-19.5 459.5,-19.5 459.5,-0.5 327.5,-0.5"/>
<text text-anchor="middle" x="393.5" y="-7.5" font-family="Helvetica,sans-Serif" font-size="10.00">zwave_unid_from_node_id</text>
</a>
</g>
</g>
<!-- Node26&#45;&gt;Node32 -->
<g id="edge37" class="edge">
<title>Node26&#45;&gt;Node32</title>
<path fill="none" stroke="midnightblue" d="M261.35,-44.45C286.26,-37.91 319.51,-29.17 346.31,-22.13"/>
<polygon fill="midnightblue" stroke="midnightblue" points="347.44,-25.45 356.23,-19.53 345.66,-18.68 347.44,-25.45"/>
</g>
<!-- Node28 -->
<g id="node28" class="node">
<title>Node28</title>
<g id="a_node28"><a xlink:href="group__zpc__attribute__store__network__helpers.html#gafb993ff484b3c826743c4695d6659cf0" target="_top" xlink:title="Take a UNID and return its attribute store node representing the NodeID.">
<polygon fill="none" stroke="black" points="497,-39 497,-69 629,-69 629,-39 497,-39"/>
<text text-anchor="start" x="505" y="-57" font-family="Helvetica,sans-Serif" font-size="10.00">attribute_store_network</text>
<text text-anchor="middle" x="563" y="-46" font-family="Helvetica,sans-Serif" font-size="10.00">_helper_get_node_id_node</text>
</a>
</g>
</g>
<!-- Node27&#45;&gt;Node28 -->
<g id="edge33" class="edge">
<title>Node27&#45;&gt;Node28</title>
<path fill="none" stroke="midnightblue" d="M461.18,-54C469.55,-54 478.15,-54 486.64,-54"/>
<polygon fill="midnightblue" stroke="midnightblue" points="486.91,-57.5 496.91,-54 486.91,-50.5 486.91,-57.5"/>
</g>
<!-- Node29 -->
<g id="node29" class="node">
<title>Node29</title>
<g id="a_node29"><a xlink:href="group__zpc__attribute__store__network__helpers.html#ga05cb572c96f7dc8e6657f86e135fafed" target="_top" xlink:title="Take a UNID and return its attribute store node representing the HomeID.">
<polygon fill="none" stroke="black" points="665,-39 665,-69 800,-69 800,-39 665,-39"/>
<text text-anchor="start" x="673" y="-57" font-family="Helvetica,sans-Serif" font-size="10.00">attribute_store_network</text>
<text text-anchor="middle" x="732.5" y="-46" font-family="Helvetica,sans-Serif" font-size="10.00">_helper_get_home_id_node</text>
</a>
</g>
</g>
<!-- Node28&#45;&gt;Node29 -->
<g id="edge34" class="edge">
<title>Node28&#45;&gt;Node29</title>
<path fill="none" stroke="midnightblue" d="M629.24,-54C637.53,-54 646.08,-54 654.54,-54"/>
<polygon fill="midnightblue" stroke="midnightblue" points="654.78,-57.5 664.78,-54 654.78,-50.5 654.78,-57.5"/>
</g>
<!-- Node31 -->
<g id="node31" class="node">
<title>Node31</title>
<g id="a_node31"><a xlink:href="group__zwave__unid.html#ga76885767debd174e96e6df00b0a368c3" target="_top" xlink:title="Convert a UNID to a node ID.">
<polygon fill="none" stroke="black" points="672,-0.5 672,-19.5 793,-19.5 793,-0.5 672,-0.5"/>
<text text-anchor="middle" x="732.5" y="-7.5" font-family="Helvetica,sans-Serif" font-size="10.00">zwave_unid_to_node_id</text>
</a>
</g>
</g>
<!-- Node28&#45;&gt;Node31 -->
<g id="edge36" class="edge">
<title>Node28&#45;&gt;Node31</title>
<path fill="none" stroke="midnightblue" d="M621.18,-38.98C642.17,-33.46 665.66,-27.3 685.55,-22.07"/>
<polygon fill="midnightblue" stroke="midnightblue" points="686.51,-25.44 695.29,-19.51 684.73,-18.67 686.51,-25.44"/>
</g>
<!-- Node30 -->
<g id="node30" class="node">
<title>Node30</title>
<g id="a_node30"><a xlink:href="group__zwave__unid.html#ga92f9808a08c2ce1c0a6a9dc2debf3580" target="_top" xlink:title="Convert a UNID to a Home ID.">
<polygon fill="none" stroke="black" points="841,-44.5 841,-63.5 965,-63.5 965,-44.5 841,-44.5"/>
<text text-anchor="middle" x="903" y="-51.5" font-family="Helvetica,sans-Serif" font-size="10.00">zwave_unid_to_home_id</text>
</a>
</g>
</g>
<!-- Node29&#45;&gt;Node30 -->
<g id="edge35" class="edge">
<title>Node29&#45;&gt;Node30</title>
<path fill="none" stroke="midnightblue" d="M800.1,-54C810.17,-54 820.59,-54 830.76,-54"/>
<polygon fill="midnightblue" stroke="midnightblue" points="830.82,-57.5 840.82,-54 830.82,-50.5 830.82,-57.5"/>
</g>
</g>
</svg>
