<?xml version="1.0" encoding="UTF-8" standalone="no"?>
<!DOCTYPE svg PUBLIC "-//W3C//DTD SVG 1.1//EN"
 "http://www.w3.org/Graphics/SVG/1.1/DTD/svg11.dtd">
<!-- Generated by graphviz version 2.43.0 (0)
 -->
<!-- Title: zwave_rx_zwave_api_started Pages: 1 -->
<svg width="1622pt" height="542pt"
 viewBox="0.00 0.00 1622.00 541.50" xmlns="http://www.w3.org/2000/svg" xmlns:xlink="http://www.w3.org/1999/xlink">
<g id="graph0" class="graph" transform="scale(1 1) rotate(0) translate(4 537.5)">
<title>zwave_rx_zwave_api_started</title>
<!-- Node1 -->
<g id="node1" class="node">
<title>Node1</title>
<g id="a_node1"><a xlink:title="functions handling when the Z&#45;Wave API is ready to use. This is called after soft reset....">
<polygon fill="#bfbfbf" stroke="black" points="0,-299 0,-329 110,-329 110,-299 0,-299"/>
<text text-anchor="start" x="8" y="-317" font-family="Helvetica,sans-Serif" font-size="10.00">zwave_rx_zwave_api</text>
<text text-anchor="middle" x="55" y="-306" font-family="Helvetica,sans-Serif" font-size="10.00">_started</text>
</a>
</g>
</g>
<!-- Node2 -->
<g id="node2" class="node">
<title>Node2</title>
<g id="a_node2"><a xlink:href="group__ZWAPI__BASIS.html#ga12e47bedfeb9c2ab4824597f56446a0c" target="_top" xlink:title="Set Z&#45;Wave node ID basetype, either 8 bits or 16 bits used to store a node ID.">
<polygon fill="none" stroke="black" points="146,-326.5 146,-345.5 291,-345.5 291,-326.5 146,-326.5"/>
<text text-anchor="middle" x="218.5" y="-333.5" font-family="Helvetica,sans-Serif" font-size="10.00">zwapi_set_node_id_basetype</text>
</a>
</g>
</g>
<!-- Node1&#45;&gt;Node2 -->
<g id="edge1" class="edge">
<title>Node1&#45;&gt;Node2</title>
<path fill="none" stroke="midnightblue" d="M110.23,-321.39C119.04,-322.59 128.33,-323.85 137.61,-325.12"/>
<polygon fill="midnightblue" stroke="midnightblue" points="137.26,-328.6 147.64,-326.48 138.21,-321.67 137.26,-328.6"/>
</g>
<!-- Node35 -->
<g id="node35" class="node">
<title>Node35</title>
<g id="a_node35"><a xlink:href="group__zwave__rx__internals.html#ga39b3186e32abce32d29efe2bc3204d0a" target="_top" xlink:title="Inform other components that Z&#45;Wave RX just receievd a Z&#45;Wave API started notification.">
<polygon fill="none" stroke="black" points="155.5,-277 155.5,-307 281.5,-307 281.5,-277 155.5,-277"/>
<text text-anchor="start" x="163.5" y="-295" font-family="Helvetica,sans-Serif" font-size="10.00">zwave_rx_on_zwave_api</text>
<text text-anchor="middle" x="218.5" y="-284" font-family="Helvetica,sans-Serif" font-size="10.00">_started</text>
</a>
</g>
</g>
<!-- Node1&#45;&gt;Node35 -->
<g id="edge53" class="edge">
<title>Node1&#45;&gt;Node35</title>
<path fill="none" stroke="midnightblue" d="M110.23,-306.61C121.42,-305.09 133.39,-303.46 145.11,-301.86"/>
<polygon fill="midnightblue" stroke="midnightblue" points="145.9,-305.29 155.33,-300.47 144.95,-298.35 145.9,-305.29"/>
</g>
<!-- Node3 -->
<g id="node3" class="node">
<title>Node3</title>
<g id="a_node3"><a xlink:href="zwapi__init_8c.html#a5ec89d5817b8ce00454fce891ae8400e" target="_top" xlink:title="Send a command to the Z&#45;Wave module and waits for an ACK.">
<polygon fill="none" stroke="black" points="327,-346 327,-376 443,-376 443,-346 327,-346"/>
<text text-anchor="start" x="335" y="-364" font-family="Helvetica,sans-Serif" font-size="10.00">zwapi_send_command</text>
<text text-anchor="middle" x="385" y="-353" font-family="Helvetica,sans-Serif" font-size="10.00">_with_response</text>
</a>
</g>
</g>
<!-- Node2&#45;&gt;Node3 -->
<g id="edge2" class="edge">
<title>Node2&#45;&gt;Node3</title>
<path fill="none" stroke="midnightblue" d="M282.16,-345.52C293.54,-347.25 305.44,-349.06 316.94,-350.81"/>
<polygon fill="midnightblue" stroke="midnightblue" points="316.5,-354.28 326.91,-352.32 317.55,-347.36 316.5,-354.28"/>
</g>
<!-- Node32 -->
<g id="node32" class="node">
<title>Node32</title>
<g id="a_node32"><a xlink:href="group__ZWAPI__BASIS.html#ga17ea6a36c50659bf019a0a7dea77fa9d" target="_top" xlink:title="Return whether the Z&#45;Wave module supports Long Range.">
<polygon fill="none" stroke="black" points="331,-297 331,-327 439,-327 439,-297 331,-297"/>
<text text-anchor="start" x="339" y="-315" font-family="Helvetica,sans-Serif" font-size="10.00">zwapi_supports_long</text>
<text text-anchor="middle" x="385" y="-304" font-family="Helvetica,sans-Serif" font-size="10.00">_range</text>
</a>
</g>
</g>
<!-- Node2&#45;&gt;Node32 -->
<g id="edge49" class="edge">
<title>Node2&#45;&gt;Node32</title>
<path fill="none" stroke="midnightblue" d="M284.99,-326.45C296.77,-324.73 309.03,-322.94 320.74,-321.23"/>
<polygon fill="midnightblue" stroke="midnightblue" points="321.48,-324.66 330.87,-319.75 320.47,-317.73 321.48,-324.66"/>
</g>
<!-- Node4 -->
<g id="node4" class="node">
<title>Node4</title>
<g id="a_node4"><a xlink:href="zwapi__session_8c.html#abf613a2ad7710ac80fb239ba55e621d7" target="_top" xlink:title="Send data frame to Z&#45;Wave chip via serial API, wait for ACK and a RES frame.">
<polygon fill="none" stroke="black" points="497.5,-363 497.5,-393 612.5,-393 612.5,-363 497.5,-363"/>
<text text-anchor="start" x="505.5" y="-381" font-family="Helvetica,sans-Serif" font-size="10.00">zwapi_session_send</text>
<text text-anchor="middle" x="555" y="-370" font-family="Helvetica,sans-Serif" font-size="10.00">_frame_with_response</text>
</a>
</g>
</g>
<!-- Node3&#45;&gt;Node4 -->
<g id="edge3" class="edge">
<title>Node3&#45;&gt;Node4</title>
<path fill="none" stroke="midnightblue" d="M443.35,-366.8C457.56,-368.24 472.9,-369.79 487.51,-371.27"/>
<polygon fill="midnightblue" stroke="midnightblue" points="487.18,-374.76 497.48,-372.28 487.88,-367.79 487.18,-374.76"/>
</g>
<!-- Node31 -->
<g id="node31" class="node">
<title>Node31</title>
<g id="a_node31"><a xlink:href="group__ZWAPI__INIT.html#ga0a823074baec69913d0e8590b46e4e33" target="_top" xlink:title="Check if a command is supported by the connected Z&#45;Wave module.">
<polygon fill="none" stroke="black" points="479,-324.5 479,-343.5 631,-343.5 631,-324.5 479,-324.5"/>
<text text-anchor="middle" x="555" y="-331.5" font-family="Helvetica,sans-Serif" font-size="10.00">zwapi_support_command_func</text>
</a>
</g>
</g>
<!-- Node3&#45;&gt;Node31 -->
<g id="edge48" class="edge">
<title>Node3&#45;&gt;Node31</title>
<path fill="none" stroke="midnightblue" d="M443.35,-351.78C456.66,-349.64 470.96,-347.35 484.72,-345.13"/>
<polygon fill="midnightblue" stroke="midnightblue" points="485.31,-348.59 494.62,-343.54 484.19,-341.67 485.31,-348.59"/>
</g>
<!-- Node5 -->
<g id="node5" class="node">
<title>Node5</title>
<g id="a_node5"><a xlink:href="zwapi__connection_8c.html#a91ce3acd7eff779496789637a9c27f40" target="_top" xlink:title="Provides the data of the serial buffer for the last received frame.">
<polygon fill="none" stroke="black" points="1162.5,-503 1162.5,-533 1275.5,-533 1275.5,-503 1162.5,-503"/>
<text text-anchor="start" x="1170.5" y="-521" font-family="Helvetica,sans-Serif" font-size="10.00">zwapi_connection_get</text>
<text text-anchor="middle" x="1219" y="-510" font-family="Helvetica,sans-Serif" font-size="10.00">_last_rx_frame</text>
</a>
</g>
</g>
<!-- Node4&#45;&gt;Node5 -->
<g id="edge4" class="edge">
<title>Node4&#45;&gt;Node5</title>
<path fill="none" stroke="midnightblue" d="M572.57,-393.26C593.07,-411.14 629.81,-440.09 667,-454 833.51,-516.29 1046.39,-522.03 1152.19,-520.38"/>
<polygon fill="midnightblue" stroke="midnightblue" points="1152.46,-523.87 1162.39,-520.19 1152.33,-516.88 1152.46,-523.87"/>
</g>
<!-- Node6 -->
<g id="node6" class="node">
<title>Node6</title>
<g id="a_node6"><a xlink:href="zwapi__connection_8c.html#a86b069d152a5c2f8ac95774a688dff48" target="_top" xlink:title="make the zwapi_connection_status types human readable.">
<polygon fill="none" stroke="black" points="667,-388 667,-418 794,-418 794,-388 667,-388"/>
<text text-anchor="start" x="675" y="-406" font-family="Helvetica,sans-Serif" font-size="10.00">zwapi_connection_status</text>
<text text-anchor="middle" x="730.5" y="-395" font-family="Helvetica,sans-Serif" font-size="10.00">_to_string</text>
</a>
</g>
</g>
<!-- Node4&#45;&gt;Node6 -->
<g id="edge5" class="edge">
<title>Node4&#45;&gt;Node6</title>
<path fill="none" stroke="midnightblue" d="M612.81,-386.19C626.86,-388.21 642.11,-390.41 656.8,-392.52"/>
<polygon fill="midnightblue" stroke="midnightblue" points="656.47,-396.01 666.87,-393.97 657.47,-389.08 656.47,-396.01"/>
</g>
<!-- Node7 -->
<g id="node7" class="node">
<title>Node7</title>
<g id="a_node7"><a xlink:href="zwapi__session_8c.html#a1f2b3e7c2dcf31708ef8d333747352ba" target="_top" xlink:title=" ">
<polygon fill="none" stroke="black" points="992.5,-440 992.5,-470 1115.5,-470 1115.5,-440 992.5,-440"/>
<text text-anchor="start" x="1000.5" y="-458" font-family="Helvetica,sans-Serif" font-size="10.00">zwapi_session_enqueue</text>
<text text-anchor="middle" x="1054" y="-447" font-family="Helvetica,sans-Serif" font-size="10.00">_frame</text>
</a>
</g>
</g>
<!-- Node4&#45;&gt;Node7 -->
<g id="edge6" class="edge">
<title>Node4&#45;&gt;Node7</title>
<path fill="none" stroke="midnightblue" d="M583.93,-393.14C605.91,-404.42 637.61,-419.3 667,-428 773.5,-459.51 903.43,-461.59 982.11,-459.1"/>
<polygon fill="midnightblue" stroke="midnightblue" points="982.52,-462.59 992.39,-458.74 982.28,-455.59 982.52,-462.59"/>
</g>
<!-- Node10 -->
<g id="node10" class="node">
<title>Node10</title>
<g id="a_node10"><a xlink:href="zwapi__session_8c.html#a32577f3500efc3d937dbc68eebb3c370" target="_top" xlink:title="Send data frame to Z&#45;Wave chip via serial port and wait for ACK.">
<polygon fill="none" stroke="black" points="677,-339 677,-369 784,-369 784,-339 677,-339"/>
<text text-anchor="start" x="685" y="-357" font-family="Helvetica,sans-Serif" font-size="10.00">zwapi_session_send</text>
<text text-anchor="middle" x="730.5" y="-346" font-family="Helvetica,sans-Serif" font-size="10.00">_frame</text>
</a>
</g>
</g>
<!-- Node4&#45;&gt;Node10 -->
<g id="edge10" class="edge">
<title>Node4&#45;&gt;Node10</title>
<path fill="none" stroke="midnightblue" d="M612.81,-370.14C630.08,-367.75 649.15,-365.12 666.78,-362.68"/>
<polygon fill="midnightblue" stroke="midnightblue" points="667.54,-366.1 676.97,-361.27 666.58,-359.17 667.54,-366.1"/>
</g>
<!-- Node30 -->
<g id="node30" class="node">
<title>Node30</title>
<g id="a_node30"><a xlink:href="zwapi__session_8c.html#a9d30e1677f02d7730ab035aa9333235d" target="_top" xlink:title=" ">
<polygon fill="none" stroke="black" points="839.5,-295 839.5,-325 943.5,-325 943.5,-295 839.5,-295"/>
<text text-anchor="start" x="847.5" y="-313" font-family="Helvetica,sans-Serif" font-size="10.00">zwapi_session_wait</text>
<text text-anchor="middle" x="891.5" y="-302" font-family="Helvetica,sans-Serif" font-size="10.00">_for_response</text>
</a>
</g>
</g>
<!-- Node4&#45;&gt;Node30 -->
<g id="edge47" class="edge">
<title>Node4&#45;&gt;Node30</title>
<path fill="none" stroke="midnightblue" d="M607.1,-362.86C615.23,-359.91 623.44,-356.6 631,-353 648.14,-344.82 649.03,-336.13 667,-330 719.79,-311.99 783.44,-307.86 829.29,-307.73"/>
<polygon fill="midnightblue" stroke="midnightblue" points="829.36,-311.23 839.37,-307.77 829.38,-304.23 829.36,-311.23"/>
</g>
<!-- Node7&#45;&gt;Node5 -->
<g id="edge7" class="edge">
<title>Node7&#45;&gt;Node5</title>
<path fill="none" stroke="midnightblue" d="M1093.44,-470.07C1112.02,-477.34 1134.66,-486.16 1155,-494 1159.47,-495.72 1164.13,-497.51 1168.79,-499.3"/>
<polygon fill="midnightblue" stroke="midnightblue" points="1167.74,-502.64 1178.33,-502.94 1170.23,-496.1 1167.74,-502.64"/>
</g>
<!-- Node8 -->
<g id="node8" class="node">
<title>Node8</title>
<g id="a_node8"><a xlink:href="zwapi__session_8c.html#ad7bac697ee2388b38ed3777b5a3862bc" target="_top" xlink:title=" ">
<polygon fill="none" stroke="black" points="1162.5,-454 1162.5,-484 1275.5,-484 1275.5,-454 1162.5,-454"/>
<text text-anchor="start" x="1170.5" y="-472" font-family="Helvetica,sans-Serif" font-size="10.00">zwapi_session_get_rx</text>
<text text-anchor="middle" x="1219" y="-461" font-family="Helvetica,sans-Serif" font-size="10.00">_queue_length</text>
</a>
</g>
</g>
<!-- Node7&#45;&gt;Node8 -->
<g id="edge8" class="edge">
<title>Node7&#45;&gt;Node8</title>
<path fill="none" stroke="midnightblue" d="M1115.7,-460.21C1127.65,-461.24 1140.24,-462.32 1152.34,-463.36"/>
<polygon fill="midnightblue" stroke="midnightblue" points="1152.11,-466.85 1162.37,-464.22 1152.71,-459.88 1152.11,-466.85"/>
</g>
<!-- Node9 -->
<g id="node9" class="node">
<title>Node9</title>
<g id="a_node9"><a xlink:href="group__ZWAPI__INIT.html#ga438a74c9752197d20d377874d5a61694" target="_top" xlink:title="Returns the pointer to the callbacks registered at init.">
<polygon fill="none" stroke="black" points="1155,-415.5 1155,-434.5 1283,-434.5 1283,-415.5 1155,-415.5"/>
<text text-anchor="middle" x="1219" y="-422.5" font-family="Helvetica,sans-Serif" font-size="10.00">zwave_api_get_callbacks</text>
</a>
</g>
</g>
<!-- Node7&#45;&gt;Node9 -->
<g id="edge9" class="edge">
<title>Node7&#45;&gt;Node9</title>
<path fill="none" stroke="midnightblue" d="M1115.7,-443.83C1128.97,-441.39 1143.03,-438.8 1156.34,-436.35"/>
<polygon fill="midnightblue" stroke="midnightblue" points="1157.14,-439.76 1166.34,-434.51 1155.87,-432.88 1157.14,-439.76"/>
</g>
<!-- Node10&#45;&gt;Node7 -->
<g id="edge28" class="edge">
<title>Node10&#45;&gt;Node7</title>
<path fill="none" stroke="midnightblue" d="M777,-369C782.98,-371.88 788.82,-375.2 794,-379 814.37,-393.94 808,-410.58 830,-423 876.23,-449.09 936.13,-456.51 982.21,-457.72"/>
<polygon fill="midnightblue" stroke="midnightblue" points="982.35,-461.23 992.41,-457.9 982.47,-454.23 982.35,-461.23"/>
</g>
<!-- Node11 -->
<g id="node11" class="node">
<title>Node11</title>
<g id="a_node11"><a xlink:href="zwapi__connection_8c.html#a13b6e6b6c56844f4344fabe490bc5eac" target="_top" xlink:title="Closes and re&#45;initializes the zwapi_connection to the Z&#45;Wave module.">
<polygon fill="none" stroke="black" points="990,-156.5 990,-175.5 1118,-175.5 1118,-156.5 990,-156.5"/>
<text text-anchor="middle" x="1054" y="-163.5" font-family="Helvetica,sans-Serif" font-size="10.00">zwapi_connection_restart</text>
</a>
</g>
</g>
<!-- Node10&#45;&gt;Node11 -->
<g id="edge11" class="edge">
<title>Node10&#45;&gt;Node11</title>
<path fill="none" stroke="midnightblue" d="M750.42,-338.91C764.14,-327.12 782.26,-309.64 794,-291 819.39,-250.67 792.58,-219.51 830,-190 873.24,-155.89 936.78,-152.15 984.98,-155.63"/>
<polygon fill="midnightblue" stroke="midnightblue" points="984.76,-159.12 995.02,-156.47 985.34,-152.15 984.76,-159.12"/>
</g>
<!-- Node21 -->
<g id="node21" class="node">
<title>Node21</title>
<g id="a_node21"><a xlink:href="zwapi__timestamp_8c.html#a6ebe1ddfe689bce6ee72fc12f708aece" target="_top" xlink:title="get the timestamp">
<polygon fill="none" stroke="black" points="1163,-164.5 1163,-183.5 1275,-183.5 1275,-164.5 1163,-164.5"/>
<text text-anchor="middle" x="1219" y="-171.5" font-family="Helvetica,sans-Serif" font-size="10.00">zwapi_timestamp_get</text>
</a>
</g>
</g>
<!-- Node10&#45;&gt;Node21 -->
<g id="edge46" class="edge">
<title>Node10&#45;&gt;Node21</title>
<path fill="none" stroke="midnightblue" d="M750.75,-338.98C770.08,-324.33 801.07,-301.96 830,-286 897.29,-248.87 915.51,-240.49 989,-218 1043.1,-201.44 1106.37,-189.85 1152.69,-182.74"/>
<polygon fill="midnightblue" stroke="midnightblue" points="1153.23,-186.2 1162.6,-181.24 1152.19,-179.27 1153.23,-186.2"/>
</g>
<!-- Node22 -->
<g id="node22" class="node">
<title>Node22</title>
<g id="a_node22"><a xlink:href="zwapi__connection_8c.html#af47f8cbd93974d5c91d659fdeb7a870b" target="_top" xlink:title="Transmit a frame via serial port by adding SOF, Len, Type, cmd and Checksum.">
<polygon fill="none" stroke="black" points="1000,-118.5 1000,-137.5 1108,-137.5 1108,-118.5 1000,-118.5"/>
<text text-anchor="middle" x="1054" y="-125.5" font-family="Helvetica,sans-Serif" font-size="10.00">zwapi_connection_tx</text>
</a>
</g>
</g>
<!-- Node10&#45;&gt;Node22 -->
<g id="edge22" class="edge">
<title>Node10&#45;&gt;Node22</title>
<path fill="none" stroke="midnightblue" d="M751.22,-338.96C765.15,-327.33 783.2,-310.02 794,-291 825.73,-235.14 781.32,-192.92 830,-151 874.84,-112.39 945.06,-111.53 994.71,-117.19"/>
<polygon fill="midnightblue" stroke="midnightblue" points="994.31,-120.67 1004.67,-118.45 995.18,-113.72 994.31,-120.67"/>
</g>
<!-- Node24 -->
<g id="node24" class="node">
<title>Node24</title>
<g id="a_node24"><a xlink:href="zwapi__timestamp_8c.html#a3925f2732e344672608db38351236688" target="_top" xlink:title="compare the current timestamp with the timestamp passed as an argument">
<polygon fill="none" stroke="black" points="1166,-366 1166,-396 1272,-396 1272,-366 1166,-366"/>
<text text-anchor="start" x="1174" y="-384" font-family="Helvetica,sans-Serif" font-size="10.00">zwapi_is_timestamp</text>
<text text-anchor="middle" x="1219" y="-373" font-family="Helvetica,sans-Serif" font-size="10.00">_elapsed</text>
</a>
</g>
</g>
<!-- Node10&#45;&gt;Node24 -->
<g id="edge27" class="edge">
<title>Node10&#45;&gt;Node24</title>
<path fill="none" stroke="midnightblue" d="M784.03,-356.92C874.35,-361.93 1058.68,-372.16 1155.47,-377.53"/>
<polygon fill="midnightblue" stroke="midnightblue" points="1155.51,-381.04 1165.69,-378.1 1155.9,-374.05 1155.51,-381.04"/>
</g>
<!-- Node25 -->
<g id="node25" class="node">
<title>Node25</title>
<g id="a_node25"><a xlink:href="zwapi__session_8c.html#a2875fbfa250b7b25ecb6bc4f0b032cb8" target="_top" xlink:title="Loads the received frames from the serial device into the zwapi_session receive queue.">
<polygon fill="none" stroke="black" points="830,-383 830,-413 953,-413 953,-383 830,-383"/>
<text text-anchor="start" x="838" y="-401" font-family="Helvetica,sans-Serif" font-size="10.00">zwapi_session_enqueue</text>
<text text-anchor="middle" x="891.5" y="-390" font-family="Helvetica,sans-Serif" font-size="10.00">_rx_frames</text>
</a>
</g>
</g>
<!-- Node10&#45;&gt;Node25 -->
<g id="edge29" class="edge">
<title>Node10&#45;&gt;Node25</title>
<path fill="none" stroke="midnightblue" d="M784,-368.53C797.6,-372.29 812.39,-376.39 826.51,-380.29"/>
<polygon fill="midnightblue" stroke="midnightblue" points="825.57,-383.66 836.15,-382.96 827.44,-376.92 825.57,-383.66"/>
</g>
<!-- Node10&#45;&gt;Node30 -->
<g id="edge42" class="edge">
<title>Node10&#45;&gt;Node30</title>
<path fill="none" stroke="midnightblue" d="M784,-339.47C798.62,-335.43 814.62,-331 829.67,-326.83"/>
<polygon fill="midnightblue" stroke="midnightblue" points="830.7,-330.18 839.4,-324.14 828.83,-323.43 830.7,-330.18"/>
</g>
<!-- Node12 -->
<g id="node12" class="node">
<title>Node12</title>
<g id="a_node12"><a xlink:href="zwapi__serial_8c.html#a3f2b3bd848e9fe0e6e137482bed06b46" target="_top" xlink:title="Flush the serial output if using buffered output.">
<polygon fill="none" stroke="black" points="1170.5,-115 1170.5,-145 1267.5,-145 1267.5,-115 1170.5,-115"/>
<text text-anchor="start" x="1178.5" y="-133" font-family="Helvetica,sans-Serif" font-size="10.00">zwapi_serial_drain</text>
<text text-anchor="middle" x="1219" y="-122" font-family="Helvetica,sans-Serif" font-size="10.00">_buffer</text>
</a>
</g>
</g>
<!-- Node11&#45;&gt;Node12 -->
<g id="edge12" class="edge">
<title>Node11&#45;&gt;Node12</title>
<path fill="none" stroke="midnightblue" d="M1098.25,-156.45C1117.3,-152.24 1139.95,-147.24 1160.4,-142.72"/>
<polygon fill="midnightblue" stroke="midnightblue" points="1161.23,-146.12 1170.24,-140.55 1159.72,-139.29 1161.23,-146.12"/>
</g>
<!-- Node13 -->
<g id="node13" class="node">
<title>Node13</title>
<g id="a_node13"><a xlink:href="zwapi__serial_8c.html#a7762d0358e9f398b92edbfd6a550984a" target="_top" xlink:title="Write a byte to serial port device.">
<polygon fill="none" stroke="black" points="1162.5,-202.5 1162.5,-221.5 1275.5,-221.5 1275.5,-202.5 1162.5,-202.5"/>
<text text-anchor="middle" x="1219" y="-209.5" font-family="Helvetica,sans-Serif" font-size="10.00">zwapi_serial_put_byte</text>
</a>
</g>
</g>
<!-- Node11&#45;&gt;Node13 -->
<g id="edge13" class="edge">
<title>Node11&#45;&gt;Node13</title>
<path fill="none" stroke="midnightblue" d="M1088.77,-175.53C1113.58,-182.53 1147.49,-192.1 1174.35,-199.68"/>
<polygon fill="midnightblue" stroke="midnightblue" points="1173.69,-203.13 1184.27,-202.48 1175.6,-196.4 1173.69,-203.13"/>
</g>
<!-- Node17 -->
<g id="node17" class="node">
<title>Node17</title>
<g id="a_node17"><a xlink:href="zwapi__serial_8c.html#aadf3397d0bd2c1657d4b1a373599acfe" target="_top" xlink:title="Closes and re&#45;initialize the last open serial port.">
<polygon fill="none" stroke="black" points="1167,-38.5 1167,-57.5 1271,-57.5 1271,-38.5 1167,-38.5"/>
<text text-anchor="middle" x="1219" y="-45.5" font-family="Helvetica,sans-Serif" font-size="10.00">zwapi_serial_restart</text>
</a>
</g>
</g>
<!-- Node11&#45;&gt;Node17 -->
<g id="edge17" class="edge">
<title>Node11&#45;&gt;Node17</title>
<path fill="none" stroke="midnightblue" d="M1099.51,-156.42C1106.33,-153.94 1113.07,-150.85 1119,-147 1139.63,-133.62 1137.85,-122.62 1155,-105 1169.01,-90.61 1185.94,-75.4 1198.72,-64.32"/>
<polygon fill="midnightblue" stroke="midnightblue" points="1201.14,-66.85 1206.45,-57.68 1196.58,-61.54 1201.14,-66.85"/>
</g>
<!-- Node11&#45;&gt;Node21 -->
<g id="edge21" class="edge">
<title>Node11&#45;&gt;Node21</title>
<path fill="none" stroke="midnightblue" d="M1118.02,-169.09C1129.34,-169.65 1141.16,-170.23 1152.54,-170.79"/>
<polygon fill="midnightblue" stroke="midnightblue" points="1152.69,-174.3 1162.85,-171.29 1153.03,-167.31 1152.69,-174.3"/>
</g>
<!-- Node14 -->
<g id="node14" class="node">
<title>Node14</title>
<g id="a_node14"><a xlink:href="zwapi__serial_8c.html#af9054824651df422bab5076d16a80fda" target="_top" xlink:title="Writes the content of a buffer to the serial port device.">
<polygon fill="none" stroke="black" points="1319,-201.5 1319,-220.5 1438,-220.5 1438,-201.5 1319,-201.5"/>
<text text-anchor="middle" x="1378.5" y="-208.5" font-family="Helvetica,sans-Serif" font-size="10.00">zwapi_serial_put_buffer</text>
</a>
</g>
</g>
<!-- Node13&#45;&gt;Node14 -->
<g id="edge14" class="edge">
<title>Node13&#45;&gt;Node14</title>
<path fill="none" stroke="midnightblue" d="M1275.53,-211.65C1286.24,-211.58 1297.59,-211.51 1308.66,-211.44"/>
<polygon fill="midnightblue" stroke="midnightblue" points="1308.76,-214.94 1318.74,-211.37 1308.71,-207.94 1308.76,-214.94"/>
</g>
<!-- Node15 -->
<g id="node15" class="node">
<title>Node15</title>
<g id="a_node15"><a xlink:href="zwapi__serial_8c.html#a0accbbf7ddb7aeab10f5df1fe3df6642" target="_top" xlink:title=" ">
<polygon fill="none" stroke="black" points="1474,-242.5 1474,-261.5 1614,-261.5 1614,-242.5 1474,-242.5"/>
<text text-anchor="middle" x="1544" y="-249.5" font-family="Helvetica,sans-Serif" font-size="10.00">zwapi_serial_log_timestamp</text>
</a>
</g>
</g>
<!-- Node14&#45;&gt;Node15 -->
<g id="edge15" class="edge">
<title>Node14&#45;&gt;Node15</title>
<path fill="none" stroke="midnightblue" d="M1417.42,-220.51C1440.55,-226.31 1470.33,-233.78 1495.09,-239.99"/>
<polygon fill="midnightblue" stroke="midnightblue" points="1494.45,-243.43 1505,-242.47 1496.15,-236.64 1494.45,-243.43"/>
</g>
<!-- Node16 -->
<g id="node16" class="node">
<title>Node16</title>
<g id="a_node16"><a xlink:href="zwapi__serial_8c.html#abf18afb71e14daaf65d937149ef1639f" target="_top" xlink:title="Test if a is less than b + ms.">
<polygon fill="none" stroke="black" points="1490.5,-193 1490.5,-223 1597.5,-223 1597.5,-193 1490.5,-193"/>
<text text-anchor="start" x="1498.5" y="-211" font-family="Helvetica,sans-Serif" font-size="10.00">zwapi_serial_timeval</text>
<text text-anchor="middle" x="1544" y="-200" font-family="Helvetica,sans-Serif" font-size="10.00">_a_lt_b_milis</text>
</a>
</g>
</g>
<!-- Node14&#45;&gt;Node16 -->
<g id="edge16" class="edge">
<title>Node14&#45;&gt;Node16</title>
<path fill="none" stroke="midnightblue" d="M1438.07,-209.93C1451.65,-209.68 1466.16,-209.41 1479.92,-209.16"/>
<polygon fill="midnightblue" stroke="midnightblue" points="1480.34,-212.65 1490.28,-208.97 1480.22,-205.65 1480.34,-212.65"/>
</g>
<!-- Node18 -->
<g id="node18" class="node">
<title>Node18</title>
<g id="a_node18"><a xlink:href="zwapi__serial_8c.html#aae586785021ac9a605cd77651429f0c9" target="_top" xlink:title="De&#45;Initialize the serial port.">
<polygon fill="none" stroke="black" points="1329,-19.5 1329,-38.5 1428,-38.5 1428,-19.5 1329,-19.5"/>
<text text-anchor="middle" x="1378.5" y="-26.5" font-family="Helvetica,sans-Serif" font-size="10.00">zwapi_serial_close</text>
</a>
</g>
</g>
<!-- Node17&#45;&gt;Node18 -->
<g id="edge18" class="edge">
<title>Node17&#45;&gt;Node18</title>
<path fill="none" stroke="midnightblue" d="M1271.14,-41.83C1286.31,-40 1303.06,-37.98 1318.68,-36.1"/>
<polygon fill="midnightblue" stroke="midnightblue" points="1319.25,-39.55 1328.76,-34.88 1318.42,-32.6 1319.25,-39.55"/>
</g>
<!-- Node19 -->
<g id="node19" class="node">
<title>Node19</title>
<g id="a_node19"><a xlink:href="zwapi__serial_8c.html#a07b09de97f4932d882fc77e191c44638" target="_top" xlink:title="Initialize the serial port to 115200 BAUD 8N1.">
<polygon fill="none" stroke="black" points="1334,-57.5 1334,-76.5 1423,-76.5 1423,-57.5 1334,-57.5"/>
<text text-anchor="middle" x="1378.5" y="-64.5" font-family="Helvetica,sans-Serif" font-size="10.00">zwapi_serial_init</text>
</a>
</g>
</g>
<!-- Node17&#45;&gt;Node19 -->
<g id="edge19" class="edge">
<title>Node17&#45;&gt;Node19</title>
<path fill="none" stroke="midnightblue" d="M1271.14,-54.17C1287.87,-56.19 1306.51,-58.44 1323.46,-60.48"/>
<polygon fill="midnightblue" stroke="midnightblue" points="1323.41,-64 1333.76,-61.72 1324.25,-57.05 1323.41,-64"/>
</g>
<!-- Node20 -->
<g id="node20" class="node">
<title>Node20</title>
<g id="a_node20"><a xlink:href="zwapi__serial_8c.html#aefeac5909b0bf6411db1492f69c3bc68" target="_top" xlink:title=" ">
<polygon fill="none" stroke="black" points="1484.5,-57.5 1484.5,-76.5 1603.5,-76.5 1603.5,-57.5 1484.5,-57.5"/>
<text text-anchor="middle" x="1544" y="-64.5" font-family="Helvetica,sans-Serif" font-size="10.00">zwapi_open_serial_port</text>
</a>
</g>
</g>
<!-- Node19&#45;&gt;Node20 -->
<g id="edge20" class="edge">
<title>Node19&#45;&gt;Node20</title>
<path fill="none" stroke="midnightblue" d="M1423.31,-67C1438.97,-67 1457.01,-67 1474.26,-67"/>
<polygon fill="midnightblue" stroke="midnightblue" points="1474.3,-70.5 1484.3,-67 1474.3,-63.5 1474.3,-70.5"/>
</g>
<!-- Node22&#45;&gt;Node12 -->
<g id="edge24" class="edge">
<title>Node22&#45;&gt;Node12</title>
<path fill="none" stroke="midnightblue" d="M1108.37,-128.65C1124.9,-128.86 1143.19,-129.08 1160.02,-129.29"/>
<polygon fill="midnightblue" stroke="midnightblue" points="1160.24,-132.79 1170.28,-129.41 1160.33,-125.79 1160.24,-132.79"/>
</g>
<!-- Node22&#45;&gt;Node14 -->
<g id="edge25" class="edge">
<title>Node22&#45;&gt;Node14</title>
<path fill="none" stroke="midnightblue" d="M1077.89,-118.42C1120.38,-102.17 1213.48,-73.84 1283,-105 1322.92,-122.89 1352.9,-166.91 1367.54,-192.24"/>
<polygon fill="midnightblue" stroke="midnightblue" points="1364.63,-194.2 1372.55,-201.23 1370.74,-190.79 1364.63,-194.2"/>
</g>
<!-- Node22&#45;&gt;Node21 -->
<g id="edge26" class="edge">
<title>Node22&#45;&gt;Node21</title>
<path fill="none" stroke="midnightblue" d="M1088.77,-137.53C1113.58,-144.53 1147.49,-154.1 1174.35,-161.68"/>
<polygon fill="midnightblue" stroke="midnightblue" points="1173.69,-165.13 1184.27,-164.48 1175.6,-158.4 1173.69,-165.13"/>
</g>
<!-- Node23 -->
<g id="node23" class="node">
<title>Node23</title>
<g id="a_node23"><a xlink:href="zwapi__connection_8c.html#a96d24d537c5b8d6aa0aa6a7638ba2f09" target="_top" xlink:title=" ">
<polygon fill="none" stroke="black" points="1161.5,-0.5 1161.5,-19.5 1276.5,-19.5 1276.5,-0.5 1161.5,-0.5"/>
<text text-anchor="middle" x="1219" y="-7.5" font-family="Helvetica,sans-Serif" font-size="10.00">zwapi_frame_to_string</text>
</a>
</g>
</g>
<!-- Node22&#45;&gt;Node23 -->
<g id="edge23" class="edge">
<title>Node22&#45;&gt;Node23</title>
<path fill="none" stroke="midnightblue" d="M1062.12,-118.27C1077.09,-98.51 1113.85,-53.48 1155,-29 1158.59,-26.86 1162.44,-24.95 1166.4,-23.24"/>
<polygon fill="midnightblue" stroke="midnightblue" points="1167.72,-26.48 1175.78,-19.61 1165.19,-19.96 1167.72,-26.48"/>
</g>
<!-- Node25&#45;&gt;Node7 -->
<g id="edge41" class="edge">
<title>Node25&#45;&gt;Node7</title>
<path fill="none" stroke="midnightblue" d="M935.09,-413.13C955.3,-420.3 979.64,-428.95 1000.94,-436.51"/>
<polygon fill="midnightblue" stroke="midnightblue" points="999.9,-439.85 1010.49,-439.9 1002.24,-433.26 999.9,-439.85"/>
</g>
<!-- Node26 -->
<g id="node26" class="node">
<title>Node26</title>
<g id="a_node26"><a xlink:href="zwapi__connection_8c.html#a1e45c6c9695b5e7b415adfad40080720" target="_top" xlink:title="Parses serial data sent from the Z&#45;Wave module to the serial port. Should be frequently called by mai...">
<polygon fill="none" stroke="black" points="989,-270.5 989,-289.5 1119,-289.5 1119,-270.5 989,-270.5"/>
<text text-anchor="middle" x="1054" y="-277.5" font-family="Helvetica,sans-Serif" font-size="10.00">zwapi_connection_refresh</text>
</a>
</g>
</g>
<!-- Node25&#45;&gt;Node26 -->
<g id="edge30" class="edge">
<title>Node25&#45;&gt;Node26</title>
<path fill="none" stroke="midnightblue" d="M913.15,-382.82C943.67,-360.38 1000.52,-318.58 1031.51,-295.8"/>
<polygon fill="midnightblue" stroke="midnightblue" points="1033.9,-298.39 1039.88,-289.65 1029.75,-292.75 1033.9,-298.39"/>
</g>
<!-- Node26&#45;&gt;Node12 -->
<g id="edge32" class="edge">
<title>Node26&#45;&gt;Node12</title>
<path fill="none" stroke="midnightblue" d="M1060.25,-270.46C1073.34,-247.49 1109.64,-188.55 1155,-155 1157.47,-153.17 1160.1,-151.45 1162.82,-149.84"/>
<polygon fill="midnightblue" stroke="midnightblue" points="1164.59,-152.87 1171.77,-145.07 1161.3,-146.69 1164.59,-152.87"/>
</g>
<!-- Node26&#45;&gt;Node13 -->
<g id="edge39" class="edge">
<title>Node26&#45;&gt;Node13</title>
<path fill="none" stroke="midnightblue" d="M1083.09,-270.49C1094.4,-266.39 1107.47,-261.33 1119,-256 1135.61,-248.32 1138.41,-243.72 1155,-236 1163.25,-232.16 1172.3,-228.44 1180.9,-225.12"/>
<polygon fill="midnightblue" stroke="midnightblue" points="1182.23,-228.36 1190.36,-221.56 1179.77,-221.81 1182.23,-228.36"/>
</g>
<!-- Node26&#45;&gt;Node21 -->
<g id="edge40" class="edge">
<title>Node26&#45;&gt;Node21</title>
<path fill="none" stroke="midnightblue" d="M1093.57,-270.42C1102.59,-266.92 1111.68,-262.23 1119,-256 1143.56,-235.1 1129.77,-213.08 1155,-193 1157.3,-191.17 1159.78,-189.51 1162.38,-188.01"/>
<polygon fill="midnightblue" stroke="midnightblue" points="1164.13,-191.05 1171.57,-183.51 1161.05,-184.77 1164.13,-191.05"/>
</g>
<!-- Node26&#45;&gt;Node24 -->
<g id="edge31" class="edge">
<title>Node26&#45;&gt;Node24</title>
<path fill="none" stroke="midnightblue" d="M1092.24,-289.6C1101.58,-293.14 1111.16,-297.84 1119,-304 1141.38,-321.6 1132.66,-339.34 1155,-357 1156.75,-358.39 1158.59,-359.7 1160.5,-360.94"/>
<polygon fill="midnightblue" stroke="midnightblue" points="1158.81,-364 1169.22,-365.95 1162.29,-357.93 1158.81,-364"/>
</g>
<!-- Node27 -->
<g id="node27" class="node">
<title>Node27</title>
<g id="a_node27"><a xlink:href="zwapi__serial_8c.html#a538134f9fdbb1ce052667b3a041357bd" target="_top" xlink:title="Reads the output of the serial port device and stores the content in a buffer.">
<polygon fill="none" stroke="black" points="1319,-241.5 1319,-260.5 1438,-260.5 1438,-241.5 1319,-241.5"/>
<text text-anchor="middle" x="1378.5" y="-248.5" font-family="Helvetica,sans-Serif" font-size="10.00">zwapi_serial_get_buffer</text>
</a>
</g>
</g>
<!-- Node26&#45;&gt;Node27 -->
<g id="edge33" class="edge">
<title>Node26&#45;&gt;Node27</title>
<path fill="none" stroke="midnightblue" d="M1119.26,-272.65C1131.13,-271.38 1143.44,-270.1 1155,-269 1206.54,-264.08 1264.88,-259.39 1308.89,-256.04"/>
<polygon fill="midnightblue" stroke="midnightblue" points="1309.19,-259.52 1318.9,-255.28 1308.66,-252.54 1309.19,-259.52"/>
</g>
<!-- Node28 -->
<g id="node28" class="node">
<title>Node28</title>
<g id="a_node28"><a xlink:href="zwapi__serial_8c.html#abb082b1e7e727203e3ca5fbeb41f7c2b" target="_top" xlink:title="Reads a byte from the serial port device.">
<polygon fill="none" stroke="black" points="1162.5,-278.5 1162.5,-297.5 1275.5,-297.5 1275.5,-278.5 1162.5,-278.5"/>
<text text-anchor="middle" x="1219" y="-285.5" font-family="Helvetica,sans-Serif" font-size="10.00">zwapi_serial_get_byte</text>
</a>
</g>
</g>
<!-- Node26&#45;&gt;Node28 -->
<g id="edge36" class="edge">
<title>Node26&#45;&gt;Node28</title>
<path fill="none" stroke="midnightblue" d="M1119.42,-283.16C1130.21,-283.69 1141.42,-284.24 1152.24,-284.77"/>
<polygon fill="midnightblue" stroke="midnightblue" points="1152.31,-288.28 1162.47,-285.27 1152.66,-281.29 1152.31,-288.28"/>
</g>
<!-- Node29 -->
<g id="node29" class="node">
<title>Node29</title>
<g id="a_node29"><a xlink:href="zwapi__serial_8c.html#a9a952dc2b34d92960246f6dc4e7d58f7" target="_top" xlink:title="Check the file descriptor for the serial device is available for I/O operations.">
<polygon fill="none" stroke="black" points="1168.5,-317 1168.5,-347 1269.5,-347 1269.5,-317 1168.5,-317"/>
<text text-anchor="start" x="1176.5" y="-335" font-family="Helvetica,sans-Serif" font-size="10.00">zwapi_serial_is_file</text>
<text text-anchor="middle" x="1219" y="-324" font-family="Helvetica,sans-Serif" font-size="10.00">_available</text>
</a>
</g>
</g>
<!-- Node26&#45;&gt;Node29 -->
<g id="edge38" class="edge">
<title>Node26&#45;&gt;Node29</title>
<path fill="none" stroke="midnightblue" d="M1084.9,-289.54C1106.17,-296.32 1135.4,-305.65 1161.06,-313.83"/>
<polygon fill="midnightblue" stroke="midnightblue" points="1160.1,-317.2 1170.69,-316.91 1162.23,-310.53 1160.1,-317.2"/>
</g>
<!-- Node27&#45;&gt;Node15 -->
<g id="edge34" class="edge">
<title>Node27&#45;&gt;Node15</title>
<path fill="none" stroke="midnightblue" d="M1438.07,-251.36C1446.43,-251.41 1455.15,-251.46 1463.82,-251.52"/>
<polygon fill="midnightblue" stroke="midnightblue" points="1463.95,-255.02 1473.97,-251.58 1463.99,-248.02 1463.95,-255.02"/>
</g>
<!-- Node27&#45;&gt;Node16 -->
<g id="edge35" class="edge">
<title>Node27&#45;&gt;Node16</title>
<path fill="none" stroke="midnightblue" d="M1415.79,-241.46C1434.8,-236.46 1458.61,-230.19 1480.48,-224.44"/>
<polygon fill="midnightblue" stroke="midnightblue" points="1481.59,-227.77 1490.37,-221.84 1479.81,-221 1481.59,-227.77"/>
</g>
<!-- Node28&#45;&gt;Node27 -->
<g id="edge37" class="edge">
<title>Node28&#45;&gt;Node27</title>
<path fill="none" stroke="midnightblue" d="M1260.56,-278.47C1280.78,-273.72 1305.44,-267.93 1326.88,-262.89"/>
<polygon fill="midnightblue" stroke="midnightblue" points="1327.87,-266.25 1336.8,-260.56 1326.27,-259.44 1327.87,-266.25"/>
</g>
<!-- Node30&#45;&gt;Node21 -->
<g id="edge45" class="edge">
<title>Node30&#45;&gt;Node21</title>
<path fill="none" stroke="midnightblue" d="M919.44,-294.94C938.51,-284.62 964.89,-271.04 989,-261 1045.18,-237.6 1064.56,-245.19 1119,-218 1136.43,-209.3 1137.46,-201.47 1155,-193 1159.64,-190.76 1164.6,-188.72 1169.62,-186.88"/>
<polygon fill="midnightblue" stroke="midnightblue" points="1170.96,-190.12 1179.29,-183.58 1168.7,-183.49 1170.96,-190.12"/>
</g>
<!-- Node30&#45;&gt;Node24 -->
<g id="edge44" class="edge">
<title>Node30&#45;&gt;Node24</title>
<path fill="none" stroke="midnightblue" d="M943.63,-313.49C990.03,-317.53 1060.02,-325.83 1119,-342 1135.72,-346.58 1138.9,-350.58 1155,-357 1159.39,-358.75 1163.96,-360.55 1168.55,-362.33"/>
<polygon fill="midnightblue" stroke="midnightblue" points="1167.35,-365.61 1177.93,-365.95 1169.87,-359.08 1167.35,-365.61"/>
</g>
<!-- Node30&#45;&gt;Node26 -->
<g id="edge43" class="edge">
<title>Node30&#45;&gt;Node26</title>
<path fill="none" stroke="midnightblue" d="M943.72,-300.43C959,-297.57 975.9,-294.41 991.75,-291.45"/>
<polygon fill="midnightblue" stroke="midnightblue" points="992.8,-294.81 1001.99,-289.54 991.51,-287.93 992.8,-294.81"/>
</g>
<!-- Node32&#45;&gt;Node31 -->
<g id="edge50" class="edge">
<title>Node32&#45;&gt;Node31</title>
<path fill="none" stroke="midnightblue" d="M439.16,-318.96C449.39,-320.3 460.33,-321.73 471.24,-323.16"/>
<polygon fill="midnightblue" stroke="midnightblue" points="470.86,-326.64 481.23,-324.47 471.77,-319.7 470.86,-326.64"/>
</g>
<!-- Node33 -->
<g id="node33" class="node">
<title>Node33</title>
<g id="a_node33"><a xlink:href="group__ZWAPI__INIT.html#ga647114dcb008816008cf9389548b1a12" target="_top" xlink:title="Check if one of the serial API setup commands is supported.">
<polygon fill="none" stroke="black" points="488.5,-286.5 488.5,-305.5 621.5,-305.5 621.5,-286.5 488.5,-286.5"/>
<text text-anchor="middle" x="555" y="-293.5" font-family="Helvetica,sans-Serif" font-size="10.00">zwapi_support_setup_func</text>
</a>
</g>
</g>
<!-- Node32&#45;&gt;Node33 -->
<g id="edge51" class="edge">
<title>Node32&#45;&gt;Node33</title>
<path fill="none" stroke="midnightblue" d="M439.16,-306.94C451.57,-305.76 465.02,-304.47 478.2,-303.22"/>
<polygon fill="midnightblue" stroke="midnightblue" points="478.58,-306.7 488.2,-302.27 477.92,-299.73 478.58,-306.7"/>
</g>
<!-- Node34 -->
<g id="node34" class="node">
<title>Node34</title>
<g id="a_node34"><a xlink:href="zwapi__init_8c.html#af1ea16c1c68903ed2ac99307e0870929" target="_top" xlink:title=" ">
<polygon fill="none" stroke="black" points="671,-262.5 671,-281.5 790,-281.5 790,-262.5 671,-262.5"/>
<text text-anchor="middle" x="730.5" y="-269.5" font-family="Helvetica,sans-Serif" font-size="10.00">is_bit_num_set_in_byte</text>
</a>
</g>
</g>
<!-- Node33&#45;&gt;Node34 -->
<g id="edge52" class="edge">
<title>Node33&#45;&gt;Node34</title>
<path fill="none" stroke="midnightblue" d="M621.59,-286.93C634.39,-285.16 647.84,-283.3 660.74,-281.51"/>
<polygon fill="midnightblue" stroke="midnightblue" points="661.51,-284.94 670.94,-280.1 660.55,-278 661.51,-284.94"/>
</g>
</g>
</svg>
