<?xml version="1.0" encoding="UTF-8" standalone="no"?>
<!DOCTYPE svg PUBLIC "-//W3C//DTD SVG 1.1//EN"
 "http://www.w3.org/Graphics/SVG/1.1/DTD/svg11.dtd">
<!-- Generated by graphviz version 2.43.0 (0)
 -->
<!-- Title: zwave_command_class_get_endpoint_id_node Pages: 1 -->
<svg width="978pt" height="273pt"
 viewBox="0.00 0.00 978.00 273.00" xmlns="http://www.w3.org/2000/svg" xmlns:xlink="http://www.w3.org/1999/xlink">
<g id="graph0" class="graph" transform="scale(1 1) rotate(0) translate(4 269)">
<title>zwave_command_class_get_endpoint_id_node</title>
<!-- Node1 -->
<g id="node1" class="node">
<title>Node1</title>
<g id="a_node1"><a xlink:title="Gets the Attribute Store Endpoint ID node for a given Z&#45;Wave NodeID / Endpoint ID in our network.">
<polygon fill="#bfbfbf" stroke="black" points="848,-120 848,-150 970,-150 970,-120 848,-120"/>
<text text-anchor="start" x="856" y="-138" font-family="Helvetica,sans-Serif" font-size="10.00">zwave_command_class</text>
<text text-anchor="middle" x="909" y="-127" font-family="Helvetica,sans-Serif" font-size="10.00">_get_endpoint_id_node</text>
</a>
</g>
</g>
<!-- Node2 -->
<g id="node2" class="node">
<title>Node2</title>
<g id="a_node2"><a xlink:href="group__zwave__command__class__firmware__update.html#ga335f95b87a09e3ae2fa3825a4354e480" target="_top" xlink:title="Abort any ongoing Firmware operation with a node.">
<polygon fill="none" stroke="black" points="681,-223.5 681,-264.5 812,-264.5 812,-223.5 681,-223.5"/>
<text text-anchor="start" x="689" y="-252.5" font-family="Helvetica,sans-Serif" font-size="10.00">command_class_firmware</text>
<text text-anchor="start" x="689" y="-241.5" font-family="Helvetica,sans-Serif" font-size="10.00">_update_abort_ongoing</text>
<text text-anchor="middle" x="746.5" y="-230.5" font-family="Helvetica,sans-Serif" font-size="10.00">_firmware_operation</text>
</a>
</g>
</g>
<!-- Node1&#45;&gt;Node2 -->
<g id="edge1" class="edge">
<title>Node1&#45;&gt;Node2</title>
<path fill="none" stroke="midnightblue" d="M884.88,-156.88C866.19,-173.83 838.69,-197.19 812,-214 806.77,-217.29 801.13,-220.44 795.43,-223.38"/>
<polygon fill="midnightblue" stroke="midnightblue" points="887.32,-159.38 892.32,-150.04 882.59,-154.23 887.32,-159.38"/>
</g>
<!-- Node3 -->
<g id="node3" class="node">
<title>Node3</title>
<g id="a_node3"><a xlink:href="group__zwave__command__class__firmware__update.html#gad39d3d19db09770af92857ed735d0e18" target="_top" xlink:title="Attempts to start a Firmware Update procedure for a node.">
<polygon fill="none" stroke="black" points="681,-163.5 681,-204.5 812,-204.5 812,-163.5 681,-163.5"/>
<text text-anchor="start" x="689" y="-192.5" font-family="Helvetica,sans-Serif" font-size="10.00">command_class_firmware</text>
<text text-anchor="start" x="689" y="-181.5" font-family="Helvetica,sans-Serif" font-size="10.00">_update_initiate_firmware</text>
<text text-anchor="middle" x="746.5" y="-170.5" font-family="Helvetica,sans-Serif" font-size="10.00">_update</text>
</a>
</g>
</g>
<!-- Node1&#45;&gt;Node3 -->
<g id="edge2" class="edge">
<title>Node1&#45;&gt;Node3</title>
<path fill="none" stroke="midnightblue" d="M848.72,-153.1C836.82,-156.73 824.25,-160.57 812.18,-164.25"/>
<polygon fill="midnightblue" stroke="midnightblue" points="849.99,-156.37 858.54,-150.1 847.95,-149.67 849.99,-156.37"/>
</g>
<!-- Node4 -->
<g id="node4" class="node">
<title>Node4</title>
<g id="a_node4"><a xlink:href="zwave__command__class__configuration__control_8c.html#a2aadb212696a0652df63fec1b6d0a6b6" target="_top" xlink:title=" ">
<polygon fill="none" stroke="black" points="687.5,-125.5 687.5,-144.5 805.5,-144.5 805.5,-125.5 687.5,-125.5"/>
<text text-anchor="middle" x="746.5" y="-132.5" font-family="Helvetica,sans-Serif" font-size="10.00">get_parameter_id_node</text>
</a>
</g>
</g>
<!-- Node1&#45;&gt;Node4 -->
<g id="edge3" class="edge">
<title>Node1&#45;&gt;Node4</title>
<path fill="none" stroke="midnightblue" d="M837.64,-135C826.96,-135 816.04,-135 805.66,-135"/>
<polygon fill="midnightblue" stroke="midnightblue" points="837.78,-138.5 847.78,-135 837.78,-131.5 837.78,-138.5"/>
</g>
<!-- Node10 -->
<g id="node10" class="node">
<title>Node10</title>
<g id="a_node10"><a xlink:href="zwave__command__class__configuration__control_8c.html#accd85e03b56e05ab3299ece4ee2f07a3" target="_top" xlink:title="Handle incoming Configuration Bulk Report Commands.">
<polygon fill="none" stroke="black" points="512.5,-60.5 512.5,-101.5 634.5,-101.5 634.5,-60.5 512.5,-60.5"/>
<text text-anchor="start" x="520.5" y="-89.5" font-family="Helvetica,sans-Serif" font-size="10.00">zwave_command_class</text>
<text text-anchor="start" x="520.5" y="-78.5" font-family="Helvetica,sans-Serif" font-size="10.00">_configuration_handle</text>
<text text-anchor="middle" x="573.5" y="-67.5" font-family="Helvetica,sans-Serif" font-size="10.00">_bulk_report_command</text>
</a>
</g>
</g>
<!-- Node1&#45;&gt;Node10 -->
<g id="edge10" class="edge">
<title>Node1&#45;&gt;Node10</title>
<path fill="none" stroke="midnightblue" d="M838.08,-120.75C829.31,-119.08 820.45,-117.46 812,-116 751.83,-105.62 682.75,-95.66 634.66,-89.03"/>
<polygon fill="midnightblue" stroke="midnightblue" points="837.43,-124.19 847.91,-122.64 838.75,-117.31 837.43,-124.19"/>
</g>
<!-- Node11 -->
<g id="node11" class="node">
<title>Node11</title>
<g id="a_node11"><a xlink:href="zwave__command__class__configuration__control_8c.html#ad744ab83042de2b3c67bcc7b9411b874" target="_top" xlink:title="Handle incoming Configuration Properties Report Commands.">
<polygon fill="none" stroke="black" points="502,-0.5 502,-41.5 645,-41.5 645,-0.5 502,-0.5"/>
<text text-anchor="start" x="510" y="-29.5" font-family="Helvetica,sans-Serif" font-size="10.00">zwave_command_class</text>
<text text-anchor="start" x="510" y="-18.5" font-family="Helvetica,sans-Serif" font-size="10.00">_configuration_handle</text>
<text text-anchor="middle" x="573.5" y="-7.5" font-family="Helvetica,sans-Serif" font-size="10.00">_properties_report_command</text>
</a>
</g>
</g>
<!-- Node1&#45;&gt;Node11 -->
<g id="edge12" class="edge">
<title>Node1&#45;&gt;Node11</title>
<path fill="none" stroke="midnightblue" d="M868.62,-115.41C851.46,-107.28 830.98,-98.1 812,-91 756.95,-70.39 692.94,-51.83 645.25,-39"/>
<polygon fill="midnightblue" stroke="midnightblue" points="867.25,-118.63 877.78,-119.8 870.27,-112.32 867.25,-118.63"/>
</g>
<!-- Node5 -->
<g id="node5" class="node">
<title>Node5</title>
<g id="a_node5"><a xlink:href="zwave__command__class__configuration__control_8c.html#a1b9bd71581a2b43662357bf5ba5db309" target="_top" xlink:title="Handle incoming Configuration Info Report Commands.">
<polygon fill="none" stroke="black" points="512.5,-180.5 512.5,-221.5 634.5,-221.5 634.5,-180.5 512.5,-180.5"/>
<text text-anchor="start" x="520.5" y="-209.5" font-family="Helvetica,sans-Serif" font-size="10.00">zwave_command_class</text>
<text text-anchor="start" x="520.5" y="-198.5" font-family="Helvetica,sans-Serif" font-size="10.00">_configuration_handle</text>
<text text-anchor="middle" x="573.5" y="-187.5" font-family="Helvetica,sans-Serif" font-size="10.00">_info_report_command</text>
</a>
</g>
</g>
<!-- Node4&#45;&gt;Node5 -->
<g id="edge4" class="edge">
<title>Node4&#45;&gt;Node5</title>
<path fill="none" stroke="midnightblue" d="M699.57,-147.58C693.28,-149.58 686.94,-151.74 681,-154 664.46,-160.3 661.14,-163.76 645,-171 638.08,-174.1 630.75,-177.31 623.53,-180.43"/>
<polygon fill="midnightblue" stroke="midnightblue" points="700.81,-150.86 709.35,-144.58 698.76,-144.16 700.81,-150.86"/>
</g>
<!-- Node9 -->
<g id="node9" class="node">
<title>Node9</title>
<g id="a_node9"><a xlink:href="zwave__command__class__configuration__control_8c.html#af79edd8997b1b51917ac3b53b9d2c0cb" target="_top" xlink:title="Handle incoming Configuration Name Report Commands.">
<polygon fill="none" stroke="black" points="511.5,-120.5 511.5,-161.5 635.5,-161.5 635.5,-120.5 511.5,-120.5"/>
<text text-anchor="start" x="519.5" y="-149.5" font-family="Helvetica,sans-Serif" font-size="10.00">zwave_command_class</text>
<text text-anchor="start" x="519.5" y="-138.5" font-family="Helvetica,sans-Serif" font-size="10.00">_configuration_handle</text>
<text text-anchor="middle" x="573.5" y="-127.5" font-family="Helvetica,sans-Serif" font-size="10.00">_name_report_command</text>
</a>
</g>
</g>
<!-- Node4&#45;&gt;Node9 -->
<g id="edge8" class="edge">
<title>Node4&#45;&gt;Node9</title>
<path fill="none" stroke="midnightblue" d="M676.82,-137.41C663.16,-137.89 648.91,-138.39 635.52,-138.86"/>
<polygon fill="midnightblue" stroke="midnightblue" points="677.26,-140.9 687.13,-137.05 677.01,-133.9 677.26,-140.9"/>
</g>
<!-- Node6 -->
<g id="node6" class="node">
<title>Node6</title>
<g id="a_node6"><a xlink:href="zwave__command__class__configuration__control_8c.html#a47d754a17f1ac5b2d479005308d7084f" target="_top" xlink:title="Dispatches incoming Configuration Commands to individual command handlers.">
<polygon fill="none" stroke="black" points="344,-90.5 344,-131.5 466,-131.5 466,-90.5 344,-90.5"/>
<text text-anchor="start" x="352" y="-119.5" font-family="Helvetica,sans-Serif" font-size="10.00">zwave_command_class</text>
<text text-anchor="start" x="352" y="-108.5" font-family="Helvetica,sans-Serif" font-size="10.00">_configuration_control</text>
<text text-anchor="middle" x="405" y="-97.5" font-family="Helvetica,sans-Serif" font-size="10.00">_handler</text>
</a>
</g>
</g>
<!-- Node5&#45;&gt;Node6 -->
<g id="edge5" class="edge">
<title>Node5&#45;&gt;Node6</title>
<path fill="none" stroke="midnightblue" d="M512.26,-176.12C508.76,-174.44 505.32,-172.73 502,-171 479.34,-159.19 454.94,-143.9 436.41,-131.71"/>
<polygon fill="midnightblue" stroke="midnightblue" points="511.06,-179.42 521.61,-180.47 514.02,-173.08 511.06,-179.42"/>
</g>
<!-- Node7 -->
<g id="node7" class="node">
<title>Node7</title>
<g id="a_node7"><a xlink:href="group__zwave__command__class__configuration.html#gacc11ad9afa837acce0d1aada6408e1ce" target="_top" xlink:title="This function initialize the Configuration Command Class handler.">
<polygon fill="none" stroke="black" points="186,-96 186,-126 308,-126 308,-96 186,-96"/>
<text text-anchor="start" x="194" y="-114" font-family="Helvetica,sans-Serif" font-size="10.00">zwave_command_class</text>
<text text-anchor="middle" x="247" y="-103" font-family="Helvetica,sans-Serif" font-size="10.00">_configuration_init</text>
</a>
</g>
</g>
<!-- Node6&#45;&gt;Node7 -->
<g id="edge6" class="edge">
<title>Node6&#45;&gt;Node7</title>
<path fill="none" stroke="midnightblue" d="M333.46,-111C325.01,-111 316.44,-111 308.15,-111"/>
<polygon fill="midnightblue" stroke="midnightblue" points="333.69,-114.5 343.69,-111 333.69,-107.5 333.69,-114.5"/>
</g>
<!-- Node8 -->
<g id="node8" class="node">
<title>Node8</title>
<g id="a_node8"><a xlink:href="group__command__classes__fixt.html#ga5272651939ced1723158340039e8da19" target="_top" xlink:title="Setup fixture for Z&#45;Wave Command Classes.">
<polygon fill="none" stroke="black" points="0,-101.5 0,-120.5 150,-120.5 150,-101.5 0,-101.5"/>
<text text-anchor="middle" x="75" y="-108.5" font-family="Helvetica,sans-Serif" font-size="10.00">zwave_command_classes_init</text>
</a>
</g>
</g>
<!-- Node7&#45;&gt;Node8 -->
<g id="edge7" class="edge">
<title>Node7&#45;&gt;Node8</title>
<path fill="none" stroke="midnightblue" d="M175.51,-111C167.16,-111 158.61,-111 150.21,-111"/>
<polygon fill="midnightblue" stroke="midnightblue" points="175.59,-114.5 185.59,-111 175.59,-107.5 175.59,-114.5"/>
</g>
<!-- Node9&#45;&gt;Node6 -->
<g id="edge9" class="edge">
<title>Node9&#45;&gt;Node6</title>
<path fill="none" stroke="midnightblue" d="M501.29,-128.17C489.6,-126.06 477.59,-123.9 466.21,-121.85"/>
<polygon fill="midnightblue" stroke="midnightblue" points="500.98,-131.67 511.45,-130 502.23,-124.78 500.98,-131.67"/>
</g>
<!-- Node10&#45;&gt;Node6 -->
<g id="edge11" class="edge">
<title>Node10&#45;&gt;Node6</title>
<path fill="none" stroke="midnightblue" d="M502.35,-93.64C490.27,-95.82 477.81,-98.06 466.02,-100.19"/>
<polygon fill="midnightblue" stroke="midnightblue" points="503.17,-97.05 512.39,-91.83 501.93,-90.16 503.17,-97.05"/>
</g>
<!-- Node11&#45;&gt;Node6 -->
<g id="edge13" class="edge">
<title>Node11&#45;&gt;Node6</title>
<path fill="none" stroke="midnightblue" d="M512.26,-45.88C508.76,-47.56 505.32,-49.27 502,-51 479.34,-62.81 454.94,-78.1 436.41,-90.29"/>
<polygon fill="midnightblue" stroke="midnightblue" points="514.02,-48.92 521.61,-41.53 511.06,-42.58 514.02,-48.92"/>
</g>
</g>
</svg>
