<?xml version="1.0" encoding="UTF-8" standalone="no"?>
<!DOCTYPE svg PUBLIC "-//W3C//DTD SVG 1.1//EN"
 "http://www.w3.org/Graphics/SVG/1.1/DTD/svg11.dtd">
<!-- Generated by graphviz version 2.43.0 (0)
 -->
<!-- Title: zwave_command_class_supervision_find_session_by_unique_id Pages: 1 -->
<svg width="799pt" height="129pt"
 viewBox="0.00 0.00 799.00 128.50" xmlns="http://www.w3.org/2000/svg" xmlns:xlink="http://www.w3.org/1999/xlink">
<g id="graph0" class="graph" transform="scale(1 1) rotate(0) translate(4 124.5)">
<title>zwave_command_class_supervision_find_session_by_unique_id</title>
<!-- Node1 -->
<g id="node1" class="node">
<title>Node1</title>
<g id="a_node1"><a xlink:title=" ">
<polygon fill="#bfbfbf" stroke="black" points="660,-19 660,-60 791,-60 791,-19 660,-19"/>
<text text-anchor="start" x="668" y="-48" font-family="Helvetica,sans-Serif" font-size="10.00">zwave_command_class</text>
<text text-anchor="start" x="668" y="-37" font-family="Helvetica,sans-Serif" font-size="10.00">_supervision_find_session</text>
<text text-anchor="middle" x="725.5" y="-26" font-family="Helvetica,sans-Serif" font-size="10.00">_by_unique_id</text>
</a>
</g>
</g>
<!-- Node2 -->
<g id="node2" class="node">
<title>Node2</title>
<g id="a_node2"><a xlink:href="zwave__command__class__supervision_8c.html#a033177d7c253b3c99982f2a591dd1180" target="_top" xlink:title=" ">
<polygon fill="none" stroke="black" points="502,-79 502,-120 624,-120 624,-79 502,-79"/>
<text text-anchor="start" x="510" y="-108" font-family="Helvetica,sans-Serif" font-size="10.00">zwave_command_class</text>
<text text-anchor="start" x="510" y="-97" font-family="Helvetica,sans-Serif" font-size="10.00">_supervision_handle</text>
<text text-anchor="middle" x="563" y="-86" font-family="Helvetica,sans-Serif" font-size="10.00">_supervision_report</text>
</a>
</g>
</g>
<!-- Node1&#45;&gt;Node2 -->
<g id="edge1" class="edge">
<title>Node1&#45;&gt;Node2</title>
<path fill="none" stroke="midnightblue" d="M659.6,-63.76C646.16,-68.79 632.12,-74.04 619.06,-78.92"/>
<polygon fill="midnightblue" stroke="midnightblue" points="661.12,-66.93 669.27,-60.15 658.67,-60.37 661.12,-66.93"/>
</g>
<!-- Node6 -->
<g id="node6" class="node">
<title>Node6</title>
<g id="a_node6"><a xlink:href="zwave__command__class__supervision_8c.html#aace8983e67aecb69a062967f18389354" target="_top" xlink:title="Callback function registered to Z&#45;Wave TX used to track when a Supervision frame has been sent succes...">
<polygon fill="none" stroke="black" points="502,-19 502,-60 624,-60 624,-19 502,-19"/>
<text text-anchor="start" x="510" y="-48" font-family="Helvetica,sans-Serif" font-size="10.00">zwave_command_class</text>
<text text-anchor="start" x="510" y="-37" font-family="Helvetica,sans-Serif" font-size="10.00">_supervision_on_send</text>
<text text-anchor="middle" x="563" y="-26" font-family="Helvetica,sans-Serif" font-size="10.00">_data_complete</text>
</a>
</g>
</g>
<!-- Node1&#45;&gt;Node6 -->
<g id="edge5" class="edge">
<title>Node1&#45;&gt;Node6</title>
<path fill="none" stroke="midnightblue" d="M649.41,-39.5C640.93,-39.5 632.38,-39.5 624.13,-39.5"/>
<polygon fill="midnightblue" stroke="midnightblue" points="649.68,-43 659.68,-39.5 649.68,-36 649.68,-43"/>
</g>
<!-- Node7 -->
<g id="node7" class="node">
<title>Node7</title>
<g id="a_node7"><a xlink:href="group__zwave__command__class__supervision__handler.html#ga42cb4c65214e0c6b70f4b149a3e18fd9" target="_top" xlink:title="Take a frame and create a Supervision Session.">
<polygon fill="none" stroke="black" points="344,-0.5 344,-30.5 466,-30.5 466,-0.5 344,-0.5"/>
<text text-anchor="start" x="352" y="-18.5" font-family="Helvetica,sans-Serif" font-size="10.00">zwave_command_class</text>
<text text-anchor="middle" x="405" y="-7.5" font-family="Helvetica,sans-Serif" font-size="10.00">_supervision_send_data</text>
</a>
</g>
</g>
<!-- Node1&#45;&gt;Node7 -->
<g id="edge9" class="edge">
<title>Node1&#45;&gt;Node7</title>
<path fill="none" stroke="midnightblue" d="M656.41,-16.3C645.68,-13.48 634.62,-11.05 624,-9.5 570.99,-1.76 509.98,-4.41 466.01,-8.33"/>
<polygon fill="midnightblue" stroke="midnightblue" points="655.59,-19.7 666.16,-18.98 657.44,-12.95 655.59,-19.7"/>
</g>
<!-- Node3 -->
<g id="node3" class="node">
<title>Node3</title>
<g id="a_node3"><a xlink:href="zwave__command__class__supervision_8c.html#a81051603777138c5a8aa82e61c1a131b" target="_top" xlink:title=" ">
<polygon fill="none" stroke="black" points="344,-79 344,-120 466,-120 466,-79 344,-79"/>
<text text-anchor="start" x="352" y="-108" font-family="Helvetica,sans-Serif" font-size="10.00">zwave_command_class</text>
<text text-anchor="start" x="352" y="-97" font-family="Helvetica,sans-Serif" font-size="10.00">_supervision_control</text>
<text text-anchor="middle" x="405" y="-86" font-family="Helvetica,sans-Serif" font-size="10.00">_handler</text>
</a>
</g>
</g>
<!-- Node2&#45;&gt;Node3 -->
<g id="edge2" class="edge">
<title>Node2&#45;&gt;Node3</title>
<path fill="none" stroke="midnightblue" d="M491.46,-99.5C483.01,-99.5 474.44,-99.5 466.15,-99.5"/>
<polygon fill="midnightblue" stroke="midnightblue" points="491.69,-103 501.69,-99.5 491.69,-96 491.69,-103"/>
</g>
<!-- Node4 -->
<g id="node4" class="node">
<title>Node4</title>
<g id="a_node4"><a xlink:href="group__zwave__command__class__supervision__handler.html#gaeaff3d9d85a38b52f67f91ea41163a72" target="_top" xlink:title="Setup fixture for the Supervision Command Class.">
<polygon fill="none" stroke="black" points="186,-84.5 186,-114.5 308,-114.5 308,-84.5 186,-84.5"/>
<text text-anchor="start" x="194" y="-102.5" font-family="Helvetica,sans-Serif" font-size="10.00">zwave_command_class</text>
<text text-anchor="middle" x="247" y="-91.5" font-family="Helvetica,sans-Serif" font-size="10.00">_supervision_init</text>
</a>
</g>
</g>
<!-- Node3&#45;&gt;Node4 -->
<g id="edge3" class="edge">
<title>Node3&#45;&gt;Node4</title>
<path fill="none" stroke="midnightblue" d="M333.46,-99.5C325.01,-99.5 316.44,-99.5 308.15,-99.5"/>
<polygon fill="midnightblue" stroke="midnightblue" points="333.69,-103 343.69,-99.5 333.69,-96 333.69,-103"/>
</g>
<!-- Node5 -->
<g id="node5" class="node">
<title>Node5</title>
<g id="a_node5"><a xlink:href="group__command__classes__fixt.html#ga5272651939ced1723158340039e8da19" target="_top" xlink:title="Setup fixture for Z&#45;Wave Command Classes.">
<polygon fill="none" stroke="black" points="0,-90 0,-109 150,-109 150,-90 0,-90"/>
<text text-anchor="middle" x="75" y="-97" font-family="Helvetica,sans-Serif" font-size="10.00">zwave_command_classes_init</text>
</a>
</g>
</g>
<!-- Node4&#45;&gt;Node5 -->
<g id="edge4" class="edge">
<title>Node4&#45;&gt;Node5</title>
<path fill="none" stroke="midnightblue" d="M175.51,-99.5C167.16,-99.5 158.61,-99.5 150.21,-99.5"/>
<polygon fill="midnightblue" stroke="midnightblue" points="175.59,-103 185.59,-99.5 175.59,-96 175.59,-103"/>
</g>
<!-- Node6&#45;&gt;Node7 -->
<g id="edge6" class="edge">
<title>Node6&#45;&gt;Node7</title>
<path fill="none" stroke="midnightblue" d="M491.74,-28.69C483.2,-27.38 474.53,-26.04 466.15,-24.75"/>
<polygon fill="midnightblue" stroke="midnightblue" points="491.27,-32.16 501.69,-30.22 492.33,-25.24 491.27,-32.16"/>
</g>
<!-- Node8 -->
<g id="node8" class="node">
<title>Node8</title>
<g id="a_node8"><a xlink:href="group__attribute__resolver__send.html#ga577f6ba4fa977a389873ee62e02aeead" target="_top" xlink:title="function that the ZPC attribute resolver uses send PAN frames">
<polygon fill="none" stroke="black" points="188,-6 188,-25 306,-25 306,-6 188,-6"/>
<text text-anchor="middle" x="247" y="-13" font-family="Helvetica,sans-Serif" font-size="10.00">attribute_resolver_send</text>
</a>
</g>
</g>
<!-- Node7&#45;&gt;Node8 -->
<g id="edge7" class="edge">
<title>Node7&#45;&gt;Node8</title>
<path fill="none" stroke="midnightblue" d="M333.45,-15.5C324.3,-15.5 315.02,-15.5 306.1,-15.5"/>
<polygon fill="midnightblue" stroke="midnightblue" points="333.69,-19 343.69,-15.5 333.69,-12 333.69,-19"/>
</g>
<!-- Node9 -->
<g id="node9" class="node">
<title>Node9</title>
<g id="a_node9"><a xlink:href="group__zpc__attribute__resolver__fixt.html#ga50dc081eb97c7ba1ec9259257613cfc4" target="_top" xlink:title="Initialize the ZPC attribute resolver, which in turn calls Unify attribute resolver init.">
<polygon fill="none" stroke="black" points="9.5,-6 9.5,-25 140.5,-25 140.5,-6 9.5,-6"/>
<text text-anchor="middle" x="75" y="-13" font-family="Helvetica,sans-Serif" font-size="10.00">zpc_attribute_resolver_init</text>
</a>
</g>
</g>
<!-- Node8&#45;&gt;Node9 -->
<g id="edge8" class="edge">
<title>Node8&#45;&gt;Node9</title>
<path fill="none" stroke="midnightblue" d="M177.84,-15.5C165.61,-15.5 152.9,-15.5 140.77,-15.5"/>
<polygon fill="midnightblue" stroke="midnightblue" points="177.97,-19 187.97,-15.5 177.97,-12 177.97,-19"/>
</g>
</g>
</svg>
