<?xml version="1.0" encoding="UTF-8" standalone="no"?>
<!DOCTYPE svg PUBLIC "-//W3C//DTD SVG 1.1//EN"
 "http://www.w3.org/Graphics/SVG/1.1/DTD/svg11.dtd">
<!-- Generated by graphviz version 2.43.0 (0)
 -->
<!-- Title: zwapi_destroy Pages: 1 -->
<svg width="389pt" height="78pt"
 viewBox="0.00 0.00 389.00 77.50" xmlns="http://www.w3.org/2000/svg" xmlns:xlink="http://www.w3.org/1999/xlink">
<g id="graph0" class="graph" transform="scale(1 1) rotate(0) translate(4 73.5)">
<title>zwapi_destroy</title>
<!-- Node1 -->
<g id="node1" class="node">
<title>Node1</title>
<g id="a_node1"><a xlink:title="Shut down the Z&#45;Wave API and close the communication ports.">
<polygon fill="#bfbfbf" stroke="black" points="301,-22.5 301,-41.5 381,-41.5 381,-22.5 301,-22.5"/>
<text text-anchor="middle" x="341" y="-29.5" font-family="Helvetica,sans-Serif" font-size="10.00">zwapi_destroy</text>
</a>
</g>
</g>
<!-- Node2 -->
<g id="node2" class="node">
<title>Node2</title>
<g id="a_node2"><a xlink:href="group__zpc__ncp__update__fixt.html#gaaca8dd596d6abe6ca27de8d7c93c5cf2" target="_top" xlink:title="This function check if the NCP firmware should be updated.">
<polygon fill="none" stroke="black" points="158,-39 158,-69 265,-69 265,-39 158,-39"/>
<text text-anchor="start" x="166" y="-57" font-family="Helvetica,sans-Serif" font-size="10.00">zpc_ncp_update_fixt</text>
<text text-anchor="middle" x="211.5" y="-46" font-family="Helvetica,sans-Serif" font-size="10.00">_setup</text>
</a>
</g>
</g>
<!-- Node1&#45;&gt;Node2 -->
<g id="edge1" class="edge">
<title>Node1&#45;&gt;Node2</title>
<path fill="none" stroke="midnightblue" d="M290.67,-40.51C282.27,-41.96 273.52,-43.47 265.04,-44.93"/>
<polygon fill="midnightblue" stroke="midnightblue" points="291.45,-43.93 300.71,-38.78 290.26,-37.03 291.45,-43.93"/>
</g>
<!-- Node3 -->
<g id="node3" class="node">
<title>Node3</title>
<g id="a_node3"><a xlink:href="group__zwave__rx__internals.html#gaed3606fa8bb6eff34c27efe91c3525a6" target="_top" xlink:title="Shutdown the module.">
<polygon fill="none" stroke="black" points="158.5,-0.5 158.5,-19.5 264.5,-19.5 264.5,-0.5 158.5,-0.5"/>
<text text-anchor="middle" x="211.5" y="-7.5" font-family="Helvetica,sans-Serif" font-size="10.00">zwave_rx_shutdown</text>
</a>
</g>
</g>
<!-- Node1&#45;&gt;Node3 -->
<g id="edge2" class="edge">
<title>Node1&#45;&gt;Node3</title>
<path fill="none" stroke="midnightblue" d="M290.82,-23.51C282.22,-22.03 273.25,-20.48 264.57,-18.99"/>
<polygon fill="midnightblue" stroke="midnightblue" points="290.26,-26.97 300.71,-25.22 291.45,-20.07 290.26,-26.97"/>
</g>
<!-- Node4 -->
<g id="node4" class="node">
<title>Node4</title>
<g id="a_node4"><a xlink:href="group__zwave__rx__fixt.html#ga56465233b7f28429a246ce87b31efe7b" target="_top" xlink:title=" ">
<polygon fill="none" stroke="black" points="0,-0.5 0,-19.5 122,-19.5 122,-0.5 0,-0.5"/>
<text text-anchor="middle" x="61" y="-7.5" font-family="Helvetica,sans-Serif" font-size="10.00">zwave_rx_fixt_teardown</text>
</a>
</g>
</g>
<!-- Node3&#45;&gt;Node4 -->
<g id="edge3" class="edge">
<title>Node3&#45;&gt;Node4</title>
<path fill="none" stroke="midnightblue" d="M147.91,-10C139.42,-10 130.71,-10 122.25,-10"/>
<polygon fill="midnightblue" stroke="midnightblue" points="148.14,-13.5 158.14,-10 148.14,-6.5 148.14,-13.5"/>
</g>
</g>
</svg>
