<?xml version="1.0" encoding="UTF-8" standalone="no"?>
<!DOCTYPE svg PUBLIC "-//W3C//DTD SVG 1.1//EN"
 "http://www.w3.org/Graphics/SVG/1.1/DTD/svg11.dtd">
<!-- Generated by graphviz version 2.43.0 (0)
 -->
<!-- Title: zwave_controller_crc16 Pages: 1 -->
<svg width="1839pt" height="317pt"
 viewBox="0.00 0.00 1839.00 316.50" xmlns="http://www.w3.org/2000/svg" xmlns:xlink="http://www.w3.org/1999/xlink">
<g id="graph0" class="graph" transform="scale(1 1) rotate(0) translate(4 312.5)">
<title>zwave_controller_crc16</title>
<!-- Node1 -->
<g id="node1" class="node">
<title>Node1</title>
<g id="a_node1"><a xlink:title="Calculation of CRC16&#45;CCITT with Polynomial 0x1021 on data.">
<polygon fill="#bfbfbf" stroke="black" points="1712,-77 1712,-96 1831,-96 1831,-77 1712,-77"/>
<text text-anchor="middle" x="1771.5" y="-84" font-family="Helvetica,sans-Serif" font-size="10.00">zwave_controller_crc16</text>
</a>
</g>
</g>
<!-- Node2 -->
<g id="node2" class="node">
<title>Node2</title>
<g id="a_node2"><a xlink:href="transport__service_8c.html#a2f78da3ac5fea2f4b445aaf289500abd" target="_top" xlink:title=" ">
<polygon fill="none" stroke="black" points="1589.5,-184 1589.5,-203 1640.5,-203 1640.5,-184 1589.5,-184"/>
<text text-anchor="middle" x="1615" y="-191" font-family="Helvetica,sans-Serif" font-size="10.00">add_crc</text>
</a>
</g>
</g>
<!-- Node1&#45;&gt;Node2 -->
<g id="edge1" class="edge">
<title>Node1&#45;&gt;Node2</title>
<path fill="none" stroke="midnightblue" d="M1748.13,-101.99C1715.7,-124.45 1656.61,-165.37 1629.84,-183.91"/>
<polygon fill="midnightblue" stroke="midnightblue" points="1750.29,-104.76 1756.52,-96.18 1746.3,-99 1750.29,-104.76"/>
</g>
<!-- Node4 -->
<g id="node4" class="node">
<title>Node4</title>
<g id="a_node4"><a xlink:href="transport__service_8c.html#a7800e90df0e417d85ec84937638ad29c" target="_top" xlink:title=" ">
<polygon fill="none" stroke="black" points="789,-175 789,-194 837,-194 837,-175 789,-175"/>
<text text-anchor="middle" x="813" y="-182" font-family="Helvetica,sans-Serif" font-size="10.00">receive</text>
</a>
</g>
</g>
<!-- Node1&#45;&gt;Node4 -->
<g id="edge27" class="edge">
<title>Node1&#45;&gt;Node4</title>
<path fill="none" stroke="midnightblue" d="M1701.92,-93.96C1637.29,-100.34 1537.69,-108.5 1451,-108.5 1451,-108.5 1451,-108.5 1103.5,-108.5 1000.71,-108.5 966.64,-85.1 873,-127.5 849.91,-137.96 830.4,-161.43 820.66,-174.76"/>
<polygon fill="midnightblue" stroke="midnightblue" points="1702.39,-97.43 1711.99,-92.95 1701.69,-90.47 1702.39,-97.43"/>
</g>
<!-- Node18 -->
<g id="node18" class="node">
<title>Node18</title>
<g id="a_node18"><a xlink:href="group__crc16__transport.html#ga80c8141d0da796e08a58f51d7a6bc625" target="_top" xlink:title="Decapsulate Multi Channel encapsulation and inject the frame back to the Z&#45;Wave Controller.">
<polygon fill="none" stroke="black" points="1554,-49.5 1554,-79.5 1676,-79.5 1676,-49.5 1554,-49.5"/>
<text text-anchor="start" x="1562" y="-67.5" font-family="Helvetica,sans-Serif" font-size="10.00">zwave_command_class</text>
<text text-anchor="middle" x="1615" y="-56.5" font-family="Helvetica,sans-Serif" font-size="10.00">_crc16_decapsulate</text>
</a>
</g>
</g>
<!-- Node1&#45;&gt;Node18 -->
<g id="edge28" class="edge">
<title>Node1&#45;&gt;Node18</title>
<path fill="none" stroke="midnightblue" d="M1701.47,-76.67C1693.05,-75.47 1684.5,-74.25 1676.22,-73.08"/>
<polygon fill="midnightblue" stroke="midnightblue" points="1701.26,-80.18 1711.65,-78.12 1702.24,-73.25 1701.26,-80.18"/>
</g>
<!-- Node20 -->
<g id="node20" class="node">
<title>Node20</title>
<g id="a_node20"><a xlink:href="group__crc16__transport.html#ga40f6f52fe73d5c9efa2fae56082253c3" target="_top" xlink:title="Encapsulates with CRC16.">
<polygon fill="none" stroke="black" points="1554,-0.5 1554,-30.5 1676,-30.5 1676,-0.5 1554,-0.5"/>
<text text-anchor="start" x="1562" y="-18.5" font-family="Helvetica,sans-Serif" font-size="10.00">zwave_command_class</text>
<text text-anchor="middle" x="1615" y="-7.5" font-family="Helvetica,sans-Serif" font-size="10.00">_crc16_send_data</text>
</a>
</g>
</g>
<!-- Node1&#45;&gt;Node20 -->
<g id="edge31" class="edge">
<title>Node1&#45;&gt;Node20</title>
<path fill="none" stroke="midnightblue" d="M1743.12,-72.15C1724.4,-62.52 1698.93,-49.77 1676,-39.5 1669.24,-36.47 1661.98,-33.41 1654.92,-30.54"/>
<polygon fill="midnightblue" stroke="midnightblue" points="1741.75,-75.38 1752.24,-76.87 1744.97,-69.16 1741.75,-75.38"/>
</g>
<!-- Node3 -->
<g id="node3" class="node">
<title>Node3</title>
<g id="a_node3"><a xlink:href="transport__service_8c.html#a67e57d4768071543cd6f67b8e95dc6d8" target="_top" xlink:title=" ">
<polygon fill="none" stroke="black" points="1411,-203 1411,-222 1489,-222 1489,-203 1411,-203"/>
<text text-anchor="middle" x="1450" y="-210" font-family="Helvetica,sans-Serif" font-size="10.00">reply_frag_req</text>
</a>
</g>
</g>
<!-- Node2&#45;&gt;Node3 -->
<g id="edge2" class="edge">
<title>Node2&#45;&gt;Node3</title>
<path fill="none" stroke="midnightblue" d="M1579.27,-197.55C1552.77,-200.64 1516.32,-204.89 1489.04,-208.07"/>
<polygon fill="midnightblue" stroke="midnightblue" points="1579.72,-201.02 1589.24,-196.39 1578.91,-194.07 1579.72,-201.02"/>
</g>
<!-- Node11 -->
<g id="node11" class="node">
<title>Node11</title>
<g id="a_node11"><a xlink:href="transport__service_8c.html#a050800ee9c4c9bc3aa76a93612fb985f" target="_top" xlink:title=" ">
<polygon fill="none" stroke="black" points="1064,-137 1064,-156 1145,-156 1145,-137 1064,-137"/>
<text text-anchor="middle" x="1104.5" y="-144" font-family="Helvetica,sans-Serif" font-size="10.00">send_first_frag</text>
</a>
</g>
</g>
<!-- Node2&#45;&gt;Node11 -->
<g id="edge25" class="edge">
<title>Node2&#45;&gt;Node11</title>
<path fill="none" stroke="midnightblue" d="M1579.39,-190.3C1488.18,-181.87 1241.62,-159.08 1145.05,-150.16"/>
<polygon fill="midnightblue" stroke="midnightblue" points="1579.19,-193.8 1589.47,-191.23 1579.84,-186.83 1579.19,-193.8"/>
</g>
<!-- Node17 -->
<g id="node17" class="node">
<title>Node17</title>
<g id="a_node17"><a xlink:href="transport__service_8c.html#ada81ed14232e9fcf5ffc8cef349c28b5" target="_top" xlink:title=" ">
<polygon fill="none" stroke="black" points="1056.5,-289 1056.5,-308 1152.5,-308 1152.5,-289 1056.5,-289"/>
<text text-anchor="middle" x="1104.5" y="-296" font-family="Helvetica,sans-Serif" font-size="10.00">send_subseq_frag</text>
</a>
</g>
</g>
<!-- Node2&#45;&gt;Node17 -->
<g id="edge26" class="edge">
<title>Node2&#45;&gt;Node17</title>
<path fill="none" stroke="midnightblue" d="M1584.29,-207.14C1565.6,-215.24 1540.79,-225.14 1518,-231.5 1388.36,-267.65 1230.01,-286.59 1152.63,-294.28"/>
<polygon fill="midnightblue" stroke="midnightblue" points="1585.72,-210.33 1593.46,-203.09 1582.9,-203.93 1585.72,-210.33"/>
</g>
<!-- Node3&#45;&gt;Node4 -->
<g id="edge3" class="edge">
<title>Node3&#45;&gt;Node4</title>
<path fill="none" stroke="midnightblue" d="M1400.43,-210.36C1272.44,-204.71 929.38,-189.59 837.12,-185.52"/>
<polygon fill="midnightblue" stroke="midnightblue" points="1400.56,-213.87 1410.71,-210.81 1400.87,-206.87 1400.56,-213.87"/>
</g>
<!-- Node10 -->
<g id="node10" class="node">
<title>Node10</title>
<g id="a_node10"><a xlink:href="transport__service_8c.html#a0d8b03eb74c8ac1b697cf1f967634e2e" target="_top" xlink:title=" ">
<polygon fill="none" stroke="black" points="1194,-232 1194,-251 1346,-251 1346,-232 1194,-232"/>
<text text-anchor="middle" x="1270" y="-239" font-family="Helvetica,sans-Serif" font-size="10.00">transport_service_senddata_cb</text>
</a>
</g>
</g>
<!-- Node3&#45;&gt;Node10 -->
<g id="edge9" class="edge">
<title>Node3&#45;&gt;Node10</title>
<path fill="none" stroke="midnightblue" d="M1400.55,-214.31C1367.84,-218.49 1325.83,-225.67 1298.66,-231.94"/>
<polygon fill="midnightblue" stroke="midnightblue" points="1401.31,-217.74 1410.81,-213.06 1400.47,-210.79 1401.31,-217.74"/>
</g>
<!-- Node5 -->
<g id="node5" class="node">
<title>Node5</title>
<g id="a_node5"><a xlink:href="transport__service_8c.html#afe4b474eca116806850af8ce6182384c" target="_top" xlink:title=" ">
<polygon fill="none" stroke="black" points="613,-169.5 613,-199.5 753,-199.5 753,-169.5 613,-169.5"/>
<text text-anchor="start" x="621" y="-187.5" font-family="Helvetica,sans-Serif" font-size="10.00">transport_service_command</text>
<text text-anchor="middle" x="683" y="-176.5" font-family="Helvetica,sans-Serif" font-size="10.00">_handler</text>
</a>
</g>
</g>
<!-- Node4&#45;&gt;Node5 -->
<g id="edge4" class="edge">
<title>Node4&#45;&gt;Node5</title>
<path fill="none" stroke="midnightblue" d="M778.59,-184.5C770.68,-184.5 761.94,-184.5 753.08,-184.5"/>
<polygon fill="midnightblue" stroke="midnightblue" points="778.82,-188 788.82,-184.5 778.82,-181 778.82,-188"/>
</g>
<!-- Node6 -->
<g id="node6" class="node">
<title>Node6</title>
<g id="a_node6"><a xlink:href="group__transport__service.html#ga8373376f01c78a3ecfb1941605eb9c1a" target="_top" xlink:title="Transport service RX function.">
<polygon fill="none" stroke="black" points="470,-136.5 470,-166.5 577,-166.5 577,-136.5 470,-136.5"/>
<text text-anchor="start" x="478" y="-154.5" font-family="Helvetica,sans-Serif" font-size="10.00">transport_service_on</text>
<text text-anchor="middle" x="523.5" y="-143.5" font-family="Helvetica,sans-Serif" font-size="10.00">_frame_received</text>
</a>
</g>
</g>
<!-- Node5&#45;&gt;Node6 -->
<g id="edge5" class="edge">
<title>Node5&#45;&gt;Node6</title>
<path fill="none" stroke="midnightblue" d="M603.11,-167.97C594.4,-166.15 585.7,-164.32 577.42,-162.59"/>
<polygon fill="midnightblue" stroke="midnightblue" points="602.41,-171.4 612.92,-170.03 603.85,-164.55 602.41,-171.4"/>
</g>
<!-- Node7 -->
<g id="node7" class="node">
<title>Node7</title>
<g id="a_node7"><a xlink:href="group__transport__service__transport__wrapper.html#ga836e1af25a73aef2bc515da73660cd3b" target="_top" xlink:title="Entry point of Transport service frames received from the PHY/radio stack.">
<polygon fill="none" stroke="black" points="309,-120.5 309,-150.5 434,-150.5 434,-120.5 309,-120.5"/>
<text text-anchor="start" x="317" y="-138.5" font-family="Helvetica,sans-Serif" font-size="10.00">zwave_transport_service</text>
<text text-anchor="middle" x="371.5" y="-127.5" font-family="Helvetica,sans-Serif" font-size="10.00">_on_frame_received</text>
</a>
</g>
</g>
<!-- Node6&#45;&gt;Node7 -->
<g id="edge6" class="edge">
<title>Node6&#45;&gt;Node7</title>
<path fill="none" stroke="midnightblue" d="M459.51,-144.78C451.11,-143.89 442.51,-142.97 434.14,-142.07"/>
<polygon fill="midnightblue" stroke="midnightblue" points="459.3,-148.28 469.62,-145.86 460.04,-141.32 459.3,-148.28"/>
</g>
<!-- Node8 -->
<g id="node8" class="node">
<title>Node8</title>
<g id="a_node8"><a xlink:href="group__transport__service__transport__wrapper.html#gad02263e40b63853166ac8a7601954f33" target="_top" xlink:title=" ">
<polygon fill="none" stroke="black" points="148,-60.5 148,-90.5 273,-90.5 273,-60.5 148,-60.5"/>
<text text-anchor="start" x="156" y="-78.5" font-family="Helvetica,sans-Serif" font-size="10.00">zwave_transport_service</text>
<text text-anchor="middle" x="210.5" y="-67.5" font-family="Helvetica,sans-Serif" font-size="10.00">_transport_init</text>
</a>
</g>
</g>
<!-- Node7&#45;&gt;Node8 -->
<g id="edge7" class="edge">
<title>Node7&#45;&gt;Node8</title>
<path fill="none" stroke="midnightblue" d="M320.72,-116.72C298.38,-108.28 272.36,-98.47 251.33,-90.53"/>
<polygon fill="midnightblue" stroke="midnightblue" points="319.79,-120.1 330.38,-120.36 322.26,-113.55 319.79,-120.1"/>
</g>
<!-- Node9 -->
<g id="node9" class="node">
<title>Node9</title>
<g id="a_node9"><a xlink:href="group__zwave__transports__fixt.html#ga26fb2571e272a5094bd0320eca3a896d" target="_top" xlink:title="Setup fixture for Z&#45;Wave Transports.">
<polygon fill="none" stroke="black" points="0,-44 0,-63 112,-63 112,-44 0,-44"/>
<text text-anchor="middle" x="56" y="-51" font-family="Helvetica,sans-Serif" font-size="10.00">zwave_transports_init</text>
</a>
</g>
</g>
<!-- Node8&#45;&gt;Node9 -->
<g id="edge8" class="edge">
<title>Node8&#45;&gt;Node9</title>
<path fill="none" stroke="midnightblue" d="M137.92,-65.17C129.35,-63.94 120.71,-62.69 112.42,-61.5"/>
<polygon fill="midnightblue" stroke="midnightblue" points="137.51,-68.65 147.91,-66.62 138.51,-61.72 137.51,-68.65"/>
</g>
<!-- Node10&#45;&gt;Node3 -->
<g id="edge11" class="edge">
<title>Node10&#45;&gt;Node3</title>
<path fill="none" stroke="midnightblue" d="M1356.25,-234.36C1379.9,-230.57 1403.91,-226.09 1421.58,-222"/>
<polygon fill="midnightblue" stroke="midnightblue" points="1355.49,-230.93 1346.15,-235.93 1356.57,-237.85 1355.49,-230.93"/>
</g>
<!-- Node10&#45;&gt;Node4 -->
<g id="edge10" class="edge">
<title>Node10&#45;&gt;Node4</title>
<path fill="none" stroke="midnightblue" d="M1183.72,-235.33C1103.23,-228.79 979.37,-216.82 873,-198.5 861.07,-196.44 847.95,-193.41 837.12,-190.69"/>
<polygon fill="midnightblue" stroke="midnightblue" points="1183.55,-238.83 1193.8,-236.14 1184.11,-231.85 1183.55,-238.83"/>
</g>
<!-- Node10&#45;&gt;Node11 -->
<g id="edge12" class="edge">
<title>Node10&#45;&gt;Node11</title>
<path fill="none" stroke="midnightblue" d="M1243.59,-226.73C1209.74,-207.07 1150.8,-172.82 1122.12,-156.16"/>
<polygon fill="midnightblue" stroke="midnightblue" points="1242.02,-229.87 1252.42,-231.87 1245.53,-223.82 1242.02,-229.87"/>
</g>
<!-- Node15 -->
<g id="node15" class="node">
<title>Node15</title>
<g id="a_node15"><a xlink:href="transport__service_8c.html#a8a25db2fc95ae366bd129a0d76800d7c" target="_top" xlink:title=" ">
<polygon fill="none" stroke="black" points="1051,-251 1051,-270 1158,-270 1158,-251 1051,-251"/>
<text text-anchor="middle" x="1104.5" y="-258" font-family="Helvetica,sans-Serif" font-size="10.00">send_frag_wait_cmd</text>
</a>
</g>
</g>
<!-- Node10&#45;&gt;Node15 -->
<g id="edge18" class="edge">
<title>Node10&#45;&gt;Node15</title>
<path fill="none" stroke="midnightblue" d="M1183.61,-244.68C1167.87,-246.56 1152.32,-248.75 1139.28,-250.99"/>
<polygon fill="midnightblue" stroke="midnightblue" points="1184.41,-248.11 1193.95,-243.49 1183.62,-241.16 1184.41,-248.11"/>
</g>
<!-- Node10&#45;&gt;Node17 -->
<g id="edge23" class="edge">
<title>Node10&#45;&gt;Node17</title>
<path fill="none" stroke="midnightblue" d="M1214.01,-254.25C1181.42,-264.78 1142.46,-279.1 1121.22,-288.84"/>
<polygon fill="midnightblue" stroke="midnightblue" points="1215.42,-257.48 1223.89,-251.12 1213.3,-250.81 1215.42,-257.48"/>
</g>
<!-- Node12 -->
<g id="node12" class="node">
<title>Node12</title>
<g id="a_node12"><a xlink:href="group__transport__service.html#ga5dec1563c42d06aad70fdc31f3acb603" target="_top" xlink:title="Sending a long frame with Transport service.">
<polygon fill="none" stroke="black" points="873,-61 873,-80 1015,-80 1015,-61 873,-61"/>
<text text-anchor="middle" x="944" y="-68" font-family="Helvetica,sans-Serif" font-size="10.00">transport_service_send_data</text>
</a>
</g>
</g>
<!-- Node11&#45;&gt;Node12 -->
<g id="edge13" class="edge">
<title>Node11&#45;&gt;Node12</title>
<path fill="none" stroke="midnightblue" d="M1074.18,-132.44C1042.37,-117.19 992.45,-93.25 964.91,-80.05"/>
<polygon fill="midnightblue" stroke="midnightblue" points="1072.9,-135.71 1083.43,-136.87 1075.92,-129.39 1072.9,-135.71"/>
</g>
<!-- Node14 -->
<g id="node14" class="node">
<title>Node14</title>
<g id="a_node14"><a xlink:href="transport__service_8c.html#a4ec123f01e33bb2b4694e48484c6e892" target="_top" xlink:title=" ">
<polygon fill="none" stroke="black" points="887,-137 887,-156 1001,-156 1001,-137 887,-137"/>
<text text-anchor="middle" x="944" y="-144" font-family="Helvetica,sans-Serif" font-size="10.00">wait_restart_from_first</text>
</a>
</g>
</g>
<!-- Node11&#45;&gt;Node14 -->
<g id="edge16" class="edge">
<title>Node11&#45;&gt;Node14</title>
<path fill="none" stroke="midnightblue" d="M1053.8,-146.5C1037.07,-146.5 1018.3,-146.5 1001.11,-146.5"/>
<polygon fill="midnightblue" stroke="midnightblue" points="1053.91,-150 1063.91,-146.5 1053.91,-143 1053.91,-150"/>
</g>
<!-- Node13 -->
<g id="node13" class="node">
<title>Node13</title>
<g id="a_node13"><a xlink:href="group__transport__service__transport__wrapper.html#ga6216ae3a018a4028bfc3025695784f0e" target="_top" xlink:title="Sending a frame with Transport service.">
<polygon fill="none" stroke="black" points="620.5,-60.5 620.5,-90.5 745.5,-90.5 745.5,-60.5 620.5,-60.5"/>
<text text-anchor="start" x="628.5" y="-78.5" font-family="Helvetica,sans-Serif" font-size="10.00">zwave_transport_service</text>
<text text-anchor="middle" x="683" y="-67.5" font-family="Helvetica,sans-Serif" font-size="10.00">_send_data</text>
</a>
</g>
</g>
<!-- Node12&#45;&gt;Node13 -->
<g id="edge14" class="edge">
<title>Node12&#45;&gt;Node13</title>
<path fill="none" stroke="midnightblue" d="M862.48,-72.05C824.83,-72.78 780.71,-73.63 745.76,-74.31"/>
<polygon fill="midnightblue" stroke="midnightblue" points="862.98,-75.55 872.91,-71.85 862.85,-68.55 862.98,-75.55"/>
</g>
<!-- Node13&#45;&gt;Node8 -->
<g id="edge15" class="edge">
<title>Node13&#45;&gt;Node8</title>
<path fill="none" stroke="midnightblue" d="M610.42,-75.5C518.34,-75.5 359.95,-75.5 273.02,-75.5"/>
<polygon fill="midnightblue" stroke="midnightblue" points="610.49,-79 620.49,-75.5 610.49,-72 610.49,-79"/>
</g>
<!-- Node14&#45;&gt;Node4 -->
<g id="edge17" class="edge">
<title>Node14&#45;&gt;Node4</title>
<path fill="none" stroke="midnightblue" d="M900.72,-158.95C879.59,-165.18 854.82,-172.47 837.18,-177.67"/>
<polygon fill="midnightblue" stroke="midnightblue" points="901.84,-162.27 910.45,-156.09 899.87,-155.56 901.84,-162.27"/>
</g>
<!-- Node15&#45;&gt;Node5 -->
<g id="edge21" class="edge">
<title>Node15&#45;&gt;Node5</title>
<path fill="none" stroke="midnightblue" d="M1058.78,-272.36C1011.88,-282.9 936.33,-294.52 873,-279.5 807.79,-264.03 739.5,-222.34 705.67,-199.67"/>
<polygon fill="midnightblue" stroke="midnightblue" points="1059.68,-275.74 1068.63,-270.06 1058.09,-268.92 1059.68,-275.74"/>
</g>
<!-- Node15&#45;&gt;Node10 -->
<g id="edge22" class="edge">
<title>Node15&#45;&gt;Node10</title>
<path fill="none" stroke="midnightblue" d="M1167.97,-259.82C1190.79,-257.58 1215.73,-254.35 1235.12,-251.03"/>
<polygon fill="midnightblue" stroke="midnightblue" points="1167.64,-256.34 1158.01,-260.75 1168.29,-263.31 1167.64,-256.34"/>
</g>
<!-- Node16 -->
<g id="node16" class="node">
<title>Node16</title>
<g id="a_node16"><a xlink:href="transport__service_8c.html#a2e4434739ec658a986a9b540f6b68696" target="_top" xlink:title=" ">
<polygon fill="none" stroke="black" points="893,-251 893,-270 995,-270 995,-251 893,-251"/>
<text text-anchor="middle" x="944" y="-258" font-family="Helvetica,sans-Serif" font-size="10.00">mark_frag_received</text>
</a>
</g>
</g>
<!-- Node15&#45;&gt;Node16 -->
<g id="edge19" class="edge">
<title>Node15&#45;&gt;Node16</title>
<path fill="none" stroke="midnightblue" d="M1040.45,-260.5C1025.39,-260.5 1009.52,-260.5 995.13,-260.5"/>
<polygon fill="midnightblue" stroke="midnightblue" points="1040.72,-264 1050.72,-260.5 1040.72,-257 1040.72,-264"/>
</g>
<!-- Node16&#45;&gt;Node4 -->
<g id="edge20" class="edge">
<title>Node16&#45;&gt;Node4</title>
<path fill="none" stroke="midnightblue" d="M896.72,-247.52C888.57,-244.43 880.35,-240.77 873,-236.5 852.93,-224.84 833.5,-205.73 822.71,-194.21"/>
<polygon fill="midnightblue" stroke="midnightblue" points="895.61,-250.84 906.21,-250.88 897.95,-244.24 895.61,-250.84"/>
</g>
<!-- Node17&#45;&gt;Node10 -->
<g id="edge24" class="edge">
<title>Node17&#45;&gt;Node10</title>
<path fill="none" stroke="midnightblue" d="M1160.42,-285.77C1193.19,-275.19 1232.44,-260.75 1253.62,-251.01"/>
<polygon fill="midnightblue" stroke="midnightblue" points="1158.95,-282.56 1150.48,-288.92 1161.07,-289.24 1158.95,-282.56"/>
</g>
<!-- Node19 -->
<g id="node19" class="node">
<title>Node19</title>
<g id="a_node19"><a xlink:href="group__crc16__transport.html#ga41d7716fd0dc4dd78d6747b6f8226671" target="_top" xlink:title="Initialize the CRC16 Transport *.">
<polygon fill="none" stroke="black" points="1382,-22 1382,-41 1518,-41 1518,-22 1382,-22"/>
<text text-anchor="middle" x="1450" y="-29" font-family="Helvetica,sans-Serif" font-size="10.00">zwave_crc16_transport_init</text>
</a>
</g>
</g>
<!-- Node18&#45;&gt;Node19 -->
<g id="edge29" class="edge">
<title>Node18&#45;&gt;Node19</title>
<path fill="none" stroke="midnightblue" d="M1543.72,-50.27C1528.27,-47.14 1512.27,-43.9 1498,-41.01"/>
<polygon fill="midnightblue" stroke="midnightblue" points="1543.27,-53.75 1553.77,-52.31 1544.66,-46.89 1543.27,-53.75"/>
</g>
<!-- Node19&#45;&gt;Node9 -->
<g id="edge30" class="edge">
<title>Node19&#45;&gt;Node9</title>
<path fill="none" stroke="midnightblue" d="M1371.86,-31.5C1302.24,-31.5 1197.01,-31.5 1105.5,-31.5 1105.5,-31.5 1105.5,-31.5 370.5,-31.5 279.79,-31.5 174.68,-40.78 112.13,-47.28"/>
<polygon fill="midnightblue" stroke="midnightblue" points="1371.86,-35 1381.86,-31.5 1371.86,-28 1371.86,-35"/>
</g>
<!-- Node20&#45;&gt;Node19 -->
<g id="edge32" class="edge">
<title>Node20&#45;&gt;Node19</title>
<path fill="none" stroke="midnightblue" d="M1543.57,-22.41C1535.13,-23.24 1526.52,-24.09 1518.12,-24.91"/>
<polygon fill="midnightblue" stroke="midnightblue" points="1544.16,-25.87 1553.77,-21.41 1543.47,-18.91 1544.16,-25.87"/>
</g>
</g>
</svg>
