<?xml version="1.0" encoding="UTF-8" standalone="no"?>
<!DOCTYPE svg PUBLIC "-//W3C//DTD SVG 1.1//EN"
 "http://www.w3.org/Graphics/SVG/1.1/DTD/svg11.dtd">
<!-- Generated by graphviz version 2.43.0 (0)
 -->
<!-- Title: zwave_controller_on_frame_received Pages: 1 -->
<svg width="438pt" height="39pt"
 viewBox="0.00 0.00 438.00 39.00" xmlns="http://www.w3.org/2000/svg" xmlns:xlink="http://www.w3.org/1999/xlink">
<g id="graph0" class="graph" transform="scale(1 1) rotate(0) translate(4 35)">
<title>zwave_controller_on_frame_received</title>
<!-- Node1 -->
<g id="node1" class="node">
<title>Node1</title>
<g id="a_node1"><a xlink:title="see zwave_controller_callbacks_t">
<polygon fill="#bfbfbf" stroke="black" points="0,-0.5 0,-30.5 106,-30.5 106,-0.5 0,-0.5"/>
<text text-anchor="start" x="8" y="-18.5" font-family="Helvetica,sans-Serif" font-size="10.00">zwave_controller_on</text>
<text text-anchor="middle" x="53" y="-7.5" font-family="Helvetica,sans-Serif" font-size="10.00">_frame_received</text>
</a>
</g>
</g>
<!-- Node2 -->
<g id="node2" class="node">
<title>Node2</title>
<g id="a_node2"><a xlink:href="group__zwave__controller__transport__internal.html#gab1d371c3594b30fb5e48405df834696a" target="_top" xlink:title="Entry point of of frame to the transport plugin system .">
<polygon fill="none" stroke="black" points="142,-0.5 142,-30.5 276,-30.5 276,-0.5 142,-0.5"/>
<text text-anchor="start" x="150" y="-18.5" font-family="Helvetica,sans-Serif" font-size="10.00">zwave_controller_transport</text>
<text text-anchor="middle" x="209" y="-7.5" font-family="Helvetica,sans-Serif" font-size="10.00">_on_frame_received</text>
</a>
</g>
</g>
<!-- Node1&#45;&gt;Node2 -->
<g id="edge1" class="edge">
<title>Node1&#45;&gt;Node2</title>
<path fill="none" stroke="midnightblue" d="M106.14,-15.5C114.42,-15.5 123.12,-15.5 131.82,-15.5"/>
<polygon fill="midnightblue" stroke="midnightblue" points="131.99,-19 141.99,-15.5 131.99,-12 131.99,-19"/>
</g>
<!-- Node3 -->
<g id="node3" class="node">
<title>Node3</title>
<g id="a_node3"><a xlink:href="zwave__controller__transport_8c.html#a98ff30ad35d280415fc1d0c576dfcbe2" target="_top" xlink:title="Get the transport by class object.">
<polygon fill="none" stroke="black" points="312,-6 312,-25 430,-25 430,-6 312,-6"/>
<text text-anchor="middle" x="371" y="-13" font-family="Helvetica,sans-Serif" font-size="10.00">get_transport_by_class</text>
</a>
</g>
</g>
<!-- Node2&#45;&gt;Node3 -->
<g id="edge2" class="edge">
<title>Node2&#45;&gt;Node3</title>
<path fill="none" stroke="midnightblue" d="M276,-15.5C284.45,-15.5 293.11,-15.5 301.59,-15.5"/>
<polygon fill="midnightblue" stroke="midnightblue" points="301.82,-19 311.82,-15.5 301.82,-12 301.82,-19"/>
</g>
</g>
</svg>
