<?xml version="1.0" encoding="UTF-8" standalone="no"?>
<!DOCTYPE svg PUBLIC "-//W3C//DTD SVG 1.1//EN"
 "http://www.w3.org/Graphics/SVG/1.1/DTD/svg11.dtd">
<!-- Generated by graphviz version 2.43.0 (0)
 -->
<!-- Title: zwave_s0_on_abort_send_data Pages: 1 -->
<svg width="984pt" height="313pt"
 viewBox="0.00 0.00 984.00 313.00" xmlns="http://www.w3.org/2000/svg" xmlns:xlink="http://www.w3.org/1999/xlink">
<g id="graph0" class="graph" transform="scale(1 1) rotate(0) translate(4 309)">
<title>zwave_s0_on_abort_send_data</title>
<!-- Node1 -->
<g id="node1" class="node">
<title>Node1</title>
<g id="a_node1"><a xlink:title="Z&#45;Wave controller transport callback function which will be triggered when S0 frame tranmission is ab...">
<polygon fill="#bfbfbf" stroke="black" points="0,-57.5 0,-76.5 154,-76.5 154,-57.5 0,-57.5"/>
<text text-anchor="middle" x="77" y="-64.5" font-family="Helvetica,sans-Serif" font-size="10.00">zwave_s0_on_abort_send_data</text>
</a>
</g>
</g>
<!-- Node2 -->
<g id="node2" class="node">
<title>Node2</title>
<g id="a_node2"><a xlink:href="zwave__s0__transport_8c.html#a800e1cc61a01bde0fe6d9a3eddb91b5e" target="_top" xlink:title="Z&#45;Wave Tx Send data callback function.">
<polygon fill="none" stroke="black" points="190,-57.5 190,-76.5 243,-76.5 243,-57.5 190,-57.5"/>
<text text-anchor="middle" x="216.5" y="-64.5" font-family="Helvetica,sans-Serif" font-size="10.00">callback</text>
</a>
</g>
</g>
<!-- Node1&#45;&gt;Node2 -->
<g id="edge1" class="edge">
<title>Node1&#45;&gt;Node2</title>
<path fill="none" stroke="midnightblue" d="M154.39,-67C163.14,-67 171.73,-67 179.57,-67"/>
<polygon fill="midnightblue" stroke="midnightblue" points="179.75,-70.5 189.75,-67 179.75,-63.5 179.75,-70.5"/>
</g>
<!-- Node3 -->
<g id="node3" class="node">
<title>Node3</title>
<g id="a_node3"><a xlink:href="zwave__s0__transport_8c.html#ab8425b35b3d704f2108b438158fad2f1" target="_top" xlink:title="Move a S0 Tx Session state to a new state.">
<polygon fill="none" stroke="black" points="279,-57.5 279,-76.5 389,-76.5 389,-57.5 279,-57.5"/>
<text text-anchor="middle" x="334" y="-64.5" font-family="Helvetica,sans-Serif" font-size="10.00">tx_session_state_set</text>
</a>
</g>
</g>
<!-- Node2&#45;&gt;Node3 -->
<g id="edge2" class="edge">
<title>Node2&#45;&gt;Node3</title>
<path fill="none" stroke="midnightblue" d="M243.13,-61.28C250.76,-60.73 259.49,-60.4 268.44,-60.29"/>
<polygon fill="midnightblue" stroke="midnightblue" points="268.6,-63.79 278.58,-60.26 268.57,-56.79 268.6,-63.79"/>
</g>
<!-- Node3&#45;&gt;Node2 -->
<g id="edge3" class="edge">
<title>Node3&#45;&gt;Node2</title>
<path fill="none" stroke="midnightblue" d="M278.58,-73.74C269.98,-73.79 261.28,-73.64 253.25,-73.29"/>
<polygon fill="midnightblue" stroke="midnightblue" points="253.32,-69.79 243.13,-72.72 252.92,-76.78 253.32,-69.79"/>
</g>
<!-- Node3&#45;&gt;Node3 -->
<g id="edge22" class="edge">
<title>Node3&#45;&gt;Node3</title>
<path fill="none" stroke="midnightblue" d="M316.12,-76.76C307.42,-85.57 313.38,-95 334,-95 346.89,-95 354.05,-91.31 355.48,-86.4"/>
<polygon fill="midnightblue" stroke="midnightblue" points="358.66,-84.9 351.88,-76.76 352.1,-87.35 358.66,-84.9"/>
</g>
<!-- Node4 -->
<g id="node4" class="node">
<title>Node4</title>
<g id="a_node4"><a xlink:href="zwave__s0__transport_8c.html#a395227710e5a6b32c1c55b6a389384b3" target="_top" xlink:title="Resets the data from the previous S0 Tx Session.">
<polygon fill="none" stroke="black" points="425,-171.5 425,-190.5 540,-190.5 540,-171.5 425,-171.5"/>
<text text-anchor="middle" x="482.5" y="-178.5" font-family="Helvetica,sans-Serif" font-size="10.00">reset_tx_session_data</text>
</a>
</g>
</g>
<!-- Node3&#45;&gt;Node4 -->
<g id="edge4" class="edge">
<title>Node3&#45;&gt;Node4</title>
<path fill="none" stroke="midnightblue" d="M341.54,-76.55C354.99,-95.51 387.66,-138.15 425,-162 428.15,-164.01 431.54,-165.84 435.03,-167.48"/>
<polygon fill="midnightblue" stroke="midnightblue" points="433.86,-170.79 444.44,-171.44 436.58,-164.33 433.86,-170.79"/>
</g>
<!-- Node5 -->
<g id="node5" class="node">
<title>Node5</title>
<g id="a_node5"><a xlink:href="zwave__s0__transport_8c.html#abfe0a749d5d321ae13b810ea1043d90f" target="_top" xlink:title=" ">
<polygon fill="none" stroke="black" points="427.5,-133.5 427.5,-152.5 537.5,-152.5 537.5,-133.5 427.5,-133.5"/>
<text text-anchor="middle" x="482.5" y="-140.5" font-family="Helvetica,sans-Serif" font-size="10.00">s0_encrypt_message</text>
</a>
</g>
</g>
<!-- Node3&#45;&gt;Node5 -->
<g id="edge5" class="edge">
<title>Node3&#45;&gt;Node5</title>
<path fill="none" stroke="midnightblue" d="M353.55,-76.63C378.98,-89.82 424.84,-113.61 454.19,-128.83"/>
<polygon fill="midnightblue" stroke="midnightblue" points="452.61,-131.95 463.1,-133.45 455.83,-125.74 452.61,-131.95"/>
</g>
<!-- Node16 -->
<g id="node16" class="node">
<title>Node16</title>
<g id="a_node16"><a xlink:href="zwave__s0__transport_8c.html#ae58733ec136a4bb85e6a2b7ea6aef6bb" target="_top" xlink:title=" ">
<polygon fill="none" stroke="black" points="601.5,-19.5 601.5,-38.5 684.5,-38.5 684.5,-19.5 601.5,-19.5"/>
<text text-anchor="middle" x="643" y="-26.5" font-family="Helvetica,sans-Serif" font-size="10.00">s0_state_name</text>
</a>
</g>
</g>
<!-- Node3&#45;&gt;Node16 -->
<g id="edge18" class="edge">
<title>Node3&#45;&gt;Node16</title>
<path fill="none" stroke="midnightblue" d="M389.38,-74.04C431.2,-77.77 490.08,-79.36 540,-67 557.56,-62.65 559.22,-54.76 576,-48 581.81,-45.66 588.01,-43.48 594.2,-41.5"/>
<polygon fill="midnightblue" stroke="midnightblue" points="595.32,-44.81 603.85,-38.54 593.27,-38.12 595.32,-44.81"/>
</g>
<!-- Node17 -->
<g id="node17" class="node">
<title>Node17</title>
<g id="a_node17"><a xlink:href="zwave__s0__transport_8c.html#adb0e729c11b7fdb81d7c2f776453e8ab" target="_top" xlink:title=" ">
<polygon fill="none" stroke="black" points="450,-38.5 450,-57.5 515,-57.5 515,-38.5 450,-38.5"/>
<text text-anchor="middle" x="482.5" y="-45.5" font-family="Helvetica,sans-Serif" font-size="10.00">s0_timeout</text>
</a>
</g>
</g>
<!-- Node3&#45;&gt;Node17 -->
<g id="edge19" class="edge">
<title>Node3&#45;&gt;Node17</title>
<path fill="none" stroke="midnightblue" d="M365.35,-57.47C386.89,-53.35 416.07,-49.38 439.79,-47.25"/>
<polygon fill="midnightblue" stroke="midnightblue" points="440.23,-50.73 449.92,-46.43 439.67,-43.75 440.23,-50.73"/>
</g>
<!-- Node18 -->
<g id="node18" class="node">
<title>Node18</title>
<g id="a_node18"><a xlink:href="group__zwave__tx.html#gad1538f36d226fe8147c5e538625568df" target="_top" xlink:title="Queue and send frames to Z&#45;Wave nodes.">
<polygon fill="none" stroke="black" points="428,-0.5 428,-19.5 537,-19.5 537,-0.5 428,-0.5"/>
<text text-anchor="middle" x="482.5" y="-7.5" font-family="Helvetica,sans-Serif" font-size="10.00">zwave_tx_send_data</text>
</a>
</g>
</g>
<!-- Node3&#45;&gt;Node18 -->
<g id="edge23" class="edge">
<title>Node3&#45;&gt;Node18</title>
<path fill="none" stroke="midnightblue" d="M356.28,-57.48C374.4,-49.51 401.21,-38.01 425,-29 430.52,-26.91 436.38,-24.81 442.16,-22.81"/>
<polygon fill="midnightblue" stroke="midnightblue" points="443.4,-26.08 451.74,-19.54 441.14,-19.46 443.4,-26.08"/>
</g>
<!-- Node6 -->
<g id="node6" class="node">
<title>Node6</title>
<g id="a_node6"><a xlink:href="zwave__s0__transport_8c.html#a09886e580f2471de3c1ebe56fabd6891" target="_top" xlink:title=" ">
<polygon fill="none" stroke="black" points="604.5,-285.5 604.5,-304.5 681.5,-304.5 681.5,-285.5 604.5,-285.5"/>
<text text-anchor="middle" x="643" y="-292.5" font-family="Helvetica,sans-Serif" font-size="10.00">aes_cbc_mac</text>
</a>
</g>
</g>
<!-- Node5&#45;&gt;Node6 -->
<g id="edge6" class="edge">
<title>Node5&#45;&gt;Node6</title>
<path fill="none" stroke="midnightblue" d="M526.49,-152.51C531.48,-154.98 536.16,-158.09 540,-162 577.22,-199.92 537.95,-238.91 576,-276 581.28,-281.15 587.87,-284.92 594.82,-287.68"/>
<polygon fill="midnightblue" stroke="midnightblue" points="593.84,-291.04 604.43,-290.84 596.03,-284.39 593.84,-291.04"/>
</g>
<!-- Node8 -->
<g id="node8" class="node">
<title>Node8</title>
<g id="a_node8"><a xlink:href="zwave__s0__transport_8c.html#a64c4a69fb8c2e230b1437142e84c3c62" target="_top" xlink:title=" ">
<polygon fill="none" stroke="black" points="617.5,-247.5 617.5,-266.5 668.5,-266.5 668.5,-247.5 617.5,-247.5"/>
<text text-anchor="middle" x="643" y="-254.5" font-family="Helvetica,sans-Serif" font-size="10.00">aes_ofb</text>
</a>
</g>
</g>
<!-- Node5&#45;&gt;Node8 -->
<g id="edge8" class="edge">
<title>Node5&#45;&gt;Node8</title>
<path fill="none" stroke="midnightblue" d="M525.14,-152.62C530.53,-155.08 535.67,-158.15 540,-162 567.94,-186.82 547.52,-213.8 576,-238 584.83,-245.51 596.48,-250.05 607.53,-252.8"/>
<polygon fill="midnightblue" stroke="midnightblue" points="606.9,-256.25 617.4,-254.86 608.33,-249.4 606.9,-256.25"/>
</g>
<!-- Node9 -->
<g id="node9" class="node">
<title>Node9</title>
<g id="a_node9"><a xlink:href="zwave__s0__transport_8c.html#aa131994ce2700672584c8e7eb43abbcf" target="_top" xlink:title=" ">
<polygon fill="none" stroke="black" points="598.5,-209.5 598.5,-228.5 687.5,-228.5 687.5,-209.5 598.5,-209.5"/>
<text text-anchor="middle" x="643" y="-216.5" font-family="Helvetica,sans-Serif" font-size="10.00">aes_set_key_tpt</text>
</a>
</g>
</g>
<!-- Node5&#45;&gt;Node9 -->
<g id="edge10" class="edge">
<title>Node5&#45;&gt;Node9</title>
<path fill="none" stroke="midnightblue" d="M520.56,-152.56C527.3,-155.1 534.07,-158.21 540,-162 559.61,-174.52 556.12,-187.91 576,-200 580.05,-202.46 584.44,-204.62 588.96,-206.51"/>
<polygon fill="midnightblue" stroke="midnightblue" points="587.76,-209.8 598.36,-210.01 590.21,-203.24 587.76,-209.8"/>
</g>
<!-- Node10 -->
<g id="node10" class="node">
<title>Node10</title>
<g id="a_node10"><a xlink:href="zwave__s0__transport_8c.html#aeb22afea5af0dc149f03d08edb74a44a" target="_top" xlink:title=" ">
<polygon fill="none" stroke="black" points="576,-171.5 576,-190.5 710,-190.5 710,-171.5 576,-171.5"/>
<text text-anchor="middle" x="643" y="-178.5" font-family="Helvetica,sans-Serif" font-size="10.00">get_node_max_frame_size</text>
</a>
</g>
</g>
<!-- Node5&#45;&gt;Node10 -->
<g id="edge11" class="edge">
<title>Node5&#45;&gt;Node10</title>
<path fill="none" stroke="midnightblue" d="M523.5,-152.59C544.41,-157.6 570.21,-163.79 592.39,-169.11"/>
<polygon fill="midnightblue" stroke="midnightblue" points="591.75,-172.55 602.29,-171.48 593.38,-165.74 591.75,-172.55"/>
</g>
<!-- Node11 -->
<g id="node11" class="node">
<title>Node11</title>
<g id="a_node11"><a xlink:href="zwave__s0__transport_8c.html#ade289797a519efdfbcbb8176339c60f3" target="_top" xlink:title=" ">
<polygon fill="none" stroke="black" points="604.5,-133.5 604.5,-152.5 681.5,-152.5 681.5,-133.5 604.5,-133.5"/>
<text text-anchor="middle" x="643" y="-140.5" font-family="Helvetica,sans-Serif" font-size="10.00">get_s0_nonce</text>
</a>
</g>
</g>
<!-- Node5&#45;&gt;Node11 -->
<g id="edge12" class="edge">
<title>Node5&#45;&gt;Node11</title>
<path fill="none" stroke="midnightblue" d="M537.6,-143C555.9,-143 576.18,-143 593.97,-143"/>
<polygon fill="midnightblue" stroke="midnightblue" points="594.12,-146.5 604.12,-143 594.12,-139.5 594.12,-146.5"/>
</g>
<!-- Node12 -->
<g id="node12" class="node">
<title>Node12</title>
<g id="a_node12"><a xlink:href="zwave__s0__transport_8c.html#a9944c78203e0b476f5cd80bca6dd76d1" target="_top" xlink:title=" ">
<polygon fill="none" stroke="black" points="608.5,-95.5 608.5,-114.5 677.5,-114.5 677.5,-95.5 608.5,-95.5"/>
<text text-anchor="middle" x="643" y="-102.5" font-family="Helvetica,sans-Serif" font-size="10.00">nonce_clear</text>
</a>
</g>
</g>
<!-- Node5&#45;&gt;Node12 -->
<g id="edge13" class="edge">
<title>Node5&#45;&gt;Node12</title>
<path fill="none" stroke="midnightblue" d="M523.5,-133.41C546.34,-127.93 575.01,-121.06 598.43,-115.45"/>
<polygon fill="midnightblue" stroke="midnightblue" points="599.54,-118.78 608.45,-113.04 597.91,-111.97 599.54,-118.78"/>
</g>
<!-- Node13 -->
<g id="node13" class="node">
<title>Node13</title>
<g id="a_node13"><a xlink:href="zwave__s0__transport_8c.html#a804b1de1ad94923895000f9f239341e0" target="_top" xlink:title=" ">
<polygon fill="none" stroke="black" points="603,-57.5 603,-76.5 683,-76.5 683,-57.5 603,-57.5"/>
<text text-anchor="middle" x="643" y="-64.5" font-family="Helvetica,sans-Serif" font-size="10.00">register_nonce</text>
</a>
</g>
</g>
<!-- Node5&#45;&gt;Node13 -->
<g id="edge14" class="edge">
<title>Node5&#45;&gt;Node13</title>
<path fill="none" stroke="midnightblue" d="M496.65,-133.29C514.04,-120.83 545.98,-99.27 576,-86 581.45,-83.59 587.29,-81.4 593.15,-79.43"/>
<polygon fill="midnightblue" stroke="midnightblue" points="594.5,-82.67 602.98,-76.33 592.4,-76 594.5,-82.67"/>
</g>
<!-- Node7 -->
<g id="node7" class="node">
<title>Node7</title>
<g id="a_node7"><a xlink:href="zwave__s0__transport_8c.html#a81a1edfa8dd156b07bbe49d8c85095bf" target="_top" xlink:title=" ">
<polygon fill="none" stroke="black" points="754.5,-266.5 754.5,-285.5 824.5,-285.5 824.5,-266.5 754.5,-266.5"/>
<text text-anchor="middle" x="789.5" y="-273.5" font-family="Helvetica,sans-Serif" font-size="10.00">aes_encrypt</text>
</a>
</g>
</g>
<!-- Node6&#45;&gt;Node7 -->
<g id="edge7" class="edge">
<title>Node6&#45;&gt;Node7</title>
<path fill="none" stroke="midnightblue" d="M681.59,-290.06C700.67,-287.55 723.99,-284.48 743.97,-281.86"/>
<polygon fill="midnightblue" stroke="midnightblue" points="744.61,-285.3 754.07,-280.53 743.7,-278.36 744.61,-285.3"/>
</g>
<!-- Node8&#45;&gt;Node7 -->
<g id="edge9" class="edge">
<title>Node8&#45;&gt;Node7</title>
<path fill="none" stroke="midnightblue" d="M668.51,-260.22C689.25,-262.95 719.48,-266.92 744.41,-270.2"/>
<polygon fill="midnightblue" stroke="midnightblue" points="744,-273.68 754.37,-271.51 744.91,-266.74 744,-273.68"/>
</g>
<!-- Node14 -->
<g id="node14" class="node">
<title>Node14</title>
<g id="a_node14"><a xlink:href="zwave__s0__transport_8c.html#aed7c30c1d59e44aab5ba91ad6e78d447" target="_top" xlink:title=" ">
<polygon fill="none" stroke="black" points="746,-57.5 746,-76.5 833,-76.5 833,-57.5 746,-57.5"/>
<text text-anchor="middle" x="789.5" y="-64.5" font-family="Helvetica,sans-Serif" font-size="10.00">restart_s0_timer</text>
</a>
</g>
</g>
<!-- Node13&#45;&gt;Node14 -->
<g id="edge15" class="edge">
<title>Node13&#45;&gt;Node14</title>
<path fill="none" stroke="midnightblue" d="M683.1,-67C699.31,-67 718.37,-67 735.78,-67"/>
<polygon fill="midnightblue" stroke="midnightblue" points="735.81,-70.5 745.81,-67 735.81,-63.5 735.81,-70.5"/>
</g>
<!-- Node15 -->
<g id="node15" class="node">
<title>Node15</title>
<g id="a_node15"><a xlink:href="zwave__s0__transport_8c.html#a23cc9cf50d02cdaa152e984177674bf9" target="_top" xlink:title=" ">
<polygon fill="none" stroke="black" points="869,-57.5 869,-76.5 976,-76.5 976,-57.5 869,-57.5"/>
<text text-anchor="middle" x="922.5" y="-64.5" font-family="Helvetica,sans-Serif" font-size="10.00">nonce_timer_timeout</text>
</a>
</g>
</g>
<!-- Node14&#45;&gt;Node15 -->
<g id="edge16" class="edge">
<title>Node14&#45;&gt;Node15</title>
<path fill="none" stroke="midnightblue" d="M833.03,-67C841.19,-67 849.9,-67 858.55,-67"/>
<polygon fill="midnightblue" stroke="midnightblue" points="858.64,-70.5 868.64,-67 858.64,-63.5 858.64,-70.5"/>
</g>
<!-- Node15&#45;&gt;Node15 -->
<g id="edge17" class="edge">
<title>Node15&#45;&gt;Node15</title>
<path fill="none" stroke="midnightblue" d="M902.15,-76.76C892.26,-85.57 899.04,-95 922.5,-95 937.53,-95 945.71,-91.13 947.05,-86.03"/>
<polygon fill="midnightblue" stroke="midnightblue" points="950.17,-84.42 942.85,-76.76 943.79,-87.31 950.17,-84.42"/>
</g>
<!-- Node17&#45;&gt;Node3 -->
<g id="edge21" class="edge">
<title>Node17&#45;&gt;Node3</title>
<path fill="none" stroke="midnightblue" d="M450.97,-57.56C435.96,-60.43 417.26,-63.22 399.3,-65.37"/>
<polygon fill="midnightblue" stroke="midnightblue" points="398.68,-61.91 389.13,-66.52 399.47,-68.87 398.68,-61.91"/>
</g>
<!-- Node17&#45;&gt;Node16 -->
<g id="edge20" class="edge">
<title>Node17&#45;&gt;Node16</title>
<path fill="none" stroke="midnightblue" d="M515.19,-44.2C536.95,-41.59 566.29,-38.08 591.27,-35.08"/>
<polygon fill="midnightblue" stroke="midnightblue" points="591.81,-38.54 601.32,-33.88 590.97,-31.59 591.81,-38.54"/>
</g>
</g>
</svg>
