<?xml version="1.0" encoding="UTF-8" standalone="no"?>
<!DOCTYPE svg PUBLIC "-//W3C//DTD SVG 1.1//EN"
 "http://www.w3.org/Graphics/SVG/1.1/DTD/svg11.dtd">
<!-- Generated by graphviz version 2.43.0 (0)
 -->
<!-- Title: is_portable_end_node Pages: 1 -->
<svg width="960pt" height="100pt"
 viewBox="0.00 0.00 960.00 99.50" xmlns="http://www.w3.org/2000/svg" xmlns:xlink="http://www.w3.org/1999/xlink">
<g id="graph0" class="graph" transform="scale(1 1) rotate(0) translate(4 95.5)">
<title>is_portable_end_node</title>
<!-- Node1 -->
<g id="node1" class="node">
<title>Node1</title>
<g id="a_node1"><a xlink:title="Verifies if a Node is a Portable End Node. (PS / PEN Role type)">
<polygon fill="#bfbfbf" stroke="black" points="0,-22.5 0,-41.5 111,-41.5 111,-22.5 0,-22.5"/>
<text text-anchor="middle" x="55.5" y="-29.5" font-family="Helvetica,sans-Serif" font-size="10.00">is_portable_end_node</text>
</a>
</g>
</g>
<!-- Node2 -->
<g id="node2" class="node">
<title>Node2</title>
<g id="a_node2"><a xlink:href="group__command__classes__utils.html#gaf1fbb6a0e57bf5218e97120ed7adc966" target="_top" xlink:title="Provides the Role Type of a node.">
<polygon fill="none" stroke="black" points="147,-22.5 147,-41.5 282,-41.5 282,-22.5 147,-22.5"/>
<text text-anchor="middle" x="214.5" y="-29.5" font-family="Helvetica,sans-Serif" font-size="10.00">get_zwave_node_role_type</text>
</a>
</g>
</g>
<!-- Node1&#45;&gt;Node2 -->
<g id="edge1" class="edge">
<title>Node1&#45;&gt;Node2</title>
<path fill="none" stroke="midnightblue" d="M111.41,-32C119.52,-32 128,-32 136.46,-32"/>
<polygon fill="midnightblue" stroke="midnightblue" points="136.74,-35.5 146.74,-32 136.74,-28.5 136.74,-35.5"/>
</g>
<!-- Node3 -->
<g id="node3" class="node">
<title>Node3</title>
<g id="a_node3"><a xlink:href="group__zpc__attribute__store__network__helpers.html#gae4d15b8e0c61c88d94c8f342bd2014fc" target="_top" xlink:title="Take a UNID/endpoint combination and returns its attribute store node.">
<polygon fill="none" stroke="black" points="318,-39 318,-69 453,-69 453,-39 318,-39"/>
<text text-anchor="start" x="326" y="-57" font-family="Helvetica,sans-Serif" font-size="10.00">attribute_store_network</text>
<text text-anchor="middle" x="385.5" y="-46" font-family="Helvetica,sans-Serif" font-size="10.00">_helper_get_endpoint_node</text>
</a>
</g>
</g>
<!-- Node2&#45;&gt;Node3 -->
<g id="edge2" class="edge">
<title>Node2&#45;&gt;Node3</title>
<path fill="none" stroke="midnightblue" d="M282.29,-40.69C290.72,-41.79 299.38,-42.92 307.94,-44.03"/>
<polygon fill="midnightblue" stroke="midnightblue" points="307.55,-47.51 317.92,-45.33 308.45,-40.57 307.55,-47.51"/>
</g>
<!-- Node8 -->
<g id="node8" class="node">
<title>Node8</title>
<g id="a_node8"><a xlink:href="group__zwave__unid.html#ga421deceb8a12916f049e4f3446774439" target="_top" xlink:title="Form a UNID.">
<polygon fill="none" stroke="black" points="319.5,-0.5 319.5,-19.5 451.5,-19.5 451.5,-0.5 319.5,-0.5"/>
<text text-anchor="middle" x="385.5" y="-7.5" font-family="Helvetica,sans-Serif" font-size="10.00">zwave_unid_from_node_id</text>
</a>
</g>
</g>
<!-- Node2&#45;&gt;Node8 -->
<g id="edge7" class="edge">
<title>Node2&#45;&gt;Node8</title>
<path fill="none" stroke="midnightblue" d="M282.29,-23.31C291.14,-22.15 300.26,-20.97 309.24,-19.8"/>
<polygon fill="midnightblue" stroke="midnightblue" points="309.83,-23.25 319.3,-18.49 308.93,-16.31 309.83,-23.25"/>
</g>
<!-- Node4 -->
<g id="node4" class="node">
<title>Node4</title>
<g id="a_node4"><a xlink:href="group__zpc__attribute__store__network__helpers.html#gafb993ff484b3c826743c4695d6659cf0" target="_top" xlink:title="Take a UNID and return its attribute store node representing the NodeID.">
<polygon fill="none" stroke="black" points="489,-39 489,-69 621,-69 621,-39 489,-39"/>
<text text-anchor="start" x="497" y="-57" font-family="Helvetica,sans-Serif" font-size="10.00">attribute_store_network</text>
<text text-anchor="middle" x="555" y="-46" font-family="Helvetica,sans-Serif" font-size="10.00">_helper_get_node_id_node</text>
</a>
</g>
</g>
<!-- Node3&#45;&gt;Node4 -->
<g id="edge3" class="edge">
<title>Node3&#45;&gt;Node4</title>
<path fill="none" stroke="midnightblue" d="M453.18,-54C461.55,-54 470.15,-54 478.64,-54"/>
<polygon fill="midnightblue" stroke="midnightblue" points="478.91,-57.5 488.91,-54 478.91,-50.5 478.91,-57.5"/>
</g>
<!-- Node5 -->
<g id="node5" class="node">
<title>Node5</title>
<g id="a_node5"><a xlink:href="group__zpc__attribute__store__network__helpers.html#ga05cb572c96f7dc8e6657f86e135fafed" target="_top" xlink:title="Take a UNID and return its attribute store node representing the HomeID.">
<polygon fill="none" stroke="black" points="657,-61 657,-91 792,-91 792,-61 657,-61"/>
<text text-anchor="start" x="665" y="-79" font-family="Helvetica,sans-Serif" font-size="10.00">attribute_store_network</text>
<text text-anchor="middle" x="724.5" y="-68" font-family="Helvetica,sans-Serif" font-size="10.00">_helper_get_home_id_node</text>
</a>
</g>
</g>
<!-- Node4&#45;&gt;Node5 -->
<g id="edge4" class="edge">
<title>Node4&#45;&gt;Node5</title>
<path fill="none" stroke="midnightblue" d="M621.24,-62.57C629.62,-63.67 638.27,-64.81 646.82,-65.93"/>
<polygon fill="midnightblue" stroke="midnightblue" points="646.41,-69.4 656.78,-67.24 647.32,-62.46 646.41,-69.4"/>
</g>
<!-- Node7 -->
<g id="node7" class="node">
<title>Node7</title>
<g id="a_node7"><a xlink:href="group__zwave__unid.html#ga76885767debd174e96e6df00b0a368c3" target="_top" xlink:title="Convert a UNID to a node ID.">
<polygon fill="none" stroke="black" points="664,-22.5 664,-41.5 785,-41.5 785,-22.5 664,-22.5"/>
<text text-anchor="middle" x="724.5" y="-29.5" font-family="Helvetica,sans-Serif" font-size="10.00">zwave_unid_to_node_id</text>
</a>
</g>
</g>
<!-- Node4&#45;&gt;Node7 -->
<g id="edge6" class="edge">
<title>Node4&#45;&gt;Node7</title>
<path fill="none" stroke="midnightblue" d="M621.24,-45.43C631.89,-44.03 642.96,-42.58 653.72,-41.17"/>
<polygon fill="midnightblue" stroke="midnightblue" points="654.45,-44.6 663.91,-39.83 653.54,-37.66 654.45,-44.6"/>
</g>
<!-- Node6 -->
<g id="node6" class="node">
<title>Node6</title>
<g id="a_node6"><a xlink:href="group__zwave__unid.html#ga92f9808a08c2ce1c0a6a9dc2debf3580" target="_top" xlink:title="Convert a UNID to a Home ID.">
<polygon fill="none" stroke="black" points="828,-66.5 828,-85.5 952,-85.5 952,-66.5 828,-66.5"/>
<text text-anchor="middle" x="890" y="-73.5" font-family="Helvetica,sans-Serif" font-size="10.00">zwave_unid_to_home_id</text>
</a>
</g>
</g>
<!-- Node5&#45;&gt;Node6 -->
<g id="edge5" class="edge">
<title>Node5&#45;&gt;Node6</title>
<path fill="none" stroke="midnightblue" d="M792,-76C800.42,-76 809.07,-76 817.57,-76"/>
<polygon fill="midnightblue" stroke="midnightblue" points="817.83,-79.5 827.83,-76 817.83,-72.5 817.83,-79.5"/>
</g>
</g>
</svg>
