<?xml version="1.0" encoding="UTF-8" standalone="no"?>
<!DOCTYPE svg PUBLIC "-//W3C//DTD SVG 1.1//EN"
 "http://www.w3.org/Graphics/SVG/1.1/DTD/svg11.dtd">
<!-- Generated by graphviz version 2.43.0 (0)
 -->
<!-- Title: zwave_network_management_assign_return_route Pages: 1 -->
<svg width="468pt" height="88pt"
 viewBox="0.00 0.00 468.00 88.00" xmlns="http://www.w3.org/2000/svg" xmlns:xlink="http://www.w3.org/1999/xlink">
<g id="graph0" class="graph" transform="scale(1 1) rotate(0) translate(4 84)">
<title>zwave_network_management_assign_return_route</title>
<!-- Node1 -->
<g id="node1" class="node">
<title>Node1</title>
<g id="a_node1"><a xlink:title="Assign static return routes to End Nodes.">
<polygon fill="#bfbfbf" stroke="black" points="0,-24.5 0,-54.5 146,-54.5 146,-24.5 0,-24.5"/>
<text text-anchor="start" x="8" y="-42.5" font-family="Helvetica,sans-Serif" font-size="10.00">zwave_network_management</text>
<text text-anchor="middle" x="73" y="-31.5" font-family="Helvetica,sans-Serif" font-size="10.00">_assign_return_route</text>
</a>
</g>
</g>
<!-- Node2 -->
<g id="node2" class="node">
<title>Node2</title>
<g id="a_node2"><a xlink:href="group__zwave__controller__component.html#gae8c7ea4da898ea006175e66032a2b0ff" target="_top" xlink:title="Tells if we are currently reseting the ZPC.">
<polygon fill="none" stroke="black" points="203.5,-49.5 203.5,-79.5 306.5,-79.5 306.5,-49.5 203.5,-49.5"/>
<text text-anchor="start" x="211.5" y="-67.5" font-family="Helvetica,sans-Serif" font-size="10.00">zwave_controller_is</text>
<text text-anchor="middle" x="255" y="-56.5" font-family="Helvetica,sans-Serif" font-size="10.00">_reset_ongoing</text>
</a>
</g>
</g>
<!-- Node1&#45;&gt;Node2 -->
<g id="edge1" class="edge">
<title>Node1&#45;&gt;Node2</title>
<path fill="none" stroke="midnightblue" d="M146.18,-49.52C161.75,-51.69 178.07,-53.95 193.16,-56.05"/>
<polygon fill="midnightblue" stroke="midnightblue" points="193,-59.56 203.39,-57.47 193.97,-52.63 193,-59.56"/>
</g>
<!-- Node3 -->
<g id="node3" class="node">
<title>Node3</title>
<g id="a_node3"><a xlink:href="group__zwave__network__management__return__route__queue.html#ga67b22179c8284b21e15f4132e7f8cd7a" target="_top" xlink:title="Adds a Return Route request into the queue.">
<polygon fill="none" stroke="black" points="182,-0.5 182,-30.5 328,-30.5 328,-0.5 182,-0.5"/>
<text text-anchor="start" x="190" y="-18.5" font-family="Helvetica,sans-Serif" font-size="10.00">zwave_network_management</text>
<text text-anchor="middle" x="255" y="-7.5" font-family="Helvetica,sans-Serif" font-size="10.00">_return_route_add_to_queue</text>
</a>
</g>
</g>
<!-- Node1&#45;&gt;Node3 -->
<g id="edge2" class="edge">
<title>Node1&#45;&gt;Node3</title>
<path fill="none" stroke="midnightblue" d="M146.18,-29.88C154.61,-28.75 163.27,-27.6 171.82,-26.46"/>
<polygon fill="midnightblue" stroke="midnightblue" points="172.36,-29.92 181.81,-25.13 171.43,-22.98 172.36,-29.92"/>
</g>
<!-- Node4 -->
<g id="node4" class="node">
<title>Node4</title>
<g id="a_node4"><a xlink:href="zwave__network__management__return__route__queue_8c.html#abc2d2bfae42621c95cc8a79645173721" target="_top" xlink:title="Resets the value of a queue entry.">
<polygon fill="none" stroke="black" points="364,-6 364,-25 460,-25 460,-6 364,-6"/>
<text text-anchor="middle" x="412" y="-13" font-family="Helvetica,sans-Serif" font-size="10.00">clear_queue_entry</text>
</a>
</g>
</g>
<!-- Node3&#45;&gt;Node4 -->
<g id="edge3" class="edge">
<title>Node3&#45;&gt;Node4</title>
<path fill="none" stroke="midnightblue" d="M328.05,-15.5C336.71,-15.5 345.46,-15.5 353.86,-15.5"/>
<polygon fill="midnightblue" stroke="midnightblue" points="353.91,-19 363.91,-15.5 353.91,-12 353.91,-19"/>
</g>
</g>
</svg>
