<?xml version="1.0" encoding="UTF-8" standalone="no"?>
<!DOCTYPE svg PUBLIC "-//W3C//DTD SVG 1.1//EN"
 "http://www.w3.org/Graphics/SVG/1.1/DTD/svg11.dtd">
<!-- Generated by graphviz version 2.43.0 (0)
 -->
<!-- Title: transport_service_init Pages: 1 -->
<svg width="377pt" height="78pt"
 viewBox="0.00 0.00 377.00 77.50" xmlns="http://www.w3.org/2000/svg" xmlns:xlink="http://www.w3.org/1999/xlink">
<g id="graph0" class="graph" transform="scale(1 1) rotate(0) translate(4 73.5)">
<title>transport_service_init</title>
<!-- Node1 -->
<g id="node1" class="node">
<title>Node1</title>
<g id="a_node1"><a xlink:title="Initialize the Transport Service.">
<polygon fill="#bfbfbf" stroke="black" points="0,-22.5 0,-41.5 110,-41.5 110,-22.5 0,-22.5"/>
<text text-anchor="middle" x="55" y="-29.5" font-family="Helvetica,sans-Serif" font-size="10.00">transport_service_init</text>
</a>
</g>
</g>
<!-- Node2 -->
<g id="node2" class="node">
<title>Node2</title>
<g id="a_node2"><a xlink:href="zwave__transport__service__wrapper_8c.html#a1ecdc6b768ff564a70d88b535b5296db" target="_top" xlink:title=" ">
<polygon fill="none" stroke="black" points="146,-22.5 146,-41.5 208,-41.5 208,-22.5 146,-22.5"/>
<text text-anchor="middle" x="177" y="-29.5" font-family="Helvetica,sans-Serif" font-size="10.00">send_data</text>
</a>
</g>
</g>
<!-- Node1&#45;&gt;Node2 -->
<g id="edge1" class="edge">
<title>Node1&#45;&gt;Node2</title>
<path fill="none" stroke="midnightblue" d="M110.03,-32C118.69,-32 127.52,-32 135.79,-32"/>
<polygon fill="midnightblue" stroke="midnightblue" points="135.9,-35.5 145.9,-32 135.9,-28.5 135.9,-35.5"/>
</g>
<!-- Node3 -->
<g id="node3" class="node">
<title>Node3</title>
<g id="a_node3"><a xlink:href="zwave__transport__service__wrapper_8c.html#a37f708fac73bae814b7bef4f7a9fc95b" target="_top" xlink:title=" ">
<polygon fill="none" stroke="black" points="244,-39 244,-69 369,-69 369,-39 244,-39"/>
<text text-anchor="start" x="252" y="-57" font-family="Helvetica,sans-Serif" font-size="10.00">on_zwave_tx_send_data</text>
<text text-anchor="middle" x="306.5" y="-46" font-family="Helvetica,sans-Serif" font-size="10.00">_complete</text>
</a>
</g>
</g>
<!-- Node2&#45;&gt;Node3 -->
<g id="edge2" class="edge">
<title>Node2&#45;&gt;Node3</title>
<path fill="none" stroke="midnightblue" d="M208.22,-37.21C216.11,-38.58 224.97,-40.1 234.03,-41.67"/>
<polygon fill="midnightblue" stroke="midnightblue" points="233.47,-45.12 243.92,-43.37 234.66,-38.22 233.47,-45.12"/>
</g>
<!-- Node4 -->
<g id="node4" class="node">
<title>Node4</title>
<g id="a_node4"><a xlink:href="group__zwave__tx.html#gad1538f36d226fe8147c5e538625568df" target="_top" xlink:title="Queue and send frames to Z&#45;Wave nodes.">
<polygon fill="none" stroke="black" points="252,-0.5 252,-19.5 361,-19.5 361,-0.5 252,-0.5"/>
<text text-anchor="middle" x="306.5" y="-7.5" font-family="Helvetica,sans-Serif" font-size="10.00">zwave_tx_send_data</text>
</a>
</g>
</g>
<!-- Node2&#45;&gt;Node4 -->
<g id="edge3" class="edge">
<title>Node2&#45;&gt;Node4</title>
<path fill="none" stroke="midnightblue" d="M208.22,-26.79C218.3,-25.05 229.94,-23.04 241.59,-21.03"/>
<polygon fill="midnightblue" stroke="midnightblue" points="242.54,-24.42 251.8,-19.27 241.35,-17.52 242.54,-24.42"/>
</g>
</g>
</svg>
