<?xml version="1.0" encoding="UTF-8" standalone="no"?>
<!DOCTYPE svg PUBLIC "-//W3C//DTD SVG 1.1//EN"
 "http://www.w3.org/Graphics/SVG/1.1/DTD/svg11.dtd">
<!-- Generated by graphviz version 2.43.0 (0)
 -->
<!-- Title: get_unsigned_value_from_frame_and_size Pages: 1 -->
<svg width="1167pt" height="400pt"
 viewBox="0.00 0.00 1167.00 399.50" xmlns="http://www.w3.org/2000/svg" xmlns:xlink="http://www.w3.org/1999/xlink">
<g id="graph0" class="graph" transform="scale(1 1) rotate(0) translate(4 395.5)">
<title>get_unsigned_value_from_frame_and_size</title>
<!-- Node1 -->
<g id="node1" class="node">
<title>Node1</title>
<g id="a_node1"><a xlink:title="Extracts a 1,2 or 4 bytes unsigned value from a frame.">
<polygon fill="#bfbfbf" stroke="black" points="1043,-165 1043,-195 1159,-195 1159,-165 1043,-165"/>
<text text-anchor="start" x="1051" y="-183" font-family="Helvetica,sans-Serif" font-size="10.00">get_unsigned_value</text>
<text text-anchor="middle" x="1101" y="-172" font-family="Helvetica,sans-Serif" font-size="10.00">_from_frame_and_size</text>
</a>
</g>
</g>
<!-- Node2 -->
<g id="node2" class="node">
<title>Node2</title>
<g id="a_node2"><a xlink:href="group__command__classes__utils.html#ga359fa8c1765274e72fa964e94b772f97" target="_top" xlink:title="Extracts a 1,2 or 4 bytes signed value from a frame.">
<polygon fill="none" stroke="black" points="890,-195 890,-225 1007,-225 1007,-195 890,-195"/>
<text text-anchor="start" x="898" y="-213" font-family="Helvetica,sans-Serif" font-size="10.00">get_signed_value_from</text>
<text text-anchor="middle" x="948.5" y="-202" font-family="Helvetica,sans-Serif" font-size="10.00">_frame_and_size</text>
</a>
</g>
</g>
<!-- Node1&#45;&gt;Node2 -->
<g id="edge1" class="edge">
<title>Node1&#45;&gt;Node2</title>
<path fill="none" stroke="midnightblue" d="M1032.74,-193.41C1024.21,-195.11 1015.53,-196.84 1007.17,-198.51"/>
<polygon fill="midnightblue" stroke="midnightblue" points="1033.55,-196.81 1042.67,-191.43 1032.18,-189.95 1033.55,-196.81"/>
</g>
<!-- Node13 -->
<g id="node13" class="node">
<title>Node13</title>
<g id="a_node13"><a xlink:href="zwave__command__class__configuration__control_8c.html#a244ada7bd51321a86eb2b03a88a957cd" target="_top" xlink:title=" ">
<polygon fill="none" stroke="black" points="730,-131.5 730,-150.5 845,-150.5 845,-131.5 730,-131.5"/>
<text text-anchor="middle" x="787.5" y="-138.5" font-family="Helvetica,sans-Serif" font-size="10.00">save_parameter_value</text>
</a>
</g>
</g>
<!-- Node1&#45;&gt;Node13 -->
<g id="edge26" class="edge">
<title>Node1&#45;&gt;Node13</title>
<path fill="none" stroke="midnightblue" d="M1032.68,-171.57C976.66,-164.56 897.8,-154.68 845.01,-148.07"/>
<polygon fill="midnightblue" stroke="midnightblue" points="1032.51,-175.08 1042.87,-172.85 1033.38,-168.13 1032.51,-175.08"/>
</g>
<!-- Node3 -->
<g id="node3" class="node">
<title>Node3</title>
<g id="a_node3"><a xlink:href="group__command__classes__utils.html#gab7746d5f57493bb03d29c539c2fd523d" target="_top" xlink:title="Parse a value and pack it into a uint32.">
<polygon fill="none" stroke="black" points="721,-279 721,-309 854,-309 854,-279 721,-279"/>
<text text-anchor="start" x="729" y="-297" font-family="Helvetica,sans-Serif" font-size="10.00">command_class_get_int32</text>
<text text-anchor="middle" x="787.5" y="-286" font-family="Helvetica,sans-Serif" font-size="10.00">_value</text>
</a>
</g>
</g>
<!-- Node2&#45;&gt;Node3 -->
<g id="edge2" class="edge">
<title>Node2&#45;&gt;Node3</title>
<path fill="none" stroke="midnightblue" d="M910.21,-229.7C881.7,-244.76 842.99,-265.21 816.95,-278.97"/>
<polygon fill="midnightblue" stroke="midnightblue" points="911.87,-232.78 919.07,-225.02 908.6,-226.59 911.87,-232.78"/>
</g>
<!-- Node8 -->
<g id="node8" class="node">
<title>Node8</title>
<g id="a_node8"><a xlink:href="zwave__command__class__humidity__control__setpoint_8c.html#a86136ea4618086291f3a5d2984e0b9ee" target="_top" xlink:title="Interpret value from a report frame and store it in the attribute store.">
<polygon fill="none" stroke="black" points="735,-195 735,-225 840,-225 840,-195 735,-195"/>
<text text-anchor="start" x="743" y="-213" font-family="Helvetica,sans-Serif" font-size="10.00">interpret_value_from</text>
<text text-anchor="middle" x="787.5" y="-202" font-family="Helvetica,sans-Serif" font-size="10.00">_report</text>
</a>
</g>
</g>
<!-- Node2&#45;&gt;Node8 -->
<g id="edge7" class="edge">
<title>Node2&#45;&gt;Node8</title>
<path fill="none" stroke="midnightblue" d="M879.28,-210C866.2,-210 852.71,-210 840.25,-210"/>
<polygon fill="midnightblue" stroke="midnightblue" points="879.65,-213.5 889.65,-210 879.65,-206.5 879.65,-213.5"/>
</g>
<!-- Node2&#45;&gt;Node13 -->
<g id="edge13" class="edge">
<title>Node2&#45;&gt;Node13</title>
<path fill="none" stroke="midnightblue" d="M903.15,-190.75C873,-177.67 834.42,-160.93 810.58,-150.58"/>
<polygon fill="midnightblue" stroke="midnightblue" points="902.04,-194.09 912.61,-194.86 904.83,-187.67 902.04,-194.09"/>
</g>
<!-- Node19 -->
<g id="node19" class="node">
<title>Node19</title>
<g id="a_node19"><a xlink:href="zwave__command__class__meter__control_8c.html#ad7bccccca0dbb47d88825a10bcfcc06a" target="_top" xlink:title="Process an incoming Meter Report Command.">
<polygon fill="none" stroke="black" points="726.5,-346.5 726.5,-387.5 848.5,-387.5 848.5,-346.5 726.5,-346.5"/>
<text text-anchor="start" x="734.5" y="-375.5" font-family="Helvetica,sans-Serif" font-size="10.00">zwave_command_class</text>
<text text-anchor="start" x="734.5" y="-364.5" font-family="Helvetica,sans-Serif" font-size="10.00">_meter_handle_report</text>
<text text-anchor="middle" x="787.5" y="-353.5" font-family="Helvetica,sans-Serif" font-size="10.00">_command</text>
</a>
</g>
</g>
<!-- Node2&#45;&gt;Node19 -->
<g id="edge22" class="edge">
<title>Node2&#45;&gt;Node19</title>
<path fill="none" stroke="midnightblue" d="M930.13,-233.22C912.33,-256.27 883.2,-291.96 854,-319 843.45,-328.77 830.91,-338.38 819.64,-346.4"/>
<polygon fill="midnightblue" stroke="midnightblue" points="933.08,-235.12 936.38,-225.05 927.52,-230.87 933.08,-235.12"/>
</g>
<!-- Node4 -->
<g id="node4" class="node">
<title>Node4</title>
<g id="a_node4"><a xlink:href="zwave__command__class__multilevel__sensor_8c.html#aab8e97fb91292b61b6d8597ce2b546e0" target="_top" xlink:title=" ">
<polygon fill="none" stroke="black" points="548,-300.5 548,-341.5 679,-341.5 679,-300.5 548,-300.5"/>
<text text-anchor="start" x="556" y="-329.5" font-family="Helvetica,sans-Serif" font-size="10.00">zwave_command_class</text>
<text text-anchor="start" x="556" y="-318.5" font-family="Helvetica,sans-Serif" font-size="10.00">_multilevel_sensor_handle</text>
<text text-anchor="middle" x="613.5" y="-307.5" font-family="Helvetica,sans-Serif" font-size="10.00">_report</text>
</a>
</g>
</g>
<!-- Node3&#45;&gt;Node4 -->
<g id="edge3" class="edge">
<title>Node3&#45;&gt;Node4</title>
<path fill="none" stroke="midnightblue" d="M710.94,-305.86C700.38,-307.52 689.6,-309.21 679.27,-310.83"/>
<polygon fill="midnightblue" stroke="midnightblue" points="711.65,-309.29 720.98,-304.28 710.56,-302.38 711.65,-309.29"/>
</g>
<!-- Node5 -->
<g id="node5" class="node">
<title>Node5</title>
<g id="a_node5"><a xlink:href="zwave__command__class__multilevel__sensor_8c.html#a389d2c5d83cce7ddd65d15c522bb45e7" target="_top" xlink:title=" ">
<polygon fill="none" stroke="black" points="373.5,-300.5 373.5,-341.5 505.5,-341.5 505.5,-300.5 373.5,-300.5"/>
<text text-anchor="start" x="381.5" y="-329.5" font-family="Helvetica,sans-Serif" font-size="10.00">zwave_command_class</text>
<text text-anchor="start" x="381.5" y="-318.5" font-family="Helvetica,sans-Serif" font-size="10.00">_multilevel_sensor_control</text>
<text text-anchor="middle" x="439.5" y="-307.5" font-family="Helvetica,sans-Serif" font-size="10.00">_handler</text>
</a>
</g>
</g>
<!-- Node4&#45;&gt;Node5 -->
<g id="edge4" class="edge">
<title>Node4&#45;&gt;Node5</title>
<path fill="none" stroke="midnightblue" d="M537.8,-321C527.11,-321 516.18,-321 505.68,-321"/>
<polygon fill="midnightblue" stroke="midnightblue" points="537.96,-324.5 547.96,-321 537.96,-317.5 537.96,-324.5"/>
</g>
<!-- Node6 -->
<g id="node6" class="node">
<title>Node6</title>
<g id="a_node6"><a xlink:href="group__multilevel__sensor__command__class.html#gae565619d311f1e10a434f87b874b2d64" target="_top" xlink:title="Initialize the Multilevel Sensor Command Class control.">
<polygon fill="none" stroke="black" points="200.5,-306 200.5,-336 322.5,-336 322.5,-306 200.5,-306"/>
<text text-anchor="start" x="208.5" y="-324" font-family="Helvetica,sans-Serif" font-size="10.00">zwave_command_class</text>
<text text-anchor="middle" x="261.5" y="-313" font-family="Helvetica,sans-Serif" font-size="10.00">_multilevel_sensor_init</text>
</a>
</g>
</g>
<!-- Node5&#45;&gt;Node6 -->
<g id="edge5" class="edge">
<title>Node5&#45;&gt;Node6</title>
<path fill="none" stroke="midnightblue" d="M363.2,-321C349.64,-321 335.66,-321 322.61,-321"/>
<polygon fill="midnightblue" stroke="midnightblue" points="363.46,-324.5 373.46,-321 363.46,-317.5 363.46,-324.5"/>
</g>
<!-- Node7 -->
<g id="node7" class="node">
<title>Node7</title>
<g id="a_node7"><a xlink:href="group__command__classes__fixt.html#ga5272651939ced1723158340039e8da19" target="_top" xlink:title="Setup fixture for Z&#45;Wave Command Classes.">
<polygon fill="none" stroke="black" points="0,-311.5 0,-330.5 150,-330.5 150,-311.5 0,-311.5"/>
<text text-anchor="middle" x="75" y="-318.5" font-family="Helvetica,sans-Serif" font-size="10.00">zwave_command_classes_init</text>
</a>
</g>
</g>
<!-- Node6&#45;&gt;Node7 -->
<g id="edge6" class="edge">
<title>Node6&#45;&gt;Node7</title>
<path fill="none" stroke="midnightblue" d="M190.05,-321C177.03,-321 163.4,-321 150.27,-321"/>
<polygon fill="midnightblue" stroke="midnightblue" points="190.34,-324.5 200.34,-321 190.34,-317.5 190.34,-324.5"/>
</g>
<!-- Node9 -->
<g id="node9" class="node">
<title>Node9</title>
<g id="a_node9"><a xlink:href="zwave__command__class__humidity__control__setpoint_8c.html#a235b71f668cac7ce0b49310ed367e098" target="_top" xlink:title=" ">
<polygon fill="none" stroke="black" points="546.5,-240.5 546.5,-281.5 680.5,-281.5 680.5,-240.5 546.5,-240.5"/>
<text text-anchor="start" x="554.5" y="-269.5" font-family="Helvetica,sans-Serif" font-size="10.00">zwave_command_class</text>
<text text-anchor="start" x="554.5" y="-258.5" font-family="Helvetica,sans-Serif" font-size="10.00">_humidity_control_setpoint</text>
<text text-anchor="middle" x="613.5" y="-247.5" font-family="Helvetica,sans-Serif" font-size="10.00">_capabilities_handle_report</text>
</a>
</g>
</g>
<!-- Node8&#45;&gt;Node9 -->
<g id="edge8" class="edge">
<title>Node8&#45;&gt;Node9</title>
<path fill="none" stroke="midnightblue" d="M725.91,-227.97C711.3,-232.3 695.62,-236.95 680.77,-241.35"/>
<polygon fill="midnightblue" stroke="midnightblue" points="727.23,-231.22 735.82,-225.03 725.24,-224.51 727.23,-231.22"/>
</g>
<!-- Node12 -->
<g id="node12" class="node">
<title>Node12</title>
<g id="a_node12"><a xlink:href="zwave__command__class__humidity__control__setpoint_8c.html#ac3c376395a302e0e2cbfe7229b2b6ea6" target="_top" xlink:title=" ">
<polygon fill="none" stroke="black" points="547,-180.5 547,-221.5 680,-221.5 680,-180.5 547,-180.5"/>
<text text-anchor="start" x="555" y="-209.5" font-family="Helvetica,sans-Serif" font-size="10.00">zwave_command_class</text>
<text text-anchor="start" x="555" y="-198.5" font-family="Helvetica,sans-Serif" font-size="10.00">_humidity_control_setpoint</text>
<text text-anchor="middle" x="613.5" y="-187.5" font-family="Helvetica,sans-Serif" font-size="10.00">_handle_report</text>
</a>
</g>
</g>
<!-- Node8&#45;&gt;Node12 -->
<g id="edge11" class="edge">
<title>Node8&#45;&gt;Node12</title>
<path fill="none" stroke="midnightblue" d="M724.58,-206.76C710.14,-206 694.71,-205.2 680.12,-204.43"/>
<polygon fill="midnightblue" stroke="midnightblue" points="724.73,-210.27 734.89,-207.3 725.09,-203.28 724.73,-210.27"/>
</g>
<!-- Node10 -->
<g id="node10" class="node">
<title>Node10</title>
<g id="a_node10"><a xlink:href="zwave__command__class__humidity__control__setpoint_8c.html#a7c4650a6c3a4cdb774bf7f88ef4f483f" target="_top" xlink:title=" ">
<polygon fill="none" stroke="black" points="373,-210.5 373,-251.5 506,-251.5 506,-210.5 373,-210.5"/>
<text text-anchor="start" x="381" y="-239.5" font-family="Helvetica,sans-Serif" font-size="10.00">zwave_command_class</text>
<text text-anchor="start" x="381" y="-228.5" font-family="Helvetica,sans-Serif" font-size="10.00">_humidity_control_setpoint</text>
<text text-anchor="middle" x="439.5" y="-217.5" font-family="Helvetica,sans-Serif" font-size="10.00">_control_handler</text>
</a>
</g>
</g>
<!-- Node9&#45;&gt;Node10 -->
<g id="edge9" class="edge">
<title>Node9&#45;&gt;Node10</title>
<path fill="none" stroke="midnightblue" d="M536.44,-247.73C526.3,-245.97 515.98,-244.17 506.05,-242.43"/>
<polygon fill="midnightblue" stroke="midnightblue" points="536.04,-251.22 546.49,-249.49 537.24,-244.32 536.04,-251.22"/>
</g>
<!-- Node11 -->
<g id="node11" class="node">
<title>Node11</title>
<g id="a_node11"><a xlink:href="group__zwave__command__class__humidity__control__setpoint.html#ga4abb01b3b103b452e9d967c16c521f24" target="_top" xlink:title=" ">
<polygon fill="none" stroke="black" points="186,-216 186,-246 337,-246 337,-216 186,-216"/>
<text text-anchor="start" x="194" y="-234" font-family="Helvetica,sans-Serif" font-size="10.00">zwave_command_class</text>
<text text-anchor="middle" x="261.5" y="-223" font-family="Helvetica,sans-Serif" font-size="10.00">_humidity_control_setpoint_init</text>
</a>
</g>
</g>
<!-- Node10&#45;&gt;Node11 -->
<g id="edge10" class="edge">
<title>Node10&#45;&gt;Node11</title>
<path fill="none" stroke="midnightblue" d="M362.76,-231C354.31,-231 345.71,-231 337.28,-231"/>
<polygon fill="midnightblue" stroke="midnightblue" points="362.96,-234.5 372.96,-231 362.96,-227.5 362.96,-234.5"/>
</g>
<!-- Node12&#45;&gt;Node10 -->
<g id="edge12" class="edge">
<title>Node12&#45;&gt;Node10</title>
<path fill="none" stroke="midnightblue" d="M536.83,-214.2C526.6,-215.98 516.16,-217.8 506.12,-219.55"/>
<polygon fill="midnightblue" stroke="midnightblue" points="537.73,-217.59 546.98,-212.43 536.53,-210.7 537.73,-217.59"/>
</g>
<!-- Node14 -->
<g id="node14" class="node">
<title>Node14</title>
<g id="a_node14"><a xlink:href="zwave__command__class__configuration__control_8c.html#accd85e03b56e05ab3299ece4ee2f07a3" target="_top" xlink:title="Handle incoming Configuration Bulk Report Commands.">
<polygon fill="none" stroke="black" points="552.5,-120.5 552.5,-161.5 674.5,-161.5 674.5,-120.5 552.5,-120.5"/>
<text text-anchor="start" x="560.5" y="-149.5" font-family="Helvetica,sans-Serif" font-size="10.00">zwave_command_class</text>
<text text-anchor="start" x="560.5" y="-138.5" font-family="Helvetica,sans-Serif" font-size="10.00">_configuration_handle</text>
<text text-anchor="middle" x="613.5" y="-127.5" font-family="Helvetica,sans-Serif" font-size="10.00">_bulk_report_command</text>
</a>
</g>
</g>
<!-- Node13&#45;&gt;Node14 -->
<g id="edge14" class="edge">
<title>Node13&#45;&gt;Node14</title>
<path fill="none" stroke="midnightblue" d="M719.62,-141C704.85,-141 689.28,-141 674.78,-141"/>
<polygon fill="midnightblue" stroke="midnightblue" points="719.7,-144.5 729.7,-141 719.7,-137.5 719.7,-144.5"/>
</g>
<!-- Node17 -->
<g id="node17" class="node">
<title>Node17</title>
<g id="a_node17"><a xlink:href="zwave__command__class__configuration__control_8c.html#ad744ab83042de2b3c67bcc7b9411b874" target="_top" xlink:title="Handle incoming Configuration Properties Report Commands.">
<polygon fill="none" stroke="black" points="542,-60.5 542,-101.5 685,-101.5 685,-60.5 542,-60.5"/>
<text text-anchor="start" x="550" y="-89.5" font-family="Helvetica,sans-Serif" font-size="10.00">zwave_command_class</text>
<text text-anchor="start" x="550" y="-78.5" font-family="Helvetica,sans-Serif" font-size="10.00">_configuration_handle</text>
<text text-anchor="middle" x="613.5" y="-67.5" font-family="Helvetica,sans-Serif" font-size="10.00">_properties_report_command</text>
</a>
</g>
</g>
<!-- Node13&#45;&gt;Node17 -->
<g id="edge18" class="edge">
<title>Node13&#45;&gt;Node17</title>
<path fill="none" stroke="midnightblue" d="M749.54,-128.11C727.34,-120.36 698.58,-110.33 673.32,-101.52"/>
<polygon fill="midnightblue" stroke="midnightblue" points="748.65,-131.5 759.25,-131.49 750.96,-124.89 748.65,-131.5"/>
</g>
<!-- Node18 -->
<g id="node18" class="node">
<title>Node18</title>
<g id="a_node18"><a xlink:href="zwave__command__class__configuration__control_8c.html#a442abc571c14d1dce6c70bf877dbac9c" target="_top" xlink:title="Handle incoming Configuration Report Commands.">
<polygon fill="none" stroke="black" points="552.5,-0.5 552.5,-41.5 674.5,-41.5 674.5,-0.5 552.5,-0.5"/>
<text text-anchor="start" x="560.5" y="-29.5" font-family="Helvetica,sans-Serif" font-size="10.00">zwave_command_class</text>
<text text-anchor="start" x="560.5" y="-18.5" font-family="Helvetica,sans-Serif" font-size="10.00">_configuration_handle</text>
<text text-anchor="middle" x="613.5" y="-7.5" font-family="Helvetica,sans-Serif" font-size="10.00">_report_command</text>
</a>
</g>
</g>
<!-- Node13&#45;&gt;Node18 -->
<g id="edge20" class="edge">
<title>Node13&#45;&gt;Node18</title>
<path fill="none" stroke="midnightblue" d="M770.87,-124.17C752,-104.59 718.59,-72.24 685,-51 679.72,-47.66 674,-44.53 668.18,-41.66"/>
<polygon fill="midnightblue" stroke="midnightblue" points="768.38,-126.63 777.81,-131.47 773.46,-121.81 768.38,-126.63"/>
</g>
<!-- Node15 -->
<g id="node15" class="node">
<title>Node15</title>
<g id="a_node15"><a xlink:href="zwave__command__class__configuration__control_8c.html#a47d754a17f1ac5b2d479005308d7084f" target="_top" xlink:title="Dispatches incoming Configuration Commands to individual command handlers.">
<polygon fill="none" stroke="black" points="378.5,-90.5 378.5,-131.5 500.5,-131.5 500.5,-90.5 378.5,-90.5"/>
<text text-anchor="start" x="386.5" y="-119.5" font-family="Helvetica,sans-Serif" font-size="10.00">zwave_command_class</text>
<text text-anchor="start" x="386.5" y="-108.5" font-family="Helvetica,sans-Serif" font-size="10.00">_configuration_control</text>
<text text-anchor="middle" x="439.5" y="-97.5" font-family="Helvetica,sans-Serif" font-size="10.00">_handler</text>
</a>
</g>
</g>
<!-- Node14&#45;&gt;Node15 -->
<g id="edge15" class="edge">
<title>Node14&#45;&gt;Node15</title>
<path fill="none" stroke="midnightblue" d="M542.38,-128.77C528.53,-126.35 514.11,-123.84 500.62,-121.49"/>
<polygon fill="midnightblue" stroke="midnightblue" points="541.89,-132.24 552.34,-130.51 543.09,-125.34 541.89,-132.24"/>
</g>
<!-- Node16 -->
<g id="node16" class="node">
<title>Node16</title>
<g id="a_node16"><a xlink:href="group__zwave__command__class__configuration.html#gacc11ad9afa837acce0d1aada6408e1ce" target="_top" xlink:title="This function initialize the Configuration Command Class handler.">
<polygon fill="none" stroke="black" points="200.5,-147 200.5,-177 322.5,-177 322.5,-147 200.5,-147"/>
<text text-anchor="start" x="208.5" y="-165" font-family="Helvetica,sans-Serif" font-size="10.00">zwave_command_class</text>
<text text-anchor="middle" x="261.5" y="-154" font-family="Helvetica,sans-Serif" font-size="10.00">_configuration_init</text>
</a>
</g>
</g>
<!-- Node15&#45;&gt;Node16 -->
<g id="edge16" class="edge">
<title>Node15&#45;&gt;Node16</title>
<path fill="none" stroke="midnightblue" d="M368.77,-131.21C350.63,-136.46 331.41,-142.03 314.38,-146.97"/>
<polygon fill="midnightblue" stroke="midnightblue" points="369.79,-134.55 378.42,-128.41 367.84,-127.83 369.79,-134.55"/>
</g>
<!-- Node16&#45;&gt;Node7 -->
<g id="edge17" class="edge">
<title>Node16&#45;&gt;Node7</title>
<path fill="none" stroke="midnightblue" d="M223.08,-182.03C210.81,-189.26 197.41,-197.9 186,-207 143.43,-240.96 100.91,-290.58 83.82,-311.33"/>
<polygon fill="midnightblue" stroke="midnightblue" points="224.84,-185.06 231.76,-177.03 221.35,-178.99 224.84,-185.06"/>
</g>
<!-- Node17&#45;&gt;Node15 -->
<g id="edge19" class="edge">
<title>Node17&#45;&gt;Node15</title>
<path fill="none" stroke="midnightblue" d="M531.59,-95.11C521.16,-96.93 510.62,-98.77 500.6,-100.52"/>
<polygon fill="midnightblue" stroke="midnightblue" points="532.3,-98.54 541.55,-93.38 531.1,-91.65 532.3,-98.54"/>
</g>
<!-- Node18&#45;&gt;Node15 -->
<g id="edge21" class="edge">
<title>Node18&#45;&gt;Node15</title>
<path fill="none" stroke="midnightblue" d="M552.83,-45.73C549.14,-47.47 545.51,-49.23 542,-51 518.25,-63.01 492.45,-78.29 472.8,-90.43"/>
<polygon fill="midnightblue" stroke="midnightblue" points="554.43,-48.85 562.06,-41.51 551.51,-42.49 554.43,-48.85"/>
</g>
<!-- Node20 -->
<g id="node20" class="node">
<title>Node20</title>
<g id="a_node20"><a xlink:href="zwave__command__class__meter__control_8c.html#a5db19f3e36520975ed363436cb319206" target="_top" xlink:title="Dispatches incoming Meter Commands to individual command handlers.">
<polygon fill="none" stroke="black" points="552.5,-361 552.5,-391 674.5,-391 674.5,-361 552.5,-361"/>
<text text-anchor="start" x="560.5" y="-379" font-family="Helvetica,sans-Serif" font-size="10.00">zwave_command_class</text>
<text text-anchor="middle" x="613.5" y="-368" font-family="Helvetica,sans-Serif" font-size="10.00">_meter_control_handler</text>
</a>
</g>
</g>
<!-- Node19&#45;&gt;Node20 -->
<g id="edge23" class="edge">
<title>Node19&#45;&gt;Node20</title>
<path fill="none" stroke="midnightblue" d="M715.98,-370.69C702.25,-371.41 687.98,-372.16 674.62,-372.85"/>
<polygon fill="midnightblue" stroke="midnightblue" points="716.54,-374.17 726.34,-370.15 716.17,-367.18 716.54,-374.17"/>
</g>
<!-- Node21 -->
<g id="node21" class="node">
<title>Node21</title>
<g id="a_node21"><a xlink:href="group__zwave__command__class__meter__control.html#gabaf4a36abd7f11c2acd3c0df5575d721" target="_top" xlink:title="This function initialize the Meter Command Class control handler.">
<polygon fill="none" stroke="black" points="200.5,-356 200.5,-386 322.5,-386 322.5,-356 200.5,-356"/>
<text text-anchor="start" x="208.5" y="-374" font-family="Helvetica,sans-Serif" font-size="10.00">zwave_command_class</text>
<text text-anchor="middle" x="261.5" y="-363" font-family="Helvetica,sans-Serif" font-size="10.00">_meter_control_init</text>
</a>
</g>
</g>
<!-- Node20&#45;&gt;Node21 -->
<g id="edge24" class="edge">
<title>Node20&#45;&gt;Node21</title>
<path fill="none" stroke="midnightblue" d="M542.28,-375C477.95,-374.08 383.74,-372.73 322.76,-371.86"/>
<polygon fill="midnightblue" stroke="midnightblue" points="542.28,-378.5 552.33,-375.14 542.38,-371.5 542.28,-378.5"/>
</g>
<!-- Node21&#45;&gt;Node7 -->
<g id="edge25" class="edge">
<title>Node21&#45;&gt;Node7</title>
<path fill="none" stroke="midnightblue" d="M195.31,-353.33C167.01,-345.67 134.99,-336.99 111.25,-330.55"/>
<polygon fill="midnightblue" stroke="midnightblue" points="194.58,-356.76 205.14,-356 196.41,-350 194.58,-356.76"/>
</g>
</g>
</svg>
