<?xml version="1.0" encoding="UTF-8" standalone="no"?>
<!DOCTYPE svg PUBLIC "-//W3C//DTD SVG 1.1//EN"
 "http://www.w3.org/Graphics/SVG/1.1/DTD/svg11.dtd">
<!-- Generated by graphviz version 2.43.0 (0)
 -->
<!-- Title: on_set_suc_node_id_completed Pages: 1 -->
<svg width="1728pt" height="541pt"
 viewBox="0.00 0.00 1728.00 541.00" xmlns="http://www.w3.org/2000/svg" xmlns:xlink="http://www.w3.org/1999/xlink">
<g id="graph0" class="graph" transform="scale(1 1) rotate(0) translate(4 537)">
<title>on_set_suc_node_id_completed</title>
<!-- Node1 -->
<g id="node1" class="node">
<title>Node1</title>
<g id="a_node1"><a xlink:title="callback function for zwapi_set_suc_node_id()">
<polygon fill="#bfbfbf" stroke="black" points="0,-242.5 0,-272.5 106,-272.5 106,-242.5 0,-242.5"/>
<text text-anchor="start" x="8" y="-260.5" font-family="Helvetica,sans-Serif" font-size="10.00">on_set_suc_node_id</text>
<text text-anchor="middle" x="53" y="-249.5" font-family="Helvetica,sans-Serif" font-size="10.00">_completed</text>
</a>
</g>
</g>
<!-- Node2 -->
<g id="node2" class="node">
<title>Node2</title>
<g id="a_node2"><a xlink:href="group__zwave__network__management__helpers.html#gad93f9cb8e3a634d25bc50f6b452a143e" target="_top" xlink:title="Asks the Z&#45;Wave API to tell us what are the controller&#39;s capabilities in this network.">
<polygon fill="none" stroke="black" points="142,-237 142,-278 255,-278 255,-237 142,-237"/>
<text text-anchor="start" x="150" y="-266" font-family="Helvetica,sans-Serif" font-size="10.00">network_management</text>
<text text-anchor="start" x="150" y="-255" font-family="Helvetica,sans-Serif" font-size="10.00">_refresh_controller</text>
<text text-anchor="middle" x="198.5" y="-244" font-family="Helvetica,sans-Serif" font-size="10.00">_capabilities_bitmask</text>
</a>
</g>
</g>
<!-- Node1&#45;&gt;Node2 -->
<g id="edge1" class="edge">
<title>Node1&#45;&gt;Node2</title>
<path fill="none" stroke="midnightblue" d="M106.21,-257.5C114.42,-257.5 122.99,-257.5 131.46,-257.5"/>
<polygon fill="midnightblue" stroke="midnightblue" points="131.7,-261 141.7,-257.5 131.7,-254 131.7,-261"/>
</g>
<!-- Node3 -->
<g id="node3" class="node">
<title>Node3</title>
<g id="a_node3"><a xlink:href="group__ZWAPI__CONTROLLER.html#ga1c8e6e8d406243318e491e21b6ceb838" target="_top" xlink:title="Get capabilities of a controller.">
<polygon fill="none" stroke="black" points="291,-242.5 291,-272.5 397,-272.5 397,-242.5 291,-242.5"/>
<text text-anchor="start" x="299" y="-260.5" font-family="Helvetica,sans-Serif" font-size="10.00">zwapi_get_controller</text>
<text text-anchor="middle" x="344" y="-249.5" font-family="Helvetica,sans-Serif" font-size="10.00">_capabilities</text>
</a>
</g>
</g>
<!-- Node2&#45;&gt;Node3 -->
<g id="edge2" class="edge">
<title>Node2&#45;&gt;Node3</title>
<path fill="none" stroke="midnightblue" d="M255.39,-257.5C263.67,-257.5 272.25,-257.5 280.65,-257.5"/>
<polygon fill="midnightblue" stroke="midnightblue" points="280.78,-261 290.78,-257.5 280.78,-254 280.78,-261"/>
</g>
<!-- Node4 -->
<g id="node4" class="node">
<title>Node4</title>
<g id="a_node4"><a xlink:href="zwapi__init_8c.html#a5ec89d5817b8ce00454fce891ae8400e" target="_top" xlink:title="Send a command to the Z&#45;Wave module and waits for an ACK.">
<polygon fill="none" stroke="black" points="433,-242.5 433,-272.5 549,-272.5 549,-242.5 433,-242.5"/>
<text text-anchor="start" x="441" y="-260.5" font-family="Helvetica,sans-Serif" font-size="10.00">zwapi_send_command</text>
<text text-anchor="middle" x="491" y="-249.5" font-family="Helvetica,sans-Serif" font-size="10.00">_with_response</text>
</a>
</g>
</g>
<!-- Node3&#45;&gt;Node4 -->
<g id="edge3" class="edge">
<title>Node3&#45;&gt;Node4</title>
<path fill="none" stroke="midnightblue" d="M397.35,-257.5C405.54,-257.5 414.1,-257.5 422.57,-257.5"/>
<polygon fill="midnightblue" stroke="midnightblue" points="422.82,-261 432.82,-257.5 422.82,-254 422.82,-261"/>
</g>
<!-- Node5 -->
<g id="node5" class="node">
<title>Node5</title>
<g id="a_node5"><a xlink:href="zwapi__session_8c.html#abf613a2ad7710ac80fb239ba55e621d7" target="_top" xlink:title="Send data frame to Z&#45;Wave chip via serial API, wait for ACK and a RES frame.">
<polygon fill="none" stroke="black" points="603.5,-264.5 603.5,-294.5 718.5,-294.5 718.5,-264.5 603.5,-264.5"/>
<text text-anchor="start" x="611.5" y="-282.5" font-family="Helvetica,sans-Serif" font-size="10.00">zwapi_session_send</text>
<text text-anchor="middle" x="661" y="-271.5" font-family="Helvetica,sans-Serif" font-size="10.00">_frame_with_response</text>
</a>
</g>
</g>
<!-- Node4&#45;&gt;Node5 -->
<g id="edge4" class="edge">
<title>Node4&#45;&gt;Node5</title>
<path fill="none" stroke="midnightblue" d="M549.35,-265.01C563.56,-266.87 578.9,-268.88 593.51,-270.79"/>
<polygon fill="midnightblue" stroke="midnightblue" points="593.11,-274.27 603.48,-272.1 594.02,-267.33 593.11,-274.27"/>
</g>
<!-- Node32 -->
<g id="node32" class="node">
<title>Node32</title>
<g id="a_node32"><a xlink:href="group__ZWAPI__INIT.html#ga0a823074baec69913d0e8590b46e4e33" target="_top" xlink:title="Check if a command is supported by the connected Z&#45;Wave module.">
<polygon fill="none" stroke="black" points="585,-226 585,-245 737,-245 737,-226 585,-226"/>
<text text-anchor="middle" x="661" y="-233" font-family="Helvetica,sans-Serif" font-size="10.00">zwapi_support_command_func</text>
</a>
</g>
</g>
<!-- Node4&#45;&gt;Node32 -->
<g id="edge49" class="edge">
<title>Node4&#45;&gt;Node32</title>
<path fill="none" stroke="midnightblue" d="M549.35,-249.99C558.28,-248.82 567.67,-247.59 577.03,-246.36"/>
<polygon fill="midnightblue" stroke="midnightblue" points="577.71,-249.81 587.17,-245.04 576.8,-242.87 577.71,-249.81"/>
</g>
<!-- Node6 -->
<g id="node6" class="node">
<title>Node6</title>
<g id="a_node6"><a xlink:href="zwapi__connection_8c.html#a91ce3acd7eff779496789637a9c27f40" target="_top" xlink:title="Provides the data of the serial buffer for the last received frame.">
<polygon fill="none" stroke="black" points="1268.5,-502.5 1268.5,-532.5 1381.5,-532.5 1381.5,-502.5 1268.5,-502.5"/>
<text text-anchor="start" x="1276.5" y="-520.5" font-family="Helvetica,sans-Serif" font-size="10.00">zwapi_connection_get</text>
<text text-anchor="middle" x="1325" y="-509.5" font-family="Helvetica,sans-Serif" font-size="10.00">_last_rx_frame</text>
</a>
</g>
</g>
<!-- Node5&#45;&gt;Node6 -->
<g id="edge5" class="edge">
<title>Node5&#45;&gt;Node6</title>
<path fill="none" stroke="midnightblue" d="M675.14,-294.76C694.47,-316.27 732.66,-355.36 773,-377.5 933.51,-465.61 1150.74,-499.54 1258.2,-511.54"/>
<polygon fill="midnightblue" stroke="midnightblue" points="1257.93,-515.03 1268.25,-512.64 1258.68,-508.07 1257.93,-515.03"/>
</g>
<!-- Node7 -->
<g id="node7" class="node">
<title>Node7</title>
<g id="a_node7"><a xlink:href="zwapi__connection_8c.html#a86b069d152a5c2f8ac95774a688dff48" target="_top" xlink:title="make the zwapi_connection_status types human readable.">
<polygon fill="none" stroke="black" points="773,-176.5 773,-206.5 900,-206.5 900,-176.5 773,-176.5"/>
<text text-anchor="start" x="781" y="-194.5" font-family="Helvetica,sans-Serif" font-size="10.00">zwapi_connection_status</text>
<text text-anchor="middle" x="836.5" y="-183.5" font-family="Helvetica,sans-Serif" font-size="10.00">_to_string</text>
</a>
</g>
</g>
<!-- Node5&#45;&gt;Node7 -->
<g id="edge6" class="edge">
<title>Node5&#45;&gt;Node7</title>
<path fill="none" stroke="midnightblue" d="M716.46,-264.39C723.58,-261.54 730.61,-258.26 737,-254.5 755.71,-243.49 755.02,-233.66 773,-221.5 778.36,-217.87 784.24,-214.44 790.16,-211.29"/>
<polygon fill="midnightblue" stroke="midnightblue" points="792.12,-214.22 799.46,-206.57 788.96,-207.98 792.12,-214.22"/>
</g>
<!-- Node8 -->
<g id="node8" class="node">
<title>Node8</title>
<g id="a_node8"><a xlink:href="zwapi__session_8c.html#a1f2b3e7c2dcf31708ef8d333747352ba" target="_top" xlink:title=" ">
<polygon fill="none" stroke="black" points="1098.5,-409.5 1098.5,-439.5 1221.5,-439.5 1221.5,-409.5 1098.5,-409.5"/>
<text text-anchor="start" x="1106.5" y="-427.5" font-family="Helvetica,sans-Serif" font-size="10.00">zwapi_session_enqueue</text>
<text text-anchor="middle" x="1160" y="-416.5" font-family="Helvetica,sans-Serif" font-size="10.00">_frame</text>
</a>
</g>
</g>
<!-- Node5&#45;&gt;Node8 -->
<g id="edge7" class="edge">
<title>Node5&#45;&gt;Node8</title>
<path fill="none" stroke="midnightblue" d="M688.18,-294.56C735.78,-321.14 840.41,-375.99 936,-401.5 985.89,-414.82 1043.96,-420.51 1088.33,-422.9"/>
<polygon fill="midnightblue" stroke="midnightblue" points="1088.28,-426.4 1098.44,-423.4 1088.63,-419.41 1088.28,-426.4"/>
</g>
<!-- Node11 -->
<g id="node11" class="node">
<title>Node11</title>
<g id="a_node11"><a xlink:href="zwapi__session_8c.html#a32577f3500efc3d937dbc68eebb3c370" target="_top" xlink:title="Send data frame to Z&#45;Wave chip via serial port and wait for ACK.">
<polygon fill="none" stroke="black" points="783,-264.5 783,-294.5 890,-294.5 890,-264.5 783,-264.5"/>
<text text-anchor="start" x="791" y="-282.5" font-family="Helvetica,sans-Serif" font-size="10.00">zwapi_session_send</text>
<text text-anchor="middle" x="836.5" y="-271.5" font-family="Helvetica,sans-Serif" font-size="10.00">_frame</text>
</a>
</g>
</g>
<!-- Node5&#45;&gt;Node11 -->
<g id="edge11" class="edge">
<title>Node5&#45;&gt;Node11</title>
<path fill="none" stroke="midnightblue" d="M718.81,-279.5C736.08,-279.5 755.15,-279.5 772.78,-279.5"/>
<polygon fill="midnightblue" stroke="midnightblue" points="772.97,-283 782.97,-279.5 772.97,-276 772.97,-283"/>
</g>
<!-- Node31 -->
<g id="node31" class="node">
<title>Node31</title>
<g id="a_node31"><a xlink:href="zwapi__session_8c.html#a9d30e1677f02d7730ab035aa9333235d" target="_top" xlink:title=" ">
<polygon fill="none" stroke="black" points="945.5,-163.5 945.5,-193.5 1049.5,-193.5 1049.5,-163.5 945.5,-163.5"/>
<text text-anchor="start" x="953.5" y="-181.5" font-family="Helvetica,sans-Serif" font-size="10.00">zwapi_session_wait</text>
<text text-anchor="middle" x="997.5" y="-170.5" font-family="Helvetica,sans-Serif" font-size="10.00">_for_response</text>
</a>
</g>
</g>
<!-- Node5&#45;&gt;Node31 -->
<g id="edge48" class="edge">
<title>Node5&#45;&gt;Node31</title>
<path fill="none" stroke="midnightblue" d="M718.75,-266C767.27,-254.03 838.76,-235.41 900,-215.5 916.53,-210.12 934.37,-203.52 950.17,-197.38"/>
<polygon fill="midnightblue" stroke="midnightblue" points="951.67,-200.55 959.7,-193.64 949.12,-194.03 951.67,-200.55"/>
</g>
<!-- Node8&#45;&gt;Node6 -->
<g id="edge8" class="edge">
<title>Node8&#45;&gt;Node6</title>
<path fill="none" stroke="midnightblue" d="M1180.04,-439.71C1199.53,-454.77 1231.13,-477.8 1261,-493.5 1264.25,-495.21 1267.64,-496.86 1271.1,-498.44"/>
<polygon fill="midnightblue" stroke="midnightblue" points="1269.79,-501.68 1280.36,-502.45 1272.57,-495.26 1269.79,-501.68"/>
</g>
<!-- Node9 -->
<g id="node9" class="node">
<title>Node9</title>
<g id="a_node9"><a xlink:href="zwapi__session_8c.html#ad7bac697ee2388b38ed3777b5a3862bc" target="_top" xlink:title=" ">
<polygon fill="none" stroke="black" points="1268.5,-453.5 1268.5,-483.5 1381.5,-483.5 1381.5,-453.5 1268.5,-453.5"/>
<text text-anchor="start" x="1276.5" y="-471.5" font-family="Helvetica,sans-Serif" font-size="10.00">zwapi_session_get_rx</text>
<text text-anchor="middle" x="1325" y="-460.5" font-family="Helvetica,sans-Serif" font-size="10.00">_queue_length</text>
</a>
</g>
</g>
<!-- Node8&#45;&gt;Node9 -->
<g id="edge9" class="edge">
<title>Node8&#45;&gt;Node9</title>
<path fill="none" stroke="midnightblue" d="M1216.64,-439.52C1230.07,-443.15 1244.55,-447.05 1258.39,-450.79"/>
<polygon fill="midnightblue" stroke="midnightblue" points="1257.77,-454.25 1268.33,-453.47 1259.59,-447.49 1257.77,-454.25"/>
</g>
<!-- Node10 -->
<g id="node10" class="node">
<title>Node10</title>
<g id="a_node10"><a xlink:href="group__ZWAPI__INIT.html#ga438a74c9752197d20d377874d5a61694" target="_top" xlink:title="Returns the pointer to the callbacks registered at init.">
<polygon fill="none" stroke="black" points="1261,-415 1261,-434 1389,-434 1389,-415 1261,-415"/>
<text text-anchor="middle" x="1325" y="-422" font-family="Helvetica,sans-Serif" font-size="10.00">zwave_api_get_callbacks</text>
</a>
</g>
</g>
<!-- Node8&#45;&gt;Node10 -->
<g id="edge10" class="edge">
<title>Node8&#45;&gt;Node10</title>
<path fill="none" stroke="midnightblue" d="M1221.7,-424.5C1231.17,-424.5 1241.04,-424.5 1250.76,-424.5"/>
<polygon fill="midnightblue" stroke="midnightblue" points="1250.8,-428 1260.8,-424.5 1250.8,-421 1250.8,-428"/>
</g>
<!-- Node11&#45;&gt;Node8 -->
<g id="edge29" class="edge">
<title>Node11&#45;&gt;Node8</title>
<path fill="none" stroke="midnightblue" d="M850.21,-294.69C867.56,-314.43 900.59,-348.62 936,-367.5 983.54,-392.84 1042.84,-407.3 1088.35,-415.31"/>
<polygon fill="midnightblue" stroke="midnightblue" points="1087.98,-418.79 1098.42,-417.02 1089.15,-411.89 1087.98,-418.79"/>
</g>
<!-- Node12 -->
<g id="node12" class="node">
<title>Node12</title>
<g id="a_node12"><a xlink:href="zwapi__connection_8c.html#a13b6e6b6c56844f4344fabe490bc5eac" target="_top" xlink:title="Closes and re&#45;initializes the zwapi_connection to the Z&#45;Wave module.">
<polygon fill="none" stroke="black" points="1096,-251 1096,-270 1224,-270 1224,-251 1096,-251"/>
<text text-anchor="middle" x="1160" y="-258" font-family="Helvetica,sans-Serif" font-size="10.00">zwapi_connection_restart</text>
</a>
</g>
</g>
<!-- Node11&#45;&gt;Node12 -->
<g id="edge12" class="edge">
<title>Node11&#45;&gt;Node12</title>
<path fill="none" stroke="midnightblue" d="M890.23,-276.38C943.44,-273.24 1026.05,-268.36 1085.64,-264.84"/>
<polygon fill="midnightblue" stroke="midnightblue" points="1085.97,-268.32 1095.74,-264.24 1085.55,-261.33 1085.97,-268.32"/>
</g>
<!-- Node22 -->
<g id="node22" class="node">
<title>Node22</title>
<g id="a_node22"><a xlink:href="zwapi__timestamp_8c.html#a6ebe1ddfe689bce6ee72fc12f708aece" target="_top" xlink:title="get the timestamp">
<polygon fill="none" stroke="black" points="1269,-213 1269,-232 1381,-232 1381,-213 1269,-213"/>
<text text-anchor="middle" x="1325" y="-220" font-family="Helvetica,sans-Serif" font-size="10.00">zwapi_timestamp_get</text>
</a>
</g>
</g>
<!-- Node11&#45;&gt;Node22 -->
<g id="edge47" class="edge">
<title>Node11&#45;&gt;Node22</title>
<path fill="none" stroke="midnightblue" d="M890.12,-270.72C904.94,-268.31 921.09,-265.74 936,-263.5 1006.55,-252.89 1024.09,-249.34 1095,-241.5 1150.11,-235.41 1212.88,-230.33 1258.75,-226.96"/>
<polygon fill="midnightblue" stroke="midnightblue" points="1259.14,-230.44 1268.86,-226.23 1258.63,-223.46 1259.14,-230.44"/>
</g>
<!-- Node23 -->
<g id="node23" class="node">
<title>Node23</title>
<g id="a_node23"><a xlink:href="zwapi__connection_8c.html#af47f8cbd93974d5c91d659fdeb7a870b" target="_top" xlink:title="Transmit a frame via serial port by adding SOF, Len, Type, cmd and Checksum.">
<polygon fill="none" stroke="black" points="1106,-289 1106,-308 1214,-308 1214,-289 1106,-289"/>
<text text-anchor="middle" x="1160" y="-296" font-family="Helvetica,sans-Serif" font-size="10.00">zwapi_connection_tx</text>
</a>
</g>
</g>
<!-- Node11&#45;&gt;Node23 -->
<g id="edge23" class="edge">
<title>Node11&#45;&gt;Node23</title>
<path fill="none" stroke="midnightblue" d="M890.23,-282.62C946.56,-285.95 1035.83,-291.22 1095.86,-294.77"/>
<polygon fill="midnightblue" stroke="midnightblue" points="1095.79,-298.27 1105.97,-295.37 1096.2,-291.28 1095.79,-298.27"/>
</g>
<!-- Node25 -->
<g id="node25" class="node">
<title>Node25</title>
<g id="a_node25"><a xlink:href="zwapi__timestamp_8c.html#a3925f2732e344672608db38351236688" target="_top" xlink:title="compare the current timestamp with the timestamp passed as an argument">
<polygon fill="none" stroke="black" points="1272,-0.5 1272,-30.5 1378,-30.5 1378,-0.5 1272,-0.5"/>
<text text-anchor="start" x="1280" y="-18.5" font-family="Helvetica,sans-Serif" font-size="10.00">zwapi_is_timestamp</text>
<text text-anchor="middle" x="1325" y="-7.5" font-family="Helvetica,sans-Serif" font-size="10.00">_elapsed</text>
</a>
</g>
</g>
<!-- Node11&#45;&gt;Node25 -->
<g id="edge28" class="edge">
<title>Node11&#45;&gt;Node25</title>
<path fill="none" stroke="midnightblue" d="M854.33,-264.46C867.63,-252.08 886.19,-233.68 900,-215.5 919.28,-190.13 913.87,-176.43 936,-153.5 993.98,-93.44 1016.96,-83.14 1095,-53.5 1149.05,-32.97 1214.45,-23.52 1261.49,-19.17"/>
<polygon fill="midnightblue" stroke="midnightblue" points="1261.88,-22.65 1271.54,-18.3 1261.27,-15.68 1261.88,-22.65"/>
</g>
<!-- Node26 -->
<g id="node26" class="node">
<title>Node26</title>
<g id="a_node26"><a xlink:href="zwapi__session_8c.html#a2875fbfa250b7b25ecb6bc4f0b032cb8" target="_top" xlink:title="Loads the received frames from the serial device into the zwapi_session receive queue.">
<polygon fill="none" stroke="black" points="936,-327.5 936,-357.5 1059,-357.5 1059,-327.5 936,-327.5"/>
<text text-anchor="start" x="944" y="-345.5" font-family="Helvetica,sans-Serif" font-size="10.00">zwapi_session_enqueue</text>
<text text-anchor="middle" x="997.5" y="-334.5" font-family="Helvetica,sans-Serif" font-size="10.00">_rx_frames</text>
</a>
</g>
</g>
<!-- Node11&#45;&gt;Node26 -->
<g id="edge30" class="edge">
<title>Node11&#45;&gt;Node26</title>
<path fill="none" stroke="midnightblue" d="M875.58,-294.59C897.63,-303.32 925.57,-314.39 949.03,-323.69"/>
<polygon fill="midnightblue" stroke="midnightblue" points="947.86,-326.99 958.45,-327.42 950.44,-320.49 947.86,-326.99"/>
</g>
<!-- Node11&#45;&gt;Node31 -->
<g id="edge43" class="edge">
<title>Node11&#45;&gt;Node31</title>
<path fill="none" stroke="midnightblue" d="M875.28,-264.39C883.8,-260.17 892.52,-255.17 900,-249.5 919.32,-234.85 916.77,-223.28 936,-208.5 940.7,-204.88 945.91,-201.53 951.24,-198.46"/>
<polygon fill="midnightblue" stroke="midnightblue" points="953.12,-201.43 960.26,-193.6 949.8,-195.27 953.12,-201.43"/>
</g>
<!-- Node13 -->
<g id="node13" class="node">
<title>Node13</title>
<g id="a_node13"><a xlink:href="zwapi__serial_8c.html#a3f2b3bd848e9fe0e6e137482bed06b46" target="_top" xlink:title="Flush the serial output if using buffered output.">
<polygon fill="none" stroke="black" points="1276.5,-251.5 1276.5,-281.5 1373.5,-281.5 1373.5,-251.5 1276.5,-251.5"/>
<text text-anchor="start" x="1284.5" y="-269.5" font-family="Helvetica,sans-Serif" font-size="10.00">zwapi_serial_drain</text>
<text text-anchor="middle" x="1325" y="-258.5" font-family="Helvetica,sans-Serif" font-size="10.00">_buffer</text>
</a>
</g>
</g>
<!-- Node12&#45;&gt;Node13 -->
<g id="edge13" class="edge">
<title>Node12&#45;&gt;Node13</title>
<path fill="none" stroke="midnightblue" d="M1224.02,-262.82C1237.87,-263.33 1252.47,-263.87 1266.11,-264.37"/>
<polygon fill="midnightblue" stroke="midnightblue" points="1266.2,-267.87 1276.32,-264.74 1266.45,-260.88 1266.2,-267.87"/>
</g>
<!-- Node14 -->
<g id="node14" class="node">
<title>Node14</title>
<g id="a_node14"><a xlink:href="zwapi__serial_8c.html#a7762d0358e9f398b92edbfd6a550984a" target="_top" xlink:title="Write a byte to serial port device.">
<polygon fill="none" stroke="black" points="1268.5,-175 1268.5,-194 1381.5,-194 1381.5,-175 1268.5,-175"/>
<text text-anchor="middle" x="1325" y="-182" font-family="Helvetica,sans-Serif" font-size="10.00">zwapi_serial_put_byte</text>
</a>
</g>
</g>
<!-- Node12&#45;&gt;Node14 -->
<g id="edge14" class="edge">
<title>Node12&#45;&gt;Node14</title>
<path fill="none" stroke="midnightblue" d="M1175.37,-250.92C1194.33,-238.62 1229.05,-217.22 1261,-203.5 1266.31,-201.22 1271.99,-199.1 1277.67,-197.16"/>
<polygon fill="midnightblue" stroke="midnightblue" points="1278.75,-200.49 1287.19,-194.08 1276.6,-193.83 1278.75,-200.49"/>
</g>
<!-- Node18 -->
<g id="node18" class="node">
<title>Node18</title>
<g id="a_node18"><a xlink:href="zwapi__serial_8c.html#aadf3397d0bd2c1657d4b1a373599acfe" target="_top" xlink:title="Closes and re&#45;initialize the last open serial port.">
<polygon fill="none" stroke="black" points="1273,-339 1273,-358 1377,-358 1377,-339 1273,-339"/>
<text text-anchor="middle" x="1325" y="-346" font-family="Helvetica,sans-Serif" font-size="10.00">zwapi_serial_restart</text>
</a>
</g>
</g>
<!-- Node12&#45;&gt;Node18 -->
<g id="edge18" class="edge">
<title>Node12&#45;&gt;Node18</title>
<path fill="none" stroke="midnightblue" d="M1200.33,-270.01C1208.66,-272.62 1217.27,-275.78 1225,-279.5 1254.96,-293.92 1285.82,-316.98 1304.95,-332.42"/>
<polygon fill="midnightblue" stroke="midnightblue" points="1302.92,-335.28 1312.87,-338.92 1307.36,-329.87 1302.92,-335.28"/>
</g>
<!-- Node12&#45;&gt;Node22 -->
<g id="edge22" class="edge">
<title>Node12&#45;&gt;Node22</title>
<path fill="none" stroke="midnightblue" d="M1202.13,-250.91C1223.74,-245.87 1250.41,-239.66 1273.29,-234.32"/>
<polygon fill="midnightblue" stroke="midnightblue" points="1274.22,-237.7 1283.16,-232.02 1272.63,-230.88 1274.22,-237.7"/>
</g>
<!-- Node15 -->
<g id="node15" class="node">
<title>Node15</title>
<g id="a_node15"><a xlink:href="zwapi__serial_8c.html#af9054824651df422bab5076d16a80fda" target="_top" xlink:title="Writes the content of a buffer to the serial port device.">
<polygon fill="none" stroke="black" points="1425,-176 1425,-195 1544,-195 1544,-176 1425,-176"/>
<text text-anchor="middle" x="1484.5" y="-183" font-family="Helvetica,sans-Serif" font-size="10.00">zwapi_serial_put_buffer</text>
</a>
</g>
</g>
<!-- Node14&#45;&gt;Node15 -->
<g id="edge15" class="edge">
<title>Node14&#45;&gt;Node15</title>
<path fill="none" stroke="midnightblue" d="M1381.53,-184.85C1392.24,-184.92 1403.59,-184.99 1414.66,-185.06"/>
<polygon fill="midnightblue" stroke="midnightblue" points="1414.71,-188.56 1424.74,-185.13 1414.76,-181.56 1414.71,-188.56"/>
</g>
<!-- Node16 -->
<g id="node16" class="node">
<title>Node16</title>
<g id="a_node16"><a xlink:href="zwapi__serial_8c.html#a0accbbf7ddb7aeab10f5df1fe3df6642" target="_top" xlink:title=" ">
<polygon fill="none" stroke="black" points="1580,-133 1580,-152 1720,-152 1720,-133 1580,-133"/>
<text text-anchor="middle" x="1650" y="-140" font-family="Helvetica,sans-Serif" font-size="10.00">zwapi_serial_log_timestamp</text>
</a>
</g>
</g>
<!-- Node15&#45;&gt;Node16 -->
<g id="edge16" class="edge">
<title>Node15&#45;&gt;Node16</title>
<path fill="none" stroke="midnightblue" d="M1521.79,-175.96C1545.71,-169.67 1577.24,-161.37 1602.93,-154.62"/>
<polygon fill="midnightblue" stroke="midnightblue" points="1604.03,-157.94 1612.82,-152.02 1602.25,-151.18 1604.03,-157.94"/>
</g>
<!-- Node17 -->
<g id="node17" class="node">
<title>Node17</title>
<g id="a_node17"><a xlink:href="zwapi__serial_8c.html#abf18afb71e14daaf65d937149ef1639f" target="_top" xlink:title="Test if a is less than b + ms.">
<polygon fill="none" stroke="black" points="1596.5,-171.5 1596.5,-201.5 1703.5,-201.5 1703.5,-171.5 1596.5,-171.5"/>
<text text-anchor="start" x="1604.5" y="-189.5" font-family="Helvetica,sans-Serif" font-size="10.00">zwapi_serial_timeval</text>
<text text-anchor="middle" x="1650" y="-178.5" font-family="Helvetica,sans-Serif" font-size="10.00">_a_lt_b_milis</text>
</a>
</g>
</g>
<!-- Node15&#45;&gt;Node17 -->
<g id="edge17" class="edge">
<title>Node15&#45;&gt;Node17</title>
<path fill="none" stroke="midnightblue" d="M1544.07,-185.86C1557.65,-185.94 1572.16,-186.03 1585.92,-186.11"/>
<polygon fill="midnightblue" stroke="midnightblue" points="1586.26,-189.62 1596.28,-186.18 1586.3,-182.62 1586.26,-189.62"/>
</g>
<!-- Node19 -->
<g id="node19" class="node">
<title>Node19</title>
<g id="a_node19"><a xlink:href="zwapi__serial_8c.html#aae586785021ac9a605cd77651429f0c9" target="_top" xlink:title="De&#45;Initialize the serial port.">
<polygon fill="none" stroke="black" points="1435,-358 1435,-377 1534,-377 1534,-358 1435,-358"/>
<text text-anchor="middle" x="1484.5" y="-365" font-family="Helvetica,sans-Serif" font-size="10.00">zwapi_serial_close</text>
</a>
</g>
</g>
<!-- Node18&#45;&gt;Node19 -->
<g id="edge19" class="edge">
<title>Node18&#45;&gt;Node19</title>
<path fill="none" stroke="midnightblue" d="M1377.14,-354.67C1392.31,-356.5 1409.06,-358.52 1424.68,-360.4"/>
<polygon fill="midnightblue" stroke="midnightblue" points="1424.42,-363.9 1434.76,-361.62 1425.25,-356.95 1424.42,-363.9"/>
</g>
<!-- Node20 -->
<g id="node20" class="node">
<title>Node20</title>
<g id="a_node20"><a xlink:href="zwapi__serial_8c.html#a07b09de97f4932d882fc77e191c44638" target="_top" xlink:title="Initialize the serial port to 115200 BAUD 8N1.">
<polygon fill="none" stroke="black" points="1440,-320 1440,-339 1529,-339 1529,-320 1440,-320"/>
<text text-anchor="middle" x="1484.5" y="-327" font-family="Helvetica,sans-Serif" font-size="10.00">zwapi_serial_init</text>
</a>
</g>
</g>
<!-- Node18&#45;&gt;Node20 -->
<g id="edge20" class="edge">
<title>Node18&#45;&gt;Node20</title>
<path fill="none" stroke="midnightblue" d="M1377.14,-342.33C1393.87,-340.31 1412.51,-338.06 1429.46,-336.02"/>
<polygon fill="midnightblue" stroke="midnightblue" points="1430.25,-339.45 1439.76,-334.78 1429.41,-332.5 1430.25,-339.45"/>
</g>
<!-- Node21 -->
<g id="node21" class="node">
<title>Node21</title>
<g id="a_node21"><a xlink:href="zwapi__serial_8c.html#aefeac5909b0bf6411db1492f69c3bc68" target="_top" xlink:title=" ">
<polygon fill="none" stroke="black" points="1590.5,-320 1590.5,-339 1709.5,-339 1709.5,-320 1590.5,-320"/>
<text text-anchor="middle" x="1650" y="-327" font-family="Helvetica,sans-Serif" font-size="10.00">zwapi_open_serial_port</text>
</a>
</g>
</g>
<!-- Node20&#45;&gt;Node21 -->
<g id="edge21" class="edge">
<title>Node20&#45;&gt;Node21</title>
<path fill="none" stroke="midnightblue" d="M1529.31,-329.5C1544.97,-329.5 1563.01,-329.5 1580.26,-329.5"/>
<polygon fill="midnightblue" stroke="midnightblue" points="1580.3,-333 1590.3,-329.5 1580.3,-326 1580.3,-333"/>
</g>
<!-- Node23&#45;&gt;Node13 -->
<g id="edge25" class="edge">
<title>Node23&#45;&gt;Node13</title>
<path fill="none" stroke="midnightblue" d="M1209.46,-288.99C1227.36,-285.47 1247.82,-281.46 1266.44,-277.8"/>
<polygon fill="midnightblue" stroke="midnightblue" points="1267.15,-281.23 1276.28,-275.87 1265.8,-274.36 1267.15,-281.23"/>
</g>
<!-- Node23&#45;&gt;Node15 -->
<g id="edge26" class="edge">
<title>Node23&#45;&gt;Node15</title>
<path fill="none" stroke="midnightblue" d="M1214.42,-307.98C1262.44,-313.95 1333.72,-316.29 1389,-290.5 1428.44,-272.1 1458.61,-228.76 1473.41,-203.9"/>
<polygon fill="midnightblue" stroke="midnightblue" points="1476.53,-205.49 1478.47,-195.07 1470.46,-202 1476.53,-205.49"/>
</g>
<!-- Node23&#45;&gt;Node22 -->
<g id="edge27" class="edge">
<title>Node23&#45;&gt;Node22</title>
<path fill="none" stroke="midnightblue" d="M1204.67,-288.9C1211.74,-286.41 1218.78,-283.32 1225,-279.5 1244.83,-267.33 1241.2,-253.71 1261,-241.5 1264.4,-239.4 1268.05,-237.52 1271.82,-235.84"/>
<polygon fill="midnightblue" stroke="midnightblue" points="1273.34,-239 1281.34,-232.05 1270.76,-232.49 1273.34,-239"/>
</g>
<!-- Node24 -->
<g id="node24" class="node">
<title>Node24</title>
<g id="a_node24"><a xlink:href="zwapi__connection_8c.html#a96d24d537c5b8d6aa0aa6a7638ba2f09" target="_top" xlink:title=" ">
<polygon fill="none" stroke="black" points="1267.5,-377 1267.5,-396 1382.5,-396 1382.5,-377 1267.5,-377"/>
<text text-anchor="middle" x="1325" y="-384" font-family="Helvetica,sans-Serif" font-size="10.00">zwapi_frame_to_string</text>
</a>
</g>
</g>
<!-- Node23&#45;&gt;Node24 -->
<g id="edge24" class="edge">
<title>Node23&#45;&gt;Node24</title>
<path fill="none" stroke="midnightblue" d="M1172.27,-308.05C1190.06,-322.7 1226.22,-350.76 1261,-367.5 1265.64,-369.73 1270.6,-371.77 1275.63,-373.61"/>
<polygon fill="midnightblue" stroke="midnightblue" points="1274.71,-376.99 1285.3,-376.9 1276.96,-370.37 1274.71,-376.99"/>
</g>
<!-- Node26&#45;&gt;Node8 -->
<g id="edge42" class="edge">
<title>Node26&#45;&gt;Node8</title>
<path fill="none" stroke="midnightblue" d="M1029.34,-357.65C1038.86,-362.37 1049.38,-367.62 1059,-372.5 1079.6,-382.96 1102.46,-394.83 1121.13,-404.59"/>
<polygon fill="midnightblue" stroke="midnightblue" points="1119.71,-407.8 1130.19,-409.33 1122.96,-401.6 1119.71,-407.8"/>
</g>
<!-- Node27 -->
<g id="node27" class="node">
<title>Node27</title>
<g id="a_node27"><a xlink:href="zwapi__connection_8c.html#a1e45c6c9695b5e7b415adfad40080720" target="_top" xlink:title="Parses serial data sent from the Z&#45;Wave module to the serial port. Should be frequently called by mai...">
<polygon fill="none" stroke="black" points="1095,-137 1095,-156 1225,-156 1225,-137 1095,-137"/>
<text text-anchor="middle" x="1160" y="-144" font-family="Helvetica,sans-Serif" font-size="10.00">zwapi_connection_refresh</text>
</a>
</g>
</g>
<!-- Node26&#45;&gt;Node27 -->
<g id="edge31" class="edge">
<title>Node26&#45;&gt;Node27</title>
<path fill="none" stroke="midnightblue" d="M1010.83,-327.45C1039.91,-291.93 1112.72,-203.01 1144.16,-164.62"/>
<polygon fill="midnightblue" stroke="midnightblue" points="1147.25,-166.37 1150.88,-156.42 1141.84,-161.93 1147.25,-166.37"/>
</g>
<!-- Node27&#45;&gt;Node13 -->
<g id="edge33" class="edge">
<title>Node27&#45;&gt;Node13</title>
<path fill="none" stroke="midnightblue" d="M1168.87,-156.11C1184.61,-174.82 1221.86,-216.48 1261,-241.5 1263.97,-243.4 1267.1,-245.19 1270.32,-246.88"/>
<polygon fill="midnightblue" stroke="midnightblue" points="1269.03,-250.15 1279.56,-251.37 1272.09,-243.85 1269.03,-250.15"/>
</g>
<!-- Node27&#45;&gt;Node14 -->
<g id="edge40" class="edge">
<title>Node27&#45;&gt;Node14</title>
<path fill="none" stroke="midnightblue" d="M1202.13,-156.09C1223.74,-161.13 1250.41,-167.34 1273.29,-172.68"/>
<polygon fill="midnightblue" stroke="midnightblue" points="1272.63,-176.12 1283.16,-174.98 1274.22,-169.3 1272.63,-176.12"/>
</g>
<!-- Node27&#45;&gt;Node22 -->
<g id="edge41" class="edge">
<title>Node27&#45;&gt;Node22</title>
<path fill="none" stroke="midnightblue" d="M1193.7,-156.04C1204.1,-159.78 1215.39,-164.6 1225,-170.5 1243.5,-181.85 1242.14,-192.76 1261,-203.5 1264.85,-205.69 1268.97,-207.65 1273.2,-209.4"/>
<polygon fill="midnightblue" stroke="midnightblue" points="1271.97,-212.68 1282.56,-212.91 1274.43,-206.13 1271.97,-212.68"/>
</g>
<!-- Node27&#45;&gt;Node25 -->
<g id="edge32" class="edge">
<title>Node27&#45;&gt;Node25</title>
<path fill="none" stroke="midnightblue" d="M1183.55,-136.96C1196.88,-130.46 1213.36,-120.79 1225,-108.5 1248.78,-83.38 1235.15,-62.49 1261,-39.5 1262.32,-38.32 1263.71,-37.2 1265.15,-36.13"/>
<polygon fill="midnightblue" stroke="midnightblue" points="1267.31,-38.9 1273.86,-30.58 1263.55,-33 1267.31,-38.9"/>
</g>
<!-- Node28 -->
<g id="node28" class="node">
<title>Node28</title>
<g id="a_node28"><a xlink:href="zwapi__serial_8c.html#a538134f9fdbb1ce052667b3a041357bd" target="_top" xlink:title="Reads the output of the serial port device and stores the content in a buffer.">
<polygon fill="none" stroke="black" points="1425,-136 1425,-155 1544,-155 1544,-136 1425,-136"/>
<text text-anchor="middle" x="1484.5" y="-143" font-family="Helvetica,sans-Serif" font-size="10.00">zwapi_serial_get_buffer</text>
</a>
</g>
</g>
<!-- Node27&#45;&gt;Node28 -->
<g id="edge34" class="edge">
<title>Node27&#45;&gt;Node28</title>
<path fill="none" stroke="midnightblue" d="M1225.1,-146.3C1279.92,-146.13 1358.62,-145.89 1414.74,-145.71"/>
<polygon fill="midnightblue" stroke="midnightblue" points="1414.96,-149.21 1424.95,-145.68 1414.93,-142.21 1414.96,-149.21"/>
</g>
<!-- Node29 -->
<g id="node29" class="node">
<title>Node29</title>
<g id="a_node29"><a xlink:href="zwapi__serial_8c.html#abb082b1e7e727203e3ca5fbeb41f7c2b" target="_top" xlink:title="Reads a byte from the serial port device.">
<polygon fill="none" stroke="black" points="1268.5,-99 1268.5,-118 1381.5,-118 1381.5,-99 1268.5,-99"/>
<text text-anchor="middle" x="1325" y="-106" font-family="Helvetica,sans-Serif" font-size="10.00">zwapi_serial_get_byte</text>
</a>
</g>
</g>
<!-- Node27&#45;&gt;Node29 -->
<g id="edge37" class="edge">
<title>Node27&#45;&gt;Node29</title>
<path fill="none" stroke="midnightblue" d="M1202.13,-136.91C1223.74,-131.87 1250.41,-125.66 1273.29,-120.32"/>
<polygon fill="midnightblue" stroke="midnightblue" points="1274.22,-123.7 1283.16,-118.02 1272.63,-116.88 1274.22,-123.7"/>
</g>
<!-- Node30 -->
<g id="node30" class="node">
<title>Node30</title>
<g id="a_node30"><a xlink:href="zwapi__serial_8c.html#a9a952dc2b34d92960246f6dc4e7d58f7" target="_top" xlink:title="Check the file descriptor for the serial device is available for I/O operations.">
<polygon fill="none" stroke="black" points="1274.5,-49.5 1274.5,-79.5 1375.5,-79.5 1375.5,-49.5 1274.5,-49.5"/>
<text text-anchor="start" x="1282.5" y="-67.5" font-family="Helvetica,sans-Serif" font-size="10.00">zwapi_serial_is_file</text>
<text text-anchor="middle" x="1325" y="-56.5" font-family="Helvetica,sans-Serif" font-size="10.00">_available</text>
</a>
</g>
</g>
<!-- Node27&#45;&gt;Node30 -->
<g id="edge39" class="edge">
<title>Node27&#45;&gt;Node30</title>
<path fill="none" stroke="midnightblue" d="M1177.13,-136.94C1200.98,-122.86 1244.61,-97.38 1261,-89.5 1265.28,-87.44 1269.78,-85.41 1274.32,-83.45"/>
<polygon fill="midnightblue" stroke="midnightblue" points="1275.78,-86.64 1283.64,-79.54 1273.07,-80.18 1275.78,-86.64"/>
</g>
<!-- Node28&#45;&gt;Node16 -->
<g id="edge35" class="edge">
<title>Node28&#45;&gt;Node16</title>
<path fill="none" stroke="midnightblue" d="M1544.07,-144.43C1552.43,-144.27 1561.15,-144.11 1569.82,-143.95"/>
<polygon fill="midnightblue" stroke="midnightblue" points="1570.04,-147.45 1579.97,-143.77 1569.91,-140.45 1570.04,-147.45"/>
</g>
<!-- Node28&#45;&gt;Node17 -->
<g id="edge36" class="edge">
<title>Node28&#45;&gt;Node17</title>
<path fill="none" stroke="midnightblue" d="M1523.42,-155.01C1542.15,-159.71 1565.24,-165.5 1586.49,-170.82"/>
<polygon fill="midnightblue" stroke="midnightblue" points="1585.87,-174.28 1596.42,-173.32 1587.58,-167.49 1585.87,-174.28"/>
</g>
<!-- Node29&#45;&gt;Node28 -->
<g id="edge38" class="edge">
<title>Node29&#45;&gt;Node28</title>
<path fill="none" stroke="midnightblue" d="M1366.56,-118.03C1386.78,-122.78 1411.44,-128.57 1432.88,-133.61"/>
<polygon fill="midnightblue" stroke="midnightblue" points="1432.27,-137.06 1442.8,-135.94 1433.87,-130.25 1432.27,-137.06"/>
</g>
<!-- Node31&#45;&gt;Node22 -->
<g id="edge46" class="edge">
<title>Node31&#45;&gt;Node22</title>
<path fill="none" stroke="midnightblue" d="M1049.79,-185.16C1095.71,-191.16 1164.87,-200.27 1225,-208.5 1235.86,-209.99 1247.39,-211.59 1258.6,-213.17"/>
<polygon fill="midnightblue" stroke="midnightblue" points="1258.38,-216.67 1268.77,-214.6 1259.36,-209.74 1258.38,-216.67"/>
</g>
<!-- Node31&#45;&gt;Node25 -->
<g id="edge45" class="edge">
<title>Node31&#45;&gt;Node25</title>
<path fill="none" stroke="midnightblue" d="M1024.42,-163.4C1070.92,-136.62 1171.99,-79.84 1261,-39.5 1264.84,-37.76 1268.84,-36.04 1272.89,-34.36"/>
<polygon fill="midnightblue" stroke="midnightblue" points="1274.4,-37.52 1282.36,-30.53 1271.77,-31.03 1274.4,-37.52"/>
</g>
<!-- Node31&#45;&gt;Node27 -->
<g id="edge44" class="edge">
<title>Node31&#45;&gt;Node27</title>
<path fill="none" stroke="midnightblue" d="M1049.72,-168.29C1066.06,-165.03 1084.25,-161.4 1101.02,-158.06"/>
<polygon fill="midnightblue" stroke="midnightblue" points="1102.14,-161.41 1111.26,-156.02 1100.77,-154.54 1102.14,-161.41"/>
</g>
</g>
</svg>
