<?xml version="1.0" encoding="UTF-8" standalone="no"?>
<!DOCTYPE svg PUBLIC "-//W3C//DTD SVG 1.1//EN"
 "http://www.w3.org/Graphics/SVG/1.1/DTD/svg11.dtd">
<!-- Generated by graphviz version 2.43.0 (0)
 -->
<!-- Title: zwapi_send_test_frame Pages: 1 -->
<svg width="1451pt" height="541pt"
 viewBox="0.00 0.00 1451.00 541.00" xmlns="http://www.w3.org/2000/svg" xmlns:xlink="http://www.w3.org/1999/xlink">
<g id="graph0" class="graph" transform="scale(1 1) rotate(0) translate(4 537)">
<title>zwapi_send_test_frame</title>
<!-- Node1 -->
<g id="node1" class="node">
<title>Node1</title>
<g id="a_node1"><a xlink:title="Send a test frame to specified NodeID.">
<polygon fill="#bfbfbf" stroke="black" points="0,-248 0,-267 120,-267 120,-248 0,-248"/>
<text text-anchor="middle" x="60" y="-255" font-family="Helvetica,sans-Serif" font-size="10.00">zwapi_send_test_frame</text>
</a>
</g>
</g>
<!-- Node2 -->
<g id="node2" class="node">
<title>Node2</title>
<g id="a_node2"><a xlink:href="zwapi__init_8c.html#a5ec89d5817b8ce00454fce891ae8400e" target="_top" xlink:title="Send a command to the Z&#45;Wave module and waits for an ACK.">
<polygon fill="none" stroke="black" points="156,-264.5 156,-294.5 272,-294.5 272,-264.5 156,-264.5"/>
<text text-anchor="start" x="164" y="-282.5" font-family="Helvetica,sans-Serif" font-size="10.00">zwapi_send_command</text>
<text text-anchor="middle" x="214" y="-271.5" font-family="Helvetica,sans-Serif" font-size="10.00">_with_response</text>
</a>
</g>
</g>
<!-- Node1&#45;&gt;Node2 -->
<g id="edge1" class="edge">
<title>Node1&#45;&gt;Node2</title>
<path fill="none" stroke="midnightblue" d="M120.2,-266.07C128.59,-267.28 137.27,-268.54 145.79,-269.77"/>
<polygon fill="midnightblue" stroke="midnightblue" points="145.31,-273.24 155.7,-271.21 146.31,-266.31 145.31,-273.24"/>
</g>
<!-- Node31 -->
<g id="node31" class="node">
<title>Node31</title>
<g id="a_node31"><a xlink:href="zwapi__utils_8c.html#aeea16d7db2f976466a2c0f4aa9b0416f" target="_top" xlink:title="Write the node ID in buffer based on node ID basetype. Note that this helper also advances the index.">
<polygon fill="none" stroke="black" points="160.5,-226 160.5,-245 267.5,-245 267.5,-226 160.5,-226"/>
<text text-anchor="middle" x="214" y="-233" font-family="Helvetica,sans-Serif" font-size="10.00">zwapi_write_node_id</text>
</a>
</g>
</g>
<!-- Node1&#45;&gt;Node31 -->
<g id="edge48" class="edge">
<title>Node1&#45;&gt;Node31</title>
<path fill="none" stroke="midnightblue" d="M120.2,-248.93C129.98,-247.52 140.14,-246.05 150.01,-244.62"/>
<polygon fill="midnightblue" stroke="midnightblue" points="150.75,-248.05 160.15,-243.15 149.75,-241.12 150.75,-248.05"/>
</g>
<!-- Node3 -->
<g id="node3" class="node">
<title>Node3</title>
<g id="a_node3"><a xlink:href="zwapi__session_8c.html#abf613a2ad7710ac80fb239ba55e621d7" target="_top" xlink:title="Send data frame to Z&#45;Wave chip via serial API, wait for ACK and a RES frame.">
<polygon fill="none" stroke="black" points="326.5,-264.5 326.5,-294.5 441.5,-294.5 441.5,-264.5 326.5,-264.5"/>
<text text-anchor="start" x="334.5" y="-282.5" font-family="Helvetica,sans-Serif" font-size="10.00">zwapi_session_send</text>
<text text-anchor="middle" x="384" y="-271.5" font-family="Helvetica,sans-Serif" font-size="10.00">_frame_with_response</text>
</a>
</g>
</g>
<!-- Node2&#45;&gt;Node3 -->
<g id="edge2" class="edge">
<title>Node2&#45;&gt;Node3</title>
<path fill="none" stroke="midnightblue" d="M272.35,-279.5C286.42,-279.5 301.61,-279.5 316.09,-279.5"/>
<polygon fill="midnightblue" stroke="midnightblue" points="316.48,-283 326.48,-279.5 316.48,-276 316.48,-283"/>
</g>
<!-- Node30 -->
<g id="node30" class="node">
<title>Node30</title>
<g id="a_node30"><a xlink:href="group__ZWAPI__INIT.html#ga0a823074baec69913d0e8590b46e4e33" target="_top" xlink:title="Check if a command is supported by the connected Z&#45;Wave module.">
<polygon fill="none" stroke="black" points="308,-314 308,-333 460,-333 460,-314 308,-314"/>
<text text-anchor="middle" x="384" y="-321" font-family="Helvetica,sans-Serif" font-size="10.00">zwapi_support_command_func</text>
</a>
</g>
</g>
<!-- Node2&#45;&gt;Node30 -->
<g id="edge47" class="edge">
<title>Node2&#45;&gt;Node30</title>
<path fill="none" stroke="midnightblue" d="M272.35,-294.52C293.41,-300.04 316.96,-306.2 336.91,-311.43"/>
<polygon fill="midnightblue" stroke="midnightblue" points="336.12,-314.84 346.68,-313.99 337.89,-308.07 336.12,-314.84"/>
</g>
<!-- Node4 -->
<g id="node4" class="node">
<title>Node4</title>
<g id="a_node4"><a xlink:href="zwapi__connection_8c.html#a91ce3acd7eff779496789637a9c27f40" target="_top" xlink:title="Provides the data of the serial buffer for the last received frame.">
<polygon fill="none" stroke="black" points="991.5,-502.5 991.5,-532.5 1104.5,-532.5 1104.5,-502.5 991.5,-502.5"/>
<text text-anchor="start" x="999.5" y="-520.5" font-family="Helvetica,sans-Serif" font-size="10.00">zwapi_connection_get</text>
<text text-anchor="middle" x="1048" y="-509.5" font-family="Helvetica,sans-Serif" font-size="10.00">_last_rx_frame</text>
</a>
</g>
</g>
<!-- Node3&#45;&gt;Node4 -->
<g id="edge3" class="edge">
<title>Node3&#45;&gt;Node4</title>
<path fill="none" stroke="midnightblue" d="M441.54,-293.1C448.18,-296.17 454.53,-299.92 460,-304.5 485.63,-325.94 470.41,-349.01 496,-370.5 638.46,-490.11 868.6,-513.33 980.99,-517.22"/>
<polygon fill="midnightblue" stroke="midnightblue" points="981.06,-520.73 991.16,-517.53 981.28,-513.73 981.06,-520.73"/>
</g>
<!-- Node5 -->
<g id="node5" class="node">
<title>Node5</title>
<g id="a_node5"><a xlink:href="zwapi__connection_8c.html#a86b069d152a5c2f8ac95774a688dff48" target="_top" xlink:title="make the zwapi_connection_status types human readable.">
<polygon fill="none" stroke="black" points="496,-176.5 496,-206.5 623,-206.5 623,-176.5 496,-176.5"/>
<text text-anchor="start" x="504" y="-194.5" font-family="Helvetica,sans-Serif" font-size="10.00">zwapi_connection_status</text>
<text text-anchor="middle" x="559.5" y="-183.5" font-family="Helvetica,sans-Serif" font-size="10.00">_to_string</text>
</a>
</g>
</g>
<!-- Node3&#45;&gt;Node5 -->
<g id="edge4" class="edge">
<title>Node3&#45;&gt;Node5</title>
<path fill="none" stroke="midnightblue" d="M439.46,-264.39C446.58,-261.54 453.61,-258.26 460,-254.5 478.71,-243.49 478.02,-233.66 496,-221.5 501.36,-217.87 507.24,-214.44 513.16,-211.29"/>
<polygon fill="midnightblue" stroke="midnightblue" points="515.12,-214.22 522.46,-206.57 511.96,-207.98 515.12,-214.22"/>
</g>
<!-- Node6 -->
<g id="node6" class="node">
<title>Node6</title>
<g id="a_node6"><a xlink:href="zwapi__session_8c.html#a1f2b3e7c2dcf31708ef8d333747352ba" target="_top" xlink:title=" ">
<polygon fill="none" stroke="black" points="821.5,-409.5 821.5,-439.5 944.5,-439.5 944.5,-409.5 821.5,-409.5"/>
<text text-anchor="start" x="829.5" y="-427.5" font-family="Helvetica,sans-Serif" font-size="10.00">zwapi_session_enqueue</text>
<text text-anchor="middle" x="883" y="-416.5" font-family="Helvetica,sans-Serif" font-size="10.00">_frame</text>
</a>
</g>
</g>
<!-- Node3&#45;&gt;Node6 -->
<g id="edge5" class="edge">
<title>Node3&#45;&gt;Node6</title>
<path fill="none" stroke="midnightblue" d="M433.36,-294.57C442.29,-297.65 451.49,-301.02 460,-304.5 551.09,-341.69 564.39,-374.48 659,-401.5 708.65,-415.68 766.73,-421.34 811.17,-423.5"/>
<polygon fill="midnightblue" stroke="midnightblue" points="811.15,-427 821.29,-423.95 811.45,-420.01 811.15,-427"/>
</g>
<!-- Node9 -->
<g id="node9" class="node">
<title>Node9</title>
<g id="a_node9"><a xlink:href="zwapi__session_8c.html#a32577f3500efc3d937dbc68eebb3c370" target="_top" xlink:title="Send data frame to Z&#45;Wave chip via serial port and wait for ACK.">
<polygon fill="none" stroke="black" points="506,-264.5 506,-294.5 613,-294.5 613,-264.5 506,-264.5"/>
<text text-anchor="start" x="514" y="-282.5" font-family="Helvetica,sans-Serif" font-size="10.00">zwapi_session_send</text>
<text text-anchor="middle" x="559.5" y="-271.5" font-family="Helvetica,sans-Serif" font-size="10.00">_frame</text>
</a>
</g>
</g>
<!-- Node3&#45;&gt;Node9 -->
<g id="edge9" class="edge">
<title>Node3&#45;&gt;Node9</title>
<path fill="none" stroke="midnightblue" d="M441.81,-279.5C459.08,-279.5 478.15,-279.5 495.78,-279.5"/>
<polygon fill="midnightblue" stroke="midnightblue" points="495.97,-283 505.97,-279.5 495.97,-276 495.97,-283"/>
</g>
<!-- Node29 -->
<g id="node29" class="node">
<title>Node29</title>
<g id="a_node29"><a xlink:href="zwapi__session_8c.html#a9d30e1677f02d7730ab035aa9333235d" target="_top" xlink:title=" ">
<polygon fill="none" stroke="black" points="668.5,-163.5 668.5,-193.5 772.5,-193.5 772.5,-163.5 668.5,-163.5"/>
<text text-anchor="start" x="676.5" y="-181.5" font-family="Helvetica,sans-Serif" font-size="10.00">zwapi_session_wait</text>
<text text-anchor="middle" x="720.5" y="-170.5" font-family="Helvetica,sans-Serif" font-size="10.00">_for_response</text>
</a>
</g>
</g>
<!-- Node3&#45;&gt;Node29 -->
<g id="edge46" class="edge">
<title>Node3&#45;&gt;Node29</title>
<path fill="none" stroke="midnightblue" d="M441.75,-266C490.27,-254.03 561.76,-235.41 623,-215.5 639.53,-210.12 657.37,-203.52 673.17,-197.38"/>
<polygon fill="midnightblue" stroke="midnightblue" points="674.67,-200.55 682.7,-193.64 672.12,-194.03 674.67,-200.55"/>
</g>
<!-- Node6&#45;&gt;Node4 -->
<g id="edge6" class="edge">
<title>Node6&#45;&gt;Node4</title>
<path fill="none" stroke="midnightblue" d="M903.49,-439.66C923.07,-454.42 954.51,-476.86 984,-492.5 987.91,-494.57 992.02,-496.57 996.21,-498.48"/>
<polygon fill="midnightblue" stroke="midnightblue" points="994.84,-501.7 1005.41,-502.5 997.64,-495.29 994.84,-501.7"/>
</g>
<!-- Node7 -->
<g id="node7" class="node">
<title>Node7</title>
<g id="a_node7"><a xlink:href="zwapi__session_8c.html#ad7bac697ee2388b38ed3777b5a3862bc" target="_top" xlink:title=" ">
<polygon fill="none" stroke="black" points="991.5,-453.5 991.5,-483.5 1104.5,-483.5 1104.5,-453.5 991.5,-453.5"/>
<text text-anchor="start" x="999.5" y="-471.5" font-family="Helvetica,sans-Serif" font-size="10.00">zwapi_session_get_rx</text>
<text text-anchor="middle" x="1048" y="-460.5" font-family="Helvetica,sans-Serif" font-size="10.00">_queue_length</text>
</a>
</g>
</g>
<!-- Node6&#45;&gt;Node7 -->
<g id="edge7" class="edge">
<title>Node6&#45;&gt;Node7</title>
<path fill="none" stroke="midnightblue" d="M939.64,-439.52C953.07,-443.15 967.55,-447.05 981.39,-450.79"/>
<polygon fill="midnightblue" stroke="midnightblue" points="980.77,-454.25 991.33,-453.47 982.59,-447.49 980.77,-454.25"/>
</g>
<!-- Node8 -->
<g id="node8" class="node">
<title>Node8</title>
<g id="a_node8"><a xlink:href="group__ZWAPI__INIT.html#ga438a74c9752197d20d377874d5a61694" target="_top" xlink:title="Returns the pointer to the callbacks registered at init.">
<polygon fill="none" stroke="black" points="984,-415 984,-434 1112,-434 1112,-415 984,-415"/>
<text text-anchor="middle" x="1048" y="-422" font-family="Helvetica,sans-Serif" font-size="10.00">zwave_api_get_callbacks</text>
</a>
</g>
</g>
<!-- Node6&#45;&gt;Node8 -->
<g id="edge8" class="edge">
<title>Node6&#45;&gt;Node8</title>
<path fill="none" stroke="midnightblue" d="M944.7,-424.5C954.17,-424.5 964.04,-424.5 973.76,-424.5"/>
<polygon fill="midnightblue" stroke="midnightblue" points="973.8,-428 983.8,-424.5 973.8,-421 973.8,-428"/>
</g>
<!-- Node9&#45;&gt;Node6 -->
<g id="edge27" class="edge">
<title>Node9&#45;&gt;Node6</title>
<path fill="none" stroke="midnightblue" d="M573.56,-294.82C591.04,-314.36 623.95,-347.85 659,-366.5 706.61,-391.83 765.91,-406.57 811.39,-414.84"/>
<polygon fill="midnightblue" stroke="midnightblue" points="811.01,-418.33 821.46,-416.61 812.22,-411.43 811.01,-418.33"/>
</g>
<!-- Node10 -->
<g id="node10" class="node">
<title>Node10</title>
<g id="a_node10"><a xlink:href="zwapi__connection_8c.html#a13b6e6b6c56844f4344fabe490bc5eac" target="_top" xlink:title="Closes and re&#45;initializes the zwapi_connection to the Z&#45;Wave module.">
<polygon fill="none" stroke="black" points="819,-251 819,-270 947,-270 947,-251 819,-251"/>
<text text-anchor="middle" x="883" y="-258" font-family="Helvetica,sans-Serif" font-size="10.00">zwapi_connection_restart</text>
</a>
</g>
</g>
<!-- Node9&#45;&gt;Node10 -->
<g id="edge10" class="edge">
<title>Node9&#45;&gt;Node10</title>
<path fill="none" stroke="midnightblue" d="M613.23,-276.38C666.44,-273.24 749.05,-268.36 808.64,-264.84"/>
<polygon fill="midnightblue" stroke="midnightblue" points="808.97,-268.32 818.74,-264.24 808.55,-261.33 808.97,-268.32"/>
</g>
<!-- Node20 -->
<g id="node20" class="node">
<title>Node20</title>
<g id="a_node20"><a xlink:href="zwapi__timestamp_8c.html#a6ebe1ddfe689bce6ee72fc12f708aece" target="_top" xlink:title="get the timestamp">
<polygon fill="none" stroke="black" points="992,-213 992,-232 1104,-232 1104,-213 992,-213"/>
<text text-anchor="middle" x="1048" y="-220" font-family="Helvetica,sans-Serif" font-size="10.00">zwapi_timestamp_get</text>
</a>
</g>
</g>
<!-- Node9&#45;&gt;Node20 -->
<g id="edge45" class="edge">
<title>Node9&#45;&gt;Node20</title>
<path fill="none" stroke="midnightblue" d="M613.12,-270.72C627.94,-268.31 644.09,-265.74 659,-263.5 729.55,-252.89 747.09,-249.34 818,-241.5 873.11,-235.41 935.88,-230.33 981.75,-226.96"/>
<polygon fill="midnightblue" stroke="midnightblue" points="982.14,-230.44 991.86,-226.23 981.63,-223.46 982.14,-230.44"/>
</g>
<!-- Node21 -->
<g id="node21" class="node">
<title>Node21</title>
<g id="a_node21"><a xlink:href="zwapi__connection_8c.html#af47f8cbd93974d5c91d659fdeb7a870b" target="_top" xlink:title="Transmit a frame via serial port by adding SOF, Len, Type, cmd and Checksum.">
<polygon fill="none" stroke="black" points="829,-289 829,-308 937,-308 937,-289 829,-289"/>
<text text-anchor="middle" x="883" y="-296" font-family="Helvetica,sans-Serif" font-size="10.00">zwapi_connection_tx</text>
</a>
</g>
</g>
<!-- Node9&#45;&gt;Node21 -->
<g id="edge21" class="edge">
<title>Node9&#45;&gt;Node21</title>
<path fill="none" stroke="midnightblue" d="M613.23,-282.62C669.56,-285.95 758.83,-291.22 818.86,-294.77"/>
<polygon fill="midnightblue" stroke="midnightblue" points="818.79,-298.27 828.97,-295.37 819.2,-291.28 818.79,-298.27"/>
</g>
<!-- Node23 -->
<g id="node23" class="node">
<title>Node23</title>
<g id="a_node23"><a xlink:href="zwapi__timestamp_8c.html#a3925f2732e344672608db38351236688" target="_top" xlink:title="compare the current timestamp with the timestamp passed as an argument">
<polygon fill="none" stroke="black" points="995,-0.5 995,-30.5 1101,-30.5 1101,-0.5 995,-0.5"/>
<text text-anchor="start" x="1003" y="-18.5" font-family="Helvetica,sans-Serif" font-size="10.00">zwapi_is_timestamp</text>
<text text-anchor="middle" x="1048" y="-7.5" font-family="Helvetica,sans-Serif" font-size="10.00">_elapsed</text>
</a>
</g>
</g>
<!-- Node9&#45;&gt;Node23 -->
<g id="edge26" class="edge">
<title>Node9&#45;&gt;Node23</title>
<path fill="none" stroke="midnightblue" d="M577.33,-264.46C590.63,-252.08 609.19,-233.68 623,-215.5 642.28,-190.13 636.87,-176.43 659,-153.5 716.98,-93.44 739.96,-83.14 818,-53.5 872.05,-32.97 937.45,-23.52 984.49,-19.17"/>
<polygon fill="midnightblue" stroke="midnightblue" points="984.88,-22.65 994.54,-18.3 984.27,-15.68 984.88,-22.65"/>
</g>
<!-- Node24 -->
<g id="node24" class="node">
<title>Node24</title>
<g id="a_node24"><a xlink:href="zwapi__session_8c.html#a2875fbfa250b7b25ecb6bc4f0b032cb8" target="_top" xlink:title="Loads the received frames from the serial device into the zwapi_session receive queue.">
<polygon fill="none" stroke="black" points="659,-327.5 659,-357.5 782,-357.5 782,-327.5 659,-327.5"/>
<text text-anchor="start" x="667" y="-345.5" font-family="Helvetica,sans-Serif" font-size="10.00">zwapi_session_enqueue</text>
<text text-anchor="middle" x="720.5" y="-334.5" font-family="Helvetica,sans-Serif" font-size="10.00">_rx_frames</text>
</a>
</g>
</g>
<!-- Node9&#45;&gt;Node24 -->
<g id="edge28" class="edge">
<title>Node9&#45;&gt;Node24</title>
<path fill="none" stroke="midnightblue" d="M598.58,-294.59C620.63,-303.32 648.57,-314.39 672.03,-323.69"/>
<polygon fill="midnightblue" stroke="midnightblue" points="670.86,-326.99 681.45,-327.42 673.44,-320.49 670.86,-326.99"/>
</g>
<!-- Node9&#45;&gt;Node29 -->
<g id="edge41" class="edge">
<title>Node9&#45;&gt;Node29</title>
<path fill="none" stroke="midnightblue" d="M598.28,-264.39C606.8,-260.17 615.52,-255.17 623,-249.5 642.32,-234.85 639.77,-223.28 659,-208.5 663.7,-204.88 668.91,-201.53 674.24,-198.46"/>
<polygon fill="midnightblue" stroke="midnightblue" points="676.12,-201.43 683.26,-193.6 672.8,-195.27 676.12,-201.43"/>
</g>
<!-- Node11 -->
<g id="node11" class="node">
<title>Node11</title>
<g id="a_node11"><a xlink:href="zwapi__serial_8c.html#a3f2b3bd848e9fe0e6e137482bed06b46" target="_top" xlink:title="Flush the serial output if using buffered output.">
<polygon fill="none" stroke="black" points="999.5,-251.5 999.5,-281.5 1096.5,-281.5 1096.5,-251.5 999.5,-251.5"/>
<text text-anchor="start" x="1007.5" y="-269.5" font-family="Helvetica,sans-Serif" font-size="10.00">zwapi_serial_drain</text>
<text text-anchor="middle" x="1048" y="-258.5" font-family="Helvetica,sans-Serif" font-size="10.00">_buffer</text>
</a>
</g>
</g>
<!-- Node10&#45;&gt;Node11 -->
<g id="edge11" class="edge">
<title>Node10&#45;&gt;Node11</title>
<path fill="none" stroke="midnightblue" d="M947.02,-262.82C960.87,-263.33 975.47,-263.87 989.11,-264.37"/>
<polygon fill="midnightblue" stroke="midnightblue" points="989.2,-267.87 999.32,-264.74 989.45,-260.88 989.2,-267.87"/>
</g>
<!-- Node12 -->
<g id="node12" class="node">
<title>Node12</title>
<g id="a_node12"><a xlink:href="zwapi__serial_8c.html#a7762d0358e9f398b92edbfd6a550984a" target="_top" xlink:title="Write a byte to serial port device.">
<polygon fill="none" stroke="black" points="991.5,-175 991.5,-194 1104.5,-194 1104.5,-175 991.5,-175"/>
<text text-anchor="middle" x="1048" y="-182" font-family="Helvetica,sans-Serif" font-size="10.00">zwapi_serial_put_byte</text>
</a>
</g>
</g>
<!-- Node10&#45;&gt;Node12 -->
<g id="edge12" class="edge">
<title>Node10&#45;&gt;Node12</title>
<path fill="none" stroke="midnightblue" d="M898.37,-250.92C917.33,-238.62 952.05,-217.22 984,-203.5 989.31,-201.22 994.99,-199.1 1000.67,-197.16"/>
<polygon fill="midnightblue" stroke="midnightblue" points="1001.75,-200.49 1010.19,-194.08 999.6,-193.83 1001.75,-200.49"/>
</g>
<!-- Node16 -->
<g id="node16" class="node">
<title>Node16</title>
<g id="a_node16"><a xlink:href="zwapi__serial_8c.html#aadf3397d0bd2c1657d4b1a373599acfe" target="_top" xlink:title="Closes and re&#45;initialize the last open serial port.">
<polygon fill="none" stroke="black" points="996,-339 996,-358 1100,-358 1100,-339 996,-339"/>
<text text-anchor="middle" x="1048" y="-346" font-family="Helvetica,sans-Serif" font-size="10.00">zwapi_serial_restart</text>
</a>
</g>
</g>
<!-- Node10&#45;&gt;Node16 -->
<g id="edge16" class="edge">
<title>Node10&#45;&gt;Node16</title>
<path fill="none" stroke="midnightblue" d="M923.33,-270.01C931.66,-272.62 940.27,-275.78 948,-279.5 977.96,-293.92 1008.82,-316.98 1027.95,-332.42"/>
<polygon fill="midnightblue" stroke="midnightblue" points="1025.92,-335.28 1035.87,-338.92 1030.36,-329.87 1025.92,-335.28"/>
</g>
<!-- Node10&#45;&gt;Node20 -->
<g id="edge20" class="edge">
<title>Node10&#45;&gt;Node20</title>
<path fill="none" stroke="midnightblue" d="M925.13,-250.91C946.74,-245.87 973.41,-239.66 996.29,-234.32"/>
<polygon fill="midnightblue" stroke="midnightblue" points="997.22,-237.7 1006.16,-232.02 995.63,-230.88 997.22,-237.7"/>
</g>
<!-- Node13 -->
<g id="node13" class="node">
<title>Node13</title>
<g id="a_node13"><a xlink:href="zwapi__serial_8c.html#af9054824651df422bab5076d16a80fda" target="_top" xlink:title="Writes the content of a buffer to the serial port device.">
<polygon fill="none" stroke="black" points="1148,-176 1148,-195 1267,-195 1267,-176 1148,-176"/>
<text text-anchor="middle" x="1207.5" y="-183" font-family="Helvetica,sans-Serif" font-size="10.00">zwapi_serial_put_buffer</text>
</a>
</g>
</g>
<!-- Node12&#45;&gt;Node13 -->
<g id="edge13" class="edge">
<title>Node12&#45;&gt;Node13</title>
<path fill="none" stroke="midnightblue" d="M1104.53,-184.85C1115.24,-184.92 1126.59,-184.99 1137.66,-185.06"/>
<polygon fill="midnightblue" stroke="midnightblue" points="1137.71,-188.56 1147.74,-185.13 1137.76,-181.56 1137.71,-188.56"/>
</g>
<!-- Node14 -->
<g id="node14" class="node">
<title>Node14</title>
<g id="a_node14"><a xlink:href="zwapi__serial_8c.html#a0accbbf7ddb7aeab10f5df1fe3df6642" target="_top" xlink:title=" ">
<polygon fill="none" stroke="black" points="1303,-133 1303,-152 1443,-152 1443,-133 1303,-133"/>
<text text-anchor="middle" x="1373" y="-140" font-family="Helvetica,sans-Serif" font-size="10.00">zwapi_serial_log_timestamp</text>
</a>
</g>
</g>
<!-- Node13&#45;&gt;Node14 -->
<g id="edge14" class="edge">
<title>Node13&#45;&gt;Node14</title>
<path fill="none" stroke="midnightblue" d="M1244.79,-175.96C1268.71,-169.67 1300.24,-161.37 1325.93,-154.62"/>
<polygon fill="midnightblue" stroke="midnightblue" points="1327.03,-157.94 1335.82,-152.02 1325.25,-151.18 1327.03,-157.94"/>
</g>
<!-- Node15 -->
<g id="node15" class="node">
<title>Node15</title>
<g id="a_node15"><a xlink:href="zwapi__serial_8c.html#abf18afb71e14daaf65d937149ef1639f" target="_top" xlink:title="Test if a is less than b + ms.">
<polygon fill="none" stroke="black" points="1319.5,-171.5 1319.5,-201.5 1426.5,-201.5 1426.5,-171.5 1319.5,-171.5"/>
<text text-anchor="start" x="1327.5" y="-189.5" font-family="Helvetica,sans-Serif" font-size="10.00">zwapi_serial_timeval</text>
<text text-anchor="middle" x="1373" y="-178.5" font-family="Helvetica,sans-Serif" font-size="10.00">_a_lt_b_milis</text>
</a>
</g>
</g>
<!-- Node13&#45;&gt;Node15 -->
<g id="edge15" class="edge">
<title>Node13&#45;&gt;Node15</title>
<path fill="none" stroke="midnightblue" d="M1267.07,-185.86C1280.65,-185.94 1295.16,-186.03 1308.92,-186.11"/>
<polygon fill="midnightblue" stroke="midnightblue" points="1309.26,-189.62 1319.28,-186.18 1309.3,-182.62 1309.26,-189.62"/>
</g>
<!-- Node17 -->
<g id="node17" class="node">
<title>Node17</title>
<g id="a_node17"><a xlink:href="zwapi__serial_8c.html#aae586785021ac9a605cd77651429f0c9" target="_top" xlink:title="De&#45;Initialize the serial port.">
<polygon fill="none" stroke="black" points="1158,-358 1158,-377 1257,-377 1257,-358 1158,-358"/>
<text text-anchor="middle" x="1207.5" y="-365" font-family="Helvetica,sans-Serif" font-size="10.00">zwapi_serial_close</text>
</a>
</g>
</g>
<!-- Node16&#45;&gt;Node17 -->
<g id="edge17" class="edge">
<title>Node16&#45;&gt;Node17</title>
<path fill="none" stroke="midnightblue" d="M1100.14,-354.67C1115.31,-356.5 1132.06,-358.52 1147.68,-360.4"/>
<polygon fill="midnightblue" stroke="midnightblue" points="1147.42,-363.9 1157.76,-361.62 1148.25,-356.95 1147.42,-363.9"/>
</g>
<!-- Node18 -->
<g id="node18" class="node">
<title>Node18</title>
<g id="a_node18"><a xlink:href="zwapi__serial_8c.html#a07b09de97f4932d882fc77e191c44638" target="_top" xlink:title="Initialize the serial port to 115200 BAUD 8N1.">
<polygon fill="none" stroke="black" points="1163,-320 1163,-339 1252,-339 1252,-320 1163,-320"/>
<text text-anchor="middle" x="1207.5" y="-327" font-family="Helvetica,sans-Serif" font-size="10.00">zwapi_serial_init</text>
</a>
</g>
</g>
<!-- Node16&#45;&gt;Node18 -->
<g id="edge18" class="edge">
<title>Node16&#45;&gt;Node18</title>
<path fill="none" stroke="midnightblue" d="M1100.14,-342.33C1116.87,-340.31 1135.51,-338.06 1152.46,-336.02"/>
<polygon fill="midnightblue" stroke="midnightblue" points="1153.25,-339.45 1162.76,-334.78 1152.41,-332.5 1153.25,-339.45"/>
</g>
<!-- Node19 -->
<g id="node19" class="node">
<title>Node19</title>
<g id="a_node19"><a xlink:href="zwapi__serial_8c.html#aefeac5909b0bf6411db1492f69c3bc68" target="_top" xlink:title=" ">
<polygon fill="none" stroke="black" points="1313.5,-320 1313.5,-339 1432.5,-339 1432.5,-320 1313.5,-320"/>
<text text-anchor="middle" x="1373" y="-327" font-family="Helvetica,sans-Serif" font-size="10.00">zwapi_open_serial_port</text>
</a>
</g>
</g>
<!-- Node18&#45;&gt;Node19 -->
<g id="edge19" class="edge">
<title>Node18&#45;&gt;Node19</title>
<path fill="none" stroke="midnightblue" d="M1252.31,-329.5C1267.97,-329.5 1286.01,-329.5 1303.26,-329.5"/>
<polygon fill="midnightblue" stroke="midnightblue" points="1303.3,-333 1313.3,-329.5 1303.3,-326 1303.3,-333"/>
</g>
<!-- Node21&#45;&gt;Node11 -->
<g id="edge23" class="edge">
<title>Node21&#45;&gt;Node11</title>
<path fill="none" stroke="midnightblue" d="M932.46,-288.99C950.36,-285.47 970.82,-281.46 989.44,-277.8"/>
<polygon fill="midnightblue" stroke="midnightblue" points="990.15,-281.23 999.28,-275.87 988.8,-274.36 990.15,-281.23"/>
</g>
<!-- Node21&#45;&gt;Node13 -->
<g id="edge24" class="edge">
<title>Node21&#45;&gt;Node13</title>
<path fill="none" stroke="midnightblue" d="M937.42,-307.98C985.44,-313.95 1056.72,-316.29 1112,-290.5 1151.44,-272.1 1181.61,-228.76 1196.41,-203.9"/>
<polygon fill="midnightblue" stroke="midnightblue" points="1199.53,-205.49 1201.47,-195.07 1193.46,-202 1199.53,-205.49"/>
</g>
<!-- Node21&#45;&gt;Node20 -->
<g id="edge25" class="edge">
<title>Node21&#45;&gt;Node20</title>
<path fill="none" stroke="midnightblue" d="M927.67,-288.9C934.74,-286.41 941.78,-283.32 948,-279.5 967.83,-267.33 964.2,-253.71 984,-241.5 987.4,-239.4 991.05,-237.52 994.82,-235.84"/>
<polygon fill="midnightblue" stroke="midnightblue" points="996.34,-239 1004.34,-232.05 993.76,-232.49 996.34,-239"/>
</g>
<!-- Node22 -->
<g id="node22" class="node">
<title>Node22</title>
<g id="a_node22"><a xlink:href="zwapi__connection_8c.html#a96d24d537c5b8d6aa0aa6a7638ba2f09" target="_top" xlink:title=" ">
<polygon fill="none" stroke="black" points="990.5,-377 990.5,-396 1105.5,-396 1105.5,-377 990.5,-377"/>
<text text-anchor="middle" x="1048" y="-384" font-family="Helvetica,sans-Serif" font-size="10.00">zwapi_frame_to_string</text>
</a>
</g>
</g>
<!-- Node21&#45;&gt;Node22 -->
<g id="edge22" class="edge">
<title>Node21&#45;&gt;Node22</title>
<path fill="none" stroke="midnightblue" d="M895.27,-308.05C913.06,-322.7 949.22,-350.76 984,-367.5 988.64,-369.73 993.6,-371.77 998.63,-373.61"/>
<polygon fill="midnightblue" stroke="midnightblue" points="997.71,-376.99 1008.3,-376.9 999.96,-370.37 997.71,-376.99"/>
</g>
<!-- Node24&#45;&gt;Node6 -->
<g id="edge40" class="edge">
<title>Node24&#45;&gt;Node6</title>
<path fill="none" stroke="midnightblue" d="M752.34,-357.65C761.86,-362.37 772.38,-367.62 782,-372.5 802.6,-382.96 825.46,-394.83 844.13,-404.59"/>
<polygon fill="midnightblue" stroke="midnightblue" points="842.71,-407.8 853.19,-409.33 845.96,-401.6 842.71,-407.8"/>
</g>
<!-- Node25 -->
<g id="node25" class="node">
<title>Node25</title>
<g id="a_node25"><a xlink:href="zwapi__connection_8c.html#a1e45c6c9695b5e7b415adfad40080720" target="_top" xlink:title="Parses serial data sent from the Z&#45;Wave module to the serial port. Should be frequently called by mai...">
<polygon fill="none" stroke="black" points="818,-137 818,-156 948,-156 948,-137 818,-137"/>
<text text-anchor="middle" x="883" y="-144" font-family="Helvetica,sans-Serif" font-size="10.00">zwapi_connection_refresh</text>
</a>
</g>
</g>
<!-- Node24&#45;&gt;Node25 -->
<g id="edge29" class="edge">
<title>Node24&#45;&gt;Node25</title>
<path fill="none" stroke="midnightblue" d="M733.83,-327.45C762.91,-291.93 835.72,-203.01 867.16,-164.62"/>
<polygon fill="midnightblue" stroke="midnightblue" points="870.25,-166.37 873.88,-156.42 864.84,-161.93 870.25,-166.37"/>
</g>
<!-- Node25&#45;&gt;Node11 -->
<g id="edge31" class="edge">
<title>Node25&#45;&gt;Node11</title>
<path fill="none" stroke="midnightblue" d="M891.87,-156.11C907.61,-174.82 944.86,-216.48 984,-241.5 986.97,-243.4 990.1,-245.19 993.32,-246.88"/>
<polygon fill="midnightblue" stroke="midnightblue" points="992.03,-250.15 1002.56,-251.37 995.09,-243.85 992.03,-250.15"/>
</g>
<!-- Node25&#45;&gt;Node12 -->
<g id="edge38" class="edge">
<title>Node25&#45;&gt;Node12</title>
<path fill="none" stroke="midnightblue" d="M925.13,-156.09C946.74,-161.13 973.41,-167.34 996.29,-172.68"/>
<polygon fill="midnightblue" stroke="midnightblue" points="995.63,-176.12 1006.16,-174.98 997.22,-169.3 995.63,-176.12"/>
</g>
<!-- Node25&#45;&gt;Node20 -->
<g id="edge39" class="edge">
<title>Node25&#45;&gt;Node20</title>
<path fill="none" stroke="midnightblue" d="M916.7,-156.04C927.1,-159.78 938.39,-164.6 948,-170.5 966.5,-181.85 965.14,-192.76 984,-203.5 987.85,-205.69 991.97,-207.65 996.2,-209.4"/>
<polygon fill="midnightblue" stroke="midnightblue" points="994.97,-212.68 1005.56,-212.91 997.43,-206.13 994.97,-212.68"/>
</g>
<!-- Node25&#45;&gt;Node23 -->
<g id="edge30" class="edge">
<title>Node25&#45;&gt;Node23</title>
<path fill="none" stroke="midnightblue" d="M906.55,-136.96C919.88,-130.46 936.36,-120.79 948,-108.5 971.78,-83.38 958.15,-62.49 984,-39.5 985.32,-38.32 986.71,-37.2 988.15,-36.13"/>
<polygon fill="midnightblue" stroke="midnightblue" points="990.31,-38.9 996.86,-30.58 986.55,-33 990.31,-38.9"/>
</g>
<!-- Node26 -->
<g id="node26" class="node">
<title>Node26</title>
<g id="a_node26"><a xlink:href="zwapi__serial_8c.html#a538134f9fdbb1ce052667b3a041357bd" target="_top" xlink:title="Reads the output of the serial port device and stores the content in a buffer.">
<polygon fill="none" stroke="black" points="1148,-136 1148,-155 1267,-155 1267,-136 1148,-136"/>
<text text-anchor="middle" x="1207.5" y="-143" font-family="Helvetica,sans-Serif" font-size="10.00">zwapi_serial_get_buffer</text>
</a>
</g>
</g>
<!-- Node25&#45;&gt;Node26 -->
<g id="edge32" class="edge">
<title>Node25&#45;&gt;Node26</title>
<path fill="none" stroke="midnightblue" d="M948.1,-146.3C1002.92,-146.13 1081.62,-145.89 1137.74,-145.71"/>
<polygon fill="midnightblue" stroke="midnightblue" points="1137.96,-149.21 1147.95,-145.68 1137.93,-142.21 1137.96,-149.21"/>
</g>
<!-- Node27 -->
<g id="node27" class="node">
<title>Node27</title>
<g id="a_node27"><a xlink:href="zwapi__serial_8c.html#abb082b1e7e727203e3ca5fbeb41f7c2b" target="_top" xlink:title="Reads a byte from the serial port device.">
<polygon fill="none" stroke="black" points="991.5,-99 991.5,-118 1104.5,-118 1104.5,-99 991.5,-99"/>
<text text-anchor="middle" x="1048" y="-106" font-family="Helvetica,sans-Serif" font-size="10.00">zwapi_serial_get_byte</text>
</a>
</g>
</g>
<!-- Node25&#45;&gt;Node27 -->
<g id="edge35" class="edge">
<title>Node25&#45;&gt;Node27</title>
<path fill="none" stroke="midnightblue" d="M925.13,-136.91C946.74,-131.87 973.41,-125.66 996.29,-120.32"/>
<polygon fill="midnightblue" stroke="midnightblue" points="997.22,-123.7 1006.16,-118.02 995.63,-116.88 997.22,-123.7"/>
</g>
<!-- Node28 -->
<g id="node28" class="node">
<title>Node28</title>
<g id="a_node28"><a xlink:href="zwapi__serial_8c.html#a9a952dc2b34d92960246f6dc4e7d58f7" target="_top" xlink:title="Check the file descriptor for the serial device is available for I/O operations.">
<polygon fill="none" stroke="black" points="997.5,-49.5 997.5,-79.5 1098.5,-79.5 1098.5,-49.5 997.5,-49.5"/>
<text text-anchor="start" x="1005.5" y="-67.5" font-family="Helvetica,sans-Serif" font-size="10.00">zwapi_serial_is_file</text>
<text text-anchor="middle" x="1048" y="-56.5" font-family="Helvetica,sans-Serif" font-size="10.00">_available</text>
</a>
</g>
</g>
<!-- Node25&#45;&gt;Node28 -->
<g id="edge37" class="edge">
<title>Node25&#45;&gt;Node28</title>
<path fill="none" stroke="midnightblue" d="M900.13,-136.94C923.98,-122.86 967.61,-97.38 984,-89.5 988.28,-87.44 992.78,-85.41 997.32,-83.45"/>
<polygon fill="midnightblue" stroke="midnightblue" points="998.78,-86.64 1006.64,-79.54 996.07,-80.18 998.78,-86.64"/>
</g>
<!-- Node26&#45;&gt;Node14 -->
<g id="edge33" class="edge">
<title>Node26&#45;&gt;Node14</title>
<path fill="none" stroke="midnightblue" d="M1267.07,-144.43C1275.43,-144.27 1284.15,-144.11 1292.82,-143.95"/>
<polygon fill="midnightblue" stroke="midnightblue" points="1293.04,-147.45 1302.97,-143.77 1292.91,-140.45 1293.04,-147.45"/>
</g>
<!-- Node26&#45;&gt;Node15 -->
<g id="edge34" class="edge">
<title>Node26&#45;&gt;Node15</title>
<path fill="none" stroke="midnightblue" d="M1246.42,-155.01C1265.15,-159.71 1288.24,-165.5 1309.49,-170.82"/>
<polygon fill="midnightblue" stroke="midnightblue" points="1308.87,-174.28 1319.42,-173.32 1310.58,-167.49 1308.87,-174.28"/>
</g>
<!-- Node27&#45;&gt;Node26 -->
<g id="edge36" class="edge">
<title>Node27&#45;&gt;Node26</title>
<path fill="none" stroke="midnightblue" d="M1089.56,-118.03C1109.78,-122.78 1134.44,-128.57 1155.88,-133.61"/>
<polygon fill="midnightblue" stroke="midnightblue" points="1155.27,-137.06 1165.8,-135.94 1156.87,-130.25 1155.27,-137.06"/>
</g>
<!-- Node29&#45;&gt;Node20 -->
<g id="edge44" class="edge">
<title>Node29&#45;&gt;Node20</title>
<path fill="none" stroke="midnightblue" d="M772.79,-185.16C818.71,-191.16 887.87,-200.27 948,-208.5 958.86,-209.99 970.39,-211.59 981.6,-213.17"/>
<polygon fill="midnightblue" stroke="midnightblue" points="981.38,-216.67 991.77,-214.6 982.36,-209.74 981.38,-216.67"/>
</g>
<!-- Node29&#45;&gt;Node23 -->
<g id="edge43" class="edge">
<title>Node29&#45;&gt;Node23</title>
<path fill="none" stroke="midnightblue" d="M747.42,-163.4C793.92,-136.62 894.99,-79.84 984,-39.5 987.84,-37.76 991.84,-36.04 995.89,-34.36"/>
<polygon fill="midnightblue" stroke="midnightblue" points="997.4,-37.52 1005.36,-30.53 994.77,-31.03 997.4,-37.52"/>
</g>
<!-- Node29&#45;&gt;Node25 -->
<g id="edge42" class="edge">
<title>Node29&#45;&gt;Node25</title>
<path fill="none" stroke="midnightblue" d="M772.72,-168.29C789.06,-165.03 807.25,-161.4 824.02,-158.06"/>
<polygon fill="midnightblue" stroke="midnightblue" points="825.14,-161.41 834.26,-156.02 823.77,-154.54 825.14,-161.41"/>
</g>
<!-- Node32 -->
<g id="node32" class="node">
<title>Node32</title>
<g id="a_node32"><a xlink:href="group__ZWAPI__BASIS.html#ga956fbfe63267baacd31dd20aa1c444d1" target="_top" xlink:title="Get the current node ID basetype setting.">
<polygon fill="none" stroke="black" points="311.5,-226 311.5,-245 456.5,-245 456.5,-226 311.5,-226"/>
<text text-anchor="middle" x="384" y="-233" font-family="Helvetica,sans-Serif" font-size="10.00">zwapi_get_node_id_basetype</text>
</a>
</g>
</g>
<!-- Node31&#45;&gt;Node32 -->
<g id="edge49" class="edge">
<title>Node31&#45;&gt;Node32</title>
<path fill="none" stroke="midnightblue" d="M267.7,-235.5C278.41,-235.5 289.92,-235.5 301.38,-235.5"/>
<polygon fill="midnightblue" stroke="midnightblue" points="301.4,-239 311.4,-235.5 301.4,-232 301.4,-239"/>
</g>
</g>
</svg>
