<?xml version="1.0" encoding="UTF-8" standalone="no"?>
<!DOCTYPE svg PUBLIC "-//W3C//DTD SVG 1.1//EN"
 "http://www.w3.org/Graphics/SVG/1.1/DTD/svg11.dtd">
<!-- Generated by graphviz version 2.43.0 (0)
 -->
<!-- Title: is_actuator_command_class Pages: 1 -->
<svg width="1007pt" height="862pt"
 viewBox="0.00 0.00 1007.00 861.50" xmlns="http://www.w3.org/2000/svg" xmlns:xlink="http://www.w3.org/1999/xlink">
<g id="graph0" class="graph" transform="scale(1 1) rotate(0) translate(4 857.5)">
<title>is_actuator_command_class</title>
<!-- Node1 -->
<g id="node1" class="node">
<title>Node1</title>
<g id="a_node1"><a xlink:title="Verifies if a Command Class is an actuator Command Class.">
<polygon fill="#bfbfbf" stroke="black" points="886,-477 886,-507 999,-507 999,-477 886,-477"/>
<text text-anchor="start" x="894" y="-495" font-family="Helvetica,sans-Serif" font-size="10.00">is_actuator_command</text>
<text text-anchor="middle" x="942.5" y="-484" font-family="Helvetica,sans-Serif" font-size="10.00">_class</text>
</a>
</g>
</g>
<!-- Node2 -->
<g id="node2" class="node">
<title>Node2</title>
<g id="a_node2"><a xlink:href="zwave__command__class__basic_8c.html#a37f575a4f171b8aeaa5b46e94ea197a8" target="_top" xlink:title="Checks if we can use Basic to control a node.">
<polygon fill="none" stroke="black" points="737.5,-657.5 737.5,-676.5 828.5,-676.5 828.5,-657.5 737.5,-657.5"/>
<text text-anchor="middle" x="783" y="-664.5" font-family="Helvetica,sans-Serif" font-size="10.00">do_not_try_basic</text>
</a>
</g>
</g>
<!-- Node1&#45;&gt;Node2 -->
<g id="edge1" class="edge">
<title>Node1&#45;&gt;Node2</title>
<path fill="none" stroke="midnightblue" d="M920.93,-514.85C886.19,-553.46 817.27,-630.03 792.84,-657.18"/>
<polygon fill="midnightblue" stroke="midnightblue" points="923.71,-517 927.8,-507.22 918.51,-512.32 923.71,-517"/>
</g>
<!-- Node7 -->
<g id="node7" class="node">
<title>Node7</title>
<g id="a_node7"><a xlink:href="group__command__classes__utils.html#gab8c8edb0b4667b409c3ec1e67ae71361" target="_top" xlink:title="function helper function to help Command Classes decide if they should create the supporting node att...">
<polygon fill="none" stroke="black" points="716,-455 716,-485 850,-485 850,-455 716,-455"/>
<text text-anchor="start" x="724" y="-473" font-family="Helvetica,sans-Serif" font-size="10.00">is_zwave_command_class</text>
<text text-anchor="middle" x="783" y="-462" font-family="Helvetica,sans-Serif" font-size="10.00">_filtered_for_root_device</text>
</a>
</g>
</g>
<!-- Node1&#45;&gt;Node7 -->
<g id="edge7" class="edge">
<title>Node1&#45;&gt;Node7</title>
<path fill="none" stroke="midnightblue" d="M876.03,-482.86C867.46,-481.66 858.67,-480.43 850.09,-479.23"/>
<polygon fill="midnightblue" stroke="midnightblue" points="875.58,-486.33 885.97,-484.24 876.55,-479.39 875.58,-486.33"/>
</g>
<!-- Node3 -->
<g id="node3" class="node">
<title>Node3</title>
<g id="a_node3"><a xlink:href="zwave__command__class__basic_8c.html#ae484083357f2a3ed5b7beb6223d93d5a" target="_top" xlink:title=" ">
<polygon fill="none" stroke="black" points="553.5,-805 553.5,-835 666.5,-835 666.5,-805 553.5,-805"/>
<text text-anchor="start" x="561.5" y="-823" font-family="Helvetica,sans-Serif" font-size="10.00">on_endpoint_interview</text>
<text text-anchor="middle" x="610" y="-812" font-family="Helvetica,sans-Serif" font-size="10.00">_completed</text>
</a>
</g>
</g>
<!-- Node2&#45;&gt;Node3 -->
<g id="edge2" class="edge">
<title>Node2&#45;&gt;Node3</title>
<path fill="none" stroke="midnightblue" d="M771.89,-685.7C755.92,-713.57 722.27,-765.93 680,-796 675.25,-799.38 669.97,-802.32 664.52,-804.87"/>
<polygon fill="midnightblue" stroke="midnightblue" points="775.14,-687.06 776.96,-676.63 769.03,-683.65 775.14,-687.06"/>
</g>
<!-- Node3&#45;&gt;Node3 -->
<g id="edge3" class="edge">
<title>Node3&#45;&gt;Node3</title>
<path fill="none" stroke="midnightblue" d="M640.56,-845.46C636.77,-850.18 626.58,-853.5 610,-853.5 582.79,-853.5 572.8,-844.56 580.03,-835.16"/>
<polygon fill="midnightblue" stroke="midnightblue" points="644.04,-844.94 639.97,-835.16 637.05,-845.34 644.04,-844.94"/>
</g>
<!-- Node4 -->
<g id="node4" class="node">
<title>Node4</title>
<g id="a_node4"><a xlink:href="zwave__command__class__basic_8c.html#a6f16bae2e9206d5fe826d468866deba4" target="_top" xlink:title=" ">
<polygon fill="none" stroke="black" points="397,-803.5 397,-822.5 477,-822.5 477,-803.5 397,-803.5"/>
<text text-anchor="middle" x="437" y="-810.5" font-family="Helvetica,sans-Serif" font-size="10.00">on_nif_created</text>
</a>
</g>
</g>
<!-- Node3&#45;&gt;Node4 -->
<g id="edge4" class="edge">
<title>Node3&#45;&gt;Node4</title>
<path fill="none" stroke="midnightblue" d="M543.35,-817.31C520.96,-816.4 496.64,-815.4 477.02,-814.6"/>
<polygon fill="midnightblue" stroke="midnightblue" points="543.35,-820.82 553.48,-817.73 543.63,-813.82 543.35,-820.82"/>
</g>
<!-- Node5 -->
<g id="node5" class="node">
<title>Node5</title>
<g id="a_node5"><a xlink:href="group__zwave__command__class__basic.html#ga6780c7bc2310c30c76e7a54aa101604f" target="_top" xlink:title="Initialize the basic command class handler.">
<polygon fill="none" stroke="black" points="199,-792 199,-822 321,-822 321,-792 199,-792"/>
<text text-anchor="start" x="207" y="-810" font-family="Helvetica,sans-Serif" font-size="10.00">zwave_command_class</text>
<text text-anchor="middle" x="260" y="-799" font-family="Helvetica,sans-Serif" font-size="10.00">_basic_init</text>
</a>
</g>
</g>
<!-- Node4&#45;&gt;Node5 -->
<g id="edge5" class="edge">
<title>Node4&#45;&gt;Node5</title>
<path fill="none" stroke="midnightblue" d="M386.72,-811.31C366.34,-810.61 342.51,-809.79 321.11,-809.06"/>
<polygon fill="midnightblue" stroke="midnightblue" points="386.61,-814.81 396.73,-811.65 386.85,-807.81 386.61,-814.81"/>
</g>
<!-- Node6 -->
<g id="node6" class="node">
<title>Node6</title>
<g id="a_node6"><a xlink:href="group__command__classes__fixt.html#ga5272651939ced1723158340039e8da19" target="_top" xlink:title="Setup fixture for Z&#45;Wave Command Classes.">
<polygon fill="none" stroke="black" points="0,-420.5 0,-439.5 150,-439.5 150,-420.5 0,-420.5"/>
<text text-anchor="middle" x="75" y="-427.5" font-family="Helvetica,sans-Serif" font-size="10.00">zwave_command_classes_init</text>
</a>
</g>
</g>
<!-- Node5&#45;&gt;Node6 -->
<g id="edge6" class="edge">
<title>Node5&#45;&gt;Node6</title>
<path fill="none" stroke="midnightblue" d="M206.3,-786.79C198.75,-782.15 191.64,-776.6 186,-770 95.7,-664.37 79.21,-483.28 76.49,-439.66"/>
<polygon fill="midnightblue" stroke="midnightblue" points="204.87,-790 215.3,-791.82 208.28,-783.89 204.87,-790"/>
</g>
<!-- Node7&#45;&gt;Node3 -->
<g id="edge8" class="edge">
<title>Node7&#45;&gt;Node3</title>
<path fill="none" stroke="midnightblue" d="M771.83,-494.62C758,-528.68 733.04,-592.3 716,-648 696.2,-712.74 725.51,-745.89 680,-796 676.16,-800.22 671.54,-803.71 666.53,-806.57"/>
<polygon fill="midnightblue" stroke="midnightblue" points="775.2,-495.62 775.75,-485.03 768.72,-492.97 775.2,-495.62"/>
</g>
<!-- Node8 -->
<g id="node8" class="node">
<title>Node8</title>
<g id="a_node8"><a xlink:href="zwave__command__class__scene__activation__control_8c.html#ad2c55aec9b04c76f33eaf024aee36881" target="_top" xlink:title="Attribute callback function listening for Scene Activation version attribute updates.">
<polygon fill="none" stroke="black" points="558,-756 558,-786 662,-786 662,-756 558,-756"/>
<text text-anchor="start" x="566" y="-774" font-family="Helvetica,sans-Serif" font-size="10.00">on_version_attribute</text>
<text text-anchor="middle" x="610" y="-763" font-family="Helvetica,sans-Serif" font-size="10.00">_update</text>
</a>
</g>
</g>
<!-- Node7&#45;&gt;Node8 -->
<g id="edge9" class="edge">
<title>Node7&#45;&gt;Node8</title>
<path fill="none" stroke="midnightblue" d="M772.73,-494.92C759.94,-529.33 736.17,-593.36 716,-648 699.93,-691.53 712.88,-713.26 680,-746 674.94,-751.03 668.8,-755.06 662.28,-758.28"/>
<polygon fill="midnightblue" stroke="midnightblue" points="776.13,-495.83 776.33,-485.23 769.57,-493.39 776.13,-495.83"/>
</g>
<!-- Node10 -->
<g id="node10" class="node">
<title>Node10</title>
<g id="a_node10"><a xlink:href="zwave__command__class__alarm__sensor_8c.html#ab630e1486046ac335be326b5e47e645c" target="_top" xlink:title=" ">
<polygon fill="none" stroke="black" points="543.5,-695.5 543.5,-736.5 676.5,-736.5 676.5,-695.5 543.5,-695.5"/>
<text text-anchor="start" x="551.5" y="-724.5" font-family="Helvetica,sans-Serif" font-size="10.00">zwave_command_class</text>
<text text-anchor="start" x="551.5" y="-713.5" font-family="Helvetica,sans-Serif" font-size="10.00">_alarm_sensor_on_version</text>
<text text-anchor="middle" x="610" y="-702.5" font-family="Helvetica,sans-Serif" font-size="10.00">_attribute_update</text>
</a>
</g>
</g>
<!-- Node7&#45;&gt;Node10 -->
<g id="edge12" class="edge">
<title>Node7&#45;&gt;Node10</title>
<path fill="none" stroke="midnightblue" d="M776.33,-495.16C765.17,-539.34 736.39,-631.33 680,-686 676.44,-689.45 672.41,-692.55 668.14,-695.3"/>
<polygon fill="midnightblue" stroke="midnightblue" points="779.78,-495.8 778.74,-485.26 772.97,-494.15 779.78,-495.8"/>
</g>
<!-- Node12 -->
<g id="node12" class="node">
<title>Node12</title>
<g id="a_node12"><a xlink:href="zwave__command__class__barrier__operator_8c.html#a4014aebae5059c9cc534dffdd1210af9" target="_top" xlink:title="Attribute callback function listening for Barrier Operator version attribute updates.">
<polygon fill="none" stroke="black" points="546,-635.5 546,-676.5 674,-676.5 674,-635.5 546,-635.5"/>
<text text-anchor="start" x="554" y="-664.5" font-family="Helvetica,sans-Serif" font-size="10.00">zwave_command_class</text>
<text text-anchor="start" x="554" y="-653.5" font-family="Helvetica,sans-Serif" font-size="10.00">_barrier_operator_on</text>
<text text-anchor="middle" x="610" y="-642.5" font-family="Helvetica,sans-Serif" font-size="10.00">_version_attribute_update</text>
</a>
</g>
</g>
<!-- Node7&#45;&gt;Node12 -->
<g id="edge15" class="edge">
<title>Node7&#45;&gt;Node12</title>
<path fill="none" stroke="midnightblue" d="M771.49,-494.57C755.95,-528.3 723.89,-588.96 680,-626 675.91,-629.45 671.36,-632.57 666.6,-635.37"/>
<polygon fill="midnightblue" stroke="midnightblue" points="774.69,-495.98 775.6,-485.42 768.31,-493.11 774.69,-495.98"/>
</g>
<!-- Node14 -->
<g id="node14" class="node">
<title>Node14</title>
<g id="a_node14"><a xlink:href="zwave__command__class__central__scene_8c.html#a531690cc4f0e519c4aca8c91da0cb402" target="_top" xlink:title="Attribute callback function listening for Central Scene version attribute updates.">
<polygon fill="none" stroke="black" points="542.5,-575.5 542.5,-616.5 677.5,-616.5 677.5,-575.5 542.5,-575.5"/>
<text text-anchor="start" x="550.5" y="-604.5" font-family="Helvetica,sans-Serif" font-size="10.00">zwave_command_class</text>
<text text-anchor="start" x="550.5" y="-593.5" font-family="Helvetica,sans-Serif" font-size="10.00">_central_scene_on_version</text>
<text text-anchor="middle" x="610" y="-582.5" font-family="Helvetica,sans-Serif" font-size="10.00">_attribute_update</text>
</a>
</g>
</g>
<!-- Node7&#45;&gt;Node14 -->
<g id="edge18" class="edge">
<title>Node7&#45;&gt;Node14</title>
<path fill="none" stroke="midnightblue" d="M762.32,-492.56C743,-513.67 711.87,-545 680,-566 674.87,-569.38 669.3,-572.53 663.63,-575.42"/>
<polygon fill="midnightblue" stroke="midnightblue" points="765.03,-494.79 769.12,-485.02 759.83,-490.1 765.03,-494.79"/>
</g>
<!-- Node16 -->
<g id="node16" class="node">
<title>Node16</title>
<g id="a_node16"><a xlink:href="zwave__command__class__configuration__control_8c.html#a78301c775414cc5718a3c357a4c742e2" target="_top" xlink:title="Attribute callback function listening for Configuration version attribute updates.">
<polygon fill="none" stroke="black" points="545,-515.5 545,-556.5 675,-556.5 675,-515.5 545,-515.5"/>
<text text-anchor="start" x="553" y="-544.5" font-family="Helvetica,sans-Serif" font-size="10.00">zwave_command_class</text>
<text text-anchor="start" x="553" y="-533.5" font-family="Helvetica,sans-Serif" font-size="10.00">_configuration_on_version</text>
<text text-anchor="middle" x="610" y="-522.5" font-family="Helvetica,sans-Serif" font-size="10.00">_attribute_update</text>
</a>
</g>
</g>
<!-- Node7&#45;&gt;Node16 -->
<g id="edge21" class="edge">
<title>Node7&#45;&gt;Node16</title>
<path fill="none" stroke="midnightblue" d="M733.18,-488.84C711.66,-497.15 686.31,-506.93 664.3,-515.43"/>
<polygon fill="midnightblue" stroke="midnightblue" points="734.7,-492.01 742.77,-485.14 732.18,-485.48 734.7,-492.01"/>
</g>
<!-- Node18 -->
<g id="node18" class="node">
<title>Node18</title>
<g id="a_node18"><a xlink:href="zwave__command__class__humidity__control__mode_8c.html#ac669e6e3c65535063eb3f84f8f9b4563" target="_top" xlink:title=" ">
<polygon fill="none" stroke="black" points="549,-444 549,-496 671,-496 671,-444 549,-444"/>
<text text-anchor="start" x="557" y="-484" font-family="Helvetica,sans-Serif" font-size="10.00">zwave_command_class</text>
<text text-anchor="start" x="557" y="-473" font-family="Helvetica,sans-Serif" font-size="10.00">_humidity_control_mode</text>
<text text-anchor="start" x="557" y="-462" font-family="Helvetica,sans-Serif" font-size="10.00">_on_version_attribute</text>
<text text-anchor="middle" x="610" y="-451" font-family="Helvetica,sans-Serif" font-size="10.00">_update</text>
</a>
</g>
</g>
<!-- Node7&#45;&gt;Node18 -->
<g id="edge24" class="edge">
<title>Node7&#45;&gt;Node18</title>
<path fill="none" stroke="midnightblue" d="M705.75,-470C694.13,-470 682.28,-470 671.07,-470"/>
<polygon fill="midnightblue" stroke="midnightblue" points="705.89,-473.5 715.89,-470 705.89,-466.5 705.89,-473.5"/>
</g>
<!-- Node20 -->
<g id="node20" class="node">
<title>Node20</title>
<g id="a_node20"><a xlink:href="zwave__command__class__meter__control_8c.html#a1a12c353a7b6a03607de32ab2fa359fe" target="_top" xlink:title="Attribute callback function listening for Meter version attribute updates.">
<polygon fill="none" stroke="black" points="540,-383.5 540,-424.5 680,-424.5 680,-383.5 540,-383.5"/>
<text text-anchor="start" x="548" y="-412.5" font-family="Helvetica,sans-Serif" font-size="10.00">zwave_command_class</text>
<text text-anchor="start" x="548" y="-401.5" font-family="Helvetica,sans-Serif" font-size="10.00">_meter_on_version_attribute</text>
<text text-anchor="middle" x="610" y="-390.5" font-family="Helvetica,sans-Serif" font-size="10.00">_update</text>
</a>
</g>
</g>
<!-- Node7&#45;&gt;Node20 -->
<g id="edge27" class="edge">
<title>Node7&#45;&gt;Node20</title>
<path fill="none" stroke="midnightblue" d="M733.18,-451.16C711.66,-442.85 686.31,-433.07 664.3,-424.57"/>
<polygon fill="midnightblue" stroke="midnightblue" points="732.18,-454.52 742.77,-454.86 734.7,-447.99 732.18,-454.52"/>
</g>
<!-- Node22 -->
<g id="node22" class="node">
<title>Node22</title>
<g id="a_node22"><a xlink:href="zwave__command__class__sound__switch_8c.html#ad992877621017d5ab324823fd6124f3e" target="_top" xlink:title=" ">
<polygon fill="none" stroke="black" points="543,-323.5 543,-364.5 677,-364.5 677,-323.5 543,-323.5"/>
<text text-anchor="start" x="551" y="-352.5" font-family="Helvetica,sans-Serif" font-size="10.00">zwave_command_class</text>
<text text-anchor="start" x="551" y="-341.5" font-family="Helvetica,sans-Serif" font-size="10.00">_sound_switch_on_version</text>
<text text-anchor="middle" x="610" y="-330.5" font-family="Helvetica,sans-Serif" font-size="10.00">_attribute_update</text>
</a>
</g>
</g>
<!-- Node7&#45;&gt;Node22 -->
<g id="edge30" class="edge">
<title>Node7&#45;&gt;Node22</title>
<path fill="none" stroke="midnightblue" d="M762.32,-447.44C743,-426.33 711.87,-395 680,-374 674.87,-370.62 669.3,-367.47 663.63,-364.58"/>
<polygon fill="midnightblue" stroke="midnightblue" points="759.83,-449.9 769.12,-454.98 765.03,-445.21 759.83,-449.9"/>
</g>
<!-- Node24 -->
<g id="node24" class="node">
<title>Node24</title>
<g id="a_node24"><a xlink:href="zwave__command__class__switch__multilevel_8c.html#a3e9b0e45e626fa8d21141ecb6f56eae5" target="_top" xlink:title=" ">
<polygon fill="none" stroke="black" points="546,-263.5 546,-304.5 674,-304.5 674,-263.5 546,-263.5"/>
<text text-anchor="start" x="554" y="-292.5" font-family="Helvetica,sans-Serif" font-size="10.00">zwave_command_class</text>
<text text-anchor="start" x="554" y="-281.5" font-family="Helvetica,sans-Serif" font-size="10.00">_switch_multilevel_on</text>
<text text-anchor="middle" x="610" y="-270.5" font-family="Helvetica,sans-Serif" font-size="10.00">_version_attribute_update</text>
</a>
</g>
</g>
<!-- Node7&#45;&gt;Node24 -->
<g id="edge33" class="edge">
<title>Node7&#45;&gt;Node24</title>
<path fill="none" stroke="midnightblue" d="M771.49,-445.43C755.95,-411.7 723.89,-351.04 680,-314 675.91,-310.55 671.36,-307.43 666.6,-304.63"/>
<polygon fill="midnightblue" stroke="midnightblue" points="768.31,-446.89 775.6,-454.58 774.69,-444.02 768.31,-446.89"/>
</g>
<!-- Node26 -->
<g id="node26" class="node">
<title>Node26</title>
<g id="a_node26"><a xlink:href="zwave__command__class__thermostat__fan__mode_8c.html#a60d27b341e7349f8258bcd86de065ef3" target="_top" xlink:title=" ">
<polygon fill="none" stroke="black" points="549,-192 549,-244 671,-244 671,-192 549,-192"/>
<text text-anchor="start" x="557" y="-232" font-family="Helvetica,sans-Serif" font-size="10.00">zwave_command_class</text>
<text text-anchor="start" x="557" y="-221" font-family="Helvetica,sans-Serif" font-size="10.00">_thermostat_fan_mode</text>
<text text-anchor="start" x="557" y="-210" font-family="Helvetica,sans-Serif" font-size="10.00">_on_version_attribute</text>
<text text-anchor="middle" x="610" y="-199" font-family="Helvetica,sans-Serif" font-size="10.00">_update</text>
</a>
</g>
</g>
<!-- Node7&#45;&gt;Node26 -->
<g id="edge36" class="edge">
<title>Node7&#45;&gt;Node26</title>
<path fill="none" stroke="midnightblue" d="M775.93,-445.24C764.15,-401.68 734.42,-310.63 680,-254 676.54,-250.4 672.63,-247.08 668.49,-244.05"/>
<polygon fill="midnightblue" stroke="midnightblue" points="772.57,-446.21 778.48,-455 779.34,-444.44 772.57,-446.21"/>
</g>
<!-- Node28 -->
<g id="node28" class="node">
<title>Node28</title>
<g id="a_node28"><a xlink:href="zwave__command__class__thermostat__fan__state_8c.html#ae0807cc1ce89db0b0b1124a709f13c81" target="_top" xlink:title=" ">
<polygon fill="none" stroke="black" points="549,-121 549,-173 671,-173 671,-121 549,-121"/>
<text text-anchor="start" x="557" y="-161" font-family="Helvetica,sans-Serif" font-size="10.00">zwave_command_class</text>
<text text-anchor="start" x="557" y="-150" font-family="Helvetica,sans-Serif" font-size="10.00">_thermostat_fan_state</text>
<text text-anchor="start" x="557" y="-139" font-family="Helvetica,sans-Serif" font-size="10.00">_on_version_attribute</text>
<text text-anchor="middle" x="610" y="-128" font-family="Helvetica,sans-Serif" font-size="10.00">_update</text>
</a>
</g>
</g>
<!-- Node7&#45;&gt;Node28 -->
<g id="edge39" class="edge">
<title>Node7&#45;&gt;Node28</title>
<path fill="none" stroke="midnightblue" d="M779.28,-444.92C772.23,-390.92 748.82,-262.15 680,-183 676.9,-179.43 673.35,-176.17 669.55,-173.19"/>
<polygon fill="midnightblue" stroke="midnightblue" points="775.82,-445.48 780.52,-454.98 782.77,-444.62 775.82,-445.48"/>
</g>
<!-- Node30 -->
<g id="node30" class="node">
<title>Node30</title>
<g id="a_node30"><a xlink:href="zwave__command__class__thermostat__mode_8c.html#aa726133b7627309baf3f913394ac16db" target="_top" xlink:title=" ">
<polygon fill="none" stroke="black" points="546,-60.5 546,-101.5 674,-101.5 674,-60.5 546,-60.5"/>
<text text-anchor="start" x="554" y="-89.5" font-family="Helvetica,sans-Serif" font-size="10.00">zwave_command_class</text>
<text text-anchor="start" x="554" y="-78.5" font-family="Helvetica,sans-Serif" font-size="10.00">_thermostat_mode_on</text>
<text text-anchor="middle" x="610" y="-67.5" font-family="Helvetica,sans-Serif" font-size="10.00">_version_attribute_update</text>
</a>
</g>
</g>
<!-- Node7&#45;&gt;Node30 -->
<g id="edge42" class="edge">
<title>Node7&#45;&gt;Node30</title>
<path fill="none" stroke="midnightblue" d="M781.78,-444.7C779.9,-381.01 766.54,-212.06 680,-112 676.65,-108.13 672.72,-104.71 668.46,-101.71"/>
<polygon fill="midnightblue" stroke="midnightblue" points="778.29,-445.07 782.01,-454.99 785.28,-444.92 778.29,-445.07"/>
</g>
<!-- Node32 -->
<g id="node32" class="node">
<title>Node32</title>
<g id="a_node32"><a xlink:href="zwave__command__class__user__code_8c.html#aa5bec36de4968e46b730b6013812d129" target="_top" xlink:title=" ">
<polygon fill="none" stroke="black" points="549,-0.5 549,-41.5 671,-41.5 671,-0.5 549,-0.5"/>
<text text-anchor="start" x="557" y="-29.5" font-family="Helvetica,sans-Serif" font-size="10.00">zwave_command_class</text>
<text text-anchor="start" x="557" y="-18.5" font-family="Helvetica,sans-Serif" font-size="10.00">_user_code_on_version</text>
<text text-anchor="middle" x="610" y="-7.5" font-family="Helvetica,sans-Serif" font-size="10.00">_attribute_update</text>
</a>
</g>
</g>
<!-- Node7&#45;&gt;Node32 -->
<g id="edge45" class="edge">
<title>Node7&#45;&gt;Node32</title>
<path fill="none" stroke="midnightblue" d="M778.75,-444.2C768.02,-362.63 731.46,-112.13 680,-51 677.06,-47.5 673.63,-44.4 669.9,-41.65"/>
<polygon fill="midnightblue" stroke="midnightblue" points="775.33,-445.08 780.09,-454.55 782.28,-444.18 775.33,-445.08"/>
</g>
<!-- Node9 -->
<g id="node9" class="node">
<title>Node9</title>
<g id="a_node9"><a xlink:href="group__zwave__command__class__scene__activation__control.html#ga5c58f90f00a6cf95293a1222ca252ef3" target="_top" xlink:title="Initializes the Scene Activation Command Class control handler.">
<polygon fill="none" stroke="black" points="186,-730 186,-760 334,-760 334,-730 186,-730"/>
<text text-anchor="start" x="194" y="-748" font-family="Helvetica,sans-Serif" font-size="10.00">zwave_command_class</text>
<text text-anchor="middle" x="260" y="-737" font-family="Helvetica,sans-Serif" font-size="10.00">_scene_activation_control_init</text>
</a>
</g>
</g>
<!-- Node8&#45;&gt;Node9 -->
<g id="edge10" class="edge">
<title>Node8&#45;&gt;Node9</title>
<path fill="none" stroke="midnightblue" d="M547.62,-766.41C488,-761.96 397.43,-755.19 334.11,-750.46"/>
<polygon fill="midnightblue" stroke="midnightblue" points="547.42,-769.91 557.65,-767.16 547.94,-762.93 547.42,-769.91"/>
</g>
<!-- Node9&#45;&gt;Node6 -->
<g id="edge11" class="edge">
<title>Node9&#45;&gt;Node6</title>
<path fill="none" stroke="midnightblue" d="M219.88,-724.73C207.8,-717.02 195.26,-707.31 186,-696 116.53,-611.11 85.32,-476.24 77.83,-439.5"/>
<polygon fill="midnightblue" stroke="midnightblue" points="218.18,-727.79 228.54,-730 221.81,-721.81 218.18,-727.79"/>
</g>
<!-- Node11 -->
<g id="node11" class="node">
<title>Node11</title>
<g id="a_node11"><a xlink:href="group__alarm__sensor__command__class.html#gab5b11484f7582b9fac5c147f7ae9517d" target="_top" xlink:title="This function initialize the Alarm Sensor Command Class handler.">
<polygon fill="none" stroke="black" points="199,-656 199,-686 321,-686 321,-656 199,-656"/>
<text text-anchor="start" x="207" y="-674" font-family="Helvetica,sans-Serif" font-size="10.00">zwave_command_class</text>
<text text-anchor="middle" x="260" y="-663" font-family="Helvetica,sans-Serif" font-size="10.00">_alarm_sensor_init</text>
</a>
</g>
</g>
<!-- Node10&#45;&gt;Node11 -->
<g id="edge13" class="edge">
<title>Node10&#45;&gt;Node11</title>
<path fill="none" stroke="midnightblue" d="M533.15,-706.19C469.51,-697.96 379.83,-686.37 321.07,-678.77"/>
<polygon fill="midnightblue" stroke="midnightblue" points="532.77,-709.67 543.13,-707.48 533.67,-702.73 532.77,-709.67"/>
</g>
<!-- Node11&#45;&gt;Node6 -->
<g id="edge14" class="edge">
<title>Node11&#45;&gt;Node6</title>
<path fill="none" stroke="midnightblue" d="M192.17,-650.74C190.01,-649.27 187.95,-647.69 186,-646 117.35,-586.42 86.24,-473.61 78.19,-439.81"/>
<polygon fill="midnightblue" stroke="midnightblue" points="190.5,-653.82 200.89,-655.91 194.07,-647.8 190.5,-653.82"/>
</g>
<!-- Node13 -->
<g id="node13" class="node">
<title>Node13</title>
<g id="a_node13"><a xlink:href="group__barrier__operator__command__class.html#gac5e03a6ca5a68828e6af45d20a5a30c7" target="_top" xlink:title="This function initialize the Barrier Operator Command Class handler.">
<polygon fill="none" stroke="black" points="199,-606 199,-636 321,-636 321,-606 199,-606"/>
<text text-anchor="start" x="207" y="-624" font-family="Helvetica,sans-Serif" font-size="10.00">zwave_command_class</text>
<text text-anchor="middle" x="260" y="-613" font-family="Helvetica,sans-Serif" font-size="10.00">_barrier_operator_init</text>
</a>
</g>
</g>
<!-- Node12&#45;&gt;Node13 -->
<g id="edge16" class="edge">
<title>Node12&#45;&gt;Node13</title>
<path fill="none" stroke="midnightblue" d="M536,-648.66C472.26,-642.25 380.86,-633.06 321.22,-627.06"/>
<polygon fill="midnightblue" stroke="midnightblue" points="535.68,-652.14 545.98,-649.66 536.38,-645.18 535.68,-652.14"/>
</g>
<!-- Node13&#45;&gt;Node6 -->
<g id="edge17" class="edge">
<title>Node13&#45;&gt;Node6</title>
<path fill="none" stroke="midnightblue" d="M195.36,-601.3C192.08,-599.38 188.93,-597.29 186,-595 128.99,-550.53 91.49,-467.99 79.86,-439.76"/>
<polygon fill="midnightblue" stroke="midnightblue" points="193.84,-604.45 204.32,-605.98 197.08,-598.25 193.84,-604.45"/>
</g>
<!-- Node15 -->
<g id="node15" class="node">
<title>Node15</title>
<g id="a_node15"><a xlink:href="group__zwave__command__class__central__scene.html#ga0667e3960719fc27dd2b5df9ade52019" target="_top" xlink:title="This function initialize the Central Scene Command Class handler.">
<polygon fill="none" stroke="black" points="199,-555 199,-585 321,-585 321,-555 199,-555"/>
<text text-anchor="start" x="207" y="-573" font-family="Helvetica,sans-Serif" font-size="10.00">zwave_command_class</text>
<text text-anchor="middle" x="260" y="-562" font-family="Helvetica,sans-Serif" font-size="10.00">_central_scene_init</text>
</a>
</g>
</g>
<!-- Node14&#45;&gt;Node15 -->
<g id="edge19" class="edge">
<title>Node14&#45;&gt;Node15</title>
<path fill="none" stroke="midnightblue" d="M532.34,-590.27C468.74,-585.52 379.57,-578.86 321.07,-574.49"/>
<polygon fill="midnightblue" stroke="midnightblue" points="532.08,-593.76 542.31,-591.02 532.6,-586.78 532.08,-593.76"/>
</g>
<!-- Node15&#45;&gt;Node6 -->
<g id="edge20" class="edge">
<title>Node15&#45;&gt;Node6</title>
<path fill="none" stroke="midnightblue" d="M203.27,-550.69C197.25,-547.78 191.38,-544.55 186,-541 140.96,-511.23 99.47,-460.67 83.23,-439.63"/>
<polygon fill="midnightblue" stroke="midnightblue" points="202.22,-554.05 212.77,-554.98 205.1,-547.67 202.22,-554.05"/>
</g>
<!-- Node17 -->
<g id="node17" class="node">
<title>Node17</title>
<g id="a_node17"><a xlink:href="group__zwave__command__class__configuration.html#gacc11ad9afa837acce0d1aada6408e1ce" target="_top" xlink:title="This function initialize the Configuration Command Class handler.">
<polygon fill="none" stroke="black" points="199,-501 199,-531 321,-531 321,-501 199,-501"/>
<text text-anchor="start" x="207" y="-519" font-family="Helvetica,sans-Serif" font-size="10.00">zwave_command_class</text>
<text text-anchor="middle" x="260" y="-508" font-family="Helvetica,sans-Serif" font-size="10.00">_configuration_init</text>
</a>
</g>
</g>
<!-- Node16&#45;&gt;Node17 -->
<g id="edge22" class="edge">
<title>Node16&#45;&gt;Node17</title>
<path fill="none" stroke="midnightblue" d="M534.78,-531.73C471.04,-528.07 380.34,-522.86 321.08,-519.45"/>
<polygon fill="midnightblue" stroke="midnightblue" points="534.58,-535.23 544.77,-532.31 534.98,-528.24 534.58,-535.23"/>
</g>
<!-- Node17&#45;&gt;Node6 -->
<g id="edge23" class="edge">
<title>Node17&#45;&gt;Node6</title>
<path fill="none" stroke="midnightblue" d="M217.44,-496.69C207.16,-491.9 196.17,-486.77 186,-482 154.64,-467.28 118.31,-450.08 96.26,-439.62"/>
<polygon fill="midnightblue" stroke="midnightblue" points="216.1,-499.93 226.64,-500.98 219.05,-493.58 216.1,-499.93"/>
</g>
<!-- Node19 -->
<g id="node19" class="node">
<title>Node19</title>
<g id="a_node19"><a xlink:href="group__zwave__command__class__humidity__control__mode.html#ga4defd78d724f1338489c14c68b22ef54" target="_top" xlink:title=" ">
<polygon fill="none" stroke="black" points="190,-442 190,-472 330,-472 330,-442 190,-442"/>
<text text-anchor="start" x="198" y="-460" font-family="Helvetica,sans-Serif" font-size="10.00">zwave_command_class</text>
<text text-anchor="middle" x="260" y="-449" font-family="Helvetica,sans-Serif" font-size="10.00">_humidity_control_mode_init</text>
</a>
</g>
</g>
<!-- Node18&#45;&gt;Node19 -->
<g id="edge25" class="edge">
<title>Node18&#45;&gt;Node19</title>
<path fill="none" stroke="midnightblue" d="M538.5,-467.37C477.7,-465.1 390.41,-461.83 330.03,-459.58"/>
<polygon fill="midnightblue" stroke="midnightblue" points="538.66,-470.87 548.78,-467.75 538.92,-463.88 538.66,-470.87"/>
</g>
<!-- Node19&#45;&gt;Node6 -->
<g id="edge26" class="edge">
<title>Node19&#45;&gt;Node6</title>
<path fill="none" stroke="midnightblue" d="M179.84,-445.32C166.69,-443.38 153.19,-441.39 140.45,-439.51"/>
<polygon fill="midnightblue" stroke="midnightblue" points="179.41,-448.8 189.82,-446.79 180.43,-441.87 179.41,-448.8"/>
</g>
<!-- Node21 -->
<g id="node21" class="node">
<title>Node21</title>
<g id="a_node21"><a xlink:href="group__zwave__command__class__meter__control.html#gabaf4a36abd7f11c2acd3c0df5575d721" target="_top" xlink:title="This function initialize the Meter Command Class control handler.">
<polygon fill="none" stroke="black" points="199,-389 199,-419 321,-419 321,-389 199,-389"/>
<text text-anchor="start" x="207" y="-407" font-family="Helvetica,sans-Serif" font-size="10.00">zwave_command_class</text>
<text text-anchor="middle" x="260" y="-396" font-family="Helvetica,sans-Serif" font-size="10.00">_meter_control_init</text>
</a>
</g>
</g>
<!-- Node20&#45;&gt;Node21 -->
<g id="edge28" class="edge">
<title>Node20&#45;&gt;Node21</title>
<path fill="none" stroke="midnightblue" d="M529.48,-404C466.08,-404 378.68,-404 321.04,-404"/>
<polygon fill="midnightblue" stroke="midnightblue" points="529.83,-407.5 539.83,-404 529.83,-400.5 529.83,-407.5"/>
</g>
<!-- Node21&#45;&gt;Node6 -->
<g id="edge29" class="edge">
<title>Node21&#45;&gt;Node6</title>
<path fill="none" stroke="midnightblue" d="M188.64,-414C173.7,-416.12 157.98,-418.35 143.17,-420.46"/>
<polygon fill="midnightblue" stroke="midnightblue" points="189.42,-417.42 198.83,-412.55 188.43,-410.49 189.42,-417.42"/>
</g>
<!-- Node23 -->
<g id="node23" class="node">
<title>Node23</title>
<g id="a_node23"><a xlink:href="group__zwave__command__class__sound__switch.html#ga9288036273fc366b060a837b94bc0ad4" target="_top" xlink:title=" ">
<polygon fill="none" stroke="black" points="376,-337 376,-367 498,-367 498,-337 376,-337"/>
<text text-anchor="start" x="384" y="-355" font-family="Helvetica,sans-Serif" font-size="10.00">zwave_command_class</text>
<text text-anchor="middle" x="437" y="-344" font-family="Helvetica,sans-Serif" font-size="10.00">_sound_switch_init</text>
</a>
</g>
</g>
<!-- Node22&#45;&gt;Node23 -->
<g id="edge31" class="edge">
<title>Node22&#45;&gt;Node23</title>
<path fill="none" stroke="midnightblue" d="M532.75,-347.57C521.13,-348.11 509.28,-348.67 498.07,-349.19"/>
<polygon fill="midnightblue" stroke="midnightblue" points="533.06,-351.06 542.89,-347.09 532.73,-344.06 533.06,-351.06"/>
</g>
<!-- Node23&#45;&gt;Node6 -->
<g id="edge32" class="edge">
<title>Node23&#45;&gt;Node6</title>
<path fill="none" stroke="midnightblue" d="M365.7,-353.98C314.98,-356.82 245.28,-363.65 186,-380 151.22,-389.59 113.52,-408.87 92.52,-420.48"/>
<polygon fill="midnightblue" stroke="midnightblue" points="366.1,-357.46 375.9,-353.44 365.74,-350.47 366.1,-357.46"/>
</g>
<!-- Node25 -->
<g id="node25" class="node">
<title>Node25</title>
<g id="a_node25"><a xlink:href="group__switch__multilevel__command__class.html#ga866d4efa5431c875235b5540a38dcc4c" target="_top" xlink:title="This function initialize the Multilevel Switch Command Class handler.">
<polygon fill="none" stroke="black" points="376,-278 376,-308 498,-308 498,-278 376,-278"/>
<text text-anchor="start" x="384" y="-296" font-family="Helvetica,sans-Serif" font-size="10.00">zwave_command_class</text>
<text text-anchor="middle" x="437" y="-285" font-family="Helvetica,sans-Serif" font-size="10.00">_switch_multilevel_init</text>
</a>
</g>
</g>
<!-- Node24&#45;&gt;Node25 -->
<g id="edge34" class="edge">
<title>Node24&#45;&gt;Node25</title>
<path fill="none" stroke="midnightblue" d="M535.82,-287.85C523.23,-288.51 510.28,-289.2 498.09,-289.84"/>
<polygon fill="midnightblue" stroke="midnightblue" points="536.01,-291.35 545.81,-287.33 535.64,-284.36 536.01,-291.35"/>
</g>
<!-- Node25&#45;&gt;Node6 -->
<g id="edge35" class="edge">
<title>Node25&#45;&gt;Node6</title>
<path fill="none" stroke="midnightblue" d="M365.79,-302.17C314.35,-310.62 243.72,-325.93 186,-352 145.89,-370.12 105.37,-403.69 86.67,-420.25"/>
<polygon fill="midnightblue" stroke="midnightblue" points="366.49,-305.6 375.82,-300.56 365.39,-298.69 366.49,-305.6"/>
</g>
<!-- Node27 -->
<g id="node27" class="node">
<title>Node27</title>
<g id="a_node27"><a xlink:href="group__zwave__command__class__thermostat__fan__mode.html#ga7ecf581fff419caff01c80f5934c77c5" target="_top" xlink:title=" ">
<polygon fill="none" stroke="black" points="370,-216 370,-246 504,-246 504,-216 370,-216"/>
<text text-anchor="start" x="378" y="-234" font-family="Helvetica,sans-Serif" font-size="10.00">zwave_command_class</text>
<text text-anchor="middle" x="437" y="-223" font-family="Helvetica,sans-Serif" font-size="10.00">_thermostat_fan_mode_init</text>
</a>
</g>
</g>
<!-- Node26&#45;&gt;Node27 -->
<g id="edge37" class="edge">
<title>Node26&#45;&gt;Node27</title>
<path fill="none" stroke="midnightblue" d="M538.42,-223.37C527.08,-224.23 515.37,-225.12 504.14,-225.97"/>
<polygon fill="midnightblue" stroke="midnightblue" points="539.01,-226.83 548.71,-222.58 538.48,-219.85 539.01,-226.83"/>
</g>
<!-- Node27&#45;&gt;Node6 -->
<g id="edge38" class="edge">
<title>Node27&#45;&gt;Node6</title>
<path fill="none" stroke="midnightblue" d="M360.04,-241.64C307.92,-251.6 238.89,-270.21 186,-304 136.08,-335.9 95.87,-396.97 81.59,-420.46"/>
<polygon fill="midnightblue" stroke="midnightblue" points="360.7,-245.08 369.9,-239.82 359.43,-238.2 360.7,-245.08"/>
</g>
<!-- Node29 -->
<g id="node29" class="node">
<title>Node29</title>
<g id="a_node29"><a xlink:href="group__zwave__command__class__thermostat__fan__state.html#gaba5752c92485afe3c45d175a24793b84" target="_top" xlink:title=" ">
<polygon fill="none" stroke="black" points="371,-161 371,-191 503,-191 503,-161 371,-161"/>
<text text-anchor="start" x="379" y="-179" font-family="Helvetica,sans-Serif" font-size="10.00">zwave_command_class</text>
<text text-anchor="middle" x="437" y="-168" font-family="Helvetica,sans-Serif" font-size="10.00">_thermostat_fan_state_init</text>
</a>
</g>
</g>
<!-- Node28&#45;&gt;Node29 -->
<g id="edge40" class="edge">
<title>Node28&#45;&gt;Node29</title>
<path fill="none" stroke="midnightblue" d="M538.57,-158.94C526.88,-160.93 514.81,-162.97 503.26,-164.93"/>
<polygon fill="midnightblue" stroke="midnightblue" points="539.44,-162.35 548.71,-157.22 538.27,-155.45 539.44,-162.35"/>
</g>
<!-- Node29&#45;&gt;Node6 -->
<g id="edge41" class="edge">
<title>Node29&#45;&gt;Node6</title>
<path fill="none" stroke="midnightblue" d="M360.69,-181.54C307.31,-188.8 236.5,-205.52 186,-244 122.44,-292.43 88.5,-389.03 78.89,-420.12"/>
<polygon fill="midnightblue" stroke="midnightblue" points="361.31,-184.99 370.78,-180.26 360.42,-178.05 361.31,-184.99"/>
</g>
<!-- Node31 -->
<g id="node31" class="node">
<title>Node31</title>
<g id="a_node31"><a xlink:href="group__thermostat__mode__command__class.html#ga0ab18b0653e4398983bcaa978c963c56" target="_top" xlink:title="Initialize the Thermostat Mode Command Class control.">
<polygon fill="none" stroke="black" points="376,-100 376,-130 498,-130 498,-100 376,-100"/>
<text text-anchor="start" x="384" y="-118" font-family="Helvetica,sans-Serif" font-size="10.00">zwave_command_class</text>
<text text-anchor="middle" x="437" y="-107" font-family="Helvetica,sans-Serif" font-size="10.00">_thermostat_mode_init</text>
</a>
</g>
</g>
<!-- Node30&#45;&gt;Node31 -->
<g id="edge43" class="edge">
<title>Node30&#45;&gt;Node31</title>
<path fill="none" stroke="midnightblue" d="M535.82,-95.55C523.23,-98.05 510.28,-100.63 498.09,-103.05"/>
<polygon fill="midnightblue" stroke="midnightblue" points="536.69,-98.95 545.81,-93.56 535.32,-92.08 536.69,-98.95"/>
</g>
<!-- Node31&#45;&gt;Node6 -->
<g id="edge44" class="edge">
<title>Node31&#45;&gt;Node6</title>
<path fill="none" stroke="midnightblue" d="M365.77,-117.42C311.03,-122.79 236.15,-138.21 186,-181 107.09,-248.34 82.63,-383.26 77.26,-420.36"/>
<polygon fill="midnightblue" stroke="midnightblue" points="366.1,-120.91 375.75,-116.54 365.47,-113.94 366.1,-120.91"/>
</g>
<!-- Node33 -->
<g id="node33" class="node">
<title>Node33</title>
<g id="a_node33"><a xlink:href="group__zwave__command__class__user__code.html#ga3903c1853dfc3b999bcb5570d3355a35" target="_top" xlink:title="Initializes the User Code Command Class handler.">
<polygon fill="none" stroke="black" points="376,-26 376,-56 498,-56 498,-26 376,-26"/>
<text text-anchor="start" x="384" y="-44" font-family="Helvetica,sans-Serif" font-size="10.00">zwave_command_class</text>
<text text-anchor="middle" x="437" y="-33" font-family="Helvetica,sans-Serif" font-size="10.00">_user_code_init</text>
</a>
</g>
</g>
<!-- Node32&#45;&gt;Node33 -->
<g id="edge46" class="edge">
<title>Node32&#45;&gt;Node33</title>
<path fill="none" stroke="midnightblue" d="M538.55,-29.24C525.09,-30.81 511.12,-32.45 498.03,-33.98"/>
<polygon fill="midnightblue" stroke="midnightblue" points="539.19,-32.69 548.71,-28.05 538.37,-25.74 539.19,-32.69"/>
</g>
<!-- Node33&#45;&gt;Node6 -->
<g id="edge47" class="edge">
<title>Node33&#45;&gt;Node6</title>
<path fill="none" stroke="midnightblue" d="M365.72,-45.4C310.26,-52.46 234.41,-70.62 186,-117 93.04,-206.06 78.55,-378.18 76.37,-420.45"/>
<polygon fill="midnightblue" stroke="midnightblue" points="366.31,-48.85 375.83,-44.2 365.49,-41.9 366.31,-48.85"/>
</g>
</g>
</svg>
