<?xml version="1.0" encoding="UTF-8" standalone="no"?>
<!DOCTYPE svg PUBLIC "-//W3C//DTD SVG 1.1//EN"
 "http://www.w3.org/Graphics/SVG/1.1/DTD/svg11.dtd">
<!-- Generated by graphviz version 2.43.0 (0)
 -->
<!-- Title: zwapi_soft_reset Pages: 1 -->
<svg width="1259pt" height="541pt"
 viewBox="0.00 0.00 1259.00 541.00" xmlns="http://www.w3.org/2000/svg" xmlns:xlink="http://www.w3.org/1999/xlink">
<g id="graph0" class="graph" transform="scale(1 1) rotate(0) translate(4 537)">
<title>zwapi_soft_reset</title>
<!-- Node1 -->
<g id="node1" class="node">
<title>Node1</title>
<g id="a_node1"><a xlink:title="Reset the Z&#45;Wave module.">
<polygon fill="#bfbfbf" stroke="black" points="0,-205.5 0,-224.5 91,-224.5 91,-205.5 0,-205.5"/>
<text text-anchor="middle" x="45.5" y="-212.5" font-family="Helvetica,sans-Serif" font-size="10.00">zwapi_soft_reset</text>
</a>
</g>
</g>
<!-- Node2 -->
<g id="node2" class="node">
<title>Node2</title>
<g id="a_node2"><a xlink:href="zwapi__init_8c.html#a67064ee382c07d0af51a9d9339b3fcde" target="_top" xlink:title="Verifies that the command is supported by the Z&#45;Wave module.">
<polygon fill="none" stroke="black" points="127,-227.5 127,-246.5 243,-246.5 243,-227.5 127,-227.5"/>
<text text-anchor="middle" x="185" y="-234.5" font-family="Helvetica,sans-Serif" font-size="10.00">zwapi_send_command</text>
</a>
</g>
</g>
<!-- Node1&#45;&gt;Node2 -->
<g id="edge1" class="edge">
<title>Node1&#45;&gt;Node2</title>
<path fill="none" stroke="midnightblue" d="M91.14,-222.14C99.26,-223.44 107.89,-224.82 116.49,-226.2"/>
<polygon fill="midnightblue" stroke="midnightblue" points="116.12,-229.68 126.55,-227.81 117.23,-222.77 116.12,-229.68"/>
</g>
<!-- Node29 -->
<g id="node29" class="node">
<title>Node29</title>
<g id="a_node29"><a xlink:href="group__ZWAPI__INIT.html#gac747addbb718dc86d958ba5f38bb5ad5" target="_top" xlink:title="Sets the value of &quot;awaiting a Z&#45;Wave API started callback&quot;.">
<polygon fill="none" stroke="black" points="133,-178 133,-208 237,-208 237,-178 133,-178"/>
<text text-anchor="start" x="141" y="-196" font-family="Helvetica,sans-Serif" font-size="10.00">zwapi_set_awaiting</text>
<text text-anchor="middle" x="185" y="-185" font-family="Helvetica,sans-Serif" font-size="10.00">_zwave_api_started</text>
</a>
</g>
</g>
<!-- Node1&#45;&gt;Node29 -->
<g id="edge43" class="edge">
<title>Node1&#45;&gt;Node29</title>
<path fill="none" stroke="midnightblue" d="M91.14,-207.86C101.24,-206.24 112.14,-204.5 122.79,-202.79"/>
<polygon fill="midnightblue" stroke="midnightblue" points="123.58,-206.21 132.9,-201.18 122.47,-199.3 123.58,-206.21"/>
</g>
<!-- Node3 -->
<g id="node3" class="node">
<title>Node3</title>
<g id="a_node3"><a xlink:href="zwapi__session_8c.html#a32577f3500efc3d937dbc68eebb3c370" target="_top" xlink:title="Send data frame to Z&#45;Wave chip via serial port and wait for ACK.">
<polygon fill="none" stroke="black" points="301.5,-244 301.5,-274 408.5,-274 408.5,-244 301.5,-244"/>
<text text-anchor="start" x="309.5" y="-262" font-family="Helvetica,sans-Serif" font-size="10.00">zwapi_session_send</text>
<text text-anchor="middle" x="355" y="-251" font-family="Helvetica,sans-Serif" font-size="10.00">_frame</text>
</a>
</g>
</g>
<!-- Node2&#45;&gt;Node3 -->
<g id="edge2" class="edge">
<title>Node2&#45;&gt;Node3</title>
<path fill="none" stroke="midnightblue" d="M243.35,-244.51C258.79,-246.53 275.56,-248.73 291.28,-250.79"/>
<polygon fill="midnightblue" stroke="midnightblue" points="291.06,-254.29 301.43,-252.12 291.97,-247.35 291.06,-254.29"/>
</g>
<!-- Node28 -->
<g id="node28" class="node">
<title>Node28</title>
<g id="a_node28"><a xlink:href="group__ZWAPI__INIT.html#ga0a823074baec69913d0e8590b46e4e33" target="_top" xlink:title="Check if a command is supported by the connected Z&#45;Wave module.">
<polygon fill="none" stroke="black" points="279,-205.5 279,-224.5 431,-224.5 431,-205.5 279,-205.5"/>
<text text-anchor="middle" x="355" y="-212.5" font-family="Helvetica,sans-Serif" font-size="10.00">zwapi_support_command_func</text>
</a>
</g>
</g>
<!-- Node2&#45;&gt;Node28 -->
<g id="edge42" class="edge">
<title>Node2&#45;&gt;Node28</title>
<path fill="none" stroke="midnightblue" d="M243.35,-229.49C252.28,-228.32 261.67,-227.09 271.03,-225.86"/>
<polygon fill="midnightblue" stroke="midnightblue" points="271.71,-229.31 281.17,-224.54 270.8,-222.37 271.71,-229.31"/>
</g>
<!-- Node4 -->
<g id="node4" class="node">
<title>Node4</title>
<g id="a_node4"><a xlink:href="zwapi__connection_8c.html#a13b6e6b6c56844f4344fabe490bc5eac" target="_top" xlink:title="Closes and re&#45;initializes the zwapi_connection to the Z&#45;Wave module.">
<polygon fill="none" stroke="black" points="627,-363.5 627,-382.5 755,-382.5 755,-363.5 627,-363.5"/>
<text text-anchor="middle" x="691" y="-370.5" font-family="Helvetica,sans-Serif" font-size="10.00">zwapi_connection_restart</text>
</a>
</g>
</g>
<!-- Node3&#45;&gt;Node4 -->
<g id="edge3" class="edge">
<title>Node3&#45;&gt;Node4</title>
<path fill="none" stroke="midnightblue" d="M369.28,-274.25C388.49,-295.15 426.23,-332.04 467,-349 514.2,-368.63 571.63,-374.44 616.39,-375.44"/>
<polygon fill="midnightblue" stroke="midnightblue" points="616.55,-378.95 626.6,-375.59 616.66,-371.95 616.55,-378.95"/>
</g>
<!-- Node14 -->
<g id="node14" class="node">
<title>Node14</title>
<g id="a_node14"><a xlink:href="zwapi__timestamp_8c.html#a6ebe1ddfe689bce6ee72fc12f708aece" target="_top" xlink:title="get the timestamp">
<polygon fill="none" stroke="black" points="800,-349.5 800,-368.5 912,-368.5 912,-349.5 800,-349.5"/>
<text text-anchor="middle" x="856" y="-356.5" font-family="Helvetica,sans-Serif" font-size="10.00">zwapi_timestamp_get</text>
</a>
</g>
</g>
<!-- Node3&#45;&gt;Node14 -->
<g id="edge41" class="edge">
<title>Node3&#45;&gt;Node14</title>
<path fill="none" stroke="midnightblue" d="M408.77,-270.5C427.19,-274.49 448,-278.97 467,-283 537.61,-297.96 555.2,-302.01 626,-316 682.38,-327.14 746.71,-339.16 792.81,-347.65"/>
<polygon fill="midnightblue" stroke="midnightblue" points="792.18,-351.1 802.65,-349.46 793.45,-344.21 792.18,-351.1"/>
</g>
<!-- Node15 -->
<g id="node15" class="node">
<title>Node15</title>
<g id="a_node15"><a xlink:href="zwapi__connection_8c.html#af47f8cbd93974d5c91d659fdeb7a870b" target="_top" xlink:title="Transmit a frame via serial port by adding SOF, Len, Type, cmd and Checksum.">
<polygon fill="none" stroke="black" points="637,-401.5 637,-420.5 745,-420.5 745,-401.5 637,-401.5"/>
<text text-anchor="middle" x="691" y="-408.5" font-family="Helvetica,sans-Serif" font-size="10.00">zwapi_connection_tx</text>
</a>
</g>
</g>
<!-- Node3&#45;&gt;Node15 -->
<g id="edge14" class="edge">
<title>Node3&#45;&gt;Node15</title>
<path fill="none" stroke="midnightblue" d="M365.47,-274.2C382.38,-299.9 420.4,-351.52 467,-376 516.51,-402.01 580.12,-409.9 626.72,-411.78"/>
<polygon fill="midnightblue" stroke="midnightblue" points="626.88,-415.29 636.99,-412.11 627.11,-408.29 626.88,-415.29"/>
</g>
<!-- Node17 -->
<g id="node17" class="node">
<title>Node17</title>
<g id="a_node17"><a xlink:href="zwapi__timestamp_8c.html#a3925f2732e344672608db38351236688" target="_top" xlink:title="compare the current timestamp with the timestamp passed as an argument">
<polygon fill="none" stroke="black" points="803,-137 803,-167 909,-167 909,-137 803,-137"/>
<text text-anchor="start" x="811" y="-155" font-family="Helvetica,sans-Serif" font-size="10.00">zwapi_is_timestamp</text>
<text text-anchor="middle" x="856" y="-144" font-family="Helvetica,sans-Serif" font-size="10.00">_elapsed</text>
</a>
</g>
</g>
<!-- Node3&#45;&gt;Node17 -->
<g id="edge19" class="edge">
<title>Node3&#45;&gt;Node17</title>
<path fill="none" stroke="midnightblue" d="M408.66,-246.39C463,-233.5 550.27,-213.13 626,-197 682.3,-185.01 746.64,-172.47 792.76,-163.68"/>
<polygon fill="midnightblue" stroke="midnightblue" points="793.44,-167.11 802.61,-161.81 792.13,-160.24 793.44,-167.11"/>
</g>
<!-- Node18 -->
<g id="node18" class="node">
<title>Node18</title>
<g id="a_node18"><a xlink:href="zwapi__session_8c.html#a1f2b3e7c2dcf31708ef8d333747352ba" target="_top" xlink:title=" ">
<polygon fill="none" stroke="black" points="629.5,-80 629.5,-110 752.5,-110 752.5,-80 629.5,-80"/>
<text text-anchor="start" x="637.5" y="-98" font-family="Helvetica,sans-Serif" font-size="10.00">zwapi_session_enqueue</text>
<text text-anchor="middle" x="691" y="-87" font-family="Helvetica,sans-Serif" font-size="10.00">_frame</text>
</a>
</g>
</g>
<!-- Node3&#45;&gt;Node18 -->
<g id="edge20" class="edge">
<title>Node3&#45;&gt;Node18</title>
<path fill="none" stroke="midnightblue" d="M408.58,-248.71C416.9,-245.17 424.79,-240.4 431,-234 469.77,-194.04 423.78,-149.11 467,-114 508.95,-79.92 571.16,-77.27 619.22,-81.95"/>
<polygon fill="midnightblue" stroke="midnightblue" points="618.92,-85.44 629.25,-83.05 619.69,-78.48 618.92,-85.44"/>
</g>
<!-- Node22 -->
<g id="node22" class="node">
<title>Node22</title>
<g id="a_node22"><a xlink:href="zwapi__session_8c.html#a2875fbfa250b7b25ecb6bc4f0b032cb8" target="_top" xlink:title="Loads the received frames from the serial device into the zwapi_session receive queue.">
<polygon fill="none" stroke="black" points="467,-124 467,-154 590,-154 590,-124 467,-124"/>
<text text-anchor="start" x="475" y="-142" font-family="Helvetica,sans-Serif" font-size="10.00">zwapi_session_enqueue</text>
<text text-anchor="middle" x="528.5" y="-131" font-family="Helvetica,sans-Serif" font-size="10.00">_rx_frames</text>
</a>
</g>
</g>
<!-- Node3&#45;&gt;Node22 -->
<g id="edge24" class="edge">
<title>Node3&#45;&gt;Node22</title>
<path fill="none" stroke="midnightblue" d="M408.66,-247.06C416.68,-243.71 424.46,-239.44 431,-234 456.4,-212.89 443.12,-191.81 467,-169 470.77,-165.4 475.06,-162.14 479.57,-159.22"/>
<polygon fill="midnightblue" stroke="midnightblue" points="481.59,-162.09 488.44,-154.01 478.04,-156.05 481.59,-162.09"/>
</g>
<!-- Node27 -->
<g id="node27" class="node">
<title>Node27</title>
<g id="a_node27"><a xlink:href="zwapi__session_8c.html#a9d30e1677f02d7730ab035aa9333235d" target="_top" xlink:title=" ">
<polygon fill="none" stroke="black" points="476.5,-244 476.5,-274 580.5,-274 580.5,-244 476.5,-244"/>
<text text-anchor="start" x="484.5" y="-262" font-family="Helvetica,sans-Serif" font-size="10.00">zwapi_session_wait</text>
<text text-anchor="middle" x="528.5" y="-251" font-family="Helvetica,sans-Serif" font-size="10.00">_for_response</text>
</a>
</g>
</g>
<!-- Node3&#45;&gt;Node27 -->
<g id="edge37" class="edge">
<title>Node3&#45;&gt;Node27</title>
<path fill="none" stroke="midnightblue" d="M408.86,-259C426.96,-259 447.37,-259 466.09,-259"/>
<polygon fill="midnightblue" stroke="midnightblue" points="466.29,-262.5 476.29,-259 466.29,-255.5 466.29,-262.5"/>
</g>
<!-- Node5 -->
<g id="node5" class="node">
<title>Node5</title>
<g id="a_node5"><a xlink:href="zwapi__serial_8c.html#a3f2b3bd848e9fe0e6e137482bed06b46" target="_top" xlink:title="Flush the serial output if using buffered output.">
<polygon fill="none" stroke="black" points="807.5,-388 807.5,-418 904.5,-418 904.5,-388 807.5,-388"/>
<text text-anchor="start" x="815.5" y="-406" font-family="Helvetica,sans-Serif" font-size="10.00">zwapi_serial_drain</text>
<text text-anchor="middle" x="856" y="-395" font-family="Helvetica,sans-Serif" font-size="10.00">_buffer</text>
</a>
</g>
</g>
<!-- Node4&#45;&gt;Node5 -->
<g id="edge4" class="edge">
<title>Node4&#45;&gt;Node5</title>
<path fill="none" stroke="midnightblue" d="M744.02,-382.57C761,-385.7 779.95,-389.19 797.32,-392.38"/>
<polygon fill="midnightblue" stroke="midnightblue" points="796.87,-395.86 807.34,-394.23 798.14,-388.98 796.87,-395.86"/>
</g>
<!-- Node6 -->
<g id="node6" class="node">
<title>Node6</title>
<g id="a_node6"><a xlink:href="zwapi__serial_8c.html#a7762d0358e9f398b92edbfd6a550984a" target="_top" xlink:title="Write a byte to serial port device.">
<polygon fill="none" stroke="black" points="799.5,-311.5 799.5,-330.5 912.5,-330.5 912.5,-311.5 799.5,-311.5"/>
<text text-anchor="middle" x="856" y="-318.5" font-family="Helvetica,sans-Serif" font-size="10.00">zwapi_serial_put_byte</text>
</a>
</g>
</g>
<!-- Node4&#45;&gt;Node6 -->
<g id="edge5" class="edge">
<title>Node4&#45;&gt;Node6</title>
<path fill="none" stroke="midnightblue" d="M720.39,-363.42C740.37,-356.72 767.77,-347.65 792,-340 798.73,-337.87 805.89,-335.67 812.87,-333.54"/>
<polygon fill="midnightblue" stroke="midnightblue" points="814.34,-336.75 822.9,-330.51 812.32,-330.05 814.34,-336.75"/>
</g>
<!-- Node10 -->
<g id="node10" class="node">
<title>Node10</title>
<g id="a_node10"><a xlink:href="zwapi__serial_8c.html#aadf3397d0bd2c1657d4b1a373599acfe" target="_top" xlink:title="Closes and re&#45;initialize the last open serial port.">
<polygon fill="none" stroke="black" points="804,-475.5 804,-494.5 908,-494.5 908,-475.5 804,-475.5"/>
<text text-anchor="middle" x="856" y="-482.5" font-family="Helvetica,sans-Serif" font-size="10.00">zwapi_serial_restart</text>
</a>
</g>
</g>
<!-- Node4&#45;&gt;Node10 -->
<g id="edge9" class="edge">
<title>Node4&#45;&gt;Node10</title>
<path fill="none" stroke="midnightblue" d="M734.86,-382.59C742.17,-385.09 749.5,-388.19 756,-392 775.25,-403.28 775.79,-411.66 792,-427 806.88,-441.08 824,-456.81 836.63,-468.33"/>
<polygon fill="midnightblue" stroke="midnightblue" points="834.47,-471.09 844.22,-475.24 839.18,-465.92 834.47,-471.09"/>
</g>
<!-- Node4&#45;&gt;Node14 -->
<g id="edge13" class="edge">
<title>Node4&#45;&gt;Node14</title>
<path fill="none" stroke="midnightblue" d="M755.02,-367.59C766.34,-366.62 778.16,-365.6 789.54,-364.62"/>
<polygon fill="midnightblue" stroke="midnightblue" points="790.18,-368.08 799.85,-363.74 789.58,-361.11 790.18,-368.08"/>
</g>
<!-- Node7 -->
<g id="node7" class="node">
<title>Node7</title>
<g id="a_node7"><a xlink:href="zwapi__serial_8c.html#af9054824651df422bab5076d16a80fda" target="_top" xlink:title="Writes the content of a buffer to the serial port device.">
<polygon fill="none" stroke="black" points="956,-312.5 956,-331.5 1075,-331.5 1075,-312.5 956,-312.5"/>
<text text-anchor="middle" x="1015.5" y="-319.5" font-family="Helvetica,sans-Serif" font-size="10.00">zwapi_serial_put_buffer</text>
</a>
</g>
</g>
<!-- Node6&#45;&gt;Node7 -->
<g id="edge6" class="edge">
<title>Node6&#45;&gt;Node7</title>
<path fill="none" stroke="midnightblue" d="M912.53,-321.35C923.24,-321.42 934.59,-321.49 945.66,-321.56"/>
<polygon fill="midnightblue" stroke="midnightblue" points="945.71,-325.06 955.74,-321.63 945.76,-318.06 945.71,-325.06"/>
</g>
<!-- Node8 -->
<g id="node8" class="node">
<title>Node8</title>
<g id="a_node8"><a xlink:href="zwapi__serial_8c.html#a0accbbf7ddb7aeab10f5df1fe3df6642" target="_top" xlink:title=" ">
<polygon fill="none" stroke="black" points="1111,-313.5 1111,-332.5 1251,-332.5 1251,-313.5 1111,-313.5"/>
<text text-anchor="middle" x="1181" y="-320.5" font-family="Helvetica,sans-Serif" font-size="10.00">zwapi_serial_log_timestamp</text>
</a>
</g>
</g>
<!-- Node7&#45;&gt;Node8 -->
<g id="edge7" class="edge">
<title>Node7&#45;&gt;Node8</title>
<path fill="none" stroke="midnightblue" d="M1075.07,-322.36C1083.43,-322.41 1092.15,-322.46 1100.82,-322.52"/>
<polygon fill="midnightblue" stroke="midnightblue" points="1100.95,-326.02 1110.97,-322.58 1100.99,-319.02 1100.95,-326.02"/>
</g>
<!-- Node9 -->
<g id="node9" class="node">
<title>Node9</title>
<g id="a_node9"><a xlink:href="zwapi__serial_8c.html#abf18afb71e14daaf65d937149ef1639f" target="_top" xlink:title="Test if a is less than b + ms.">
<polygon fill="none" stroke="black" points="1127.5,-264 1127.5,-294 1234.5,-294 1234.5,-264 1127.5,-264"/>
<text text-anchor="start" x="1135.5" y="-282" font-family="Helvetica,sans-Serif" font-size="10.00">zwapi_serial_timeval</text>
<text text-anchor="middle" x="1181" y="-271" font-family="Helvetica,sans-Serif" font-size="10.00">_a_lt_b_milis</text>
</a>
</g>
</g>
<!-- Node7&#45;&gt;Node9 -->
<g id="edge8" class="edge">
<title>Node7&#45;&gt;Node9</title>
<path fill="none" stroke="midnightblue" d="M1052.79,-312.46C1071.8,-307.46 1095.61,-301.19 1117.48,-295.44"/>
<polygon fill="midnightblue" stroke="midnightblue" points="1118.59,-298.77 1127.37,-292.84 1116.81,-292 1118.59,-298.77"/>
</g>
<!-- Node11 -->
<g id="node11" class="node">
<title>Node11</title>
<g id="a_node11"><a xlink:href="zwapi__serial_8c.html#aae586785021ac9a605cd77651429f0c9" target="_top" xlink:title="De&#45;Initialize the serial port.">
<polygon fill="none" stroke="black" points="966,-494.5 966,-513.5 1065,-513.5 1065,-494.5 966,-494.5"/>
<text text-anchor="middle" x="1015.5" y="-501.5" font-family="Helvetica,sans-Serif" font-size="10.00">zwapi_serial_close</text>
</a>
</g>
</g>
<!-- Node10&#45;&gt;Node11 -->
<g id="edge10" class="edge">
<title>Node10&#45;&gt;Node11</title>
<path fill="none" stroke="midnightblue" d="M908.14,-491.17C923.31,-493 940.06,-495.02 955.68,-496.9"/>
<polygon fill="midnightblue" stroke="midnightblue" points="955.42,-500.4 965.76,-498.12 956.25,-493.45 955.42,-500.4"/>
</g>
<!-- Node12 -->
<g id="node12" class="node">
<title>Node12</title>
<g id="a_node12"><a xlink:href="zwapi__serial_8c.html#a07b09de97f4932d882fc77e191c44638" target="_top" xlink:title="Initialize the serial port to 115200 BAUD 8N1.">
<polygon fill="none" stroke="black" points="971,-456.5 971,-475.5 1060,-475.5 1060,-456.5 971,-456.5"/>
<text text-anchor="middle" x="1015.5" y="-463.5" font-family="Helvetica,sans-Serif" font-size="10.00">zwapi_serial_init</text>
</a>
</g>
</g>
<!-- Node10&#45;&gt;Node12 -->
<g id="edge11" class="edge">
<title>Node10&#45;&gt;Node12</title>
<path fill="none" stroke="midnightblue" d="M908.14,-478.83C924.87,-476.81 943.51,-474.56 960.46,-472.52"/>
<polygon fill="midnightblue" stroke="midnightblue" points="961.25,-475.95 970.76,-471.28 960.41,-469 961.25,-475.95"/>
</g>
<!-- Node13 -->
<g id="node13" class="node">
<title>Node13</title>
<g id="a_node13"><a xlink:href="zwapi__serial_8c.html#aefeac5909b0bf6411db1492f69c3bc68" target="_top" xlink:title=" ">
<polygon fill="none" stroke="black" points="1121.5,-456.5 1121.5,-475.5 1240.5,-475.5 1240.5,-456.5 1121.5,-456.5"/>
<text text-anchor="middle" x="1181" y="-463.5" font-family="Helvetica,sans-Serif" font-size="10.00">zwapi_open_serial_port</text>
</a>
</g>
</g>
<!-- Node12&#45;&gt;Node13 -->
<g id="edge12" class="edge">
<title>Node12&#45;&gt;Node13</title>
<path fill="none" stroke="midnightblue" d="M1060.31,-466C1075.97,-466 1094.01,-466 1111.26,-466"/>
<polygon fill="midnightblue" stroke="midnightblue" points="1111.3,-469.5 1121.3,-466 1111.3,-462.5 1111.3,-469.5"/>
</g>
<!-- Node15&#45;&gt;Node5 -->
<g id="edge16" class="edge">
<title>Node15&#45;&gt;Node5</title>
<path fill="none" stroke="midnightblue" d="M745.37,-408.38C761.9,-407.57 780.19,-406.67 797.02,-405.85"/>
<polygon fill="midnightblue" stroke="midnightblue" points="797.47,-409.33 807.28,-405.34 797.12,-402.34 797.47,-409.33"/>
</g>
<!-- Node15&#45;&gt;Node7 -->
<g id="edge17" class="edge">
<title>Node15&#45;&gt;Node7</title>
<path fill="none" stroke="midnightblue" d="M718.34,-420.55C762.29,-434.86 852.4,-457.11 920,-427 959.75,-409.3 989.8,-365.69 1004.5,-340.59"/>
<polygon fill="midnightblue" stroke="midnightblue" points="1007.66,-342.11 1009.52,-331.68 1001.56,-338.67 1007.66,-342.11"/>
</g>
<!-- Node15&#45;&gt;Node14 -->
<g id="edge18" class="edge">
<title>Node15&#45;&gt;Node14</title>
<path fill="none" stroke="midnightblue" d="M726.04,-401.46C735.77,-398.58 746.35,-395.3 756,-392 772.24,-386.44 775.77,-383.59 792,-378 798.39,-375.8 805.18,-373.6 811.86,-371.52"/>
<polygon fill="midnightblue" stroke="midnightblue" points="812.96,-374.85 821.49,-368.58 810.91,-368.15 812.96,-374.85"/>
</g>
<!-- Node16 -->
<g id="node16" class="node">
<title>Node16</title>
<g id="a_node16"><a xlink:href="zwapi__connection_8c.html#a96d24d537c5b8d6aa0aa6a7638ba2f09" target="_top" xlink:title=" ">
<polygon fill="none" stroke="black" points="798.5,-513.5 798.5,-532.5 913.5,-532.5 913.5,-513.5 798.5,-513.5"/>
<text text-anchor="middle" x="856" y="-520.5" font-family="Helvetica,sans-Serif" font-size="10.00">zwapi_frame_to_string</text>
</a>
</g>
</g>
<!-- Node15&#45;&gt;Node16 -->
<g id="edge15" class="edge">
<title>Node15&#45;&gt;Node16</title>
<path fill="none" stroke="midnightblue" d="M699.74,-420.69C715.25,-439.5 752.11,-481.11 792,-504 795.73,-506.14 799.73,-508.07 803.84,-509.79"/>
<polygon fill="midnightblue" stroke="midnightblue" points="802.95,-513.19 813.54,-513.45 805.42,-506.65 802.95,-513.19"/>
</g>
<!-- Node19 -->
<g id="node19" class="node">
<title>Node19</title>
<g id="a_node19"><a xlink:href="zwapi__connection_8c.html#a91ce3acd7eff779496789637a9c27f40" target="_top" xlink:title="Provides the data of the serial buffer for the last received frame.">
<polygon fill="none" stroke="black" points="799.5,-88 799.5,-118 912.5,-118 912.5,-88 799.5,-88"/>
<text text-anchor="start" x="807.5" y="-106" font-family="Helvetica,sans-Serif" font-size="10.00">zwapi_connection_get</text>
<text text-anchor="middle" x="856" y="-95" font-family="Helvetica,sans-Serif" font-size="10.00">_last_rx_frame</text>
</a>
</g>
</g>
<!-- Node18&#45;&gt;Node19 -->
<g id="edge21" class="edge">
<title>Node18&#45;&gt;Node19</title>
<path fill="none" stroke="midnightblue" d="M752.7,-97.98C764.65,-98.57 777.24,-99.18 789.34,-99.78"/>
<polygon fill="midnightblue" stroke="midnightblue" points="789.21,-103.28 799.37,-100.27 789.55,-96.28 789.21,-103.28"/>
</g>
<!-- Node20 -->
<g id="node20" class="node">
<title>Node20</title>
<g id="a_node20"><a xlink:href="zwapi__session_8c.html#ad7bac697ee2388b38ed3777b5a3862bc" target="_top" xlink:title=" ">
<polygon fill="none" stroke="black" points="799.5,-39 799.5,-69 912.5,-69 912.5,-39 799.5,-39"/>
<text text-anchor="start" x="807.5" y="-57" font-family="Helvetica,sans-Serif" font-size="10.00">zwapi_session_get_rx</text>
<text text-anchor="middle" x="856" y="-46" font-family="Helvetica,sans-Serif" font-size="10.00">_queue_length</text>
</a>
</g>
</g>
<!-- Node18&#45;&gt;Node20 -->
<g id="edge22" class="edge">
<title>Node18&#45;&gt;Node20</title>
<path fill="none" stroke="midnightblue" d="M751.77,-79.97C764.03,-76.88 777,-73.62 789.45,-70.49"/>
<polygon fill="midnightblue" stroke="midnightblue" points="790.45,-73.84 799.3,-68.01 788.75,-67.06 790.45,-73.84"/>
</g>
<!-- Node21 -->
<g id="node21" class="node">
<title>Node21</title>
<g id="a_node21"><a xlink:href="group__ZWAPI__INIT.html#ga438a74c9752197d20d377874d5a61694" target="_top" xlink:title="Returns the pointer to the callbacks registered at init.">
<polygon fill="none" stroke="black" points="792,-0.5 792,-19.5 920,-19.5 920,-0.5 792,-0.5"/>
<text text-anchor="middle" x="856" y="-7.5" font-family="Helvetica,sans-Serif" font-size="10.00">zwave_api_get_callbacks</text>
</a>
</g>
</g>
<!-- Node18&#45;&gt;Node21 -->
<g id="edge23" class="edge">
<title>Node18&#45;&gt;Node21</title>
<path fill="none" stroke="midnightblue" d="M711.29,-79.8C730.73,-65.09 762.05,-43.03 792,-29 796.91,-26.7 802.17,-24.6 807.48,-22.7"/>
<polygon fill="midnightblue" stroke="midnightblue" points="808.65,-26 817.02,-19.51 806.43,-19.36 808.65,-26"/>
</g>
<!-- Node22&#45;&gt;Node18 -->
<g id="edge36" class="edge">
<title>Node22&#45;&gt;Node18</title>
<path fill="none" stroke="midnightblue" d="M584.29,-123.98C597.51,-120.35 611.77,-116.45 625.4,-112.71"/>
<polygon fill="midnightblue" stroke="midnightblue" points="626.47,-116.05 635.19,-110.03 624.62,-109.29 626.47,-116.05"/>
</g>
<!-- Node23 -->
<g id="node23" class="node">
<title>Node23</title>
<g id="a_node23"><a xlink:href="zwapi__connection_8c.html#a1e45c6c9695b5e7b415adfad40080720" target="_top" xlink:title="Parses serial data sent from the Z&#45;Wave module to the serial port. Should be frequently called by mai...">
<polygon fill="none" stroke="black" points="626,-249.5 626,-268.5 756,-268.5 756,-249.5 626,-249.5"/>
<text text-anchor="middle" x="691" y="-256.5" font-family="Helvetica,sans-Serif" font-size="10.00">zwapi_connection_refresh</text>
</a>
</g>
</g>
<!-- Node22&#45;&gt;Node23 -->
<g id="edge25" class="edge">
<title>Node22&#45;&gt;Node23</title>
<path fill="none" stroke="midnightblue" d="M549.83,-154.2C580.38,-177.04 637.87,-220.02 668.88,-243.21"/>
<polygon fill="midnightblue" stroke="midnightblue" points="667.14,-246.28 677.24,-249.46 671.33,-240.67 667.14,-246.28"/>
</g>
<!-- Node23&#45;&gt;Node5 -->
<g id="edge27" class="edge">
<title>Node23&#45;&gt;Node5</title>
<path fill="none" stroke="midnightblue" d="M697.77,-268.72C711.45,-291.01 748.01,-346.27 792,-378 794.62,-379.89 797.41,-381.67 800.3,-383.33"/>
<polygon fill="midnightblue" stroke="midnightblue" points="798.7,-386.44 809.18,-387.97 801.94,-380.24 798.7,-386.44"/>
</g>
<!-- Node23&#45;&gt;Node6 -->
<g id="edge34" class="edge">
<title>Node23&#45;&gt;Node6</title>
<path fill="none" stroke="midnightblue" d="M719.72,-268.52C731.09,-272.66 744.31,-277.75 756,-283 772.5,-290.41 775.26,-295.13 792,-302 797.48,-304.25 803.33,-306.37 809.18,-308.32"/>
<polygon fill="midnightblue" stroke="midnightblue" points="808.34,-311.72 818.93,-311.43 810.47,-305.05 808.34,-311.72"/>
</g>
<!-- Node23&#45;&gt;Node14 -->
<g id="edge35" class="edge">
<title>Node23&#45;&gt;Node14</title>
<path fill="none" stroke="midnightblue" d="M729.71,-268.55C738.95,-272.07 748.36,-276.78 756,-283 779.24,-301.91 768.15,-321.86 792,-340 794.47,-341.88 797.12,-343.57 799.89,-345.09"/>
<polygon fill="midnightblue" stroke="midnightblue" points="798.51,-348.31 809.05,-349.42 801.5,-341.99 798.51,-348.31"/>
</g>
<!-- Node23&#45;&gt;Node17 -->
<g id="edge26" class="edge">
<title>Node23&#45;&gt;Node17</title>
<path fill="none" stroke="midnightblue" d="M730.11,-249.4C739.24,-245.89 748.5,-241.2 756,-235 779.67,-215.43 768.38,-195.64 792,-176 793.55,-174.71 795.18,-173.48 796.87,-172.32"/>
<polygon fill="midnightblue" stroke="midnightblue" points="798.95,-175.15 805.73,-167.01 795.35,-169.15 798.95,-175.15"/>
</g>
<!-- Node24 -->
<g id="node24" class="node">
<title>Node24</title>
<g id="a_node24"><a xlink:href="zwapi__serial_8c.html#a538134f9fdbb1ce052667b3a041357bd" target="_top" xlink:title="Reads the output of the serial port device and stores the content in a buffer.">
<polygon fill="none" stroke="black" points="956,-272.5 956,-291.5 1075,-291.5 1075,-272.5 956,-272.5"/>
<text text-anchor="middle" x="1015.5" y="-279.5" font-family="Helvetica,sans-Serif" font-size="10.00">zwapi_serial_get_buffer</text>
</a>
</g>
</g>
<!-- Node23&#45;&gt;Node24 -->
<g id="edge28" class="edge">
<title>Node23&#45;&gt;Node24</title>
<path fill="none" stroke="midnightblue" d="M756.06,-257.57C801.86,-257.24 864.88,-258.19 920,-264 933.76,-265.45 948.52,-267.85 962.18,-270.43"/>
<polygon fill="midnightblue" stroke="midnightblue" points="961.9,-273.94 972.39,-272.43 963.24,-267.07 961.9,-273.94"/>
</g>
<!-- Node25 -->
<g id="node25" class="node">
<title>Node25</title>
<g id="a_node25"><a xlink:href="zwapi__serial_8c.html#abb082b1e7e727203e3ca5fbeb41f7c2b" target="_top" xlink:title="Reads a byte from the serial port device.">
<polygon fill="none" stroke="black" points="799.5,-273.5 799.5,-292.5 912.5,-292.5 912.5,-273.5 799.5,-273.5"/>
<text text-anchor="middle" x="856" y="-280.5" font-family="Helvetica,sans-Serif" font-size="10.00">zwapi_serial_get_byte</text>
</a>
</g>
</g>
<!-- Node23&#45;&gt;Node25 -->
<g id="edge31" class="edge">
<title>Node23&#45;&gt;Node25</title>
<path fill="none" stroke="midnightblue" d="M756.42,-268.49C767.32,-270.09 778.65,-271.76 789.58,-273.37"/>
<polygon fill="midnightblue" stroke="midnightblue" points="789.07,-276.83 799.47,-274.82 790.09,-269.91 789.07,-276.83"/>
</g>
<!-- Node26 -->
<g id="node26" class="node">
<title>Node26</title>
<g id="a_node26"><a xlink:href="zwapi__serial_8c.html#a9a952dc2b34d92960246f6dc4e7d58f7" target="_top" xlink:title="Check the file descriptor for the serial device is available for I/O operations.">
<polygon fill="none" stroke="black" points="805.5,-186 805.5,-216 906.5,-216 906.5,-186 805.5,-186"/>
<text text-anchor="start" x="813.5" y="-204" font-family="Helvetica,sans-Serif" font-size="10.00">zwapi_serial_is_file</text>
<text text-anchor="middle" x="856" y="-193" font-family="Helvetica,sans-Serif" font-size="10.00">_available</text>
</a>
</g>
</g>
<!-- Node23&#45;&gt;Node26 -->
<g id="edge33" class="edge">
<title>Node23&#45;&gt;Node26</title>
<path fill="none" stroke="midnightblue" d="M718.92,-249.42C741.73,-241.31 775.09,-229.43 803.08,-219.48"/>
<polygon fill="midnightblue" stroke="midnightblue" points="804.48,-222.69 812.73,-216.04 802.13,-216.1 804.48,-222.69"/>
</g>
<!-- Node24&#45;&gt;Node8 -->
<g id="edge29" class="edge">
<title>Node24&#45;&gt;Node8</title>
<path fill="none" stroke="midnightblue" d="M1054.42,-291.51C1077.55,-297.31 1107.33,-304.78 1132.09,-310.99"/>
<polygon fill="midnightblue" stroke="midnightblue" points="1131.45,-314.43 1142,-313.47 1133.15,-307.64 1131.45,-314.43"/>
</g>
<!-- Node24&#45;&gt;Node9 -->
<g id="edge30" class="edge">
<title>Node24&#45;&gt;Node9</title>
<path fill="none" stroke="midnightblue" d="M1075.07,-280.93C1088.65,-280.68 1103.16,-280.41 1116.92,-280.16"/>
<polygon fill="midnightblue" stroke="midnightblue" points="1117.34,-283.65 1127.28,-279.97 1117.22,-276.65 1117.34,-283.65"/>
</g>
<!-- Node25&#45;&gt;Node24 -->
<g id="edge32" class="edge">
<title>Node25&#45;&gt;Node24</title>
<path fill="none" stroke="midnightblue" d="M912.53,-282.65C923.24,-282.58 934.59,-282.51 945.66,-282.44"/>
<polygon fill="midnightblue" stroke="midnightblue" points="945.76,-285.94 955.74,-282.37 945.71,-278.94 945.76,-285.94"/>
</g>
<!-- Node27&#45;&gt;Node14 -->
<g id="edge40" class="edge">
<title>Node27&#45;&gt;Node14</title>
<path fill="none" stroke="midnightblue" d="M580.91,-269.69C627.51,-280.17 697.61,-297.92 756,-321 772.83,-327.65 775.26,-333.13 792,-340 797.48,-342.25 803.33,-344.37 809.18,-346.32"/>
<polygon fill="midnightblue" stroke="midnightblue" points="808.34,-349.72 818.93,-349.43 810.47,-343.05 808.34,-349.72"/>
</g>
<!-- Node27&#45;&gt;Node17 -->
<g id="edge39" class="edge">
<title>Node27&#45;&gt;Node17</title>
<path fill="none" stroke="midnightblue" d="M580.7,-248.99C627.45,-238.92 697.93,-221.39 756,-197 773.08,-189.83 775.29,-183.99 792,-176 795.58,-174.29 799.32,-172.61 803.11,-170.98"/>
<polygon fill="midnightblue" stroke="midnightblue" points="804.67,-174.12 812.57,-167.07 802,-167.65 804.67,-174.12"/>
</g>
<!-- Node27&#45;&gt;Node23 -->
<g id="edge38" class="edge">
<title>Node27&#45;&gt;Node23</title>
<path fill="none" stroke="midnightblue" d="M580.72,-259C591.79,-259 603.71,-259 615.47,-259"/>
<polygon fill="midnightblue" stroke="midnightblue" points="615.73,-262.5 625.73,-259 615.73,-255.5 615.73,-262.5"/>
</g>
</g>
</svg>
