<?xml version="1.0" encoding="UTF-8" standalone="no"?>
<!DOCTYPE svg PUBLIC "-//W3C//DTD SVG 1.1//EN"
 "http://www.w3.org/Graphics/SVG/1.1/DTD/svg11.dtd">
<!-- Generated by graphviz version 2.43.0 (0)
 -->
<!-- Title: zwapi_send_nop Pages: 1 -->
<svg width="1420pt" height="541pt"
 viewBox="0.00 0.00 1420.00 541.00" xmlns="http://www.w3.org/2000/svg" xmlns:xlink="http://www.w3.org/1999/xlink">
<g id="graph0" class="graph" transform="scale(1 1) rotate(0) translate(4 537)">
<title>zwapi_send_nop</title>
<!-- Node1 -->
<g id="node1" class="node">
<title>Node1</title>
<g id="a_node1"><a xlink:title="Sends a NOP to a NodeID destination.">
<polygon fill="#bfbfbf" stroke="black" points="0,-248 0,-267 89,-267 89,-248 0,-248"/>
<text text-anchor="middle" x="44.5" y="-255" font-family="Helvetica,sans-Serif" font-size="10.00">zwapi_send_nop</text>
</a>
</g>
</g>
<!-- Node2 -->
<g id="node2" class="node">
<title>Node2</title>
<g id="a_node2"><a xlink:href="zwapi__init_8c.html#a5ec89d5817b8ce00454fce891ae8400e" target="_top" xlink:title="Send a command to the Z&#45;Wave module and waits for an ACK.">
<polygon fill="none" stroke="black" points="125,-264.5 125,-294.5 241,-294.5 241,-264.5 125,-264.5"/>
<text text-anchor="start" x="133" y="-282.5" font-family="Helvetica,sans-Serif" font-size="10.00">zwapi_send_command</text>
<text text-anchor="middle" x="183" y="-271.5" font-family="Helvetica,sans-Serif" font-size="10.00">_with_response</text>
</a>
</g>
</g>
<!-- Node1&#45;&gt;Node2 -->
<g id="edge1" class="edge">
<title>Node1&#45;&gt;Node2</title>
<path fill="none" stroke="midnightblue" d="M89.06,-264.52C97.34,-265.86 106.18,-267.28 114.99,-268.7"/>
<polygon fill="midnightblue" stroke="midnightblue" points="114.46,-272.16 124.89,-270.3 115.57,-265.25 114.46,-272.16"/>
</g>
<!-- Node31 -->
<g id="node31" class="node">
<title>Node31</title>
<g id="a_node31"><a xlink:href="zwapi__utils_8c.html#aeea16d7db2f976466a2c0f4aa9b0416f" target="_top" xlink:title="Write the node ID in buffer based on node ID basetype. Note that this helper also advances the index.">
<polygon fill="none" stroke="black" points="129.5,-226 129.5,-245 236.5,-245 236.5,-226 129.5,-226"/>
<text text-anchor="middle" x="183" y="-233" font-family="Helvetica,sans-Serif" font-size="10.00">zwapi_write_node_id</text>
</a>
</g>
</g>
<!-- Node1&#45;&gt;Node31 -->
<g id="edge48" class="edge">
<title>Node1&#45;&gt;Node31</title>
<path fill="none" stroke="midnightblue" d="M89.06,-250.48C98.66,-248.93 109.01,-247.26 119.2,-245.62"/>
<polygon fill="midnightblue" stroke="midnightblue" points="119.98,-249.04 129.3,-243.99 118.87,-242.13 119.98,-249.04"/>
</g>
<!-- Node3 -->
<g id="node3" class="node">
<title>Node3</title>
<g id="a_node3"><a xlink:href="zwapi__session_8c.html#abf613a2ad7710ac80fb239ba55e621d7" target="_top" xlink:title="Send data frame to Z&#45;Wave chip via serial API, wait for ACK and a RES frame.">
<polygon fill="none" stroke="black" points="295.5,-264.5 295.5,-294.5 410.5,-294.5 410.5,-264.5 295.5,-264.5"/>
<text text-anchor="start" x="303.5" y="-282.5" font-family="Helvetica,sans-Serif" font-size="10.00">zwapi_session_send</text>
<text text-anchor="middle" x="353" y="-271.5" font-family="Helvetica,sans-Serif" font-size="10.00">_frame_with_response</text>
</a>
</g>
</g>
<!-- Node2&#45;&gt;Node3 -->
<g id="edge2" class="edge">
<title>Node2&#45;&gt;Node3</title>
<path fill="none" stroke="midnightblue" d="M241.35,-279.5C255.42,-279.5 270.61,-279.5 285.09,-279.5"/>
<polygon fill="midnightblue" stroke="midnightblue" points="285.48,-283 295.48,-279.5 285.48,-276 285.48,-283"/>
</g>
<!-- Node30 -->
<g id="node30" class="node">
<title>Node30</title>
<g id="a_node30"><a xlink:href="group__ZWAPI__INIT.html#ga0a823074baec69913d0e8590b46e4e33" target="_top" xlink:title="Check if a command is supported by the connected Z&#45;Wave module.">
<polygon fill="none" stroke="black" points="277,-314 277,-333 429,-333 429,-314 277,-314"/>
<text text-anchor="middle" x="353" y="-321" font-family="Helvetica,sans-Serif" font-size="10.00">zwapi_support_command_func</text>
</a>
</g>
</g>
<!-- Node2&#45;&gt;Node30 -->
<g id="edge47" class="edge">
<title>Node2&#45;&gt;Node30</title>
<path fill="none" stroke="midnightblue" d="M241.35,-294.52C262.41,-300.04 285.96,-306.2 305.91,-311.43"/>
<polygon fill="midnightblue" stroke="midnightblue" points="305.12,-314.84 315.68,-313.99 306.89,-308.07 305.12,-314.84"/>
</g>
<!-- Node4 -->
<g id="node4" class="node">
<title>Node4</title>
<g id="a_node4"><a xlink:href="zwapi__connection_8c.html#a91ce3acd7eff779496789637a9c27f40" target="_top" xlink:title="Provides the data of the serial buffer for the last received frame.">
<polygon fill="none" stroke="black" points="960.5,-502.5 960.5,-532.5 1073.5,-532.5 1073.5,-502.5 960.5,-502.5"/>
<text text-anchor="start" x="968.5" y="-520.5" font-family="Helvetica,sans-Serif" font-size="10.00">zwapi_connection_get</text>
<text text-anchor="middle" x="1017" y="-509.5" font-family="Helvetica,sans-Serif" font-size="10.00">_last_rx_frame</text>
</a>
</g>
</g>
<!-- Node3&#45;&gt;Node4 -->
<g id="edge3" class="edge">
<title>Node3&#45;&gt;Node4</title>
<path fill="none" stroke="midnightblue" d="M410.54,-293.1C417.18,-296.17 423.53,-299.92 429,-304.5 454.63,-325.94 439.41,-349.01 465,-370.5 607.46,-490.11 837.6,-513.33 949.99,-517.22"/>
<polygon fill="midnightblue" stroke="midnightblue" points="950.06,-520.73 960.16,-517.53 950.28,-513.73 950.06,-520.73"/>
</g>
<!-- Node5 -->
<g id="node5" class="node">
<title>Node5</title>
<g id="a_node5"><a xlink:href="zwapi__connection_8c.html#a86b069d152a5c2f8ac95774a688dff48" target="_top" xlink:title="make the zwapi_connection_status types human readable.">
<polygon fill="none" stroke="black" points="465,-176.5 465,-206.5 592,-206.5 592,-176.5 465,-176.5"/>
<text text-anchor="start" x="473" y="-194.5" font-family="Helvetica,sans-Serif" font-size="10.00">zwapi_connection_status</text>
<text text-anchor="middle" x="528.5" y="-183.5" font-family="Helvetica,sans-Serif" font-size="10.00">_to_string</text>
</a>
</g>
</g>
<!-- Node3&#45;&gt;Node5 -->
<g id="edge4" class="edge">
<title>Node3&#45;&gt;Node5</title>
<path fill="none" stroke="midnightblue" d="M408.46,-264.39C415.58,-261.54 422.61,-258.26 429,-254.5 447.71,-243.49 447.02,-233.66 465,-221.5 470.36,-217.87 476.24,-214.44 482.16,-211.29"/>
<polygon fill="midnightblue" stroke="midnightblue" points="484.12,-214.22 491.46,-206.57 480.96,-207.98 484.12,-214.22"/>
</g>
<!-- Node6 -->
<g id="node6" class="node">
<title>Node6</title>
<g id="a_node6"><a xlink:href="zwapi__session_8c.html#a1f2b3e7c2dcf31708ef8d333747352ba" target="_top" xlink:title=" ">
<polygon fill="none" stroke="black" points="790.5,-409.5 790.5,-439.5 913.5,-439.5 913.5,-409.5 790.5,-409.5"/>
<text text-anchor="start" x="798.5" y="-427.5" font-family="Helvetica,sans-Serif" font-size="10.00">zwapi_session_enqueue</text>
<text text-anchor="middle" x="852" y="-416.5" font-family="Helvetica,sans-Serif" font-size="10.00">_frame</text>
</a>
</g>
</g>
<!-- Node3&#45;&gt;Node6 -->
<g id="edge5" class="edge">
<title>Node3&#45;&gt;Node6</title>
<path fill="none" stroke="midnightblue" d="M402.36,-294.57C411.29,-297.65 420.49,-301.02 429,-304.5 520.09,-341.69 533.39,-374.48 628,-401.5 677.65,-415.68 735.73,-421.34 780.17,-423.5"/>
<polygon fill="midnightblue" stroke="midnightblue" points="780.15,-427 790.29,-423.95 780.45,-420.01 780.15,-427"/>
</g>
<!-- Node9 -->
<g id="node9" class="node">
<title>Node9</title>
<g id="a_node9"><a xlink:href="zwapi__session_8c.html#a32577f3500efc3d937dbc68eebb3c370" target="_top" xlink:title="Send data frame to Z&#45;Wave chip via serial port and wait for ACK.">
<polygon fill="none" stroke="black" points="475,-264.5 475,-294.5 582,-294.5 582,-264.5 475,-264.5"/>
<text text-anchor="start" x="483" y="-282.5" font-family="Helvetica,sans-Serif" font-size="10.00">zwapi_session_send</text>
<text text-anchor="middle" x="528.5" y="-271.5" font-family="Helvetica,sans-Serif" font-size="10.00">_frame</text>
</a>
</g>
</g>
<!-- Node3&#45;&gt;Node9 -->
<g id="edge9" class="edge">
<title>Node3&#45;&gt;Node9</title>
<path fill="none" stroke="midnightblue" d="M410.81,-279.5C428.08,-279.5 447.15,-279.5 464.78,-279.5"/>
<polygon fill="midnightblue" stroke="midnightblue" points="464.97,-283 474.97,-279.5 464.97,-276 464.97,-283"/>
</g>
<!-- Node29 -->
<g id="node29" class="node">
<title>Node29</title>
<g id="a_node29"><a xlink:href="zwapi__session_8c.html#a9d30e1677f02d7730ab035aa9333235d" target="_top" xlink:title=" ">
<polygon fill="none" stroke="black" points="637.5,-163.5 637.5,-193.5 741.5,-193.5 741.5,-163.5 637.5,-163.5"/>
<text text-anchor="start" x="645.5" y="-181.5" font-family="Helvetica,sans-Serif" font-size="10.00">zwapi_session_wait</text>
<text text-anchor="middle" x="689.5" y="-170.5" font-family="Helvetica,sans-Serif" font-size="10.00">_for_response</text>
</a>
</g>
</g>
<!-- Node3&#45;&gt;Node29 -->
<g id="edge46" class="edge">
<title>Node3&#45;&gt;Node29</title>
<path fill="none" stroke="midnightblue" d="M410.75,-266C459.27,-254.03 530.76,-235.41 592,-215.5 608.53,-210.12 626.37,-203.52 642.17,-197.38"/>
<polygon fill="midnightblue" stroke="midnightblue" points="643.67,-200.55 651.7,-193.64 641.12,-194.03 643.67,-200.55"/>
</g>
<!-- Node6&#45;&gt;Node4 -->
<g id="edge6" class="edge">
<title>Node6&#45;&gt;Node4</title>
<path fill="none" stroke="midnightblue" d="M872.49,-439.66C892.07,-454.42 923.51,-476.86 953,-492.5 956.91,-494.57 961.02,-496.57 965.21,-498.48"/>
<polygon fill="midnightblue" stroke="midnightblue" points="963.84,-501.7 974.41,-502.5 966.64,-495.29 963.84,-501.7"/>
</g>
<!-- Node7 -->
<g id="node7" class="node">
<title>Node7</title>
<g id="a_node7"><a xlink:href="zwapi__session_8c.html#ad7bac697ee2388b38ed3777b5a3862bc" target="_top" xlink:title=" ">
<polygon fill="none" stroke="black" points="960.5,-453.5 960.5,-483.5 1073.5,-483.5 1073.5,-453.5 960.5,-453.5"/>
<text text-anchor="start" x="968.5" y="-471.5" font-family="Helvetica,sans-Serif" font-size="10.00">zwapi_session_get_rx</text>
<text text-anchor="middle" x="1017" y="-460.5" font-family="Helvetica,sans-Serif" font-size="10.00">_queue_length</text>
</a>
</g>
</g>
<!-- Node6&#45;&gt;Node7 -->
<g id="edge7" class="edge">
<title>Node6&#45;&gt;Node7</title>
<path fill="none" stroke="midnightblue" d="M908.64,-439.52C922.07,-443.15 936.55,-447.05 950.39,-450.79"/>
<polygon fill="midnightblue" stroke="midnightblue" points="949.77,-454.25 960.33,-453.47 951.59,-447.49 949.77,-454.25"/>
</g>
<!-- Node8 -->
<g id="node8" class="node">
<title>Node8</title>
<g id="a_node8"><a xlink:href="group__ZWAPI__INIT.html#ga438a74c9752197d20d377874d5a61694" target="_top" xlink:title="Returns the pointer to the callbacks registered at init.">
<polygon fill="none" stroke="black" points="953,-415 953,-434 1081,-434 1081,-415 953,-415"/>
<text text-anchor="middle" x="1017" y="-422" font-family="Helvetica,sans-Serif" font-size="10.00">zwave_api_get_callbacks</text>
</a>
</g>
</g>
<!-- Node6&#45;&gt;Node8 -->
<g id="edge8" class="edge">
<title>Node6&#45;&gt;Node8</title>
<path fill="none" stroke="midnightblue" d="M913.7,-424.5C923.17,-424.5 933.04,-424.5 942.76,-424.5"/>
<polygon fill="midnightblue" stroke="midnightblue" points="942.8,-428 952.8,-424.5 942.8,-421 942.8,-428"/>
</g>
<!-- Node9&#45;&gt;Node6 -->
<g id="edge27" class="edge">
<title>Node9&#45;&gt;Node6</title>
<path fill="none" stroke="midnightblue" d="M542.56,-294.82C560.04,-314.36 592.95,-347.85 628,-366.5 675.61,-391.83 734.91,-406.57 780.39,-414.84"/>
<polygon fill="midnightblue" stroke="midnightblue" points="780.01,-418.33 790.46,-416.61 781.22,-411.43 780.01,-418.33"/>
</g>
<!-- Node10 -->
<g id="node10" class="node">
<title>Node10</title>
<g id="a_node10"><a xlink:href="zwapi__connection_8c.html#a13b6e6b6c56844f4344fabe490bc5eac" target="_top" xlink:title="Closes and re&#45;initializes the zwapi_connection to the Z&#45;Wave module.">
<polygon fill="none" stroke="black" points="788,-251 788,-270 916,-270 916,-251 788,-251"/>
<text text-anchor="middle" x="852" y="-258" font-family="Helvetica,sans-Serif" font-size="10.00">zwapi_connection_restart</text>
</a>
</g>
</g>
<!-- Node9&#45;&gt;Node10 -->
<g id="edge10" class="edge">
<title>Node9&#45;&gt;Node10</title>
<path fill="none" stroke="midnightblue" d="M582.23,-276.38C635.44,-273.24 718.05,-268.36 777.64,-264.84"/>
<polygon fill="midnightblue" stroke="midnightblue" points="777.97,-268.32 787.74,-264.24 777.55,-261.33 777.97,-268.32"/>
</g>
<!-- Node20 -->
<g id="node20" class="node">
<title>Node20</title>
<g id="a_node20"><a xlink:href="zwapi__timestamp_8c.html#a6ebe1ddfe689bce6ee72fc12f708aece" target="_top" xlink:title="get the timestamp">
<polygon fill="none" stroke="black" points="961,-213 961,-232 1073,-232 1073,-213 961,-213"/>
<text text-anchor="middle" x="1017" y="-220" font-family="Helvetica,sans-Serif" font-size="10.00">zwapi_timestamp_get</text>
</a>
</g>
</g>
<!-- Node9&#45;&gt;Node20 -->
<g id="edge45" class="edge">
<title>Node9&#45;&gt;Node20</title>
<path fill="none" stroke="midnightblue" d="M582.12,-270.72C596.94,-268.31 613.09,-265.74 628,-263.5 698.55,-252.89 716.09,-249.34 787,-241.5 842.11,-235.41 904.88,-230.33 950.75,-226.96"/>
<polygon fill="midnightblue" stroke="midnightblue" points="951.14,-230.44 960.86,-226.23 950.63,-223.46 951.14,-230.44"/>
</g>
<!-- Node21 -->
<g id="node21" class="node">
<title>Node21</title>
<g id="a_node21"><a xlink:href="zwapi__connection_8c.html#af47f8cbd93974d5c91d659fdeb7a870b" target="_top" xlink:title="Transmit a frame via serial port by adding SOF, Len, Type, cmd and Checksum.">
<polygon fill="none" stroke="black" points="798,-289 798,-308 906,-308 906,-289 798,-289"/>
<text text-anchor="middle" x="852" y="-296" font-family="Helvetica,sans-Serif" font-size="10.00">zwapi_connection_tx</text>
</a>
</g>
</g>
<!-- Node9&#45;&gt;Node21 -->
<g id="edge21" class="edge">
<title>Node9&#45;&gt;Node21</title>
<path fill="none" stroke="midnightblue" d="M582.23,-282.62C638.56,-285.95 727.83,-291.22 787.86,-294.77"/>
<polygon fill="midnightblue" stroke="midnightblue" points="787.79,-298.27 797.97,-295.37 788.2,-291.28 787.79,-298.27"/>
</g>
<!-- Node23 -->
<g id="node23" class="node">
<title>Node23</title>
<g id="a_node23"><a xlink:href="zwapi__timestamp_8c.html#a3925f2732e344672608db38351236688" target="_top" xlink:title="compare the current timestamp with the timestamp passed as an argument">
<polygon fill="none" stroke="black" points="964,-0.5 964,-30.5 1070,-30.5 1070,-0.5 964,-0.5"/>
<text text-anchor="start" x="972" y="-18.5" font-family="Helvetica,sans-Serif" font-size="10.00">zwapi_is_timestamp</text>
<text text-anchor="middle" x="1017" y="-7.5" font-family="Helvetica,sans-Serif" font-size="10.00">_elapsed</text>
</a>
</g>
</g>
<!-- Node9&#45;&gt;Node23 -->
<g id="edge26" class="edge">
<title>Node9&#45;&gt;Node23</title>
<path fill="none" stroke="midnightblue" d="M546.33,-264.46C559.63,-252.08 578.19,-233.68 592,-215.5 611.28,-190.13 605.87,-176.43 628,-153.5 685.98,-93.44 708.96,-83.14 787,-53.5 841.05,-32.97 906.45,-23.52 953.49,-19.17"/>
<polygon fill="midnightblue" stroke="midnightblue" points="953.88,-22.65 963.54,-18.3 953.27,-15.68 953.88,-22.65"/>
</g>
<!-- Node24 -->
<g id="node24" class="node">
<title>Node24</title>
<g id="a_node24"><a xlink:href="zwapi__session_8c.html#a2875fbfa250b7b25ecb6bc4f0b032cb8" target="_top" xlink:title="Loads the received frames from the serial device into the zwapi_session receive queue.">
<polygon fill="none" stroke="black" points="628,-327.5 628,-357.5 751,-357.5 751,-327.5 628,-327.5"/>
<text text-anchor="start" x="636" y="-345.5" font-family="Helvetica,sans-Serif" font-size="10.00">zwapi_session_enqueue</text>
<text text-anchor="middle" x="689.5" y="-334.5" font-family="Helvetica,sans-Serif" font-size="10.00">_rx_frames</text>
</a>
</g>
</g>
<!-- Node9&#45;&gt;Node24 -->
<g id="edge28" class="edge">
<title>Node9&#45;&gt;Node24</title>
<path fill="none" stroke="midnightblue" d="M567.58,-294.59C589.63,-303.32 617.57,-314.39 641.03,-323.69"/>
<polygon fill="midnightblue" stroke="midnightblue" points="639.86,-326.99 650.45,-327.42 642.44,-320.49 639.86,-326.99"/>
</g>
<!-- Node9&#45;&gt;Node29 -->
<g id="edge41" class="edge">
<title>Node9&#45;&gt;Node29</title>
<path fill="none" stroke="midnightblue" d="M567.28,-264.39C575.8,-260.17 584.52,-255.17 592,-249.5 611.32,-234.85 608.77,-223.28 628,-208.5 632.7,-204.88 637.91,-201.53 643.24,-198.46"/>
<polygon fill="midnightblue" stroke="midnightblue" points="645.12,-201.43 652.26,-193.6 641.8,-195.27 645.12,-201.43"/>
</g>
<!-- Node11 -->
<g id="node11" class="node">
<title>Node11</title>
<g id="a_node11"><a xlink:href="zwapi__serial_8c.html#a3f2b3bd848e9fe0e6e137482bed06b46" target="_top" xlink:title="Flush the serial output if using buffered output.">
<polygon fill="none" stroke="black" points="968.5,-251.5 968.5,-281.5 1065.5,-281.5 1065.5,-251.5 968.5,-251.5"/>
<text text-anchor="start" x="976.5" y="-269.5" font-family="Helvetica,sans-Serif" font-size="10.00">zwapi_serial_drain</text>
<text text-anchor="middle" x="1017" y="-258.5" font-family="Helvetica,sans-Serif" font-size="10.00">_buffer</text>
</a>
</g>
</g>
<!-- Node10&#45;&gt;Node11 -->
<g id="edge11" class="edge">
<title>Node10&#45;&gt;Node11</title>
<path fill="none" stroke="midnightblue" d="M916.02,-262.82C929.87,-263.33 944.47,-263.87 958.11,-264.37"/>
<polygon fill="midnightblue" stroke="midnightblue" points="958.2,-267.87 968.32,-264.74 958.45,-260.88 958.2,-267.87"/>
</g>
<!-- Node12 -->
<g id="node12" class="node">
<title>Node12</title>
<g id="a_node12"><a xlink:href="zwapi__serial_8c.html#a7762d0358e9f398b92edbfd6a550984a" target="_top" xlink:title="Write a byte to serial port device.">
<polygon fill="none" stroke="black" points="960.5,-175 960.5,-194 1073.5,-194 1073.5,-175 960.5,-175"/>
<text text-anchor="middle" x="1017" y="-182" font-family="Helvetica,sans-Serif" font-size="10.00">zwapi_serial_put_byte</text>
</a>
</g>
</g>
<!-- Node10&#45;&gt;Node12 -->
<g id="edge12" class="edge">
<title>Node10&#45;&gt;Node12</title>
<path fill="none" stroke="midnightblue" d="M867.37,-250.92C886.33,-238.62 921.05,-217.22 953,-203.5 958.31,-201.22 963.99,-199.1 969.67,-197.16"/>
<polygon fill="midnightblue" stroke="midnightblue" points="970.75,-200.49 979.19,-194.08 968.6,-193.83 970.75,-200.49"/>
</g>
<!-- Node16 -->
<g id="node16" class="node">
<title>Node16</title>
<g id="a_node16"><a xlink:href="zwapi__serial_8c.html#aadf3397d0bd2c1657d4b1a373599acfe" target="_top" xlink:title="Closes and re&#45;initialize the last open serial port.">
<polygon fill="none" stroke="black" points="965,-339 965,-358 1069,-358 1069,-339 965,-339"/>
<text text-anchor="middle" x="1017" y="-346" font-family="Helvetica,sans-Serif" font-size="10.00">zwapi_serial_restart</text>
</a>
</g>
</g>
<!-- Node10&#45;&gt;Node16 -->
<g id="edge16" class="edge">
<title>Node10&#45;&gt;Node16</title>
<path fill="none" stroke="midnightblue" d="M892.33,-270.01C900.66,-272.62 909.27,-275.78 917,-279.5 946.96,-293.92 977.82,-316.98 996.95,-332.42"/>
<polygon fill="midnightblue" stroke="midnightblue" points="994.92,-335.28 1004.87,-338.92 999.36,-329.87 994.92,-335.28"/>
</g>
<!-- Node10&#45;&gt;Node20 -->
<g id="edge20" class="edge">
<title>Node10&#45;&gt;Node20</title>
<path fill="none" stroke="midnightblue" d="M894.13,-250.91C915.74,-245.87 942.41,-239.66 965.29,-234.32"/>
<polygon fill="midnightblue" stroke="midnightblue" points="966.22,-237.7 975.16,-232.02 964.63,-230.88 966.22,-237.7"/>
</g>
<!-- Node13 -->
<g id="node13" class="node">
<title>Node13</title>
<g id="a_node13"><a xlink:href="zwapi__serial_8c.html#af9054824651df422bab5076d16a80fda" target="_top" xlink:title="Writes the content of a buffer to the serial port device.">
<polygon fill="none" stroke="black" points="1117,-176 1117,-195 1236,-195 1236,-176 1117,-176"/>
<text text-anchor="middle" x="1176.5" y="-183" font-family="Helvetica,sans-Serif" font-size="10.00">zwapi_serial_put_buffer</text>
</a>
</g>
</g>
<!-- Node12&#45;&gt;Node13 -->
<g id="edge13" class="edge">
<title>Node12&#45;&gt;Node13</title>
<path fill="none" stroke="midnightblue" d="M1073.53,-184.85C1084.24,-184.92 1095.59,-184.99 1106.66,-185.06"/>
<polygon fill="midnightblue" stroke="midnightblue" points="1106.71,-188.56 1116.74,-185.13 1106.76,-181.56 1106.71,-188.56"/>
</g>
<!-- Node14 -->
<g id="node14" class="node">
<title>Node14</title>
<g id="a_node14"><a xlink:href="zwapi__serial_8c.html#a0accbbf7ddb7aeab10f5df1fe3df6642" target="_top" xlink:title=" ">
<polygon fill="none" stroke="black" points="1272,-133 1272,-152 1412,-152 1412,-133 1272,-133"/>
<text text-anchor="middle" x="1342" y="-140" font-family="Helvetica,sans-Serif" font-size="10.00">zwapi_serial_log_timestamp</text>
</a>
</g>
</g>
<!-- Node13&#45;&gt;Node14 -->
<g id="edge14" class="edge">
<title>Node13&#45;&gt;Node14</title>
<path fill="none" stroke="midnightblue" d="M1213.79,-175.96C1237.71,-169.67 1269.24,-161.37 1294.93,-154.62"/>
<polygon fill="midnightblue" stroke="midnightblue" points="1296.03,-157.94 1304.82,-152.02 1294.25,-151.18 1296.03,-157.94"/>
</g>
<!-- Node15 -->
<g id="node15" class="node">
<title>Node15</title>
<g id="a_node15"><a xlink:href="zwapi__serial_8c.html#abf18afb71e14daaf65d937149ef1639f" target="_top" xlink:title="Test if a is less than b + ms.">
<polygon fill="none" stroke="black" points="1288.5,-171.5 1288.5,-201.5 1395.5,-201.5 1395.5,-171.5 1288.5,-171.5"/>
<text text-anchor="start" x="1296.5" y="-189.5" font-family="Helvetica,sans-Serif" font-size="10.00">zwapi_serial_timeval</text>
<text text-anchor="middle" x="1342" y="-178.5" font-family="Helvetica,sans-Serif" font-size="10.00">_a_lt_b_milis</text>
</a>
</g>
</g>
<!-- Node13&#45;&gt;Node15 -->
<g id="edge15" class="edge">
<title>Node13&#45;&gt;Node15</title>
<path fill="none" stroke="midnightblue" d="M1236.07,-185.86C1249.65,-185.94 1264.16,-186.03 1277.92,-186.11"/>
<polygon fill="midnightblue" stroke="midnightblue" points="1278.26,-189.62 1288.28,-186.18 1278.3,-182.62 1278.26,-189.62"/>
</g>
<!-- Node17 -->
<g id="node17" class="node">
<title>Node17</title>
<g id="a_node17"><a xlink:href="zwapi__serial_8c.html#aae586785021ac9a605cd77651429f0c9" target="_top" xlink:title="De&#45;Initialize the serial port.">
<polygon fill="none" stroke="black" points="1127,-358 1127,-377 1226,-377 1226,-358 1127,-358"/>
<text text-anchor="middle" x="1176.5" y="-365" font-family="Helvetica,sans-Serif" font-size="10.00">zwapi_serial_close</text>
</a>
</g>
</g>
<!-- Node16&#45;&gt;Node17 -->
<g id="edge17" class="edge">
<title>Node16&#45;&gt;Node17</title>
<path fill="none" stroke="midnightblue" d="M1069.14,-354.67C1084.31,-356.5 1101.06,-358.52 1116.68,-360.4"/>
<polygon fill="midnightblue" stroke="midnightblue" points="1116.42,-363.9 1126.76,-361.62 1117.25,-356.95 1116.42,-363.9"/>
</g>
<!-- Node18 -->
<g id="node18" class="node">
<title>Node18</title>
<g id="a_node18"><a xlink:href="zwapi__serial_8c.html#a07b09de97f4932d882fc77e191c44638" target="_top" xlink:title="Initialize the serial port to 115200 BAUD 8N1.">
<polygon fill="none" stroke="black" points="1132,-320 1132,-339 1221,-339 1221,-320 1132,-320"/>
<text text-anchor="middle" x="1176.5" y="-327" font-family="Helvetica,sans-Serif" font-size="10.00">zwapi_serial_init</text>
</a>
</g>
</g>
<!-- Node16&#45;&gt;Node18 -->
<g id="edge18" class="edge">
<title>Node16&#45;&gt;Node18</title>
<path fill="none" stroke="midnightblue" d="M1069.14,-342.33C1085.87,-340.31 1104.51,-338.06 1121.46,-336.02"/>
<polygon fill="midnightblue" stroke="midnightblue" points="1122.25,-339.45 1131.76,-334.78 1121.41,-332.5 1122.25,-339.45"/>
</g>
<!-- Node19 -->
<g id="node19" class="node">
<title>Node19</title>
<g id="a_node19"><a xlink:href="zwapi__serial_8c.html#aefeac5909b0bf6411db1492f69c3bc68" target="_top" xlink:title=" ">
<polygon fill="none" stroke="black" points="1282.5,-320 1282.5,-339 1401.5,-339 1401.5,-320 1282.5,-320"/>
<text text-anchor="middle" x="1342" y="-327" font-family="Helvetica,sans-Serif" font-size="10.00">zwapi_open_serial_port</text>
</a>
</g>
</g>
<!-- Node18&#45;&gt;Node19 -->
<g id="edge19" class="edge">
<title>Node18&#45;&gt;Node19</title>
<path fill="none" stroke="midnightblue" d="M1221.31,-329.5C1236.97,-329.5 1255.01,-329.5 1272.26,-329.5"/>
<polygon fill="midnightblue" stroke="midnightblue" points="1272.3,-333 1282.3,-329.5 1272.3,-326 1272.3,-333"/>
</g>
<!-- Node21&#45;&gt;Node11 -->
<g id="edge23" class="edge">
<title>Node21&#45;&gt;Node11</title>
<path fill="none" stroke="midnightblue" d="M901.46,-288.99C919.36,-285.47 939.82,-281.46 958.44,-277.8"/>
<polygon fill="midnightblue" stroke="midnightblue" points="959.15,-281.23 968.28,-275.87 957.8,-274.36 959.15,-281.23"/>
</g>
<!-- Node21&#45;&gt;Node13 -->
<g id="edge24" class="edge">
<title>Node21&#45;&gt;Node13</title>
<path fill="none" stroke="midnightblue" d="M906.42,-307.98C954.44,-313.95 1025.72,-316.29 1081,-290.5 1120.44,-272.1 1150.61,-228.76 1165.41,-203.9"/>
<polygon fill="midnightblue" stroke="midnightblue" points="1168.53,-205.49 1170.47,-195.07 1162.46,-202 1168.53,-205.49"/>
</g>
<!-- Node21&#45;&gt;Node20 -->
<g id="edge25" class="edge">
<title>Node21&#45;&gt;Node20</title>
<path fill="none" stroke="midnightblue" d="M896.67,-288.9C903.74,-286.41 910.78,-283.32 917,-279.5 936.83,-267.33 933.2,-253.71 953,-241.5 956.4,-239.4 960.05,-237.52 963.82,-235.84"/>
<polygon fill="midnightblue" stroke="midnightblue" points="965.34,-239 973.34,-232.05 962.76,-232.49 965.34,-239"/>
</g>
<!-- Node22 -->
<g id="node22" class="node">
<title>Node22</title>
<g id="a_node22"><a xlink:href="zwapi__connection_8c.html#a96d24d537c5b8d6aa0aa6a7638ba2f09" target="_top" xlink:title=" ">
<polygon fill="none" stroke="black" points="959.5,-377 959.5,-396 1074.5,-396 1074.5,-377 959.5,-377"/>
<text text-anchor="middle" x="1017" y="-384" font-family="Helvetica,sans-Serif" font-size="10.00">zwapi_frame_to_string</text>
</a>
</g>
</g>
<!-- Node21&#45;&gt;Node22 -->
<g id="edge22" class="edge">
<title>Node21&#45;&gt;Node22</title>
<path fill="none" stroke="midnightblue" d="M864.27,-308.05C882.06,-322.7 918.22,-350.76 953,-367.5 957.64,-369.73 962.6,-371.77 967.63,-373.61"/>
<polygon fill="midnightblue" stroke="midnightblue" points="966.71,-376.99 977.3,-376.9 968.96,-370.37 966.71,-376.99"/>
</g>
<!-- Node24&#45;&gt;Node6 -->
<g id="edge40" class="edge">
<title>Node24&#45;&gt;Node6</title>
<path fill="none" stroke="midnightblue" d="M721.34,-357.65C730.86,-362.37 741.38,-367.62 751,-372.5 771.6,-382.96 794.46,-394.83 813.13,-404.59"/>
<polygon fill="midnightblue" stroke="midnightblue" points="811.71,-407.8 822.19,-409.33 814.96,-401.6 811.71,-407.8"/>
</g>
<!-- Node25 -->
<g id="node25" class="node">
<title>Node25</title>
<g id="a_node25"><a xlink:href="zwapi__connection_8c.html#a1e45c6c9695b5e7b415adfad40080720" target="_top" xlink:title="Parses serial data sent from the Z&#45;Wave module to the serial port. Should be frequently called by mai...">
<polygon fill="none" stroke="black" points="787,-137 787,-156 917,-156 917,-137 787,-137"/>
<text text-anchor="middle" x="852" y="-144" font-family="Helvetica,sans-Serif" font-size="10.00">zwapi_connection_refresh</text>
</a>
</g>
</g>
<!-- Node24&#45;&gt;Node25 -->
<g id="edge29" class="edge">
<title>Node24&#45;&gt;Node25</title>
<path fill="none" stroke="midnightblue" d="M702.83,-327.45C731.91,-291.93 804.72,-203.01 836.16,-164.62"/>
<polygon fill="midnightblue" stroke="midnightblue" points="839.25,-166.37 842.88,-156.42 833.84,-161.93 839.25,-166.37"/>
</g>
<!-- Node25&#45;&gt;Node11 -->
<g id="edge31" class="edge">
<title>Node25&#45;&gt;Node11</title>
<path fill="none" stroke="midnightblue" d="M860.87,-156.11C876.61,-174.82 913.86,-216.48 953,-241.5 955.97,-243.4 959.1,-245.19 962.32,-246.88"/>
<polygon fill="midnightblue" stroke="midnightblue" points="961.03,-250.15 971.56,-251.37 964.09,-243.85 961.03,-250.15"/>
</g>
<!-- Node25&#45;&gt;Node12 -->
<g id="edge38" class="edge">
<title>Node25&#45;&gt;Node12</title>
<path fill="none" stroke="midnightblue" d="M894.13,-156.09C915.74,-161.13 942.41,-167.34 965.29,-172.68"/>
<polygon fill="midnightblue" stroke="midnightblue" points="964.63,-176.12 975.16,-174.98 966.22,-169.3 964.63,-176.12"/>
</g>
<!-- Node25&#45;&gt;Node20 -->
<g id="edge39" class="edge">
<title>Node25&#45;&gt;Node20</title>
<path fill="none" stroke="midnightblue" d="M885.7,-156.04C896.1,-159.78 907.39,-164.6 917,-170.5 935.5,-181.85 934.14,-192.76 953,-203.5 956.85,-205.69 960.97,-207.65 965.2,-209.4"/>
<polygon fill="midnightblue" stroke="midnightblue" points="963.97,-212.68 974.56,-212.91 966.43,-206.13 963.97,-212.68"/>
</g>
<!-- Node25&#45;&gt;Node23 -->
<g id="edge30" class="edge">
<title>Node25&#45;&gt;Node23</title>
<path fill="none" stroke="midnightblue" d="M875.55,-136.96C888.88,-130.46 905.36,-120.79 917,-108.5 940.78,-83.38 927.15,-62.49 953,-39.5 954.32,-38.32 955.71,-37.2 957.15,-36.13"/>
<polygon fill="midnightblue" stroke="midnightblue" points="959.31,-38.9 965.86,-30.58 955.55,-33 959.31,-38.9"/>
</g>
<!-- Node26 -->
<g id="node26" class="node">
<title>Node26</title>
<g id="a_node26"><a xlink:href="zwapi__serial_8c.html#a538134f9fdbb1ce052667b3a041357bd" target="_top" xlink:title="Reads the output of the serial port device and stores the content in a buffer.">
<polygon fill="none" stroke="black" points="1117,-136 1117,-155 1236,-155 1236,-136 1117,-136"/>
<text text-anchor="middle" x="1176.5" y="-143" font-family="Helvetica,sans-Serif" font-size="10.00">zwapi_serial_get_buffer</text>
</a>
</g>
</g>
<!-- Node25&#45;&gt;Node26 -->
<g id="edge32" class="edge">
<title>Node25&#45;&gt;Node26</title>
<path fill="none" stroke="midnightblue" d="M917.1,-146.3C971.92,-146.13 1050.62,-145.89 1106.74,-145.71"/>
<polygon fill="midnightblue" stroke="midnightblue" points="1106.96,-149.21 1116.95,-145.68 1106.93,-142.21 1106.96,-149.21"/>
</g>
<!-- Node27 -->
<g id="node27" class="node">
<title>Node27</title>
<g id="a_node27"><a xlink:href="zwapi__serial_8c.html#abb082b1e7e727203e3ca5fbeb41f7c2b" target="_top" xlink:title="Reads a byte from the serial port device.">
<polygon fill="none" stroke="black" points="960.5,-99 960.5,-118 1073.5,-118 1073.5,-99 960.5,-99"/>
<text text-anchor="middle" x="1017" y="-106" font-family="Helvetica,sans-Serif" font-size="10.00">zwapi_serial_get_byte</text>
</a>
</g>
</g>
<!-- Node25&#45;&gt;Node27 -->
<g id="edge35" class="edge">
<title>Node25&#45;&gt;Node27</title>
<path fill="none" stroke="midnightblue" d="M894.13,-136.91C915.74,-131.87 942.41,-125.66 965.29,-120.32"/>
<polygon fill="midnightblue" stroke="midnightblue" points="966.22,-123.7 975.16,-118.02 964.63,-116.88 966.22,-123.7"/>
</g>
<!-- Node28 -->
<g id="node28" class="node">
<title>Node28</title>
<g id="a_node28"><a xlink:href="zwapi__serial_8c.html#a9a952dc2b34d92960246f6dc4e7d58f7" target="_top" xlink:title="Check the file descriptor for the serial device is available for I/O operations.">
<polygon fill="none" stroke="black" points="966.5,-49.5 966.5,-79.5 1067.5,-79.5 1067.5,-49.5 966.5,-49.5"/>
<text text-anchor="start" x="974.5" y="-67.5" font-family="Helvetica,sans-Serif" font-size="10.00">zwapi_serial_is_file</text>
<text text-anchor="middle" x="1017" y="-56.5" font-family="Helvetica,sans-Serif" font-size="10.00">_available</text>
</a>
</g>
</g>
<!-- Node25&#45;&gt;Node28 -->
<g id="edge37" class="edge">
<title>Node25&#45;&gt;Node28</title>
<path fill="none" stroke="midnightblue" d="M869.13,-136.94C892.98,-122.86 936.61,-97.38 953,-89.5 957.28,-87.44 961.78,-85.41 966.32,-83.45"/>
<polygon fill="midnightblue" stroke="midnightblue" points="967.78,-86.64 975.64,-79.54 965.07,-80.18 967.78,-86.64"/>
</g>
<!-- Node26&#45;&gt;Node14 -->
<g id="edge33" class="edge">
<title>Node26&#45;&gt;Node14</title>
<path fill="none" stroke="midnightblue" d="M1236.07,-144.43C1244.43,-144.27 1253.15,-144.11 1261.82,-143.95"/>
<polygon fill="midnightblue" stroke="midnightblue" points="1262.04,-147.45 1271.97,-143.77 1261.91,-140.45 1262.04,-147.45"/>
</g>
<!-- Node26&#45;&gt;Node15 -->
<g id="edge34" class="edge">
<title>Node26&#45;&gt;Node15</title>
<path fill="none" stroke="midnightblue" d="M1215.42,-155.01C1234.15,-159.71 1257.24,-165.5 1278.49,-170.82"/>
<polygon fill="midnightblue" stroke="midnightblue" points="1277.87,-174.28 1288.42,-173.32 1279.58,-167.49 1277.87,-174.28"/>
</g>
<!-- Node27&#45;&gt;Node26 -->
<g id="edge36" class="edge">
<title>Node27&#45;&gt;Node26</title>
<path fill="none" stroke="midnightblue" d="M1058.56,-118.03C1078.78,-122.78 1103.44,-128.57 1124.88,-133.61"/>
<polygon fill="midnightblue" stroke="midnightblue" points="1124.27,-137.06 1134.8,-135.94 1125.87,-130.25 1124.27,-137.06"/>
</g>
<!-- Node29&#45;&gt;Node20 -->
<g id="edge44" class="edge">
<title>Node29&#45;&gt;Node20</title>
<path fill="none" stroke="midnightblue" d="M741.79,-185.16C787.71,-191.16 856.87,-200.27 917,-208.5 927.86,-209.99 939.39,-211.59 950.6,-213.17"/>
<polygon fill="midnightblue" stroke="midnightblue" points="950.38,-216.67 960.77,-214.6 951.36,-209.74 950.38,-216.67"/>
</g>
<!-- Node29&#45;&gt;Node23 -->
<g id="edge43" class="edge">
<title>Node29&#45;&gt;Node23</title>
<path fill="none" stroke="midnightblue" d="M716.42,-163.4C762.92,-136.62 863.99,-79.84 953,-39.5 956.84,-37.76 960.84,-36.04 964.89,-34.36"/>
<polygon fill="midnightblue" stroke="midnightblue" points="966.4,-37.52 974.36,-30.53 963.77,-31.03 966.4,-37.52"/>
</g>
<!-- Node29&#45;&gt;Node25 -->
<g id="edge42" class="edge">
<title>Node29&#45;&gt;Node25</title>
<path fill="none" stroke="midnightblue" d="M741.72,-168.29C758.06,-165.03 776.25,-161.4 793.02,-158.06"/>
<polygon fill="midnightblue" stroke="midnightblue" points="794.14,-161.41 803.26,-156.02 792.77,-154.54 794.14,-161.41"/>
</g>
<!-- Node32 -->
<g id="node32" class="node">
<title>Node32</title>
<g id="a_node32"><a xlink:href="group__ZWAPI__BASIS.html#ga956fbfe63267baacd31dd20aa1c444d1" target="_top" xlink:title="Get the current node ID basetype setting.">
<polygon fill="none" stroke="black" points="280.5,-226 280.5,-245 425.5,-245 425.5,-226 280.5,-226"/>
<text text-anchor="middle" x="353" y="-233" font-family="Helvetica,sans-Serif" font-size="10.00">zwapi_get_node_id_basetype</text>
</a>
</g>
</g>
<!-- Node31&#45;&gt;Node32 -->
<g id="edge49" class="edge">
<title>Node31&#45;&gt;Node32</title>
<path fill="none" stroke="midnightblue" d="M236.7,-235.5C247.41,-235.5 258.92,-235.5 270.38,-235.5"/>
<polygon fill="midnightblue" stroke="midnightblue" points="270.4,-239 280.4,-235.5 270.4,-232 270.4,-239"/>
</g>
</g>
</svg>
