<?xml version="1.0" encoding="UTF-8" standalone="no"?>
<!DOCTYPE svg PUBLIC "-//W3C//DTD SVG 1.1//EN"
 "http://www.w3.org/Graphics/SVG/1.1/DTD/svg11.dtd">
<!-- Generated by graphviz version 2.43.0 (0)
 -->
<!-- Title: zwave_command_class_supervision_init Pages: 1 -->
<svg width="1660pt" height="494pt"
 viewBox="0.00 0.00 1660.00 494.00" xmlns="http://www.w3.org/2000/svg" xmlns:xlink="http://www.w3.org/1999/xlink">
<g id="graph0" class="graph" transform="scale(1 1) rotate(0) translate(4 490)">
<title>zwave_command_class_supervision_init</title>
<!-- Node1 -->
<g id="node1" class="node">
<title>Node1</title>
<g id="a_node1"><a xlink:title="Setup fixture for the Supervision Command Class.">
<polygon fill="#bfbfbf" stroke="black" points="0,-176.5 0,-206.5 122,-206.5 122,-176.5 0,-176.5"/>
<text text-anchor="start" x="8" y="-194.5" font-family="Helvetica,sans-Serif" font-size="10.00">zwave_command_class</text>
<text text-anchor="middle" x="61" y="-183.5" font-family="Helvetica,sans-Serif" font-size="10.00">_supervision_init</text>
</a>
</g>
</g>
<!-- Node2 -->
<g id="node2" class="node">
<title>Node2</title>
<g id="a_node2"><a xlink:href="zwave__command__class__supervision_8c.html#a81051603777138c5a8aa82e61c1a131b" target="_top" xlink:title=" ">
<polygon fill="none" stroke="black" points="162,-317 162,-358 284,-358 284,-317 162,-317"/>
<text text-anchor="start" x="170" y="-346" font-family="Helvetica,sans-Serif" font-size="10.00">zwave_command_class</text>
<text text-anchor="start" x="170" y="-335" font-family="Helvetica,sans-Serif" font-size="10.00">_supervision_control</text>
<text text-anchor="middle" x="223" y="-324" font-family="Helvetica,sans-Serif" font-size="10.00">_handler</text>
</a>
</g>
</g>
<!-- Node1&#45;&gt;Node2 -->
<g id="edge1" class="edge">
<title>Node1&#45;&gt;Node2</title>
<path fill="none" stroke="midnightblue" d="M78.52,-206.57C105.2,-230.92 158.19,-279.27 191.76,-309.91"/>
<polygon fill="midnightblue" stroke="midnightblue" points="189.7,-312.76 199.44,-316.92 194.42,-307.59 189.7,-312.76"/>
</g>
<!-- Node9 -->
<g id="node9" class="node">
<title>Node9</title>
<g id="a_node9"><a xlink:href="zwave__command__class__supervision_8c.html#a5cc064447d9d4b68e4e121b2298d3876" target="_top" xlink:title=" ">
<polygon fill="none" stroke="black" points="161,-201 161,-242 285,-242 285,-201 161,-201"/>
<text text-anchor="start" x="169" y="-230" font-family="Helvetica,sans-Serif" font-size="10.00">zwave_command_class</text>
<text text-anchor="start" x="169" y="-219" font-family="Helvetica,sans-Serif" font-size="10.00">_supervision_on_version</text>
<text text-anchor="middle" x="223" y="-208" font-family="Helvetica,sans-Serif" font-size="10.00">_attribute_update</text>
</a>
</g>
</g>
<!-- Node1&#45;&gt;Node9 -->
<g id="edge8" class="edge">
<title>Node1&#45;&gt;Node9</title>
<path fill="none" stroke="midnightblue" d="M122.03,-202.76C131.44,-204.52 141.25,-206.36 150.88,-208.17"/>
<polygon fill="midnightblue" stroke="midnightblue" points="150.36,-211.63 160.83,-210.03 151.65,-204.75 150.36,-211.63"/>
</g>
<!-- Node10 -->
<g id="node10" class="node">
<title>Node10</title>
<g id="a_node10"><a xlink:href="group__zwave__command__class__supervision__handler.html#ga7922aa17b16e759a72874c995c957071" target="_top" xlink:title="Handle incoming Supervision encapsulated commands.">
<polygon fill="none" stroke="black" points="162,-141 162,-182 284,-182 284,-141 162,-141"/>
<text text-anchor="start" x="170" y="-170" font-family="Helvetica,sans-Serif" font-size="10.00">zwave_command_class</text>
<text text-anchor="start" x="170" y="-159" font-family="Helvetica,sans-Serif" font-size="10.00">_supervision_support</text>
<text text-anchor="middle" x="223" y="-148" font-family="Helvetica,sans-Serif" font-size="10.00">_handler</text>
</a>
</g>
</g>
<!-- Node1&#45;&gt;Node10 -->
<g id="edge9" class="edge">
<title>Node1&#45;&gt;Node10</title>
<path fill="none" stroke="midnightblue" d="M122.03,-180.24C131.81,-178.41 142.01,-176.5 152,-174.62"/>
<polygon fill="midnightblue" stroke="midnightblue" points="152.71,-178.05 161.9,-172.77 151.42,-171.17 152.71,-178.05"/>
</g>
<!-- Node28 -->
<g id="node28" class="node">
<title>Node28</title>
<g id="a_node28"><a xlink:href="group__zwave__command__handler.html#gae1313215c0459775bb126a2ba636eb2f" target="_top" xlink:title="Register a command class handler.">
<polygon fill="none" stroke="black" points="158,-91.5 158,-121.5 288,-121.5 288,-91.5 158,-91.5"/>
<text text-anchor="start" x="166" y="-109.5" font-family="Helvetica,sans-Serif" font-size="10.00">zwave_command_handler</text>
<text text-anchor="middle" x="223" y="-98.5" font-family="Helvetica,sans-Serif" font-size="10.00">_register_handler</text>
</a>
</g>
</g>
<!-- Node1&#45;&gt;Node28 -->
<g id="edge29" class="edge">
<title>Node1&#45;&gt;Node28</title>
<path fill="none" stroke="midnightblue" d="M83.44,-176.48C102.47,-163.55 131.3,-144.91 158,-131.5 162.07,-129.46 166.34,-127.47 170.68,-125.56"/>
<polygon fill="midnightblue" stroke="midnightblue" points="172.35,-128.65 180.19,-121.53 169.62,-122.21 172.35,-128.65"/>
</g>
<!-- Node3 -->
<g id="node3" class="node">
<title>Node3</title>
<g id="a_node3"><a xlink:href="zwave__command__class__supervision_8c.html#a033177d7c253b3c99982f2a591dd1180" target="_top" xlink:title=" ">
<polygon fill="none" stroke="black" points="324,-318 324,-359 446,-359 446,-318 324,-318"/>
<text text-anchor="start" x="332" y="-347" font-family="Helvetica,sans-Serif" font-size="10.00">zwave_command_class</text>
<text text-anchor="start" x="332" y="-336" font-family="Helvetica,sans-Serif" font-size="10.00">_supervision_handle</text>
<text text-anchor="middle" x="385" y="-325" font-family="Helvetica,sans-Serif" font-size="10.00">_supervision_report</text>
</a>
</g>
</g>
<!-- Node2&#45;&gt;Node3 -->
<g id="edge2" class="edge">
<title>Node2&#45;&gt;Node3</title>
<path fill="none" stroke="midnightblue" d="M284.03,-337.88C293.71,-337.94 303.8,-338 313.69,-338.06"/>
<polygon fill="midnightblue" stroke="midnightblue" points="313.87,-341.56 323.9,-338.12 313.92,-334.56 313.87,-341.56"/>
</g>
<!-- Node4 -->
<g id="node4" class="node">
<title>Node4</title>
<g id="a_node4"><a xlink:href="group__zwave__command__class__supervision__process.html#ga76afa571a1b7e0f43fd6e417266e47a0" target="_top" xlink:title="Closes a supervised session.">
<polygon fill="none" stroke="black" points="482,-455.5 482,-485.5 621,-485.5 621,-455.5 482,-455.5"/>
<text text-anchor="start" x="490" y="-473.5" font-family="Helvetica,sans-Serif" font-size="10.00">zwave_command_class</text>
<text text-anchor="middle" x="551.5" y="-462.5" font-family="Helvetica,sans-Serif" font-size="10.00">_supervision_close_session</text>
</a>
</g>
</g>
<!-- Node3&#45;&gt;Node4 -->
<g id="edge3" class="edge">
<title>Node3&#45;&gt;Node4</title>
<path fill="none" stroke="midnightblue" d="M399.52,-359.26C416.23,-383.39 446.78,-422.89 482,-446.5 484.28,-448.03 486.66,-449.47 489.12,-450.82"/>
<polygon fill="midnightblue" stroke="midnightblue" points="487.76,-454.06 498.27,-455.39 490.88,-447.79 487.76,-454.06"/>
</g>
<!-- Node5 -->
<g id="node5" class="node">
<title>Node5</title>
<g id="a_node5"><a xlink:href="group__zwave__command__class__supervision__process.html#ga82915680357c49b850517be161425e93" target="_top" xlink:title="Retrieves a supervised session based on its ID.">
<polygon fill="none" stroke="black" points="486,-406.5 486,-436.5 617,-436.5 617,-406.5 486,-406.5"/>
<text text-anchor="start" x="494" y="-424.5" font-family="Helvetica,sans-Serif" font-size="10.00">zwave_command_class</text>
<text text-anchor="middle" x="551.5" y="-413.5" font-family="Helvetica,sans-Serif" font-size="10.00">_supervision_find_session</text>
</a>
</g>
</g>
<!-- Node3&#45;&gt;Node5 -->
<g id="edge4" class="edge">
<title>Node3&#45;&gt;Node5</title>
<path fill="none" stroke="midnightblue" d="M416.71,-359.15C435.15,-371.01 459.35,-385.65 482,-396.5 486.52,-398.67 491.29,-400.76 496.11,-402.75"/>
<polygon fill="midnightblue" stroke="midnightblue" points="494.81,-406.01 505.4,-406.45 497.4,-399.5 494.81,-406.01"/>
</g>
<!-- Node6 -->
<g id="node6" class="node">
<title>Node6</title>
<g id="a_node6"><a xlink:href="group__zwave__command__class__supervision__process.html#ga91640ed2880586dce469b65e3a888355" target="_top" xlink:title=" ">
<polygon fill="none" stroke="black" points="486,-346 486,-387 617,-387 617,-346 486,-346"/>
<text text-anchor="start" x="494" y="-375" font-family="Helvetica,sans-Serif" font-size="10.00">zwave_command_class</text>
<text text-anchor="start" x="494" y="-364" font-family="Helvetica,sans-Serif" font-size="10.00">_supervision_find_session</text>
<text text-anchor="middle" x="551.5" y="-353" font-family="Helvetica,sans-Serif" font-size="10.00">_by_unique_id</text>
</a>
</g>
</g>
<!-- Node3&#45;&gt;Node6 -->
<g id="edge5" class="edge">
<title>Node3&#45;&gt;Node6</title>
<path fill="none" stroke="midnightblue" d="M446.32,-348.77C455.85,-350.39 465.8,-352.08 475.61,-353.75"/>
<polygon fill="midnightblue" stroke="midnightblue" points="475.31,-357.25 485.76,-355.48 476.49,-350.35 475.31,-357.25"/>
</g>
<!-- Node7 -->
<g id="node7" class="node">
<title>Node7</title>
<g id="a_node7"><a xlink:href="group__zwave__command__class__supervision__process.html#gafcf27d707708434ed099675c564a4b6c" target="_top" xlink:title="Logs the state of the Supervision process, with sessions and timers.">
<polygon fill="none" stroke="black" points="487,-296.5 487,-326.5 616,-326.5 616,-296.5 487,-296.5"/>
<text text-anchor="start" x="495" y="-314.5" font-family="Helvetica,sans-Serif" font-size="10.00">zwave_command_class</text>
<text text-anchor="middle" x="551.5" y="-303.5" font-family="Helvetica,sans-Serif" font-size="10.00">_supervision_process_log</text>
</a>
</g>
</g>
<!-- Node3&#45;&gt;Node7 -->
<g id="edge6" class="edge">
<title>Node3&#45;&gt;Node7</title>
<path fill="none" stroke="midnightblue" d="M446.32,-328.6C456.22,-326.97 466.58,-325.27 476.77,-323.6"/>
<polygon fill="midnightblue" stroke="midnightblue" points="477.57,-327.02 486.87,-321.94 476.44,-320.11 477.57,-327.02"/>
</g>
<!-- Node8 -->
<g id="node8" class="node">
<title>Node8</title>
<g id="a_node8"><a xlink:href="group__command__classes__utils.html#gacb7b8e51dfc36e8bac2676255441bf26" target="_top" xlink:title="Converts a duration byte encoded for a Z&#45;Wave command class and returns its corresponding value in cl...">
<polygon fill="none" stroke="black" points="490.5,-258 490.5,-277 612.5,-277 612.5,-258 490.5,-258"/>
<text text-anchor="middle" x="551.5" y="-265" font-family="Helvetica,sans-Serif" font-size="10.00">zwave_duration_to_time</text>
</a>
</g>
</g>
<!-- Node3&#45;&gt;Node8 -->
<g id="edge7" class="edge">
<title>Node3&#45;&gt;Node8</title>
<path fill="none" stroke="midnightblue" d="M420.73,-317.84C438.62,-307.77 461.02,-296.03 482,-287.5 488.71,-284.77 495.92,-282.25 503.06,-279.98"/>
<polygon fill="midnightblue" stroke="midnightblue" points="504.15,-283.3 512.7,-277.04 502.11,-276.61 504.15,-283.3"/>
</g>
<!-- Node11 -->
<g id="node11" class="node">
<title>Node11</title>
<g id="a_node11"><a xlink:href="zwave__command__class__supervision_8c.html#a85468b28f17726729253b3e4aa3808d1" target="_top" xlink:title=" ">
<polygon fill="none" stroke="black" points="324,-138 324,-179 446,-179 446,-138 324,-138"/>
<text text-anchor="start" x="332" y="-167" font-family="Helvetica,sans-Serif" font-size="10.00">zwave_command_class</text>
<text text-anchor="start" x="332" y="-156" font-family="Helvetica,sans-Serif" font-size="10.00">_supervision_handle</text>
<text text-anchor="middle" x="385" y="-145" font-family="Helvetica,sans-Serif" font-size="10.00">_supervision_get</text>
</a>
</g>
</g>
<!-- Node10&#45;&gt;Node11 -->
<g id="edge10" class="edge">
<title>Node10&#45;&gt;Node11</title>
<path fill="none" stroke="midnightblue" d="M284.03,-160.37C293.71,-160.19 303.8,-160 313.69,-159.82"/>
<polygon fill="midnightblue" stroke="midnightblue" points="313.96,-163.31 323.9,-159.63 313.83,-156.32 313.96,-163.31"/>
</g>
<!-- Node12 -->
<g id="node12" class="node">
<title>Node12</title>
<g id="a_node12"><a xlink:href="group__command__classes__utils.html#ga180f34e00efb603c228dfd62eb14d316" target="_top" xlink:title="Find the Z&#45;Wave NodeID Node attribute based on a const zwave_controller_connection_info_t object.">
<polygon fill="none" stroke="black" points="855,-164.5 855,-194.5 977,-194.5 977,-164.5 855,-164.5"/>
<text text-anchor="start" x="863" y="-182.5" font-family="Helvetica,sans-Serif" font-size="10.00">zwave_command_class</text>
<text text-anchor="middle" x="916" y="-171.5" font-family="Helvetica,sans-Serif" font-size="10.00">_get_node_id_node</text>
</a>
</g>
</g>
<!-- Node11&#45;&gt;Node12 -->
<g id="edge11" class="edge">
<title>Node11&#45;&gt;Node12</title>
<path fill="none" stroke="midnightblue" d="M415.1,-179.22C433.36,-190.93 457.93,-204.4 482,-210.5 625.03,-246.75 668.08,-232.39 814,-210.5 831.27,-207.91 849.67,-202.96 865.97,-197.76"/>
<polygon fill="midnightblue" stroke="midnightblue" points="867.42,-200.96 875.82,-194.51 865.22,-194.32 867.42,-200.96"/>
</g>
<!-- Node18 -->
<g id="node18" class="node">
<title>Node18</title>
<g id="a_node18"><a xlink:href="group__command__classes__utils.html#ga9a9c99943bf863fde841149699d15593" target="_top" xlink:title="function to send report frames with default tx options.">
<polygon fill="none" stroke="black" points="490.5,-170.5 490.5,-200.5 612.5,-200.5 612.5,-170.5 490.5,-170.5"/>
<text text-anchor="start" x="498.5" y="-188.5" font-family="Helvetica,sans-Serif" font-size="10.00">zwave_command_class</text>
<text text-anchor="middle" x="551.5" y="-177.5" font-family="Helvetica,sans-Serif" font-size="10.00">_send_report</text>
</a>
</g>
</g>
<!-- Node11&#45;&gt;Node18 -->
<g id="edge17" class="edge">
<title>Node11&#45;&gt;Node18</title>
<path fill="none" stroke="midnightblue" d="M446.32,-168.4C457.45,-170.23 469.17,-172.15 480.56,-174.02"/>
<polygon fill="midnightblue" stroke="midnightblue" points="480.03,-177.48 490.46,-175.65 481.16,-170.57 480.03,-177.48"/>
</g>
<!-- Node21 -->
<g id="node21" class="node">
<title>Node21</title>
<g id="a_node21"><a xlink:href="group__zwave__command__class__supervision__handler.html#ga1582379f42a7a36fb7c6c2c37a2a4cca" target="_top" xlink:title="Cancel a request that a node is &quot;Waked&quot; Up on demand at the next communication.">
<polygon fill="none" stroke="black" points="489.5,-110 489.5,-151 613.5,-151 613.5,-110 489.5,-110"/>
<text text-anchor="start" x="497.5" y="-139" font-family="Helvetica,sans-Serif" font-size="10.00">zwave_command_class</text>
<text text-anchor="start" x="497.5" y="-128" font-family="Helvetica,sans-Serif" font-size="10.00">_supervision_stop_wake</text>
<text text-anchor="middle" x="551.5" y="-117" font-family="Helvetica,sans-Serif" font-size="10.00">_on_demand</text>
</a>
</g>
</g>
<!-- Node11&#45;&gt;Node21 -->
<g id="edge20" class="edge">
<title>Node11&#45;&gt;Node21</title>
<path fill="none" stroke="midnightblue" d="M446.32,-148.23C457.06,-146.4 468.34,-144.48 479.35,-142.61"/>
<polygon fill="midnightblue" stroke="midnightblue" points="480.09,-146.04 489.36,-140.91 478.92,-139.13 480.09,-146.04"/>
</g>
<!-- Node22 -->
<g id="node22" class="node">
<title>Node22</title>
<g id="a_node22"><a xlink:href="group__zwave__command__class__wake__up.html#ga3f21bf48988be7063716ec5cbddd37fa" target="_top" xlink:title="Verifies if a Node supports the Wake Up on demand functionality.">
<polygon fill="none" stroke="black" points="485.5,-50 485.5,-91 617.5,-91 617.5,-50 485.5,-50"/>
<text text-anchor="start" x="493.5" y="-79" font-family="Helvetica,sans-Serif" font-size="10.00">zwave_command_class</text>
<text text-anchor="start" x="493.5" y="-68" font-family="Helvetica,sans-Serif" font-size="10.00">_wake_up_supports_wake</text>
<text text-anchor="middle" x="551.5" y="-57" font-family="Helvetica,sans-Serif" font-size="10.00">_up_on_demand</text>
</a>
</g>
</g>
<!-- Node11&#45;&gt;Node22 -->
<g id="edge21" class="edge">
<title>Node11&#45;&gt;Node22</title>
<path fill="none" stroke="midnightblue" d="M417.84,-137.83C436.25,-126.24 460.04,-111.88 482,-100.5 485.31,-98.79 488.73,-97.08 492.21,-95.4"/>
<polygon fill="midnightblue" stroke="midnightblue" points="493.93,-98.46 501.48,-91.03 490.95,-92.13 493.93,-98.46"/>
</g>
<!-- Node27 -->
<g id="node27" class="node">
<title>Node27</title>
<g id="a_node27"><a xlink:href="group__zwave__command__handler.html#gadc660fe6ba68c4eb1818a2e4451349e2" target="_top" xlink:title="Dispatches a frame to its respective Command Class handler.">
<polygon fill="none" stroke="black" points="486.5,-0.5 486.5,-30.5 616.5,-30.5 616.5,-0.5 486.5,-0.5"/>
<text text-anchor="start" x="494.5" y="-18.5" font-family="Helvetica,sans-Serif" font-size="10.00">zwave_command_handler</text>
<text text-anchor="middle" x="551.5" y="-7.5" font-family="Helvetica,sans-Serif" font-size="10.00">_dispatch</text>
</a>
</g>
</g>
<!-- Node11&#45;&gt;Node27 -->
<g id="edge28" class="edge">
<title>Node11&#45;&gt;Node27</title>
<path fill="none" stroke="midnightblue" d="M397.99,-137.69C414.03,-111.58 444.79,-67.01 482,-40.5 484.68,-38.59 487.52,-36.81 490.47,-35.15"/>
<polygon fill="midnightblue" stroke="midnightblue" points="492.21,-38.2 499.55,-30.55 489.04,-31.95 492.21,-38.2"/>
</g>
<!-- Node13 -->
<g id="node13" class="node">
<title>Node13</title>
<g id="a_node13"><a xlink:href="group__zpc__attribute__store__network__helpers.html#gafb993ff484b3c826743c4695d6659cf0" target="_top" xlink:title="Take a UNID and return its attribute store node representing the NodeID.">
<polygon fill="none" stroke="black" points="1189,-123.5 1189,-153.5 1321,-153.5 1321,-123.5 1189,-123.5"/>
<text text-anchor="start" x="1197" y="-141.5" font-family="Helvetica,sans-Serif" font-size="10.00">attribute_store_network</text>
<text text-anchor="middle" x="1255" y="-130.5" font-family="Helvetica,sans-Serif" font-size="10.00">_helper_get_node_id_node</text>
</a>
</g>
</g>
<!-- Node12&#45;&gt;Node13 -->
<g id="edge12" class="edge">
<title>Node12&#45;&gt;Node13</title>
<path fill="none" stroke="midnightblue" d="M977.39,-176.87C1025.23,-174.25 1093.64,-169.31 1153,-160.5 1162.22,-159.13 1171.86,-157.41 1181.37,-155.54"/>
<polygon fill="midnightblue" stroke="midnightblue" points="1182.1,-158.96 1191.2,-153.54 1180.71,-152.1 1182.1,-158.96"/>
</g>
<!-- Node17 -->
<g id="node17" class="node">
<title>Node17</title>
<g id="a_node17"><a xlink:href="group__zwave__unid.html#ga421deceb8a12916f049e4f3446774439" target="_top" xlink:title="Form a UNID.">
<polygon fill="none" stroke="black" points="1019.5,-132 1019.5,-151 1151.5,-151 1151.5,-132 1019.5,-132"/>
<text text-anchor="middle" x="1085.5" y="-139" font-family="Helvetica,sans-Serif" font-size="10.00">zwave_unid_from_node_id</text>
</a>
</g>
</g>
<!-- Node12&#45;&gt;Node17 -->
<g id="edge16" class="edge">
<title>Node12&#45;&gt;Node17</title>
<path fill="none" stroke="midnightblue" d="M977.47,-165.78C995.49,-161.69 1015.07,-157.25 1032.49,-153.3"/>
<polygon fill="midnightblue" stroke="midnightblue" points="1033.5,-156.66 1042.48,-151.03 1031.95,-149.83 1033.5,-156.66"/>
</g>
<!-- Node14 -->
<g id="node14" class="node">
<title>Node14</title>
<g id="a_node14"><a xlink:href="group__zpc__attribute__store__network__helpers.html#ga05cb572c96f7dc8e6657f86e135fafed" target="_top" xlink:title="Take a UNID and return its attribute store node representing the HomeID.">
<polygon fill="none" stroke="black" points="1357,-145.5 1357,-175.5 1492,-175.5 1492,-145.5 1357,-145.5"/>
<text text-anchor="start" x="1365" y="-163.5" font-family="Helvetica,sans-Serif" font-size="10.00">attribute_store_network</text>
<text text-anchor="middle" x="1424.5" y="-152.5" font-family="Helvetica,sans-Serif" font-size="10.00">_helper_get_home_id_node</text>
</a>
</g>
</g>
<!-- Node13&#45;&gt;Node14 -->
<g id="edge13" class="edge">
<title>Node13&#45;&gt;Node14</title>
<path fill="none" stroke="midnightblue" d="M1321.24,-147.07C1329.62,-148.17 1338.27,-149.31 1346.82,-150.43"/>
<polygon fill="midnightblue" stroke="midnightblue" points="1346.41,-153.9 1356.78,-151.74 1347.32,-146.96 1346.41,-153.9"/>
</g>
<!-- Node16 -->
<g id="node16" class="node">
<title>Node16</title>
<g id="a_node16"><a xlink:href="group__zwave__unid.html#ga76885767debd174e96e6df00b0a368c3" target="_top" xlink:title="Convert a UNID to a node ID.">
<polygon fill="none" stroke="black" points="1364,-107 1364,-126 1485,-126 1485,-107 1364,-107"/>
<text text-anchor="middle" x="1424.5" y="-114" font-family="Helvetica,sans-Serif" font-size="10.00">zwave_unid_to_node_id</text>
</a>
</g>
</g>
<!-- Node13&#45;&gt;Node16 -->
<g id="edge15" class="edge">
<title>Node13&#45;&gt;Node16</title>
<path fill="none" stroke="midnightblue" d="M1321.24,-129.93C1331.89,-128.53 1342.96,-127.08 1353.72,-125.67"/>
<polygon fill="midnightblue" stroke="midnightblue" points="1354.45,-129.1 1363.91,-124.33 1353.54,-122.16 1354.45,-129.1"/>
</g>
<!-- Node15 -->
<g id="node15" class="node">
<title>Node15</title>
<g id="a_node15"><a xlink:href="group__zwave__unid.html#ga92f9808a08c2ce1c0a6a9dc2debf3580" target="_top" xlink:title="Convert a UNID to a Home ID.">
<polygon fill="none" stroke="black" points="1528,-151 1528,-170 1652,-170 1652,-151 1528,-151"/>
<text text-anchor="middle" x="1590" y="-158" font-family="Helvetica,sans-Serif" font-size="10.00">zwave_unid_to_home_id</text>
</a>
</g>
</g>
<!-- Node14&#45;&gt;Node15 -->
<g id="edge14" class="edge">
<title>Node14&#45;&gt;Node15</title>
<path fill="none" stroke="midnightblue" d="M1492,-160.5C1500.42,-160.5 1509.07,-160.5 1517.57,-160.5"/>
<polygon fill="midnightblue" stroke="midnightblue" points="1517.83,-164 1527.83,-160.5 1517.83,-157 1517.83,-164"/>
</g>
<!-- Node19 -->
<g id="node19" class="node">
<title>Node19</title>
<g id="a_node19"><a xlink:href="group__zwave__tx__scheme__selector.html#ga8f8d4442ddf4c165d5a79b9a25d6420d" target="_top" xlink:title="Define a Z&#45;Wave frame transmission options.">
<polygon fill="none" stroke="black" points="677,-170.5 677,-200.5 794,-200.5 794,-170.5 677,-170.5"/>
<text text-anchor="start" x="685" y="-188.5" font-family="Helvetica,sans-Serif" font-size="10.00">zwave_tx_scheme_get</text>
<text text-anchor="middle" x="735.5" y="-177.5" font-family="Helvetica,sans-Serif" font-size="10.00">_node_tx_options</text>
</a>
</g>
</g>
<!-- Node18&#45;&gt;Node19 -->
<g id="edge18" class="edge">
<title>Node18&#45;&gt;Node19</title>
<path fill="none" stroke="midnightblue" d="M612.6,-185.5C629.91,-185.5 648.91,-185.5 666.66,-185.5"/>
<polygon fill="midnightblue" stroke="midnightblue" points="666.94,-189 676.94,-185.5 666.94,-182 666.94,-189"/>
</g>
<!-- Node20 -->
<g id="node20" class="node">
<title>Node20</title>
<g id="a_node20"><a xlink:href="group__zwave__tx.html#gad1538f36d226fe8147c5e538625568df" target="_top" xlink:title="Queue and send frames to Z&#45;Wave nodes.">
<polygon fill="none" stroke="black" points="681,-132 681,-151 790,-151 790,-132 681,-132"/>
<text text-anchor="middle" x="735.5" y="-139" font-family="Helvetica,sans-Serif" font-size="10.00">zwave_tx_send_data</text>
</a>
</g>
</g>
<!-- Node18&#45;&gt;Node20 -->
<g id="edge19" class="edge">
<title>Node18&#45;&gt;Node20</title>
<path fill="none" stroke="midnightblue" d="M612.6,-170.97C636.12,-165.28 662.77,-158.84 685.14,-153.43"/>
<polygon fill="midnightblue" stroke="midnightblue" points="686.2,-156.78 695.09,-151.03 684.55,-149.97 686.2,-156.78"/>
</g>
<!-- Node23 -->
<g id="node23" class="node">
<title>Node23</title>
<g id="a_node23"><a xlink:href="group__zpc__attribute__store__network__helpers.html#ga715be25ab9c545f84ff524bc5a7eb7db" target="_top" xlink:title="Traverse up the tree from a node and finds under which Z&#45;Wave NodeID it is.">
<polygon fill="none" stroke="black" points="657,-82.5 657,-112.5 814,-112.5 814,-82.5 657,-82.5"/>
<text text-anchor="start" x="665" y="-100.5" font-family="Helvetica,sans-Serif" font-size="10.00">attribute_store_network</text>
<text text-anchor="middle" x="735.5" y="-89.5" font-family="Helvetica,sans-Serif" font-size="10.00">_helper_get_node_id_from_node</text>
</a>
</g>
</g>
<!-- Node22&#45;&gt;Node23 -->
<g id="edge22" class="edge">
<title>Node22&#45;&gt;Node23</title>
<path fill="none" stroke="midnightblue" d="M617.69,-80.17C627.08,-81.56 636.87,-83.02 646.6,-84.46"/>
<polygon fill="midnightblue" stroke="midnightblue" points="646.31,-87.96 656.72,-85.96 647.34,-81.03 646.31,-87.96"/>
</g>
<!-- Node24 -->
<g id="node24" class="node">
<title>Node24</title>
<g id="a_node24"><a xlink:href="group__zwave__utils.html#ga1fb87a67860c11e6e89930eb51fda21f" target="_top" xlink:title="Return the version of a Command Class implemented by a node.">
<polygon fill="none" stroke="black" points="666.5,-33.5 666.5,-63.5 804.5,-63.5 804.5,-33.5 666.5,-33.5"/>
<text text-anchor="start" x="674.5" y="-51.5" font-family="Helvetica,sans-Serif" font-size="10.00">zwave_node_get_command</text>
<text text-anchor="middle" x="735.5" y="-40.5" font-family="Helvetica,sans-Serif" font-size="10.00">_class_version</text>
</a>
</g>
</g>
<!-- Node22&#45;&gt;Node24 -->
<g id="edge23" class="edge">
<title>Node22&#45;&gt;Node24</title>
<path fill="none" stroke="midnightblue" d="M617.69,-62.62C630.17,-61.11 643.35,-59.52 656.18,-57.97"/>
<polygon fill="midnightblue" stroke="midnightblue" points="656.88,-61.41 666.39,-56.73 656.04,-54.46 656.88,-61.41"/>
</g>
<!-- Node25 -->
<g id="node25" class="node">
<title>Node25</title>
<g id="a_node25"><a xlink:href="group__zwave__utils.html#ga6f7851dd2a96668e3a246c0292607579" target="_top" xlink:title="Get endpoint node associated with the ZWave NodeID and Endpoint ID.">
<polygon fill="none" stroke="black" points="850,-88 850,-107 982,-107 982,-88 850,-88"/>
<text text-anchor="middle" x="916" y="-95" font-family="Helvetica,sans-Serif" font-size="10.00">zwave_get_endpoint_node</text>
</a>
</g>
</g>
<!-- Node24&#45;&gt;Node25 -->
<g id="edge24" class="edge">
<title>Node24&#45;&gt;Node25</title>
<path fill="none" stroke="midnightblue" d="M791.51,-63.6C816.88,-70.56 846.59,-78.72 870.52,-85.29"/>
<polygon fill="midnightblue" stroke="midnightblue" points="869.82,-88.73 880.39,-88 871.67,-81.98 869.82,-88.73"/>
</g>
<!-- Node25&#45;&gt;Node17 -->
<g id="edge27" class="edge">
<title>Node25&#45;&gt;Node17</title>
<path fill="none" stroke="midnightblue" d="M953.35,-107.05C978.26,-113.59 1011.51,-122.33 1038.31,-129.37"/>
<polygon fill="midnightblue" stroke="midnightblue" points="1037.66,-132.82 1048.23,-131.97 1039.44,-126.05 1037.66,-132.82"/>
</g>
<!-- Node26 -->
<g id="node26" class="node">
<title>Node26</title>
<g id="a_node26"><a xlink:href="group__zpc__attribute__store__network__helpers.html#gae4d15b8e0c61c88d94c8f342bd2014fc" target="_top" xlink:title="Take a UNID/endpoint combination and returns its attribute store node.">
<polygon fill="none" stroke="black" points="1018,-82.5 1018,-112.5 1153,-112.5 1153,-82.5 1018,-82.5"/>
<text text-anchor="start" x="1026" y="-100.5" font-family="Helvetica,sans-Serif" font-size="10.00">attribute_store_network</text>
<text text-anchor="middle" x="1085.5" y="-89.5" font-family="Helvetica,sans-Serif" font-size="10.00">_helper_get_endpoint_node</text>
</a>
</g>
</g>
<!-- Node25&#45;&gt;Node26 -->
<g id="edge25" class="edge">
<title>Node25&#45;&gt;Node26</title>
<path fill="none" stroke="midnightblue" d="M982.24,-97.5C990.53,-97.5 999.08,-97.5 1007.54,-97.5"/>
<polygon fill="midnightblue" stroke="midnightblue" points="1007.78,-101 1017.78,-97.5 1007.78,-94 1007.78,-101"/>
</g>
<!-- Node26&#45;&gt;Node13 -->
<g id="edge26" class="edge">
<title>Node26&#45;&gt;Node13</title>
<path fill="none" stroke="midnightblue" d="M1147.92,-112.53C1159.19,-115.29 1171.03,-118.19 1182.56,-121.01"/>
<polygon fill="midnightblue" stroke="midnightblue" points="1182.04,-124.49 1192.59,-123.47 1183.71,-117.69 1182.04,-124.49"/>
</g>
</g>
</svg>
