<?xml version="1.0" encoding="UTF-8" standalone="no"?>
<!DOCTYPE svg PUBLIC "-//W3C//DTD SVG 1.1//EN"
 "http://www.w3.org/Graphics/SVG/1.1/DTD/svg11.dtd">
<!-- Generated by graphviz version 2.43.0 (0)
 -->
<!-- Title: zwave_command_class_supervision_create_session Pages: 1 -->
<svg width="609pt" height="50pt"
 viewBox="0.00 0.00 609.00 50.00" xmlns="http://www.w3.org/2000/svg" xmlns:xlink="http://www.w3.org/1999/xlink">
<g id="graph0" class="graph" transform="scale(1 1) rotate(0) translate(4 46)">
<title>zwave_command_class_supervision_create_session</title>
<!-- Node1 -->
<g id="node1" class="node">
<title>Node1</title>
<g id="a_node1"><a xlink:title="Creates a new supe a supervised session.">
<polygon fill="#bfbfbf" stroke="black" points="479,-0.5 479,-41.5 601,-41.5 601,-0.5 479,-0.5"/>
<text text-anchor="start" x="487" y="-29.5" font-family="Helvetica,sans-Serif" font-size="10.00">zwave_command_class</text>
<text text-anchor="start" x="487" y="-18.5" font-family="Helvetica,sans-Serif" font-size="10.00">_supervision_create</text>
<text text-anchor="middle" x="540" y="-7.5" font-family="Helvetica,sans-Serif" font-size="10.00">_session</text>
</a>
</g>
</g>
<!-- Node2 -->
<g id="node2" class="node">
<title>Node2</title>
<g id="a_node2"><a xlink:href="group__zwave__command__class__supervision__handler.html#ga42cb4c65214e0c6b70f4b149a3e18fd9" target="_top" xlink:title="Take a frame and create a Supervision Session.">
<polygon fill="none" stroke="black" points="321,-6 321,-36 443,-36 443,-6 321,-6"/>
<text text-anchor="start" x="329" y="-24" font-family="Helvetica,sans-Serif" font-size="10.00">zwave_command_class</text>
<text text-anchor="middle" x="382" y="-13" font-family="Helvetica,sans-Serif" font-size="10.00">_supervision_send_data</text>
</a>
</g>
</g>
<!-- Node1&#45;&gt;Node2 -->
<g id="edge1" class="edge">
<title>Node1&#45;&gt;Node2</title>
<path fill="none" stroke="midnightblue" d="M468.46,-21C460.01,-21 451.44,-21 443.15,-21"/>
<polygon fill="midnightblue" stroke="midnightblue" points="468.69,-24.5 478.69,-21 468.69,-17.5 468.69,-24.5"/>
</g>
<!-- Node3 -->
<g id="node3" class="node">
<title>Node3</title>
<g id="a_node3"><a xlink:href="group__attribute__resolver__send.html#ga577f6ba4fa977a389873ee62e02aeead" target="_top" xlink:title="function that the ZPC attribute resolver uses send PAN frames">
<polygon fill="none" stroke="black" points="167,-11.5 167,-30.5 285,-30.5 285,-11.5 167,-11.5"/>
<text text-anchor="middle" x="226" y="-18.5" font-family="Helvetica,sans-Serif" font-size="10.00">attribute_resolver_send</text>
</a>
</g>
</g>
<!-- Node2&#45;&gt;Node3 -->
<g id="edge2" class="edge">
<title>Node2&#45;&gt;Node3</title>
<path fill="none" stroke="midnightblue" d="M310.39,-21C301.97,-21 293.45,-21 285.23,-21"/>
<polygon fill="midnightblue" stroke="midnightblue" points="310.58,-24.5 320.58,-21 310.58,-17.5 310.58,-24.5"/>
</g>
<!-- Node4 -->
<g id="node4" class="node">
<title>Node4</title>
<g id="a_node4"><a xlink:href="group__zpc__attribute__resolver__fixt.html#ga50dc081eb97c7ba1ec9259257613cfc4" target="_top" xlink:title="Initialize the ZPC attribute resolver, which in turn calls Unify attribute resolver init.">
<polygon fill="none" stroke="black" points="0,-11.5 0,-30.5 131,-30.5 131,-11.5 0,-11.5"/>
<text text-anchor="middle" x="65.5" y="-18.5" font-family="Helvetica,sans-Serif" font-size="10.00">zpc_attribute_resolver_init</text>
</a>
</g>
</g>
<!-- Node3&#45;&gt;Node4 -->
<g id="edge3" class="edge">
<title>Node3&#45;&gt;Node4</title>
<path fill="none" stroke="midnightblue" d="M156.63,-21C148.13,-21 139.47,-21 131.03,-21"/>
<polygon fill="midnightblue" stroke="midnightblue" points="156.88,-24.5 166.88,-21 156.88,-17.5 156.88,-24.5"/>
</g>
</g>
</svg>
