<?xml version="1.0" encoding="UTF-8" standalone="no"?>
<!DOCTYPE svg PUBLIC "-//W3C//DTD SVG 1.1//EN"
 "http://www.w3.org/Graphics/SVG/1.1/DTD/svg11.dtd">
<!-- Generated by graphviz version 2.43.0 (0)
 -->
<!-- Title: Z&#45;Wave API Pages: 1 -->
<svg width="321pt" height="212pt"
 viewBox="0.00 0.00 321.00 212.00" xmlns="http://www.w3.org/2000/svg" xmlns:xlink="http://www.w3.org/1999/xlink">
<g id="graph0" class="graph" transform="scale(1 1) rotate(0) translate(4 208)">
<title>Z&#45;Wave API</title>
<!-- Node4 -->
<g id="node1" class="node">
<title>Node4</title>
<g id="a_node1"><a xlink:href="group__ZWAPI__BASIS.html" target="_top" xlink:title="Functions in the Z&#45;Wave basis API.">
<polygon fill="none" stroke="black" points="304.5,-204 244.5,-204 244.5,-185 304.5,-185 304.5,-204"/>
<text text-anchor="middle" x="274.5" y="-192" font-family="Helvetica,sans-Serif" font-size="10.00">Basis API</text>
</a>
</g>
</g>
<!-- Node5 -->
<g id="node2" class="node">
<title>Node5</title>
<g id="a_node2"><a xlink:href="group__ZWAPI__CONTROLLER.html" target="_top" xlink:title="Functions in the Z&#45;Wave controller API.">
<polygon fill="none" stroke="black" points="313,-167 236,-167 236,-148 313,-148 313,-167"/>
<text text-anchor="middle" x="274.5" y="-155" font-family="Helvetica,sans-Serif" font-size="10.00">Controller API</text>
</a>
</g>
</g>
<!-- Node3 -->
<g id="node3" class="node">
<title>Node3</title>
<g id="a_node3"><a xlink:href="group__ZWAPI__INIT.html" target="_top" xlink:title="Initialization of the Z&#45;Wave API.">
<polygon fill="none" stroke="black" points="308.5,-130 240.5,-130 240.5,-111 308.5,-111 308.5,-130"/>
<text text-anchor="middle" x="274.5" y="-118" font-family="Helvetica,sans-Serif" font-size="10.00">Initialization</text>
</a>
</g>
</g>
<!-- Node6 -->
<g id="node4" class="node">
<title>Node6</title>
<g id="a_node4"><a xlink:href="group__ZWAPI__MEM.html" target="_top" xlink:title="Functions to access storage in a Z&#45;Wave module.">
<polygon fill="none" stroke="black" points="310,-93 239,-93 239,-74 310,-74 310,-93"/>
<text text-anchor="middle" x="274.5" y="-81" font-family="Helvetica,sans-Serif" font-size="10.00">Memory API</text>
</a>
</g>
</g>
<!-- Node7 -->
<g id="node5" class="node">
<title>Node7</title>
<g id="a_node5"><a xlink:href="group__ZWAPI__NVM.html" target="_top" xlink:title="Functions to access the NVM in a Z&#45;Wave module.">
<polygon fill="none" stroke="black" points="303.5,-56 245.5,-56 245.5,-37 303.5,-37 303.5,-56"/>
<text text-anchor="middle" x="274.5" y="-44" font-family="Helvetica,sans-Serif" font-size="10.00">NVM API</text>
</a>
</g>
</g>
<!-- Node8 -->
<g id="node6" class="node">
<title>Node8</title>
<g id="a_node6"><a xlink:href="group__ZWAPI__TRANSPORT.html" target="_top" xlink:title="Functions used to send data to Z&#45;Wave nodes.">
<polygon fill="none" stroke="black" points="313,-19 236,-19 236,0 313,0 313,-19"/>
<text text-anchor="middle" x="274.5" y="-7" font-family="Helvetica,sans-Serif" font-size="10.00">Transport API</text>
</a>
</g>
</g>
<!-- Node1 -->
<g id="node7" class="node">
<title>Node1</title>
<g id="a_node7"><a xlink:title="Access to the serial API of a Z&#45;Wave module.">
<polygon fill="#bfbfbf" stroke="black" points="200,-111 131,-111 131,-92 200,-92 200,-111"/>
<text text-anchor="middle" x="165.5" y="-99" font-family="Helvetica,sans-Serif" font-size="10.00">Z&#45;Wave API</text>
</a>
</g>
</g>
<!-- Node1&#45;&gt;Node4 -->
<g id="edge3" class="edge">
<title>Node1&#45;&gt;Node4</title>
<path fill="none" stroke="black" d="M180.01,-119.6C192.98,-136.04 213.82,-160.14 236,-176.5 240.3,-179.67 245.25,-182.51 250.11,-184.95"/>
<polygon fill="black" stroke="black" points="182.54,-117.15 173.66,-111.36 176.99,-121.42 182.54,-117.15"/>
</g>
<!-- Node1&#45;&gt;Node5 -->
<g id="edge4" class="edge">
<title>Node1&#45;&gt;Node5</title>
<path fill="none" stroke="black" d="M192.37,-116.07C205.37,-123.28 221.43,-132.03 236,-139.5 241.53,-142.33 247.57,-145.3 253.16,-147.98"/>
<polygon fill="black" stroke="black" points="193.94,-112.94 183.5,-111.12 190.53,-119.05 193.94,-112.94"/>
</g>
<!-- Node1&#45;&gt;Node3 -->
<g id="edge2" class="edge">
<title>Node1&#45;&gt;Node3</title>
<path fill="none" stroke="black" d="M209.99,-109.22C220.15,-111.03 230.81,-112.92 240.42,-114.63"/>
<polygon fill="black" stroke="black" points="210.52,-105.76 200.06,-107.46 209.3,-112.65 210.52,-105.76"/>
</g>
<!-- Node1&#45;&gt;Node6 -->
<g id="edge5" class="edge">
<title>Node1&#45;&gt;Node6</title>
<path fill="none" stroke="black" d="M210.22,-94.15C219.79,-92.54 229.8,-90.85 238.95,-89.31"/>
<polygon fill="black" stroke="black" points="209.34,-90.74 200.06,-95.85 210.5,-97.65 209.34,-90.74"/>
</g>
<!-- Node1&#45;&gt;Node7 -->
<g id="edge6" class="edge">
<title>Node1&#45;&gt;Node7</title>
<path fill="none" stroke="black" d="M192.94,-87.09C205.86,-80.14 221.67,-71.75 236,-64.5 241.54,-61.7 247.59,-58.75 253.18,-56.06"/>
<polygon fill="black" stroke="black" points="191.24,-84.03 184.1,-91.87 194.57,-90.19 191.24,-84.03"/>
</g>
<!-- Node1&#45;&gt;Node8 -->
<g id="edge7" class="edge">
<title>Node1&#45;&gt;Node8</title>
<path fill="none" stroke="black" d="M180.06,-83.65C193.06,-67.44 213.92,-43.67 236,-27.5 240.31,-24.34 245.26,-21.51 250.13,-19.07"/>
<polygon fill="black" stroke="black" points="177.11,-81.75 173.69,-91.78 182.61,-86.07 177.11,-81.75"/>
</g>
<!-- Node2 -->
<g id="node8" class="node">
<title>Node2</title>
<g id="a_node8"><a xlink:href="group__zwave__controller.html" target="_top" xlink:title="The Z&#45;Wave Controller super is a layer providing a set of components that allow to build a Z&#45;Wave Con...">
<polygon fill="none" stroke="black" points="95,-111 0,-111 0,-92 95,-92 95,-111"/>
<text text-anchor="middle" x="47.5" y="-99" font-family="Helvetica,sans-Serif" font-size="10.00">Z&#45;Wave Controller</text>
</a>
</g>
</g>
<!-- Node2&#45;&gt;Node1 -->
<g id="edge1" class="edge">
<title>Node2&#45;&gt;Node1</title>
<path fill="none" stroke="black" d="M105.23,-101.5C113.99,-101.5 122.79,-101.5 130.83,-101.5"/>
<polygon fill="black" stroke="black" points="105.01,-98 95.01,-101.5 105.01,-105 105.01,-98"/>
</g>
</g>
</svg>
