<?xml version="1.0" encoding="UTF-8" standalone="no"?>
<!DOCTYPE svg PUBLIC "-//W3C//DTD SVG 1.1//EN"
 "http://www.w3.org/Graphics/SVG/1.1/DTD/svg11.dtd">
<!-- Generated by graphviz version 2.43.0 (0)
 -->
<!-- Title: zwave_s2_network_init Pages: 1 -->
<svg width="417pt" height="84pt"
 viewBox="0.00 0.00 417.00 84.00" xmlns="http://www.w3.org/2000/svg" xmlns:xlink="http://www.w3.org/1999/xlink">
<g id="graph0" class="graph" transform="scale(1 1) rotate(0) translate(4 80)">
<title>zwave_s2_network_init</title>
<!-- Node1 -->
<g id="node1" class="node">
<title>Node1</title>
<g id="a_node1"><a xlink:title="Initialize the S2 network layer.">
<polygon fill="#bfbfbf" stroke="black" points="290,-19.5 290,-38.5 409,-38.5 409,-19.5 290,-19.5"/>
<text text-anchor="middle" x="349.5" y="-26.5" font-family="Helvetica,sans-Serif" font-size="10.00">zwave_s2_network_init</text>
</a>
</g>
</g>
<!-- Node2 -->
<g id="node2" class="node">
<title>Node2</title>
<g id="a_node2"><a xlink:href="nm__state__machine_8c.html#ac9fe4041f9ca45bad16c9b6ad7bae02f" target="_top" xlink:title=" ">
<polygon fill="none" stroke="black" points="149,-38.5 149,-57.5 254,-57.5 254,-38.5 149,-38.5"/>
<text text-anchor="middle" x="201.5" y="-45.5" font-family="Helvetica,sans-Serif" font-size="10.00">nm_fsm_post_event</text>
</a>
</g>
</g>
<!-- Node1&#45;&gt;Node2 -->
<g id="edge1" class="edge">
<title>Node1&#45;&gt;Node2</title>
<path fill="none" stroke="midnightblue" d="M279.96,-37.92C271.38,-39.04 262.72,-40.16 254.46,-41.24"/>
<polygon fill="midnightblue" stroke="midnightblue" points="280.49,-41.38 289.96,-36.62 279.59,-34.44 280.49,-41.38"/>
</g>
<!-- Node4 -->
<g id="node4" class="node">
<title>Node4</title>
<g id="a_node4"><a xlink:href="zwave__s2__process_8c.html#a51f51bd8129a84a685510bf2aaa812a9" target="_top" xlink:title=" ">
<polygon fill="none" stroke="black" points="162,-0.5 162,-19.5 241,-19.5 241,-0.5 162,-0.5"/>
<text text-anchor="middle" x="201.5" y="-7.5" font-family="Helvetica,sans-Serif" font-size="10.00">zwave_s2_init</text>
</a>
</g>
</g>
<!-- Node1&#45;&gt;Node4 -->
<g id="edge4" class="edge">
<title>Node1&#45;&gt;Node4</title>
<path fill="none" stroke="midnightblue" d="M279.9,-20.07C266.67,-18.35 253.24,-16.6 241.36,-15.06"/>
<polygon fill="midnightblue" stroke="midnightblue" points="279.59,-23.56 289.96,-21.38 280.49,-16.62 279.59,-23.56"/>
</g>
<!-- Node2&#45;&gt;Node2 -->
<g id="edge2" class="edge">
<title>Node2&#45;&gt;Node2</title>
<path fill="none" stroke="midnightblue" d="M228.38,-66.65C227.26,-71.94 218.3,-76 201.5,-76 175.91,-76 168.51,-66.57 179.31,-57.76"/>
<polygon fill="midnightblue" stroke="midnightblue" points="231.45,-64.97 223.69,-57.76 225.26,-68.24 231.45,-64.97"/>
</g>
<!-- Node3 -->
<g id="node3" class="node">
<title>Node3</title>
<g id="a_node3"><a xlink:href="zwave__network__management__process_8c.html#a59cf655b084839b45cc25e23b3aef04c" target="_top" xlink:title=" ">
<polygon fill="none" stroke="black" points="0,-38.5 0,-57.5 113,-57.5 113,-38.5 0,-38.5"/>
<text text-anchor="middle" x="56.5" y="-45.5" font-family="Helvetica,sans-Serif" font-size="10.00">PROCESS_THREAD</text>
</a>
</g>
</g>
<!-- Node2&#45;&gt;Node3 -->
<g id="edge3" class="edge">
<title>Node2&#45;&gt;Node3</title>
<path fill="none" stroke="midnightblue" d="M138.73,-48C130.31,-48 121.71,-48 113.4,-48"/>
<polygon fill="midnightblue" stroke="midnightblue" points="138.87,-51.5 148.87,-48 138.87,-44.5 138.87,-51.5"/>
</g>
<!-- Node5 -->
<g id="node5" class="node">
<title>Node5</title>
<g id="a_node5"><a xlink:href="zwave__s2__process_8c.html#afac04df3afbbd6765ef8bc3841257d47" target="_top" xlink:title=" ">
<polygon fill="none" stroke="black" points="0,-0.5 0,-19.5 113,-19.5 113,-0.5 0,-0.5"/>
<text text-anchor="middle" x="56.5" y="-7.5" font-family="Helvetica,sans-Serif" font-size="10.00">PROCESS_THREAD</text>
</a>
</g>
</g>
<!-- Node4&#45;&gt;Node5 -->
<g id="edge5" class="edge">
<title>Node4&#45;&gt;Node5</title>
<path fill="none" stroke="midnightblue" d="M151.66,-10C139.26,-10 125.85,-10 113.14,-10"/>
<polygon fill="midnightblue" stroke="midnightblue" points="151.8,-13.5 161.8,-10 151.8,-6.5 151.8,-13.5"/>
</g>
</g>
</svg>
