<?xml version="1.0" encoding="UTF-8" standalone="no"?>
<!DOCTYPE svg PUBLIC "-//W3C//DTD SVG 1.1//EN"
 "http://www.w3.org/Graphics/SVG/1.1/DTD/svg11.dtd">
<!-- Generated by graphviz version 2.43.0 (0)
 -->
<!-- Title: zwapi_abort_send_data Pages: 1 -->
<svg width="1287pt" height="541pt"
 viewBox="0.00 0.00 1287.00 541.00" xmlns="http://www.w3.org/2000/svg" xmlns:xlink="http://www.w3.org/1999/xlink">
<g id="graph0" class="graph" transform="scale(1 1) rotate(0) translate(4 537)">
<title>zwapi_abort_send_data</title>
<!-- Node1 -->
<g id="node1" class="node">
<title>Node1</title>
<g id="a_node1"><a xlink:title="Abort the ongoing transmit started with zwapi_send_data() or zwapi_send_data_bridge()">
<polygon fill="#bfbfbf" stroke="black" points="0,-227.5 0,-246.5 119,-246.5 119,-227.5 0,-227.5"/>
<text text-anchor="middle" x="59.5" y="-234.5" font-family="Helvetica,sans-Serif" font-size="10.00">zwapi_abort_send_data</text>
</a>
</g>
</g>
<!-- Node2 -->
<g id="node2" class="node">
<title>Node2</title>
<g id="a_node2"><a xlink:href="zwapi__init_8c.html#a67064ee382c07d0af51a9d9339b3fcde" target="_top" xlink:title="Verifies that the command is supported by the Z&#45;Wave module.">
<polygon fill="none" stroke="black" points="155,-227.5 155,-246.5 271,-246.5 271,-227.5 155,-227.5"/>
<text text-anchor="middle" x="213" y="-234.5" font-family="Helvetica,sans-Serif" font-size="10.00">zwapi_send_command</text>
</a>
</g>
</g>
<!-- Node1&#45;&gt;Node2 -->
<g id="edge1" class="edge">
<title>Node1&#45;&gt;Node2</title>
<path fill="none" stroke="midnightblue" d="M119.07,-237C127.36,-237 135.94,-237 144.38,-237"/>
<polygon fill="midnightblue" stroke="midnightblue" points="144.58,-240.5 154.58,-237 144.58,-233.5 144.58,-240.5"/>
</g>
<!-- Node3 -->
<g id="node3" class="node">
<title>Node3</title>
<g id="a_node3"><a xlink:href="zwapi__session_8c.html#a32577f3500efc3d937dbc68eebb3c370" target="_top" xlink:title="Send data frame to Z&#45;Wave chip via serial port and wait for ACK.">
<polygon fill="none" stroke="black" points="329.5,-244 329.5,-274 436.5,-274 436.5,-244 329.5,-244"/>
<text text-anchor="start" x="337.5" y="-262" font-family="Helvetica,sans-Serif" font-size="10.00">zwapi_session_send</text>
<text text-anchor="middle" x="383" y="-251" font-family="Helvetica,sans-Serif" font-size="10.00">_frame</text>
</a>
</g>
</g>
<!-- Node2&#45;&gt;Node3 -->
<g id="edge2" class="edge">
<title>Node2&#45;&gt;Node3</title>
<path fill="none" stroke="midnightblue" d="M271.35,-244.51C286.79,-246.53 303.56,-248.73 319.28,-250.79"/>
<polygon fill="midnightblue" stroke="midnightblue" points="319.06,-254.29 329.43,-252.12 319.97,-247.35 319.06,-254.29"/>
</g>
<!-- Node28 -->
<g id="node28" class="node">
<title>Node28</title>
<g id="a_node28"><a xlink:href="group__ZWAPI__INIT.html#ga0a823074baec69913d0e8590b46e4e33" target="_top" xlink:title="Check if a command is supported by the connected Z&#45;Wave module.">
<polygon fill="none" stroke="black" points="307,-205.5 307,-224.5 459,-224.5 459,-205.5 307,-205.5"/>
<text text-anchor="middle" x="383" y="-212.5" font-family="Helvetica,sans-Serif" font-size="10.00">zwapi_support_command_func</text>
</a>
</g>
</g>
<!-- Node2&#45;&gt;Node28 -->
<g id="edge42" class="edge">
<title>Node2&#45;&gt;Node28</title>
<path fill="none" stroke="midnightblue" d="M271.35,-229.49C280.28,-228.32 289.67,-227.09 299.03,-225.86"/>
<polygon fill="midnightblue" stroke="midnightblue" points="299.71,-229.31 309.17,-224.54 298.8,-222.37 299.71,-229.31"/>
</g>
<!-- Node4 -->
<g id="node4" class="node">
<title>Node4</title>
<g id="a_node4"><a xlink:href="zwapi__connection_8c.html#a13b6e6b6c56844f4344fabe490bc5eac" target="_top" xlink:title="Closes and re&#45;initializes the zwapi_connection to the Z&#45;Wave module.">
<polygon fill="none" stroke="black" points="655,-363.5 655,-382.5 783,-382.5 783,-363.5 655,-363.5"/>
<text text-anchor="middle" x="719" y="-370.5" font-family="Helvetica,sans-Serif" font-size="10.00">zwapi_connection_restart</text>
</a>
</g>
</g>
<!-- Node3&#45;&gt;Node4 -->
<g id="edge3" class="edge">
<title>Node3&#45;&gt;Node4</title>
<path fill="none" stroke="midnightblue" d="M397.28,-274.25C416.49,-295.15 454.23,-332.04 495,-349 542.2,-368.63 599.63,-374.44 644.39,-375.44"/>
<polygon fill="midnightblue" stroke="midnightblue" points="644.55,-378.95 654.6,-375.59 644.66,-371.95 644.55,-378.95"/>
</g>
<!-- Node14 -->
<g id="node14" class="node">
<title>Node14</title>
<g id="a_node14"><a xlink:href="zwapi__timestamp_8c.html#a6ebe1ddfe689bce6ee72fc12f708aece" target="_top" xlink:title="get the timestamp">
<polygon fill="none" stroke="black" points="828,-349.5 828,-368.5 940,-368.5 940,-349.5 828,-349.5"/>
<text text-anchor="middle" x="884" y="-356.5" font-family="Helvetica,sans-Serif" font-size="10.00">zwapi_timestamp_get</text>
</a>
</g>
</g>
<!-- Node3&#45;&gt;Node14 -->
<g id="edge41" class="edge">
<title>Node3&#45;&gt;Node14</title>
<path fill="none" stroke="midnightblue" d="M436.77,-270.5C455.19,-274.49 476,-278.97 495,-283 565.61,-297.96 583.2,-302.01 654,-316 710.38,-327.14 774.71,-339.16 820.81,-347.65"/>
<polygon fill="midnightblue" stroke="midnightblue" points="820.18,-351.1 830.65,-349.46 821.45,-344.21 820.18,-351.1"/>
</g>
<!-- Node15 -->
<g id="node15" class="node">
<title>Node15</title>
<g id="a_node15"><a xlink:href="zwapi__connection_8c.html#af47f8cbd93974d5c91d659fdeb7a870b" target="_top" xlink:title="Transmit a frame via serial port by adding SOF, Len, Type, cmd and Checksum.">
<polygon fill="none" stroke="black" points="665,-401.5 665,-420.5 773,-420.5 773,-401.5 665,-401.5"/>
<text text-anchor="middle" x="719" y="-408.5" font-family="Helvetica,sans-Serif" font-size="10.00">zwapi_connection_tx</text>
</a>
</g>
</g>
<!-- Node3&#45;&gt;Node15 -->
<g id="edge14" class="edge">
<title>Node3&#45;&gt;Node15</title>
<path fill="none" stroke="midnightblue" d="M393.47,-274.2C410.38,-299.9 448.4,-351.52 495,-376 544.51,-402.01 608.12,-409.9 654.72,-411.78"/>
<polygon fill="midnightblue" stroke="midnightblue" points="654.88,-415.29 664.99,-412.11 655.11,-408.29 654.88,-415.29"/>
</g>
<!-- Node17 -->
<g id="node17" class="node">
<title>Node17</title>
<g id="a_node17"><a xlink:href="zwapi__timestamp_8c.html#a3925f2732e344672608db38351236688" target="_top" xlink:title="compare the current timestamp with the timestamp passed as an argument">
<polygon fill="none" stroke="black" points="831,-137 831,-167 937,-167 937,-137 831,-137"/>
<text text-anchor="start" x="839" y="-155" font-family="Helvetica,sans-Serif" font-size="10.00">zwapi_is_timestamp</text>
<text text-anchor="middle" x="884" y="-144" font-family="Helvetica,sans-Serif" font-size="10.00">_elapsed</text>
</a>
</g>
</g>
<!-- Node3&#45;&gt;Node17 -->
<g id="edge19" class="edge">
<title>Node3&#45;&gt;Node17</title>
<path fill="none" stroke="midnightblue" d="M436.66,-246.39C491,-233.5 578.27,-213.13 654,-197 710.3,-185.01 774.64,-172.47 820.76,-163.68"/>
<polygon fill="midnightblue" stroke="midnightblue" points="821.44,-167.11 830.61,-161.81 820.13,-160.24 821.44,-167.11"/>
</g>
<!-- Node18 -->
<g id="node18" class="node">
<title>Node18</title>
<g id="a_node18"><a xlink:href="zwapi__session_8c.html#a1f2b3e7c2dcf31708ef8d333747352ba" target="_top" xlink:title=" ">
<polygon fill="none" stroke="black" points="657.5,-80 657.5,-110 780.5,-110 780.5,-80 657.5,-80"/>
<text text-anchor="start" x="665.5" y="-98" font-family="Helvetica,sans-Serif" font-size="10.00">zwapi_session_enqueue</text>
<text text-anchor="middle" x="719" y="-87" font-family="Helvetica,sans-Serif" font-size="10.00">_frame</text>
</a>
</g>
</g>
<!-- Node3&#45;&gt;Node18 -->
<g id="edge20" class="edge">
<title>Node3&#45;&gt;Node18</title>
<path fill="none" stroke="midnightblue" d="M436.58,-248.71C444.9,-245.17 452.79,-240.4 459,-234 497.77,-194.04 451.78,-149.11 495,-114 536.95,-79.92 599.16,-77.27 647.22,-81.95"/>
<polygon fill="midnightblue" stroke="midnightblue" points="646.92,-85.44 657.25,-83.05 647.69,-78.48 646.92,-85.44"/>
</g>
<!-- Node22 -->
<g id="node22" class="node">
<title>Node22</title>
<g id="a_node22"><a xlink:href="zwapi__session_8c.html#a2875fbfa250b7b25ecb6bc4f0b032cb8" target="_top" xlink:title="Loads the received frames from the serial device into the zwapi_session receive queue.">
<polygon fill="none" stroke="black" points="495,-124 495,-154 618,-154 618,-124 495,-124"/>
<text text-anchor="start" x="503" y="-142" font-family="Helvetica,sans-Serif" font-size="10.00">zwapi_session_enqueue</text>
<text text-anchor="middle" x="556.5" y="-131" font-family="Helvetica,sans-Serif" font-size="10.00">_rx_frames</text>
</a>
</g>
</g>
<!-- Node3&#45;&gt;Node22 -->
<g id="edge24" class="edge">
<title>Node3&#45;&gt;Node22</title>
<path fill="none" stroke="midnightblue" d="M436.66,-247.06C444.68,-243.71 452.46,-239.44 459,-234 484.4,-212.89 471.12,-191.81 495,-169 498.77,-165.4 503.06,-162.14 507.57,-159.22"/>
<polygon fill="midnightblue" stroke="midnightblue" points="509.59,-162.09 516.44,-154.01 506.04,-156.05 509.59,-162.09"/>
</g>
<!-- Node27 -->
<g id="node27" class="node">
<title>Node27</title>
<g id="a_node27"><a xlink:href="zwapi__session_8c.html#a9d30e1677f02d7730ab035aa9333235d" target="_top" xlink:title=" ">
<polygon fill="none" stroke="black" points="504.5,-244 504.5,-274 608.5,-274 608.5,-244 504.5,-244"/>
<text text-anchor="start" x="512.5" y="-262" font-family="Helvetica,sans-Serif" font-size="10.00">zwapi_session_wait</text>
<text text-anchor="middle" x="556.5" y="-251" font-family="Helvetica,sans-Serif" font-size="10.00">_for_response</text>
</a>
</g>
</g>
<!-- Node3&#45;&gt;Node27 -->
<g id="edge37" class="edge">
<title>Node3&#45;&gt;Node27</title>
<path fill="none" stroke="midnightblue" d="M436.86,-259C454.96,-259 475.37,-259 494.09,-259"/>
<polygon fill="midnightblue" stroke="midnightblue" points="494.29,-262.5 504.29,-259 494.29,-255.5 494.29,-262.5"/>
</g>
<!-- Node5 -->
<g id="node5" class="node">
<title>Node5</title>
<g id="a_node5"><a xlink:href="zwapi__serial_8c.html#a3f2b3bd848e9fe0e6e137482bed06b46" target="_top" xlink:title="Flush the serial output if using buffered output.">
<polygon fill="none" stroke="black" points="835.5,-388 835.5,-418 932.5,-418 932.5,-388 835.5,-388"/>
<text text-anchor="start" x="843.5" y="-406" font-family="Helvetica,sans-Serif" font-size="10.00">zwapi_serial_drain</text>
<text text-anchor="middle" x="884" y="-395" font-family="Helvetica,sans-Serif" font-size="10.00">_buffer</text>
</a>
</g>
</g>
<!-- Node4&#45;&gt;Node5 -->
<g id="edge4" class="edge">
<title>Node4&#45;&gt;Node5</title>
<path fill="none" stroke="midnightblue" d="M772.02,-382.57C789,-385.7 807.95,-389.19 825.32,-392.38"/>
<polygon fill="midnightblue" stroke="midnightblue" points="824.87,-395.86 835.34,-394.23 826.14,-388.98 824.87,-395.86"/>
</g>
<!-- Node6 -->
<g id="node6" class="node">
<title>Node6</title>
<g id="a_node6"><a xlink:href="zwapi__serial_8c.html#a7762d0358e9f398b92edbfd6a550984a" target="_top" xlink:title="Write a byte to serial port device.">
<polygon fill="none" stroke="black" points="827.5,-311.5 827.5,-330.5 940.5,-330.5 940.5,-311.5 827.5,-311.5"/>
<text text-anchor="middle" x="884" y="-318.5" font-family="Helvetica,sans-Serif" font-size="10.00">zwapi_serial_put_byte</text>
</a>
</g>
</g>
<!-- Node4&#45;&gt;Node6 -->
<g id="edge5" class="edge">
<title>Node4&#45;&gt;Node6</title>
<path fill="none" stroke="midnightblue" d="M748.39,-363.42C768.37,-356.72 795.77,-347.65 820,-340 826.73,-337.87 833.89,-335.67 840.87,-333.54"/>
<polygon fill="midnightblue" stroke="midnightblue" points="842.34,-336.75 850.9,-330.51 840.32,-330.05 842.34,-336.75"/>
</g>
<!-- Node10 -->
<g id="node10" class="node">
<title>Node10</title>
<g id="a_node10"><a xlink:href="zwapi__serial_8c.html#aadf3397d0bd2c1657d4b1a373599acfe" target="_top" xlink:title="Closes and re&#45;initialize the last open serial port.">
<polygon fill="none" stroke="black" points="832,-475.5 832,-494.5 936,-494.5 936,-475.5 832,-475.5"/>
<text text-anchor="middle" x="884" y="-482.5" font-family="Helvetica,sans-Serif" font-size="10.00">zwapi_serial_restart</text>
</a>
</g>
</g>
<!-- Node4&#45;&gt;Node10 -->
<g id="edge9" class="edge">
<title>Node4&#45;&gt;Node10</title>
<path fill="none" stroke="midnightblue" d="M762.86,-382.59C770.17,-385.09 777.5,-388.19 784,-392 803.25,-403.28 803.79,-411.66 820,-427 834.88,-441.08 852,-456.81 864.63,-468.33"/>
<polygon fill="midnightblue" stroke="midnightblue" points="862.47,-471.09 872.22,-475.24 867.18,-465.92 862.47,-471.09"/>
</g>
<!-- Node4&#45;&gt;Node14 -->
<g id="edge13" class="edge">
<title>Node4&#45;&gt;Node14</title>
<path fill="none" stroke="midnightblue" d="M783.02,-367.59C794.34,-366.62 806.16,-365.6 817.54,-364.62"/>
<polygon fill="midnightblue" stroke="midnightblue" points="818.18,-368.08 827.85,-363.74 817.58,-361.11 818.18,-368.08"/>
</g>
<!-- Node7 -->
<g id="node7" class="node">
<title>Node7</title>
<g id="a_node7"><a xlink:href="zwapi__serial_8c.html#af9054824651df422bab5076d16a80fda" target="_top" xlink:title="Writes the content of a buffer to the serial port device.">
<polygon fill="none" stroke="black" points="984,-312.5 984,-331.5 1103,-331.5 1103,-312.5 984,-312.5"/>
<text text-anchor="middle" x="1043.5" y="-319.5" font-family="Helvetica,sans-Serif" font-size="10.00">zwapi_serial_put_buffer</text>
</a>
</g>
</g>
<!-- Node6&#45;&gt;Node7 -->
<g id="edge6" class="edge">
<title>Node6&#45;&gt;Node7</title>
<path fill="none" stroke="midnightblue" d="M940.53,-321.35C951.24,-321.42 962.59,-321.49 973.66,-321.56"/>
<polygon fill="midnightblue" stroke="midnightblue" points="973.71,-325.06 983.74,-321.63 973.76,-318.06 973.71,-325.06"/>
</g>
<!-- Node8 -->
<g id="node8" class="node">
<title>Node8</title>
<g id="a_node8"><a xlink:href="zwapi__serial_8c.html#a0accbbf7ddb7aeab10f5df1fe3df6642" target="_top" xlink:title=" ">
<polygon fill="none" stroke="black" points="1139,-313.5 1139,-332.5 1279,-332.5 1279,-313.5 1139,-313.5"/>
<text text-anchor="middle" x="1209" y="-320.5" font-family="Helvetica,sans-Serif" font-size="10.00">zwapi_serial_log_timestamp</text>
</a>
</g>
</g>
<!-- Node7&#45;&gt;Node8 -->
<g id="edge7" class="edge">
<title>Node7&#45;&gt;Node8</title>
<path fill="none" stroke="midnightblue" d="M1103.07,-322.36C1111.43,-322.41 1120.15,-322.46 1128.82,-322.52"/>
<polygon fill="midnightblue" stroke="midnightblue" points="1128.95,-326.02 1138.97,-322.58 1128.99,-319.02 1128.95,-326.02"/>
</g>
<!-- Node9 -->
<g id="node9" class="node">
<title>Node9</title>
<g id="a_node9"><a xlink:href="zwapi__serial_8c.html#abf18afb71e14daaf65d937149ef1639f" target="_top" xlink:title="Test if a is less than b + ms.">
<polygon fill="none" stroke="black" points="1155.5,-264 1155.5,-294 1262.5,-294 1262.5,-264 1155.5,-264"/>
<text text-anchor="start" x="1163.5" y="-282" font-family="Helvetica,sans-Serif" font-size="10.00">zwapi_serial_timeval</text>
<text text-anchor="middle" x="1209" y="-271" font-family="Helvetica,sans-Serif" font-size="10.00">_a_lt_b_milis</text>
</a>
</g>
</g>
<!-- Node7&#45;&gt;Node9 -->
<g id="edge8" class="edge">
<title>Node7&#45;&gt;Node9</title>
<path fill="none" stroke="midnightblue" d="M1080.79,-312.46C1099.8,-307.46 1123.61,-301.19 1145.48,-295.44"/>
<polygon fill="midnightblue" stroke="midnightblue" points="1146.59,-298.77 1155.37,-292.84 1144.81,-292 1146.59,-298.77"/>
</g>
<!-- Node11 -->
<g id="node11" class="node">
<title>Node11</title>
<g id="a_node11"><a xlink:href="zwapi__serial_8c.html#aae586785021ac9a605cd77651429f0c9" target="_top" xlink:title="De&#45;Initialize the serial port.">
<polygon fill="none" stroke="black" points="994,-494.5 994,-513.5 1093,-513.5 1093,-494.5 994,-494.5"/>
<text text-anchor="middle" x="1043.5" y="-501.5" font-family="Helvetica,sans-Serif" font-size="10.00">zwapi_serial_close</text>
</a>
</g>
</g>
<!-- Node10&#45;&gt;Node11 -->
<g id="edge10" class="edge">
<title>Node10&#45;&gt;Node11</title>
<path fill="none" stroke="midnightblue" d="M936.14,-491.17C951.31,-493 968.06,-495.02 983.68,-496.9"/>
<polygon fill="midnightblue" stroke="midnightblue" points="983.42,-500.4 993.76,-498.12 984.25,-493.45 983.42,-500.4"/>
</g>
<!-- Node12 -->
<g id="node12" class="node">
<title>Node12</title>
<g id="a_node12"><a xlink:href="zwapi__serial_8c.html#a07b09de97f4932d882fc77e191c44638" target="_top" xlink:title="Initialize the serial port to 115200 BAUD 8N1.">
<polygon fill="none" stroke="black" points="999,-456.5 999,-475.5 1088,-475.5 1088,-456.5 999,-456.5"/>
<text text-anchor="middle" x="1043.5" y="-463.5" font-family="Helvetica,sans-Serif" font-size="10.00">zwapi_serial_init</text>
</a>
</g>
</g>
<!-- Node10&#45;&gt;Node12 -->
<g id="edge11" class="edge">
<title>Node10&#45;&gt;Node12</title>
<path fill="none" stroke="midnightblue" d="M936.14,-478.83C952.87,-476.81 971.51,-474.56 988.46,-472.52"/>
<polygon fill="midnightblue" stroke="midnightblue" points="989.25,-475.95 998.76,-471.28 988.41,-469 989.25,-475.95"/>
</g>
<!-- Node13 -->
<g id="node13" class="node">
<title>Node13</title>
<g id="a_node13"><a xlink:href="zwapi__serial_8c.html#aefeac5909b0bf6411db1492f69c3bc68" target="_top" xlink:title=" ">
<polygon fill="none" stroke="black" points="1149.5,-456.5 1149.5,-475.5 1268.5,-475.5 1268.5,-456.5 1149.5,-456.5"/>
<text text-anchor="middle" x="1209" y="-463.5" font-family="Helvetica,sans-Serif" font-size="10.00">zwapi_open_serial_port</text>
</a>
</g>
</g>
<!-- Node12&#45;&gt;Node13 -->
<g id="edge12" class="edge">
<title>Node12&#45;&gt;Node13</title>
<path fill="none" stroke="midnightblue" d="M1088.31,-466C1103.97,-466 1122.01,-466 1139.26,-466"/>
<polygon fill="midnightblue" stroke="midnightblue" points="1139.3,-469.5 1149.3,-466 1139.3,-462.5 1139.3,-469.5"/>
</g>
<!-- Node15&#45;&gt;Node5 -->
<g id="edge16" class="edge">
<title>Node15&#45;&gt;Node5</title>
<path fill="none" stroke="midnightblue" d="M773.37,-408.38C789.9,-407.57 808.19,-406.67 825.02,-405.85"/>
<polygon fill="midnightblue" stroke="midnightblue" points="825.47,-409.33 835.28,-405.34 825.12,-402.34 825.47,-409.33"/>
</g>
<!-- Node15&#45;&gt;Node7 -->
<g id="edge17" class="edge">
<title>Node15&#45;&gt;Node7</title>
<path fill="none" stroke="midnightblue" d="M746.34,-420.55C790.29,-434.86 880.4,-457.11 948,-427 987.75,-409.3 1017.8,-365.69 1032.5,-340.59"/>
<polygon fill="midnightblue" stroke="midnightblue" points="1035.66,-342.11 1037.52,-331.68 1029.56,-338.67 1035.66,-342.11"/>
</g>
<!-- Node15&#45;&gt;Node14 -->
<g id="edge18" class="edge">
<title>Node15&#45;&gt;Node14</title>
<path fill="none" stroke="midnightblue" d="M754.04,-401.46C763.77,-398.58 774.35,-395.3 784,-392 800.24,-386.44 803.77,-383.59 820,-378 826.39,-375.8 833.18,-373.6 839.86,-371.52"/>
<polygon fill="midnightblue" stroke="midnightblue" points="840.96,-374.85 849.49,-368.58 838.91,-368.15 840.96,-374.85"/>
</g>
<!-- Node16 -->
<g id="node16" class="node">
<title>Node16</title>
<g id="a_node16"><a xlink:href="zwapi__connection_8c.html#a96d24d537c5b8d6aa0aa6a7638ba2f09" target="_top" xlink:title=" ">
<polygon fill="none" stroke="black" points="826.5,-513.5 826.5,-532.5 941.5,-532.5 941.5,-513.5 826.5,-513.5"/>
<text text-anchor="middle" x="884" y="-520.5" font-family="Helvetica,sans-Serif" font-size="10.00">zwapi_frame_to_string</text>
</a>
</g>
</g>
<!-- Node15&#45;&gt;Node16 -->
<g id="edge15" class="edge">
<title>Node15&#45;&gt;Node16</title>
<path fill="none" stroke="midnightblue" d="M727.74,-420.69C743.25,-439.5 780.11,-481.11 820,-504 823.73,-506.14 827.73,-508.07 831.84,-509.79"/>
<polygon fill="midnightblue" stroke="midnightblue" points="830.95,-513.19 841.54,-513.45 833.42,-506.65 830.95,-513.19"/>
</g>
<!-- Node19 -->
<g id="node19" class="node">
<title>Node19</title>
<g id="a_node19"><a xlink:href="zwapi__connection_8c.html#a91ce3acd7eff779496789637a9c27f40" target="_top" xlink:title="Provides the data of the serial buffer for the last received frame.">
<polygon fill="none" stroke="black" points="827.5,-88 827.5,-118 940.5,-118 940.5,-88 827.5,-88"/>
<text text-anchor="start" x="835.5" y="-106" font-family="Helvetica,sans-Serif" font-size="10.00">zwapi_connection_get</text>
<text text-anchor="middle" x="884" y="-95" font-family="Helvetica,sans-Serif" font-size="10.00">_last_rx_frame</text>
</a>
</g>
</g>
<!-- Node18&#45;&gt;Node19 -->
<g id="edge21" class="edge">
<title>Node18&#45;&gt;Node19</title>
<path fill="none" stroke="midnightblue" d="M780.7,-97.98C792.65,-98.57 805.24,-99.18 817.34,-99.78"/>
<polygon fill="midnightblue" stroke="midnightblue" points="817.21,-103.28 827.37,-100.27 817.55,-96.28 817.21,-103.28"/>
</g>
<!-- Node20 -->
<g id="node20" class="node">
<title>Node20</title>
<g id="a_node20"><a xlink:href="zwapi__session_8c.html#ad7bac697ee2388b38ed3777b5a3862bc" target="_top" xlink:title=" ">
<polygon fill="none" stroke="black" points="827.5,-39 827.5,-69 940.5,-69 940.5,-39 827.5,-39"/>
<text text-anchor="start" x="835.5" y="-57" font-family="Helvetica,sans-Serif" font-size="10.00">zwapi_session_get_rx</text>
<text text-anchor="middle" x="884" y="-46" font-family="Helvetica,sans-Serif" font-size="10.00">_queue_length</text>
</a>
</g>
</g>
<!-- Node18&#45;&gt;Node20 -->
<g id="edge22" class="edge">
<title>Node18&#45;&gt;Node20</title>
<path fill="none" stroke="midnightblue" d="M779.77,-79.97C792.03,-76.88 805,-73.62 817.45,-70.49"/>
<polygon fill="midnightblue" stroke="midnightblue" points="818.45,-73.84 827.3,-68.01 816.75,-67.06 818.45,-73.84"/>
</g>
<!-- Node21 -->
<g id="node21" class="node">
<title>Node21</title>
<g id="a_node21"><a xlink:href="group__ZWAPI__INIT.html#ga438a74c9752197d20d377874d5a61694" target="_top" xlink:title="Returns the pointer to the callbacks registered at init.">
<polygon fill="none" stroke="black" points="820,-0.5 820,-19.5 948,-19.5 948,-0.5 820,-0.5"/>
<text text-anchor="middle" x="884" y="-7.5" font-family="Helvetica,sans-Serif" font-size="10.00">zwave_api_get_callbacks</text>
</a>
</g>
</g>
<!-- Node18&#45;&gt;Node21 -->
<g id="edge23" class="edge">
<title>Node18&#45;&gt;Node21</title>
<path fill="none" stroke="midnightblue" d="M739.29,-79.8C758.73,-65.09 790.05,-43.03 820,-29 824.91,-26.7 830.17,-24.6 835.48,-22.7"/>
<polygon fill="midnightblue" stroke="midnightblue" points="836.65,-26 845.02,-19.51 834.43,-19.36 836.65,-26"/>
</g>
<!-- Node22&#45;&gt;Node18 -->
<g id="edge36" class="edge">
<title>Node22&#45;&gt;Node18</title>
<path fill="none" stroke="midnightblue" d="M612.29,-123.98C625.51,-120.35 639.77,-116.45 653.4,-112.71"/>
<polygon fill="midnightblue" stroke="midnightblue" points="654.47,-116.05 663.19,-110.03 652.62,-109.29 654.47,-116.05"/>
</g>
<!-- Node23 -->
<g id="node23" class="node">
<title>Node23</title>
<g id="a_node23"><a xlink:href="zwapi__connection_8c.html#a1e45c6c9695b5e7b415adfad40080720" target="_top" xlink:title="Parses serial data sent from the Z&#45;Wave module to the serial port. Should be frequently called by mai...">
<polygon fill="none" stroke="black" points="654,-249.5 654,-268.5 784,-268.5 784,-249.5 654,-249.5"/>
<text text-anchor="middle" x="719" y="-256.5" font-family="Helvetica,sans-Serif" font-size="10.00">zwapi_connection_refresh</text>
</a>
</g>
</g>
<!-- Node22&#45;&gt;Node23 -->
<g id="edge25" class="edge">
<title>Node22&#45;&gt;Node23</title>
<path fill="none" stroke="midnightblue" d="M577.83,-154.2C608.38,-177.04 665.87,-220.02 696.88,-243.21"/>
<polygon fill="midnightblue" stroke="midnightblue" points="695.14,-246.28 705.24,-249.46 699.33,-240.67 695.14,-246.28"/>
</g>
<!-- Node23&#45;&gt;Node5 -->
<g id="edge27" class="edge">
<title>Node23&#45;&gt;Node5</title>
<path fill="none" stroke="midnightblue" d="M725.77,-268.72C739.45,-291.01 776.01,-346.27 820,-378 822.62,-379.89 825.41,-381.67 828.3,-383.33"/>
<polygon fill="midnightblue" stroke="midnightblue" points="826.7,-386.44 837.18,-387.97 829.94,-380.24 826.7,-386.44"/>
</g>
<!-- Node23&#45;&gt;Node6 -->
<g id="edge34" class="edge">
<title>Node23&#45;&gt;Node6</title>
<path fill="none" stroke="midnightblue" d="M747.72,-268.52C759.09,-272.66 772.31,-277.75 784,-283 800.5,-290.41 803.26,-295.13 820,-302 825.48,-304.25 831.33,-306.37 837.18,-308.32"/>
<polygon fill="midnightblue" stroke="midnightblue" points="836.34,-311.72 846.93,-311.43 838.47,-305.05 836.34,-311.72"/>
</g>
<!-- Node23&#45;&gt;Node14 -->
<g id="edge35" class="edge">
<title>Node23&#45;&gt;Node14</title>
<path fill="none" stroke="midnightblue" d="M757.71,-268.55C766.95,-272.07 776.36,-276.78 784,-283 807.24,-301.91 796.15,-321.86 820,-340 822.47,-341.88 825.12,-343.57 827.89,-345.09"/>
<polygon fill="midnightblue" stroke="midnightblue" points="826.51,-348.31 837.05,-349.42 829.5,-341.99 826.51,-348.31"/>
</g>
<!-- Node23&#45;&gt;Node17 -->
<g id="edge26" class="edge">
<title>Node23&#45;&gt;Node17</title>
<path fill="none" stroke="midnightblue" d="M758.11,-249.4C767.24,-245.89 776.5,-241.2 784,-235 807.67,-215.43 796.38,-195.64 820,-176 821.55,-174.71 823.18,-173.48 824.87,-172.32"/>
<polygon fill="midnightblue" stroke="midnightblue" points="826.95,-175.15 833.73,-167.01 823.35,-169.15 826.95,-175.15"/>
</g>
<!-- Node24 -->
<g id="node24" class="node">
<title>Node24</title>
<g id="a_node24"><a xlink:href="zwapi__serial_8c.html#a538134f9fdbb1ce052667b3a041357bd" target="_top" xlink:title="Reads the output of the serial port device and stores the content in a buffer.">
<polygon fill="none" stroke="black" points="984,-272.5 984,-291.5 1103,-291.5 1103,-272.5 984,-272.5"/>
<text text-anchor="middle" x="1043.5" y="-279.5" font-family="Helvetica,sans-Serif" font-size="10.00">zwapi_serial_get_buffer</text>
</a>
</g>
</g>
<!-- Node23&#45;&gt;Node24 -->
<g id="edge28" class="edge">
<title>Node23&#45;&gt;Node24</title>
<path fill="none" stroke="midnightblue" d="M784.06,-257.57C829.86,-257.24 892.88,-258.19 948,-264 961.76,-265.45 976.52,-267.85 990.18,-270.43"/>
<polygon fill="midnightblue" stroke="midnightblue" points="989.9,-273.94 1000.39,-272.43 991.24,-267.07 989.9,-273.94"/>
</g>
<!-- Node25 -->
<g id="node25" class="node">
<title>Node25</title>
<g id="a_node25"><a xlink:href="zwapi__serial_8c.html#abb082b1e7e727203e3ca5fbeb41f7c2b" target="_top" xlink:title="Reads a byte from the serial port device.">
<polygon fill="none" stroke="black" points="827.5,-273.5 827.5,-292.5 940.5,-292.5 940.5,-273.5 827.5,-273.5"/>
<text text-anchor="middle" x="884" y="-280.5" font-family="Helvetica,sans-Serif" font-size="10.00">zwapi_serial_get_byte</text>
</a>
</g>
</g>
<!-- Node23&#45;&gt;Node25 -->
<g id="edge31" class="edge">
<title>Node23&#45;&gt;Node25</title>
<path fill="none" stroke="midnightblue" d="M784.42,-268.49C795.32,-270.09 806.65,-271.76 817.58,-273.37"/>
<polygon fill="midnightblue" stroke="midnightblue" points="817.07,-276.83 827.47,-274.82 818.09,-269.91 817.07,-276.83"/>
</g>
<!-- Node26 -->
<g id="node26" class="node">
<title>Node26</title>
<g id="a_node26"><a xlink:href="zwapi__serial_8c.html#a9a952dc2b34d92960246f6dc4e7d58f7" target="_top" xlink:title="Check the file descriptor for the serial device is available for I/O operations.">
<polygon fill="none" stroke="black" points="833.5,-186 833.5,-216 934.5,-216 934.5,-186 833.5,-186"/>
<text text-anchor="start" x="841.5" y="-204" font-family="Helvetica,sans-Serif" font-size="10.00">zwapi_serial_is_file</text>
<text text-anchor="middle" x="884" y="-193" font-family="Helvetica,sans-Serif" font-size="10.00">_available</text>
</a>
</g>
</g>
<!-- Node23&#45;&gt;Node26 -->
<g id="edge33" class="edge">
<title>Node23&#45;&gt;Node26</title>
<path fill="none" stroke="midnightblue" d="M746.92,-249.42C769.73,-241.31 803.09,-229.43 831.08,-219.48"/>
<polygon fill="midnightblue" stroke="midnightblue" points="832.48,-222.69 840.73,-216.04 830.13,-216.1 832.48,-222.69"/>
</g>
<!-- Node24&#45;&gt;Node8 -->
<g id="edge29" class="edge">
<title>Node24&#45;&gt;Node8</title>
<path fill="none" stroke="midnightblue" d="M1082.42,-291.51C1105.55,-297.31 1135.33,-304.78 1160.09,-310.99"/>
<polygon fill="midnightblue" stroke="midnightblue" points="1159.45,-314.43 1170,-313.47 1161.15,-307.64 1159.45,-314.43"/>
</g>
<!-- Node24&#45;&gt;Node9 -->
<g id="edge30" class="edge">
<title>Node24&#45;&gt;Node9</title>
<path fill="none" stroke="midnightblue" d="M1103.07,-280.93C1116.65,-280.68 1131.16,-280.41 1144.92,-280.16"/>
<polygon fill="midnightblue" stroke="midnightblue" points="1145.34,-283.65 1155.28,-279.97 1145.22,-276.65 1145.34,-283.65"/>
</g>
<!-- Node25&#45;&gt;Node24 -->
<g id="edge32" class="edge">
<title>Node25&#45;&gt;Node24</title>
<path fill="none" stroke="midnightblue" d="M940.53,-282.65C951.24,-282.58 962.59,-282.51 973.66,-282.44"/>
<polygon fill="midnightblue" stroke="midnightblue" points="973.76,-285.94 983.74,-282.37 973.71,-278.94 973.76,-285.94"/>
</g>
<!-- Node27&#45;&gt;Node14 -->
<g id="edge40" class="edge">
<title>Node27&#45;&gt;Node14</title>
<path fill="none" stroke="midnightblue" d="M608.91,-269.69C655.51,-280.17 725.61,-297.92 784,-321 800.83,-327.65 803.26,-333.13 820,-340 825.48,-342.25 831.33,-344.37 837.18,-346.32"/>
<polygon fill="midnightblue" stroke="midnightblue" points="836.34,-349.72 846.93,-349.43 838.47,-343.05 836.34,-349.72"/>
</g>
<!-- Node27&#45;&gt;Node17 -->
<g id="edge39" class="edge">
<title>Node27&#45;&gt;Node17</title>
<path fill="none" stroke="midnightblue" d="M608.7,-248.99C655.45,-238.92 725.93,-221.39 784,-197 801.08,-189.83 803.29,-183.99 820,-176 823.58,-174.29 827.32,-172.61 831.11,-170.98"/>
<polygon fill="midnightblue" stroke="midnightblue" points="832.67,-174.12 840.57,-167.07 830,-167.65 832.67,-174.12"/>
</g>
<!-- Node27&#45;&gt;Node23 -->
<g id="edge38" class="edge">
<title>Node27&#45;&gt;Node23</title>
<path fill="none" stroke="midnightblue" d="M608.72,-259C619.79,-259 631.71,-259 643.47,-259"/>
<polygon fill="midnightblue" stroke="midnightblue" points="643.73,-262.5 653.73,-259 643.73,-255.5 643.73,-262.5"/>
</g>
</g>
</svg>
