<?xml version="1.0" encoding="UTF-8" standalone="no"?>
<!DOCTYPE svg PUBLIC "-//W3C//DTD SVG 1.1//EN"
 "http://www.w3.org/Graphics/SVG/1.1/DTD/svg11.dtd">
<!-- Generated by graphviz version 2.43.0 (0)
 -->
<!-- Title: zwapi_get_chip_data Pages: 1 -->
<svg width="402pt" height="78pt"
 viewBox="0.00 0.00 402.00 77.50" xmlns="http://www.w3.org/2000/svg" xmlns:xlink="http://www.w3.org/1999/xlink">
<g id="graph0" class="graph" transform="scale(1 1) rotate(0) translate(4 73.5)">
<title>zwapi_get_chip_data</title>
<!-- Node1 -->
<g id="node1" class="node">
<title>Node1</title>
<g id="a_node1"><a xlink:title="Return all information known about the chip after initialization.">
<polygon fill="#bfbfbf" stroke="black" points="286,-22.5 286,-41.5 394,-41.5 394,-22.5 286,-22.5"/>
<text text-anchor="middle" x="340" y="-29.5" font-family="Helvetica,sans-Serif" font-size="10.00">zwapi_get_chip_data</text>
</a>
</g>
</g>
<!-- Node2 -->
<g id="node2" class="node">
<title>Node2</title>
<g id="a_node2"><a xlink:href="group__zpc__ncp__update__fixt.html#gaaca8dd596d6abe6ca27de8d7c93c5cf2" target="_top" xlink:title="This function check if the NCP firmware should be updated.">
<polygon fill="none" stroke="black" points="143,-39 143,-69 250,-69 250,-39 143,-39"/>
<text text-anchor="start" x="151" y="-57" font-family="Helvetica,sans-Serif" font-size="10.00">zpc_ncp_update_fixt</text>
<text text-anchor="middle" x="196.5" y="-46" font-family="Helvetica,sans-Serif" font-size="10.00">_setup</text>
</a>
</g>
</g>
<!-- Node1&#45;&gt;Node2 -->
<g id="edge1" class="edge">
<title>Node1&#45;&gt;Node2</title>
<path fill="none" stroke="midnightblue" d="M275.98,-41.8C267.45,-43.12 258.76,-44.48 250.42,-45.77"/>
<polygon fill="midnightblue" stroke="midnightblue" points="276.56,-45.25 285.91,-40.25 275.49,-38.33 276.56,-45.25"/>
</g>
<!-- Node3 -->
<g id="node3" class="node">
<title>Node3</title>
<g id="a_node3"><a xlink:href="group__zwave__rx__internals.html#ga5fb555f285dbe1b21ba750d0443476c8" target="_top" xlink:title="Initialize the Z&#45;Wave Rx component.">
<polygon fill="none" stroke="black" points="158,-0.5 158,-19.5 235,-19.5 235,-0.5 158,-0.5"/>
<text text-anchor="middle" x="196.5" y="-7.5" font-family="Helvetica,sans-Serif" font-size="10.00">zwave_rx_init</text>
</a>
</g>
</g>
<!-- Node1&#45;&gt;Node3 -->
<g id="edge2" class="edge">
<title>Node1&#45;&gt;Node3</title>
<path fill="none" stroke="midnightblue" d="M275.94,-22.2C262.12,-20.05 247.9,-17.84 235.43,-15.9"/>
<polygon fill="midnightblue" stroke="midnightblue" points="275.49,-25.67 285.91,-23.75 276.56,-18.75 275.49,-25.67"/>
</g>
<!-- Node4 -->
<g id="node4" class="node">
<title>Node4</title>
<g id="a_node4"><a xlink:href="group__zwave__rx__fixt.html#ga89a6db07ef29cb6ad8f8cdeec935b442" target="_top" xlink:title=" ">
<polygon fill="none" stroke="black" points="0,-0.5 0,-19.5 107,-19.5 107,-0.5 0,-0.5"/>
<text text-anchor="middle" x="53.5" y="-7.5" font-family="Helvetica,sans-Serif" font-size="10.00">zwave_rx_fixt_setup</text>
</a>
</g>
</g>
<!-- Node3&#45;&gt;Node4 -->
<g id="edge3" class="edge">
<title>Node3&#45;&gt;Node4</title>
<path fill="none" stroke="midnightblue" d="M147.58,-10C134.6,-10 120.47,-10 107.23,-10"/>
<polygon fill="midnightblue" stroke="midnightblue" points="147.71,-13.5 157.71,-10 147.71,-6.5 147.71,-13.5"/>
</g>
</g>
</svg>
