<?xml version="1.0" encoding="UTF-8" standalone="no"?>
<!DOCTYPE svg PUBLIC "-//W3C//DTD SVG 1.1//EN"
 "http://www.w3.org/Graphics/SVG/1.1/DTD/svg11.dtd">
<!-- Generated by graphviz version 2.43.0 (0)
 -->
<!-- Title: Z&#45;Wave TX Groups Pages: 1 -->
<svg width="410pt" height="27pt"
 viewBox="0.00 0.00 410.00 27.00" xmlns="http://www.w3.org/2000/svg" xmlns:xlink="http://www.w3.org/1999/xlink">
<g id="graph0" class="graph" transform="scale(1 1) rotate(0) translate(4 23)">
<title>Z&#45;Wave TX Groups</title>
<!-- Node2 -->
<g id="node1" class="node">
<title>Node2</title>
<g id="a_node1"><a xlink:href="group__zwave__controller.html" target="_top" xlink:title="The Z&#45;Wave Controller super is a layer providing a set of components that allow to build a Z&#45;Wave Con...">
<polygon fill="none" stroke="black" points="95,-19 0,-19 0,0 95,0 95,-19"/>
<text text-anchor="middle" x="47.5" y="-7" font-family="Helvetica,sans-Serif" font-size="10.00">Z&#45;Wave Controller</text>
</a>
</g>
</g>
<!-- Node1 -->
<g id="node2" class="node">
<title>Node1</title>
<g id="a_node2"><a xlink:title="Assigns GroupIDs to a list of nodes.">
<polygon fill="#bfbfbf" stroke="black" points="232,-19 131,-19 131,0 232,0 232,-19"/>
<text text-anchor="middle" x="181.5" y="-7" font-family="Helvetica,sans-Serif" font-size="10.00">Z&#45;Wave TX Groups</text>
</a>
</g>
</g>
<!-- Node2&#45;&gt;Node1 -->
<g id="edge1" class="edge">
<title>Node2&#45;&gt;Node1</title>
<path fill="none" stroke="black" d="M105.26,-9.5C113.76,-9.5 122.46,-9.5 130.8,-9.5"/>
<polygon fill="black" stroke="black" points="105.04,-6 95.04,-9.5 105.04,-13 105.04,-6"/>
</g>
<!-- Node3 -->
<g id="node3" class="node">
<title>Node3</title>
<g id="a_node3"><a xlink:href="group__zwave__tx__groups__internal.html" target="_top" xlink:title="Internal functions / class definitions for the Tx Group functionality.">
<polygon fill="none" stroke="black" points="402,-19 268,-19 268,0 402,0 402,-19"/>
<text text-anchor="middle" x="335" y="-7" font-family="Helvetica,sans-Serif" font-size="10.00">Z&#45;Wave Tx Group internals</text>
</a>
</g>
</g>
<!-- Node1&#45;&gt;Node3 -->
<g id="edge2" class="edge">
<title>Node1&#45;&gt;Node3</title>
<path fill="none" stroke="black" d="M242.18,-9.5C250.58,-9.5 259.25,-9.5 267.76,-9.5"/>
<polygon fill="black" stroke="black" points="242.11,-6 232.11,-9.5 242.11,-13 242.11,-6"/>
</g>
</g>
</svg>
