<?xml version="1.0" encoding="UTF-8" standalone="no"?>
<!DOCTYPE svg PUBLIC "-//W3C//DTD SVG 1.1//EN"
 "http://www.w3.org/Graphics/SVG/1.1/DTD/svg11.dtd">
<!-- Generated by graphviz version 2.43.0 (0)
 -->
<!-- Title: zwapi_is_pti_supported Pages: 1 -->
<svg width="593pt" height="121pt"
 viewBox="0.00 0.00 593.00 120.50" xmlns="http://www.w3.org/2000/svg" xmlns:xlink="http://www.w3.org/1999/xlink">
<g id="graph0" class="graph" transform="scale(1 1) rotate(0) translate(4 116.5)">
<title>zwapi_is_pti_supported</title>
<!-- Node1 -->
<g id="node1" class="node">
<title>Node1</title>
<g id="a_node1"><a xlink:title="Check if PTI supported.">
<polygon fill="#bfbfbf" stroke="black" points="466,-57.5 466,-76.5 585,-76.5 585,-57.5 466,-57.5"/>
<text text-anchor="middle" x="525.5" y="-64.5" font-family="Helvetica,sans-Serif" font-size="10.00">zwapi_is_pti_supported</text>
</a>
</g>
</g>
<!-- Node2 -->
<g id="node2" class="node">
<title>Node2</title>
<g id="a_node2"><a xlink:href="zcl__rf__telemetry__cluster__server_8c.html#a1e8dfd4a69c7e891fee248299e506299" target="_top" xlink:title=" ">
<polygon fill="none" stroke="black" points="170,-82 170,-112 271,-112 271,-82 170,-82"/>
<text text-anchor="start" x="178" y="-100" font-family="Helvetica,sans-Serif" font-size="10.00">create_rf_telemetry</text>
<text text-anchor="middle" x="220.5" y="-89" font-family="Helvetica,sans-Serif" font-size="10.00">_attributes</text>
</a>
</g>
</g>
<!-- Node1&#45;&gt;Node2 -->
<g id="edge1" class="edge">
<title>Node1&#45;&gt;Node2</title>
<path fill="none" stroke="midnightblue" d="M497.68,-81C479.21,-89.82 453.8,-100.39 430,-105 376.48,-115.36 313.82,-110.77 271.27,-105.23"/>
<polygon fill="midnightblue" stroke="midnightblue" points="499.24,-84.13 506.67,-76.58 496.15,-77.85 499.24,-84.13"/>
</g>
<!-- Node4 -->
<g id="node4" class="node">
<title>Node4</title>
<g id="a_node4"><a xlink:href="zcl__rf__telemetry__cluster__server_8c.html#ac29ff666c3782d03a6bc8735c6d0f54a" target="_top" xlink:title=" ">
<polygon fill="none" stroke="black" points="157,-33 157,-63 284,-63 284,-33 157,-33"/>
<text text-anchor="start" x="165" y="-51" font-family="Helvetica,sans-Serif" font-size="10.00">on_rf_telemetry_pti</text>
<text text-anchor="middle" x="220.5" y="-40" font-family="Helvetica,sans-Serif" font-size="10.00">_enabled_desired_update</text>
</a>
</g>
</g>
<!-- Node1&#45;&gt;Node4 -->
<g id="edge3" class="edge">
<title>Node1&#45;&gt;Node4</title>
<path fill="none" stroke="midnightblue" d="M455.66,-62.68C404.06,-59.45 334.03,-55.06 284.03,-51.92"/>
<polygon fill="midnightblue" stroke="midnightblue" points="455.52,-66.18 465.72,-63.31 455.96,-59.2 455.52,-66.18"/>
</g>
<!-- Node5 -->
<g id="node5" class="node">
<title>Node5</title>
<g id="a_node5"><a xlink:href="group__ZWAPI__BASIS.html#ga8ef95c3354c75a1a1207bceabee2cf8f" target="_top" xlink:title="Get the current state of pti.">
<polygon fill="none" stroke="black" points="320,-76.5 320,-95.5 430,-95.5 430,-76.5 320,-76.5"/>
<text text-anchor="middle" x="375" y="-83.5" font-family="Helvetica,sans-Serif" font-size="10.00">zwapi_is_pti_enabled</text>
</a>
</g>
</g>
<!-- Node1&#45;&gt;Node5 -->
<g id="edge5" class="edge">
<title>Node1&#45;&gt;Node5</title>
<path fill="none" stroke="midnightblue" d="M455.86,-75.78C447.32,-76.87 438.68,-77.98 430.4,-79.04"/>
<polygon fill="midnightblue" stroke="midnightblue" points="456.33,-79.25 465.81,-74.51 455.45,-72.31 456.33,-79.25"/>
</g>
<!-- Node6 -->
<g id="node6" class="node">
<title>Node6</title>
<g id="a_node6"><a xlink:href="group__ZWAPI__BASIS.html#gafc1f4acff537f49394b9eb393344c19c" target="_top" xlink:title="Enable/disable the PTI on Z&#45;Wave Radio.">
<polygon fill="none" stroke="black" points="323.5,-0.5 323.5,-19.5 426.5,-19.5 426.5,-0.5 323.5,-0.5"/>
<text text-anchor="middle" x="375" y="-7.5" font-family="Helvetica,sans-Serif" font-size="10.00">zwapi_set_radio_pti</text>
</a>
</g>
</g>
<!-- Node1&#45;&gt;Node6 -->
<g id="edge8" class="edge">
<title>Node1&#45;&gt;Node6</title>
<path fill="none" stroke="midnightblue" d="M490.1,-53.8C462.84,-43.33 425.38,-28.95 400.94,-19.57"/>
<polygon fill="midnightblue" stroke="midnightblue" points="489.05,-57.14 499.64,-57.46 491.56,-50.61 489.05,-57.14"/>
</g>
<!-- Node3 -->
<g id="node3" class="node">
<title>Node3</title>
<g id="a_node3"><a xlink:href="group__zcl__rf__telemetry__cluster__server.html#ga5a27d7313f0a22b85af05134a114a799" target="_top" xlink:title="Initialize the ZCL ProtocolController RF Telemetry cluster service.">
<polygon fill="none" stroke="black" points="0,-57 0,-87 121,-87 121,-57 0,-57"/>
<text text-anchor="start" x="8" y="-75" font-family="Helvetica,sans-Serif" font-size="10.00">zcl_rf_telemetry_cluster</text>
<text text-anchor="middle" x="60.5" y="-64" font-family="Helvetica,sans-Serif" font-size="10.00">_server_init</text>
</a>
</g>
</g>
<!-- Node2&#45;&gt;Node3 -->
<g id="edge2" class="edge">
<title>Node2&#45;&gt;Node3</title>
<path fill="none" stroke="midnightblue" d="M159.94,-87.58C147.25,-85.57 133.84,-83.45 121.14,-81.44"/>
<polygon fill="midnightblue" stroke="midnightblue" points="159.52,-91.05 169.94,-89.16 160.61,-84.14 159.52,-91.05"/>
</g>
<!-- Node4&#45;&gt;Node3 -->
<g id="edge4" class="edge">
<title>Node4&#45;&gt;Node3</title>
<path fill="none" stroke="midnightblue" d="M146.63,-59.07C138.08,-60.37 129.44,-61.68 121.1,-62.95"/>
<polygon fill="midnightblue" stroke="midnightblue" points="147.24,-62.52 156.6,-57.55 146.19,-55.6 147.24,-62.52"/>
</g>
<!-- Node5&#45;&gt;Node2 -->
<g id="edge6" class="edge">
<title>Node5&#45;&gt;Node2</title>
<path fill="none" stroke="midnightblue" d="M309.63,-90.64C296.77,-91.57 283.46,-92.53 271.2,-93.42"/>
<polygon fill="midnightblue" stroke="midnightblue" points="310.08,-94.12 319.8,-89.91 309.58,-87.14 310.08,-94.12"/>
</g>
<!-- Node5&#45;&gt;Node4 -->
<g id="edge7" class="edge">
<title>Node5&#45;&gt;Node4</title>
<path fill="none" stroke="midnightblue" d="M325.69,-73.96C311.79,-70.5 296.46,-66.68 281.94,-63.06"/>
<polygon fill="midnightblue" stroke="midnightblue" points="324.97,-77.39 335.52,-76.41 326.66,-70.6 324.97,-77.39"/>
</g>
<!-- Node6&#45;&gt;Node4 -->
<g id="edge9" class="edge">
<title>Node6&#45;&gt;Node4</title>
<path fill="none" stroke="midnightblue" d="M325.69,-22.04C311.79,-25.5 296.46,-29.32 281.94,-32.94"/>
<polygon fill="midnightblue" stroke="midnightblue" points="326.66,-25.4 335.52,-19.59 324.97,-18.61 326.66,-25.4"/>
</g>
</g>
</svg>
