<?xml version="1.0" encoding="UTF-8" standalone="no"?>
<!DOCTYPE svg PUBLIC "-//W3C//DTD SVG 1.1//EN"
 "http://www.w3.org/Graphics/SVG/1.1/DTD/svg11.dtd">
<!-- Generated by graphviz version 2.43.0 (0)
 -->
<!-- Title: s0_scheme_report_received Pages: 1 -->
<svg width="1038pt" height="482pt"
 viewBox="0.00 0.00 1038.00 481.56" xmlns="http://www.w3.org/2000/svg" xmlns:xlink="http://www.w3.org/1999/xlink">
<g id="graph0" class="graph" transform="scale(1 1) rotate(0) translate(4 477.56)">
<title>s0_scheme_report_received</title>
<!-- Node1 -->
<g id="node1" class="node">
<title>Node1</title>
<g id="a_node1"><a xlink:title="This function is used to notify the S0 Inclusion state machine that S0 Scheme report frame was receiv...">
<polygon fill="#bfbfbf" stroke="black" points="0,-209.5 0,-228.5 139,-228.5 139,-209.5 0,-209.5"/>
<text text-anchor="middle" x="69.5" y="-216.5" font-family="Helvetica,sans-Serif" font-size="10.00">s0_scheme_report_received</text>
</a>
</g>
</g>
<!-- Node2 -->
<g id="node2" class="node">
<title>Node2</title>
<g id="a_node2"><a xlink:href="zwave__s0__sm_8c.html#a84e7be6182bb4e2f919fb2a3733e6ca1" target="_top" xlink:title=" ">
<polygon fill="none" stroke="black" points="175,-209.5 175,-228.5 290,-228.5 290,-209.5 175,-209.5"/>
<text text-anchor="middle" x="232.5" y="-216.5" font-family="Helvetica,sans-Serif" font-size="10.00">s0_sm_process_event</text>
</a>
</g>
</g>
<!-- Node1&#45;&gt;Node2 -->
<g id="edge1" class="edge">
<title>Node1&#45;&gt;Node2</title>
<path fill="none" stroke="midnightblue" d="M139.25,-219C147.63,-219 156.19,-219 164.55,-219"/>
<polygon fill="midnightblue" stroke="midnightblue" points="164.62,-222.5 174.62,-219 164.62,-215.5 164.62,-222.5"/>
</g>
<!-- Node2&#45;&gt;Node2 -->
<g id="edge28" class="edge">
<title>Node2&#45;&gt;Node2</title>
<path fill="none" stroke="midnightblue" d="M208.15,-228.76C196.3,-237.57 204.42,-247 232.5,-247 250.93,-247 260.76,-242.94 261.99,-237.65"/>
<polygon fill="midnightblue" stroke="midnightblue" points="264.89,-235.66 256.85,-228.76 258.82,-239.17 264.89,-235.66"/>
</g>
<!-- Node3 -->
<g id="node3" class="node">
<title>Node3</title>
<g id="a_node3"><a xlink:href="zwave__s2__keystore_8c.html#a1f1d747c23d661a2e64ebb4812ed2faa" target="_top" xlink:title=" ">
<polygon fill="none" stroke="black" points="492,-383.5 492,-402.5 631,-402.5 631,-383.5 492,-383.5"/>
<text text-anchor="middle" x="561.5" y="-390.5" font-family="Helvetica,sans-Serif" font-size="10.00">keystore_network_key_read</text>
</a>
</g>
</g>
<!-- Node2&#45;&gt;Node3 -->
<g id="edge2" class="edge">
<title>Node2&#45;&gt;Node3</title>
<path fill="none" stroke="midnightblue" d="M234.71,-228.84C239.33,-261.59 259.12,-367.18 326,-409 388.82,-448.29 480.51,-423.79 528.5,-406.23"/>
<polygon fill="midnightblue" stroke="midnightblue" points="529.94,-409.43 538.05,-402.61 527.46,-402.88 529.94,-409.43"/>
</g>
<!-- Node5 -->
<g id="node5" class="node">
<title>Node5</title>
<g id="a_node5"><a xlink:href="zwave__s0__sm_8c.html#add560d910f441570d80bd78fb591f7f0" target="_top" xlink:title=" ">
<polygon fill="none" stroke="black" points="354.5,-152.5 354.5,-171.5 427.5,-171.5 427.5,-152.5 354.5,-152.5"/>
<text text-anchor="middle" x="391" y="-159.5" font-family="Helvetica,sans-Serif" font-size="10.00">reset_s0_sm</text>
</a>
</g>
</g>
<!-- Node2&#45;&gt;Node5 -->
<g id="edge4" class="edge">
<title>Node2&#45;&gt;Node5</title>
<path fill="none" stroke="midnightblue" d="M259.69,-209.46C285.54,-200.05 325.24,-185.59 354.03,-175.1"/>
<polygon fill="midnightblue" stroke="midnightblue" points="355.52,-178.28 363.72,-171.57 353.13,-171.71 355.52,-178.28"/>
</g>
<!-- Node6 -->
<g id="node6" class="node">
<title>Node6</title>
<g id="a_node6"><a xlink:href="zwave__s0__sm_8c.html#a5535f6c7a7f108f00512a88bbc3cf015" target="_top" xlink:title=" ">
<polygon fill="none" stroke="black" points="341,-114.5 341,-133.5 441,-133.5 441,-114.5 341,-114.5"/>
<text text-anchor="middle" x="391" y="-121.5" font-family="Helvetica,sans-Serif" font-size="10.00">s0_abort_bootstrap</text>
</a>
</g>
</g>
<!-- Node2&#45;&gt;Node6 -->
<g id="edge5" class="edge">
<title>Node2&#45;&gt;Node6</title>
<path fill="none" stroke="midnightblue" d="M242.56,-209.39C258.14,-193.38 291.67,-161.23 326,-143 330.19,-140.77 334.68,-138.77 339.27,-136.98"/>
<polygon fill="midnightblue" stroke="midnightblue" points="340.51,-140.26 348.75,-133.6 338.15,-133.66 340.51,-140.26"/>
</g>
<!-- Node7 -->
<g id="node7" class="node">
<title>Node7</title>
<g id="a_node7"><a xlink:href="zwave__s0__sm_8c.html#ac4a1feff6714dea8c75a7bf410f8e7b3" target="_top" xlink:title=" ">
<polygon fill="none" stroke="black" points="347,-76.5 347,-95.5 435,-95.5 435,-76.5 347,-76.5"/>
<text text-anchor="middle" x="391" y="-83.5" font-family="Helvetica,sans-Serif" font-size="10.00">s0_action_name</text>
</a>
</g>
</g>
<!-- Node2&#45;&gt;Node7 -->
<g id="edge6" class="edge">
<title>Node2&#45;&gt;Node7</title>
<path fill="none" stroke="midnightblue" d="M238.58,-209.42C250.67,-187.5 283.4,-133.45 326,-105 329.52,-102.65 333.35,-100.58 337.31,-98.76"/>
<polygon fill="midnightblue" stroke="midnightblue" points="338.78,-101.94 346.74,-94.96 336.16,-95.45 338.78,-101.94"/>
</g>
<!-- Node8 -->
<g id="node8" class="node">
<title>Node8</title>
<g id="a_node8"><a xlink:href="zwave__s0__sm_8c.html#ae7d7875e43e863fb4d53684caa29c328" target="_top" xlink:title=" ">
<polygon fill="none" stroke="black" points="348,-38.5 348,-57.5 434,-57.5 434,-38.5 348,-38.5"/>
<text text-anchor="middle" x="391" y="-45.5" font-family="Helvetica,sans-Serif" font-size="10.00">s0_event_name</text>
</a>
</g>
</g>
<!-- Node2&#45;&gt;Node8 -->
<g id="edge7" class="edge">
<title>Node2&#45;&gt;Node8</title>
<path fill="none" stroke="midnightblue" d="M236.54,-209.49C245.57,-182.78 274.85,-106.4 326,-67 329.82,-64.06 334.08,-61.57 338.55,-59.47"/>
<polygon fill="midnightblue" stroke="midnightblue" points="339.96,-62.67 347.92,-55.67 337.34,-56.19 339.96,-62.67"/>
</g>
<!-- Node9 -->
<g id="node9" class="node">
<title>Node9</title>
<g id="a_node9"><a xlink:href="zwave__s0__sm_8c.html#ab4101f12d142bd597954a665c6acc700" target="_top" xlink:title=" ">
<polygon fill="none" stroke="black" points="326,-0.5 326,-19.5 456,-19.5 456,-0.5 326,-0.5"/>
<text text-anchor="middle" x="391" y="-7.5" font-family="Helvetica,sans-Serif" font-size="10.00">s0_handle_net_key_verify</text>
</a>
</g>
</g>
<!-- Node2&#45;&gt;Node9 -->
<g id="edge8" class="edge">
<title>Node2&#45;&gt;Node9</title>
<path fill="none" stroke="midnightblue" d="M234.67,-209.49C239.72,-178.21 261.94,-81.09 319.02,-26.34"/>
<polygon fill="midnightblue" stroke="midnightblue" points="321.46,-28.85 326.53,-19.55 316.77,-23.66 321.46,-28.85"/>
</g>
<!-- Node10 -->
<g id="node10" class="node">
<title>Node10</title>
<g id="a_node10"><a xlink:href="zwave__s0__sm_8c.html#a20cff68208370a488cd06efdfeaaa7cb" target="_top" xlink:title=" ">
<polygon fill="none" stroke="black" points="926,-302.5 926,-321.5 1030,-321.5 1030,-302.5 926,-302.5"/>
<text text-anchor="middle" x="978" y="-309.5" font-family="Helvetica,sans-Serif" font-size="10.00">s0_incl_state_name</text>
</a>
</g>
</g>
<!-- Node2&#45;&gt;Node10 -->
<g id="edge10" class="edge">
<title>Node2&#45;&gt;Node10</title>
<path fill="none" stroke="midnightblue" d="M234.42,-228.68C238.25,-263.01 256.15,-379.75 326,-433 409.7,-496.8 455.25,-466 560.5,-466 560.5,-466 560.5,-466 729,-466 831.68,-466 927.16,-369.56 962.53,-329.31"/>
<polygon fill="midnightblue" stroke="midnightblue" points="965.27,-331.49 969.14,-321.63 959.96,-326.92 965.27,-331.49"/>
</g>
<!-- Node11 -->
<g id="node11" class="node">
<title>Node11</title>
<g id="a_node11"><a xlink:href="zwave__s0__sm_8c.html#a18d289e278b9c3e3e7b023fb315bff7e" target="_top" xlink:title=" ">
<polygon fill="none" stroke="black" points="344.5,-342.5 344.5,-361.5 437.5,-361.5 437.5,-342.5 344.5,-342.5"/>
<text text-anchor="middle" x="391" y="-349.5" font-family="Helvetica,sans-Serif" font-size="10.00">s0_send_key_set</text>
</a>
</g>
</g>
<!-- Node2&#45;&gt;Node11 -->
<g id="edge11" class="edge">
<title>Node2&#45;&gt;Node11</title>
<path fill="none" stroke="midnightblue" d="M238.58,-228.58C250.67,-250.5 283.4,-304.55 326,-333 329.07,-335.05 332.37,-336.89 335.79,-338.53"/>
<polygon fill="midnightblue" stroke="midnightblue" points="334.49,-341.78 345.07,-342.43 337.21,-335.33 334.49,-341.78"/>
</g>
<!-- Node16 -->
<g id="node16" class="node">
<title>Node16</title>
<g id="a_node16"><a xlink:href="group__zwave__s0__transport.html#ga0751a5b8e725df3e789789230b886395" target="_top" xlink:title="Set the S0 network key.">
<polygon fill="none" stroke="black" points="528,-228.5 528,-247.5 595,-247.5 595,-228.5 528,-228.5"/>
<text text-anchor="middle" x="561.5" y="-235.5" font-family="Helvetica,sans-Serif" font-size="10.00">s0_set_key</text>
</a>
</g>
</g>
<!-- Node2&#45;&gt;Node16 -->
<g id="edge27" class="edge">
<title>Node2&#45;&gt;Node16</title>
<path fill="none" stroke="midnightblue" d="M290.09,-222.29C354.79,-226.05 459.27,-232.12 517.61,-235.51"/>
<polygon fill="midnightblue" stroke="midnightblue" points="517.76,-239.02 527.95,-236.11 518.17,-232.03 517.76,-239.02"/>
</g>
<!-- Node18 -->
<g id="node18" class="node">
<title>Node18</title>
<g id="a_node18"><a xlink:href="zwave__s0__sm_8c.html#aa3efb68081afc5686d48ee8ee23696a1" target="_top" xlink:title=" ">
<polygon fill="none" stroke="black" points="335,-304.5 335,-323.5 447,-323.5 447,-304.5 335,-304.5"/>
<text text-anchor="middle" x="391" y="-311.5" font-family="Helvetica,sans-Serif" font-size="10.00">s0_send_scheme_get</text>
</a>
</g>
</g>
<!-- Node2&#45;&gt;Node18 -->
<g id="edge23" class="edge">
<title>Node2&#45;&gt;Node18</title>
<path fill="none" stroke="midnightblue" d="M243.87,-228.64C260.26,-243.47 293.61,-272.02 326,-290 333.3,-294.05 341.43,-297.69 349.37,-300.84"/>
<polygon fill="midnightblue" stroke="midnightblue" points="348.31,-304.18 358.9,-304.42 350.78,-297.63 348.31,-304.18"/>
</g>
<!-- Node19 -->
<g id="node19" class="node">
<title>Node19</title>
<g id="a_node19"><a xlink:href="zwave__s0__sm_8c.html#a042415cb1b240d0867977bb22cd4e0a7" target="_top" xlink:title=" ">
<polygon fill="none" stroke="black" points="328.5,-380.5 328.5,-399.5 453.5,-399.5 453.5,-380.5 328.5,-380.5"/>
<text text-anchor="middle" x="391" y="-387.5" font-family="Helvetica,sans-Serif" font-size="10.00">s0_send_scheme_inherit</text>
</a>
</g>
</g>
<!-- Node2&#45;&gt;Node19 -->
<g id="edge25" class="edge">
<title>Node2&#45;&gt;Node19</title>
<path fill="none" stroke="midnightblue" d="M236.54,-228.51C245.57,-255.22 274.85,-331.6 326,-371 328.45,-372.88 331.08,-374.58 333.83,-376.11"/>
<polygon fill="midnightblue" stroke="midnightblue" points="332.4,-379.31 342.93,-380.45 335.41,-372.99 332.4,-379.31"/>
</g>
<!-- Node4 -->
<g id="node4" class="node">
<title>Node4</title>
<g id="a_node4"><a xlink:href="group__zwave__s2__keystore.html#ga42cbe7b3856c32fcde78b52c3b0be2ae" target="_top" xlink:title="Get the set of the currently assigned keys.">
<polygon fill="none" stroke="black" points="667,-378 667,-408 789,-408 789,-378 667,-378"/>
<text text-anchor="start" x="675" y="-396" font-family="Helvetica,sans-Serif" font-size="10.00">zwave_s2_keystore_get</text>
<text text-anchor="middle" x="728" y="-385" font-family="Helvetica,sans-Serif" font-size="10.00">_assigned_keys</text>
</a>
</g>
</g>
<!-- Node3&#45;&gt;Node4 -->
<g id="edge3" class="edge">
<title>Node3&#45;&gt;Node4</title>
<path fill="none" stroke="midnightblue" d="M631.31,-393C639.7,-393 648.28,-393 656.68,-393"/>
<polygon fill="midnightblue" stroke="midnightblue" points="656.83,-396.5 666.83,-393 656.83,-389.5 656.83,-396.5"/>
</g>
<!-- Node9&#45;&gt;Node2 -->
<g id="edge9" class="edge">
<title>Node9&#45;&gt;Node2</title>
<path fill="none" stroke="midnightblue" d="M368.92,-19.54C355.34,-23.08 338.02,-27.81 326,-38 274.04,-82.05 248.79,-162.15 238.84,-199.4"/>
<polygon fill="midnightblue" stroke="midnightblue" points="235.45,-198.54 236.33,-209.1 242.23,-200.3 235.45,-198.54"/>
</g>
<!-- Node11&#45;&gt;Node3 -->
<g id="edge12" class="edge">
<title>Node11&#45;&gt;Node3</title>
<path fill="none" stroke="midnightblue" d="M431.08,-361.51C455.03,-367.34 485.88,-374.84 511.46,-381.07"/>
<polygon fill="midnightblue" stroke="midnightblue" points="510.8,-384.51 521.34,-383.47 512.45,-377.71 510.8,-384.51"/>
</g>
<!-- Node12 -->
<g id="node12" class="node">
<title>Node12</title>
<g id="a_node12"><a xlink:href="zwave__s0__sm_8c.html#ad13d142fc4acb596e25c9e0b0afa6b8a" target="_top" xlink:title=" ">
<polygon fill="none" stroke="black" points="507.5,-319 507.5,-349 615.5,-349 615.5,-319 507.5,-319"/>
<text text-anchor="start" x="515.5" y="-337" font-family="Helvetica,sans-Serif" font-size="10.00">s0_bootstrap_frames</text>
<text text-anchor="middle" x="561.5" y="-326" font-family="Helvetica,sans-Serif" font-size="10.00">_generic_send</text>
</a>
</g>
</g>
<!-- Node11&#45;&gt;Node12 -->
<g id="edge13" class="edge">
<title>Node11&#45;&gt;Node12</title>
<path fill="none" stroke="midnightblue" d="M437.6,-347.13C455.94,-345.17 477.4,-342.88 497.22,-340.76"/>
<polygon fill="midnightblue" stroke="midnightblue" points="497.83,-344.21 507.4,-339.67 497.08,-337.25 497.83,-344.21"/>
</g>
<!-- Node11&#45;&gt;Node16 -->
<g id="edge21" class="edge">
<title>Node11&#45;&gt;Node16</title>
<path fill="none" stroke="midnightblue" d="M434.08,-342.46C441.63,-339.93 449.23,-336.81 456,-333 492.77,-312.28 527.34,-276.47 546.05,-255.23"/>
<polygon fill="midnightblue" stroke="midnightblue" points="548.74,-257.47 552.62,-247.61 543.44,-252.89 548.74,-257.47"/>
</g>
<!-- Node13 -->
<g id="node13" class="node">
<title>Node13</title>
<g id="a_node13"><a xlink:href="zwave__s0__sm_8c.html#a4f4ada1cafbd76ff9d9af5fab6fe23eb" target="_top" xlink:title=" ">
<polygon fill="none" stroke="black" points="668.5,-283.5 668.5,-302.5 787.5,-302.5 787.5,-283.5 668.5,-283.5"/>
<text text-anchor="middle" x="728" y="-290.5" font-family="Helvetica,sans-Serif" font-size="10.00">s0_send_data_callback</text>
</a>
</g>
</g>
<!-- Node12&#45;&gt;Node13 -->
<g id="edge14" class="edge">
<title>Node12&#45;&gt;Node13</title>
<path fill="none" stroke="midnightblue" d="M615.91,-320.69C636.21,-315.63 659.2,-309.9 678.98,-304.97"/>
<polygon fill="midnightblue" stroke="midnightblue" points="679.84,-308.36 688.7,-302.55 678.15,-301.57 679.84,-308.36"/>
</g>
<!-- Node15 -->
<g id="node15" class="node">
<title>Node15</title>
<g id="a_node15"><a xlink:href="group__zwave__tx.html#gad1538f36d226fe8147c5e538625568df" target="_top" xlink:title="Queue and send frames to Z&#45;Wave nodes.">
<polygon fill="none" stroke="black" points="673.5,-324.5 673.5,-343.5 782.5,-343.5 782.5,-324.5 673.5,-324.5"/>
<text text-anchor="middle" x="728" y="-331.5" font-family="Helvetica,sans-Serif" font-size="10.00">zwave_tx_send_data</text>
</a>
</g>
</g>
<!-- Node12&#45;&gt;Node15 -->
<g id="edge20" class="edge">
<title>Node12&#45;&gt;Node15</title>
<path fill="none" stroke="midnightblue" d="M615.91,-334C630.99,-334 647.56,-334 663.19,-334"/>
<polygon fill="midnightblue" stroke="midnightblue" points="663.3,-337.5 673.3,-334 663.3,-330.5 663.3,-337.5"/>
</g>
<!-- Node13&#45;&gt;Node2 -->
<g id="edge16" class="edge">
<title>Node13&#45;&gt;Node2</title>
<path fill="none" stroke="midnightblue" d="M668.19,-288.08C589.7,-280.96 446.59,-266.06 326,-243 309.56,-239.86 291.71,-235.46 276.11,-231.29"/>
<polygon fill="midnightblue" stroke="midnightblue" points="276.8,-227.85 266.23,-228.6 274.96,-234.6 276.8,-227.85"/>
</g>
<!-- Node13&#45;&gt;Node10 -->
<g id="edge15" class="edge">
<title>Node13&#45;&gt;Node10</title>
<path fill="none" stroke="midnightblue" d="M787.77,-297.5C826.3,-300.45 876.57,-304.31 915.61,-307.3"/>
<polygon fill="midnightblue" stroke="midnightblue" points="915.55,-310.8 925.79,-308.08 916.09,-303.82 915.55,-310.8"/>
</g>
<!-- Node14 -->
<g id="node14" class="node">
<title>Node14</title>
<g id="a_node14"><a xlink:href="zwave__s0__sm_8c.html#aaf909f4fdf4e6d4d910f4ab30f2e9c21" target="_top" xlink:title=" ">
<polygon fill="none" stroke="black" points="825,-264.5 825,-283.5 890,-283.5 890,-264.5 825,-264.5"/>
<text text-anchor="middle" x="857.5" y="-271.5" font-family="Helvetica,sans-Serif" font-size="10.00">s0_timeout</text>
</a>
</g>
</g>
<!-- Node13&#45;&gt;Node14 -->
<g id="edge17" class="edge">
<title>Node13&#45;&gt;Node14</title>
<path fill="none" stroke="midnightblue" d="M787.53,-284.28C796.75,-282.9 806.12,-281.51 814.85,-280.21"/>
<polygon fill="midnightblue" stroke="midnightblue" points="815.4,-283.66 824.77,-278.73 814.37,-276.74 815.4,-283.66"/>
</g>
<!-- Node14&#45;&gt;Node2 -->
<g id="edge19" class="edge">
<title>Node14&#45;&gt;Node2</title>
<path fill="none" stroke="midnightblue" d="M848.58,-264.31C837.08,-251.09 814.35,-228.02 789,-219 614.19,-156.8 388.38,-188.09 286.96,-207.48"/>
<polygon fill="midnightblue" stroke="midnightblue" points="286.11,-204.08 276.96,-209.43 287.45,-210.95 286.11,-204.08"/>
</g>
<!-- Node14&#45;&gt;Node10 -->
<g id="edge18" class="edge">
<title>Node14&#45;&gt;Node10</title>
<path fill="none" stroke="midnightblue" d="M888.4,-283.59C903.28,-288.36 921.46,-294.19 937.47,-299.32"/>
<polygon fill="midnightblue" stroke="midnightblue" points="936.52,-302.69 947.11,-302.41 938.65,-296.03 936.52,-302.69"/>
</g>
<!-- Node17 -->
<g id="node17" class="node">
<title>Node17</title>
<g id="a_node17"><a xlink:href="zwave__s0__transport_8c.html#a81a1edfa8dd156b07bbe49d8c85095bf" target="_top" xlink:title=" ">
<polygon fill="none" stroke="black" points="693,-228.5 693,-247.5 763,-247.5 763,-228.5 693,-228.5"/>
<text text-anchor="middle" x="728" y="-235.5" font-family="Helvetica,sans-Serif" font-size="10.00">aes_encrypt</text>
</a>
</g>
</g>
<!-- Node16&#45;&gt;Node17 -->
<g id="edge22" class="edge">
<title>Node16&#45;&gt;Node17</title>
<path fill="none" stroke="midnightblue" d="M595.39,-238C620.42,-238 655.12,-238 682.6,-238"/>
<polygon fill="midnightblue" stroke="midnightblue" points="682.75,-241.5 692.75,-238 682.75,-234.5 682.75,-241.5"/>
</g>
<!-- Node18&#45;&gt;Node12 -->
<g id="edge24" class="edge">
<title>Node18&#45;&gt;Node12</title>
<path fill="none" stroke="midnightblue" d="M447.17,-320.55C463.23,-322.45 480.89,-324.55 497.39,-326.51"/>
<polygon fill="midnightblue" stroke="midnightblue" points="497.15,-330.01 507.5,-327.71 497.98,-323.05 497.15,-330.01"/>
</g>
<!-- Node19&#45;&gt;Node12 -->
<g id="edge26" class="edge">
<title>Node19&#45;&gt;Node12</title>
<path fill="none" stroke="midnightblue" d="M425.32,-380.46C435.22,-377.53 446.08,-374.23 456,-371 473.59,-365.28 492.71,-358.64 509.73,-352.57"/>
<polygon fill="midnightblue" stroke="midnightblue" points="511.24,-355.75 519.47,-349.08 508.88,-349.16 511.24,-355.75"/>
</g>
</g>
</svg>
