<?xml version="1.0" encoding="UTF-8" standalone="no"?>
<!DOCTYPE svg PUBLIC "-//W3C//DTD SVG 1.1//EN"
 "http://www.w3.org/Graphics/SVG/1.1/DTD/svg11.dtd">
<!-- Generated by graphviz version 2.43.0 (0)
 -->
<!-- Title: zwapi_set_default Pages: 1 -->
<svg width="393pt" height="84pt"
 viewBox="0.00 0.00 393.00 84.00" xmlns="http://www.w3.org/2000/svg" xmlns:xlink="http://www.w3.org/1999/xlink">
<g id="graph0" class="graph" transform="scale(1 1) rotate(0) translate(4 80)">
<title>zwapi_set_default</title>
<!-- Node1 -->
<g id="node1" class="node">
<title>Node1</title>
<g id="a_node1"><a xlink:title="Remove all Nodes and timers from the EEPROM memory.">
<polygon fill="#bfbfbf" stroke="black" points="290,-19.5 290,-38.5 385,-38.5 385,-19.5 290,-19.5"/>
<text text-anchor="middle" x="337.5" y="-26.5" font-family="Helvetica,sans-Serif" font-size="10.00">zwapi_set_default</text>
</a>
</g>
</g>
<!-- Node2 -->
<g id="node2" class="node">
<title>Node2</title>
<g id="a_node2"><a xlink:href="nm__state__machine_8c.html#ac9fe4041f9ca45bad16c9b6ad7bae02f" target="_top" xlink:title=" ">
<polygon fill="none" stroke="black" points="149,-38.5 149,-57.5 254,-57.5 254,-38.5 149,-38.5"/>
<text text-anchor="middle" x="201.5" y="-45.5" font-family="Helvetica,sans-Serif" font-size="10.00">nm_fsm_post_event</text>
</a>
</g>
</g>
<!-- Node1&#45;&gt;Node2 -->
<g id="edge1" class="edge">
<title>Node1&#45;&gt;Node2</title>
<path fill="none" stroke="midnightblue" d="M279.5,-37.08C271.08,-38.28 262.44,-39.5 254.14,-40.68"/>
<polygon fill="midnightblue" stroke="midnightblue" points="280.22,-40.51 289.63,-35.65 279.24,-33.58 280.22,-40.51"/>
</g>
<!-- Node4 -->
<g id="node4" class="node">
<title>Node4</title>
<g id="a_node4"><a xlink:href="ext__nvm__tools_8c.html#acef510833d69d86e376fa1ef62223e23" target="_top" xlink:title=" ">
<polygon fill="none" stroke="black" points="151.5,-0.5 151.5,-19.5 251.5,-19.5 251.5,-0.5 151.5,-0.5"/>
<text text-anchor="middle" x="201.5" y="-7.5" font-family="Helvetica,sans-Serif" font-size="10.00">ZW_NVM_Restore</text>
</a>
</g>
</g>
<!-- Node1&#45;&gt;Node4 -->
<g id="edge4" class="edge">
<title>Node1&#45;&gt;Node4</title>
<path fill="none" stroke="midnightblue" d="M279.72,-20.95C270.45,-19.63 260.91,-18.28 251.84,-17"/>
<polygon fill="midnightblue" stroke="midnightblue" points="279.24,-24.42 289.63,-22.35 280.22,-17.49 279.24,-24.42"/>
</g>
<!-- Node2&#45;&gt;Node2 -->
<g id="edge2" class="edge">
<title>Node2&#45;&gt;Node2</title>
<path fill="none" stroke="midnightblue" d="M226.8,-67.03C225.42,-72.13 216.99,-76 201.5,-76 177.33,-76 170.34,-66.57 180.54,-57.76"/>
<polygon fill="midnightblue" stroke="midnightblue" points="229.87,-65.33 222.46,-57.76 223.53,-68.3 229.87,-65.33"/>
</g>
<!-- Node3 -->
<g id="node3" class="node">
<title>Node3</title>
<g id="a_node3"><a xlink:href="zwave__network__management__process_8c.html#a59cf655b084839b45cc25e23b3aef04c" target="_top" xlink:title=" ">
<polygon fill="none" stroke="black" points="0,-38.5 0,-57.5 113,-57.5 113,-38.5 0,-38.5"/>
<text text-anchor="middle" x="56.5" y="-45.5" font-family="Helvetica,sans-Serif" font-size="10.00">PROCESS_THREAD</text>
</a>
</g>
</g>
<!-- Node2&#45;&gt;Node3 -->
<g id="edge3" class="edge">
<title>Node2&#45;&gt;Node3</title>
<path fill="none" stroke="midnightblue" d="M138.73,-48C130.31,-48 121.71,-48 113.4,-48"/>
<polygon fill="midnightblue" stroke="midnightblue" points="138.87,-51.5 148.87,-48 138.87,-44.5 138.87,-51.5"/>
</g>
</g>
</svg>
