<?xml version="1.0" encoding="UTF-8" standalone="no"?>
<!DOCTYPE svg PUBLIC "-//W3C//DTD SVG 1.1//EN"
 "http://www.w3.org/Graphics/SVG/1.1/DTD/svg11.dtd">
<!-- Generated by graphviz version 2.43.0 (0)
 -->
<!-- Title: zwave_command_class_multi_channel_send_data Pages: 1 -->
<svg width="1219pt" height="313pt"
 viewBox="0.00 0.00 1219.00 313.00" xmlns="http://www.w3.org/2000/svg" xmlns:xlink="http://www.w3.org/1999/xlink">
<g id="graph0" class="graph" transform="scale(1 1) rotate(0) translate(4 309)">
<title>zwave_command_class_multi_channel_send_data</title>
<!-- Node1 -->
<g id="node1" class="node">
<title>Node1</title>
<g id="a_node1"><a xlink:title="Encapsulates with Multi Channel and send a frame to the Z&#45;Wave TX queue.">
<polygon fill="#bfbfbf" stroke="black" points="0,-39 0,-69 132,-69 132,-39 0,-39"/>
<text text-anchor="start" x="8" y="-57" font-family="Helvetica,sans-Serif" font-size="10.00">zwave_command_class</text>
<text text-anchor="middle" x="66" y="-46" font-family="Helvetica,sans-Serif" font-size="10.00">_multi_channel_send_data</text>
</a>
</g>
</g>
<!-- Node2 -->
<g id="node2" class="node">
<title>Node2</title>
<g id="a_node2"><a xlink:href="group__multi__channel__transport.html#gac2dd449dae4a65aeea0d7f537a0a1124" target="_top" xlink:title="Callback function registered to Z&#45;Wave TX zwave_tx_send_data.">
<polygon fill="none" stroke="black" points="181.5,-88 181.5,-118 300.5,-118 300.5,-88 181.5,-88"/>
<text text-anchor="start" x="189.5" y="-106" font-family="Helvetica,sans-Serif" font-size="10.00">on_multi_channel_send</text>
<text text-anchor="middle" x="241" y="-95" font-family="Helvetica,sans-Serif" font-size="10.00">_complete</text>
</a>
</g>
</g>
<!-- Node1&#45;&gt;Node2 -->
<g id="edge1" class="edge">
<title>Node1&#45;&gt;Node2</title>
<path fill="none" stroke="midnightblue" d="M120.32,-69.1C138.24,-74.18 158.41,-79.89 177.01,-85.16"/>
<polygon fill="midnightblue" stroke="midnightblue" points="176.28,-88.59 186.86,-87.95 178.19,-81.86 176.28,-88.59"/>
</g>
<!-- Node4 -->
<g id="node4" class="node">
<title>Node4</title>
<g id="a_node4"><a xlink:href="zwave__multi__channel__transport_8c.html#a10fed1c2554c33ded64fe48ec70df9a4" target="_top" xlink:title=" ">
<polygon fill="none" stroke="black" points="168,-39 168,-69 314,-69 314,-39 168,-39"/>
<text text-anchor="start" x="176" y="-57" font-family="Helvetica,sans-Serif" font-size="10.00">zwave_multi_channel</text>
<text text-anchor="middle" x="241" y="-46" font-family="Helvetica,sans-Serif" font-size="10.00">_transport_start_transmission</text>
</a>
</g>
</g>
<!-- Node1&#45;&gt;Node4 -->
<g id="edge3" class="edge">
<title>Node1&#45;&gt;Node4</title>
<path fill="none" stroke="midnightblue" d="M132.4,-54C140.64,-54 149.14,-54 157.59,-54"/>
<polygon fill="midnightblue" stroke="midnightblue" points="157.85,-57.5 167.85,-54 157.85,-50.5 157.85,-57.5"/>
</g>
<!-- Node21 -->
<g id="node21" class="node">
<title>Node21</title>
<g id="a_node21"><a xlink:href="group__zwave__tx.html#gad1538f36d226fe8147c5e538625568df" target="_top" xlink:title="Queue and send frames to Z&#45;Wave nodes.">
<polygon fill="none" stroke="black" points="663,-0.5 663,-19.5 772,-19.5 772,-0.5 663,-0.5"/>
<text text-anchor="middle" x="717.5" y="-7.5" font-family="Helvetica,sans-Serif" font-size="10.00">zwave_tx_send_data</text>
</a>
</g>
</g>
<!-- Node1&#45;&gt;Node21 -->
<g id="edge27" class="edge">
<title>Node1&#45;&gt;Node21</title>
<path fill="none" stroke="midnightblue" d="M121.67,-38.94C136.59,-35.4 152.82,-32.06 168,-30 342.13,-6.37 550.02,-6.41 652.67,-8.27"/>
<polygon fill="midnightblue" stroke="midnightblue" points="652.8,-11.78 662.87,-8.47 652.94,-4.78 652.8,-11.78"/>
</g>
<!-- Node3 -->
<g id="node3" class="node">
<title>Node3</title>
<g id="a_node3"><a xlink:href="zwave__multi__channel__transport_8c.html#a0ed4a2b2d10e1b29b1b29df0c53dbd4d" target="_top" xlink:title="Initializes our array of callback settings by setting everything to NULL.">
<polygon fill="none" stroke="black" points="350,-93.5 350,-112.5 478,-112.5 478,-93.5 350,-93.5"/>
<text text-anchor="middle" x="414" y="-100.5" font-family="Helvetica,sans-Serif" font-size="10.00">reset_send_data_settings</text>
</a>
</g>
</g>
<!-- Node2&#45;&gt;Node3 -->
<g id="edge2" class="edge">
<title>Node2&#45;&gt;Node3</title>
<path fill="none" stroke="midnightblue" d="M300.85,-103C313.35,-103 326.7,-103 339.66,-103"/>
<polygon fill="midnightblue" stroke="midnightblue" points="339.96,-106.5 349.96,-103 339.96,-99.5 339.96,-106.5"/>
</g>
<!-- Node5 -->
<g id="node5" class="node">
<title>Node5</title>
<g id="a_node5"><a xlink:href="zwave__s0__transport_8c.html#a800e1cc61a01bde0fe6d9a3eddb91b5e" target="_top" xlink:title="Z&#45;Wave Tx Send data callback function.">
<polygon fill="none" stroke="black" points="387.5,-44.5 387.5,-63.5 440.5,-63.5 440.5,-44.5 387.5,-44.5"/>
<text text-anchor="middle" x="414" y="-51.5" font-family="Helvetica,sans-Serif" font-size="10.00">callback</text>
</a>
</g>
</g>
<!-- Node4&#45;&gt;Node5 -->
<g id="edge4" class="edge">
<title>Node4&#45;&gt;Node5</title>
<path fill="none" stroke="midnightblue" d="M314.02,-54C335.85,-54 358.87,-54 377.21,-54"/>
<polygon fill="midnightblue" stroke="midnightblue" points="377.43,-57.5 387.43,-54 377.43,-50.5 377.43,-57.5"/>
</g>
<!-- Node6 -->
<g id="node6" class="node">
<title>Node6</title>
<g id="a_node6"><a xlink:href="zwave__s0__transport_8c.html#ab8425b35b3d704f2108b438158fad2f1" target="_top" xlink:title="Move a S0 Tx Session state to a new state.">
<polygon fill="none" stroke="black" points="514,-44.5 514,-63.5 624,-63.5 624,-44.5 514,-44.5"/>
<text text-anchor="middle" x="569" y="-51.5" font-family="Helvetica,sans-Serif" font-size="10.00">tx_session_state_set</text>
</a>
</g>
</g>
<!-- Node5&#45;&gt;Node6 -->
<g id="edge5" class="edge">
<title>Node5&#45;&gt;Node6</title>
<path fill="none" stroke="midnightblue" d="M440.61,-48.81C457.87,-47.54 481.46,-47.05 503.65,-47.33"/>
<polygon fill="midnightblue" stroke="midnightblue" points="503.66,-50.83 513.72,-47.51 503.79,-43.83 503.66,-50.83"/>
</g>
<!-- Node6&#45;&gt;Node5 -->
<g id="edge6" class="edge">
<title>Node6&#45;&gt;Node5</title>
<path fill="none" stroke="midnightblue" d="M513.72,-60.49C492.82,-60.99 469.5,-60.77 450.77,-59.82"/>
<polygon fill="midnightblue" stroke="midnightblue" points="450.8,-56.31 440.61,-59.19 450.38,-63.3 450.8,-56.31"/>
</g>
<!-- Node6&#45;&gt;Node6 -->
<g id="edge25" class="edge">
<title>Node6&#45;&gt;Node6</title>
<path fill="none" stroke="midnightblue" d="M546.19,-63.76C535.09,-72.57 542.7,-82 569,-82 586.26,-82 595.47,-77.94 596.63,-72.65"/>
<polygon fill="midnightblue" stroke="midnightblue" points="599.65,-70.89 591.81,-63.76 593.49,-74.22 599.65,-70.89"/>
</g>
<!-- Node7 -->
<g id="node7" class="node">
<title>Node7</title>
<g id="a_node7"><a xlink:href="zwave__s0__transport_8c.html#a395227710e5a6b32c1c55b6a389384b3" target="_top" xlink:title="Resets the data from the previous S0 Tx Session.">
<polygon fill="none" stroke="black" points="660,-171.5 660,-190.5 775,-190.5 775,-171.5 660,-171.5"/>
<text text-anchor="middle" x="717.5" y="-178.5" font-family="Helvetica,sans-Serif" font-size="10.00">reset_tx_session_data</text>
</a>
</g>
</g>
<!-- Node6&#45;&gt;Node7 -->
<g id="edge7" class="edge">
<title>Node6&#45;&gt;Node7</title>
<path fill="none" stroke="midnightblue" d="M575.44,-63.6C587.77,-84.52 619.92,-134.57 660,-162 662.86,-163.96 665.94,-165.73 669.14,-167.33"/>
<polygon fill="midnightblue" stroke="midnightblue" points="667.79,-170.56 678.35,-171.4 670.61,-164.16 667.79,-170.56"/>
</g>
<!-- Node8 -->
<g id="node8" class="node">
<title>Node8</title>
<g id="a_node8"><a xlink:href="zwave__s0__transport_8c.html#abfe0a749d5d321ae13b810ea1043d90f" target="_top" xlink:title=" ">
<polygon fill="none" stroke="black" points="662.5,-133.5 662.5,-152.5 772.5,-152.5 772.5,-133.5 662.5,-133.5"/>
<text text-anchor="middle" x="717.5" y="-140.5" font-family="Helvetica,sans-Serif" font-size="10.00">s0_encrypt_message</text>
</a>
</g>
</g>
<!-- Node6&#45;&gt;Node8 -->
<g id="edge8" class="edge">
<title>Node6&#45;&gt;Node8</title>
<path fill="none" stroke="midnightblue" d="M585.68,-63.52C611.1,-78.97 661.51,-109.59 691.79,-127.99"/>
<polygon fill="midnightblue" stroke="midnightblue" points="690.13,-131.07 700.49,-133.27 693.76,-125.09 690.13,-131.07"/>
</g>
<!-- Node19 -->
<g id="node19" class="node">
<title>Node19</title>
<g id="a_node19"><a xlink:href="zwave__s0__transport_8c.html#ae58733ec136a4bb85e6a2b7ea6aef6bb" target="_top" xlink:title=" ">
<polygon fill="none" stroke="black" points="836.5,-19.5 836.5,-38.5 919.5,-38.5 919.5,-19.5 836.5,-19.5"/>
<text text-anchor="middle" x="878" y="-26.5" font-family="Helvetica,sans-Serif" font-size="10.00">s0_state_name</text>
</a>
</g>
</g>
<!-- Node6&#45;&gt;Node19 -->
<g id="edge21" class="edge">
<title>Node6&#45;&gt;Node19</title>
<path fill="none" stroke="midnightblue" d="M609.55,-63.51C651.31,-71.94 718.75,-80.93 775,-67 792.56,-62.65 794.22,-54.76 811,-48 816.81,-45.66 823.01,-43.48 829.2,-41.5"/>
<polygon fill="midnightblue" stroke="midnightblue" points="830.32,-44.81 838.85,-38.54 828.27,-38.12 830.32,-44.81"/>
</g>
<!-- Node20 -->
<g id="node20" class="node">
<title>Node20</title>
<g id="a_node20"><a xlink:href="zwave__s0__transport_8c.html#adb0e729c11b7fdb81d7c2f776453e8ab" target="_top" xlink:title=" ">
<polygon fill="none" stroke="black" points="685,-38.5 685,-57.5 750,-57.5 750,-38.5 685,-38.5"/>
<text text-anchor="middle" x="717.5" y="-45.5" font-family="Helvetica,sans-Serif" font-size="10.00">s0_timeout</text>
</a>
</g>
</g>
<!-- Node6&#45;&gt;Node20 -->
<g id="edge22" class="edge">
<title>Node6&#45;&gt;Node20</title>
<path fill="none" stroke="midnightblue" d="M624.13,-45.24C640.69,-44.19 658.65,-43.58 674.29,-43.55"/>
<polygon fill="midnightblue" stroke="midnightblue" points="674.68,-47.05 684.7,-43.62 674.73,-40.05 674.68,-47.05"/>
</g>
<!-- Node6&#45;&gt;Node21 -->
<g id="edge26" class="edge">
<title>Node6&#45;&gt;Node21</title>
<path fill="none" stroke="midnightblue" d="M601.79,-44.45C623.29,-37.99 651.9,-29.4 675.17,-22.41"/>
<polygon fill="midnightblue" stroke="midnightblue" points="676.2,-25.76 684.77,-19.53 674.19,-19.05 676.2,-25.76"/>
</g>
<!-- Node9 -->
<g id="node9" class="node">
<title>Node9</title>
<g id="a_node9"><a xlink:href="zwave__s0__transport_8c.html#a09886e580f2471de3c1ebe56fabd6891" target="_top" xlink:title=" ">
<polygon fill="none" stroke="black" points="839.5,-285.5 839.5,-304.5 916.5,-304.5 916.5,-285.5 839.5,-285.5"/>
<text text-anchor="middle" x="878" y="-292.5" font-family="Helvetica,sans-Serif" font-size="10.00">aes_cbc_mac</text>
</a>
</g>
</g>
<!-- Node8&#45;&gt;Node9 -->
<g id="edge9" class="edge">
<title>Node8&#45;&gt;Node9</title>
<path fill="none" stroke="midnightblue" d="M761.49,-152.51C766.48,-154.98 771.16,-158.09 775,-162 812.22,-199.92 772.95,-238.91 811,-276 816.28,-281.15 822.87,-284.92 829.82,-287.68"/>
<polygon fill="midnightblue" stroke="midnightblue" points="828.84,-291.04 839.43,-290.84 831.03,-284.39 828.84,-291.04"/>
</g>
<!-- Node11 -->
<g id="node11" class="node">
<title>Node11</title>
<g id="a_node11"><a xlink:href="zwave__s0__transport_8c.html#a64c4a69fb8c2e230b1437142e84c3c62" target="_top" xlink:title=" ">
<polygon fill="none" stroke="black" points="852.5,-247.5 852.5,-266.5 903.5,-266.5 903.5,-247.5 852.5,-247.5"/>
<text text-anchor="middle" x="878" y="-254.5" font-family="Helvetica,sans-Serif" font-size="10.00">aes_ofb</text>
</a>
</g>
</g>
<!-- Node8&#45;&gt;Node11 -->
<g id="edge11" class="edge">
<title>Node8&#45;&gt;Node11</title>
<path fill="none" stroke="midnightblue" d="M760.14,-152.62C765.53,-155.08 770.67,-158.15 775,-162 802.94,-186.82 782.52,-213.8 811,-238 819.83,-245.51 831.48,-250.05 842.53,-252.8"/>
<polygon fill="midnightblue" stroke="midnightblue" points="841.9,-256.25 852.4,-254.86 843.33,-249.4 841.9,-256.25"/>
</g>
<!-- Node12 -->
<g id="node12" class="node">
<title>Node12</title>
<g id="a_node12"><a xlink:href="zwave__s0__transport_8c.html#aa131994ce2700672584c8e7eb43abbcf" target="_top" xlink:title=" ">
<polygon fill="none" stroke="black" points="833.5,-209.5 833.5,-228.5 922.5,-228.5 922.5,-209.5 833.5,-209.5"/>
<text text-anchor="middle" x="878" y="-216.5" font-family="Helvetica,sans-Serif" font-size="10.00">aes_set_key_tpt</text>
</a>
</g>
</g>
<!-- Node8&#45;&gt;Node12 -->
<g id="edge13" class="edge">
<title>Node8&#45;&gt;Node12</title>
<path fill="none" stroke="midnightblue" d="M755.56,-152.56C762.3,-155.1 769.07,-158.21 775,-162 794.61,-174.52 791.12,-187.91 811,-200 815.05,-202.46 819.44,-204.62 823.96,-206.51"/>
<polygon fill="midnightblue" stroke="midnightblue" points="822.76,-209.8 833.36,-210.01 825.21,-203.24 822.76,-209.8"/>
</g>
<!-- Node13 -->
<g id="node13" class="node">
<title>Node13</title>
<g id="a_node13"><a xlink:href="zwave__s0__transport_8c.html#aeb22afea5af0dc149f03d08edb74a44a" target="_top" xlink:title=" ">
<polygon fill="none" stroke="black" points="811,-171.5 811,-190.5 945,-190.5 945,-171.5 811,-171.5"/>
<text text-anchor="middle" x="878" y="-178.5" font-family="Helvetica,sans-Serif" font-size="10.00">get_node_max_frame_size</text>
</a>
</g>
</g>
<!-- Node8&#45;&gt;Node13 -->
<g id="edge14" class="edge">
<title>Node8&#45;&gt;Node13</title>
<path fill="none" stroke="midnightblue" d="M758.5,-152.59C779.41,-157.6 805.21,-163.79 827.39,-169.11"/>
<polygon fill="midnightblue" stroke="midnightblue" points="826.75,-172.55 837.29,-171.48 828.38,-165.74 826.75,-172.55"/>
</g>
<!-- Node14 -->
<g id="node14" class="node">
<title>Node14</title>
<g id="a_node14"><a xlink:href="zwave__s0__transport_8c.html#ade289797a519efdfbcbb8176339c60f3" target="_top" xlink:title=" ">
<polygon fill="none" stroke="black" points="839.5,-133.5 839.5,-152.5 916.5,-152.5 916.5,-133.5 839.5,-133.5"/>
<text text-anchor="middle" x="878" y="-140.5" font-family="Helvetica,sans-Serif" font-size="10.00">get_s0_nonce</text>
</a>
</g>
</g>
<!-- Node8&#45;&gt;Node14 -->
<g id="edge15" class="edge">
<title>Node8&#45;&gt;Node14</title>
<path fill="none" stroke="midnightblue" d="M772.6,-143C790.9,-143 811.18,-143 828.97,-143"/>
<polygon fill="midnightblue" stroke="midnightblue" points="829.12,-146.5 839.12,-143 829.12,-139.5 829.12,-146.5"/>
</g>
<!-- Node15 -->
<g id="node15" class="node">
<title>Node15</title>
<g id="a_node15"><a xlink:href="zwave__s0__transport_8c.html#a9944c78203e0b476f5cd80bca6dd76d1" target="_top" xlink:title=" ">
<polygon fill="none" stroke="black" points="843.5,-95.5 843.5,-114.5 912.5,-114.5 912.5,-95.5 843.5,-95.5"/>
<text text-anchor="middle" x="878" y="-102.5" font-family="Helvetica,sans-Serif" font-size="10.00">nonce_clear</text>
</a>
</g>
</g>
<!-- Node8&#45;&gt;Node15 -->
<g id="edge16" class="edge">
<title>Node8&#45;&gt;Node15</title>
<path fill="none" stroke="midnightblue" d="M758.5,-133.41C781.34,-127.93 810.01,-121.06 833.43,-115.45"/>
<polygon fill="midnightblue" stroke="midnightblue" points="834.54,-118.78 843.45,-113.04 832.91,-111.97 834.54,-118.78"/>
</g>
<!-- Node16 -->
<g id="node16" class="node">
<title>Node16</title>
<g id="a_node16"><a xlink:href="zwave__s0__transport_8c.html#a804b1de1ad94923895000f9f239341e0" target="_top" xlink:title=" ">
<polygon fill="none" stroke="black" points="838,-57.5 838,-76.5 918,-76.5 918,-57.5 838,-57.5"/>
<text text-anchor="middle" x="878" y="-64.5" font-family="Helvetica,sans-Serif" font-size="10.00">register_nonce</text>
</a>
</g>
</g>
<!-- Node8&#45;&gt;Node16 -->
<g id="edge17" class="edge">
<title>Node8&#45;&gt;Node16</title>
<path fill="none" stroke="midnightblue" d="M731.65,-133.29C749.04,-120.83 780.98,-99.27 811,-86 816.45,-83.59 822.29,-81.4 828.15,-79.43"/>
<polygon fill="midnightblue" stroke="midnightblue" points="829.5,-82.67 837.98,-76.33 827.4,-76 829.5,-82.67"/>
</g>
<!-- Node10 -->
<g id="node10" class="node">
<title>Node10</title>
<g id="a_node10"><a xlink:href="zwave__s0__transport_8c.html#a81a1edfa8dd156b07bbe49d8c85095bf" target="_top" xlink:title=" ">
<polygon fill="none" stroke="black" points="989.5,-266.5 989.5,-285.5 1059.5,-285.5 1059.5,-266.5 989.5,-266.5"/>
<text text-anchor="middle" x="1024.5" y="-273.5" font-family="Helvetica,sans-Serif" font-size="10.00">aes_encrypt</text>
</a>
</g>
</g>
<!-- Node9&#45;&gt;Node10 -->
<g id="edge10" class="edge">
<title>Node9&#45;&gt;Node10</title>
<path fill="none" stroke="midnightblue" d="M916.59,-290.06C935.67,-287.55 958.99,-284.48 978.97,-281.86"/>
<polygon fill="midnightblue" stroke="midnightblue" points="979.61,-285.3 989.07,-280.53 978.7,-278.36 979.61,-285.3"/>
</g>
<!-- Node11&#45;&gt;Node10 -->
<g id="edge12" class="edge">
<title>Node11&#45;&gt;Node10</title>
<path fill="none" stroke="midnightblue" d="M903.51,-260.22C924.25,-262.95 954.48,-266.92 979.41,-270.2"/>
<polygon fill="midnightblue" stroke="midnightblue" points="979,-273.68 989.37,-271.51 979.91,-266.74 979,-273.68"/>
</g>
<!-- Node17 -->
<g id="node17" class="node">
<title>Node17</title>
<g id="a_node17"><a xlink:href="zwave__s0__transport_8c.html#aed7c30c1d59e44aab5ba91ad6e78d447" target="_top" xlink:title=" ">
<polygon fill="none" stroke="black" points="981,-57.5 981,-76.5 1068,-76.5 1068,-57.5 981,-57.5"/>
<text text-anchor="middle" x="1024.5" y="-64.5" font-family="Helvetica,sans-Serif" font-size="10.00">restart_s0_timer</text>
</a>
</g>
</g>
<!-- Node16&#45;&gt;Node17 -->
<g id="edge18" class="edge">
<title>Node16&#45;&gt;Node17</title>
<path fill="none" stroke="midnightblue" d="M918.1,-67C934.31,-67 953.37,-67 970.78,-67"/>
<polygon fill="midnightblue" stroke="midnightblue" points="970.81,-70.5 980.81,-67 970.81,-63.5 970.81,-70.5"/>
</g>
<!-- Node18 -->
<g id="node18" class="node">
<title>Node18</title>
<g id="a_node18"><a xlink:href="zwave__s0__transport_8c.html#a23cc9cf50d02cdaa152e984177674bf9" target="_top" xlink:title=" ">
<polygon fill="none" stroke="black" points="1104,-57.5 1104,-76.5 1211,-76.5 1211,-57.5 1104,-57.5"/>
<text text-anchor="middle" x="1157.5" y="-64.5" font-family="Helvetica,sans-Serif" font-size="10.00">nonce_timer_timeout</text>
</a>
</g>
</g>
<!-- Node17&#45;&gt;Node18 -->
<g id="edge19" class="edge">
<title>Node17&#45;&gt;Node18</title>
<path fill="none" stroke="midnightblue" d="M1068.03,-67C1076.19,-67 1084.9,-67 1093.55,-67"/>
<polygon fill="midnightblue" stroke="midnightblue" points="1093.64,-70.5 1103.64,-67 1093.64,-63.5 1093.64,-70.5"/>
</g>
<!-- Node18&#45;&gt;Node18 -->
<g id="edge20" class="edge">
<title>Node18&#45;&gt;Node18</title>
<path fill="none" stroke="midnightblue" d="M1137.15,-76.76C1127.26,-85.57 1134.04,-95 1157.5,-95 1172.53,-95 1180.71,-91.13 1182.05,-86.03"/>
<polygon fill="midnightblue" stroke="midnightblue" points="1185.17,-84.42 1177.85,-76.76 1178.79,-87.31 1185.17,-84.42"/>
</g>
<!-- Node20&#45;&gt;Node6 -->
<g id="edge24" class="edge">
<title>Node20&#45;&gt;Node6</title>
<path fill="none" stroke="midnightblue" d="M684.7,-54.98C669.91,-56.45 651.77,-57.53 634.31,-58.07"/>
<polygon fill="midnightblue" stroke="midnightblue" points="634.04,-54.58 624.13,-58.32 634.22,-61.57 634.04,-54.58"/>
</g>
<!-- Node20&#45;&gt;Node19 -->
<g id="edge23" class="edge">
<title>Node20&#45;&gt;Node19</title>
<path fill="none" stroke="midnightblue" d="M750.19,-44.2C771.95,-41.59 801.29,-38.08 826.27,-35.08"/>
<polygon fill="midnightblue" stroke="midnightblue" points="826.81,-38.54 836.32,-33.88 825.97,-31.59 826.81,-38.54"/>
</g>
</g>
</svg>
