<?xml version="1.0" encoding="UTF-8" standalone="no"?>
<!DOCTYPE svg PUBLIC "-//W3C//DTD SVG 1.1//EN"
 "http://www.w3.org/Graphics/SVG/1.1/DTD/svg11.dtd">
<!-- Generated by graphviz version 2.43.0 (0)
 -->
<!-- Title: zwave_command_class_mark_key_protocol_as_supported Pages: 1 -->
<svg width="790pt" height="110pt"
 viewBox="0.00 0.00 790.00 110.00" xmlns="http://www.w3.org/2000/svg" xmlns:xlink="http://www.w3.org/1999/xlink">
<g id="graph0" class="graph" transform="scale(1 1) rotate(0) translate(4 106)">
<title>zwave_command_class_mark_key_protocol_as_supported</title>
<!-- Node1 -->
<g id="node1" class="node">
<title>Node1</title>
<g id="a_node1"><a xlink:title="Updates the Attribute Store to indicate that the Security key and Protocol that we just used are work...">
<polygon fill="#bfbfbf" stroke="black" points="660,-30.5 660,-71.5 782,-71.5 782,-30.5 660,-30.5"/>
<text text-anchor="start" x="668" y="-59.5" font-family="Helvetica,sans-Serif" font-size="10.00">zwave_command_class</text>
<text text-anchor="start" x="668" y="-48.5" font-family="Helvetica,sans-Serif" font-size="10.00">_mark_key_protocol_as</text>
<text text-anchor="middle" x="721" y="-37.5" font-family="Helvetica,sans-Serif" font-size="10.00">_supported</text>
</a>
</g>
</g>
<!-- Node2 -->
<g id="node2" class="node">
<title>Node2</title>
<g id="a_node2"><a xlink:href="zwave__command__class__security__0_8c.html#a5cf6b9b12b9423c27a470a35d57d1a8c" target="_top" xlink:title=" ">
<polygon fill="none" stroke="black" points="502,-60.5 502,-101.5 624,-101.5 624,-60.5 502,-60.5"/>
<text text-anchor="start" x="510" y="-89.5" font-family="Helvetica,sans-Serif" font-size="10.00">zwave_command_class</text>
<text text-anchor="start" x="510" y="-78.5" font-family="Helvetica,sans-Serif" font-size="10.00">_security_0_commands</text>
<text text-anchor="middle" x="563" y="-67.5" font-family="Helvetica,sans-Serif" font-size="10.00">_supported_report</text>
</a>
</g>
</g>
<!-- Node1&#45;&gt;Node2 -->
<g id="edge1" class="edge">
<title>Node1&#45;&gt;Node2</title>
<path fill="none" stroke="midnightblue" d="M649.74,-64.51C641.2,-66.15 632.53,-67.82 624.15,-69.43"/>
<polygon fill="midnightblue" stroke="midnightblue" points="650.53,-67.92 659.69,-62.6 649.21,-61.05 650.53,-67.92"/>
</g>
<!-- Node6 -->
<g id="node6" class="node">
<title>Node6</title>
<g id="a_node6"><a xlink:href="zwave__command__class__security__2_8c.html#ad6cf88ba96647fbb110ad024d13ad927" target="_top" xlink:title=" ">
<polygon fill="none" stroke="black" points="502,-0.5 502,-41.5 624,-41.5 624,-0.5 502,-0.5"/>
<text text-anchor="start" x="510" y="-29.5" font-family="Helvetica,sans-Serif" font-size="10.00">zwave_command_class</text>
<text text-anchor="start" x="510" y="-18.5" font-family="Helvetica,sans-Serif" font-size="10.00">_security_2_commands</text>
<text text-anchor="middle" x="563" y="-7.5" font-family="Helvetica,sans-Serif" font-size="10.00">_supported_report</text>
</a>
</g>
</g>
<!-- Node1&#45;&gt;Node6 -->
<g id="edge5" class="edge">
<title>Node1&#45;&gt;Node6</title>
<path fill="none" stroke="midnightblue" d="M649.74,-37.49C641.2,-35.85 632.53,-34.18 624.15,-32.57"/>
<polygon fill="midnightblue" stroke="midnightblue" points="649.21,-40.95 659.69,-39.4 650.53,-34.08 649.21,-40.95"/>
</g>
<!-- Node3 -->
<g id="node3" class="node">
<title>Node3</title>
<g id="a_node3"><a xlink:href="group__security__0__command__class.html#gaf1dd75d7ea7af6746142a01c7f9aed2e" target="_top" xlink:title=" ">
<polygon fill="none" stroke="black" points="344,-60.5 344,-101.5 466,-101.5 466,-60.5 344,-60.5"/>
<text text-anchor="start" x="352" y="-89.5" font-family="Helvetica,sans-Serif" font-size="10.00">zwave_command_class</text>
<text text-anchor="start" x="352" y="-78.5" font-family="Helvetica,sans-Serif" font-size="10.00">_security_0_control</text>
<text text-anchor="middle" x="405" y="-67.5" font-family="Helvetica,sans-Serif" font-size="10.00">_handler</text>
</a>
</g>
</g>
<!-- Node2&#45;&gt;Node3 -->
<g id="edge2" class="edge">
<title>Node2&#45;&gt;Node3</title>
<path fill="none" stroke="midnightblue" d="M491.46,-81C483.01,-81 474.44,-81 466.15,-81"/>
<polygon fill="midnightblue" stroke="midnightblue" points="491.69,-84.5 501.69,-81 491.69,-77.5 491.69,-84.5"/>
</g>
<!-- Node4 -->
<g id="node4" class="node">
<title>Node4</title>
<g id="a_node4"><a xlink:href="group__security__0__command__class.html#ga7460f029f90a343242e45c6233e1cdc2" target="_top" xlink:title="Intitialize the Security 0 Command Class handler.">
<polygon fill="none" stroke="black" points="186,-63 186,-93 308,-93 308,-63 186,-63"/>
<text text-anchor="start" x="194" y="-81" font-family="Helvetica,sans-Serif" font-size="10.00">zwave_command_class</text>
<text text-anchor="middle" x="247" y="-70" font-family="Helvetica,sans-Serif" font-size="10.00">_security_0_init</text>
</a>
</g>
</g>
<!-- Node3&#45;&gt;Node4 -->
<g id="edge3" class="edge">
<title>Node3&#45;&gt;Node4</title>
<path fill="none" stroke="midnightblue" d="M333.46,-79.64C325.01,-79.48 316.44,-79.32 308.15,-79.16"/>
<polygon fill="midnightblue" stroke="midnightblue" points="333.62,-83.15 343.69,-79.84 333.76,-76.15 333.62,-83.15"/>
</g>
<!-- Node5 -->
<g id="node5" class="node">
<title>Node5</title>
<g id="a_node5"><a xlink:href="group__command__classes__fixt.html#ga5272651939ced1723158340039e8da19" target="_top" xlink:title="Setup fixture for Z&#45;Wave Command Classes.">
<polygon fill="none" stroke="black" points="0,-40.5 0,-59.5 150,-59.5 150,-40.5 0,-40.5"/>
<text text-anchor="middle" x="75" y="-47.5" font-family="Helvetica,sans-Serif" font-size="10.00">zwave_command_classes_init</text>
</a>
</g>
</g>
<!-- Node4&#45;&gt;Node5 -->
<g id="edge4" class="edge">
<title>Node4&#45;&gt;Node5</title>
<path fill="none" stroke="midnightblue" d="M175.61,-66.41C161.74,-64.12 147.34,-61.75 133.94,-59.54"/>
<polygon fill="midnightblue" stroke="midnightblue" points="175.15,-69.88 185.59,-68.05 176.29,-62.97 175.15,-69.88"/>
</g>
<!-- Node7 -->
<g id="node7" class="node">
<title>Node7</title>
<g id="a_node7"><a xlink:href="zwave__command__class__security__2_8c.html#aa9d9bbdae7f77c34856a744f20f6bd34" target="_top" xlink:title=" ">
<polygon fill="none" stroke="black" points="344,-0.5 344,-41.5 466,-41.5 466,-0.5 344,-0.5"/>
<text text-anchor="start" x="352" y="-29.5" font-family="Helvetica,sans-Serif" font-size="10.00">zwave_command_class</text>
<text text-anchor="start" x="352" y="-18.5" font-family="Helvetica,sans-Serif" font-size="10.00">_security_2_control</text>
<text text-anchor="middle" x="405" y="-7.5" font-family="Helvetica,sans-Serif" font-size="10.00">_handler</text>
</a>
</g>
</g>
<!-- Node6&#45;&gt;Node7 -->
<g id="edge6" class="edge">
<title>Node6&#45;&gt;Node7</title>
<path fill="none" stroke="midnightblue" d="M491.46,-21C483.01,-21 474.44,-21 466.15,-21"/>
<polygon fill="midnightblue" stroke="midnightblue" points="491.69,-24.5 501.69,-21 491.69,-17.5 491.69,-24.5"/>
</g>
<!-- Node8 -->
<g id="node8" class="node">
<title>Node8</title>
<g id="a_node8"><a xlink:href="group__security__2__command__class.html#ga8d46dba73126d88511566e7ae09eced5" target="_top" xlink:title="Intitialize the security 2 command class handler.">
<polygon fill="none" stroke="black" points="186,-11 186,-41 308,-41 308,-11 186,-11"/>
<text text-anchor="start" x="194" y="-29" font-family="Helvetica,sans-Serif" font-size="10.00">zwave_command_class</text>
<text text-anchor="middle" x="247" y="-18" font-family="Helvetica,sans-Serif" font-size="10.00">_security_2_init</text>
</a>
</g>
</g>
<!-- Node7&#45;&gt;Node8 -->
<g id="edge7" class="edge">
<title>Node7&#45;&gt;Node8</title>
<path fill="none" stroke="midnightblue" d="M333.46,-23.26C325.01,-23.53 316.44,-23.81 308.15,-24.07"/>
<polygon fill="midnightblue" stroke="midnightblue" points="333.8,-26.75 343.69,-22.93 333.58,-19.76 333.8,-26.75"/>
</g>
<!-- Node8&#45;&gt;Node5 -->
<g id="edge8" class="edge">
<title>Node8&#45;&gt;Node5</title>
<path fill="none" stroke="midnightblue" d="M175.53,-35.95C164.92,-37.45 154,-38.99 143.45,-40.48"/>
<polygon fill="midnightblue" stroke="midnightblue" points="176.17,-39.39 185.59,-34.53 175.19,-32.46 176.17,-39.39"/>
</g>
</g>
</svg>
