<?xml version="1.0" encoding="UTF-8" standalone="no"?>
<!DOCTYPE svg PUBLIC "-//W3C//DTD SVG 1.1//EN"
 "http://www.w3.org/Graphics/SVG/1.1/DTD/svg11.dtd">
<!-- Generated by graphviz version 2.43.0 (0)
 -->
<!-- Title: zwapi_enable_auto_program_mode Pages: 1 -->
<svg width="1338pt" height="504pt"
 viewBox="0.00 0.00 1338.00 503.50" xmlns="http://www.w3.org/2000/svg" xmlns:xlink="http://www.w3.org/1999/xlink">
<g id="graph0" class="graph" transform="scale(1 1) rotate(0) translate(4 499.5)">
<title>zwapi_enable_auto_program_mode</title>
<!-- Node1 -->
<g id="node1" class="node">
<title>Node1</title>
<g id="a_node1"><a xlink:title="Enable Auto Programming mode.">
<polygon fill="#bfbfbf" stroke="black" points="0,-282 0,-301 170,-301 170,-282 0,-282"/>
<text text-anchor="middle" x="85" y="-289" font-family="Helvetica,sans-Serif" font-size="10.00">zwapi_enable_auto_program_mode</text>
</a>
</g>
</g>
<!-- Node2 -->
<g id="node2" class="node">
<title>Node2</title>
<g id="a_node2"><a xlink:href="zwapi__init_8c.html#a3e823a759f7151b644882f18af0cc1dd" target="_top" xlink:title="Send a command to the Z&#45;Wave module without waiting for any ACK.">
<polygon fill="none" stroke="black" points="206,-276.5 206,-306.5 322,-306.5 322,-276.5 206,-276.5"/>
<text text-anchor="start" x="214" y="-294.5" font-family="Helvetica,sans-Serif" font-size="10.00">zwapi_send_command</text>
<text text-anchor="middle" x="264" y="-283.5" font-family="Helvetica,sans-Serif" font-size="10.00">_no_ack</text>
</a>
</g>
</g>
<!-- Node1&#45;&gt;Node2 -->
<g id="edge1" class="edge">
<title>Node1&#45;&gt;Node2</title>
<path fill="none" stroke="midnightblue" d="M170.09,-291.5C178.72,-291.5 187.4,-291.5 195.81,-291.5"/>
<polygon fill="midnightblue" stroke="midnightblue" points="195.9,-295 205.9,-291.5 195.9,-288 195.9,-295"/>
</g>
<!-- Node3 -->
<g id="node3" class="node">
<title>Node3</title>
<g id="a_node3"><a xlink:href="zwapi__session_8c.html#af056fb5ce35c202ffe4a45ab6f5d2eb5" target="_top" xlink:title="Send data frame to Z&#45;Wave chip via serial API without waiting for ACK.">
<polygon fill="none" stroke="black" points="380.5,-298.5 380.5,-328.5 487.5,-328.5 487.5,-298.5 380.5,-298.5"/>
<text text-anchor="start" x="388.5" y="-316.5" font-family="Helvetica,sans-Serif" font-size="10.00">zwapi_session_send</text>
<text text-anchor="middle" x="434" y="-305.5" font-family="Helvetica,sans-Serif" font-size="10.00">_frame_no_ack</text>
</a>
</g>
</g>
<!-- Node2&#45;&gt;Node3 -->
<g id="edge2" class="edge">
<title>Node2&#45;&gt;Node3</title>
<path fill="none" stroke="midnightblue" d="M322.35,-299.01C337.79,-301.03 354.56,-303.23 370.28,-305.29"/>
<polygon fill="midnightblue" stroke="midnightblue" points="370.06,-308.79 380.43,-306.62 370.97,-301.85 370.06,-308.79"/>
</g>
<!-- Node22 -->
<g id="node22" class="node">
<title>Node22</title>
<g id="a_node22"><a xlink:href="group__ZWAPI__INIT.html#ga0a823074baec69913d0e8590b46e4e33" target="_top" xlink:title="Check if a command is supported by the connected Z&#45;Wave module.">
<polygon fill="none" stroke="black" points="358,-260 358,-279 510,-279 510,-260 358,-260"/>
<text text-anchor="middle" x="434" y="-267" font-family="Helvetica,sans-Serif" font-size="10.00">zwapi_support_command_func</text>
</a>
</g>
</g>
<!-- Node2&#45;&gt;Node22 -->
<g id="edge27" class="edge">
<title>Node2&#45;&gt;Node22</title>
<path fill="none" stroke="midnightblue" d="M322.35,-283.99C331.28,-282.82 340.67,-281.59 350.03,-280.36"/>
<polygon fill="midnightblue" stroke="midnightblue" points="350.71,-283.81 360.17,-279.04 349.8,-276.87 350.71,-283.81"/>
</g>
<!-- Node4 -->
<g id="node4" class="node">
<title>Node4</title>
<g id="a_node4"><a xlink:href="zwapi__connection_8c.html#af47f8cbd93974d5c91d659fdeb7a870b" target="_top" xlink:title="Transmit a frame via serial port by adding SOF, Len, Type, cmd and Checksum.">
<polygon fill="none" stroke="black" points="716,-400 716,-419 824,-419 824,-400 716,-400"/>
<text text-anchor="middle" x="770" y="-407" font-family="Helvetica,sans-Serif" font-size="10.00">zwapi_connection_tx</text>
</a>
</g>
</g>
<!-- Node3&#45;&gt;Node4 -->
<g id="edge3" class="edge">
<title>Node3&#45;&gt;Node4</title>
<path fill="none" stroke="midnightblue" d="M487.55,-328.61C553.33,-347.51 664.76,-379.54 725.81,-397.09"/>
<polygon fill="midnightblue" stroke="midnightblue" points="724.95,-400.48 735.53,-399.88 726.88,-393.75 724.95,-400.48"/>
</g>
<!-- Node11 -->
<g id="node11" class="node">
<title>Node11</title>
<g id="a_node11"><a xlink:href="zwapi__session_8c.html#a2875fbfa250b7b25ecb6bc4f0b032cb8" target="_top" xlink:title="Loads the received frames from the serial device into the zwapi_session receive queue.">
<polygon fill="none" stroke="black" points="546,-252.5 546,-282.5 669,-282.5 669,-252.5 546,-252.5"/>
<text text-anchor="start" x="554" y="-270.5" font-family="Helvetica,sans-Serif" font-size="10.00">zwapi_session_enqueue</text>
<text text-anchor="middle" x="607.5" y="-259.5" font-family="Helvetica,sans-Serif" font-size="10.00">_rx_frames</text>
</a>
</g>
</g>
<!-- Node3&#45;&gt;Node11 -->
<g id="edge10" class="edge">
<title>Node3&#45;&gt;Node11</title>
<path fill="none" stroke="midnightblue" d="M487.86,-299.32C504.47,-294.87 523.04,-289.89 540.45,-285.22"/>
<polygon fill="midnightblue" stroke="midnightblue" points="541.8,-288.48 550.55,-282.51 539.98,-281.72 541.8,-288.48"/>
</g>
<!-- Node5 -->
<g id="node5" class="node">
<title>Node5</title>
<g id="a_node5"><a xlink:href="zwapi__connection_8c.html#a96d24d537c5b8d6aa0aa6a7638ba2f09" target="_top" xlink:title=" ">
<polygon fill="none" stroke="black" points="877.5,-476 877.5,-495 992.5,-495 992.5,-476 877.5,-476"/>
<text text-anchor="middle" x="935" y="-483" font-family="Helvetica,sans-Serif" font-size="10.00">zwapi_frame_to_string</text>
</a>
</g>
</g>
<!-- Node4&#45;&gt;Node5 -->
<g id="edge4" class="edge">
<title>Node4&#45;&gt;Node5</title>
<path fill="none" stroke="midnightblue" d="M788.04,-419.13C807.71,-430.07 841.18,-448.12 871,-461.5 879.38,-465.26 888.54,-468.97 897.22,-472.31"/>
<polygon fill="midnightblue" stroke="midnightblue" points="896.15,-475.64 906.74,-475.9 898.62,-469.09 896.15,-475.64"/>
</g>
<!-- Node6 -->
<g id="node6" class="node">
<title>Node6</title>
<g id="a_node6"><a xlink:href="zwapi__serial_8c.html#a3f2b3bd848e9fe0e6e137482bed06b46" target="_top" xlink:title="Flush the serial output if using buffered output.">
<polygon fill="none" stroke="black" points="886.5,-350.5 886.5,-380.5 983.5,-380.5 983.5,-350.5 886.5,-350.5"/>
<text text-anchor="start" x="894.5" y="-368.5" font-family="Helvetica,sans-Serif" font-size="10.00">zwapi_serial_drain</text>
<text text-anchor="middle" x="935" y="-357.5" font-family="Helvetica,sans-Serif" font-size="10.00">_buffer</text>
</a>
</g>
</g>
<!-- Node4&#45;&gt;Node6 -->
<g id="edge5" class="edge">
<title>Node4&#45;&gt;Node6</title>
<path fill="none" stroke="midnightblue" d="M806.37,-399.95C826.85,-394.42 853.13,-387.33 876.51,-381.02"/>
<polygon fill="midnightblue" stroke="midnightblue" points="877.59,-384.35 886.33,-378.37 875.76,-377.6 877.59,-384.35"/>
</g>
<!-- Node7 -->
<g id="node7" class="node">
<title>Node7</title>
<g id="a_node7"><a xlink:href="zwapi__serial_8c.html#af9054824651df422bab5076d16a80fda" target="_top" xlink:title="Writes the content of a buffer to the serial port device.">
<polygon fill="none" stroke="black" points="1035,-214 1035,-233 1154,-233 1154,-214 1035,-214"/>
<text text-anchor="middle" x="1094.5" y="-221" font-family="Helvetica,sans-Serif" font-size="10.00">zwapi_serial_put_buffer</text>
</a>
</g>
</g>
<!-- Node4&#45;&gt;Node7 -->
<g id="edge6" class="edge">
<title>Node4&#45;&gt;Node7</title>
<path fill="none" stroke="midnightblue" d="M791.9,-419.06C834.62,-437.04 933.43,-470.47 999,-428.5 1064.75,-386.41 1085.39,-285.7 1091.32,-243.08"/>
<polygon fill="midnightblue" stroke="midnightblue" points="1094.79,-243.49 1092.58,-233.13 1087.85,-242.61 1094.79,-243.49"/>
</g>
<!-- Node10 -->
<g id="node10" class="node">
<title>Node10</title>
<g id="a_node10"><a xlink:href="zwapi__timestamp_8c.html#a6ebe1ddfe689bce6ee72fc12f708aece" target="_top" xlink:title="get the timestamp">
<polygon fill="none" stroke="black" points="879,-400 879,-419 991,-419 991,-400 879,-400"/>
<text text-anchor="middle" x="935" y="-407" font-family="Helvetica,sans-Serif" font-size="10.00">zwapi_timestamp_get</text>
</a>
</g>
</g>
<!-- Node4&#45;&gt;Node10 -->
<g id="edge9" class="edge">
<title>Node4&#45;&gt;Node10</title>
<path fill="none" stroke="midnightblue" d="M824.37,-409.5C838.55,-409.5 854.03,-409.5 868.77,-409.5"/>
<polygon fill="midnightblue" stroke="midnightblue" points="868.83,-413 878.83,-409.5 868.83,-406 868.83,-413"/>
</g>
<!-- Node8 -->
<g id="node8" class="node">
<title>Node8</title>
<g id="a_node8"><a xlink:href="zwapi__serial_8c.html#a0accbbf7ddb7aeab10f5df1fe3df6642" target="_top" xlink:title=" ">
<polygon fill="none" stroke="black" points="1190,-216 1190,-235 1330,-235 1330,-216 1190,-216"/>
<text text-anchor="middle" x="1260" y="-223" font-family="Helvetica,sans-Serif" font-size="10.00">zwapi_serial_log_timestamp</text>
</a>
</g>
</g>
<!-- Node7&#45;&gt;Node8 -->
<g id="edge7" class="edge">
<title>Node7&#45;&gt;Node8</title>
<path fill="none" stroke="midnightblue" d="M1154.07,-224.22C1162.43,-224.32 1171.15,-224.43 1179.82,-224.53"/>
<polygon fill="midnightblue" stroke="midnightblue" points="1179.93,-228.03 1189.97,-224.66 1180.01,-221.03 1179.93,-228.03"/>
</g>
<!-- Node9 -->
<g id="node9" class="node">
<title>Node9</title>
<g id="a_node9"><a xlink:href="zwapi__serial_8c.html#abf18afb71e14daaf65d937149ef1639f" target="_top" xlink:title="Test if a is less than b + ms.">
<polygon fill="none" stroke="black" points="1206.5,-166.5 1206.5,-196.5 1313.5,-196.5 1313.5,-166.5 1206.5,-166.5"/>
<text text-anchor="start" x="1214.5" y="-184.5" font-family="Helvetica,sans-Serif" font-size="10.00">zwapi_serial_timeval</text>
<text text-anchor="middle" x="1260" y="-173.5" font-family="Helvetica,sans-Serif" font-size="10.00">_a_lt_b_milis</text>
</a>
</g>
</g>
<!-- Node7&#45;&gt;Node9 -->
<g id="edge8" class="edge">
<title>Node7&#45;&gt;Node9</title>
<path fill="none" stroke="midnightblue" d="M1132.6,-213.97C1151.47,-209.12 1174.93,-203.1 1196.49,-197.56"/>
<polygon fill="midnightblue" stroke="midnightblue" points="1197.42,-200.93 1206.24,-195.05 1195.68,-194.15 1197.42,-200.93"/>
</g>
<!-- Node12 -->
<g id="node12" class="node">
<title>Node12</title>
<g id="a_node12"><a xlink:href="zwapi__connection_8c.html#a1e45c6c9695b5e7b415adfad40080720" target="_top" xlink:title="Parses serial data sent from the Z&#45;Wave module to the serial port. Should be frequently called by mai...">
<polygon fill="none" stroke="black" points="705,-258 705,-277 835,-277 835,-258 705,-258"/>
<text text-anchor="middle" x="770" y="-265" font-family="Helvetica,sans-Serif" font-size="10.00">zwapi_connection_refresh</text>
</a>
</g>
</g>
<!-- Node11&#45;&gt;Node12 -->
<g id="edge11" class="edge">
<title>Node11&#45;&gt;Node12</title>
<path fill="none" stroke="midnightblue" d="M669.18,-267.5C677.45,-267.5 686.01,-267.5 694.49,-267.5"/>
<polygon fill="midnightblue" stroke="midnightblue" points="694.76,-271 704.76,-267.5 694.76,-264 694.76,-271"/>
</g>
<!-- Node18 -->
<g id="node18" class="node">
<title>Node18</title>
<g id="a_node18"><a xlink:href="zwapi__session_8c.html#a1f2b3e7c2dcf31708ef8d333747352ba" target="_top" xlink:title=" ">
<polygon fill="none" stroke="black" points="708.5,-66.5 708.5,-96.5 831.5,-96.5 831.5,-66.5 708.5,-66.5"/>
<text text-anchor="start" x="716.5" y="-84.5" font-family="Helvetica,sans-Serif" font-size="10.00">zwapi_session_enqueue</text>
<text text-anchor="middle" x="770" y="-73.5" font-family="Helvetica,sans-Serif" font-size="10.00">_frame</text>
</a>
</g>
</g>
<!-- Node11&#45;&gt;Node18 -->
<g id="edge23" class="edge">
<title>Node11&#45;&gt;Node18</title>
<path fill="none" stroke="midnightblue" d="M621.63,-252.28C649.8,-219.64 716.15,-142.75 749.35,-104.27"/>
<polygon fill="midnightblue" stroke="midnightblue" points="752.03,-106.53 755.91,-96.67 746.73,-101.96 752.03,-106.53"/>
</g>
<!-- Node12&#45;&gt;Node6 -->
<g id="edge13" class="edge">
<title>Node12&#45;&gt;Node6</title>
<path fill="none" stroke="midnightblue" d="M782.01,-277.24C799.73,-292.54 836.14,-322.43 871,-341.5 874.07,-343.18 877.28,-344.79 880.56,-346.34"/>
<polygon fill="midnightblue" stroke="midnightblue" points="879.36,-349.63 889.92,-350.48 882.2,-343.23 879.36,-349.63"/>
</g>
<!-- Node12&#45;&gt;Node10 -->
<g id="edge22" class="edge">
<title>Node12&#45;&gt;Node10</title>
<path fill="none" stroke="midnightblue" d="M776.12,-277.13C788.91,-300.28 824.59,-359.39 871,-390.5 874.08,-392.56 877.38,-394.41 880.81,-396.05"/>
<polygon fill="midnightblue" stroke="midnightblue" points="879.53,-399.31 890.1,-399.98 882.25,-392.86 879.53,-399.31"/>
</g>
<!-- Node13 -->
<g id="node13" class="node">
<title>Node13</title>
<g id="a_node13"><a xlink:href="zwapi__timestamp_8c.html#a3925f2732e344672608db38351236688" target="_top" xlink:title="compare the current timestamp with the timestamp passed as an argument">
<polygon fill="none" stroke="black" points="882,-252.5 882,-282.5 988,-282.5 988,-252.5 882,-252.5"/>
<text text-anchor="start" x="890" y="-270.5" font-family="Helvetica,sans-Serif" font-size="10.00">zwapi_is_timestamp</text>
<text text-anchor="middle" x="935" y="-259.5" font-family="Helvetica,sans-Serif" font-size="10.00">_elapsed</text>
</a>
</g>
</g>
<!-- Node12&#45;&gt;Node13 -->
<g id="edge12" class="edge">
<title>Node12&#45;&gt;Node13</title>
<path fill="none" stroke="midnightblue" d="M835.42,-267.5C847.33,-267.5 859.74,-267.5 871.59,-267.5"/>
<polygon fill="midnightblue" stroke="midnightblue" points="871.83,-271 881.83,-267.5 871.83,-264 871.83,-271"/>
</g>
<!-- Node14 -->
<g id="node14" class="node">
<title>Node14</title>
<g id="a_node14"><a xlink:href="zwapi__serial_8c.html#a538134f9fdbb1ce052667b3a041357bd" target="_top" xlink:title="Reads the output of the serial port device and stores the content in a buffer.">
<polygon fill="none" stroke="black" points="1035,-175 1035,-194 1154,-194 1154,-175 1035,-175"/>
<text text-anchor="middle" x="1094.5" y="-182" font-family="Helvetica,sans-Serif" font-size="10.00">zwapi_serial_get_buffer</text>
</a>
</g>
</g>
<!-- Node12&#45;&gt;Node14 -->
<g id="edge14" class="edge">
<title>Node12&#45;&gt;Node14</title>
<path fill="none" stroke="midnightblue" d="M782.08,-257.99C799.61,-243.55 835.43,-216.52 871,-204.5 920.6,-187.74 979.75,-183.09 1024.6,-182.45"/>
<polygon fill="midnightblue" stroke="midnightblue" points="1024.83,-185.94 1034.8,-182.36 1024.78,-178.94 1024.83,-185.94"/>
</g>
<!-- Node15 -->
<g id="node15" class="node">
<title>Node15</title>
<g id="a_node15"><a xlink:href="zwapi__serial_8c.html#abb082b1e7e727203e3ca5fbeb41f7c2b" target="_top" xlink:title="Reads a byte from the serial port device.">
<polygon fill="none" stroke="black" points="878.5,-138 878.5,-157 991.5,-157 991.5,-138 878.5,-138"/>
<text text-anchor="middle" x="935" y="-145" font-family="Helvetica,sans-Serif" font-size="10.00">zwapi_serial_get_byte</text>
</a>
</g>
</g>
<!-- Node12&#45;&gt;Node15 -->
<g id="edge17" class="edge">
<title>Node12&#45;&gt;Node15</title>
<path fill="none" stroke="midnightblue" d="M778.81,-257.73C794.47,-238.73 831.55,-196.48 871,-171.5 877.39,-167.45 884.57,-163.92 891.73,-160.9"/>
<polygon fill="midnightblue" stroke="midnightblue" points="893.38,-164.01 901.41,-157.1 890.82,-157.5 893.38,-164.01"/>
</g>
<!-- Node16 -->
<g id="node16" class="node">
<title>Node16</title>
<g id="a_node16"><a xlink:href="zwapi__serial_8c.html#a9a952dc2b34d92960246f6dc4e7d58f7" target="_top" xlink:title="Check the file descriptor for the serial device is available for I/O operations.">
<polygon fill="none" stroke="black" points="884.5,-301.5 884.5,-331.5 985.5,-331.5 985.5,-301.5 884.5,-301.5"/>
<text text-anchor="start" x="892.5" y="-319.5" font-family="Helvetica,sans-Serif" font-size="10.00">zwapi_serial_is_file</text>
<text text-anchor="middle" x="935" y="-308.5" font-family="Helvetica,sans-Serif" font-size="10.00">_available</text>
</a>
</g>
</g>
<!-- Node12&#45;&gt;Node16 -->
<g id="edge19" class="edge">
<title>Node12&#45;&gt;Node16</title>
<path fill="none" stroke="midnightblue" d="M802.81,-277.06C823.17,-283.18 850.22,-291.31 874.46,-298.6"/>
<polygon fill="midnightblue" stroke="midnightblue" points="873.71,-302.03 884.3,-301.56 875.73,-295.33 873.71,-302.03"/>
</g>
<!-- Node17 -->
<g id="node17" class="node">
<title>Node17</title>
<g id="a_node17"><a xlink:href="zwapi__serial_8c.html#a7762d0358e9f398b92edbfd6a550984a" target="_top" xlink:title="Write a byte to serial port device.">
<polygon fill="none" stroke="black" points="878.5,-214 878.5,-233 991.5,-233 991.5,-214 878.5,-214"/>
<text text-anchor="middle" x="935" y="-221" font-family="Helvetica,sans-Serif" font-size="10.00">zwapi_serial_put_byte</text>
</a>
</g>
</g>
<!-- Node12&#45;&gt;Node17 -->
<g id="edge20" class="edge">
<title>Node12&#45;&gt;Node17</title>
<path fill="none" stroke="midnightblue" d="M806.37,-257.95C830.51,-251.44 862.69,-242.75 888.7,-235.73"/>
<polygon fill="midnightblue" stroke="midnightblue" points="889.96,-239.01 898.7,-233.03 888.13,-232.26 889.96,-239.01"/>
</g>
<!-- Node14&#45;&gt;Node8 -->
<g id="edge15" class="edge">
<title>Node14&#45;&gt;Node8</title>
<path fill="none" stroke="midnightblue" d="M1133.42,-194.01C1156.55,-199.81 1186.33,-207.28 1211.09,-213.49"/>
<polygon fill="midnightblue" stroke="midnightblue" points="1210.45,-216.93 1221,-215.97 1212.15,-210.14 1210.45,-216.93"/>
</g>
<!-- Node14&#45;&gt;Node9 -->
<g id="edge16" class="edge">
<title>Node14&#45;&gt;Node9</title>
<path fill="none" stroke="midnightblue" d="M1154.07,-183.43C1167.65,-183.18 1182.16,-182.91 1195.92,-182.66"/>
<polygon fill="midnightblue" stroke="midnightblue" points="1196.34,-186.15 1206.28,-182.47 1196.22,-179.15 1196.34,-186.15"/>
</g>
<!-- Node15&#45;&gt;Node14 -->
<g id="edge18" class="edge">
<title>Node15&#45;&gt;Node14</title>
<path fill="none" stroke="midnightblue" d="M976.56,-157.03C996.78,-161.78 1021.44,-167.57 1042.88,-172.61"/>
<polygon fill="midnightblue" stroke="midnightblue" points="1042.27,-176.06 1052.8,-174.94 1043.87,-169.25 1042.27,-176.06"/>
</g>
<!-- Node17&#45;&gt;Node7 -->
<g id="edge21" class="edge">
<title>Node17&#45;&gt;Node7</title>
<path fill="none" stroke="midnightblue" d="M991.53,-223.5C1002.24,-223.5 1013.59,-223.5 1024.66,-223.5"/>
<polygon fill="midnightblue" stroke="midnightblue" points="1024.74,-227 1034.74,-223.5 1024.74,-220 1024.74,-227"/>
</g>
<!-- Node19 -->
<g id="node19" class="node">
<title>Node19</title>
<g id="a_node19"><a xlink:href="zwapi__connection_8c.html#a91ce3acd7eff779496789637a9c27f40" target="_top" xlink:title="Provides the data of the serial buffer for the last received frame.">
<polygon fill="none" stroke="black" points="878.5,-0.5 878.5,-30.5 991.5,-30.5 991.5,-0.5 878.5,-0.5"/>
<text text-anchor="start" x="886.5" y="-18.5" font-family="Helvetica,sans-Serif" font-size="10.00">zwapi_connection_get</text>
<text text-anchor="middle" x="935" y="-7.5" font-family="Helvetica,sans-Serif" font-size="10.00">_last_rx_frame</text>
</a>
</g>
</g>
<!-- Node18&#45;&gt;Node19 -->
<g id="edge24" class="edge">
<title>Node18&#45;&gt;Node19</title>
<path fill="none" stroke="midnightblue" d="M807.53,-66.41C826.45,-58.62 849.94,-48.99 871,-40.5 876.05,-38.46 881.33,-36.35 886.59,-34.25"/>
<polygon fill="midnightblue" stroke="midnightblue" points="888,-37.45 895.99,-30.5 885.41,-30.95 888,-37.45"/>
</g>
<!-- Node20 -->
<g id="node20" class="node">
<title>Node20</title>
<g id="a_node20"><a xlink:href="zwapi__session_8c.html#ad7bac697ee2388b38ed3777b5a3862bc" target="_top" xlink:title=" ">
<polygon fill="none" stroke="black" points="878.5,-88.5 878.5,-118.5 991.5,-118.5 991.5,-88.5 878.5,-88.5"/>
<text text-anchor="start" x="886.5" y="-106.5" font-family="Helvetica,sans-Serif" font-size="10.00">zwapi_session_get_rx</text>
<text text-anchor="middle" x="935" y="-95.5" font-family="Helvetica,sans-Serif" font-size="10.00">_queue_length</text>
</a>
</g>
</g>
<!-- Node18&#45;&gt;Node20 -->
<g id="edge25" class="edge">
<title>Node18&#45;&gt;Node20</title>
<path fill="none" stroke="midnightblue" d="M831.7,-89.69C843.65,-91.3 856.24,-93 868.34,-94.64"/>
<polygon fill="midnightblue" stroke="midnightblue" points="867.99,-98.12 878.37,-95.99 868.93,-91.19 867.99,-98.12"/>
</g>
<!-- Node21 -->
<g id="node21" class="node">
<title>Node21</title>
<g id="a_node21"><a xlink:href="group__ZWAPI__INIT.html#ga438a74c9752197d20d377874d5a61694" target="_top" xlink:title="Returns the pointer to the callbacks registered at init.">
<polygon fill="none" stroke="black" points="871,-50 871,-69 999,-69 999,-50 871,-50"/>
<text text-anchor="middle" x="935" y="-57" font-family="Helvetica,sans-Serif" font-size="10.00">zwave_api_get_callbacks</text>
</a>
</g>
</g>
<!-- Node18&#45;&gt;Node21 -->
<g id="edge26" class="edge">
<title>Node18&#45;&gt;Node21</title>
<path fill="none" stroke="midnightblue" d="M831.7,-73.31C841.17,-72.03 851.04,-70.7 860.76,-69.39"/>
<polygon fill="midnightblue" stroke="midnightblue" points="861.36,-72.84 870.8,-68.03 860.42,-65.9 861.36,-72.84"/>
</g>
</g>
</svg>
