<?xml version="1.0" encoding="UTF-8" standalone="no"?>
<!DOCTYPE svg PUBLIC "-//W3C//DTD SVG 1.1//EN"
 "http://www.w3.org/Graphics/SVG/1.1/DTD/svg11.dtd">
<!-- Generated by graphviz version 2.43.0 (0)
 -->
<!-- Title: transport_service_send_data Pages: 1 -->
<svg width="1323pt" height="720pt"
 viewBox="0.00 0.00 1323.00 720.15" xmlns="http://www.w3.org/2000/svg" xmlns:xlink="http://www.w3.org/1999/xlink">
<g id="graph0" class="graph" transform="scale(1 1) rotate(0) translate(4 716.15)">
<title>transport_service_send_data</title>
<!-- Node1 -->
<g id="node1" class="node">
<title>Node1</title>
<g id="a_node1"><a xlink:title="Sending a long frame with Transport service.">
<polygon fill="#bfbfbf" stroke="black" points="0,-594.15 0,-613.15 142,-613.15 142,-594.15 0,-594.15"/>
<text text-anchor="middle" x="71" y="-601.15" font-family="Helvetica,sans-Serif" font-size="10.00">transport_service_send_data</text>
</a>
</g>
</g>
<!-- Node2 -->
<g id="node2" class="node">
<title>Node2</title>
<g id="a_node2"><a xlink:href="transport__service_8c.html#a5f0608a1e90399ee5782c5df9eb96d4b" target="_top" xlink:title=" ">
<polygon fill="none" stroke="black" points="178,-681.65 178,-711.65 282,-711.65 282,-681.65 178,-681.65"/>
<text text-anchor="start" x="186" y="-699.65" font-family="Helvetica,sans-Serif" font-size="10.00">is_transport_service</text>
<text text-anchor="middle" x="230" y="-688.65" font-family="Helvetica,sans-Serif" font-size="10.00">_receiving</text>
</a>
</g>
</g>
<!-- Node1&#45;&gt;Node2 -->
<g id="edge1" class="edge">
<title>Node1&#45;&gt;Node2</title>
<path fill="none" stroke="midnightblue" d="M85.35,-613.19C105.1,-627.11 143.47,-653.41 178,-672.65 180.65,-674.12 183.41,-675.6 186.2,-677.04"/>
<polygon fill="midnightblue" stroke="midnightblue" points="184.69,-680.2 195.2,-681.54 187.82,-673.94 184.69,-680.2"/>
</g>
<!-- Node4 -->
<g id="node4" class="node">
<title>Node4</title>
<g id="a_node4"><a xlink:href="transport__service_8c.html#a002c0b0e8723a173b49eb5f22d2efcda" target="_top" xlink:title=" ">
<polygon fill="none" stroke="black" points="178,-632.65 178,-662.65 282,-662.65 282,-632.65 178,-632.65"/>
<text text-anchor="start" x="186" y="-650.65" font-family="Helvetica,sans-Serif" font-size="10.00">is_transport_service</text>
<text text-anchor="middle" x="230" y="-639.65" font-family="Helvetica,sans-Serif" font-size="10.00">_sending</text>
</a>
</g>
</g>
<!-- Node1&#45;&gt;Node4 -->
<g id="edge3" class="edge">
<title>Node1&#45;&gt;Node4</title>
<path fill="none" stroke="midnightblue" d="M106.07,-613.2C124.21,-618.28 147.07,-624.69 168.14,-630.59"/>
<polygon fill="midnightblue" stroke="midnightblue" points="167.42,-634.02 177.99,-633.35 169.31,-627.28 167.42,-634.02"/>
</g>
<!-- Node5 -->
<g id="node5" class="node">
<title>Node5</title>
<g id="a_node5"><a xlink:href="transport__service_8c.html#a0e899b6be96ecc8034ecb4aee4a5f859" target="_top" xlink:title=" ">
<polygon fill="none" stroke="black" points="1055,-480.15 1055,-499.15 1174,-499.15 1174,-480.15 1055,-480.15"/>
<text text-anchor="middle" x="1114.5" y="-487.15" font-family="Helvetica,sans-Serif" font-size="10.00">reset_transport_service</text>
</a>
</g>
</g>
<!-- Node1&#45;&gt;Node5 -->
<g id="edge5" class="edge">
<title>Node1&#45;&gt;Node5</title>
<path fill="none" stroke="midnightblue" d="M142.13,-603.65C207.16,-603.65 306.62,-603.65 393,-603.65 393,-603.65 393,-603.65 816,-603.65 908.13,-603.65 935.16,-599.85 1019,-561.65 1049.27,-547.85 1078.91,-522.86 1096.7,-506.25"/>
<polygon fill="midnightblue" stroke="midnightblue" points="1099.18,-508.72 1104,-499.29 1094.35,-503.66 1099.18,-508.72"/>
</g>
<!-- Node7 -->
<g id="node7" class="node">
<title>Node7</title>
<g id="a_node7"><a xlink:href="transport__service_8c.html#a050800ee9c4c9bc3aa76a93612fb985f" target="_top" xlink:title=" ">
<polygon fill="none" stroke="black" points="189.5,-352.15 189.5,-371.15 270.5,-371.15 270.5,-352.15 189.5,-352.15"/>
<text text-anchor="middle" x="230" y="-359.15" font-family="Helvetica,sans-Serif" font-size="10.00">send_first_frag</text>
</a>
</g>
</g>
<!-- Node1&#45;&gt;Node7 -->
<g id="edge7" class="edge">
<title>Node1&#45;&gt;Node7</title>
<path fill="none" stroke="midnightblue" d="M78.35,-593.86C102.12,-557.22 186.09,-427.79 217.25,-379.76"/>
<polygon fill="midnightblue" stroke="midnightblue" points="220.24,-381.58 222.74,-371.29 214.37,-377.78 220.24,-381.58"/>
</g>
<!-- Node11 -->
<g id="node11" class="node">
<title>Node11</title>
<g id="a_node11"><a xlink:href="transport__service_8c.html#ac935a7f30a3f2308402000ea5c34d00c" target="_top" xlink:title=" ">
<polygon fill="none" stroke="black" points="1066,-195.15 1066,-214.15 1163,-214.15 1163,-195.15 1066,-195.15"/>
<text text-anchor="middle" x="1114.5" y="-202.15" font-family="Helvetica,sans-Serif" font-size="10.00">t2_sm_post_event</text>
</a>
</g>
</g>
<!-- Node1&#45;&gt;Node11 -->
<g id="edge44" class="edge">
<title>Node1&#45;&gt;Node11</title>
<path fill="none" stroke="midnightblue" d="M72.44,-593.73C76.48,-515.72 113.61,-3.65 393,-3.65 393,-3.65 393,-3.65 816,-3.65 907.48,-3.65 944.07,14.83 1019,-37.65 1071.2,-74.2 1098.15,-149.38 1108.45,-185.04"/>
<polygon fill="midnightblue" stroke="midnightblue" points="1105.19,-186.41 1111.21,-195.13 1111.94,-184.56 1105.19,-186.41"/>
</g>
<!-- Node3 -->
<g id="node3" class="node">
<title>Node3</title>
<g id="a_node3"><a xlink:href="transport__service_8c.html#a8fc0b400dd606e4ce7df1070ca31ab69" target="_top" xlink:title=" ">
<polygon fill="none" stroke="black" points="356.5,-663.15 356.5,-682.15 431.5,-682.15 431.5,-663.15 356.5,-663.15"/>
<text text-anchor="middle" x="394" y="-670.15" font-family="Helvetica,sans-Serif" font-size="10.00">recv_or_send</text>
</a>
</g>
</g>
<!-- Node2&#45;&gt;Node3 -->
<g id="edge2" class="edge">
<title>Node2&#45;&gt;Node3</title>
<path fill="none" stroke="midnightblue" d="M282.26,-689.05C302.78,-686.01 326.26,-682.53 346.31,-679.57"/>
<polygon fill="midnightblue" stroke="midnightblue" points="347.06,-682.99 356.44,-678.06 346.04,-676.07 347.06,-682.99"/>
</g>
<!-- Node4&#45;&gt;Node3 -->
<g id="edge4" class="edge">
<title>Node4&#45;&gt;Node3</title>
<path fill="none" stroke="midnightblue" d="M282.26,-655.56C302.78,-658.73 326.26,-662.35 346.31,-665.44"/>
<polygon fill="midnightblue" stroke="midnightblue" points="346.03,-668.94 356.44,-667.01 347.09,-662.02 346.03,-668.94"/>
</g>
<!-- Node6 -->
<g id="node6" class="node">
<title>Node6</title>
<g id="a_node6"><a xlink:href="transport__service_8c.html#ac5bd8d9a6370babde7f4eb7cce1ff01c" target="_top" xlink:title=" ">
<polygon fill="none" stroke="black" points="1210,-474.65 1210,-504.65 1315,-504.65 1315,-474.65 1210,-474.65"/>
<text text-anchor="start" x="1218" y="-492.65" font-family="Helvetica,sans-Serif" font-size="10.00">discard_all_received</text>
<text text-anchor="middle" x="1262.5" y="-481.65" font-family="Helvetica,sans-Serif" font-size="10.00">_fragments</text>
</a>
</g>
</g>
<!-- Node5&#45;&gt;Node6 -->
<g id="edge6" class="edge">
<title>Node5&#45;&gt;Node6</title>
<path fill="none" stroke="midnightblue" d="M1174.04,-489.65C1182.39,-489.65 1191,-489.65 1199.41,-489.65"/>
<polygon fill="midnightblue" stroke="midnightblue" points="1199.54,-493.15 1209.54,-489.65 1199.54,-486.15 1199.54,-493.15"/>
</g>
<!-- Node7&#45;&gt;Node5 -->
<g id="edge10" class="edge">
<title>Node7&#45;&gt;Node5</title>
<path fill="none" stroke="midnightblue" d="M238.53,-371.21C271.22,-411.55 405.76,-565.65 553,-565.65 553,-565.65 553,-565.65 816,-565.65 907.27,-565.65 931.75,-561.44 1019,-534.65 1043.41,-527.15 1069.49,-514.33 1088.06,-504.28"/>
<polygon fill="midnightblue" stroke="midnightblue" points="1089.97,-507.22 1097.03,-499.33 1086.59,-501.1 1089.97,-507.22"/>
</g>
<!-- Node8 -->
<g id="node8" class="node">
<title>Node8</title>
<g id="a_node8"><a xlink:href="transport__service_8c.html#a2f78da3ac5fea2f4b445aaf289500abd" target="_top" xlink:title=" ">
<polygon fill="none" stroke="black" points="652.5,-328.15 652.5,-347.15 703.5,-347.15 703.5,-328.15 652.5,-328.15"/>
<text text-anchor="middle" x="678" y="-335.15" font-family="Helvetica,sans-Serif" font-size="10.00">add_crc</text>
</a>
</g>
</g>
<!-- Node7&#45;&gt;Node8 -->
<g id="edge8" class="edge">
<title>Node7&#45;&gt;Node8</title>
<path fill="none" stroke="midnightblue" d="M270.58,-359.52C356.78,-354.88 560.31,-343.93 642.09,-339.53"/>
<polygon fill="midnightblue" stroke="midnightblue" points="642.54,-343.01 652.34,-338.97 642.17,-336.02 642.54,-343.01"/>
</g>
<!-- Node10 -->
<g id="node10" class="node">
<title>Node10</title>
<g id="a_node10"><a xlink:href="transport__service_8c.html#a357ebe08fd6aa69fc82a072e76710bd5" target="_top" xlink:title=" ">
<polygon fill="none" stroke="black" points="638,-385.15 638,-404.15 718,-404.15 718,-385.15 638,-385.15"/>
<text text-anchor="middle" x="678" y="-392.15" font-family="Helvetica,sans-Serif" font-size="10.00">send_last_frag</text>
</a>
</g>
</g>
<!-- Node7&#45;&gt;Node10 -->
<g id="edge11" class="edge">
<title>Node7&#45;&gt;Node10</title>
<path fill="none" stroke="midnightblue" d="M270.58,-364.58C352.09,-370.61 538.52,-384.4 627.7,-391"/>
<polygon fill="midnightblue" stroke="midnightblue" points="627.6,-394.5 637.83,-391.75 628.11,-387.52 627.6,-394.5"/>
</g>
<!-- Node7&#45;&gt;Node11 -->
<g id="edge23" class="edge">
<title>Node7&#45;&gt;Node11</title>
<path fill="none" stroke="midnightblue" d="M234.82,-352.07C256.77,-298.83 372.12,-41.65 553,-41.65 553,-41.65 553,-41.65 816,-41.65 907.71,-41.65 941,-30.42 1019,-78.65 1061.25,-104.78 1091.13,-157.28 1104.92,-185.56"/>
<polygon fill="midnightblue" stroke="midnightblue" points="1101.83,-187.24 1109.26,-194.79 1108.17,-184.26 1101.83,-187.24"/>
</g>
<!-- Node15 -->
<g id="node15" class="node">
<title>Node15</title>
<g id="a_node15"><a xlink:href="transport__service_8c.html#a0d8b03eb74c8ac1b697cf1f967634e2e" target="_top" xlink:title=" ">
<polygon fill="none" stroke="black" points="318,-252.15 318,-271.15 470,-271.15 470,-252.15 318,-252.15"/>
<text text-anchor="middle" x="394" y="-259.15" font-family="Helvetica,sans-Serif" font-size="10.00">transport_service_senddata_cb</text>
</a>
</g>
</g>
<!-- Node7&#45;&gt;Node15 -->
<g id="edge24" class="edge">
<title>Node7&#45;&gt;Node15</title>
<path fill="none" stroke="midnightblue" d="M246.53,-352.06C274.76,-334.63 334.69,-297.64 368.48,-276.78"/>
<polygon fill="midnightblue" stroke="midnightblue" points="370.6,-279.59 377.28,-271.35 366.93,-273.63 370.6,-279.59"/>
</g>
<!-- Node9 -->
<g id="node9" class="node">
<title>Node9</title>
<g id="a_node9"><a xlink:href="group__zwave__controller__crc16.html#ga13ba4b98080a23413214afb6886b6eec" target="_top" xlink:title="Calculation of CRC16&#45;CCITT with Polynomial 0x1021 on data.">
<polygon fill="none" stroke="black" points="755.5,-328.15 755.5,-347.15 874.5,-347.15 874.5,-328.15 755.5,-328.15"/>
<text text-anchor="middle" x="815" y="-335.15" font-family="Helvetica,sans-Serif" font-size="10.00">zwave_controller_crc16</text>
</a>
</g>
</g>
<!-- Node8&#45;&gt;Node9 -->
<g id="edge9" class="edge">
<title>Node8&#45;&gt;Node9</title>
<path fill="none" stroke="midnightblue" d="M703.76,-337.65C715.57,-337.65 730.35,-337.65 745.22,-337.65"/>
<polygon fill="midnightblue" stroke="midnightblue" points="745.48,-341.15 755.48,-337.65 745.48,-334.15 745.48,-341.15"/>
</g>
<!-- Node10&#45;&gt;Node5 -->
<g id="edge12" class="edge">
<title>Node10&#45;&gt;Node5</title>
<path fill="none" stroke="midnightblue" d="M684.98,-404.32C696.12,-421.34 721.87,-456.21 754,-470.65 847.78,-512.8 969.49,-508.62 1044.51,-500.25"/>
<polygon fill="midnightblue" stroke="midnightblue" points="1045.25,-503.69 1054.77,-499.05 1044.44,-496.74 1045.25,-503.69"/>
</g>
<!-- Node10&#45;&gt;Node11 -->
<g id="edge13" class="edge">
<title>Node10&#45;&gt;Node11</title>
<path fill="none" stroke="midnightblue" d="M718.14,-390.89C758.63,-386.13 823.21,-376.09 876,-356.65 944.54,-331.4 957.9,-315.67 1019,-275.65 1045.8,-258.1 1075.05,-235.55 1093.8,-220.63"/>
<polygon fill="midnightblue" stroke="midnightblue" points="1096.01,-223.34 1101.63,-214.35 1091.64,-217.88 1096.01,-223.34"/>
</g>
<!-- Node13 -->
<g id="node13" class="node">
<title>Node13</title>
<g id="a_node13"><a xlink:href="transport__service_8c.html#a8ec2e40dce8c6cdab972b44e55ba6cec" target="_top" xlink:title=" ">
<polygon fill="none" stroke="black" points="754,-442.15 754,-461.15 876,-461.15 876,-442.15 754,-442.15"/>
<text text-anchor="middle" x="815" y="-449.15" font-family="Helvetica,sans-Serif" font-size="10.00">temp_callback_last_frag</text>
</a>
</g>
</g>
<!-- Node10&#45;&gt;Node13 -->
<g id="edge15" class="edge">
<title>Node10&#45;&gt;Node13</title>
<path fill="none" stroke="midnightblue" d="M718.21,-403.58C729.7,-408.26 742.33,-413.75 754,-418.65 768.06,-424.55 784.11,-430.95 796.07,-437.01"/>
<polygon fill="midnightblue" stroke="midnightblue" points="794.58,-440.18 805.02,-441.99 797.98,-434.07 794.58,-440.18"/>
</g>
<!-- Node12 -->
<g id="node12" class="node">
<title>Node12</title>
<g id="a_node12"><a xlink:href="transport__service_8c.html#a8f014c5804fe50e480dea5db75de4d51" target="_top" xlink:title=" ">
<polygon fill="none" stroke="black" points="1224,-195.15 1224,-214.15 1301,-214.15 1301,-195.15 1224,-195.15"/>
<text text-anchor="middle" x="1262.5" y="-202.15" font-family="Helvetica,sans-Serif" font-size="10.00">find_transition</text>
</a>
</g>
</g>
<!-- Node11&#45;&gt;Node12 -->
<g id="edge14" class="edge">
<title>Node11&#45;&gt;Node12</title>
<path fill="none" stroke="midnightblue" d="M1163.31,-204.65C1179.41,-204.65 1197.37,-204.65 1213.49,-204.65"/>
<polygon fill="midnightblue" stroke="midnightblue" points="1213.77,-208.15 1223.77,-204.65 1213.77,-201.15 1213.77,-208.15"/>
</g>
<!-- Node13&#45;&gt;Node5 -->
<g id="edge20" class="edge">
<title>Node13&#45;&gt;Node5</title>
<path fill="none" stroke="midnightblue" d="M876.02,-458.27C916.46,-462.86 970.98,-469.25 1019,-475.65 1027.33,-476.76 1036.07,-477.98 1044.72,-479.22"/>
<polygon fill="midnightblue" stroke="midnightblue" points="1044.41,-482.71 1054.81,-480.68 1045.42,-475.78 1044.41,-482.71"/>
</g>
<!-- Node13&#45;&gt;Node10 -->
<g id="edge21" class="edge">
<title>Node13&#45;&gt;Node10</title>
<path fill="none" stroke="midnightblue" d="M767.1,-442.03C762.66,-440.25 758.24,-438.43 754,-436.65 734.2,-428.34 711.68,-418.35 696.52,-409.72"/>
<polygon fill="midnightblue" stroke="midnightblue" points="698.08,-406.56 687.73,-404.26 694.39,-412.51 698.08,-406.56"/>
</g>
<!-- Node13&#45;&gt;Node11 -->
<g id="edge22" class="edge">
<title>Node13&#45;&gt;Node11</title>
<path fill="none" stroke="midnightblue" d="M876.17,-447.65C920.06,-441.9 978.68,-428.03 1019,-394.65 1074.27,-348.89 1100.14,-262.78 1109.35,-224.2"/>
<polygon fill="midnightblue" stroke="midnightblue" points="1112.81,-224.78 1111.61,-214.25 1105.98,-223.23 1112.81,-224.78"/>
</g>
<!-- Node14 -->
<g id="node14" class="node">
<title>Node14</title>
<g id="a_node14"><a xlink:href="transport__service_8c.html#a8ea28513599b01de1634e53dc2cb2c91" target="_top" xlink:title=" ">
<polygon fill="none" stroke="black" points="921,-366.15 921,-385.15 1010,-385.15 1010,-366.15 921,-366.15"/>
<text text-anchor="middle" x="965.5" y="-373.15" font-family="Helvetica,sans-Serif" font-size="10.00">fc_timer_expired</text>
</a>
</g>
</g>
<!-- Node13&#45;&gt;Node14 -->
<g id="edge16" class="edge">
<title>Node13&#45;&gt;Node14</title>
<path fill="none" stroke="midnightblue" d="M844.54,-442.11C854.76,-438.21 866.17,-433.29 876,-427.65 893.58,-417.56 894.67,-410.15 912,-399.65 918.05,-395.98 924.75,-392.52 931.28,-389.41"/>
<polygon fill="midnightblue" stroke="midnightblue" points="932.99,-392.48 940.64,-385.15 930.09,-386.11 932.99,-392.48"/>
</g>
<!-- Node14&#45;&gt;Node5 -->
<g id="edge17" class="edge">
<title>Node14&#45;&gt;Node5</title>
<path fill="none" stroke="midnightblue" d="M978.78,-385.17C1004.01,-404.74 1061.91,-449.64 1092.95,-473.71"/>
<polygon fill="midnightblue" stroke="midnightblue" points="1090.9,-476.55 1100.94,-479.91 1095.19,-471.02 1090.9,-476.55"/>
</g>
<!-- Node14&#45;&gt;Node10 -->
<g id="edge18" class="edge">
<title>Node14&#45;&gt;Node10</title>
<path fill="none" stroke="midnightblue" d="M920.98,-383.7C906.7,-386.03 890.72,-388.3 876,-389.65 825.85,-394.23 768.25,-395.2 728.34,-395.19"/>
<polygon fill="midnightblue" stroke="midnightblue" points="728.34,-391.69 718.33,-395.17 728.33,-398.69 728.34,-391.69"/>
</g>
<!-- Node14&#45;&gt;Node11 -->
<g id="edge19" class="edge">
<title>Node14&#45;&gt;Node11</title>
<path fill="none" stroke="midnightblue" d="M995.23,-366.03C1003.48,-362.38 1012.11,-357.62 1019,-351.65 1061.45,-314.85 1091.93,-254.38 1105.55,-223.73"/>
<polygon fill="midnightblue" stroke="midnightblue" points="1108.9,-224.79 1109.66,-214.22 1102.48,-222.02 1108.9,-224.79"/>
</g>
<!-- Node15&#45;&gt;Node11 -->
<g id="edge43" class="edge">
<title>Node15&#45;&gt;Node11</title>
<path fill="none" stroke="midnightblue" d="M402.56,-251.86C432.68,-214.06 548.81,-79.65 677,-79.65 677,-79.65 677,-79.65 816,-79.65 907.79,-79.65 936.94,-76.52 1019,-117.65 1052.67,-134.52 1083.04,-166.99 1099.81,-187.14"/>
<polygon fill="midnightblue" stroke="midnightblue" points="1097.12,-189.38 1106.14,-194.94 1102.56,-184.97 1097.12,-189.38"/>
</g>
<!-- Node16 -->
<g id="node16" class="node">
<title>Node16</title>
<g id="a_node16"><a xlink:href="transport__service_8c.html#a67e57d4768071543cd6f67b8e95dc6d8" target="_top" xlink:title=" ">
<polygon fill="none" stroke="black" points="515,-252.15 515,-271.15 593,-271.15 593,-252.15 515,-252.15"/>
<text text-anchor="middle" x="554" y="-259.15" font-family="Helvetica,sans-Serif" font-size="10.00">reply_frag_req</text>
</a>
</g>
</g>
<!-- Node15&#45;&gt;Node16 -->
<g id="edge25" class="edge">
<title>Node15&#45;&gt;Node16</title>
<path fill="none" stroke="midnightblue" d="M470.3,-254.9C481.98,-254.86 493.78,-255.02 504.65,-255.37"/>
<polygon fill="midnightblue" stroke="midnightblue" points="504.64,-258.87 514.77,-255.77 504.91,-251.88 504.64,-258.87"/>
</g>
<!-- Node18 -->
<g id="node18" class="node">
<title>Node18</title>
<g id="a_node18"><a xlink:href="transport__service_8c.html#a8a25db2fc95ae366bd129a0d76800d7c" target="_top" xlink:title=" ">
<polygon fill="none" stroke="black" points="912,-127.15 912,-146.15 1019,-146.15 1019,-127.15 912,-127.15"/>
<text text-anchor="middle" x="965.5" y="-134.15" font-family="Helvetica,sans-Serif" font-size="10.00">send_frag_wait_cmd</text>
</a>
</g>
</g>
<!-- Node15&#45;&gt;Node18 -->
<g id="edge33" class="edge">
<title>Node15&#45;&gt;Node18</title>
<path fill="none" stroke="midnightblue" d="M410.1,-252.02C458.92,-228.2 617.32,-170.13 754,-145.65 803.2,-136.84 859.66,-132.3 901.72,-131.35"/>
<polygon fill="midnightblue" stroke="midnightblue" points="901.87,-134.85 911.81,-131.19 901.76,-127.85 901.87,-134.85"/>
</g>
<!-- Node19 -->
<g id="node19" class="node">
<title>Node19</title>
<g id="a_node19"><a xlink:href="transport__service_8c.html#ada81ed14232e9fcf5ffc8cef349c28b5" target="_top" xlink:title=" ">
<polygon fill="none" stroke="black" points="506,-294.15 506,-313.15 602,-313.15 602,-294.15 506,-294.15"/>
<text text-anchor="middle" x="554" y="-301.15" font-family="Helvetica,sans-Serif" font-size="10.00">send_subseq_frag</text>
</a>
</g>
</g>
<!-- Node15&#45;&gt;Node19 -->
<g id="edge37" class="edge">
<title>Node15&#45;&gt;Node19</title>
<path fill="none" stroke="midnightblue" d="M455.64,-271.18C479.39,-277.06 505.49,-284.42 524.68,-290.8"/>
<polygon fill="midnightblue" stroke="midnightblue" points="523.71,-294.17 534.3,-294.13 526,-287.55 523.71,-294.17"/>
</g>
<!-- Node16&#45;&gt;Node8 -->
<g id="edge26" class="edge">
<title>Node16&#45;&gt;Node8</title>
<path fill="none" stroke="midnightblue" d="M576.44,-271.25C584.59,-275.13 593.87,-279.83 602,-284.65 621.08,-295.96 641.57,-310.63 656.31,-321.67"/>
<polygon fill="midnightblue" stroke="midnightblue" points="654.59,-324.76 664.67,-328.01 658.82,-319.18 654.59,-324.76"/>
</g>
<!-- Node16&#45;&gt;Node10 -->
<g id="edge28" class="edge">
<title>Node16&#45;&gt;Node10</title>
<path fill="none" stroke="midnightblue" d="M582.31,-271.33C589.33,-274.75 596.45,-279.15 602,-284.65 627.41,-309.84 616.89,-327.76 638,-356.65 643.61,-364.33 650.84,-371.84 657.54,-378.13"/>
<polygon fill="midnightblue" stroke="midnightblue" points="655.27,-380.8 665.04,-384.89 659.96,-375.6 655.27,-380.8"/>
</g>
<!-- Node16&#45;&gt;Node11 -->
<g id="edge29" class="edge">
<title>Node16&#45;&gt;Node11</title>
<path fill="none" stroke="midnightblue" d="M593.39,-257.73C689.58,-247.91 941.38,-222.21 1055.63,-210.55"/>
<polygon fill="midnightblue" stroke="midnightblue" points="1056.33,-214 1065.92,-209.5 1055.61,-207.04 1056.33,-214"/>
</g>
<!-- Node16&#45;&gt;Node14 -->
<g id="edge27" class="edge">
<title>Node16&#45;&gt;Node14</title>
<path fill="none" stroke="midnightblue" d="M593.38,-263.58C654.97,-267.73 778.79,-280.5 876,-318.65 901.64,-328.71 927.77,-346.68 944.92,-359.76"/>
<polygon fill="midnightblue" stroke="midnightblue" points="942.99,-362.69 953.02,-366.09 947.29,-357.18 942.99,-362.69"/>
</g>
<!-- Node16&#45;&gt;Node15 -->
<g id="edge32" class="edge">
<title>Node16&#45;&gt;Node15</title>
<path fill="none" stroke="midnightblue" d="M514.77,-267.53C504.27,-268.02 492.44,-268.3 480.42,-268.38"/>
<polygon fill="midnightblue" stroke="midnightblue" points="480.29,-264.88 470.3,-268.39 480.3,-271.88 480.29,-264.88"/>
</g>
<!-- Node17 -->
<g id="node17" class="node">
<title>Node17</title>
<g id="a_node17"><a xlink:href="transport__service_8c.html#a331b914d5344d6a3dd00d6d56f1a4839" target="_top" xlink:title=" ">
<polygon fill="none" stroke="black" points="762,-164.65 762,-194.65 868,-194.65 868,-164.65 762,-164.65"/>
<text text-anchor="start" x="770" y="-182.65" font-family="Helvetica,sans-Serif" font-size="10.00">temp_callback_reply</text>
<text text-anchor="middle" x="815" y="-171.65" font-family="Helvetica,sans-Serif" font-size="10.00">_frag_req</text>
</a>
</g>
</g>
<!-- Node16&#45;&gt;Node17 -->
<g id="edge30" class="edge">
<title>Node16&#45;&gt;Node17</title>
<path fill="none" stroke="midnightblue" d="M566.85,-252.1C582.27,-240.19 610.51,-220.13 638,-209.65 674.22,-195.84 717.06,-188.36 751.4,-184.33"/>
<polygon fill="midnightblue" stroke="midnightblue" points="752.21,-187.76 761.77,-183.18 751.44,-180.8 752.21,-187.76"/>
</g>
<!-- Node17&#45;&gt;Node11 -->
<g id="edge31" class="edge">
<title>Node17&#45;&gt;Node11</title>
<path fill="none" stroke="midnightblue" d="M868.16,-184.03C920.61,-188.44 1001.27,-195.22 1055.65,-199.79"/>
<polygon fill="midnightblue" stroke="midnightblue" points="1055.57,-203.29 1065.83,-200.64 1056.15,-196.32 1055.57,-203.29"/>
</g>
<!-- Node18&#45;&gt;Node5 -->
<g id="edge34" class="edge">
<title>Node18&#45;&gt;Node5</title>
<path fill="none" stroke="midnightblue" d="M970.59,-146.46C990.61,-194.56 1078.57,-405.77 1105.58,-470.63"/>
<polygon fill="midnightblue" stroke="midnightblue" points="1102.43,-472.17 1109.5,-480.05 1108.89,-469.47 1102.43,-472.17"/>
</g>
<!-- Node18&#45;&gt;Node11 -->
<g id="edge35" class="edge">
<title>Node18&#45;&gt;Node11</title>
<path fill="none" stroke="midnightblue" d="M987.25,-146.25C1012.42,-157.89 1055.04,-177.6 1083.71,-190.87"/>
<polygon fill="midnightblue" stroke="midnightblue" points="1082.31,-194.08 1092.86,-195.1 1085.25,-187.72 1082.31,-194.08"/>
</g>
<!-- Node18&#45;&gt;Node15 -->
<g id="edge36" class="edge">
<title>Node18&#45;&gt;Node15</title>
<path fill="none" stroke="midnightblue" d="M911.81,-145.75C869.02,-149.59 807.25,-154.11 754,-163.65 640.97,-183.89 513.08,-227.11 444.59,-249.03"/>
<polygon fill="midnightblue" stroke="midnightblue" points="443.4,-245.74 434.93,-252.1 445.52,-252.41 443.4,-245.74"/>
</g>
<!-- Node19&#45;&gt;Node5 -->
<g id="edge39" class="edge">
<title>Node19&#45;&gt;Node5</title>
<path fill="none" stroke="midnightblue" d="M560.58,-313.36C580.96,-347.69 655.37,-463.21 754,-500.65 864.24,-542.5 901.99,-528.27 1019,-513.65 1037.22,-511.37 1056.97,-506.71 1073.68,-502.1"/>
<polygon fill="midnightblue" stroke="midnightblue" points="1074.99,-505.37 1083.65,-499.26 1073.07,-498.64 1074.99,-505.37"/>
</g>
<!-- Node19&#45;&gt;Node8 -->
<g id="edge38" class="edge">
<title>Node19&#45;&gt;Node8</title>
<path fill="none" stroke="midnightblue" d="M589.31,-313.21C605.88,-317.83 625.73,-323.36 642.35,-327.99"/>
<polygon fill="midnightblue" stroke="midnightblue" points="641.65,-331.43 652.23,-330.74 643.53,-324.69 641.65,-331.43"/>
</g>
<!-- Node19&#45;&gt;Node10 -->
<g id="edge40" class="edge">
<title>Node19&#45;&gt;Node10</title>
<path fill="none" stroke="midnightblue" d="M568.06,-313.39C589.06,-329.05 630.56,-360 655.83,-378.86"/>
<polygon fill="midnightblue" stroke="midnightblue" points="653.93,-381.81 664.04,-384.98 658.11,-376.19 653.93,-381.81"/>
</g>
<!-- Node19&#45;&gt;Node11 -->
<g id="edge41" class="edge">
<title>Node19&#45;&gt;Node11</title>
<path fill="none" stroke="midnightblue" d="M602.23,-299.15C686.64,-290.54 868.65,-269.46 1019,-234.65 1038.63,-230.1 1060.06,-223.44 1077.54,-217.55"/>
<polygon fill="midnightblue" stroke="midnightblue" points="1079.01,-220.75 1087.34,-214.2 1076.74,-214.13 1079.01,-220.75"/>
</g>
<!-- Node19&#45;&gt;Node15 -->
<g id="edge42" class="edge">
<title>Node19&#45;&gt;Node15</title>
<path fill="none" stroke="midnightblue" d="M505.9,-297.36C478.99,-291.13 446.15,-282.09 423.22,-274.46"/>
<polygon fill="midnightblue" stroke="midnightblue" points="424.34,-271.15 413.75,-271.19 422.05,-277.76 424.34,-271.15"/>
</g>
</g>
</svg>
