<?xml version="1.0" encoding="UTF-8" standalone="no"?>
<!DOCTYPE svg PUBLIC "-//W3C//DTD SVG 1.1//EN"
 "http://www.w3.org/Graphics/SVG/1.1/DTD/svg11.dtd">
<!-- Generated by graphviz version 2.43.0 (0)
 -->
<!-- Title: zwapi_get_long_range_nodes Pages: 1 -->
<svg width="1114pt" height="186pt"
 viewBox="0.00 0.00 1114.00 185.50" xmlns="http://www.w3.org/2000/svg" xmlns:xlink="http://www.w3.org/1999/xlink">
<g id="graph0" class="graph" transform="scale(1 1) rotate(0) translate(4 181.5)">
<title>zwapi_get_long_range_nodes</title>
<!-- Node1 -->
<g id="node1" class="node">
<title>Node1</title>
<g id="a_node1"><a xlink:title="Get Z&#45;Wave Long Range node list in ZW_LR_NODEMASK_OFFSET offset of zwave_nodemask_t.">
<polygon fill="#bfbfbf" stroke="black" points="993,-114.5 993,-144.5 1106,-144.5 1106,-114.5 993,-114.5"/>
<text text-anchor="start" x="1001" y="-132.5" font-family="Helvetica,sans-Serif" font-size="10.00">zwapi_get_long_range</text>
<text text-anchor="middle" x="1049.5" y="-121.5" font-family="Helvetica,sans-Serif" font-size="10.00">_nodes</text>
</a>
</g>
</g>
<!-- Node2 -->
<g id="node2" class="node">
<title>Node2</title>
<g id="a_node2"><a xlink:href="group__ZWAPI__BASIS.html#ga9258a9781ad809166ef8f97a1ab25559" target="_top" xlink:title="Get the entire list of nodes in our network (both Z&#45;Wave and Z&#45;Wave Long Range)">
<polygon fill="none" stroke="black" points="834,-120 834,-139 957,-139 957,-120 834,-120"/>
<text text-anchor="middle" x="895.5" y="-127" font-family="Helvetica,sans-Serif" font-size="10.00">zwapi_get_full_node_list</text>
</a>
</g>
</g>
<!-- Node1&#45;&gt;Node2 -->
<g id="edge1" class="edge">
<title>Node1&#45;&gt;Node2</title>
<path fill="none" stroke="midnightblue" d="M982.56,-129.5C974.1,-129.5 965.46,-129.5 957.09,-129.5"/>
<polygon fill="midnightblue" stroke="midnightblue" points="982.76,-133 992.76,-129.5 982.76,-126 982.76,-133"/>
</g>
<!-- Node3 -->
<g id="node3" class="node">
<title>Node3</title>
<g id="a_node3"><a xlink:href="group__zwave__network__management__helpers.html#ga5227fb50c1c2561cb1e9f4eda182c62c" target="_top" xlink:title="Asks the Z&#45;Wave API about the list of NodeIDs in our network.">
<polygon fill="none" stroke="black" points="665,-114.5 665,-144.5 798,-144.5 798,-114.5 665,-114.5"/>
<text text-anchor="start" x="673" y="-132.5" font-family="Helvetica,sans-Serif" font-size="10.00">network_management</text>
<text text-anchor="middle" x="731.5" y="-121.5" font-family="Helvetica,sans-Serif" font-size="10.00">_refresh_cached_node_list</text>
</a>
</g>
</g>
<!-- Node2&#45;&gt;Node3 -->
<g id="edge2" class="edge">
<title>Node2&#45;&gt;Node3</title>
<path fill="none" stroke="midnightblue" d="M823.55,-129.5C815.14,-129.5 806.57,-129.5 798.24,-129.5"/>
<polygon fill="midnightblue" stroke="midnightblue" points="823.72,-133 833.72,-129.5 823.72,-126 823.72,-133"/>
</g>
<!-- Node4 -->
<g id="node4" class="node">
<title>Node4</title>
<g id="a_node4"><a xlink:href="nm__state__machine_8c.html#af9725af53f46d47041ed76276f01b39c" target="_top" xlink:title="Tell the Z&#45;Wave Controller that a Network Inclusion operation has completed and returns the NM state ...">
<polygon fill="none" stroke="black" points="501,-158 501,-177 612,-177 612,-158 501,-158"/>
<text text-anchor="middle" x="556.5" y="-165" font-family="Helvetica,sans-Serif" font-size="10.00">dispatch_node_added</text>
</a>
</g>
</g>
<!-- Node3&#45;&gt;Node4 -->
<g id="edge3" class="edge">
<title>Node3&#45;&gt;Node4</title>
<path fill="none" stroke="midnightblue" d="M654.77,-146.13C636.37,-150.18 617.31,-154.36 601,-157.95"/>
<polygon fill="midnightblue" stroke="midnightblue" points="655.59,-149.54 664.6,-143.97 654.08,-142.7 655.59,-149.54"/>
</g>
<!-- Node5 -->
<g id="node5" class="node">
<title>Node5</title>
<g id="a_node5"><a xlink:href="nm__state__machine_8c.html#ac9fe4041f9ca45bad16c9b6ad7bae02f" target="_top" xlink:title=" ">
<polygon fill="none" stroke="black" points="169.5,-101 169.5,-120 274.5,-120 274.5,-101 169.5,-101"/>
<text text-anchor="middle" x="222" y="-108" font-family="Helvetica,sans-Serif" font-size="10.00">nm_fsm_post_event</text>
</a>
</g>
</g>
<!-- Node3&#45;&gt;Node5 -->
<g id="edge13" class="edge">
<title>Node3&#45;&gt;Node5</title>
<path fill="none" stroke="midnightblue" d="M654.77,-126.66C550.23,-122.75 364.47,-115.8 274.57,-112.43"/>
<polygon fill="midnightblue" stroke="midnightblue" points="654.81,-130.17 664.93,-127.05 655.07,-123.17 654.81,-130.17"/>
</g>
<!-- Node7 -->
<g id="node7" class="node">
<title>Node7</title>
<g id="a_node7"><a xlink:href="group__zwave__network__management__helpers.html#ga928b8064fa28f0d83d52c176d8dd994b" target="_top" xlink:title="Quick helper function that will refresh all network information (HomeID, NodeID, Node list,...">
<polygon fill="none" stroke="black" points="484,-54.5 484,-84.5 629,-84.5 629,-54.5 484,-54.5"/>
<text text-anchor="start" x="492" y="-72.5" font-family="Helvetica,sans-Serif" font-size="10.00">network_management</text>
<text text-anchor="middle" x="556.5" y="-61.5" font-family="Helvetica,sans-Serif" font-size="10.00">_refresh_network_information</text>
</a>
</g>
</g>
<!-- Node3&#45;&gt;Node7 -->
<g id="edge7" class="edge">
<title>Node3&#45;&gt;Node7</title>
<path fill="none" stroke="midnightblue" d="M677.32,-111.06C652.79,-102.55 624.03,-92.57 600.84,-84.53"/>
<polygon fill="midnightblue" stroke="midnightblue" points="676.25,-114.39 686.84,-114.36 678.54,-107.78 676.25,-114.39"/>
</g>
<!-- Node4&#45;&gt;Node5 -->
<g id="edge4" class="edge">
<title>Node4&#45;&gt;Node5</title>
<path fill="none" stroke="midnightblue" d="M490.39,-163.82C445.3,-160.48 384.09,-154.35 331,-143.5 302.57,-137.69 270.92,-127.57 249.27,-120.06"/>
<polygon fill="midnightblue" stroke="midnightblue" points="490.39,-167.33 500.62,-164.55 490.89,-160.35 490.39,-167.33"/>
</g>
<!-- Node5&#45;&gt;Node5 -->
<g id="edge5" class="edge">
<title>Node5&#45;&gt;Node5</title>
<path fill="none" stroke="midnightblue" d="M252.69,-128.77C251.81,-134.24 241.58,-138.5 222,-138.5 192.85,-138.5 184.43,-129.07 196.72,-120.26"/>
<polygon fill="midnightblue" stroke="midnightblue" points="255.59,-126.82 247.28,-120.26 249.69,-130.57 255.59,-126.82"/>
</g>
<!-- Node6 -->
<g id="node6" class="node">
<title>Node6</title>
<g id="a_node6"><a xlink:href="zwave__network__management__process_8c.html#a59cf655b084839b45cc25e23b3aef04c" target="_top" xlink:title=" ">
<polygon fill="none" stroke="black" points="0,-101 0,-120 113,-120 113,-101 0,-101"/>
<text text-anchor="middle" x="56.5" y="-108" font-family="Helvetica,sans-Serif" font-size="10.00">PROCESS_THREAD</text>
</a>
</g>
</g>
<!-- Node5&#45;&gt;Node6 -->
<g id="edge6" class="edge">
<title>Node5&#45;&gt;Node6</title>
<path fill="none" stroke="midnightblue" d="M159.01,-110.5C143.93,-110.5 127.9,-110.5 113.14,-110.5"/>
<polygon fill="midnightblue" stroke="midnightblue" points="159.27,-114 169.27,-110.5 159.27,-107 159.27,-114"/>
</g>
<!-- Node7&#45;&gt;Node5 -->
<g id="edge8" class="edge">
<title>Node7&#45;&gt;Node5</title>
<path fill="none" stroke="midnightblue" d="M473.58,-79.6C411.35,-87.27 327.69,-97.59 274.54,-104.14"/>
<polygon fill="midnightblue" stroke="midnightblue" points="474.27,-83.04 483.76,-78.35 473.41,-76.1 474.27,-83.04"/>
</g>
<!-- Node8 -->
<g id="node8" class="node">
<title>Node8</title>
<g id="a_node8"><a xlink:href="nm__state__machine_8c.html#a4bedb93fa551c5f612efe78db1642309" target="_top" xlink:title="Initialize the Z&#45;Wave network management state machine.">
<polygon fill="none" stroke="black" points="331,-6 331,-25 448,-25 448,-6 331,-6"/>
<text text-anchor="middle" x="389.5" y="-13" font-family="Helvetica,sans-Serif" font-size="10.00">nm_state_machine_init</text>
</a>
</g>
</g>
<!-- Node7&#45;&gt;Node8 -->
<g id="edge9" class="edge">
<title>Node7&#45;&gt;Node8</title>
<path fill="none" stroke="midnightblue" d="M499.85,-51.29C472.95,-42.48 441.78,-32.28 419.62,-25.03"/>
<polygon fill="midnightblue" stroke="midnightblue" points="498.95,-54.67 509.54,-54.46 501.12,-48.02 498.95,-54.67"/>
</g>
<!-- Node10 -->
<g id="node10" class="node">
<title>Node10</title>
<g id="a_node10"><a xlink:href="nm__state__machine_8c.html#abcdc17538148dcf4141793a866836aae" target="_top" xlink:title="This function is called at the end of a set default or after learnmode.">
<polygon fill="none" stroke="black" points="344.5,-44 344.5,-63 434.5,-63 434.5,-44 344.5,-44"/>
<text text-anchor="middle" x="389.5" y="-51" font-family="Helvetica,sans-Serif" font-size="10.00">on_new_network</text>
</a>
</g>
</g>
<!-- Node7&#45;&gt;Node10 -->
<g id="edge11" class="edge">
<title>Node7&#45;&gt;Node10</title>
<path fill="none" stroke="midnightblue" d="M473.4,-61.54C460.01,-60.24 446.61,-58.94 434.61,-57.78"/>
<polygon fill="midnightblue" stroke="midnightblue" points="473.32,-65.05 483.61,-62.53 473.99,-58.08 473.32,-65.05"/>
</g>
<!-- Node9 -->
<g id="node9" class="node">
<title>Node9</title>
<g id="a_node9"><a xlink:href="group__zwave__network__management__fixt.html#gaa8950dbf92037e3ec5e0385641176c98" target="_top" xlink:title="Initialize the Z&#45;Wave Network Management Module.">
<polygon fill="none" stroke="black" points="149,-0.5 149,-30.5 295,-30.5 295,-0.5 149,-0.5"/>
<text text-anchor="start" x="157" y="-18.5" font-family="Helvetica,sans-Serif" font-size="10.00">zwave_network_management</text>
<text text-anchor="middle" x="222" y="-7.5" font-family="Helvetica,sans-Serif" font-size="10.00">_fixt_setup</text>
</a>
</g>
</g>
<!-- Node8&#45;&gt;Node9 -->
<g id="edge10" class="edge">
<title>Node8&#45;&gt;Node9</title>
<path fill="none" stroke="midnightblue" d="M320.52,-15.5C312.14,-15.5 303.55,-15.5 295.11,-15.5"/>
<polygon fill="midnightblue" stroke="midnightblue" points="320.62,-19 330.62,-15.5 320.62,-12 320.62,-19"/>
</g>
<!-- Node10&#45;&gt;Node5 -->
<g id="edge12" class="edge">
<title>Node10&#45;&gt;Node5</title>
<path fill="none" stroke="midnightblue" d="M350.96,-66.43C320.51,-76.92 278.27,-91.46 250.79,-100.93"/>
<polygon fill="midnightblue" stroke="midnightblue" points="352.48,-69.61 360.8,-63.04 350.2,-62.99 352.48,-69.61"/>
</g>
</g>
</svg>
