<?xml version="1.0" encoding="UTF-8" standalone="no"?>
<!DOCTYPE svg PUBLIC "-//W3C//DTD SVG 1.1//EN"
 "http://www.w3.org/Graphics/SVG/1.1/DTD/svg11.dtd">
<!-- Generated by graphviz version 2.43.0 (0)
 -->
<!-- Title: zwave_rx_shutdown Pages: 1 -->
<svg width="707pt" height="78pt"
 viewBox="0.00 0.00 707.00 77.50" xmlns="http://www.w3.org/2000/svg" xmlns:xlink="http://www.w3.org/1999/xlink">
<g id="graph0" class="graph" transform="scale(1 1) rotate(0) translate(4 73.5)">
<title>zwave_rx_shutdown</title>
<!-- Node1 -->
<g id="node1" class="node">
<title>Node1</title>
<g id="a_node1"><a xlink:title="Shutdown the module.">
<polygon fill="#bfbfbf" stroke="black" points="0,-28 0,-47 106,-47 106,-28 0,-28"/>
<text text-anchor="middle" x="53" y="-35" font-family="Helvetica,sans-Serif" font-size="10.00">zwave_rx_shutdown</text>
</a>
</g>
</g>
<!-- Node2 -->
<g id="node2" class="node">
<title>Node2</title>
<g id="a_node2"><a xlink:href="group__ZWAPI__INIT.html#ga87ccde341e5cf630064d51222bf56fb9" target="_top" xlink:title="Shut down the Z&#45;Wave API and close the communication ports.">
<polygon fill="none" stroke="black" points="142,-28 142,-47 222,-47 222,-28 142,-28"/>
<text text-anchor="middle" x="182" y="-35" font-family="Helvetica,sans-Serif" font-size="10.00">zwapi_destroy</text>
</a>
</g>
</g>
<!-- Node1&#45;&gt;Node2 -->
<g id="edge1" class="edge">
<title>Node1&#45;&gt;Node2</title>
<path fill="none" stroke="midnightblue" d="M106.02,-37.5C114.5,-37.5 123.25,-37.5 131.66,-37.5"/>
<polygon fill="midnightblue" stroke="midnightblue" points="131.7,-41 141.7,-37.5 131.7,-34 131.7,-41"/>
</g>
<!-- Node3 -->
<g id="node3" class="node">
<title>Node3</title>
<g id="a_node3"><a xlink:href="zwapi__session_8c.html#a6f5555814b03c924b3d057d1b4080cf1" target="_top" xlink:title="Close the zwapi_session with the Z&#45;Wave module.">
<polygon fill="none" stroke="black" points="258,-28 258,-47 386,-47 386,-28 258,-28"/>
<text text-anchor="middle" x="322" y="-35" font-family="Helvetica,sans-Serif" font-size="10.00">zwapi_session_shutdown</text>
</a>
</g>
</g>
<!-- Node2&#45;&gt;Node3 -->
<g id="edge2" class="edge">
<title>Node2&#45;&gt;Node3</title>
<path fill="none" stroke="midnightblue" d="M222.18,-37.5C230.28,-37.5 239.07,-37.5 247.94,-37.5"/>
<polygon fill="midnightblue" stroke="midnightblue" points="247.97,-41 257.97,-37.5 247.97,-34 247.97,-41"/>
</g>
<!-- Node4 -->
<g id="node4" class="node">
<title>Node4</title>
<g id="a_node4"><a xlink:href="zwapi__connection_8c.html#ad89586e01dc2af5757f767f0bbe6e889" target="_top" xlink:title="Close the zwapi_connection to the Z&#45;Wave module.">
<polygon fill="none" stroke="black" points="422,-50 422,-69 564,-69 564,-50 422,-50"/>
<text text-anchor="middle" x="493" y="-57" font-family="Helvetica,sans-Serif" font-size="10.00">zwapi_connection_shutdown</text>
</a>
</g>
</g>
<!-- Node3&#45;&gt;Node4 -->
<g id="edge3" class="edge">
<title>Node3&#45;&gt;Node4</title>
<path fill="none" stroke="midnightblue" d="M386.41,-45.75C394.76,-46.84 403.4,-47.97 411.98,-49.08"/>
<polygon fill="midnightblue" stroke="midnightblue" points="411.63,-52.57 422,-50.39 412.53,-45.63 411.63,-52.57"/>
</g>
<!-- Node6 -->
<g id="node6" class="node">
<title>Node6</title>
<g id="a_node6"><a xlink:href="zwapi__session_8c.html#ae9af89b1122e8be3a8704581079dd824" target="_top" xlink:title="Flush the zwapi_session receive queue.">
<polygon fill="none" stroke="black" points="439.5,-0.5 439.5,-30.5 546.5,-30.5 546.5,-0.5 439.5,-0.5"/>
<text text-anchor="start" x="447.5" y="-18.5" font-family="Helvetica,sans-Serif" font-size="10.00">zwapi_session_flush</text>
<text text-anchor="middle" x="493" y="-7.5" font-family="Helvetica,sans-Serif" font-size="10.00">_queue</text>
</a>
</g>
</g>
<!-- Node3&#45;&gt;Node6 -->
<g id="edge5" class="edge">
<title>Node3&#45;&gt;Node6</title>
<path fill="none" stroke="midnightblue" d="M386.41,-29.25C400.43,-27.42 415.27,-25.49 429.27,-23.67"/>
<polygon fill="midnightblue" stroke="midnightblue" points="429.81,-27.12 439.28,-22.36 428.91,-20.18 429.81,-27.12"/>
</g>
<!-- Node5 -->
<g id="node5" class="node">
<title>Node5</title>
<g id="a_node5"><a xlink:href="zwapi__serial_8c.html#aae586785021ac9a605cd77651429f0c9" target="_top" xlink:title="De&#45;Initialize the serial port.">
<polygon fill="none" stroke="black" points="600,-50 600,-69 699,-69 699,-50 600,-50"/>
<text text-anchor="middle" x="649.5" y="-57" font-family="Helvetica,sans-Serif" font-size="10.00">zwapi_serial_close</text>
</a>
</g>
</g>
<!-- Node4&#45;&gt;Node5 -->
<g id="edge4" class="edge">
<title>Node4&#45;&gt;Node5</title>
<path fill="none" stroke="midnightblue" d="M564.02,-59.5C572.65,-59.5 581.39,-59.5 589.83,-59.5"/>
<polygon fill="midnightblue" stroke="midnightblue" points="589.93,-63 599.93,-59.5 589.93,-56 589.93,-63"/>
</g>
</g>
</svg>
