<?xml version="1.0" encoding="UTF-8" standalone="no"?>
<!DOCTYPE svg PUBLIC "-//W3C//DTD SVG 1.1//EN"
 "http://www.w3.org/Graphics/SVG/1.1/DTD/svg11.dtd">
<!-- Generated by graphviz version 2.43.0 (0)
 -->
<!-- Title: network_monitor_restore_mpan_table_data Pages: 1 -->
<svg width="813pt" height="226pt"
 viewBox="0.00 0.00 813.00 226.00" xmlns="http://www.w3.org/2000/svg" xmlns:xlink="http://www.w3.org/1999/xlink">
<g id="graph0" class="graph" transform="scale(1 1) rotate(0) translate(4 222)">
<title>network_monitor_restore_mpan_table_data</title>
<!-- Node1 -->
<g id="node1" class="node">
<title>Node1</title>
<g id="a_node1"><a xlink:title="Restores all the MPAN data owned by the ZPC to Z&#45;Wave S2 from the Attribute Store.">
<polygon fill="#bfbfbf" stroke="black" points="0,-66.5 0,-96.5 124,-96.5 124,-66.5 0,-66.5"/>
<text text-anchor="start" x="8" y="-84.5" font-family="Helvetica,sans-Serif" font-size="10.00">network_monitor_restore</text>
<text text-anchor="middle" x="62" y="-73.5" font-family="Helvetica,sans-Serif" font-size="10.00">_mpan_table_data</text>
</a>
</g>
</g>
<!-- Node2 -->
<g id="node2" class="node">
<title>Node2</title>
<g id="a_node2"><a xlink:href="group__zpc__attribute__store__network__helpers.html#ga7a3f40a9cbc90f2674b9e9e454fd6207" target="_top" xlink:title="Take a Z&#45;Wave NodeID and return its Attribute Store node representing the NodeID.">
<polygon fill="none" stroke="black" points="169.5,-138 169.5,-179 296.5,-179 296.5,-138 169.5,-138"/>
<text text-anchor="start" x="177.5" y="-167" font-family="Helvetica,sans-Serif" font-size="10.00">attribute_store_network</text>
<text text-anchor="start" x="177.5" y="-156" font-family="Helvetica,sans-Serif" font-size="10.00">_helper_get_zwave_node</text>
<text text-anchor="middle" x="233" y="-145" font-family="Helvetica,sans-Serif" font-size="10.00">_id_node</text>
</a>
</g>
</g>
<!-- Node1&#45;&gt;Node2 -->
<g id="edge1" class="edge">
<title>Node1&#45;&gt;Node2</title>
<path fill="none" stroke="midnightblue" d="M94.32,-96.71C113.25,-105.81 137.92,-117.52 160,-127.5 164.61,-129.58 169.4,-131.72 174.22,-133.84"/>
<polygon fill="midnightblue" stroke="midnightblue" points="172.92,-137.09 183.48,-137.9 175.73,-130.68 172.92,-137.09"/>
</g>
<!-- Node8 -->
<g id="node8" class="node">
<title>Node8</title>
<g id="a_node8"><a xlink:href="group__zwave__network__management.html#gae265f1e935804f3f0b971755ab0ee61e" target="_top" xlink:title="Get the cached NodeID.">
<polygon fill="none" stroke="black" points="160,-88.5 160,-118.5 306,-118.5 306,-88.5 160,-88.5"/>
<text text-anchor="start" x="168" y="-106.5" font-family="Helvetica,sans-Serif" font-size="10.00">zwave_network_management</text>
<text text-anchor="middle" x="233" y="-95.5" font-family="Helvetica,sans-Serif" font-size="10.00">_get_node_id</text>
</a>
</g>
</g>
<!-- Node1&#45;&gt;Node8 -->
<g id="edge7" class="edge">
<title>Node1&#45;&gt;Node8</title>
<path fill="none" stroke="midnightblue" d="M124.01,-89.44C132.37,-90.53 141.06,-91.66 149.72,-92.79"/>
<polygon fill="midnightblue" stroke="midnightblue" points="149.49,-96.29 159.85,-94.11 150.39,-89.35 149.49,-96.29"/>
</g>
<!-- Node9 -->
<g id="node9" class="node">
<title>Node9</title>
<g id="a_node9"><a xlink:href="group__zwave__s2__nonce__management.html#gacb2c0299b25fc143bf1b5f7f595bedaa" target="_top" xlink:title="Copies an MPAN entry object into an entry of the S2 MPAN table.">
<polygon fill="none" stroke="black" points="166.5,-50 166.5,-69 299.5,-69 299.5,-50 166.5,-50"/>
<text text-anchor="middle" x="233" y="-57" font-family="Helvetica,sans-Serif" font-size="10.00">zwave_s2_set_mpan_data</text>
</a>
</g>
</g>
<!-- Node1&#45;&gt;Node9 -->
<g id="edge8" class="edge">
<title>Node1&#45;&gt;Node9</title>
<path fill="none" stroke="midnightblue" d="M124.01,-73.56C134.4,-72.21 145.31,-70.79 156.02,-69.39"/>
<polygon fill="midnightblue" stroke="midnightblue" points="156.76,-72.82 166.22,-68.06 155.85,-65.88 156.76,-72.82"/>
</g>
<!-- Node11 -->
<g id="node11" class="node">
<title>Node11</title>
<g id="a_node11"><a xlink:href="group__zwave__tx__groups.html#ga8b6bf3bec23ef001de22f3075018a90d" target="_top" xlink:title="Adds a NodeID to a Group ID.">
<polygon fill="none" stroke="black" points="173.5,-0.5 173.5,-30.5 292.5,-30.5 292.5,-0.5 173.5,-0.5"/>
<text text-anchor="start" x="181.5" y="-18.5" font-family="Helvetica,sans-Serif" font-size="10.00">zwave_tx_add_node_to</text>
<text text-anchor="middle" x="233" y="-7.5" font-family="Helvetica,sans-Serif" font-size="10.00">_group</text>
</a>
</g>
</g>
<!-- Node1&#45;&gt;Node11 -->
<g id="edge10" class="edge">
<title>Node1&#45;&gt;Node11</title>
<path fill="none" stroke="midnightblue" d="M97.34,-66.33C115.8,-58.35 139.01,-48.57 160,-40.5 165.75,-38.29 171.8,-36.05 177.84,-33.88"/>
<polygon fill="midnightblue" stroke="midnightblue" points="179.03,-37.17 187.28,-30.52 176.69,-30.57 179.03,-37.17"/>
</g>
<!-- Node3 -->
<g id="node3" class="node">
<title>Node3</title>
<g id="a_node3"><a xlink:href="group__zpc__attribute__store__network__helpers.html#gafb993ff484b3c826743c4695d6659cf0" target="_top" xlink:title="Take a UNID and return its attribute store node representing the NodeID.">
<polygon fill="none" stroke="black" points="342,-165.5 342,-195.5 474,-195.5 474,-165.5 342,-165.5"/>
<text text-anchor="start" x="350" y="-183.5" font-family="Helvetica,sans-Serif" font-size="10.00">attribute_store_network</text>
<text text-anchor="middle" x="408" y="-172.5" font-family="Helvetica,sans-Serif" font-size="10.00">_helper_get_node_id_node</text>
</a>
</g>
</g>
<!-- Node2&#45;&gt;Node3 -->
<g id="edge2" class="edge">
<title>Node2&#45;&gt;Node3</title>
<path fill="none" stroke="midnightblue" d="M296.95,-166.5C308.23,-167.94 320.09,-169.45 331.68,-170.92"/>
<polygon fill="midnightblue" stroke="midnightblue" points="331.41,-174.42 341.77,-172.21 332.3,-167.47 331.41,-174.42"/>
</g>
<!-- Node7 -->
<g id="node7" class="node">
<title>Node7</title>
<g id="a_node7"><a xlink:href="group__zwave__unid.html#ga421deceb8a12916f049e4f3446774439" target="_top" xlink:title="Form a UNID.">
<polygon fill="none" stroke="black" points="342,-127 342,-146 474,-146 474,-127 342,-127"/>
<text text-anchor="middle" x="408" y="-134" font-family="Helvetica,sans-Serif" font-size="10.00">zwave_unid_from_node_id</text>
</a>
</g>
</g>
<!-- Node2&#45;&gt;Node7 -->
<g id="edge6" class="edge">
<title>Node2&#45;&gt;Node7</title>
<path fill="none" stroke="midnightblue" d="M296.95,-150.5C308.23,-149.06 320.09,-147.55 331.68,-146.08"/>
<polygon fill="midnightblue" stroke="midnightblue" points="332.3,-149.53 341.77,-144.79 331.41,-142.58 332.3,-149.53"/>
</g>
<!-- Node4 -->
<g id="node4" class="node">
<title>Node4</title>
<g id="a_node4"><a xlink:href="group__zpc__attribute__store__network__helpers.html#ga05cb572c96f7dc8e6657f86e135fafed" target="_top" xlink:title="Take a UNID and return its attribute store node representing the HomeID.">
<polygon fill="none" stroke="black" points="510,-187.5 510,-217.5 645,-217.5 645,-187.5 510,-187.5"/>
<text text-anchor="start" x="518" y="-205.5" font-family="Helvetica,sans-Serif" font-size="10.00">attribute_store_network</text>
<text text-anchor="middle" x="577.5" y="-194.5" font-family="Helvetica,sans-Serif" font-size="10.00">_helper_get_home_id_node</text>
</a>
</g>
</g>
<!-- Node3&#45;&gt;Node4 -->
<g id="edge3" class="edge">
<title>Node3&#45;&gt;Node4</title>
<path fill="none" stroke="midnightblue" d="M474.24,-189.07C482.62,-190.17 491.27,-191.31 499.82,-192.43"/>
<polygon fill="midnightblue" stroke="midnightblue" points="499.41,-195.9 509.78,-193.74 500.32,-188.96 499.41,-195.9"/>
</g>
<!-- Node6 -->
<g id="node6" class="node">
<title>Node6</title>
<g id="a_node6"><a xlink:href="group__zwave__unid.html#ga76885767debd174e96e6df00b0a368c3" target="_top" xlink:title="Convert a UNID to a node ID.">
<polygon fill="none" stroke="black" points="517,-149 517,-168 638,-168 638,-149 517,-149"/>
<text text-anchor="middle" x="577.5" y="-156" font-family="Helvetica,sans-Serif" font-size="10.00">zwave_unid_to_node_id</text>
</a>
</g>
</g>
<!-- Node3&#45;&gt;Node6 -->
<g id="edge5" class="edge">
<title>Node3&#45;&gt;Node6</title>
<path fill="none" stroke="midnightblue" d="M474.24,-171.93C484.89,-170.53 495.96,-169.08 506.72,-167.67"/>
<polygon fill="midnightblue" stroke="midnightblue" points="507.45,-171.1 516.91,-166.33 506.54,-164.16 507.45,-171.1"/>
</g>
<!-- Node5 -->
<g id="node5" class="node">
<title>Node5</title>
<g id="a_node5"><a xlink:href="group__zwave__unid.html#ga92f9808a08c2ce1c0a6a9dc2debf3580" target="_top" xlink:title="Convert a UNID to a Home ID.">
<polygon fill="none" stroke="black" points="681,-193 681,-212 805,-212 805,-193 681,-193"/>
<text text-anchor="middle" x="743" y="-200" font-family="Helvetica,sans-Serif" font-size="10.00">zwave_unid_to_home_id</text>
</a>
</g>
</g>
<!-- Node4&#45;&gt;Node5 -->
<g id="edge4" class="edge">
<title>Node4&#45;&gt;Node5</title>
<path fill="none" stroke="midnightblue" d="M645,-202.5C653.42,-202.5 662.07,-202.5 670.57,-202.5"/>
<polygon fill="midnightblue" stroke="midnightblue" points="670.83,-206 680.83,-202.5 670.83,-199 670.83,-206"/>
</g>
<!-- Node10 -->
<g id="node10" class="node">
<title>Node10</title>
<g id="a_node10"><a xlink:href="zwave__s2__nonce__management_8c.html#a7149d467a9fc1021a35bb6e4053cff0b" target="_top" xlink:title="Copies a MPAN entry object into an entry of the S2 MPAN table.">
<polygon fill="none" stroke="black" points="355,-44.5 355,-74.5 461,-74.5 461,-44.5 355,-44.5"/>
<text text-anchor="start" x="363" y="-62.5" font-family="Helvetica,sans-Serif" font-size="10.00">zwave_s2_configure</text>
<text text-anchor="middle" x="408" y="-51.5" font-family="Helvetica,sans-Serif" font-size="10.00">_mpan_table_entry</text>
</a>
</g>
</g>
<!-- Node9&#45;&gt;Node10 -->
<g id="edge9" class="edge">
<title>Node9&#45;&gt;Node10</title>
<path fill="none" stroke="midnightblue" d="M299.9,-59.5C314.57,-59.5 330.09,-59.5 344.62,-59.5"/>
<polygon fill="midnightblue" stroke="midnightblue" points="345,-63 355,-59.5 345,-56 345,-63"/>
</g>
</g>
</svg>
