<?xml version="1.0" encoding="UTF-8" standalone="no"?>
<!DOCTYPE svg PUBLIC "-//W3C//DTD SVG 1.1//EN"
 "http://www.w3.org/Graphics/SVG/1.1/DTD/svg11.dtd">
<!-- Generated by graphviz version 2.43.0 (0)
 -->
<!-- Title: Multi Channel Command Class Pages: 1 -->
<svg width="463pt" height="38pt"
 viewBox="0.00 0.00 463.00 38.00" xmlns="http://www.w3.org/2000/svg" xmlns:xlink="http://www.w3.org/1999/xlink">
<g id="graph0" class="graph" transform="scale(1 1) rotate(0) translate(4 34)">
<title>Multi Channel Command Class</title>
<!-- Node2 -->
<g id="node1" class="node">
<title>Node2</title>
<g id="a_node1"><a xlink:href="group__command__classes.html" target="_top" xlink:title="List of supported and controlled Z&#45;Wave Command Classes.">
<polygon fill="none" stroke="black" points="137,-24.5 0,-24.5 0,-5.5 137,-5.5 137,-24.5"/>
<text text-anchor="middle" x="68.5" y="-12.5" font-family="Helvetica,sans-Serif" font-size="10.00">Z&#45;Wave Command Classes</text>
</a>
</g>
</g>
<!-- Node1 -->
<g id="node2" class="node">
<title>Node1</title>
<g id="a_node2"><a xlink:title="Multi Channel Command Class implementation.">
<polygon fill="#bfbfbf" stroke="black" points="298,-30 173,-30 173,0 298,0 298,-30"/>
<text text-anchor="start" x="181" y="-18" font-family="Helvetica,sans-Serif" font-size="10.00">Multi Channel Command</text>
<text text-anchor="middle" x="235.5" y="-7" font-family="Helvetica,sans-Serif" font-size="10.00"> Class</text>
</a>
</g>
</g>
<!-- Node2&#45;&gt;Node1 -->
<g id="edge1" class="edge">
<title>Node2&#45;&gt;Node1</title>
<path fill="none" stroke="black" d="M147.15,-15C155.77,-15 164.47,-15 172.85,-15"/>
<polygon fill="black" stroke="black" points="147.09,-11.5 137.09,-15 147.09,-18.5 147.09,-11.5"/>
</g>
<!-- Node3 -->
<g id="node3" class="node">
<title>Node3</title>
<g id="a_node3"><a xlink:href="group__multi__channel__transport.html" target="_top" xlink:title="Multi Channel encapsulation and decapsulation module.">
<polygon fill="none" stroke="black" points="455,-24.5 334,-24.5 334,-5.5 455,-5.5 455,-24.5"/>
<text text-anchor="middle" x="394.5" y="-12.5" font-family="Helvetica,sans-Serif" font-size="10.00">Multi Channel Transport</text>
</a>
</g>
</g>
<!-- Node1&#45;&gt;Node3 -->
<g id="edge2" class="edge">
<title>Node1&#45;&gt;Node3</title>
<path fill="none" stroke="black" d="M308.13,-15C316.74,-15 325.46,-15 333.88,-15"/>
<polygon fill="black" stroke="black" points="308.1,-11.5 298.1,-15 308.1,-18.5 308.1,-11.5"/>
</g>
</g>
</svg>
