<?xml version="1.0" encoding="UTF-8" standalone="no"?>
<!DOCTYPE svg PUBLIC "-//W3C//DTD SVG 1.1//EN"
 "http://www.w3.org/Graphics/SVG/1.1/DTD/svg11.dtd">
<!-- Generated by graphviz version 2.43.0 (0)
 -->
<!-- Title: zwave_command_class_humidity_control_operating_state_init Pages: 1 -->
<svg width="1355pt" height="258pt"
 viewBox="0.00 0.00 1355.00 258.00" xmlns="http://www.w3.org/2000/svg" xmlns:xlink="http://www.w3.org/1999/xlink">
<g id="graph0" class="graph" transform="scale(1 1) rotate(0) translate(4 254)">
<title>zwave_command_class_humidity_control_operating_state_init</title>
<!-- Node1 -->
<g id="node1" class="node">
<title>Node1</title>
<g id="a_node1"><a xlink:title=" ">
<polygon fill="#bfbfbf" stroke="black" points="0,-80 0,-121 138,-121 138,-80 0,-80"/>
<text text-anchor="start" x="8" y="-109" font-family="Helvetica,sans-Serif" font-size="10.00">zwave_command_class</text>
<text text-anchor="start" x="8" y="-98" font-family="Helvetica,sans-Serif" font-size="10.00">_humidity_control_operating</text>
<text text-anchor="middle" x="69" y="-87" font-family="Helvetica,sans-Serif" font-size="10.00">_state_init</text>
</a>
</g>
</g>
<!-- Node2 -->
<g id="node2" class="node">
<title>Node2</title>
<g id="a_node2"><a xlink:href="zwave__command__class__humidity__control__operating__state_8c.html#a15dc164fcd0e0b20fe2a96b83dfa1bff" target="_top" xlink:title=" ">
<polygon fill="none" stroke="black" points="190.5,-170 190.5,-211 328.5,-211 328.5,-170 190.5,-170"/>
<text text-anchor="start" x="198.5" y="-199" font-family="Helvetica,sans-Serif" font-size="10.00">zwave_command_class</text>
<text text-anchor="start" x="198.5" y="-188" font-family="Helvetica,sans-Serif" font-size="10.00">_humidity_control_operating</text>
<text text-anchor="middle" x="259.5" y="-177" font-family="Helvetica,sans-Serif" font-size="10.00">_state_control_handler</text>
</a>
</g>
</g>
<!-- Node1&#45;&gt;Node2 -->
<g id="edge1" class="edge">
<title>Node1&#45;&gt;Node2</title>
<path fill="none" stroke="midnightblue" d="M102.44,-121.26C122.55,-133.62 149.2,-149.06 174,-160.5 178.28,-162.47 182.73,-164.4 187.25,-166.27"/>
<polygon fill="midnightblue" stroke="midnightblue" points="186.01,-169.54 196.59,-170 188.6,-163.04 186.01,-169.54"/>
</g>
<!-- Node11 -->
<g id="node11" class="node">
<title>Node11</title>
<g id="a_node11"><a xlink:href="zwave__command__class__humidity__control__operating__state_8c.html#aaa76ebca8f7329ca1f55ab62de8f14b8" target="_top" xlink:title=" ">
<polygon fill="none" stroke="black" points="190.5,-110 190.5,-151 328.5,-151 328.5,-110 190.5,-110"/>
<text text-anchor="start" x="198.5" y="-139" font-family="Helvetica,sans-Serif" font-size="10.00">zwave_command_class</text>
<text text-anchor="start" x="198.5" y="-128" font-family="Helvetica,sans-Serif" font-size="10.00">_humidity_control_operating</text>
<text text-anchor="middle" x="259.5" y="-117" font-family="Helvetica,sans-Serif" font-size="10.00">_state_get</text>
</a>
</g>
</g>
<!-- Node1&#45;&gt;Node11 -->
<g id="edge10" class="edge">
<title>Node1&#45;&gt;Node11</title>
<path fill="none" stroke="midnightblue" d="M138.05,-111.33C151.72,-113.51 166.18,-115.81 180.15,-118.03"/>
<polygon fill="midnightblue" stroke="midnightblue" points="179.8,-121.52 190.23,-119.63 180.91,-114.61 179.8,-121.52"/>
</g>
<!-- Node12 -->
<g id="node12" class="node">
<title>Node12</title>
<g id="a_node12"><a xlink:href="zwave__command__class__humidity__control__operating__state_8c.html#a3cd2a22d1ee0ea34d87a0699dd198b07" target="_top" xlink:title=" ">
<polygon fill="none" stroke="black" points="174,-50 174,-91 345,-91 345,-50 174,-50"/>
<text text-anchor="start" x="182" y="-79" font-family="Helvetica,sans-Serif" font-size="10.00">zwave_command_class</text>
<text text-anchor="start" x="182" y="-68" font-family="Helvetica,sans-Serif" font-size="10.00">_humidity_control_operating</text>
<text text-anchor="middle" x="259.5" y="-57" font-family="Helvetica,sans-Serif" font-size="10.00">_state_on_version_attribute_update</text>
</a>
</g>
</g>
<!-- Node1&#45;&gt;Node12 -->
<g id="edge11" class="edge">
<title>Node1&#45;&gt;Node12</title>
<path fill="none" stroke="midnightblue" d="M138.05,-89.67C146.39,-88.34 155.03,-86.97 163.67,-85.59"/>
<polygon fill="midnightblue" stroke="midnightblue" points="164.47,-89.01 173.8,-83.98 163.37,-82.1 164.47,-89.01"/>
</g>
<!-- Node13 -->
<g id="node13" class="node">
<title>Node13</title>
<g id="a_node13"><a xlink:href="group__zwave__command__handler.html#gae1313215c0459775bb126a2ba636eb2f" target="_top" xlink:title="Register a command class handler.">
<polygon fill="none" stroke="black" points="194.5,-0.5 194.5,-30.5 324.5,-30.5 324.5,-0.5 194.5,-0.5"/>
<text text-anchor="start" x="202.5" y="-18.5" font-family="Helvetica,sans-Serif" font-size="10.00">zwave_command_handler</text>
<text text-anchor="middle" x="259.5" y="-7.5" font-family="Helvetica,sans-Serif" font-size="10.00">_register_handler</text>
</a>
</g>
</g>
<!-- Node1&#45;&gt;Node13 -->
<g id="edge12" class="edge">
<title>Node1&#45;&gt;Node13</title>
<path fill="none" stroke="midnightblue" d="M101.31,-79.83C121.45,-67.2 148.52,-51.44 174,-40.5 179.49,-38.14 185.28,-35.92 191.14,-33.85"/>
<polygon fill="midnightblue" stroke="midnightblue" points="192.68,-37.03 201.03,-30.51 190.44,-30.39 192.68,-37.03"/>
</g>
<!-- Node3 -->
<g id="node3" class="node">
<title>Node3</title>
<g id="a_node3"><a xlink:href="zwave__command__class__humidity__control__operating__state_8c.html#a3666e080154e871859feb5db59f99a0c" target="_top" xlink:title=" ">
<polygon fill="none" stroke="black" points="381,-170 381,-211 519,-211 519,-170 381,-170"/>
<text text-anchor="start" x="389" y="-199" font-family="Helvetica,sans-Serif" font-size="10.00">zwave_command_class</text>
<text text-anchor="start" x="389" y="-188" font-family="Helvetica,sans-Serif" font-size="10.00">_humidity_control_operating</text>
<text text-anchor="middle" x="450" y="-177" font-family="Helvetica,sans-Serif" font-size="10.00">_state_handle_report</text>
</a>
</g>
</g>
<!-- Node2&#45;&gt;Node3 -->
<g id="edge2" class="edge">
<title>Node2&#45;&gt;Node3</title>
<path fill="none" stroke="midnightblue" d="M328.55,-190.5C342.22,-190.5 356.68,-190.5 370.65,-190.5"/>
<polygon fill="midnightblue" stroke="midnightblue" points="370.73,-194 380.73,-190.5 370.73,-187 370.73,-194"/>
</g>
<!-- Node4 -->
<g id="node4" class="node">
<title>Node4</title>
<g id="a_node4"><a xlink:href="group__command__classes__utils.html#gaff12f5d1f5b9eed08201efab5854190c" target="_top" xlink:title="Find the Z&#45;Wave Endpoint ID Node attribute based on a const zwave_controller_connection_info_t object...">
<polygon fill="none" stroke="black" points="555,-175.5 555,-205.5 677,-205.5 677,-175.5 555,-175.5"/>
<text text-anchor="start" x="563" y="-193.5" font-family="Helvetica,sans-Serif" font-size="10.00">zwave_command_class</text>
<text text-anchor="middle" x="616" y="-182.5" font-family="Helvetica,sans-Serif" font-size="10.00">_get_endpoint_node</text>
</a>
</g>
</g>
<!-- Node3&#45;&gt;Node4 -->
<g id="edge3" class="edge">
<title>Node3&#45;&gt;Node4</title>
<path fill="none" stroke="midnightblue" d="M519.13,-190.5C527.57,-190.5 536.22,-190.5 544.7,-190.5"/>
<polygon fill="midnightblue" stroke="midnightblue" points="544.93,-194 554.93,-190.5 544.93,-187 544.93,-194"/>
</g>
<!-- Node5 -->
<g id="node5" class="node">
<title>Node5</title>
<g id="a_node5"><a xlink:href="group__zpc__attribute__store__network__helpers.html#gae4d15b8e0c61c88d94c8f342bd2014fc" target="_top" xlink:title="Take a UNID/endpoint combination and returns its attribute store node.">
<polygon fill="none" stroke="black" points="713,-197.5 713,-227.5 848,-227.5 848,-197.5 713,-197.5"/>
<text text-anchor="start" x="721" y="-215.5" font-family="Helvetica,sans-Serif" font-size="10.00">attribute_store_network</text>
<text text-anchor="middle" x="780.5" y="-204.5" font-family="Helvetica,sans-Serif" font-size="10.00">_helper_get_endpoint_node</text>
</a>
</g>
</g>
<!-- Node4&#45;&gt;Node5 -->
<g id="edge4" class="edge">
<title>Node4&#45;&gt;Node5</title>
<path fill="none" stroke="midnightblue" d="M677.05,-198.63C685.43,-199.76 694.14,-200.94 702.77,-202.11"/>
<polygon fill="midnightblue" stroke="midnightblue" points="702.48,-205.6 712.86,-203.48 703.42,-198.67 702.48,-205.6"/>
</g>
<!-- Node10 -->
<g id="node10" class="node">
<title>Node10</title>
<g id="a_node10"><a xlink:href="group__zwave__unid.html#ga421deceb8a12916f049e4f3446774439" target="_top" xlink:title="Form a UNID.">
<polygon fill="none" stroke="black" points="714.5,-159 714.5,-178 846.5,-178 846.5,-159 714.5,-159"/>
<text text-anchor="middle" x="780.5" y="-166" font-family="Helvetica,sans-Serif" font-size="10.00">zwave_unid_from_node_id</text>
</a>
</g>
</g>
<!-- Node4&#45;&gt;Node10 -->
<g id="edge9" class="edge">
<title>Node4&#45;&gt;Node10</title>
<path fill="none" stroke="midnightblue" d="M677.05,-182.37C685.85,-181.18 695.01,-179.94 704.07,-178.71"/>
<polygon fill="midnightblue" stroke="midnightblue" points="704.8,-182.15 714.24,-177.34 703.86,-175.21 704.8,-182.15"/>
</g>
<!-- Node6 -->
<g id="node6" class="node">
<title>Node6</title>
<g id="a_node6"><a xlink:href="group__zpc__attribute__store__network__helpers.html#gafb993ff484b3c826743c4695d6659cf0" target="_top" xlink:title="Take a UNID and return its attribute store node representing the NodeID.">
<polygon fill="none" stroke="black" points="884,-197.5 884,-227.5 1016,-227.5 1016,-197.5 884,-197.5"/>
<text text-anchor="start" x="892" y="-215.5" font-family="Helvetica,sans-Serif" font-size="10.00">attribute_store_network</text>
<text text-anchor="middle" x="950" y="-204.5" font-family="Helvetica,sans-Serif" font-size="10.00">_helper_get_node_id_node</text>
</a>
</g>
</g>
<!-- Node5&#45;&gt;Node6 -->
<g id="edge5" class="edge">
<title>Node5&#45;&gt;Node6</title>
<path fill="none" stroke="midnightblue" d="M848.18,-212.5C856.55,-212.5 865.15,-212.5 873.64,-212.5"/>
<polygon fill="midnightblue" stroke="midnightblue" points="873.91,-216 883.91,-212.5 873.91,-209 873.91,-216"/>
</g>
<!-- Node7 -->
<g id="node7" class="node">
<title>Node7</title>
<g id="a_node7"><a xlink:href="group__zpc__attribute__store__network__helpers.html#ga05cb572c96f7dc8e6657f86e135fafed" target="_top" xlink:title="Take a UNID and return its attribute store node representing the HomeID.">
<polygon fill="none" stroke="black" points="1052,-219.5 1052,-249.5 1187,-249.5 1187,-219.5 1052,-219.5"/>
<text text-anchor="start" x="1060" y="-237.5" font-family="Helvetica,sans-Serif" font-size="10.00">attribute_store_network</text>
<text text-anchor="middle" x="1119.5" y="-226.5" font-family="Helvetica,sans-Serif" font-size="10.00">_helper_get_home_id_node</text>
</a>
</g>
</g>
<!-- Node6&#45;&gt;Node7 -->
<g id="edge6" class="edge">
<title>Node6&#45;&gt;Node7</title>
<path fill="none" stroke="midnightblue" d="M1016.24,-221.07C1024.62,-222.17 1033.27,-223.31 1041.82,-224.43"/>
<polygon fill="midnightblue" stroke="midnightblue" points="1041.41,-227.9 1051.78,-225.74 1042.32,-220.96 1041.41,-227.9"/>
</g>
<!-- Node9 -->
<g id="node9" class="node">
<title>Node9</title>
<g id="a_node9"><a xlink:href="group__zwave__unid.html#ga76885767debd174e96e6df00b0a368c3" target="_top" xlink:title="Convert a UNID to a node ID.">
<polygon fill="none" stroke="black" points="1059,-181 1059,-200 1180,-200 1180,-181 1059,-181"/>
<text text-anchor="middle" x="1119.5" y="-188" font-family="Helvetica,sans-Serif" font-size="10.00">zwave_unid_to_node_id</text>
</a>
</g>
</g>
<!-- Node6&#45;&gt;Node9 -->
<g id="edge8" class="edge">
<title>Node6&#45;&gt;Node9</title>
<path fill="none" stroke="midnightblue" d="M1016.24,-203.93C1026.89,-202.53 1037.96,-201.08 1048.72,-199.67"/>
<polygon fill="midnightblue" stroke="midnightblue" points="1049.45,-203.1 1058.91,-198.33 1048.54,-196.16 1049.45,-203.1"/>
</g>
<!-- Node8 -->
<g id="node8" class="node">
<title>Node8</title>
<g id="a_node8"><a xlink:href="group__zwave__unid.html#ga92f9808a08c2ce1c0a6a9dc2debf3580" target="_top" xlink:title="Convert a UNID to a Home ID.">
<polygon fill="none" stroke="black" points="1223,-225 1223,-244 1347,-244 1347,-225 1223,-225"/>
<text text-anchor="middle" x="1285" y="-232" font-family="Helvetica,sans-Serif" font-size="10.00">zwave_unid_to_home_id</text>
</a>
</g>
</g>
<!-- Node7&#45;&gt;Node8 -->
<g id="edge7" class="edge">
<title>Node7&#45;&gt;Node8</title>
<path fill="none" stroke="midnightblue" d="M1187,-234.5C1195.42,-234.5 1204.07,-234.5 1212.57,-234.5"/>
<polygon fill="midnightblue" stroke="midnightblue" points="1212.83,-238 1222.83,-234.5 1212.83,-231 1212.83,-238"/>
</g>
</g>
</svg>
