<?xml version="1.0" encoding="UTF-8" standalone="no"?>
<!DOCTYPE svg PUBLIC "-//W3C//DTD SVG 1.1//EN"
 "http://www.w3.org/Graphics/SVG/1.1/DTD/svg11.dtd">
<!-- Generated by graphviz version 2.43.0 (0)
 -->
<!-- Title: zwapi_request_neighbor_update Pages: 1 -->
<svg width="1290pt" height="541pt"
 viewBox="0.00 0.00 1290.00 541.00" xmlns="http://www.w3.org/2000/svg" xmlns:xlink="http://www.w3.org/1999/xlink">
<g id="graph0" class="graph" transform="scale(1 1) rotate(0) translate(4 537)">
<title>zwapi_request_neighbor_update</title>
<!-- Node1 -->
<g id="node1" class="node">
<title>Node1</title>
<g id="a_node1"><a xlink:title="Start neighbor discovery for bNodeID.">
<polygon fill="#bfbfbf" stroke="black" points="0,-222 0,-252 122,-252 122,-222 0,-222"/>
<text text-anchor="start" x="8" y="-240" font-family="Helvetica,sans-Serif" font-size="10.00">zwapi_request_neighbor</text>
<text text-anchor="middle" x="61" y="-229" font-family="Helvetica,sans-Serif" font-size="10.00">_update</text>
</a>
</g>
</g>
<!-- Node2 -->
<g id="node2" class="node">
<title>Node2</title>
<g id="a_node2"><a xlink:href="zwapi__init_8c.html#a67064ee382c07d0af51a9d9339b3fcde" target="_top" xlink:title="Verifies that the command is supported by the Z&#45;Wave module.">
<polygon fill="none" stroke="black" points="158,-249.5 158,-268.5 274,-268.5 274,-249.5 158,-249.5"/>
<text text-anchor="middle" x="216" y="-256.5" font-family="Helvetica,sans-Serif" font-size="10.00">zwapi_send_command</text>
</a>
</g>
</g>
<!-- Node1&#45;&gt;Node2 -->
<g id="edge1" class="edge">
<title>Node1&#45;&gt;Node2</title>
<path fill="none" stroke="midnightblue" d="M122.03,-245.63C130.45,-246.84 139.16,-248.09 147.71,-249.32"/>
<polygon fill="midnightblue" stroke="midnightblue" points="147.25,-252.79 157.64,-250.75 148.24,-245.87 147.25,-252.79"/>
</g>
<!-- Node29 -->
<g id="node29" class="node">
<title>Node29</title>
<g id="a_node29"><a xlink:href="zwapi__utils_8c.html#aeea16d7db2f976466a2c0f4aa9b0416f" target="_top" xlink:title="Write the node ID in buffer based on node ID basetype. Note that this helper also advances the index.">
<polygon fill="none" stroke="black" points="162.5,-208.5 162.5,-227.5 269.5,-227.5 269.5,-208.5 162.5,-208.5"/>
<text text-anchor="middle" x="216" y="-215.5" font-family="Helvetica,sans-Serif" font-size="10.00">zwapi_write_node_id</text>
</a>
</g>
</g>
<!-- Node1&#45;&gt;Node29 -->
<g id="edge43" class="edge">
<title>Node1&#45;&gt;Node29</title>
<path fill="none" stroke="midnightblue" d="M122.03,-229.55C131.85,-228.33 142.04,-227.06 151.93,-225.83"/>
<polygon fill="midnightblue" stroke="midnightblue" points="152.6,-229.28 162.1,-224.57 151.74,-222.33 152.6,-229.28"/>
</g>
<!-- Node3 -->
<g id="node3" class="node">
<title>Node3</title>
<g id="a_node3"><a xlink:href="zwapi__session_8c.html#a32577f3500efc3d937dbc68eebb3c370" target="_top" xlink:title="Send data frame to Z&#45;Wave chip via serial port and wait for ACK.">
<polygon fill="none" stroke="black" points="332.5,-244 332.5,-274 439.5,-274 439.5,-244 332.5,-244"/>
<text text-anchor="start" x="340.5" y="-262" font-family="Helvetica,sans-Serif" font-size="10.00">zwapi_session_send</text>
<text text-anchor="middle" x="386" y="-251" font-family="Helvetica,sans-Serif" font-size="10.00">_frame</text>
</a>
</g>
</g>
<!-- Node2&#45;&gt;Node3 -->
<g id="edge2" class="edge">
<title>Node2&#45;&gt;Node3</title>
<path fill="none" stroke="midnightblue" d="M274.35,-259C289.79,-259 306.56,-259 322.28,-259"/>
<polygon fill="midnightblue" stroke="midnightblue" points="322.43,-262.5 332.43,-259 322.43,-255.5 322.43,-262.5"/>
</g>
<!-- Node28 -->
<g id="node28" class="node">
<title>Node28</title>
<g id="a_node28"><a xlink:href="group__ZWAPI__INIT.html#ga0a823074baec69913d0e8590b46e4e33" target="_top" xlink:title="Check if a command is supported by the connected Z&#45;Wave module.">
<polygon fill="none" stroke="black" points="310,-293.5 310,-312.5 462,-312.5 462,-293.5 310,-293.5"/>
<text text-anchor="middle" x="386" y="-300.5" font-family="Helvetica,sans-Serif" font-size="10.00">zwapi_support_command_func</text>
</a>
</g>
</g>
<!-- Node2&#45;&gt;Node28 -->
<g id="edge42" class="edge">
<title>Node2&#45;&gt;Node28</title>
<path fill="none" stroke="midnightblue" d="M253.45,-268.55C278.44,-275.09 311.8,-283.83 338.67,-290.87"/>
<polygon fill="midnightblue" stroke="midnightblue" points="338.06,-294.32 348.62,-293.47 339.83,-287.55 338.06,-294.32"/>
</g>
<!-- Node4 -->
<g id="node4" class="node">
<title>Node4</title>
<g id="a_node4"><a xlink:href="zwapi__connection_8c.html#a13b6e6b6c56844f4344fabe490bc5eac" target="_top" xlink:title="Closes and re&#45;initializes the zwapi_connection to the Z&#45;Wave module.">
<polygon fill="none" stroke="black" points="658,-363.5 658,-382.5 786,-382.5 786,-363.5 658,-363.5"/>
<text text-anchor="middle" x="722" y="-370.5" font-family="Helvetica,sans-Serif" font-size="10.00">zwapi_connection_restart</text>
</a>
</g>
</g>
<!-- Node3&#45;&gt;Node4 -->
<g id="edge3" class="edge">
<title>Node3&#45;&gt;Node4</title>
<path fill="none" stroke="midnightblue" d="M439.66,-270.94C447.68,-274.29 455.46,-278.56 462,-284 487.4,-305.11 470.49,-330.73 498,-349 541.67,-377.99 601.08,-383.13 647.6,-381.48"/>
<polygon fill="midnightblue" stroke="midnightblue" points="647.79,-384.98 657.62,-381.02 647.47,-377.99 647.79,-384.98"/>
</g>
<!-- Node14 -->
<g id="node14" class="node">
<title>Node14</title>
<g id="a_node14"><a xlink:href="zwapi__timestamp_8c.html#a6ebe1ddfe689bce6ee72fc12f708aece" target="_top" xlink:title="get the timestamp">
<polygon fill="none" stroke="black" points="831,-349.5 831,-368.5 943,-368.5 943,-349.5 831,-349.5"/>
<text text-anchor="middle" x="887" y="-356.5" font-family="Helvetica,sans-Serif" font-size="10.00">zwapi_timestamp_get</text>
</a>
</g>
</g>
<!-- Node3&#45;&gt;Node14 -->
<g id="edge41" class="edge">
<title>Node3&#45;&gt;Node14</title>
<path fill="none" stroke="midnightblue" d="M439.77,-270.5C458.19,-274.49 479,-278.97 498,-283 568.61,-297.96 586.2,-302.01 657,-316 713.38,-327.14 777.71,-339.16 823.81,-347.65"/>
<polygon fill="midnightblue" stroke="midnightblue" points="823.18,-351.1 833.65,-349.46 824.45,-344.21 823.18,-351.1"/>
</g>
<!-- Node15 -->
<g id="node15" class="node">
<title>Node15</title>
<g id="a_node15"><a xlink:href="zwapi__connection_8c.html#af47f8cbd93974d5c91d659fdeb7a870b" target="_top" xlink:title="Transmit a frame via serial port by adding SOF, Len, Type, cmd and Checksum.">
<polygon fill="none" stroke="black" points="668,-401.5 668,-420.5 776,-420.5 776,-401.5 668,-401.5"/>
<text text-anchor="middle" x="722" y="-408.5" font-family="Helvetica,sans-Serif" font-size="10.00">zwapi_connection_tx</text>
</a>
</g>
</g>
<!-- Node3&#45;&gt;Node15 -->
<g id="edge14" class="edge">
<title>Node3&#45;&gt;Node15</title>
<path fill="none" stroke="midnightblue" d="M439.61,-269.81C447.82,-273.29 455.67,-277.9 462,-284 494.81,-315.62 462.43,-351.52 498,-380 542.58,-415.69 608.92,-420.74 657.65,-418.5"/>
<polygon fill="midnightblue" stroke="midnightblue" points="657.98,-421.98 667.77,-417.92 657.58,-415 657.98,-421.98"/>
</g>
<!-- Node17 -->
<g id="node17" class="node">
<title>Node17</title>
<g id="a_node17"><a xlink:href="zwapi__timestamp_8c.html#a3925f2732e344672608db38351236688" target="_top" xlink:title="compare the current timestamp with the timestamp passed as an argument">
<polygon fill="none" stroke="black" points="834,-137 834,-167 940,-167 940,-137 834,-137"/>
<text text-anchor="start" x="842" y="-155" font-family="Helvetica,sans-Serif" font-size="10.00">zwapi_is_timestamp</text>
<text text-anchor="middle" x="887" y="-144" font-family="Helvetica,sans-Serif" font-size="10.00">_elapsed</text>
</a>
</g>
</g>
<!-- Node3&#45;&gt;Node17 -->
<g id="edge19" class="edge">
<title>Node3&#45;&gt;Node17</title>
<path fill="none" stroke="midnightblue" d="M439.66,-246.39C494,-233.5 581.27,-213.13 657,-197 713.3,-185.01 777.64,-172.47 823.76,-163.68"/>
<polygon fill="midnightblue" stroke="midnightblue" points="824.44,-167.11 833.61,-161.81 823.13,-160.24 824.44,-167.11"/>
</g>
<!-- Node18 -->
<g id="node18" class="node">
<title>Node18</title>
<g id="a_node18"><a xlink:href="zwapi__session_8c.html#a1f2b3e7c2dcf31708ef8d333747352ba" target="_top" xlink:title=" ">
<polygon fill="none" stroke="black" points="660.5,-80 660.5,-110 783.5,-110 783.5,-80 660.5,-80"/>
<text text-anchor="start" x="668.5" y="-98" font-family="Helvetica,sans-Serif" font-size="10.00">zwapi_session_enqueue</text>
<text text-anchor="middle" x="722" y="-87" font-family="Helvetica,sans-Serif" font-size="10.00">_frame</text>
</a>
</g>
</g>
<!-- Node3&#45;&gt;Node18 -->
<g id="edge20" class="edge">
<title>Node3&#45;&gt;Node18</title>
<path fill="none" stroke="midnightblue" d="M439.58,-248.71C447.9,-245.17 455.79,-240.4 462,-234 500.77,-194.04 454.78,-149.11 498,-114 539.95,-79.92 602.16,-77.27 650.22,-81.95"/>
<polygon fill="midnightblue" stroke="midnightblue" points="649.92,-85.44 660.25,-83.05 650.69,-78.48 649.92,-85.44"/>
</g>
<!-- Node22 -->
<g id="node22" class="node">
<title>Node22</title>
<g id="a_node22"><a xlink:href="zwapi__session_8c.html#a2875fbfa250b7b25ecb6bc4f0b032cb8" target="_top" xlink:title="Loads the received frames from the serial device into the zwapi_session receive queue.">
<polygon fill="none" stroke="black" points="498,-124 498,-154 621,-154 621,-124 498,-124"/>
<text text-anchor="start" x="506" y="-142" font-family="Helvetica,sans-Serif" font-size="10.00">zwapi_session_enqueue</text>
<text text-anchor="middle" x="559.5" y="-131" font-family="Helvetica,sans-Serif" font-size="10.00">_rx_frames</text>
</a>
</g>
</g>
<!-- Node3&#45;&gt;Node22 -->
<g id="edge24" class="edge">
<title>Node3&#45;&gt;Node22</title>
<path fill="none" stroke="midnightblue" d="M439.66,-247.06C447.68,-243.71 455.46,-239.44 462,-234 487.4,-212.89 474.12,-191.81 498,-169 501.77,-165.4 506.06,-162.14 510.57,-159.22"/>
<polygon fill="midnightblue" stroke="midnightblue" points="512.59,-162.09 519.44,-154.01 509.04,-156.05 512.59,-162.09"/>
</g>
<!-- Node27 -->
<g id="node27" class="node">
<title>Node27</title>
<g id="a_node27"><a xlink:href="zwapi__session_8c.html#a9d30e1677f02d7730ab035aa9333235d" target="_top" xlink:title=" ">
<polygon fill="none" stroke="black" points="507.5,-244 507.5,-274 611.5,-274 611.5,-244 507.5,-244"/>
<text text-anchor="start" x="515.5" y="-262" font-family="Helvetica,sans-Serif" font-size="10.00">zwapi_session_wait</text>
<text text-anchor="middle" x="559.5" y="-251" font-family="Helvetica,sans-Serif" font-size="10.00">_for_response</text>
</a>
</g>
</g>
<!-- Node3&#45;&gt;Node27 -->
<g id="edge37" class="edge">
<title>Node3&#45;&gt;Node27</title>
<path fill="none" stroke="midnightblue" d="M439.86,-259C457.96,-259 478.37,-259 497.09,-259"/>
<polygon fill="midnightblue" stroke="midnightblue" points="497.29,-262.5 507.29,-259 497.29,-255.5 497.29,-262.5"/>
</g>
<!-- Node5 -->
<g id="node5" class="node">
<title>Node5</title>
<g id="a_node5"><a xlink:href="zwapi__serial_8c.html#a3f2b3bd848e9fe0e6e137482bed06b46" target="_top" xlink:title="Flush the serial output if using buffered output.">
<polygon fill="none" stroke="black" points="838.5,-388 838.5,-418 935.5,-418 935.5,-388 838.5,-388"/>
<text text-anchor="start" x="846.5" y="-406" font-family="Helvetica,sans-Serif" font-size="10.00">zwapi_serial_drain</text>
<text text-anchor="middle" x="887" y="-395" font-family="Helvetica,sans-Serif" font-size="10.00">_buffer</text>
</a>
</g>
</g>
<!-- Node4&#45;&gt;Node5 -->
<g id="edge4" class="edge">
<title>Node4&#45;&gt;Node5</title>
<path fill="none" stroke="midnightblue" d="M775.02,-382.57C792,-385.7 810.95,-389.19 828.32,-392.38"/>
<polygon fill="midnightblue" stroke="midnightblue" points="827.87,-395.86 838.34,-394.23 829.14,-388.98 827.87,-395.86"/>
</g>
<!-- Node6 -->
<g id="node6" class="node">
<title>Node6</title>
<g id="a_node6"><a xlink:href="zwapi__serial_8c.html#a7762d0358e9f398b92edbfd6a550984a" target="_top" xlink:title="Write a byte to serial port device.">
<polygon fill="none" stroke="black" points="830.5,-311.5 830.5,-330.5 943.5,-330.5 943.5,-311.5 830.5,-311.5"/>
<text text-anchor="middle" x="887" y="-318.5" font-family="Helvetica,sans-Serif" font-size="10.00">zwapi_serial_put_byte</text>
</a>
</g>
</g>
<!-- Node4&#45;&gt;Node6 -->
<g id="edge5" class="edge">
<title>Node4&#45;&gt;Node6</title>
<path fill="none" stroke="midnightblue" d="M751.39,-363.42C771.37,-356.72 798.77,-347.65 823,-340 829.73,-337.87 836.89,-335.67 843.87,-333.54"/>
<polygon fill="midnightblue" stroke="midnightblue" points="845.34,-336.75 853.9,-330.51 843.32,-330.05 845.34,-336.75"/>
</g>
<!-- Node10 -->
<g id="node10" class="node">
<title>Node10</title>
<g id="a_node10"><a xlink:href="zwapi__serial_8c.html#aadf3397d0bd2c1657d4b1a373599acfe" target="_top" xlink:title="Closes and re&#45;initialize the last open serial port.">
<polygon fill="none" stroke="black" points="835,-475.5 835,-494.5 939,-494.5 939,-475.5 835,-475.5"/>
<text text-anchor="middle" x="887" y="-482.5" font-family="Helvetica,sans-Serif" font-size="10.00">zwapi_serial_restart</text>
</a>
</g>
</g>
<!-- Node4&#45;&gt;Node10 -->
<g id="edge9" class="edge">
<title>Node4&#45;&gt;Node10</title>
<path fill="none" stroke="midnightblue" d="M765.86,-382.59C773.17,-385.09 780.5,-388.19 787,-392 806.25,-403.28 806.79,-411.66 823,-427 837.88,-441.08 855,-456.81 867.63,-468.33"/>
<polygon fill="midnightblue" stroke="midnightblue" points="865.47,-471.09 875.22,-475.24 870.18,-465.92 865.47,-471.09"/>
</g>
<!-- Node4&#45;&gt;Node14 -->
<g id="edge13" class="edge">
<title>Node4&#45;&gt;Node14</title>
<path fill="none" stroke="midnightblue" d="M786.02,-367.59C797.34,-366.62 809.16,-365.6 820.54,-364.62"/>
<polygon fill="midnightblue" stroke="midnightblue" points="821.18,-368.08 830.85,-363.74 820.58,-361.11 821.18,-368.08"/>
</g>
<!-- Node7 -->
<g id="node7" class="node">
<title>Node7</title>
<g id="a_node7"><a xlink:href="zwapi__serial_8c.html#af9054824651df422bab5076d16a80fda" target="_top" xlink:title="Writes the content of a buffer to the serial port device.">
<polygon fill="none" stroke="black" points="987,-312.5 987,-331.5 1106,-331.5 1106,-312.5 987,-312.5"/>
<text text-anchor="middle" x="1046.5" y="-319.5" font-family="Helvetica,sans-Serif" font-size="10.00">zwapi_serial_put_buffer</text>
</a>
</g>
</g>
<!-- Node6&#45;&gt;Node7 -->
<g id="edge6" class="edge">
<title>Node6&#45;&gt;Node7</title>
<path fill="none" stroke="midnightblue" d="M943.53,-321.35C954.24,-321.42 965.59,-321.49 976.66,-321.56"/>
<polygon fill="midnightblue" stroke="midnightblue" points="976.71,-325.06 986.74,-321.63 976.76,-318.06 976.71,-325.06"/>
</g>
<!-- Node8 -->
<g id="node8" class="node">
<title>Node8</title>
<g id="a_node8"><a xlink:href="zwapi__serial_8c.html#a0accbbf7ddb7aeab10f5df1fe3df6642" target="_top" xlink:title=" ">
<polygon fill="none" stroke="black" points="1142,-313.5 1142,-332.5 1282,-332.5 1282,-313.5 1142,-313.5"/>
<text text-anchor="middle" x="1212" y="-320.5" font-family="Helvetica,sans-Serif" font-size="10.00">zwapi_serial_log_timestamp</text>
</a>
</g>
</g>
<!-- Node7&#45;&gt;Node8 -->
<g id="edge7" class="edge">
<title>Node7&#45;&gt;Node8</title>
<path fill="none" stroke="midnightblue" d="M1106.07,-322.36C1114.43,-322.41 1123.15,-322.46 1131.82,-322.52"/>
<polygon fill="midnightblue" stroke="midnightblue" points="1131.95,-326.02 1141.97,-322.58 1131.99,-319.02 1131.95,-326.02"/>
</g>
<!-- Node9 -->
<g id="node9" class="node">
<title>Node9</title>
<g id="a_node9"><a xlink:href="zwapi__serial_8c.html#abf18afb71e14daaf65d937149ef1639f" target="_top" xlink:title="Test if a is less than b + ms.">
<polygon fill="none" stroke="black" points="1158.5,-264 1158.5,-294 1265.5,-294 1265.5,-264 1158.5,-264"/>
<text text-anchor="start" x="1166.5" y="-282" font-family="Helvetica,sans-Serif" font-size="10.00">zwapi_serial_timeval</text>
<text text-anchor="middle" x="1212" y="-271" font-family="Helvetica,sans-Serif" font-size="10.00">_a_lt_b_milis</text>
</a>
</g>
</g>
<!-- Node7&#45;&gt;Node9 -->
<g id="edge8" class="edge">
<title>Node7&#45;&gt;Node9</title>
<path fill="none" stroke="midnightblue" d="M1083.79,-312.46C1102.8,-307.46 1126.61,-301.19 1148.48,-295.44"/>
<polygon fill="midnightblue" stroke="midnightblue" points="1149.59,-298.77 1158.37,-292.84 1147.81,-292 1149.59,-298.77"/>
</g>
<!-- Node11 -->
<g id="node11" class="node">
<title>Node11</title>
<g id="a_node11"><a xlink:href="zwapi__serial_8c.html#aae586785021ac9a605cd77651429f0c9" target="_top" xlink:title="De&#45;Initialize the serial port.">
<polygon fill="none" stroke="black" points="997,-494.5 997,-513.5 1096,-513.5 1096,-494.5 997,-494.5"/>
<text text-anchor="middle" x="1046.5" y="-501.5" font-family="Helvetica,sans-Serif" font-size="10.00">zwapi_serial_close</text>
</a>
</g>
</g>
<!-- Node10&#45;&gt;Node11 -->
<g id="edge10" class="edge">
<title>Node10&#45;&gt;Node11</title>
<path fill="none" stroke="midnightblue" d="M939.14,-491.17C954.31,-493 971.06,-495.02 986.68,-496.9"/>
<polygon fill="midnightblue" stroke="midnightblue" points="986.42,-500.4 996.76,-498.12 987.25,-493.45 986.42,-500.4"/>
</g>
<!-- Node12 -->
<g id="node12" class="node">
<title>Node12</title>
<g id="a_node12"><a xlink:href="zwapi__serial_8c.html#a07b09de97f4932d882fc77e191c44638" target="_top" xlink:title="Initialize the serial port to 115200 BAUD 8N1.">
<polygon fill="none" stroke="black" points="1002,-456.5 1002,-475.5 1091,-475.5 1091,-456.5 1002,-456.5"/>
<text text-anchor="middle" x="1046.5" y="-463.5" font-family="Helvetica,sans-Serif" font-size="10.00">zwapi_serial_init</text>
</a>
</g>
</g>
<!-- Node10&#45;&gt;Node12 -->
<g id="edge11" class="edge">
<title>Node10&#45;&gt;Node12</title>
<path fill="none" stroke="midnightblue" d="M939.14,-478.83C955.87,-476.81 974.51,-474.56 991.46,-472.52"/>
<polygon fill="midnightblue" stroke="midnightblue" points="992.25,-475.95 1001.76,-471.28 991.41,-469 992.25,-475.95"/>
</g>
<!-- Node13 -->
<g id="node13" class="node">
<title>Node13</title>
<g id="a_node13"><a xlink:href="zwapi__serial_8c.html#aefeac5909b0bf6411db1492f69c3bc68" target="_top" xlink:title=" ">
<polygon fill="none" stroke="black" points="1152.5,-456.5 1152.5,-475.5 1271.5,-475.5 1271.5,-456.5 1152.5,-456.5"/>
<text text-anchor="middle" x="1212" y="-463.5" font-family="Helvetica,sans-Serif" font-size="10.00">zwapi_open_serial_port</text>
</a>
</g>
</g>
<!-- Node12&#45;&gt;Node13 -->
<g id="edge12" class="edge">
<title>Node12&#45;&gt;Node13</title>
<path fill="none" stroke="midnightblue" d="M1091.31,-466C1106.97,-466 1125.01,-466 1142.26,-466"/>
<polygon fill="midnightblue" stroke="midnightblue" points="1142.3,-469.5 1152.3,-466 1142.3,-462.5 1142.3,-469.5"/>
</g>
<!-- Node15&#45;&gt;Node5 -->
<g id="edge16" class="edge">
<title>Node15&#45;&gt;Node5</title>
<path fill="none" stroke="midnightblue" d="M776.37,-408.38C792.9,-407.57 811.19,-406.67 828.02,-405.85"/>
<polygon fill="midnightblue" stroke="midnightblue" points="828.47,-409.33 838.28,-405.34 828.12,-402.34 828.47,-409.33"/>
</g>
<!-- Node15&#45;&gt;Node7 -->
<g id="edge17" class="edge">
<title>Node15&#45;&gt;Node7</title>
<path fill="none" stroke="midnightblue" d="M749.34,-420.55C793.29,-434.86 883.4,-457.11 951,-427 990.75,-409.3 1020.8,-365.69 1035.5,-340.59"/>
<polygon fill="midnightblue" stroke="midnightblue" points="1038.66,-342.11 1040.52,-331.68 1032.56,-338.67 1038.66,-342.11"/>
</g>
<!-- Node15&#45;&gt;Node14 -->
<g id="edge18" class="edge">
<title>Node15&#45;&gt;Node14</title>
<path fill="none" stroke="midnightblue" d="M757.04,-401.46C766.77,-398.58 777.35,-395.3 787,-392 803.24,-386.44 806.77,-383.59 823,-378 829.39,-375.8 836.18,-373.6 842.86,-371.52"/>
<polygon fill="midnightblue" stroke="midnightblue" points="843.96,-374.85 852.49,-368.58 841.91,-368.15 843.96,-374.85"/>
</g>
<!-- Node16 -->
<g id="node16" class="node">
<title>Node16</title>
<g id="a_node16"><a xlink:href="zwapi__connection_8c.html#a96d24d537c5b8d6aa0aa6a7638ba2f09" target="_top" xlink:title=" ">
<polygon fill="none" stroke="black" points="829.5,-513.5 829.5,-532.5 944.5,-532.5 944.5,-513.5 829.5,-513.5"/>
<text text-anchor="middle" x="887" y="-520.5" font-family="Helvetica,sans-Serif" font-size="10.00">zwapi_frame_to_string</text>
</a>
</g>
</g>
<!-- Node15&#45;&gt;Node16 -->
<g id="edge15" class="edge">
<title>Node15&#45;&gt;Node16</title>
<path fill="none" stroke="midnightblue" d="M730.74,-420.69C746.25,-439.5 783.11,-481.11 823,-504 826.73,-506.14 830.73,-508.07 834.84,-509.79"/>
<polygon fill="midnightblue" stroke="midnightblue" points="833.95,-513.19 844.54,-513.45 836.42,-506.65 833.95,-513.19"/>
</g>
<!-- Node19 -->
<g id="node19" class="node">
<title>Node19</title>
<g id="a_node19"><a xlink:href="zwapi__connection_8c.html#a91ce3acd7eff779496789637a9c27f40" target="_top" xlink:title="Provides the data of the serial buffer for the last received frame.">
<polygon fill="none" stroke="black" points="830.5,-88 830.5,-118 943.5,-118 943.5,-88 830.5,-88"/>
<text text-anchor="start" x="838.5" y="-106" font-family="Helvetica,sans-Serif" font-size="10.00">zwapi_connection_get</text>
<text text-anchor="middle" x="887" y="-95" font-family="Helvetica,sans-Serif" font-size="10.00">_last_rx_frame</text>
</a>
</g>
</g>
<!-- Node18&#45;&gt;Node19 -->
<g id="edge21" class="edge">
<title>Node18&#45;&gt;Node19</title>
<path fill="none" stroke="midnightblue" d="M783.7,-97.98C795.65,-98.57 808.24,-99.18 820.34,-99.78"/>
<polygon fill="midnightblue" stroke="midnightblue" points="820.21,-103.28 830.37,-100.27 820.55,-96.28 820.21,-103.28"/>
</g>
<!-- Node20 -->
<g id="node20" class="node">
<title>Node20</title>
<g id="a_node20"><a xlink:href="zwapi__session_8c.html#ad7bac697ee2388b38ed3777b5a3862bc" target="_top" xlink:title=" ">
<polygon fill="none" stroke="black" points="830.5,-39 830.5,-69 943.5,-69 943.5,-39 830.5,-39"/>
<text text-anchor="start" x="838.5" y="-57" font-family="Helvetica,sans-Serif" font-size="10.00">zwapi_session_get_rx</text>
<text text-anchor="middle" x="887" y="-46" font-family="Helvetica,sans-Serif" font-size="10.00">_queue_length</text>
</a>
</g>
</g>
<!-- Node18&#45;&gt;Node20 -->
<g id="edge22" class="edge">
<title>Node18&#45;&gt;Node20</title>
<path fill="none" stroke="midnightblue" d="M782.77,-79.97C795.03,-76.88 808,-73.62 820.45,-70.49"/>
<polygon fill="midnightblue" stroke="midnightblue" points="821.45,-73.84 830.3,-68.01 819.75,-67.06 821.45,-73.84"/>
</g>
<!-- Node21 -->
<g id="node21" class="node">
<title>Node21</title>
<g id="a_node21"><a xlink:href="group__ZWAPI__INIT.html#ga438a74c9752197d20d377874d5a61694" target="_top" xlink:title="Returns the pointer to the callbacks registered at init.">
<polygon fill="none" stroke="black" points="823,-0.5 823,-19.5 951,-19.5 951,-0.5 823,-0.5"/>
<text text-anchor="middle" x="887" y="-7.5" font-family="Helvetica,sans-Serif" font-size="10.00">zwave_api_get_callbacks</text>
</a>
</g>
</g>
<!-- Node18&#45;&gt;Node21 -->
<g id="edge23" class="edge">
<title>Node18&#45;&gt;Node21</title>
<path fill="none" stroke="midnightblue" d="M742.29,-79.8C761.73,-65.09 793.05,-43.03 823,-29 827.91,-26.7 833.17,-24.6 838.48,-22.7"/>
<polygon fill="midnightblue" stroke="midnightblue" points="839.65,-26 848.02,-19.51 837.43,-19.36 839.65,-26"/>
</g>
<!-- Node22&#45;&gt;Node18 -->
<g id="edge36" class="edge">
<title>Node22&#45;&gt;Node18</title>
<path fill="none" stroke="midnightblue" d="M615.29,-123.98C628.51,-120.35 642.77,-116.45 656.4,-112.71"/>
<polygon fill="midnightblue" stroke="midnightblue" points="657.47,-116.05 666.19,-110.03 655.62,-109.29 657.47,-116.05"/>
</g>
<!-- Node23 -->
<g id="node23" class="node">
<title>Node23</title>
<g id="a_node23"><a xlink:href="zwapi__connection_8c.html#a1e45c6c9695b5e7b415adfad40080720" target="_top" xlink:title="Parses serial data sent from the Z&#45;Wave module to the serial port. Should be frequently called by mai...">
<polygon fill="none" stroke="black" points="657,-249.5 657,-268.5 787,-268.5 787,-249.5 657,-249.5"/>
<text text-anchor="middle" x="722" y="-256.5" font-family="Helvetica,sans-Serif" font-size="10.00">zwapi_connection_refresh</text>
</a>
</g>
</g>
<!-- Node22&#45;&gt;Node23 -->
<g id="edge25" class="edge">
<title>Node22&#45;&gt;Node23</title>
<path fill="none" stroke="midnightblue" d="M580.83,-154.2C611.38,-177.04 668.87,-220.02 699.88,-243.21"/>
<polygon fill="midnightblue" stroke="midnightblue" points="698.14,-246.28 708.24,-249.46 702.33,-240.67 698.14,-246.28"/>
</g>
<!-- Node23&#45;&gt;Node5 -->
<g id="edge27" class="edge">
<title>Node23&#45;&gt;Node5</title>
<path fill="none" stroke="midnightblue" d="M728.77,-268.72C742.45,-291.01 779.01,-346.27 823,-378 825.62,-379.89 828.41,-381.67 831.3,-383.33"/>
<polygon fill="midnightblue" stroke="midnightblue" points="829.7,-386.44 840.18,-387.97 832.94,-380.24 829.7,-386.44"/>
</g>
<!-- Node23&#45;&gt;Node6 -->
<g id="edge34" class="edge">
<title>Node23&#45;&gt;Node6</title>
<path fill="none" stroke="midnightblue" d="M750.72,-268.52C762.09,-272.66 775.31,-277.75 787,-283 803.5,-290.41 806.26,-295.13 823,-302 828.48,-304.25 834.33,-306.37 840.18,-308.32"/>
<polygon fill="midnightblue" stroke="midnightblue" points="839.34,-311.72 849.93,-311.43 841.47,-305.05 839.34,-311.72"/>
</g>
<!-- Node23&#45;&gt;Node14 -->
<g id="edge35" class="edge">
<title>Node23&#45;&gt;Node14</title>
<path fill="none" stroke="midnightblue" d="M760.71,-268.55C769.95,-272.07 779.36,-276.78 787,-283 810.24,-301.91 799.15,-321.86 823,-340 825.47,-341.88 828.12,-343.57 830.89,-345.09"/>
<polygon fill="midnightblue" stroke="midnightblue" points="829.51,-348.31 840.05,-349.42 832.5,-341.99 829.51,-348.31"/>
</g>
<!-- Node23&#45;&gt;Node17 -->
<g id="edge26" class="edge">
<title>Node23&#45;&gt;Node17</title>
<path fill="none" stroke="midnightblue" d="M761.11,-249.4C770.24,-245.89 779.5,-241.2 787,-235 810.67,-215.43 799.38,-195.64 823,-176 824.55,-174.71 826.18,-173.48 827.87,-172.32"/>
<polygon fill="midnightblue" stroke="midnightblue" points="829.95,-175.15 836.73,-167.01 826.35,-169.15 829.95,-175.15"/>
</g>
<!-- Node24 -->
<g id="node24" class="node">
<title>Node24</title>
<g id="a_node24"><a xlink:href="zwapi__serial_8c.html#a538134f9fdbb1ce052667b3a041357bd" target="_top" xlink:title="Reads the output of the serial port device and stores the content in a buffer.">
<polygon fill="none" stroke="black" points="987,-272.5 987,-291.5 1106,-291.5 1106,-272.5 987,-272.5"/>
<text text-anchor="middle" x="1046.5" y="-279.5" font-family="Helvetica,sans-Serif" font-size="10.00">zwapi_serial_get_buffer</text>
</a>
</g>
</g>
<!-- Node23&#45;&gt;Node24 -->
<g id="edge28" class="edge">
<title>Node23&#45;&gt;Node24</title>
<path fill="none" stroke="midnightblue" d="M787.06,-257.57C832.86,-257.24 895.88,-258.19 951,-264 964.76,-265.45 979.52,-267.85 993.18,-270.43"/>
<polygon fill="midnightblue" stroke="midnightblue" points="992.9,-273.94 1003.39,-272.43 994.24,-267.07 992.9,-273.94"/>
</g>
<!-- Node25 -->
<g id="node25" class="node">
<title>Node25</title>
<g id="a_node25"><a xlink:href="zwapi__serial_8c.html#abb082b1e7e727203e3ca5fbeb41f7c2b" target="_top" xlink:title="Reads a byte from the serial port device.">
<polygon fill="none" stroke="black" points="830.5,-273.5 830.5,-292.5 943.5,-292.5 943.5,-273.5 830.5,-273.5"/>
<text text-anchor="middle" x="887" y="-280.5" font-family="Helvetica,sans-Serif" font-size="10.00">zwapi_serial_get_byte</text>
</a>
</g>
</g>
<!-- Node23&#45;&gt;Node25 -->
<g id="edge31" class="edge">
<title>Node23&#45;&gt;Node25</title>
<path fill="none" stroke="midnightblue" d="M787.42,-268.49C798.32,-270.09 809.65,-271.76 820.58,-273.37"/>
<polygon fill="midnightblue" stroke="midnightblue" points="820.07,-276.83 830.47,-274.82 821.09,-269.91 820.07,-276.83"/>
</g>
<!-- Node26 -->
<g id="node26" class="node">
<title>Node26</title>
<g id="a_node26"><a xlink:href="zwapi__serial_8c.html#a9a952dc2b34d92960246f6dc4e7d58f7" target="_top" xlink:title="Check the file descriptor for the serial device is available for I/O operations.">
<polygon fill="none" stroke="black" points="836.5,-186 836.5,-216 937.5,-216 937.5,-186 836.5,-186"/>
<text text-anchor="start" x="844.5" y="-204" font-family="Helvetica,sans-Serif" font-size="10.00">zwapi_serial_is_file</text>
<text text-anchor="middle" x="887" y="-193" font-family="Helvetica,sans-Serif" font-size="10.00">_available</text>
</a>
</g>
</g>
<!-- Node23&#45;&gt;Node26 -->
<g id="edge33" class="edge">
<title>Node23&#45;&gt;Node26</title>
<path fill="none" stroke="midnightblue" d="M749.92,-249.42C772.73,-241.31 806.09,-229.43 834.08,-219.48"/>
<polygon fill="midnightblue" stroke="midnightblue" points="835.48,-222.69 843.73,-216.04 833.13,-216.1 835.48,-222.69"/>
</g>
<!-- Node24&#45;&gt;Node8 -->
<g id="edge29" class="edge">
<title>Node24&#45;&gt;Node8</title>
<path fill="none" stroke="midnightblue" d="M1085.42,-291.51C1108.55,-297.31 1138.33,-304.78 1163.09,-310.99"/>
<polygon fill="midnightblue" stroke="midnightblue" points="1162.45,-314.43 1173,-313.47 1164.15,-307.64 1162.45,-314.43"/>
</g>
<!-- Node24&#45;&gt;Node9 -->
<g id="edge30" class="edge">
<title>Node24&#45;&gt;Node9</title>
<path fill="none" stroke="midnightblue" d="M1106.07,-280.93C1119.65,-280.68 1134.16,-280.41 1147.92,-280.16"/>
<polygon fill="midnightblue" stroke="midnightblue" points="1148.34,-283.65 1158.28,-279.97 1148.22,-276.65 1148.34,-283.65"/>
</g>
<!-- Node25&#45;&gt;Node24 -->
<g id="edge32" class="edge">
<title>Node25&#45;&gt;Node24</title>
<path fill="none" stroke="midnightblue" d="M943.53,-282.65C954.24,-282.58 965.59,-282.51 976.66,-282.44"/>
<polygon fill="midnightblue" stroke="midnightblue" points="976.76,-285.94 986.74,-282.37 976.71,-278.94 976.76,-285.94"/>
</g>
<!-- Node27&#45;&gt;Node14 -->
<g id="edge40" class="edge">
<title>Node27&#45;&gt;Node14</title>
<path fill="none" stroke="midnightblue" d="M611.91,-269.69C658.51,-280.17 728.61,-297.92 787,-321 803.83,-327.65 806.26,-333.13 823,-340 828.48,-342.25 834.33,-344.37 840.18,-346.32"/>
<polygon fill="midnightblue" stroke="midnightblue" points="839.34,-349.72 849.93,-349.43 841.47,-343.05 839.34,-349.72"/>
</g>
<!-- Node27&#45;&gt;Node17 -->
<g id="edge39" class="edge">
<title>Node27&#45;&gt;Node17</title>
<path fill="none" stroke="midnightblue" d="M611.7,-248.99C658.45,-238.92 728.93,-221.39 787,-197 804.08,-189.83 806.29,-183.99 823,-176 826.58,-174.29 830.32,-172.61 834.11,-170.98"/>
<polygon fill="midnightblue" stroke="midnightblue" points="835.67,-174.12 843.57,-167.07 833,-167.65 835.67,-174.12"/>
</g>
<!-- Node27&#45;&gt;Node23 -->
<g id="edge38" class="edge">
<title>Node27&#45;&gt;Node23</title>
<path fill="none" stroke="midnightblue" d="M611.72,-259C622.79,-259 634.71,-259 646.47,-259"/>
<polygon fill="midnightblue" stroke="midnightblue" points="646.73,-262.5 656.73,-259 646.73,-255.5 646.73,-262.5"/>
</g>
<!-- Node30 -->
<g id="node30" class="node">
<title>Node30</title>
<g id="a_node30"><a xlink:href="group__ZWAPI__BASIS.html#ga956fbfe63267baacd31dd20aa1c444d1" target="_top" xlink:title="Get the current node ID basetype setting.">
<polygon fill="none" stroke="black" points="313.5,-205.5 313.5,-224.5 458.5,-224.5 458.5,-205.5 313.5,-205.5"/>
<text text-anchor="middle" x="386" y="-212.5" font-family="Helvetica,sans-Serif" font-size="10.00">zwapi_get_node_id_basetype</text>
</a>
</g>
</g>
<!-- Node29&#45;&gt;Node30 -->
<g id="edge44" class="edge">
<title>Node29&#45;&gt;Node30</title>
<path fill="none" stroke="midnightblue" d="M269.7,-217.06C280.41,-216.87 291.92,-216.66 303.38,-216.46"/>
<polygon fill="midnightblue" stroke="midnightblue" points="303.47,-219.96 313.4,-216.28 303.34,-212.96 303.47,-219.96"/>
</g>
</g>
</svg>
