<?xml version="1.0" encoding="UTF-8" standalone="no"?>
<!DOCTYPE svg PUBLIC "-//W3C//DTD SVG 1.1//EN"
 "http://www.w3.org/Graphics/SVG/1.1/DTD/svg11.dtd">
<!-- Generated by graphviz version 2.43.0 (0)
 -->
<!-- Title: zwave_rx_application_command_handler_bridge Pages: 1 -->
<svg width="753pt" height="88pt"
 viewBox="0.00 0.00 753.00 88.00" xmlns="http://www.w3.org/2000/svg" xmlns:xlink="http://www.w3.org/1999/xlink">
<g id="graph0" class="graph" transform="scale(1 1) rotate(0) translate(4 84)">
<title>zwave_rx_application_command_handler_bridge</title>
<!-- Node1 -->
<g id="node1" class="node">
<title>Node1</title>
<g id="a_node1"><a xlink:title="application_command_handler_bridge function for zwapi_callbacks. Z&#45;Wave API Bridge libraries will cal...">
<polygon fill="#bfbfbf" stroke="black" points="0,-24.5 0,-54.5 133,-54.5 133,-24.5 0,-24.5"/>
<text text-anchor="start" x="8" y="-42.5" font-family="Helvetica,sans-Serif" font-size="10.00">zwave_rx_application</text>
<text text-anchor="middle" x="66.5" y="-31.5" font-family="Helvetica,sans-Serif" font-size="10.00">_command_handler_bridge</text>
</a>
</g>
</g>
<!-- Node2 -->
<g id="node2" class="node">
<title>Node2</title>
<g id="a_node2"><a xlink:href="group__zwave__rx__zwapi__callbacks.html#gad4081a8d944b8daad978322699bc01e3" target="_top" xlink:title="application_command_handler function for zwapi_callbacks. Z&#45;Wave API controller libraries will call t...">
<polygon fill="none" stroke="black" points="169,-24.5 169,-54.5 279,-54.5 279,-24.5 169,-24.5"/>
<text text-anchor="start" x="177" y="-42.5" font-family="Helvetica,sans-Serif" font-size="10.00">zwave_rx_application</text>
<text text-anchor="middle" x="224" y="-31.5" font-family="Helvetica,sans-Serif" font-size="10.00">_command_handler</text>
</a>
</g>
</g>
<!-- Node1&#45;&gt;Node2 -->
<g id="edge1" class="edge">
<title>Node1&#45;&gt;Node2</title>
<path fill="none" stroke="midnightblue" d="M133.45,-39.5C141.8,-39.5 150.35,-39.5 158.68,-39.5"/>
<polygon fill="midnightblue" stroke="midnightblue" points="158.71,-43 168.71,-39.5 158.71,-36 158.71,-43"/>
</g>
<!-- Node3 -->
<g id="node3" class="node">
<title>Node3</title>
<g id="a_node3"><a xlink:href="group__zwave__controller__internal.html#ga79b433f95d08d541cd2a4d74ed27fd65" target="_top" xlink:title="see zwave_controller_callbacks_t">
<polygon fill="none" stroke="black" points="315,-49.5 315,-79.5 421,-79.5 421,-49.5 315,-49.5"/>
<text text-anchor="start" x="323" y="-67.5" font-family="Helvetica,sans-Serif" font-size="10.00">zwave_controller_on</text>
<text text-anchor="middle" x="368" y="-56.5" font-family="Helvetica,sans-Serif" font-size="10.00">_frame_received</text>
</a>
</g>
</g>
<!-- Node2&#45;&gt;Node3 -->
<g id="edge2" class="edge">
<title>Node2&#45;&gt;Node3</title>
<path fill="none" stroke="midnightblue" d="M279.09,-49.02C287.54,-50.51 296.33,-52.06 304.94,-53.57"/>
<polygon fill="midnightblue" stroke="midnightblue" points="304.48,-57.05 314.94,-55.33 305.69,-50.15 304.48,-57.05"/>
</g>
<!-- Node6 -->
<g id="node6" class="node">
<title>Node6</title>
<g id="a_node6"><a xlink:href="group__zwave__controller__internal.html#ga0506463c57c08bf5c3782ba7f126c22b" target="_top" xlink:title="Tell the Z&#45;Wave Controller that we received a frame (Rx) from a NodeID.">
<polygon fill="none" stroke="black" points="315,-0.5 315,-30.5 421,-30.5 421,-0.5 315,-0.5"/>
<text text-anchor="start" x="323" y="-18.5" font-family="Helvetica,sans-Serif" font-size="10.00">zwave_controller_on</text>
<text text-anchor="middle" x="368" y="-7.5" font-family="Helvetica,sans-Serif" font-size="10.00">_frame_reception</text>
</a>
</g>
</g>
<!-- Node2&#45;&gt;Node6 -->
<g id="edge5" class="edge">
<title>Node2&#45;&gt;Node6</title>
<path fill="none" stroke="midnightblue" d="M279.09,-30.36C287.54,-28.93 296.33,-27.44 304.94,-25.99"/>
<polygon fill="midnightblue" stroke="midnightblue" points="305.66,-29.42 314.94,-24.3 304.49,-22.52 305.66,-29.42"/>
</g>
<!-- Node4 -->
<g id="node4" class="node">
<title>Node4</title>
<g id="a_node4"><a xlink:href="group__zwave__controller__transport__internal.html#gab1d371c3594b30fb5e48405df834696a" target="_top" xlink:title="Entry point of of frame to the transport plugin system .">
<polygon fill="none" stroke="black" points="457,-49.5 457,-79.5 591,-79.5 591,-49.5 457,-49.5"/>
<text text-anchor="start" x="465" y="-67.5" font-family="Helvetica,sans-Serif" font-size="10.00">zwave_controller_transport</text>
<text text-anchor="middle" x="524" y="-56.5" font-family="Helvetica,sans-Serif" font-size="10.00">_on_frame_received</text>
</a>
</g>
</g>
<!-- Node3&#45;&gt;Node4 -->
<g id="edge3" class="edge">
<title>Node3&#45;&gt;Node4</title>
<path fill="none" stroke="midnightblue" d="M421.14,-64.5C429.42,-64.5 438.12,-64.5 446.82,-64.5"/>
<polygon fill="midnightblue" stroke="midnightblue" points="446.99,-68 456.99,-64.5 446.99,-61 446.99,-68"/>
</g>
<!-- Node5 -->
<g id="node5" class="node">
<title>Node5</title>
<g id="a_node5"><a xlink:href="zwave__controller__transport_8c.html#a98ff30ad35d280415fc1d0c576dfcbe2" target="_top" xlink:title="Get the transport by class object.">
<polygon fill="none" stroke="black" points="627,-55 627,-74 745,-74 745,-55 627,-55"/>
<text text-anchor="middle" x="686" y="-62" font-family="Helvetica,sans-Serif" font-size="10.00">get_transport_by_class</text>
</a>
</g>
</g>
<!-- Node4&#45;&gt;Node5 -->
<g id="edge4" class="edge">
<title>Node4&#45;&gt;Node5</title>
<path fill="none" stroke="midnightblue" d="M591,-64.5C599.45,-64.5 608.11,-64.5 616.59,-64.5"/>
<polygon fill="midnightblue" stroke="midnightblue" points="616.82,-68 626.82,-64.5 616.82,-61 616.82,-68"/>
</g>
</g>
</svg>
