<?xml version="1.0" encoding="UTF-8" standalone="no"?>
<!DOCTYPE svg PUBLIC "-//W3C//DTD SVG 1.1//EN"
 "http://www.w3.org/Graphics/SVG/1.1/DTD/svg11.dtd">
<!-- Generated by graphviz version 2.43.0 (0)
 -->
<!-- Title: attribute_store_network_helper_get_unid_endpoint_from_node Pages: 1 -->
<svg width="797pt" height="50pt"
 viewBox="0.00 0.00 797.00 50.00" xmlns="http://www.w3.org/2000/svg" xmlns:xlink="http://www.w3.org/1999/xlink">
<g id="graph0" class="graph" transform="scale(1 1) rotate(0) translate(4 46)">
<title>attribute_store_network_helper_get_unid_endpoint_from_node</title>
<!-- Node1 -->
<g id="node1" class="node">
<title>Node1</title>
<g id="a_node1"><a xlink:title="Traverse the tree up from a node and find under which UNID/endpoints it is.">
<polygon fill="#bfbfbf" stroke="black" points="657,-0.5 657,-41.5 789,-41.5 789,-0.5 657,-0.5"/>
<text text-anchor="start" x="665" y="-29.5" font-family="Helvetica,sans-Serif" font-size="10.00">attribute_store_network</text>
<text text-anchor="start" x="665" y="-18.5" font-family="Helvetica,sans-Serif" font-size="10.00">_helper_get_unid_endpoint</text>
<text text-anchor="middle" x="723" y="-7.5" font-family="Helvetica,sans-Serif" font-size="10.00">_from_node</text>
</a>
</g>
</g>
<!-- Node2 -->
<g id="node2" class="node">
<title>Node2</title>
<g id="a_node2"><a xlink:href="binding__cluster__mapper_8c.html#ae4e4c1cd4e64b12304508cb8be9a2833" target="_top" xlink:title="Publishes the Supported Generated Commands based on AGI data for an Endpoint.">
<polygon fill="none" stroke="black" points="478,-6 478,-36 621,-36 621,-6 478,-6"/>
<text text-anchor="start" x="486" y="-24" font-family="Helvetica,sans-Serif" font-size="10.00">publish_supported_generated</text>
<text text-anchor="middle" x="549.5" y="-13" font-family="Helvetica,sans-Serif" font-size="10.00">_commands</text>
</a>
</g>
</g>
<!-- Node1&#45;&gt;Node2 -->
<g id="edge1" class="edge">
<title>Node1&#45;&gt;Node2</title>
<path fill="none" stroke="midnightblue" d="M646.47,-21C638.02,-21 629.45,-21 621.07,-21"/>
<polygon fill="midnightblue" stroke="midnightblue" points="646.67,-24.5 656.67,-21 646.67,-17.5 646.67,-24.5"/>
</g>
<!-- Node3 -->
<g id="node3" class="node">
<title>Node3</title>
<g id="a_node3"><a xlink:href="binding__cluster__mapper_8c.html#ac3ce6c9081329e81d4c7fbf956a8bf60" target="_top" xlink:title="Publishes the supported Generated commands when the network status is moved to online functional.">
<polygon fill="none" stroke="black" points="308,-11.5 308,-30.5 442,-30.5 442,-11.5 308,-11.5"/>
<text text-anchor="middle" x="375" y="-18.5" font-family="Helvetica,sans-Serif" font-size="10.00">on_network_status_update</text>
</a>
</g>
</g>
<!-- Node2&#45;&gt;Node3 -->
<g id="edge2" class="edge">
<title>Node2&#45;&gt;Node3</title>
<path fill="none" stroke="midnightblue" d="M467.79,-21C459.19,-21 450.51,-21 442.11,-21"/>
<polygon fill="midnightblue" stroke="midnightblue" points="467.84,-24.5 477.84,-21 467.84,-17.5 467.84,-24.5"/>
</g>
<!-- Node4 -->
<g id="node4" class="node">
<title>Node4</title>
<g id="a_node4"><a xlink:href="group__binding__cluster__mapper.html#ga5611c9657d18a729af17e2c73297f6ef" target="_top" xlink:title="Initializes the Binding cluster mapper.">
<polygon fill="none" stroke="black" points="135,-11.5 135,-30.5 272,-30.5 272,-11.5 135,-11.5"/>
<text text-anchor="middle" x="203.5" y="-18.5" font-family="Helvetica,sans-Serif" font-size="10.00">binding_cluster_mapper_init</text>
</a>
</g>
</g>
<!-- Node3&#45;&gt;Node4 -->
<g id="edge3" class="edge">
<title>Node3&#45;&gt;Node4</title>
<path fill="none" stroke="midnightblue" d="M297.92,-21C289.29,-21 280.53,-21 272.01,-21"/>
<polygon fill="midnightblue" stroke="midnightblue" points="297.98,-24.5 307.98,-21 297.98,-17.5 297.98,-24.5"/>
</g>
<!-- Node5 -->
<g id="node5" class="node">
<title>Node5</title>
<g id="a_node5"><a xlink:href="group__dotdot__mapper.html#gade4f574e9bce9945ba630a42b0bcc3c5" target="_top" xlink:title="Initialize all known cluster mappers.">
<polygon fill="none" stroke="black" points="0,-11.5 0,-30.5 99,-30.5 99,-11.5 0,-11.5"/>
<text text-anchor="middle" x="49.5" y="-18.5" font-family="Helvetica,sans-Serif" font-size="10.00">dotdot_mapper_init</text>
</a>
</g>
</g>
<!-- Node4&#45;&gt;Node5 -->
<g id="edge4" class="edge">
<title>Node4&#45;&gt;Node5</title>
<path fill="none" stroke="midnightblue" d="M124.74,-21C116.03,-21 107.35,-21 99.16,-21"/>
<polygon fill="midnightblue" stroke="midnightblue" points="124.95,-24.5 134.95,-21 124.95,-17.5 124.95,-24.5"/>
</g>
</g>
</svg>
