<?xml version="1.0" encoding="UTF-8" standalone="no"?>
<!DOCTYPE svg PUBLIC "-//W3C//DTD SVG 1.1//EN"
 "http://www.w3.org/Graphics/SVG/1.1/DTD/svg11.dtd">
<!-- Generated by graphviz version 2.43.0 (0)
 -->
<!-- Title: is_using_zpc_highest_security_class Pages: 1 -->
<svg width="778pt" height="50pt"
 viewBox="0.00 0.00 778.00 50.00" xmlns="http://www.w3.org/2000/svg" xmlns:xlink="http://www.w3.org/1999/xlink">
<g id="graph0" class="graph" transform="scale(1 1) rotate(0) translate(4 46)">
<title>is_using_zpc_highest_security_class</title>
<!-- Node1 -->
<g id="node1" class="node">
<title>Node1</title>
<g id="a_node1"><a xlink:title="function helper function that determines if a transmission was done using the ZPC&#39;s highest security ...">
<polygon fill="#bfbfbf" stroke="black" points="660,-6 660,-36 770,-36 770,-6 660,-6"/>
<text text-anchor="start" x="668" y="-24" font-family="Helvetica,sans-Serif" font-size="10.00">is_using_zpc_highest</text>
<text text-anchor="middle" x="715" y="-13" font-family="Helvetica,sans-Serif" font-size="10.00">_security_class</text>
</a>
</g>
</g>
<!-- Node2 -->
<g id="node2" class="node">
<title>Node2</title>
<g id="a_node2"><a xlink:href="zwave__command__class__security__2_8c.html#ad6cf88ba96647fbb110ad024d13ad927" target="_top" xlink:title=" ">
<polygon fill="none" stroke="black" points="502,-0.5 502,-41.5 624,-41.5 624,-0.5 502,-0.5"/>
<text text-anchor="start" x="510" y="-29.5" font-family="Helvetica,sans-Serif" font-size="10.00">zwave_command_class</text>
<text text-anchor="start" x="510" y="-18.5" font-family="Helvetica,sans-Serif" font-size="10.00">_security_2_commands</text>
<text text-anchor="middle" x="563" y="-7.5" font-family="Helvetica,sans-Serif" font-size="10.00">_supported_report</text>
</a>
</g>
</g>
<!-- Node1&#45;&gt;Node2 -->
<g id="edge1" class="edge">
<title>Node1&#45;&gt;Node2</title>
<path fill="none" stroke="midnightblue" d="M649.65,-21C641.2,-21 632.56,-21 624.17,-21"/>
<polygon fill="midnightblue" stroke="midnightblue" points="649.85,-24.5 659.85,-21 649.85,-17.5 649.85,-24.5"/>
</g>
<!-- Node3 -->
<g id="node3" class="node">
<title>Node3</title>
<g id="a_node3"><a xlink:href="zwave__command__class__security__2_8c.html#aa9d9bbdae7f77c34856a744f20f6bd34" target="_top" xlink:title=" ">
<polygon fill="none" stroke="black" points="344,-0.5 344,-41.5 466,-41.5 466,-0.5 344,-0.5"/>
<text text-anchor="start" x="352" y="-29.5" font-family="Helvetica,sans-Serif" font-size="10.00">zwave_command_class</text>
<text text-anchor="start" x="352" y="-18.5" font-family="Helvetica,sans-Serif" font-size="10.00">_security_2_control</text>
<text text-anchor="middle" x="405" y="-7.5" font-family="Helvetica,sans-Serif" font-size="10.00">_handler</text>
</a>
</g>
</g>
<!-- Node2&#45;&gt;Node3 -->
<g id="edge2" class="edge">
<title>Node2&#45;&gt;Node3</title>
<path fill="none" stroke="midnightblue" d="M491.46,-21C483.01,-21 474.44,-21 466.15,-21"/>
<polygon fill="midnightblue" stroke="midnightblue" points="491.69,-24.5 501.69,-21 491.69,-17.5 491.69,-24.5"/>
</g>
<!-- Node4 -->
<g id="node4" class="node">
<title>Node4</title>
<g id="a_node4"><a xlink:href="group__security__2__command__class.html#ga8d46dba73126d88511566e7ae09eced5" target="_top" xlink:title="Intitialize the security 2 command class handler.">
<polygon fill="none" stroke="black" points="186,-6 186,-36 308,-36 308,-6 186,-6"/>
<text text-anchor="start" x="194" y="-24" font-family="Helvetica,sans-Serif" font-size="10.00">zwave_command_class</text>
<text text-anchor="middle" x="247" y="-13" font-family="Helvetica,sans-Serif" font-size="10.00">_security_2_init</text>
</a>
</g>
</g>
<!-- Node3&#45;&gt;Node4 -->
<g id="edge3" class="edge">
<title>Node3&#45;&gt;Node4</title>
<path fill="none" stroke="midnightblue" d="M333.46,-21C325.01,-21 316.44,-21 308.15,-21"/>
<polygon fill="midnightblue" stroke="midnightblue" points="333.69,-24.5 343.69,-21 333.69,-17.5 333.69,-24.5"/>
</g>
<!-- Node5 -->
<g id="node5" class="node">
<title>Node5</title>
<g id="a_node5"><a xlink:href="group__command__classes__fixt.html#ga5272651939ced1723158340039e8da19" target="_top" xlink:title="Setup fixture for Z&#45;Wave Command Classes.">
<polygon fill="none" stroke="black" points="0,-11.5 0,-30.5 150,-30.5 150,-11.5 0,-11.5"/>
<text text-anchor="middle" x="75" y="-18.5" font-family="Helvetica,sans-Serif" font-size="10.00">zwave_command_classes_init</text>
</a>
</g>
</g>
<!-- Node4&#45;&gt;Node5 -->
<g id="edge4" class="edge">
<title>Node4&#45;&gt;Node5</title>
<path fill="none" stroke="midnightblue" d="M175.51,-21C167.16,-21 158.61,-21 150.21,-21"/>
<polygon fill="midnightblue" stroke="midnightblue" points="175.59,-24.5 185.59,-21 175.59,-17.5 175.59,-24.5"/>
</g>
</g>
</svg>
