<?xml version="1.0" encoding="UTF-8" standalone="no"?>
<!DOCTYPE svg PUBLIC "-//W3C//DTD SVG 1.1//EN"
 "http://www.w3.org/Graphics/SVG/1.1/DTD/svg11.dtd">
<!-- Generated by graphviz version 2.43.0 (0)
 -->
<!-- Title: zwave_command_class_node_info_resolver_init Pages: 1 -->
<svg width="1359pt" height="697pt"
 viewBox="0.00 0.00 1359.00 697.00" xmlns="http://www.w3.org/2000/svg" xmlns:xlink="http://www.w3.org/1999/xlink">
<g id="graph0" class="graph" transform="scale(1 1) rotate(0) translate(4 693)">
<title>zwave_command_class_node_info_resolver_init</title>
<!-- Node1 -->
<g id="node1" class="node">
<title>Node1</title>
<g id="a_node1"><a xlink:title="Registers callbacks to the attribute store and rules to the attribute resolver to be able to resolve ...">
<polygon fill="#bfbfbf" stroke="black" points="0,-486.5 0,-516.5 122,-516.5 122,-486.5 0,-486.5"/>
<text text-anchor="start" x="8" y="-504.5" font-family="Helvetica,sans-Serif" font-size="10.00">zwave_command_class</text>
<text text-anchor="middle" x="61" y="-493.5" font-family="Helvetica,sans-Serif" font-size="10.00">_node_info_resolver_init</text>
</a>
</g>
</g>
<!-- Node2 -->
<g id="node2" class="node">
<title>Node2</title>
<g id="a_node2"><a xlink:href="zwave__command__class__node__info__resolver_8c.html#a1432f8191a83b8d0ad5906bc65dfc243" target="_top" xlink:title=" ">
<polygon fill="none" stroke="black" points="172.5,-587.5 172.5,-617.5 276.5,-617.5 276.5,-587.5 172.5,-587.5"/>
<text text-anchor="start" x="180.5" y="-605.5" font-family="Helvetica,sans-Serif" font-size="10.00">on_granted_security</text>
<text text-anchor="middle" x="224.5" y="-594.5" font-family="Helvetica,sans-Serif" font-size="10.00">_key_update</text>
</a>
</g>
</g>
<!-- Node1&#45;&gt;Node2 -->
<g id="edge1" class="edge">
<title>Node1&#45;&gt;Node2</title>
<path fill="none" stroke="midnightblue" d="M77.88,-516.61C96.07,-533.28 127.33,-560.05 158,-577.5 161.63,-579.56 165.46,-581.53 169.38,-583.37"/>
<polygon fill="midnightblue" stroke="midnightblue" points="168.06,-586.61 178.62,-587.47 170.9,-580.22 168.06,-586.61"/>
</g>
<!-- Node19 -->
<g id="node19" class="node">
<title>Node19</title>
<g id="a_node19"><a xlink:href="zwave__command__class__node__info__resolver_8c.html#ae612ca379b17376390d31f0e45fd1ab8" target="_top" xlink:title="Deletes the endpoint (if it is not ep 0) when we failed resolving a NIF.">
<polygon fill="none" stroke="black" points="165,-397 165,-416 284,-416 284,-397 165,-397"/>
<text text-anchor="middle" x="224.5" y="-404" font-family="Helvetica,sans-Serif" font-size="10.00">on_nif_resolution_failed</text>
</a>
</g>
</g>
<!-- Node1&#45;&gt;Node19 -->
<g id="edge20" class="edge">
<title>Node1&#45;&gt;Node19</title>
<path fill="none" stroke="midnightblue" d="M79.37,-486.25C97.84,-470.63 128.43,-446.42 158,-430.5 165.59,-426.41 174.02,-422.75 182.24,-419.58"/>
<polygon fill="midnightblue" stroke="midnightblue" points="183.54,-422.83 191.72,-416.09 181.13,-416.26 183.54,-422.83"/>
</g>
<!-- Node20 -->
<g id="node20" class="node">
<title>Node20</title>
<g id="a_node20"><a xlink:href="zwave__command__class__node__info__resolver_8c.html#aaf800d8f937ec37f13207cb2d7172b81" target="_top" xlink:title=" ">
<polygon fill="none" stroke="black" points="347,-164.5 347,-194.5 454,-194.5 454,-164.5 347,-164.5"/>
<text text-anchor="start" x="355" y="-182.5" font-family="Helvetica,sans-Serif" font-size="10.00">on_node_information</text>
<text text-anchor="middle" x="400.5" y="-171.5" font-family="Helvetica,sans-Serif" font-size="10.00">_update</text>
</a>
</g>
</g>
<!-- Node1&#45;&gt;Node20 -->
<g id="edge21" class="edge">
<title>Node1&#45;&gt;Node20</title>
<path fill="none" stroke="midnightblue" d="M92.14,-486.34C110.78,-477.38 135.38,-466.3 158,-458.5 215.57,-438.64 244.39,-464.7 291,-425.5 360.72,-366.86 387.2,-254.64 395.84,-204.63"/>
<polygon fill="midnightblue" stroke="midnightblue" points="399.31,-205.1 397.47,-194.67 392.4,-203.98 399.31,-205.1"/>
</g>
<!-- Node28 -->
<g id="node28" class="node">
<title>Node28</title>
<g id="a_node28"><a xlink:href="zwave__command__class__node__info__resolver_8c.html#a3922df75d3ca3f6b2feb8ef5c43418f5" target="_top" xlink:title=" ">
<polygon fill="none" stroke="black" points="158,-549 158,-568 291,-568 291,-549 158,-549"/>
<text text-anchor="middle" x="224.5" y="-556" font-family="Helvetica,sans-Serif" font-size="10.00">on_non_secure_nif_update</text>
</a>
</g>
</g>
<!-- Node1&#45;&gt;Node28 -->
<g id="edge35" class="edge">
<title>Node1&#45;&gt;Node28</title>
<path fill="none" stroke="midnightblue" d="M97.71,-516.57C115.65,-523.9 137.82,-532.6 158,-539.5 164.55,-541.74 171.52,-543.95 178.38,-546.02"/>
<polygon fill="midnightblue" stroke="midnightblue" points="177.71,-549.47 188.3,-548.95 179.7,-542.76 177.71,-549.47"/>
</g>
<!-- Node29 -->
<g id="node29" class="node">
<title>Node29</title>
<g id="a_node29"><a xlink:href="zwave__command__class__node__info__resolver_8c.html#acbc33e16c8e5e5b976e143e7e4f509d7" target="_top" xlink:title=" ">
<polygon fill="none" stroke="black" points="346,-658.5 346,-688.5 455,-688.5 455,-658.5 346,-658.5"/>
<text text-anchor="start" x="354" y="-676.5" font-family="Helvetica,sans-Serif" font-size="10.00">on_secure_node_info</text>
<text text-anchor="middle" x="400.5" y="-665.5" font-family="Helvetica,sans-Serif" font-size="10.00">_no_response</text>
</a>
</g>
</g>
<!-- Node1&#45;&gt;Node29 -->
<g id="edge37" class="edge">
<title>Node1&#45;&gt;Node29</title>
<path fill="none" stroke="midnightblue" d="M68.99,-516.83C82.21,-543.92 113.56,-600.01 158,-627.5 211.77,-660.76 284.17,-670.93 335.63,-673.6"/>
<polygon fill="midnightblue" stroke="midnightblue" points="335.49,-677.09 345.64,-674.03 335.8,-670.1 335.49,-677.09"/>
</g>
<!-- Node30 -->
<g id="node30" class="node">
<title>Node30</title>
<g id="a_node30"><a xlink:href="zwave__command__class__node__info__resolver_8c.html#a7a477d2057fb3dde2000ac80351d9e5c" target="_top" xlink:title=" ">
<polygon fill="none" stroke="black" points="177,-511 177,-530 272,-530 272,-511 177,-511"/>
<text text-anchor="middle" x="224.5" y="-518" font-family="Helvetica,sans-Serif" font-size="10.00">resolve_node_info</text>
</a>
</g>
</g>
<!-- Node1&#45;&gt;Node30 -->
<g id="edge39" class="edge">
<title>Node1&#45;&gt;Node30</title>
<path fill="none" stroke="midnightblue" d="M122.14,-508.57C136.71,-510.29 152.25,-512.12 166.67,-513.81"/>
<polygon fill="midnightblue" stroke="midnightblue" points="166.6,-517.33 176.94,-515.02 167.42,-510.38 166.6,-517.33"/>
</g>
<!-- Node33 -->
<g id="node33" class="node">
<title>Node33</title>
<g id="a_node33"><a xlink:href="zwave__command__class__node__info__resolver_8c.html#a17a378ba062b28606c84948c3fba8559" target="_top" xlink:title=" ">
<polygon fill="none" stroke="black" points="335.5,-423 335.5,-442 465.5,-442 465.5,-423 335.5,-423"/>
<text text-anchor="middle" x="400.5" y="-430" font-family="Helvetica,sans-Serif" font-size="10.00">resolve_secure_node_info</text>
</a>
</g>
</g>
<!-- Node1&#45;&gt;Node33 -->
<g id="edge43" class="edge">
<title>Node1&#45;&gt;Node33</title>
<path fill="none" stroke="midnightblue" d="M122.43,-491C168.7,-482.75 234.03,-470.67 291,-458.5 310.91,-454.25 332.76,-449.1 351.6,-444.52"/>
<polygon fill="midnightblue" stroke="midnightblue" points="352.56,-447.89 361.44,-442.11 350.9,-441.09 352.56,-447.89"/>
</g>
<!-- Node37 -->
<g id="node37" class="node">
<title>Node37</title>
<g id="a_node37"><a xlink:href="group__zwave__controller__callbacks.html#ga12b82fdf317e0eb3bf314a037c7ae855" target="_top" xlink:title="Let another component register its callbacks for Z&#45;Wave Controller events.">
<polygon fill="none" stroke="black" points="160.5,-347.5 160.5,-377.5 288.5,-377.5 288.5,-347.5 160.5,-347.5"/>
<text text-anchor="start" x="168.5" y="-365.5" font-family="Helvetica,sans-Serif" font-size="10.00">zwave_controller_register</text>
<text text-anchor="middle" x="224.5" y="-354.5" font-family="Helvetica,sans-Serif" font-size="10.00">_callbacks</text>
</a>
</g>
</g>
<!-- Node1&#45;&gt;Node37 -->
<g id="edge50" class="edge">
<title>Node1&#45;&gt;Node37</title>
<path fill="none" stroke="midnightblue" d="M71.05,-486.46C86.22,-462.41 118.98,-415.23 158,-387.5 160.68,-385.6 163.52,-383.82 166.46,-382.15"/>
<polygon fill="midnightblue" stroke="midnightblue" points="168.21,-385.19 175.52,-377.52 165.02,-378.96 168.21,-385.19"/>
</g>
<!-- Node3 -->
<g id="node3" class="node">
<title>Node3</title>
<g id="a_node3"><a xlink:href="zwave__command__class__node__info__resolver_8c.html#a1ead83b0b81912e1938044ad2fb86368" target="_top" xlink:title=" ">
<polygon fill="none" stroke="black" points="351,-570.5 351,-600.5 450,-600.5 450,-570.5 351,-570.5"/>
<text text-anchor="start" x="359" y="-588.5" font-family="Helvetica,sans-Serif" font-size="10.00">create_secure_nifs</text>
<text text-anchor="middle" x="400.5" y="-577.5" font-family="Helvetica,sans-Serif" font-size="10.00">_if_missing</text>
</a>
</g>
</g>
<!-- Node2&#45;&gt;Node3 -->
<g id="edge2" class="edge">
<title>Node2&#45;&gt;Node3</title>
<path fill="none" stroke="midnightblue" d="M276.76,-597.49C296.92,-595.52 320.18,-593.25 340.99,-591.22"/>
<polygon fill="midnightblue" stroke="midnightblue" points="341.38,-594.7 350.99,-590.24 340.69,-587.73 341.38,-594.7"/>
</g>
<!-- Node4 -->
<g id="node4" class="node">
<title>Node4</title>
<g id="a_node4"><a xlink:href="group__zpc__attribute__store.html#ga4c4a364eb42142672d0a42f3c09b43b4" target="_top" xlink:title="Returns the NodeID (attribute store) node of our current network / NodeID.">
<polygon fill="none" stroke="black" points="530.5,-636 530.5,-655 646.5,-655 646.5,-636 530.5,-636"/>
<text text-anchor="middle" x="588.5" y="-643" font-family="Helvetica,sans-Serif" font-size="10.00">get_zpc_node_id_node</text>
</a>
</g>
</g>
<!-- Node3&#45;&gt;Node4 -->
<g id="edge3" class="edge">
<title>Node3&#45;&gt;Node4</title>
<path fill="none" stroke="midnightblue" d="M446.04,-600.5C465.63,-607.04 488.93,-614.74 510,-621.5 521.84,-625.3 534.73,-629.33 546.54,-632.98"/>
<polygon fill="midnightblue" stroke="midnightblue" points="545.57,-636.35 556.16,-635.95 547.63,-629.66 545.57,-636.35"/>
</g>
<!-- Node8 -->
<g id="node8" class="node">
<title>Node8</title>
<g id="a_node8"><a xlink:href="group__zwave__controller__keyset.html#gaf257c77b34f1b306368474dffce4950b" target="_top" xlink:title="Function to tell whether scheme k is greater or equal to scheme v.">
<polygon fill="none" stroke="black" points="511,-548.5 511,-578.5 666,-578.5 666,-548.5 511,-548.5"/>
<text text-anchor="start" x="519" y="-566.5" font-family="Helvetica,sans-Serif" font-size="10.00">zwave_controller_encapsulation</text>
<text text-anchor="middle" x="588.5" y="-555.5" font-family="Helvetica,sans-Serif" font-size="10.00">_scheme_greater_equal</text>
</a>
</g>
</g>
<!-- Node3&#45;&gt;Node8 -->
<g id="edge7" class="edge">
<title>Node3&#45;&gt;Node8</title>
<path fill="none" stroke="midnightblue" d="M450.37,-579.72C465.85,-577.89 483.44,-575.81 500.75,-573.76"/>
<polygon fill="midnightblue" stroke="midnightblue" points="501.37,-577.21 510.89,-572.56 500.55,-570.26 501.37,-577.21"/>
</g>
<!-- Node9 -->
<g id="node9" class="node">
<title>Node9</title>
<g id="a_node9"><a xlink:href="group__zwave__controller__keyset.html#ga43a73c5ae7dc860fa2e5edb9814c432f" target="_top" xlink:title="Get the hight encapsulation supported by a given key set.">
<polygon fill="none" stroke="black" points="711,-567.5 711,-597.5 830,-597.5 830,-567.5 711,-567.5"/>
<text text-anchor="start" x="719" y="-585.5" font-family="Helvetica,sans-Serif" font-size="10.00">zwave_controller_get</text>
<text text-anchor="middle" x="770.5" y="-574.5" font-family="Helvetica,sans-Serif" font-size="10.00">_highest_encapsulation</text>
</a>
</g>
</g>
<!-- Node3&#45;&gt;Node9 -->
<g id="edge12" class="edge">
<title>Node3&#45;&gt;Node9</title>
<path fill="none" stroke="midnightblue" d="M450.44,-587.24C503.73,-588.86 591.43,-590.71 667,-588.5 677.91,-588.18 689.47,-587.67 700.74,-587.08"/>
<polygon fill="midnightblue" stroke="midnightblue" points="701.19,-590.56 710.99,-586.52 700.81,-583.57 701.19,-590.56"/>
</g>
<!-- Node12 -->
<g id="node12" class="node">
<title>Node12</title>
<g id="a_node12"><a xlink:href="group__zwave__utils.html#ga0419a6dc8b195016ac1010d4dd7d85e0" target="_top" xlink:title="Get the node granted keys object.">
<polygon fill="none" stroke="black" points="511.5,-510 511.5,-529 665.5,-529 665.5,-510 511.5,-510"/>
<text text-anchor="middle" x="588.5" y="-517" font-family="Helvetica,sans-Serif" font-size="10.00">zwave_get_node_granted_keys</text>
</a>
</g>
</g>
<!-- Node3&#45;&gt;Node12 -->
<g id="edge13" class="edge">
<title>Node3&#45;&gt;Node12</title>
<path fill="none" stroke="midnightblue" d="M450.07,-571.14C458.18,-568.25 466.42,-565.01 474,-561.5 491.01,-553.61 492.73,-546.81 510,-539.5 516.77,-536.63 524.06,-534.09 531.36,-531.87"/>
<polygon fill="midnightblue" stroke="midnightblue" points="532.61,-535.15 541.27,-529.04 530.69,-528.42 532.61,-535.15"/>
</g>
<!-- Node5 -->
<g id="node5" class="node">
<title>Node5</title>
<g id="a_node5"><a xlink:href="group__zpc__attribute__store.html#gaa77e8f9b18958337bb68279c8c53ccdc" target="_top" xlink:title="Returns the HomeID (attribute store) node of our current network.">
<polygon fill="none" stroke="black" points="712,-655 712,-674 829,-674 829,-655 712,-655"/>
<text text-anchor="middle" x="770.5" y="-662" font-family="Helvetica,sans-Serif" font-size="10.00">get_zpc_network_node</text>
</a>
</g>
</g>
<!-- Node4&#45;&gt;Node5 -->
<g id="edge4" class="edge">
<title>Node4&#45;&gt;Node5</title>
<path fill="none" stroke="midnightblue" d="M646.95,-651.56C664.4,-653.41 683.75,-655.45 701.81,-657.35"/>
<polygon fill="midnightblue" stroke="midnightblue" points="701.67,-660.86 711.98,-658.43 702.4,-653.9 701.67,-660.86"/>
</g>
<!-- Node7 -->
<g id="node7" class="node">
<title>Node7</title>
<g id="a_node7"><a xlink:href="group__zwave__network__management.html#gae265f1e935804f3f0b971755ab0ee61e" target="_top" xlink:title="Get the cached NodeID.">
<polygon fill="none" stroke="black" points="874,-584.5 874,-614.5 1020,-614.5 1020,-584.5 874,-584.5"/>
<text text-anchor="start" x="882" y="-602.5" font-family="Helvetica,sans-Serif" font-size="10.00">zwave_network_management</text>
<text text-anchor="middle" x="947" y="-591.5" font-family="Helvetica,sans-Serif" font-size="10.00">_get_node_id</text>
</a>
</g>
</g>
<!-- Node4&#45;&gt;Node7 -->
<g id="edge6" class="edge">
<title>Node4&#45;&gt;Node7</title>
<path fill="none" stroke="midnightblue" d="M646.78,-638.11C705.47,-630.54 797.29,-618.69 863.75,-610.11"/>
<polygon fill="midnightblue" stroke="midnightblue" points="864.3,-613.57 873.77,-608.82 863.41,-606.63 864.3,-613.57"/>
</g>
<!-- Node6 -->
<g id="node6" class="node">
<title>Node6</title>
<g id="a_node6"><a xlink:href="group__zwave__network__management.html#gac01bf38badf30f94eac9a04b486cb967" target="_top" xlink:title="Get the cached HomeID.">
<polygon fill="none" stroke="black" points="874,-649.5 874,-679.5 1020,-679.5 1020,-649.5 874,-649.5"/>
<text text-anchor="start" x="882" y="-667.5" font-family="Helvetica,sans-Serif" font-size="10.00">zwave_network_management</text>
<text text-anchor="middle" x="947" y="-656.5" font-family="Helvetica,sans-Serif" font-size="10.00">_get_home_id</text>
</a>
</g>
</g>
<!-- Node5&#45;&gt;Node6 -->
<g id="edge5" class="edge">
<title>Node5&#45;&gt;Node6</title>
<path fill="none" stroke="midnightblue" d="M829.12,-664.5C840.18,-664.5 851.95,-664.5 863.62,-664.5"/>
<polygon fill="midnightblue" stroke="midnightblue" points="863.81,-668 873.81,-664.5 863.81,-661 863.81,-668"/>
</g>
<!-- Node8&#45;&gt;Node9 -->
<g id="edge8" class="edge">
<title>Node8&#45;&gt;Node9</title>
<path fill="none" stroke="midnightblue" d="M666.1,-571.59C677.6,-572.8 689.4,-574.04 700.72,-575.24"/>
<polygon fill="midnightblue" stroke="midnightblue" points="700.66,-578.75 710.97,-576.32 701.39,-571.79 700.66,-578.75"/>
</g>
<!-- Node10 -->
<g id="node10" class="node">
<title>Node10</title>
<g id="a_node10"><a xlink:href="group__zwave__tx__scheme__selector.html#ga13b472eb06e679638bad680aa33825db" target="_top" xlink:title="Return a list of security keys which the controller can use.">
<polygon fill="none" stroke="black" points="712,-518.5 712,-548.5 829,-548.5 829,-518.5 712,-518.5"/>
<text text-anchor="start" x="720" y="-536.5" font-family="Helvetica,sans-Serif" font-size="10.00">zwave_tx_scheme_get</text>
<text text-anchor="middle" x="770.5" y="-525.5" font-family="Helvetica,sans-Serif" font-size="10.00">_zpc_granted_keys</text>
</a>
</g>
</g>
<!-- Node8&#45;&gt;Node10 -->
<g id="edge9" class="edge">
<title>Node8&#45;&gt;Node10</title>
<path fill="none" stroke="midnightblue" d="M666.1,-550.73C677.94,-548.76 690.1,-546.73 701.73,-544.8"/>
<polygon fill="midnightblue" stroke="midnightblue" points="702.5,-548.22 711.79,-543.12 701.35,-541.31 702.5,-548.22"/>
</g>
<!-- Node10&#45;&gt;Node7 -->
<g id="edge11" class="edge">
<title>Node10&#45;&gt;Node7</title>
<path fill="none" stroke="midnightblue" d="M811.6,-548.55C820.3,-551.82 829.46,-555.27 838,-558.5 857.33,-565.8 878.6,-573.87 897.11,-580.9"/>
<polygon fill="midnightblue" stroke="midnightblue" points="895.92,-584.19 906.51,-584.47 898.41,-577.65 895.92,-584.19"/>
</g>
<!-- Node11 -->
<g id="node11" class="node">
<title>Node11</title>
<g id="a_node11"><a xlink:href="group__zwave__controller__storage.html#ga771d01deff646dfda3f8406d6fbf5736" target="_top" xlink:title="Return the granted keys for a node.">
<polygon fill="none" stroke="black" points="883,-518.5 883,-548.5 1011,-548.5 1011,-518.5 883,-518.5"/>
<text text-anchor="start" x="891" y="-536.5" font-family="Helvetica,sans-Serif" font-size="10.00">zwave_controller_storage</text>
<text text-anchor="middle" x="947" y="-525.5" font-family="Helvetica,sans-Serif" font-size="10.00">_get_node_granted_keys</text>
</a>
</g>
</g>
<!-- Node10&#45;&gt;Node11 -->
<g id="edge10" class="edge">
<title>Node10&#45;&gt;Node11</title>
<path fill="none" stroke="midnightblue" d="M829.12,-533.5C842.94,-533.5 857.89,-533.5 872.32,-533.5"/>
<polygon fill="midnightblue" stroke="midnightblue" points="872.72,-537 882.72,-533.5 872.72,-530 872.72,-537"/>
</g>
<!-- Node13 -->
<g id="node13" class="node">
<title>Node13</title>
<g id="a_node13"><a xlink:href="group__zpc__attribute__store__network__helpers.html#ga7a3f40a9cbc90f2674b9e9e454fd6207" target="_top" xlink:title="Take a Z&#45;Wave NodeID and return its Attribute Store node representing the NodeID.">
<polygon fill="none" stroke="black" points="707,-275 707,-316 834,-316 834,-275 707,-275"/>
<text text-anchor="start" x="715" y="-304" font-family="Helvetica,sans-Serif" font-size="10.00">attribute_store_network</text>
<text text-anchor="start" x="715" y="-293" font-family="Helvetica,sans-Serif" font-size="10.00">_helper_get_zwave_node</text>
<text text-anchor="middle" x="770.5" y="-282" font-family="Helvetica,sans-Serif" font-size="10.00">_id_node</text>
</a>
</g>
</g>
<!-- Node12&#45;&gt;Node13 -->
<g id="edge14" class="edge">
<title>Node12&#45;&gt;Node13</title>
<path fill="none" stroke="midnightblue" d="M606.08,-509.95C622.84,-499.73 648.8,-482.29 667,-462.5 705.94,-420.16 738.16,-360.89 755.55,-325.53"/>
<polygon fill="midnightblue" stroke="midnightblue" points="758.84,-326.75 760.05,-316.22 752.54,-323.7 758.84,-326.75"/>
</g>
<!-- Node14 -->
<g id="node14" class="node">
<title>Node14</title>
<g id="a_node14"><a xlink:href="group__zpc__attribute__store__network__helpers.html#gafb993ff484b3c826743c4695d6659cf0" target="_top" xlink:title="Take a UNID and return its attribute store node representing the NodeID.">
<polygon fill="none" stroke="black" points="881,-253.5 881,-283.5 1013,-283.5 1013,-253.5 881,-253.5"/>
<text text-anchor="start" x="889" y="-271.5" font-family="Helvetica,sans-Serif" font-size="10.00">attribute_store_network</text>
<text text-anchor="middle" x="947" y="-260.5" font-family="Helvetica,sans-Serif" font-size="10.00">_helper_get_node_id_node</text>
</a>
</g>
</g>
<!-- Node13&#45;&gt;Node14 -->
<g id="edge15" class="edge">
<title>Node13&#45;&gt;Node14</title>
<path fill="none" stroke="midnightblue" d="M834.01,-285.83C845.92,-283.98 858.51,-282.04 870.78,-280.14"/>
<polygon fill="midnightblue" stroke="midnightblue" points="871.64,-283.55 880.99,-278.56 870.57,-276.63 871.64,-283.55"/>
</g>
<!-- Node18 -->
<g id="node18" class="node">
<title>Node18</title>
<g id="a_node18"><a xlink:href="group__zwave__unid.html#ga421deceb8a12916f049e4f3446774439" target="_top" xlink:title="Form a UNID.">
<polygon fill="none" stroke="black" points="881,-187 881,-206 1013,-206 1013,-187 881,-187"/>
<text text-anchor="middle" x="947" y="-194" font-family="Helvetica,sans-Serif" font-size="10.00">zwave_unid_from_node_id</text>
</a>
</g>
</g>
<!-- Node13&#45;&gt;Node18 -->
<g id="edge19" class="edge">
<title>Node13&#45;&gt;Node18</title>
<path fill="none" stroke="midnightblue" d="M817.66,-274.9C824.55,-271.56 831.51,-268.04 838,-264.5 854.36,-255.58 895.83,-229.04 922.36,-211.87"/>
<polygon fill="midnightblue" stroke="midnightblue" points="924.57,-214.61 931.06,-206.23 920.76,-208.74 924.57,-214.61"/>
</g>
<!-- Node15 -->
<g id="node15" class="node">
<title>Node15</title>
<g id="a_node15"><a xlink:href="group__zpc__attribute__store__network__helpers.html#ga05cb572c96f7dc8e6657f86e135fafed" target="_top" xlink:title="Take a UNID and return its attribute store node representing the HomeID.">
<polygon fill="none" stroke="black" points="1056,-275.5 1056,-305.5 1191,-305.5 1191,-275.5 1056,-275.5"/>
<text text-anchor="start" x="1064" y="-293.5" font-family="Helvetica,sans-Serif" font-size="10.00">attribute_store_network</text>
<text text-anchor="middle" x="1123.5" y="-282.5" font-family="Helvetica,sans-Serif" font-size="10.00">_helper_get_home_id_node</text>
</a>
</g>
</g>
<!-- Node14&#45;&gt;Node15 -->
<g id="edge16" class="edge">
<title>Node14&#45;&gt;Node15</title>
<path fill="none" stroke="midnightblue" d="M1013.47,-276.75C1023.95,-278.08 1034.88,-279.45 1045.6,-280.8"/>
<polygon fill="midnightblue" stroke="midnightblue" points="1045.43,-284.31 1055.79,-282.09 1046.3,-277.37 1045.43,-284.31"/>
</g>
<!-- Node17 -->
<g id="node17" class="node">
<title>Node17</title>
<g id="a_node17"><a xlink:href="group__zwave__unid.html#ga76885767debd174e96e6df00b0a368c3" target="_top" xlink:title="Convert a UNID to a node ID.">
<polygon fill="none" stroke="black" points="1063,-237 1063,-256 1184,-256 1184,-237 1063,-237"/>
<text text-anchor="middle" x="1123.5" y="-244" font-family="Helvetica,sans-Serif" font-size="10.00">zwave_unid_to_node_id</text>
</a>
</g>
</g>
<!-- Node14&#45;&gt;Node17 -->
<g id="edge18" class="edge">
<title>Node14&#45;&gt;Node17</title>
<path fill="none" stroke="midnightblue" d="M1013.47,-260.25C1026.29,-258.63 1039.78,-256.93 1052.74,-255.3"/>
<polygon fill="midnightblue" stroke="midnightblue" points="1053.5,-258.73 1062.99,-254 1052.63,-251.78 1053.5,-258.73"/>
</g>
<!-- Node16 -->
<g id="node16" class="node">
<title>Node16</title>
<g id="a_node16"><a xlink:href="group__zwave__unid.html#ga92f9808a08c2ce1c0a6a9dc2debf3580" target="_top" xlink:title="Convert a UNID to a Home ID.">
<polygon fill="none" stroke="black" points="1227,-281 1227,-300 1351,-300 1351,-281 1227,-281"/>
<text text-anchor="middle" x="1289" y="-288" font-family="Helvetica,sans-Serif" font-size="10.00">zwave_unid_to_home_id</text>
</a>
</g>
</g>
<!-- Node15&#45;&gt;Node16 -->
<g id="edge17" class="edge">
<title>Node15&#45;&gt;Node16</title>
<path fill="none" stroke="midnightblue" d="M1191,-290.5C1199.42,-290.5 1208.07,-290.5 1216.57,-290.5"/>
<polygon fill="midnightblue" stroke="midnightblue" points="1216.83,-294 1226.83,-290.5 1216.83,-287 1216.83,-294"/>
</g>
<!-- Node20&#45;&gt;Node18 -->
<g id="edge34" class="edge">
<title>Node20&#45;&gt;Node18</title>
<path fill="none" stroke="midnightblue" d="M415.18,-164.29C434.21,-144.28 470.79,-109.87 510,-94.5 645.88,-41.23 704.43,-19.68 838,-78.5 884.38,-98.92 919.52,-150.19 935.87,-177.95"/>
<polygon fill="midnightblue" stroke="midnightblue" points="932.87,-179.74 940.86,-186.7 938.95,-176.28 932.87,-179.74"/>
</g>
<!-- Node21 -->
<g id="node21" class="node">
<title>Node21</title>
<g id="a_node21"><a xlink:href="group__zpc__attribute__store__network__helpers.html#gae4d15b8e0c61c88d94c8f342bd2014fc" target="_top" xlink:title="Take a UNID/endpoint combination and returns its attribute store node.">
<polygon fill="none" stroke="black" points="703,-225.5 703,-255.5 838,-255.5 838,-225.5 703,-225.5"/>
<text text-anchor="start" x="711" y="-243.5" font-family="Helvetica,sans-Serif" font-size="10.00">attribute_store_network</text>
<text text-anchor="middle" x="770.5" y="-232.5" font-family="Helvetica,sans-Serif" font-size="10.00">_helper_get_endpoint_node</text>
</a>
</g>
</g>
<!-- Node20&#45;&gt;Node21 -->
<g id="edge22" class="edge">
<title>Node20&#45;&gt;Node21</title>
<path fill="none" stroke="midnightblue" d="M454.04,-191.97C471.76,-195.94 491.68,-200.17 510,-203.5 571.18,-214.61 640.98,-224.4 692.77,-231.12"/>
<polygon fill="midnightblue" stroke="midnightblue" points="692.51,-234.61 702.88,-232.42 693.41,-227.67 692.51,-234.61"/>
</g>
<!-- Node22 -->
<g id="node22" class="node">
<title>Node22</title>
<g id="a_node22"><a xlink:href="group__zwave__controller__utils.html#gac6028ff4c772ca1a731dffaf4b530e15" target="_top" xlink:title="Pack the given NIF into a uint8_t array.">
<polygon fill="none" stroke="black" points="527.5,-0.5 527.5,-30.5 649.5,-30.5 649.5,-0.5 527.5,-0.5"/>
<text text-anchor="start" x="535.5" y="-18.5" font-family="Helvetica,sans-Serif" font-size="10.00">zwave_command_class</text>
<text text-anchor="middle" x="588.5" y="-7.5" font-family="Helvetica,sans-Serif" font-size="10.00">_list_pack</text>
</a>
</g>
</g>
<!-- Node20&#45;&gt;Node22 -->
<g id="edge24" class="edge">
<title>Node20&#45;&gt;Node22</title>
<path fill="none" stroke="midnightblue" d="M410,-164.48C426.14,-137.19 463.79,-79.17 510,-45.5 515.48,-41.5 521.57,-37.96 527.85,-34.85"/>
<polygon fill="midnightblue" stroke="midnightblue" points="529.51,-37.93 537.14,-30.58 526.59,-31.57 529.51,-37.93"/>
</g>
<!-- Node23 -->
<g id="node23" class="node">
<title>Node23</title>
<g id="a_node23"><a xlink:href="group__zwave__utils.html#gaaa5d4e371acabd40b10dcf27edd993ff" target="_top" xlink:title="Verify whether a node/endpoint supports a Command Class using the attribute Store.">
<polygon fill="none" stroke="black" points="531.5,-164.5 531.5,-194.5 645.5,-194.5 645.5,-164.5 531.5,-164.5"/>
<text text-anchor="start" x="539.5" y="-182.5" font-family="Helvetica,sans-Serif" font-size="10.00">zwave_node_supports</text>
<text text-anchor="middle" x="588.5" y="-171.5" font-family="Helvetica,sans-Serif" font-size="10.00">_command_class</text>
</a>
</g>
</g>
<!-- Node20&#45;&gt;Node23 -->
<g id="edge25" class="edge">
<title>Node20&#45;&gt;Node23</title>
<path fill="none" stroke="midnightblue" d="M454.3,-179.5C475.07,-179.5 499.15,-179.5 521.08,-179.5"/>
<polygon fill="midnightblue" stroke="midnightblue" points="521.32,-183 531.32,-179.5 521.32,-176 521.32,-183"/>
</g>
<!-- Node25 -->
<g id="node25" class="node">
<title>Node25</title>
<g id="a_node25"><a xlink:href="group__zwave__security__validation.html#ga83d2429dc872b553f71b3ca3d1ff1108" target="_top" xlink:title="Verifies if a the S2 Command Class has disappeared from the NIF, whereas it was reported as supported...">
<polygon fill="none" stroke="black" points="515.5,-104 515.5,-145 661.5,-145 661.5,-104 515.5,-104"/>
<text text-anchor="start" x="523.5" y="-133" font-family="Helvetica,sans-Serif" font-size="10.00">zwave_security_validation</text>
<text text-anchor="start" x="523.5" y="-122" font-family="Helvetica,sans-Serif" font-size="10.00">_is_s2_nif_downgrade_attack</text>
<text text-anchor="middle" x="588.5" y="-111" font-family="Helvetica,sans-Serif" font-size="10.00">_detected</text>
</a>
</g>
</g>
<!-- Node20&#45;&gt;Node25 -->
<g id="edge29" class="edge">
<title>Node20&#45;&gt;Node25</title>
<path fill="none" stroke="midnightblue" d="M452.33,-164.47C469.55,-159.38 489.21,-153.56 508.11,-147.97"/>
<polygon fill="midnightblue" stroke="midnightblue" points="509.31,-151.27 517.91,-145.08 507.33,-144.56 509.31,-151.27"/>
</g>
<!-- Node27 -->
<g id="node27" class="node">
<title>Node27</title>
<g id="a_node27"><a xlink:href="group__zwave__utils.html#ga65be55bf46158201858695ec961f5b52" target="_top" xlink:title="Sets a node as S2 capable, meaning that we know it supports S2, and it will forever do.">
<polygon fill="none" stroke="black" points="522.5,-252.5 522.5,-282.5 654.5,-282.5 654.5,-252.5 522.5,-252.5"/>
<text text-anchor="start" x="530.5" y="-270.5" font-family="Helvetica,sans-Serif" font-size="10.00">zwave_security_validation</text>
<text text-anchor="middle" x="588.5" y="-259.5" font-family="Helvetica,sans-Serif" font-size="10.00">_set_node_as_s2_capable</text>
</a>
</g>
</g>
<!-- Node20&#45;&gt;Node27 -->
<g id="edge32" class="edge">
<title>Node20&#45;&gt;Node27</title>
<path fill="none" stroke="midnightblue" d="M427.8,-194.72C449.49,-206.99 481.27,-224.32 510,-237.5 518.38,-241.34 527.4,-245.14 536.23,-248.67"/>
<polygon fill="midnightblue" stroke="midnightblue" points="535.1,-251.98 545.68,-252.38 537.66,-245.47 535.1,-251.98"/>
</g>
<!-- Node21&#45;&gt;Node14 -->
<g id="edge23" class="edge">
<title>Node21&#45;&gt;Node14</title>
<path fill="none" stroke="midnightblue" d="M838.47,-251.25C849.03,-252.94 860.01,-254.7 870.74,-256.42"/>
<polygon fill="midnightblue" stroke="midnightblue" points="870.51,-259.93 880.94,-258.06 871.62,-253.02 870.51,-259.93"/>
</g>
<!-- Node23&#45;&gt;Node18 -->
<g id="edge28" class="edge">
<title>Node23&#45;&gt;Node18</title>
<path fill="none" stroke="midnightblue" d="M645.6,-182.17C706.3,-185.07 803.44,-189.7 870.75,-192.91"/>
<polygon fill="midnightblue" stroke="midnightblue" points="870.71,-196.41 880.87,-193.39 871.05,-189.42 870.71,-196.41"/>
</g>
<!-- Node23&#45;&gt;Node21 -->
<g id="edge26" class="edge">
<title>Node23&#45;&gt;Node21</title>
<path fill="none" stroke="midnightblue" d="M633.99,-194.58C658.64,-202.93 689.47,-213.38 715.49,-222.2"/>
<polygon fill="midnightblue" stroke="midnightblue" points="714.61,-225.59 725.21,-225.49 716.86,-218.96 714.61,-225.59"/>
</g>
<!-- Node24 -->
<g id="node24" class="node">
<title>Node24</title>
<g id="a_node24"><a xlink:href="group__zwave__controller__utils.html#ga4b9cc899709547a170141ba7e0583e16" target="_top" xlink:title="Verifies if a CC is in a raw array of Command Classes.">
<polygon fill="none" stroke="black" points="714,-137.5 714,-167.5 827,-167.5 827,-137.5 714,-137.5"/>
<text text-anchor="start" x="722" y="-155.5" font-family="Helvetica,sans-Serif" font-size="10.00">is_command_class_in</text>
<text text-anchor="middle" x="770.5" y="-144.5" font-family="Helvetica,sans-Serif" font-size="10.00">_supported_list</text>
</a>
</g>
</g>
<!-- Node23&#45;&gt;Node24 -->
<g id="edge27" class="edge">
<title>Node23&#45;&gt;Node24</title>
<path fill="none" stroke="midnightblue" d="M645.96,-171.03C664.31,-168.28 684.84,-165.2 703.8,-162.35"/>
<polygon fill="midnightblue" stroke="midnightblue" points="704.49,-165.79 713.86,-160.85 703.45,-158.87 704.49,-165.79"/>
</g>
<!-- Node25&#45;&gt;Node24 -->
<g id="edge30" class="edge">
<title>Node25&#45;&gt;Node24</title>
<path fill="none" stroke="midnightblue" d="M661.68,-135.73C675.55,-137.89 690.01,-140.14 703.67,-142.26"/>
<polygon fill="midnightblue" stroke="midnightblue" points="703.52,-145.78 713.94,-143.86 704.59,-138.86 703.52,-145.78"/>
</g>
<!-- Node26 -->
<g id="node26" class="node">
<title>Node26</title>
<g id="a_node26"><a xlink:href="group__zwave__controller__storage.html#ga893570dd5418a9662eb5af8478580e6f" target="_top" xlink:title="Verify if the registered node is supporting S2.">
<polygon fill="none" stroke="black" points="706.5,-88.5 706.5,-118.5 834.5,-118.5 834.5,-88.5 706.5,-88.5"/>
<text text-anchor="start" x="714.5" y="-106.5" font-family="Helvetica,sans-Serif" font-size="10.00">zwave_controller_storage</text>
<text text-anchor="middle" x="770.5" y="-95.5" font-family="Helvetica,sans-Serif" font-size="10.00">_is_node_s2_capable</text>
</a>
</g>
</g>
<!-- Node25&#45;&gt;Node26 -->
<g id="edge31" class="edge">
<title>Node25&#45;&gt;Node26</title>
<path fill="none" stroke="midnightblue" d="M661.68,-116.08C673.1,-114.75 684.92,-113.37 696.36,-112.03"/>
<polygon fill="midnightblue" stroke="midnightblue" points="696.78,-115.51 706.31,-110.87 695.97,-108.56 696.78,-115.51"/>
</g>
<!-- Node27&#45;&gt;Node13 -->
<g id="edge33" class="edge">
<title>Node27&#45;&gt;Node13</title>
<path fill="none" stroke="midnightblue" d="M654.74,-277.65C668.42,-279.78 682.93,-282.03 696.86,-284.2"/>
<polygon fill="midnightblue" stroke="midnightblue" points="696.47,-287.68 706.89,-285.76 697.54,-280.76 696.47,-287.68"/>
</g>
<!-- Node28&#45;&gt;Node3 -->
<g id="edge36" class="edge">
<title>Node28&#45;&gt;Node3</title>
<path fill="none" stroke="midnightblue" d="M286.85,-568.02C304.43,-570.75 323.55,-573.71 340.96,-576.42"/>
<polygon fill="midnightblue" stroke="midnightblue" points="340.57,-579.9 350.99,-577.97 341.65,-572.98 340.57,-579.9"/>
</g>
<!-- Node29&#45;&gt;Node4 -->
<g id="edge38" class="edge">
<title>Node29&#45;&gt;Node4</title>
<path fill="none" stroke="midnightblue" d="M455.3,-665.4C475.58,-662.35 498.91,-658.84 520.27,-655.62"/>
<polygon fill="midnightblue" stroke="midnightblue" points="520.89,-659.07 530.25,-654.12 519.84,-652.15 520.89,-659.07"/>
</g>
<!-- Node30&#45;&gt;Node4 -->
<g id="edge41" class="edge">
<title>Node30&#45;&gt;Node4</title>
<path fill="none" stroke="midnightblue" d="M272.27,-528.89C279.03,-531.52 285.53,-534.97 291,-539.5 318.24,-562.07 298.15,-590.01 327,-610.5 357.17,-631.93 453.66,-640.25 520.33,-643.48"/>
<polygon fill="midnightblue" stroke="midnightblue" points="520.2,-646.97 530.35,-643.93 520.52,-639.98 520.2,-646.97"/>
</g>
<!-- Node31 -->
<g id="node31" class="node">
<title>Node31</title>
<g id="a_node31"><a xlink:href="group__zpc__attribute__store__network__helpers.html#ga00d73eba16badbaff8ea5e8e9f7038d1" target="_top" xlink:title="Traverse up the tree from a node and finds under which Z&#45;Wave endpoint id it is located.">
<polygon fill="none" stroke="black" points="339.5,-461 339.5,-502 461.5,-502 461.5,-461 339.5,-461"/>
<text text-anchor="start" x="347.5" y="-490" font-family="Helvetica,sans-Serif" font-size="10.00">attribute_store_network</text>
<text text-anchor="start" x="347.5" y="-479" font-family="Helvetica,sans-Serif" font-size="10.00">_helper_get_endpoint_id</text>
<text text-anchor="middle" x="400.5" y="-468" font-family="Helvetica,sans-Serif" font-size="10.00">_from_node</text>
</a>
</g>
</g>
<!-- Node30&#45;&gt;Node31 -->
<g id="edge40" class="edge">
<title>Node30&#45;&gt;Node31</title>
<path fill="none" stroke="midnightblue" d="M268.07,-510.96C286.57,-506.81 308.73,-501.85 329.54,-497.18"/>
<polygon fill="midnightblue" stroke="midnightblue" points="330.31,-500.59 339.31,-494.99 328.78,-493.76 330.31,-500.59"/>
</g>
<!-- Node32 -->
<g id="node32" class="node">
<title>Node32</title>
<g id="a_node32"><a xlink:href="group__multi__channel__command__class.html#gade4bedba5b31a19ca9d49a9c7890edfe" target="_top" xlink:title="Resolves a Non&#45;secure NIF for an Endpoint ID &gt; 0.">
<polygon fill="none" stroke="black" points="327,-521.5 327,-551.5 474,-551.5 474,-521.5 327,-521.5"/>
<text text-anchor="start" x="335" y="-539.5" font-family="Helvetica,sans-Serif" font-size="10.00">zwave_command_class</text>
<text text-anchor="middle" x="400.5" y="-528.5" font-family="Helvetica,sans-Serif" font-size="10.00">_multi_channel_capability_get</text>
</a>
</g>
</g>
<!-- Node30&#45;&gt;Node32 -->
<g id="edge42" class="edge">
<title>Node30&#45;&gt;Node32</title>
<path fill="none" stroke="midnightblue" d="M272.13,-524.79C285.92,-526.06 301.45,-527.48 316.8,-528.9"/>
<polygon fill="midnightblue" stroke="midnightblue" points="316.56,-532.39 326.84,-529.82 317.2,-525.42 316.56,-532.39"/>
</g>
<!-- Node33&#45;&gt;Node8 -->
<g id="edge47" class="edge">
<title>Node33&#45;&gt;Node8</title>
<path fill="none" stroke="midnightblue" d="M459.07,-442.1C464.49,-444.57 469.59,-447.65 474,-451.5 505.53,-479.01 479.25,-510.12 510,-538.5 511.69,-540.06 513.47,-541.52 515.34,-542.89"/>
<polygon fill="midnightblue" stroke="midnightblue" points="513.64,-545.95 523.96,-548.33 517.37,-540.03 513.64,-545.95"/>
</g>
<!-- Node33&#45;&gt;Node9 -->
<g id="edge48" class="edge">
<title>Node33&#45;&gt;Node9</title>
<path fill="none" stroke="midnightblue" d="M439.21,-442.07C450.43,-445.01 462.73,-448.3 474,-451.5 490.1,-456.07 493.86,-458.09 510,-462.5 579.25,-481.44 608.84,-458.41 667,-500.5 691.58,-518.29 679.42,-539.4 703,-558.5 704.57,-559.77 706.22,-560.98 707.93,-562.13"/>
<polygon fill="midnightblue" stroke="midnightblue" points="706.46,-565.33 716.85,-567.38 710,-559.29 706.46,-565.33"/>
</g>
<!-- Node33&#45;&gt;Node12 -->
<g id="edge49" class="edge">
<title>Node33&#45;&gt;Node12</title>
<path fill="none" stroke="midnightblue" d="M454.26,-442.1C461.2,-444.55 467.98,-447.63 474,-451.5 495.26,-465.15 489.04,-481.39 510,-495.5 516.57,-499.93 524,-503.57 531.58,-506.55"/>
<polygon fill="midnightblue" stroke="midnightblue" points="530.63,-509.93 541.23,-509.99 532.99,-503.33 530.63,-509.93"/>
</g>
<!-- Node34 -->
<g id="node34" class="node">
<title>Node34</title>
<g id="a_node34"><a xlink:href="group__zpc__attribute__store__network__helpers.html#ga715be25ab9c545f84ff524bc5a7eb7db" target="_top" xlink:title="Traverse up the tree from a node and finds under which Z&#45;Wave NodeID it is.">
<polygon fill="none" stroke="black" points="510,-362.5 510,-392.5 667,-392.5 667,-362.5 510,-362.5"/>
<text text-anchor="start" x="518" y="-380.5" font-family="Helvetica,sans-Serif" font-size="10.00">attribute_store_network</text>
<text text-anchor="middle" x="588.5" y="-369.5" font-family="Helvetica,sans-Serif" font-size="10.00">_helper_get_node_id_from_node</text>
</a>
</g>
</g>
<!-- Node33&#45;&gt;Node34 -->
<g id="edge44" class="edge">
<title>Node33&#45;&gt;Node34</title>
<path fill="none" stroke="midnightblue" d="M433.9,-422.92C459.44,-415.37 495.8,-404.62 526.72,-395.47"/>
<polygon fill="midnightblue" stroke="midnightblue" points="527.95,-398.76 536.55,-392.57 525.97,-392.04 527.95,-398.76"/>
</g>
<!-- Node35 -->
<g id="node35" class="node">
<title>Node35</title>
<g id="a_node35"><a xlink:href="group__security__0__command__class.html#ga559eb9ddddf8d8ecfbc9613e30953f31" target="_top" xlink:title="Writes down an S0 Supported Get Command to the frame/frame_length.">
<polygon fill="none" stroke="black" points="527.5,-302 527.5,-343 649.5,-343 649.5,-302 527.5,-302"/>
<text text-anchor="start" x="535.5" y="-331" font-family="Helvetica,sans-Serif" font-size="10.00">zwave_command_class</text>
<text text-anchor="start" x="535.5" y="-320" font-family="Helvetica,sans-Serif" font-size="10.00">_security_0_commands</text>
<text text-anchor="middle" x="588.5" y="-309" font-family="Helvetica,sans-Serif" font-size="10.00">_supported_get</text>
</a>
</g>
</g>
<!-- Node33&#45;&gt;Node35 -->
<g id="edge45" class="edge">
<title>Node33&#45;&gt;Node35</title>
<path fill="none" stroke="midnightblue" d="M412.54,-422.79C431.43,-406.55 471.64,-373.57 510,-352.5 513.22,-350.73 516.58,-349.01 520,-347.36"/>
<polygon fill="midnightblue" stroke="midnightblue" points="521.56,-350.49 529.17,-343.13 518.63,-344.14 521.56,-350.49"/>
</g>
<!-- Node36 -->
<g id="node36" class="node">
<title>Node36</title>
<g id="a_node36"><a xlink:href="group__security__2__command__class.html#ga41f799ed267cda8d478efe20e721cd2c" target="_top" xlink:title="Writes down an S2 Supported Get Command to the frame/frame_length.">
<polygon fill="none" stroke="black" points="527.5,-412 527.5,-453 649.5,-453 649.5,-412 527.5,-412"/>
<text text-anchor="start" x="535.5" y="-441" font-family="Helvetica,sans-Serif" font-size="10.00">zwave_command_class</text>
<text text-anchor="start" x="535.5" y="-430" font-family="Helvetica,sans-Serif" font-size="10.00">_security_2_commands</text>
<text text-anchor="middle" x="588.5" y="-419" font-family="Helvetica,sans-Serif" font-size="10.00">_supported_get</text>
</a>
</g>
</g>
<!-- Node33&#45;&gt;Node36 -->
<g id="edge46" class="edge">
<title>Node33&#45;&gt;Node36</title>
<path fill="none" stroke="midnightblue" d="M465.51,-432.5C482.13,-432.5 500.13,-432.5 517.06,-432.5"/>
<polygon fill="midnightblue" stroke="midnightblue" points="517.44,-436 527.44,-432.5 517.44,-429 517.44,-436"/>
</g>
</g>
</svg>
