<?xml version="1.0" encoding="UTF-8" standalone="no"?>
<!DOCTYPE svg PUBLIC "-//W3C//DTD SVG 1.1//EN"
 "http://www.w3.org/Graphics/SVG/1.1/DTD/svg11.dtd">
<!-- Generated by graphviz version 2.43.0 (0)
 -->
<!-- Title: zwave_tx_scheme_get_node_highest_security_class Pages: 1 -->
<svg width="320pt" height="88pt"
 viewBox="0.00 0.00 320.00 88.00" xmlns="http://www.w3.org/2000/svg" xmlns:xlink="http://www.w3.org/1999/xlink">
<g id="graph0" class="graph" transform="scale(1 1) rotate(0) translate(4 84)">
<title>zwave_tx_scheme_get_node_highest_security_class</title>
<!-- Node1 -->
<g id="node1" class="node">
<title>Node1</title>
<g id="a_node1"><a xlink:title="Return the Highest security Class of a NodeID.">
<polygon fill="#bfbfbf" stroke="black" points="0,-24.5 0,-54.5 148,-54.5 148,-24.5 0,-24.5"/>
<text text-anchor="start" x="8" y="-42.5" font-family="Helvetica,sans-Serif" font-size="10.00">zwave_tx_scheme_get</text>
<text text-anchor="middle" x="74" y="-31.5" font-family="Helvetica,sans-Serif" font-size="10.00">_node_highest_security_class</text>
</a>
</g>
</g>
<!-- Node2 -->
<g id="node2" class="node">
<title>Node2</title>
<g id="a_node2"><a xlink:href="group__zwave__controller__keyset.html#ga43a73c5ae7dc860fa2e5edb9814c432f" target="_top" xlink:title="Get the hight encapsulation supported by a given key set.">
<polygon fill="none" stroke="black" points="188.5,-49.5 188.5,-79.5 307.5,-79.5 307.5,-49.5 188.5,-49.5"/>
<text text-anchor="start" x="196.5" y="-67.5" font-family="Helvetica,sans-Serif" font-size="10.00">zwave_controller_get</text>
<text text-anchor="middle" x="248" y="-56.5" font-family="Helvetica,sans-Serif" font-size="10.00">_highest_encapsulation</text>
</a>
</g>
</g>
<!-- Node1&#45;&gt;Node2 -->
<g id="edge1" class="edge">
<title>Node1&#45;&gt;Node2</title>
<path fill="none" stroke="midnightblue" d="M148.44,-50.17C158.34,-51.61 168.46,-53.08 178.27,-54.51"/>
<polygon fill="midnightblue" stroke="midnightblue" points="177.95,-58 188.35,-55.98 178.96,-51.07 177.95,-58"/>
</g>
<!-- Node3 -->
<g id="node3" class="node">
<title>Node3</title>
<g id="a_node3"><a xlink:href="group__zwave__controller__storage.html#ga771d01deff646dfda3f8406d6fbf5736" target="_top" xlink:title="Return the granted keys for a node.">
<polygon fill="none" stroke="black" points="184,-0.5 184,-30.5 312,-30.5 312,-0.5 184,-0.5"/>
<text text-anchor="start" x="192" y="-18.5" font-family="Helvetica,sans-Serif" font-size="10.00">zwave_controller_storage</text>
<text text-anchor="middle" x="248" y="-7.5" font-family="Helvetica,sans-Serif" font-size="10.00">_get_node_granted_keys</text>
</a>
</g>
</g>
<!-- Node1&#45;&gt;Node3 -->
<g id="edge2" class="edge">
<title>Node1&#45;&gt;Node3</title>
<path fill="none" stroke="midnightblue" d="M148.44,-29.25C156.82,-28.08 165.35,-26.89 173.72,-25.72"/>
<polygon fill="midnightblue" stroke="midnightblue" points="174.41,-29.16 183.83,-24.31 173.44,-22.23 174.41,-29.16"/>
</g>
</g>
</svg>
