<?xml version="1.0" encoding="UTF-8" standalone="no"?>
<!DOCTYPE svg PUBLIC "-//W3C//DTD SVG 1.1//EN"
 "http://www.w3.org/Graphics/SVG/1.1/DTD/svg11.dtd">
<!-- Generated by graphviz version 2.43.0 (0)
 -->
<!-- Title: on_multicast_message_send_complete Pages: 1 -->
<svg width="561pt" height="57pt"
 viewBox="0.00 0.00 561.00 57.00" xmlns="http://www.w3.org/2000/svg" xmlns:xlink="http://www.w3.org/1999/xlink">
<g id="graph0" class="graph" transform="scale(1 1) rotate(0) translate(4 53)">
<title>on_multicast_message_send_complete</title>
<!-- Node1 -->
<g id="node1" class="node">
<title>Node1</title>
<g id="a_node1"><a xlink:title=" ">
<polygon fill="#bfbfbf" stroke="black" points="436,-0.5 436,-30.5 553,-30.5 553,-0.5 436,-0.5"/>
<text text-anchor="start" x="444" y="-18.5" font-family="Helvetica,sans-Serif" font-size="10.00">on_multicast_message</text>
<text text-anchor="middle" x="494.5" y="-7.5" font-family="Helvetica,sans-Serif" font-size="10.00">_send_complete</text>
</a>
</g>
</g>
<!-- Node1&#45;&gt;Node1 -->
<g id="edge4" class="edge">
<title>Node1&#45;&gt;Node1</title>
<path fill="none" stroke="midnightblue" d="M520.8,-40.96C517.53,-45.68 508.77,-49 494.5,-49 471.09,-49 462.49,-40.06 468.71,-30.66"/>
<polygon fill="midnightblue" stroke="midnightblue" points="524.28,-40.48 520.29,-30.66 517.29,-40.82 524.28,-40.48"/>
</g>
<!-- Node2 -->
<g id="node2" class="node">
<title>Node2</title>
<g id="a_node2"><a xlink:href="multicast__follow__ups__transport_8c.html#ad20e0ce7d5da14af7d8b379f42845af8" target="_top" xlink:title="Verifies if we want automatic singlecast follow&#45;up for a frame and schedule queueing these frames aut...">
<polygon fill="none" stroke="black" points="292,-0.5 292,-30.5 400,-30.5 400,-0.5 292,-0.5"/>
<text text-anchor="start" x="300" y="-18.5" font-family="Helvetica,sans-Serif" font-size="10.00">multicast_follow_ups</text>
<text text-anchor="middle" x="346" y="-7.5" font-family="Helvetica,sans-Serif" font-size="10.00">_send_data</text>
</a>
</g>
</g>
<!-- Node1&#45;&gt;Node2 -->
<g id="edge1" class="edge">
<title>Node1&#45;&gt;Node2</title>
<path fill="none" stroke="midnightblue" d="M425.37,-15.5C416.92,-15.5 408.37,-15.5 400.19,-15.5"/>
<polygon fill="midnightblue" stroke="midnightblue" points="425.6,-19 435.6,-15.5 425.6,-12 425.6,-19"/>
</g>
<!-- Node3 -->
<g id="node3" class="node">
<title>Node3</title>
<g id="a_node3"><a xlink:href="group__multicast__follow__up__transport.html#gaa29ae9f5d8ccc34d50cad0109e69411b" target="_top" xlink:title="Initialize the Multicast Follow&#45;Ups Transport *.">
<polygon fill="none" stroke="black" points="148,-0.5 148,-30.5 256,-30.5 256,-0.5 148,-0.5"/>
<text text-anchor="start" x="156" y="-18.5" font-family="Helvetica,sans-Serif" font-size="10.00">multicast_follow_ups</text>
<text text-anchor="middle" x="202" y="-7.5" font-family="Helvetica,sans-Serif" font-size="10.00">_transport_init</text>
</a>
</g>
</g>
<!-- Node2&#45;&gt;Node3 -->
<g id="edge2" class="edge">
<title>Node2&#45;&gt;Node3</title>
<path fill="none" stroke="midnightblue" d="M281.48,-15.5C273,-15.5 264.38,-15.5 256.11,-15.5"/>
<polygon fill="midnightblue" stroke="midnightblue" points="281.72,-19 291.72,-15.5 281.72,-12 281.72,-19"/>
</g>
<!-- Node4 -->
<g id="node4" class="node">
<title>Node4</title>
<g id="a_node4"><a xlink:href="group__zwave__transports__fixt.html#ga26fb2571e272a5094bd0320eca3a896d" target="_top" xlink:title="Setup fixture for Z&#45;Wave Transports.">
<polygon fill="none" stroke="black" points="0,-6 0,-25 112,-25 112,-6 0,-6"/>
<text text-anchor="middle" x="56" y="-13" font-family="Helvetica,sans-Serif" font-size="10.00">zwave_transports_init</text>
</a>
</g>
</g>
<!-- Node3&#45;&gt;Node4 -->
<g id="edge3" class="edge">
<title>Node3&#45;&gt;Node4</title>
<path fill="none" stroke="midnightblue" d="M137.64,-15.5C129.23,-15.5 120.66,-15.5 112.4,-15.5"/>
<polygon fill="midnightblue" stroke="midnightblue" points="137.79,-19 147.79,-15.5 137.79,-12 137.79,-19"/>
</g>
</g>
</svg>
