<?xml version="1.0" encoding="UTF-8" standalone="no"?>
<!DOCTYPE svg PUBLIC "-//W3C//DTD SVG 1.1//EN"
 "http://www.w3.org/Graphics/SVG/1.1/DTD/svg11.dtd">
<!-- Generated by graphviz version 2.43.0 (0)
 -->
<!-- Title: multicast_follow_ups_terminate_current_session Pages: 1 -->
<svg width="447pt" height="39pt"
 viewBox="0.00 0.00 447.00 39.00" xmlns="http://www.w3.org/2000/svg" xmlns:xlink="http://www.w3.org/1999/xlink">
<g id="graph0" class="graph" transform="scale(1 1) rotate(0) translate(4 35)">
<title>multicast_follow_ups_terminate_current_session</title>
<!-- Node1 -->
<g id="node1" class="node">
<title>Node1</title>
<g id="a_node1"><a xlink:title=" ">
<polygon fill="#bfbfbf" stroke="black" points="0,-0.5 0,-30.5 137,-30.5 137,-0.5 0,-0.5"/>
<text text-anchor="start" x="8" y="-18.5" font-family="Helvetica,sans-Serif" font-size="10.00">multicast_follow_ups</text>
<text text-anchor="middle" x="68.5" y="-7.5" font-family="Helvetica,sans-Serif" font-size="10.00">_terminate_current_session</text>
</a>
</g>
</g>
<!-- Node2 -->
<g id="node2" class="node">
<title>Node2</title>
<g id="a_node2"><a xlink:href="multicast__follow__ups__transport_8c.html#ac6c37112e34db0f1d6d598a07fb92070" target="_top" xlink:title=" ">
<polygon fill="none" stroke="black" points="173,-0.5 173,-30.5 281,-30.5 281,-0.5 173,-0.5"/>
<text text-anchor="start" x="181" y="-18.5" font-family="Helvetica,sans-Serif" font-size="10.00">multicast_follow_ups</text>
<text text-anchor="middle" x="227" y="-7.5" font-family="Helvetica,sans-Serif" font-size="10.00">_reset_state</text>
</a>
</g>
</g>
<!-- Node1&#45;&gt;Node2 -->
<g id="edge1" class="edge">
<title>Node1&#45;&gt;Node2</title>
<path fill="none" stroke="midnightblue" d="M137.23,-15.5C145.69,-15.5 154.31,-15.5 162.7,-15.5"/>
<polygon fill="midnightblue" stroke="midnightblue" points="162.78,-19 172.78,-15.5 162.78,-12 162.78,-19"/>
</g>
<!-- Node3 -->
<g id="node3" class="node">
<title>Node3</title>
<g id="a_node3"><a xlink:href="group__zwave__tx__groups.html#ga08693ca0195e6f5921a7065a733ca324" target="_top" xlink:title="Instructs the Z&#45;Wave TX Group that the list of NodeIDs part of a group can be modified.">
<polygon fill="none" stroke="black" points="317,-6 317,-25 439,-25 439,-6 317,-6"/>
<text text-anchor="middle" x="378" y="-13" font-family="Helvetica,sans-Serif" font-size="10.00">zwave_tx_unlock_group</text>
</a>
</g>
</g>
<!-- Node2&#45;&gt;Node3 -->
<g id="edge2" class="edge">
<title>Node2&#45;&gt;Node3</title>
<path fill="none" stroke="midnightblue" d="M281.37,-15.5C289.65,-15.5 298.32,-15.5 306.9,-15.5"/>
<polygon fill="midnightblue" stroke="midnightblue" points="306.91,-19 316.91,-15.5 306.91,-12 306.91,-19"/>
</g>
</g>
</svg>
