<?xml version="1.0" encoding="UTF-8" standalone="no"?>
<!DOCTYPE svg PUBLIC "-//W3C//DTD SVG 1.1//EN"
 "http://www.w3.org/Graphics/SVG/1.1/DTD/svg11.dtd">
<!-- Generated by graphviz version 2.43.0 (0)
 -->
<!-- Title: applications/zpc/components/zwave/zwave_transports/multicast_follow_ups_transport/src/multicast_follow_ups_transport.c Pages: 1 -->
<svg width="1493pt" height="553pt"
 viewBox="0.00 0.00 1493.00 553.00" xmlns="http://www.w3.org/2000/svg" xmlns:xlink="http://www.w3.org/1999/xlink">
<g id="graph0" class="graph" transform="scale(1 1) rotate(0) translate(4 549)">
<title>applications/zpc/components/zwave/zwave_transports/multicast_follow_ups_transport/src/multicast_follow_ups_transport.c</title>
<!-- Node1 -->
<g id="node1" class="node">
<title>Node1</title>
<g id="a_node1"><a xlink:title=" ">
<polygon fill="#bfbfbf" stroke="black" points="976.5,-492.5 976.5,-544.5 1155.5,-544.5 1155.5,-492.5 976.5,-492.5"/>
<text text-anchor="start" x="984.5" y="-532.5" font-family="Helvetica,sans-Serif" font-size="10.00">applications/zpc/components</text>
<text text-anchor="start" x="984.5" y="-521.5" font-family="Helvetica,sans-Serif" font-size="10.00">/zwave/zwave_transports</text>
<text text-anchor="start" x="984.5" y="-510.5" font-family="Helvetica,sans-Serif" font-size="10.00">/multicast_follow_ups_transport</text>
<text text-anchor="middle" x="1066" y="-499.5" font-family="Helvetica,sans-Serif" font-size="10.00">/src/multicast_follow_ups_transport.c</text>
</a>
</g>
</g>
<!-- Node2 -->
<g id="node2" class="node">
<title>Node2</title>
<g id="a_node2"><a xlink:href="multicast__follow__ups__transport_8h.html" target="_top" xlink:title=" ">
<polygon fill="none" stroke="black" points="332,-358.5 332,-388.5 440,-388.5 440,-358.5 332,-358.5"/>
<text text-anchor="start" x="340" y="-376.5" font-family="Helvetica,sans-Serif" font-size="10.00">multicast_follow_ups</text>
<text text-anchor="middle" x="386" y="-365.5" font-family="Helvetica,sans-Serif" font-size="10.00">_transport.h</text>
</a>
</g>
</g>
<!-- Node1&#45;&gt;Node2 -->
<g id="edge1" class="edge">
<title>Node1&#45;&gt;Node2</title>
<path fill="none" stroke="midnightblue" d="M976.11,-513.35C877.69,-507.15 715.89,-492.03 581,-456 523.48,-440.64 460.54,-412.01 422.16,-393.1"/>
<polygon fill="midnightblue" stroke="midnightblue" points="423.46,-389.84 412.95,-388.52 420.34,-396.11 423.46,-389.84"/>
</g>
<!-- Node5 -->
<g id="node5" class="node">
<title>Node5</title>
<g id="a_node5"><a xlink:title=" ">
<polygon fill="none" stroke="#bfbfbf" points="1023,-0.5 1023,-19.5 1079,-19.5 1079,-0.5 1023,-0.5"/>
<text text-anchor="middle" x="1051" y="-7.5" font-family="Helvetica,sans-Serif" font-size="10.00">stdbool.h</text>
</a>
</g>
</g>
<!-- Node1&#45;&gt;Node5 -->
<g id="edge4" class="edge">
<title>Node1&#45;&gt;Node5</title>
<path fill="none" stroke="midnightblue" d="M1106.42,-492.44C1183.7,-440.97 1342.04,-316.58 1310,-179 1293.3,-107.28 1265.02,-88.62 1199,-56 1163.42,-38.42 1119.59,-26.14 1088.9,-18.9"/>
<polygon fill="midnightblue" stroke="midnightblue" points="1089.56,-15.46 1079.03,-16.64 1087.99,-22.28 1089.56,-15.46"/>
</g>
<!-- Node6 -->
<g id="node6" class="node">
<title>Node6</title>
<g id="a_node6"><a xlink:title=" ">
<polygon fill="none" stroke="#bfbfbf" points="1227.5,-431 1227.5,-450 1276.5,-450 1276.5,-431 1227.5,-431"/>
<text text-anchor="middle" x="1252" y="-438" font-family="Helvetica,sans-Serif" font-size="10.00">string.h</text>
</a>
</g>
</g>
<!-- Node1&#45;&gt;Node6 -->
<g id="edge5" class="edge">
<title>Node1&#45;&gt;Node6</title>
<path fill="none" stroke="midnightblue" d="M1127.42,-492.4C1158.99,-479.5 1196.08,-464.35 1221.53,-453.95"/>
<polygon fill="midnightblue" stroke="midnightblue" points="1223.07,-457.1 1231.01,-450.08 1220.43,-450.62 1223.07,-457.1"/>
</g>
<!-- Node7 -->
<g id="node7" class="node">
<title>Node7</title>
<g id="a_node7"><a xlink:href="zwave__command__class__indices_8h.html" target="_top" xlink:title=" ">
<polygon fill="none" stroke="black" points="1295,-425.5 1295,-455.5 1417,-455.5 1417,-425.5 1295,-425.5"/>
<text text-anchor="start" x="1303" y="-443.5" font-family="Helvetica,sans-Serif" font-size="10.00">zwave_command_class</text>
<text text-anchor="middle" x="1356" y="-432.5" font-family="Helvetica,sans-Serif" font-size="10.00">_indices.h</text>
</a>
</g>
</g>
<!-- Node1&#45;&gt;Node7 -->
<g id="edge6" class="edge">
<title>Node1&#45;&gt;Node7</title>
<path fill="none" stroke="midnightblue" d="M1155.77,-493.97C1200.09,-482.36 1252.5,-468.62 1292.58,-458.12"/>
<polygon fill="midnightblue" stroke="midnightblue" points="1293.71,-461.44 1302.5,-455.52 1291.94,-454.67 1293.71,-461.44"/>
</g>
<!-- Node8 -->
<g id="node8" class="node">
<title>Node8</title>
<g id="a_node8"><a xlink:href="zwave__controller__connection__info_8h.html" target="_top" xlink:title=" ">
<polygon fill="none" stroke="black" points="608.5,-179.5 608.5,-209.5 751.5,-209.5 751.5,-179.5 608.5,-179.5"/>
<text text-anchor="start" x="616.5" y="-197.5" font-family="Helvetica,sans-Serif" font-size="10.00">zwave_controller_connection</text>
<text text-anchor="middle" x="680" y="-186.5" font-family="Helvetica,sans-Serif" font-size="10.00">_info.h</text>
</a>
</g>
</g>
<!-- Node1&#45;&gt;Node8 -->
<g id="edge7" class="edge">
<title>Node1&#45;&gt;Node8</title>
<path fill="none" stroke="midnightblue" d="M1013.65,-492.48C972.12,-468.58 921,-428.24 921,-374.5 921,-374.5 921,-374.5 921,-311 921,-271.51 814.42,-233.46 743.01,-212.4"/>
<polygon fill="midnightblue" stroke="midnightblue" points="743.77,-208.98 733.19,-209.55 741.81,-215.7 743.77,-208.98"/>
</g>
<!-- Node13 -->
<g id="node13" class="node">
<title>Node13</title>
<g id="a_node13"><a xlink:href="zwave__controller__transport_8h.html" target="_top" xlink:title=" ">
<polygon fill="none" stroke="black" points="590,-431 590,-450 732,-450 732,-431 590,-431"/>
<text text-anchor="middle" x="661" y="-438" font-family="Helvetica,sans-Serif" font-size="10.00">zwave_controller_transport.h</text>
</a>
</g>
</g>
<!-- Node1&#45;&gt;Node13 -->
<g id="edge17" class="edge">
<title>Node1&#45;&gt;Node13</title>
<path fill="none" stroke="midnightblue" d="M976.37,-500.68C896.92,-485.77 783.41,-464.47 716.45,-451.91"/>
<polygon fill="midnightblue" stroke="midnightblue" points="716.99,-448.45 706.52,-450.04 715.7,-455.33 716.99,-448.45"/>
</g>
<!-- Node21 -->
<g id="node21" class="node">
<title>Node21</title>
<g id="a_node21"><a xlink:href="zwapi__protocol__transport_8h.html" target="_top" xlink:title="Z&#45;Wave API for transport application layer interface.">
<polygon fill="none" stroke="black" points="1118,-185 1118,-204 1252,-204 1252,-185 1118,-185"/>
<text text-anchor="middle" x="1185" y="-192" font-family="Helvetica,sans-Serif" font-size="10.00">zwapi_protocol_transport.h</text>
</a>
</g>
</g>
<!-- Node1&#45;&gt;Node21 -->
<g id="edge70" class="edge">
<title>Node1&#45;&gt;Node21</title>
<path fill="none" stroke="midnightblue" d="M1072.25,-492.37C1078.75,-463.95 1088,-416.2 1088,-374.5 1088,-374.5 1088,-374.5 1088,-311 1088,-280.77 1089.84,-270.16 1108,-246 1120.2,-229.76 1139.26,-217.2 1155.36,-208.67"/>
<polygon fill="midnightblue" stroke="midnightblue" points="1157.07,-211.73 1164.43,-204.11 1153.92,-205.48 1157.07,-211.73"/>
</g>
<!-- Node22 -->
<g id="node22" class="node">
<title>Node22</title>
<g id="a_node22"><a xlink:href="zwave__tx_8h.html" target="_top" xlink:title=" ">
<polygon fill="none" stroke="black" points="949.5,-246.5 949.5,-265.5 1016.5,-265.5 1016.5,-246.5 949.5,-246.5"/>
<text text-anchor="middle" x="983" y="-253.5" font-family="Helvetica,sans-Serif" font-size="10.00">zwave_tx.h</text>
</a>
</g>
</g>
<!-- Node1&#45;&gt;Node22 -->
<g id="edge66" class="edge">
<title>Node1&#45;&gt;Node22</title>
<path fill="none" stroke="midnightblue" d="M1057.89,-492.05C1041.23,-439.77 1003.51,-321.38 988.92,-275.58"/>
<polygon fill="midnightblue" stroke="midnightblue" points="992.18,-274.27 985.81,-265.81 985.51,-276.4 992.18,-274.27"/>
</g>
<!-- Node26 -->
<g id="node26" class="node">
<title>Node26</title>
<g id="a_node26"><a xlink:href="zwave__controller__internal_8h.html" target="_top" xlink:title=" ">
<polygon fill="none" stroke="black" points="757.5,-431 757.5,-450 892.5,-450 892.5,-431 757.5,-431"/>
<text text-anchor="middle" x="825" y="-438" font-family="Helvetica,sans-Serif" font-size="10.00">zwave_controller_internal.h</text>
</a>
</g>
</g>
<!-- Node1&#45;&gt;Node26 -->
<g id="edge56" class="edge">
<title>Node1&#45;&gt;Node26</title>
<path fill="none" stroke="midnightblue" d="M986.42,-492.4C944.42,-479.16 894.9,-463.54 861.89,-453.13"/>
<polygon fill="midnightblue" stroke="midnightblue" points="862.79,-449.75 852.2,-450.08 860.69,-456.42 862.79,-449.75"/>
</g>
<!-- Node27 -->
<g id="node27" class="node">
<title>Node27</title>
<g id="a_node27"><a xlink:href="zwapi__protocol__controller_8h.html" target="_top" xlink:title="Z&#45;Wave API for Z&#45;Wave controllers (network setup and maintenance)">
<polygon fill="none" stroke="black" points="1117,-246.5 1117,-265.5 1251,-265.5 1251,-246.5 1117,-246.5"/>
<text text-anchor="middle" x="1184" y="-253.5" font-family="Helvetica,sans-Serif" font-size="10.00">zwapi_protocol_controller.h</text>
</a>
</g>
</g>
<!-- Node1&#45;&gt;Node27 -->
<g id="edge71" class="edge">
<title>Node1&#45;&gt;Node27</title>
<path fill="none" stroke="midnightblue" d="M1081.87,-492.2C1088.46,-481.26 1095.96,-468.19 1102,-456 1134.19,-391.07 1164.67,-310.31 1177.55,-274.97"/>
<polygon fill="midnightblue" stroke="midnightblue" points="1180.86,-276.12 1180.97,-265.53 1174.28,-273.74 1180.86,-276.12"/>
</g>
<!-- Node28 -->
<g id="node28" class="node">
<title>Node28</title>
<g id="a_node28"><a xlink:href="zwave__tx__groups_8h.html" target="_top" xlink:title=" ">
<polygon fill="none" stroke="black" points="218.5,-185 218.5,-204 319.5,-204 319.5,-185 218.5,-185"/>
<text text-anchor="middle" x="269" y="-192" font-family="Helvetica,sans-Serif" font-size="10.00">zwave_tx_groups.h</text>
</a>
</g>
</g>
<!-- Node1&#45;&gt;Node28 -->
<g id="edge67" class="edge">
<title>Node1&#45;&gt;Node28</title>
<path fill="none" stroke="midnightblue" d="M976.04,-514.79C861.7,-509.79 658.89,-495.65 490,-456 388.49,-432.17 270,-478.77 270,-374.5 270,-374.5 270,-374.5 270,-311 270,-276.86 269.56,-237.05 269.26,-214.21"/>
<polygon fill="midnightblue" stroke="midnightblue" points="272.76,-214.15 269.13,-204.19 265.76,-214.24 272.76,-214.15"/>
</g>
<!-- Node29 -->
<g id="node29" class="node">
<title>Node29</title>
<g id="a_node29"><a xlink:title=" ">
<polygon fill="none" stroke="#bfbfbf" points="1435,-431 1435,-450 1485,-450 1485,-431 1435,-431"/>
<text text-anchor="middle" x="1460" y="-438" font-family="Helvetica,sans-Serif" font-size="10.00">sl_log.h</text>
</a>
</g>
</g>
<!-- Node1&#45;&gt;Node29 -->
<g id="edge72" class="edge">
<title>Node1&#45;&gt;Node29</title>
<path fill="none" stroke="midnightblue" d="M1155.72,-508.09C1229.36,-498.96 1335.82,-482.53 1426,-456 1428.15,-455.37 1430.35,-454.64 1432.54,-453.85"/>
<polygon fill="midnightblue" stroke="midnightblue" points="1433.93,-457.06 1441.94,-450.13 1431.35,-450.55 1433.93,-457.06"/>
</g>
<!-- Node3 -->
<g id="node3" class="node">
<title>Node3</title>
<g id="a_node3"><a xlink:href="sl__status_8h.html" target="_top" xlink:title="SL Status Codes.">
<polygon fill="none" stroke="black" points="762.5,-118 762.5,-137 827.5,-137 827.5,-118 762.5,-118"/>
<text text-anchor="middle" x="795" y="-125" font-family="Helvetica,sans-Serif" font-size="10.00">sl_status.h</text>
</a>
</g>
</g>
<!-- Node2&#45;&gt;Node3 -->
<g id="edge2" class="edge">
<title>Node2&#45;&gt;Node3</title>
<path fill="none" stroke="midnightblue" d="M382.15,-358.36C373.37,-322.63 356.2,-228.06 405,-179 459.83,-123.88 677.09,-159.8 753,-143 756.42,-142.24 759.94,-141.3 763.43,-140.26"/>
<polygon fill="midnightblue" stroke="midnightblue" points="764.61,-143.56 773.04,-137.14 762.45,-136.9 764.61,-143.56"/>
</g>
<!-- Node4 -->
<g id="node4" class="node">
<title>Node4</title>
<g id="a_node4"><a xlink:title=" ">
<polygon fill="none" stroke="#bfbfbf" points="678.5,-0.5 678.5,-19.5 727.5,-19.5 727.5,-0.5 678.5,-0.5"/>
<text text-anchor="middle" x="703" y="-7.5" font-family="Helvetica,sans-Serif" font-size="10.00">stdint.h</text>
</a>
</g>
</g>
<!-- Node3&#45;&gt;Node4 -->
<g id="edge3" class="edge">
<title>Node3&#45;&gt;Node4</title>
<path fill="none" stroke="midnightblue" d="M786.28,-117.91C776.53,-108.13 760.46,-91.49 748,-76 735.54,-60.51 722.77,-41.74 714.04,-28.36"/>
<polygon fill="midnightblue" stroke="midnightblue" points="716.81,-26.2 708.45,-19.7 710.93,-30 716.81,-26.2"/>
</g>
<!-- Node9 -->
<g id="node9" class="node">
<title>Node9</title>
<g id="a_node9"><a xlink:href="zwave__controller__types_8h.html" target="_top" xlink:title=" ">
<polygon fill="none" stroke="black" points="616,-118 616,-137 744,-137 744,-118 616,-118"/>
<text text-anchor="middle" x="680" y="-125" font-family="Helvetica,sans-Serif" font-size="10.00">zwave_controller_types.h</text>
</a>
</g>
</g>
<!-- Node8&#45;&gt;Node9 -->
<g id="edge8" class="edge">
<title>Node8&#45;&gt;Node9</title>
<path fill="none" stroke="midnightblue" d="M680,-179.4C680,-170.06 680,-157.71 680,-147.52"/>
<polygon fill="midnightblue" stroke="midnightblue" points="683.5,-147.19 680,-137.19 676.5,-147.19 683.5,-147.19"/>
</g>
<!-- Node9&#45;&gt;Node4 -->
<g id="edge10" class="edge">
<title>Node9&#45;&gt;Node4</title>
<path fill="none" stroke="midnightblue" d="M681.73,-117.82C685.44,-99.17 694.25,-54.94 699.29,-29.63"/>
<polygon fill="midnightblue" stroke="midnightblue" points="702.73,-30.27 701.25,-19.78 695.87,-28.91 702.73,-30.27"/>
</g>
<!-- Node9&#45;&gt;Node5 -->
<g id="edge9" class="edge">
<title>Node9&#45;&gt;Node5</title>
<path fill="none" stroke="midnightblue" d="M704.42,-117.92C731.45,-108.28 776.18,-91.89 814,-76 833.43,-67.83 837.07,-62.86 857,-56 909.82,-37.81 973.24,-24.66 1012.84,-17.43"/>
<polygon fill="midnightblue" stroke="midnightblue" points="1013.64,-20.84 1022.86,-15.63 1012.4,-13.95 1013.64,-20.84"/>
</g>
<!-- Node10 -->
<g id="node10" class="node">
<title>Node10</title>
<g id="a_node10"><a xlink:href="zwave__node__id__definitions_8h.html" target="_top" xlink:title=" ">
<polygon fill="none" stroke="black" points="980,-56.5 980,-75.5 1122,-75.5 1122,-56.5 980,-56.5"/>
<text text-anchor="middle" x="1051" y="-63.5" font-family="Helvetica,sans-Serif" font-size="10.00">zwave_node_id_definitions.h</text>
</a>
</g>
</g>
<!-- Node9&#45;&gt;Node10 -->
<g id="edge11" class="edge">
<title>Node9&#45;&gt;Node10</title>
<path fill="none" stroke="midnightblue" d="M721.82,-117.98C732.31,-115.93 743.55,-113.81 754,-112 830.74,-98.67 919.04,-85.58 979.28,-76.98"/>
<polygon fill="midnightblue" stroke="midnightblue" points="980.03,-80.41 989.44,-75.54 979.05,-73.48 980.03,-80.41"/>
</g>
<!-- Node11 -->
<g id="node11" class="node">
<title>Node11</title>
<g id="a_node11"><a xlink:href="zwave__generic__types_8h.html" target="_top" xlink:title=" ">
<polygon fill="none" stroke="black" points="152.5,-56.5 152.5,-75.5 271.5,-75.5 271.5,-56.5 152.5,-56.5"/>
<text text-anchor="middle" x="212" y="-63.5" font-family="Helvetica,sans-Serif" font-size="10.00">zwave_generic_types.h</text>
</a>
</g>
</g>
<!-- Node9&#45;&gt;Node11 -->
<g id="edge13" class="edge">
<title>Node9&#45;&gt;Node11</title>
<path fill="none" stroke="midnightblue" d="M639.94,-117.92C629.27,-115.81 617.72,-113.67 607,-112 493.77,-94.33 361.25,-80.65 282.1,-73.22"/>
<polygon fill="midnightblue" stroke="midnightblue" points="282.05,-69.7 271.76,-72.26 281.4,-76.67 282.05,-69.7"/>
</g>
<!-- Node12 -->
<g id="node12" class="node">
<title>Node12</title>
<g id="a_node12"><a xlink:href="zwave__rf__region_8h.html" target="_top" xlink:title=" ">
<polygon fill="none" stroke="black" points="866,-56.5 866,-75.5 962,-75.5 962,-56.5 866,-56.5"/>
<text text-anchor="middle" x="914" y="-63.5" font-family="Helvetica,sans-Serif" font-size="10.00">zwave_rf_region.h</text>
</a>
</g>
</g>
<!-- Node9&#45;&gt;Node12 -->
<g id="edge15" class="edge">
<title>Node9&#45;&gt;Node12</title>
<path fill="none" stroke="midnightblue" d="M713.53,-117.98C754.88,-107.46 825.27,-89.56 870.68,-78.01"/>
<polygon fill="midnightblue" stroke="midnightblue" points="871.71,-81.37 880.54,-75.51 869.98,-74.58 871.71,-81.37"/>
</g>
<!-- Node10&#45;&gt;Node4 -->
<g id="edge12" class="edge">
<title>Node10&#45;&gt;Node4</title>
<path fill="none" stroke="midnightblue" d="M995.86,-56.44C923.54,-45.22 798.75,-25.86 738.11,-16.45"/>
<polygon fill="midnightblue" stroke="midnightblue" points="738.32,-12.94 727.91,-14.86 737.25,-19.86 738.32,-12.94"/>
</g>
<!-- Node11&#45;&gt;Node4 -->
<g id="edge14" class="edge">
<title>Node11&#45;&gt;Node4</title>
<path fill="none" stroke="midnightblue" d="M271.72,-58.43C375.4,-47.03 585.58,-23.91 668.37,-14.81"/>
<polygon fill="midnightblue" stroke="midnightblue" points="668.94,-18.27 678.5,-13.69 668.18,-11.31 668.94,-18.27"/>
</g>
<!-- Node12&#45;&gt;Node5 -->
<g id="edge16" class="edge">
<title>Node12&#45;&gt;Node5</title>
<path fill="none" stroke="midnightblue" d="M935.71,-56.44C958.35,-47.52 994.07,-33.44 1019.75,-23.32"/>
<polygon fill="midnightblue" stroke="midnightblue" points="1021.37,-26.44 1029.39,-19.52 1018.81,-19.93 1021.37,-26.44"/>
</g>
<!-- Node14 -->
<g id="node14" class="node">
<title>Node14</title>
<g id="a_node14"><a xlink:href="zwave__controller_8h.html" target="_top" xlink:title=" ">
<polygon fill="none" stroke="black" points="612,-364 612,-383 710,-383 710,-364 612,-364"/>
<text text-anchor="middle" x="661" y="-371" font-family="Helvetica,sans-Serif" font-size="10.00">zwave_controller.h</text>
</a>
</g>
</g>
<!-- Node13&#45;&gt;Node14 -->
<g id="edge18" class="edge">
<title>Node13&#45;&gt;Node14</title>
<path fill="none" stroke="midnightblue" d="M661,-430.73C661,-421.18 661,-405.62 661,-393.28"/>
<polygon fill="midnightblue" stroke="midnightblue" points="664.5,-393.13 661,-383.13 657.5,-393.13 664.5,-393.13"/>
</g>
<!-- Node13&#45;&gt;Node22 -->
<g id="edge43" class="edge">
<title>Node13&#45;&gt;Node22</title>
<path fill="none" stroke="midnightblue" d="M676.1,-430.94C727.54,-401.78 896.27,-306.16 959.12,-270.53"/>
<polygon fill="midnightblue" stroke="midnightblue" points="960.96,-273.51 967.93,-265.54 957.51,-267.42 960.96,-273.51"/>
</g>
<!-- Node25 -->
<g id="node25" class="node">
<title>Node25</title>
<g id="a_node25"><a xlink:href="zwave__command__class__version__types_8h.html" target="_top" xlink:title=" ">
<polygon fill="none" stroke="black" points="472,-358.5 472,-388.5 594,-388.5 594,-358.5 472,-358.5"/>
<text text-anchor="start" x="480" y="-376.5" font-family="Helvetica,sans-Serif" font-size="10.00">zwave_command_class</text>
<text text-anchor="middle" x="533" y="-365.5" font-family="Helvetica,sans-Serif" font-size="10.00">_version_types.h</text>
</a>
</g>
</g>
<!-- Node13&#45;&gt;Node25 -->
<g id="edge55" class="edge">
<title>Node13&#45;&gt;Node25</title>
<path fill="none" stroke="midnightblue" d="M644,-430.87C625.19,-421.31 594.3,-405.63 569.87,-393.22"/>
<polygon fill="midnightblue" stroke="midnightblue" points="571.37,-390.06 560.87,-388.65 568.2,-396.3 571.37,-390.06"/>
</g>
<!-- Node15 -->
<g id="node15" class="node">
<title>Node15</title>
<g id="a_node15"><a xlink:href="zwave__network__management_8h.html" target="_top" xlink:title=" ">
<polygon fill="none" stroke="black" points="79.5,-302.5 79.5,-321.5 234.5,-321.5 234.5,-302.5 79.5,-302.5"/>
<text text-anchor="middle" x="157" y="-309.5" font-family="Helvetica,sans-Serif" font-size="10.00">zwave_network_management.h</text>
</a>
</g>
</g>
<!-- Node14&#45;&gt;Node15 -->
<g id="edge19" class="edge">
<title>Node14&#45;&gt;Node15</title>
<path fill="none" stroke="midnightblue" d="M630.47,-363.99C621.66,-361.77 612,-359.57 603,-358 479.72,-336.49 335.34,-324.25 245.01,-318.12"/>
<polygon fill="midnightblue" stroke="midnightblue" points="245.02,-314.61 234.81,-317.43 244.56,-321.59 245.02,-314.61"/>
</g>
<!-- Node19 -->
<g id="node19" class="node">
<title>Node19</title>
<g id="a_node19"><a xlink:href="zwave__controller__callbacks_8h.html" target="_top" xlink:title=" ">
<polygon fill="none" stroke="black" points="620.5,-302.5 620.5,-321.5 765.5,-321.5 765.5,-302.5 620.5,-302.5"/>
<text text-anchor="middle" x="693" y="-309.5" font-family="Helvetica,sans-Serif" font-size="10.00">zwave_controller_callbacks.h</text>
</a>
</g>
</g>
<!-- Node14&#45;&gt;Node19 -->
<g id="edge32" class="edge">
<title>Node14&#45;&gt;Node19</title>
<path fill="none" stroke="midnightblue" d="M665.58,-363.98C670.24,-355.32 677.59,-341.65 683.51,-330.65"/>
<polygon fill="midnightblue" stroke="midnightblue" points="686.77,-331.97 688.42,-321.51 680.6,-328.66 686.77,-331.97"/>
</g>
<!-- Node15&#45;&gt;Node3 -->
<g id="edge31" class="edge">
<title>Node15&#45;&gt;Node3</title>
<path fill="none" stroke="midnightblue" d="M172.35,-302.48C202.58,-285.59 271.82,-246.3 328,-210 348.09,-197.02 349.56,-187.29 372,-179 531.54,-120.04 586.77,-179.01 753,-143 756.5,-142.24 760.11,-141.28 763.68,-140.22"/>
<polygon fill="midnightblue" stroke="midnightblue" points="765.06,-143.45 773.48,-137.03 762.89,-136.79 765.06,-143.45"/>
</g>
<!-- Node15&#45;&gt;Node4 -->
<g id="edge20" class="edge">
<title>Node15&#45;&gt;Node4</title>
<path fill="none" stroke="midnightblue" d="M123.32,-302.49C77.19,-288.59 0,-256.24 0,-195.5 0,-195.5 0,-195.5 0,-126.5 0,-55.64 74.69,-74.84 143,-56 242.77,-28.48 561.94,-15.66 668.21,-12.08"/>
<polygon fill="midnightblue" stroke="midnightblue" points="668.51,-15.58 678.39,-11.75 668.28,-8.58 668.51,-15.58"/>
</g>
<!-- Node15&#45;&gt;Node5 -->
<g id="edge21" class="edge">
<title>Node15&#45;&gt;Node5</title>
<path fill="none" stroke="midnightblue" d="M155.97,-302.39C153.69,-278.85 150.89,-212.9 186,-179 307.31,-61.87 861.18,-21.89 1012.63,-13.04"/>
<polygon fill="midnightblue" stroke="midnightblue" points="1013.04,-16.52 1022.82,-12.46 1012.64,-9.54 1013.04,-16.52"/>
</g>
<!-- Node15&#45;&gt;Node9 -->
<g id="edge22" class="edge">
<title>Node15&#45;&gt;Node9</title>
<path fill="none" stroke="midnightblue" d="M159.13,-302.41C165.95,-275.66 188,-194.73 209,-179 280.08,-125.76 519.1,-155.67 607,-143 614.82,-141.87 623.08,-140.46 631.11,-138.95"/>
<polygon fill="midnightblue" stroke="midnightblue" points="631.96,-142.35 641.11,-137.02 630.63,-135.48 631.96,-142.35"/>
</g>
<!-- Node15&#45;&gt;Node11 -->
<g id="edge23" class="edge">
<title>Node15&#45;&gt;Node11</title>
<path fill="none" stroke="midnightblue" d="M143.98,-302.31C122.09,-286.82 78.68,-252.07 62,-210 45.95,-169.51 36,-146.94 62,-112 80.59,-87.01 112.58,-75.38 142.25,-70.15"/>
<polygon fill="midnightblue" stroke="midnightblue" points="142.85,-73.6 152.2,-68.61 141.78,-66.68 142.85,-73.6"/>
</g>
<!-- Node16 -->
<g id="node16" class="node">
<title>Node16</title>
<g id="a_node16"><a xlink:href="zwave__network__management__types_8h.html" target="_top" xlink:title=" ">
<polygon fill="none" stroke="black" points="452,-112.5 452,-142.5 598,-142.5 598,-112.5 452,-112.5"/>
<text text-anchor="start" x="460" y="-130.5" font-family="Helvetica,sans-Serif" font-size="10.00">zwave_network_management</text>
<text text-anchor="middle" x="525" y="-119.5" font-family="Helvetica,sans-Serif" font-size="10.00">_types.h</text>
</a>
</g>
</g>
<!-- Node15&#45;&gt;Node16 -->
<g id="edge24" class="edge">
<title>Node15&#45;&gt;Node16</title>
<path fill="none" stroke="midnightblue" d="M155.16,-302.41C150.69,-278.92 141.96,-213.07 176,-179 212.24,-142.74 350.42,-132.31 441.66,-129.43"/>
<polygon fill="midnightblue" stroke="midnightblue" points="441.82,-132.93 451.71,-129.14 441.62,-125.93 441.82,-132.93"/>
</g>
<!-- Node17 -->
<g id="node17" class="node">
<title>Node17</title>
<g id="a_node17"><a xlink:href="zwave__controller__keyset_8h.html" target="_top" xlink:title=" ">
<polygon fill="none" stroke="black" points="414.5,-246.5 414.5,-265.5 547.5,-265.5 547.5,-246.5 414.5,-246.5"/>
<text text-anchor="middle" x="481" y="-253.5" font-family="Helvetica,sans-Serif" font-size="10.00">zwave_controller_keyset.h</text>
</a>
</g>
</g>
<!-- Node15&#45;&gt;Node17 -->
<g id="edge27" class="edge">
<title>Node15&#45;&gt;Node17</title>
<path fill="none" stroke="midnightblue" d="M208.34,-302.44C265.81,-292.87 358.87,-277.36 420,-267.17"/>
<polygon fill="midnightblue" stroke="midnightblue" points="420.61,-270.61 429.9,-265.52 419.46,-263.71 420.61,-270.61"/>
</g>
<!-- Node16&#45;&gt;Node4 -->
<g id="edge26" class="edge">
<title>Node16&#45;&gt;Node4</title>
<path fill="none" stroke="midnightblue" d="M546.83,-112.34C580.94,-90.2 646.53,-47.64 680.84,-25.38"/>
<polygon fill="midnightblue" stroke="midnightblue" points="683.16,-28.05 689.64,-19.67 679.35,-22.18 683.16,-28.05"/>
</g>
<!-- Node16&#45;&gt;Node5 -->
<g id="edge25" class="edge">
<title>Node16&#45;&gt;Node5</title>
<path fill="none" stroke="midnightblue" d="M578.87,-112.48C636.77,-97.61 731.6,-73.86 814,-56 883.83,-40.86 965.84,-25.92 1012.78,-17.63"/>
<polygon fill="midnightblue" stroke="midnightblue" points="1013.57,-21.04 1022.81,-15.87 1012.36,-14.15 1013.57,-21.04"/>
</g>
<!-- Node17&#45;&gt;Node8 -->
<g id="edge28" class="edge">
<title>Node17&#45;&gt;Node8</title>
<path fill="none" stroke="midnightblue" d="M509.51,-246.48C539.11,-237.63 586.19,-223.55 623.38,-212.43"/>
<polygon fill="midnightblue" stroke="midnightblue" points="624.52,-215.74 633.1,-209.52 622.52,-209.03 624.52,-215.74"/>
</g>
<!-- Node18 -->
<g id="node18" class="node">
<title>Node18</title>
<g id="a_node18"><a xlink:href="zwave__keyset__definitions_8h.html" target="_top" xlink:title=" ">
<polygon fill="none" stroke="black" points="414.5,-185 414.5,-204 551.5,-204 551.5,-185 414.5,-185"/>
<text text-anchor="middle" x="483" y="-192" font-family="Helvetica,sans-Serif" font-size="10.00">zwave_keyset_definitions.h</text>
</a>
</g>
</g>
<!-- Node17&#45;&gt;Node18 -->
<g id="edge29" class="edge">
<title>Node17&#45;&gt;Node18</title>
<path fill="none" stroke="midnightblue" d="M481.29,-246.48C481.57,-238.08 482.01,-224.98 482.37,-214.16"/>
<polygon fill="midnightblue" stroke="midnightblue" points="485.88,-214.12 482.71,-204.01 478.88,-213.89 485.88,-214.12"/>
</g>
<!-- Node18&#45;&gt;Node4 -->
<g id="edge30" class="edge">
<title>Node18&#45;&gt;Node4</title>
<path fill="none" stroke="midnightblue" d="M473.02,-184.97C456.31,-169.64 426.09,-136.71 443,-112 494.23,-37.13 609.72,-17.75 667.98,-12.74"/>
<polygon fill="midnightblue" stroke="midnightblue" points="668.46,-16.22 678.17,-11.96 667.93,-9.24 668.46,-16.22"/>
</g>
<!-- Node19&#45;&gt;Node11 -->
<g id="edge37" class="edge">
<title>Node19&#45;&gt;Node11</title>
<path fill="none" stroke="midnightblue" d="M620.45,-307.14C497.74,-298.88 257.78,-274.67 209,-210 181.29,-173.26 195.27,-114.77 205.1,-85.28"/>
<polygon fill="midnightblue" stroke="midnightblue" points="208.53,-86.1 208.57,-75.5 201.93,-83.75 208.53,-86.1"/>
</g>
<!-- Node19&#45;&gt;Node16 -->
<g id="edge35" class="edge">
<title>Node19&#45;&gt;Node16</title>
<path fill="none" stroke="midnightblue" d="M679.33,-302.27C666.63,-293.81 647.52,-280.2 633,-266 613.18,-246.62 566.65,-184.88 541.63,-151.11"/>
<polygon fill="midnightblue" stroke="midnightblue" points="544.23,-148.74 535.47,-142.77 538.6,-152.9 544.23,-148.74"/>
</g>
<!-- Node19&#45;&gt;Node18 -->
<g id="edge36" class="edge">
<title>Node19&#45;&gt;Node18</title>
<path fill="none" stroke="midnightblue" d="M673.86,-302.37C654.88,-293.65 625.08,-279.58 600,-266 566.28,-247.73 528.47,-224.41 505.2,-209.71"/>
<polygon fill="midnightblue" stroke="midnightblue" points="506.77,-206.56 496.45,-204.16 503.02,-212.47 506.77,-206.56"/>
</g>
<!-- Node20 -->
<g id="node20" class="node">
<title>Node20</title>
<g id="a_node20"><a xlink:href="zwave__rx__definitions_8h.html" target="_top" xlink:title=" ">
<polygon fill="none" stroke="black" points="642,-246.5 642,-265.5 758,-265.5 758,-246.5 642,-246.5"/>
<text text-anchor="middle" x="700" y="-253.5" font-family="Helvetica,sans-Serif" font-size="10.00">zwave_rx_definitions.h</text>
</a>
</g>
</g>
<!-- Node19&#45;&gt;Node20 -->
<g id="edge33" class="edge">
<title>Node19&#45;&gt;Node20</title>
<path fill="none" stroke="midnightblue" d="M694.16,-302.08C695.08,-294.93 696.42,-284.64 697.58,-275.69"/>
<polygon fill="midnightblue" stroke="midnightblue" points="701.05,-276.12 698.87,-265.75 694.11,-275.22 701.05,-276.12"/>
</g>
<!-- Node19&#45;&gt;Node21 -->
<g id="edge38" class="edge">
<title>Node19&#45;&gt;Node21</title>
<path fill="none" stroke="midnightblue" d="M765.65,-307.11C833.93,-302.07 938.43,-290.79 1026,-266 1032.72,-264.1 1112.77,-228.12 1156.65,-208.32"/>
<polygon fill="midnightblue" stroke="midnightblue" points="1158.26,-211.43 1165.94,-204.12 1155.38,-205.05 1158.26,-211.43"/>
</g>
<!-- Node20&#45;&gt;Node8 -->
<g id="edge34" class="edge">
<title>Node20&#45;&gt;Node8</title>
<path fill="none" stroke="midnightblue" d="M697.13,-246.48C694.73,-239.32 691.18,-228.75 687.93,-219.08"/>
<polygon fill="midnightblue" stroke="midnightblue" points="691.22,-217.89 684.71,-209.52 684.58,-220.12 691.22,-217.89"/>
</g>
<!-- Node21&#45;&gt;Node3 -->
<g id="edge41" class="edge">
<title>Node21&#45;&gt;Node3</title>
<path fill="none" stroke="midnightblue" d="M1141.23,-184.92C1130.69,-182.92 1119.45,-180.84 1109,-179 1012.1,-161.97 897.96,-144.18 837.53,-134.94"/>
<polygon fill="midnightblue" stroke="midnightblue" points="838.01,-131.47 827.6,-133.42 836.96,-138.39 838.01,-131.47"/>
</g>
<!-- Node21&#45;&gt;Node4 -->
<g id="edge39" class="edge">
<title>Node21&#45;&gt;Node4</title>
<path fill="none" stroke="midnightblue" d="M1184.55,-184.94C1182.74,-160.25 1173.85,-88.62 1131,-56 1099.91,-32.34 833.92,-17.3 737.62,-12.59"/>
<polygon fill="midnightblue" stroke="midnightblue" points="737.68,-9.09 727.53,-12.11 737.35,-16.08 737.68,-9.09"/>
</g>
<!-- Node21&#45;&gt;Node5 -->
<g id="edge40" class="edge">
<title>Node21&#45;&gt;Node5</title>
<path fill="none" stroke="midnightblue" d="M1186.89,-184.67C1189.77,-169.41 1194.12,-137.33 1186,-112 1176.67,-82.87 1169.46,-75.62 1146,-56 1128.83,-41.64 1106.31,-30.72 1087.51,-23.23"/>
<polygon fill="midnightblue" stroke="midnightblue" points="1088.65,-19.92 1078.06,-19.62 1086.16,-26.46 1088.65,-19.92"/>
</g>
<!-- Node21&#45;&gt;Node10 -->
<g id="edge42" class="edge">
<title>Node21&#45;&gt;Node10</title>
<path fill="none" stroke="midnightblue" d="M1175.79,-184.81C1153.51,-163.77 1096.43,-109.89 1067.85,-82.9"/>
<polygon fill="midnightblue" stroke="midnightblue" points="1069.95,-80.08 1060.27,-75.76 1065.14,-85.17 1069.95,-80.08"/>
</g>
<!-- Node22&#45;&gt;Node3 -->
<g id="edge44" class="edge">
<title>Node22&#45;&gt;Node3</title>
<path fill="none" stroke="midnightblue" d="M974.35,-246.23C959.21,-231.2 926.54,-200.11 895,-179 872.54,-163.96 844.99,-150.37 824.5,-141.08"/>
<polygon fill="midnightblue" stroke="midnightblue" points="825.9,-137.87 815.34,-137 823.06,-144.27 825.9,-137.87"/>
</g>
<!-- Node22&#45;&gt;Node8 -->
<g id="edge45" class="edge">
<title>Node22&#45;&gt;Node8</title>
<path fill="none" stroke="midnightblue" d="M949.42,-248.41C904.39,-239.56 822.99,-223.58 761.41,-211.49"/>
<polygon fill="midnightblue" stroke="midnightblue" points="761.81,-208 751.32,-209.51 760.46,-214.87 761.81,-208"/>
</g>
<!-- Node22&#45;&gt;Node21 -->
<g id="edge46" class="edge">
<title>Node22&#45;&gt;Node21</title>
<path fill="none" stroke="midnightblue" d="M1011.94,-246.48C1047.27,-236.07 1107.13,-218.44 1146.36,-206.88"/>
<polygon fill="midnightblue" stroke="midnightblue" points="1147.51,-210.19 1156.11,-204.01 1145.53,-203.48 1147.51,-210.19"/>
</g>
<!-- Node23 -->
<g id="node23" class="node">
<title>Node23</title>
<g id="a_node23"><a xlink:href="zwapi__protocol__basis_8h.html" target="_top" xlink:title="Z&#45;Wave API for basis controller/end node application interface.">
<polygon fill="none" stroke="black" points="980.5,-185 980.5,-204 1099.5,-204 1099.5,-185 980.5,-185"/>
<text text-anchor="middle" x="1040" y="-192" font-family="Helvetica,sans-Serif" font-size="10.00">zwapi_protocol_basis.h</text>
</a>
</g>
</g>
<!-- Node22&#45;&gt;Node23 -->
<g id="edge47" class="edge">
<title>Node22&#45;&gt;Node23</title>
<path fill="none" stroke="midnightblue" d="M991.17,-246.48C999.89,-237.37 1013.9,-222.74 1024.69,-211.48"/>
<polygon fill="midnightblue" stroke="midnightblue" points="1027.46,-213.65 1031.85,-204.01 1022.4,-208.81 1027.46,-213.65"/>
</g>
<!-- Node24 -->
<g id="node24" class="node">
<title>Node24</title>
<g id="a_node24"><a xlink:href="zwave__tx__definitions_8h.html" target="_top" xlink:title=" ">
<polygon fill="none" stroke="black" points="770,-185 770,-204 886,-204 886,-185 770,-185"/>
<text text-anchor="middle" x="828" y="-192" font-family="Helvetica,sans-Serif" font-size="10.00">zwave_tx_definitions.h</text>
</a>
</g>
</g>
<!-- Node22&#45;&gt;Node24 -->
<g id="edge53" class="edge">
<title>Node22&#45;&gt;Node24</title>
<path fill="none" stroke="midnightblue" d="M960.79,-246.48C934.32,-236.31 889.89,-219.26 859.78,-207.7"/>
<polygon fill="midnightblue" stroke="midnightblue" points="860.76,-204.33 850.17,-204.01 858.25,-210.86 860.76,-204.33"/>
</g>
<!-- Node23&#45;&gt;Node3 -->
<g id="edge50" class="edge">
<title>Node23&#45;&gt;Node3</title>
<path fill="none" stroke="midnightblue" d="M1004.45,-185C964.71,-175.36 898.51,-158.91 842,-143 838.61,-142.05 835.09,-141.02 831.57,-139.98"/>
<polygon fill="midnightblue" stroke="midnightblue" points="832.36,-136.56 821.78,-137.01 830.33,-143.26 832.36,-136.56"/>
</g>
<!-- Node23&#45;&gt;Node4 -->
<g id="edge48" class="edge">
<title>Node23&#45;&gt;Node4</title>
<path fill="none" stroke="midnightblue" d="M1024.2,-184.94C970.24,-155.72 793.05,-59.76 727.59,-24.32"/>
<polygon fill="midnightblue" stroke="midnightblue" points="729.23,-21.22 718.77,-19.54 725.89,-27.38 729.23,-21.22"/>
</g>
<!-- Node23&#45;&gt;Node5 -->
<g id="edge49" class="edge">
<title>Node23&#45;&gt;Node5</title>
<path fill="none" stroke="midnightblue" d="M1050.27,-184.77C1070.44,-166.86 1114.72,-123.61 1131,-76 1133.88,-67.59 1135.49,-63.67 1131,-56 1121.81,-40.28 1104.88,-29.63 1088.95,-22.65"/>
<polygon fill="midnightblue" stroke="midnightblue" points="1089.83,-19.23 1079.25,-18.77 1087.23,-25.73 1089.83,-19.23"/>
</g>
<!-- Node23&#45;&gt;Node10 -->
<g id="edge52" class="edge">
<title>Node23&#45;&gt;Node10</title>
<path fill="none" stroke="midnightblue" d="M1040.76,-184.81C1042.52,-164.49 1046.95,-113.55 1049.37,-85.78"/>
<polygon fill="midnightblue" stroke="midnightblue" points="1052.86,-86.02 1050.24,-75.76 1045.89,-85.41 1052.86,-86.02"/>
</g>
<!-- Node23&#45;&gt;Node12 -->
<g id="edge51" class="edge">
<title>Node23&#45;&gt;Node12</title>
<path fill="none" stroke="midnightblue" d="M1031.34,-184.81C1010.39,-163.77 956.72,-109.89 929.84,-82.9"/>
<polygon fill="midnightblue" stroke="midnightblue" points="932.26,-80.37 922.72,-75.76 927.3,-85.31 932.26,-80.37"/>
</g>
<!-- Node24&#45;&gt;Node9 -->
<g id="edge54" class="edge">
<title>Node24&#45;&gt;Node9</title>
<path fill="none" stroke="midnightblue" d="M808.35,-184.87C782.91,-173.7 738.4,-154.15 709.05,-141.26"/>
<polygon fill="midnightblue" stroke="midnightblue" points="710.3,-137.98 699.73,-137.17 707.48,-144.39 710.3,-137.98"/>
</g>
<!-- Node26&#45;&gt;Node14 -->
<g id="edge59" class="edge">
<title>Node26&#45;&gt;Node14</title>
<path fill="none" stroke="midnightblue" d="M803.22,-430.87C774.72,-419.57 724.57,-399.7 692.08,-386.82"/>
<polygon fill="midnightblue" stroke="midnightblue" points="693.19,-383.49 682.61,-383.06 690.61,-390 693.19,-383.49"/>
</g>
<!-- Node26&#45;&gt;Node17 -->
<g id="edge58" class="edge">
<title>Node26&#45;&gt;Node17</title>
<path fill="none" stroke="midnightblue" d="M811.38,-430.95C796.39,-421.34 771.78,-404.98 752,-389 736.35,-376.35 736.27,-368.33 719,-358 675.95,-332.23 658.36,-341.2 612,-322 573.94,-306.24 531.49,-284.34 505.52,-270.42"/>
<polygon fill="midnightblue" stroke="midnightblue" points="506.87,-267.18 496.41,-265.51 503.55,-273.34 506.87,-267.18"/>
</g>
<!-- Node26&#45;&gt;Node19 -->
<g id="edge57" class="edge">
<title>Node26&#45;&gt;Node19</title>
<path fill="none" stroke="midnightblue" d="M818.23,-430.93C805.88,-415.52 778.51,-382.49 752,-358 740.09,-346.99 725.62,-335.93 713.99,-327.52"/>
<polygon fill="midnightblue" stroke="midnightblue" points="715.93,-324.6 705.75,-321.66 711.87,-330.31 715.93,-324.6"/>
</g>
<!-- Node26&#45;&gt;Node22 -->
<g id="edge60" class="edge">
<title>Node26&#45;&gt;Node22</title>
<path fill="none" stroke="midnightblue" d="M832.62,-430.7C857.39,-402.09 935.89,-311.41 968.54,-273.7"/>
<polygon fill="midnightblue" stroke="midnightblue" points="971.56,-275.57 975.46,-265.71 966.26,-270.98 971.56,-275.57"/>
</g>
<!-- Node26&#45;&gt;Node27 -->
<g id="edge61" class="edge">
<title>Node26&#45;&gt;Node27</title>
<path fill="none" stroke="midnightblue" d="M841.83,-430.94C899.43,-401.66 1088.85,-305.37 1158.23,-270.1"/>
<polygon fill="midnightblue" stroke="midnightblue" points="1159.87,-273.19 1167.2,-265.54 1156.7,-266.95 1159.87,-273.19"/>
</g>
<!-- Node27&#45;&gt;Node3 -->
<g id="edge64" class="edge">
<title>Node27&#45;&gt;Node3</title>
<path fill="none" stroke="midnightblue" d="M1116.52,-247.58C1073.81,-241.23 1018.14,-229.85 972,-210 949.69,-200.4 948.49,-190.31 927,-179 896.48,-162.94 859.69,-149.3 832.71,-140.25"/>
<polygon fill="midnightblue" stroke="midnightblue" points="833.47,-136.82 822.88,-137.02 831.28,-143.47 833.47,-136.82"/>
</g>
<!-- Node27&#45;&gt;Node4 -->
<g id="edge62" class="edge">
<title>Node27&#45;&gt;Node4</title>
<path fill="none" stroke="midnightblue" d="M1212.37,-246.49C1229.75,-239.65 1250.6,-228.13 1261,-210 1267.86,-198.05 1265.86,-191.89 1261,-179 1235.35,-110.92 1217.7,-89.27 1153,-56 1080.63,-18.79 830.41,-12.33 737.81,-11.23"/>
<polygon fill="midnightblue" stroke="midnightblue" points="737.61,-7.72 727.58,-11.12 737.54,-14.72 737.61,-7.72"/>
</g>
<!-- Node27&#45;&gt;Node5 -->
<g id="edge63" class="edge">
<title>Node27&#45;&gt;Node5</title>
<path fill="none" stroke="midnightblue" d="M1237.32,-246.43C1258.66,-240.1 1281.18,-229.1 1294,-210 1301.68,-198.56 1299.3,-191.72 1294,-179 1264.15,-107.34 1235.29,-97.98 1170,-56 1145.02,-39.94 1113.45,-28.33 1089.1,-20.93"/>
<polygon fill="midnightblue" stroke="midnightblue" points="1090.07,-17.57 1079.49,-18.12 1088.1,-24.29 1090.07,-17.57"/>
</g>
<!-- Node27&#45;&gt;Node21 -->
<g id="edge65" class="edge">
<title>Node27&#45;&gt;Node21</title>
<path fill="none" stroke="midnightblue" d="M1184.14,-246.48C1184.28,-238.08 1184.5,-224.98 1184.69,-214.16"/>
<polygon fill="midnightblue" stroke="midnightblue" points="1188.19,-214.07 1184.86,-204.01 1181.19,-213.95 1188.19,-214.07"/>
</g>
<!-- Node28&#45;&gt;Node3 -->
<g id="edge68" class="edge">
<title>Node28&#45;&gt;Node3</title>
<path fill="none" stroke="midnightblue" d="M303.25,-184.96C313.12,-182.74 323.94,-180.55 334,-179 518.74,-150.59 570.16,-181.79 753,-143 756.5,-142.26 760.11,-141.31 763.68,-140.25"/>
<polygon fill="midnightblue" stroke="midnightblue" points="765.06,-143.48 773.49,-137.07 762.9,-136.82 765.06,-143.48"/>
</g>
<!-- Node28&#45;&gt;Node9 -->
<g id="edge69" class="edge">
<title>Node28&#45;&gt;Node9</title>
<path fill="none" stroke="midnightblue" d="M304.65,-184.95C314.15,-182.84 324.44,-180.69 334,-179 454.51,-157.66 486.25,-162.93 607,-143 614.36,-141.79 622.11,-140.38 629.7,-138.94"/>
<polygon fill="midnightblue" stroke="midnightblue" points="630.39,-142.37 639.54,-137.02 629.06,-135.49 630.39,-142.37"/>
</g>
</g>
</svg>
