<?xml version="1.0" encoding="UTF-8" standalone="no"?>
<!DOCTYPE svg PUBLIC "-//W3C//DTD SVG 1.1//EN"
 "http://www.w3.org/Graphics/SVG/1.1/DTD/svg11.dtd">
<!-- Generated by graphviz version 2.43.0 (0)
 -->
<!-- Title: store_group_membership Pages: 1 -->
<svg width="815pt" height="177pt"
 viewBox="0.00 0.00 815.00 176.50" xmlns="http://www.w3.org/2000/svg" xmlns:xlink="http://www.w3.org/1999/xlink">
<g id="graph0" class="graph" transform="scale(1 1) rotate(0) translate(4 172.5)">
<title>store_group_membership</title>
<!-- Node1 -->
<g id="node1" class="node">
<title>Node1</title>
<g id="a_node1"><a xlink:title="Saves a Multicast Group under each nodeID that are part of that group.">
<polygon fill="#bfbfbf" stroke="black" points="0,-44.5 0,-63.5 126,-63.5 126,-44.5 0,-44.5"/>
<text text-anchor="middle" x="63" y="-51.5" font-family="Helvetica,sans-Serif" font-size="10.00">store_group_membership</text>
</a>
</g>
</g>
<!-- Node2 -->
<g id="node2" class="node">
<title>Node2</title>
<g id="a_node2"><a xlink:href="group__zpc__attribute__store__network__helpers.html#ga7a3f40a9cbc90f2674b9e9e454fd6207" target="_top" xlink:title="Take a Z&#45;Wave NodeID and return its Attribute Store node representing the NodeID.">
<polygon fill="none" stroke="black" points="171.5,-88.5 171.5,-129.5 298.5,-129.5 298.5,-88.5 171.5,-88.5"/>
<text text-anchor="start" x="179.5" y="-117.5" font-family="Helvetica,sans-Serif" font-size="10.00">attribute_store_network</text>
<text text-anchor="start" x="179.5" y="-106.5" font-family="Helvetica,sans-Serif" font-size="10.00">_helper_get_zwave_node</text>
<text text-anchor="middle" x="235" y="-95.5" font-family="Helvetica,sans-Serif" font-size="10.00">_id_node</text>
</a>
</g>
</g>
<!-- Node1&#45;&gt;Node2 -->
<g id="edge1" class="edge">
<title>Node1&#45;&gt;Node2</title>
<path fill="none" stroke="midnightblue" d="M93.61,-63.58C112.42,-69.67 137.65,-77.83 161.52,-85.55"/>
<polygon fill="midnightblue" stroke="midnightblue" points="160.7,-88.96 171.29,-88.71 162.86,-82.3 160.7,-88.96"/>
</g>
<!-- Node8 -->
<g id="node8" class="node">
<title>Node8</title>
<g id="a_node8"><a xlink:href="group__zwave__network__management.html#gae265f1e935804f3f0b971755ab0ee61e" target="_top" xlink:title="Get the cached NodeID.">
<polygon fill="none" stroke="black" points="162,-39 162,-69 308,-69 308,-39 162,-39"/>
<text text-anchor="start" x="170" y="-57" font-family="Helvetica,sans-Serif" font-size="10.00">zwave_network_management</text>
<text text-anchor="middle" x="235" y="-46" font-family="Helvetica,sans-Serif" font-size="10.00">_get_node_id</text>
</a>
</g>
</g>
<!-- Node1&#45;&gt;Node8 -->
<g id="edge7" class="edge">
<title>Node1&#45;&gt;Node8</title>
<path fill="none" stroke="midnightblue" d="M126.34,-54C134.65,-54 143.27,-54 151.85,-54"/>
<polygon fill="midnightblue" stroke="midnightblue" points="151.89,-57.5 161.89,-54 151.89,-50.5 151.89,-57.5"/>
</g>
<!-- Node9 -->
<g id="node9" class="node">
<title>Node9</title>
<g id="a_node9"><a xlink:href="group__zwave__tx__groups.html#ga03f0e364d262928c9617a70b656755e7" target="_top" xlink:title="Returns the list of NodeIDs part of a group.">
<polygon fill="none" stroke="black" points="180.5,-0.5 180.5,-19.5 289.5,-19.5 289.5,-0.5 180.5,-0.5"/>
<text text-anchor="middle" x="235" y="-7.5" font-family="Helvetica,sans-Serif" font-size="10.00">zwave_tx_get_nodes</text>
</a>
</g>
</g>
<!-- Node1&#45;&gt;Node9 -->
<g id="edge8" class="edge">
<title>Node1&#45;&gt;Node9</title>
<path fill="none" stroke="midnightblue" d="M100.89,-44.45C126.28,-37.88 160.22,-29.1 187.48,-22.04"/>
<polygon fill="midnightblue" stroke="midnightblue" points="188.38,-25.42 197.18,-19.53 186.63,-18.65 188.38,-25.42"/>
</g>
<!-- Node3 -->
<g id="node3" class="node">
<title>Node3</title>
<g id="a_node3"><a xlink:href="group__zpc__attribute__store__network__helpers.html#gafb993ff484b3c826743c4695d6659cf0" target="_top" xlink:title="Take a UNID and return its attribute store node representing the NodeID.">
<polygon fill="none" stroke="black" points="344,-116 344,-146 476,-146 476,-116 344,-116"/>
<text text-anchor="start" x="352" y="-134" font-family="Helvetica,sans-Serif" font-size="10.00">attribute_store_network</text>
<text text-anchor="middle" x="410" y="-123" font-family="Helvetica,sans-Serif" font-size="10.00">_helper_get_node_id_node</text>
</a>
</g>
</g>
<!-- Node2&#45;&gt;Node3 -->
<g id="edge2" class="edge">
<title>Node2&#45;&gt;Node3</title>
<path fill="none" stroke="midnightblue" d="M298.95,-117C310.23,-118.44 322.09,-119.95 333.68,-121.42"/>
<polygon fill="midnightblue" stroke="midnightblue" points="333.41,-124.92 343.77,-122.71 334.3,-117.97 333.41,-124.92"/>
</g>
<!-- Node7 -->
<g id="node7" class="node">
<title>Node7</title>
<g id="a_node7"><a xlink:href="group__zwave__unid.html#ga421deceb8a12916f049e4f3446774439" target="_top" xlink:title="Form a UNID.">
<polygon fill="none" stroke="black" points="344,-77.5 344,-96.5 476,-96.5 476,-77.5 344,-77.5"/>
<text text-anchor="middle" x="410" y="-84.5" font-family="Helvetica,sans-Serif" font-size="10.00">zwave_unid_from_node_id</text>
</a>
</g>
</g>
<!-- Node2&#45;&gt;Node7 -->
<g id="edge6" class="edge">
<title>Node2&#45;&gt;Node7</title>
<path fill="none" stroke="midnightblue" d="M298.95,-101C310.23,-99.56 322.09,-98.05 333.68,-96.58"/>
<polygon fill="midnightblue" stroke="midnightblue" points="334.3,-100.03 343.77,-95.29 333.41,-93.08 334.3,-100.03"/>
</g>
<!-- Node4 -->
<g id="node4" class="node">
<title>Node4</title>
<g id="a_node4"><a xlink:href="group__zpc__attribute__store__network__helpers.html#ga05cb572c96f7dc8e6657f86e135fafed" target="_top" xlink:title="Take a UNID and return its attribute store node representing the HomeID.">
<polygon fill="none" stroke="black" points="512,-138 512,-168 647,-168 647,-138 512,-138"/>
<text text-anchor="start" x="520" y="-156" font-family="Helvetica,sans-Serif" font-size="10.00">attribute_store_network</text>
<text text-anchor="middle" x="579.5" y="-145" font-family="Helvetica,sans-Serif" font-size="10.00">_helper_get_home_id_node</text>
</a>
</g>
</g>
<!-- Node3&#45;&gt;Node4 -->
<g id="edge3" class="edge">
<title>Node3&#45;&gt;Node4</title>
<path fill="none" stroke="midnightblue" d="M476.24,-139.57C484.62,-140.67 493.27,-141.81 501.82,-142.93"/>
<polygon fill="midnightblue" stroke="midnightblue" points="501.41,-146.4 511.78,-144.24 502.32,-139.46 501.41,-146.4"/>
</g>
<!-- Node6 -->
<g id="node6" class="node">
<title>Node6</title>
<g id="a_node6"><a xlink:href="group__zwave__unid.html#ga76885767debd174e96e6df00b0a368c3" target="_top" xlink:title="Convert a UNID to a node ID.">
<polygon fill="none" stroke="black" points="519,-99.5 519,-118.5 640,-118.5 640,-99.5 519,-99.5"/>
<text text-anchor="middle" x="579.5" y="-106.5" font-family="Helvetica,sans-Serif" font-size="10.00">zwave_unid_to_node_id</text>
</a>
</g>
</g>
<!-- Node3&#45;&gt;Node6 -->
<g id="edge5" class="edge">
<title>Node3&#45;&gt;Node6</title>
<path fill="none" stroke="midnightblue" d="M476.24,-122.43C486.89,-121.03 497.96,-119.58 508.72,-118.17"/>
<polygon fill="midnightblue" stroke="midnightblue" points="509.45,-121.6 518.91,-116.83 508.54,-114.66 509.45,-121.6"/>
</g>
<!-- Node5 -->
<g id="node5" class="node">
<title>Node5</title>
<g id="a_node5"><a xlink:href="group__zwave__unid.html#ga92f9808a08c2ce1c0a6a9dc2debf3580" target="_top" xlink:title="Convert a UNID to a Home ID.">
<polygon fill="none" stroke="black" points="683,-143.5 683,-162.5 807,-162.5 807,-143.5 683,-143.5"/>
<text text-anchor="middle" x="745" y="-150.5" font-family="Helvetica,sans-Serif" font-size="10.00">zwave_unid_to_home_id</text>
</a>
</g>
</g>
<!-- Node4&#45;&gt;Node5 -->
<g id="edge4" class="edge">
<title>Node4&#45;&gt;Node5</title>
<path fill="none" stroke="midnightblue" d="M647,-153C655.42,-153 664.07,-153 672.57,-153"/>
<polygon fill="midnightblue" stroke="midnightblue" points="672.83,-156.5 682.83,-153 672.83,-149.5 672.83,-156.5"/>
</g>
</g>
</svg>
