<?xml version="1.0" encoding="UTF-8" standalone="no"?>
<!DOCTYPE svg PUBLIC "-//W3C//DTD SVG 1.1//EN"
 "http://www.w3.org/Graphics/SVG/1.1/DTD/svg11.dtd">
<!-- Generated by graphviz version 2.43.0 (0)
 -->
<!-- Title: on_s2_inclusion_started Pages: 1 -->
<svg width="575pt" height="28pt"
 viewBox="0.00 0.00 575.00 28.00" xmlns="http://www.w3.org/2000/svg" xmlns:xlink="http://www.w3.org/1999/xlink">
<g id="graph0" class="graph" transform="scale(1 1) rotate(0) translate(4 24)">
<title>on_s2_inclusion_started</title>
<!-- Node1 -->
<g id="node1" class="node">
<title>Node1</title>
<g id="a_node1"><a xlink:title=" ">
<polygon fill="#bfbfbf" stroke="black" points="0,-0.5 0,-19.5 122,-19.5 122,-0.5 0,-0.5"/>
<text text-anchor="middle" x="61" y="-7.5" font-family="Helvetica,sans-Serif" font-size="10.00">on_s2_inclusion_started</text>
</a>
</g>
</g>
<!-- Node2 -->
<g id="node2" class="node">
<title>Node2</title>
<g id="a_node2"><a xlink:href="group__zwave__s0__network.html#gaf05a7068f06036558f3d999b95870e86" target="_top" xlink:title="Stop the S2 bootstrapping.">
<polygon fill="none" stroke="black" points="158,-0.5 158,-19.5 307,-19.5 307,-0.5 158,-0.5"/>
<text text-anchor="middle" x="232.5" y="-7.5" font-family="Helvetica,sans-Serif" font-size="10.00">zwave_s0_stop_bootstrapping</text>
</a>
</g>
</g>
<!-- Node1&#45;&gt;Node2 -->
<g id="edge1" class="edge">
<title>Node1&#45;&gt;Node2</title>
<path fill="none" stroke="midnightblue" d="M122.24,-10C130.51,-10 139.13,-10 147.73,-10"/>
<polygon fill="midnightblue" stroke="midnightblue" points="147.8,-13.5 157.8,-10 147.8,-6.5 147.8,-13.5"/>
</g>
<!-- Node3 -->
<g id="node3" class="node">
<title>Node3</title>
<g id="a_node3"><a xlink:href="group__zwave__s0__inclusion__state__machine.html#ga41bad9eaf9663c6a6f197fd1b334916f" target="_top" xlink:title="Stop the S0 bootstrapping timers.">
<polygon fill="none" stroke="black" points="343,-0.5 343,-19.5 458,-19.5 458,-0.5 343,-0.5"/>
<text text-anchor="middle" x="400.5" y="-7.5" font-family="Helvetica,sans-Serif" font-size="10.00">s0_bootstrapping_stop</text>
</a>
</g>
</g>
<!-- Node2&#45;&gt;Node3 -->
<g id="edge2" class="edge">
<title>Node2&#45;&gt;Node3</title>
<path fill="none" stroke="midnightblue" d="M307.28,-10C315.77,-10 324.4,-10 332.79,-10"/>
<polygon fill="midnightblue" stroke="midnightblue" points="332.89,-13.5 342.89,-10 332.89,-6.5 332.89,-13.5"/>
</g>
<!-- Node4 -->
<g id="node4" class="node">
<title>Node4</title>
<g id="a_node4"><a xlink:href="zwave__s0__sm_8c.html#add560d910f441570d80bd78fb591f7f0" target="_top" xlink:title=" ">
<polygon fill="none" stroke="black" points="494,-0.5 494,-19.5 567,-19.5 567,-0.5 494,-0.5"/>
<text text-anchor="middle" x="530.5" y="-7.5" font-family="Helvetica,sans-Serif" font-size="10.00">reset_s0_sm</text>
</a>
</g>
</g>
<!-- Node3&#45;&gt;Node4 -->
<g id="edge3" class="edge">
<title>Node3&#45;&gt;Node4</title>
<path fill="none" stroke="midnightblue" d="M458.02,-10C466.59,-10 475.34,-10 483.64,-10"/>
<polygon fill="midnightblue" stroke="midnightblue" points="483.88,-13.5 493.88,-10 483.88,-6.5 483.88,-13.5"/>
</g>
</g>
</svg>
