<?xml version="1.0" encoding="UTF-8" standalone="no"?>
<!DOCTYPE svg PUBLIC "-//W3C//DTD SVG 1.1//EN"
 "http://www.w3.org/Graphics/SVG/1.1/DTD/svg11.dtd">
<!-- Generated by graphviz version 2.43.0 (0)
 -->
<!-- Title: _ZW_COMMAND_FIRST_FRAGMENT_1BYTE_FRAME_ Pages: 1 -->
<svg width="200pt" height="248pt"
 viewBox="0.00 0.00 200.00 248.00" xmlns="http://www.w3.org/2000/svg" xmlns:xlink="http://www.w3.org/1999/xlink">
<g id="graph0" class="graph" transform="scale(1 1) rotate(0) translate(4 244)">
<title>_ZW_COMMAND_FIRST_FRAGMENT_1BYTE_FRAME_</title>
<!-- Node1 -->
<g id="node1" class="node">
<title>Node1</title>
<g id="a_node1"><a xlink:title=" ">
<polygon fill="#bfbfbf" stroke="black" points="0,-0.5 0,-68.5 192,-68.5 192,-0.5 0,-0.5"/>
<text text-anchor="start" x="8" y="-56.5" font-family="Helvetica,sans-Serif" font-size="10.00">_ZW_COMMAND_FIRST_FRAGMENT</text>
<text text-anchor="middle" x="96" y="-45.5" font-family="Helvetica,sans-Serif" font-size="10.00">_1BYTE_FRAME_</text>
<polyline fill="none" stroke="black" points="0,-38.5 192,-38.5 "/>
<text text-anchor="middle" x="96" y="-26.5" font-family="Helvetica,sans-Serif" font-size="10.00"> </text>
<polyline fill="none" stroke="black" points="0,-19.5 192,-19.5 "/>
<text text-anchor="middle" x="96" y="-7.5" font-family="Helvetica,sans-Serif" font-size="10.00"> </text>
</a>
</g>
</g>
<!-- Node2 -->
<g id="node2" class="node">
<title>Node2</title>
<g id="a_node2"><a xlink:title=" ">
<polygon fill="none" stroke="black" points="73,-182.5 73,-239.5 119,-239.5 119,-182.5 73,-182.5"/>
<text text-anchor="middle" x="96" y="-227.5" font-family="Helvetica,sans-Serif" font-size="10.00">uint8_t</text>
<polyline fill="none" stroke="black" points="73,-220.5 119,-220.5 "/>
<text text-anchor="middle" x="96" y="-208.5" font-family="Helvetica,sans-Serif" font-size="10.00"> </text>
<polyline fill="none" stroke="black" points="73,-201.5 119,-201.5 "/>
<text text-anchor="middle" x="96" y="-189.5" font-family="Helvetica,sans-Serif" font-size="10.00"> </text>
</a>
</g>
</g>
<!-- Node2&#45;&gt;Node1 -->
<g id="edge1" class="edge">
<title>Node2&#45;&gt;Node1</title>
<path fill="none" stroke="#404040" d="M96,-182.35C96,-155.12 96,-113.04 96,-80.9"/>
<polygon fill="none" stroke="#404040" points="96,-80.68 92,-74.68 96,-68.68 100,-74.68 96,-80.68"/>
<text text-anchor="middle" x="144" y="-156" font-family="Helvetica,sans-Serif" font-size="10.00"> +checksum1</text>
<text text-anchor="middle" x="144" y="-145" font-family="Helvetica,sans-Serif" font-size="10.00">+checksum2</text>
<text text-anchor="middle" x="144" y="-134" font-family="Helvetica,sans-Serif" font-size="10.00">+cmdClass</text>
<text text-anchor="middle" x="144" y="-123" font-family="Helvetica,sans-Serif" font-size="10.00">+cmd_datagramSize1</text>
<text text-anchor="middle" x="144" y="-112" font-family="Helvetica,sans-Serif" font-size="10.00">+datagramSize2</text>
<text text-anchor="middle" x="144" y="-101" font-family="Helvetica,sans-Serif" font-size="10.00">+payload1</text>
<text text-anchor="middle" x="144" y="-90" font-family="Helvetica,sans-Serif" font-size="10.00">+properties2</text>
</g>
</g>
</svg>
