<?xml version="1.0" encoding="UTF-8" standalone="no"?>
<!DOCTYPE svg PUBLIC "-//W3C//DTD SVG 1.1//EN"
 "http://www.w3.org/Graphics/SVG/1.1/DTD/svg11.dtd">
<!-- Generated by graphviz version 2.43.0 (0)
 -->
<!-- Title: resolution_map Pages: 1 -->
<svg width="244pt" height="171pt"
 viewBox="0.00 0.00 243.50 171.00" xmlns="http://www.w3.org/2000/svg" xmlns:xlink="http://www.w3.org/1999/xlink">
<g id="graph0" class="graph" transform="scale(1 1) rotate(0) translate(4 167)">
<title>resolution_map</title>
<!-- Node1 -->
<g id="node1" class="node">
<title>Node1</title>
<g id="a_node1"><a xlink:title="Struct keeping track of a node resolved as well as the rule type being executed.">
<polygon fill="#bfbfbf" stroke="black" points="78,-0.5 78,-57.5 161,-57.5 161,-0.5 78,-0.5"/>
<text text-anchor="middle" x="119.5" y="-45.5" font-family="Helvetica,sans-Serif" font-size="10.00">resolution_map</text>
<polyline fill="none" stroke="black" points="78,-38.5 161,-38.5 "/>
<text text-anchor="middle" x="119.5" y="-26.5" font-family="Helvetica,sans-Serif" font-size="10.00"> </text>
<polyline fill="none" stroke="black" points="78,-19.5 161,-19.5 "/>
<text text-anchor="middle" x="119.5" y="-7.5" font-family="Helvetica,sans-Serif" font-size="10.00"> </text>
</a>
</g>
</g>
<!-- Node2 -->
<g id="node2" class="node">
<title>Node2</title>
<g id="a_node2"><a xlink:title=" ">
<polygon fill="none" stroke="black" points="0,-105.5 0,-162.5 113,-162.5 113,-105.5 0,-105.5"/>
<text text-anchor="middle" x="56.5" y="-150.5" font-family="Helvetica,sans-Serif" font-size="10.00">attribute_store_node_t</text>
<polyline fill="none" stroke="black" points="0,-143.5 113,-143.5 "/>
<text text-anchor="middle" x="56.5" y="-131.5" font-family="Helvetica,sans-Serif" font-size="10.00"> </text>
<polyline fill="none" stroke="black" points="0,-124.5 113,-124.5 "/>
<text text-anchor="middle" x="56.5" y="-112.5" font-family="Helvetica,sans-Serif" font-size="10.00"> </text>
</a>
</g>
</g>
<!-- Node2&#45;&gt;Node1 -->
<g id="edge1" class="edge">
<title>Node2&#45;&gt;Node1</title>
<path fill="none" stroke="#404040" d="M73.38,-105.4C80.37,-93.97 88.6,-80.52 96.15,-68.17"/>
<polygon fill="none" stroke="#404040" points="96.31,-67.92 96.03,-60.71 102.57,-57.68 102.85,-64.88 96.31,-67.92"/>
<text text-anchor="middle" x="106" y="-79" font-family="Helvetica,sans-Serif" font-size="10.00"> +node</text>
</g>
<!-- Node3 -->
<g id="node3" class="node">
<title>Node3</title>
<g id="a_node3"><a xlink:title=" ">
<polygon fill="none" stroke="black" points="131.5,-105.5 131.5,-162.5 235.5,-162.5 235.5,-105.5 131.5,-105.5"/>
<text text-anchor="middle" x="183.5" y="-150.5" font-family="Helvetica,sans-Serif" font-size="10.00">resolver_rule_type_t</text>
<polyline fill="none" stroke="black" points="131.5,-143.5 235.5,-143.5 "/>
<text text-anchor="middle" x="183.5" y="-131.5" font-family="Helvetica,sans-Serif" font-size="10.00"> </text>
<polyline fill="none" stroke="black" points="131.5,-124.5 235.5,-124.5 "/>
<text text-anchor="middle" x="183.5" y="-112.5" font-family="Helvetica,sans-Serif" font-size="10.00"> </text>
</a>
</g>
</g>
<!-- Node3&#45;&gt;Node1 -->
<g id="edge2" class="edge">
<title>Node3&#45;&gt;Node1</title>
<path fill="none" stroke="#404040" d="M166.35,-105.4C159.25,-93.97 150.89,-80.52 143.22,-68.17"/>
<polygon fill="none" stroke="#404040" points="143.03,-67.87 136.47,-64.89 136.7,-57.68 143.26,-60.66 143.03,-67.87"/>
<text text-anchor="middle" x="177" y="-79" font-family="Helvetica,sans-Serif" font-size="10.00"> +rule_type</text>
</g>
</g>
</svg>
