<?xml version="1.0" encoding="UTF-8" standalone="no"?>
<!DOCTYPE svg PUBLIC "-//W3C//DTD SVG 1.1//EN"
 "http://www.w3.org/Graphics/SVG/1.1/DTD/svg11.dtd">
<!-- Generated by graphviz version 2.43.0 (0)
 -->
<!-- Title: rx_session_t Pages: 1 -->
<svg width="262pt" height="215pt"
 viewBox="0.00 0.00 262.00 215.00" xmlns="http://www.w3.org/2000/svg" xmlns:xlink="http://www.w3.org/1999/xlink">
<g id="graph0" class="graph" transform="scale(1 1) rotate(0) translate(4 211)">
<title>rx_session_t</title>
<!-- Node1 -->
<g id="node1" class="node">
<title>Node1</title>
<g id="a_node1"><a xlink:title=" ">
<polygon fill="#bfbfbf" stroke="black" points="78,-0.5 78,-57.5 150,-57.5 150,-0.5 78,-0.5"/>
<text text-anchor="middle" x="114" y="-45.5" font-family="Helvetica,sans-Serif" font-size="10.00">rx_session_t</text>
<polyline fill="none" stroke="black" points="78,-38.5 150,-38.5 "/>
<text text-anchor="middle" x="114" y="-26.5" font-family="Helvetica,sans-Serif" font-size="10.00"> </text>
<polyline fill="none" stroke="black" points="78,-19.5 150,-19.5 "/>
<text text-anchor="middle" x="114" y="-7.5" font-family="Helvetica,sans-Serif" font-size="10.00"> </text>
</a>
</g>
</g>
<!-- Node2 -->
<g id="node2" class="node">
<title>Node2</title>
<g id="a_node2"><a xlink:title=" ">
<polygon fill="none" stroke="black" points="0,-149.5 0,-206.5 46,-206.5 46,-149.5 0,-149.5"/>
<text text-anchor="middle" x="23" y="-194.5" font-family="Helvetica,sans-Serif" font-size="10.00">uint8_t</text>
<polyline fill="none" stroke="black" points="0,-187.5 46,-187.5 "/>
<text text-anchor="middle" x="23" y="-175.5" font-family="Helvetica,sans-Serif" font-size="10.00"> </text>
<polyline fill="none" stroke="black" points="0,-168.5 46,-168.5 "/>
<text text-anchor="middle" x="23" y="-156.5" font-family="Helvetica,sans-Serif" font-size="10.00"> </text>
</a>
</g>
</g>
<!-- Node2&#45;&gt;Node1 -->
<g id="edge1" class="edge">
<title>Node2&#45;&gt;Node1</title>
<path fill="none" stroke="#404040" d="M31.77,-149.38C39.24,-128.2 51.26,-98.83 67,-76 69.2,-72.8 71.65,-69.65 74.24,-66.57"/>
<polygon fill="none" stroke="#404040" points="74.26,-66.54 75.32,-59.41 82.32,-57.64 81.26,-64.78 74.26,-66.54"/>
<text text-anchor="middle" x="88.5" y="-123" font-family="Helvetica,sans-Serif" font-size="10.00"> +dnode</text>
<text text-anchor="middle" x="88.5" y="-112" font-family="Helvetica,sans-Serif" font-size="10.00">+msg</text>
<text text-anchor="middle" x="88.5" y="-101" font-family="Helvetica,sans-Serif" font-size="10.00">+msg_len</text>
<text text-anchor="middle" x="88.5" y="-90" font-family="Helvetica,sans-Serif" font-size="10.00">+seq_nr</text>
<text text-anchor="middle" x="88.5" y="-79" font-family="Helvetica,sans-Serif" font-size="10.00">+snode</text>
</g>
<!-- Node3 -->
<g id="node3" class="node">
<title>Node3</title>
<g id="a_node3"><a xlink:title=" ">
<polygon fill="none" stroke="black" points="64.5,-149.5 64.5,-206.5 163.5,-206.5 163.5,-149.5 64.5,-149.5"/>
<text text-anchor="middle" x="114" y="-194.5" font-family="Helvetica,sans-Serif" font-size="10.00">rx_session_state_t</text>
<polyline fill="none" stroke="black" points="64.5,-187.5 163.5,-187.5 "/>
<text text-anchor="middle" x="114" y="-175.5" font-family="Helvetica,sans-Serif" font-size="10.00"> </text>
<polyline fill="none" stroke="black" points="64.5,-168.5 163.5,-168.5 "/>
<text text-anchor="middle" x="114" y="-156.5" font-family="Helvetica,sans-Serif" font-size="10.00"> </text>
</a>
</g>
</g>
<!-- Node3&#45;&gt;Node1 -->
<g id="edge2" class="edge">
<title>Node3&#45;&gt;Node1</title>
<path fill="none" stroke="#404040" d="M114,-149.35C114,-126.87 114,-94.85 114,-69.64"/>
<polygon fill="none" stroke="#404040" points="114,-69.53 110,-63.53 114,-57.53 118,-63.53 114,-69.53"/>
<text text-anchor="middle" x="129.5" y="-101" font-family="Helvetica,sans-Serif" font-size="10.00"> +state</text>
</g>
<!-- Node4 -->
<g id="node4" class="node">
<title>Node4</title>
<g id="a_node4"><a xlink:title=" ">
<polygon fill="none" stroke="black" points="182,-149.5 182,-206.5 254,-206.5 254,-149.5 182,-149.5"/>
<text text-anchor="middle" x="218" y="-194.5" font-family="Helvetica,sans-Serif" font-size="10.00">clock_time_t</text>
<polyline fill="none" stroke="black" points="182,-187.5 254,-187.5 "/>
<text text-anchor="middle" x="218" y="-175.5" font-family="Helvetica,sans-Serif" font-size="10.00"> </text>
<polyline fill="none" stroke="black" points="182,-168.5 254,-168.5 "/>
<text text-anchor="middle" x="218" y="-156.5" font-family="Helvetica,sans-Serif" font-size="10.00"> </text>
</a>
</g>
</g>
<!-- Node4&#45;&gt;Node1 -->
<g id="edge3" class="edge">
<title>Node4&#45;&gt;Node1</title>
<path fill="none" stroke="#404040" d="M199.63,-149.3C185.94,-128.86 166.64,-100.46 149,-76 146.96,-73.18 144.84,-70.27 142.68,-67.37"/>
<polygon fill="none" stroke="#404040" points="142.53,-67.16 135.73,-64.76 135.33,-57.56 142.13,-59.96 142.53,-67.16"/>
<text text-anchor="middle" x="208" y="-101" font-family="Helvetica,sans-Serif" font-size="10.00"> +timeout</text>
</g>
</g>
</svg>
