<?xml version="1.0" encoding="UTF-8" standalone="no"?>
<!DOCTYPE svg PUBLIC "-//W3C//DTD SVG 1.1//EN"
 "http://www.w3.org/Graphics/SVG/1.1/DTD/svg11.dtd">
<!-- Generated by graphviz version 2.43.0 (0)
 -->
<!-- Title: _protocol_metadata_ Pages: 1 -->
<svg width="168pt" height="193pt"
 viewBox="0.00 0.00 168.00 193.00" xmlns="http://www.w3.org/2000/svg" xmlns:xlink="http://www.w3.org/1999/xlink">
<g id="graph0" class="graph" transform="scale(1 1) rotate(0) translate(4 189)">
<title>_protocol_metadata_</title>
<!-- Node1 -->
<g id="node1" class="node">
<title>Node1</title>
<g id="a_node1"><a xlink:title=" ">
<polygon fill="#bfbfbf" stroke="black" points="9.5,-0.5 9.5,-57.5 116.5,-57.5 116.5,-0.5 9.5,-0.5"/>
<text text-anchor="middle" x="63" y="-45.5" font-family="Helvetica,sans-Serif" font-size="10.00">_protocol_metadata_</text>
<polyline fill="none" stroke="black" points="9.5,-38.5 116.5,-38.5 "/>
<text text-anchor="middle" x="63" y="-26.5" font-family="Helvetica,sans-Serif" font-size="10.00"> </text>
<polyline fill="none" stroke="black" points="9.5,-19.5 116.5,-19.5 "/>
<text text-anchor="middle" x="63" y="-7.5" font-family="Helvetica,sans-Serif" font-size="10.00"> </text>
</a>
</g>
</g>
<!-- Node2 -->
<g id="node2" class="node">
<title>Node2</title>
<g id="a_node2"><a xlink:title=" ">
<polygon fill="none" stroke="black" points="0,-127.5 0,-184.5 46,-184.5 46,-127.5 0,-127.5"/>
<text text-anchor="middle" x="23" y="-172.5" font-family="Helvetica,sans-Serif" font-size="10.00">uint8_t</text>
<polyline fill="none" stroke="black" points="0,-165.5 46,-165.5 "/>
<text text-anchor="middle" x="23" y="-153.5" font-family="Helvetica,sans-Serif" font-size="10.00"> </text>
<polyline fill="none" stroke="black" points="0,-146.5 46,-146.5 "/>
<text text-anchor="middle" x="23" y="-134.5" font-family="Helvetica,sans-Serif" font-size="10.00"> </text>
</a>
</g>
</g>
<!-- Node2&#45;&gt;Node1 -->
<g id="edge1" class="edge">
<title>Node2&#45;&gt;Node1</title>
<path fill="none" stroke="#404040" d="M18.86,-127.47C17.6,-111.89 17.9,-92.32 24,-76 25.02,-73.27 26.28,-70.59 27.72,-67.98"/>
<polygon fill="none" stroke="#404040" points="27.87,-67.75 27.81,-60.54 34.44,-57.71 34.5,-64.92 27.87,-67.75"/>
<text text-anchor="middle" x="52.5" y="-101" font-family="Helvetica,sans-Serif" font-size="10.00"> +data</text>
<text text-anchor="middle" x="52.5" y="-90" font-family="Helvetica,sans-Serif" font-size="10.00">+data_length</text>
<text text-anchor="middle" x="52.5" y="-79" font-family="Helvetica,sans-Serif" font-size="10.00">+session_id</text>
</g>
<!-- Node3 -->
<g id="node3" class="node">
<title>Node3</title>
<g id="a_node3"><a xlink:title=" ">
<polygon fill="none" stroke="black" points="82.5,-127.5 82.5,-184.5 123.5,-184.5 123.5,-127.5 82.5,-127.5"/>
<text text-anchor="middle" x="103" y="-172.5" font-family="Helvetica,sans-Serif" font-size="10.00">void *</text>
<polyline fill="none" stroke="black" points="82.5,-165.5 123.5,-165.5 "/>
<text text-anchor="middle" x="103" y="-153.5" font-family="Helvetica,sans-Serif" font-size="10.00"> </text>
<polyline fill="none" stroke="black" points="82.5,-146.5 123.5,-146.5 "/>
<text text-anchor="middle" x="103" y="-134.5" font-family="Helvetica,sans-Serif" font-size="10.00"> </text>
</a>
</g>
</g>
<!-- Node3&#45;&gt;Node1 -->
<g id="edge2" class="edge">
<title>Node3&#45;&gt;Node1</title>
<path fill="none" stroke="#404040" d="M96.04,-127.37C92.01,-112.11 86.64,-92.88 81,-76 80.21,-73.65 79.38,-71.24 78.51,-68.82"/>
<polygon fill="none" stroke="#404040" points="78.5,-68.81 72.66,-64.58 74.31,-57.56 80.15,-61.79 78.5,-68.81"/>
<text text-anchor="middle" x="125" y="-90" font-family="Helvetica,sans-Serif" font-size="10.00"> +tx_session_id</text>
</g>
</g>
</svg>
