<?xml version="1.0" encoding="UTF-8" standalone="no"?>
<!DOCTYPE svg PUBLIC "-//W3C//DTD SVG 1.1//EN"
 "http://www.w3.org/Graphics/SVG/1.1/DTD/svg11.dtd">
<!-- Generated by graphviz version 2.43.0 (0)
 -->
<!-- Title: _assign_return_route_ Pages: 1 -->
<svg width="291pt" height="182pt"
 viewBox="0.00 0.00 290.50 182.00" xmlns="http://www.w3.org/2000/svg" xmlns:xlink="http://www.w3.org/1999/xlink">
<g id="graph0" class="graph" transform="scale(1 1) rotate(0) translate(4 178)">
<title>_assign_return_route_</title>
<!-- Node1 -->
<g id="node1" class="node">
<title>Node1</title>
<g id="a_node1"><a xlink:title=" ">
<polygon fill="#bfbfbf" stroke="black" points="88,-0.5 88,-57.5 201,-57.5 201,-0.5 88,-0.5"/>
<text text-anchor="middle" x="144.5" y="-45.5" font-family="Helvetica,sans-Serif" font-size="10.00">_assign_return_route_</text>
<polyline fill="none" stroke="black" points="88,-38.5 201,-38.5 "/>
<text text-anchor="middle" x="144.5" y="-26.5" font-family="Helvetica,sans-Serif" font-size="10.00"> </text>
<polyline fill="none" stroke="black" points="88,-19.5 201,-19.5 "/>
<text text-anchor="middle" x="144.5" y="-7.5" font-family="Helvetica,sans-Serif" font-size="10.00"> </text>
</a>
</g>
</g>
<!-- Node2 -->
<g id="node2" class="node">
<title>Node2</title>
<g id="a_node2"><a xlink:title=" ">
<polygon fill="none" stroke="black" points="0,-116.5 0,-173.5 51,-173.5 51,-116.5 0,-116.5"/>
<text text-anchor="middle" x="25.5" y="-161.5" font-family="Helvetica,sans-Serif" font-size="10.00">uint16_t</text>
<polyline fill="none" stroke="black" points="0,-154.5 51,-154.5 "/>
<text text-anchor="middle" x="25.5" y="-142.5" font-family="Helvetica,sans-Serif" font-size="10.00"> </text>
<polyline fill="none" stroke="black" points="0,-135.5 51,-135.5 "/>
<text text-anchor="middle" x="25.5" y="-123.5" font-family="Helvetica,sans-Serif" font-size="10.00"> </text>
</a>
</g>
</g>
<!-- Node2&#45;&gt;Node1 -->
<g id="edge1" class="edge">
<title>Node2&#45;&gt;Node1</title>
<path fill="none" stroke="#404040" d="M27.81,-116.29C30.18,-102.83 34.96,-87.19 44.5,-76 53.19,-65.81 64.61,-57.76 76.62,-51.43"/>
<polygon fill="none" stroke="#404040" points="76.93,-51.28 80.61,-45.08 87.75,-46.09 84.07,-52.29 76.93,-51.28"/>
<text text-anchor="middle" x="92.5" y="-90" font-family="Helvetica,sans-Serif" font-size="10.00"> +destination_node_id</text>
<text text-anchor="middle" x="92.5" y="-79" font-family="Helvetica,sans-Serif" font-size="10.00">+node_id</text>
</g>
<!-- Node3 -->
<g id="node3" class="node">
<title>Node3</title>
<g id="a_node3"><a xlink:title=" ">
<polygon fill="none" stroke="black" points="107.5,-116.5 107.5,-173.5 181.5,-173.5 181.5,-116.5 107.5,-116.5"/>
<text text-anchor="middle" x="144.5" y="-161.5" font-family="Helvetica,sans-Serif" font-size="10.00">route_state_t</text>
<polyline fill="none" stroke="black" points="107.5,-154.5 181.5,-154.5 "/>
<text text-anchor="middle" x="144.5" y="-142.5" font-family="Helvetica,sans-Serif" font-size="10.00"> </text>
<polyline fill="none" stroke="black" points="107.5,-135.5 181.5,-135.5 "/>
<text text-anchor="middle" x="144.5" y="-123.5" font-family="Helvetica,sans-Serif" font-size="10.00"> </text>
</a>
</g>
</g>
<!-- Node3&#45;&gt;Node1 -->
<g id="edge2" class="edge">
<title>Node3&#45;&gt;Node1</title>
<path fill="none" stroke="#404040" d="M144.5,-116.4C144.5,-102.5 144.5,-85.39 144.5,-70.07"/>
<polygon fill="none" stroke="#404040" points="144.5,-69.74 140.5,-63.74 144.5,-57.74 148.5,-63.74 144.5,-69.74"/>
<text text-anchor="middle" x="160" y="-84.5" font-family="Helvetica,sans-Serif" font-size="10.00"> +state</text>
</g>
<!-- Node4 -->
<g id="node4" class="node">
<title>Node4</title>
<g id="a_node4"><a xlink:title=" ">
<polygon fill="none" stroke="black" points="199.5,-116.5 199.5,-173.5 271.5,-173.5 271.5,-116.5 199.5,-116.5"/>
<text text-anchor="middle" x="235.5" y="-161.5" font-family="Helvetica,sans-Serif" font-size="10.00">clock_time_t</text>
<polyline fill="none" stroke="black" points="199.5,-154.5 271.5,-154.5 "/>
<text text-anchor="middle" x="235.5" y="-142.5" font-family="Helvetica,sans-Serif" font-size="10.00"> </text>
<polyline fill="none" stroke="black" points="199.5,-135.5 271.5,-135.5 "/>
<text text-anchor="middle" x="235.5" y="-123.5" font-family="Helvetica,sans-Serif" font-size="10.00"> </text>
</a>
</g>
</g>
<!-- Node4&#45;&gt;Node1 -->
<g id="edge3" class="edge">
<title>Node4&#45;&gt;Node1</title>
<path fill="none" stroke="#404040" d="M213.47,-116.4C201.71,-101.67 187.07,-83.33 174.3,-67.34"/>
<polygon fill="none" stroke="#404040" points="174.13,-67.12 167.26,-64.92 166.64,-57.74 173.51,-59.93 174.13,-67.12"/>
<text text-anchor="middle" x="240" y="-84.5" font-family="Helvetica,sans-Serif" font-size="10.00"> +reuse_timestamp</text>
</g>
</g>
</svg>
