<?xml version="1.0" encoding="UTF-8" standalone="no"?>
<!DOCTYPE svg PUBLIC "-//W3C//DTD SVG 1.1//EN"
 "http://www.w3.org/Graphics/SVG/1.1/DTD/svg11.dtd">
<!-- Generated by graphviz version 2.43.0 (0)
 -->
<!-- Title: power_level_setting Pages: 1 -->
<svg width="276pt" height="171pt"
 viewBox="0.00 0.00 276.00 171.00" xmlns="http://www.w3.org/2000/svg" xmlns:xlink="http://www.w3.org/1999/xlink">
<g id="graph0" class="graph" transform="scale(1 1) rotate(0) translate(4 167)">
<title>power_level_setting</title>
<!-- Node1 -->
<g id="node1" class="node">
<title>Node1</title>
<g id="a_node1"><a xlink:title=" ">
<polygon fill="#bfbfbf" stroke="black" points="90.5,-0.5 90.5,-57.5 193.5,-57.5 193.5,-0.5 90.5,-0.5"/>
<text text-anchor="middle" x="142" y="-45.5" font-family="Helvetica,sans-Serif" font-size="10.00">power_level_setting</text>
<polyline fill="none" stroke="black" points="90.5,-38.5 193.5,-38.5 "/>
<text text-anchor="middle" x="142" y="-26.5" font-family="Helvetica,sans-Serif" font-size="10.00"> </text>
<polyline fill="none" stroke="black" points="90.5,-19.5 193.5,-19.5 "/>
<text text-anchor="middle" x="142" y="-7.5" font-family="Helvetica,sans-Serif" font-size="10.00"> </text>
</a>
</g>
</g>
<!-- Node2 -->
<g id="node2" class="node">
<title>Node2</title>
<g id="a_node2"><a xlink:title=" ">
<polygon fill="none" stroke="black" points="0,-105.5 0,-162.5 88,-162.5 88,-105.5 0,-105.5"/>
<text text-anchor="middle" x="44" y="-150.5" font-family="Helvetica,sans-Serif" font-size="10.00">rf_power_level_t</text>
<polyline fill="none" stroke="black" points="0,-143.5 88,-143.5 "/>
<text text-anchor="middle" x="44" y="-131.5" font-family="Helvetica,sans-Serif" font-size="10.00"> </text>
<polyline fill="none" stroke="black" points="0,-124.5 88,-124.5 "/>
<text text-anchor="middle" x="44" y="-112.5" font-family="Helvetica,sans-Serif" font-size="10.00"> </text>
</a>
</g>
</g>
<!-- Node2&#45;&gt;Node1 -->
<g id="edge1" class="edge">
<title>Node2&#45;&gt;Node1</title>
<path fill="none" stroke="#404040" d="M56.92,-105.29C62.3,-95.41 69.14,-84.61 77,-76 80.41,-72.27 84.17,-68.66 88.11,-65.22"/>
<polygon fill="none" stroke="#404040" points="88.26,-65.11 90.38,-58.21 97.56,-57.53 95.43,-64.42 88.26,-65.11"/>
<text text-anchor="middle" x="107.5" y="-79" font-family="Helvetica,sans-Serif" font-size="10.00"> +power_level</text>
</g>
<!-- Node3 -->
<g id="node3" class="node">
<title>Node3</title>
<g id="a_node3"><a xlink:title=" ">
<polygon fill="none" stroke="black" points="106.5,-105.5 106.5,-162.5 177.5,-162.5 177.5,-105.5 106.5,-105.5"/>
<text text-anchor="middle" x="142" y="-150.5" font-family="Helvetica,sans-Serif" font-size="10.00">struct ctimer</text>
<polyline fill="none" stroke="black" points="106.5,-143.5 177.5,-143.5 "/>
<text text-anchor="middle" x="142" y="-131.5" font-family="Helvetica,sans-Serif" font-size="10.00"> </text>
<polyline fill="none" stroke="black" points="106.5,-124.5 177.5,-124.5 "/>
<text text-anchor="middle" x="142" y="-112.5" font-family="Helvetica,sans-Serif" font-size="10.00"> </text>
</a>
</g>
</g>
<!-- Node3&#45;&gt;Node1 -->
<g id="edge2" class="edge">
<title>Node3&#45;&gt;Node1</title>
<path fill="none" stroke="#404040" d="M142,-105.4C142,-94.55 142,-81.87 142,-70.05"/>
<polygon fill="none" stroke="#404040" points="142,-69.68 138,-63.68 142,-57.68 146,-63.68 142,-69.68"/>
<text text-anchor="middle" x="157.5" y="-79" font-family="Helvetica,sans-Serif" font-size="10.00"> +timer</text>
</g>
<!-- Node4 -->
<g id="node4" class="node">
<title>Node4</title>
<g id="a_node4"><a xlink:title=" ">
<polygon fill="none" stroke="black" points="196,-105.5 196,-162.5 268,-162.5 268,-105.5 196,-105.5"/>
<text text-anchor="middle" x="232" y="-150.5" font-family="Helvetica,sans-Serif" font-size="10.00">clock_time_t</text>
<polyline fill="none" stroke="black" points="196,-143.5 268,-143.5 "/>
<text text-anchor="middle" x="232" y="-131.5" font-family="Helvetica,sans-Serif" font-size="10.00"> </text>
<polyline fill="none" stroke="black" points="196,-124.5 268,-124.5 "/>
<text text-anchor="middle" x="232" y="-112.5" font-family="Helvetica,sans-Serif" font-size="10.00"> </text>
</a>
</g>
</g>
<!-- Node4&#45;&gt;Node1 -->
<g id="edge3" class="edge">
<title>Node4&#45;&gt;Node1</title>
<path fill="none" stroke="#404040" d="M207.88,-105.4C197.59,-93.62 185.43,-79.7 174.37,-67.05"/>
<polygon fill="none" stroke="#404040" points="174.08,-66.71 167.12,-64.83 166.18,-57.68 173.14,-59.56 174.08,-66.71"/>
<text text-anchor="middle" x="227" y="-79" font-family="Helvetica,sans-Serif" font-size="10.00"> +expiration_time</text>
</g>
</g>
</svg>
