<?xml version="1.0" encoding="UTF-8" standalone="no"?>
<!DOCTYPE svg PUBLIC "-//W3C//DTD SVG 1.1//EN"
 "http://www.w3.org/Graphics/SVG/1.1/DTD/svg11.dtd">
<!-- Generated by graphviz version 2.43.0 (0)
 -->
<!-- Title: _ZW_COMMAND_SEGMENT_REQUEST_V2_FRAME_ Pages: 1 -->
<svg width="163pt" height="215pt"
 viewBox="0.00 0.00 162.50 215.00" xmlns="http://www.w3.org/2000/svg" xmlns:xlink="http://www.w3.org/1999/xlink">
<g id="graph0" class="graph" transform="scale(1 1) rotate(0) translate(4 211)">
<title>_ZW_COMMAND_SEGMENT_REQUEST_V2_FRAME_</title>
<!-- Node1 -->
<g id="node1" class="node">
<title>Node1</title>
<g id="a_node1"><a xlink:title=" ">
<polygon fill="#bfbfbf" stroke="black" points="0,-0.5 0,-68.5 151,-68.5 151,-0.5 0,-0.5"/>
<text text-anchor="start" x="8" y="-56.5" font-family="Helvetica,sans-Serif" font-size="10.00">_ZW_COMMAND_SEGMENT</text>
<text text-anchor="middle" x="75.5" y="-45.5" font-family="Helvetica,sans-Serif" font-size="10.00">_REQUEST_V2_FRAME_</text>
<polyline fill="none" stroke="black" points="0,-38.5 151,-38.5 "/>
<text text-anchor="middle" x="75.5" y="-26.5" font-family="Helvetica,sans-Serif" font-size="10.00"> </text>
<polyline fill="none" stroke="black" points="0,-19.5 151,-19.5 "/>
<text text-anchor="middle" x="75.5" y="-7.5" font-family="Helvetica,sans-Serif" font-size="10.00"> </text>
</a>
</g>
</g>
<!-- Node2 -->
<g id="node2" class="node">
<title>Node2</title>
<g id="a_node2"><a xlink:title=" ">
<polygon fill="none" stroke="black" points="52.5,-149.5 52.5,-206.5 98.5,-206.5 98.5,-149.5 52.5,-149.5"/>
<text text-anchor="middle" x="75.5" y="-194.5" font-family="Helvetica,sans-Serif" font-size="10.00">uint8_t</text>
<polyline fill="none" stroke="black" points="52.5,-187.5 98.5,-187.5 "/>
<text text-anchor="middle" x="75.5" y="-175.5" font-family="Helvetica,sans-Serif" font-size="10.00"> </text>
<polyline fill="none" stroke="black" points="52.5,-168.5 98.5,-168.5 "/>
<text text-anchor="middle" x="75.5" y="-156.5" font-family="Helvetica,sans-Serif" font-size="10.00"> </text>
</a>
</g>
</g>
<!-- Node2&#45;&gt;Node1 -->
<g id="edge1" class="edge">
<title>Node2&#45;&gt;Node1</title>
<path fill="none" stroke="#404040" d="M75.5,-149.38C75.5,-129.84 75.5,-103.19 75.5,-80.59"/>
<polygon fill="none" stroke="#404040" points="75.5,-80.52 71.5,-74.52 75.5,-68.52 79.5,-74.52 75.5,-80.52"/>
<text text-anchor="middle" x="115" y="-123" font-family="Helvetica,sans-Serif" font-size="10.00"> +cmdClass</text>
<text text-anchor="middle" x="115" y="-112" font-family="Helvetica,sans-Serif" font-size="10.00">+cmd_reserved</text>
<text text-anchor="middle" x="115" y="-101" font-family="Helvetica,sans-Serif" font-size="10.00">+datagramOffset2</text>
<text text-anchor="middle" x="115" y="-90" font-family="Helvetica,sans-Serif" font-size="10.00">+properties2</text>
</g>
</g>
</svg>
