<?xml version="1.0" encoding="UTF-8" standalone="no"?>
<!DOCTYPE svg PUBLIC "-//W3C//DTD SVG 1.1//EN"
 "http://www.w3.org/Graphics/SVG/1.1/DTD/svg11.dtd">
<!-- Generated by graphviz version 2.43.0 (0)
 -->
<!-- Title: association_group_info_report_frame Pages: 1 -->
<svg width="225pt" height="215pt"
 viewBox="0.00 0.00 225.00 215.00" xmlns="http://www.w3.org/2000/svg" xmlns:xlink="http://www.w3.org/1999/xlink">
<g id="graph0" class="graph" transform="scale(1 1) rotate(0) translate(4 211)">
<title>association_group_info_report_frame</title>
<!-- Node1 -->
<g id="node1" class="node">
<title>Node1</title>
<g id="a_node1"><a xlink:title=" ">
<polygon fill="#bfbfbf" stroke="black" points="22,-0.5 22,-68.5 138,-68.5 138,-0.5 22,-0.5"/>
<text text-anchor="start" x="30" y="-56.5" font-family="Helvetica,sans-Serif" font-size="10.00">association_group_info</text>
<text text-anchor="middle" x="80" y="-45.5" font-family="Helvetica,sans-Serif" font-size="10.00">_report_frame</text>
<polyline fill="none" stroke="black" points="22,-38.5 138,-38.5 "/>
<text text-anchor="middle" x="80" y="-26.5" font-family="Helvetica,sans-Serif" font-size="10.00"> </text>
<polyline fill="none" stroke="black" points="22,-19.5 138,-19.5 "/>
<text text-anchor="middle" x="80" y="-7.5" font-family="Helvetica,sans-Serif" font-size="10.00"> </text>
</a>
</g>
</g>
<!-- Node2 -->
<g id="node2" class="node">
<title>Node2</title>
<g id="a_node2"><a xlink:title=" ">
<polygon fill="none" stroke="black" points="0,-144 0,-201 46,-201 46,-144 0,-144"/>
<text text-anchor="middle" x="23" y="-189" font-family="Helvetica,sans-Serif" font-size="10.00">uint8_t</text>
<polyline fill="none" stroke="black" points="0,-182 46,-182 "/>
<text text-anchor="middle" x="23" y="-170" font-family="Helvetica,sans-Serif" font-size="10.00"> </text>
<polyline fill="none" stroke="black" points="0,-163 46,-163 "/>
<text text-anchor="middle" x="23" y="-151" font-family="Helvetica,sans-Serif" font-size="10.00"> </text>
</a>
</g>
</g>
<!-- Node2&#45;&gt;Node1 -->
<g id="edge1" class="edge">
<title>Node2&#45;&gt;Node1</title>
<path fill="none" stroke="#404040" d="M23.91,-143.79C25.35,-126.75 28.82,-104.84 37,-87 38.27,-84.22 39.74,-81.47 41.34,-78.77"/>
<polygon fill="none" stroke="#404040" points="41.43,-78.64 41.44,-71.43 48.1,-68.67 48.09,-75.88 41.43,-78.64"/>
<text text-anchor="middle" x="76" y="-112" font-family="Helvetica,sans-Serif" font-size="10.00"> +command</text>
<text text-anchor="middle" x="76" y="-101" font-family="Helvetica,sans-Serif" font-size="10.00">+command_class</text>
<text text-anchor="middle" x="76" y="-90" font-family="Helvetica,sans-Serif" font-size="10.00">+properties</text>
</g>
<!-- Node3 -->
<g id="node3" class="node">
<title>Node3</title>
<g id="a_node3"><a xlink:title=" ">
<polygon fill="none" stroke="black" points="64,-138.5 64,-206.5 210,-206.5 210,-138.5 64,-138.5"/>
<text text-anchor="start" x="72" y="-194.5" font-family="Helvetica,sans-Serif" font-size="10.00">VG_ASSOCIATION_GROUP</text>
<text text-anchor="middle" x="137" y="-183.5" font-family="Helvetica,sans-Serif" font-size="10.00">_INFO_REPORT_VG</text>
<polyline fill="none" stroke="black" points="64,-176.5 210,-176.5 "/>
<text text-anchor="middle" x="137" y="-164.5" font-family="Helvetica,sans-Serif" font-size="10.00"> </text>
<polyline fill="none" stroke="black" points="64,-157.5 210,-157.5 "/>
<text text-anchor="middle" x="137" y="-145.5" font-family="Helvetica,sans-Serif" font-size="10.00"> </text>
</a>
</g>
</g>
<!-- Node3&#45;&gt;Node1 -->
<g id="edge2" class="edge">
<title>Node3&#45;&gt;Node1</title>
<path fill="none" stroke="#404040" d="M131.07,-138.1C127.55,-122.19 122.33,-103.15 115,-87 113.81,-84.38 112.5,-81.75 111.09,-79.15"/>
<polygon fill="none" stroke="#404040" points="110.97,-78.95 104.48,-75.8 104.89,-68.6 111.38,-71.75 110.97,-78.95"/>
<text text-anchor="middle" x="171.5" y="-101" font-family="Helvetica,sans-Serif" font-size="10.00"> +vg_ass_group_info</text>
</g>
</g>
</svg>
