<?xml version="1.0" encoding="UTF-8" standalone="no"?>
<!DOCTYPE svg PUBLIC "-//W3C//DTD SVG 1.1//EN"
 "http://www.w3.org/Graphics/SVG/1.1/DTD/svg11.dtd">
<!-- Generated by graphviz version 2.43.0 (0)
 -->
<!-- Title: zwave_controller_callbacks_t Pages: 1 -->
<svg width="2588pt" height="303pt"
 viewBox="0.00 0.00 2587.50 303.00" xmlns="http://www.w3.org/2000/svg" xmlns:xlink="http://www.w3.org/1999/xlink">
<g id="graph0" class="graph" transform="scale(1 1) rotate(0) translate(4 299)">
<title>zwave_controller_callbacks_t</title>
<!-- Node1 -->
<g id="node1" class="node">
<title>Node1</title>
<g id="a_node1"><a xlink:title="The following structure holds all the callbacks this module will emit.">
<polygon fill="#bfbfbf" stroke="black" points="1224,-0.5 1224,-57.5 1369,-57.5 1369,-0.5 1224,-0.5"/>
<text text-anchor="middle" x="1296.5" y="-45.5" font-family="Helvetica,sans-Serif" font-size="10.00">zwave_controller_callbacks_t</text>
<polyline fill="none" stroke="black" points="1224,-38.5 1369,-38.5 "/>
<text text-anchor="middle" x="1296.5" y="-26.5" font-family="Helvetica,sans-Serif" font-size="10.00"> </text>
<polyline fill="none" stroke="black" points="1224,-19.5 1369,-19.5 "/>
<text text-anchor="middle" x="1296.5" y="-7.5" font-family="Helvetica,sans-Serif" font-size="10.00"> </text>
</a>
</g>
</g>
<!-- Node2 -->
<g id="node2" class="node">
<title>Node2</title>
<g id="a_node2"><a xlink:title=" ">
<polygon fill="none" stroke="black" points="0,-182.5 0,-250.5 141,-250.5 141,-182.5 0,-182.5"/>
<text text-anchor="start" x="8" y="-238.5" font-family="Helvetica,sans-Serif" font-size="10.00">void(*)(zwave_network</text>
<text text-anchor="middle" x="70.5" y="-227.5" font-family="Helvetica,sans-Serif" font-size="10.00">_management_state_t state)</text>
<polyline fill="none" stroke="black" points="0,-220.5 141,-220.5 "/>
<text text-anchor="middle" x="70.5" y="-208.5" font-family="Helvetica,sans-Serif" font-size="10.00"> </text>
<polyline fill="none" stroke="black" points="0,-201.5 141,-201.5 "/>
<text text-anchor="middle" x="70.5" y="-189.5" font-family="Helvetica,sans-Serif" font-size="10.00"> </text>
</a>
</g>
</g>
<!-- Node2&#45;&gt;Node1 -->
<g id="edge1" class="edge">
<title>Node2&#45;&gt;Node1</title>
<path fill="none" stroke="#404040" d="M95.63,-182.39C124,-148.07 173.69,-96.62 230.5,-76 321.54,-42.95 975.25,-33.2 1211.55,-30.74"/>
<polygon fill="none" stroke="#404040" points="1211.83,-30.74 1217.79,-26.67 1223.83,-30.61 1217.87,-34.67 1211.83,-30.74"/>
<text text-anchor="middle" x="274" y="-95.5" font-family="Helvetica,sans-Serif" font-size="10.00"> +on_state_updated</text>
</g>
<!-- Node3 -->
<g id="node3" class="node">
<title>Node3</title>
<g id="a_node3"><a xlink:title=" ">
<polygon fill="none" stroke="black" points="159,-182.5 159,-250.5 296,-250.5 296,-182.5 159,-182.5"/>
<text text-anchor="start" x="167" y="-238.5" font-family="Helvetica,sans-Serif" font-size="10.00">void(*)(zwave_network</text>
<text text-anchor="middle" x="227.5" y="-227.5" font-family="Helvetica,sans-Serif" font-size="10.00">_management_error_t error)</text>
<polyline fill="none" stroke="black" points="159,-220.5 296,-220.5 "/>
<text text-anchor="middle" x="227.5" y="-208.5" font-family="Helvetica,sans-Serif" font-size="10.00"> </text>
<polyline fill="none" stroke="black" points="159,-201.5 296,-201.5 "/>
<text text-anchor="middle" x="227.5" y="-189.5" font-family="Helvetica,sans-Serif" font-size="10.00"> </text>
</a>
</g>
</g>
<!-- Node3&#45;&gt;Node1 -->
<g id="edge2" class="edge">
<title>Node3&#45;&gt;Node1</title>
<path fill="none" stroke="#404040" d="M253.39,-182.21C282.58,-147.74 333.61,-96.15 391.5,-76 467.57,-49.52 1001.1,-35.97 1211.49,-31.61"/>
<polygon fill="none" stroke="#404040" points="1211.68,-31.6 1217.6,-27.48 1223.68,-31.36 1217.76,-35.48 1211.68,-31.6"/>
<text text-anchor="middle" x="414" y="-95.5" font-family="Helvetica,sans-Serif" font-size="10.00"> +on_error</text>
</g>
<!-- Node4 -->
<g id="node4" class="node">
<title>Node4</title>
<g id="a_node4"><a xlink:title=" ">
<polygon fill="none" stroke="black" points="314,-171.5 314,-261.5 463,-261.5 463,-171.5 314,-171.5"/>
<text text-anchor="start" x="322" y="-249.5" font-family="Helvetica,sans-Serif" font-size="10.00">void(*)(zwave_node</text>
<text text-anchor="start" x="322" y="-238.5" font-family="Helvetica,sans-Serif" font-size="10.00">_id_t node_id, bool</text>
<text text-anchor="start" x="322" y="-227.5" font-family="Helvetica,sans-Serif" font-size="10.00"> included_by_us, zwave</text>
<text text-anchor="middle" x="388.5" y="-216.5" font-family="Helvetica,sans-Serif" font-size="10.00">_protocol_t inclusion_protocol)</text>
<polyline fill="none" stroke="black" points="314,-209.5 463,-209.5 "/>
<text text-anchor="middle" x="388.5" y="-197.5" font-family="Helvetica,sans-Serif" font-size="10.00"> </text>
<polyline fill="none" stroke="black" points="314,-190.5 463,-190.5 "/>
<text text-anchor="middle" x="388.5" y="-178.5" font-family="Helvetica,sans-Serif" font-size="10.00"> </text>
</a>
</g>
</g>
<!-- Node4&#45;&gt;Node1 -->
<g id="edge3" class="edge">
<title>Node4&#45;&gt;Node1</title>
<path fill="none" stroke="#404040" d="M406.94,-171.32C423.06,-138.83 449.82,-96.84 487.5,-76 549.64,-41.63 1017.05,-32.86 1211.76,-30.69"/>
<polygon fill="none" stroke="#404040" points="1211.91,-30.69 1217.86,-26.62 1223.91,-30.56 1217.95,-34.62 1211.91,-30.69"/>
<text text-anchor="middle" x="539" y="-95.5" font-family="Helvetica,sans-Serif" font-size="10.00"> +on_node_id_assigned</text>
</g>
<!-- Node5 -->
<g id="node5" class="node">
<title>Node5</title>
<g id="a_node5"><a xlink:title=" ">
<polygon fill="none" stroke="black" points="480.5,-182.5 480.5,-250.5 582.5,-250.5 582.5,-182.5 480.5,-182.5"/>
<text text-anchor="start" x="488.5" y="-238.5" font-family="Helvetica,sans-Serif" font-size="10.00">void(*)(zwave_node</text>
<text text-anchor="middle" x="531.5" y="-227.5" font-family="Helvetica,sans-Serif" font-size="10.00">_id_t node_id)</text>
<polyline fill="none" stroke="black" points="480.5,-220.5 582.5,-220.5 "/>
<text text-anchor="middle" x="531.5" y="-208.5" font-family="Helvetica,sans-Serif" font-size="10.00"> </text>
<polyline fill="none" stroke="black" points="480.5,-201.5 582.5,-201.5 "/>
<text text-anchor="middle" x="531.5" y="-189.5" font-family="Helvetica,sans-Serif" font-size="10.00"> </text>
</a>
</g>
</g>
<!-- Node5&#45;&gt;Node1 -->
<g id="edge4" class="edge">
<title>Node5&#45;&gt;Node1</title>
<path fill="none" stroke="#404040" d="M548.21,-182.24C567.15,-148.59 601.49,-98.42 647.5,-76 696.95,-51.9 1046.93,-37.84 1211.44,-32.5"/>
<polygon fill="none" stroke="#404040" points="1211.92,-32.48 1217.79,-28.29 1223.91,-32.1 1218.04,-36.29 1211.92,-32.48"/>
<text text-anchor="middle" x="699" y="-112" font-family="Helvetica,sans-Serif" font-size="10.00"> +on_node_deleted</text>
<text text-anchor="start" x="647.5" y="-101" font-family="Helvetica,sans-Serif" font-size="10.00">+on_node_info_req</text>
<text text-anchor="middle" x="699" y="-90" font-family="Helvetica,sans-Serif" font-size="10.00">_failed</text>
<text text-anchor="middle" x="699" y="-79" font-family="Helvetica,sans-Serif" font-size="10.00">+on_rx_frame_received</text>
</g>
<!-- Node6 -->
<g id="node6" class="node">
<title>Node6</title>
<g id="a_node6"><a xlink:title=" ">
<polygon fill="none" stroke="black" points="600.5,-149.5 600.5,-283.5 784.5,-283.5 784.5,-149.5 600.5,-149.5"/>
<text text-anchor="start" x="608.5" y="-271.5" font-family="Helvetica,sans-Serif" font-size="10.00">void(*)(sl_status_t</text>
<text text-anchor="start" x="608.5" y="-260.5" font-family="Helvetica,sans-Serif" font-size="10.00"> status, const zwave</text>
<text text-anchor="start" x="608.5" y="-249.5" font-family="Helvetica,sans-Serif" font-size="10.00">_node_info_t *nif, zwave</text>
<text text-anchor="start" x="608.5" y="-238.5" font-family="Helvetica,sans-Serif" font-size="10.00">_node_id_t node_id, const</text>
<text text-anchor="start" x="608.5" y="-227.5" font-family="Helvetica,sans-Serif" font-size="10.00"> zwave_dsk_t dsk, zwave_keyset</text>
<text text-anchor="start" x="608.5" y="-216.5" font-family="Helvetica,sans-Serif" font-size="10.00">_t granted_keys, zwave_kex_fail</text>
<text text-anchor="start" x="608.5" y="-205.5" font-family="Helvetica,sans-Serif" font-size="10.00">_type_t kex_fail_type, zwave_protocol</text>
<text text-anchor="middle" x="692.5" y="-194.5" font-family="Helvetica,sans-Serif" font-size="10.00">_t inclusion_protocol)</text>
<polyline fill="none" stroke="black" points="600.5,-187.5 784.5,-187.5 "/>
<text text-anchor="middle" x="692.5" y="-175.5" font-family="Helvetica,sans-Serif" font-size="10.00"> </text>
<polyline fill="none" stroke="black" points="600.5,-168.5 784.5,-168.5 "/>
<text text-anchor="middle" x="692.5" y="-156.5" font-family="Helvetica,sans-Serif" font-size="10.00"> </text>
</a>
</g>
</g>
<!-- Node6&#45;&gt;Node1 -->
<g id="edge5" class="edge">
<title>Node6&#45;&gt;Node1</title>
<path fill="none" stroke="#404040" d="M730.47,-149.46C749.86,-122 776.03,-92.69 807.5,-76 875.51,-39.94 1090.82,-31.86 1211.83,-30.23"/>
<polygon fill="none" stroke="#404040" points="1211.95,-30.23 1217.91,-26.16 1223.95,-30.09 1218,-34.16 1211.95,-30.23"/>
<text text-anchor="middle" x="846.5" y="-95.5" font-family="Helvetica,sans-Serif" font-size="10.00"> +on_node_added</text>
</g>
<!-- Node7 -->
<g id="node7" class="node">
<title>Node7</title>
<g id="a_node7"><a xlink:title=" ">
<polygon fill="none" stroke="black" points="802.5,-177 802.5,-256 914.5,-256 914.5,-177 802.5,-177"/>
<text text-anchor="start" x="810.5" y="-244" font-family="Helvetica,sans-Serif" font-size="10.00">void(*)(zwave_home</text>
<text text-anchor="start" x="810.5" y="-233" font-family="Helvetica,sans-Serif" font-size="10.00">_id_t home_id, zwave</text>
<text text-anchor="middle" x="858.5" y="-222" font-family="Helvetica,sans-Serif" font-size="10.00">_node_id_t node_id)</text>
<polyline fill="none" stroke="black" points="802.5,-215 914.5,-215 "/>
<text text-anchor="middle" x="858.5" y="-203" font-family="Helvetica,sans-Serif" font-size="10.00"> </text>
<polyline fill="none" stroke="black" points="802.5,-196 914.5,-196 "/>
<text text-anchor="middle" x="858.5" y="-184" font-family="Helvetica,sans-Serif" font-size="10.00"> </text>
</a>
</g>
</g>
<!-- Node7&#45;&gt;Node1 -->
<g id="edge6" class="edge">
<title>Node7&#45;&gt;Node1</title>
<path fill="none" stroke="#404040" d="M865.99,-176.95C874.42,-144.57 891.5,-99.86 924.5,-76 968.96,-43.86 1116.23,-34.1 1211.59,-31.18"/>
<polygon fill="none" stroke="#404040" points="1211.82,-31.18 1217.71,-27.01 1223.82,-30.84 1217.93,-35.01 1211.82,-31.18"/>
<text text-anchor="start" x="924.5" y="-101" font-family="Helvetica,sans-Serif" font-size="10.00"> +on_network_address</text>
<text text-anchor="middle" x="974.5" y="-90" font-family="Helvetica,sans-Serif" font-size="10.00">_update</text>
</g>
<!-- Node8 -->
<g id="node8" class="node">
<title>Node8</title>
<g id="a_node8"><a xlink:title=" ">
<polygon fill="none" stroke="black" points="932.5,-160.5 932.5,-272.5 1070.5,-272.5 1070.5,-160.5 932.5,-160.5"/>
<text text-anchor="start" x="940.5" y="-260.5" font-family="Helvetica,sans-Serif" font-size="10.00">void(*)(zwave_home</text>
<text text-anchor="start" x="940.5" y="-249.5" font-family="Helvetica,sans-Serif" font-size="10.00">_id_t home_id, zwave</text>
<text text-anchor="start" x="940.5" y="-238.5" font-family="Helvetica,sans-Serif" font-size="10.00">_node_id_t node_id, zwave</text>
<text text-anchor="start" x="940.5" y="-227.5" font-family="Helvetica,sans-Serif" font-size="10.00">_keyset_t granted_keys,</text>
<text text-anchor="start" x="940.5" y="-216.5" font-family="Helvetica,sans-Serif" font-size="10.00"> zwave_kex_fail_type_t kex</text>
<text text-anchor="middle" x="1001.5" y="-205.5" font-family="Helvetica,sans-Serif" font-size="10.00">_fail_type)</text>
<polyline fill="none" stroke="black" points="932.5,-198.5 1070.5,-198.5 "/>
<text text-anchor="middle" x="1001.5" y="-186.5" font-family="Helvetica,sans-Serif" font-size="10.00"> </text>
<polyline fill="none" stroke="black" points="932.5,-179.5 1070.5,-179.5 "/>
<text text-anchor="middle" x="1001.5" y="-167.5" font-family="Helvetica,sans-Serif" font-size="10.00"> </text>
</a>
</g>
</g>
<!-- Node8&#45;&gt;Node1 -->
<g id="edge7" class="edge">
<title>Node8&#45;&gt;Node1</title>
<path fill="none" stroke="#404040" d="M1012.2,-160.25C1020.71,-130.98 1035.65,-96.86 1061.5,-76 1084.46,-57.48 1154.17,-45.35 1211.75,-38.23"/>
<polygon fill="none" stroke="#404040" points="1211.92,-38.21 1217.4,-33.52 1223.83,-36.78 1218.35,-41.47 1211.92,-38.21"/>
<text text-anchor="middle" x="1122" y="-95.5" font-family="Helvetica,sans-Serif" font-size="10.00"> +on_new_network_entered</text>
</g>
<!-- Node9 -->
<g id="node9" class="node">
<title>Node9</title>
<g id="a_node9"><a xlink:title=" ">
<polygon fill="none" stroke="black" points="1089,-182.5 1089,-250.5 1208,-250.5 1208,-182.5 1089,-182.5"/>
<text text-anchor="start" x="1097" y="-238.5" font-family="Helvetica,sans-Serif" font-size="10.00">void(*)(bool csa, zwave</text>
<text text-anchor="middle" x="1148.5" y="-227.5" font-family="Helvetica,sans-Serif" font-size="10.00">_keyset_t keys)</text>
<polyline fill="none" stroke="black" points="1089,-220.5 1208,-220.5 "/>
<text text-anchor="middle" x="1148.5" y="-208.5" font-family="Helvetica,sans-Serif" font-size="10.00"> </text>
<polyline fill="none" stroke="black" points="1089,-201.5 1208,-201.5 "/>
<text text-anchor="middle" x="1148.5" y="-189.5" font-family="Helvetica,sans-Serif" font-size="10.00"> </text>
</a>
</g>
</g>
<!-- Node9&#45;&gt;Node1 -->
<g id="edge8" class="edge">
<title>Node9&#45;&gt;Node1</title>
<path fill="none" stroke="#404040" d="M1158.39,-182.33C1168.84,-151.8 1187.81,-106.72 1216.5,-76 1220.23,-72.01 1224.39,-68.26 1228.79,-64.77"/>
<polygon fill="none" stroke="#404040" points="1229.05,-64.58 1231.55,-57.82 1238.75,-57.52 1236.25,-64.29 1229.05,-64.58"/>
<text text-anchor="middle" x="1254.5" y="-95.5" font-family="Helvetica,sans-Serif" font-size="10.00"> +on_keys_report</text>
</g>
<!-- Node10 -->
<g id="node10" class="node">
<title>Node10</title>
<g id="a_node10"><a xlink:title=" ">
<polygon fill="none" stroke="black" points="1226.5,-177 1226.5,-256 1366.5,-256 1366.5,-177 1226.5,-177"/>
<text text-anchor="start" x="1234.5" y="-244" font-family="Helvetica,sans-Serif" font-size="10.00">void(*)(uint8_t input</text>
<text text-anchor="start" x="1234.5" y="-233" font-family="Helvetica,sans-Serif" font-size="10.00">_length, zwave_dsk_t</text>
<text text-anchor="middle" x="1296.5" y="-222" font-family="Helvetica,sans-Serif" font-size="10.00"> dsk, zwave_keyset_t keys)</text>
<polyline fill="none" stroke="black" points="1226.5,-215 1366.5,-215 "/>
<text text-anchor="middle" x="1296.5" y="-203" font-family="Helvetica,sans-Serif" font-size="10.00"> </text>
<polyline fill="none" stroke="black" points="1226.5,-196 1366.5,-196 "/>
<text text-anchor="middle" x="1296.5" y="-184" font-family="Helvetica,sans-Serif" font-size="10.00"> </text>
</a>
</g>
</g>
<!-- Node10&#45;&gt;Node1 -->
<g id="edge9" class="edge">
<title>Node10&#45;&gt;Node1</title>
<path fill="none" stroke="#404040" d="M1296.5,-176.61C1296.5,-145.33 1296.5,-101.54 1296.5,-69.98"/>
<polygon fill="none" stroke="#404040" points="1296.5,-69.69 1292.5,-63.69 1296.5,-57.69 1300.5,-63.69 1296.5,-69.69"/>
<text text-anchor="middle" x="1332" y="-95.5" font-family="Helvetica,sans-Serif" font-size="10.00"> +on_dsk_report</text>
</g>
<!-- Node11 -->
<g id="node11" class="node">
<title>Node11</title>
<g id="a_node11"><a xlink:title=" ">
<polygon fill="none" stroke="black" points="1385,-155 1385,-278 1528,-278 1528,-155 1385,-155"/>
<text text-anchor="start" x="1393" y="-266" font-family="Helvetica,sans-Serif" font-size="10.00">void(*)(const zwave</text>
<text text-anchor="start" x="1393" y="-255" font-family="Helvetica,sans-Serif" font-size="10.00">_controller_connection</text>
<text text-anchor="start" x="1393" y="-244" font-family="Helvetica,sans-Serif" font-size="10.00">_info_t *connection_info,</text>
<text text-anchor="start" x="1393" y="-233" font-family="Helvetica,sans-Serif" font-size="10.00"> const zwave_rx_receive</text>
<text text-anchor="start" x="1393" y="-222" font-family="Helvetica,sans-Serif" font-size="10.00">_options_t *rx_options, const</text>
<text text-anchor="start" x="1393" y="-211" font-family="Helvetica,sans-Serif" font-size="10.00"> uint8_t *frame_data, uint16</text>
<text text-anchor="middle" x="1456.5" y="-200" font-family="Helvetica,sans-Serif" font-size="10.00">_t frame_length)</text>
<polyline fill="none" stroke="black" points="1385,-193 1528,-193 "/>
<text text-anchor="middle" x="1456.5" y="-181" font-family="Helvetica,sans-Serif" font-size="10.00"> </text>
<polyline fill="none" stroke="black" points="1385,-174 1528,-174 "/>
<text text-anchor="middle" x="1456.5" y="-162" font-family="Helvetica,sans-Serif" font-size="10.00"> </text>
</a>
</g>
</g>
<!-- Node11&#45;&gt;Node1 -->
<g id="edge10" class="edge">
<title>Node11&#45;&gt;Node1</title>
<path fill="none" stroke="#404040" d="M1427.74,-154.79C1413.34,-128.53 1394.13,-98.69 1371.5,-76 1367.63,-72.12 1363.38,-68.43 1358.92,-64.94"/>
<polygon fill="none" stroke="#404040" points="1358.62,-64.72 1351.41,-64.42 1348.91,-57.66 1356.12,-57.96 1358.62,-64.72"/>
<text text-anchor="start" x="1404.5" y="-112" font-family="Helvetica,sans-Serif" font-size="10.00"> +on_application_frame</text>
<text text-anchor="middle" x="1455.5" y="-101" font-family="Helvetica,sans-Serif" font-size="10.00">_received</text>
<text text-anchor="start" x="1404.5" y="-90" font-family="Helvetica,sans-Serif" font-size="10.00">+on_protocol_frame</text>
<text text-anchor="middle" x="1455.5" y="-79" font-family="Helvetica,sans-Serif" font-size="10.00">_received</text>
</g>
<!-- Node12 -->
<g id="node12" class="node">
<title>Node12</title>
<g id="a_node12"><a xlink:title=" ">
<polygon fill="none" stroke="black" points="1546,-138.5 1546,-294.5 1705,-294.5 1705,-138.5 1546,-138.5"/>
<text text-anchor="start" x="1554" y="-282.5" font-family="Helvetica,sans-Serif" font-size="10.00">void(*)(const zwave</text>
<text text-anchor="start" x="1554" y="-271.5" font-family="Helvetica,sans-Serif" font-size="10.00">_node_id_t destination</text>
<text text-anchor="start" x="1554" y="-260.5" font-family="Helvetica,sans-Serif" font-size="10.00">_node_id, const uint8</text>
<text text-anchor="start" x="1554" y="-249.5" font-family="Helvetica,sans-Serif" font-size="10.00">_t payload_length, const</text>
<text text-anchor="start" x="1554" y="-238.5" font-family="Helvetica,sans-Serif" font-size="10.00"> uint8_t *const payload,</text>
<text text-anchor="start" x="1554" y="-227.5" font-family="Helvetica,sans-Serif" font-size="10.00"> const uint8_t protocol_metadata</text>
<text text-anchor="start" x="1554" y="-216.5" font-family="Helvetica,sans-Serif" font-size="10.00">_length, const uint8_t *const</text>
<text text-anchor="start" x="1554" y="-205.5" font-family="Helvetica,sans-Serif" font-size="10.00"> protocol_metadata, const uint8</text>
<text text-anchor="start" x="1554" y="-194.5" font-family="Helvetica,sans-Serif" font-size="10.00">_t use_supervision, const uint8</text>
<text text-anchor="middle" x="1625.5" y="-183.5" font-family="Helvetica,sans-Serif" font-size="10.00">_t session_id)</text>
<polyline fill="none" stroke="black" points="1546,-176.5 1705,-176.5 "/>
<text text-anchor="middle" x="1625.5" y="-164.5" font-family="Helvetica,sans-Serif" font-size="10.00"> </text>
<polyline fill="none" stroke="black" points="1546,-157.5 1705,-157.5 "/>
<text text-anchor="middle" x="1625.5" y="-145.5" font-family="Helvetica,sans-Serif" font-size="10.00"> </text>
</a>
</g>
</g>
<!-- Node12&#45;&gt;Node1 -->
<g id="edge11" class="edge">
<title>Node12&#45;&gt;Node1</title>
<path fill="none" stroke="#404040" d="M1577.05,-138.49C1558.85,-115.19 1536.24,-91.66 1510.5,-76 1471.79,-52.45 1422.72,-40.86 1381.33,-35.2"/>
<polygon fill="none" stroke="#404040" points="1381.23,-35.18 1374.77,-38.4 1369.32,-33.69 1375.77,-30.46 1381.23,-35.18"/>
<text text-anchor="start" x="1558.5" y="-101" font-family="Helvetica,sans-Serif" font-size="10.00"> +on_protocol_cc_encryption</text>
<text text-anchor="middle" x="1621.5" y="-90" font-family="Helvetica,sans-Serif" font-size="10.00">_request</text>
</g>
<!-- Node13 -->
<g id="node13" class="node">
<title>Node13</title>
<g id="a_node13"><a xlink:title=" ">
<polygon fill="none" stroke="black" points="1723.5,-166 1723.5,-267 1863.5,-267 1863.5,-166 1723.5,-166"/>
<text text-anchor="start" x="1731.5" y="-255" font-family="Helvetica,sans-Serif" font-size="10.00">void(*)(uint32_t home</text>
<text text-anchor="start" x="1731.5" y="-244" font-family="Helvetica,sans-Serif" font-size="10.00">_id, bool already_included,</text>
<text text-anchor="start" x="1731.5" y="-233" font-family="Helvetica,sans-Serif" font-size="10.00"> const zwave_node_info_t</text>
<text text-anchor="start" x="1731.5" y="-222" font-family="Helvetica,sans-Serif" font-size="10.00"> *node_info, zwave_protocol</text>
<text text-anchor="middle" x="1793.5" y="-211" font-family="Helvetica,sans-Serif" font-size="10.00">_t inclusion_protocol)</text>
<polyline fill="none" stroke="black" points="1723.5,-204 1863.5,-204 "/>
<text text-anchor="middle" x="1793.5" y="-192" font-family="Helvetica,sans-Serif" font-size="10.00"> </text>
<polyline fill="none" stroke="black" points="1723.5,-185 1863.5,-185 "/>
<text text-anchor="middle" x="1793.5" y="-173" font-family="Helvetica,sans-Serif" font-size="10.00"> </text>
</a>
</g>
</g>
<!-- Node13&#45;&gt;Node1 -->
<g id="edge12" class="edge">
<title>Node13&#45;&gt;Node1</title>
<path fill="none" stroke="#404040" d="M1769.48,-165.81C1751.65,-134.61 1724.25,-96.53 1688.5,-76 1637.8,-46.89 1480.53,-36.15 1381.29,-32.22"/>
<polygon fill="none" stroke="#404040" points="1381.17,-32.22 1375.03,-35.99 1369.18,-31.77 1375.33,-28 1381.17,-32.22"/>
<text text-anchor="start" x="1737.5" y="-101" font-family="Helvetica,sans-Serif" font-size="10.00"> +on_smart_start_inclusion</text>
<text text-anchor="middle" x="1796.5" y="-90" font-family="Helvetica,sans-Serif" font-size="10.00">_request</text>
</g>
<!-- Node14 -->
<g id="node14" class="node">
<title>Node14</title>
<g id="a_node14"><a xlink:title=" ">
<polygon fill="none" stroke="black" points="1882,-177 1882,-256 2037,-256 2037,-177 1882,-177"/>
<text text-anchor="start" x="1890" y="-244" font-family="Helvetica,sans-Serif" font-size="10.00">void(*)(zwave_node</text>
<text text-anchor="start" x="1890" y="-233" font-family="Helvetica,sans-Serif" font-size="10.00">_id_t node_id, const</text>
<text text-anchor="middle" x="1959.5" y="-222" font-family="Helvetica,sans-Serif" font-size="10.00"> zwave_node_info_t *node_info)</text>
<polyline fill="none" stroke="black" points="1882,-215 2037,-215 "/>
<text text-anchor="middle" x="1959.5" y="-203" font-family="Helvetica,sans-Serif" font-size="10.00"> </text>
<polyline fill="none" stroke="black" points="1882,-196 2037,-196 "/>
<text text-anchor="middle" x="1959.5" y="-184" font-family="Helvetica,sans-Serif" font-size="10.00"> </text>
</a>
</g>
</g>
<!-- Node14&#45;&gt;Node1 -->
<g id="edge13" class="edge">
<title>Node14&#45;&gt;Node1</title>
<path fill="none" stroke="#404040" d="M1943.23,-176.83C1927.14,-143.9 1899.17,-98.46 1859.5,-76 1818.96,-53.04 1528.37,-38.82 1381.31,-33.02"/>
<polygon fill="none" stroke="#404040" points="1381.25,-33.01 1375.09,-36.78 1369.25,-32.55 1375.41,-28.78 1381.25,-33.01"/>
<text text-anchor="middle" x="1957.5" y="-95.5" font-family="Helvetica,sans-Serif" font-size="10.00"> +on_node_information</text>
</g>
<!-- Node15 -->
<g id="node15" class="node">
<title>Node15</title>
<g id="a_node15"><a xlink:title=" ">
<polygon fill="none" stroke="black" points="2055.5,-182.5 2055.5,-250.5 2157.5,-250.5 2157.5,-182.5 2055.5,-182.5"/>
<text text-anchor="start" x="2063.5" y="-238.5" font-family="Helvetica,sans-Serif" font-size="10.00">void(*)(zwave_node</text>
<text text-anchor="middle" x="2106.5" y="-227.5" font-family="Helvetica,sans-Serif" font-size="10.00">_id_t suc_node_id)</text>
<polyline fill="none" stroke="black" points="2055.5,-220.5 2157.5,-220.5 "/>
<text text-anchor="middle" x="2106.5" y="-208.5" font-family="Helvetica,sans-Serif" font-size="10.00"> </text>
<polyline fill="none" stroke="black" points="2055.5,-201.5 2157.5,-201.5 "/>
<text text-anchor="middle" x="2106.5" y="-189.5" font-family="Helvetica,sans-Serif" font-size="10.00"> </text>
</a>
</g>
</g>
<!-- Node15&#45;&gt;Node1 -->
<g id="edge14" class="edge">
<title>Node15&#45;&gt;Node1</title>
<path fill="none" stroke="#404040" d="M2094.16,-182.4C2079.82,-149.14 2052.73,-99.53 2011.5,-76 1957.96,-45.45 1558.67,-34.63 1381.15,-31.3"/>
<polygon fill="none" stroke="#404040" points="1381.01,-31.3 1374.94,-35.19 1369.01,-31.08 1375.09,-27.19 1381.01,-31.3"/>
<text text-anchor="middle" x="2089.5" y="-95.5" font-family="Helvetica,sans-Serif" font-size="10.00"> +on_new_suc</text>
</g>
<!-- Node16 -->
<g id="node16" class="node">
<title>Node16</title>
<g id="a_node16"><a xlink:title=" ">
<polygon fill="none" stroke="black" points="2176,-182.5 2176,-250.5 2297,-250.5 2297,-182.5 2176,-182.5"/>
<text text-anchor="start" x="2184" y="-238.5" font-family="Helvetica,sans-Serif" font-size="10.00">void(*)(zwave_multicast</text>
<text text-anchor="middle" x="2236.5" y="-227.5" font-family="Helvetica,sans-Serif" font-size="10.00">_group_id_t group_id)</text>
<polyline fill="none" stroke="black" points="2176,-220.5 2297,-220.5 "/>
<text text-anchor="middle" x="2236.5" y="-208.5" font-family="Helvetica,sans-Serif" font-size="10.00"> </text>
<polyline fill="none" stroke="black" points="2176,-201.5 2297,-201.5 "/>
<text text-anchor="middle" x="2236.5" y="-189.5" font-family="Helvetica,sans-Serif" font-size="10.00"> </text>
</a>
</g>
</g>
<!-- Node16&#45;&gt;Node1 -->
<g id="edge15" class="edge">
<title>Node16&#45;&gt;Node1</title>
<path fill="none" stroke="#404040" d="M2220.61,-182.2C2202.66,-148.77 2170.04,-99.02 2125.5,-76 2060.63,-42.47 1579.07,-33.2 1381.1,-30.79"/>
<polygon fill="none" stroke="#404040" points="1381.05,-30.79 1375,-34.72 1369.05,-30.65 1375.1,-26.72 1381.05,-30.79"/>
<text text-anchor="start" x="2176.5" y="-101" font-family="Helvetica,sans-Serif" font-size="10.00"> +on_multicast_group</text>
<text text-anchor="middle" x="2223.5" y="-90" font-family="Helvetica,sans-Serif" font-size="10.00">_deleted</text>
</g>
<!-- Node17 -->
<g id="node17" class="node">
<title>Node17</title>
<g id="a_node17"><a xlink:title=" ">
<polygon fill="none" stroke="black" points="2315.5,-188 2315.5,-245 2425.5,-245 2425.5,-188 2315.5,-188"/>
<text text-anchor="middle" x="2370.5" y="-233" font-family="Helvetica,sans-Serif" font-size="10.00">void(*)(uint8_t status)</text>
<polyline fill="none" stroke="black" points="2315.5,-226 2425.5,-226 "/>
<text text-anchor="middle" x="2370.5" y="-214" font-family="Helvetica,sans-Serif" font-size="10.00"> </text>
<polyline fill="none" stroke="black" points="2315.5,-207 2425.5,-207 "/>
<text text-anchor="middle" x="2370.5" y="-195" font-family="Helvetica,sans-Serif" font-size="10.00"> </text>
</a>
</g>
</g>
<!-- Node17&#45;&gt;Node1 -->
<g id="edge16" class="edge">
<title>Node17&#45;&gt;Node1</title>
<path fill="none" stroke="#404040" d="M2360.43,-187.95C2346.67,-154.78 2318.56,-100.5 2274.5,-76 2197.59,-33.23 1605.14,-29.56 1381.55,-29.71"/>
<polygon fill="none" stroke="#404040" points="1381.27,-29.71 1375.27,-33.72 1369.27,-29.72 1375.27,-25.72 1381.27,-29.71"/>
<text text-anchor="start" x="2321.5" y="-101" font-family="Helvetica,sans-Serif" font-size="10.00"> +on_request_neighbor</text>
<text text-anchor="middle" x="2371.5" y="-90" font-family="Helvetica,sans-Serif" font-size="10.00">_update</text>
</g>
<!-- Node18 -->
<g id="node18" class="node">
<title>Node18</title>
<g id="a_node18"><a xlink:title=" ">
<polygon fill="none" stroke="black" points="2444,-171.5 2444,-261.5 2579,-261.5 2579,-171.5 2444,-171.5"/>
<text text-anchor="start" x="2452" y="-249.5" font-family="Helvetica,sans-Serif" font-size="10.00">void(*)(bool transmission</text>
<text text-anchor="start" x="2452" y="-238.5" font-family="Helvetica,sans-Serif" font-size="10.00">_successful, const zwapi</text>
<text text-anchor="start" x="2452" y="-227.5" font-family="Helvetica,sans-Serif" font-size="10.00">_tx_report_t *tx_report,</text>
<text text-anchor="middle" x="2511.5" y="-216.5" font-family="Helvetica,sans-Serif" font-size="10.00"> zwave_node_id_t node_id)</text>
<polyline fill="none" stroke="black" points="2444,-209.5 2579,-209.5 "/>
<text text-anchor="middle" x="2511.5" y="-197.5" font-family="Helvetica,sans-Serif" font-size="10.00"> </text>
<polyline fill="none" stroke="black" points="2444,-190.5 2579,-190.5 "/>
<text text-anchor="middle" x="2511.5" y="-178.5" font-family="Helvetica,sans-Serif" font-size="10.00"> </text>
</a>
</g>
</g>
<!-- Node18&#45;&gt;Node1 -->
<g id="edge17" class="edge">
<title>Node18&#45;&gt;Node1</title>
<path fill="none" stroke="#404040" d="M2497.1,-171.32C2483.97,-138.82 2461.1,-96.84 2425.5,-76 2380.65,-49.75 1636.49,-35.44 1381.46,-31.29"/>
<polygon fill="none" stroke="#404040" points="1381.33,-31.29 1375.26,-35.19 1369.33,-31.09 1375.39,-27.19 1381.33,-31.29"/>
<text text-anchor="middle" x="2524" y="-95.5" font-family="Helvetica,sans-Serif" font-size="10.00"> +on_frame_transmission</text>
</g>
</g>
</svg>
