<?xml version="1.0" encoding="UTF-8" standalone="no"?>
<!DOCTYPE svg PUBLIC "-//W3C//DTD SVG 1.1//EN"
 "http://www.w3.org/Graphics/SVG/1.1/DTD/svg11.dtd">
<!-- Generated by graphviz version 2.43.0 (0)
 -->
<!-- Title: multilevel_switch_state Pages: 1 -->
<svg width="260pt" height="204pt"
 viewBox="0.00 0.00 260.00 204.00" xmlns="http://www.w3.org/2000/svg" xmlns:xlink="http://www.w3.org/1999/xlink">
<g id="graph0" class="graph" transform="scale(1 1) rotate(0) translate(4 200)">
<title>multilevel_switch_state</title>
<!-- Node1 -->
<g id="node1" class="node">
<title>Node1</title>
<g id="a_node1"><a xlink:title="Full state of a multilevel Switch supporting node.">
<polygon fill="#bfbfbf" stroke="black" points="62.5,-0.5 62.5,-57.5 181.5,-57.5 181.5,-0.5 62.5,-0.5"/>
<text text-anchor="middle" x="122" y="-45.5" font-family="Helvetica,sans-Serif" font-size="10.00">multilevel_switch_state</text>
<polyline fill="none" stroke="black" points="62.5,-38.5 181.5,-38.5 "/>
<text text-anchor="middle" x="122" y="-26.5" font-family="Helvetica,sans-Serif" font-size="10.00"> </text>
<polyline fill="none" stroke="black" points="62.5,-19.5 181.5,-19.5 "/>
<text text-anchor="middle" x="122" y="-7.5" font-family="Helvetica,sans-Serif" font-size="10.00"> </text>
</a>
</g>
</g>
<!-- Node2 -->
<g id="node2" class="node">
<title>Node2</title>
<g id="a_node2"><a xlink:title=" ">
<polygon fill="none" stroke="black" points="0,-138.5 0,-195.5 134,-195.5 134,-138.5 0,-138.5"/>
<text text-anchor="middle" x="67" y="-183.5" font-family="Helvetica,sans-Serif" font-size="10.00">command_status_values_t</text>
<polyline fill="none" stroke="black" points="0,-176.5 134,-176.5 "/>
<text text-anchor="middle" x="67" y="-164.5" font-family="Helvetica,sans-Serif" font-size="10.00"> </text>
<polyline fill="none" stroke="black" points="0,-157.5 134,-157.5 "/>
<text text-anchor="middle" x="67" y="-145.5" font-family="Helvetica,sans-Serif" font-size="10.00"> </text>
</a>
</g>
</g>
<!-- Node2&#45;&gt;Node1 -->
<g id="edge1" class="edge">
<title>Node2&#45;&gt;Node1</title>
<path fill="none" stroke="#404040" d="M70.02,-138.23C72.76,-119.91 77.84,-95.75 87,-76 88.28,-73.25 89.74,-70.51 91.32,-67.82"/>
<polygon fill="none" stroke="#404040" points="91.36,-67.77 91.29,-60.56 97.92,-57.72 97.99,-64.93 91.36,-67.77"/>
<text text-anchor="middle" x="121.5" y="-101" font-family="Helvetica,sans-Serif" font-size="10.00"> +desired_state</text>
<text text-anchor="middle" x="121.5" y="-90" font-family="Helvetica,sans-Serif" font-size="10.00">+reported_state</text>
</g>
<!-- Node3 -->
<g id="node3" class="node">
<title>Node3</title>
<g id="a_node3"><a xlink:title=" ">
<polygon fill="none" stroke="black" points="152.5,-138.5 152.5,-195.5 203.5,-195.5 203.5,-138.5 152.5,-138.5"/>
<text text-anchor="middle" x="178" y="-183.5" font-family="Helvetica,sans-Serif" font-size="10.00">uint32_t</text>
<polyline fill="none" stroke="black" points="152.5,-176.5 203.5,-176.5 "/>
<text text-anchor="middle" x="178" y="-164.5" font-family="Helvetica,sans-Serif" font-size="10.00"> </text>
<polyline fill="none" stroke="black" points="152.5,-157.5 203.5,-157.5 "/>
<text text-anchor="middle" x="178" y="-145.5" font-family="Helvetica,sans-Serif" font-size="10.00"> </text>
</a>
</g>
</g>
<!-- Node3&#45;&gt;Node1 -->
<g id="edge2" class="edge">
<title>Node3&#45;&gt;Node1</title>
<path fill="none" stroke="#404040" d="M174.15,-138.27C170.91,-119.97 165.28,-95.81 156,-76 154.71,-73.25 153.24,-70.49 151.66,-67.78"/>
<polygon fill="none" stroke="#404040" points="151.59,-67.68 144.98,-64.8 145.09,-57.59 151.71,-60.47 151.59,-67.68"/>
<text text-anchor="middle" x="211" y="-112" font-family="Helvetica,sans-Serif" font-size="10.00"> +desired_duration</text>
<text text-anchor="middle" x="211" y="-101" font-family="Helvetica,sans-Serif" font-size="10.00">+desired_value</text>
<text text-anchor="middle" x="211" y="-90" font-family="Helvetica,sans-Serif" font-size="10.00">+reported_duration</text>
<text text-anchor="middle" x="211" y="-79" font-family="Helvetica,sans-Serif" font-size="10.00">+reported_value</text>
</g>
</g>
</svg>
