<?xml version="1.0" encoding="UTF-8" standalone="no"?>
<!DOCTYPE svg PUBLIC "-//W3C//DTD SVG 1.1//EN"
 "http://www.w3.org/Graphics/SVG/1.1/DTD/svg11.dtd">
<!-- Generated by graphviz version 2.43.0 (0)
 -->
<!-- Title: zwave_controller_storage_callback_t Pages: 1 -->
<svg width="531pt" height="193pt"
 viewBox="0.00 0.00 530.50 193.00" xmlns="http://www.w3.org/2000/svg" xmlns:xlink="http://www.w3.org/1999/xlink">
<g id="graph0" class="graph" transform="scale(1 1) rotate(0) translate(4 189)">
<title>zwave_controller_storage_callback_t</title>
<!-- Node1 -->
<g id="node1" class="node">
<title>Node1</title>
<g id="a_node1"><a xlink:title=" ">
<polygon fill="#bfbfbf" stroke="black" points="162.5,-0.5 162.5,-68.5 290.5,-68.5 290.5,-0.5 162.5,-0.5"/>
<text text-anchor="start" x="170.5" y="-56.5" font-family="Helvetica,sans-Serif" font-size="10.00">zwave_controller_storage</text>
<text text-anchor="middle" x="226.5" y="-45.5" font-family="Helvetica,sans-Serif" font-size="10.00">_callback_t</text>
<polyline fill="none" stroke="black" points="162.5,-38.5 290.5,-38.5 "/>
<text text-anchor="middle" x="226.5" y="-26.5" font-family="Helvetica,sans-Serif" font-size="10.00"> </text>
<polyline fill="none" stroke="black" points="162.5,-19.5 290.5,-19.5 "/>
<text text-anchor="middle" x="226.5" y="-7.5" font-family="Helvetica,sans-Serif" font-size="10.00"> </text>
</a>
</g>
</g>
<!-- Node2 -->
<g id="node2" class="node">
<title>Node2</title>
<g id="a_node2"><a xlink:title=" ">
<polygon fill="none" stroke="black" points="0,-127.5 0,-184.5 51,-184.5 51,-127.5 0,-127.5"/>
<text text-anchor="middle" x="25.5" y="-172.5" font-family="Helvetica,sans-Serif" font-size="10.00">uint32_t</text>
<polyline fill="none" stroke="black" points="0,-165.5 51,-165.5 "/>
<text text-anchor="middle" x="25.5" y="-153.5" font-family="Helvetica,sans-Serif" font-size="10.00"> </text>
<polyline fill="none" stroke="black" points="0,-146.5 51,-146.5 "/>
<text text-anchor="middle" x="25.5" y="-134.5" font-family="Helvetica,sans-Serif" font-size="10.00"> </text>
</a>
</g>
</g>
<!-- Node2&#45;&gt;Node1 -->
<g id="edge1" class="edge">
<title>Node2&#45;&gt;Node1</title>
<path fill="none" stroke="#404040" d="M25.18,-127.41C26.47,-113.65 30.35,-97.7 40.5,-87 68.69,-57.27 112.38,-44.2 150.34,-38.64"/>
<polygon fill="none" stroke="#404040" points="150.53,-38.62 155.97,-33.89 162.43,-37.09 156.99,-41.82 150.53,-38.62"/>
<text text-anchor="middle" x="99" y="-101" font-family="Helvetica,sans-Serif" font-size="10.00"> +get_node_granted_keys</text>
<text text-anchor="middle" x="99" y="-90" font-family="Helvetica,sans-Serif" font-size="10.00">+set_node_as_s2_capable</text>
</g>
<!-- Node3 -->
<g id="node3" class="node">
<title>Node3</title>
<g id="a_node3"><a xlink:title=" ">
<polygon fill="none" stroke="black" points="148,-127.5 148,-184.5 183,-184.5 183,-127.5 148,-127.5"/>
<text text-anchor="middle" x="165.5" y="-172.5" font-family="Helvetica,sans-Serif" font-size="10.00">bool</text>
<polyline fill="none" stroke="black" points="148,-165.5 183,-165.5 "/>
<text text-anchor="middle" x="165.5" y="-153.5" font-family="Helvetica,sans-Serif" font-size="10.00"> </text>
<polyline fill="none" stroke="black" points="148,-146.5 183,-146.5 "/>
<text text-anchor="middle" x="165.5" y="-134.5" font-family="Helvetica,sans-Serif" font-size="10.00"> </text>
</a>
</g>
</g>
<!-- Node3&#45;&gt;Node1 -->
<g id="edge2" class="edge">
<title>Node3&#45;&gt;Node1</title>
<path fill="none" stroke="#404040" d="M160.86,-127.36C159.94,-114.53 160.69,-99.4 166.5,-87 167.97,-83.85 169.74,-80.83 171.73,-77.92"/>
<polygon fill="none" stroke="#404040" points="171.74,-77.91 172.38,-70.73 179.26,-68.55 178.62,-75.74 171.74,-77.91"/>
<text text-anchor="middle" x="216.5" y="-95.5" font-family="Helvetica,sans-Serif" font-size="10.00"> +is_node_S2_capable</text>
</g>
<!-- Node4 -->
<g id="node4" class="node">
<title>Node4</title>
<g id="a_node4"><a xlink:title=" ">
<polygon fill="none" stroke="black" points="232.5,-127.5 232.5,-184.5 344.5,-184.5 344.5,-127.5 232.5,-127.5"/>
<text text-anchor="middle" x="288.5" y="-172.5" font-family="Helvetica,sans-Serif" font-size="10.00">enum zwave_protocol</text>
<polyline fill="none" stroke="black" points="232.5,-165.5 344.5,-165.5 "/>
<text text-anchor="middle" x="288.5" y="-153.5" font-family="Helvetica,sans-Serif" font-size="10.00"> </text>
<polyline fill="none" stroke="black" points="232.5,-146.5 344.5,-146.5 "/>
<text text-anchor="middle" x="288.5" y="-134.5" font-family="Helvetica,sans-Serif" font-size="10.00"> </text>
</a>
</g>
</g>
<!-- Node4&#45;&gt;Node1 -->
<g id="edge3" class="edge">
<title>Node4&#45;&gt;Node1</title>
<path fill="none" stroke="#404040" d="M281.9,-127.32C278.29,-114.62 273.17,-99.61 266.5,-87 265.06,-84.29 263.48,-81.57 261.8,-78.88"/>
<polygon fill="none" stroke="#404040" points="261.66,-78.66 254.98,-75.92 254.94,-68.71 261.61,-71.45 261.66,-78.66"/>
<text text-anchor="middle" x="328.5" y="-95.5" font-family="Helvetica,sans-Serif" font-size="10.00"> +get_inclusion_protocol</text>
</g>
<!-- Node5 -->
<g id="node5" class="node">
<title>Node5</title>
<g id="a_node5"><a xlink:title=" ">
<polygon fill="none" stroke="black" points="394.5,-127.5 394.5,-184.5 440.5,-184.5 440.5,-127.5 394.5,-127.5"/>
<text text-anchor="middle" x="417.5" y="-172.5" font-family="Helvetica,sans-Serif" font-size="10.00">uint8_t</text>
<polyline fill="none" stroke="black" points="394.5,-165.5 440.5,-165.5 "/>
<text text-anchor="middle" x="417.5" y="-153.5" font-family="Helvetica,sans-Serif" font-size="10.00"> </text>
<polyline fill="none" stroke="black" points="394.5,-146.5 440.5,-146.5 "/>
<text text-anchor="middle" x="417.5" y="-134.5" font-family="Helvetica,sans-Serif" font-size="10.00"> </text>
</a>
</g>
</g>
<!-- Node5&#45;&gt;Node1 -->
<g id="edge4" class="edge">
<title>Node5&#45;&gt;Node1</title>
<path fill="none" stroke="#404040" d="M410.19,-127.26C405.27,-113.46 397.45,-97.52 385.5,-87 362.34,-66.6 330.99,-54.27 302.24,-46.81"/>
<polygon fill="none" stroke="#404040" points="302.2,-46.8 295.43,-49.29 290.53,-44 297.3,-41.51 302.2,-46.8"/>
<text text-anchor="start" x="401.5" y="-101" font-family="Helvetica,sans-Serif" font-size="10.00"> +zwave_controller_storage</text>
<text text-anchor="middle" x="462" y="-90" font-family="Helvetica,sans-Serif" font-size="10.00">_cc_version</text>
</g>
</g>
</svg>
