<?xml version="1.0" encoding="UTF-8" standalone="no"?>
<!DOCTYPE svg PUBLIC "-//W3C//DTD SVG 1.1//EN"
 "http://www.w3.org/Graphics/SVG/1.1/DTD/svg11.dtd">
<!-- Generated by graphviz version 2.43.0 (0)
 -->
<!-- Title: rx_timer_expired Pages: 1 -->
<svg width="1215pt" height="66pt"
 viewBox="0.00 0.00 1215.00 65.80" xmlns="http://www.w3.org/2000/svg" xmlns:xlink="http://www.w3.org/1999/xlink">
<g id="graph0" class="graph" transform="scale(1 1) rotate(0) translate(4 61.8)">
<title>rx_timer_expired</title>
<!-- Node1 -->
<g id="node1" class="node">
<title>Node1</title>
<g id="a_node1"><a xlink:title=" ">
<polygon fill="#bfbfbf" stroke="black" points="1118,-13.8 1118,-32.8 1207,-32.8 1207,-13.8 1118,-13.8"/>
<text text-anchor="middle" x="1162.5" y="-20.8" font-family="Helvetica,sans-Serif" font-size="10.00">rx_timer_expired</text>
</a>
</g>
</g>
<!-- Node2 -->
<g id="node2" class="node">
<title>Node2</title>
<g id="a_node2"><a xlink:href="transport__service_8c.html#a7800e90df0e417d85ec84937638ad29c" target="_top" xlink:title=" ">
<polygon fill="none" stroke="black" points="789,-32.8 789,-51.8 837,-51.8 837,-32.8 789,-32.8"/>
<text text-anchor="middle" x="813" y="-39.8" font-family="Helvetica,sans-Serif" font-size="10.00">receive</text>
</a>
</g>
</g>
<!-- Node1&#45;&gt;Node2 -->
<g id="edge1" class="edge">
<title>Node1&#45;&gt;Node2</title>
<path fill="none" stroke="midnightblue" d="M1119.54,-35.27C1107.52,-38.17 1094.33,-40.85 1082,-42.3 991.89,-52.92 883.56,-47.36 837.05,-44.11"/>
<polygon fill="midnightblue" stroke="midnightblue" points="1120.48,-38.64 1129.32,-32.81 1118.77,-31.86 1120.48,-38.64"/>
</g>
<!-- Node8 -->
<g id="node8" class="node">
<title>Node8</title>
<g id="a_node8"><a xlink:href="transport__service_8c.html#af902d536b92f710cc926f391bbef6bd1" target="_top" xlink:title=" ">
<polygon fill="none" stroke="black" points="980,-13.8 980,-32.8 1082,-32.8 1082,-13.8 980,-13.8"/>
<text text-anchor="middle" x="1031" y="-20.8" font-family="Helvetica,sans-Serif" font-size="10.00">send_frag_req_cmd</text>
</a>
</g>
</g>
<!-- Node1&#45;&gt;Node8 -->
<g id="edge7" class="edge">
<title>Node1&#45;&gt;Node8</title>
<path fill="none" stroke="midnightblue" d="M1107.53,-23.3C1099.09,-23.3 1090.39,-23.3 1082.04,-23.3"/>
<polygon fill="midnightblue" stroke="midnightblue" points="1107.66,-26.8 1117.66,-23.3 1107.66,-19.8 1107.66,-26.8"/>
</g>
<!-- Node3 -->
<g id="node3" class="node">
<title>Node3</title>
<g id="a_node3"><a xlink:href="transport__service_8c.html#afe4b474eca116806850af8ce6182384c" target="_top" xlink:title=" ">
<polygon fill="none" stroke="black" points="613,-27.3 613,-57.3 753,-57.3 753,-27.3 613,-27.3"/>
<text text-anchor="start" x="621" y="-45.3" font-family="Helvetica,sans-Serif" font-size="10.00">transport_service_command</text>
<text text-anchor="middle" x="683" y="-34.3" font-family="Helvetica,sans-Serif" font-size="10.00">_handler</text>
</a>
</g>
</g>
<!-- Node2&#45;&gt;Node3 -->
<g id="edge2" class="edge">
<title>Node2&#45;&gt;Node3</title>
<path fill="none" stroke="midnightblue" d="M778.59,-42.3C770.68,-42.3 761.94,-42.3 753.08,-42.3"/>
<polygon fill="midnightblue" stroke="midnightblue" points="778.82,-45.8 788.82,-42.3 778.82,-38.8 778.82,-45.8"/>
</g>
<!-- Node4 -->
<g id="node4" class="node">
<title>Node4</title>
<g id="a_node4"><a xlink:href="group__transport__service.html#ga8373376f01c78a3ecfb1941605eb9c1a" target="_top" xlink:title="Transport service RX function.">
<polygon fill="none" stroke="black" points="470,-27.3 470,-57.3 577,-57.3 577,-27.3 470,-27.3"/>
<text text-anchor="start" x="478" y="-45.3" font-family="Helvetica,sans-Serif" font-size="10.00">transport_service_on</text>
<text text-anchor="middle" x="523.5" y="-34.3" font-family="Helvetica,sans-Serif" font-size="10.00">_frame_received</text>
</a>
</g>
</g>
<!-- Node3&#45;&gt;Node4 -->
<g id="edge3" class="edge">
<title>Node3&#45;&gt;Node4</title>
<path fill="none" stroke="midnightblue" d="M602.83,-42.3C594.22,-42.3 585.61,-42.3 577.42,-42.3"/>
<polygon fill="midnightblue" stroke="midnightblue" points="602.92,-45.8 612.92,-42.3 602.92,-38.8 602.92,-45.8"/>
</g>
<!-- Node5 -->
<g id="node5" class="node">
<title>Node5</title>
<g id="a_node5"><a xlink:href="group__transport__service__transport__wrapper.html#ga836e1af25a73aef2bc515da73660cd3b" target="_top" xlink:title="Entry point of Transport service frames received from the PHY/radio stack.">
<polygon fill="none" stroke="black" points="309,-27.3 309,-57.3 434,-57.3 434,-27.3 309,-27.3"/>
<text text-anchor="start" x="317" y="-45.3" font-family="Helvetica,sans-Serif" font-size="10.00">zwave_transport_service</text>
<text text-anchor="middle" x="371.5" y="-34.3" font-family="Helvetica,sans-Serif" font-size="10.00">_on_frame_received</text>
</a>
</g>
</g>
<!-- Node4&#45;&gt;Node5 -->
<g id="edge4" class="edge">
<title>Node4&#45;&gt;Node5</title>
<path fill="none" stroke="midnightblue" d="M459.51,-42.3C451.11,-42.3 442.51,-42.3 434.14,-42.3"/>
<polygon fill="midnightblue" stroke="midnightblue" points="459.62,-45.8 469.62,-42.3 459.62,-38.8 459.62,-45.8"/>
</g>
<!-- Node6 -->
<g id="node6" class="node">
<title>Node6</title>
<g id="a_node6"><a xlink:href="group__transport__service__transport__wrapper.html#gad02263e40b63853166ac8a7601954f33" target="_top" xlink:title=" ">
<polygon fill="none" stroke="black" points="148,-27.3 148,-57.3 273,-57.3 273,-27.3 148,-27.3"/>
<text text-anchor="start" x="156" y="-45.3" font-family="Helvetica,sans-Serif" font-size="10.00">zwave_transport_service</text>
<text text-anchor="middle" x="210.5" y="-34.3" font-family="Helvetica,sans-Serif" font-size="10.00">_transport_init</text>
</a>
</g>
</g>
<!-- Node5&#45;&gt;Node6 -->
<g id="edge5" class="edge">
<title>Node5&#45;&gt;Node6</title>
<path fill="none" stroke="midnightblue" d="M298.41,-42.3C290.01,-42.3 281.5,-42.3 273.26,-42.3"/>
<polygon fill="midnightblue" stroke="midnightblue" points="298.57,-45.8 308.57,-42.3 298.57,-38.8 298.57,-45.8"/>
</g>
<!-- Node7 -->
<g id="node7" class="node">
<title>Node7</title>
<g id="a_node7"><a xlink:href="group__zwave__transports__fixt.html#ga26fb2571e272a5094bd0320eca3a896d" target="_top" xlink:title="Setup fixture for Z&#45;Wave Transports.">
<polygon fill="none" stroke="black" points="0,-32.8 0,-51.8 112,-51.8 112,-32.8 0,-32.8"/>
<text text-anchor="middle" x="56" y="-39.8" font-family="Helvetica,sans-Serif" font-size="10.00">zwave_transports_init</text>
</a>
</g>
</g>
<!-- Node6&#45;&gt;Node7 -->
<g id="edge6" class="edge">
<title>Node6&#45;&gt;Node7</title>
<path fill="none" stroke="midnightblue" d="M137.64,-42.3C129.17,-42.3 120.62,-42.3 112.42,-42.3"/>
<polygon fill="midnightblue" stroke="midnightblue" points="137.91,-45.8 147.91,-42.3 137.91,-38.8 137.91,-45.8"/>
</g>
<!-- Node9 -->
<g id="node9" class="node">
<title>Node9</title>
<g id="a_node9"><a xlink:href="transport__service_8c.html#a35b51aa3cd60ec7fbc89438a7a800a9e" target="_top" xlink:title=" ">
<polygon fill="none" stroke="black" points="873,-13.8 873,-32.8 944,-32.8 944,-13.8 873,-13.8"/>
<text text-anchor="middle" x="908.5" y="-20.8" font-family="Helvetica,sans-Serif" font-size="10.00">find_missing</text>
</a>
</g>
</g>
<!-- Node8&#45;&gt;Node9 -->
<g id="edge8" class="edge">
<title>Node8&#45;&gt;Node9</title>
<path fill="none" stroke="midnightblue" d="M969.71,-23.3C960.95,-23.3 952.2,-23.3 944.18,-23.3"/>
<polygon fill="midnightblue" stroke="midnightblue" points="969.94,-26.8 979.94,-23.3 969.94,-19.8 969.94,-26.8"/>
</g>
<!-- Node9&#45;&gt;Node1 -->
<g id="edge10" class="edge">
<title>Node9&#45;&gt;Node1</title>
<path fill="none" stroke="midnightblue" d="M947.59,-11.07C957.99,-8.28 969.33,-5.71 980,-4.3 1024.94,1.65 1036.98,1 1082,-4.3 1097.78,-6.16 1114.97,-10.03 1129.32,-13.79"/>
<polygon fill="midnightblue" stroke="midnightblue" points="946.63,-7.71 937.97,-13.8 948.54,-14.44 946.63,-7.71"/>
</g>
<!-- Node9&#45;&gt;Node2 -->
<g id="edge9" class="edge">
<title>Node9&#45;&gt;Node2</title>
<path fill="none" stroke="midnightblue" d="M862.95,-32.35C853.99,-34.18 844.92,-36.02 837.06,-37.62"/>
<polygon fill="midnightblue" stroke="midnightblue" points="863.85,-35.74 872.95,-30.32 862.45,-28.88 863.85,-35.74"/>
</g>
</g>
</svg>
