<?xml version="1.0" encoding="UTF-8" standalone="no"?>
<!DOCTYPE svg PUBLIC "-//W3C//DTD SVG 1.1//EN"
 "http://www.w3.org/Graphics/SVG/1.1/DTD/svg11.dtd">
<!-- Generated by graphviz version 2.43.0 (0)
 -->
<!-- Title: transport_service_command_handler Pages: 1 -->
<svg width="1647pt" height="1037pt"
 viewBox="0.00 0.00 1647.00 1036.80" xmlns="http://www.w3.org/2000/svg" xmlns:xlink="http://www.w3.org/1999/xlink">
<g id="graph0" class="graph" transform="scale(1 1) rotate(0) translate(4 1032.8)">
<title>transport_service_command_handler</title>
<!-- Node1 -->
<g id="node1" class="node">
<title>Node1</title>
<g id="a_node1"><a xlink:title=" ">
<polygon fill="#bfbfbf" stroke="black" points="0,-650.3 0,-680.3 140,-680.3 140,-650.3 0,-650.3"/>
<text text-anchor="start" x="8" y="-668.3" font-family="Helvetica,sans-Serif" font-size="10.00">transport_service_command</text>
<text text-anchor="middle" x="70" y="-657.3" font-family="Helvetica,sans-Serif" font-size="10.00">_handler</text>
</a>
</g>
</g>
<!-- Node2 -->
<g id="node2" class="node">
<title>Node2</title>
<g id="a_node2"><a xlink:href="transport__service_8c.html#a002c0b0e8723a173b49eb5f22d2efcda" target="_top" xlink:title=" ">
<polygon fill="none" stroke="black" points="176,-998.3 176,-1028.3 280,-1028.3 280,-998.3 176,-998.3"/>
<text text-anchor="start" x="184" y="-1016.3" font-family="Helvetica,sans-Serif" font-size="10.00">is_transport_service</text>
<text text-anchor="middle" x="228" y="-1005.3" font-family="Helvetica,sans-Serif" font-size="10.00">_sending</text>
</a>
</g>
</g>
<!-- Node1&#45;&gt;Node2 -->
<g id="edge1" class="edge">
<title>Node1&#45;&gt;Node2</title>
<path fill="none" stroke="midnightblue" d="M72.24,-680.36C76.99,-729.32 97.86,-886.48 176,-983.3 178.65,-986.59 181.76,-989.59 185.12,-992.31"/>
<polygon fill="midnightblue" stroke="midnightblue" points="183.13,-995.19 193.3,-998.18 187.21,-989.51 183.13,-995.19"/>
</g>
<!-- Node4 -->
<g id="node4" class="node">
<title>Node4</title>
<g id="a_node4"><a xlink:href="transport__service_8c.html#a7800e90df0e417d85ec84937638ad29c" target="_top" xlink:title=" ">
<polygon fill="none" stroke="black" points="204,-465.8 204,-484.8 252,-484.8 252,-465.8 204,-465.8"/>
<text text-anchor="middle" x="228" y="-472.8" font-family="Helvetica,sans-Serif" font-size="10.00">receive</text>
</a>
</g>
</g>
<!-- Node1&#45;&gt;Node4 -->
<g id="edge3" class="edge">
<title>Node1&#45;&gt;Node4</title>
<path fill="none" stroke="midnightblue" d="M83.5,-650.08C112.15,-615.18 182.4,-529.62 212.7,-492.72"/>
<polygon fill="midnightblue" stroke="midnightblue" points="215.54,-494.78 219.18,-484.83 210.13,-490.34 215.54,-494.78"/>
</g>
<!-- Node9 -->
<g id="node9" class="node">
<title>Node9</title>
<g id="a_node9"><a xlink:href="transport__service_8c.html#a0e899b6be96ecc8034ecb4aee4a5f859" target="_top" xlink:title=" ">
<polygon fill="none" stroke="black" points="1377,-319.8 1377,-338.8 1496,-338.8 1496,-319.8 1377,-319.8"/>
<text text-anchor="middle" x="1436.5" y="-326.8" font-family="Helvetica,sans-Serif" font-size="10.00">reset_transport_service</text>
</a>
</g>
</g>
<!-- Node1&#45;&gt;Node9 -->
<g id="edge68" class="edge">
<title>Node1&#45;&gt;Node9</title>
<path fill="none" stroke="midnightblue" d="M72.14,-650.1C79.61,-562.71 129.13,-128.3 376,-128.3 376,-128.3 376,-128.3 694,-128.3 984.3,-128.3 1080.94,-98.35 1339,-231.3 1375.75,-250.24 1406.93,-288.39 1423.27,-311.1"/>
<polygon fill="midnightblue" stroke="midnightblue" points="1420.55,-313.33 1429.15,-319.52 1426.29,-309.32 1420.55,-313.33"/>
</g>
<!-- Node10 -->
<g id="node10" class="node">
<title>Node10</title>
<g id="a_node10"><a xlink:href="transport__service_8c.html#ac935a7f30a3f2308402000ea5c34d00c" target="_top" xlink:title=" ">
<polygon fill="none" stroke="black" points="1388,-642.8 1388,-661.8 1485,-661.8 1485,-642.8 1388,-642.8"/>
<text text-anchor="middle" x="1436.5" y="-649.8" font-family="Helvetica,sans-Serif" font-size="10.00">t2_sm_post_event</text>
</a>
</g>
</g>
<!-- Node1&#45;&gt;Node10 -->
<g id="edge70" class="edge">
<title>Node1&#45;&gt;Node10</title>
<path fill="none" stroke="midnightblue" d="M77.1,-680.38C103.03,-741.72 210.4,-969.3 376,-969.3 376,-969.3 376,-969.3 1115,-969.3 1216.82,-969.3 1262.37,-988.34 1339,-921.3 1415.56,-854.32 1431.39,-722.09 1434.65,-672.08"/>
<polygon fill="midnightblue" stroke="midnightblue" points="1438.15,-672.14 1435.21,-661.97 1431.16,-671.76 1438.15,-672.14"/>
</g>
<!-- Node15 -->
<g id="node15" class="node">
<title>Node15</title>
<g id="a_node15"><a xlink:href="transport__service_8c.html#a8a25db2fc95ae366bd129a0d76800d7c" target="_top" xlink:title=" ">
<polygon fill="none" stroke="black" points="474,-617.8 474,-636.8 581,-636.8 581,-617.8 474,-617.8"/>
<text text-anchor="middle" x="527.5" y="-624.8" font-family="Helvetica,sans-Serif" font-size="10.00">send_frag_wait_cmd</text>
</a>
</g>
</g>
<!-- Node1&#45;&gt;Node15 -->
<g id="edge69" class="edge">
<title>Node1&#45;&gt;Node15</title>
<path fill="none" stroke="midnightblue" d="M140.29,-665.01C214.31,-663.92 334.9,-659.95 438,-646.3 451.15,-644.56 465.26,-641.9 478.25,-639.12"/>
<polygon fill="midnightblue" stroke="midnightblue" points="479.39,-642.45 488.4,-636.88 477.88,-635.62 479.39,-642.45"/>
</g>
<!-- Node3 -->
<g id="node3" class="node">
<title>Node3</title>
<g id="a_node3"><a xlink:href="transport__service_8c.html#a8fc0b400dd606e4ce7df1070ca31ab69" target="_top" xlink:title=" ">
<polygon fill="none" stroke="black" points="339.5,-1003.8 339.5,-1022.8 414.5,-1022.8 414.5,-1003.8 339.5,-1003.8"/>
<text text-anchor="middle" x="377" y="-1010.8" font-family="Helvetica,sans-Serif" font-size="10.00">recv_or_send</text>
</a>
</g>
</g>
<!-- Node2&#45;&gt;Node3 -->
<g id="edge2" class="edge">
<title>Node2&#45;&gt;Node3</title>
<path fill="none" stroke="midnightblue" d="M280,-1013.3C296.05,-1013.3 313.69,-1013.3 329.42,-1013.3"/>
<polygon fill="midnightblue" stroke="midnightblue" points="329.45,-1016.8 339.45,-1013.3 329.45,-1009.8 329.45,-1016.8"/>
</g>
<!-- Node5 -->
<g id="node5" class="node">
<title>Node5</title>
<g id="a_node5"><a xlink:href="transport__service_8c.html#a35b51aa3cd60ec7fbc89438a7a800a9e" target="_top" xlink:title=" ">
<polygon fill="none" stroke="black" points="941.5,-85.8 941.5,-104.8 1012.5,-104.8 1012.5,-85.8 941.5,-85.8"/>
<text text-anchor="middle" x="977" y="-92.8" font-family="Helvetica,sans-Serif" font-size="10.00">find_missing</text>
</a>
</g>
</g>
<!-- Node4&#45;&gt;Node5 -->
<g id="edge4" class="edge">
<title>Node4&#45;&gt;Node5</title>
<path fill="none" stroke="midnightblue" d="M228.45,-465.55C226.68,-423.96 225.83,-260.2 316,-186.3 388.68,-126.73 432.52,-166.3 526.5,-166.3 526.5,-166.3 526.5,-166.3 694,-166.3 787.24,-166.3 892.72,-129.35 944.25,-108.76"/>
<polygon fill="midnightblue" stroke="midnightblue" points="945.87,-111.88 953.82,-104.88 943.23,-105.4 945.87,-111.88"/>
</g>
<!-- Node8 -->
<g id="node8" class="node">
<title>Node8</title>
<g id="a_node8"><a xlink:href="transport__service_8c.html#a559d734936f587a992aa38cadb8413b7" target="_top" xlink:title=" ">
<polygon fill="none" stroke="black" points="1211,-240.8 1211,-259.8 1339,-259.8 1339,-240.8 1211,-240.8"/>
<text text-anchor="middle" x="1275" y="-247.8" font-family="Helvetica,sans-Serif" font-size="10.00">send_frag_complete_cmd</text>
</a>
</g>
</g>
<!-- Node4&#45;&gt;Node8 -->
<g id="edge56" class="edge">
<title>Node4&#45;&gt;Node8</title>
<path fill="none" stroke="midnightblue" d="M233.74,-465.79C244.82,-444.65 274.68,-393.87 316,-371.3 611.57,-209.87 1033.21,-227.29 1201.03,-242.27"/>
<polygon fill="midnightblue" stroke="midnightblue" points="1200.72,-245.76 1211,-243.18 1201.36,-238.79 1200.72,-245.76"/>
</g>
<!-- Node4&#45;&gt;Node10 -->
<g id="edge57" class="edge">
<title>Node4&#45;&gt;Node10</title>
<path fill="none" stroke="midnightblue" d="M230.31,-484.83C239.92,-550.31 305.31,-931.3 526.5,-931.3 526.5,-931.3 526.5,-931.3 1115,-931.3 1216.91,-931.3 1260.69,-947.52 1339,-882.3 1405.73,-826.73 1427.13,-717.08 1433.27,-672.18"/>
<polygon fill="midnightblue" stroke="midnightblue" points="1436.78,-672.37 1434.55,-662.01 1429.83,-671.5 1436.78,-672.37"/>
</g>
<!-- Node13 -->
<g id="node13" class="node">
<title>Node13</title>
<g id="a_node13"><a xlink:href="transport__service_8c.html#a721636ef4e5d808359866c88788731fb" target="_top" xlink:title=" ">
<polygon fill="none" stroke="black" points="1230.5,-85.8 1230.5,-104.8 1319.5,-104.8 1319.5,-85.8 1230.5,-85.8"/>
<text text-anchor="middle" x="1275" y="-92.8" font-family="Helvetica,sans-Serif" font-size="10.00">rx_timer_expired</text>
</a>
</g>
</g>
<!-- Node4&#45;&gt;Node13 -->
<g id="edge55" class="edge">
<title>Node4&#45;&gt;Node13</title>
<path fill="none" stroke="midnightblue" d="M231.32,-465.52C238.56,-437.26 263.41,-354.88 316,-313.3 352.54,-284.42 1024.3,-146.09 1220.58,-106.13"/>
<polygon fill="midnightblue" stroke="midnightblue" points="1221.28,-109.56 1230.38,-104.14 1219.88,-102.7 1221.28,-109.56"/>
</g>
<!-- Node14 -->
<g id="node14" class="node">
<title>Node14</title>
<g id="a_node14"><a xlink:href="transport__service_8c.html#a2e4434739ec658a986a9b540f6b68696" target="_top" xlink:title=" ">
<polygon fill="none" stroke="black" points="326,-617.8 326,-636.8 428,-636.8 428,-617.8 326,-617.8"/>
<text text-anchor="middle" x="377" y="-624.8" font-family="Helvetica,sans-Serif" font-size="10.00">mark_frag_received</text>
</a>
</g>
</g>
<!-- Node4&#45;&gt;Node14 -->
<g id="edge21" class="edge">
<title>Node4&#45;&gt;Node14</title>
<path fill="none" stroke="midnightblue" d="M233.18,-485.1C243.69,-508.67 273.49,-569.13 316,-603.3 320.99,-607.32 326.74,-610.73 332.66,-613.62"/>
<polygon fill="midnightblue" stroke="midnightblue" points="331.46,-616.92 342.02,-617.73 334.27,-610.51 331.46,-616.92"/>
</g>
<!-- Node16 -->
<g id="node16" class="node">
<title>Node16</title>
<g id="a_node16"><a xlink:href="transport__service_8c.html#a0d8b03eb74c8ac1b697cf1f967634e2e" target="_top" xlink:title=" ">
<polygon fill="none" stroke="black" points="617,-617.8 617,-636.8 769,-636.8 769,-617.8 617,-617.8"/>
<text text-anchor="middle" x="693" y="-624.8" font-family="Helvetica,sans-Serif" font-size="10.00">transport_service_senddata_cb</text>
</a>
</g>
</g>
<!-- Node4&#45;&gt;Node16 -->
<g id="edge58" class="edge">
<title>Node4&#45;&gt;Node16</title>
<path fill="none" stroke="midnightblue" d="M235.07,-484.86C247.62,-503.73 278.44,-545.67 316,-565.3 421.75,-620.57 463.31,-588.68 581,-608.3 595.81,-610.77 611.72,-613.47 626.74,-616.04"/>
<polygon fill="midnightblue" stroke="midnightblue" points="626.52,-619.55 636.97,-617.79 627.7,-612.65 626.52,-619.55"/>
</g>
<!-- Node17 -->
<g id="node17" class="node">
<title>Node17</title>
<g id="a_node17"><a xlink:href="transport__service_8c.html#a67e57d4768071543cd6f67b8e95dc6d8" target="_top" xlink:title=" ">
<polygon fill="none" stroke="black" points="814,-617.8 814,-636.8 892,-636.8 892,-617.8 814,-617.8"/>
<text text-anchor="middle" x="853" y="-624.8" font-family="Helvetica,sans-Serif" font-size="10.00">reply_frag_req</text>
</a>
</g>
</g>
<!-- Node4&#45;&gt;Node17 -->
<g id="edge54" class="edge">
<title>Node4&#45;&gt;Node17</title>
<path fill="none" stroke="midnightblue" d="M252.29,-480.99C343.58,-503.26 678.28,-584.92 803.92,-615.57"/>
<polygon fill="midnightblue" stroke="midnightblue" points="803.11,-618.98 813.66,-617.95 804.77,-612.18 803.11,-618.98"/>
</g>
<!-- Node19 -->
<g id="node19" class="node">
<title>Node19</title>
<g id="a_node19"><a xlink:href="group__zwave__controller__crc16.html#ga13ba4b98080a23413214afb6886b6eec" target="_top" xlink:title="Calculation of CRC16&#45;CCITT with Polynomial 0x1021 on data.">
<polygon fill="none" stroke="black" points="1054.5,-389.8 1054.5,-408.8 1173.5,-408.8 1173.5,-389.8 1054.5,-389.8"/>
<text text-anchor="middle" x="1114" y="-396.8" font-family="Helvetica,sans-Serif" font-size="10.00">zwave_controller_crc16</text>
</a>
</g>
</g>
<!-- Node4&#45;&gt;Node19 -->
<g id="edge66" class="edge">
<title>Node4&#45;&gt;Node19</title>
<path fill="none" stroke="midnightblue" d="M242.82,-465.78C283.97,-438.38 410.07,-361.3 526.5,-361.3 526.5,-361.3 526.5,-361.3 854,-361.3 927.28,-361.3 1011.01,-376.38 1062.94,-387.54"/>
<polygon fill="midnightblue" stroke="midnightblue" points="1062.37,-391 1072.89,-389.71 1063.87,-384.16 1062.37,-391"/>
</g>
<!-- Node25 -->
<g id="node25" class="node">
<title>Node25</title>
<g id="a_node25"><a xlink:href="transport__service_8c.html#a4ec123f01e33bb2b4694e48484c6e892" target="_top" xlink:title=" ">
<polygon fill="none" stroke="black" points="320,-465.8 320,-484.8 434,-484.8 434,-465.8 320,-465.8"/>
<text text-anchor="middle" x="377" y="-472.8" font-family="Helvetica,sans-Serif" font-size="10.00">wait_restart_from_first</text>
</a>
</g>
</g>
<!-- Node4&#45;&gt;Node25 -->
<g id="edge59" class="edge">
<title>Node4&#45;&gt;Node25</title>
<path fill="none" stroke="midnightblue" d="M252.29,-475.3C267.88,-475.3 289.23,-475.3 309.81,-475.3"/>
<polygon fill="midnightblue" stroke="midnightblue" points="309.82,-478.8 319.82,-475.3 309.82,-471.8 309.82,-478.8"/>
</g>
<!-- Node27 -->
<g id="node27" class="node">
<title>Node27</title>
<g id="a_node27"><a xlink:href="group__zwave__tx.html#gadddb568914e58a17dd75b381133926de" target="_top" xlink:title="Tell the Tx Queue that a remote NodeID is about to send some frames and we should back&#45;off a little m...">
<polygon fill="none" stroke="black" points="316,-195.3 316,-225.3 438,-225.3 438,-195.3 316,-195.3"/>
<text text-anchor="start" x="324" y="-213.3" font-family="Helvetica,sans-Serif" font-size="10.00">zwave_tx_set_expected</text>
<text text-anchor="middle" x="377" y="-202.3" font-family="Helvetica,sans-Serif" font-size="10.00">_frames</text>
</a>
</g>
</g>
<!-- Node4&#45;&gt;Node27 -->
<g id="edge67" class="edge">
<title>Node4&#45;&gt;Node27</title>
<path fill="none" stroke="midnightblue" d="M230.05,-465.5C234.29,-430.57 252.98,-310.6 316,-240.3 319.18,-236.75 322.89,-233.57 326.86,-230.73"/>
<polygon fill="midnightblue" stroke="midnightblue" points="328.74,-233.67 335.31,-225.36 324.99,-227.76 328.74,-233.67"/>
</g>
<!-- Node6 -->
<g id="node6" class="node">
<title>Node6</title>
<g id="a_node6"><a xlink:href="transport__service_8c.html#ac5bd8d9a6370babde7f4eb7cce1ff01c" target="_top" xlink:title=" ">
<polygon fill="none" stroke="black" points="1534,-80.3 1534,-110.3 1639,-110.3 1639,-80.3 1534,-80.3"/>
<text text-anchor="start" x="1542" y="-98.3" font-family="Helvetica,sans-Serif" font-size="10.00">discard_all_received</text>
<text text-anchor="middle" x="1586.5" y="-87.3" font-family="Helvetica,sans-Serif" font-size="10.00">_fragments</text>
</a>
</g>
</g>
<!-- Node5&#45;&gt;Node6 -->
<g id="edge5" class="edge">
<title>Node5&#45;&gt;Node6</title>
<path fill="none" stroke="midnightblue" d="M989.24,-85.53C1003.14,-74.14 1028.01,-55.91 1053,-48.3 1242.26,9.29 1308.36,18.02 1498,-38.3 1521.38,-45.25 1544.36,-60.64 1560.89,-73.68"/>
<polygon fill="midnightblue" stroke="midnightblue" points="1558.96,-76.62 1568.92,-80.23 1563.38,-71.19 1558.96,-76.62"/>
</g>
<!-- Node7 -->
<g id="node7" class="node">
<title>Node7</title>
<g id="a_node7"><a xlink:href="transport__service_8c.html#affd944193a83bcd8f404cc2274f933d8" target="_top" xlink:title=" ">
<polygon fill="none" stroke="black" points="1375,-47.8 1375,-66.8 1498,-66.8 1498,-47.8 1375,-47.8"/>
<text text-anchor="middle" x="1436.5" y="-54.8" font-family="Helvetica,sans-Serif" font-size="10.00">get_next_missing_offset</text>
</a>
</g>
</g>
<!-- Node5&#45;&gt;Node7 -->
<g id="edge6" class="edge">
<title>Node5&#45;&gt;Node7</title>
<path fill="none" stroke="midnightblue" d="M998.51,-85.73C1013.31,-79.3 1033.96,-71.31 1053,-67.3 1159.86,-44.85 1287.18,-47.11 1364.64,-51.6"/>
<polygon fill="midnightblue" stroke="midnightblue" points="1364.57,-55.1 1374.76,-52.22 1364.99,-48.12 1364.57,-55.1"/>
</g>
<!-- Node5&#45;&gt;Node8 -->
<g id="edge7" class="edge">
<title>Node5&#45;&gt;Node8</title>
<path fill="none" stroke="midnightblue" d="M996.52,-105C1046.87,-131.37 1186.52,-204.49 1246.28,-235.79"/>
<polygon fill="midnightblue" stroke="midnightblue" points="1245.01,-239.07 1255.49,-240.61 1248.26,-232.87 1245.01,-239.07"/>
</g>
<!-- Node5&#45;&gt;Node10 -->
<g id="edge20" class="edge">
<title>Node5&#45;&gt;Node10</title>
<path fill="none" stroke="midnightblue" d="M986.57,-105.01C1041.24,-166.95 1339,-504.3 1339,-504.3 1372.9,-548.85 1407.5,-605.09 1424.58,-633.72"/>
<polygon fill="midnightblue" stroke="midnightblue" points="1421.75,-635.81 1429.86,-642.63 1427.78,-632.24 1421.75,-635.81"/>
</g>
<!-- Node12 -->
<g id="node12" class="node">
<title>Node12</title>
<g id="a_node12"><a xlink:href="transport__service_8c.html#af902d536b92f710cc926f391bbef6bd1" target="_top" xlink:title=" ">
<polygon fill="none" stroke="black" points="1063,-85.8 1063,-104.8 1165,-104.8 1165,-85.8 1063,-85.8"/>
<text text-anchor="middle" x="1114" y="-92.8" font-family="Helvetica,sans-Serif" font-size="10.00">send_frag_req_cmd</text>
</a>
</g>
</g>
<!-- Node5&#45;&gt;Node12 -->
<g id="edge12" class="edge">
<title>Node5&#45;&gt;Node12</title>
<path fill="none" stroke="midnightblue" d="M1012.77,-95.3C1024.91,-95.3 1038.91,-95.3 1052.53,-95.3"/>
<polygon fill="midnightblue" stroke="midnightblue" points="1052.83,-98.8 1062.83,-95.3 1052.83,-91.8 1052.83,-98.8"/>
</g>
<!-- Node8&#45;&gt;Node9 -->
<g id="edge8" class="edge">
<title>Node8&#45;&gt;Node9</title>
<path fill="none" stroke="midnightblue" d="M1299.56,-259.81C1311.49,-264.78 1326.14,-271.1 1339,-277.3 1363.45,-289.1 1390.62,-303.9 1409.88,-314.69"/>
<polygon fill="midnightblue" stroke="midnightblue" points="1408.22,-317.77 1418.65,-319.63 1411.66,-311.67 1408.22,-317.77"/>
</g>
<!-- Node8&#45;&gt;Node10 -->
<g id="edge10" class="edge">
<title>Node8&#45;&gt;Node10</title>
<path fill="none" stroke="midnightblue" d="M1282.89,-259.82C1295.44,-277.49 1322.29,-316.92 1339,-353.3 1385.47,-454.47 1419.18,-584.38 1430.94,-632.89"/>
<polygon fill="midnightblue" stroke="midnightblue" points="1427.55,-633.79 1433.28,-642.7 1434.36,-632.16 1427.55,-633.79"/>
</g>
<!-- Node9&#45;&gt;Node6 -->
<g id="edge9" class="edge">
<title>Node9&#45;&gt;Node6</title>
<path fill="none" stroke="midnightblue" d="M1443.67,-319.55C1465.35,-285.27 1538.45,-169.69 1570.37,-119.22"/>
<polygon fill="midnightblue" stroke="midnightblue" points="1573.45,-120.91 1575.83,-110.59 1567.53,-117.17 1573.45,-120.91"/>
</g>
<!-- Node11 -->
<g id="node11" class="node">
<title>Node11</title>
<g id="a_node11"><a xlink:href="transport__service_8c.html#a8f014c5804fe50e480dea5db75de4d51" target="_top" xlink:title=" ">
<polygon fill="none" stroke="black" points="1548,-642.8 1548,-661.8 1625,-661.8 1625,-642.8 1548,-642.8"/>
<text text-anchor="middle" x="1586.5" y="-649.8" font-family="Helvetica,sans-Serif" font-size="10.00">find_transition</text>
</a>
</g>
</g>
<!-- Node10&#45;&gt;Node11 -->
<g id="edge11" class="edge">
<title>Node10&#45;&gt;Node11</title>
<path fill="none" stroke="midnightblue" d="M1485.14,-652.3C1501.94,-652.3 1520.82,-652.3 1537.63,-652.3"/>
<polygon fill="midnightblue" stroke="midnightblue" points="1537.79,-655.8 1547.79,-652.3 1537.79,-648.8 1537.79,-655.8"/>
</g>
<!-- Node12&#45;&gt;Node7 -->
<g id="edge13" class="edge">
<title>Node12&#45;&gt;Node7</title>
<path fill="none" stroke="midnightblue" d="M1157.84,-85.77C1174.38,-82.37 1193.5,-78.77 1211,-76.3 1262.21,-69.09 1320.4,-64.26 1364.7,-61.28"/>
<polygon fill="midnightblue" stroke="midnightblue" points="1365.04,-64.76 1374.79,-60.61 1364.58,-57.78 1365.04,-64.76"/>
</g>
<!-- Node12&#45;&gt;Node10 -->
<g id="edge19" class="edge">
<title>Node12&#45;&gt;Node10</title>
<path fill="none" stroke="midnightblue" d="M1144.98,-104.86C1193.67,-121.99 1289.47,-162.69 1339,-231.3 1363.21,-264.84 1417.37,-553.32 1431.87,-632.36"/>
<polygon fill="midnightblue" stroke="midnightblue" points="1428.47,-633.23 1433.72,-642.44 1435.36,-631.97 1428.47,-633.23"/>
</g>
<!-- Node12&#45;&gt;Node13 -->
<g id="edge14" class="edge">
<title>Node12&#45;&gt;Node13</title>
<path fill="none" stroke="midnightblue" d="M1165.31,-95.3C1182.8,-95.3 1202.48,-95.3 1220.24,-95.3"/>
<polygon fill="midnightblue" stroke="midnightblue" points="1220.45,-98.8 1230.45,-95.3 1220.45,-91.8 1220.45,-98.8"/>
</g>
<!-- Node13&#45;&gt;Node5 -->
<g id="edge16" class="edge">
<title>Node13&#45;&gt;Node5</title>
<path fill="none" stroke="midnightblue" d="M1233.79,-85.79C1215.9,-82.03 1194.51,-78.16 1175,-76.3 1121.02,-71.17 1106.81,-69.59 1053,-76.3 1041.57,-77.73 1029.38,-80.33 1018.23,-83.16"/>
<polygon fill="midnightblue" stroke="midnightblue" points="1017.09,-79.84 1008.32,-85.8 1018.89,-86.61 1017.09,-79.84"/>
</g>
<!-- Node13&#45;&gt;Node6 -->
<g id="edge15" class="edge">
<title>Node13&#45;&gt;Node6</title>
<path fill="none" stroke="midnightblue" d="M1319.69,-95.3C1372.93,-95.3 1463.24,-95.3 1523.62,-95.3"/>
<polygon fill="midnightblue" stroke="midnightblue" points="1523.78,-98.8 1533.78,-95.3 1523.78,-91.8 1523.78,-98.8"/>
</g>
<!-- Node13&#45;&gt;Node7 -->
<g id="edge17" class="edge">
<title>Node13&#45;&gt;Node7</title>
<path fill="none" stroke="midnightblue" d="M1316.25,-85.71C1337.3,-80.7 1363.26,-74.52 1385.57,-69.2"/>
<polygon fill="midnightblue" stroke="midnightblue" points="1386.62,-72.55 1395.54,-66.82 1385,-65.74 1386.62,-72.55"/>
</g>
<!-- Node13&#45;&gt;Node10 -->
<g id="edge18" class="edge">
<title>Node13&#45;&gt;Node10</title>
<path fill="none" stroke="midnightblue" d="M1319.27,-104.82C1326.79,-108.26 1333.84,-112.94 1339,-119.3 1403.89,-199.33 1356.94,-246.87 1375,-348.3 1394.17,-455.96 1421.03,-584.25 1431.29,-632.59"/>
<polygon fill="midnightblue" stroke="midnightblue" points="1427.92,-633.57 1433.42,-642.62 1434.76,-632.11 1427.92,-633.57"/>
</g>
<!-- Node14&#45;&gt;Node10 -->
<g id="edge53" class="edge">
<title>Node14&#45;&gt;Node10</title>
<path fill="none" stroke="midnightblue" d="M383.1,-637.09C408.9,-685.08 530.18,-893.3 692,-893.3 692,-893.3 692,-893.3 1115,-893.3 1217.01,-893.3 1258.5,-905.95 1339,-843.3 1396.23,-798.77 1422.29,-711.11 1431.44,-671.98"/>
<polygon fill="midnightblue" stroke="midnightblue" points="1434.88,-672.62 1433.63,-662.1 1428.05,-671.1 1434.88,-672.62"/>
</g>
<!-- Node14&#45;&gt;Node15 -->
<g id="edge22" class="edge">
<title>Node14&#45;&gt;Node15</title>
<path fill="none" stroke="midnightblue" d="M428.28,-627.3C439.66,-627.3 451.9,-627.3 463.73,-627.3"/>
<polygon fill="midnightblue" stroke="midnightblue" points="463.99,-630.8 473.99,-627.3 463.99,-623.8 463.99,-630.8"/>
</g>
<!-- Node15&#45;&gt;Node9 -->
<g id="edge23" class="edge">
<title>Node15&#45;&gt;Node9</title>
<path fill="none" stroke="midnightblue" d="M542.67,-617.76C601.76,-578.6 835.66,-429.95 1053,-380.3 1161.29,-355.57 1289.76,-341.48 1366.84,-334.62"/>
<polygon fill="midnightblue" stroke="midnightblue" points="1367.25,-338.1 1376.91,-333.74 1366.64,-331.13 1367.25,-338.1"/>
</g>
<!-- Node15&#45;&gt;Node10 -->
<g id="edge24" class="edge">
<title>Node15&#45;&gt;Node10</title>
<path fill="none" stroke="midnightblue" d="M534.98,-636.81C565.25,-679.96 697.74,-855.3 852,-855.3 852,-855.3 852,-855.3 1115,-855.3 1217.1,-855.3 1255.58,-863.17 1339,-804.3 1386.96,-770.46 1416.48,-704.49 1428.81,-671.73"/>
<polygon fill="midnightblue" stroke="midnightblue" points="1432.22,-672.58 1432.33,-661.98 1425.64,-670.2 1432.22,-672.58"/>
</g>
<!-- Node15&#45;&gt;Node16 -->
<g id="edge25" class="edge">
<title>Node15&#45;&gt;Node16</title>
<path fill="none" stroke="midnightblue" d="M581.13,-620.95C589.32,-620.72 597.95,-620.59 606.64,-620.56"/>
<polygon fill="midnightblue" stroke="midnightblue" points="606.84,-624.06 616.84,-620.57 606.85,-617.06 606.84,-624.06"/>
</g>
<!-- Node16&#45;&gt;Node10 -->
<g id="edge52" class="edge">
<title>Node16&#45;&gt;Node10</title>
<path fill="none" stroke="midnightblue" d="M701.06,-636.99C730.16,-675.71 845.54,-817.3 976,-817.3 976,-817.3 976,-817.3 1115,-817.3 1217.1,-817.3 1251.75,-819.33 1339,-766.3 1378.49,-742.3 1409.77,-696.46 1425.13,-670.83"/>
<polygon fill="midnightblue" stroke="midnightblue" points="1428.21,-672.48 1430.22,-662.08 1422.16,-668.96 1428.21,-672.48"/>
</g>
<!-- Node16&#45;&gt;Node15 -->
<g id="edge45" class="edge">
<title>Node16&#45;&gt;Node15</title>
<path fill="none" stroke="midnightblue" d="M616.84,-634.03C608.26,-634.09 599.59,-634.04 591.2,-633.89"/>
<polygon fill="midnightblue" stroke="midnightblue" points="591.21,-630.39 581.13,-633.66 591.05,-637.39 591.21,-630.39"/>
</g>
<!-- Node16&#45;&gt;Node17 -->
<g id="edge26" class="edge">
<title>Node16&#45;&gt;Node17</title>
<path fill="none" stroke="midnightblue" d="M769.3,-620.56C780.98,-620.52 792.78,-620.67 803.65,-621.03"/>
<polygon fill="midnightblue" stroke="midnightblue" points="803.64,-624.53 813.77,-621.43 803.91,-617.53 803.64,-624.53"/>
</g>
<!-- Node24 -->
<g id="node24" class="node">
<title>Node24</title>
<g id="a_node24"><a xlink:href="transport__service_8c.html#ada81ed14232e9fcf5ffc8cef349c28b5" target="_top" xlink:title=" ">
<polygon fill="none" stroke="black" points="805,-527.8 805,-546.8 901,-546.8 901,-527.8 805,-527.8"/>
<text text-anchor="middle" x="853" y="-534.8" font-family="Helvetica,sans-Serif" font-size="10.00">send_subseq_frag</text>
</a>
</g>
</g>
<!-- Node16&#45;&gt;Node24 -->
<g id="edge46" class="edge">
<title>Node16&#45;&gt;Node24</title>
<path fill="none" stroke="midnightblue" d="M708.15,-617.8C723.7,-611.83 749.1,-604.94 769,-594.3 790.1,-583.03 811.16,-566.2 826.79,-553.53"/>
<polygon fill="midnightblue" stroke="midnightblue" points="829.31,-556 834.88,-546.98 824.9,-550.55 829.31,-556"/>
</g>
<!-- Node17&#45;&gt;Node10 -->
<g id="edge41" class="edge">
<title>Node17&#45;&gt;Node10</title>
<path fill="none" stroke="midnightblue" d="M871.08,-636.87C887.59,-645.83 913.47,-659.18 937,-668.3 1055.17,-714.11 1085.51,-729.57 1211,-747.3 1267.33,-755.26 1286.36,-768.87 1339,-747.3 1376.86,-731.8 1407.84,-693.47 1423.8,-670.52"/>
<polygon fill="midnightblue" stroke="midnightblue" points="1426.85,-672.26 1429.52,-662.01 1421.04,-668.35 1426.85,-672.26"/>
</g>
<!-- Node17&#45;&gt;Node16 -->
<g id="edge44" class="edge">
<title>Node17&#45;&gt;Node16</title>
<path fill="none" stroke="midnightblue" d="M813.77,-633.18C803.27,-633.68 791.44,-633.96 779.42,-634.03"/>
<polygon fill="midnightblue" stroke="midnightblue" points="779.29,-630.53 769.3,-634.05 779.3,-637.53 779.29,-630.53"/>
</g>
<!-- Node18 -->
<g id="node18" class="node">
<title>Node18</title>
<g id="a_node18"><a xlink:href="transport__service_8c.html#a2f78da3ac5fea2f4b445aaf289500abd" target="_top" xlink:title=" ">
<polygon fill="none" stroke="black" points="951.5,-427.8 951.5,-446.8 1002.5,-446.8 1002.5,-427.8 951.5,-427.8"/>
<text text-anchor="middle" x="977" y="-434.8" font-family="Helvetica,sans-Serif" font-size="10.00">add_crc</text>
</a>
</g>
</g>
<!-- Node17&#45;&gt;Node18 -->
<g id="edge27" class="edge">
<title>Node17&#45;&gt;Node18</title>
<path fill="none" stroke="midnightblue" d="M860.45,-617.7C869.58,-604.1 886.72,-578.41 901,-556.3 923.94,-520.79 950.16,-478.88 964.73,-455.47"/>
<polygon fill="midnightblue" stroke="midnightblue" points="967.74,-457.25 970.04,-446.91 961.79,-453.56 967.74,-457.25"/>
</g>
<!-- Node20 -->
<g id="node20" class="node">
<title>Node20</title>
<g id="a_node20"><a xlink:href="transport__service_8c.html#a8ea28513599b01de1634e53dc2cb2c91" target="_top" xlink:title=" ">
<polygon fill="none" stroke="black" points="1230.5,-547.8 1230.5,-566.8 1319.5,-566.8 1319.5,-547.8 1230.5,-547.8"/>
<text text-anchor="middle" x="1275" y="-554.8" font-family="Helvetica,sans-Serif" font-size="10.00">fc_timer_expired</text>
</a>
</g>
</g>
<!-- Node17&#45;&gt;Node20 -->
<g id="edge29" class="edge">
<title>Node17&#45;&gt;Node20</title>
<path fill="none" stroke="midnightblue" d="M892.01,-620.97C967.01,-608.47 1134.2,-580.6 1220.37,-566.24"/>
<polygon fill="midnightblue" stroke="midnightblue" points="1221.18,-569.66 1230.47,-564.56 1220.03,-562.75 1221.18,-569.66"/>
</g>
<!-- Node21 -->
<g id="node21" class="node">
<title>Node21</title>
<g id="a_node21"><a xlink:href="transport__service_8c.html#a357ebe08fd6aa69fc82a072e76710bd5" target="_top" xlink:title=" ">
<polygon fill="none" stroke="black" points="937,-522.8 937,-541.8 1017,-541.8 1017,-522.8 937,-522.8"/>
<text text-anchor="middle" x="977" y="-529.8" font-family="Helvetica,sans-Serif" font-size="10.00">send_last_frag</text>
</a>
</g>
</g>
<!-- Node17&#45;&gt;Node21 -->
<g id="edge40" class="edge">
<title>Node17&#45;&gt;Node21</title>
<path fill="none" stroke="midnightblue" d="M866.6,-617.5C887.62,-601.13 930.04,-568.09 955.44,-548.31"/>
<polygon fill="midnightblue" stroke="midnightblue" points="957.91,-550.82 963.65,-541.92 953.61,-545.3 957.91,-550.82"/>
</g>
<!-- Node23 -->
<g id="node23" class="node">
<title>Node23</title>
<g id="a_node23"><a xlink:href="transport__service_8c.html#a331b914d5344d6a3dd00d6d56f1a4839" target="_top" xlink:title=" ">
<polygon fill="none" stroke="black" points="1222,-707.3 1222,-737.3 1328,-737.3 1328,-707.3 1222,-707.3"/>
<text text-anchor="start" x="1230" y="-725.3" font-family="Helvetica,sans-Serif" font-size="10.00">temp_callback_reply</text>
<text text-anchor="middle" x="1275" y="-714.3" font-family="Helvetica,sans-Serif" font-size="10.00">_frag_req</text>
</a>
</g>
</g>
<!-- Node17&#45;&gt;Node23 -->
<g id="edge42" class="edge">
<title>Node17&#45;&gt;Node23</title>
<path fill="none" stroke="midnightblue" d="M892.01,-635.9C964.63,-652.33 1123.7,-688.31 1211.95,-708.27"/>
<polygon fill="midnightblue" stroke="midnightblue" points="1211.3,-711.71 1221.82,-710.5 1212.84,-704.88 1211.3,-711.71"/>
</g>
<!-- Node18&#45;&gt;Node19 -->
<g id="edge28" class="edge">
<title>Node18&#45;&gt;Node19</title>
<path fill="none" stroke="midnightblue" d="M1002.76,-430.33C1021.38,-425.09 1047.36,-417.78 1069.42,-411.57"/>
<polygon fill="midnightblue" stroke="midnightblue" points="1070.57,-414.88 1079.24,-408.81 1068.67,-408.15 1070.57,-414.88"/>
</g>
<!-- Node20&#45;&gt;Node9 -->
<g id="edge30" class="edge">
<title>Node20&#45;&gt;Node9</title>
<path fill="none" stroke="midnightblue" d="M1287.61,-547.58C1301,-536.01 1323.19,-515.67 1339,-495.3 1377.36,-445.88 1411.34,-379.7 1426.75,-347.9"/>
<polygon fill="midnightblue" stroke="midnightblue" points="1429.92,-349.38 1431.08,-338.85 1423.6,-346.36 1429.92,-349.38"/>
</g>
<!-- Node20&#45;&gt;Node10 -->
<g id="edge39" class="edge">
<title>Node20&#45;&gt;Node10</title>
<path fill="none" stroke="midnightblue" d="M1305.9,-566.82C1316.63,-570.72 1328.62,-575.65 1339,-581.3 1367.98,-597.1 1398.11,-620.6 1416.83,-636.18"/>
<polygon fill="midnightblue" stroke="midnightblue" points="1414.69,-638.95 1424.59,-642.72 1419.2,-633.6 1414.69,-638.95"/>
</g>
<!-- Node20&#45;&gt;Node21 -->
<g id="edge31" class="edge">
<title>Node20&#45;&gt;Node21</title>
<path fill="none" stroke="midnightblue" d="M1230.09,-553.6C1175.82,-549.01 1083.71,-541.23 1027.14,-536.45"/>
<polygon fill="midnightblue" stroke="midnightblue" points="1027.26,-532.95 1017,-535.6 1026.67,-539.93 1027.26,-532.95"/>
</g>
<!-- Node21&#45;&gt;Node9 -->
<g id="edge32" class="edge">
<title>Node21&#45;&gt;Node9</title>
<path fill="none" stroke="midnightblue" d="M994.51,-522.65C1009.41,-514.25 1032.12,-502.23 1053,-494.3 1114.43,-470.99 1281.45,-451.01 1339,-419.3 1373.06,-400.54 1404.38,-367.09 1421.62,-346.68"/>
<polygon fill="midnightblue" stroke="midnightblue" points="1424.45,-348.75 1428.11,-338.81 1419.05,-344.3 1424.45,-348.75"/>
</g>
<!-- Node21&#45;&gt;Node10 -->
<g id="edge33" class="edge">
<title>Node21&#45;&gt;Node10</title>
<path fill="none" stroke="midnightblue" d="M1004.51,-541.92C1018.77,-546.89 1036.72,-552.84 1053,-557.3 1178.43,-591.7 1213.7,-584.43 1339,-619.3 1359.58,-625.03 1382.2,-632.69 1400.36,-639.19"/>
<polygon fill="midnightblue" stroke="midnightblue" points="1399.36,-642.55 1409.95,-642.66 1401.74,-635.97 1399.36,-642.55"/>
</g>
<!-- Node22 -->
<g id="node22" class="node">
<title>Node22</title>
<g id="a_node22"><a xlink:href="transport__service_8c.html#a8ec2e40dce8c6cdab972b44e55ba6cec" target="_top" xlink:title=" ">
<polygon fill="none" stroke="black" points="1053,-503.8 1053,-522.8 1175,-522.8 1175,-503.8 1053,-503.8"/>
<text text-anchor="middle" x="1114" y="-510.8" font-family="Helvetica,sans-Serif" font-size="10.00">temp_callback_last_frag</text>
</a>
</g>
</g>
<!-- Node21&#45;&gt;Node22 -->
<g id="edge34" class="edge">
<title>Node21&#45;&gt;Node22</title>
<path fill="none" stroke="midnightblue" d="M1005.97,-522.77C1016.8,-520.53 1029.73,-518.32 1042.8,-516.44"/>
<polygon fill="midnightblue" stroke="midnightblue" points="1043.35,-519.9 1052.78,-515.06 1042.4,-512.96 1043.35,-519.9"/>
</g>
<!-- Node22&#45;&gt;Node9 -->
<g id="edge36" class="edge">
<title>Node22&#45;&gt;Node9</title>
<path fill="none" stroke="midnightblue" d="M1175.04,-509.24C1222.85,-503.57 1289.7,-489.95 1339,-457.3 1381.16,-429.39 1412.08,-376.62 1426.48,-348.34"/>
<polygon fill="midnightblue" stroke="midnightblue" points="1429.75,-349.64 1431.03,-339.12 1423.47,-346.54 1429.75,-349.64"/>
</g>
<!-- Node22&#45;&gt;Node10 -->
<g id="edge38" class="edge">
<title>Node22&#45;&gt;Node10</title>
<path fill="none" stroke="midnightblue" d="M1175.12,-508.31C1222.37,-507.05 1288.41,-511.34 1339,-538.3 1379.99,-560.15 1410.86,-607.24 1425.71,-633.55"/>
<polygon fill="midnightblue" stroke="midnightblue" points="1422.74,-635.41 1430.6,-642.52 1428.88,-632.06 1422.74,-635.41"/>
</g>
<!-- Node22&#45;&gt;Node20 -->
<g id="edge35" class="edge">
<title>Node22&#45;&gt;Node20</title>
<path fill="none" stroke="midnightblue" d="M1149.5,-522.85C1173.04,-529.37 1204.44,-538.05 1229.81,-545.08"/>
<polygon fill="midnightblue" stroke="midnightblue" points="1229,-548.48 1239.57,-547.78 1230.86,-541.73 1229,-548.48"/>
</g>
<!-- Node22&#45;&gt;Node21 -->
<g id="edge37" class="edge">
<title>Node22&#45;&gt;Node21</title>
<path fill="none" stroke="midnightblue" d="M1084.76,-522.89C1068.12,-526.33 1046.59,-529.66 1027.23,-531.9"/>
<polygon fill="midnightblue" stroke="midnightblue" points="1026.62,-528.45 1017.05,-532.99 1027.36,-535.41 1026.62,-528.45"/>
</g>
<!-- Node23&#45;&gt;Node10 -->
<g id="edge43" class="edge">
<title>Node23&#45;&gt;Node10</title>
<path fill="none" stroke="midnightblue" d="M1310.22,-707.29C1338.1,-695.05 1377.15,-677.91 1404.21,-666.04"/>
<polygon fill="midnightblue" stroke="midnightblue" points="1405.84,-669.14 1413.59,-661.92 1403.03,-662.73 1405.84,-669.14"/>
</g>
<!-- Node24&#45;&gt;Node9 -->
<g id="edge48" class="edge">
<title>Node24&#45;&gt;Node9</title>
<path fill="none" stroke="midnightblue" d="M877.78,-527.76C914.99,-512.89 989.31,-483.52 1053,-460.3 1069.9,-454.14 1305.08,-373.82 1398.06,-342.08"/>
<polygon fill="midnightblue" stroke="midnightblue" points="1399.31,-345.36 1407.64,-338.81 1397.04,-338.73 1399.31,-345.36"/>
</g>
<!-- Node24&#45;&gt;Node10 -->
<g id="edge50" class="edge">
<title>Node24&#45;&gt;Node10</title>
<path fill="none" stroke="midnightblue" d="M893.22,-546.81C933.31,-556.47 997.42,-571.76 1053,-584.3 1123.07,-600.12 1140.35,-605.36 1211,-618.3 1267.42,-628.64 1332.22,-638.21 1377.66,-644.54"/>
<polygon fill="midnightblue" stroke="midnightblue" points="1377.24,-648.02 1387.62,-645.92 1378.2,-641.08 1377.24,-648.02"/>
</g>
<!-- Node24&#45;&gt;Node16 -->
<g id="edge51" class="edge">
<title>Node24&#45;&gt;Node16</title>
<path fill="none" stroke="midnightblue" d="M846.86,-547.11C834.51,-563.82 801.8,-594.78 769,-612.3 768.32,-612.67 767.64,-613.02 766.95,-613.38"/>
<polygon fill="midnightblue" stroke="midnightblue" points="765.26,-610.3 757.69,-617.72 768.23,-616.64 765.26,-610.3"/>
</g>
<!-- Node24&#45;&gt;Node18 -->
<g id="edge47" class="edge">
<title>Node24&#45;&gt;Node18</title>
<path fill="none" stroke="midnightblue" d="M863.19,-527.79C877.98,-512.75 908.31,-482.96 937,-461.3 941.07,-458.23 945.55,-455.19 949.97,-452.36"/>
<polygon fill="midnightblue" stroke="midnightblue" points="952.16,-455.13 958.84,-446.91 948.49,-449.17 952.16,-455.13"/>
</g>
<!-- Node24&#45;&gt;Node21 -->
<g id="edge49" class="edge">
<title>Node24&#45;&gt;Node21</title>
<path fill="none" stroke="midnightblue" d="M901.17,-535.37C909.56,-535.03 918.32,-534.67 926.76,-534.32"/>
<polygon fill="midnightblue" stroke="midnightblue" points="927.02,-537.81 936.86,-533.91 926.73,-530.82 927.02,-537.81"/>
</g>
<!-- Node26 -->
<g id="node26" class="node">
<title>Node26</title>
<g id="a_node26"><a xlink:href="transport__service_8c.html#a050800ee9c4c9bc3aa76a93612fb985f" target="_top" xlink:title=" ">
<polygon fill="none" stroke="black" points="487,-465.8 487,-484.8 568,-484.8 568,-465.8 487,-465.8"/>
<text text-anchor="middle" x="527.5" y="-472.8" font-family="Helvetica,sans-Serif" font-size="10.00">send_first_frag</text>
</a>
</g>
</g>
<!-- Node25&#45;&gt;Node26 -->
<g id="edge60" class="edge">
<title>Node25&#45;&gt;Node26</title>
<path fill="none" stroke="midnightblue" d="M434.14,-475.3C448.15,-475.3 463.07,-475.3 476.74,-475.3"/>
<polygon fill="midnightblue" stroke="midnightblue" points="476.92,-478.8 486.92,-475.3 476.92,-471.8 476.92,-478.8"/>
</g>
<!-- Node26&#45;&gt;Node9 -->
<g id="edge62" class="edge">
<title>Node26&#45;&gt;Node9</title>
<path fill="none" stroke="midnightblue" d="M553.95,-465.74C571.57,-459.2 595.62,-450.46 617,-443.3 873.09,-357.56 941.92,-338.33 1211,-315.3 1267.68,-310.45 1282.26,-311.21 1339,-315.3 1348.88,-316.02 1359.28,-317.13 1369.45,-318.44"/>
<polygon fill="midnightblue" stroke="midnightblue" points="1369.14,-321.93 1379.52,-319.79 1370.07,-314.99 1369.14,-321.93"/>
</g>
<!-- Node26&#45;&gt;Node10 -->
<g id="edge64" class="edge">
<title>Node26&#45;&gt;Node10</title>
<path fill="none" stroke="midnightblue" d="M556.65,-484.81C649.03,-515.43 951.8,-611.28 1211,-642.3 1267.24,-649.04 1331.9,-651.35 1377.34,-652.09"/>
<polygon fill="midnightblue" stroke="midnightblue" points="1377.55,-655.59 1387.6,-652.23 1377.65,-648.59 1377.55,-655.59"/>
</g>
<!-- Node26&#45;&gt;Node16 -->
<g id="edge65" class="edge">
<title>Node26&#45;&gt;Node16</title>
<path fill="none" stroke="midnightblue" d="M538.73,-484.81C565.91,-510.08 640.2,-579.15 674.38,-610.92"/>
<polygon fill="midnightblue" stroke="midnightblue" points="672.07,-613.55 681.78,-617.8 676.84,-608.43 672.07,-613.55"/>
</g>
<!-- Node26&#45;&gt;Node18 -->
<g id="edge61" class="edge">
<title>Node26&#45;&gt;Node18</title>
<path fill="none" stroke="midnightblue" d="M568.05,-468.27C583.3,-465.76 600.92,-463.11 617,-461.3 735.49,-448 876.86,-441.19 941.12,-438.59"/>
<polygon fill="midnightblue" stroke="midnightblue" points="941.27,-442.09 951.12,-438.19 940.99,-435.09 941.27,-442.09"/>
</g>
<!-- Node26&#45;&gt;Node21 -->
<g id="edge63" class="edge">
<title>Node26&#45;&gt;Node21</title>
<path fill="none" stroke="midnightblue" d="M568.14,-478.73C615.86,-482.97 698.4,-490.7 769,-499.3 827.84,-506.47 842.52,-508.64 901,-518.3 909.36,-519.69 918.22,-521.25 926.82,-522.82"/>
<polygon fill="midnightblue" stroke="midnightblue" points="926.27,-526.28 936.74,-524.66 927.54,-519.4 926.27,-526.28"/>
</g>
</g>
</svg>
