<?xml version="1.0" encoding="UTF-8" standalone="no"?>
<!DOCTYPE svg PUBLIC "-//W3C//DTD SVG 1.1//EN"
 "http://www.w3.org/Graphics/SVG/1.1/DTD/svg11.dtd">
<!-- Generated by graphviz version 2.43.0 (0)
 -->
<!-- Title: reset_transport_service Pages: 1 -->
<svg width="2076pt" height="390pt"
 viewBox="0.00 0.00 2076.00 390.01" xmlns="http://www.w3.org/2000/svg" xmlns:xlink="http://www.w3.org/1999/xlink">
<g id="graph0" class="graph" transform="scale(1 1) rotate(0) translate(4 386.01)">
<title>reset_transport_service</title>
<!-- Node1 -->
<g id="node1" class="node">
<title>Node1</title>
<g id="a_node1"><a xlink:title=" ">
<polygon fill="#bfbfbf" stroke="black" points="1949,-152.5 1949,-171.5 2068,-171.5 2068,-152.5 1949,-152.5"/>
<text text-anchor="middle" x="2008.5" y="-159.5" font-family="Helvetica,sans-Serif" font-size="10.00">reset_transport_service</text>
</a>
</g>
</g>
<!-- Node2 -->
<g id="node2" class="node">
<title>Node2</title>
<g id="a_node2"><a xlink:href="transport__service_8c.html#a8ea28513599b01de1634e53dc2cb2c91" target="_top" xlink:title=" ">
<polygon fill="none" stroke="black" points="1824,-266.5 1824,-285.5 1913,-285.5 1913,-266.5 1824,-266.5"/>
<text text-anchor="middle" x="1868.5" y="-273.5" font-family="Helvetica,sans-Serif" font-size="10.00">fc_timer_expired</text>
</a>
</g>
</g>
<!-- Node1&#45;&gt;Node2 -->
<g id="edge1" class="edge">
<title>Node1&#45;&gt;Node2</title>
<path fill="none" stroke="midnightblue" d="M1992.28,-178.92C1974.48,-198.1 1943.54,-229.61 1913,-252 1905.77,-257.3 1897.23,-262.26 1889.64,-266.27"/>
<polygon fill="midnightblue" stroke="midnightblue" points="1994.89,-181.25 1999.07,-171.51 1989.73,-176.52 1994.89,-181.25"/>
</g>
<!-- Node5 -->
<g id="node5" class="node">
<title>Node5</title>
<g id="a_node5"><a xlink:href="transport__service_8c.html#afe4b474eca116806850af8ce6182384c" target="_top" xlink:title=" ">
<polygon fill="none" stroke="black" points="613,-178 613,-208 753,-208 753,-178 613,-178"/>
<text text-anchor="start" x="621" y="-196" font-family="Helvetica,sans-Serif" font-size="10.00">transport_service_command</text>
<text text-anchor="middle" x="683" y="-185" font-family="Helvetica,sans-Serif" font-size="10.00">_handler</text>
</a>
</g>
</g>
<!-- Node1&#45;&gt;Node5 -->
<g id="edge45" class="edge">
<title>Node1&#45;&gt;Node5</title>
<path fill="none" stroke="midnightblue" d="M1991.85,-144.76C1974.42,-126.68 1944.53,-98.89 1913,-84 1837.25,-48.24 1811.76,-48 1728,-48 1728,-48 1728,-48 997,-48 903.03,-48 871.62,-41.23 789,-86 768.55,-97.08 769.23,-107.33 753,-124 734.8,-142.7 713.53,-163.87 699.47,-177.77"/>
<polygon fill="midnightblue" stroke="midnightblue" points="1989.54,-147.41 1998.94,-152.3 1994.64,-142.61 1989.54,-147.41"/>
</g>
<!-- Node11 -->
<g id="node11" class="node">
<title>Node11</title>
<g id="a_node11"><a xlink:href="transport__service_8c.html#a050800ee9c4c9bc3aa76a93612fb985f" target="_top" xlink:title=" ">
<polygon fill="none" stroke="black" points="1118,-190.5 1118,-209.5 1199,-209.5 1199,-190.5 1118,-190.5"/>
<text text-anchor="middle" x="1158.5" y="-197.5" font-family="Helvetica,sans-Serif" font-size="10.00">send_first_frag</text>
</a>
</g>
</g>
<!-- Node1&#45;&gt;Node11 -->
<g id="edge32" class="edge">
<title>Node1&#45;&gt;Node11</title>
<path fill="none" stroke="midnightblue" d="M1954.13,-150.38C1898.1,-139.2 1807.29,-124 1728,-124 1728,-124 1728,-124 1474,-124 1372.99,-124 1343.93,-116.37 1248,-148 1218.55,-157.71 1188.25,-178.24 1171.86,-190.4"/>
<polygon fill="midnightblue" stroke="midnightblue" points="1953.68,-153.86 1964.18,-152.41 1955.07,-147 1953.68,-153.86"/>
</g>
<!-- Node12 -->
<g id="node12" class="node">
<title>Node12</title>
<g id="a_node12"><a xlink:href="group__transport__service.html#ga5dec1563c42d06aad70fdc31f3acb603" target="_top" xlink:title="Sending a long frame with Transport service.">
<polygon fill="none" stroke="black" points="927,-0.5 927,-19.5 1069,-19.5 1069,-0.5 927,-0.5"/>
<text text-anchor="middle" x="998" y="-7.5" font-family="Helvetica,sans-Serif" font-size="10.00">transport_service_send_data</text>
</a>
</g>
</g>
<!-- Node1&#45;&gt;Node12 -->
<g id="edge46" class="edge">
<title>Node1&#45;&gt;Node12</title>
<path fill="none" stroke="midnightblue" d="M1999.36,-142.76C1986,-113.78 1956.46,-59.58 1913,-34 1841.54,8.05 1810.91,-10 1728,-10 1728,-10 1728,-10 1323,-10 1235.53,-10 1134.78,-10 1069.15,-10"/>
<polygon fill="midnightblue" stroke="midnightblue" points="1996.3,-144.48 2003.55,-152.2 2002.7,-141.64 1996.3,-144.48"/>
</g>
<!-- Node15 -->
<g id="node15" class="node">
<title>Node15</title>
<g id="a_node15"><a xlink:href="transport__service_8c.html#a8a25db2fc95ae366bd129a0d76800d7c" target="_top" xlink:title=" ">
<polygon fill="none" stroke="black" points="1105,-342.5 1105,-361.5 1212,-361.5 1212,-342.5 1105,-342.5"/>
<text text-anchor="middle" x="1158.5" y="-349.5" font-family="Helvetica,sans-Serif" font-size="10.00">send_frag_wait_cmd</text>
</a>
</g>
</g>
<!-- Node1&#45;&gt;Node15 -->
<g id="edge41" class="edge">
<title>Node1&#45;&gt;Node15</title>
<path fill="none" stroke="midnightblue" d="M1998.98,-181.07C1985.11,-209.97 1954.91,-264.7 1913,-295 1843.28,-345.41 1814.04,-352 1728,-352 1728,-352 1728,-352 1474,-352 1381.86,-352 1274.54,-352 1212.09,-352"/>
<polygon fill="midnightblue" stroke="midnightblue" points="2002.3,-182.23 2003.35,-171.68 1995.96,-179.27 2002.3,-182.23"/>
</g>
<!-- Node17 -->
<g id="node17" class="node">
<title>Node17</title>
<g id="a_node17"><a xlink:href="transport__service_8c.html#ada81ed14232e9fcf5ffc8cef349c28b5" target="_top" xlink:title=" ">
<polygon fill="none" stroke="black" points="1110.5,-228.5 1110.5,-247.5 1206.5,-247.5 1206.5,-228.5 1110.5,-228.5"/>
<text text-anchor="middle" x="1158.5" y="-235.5" font-family="Helvetica,sans-Serif" font-size="10.00">send_subseq_frag</text>
</a>
</g>
</g>
<!-- Node1&#45;&gt;Node17 -->
<g id="edge43" class="edge">
<title>Node1&#45;&gt;Node17</title>
<path fill="none" stroke="midnightblue" d="M1938.62,-162C1882.05,-162 1799.83,-162 1728,-162 1728,-162 1728,-162 1474,-162 1418.04,-162 1258.67,-208.04 1190.76,-228.45"/>
<polygon fill="midnightblue" stroke="midnightblue" points="1938.88,-165.5 1948.88,-162 1938.88,-158.5 1938.88,-165.5"/>
</g>
<!-- Node18 -->
<g id="node18" class="node">
<title>Node18</title>
<g id="a_node18"><a xlink:href="transport__service_8c.html#a8ec2e40dce8c6cdab972b44e55ba6cec" target="_top" xlink:title=" ">
<polygon fill="none" stroke="black" points="1666,-228.5 1666,-247.5 1788,-247.5 1788,-228.5 1666,-228.5"/>
<text text-anchor="middle" x="1727" y="-235.5" font-family="Helvetica,sans-Serif" font-size="10.00">temp_callback_last_frag</text>
</a>
</g>
</g>
<!-- Node1&#45;&gt;Node18 -->
<g id="edge44" class="edge">
<title>Node1&#45;&gt;Node18</title>
<path fill="none" stroke="midnightblue" d="M1985.3,-177.36C1966.81,-189.35 1939.34,-205.39 1913,-214 1872.67,-227.19 1825.18,-233.16 1788.41,-235.85"/>
<polygon fill="midnightblue" stroke="midnightblue" points="1987.46,-180.13 1993.85,-171.68 1983.58,-174.29 1987.46,-180.13"/>
</g>
<!-- Node19 -->
<g id="node19" class="node">
<title>Node19</title>
<g id="a_node19"><a xlink:href="transport__service_8c.html#a357ebe08fd6aa69fc82a072e76710bd5" target="_top" xlink:title=" ">
<polygon fill="none" stroke="black" points="1550,-228.5 1550,-247.5 1630,-247.5 1630,-228.5 1550,-228.5"/>
<text text-anchor="middle" x="1590" y="-235.5" font-family="Helvetica,sans-Serif" font-size="10.00">send_last_frag</text>
</a>
</g>
</g>
<!-- Node1&#45;&gt;Node19 -->
<g id="edge42" class="edge">
<title>Node1&#45;&gt;Node19</title>
<path fill="none" stroke="midnightblue" d="M1938.73,-172.79C1854.52,-186.12 1716.81,-208.34 1666,-219 1652.99,-221.73 1638.82,-225.19 1626.34,-228.41"/>
<polygon fill="midnightblue" stroke="midnightblue" points="1939.4,-176.23 1948.73,-171.21 1938.31,-169.31 1939.4,-176.23"/>
</g>
<!-- Node20 -->
<g id="node20" class="node">
<title>Node20</title>
<g id="a_node20"><a xlink:href="transport__service_8c.html#a559d734936f587a992aa38cadb8413b7" target="_top" xlink:title=" ">
<polygon fill="none" stroke="black" points="1260,-76.5 1260,-95.5 1388,-95.5 1388,-76.5 1260,-76.5"/>
<text text-anchor="middle" x="1324" y="-83.5" font-family="Helvetica,sans-Serif" font-size="10.00">send_frag_complete_cmd</text>
</a>
</g>
</g>
<!-- Node1&#45;&gt;Node20 -->
<g id="edge33" class="edge">
<title>Node1&#45;&gt;Node20</title>
<path fill="none" stroke="midnightblue" d="M1985.3,-146.64C1966.81,-134.65 1939.34,-118.61 1913,-110 1834.19,-84.23 1810.91,-86 1728,-86 1728,-86 1728,-86 1589,-86 1520.36,-86 1441.69,-86 1388.21,-86"/>
<polygon fill="midnightblue" stroke="midnightblue" points="1983.58,-149.71 1993.85,-152.32 1987.46,-143.87 1983.58,-149.71"/>
</g>
<!-- Node3 -->
<g id="node3" class="node">
<title>Node3</title>
<g id="a_node3"><a xlink:href="transport__service_8c.html#a67e57d4768071543cd6f67b8e95dc6d8" target="_top" xlink:title=" ">
<polygon fill="none" stroke="black" points="1436,-266.5 1436,-285.5 1514,-285.5 1514,-266.5 1436,-266.5"/>
<text text-anchor="middle" x="1475" y="-273.5" font-family="Helvetica,sans-Serif" font-size="10.00">reply_frag_req</text>
</a>
</g>
</g>
<!-- Node2&#45;&gt;Node3 -->
<g id="edge2" class="edge">
<title>Node2&#45;&gt;Node3</title>
<path fill="none" stroke="midnightblue" d="M1813.5,-277.54C1804.97,-277.73 1796.24,-277.9 1788,-278 1689.42,-279.24 1573.32,-277.71 1514.43,-276.72"/>
<polygon fill="midnightblue" stroke="midnightblue" points="1813.85,-281.03 1823.77,-277.3 1813.69,-274.04 1813.85,-281.03"/>
</g>
<!-- Node2&#45;&gt;Node18 -->
<g id="edge25" class="edge">
<title>Node2&#45;&gt;Node18</title>
<path fill="none" stroke="midnightblue" d="M1822.54,-263.75C1803.32,-258.52 1781.2,-252.49 1763.19,-247.59"/>
<polygon fill="midnightblue" stroke="midnightblue" points="1821.73,-267.16 1832.3,-266.41 1823.57,-260.41 1821.73,-267.16"/>
</g>
<!-- Node4 -->
<g id="node4" class="node">
<title>Node4</title>
<g id="a_node4"><a xlink:href="transport__service_8c.html#a7800e90df0e417d85ec84937638ad29c" target="_top" xlink:title=" ">
<polygon fill="none" stroke="black" points="816,-209.5 816,-228.5 864,-228.5 864,-209.5 816,-209.5"/>
<text text-anchor="middle" x="840" y="-216.5" font-family="Helvetica,sans-Serif" font-size="10.00">receive</text>
</a>
</g>
</g>
<!-- Node3&#45;&gt;Node4 -->
<g id="edge3" class="edge">
<title>Node3&#45;&gt;Node4</title>
<path fill="none" stroke="midnightblue" d="M1434.32,-288.14C1423.31,-290.97 1411.28,-293.57 1400,-295 1191.34,-321.36 1124.65,-352.87 927,-281 895.52,-269.55 865.33,-243.04 850.51,-228.68"/>
<polygon fill="midnightblue" stroke="midnightblue" points="1435.35,-291.49 1444.09,-285.5 1433.52,-284.73 1435.35,-291.49"/>
</g>
<!-- Node10 -->
<g id="node10" class="node">
<title>Node10</title>
<g id="a_node10"><a xlink:href="transport__service_8c.html#a0d8b03eb74c8ac1b697cf1f967634e2e" target="_top" xlink:title=" ">
<polygon fill="none" stroke="black" points="1248,-266.5 1248,-285.5 1400,-285.5 1400,-266.5 1248,-266.5"/>
<text text-anchor="middle" x="1324" y="-273.5" font-family="Helvetica,sans-Serif" font-size="10.00">transport_service_senddata_cb</text>
</a>
</g>
</g>
<!-- Node3&#45;&gt;Node10 -->
<g id="edge9" class="edge">
<title>Node3&#45;&gt;Node10</title>
<path fill="none" stroke="midnightblue" d="M1425.55,-269.63C1417.36,-269.38 1408.69,-269.25 1400.01,-269.25"/>
<polygon fill="midnightblue" stroke="midnightblue" points="1425.5,-273.13 1435.63,-270.01 1425.77,-266.14 1425.5,-273.13"/>
</g>
<!-- Node4&#45;&gt;Node5 -->
<g id="edge4" class="edge">
<title>Node4&#45;&gt;Node5</title>
<path fill="none" stroke="midnightblue" d="M805.73,-213.42C790.3,-210.83 771.35,-207.65 753.04,-204.58"/>
<polygon fill="midnightblue" stroke="midnightblue" points="805.35,-216.9 815.79,-215.11 806.51,-210 805.35,-216.9"/>
</g>
<!-- Node6 -->
<g id="node6" class="node">
<title>Node6</title>
<g id="a_node6"><a xlink:href="group__transport__service.html#ga8373376f01c78a3ecfb1941605eb9c1a" target="_top" xlink:title="Transport service RX function.">
<polygon fill="none" stroke="black" points="470,-154 470,-184 577,-184 577,-154 470,-154"/>
<text text-anchor="start" x="478" y="-172" font-family="Helvetica,sans-Serif" font-size="10.00">transport_service_on</text>
<text text-anchor="middle" x="523.5" y="-161" font-family="Helvetica,sans-Serif" font-size="10.00">_frame_received</text>
</a>
</g>
</g>
<!-- Node5&#45;&gt;Node6 -->
<g id="edge5" class="edge">
<title>Node5&#45;&gt;Node6</title>
<path fill="none" stroke="midnightblue" d="M602.83,-180.94C594.22,-179.62 585.61,-178.31 577.42,-177.06"/>
<polygon fill="midnightblue" stroke="midnightblue" points="602.51,-184.43 612.92,-182.47 603.56,-177.51 602.51,-184.43"/>
</g>
<!-- Node7 -->
<g id="node7" class="node">
<title>Node7</title>
<g id="a_node7"><a xlink:href="group__transport__service__transport__wrapper.html#ga836e1af25a73aef2bc515da73660cd3b" target="_top" xlink:title="Entry point of Transport service frames received from the PHY/radio stack.">
<polygon fill="none" stroke="black" points="309,-131 309,-161 434,-161 434,-131 309,-131"/>
<text text-anchor="start" x="317" y="-149" font-family="Helvetica,sans-Serif" font-size="10.00">zwave_transport_service</text>
<text text-anchor="middle" x="371.5" y="-138" font-family="Helvetica,sans-Serif" font-size="10.00">_on_frame_received</text>
</a>
</g>
</g>
<!-- Node6&#45;&gt;Node7 -->
<g id="edge6" class="edge">
<title>Node6&#45;&gt;Node7</title>
<path fill="none" stroke="midnightblue" d="M459.51,-159.34C451.11,-158.05 442.51,-156.74 434.14,-155.45"/>
<polygon fill="midnightblue" stroke="midnightblue" points="459.2,-162.83 469.62,-160.89 460.26,-155.92 459.2,-162.83"/>
</g>
<!-- Node8 -->
<g id="node8" class="node">
<title>Node8</title>
<g id="a_node8"><a xlink:href="group__transport__service__transport__wrapper.html#gad02263e40b63853166ac8a7601954f33" target="_top" xlink:title=" ">
<polygon fill="none" stroke="black" points="148,-108 148,-138 273,-138 273,-108 148,-108"/>
<text text-anchor="start" x="156" y="-126" font-family="Helvetica,sans-Serif" font-size="10.00">zwave_transport_service</text>
<text text-anchor="middle" x="210.5" y="-115" font-family="Helvetica,sans-Serif" font-size="10.00">_transport_init</text>
</a>
</g>
</g>
<!-- Node7&#45;&gt;Node8 -->
<g id="edge7" class="edge">
<title>Node7&#45;&gt;Node8</title>
<path fill="none" stroke="midnightblue" d="M298.41,-135.57C290.01,-134.36 281.5,-133.13 273.26,-131.93"/>
<polygon fill="midnightblue" stroke="midnightblue" points="298.17,-139.07 308.57,-137.04 299.18,-132.15 298.17,-139.07"/>
</g>
<!-- Node9 -->
<g id="node9" class="node">
<title>Node9</title>
<g id="a_node9"><a xlink:href="group__zwave__transports__fixt.html#ga26fb2571e272a5094bd0320eca3a896d" target="_top" xlink:title="Setup fixture for Z&#45;Wave Transports.">
<polygon fill="none" stroke="black" points="0,-113.5 0,-132.5 112,-132.5 112,-113.5 0,-113.5"/>
<text text-anchor="middle" x="56" y="-120.5" font-family="Helvetica,sans-Serif" font-size="10.00">zwave_transports_init</text>
</a>
</g>
</g>
<!-- Node8&#45;&gt;Node9 -->
<g id="edge8" class="edge">
<title>Node8&#45;&gt;Node9</title>
<path fill="none" stroke="midnightblue" d="M137.64,-123C129.17,-123 120.62,-123 112.42,-123"/>
<polygon fill="midnightblue" stroke="midnightblue" points="137.91,-126.5 147.91,-123 137.91,-119.5 137.91,-126.5"/>
</g>
<!-- Node10&#45;&gt;Node3 -->
<g id="edge11" class="edge">
<title>Node10&#45;&gt;Node3</title>
<path fill="none" stroke="midnightblue" d="M1410.1,-282.69C1418.99,-282.59 1427.67,-282.35 1435.63,-281.99"/>
<polygon fill="midnightblue" stroke="midnightblue" points="1409.99,-279.19 1400.01,-282.75 1410.03,-286.19 1409.99,-279.19"/>
</g>
<!-- Node10&#45;&gt;Node4 -->
<g id="edge10" class="edge">
<title>Node10&#45;&gt;Node4</title>
<path fill="none" stroke="midnightblue" d="M1237.63,-280.84C1156.57,-283.35 1031.87,-281.78 927,-257 901.74,-251.03 874.68,-237.82 857.81,-228.66"/>
<polygon fill="midnightblue" stroke="midnightblue" points="1237.91,-284.33 1247.79,-280.5 1237.67,-277.34 1237.91,-284.33"/>
</g>
<!-- Node10&#45;&gt;Node11 -->
<g id="edge12" class="edge">
<title>Node10&#45;&gt;Node11</title>
<path fill="none" stroke="midnightblue" d="M1297.21,-261.57C1275,-249.43 1241.89,-232.02 1212,-219 1204.27,-215.63 1195.73,-212.36 1187.82,-209.51"/>
<polygon fill="midnightblue" stroke="midnightblue" points="1295.58,-264.67 1306.02,-266.42 1298.95,-258.53 1295.58,-264.67"/>
</g>
<!-- Node10&#45;&gt;Node15 -->
<g id="edge18" class="edge">
<title>Node10&#45;&gt;Node15</title>
<path fill="none" stroke="midnightblue" d="M1281.37,-289.38C1245.25,-304.64 1195.21,-328.62 1172.12,-342.32"/>
<polygon fill="midnightblue" stroke="midnightblue" points="1282.8,-292.58 1290.7,-285.51 1280.12,-286.11 1282.8,-292.58"/>
</g>
<!-- Node10&#45;&gt;Node17 -->
<g id="edge23" class="edge">
<title>Node10&#45;&gt;Node17</title>
<path fill="none" stroke="midnightblue" d="M1292.27,-263.45C1268.13,-256.36 1234.11,-248.2 1206.55,-242.76"/>
<polygon fill="midnightblue" stroke="midnightblue" points="1291.37,-266.83 1301.96,-266.41 1293.42,-260.14 1291.37,-266.83"/>
</g>
<!-- Node11&#45;&gt;Node12 -->
<g id="edge13" class="edge">
<title>Node11&#45;&gt;Node12</title>
<path fill="none" stroke="midnightblue" d="M1142.84,-182.43C1110.27,-143.38 1032.71,-50.41 1007.25,-19.89"/>
<polygon fill="midnightblue" stroke="midnightblue" points="1140.33,-184.88 1149.42,-190.32 1145.7,-180.4 1140.33,-184.88"/>
</g>
<!-- Node14 -->
<g id="node14" class="node">
<title>Node14</title>
<g id="a_node14"><a xlink:href="transport__service_8c.html#a4ec123f01e33bb2b4694e48484c6e892" target="_top" xlink:title=" ">
<polygon fill="none" stroke="black" points="941,-228.5 941,-247.5 1055,-247.5 1055,-228.5 941,-228.5"/>
<text text-anchor="middle" x="998" y="-235.5" font-family="Helvetica,sans-Serif" font-size="10.00">wait_restart_from_first</text>
</a>
</g>
</g>
<!-- Node11&#45;&gt;Node14 -->
<g id="edge16" class="edge">
<title>Node11&#45;&gt;Node14</title>
<path fill="none" stroke="midnightblue" d="M1107.95,-211.88C1085.63,-217.23 1059.63,-223.46 1038.63,-228.5"/>
<polygon fill="midnightblue" stroke="midnightblue" points="1109,-215.23 1117.91,-209.49 1107.37,-208.42 1109,-215.23"/>
</g>
<!-- Node13 -->
<g id="node13" class="node">
<title>Node13</title>
<g id="a_node13"><a xlink:href="group__transport__service__transport__wrapper.html#ga6216ae3a018a4028bfc3025695784f0e" target="_top" xlink:title="Sending a frame with Transport service.">
<polygon fill="none" stroke="black" points="620.5,-84 620.5,-114 745.5,-114 745.5,-84 620.5,-84"/>
<text text-anchor="start" x="628.5" y="-102" font-family="Helvetica,sans-Serif" font-size="10.00">zwave_transport_service</text>
<text text-anchor="middle" x="683" y="-91" font-family="Helvetica,sans-Serif" font-size="10.00">_send_data</text>
</a>
</g>
</g>
<!-- Node12&#45;&gt;Node13 -->
<g id="edge14" class="edge">
<title>Node12&#45;&gt;Node13</title>
<path fill="none" stroke="midnightblue" d="M916.83,-11.08C877.41,-13.64 829.75,-19.83 789,-34 756.19,-45.41 722.86,-68.41 702.8,-83.76"/>
<polygon fill="midnightblue" stroke="midnightblue" points="917.14,-14.57 926.92,-10.49 916.73,-7.58 917.14,-14.57"/>
</g>
<!-- Node13&#45;&gt;Node8 -->
<g id="edge15" class="edge">
<title>Node13&#45;&gt;Node8</title>
<path fill="none" stroke="midnightblue" d="M610.42,-102.65C518.34,-107.35 359.95,-115.43 273.02,-119.86"/>
<polygon fill="midnightblue" stroke="midnightblue" points="610.68,-106.14 620.49,-102.14 610.32,-99.15 610.68,-106.14"/>
</g>
<!-- Node14&#45;&gt;Node4 -->
<g id="edge17" class="edge">
<title>Node14&#45;&gt;Node4</title>
<path fill="none" stroke="midnightblue" d="M930.65,-229.92C906.99,-227.04 881.86,-223.98 864.25,-221.83"/>
<polygon fill="midnightblue" stroke="midnightblue" points="930.33,-233.41 940.68,-231.14 931.18,-226.46 930.33,-233.41"/>
</g>
<!-- Node15&#45;&gt;Node5 -->
<g id="edge21" class="edge">
<title>Node15&#45;&gt;Node5</title>
<path fill="none" stroke="midnightblue" d="M1118.54,-364.28C1071.82,-376.96 991.71,-392.16 927,-371 825.85,-337.92 731.96,-244.95 697.71,-208.21"/>
<polygon fill="midnightblue" stroke="midnightblue" points="1119.59,-367.62 1128.27,-361.54 1117.69,-360.88 1119.59,-367.62"/>
</g>
<!-- Node15&#45;&gt;Node10 -->
<g id="edge22" class="edge">
<title>Node15&#45;&gt;Node10</title>
<path fill="none" stroke="midnightblue" d="M1201.17,-338.6C1237.32,-323.32 1287.38,-299.34 1310.44,-285.65"/>
<polygon fill="midnightblue" stroke="midnightblue" points="1199.73,-335.41 1191.84,-342.47 1202.42,-341.87 1199.73,-335.41"/>
</g>
<!-- Node16 -->
<g id="node16" class="node">
<title>Node16</title>
<g id="a_node16"><a xlink:href="transport__service_8c.html#a2e4434739ec658a986a9b540f6b68696" target="_top" xlink:title=" ">
<polygon fill="none" stroke="black" points="947,-342.5 947,-361.5 1049,-361.5 1049,-342.5 947,-342.5"/>
<text text-anchor="middle" x="998" y="-349.5" font-family="Helvetica,sans-Serif" font-size="10.00">mark_frag_received</text>
</a>
</g>
</g>
<!-- Node15&#45;&gt;Node16 -->
<g id="edge19" class="edge">
<title>Node15&#45;&gt;Node16</title>
<path fill="none" stroke="midnightblue" d="M1094.45,-352C1079.39,-352 1063.52,-352 1049.13,-352"/>
<polygon fill="midnightblue" stroke="midnightblue" points="1094.72,-355.5 1104.72,-352 1094.72,-348.5 1094.72,-355.5"/>
</g>
<!-- Node16&#45;&gt;Node4 -->
<g id="edge20" class="edge">
<title>Node16&#45;&gt;Node4</title>
<path fill="none" stroke="midnightblue" d="M946.72,-338.73C939.77,-335.78 932.98,-332.24 927,-328 887.86,-300.26 857.61,-249.78 846.07,-228.68"/>
<polygon fill="midnightblue" stroke="midnightblue" points="945.63,-342.06 956.22,-342.38 948.15,-335.52 945.63,-342.06"/>
</g>
<!-- Node17&#45;&gt;Node10 -->
<g id="edge24" class="edge">
<title>Node17&#45;&gt;Node10</title>
<path fill="none" stroke="midnightblue" d="M1189.82,-250.43C1207.67,-255.69 1231.03,-261.55 1253.19,-266.46"/>
<polygon fill="midnightblue" stroke="midnightblue" points="1190.85,-247.09 1180.26,-247.5 1188.8,-253.78 1190.85,-247.09"/>
</g>
<!-- Node18&#45;&gt;Node19 -->
<g id="edge26" class="edge">
<title>Node18&#45;&gt;Node19</title>
<path fill="none" stroke="midnightblue" d="M1655.38,-231.26C1646.67,-231.29 1638.02,-231.48 1630.03,-231.81"/>
<polygon fill="midnightblue" stroke="midnightblue" points="1655.6,-234.76 1665.61,-231.28 1655.62,-227.76 1655.6,-234.76"/>
</g>
<!-- Node19&#45;&gt;Node2 -->
<g id="edge27" class="edge">
<title>Node19&#45;&gt;Node2</title>
<path fill="none" stroke="midnightblue" d="M1633.76,-250.04C1644.24,-252.66 1655.47,-255.18 1666,-257 1719.84,-266.3 1782.62,-271.31 1823.61,-273.81"/>
<polygon fill="midnightblue" stroke="midnightblue" points="1634.55,-246.63 1623.99,-247.53 1632.8,-253.41 1634.55,-246.63"/>
</g>
<!-- Node19&#45;&gt;Node3 -->
<g id="edge28" class="edge">
<title>Node19&#45;&gt;Node3</title>
<path fill="none" stroke="midnightblue" d="M1550.86,-250.83C1535.7,-255.92 1518.56,-261.69 1504.51,-266.41"/>
<polygon fill="midnightblue" stroke="midnightblue" points="1552.12,-254.09 1560.49,-247.59 1549.89,-247.46 1552.12,-254.09"/>
</g>
<!-- Node19&#45;&gt;Node11 -->
<g id="edge29" class="edge">
<title>Node19&#45;&gt;Node11</title>
<path fill="none" stroke="midnightblue" d="M1539.71,-233.64C1453.7,-226.03 1277.84,-210.47 1199.13,-203.51"/>
<polygon fill="midnightblue" stroke="midnightblue" points="1539.48,-237.13 1549.75,-234.53 1540.09,-230.16 1539.48,-237.13"/>
</g>
<!-- Node19&#45;&gt;Node17 -->
<g id="edge30" class="edge">
<title>Node19&#45;&gt;Node17</title>
<path fill="none" stroke="midnightblue" d="M1539.51,-238C1456.04,-238 1288.38,-238 1206.57,-238"/>
<polygon fill="midnightblue" stroke="midnightblue" points="1539.75,-241.5 1549.75,-238 1539.75,-234.5 1539.75,-241.5"/>
</g>
<!-- Node19&#45;&gt;Node18 -->
<g id="edge31" class="edge">
<title>Node19&#45;&gt;Node18</title>
<path fill="none" stroke="midnightblue" d="M1640.23,-244.53C1648.48,-244.73 1657.12,-244.8 1665.61,-244.72"/>
<polygon fill="midnightblue" stroke="midnightblue" points="1640.14,-241.02 1630.03,-244.19 1639.91,-248.02 1640.14,-241.02"/>
</g>
<!-- Node20&#45;&gt;Node4 -->
<g id="edge40" class="edge">
<title>Node20&#45;&gt;Node4</title>
<path fill="none" stroke="midnightblue" d="M1281.97,-98.63C1270.9,-102.17 1258.95,-106.12 1248,-110 1231.82,-115.73 1228.03,-117.86 1212,-124 1148.56,-148.31 1134.48,-159.91 1069,-178 995.54,-198.29 905.9,-211.01 864.29,-216.25"/>
<polygon fill="midnightblue" stroke="midnightblue" points="1283.37,-101.86 1291.84,-95.5 1281.25,-95.19 1283.37,-101.86"/>
</g>
<!-- Node21 -->
<g id="node21" class="node">
<title>Node21</title>
<g id="a_node21"><a xlink:href="transport__service_8c.html#a35b51aa3cd60ec7fbc89438a7a800a9e" target="_top" xlink:title=" ">
<polygon fill="none" stroke="black" points="1123,-95.5 1123,-114.5 1194,-114.5 1194,-95.5 1123,-95.5"/>
<text text-anchor="middle" x="1158.5" y="-102.5" font-family="Helvetica,sans-Serif" font-size="10.00">find_missing</text>
</a>
</g>
</g>
<!-- Node20&#45;&gt;Node21 -->
<g id="edge34" class="edge">
<title>Node20&#45;&gt;Node21</title>
<path fill="none" stroke="midnightblue" d="M1249.76,-94.51C1230.42,-96.76 1210.45,-99.08 1194.22,-100.97"/>
<polygon fill="midnightblue" stroke="midnightblue" points="1250.26,-97.98 1259.79,-93.35 1249.45,-91.02 1250.26,-97.98"/>
</g>
<!-- Node21&#45;&gt;Node4 -->
<g id="edge35" class="edge">
<title>Node21&#45;&gt;Node4</title>
<path fill="none" stroke="midnightblue" d="M1127.62,-118.82C1110.62,-126.43 1088.83,-135.77 1069,-143 1007.05,-165.6 989.38,-164.62 927,-186 905.52,-193.36 881.41,-202.71 864.19,-209.58"/>
<polygon fill="midnightblue" stroke="midnightblue" points="1129.35,-121.88 1137.02,-114.57 1126.47,-115.5 1129.35,-121.88"/>
</g>
<!-- Node22 -->
<g id="node22" class="node">
<title>Node22</title>
<g id="a_node22"><a xlink:href="transport__service_8c.html#a721636ef4e5d808359866c88788731fb" target="_top" xlink:title=" ">
<polygon fill="none" stroke="black" points="953.5,-114.5 953.5,-133.5 1042.5,-133.5 1042.5,-114.5 953.5,-114.5"/>
<text text-anchor="middle" x="998" y="-121.5" font-family="Helvetica,sans-Serif" font-size="10.00">rx_timer_expired</text>
</a>
</g>
</g>
<!-- Node21&#45;&gt;Node22 -->
<g id="edge36" class="edge">
<title>Node21&#45;&gt;Node22</title>
<path fill="none" stroke="midnightblue" d="M1112.68,-110.37C1090.78,-113 1064.53,-116.14 1042.77,-118.75"/>
<polygon fill="midnightblue" stroke="midnightblue" points="1113.2,-113.84 1122.72,-109.17 1112.37,-106.88 1113.2,-113.84"/>
</g>
<!-- Node22&#45;&gt;Node4 -->
<g id="edge37" class="edge">
<title>Node22&#45;&gt;Node4</title>
<path fill="none" stroke="midnightblue" d="M951.37,-136.98C943.03,-140.09 934.57,-143.76 927,-148 895.91,-165.4 865.09,-194.47 850.2,-209.44"/>
<polygon fill="midnightblue" stroke="midnightblue" points="952.76,-140.2 961.04,-133.58 950.45,-133.59 952.76,-140.2"/>
</g>
<!-- Node23 -->
<g id="node23" class="node">
<title>Node23</title>
<g id="a_node23"><a xlink:href="transport__service_8c.html#af902d536b92f710cc926f391bbef6bd1" target="_top" xlink:title=" ">
<polygon fill="none" stroke="black" points="789,-95.5 789,-114.5 891,-114.5 891,-95.5 789,-95.5"/>
<text text-anchor="middle" x="840" y="-102.5" font-family="Helvetica,sans-Serif" font-size="10.00">send_frag_req_cmd</text>
</a>
</g>
</g>
<!-- Node22&#45;&gt;Node23 -->
<g id="edge38" class="edge">
<title>Node22&#45;&gt;Node23</title>
<path fill="none" stroke="midnightblue" d="M942.91,-117.41C926.11,-115.37 907.66,-113.12 891.14,-111.11"/>
<polygon fill="midnightblue" stroke="midnightblue" points="942.78,-120.92 953.13,-118.66 943.63,-113.97 942.78,-120.92"/>
</g>
<!-- Node23&#45;&gt;Node21 -->
<g id="edge39" class="edge">
<title>Node23&#45;&gt;Node21</title>
<path fill="none" stroke="midnightblue" d="M901.36,-105C966.93,-105 1069.45,-105 1122.72,-105"/>
<polygon fill="midnightblue" stroke="midnightblue" points="901.16,-101.5 891.16,-105 901.16,-108.5 901.16,-101.5"/>
</g>
</g>
</svg>
