<?xml version="1.0" encoding="UTF-8" standalone="no"?>
<!DOCTYPE svg PUBLIC "-//W3C//DTD SVG 1.1//EN"
 "http://www.w3.org/Graphics/SVG/1.1/DTD/svg11.dtd">
<!-- Generated by graphviz version 2.43.0 (0)
 -->
<!-- Title: send_first_frag Pages: 1 -->
<svg width="1140pt" height="88pt"
 viewBox="0.00 0.00 1140.00 88.00" xmlns="http://www.w3.org/2000/svg" xmlns:xlink="http://www.w3.org/1999/xlink">
<g id="graph0" class="graph" transform="scale(1 1) rotate(0) translate(4 84)">
<title>send_first_frag</title>
<!-- Node1 -->
<g id="node1" class="node">
<title>Node1</title>
<g id="a_node1"><a xlink:title=" ">
<polygon fill="#bfbfbf" stroke="black" points="1051,-30 1051,-49 1132,-49 1132,-30 1051,-30"/>
<text text-anchor="middle" x="1091.5" y="-37" font-family="Helvetica,sans-Serif" font-size="10.00">send_first_frag</text>
</a>
</g>
</g>
<!-- Node2 -->
<g id="node2" class="node">
<title>Node2</title>
<g id="a_node2"><a xlink:href="group__transport__service.html#ga5dec1563c42d06aad70fdc31f3acb603" target="_top" xlink:title="Sending a long frame with Transport service.">
<polygon fill="none" stroke="black" points="873,-49 873,-68 1015,-68 1015,-49 873,-49"/>
<text text-anchor="middle" x="944" y="-56" font-family="Helvetica,sans-Serif" font-size="10.00">transport_service_send_data</text>
</a>
</g>
</g>
<!-- Node1&#45;&gt;Node2 -->
<g id="edge1" class="edge">
<title>Node1&#45;&gt;Node2</title>
<path fill="none" stroke="midnightblue" d="M1040.62,-46.01C1032.42,-47.08 1023.79,-48.21 1015.21,-49.33"/>
<polygon fill="midnightblue" stroke="midnightblue" points="1041.28,-49.46 1050.74,-44.69 1040.37,-42.52 1041.28,-49.46"/>
</g>
<!-- Node6 -->
<g id="node6" class="node">
<title>Node6</title>
<g id="a_node6"><a xlink:href="transport__service_8c.html#a4ec123f01e33bb2b4694e48484c6e892" target="_top" xlink:title=" ">
<polygon fill="none" stroke="black" points="887,-11 887,-30 1001,-30 1001,-11 887,-11"/>
<text text-anchor="middle" x="944" y="-18" font-family="Helvetica,sans-Serif" font-size="10.00">wait_restart_from_first</text>
</a>
</g>
</g>
<!-- Node1&#45;&gt;Node6 -->
<g id="edge5" class="edge">
<title>Node1&#45;&gt;Node6</title>
<path fill="none" stroke="midnightblue" d="M1040.76,-33C1027.98,-31.34 1014.15,-29.53 1001.07,-27.82"/>
<polygon fill="midnightblue" stroke="midnightblue" points="1040.37,-36.48 1050.74,-34.31 1041.28,-29.54 1040.37,-36.48"/>
</g>
<!-- Node3 -->
<g id="node3" class="node">
<title>Node3</title>
<g id="a_node3"><a xlink:href="group__transport__service__transport__wrapper.html#ga6216ae3a018a4028bfc3025695784f0e" target="_top" xlink:title="Sending a frame with Transport service.">
<polygon fill="none" stroke="black" points="620.5,-49.5 620.5,-79.5 745.5,-79.5 745.5,-49.5 620.5,-49.5"/>
<text text-anchor="start" x="628.5" y="-67.5" font-family="Helvetica,sans-Serif" font-size="10.00">zwave_transport_service</text>
<text text-anchor="middle" x="683" y="-56.5" font-family="Helvetica,sans-Serif" font-size="10.00">_send_data</text>
</a>
</g>
</g>
<!-- Node2&#45;&gt;Node3 -->
<g id="edge2" class="edge">
<title>Node2&#45;&gt;Node3</title>
<path fill="none" stroke="midnightblue" d="M862.48,-60.37C824.83,-61.24 780.71,-62.26 745.76,-63.07"/>
<polygon fill="midnightblue" stroke="midnightblue" points="862.99,-63.85 872.91,-60.12 862.83,-56.86 862.99,-63.85"/>
</g>
<!-- Node4 -->
<g id="node4" class="node">
<title>Node4</title>
<g id="a_node4"><a xlink:href="group__transport__service__transport__wrapper.html#gad02263e40b63853166ac8a7601954f33" target="_top" xlink:title=" ">
<polygon fill="none" stroke="black" points="148,-25.5 148,-55.5 273,-55.5 273,-25.5 148,-25.5"/>
<text text-anchor="start" x="156" y="-43.5" font-family="Helvetica,sans-Serif" font-size="10.00">zwave_transport_service</text>
<text text-anchor="middle" x="210.5" y="-32.5" font-family="Helvetica,sans-Serif" font-size="10.00">_transport_init</text>
</a>
</g>
</g>
<!-- Node3&#45;&gt;Node4 -->
<g id="edge3" class="edge">
<title>Node3&#45;&gt;Node4</title>
<path fill="none" stroke="midnightblue" d="M610.42,-60.85C518.34,-56.15 359.95,-48.07 273.02,-43.64"/>
<polygon fill="midnightblue" stroke="midnightblue" points="610.32,-64.35 620.49,-61.36 610.68,-57.36 610.32,-64.35"/>
</g>
<!-- Node5 -->
<g id="node5" class="node">
<title>Node5</title>
<g id="a_node5"><a xlink:href="group__zwave__transports__fixt.html#ga26fb2571e272a5094bd0320eca3a896d" target="_top" xlink:title="Setup fixture for Z&#45;Wave Transports.">
<polygon fill="none" stroke="black" points="0,-31 0,-50 112,-50 112,-31 0,-31"/>
<text text-anchor="middle" x="56" y="-38" font-family="Helvetica,sans-Serif" font-size="10.00">zwave_transports_init</text>
</a>
</g>
</g>
<!-- Node4&#45;&gt;Node5 -->
<g id="edge4" class="edge">
<title>Node4&#45;&gt;Node5</title>
<path fill="none" stroke="midnightblue" d="M137.64,-40.5C129.17,-40.5 120.62,-40.5 112.42,-40.5"/>
<polygon fill="midnightblue" stroke="midnightblue" points="137.91,-44 147.91,-40.5 137.91,-37 137.91,-44"/>
</g>
<!-- Node7 -->
<g id="node7" class="node">
<title>Node7</title>
<g id="a_node7"><a xlink:href="transport__service_8c.html#a7800e90df0e417d85ec84937638ad29c" target="_top" xlink:title=" ">
<polygon fill="none" stroke="black" points="789,-11 789,-30 837,-30 837,-11 789,-11"/>
<text text-anchor="middle" x="813" y="-18" font-family="Helvetica,sans-Serif" font-size="10.00">receive</text>
</a>
</g>
</g>
<!-- Node6&#45;&gt;Node7 -->
<g id="edge6" class="edge">
<title>Node6&#45;&gt;Node7</title>
<path fill="none" stroke="midnightblue" d="M876.47,-20.5C862.28,-20.5 848.22,-20.5 837.04,-20.5"/>
<polygon fill="midnightblue" stroke="midnightblue" points="876.79,-24 886.79,-20.5 876.79,-17 876.79,-24"/>
</g>
<!-- Node8 -->
<g id="node8" class="node">
<title>Node8</title>
<g id="a_node8"><a xlink:href="transport__service_8c.html#afe4b474eca116806850af8ce6182384c" target="_top" xlink:title=" ">
<polygon fill="none" stroke="black" points="613,-0.5 613,-30.5 753,-30.5 753,-0.5 613,-0.5"/>
<text text-anchor="start" x="621" y="-18.5" font-family="Helvetica,sans-Serif" font-size="10.00">transport_service_command</text>
<text text-anchor="middle" x="683" y="-7.5" font-family="Helvetica,sans-Serif" font-size="10.00">_handler</text>
</a>
</g>
</g>
<!-- Node7&#45;&gt;Node8 -->
<g id="edge7" class="edge">
<title>Node7&#45;&gt;Node8</title>
<path fill="none" stroke="midnightblue" d="M778.59,-19.2C770.68,-18.89 761.94,-18.54 753.08,-18.2"/>
<polygon fill="midnightblue" stroke="midnightblue" points="778.69,-22.7 788.82,-19.59 778.96,-15.71 778.69,-22.7"/>
</g>
<!-- Node9 -->
<g id="node9" class="node">
<title>Node9</title>
<g id="a_node9"><a xlink:href="group__transport__service.html#ga8373376f01c78a3ecfb1941605eb9c1a" target="_top" xlink:title="Transport service RX function.">
<polygon fill="none" stroke="black" points="470,-2.5 470,-32.5 577,-32.5 577,-2.5 470,-2.5"/>
<text text-anchor="start" x="478" y="-20.5" font-family="Helvetica,sans-Serif" font-size="10.00">transport_service_on</text>
<text text-anchor="middle" x="523.5" y="-9.5" font-family="Helvetica,sans-Serif" font-size="10.00">_frame_received</text>
</a>
</g>
</g>
<!-- Node8&#45;&gt;Node9 -->
<g id="edge8" class="edge">
<title>Node8&#45;&gt;Node9</title>
<path fill="none" stroke="midnightblue" d="M602.83,-16.51C594.22,-16.61 585.61,-16.72 577.42,-16.83"/>
<polygon fill="midnightblue" stroke="midnightblue" points="602.96,-20 612.92,-16.38 602.87,-13 602.96,-20"/>
</g>
<!-- Node10 -->
<g id="node10" class="node">
<title>Node10</title>
<g id="a_node10"><a xlink:href="group__transport__service__transport__wrapper.html#ga836e1af25a73aef2bc515da73660cd3b" target="_top" xlink:title="Entry point of Transport service frames received from the PHY/radio stack.">
<polygon fill="none" stroke="black" points="309,-3.5 309,-33.5 434,-33.5 434,-3.5 309,-3.5"/>
<text text-anchor="start" x="317" y="-21.5" font-family="Helvetica,sans-Serif" font-size="10.00">zwave_transport_service</text>
<text text-anchor="middle" x="371.5" y="-10.5" font-family="Helvetica,sans-Serif" font-size="10.00">_on_frame_received</text>
</a>
</g>
</g>
<!-- Node9&#45;&gt;Node10 -->
<g id="edge9" class="edge">
<title>Node9&#45;&gt;Node10</title>
<path fill="none" stroke="midnightblue" d="M459.51,-17.92C451.11,-17.98 442.51,-18.03 434.14,-18.09"/>
<polygon fill="midnightblue" stroke="midnightblue" points="459.64,-21.42 469.62,-17.85 459.59,-14.42 459.64,-21.42"/>
</g>
<!-- Node10&#45;&gt;Node4 -->
<g id="edge10" class="edge">
<title>Node10&#45;&gt;Node4</title>
<path fill="none" stroke="midnightblue" d="M298.41,-28.47C290.01,-29.64 281.5,-30.81 273.26,-31.95"/>
<polygon fill="midnightblue" stroke="midnightblue" points="299.15,-31.91 308.57,-27.07 298.19,-24.97 299.15,-31.91"/>
</g>
</g>
</svg>
