<?xml version="1.0" encoding="UTF-8" standalone="no"?>
<!DOCTYPE svg PUBLIC "-//W3C//DTD SVG 1.1//EN"
 "http://www.w3.org/Graphics/SVG/1.1/DTD/svg11.dtd">
<!-- Generated by graphviz version 2.43.0 (0)
 -->
<!-- Title: mark_frag_received Pages: 1 -->
<svg width="1285pt" height="541pt"
 viewBox="0.00 0.00 1285.00 540.83" xmlns="http://www.w3.org/2000/svg" xmlns:xlink="http://www.w3.org/1999/xlink">
<g id="graph0" class="graph" transform="scale(1 1) rotate(0) translate(4 536.83)">
<title>mark_frag_received</title>
<!-- Node1 -->
<g id="node1" class="node">
<title>Node1</title>
<g id="a_node1"><a xlink:title=" ">
<polygon fill="#bfbfbf" stroke="black" points="0,-427.5 0,-446.5 102,-446.5 102,-427.5 0,-427.5"/>
<text text-anchor="middle" x="51" y="-434.5" font-family="Helvetica,sans-Serif" font-size="10.00">mark_frag_received</text>
</a>
</g>
</g>
<!-- Node2 -->
<g id="node2" class="node">
<title>Node2</title>
<g id="a_node2"><a xlink:href="transport__service_8c.html#a8a25db2fc95ae366bd129a0d76800d7c" target="_top" xlink:title=" ">
<polygon fill="none" stroke="black" points="138,-332.5 138,-351.5 245,-351.5 245,-332.5 138,-332.5"/>
<text text-anchor="middle" x="191.5" y="-339.5" font-family="Helvetica,sans-Serif" font-size="10.00">send_frag_wait_cmd</text>
</a>
</g>
</g>
<!-- Node1&#45;&gt;Node2 -->
<g id="edge1" class="edge">
<title>Node1&#45;&gt;Node2</title>
<path fill="none" stroke="midnightblue" d="M66.04,-427.37C90,-410.94 138.96,-377.36 167.81,-357.56"/>
<polygon fill="midnightblue" stroke="midnightblue" points="170.15,-360.2 176.42,-351.66 166.19,-354.43 170.15,-360.2"/>
</g>
<!-- Node5 -->
<g id="node5" class="node">
<title>Node5</title>
<g id="a_node5"><a xlink:href="transport__service_8c.html#ac935a7f30a3f2308402000ea5c34d00c" target="_top" xlink:title=" ">
<polygon fill="none" stroke="black" points="1028,-358.5 1028,-377.5 1125,-377.5 1125,-358.5 1028,-358.5"/>
<text text-anchor="middle" x="1076.5" y="-365.5" font-family="Helvetica,sans-Serif" font-size="10.00">t2_sm_post_event</text>
</a>
</g>
</g>
<!-- Node1&#45;&gt;Node5 -->
<g id="edge34" class="edge">
<title>Node1&#45;&gt;Node5</title>
<path fill="none" stroke="midnightblue" d="M69.56,-446.63C115.28,-470.78 242.37,-532 356,-532 356,-532 356,-532 779,-532 870.44,-532 903.39,-541.34 981,-493 1022.95,-466.87 1052.96,-414.87 1066.84,-386.88"/>
<polygon fill="midnightblue" stroke="midnightblue" points="1070.05,-388.28 1071.22,-377.75 1063.74,-385.25 1070.05,-388.28"/>
</g>
<!-- Node3 -->
<g id="node3" class="node">
<title>Node3</title>
<g id="a_node3"><a xlink:href="transport__service_8c.html#a0e899b6be96ecc8034ecb4aee4a5f859" target="_top" xlink:title=" ">
<polygon fill="none" stroke="black" points="1017,-66.5 1017,-85.5 1136,-85.5 1136,-66.5 1017,-66.5"/>
<text text-anchor="middle" x="1076.5" y="-73.5" font-family="Helvetica,sans-Serif" font-size="10.00">reset_transport_service</text>
</a>
</g>
</g>
<!-- Node2&#45;&gt;Node3 -->
<g id="edge2" class="edge">
<title>Node2&#45;&gt;Node3</title>
<path fill="none" stroke="midnightblue" d="M195.88,-332.5C216.21,-277.26 327.61,0 516,0 516,0 516,0 779,0 878.55,0 991.18,-40.7 1044.44,-62.53"/>
<polygon fill="midnightblue" stroke="midnightblue" points="1043.1,-65.76 1053.68,-66.37 1045.79,-59.3 1043.1,-65.76"/>
</g>
<!-- Node2&#45;&gt;Node5 -->
<g id="edge4" class="edge">
<title>Node2&#45;&gt;Node5</title>
<path fill="none" stroke="midnightblue" d="M203.36,-351.51C242.53,-384.78 381.34,-494 516,-494 516,-494 516,-494 779,-494 869.9,-494 899.96,-503.16 981,-462 1016.38,-444.03 1046.77,-407.95 1062.97,-386.09"/>
<polygon fill="midnightblue" stroke="midnightblue" points="1066.02,-387.85 1069.02,-377.69 1060.34,-383.76 1066.02,-387.85"/>
</g>
<!-- Node7 -->
<g id="node7" class="node">
<title>Node7</title>
<g id="a_node7"><a xlink:href="transport__service_8c.html#a0d8b03eb74c8ac1b697cf1f967634e2e" target="_top" xlink:title=" ">
<polygon fill="none" stroke="black" points="281,-332.5 281,-351.5 433,-351.5 433,-332.5 281,-332.5"/>
<text text-anchor="middle" x="357" y="-339.5" font-family="Helvetica,sans-Serif" font-size="10.00">transport_service_senddata_cb</text>
</a>
</g>
</g>
<!-- Node2&#45;&gt;Node7 -->
<g id="edge6" class="edge">
<title>Node2&#45;&gt;Node7</title>
<path fill="none" stroke="midnightblue" d="M245.13,-335.65C253.32,-335.41 261.95,-335.28 270.64,-335.26"/>
<polygon fill="midnightblue" stroke="midnightblue" points="270.84,-338.76 280.84,-335.27 270.85,-331.76 270.84,-338.76"/>
</g>
<!-- Node4 -->
<g id="node4" class="node">
<title>Node4</title>
<g id="a_node4"><a xlink:href="transport__service_8c.html#ac5bd8d9a6370babde7f4eb7cce1ff01c" target="_top" xlink:title=" ">
<polygon fill="none" stroke="black" points="1172,-61 1172,-91 1277,-91 1277,-61 1172,-61"/>
<text text-anchor="start" x="1180" y="-79" font-family="Helvetica,sans-Serif" font-size="10.00">discard_all_received</text>
<text text-anchor="middle" x="1224.5" y="-68" font-family="Helvetica,sans-Serif" font-size="10.00">_fragments</text>
</a>
</g>
</g>
<!-- Node3&#45;&gt;Node4 -->
<g id="edge3" class="edge">
<title>Node3&#45;&gt;Node4</title>
<path fill="none" stroke="midnightblue" d="M1136.04,-76C1144.39,-76 1153,-76 1161.41,-76"/>
<polygon fill="midnightblue" stroke="midnightblue" points="1161.54,-79.5 1171.54,-76 1161.54,-72.5 1161.54,-79.5"/>
</g>
<!-- Node6 -->
<g id="node6" class="node">
<title>Node6</title>
<g id="a_node6"><a xlink:href="transport__service_8c.html#a8f014c5804fe50e480dea5db75de4d51" target="_top" xlink:title=" ">
<polygon fill="none" stroke="black" points="1186,-358.5 1186,-377.5 1263,-377.5 1263,-358.5 1186,-358.5"/>
<text text-anchor="middle" x="1224.5" y="-365.5" font-family="Helvetica,sans-Serif" font-size="10.00">find_transition</text>
</a>
</g>
</g>
<!-- Node5&#45;&gt;Node6 -->
<g id="edge5" class="edge">
<title>Node5&#45;&gt;Node6</title>
<path fill="none" stroke="midnightblue" d="M1125.31,-368C1141.41,-368 1159.37,-368 1175.49,-368"/>
<polygon fill="midnightblue" stroke="midnightblue" points="1175.77,-371.5 1185.77,-368 1175.77,-364.5 1175.77,-371.5"/>
</g>
<!-- Node7&#45;&gt;Node2 -->
<g id="edge26" class="edge">
<title>Node7&#45;&gt;Node2</title>
<path fill="none" stroke="midnightblue" d="M280.84,-348.73C272.26,-348.78 263.59,-348.73 255.2,-348.58"/>
<polygon fill="midnightblue" stroke="midnightblue" points="255.21,-345.08 245.13,-348.35 255.05,-352.08 255.21,-345.08"/>
</g>
<!-- Node7&#45;&gt;Node5 -->
<g id="edge33" class="edge">
<title>Node7&#45;&gt;Node5</title>
<path fill="none" stroke="midnightblue" d="M371.02,-351.52C409.82,-378.92 528.84,-456 640,-456 640,-456 640,-456 779,-456 869.22,-456 896.61,-467.88 981,-436 1011.06,-424.64 1040.23,-401.17 1058.02,-385"/>
<polygon fill="midnightblue" stroke="midnightblue" points="1060.88,-387.12 1065.8,-377.74 1056.1,-382.01 1060.88,-387.12"/>
</g>
<!-- Node8 -->
<g id="node8" class="node">
<title>Node8</title>
<g id="a_node8"><a xlink:href="transport__service_8c.html#a67e57d4768071543cd6f67b8e95dc6d8" target="_top" xlink:title=" ">
<polygon fill="none" stroke="black" points="478,-332.5 478,-351.5 556,-351.5 556,-332.5 478,-332.5"/>
<text text-anchor="middle" x="517" y="-339.5" font-family="Helvetica,sans-Serif" font-size="10.00">reply_frag_req</text>
</a>
</g>
</g>
<!-- Node7&#45;&gt;Node8 -->
<g id="edge7" class="edge">
<title>Node7&#45;&gt;Node8</title>
<path fill="none" stroke="midnightblue" d="M433.3,-335.26C444.98,-335.21 456.78,-335.37 467.65,-335.72"/>
<polygon fill="midnightblue" stroke="midnightblue" points="467.64,-339.23 477.77,-336.12 467.91,-332.23 467.64,-339.23"/>
</g>
<!-- Node15 -->
<g id="node15" class="node">
<title>Node15</title>
<g id="a_node15"><a xlink:href="transport__service_8c.html#ada81ed14232e9fcf5ffc8cef349c28b5" target="_top" xlink:title=" ">
<polygon fill="none" stroke="black" points="469,-275.5 469,-294.5 565,-294.5 565,-275.5 469,-275.5"/>
<text text-anchor="middle" x="517" y="-282.5" font-family="Helvetica,sans-Serif" font-size="10.00">send_subseq_frag</text>
</a>
</g>
</g>
<!-- Node7&#45;&gt;Node15 -->
<g id="edge27" class="edge">
<title>Node7&#45;&gt;Node15</title>
<path fill="none" stroke="midnightblue" d="M372.86,-332.49C393.33,-322.75 431.26,-308.31 462.93,-297.73"/>
<polygon fill="midnightblue" stroke="midnightblue" points="464.12,-301.02 472.53,-294.58 461.94,-294.37 464.12,-301.02"/>
</g>
<!-- Node8&#45;&gt;Node5 -->
<g id="edge22" class="edge">
<title>Node8&#45;&gt;Node5</title>
<path fill="none" stroke="midnightblue" d="M544.13,-351.58C560.27,-356.98 581.55,-363.2 601,-366 749.98,-387.43 928,-379.29 1017.73,-372.87"/>
<polygon fill="midnightblue" stroke="midnightblue" points="1017.98,-376.36 1027.7,-372.14 1017.47,-369.38 1017.98,-376.36"/>
</g>
<!-- Node8&#45;&gt;Node7 -->
<g id="edge25" class="edge">
<title>Node8&#45;&gt;Node7</title>
<path fill="none" stroke="midnightblue" d="M477.77,-347.88C467.27,-348.37 455.44,-348.66 443.42,-348.73"/>
<polygon fill="midnightblue" stroke="midnightblue" points="443.29,-345.23 433.3,-348.74 443.3,-352.23 443.29,-345.23"/>
</g>
<!-- Node9 -->
<g id="node9" class="node">
<title>Node9</title>
<g id="a_node9"><a xlink:href="transport__service_8c.html#a2f78da3ac5fea2f4b445aaf289500abd" target="_top" xlink:title=" ">
<polygon fill="none" stroke="black" points="615.5,-294.5 615.5,-313.5 666.5,-313.5 666.5,-294.5 615.5,-294.5"/>
<text text-anchor="middle" x="641" y="-301.5" font-family="Helvetica,sans-Serif" font-size="10.00">add_crc</text>
</a>
</g>
</g>
<!-- Node8&#45;&gt;Node9 -->
<g id="edge8" class="edge">
<title>Node8&#45;&gt;Node9</title>
<path fill="none" stroke="midnightblue" d="M548.79,-332.41C566.1,-327.02 587.75,-320.27 605.62,-314.71"/>
<polygon fill="midnightblue" stroke="midnightblue" points="606.86,-317.99 615.37,-311.67 604.78,-311.3 606.86,-317.99"/>
</g>
<!-- Node11 -->
<g id="node11" class="node">
<title>Node11</title>
<g id="a_node11"><a xlink:href="transport__service_8c.html#a8ea28513599b01de1634e53dc2cb2c91" target="_top" xlink:title=" ">
<polygon fill="none" stroke="black" points="883.5,-180.5 883.5,-199.5 972.5,-199.5 972.5,-180.5 883.5,-180.5"/>
<text text-anchor="middle" x="928" y="-187.5" font-family="Helvetica,sans-Serif" font-size="10.00">fc_timer_expired</text>
</a>
</g>
</g>
<!-- Node8&#45;&gt;Node11 -->
<g id="edge10" class="edge">
<title>Node8&#45;&gt;Node11</title>
<path fill="none" stroke="midnightblue" d="M556.18,-350.05C619.65,-361.31 748.79,-374.98 839,-323 883.23,-297.52 909.39,-239.76 920.57,-209.43"/>
<polygon fill="midnightblue" stroke="midnightblue" points="924.01,-210.2 924.02,-199.61 917.41,-207.88 924.01,-210.2"/>
</g>
<!-- Node12 -->
<g id="node12" class="node">
<title>Node12</title>
<g id="a_node12"><a xlink:href="transport__service_8c.html#a357ebe08fd6aa69fc82a072e76710bd5" target="_top" xlink:title=" ">
<polygon fill="none" stroke="black" points="601,-180.5 601,-199.5 681,-199.5 681,-180.5 601,-180.5"/>
<text text-anchor="middle" x="641" y="-187.5" font-family="Helvetica,sans-Serif" font-size="10.00">send_last_frag</text>
</a>
</g>
</g>
<!-- Node8&#45;&gt;Node12 -->
<g id="edge21" class="edge">
<title>Node8&#45;&gt;Node12</title>
<path fill="none" stroke="midnightblue" d="M532.13,-332.37C542,-325.23 555.13,-314.88 565,-304 592.57,-273.59 617.17,-232.13 630.2,-208.5"/>
<polygon fill="midnightblue" stroke="midnightblue" points="633.36,-210.01 635.05,-199.55 627.21,-206.68 633.36,-210.01"/>
</g>
<!-- Node14 -->
<g id="node14" class="node">
<title>Node14</title>
<g id="a_node14"><a xlink:href="transport__service_8c.html#a331b914d5344d6a3dd00d6d56f1a4839" target="_top" xlink:title=" ">
<polygon fill="none" stroke="black" points="875,-397 875,-427 981,-427 981,-397 875,-397"/>
<text text-anchor="start" x="883" y="-415" font-family="Helvetica,sans-Serif" font-size="10.00">temp_callback_reply</text>
<text text-anchor="middle" x="928" y="-404" font-family="Helvetica,sans-Serif" font-size="10.00">_frag_req</text>
</a>
</g>
</g>
<!-- Node8&#45;&gt;Node14 -->
<g id="edge23" class="edge">
<title>Node8&#45;&gt;Node14</title>
<path fill="none" stroke="midnightblue" d="M529.15,-351.62C544.27,-364 572.64,-385 601,-394 689.21,-422 797.5,-421.61 864.38,-417.65"/>
<polygon fill="midnightblue" stroke="midnightblue" points="864.99,-421.12 874.75,-416.99 864.55,-414.13 864.99,-421.12"/>
</g>
<!-- Node10 -->
<g id="node10" class="node">
<title>Node10</title>
<g id="a_node10"><a xlink:href="group__zwave__controller__crc16.html#ga13ba4b98080a23413214afb6886b6eec" target="_top" xlink:title="Calculation of CRC16&#45;CCITT with Polynomial 0x1021 on data.">
<polygon fill="none" stroke="black" points="718.5,-294.5 718.5,-313.5 837.5,-313.5 837.5,-294.5 718.5,-294.5"/>
<text text-anchor="middle" x="778" y="-301.5" font-family="Helvetica,sans-Serif" font-size="10.00">zwave_controller_crc16</text>
</a>
</g>
</g>
<!-- Node9&#45;&gt;Node10 -->
<g id="edge9" class="edge">
<title>Node9&#45;&gt;Node10</title>
<path fill="none" stroke="midnightblue" d="M666.76,-304C678.57,-304 693.35,-304 708.22,-304"/>
<polygon fill="midnightblue" stroke="midnightblue" points="708.48,-307.5 718.48,-304 708.48,-300.5 708.48,-307.5"/>
</g>
<!-- Node11&#45;&gt;Node3 -->
<g id="edge11" class="edge">
<title>Node11&#45;&gt;Node3</title>
<path fill="none" stroke="midnightblue" d="M941.24,-180.48C966.38,-160.91 1024.08,-116.01 1055.02,-91.94"/>
<polygon fill="midnightblue" stroke="midnightblue" points="1057.24,-94.64 1062.99,-85.74 1052.94,-89.12 1057.24,-94.64"/>
</g>
<!-- Node11&#45;&gt;Node5 -->
<g id="edge20" class="edge">
<title>Node11&#45;&gt;Node5</title>
<path fill="none" stroke="midnightblue" d="M957.53,-199.57C965.71,-203.22 974.24,-207.99 981,-214 1024.82,-252.93 1055.02,-317.09 1068.14,-348.9"/>
<polygon fill="midnightblue" stroke="midnightblue" points="1064.96,-350.38 1071.92,-358.36 1071.46,-347.77 1064.96,-350.38"/>
</g>
<!-- Node11&#45;&gt;Node12 -->
<g id="edge12" class="edge">
<title>Node11&#45;&gt;Node12</title>
<path fill="none" stroke="midnightblue" d="M883.31,-190C831.45,-190 745.19,-190 691.08,-190"/>
<polygon fill="midnightblue" stroke="midnightblue" points="691.03,-186.5 681.03,-190 691.03,-193.5 691.03,-186.5"/>
</g>
<!-- Node12&#45;&gt;Node3 -->
<g id="edge13" class="edge">
<title>Node12&#45;&gt;Node3</title>
<path fill="none" stroke="midnightblue" d="M651.75,-180.35C665.25,-167.55 690.92,-145.18 717,-133 810.8,-89.19 931.84,-78.13 1006.53,-75.84"/>
<polygon fill="midnightblue" stroke="midnightblue" points="1006.85,-79.33 1016.76,-75.57 1006.67,-72.33 1006.85,-79.33"/>
</g>
<!-- Node12&#45;&gt;Node5 -->
<g id="edge14" class="edge">
<title>Node12&#45;&gt;Node5</title>
<path fill="none" stroke="midnightblue" d="M681.31,-197.37C692.81,-199.52 705.41,-201.86 717,-204 834.28,-225.61 878.32,-191.35 981,-252 1021.06,-275.66 1051.32,-323 1065.89,-349.3"/>
<polygon fill="midnightblue" stroke="midnightblue" points="1062.88,-351.1 1070.69,-358.26 1069.05,-347.79 1062.88,-351.1"/>
</g>
<!-- Node13 -->
<g id="node13" class="node">
<title>Node13</title>
<g id="a_node13"><a xlink:href="transport__service_8c.html#a8ec2e40dce8c6cdab972b44e55ba6cec" target="_top" xlink:title=" ">
<polygon fill="none" stroke="black" points="717,-142.5 717,-161.5 839,-161.5 839,-142.5 717,-142.5"/>
<text text-anchor="middle" x="778" y="-149.5" font-family="Helvetica,sans-Serif" font-size="10.00">temp_callback_last_frag</text>
</a>
</g>
</g>
<!-- Node12&#45;&gt;Node13 -->
<g id="edge15" class="edge">
<title>Node12&#45;&gt;Node13</title>
<path fill="none" stroke="midnightblue" d="M659.37,-180.41C672.35,-175.39 690.99,-169.46 709.62,-164.22"/>
<polygon fill="midnightblue" stroke="midnightblue" points="710.62,-167.57 719.33,-161.55 708.76,-160.82 710.62,-167.57"/>
</g>
<!-- Node13&#45;&gt;Node3 -->
<g id="edge17" class="edge">
<title>Node13&#45;&gt;Node3</title>
<path fill="none" stroke="midnightblue" d="M816.25,-142.45C870.06,-128.66 969.53,-103.16 1028.38,-88.08"/>
<polygon fill="midnightblue" stroke="midnightblue" points="1029.35,-91.44 1038.17,-85.57 1027.61,-84.66 1029.35,-91.44"/>
</g>
<!-- Node13&#45;&gt;Node5 -->
<g id="edge19" class="edge">
<title>Node13&#45;&gt;Node5</title>
<path fill="none" stroke="midnightblue" d="M839.08,-142.93C882.3,-139.68 939.96,-142.4 981,-171 1042.16,-213.62 1065.11,-306.9 1072.47,-347.94"/>
<polygon fill="midnightblue" stroke="midnightblue" points="1069.06,-348.76 1074.15,-358.05 1075.96,-347.61 1069.06,-348.76"/>
</g>
<!-- Node13&#45;&gt;Node11 -->
<g id="edge16" class="edge">
<title>Node13&#45;&gt;Node11</title>
<path fill="none" stroke="midnightblue" d="M816.35,-161.59C835.7,-166.56 859.53,-172.68 880.11,-177.96"/>
<polygon fill="midnightblue" stroke="midnightblue" points="879.37,-181.38 889.92,-180.48 881.11,-174.6 879.37,-181.38"/>
</g>
<!-- Node13&#45;&gt;Node12 -->
<g id="edge18" class="edge">
<title>Node13&#45;&gt;Node12</title>
<path fill="none" stroke="midnightblue" d="M759.7,-161.56C742.36,-168.28 714.83,-176.63 690.76,-182.79"/>
<polygon fill="midnightblue" stroke="midnightblue" points="689.91,-179.39 681.05,-185.19 691.6,-186.19 689.91,-179.39"/>
</g>
<!-- Node14&#45;&gt;Node5 -->
<g id="edge24" class="edge">
<title>Node14&#45;&gt;Node5</title>
<path fill="none" stroke="midnightblue" d="M979.01,-396.98C996.88,-391.61 1016.82,-385.62 1033.91,-380.49"/>
<polygon fill="midnightblue" stroke="midnightblue" points="1035.04,-383.81 1043.61,-377.58 1033.02,-377.1 1035.04,-383.81"/>
</g>
<!-- Node15&#45;&gt;Node3 -->
<g id="edge29" class="edge">
<title>Node15&#45;&gt;Node3</title>
<path fill="none" stroke="midnightblue" d="M523.51,-275.31C535.62,-254.53 566.29,-204.84 601,-171 645.85,-127.29 658.36,-112.98 717,-91 812.54,-55.19 932.59,-59.06 1006.67,-66.5"/>
<polygon fill="midnightblue" stroke="midnightblue" points="1006.49,-70 1016.81,-67.57 1007.23,-63.04 1006.49,-70"/>
</g>
<!-- Node15&#45;&gt;Node5 -->
<g id="edge31" class="edge">
<title>Node15&#45;&gt;Node5</title>
<path fill="none" stroke="midnightblue" d="M565.2,-280.08C628.16,-274.63 742.86,-268.62 839,-285 916.57,-298.22 1002.55,-334.17 1046.36,-354.15"/>
<polygon fill="midnightblue" stroke="midnightblue" points="1045.01,-357.38 1055.56,-358.39 1047.94,-351.03 1045.01,-357.38"/>
</g>
<!-- Node15&#45;&gt;Node7 -->
<g id="edge32" class="edge">
<title>Node15&#45;&gt;Node7</title>
<path fill="none" stroke="midnightblue" d="M500.81,-294.66C480.28,-304.4 442.63,-318.72 411.14,-329.25"/>
<polygon fill="midnightblue" stroke="midnightblue" points="410,-325.94 401.59,-332.38 412.19,-332.59 410,-325.94"/>
</g>
<!-- Node15&#45;&gt;Node9 -->
<g id="edge28" class="edge">
<title>Node15&#45;&gt;Node9</title>
<path fill="none" stroke="midnightblue" d="M565.17,-292.35C578.58,-294.43 592.93,-296.67 605.44,-298.62"/>
<polygon fill="midnightblue" stroke="midnightblue" points="605.04,-302.1 615.46,-300.18 606.12,-295.18 605.04,-302.1"/>
</g>
<!-- Node15&#45;&gt;Node12 -->
<g id="edge30" class="edge">
<title>Node15&#45;&gt;Node12</title>
<path fill="none" stroke="midnightblue" d="M530.6,-275.19C551.62,-258.82 594.04,-225.79 619.44,-206.01"/>
<polygon fill="midnightblue" stroke="midnightblue" points="621.91,-208.52 627.65,-199.61 617.61,-203 621.91,-208.52"/>
</g>
</g>
</svg>
