<?xml version="1.0" encoding="UTF-8" standalone="no"?>
<!DOCTYPE svg PUBLIC "-//W3C//DTD SVG 1.1//EN"
 "http://www.w3.org/Graphics/SVG/1.1/DTD/svg11.dtd">
<!-- Generated by graphviz version 2.43.0 (0)
 -->
<!-- Title: temp_callback_reply_frag_req Pages: 1 -->
<svg width="1610pt" height="232pt"
 viewBox="0.00 0.00 1610.00 232.04" xmlns="http://www.w3.org/2000/svg" xmlns:xlink="http://www.w3.org/1999/xlink">
<g id="graph0" class="graph" transform="scale(1 1) rotate(0) translate(4 228.04)">
<title>temp_callback_reply_frag_req</title>
<!-- Node1 -->
<g id="node1" class="node">
<title>Node1</title>
<g id="a_node1"><a xlink:title=" ">
<polygon fill="#bfbfbf" stroke="black" points="1496,-47.04 1496,-77.04 1602,-77.04 1602,-47.04 1496,-47.04"/>
<text text-anchor="start" x="1504" y="-65.04" font-family="Helvetica,sans-Serif" font-size="10.00">temp_callback_reply</text>
<text text-anchor="middle" x="1549" y="-54.04" font-family="Helvetica,sans-Serif" font-size="10.00">_frag_req</text>
</a>
</g>
</g>
<!-- Node2 -->
<g id="node2" class="node">
<title>Node2</title>
<g id="a_node2"><a xlink:href="transport__service_8c.html#a67e57d4768071543cd6f67b8e95dc6d8" target="_top" xlink:title=" ">
<polygon fill="none" stroke="black" points="1382,-52.54 1382,-71.54 1460,-71.54 1460,-52.54 1382,-52.54"/>
<text text-anchor="middle" x="1421" y="-59.54" font-family="Helvetica,sans-Serif" font-size="10.00">reply_frag_req</text>
</a>
</g>
</g>
<!-- Node1&#45;&gt;Node2 -->
<g id="edge1" class="edge">
<title>Node1&#45;&gt;Node2</title>
<path fill="none" stroke="midnightblue" d="M1485.53,-62.04C1476.87,-62.04 1468.19,-62.04 1460.16,-62.04"/>
<polygon fill="midnightblue" stroke="midnightblue" points="1485.66,-65.54 1495.66,-62.04 1485.66,-58.54 1485.66,-65.54"/>
</g>
<!-- Node3 -->
<g id="node3" class="node">
<title>Node3</title>
<g id="a_node3"><a xlink:href="transport__service_8c.html#a7800e90df0e417d85ec84937638ad29c" target="_top" xlink:title=" ">
<polygon fill="none" stroke="black" points="789,-90.54 789,-109.54 837,-109.54 837,-90.54 789,-90.54"/>
<text text-anchor="middle" x="813" y="-97.54" font-family="Helvetica,sans-Serif" font-size="10.00">receive</text>
</a>
</g>
</g>
<!-- Node2&#45;&gt;Node3 -->
<g id="edge2" class="edge">
<title>Node2&#45;&gt;Node3</title>
<path fill="none" stroke="midnightblue" d="M1384.57,-49.31C1318.83,-27.3 1173.49,13.78 1051,-5.04 969.03,-17.63 947.88,-25.38 873,-61.04 855.93,-69.17 838.04,-81.63 826.5,-90.27"/>
<polygon fill="midnightblue" stroke="midnightblue" points="1383.46,-52.63 1394.05,-52.53 1385.72,-46 1383.46,-52.63"/>
</g>
<!-- Node9 -->
<g id="node9" class="node">
<title>Node9</title>
<g id="a_node9"><a xlink:href="transport__service_8c.html#a0d8b03eb74c8ac1b697cf1f967634e2e" target="_top" xlink:title=" ">
<polygon fill="none" stroke="black" points="1194,-52.54 1194,-71.54 1346,-71.54 1346,-52.54 1194,-52.54"/>
<text text-anchor="middle" x="1270" y="-59.54" font-family="Helvetica,sans-Serif" font-size="10.00">transport_service_senddata_cb</text>
</a>
</g>
</g>
<!-- Node2&#45;&gt;Node9 -->
<g id="edge8" class="edge">
<title>Node2&#45;&gt;Node9</title>
<path fill="none" stroke="midnightblue" d="M1371.55,-55.67C1363.36,-55.42 1354.69,-55.29 1346.01,-55.29"/>
<polygon fill="midnightblue" stroke="midnightblue" points="1371.5,-59.17 1381.63,-56.05 1371.77,-52.17 1371.5,-59.17"/>
</g>
<!-- Node4 -->
<g id="node4" class="node">
<title>Node4</title>
<g id="a_node4"><a xlink:href="transport__service_8c.html#afe4b474eca116806850af8ce6182384c" target="_top" xlink:title=" ">
<polygon fill="none" stroke="black" points="613,-123.04 613,-153.04 753,-153.04 753,-123.04 613,-123.04"/>
<text text-anchor="start" x="621" y="-141.04" font-family="Helvetica,sans-Serif" font-size="10.00">transport_service_command</text>
<text text-anchor="middle" x="683" y="-130.04" font-family="Helvetica,sans-Serif" font-size="10.00">_handler</text>
</a>
</g>
</g>
<!-- Node3&#45;&gt;Node4 -->
<g id="edge3" class="edge">
<title>Node3&#45;&gt;Node4</title>
<path fill="none" stroke="midnightblue" d="M779.01,-109.83C765.49,-113.84 749.53,-118.58 734.59,-123.02"/>
<polygon fill="midnightblue" stroke="midnightblue" points="780.23,-113.12 788.82,-106.92 778.24,-106.41 780.23,-113.12"/>
</g>
<!-- Node5 -->
<g id="node5" class="node">
<title>Node5</title>
<g id="a_node5"><a xlink:href="group__transport__service.html#ga8373376f01c78a3ecfb1941605eb9c1a" target="_top" xlink:title="Transport service RX function.">
<polygon fill="none" stroke="black" points="470,-125.04 470,-155.04 577,-155.04 577,-125.04 470,-125.04"/>
<text text-anchor="start" x="478" y="-143.04" font-family="Helvetica,sans-Serif" font-size="10.00">transport_service_on</text>
<text text-anchor="middle" x="523.5" y="-132.04" font-family="Helvetica,sans-Serif" font-size="10.00">_frame_received</text>
</a>
</g>
</g>
<!-- Node4&#45;&gt;Node5 -->
<g id="edge4" class="edge">
<title>Node4&#45;&gt;Node5</title>
<path fill="none" stroke="midnightblue" d="M602.83,-139.04C594.22,-139.15 585.61,-139.26 577.42,-139.36"/>
<polygon fill="midnightblue" stroke="midnightblue" points="602.96,-142.54 612.92,-138.91 602.87,-135.54 602.96,-142.54"/>
</g>
<!-- Node6 -->
<g id="node6" class="node">
<title>Node6</title>
<g id="a_node6"><a xlink:href="group__transport__service__transport__wrapper.html#ga836e1af25a73aef2bc515da73660cd3b" target="_top" xlink:title="Entry point of Transport service frames received from the PHY/radio stack.">
<polygon fill="none" stroke="black" points="309,-126.04 309,-156.04 434,-156.04 434,-126.04 309,-126.04"/>
<text text-anchor="start" x="317" y="-144.04" font-family="Helvetica,sans-Serif" font-size="10.00">zwave_transport_service</text>
<text text-anchor="middle" x="371.5" y="-133.04" font-family="Helvetica,sans-Serif" font-size="10.00">_on_frame_received</text>
</a>
</g>
</g>
<!-- Node5&#45;&gt;Node6 -->
<g id="edge5" class="edge">
<title>Node5&#45;&gt;Node6</title>
<path fill="none" stroke="midnightblue" d="M459.51,-140.46C451.11,-140.51 442.51,-140.57 434.14,-140.63"/>
<polygon fill="midnightblue" stroke="midnightblue" points="459.64,-143.96 469.62,-140.39 459.59,-136.96 459.64,-143.96"/>
</g>
<!-- Node7 -->
<g id="node7" class="node">
<title>Node7</title>
<g id="a_node7"><a xlink:href="group__transport__service__transport__wrapper.html#gad02263e40b63853166ac8a7601954f33" target="_top" xlink:title=" ">
<polygon fill="none" stroke="black" points="148,-148.04 148,-178.04 273,-178.04 273,-148.04 148,-148.04"/>
<text text-anchor="start" x="156" y="-166.04" font-family="Helvetica,sans-Serif" font-size="10.00">zwave_transport_service</text>
<text text-anchor="middle" x="210.5" y="-155.04" font-family="Helvetica,sans-Serif" font-size="10.00">_transport_init</text>
</a>
</g>
</g>
<!-- Node6&#45;&gt;Node7 -->
<g id="edge6" class="edge">
<title>Node6&#45;&gt;Node7</title>
<path fill="none" stroke="midnightblue" d="M298.41,-151.01C290.01,-152.17 281.5,-153.35 273.26,-154.49"/>
<polygon fill="midnightblue" stroke="midnightblue" points="299.15,-154.44 308.57,-149.61 298.19,-147.51 299.15,-154.44"/>
</g>
<!-- Node8 -->
<g id="node8" class="node">
<title>Node8</title>
<g id="a_node8"><a xlink:href="group__zwave__transports__fixt.html#ga26fb2571e272a5094bd0320eca3a896d" target="_top" xlink:title="Setup fixture for Z&#45;Wave Transports.">
<polygon fill="none" stroke="black" points="0,-153.54 0,-172.54 112,-172.54 112,-153.54 0,-153.54"/>
<text text-anchor="middle" x="56" y="-160.54" font-family="Helvetica,sans-Serif" font-size="10.00">zwave_transports_init</text>
</a>
</g>
</g>
<!-- Node7&#45;&gt;Node8 -->
<g id="edge7" class="edge">
<title>Node7&#45;&gt;Node8</title>
<path fill="none" stroke="midnightblue" d="M137.64,-163.04C129.17,-163.04 120.62,-163.04 112.42,-163.04"/>
<polygon fill="midnightblue" stroke="midnightblue" points="137.91,-166.54 147.91,-163.04 137.91,-159.54 137.91,-166.54"/>
</g>
<!-- Node9&#45;&gt;Node2 -->
<g id="edge10" class="edge">
<title>Node9&#45;&gt;Node2</title>
<path fill="none" stroke="midnightblue" d="M1356.1,-68.73C1364.99,-68.62 1373.67,-68.39 1381.63,-68.02"/>
<polygon fill="midnightblue" stroke="midnightblue" points="1355.99,-65.23 1346.01,-68.79 1356.03,-72.23 1355.99,-65.23"/>
</g>
<!-- Node9&#45;&gt;Node3 -->
<g id="edge9" class="edge">
<title>Node9&#45;&gt;Node3</title>
<path fill="none" stroke="midnightblue" d="M1183.78,-59.69C1103.08,-58.97 978.86,-61.8 873,-81.04 860.93,-83.23 847.91,-87.24 837.18,-91.01"/>
<polygon fill="midnightblue" stroke="midnightblue" points="1183.85,-63.19 1193.89,-59.8 1183.93,-56.19 1183.85,-63.19"/>
</g>
<!-- Node10 -->
<g id="node10" class="node">
<title>Node10</title>
<g id="a_node10"><a xlink:href="transport__service_8c.html#a050800ee9c4c9bc3aa76a93612fb985f" target="_top" xlink:title=" ">
<polygon fill="none" stroke="black" points="1064,-166.54 1064,-185.54 1145,-185.54 1145,-166.54 1064,-166.54"/>
<text text-anchor="middle" x="1104.5" y="-173.54" font-family="Helvetica,sans-Serif" font-size="10.00">send_first_frag</text>
</a>
</g>
</g>
<!-- Node9&#45;&gt;Node10 -->
<g id="edge11" class="edge">
<title>Node9&#45;&gt;Node10</title>
<path fill="none" stroke="midnightblue" d="M1246.96,-77.41C1212.76,-101.25 1147.91,-146.46 1119.47,-166.3"/>
<polygon fill="midnightblue" stroke="midnightblue" points="1249.14,-80.15 1255.34,-71.56 1245.14,-74.41 1249.14,-80.15"/>
</g>
<!-- Node14 -->
<g id="node14" class="node">
<title>Node14</title>
<g id="a_node14"><a xlink:href="transport__service_8c.html#a8a25db2fc95ae366bd129a0d76800d7c" target="_top" xlink:title=" ">
<polygon fill="none" stroke="black" points="1051,-90.54 1051,-109.54 1158,-109.54 1158,-90.54 1051,-90.54"/>
<text text-anchor="middle" x="1104.5" y="-97.54" font-family="Helvetica,sans-Serif" font-size="10.00">send_frag_wait_cmd</text>
</a>
</g>
</g>
<!-- Node9&#45;&gt;Node14 -->
<g id="edge17" class="edge">
<title>Node9&#45;&gt;Node14</title>
<path fill="none" stroke="midnightblue" d="M1189.24,-73.83C1165.93,-79.2 1142.41,-85.36 1126.26,-90.53"/>
<polygon fill="midnightblue" stroke="midnightblue" points="1190.21,-77.2 1199.19,-71.58 1188.66,-70.37 1190.21,-77.2"/>
</g>
<!-- Node16 -->
<g id="node16" class="node">
<title>Node16</title>
<g id="a_node16"><a xlink:href="transport__service_8c.html#ada81ed14232e9fcf5ffc8cef349c28b5" target="_top" xlink:title=" ">
<polygon fill="none" stroke="black" points="1056.5,-14.54 1056.5,-33.54 1152.5,-33.54 1152.5,-14.54 1056.5,-14.54"/>
<text text-anchor="middle" x="1104.5" y="-21.54" font-family="Helvetica,sans-Serif" font-size="10.00">send_subseq_frag</text>
</a>
</g>
</g>
<!-- Node9&#45;&gt;Node16 -->
<g id="edge22" class="edge">
<title>Node9&#45;&gt;Node16</title>
<path fill="none" stroke="midnightblue" d="M1238.27,-49.48C1214.13,-42.4 1180.11,-34.23 1152.55,-28.79"/>
<polygon fill="midnightblue" stroke="midnightblue" points="1237.37,-52.87 1247.96,-52.44 1239.42,-46.18 1237.37,-52.87"/>
</g>
<!-- Node11 -->
<g id="node11" class="node">
<title>Node11</title>
<g id="a_node11"><a xlink:href="group__transport__service.html#ga5dec1563c42d06aad70fdc31f3acb603" target="_top" xlink:title="Sending a long frame with Transport service.">
<polygon fill="none" stroke="black" points="873,-204.54 873,-223.54 1015,-223.54 1015,-204.54 873,-204.54"/>
<text text-anchor="middle" x="944" y="-211.54" font-family="Helvetica,sans-Serif" font-size="10.00">transport_service_send_data</text>
</a>
</g>
</g>
<!-- Node10&#45;&gt;Node11 -->
<g id="edge12" class="edge">
<title>Node10&#45;&gt;Node11</title>
<path fill="none" stroke="midnightblue" d="M1053.95,-187.92C1031.63,-193.27 1005.63,-199.5 984.63,-204.53"/>
<polygon fill="midnightblue" stroke="midnightblue" points="1055,-191.26 1063.91,-185.53 1053.37,-184.46 1055,-191.26"/>
</g>
<!-- Node13 -->
<g id="node13" class="node">
<title>Node13</title>
<g id="a_node13"><a xlink:href="transport__service_8c.html#a4ec123f01e33bb2b4694e48484c6e892" target="_top" xlink:title=" ">
<polygon fill="none" stroke="black" points="887,-166.54 887,-185.54 1001,-185.54 1001,-166.54 887,-166.54"/>
<text text-anchor="middle" x="944" y="-173.54" font-family="Helvetica,sans-Serif" font-size="10.00">wait_restart_from_first</text>
</a>
</g>
</g>
<!-- Node10&#45;&gt;Node13 -->
<g id="edge15" class="edge">
<title>Node10&#45;&gt;Node13</title>
<path fill="none" stroke="midnightblue" d="M1053.8,-176.04C1037.07,-176.04 1018.3,-176.04 1001.11,-176.04"/>
<polygon fill="midnightblue" stroke="midnightblue" points="1053.91,-179.54 1063.91,-176.04 1053.91,-172.54 1053.91,-179.54"/>
</g>
<!-- Node12 -->
<g id="node12" class="node">
<title>Node12</title>
<g id="a_node12"><a xlink:href="group__transport__service__transport__wrapper.html#ga6216ae3a018a4028bfc3025695784f0e" target="_top" xlink:title="Sending a frame with Transport service.">
<polygon fill="none" stroke="black" points="620.5,-179.04 620.5,-209.04 745.5,-209.04 745.5,-179.04 620.5,-179.04"/>
<text text-anchor="start" x="628.5" y="-197.04" font-family="Helvetica,sans-Serif" font-size="10.00">zwave_transport_service</text>
<text text-anchor="middle" x="683" y="-186.04" font-family="Helvetica,sans-Serif" font-size="10.00">_send_data</text>
</a>
</g>
</g>
<!-- Node11&#45;&gt;Node12 -->
<g id="edge13" class="edge">
<title>Node11&#45;&gt;Node12</title>
<path fill="none" stroke="midnightblue" d="M862.48,-207.82C824.83,-204.91 780.71,-201.5 745.76,-198.81"/>
<polygon fill="midnightblue" stroke="midnightblue" points="862.67,-211.34 872.91,-208.62 863.21,-204.36 862.67,-211.34"/>
</g>
<!-- Node12&#45;&gt;Node7 -->
<g id="edge14" class="edge">
<title>Node12&#45;&gt;Node7</title>
<path fill="none" stroke="midnightblue" d="M610.42,-189.32C518.34,-183.25 359.95,-172.82 273.02,-167.09"/>
<polygon fill="midnightblue" stroke="midnightblue" points="610.28,-192.82 620.49,-189.98 610.74,-185.83 610.28,-192.82"/>
</g>
<!-- Node13&#45;&gt;Node3 -->
<g id="edge16" class="edge">
<title>Node13&#45;&gt;Node3</title>
<path fill="none" stroke="midnightblue" d="M917.79,-161.18C891.85,-145.9 852.23,-122.56 830.21,-109.58"/>
<polygon fill="midnightblue" stroke="midnightblue" points="916.27,-164.35 926.66,-166.41 919.82,-158.32 916.27,-164.35"/>
</g>
<!-- Node14&#45;&gt;Node4 -->
<g id="edge20" class="edge">
<title>Node14&#45;&gt;Node4</title>
<path fill="none" stroke="midnightblue" d="M1055.25,-111.8C1042.25,-114.59 1028.15,-117.26 1015,-119.04 925.02,-131.2 820.25,-135.59 753.08,-137.17"/>
<polygon fill="midnightblue" stroke="midnightblue" points="1056.38,-115.14 1065.39,-109.56 1054.87,-108.3 1056.38,-115.14"/>
</g>
<!-- Node14&#45;&gt;Node9 -->
<g id="edge21" class="edge">
<title>Node14&#45;&gt;Node9</title>
<path fill="none" stroke="midnightblue" d="M1167.91,-92.11C1196.19,-86.05 1227.75,-78.09 1247.96,-71.63"/>
<polygon fill="midnightblue" stroke="midnightblue" points="1167.13,-88.7 1158.06,-94.17 1168.57,-95.55 1167.13,-88.7"/>
</g>
<!-- Node15 -->
<g id="node15" class="node">
<title>Node15</title>
<g id="a_node15"><a xlink:href="transport__service_8c.html#a2e4434739ec658a986a9b540f6b68696" target="_top" xlink:title=" ">
<polygon fill="none" stroke="black" points="893,-90.54 893,-109.54 995,-109.54 995,-90.54 893,-90.54"/>
<text text-anchor="middle" x="944" y="-97.54" font-family="Helvetica,sans-Serif" font-size="10.00">mark_frag_received</text>
</a>
</g>
</g>
<!-- Node14&#45;&gt;Node15 -->
<g id="edge18" class="edge">
<title>Node14&#45;&gt;Node15</title>
<path fill="none" stroke="midnightblue" d="M1040.45,-100.04C1025.39,-100.04 1009.52,-100.04 995.13,-100.04"/>
<polygon fill="midnightblue" stroke="midnightblue" points="1040.72,-103.54 1050.72,-100.04 1040.72,-96.54 1040.72,-103.54"/>
</g>
<!-- Node15&#45;&gt;Node3 -->
<g id="edge19" class="edge">
<title>Node15&#45;&gt;Node3</title>
<path fill="none" stroke="midnightblue" d="M882.71,-100.04C866.45,-100.04 849.83,-100.04 837.01,-100.04"/>
<polygon fill="midnightblue" stroke="midnightblue" points="882.76,-103.54 892.76,-100.04 882.76,-96.54 882.76,-103.54"/>
</g>
<!-- Node16&#45;&gt;Node9 -->
<g id="edge23" class="edge">
<title>Node16&#45;&gt;Node9</title>
<path fill="none" stroke="midnightblue" d="M1135.82,-36.47C1153.67,-41.72 1177.03,-47.59 1199.19,-52.5"/>
<polygon fill="midnightblue" stroke="midnightblue" points="1136.85,-33.12 1126.26,-33.54 1134.8,-39.81 1136.85,-33.12"/>
</g>
</g>
</svg>
