<?xml version="1.0" encoding="UTF-8" standalone="no"?>
<!DOCTYPE svg PUBLIC "-//W3C//DTD SVG 1.1//EN"
 "http://www.w3.org/Graphics/SVG/1.1/DTD/svg11.dtd">
<!-- Generated by graphviz version 2.43.0 (0)
 -->
<!-- Title: is_transport_service_receiving Pages: 1 -->
<svg width="760pt" height="39pt"
 viewBox="0.00 0.00 760.00 39.00" xmlns="http://www.w3.org/2000/svg" xmlns:xlink="http://www.w3.org/1999/xlink">
<g id="graph0" class="graph" transform="scale(1 1) rotate(0) translate(4 35)">
<title>is_transport_service_receiving</title>
<!-- Node1 -->
<g id="node1" class="node">
<title>Node1</title>
<g id="a_node1"><a xlink:title=" ">
<polygon fill="#bfbfbf" stroke="black" points="648,-0.5 648,-30.5 752,-30.5 752,-0.5 648,-0.5"/>
<text text-anchor="start" x="656" y="-18.5" font-family="Helvetica,sans-Serif" font-size="10.00">is_transport_service</text>
<text text-anchor="middle" x="700" y="-7.5" font-family="Helvetica,sans-Serif" font-size="10.00">_receiving</text>
</a>
</g>
</g>
<!-- Node2 -->
<g id="node2" class="node">
<title>Node2</title>
<g id="a_node2"><a xlink:href="group__transport__service.html#ga5dec1563c42d06aad70fdc31f3acb603" target="_top" xlink:title="Sending a long frame with Transport service.">
<polygon fill="none" stroke="black" points="470,-6 470,-25 612,-25 612,-6 470,-6"/>
<text text-anchor="middle" x="541" y="-13" font-family="Helvetica,sans-Serif" font-size="10.00">transport_service_send_data</text>
</a>
</g>
</g>
<!-- Node1&#45;&gt;Node2 -->
<g id="edge1" class="edge">
<title>Node1&#45;&gt;Node2</title>
<path fill="none" stroke="midnightblue" d="M637.55,-15.5C629.19,-15.5 620.56,-15.5 612.06,-15.5"/>
<polygon fill="midnightblue" stroke="midnightblue" points="637.59,-19 647.59,-15.5 637.59,-12 637.59,-19"/>
</g>
<!-- Node3 -->
<g id="node3" class="node">
<title>Node3</title>
<g id="a_node3"><a xlink:href="group__transport__service__transport__wrapper.html#ga6216ae3a018a4028bfc3025695784f0e" target="_top" xlink:title="Sending a frame with Transport service.">
<polygon fill="none" stroke="black" points="309,-0.5 309,-30.5 434,-30.5 434,-0.5 309,-0.5"/>
<text text-anchor="start" x="317" y="-18.5" font-family="Helvetica,sans-Serif" font-size="10.00">zwave_transport_service</text>
<text text-anchor="middle" x="371.5" y="-7.5" font-family="Helvetica,sans-Serif" font-size="10.00">_send_data</text>
</a>
</g>
</g>
<!-- Node2&#45;&gt;Node3 -->
<g id="edge2" class="edge">
<title>Node2&#45;&gt;Node3</title>
<path fill="none" stroke="midnightblue" d="M459.81,-15.5C451.14,-15.5 442.42,-15.5 434.03,-15.5"/>
<polygon fill="midnightblue" stroke="midnightblue" points="459.94,-19 469.94,-15.5 459.94,-12 459.94,-19"/>
</g>
<!-- Node4 -->
<g id="node4" class="node">
<title>Node4</title>
<g id="a_node4"><a xlink:href="group__transport__service__transport__wrapper.html#gad02263e40b63853166ac8a7601954f33" target="_top" xlink:title=" ">
<polygon fill="none" stroke="black" points="148,-0.5 148,-30.5 273,-30.5 273,-0.5 148,-0.5"/>
<text text-anchor="start" x="156" y="-18.5" font-family="Helvetica,sans-Serif" font-size="10.00">zwave_transport_service</text>
<text text-anchor="middle" x="210.5" y="-7.5" font-family="Helvetica,sans-Serif" font-size="10.00">_transport_init</text>
</a>
</g>
</g>
<!-- Node3&#45;&gt;Node4 -->
<g id="edge3" class="edge">
<title>Node3&#45;&gt;Node4</title>
<path fill="none" stroke="midnightblue" d="M298.41,-15.5C290.01,-15.5 281.5,-15.5 273.26,-15.5"/>
<polygon fill="midnightblue" stroke="midnightblue" points="298.57,-19 308.57,-15.5 298.57,-12 298.57,-19"/>
</g>
<!-- Node5 -->
<g id="node5" class="node">
<title>Node5</title>
<g id="a_node5"><a xlink:href="group__zwave__transports__fixt.html#ga26fb2571e272a5094bd0320eca3a896d" target="_top" xlink:title="Setup fixture for Z&#45;Wave Transports.">
<polygon fill="none" stroke="black" points="0,-6 0,-25 112,-25 112,-6 0,-6"/>
<text text-anchor="middle" x="56" y="-13" font-family="Helvetica,sans-Serif" font-size="10.00">zwave_transports_init</text>
</a>
</g>
</g>
<!-- Node4&#45;&gt;Node5 -->
<g id="edge4" class="edge">
<title>Node4&#45;&gt;Node5</title>
<path fill="none" stroke="midnightblue" d="M137.64,-15.5C129.17,-15.5 120.62,-15.5 112.42,-15.5"/>
<polygon fill="midnightblue" stroke="midnightblue" points="137.91,-19 147.91,-15.5 137.91,-12 137.91,-19"/>
</g>
</g>
</svg>
