<?xml version="1.0" encoding="UTF-8" standalone="no"?>
<!DOCTYPE svg PUBLIC "-//W3C//DTD SVG 1.1//EN"
 "http://www.w3.org/Graphics/SVG/1.1/DTD/svg11.dtd">
<!-- Generated by graphviz version 2.43.0 (0)
 -->
<!-- Title: applications/zpc/components/ucl_mqtt/src/ucl_mqtt.c Pages: 1 -->
<svg width="467pt" height="218pt"
 viewBox="0.00 0.00 466.50 218.00" xmlns="http://www.w3.org/2000/svg" xmlns:xlink="http://www.w3.org/1999/xlink">
<g id="graph0" class="graph" transform="scale(1 1) rotate(0) translate(4 214)">
<title>applications/zpc/components/ucl_mqtt/src/ucl_mqtt.c</title>
<!-- Node1 -->
<g id="node1" class="node">
<title>Node1</title>
<g id="a_node1"><a xlink:title=" ">
<polygon fill="#bfbfbf" stroke="black" points="190,-179.5 190,-209.5 333,-209.5 333,-179.5 190,-179.5"/>
<text text-anchor="start" x="198" y="-197.5" font-family="Helvetica,sans-Serif" font-size="10.00">applications/zpc/components</text>
<text text-anchor="middle" x="261.5" y="-186.5" font-family="Helvetica,sans-Serif" font-size="10.00">/ucl_mqtt/src/ucl_mqtt.c</text>
</a>
</g>
</g>
<!-- Node2 -->
<g id="node2" class="node">
<title>Node2</title>
<g id="a_node2"><a xlink:title=" ">
<polygon fill="none" stroke="#bfbfbf" points="0,-56.5 0,-75.5 59,-75.5 59,-56.5 0,-56.5"/>
<text text-anchor="middle" x="29.5" y="-63.5" font-family="Helvetica,sans-Serif" font-size="10.00">process.h</text>
</a>
</g>
</g>
<!-- Node1&#45;&gt;Node2 -->
<g id="edge1" class="edge">
<title>Node1&#45;&gt;Node2</title>
<path fill="none" stroke="midnightblue" d="M189.98,-190.37C148.89,-185.17 98.64,-172.59 63.5,-143 46.09,-128.33 37.23,-102.95 32.99,-85.58"/>
<polygon fill="midnightblue" stroke="midnightblue" points="36.35,-84.56 30.83,-75.52 29.51,-86.04 36.35,-84.56"/>
</g>
<!-- Node3 -->
<g id="node3" class="node">
<title>Node3</title>
<g id="a_node3"><a xlink:href="sl__status_8h.html" target="_top" xlink:title="SL Status Codes.">
<polygon fill="none" stroke="black" points="238,-56.5 238,-75.5 303,-75.5 303,-56.5 238,-56.5"/>
<text text-anchor="middle" x="270.5" y="-63.5" font-family="Helvetica,sans-Serif" font-size="10.00">sl_status.h</text>
</a>
</g>
</g>
<!-- Node1&#45;&gt;Node3 -->
<g id="edge2" class="edge">
<title>Node1&#45;&gt;Node3</title>
<path fill="none" stroke="midnightblue" d="M277.15,-179.25C286.16,-169.93 296.65,-156.94 301.5,-143 306.03,-129.99 305.59,-125.16 301.5,-112 298.27,-101.62 291.72,-91.52 285.48,-83.53"/>
<polygon fill="midnightblue" stroke="midnightblue" points="288.08,-81.19 278.98,-75.77 282.71,-85.68 288.08,-81.19"/>
</g>
<!-- Node5 -->
<g id="node5" class="node">
<title>Node5</title>
<g id="a_node5"><a xlink:href="ucl__mqtt_8h.html" target="_top" xlink:title=" ">
<polygon fill="none" stroke="black" points="230.5,-118 230.5,-137 292.5,-137 292.5,-118 230.5,-118"/>
<text text-anchor="middle" x="261.5" y="-125" font-family="Helvetica,sans-Serif" font-size="10.00">ucl_mqtt.h</text>
</a>
</g>
</g>
<!-- Node1&#45;&gt;Node5 -->
<g id="edge4" class="edge">
<title>Node1&#45;&gt;Node5</title>
<path fill="none" stroke="midnightblue" d="M261.5,-179.4C261.5,-170.06 261.5,-157.71 261.5,-147.52"/>
<polygon fill="midnightblue" stroke="midnightblue" points="265,-147.19 261.5,-137.19 258,-147.19 265,-147.19"/>
</g>
<!-- Node6 -->
<g id="node6" class="node">
<title>Node6</title>
<g id="a_node6"><a xlink:href="ucl__network__management_8h.html" target="_top" xlink:title=" ">
<polygon fill="none" stroke="black" points="73,-118 73,-137 212,-137 212,-118 73,-118"/>
<text text-anchor="middle" x="142.5" y="-125" font-family="Helvetica,sans-Serif" font-size="10.00">ucl_network_management.h</text>
</a>
</g>
</g>
<!-- Node1&#45;&gt;Node6 -->
<g id="edge6" class="edge">
<title>Node1&#45;&gt;Node6</title>
<path fill="none" stroke="midnightblue" d="M235.68,-179.4C215.26,-168.24 186.95,-152.78 166.91,-141.83"/>
<polygon fill="midnightblue" stroke="midnightblue" points="168.53,-138.73 158.07,-137.01 165.17,-144.87 168.53,-138.73"/>
</g>
<!-- Node8 -->
<g id="node8" class="node">
<title>Node8</title>
<g id="a_node8"><a xlink:title=" ">
<polygon fill="none" stroke="#bfbfbf" points="348.5,-112.5 348.5,-142.5 458.5,-142.5 458.5,-112.5 348.5,-112.5"/>
<text text-anchor="start" x="356.5" y="-130.5" font-family="Helvetica,sans-Serif" font-size="10.00">unify_dotdot_attribute</text>
<text text-anchor="middle" x="403.5" y="-119.5" font-family="Helvetica,sans-Serif" font-size="10.00">_store_node_state.h</text>
</a>
</g>
</g>
<!-- Node1&#45;&gt;Node8 -->
<g id="edge11" class="edge">
<title>Node1&#45;&gt;Node8</title>
<path fill="none" stroke="midnightblue" d="M292.31,-179.4C313.15,-169.86 340.88,-157.16 363.43,-146.84"/>
<polygon fill="midnightblue" stroke="midnightblue" points="365.11,-149.92 372.75,-142.58 362.2,-143.56 365.11,-149.92"/>
</g>
<!-- Node4 -->
<g id="node4" class="node">
<title>Node4</title>
<g id="a_node4"><a xlink:title=" ">
<polygon fill="none" stroke="#bfbfbf" points="185,-0.5 185,-19.5 234,-19.5 234,-0.5 185,-0.5"/>
<text text-anchor="middle" x="209.5" y="-7.5" font-family="Helvetica,sans-Serif" font-size="10.00">stdint.h</text>
</a>
</g>
</g>
<!-- Node3&#45;&gt;Node4 -->
<g id="edge3" class="edge">
<title>Node3&#45;&gt;Node4</title>
<path fill="none" stroke="midnightblue" d="M260.7,-56.32C251.68,-48.34 238.09,-36.31 227.18,-26.65"/>
<polygon fill="midnightblue" stroke="midnightblue" points="229.29,-23.84 219.48,-19.83 224.65,-29.08 229.29,-23.84"/>
</g>
<!-- Node5&#45;&gt;Node3 -->
<g id="edge5" class="edge">
<title>Node5&#45;&gt;Node3</title>
<path fill="none" stroke="midnightblue" d="M262.79,-117.98C264.06,-109.58 266.04,-96.48 267.68,-85.66"/>
<polygon fill="midnightblue" stroke="midnightblue" points="271.18,-85.92 269.21,-75.51 264.26,-84.87 271.18,-85.92"/>
</g>
<!-- Node6&#45;&gt;Node2 -->
<g id="edge10" class="edge">
<title>Node6&#45;&gt;Node2</title>
<path fill="none" stroke="midnightblue" d="M126.31,-117.98C107.6,-108.12 76.58,-91.79 54.7,-80.27"/>
<polygon fill="midnightblue" stroke="midnightblue" points="56.14,-77.07 45.66,-75.51 52.88,-83.27 56.14,-77.07"/>
</g>
<!-- Node6&#45;&gt;Node3 -->
<g id="edge7" class="edge">
<title>Node6&#45;&gt;Node3</title>
<path fill="none" stroke="midnightblue" d="M160.84,-117.98C182.32,-107.99 218.12,-91.35 242.95,-79.81"/>
<polygon fill="midnightblue" stroke="midnightblue" points="244.6,-82.9 252.19,-75.51 241.65,-76.55 244.6,-82.9"/>
</g>
<!-- Node7 -->
<g id="node7" class="node">
<title>Node7</title>
<g id="a_node7"><a xlink:href="zwave__node__id__definitions_8h.html" target="_top" xlink:title=" ">
<polygon fill="none" stroke="black" points="77.5,-56.5 77.5,-75.5 219.5,-75.5 219.5,-56.5 77.5,-56.5"/>
<text text-anchor="middle" x="148.5" y="-63.5" font-family="Helvetica,sans-Serif" font-size="10.00">zwave_node_id_definitions.h</text>
</a>
</g>
</g>
<!-- Node6&#45;&gt;Node7 -->
<g id="edge8" class="edge">
<title>Node6&#45;&gt;Node7</title>
<path fill="none" stroke="midnightblue" d="M143.36,-117.98C144.21,-109.58 145.53,-96.48 146.62,-85.66"/>
<polygon fill="midnightblue" stroke="midnightblue" points="150.12,-85.81 147.64,-75.51 143.16,-85.11 150.12,-85.81"/>
</g>
<!-- Node7&#45;&gt;Node4 -->
<g id="edge9" class="edge">
<title>Node7&#45;&gt;Node4</title>
<path fill="none" stroke="midnightblue" d="M158.3,-56.32C167.32,-48.34 180.91,-36.31 191.82,-26.65"/>
<polygon fill="midnightblue" stroke="midnightblue" points="194.35,-29.08 199.52,-19.83 189.71,-23.84 194.35,-29.08"/>
</g>
</g>
</svg>
