<?xml version="1.0" encoding="UTF-8" standalone="no"?>
<!DOCTYPE svg PUBLIC "-//W3C//DTD SVG 1.1//EN"
 "http://www.w3.org/Graphics/SVG/1.1/DTD/svg11.dtd">
<!-- Generated by graphviz version 2.43.0 (0)
 -->
<!-- Title: applications/zpc/components/zpc_utils/src/zpc_hex_to_int.c Pages: 1 -->
<svg width="175pt" height="95pt"
 viewBox="0.00 0.00 174.50 95.00" xmlns="http://www.w3.org/2000/svg" xmlns:xlink="http://www.w3.org/1999/xlink">
<g id="graph0" class="graph" transform="scale(1 1) rotate(0) translate(4 91)">
<title>applications/zpc/components/zpc_utils/src/zpc_hex_to_int.c</title>
<!-- Node1 -->
<g id="node1" class="node">
<title>Node1</title>
<g id="a_node1"><a xlink:title=" ">
<polygon fill="#bfbfbf" stroke="black" points="0,-56.5 0,-86.5 152,-86.5 152,-56.5 0,-56.5"/>
<text text-anchor="start" x="8" y="-74.5" font-family="Helvetica,sans-Serif" font-size="10.00">applications/zpc/components</text>
<text text-anchor="middle" x="76" y="-63.5" font-family="Helvetica,sans-Serif" font-size="10.00">/zpc_utils/src/zpc_hex_to_int.c</text>
</a>
</g>
</g>
<!-- Node2 -->
<g id="node2" class="node">
<title>Node2</title>
<g id="a_node2"><a xlink:title=" ">
<polygon fill="none" stroke="#bfbfbf" points="7,-0.5 7,-19.5 57,-19.5 57,-0.5 7,-0.5"/>
<text text-anchor="middle" x="32" y="-7.5" font-family="Helvetica,sans-Serif" font-size="10.00">sl_log.h</text>
</a>
</g>
</g>
<!-- Node1&#45;&gt;Node2 -->
<g id="edge1" class="edge">
<title>Node1&#45;&gt;Node2</title>
<path fill="none" stroke="midnightblue" d="M65.57,-56.4C59.24,-47.84 51.13,-36.87 44.47,-27.86"/>
<polygon fill="midnightblue" stroke="midnightblue" points="47.16,-25.62 38.4,-19.66 41.53,-29.78 47.16,-25.62"/>
</g>
<!-- Node3 -->
<g id="node3" class="node">
<title>Node3</title>
<g id="a_node3"><a xlink:href="zpc__hex__to__int_8h.html" target="_top" xlink:title=" ">
<polygon fill="none" stroke="black" points="75.5,-0.5 75.5,-19.5 166.5,-19.5 166.5,-0.5 75.5,-0.5"/>
<text text-anchor="middle" x="121" y="-7.5" font-family="Helvetica,sans-Serif" font-size="10.00">zpc_hex_to_int.h</text>
</a>
</g>
</g>
<!-- Node1&#45;&gt;Node3 -->
<g id="edge2" class="edge">
<title>Node1&#45;&gt;Node3</title>
<path fill="none" stroke="midnightblue" d="M86.66,-56.4C93.14,-47.84 101.43,-36.87 108.25,-27.86"/>
<polygon fill="midnightblue" stroke="midnightblue" points="111.21,-29.74 114.45,-19.66 105.63,-25.52 111.21,-29.74"/>
</g>
</g>
</svg>
