<?xml version="1.0" encoding="UTF-8" standalone="no"?>
<!DOCTYPE svg PUBLIC "-//W3C//DTD SVG 1.1//EN"
 "http://www.w3.org/Graphics/SVG/1.1/DTD/svg11.dtd">
<!-- Generated by graphviz version 2.43.0 (0)
 -->
<!-- Title: zpc_attribute_store_update_all_network_statuses Pages: 1 -->
<svg width="430pt" height="50pt"
 viewBox="0.00 0.00 430.00 50.00" xmlns="http://www.w3.org/2000/svg" xmlns:xlink="http://www.w3.org/1999/xlink">
<g id="graph0" class="graph" transform="scale(1 1) rotate(0) translate(4 46)">
<title>zpc_attribute_store_update_all_network_statuses</title>
<!-- Node1 -->
<g id="node1" class="node">
<title>Node1</title>
<g id="a_node1"><a xlink:title="Finds all NodeIDs network statuses with one value and change them to a new one.">
<polygon fill="#bfbfbf" stroke="black" points="316,-0.5 316,-41.5 422,-41.5 422,-0.5 316,-0.5"/>
<text text-anchor="start" x="324" y="-29.5" font-family="Helvetica,sans-Serif" font-size="10.00">zpc_attribute_store</text>
<text text-anchor="start" x="324" y="-18.5" font-family="Helvetica,sans-Serif" font-size="10.00">_update_all_network</text>
<text text-anchor="middle" x="369" y="-7.5" font-family="Helvetica,sans-Serif" font-size="10.00">_statuses</text>
</a>
</g>
</g>
<!-- Node2 -->
<g id="node2" class="node">
<title>Node2</title>
<g id="a_node2"><a xlink:href="zpc__attribute__store_8c.html#aebdd95d6a01728cc094e969460ac397b" target="_top" xlink:title=" ">
<polygon fill="none" stroke="black" points="154,-6 154,-36 280,-36 280,-6 154,-6"/>
<text text-anchor="start" x="162" y="-24" font-family="Helvetica,sans-Serif" font-size="10.00">invoke_update_callbacks</text>
<text text-anchor="middle" x="217" y="-13" font-family="Helvetica,sans-Serif" font-size="10.00">_in_network</text>
</a>
</g>
</g>
<!-- Node1&#45;&gt;Node2 -->
<g id="edge1" class="edge">
<title>Node1&#45;&gt;Node2</title>
<path fill="none" stroke="midnightblue" d="M305.73,-21C297.23,-21 288.51,-21 280.01,-21"/>
<polygon fill="midnightblue" stroke="midnightblue" points="305.96,-24.5 315.96,-21 305.96,-17.5 305.96,-24.5"/>
</g>
<!-- Node3 -->
<g id="node3" class="node">
<title>Node3</title>
<g id="a_node3"><a xlink:href="group__zpc__attribute__store.html#ga1f08b0b6d9756d2620808216f0961a54" target="_top" xlink:title="Initialize attribute store specifically for ZPC.">
<polygon fill="none" stroke="black" points="0,-11.5 0,-30.5 118,-30.5 118,-11.5 0,-11.5"/>
<text text-anchor="middle" x="59" y="-18.5" font-family="Helvetica,sans-Serif" font-size="10.00">zpc_attribute_store_init</text>
</a>
</g>
</g>
<!-- Node2&#45;&gt;Node3 -->
<g id="edge2" class="edge">
<title>Node2&#45;&gt;Node3</title>
<path fill="none" stroke="midnightblue" d="M143.84,-21C135.21,-21 126.48,-21 118.09,-21"/>
<polygon fill="midnightblue" stroke="midnightblue" points="143.9,-24.5 153.9,-21 143.9,-17.5 143.9,-24.5"/>
</g>
</g>
</svg>
