<?xml version="1.0" encoding="UTF-8" standalone="no"?>
<!DOCTYPE svg PUBLIC "-//W3C//DTD SVG 1.1//EN"
 "http://www.w3.org/Graphics/SVG/1.1/DTD/svg11.dtd">
<!-- Generated by graphviz version 2.43.0 (0)
 -->
<!-- Title: applications/zpc/components/zpc_utils/include/zpc_converters.h Pages: 1 -->
<svg width="775pt" height="207pt"
 viewBox="0.00 0.00 775.00 207.00" xmlns="http://www.w3.org/2000/svg" xmlns:xlink="http://www.w3.org/1999/xlink">
<g id="graph0" class="graph" transform="scale(1 1) rotate(0) translate(4 203)">
<title>applications/zpc/components/zpc_utils/include/zpc_converters.h</title>
<!-- Node1 -->
<g id="node1" class="node">
<title>Node1</title>
<g id="a_node1"><a xlink:title=" ">
<polygon fill="#bfbfbf" stroke="black" points="458.5,-168.5 458.5,-198.5 628.5,-198.5 628.5,-168.5 458.5,-168.5"/>
<text text-anchor="start" x="466.5" y="-186.5" font-family="Helvetica,sans-Serif" font-size="10.00">applications/zpc/components</text>
<text text-anchor="middle" x="543.5" y="-175.5" font-family="Helvetica,sans-Serif" font-size="10.00">/zpc_utils/include/zpc_converters.h</text>
</a>
</g>
</g>
<!-- Node2 -->
<g id="node2" class="node">
<title>Node2</title>
<g id="a_node2"><a xlink:href="sl__status_8h.html" target="_top" xlink:title="SL Status Codes.">
<polygon fill="none" stroke="black" points="0,-56.5 0,-75.5 65,-75.5 65,-56.5 0,-56.5"/>
<text text-anchor="middle" x="32.5" y="-63.5" font-family="Helvetica,sans-Serif" font-size="10.00">sl_status.h</text>
</a>
</g>
</g>
<!-- Node1&#45;&gt;Node2 -->
<g id="edge1" class="edge">
<title>Node1&#45;&gt;Node2</title>
<path fill="none" stroke="midnightblue" d="M458.38,-181.4C342.38,-178.53 141.94,-168.3 79.5,-132 61.11,-121.31 47.93,-100.23 40.29,-84.97"/>
<polygon fill="midnightblue" stroke="midnightblue" points="43.29,-83.12 35.9,-75.54 36.95,-86.08 43.29,-83.12"/>
</g>
<!-- Node3 -->
<g id="node3" class="node">
<title>Node3</title>
<g id="a_node3"><a xlink:title=" ">
<polygon fill="none" stroke="#bfbfbf" points="107,-0.5 107,-19.5 156,-19.5 156,-0.5 107,-0.5"/>
<text text-anchor="middle" x="131.5" y="-7.5" font-family="Helvetica,sans-Serif" font-size="10.00">stdint.h</text>
</a>
</g>
</g>
<!-- Node1&#45;&gt;Node3 -->
<g id="edge12" class="edge">
<title>Node1&#45;&gt;Node3</title>
<path fill="none" stroke="midnightblue" d="M458.25,-172.18C350.7,-157.24 174.87,-125.81 134.5,-76 124.17,-63.26 124.59,-44.06 126.89,-29.83"/>
<polygon fill="midnightblue" stroke="midnightblue" points="130.39,-30.2 128.97,-19.7 123.53,-28.79 130.39,-30.2"/>
</g>
<!-- Node4 -->
<g id="node4" class="node">
<title>Node4</title>
<g id="a_node4"><a xlink:href="zwave__controller__types_8h.html" target="_top" xlink:title=" ">
<polygon fill="none" stroke="black" points="359.5,-112.5 359.5,-131.5 487.5,-131.5 487.5,-112.5 359.5,-112.5"/>
<text text-anchor="middle" x="423.5" y="-119.5" font-family="Helvetica,sans-Serif" font-size="10.00">zwave_controller_types.h</text>
</a>
</g>
</g>
<!-- Node1&#45;&gt;Node4 -->
<g id="edge3" class="edge">
<title>Node1&#45;&gt;Node4</title>
<path fill="none" stroke="midnightblue" d="M515.06,-168.4C495.38,-158.64 469.36,-145.74 450.09,-136.18"/>
<polygon fill="midnightblue" stroke="midnightblue" points="451.48,-132.96 440.96,-131.66 448.37,-139.24 451.48,-132.96"/>
</g>
<!-- Node5 -->
<g id="node5" class="node">
<title>Node5</title>
<g id="a_node5"><a xlink:title=" ">
<polygon fill="none" stroke="#bfbfbf" points="515.5,-0.5 515.5,-19.5 571.5,-19.5 571.5,-0.5 515.5,-0.5"/>
<text text-anchor="middle" x="543.5" y="-7.5" font-family="Helvetica,sans-Serif" font-size="10.00">stdbool.h</text>
</a>
</g>
</g>
<!-- Node1&#45;&gt;Node5 -->
<g id="edge13" class="edge">
<title>Node1&#45;&gt;Node5</title>
<path fill="none" stroke="midnightblue" d="M554.09,-168.29C567.95,-148.71 591.52,-111.8 600.5,-76 602.66,-67.38 604.38,-64 600.5,-56 594.1,-42.8 581.75,-32.3 570.17,-24.78"/>
<polygon fill="midnightblue" stroke="midnightblue" points="571.95,-21.77 561.58,-19.61 568.34,-27.77 571.95,-21.77"/>
</g>
<!-- Node9 -->
<g id="node9" class="node">
<title>Node9</title>
<g id="a_node9"><a xlink:title=" ">
<polygon fill="none" stroke="#bfbfbf" points="647.5,-112.5 647.5,-131.5 699.5,-131.5 699.5,-112.5 647.5,-112.5"/>
<text text-anchor="middle" x="673.5" y="-119.5" font-family="Helvetica,sans-Serif" font-size="10.00">stddef.h</text>
</a>
</g>
</g>
<!-- Node1&#45;&gt;Node9 -->
<g id="edge14" class="edge">
<title>Node1&#45;&gt;Node9</title>
<path fill="none" stroke="midnightblue" d="M574.31,-168.4C595.83,-158.55 624.34,-145.5 645.27,-135.92"/>
<polygon fill="midnightblue" stroke="midnightblue" points="646.95,-139 654.58,-131.66 644.03,-132.64 646.95,-139"/>
</g>
<!-- Node10 -->
<g id="node10" class="node">
<title>Node10</title>
<g id="a_node10"><a xlink:title=" ">
<polygon fill="none" stroke="#bfbfbf" points="718,-112.5 718,-131.5 767,-131.5 767,-112.5 718,-112.5"/>
<text text-anchor="middle" x="742.5" y="-119.5" font-family="Helvetica,sans-Serif" font-size="10.00">string.h</text>
</a>
</g>
</g>
<!-- Node1&#45;&gt;Node10 -->
<g id="edge15" class="edge">
<title>Node1&#45;&gt;Node10</title>
<path fill="none" stroke="midnightblue" d="M590.41,-168.47C626.49,-157.69 675.52,-143.03 708.05,-133.3"/>
<polygon fill="midnightblue" stroke="midnightblue" points="709.41,-136.55 717.99,-130.33 707.41,-129.84 709.41,-136.55"/>
</g>
<!-- Node2&#45;&gt;Node3 -->
<g id="edge2" class="edge">
<title>Node2&#45;&gt;Node3</title>
<path fill="none" stroke="midnightblue" d="M48.41,-56.32C64.14,-47.74 88.44,-34.49 106.71,-24.52"/>
<polygon fill="midnightblue" stroke="midnightblue" points="108.53,-27.52 115.63,-19.65 105.18,-21.37 108.53,-27.52"/>
</g>
<!-- Node4&#45;&gt;Node3 -->
<g id="edge5" class="edge">
<title>Node4&#45;&gt;Node3</title>
<path fill="none" stroke="midnightblue" d="M359.29,-118.17C288.52,-113.74 180.66,-102.71 150.5,-76 137.46,-64.45 133.15,-44.48 131.83,-29.72"/>
<polygon fill="midnightblue" stroke="midnightblue" points="135.32,-29.48 131.31,-19.67 128.33,-29.84 135.32,-29.48"/>
</g>
<!-- Node4&#45;&gt;Node5 -->
<g id="edge4" class="edge">
<title>Node4&#45;&gt;Node5</title>
<path fill="none" stroke="midnightblue" d="M431.31,-112.23C442.89,-99.39 465.51,-74.96 486.5,-56 498.31,-45.33 512.34,-34.24 523.52,-25.74"/>
<polygon fill="midnightblue" stroke="midnightblue" points="525.89,-28.34 531.78,-19.53 521.68,-22.74 525.89,-28.34"/>
</g>
<!-- Node6 -->
<g id="node6" class="node">
<title>Node6</title>
<g id="a_node6"><a xlink:href="zwave__node__id__definitions_8h.html" target="_top" xlink:title=" ">
<polygon fill="none" stroke="black" points="159.5,-56.5 159.5,-75.5 301.5,-75.5 301.5,-56.5 159.5,-56.5"/>
<text text-anchor="middle" x="230.5" y="-63.5" font-family="Helvetica,sans-Serif" font-size="10.00">zwave_node_id_definitions.h</text>
</a>
</g>
</g>
<!-- Node4&#45;&gt;Node6 -->
<g id="edge6" class="edge">
<title>Node4&#45;&gt;Node6</title>
<path fill="none" stroke="midnightblue" d="M392.92,-112.44C359.89,-103.2 307.11,-88.44 270.73,-78.26"/>
<polygon fill="midnightblue" stroke="midnightblue" points="271.51,-74.84 260.94,-75.52 269.63,-81.58 271.51,-74.84"/>
</g>
<!-- Node7 -->
<g id="node7" class="node">
<title>Node7</title>
<g id="a_node7"><a xlink:href="zwave__generic__types_8h.html" target="_top" xlink:title=" ">
<polygon fill="none" stroke="black" points="320,-56.5 320,-75.5 439,-75.5 439,-56.5 320,-56.5"/>
<text text-anchor="middle" x="379.5" y="-63.5" font-family="Helvetica,sans-Serif" font-size="10.00">zwave_generic_types.h</text>
</a>
</g>
</g>
<!-- Node4&#45;&gt;Node7 -->
<g id="edge8" class="edge">
<title>Node4&#45;&gt;Node7</title>
<path fill="none" stroke="midnightblue" d="M416.23,-112.08C409.96,-104.38 400.71,-93.03 393.07,-83.65"/>
<polygon fill="midnightblue" stroke="midnightblue" points="395.66,-81.29 386.63,-75.75 390.23,-85.71 395.66,-81.29"/>
</g>
<!-- Node8 -->
<g id="node8" class="node">
<title>Node8</title>
<g id="a_node8"><a xlink:href="zwave__rf__region_8h.html" target="_top" xlink:title=" ">
<polygon fill="none" stroke="black" points="495.5,-56.5 495.5,-75.5 591.5,-75.5 591.5,-56.5 495.5,-56.5"/>
<text text-anchor="middle" x="543.5" y="-63.5" font-family="Helvetica,sans-Serif" font-size="10.00">zwave_rf_region.h</text>
</a>
</g>
</g>
<!-- Node4&#45;&gt;Node8 -->
<g id="edge10" class="edge">
<title>Node4&#45;&gt;Node8</title>
<path fill="none" stroke="midnightblue" d="M442.51,-112.44C462.09,-103.64 492.81,-89.81 515.23,-79.72"/>
<polygon fill="midnightblue" stroke="midnightblue" points="516.89,-82.81 524.57,-75.52 514.02,-76.43 516.89,-82.81"/>
</g>
<!-- Node6&#45;&gt;Node3 -->
<g id="edge7" class="edge">
<title>Node6&#45;&gt;Node3</title>
<path fill="none" stroke="midnightblue" d="M214.59,-56.32C198.86,-47.74 174.56,-34.49 156.29,-24.52"/>
<polygon fill="midnightblue" stroke="midnightblue" points="157.82,-21.37 147.37,-19.65 154.47,-27.52 157.82,-21.37"/>
</g>
<!-- Node7&#45;&gt;Node3 -->
<g id="edge9" class="edge">
<title>Node7&#45;&gt;Node3</title>
<path fill="none" stroke="midnightblue" d="M340.2,-56.44C292.31,-46.01 212.11,-28.55 166.33,-18.58"/>
<polygon fill="midnightblue" stroke="midnightblue" points="166.81,-15.11 156.29,-16.4 165.32,-21.95 166.81,-15.11"/>
</g>
<!-- Node8&#45;&gt;Node5 -->
<g id="edge11" class="edge">
<title>Node8&#45;&gt;Node5</title>
<path fill="none" stroke="midnightblue" d="M543.5,-56.08C543.5,-49.01 543.5,-38.86 543.5,-29.99"/>
<polygon fill="midnightblue" stroke="midnightblue" points="547,-29.75 543.5,-19.75 540,-29.75 547,-29.75"/>
</g>
</g>
</svg>
