<?xml version="1.0" encoding="UTF-8" standalone="no"?>
<!DOCTYPE svg PUBLIC "-//W3C//DTD SVG 1.1//EN"
 "http://www.w3.org/Graphics/SVG/1.1/DTD/svg11.dtd">
<!-- Generated by graphviz version 2.43.0 (0)
 -->
<!-- Title: applications/zpc/components/zpc_utils/src/zpc_converters.c Pages: 1 -->
<svg width="1002pt" height="263pt"
 viewBox="0.00 0.00 1001.50 263.00" xmlns="http://www.w3.org/2000/svg" xmlns:xlink="http://www.w3.org/1999/xlink">
<g id="graph0" class="graph" transform="scale(1 1) rotate(0) translate(4 259)">
<title>applications/zpc/components/zpc_utils/src/zpc_converters.c</title>
<!-- Node1 -->
<g id="node1" class="node">
<title>Node1</title>
<g id="a_node1"><a xlink:title=" ">
<polygon fill="#bfbfbf" stroke="black" points="727,-224.5 727,-254.5 880,-254.5 880,-224.5 727,-224.5"/>
<text text-anchor="start" x="735" y="-242.5" font-family="Helvetica,sans-Serif" font-size="10.00">applications/zpc/components</text>
<text text-anchor="middle" x="803.5" y="-231.5" font-family="Helvetica,sans-Serif" font-size="10.00">/zpc_utils/src/zpc_converters.c</text>
</a>
</g>
</g>
<!-- Node2 -->
<g id="node2" class="node">
<title>Node2</title>
<g id="a_node2"><a xlink:href="zpc__converters_8h.html" target="_top" xlink:title=" ">
<polygon fill="none" stroke="black" points="573.5,-168.5 573.5,-187.5 665.5,-187.5 665.5,-168.5 573.5,-168.5"/>
<text text-anchor="middle" x="619.5" y="-175.5" font-family="Helvetica,sans-Serif" font-size="10.00">zpc_converters.h</text>
</a>
</g>
</g>
<!-- Node1&#45;&gt;Node2 -->
<g id="edge1" class="edge">
<title>Node1&#45;&gt;Node2</title>
<path fill="none" stroke="midnightblue" d="M759.89,-224.4C728.1,-214.12 685.53,-200.35 655.63,-190.68"/>
<polygon fill="midnightblue" stroke="midnightblue" points="656.6,-187.32 646.01,-187.57 654.44,-193.98 656.6,-187.32"/>
</g>
<!-- Node11 -->
<g id="node11" class="node">
<title>Node11</title>
<g id="a_node11"><a xlink:title=" ">
<polygon fill="none" stroke="#bfbfbf" points="718,-112.5 718,-131.5 767,-131.5 767,-112.5 718,-112.5"/>
<text text-anchor="middle" x="742.5" y="-119.5" font-family="Helvetica,sans-Serif" font-size="10.00">string.h</text>
</a>
</g>
</g>
<!-- Node1&#45;&gt;Node11 -->
<g id="edge19" class="edge">
<title>Node1&#45;&gt;Node11</title>
<path fill="none" stroke="midnightblue" d="M773.81,-224.34C759.76,-215.92 744.36,-203.77 736.5,-188 729.24,-173.43 732.01,-154.76 735.85,-141.16"/>
<polygon fill="midnightblue" stroke="midnightblue" points="739.22,-142.12 738.98,-131.53 732.56,-139.96 739.22,-142.12"/>
</g>
<!-- Node12 -->
<g id="node12" class="node">
<title>Node12</title>
<g id="a_node12"><a xlink:title=" ">
<polygon fill="none" stroke="#bfbfbf" points="745.5,-168.5 745.5,-187.5 793.5,-187.5 793.5,-168.5 745.5,-168.5"/>
<text text-anchor="middle" x="769.5" y="-175.5" font-family="Helvetica,sans-Serif" font-size="10.00">stdlib.h</text>
</a>
</g>
</g>
<!-- Node1&#45;&gt;Node12 -->
<g id="edge17" class="edge">
<title>Node1&#45;&gt;Node12</title>
<path fill="none" stroke="midnightblue" d="M795.44,-224.4C790.65,-216.02 784.54,-205.33 779.46,-196.42"/>
<polygon fill="midnightblue" stroke="midnightblue" points="782.45,-194.6 774.45,-187.66 776.37,-198.08 782.45,-194.6"/>
</g>
<!-- Node13 -->
<g id="node13" class="node">
<title>Node13</title>
<g id="a_node13"><a xlink:title=" ">
<polygon fill="none" stroke="#bfbfbf" points="811.5,-168.5 811.5,-187.5 863.5,-187.5 863.5,-168.5 811.5,-168.5"/>
<text text-anchor="middle" x="837.5" y="-175.5" font-family="Helvetica,sans-Serif" font-size="10.00">assert.h</text>
</a>
</g>
</g>
<!-- Node1&#45;&gt;Node13 -->
<g id="edge18" class="edge">
<title>Node1&#45;&gt;Node13</title>
<path fill="none" stroke="midnightblue" d="M811.56,-224.4C816.35,-216.02 822.46,-205.33 827.54,-196.42"/>
<polygon fill="midnightblue" stroke="midnightblue" points="830.63,-198.08 832.55,-187.66 824.55,-194.6 830.63,-198.08"/>
</g>
<!-- Node14 -->
<g id="node14" class="node">
<title>Node14</title>
<g id="a_node14"><a xlink:title=" ">
<polygon fill="none" stroke="#bfbfbf" points="882,-168.5 882,-187.5 929,-187.5 929,-168.5 882,-168.5"/>
<text text-anchor="middle" x="905.5" y="-175.5" font-family="Helvetica,sans-Serif" font-size="10.00">errno.h</text>
</a>
</g>
</g>
<!-- Node1&#45;&gt;Node14 -->
<g id="edge20" class="edge">
<title>Node1&#45;&gt;Node14</title>
<path fill="none" stroke="midnightblue" d="M827.67,-224.4C844.02,-214.86 865.51,-202.32 881.77,-192.84"/>
<polygon fill="midnightblue" stroke="midnightblue" points="883.78,-195.72 890.66,-187.66 880.26,-189.67 883.78,-195.72"/>
</g>
<!-- Node15 -->
<g id="node15" class="node">
<title>Node15</title>
<g id="a_node15"><a xlink:title=" ">
<polygon fill="none" stroke="#bfbfbf" points="947.5,-168.5 947.5,-187.5 993.5,-187.5 993.5,-168.5 947.5,-168.5"/>
<text text-anchor="middle" x="970.5" y="-175.5" font-family="Helvetica,sans-Serif" font-size="10.00">stdio.h</text>
</a>
</g>
</g>
<!-- Node1&#45;&gt;Node15 -->
<g id="edge21" class="edge">
<title>Node1&#45;&gt;Node15</title>
<path fill="none" stroke="midnightblue" d="M843.08,-224.4C871.94,-214.12 910.59,-200.34 937.73,-190.68"/>
<polygon fill="midnightblue" stroke="midnightblue" points="938.92,-193.97 947.17,-187.31 936.57,-187.37 938.92,-193.97"/>
</g>
<!-- Node3 -->
<g id="node3" class="node">
<title>Node3</title>
<g id="a_node3"><a xlink:href="sl__status_8h.html" target="_top" xlink:title="SL Status Codes.">
<polygon fill="none" stroke="black" points="0,-56.5 0,-75.5 65,-75.5 65,-56.5 0,-56.5"/>
<text text-anchor="middle" x="32.5" y="-63.5" font-family="Helvetica,sans-Serif" font-size="10.00">sl_status.h</text>
</a>
</g>
</g>
<!-- Node2&#45;&gt;Node3 -->
<g id="edge2" class="edge">
<title>Node2&#45;&gt;Node3</title>
<path fill="none" stroke="midnightblue" d="M573.27,-175.35C450.37,-170.65 122,-155.99 79.5,-132 60.98,-121.54 47.82,-100.42 40.23,-85.09"/>
<polygon fill="midnightblue" stroke="midnightblue" points="43.22,-83.22 35.86,-75.6 36.86,-86.15 43.22,-83.22"/>
</g>
<!-- Node4 -->
<g id="node4" class="node">
<title>Node4</title>
<g id="a_node4"><a xlink:title=" ">
<polygon fill="none" stroke="#bfbfbf" points="107,-0.5 107,-19.5 156,-19.5 156,-0.5 107,-0.5"/>
<text text-anchor="middle" x="131.5" y="-7.5" font-family="Helvetica,sans-Serif" font-size="10.00">stdint.h</text>
</a>
</g>
</g>
<!-- Node2&#45;&gt;Node4 -->
<g id="edge13" class="edge">
<title>Node2&#45;&gt;Node4</title>
<path fill="none" stroke="midnightblue" d="M573.22,-174.55C462.91,-167.64 189.57,-143.87 134.5,-76 124.17,-63.26 124.59,-44.07 126.89,-29.83"/>
<polygon fill="midnightblue" stroke="midnightblue" points="130.39,-30.2 128.97,-19.7 123.53,-28.79 130.39,-30.2"/>
</g>
<!-- Node5 -->
<g id="node5" class="node">
<title>Node5</title>
<g id="a_node5"><a xlink:href="zwave__controller__types_8h.html" target="_top" xlink:title=" ">
<polygon fill="none" stroke="black" points="359.5,-112.5 359.5,-131.5 487.5,-131.5 487.5,-112.5 359.5,-112.5"/>
<text text-anchor="middle" x="423.5" y="-119.5" font-family="Helvetica,sans-Serif" font-size="10.00">zwave_controller_types.h</text>
</a>
</g>
</g>
<!-- Node2&#45;&gt;Node5 -->
<g id="edge4" class="edge">
<title>Node2&#45;&gt;Node5</title>
<path fill="none" stroke="midnightblue" d="M588.44,-168.44C554.9,-159.2 501.3,-144.44 464.36,-134.26"/>
<polygon fill="midnightblue" stroke="midnightblue" points="464.98,-130.8 454.41,-131.52 463.12,-137.55 464.98,-130.8"/>
</g>
<!-- Node6 -->
<g id="node6" class="node">
<title>Node6</title>
<g id="a_node6"><a xlink:title=" ">
<polygon fill="none" stroke="#bfbfbf" points="515.5,-0.5 515.5,-19.5 571.5,-19.5 571.5,-0.5 515.5,-0.5"/>
<text text-anchor="middle" x="543.5" y="-7.5" font-family="Helvetica,sans-Serif" font-size="10.00">stdbool.h</text>
</a>
</g>
</g>
<!-- Node2&#45;&gt;Node6 -->
<g id="edge14" class="edge">
<title>Node2&#45;&gt;Node6</title>
<path fill="none" stroke="midnightblue" d="M620.2,-168.38C621.47,-147.51 622.29,-93.26 600.5,-56 593.02,-43.2 580.39,-32.67 568.91,-25.02"/>
<polygon fill="midnightblue" stroke="midnightblue" points="570.42,-21.83 560.08,-19.51 566.71,-27.77 570.42,-21.83"/>
</g>
<!-- Node10 -->
<g id="node10" class="node">
<title>Node10</title>
<g id="a_node10"><a xlink:title=" ">
<polygon fill="none" stroke="#bfbfbf" points="647.5,-112.5 647.5,-131.5 699.5,-131.5 699.5,-112.5 647.5,-112.5"/>
<text text-anchor="middle" x="673.5" y="-119.5" font-family="Helvetica,sans-Serif" font-size="10.00">stddef.h</text>
</a>
</g>
</g>
<!-- Node2&#45;&gt;Node10 -->
<g id="edge15" class="edge">
<title>Node2&#45;&gt;Node10</title>
<path fill="none" stroke="midnightblue" d="M628.42,-168.08C636.28,-160.22 647.93,-148.57 657.42,-139.08"/>
<polygon fill="midnightblue" stroke="midnightblue" points="660.15,-141.3 664.75,-131.75 655.2,-136.35 660.15,-141.3"/>
</g>
<!-- Node2&#45;&gt;Node11 -->
<g id="edge16" class="edge">
<title>Node2&#45;&gt;Node11</title>
<path fill="none" stroke="midnightblue" d="M638.99,-168.44C659.14,-159.6 690.82,-145.69 713.83,-135.59"/>
<polygon fill="midnightblue" stroke="midnightblue" points="715.35,-138.74 723.1,-131.52 712.54,-132.33 715.35,-138.74"/>
</g>
<!-- Node3&#45;&gt;Node4 -->
<g id="edge3" class="edge">
<title>Node3&#45;&gt;Node4</title>
<path fill="none" stroke="midnightblue" d="M48.41,-56.32C64.14,-47.74 88.44,-34.49 106.71,-24.52"/>
<polygon fill="midnightblue" stroke="midnightblue" points="108.53,-27.52 115.63,-19.65 105.18,-21.37 108.53,-27.52"/>
</g>
<!-- Node5&#45;&gt;Node4 -->
<g id="edge6" class="edge">
<title>Node5&#45;&gt;Node4</title>
<path fill="none" stroke="midnightblue" d="M359.29,-118.17C288.52,-113.74 180.66,-102.71 150.5,-76 137.46,-64.45 133.15,-44.48 131.83,-29.72"/>
<polygon fill="midnightblue" stroke="midnightblue" points="135.32,-29.48 131.31,-19.67 128.33,-29.84 135.32,-29.48"/>
</g>
<!-- Node5&#45;&gt;Node6 -->
<g id="edge5" class="edge">
<title>Node5&#45;&gt;Node6</title>
<path fill="none" stroke="midnightblue" d="M431.31,-112.23C442.89,-99.39 465.51,-74.96 486.5,-56 498.31,-45.33 512.34,-34.24 523.52,-25.74"/>
<polygon fill="midnightblue" stroke="midnightblue" points="525.89,-28.34 531.78,-19.53 521.68,-22.74 525.89,-28.34"/>
</g>
<!-- Node7 -->
<g id="node7" class="node">
<title>Node7</title>
<g id="a_node7"><a xlink:href="zwave__node__id__definitions_8h.html" target="_top" xlink:title=" ">
<polygon fill="none" stroke="black" points="159.5,-56.5 159.5,-75.5 301.5,-75.5 301.5,-56.5 159.5,-56.5"/>
<text text-anchor="middle" x="230.5" y="-63.5" font-family="Helvetica,sans-Serif" font-size="10.00">zwave_node_id_definitions.h</text>
</a>
</g>
</g>
<!-- Node5&#45;&gt;Node7 -->
<g id="edge7" class="edge">
<title>Node5&#45;&gt;Node7</title>
<path fill="none" stroke="midnightblue" d="M392.92,-112.44C359.89,-103.2 307.11,-88.44 270.73,-78.26"/>
<polygon fill="midnightblue" stroke="midnightblue" points="271.51,-74.84 260.94,-75.52 269.63,-81.58 271.51,-74.84"/>
</g>
<!-- Node8 -->
<g id="node8" class="node">
<title>Node8</title>
<g id="a_node8"><a xlink:href="zwave__generic__types_8h.html" target="_top" xlink:title=" ">
<polygon fill="none" stroke="black" points="320,-56.5 320,-75.5 439,-75.5 439,-56.5 320,-56.5"/>
<text text-anchor="middle" x="379.5" y="-63.5" font-family="Helvetica,sans-Serif" font-size="10.00">zwave_generic_types.h</text>
</a>
</g>
</g>
<!-- Node5&#45;&gt;Node8 -->
<g id="edge9" class="edge">
<title>Node5&#45;&gt;Node8</title>
<path fill="none" stroke="midnightblue" d="M416.23,-112.08C409.96,-104.38 400.71,-93.03 393.07,-83.65"/>
<polygon fill="midnightblue" stroke="midnightblue" points="395.66,-81.29 386.63,-75.75 390.23,-85.71 395.66,-81.29"/>
</g>
<!-- Node9 -->
<g id="node9" class="node">
<title>Node9</title>
<g id="a_node9"><a xlink:href="zwave__rf__region_8h.html" target="_top" xlink:title=" ">
<polygon fill="none" stroke="black" points="495.5,-56.5 495.5,-75.5 591.5,-75.5 591.5,-56.5 495.5,-56.5"/>
<text text-anchor="middle" x="543.5" y="-63.5" font-family="Helvetica,sans-Serif" font-size="10.00">zwave_rf_region.h</text>
</a>
</g>
</g>
<!-- Node5&#45;&gt;Node9 -->
<g id="edge11" class="edge">
<title>Node5&#45;&gt;Node9</title>
<path fill="none" stroke="midnightblue" d="M442.51,-112.44C462.09,-103.64 492.81,-89.81 515.23,-79.72"/>
<polygon fill="midnightblue" stroke="midnightblue" points="516.89,-82.81 524.57,-75.52 514.02,-76.43 516.89,-82.81"/>
</g>
<!-- Node7&#45;&gt;Node4 -->
<g id="edge8" class="edge">
<title>Node7&#45;&gt;Node4</title>
<path fill="none" stroke="midnightblue" d="M214.59,-56.32C198.86,-47.74 174.56,-34.49 156.29,-24.52"/>
<polygon fill="midnightblue" stroke="midnightblue" points="157.82,-21.37 147.37,-19.65 154.47,-27.52 157.82,-21.37"/>
</g>
<!-- Node8&#45;&gt;Node4 -->
<g id="edge10" class="edge">
<title>Node8&#45;&gt;Node4</title>
<path fill="none" stroke="midnightblue" d="M340.2,-56.44C292.31,-46.01 212.11,-28.55 166.33,-18.58"/>
<polygon fill="midnightblue" stroke="midnightblue" points="166.81,-15.11 156.29,-16.4 165.32,-21.95 166.81,-15.11"/>
</g>
<!-- Node9&#45;&gt;Node6 -->
<g id="edge12" class="edge">
<title>Node9&#45;&gt;Node6</title>
<path fill="none" stroke="midnightblue" d="M543.5,-56.08C543.5,-49.01 543.5,-38.86 543.5,-29.99"/>
<polygon fill="midnightblue" stroke="midnightblue" points="547,-29.75 543.5,-19.75 540,-29.75 547,-29.75"/>
</g>
</g>
</svg>
