<?xml version="1.0" encoding="UTF-8" standalone="no"?>
<!DOCTYPE svg PUBLIC "-//W3C//DTD SVG 1.1//EN"
 "http://www.w3.org/Graphics/SVG/1.1/DTD/svg11.dtd">
<!-- Generated by graphviz version 2.43.0 (0)
 -->
<!-- Title: applications/zpc/components/zpc_dotdot_mqtt/src/zpc_dotdot_mqtt.c Pages: 1 -->
<svg width="339pt" height="229pt"
 viewBox="0.00 0.00 338.50 229.00" xmlns="http://www.w3.org/2000/svg" xmlns:xlink="http://www.w3.org/1999/xlink">
<g id="graph0" class="graph" transform="scale(1 1) rotate(0) translate(4 225)">
<title>applications/zpc/components/zpc_dotdot_mqtt/src/zpc_dotdot_mqtt.c</title>
<!-- Node1 -->
<g id="node1" class="node">
<title>Node1</title>
<g id="a_node1"><a xlink:title=" ">
<polygon fill="#bfbfbf" stroke="black" points="104.5,-179.5 104.5,-220.5 247.5,-220.5 247.5,-179.5 104.5,-179.5"/>
<text text-anchor="start" x="112.5" y="-208.5" font-family="Helvetica,sans-Serif" font-size="10.00">applications/zpc/components</text>
<text text-anchor="start" x="112.5" y="-197.5" font-family="Helvetica,sans-Serif" font-size="10.00">/zpc_dotdot_mqtt/src/zpc</text>
<text text-anchor="middle" x="176" y="-186.5" font-family="Helvetica,sans-Serif" font-size="10.00">_dotdot_mqtt.c</text>
</a>
</g>
</g>
<!-- Node2 -->
<g id="node2" class="node">
<title>Node2</title>
<g id="a_node2"><a xlink:href="zpc__dotdot__mqtt_8h.html" target="_top" xlink:title=" ">
<polygon fill="none" stroke="black" points="0,-118 0,-137 98,-137 98,-118 0,-118"/>
<text text-anchor="middle" x="49" y="-125" font-family="Helvetica,sans-Serif" font-size="10.00">zpc_dotdot_mqtt.h</text>
</a>
</g>
</g>
<!-- Node1&#45;&gt;Node2 -->
<g id="edge1" class="edge">
<title>Node1&#45;&gt;Node2</title>
<path fill="none" stroke="midnightblue" d="M140.62,-179.36C119.28,-167.51 92.61,-152.71 73.57,-142.14"/>
<polygon fill="midnightblue" stroke="midnightblue" points="75.07,-138.97 64.62,-137.17 71.67,-145.09 75.07,-138.97"/>
</g>
<!-- Node5 -->
<g id="node5" class="node">
<title>Node5</title>
<g id="a_node5"><a xlink:href="zpc__dotdot__mqtt__group__dispatch_8h.html" target="_top" xlink:title=" ">
<polygon fill="none" stroke="black" points="116.5,-112.5 116.5,-142.5 235.5,-142.5 235.5,-112.5 116.5,-112.5"/>
<text text-anchor="start" x="124.5" y="-130.5" font-family="Helvetica,sans-Serif" font-size="10.00">zpc_dotdot_mqtt_group</text>
<text text-anchor="middle" x="176" y="-119.5" font-family="Helvetica,sans-Serif" font-size="10.00">_dispatch.h</text>
</a>
</g>
</g>
<!-- Node1&#45;&gt;Node5 -->
<g id="edge4" class="edge">
<title>Node1&#45;&gt;Node5</title>
<path fill="none" stroke="midnightblue" d="M176,-179.36C176,-171.23 176,-161.7 176,-153.11"/>
<polygon fill="midnightblue" stroke="midnightblue" points="179.5,-152.89 176,-142.89 172.5,-152.89 179.5,-152.89"/>
</g>
<!-- Node7 -->
<g id="node7" class="node">
<title>Node7</title>
<g id="a_node7"><a xlink:title=" ">
<polygon fill="none" stroke="#bfbfbf" points="253.5,-118 253.5,-137 330.5,-137 330.5,-118 253.5,-118"/>
<text text-anchor="middle" x="292" y="-125" font-family="Helvetica,sans-Serif" font-size="10.00">dotdot_mqtt.h</text>
</a>
</g>
</g>
<!-- Node1&#45;&gt;Node7 -->
<g id="edge6" class="edge">
<title>Node1&#45;&gt;Node7</title>
<path fill="none" stroke="midnightblue" d="M208.31,-179.36C227.54,-167.67 251.5,-153.12 268.84,-142.57"/>
<polygon fill="midnightblue" stroke="midnightblue" points="271,-145.36 277.73,-137.17 267.37,-139.38 271,-145.36"/>
</g>
<!-- Node3 -->
<g id="node3" class="node">
<title>Node3</title>
<g id="a_node3"><a xlink:href="sl__status_8h.html" target="_top" xlink:title="SL Status Codes.">
<polygon fill="none" stroke="black" points="16.5,-56.5 16.5,-75.5 81.5,-75.5 81.5,-56.5 16.5,-56.5"/>
<text text-anchor="middle" x="49" y="-63.5" font-family="Helvetica,sans-Serif" font-size="10.00">sl_status.h</text>
</a>
</g>
</g>
<!-- Node2&#45;&gt;Node3 -->
<g id="edge2" class="edge">
<title>Node2&#45;&gt;Node3</title>
<path fill="none" stroke="midnightblue" d="M49,-117.98C49,-109.58 49,-96.48 49,-85.66"/>
<polygon fill="midnightblue" stroke="midnightblue" points="52.5,-85.51 49,-75.51 45.5,-85.51 52.5,-85.51"/>
</g>
<!-- Node4 -->
<g id="node4" class="node">
<title>Node4</title>
<g id="a_node4"><a xlink:title=" ">
<polygon fill="none" stroke="#bfbfbf" points="24.5,-0.5 24.5,-19.5 73.5,-19.5 73.5,-0.5 24.5,-0.5"/>
<text text-anchor="middle" x="49" y="-7.5" font-family="Helvetica,sans-Serif" font-size="10.00">stdint.h</text>
</a>
</g>
</g>
<!-- Node3&#45;&gt;Node4 -->
<g id="edge3" class="edge">
<title>Node3&#45;&gt;Node4</title>
<path fill="none" stroke="midnightblue" d="M49,-56.08C49,-49.01 49,-38.86 49,-29.99"/>
<polygon fill="midnightblue" stroke="midnightblue" points="52.5,-29.75 49,-19.75 45.5,-29.75 52.5,-29.75"/>
</g>
<!-- Node6 -->
<g id="node6" class="node">
<title>Node6</title>
<g id="a_node6"><a xlink:title=" ">
<polygon fill="none" stroke="#bfbfbf" points="145,-56.5 145,-75.5 207,-75.5 207,-56.5 145,-56.5"/>
<text text-anchor="middle" x="176" y="-63.5" font-family="Helvetica,sans-Serif" font-size="10.00">uic_mqtt.h</text>
</a>
</g>
</g>
<!-- Node5&#45;&gt;Node6 -->
<g id="edge5" class="edge">
<title>Node5&#45;&gt;Node6</title>
<path fill="none" stroke="midnightblue" d="M176,-112.4C176,-104.47 176,-94.46 176,-85.86"/>
<polygon fill="midnightblue" stroke="midnightblue" points="179.5,-85.66 176,-75.66 172.5,-85.66 179.5,-85.66"/>
</g>
</g>
</svg>
