<?xml version="1.0" encoding="UTF-8" standalone="no"?>
<!DOCTYPE svg PUBLIC "-//W3C//DTD SVG 1.1//EN"
 "http://www.w3.org/Graphics/SVG/1.1/DTD/svg11.dtd">
<!-- Generated by graphviz version 2.43.0 (0)
 -->
<!-- Title: applications/zpc/components/zpc_attribute_store/src/zpc_attribute_store_all_ids.h Pages: 1 -->
<svg width="1489pt" height="195pt"
 viewBox="0.00 0.00 1489.00 195.00" xmlns="http://www.w3.org/2000/svg" xmlns:xlink="http://www.w3.org/1999/xlink">
<g id="graph0" class="graph" transform="scale(1 1) rotate(0) translate(4 191)">
<title>applications/zpc/components/zpc_attribute_store/src/zpc_attribute_store_all_ids.h</title>
<!-- Node1 -->
<g id="node1" class="node">
<title>Node1</title>
<g id="a_node1"><a xlink:title=" ">
<polygon fill="#bfbfbf" stroke="black" points="718,-145.5 718,-186.5 862,-186.5 862,-145.5 718,-145.5"/>
<text text-anchor="start" x="726" y="-174.5" font-family="Helvetica,sans-Serif" font-size="10.00">applications/zpc/components</text>
<text text-anchor="start" x="726" y="-163.5" font-family="Helvetica,sans-Serif" font-size="10.00">/zpc_attribute_store/src</text>
<text text-anchor="middle" x="790" y="-152.5" font-family="Helvetica,sans-Serif" font-size="10.00">/zpc_attribute_store_all_ids.h</text>
</a>
</g>
</g>
<!-- Node2 -->
<g id="node2" class="node">
<title>Node2</title>
<g id="a_node2"><a xlink:href="attribute__store__defined__attribute__types_8h.html" target="_top" xlink:title=" ">
<polygon fill="none" stroke="black" points="218,-73 218,-103 334,-103 334,-73 218,-73"/>
<text text-anchor="start" x="226" y="-91" font-family="Helvetica,sans-Serif" font-size="10.00">attribute_store_defined</text>
<text text-anchor="middle" x="276" y="-80" font-family="Helvetica,sans-Serif" font-size="10.00">_attribute_types.h</text>
</a>
</g>
</g>
<!-- Node1&#45;&gt;Node2 -->
<g id="edge1" class="edge">
<title>Node1&#45;&gt;Node2</title>
<path fill="none" stroke="midnightblue" d="M717.82,-156.86C634.5,-147.1 493.44,-129.48 373,-109 363.63,-107.41 353.78,-105.57 344.1,-103.67"/>
<polygon fill="midnightblue" stroke="midnightblue" points="344.58,-100.19 334.09,-101.67 343.21,-107.06 344.58,-100.19"/>
</g>
<!-- Node6 -->
<g id="node6" class="node">
<title>Node6</title>
<g id="a_node6"><a xlink:title=" ">
<polygon fill="none" stroke="#bfbfbf" points="358.5,-0.5 358.5,-30.5 465.5,-30.5 465.5,-0.5 358.5,-0.5"/>
<text text-anchor="start" x="366.5" y="-18.5" font-family="Helvetica,sans-Serif" font-size="10.00">unify_dotdot_defined</text>
<text text-anchor="middle" x="412" y="-7.5" font-family="Helvetica,sans-Serif" font-size="10.00">_attribute_types.h</text>
</a>
</g>
</g>
<!-- Node1&#45;&gt;Node6 -->
<g id="edge6" class="edge">
<title>Node1&#45;&gt;Node6</title>
<path fill="none" stroke="midnightblue" d="M717.99,-165.2C618.39,-163.78 446.39,-154.56 407,-109 390.9,-90.37 395.85,-60.93 402.43,-40.28"/>
<polygon fill="midnightblue" stroke="midnightblue" points="405.79,-41.26 405.81,-30.66 399.19,-38.93 405.79,-41.26"/>
</g>
<!-- Node7 -->
<g id="node7" class="node">
<title>Node7</title>
<g id="a_node7"><a xlink:title=" ">
<polygon fill="none" stroke="#bfbfbf" points="415.5,-73 415.5,-103 598.5,-103 598.5,-73 415.5,-73"/>
<text text-anchor="start" x="423.5" y="-91" font-family="Helvetica,sans-Serif" font-size="10.00">zwave_COMMAND_CLASS</text>
<text text-anchor="middle" x="507" y="-80" font-family="Helvetica,sans-Serif" font-size="10.00">_BASIC_TARIFF_INFO_attribute_id.h</text>
</a>
</g>
</g>
<!-- Node1&#45;&gt;Node7 -->
<g id="edge7" class="edge">
<title>Node1&#45;&gt;Node7</title>
<path fill="none" stroke="midnightblue" d="M717.85,-145.63C671.88,-133.28 612.92,-117.44 569.04,-105.66"/>
<polygon fill="midnightblue" stroke="midnightblue" points="569.92,-102.27 559.36,-103.06 568.11,-109.03 569.92,-102.27"/>
</g>
<!-- Node8 -->
<g id="node8" class="node">
<title>Node8</title>
<g id="a_node8"><a xlink:title=" ">
<polygon fill="none" stroke="#bfbfbf" points="617,-73 617,-103 787,-103 787,-73 617,-73"/>
<text text-anchor="start" x="625" y="-91" font-family="Helvetica,sans-Serif" font-size="10.00">zwave_COMMAND_CLASS</text>
<text text-anchor="middle" x="702" y="-80" font-family="Helvetica,sans-Serif" font-size="10.00">_SENSOR_BINARY_attribute_id.h</text>
</a>
</g>
</g>
<!-- Node1&#45;&gt;Node8 -->
<g id="edge8" class="edge">
<title>Node1&#45;&gt;Node8</title>
<path fill="none" stroke="midnightblue" d="M767.34,-145.43C754.69,-134.5 738.93,-120.89 726.06,-109.78"/>
<polygon fill="midnightblue" stroke="midnightblue" points="728.33,-107.11 718.47,-103.23 723.75,-112.41 728.33,-107.11"/>
</g>
<!-- Node9 -->
<g id="node9" class="node">
<title>Node9</title>
<g id="a_node9"><a xlink:title=" ">
<polygon fill="none" stroke="#bfbfbf" points="805,-73 805,-103 951,-103 951,-73 805,-73"/>
<text text-anchor="start" x="813" y="-91" font-family="Helvetica,sans-Serif" font-size="10.00">zwave_COMMAND_CLASS</text>
<text text-anchor="middle" x="878" y="-80" font-family="Helvetica,sans-Serif" font-size="10.00">_DOOR_LOCK_attribute_id.h</text>
</a>
</g>
</g>
<!-- Node1&#45;&gt;Node9 -->
<g id="edge9" class="edge">
<title>Node1&#45;&gt;Node9</title>
<path fill="none" stroke="midnightblue" d="M812.66,-145.43C825.31,-134.5 841.07,-120.89 853.94,-109.78"/>
<polygon fill="midnightblue" stroke="midnightblue" points="856.25,-112.41 861.53,-103.23 851.67,-107.11 856.25,-112.41"/>
</g>
<!-- Node10 -->
<g id="node10" class="node">
<title>Node10</title>
<g id="a_node10"><a xlink:title=" ">
<polygon fill="none" stroke="#bfbfbf" points="969,-73 969,-103 1111,-103 1111,-73 969,-73"/>
<text text-anchor="start" x="977" y="-91" font-family="Helvetica,sans-Serif" font-size="10.00">zwave_COMMAND_CLASS</text>
<text text-anchor="middle" x="1040" y="-80" font-family="Helvetica,sans-Serif" font-size="10.00">_INDICATOR_attribute_id.h</text>
</a>
</g>
</g>
<!-- Node1&#45;&gt;Node10 -->
<g id="edge10" class="edge">
<title>Node1&#45;&gt;Node10</title>
<path fill="none" stroke="midnightblue" d="M854.38,-145.43C894.36,-133.28 945.24,-117.81 983.62,-106.14"/>
<polygon fill="midnightblue" stroke="midnightblue" points="985.05,-109.36 993.6,-103.11 983.01,-102.67 985.05,-109.36"/>
</g>
<!-- Node11 -->
<g id="node11" class="node">
<title>Node11</title>
<g id="a_node11"><a xlink:title=" ">
<polygon fill="none" stroke="#bfbfbf" points="1129.5,-73 1129.5,-103 1302.5,-103 1302.5,-73 1129.5,-73"/>
<text text-anchor="start" x="1137.5" y="-91" font-family="Helvetica,sans-Serif" font-size="10.00">zwave_COMMAND_CLASS</text>
<text text-anchor="middle" x="1216" y="-80" font-family="Helvetica,sans-Serif" font-size="10.00">_ZWAVEPLUS_INFO_attribute_id.h</text>
</a>
</g>
</g>
<!-- Node1&#45;&gt;Node11 -->
<g id="edge11" class="edge">
<title>Node1&#45;&gt;Node11</title>
<path fill="none" stroke="midnightblue" d="M862.24,-153.54C929.19,-142.72 1031.49,-125.72 1120,-109 1126.58,-107.76 1133.39,-106.43 1140.23,-105.06"/>
<polygon fill="midnightblue" stroke="midnightblue" points="1141.11,-108.45 1150.22,-103.04 1139.73,-101.59 1141.11,-108.45"/>
</g>
<!-- Node12 -->
<g id="node12" class="node">
<title>Node12</title>
<g id="a_node12"><a xlink:title=" ">
<polygon fill="none" stroke="#bfbfbf" points="1321,-67.5 1321,-108.5 1481,-108.5 1481,-67.5 1321,-67.5"/>
<text text-anchor="start" x="1329" y="-96.5" font-family="Helvetica,sans-Serif" font-size="10.00">zwave_COMMAND_CLASS</text>
<text text-anchor="start" x="1329" y="-85.5" font-family="Helvetica,sans-Serif" font-size="10.00">_MANUFACTURER_SPECIFIC</text>
<text text-anchor="middle" x="1401" y="-74.5" font-family="Helvetica,sans-Serif" font-size="10.00">_attribute_id.h</text>
</a>
</g>
</g>
<!-- Node1&#45;&gt;Node12 -->
<g id="edge12" class="edge">
<title>Node1&#45;&gt;Node12</title>
<path fill="none" stroke="midnightblue" d="M862.12,-159.88C961.19,-152.27 1145.03,-136.06 1310.67,-109.13"/>
<polygon fill="midnightblue" stroke="midnightblue" points="1311.25,-112.58 1320.55,-107.51 1310.12,-105.68 1311.25,-112.58"/>
</g>
<!-- Node3 -->
<g id="node3" class="node">
<title>Node3</title>
<g id="a_node3"><a xlink:title=" ">
<polygon fill="none" stroke="#bfbfbf" points="0,-6 0,-25 88,-25 88,-6 0,-6"/>
<text text-anchor="middle" x="44" y="-13" font-family="Helvetica,sans-Serif" font-size="10.00">ZW_classcmd.h</text>
</a>
</g>
</g>
<!-- Node2&#45;&gt;Node3 -->
<g id="edge2" class="edge">
<title>Node2&#45;&gt;Node3</title>
<path fill="none" stroke="midnightblue" d="M229.89,-72.99C186.52,-59.81 122.37,-40.32 81.9,-28.02"/>
<polygon fill="midnightblue" stroke="midnightblue" points="82.74,-24.61 72.15,-25.05 80.7,-31.31 82.74,-24.61"/>
</g>
<!-- Node4 -->
<g id="node4" class="node">
<title>Node4</title>
<g id="a_node4"><a xlink:title=" ">
<polygon fill="none" stroke="#bfbfbf" points="106.5,-6 106.5,-25 193.5,-25 193.5,-6 106.5,-6"/>
<text text-anchor="middle" x="150" y="-13" font-family="Helvetica,sans-Serif" font-size="10.00">attribute_store.h</text>
</a>
</g>
</g>
<!-- Node2&#45;&gt;Node4 -->
<g id="edge3" class="edge">
<title>Node2&#45;&gt;Node4</title>
<path fill="none" stroke="midnightblue" d="M250.8,-72.9C228.53,-60.44 196.26,-42.38 174.27,-30.08"/>
<polygon fill="midnightblue" stroke="midnightblue" points="175.69,-26.86 165.25,-25.03 172.27,-32.97 175.69,-26.86"/>
</g>
<!-- Node5 -->
<g id="node5" class="node">
<title>Node5</title>
<g id="a_node5"><a xlink:title=" ">
<polygon fill="none" stroke="#bfbfbf" points="212,-6 212,-25 340,-25 340,-6 212,-6"/>
<text text-anchor="middle" x="276" y="-13" font-family="Helvetica,sans-Serif" font-size="10.00">uic_attribute_definitions.h</text>
</a>
</g>
</g>
<!-- Node2&#45;&gt;Node5 -->
<g id="edge4" class="edge">
<title>Node2&#45;&gt;Node5</title>
<path fill="none" stroke="midnightblue" d="M276,-72.73C276,-62 276,-47.19 276,-35.46"/>
<polygon fill="midnightblue" stroke="midnightblue" points="279.5,-35.39 276,-25.39 272.5,-35.39 279.5,-35.39"/>
</g>
<!-- Node2&#45;&gt;Node6 -->
<g id="edge5" class="edge">
<title>Node2&#45;&gt;Node6</title>
<path fill="none" stroke="midnightblue" d="M303.19,-72.9C324.04,-62.1 353.01,-47.08 375.81,-35.26"/>
<polygon fill="midnightblue" stroke="midnightblue" points="377.59,-38.28 384.85,-30.57 374.36,-32.07 377.59,-38.28"/>
</g>
</g>
</svg>
