<?xml version="1.0" encoding="UTF-8" standalone="no"?>
<!DOCTYPE svg PUBLIC "-//W3C//DTD SVG 1.1//EN"
 "http://www.w3.org/Graphics/SVG/1.1/DTD/svg11.dtd">
<!-- Generated by graphviz version 2.43.0 (0)
 -->
<!-- Title: invoke_update_callbacks_in_network Pages: 1 -->
<svg width="469pt" height="94pt"
 viewBox="0.00 0.00 469.00 93.50" xmlns="http://www.w3.org/2000/svg" xmlns:xlink="http://www.w3.org/1999/xlink">
<g id="graph0" class="graph" transform="scale(1 1) rotate(0) translate(4 89.5)">
<title>invoke_update_callbacks_in_network</title>
<!-- Node1 -->
<g id="node1" class="node">
<title>Node1</title>
<g id="a_node1"><a xlink:title=" ">
<polygon fill="#bfbfbf" stroke="black" points="0,-30 0,-60 126,-60 126,-30 0,-30"/>
<text text-anchor="start" x="8" y="-48" font-family="Helvetica,sans-Serif" font-size="10.00">invoke_update_callbacks</text>
<text text-anchor="middle" x="63" y="-37" font-family="Helvetica,sans-Serif" font-size="10.00">_in_network</text>
</a>
</g>
</g>
<!-- Node2 -->
<g id="node2" class="node">
<title>Node2</title>
<g id="a_node2"><a xlink:href="group__zpc__attribute__store.html#gaa77e8f9b18958337bb68279c8c53ccdc" target="_top" xlink:title="Returns the HomeID (attribute store) node of our current network.">
<polygon fill="none" stroke="black" points="162,-60.5 162,-79.5 279,-79.5 279,-60.5 162,-60.5"/>
<text text-anchor="middle" x="220.5" y="-67.5" font-family="Helvetica,sans-Serif" font-size="10.00">get_zpc_network_node</text>
</a>
</g>
</g>
<!-- Node1&#45;&gt;Node2 -->
<g id="edge1" class="edge">
<title>Node1&#45;&gt;Node2</title>
<path fill="none" stroke="midnightblue" d="M126.35,-55.02C134.79,-56.38 143.49,-57.78 152.01,-59.15"/>
<polygon fill="midnightblue" stroke="midnightblue" points="151.49,-62.61 161.92,-60.74 152.6,-55.7 151.49,-62.61"/>
</g>
<!-- Node4 -->
<g id="node4" class="node">
<title>Node4</title>
<g id="a_node4"><a xlink:href="zpc__attribute__store_8c.html#aac2dbb1711b833bfd0158e22dabc8243" target="_top" xlink:title="Finds all NodeIDs network statuses with one value and change them to a new one.">
<polygon fill="none" stroke="black" points="167.5,-0.5 167.5,-41.5 273.5,-41.5 273.5,-0.5 167.5,-0.5"/>
<text text-anchor="start" x="175.5" y="-29.5" font-family="Helvetica,sans-Serif" font-size="10.00">zpc_attribute_store</text>
<text text-anchor="start" x="175.5" y="-18.5" font-family="Helvetica,sans-Serif" font-size="10.00">_update_all_network</text>
<text text-anchor="middle" x="220.5" y="-7.5" font-family="Helvetica,sans-Serif" font-size="10.00">_statuses</text>
</a>
</g>
</g>
<!-- Node1&#45;&gt;Node4 -->
<g id="edge3" class="edge">
<title>Node1&#45;&gt;Node4</title>
<path fill="none" stroke="midnightblue" d="M126.35,-35.38C136.49,-33.81 146.99,-32.19 157.13,-30.63"/>
<polygon fill="midnightblue" stroke="midnightblue" points="157.78,-34.07 167.13,-29.08 156.71,-27.15 157.78,-34.07"/>
</g>
<!-- Node3 -->
<g id="node3" class="node">
<title>Node3</title>
<g id="a_node3"><a xlink:href="group__zwave__network__management.html#gac01bf38badf30f94eac9a04b486cb967" target="_top" xlink:title="Get the cached HomeID.">
<polygon fill="none" stroke="black" points="315,-55 315,-85 461,-85 461,-55 315,-55"/>
<text text-anchor="start" x="323" y="-73" font-family="Helvetica,sans-Serif" font-size="10.00">zwave_network_management</text>
<text text-anchor="middle" x="388" y="-62" font-family="Helvetica,sans-Serif" font-size="10.00">_get_home_id</text>
</a>
</g>
</g>
<!-- Node2&#45;&gt;Node3 -->
<g id="edge2" class="edge">
<title>Node2&#45;&gt;Node3</title>
<path fill="none" stroke="midnightblue" d="M279.38,-70C287.62,-70 296.23,-70 304.82,-70"/>
<polygon fill="midnightblue" stroke="midnightblue" points="304.89,-73.5 314.89,-70 304.89,-66.5 304.89,-73.5"/>
</g>
</g>
</svg>
