<?xml version="1.0" encoding="UTF-8" standalone="no"?>
<!DOCTYPE svg PUBLIC "-//W3C//DTD SVG 1.1//EN"
 "http://www.w3.org/Graphics/SVG/1.1/DTD/svg11.dtd">
<!-- Generated by graphviz version 2.43.0 (0)
 -->
<!-- Title: applications/zpc/components/zwave_api/src/zwapi_utils.h Pages: 1 -->
<svg width="1032pt" height="117pt"
 viewBox="0.00 0.00 1032.00 117.00" xmlns="http://www.w3.org/2000/svg" xmlns:xlink="http://www.w3.org/1999/xlink">
<g id="graph0" class="graph" transform="scale(1 1) rotate(0) translate(4 113)">
<title>applications/zpc/components/zwave_api/src/zwapi_utils.h</title>
<!-- Node1 -->
<g id="node1" class="node">
<title>Node1</title>
<g id="a_node1"><a xlink:title="Internal utility helpers for Z&#45;Wave API.">
<polygon fill="#bfbfbf" stroke="black" points="453,-78.5 453,-108.5 596,-108.5 596,-78.5 453,-78.5"/>
<text text-anchor="start" x="461" y="-96.5" font-family="Helvetica,sans-Serif" font-size="10.00">applications/zpc/components</text>
<text text-anchor="middle" x="524.5" y="-85.5" font-family="Helvetica,sans-Serif" font-size="10.00">/zwave_api/src/zwapi_utils.h</text>
</a>
</g>
</g>
<!-- Node2 -->
<g id="node2" class="node">
<title>Node2</title>
<g id="a_node2"><a xlink:href="zwapi__protocol__basis_8c.html" target="_top" xlink:title=" ">
<polygon fill="none" stroke="black" points="0,-0.5 0,-41.5 151,-41.5 151,-0.5 0,-0.5"/>
<text text-anchor="start" x="8" y="-29.5" font-family="Helvetica,sans-Serif" font-size="10.00">applications/zpc/components</text>
<text text-anchor="start" x="8" y="-18.5" font-family="Helvetica,sans-Serif" font-size="10.00">/zwave_api/src/zwapi_protocol</text>
<text text-anchor="middle" x="75.5" y="-7.5" font-family="Helvetica,sans-Serif" font-size="10.00">_basis.c</text>
</a>
</g>
</g>
<!-- Node1&#45;&gt;Node2 -->
<g id="edge1" class="edge">
<title>Node1&#45;&gt;Node2</title>
<path fill="none" stroke="midnightblue" d="M442.62,-83.46C368.4,-74.72 256.18,-60.15 159.5,-42 156.85,-41.5 154.15,-40.98 151.44,-40.43"/>
<polygon fill="midnightblue" stroke="midnightblue" points="442.49,-86.97 452.83,-84.65 443.31,-80.01 442.49,-86.97"/>
</g>
<!-- Node3 -->
<g id="node3" class="node">
<title>Node3</title>
<g id="a_node3"><a xlink:href="zwapi__protocol__controller_8c.html" target="_top" xlink:title=" ">
<polygon fill="none" stroke="black" points="169,-0.5 169,-41.5 320,-41.5 320,-0.5 169,-0.5"/>
<text text-anchor="start" x="177" y="-29.5" font-family="Helvetica,sans-Serif" font-size="10.00">applications/zpc/components</text>
<text text-anchor="start" x="177" y="-18.5" font-family="Helvetica,sans-Serif" font-size="10.00">/zwave_api/src/zwapi_protocol</text>
<text text-anchor="middle" x="244.5" y="-7.5" font-family="Helvetica,sans-Serif" font-size="10.00">_controller.c</text>
</a>
</g>
</g>
<!-- Node1&#45;&gt;Node3 -->
<g id="edge2" class="edge">
<title>Node1&#45;&gt;Node3</title>
<path fill="none" stroke="midnightblue" d="M459.1,-76.03C417.55,-65.57 363.6,-51.99 320.2,-41.06"/>
<polygon fill="midnightblue" stroke="midnightblue" points="458.29,-79.44 468.85,-78.49 460,-72.65 458.29,-79.44"/>
</g>
<!-- Node4 -->
<g id="node4" class="node">
<title>Node4</title>
<g id="a_node4"><a xlink:href="zwapi__protocol__mem_8c.html" target="_top" xlink:title=" ">
<polygon fill="none" stroke="black" points="338.5,-6 338.5,-36 524.5,-36 524.5,-6 338.5,-6"/>
<text text-anchor="start" x="346.5" y="-24" font-family="Helvetica,sans-Serif" font-size="10.00">applications/zpc/components</text>
<text text-anchor="middle" x="431.5" y="-13" font-family="Helvetica,sans-Serif" font-size="10.00">/zwave_api/src/zwapi_protocol_mem.c</text>
</a>
</g>
</g>
<!-- Node1&#45;&gt;Node4 -->
<g id="edge3" class="edge">
<title>Node1&#45;&gt;Node4</title>
<path fill="none" stroke="midnightblue" d="M497.6,-72.11C482.33,-60.53 463.59,-46.33 449.97,-36"/>
<polygon fill="midnightblue" stroke="midnightblue" points="495.6,-74.98 505.68,-78.23 499.83,-69.4 495.6,-74.98"/>
</g>
<!-- Node5 -->
<g id="node5" class="node">
<title>Node5</title>
<g id="a_node5"><a xlink:href="zwapi__protocol__rx__dispatch_8c.html" target="_top" xlink:title=" ">
<polygon fill="none" stroke="black" points="543,-0.5 543,-41.5 694,-41.5 694,-0.5 543,-0.5"/>
<text text-anchor="start" x="551" y="-29.5" font-family="Helvetica,sans-Serif" font-size="10.00">applications/zpc/components</text>
<text text-anchor="start" x="551" y="-18.5" font-family="Helvetica,sans-Serif" font-size="10.00">/zwave_api/src/zwapi_protocol</text>
<text text-anchor="middle" x="618.5" y="-7.5" font-family="Helvetica,sans-Serif" font-size="10.00">_rx_dispatch.c</text>
</a>
</g>
</g>
<!-- Node1&#45;&gt;Node5 -->
<g id="edge4" class="edge">
<title>Node1&#45;&gt;Node5</title>
<path fill="none" stroke="midnightblue" d="M551.55,-72.21C564.39,-62.58 579.67,-51.12 592.38,-41.59"/>
<polygon fill="midnightblue" stroke="midnightblue" points="549.42,-69.43 543.52,-78.23 553.62,-75.03 549.42,-69.43"/>
</g>
<!-- Node6 -->
<g id="node6" class="node">
<title>Node6</title>
<g id="a_node6"><a xlink:href="zwapi__protocol__transport_8c.html" target="_top" xlink:title=" ">
<polygon fill="none" stroke="black" points="712,-0.5 712,-41.5 863,-41.5 863,-0.5 712,-0.5"/>
<text text-anchor="start" x="720" y="-29.5" font-family="Helvetica,sans-Serif" font-size="10.00">applications/zpc/components</text>
<text text-anchor="start" x="720" y="-18.5" font-family="Helvetica,sans-Serif" font-size="10.00">/zwave_api/src/zwapi_protocol</text>
<text text-anchor="middle" x="787.5" y="-7.5" font-family="Helvetica,sans-Serif" font-size="10.00">_transport.c</text>
</a>
</g>
</g>
<!-- Node1&#45;&gt;Node6 -->
<g id="edge5" class="edge">
<title>Node1&#45;&gt;Node6</title>
<path fill="none" stroke="midnightblue" d="M586.76,-75.81C625.05,-65.55 674.28,-52.35 714.41,-41.59"/>
<polygon fill="midnightblue" stroke="midnightblue" points="585.53,-72.52 576.77,-78.49 587.34,-79.28 585.53,-72.52"/>
</g>
<!-- Node7 -->
<g id="node7" class="node">
<title>Node7</title>
<g id="a_node7"><a xlink:href="zwapi__utils_8c.html" target="_top" xlink:title=" ">
<polygon fill="none" stroke="black" points="881,-6 881,-36 1024,-36 1024,-6 881,-6"/>
<text text-anchor="start" x="889" y="-24" font-family="Helvetica,sans-Serif" font-size="10.00">applications/zpc/components</text>
<text text-anchor="middle" x="952.5" y="-13" font-family="Helvetica,sans-Serif" font-size="10.00">/zwave_api/src/zwapi_utils.c</text>
</a>
</g>
</g>
<!-- Node1&#45;&gt;Node7 -->
<g id="edge6" class="edge">
<title>Node1&#45;&gt;Node7</title>
<path fill="none" stroke="midnightblue" d="M606.36,-82.99C677.13,-74.2 782.01,-59.83 872.5,-42 881.21,-40.28 890.39,-38.23 899.31,-36.09"/>
<polygon fill="midnightblue" stroke="midnightblue" points="605.67,-79.55 596.17,-84.24 606.53,-86.49 605.67,-79.55"/>
</g>
</g>
</svg>
