<?xml version="1.0" encoding="UTF-8" standalone="no"?>
<!DOCTYPE svg PUBLIC "-//W3C//DTD SVG 1.1//EN"
 "http://www.w3.org/Graphics/SVG/1.1/DTD/svg11.dtd">
<!-- Generated by graphviz version 2.43.0 (0)
 -->
<!-- Title: zwapi_session_send_frame Pages: 1 -->
<svg width="935pt" height="541pt"
 viewBox="0.00 0.00 935.00 541.00" xmlns="http://www.w3.org/2000/svg" xmlns:xlink="http://www.w3.org/1999/xlink">
<g id="graph0" class="graph" transform="scale(1 1) rotate(0) translate(4 537)">
<title>zwapi_session_send_frame</title>
<!-- Node1 -->
<g id="node1" class="node">
<title>Node1</title>
<g id="a_node1"><a xlink:title="Send data frame to Z&#45;Wave chip via serial port and wait for ACK.">
<polygon fill="#bfbfbf" stroke="black" points="0,-244 0,-274 107,-274 107,-244 0,-244"/>
<text text-anchor="start" x="8" y="-262" font-family="Helvetica,sans-Serif" font-size="10.00">zwapi_session_send</text>
<text text-anchor="middle" x="53.5" y="-251" font-family="Helvetica,sans-Serif" font-size="10.00">_frame</text>
</a>
</g>
</g>
<!-- Node2 -->
<g id="node2" class="node">
<title>Node2</title>
<g id="a_node2"><a xlink:href="zwapi__connection_8c.html#a13b6e6b6c56844f4344fabe490bc5eac" target="_top" xlink:title="Closes and re&#45;initializes the zwapi_connection to the Z&#45;Wave module.">
<polygon fill="none" stroke="black" points="303,-363.5 303,-382.5 431,-382.5 431,-363.5 303,-363.5"/>
<text text-anchor="middle" x="367" y="-370.5" font-family="Helvetica,sans-Serif" font-size="10.00">zwapi_connection_restart</text>
</a>
</g>
</g>
<!-- Node1&#45;&gt;Node2 -->
<g id="edge1" class="edge">
<title>Node1&#45;&gt;Node2</title>
<path fill="none" stroke="midnightblue" d="M64.36,-274.24C78.82,-295.14 107.89,-332.02 143,-349 189.44,-371.46 247.54,-377.1 292.79,-377.32"/>
<polygon fill="midnightblue" stroke="midnightblue" points="292.84,-380.82 302.82,-377.28 292.81,-373.82 292.84,-380.82"/>
</g>
<!-- Node12 -->
<g id="node12" class="node">
<title>Node12</title>
<g id="a_node12"><a xlink:href="zwapi__timestamp_8c.html#a6ebe1ddfe689bce6ee72fc12f708aece" target="_top" xlink:title="get the timestamp">
<polygon fill="none" stroke="black" points="476,-349.5 476,-368.5 588,-368.5 588,-349.5 476,-349.5"/>
<text text-anchor="middle" x="532" y="-356.5" font-family="Helvetica,sans-Serif" font-size="10.00">zwapi_timestamp_get</text>
</a>
</g>
</g>
<!-- Node1&#45;&gt;Node12 -->
<g id="edge39" class="edge">
<title>Node1&#45;&gt;Node12</title>
<path fill="none" stroke="midnightblue" d="M107.25,-273.86C118.98,-277.01 131.39,-280.22 143,-283 255.61,-309.93 388.27,-334.37 465.67,-347.9"/>
<polygon fill="midnightblue" stroke="midnightblue" points="465.3,-351.39 475.75,-349.66 466.5,-344.5 465.3,-351.39"/>
</g>
<!-- Node13 -->
<g id="node13" class="node">
<title>Node13</title>
<g id="a_node13"><a xlink:href="zwapi__connection_8c.html#af47f8cbd93974d5c91d659fdeb7a870b" target="_top" xlink:title="Transmit a frame via serial port by adding SOF, Len, Type, cmd and Checksum.">
<polygon fill="none" stroke="black" points="313,-401.5 313,-420.5 421,-420.5 421,-401.5 313,-401.5"/>
<text text-anchor="middle" x="367" y="-408.5" font-family="Helvetica,sans-Serif" font-size="10.00">zwapi_connection_tx</text>
</a>
</g>
</g>
<!-- Node1&#45;&gt;Node13 -->
<g id="edge12" class="edge">
<title>Node1&#45;&gt;Node13</title>
<path fill="none" stroke="midnightblue" d="M61.17,-274.32C73.33,-300.23 101.69,-352.28 143,-377 191.21,-405.85 255.43,-413.05 302.56,-413.79"/>
<polygon fill="midnightblue" stroke="midnightblue" points="302.63,-417.29 312.65,-413.86 302.68,-410.29 302.63,-417.29"/>
</g>
<!-- Node15 -->
<g id="node15" class="node">
<title>Node15</title>
<g id="a_node15"><a xlink:href="zwapi__timestamp_8c.html#a3925f2732e344672608db38351236688" target="_top" xlink:title="compare the current timestamp with the timestamp passed as an argument">
<polygon fill="none" stroke="black" points="479,-137 479,-167 585,-167 585,-137 479,-137"/>
<text text-anchor="start" x="487" y="-155" font-family="Helvetica,sans-Serif" font-size="10.00">zwapi_is_timestamp</text>
<text text-anchor="middle" x="532" y="-144" font-family="Helvetica,sans-Serif" font-size="10.00">_elapsed</text>
</a>
</g>
</g>
<!-- Node1&#45;&gt;Node15 -->
<g id="edge17" class="edge">
<title>Node1&#45;&gt;Node15</title>
<path fill="none" stroke="midnightblue" d="M106.33,-243.92C118.34,-240.55 131.09,-237.07 143,-234 257.06,-204.64 391.94,-177.9 468.88,-163.39"/>
<polygon fill="midnightblue" stroke="midnightblue" points="469.71,-166.8 478.89,-161.51 468.41,-159.92 469.71,-166.8"/>
</g>
<!-- Node16 -->
<g id="node16" class="node">
<title>Node16</title>
<g id="a_node16"><a xlink:href="zwapi__session_8c.html#a1f2b3e7c2dcf31708ef8d333747352ba" target="_top" xlink:title=" ">
<polygon fill="none" stroke="black" points="305.5,-80 305.5,-110 428.5,-110 428.5,-80 305.5,-80"/>
<text text-anchor="start" x="313.5" y="-98" font-family="Helvetica,sans-Serif" font-size="10.00">zwapi_session_enqueue</text>
<text text-anchor="middle" x="367" y="-87" font-family="Helvetica,sans-Serif" font-size="10.00">_frame</text>
</a>
</g>
</g>
<!-- Node1&#45;&gt;Node16 -->
<g id="edge18" class="edge">
<title>Node1&#45;&gt;Node16</title>
<path fill="none" stroke="midnightblue" d="M58.7,-243.85C68.08,-213.25 93.84,-144.41 143,-114 188.1,-86.1 248.5,-82.55 295.06,-85.32"/>
<polygon fill="midnightblue" stroke="midnightblue" points="294.86,-88.81 305.08,-86.02 295.35,-81.83 294.86,-88.81"/>
</g>
<!-- Node20 -->
<g id="node20" class="node">
<title>Node20</title>
<g id="a_node20"><a xlink:href="zwapi__session_8c.html#a2875fbfa250b7b25ecb6bc4f0b032cb8" target="_top" xlink:title="Loads the received frames from the serial device into the zwapi_session receive queue.">
<polygon fill="none" stroke="black" points="143,-124 143,-154 266,-154 266,-124 143,-124"/>
<text text-anchor="start" x="151" y="-142" font-family="Helvetica,sans-Serif" font-size="10.00">zwapi_session_enqueue</text>
<text text-anchor="middle" x="204.5" y="-131" font-family="Helvetica,sans-Serif" font-size="10.00">_rx_frames</text>
</a>
</g>
</g>
<!-- Node1&#45;&gt;Node20 -->
<g id="edge22" class="edge">
<title>Node1&#45;&gt;Node20</title>
<path fill="none" stroke="midnightblue" d="M66.7,-243.77C82.68,-224.53 112.3,-191.25 143,-169 148.05,-165.34 153.61,-161.91 159.25,-158.77"/>
<polygon fill="midnightblue" stroke="midnightblue" points="160.91,-161.85 168.12,-154.08 157.64,-155.66 160.91,-161.85"/>
</g>
<!-- Node25 -->
<g id="node25" class="node">
<title>Node25</title>
<g id="a_node25"><a xlink:href="zwapi__session_8c.html#a9d30e1677f02d7730ab035aa9333235d" target="_top" xlink:title=" ">
<polygon fill="none" stroke="black" points="152.5,-244 152.5,-274 256.5,-274 256.5,-244 152.5,-244"/>
<text text-anchor="start" x="160.5" y="-262" font-family="Helvetica,sans-Serif" font-size="10.00">zwapi_session_wait</text>
<text text-anchor="middle" x="204.5" y="-251" font-family="Helvetica,sans-Serif" font-size="10.00">_for_response</text>
</a>
</g>
</g>
<!-- Node1&#45;&gt;Node25 -->
<g id="edge35" class="edge">
<title>Node1&#45;&gt;Node25</title>
<path fill="none" stroke="midnightblue" d="M107.03,-259C118.44,-259 130.6,-259 142.3,-259"/>
<polygon fill="midnightblue" stroke="midnightblue" points="142.44,-262.5 152.44,-259 142.44,-255.5 142.44,-262.5"/>
</g>
<!-- Node3 -->
<g id="node3" class="node">
<title>Node3</title>
<g id="a_node3"><a xlink:href="zwapi__serial_8c.html#a3f2b3bd848e9fe0e6e137482bed06b46" target="_top" xlink:title="Flush the serial output if using buffered output.">
<polygon fill="none" stroke="black" points="483.5,-388 483.5,-418 580.5,-418 580.5,-388 483.5,-388"/>
<text text-anchor="start" x="491.5" y="-406" font-family="Helvetica,sans-Serif" font-size="10.00">zwapi_serial_drain</text>
<text text-anchor="middle" x="532" y="-395" font-family="Helvetica,sans-Serif" font-size="10.00">_buffer</text>
</a>
</g>
</g>
<!-- Node2&#45;&gt;Node3 -->
<g id="edge2" class="edge">
<title>Node2&#45;&gt;Node3</title>
<path fill="none" stroke="midnightblue" d="M420.02,-382.57C437,-385.7 455.95,-389.19 473.32,-392.38"/>
<polygon fill="midnightblue" stroke="midnightblue" points="472.87,-395.86 483.34,-394.23 474.14,-388.98 472.87,-395.86"/>
</g>
<!-- Node4 -->
<g id="node4" class="node">
<title>Node4</title>
<g id="a_node4"><a xlink:href="zwapi__serial_8c.html#a7762d0358e9f398b92edbfd6a550984a" target="_top" xlink:title="Write a byte to serial port device.">
<polygon fill="none" stroke="black" points="475.5,-311.5 475.5,-330.5 588.5,-330.5 588.5,-311.5 475.5,-311.5"/>
<text text-anchor="middle" x="532" y="-318.5" font-family="Helvetica,sans-Serif" font-size="10.00">zwapi_serial_put_byte</text>
</a>
</g>
</g>
<!-- Node2&#45;&gt;Node4 -->
<g id="edge3" class="edge">
<title>Node2&#45;&gt;Node4</title>
<path fill="none" stroke="midnightblue" d="M396.39,-363.42C416.37,-356.72 443.77,-347.65 468,-340 474.73,-337.87 481.89,-335.67 488.87,-333.54"/>
<polygon fill="midnightblue" stroke="midnightblue" points="490.34,-336.75 498.9,-330.51 488.32,-330.05 490.34,-336.75"/>
</g>
<!-- Node8 -->
<g id="node8" class="node">
<title>Node8</title>
<g id="a_node8"><a xlink:href="zwapi__serial_8c.html#aadf3397d0bd2c1657d4b1a373599acfe" target="_top" xlink:title="Closes and re&#45;initialize the last open serial port.">
<polygon fill="none" stroke="black" points="480,-475.5 480,-494.5 584,-494.5 584,-475.5 480,-475.5"/>
<text text-anchor="middle" x="532" y="-482.5" font-family="Helvetica,sans-Serif" font-size="10.00">zwapi_serial_restart</text>
</a>
</g>
</g>
<!-- Node2&#45;&gt;Node8 -->
<g id="edge7" class="edge">
<title>Node2&#45;&gt;Node8</title>
<path fill="none" stroke="midnightblue" d="M410.86,-382.59C418.17,-385.09 425.5,-388.19 432,-392 451.25,-403.28 451.79,-411.66 468,-427 482.88,-441.08 500,-456.81 512.63,-468.33"/>
<polygon fill="midnightblue" stroke="midnightblue" points="510.47,-471.09 520.22,-475.24 515.18,-465.92 510.47,-471.09"/>
</g>
<!-- Node2&#45;&gt;Node12 -->
<g id="edge11" class="edge">
<title>Node2&#45;&gt;Node12</title>
<path fill="none" stroke="midnightblue" d="M431.02,-367.59C442.34,-366.62 454.16,-365.6 465.54,-364.62"/>
<polygon fill="midnightblue" stroke="midnightblue" points="466.18,-368.08 475.85,-363.74 465.58,-361.11 466.18,-368.08"/>
</g>
<!-- Node5 -->
<g id="node5" class="node">
<title>Node5</title>
<g id="a_node5"><a xlink:href="zwapi__serial_8c.html#af9054824651df422bab5076d16a80fda" target="_top" xlink:title="Writes the content of a buffer to the serial port device.">
<polygon fill="none" stroke="black" points="632,-312.5 632,-331.5 751,-331.5 751,-312.5 632,-312.5"/>
<text text-anchor="middle" x="691.5" y="-319.5" font-family="Helvetica,sans-Serif" font-size="10.00">zwapi_serial_put_buffer</text>
</a>
</g>
</g>
<!-- Node4&#45;&gt;Node5 -->
<g id="edge4" class="edge">
<title>Node4&#45;&gt;Node5</title>
<path fill="none" stroke="midnightblue" d="M588.53,-321.35C599.24,-321.42 610.59,-321.49 621.66,-321.56"/>
<polygon fill="midnightblue" stroke="midnightblue" points="621.71,-325.06 631.74,-321.63 621.76,-318.06 621.71,-325.06"/>
</g>
<!-- Node6 -->
<g id="node6" class="node">
<title>Node6</title>
<g id="a_node6"><a xlink:href="zwapi__serial_8c.html#a0accbbf7ddb7aeab10f5df1fe3df6642" target="_top" xlink:title=" ">
<polygon fill="none" stroke="black" points="787,-313.5 787,-332.5 927,-332.5 927,-313.5 787,-313.5"/>
<text text-anchor="middle" x="857" y="-320.5" font-family="Helvetica,sans-Serif" font-size="10.00">zwapi_serial_log_timestamp</text>
</a>
</g>
</g>
<!-- Node5&#45;&gt;Node6 -->
<g id="edge5" class="edge">
<title>Node5&#45;&gt;Node6</title>
<path fill="none" stroke="midnightblue" d="M751.07,-322.36C759.43,-322.41 768.15,-322.46 776.82,-322.52"/>
<polygon fill="midnightblue" stroke="midnightblue" points="776.95,-326.02 786.97,-322.58 776.99,-319.02 776.95,-326.02"/>
</g>
<!-- Node7 -->
<g id="node7" class="node">
<title>Node7</title>
<g id="a_node7"><a xlink:href="zwapi__serial_8c.html#abf18afb71e14daaf65d937149ef1639f" target="_top" xlink:title="Test if a is less than b + ms.">
<polygon fill="none" stroke="black" points="803.5,-264 803.5,-294 910.5,-294 910.5,-264 803.5,-264"/>
<text text-anchor="start" x="811.5" y="-282" font-family="Helvetica,sans-Serif" font-size="10.00">zwapi_serial_timeval</text>
<text text-anchor="middle" x="857" y="-271" font-family="Helvetica,sans-Serif" font-size="10.00">_a_lt_b_milis</text>
</a>
</g>
</g>
<!-- Node5&#45;&gt;Node7 -->
<g id="edge6" class="edge">
<title>Node5&#45;&gt;Node7</title>
<path fill="none" stroke="midnightblue" d="M728.79,-312.46C747.8,-307.46 771.61,-301.19 793.48,-295.44"/>
<polygon fill="midnightblue" stroke="midnightblue" points="794.59,-298.77 803.37,-292.84 792.81,-292 794.59,-298.77"/>
</g>
<!-- Node9 -->
<g id="node9" class="node">
<title>Node9</title>
<g id="a_node9"><a xlink:href="zwapi__serial_8c.html#aae586785021ac9a605cd77651429f0c9" target="_top" xlink:title="De&#45;Initialize the serial port.">
<polygon fill="none" stroke="black" points="642,-494.5 642,-513.5 741,-513.5 741,-494.5 642,-494.5"/>
<text text-anchor="middle" x="691.5" y="-501.5" font-family="Helvetica,sans-Serif" font-size="10.00">zwapi_serial_close</text>
</a>
</g>
</g>
<!-- Node8&#45;&gt;Node9 -->
<g id="edge8" class="edge">
<title>Node8&#45;&gt;Node9</title>
<path fill="none" stroke="midnightblue" d="M584.14,-491.17C599.31,-493 616.06,-495.02 631.68,-496.9"/>
<polygon fill="midnightblue" stroke="midnightblue" points="631.42,-500.4 641.76,-498.12 632.25,-493.45 631.42,-500.4"/>
</g>
<!-- Node10 -->
<g id="node10" class="node">
<title>Node10</title>
<g id="a_node10"><a xlink:href="zwapi__serial_8c.html#a07b09de97f4932d882fc77e191c44638" target="_top" xlink:title="Initialize the serial port to 115200 BAUD 8N1.">
<polygon fill="none" stroke="black" points="647,-456.5 647,-475.5 736,-475.5 736,-456.5 647,-456.5"/>
<text text-anchor="middle" x="691.5" y="-463.5" font-family="Helvetica,sans-Serif" font-size="10.00">zwapi_serial_init</text>
</a>
</g>
</g>
<!-- Node8&#45;&gt;Node10 -->
<g id="edge9" class="edge">
<title>Node8&#45;&gt;Node10</title>
<path fill="none" stroke="midnightblue" d="M584.14,-478.83C600.87,-476.81 619.51,-474.56 636.46,-472.52"/>
<polygon fill="midnightblue" stroke="midnightblue" points="637.25,-475.95 646.76,-471.28 636.41,-469 637.25,-475.95"/>
</g>
<!-- Node11 -->
<g id="node11" class="node">
<title>Node11</title>
<g id="a_node11"><a xlink:href="zwapi__serial_8c.html#aefeac5909b0bf6411db1492f69c3bc68" target="_top" xlink:title=" ">
<polygon fill="none" stroke="black" points="797.5,-456.5 797.5,-475.5 916.5,-475.5 916.5,-456.5 797.5,-456.5"/>
<text text-anchor="middle" x="857" y="-463.5" font-family="Helvetica,sans-Serif" font-size="10.00">zwapi_open_serial_port</text>
</a>
</g>
</g>
<!-- Node10&#45;&gt;Node11 -->
<g id="edge10" class="edge">
<title>Node10&#45;&gt;Node11</title>
<path fill="none" stroke="midnightblue" d="M736.31,-466C751.97,-466 770.01,-466 787.26,-466"/>
<polygon fill="midnightblue" stroke="midnightblue" points="787.3,-469.5 797.3,-466 787.3,-462.5 787.3,-469.5"/>
</g>
<!-- Node13&#45;&gt;Node3 -->
<g id="edge14" class="edge">
<title>Node13&#45;&gt;Node3</title>
<path fill="none" stroke="midnightblue" d="M421.37,-408.38C437.9,-407.57 456.19,-406.67 473.02,-405.85"/>
<polygon fill="midnightblue" stroke="midnightblue" points="473.47,-409.33 483.28,-405.34 473.12,-402.34 473.47,-409.33"/>
</g>
<!-- Node13&#45;&gt;Node5 -->
<g id="edge15" class="edge">
<title>Node13&#45;&gt;Node5</title>
<path fill="none" stroke="midnightblue" d="M394.34,-420.55C438.29,-434.86 528.4,-457.11 596,-427 635.75,-409.3 665.8,-365.69 680.5,-340.59"/>
<polygon fill="midnightblue" stroke="midnightblue" points="683.66,-342.11 685.52,-331.68 677.56,-338.67 683.66,-342.11"/>
</g>
<!-- Node13&#45;&gt;Node12 -->
<g id="edge16" class="edge">
<title>Node13&#45;&gt;Node12</title>
<path fill="none" stroke="midnightblue" d="M402.04,-401.46C411.77,-398.58 422.35,-395.3 432,-392 448.24,-386.44 451.77,-383.59 468,-378 474.39,-375.8 481.18,-373.6 487.86,-371.52"/>
<polygon fill="midnightblue" stroke="midnightblue" points="488.96,-374.85 497.49,-368.58 486.91,-368.15 488.96,-374.85"/>
</g>
<!-- Node14 -->
<g id="node14" class="node">
<title>Node14</title>
<g id="a_node14"><a xlink:href="zwapi__connection_8c.html#a96d24d537c5b8d6aa0aa6a7638ba2f09" target="_top" xlink:title=" ">
<polygon fill="none" stroke="black" points="474.5,-513.5 474.5,-532.5 589.5,-532.5 589.5,-513.5 474.5,-513.5"/>
<text text-anchor="middle" x="532" y="-520.5" font-family="Helvetica,sans-Serif" font-size="10.00">zwapi_frame_to_string</text>
</a>
</g>
</g>
<!-- Node13&#45;&gt;Node14 -->
<g id="edge13" class="edge">
<title>Node13&#45;&gt;Node14</title>
<path fill="none" stroke="midnightblue" d="M375.74,-420.69C391.25,-439.5 428.11,-481.11 468,-504 471.73,-506.14 475.73,-508.07 479.84,-509.79"/>
<polygon fill="midnightblue" stroke="midnightblue" points="478.95,-513.19 489.54,-513.45 481.42,-506.65 478.95,-513.19"/>
</g>
<!-- Node17 -->
<g id="node17" class="node">
<title>Node17</title>
<g id="a_node17"><a xlink:href="zwapi__connection_8c.html#a91ce3acd7eff779496789637a9c27f40" target="_top" xlink:title="Provides the data of the serial buffer for the last received frame.">
<polygon fill="none" stroke="black" points="475.5,-88 475.5,-118 588.5,-118 588.5,-88 475.5,-88"/>
<text text-anchor="start" x="483.5" y="-106" font-family="Helvetica,sans-Serif" font-size="10.00">zwapi_connection_get</text>
<text text-anchor="middle" x="532" y="-95" font-family="Helvetica,sans-Serif" font-size="10.00">_last_rx_frame</text>
</a>
</g>
</g>
<!-- Node16&#45;&gt;Node17 -->
<g id="edge19" class="edge">
<title>Node16&#45;&gt;Node17</title>
<path fill="none" stroke="midnightblue" d="M428.7,-97.98C440.65,-98.57 453.24,-99.18 465.34,-99.78"/>
<polygon fill="midnightblue" stroke="midnightblue" points="465.21,-103.28 475.37,-100.27 465.55,-96.28 465.21,-103.28"/>
</g>
<!-- Node18 -->
<g id="node18" class="node">
<title>Node18</title>
<g id="a_node18"><a xlink:href="zwapi__session_8c.html#ad7bac697ee2388b38ed3777b5a3862bc" target="_top" xlink:title=" ">
<polygon fill="none" stroke="black" points="475.5,-39 475.5,-69 588.5,-69 588.5,-39 475.5,-39"/>
<text text-anchor="start" x="483.5" y="-57" font-family="Helvetica,sans-Serif" font-size="10.00">zwapi_session_get_rx</text>
<text text-anchor="middle" x="532" y="-46" font-family="Helvetica,sans-Serif" font-size="10.00">_queue_length</text>
</a>
</g>
</g>
<!-- Node16&#45;&gt;Node18 -->
<g id="edge20" class="edge">
<title>Node16&#45;&gt;Node18</title>
<path fill="none" stroke="midnightblue" d="M427.77,-79.97C440.03,-76.88 453,-73.62 465.45,-70.49"/>
<polygon fill="midnightblue" stroke="midnightblue" points="466.45,-73.84 475.3,-68.01 464.75,-67.06 466.45,-73.84"/>
</g>
<!-- Node19 -->
<g id="node19" class="node">
<title>Node19</title>
<g id="a_node19"><a xlink:href="group__ZWAPI__INIT.html#ga438a74c9752197d20d377874d5a61694" target="_top" xlink:title="Returns the pointer to the callbacks registered at init.">
<polygon fill="none" stroke="black" points="468,-0.5 468,-19.5 596,-19.5 596,-0.5 468,-0.5"/>
<text text-anchor="middle" x="532" y="-7.5" font-family="Helvetica,sans-Serif" font-size="10.00">zwave_api_get_callbacks</text>
</a>
</g>
</g>
<!-- Node16&#45;&gt;Node19 -->
<g id="edge21" class="edge">
<title>Node16&#45;&gt;Node19</title>
<path fill="none" stroke="midnightblue" d="M387.29,-79.8C406.73,-65.09 438.05,-43.03 468,-29 472.91,-26.7 478.17,-24.6 483.48,-22.7"/>
<polygon fill="midnightblue" stroke="midnightblue" points="484.65,-26 493.02,-19.51 482.43,-19.36 484.65,-26"/>
</g>
<!-- Node20&#45;&gt;Node16 -->
<g id="edge34" class="edge">
<title>Node20&#45;&gt;Node16</title>
<path fill="none" stroke="midnightblue" d="M260.29,-123.98C273.51,-120.35 287.77,-116.45 301.4,-112.71"/>
<polygon fill="midnightblue" stroke="midnightblue" points="302.47,-116.05 311.19,-110.03 300.62,-109.29 302.47,-116.05"/>
</g>
<!-- Node21 -->
<g id="node21" class="node">
<title>Node21</title>
<g id="a_node21"><a xlink:href="zwapi__connection_8c.html#a1e45c6c9695b5e7b415adfad40080720" target="_top" xlink:title="Parses serial data sent from the Z&#45;Wave module to the serial port. Should be frequently called by mai...">
<polygon fill="none" stroke="black" points="302,-249.5 302,-268.5 432,-268.5 432,-249.5 302,-249.5"/>
<text text-anchor="middle" x="367" y="-256.5" font-family="Helvetica,sans-Serif" font-size="10.00">zwapi_connection_refresh</text>
</a>
</g>
</g>
<!-- Node20&#45;&gt;Node21 -->
<g id="edge23" class="edge">
<title>Node20&#45;&gt;Node21</title>
<path fill="none" stroke="midnightblue" d="M225.83,-154.2C256.38,-177.04 313.87,-220.02 344.88,-243.21"/>
<polygon fill="midnightblue" stroke="midnightblue" points="343.14,-246.28 353.24,-249.46 347.33,-240.67 343.14,-246.28"/>
</g>
<!-- Node21&#45;&gt;Node3 -->
<g id="edge25" class="edge">
<title>Node21&#45;&gt;Node3</title>
<path fill="none" stroke="midnightblue" d="M373.77,-268.72C387.45,-291.01 424.01,-346.27 468,-378 470.62,-379.89 473.41,-381.67 476.3,-383.33"/>
<polygon fill="midnightblue" stroke="midnightblue" points="474.7,-386.44 485.18,-387.97 477.94,-380.24 474.7,-386.44"/>
</g>
<!-- Node21&#45;&gt;Node4 -->
<g id="edge32" class="edge">
<title>Node21&#45;&gt;Node4</title>
<path fill="none" stroke="midnightblue" d="M395.72,-268.52C407.09,-272.66 420.31,-277.75 432,-283 448.5,-290.41 451.26,-295.13 468,-302 473.48,-304.25 479.33,-306.37 485.18,-308.32"/>
<polygon fill="midnightblue" stroke="midnightblue" points="484.34,-311.72 494.93,-311.43 486.47,-305.05 484.34,-311.72"/>
</g>
<!-- Node21&#45;&gt;Node12 -->
<g id="edge33" class="edge">
<title>Node21&#45;&gt;Node12</title>
<path fill="none" stroke="midnightblue" d="M405.71,-268.55C414.95,-272.07 424.36,-276.78 432,-283 455.24,-301.91 444.15,-321.86 468,-340 470.47,-341.88 473.12,-343.57 475.89,-345.09"/>
<polygon fill="midnightblue" stroke="midnightblue" points="474.51,-348.31 485.05,-349.42 477.5,-341.99 474.51,-348.31"/>
</g>
<!-- Node21&#45;&gt;Node15 -->
<g id="edge24" class="edge">
<title>Node21&#45;&gt;Node15</title>
<path fill="none" stroke="midnightblue" d="M406.11,-249.4C415.24,-245.89 424.5,-241.2 432,-235 455.67,-215.43 444.38,-195.64 468,-176 469.55,-174.71 471.18,-173.48 472.87,-172.32"/>
<polygon fill="midnightblue" stroke="midnightblue" points="474.95,-175.15 481.73,-167.01 471.35,-169.15 474.95,-175.15"/>
</g>
<!-- Node22 -->
<g id="node22" class="node">
<title>Node22</title>
<g id="a_node22"><a xlink:href="zwapi__serial_8c.html#a538134f9fdbb1ce052667b3a041357bd" target="_top" xlink:title="Reads the output of the serial port device and stores the content in a buffer.">
<polygon fill="none" stroke="black" points="632,-272.5 632,-291.5 751,-291.5 751,-272.5 632,-272.5"/>
<text text-anchor="middle" x="691.5" y="-279.5" font-family="Helvetica,sans-Serif" font-size="10.00">zwapi_serial_get_buffer</text>
</a>
</g>
</g>
<!-- Node21&#45;&gt;Node22 -->
<g id="edge26" class="edge">
<title>Node21&#45;&gt;Node22</title>
<path fill="none" stroke="midnightblue" d="M432.06,-257.57C477.86,-257.24 540.88,-258.19 596,-264 609.76,-265.45 624.52,-267.85 638.18,-270.43"/>
<polygon fill="midnightblue" stroke="midnightblue" points="637.9,-273.94 648.39,-272.43 639.24,-267.07 637.9,-273.94"/>
</g>
<!-- Node23 -->
<g id="node23" class="node">
<title>Node23</title>
<g id="a_node23"><a xlink:href="zwapi__serial_8c.html#abb082b1e7e727203e3ca5fbeb41f7c2b" target="_top" xlink:title="Reads a byte from the serial port device.">
<polygon fill="none" stroke="black" points="475.5,-273.5 475.5,-292.5 588.5,-292.5 588.5,-273.5 475.5,-273.5"/>
<text text-anchor="middle" x="532" y="-280.5" font-family="Helvetica,sans-Serif" font-size="10.00">zwapi_serial_get_byte</text>
</a>
</g>
</g>
<!-- Node21&#45;&gt;Node23 -->
<g id="edge29" class="edge">
<title>Node21&#45;&gt;Node23</title>
<path fill="none" stroke="midnightblue" d="M432.42,-268.49C443.32,-270.09 454.65,-271.76 465.58,-273.37"/>
<polygon fill="midnightblue" stroke="midnightblue" points="465.07,-276.83 475.47,-274.82 466.09,-269.91 465.07,-276.83"/>
</g>
<!-- Node24 -->
<g id="node24" class="node">
<title>Node24</title>
<g id="a_node24"><a xlink:href="zwapi__serial_8c.html#a9a952dc2b34d92960246f6dc4e7d58f7" target="_top" xlink:title="Check the file descriptor for the serial device is available for I/O operations.">
<polygon fill="none" stroke="black" points="481.5,-186 481.5,-216 582.5,-216 582.5,-186 481.5,-186"/>
<text text-anchor="start" x="489.5" y="-204" font-family="Helvetica,sans-Serif" font-size="10.00">zwapi_serial_is_file</text>
<text text-anchor="middle" x="532" y="-193" font-family="Helvetica,sans-Serif" font-size="10.00">_available</text>
</a>
</g>
</g>
<!-- Node21&#45;&gt;Node24 -->
<g id="edge31" class="edge">
<title>Node21&#45;&gt;Node24</title>
<path fill="none" stroke="midnightblue" d="M394.92,-249.42C417.73,-241.31 451.09,-229.43 479.08,-219.48"/>
<polygon fill="midnightblue" stroke="midnightblue" points="480.48,-222.69 488.73,-216.04 478.13,-216.1 480.48,-222.69"/>
</g>
<!-- Node22&#45;&gt;Node6 -->
<g id="edge27" class="edge">
<title>Node22&#45;&gt;Node6</title>
<path fill="none" stroke="midnightblue" d="M730.42,-291.51C753.55,-297.31 783.33,-304.78 808.09,-310.99"/>
<polygon fill="midnightblue" stroke="midnightblue" points="807.45,-314.43 818,-313.47 809.15,-307.64 807.45,-314.43"/>
</g>
<!-- Node22&#45;&gt;Node7 -->
<g id="edge28" class="edge">
<title>Node22&#45;&gt;Node7</title>
<path fill="none" stroke="midnightblue" d="M751.07,-280.93C764.65,-280.68 779.16,-280.41 792.92,-280.16"/>
<polygon fill="midnightblue" stroke="midnightblue" points="793.34,-283.65 803.28,-279.97 793.22,-276.65 793.34,-283.65"/>
</g>
<!-- Node23&#45;&gt;Node22 -->
<g id="edge30" class="edge">
<title>Node23&#45;&gt;Node22</title>
<path fill="none" stroke="midnightblue" d="M588.53,-282.65C599.24,-282.58 610.59,-282.51 621.66,-282.44"/>
<polygon fill="midnightblue" stroke="midnightblue" points="621.76,-285.94 631.74,-282.37 621.71,-278.94 621.76,-285.94"/>
</g>
<!-- Node25&#45;&gt;Node12 -->
<g id="edge38" class="edge">
<title>Node25&#45;&gt;Node12</title>
<path fill="none" stroke="midnightblue" d="M256.91,-269.69C303.51,-280.17 373.61,-297.92 432,-321 448.83,-327.65 451.26,-333.13 468,-340 473.48,-342.25 479.33,-344.37 485.18,-346.32"/>
<polygon fill="midnightblue" stroke="midnightblue" points="484.34,-349.72 494.93,-349.43 486.47,-343.05 484.34,-349.72"/>
</g>
<!-- Node25&#45;&gt;Node15 -->
<g id="edge37" class="edge">
<title>Node25&#45;&gt;Node15</title>
<path fill="none" stroke="midnightblue" d="M256.7,-248.99C303.45,-238.92 373.93,-221.39 432,-197 449.08,-189.83 451.29,-183.99 468,-176 471.58,-174.29 475.32,-172.61 479.11,-170.98"/>
<polygon fill="midnightblue" stroke="midnightblue" points="480.67,-174.12 488.57,-167.07 478,-167.65 480.67,-174.12"/>
</g>
<!-- Node25&#45;&gt;Node21 -->
<g id="edge36" class="edge">
<title>Node25&#45;&gt;Node21</title>
<path fill="none" stroke="midnightblue" d="M256.72,-259C267.79,-259 279.71,-259 291.47,-259"/>
<polygon fill="midnightblue" stroke="midnightblue" points="291.73,-262.5 301.73,-259 291.73,-255.5 291.73,-262.5"/>
</g>
</g>
</svg>
