<?xml version="1.0" encoding="UTF-8" standalone="no"?>
<!DOCTYPE svg PUBLIC "-//W3C//DTD SVG 1.1//EN"
 "http://www.w3.org/Graphics/SVG/1.1/DTD/svg11.dtd">
<!-- Generated by graphviz version 2.43.0 (0)
 -->
<!-- Title: zwapi_session_init Pages: 1 -->
<svg width="736pt" height="154pt"
 viewBox="0.00 0.00 736.00 153.50" xmlns="http://www.w3.org/2000/svg" xmlns:xlink="http://www.w3.org/1999/xlink">
<g id="graph0" class="graph" transform="scale(1 1) rotate(0) translate(4 149.5)">
<title>zwapi_session_init</title>
<!-- Node1 -->
<g id="node1" class="node">
<title>Node1</title>
<g id="a_node1"><a xlink:title="Initialize a zwapi_session with the Z&#45;Wave module.">
<polygon fill="#bfbfbf" stroke="black" points="0,-57.5 0,-76.5 99,-76.5 99,-57.5 0,-57.5"/>
<text text-anchor="middle" x="49.5" y="-64.5" font-family="Helvetica,sans-Serif" font-size="10.00">zwapi_session_init</text>
</a>
</g>
</g>
<!-- Node2 -->
<g id="node2" class="node">
<title>Node2</title>
<g id="a_node2"><a xlink:href="zwapi__connection_8c.html#a8d164694b886daa887b418a0765d6030" target="_top" xlink:title="Initialize the zwapi_connection to the Z&#45;Wave module.">
<polygon fill="none" stroke="black" points="135,-57.5 135,-76.5 248,-76.5 248,-57.5 135,-57.5"/>
<text text-anchor="middle" x="191.5" y="-64.5" font-family="Helvetica,sans-Serif" font-size="10.00">zwapi_connection_init</text>
</a>
</g>
</g>
<!-- Node1&#45;&gt;Node2 -->
<g id="edge1" class="edge">
<title>Node1&#45;&gt;Node2</title>
<path fill="none" stroke="midnightblue" d="M99.07,-67C107.36,-67 116.09,-67 124.74,-67"/>
<polygon fill="midnightblue" stroke="midnightblue" points="124.81,-70.5 134.81,-67 124.81,-63.5 124.81,-70.5"/>
</g>
<!-- Node3 -->
<g id="node3" class="node">
<title>Node3</title>
<g id="a_node3"><a xlink:href="zwapi__serial_8c.html#a3f2b3bd848e9fe0e6e137482bed06b46" target="_top" xlink:title="Flush the serial output if using buffered output.">
<polygon fill="none" stroke="black" points="292,-115 292,-145 389,-145 389,-115 292,-115"/>
<text text-anchor="start" x="300" y="-133" font-family="Helvetica,sans-Serif" font-size="10.00">zwapi_serial_drain</text>
<text text-anchor="middle" x="340.5" y="-122" font-family="Helvetica,sans-Serif" font-size="10.00">_buffer</text>
</a>
</g>
</g>
<!-- Node2&#45;&gt;Node3 -->
<g id="edge2" class="edge">
<title>Node2&#45;&gt;Node3</title>
<path fill="none" stroke="midnightblue" d="M214.83,-76.57C236,-85.64 268.42,-99.54 294.9,-110.88"/>
<polygon fill="midnightblue" stroke="midnightblue" points="293.78,-114.21 304.35,-114.93 296.54,-107.78 293.78,-114.21"/>
</g>
<!-- Node4 -->
<g id="node4" class="node">
<title>Node4</title>
<g id="a_node4"><a xlink:href="zwapi__serial_8c.html#a07b09de97f4932d882fc77e191c44638" target="_top" xlink:title="Initialize the serial port to 115200 BAUD 8N1.">
<polygon fill="none" stroke="black" points="296,-76.5 296,-95.5 385,-95.5 385,-76.5 296,-76.5"/>
<text text-anchor="middle" x="340.5" y="-83.5" font-family="Helvetica,sans-Serif" font-size="10.00">zwapi_serial_init</text>
</a>
</g>
</g>
<!-- Node2&#45;&gt;Node4 -->
<g id="edge3" class="edge">
<title>Node2&#45;&gt;Node4</title>
<path fill="none" stroke="midnightblue" d="M248.07,-74.18C260.4,-75.78 273.44,-77.46 285.69,-79.04"/>
<polygon fill="midnightblue" stroke="midnightblue" points="285.39,-82.54 295.76,-80.35 286.29,-75.59 285.39,-82.54"/>
</g>
<!-- Node6 -->
<g id="node6" class="node">
<title>Node6</title>
<g id="a_node6"><a xlink:href="zwapi__serial_8c.html#a7762d0358e9f398b92edbfd6a550984a" target="_top" xlink:title="Write a byte to serial port device.">
<polygon fill="none" stroke="black" points="284,-38.5 284,-57.5 397,-57.5 397,-38.5 284,-38.5"/>
<text text-anchor="middle" x="340.5" y="-45.5" font-family="Helvetica,sans-Serif" font-size="10.00">zwapi_serial_put_byte</text>
</a>
</g>
</g>
<!-- Node2&#45;&gt;Node6 -->
<g id="edge5" class="edge">
<title>Node2&#45;&gt;Node6</title>
<path fill="none" stroke="midnightblue" d="M248.07,-59.82C256.49,-58.73 265.24,-57.6 273.84,-56.49"/>
<polygon fill="midnightblue" stroke="midnightblue" points="274.38,-59.95 283.85,-55.19 273.48,-53 274.38,-59.95"/>
</g>
<!-- Node10 -->
<g id="node10" class="node">
<title>Node10</title>
<g id="a_node10"><a xlink:href="zwapi__timestamp_8c.html#a6ebe1ddfe689bce6ee72fc12f708aece" target="_top" xlink:title="get the timestamp">
<polygon fill="none" stroke="black" points="284.5,-0.5 284.5,-19.5 396.5,-19.5 396.5,-0.5 284.5,-0.5"/>
<text text-anchor="middle" x="340.5" y="-7.5" font-family="Helvetica,sans-Serif" font-size="10.00">zwapi_timestamp_get</text>
</a>
</g>
</g>
<!-- Node2&#45;&gt;Node10 -->
<g id="edge9" class="edge">
<title>Node2&#45;&gt;Node10</title>
<path fill="none" stroke="midnightblue" d="M214.53,-57.39C232.97,-49.45 260.03,-38.07 284,-29 289.49,-26.92 295.33,-24.82 301.07,-22.8"/>
<polygon fill="midnightblue" stroke="midnightblue" points="302.26,-26.09 310.57,-19.51 299.97,-19.48 302.26,-26.09"/>
</g>
<!-- Node5 -->
<g id="node5" class="node">
<title>Node5</title>
<g id="a_node5"><a xlink:href="zwapi__serial_8c.html#aefeac5909b0bf6411db1492f69c3bc68" target="_top" xlink:title=" ">
<polygon fill="none" stroke="black" points="433,-76.5 433,-95.5 552,-95.5 552,-76.5 433,-76.5"/>
<text text-anchor="middle" x="492.5" y="-83.5" font-family="Helvetica,sans-Serif" font-size="10.00">zwapi_open_serial_port</text>
</a>
</g>
</g>
<!-- Node4&#45;&gt;Node5 -->
<g id="edge4" class="edge">
<title>Node4&#45;&gt;Node5</title>
<path fill="none" stroke="midnightblue" d="M385.29,-86C397.03,-86 410,-86 422.74,-86"/>
<polygon fill="midnightblue" stroke="midnightblue" points="422.87,-89.5 432.87,-86 422.87,-82.5 422.87,-89.5"/>
</g>
<!-- Node7 -->
<g id="node7" class="node">
<title>Node7</title>
<g id="a_node7"><a xlink:href="zwapi__serial_8c.html#af9054824651df422bab5076d16a80fda" target="_top" xlink:title="Writes the content of a buffer to the serial port device.">
<polygon fill="none" stroke="black" points="433,-38.5 433,-57.5 552,-57.5 552,-38.5 433,-38.5"/>
<text text-anchor="middle" x="492.5" y="-45.5" font-family="Helvetica,sans-Serif" font-size="10.00">zwapi_serial_put_buffer</text>
</a>
</g>
</g>
<!-- Node6&#45;&gt;Node7 -->
<g id="edge6" class="edge">
<title>Node6&#45;&gt;Node7</title>
<path fill="none" stroke="midnightblue" d="M397.35,-48C405.59,-48 414.15,-48 422.6,-48"/>
<polygon fill="midnightblue" stroke="midnightblue" points="422.84,-51.5 432.84,-48 422.84,-44.5 422.84,-51.5"/>
</g>
<!-- Node8 -->
<g id="node8" class="node">
<title>Node8</title>
<g id="a_node8"><a xlink:href="zwapi__serial_8c.html#a0accbbf7ddb7aeab10f5df1fe3df6642" target="_top" xlink:title=" ">
<polygon fill="none" stroke="black" points="588,-60.5 588,-79.5 728,-79.5 728,-60.5 588,-60.5"/>
<text text-anchor="middle" x="658" y="-67.5" font-family="Helvetica,sans-Serif" font-size="10.00">zwapi_serial_log_timestamp</text>
</a>
</g>
</g>
<!-- Node7&#45;&gt;Node8 -->
<g id="edge7" class="edge">
<title>Node7&#45;&gt;Node8</title>
<path fill="none" stroke="midnightblue" d="M552.07,-55.88C560.43,-57.01 569.15,-58.18 577.82,-59.35"/>
<polygon fill="midnightblue" stroke="midnightblue" points="577.59,-62.85 587.97,-60.71 578.53,-55.91 577.59,-62.85"/>
</g>
<!-- Node9 -->
<g id="node9" class="node">
<title>Node9</title>
<g id="a_node9"><a xlink:href="zwapi__serial_8c.html#abf18afb71e14daaf65d937149ef1639f" target="_top" xlink:title="Test if a is less than b + ms.">
<polygon fill="none" stroke="black" points="604.5,-11 604.5,-41 711.5,-41 711.5,-11 604.5,-11"/>
<text text-anchor="start" x="612.5" y="-29" font-family="Helvetica,sans-Serif" font-size="10.00">zwapi_serial_timeval</text>
<text text-anchor="middle" x="658" y="-18" font-family="Helvetica,sans-Serif" font-size="10.00">_a_lt_b_milis</text>
</a>
</g>
</g>
<!-- Node7&#45;&gt;Node9 -->
<g id="edge8" class="edge">
<title>Node7&#45;&gt;Node9</title>
<path fill="none" stroke="midnightblue" d="M552.07,-40.12C565.78,-38.27 580.44,-36.3 594.33,-34.43"/>
<polygon fill="midnightblue" stroke="midnightblue" points="594.83,-37.9 604.28,-33.09 593.9,-30.96 594.83,-37.9"/>
</g>
</g>
</svg>
