<?xml version="1.0" encoding="UTF-8" standalone="no"?>
<!DOCTYPE svg PUBLIC "-//W3C//DTD SVG 1.1//EN"
 "http://www.w3.org/Graphics/SVG/1.1/DTD/svg11.dtd">
<!-- Generated by graphviz version 2.43.0 (0)
 -->
<!-- Title: zwapi_session_flush_queue Pages: 1 -->
<svg width="699pt" height="116pt"
 viewBox="0.00 0.00 699.00 116.00" xmlns="http://www.w3.org/2000/svg" xmlns:xlink="http://www.w3.org/1999/xlink">
<g id="graph0" class="graph" transform="scale(1 1) rotate(0) translate(4 112)">
<title>zwapi_session_flush_queue</title>
<!-- Node1 -->
<g id="node1" class="node">
<title>Node1</title>
<g id="a_node1"><a xlink:title="Flush the zwapi_session receive queue.">
<polygon fill="#bfbfbf" stroke="black" points="584,-39 584,-69 691,-69 691,-39 584,-39"/>
<text text-anchor="start" x="592" y="-57" font-family="Helvetica,sans-Serif" font-size="10.00">zwapi_session_flush</text>
<text text-anchor="middle" x="637.5" y="-46" font-family="Helvetica,sans-Serif" font-size="10.00">_queue</text>
</a>
</g>
</g>
<!-- Node2 -->
<g id="node2" class="node">
<title>Node2</title>
<g id="a_node2"><a xlink:href="group__ZWAPI__INIT.html#gab39e440bdb6435b04e754771c5ad41b5" target="_top" xlink:title="Refresh the whole zwapi_chip_data_t structure from the Z&#45;Wave module.">
<polygon fill="none" stroke="black" points="417,-63.5 417,-82.5 548,-82.5 548,-63.5 417,-63.5"/>
<text text-anchor="middle" x="482.5" y="-70.5" font-family="Helvetica,sans-Serif" font-size="10.00">zwapi_refresh_capabilities</text>
</a>
</g>
</g>
<!-- Node1&#45;&gt;Node2 -->
<g id="edge1" class="edge">
<title>Node1&#45;&gt;Node2</title>
<path fill="none" stroke="midnightblue" d="M573.71,-61.8C565.27,-62.85 556.61,-63.92 548.15,-64.97"/>
<polygon fill="midnightblue" stroke="midnightblue" points="574.35,-65.24 583.85,-60.54 573.49,-58.3 574.35,-65.24"/>
</g>
<!-- Node7 -->
<g id="node7" class="node">
<title>Node7</title>
<g id="a_node7"><a xlink:href="zwapi__session_8c.html#a6f5555814b03c924b3d057d1b4080cf1" target="_top" xlink:title="Close the zwapi_session with the Z&#45;Wave module.">
<polygon fill="none" stroke="black" points="418.5,-25.5 418.5,-44.5 546.5,-44.5 546.5,-25.5 418.5,-25.5"/>
<text text-anchor="middle" x="482.5" y="-32.5" font-family="Helvetica,sans-Serif" font-size="10.00">zwapi_session_shutdown</text>
</a>
</g>
</g>
<!-- Node1&#45;&gt;Node7 -->
<g id="edge6" class="edge">
<title>Node1&#45;&gt;Node7</title>
<path fill="none" stroke="midnightblue" d="M573.82,-46.22C564.82,-45.1 555.55,-43.95 546.54,-42.83"/>
<polygon fill="midnightblue" stroke="midnightblue" points="573.49,-49.7 583.85,-47.46 574.35,-42.76 573.49,-49.7"/>
</g>
<!-- Node3 -->
<g id="node3" class="node">
<title>Node3</title>
<g id="a_node3"><a xlink:href="group__ZWAPI__INIT.html#ga503a76a5835c274e4b7610e2f80f5e6f" target="_top" xlink:title=" ">
<polygon fill="none" stroke="black" points="311,-63.5 311,-82.5 371,-82.5 371,-63.5 311,-63.5"/>
<text text-anchor="middle" x="341" y="-70.5" font-family="Helvetica,sans-Serif" font-size="10.00">zwapi_init</text>
</a>
</g>
</g>
<!-- Node2&#45;&gt;Node3 -->
<g id="edge2" class="edge">
<title>Node2&#45;&gt;Node3</title>
<path fill="none" stroke="midnightblue" d="M406.55,-73C393.98,-73 381.63,-73 371.16,-73"/>
<polygon fill="midnightblue" stroke="midnightblue" points="406.65,-76.5 416.65,-73 406.65,-69.5 406.65,-76.5"/>
</g>
<!-- Node4 -->
<g id="node4" class="node">
<title>Node4</title>
<g id="a_node4"><a xlink:href="group__zpc__ncp__update__fixt.html#gaaca8dd596d6abe6ca27de8d7c93c5cf2" target="_top" xlink:title="This function check if the NCP firmware should be updated.">
<polygon fill="none" stroke="black" points="158,-39 158,-69 265,-69 265,-39 158,-39"/>
<text text-anchor="start" x="166" y="-57" font-family="Helvetica,sans-Serif" font-size="10.00">zpc_ncp_update_fixt</text>
<text text-anchor="middle" x="211.5" y="-46" font-family="Helvetica,sans-Serif" font-size="10.00">_setup</text>
</a>
</g>
</g>
<!-- Node3&#45;&gt;Node4 -->
<g id="edge3" class="edge">
<title>Node3&#45;&gt;Node4</title>
<path fill="none" stroke="midnightblue" d="M300.8,-67.16C289.54,-65.48 277.08,-63.62 265.15,-61.85"/>
<polygon fill="midnightblue" stroke="midnightblue" points="300.34,-70.63 310.75,-68.64 301.37,-63.71 300.34,-70.63"/>
</g>
<!-- Node5 -->
<g id="node5" class="node">
<title>Node5</title>
<g id="a_node5"><a xlink:href="group__zwave__rx__internals.html#ga5fb555f285dbe1b21ba750d0443476c8" target="_top" xlink:title="Initialize the Z&#45;Wave Rx component.">
<polygon fill="none" stroke="black" points="173,-88.5 173,-107.5 250,-107.5 250,-88.5 173,-88.5"/>
<text text-anchor="middle" x="211.5" y="-95.5" font-family="Helvetica,sans-Serif" font-size="10.00">zwave_rx_init</text>
</a>
</g>
</g>
<!-- Node3&#45;&gt;Node5 -->
<g id="edge4" class="edge">
<title>Node3&#45;&gt;Node5</title>
<path fill="none" stroke="midnightblue" d="M300.63,-80.72C284.61,-83.86 266.18,-87.47 250.33,-90.58"/>
<polygon fill="midnightblue" stroke="midnightblue" points="301.61,-84.09 310.75,-78.74 300.26,-77.23 301.61,-84.09"/>
</g>
<!-- Node6 -->
<g id="node6" class="node">
<title>Node6</title>
<g id="a_node6"><a xlink:href="group__zwave__rx__fixt.html#ga89a6db07ef29cb6ad8f8cdeec935b442" target="_top" xlink:title=" ">
<polygon fill="none" stroke="black" points="7.5,-88.5 7.5,-107.5 114.5,-107.5 114.5,-88.5 7.5,-88.5"/>
<text text-anchor="middle" x="61" y="-95.5" font-family="Helvetica,sans-Serif" font-size="10.00">zwave_rx_fixt_setup</text>
</a>
</g>
</g>
<!-- Node5&#45;&gt;Node6 -->
<g id="edge5" class="edge">
<title>Node5&#45;&gt;Node6</title>
<path fill="none" stroke="midnightblue" d="M162.39,-98C147.13,-98 130.19,-98 114.63,-98"/>
<polygon fill="midnightblue" stroke="midnightblue" points="162.64,-101.5 172.64,-98 162.64,-94.5 162.64,-101.5"/>
</g>
<!-- Node8 -->
<g id="node8" class="node">
<title>Node8</title>
<g id="a_node8"><a xlink:href="group__ZWAPI__INIT.html#ga87ccde341e5cf630064d51222bf56fb9" target="_top" xlink:title="Shut down the Z&#45;Wave API and close the communication ports.">
<polygon fill="none" stroke="black" points="301,-25.5 301,-44.5 381,-44.5 381,-25.5 301,-25.5"/>
<text text-anchor="middle" x="341" y="-32.5" font-family="Helvetica,sans-Serif" font-size="10.00">zwapi_destroy</text>
</a>
</g>
</g>
<!-- Node7&#45;&gt;Node8 -->
<g id="edge7" class="edge">
<title>Node7&#45;&gt;Node8</title>
<path fill="none" stroke="midnightblue" d="M408.14,-35C398.8,-35 389.54,-35 381.04,-35"/>
<polygon fill="midnightblue" stroke="midnightblue" points="408.28,-38.5 418.28,-35 408.28,-31.5 408.28,-38.5"/>
</g>
<!-- Node8&#45;&gt;Node4 -->
<g id="edge8" class="edge">
<title>Node8&#45;&gt;Node4</title>
<path fill="none" stroke="midnightblue" d="M290.67,-42.35C282.27,-43.6 273.52,-44.91 265.04,-46.17"/>
<polygon fill="midnightblue" stroke="midnightblue" points="291.33,-45.79 300.71,-40.86 290.3,-38.87 291.33,-45.79"/>
</g>
<!-- Node9 -->
<g id="node9" class="node">
<title>Node9</title>
<g id="a_node9"><a xlink:href="group__zwave__rx__internals.html#gaed3606fa8bb6eff34c27efe91c3525a6" target="_top" xlink:title="Shutdown the module.">
<polygon fill="none" stroke="black" points="158.5,-0.5 158.5,-19.5 264.5,-19.5 264.5,-0.5 158.5,-0.5"/>
<text text-anchor="middle" x="211.5" y="-7.5" font-family="Helvetica,sans-Serif" font-size="10.00">zwave_rx_shutdown</text>
</a>
</g>
</g>
<!-- Node8&#45;&gt;Node9 -->
<g id="edge9" class="edge">
<title>Node8&#45;&gt;Node9</title>
<path fill="none" stroke="midnightblue" d="M290.83,-25.36C281.16,-23.46 271.01,-21.47 261.34,-19.58"/>
<polygon fill="midnightblue" stroke="midnightblue" points="290.22,-28.81 300.71,-27.3 291.57,-21.94 290.22,-28.81"/>
</g>
<!-- Node10 -->
<g id="node10" class="node">
<title>Node10</title>
<g id="a_node10"><a xlink:href="group__zwave__rx__fixt.html#ga56465233b7f28429a246ce87b31efe7b" target="_top" xlink:title=" ">
<polygon fill="none" stroke="black" points="0,-0.5 0,-19.5 122,-19.5 122,-0.5 0,-0.5"/>
<text text-anchor="middle" x="61" y="-7.5" font-family="Helvetica,sans-Serif" font-size="10.00">zwave_rx_fixt_teardown</text>
</a>
</g>
</g>
<!-- Node9&#45;&gt;Node10 -->
<g id="edge10" class="edge">
<title>Node9&#45;&gt;Node10</title>
<path fill="none" stroke="midnightblue" d="M147.91,-10C139.42,-10 130.71,-10 122.25,-10"/>
<polygon fill="midnightblue" stroke="midnightblue" points="148.14,-13.5 158.14,-10 148.14,-6.5 148.14,-13.5"/>
</g>
</g>
</svg>
