<?xml version="1.0" encoding="UTF-8" standalone="no"?>
<!DOCTYPE svg PUBLIC "-//W3C//DTD SVG 1.1//EN"
 "http://www.w3.org/Graphics/SVG/1.1/DTD/svg11.dtd">
<!-- Generated by graphviz version 2.43.0 (0)
 -->
<!-- Title: applications/zpc/components/zwave_api/src/zwapi_init.c Pages: 1 -->
<svg width="713pt" height="319pt"
 viewBox="0.00 0.00 713.22 319.00" xmlns="http://www.w3.org/2000/svg" xmlns:xlink="http://www.w3.org/1999/xlink">
<g id="graph0" class="graph" transform="scale(1 1) rotate(0) translate(4 315)">
<title>applications/zpc/components/zwave_api/src/zwapi_init.c</title>
<!-- Node1 -->
<g id="node1" class="node">
<title>Node1</title>
<g id="a_node1"><a xlink:title=" ">
<polygon fill="#bfbfbf" stroke="black" points="193,-280.5 193,-310.5 336,-310.5 336,-280.5 193,-280.5"/>
<text text-anchor="start" x="201" y="-298.5" font-family="Helvetica,sans-Serif" font-size="10.00">applications/zpc/components</text>
<text text-anchor="middle" x="264.5" y="-287.5" font-family="Helvetica,sans-Serif" font-size="10.00">/zwave_api/src/zwapi_init.c</text>
</a>
</g>
</g>
<!-- Node2 -->
<g id="node2" class="node">
<title>Node2</title>
<g id="a_node2"><a xlink:title=" ">
<polygon fill="none" stroke="#bfbfbf" points="0,-224.5 0,-243.5 49,-243.5 49,-224.5 0,-224.5"/>
<text text-anchor="middle" x="24.5" y="-231.5" font-family="Helvetica,sans-Serif" font-size="10.00">string.h</text>
</a>
</g>
</g>
<!-- Node1&#45;&gt;Node2 -->
<g id="edge1" class="edge">
<title>Node1&#45;&gt;Node2</title>
<path fill="none" stroke="midnightblue" d="M205.82,-280.42C166.9,-271.01 114.45,-258.19 59.01,-244.1"/>
<polygon fill="midnightblue" stroke="midnightblue" points="59.55,-240.62 49,-241.54 57.83,-247.4 59.55,-240.62"/>
</g>
<!-- Node3 -->
<g id="node3" class="node">
<title>Node3</title>
<g id="a_node3"><a xlink:title=" ">
<polygon fill="none" stroke="#bfbfbf" points="67.5,-224.5 67.5,-243.5 115.5,-243.5 115.5,-224.5 67.5,-224.5"/>
<text text-anchor="middle" x="91.5" y="-231.5" font-family="Helvetica,sans-Serif" font-size="10.00">stdlib.h</text>
</a>
</g>
</g>
<!-- Node1&#45;&gt;Node3 -->
<g id="edge2" class="edge">
<title>Node1&#45;&gt;Node3</title>
<path fill="none" stroke="midnightblue" d="M223.5,-280.4C193.6,-270.12 153.56,-256.34 125.45,-246.68"/>
<polygon fill="midnightblue" stroke="midnightblue" points="126.26,-243.26 115.67,-243.31 123.99,-249.87 126.26,-243.26"/>
</g>
<!-- Node4 -->
<g id="node4" class="node">
<title>Node4</title>
<g id="a_node4"><a xlink:title=" ">
<polygon fill="none" stroke="#bfbfbf" points="133.5,-224.5 133.5,-243.5 179.5,-243.5 179.5,-224.5 133.5,-224.5"/>
<text text-anchor="middle" x="156.5" y="-231.5" font-family="Helvetica,sans-Serif" font-size="10.00">stdio.h</text>
</a>
</g>
</g>
<!-- Node1&#45;&gt;Node4 -->
<g id="edge3" class="edge">
<title>Node1&#45;&gt;Node4</title>
<path fill="none" stroke="midnightblue" d="M238.91,-280.4C221.43,-270.77 198.41,-258.09 181.14,-248.58"/>
<polygon fill="midnightblue" stroke="midnightblue" points="182.66,-245.42 172.21,-243.66 179.28,-251.55 182.66,-245.42"/>
</g>
<!-- Node5 -->
<g id="node5" class="node">
<title>Node5</title>
<g id="a_node5"><a xlink:href="zwapi__init_8h.html" target="_top" xlink:title="Z&#45;Wave API initialization functions.">
<polygon fill="none" stroke="black" points="293.5,-168.5 293.5,-187.5 361.5,-187.5 361.5,-168.5 293.5,-168.5"/>
<text text-anchor="middle" x="327.5" y="-175.5" font-family="Helvetica,sans-Serif" font-size="10.00">zwapi_init.h</text>
</a>
</g>
</g>
<!-- Node1&#45;&gt;Node5 -->
<g id="edge4" class="edge">
<title>Node1&#45;&gt;Node5</title>
<path fill="none" stroke="midnightblue" d="M272.02,-280.43C279.65,-266.18 291.82,-243.52 302.5,-224 307.5,-214.87 313.12,-204.74 317.77,-196.4"/>
<polygon fill="midnightblue" stroke="midnightblue" points="320.86,-198.05 322.67,-187.61 314.74,-194.63 320.86,-198.05"/>
</g>
<!-- Node9 -->
<g id="node9" class="node">
<title>Node9</title>
<g id="a_node9"><a xlink:href="zwapi__protocol__basis_8h.html" target="_top" xlink:title="Z&#45;Wave API for basis controller/end node application interface.">
<polygon fill="none" stroke="black" points="368,-112.5 368,-131.5 487,-131.5 487,-112.5 368,-112.5"/>
<text text-anchor="middle" x="427.5" y="-119.5" font-family="Helvetica,sans-Serif" font-size="10.00">zwapi_protocol_basis.h</text>
</a>
</g>
</g>
<!-- Node1&#45;&gt;Node9 -->
<g id="edge19" class="edge">
<title>Node1&#45;&gt;Node9</title>
<path fill="none" stroke="midnightblue" d="M336.16,-284.73C362.23,-277.61 389.66,-265.29 407.5,-244 431.92,-214.86 432.01,-167.5 429.82,-141.51"/>
<polygon fill="midnightblue" stroke="midnightblue" points="433.3,-141.09 428.77,-131.51 426.33,-141.82 433.3,-141.09"/>
</g>
<!-- Node12 -->
<g id="node12" class="node">
<title>Node12</title>
<g id="a_node12"><a xlink:href="zwapi__func__ids_8h.html" target="_top" xlink:title=" ">
<polygon fill="none" stroke="black" points="455.5,-224.5 455.5,-243.5 547.5,-243.5 547.5,-224.5 455.5,-224.5"/>
<text text-anchor="middle" x="501.5" y="-231.5" font-family="Helvetica,sans-Serif" font-size="10.00">zwapi_func_ids.h</text>
</a>
</g>
</g>
<!-- Node1&#45;&gt;Node12 -->
<g id="edge18" class="edge">
<title>Node1&#45;&gt;Node12</title>
<path fill="none" stroke="midnightblue" d="M320.37,-280.47C362.32,-269.94 418.99,-255.72 457.69,-246"/>
<polygon fill="midnightblue" stroke="midnightblue" points="458.77,-249.34 467.62,-243.51 457.07,-242.55 458.77,-249.34"/>
</g>
<!-- Node13 -->
<g id="node13" class="node">
<title>Node13</title>
<g id="a_node13"><a xlink:href="zwapi__session_8h.html" target="_top" xlink:title="Session level handling such as retries and request/response for commands using the zwapi_connection.">
<polygon fill="none" stroke="black" points="144,-112.5 144,-131.5 233,-131.5 233,-112.5 144,-112.5"/>
<text text-anchor="middle" x="188.5" y="-119.5" font-family="Helvetica,sans-Serif" font-size="10.00">zwapi_session.h</text>
</a>
</g>
</g>
<!-- Node1&#45;&gt;Node13 -->
<g id="edge20" class="edge">
<title>Node1&#45;&gt;Node13</title>
<path fill="none" stroke="midnightblue" d="M261.18,-280.27C255.25,-256.24 241.54,-206.47 221.5,-168 216.31,-158.03 209.04,-147.85 202.65,-139.71"/>
<polygon fill="midnightblue" stroke="midnightblue" points="205.22,-137.32 196.2,-131.77 199.79,-141.73 205.22,-137.32"/>
</g>
<!-- Node14 -->
<g id="node14" class="node">
<title>Node14</title>
<g id="a_node14"><a xlink:href="zwapi__serial_8h.html" target="_top" xlink:title="Serial Port API for the Z&#45;Wave module. Used for low level read/write functions to the serial port.">
<polygon fill="none" stroke="black" points="47,-112.5 47,-131.5 126,-131.5 126,-112.5 47,-112.5"/>
<text text-anchor="middle" x="86.5" y="-119.5" font-family="Helvetica,sans-Serif" font-size="10.00">zwapi_serial.h</text>
</a>
</g>
</g>
<!-- Node1&#45;&gt;Node14 -->
<g id="edge23" class="edge">
<title>Node1&#45;&gt;Node14</title>
<path fill="none" stroke="midnightblue" d="M249.93,-280.47C217.03,-248.77 137.17,-171.82 102.74,-138.65"/>
<polygon fill="midnightblue" stroke="midnightblue" points="105.01,-135.98 95.38,-131.56 100.16,-141.02 105.01,-135.98"/>
</g>
<!-- Node15 -->
<g id="node15" class="node">
<title>Node15</title>
<g id="a_node15"><a xlink:href="zwapi__internal_8h.html" target="_top" xlink:title="Private definitions for the Z&#45;Wave API.">
<polygon fill="none" stroke="black" points="312,-224.5 312,-243.5 399,-243.5 399,-224.5 312,-224.5"/>
<text text-anchor="middle" x="355.5" y="-231.5" font-family="Helvetica,sans-Serif" font-size="10.00">zwapi_internal.h</text>
</a>
</g>
</g>
<!-- Node1&#45;&gt;Node15 -->
<g id="edge27" class="edge">
<title>Node1&#45;&gt;Node15</title>
<path fill="none" stroke="midnightblue" d="M286.07,-280.4C300.38,-271.04 319.11,-258.79 333.51,-249.38"/>
<polygon fill="midnightblue" stroke="midnightblue" points="335.8,-252.06 342.26,-243.66 331.97,-246.2 335.8,-252.06"/>
</g>
<!-- Node17 -->
<g id="node17" class="node">
<title>Node17</title>
<g id="a_node17"><a xlink:title=" ">
<polygon fill="none" stroke="#bfbfbf" points="565.5,-224.5 565.5,-243.5 615.5,-243.5 615.5,-224.5 565.5,-224.5"/>
<text text-anchor="middle" x="590.5" y="-231.5" font-family="Helvetica,sans-Serif" font-size="10.00">sl_log.h</text>
</a>
</g>
</g>
<!-- Node1&#45;&gt;Node17 -->
<g id="edge34" class="edge">
<title>Node1&#45;&gt;Node17</title>
<path fill="none" stroke="midnightblue" d="M336.24,-283.89C393.24,-275.04 475.16,-261.42 555.52,-244.07"/>
<polygon fill="midnightblue" stroke="midnightblue" points="556.28,-247.48 565.31,-241.93 554.79,-240.64 556.28,-247.48"/>
</g>
<!-- Node6 -->
<g id="node6" class="node">
<title>Node6</title>
<g id="a_node6"><a xlink:title=" ">
<polygon fill="none" stroke="#bfbfbf" points="498,-0.5 498,-19.5 547,-19.5 547,-0.5 498,-0.5"/>
<text text-anchor="middle" x="522.5" y="-7.5" font-family="Helvetica,sans-Serif" font-size="10.00">stdint.h</text>
</a>
</g>
</g>
<!-- Node5&#45;&gt;Node6 -->
<g id="edge5" class="edge">
<title>Node5&#45;&gt;Node6</title>
<path fill="none" stroke="midnightblue" d="M361.57,-175.07C433.62,-170.52 598.92,-157.57 648.5,-132 678.96,-116.29 688.82,-107.84 701.5,-76 724.64,-17.88 615.78,-10.17 557.41,-10.1"/>
<polygon fill="midnightblue" stroke="midnightblue" points="557.12,-6.6 547.14,-10.16 557.16,-13.6 557.12,-6.6"/>
</g>
<!-- Node7 -->
<g id="node7" class="node">
<title>Node7</title>
<g id="a_node7"><a xlink:title=" ">
<polygon fill="none" stroke="#bfbfbf" points="232.5,-0.5 232.5,-19.5 288.5,-19.5 288.5,-0.5 232.5,-0.5"/>
<text text-anchor="middle" x="260.5" y="-7.5" font-family="Helvetica,sans-Serif" font-size="10.00">stdbool.h</text>
</a>
</g>
</g>
<!-- Node5&#45;&gt;Node7 -->
<g id="edge6" class="edge">
<title>Node5&#45;&gt;Node7</title>
<path fill="none" stroke="midnightblue" d="M311.82,-168.34C286.54,-153.37 237.7,-119.98 218.5,-76 210.47,-57.61 226.1,-38.56 240.52,-25.87"/>
<polygon fill="midnightblue" stroke="midnightblue" points="242.74,-28.58 248.25,-19.52 238.3,-23.17 242.74,-28.58"/>
</g>
<!-- Node8 -->
<g id="node8" class="node">
<title>Node8</title>
<g id="a_node8"><a xlink:href="sl__status_8h.html" target="_top" xlink:title="SL Status Codes.">
<polygon fill="none" stroke="black" points="228,-56.5 228,-75.5 293,-75.5 293,-56.5 228,-56.5"/>
<text text-anchor="middle" x="260.5" y="-63.5" font-family="Helvetica,sans-Serif" font-size="10.00">sl_status.h</text>
</a>
</g>
</g>
<!-- Node5&#45;&gt;Node8 -->
<g id="edge7" class="edge">
<title>Node5&#45;&gt;Node8</title>
<path fill="none" stroke="midnightblue" d="M322.24,-168.37C311.23,-150.3 285.58,-108.18 271.04,-84.31"/>
<polygon fill="midnightblue" stroke="midnightblue" points="273.92,-82.31 265.73,-75.59 267.95,-85.95 273.92,-82.31"/>
</g>
<!-- Node5&#45;&gt;Node9 -->
<g id="edge9" class="edge">
<title>Node5&#45;&gt;Node9</title>
<path fill="none" stroke="midnightblue" d="M343.57,-168.32C359.46,-159.74 384.01,-146.49 402.46,-136.52"/>
<polygon fill="midnightblue" stroke="midnightblue" points="404.34,-139.49 411.47,-131.65 401.01,-133.33 404.34,-139.49"/>
</g>
<!-- Node10 -->
<g id="node10" class="node">
<title>Node10</title>
<g id="a_node10"><a xlink:href="zwave__rf__region_8h.html" target="_top" xlink:title=" ">
<polygon fill="none" stroke="black" points="311.5,-56.5 311.5,-75.5 407.5,-75.5 407.5,-56.5 311.5,-56.5"/>
<text text-anchor="middle" x="359.5" y="-63.5" font-family="Helvetica,sans-Serif" font-size="10.00">zwave_rf_region.h</text>
</a>
</g>
</g>
<!-- Node5&#45;&gt;Node10 -->
<g id="edge17" class="edge">
<title>Node5&#45;&gt;Node10</title>
<path fill="none" stroke="midnightblue" d="M330.01,-168.37C335.2,-150.54 347.2,-109.3 354.18,-85.27"/>
<polygon fill="midnightblue" stroke="midnightblue" points="357.57,-86.17 357,-75.59 350.85,-84.22 357.57,-86.17"/>
</g>
<!-- Node8&#45;&gt;Node6 -->
<g id="edge8" class="edge">
<title>Node8&#45;&gt;Node6</title>
<path fill="none" stroke="midnightblue" d="M293.05,-57.99C296.24,-57.32 299.43,-56.64 302.5,-56 367.89,-42.31 444.32,-26.78 487.71,-18.01"/>
<polygon fill="midnightblue" stroke="midnightblue" points="488.63,-21.4 497.74,-15.99 487.24,-14.54 488.63,-21.4"/>
</g>
<!-- Node9&#45;&gt;Node6 -->
<g id="edge10" class="edge">
<title>Node9&#45;&gt;Node6</title>
<path fill="none" stroke="midnightblue" d="M434.95,-112.37C450.77,-94.05 487.91,-51.05 508.37,-27.36"/>
<polygon fill="midnightblue" stroke="midnightblue" points="511.19,-29.45 515.08,-19.59 505.9,-24.87 511.19,-29.45"/>
</g>
<!-- Node9&#45;&gt;Node7 -->
<g id="edge11" class="edge">
<title>Node9&#45;&gt;Node7</title>
<path fill="none" stroke="midnightblue" d="M428.71,-112.2C430.07,-98.42 430.52,-71.71 416.5,-56 386.86,-22.8 334.43,-13.43 298.6,-11.13"/>
<polygon fill="midnightblue" stroke="midnightblue" points="298.67,-7.63 288.51,-10.64 298.33,-14.62 298.67,-7.63"/>
</g>
<!-- Node9&#45;&gt;Node8 -->
<g id="edge12" class="edge">
<title>Node9&#45;&gt;Node8</title>
<path fill="none" stroke="midnightblue" d="M401.04,-112.44C372.82,-103.32 327.96,-88.81 296.53,-78.65"/>
<polygon fill="midnightblue" stroke="midnightblue" points="297.43,-75.26 286.84,-75.52 295.28,-81.92 297.43,-75.26"/>
</g>
<!-- Node9&#45;&gt;Node10 -->
<g id="edge13" class="edge">
<title>Node9&#45;&gt;Node10</title>
<path fill="none" stroke="midnightblue" d="M416.57,-112.32C406.33,-104.18 390.78,-91.84 378.5,-82.09"/>
<polygon fill="midnightblue" stroke="midnightblue" points="380.63,-79.31 370.62,-75.83 376.28,-84.79 380.63,-79.31"/>
</g>
<!-- Node11 -->
<g id="node11" class="node">
<title>Node11</title>
<g id="a_node11"><a xlink:href="zwave__node__id__definitions_8h.html" target="_top" xlink:title=" ">
<polygon fill="none" stroke="black" points="501.5,-56.5 501.5,-75.5 643.5,-75.5 643.5,-56.5 501.5,-56.5"/>
<text text-anchor="middle" x="572.5" y="-63.5" font-family="Helvetica,sans-Serif" font-size="10.00">zwave_node_id_definitions.h</text>
</a>
</g>
</g>
<!-- Node9&#45;&gt;Node11 -->
<g id="edge15" class="edge">
<title>Node9&#45;&gt;Node11</title>
<path fill="none" stroke="midnightblue" d="M450.48,-112.44C474.66,-103.44 512.92,-89.19 540.15,-79.05"/>
<polygon fill="midnightblue" stroke="midnightblue" points="541.48,-82.29 549.63,-75.52 539.04,-75.73 541.48,-82.29"/>
</g>
<!-- Node10&#45;&gt;Node7 -->
<g id="edge14" class="edge">
<title>Node10&#45;&gt;Node7</title>
<path fill="none" stroke="midnightblue" d="M343.59,-56.32C327.86,-47.74 303.56,-34.49 285.29,-24.52"/>
<polygon fill="midnightblue" stroke="midnightblue" points="286.82,-21.37 276.37,-19.65 283.47,-27.52 286.82,-21.37"/>
</g>
<!-- Node11&#45;&gt;Node6 -->
<g id="edge16" class="edge">
<title>Node11&#45;&gt;Node6</title>
<path fill="none" stroke="midnightblue" d="M564.24,-56.08C557.04,-48.3 546.39,-36.8 537.65,-27.37"/>
<polygon fill="midnightblue" stroke="midnightblue" points="539.97,-24.71 530.6,-19.75 534.83,-29.47 539.97,-24.71"/>
</g>
<!-- Node13&#45;&gt;Node7 -->
<g id="edge21" class="edge">
<title>Node13&#45;&gt;Node7</title>
<path fill="none" stroke="midnightblue" d="M176.24,-112.47C159.77,-99.94 134.02,-75.88 147.5,-56 164.19,-31.39 196.71,-20.24 222.59,-15.19"/>
<polygon fill="midnightblue" stroke="midnightblue" points="223.23,-18.63 232.49,-13.48 222.04,-11.73 223.23,-18.63"/>
</g>
<!-- Node13&#45;&gt;Node8 -->
<g id="edge22" class="edge">
<title>Node13&#45;&gt;Node8</title>
<path fill="none" stroke="midnightblue" d="M200.07,-112.32C210.92,-104.18 227.38,-91.84 240.38,-82.09"/>
<polygon fill="midnightblue" stroke="midnightblue" points="242.82,-84.63 248.72,-75.83 238.62,-79.03 242.82,-84.63"/>
</g>
<!-- Node14&#45;&gt;Node6 -->
<g id="edge24" class="edge">
<title>Node14&#45;&gt;Node6</title>
<path fill="none" stroke="midnightblue" d="M100.16,-112.48C123.48,-98.35 172.9,-70.22 218.5,-56 313,-26.53 430.21,-16.14 487.57,-12.65"/>
<polygon fill="midnightblue" stroke="midnightblue" points="488.11,-16.13 497.89,-12.06 487.71,-9.14 488.11,-16.13"/>
</g>
<!-- Node14&#45;&gt;Node7 -->
<g id="edge25" class="edge">
<title>Node14&#45;&gt;Node7</title>
<path fill="none" stroke="midnightblue" d="M91.69,-112.18C100.23,-98.38 118.5,-71.64 140.5,-56 165.2,-38.43 197.6,-26.82 222.5,-19.8"/>
<polygon fill="midnightblue" stroke="midnightblue" points="223.58,-23.13 232.33,-17.15 221.76,-16.37 223.58,-23.13"/>
</g>
<!-- Node14&#45;&gt;Node8 -->
<g id="edge26" class="edge">
<title>Node14&#45;&gt;Node8</title>
<path fill="none" stroke="midnightblue" d="M114.07,-112.44C143.6,-103.28 190.62,-88.69 223.38,-78.52"/>
<polygon fill="midnightblue" stroke="midnightblue" points="224.54,-81.82 233.06,-75.52 222.47,-75.14 224.54,-81.82"/>
</g>
<!-- Node15&#45;&gt;Node5 -->
<g id="edge28" class="edge">
<title>Node15&#45;&gt;Node5</title>
<path fill="none" stroke="midnightblue" d="M350.88,-224.08C347.04,-216.69 341.48,-205.95 336.74,-196.81"/>
<polygon fill="midnightblue" stroke="midnightblue" points="339.75,-195.02 332.04,-187.75 333.53,-198.24 339.75,-195.02"/>
</g>
<!-- Node16 -->
<g id="node16" class="node">
<title>Node16</title>
<g id="a_node16"><a xlink:href="zwapi__protocol__transport_8h.html" target="_top" xlink:title="Z&#45;Wave API for transport application layer interface.">
<polygon fill="none" stroke="black" points="505.5,-112.5 505.5,-131.5 639.5,-131.5 639.5,-112.5 505.5,-112.5"/>
<text text-anchor="middle" x="572.5" y="-119.5" font-family="Helvetica,sans-Serif" font-size="10.00">zwapi_protocol_transport.h</text>
</a>
</g>
</g>
<!-- Node15&#45;&gt;Node16 -->
<g id="edge29" class="edge">
<title>Node15&#45;&gt;Node16</title>
<path fill="none" stroke="midnightblue" d="M372.53,-224.37C410.32,-205.21 501.41,-159.04 546.43,-136.22"/>
<polygon fill="midnightblue" stroke="midnightblue" points="548.21,-139.23 555.55,-131.59 545.05,-132.99 548.21,-139.23"/>
</g>
<!-- Node16&#45;&gt;Node6 -->
<g id="edge30" class="edge">
<title>Node16&#45;&gt;Node6</title>
<path fill="none" stroke="midnightblue" d="M617.89,-112.5C658.12,-102.89 707.37,-84.72 685.5,-56 670.02,-35.66 600.17,-22.17 557.09,-15.62"/>
<polygon fill="midnightblue" stroke="midnightblue" points="557.43,-12.13 547.02,-14.14 556.41,-19.06 557.43,-12.13"/>
</g>
<!-- Node16&#45;&gt;Node7 -->
<g id="edge31" class="edge">
<title>Node16&#45;&gt;Node7</title>
<path fill="none" stroke="midnightblue" d="M598.24,-112.42C628.82,-100.92 673.22,-79.24 652.5,-56 629.18,-29.85 392.71,-16.75 298.72,-12.55"/>
<polygon fill="midnightblue" stroke="midnightblue" points="298.65,-9.04 288.51,-12.1 298.35,-16.04 298.65,-9.04"/>
</g>
<!-- Node16&#45;&gt;Node8 -->
<g id="edge32" class="edge">
<title>Node16&#45;&gt;Node8</title>
<path fill="none" stroke="midnightblue" d="M516.78,-112.48C464.33,-104.29 383.36,-91.19 303.29,-76.08"/>
<polygon fill="midnightblue" stroke="midnightblue" points="303.51,-72.55 293.03,-74.12 302.2,-79.43 303.51,-72.55"/>
</g>
<!-- Node16&#45;&gt;Node11 -->
<g id="edge33" class="edge">
<title>Node16&#45;&gt;Node11</title>
<path fill="none" stroke="midnightblue" d="M572.5,-112.08C572.5,-105.01 572.5,-94.86 572.5,-85.99"/>
<polygon fill="midnightblue" stroke="midnightblue" points="576,-85.75 572.5,-75.75 569,-85.75 576,-85.75"/>
</g>
</g>
</svg>
