<?xml version="1.0" encoding="UTF-8" standalone="no"?>
<!DOCTYPE svg PUBLIC "-//W3C//DTD SVG 1.1//EN"
 "http://www.w3.org/Graphics/SVG/1.1/DTD/svg11.dtd">
<!-- Generated by graphviz version 2.43.0 (0)
 -->
<!-- Title: applications/zpc/components/zwave_api/src/zwapi_serial.h Pages: 1 -->
<svg width="503pt" height="117pt"
 viewBox="0.00 0.00 503.00 117.00" xmlns="http://www.w3.org/2000/svg" xmlns:xlink="http://www.w3.org/1999/xlink">
<g id="graph0" class="graph" transform="scale(1 1) rotate(0) translate(4 113)">
<title>applications/zpc/components/zwave_api/src/zwapi_serial.h</title>
<!-- Node1 -->
<g id="node1" class="node">
<title>Node1</title>
<g id="a_node1"><a xlink:title="Serial Port API for the Z&#45;Wave module. Used for low level read/write functions to the serial port.">
<polygon fill="#bfbfbf" stroke="black" points="173.5,-78.5 173.5,-108.5 321.5,-108.5 321.5,-78.5 173.5,-78.5"/>
<text text-anchor="start" x="181.5" y="-96.5" font-family="Helvetica,sans-Serif" font-size="10.00">applications/zpc/components</text>
<text text-anchor="middle" x="247.5" y="-85.5" font-family="Helvetica,sans-Serif" font-size="10.00">/zwave_api/src/zwapi_serial.h</text>
</a>
</g>
</g>
<!-- Node2 -->
<g id="node2" class="node">
<title>Node2</title>
<g id="a_node2"><a xlink:href="zwapi__serial_8c.html" target="_top" xlink:title=" ">
<polygon fill="none" stroke="black" points="0,-0.5 0,-41.5 143,-41.5 143,-0.5 0,-0.5"/>
<text text-anchor="start" x="8" y="-29.5" font-family="Helvetica,sans-Serif" font-size="10.00">applications/zpc/components</text>
<text text-anchor="start" x="8" y="-18.5" font-family="Helvetica,sans-Serif" font-size="10.00">/zwave_api/platform/posix</text>
<text text-anchor="middle" x="71.5" y="-7.5" font-family="Helvetica,sans-Serif" font-size="10.00">/zwapi_serial.c</text>
</a>
</g>
</g>
<!-- Node1&#45;&gt;Node2 -->
<g id="edge1" class="edge">
<title>Node1&#45;&gt;Node2</title>
<path fill="none" stroke="midnightblue" d="M202.98,-74.67C177.76,-64.57 146.18,-51.92 120.3,-41.55"/>
<polygon fill="midnightblue" stroke="midnightblue" points="201.72,-77.93 212.31,-78.4 204.33,-71.44 201.72,-77.93"/>
</g>
<!-- Node3 -->
<g id="node3" class="node">
<title>Node3</title>
<g id="a_node3"><a xlink:href="zwapi__connection_8c.html" target="_top" xlink:title=" ">
<polygon fill="none" stroke="black" points="161.5,-6 161.5,-36 333.5,-36 333.5,-6 161.5,-6"/>
<text text-anchor="start" x="169.5" y="-24" font-family="Helvetica,sans-Serif" font-size="10.00">applications/zpc/components</text>
<text text-anchor="middle" x="247.5" y="-13" font-family="Helvetica,sans-Serif" font-size="10.00">/zwave_api/src/zwapi_connection.c</text>
</a>
</g>
</g>
<!-- Node1&#45;&gt;Node3 -->
<g id="edge2" class="edge">
<title>Node1&#45;&gt;Node3</title>
<path fill="none" stroke="midnightblue" d="M247.5,-68.23C247.5,-57.57 247.5,-45.41 247.5,-36.25"/>
<polygon fill="midnightblue" stroke="midnightblue" points="244,-68.23 247.5,-78.23 251,-68.23 244,-68.23"/>
</g>
<!-- Node4 -->
<g id="node4" class="node">
<title>Node4</title>
<g id="a_node4"><a xlink:href="zwapi__init_8c.html" target="_top" xlink:title=" ">
<polygon fill="none" stroke="black" points="352,-6 352,-36 495,-36 495,-6 352,-6"/>
<text text-anchor="start" x="360" y="-24" font-family="Helvetica,sans-Serif" font-size="10.00">applications/zpc/components</text>
<text text-anchor="middle" x="423.5" y="-13" font-family="Helvetica,sans-Serif" font-size="10.00">/zwave_api/src/zwapi_init.c</text>
</a>
</g>
</g>
<!-- Node1&#45;&gt;Node4 -->
<g id="edge3" class="edge">
<title>Node1&#45;&gt;Node4</title>
<path fill="none" stroke="midnightblue" d="M292.05,-74.65C321.91,-62.69 360.69,-47.16 388.37,-36.07"/>
<polygon fill="midnightblue" stroke="midnightblue" points="290.67,-71.44 282.69,-78.4 293.28,-77.93 290.67,-71.44"/>
</g>
</g>
</svg>
