<?xml version="1.0" encoding="UTF-8" standalone="no"?>
<!DOCTYPE svg PUBLIC "-//W3C//DTD SVG 1.1//EN"
 "http://www.w3.org/Graphics/SVG/1.1/DTD/svg11.dtd">
<!-- Generated by graphviz version 2.43.0 (0)
 -->
<!-- Title: applications/zpc/components/zwave_api/src/zwapi_protocol_nvm.c Pages: 1 -->
<svg width="694pt" height="319pt"
 viewBox="0.00 0.00 694.26 319.00" xmlns="http://www.w3.org/2000/svg" xmlns:xlink="http://www.w3.org/1999/xlink">
<g id="graph0" class="graph" transform="scale(1 1) rotate(0) translate(4 315)">
<title>applications/zpc/components/zwave_api/src/zwapi_protocol_nvm.c</title>
<!-- Node1 -->
<g id="node1" class="node">
<title>Node1</title>
<g id="a_node1"><a xlink:title=" ">
<polygon fill="#bfbfbf" stroke="black" points="185.5,-280.5 185.5,-310.5 368.5,-310.5 368.5,-280.5 185.5,-280.5"/>
<text text-anchor="start" x="193.5" y="-298.5" font-family="Helvetica,sans-Serif" font-size="10.00">applications/zpc/components</text>
<text text-anchor="middle" x="277" y="-287.5" font-family="Helvetica,sans-Serif" font-size="10.00">/zwave_api/src/zwapi_protocol_nvm.c</text>
</a>
</g>
</g>
<!-- Node2 -->
<g id="node2" class="node">
<title>Node2</title>
<g id="a_node2"><a xlink:href="zwapi__protocol__nvm_8h.html" target="_top" xlink:title="Z&#45;Wave API for NVM manipulation.">
<polygon fill="none" stroke="black" points="0,-168.5 0,-187.5 114,-187.5 114,-168.5 0,-168.5"/>
<text text-anchor="middle" x="57" y="-175.5" font-family="Helvetica,sans-Serif" font-size="10.00">zwapi_protocol_nvm.h</text>
</a>
</g>
</g>
<!-- Node1&#45;&gt;Node2 -->
<g id="edge1" class="edge">
<title>Node1&#45;&gt;Node2</title>
<path fill="none" stroke="midnightblue" d="M234.06,-280.47C208.65,-271.46 176.22,-258.71 149,-244 121.94,-229.38 93.41,-208.19 75.42,-194.02"/>
<polygon fill="midnightblue" stroke="midnightblue" points="77.49,-191.2 67.5,-187.69 73.13,-196.67 77.49,-191.2"/>
</g>
<!-- Node4 -->
<g id="node4" class="node">
<title>Node4</title>
<g id="a_node4"><a xlink:href="zwapi__func__ids_8h.html" target="_top" xlink:title=" ">
<polygon fill="none" stroke="black" points="377,-224.5 377,-243.5 469,-243.5 469,-224.5 377,-224.5"/>
<text text-anchor="middle" x="423" y="-231.5" font-family="Helvetica,sans-Serif" font-size="10.00">zwapi_func_ids.h</text>
</a>
</g>
</g>
<!-- Node1&#45;&gt;Node4 -->
<g id="edge3" class="edge">
<title>Node1&#45;&gt;Node4</title>
<path fill="none" stroke="midnightblue" d="M311.6,-280.4C336.1,-270.42 368.66,-257.15 392.25,-247.53"/>
<polygon fill="midnightblue" stroke="midnightblue" points="393.82,-250.67 401.76,-243.66 391.17,-244.19 393.82,-250.67"/>
</g>
<!-- Node5 -->
<g id="node5" class="node">
<title>Node5</title>
<g id="a_node5"><a xlink:href="zwapi__session_8h.html" target="_top" xlink:title="Session level handling such as retries and request/response for commands using the zwapi_connection.">
<polygon fill="none" stroke="black" points="64.5,-112.5 64.5,-131.5 153.5,-131.5 153.5,-112.5 64.5,-112.5"/>
<text text-anchor="middle" x="109" y="-119.5" font-family="Helvetica,sans-Serif" font-size="10.00">zwapi_session.h</text>
</a>
</g>
</g>
<!-- Node1&#45;&gt;Node5 -->
<g id="edge4" class="edge">
<title>Node1&#45;&gt;Node5</title>
<path fill="none" stroke="midnightblue" d="M262.29,-280.49C251.81,-270.43 237.42,-256.5 225,-244 188.12,-206.88 145.82,-162.22 123.91,-138.91"/>
<polygon fill="midnightblue" stroke="midnightblue" points="126.45,-136.5 117.05,-131.61 121.35,-141.3 126.45,-136.5"/>
</g>
<!-- Node8 -->
<g id="node8" class="node">
<title>Node8</title>
<g id="a_node8"><a xlink:href="zwapi__init_8h.html" target="_top" xlink:title="Z&#45;Wave API initialization functions.">
<polygon fill="none" stroke="black" points="388,-168.5 388,-187.5 456,-187.5 456,-168.5 388,-168.5"/>
<text text-anchor="middle" x="422" y="-175.5" font-family="Helvetica,sans-Serif" font-size="10.00">zwapi_init.h</text>
</a>
</g>
</g>
<!-- Node1&#45;&gt;Node8 -->
<g id="edge8" class="edge">
<title>Node1&#45;&gt;Node8</title>
<path fill="none" stroke="midnightblue" d="M294.78,-280.34C322.33,-258.39 375.09,-216.37 403.23,-193.95"/>
<polygon fill="midnightblue" stroke="midnightblue" points="405.48,-196.64 411.12,-187.67 401.11,-191.16 405.48,-196.64"/>
</g>
<!-- Node12 -->
<g id="node12" class="node">
<title>Node12</title>
<g id="a_node12"><a xlink:href="zwapi__internal_8h.html" target="_top" xlink:title="Private definitions for the Z&#45;Wave API.">
<polygon fill="none" stroke="black" points="233.5,-224.5 233.5,-243.5 320.5,-243.5 320.5,-224.5 233.5,-224.5"/>
<text text-anchor="middle" x="277" y="-231.5" font-family="Helvetica,sans-Serif" font-size="10.00">zwapi_internal.h</text>
</a>
</g>
</g>
<!-- Node1&#45;&gt;Node12 -->
<g id="edge21" class="edge">
<title>Node1&#45;&gt;Node12</title>
<path fill="none" stroke="midnightblue" d="M277,-280.4C277,-272.47 277,-262.46 277,-253.86"/>
<polygon fill="midnightblue" stroke="midnightblue" points="280.5,-253.66 277,-243.66 273.5,-253.66 280.5,-253.66"/>
</g>
<!-- Node3 -->
<g id="node3" class="node">
<title>Node3</title>
<g id="a_node3"><a xlink:title=" ">
<polygon fill="none" stroke="#bfbfbf" points="280.5,-0.5 280.5,-19.5 329.5,-19.5 329.5,-0.5 280.5,-0.5"/>
<text text-anchor="middle" x="305" y="-7.5" font-family="Helvetica,sans-Serif" font-size="10.00">stdint.h</text>
</a>
</g>
</g>
<!-- Node2&#45;&gt;Node3 -->
<g id="edge2" class="edge">
<title>Node2&#45;&gt;Node3</title>
<path fill="none" stroke="midnightblue" d="M54.43,-168.14C51.18,-155.2 46.9,-130.64 55,-112 69.54,-78.55 82.85,-73.22 115,-56 165.06,-29.19 230.97,-18.2 270.54,-13.8"/>
<polygon fill="midnightblue" stroke="midnightblue" points="270.91,-17.28 280.49,-12.77 270.19,-10.32 270.91,-17.28"/>
</g>
<!-- Node6 -->
<g id="node6" class="node">
<title>Node6</title>
<g id="a_node6"><a xlink:title=" ">
<polygon fill="none" stroke="#bfbfbf" points="520,-0.5 520,-19.5 576,-19.5 576,-0.5 520,-0.5"/>
<text text-anchor="middle" x="548" y="-7.5" font-family="Helvetica,sans-Serif" font-size="10.00">stdbool.h</text>
</a>
</g>
</g>
<!-- Node5&#45;&gt;Node6 -->
<g id="edge5" class="edge">
<title>Node5&#45;&gt;Node6</title>
<path fill="none" stroke="midnightblue" d="M109.45,-112.17C110.68,-97.84 115.36,-69.76 133,-56 162.36,-33.09 412.11,-17.96 509.41,-12.89"/>
<polygon fill="midnightblue" stroke="midnightblue" points="509.89,-16.37 519.69,-12.36 509.53,-9.38 509.89,-16.37"/>
</g>
<!-- Node7 -->
<g id="node7" class="node">
<title>Node7</title>
<g id="a_node7"><a xlink:href="sl__status_8h.html" target="_top" xlink:title="SL Status Codes.">
<polygon fill="none" stroke="black" points="142.5,-56.5 142.5,-75.5 207.5,-75.5 207.5,-56.5 142.5,-56.5"/>
<text text-anchor="middle" x="175" y="-63.5" font-family="Helvetica,sans-Serif" font-size="10.00">sl_status.h</text>
</a>
</g>
</g>
<!-- Node5&#45;&gt;Node7 -->
<g id="edge6" class="edge">
<title>Node5&#45;&gt;Node7</title>
<path fill="none" stroke="midnightblue" d="M119.6,-112.32C129.46,-104.26 144.35,-92.08 156.22,-82.37"/>
<polygon fill="midnightblue" stroke="midnightblue" points="158.68,-84.88 164.2,-75.83 154.25,-79.46 158.68,-84.88"/>
</g>
<!-- Node7&#45;&gt;Node3 -->
<g id="edge7" class="edge">
<title>Node7&#45;&gt;Node3</title>
<path fill="none" stroke="midnightblue" d="M195.6,-56.44C216.99,-47.56 250.68,-33.56 275.02,-23.45"/>
<polygon fill="midnightblue" stroke="midnightblue" points="276.61,-26.58 284.5,-19.52 273.92,-20.12 276.61,-26.58"/>
</g>
<!-- Node8&#45;&gt;Node3 -->
<g id="edge9" class="edge">
<title>Node8&#45;&gt;Node3</title>
<path fill="none" stroke="midnightblue" d="M445.79,-168.5C461.72,-161.41 481.46,-149.61 491,-132 503.96,-108.08 475.4,-61.75 469,-56 433.12,-23.76 376.25,-14.34 339.78,-11.75"/>
<polygon fill="midnightblue" stroke="midnightblue" points="339.81,-8.24 329.62,-11.16 339.41,-15.23 339.81,-8.24"/>
</g>
<!-- Node8&#45;&gt;Node6 -->
<g id="edge10" class="edge">
<title>Node8&#45;&gt;Node6</title>
<path fill="none" stroke="midnightblue" d="M456.16,-175.53C514.37,-170.95 631.31,-152.21 681,-76 705.71,-38.09 633.51,-21.58 586.02,-14.97"/>
<polygon fill="midnightblue" stroke="midnightblue" points="586.38,-11.48 576.01,-13.67 585.48,-18.42 586.38,-11.48"/>
</g>
<!-- Node8&#45;&gt;Node7 -->
<g id="edge11" class="edge">
<title>Node8&#45;&gt;Node7</title>
<path fill="none" stroke="midnightblue" d="M387.74,-173.98C332.95,-168.52 228.95,-155.34 201,-132 187.17,-120.46 180.64,-100.49 177.59,-85.72"/>
<polygon fill="midnightblue" stroke="midnightblue" points="181.01,-84.94 175.88,-75.67 174.11,-86.12 181.01,-84.94"/>
</g>
<!-- Node9 -->
<g id="node9" class="node">
<title>Node9</title>
<g id="a_node9"><a xlink:href="zwapi__protocol__basis_8h.html" target="_top" xlink:title="Z&#45;Wave API for basis controller/end node application interface.">
<polygon fill="none" stroke="black" points="362.5,-112.5 362.5,-131.5 481.5,-131.5 481.5,-112.5 362.5,-112.5"/>
<text text-anchor="middle" x="422" y="-119.5" font-family="Helvetica,sans-Serif" font-size="10.00">zwapi_protocol_basis.h</text>
</a>
</g>
</g>
<!-- Node8&#45;&gt;Node9 -->
<g id="edge12" class="edge">
<title>Node8&#45;&gt;Node9</title>
<path fill="none" stroke="midnightblue" d="M422,-168.08C422,-161.01 422,-150.86 422,-141.99"/>
<polygon fill="midnightblue" stroke="midnightblue" points="425.5,-141.75 422,-131.75 418.5,-141.75 425.5,-141.75"/>
</g>
<!-- Node10 -->
<g id="node10" class="node">
<title>Node10</title>
<g id="a_node10"><a xlink:href="zwave__rf__region_8h.html" target="_top" xlink:title=" ">
<polygon fill="none" stroke="black" points="576,-56.5 576,-75.5 672,-75.5 672,-56.5 576,-56.5"/>
<text text-anchor="middle" x="624" y="-63.5" font-family="Helvetica,sans-Serif" font-size="10.00">zwave_rf_region.h</text>
</a>
</g>
</g>
<!-- Node8&#45;&gt;Node10 -->
<g id="edge20" class="edge">
<title>Node8&#45;&gt;Node10</title>
<path fill="none" stroke="midnightblue" d="M444.38,-168.34C465.38,-159.94 497.44,-146.37 524,-132 552.74,-116.45 584.05,-95.37 603.84,-81.48"/>
<polygon fill="midnightblue" stroke="midnightblue" points="605.93,-84.29 612.07,-75.66 601.89,-78.58 605.93,-84.29"/>
</g>
<!-- Node9&#45;&gt;Node3 -->
<g id="edge13" class="edge">
<title>Node9&#45;&gt;Node3</title>
<path fill="none" stroke="midnightblue" d="M431.67,-112.43C445.16,-99.42 466.55,-74.28 453,-56 427.13,-21.1 374.86,-12.34 339.88,-10.62"/>
<polygon fill="midnightblue" stroke="midnightblue" points="339.74,-7.11 329.63,-10.29 339.51,-14.11 339.74,-7.11"/>
</g>
<!-- Node9&#45;&gt;Node6 -->
<g id="edge14" class="edge">
<title>Node9&#45;&gt;Node6</title>
<path fill="none" stroke="midnightblue" d="M431.89,-112.37C453.14,-93.81 503.43,-49.91 530.32,-26.44"/>
<polygon fill="midnightblue" stroke="midnightblue" points="532.93,-28.8 538.16,-19.59 528.32,-23.53 532.93,-28.8"/>
</g>
<!-- Node9&#45;&gt;Node7 -->
<g id="edge15" class="edge">
<title>Node9&#45;&gt;Node7</title>
<path fill="none" stroke="midnightblue" d="M382.86,-112.44C337.84,-102.6 264.17,-86.49 217.7,-76.33"/>
<polygon fill="midnightblue" stroke="midnightblue" points="218.16,-72.85 207.64,-74.14 216.67,-79.69 218.16,-72.85"/>
</g>
<!-- Node9&#45;&gt;Node10 -->
<g id="edge16" class="edge">
<title>Node9&#45;&gt;Node10</title>
<path fill="none" stroke="midnightblue" d="M454.01,-112.44C488.73,-103.16 544.29,-88.31 582.38,-78.13"/>
<polygon fill="midnightblue" stroke="midnightblue" points="583.39,-81.48 592.14,-75.52 581.58,-74.72 583.39,-81.48"/>
</g>
<!-- Node11 -->
<g id="node11" class="node">
<title>Node11</title>
<g id="a_node11"><a xlink:href="zwave__node__id__definitions_8h.html" target="_top" xlink:title=" ">
<polygon fill="none" stroke="black" points="302,-56.5 302,-75.5 444,-75.5 444,-56.5 302,-56.5"/>
<text text-anchor="middle" x="373" y="-63.5" font-family="Helvetica,sans-Serif" font-size="10.00">zwave_node_id_definitions.h</text>
</a>
</g>
</g>
<!-- Node9&#45;&gt;Node11 -->
<g id="edge18" class="edge">
<title>Node9&#45;&gt;Node11</title>
<path fill="none" stroke="midnightblue" d="M413.91,-112.08C406.84,-104.3 396.41,-92.8 387.85,-83.37"/>
<polygon fill="midnightblue" stroke="midnightblue" points="390.25,-80.8 380.94,-75.75 385.07,-85.51 390.25,-80.8"/>
</g>
<!-- Node10&#45;&gt;Node6 -->
<g id="edge17" class="edge">
<title>Node10&#45;&gt;Node6</title>
<path fill="none" stroke="midnightblue" d="M611.79,-56.32C600.22,-48.11 582.62,-35.6 568.84,-25.81"/>
<polygon fill="midnightblue" stroke="midnightblue" points="570.61,-22.77 560.43,-19.83 566.56,-28.48 570.61,-22.77"/>
</g>
<!-- Node11&#45;&gt;Node3 -->
<g id="edge19" class="edge">
<title>Node11&#45;&gt;Node3</title>
<path fill="none" stroke="midnightblue" d="M362.07,-56.32C351.83,-48.18 336.28,-35.84 324,-26.09"/>
<polygon fill="midnightblue" stroke="midnightblue" points="326.13,-23.31 316.12,-19.83 321.78,-28.79 326.13,-23.31"/>
</g>
<!-- Node12&#45;&gt;Node8 -->
<g id="edge22" class="edge">
<title>Node12&#45;&gt;Node8</title>
<path fill="none" stroke="midnightblue" d="M299.98,-224.44C324.16,-215.44 362.42,-201.19 389.65,-191.05"/>
<polygon fill="midnightblue" stroke="midnightblue" points="390.98,-194.29 399.13,-187.52 388.54,-187.73 390.98,-194.29"/>
</g>
<!-- Node13 -->
<g id="node13" class="node">
<title>Node13</title>
<g id="a_node13"><a xlink:href="zwapi__protocol__transport_8h.html" target="_top" xlink:title="Z&#45;Wave API for transport application layer interface.">
<polygon fill="none" stroke="black" points="210,-112.5 210,-131.5 344,-131.5 344,-112.5 210,-112.5"/>
<text text-anchor="middle" x="277" y="-119.5" font-family="Helvetica,sans-Serif" font-size="10.00">zwapi_protocol_transport.h</text>
</a>
</g>
</g>
<!-- Node12&#45;&gt;Node13 -->
<g id="edge23" class="edge">
<title>Node12&#45;&gt;Node13</title>
<path fill="none" stroke="midnightblue" d="M277,-224.37C277,-206.62 277,-165.67 277,-141.6"/>
<polygon fill="midnightblue" stroke="midnightblue" points="280.5,-141.59 277,-131.59 273.5,-141.59 280.5,-141.59"/>
</g>
<!-- Node13&#45;&gt;Node3 -->
<g id="edge24" class="edge">
<title>Node13&#45;&gt;Node3</title>
<path fill="none" stroke="midnightblue" d="M271.27,-112.34C263.63,-99.65 251.97,-75.4 260,-56 264.92,-44.12 274.67,-33.74 283.83,-25.96"/>
<polygon fill="midnightblue" stroke="midnightblue" points="286.25,-28.51 291.94,-19.56 281.92,-23.01 286.25,-28.51"/>
</g>
<!-- Node13&#45;&gt;Node6 -->
<g id="edge25" class="edge">
<title>Node13&#45;&gt;Node6</title>
<path fill="none" stroke="midnightblue" d="M276.39,-112.39C275.92,-98.39 277.21,-70.77 293,-56 323.79,-27.2 446.34,-16.45 509.67,-12.75"/>
<polygon fill="midnightblue" stroke="midnightblue" points="509.88,-16.25 519.67,-12.2 509.49,-9.26 509.88,-16.25"/>
</g>
<!-- Node13&#45;&gt;Node7 -->
<g id="edge26" class="edge">
<title>Node13&#45;&gt;Node7</title>
<path fill="none" stroke="midnightblue" d="M260.61,-112.32C244.33,-103.7 219.13,-90.36 200.28,-80.39"/>
<polygon fill="midnightblue" stroke="midnightblue" points="201.82,-77.24 191.35,-75.65 198.55,-83.43 201.82,-77.24"/>
</g>
<!-- Node13&#45;&gt;Node11 -->
<g id="edge27" class="edge">
<title>Node13&#45;&gt;Node11</title>
<path fill="none" stroke="midnightblue" d="M292.42,-112.32C307.54,-103.82 330.82,-90.73 348.47,-80.8"/>
<polygon fill="midnightblue" stroke="midnightblue" points="350.61,-83.61 357.61,-75.65 347.18,-77.51 350.61,-83.61"/>
</g>
</g>
</svg>
