<?xml version="1.0" encoding="UTF-8" standalone="no"?>
<!DOCTYPE svg PUBLIC "-//W3C//DTD SVG 1.1//EN"
 "http://www.w3.org/Graphics/SVG/1.1/DTD/svg11.dtd">
<!-- Generated by graphviz version 2.43.0 (0)
 -->
<!-- Title: applications/zpc/components/zwave_api/src/zwapi_protocol_controller.c Pages: 1 -->
<svg width="726pt" height="330pt"
 viewBox="0.00 0.00 726.25 330.00" xmlns="http://www.w3.org/2000/svg" xmlns:xlink="http://www.w3.org/1999/xlink">
<g id="graph0" class="graph" transform="scale(1 1) rotate(0) translate(4 326)">
<title>applications/zpc/components/zwave_api/src/zwapi_protocol_controller.c</title>
<!-- Node1 -->
<g id="node1" class="node">
<title>Node1</title>
<g id="a_node1"><a xlink:title=" ">
<polygon fill="#bfbfbf" stroke="black" points="262,-280.5 262,-321.5 413,-321.5 413,-280.5 262,-280.5"/>
<text text-anchor="start" x="270" y="-309.5" font-family="Helvetica,sans-Serif" font-size="10.00">applications/zpc/components</text>
<text text-anchor="start" x="270" y="-298.5" font-family="Helvetica,sans-Serif" font-size="10.00">/zwave_api/src/zwapi_protocol</text>
<text text-anchor="middle" x="337.5" y="-287.5" font-family="Helvetica,sans-Serif" font-size="10.00">_controller.c</text>
</a>
</g>
</g>
<!-- Node2 -->
<g id="node2" class="node">
<title>Node2</title>
<g id="a_node2"><a xlink:title=" ">
<polygon fill="none" stroke="#bfbfbf" points="0,-224.5 0,-243.5 49,-243.5 49,-224.5 0,-224.5"/>
<text text-anchor="middle" x="24.5" y="-231.5" font-family="Helvetica,sans-Serif" font-size="10.00">string.h</text>
</a>
</g>
</g>
<!-- Node1&#45;&gt;Node2 -->
<g id="edge1" class="edge">
<title>Node1&#45;&gt;Node2</title>
<path fill="none" stroke="midnightblue" d="M261.74,-286.08C207.89,-275.89 133.66,-261.24 59.35,-244.09"/>
<polygon fill="midnightblue" stroke="midnightblue" points="59.87,-240.62 49.34,-241.76 58.29,-247.43 59.87,-240.62"/>
</g>
<!-- Node3 -->
<g id="node3" class="node">
<title>Node3</title>
<g id="a_node3"><a xlink:title=" ">
<polygon fill="none" stroke="#bfbfbf" points="67.5,-224.5 67.5,-243.5 119.5,-243.5 119.5,-224.5 67.5,-224.5"/>
<text text-anchor="middle" x="93.5" y="-231.5" font-family="Helvetica,sans-Serif" font-size="10.00">assert.h</text>
</a>
</g>
</g>
<!-- Node1&#45;&gt;Node3 -->
<g id="edge2" class="edge">
<title>Node1&#45;&gt;Node3</title>
<path fill="none" stroke="midnightblue" d="M264.29,-280.5C219.7,-268.62 164.7,-253.97 129.37,-244.56"/>
<polygon fill="midnightblue" stroke="midnightblue" points="130.08,-241.12 119.51,-241.93 128.27,-247.89 130.08,-241.12"/>
</g>
<!-- Node4 -->
<g id="node4" class="node">
<title>Node4</title>
<g id="a_node4"><a xlink:href="zwapi__protocol__controller_8h.html" target="_top" xlink:title="Z&#45;Wave API for Z&#45;Wave controllers (network setup and maintenance)">
<polygon fill="none" stroke="black" points="175.5,-168.5 175.5,-187.5 309.5,-187.5 309.5,-168.5 175.5,-168.5"/>
<text text-anchor="middle" x="242.5" y="-175.5" font-family="Helvetica,sans-Serif" font-size="10.00">zwapi_protocol_controller.h</text>
</a>
</g>
</g>
<!-- Node1&#45;&gt;Node4 -->
<g id="edge3" class="edge">
<title>Node1&#45;&gt;Node4</title>
<path fill="none" stroke="midnightblue" d="M317.9,-280.49C307.78,-270.04 295.51,-256.72 285.5,-244 273.39,-228.59 261.21,-209.81 252.93,-196.41"/>
<polygon fill="midnightblue" stroke="midnightblue" points="255.83,-194.44 247.64,-187.72 249.85,-198.08 255.83,-194.44"/>
</g>
<!-- Node10 -->
<g id="node10" class="node">
<title>Node10</title>
<g id="a_node10"><a xlink:href="zwapi__func__ids_8h.html" target="_top" xlink:title=" ">
<polygon fill="none" stroke="black" points="499.5,-224.5 499.5,-243.5 591.5,-243.5 591.5,-224.5 499.5,-224.5"/>
<text text-anchor="middle" x="545.5" y="-231.5" font-family="Helvetica,sans-Serif" font-size="10.00">zwapi_func_ids.h</text>
</a>
</g>
</g>
<!-- Node1&#45;&gt;Node10 -->
<g id="edge14" class="edge">
<title>Node1&#45;&gt;Node10</title>
<path fill="none" stroke="midnightblue" d="M399.91,-280.5C435.28,-269.44 478.33,-255.99 508.41,-246.59"/>
<polygon fill="midnightblue" stroke="midnightblue" points="509.58,-249.89 518.09,-243.57 507.5,-243.21 509.58,-249.89"/>
</g>
<!-- Node11 -->
<g id="node11" class="node">
<title>Node11</title>
<g id="a_node11"><a xlink:href="zwapi__session_8h.html" target="_top" xlink:title="Session level handling such as retries and request/response for commands using the zwapi_connection.">
<polygon fill="none" stroke="black" points="38,-112.5 38,-131.5 127,-131.5 127,-112.5 38,-112.5"/>
<text text-anchor="middle" x="82.5" y="-119.5" font-family="Helvetica,sans-Serif" font-size="10.00">zwapi_session.h</text>
</a>
</g>
</g>
<!-- Node1&#45;&gt;Node11 -->
<g id="edge15" class="edge">
<title>Node1&#45;&gt;Node11</title>
<path fill="none" stroke="midnightblue" d="M306.12,-280.49C271.44,-258.69 214.18,-221.99 166.5,-188 143.48,-171.6 117.91,-151.53 101.1,-138.07"/>
<polygon fill="midnightblue" stroke="midnightblue" points="103.15,-135.23 93.17,-131.69 98.77,-140.69 103.15,-135.23"/>
</g>
<!-- Node12 -->
<g id="node12" class="node">
<title>Node12</title>
<g id="a_node12"><a xlink:href="zwapi__init_8h.html" target="_top" xlink:title="Z&#45;Wave API initialization functions.">
<polygon fill="none" stroke="black" points="375.5,-168.5 375.5,-187.5 443.5,-187.5 443.5,-168.5 375.5,-168.5"/>
<text text-anchor="middle" x="409.5" y="-175.5" font-family="Helvetica,sans-Serif" font-size="10.00">zwapi_init.h</text>
</a>
</g>
</g>
<!-- Node1&#45;&gt;Node12 -->
<g id="edge18" class="edge">
<title>Node1&#45;&gt;Node12</title>
<path fill="none" stroke="midnightblue" d="M360.51,-280.41C370.96,-270.45 382.7,-257.58 390.5,-244 398.82,-229.5 403.76,-211.06 406.51,-197.52"/>
<polygon fill="midnightblue" stroke="midnightblue" points="409.98,-197.97 408.33,-187.5 403.1,-196.72 409.98,-197.97"/>
</g>
<!-- Node15 -->
<g id="node15" class="node">
<title>Node15</title>
<g id="a_node15"><a xlink:href="zwapi__internal_8h.html" target="_top" xlink:title="Private definitions for the Z&#45;Wave API.">
<polygon fill="none" stroke="black" points="294,-224.5 294,-243.5 381,-243.5 381,-224.5 294,-224.5"/>
<text text-anchor="middle" x="337.5" y="-231.5" font-family="Helvetica,sans-Serif" font-size="10.00">zwapi_internal.h</text>
</a>
</g>
</g>
<!-- Node1&#45;&gt;Node15 -->
<g id="edge30" class="edge">
<title>Node1&#45;&gt;Node15</title>
<path fill="none" stroke="midnightblue" d="M337.5,-280.5C337.5,-272.07 337.5,-262.24 337.5,-253.87"/>
<polygon fill="midnightblue" stroke="midnightblue" points="341,-253.65 337.5,-243.65 334,-253.65 341,-253.65"/>
</g>
<!-- Node16 -->
<g id="node16" class="node">
<title>Node16</title>
<g id="a_node16"><a xlink:href="zwapi__utils_8h.html" target="_top" xlink:title="Internal utility helpers for Z&#45;Wave API.">
<polygon fill="none" stroke="black" points="628.5,-112.5 628.5,-131.5 702.5,-131.5 702.5,-112.5 628.5,-112.5"/>
<text text-anchor="middle" x="665.5" y="-119.5" font-family="Helvetica,sans-Serif" font-size="10.00">zwapi_utils.h</text>
</a>
</g>
</g>
<!-- Node1&#45;&gt;Node16 -->
<g id="edge33" class="edge">
<title>Node1&#45;&gt;Node16</title>
<path fill="none" stroke="midnightblue" d="M373.85,-280.38C441.02,-244.14 582.95,-167.55 640.49,-136.5"/>
<polygon fill="midnightblue" stroke="midnightblue" points="642.46,-139.41 649.59,-131.58 639.13,-133.25 642.46,-139.41"/>
</g>
<!-- Node17 -->
<g id="node17" class="node">
<title>Node17</title>
<g id="a_node17"><a xlink:title=" ">
<polygon fill="none" stroke="#bfbfbf" points="609.5,-224.5 609.5,-243.5 659.5,-243.5 659.5,-224.5 609.5,-224.5"/>
<text text-anchor="middle" x="634.5" y="-231.5" font-family="Helvetica,sans-Serif" font-size="10.00">sl_log.h</text>
</a>
</g>
</g>
<!-- Node1&#45;&gt;Node17 -->
<g id="edge37" class="edge">
<title>Node1&#45;&gt;Node17</title>
<path fill="none" stroke="midnightblue" d="M413.11,-284.92C463.32,-274.67 530.92,-260.42 599.21,-244.23"/>
<polygon fill="midnightblue" stroke="midnightblue" points="600.37,-247.55 609.28,-241.82 598.74,-240.74 600.37,-247.55"/>
</g>
<!-- Node5 -->
<g id="node5" class="node">
<title>Node5</title>
<g id="a_node5"><a xlink:title=" ">
<polygon fill="none" stroke="#bfbfbf" points="545,-0.5 545,-19.5 594,-19.5 594,-0.5 545,-0.5"/>
<text text-anchor="middle" x="569.5" y="-7.5" font-family="Helvetica,sans-Serif" font-size="10.00">stdint.h</text>
</a>
</g>
</g>
<!-- Node4&#45;&gt;Node5 -->
<g id="edge4" class="edge">
<title>Node4&#45;&gt;Node5</title>
<path fill="none" stroke="midnightblue" d="M239.2,-168.25C231.49,-146.12 215.07,-87.45 244.5,-56 283.27,-14.58 458.49,-10.37 534.33,-10.55"/>
<polygon fill="midnightblue" stroke="midnightblue" points="534.75,-14.05 544.77,-10.6 534.79,-7.05 534.75,-14.05"/>
</g>
<!-- Node6 -->
<g id="node6" class="node">
<title>Node6</title>
<g id="a_node6"><a xlink:title=" ">
<polygon fill="none" stroke="#bfbfbf" points="168.5,-0.5 168.5,-19.5 224.5,-19.5 224.5,-0.5 168.5,-0.5"/>
<text text-anchor="middle" x="196.5" y="-7.5" font-family="Helvetica,sans-Serif" font-size="10.00">stdbool.h</text>
</a>
</g>
</g>
<!-- Node4&#45;&gt;Node6 -->
<g id="edge5" class="edge">
<title>Node4&#45;&gt;Node6</title>
<path fill="none" stroke="midnightblue" d="M175.34,-171.96C119.67,-166.22 46.8,-154.55 28.5,-132 -14.09,-79.52 96.52,-38.86 158.25,-20.96"/>
<polygon fill="midnightblue" stroke="midnightblue" points="159.4,-24.27 168.08,-18.19 157.5,-17.54 159.4,-24.27"/>
</g>
<!-- Node7 -->
<g id="node7" class="node">
<title>Node7</title>
<g id="a_node7"><a xlink:href="sl__status_8h.html" target="_top" xlink:title="SL Status Codes.">
<polygon fill="none" stroke="black" points="263,-56.5 263,-75.5 328,-75.5 328,-56.5 263,-56.5"/>
<text text-anchor="middle" x="295.5" y="-63.5" font-family="Helvetica,sans-Serif" font-size="10.00">sl_status.h</text>
</a>
</g>
</g>
<!-- Node4&#45;&gt;Node7 -->
<g id="edge6" class="edge">
<title>Node4&#45;&gt;Node7</title>
<path fill="none" stroke="midnightblue" d="M241.82,-168.08C241.22,-155.06 241.53,-130.39 250.5,-112 256.14,-100.44 265.95,-90.1 274.97,-82.24"/>
<polygon fill="midnightblue" stroke="midnightblue" points="277.37,-84.81 282.9,-75.77 272.94,-79.39 277.37,-84.81"/>
</g>
<!-- Node8 -->
<g id="node8" class="node">
<title>Node8</title>
<g id="a_node8"><a xlink:href="zwapi__protocol__transport_8h.html" target="_top" xlink:title="Z&#45;Wave API for transport application layer interface.">
<polygon fill="none" stroke="black" points="259.5,-112.5 259.5,-131.5 393.5,-131.5 393.5,-112.5 259.5,-112.5"/>
<text text-anchor="middle" x="326.5" y="-119.5" font-family="Helvetica,sans-Serif" font-size="10.00">zwapi_protocol_transport.h</text>
</a>
</g>
</g>
<!-- Node4&#45;&gt;Node8 -->
<g id="edge8" class="edge">
<title>Node4&#45;&gt;Node8</title>
<path fill="none" stroke="midnightblue" d="M256,-168.32C269.1,-159.9 289.21,-146.97 304.61,-137.07"/>
<polygon fill="midnightblue" stroke="midnightblue" points="306.52,-140.01 313.04,-131.65 302.73,-134.12 306.52,-140.01"/>
</g>
<!-- Node7&#45;&gt;Node5 -->
<g id="edge7" class="edge">
<title>Node7&#45;&gt;Node5</title>
<path fill="none" stroke="midnightblue" d="M328.05,-57.96C331.24,-57.29 334.43,-56.63 337.5,-56 407.43,-41.73 489.44,-26.07 534.83,-17.51"/>
<polygon fill="midnightblue" stroke="midnightblue" points="535.57,-20.93 544.75,-15.64 534.27,-14.05 535.57,-20.93"/>
</g>
<!-- Node8&#45;&gt;Node5 -->
<g id="edge9" class="edge">
<title>Node8&#45;&gt;Node5</title>
<path fill="none" stroke="midnightblue" d="M304.11,-112.48C276.39,-100.72 235.08,-78.39 254.5,-56 290.46,-14.53 460.41,-10.33 534.66,-10.52"/>
<polygon fill="midnightblue" stroke="midnightblue" points="534.87,-14.02 544.89,-10.58 534.91,-7.02 534.87,-14.02"/>
</g>
<!-- Node8&#45;&gt;Node6 -->
<g id="edge10" class="edge">
<title>Node8&#45;&gt;Node6</title>
<path fill="none" stroke="midnightblue" d="M287,-112.47C264.86,-105.86 238.23,-94.59 220.5,-76 208.45,-63.36 202.35,-44.15 199.32,-29.89"/>
<polygon fill="midnightblue" stroke="midnightblue" points="202.71,-28.96 197.5,-19.73 195.82,-30.19 202.71,-28.96"/>
</g>
<!-- Node8&#45;&gt;Node7 -->
<g id="edge11" class="edge">
<title>Node8&#45;&gt;Node7</title>
<path fill="none" stroke="midnightblue" d="M321.38,-112.08C317.09,-104.61 310.84,-93.72 305.56,-84.52"/>
<polygon fill="midnightblue" stroke="midnightblue" points="308.54,-82.68 300.52,-75.75 302.47,-86.17 308.54,-82.68"/>
</g>
<!-- Node9 -->
<g id="node9" class="node">
<title>Node9</title>
<g id="a_node9"><a xlink:href="zwave__node__id__definitions_8h.html" target="_top" xlink:title=" ">
<polygon fill="none" stroke="black" points="498.5,-56.5 498.5,-75.5 640.5,-75.5 640.5,-56.5 498.5,-56.5"/>
<text text-anchor="middle" x="569.5" y="-63.5" font-family="Helvetica,sans-Serif" font-size="10.00">zwave_node_id_definitions.h</text>
</a>
</g>
</g>
<!-- Node8&#45;&gt;Node9 -->
<g id="edge12" class="edge">
<title>Node8&#45;&gt;Node9</title>
<path fill="none" stroke="midnightblue" d="M365,-112.44C407.31,-103.04 475.32,-87.93 521.17,-77.74"/>
<polygon fill="midnightblue" stroke="midnightblue" points="522.17,-81.1 531.18,-75.52 520.65,-74.27 522.17,-81.1"/>
</g>
<!-- Node9&#45;&gt;Node5 -->
<g id="edge13" class="edge">
<title>Node9&#45;&gt;Node5</title>
<path fill="none" stroke="midnightblue" d="M569.5,-56.08C569.5,-49.01 569.5,-38.86 569.5,-29.99"/>
<polygon fill="midnightblue" stroke="midnightblue" points="573,-29.75 569.5,-19.75 566,-29.75 573,-29.75"/>
</g>
<!-- Node11&#45;&gt;Node6 -->
<g id="edge16" class="edge">
<title>Node11&#45;&gt;Node6</title>
<path fill="none" stroke="midnightblue" d="M83.62,-112.38C85.79,-98.85 91.73,-72.49 106.5,-56 120.37,-40.52 140.78,-29.71 158.66,-22.57"/>
<polygon fill="midnightblue" stroke="midnightblue" points="160.14,-25.76 168.28,-18.98 157.69,-19.2 160.14,-25.76"/>
</g>
<!-- Node11&#45;&gt;Node7 -->
<g id="edge17" class="edge">
<title>Node11&#45;&gt;Node7</title>
<path fill="none" stroke="midnightblue" d="M116.25,-112.44C153.34,-103.04 212.99,-87.92 253.18,-77.73"/>
<polygon fill="midnightblue" stroke="midnightblue" points="254.12,-81.1 262.96,-75.25 252.4,-74.32 254.12,-81.1"/>
</g>
<!-- Node12&#45;&gt;Node5 -->
<g id="edge19" class="edge">
<title>Node12&#45;&gt;Node5</title>
<path fill="none" stroke="midnightblue" d="M443.7,-177.24C515.32,-176.93 677.23,-171.75 711.5,-132 731.63,-108.64 701.26,-73.7 681.5,-56 659.65,-36.42 628.2,-24.8 604.19,-18.29"/>
<polygon fill="midnightblue" stroke="midnightblue" points="604.96,-14.87 594.4,-15.8 603.23,-21.66 604.96,-14.87"/>
</g>
<!-- Node12&#45;&gt;Node6 -->
<g id="edge20" class="edge">
<title>Node12&#45;&gt;Node6</title>
<path fill="none" stroke="midnightblue" d="M375.39,-173.37C341.42,-168.43 288.91,-157.13 250.5,-132 223.55,-114.36 217.19,-105.6 204.5,-76 198.26,-61.45 196.44,-43.5 196.08,-30.16"/>
<polygon fill="midnightblue" stroke="midnightblue" points="199.58,-29.81 196.06,-19.81 192.58,-29.82 199.58,-29.81"/>
</g>
<!-- Node12&#45;&gt;Node7 -->
<g id="edge21" class="edge">
<title>Node12&#45;&gt;Node7</title>
<path fill="none" stroke="midnightblue" d="M411.11,-168.44C413.13,-155 414.97,-128.75 402.5,-112 393.84,-100.37 361.14,-87.61 334.14,-78.65"/>
<polygon fill="midnightblue" stroke="midnightblue" points="335.1,-75.28 324.5,-75.53 332.94,-81.94 335.1,-75.28"/>
</g>
<!-- Node13 -->
<g id="node13" class="node">
<title>Node13</title>
<g id="a_node13"><a xlink:href="zwapi__protocol__basis_8h.html" target="_top" xlink:title="Z&#45;Wave API for basis controller/end node application interface.">
<polygon fill="none" stroke="black" points="488,-112.5 488,-131.5 607,-131.5 607,-112.5 488,-112.5"/>
<text text-anchor="middle" x="547.5" y="-119.5" font-family="Helvetica,sans-Serif" font-size="10.00">zwapi_protocol_basis.h</text>
</a>
</g>
</g>
<!-- Node12&#45;&gt;Node13 -->
<g id="edge22" class="edge">
<title>Node12&#45;&gt;Node13</title>
<path fill="none" stroke="midnightblue" d="M431.37,-168.44C454.28,-159.48 490.48,-145.31 516.37,-135.18"/>
<polygon fill="midnightblue" stroke="midnightblue" points="517.7,-138.42 525.74,-131.52 515.15,-131.9 517.7,-138.42"/>
</g>
<!-- Node14 -->
<g id="node14" class="node">
<title>Node14</title>
<g id="a_node14"><a xlink:href="zwave__rf__region_8h.html" target="_top" xlink:title=" ">
<polygon fill="none" stroke="black" points="346.5,-56.5 346.5,-75.5 442.5,-75.5 442.5,-56.5 346.5,-56.5"/>
<text text-anchor="middle" x="394.5" y="-63.5" font-family="Helvetica,sans-Serif" font-size="10.00">zwave_rf_region.h</text>
</a>
</g>
</g>
<!-- Node12&#45;&gt;Node14 -->
<g id="edge29" class="edge">
<title>Node12&#45;&gt;Node14</title>
<path fill="none" stroke="midnightblue" d="M417.45,-168.19C427.69,-155.72 443.31,-132.17 435.5,-112 431.05,-100.5 422.13,-90.13 413.75,-82.25"/>
<polygon fill="midnightblue" stroke="midnightblue" points="415.87,-79.46 406.04,-75.51 411.26,-84.73 415.87,-79.46"/>
</g>
<!-- Node13&#45;&gt;Node5 -->
<g id="edge23" class="edge">
<title>Node13&#45;&gt;Node5</title>
<path fill="none" stroke="midnightblue" d="M593.86,-112.47C614.57,-106.1 637.08,-95.05 649.5,-76 664.71,-52.67 631.85,-33.68 603.75,-22.38"/>
<polygon fill="midnightblue" stroke="midnightblue" points="604.69,-18.99 594.1,-18.71 602.2,-25.53 604.69,-18.99"/>
</g>
<!-- Node13&#45;&gt;Node6 -->
<g id="edge24" class="edge">
<title>Node13&#45;&gt;Node6</title>
<path fill="none" stroke="midnightblue" d="M537.94,-112.46C521.53,-98.3 486.38,-70.13 451.5,-56 378.57,-26.45 286.15,-16.27 234.99,-12.79"/>
<polygon fill="midnightblue" stroke="midnightblue" points="234.92,-9.28 224.72,-12.14 234.48,-16.26 234.92,-9.28"/>
</g>
<!-- Node13&#45;&gt;Node7 -->
<g id="edge25" class="edge">
<title>Node13&#45;&gt;Node7</title>
<path fill="none" stroke="midnightblue" d="M507.57,-112.44C461.28,-102.52 385.31,-86.24 337.97,-76.1"/>
<polygon fill="midnightblue" stroke="midnightblue" points="338.54,-72.64 328.03,-73.97 337.08,-79.49 338.54,-72.64"/>
</g>
<!-- Node13&#45;&gt;Node9 -->
<g id="edge28" class="edge">
<title>Node13&#45;&gt;Node9</title>
<path fill="none" stroke="midnightblue" d="M551.13,-112.08C554.11,-104.77 558.43,-94.18 562.12,-85.1"/>
<polygon fill="midnightblue" stroke="midnightblue" points="565.4,-86.33 565.93,-75.75 558.92,-83.69 565.4,-86.33"/>
</g>
<!-- Node13&#45;&gt;Node14 -->
<g id="edge26" class="edge">
<title>Node13&#45;&gt;Node14</title>
<path fill="none" stroke="midnightblue" d="M523.26,-112.44C497.63,-103.4 457.01,-89.06 428.26,-78.92"/>
<polygon fill="midnightblue" stroke="midnightblue" points="429.22,-75.54 418.63,-75.52 426.89,-82.15 429.22,-75.54"/>
</g>
<!-- Node14&#45;&gt;Node6 -->
<g id="edge27" class="edge">
<title>Node14&#45;&gt;Node6</title>
<path fill="none" stroke="midnightblue" d="M363.13,-56.44C328.24,-46.93 271.89,-31.56 234.53,-21.37"/>
<polygon fill="midnightblue" stroke="midnightblue" points="235.09,-17.9 224.53,-18.64 233.25,-24.65 235.09,-17.9"/>
</g>
<!-- Node15&#45;&gt;Node8 -->
<g id="edge32" class="edge">
<title>Node15&#45;&gt;Node8</title>
<path fill="none" stroke="midnightblue" d="M336.64,-224.37C334.86,-206.62 330.77,-165.67 328.36,-141.6"/>
<polygon fill="midnightblue" stroke="midnightblue" points="331.84,-141.19 327.36,-131.59 324.87,-141.89 331.84,-141.19"/>
</g>
<!-- Node15&#45;&gt;Node12 -->
<g id="edge31" class="edge">
<title>Node15&#45;&gt;Node12</title>
<path fill="none" stroke="midnightblue" d="M349.07,-224.32C359.92,-216.18 376.38,-203.84 389.38,-194.09"/>
<polygon fill="midnightblue" stroke="midnightblue" points="391.82,-196.63 397.72,-187.83 387.62,-191.03 391.82,-196.63"/>
</g>
<!-- Node16&#45;&gt;Node5 -->
<g id="edge34" class="edge">
<title>Node16&#45;&gt;Node5</title>
<path fill="none" stroke="midnightblue" d="M668.08,-112.18C671.43,-98.84 675.62,-73.27 664.5,-56 651.11,-35.2 625.27,-23.81 603.92,-17.7"/>
<polygon fill="midnightblue" stroke="midnightblue" points="604.73,-14.3 594.18,-15.17 602.98,-21.07 604.73,-14.3"/>
</g>
<!-- Node16&#45;&gt;Node6 -->
<g id="edge35" class="edge">
<title>Node16&#45;&gt;Node6</title>
<path fill="none" stroke="midnightblue" d="M666.23,-112.25C666.88,-98.06 665.83,-70.16 649.5,-56 618.4,-29.04 337.88,-16.16 234.52,-12.29"/>
<polygon fill="midnightblue" stroke="midnightblue" points="234.63,-8.8 224.51,-11.93 234.38,-15.79 234.63,-8.8"/>
</g>
<!-- Node16&#45;&gt;Node9 -->
<g id="edge36" class="edge">
<title>Node16&#45;&gt;Node9</title>
<path fill="none" stroke="midnightblue" d="M650.08,-112.32C634.96,-103.82 611.68,-90.73 594.03,-80.8"/>
<polygon fill="midnightblue" stroke="midnightblue" points="595.32,-77.51 584.89,-75.65 591.89,-83.61 595.32,-77.51"/>
</g>
</g>
</svg>
