<?xml version="1.0" encoding="UTF-8" standalone="no"?>
<!DOCTYPE svg PUBLIC "-//W3C//DTD SVG 1.1//EN"
 "http://www.w3.org/Graphics/SVG/1.1/DTD/svg11.dtd">
<!-- Generated by graphviz version 2.43.0 (0)
 -->
<!-- Title: zwapi_session_shutdown Pages: 1 -->
<svg width="449pt" height="78pt"
 viewBox="0.00 0.00 449.00 77.50" xmlns="http://www.w3.org/2000/svg" xmlns:xlink="http://www.w3.org/1999/xlink">
<g id="graph0" class="graph" transform="scale(1 1) rotate(0) translate(4 73.5)">
<title>zwapi_session_shutdown</title>
<!-- Node1 -->
<g id="node1" class="node">
<title>Node1</title>
<g id="a_node1"><a xlink:title="Close the zwapi_session with the Z&#45;Wave module.">
<polygon fill="#bfbfbf" stroke="black" points="0,-28 0,-47 128,-47 128,-28 0,-28"/>
<text text-anchor="middle" x="64" y="-35" font-family="Helvetica,sans-Serif" font-size="10.00">zwapi_session_shutdown</text>
</a>
</g>
</g>
<!-- Node2 -->
<g id="node2" class="node">
<title>Node2</title>
<g id="a_node2"><a xlink:href="zwapi__connection_8c.html#ad89586e01dc2af5757f767f0bbe6e889" target="_top" xlink:title="Close the zwapi_connection to the Z&#45;Wave module.">
<polygon fill="none" stroke="black" points="164,-50 164,-69 306,-69 306,-50 164,-50"/>
<text text-anchor="middle" x="235" y="-57" font-family="Helvetica,sans-Serif" font-size="10.00">zwapi_connection_shutdown</text>
</a>
</g>
</g>
<!-- Node1&#45;&gt;Node2 -->
<g id="edge1" class="edge">
<title>Node1&#45;&gt;Node2</title>
<path fill="none" stroke="midnightblue" d="M128.41,-45.75C136.76,-46.84 145.4,-47.97 153.98,-49.08"/>
<polygon fill="midnightblue" stroke="midnightblue" points="153.63,-52.57 164,-50.39 154.53,-45.63 153.63,-52.57"/>
</g>
<!-- Node4 -->
<g id="node4" class="node">
<title>Node4</title>
<g id="a_node4"><a xlink:href="zwapi__session_8c.html#ae9af89b1122e8be3a8704581079dd824" target="_top" xlink:title="Flush the zwapi_session receive queue.">
<polygon fill="none" stroke="black" points="181.5,-0.5 181.5,-30.5 288.5,-30.5 288.5,-0.5 181.5,-0.5"/>
<text text-anchor="start" x="189.5" y="-18.5" font-family="Helvetica,sans-Serif" font-size="10.00">zwapi_session_flush</text>
<text text-anchor="middle" x="235" y="-7.5" font-family="Helvetica,sans-Serif" font-size="10.00">_queue</text>
</a>
</g>
</g>
<!-- Node1&#45;&gt;Node4 -->
<g id="edge3" class="edge">
<title>Node1&#45;&gt;Node4</title>
<path fill="none" stroke="midnightblue" d="M128.41,-29.25C142.43,-27.42 157.27,-25.49 171.27,-23.67"/>
<polygon fill="midnightblue" stroke="midnightblue" points="171.81,-27.12 181.28,-22.36 170.91,-20.18 171.81,-27.12"/>
</g>
<!-- Node3 -->
<g id="node3" class="node">
<title>Node3</title>
<g id="a_node3"><a xlink:href="zwapi__serial_8c.html#aae586785021ac9a605cd77651429f0c9" target="_top" xlink:title="De&#45;Initialize the serial port.">
<polygon fill="none" stroke="black" points="342,-50 342,-69 441,-69 441,-50 342,-50"/>
<text text-anchor="middle" x="391.5" y="-57" font-family="Helvetica,sans-Serif" font-size="10.00">zwapi_serial_close</text>
</a>
</g>
</g>
<!-- Node2&#45;&gt;Node3 -->
<g id="edge2" class="edge">
<title>Node2&#45;&gt;Node3</title>
<path fill="none" stroke="midnightblue" d="M306.02,-59.5C314.65,-59.5 323.39,-59.5 331.83,-59.5"/>
<polygon fill="midnightblue" stroke="midnightblue" points="331.93,-63 341.93,-59.5 331.93,-56 331.93,-63"/>
</g>
</g>
</svg>
