<?xml version="1.0" encoding="UTF-8" standalone="no"?>
<!DOCTYPE svg PUBLIC "-//W3C//DTD SVG 1.1//EN"
 "http://www.w3.org/Graphics/SVG/1.1/DTD/svg11.dtd">
<!-- Generated by graphviz version 2.43.0 (0)
 -->
<!-- Title: applications/zpc/components/zwave_api/include/zwapi_init.h Pages: 1 -->
<svg width="2071pt" height="273pt"
 viewBox="0.00 0.00 2071.00 273.00" xmlns="http://www.w3.org/2000/svg" xmlns:xlink="http://www.w3.org/1999/xlink">
<g id="graph0" class="graph" transform="scale(1 1) rotate(0) translate(4 269)">
<title>applications/zpc/components/zwave_api/include/zwapi_init.h</title>
<!-- Node1 -->
<g id="node1" class="node">
<title>Node1</title>
<g id="a_node1"><a xlink:title="Z&#45;Wave API initialization functions.">
<polygon fill="#bfbfbf" stroke="black" points="1031,-234.5 1031,-264.5 1186,-264.5 1186,-234.5 1031,-234.5"/>
<text text-anchor="start" x="1039" y="-252.5" font-family="Helvetica,sans-Serif" font-size="10.00">applications/zpc/components</text>
<text text-anchor="middle" x="1108.5" y="-241.5" font-family="Helvetica,sans-Serif" font-size="10.00">/zwave_api/include/zwapi_init.h</text>
</a>
</g>
</g>
<!-- Node2 -->
<g id="node2" class="node">
<title>Node2</title>
<g id="a_node2"><a xlink:href="zpc__ncp__update__fixt_8c.html" target="_top" xlink:title=" ">
<polygon fill="none" stroke="black" points="0,-156.5 0,-197.5 143,-197.5 143,-156.5 0,-156.5"/>
<text text-anchor="start" x="8" y="-185.5" font-family="Helvetica,sans-Serif" font-size="10.00">applications/zpc/components</text>
<text text-anchor="start" x="8" y="-174.5" font-family="Helvetica,sans-Serif" font-size="10.00">/zpc_ncp_update/src/zpc</text>
<text text-anchor="middle" x="71.5" y="-163.5" font-family="Helvetica,sans-Serif" font-size="10.00">_ncp_update_fixt.c</text>
</a>
</g>
</g>
<!-- Node1&#45;&gt;Node2 -->
<g id="edge1" class="edge">
<title>Node1&#45;&gt;Node2</title>
<path fill="none" stroke="midnightblue" d="M1020.8,-246.03C817.28,-239.95 317.65,-222.92 151.5,-198 148.81,-197.6 146.08,-197.14 143.33,-196.65"/>
<polygon fill="midnightblue" stroke="midnightblue" points="1020.75,-249.53 1030.85,-246.33 1020.96,-242.53 1020.75,-249.53"/>
</g>
<!-- Node3 -->
<g id="node3" class="node">
<title>Node3</title>
<g id="a_node3"><a xlink:href="nm__state__machine_8c.html" target="_top" xlink:title="state machine for zwave_network_management">
<polygon fill="none" stroke="black" points="161,-156.5 161,-197.5 342,-197.5 342,-156.5 161,-156.5"/>
<text text-anchor="start" x="169" y="-185.5" font-family="Helvetica,sans-Serif" font-size="10.00">applications/zpc/components</text>
<text text-anchor="start" x="169" y="-174.5" font-family="Helvetica,sans-Serif" font-size="10.00">/zwave/zwave_network_management</text>
<text text-anchor="middle" x="251.5" y="-163.5" font-family="Helvetica,sans-Serif" font-size="10.00">/src/nm_state_machine.c</text>
</a>
</g>
</g>
<!-- Node1&#45;&gt;Node3 -->
<g id="edge2" class="edge">
<title>Node1&#45;&gt;Node3</title>
<path fill="none" stroke="midnightblue" d="M1020.6,-246.43C878.97,-242.25 591.7,-230.25 350.5,-198 347.72,-197.63 344.9,-197.22 342.06,-196.79"/>
<polygon fill="midnightblue" stroke="midnightblue" points="1020.86,-249.94 1030.96,-246.73 1021.06,-242.94 1020.86,-249.94"/>
</g>
<!-- Node4 -->
<g id="node4" class="node">
<title>Node4</title>
<g id="a_node4"><a xlink:href="zwave__rx_8c.html" target="_top" xlink:title=" ">
<polygon fill="none" stroke="black" points="360,-162 360,-192 523,-192 523,-162 360,-162"/>
<text text-anchor="start" x="368" y="-180" font-family="Helvetica,sans-Serif" font-size="10.00">applications/zpc/components</text>
<text text-anchor="middle" x="441.5" y="-169" font-family="Helvetica,sans-Serif" font-size="10.00">/zwave/zwave_rx/src/zwave_rx.c</text>
</a>
</g>
</g>
<!-- Node1&#45;&gt;Node4 -->
<g id="edge3" class="edge">
<title>Node1&#45;&gt;Node4</title>
<path fill="none" stroke="midnightblue" d="M1020.62,-244.41C907.13,-238.3 703.7,-224.55 531.5,-198 521.06,-196.39 510.02,-194.28 499.38,-192.04"/>
<polygon fill="midnightblue" stroke="midnightblue" points="1020.48,-247.9 1030.65,-244.94 1020.85,-240.91 1020.48,-247.9"/>
</g>
<!-- Node5 -->
<g id="node5" class="node">
<title>Node5</title>
<g id="a_node5"><a xlink:href="zwave__rx__process_8c.html" target="_top" xlink:title=" ">
<polygon fill="none" stroke="black" points="541,-156.5 541,-197.5 684,-197.5 684,-156.5 541,-156.5"/>
<text text-anchor="start" x="549" y="-185.5" font-family="Helvetica,sans-Serif" font-size="10.00">applications/zpc/components</text>
<text text-anchor="start" x="549" y="-174.5" font-family="Helvetica,sans-Serif" font-size="10.00">/zwave/zwave_rx/src/zwave</text>
<text text-anchor="middle" x="612.5" y="-163.5" font-family="Helvetica,sans-Serif" font-size="10.00">_rx_process.c</text>
</a>
</g>
</g>
<!-- Node1&#45;&gt;Node5 -->
<g id="edge4" class="edge">
<title>Node1&#45;&gt;Node5</title>
<path fill="none" stroke="midnightblue" d="M1020.55,-241.02C936.02,-233.08 804.9,-218.79 692.5,-198 689.83,-197.51 687.11,-196.97 684.37,-196.41"/>
<polygon fill="midnightblue" stroke="midnightblue" points="1020.34,-244.52 1030.63,-241.96 1020.99,-237.55 1020.34,-244.52"/>
</g>
<!-- Node6 -->
<g id="node6" class="node">
<title>Node6</title>
<g id="a_node6"><a xlink:href="zwave__s2__keystore_8c.html" target="_top" xlink:title=" ">
<polygon fill="none" stroke="black" points="702,-156.5 702,-197.5 847,-197.5 847,-156.5 702,-156.5"/>
<text text-anchor="start" x="710" y="-185.5" font-family="Helvetica,sans-Serif" font-size="10.00">applications/zpc/components</text>
<text text-anchor="start" x="710" y="-174.5" font-family="Helvetica,sans-Serif" font-size="10.00">/zwave/zwave_transports</text>
<text text-anchor="middle" x="774.5" y="-163.5" font-family="Helvetica,sans-Serif" font-size="10.00">/s2/src/zwave_s2_keystore.c</text>
</a>
</g>
</g>
<!-- Node1&#45;&gt;Node6 -->
<g id="edge5" class="edge">
<title>Node1&#45;&gt;Node6</title>
<path fill="none" stroke="midnightblue" d="M1024.51,-232.57C975.42,-223.04 912.33,-210.4 856.5,-198 853.5,-197.33 850.43,-196.64 847.34,-195.93"/>
<polygon fill="midnightblue" stroke="midnightblue" points="1023.97,-236.03 1034.45,-234.5 1025.3,-229.16 1023.97,-236.03"/>
</g>
<!-- Node7 -->
<g id="node7" class="node">
<title>Node7</title>
<g id="a_node7"><a xlink:href="zwave__api_8h.html" target="_top" xlink:title="Main include file for the Z&#45;Wave API (only need to include this one)">
<polygon fill="none" stroke="black" points="865.5,-162 865.5,-192 1023.5,-192 1023.5,-162 865.5,-162"/>
<text text-anchor="start" x="873.5" y="-180" font-family="Helvetica,sans-Serif" font-size="10.00">applications/zpc/components</text>
<text text-anchor="middle" x="944.5" y="-169" font-family="Helvetica,sans-Serif" font-size="10.00">/zwave_api/include/zwave_api.h</text>
</a>
</g>
</g>
<!-- Node1&#45;&gt;Node7 -->
<g id="edge6" class="edge">
<title>Node1&#45;&gt;Node7</title>
<path fill="none" stroke="midnightblue" d="M1066.26,-230.34C1038.54,-218.42 1002.81,-203.07 977.24,-192.07"/>
<polygon fill="midnightblue" stroke="midnightblue" points="1065.14,-233.67 1075.71,-234.4 1067.9,-227.24 1065.14,-233.67"/>
</g>
<!-- Node10 -->
<g id="node10" class="node">
<title>Node10</title>
<g id="a_node10"><a xlink:href="zwapi__init_8c.html" target="_top" xlink:title=" ">
<polygon fill="none" stroke="black" points="648,-78.5 648,-108.5 791,-108.5 791,-78.5 648,-78.5"/>
<text text-anchor="start" x="656" y="-96.5" font-family="Helvetica,sans-Serif" font-size="10.00">applications/zpc/components</text>
<text text-anchor="middle" x="719.5" y="-85.5" font-family="Helvetica,sans-Serif" font-size="10.00">/zwave_api/src/zwapi_init.c</text>
</a>
</g>
</g>
<!-- Node1&#45;&gt;Node10 -->
<g id="edge9" class="edge">
<title>Node1&#45;&gt;Node10</title>
<path fill="none" stroke="midnightblue" d="M1089.72,-226.83C1082.12,-217.96 1073.32,-207.55 1065.5,-198 1050.47,-179.63 1052.99,-167.98 1032.5,-156 942.04,-103.11 901.5,-143.98 799.5,-120 786.3,-116.9 772.14,-112.68 759.45,-108.58"/>
<polygon fill="midnightblue" stroke="midnightblue" points="1087.13,-229.18 1096.3,-234.48 1092.43,-224.61 1087.13,-229.18"/>
</g>
<!-- Node11 -->
<g id="node11" class="node">
<title>Node11</title>
<g id="a_node11"><a xlink:href="zwapi__internal_8h.html" target="_top" xlink:title="Private definitions for the Z&#45;Wave API.">
<polygon fill="none" stroke="black" points="1155.5,-162 1155.5,-192 1311.5,-192 1311.5,-162 1155.5,-162"/>
<text text-anchor="start" x="1163.5" y="-180" font-family="Helvetica,sans-Serif" font-size="10.00">applications/zpc/components</text>
<text text-anchor="middle" x="1233.5" y="-169" font-family="Helvetica,sans-Serif" font-size="10.00">/zwave_api/src/zwapi_internal.h</text>
</a>
</g>
</g>
<!-- Node1&#45;&gt;Node11 -->
<g id="edge10" class="edge">
<title>Node1&#45;&gt;Node11</title>
<path fill="none" stroke="midnightblue" d="M1142.37,-229.4C1163.25,-217.62 1189.57,-202.78 1208.55,-192.07"/>
<polygon fill="midnightblue" stroke="midnightblue" points="1140.49,-226.44 1133.5,-234.4 1143.92,-232.54 1140.49,-226.44"/>
</g>
<!-- Node15 -->
<g id="node15" class="node">
<title>Node15</title>
<g id="a_node15"><a xlink:href="zwapi__protocol__basis_8c.html" target="_top" xlink:title=" ">
<polygon fill="none" stroke="black" points="809,-73 809,-114 960,-114 960,-73 809,-73"/>
<text text-anchor="start" x="817" y="-102" font-family="Helvetica,sans-Serif" font-size="10.00">applications/zpc/components</text>
<text text-anchor="start" x="817" y="-91" font-family="Helvetica,sans-Serif" font-size="10.00">/zwave_api/src/zwapi_protocol</text>
<text text-anchor="middle" x="884.5" y="-80" font-family="Helvetica,sans-Serif" font-size="10.00">_basis.c</text>
</a>
</g>
</g>
<!-- Node1&#45;&gt;Node15 -->
<g id="edge21" class="edge">
<title>Node1&#45;&gt;Node15</title>
<path fill="none" stroke="midnightblue" d="M1103.03,-224.47C1097.1,-203.66 1085.68,-174.12 1065.5,-156 1060.76,-151.75 996.63,-130.48 946.03,-114.14"/>
<polygon fill="midnightblue" stroke="midnightblue" points="1099.65,-225.39 1105.57,-234.18 1106.42,-223.62 1099.65,-225.39"/>
</g>
<!-- Node16 -->
<g id="node16" class="node">
<title>Node16</title>
<g id="a_node16"><a xlink:href="zwapi__protocol__controller_8c.html" target="_top" xlink:title=" ">
<polygon fill="none" stroke="black" points="978,-73 978,-114 1129,-114 1129,-73 978,-73"/>
<text text-anchor="start" x="986" y="-102" font-family="Helvetica,sans-Serif" font-size="10.00">applications/zpc/components</text>
<text text-anchor="start" x="986" y="-91" font-family="Helvetica,sans-Serif" font-size="10.00">/zwave_api/src/zwapi_protocol</text>
<text text-anchor="middle" x="1053.5" y="-80" font-family="Helvetica,sans-Serif" font-size="10.00">_controller.c</text>
</a>
</g>
</g>
<!-- Node1&#45;&gt;Node16 -->
<g id="edge22" class="edge">
<title>Node1&#45;&gt;Node16</title>
<path fill="none" stroke="midnightblue" d="M1111.18,-224.46C1112.4,-205.27 1112.01,-178.05 1103.5,-156 1097.41,-140.21 1085.63,-125.4 1075.03,-114.26"/>
<polygon fill="midnightblue" stroke="midnightblue" points="1107.69,-224.21 1110.36,-234.46 1114.67,-224.79 1107.69,-224.21"/>
</g>
<!-- Node17 -->
<g id="node17" class="node">
<title>Node17</title>
<g id="a_node17"><a xlink:href="zwapi__protocol__mem_8c.html" target="_top" xlink:title=" ">
<polygon fill="none" stroke="black" points="1337.5,-78.5 1337.5,-108.5 1523.5,-108.5 1523.5,-78.5 1337.5,-78.5"/>
<text text-anchor="start" x="1345.5" y="-96.5" font-family="Helvetica,sans-Serif" font-size="10.00">applications/zpc/components</text>
<text text-anchor="middle" x="1430.5" y="-85.5" font-family="Helvetica,sans-Serif" font-size="10.00">/zwave_api/src/zwapi_protocol_mem.c</text>
</a>
</g>
</g>
<!-- Node1&#45;&gt;Node17 -->
<g id="edge23" class="edge">
<title>Node1&#45;&gt;Node17</title>
<path fill="none" stroke="midnightblue" d="M1196.15,-238.49C1235.93,-231.28 1282.47,-218.96 1320.5,-198 1343.9,-185.1 1344.1,-174.37 1363.5,-156 1380.93,-139.5 1401.28,-120.91 1414.94,-108.53"/>
<polygon fill="midnightblue" stroke="midnightblue" points="1195.45,-235.06 1186.19,-240.21 1196.64,-241.95 1195.45,-235.06"/>
</g>
<!-- Node18 -->
<g id="node18" class="node">
<title>Node18</title>
<g id="a_node18"><a xlink:href="zwapi__protocol__nvm_8c.html" target="_top" xlink:title=" ">
<polygon fill="none" stroke="black" points="1542,-78.5 1542,-108.5 1725,-108.5 1725,-78.5 1542,-78.5"/>
<text text-anchor="start" x="1550" y="-96.5" font-family="Helvetica,sans-Serif" font-size="10.00">applications/zpc/components</text>
<text text-anchor="middle" x="1633.5" y="-85.5" font-family="Helvetica,sans-Serif" font-size="10.00">/zwave_api/src/zwapi_protocol_nvm.c</text>
</a>
</g>
</g>
<!-- Node1&#45;&gt;Node18 -->
<g id="edge24" class="edge">
<title>Node1&#45;&gt;Node18</title>
<path fill="none" stroke="midnightblue" d="M1195.98,-242.13C1245.01,-235.79 1306.05,-223.17 1355.5,-198 1380.17,-185.44 1377.2,-169.26 1401.5,-156 1409.38,-151.7 1511.69,-125.35 1577.78,-108.56"/>
<polygon fill="midnightblue" stroke="midnightblue" points="1195.53,-238.66 1186.03,-243.35 1196.38,-245.6 1195.53,-238.66"/>
</g>
<!-- Node19 -->
<g id="node19" class="node">
<title>Node19</title>
<g id="a_node19"><a xlink:href="zwapi__protocol__rx__dispatch_8c.html" target="_top" xlink:title=" ">
<polygon fill="none" stroke="black" points="1743,-73 1743,-114 1894,-114 1894,-73 1743,-73"/>
<text text-anchor="start" x="1751" y="-102" font-family="Helvetica,sans-Serif" font-size="10.00">applications/zpc/components</text>
<text text-anchor="start" x="1751" y="-91" font-family="Helvetica,sans-Serif" font-size="10.00">/zwave_api/src/zwapi_protocol</text>
<text text-anchor="middle" x="1818.5" y="-80" font-family="Helvetica,sans-Serif" font-size="10.00">_rx_dispatch.c</text>
</a>
</g>
</g>
<!-- Node1&#45;&gt;Node19 -->
<g id="edge25" class="edge">
<title>Node1&#45;&gt;Node19</title>
<path fill="none" stroke="midnightblue" d="M1196.43,-245.28C1254.57,-240.23 1331.11,-227.85 1392.5,-198 1417.69,-185.75 1413.98,-167.56 1439.5,-156 1559.81,-101.5 1605.27,-147.29 1734.5,-120 1742.4,-118.33 1750.63,-116.26 1758.72,-114.03"/>
<polygon fill="midnightblue" stroke="midnightblue" points="1195.84,-241.82 1186.16,-246.12 1196.41,-248.8 1195.84,-241.82"/>
</g>
<!-- Node20 -->
<g id="node20" class="node">
<title>Node20</title>
<g id="a_node20"><a xlink:href="zwapi__protocol__transport_8c.html" target="_top" xlink:title=" ">
<polygon fill="none" stroke="black" points="1912,-73 1912,-114 2063,-114 2063,-73 1912,-73"/>
<text text-anchor="start" x="1920" y="-102" font-family="Helvetica,sans-Serif" font-size="10.00">applications/zpc/components</text>
<text text-anchor="start" x="1920" y="-91" font-family="Helvetica,sans-Serif" font-size="10.00">/zwave_api/src/zwapi_protocol</text>
<text text-anchor="middle" x="1987.5" y="-80" font-family="Helvetica,sans-Serif" font-size="10.00">_transport.c</text>
</a>
</g>
</g>
<!-- Node1&#45;&gt;Node20 -->
<g id="edge26" class="edge">
<title>Node1&#45;&gt;Node20</title>
<path fill="none" stroke="midnightblue" d="M1196.47,-240.71C1277.08,-232.49 1389.72,-217.95 1429.5,-198 1453.38,-186.02 1448.2,-167.1 1472.5,-156 1559.92,-116.07 1809.1,-138.06 1903.5,-120 1911.73,-118.42 1920.31,-116.35 1928.69,-114.06"/>
<polygon fill="midnightblue" stroke="midnightblue" points="1195.91,-237.25 1186.31,-241.73 1196.61,-244.21 1195.91,-237.25"/>
</g>
<!-- Node21 -->
<g id="node21" class="node">
<title>Node21</title>
<g id="a_node21"><a xlink:href="zwave__command__class__powerlevel_8c.html" target="_top" xlink:title=" ">
<polygon fill="none" stroke="black" points="1481,-156.5 1481,-197.5 1666,-197.5 1666,-156.5 1481,-156.5"/>
<text text-anchor="start" x="1489" y="-185.5" font-family="Helvetica,sans-Serif" font-size="10.00">applications/zpc/components</text>
<text text-anchor="start" x="1489" y="-174.5" font-family="Helvetica,sans-Serif" font-size="10.00">/zwave_command_classes/src</text>
<text text-anchor="middle" x="1573.5" y="-163.5" font-family="Helvetica,sans-Serif" font-size="10.00">/zwave_command_class_powerlevel.c</text>
</a>
</g>
</g>
<!-- Node1&#45;&gt;Node21 -->
<g id="edge27" class="edge">
<title>Node1&#45;&gt;Node21</title>
<path fill="none" stroke="midnightblue" d="M1196.09,-237.34C1268.88,-227.79 1375.12,-213.2 1467.5,-198 1471.84,-197.29 1476.28,-196.53 1480.76,-195.76"/>
<polygon fill="midnightblue" stroke="midnightblue" points="1195.5,-233.89 1186.04,-238.66 1196.41,-240.83 1195.5,-233.89"/>
</g>
<!-- Node22 -->
<g id="node22" class="node">
<title>Node22</title>
<g id="a_node22"><a xlink:href="zwave__command__class__version_8c.html" target="_top" xlink:title=" ">
<polygon fill="none" stroke="black" points="1684.5,-156.5 1684.5,-197.5 1854.5,-197.5 1854.5,-156.5 1684.5,-156.5"/>
<text text-anchor="start" x="1692.5" y="-185.5" font-family="Helvetica,sans-Serif" font-size="10.00">applications/zpc/components</text>
<text text-anchor="start" x="1692.5" y="-174.5" font-family="Helvetica,sans-Serif" font-size="10.00">/zwave_command_classes/src</text>
<text text-anchor="middle" x="1769.5" y="-163.5" font-family="Helvetica,sans-Serif" font-size="10.00">/zwave_command_class_version.c</text>
</a>
</g>
</g>
<!-- Node1&#45;&gt;Node22 -->
<g id="edge28" class="edge">
<title>Node1&#45;&gt;Node22</title>
<path fill="none" stroke="midnightblue" d="M1196.57,-243.96C1308.39,-237.44 1507.05,-223.33 1675.5,-198 1678.39,-197.57 1681.32,-197.1 1684.28,-196.6"/>
<polygon fill="midnightblue" stroke="midnightblue" points="1196.13,-240.48 1186.35,-244.55 1196.53,-247.47 1196.13,-240.48"/>
</g>
<!-- Node8 -->
<g id="node8" class="node">
<title>Node8</title>
<g id="a_node8"><a xlink:href="zpc__attribute__store__network__helper_8c.html" target="_top" xlink:title=" ">
<polygon fill="none" stroke="black" points="326,-67.5 326,-119.5 469,-119.5 469,-67.5 326,-67.5"/>
<text text-anchor="start" x="334" y="-107.5" font-family="Helvetica,sans-Serif" font-size="10.00">applications/zpc/components</text>
<text text-anchor="start" x="334" y="-96.5" font-family="Helvetica,sans-Serif" font-size="10.00">/zpc_attribute_store/src</text>
<text text-anchor="start" x="334" y="-85.5" font-family="Helvetica,sans-Serif" font-size="10.00">/zpc_attribute_store_network</text>
<text text-anchor="middle" x="397.5" y="-74.5" font-family="Helvetica,sans-Serif" font-size="10.00">_helper.c</text>
</a>
</g>
</g>
<!-- Node7&#45;&gt;Node8 -->
<g id="edge7" class="edge">
<title>Node7&#45;&gt;Node8</title>
<path fill="none" stroke="midnightblue" d="M876.97,-159.89C869.75,-158.45 862.49,-157.11 855.5,-156 688.84,-129.45 642.84,-153.82 477.5,-120 474.79,-119.44 472.04,-118.83 469.27,-118.17"/>
<polygon fill="midnightblue" stroke="midnightblue" points="876.27,-163.32 886.78,-161.92 877.69,-156.47 876.27,-163.32"/>
</g>
<!-- Node9 -->
<g id="node9" class="node">
<title>Node9</title>
<g id="a_node9"><a xlink:href="zwave__rx__fixt_8c.html" target="_top" xlink:title=" ">
<polygon fill="none" stroke="black" points="487,-73 487,-114 630,-114 630,-73 487,-73"/>
<text text-anchor="start" x="495" y="-102" font-family="Helvetica,sans-Serif" font-size="10.00">applications/zpc/components</text>
<text text-anchor="start" x="495" y="-91" font-family="Helvetica,sans-Serif" font-size="10.00">/zwave/zwave_rx/src/zwave</text>
<text text-anchor="middle" x="558.5" y="-80" font-family="Helvetica,sans-Serif" font-size="10.00">_rx_fixt.c</text>
</a>
</g>
</g>
<!-- Node7&#45;&gt;Node9 -->
<g id="edge8" class="edge">
<title>Node7&#45;&gt;Node9</title>
<path fill="none" stroke="midnightblue" d="M874.32,-159.84C867.96,-158.49 861.62,-157.19 855.5,-156 759.55,-137.28 733.54,-142.9 638.5,-120 631.27,-118.26 623.75,-116.2 616.34,-114.02"/>
<polygon fill="midnightblue" stroke="midnightblue" points="873.76,-163.3 884.28,-161.98 875.23,-156.46 873.76,-163.3"/>
</g>
<!-- Node11&#45;&gt;Node10 -->
<g id="edge14" class="edge">
<title>Node11&#45;&gt;Node10</title>
<path fill="none" stroke="midnightblue" d="M1145.05,-165.45C1027.96,-151.36 832.38,-127.3 799.5,-120 785.98,-117 771.48,-112.71 758.58,-108.51"/>
<polygon fill="midnightblue" stroke="midnightblue" points="1144.74,-168.94 1155.08,-166.66 1145.57,-161.99 1144.74,-168.94"/>
</g>
<!-- Node12 -->
<g id="node12" class="node">
<title>Node12</title>
<g id="a_node12"><a xlink:href="zwapi__connection_8h.html" target="_top" xlink:title="API to connect and send frames to the Z&#45;Wave module using the serial port.">
<polygon fill="none" stroke="black" points="1147.5,-78.5 1147.5,-108.5 1319.5,-108.5 1319.5,-78.5 1147.5,-78.5"/>
<text text-anchor="start" x="1155.5" y="-96.5" font-family="Helvetica,sans-Serif" font-size="10.00">applications/zpc/components</text>
<text text-anchor="middle" x="1233.5" y="-85.5" font-family="Helvetica,sans-Serif" font-size="10.00">/zwave_api/src/zwapi_connection.h</text>
</a>
</g>
</g>
<!-- Node11&#45;&gt;Node12 -->
<g id="edge11" class="edge">
<title>Node11&#45;&gt;Node12</title>
<path fill="none" stroke="midnightblue" d="M1233.5,-151.78C1233.5,-137.68 1233.5,-120.4 1233.5,-108.53"/>
<polygon fill="midnightblue" stroke="midnightblue" points="1230,-151.8 1233.5,-161.8 1237,-151.8 1230,-151.8"/>
</g>
<!-- Node11&#45;&gt;Node15 -->
<g id="edge15" class="edge">
<title>Node11&#45;&gt;Node15</title>
<path fill="none" stroke="midnightblue" d="M1148.68,-160.02C1096.46,-149.7 1028.29,-135.36 968.5,-120 961.41,-118.18 954.03,-116.15 946.72,-114.04"/>
<polygon fill="midnightblue" stroke="midnightblue" points="1148.08,-163.47 1158.57,-161.96 1149.43,-156.6 1148.08,-163.47"/>
</g>
<!-- Node11&#45;&gt;Node16 -->
<g id="edge16" class="edge">
<title>Node11&#45;&gt;Node16</title>
<path fill="none" stroke="midnightblue" d="M1193.24,-157.77C1164.6,-144.8 1126.14,-127.39 1096.83,-114.12"/>
<polygon fill="midnightblue" stroke="midnightblue" points="1192,-161.05 1202.56,-161.99 1194.89,-154.68 1192,-161.05"/>
</g>
<!-- Node11&#45;&gt;Node17 -->
<g id="edge17" class="edge">
<title>Node11&#45;&gt;Node17</title>
<path fill="none" stroke="midnightblue" d="M1276.64,-158.15C1312.63,-143.26 1363.22,-122.34 1396.42,-108.6"/>
<polygon fill="midnightblue" stroke="midnightblue" points="1275.27,-154.93 1267.37,-161.99 1277.94,-161.4 1275.27,-154.93"/>
</g>
<!-- Node11&#45;&gt;Node18 -->
<g id="edge18" class="edge">
<title>Node11&#45;&gt;Node18</title>
<path fill="none" stroke="midnightblue" d="M1321.67,-160.97C1381.36,-150.43 1461.92,-135.5 1532.5,-120 1548.13,-116.57 1565.03,-112.46 1580.44,-108.55"/>
<polygon fill="midnightblue" stroke="midnightblue" points="1320.76,-157.58 1311.52,-162.76 1321.98,-164.47 1320.76,-157.58"/>
</g>
<!-- Node11&#45;&gt;Node19 -->
<g id="edge19" class="edge">
<title>Node11&#45;&gt;Node19</title>
<path fill="none" stroke="midnightblue" d="M1321.78,-165.31C1347.48,-162.25 1375.61,-158.94 1401.5,-156 1549.41,-139.2 1588.64,-149.75 1734.5,-120 1742.56,-118.36 1750.96,-116.27 1759.2,-114"/>
<polygon fill="midnightblue" stroke="midnightblue" points="1321.2,-161.85 1311.69,-166.51 1322.03,-168.8 1321.2,-161.85"/>
</g>
<!-- Node11&#45;&gt;Node20 -->
<g id="edge20" class="edge">
<title>Node11&#45;&gt;Node20</title>
<path fill="none" stroke="midnightblue" d="M1321.82,-167.05C1358.25,-163.45 1400.89,-159.37 1439.5,-156 1645.56,-138.01 1700.23,-158.27 1903.5,-120 1911.74,-118.45 1920.31,-116.39 1928.7,-114.11"/>
<polygon fill="midnightblue" stroke="midnightblue" points="1321.33,-163.58 1311.72,-168.05 1322.02,-170.54 1321.33,-163.58"/>
</g>
<!-- Node13 -->
<g id="node13" class="node">
<title>Node13</title>
<g id="a_node13"><a xlink:href="zwapi__connection_8c.html" target="_top" xlink:title=" ">
<polygon fill="none" stroke="black" points="1055.5,-0.5 1055.5,-30.5 1227.5,-30.5 1227.5,-0.5 1055.5,-0.5"/>
<text text-anchor="start" x="1063.5" y="-18.5" font-family="Helvetica,sans-Serif" font-size="10.00">applications/zpc/components</text>
<text text-anchor="middle" x="1141.5" y="-7.5" font-family="Helvetica,sans-Serif" font-size="10.00">/zwave_api/src/zwapi_connection.c</text>
</a>
</g>
</g>
<!-- Node12&#45;&gt;Node13 -->
<g id="edge12" class="edge">
<title>Node12&#45;&gt;Node13</title>
<path fill="none" stroke="midnightblue" d="M1208.39,-71.75C1192.62,-58.73 1172.71,-42.28 1158.73,-30.73"/>
<polygon fill="midnightblue" stroke="midnightblue" points="1206.26,-74.53 1216.2,-78.2 1210.71,-69.14 1206.26,-74.53"/>
</g>
<!-- Node14 -->
<g id="node14" class="node">
<title>Node14</title>
<g id="a_node14"><a xlink:href="zwapi__session_8c.html" target="_top" xlink:title=" ">
<polygon fill="none" stroke="black" points="1245.5,-0.5 1245.5,-30.5 1403.5,-30.5 1403.5,-0.5 1245.5,-0.5"/>
<text text-anchor="start" x="1253.5" y="-18.5" font-family="Helvetica,sans-Serif" font-size="10.00">applications/zpc/components</text>
<text text-anchor="middle" x="1324.5" y="-7.5" font-family="Helvetica,sans-Serif" font-size="10.00">/zwave_api/src/zwapi_session.c</text>
</a>
</g>
</g>
<!-- Node12&#45;&gt;Node14 -->
<g id="edge13" class="edge">
<title>Node12&#45;&gt;Node14</title>
<path fill="none" stroke="midnightblue" d="M1258.34,-71.75C1273.93,-58.73 1293.63,-42.28 1307.46,-30.73"/>
<polygon fill="midnightblue" stroke="midnightblue" points="1256.05,-69.11 1250.62,-78.2 1260.54,-74.48 1256.05,-69.11"/>
</g>
</g>
</svg>
