<?xml version="1.0" encoding="UTF-8" standalone="no"?>
<!DOCTYPE svg PUBLIC "-//W3C//DTD SVG 1.1//EN"
 "http://www.w3.org/Graphics/SVG/1.1/DTD/svg11.dtd">
<!-- Generated by graphviz version 2.43.0 (0)
 -->
<!-- Title: zwapi_read_node_id Pages: 1 -->
<svg width="1092pt" height="312pt"
 viewBox="0.00 0.00 1092.00 311.50" xmlns="http://www.w3.org/2000/svg" xmlns:xlink="http://www.w3.org/1999/xlink">
<g id="graph0" class="graph" transform="scale(1 1) rotate(0) translate(4 307.5)">
<title>zwapi_read_node_id</title>
<!-- Node1 -->
<g id="node1" class="node">
<title>Node1</title>
<g id="a_node1"><a xlink:title="Read the node ID from buffer based on node ID basetype. Note that this helper also advances the index...">
<polygon fill="#bfbfbf" stroke="black" points="979,-145.5 979,-164.5 1084,-164.5 1084,-145.5 979,-145.5"/>
<text text-anchor="middle" x="1031.5" y="-152.5" font-family="Helvetica,sans-Serif" font-size="10.00">zwapi_read_node_id</text>
</a>
</g>
</g>
<!-- Node2 -->
<g id="node2" class="node">
<title>Node2</title>
<g id="a_node2"><a xlink:href="group__ZWAPI__CONTROLLER.html#ga96d2223f3b07ebcdea76c9719518a83a" target="_top" xlink:title="Get the Last Working Route (LWR) for a destination node if any exist.">
<polygon fill="none" stroke="black" points="836,-184 836,-214 931,-214 931,-184 836,-184"/>
<text text-anchor="start" x="844" y="-202" font-family="Helvetica,sans-Serif" font-size="10.00">zwapi_get_priority</text>
<text text-anchor="middle" x="883.5" y="-191" font-family="Helvetica,sans-Serif" font-size="10.00">_route</text>
</a>
</g>
</g>
<!-- Node1&#45;&gt;Node2 -->
<g id="edge1" class="edge">
<title>Node1&#45;&gt;Node2</title>
<path fill="none" stroke="midnightblue" d="M989.14,-167.47C971.05,-172.92 949.74,-179.34 931.09,-184.96"/>
<polygon fill="midnightblue" stroke="midnightblue" points="990.26,-170.78 998.82,-164.55 988.24,-164.08 990.26,-170.78"/>
</g>
<!-- Node3 -->
<g id="node3" class="node">
<title>Node3</title>
<g id="a_node3"><a xlink:href="group__ZWAPI__MEM.html#ga7e303e378a0865e5e9e6b921d4f3ebc6" target="_top" xlink:title="Get the Home ID and Node ID of the Z&#45;Wave module.">
<polygon fill="none" stroke="black" points="824,-145.5 824,-164.5 943,-164.5 943,-145.5 824,-145.5"/>
<text text-anchor="middle" x="883.5" y="-152.5" font-family="Helvetica,sans-Serif" font-size="10.00">zwapi_memory_get_ids</text>
</a>
</g>
</g>
<!-- Node1&#45;&gt;Node3 -->
<g id="edge2" class="edge">
<title>Node1&#45;&gt;Node3</title>
<path fill="none" stroke="midnightblue" d="M968.5,-155C960.11,-155 951.52,-155 943.18,-155"/>
<polygon fill="midnightblue" stroke="midnightblue" points="968.61,-158.5 978.61,-155 968.61,-151.5 968.61,-158.5"/>
</g>
<!-- Node11 -->
<g id="node11" class="node">
<title>Node11</title>
<g id="a_node11"><a xlink:href="zwapi__protocol__rx__dispatch_8c.html#adae889855e6d3fcf03c1723303a9ab13" target="_top" xlink:title="Execute a callback based on a received frame from the Z&#45;Wave module.">
<polygon fill="none" stroke="black" points="832,-96 832,-126 935,-126 935,-96 832,-96"/>
<text text-anchor="start" x="840" y="-114" font-family="Helvetica,sans-Serif" font-size="10.00">zwave_api_protocol</text>
<text text-anchor="middle" x="883.5" y="-103" font-family="Helvetica,sans-Serif" font-size="10.00">_rx_dispatch</text>
</a>
</g>
</g>
<!-- Node1&#45;&gt;Node11 -->
<g id="edge13" class="edge">
<title>Node1&#45;&gt;Node11</title>
<path fill="none" stroke="midnightblue" d="M989.17,-142.54C972.16,-137.42 952.31,-131.44 934.49,-126.07"/>
<polygon fill="midnightblue" stroke="midnightblue" points="988.24,-145.92 998.82,-145.45 990.26,-139.22 988.24,-145.92"/>
</g>
<!-- Node4 -->
<g id="node4" class="node">
<title>Node4</title>
<g id="a_node4"><a xlink:href="group__zwave__network__management__helpers.html#ga5b5936eb9f5a42d143b0c1714d8a7d68" target="_top" xlink:title="Asks the Z&#45;Wave API to tell us our current HomeID and NodeID.">
<polygon fill="none" stroke="black" points="675,-159 675,-189 788,-189 788,-159 675,-159"/>
<text text-anchor="start" x="683" y="-177" font-family="Helvetica,sans-Serif" font-size="10.00">network_management</text>
<text text-anchor="middle" x="731.5" y="-166" font-family="Helvetica,sans-Serif" font-size="10.00">_refresh_cached_ids</text>
</a>
</g>
</g>
<!-- Node3&#45;&gt;Node4 -->
<g id="edge3" class="edge">
<title>Node3&#45;&gt;Node4</title>
<path fill="none" stroke="midnightblue" d="M813.71,-163.71C805.18,-164.79 796.54,-165.89 788.24,-166.94"/>
<polygon fill="midnightblue" stroke="midnightblue" points="814.17,-167.18 823.65,-162.45 813.29,-160.24 814.17,-167.18"/>
</g>
<!-- Node5 -->
<g id="node5" class="node">
<title>Node5</title>
<g id="a_node5"><a xlink:href="group__zwave__network__management__helpers.html#ga928b8064fa28f0d83d52c176d8dd994b" target="_top" xlink:title="Quick helper function that will refresh all network information (HomeID, NodeID, Node list,...">
<polygon fill="none" stroke="black" points="494,-219 494,-249 639,-249 639,-219 494,-219"/>
<text text-anchor="start" x="502" y="-237" font-family="Helvetica,sans-Serif" font-size="10.00">network_management</text>
<text text-anchor="middle" x="566.5" y="-226" font-family="Helvetica,sans-Serif" font-size="10.00">_refresh_network_information</text>
</a>
</g>
</g>
<!-- Node4&#45;&gt;Node5 -->
<g id="edge4" class="edge">
<title>Node4&#45;&gt;Node5</title>
<path fill="none" stroke="midnightblue" d="M679.78,-192.67C656.8,-201.13 629.99,-211 608.34,-218.97"/>
<polygon fill="midnightblue" stroke="midnightblue" points="681.19,-195.88 689.37,-189.14 678.77,-189.31 681.19,-195.88"/>
</g>
<!-- Node6 -->
<g id="node6" class="node">
<title>Node6</title>
<g id="a_node6"><a xlink:href="nm__state__machine_8c.html#ac9fe4041f9ca45bad16c9b6ad7bae02f" target="_top" xlink:title=" ">
<polygon fill="none" stroke="black" points="169.5,-183.5 169.5,-202.5 274.5,-202.5 274.5,-183.5 169.5,-183.5"/>
<text text-anchor="middle" x="222" y="-190.5" font-family="Helvetica,sans-Serif" font-size="10.00">nm_fsm_post_event</text>
</a>
</g>
</g>
<!-- Node4&#45;&gt;Node6 -->
<g id="edge12" class="edge">
<title>Node4&#45;&gt;Node6</title>
<path fill="none" stroke="midnightblue" d="M664.53,-176.47C562.23,-180.3 367.48,-187.59 274.67,-191.07"/>
<polygon fill="midnightblue" stroke="midnightblue" points="664.87,-179.96 674.74,-176.09 664.61,-172.96 664.87,-179.96"/>
</g>
<!-- Node5&#45;&gt;Node6 -->
<g id="edge5" class="edge">
<title>Node5&#45;&gt;Node6</title>
<path fill="none" stroke="midnightblue" d="M483.79,-239.42C438.45,-240.82 381.22,-239.91 331,-231 299.49,-225.41 264.9,-211.82 243.56,-202.51"/>
<polygon fill="midnightblue" stroke="midnightblue" points="484,-242.92 493.87,-239.07 483.75,-235.92 484,-242.92"/>
</g>
<!-- Node8 -->
<g id="node8" class="node">
<title>Node8</title>
<g id="a_node8"><a xlink:href="nm__state__machine_8c.html#a4bedb93fa551c5f612efe78db1642309" target="_top" xlink:title="Initialize the Z&#45;Wave network management state machine.">
<polygon fill="none" stroke="black" points="336,-278.5 336,-297.5 453,-297.5 453,-278.5 336,-278.5"/>
<text text-anchor="middle" x="394.5" y="-285.5" font-family="Helvetica,sans-Serif" font-size="10.00">nm_state_machine_init</text>
</a>
</g>
</g>
<!-- Node5&#45;&gt;Node8 -->
<g id="edge8" class="edge">
<title>Node5&#45;&gt;Node8</title>
<path fill="none" stroke="midnightblue" d="M508.52,-252.1C480.73,-260.93 448.43,-271.19 425.5,-278.47"/>
<polygon fill="midnightblue" stroke="midnightblue" points="509.67,-255.41 518.15,-249.04 507.56,-248.73 509.67,-255.41"/>
</g>
<!-- Node10 -->
<g id="node10" class="node">
<title>Node10</title>
<g id="a_node10"><a xlink:href="nm__state__machine_8c.html#abcdc17538148dcf4141793a866836aae" target="_top" xlink:title="This function is called at the end of a set default or after learnmode.">
<polygon fill="none" stroke="black" points="349.5,-202.5 349.5,-221.5 439.5,-221.5 439.5,-202.5 349.5,-202.5"/>
<text text-anchor="middle" x="394.5" y="-209.5" font-family="Helvetica,sans-Serif" font-size="10.00">on_new_network</text>
</a>
</g>
</g>
<!-- Node5&#45;&gt;Node10 -->
<g id="edge10" class="edge">
<title>Node5&#45;&gt;Node10</title>
<path fill="none" stroke="midnightblue" d="M483.95,-223.45C468.76,-221.48 453.42,-219.5 439.88,-217.74"/>
<polygon fill="midnightblue" stroke="midnightblue" points="483.53,-226.92 493.9,-224.73 484.43,-219.98 483.53,-226.92"/>
</g>
<!-- Node6&#45;&gt;Node6 -->
<g id="edge6" class="edge">
<title>Node6&#45;&gt;Node6</title>
<path fill="none" stroke="midnightblue" d="M252.69,-211.27C251.81,-216.74 241.58,-221 222,-221 192.85,-221 184.43,-211.57 196.72,-202.76"/>
<polygon fill="midnightblue" stroke="midnightblue" points="255.59,-209.32 247.28,-202.76 249.69,-213.07 255.59,-209.32"/>
</g>
<!-- Node7 -->
<g id="node7" class="node">
<title>Node7</title>
<g id="a_node7"><a xlink:href="zwave__network__management__process_8c.html#a59cf655b084839b45cc25e23b3aef04c" target="_top" xlink:title=" ">
<polygon fill="none" stroke="black" points="0,-183.5 0,-202.5 113,-202.5 113,-183.5 0,-183.5"/>
<text text-anchor="middle" x="56.5" y="-190.5" font-family="Helvetica,sans-Serif" font-size="10.00">PROCESS_THREAD</text>
</a>
</g>
</g>
<!-- Node6&#45;&gt;Node7 -->
<g id="edge7" class="edge">
<title>Node6&#45;&gt;Node7</title>
<path fill="none" stroke="midnightblue" d="M159.01,-193C143.93,-193 127.9,-193 113.14,-193"/>
<polygon fill="midnightblue" stroke="midnightblue" points="159.27,-196.5 169.27,-193 159.27,-189.5 159.27,-196.5"/>
</g>
<!-- Node9 -->
<g id="node9" class="node">
<title>Node9</title>
<g id="a_node9"><a xlink:href="group__zwave__network__management__fixt.html#gaa8950dbf92037e3ec5e0385641176c98" target="_top" xlink:title="Initialize the Z&#45;Wave Network Management Module.">
<polygon fill="none" stroke="black" points="149,-273 149,-303 295,-303 295,-273 149,-273"/>
<text text-anchor="start" x="157" y="-291" font-family="Helvetica,sans-Serif" font-size="10.00">zwave_network_management</text>
<text text-anchor="middle" x="222" y="-280" font-family="Helvetica,sans-Serif" font-size="10.00">_fixt_setup</text>
</a>
</g>
</g>
<!-- Node8&#45;&gt;Node9 -->
<g id="edge9" class="edge">
<title>Node8&#45;&gt;Node9</title>
<path fill="none" stroke="midnightblue" d="M325.52,-288C315.54,-288 305.24,-288 295.18,-288"/>
<polygon fill="midnightblue" stroke="midnightblue" points="325.78,-291.5 335.78,-288 325.78,-284.5 325.78,-291.5"/>
</g>
<!-- Node10&#45;&gt;Node6 -->
<g id="edge11" class="edge">
<title>Node10&#45;&gt;Node6</title>
<path fill="none" stroke="midnightblue" d="M338.97,-205.92C318.38,-203.63 295.02,-201.03 274.69,-198.76"/>
<polygon fill="midnightblue" stroke="midnightblue" points="338.82,-209.43 349.15,-207.06 339.6,-202.47 338.82,-209.43"/>
</g>
<!-- Node12 -->
<g id="node12" class="node">
<title>Node12</title>
<g id="a_node12"><a xlink:href="group__ZWAPI__INIT.html#gad44a77c9f06a6a5b81d5b3fd1f38e6b1" target="_top" xlink:title="Main poll loop for the Z&#45;Wave API.">
<polygon fill="none" stroke="black" points="700.5,-101.5 700.5,-120.5 762.5,-120.5 762.5,-101.5 700.5,-101.5"/>
<text text-anchor="middle" x="731.5" y="-108.5" font-family="Helvetica,sans-Serif" font-size="10.00">zwapi_poll</text>
</a>
</g>
</g>
<!-- Node11&#45;&gt;Node12 -->
<g id="edge14" class="edge">
<title>Node11&#45;&gt;Node12</title>
<path fill="none" stroke="midnightblue" d="M821.58,-111C801.29,-111 779.58,-111 762.66,-111"/>
<polygon fill="midnightblue" stroke="midnightblue" points="821.72,-114.5 831.72,-111 821.72,-107.5 821.72,-114.5"/>
</g>
<!-- Node13 -->
<g id="node13" class="node">
<title>Node13</title>
<g id="a_node13"><a xlink:href="ext__nvm__tools_8c.html#acef510833d69d86e376fa1ef62223e23" target="_top" xlink:title=" ">
<polygon fill="none" stroke="black" points="516.5,-38.5 516.5,-57.5 616.5,-57.5 616.5,-38.5 516.5,-38.5"/>
<text text-anchor="middle" x="566.5" y="-45.5" font-family="Helvetica,sans-Serif" font-size="10.00">ZW_NVM_Restore</text>
</a>
</g>
</g>
<!-- Node12&#45;&gt;Node13 -->
<g id="edge15" class="edge">
<title>Node12&#45;&gt;Node13</title>
<path fill="none" stroke="midnightblue" d="M703.79,-96.51C685.85,-87.18 661.46,-75.3 639,-67 629.36,-63.44 618.77,-60.25 608.75,-57.54"/>
<polygon fill="midnightblue" stroke="midnightblue" points="702.57,-99.82 713.05,-101.38 705.83,-93.62 702.57,-99.82"/>
</g>
<!-- Node14 -->
<g id="node14" class="node">
<title>Node14</title>
<g id="a_node14"><a xlink:href="zwave__rx__process_8c.html#a1f0b437f1f0b50eaf5b8f6b046beecb9" target="_top" xlink:title="Polls for incoming messages from the Z&#45;Wave Module.">
<polygon fill="none" stroke="black" points="527,-126.5 527,-145.5 606,-145.5 606,-126.5 527,-126.5"/>
<text text-anchor="middle" x="566.5" y="-133.5" font-family="Helvetica,sans-Serif" font-size="10.00">zwave_rx_poll</text>
</a>
</g>
</g>
<!-- Node12&#45;&gt;Node14 -->
<g id="edge16" class="edge">
<title>Node12&#45;&gt;Node14</title>
<path fill="none" stroke="midnightblue" d="M690.09,-117.2C664.49,-121.12 631.54,-126.18 606.26,-130.06"/>
<polygon fill="midnightblue" stroke="midnightblue" points="690.87,-120.62 700.22,-115.64 689.81,-113.7 690.87,-120.62"/>
</g>
<!-- Node16 -->
<g id="node16" class="node">
<title>Node16</title>
<g id="a_node16"><a xlink:href="group__zwave__rx.html#gaf0bda5801b11477480aa34a8e04e4547" target="_top" xlink:title=" ">
<polygon fill="none" stroke="black" points="500.5,-77 500.5,-107 632.5,-107 632.5,-77 500.5,-77"/>
<text text-anchor="start" x="508.5" y="-95" font-family="Helvetica,sans-Serif" font-size="10.00">zwave_rx_wait_for_zwave</text>
<text text-anchor="middle" x="566.5" y="-84" font-family="Helvetica,sans-Serif" font-size="10.00">_api_to_be_ready</text>
</a>
</g>
</g>
<!-- Node12&#45;&gt;Node16 -->
<g id="edge18" class="edge">
<title>Node12&#45;&gt;Node16</title>
<path fill="none" stroke="midnightblue" d="M689.93,-106.27C672.65,-104.26 652.06,-101.86 632.73,-99.6"/>
<polygon fill="midnightblue" stroke="midnightblue" points="689.88,-109.79 700.22,-107.47 690.7,-102.84 689.88,-109.79"/>
</g>
<!-- Node15 -->
<g id="node15" class="node">
<title>Node15</title>
<g id="a_node15"><a xlink:href="zwave__rx__process_8c.html#a186b6143153fa283a4b45676f3f2f3dd" target="_top" xlink:title=" ">
<polygon fill="none" stroke="black" points="338,-126.5 338,-145.5 451,-145.5 451,-126.5 338,-126.5"/>
<text text-anchor="middle" x="394.5" y="-133.5" font-family="Helvetica,sans-Serif" font-size="10.00">PROCESS_THREAD</text>
</a>
</g>
</g>
<!-- Node14&#45;&gt;Node15 -->
<g id="edge17" class="edge">
<title>Node14&#45;&gt;Node15</title>
<path fill="none" stroke="midnightblue" d="M516.84,-136C496.29,-136 472.25,-136 451.01,-136"/>
<polygon fill="midnightblue" stroke="midnightblue" points="516.92,-139.5 526.92,-136 516.92,-132.5 516.92,-139.5"/>
</g>
<!-- Node16&#45;&gt;Node6 -->
<g id="edge19" class="edge">
<title>Node16&#45;&gt;Node6</title>
<path fill="none" stroke="midnightblue" d="M490.16,-90.5C443.05,-91.86 381.88,-97.87 331,-117 290.44,-132.25 250.9,-166.41 232.99,-183.24"/>
<polygon fill="midnightblue" stroke="midnightblue" points="490.37,-94 500.29,-90.27 490.22,-87 490.37,-94"/>
</g>
<!-- Node17 -->
<g id="node17" class="node">
<title>Node17</title>
<g id="a_node17"><a xlink:href="zcl__rf__telemetry__cluster__server_8c.html#ac29ff666c3782d03a6bc8735c6d0f54a" target="_top" xlink:title=" ">
<polygon fill="none" stroke="black" points="331,-39 331,-69 458,-69 458,-39 331,-39"/>
<text text-anchor="start" x="339" y="-57" font-family="Helvetica,sans-Serif" font-size="10.00">on_rf_telemetry_pti</text>
<text text-anchor="middle" x="394.5" y="-46" font-family="Helvetica,sans-Serif" font-size="10.00">_enabled_desired_update</text>
</a>
</g>
</g>
<!-- Node16&#45;&gt;Node17 -->
<g id="edge20" class="edge">
<title>Node16&#45;&gt;Node17</title>
<path fill="none" stroke="midnightblue" d="M490.41,-75.22C479.6,-72.8 468.58,-70.34 458.05,-67.98"/>
<polygon fill="midnightblue" stroke="midnightblue" points="489.74,-78.65 500.26,-77.42 491.26,-71.82 489.74,-78.65"/>
</g>
<!-- Node19 -->
<g id="node19" class="node">
<title>Node19</title>
<g id="a_node19"><a xlink:href="group__zwave__rx__internals.html#ga5fb555f285dbe1b21ba750d0443476c8" target="_top" xlink:title="Initialize the Z&#45;Wave Rx component.">
<polygon fill="none" stroke="black" points="356,-0.5 356,-19.5 433,-19.5 433,-0.5 356,-0.5"/>
<text text-anchor="middle" x="394.5" y="-7.5" font-family="Helvetica,sans-Serif" font-size="10.00">zwave_rx_init</text>
</a>
</g>
</g>
<!-- Node16&#45;&gt;Node19 -->
<g id="edge22" class="edge">
<title>Node16&#45;&gt;Node19</title>
<path fill="none" stroke="midnightblue" d="M503.79,-72.62C500.4,-70.88 497.11,-69.01 494,-67 474.47,-54.36 477.79,-41.23 458,-29 450.48,-24.35 441.73,-20.77 433.22,-18.04"/>
<polygon fill="midnightblue" stroke="midnightblue" points="502.42,-75.84 512.96,-76.91 505.39,-69.5 502.42,-75.84"/>
</g>
<!-- Node18 -->
<g id="node18" class="node">
<title>Node18</title>
<g id="a_node18"><a xlink:href="group__zcl__rf__telemetry__cluster__server.html#ga5a27d7313f0a22b85af05134a114a799" target="_top" xlink:title="Initialize the ZCL ProtocolController RF Telemetry cluster service.">
<polygon fill="none" stroke="black" points="161.5,-39 161.5,-69 282.5,-69 282.5,-39 161.5,-39"/>
<text text-anchor="start" x="169.5" y="-57" font-family="Helvetica,sans-Serif" font-size="10.00">zcl_rf_telemetry_cluster</text>
<text text-anchor="middle" x="222" y="-46" font-family="Helvetica,sans-Serif" font-size="10.00">_server_init</text>
</a>
</g>
</g>
<!-- Node17&#45;&gt;Node18 -->
<g id="edge21" class="edge">
<title>Node17&#45;&gt;Node18</title>
<path fill="none" stroke="midnightblue" d="M320.87,-54C308.13,-54 295.01,-54 282.67,-54"/>
<polygon fill="midnightblue" stroke="midnightblue" points="320.98,-57.5 330.98,-54 320.98,-50.5 320.98,-57.5"/>
</g>
<!-- Node20 -->
<g id="node20" class="node">
<title>Node20</title>
<g id="a_node20"><a xlink:href="group__zwave__rx__fixt.html#ga89a6db07ef29cb6ad8f8cdeec935b442" target="_top" xlink:title=" ">
<polygon fill="none" stroke="black" points="168.5,-0.5 168.5,-19.5 275.5,-19.5 275.5,-0.5 168.5,-0.5"/>
<text text-anchor="middle" x="222" y="-7.5" font-family="Helvetica,sans-Serif" font-size="10.00">zwave_rx_fixt_setup</text>
</a>
</g>
</g>
<!-- Node19&#45;&gt;Node20 -->
<g id="edge23" class="edge">
<title>Node19&#45;&gt;Node20</title>
<path fill="none" stroke="midnightblue" d="M345.64,-10C323.83,-10 297.95,-10 275.61,-10"/>
<polygon fill="midnightblue" stroke="midnightblue" points="345.66,-13.5 355.66,-10 345.66,-6.5 345.66,-13.5"/>
</g>
</g>
</svg>
