<?xml version="1.0" encoding="UTF-8" standalone="no"?>
<!DOCTYPE svg PUBLIC "-//W3C//DTD SVG 1.1//EN"
 "http://www.w3.org/Graphics/SVG/1.1/DTD/svg11.dtd">
<!-- Generated by graphviz version 2.43.0 (0)
 -->
<!-- Title: zwapi_connection_refresh Pages: 1 -->
<svg width="618pt" height="291pt"
 viewBox="0.00 0.00 618.00 290.50" xmlns="http://www.w3.org/2000/svg" xmlns:xlink="http://www.w3.org/1999/xlink">
<g id="graph0" class="graph" transform="scale(1 1) rotate(0) translate(4 286.5)">
<title>zwapi_connection_refresh</title>
<!-- Node1 -->
<g id="node1" class="node">
<title>Node1</title>
<g id="a_node1"><a xlink:title="Parses serial data sent from the Z&#45;Wave module to the serial port. Should be frequently called by mai...">
<polygon fill="#bfbfbf" stroke="black" points="0,-126.5 0,-145.5 130,-145.5 130,-126.5 0,-126.5"/>
<text text-anchor="middle" x="65" y="-133.5" font-family="Helvetica,sans-Serif" font-size="10.00">zwapi_connection_refresh</text>
</a>
</g>
</g>
<!-- Node2 -->
<g id="node2" class="node">
<title>Node2</title>
<g id="a_node2"><a xlink:href="zwapi__timestamp_8c.html#a3925f2732e344672608db38351236688" target="_top" xlink:title="compare the current timestamp with the timestamp passed as an argument">
<polygon fill="none" stroke="black" points="169.5,-252 169.5,-282 275.5,-282 275.5,-252 169.5,-252"/>
<text text-anchor="start" x="177.5" y="-270" font-family="Helvetica,sans-Serif" font-size="10.00">zwapi_is_timestamp</text>
<text text-anchor="middle" x="222.5" y="-259" font-family="Helvetica,sans-Serif" font-size="10.00">_elapsed</text>
</a>
</g>
</g>
<!-- Node1&#45;&gt;Node2 -->
<g id="edge1" class="edge">
<title>Node1&#45;&gt;Node2</title>
<path fill="none" stroke="midnightblue" d="M72.74,-145.52C87.53,-165.86 124.84,-214.01 166,-243 168.07,-244.45 170.23,-245.85 172.46,-247.18"/>
<polygon fill="midnightblue" stroke="midnightblue" points="170.86,-250.29 181.31,-252 174.21,-244.14 170.86,-250.29"/>
</g>
<!-- Node3 -->
<g id="node3" class="node">
<title>Node3</title>
<g id="a_node3"><a xlink:href="zwapi__serial_8c.html#a3f2b3bd848e9fe0e6e137482bed06b46" target="_top" xlink:title="Flush the serial output if using buffered output.">
<polygon fill="none" stroke="black" points="174,-203 174,-233 271,-233 271,-203 174,-203"/>
<text text-anchor="start" x="182" y="-221" font-family="Helvetica,sans-Serif" font-size="10.00">zwapi_serial_drain</text>
<text text-anchor="middle" x="222.5" y="-210" font-family="Helvetica,sans-Serif" font-size="10.00">_buffer</text>
</a>
</g>
</g>
<!-- Node1&#45;&gt;Node3 -->
<g id="edge2" class="edge">
<title>Node1&#45;&gt;Node3</title>
<path fill="none" stroke="midnightblue" d="M81.68,-145.55C101.16,-157.28 135.54,-177.5 166,-193 169.71,-194.89 173.59,-196.78 177.5,-198.65"/>
<polygon fill="midnightblue" stroke="midnightblue" points="176.08,-201.84 186.62,-202.9 179.04,-195.5 176.08,-201.84"/>
</g>
<!-- Node4 -->
<g id="node4" class="node">
<title>Node4</title>
<g id="a_node4"><a xlink:href="zwapi__serial_8c.html#a538134f9fdbb1ce052667b3a041357bd" target="_top" xlink:title="Reads the output of the serial port device and stores the content in a buffer.">
<polygon fill="none" stroke="black" points="315,-127.5 315,-146.5 434,-146.5 434,-127.5 315,-127.5"/>
<text text-anchor="middle" x="374.5" y="-134.5" font-family="Helvetica,sans-Serif" font-size="10.00">zwapi_serial_get_buffer</text>
</a>
</g>
</g>
<!-- Node1&#45;&gt;Node4 -->
<g id="edge3" class="edge">
<title>Node1&#45;&gt;Node4</title>
<path fill="none" stroke="midnightblue" d="M130.09,-136.21C181.16,-136.37 252.52,-136.61 304.77,-136.78"/>
<polygon fill="midnightblue" stroke="midnightblue" points="304.94,-140.28 314.96,-136.81 304.97,-133.28 304.94,-140.28"/>
</g>
<!-- Node7 -->
<g id="node7" class="node">
<title>Node7</title>
<g id="a_node7"><a xlink:href="zwapi__serial_8c.html#abb082b1e7e727203e3ca5fbeb41f7c2b" target="_top" xlink:title="Reads a byte from the serial port device.">
<polygon fill="none" stroke="black" points="166,-164.5 166,-183.5 279,-183.5 279,-164.5 166,-164.5"/>
<text text-anchor="middle" x="222.5" y="-171.5" font-family="Helvetica,sans-Serif" font-size="10.00">zwapi_serial_get_byte</text>
</a>
</g>
</g>
<!-- Node1&#45;&gt;Node7 -->
<g id="edge6" class="edge">
<title>Node1&#45;&gt;Node7</title>
<path fill="none" stroke="midnightblue" d="M105.24,-145.59C125.76,-150.6 151.07,-156.79 172.83,-162.11"/>
<polygon fill="midnightblue" stroke="midnightblue" points="172,-165.51 182.54,-164.48 173.66,-158.71 172,-165.51"/>
</g>
<!-- Node8 -->
<g id="node8" class="node">
<title>Node8</title>
<g id="a_node8"><a xlink:href="zwapi__serial_8c.html#a9a952dc2b34d92960246f6dc4e7d58f7" target="_top" xlink:title="Check the file descriptor for the serial device is available for I/O operations.">
<polygon fill="none" stroke="black" points="172,-39 172,-69 273,-69 273,-39 172,-39"/>
<text text-anchor="start" x="180" y="-57" font-family="Helvetica,sans-Serif" font-size="10.00">zwapi_serial_is_file</text>
<text text-anchor="middle" x="222.5" y="-46" font-family="Helvetica,sans-Serif" font-size="10.00">_available</text>
</a>
</g>
</g>
<!-- Node1&#45;&gt;Node8 -->
<g id="edge8" class="edge">
<title>Node1&#45;&gt;Node8</title>
<path fill="none" stroke="midnightblue" d="M81.68,-126.45C101.16,-114.72 135.54,-94.5 166,-79 169.71,-77.11 173.59,-75.22 177.5,-73.35"/>
<polygon fill="midnightblue" stroke="midnightblue" points="179.04,-76.5 186.62,-69.1 176.08,-70.16 179.04,-76.5"/>
</g>
<!-- Node9 -->
<g id="node9" class="node">
<title>Node9</title>
<g id="a_node9"><a xlink:href="zwapi__serial_8c.html#a7762d0358e9f398b92edbfd6a550984a" target="_top" xlink:title="Write a byte to serial port device.">
<polygon fill="none" stroke="black" points="166,-88.5 166,-107.5 279,-107.5 279,-88.5 166,-88.5"/>
<text text-anchor="middle" x="222.5" y="-95.5" font-family="Helvetica,sans-Serif" font-size="10.00">zwapi_serial_put_byte</text>
</a>
</g>
</g>
<!-- Node1&#45;&gt;Node9 -->
<g id="edge9" class="edge">
<title>Node1&#45;&gt;Node9</title>
<path fill="none" stroke="midnightblue" d="M105.24,-126.41C125.76,-121.4 151.07,-115.21 172.83,-109.89"/>
<polygon fill="midnightblue" stroke="midnightblue" points="173.66,-113.29 182.54,-107.52 172,-106.49 173.66,-113.29"/>
</g>
<!-- Node11 -->
<g id="node11" class="node">
<title>Node11</title>
<g id="a_node11"><a xlink:href="zwapi__timestamp_8c.html#a6ebe1ddfe689bce6ee72fc12f708aece" target="_top" xlink:title="get the timestamp">
<polygon fill="none" stroke="black" points="166.5,-0.5 166.5,-19.5 278.5,-19.5 278.5,-0.5 166.5,-0.5"/>
<text text-anchor="middle" x="222.5" y="-7.5" font-family="Helvetica,sans-Serif" font-size="10.00">zwapi_timestamp_get</text>
</a>
</g>
</g>
<!-- Node1&#45;&gt;Node11 -->
<g id="edge13" class="edge">
<title>Node1&#45;&gt;Node11</title>
<path fill="none" stroke="midnightblue" d="M72.57,-126.22C87.03,-105.4 123.74,-56.36 166,-29 169.09,-27 172.41,-25.19 175.84,-23.55"/>
<polygon fill="midnightblue" stroke="midnightblue" points="177.25,-26.75 185.07,-19.6 174.5,-20.31 177.25,-26.75"/>
</g>
<!-- Node5 -->
<g id="node5" class="node">
<title>Node5</title>
<g id="a_node5"><a xlink:href="zwapi__serial_8c.html#a0accbbf7ddb7aeab10f5df1fe3df6642" target="_top" xlink:title=" ">
<polygon fill="none" stroke="black" points="470,-129.5 470,-148.5 610,-148.5 610,-129.5 470,-129.5"/>
<text text-anchor="middle" x="540" y="-136.5" font-family="Helvetica,sans-Serif" font-size="10.00">zwapi_serial_log_timestamp</text>
</a>
</g>
</g>
<!-- Node4&#45;&gt;Node5 -->
<g id="edge4" class="edge">
<title>Node4&#45;&gt;Node5</title>
<path fill="none" stroke="midnightblue" d="M434.07,-137.72C442.43,-137.82 451.15,-137.93 459.82,-138.03"/>
<polygon fill="midnightblue" stroke="midnightblue" points="459.93,-141.53 469.97,-138.16 460.01,-134.53 459.93,-141.53"/>
</g>
<!-- Node6 -->
<g id="node6" class="node">
<title>Node6</title>
<g id="a_node6"><a xlink:href="zwapi__serial_8c.html#abf18afb71e14daaf65d937149ef1639f" target="_top" xlink:title="Test if a is less than b + ms.">
<polygon fill="none" stroke="black" points="486.5,-80 486.5,-110 593.5,-110 593.5,-80 486.5,-80"/>
<text text-anchor="start" x="494.5" y="-98" font-family="Helvetica,sans-Serif" font-size="10.00">zwapi_serial_timeval</text>
<text text-anchor="middle" x="540" y="-87" font-family="Helvetica,sans-Serif" font-size="10.00">_a_lt_b_milis</text>
</a>
</g>
</g>
<!-- Node4&#45;&gt;Node6 -->
<g id="edge5" class="edge">
<title>Node4&#45;&gt;Node6</title>
<path fill="none" stroke="midnightblue" d="M412.6,-127.47C431.47,-122.62 454.93,-116.6 476.49,-111.06"/>
<polygon fill="midnightblue" stroke="midnightblue" points="477.42,-114.43 486.24,-108.55 475.68,-107.65 477.42,-114.43"/>
</g>
<!-- Node7&#45;&gt;Node4 -->
<g id="edge7" class="edge">
<title>Node7&#45;&gt;Node4</title>
<path fill="none" stroke="midnightblue" d="M262.13,-164.47C281.3,-159.74 304.66,-153.98 325.02,-148.96"/>
<polygon fill="midnightblue" stroke="midnightblue" points="325.87,-152.35 334.74,-146.56 324.19,-145.56 325.87,-152.35"/>
</g>
<!-- Node10 -->
<g id="node10" class="node">
<title>Node10</title>
<g id="a_node10"><a xlink:href="zwapi__serial_8c.html#af9054824651df422bab5076d16a80fda" target="_top" xlink:title="Writes the content of a buffer to the serial port device.">
<polygon fill="none" stroke="black" points="315,-88.5 315,-107.5 434,-107.5 434,-88.5 315,-88.5"/>
<text text-anchor="middle" x="374.5" y="-95.5" font-family="Helvetica,sans-Serif" font-size="10.00">zwapi_serial_put_buffer</text>
</a>
</g>
</g>
<!-- Node9&#45;&gt;Node10 -->
<g id="edge10" class="edge">
<title>Node9&#45;&gt;Node10</title>
<path fill="none" stroke="midnightblue" d="M279.35,-98C287.59,-98 296.15,-98 304.6,-98"/>
<polygon fill="midnightblue" stroke="midnightblue" points="304.84,-101.5 314.84,-98 304.84,-94.5 304.84,-101.5"/>
</g>
<!-- Node10&#45;&gt;Node5 -->
<g id="edge11" class="edge">
<title>Node10&#45;&gt;Node5</title>
<path fill="none" stroke="midnightblue" d="M413.42,-107.51C436.55,-113.31 466.33,-120.78 491.09,-126.99"/>
<polygon fill="midnightblue" stroke="midnightblue" points="490.45,-130.43 501,-129.47 492.15,-123.64 490.45,-130.43"/>
</g>
<!-- Node10&#45;&gt;Node6 -->
<g id="edge12" class="edge">
<title>Node10&#45;&gt;Node6</title>
<path fill="none" stroke="midnightblue" d="M434.07,-96.93C447.65,-96.68 462.16,-96.41 475.92,-96.16"/>
<polygon fill="midnightblue" stroke="midnightblue" points="476.34,-99.65 486.28,-95.97 476.22,-92.65 476.34,-99.65"/>
</g>
</g>
</svg>
