<?xml version="1.0" encoding="UTF-8" standalone="no"?>
<!DOCTYPE svg PUBLIC "-//W3C//DTD SVG 1.1//EN"
 "http://www.w3.org/Graphics/SVG/1.1/DTD/svg11.dtd">
<!-- Generated by graphviz version 2.43.0 (0)
 -->
<!-- Title: tx_session_state_set Pages: 1 -->
<svg width="973pt" height="405pt"
 viewBox="0.00 0.00 973.00 405.38" xmlns="http://www.w3.org/2000/svg" xmlns:xlink="http://www.w3.org/1999/xlink">
<g id="graph0" class="graph" transform="scale(1 1) rotate(0) translate(4 401.38)">
<title>tx_session_state_set</title>
<!-- Node1 -->
<g id="node1" class="node">
<title>Node1</title>
<g id="a_node1"><a xlink:title="Move a S0 Tx Session state to a new state.">
<polygon fill="#bfbfbf" stroke="black" points="855,-88.38 855,-107.38 965,-107.38 965,-88.38 855,-88.38"/>
<text text-anchor="middle" x="910" y="-95.38" font-family="Helvetica,sans-Serif" font-size="10.00">tx_session_state_set</text>
</a>
</g>
</g>
<!-- Node1&#45;&gt;Node1 -->
<g id="edge31" class="edge">
<title>Node1&#45;&gt;Node1</title>
<path fill="none" stroke="midnightblue" d="M938.75,-116.54C937.54,-121.82 927.96,-125.88 910,-125.88 882.63,-125.88 874.72,-116.45 886.26,-107.64"/>
<polygon fill="midnightblue" stroke="midnightblue" points="941.69,-114.64 933.74,-107.64 935.59,-118.07 941.69,-114.64"/>
</g>
<!-- Node2 -->
<g id="node2" class="node">
<title>Node2</title>
<g id="a_node2"><a xlink:href="zwave__s0__transport_8c.html#a800e1cc61a01bde0fe6d9a3eddb91b5e" target="_top" xlink:title="Z&#45;Wave Tx Send data callback function.">
<polygon fill="none" stroke="black" points="729,-198.38 729,-217.38 782,-217.38 782,-198.38 729,-198.38"/>
<text text-anchor="middle" x="755.5" y="-205.38" font-family="Helvetica,sans-Serif" font-size="10.00">callback</text>
</a>
</g>
</g>
<!-- Node1&#45;&gt;Node2 -->
<g id="edge1" class="edge">
<title>Node1&#45;&gt;Node2</title>
<path fill="none" stroke="midnightblue" d="M880.62,-112.96C845.34,-136.07 787.1,-178.76 765.19,-198.27"/>
<polygon fill="midnightblue" stroke="midnightblue" points="882.55,-115.88 889.06,-107.53 878.76,-110 882.55,-115.88"/>
</g>
<!-- Node17 -->
<g id="node17" class="node">
<title>Node17</title>
<g id="a_node17"><a xlink:href="group__zwave__s0__internal.html#gabcc2e68cff658823698aaf43f2170c3f" target="_top" xlink:title="Abort all S0 network TX sessions.">
<polygon fill="none" stroke="black" points="692,-12.38 692,-31.38 819,-31.38 819,-12.38 692,-12.38"/>
<text text-anchor="middle" x="755.5" y="-19.38" font-family="Helvetica,sans-Serif" font-size="10.00">s0_abort_all_tx_sessions</text>
</a>
</g>
</g>
<!-- Node1&#45;&gt;Node17 -->
<g id="edge21" class="edge">
<title>Node1&#45;&gt;Node17</title>
<path fill="none" stroke="midnightblue" d="M887.81,-82.14C870.14,-69.6 843.91,-52.3 819,-40.88 811.06,-37.24 802.24,-34.07 793.8,-31.42"/>
<polygon fill="midnightblue" stroke="midnightblue" points="886.06,-85.2 896.22,-88.21 890.16,-79.52 886.06,-85.2"/>
</g>
<!-- Node20 -->
<g id="node20" class="node">
<title>Node20</title>
<g id="a_node20"><a xlink:href="zwave__s0__transport_8c.html#a9d9350a3c26bbc82491dc1379b291fcb" target="_top" xlink:title=" ">
<polygon fill="none" stroke="black" points="707.5,-126.38 707.5,-145.38 803.5,-145.38 803.5,-126.38 707.5,-126.38"/>
<text text-anchor="middle" x="755.5" y="-133.38" font-family="Helvetica,sans-Serif" font-size="10.00">s0_register_nonce</text>
</a>
</g>
</g>
<!-- Node1&#45;&gt;Node20 -->
<g id="edge25" class="edge">
<title>Node1&#45;&gt;Node20</title>
<path fill="none" stroke="midnightblue" d="M860.68,-109.92C839.38,-115.23 814.7,-121.38 794.71,-126.36"/>
<polygon fill="midnightblue" stroke="midnightblue" points="861.66,-113.29 870.52,-107.47 859.97,-106.49 861.66,-113.29"/>
</g>
<!-- Node23 -->
<g id="node23" class="node">
<title>Node23</title>
<g id="a_node23"><a xlink:href="zwave__s0__transport_8c.html#adb0e729c11b7fdb81d7c2f776453e8ab" target="_top" xlink:title=" ">
<polygon fill="none" stroke="black" points="723,-50.38 723,-69.38 788,-69.38 788,-50.38 723,-50.38"/>
<text text-anchor="middle" x="755.5" y="-57.38" font-family="Helvetica,sans-Serif" font-size="10.00">s0_timeout</text>
</a>
</g>
</g>
<!-- Node1&#45;&gt;Node23 -->
<g id="edge29" class="edge">
<title>Node1&#45;&gt;Node23</title>
<path fill="none" stroke="midnightblue" d="M879.63,-85.11C853.43,-76.91 815.16,-67.32 788.26,-62.19"/>
<polygon fill="midnightblue" stroke="midnightblue" points="878.78,-88.51 889.38,-88.29 880.96,-81.86 878.78,-88.51"/>
</g>
<!-- Node24 -->
<g id="node24" class="node">
<title>Node24</title>
<g id="a_node24"><a xlink:href="group__zwave__s0__transport.html#gae1fe787c412080fb3f718d5a18e006ea" target="_top" xlink:title="Sending an S0 encapsulated frame.">
<polygon fill="none" stroke="black" points="700,-88.38 700,-107.38 811,-107.38 811,-88.38 700,-88.38"/>
<text text-anchor="middle" x="755.5" y="-95.38" font-family="Helvetica,sans-Serif" font-size="10.00">zwave_s0_send_data</text>
</a>
</g>
</g>
<!-- Node1&#45;&gt;Node24 -->
<g id="edge32" class="edge">
<title>Node1&#45;&gt;Node24</title>
<path fill="none" stroke="midnightblue" d="M844.66,-97.88C833.47,-97.88 821.93,-97.88 811.03,-97.88"/>
<polygon fill="midnightblue" stroke="midnightblue" points="844.8,-101.38 854.8,-97.88 844.8,-94.38 844.8,-101.38"/>
</g>
<!-- Node2&#45;&gt;Node1 -->
<g id="edge2" class="edge">
<title>Node2&#45;&gt;Node1</title>
<path fill="none" stroke="midnightblue" d="M784.71,-192.91C820.01,-169.81 878.47,-126.96 900.36,-107.45"/>
<polygon fill="midnightblue" stroke="midnightblue" points="782.8,-189.98 776.28,-198.33 786.58,-195.87 782.8,-189.98"/>
</g>
<!-- Node3 -->
<g id="node3" class="node">
<title>Node3</title>
<g id="a_node3"><a xlink:href="zwave__api__transport_8c.html#a3015108a79d5482095e898005fdfb063" target="_top" xlink:title=" ">
<polygon fill="none" stroke="black" points="529.5,-241.88 529.5,-271.88 636.5,-271.88 636.5,-241.88 529.5,-241.88"/>
<text text-anchor="start" x="537.5" y="-259.88" font-family="Helvetica,sans-Serif" font-size="10.00">zwave_api_transport</text>
<text text-anchor="middle" x="583" y="-248.88" font-family="Helvetica,sans-Serif" font-size="10.00">_start_transmission</text>
</a>
</g>
</g>
<!-- Node2&#45;&gt;Node3 -->
<g id="edge3" class="edge">
<title>Node2&#45;&gt;Node3</title>
<path fill="none" stroke="midnightblue" d="M719.27,-218.01C695.39,-224.87 663.4,-234.06 636.53,-241.79"/>
<polygon fill="midnightblue" stroke="midnightblue" points="720.33,-221.34 728.97,-215.22 718.4,-214.62 720.33,-221.34"/>
</g>
<!-- Node7 -->
<g id="node7" class="node">
<title>Node7</title>
<g id="a_node7"><a xlink:href="zwave__crc16__transport_8c.html#ac74ef60931ee4df805153154f13d6feb" target="_top" xlink:title=" ">
<polygon fill="none" stroke="black" points="524,-192.88 524,-222.88 642,-222.88 642,-192.88 524,-192.88"/>
<text text-anchor="start" x="532" y="-210.88" font-family="Helvetica,sans-Serif" font-size="10.00">zwave_crc16_transport</text>
<text text-anchor="middle" x="583" y="-199.88" font-family="Helvetica,sans-Serif" font-size="10.00">_start_transmission</text>
</a>
</g>
</g>
<!-- Node2&#45;&gt;Node7 -->
<g id="edge7" class="edge">
<title>Node2&#45;&gt;Node7</title>
<path fill="none" stroke="midnightblue" d="M718.7,-207.88C696.55,-207.88 667.61,-207.88 642.23,-207.88"/>
<polygon fill="midnightblue" stroke="midnightblue" points="718.97,-211.38 728.97,-207.88 718.97,-204.38 718.97,-211.38"/>
</g>
<!-- Node10 -->
<g id="node10" class="node">
<title>Node10</title>
<g id="a_node10"><a xlink:href="zwave__multi__channel__transport_8c.html#a10fed1c2554c33ded64fe48ec70df9a4" target="_top" xlink:title=" ">
<polygon fill="none" stroke="black" points="510,-350.88 510,-380.88 656,-380.88 656,-350.88 510,-350.88"/>
<text text-anchor="start" x="518" y="-368.88" font-family="Helvetica,sans-Serif" font-size="10.00">zwave_multi_channel</text>
<text text-anchor="middle" x="583" y="-357.88" font-family="Helvetica,sans-Serif" font-size="10.00">_transport_start_transmission</text>
</a>
</g>
</g>
<!-- Node2&#45;&gt;Node10 -->
<g id="edge11" class="edge">
<title>Node2&#45;&gt;Node10</title>
<path fill="none" stroke="midnightblue" d="M743.54,-226.23C727.22,-252.3 694.29,-300.3 656,-330.88 646.12,-338.78 634.16,-345.48 622.86,-350.84"/>
<polygon fill="midnightblue" stroke="midnightblue" points="746.72,-227.74 748.96,-217.39 740.75,-224.08 746.72,-227.74"/>
</g>
<!-- Node13 -->
<g id="node13" class="node">
<title>Node13</title>
<g id="a_node13"><a xlink:href="group__zwave__rx__callbacks.html#gad8eafc4944cb3ba1603f17533bd58dda" target="_top" xlink:title=" ">
<polygon fill="none" stroke="black" points="518,-290.88 518,-320.88 648,-320.88 648,-290.88 518,-290.88"/>
<text text-anchor="start" x="526" y="-308.88" font-family="Helvetica,sans-Serif" font-size="10.00">zwave_rx_register_zwave</text>
<text text-anchor="middle" x="583" y="-297.88" font-family="Helvetica,sans-Serif" font-size="10.00">_api_started_callback</text>
</a>
</g>
</g>
<!-- Node2&#45;&gt;Node13 -->
<g id="edge15" class="edge">
<title>Node2&#45;&gt;Node13</title>
<path fill="none" stroke="midnightblue" d="M736.14,-224.18C717.17,-240.35 686.17,-264.95 656,-280.88 648.98,-284.59 641.3,-287.93 633.64,-290.88"/>
<polygon fill="midnightblue" stroke="midnightblue" points="738.46,-226.81 743.73,-217.62 733.87,-221.51 738.46,-226.81"/>
</g>
<!-- Node15 -->
<g id="node15" class="node">
<title>Node15</title>
<g id="a_node15"><a xlink:href="group__zwave__s0__transport.html#ga397253265d758fee27dfed5a449737b9" target="_top" xlink:title="Z&#45;Wave controller transport callback function which will be triggered when S0 frame tranmission is ab...">
<polygon fill="none" stroke="black" points="320,-151.38 320,-170.38 474,-170.38 474,-151.38 320,-151.38"/>
<text text-anchor="middle" x="397" y="-158.38" font-family="Helvetica,sans-Serif" font-size="10.00">zwave_s0_on_abort_send_data</text>
</a>
</g>
</g>
<!-- Node2&#45;&gt;Node15 -->
<g id="edge18" class="edge">
<title>Node2&#45;&gt;Node15</title>
<path fill="none" stroke="midnightblue" d="M719.01,-197.38C700.4,-192.25 677.14,-186.44 656,-182.88 595.27,-172.66 525.65,-167.07 474.05,-164.1"/>
<polygon fill="midnightblue" stroke="midnightblue" points="718.25,-200.8 728.82,-200.14 720.14,-194.06 718.25,-200.8"/>
</g>
<!-- Node4 -->
<g id="node4" class="node">
<title>Node4</title>
<g id="a_node4"><a xlink:href="zwave__api__transport_8c.html#a825851abed8977dfab0e305f7ae30610" target="_top" xlink:title="Encapsulates with Multi Channel and send a frame to the Z&#45;Wave TX queue.">
<polygon fill="none" stroke="black" points="340.5,-240.38 340.5,-259.38 453.5,-259.38 453.5,-240.38 340.5,-240.38"/>
<text text-anchor="middle" x="397" y="-247.38" font-family="Helvetica,sans-Serif" font-size="10.00">zwave_api_send_data</text>
</a>
</g>
</g>
<!-- Node3&#45;&gt;Node4 -->
<g id="edge4" class="edge">
<title>Node3&#45;&gt;Node4</title>
<path fill="none" stroke="midnightblue" d="M519.05,-254.49C497.81,-253.68 474.26,-252.78 453.62,-252"/>
<polygon fill="midnightblue" stroke="midnightblue" points="519.15,-257.99 529.27,-254.88 519.41,-251 519.15,-257.99"/>
</g>
<!-- Node5 -->
<g id="node5" class="node">
<title>Node5</title>
<g id="a_node5"><a xlink:href="group__zwave__api__transport.html#ga0b879fc413b5e3faaf848287f0d36d22" target="_top" xlink:title="Initialize the Z&#45;Wave API Transport *.">
<polygon fill="none" stroke="black" points="153.5,-240.38 153.5,-259.38 278.5,-259.38 278.5,-240.38 153.5,-240.38"/>
<text text-anchor="middle" x="216" y="-247.38" font-family="Helvetica,sans-Serif" font-size="10.00">zwave_api_transport_init</text>
</a>
</g>
</g>
<!-- Node4&#45;&gt;Node5 -->
<g id="edge5" class="edge">
<title>Node4&#45;&gt;Node5</title>
<path fill="none" stroke="midnightblue" d="M330.04,-249.88C313.19,-249.88 295.15,-249.88 278.54,-249.88"/>
<polygon fill="midnightblue" stroke="midnightblue" points="330.34,-253.38 340.34,-249.88 330.34,-246.38 330.34,-253.38"/>
</g>
<!-- Node6 -->
<g id="node6" class="node">
<title>Node6</title>
<g id="a_node6"><a xlink:href="group__zwave__transports__fixt.html#ga26fb2571e272a5094bd0320eca3a896d" target="_top" xlink:title="Setup fixture for Z&#45;Wave Transports.">
<polygon fill="none" stroke="black" points="0,-221.38 0,-240.38 112,-240.38 112,-221.38 0,-221.38"/>
<text text-anchor="middle" x="56" y="-228.38" font-family="Helvetica,sans-Serif" font-size="10.00">zwave_transports_init</text>
</a>
</g>
</g>
<!-- Node5&#45;&gt;Node6 -->
<g id="edge6" class="edge">
<title>Node5&#45;&gt;Node6</title>
<path fill="none" stroke="midnightblue" d="M143.47,-241.28C132.97,-240.02 122.3,-238.73 112.19,-237.52"/>
<polygon fill="midnightblue" stroke="midnightblue" points="143.11,-244.76 153.46,-242.48 143.95,-237.81 143.11,-244.76"/>
</g>
<!-- Node8 -->
<g id="node8" class="node">
<title>Node8</title>
<g id="a_node8"><a xlink:href="group__crc16__transport.html#ga40f6f52fe73d5c9efa2fae56082253c3" target="_top" xlink:title="Encapsulates with CRC16.">
<polygon fill="none" stroke="black" points="336,-190.88 336,-220.88 458,-220.88 458,-190.88 336,-190.88"/>
<text text-anchor="start" x="344" y="-208.88" font-family="Helvetica,sans-Serif" font-size="10.00">zwave_command_class</text>
<text text-anchor="middle" x="397" y="-197.88" font-family="Helvetica,sans-Serif" font-size="10.00">_crc16_send_data</text>
</a>
</g>
</g>
<!-- Node7&#45;&gt;Node8 -->
<g id="edge8" class="edge">
<title>Node7&#45;&gt;Node8</title>
<path fill="none" stroke="midnightblue" d="M513.78,-207.14C495.5,-206.94 475.87,-206.73 458.06,-206.54"/>
<polygon fill="midnightblue" stroke="midnightblue" points="513.74,-210.64 523.78,-207.25 513.82,-203.64 513.74,-210.64"/>
</g>
<!-- Node9 -->
<g id="node9" class="node">
<title>Node9</title>
<g id="a_node9"><a xlink:href="group__crc16__transport.html#ga41d7716fd0dc4dd78d6747b6f8226671" target="_top" xlink:title="Initialize the CRC16 Transport *.">
<polygon fill="none" stroke="black" points="148,-199.38 148,-218.38 284,-218.38 284,-199.38 148,-199.38"/>
<text text-anchor="middle" x="216" y="-206.38" font-family="Helvetica,sans-Serif" font-size="10.00">zwave_crc16_transport_init</text>
</a>
</g>
</g>
<!-- Node8&#45;&gt;Node9 -->
<g id="edge9" class="edge">
<title>Node8&#45;&gt;Node9</title>
<path fill="none" stroke="midnightblue" d="M325.58,-207.06C311.9,-207.29 297.6,-207.53 284.03,-207.76"/>
<polygon fill="midnightblue" stroke="midnightblue" points="325.96,-210.56 335.9,-206.89 325.84,-203.56 325.96,-210.56"/>
</g>
<!-- Node9&#45;&gt;Node6 -->
<g id="edge10" class="edge">
<title>Node9&#45;&gt;Node6</title>
<path fill="none" stroke="midnightblue" d="M137.85,-219.62C129.18,-220.83 120.48,-222.04 112.17,-223.2"/>
<polygon fill="midnightblue" stroke="midnightblue" points="138.57,-223.06 147.99,-218.21 137.61,-216.13 138.57,-223.06"/>
</g>
<!-- Node11 -->
<g id="node11" class="node">
<title>Node11</title>
<g id="a_node11"><a xlink:href="group__multi__channel__transport.html#gadbc0fe6c66a35dcf6c060b166137d3e2" target="_top" xlink:title="Encapsulates with Multi Channel and send a frame to the Z&#45;Wave TX queue.">
<polygon fill="none" stroke="black" points="331,-366.88 331,-396.88 463,-396.88 463,-366.88 331,-366.88"/>
<text text-anchor="start" x="339" y="-384.88" font-family="Helvetica,sans-Serif" font-size="10.00">zwave_command_class</text>
<text text-anchor="middle" x="397" y="-373.88" font-family="Helvetica,sans-Serif" font-size="10.00">_multi_channel_send_data</text>
</a>
</g>
</g>
<!-- Node10&#45;&gt;Node11 -->
<g id="edge12" class="edge">
<title>Node10&#45;&gt;Node11</title>
<path fill="none" stroke="midnightblue" d="M499.61,-373.05C487.37,-374.11 474.91,-375.19 463.1,-376.22"/>
<polygon fill="midnightblue" stroke="midnightblue" points="500.15,-376.51 509.81,-372.16 499.54,-369.54 500.15,-376.51"/>
</g>
<!-- Node12 -->
<g id="node12" class="node">
<title>Node12</title>
<g id="a_node12"><a xlink:href="group__zwave__multi__channel__transport.html#ga41f607e54c3aedd8783d43f185df6c0a" target="_top" xlink:title="Initialize the Multi Channel Transport *.">
<polygon fill="none" stroke="black" points="161,-322.88 161,-352.88 271,-352.88 271,-322.88 161,-322.88"/>
<text text-anchor="start" x="169" y="-340.88" font-family="Helvetica,sans-Serif" font-size="10.00">zwave_multi_channel</text>
<text text-anchor="middle" x="216" y="-329.88" font-family="Helvetica,sans-Serif" font-size="10.00">_transport_init</text>
</a>
</g>
</g>
<!-- Node11&#45;&gt;Node12 -->
<g id="edge13" class="edge">
<title>Node11&#45;&gt;Node12</title>
<path fill="none" stroke="midnightblue" d="M325.07,-364.45C307.15,-360.04 288.19,-355.38 271.23,-351.21"/>
<polygon fill="midnightblue" stroke="midnightblue" points="324.35,-367.87 334.9,-366.86 326.02,-361.08 324.35,-367.87"/>
</g>
<!-- Node12&#45;&gt;Node6 -->
<g id="edge14" class="edge">
<title>Node12&#45;&gt;Node6</title>
<path fill="none" stroke="midnightblue" d="M184.05,-316.92C149.92,-293.81 96.52,-257.65 71.21,-240.51"/>
<polygon fill="midnightblue" stroke="midnightblue" points="182.46,-320.07 192.7,-322.78 186.38,-314.27 182.46,-320.07"/>
</g>
<!-- Node13&#45;&gt;Node5 -->
<g id="edge16" class="edge">
<title>Node13&#45;&gt;Node5</title>
<path fill="none" stroke="midnightblue" d="M508.26,-322.67C454.84,-331.71 381.5,-337.58 320,-318.88 281.29,-307.11 243.88,-275.42 226.75,-259.41"/>
<polygon fill="midnightblue" stroke="midnightblue" points="509.09,-326.08 518.33,-320.89 507.87,-319.19 509.09,-326.08"/>
</g>
<!-- Node14 -->
<g id="node14" class="node">
<title>Node14</title>
<g id="a_node14"><a xlink:href="group__zwave__network__management__fixt.html#gaa8950dbf92037e3ec5e0385641176c98" target="_top" xlink:title="Initialize the Z&#45;Wave Network Management Module.">
<polygon fill="none" stroke="black" points="324,-278.88 324,-308.88 470,-308.88 470,-278.88 324,-278.88"/>
<text text-anchor="start" x="332" y="-296.88" font-family="Helvetica,sans-Serif" font-size="10.00">zwave_network_management</text>
<text text-anchor="middle" x="397" y="-285.88" font-family="Helvetica,sans-Serif" font-size="10.00">_fixt_setup</text>
</a>
</g>
</g>
<!-- Node13&#45;&gt;Node14 -->
<g id="edge17" class="edge">
<title>Node13&#45;&gt;Node14</title>
<path fill="none" stroke="midnightblue" d="M507.62,-301.03C495.22,-300.22 482.38,-299.39 470.05,-298.58"/>
<polygon fill="midnightblue" stroke="midnightblue" points="507.7,-304.54 517.9,-301.7 508.15,-297.56 507.7,-304.54"/>
</g>
<!-- Node16 -->
<g id="node16" class="node">
<title>Node16</title>
<g id="a_node16"><a xlink:href="group__zwave__s0__transport.html#ga7fcd7083b5fe3b6b2838d0d64f815f53" target="_top" xlink:title="Initialize the S0 Transport Also calls zwave_s0_network_init() which aborts all tx sessions and frees...">
<polygon fill="none" stroke="black" points="155,-110.38 155,-129.38 277,-129.38 277,-110.38 155,-110.38"/>
<text text-anchor="middle" x="216" y="-117.38" font-family="Helvetica,sans-Serif" font-size="10.00">zwave_s0_transport_init</text>
</a>
</g>
</g>
<!-- Node15&#45;&gt;Node16 -->
<g id="edge19" class="edge">
<title>Node15&#45;&gt;Node16</title>
<path fill="none" stroke="midnightblue" d="M344.72,-149.14C317.42,-142.88 284.28,-135.29 258.6,-129.41"/>
<polygon fill="midnightblue" stroke="midnightblue" points="343.95,-152.55 354.48,-151.37 345.52,-145.73 343.95,-152.55"/>
</g>
<!-- Node16&#45;&gt;Node6 -->
<g id="edge20" class="edge">
<title>Node16&#45;&gt;Node6</title>
<path fill="none" stroke="midnightblue" d="M192.7,-135.55C159.54,-158.84 98.21,-201.93 70.83,-221.17"/>
<polygon fill="midnightblue" stroke="midnightblue" points="195.08,-138.15 201.25,-129.54 191.06,-132.42 195.08,-138.15"/>
</g>
<!-- Node18 -->
<g id="node18" class="node">
<title>Node18</title>
<g id="a_node18"><a xlink:href="group__zwave__s0__network.html#ga62613f2673f05d300b1f7c8b09d981da" target="_top" xlink:title="Initialize the S0 network layer.">
<polygon fill="none" stroke="black" points="523.5,-12.38 523.5,-31.38 642.5,-31.38 642.5,-12.38 523.5,-12.38"/>
<text text-anchor="middle" x="583" y="-19.38" font-family="Helvetica,sans-Serif" font-size="10.00">zwave_s0_network_init</text>
</a>
</g>
</g>
<!-- Node17&#45;&gt;Node18 -->
<g id="edge22" class="edge">
<title>Node17&#45;&gt;Node18</title>
<path fill="none" stroke="midnightblue" d="M681.62,-21.88C668.57,-21.88 655.13,-21.88 642.55,-21.88"/>
<polygon fill="midnightblue" stroke="midnightblue" points="681.98,-25.38 691.98,-21.88 681.98,-18.38 681.98,-25.38"/>
</g>
<!-- Node18&#45;&gt;Node16 -->
<g id="edge24" class="edge">
<title>Node18&#45;&gt;Node16</title>
<path fill="none" stroke="midnightblue" d="M532.9,-10.32C478.61,0.01 389.63,9.56 320,-18.88 273.63,-37.82 236.85,-88.81 222.97,-110.22"/>
<polygon fill="midnightblue" stroke="midnightblue" points="532.46,-13.8 542.95,-12.32 533.82,-6.94 532.46,-13.8"/>
</g>
<!-- Node19 -->
<g id="node19" class="node">
<title>Node19</title>
<g id="a_node19"><a xlink:href="zwave__s0__transport_8c.html#afb2b8b738d550a23573273ecf1436311" target="_top" xlink:title=" ">
<polygon fill="none" stroke="black" points="344,-28.38 344,-47.38 450,-47.38 450,-28.38 344,-28.38"/>
<text text-anchor="middle" x="397" y="-35.38" font-family="Helvetica,sans-Serif" font-size="10.00">s0_on_new_network</text>
</a>
</g>
</g>
<!-- Node18&#45;&gt;Node19 -->
<g id="edge23" class="edge">
<title>Node18&#45;&gt;Node19</title>
<path fill="none" stroke="midnightblue" d="M513.2,-27.86C492.37,-29.68 469.83,-31.64 450.26,-33.34"/>
<polygon fill="midnightblue" stroke="midnightblue" points="513.62,-31.34 523.28,-26.99 513.01,-24.37 513.62,-31.34"/>
</g>
<!-- Node21 -->
<g id="node21" class="node">
<title>Node21</title>
<g id="a_node21"><a xlink:href="zwave__s0__transport_8c.html#a03d95837da2b91dfbf98786f7e753fe4" target="_top" xlink:title=" ">
<polygon fill="none" stroke="black" points="519.5,-104.88 519.5,-134.88 646.5,-134.88 646.5,-104.88 519.5,-104.88"/>
<text text-anchor="start" x="527.5" y="-122.88" font-family="Helvetica,sans-Serif" font-size="10.00">s0_application_command</text>
<text text-anchor="middle" x="583" y="-111.88" font-family="Helvetica,sans-Serif" font-size="10.00">_handler</text>
</a>
</g>
</g>
<!-- Node20&#45;&gt;Node21 -->
<g id="edge26" class="edge">
<title>Node20&#45;&gt;Node21</title>
<path fill="none" stroke="midnightblue" d="M697.5,-130.53C681.14,-129 663.21,-127.32 646.53,-125.75"/>
<polygon fill="midnightblue" stroke="midnightblue" points="697.18,-134.02 707.46,-131.47 697.83,-127.05 697.18,-134.02"/>
</g>
<!-- Node22 -->
<g id="node22" class="node">
<title>Node22</title>
<g id="a_node22"><a xlink:href="group__zwave__s0__transport.html#ga075cd6959f4f2b9cbd757c5d43f97820" target="_top" xlink:title="Entry point of S0 frames received from the PHY/radio stack.">
<polygon fill="none" stroke="black" points="322.5,-110.38 322.5,-129.38 471.5,-129.38 471.5,-110.38 322.5,-110.38"/>
<text text-anchor="middle" x="397" y="-117.38" font-family="Helvetica,sans-Serif" font-size="10.00">zwave_s0_on_frame_received</text>
</a>
</g>
</g>
<!-- Node21&#45;&gt;Node22 -->
<g id="edge27" class="edge">
<title>Node21&#45;&gt;Node22</title>
<path fill="none" stroke="midnightblue" d="M509.24,-119.88C496.94,-119.88 484.15,-119.88 471.81,-119.88"/>
<polygon fill="midnightblue" stroke="midnightblue" points="509.45,-123.38 519.45,-119.88 509.45,-116.38 509.45,-123.38"/>
</g>
<!-- Node22&#45;&gt;Node16 -->
<g id="edge28" class="edge">
<title>Node22&#45;&gt;Node16</title>
<path fill="none" stroke="midnightblue" d="M312.12,-119.88C300.34,-119.88 288.43,-119.88 277.21,-119.88"/>
<polygon fill="midnightblue" stroke="midnightblue" points="312.42,-123.38 322.42,-119.88 312.42,-116.38 312.42,-123.38"/>
</g>
<!-- Node23&#45;&gt;Node1 -->
<g id="edge30" class="edge">
<title>Node23&#45;&gt;Node1</title>
<path fill="none" stroke="midnightblue" d="M785.59,-72.57C805.13,-78.7 831.48,-85.62 854.8,-90.87"/>
<polygon fill="midnightblue" stroke="midnightblue" points="786.64,-69.23 776.05,-69.45 784.46,-75.88 786.64,-69.23"/>
</g>
<!-- Node24&#45;&gt;Node16 -->
<g id="edge33" class="edge">
<title>Node24&#45;&gt;Node16</title>
<path fill="none" stroke="midnightblue" d="M689.74,-94.31C604.64,-90.52 450.64,-86.85 320,-100.88 300.29,-103 278.7,-106.76 260.39,-110.38"/>
<polygon fill="midnightblue" stroke="midnightblue" points="689.62,-97.8 699.77,-94.77 689.94,-90.81 689.62,-97.8"/>
</g>
</g>
</svg>
