<?xml version="1.0" encoding="UTF-8" standalone="no"?>
<!DOCTYPE svg PUBLIC "-//W3C//DTD SVG 1.1//EN"
 "http://www.w3.org/Graphics/SVG/1.1/DTD/svg11.dtd">
<!-- Generated by graphviz version 2.43.0 (0)
 -->
<!-- Title: set_default_v1_capabilities Pages: 1 -->
<svg width="312pt" height="116pt"
 viewBox="0.00 0.00 312.00 115.50" xmlns="http://www.w3.org/2000/svg" xmlns:xlink="http://www.w3.org/1999/xlink">
<g id="graph0" class="graph" transform="scale(1 1) rotate(0) translate(4 111.5)">
<title>set_default_v1_capabilities</title>
<!-- Node1 -->
<g id="node1" class="node">
<title>Node1</title>
<g id="a_node1"><a xlink:title="Writes down assumed non&#45;advertised capabilities for a v1 node.">
<polygon fill="#bfbfbf" stroke="black" points="0,-38.5 0,-57.5 134,-57.5 134,-38.5 0,-38.5"/>
<text text-anchor="middle" x="67" y="-45.5" font-family="Helvetica,sans-Serif" font-size="10.00">set_default_v1_capabilities</text>
</a>
</g>
</g>
<!-- Node2 -->
<g id="node2" class="node">
<title>Node2</title>
<g id="a_node2"><a xlink:href="zwave__command__class__wake__up_8c.html#aafee6942702a86d4aaea1f91c18ccce7" target="_top" xlink:title="Finds the closest supported value for a Wake Up Interval.">
<polygon fill="none" stroke="black" points="179.5,-77 179.5,-107 294.5,-107 294.5,-77 179.5,-77"/>
<text text-anchor="start" x="187.5" y="-95" font-family="Helvetica,sans-Serif" font-size="10.00">get_closest_supported</text>
<text text-anchor="middle" x="237" y="-84" font-family="Helvetica,sans-Serif" font-size="10.00">_interval</text>
</a>
</g>
</g>
<!-- Node1&#45;&gt;Node2 -->
<g id="edge1" class="edge">
<title>Node1&#45;&gt;Node2</title>
<path fill="none" stroke="midnightblue" d="M104.45,-57.55C123.54,-62.55 147.5,-68.82 169.73,-74.64"/>
<polygon fill="midnightblue" stroke="midnightblue" points="168.9,-78.04 179.46,-77.19 170.67,-71.27 168.9,-78.04"/>
</g>
<!-- Node3 -->
<g id="node3" class="node">
<title>Node3</title>
<g id="a_node3"><a xlink:href="zwave__command__class__wake__up_8c.html#afa3117b84d0ee4baa2ce7d5807d34f9f" target="_top" xlink:title="Writes down assumed non&#45;advertised capabilities for a v2 node.">
<polygon fill="none" stroke="black" points="170,-38.5 170,-57.5 304,-57.5 304,-38.5 170,-38.5"/>
<text text-anchor="middle" x="237" y="-45.5" font-family="Helvetica,sans-Serif" font-size="10.00">set_default_v2_capabilities</text>
</a>
</g>
</g>
<!-- Node1&#45;&gt;Node3 -->
<g id="edge2" class="edge">
<title>Node1&#45;&gt;Node3</title>
<path fill="none" stroke="midnightblue" d="M134.4,-48C142.68,-48 151.2,-48 159.62,-48"/>
<polygon fill="midnightblue" stroke="midnightblue" points="159.81,-51.5 169.81,-48 159.81,-44.5 159.81,-51.5"/>
</g>
<!-- Node4 -->
<g id="node4" class="node">
<title>Node4</title>
<g id="a_node4"><a xlink:href="group__zpc__config.html#ga4b057e8eb480ccf7000ecdaf97dcc168" target="_top" xlink:title="Get the current configuration. This must only be called after zpc_config_init.">
<polygon fill="none" stroke="black" points="195.5,-0.5 195.5,-19.5 278.5,-19.5 278.5,-0.5 195.5,-0.5"/>
<text text-anchor="middle" x="237" y="-7.5" font-family="Helvetica,sans-Serif" font-size="10.00">zpc_get_config</text>
</a>
</g>
</g>
<!-- Node1&#45;&gt;Node4 -->
<g id="edge3" class="edge">
<title>Node1&#45;&gt;Node4</title>
<path fill="none" stroke="midnightblue" d="M110.39,-38.41C133.19,-33.26 161.45,-26.86 185.39,-21.45"/>
<polygon fill="midnightblue" stroke="midnightblue" points="186.38,-24.81 195.36,-19.19 184.83,-17.99 186.38,-24.81"/>
</g>
</g>
</svg>
