<?xml version="1.0" encoding="UTF-8" standalone="no"?>
<!DOCTYPE svg PUBLIC "-//W3C//DTD SVG 1.1//EN"
 "http://www.w3.org/Graphics/SVG/1.1/DTD/svg11.dtd">
<!-- Generated by graphviz version 2.43.0 (0)
 -->
<!-- Title: applications/zpc/components/zwave_command_classes/src/zwave_command_class_transport_service.c Pages: 1 -->
<svg width="1138pt" height="542pt"
 viewBox="0.00 0.00 1138.00 542.00" xmlns="http://www.w3.org/2000/svg" xmlns:xlink="http://www.w3.org/1999/xlink">
<g id="graph0" class="graph" transform="scale(1 1) rotate(0) translate(4 538)">
<title>applications/zpc/components/zwave_command_classes/src/zwave_command_class_transport_service.c</title>
<!-- Node1 -->
<g id="node1" class="node">
<title>Node1</title>
<g id="a_node1"><a xlink:title=" ">
<polygon fill="#bfbfbf" stroke="black" points="448,-481.5 448,-533.5 616,-533.5 616,-481.5 448,-481.5"/>
<text text-anchor="start" x="456" y="-521.5" font-family="Helvetica,sans-Serif" font-size="10.00">applications/zpc/components</text>
<text text-anchor="start" x="456" y="-510.5" font-family="Helvetica,sans-Serif" font-size="10.00">/zwave_command_classes/src</text>
<text text-anchor="start" x="456" y="-499.5" font-family="Helvetica,sans-Serif" font-size="10.00">/zwave_command_class_transport</text>
<text text-anchor="middle" x="532" y="-488.5" font-family="Helvetica,sans-Serif" font-size="10.00">_service.c</text>
</a>
</g>
</g>
<!-- Node2 -->
<g id="node2" class="node">
<title>Node2</title>
<g id="a_node2"><a xlink:href="zwave__command__class__transport__service_8h.html" target="_top" xlink:title=" ">
<polygon fill="none" stroke="black" points="1008,-358.5 1008,-388.5 1130,-388.5 1130,-358.5 1008,-358.5"/>
<text text-anchor="start" x="1016" y="-376.5" font-family="Helvetica,sans-Serif" font-size="10.00">zwave_command_class</text>
<text text-anchor="middle" x="1069" y="-365.5" font-family="Helvetica,sans-Serif" font-size="10.00">_transport_service.h</text>
</a>
</g>
</g>
<!-- Node1&#45;&gt;Node2 -->
<g id="edge1" class="edge">
<title>Node1&#45;&gt;Node2</title>
<path fill="none" stroke="midnightblue" d="M580.68,-481.45C602.24,-470.32 627.91,-457.04 651,-445 667.92,-436.17 670.77,-430.66 689,-425 819.36,-384.53 859.12,-409.97 994,-389 995.25,-388.81 996.52,-388.6 997.79,-388.4"/>
<polygon fill="midnightblue" stroke="midnightblue" points="998.39,-391.85 1007.67,-386.74 997.23,-384.94 998.39,-391.85"/>
</g>
<!-- Node5 -->
<g id="node5" class="node">
<title>Node5</title>
<g id="a_node5"><a xlink:title=" ">
<polygon fill="none" stroke="#bfbfbf" points="328,-425.5 328,-444.5 380,-444.5 380,-425.5 328,-425.5"/>
<text text-anchor="middle" x="354" y="-432.5" font-family="Helvetica,sans-Serif" font-size="10.00">assert.h</text>
</a>
</g>
</g>
<!-- Node1&#45;&gt;Node5 -->
<g id="edge4" class="edge">
<title>Node1&#45;&gt;Node5</title>
<path fill="none" stroke="midnightblue" d="M468.74,-481.45C440.37,-470.21 408.17,-457.45 385.12,-448.33"/>
<polygon fill="midnightblue" stroke="midnightblue" points="386.12,-444.96 375.53,-444.53 383.54,-451.46 386.12,-444.96"/>
</g>
<!-- Node6 -->
<g id="node6" class="node">
<title>Node6</title>
<g id="a_node6"><a xlink:title=" ">
<polygon fill="none" stroke="#bfbfbf" points="86,-0.5 86,-19.5 142,-19.5 142,-0.5 86,-0.5"/>
<text text-anchor="middle" x="114" y="-7.5" font-family="Helvetica,sans-Serif" font-size="10.00">stdbool.h</text>
</a>
</g>
</g>
<!-- Node1&#45;&gt;Node6 -->
<g id="edge5" class="edge">
<title>Node1&#45;&gt;Node6</title>
<path fill="none" stroke="midnightblue" d="M448,-502.95C298.08,-494.32 0,-465.68 0,-374.5 0,-374.5 0,-374.5 0,-126.5 0,-77.7 52.19,-42.06 85.95,-24.11"/>
<polygon fill="midnightblue" stroke="midnightblue" points="87.61,-27.19 94.92,-19.52 84.42,-20.96 87.61,-27.19"/>
</g>
<!-- Node7 -->
<g id="node7" class="node">
<title>Node7</title>
<g id="a_node7"><a xlink:title=" ">
<polygon fill="none" stroke="#bfbfbf" points="554,-425.5 554,-444.5 642,-444.5 642,-425.5 554,-425.5"/>
<text text-anchor="middle" x="598" y="-432.5" font-family="Helvetica,sans-Serif" font-size="10.00">ZW_classcmd.h</text>
</a>
</g>
</g>
<!-- Node1&#45;&gt;Node7 -->
<g id="edge6" class="edge">
<title>Node1&#45;&gt;Node7</title>
<path fill="none" stroke="midnightblue" d="M555.45,-481.45C564.55,-471.73 574.71,-460.88 582.82,-452.22"/>
<polygon fill="midnightblue" stroke="midnightblue" points="585.58,-454.39 589.86,-444.7 580.47,-449.6 585.58,-454.39"/>
</g>
<!-- Node8 -->
<g id="node8" class="node">
<title>Node8</title>
<g id="a_node8"><a xlink:href="zwave__command__handler_8h.html" target="_top" xlink:title=" ">
<polygon fill="none" stroke="black" points="398.5,-425.5 398.5,-444.5 535.5,-444.5 535.5,-425.5 398.5,-425.5"/>
<text text-anchor="middle" x="467" y="-432.5" font-family="Helvetica,sans-Serif" font-size="10.00">zwave_command_handler.h</text>
</a>
</g>
</g>
<!-- Node1&#45;&gt;Node8 -->
<g id="edge7" class="edge">
<title>Node1&#45;&gt;Node8</title>
<path fill="none" stroke="midnightblue" d="M508.9,-481.45C499.94,-471.73 489.94,-460.88 481.95,-452.22"/>
<polygon fill="midnightblue" stroke="midnightblue" points="484.37,-449.68 475.02,-444.7 479.22,-454.42 484.37,-449.68"/>
</g>
<!-- Node24 -->
<g id="node24" class="node">
<title>Node24</title>
<g id="a_node24"><a xlink:title=" ">
<polygon fill="none" stroke="#bfbfbf" points="698,-425.5 698,-444.5 748,-444.5 748,-425.5 698,-425.5"/>
<text text-anchor="middle" x="723" y="-432.5" font-family="Helvetica,sans-Serif" font-size="10.00">sl_log.h</text>
</a>
</g>
</g>
<!-- Node1&#45;&gt;Node24 -->
<g id="edge49" class="edge">
<title>Node1&#45;&gt;Node24</title>
<path fill="none" stroke="midnightblue" d="M599.88,-481.45C630.6,-470.11 665.49,-457.23 690.27,-448.08"/>
<polygon fill="midnightblue" stroke="midnightblue" points="691.73,-451.27 699.9,-444.53 689.31,-444.71 691.73,-451.27"/>
</g>
<!-- Node3 -->
<g id="node3" class="node">
<title>Node3</title>
<g id="a_node3"><a xlink:href="sl__status_8h.html" target="_top" xlink:title="SL Status Codes.">
<polygon fill="none" stroke="black" points="893.5,-185 893.5,-204 958.5,-204 958.5,-185 893.5,-185"/>
<text text-anchor="middle" x="926" y="-192" font-family="Helvetica,sans-Serif" font-size="10.00">sl_status.h</text>
</a>
</g>
</g>
<!-- Node2&#45;&gt;Node3 -->
<g id="edge2" class="edge">
<title>Node2&#45;&gt;Node3</title>
<path fill="none" stroke="midnightblue" d="M1062.92,-358.41C1051.79,-333.71 1026.31,-281.84 994,-246 981.08,-231.66 963.53,-218.75 949.5,-209.58"/>
<polygon fill="midnightblue" stroke="midnightblue" points="951.19,-206.5 940.87,-204.11 947.44,-212.42 951.19,-206.5"/>
</g>
<!-- Node4 -->
<g id="node4" class="node">
<title>Node4</title>
<g id="a_node4"><a xlink:title=" ">
<polygon fill="none" stroke="#bfbfbf" points="542.5,-0.5 542.5,-19.5 591.5,-19.5 591.5,-0.5 542.5,-0.5"/>
<text text-anchor="middle" x="567" y="-7.5" font-family="Helvetica,sans-Serif" font-size="10.00">stdint.h</text>
</a>
</g>
</g>
<!-- Node3&#45;&gt;Node4 -->
<g id="edge3" class="edge">
<title>Node3&#45;&gt;Node4</title>
<path fill="none" stroke="midnightblue" d="M924.57,-184.98C919.97,-160.41 903.11,-89.06 858,-56 817.78,-26.53 669.9,-15.84 601.78,-12.43"/>
<polygon fill="midnightblue" stroke="midnightblue" points="601.71,-8.92 591.56,-11.94 601.38,-15.91 601.71,-8.92"/>
</g>
<!-- Node8&#45;&gt;Node3 -->
<g id="edge46" class="edge">
<title>Node8&#45;&gt;Node3</title>
<path fill="none" stroke="midnightblue" d="M509.91,-425.44C616.87,-403.13 890.37,-339.79 941,-266 951.8,-250.26 944.4,-228.24 936.66,-213.01"/>
<polygon fill="midnightblue" stroke="midnightblue" points="939.63,-211.16 931.71,-204.13 933.51,-214.57 939.63,-211.16"/>
</g>
<!-- Node8&#45;&gt;Node6 -->
<g id="edge48" class="edge">
<title>Node8&#45;&gt;Node6</title>
<path fill="none" stroke="midnightblue" d="M418.62,-425.49C306.43,-405.08 38,-352.18 38,-313 38,-313 38,-313 38,-126.5 38,-84.81 72.98,-46.53 95.48,-26.22"/>
<polygon fill="midnightblue" stroke="midnightblue" points="97.86,-28.78 103.11,-19.58 93.27,-23.5 97.86,-28.78"/>
</g>
<!-- Node9 -->
<g id="node9" class="node">
<title>Node9</title>
<g id="a_node9"><a xlink:href="zwave__controller__connection__info_8h.html" target="_top" xlink:title=" ">
<polygon fill="none" stroke="black" points="327.5,-179.5 327.5,-209.5 470.5,-209.5 470.5,-179.5 327.5,-179.5"/>
<text text-anchor="start" x="335.5" y="-197.5" font-family="Helvetica,sans-Serif" font-size="10.00">zwave_controller_connection</text>
<text text-anchor="middle" x="399" y="-186.5" font-family="Helvetica,sans-Serif" font-size="10.00">_info.h</text>
</a>
</g>
</g>
<!-- Node8&#45;&gt;Node9 -->
<g id="edge8" class="edge">
<title>Node8&#45;&gt;Node9</title>
<path fill="none" stroke="midnightblue" d="M398.36,-426.59C374.03,-420.4 348.8,-409.2 333,-389 293.74,-338.82 292.89,-302.15 323,-246 330.12,-232.73 342.43,-222.35 355.09,-214.54"/>
<polygon fill="midnightblue" stroke="midnightblue" points="356.9,-217.54 363.86,-209.55 353.44,-211.46 356.9,-217.54"/>
</g>
<!-- Node14 -->
<g id="node14" class="node">
<title>Node14</title>
<g id="a_node14"><a xlink:href="zwave__controller_8h.html" target="_top" xlink:title=" ">
<polygon fill="none" stroke="black" points="482,-364 482,-383 580,-383 580,-364 482,-364"/>
<text text-anchor="middle" x="531" y="-371" font-family="Helvetica,sans-Serif" font-size="10.00">zwave_controller.h</text>
</a>
</g>
</g>
<!-- Node8&#45;&gt;Node14 -->
<g id="edge18" class="edge">
<title>Node8&#45;&gt;Node14</title>
<path fill="none" stroke="midnightblue" d="M476.17,-425.48C486.15,-416.2 502.31,-401.17 514.51,-389.83"/>
<polygon fill="midnightblue" stroke="midnightblue" points="516.91,-392.38 521.85,-383.01 512.14,-387.25 516.91,-392.38"/>
</g>
<!-- Node22 -->
<g id="node22" class="node">
<title>Node22</title>
<g id="a_node22"><a xlink:href="zwave__rx_8h.html" target="_top" xlink:title=" ">
<polygon fill="none" stroke="black" points="694.5,-246.5 694.5,-265.5 761.5,-265.5 761.5,-246.5 694.5,-246.5"/>
<text text-anchor="middle" x="728" y="-253.5" font-family="Helvetica,sans-Serif" font-size="10.00">zwave_rx.h</text>
</a>
</g>
</g>
<!-- Node8&#45;&gt;Node22 -->
<g id="edge43" class="edge">
<title>Node8&#45;&gt;Node22</title>
<path fill="none" stroke="midnightblue" d="M501.04,-425.48C526.49,-418.18 561.49,-406.11 589,-389 641.78,-356.17 691.54,-300.97 714.59,-273.53"/>
<polygon fill="midnightblue" stroke="midnightblue" points="717.42,-275.59 721.1,-265.66 712.03,-271.13 717.42,-275.59"/>
</g>
<!-- Node23 -->
<g id="node23" class="node">
<title>Node23</title>
<g id="a_node23"><a xlink:href="zwave__command__class__version__types_8h.html" target="_top" xlink:title=" ">
<polygon fill="none" stroke="black" points="342,-358.5 342,-388.5 464,-388.5 464,-358.5 342,-358.5"/>
<text text-anchor="start" x="350" y="-376.5" font-family="Helvetica,sans-Serif" font-size="10.00">zwave_command_class</text>
<text text-anchor="middle" x="403" y="-365.5" font-family="Helvetica,sans-Serif" font-size="10.00">_version_types.h</text>
</a>
</g>
</g>
<!-- Node8&#45;&gt;Node23 -->
<g id="edge47" class="edge">
<title>Node8&#45;&gt;Node23</title>
<path fill="none" stroke="midnightblue" d="M457.83,-425.48C449.41,-417.64 436.58,-405.71 425.44,-395.37"/>
<polygon fill="midnightblue" stroke="midnightblue" points="427.79,-392.77 418.08,-388.52 423.02,-397.9 427.79,-392.77"/>
</g>
<!-- Node10 -->
<g id="node10" class="node">
<title>Node10</title>
<g id="a_node10"><a xlink:href="zwave__controller__types_8h.html" target="_top" xlink:title=" ">
<polygon fill="none" stroke="black" points="268,-118 268,-137 396,-137 396,-118 268,-118"/>
<text text-anchor="middle" x="332" y="-125" font-family="Helvetica,sans-Serif" font-size="10.00">zwave_controller_types.h</text>
</a>
</g>
</g>
<!-- Node9&#45;&gt;Node10 -->
<g id="edge9" class="edge">
<title>Node9&#45;&gt;Node10</title>
<path fill="none" stroke="midnightblue" d="M384.46,-179.4C373.81,-169.06 359.34,-155.02 348.3,-144.31"/>
<polygon fill="midnightblue" stroke="midnightblue" points="350.58,-141.65 340.96,-137.19 345.7,-146.67 350.58,-141.65"/>
</g>
<!-- Node10&#45;&gt;Node4 -->
<g id="edge11" class="edge">
<title>Node10&#45;&gt;Node4</title>
<path fill="none" stroke="midnightblue" d="M333.02,-117.6C335.23,-102.51 341.93,-71.99 361,-56 386.59,-34.54 480.32,-20.82 532.08,-14.7"/>
<polygon fill="midnightblue" stroke="midnightblue" points="532.61,-18.16 542.14,-13.54 531.81,-11.21 532.61,-18.16"/>
</g>
<!-- Node10&#45;&gt;Node6 -->
<g id="edge10" class="edge">
<title>Node10&#45;&gt;Node6</title>
<path fill="none" stroke="midnightblue" d="M323.86,-117.94C309.56,-103.36 278.47,-73.57 247,-56 216.99,-39.24 179.7,-27.29 152.24,-19.94"/>
<polygon fill="midnightblue" stroke="midnightblue" points="152.8,-16.47 142.24,-17.35 151.04,-23.24 152.8,-16.47"/>
</g>
<!-- Node11 -->
<g id="node11" class="node">
<title>Node11</title>
<g id="a_node11"><a xlink:href="zwave__node__id__definitions_8h.html" target="_top" xlink:title=" ">
<polygon fill="none" stroke="black" points="546,-56.5 546,-75.5 688,-75.5 688,-56.5 546,-56.5"/>
<text text-anchor="middle" x="617" y="-63.5" font-family="Helvetica,sans-Serif" font-size="10.00">zwave_node_id_definitions.h</text>
</a>
</g>
</g>
<!-- Node10&#45;&gt;Node11 -->
<g id="edge12" class="edge">
<title>Node10&#45;&gt;Node11</title>
<path fill="none" stroke="midnightblue" d="M372.83,-117.98C423.84,-107.33 511.1,-89.11 566.32,-77.58"/>
<polygon fill="midnightblue" stroke="midnightblue" points="567.17,-80.98 576.24,-75.51 565.74,-74.13 567.17,-80.98"/>
</g>
<!-- Node12 -->
<g id="node12" class="node">
<title>Node12</title>
<g id="a_node12"><a xlink:href="zwave__generic__types_8h.html" target="_top" xlink:title=" ">
<polygon fill="none" stroke="black" points="370.5,-56.5 370.5,-75.5 489.5,-75.5 489.5,-56.5 370.5,-56.5"/>
<text text-anchor="middle" x="430" y="-63.5" font-family="Helvetica,sans-Serif" font-size="10.00">zwave_generic_types.h</text>
</a>
</g>
</g>
<!-- Node10&#45;&gt;Node12 -->
<g id="edge14" class="edge">
<title>Node10&#45;&gt;Node12</title>
<path fill="none" stroke="midnightblue" d="M346.04,-117.98C362.05,-108.25 388.45,-92.23 407.37,-80.74"/>
<polygon fill="midnightblue" stroke="midnightblue" points="409.25,-83.69 415.99,-75.51 405.62,-77.71 409.25,-83.69"/>
</g>
<!-- Node13 -->
<g id="node13" class="node">
<title>Node13</title>
<g id="a_node13"><a xlink:href="zwave__rf__region_8h.html" target="_top" xlink:title=" ">
<polygon fill="none" stroke="black" points="142,-56.5 142,-75.5 238,-75.5 238,-56.5 142,-56.5"/>
<text text-anchor="middle" x="190" y="-63.5" font-family="Helvetica,sans-Serif" font-size="10.00">zwave_rf_region.h</text>
</a>
</g>
</g>
<!-- Node10&#45;&gt;Node13 -->
<g id="edge16" class="edge">
<title>Node10&#45;&gt;Node13</title>
<path fill="none" stroke="midnightblue" d="M311.65,-117.98C287.61,-107.9 247.4,-91.05 219.84,-79.5"/>
<polygon fill="midnightblue" stroke="midnightblue" points="220.88,-76.15 210.31,-75.51 218.18,-82.6 220.88,-76.15"/>
</g>
<!-- Node11&#45;&gt;Node4 -->
<g id="edge13" class="edge">
<title>Node11&#45;&gt;Node4</title>
<path fill="none" stroke="midnightblue" d="M608.74,-56.08C601.54,-48.3 590.89,-36.8 582.15,-27.37"/>
<polygon fill="midnightblue" stroke="midnightblue" points="584.47,-24.71 575.1,-19.75 579.33,-29.47 584.47,-24.71"/>
</g>
<!-- Node12&#45;&gt;Node4 -->
<g id="edge15" class="edge">
<title>Node12&#45;&gt;Node4</title>
<path fill="none" stroke="midnightblue" d="M451.71,-56.44C474.35,-47.52 510.07,-33.44 535.75,-23.32"/>
<polygon fill="midnightblue" stroke="midnightblue" points="537.37,-26.44 545.39,-19.52 534.81,-19.93 537.37,-26.44"/>
</g>
<!-- Node13&#45;&gt;Node6 -->
<g id="edge17" class="edge">
<title>Node13&#45;&gt;Node6</title>
<path fill="none" stroke="midnightblue" d="M177.79,-56.32C166.22,-48.11 148.62,-35.6 134.84,-25.81"/>
<polygon fill="midnightblue" stroke="midnightblue" points="136.61,-22.77 126.43,-19.83 132.56,-28.48 136.61,-22.77"/>
</g>
<!-- Node15 -->
<g id="node15" class="node">
<title>Node15</title>
<g id="a_node15"><a xlink:href="zwave__network__management_8h.html" target="_top" xlink:title=" ">
<polygon fill="none" stroke="black" points="120.5,-302.5 120.5,-321.5 275.5,-321.5 275.5,-302.5 120.5,-302.5"/>
<text text-anchor="middle" x="198" y="-309.5" font-family="Helvetica,sans-Serif" font-size="10.00">zwave_network_management.h</text>
</a>
</g>
</g>
<!-- Node14&#45;&gt;Node15 -->
<g id="edge19" class="edge">
<title>Node14&#45;&gt;Node15</title>
<path fill="none" stroke="midnightblue" d="M498.9,-363.97C490.5,-361.88 481.44,-359.74 473,-358 404.2,-343.8 324.97,-331.23 269.28,-323.01"/>
<polygon fill="midnightblue" stroke="midnightblue" points="269.56,-319.51 259.16,-321.53 268.55,-326.44 269.56,-319.51"/>
</g>
<!-- Node19 -->
<g id="node19" class="node">
<title>Node19</title>
<g id="a_node19"><a xlink:href="zwave__controller__callbacks_8h.html" target="_top" xlink:title=" ">
<polygon fill="none" stroke="black" points="490.5,-302.5 490.5,-321.5 635.5,-321.5 635.5,-302.5 490.5,-302.5"/>
<text text-anchor="middle" x="563" y="-309.5" font-family="Helvetica,sans-Serif" font-size="10.00">zwave_controller_callbacks.h</text>
</a>
</g>
</g>
<!-- Node14&#45;&gt;Node19 -->
<g id="edge32" class="edge">
<title>Node14&#45;&gt;Node19</title>
<path fill="none" stroke="midnightblue" d="M535.58,-363.98C540.24,-355.32 547.59,-341.65 553.51,-330.65"/>
<polygon fill="midnightblue" stroke="midnightblue" points="556.77,-331.97 558.42,-321.51 550.6,-328.66 556.77,-331.97"/>
</g>
<!-- Node15&#45;&gt;Node3 -->
<g id="edge31" class="edge">
<title>Node15&#45;&gt;Node3</title>
<path fill="none" stroke="midnightblue" d="M275.55,-307.54C460.27,-299.13 911.77,-277.45 923,-266 936.1,-252.64 934.64,-230.12 931.32,-214.13"/>
<polygon fill="midnightblue" stroke="midnightblue" points="934.69,-213.17 928.89,-204.3 927.89,-214.85 934.69,-213.17"/>
</g>
<!-- Node15&#45;&gt;Node4 -->
<g id="edge20" class="edge">
<title>Node15&#45;&gt;Node4</title>
<path fill="none" stroke="midnightblue" d="M204.97,-302.22C226.23,-275.66 290.44,-196.84 318,-179 361.18,-151.04 383.78,-169.29 428,-143 465.29,-120.83 467.54,-105.88 499,-76 516.62,-59.27 536.73,-40.02 550.48,-26.85"/>
<polygon fill="midnightblue" stroke="midnightblue" points="552.98,-29.3 557.78,-19.85 548.14,-24.24 552.98,-29.3"/>
</g>
<!-- Node15&#45;&gt;Node6 -->
<g id="edge21" class="edge">
<title>Node15&#45;&gt;Node6</title>
<path fill="none" stroke="midnightblue" d="M176.75,-302.49C141.8,-286.92 76,-250.33 76,-195.5 76,-195.5 76,-195.5 76,-126.5 76,-90.25 93.09,-50.67 104.35,-28.53"/>
<polygon fill="midnightblue" stroke="midnightblue" points="107.46,-30.14 109.03,-19.66 101.27,-26.87 107.46,-30.14"/>
</g>
<!-- Node15&#45;&gt;Node10 -->
<g id="edge22" class="edge">
<title>Node15&#45;&gt;Node10</title>
<path fill="none" stroke="midnightblue" d="M197.11,-302.2C195.27,-279.28 193.46,-216.9 223,-179 237.84,-159.96 261.55,-147.81 283.07,-140.22"/>
<polygon fill="midnightblue" stroke="midnightblue" points="284.36,-143.48 292.77,-137.04 282.18,-136.83 284.36,-143.48"/>
</g>
<!-- Node15&#45;&gt;Node12 -->
<g id="edge23" class="edge">
<title>Node15&#45;&gt;Node12</title>
<path fill="none" stroke="midnightblue" d="M200.64,-302.38C208.3,-278.79 232.87,-212.74 277,-179 323.94,-143.1 362.31,-183.87 405,-143 420.72,-127.95 426.56,-102.85 428.73,-85.65"/>
<polygon fill="midnightblue" stroke="midnightblue" points="432.22,-85.95 429.69,-75.66 425.25,-85.28 432.22,-85.95"/>
</g>
<!-- Node16 -->
<g id="node16" class="node">
<title>Node16</title>
<g id="a_node16"><a xlink:href="zwave__network__management__types_8h.html" target="_top" xlink:title=" ">
<polygon fill="none" stroke="black" points="104,-112.5 104,-142.5 250,-142.5 250,-112.5 104,-112.5"/>
<text text-anchor="start" x="112" y="-130.5" font-family="Helvetica,sans-Serif" font-size="10.00">zwave_network_management</text>
<text text-anchor="middle" x="177" y="-119.5" font-family="Helvetica,sans-Serif" font-size="10.00">_types.h</text>
</a>
</g>
</g>
<!-- Node15&#45;&gt;Node16 -->
<g id="edge24" class="edge">
<title>Node15&#45;&gt;Node16</title>
<path fill="none" stroke="midnightblue" d="M178.7,-302.48C164.57,-295.08 146.44,-282.89 138,-266 120.71,-231.42 125.51,-215.6 138,-179 141.54,-168.62 148.18,-158.72 154.98,-150.47"/>
<polygon fill="midnightblue" stroke="midnightblue" points="157.74,-152.64 161.74,-142.83 152.49,-148 157.74,-152.64"/>
</g>
<!-- Node17 -->
<g id="node17" class="node">
<title>Node17</title>
<g id="a_node17"><a xlink:href="zwave__controller__keyset_8h.html" target="_top" xlink:title=" ">
<polygon fill="none" stroke="black" points="332.5,-246.5 332.5,-265.5 465.5,-265.5 465.5,-246.5 332.5,-246.5"/>
<text text-anchor="middle" x="399" y="-253.5" font-family="Helvetica,sans-Serif" font-size="10.00">zwave_controller_keyset.h</text>
</a>
</g>
</g>
<!-- Node15&#45;&gt;Node17 -->
<g id="edge27" class="edge">
<title>Node15&#45;&gt;Node17</title>
<path fill="none" stroke="midnightblue" d="M229.85,-302.44C264.4,-293.16 319.68,-278.31 357.58,-268.13"/>
<polygon fill="midnightblue" stroke="midnightblue" points="358.55,-271.49 367.3,-265.52 356.73,-264.73 358.55,-271.49"/>
</g>
<!-- Node16&#45;&gt;Node4 -->
<g id="edge26" class="edge">
<title>Node16&#45;&gt;Node4</title>
<path fill="none" stroke="midnightblue" d="M204.94,-112.45C237.23,-96.71 292.31,-71.4 342,-56 407.87,-35.58 487.55,-22.2 532.23,-15.67"/>
<polygon fill="midnightblue" stroke="midnightblue" points="532.88,-19.12 542.28,-14.24 531.89,-12.19 532.88,-19.12"/>
</g>
<!-- Node16&#45;&gt;Node6 -->
<g id="edge25" class="edge">
<title>Node16&#45;&gt;Node6</title>
<path fill="none" stroke="midnightblue" d="M161.64,-112.34C152.18,-102.87 140.48,-89.67 133,-76 125.07,-61.5 120.11,-43.31 117.26,-29.87"/>
<polygon fill="midnightblue" stroke="midnightblue" points="120.67,-29.04 115.34,-19.88 113.79,-30.36 120.67,-29.04"/>
</g>
<!-- Node17&#45;&gt;Node9 -->
<g id="edge28" class="edge">
<title>Node17&#45;&gt;Node9</title>
<path fill="none" stroke="midnightblue" d="M399,-246.48C399,-239.47 399,-229.19 399,-219.7"/>
<polygon fill="midnightblue" stroke="midnightblue" points="402.5,-219.52 399,-209.52 395.5,-219.52 402.5,-219.52"/>
</g>
<!-- Node18 -->
<g id="node18" class="node">
<title>Node18</title>
<g id="a_node18"><a xlink:href="zwave__keyset__definitions_8h.html" target="_top" xlink:title=" ">
<polygon fill="none" stroke="black" points="500.5,-185 500.5,-204 637.5,-204 637.5,-185 500.5,-185"/>
<text text-anchor="middle" x="569" y="-192" font-family="Helvetica,sans-Serif" font-size="10.00">zwave_keyset_definitions.h</text>
</a>
</g>
</g>
<!-- Node17&#45;&gt;Node18 -->
<g id="edge29" class="edge">
<title>Node17&#45;&gt;Node18</title>
<path fill="none" stroke="midnightblue" d="M423.36,-246.48C452.64,-236.22 501.97,-218.96 535,-207.4"/>
<polygon fill="midnightblue" stroke="midnightblue" points="536.41,-210.62 544.69,-204.01 534.09,-204.01 536.41,-210.62"/>
</g>
<!-- Node18&#45;&gt;Node4 -->
<g id="edge30" class="edge">
<title>Node18&#45;&gt;Node4</title>
<path fill="none" stroke="midnightblue" d="M588.78,-184.89C633.43,-164.25 735.21,-109.67 697,-56 675.56,-25.89 632.54,-15.74 601.86,-12.42"/>
<polygon fill="midnightblue" stroke="midnightblue" points="601.85,-8.91 591.58,-11.51 601.23,-15.88 601.85,-8.91"/>
</g>
<!-- Node19&#45;&gt;Node12 -->
<g id="edge37" class="edge">
<title>Node19&#45;&gt;Node12</title>
<path fill="none" stroke="midnightblue" d="M579.2,-302.41C592.75,-294.51 611.78,-281.67 624,-266 648.6,-234.46 667.81,-213.16 647,-179 611.77,-121.18 536.04,-91.91 484.06,-78.07"/>
<polygon fill="midnightblue" stroke="midnightblue" points="484.87,-74.67 474.32,-75.59 483.14,-81.45 484.87,-74.67"/>
</g>
<!-- Node19&#45;&gt;Node16 -->
<g id="edge35" class="edge">
<title>Node19&#45;&gt;Node16</title>
<path fill="none" stroke="midnightblue" d="M490.27,-308.03C440.82,-303.52 375.15,-292.51 323,-266 267.4,-237.73 218.11,-181.68 193.54,-150.59"/>
<polygon fill="midnightblue" stroke="midnightblue" points="196.17,-148.27 187.28,-142.52 190.64,-152.57 196.17,-148.27"/>
</g>
<!-- Node19&#45;&gt;Node18 -->
<g id="edge36" class="edge">
<title>Node19&#45;&gt;Node18</title>
<path fill="none" stroke="midnightblue" d="M576.79,-302.19C587.83,-294.24 602.5,-281.45 609,-266 617.29,-246.3 601.66,-225.16 587.58,-211.22"/>
<polygon fill="midnightblue" stroke="midnightblue" points="589.8,-208.5 580.08,-204.28 585.04,-213.64 589.8,-208.5"/>
</g>
<!-- Node20 -->
<g id="node20" class="node">
<title>Node20</title>
<g id="a_node20"><a xlink:href="zwave__rx__definitions_8h.html" target="_top" xlink:title=" ">
<polygon fill="none" stroke="black" points="484,-246.5 484,-265.5 600,-265.5 600,-246.5 484,-246.5"/>
<text text-anchor="middle" x="542" y="-253.5" font-family="Helvetica,sans-Serif" font-size="10.00">zwave_rx_definitions.h</text>
</a>
</g>
</g>
<!-- Node19&#45;&gt;Node20 -->
<g id="edge33" class="edge">
<title>Node19&#45;&gt;Node20</title>
<path fill="none" stroke="midnightblue" d="M559.53,-302.08C556.69,-294.77 552.57,-284.18 549.04,-275.1"/>
<polygon fill="midnightblue" stroke="midnightblue" points="552.29,-273.8 545.4,-265.75 545.77,-276.34 552.29,-273.8"/>
</g>
<!-- Node21 -->
<g id="node21" class="node">
<title>Node21</title>
<g id="a_node21"><a xlink:href="zwapi__protocol__transport_8h.html" target="_top" xlink:title="Z&#45;Wave API for transport application layer interface.">
<polygon fill="none" stroke="black" points="780,-246.5 780,-265.5 914,-265.5 914,-246.5 780,-246.5"/>
<text text-anchor="middle" x="847" y="-253.5" font-family="Helvetica,sans-Serif" font-size="10.00">zwapi_protocol_transport.h</text>
</a>
</g>
</g>
<!-- Node19&#45;&gt;Node21 -->
<g id="edge38" class="edge">
<title>Node19&#45;&gt;Node21</title>
<path fill="none" stroke="midnightblue" d="M608,-302.44C657.96,-292.94 738.6,-277.61 792.2,-267.42"/>
<polygon fill="midnightblue" stroke="midnightblue" points="793.04,-270.82 802.21,-265.52 791.73,-263.95 793.04,-270.82"/>
</g>
<!-- Node20&#45;&gt;Node9 -->
<g id="edge34" class="edge">
<title>Node20&#45;&gt;Node9</title>
<path fill="none" stroke="midnightblue" d="M521.51,-246.48C500.88,-237.89 468.42,-224.38 442.09,-213.43"/>
<polygon fill="midnightblue" stroke="midnightblue" points="443.28,-210.13 432.7,-209.52 440.59,-216.6 443.28,-210.13"/>
</g>
<!-- Node21&#45;&gt;Node3 -->
<g id="edge41" class="edge">
<title>Node21&#45;&gt;Node3</title>
<path fill="none" stroke="midnightblue" d="M858.32,-246.48C870.87,-237.02 891.35,-221.6 906.5,-210.19"/>
<polygon fill="midnightblue" stroke="midnightblue" points="908.82,-212.82 914.7,-204.01 904.61,-207.23 908.82,-212.82"/>
</g>
<!-- Node21&#45;&gt;Node4 -->
<g id="edge39" class="edge">
<title>Node21&#45;&gt;Node4</title>
<path fill="none" stroke="midnightblue" d="M848.85,-246.34C854.89,-215.57 870.69,-110.44 818,-56 788.6,-25.63 663.41,-15.53 601.69,-12.36"/>
<polygon fill="midnightblue" stroke="midnightblue" points="601.8,-8.86 591.64,-11.87 601.46,-15.85 601.8,-8.86"/>
</g>
<!-- Node21&#45;&gt;Node6 -->
<g id="edge40" class="edge">
<title>Node21&#45;&gt;Node6</title>
<path fill="none" stroke="midnightblue" d="M843.53,-246.14C830.33,-213.75 779.73,-101.3 697,-56 649.36,-29.91 273.93,-15.99 152.06,-12.13"/>
<polygon fill="midnightblue" stroke="midnightblue" points="152.17,-8.63 142.06,-11.82 151.95,-15.63 152.17,-8.63"/>
</g>
<!-- Node21&#45;&gt;Node11 -->
<g id="edge42" class="edge">
<title>Node21&#45;&gt;Node11</title>
<path fill="none" stroke="midnightblue" d="M836.01,-246.45C824.49,-237.45 805.89,-222.84 790,-210 733.2,-164.11 666.86,-108.79 635.38,-82.42"/>
<polygon fill="midnightblue" stroke="midnightblue" points="637.38,-79.53 627.46,-75.79 632.88,-84.89 637.38,-79.53"/>
</g>
<!-- Node22&#45;&gt;Node3 -->
<g id="edge45" class="edge">
<title>Node22&#45;&gt;Node3</title>
<path fill="none" stroke="midnightblue" d="M756.37,-246.48C790.92,-236.09 849.42,-218.51 887.88,-206.95"/>
<polygon fill="midnightblue" stroke="midnightblue" points="889.11,-210.24 897.68,-204.01 887.1,-203.54 889.11,-210.24"/>
</g>
<!-- Node22&#45;&gt;Node9 -->
<g id="edge44" class="edge">
<title>Node22&#45;&gt;Node9</title>
<path fill="none" stroke="midnightblue" d="M694.34,-248.91C644.47,-239.89 549.44,-222.71 480.62,-210.26"/>
<polygon fill="midnightblue" stroke="midnightblue" points="481.13,-206.8 470.66,-208.46 479.88,-213.68 481.13,-206.8"/>
</g>
</g>
</svg>
