<?xml version="1.0" encoding="UTF-8" standalone="no"?>
<!DOCTYPE svg PUBLIC "-//W3C//DTD SVG 1.1//EN"
 "http://www.w3.org/Graphics/SVG/1.1/DTD/svg11.dtd">
<!-- Generated by graphviz version 2.43.0 (0)
 -->
<!-- Title: S2_msg_received_event Pages: 1 -->
<svg width="611pt" height="78pt"
 viewBox="0.00 0.00 611.00 77.50" xmlns="http://www.w3.org/2000/svg" xmlns:xlink="http://www.w3.org/1999/xlink">
<g id="graph0" class="graph" transform="scale(1 1) rotate(0) translate(4 73.5)">
<title>S2_msg_received_event</title>
<!-- Node1 -->
<g id="node1" class="node">
<title>Node1</title>
<g id="a_node1"><a xlink:title=" ">
<polygon fill="#bfbfbf" stroke="black" points="0,-28 0,-47 124,-47 124,-28 0,-28"/>
<text text-anchor="middle" x="62" y="-35" font-family="Helvetica,sans-Serif" font-size="10.00">S2_msg_received_event</text>
</a>
</g>
</g>
<!-- Node2 -->
<g id="node2" class="node">
<title>Node2</title>
<g id="a_node2"><a xlink:href="zwave__s2__transport_8c.html#a317202daf4333df3301fa9d59bb2a5fa" target="_top" xlink:title=" ">
<polygon fill="none" stroke="black" points="160,-50 160,-69 279,-69 279,-50 160,-50"/>
<text text-anchor="middle" x="219.5" y="-57" font-family="Helvetica,sans-Serif" font-size="10.00">class_to_encapsulation</text>
</a>
</g>
</g>
<!-- Node1&#45;&gt;Node2 -->
<g id="edge1" class="edge">
<title>Node1&#45;&gt;Node2</title>
<path fill="none" stroke="midnightblue" d="M124.01,-46.13C132.51,-47.33 141.29,-48.58 149.92,-49.8"/>
<polygon fill="midnightblue" stroke="midnightblue" points="149.56,-53.28 159.95,-51.22 150.54,-46.35 149.56,-53.28"/>
</g>
<!-- Node3 -->
<g id="node3" class="node">
<title>Node3</title>
<g id="a_node3"><a xlink:href="group__zwave__controller__internal.html#ga79b433f95d08d541cd2a4d74ed27fd65" target="_top" xlink:title="see zwave_controller_callbacks_t">
<polygon fill="none" stroke="black" points="166.5,-0.5 166.5,-30.5 272.5,-30.5 272.5,-0.5 166.5,-0.5"/>
<text text-anchor="start" x="174.5" y="-18.5" font-family="Helvetica,sans-Serif" font-size="10.00">zwave_controller_on</text>
<text text-anchor="middle" x="219.5" y="-7.5" font-family="Helvetica,sans-Serif" font-size="10.00">_frame_received</text>
</a>
</g>
</g>
<!-- Node1&#45;&gt;Node3 -->
<g id="edge2" class="edge">
<title>Node1&#45;&gt;Node3</title>
<path fill="none" stroke="midnightblue" d="M124.01,-28.87C134.59,-27.37 145.59,-25.81 156.2,-24.31"/>
<polygon fill="midnightblue" stroke="midnightblue" points="156.81,-27.76 166.22,-22.9 155.83,-20.83 156.81,-27.76"/>
</g>
<!-- Node4 -->
<g id="node4" class="node">
<title>Node4</title>
<g id="a_node4"><a xlink:href="group__zwave__controller__transport__internal.html#gab1d371c3594b30fb5e48405df834696a" target="_top" xlink:title="Entry point of of frame to the transport plugin system .">
<polygon fill="none" stroke="black" points="315,-0.5 315,-30.5 449,-30.5 449,-0.5 315,-0.5"/>
<text text-anchor="start" x="323" y="-18.5" font-family="Helvetica,sans-Serif" font-size="10.00">zwave_controller_transport</text>
<text text-anchor="middle" x="382" y="-7.5" font-family="Helvetica,sans-Serif" font-size="10.00">_on_frame_received</text>
</a>
</g>
</g>
<!-- Node3&#45;&gt;Node4 -->
<g id="edge3" class="edge">
<title>Node3&#45;&gt;Node4</title>
<path fill="none" stroke="midnightblue" d="M272.61,-15.5C282.81,-15.5 293.7,-15.5 304.5,-15.5"/>
<polygon fill="midnightblue" stroke="midnightblue" points="304.8,-19 314.8,-15.5 304.8,-12 304.8,-19"/>
</g>
<!-- Node5 -->
<g id="node5" class="node">
<title>Node5</title>
<g id="a_node5"><a xlink:href="zwave__controller__transport_8c.html#a98ff30ad35d280415fc1d0c576dfcbe2" target="_top" xlink:title="Get the transport by class object.">
<polygon fill="none" stroke="black" points="485,-6 485,-25 603,-25 603,-6 485,-6"/>
<text text-anchor="middle" x="544" y="-13" font-family="Helvetica,sans-Serif" font-size="10.00">get_transport_by_class</text>
</a>
</g>
</g>
<!-- Node4&#45;&gt;Node5 -->
<g id="edge4" class="edge">
<title>Node4&#45;&gt;Node5</title>
<path fill="none" stroke="midnightblue" d="M449,-15.5C457.45,-15.5 466.11,-15.5 474.59,-15.5"/>
<polygon fill="midnightblue" stroke="midnightblue" points="474.82,-19 484.82,-15.5 474.82,-12 474.82,-19"/>
</g>
</g>
</svg>
