<?xml version="1.0" encoding="UTF-8" standalone="no"?>
<!DOCTYPE svg PUBLIC "-//W3C//DTD SVG 1.1//EN"
 "http://www.w3.org/Graphics/SVG/1.1/DTD/svg11.dtd">
<!-- Generated by graphviz version 2.43.0 (0)
 -->
<!-- Title: applications/zpc/components/zwave/zwave_transports/s0/include/zwave_s0_transport.h Pages: 1 -->
<svg width="801pt" height="128pt"
 viewBox="0.00 0.00 801.00 128.00" xmlns="http://www.w3.org/2000/svg" xmlns:xlink="http://www.w3.org/1999/xlink">
<g id="graph0" class="graph" transform="scale(1 1) rotate(0) translate(4 124)">
<title>applications/zpc/components/zwave/zwave_transports/s0/include/zwave_s0_transport.h</title>
<!-- Node1 -->
<g id="node1" class="node">
<title>Node1</title>
<g id="a_node1"><a xlink:title=" ">
<polygon fill="#bfbfbf" stroke="black" points="314,-78.5 314,-119.5 477,-119.5 477,-78.5 314,-78.5"/>
<text text-anchor="start" x="322" y="-107.5" font-family="Helvetica,sans-Serif" font-size="10.00">applications/zpc/components</text>
<text text-anchor="start" x="322" y="-96.5" font-family="Helvetica,sans-Serif" font-size="10.00">/zwave/zwave_transports</text>
<text text-anchor="middle" x="395.5" y="-85.5" font-family="Helvetica,sans-Serif" font-size="10.00">/s0/include/zwave_s0_transport.h</text>
</a>
</g>
</g>
<!-- Node2 -->
<g id="node2" class="node">
<title>Node2</title>
<g id="a_node2"><a xlink:href="zwave__s0__network_8c.html" target="_top" xlink:title=" ">
<polygon fill="none" stroke="black" points="0,-0.5 0,-41.5 143,-41.5 143,-0.5 0,-0.5"/>
<text text-anchor="start" x="8" y="-29.5" font-family="Helvetica,sans-Serif" font-size="10.00">applications/zpc/components</text>
<text text-anchor="start" x="8" y="-18.5" font-family="Helvetica,sans-Serif" font-size="10.00">/zwave/zwave_transports</text>
<text text-anchor="middle" x="71.5" y="-7.5" font-family="Helvetica,sans-Serif" font-size="10.00">/s0/src/zwave_s0_network.c</text>
</a>
</g>
</g>
<!-- Node1&#45;&gt;Node2 -->
<g id="edge1" class="edge">
<title>Node1&#45;&gt;Node2</title>
<path fill="none" stroke="midnightblue" d="M303.89,-77.42C258.07,-67.01 201.8,-54.06 151.5,-42 148.72,-41.33 145.88,-40.65 143.01,-39.95"/>
<polygon fill="midnightblue" stroke="midnightblue" points="303.27,-80.86 313.8,-79.66 304.82,-74.04 303.27,-80.86"/>
</g>
<!-- Node3 -->
<g id="node3" class="node">
<title>Node3</title>
<g id="a_node3"><a xlink:href="zwave__s0__sm_8c.html" target="_top" xlink:title="S0 Bootstrapping state machine.">
<polygon fill="none" stroke="black" points="161,-0.5 161,-41.5 304,-41.5 304,-0.5 161,-0.5"/>
<text text-anchor="start" x="169" y="-29.5" font-family="Helvetica,sans-Serif" font-size="10.00">applications/zpc/components</text>
<text text-anchor="start" x="169" y="-18.5" font-family="Helvetica,sans-Serif" font-size="10.00">/zwave/zwave_transports</text>
<text text-anchor="middle" x="232.5" y="-7.5" font-family="Helvetica,sans-Serif" font-size="10.00">/s0/src/zwave_s0_sm.c</text>
</a>
</g>
</g>
<!-- Node1&#45;&gt;Node3 -->
<g id="edge2" class="edge">
<title>Node1&#45;&gt;Node3</title>
<path fill="none" stroke="midnightblue" d="M344.43,-74.19C321.88,-63.67 295.7,-51.47 274.33,-41.51"/>
<polygon fill="midnightblue" stroke="midnightblue" points="342.98,-77.37 353.52,-78.43 345.94,-71.03 342.98,-77.37"/>
</g>
<!-- Node4 -->
<g id="node4" class="node">
<title>Node4</title>
<g id="a_node4"><a xlink:href="zwave__s0__transport_8c.html" target="_top" xlink:title=" ">
<polygon fill="none" stroke="black" points="322.5,-0.5 322.5,-41.5 468.5,-41.5 468.5,-0.5 322.5,-0.5"/>
<text text-anchor="start" x="330.5" y="-29.5" font-family="Helvetica,sans-Serif" font-size="10.00">applications/zpc/components</text>
<text text-anchor="start" x="330.5" y="-18.5" font-family="Helvetica,sans-Serif" font-size="10.00">/zwave/zwave_transports</text>
<text text-anchor="middle" x="395.5" y="-7.5" font-family="Helvetica,sans-Serif" font-size="10.00">/s0/src/zwave_s0_transport.c</text>
</a>
</g>
</g>
<!-- Node1&#45;&gt;Node4 -->
<g id="edge3" class="edge">
<title>Node1&#45;&gt;Node4</title>
<path fill="none" stroke="midnightblue" d="M395.5,-68.3C395.5,-59.3 395.5,-49.65 395.5,-41.51"/>
<polygon fill="midnightblue" stroke="midnightblue" points="392,-68.43 395.5,-78.43 399,-68.43 392,-68.43"/>
</g>
<!-- Node5 -->
<g id="node5" class="node">
<title>Node5</title>
<g id="a_node5"><a xlink:href="zwave__s2__keystore_8c.html" target="_top" xlink:title=" ">
<polygon fill="none" stroke="black" points="487,-0.5 487,-41.5 632,-41.5 632,-0.5 487,-0.5"/>
<text text-anchor="start" x="495" y="-29.5" font-family="Helvetica,sans-Serif" font-size="10.00">applications/zpc/components</text>
<text text-anchor="start" x="495" y="-18.5" font-family="Helvetica,sans-Serif" font-size="10.00">/zwave/zwave_transports</text>
<text text-anchor="middle" x="559.5" y="-7.5" font-family="Helvetica,sans-Serif" font-size="10.00">/s2/src/zwave_s2_keystore.c</text>
</a>
</g>
</g>
<!-- Node1&#45;&gt;Node5 -->
<g id="edge4" class="edge">
<title>Node1&#45;&gt;Node5</title>
<path fill="none" stroke="midnightblue" d="M446.88,-74.19C469.57,-63.67 495.91,-51.47 517.41,-41.51"/>
<polygon fill="midnightblue" stroke="midnightblue" points="445.34,-71.05 437.73,-78.43 448.28,-77.4 445.34,-71.05"/>
</g>
<!-- Node6 -->
<g id="node6" class="node">
<title>Node6</title>
<g id="a_node6"><a xlink:href="zwave__transports__fixt_8c.html" target="_top" xlink:title=" ">
<polygon fill="none" stroke="black" points="650,-0.5 650,-41.5 793,-41.5 793,-0.5 650,-0.5"/>
<text text-anchor="start" x="658" y="-29.5" font-family="Helvetica,sans-Serif" font-size="10.00">applications/zpc/components</text>
<text text-anchor="start" x="658" y="-18.5" font-family="Helvetica,sans-Serif" font-size="10.00">/zwave/zwave_transports</text>
<text text-anchor="middle" x="721.5" y="-7.5" font-family="Helvetica,sans-Serif" font-size="10.00">/src/zwave_transports_fixt.c</text>
</a>
</g>
</g>
<!-- Node1&#45;&gt;Node6 -->
<g id="edge5" class="edge">
<title>Node1&#45;&gt;Node6</title>
<path fill="none" stroke="midnightblue" d="M487.06,-77.64C533.4,-67.21 590.5,-54.18 641.5,-42 644.28,-41.33 647.12,-40.65 649.99,-39.96"/>
<polygon fill="midnightblue" stroke="midnightblue" points="486.03,-74.28 477.04,-79.89 487.56,-81.11 486.03,-74.28"/>
</g>
</g>
</svg>
