<?xml version="1.0" encoding="UTF-8" standalone="no"?>
<!DOCTYPE svg PUBLIC "-//W3C//DTD SVG 1.1//EN"
 "http://www.w3.org/Graphics/SVG/1.1/DTD/svg11.dtd">
<!-- Generated by graphviz version 2.43.0 (0)
 -->
<!-- Title: zwave_command_class_indicator_handle_set Pages: 1 -->
<svg width="651pt" height="78pt"
 viewBox="0.00 0.00 651.00 77.50" xmlns="http://www.w3.org/2000/svg" xmlns:xlink="http://www.w3.org/1999/xlink">
<g id="graph0" class="graph" transform="scale(1 1) rotate(0) translate(4 73.5)">
<title>zwave_command_class_indicator_handle_set</title>
<!-- Node1 -->
<g id="node1" class="node">
<title>Node1</title>
<g id="a_node1"><a xlink:title=" ">
<polygon fill="#bfbfbf" stroke="black" points="0,-22.5 0,-52.5 122,-52.5 122,-22.5 0,-22.5"/>
<text text-anchor="start" x="8" y="-40.5" font-family="Helvetica,sans-Serif" font-size="10.00">zwave_command_class</text>
<text text-anchor="middle" x="61" y="-29.5" font-family="Helvetica,sans-Serif" font-size="10.00">_indicator_handle_set</text>
</a>
</g>
</g>
<!-- Node2 -->
<g id="node2" class="node">
<title>Node2</title>
<g id="a_node2"><a xlink:href="zwave__command__class__indicator_8c.html#a0668453715098a687b70377cc1068db2" target="_top" xlink:title=" ">
<polygon fill="none" stroke="black" points="158,-28 158,-47 264,-47 264,-28 158,-28"/>
<text text-anchor="middle" x="211" y="-35" font-family="Helvetica,sans-Serif" font-size="10.00">set_indicator_value0</text>
</a>
</g>
</g>
<!-- Node1&#45;&gt;Node2 -->
<g id="edge1" class="edge">
<title>Node1&#45;&gt;Node2</title>
<path fill="none" stroke="midnightblue" d="M122.2,-37.5C130.62,-37.5 139.29,-37.5 147.74,-37.5"/>
<polygon fill="midnightblue" stroke="midnightblue" points="147.92,-41 157.92,-37.5 147.92,-34 147.92,-41"/>
</g>
<!-- Node3 -->
<g id="node3" class="node">
<title>Node3</title>
<g id="a_node3"><a xlink:href="zwave__command__class__indicator_8c.html#aca8b58dc5f30336f7ea5a5262c9e0690" target="_top" xlink:title=" ">
<polygon fill="none" stroke="black" points="300,-28 300,-47 388,-47 388,-28 300,-28"/>
<text text-anchor="middle" x="344" y="-35" font-family="Helvetica,sans-Serif" font-size="10.00">update_indicator</text>
</a>
</g>
</g>
<!-- Node2&#45;&gt;Node3 -->
<g id="edge2" class="edge">
<title>Node2&#45;&gt;Node3</title>
<path fill="none" stroke="midnightblue" d="M264.15,-37.5C272.57,-37.5 281.3,-37.5 289.75,-37.5"/>
<polygon fill="midnightblue" stroke="midnightblue" points="289.87,-41 299.87,-37.5 289.87,-34 289.87,-41"/>
</g>
<!-- Node4 -->
<g id="node4" class="node">
<title>Node4</title>
<g id="a_node4"><a xlink:href="zwave__command__class__indicator_8c.html#acd613b44e8cdb51a55d53ecc25a097e5" target="_top" xlink:title=" ">
<polygon fill="none" stroke="black" points="424,-50 424,-69 529,-69 529,-50 424,-50"/>
<text text-anchor="middle" x="476.5" y="-57" font-family="Helvetica,sans-Serif" font-size="10.00">call_external_blinker</text>
</a>
</g>
</g>
<!-- Node3&#45;&gt;Node4 -->
<g id="edge3" class="edge">
<title>Node3&#45;&gt;Node4</title>
<path fill="none" stroke="midnightblue" d="M388.09,-44.76C396.31,-46.15 405.06,-47.62 413.73,-49.09"/>
<polygon fill="midnightblue" stroke="midnightblue" points="413.39,-52.58 423.83,-50.79 414.55,-45.68 413.39,-52.58"/>
</g>
<!-- Node6 -->
<g id="node6" class="node">
<title>Node6</title>
<g id="a_node6"><a xlink:href="zwave__command__class__indicator_8c.html#ad23a909de98e94a48d9501c5eb7ca70a" target="_top" xlink:title=" ">
<polygon fill="none" stroke="black" points="426,-0.5 426,-30.5 527,-30.5 527,-0.5 426,-0.5"/>
<text text-anchor="start" x="434" y="-18.5" font-family="Helvetica,sans-Serif" font-size="10.00">indicator_sequence</text>
<text text-anchor="middle" x="476.5" y="-7.5" font-family="Helvetica,sans-Serif" font-size="10.00">_timout_callback</text>
</a>
</g>
</g>
<!-- Node3&#45;&gt;Node6 -->
<g id="edge5" class="edge">
<title>Node3&#45;&gt;Node6</title>
<path fill="none" stroke="midnightblue" d="M388.09,-30.24C396.92,-28.75 406.37,-27.15 415.67,-25.59"/>
<polygon fill="midnightblue" stroke="midnightblue" points="416.39,-29.01 425.67,-23.9 415.22,-22.11 416.39,-29.01"/>
</g>
<!-- Node5 -->
<g id="node5" class="node">
<title>Node5</title>
<g id="a_node5"><a xlink:href="platform__exec_8c.html#aeae00bcf48f5b1eac0fd6e320e966947" target="_top" xlink:title=" ">
<polygon fill="none" stroke="black" points="565,-50 565,-69 643,-69 643,-50 565,-50"/>
<text text-anchor="middle" x="604" y="-57" font-family="Helvetica,sans-Serif" font-size="10.00">platform_exec</text>
</a>
</g>
</g>
<!-- Node4&#45;&gt;Node5 -->
<g id="edge4" class="edge">
<title>Node4&#45;&gt;Node5</title>
<path fill="none" stroke="midnightblue" d="M529.27,-59.5C537.63,-59.5 546.25,-59.5 554.52,-59.5"/>
<polygon fill="midnightblue" stroke="midnightblue" points="554.77,-63 564.77,-59.5 554.77,-56 554.77,-63"/>
</g>
</g>
</svg>
