<?xml version="1.0" encoding="UTF-8" standalone="no"?>
<!DOCTYPE svg PUBLIC "-//W3C//DTD SVG 1.1//EN"
 "http://www.w3.org/Graphics/SVG/1.1/DTD/svg11.dtd">
<!-- Generated by graphviz version 2.43.0 (0)
 -->
<!-- Title: zwave_command_class_thermostat_mode_on_version_attribute_update Pages: 1 -->
<svg width="1318pt" height="281pt"
 viewBox="0.00 0.00 1318.00 280.50" xmlns="http://www.w3.org/2000/svg" xmlns:xlink="http://www.w3.org/1999/xlink">
<g id="graph0" class="graph" transform="scale(1 1) rotate(0) translate(4 276.5)">
<title>zwave_command_class_thermostat_mode_on_version_attribute_update</title>
<!-- Node1 -->
<g id="node1" class="node">
<title>Node1</title>
<g id="a_node1"><a xlink:title=" ">
<polygon fill="#bfbfbf" stroke="black" points="0,-132 0,-173 128,-173 128,-132 0,-132"/>
<text text-anchor="start" x="8" y="-161" font-family="Helvetica,sans-Serif" font-size="10.00">zwave_command_class</text>
<text text-anchor="start" x="8" y="-150" font-family="Helvetica,sans-Serif" font-size="10.00">_thermostat_mode_on</text>
<text text-anchor="middle" x="64" y="-139" font-family="Helvetica,sans-Serif" font-size="10.00">_version_attribute_update</text>
</a>
</g>
</g>
<!-- Node2 -->
<g id="node2" class="node">
<title>Node2</title>
<g id="a_node2"><a xlink:href="group__command__classes__utils.html#gab8c8edb0b4667b409c3ec1e67ae71361" target="_top" xlink:title="function helper function to help Command Classes decide if they should create the supporting node att...">
<polygon fill="none" stroke="black" points="164,-137.5 164,-167.5 298,-167.5 298,-137.5 164,-137.5"/>
<text text-anchor="start" x="172" y="-155.5" font-family="Helvetica,sans-Serif" font-size="10.00">is_zwave_command_class</text>
<text text-anchor="middle" x="231" y="-144.5" font-family="Helvetica,sans-Serif" font-size="10.00">_filtered_for_root_device</text>
</a>
</g>
</g>
<!-- Node1&#45;&gt;Node2 -->
<g id="edge1" class="edge">
<title>Node1&#45;&gt;Node2</title>
<path fill="none" stroke="midnightblue" d="M128.32,-152.5C136.59,-152.5 145.13,-152.5 153.59,-152.5"/>
<polygon fill="midnightblue" stroke="midnightblue" points="153.84,-156 163.84,-152.5 153.84,-149 153.84,-156"/>
</g>
<!-- Node3 -->
<g id="node3" class="node">
<title>Node3</title>
<g id="a_node3"><a xlink:href="group__zpc__attribute__store__network__helpers.html#gacd36836093319f5642cf566d6f26cb61" target="_top" xlink:title="Traverse up the tree from a node and finds under which Z&#45;Wave NodeID/endpoint id it is located.">
<polygon fill="none" stroke="black" points="343.5,-231 343.5,-272 462.5,-272 462.5,-231 343.5,-231"/>
<text text-anchor="start" x="351.5" y="-260" font-family="Helvetica,sans-Serif" font-size="10.00">attribute_store_network</text>
<text text-anchor="start" x="351.5" y="-249" font-family="Helvetica,sans-Serif" font-size="10.00">_helper_get_zwave_ids</text>
<text text-anchor="middle" x="403" y="-238" font-family="Helvetica,sans-Serif" font-size="10.00">_from_node</text>
</a>
</g>
</g>
<!-- Node2&#45;&gt;Node3 -->
<g id="edge2" class="edge">
<title>Node2&#45;&gt;Node3</title>
<path fill="none" stroke="midnightblue" d="M252.02,-167.63C272.11,-182.42 304.25,-205.05 334,-221.5 337.03,-223.17 340.17,-224.83 343.36,-226.44"/>
<polygon fill="midnightblue" stroke="midnightblue" points="341.94,-229.65 352.46,-230.9 345.02,-223.36 341.94,-229.65"/>
</g>
<!-- Node4 -->
<g id="node4" class="node">
<title>Node4</title>
<g id="a_node4"><a xlink:href="group__command__classes__utils.html#gadfa3418577b4f55243888933db59bc0f" target="_top" xlink:title="Verifies if a Command Class is an actuator Command Class.">
<polygon fill="none" stroke="black" points="346.5,-181.5 346.5,-211.5 459.5,-211.5 459.5,-181.5 346.5,-181.5"/>
<text text-anchor="start" x="354.5" y="-199.5" font-family="Helvetica,sans-Serif" font-size="10.00">is_actuator_command</text>
<text text-anchor="middle" x="403" y="-188.5" font-family="Helvetica,sans-Serif" font-size="10.00">_class</text>
</a>
</g>
</g>
<!-- Node2&#45;&gt;Node4 -->
<g id="edge3" class="edge">
<title>Node2&#45;&gt;Node4</title>
<path fill="none" stroke="midnightblue" d="M290.03,-167.52C304.94,-171.38 321.09,-175.56 336.36,-179.51"/>
<polygon fill="midnightblue" stroke="midnightblue" points="335.68,-182.95 346.24,-182.07 337.44,-176.17 335.68,-182.95"/>
</g>
<!-- Node5 -->
<g id="node5" class="node">
<title>Node5</title>
<g id="a_node5"><a xlink:href="group__zwave__command__class__version.html#ga6d1fd9e5a91e2a18487d313684db45b3" target="_top" xlink:title="Checks we know that the version CC is supported by the node.">
<polygon fill="none" stroke="black" points="350,-143 350,-162 456,-162 456,-143 350,-143"/>
<text text-anchor="middle" x="403" y="-150" font-family="Helvetica,sans-Serif" font-size="10.00">is_version_cc_found</text>
</a>
</g>
</g>
<!-- Node2&#45;&gt;Node5 -->
<g id="edge4" class="edge">
<title>Node2&#45;&gt;Node5</title>
<path fill="none" stroke="midnightblue" d="M298.21,-152.5C311.88,-152.5 326.23,-152.5 339.76,-152.5"/>
<polygon fill="midnightblue" stroke="midnightblue" points="339.91,-156 349.91,-152.5 339.91,-149 339.91,-156"/>
</g>
<!-- Node6 -->
<g id="node6" class="node">
<title>Node6</title>
<g id="a_node6"><a xlink:href="group__zwave__utils.html#ga1fb87a67860c11e6e89930eb51fda21f" target="_top" xlink:title="Return the version of a Command Class implemented by a node.">
<polygon fill="none" stroke="black" points="334,-93.5 334,-123.5 472,-123.5 472,-93.5 334,-93.5"/>
<text text-anchor="start" x="342" y="-111.5" font-family="Helvetica,sans-Serif" font-size="10.00">zwave_node_get_command</text>
<text text-anchor="middle" x="403" y="-100.5" font-family="Helvetica,sans-Serif" font-size="10.00">_class_version</text>
</a>
</g>
</g>
<!-- Node2&#45;&gt;Node6 -->
<g id="edge5" class="edge">
<title>Node2&#45;&gt;Node6</title>
<path fill="none" stroke="midnightblue" d="M290.03,-137.48C304.17,-133.82 319.43,-129.87 333.99,-126.1"/>
<polygon fill="midnightblue" stroke="midnightblue" points="335.14,-129.42 343.94,-123.53 333.39,-122.64 335.14,-129.42"/>
</g>
<!-- Node14 -->
<g id="node14" class="node">
<title>Node14</title>
<g id="a_node14"><a xlink:href="group__zwave__utils.html#gaaa5d4e371acabd40b10dcf27edd993ff" target="_top" xlink:title="Verify whether a node/endpoint supports a Command Class using the attribute Store.">
<polygon fill="none" stroke="black" points="517,-49.5 517,-79.5 631,-79.5 631,-49.5 517,-49.5"/>
<text text-anchor="start" x="525" y="-67.5" font-family="Helvetica,sans-Serif" font-size="10.00">zwave_node_supports</text>
<text text-anchor="middle" x="574" y="-56.5" font-family="Helvetica,sans-Serif" font-size="10.00">_command_class</text>
</a>
</g>
</g>
<!-- Node2&#45;&gt;Node14 -->
<g id="edge13" class="edge">
<title>Node2&#45;&gt;Node14</title>
<path fill="none" stroke="midnightblue" d="M248.54,-137.26C267.56,-120.76 300.51,-95.24 334,-83.5 389.93,-63.9 457.57,-60.23 506.6,-60.82"/>
<polygon fill="midnightblue" stroke="midnightblue" points="506.7,-64.33 516.77,-61.01 506.83,-57.33 506.7,-64.33"/>
</g>
<!-- Node7 -->
<g id="node7" class="node">
<title>Node7</title>
<g id="a_node7"><a xlink:href="group__zwave__utils.html#ga6f7851dd2a96668e3a246c0292607579" target="_top" xlink:title="Get endpoint node associated with the ZWave NodeID and Endpoint ID.">
<polygon fill="none" stroke="black" points="508,-99 508,-118 640,-118 640,-99 508,-99"/>
<text text-anchor="middle" x="574" y="-106" font-family="Helvetica,sans-Serif" font-size="10.00">zwave_get_endpoint_node</text>
</a>
</g>
</g>
<!-- Node6&#45;&gt;Node7 -->
<g id="edge6" class="edge">
<title>Node6&#45;&gt;Node7</title>
<path fill="none" stroke="midnightblue" d="M472.25,-108.5C480.59,-108.5 489.14,-108.5 497.58,-108.5"/>
<polygon fill="midnightblue" stroke="midnightblue" points="497.78,-112 507.78,-108.5 497.78,-105 497.78,-112"/>
</g>
<!-- Node8 -->
<g id="node8" class="node">
<title>Node8</title>
<g id="a_node8"><a xlink:href="group__zpc__attribute__store__network__helpers.html#gae4d15b8e0c61c88d94c8f342bd2014fc" target="_top" xlink:title="Take a UNID/endpoint combination and returns its attribute store node.">
<polygon fill="none" stroke="black" points="676,-49.5 676,-79.5 811,-79.5 811,-49.5 676,-49.5"/>
<text text-anchor="start" x="684" y="-67.5" font-family="Helvetica,sans-Serif" font-size="10.00">attribute_store_network</text>
<text text-anchor="middle" x="743.5" y="-56.5" font-family="Helvetica,sans-Serif" font-size="10.00">_helper_get_endpoint_node</text>
</a>
</g>
</g>
<!-- Node7&#45;&gt;Node8 -->
<g id="edge7" class="edge">
<title>Node7&#45;&gt;Node8</title>
<path fill="none" stroke="midnightblue" d="M611.35,-98.95C630.04,-94.04 653.42,-87.9 675.25,-82.17"/>
<polygon fill="midnightblue" stroke="midnightblue" points="676.37,-85.49 685.15,-79.57 674.59,-78.72 676.37,-85.49"/>
</g>
<!-- Node13 -->
<g id="node13" class="node">
<title>Node13</title>
<g id="a_node13"><a xlink:href="group__zwave__unid.html#ga421deceb8a12916f049e4f3446774439" target="_top" xlink:title="Form a UNID.">
<polygon fill="none" stroke="black" points="677.5,-99 677.5,-118 809.5,-118 809.5,-99 677.5,-99"/>
<text text-anchor="middle" x="743.5" y="-106" font-family="Helvetica,sans-Serif" font-size="10.00">zwave_unid_from_node_id</text>
</a>
</g>
</g>
<!-- Node7&#45;&gt;Node13 -->
<g id="edge12" class="edge">
<title>Node7&#45;&gt;Node13</title>
<path fill="none" stroke="midnightblue" d="M640.24,-108.5C649.12,-108.5 658.28,-108.5 667.32,-108.5"/>
<polygon fill="midnightblue" stroke="midnightblue" points="667.44,-112 677.44,-108.5 667.44,-105 667.44,-112"/>
</g>
<!-- Node9 -->
<g id="node9" class="node">
<title>Node9</title>
<g id="a_node9"><a xlink:href="group__zpc__attribute__store__network__helpers.html#gafb993ff484b3c826743c4695d6659cf0" target="_top" xlink:title="Take a UNID and return its attribute store node representing the NodeID.">
<polygon fill="none" stroke="black" points="847,-49.5 847,-79.5 979,-79.5 979,-49.5 847,-49.5"/>
<text text-anchor="start" x="855" y="-67.5" font-family="Helvetica,sans-Serif" font-size="10.00">attribute_store_network</text>
<text text-anchor="middle" x="913" y="-56.5" font-family="Helvetica,sans-Serif" font-size="10.00">_helper_get_node_id_node</text>
</a>
</g>
</g>
<!-- Node8&#45;&gt;Node9 -->
<g id="edge8" class="edge">
<title>Node8&#45;&gt;Node9</title>
<path fill="none" stroke="midnightblue" d="M811.18,-64.5C819.55,-64.5 828.15,-64.5 836.64,-64.5"/>
<polygon fill="midnightblue" stroke="midnightblue" points="836.91,-68 846.91,-64.5 836.91,-61 836.91,-68"/>
</g>
<!-- Node10 -->
<g id="node10" class="node">
<title>Node10</title>
<g id="a_node10"><a xlink:href="group__zpc__attribute__store__network__helpers.html#ga05cb572c96f7dc8e6657f86e135fafed" target="_top" xlink:title="Take a UNID and return its attribute store node representing the HomeID.">
<polygon fill="none" stroke="black" points="1015,-71.5 1015,-101.5 1150,-101.5 1150,-71.5 1015,-71.5"/>
<text text-anchor="start" x="1023" y="-89.5" font-family="Helvetica,sans-Serif" font-size="10.00">attribute_store_network</text>
<text text-anchor="middle" x="1082.5" y="-78.5" font-family="Helvetica,sans-Serif" font-size="10.00">_helper_get_home_id_node</text>
</a>
</g>
</g>
<!-- Node9&#45;&gt;Node10 -->
<g id="edge9" class="edge">
<title>Node9&#45;&gt;Node10</title>
<path fill="none" stroke="midnightblue" d="M979.24,-73.07C987.62,-74.17 996.27,-75.31 1004.82,-76.43"/>
<polygon fill="midnightblue" stroke="midnightblue" points="1004.41,-79.9 1014.78,-77.74 1005.32,-72.96 1004.41,-79.9"/>
</g>
<!-- Node12 -->
<g id="node12" class="node">
<title>Node12</title>
<g id="a_node12"><a xlink:href="group__zwave__unid.html#ga76885767debd174e96e6df00b0a368c3" target="_top" xlink:title="Convert a UNID to a node ID.">
<polygon fill="none" stroke="black" points="1022,-33 1022,-52 1143,-52 1143,-33 1022,-33"/>
<text text-anchor="middle" x="1082.5" y="-40" font-family="Helvetica,sans-Serif" font-size="10.00">zwave_unid_to_node_id</text>
</a>
</g>
</g>
<!-- Node9&#45;&gt;Node12 -->
<g id="edge11" class="edge">
<title>Node9&#45;&gt;Node12</title>
<path fill="none" stroke="midnightblue" d="M979.24,-55.93C989.89,-54.53 1000.96,-53.08 1011.72,-51.67"/>
<polygon fill="midnightblue" stroke="midnightblue" points="1012.45,-55.1 1021.91,-50.33 1011.54,-48.16 1012.45,-55.1"/>
</g>
<!-- Node11 -->
<g id="node11" class="node">
<title>Node11</title>
<g id="a_node11"><a xlink:href="group__zwave__unid.html#ga92f9808a08c2ce1c0a6a9dc2debf3580" target="_top" xlink:title="Convert a UNID to a Home ID.">
<polygon fill="none" stroke="black" points="1186,-77 1186,-96 1310,-96 1310,-77 1186,-77"/>
<text text-anchor="middle" x="1248" y="-84" font-family="Helvetica,sans-Serif" font-size="10.00">zwave_unid_to_home_id</text>
</a>
</g>
</g>
<!-- Node10&#45;&gt;Node11 -->
<g id="edge10" class="edge">
<title>Node10&#45;&gt;Node11</title>
<path fill="none" stroke="midnightblue" d="M1150,-86.5C1158.42,-86.5 1167.07,-86.5 1175.57,-86.5"/>
<polygon fill="midnightblue" stroke="midnightblue" points="1175.83,-90 1185.83,-86.5 1175.83,-83 1175.83,-90"/>
</g>
<!-- Node14&#45;&gt;Node8 -->
<g id="edge14" class="edge">
<title>Node14&#45;&gt;Node8</title>
<path fill="none" stroke="midnightblue" d="M631.24,-64.5C642.34,-64.5 654.17,-64.5 665.81,-64.5"/>
<polygon fill="midnightblue" stroke="midnightblue" points="665.97,-68 675.97,-64.5 665.97,-61 665.97,-68"/>
</g>
<!-- Node14&#45;&gt;Node13 -->
<g id="edge16" class="edge">
<title>Node14&#45;&gt;Node13</title>
<path fill="none" stroke="midnightblue" d="M631.24,-79.27C652.38,-84.83 676.15,-91.07 696.27,-96.36"/>
<polygon fill="midnightblue" stroke="midnightblue" points="695.57,-99.79 706.13,-98.95 697.35,-93.02 695.57,-99.79"/>
</g>
<!-- Node15 -->
<g id="node15" class="node">
<title>Node15</title>
<g id="a_node15"><a xlink:href="group__zwave__controller__utils.html#ga4b9cc899709547a170141ba7e0583e16" target="_top" xlink:title="Verifies if a CC is in a raw array of Command Classes.">
<polygon fill="none" stroke="black" points="687,-0.5 687,-30.5 800,-30.5 800,-0.5 687,-0.5"/>
<text text-anchor="start" x="695" y="-18.5" font-family="Helvetica,sans-Serif" font-size="10.00">is_command_class_in</text>
<text text-anchor="middle" x="743.5" y="-7.5" font-family="Helvetica,sans-Serif" font-size="10.00">_supported_list</text>
</a>
</g>
</g>
<!-- Node14&#45;&gt;Node15 -->
<g id="edge15" class="edge">
<title>Node14&#45;&gt;Node15</title>
<path fill="none" stroke="midnightblue" d="M626.62,-49.4C643.9,-44.34 663.32,-38.66 681.26,-33.42"/>
<polygon fill="midnightblue" stroke="midnightblue" points="682.43,-36.72 691.05,-30.55 680.47,-30 682.43,-36.72"/>
</g>
</g>
</svg>
