<?xml version="1.0" encoding="UTF-8" standalone="no"?>
<!DOCTYPE svg PUBLIC "-//W3C//DTD SVG 1.1//EN"
 "http://www.w3.org/Graphics/SVG/1.1/DTD/svg11.dtd">
<!-- Generated by graphviz version 2.43.0 (0)
 -->
<!-- Title: reset_send_data_settings Pages: 1 -->
<svg width="753pt" height="119pt"
 viewBox="0.00 0.00 753.00 118.65" xmlns="http://www.w3.org/2000/svg" xmlns:xlink="http://www.w3.org/1999/xlink">
<g id="graph0" class="graph" transform="scale(1 1) rotate(0) translate(4 114.65)">
<title>reset_send_data_settings</title>
<!-- Node1 -->
<g id="node1" class="node">
<title>Node1</title>
<g id="a_node1"><a xlink:title="Initializes our array of callback settings by setting everything to NULL.">
<polygon fill="#bfbfbf" stroke="black" points="617,-3.15 617,-22.15 745,-22.15 745,-3.15 617,-3.15"/>
<text text-anchor="middle" x="681" y="-10.15" font-family="Helvetica,sans-Serif" font-size="10.00">reset_send_data_settings</text>
</a>
</g>
</g>
<!-- Node2 -->
<g id="node2" class="node">
<title>Node2</title>
<g id="a_node2"><a xlink:href="group__multi__channel__transport.html#gac2dd449dae4a65aeea0d7f537a0a1124" target="_top" xlink:title="Callback function registered to Z&#45;Wave TX zwave_tx_send_data.">
<polygon fill="none" stroke="black" points="462,-19.65 462,-49.65 581,-49.65 581,-19.65 462,-19.65"/>
<text text-anchor="start" x="470" y="-37.65" font-family="Helvetica,sans-Serif" font-size="10.00">on_multi_channel_send</text>
<text text-anchor="middle" x="521.5" y="-26.65" font-family="Helvetica,sans-Serif" font-size="10.00">_complete</text>
</a>
</g>
</g>
<!-- Node1&#45;&gt;Node2 -->
<g id="edge1" class="edge">
<title>Node1&#45;&gt;Node2</title>
<path fill="none" stroke="midnightblue" d="M606.79,-22.88C598.17,-24.08 589.46,-25.3 581.07,-26.47"/>
<polygon fill="midnightblue" stroke="midnightblue" points="607.43,-26.33 616.85,-21.48 606.46,-19.39 607.43,-26.33"/>
</g>
<!-- Node4 -->
<g id="node4" class="node">
<title>Node4</title>
<g id="a_node4"><a xlink:href="group__zwave__multi__channel__transport.html#ga41f607e54c3aedd8783d43f185df6c0a" target="_top" xlink:title="Initialize the Multi Channel Transport *.">
<polygon fill="none" stroke="black" points="148,-19.65 148,-49.65 258,-49.65 258,-19.65 148,-19.65"/>
<text text-anchor="start" x="156" y="-37.65" font-family="Helvetica,sans-Serif" font-size="10.00">zwave_multi_channel</text>
<text text-anchor="middle" x="203" y="-26.65" font-family="Helvetica,sans-Serif" font-size="10.00">_transport_init</text>
</a>
</g>
</g>
<!-- Node1&#45;&gt;Node4 -->
<g id="edge7" class="edge">
<title>Node1&#45;&gt;Node4</title>
<path fill="none" stroke="midnightblue" d="M606.6,-5.88C528.65,-0.13 402.03,5.07 294,-9.65 279.06,-11.69 263.09,-15.55 248.82,-19.63"/>
<polygon fill="midnightblue" stroke="midnightblue" points="606.56,-9.39 616.8,-6.66 607.1,-2.41 606.56,-9.39"/>
</g>
<!-- Node3 -->
<g id="node3" class="node">
<title>Node3</title>
<g id="a_node3"><a xlink:href="group__multi__channel__transport.html#ga8ad949c643e996faf258815078ecf91d" target="_top" xlink:title=" ">
<polygon fill="none" stroke="black" points="299,-69.15 299,-110.15 421,-110.15 421,-69.15 299,-69.15"/>
<text text-anchor="start" x="307" y="-98.15" font-family="Helvetica,sans-Serif" font-size="10.00">zwave_command_class</text>
<text text-anchor="start" x="307" y="-87.15" font-family="Helvetica,sans-Serif" font-size="10.00">_multi_channel_abort</text>
<text text-anchor="middle" x="360" y="-76.15" font-family="Helvetica,sans-Serif" font-size="10.00">_send_data</text>
</a>
</g>
</g>
<!-- Node2&#45;&gt;Node3 -->
<g id="edge2" class="edge">
<title>Node2&#45;&gt;Node3</title>
<path fill="none" stroke="midnightblue" d="M467.31,-52.99C452.35,-58.15 435.99,-63.8 420.68,-69.08"/>
<polygon fill="midnightblue" stroke="midnightblue" points="468.6,-56.25 476.92,-49.68 466.32,-49.63 468.6,-56.25"/>
</g>
<!-- Node6 -->
<g id="node6" class="node">
<title>Node6</title>
<g id="a_node6"><a xlink:href="group__multi__channel__transport.html#gadbc0fe6c66a35dcf6c060b166137d3e2" target="_top" xlink:title="Encapsulates with Multi Channel and send a frame to the Z&#45;Wave TX queue.">
<polygon fill="none" stroke="black" points="294,-19.65 294,-49.65 426,-49.65 426,-19.65 294,-19.65"/>
<text text-anchor="start" x="302" y="-37.65" font-family="Helvetica,sans-Serif" font-size="10.00">zwave_command_class</text>
<text text-anchor="middle" x="360" y="-26.65" font-family="Helvetica,sans-Serif" font-size="10.00">_multi_channel_send_data</text>
</a>
</g>
</g>
<!-- Node2&#45;&gt;Node6 -->
<g id="edge5" class="edge">
<title>Node2&#45;&gt;Node6</title>
<path fill="none" stroke="midnightblue" d="M451.43,-34.65C443.03,-34.65 434.47,-34.65 426.14,-34.65"/>
<polygon fill="midnightblue" stroke="midnightblue" points="451.56,-38.15 461.56,-34.65 451.56,-31.15 451.56,-38.15"/>
</g>
<!-- Node3&#45;&gt;Node4 -->
<g id="edge3" class="edge">
<title>Node3&#45;&gt;Node4</title>
<path fill="none" stroke="midnightblue" d="M291,-65.52C275.87,-60.16 260.26,-54.62 246.5,-49.74"/>
<polygon fill="midnightblue" stroke="midnightblue" points="290.25,-68.97 300.84,-69.02 292.59,-62.38 290.25,-68.97"/>
</g>
<!-- Node5 -->
<g id="node5" class="node">
<title>Node5</title>
<g id="a_node5"><a xlink:href="group__zwave__transports__fixt.html#ga26fb2571e272a5094bd0320eca3a896d" target="_top" xlink:title="Setup fixture for Z&#45;Wave Transports.">
<polygon fill="none" stroke="black" points="0,-25.15 0,-44.15 112,-44.15 112,-25.15 0,-25.15"/>
<text text-anchor="middle" x="56" y="-32.15" font-family="Helvetica,sans-Serif" font-size="10.00">zwave_transports_init</text>
</a>
</g>
</g>
<!-- Node4&#45;&gt;Node5 -->
<g id="edge4" class="edge">
<title>Node4&#45;&gt;Node5</title>
<path fill="none" stroke="midnightblue" d="M137.43,-34.65C129.01,-34.65 120.44,-34.65 112.19,-34.65"/>
<polygon fill="midnightblue" stroke="midnightblue" points="137.59,-38.15 147.59,-34.65 137.59,-31.15 137.59,-38.15"/>
</g>
<!-- Node6&#45;&gt;Node4 -->
<g id="edge6" class="edge">
<title>Node6&#45;&gt;Node4</title>
<path fill="none" stroke="midnightblue" d="M283.46,-34.65C275.01,-34.65 266.54,-34.65 258.43,-34.65"/>
<polygon fill="midnightblue" stroke="midnightblue" points="283.72,-38.15 293.72,-34.65 283.72,-31.15 283.72,-38.15"/>
</g>
</g>
</svg>
