<?xml version="1.0" encoding="UTF-8" standalone="no"?>
<!DOCTYPE svg PUBLIC "-//W3C//DTD SVG 1.1//EN"
 "http://www.w3.org/Graphics/SVG/1.1/DTD/svg11.dtd">
<!-- Generated by graphviz version 2.43.0 (0)
 -->
<!-- Title: applications/zpc/components/zwave_command_classes/include/zwave_command_class_firmware_update.h Pages: 1 -->
<svg width="1212pt" height="419pt"
 viewBox="0.00 0.00 1212.00 419.00" xmlns="http://www.w3.org/2000/svg" xmlns:xlink="http://www.w3.org/1999/xlink">
<g id="graph0" class="graph" transform="scale(1 1) rotate(0) translate(4 415)">
<title>applications/zpc/components/zwave_command_classes/include/zwave_command_class_firmware_update.h</title>
<!-- Node1 -->
<g id="node1" class="node">
<title>Node1</title>
<g id="a_node1"><a xlink:title=" ">
<polygon fill="#bfbfbf" stroke="black" points="833,-358.5 833,-410.5 1002,-410.5 1002,-358.5 833,-358.5"/>
<text text-anchor="start" x="841" y="-398.5" font-family="Helvetica,sans-Serif" font-size="10.00">applications/zpc/components</text>
<text text-anchor="start" x="841" y="-387.5" font-family="Helvetica,sans-Serif" font-size="10.00">/zwave_command_classes/include</text>
<text text-anchor="start" x="841" y="-376.5" font-family="Helvetica,sans-Serif" font-size="10.00">/zwave_command_class_firmware</text>
<text text-anchor="middle" x="917.5" y="-365.5" font-family="Helvetica,sans-Serif" font-size="10.00">_update.h</text>
</a>
</g>
</g>
<!-- Node2 -->
<g id="node2" class="node">
<title>Node2</title>
<g id="a_node2"><a xlink:href="sl__status_8h.html" target="_top" xlink:title="SL Status Codes.">
<polygon fill="none" stroke="black" points="0,-241 0,-260 65,-260 65,-241 0,-241"/>
<text text-anchor="middle" x="32.5" y="-248" font-family="Helvetica,sans-Serif" font-size="10.00">sl_status.h</text>
</a>
</g>
</g>
<!-- Node1&#45;&gt;Node2 -->
<g id="edge1" class="edge">
<title>Node1&#45;&gt;Node2</title>
<path fill="none" stroke="midnightblue" d="M832.74,-377.16C679.63,-364.5 347.51,-331.5 74.5,-266 71.27,-265.23 67.95,-264.3 64.64,-263.3"/>
<polygon fill="midnightblue" stroke="midnightblue" points="65.52,-259.91 54.93,-260.14 63.36,-266.56 65.52,-259.91"/>
</g>
<!-- Node4 -->
<g id="node4" class="node">
<title>Node4</title>
<g id="a_node4"><a xlink:href="zwave__utils_8h.html" target="_top" xlink:title="Various Z&#45;Wave related utilities.">
<polygon fill="none" stroke="black" points="526,-302.5 526,-321.5 603,-321.5 603,-302.5 526,-302.5"/>
<text text-anchor="middle" x="564.5" y="-309.5" font-family="Helvetica,sans-Serif" font-size="10.00">zwave_utils.h</text>
</a>
</g>
</g>
<!-- Node1&#45;&gt;Node4 -->
<g id="edge3" class="edge">
<title>Node1&#45;&gt;Node4</title>
<path fill="none" stroke="midnightblue" d="M832.95,-366.61C764.4,-352.92 670.17,-334.1 613.52,-322.79"/>
<polygon fill="midnightblue" stroke="midnightblue" points="613.88,-319.29 603.39,-320.77 612.51,-326.16 613.88,-319.29"/>
</g>
<!-- Node9 -->
<g id="node9" class="node">
<title>Node9</title>
<g id="a_node9"><a xlink:href="zwave__controller__connection__info_8h.html" target="_top" xlink:title=" ">
<polygon fill="none" stroke="black" points="846,-168.5 846,-198.5 989,-198.5 989,-168.5 846,-168.5"/>
<text text-anchor="start" x="854" y="-186.5" font-family="Helvetica,sans-Serif" font-size="10.00">zwave_controller_connection</text>
<text text-anchor="middle" x="917.5" y="-175.5" font-family="Helvetica,sans-Serif" font-size="10.00">_info.h</text>
</a>
</g>
</g>
<!-- Node1&#45;&gt;Node9 -->
<g id="edge32" class="edge">
<title>Node1&#45;&gt;Node9</title>
<path fill="none" stroke="midnightblue" d="M917.5,-358.3C917.5,-319.84 917.5,-246.98 917.5,-208.97"/>
<polygon fill="midnightblue" stroke="midnightblue" points="921,-208.8 917.5,-198.8 914,-208.8 921,-208.8"/>
</g>
<!-- Node10 -->
<g id="node10" class="node">
<title>Node10</title>
<g id="a_node10"><a xlink:href="zwave__controller__types_8h.html" target="_top" xlink:title=" ">
<polygon fill="none" stroke="black" points="854.5,-112.5 854.5,-131.5 982.5,-131.5 982.5,-112.5 854.5,-112.5"/>
<text text-anchor="middle" x="918.5" y="-119.5" font-family="Helvetica,sans-Serif" font-size="10.00">zwave_controller_types.h</text>
</a>
</g>
</g>
<!-- Node1&#45;&gt;Node10 -->
<g id="edge31" class="edge">
<title>Node1&#45;&gt;Node10</title>
<path fill="none" stroke="midnightblue" d="M932.58,-358.36C952.31,-323.87 985.86,-259.26 998.5,-199 1001.33,-185.52 1005.46,-179.89 998.5,-168 989.64,-152.85 973.59,-142.41 958.19,-135.42"/>
<polygon fill="midnightblue" stroke="midnightblue" points="959.33,-132.11 948.75,-131.51 956.65,-138.57 959.33,-132.11"/>
</g>
<!-- Node20 -->
<g id="node20" class="node">
<title>Node20</title>
<g id="a_node20"><a xlink:title=" ">
<polygon fill="none" stroke="#bfbfbf" points="1129,-302.5 1129,-321.5 1204,-321.5 1204,-302.5 1129,-302.5"/>
<text text-anchor="middle" x="1166.5" y="-309.5" font-family="Helvetica,sans-Serif" font-size="10.00">contiki&#45;conf.h</text>
</a>
</g>
</g>
<!-- Node1&#45;&gt;Node20 -->
<g id="edge33" class="edge">
<title>Node1&#45;&gt;Node20</title>
<path fill="none" stroke="midnightblue" d="M1002.15,-359.53C1044.18,-347.63 1093,-333.81 1126.44,-324.34"/>
<polygon fill="midnightblue" stroke="midnightblue" points="1127.63,-327.64 1136.3,-321.55 1125.72,-320.91 1127.63,-327.64"/>
</g>
<!-- Node3 -->
<g id="node3" class="node">
<title>Node3</title>
<g id="a_node3"><a xlink:title=" ">
<polygon fill="none" stroke="#bfbfbf" points="608,-0.5 608,-19.5 657,-19.5 657,-0.5 608,-0.5"/>
<text text-anchor="middle" x="632.5" y="-7.5" font-family="Helvetica,sans-Serif" font-size="10.00">stdint.h</text>
</a>
</g>
</g>
<!-- Node2&#45;&gt;Node3 -->
<g id="edge2" class="edge">
<title>Node2&#45;&gt;Node3</title>
<path fill="none" stroke="midnightblue" d="M30.69,-240.64C27.89,-224.16 24.53,-188.64 42.5,-168 117.34,-82.05 482.74,-29.72 597.76,-15.17"/>
<polygon fill="midnightblue" stroke="midnightblue" points="598.3,-18.63 607.79,-13.92 597.43,-11.69 598.3,-18.63"/>
</g>
<!-- Node4&#45;&gt;Node2 -->
<g id="edge6" class="edge">
<title>Node4&#45;&gt;Node2</title>
<path fill="none" stroke="midnightblue" d="M525.91,-310.6C442.55,-309.05 239.86,-301.59 74.5,-266 71,-265.25 67.39,-264.29 63.82,-263.23"/>
<polygon fill="midnightblue" stroke="midnightblue" points="64.61,-259.8 54.02,-260.04 62.44,-266.46 64.61,-259.8"/>
</g>
<!-- Node4&#45;&gt;Node3 -->
<g id="edge4" class="edge">
<title>Node4&#45;&gt;Node3</title>
<path fill="none" stroke="midnightblue" d="M563.51,-302.47C559.99,-268.86 550.64,-143.25 595.5,-56 600.91,-45.48 609.1,-35.17 616.41,-27.09"/>
<polygon fill="midnightblue" stroke="midnightblue" points="618.95,-29.49 623.28,-19.81 613.87,-24.68 618.95,-29.49"/>
</g>
<!-- Node5 -->
<g id="node5" class="node">
<title>Node5</title>
<g id="a_node5"><a xlink:title=" ">
<polygon fill="none" stroke="#bfbfbf" points="1042.5,-0.5 1042.5,-19.5 1098.5,-19.5 1098.5,-0.5 1042.5,-0.5"/>
<text text-anchor="middle" x="1070.5" y="-7.5" font-family="Helvetica,sans-Serif" font-size="10.00">stdbool.h</text>
</a>
</g>
</g>
<!-- Node4&#45;&gt;Node5 -->
<g id="edge5" class="edge">
<title>Node4&#45;&gt;Node5</title>
<path fill="none" stroke="midnightblue" d="M603.14,-311.33C685.21,-310.03 879.14,-296.12 998.5,-199 1047.64,-159.02 1053.92,-137.14 1070.5,-76 1074.61,-60.84 1074.25,-42.94 1073.07,-29.77"/>
<polygon fill="midnightblue" stroke="midnightblue" points="1076.52,-29.14 1071.91,-19.6 1069.56,-29.93 1076.52,-29.14"/>
</g>
<!-- Node6 -->
<g id="node6" class="node">
<title>Node6</title>
<g id="a_node6"><a xlink:href="zwave__generic__types_8h.html" target="_top" xlink:title=" ">
<polygon fill="none" stroke="black" points="771,-56.5 771,-75.5 890,-75.5 890,-56.5 771,-56.5"/>
<text text-anchor="middle" x="830.5" y="-63.5" font-family="Helvetica,sans-Serif" font-size="10.00">zwave_generic_types.h</text>
</a>
</g>
</g>
<!-- Node4&#45;&gt;Node6 -->
<g id="edge7" class="edge">
<title>Node4&#45;&gt;Node6</title>
<path fill="none" stroke="midnightblue" d="M603.01,-307.48C656.67,-301.81 750.1,-288.9 774.5,-266 826.18,-217.49 831.45,-125.38 831.16,-85.82"/>
<polygon fill="midnightblue" stroke="midnightblue" points="834.66,-85.66 830.95,-75.74 827.66,-85.81 834.66,-85.66"/>
</g>
<!-- Node7 -->
<g id="node7" class="node">
<title>Node7</title>
<g id="a_node7"><a xlink:href="zwave__node__id__definitions_8h.html" target="_top" xlink:title=" ">
<polygon fill="none" stroke="black" points="610.5,-56.5 610.5,-75.5 752.5,-75.5 752.5,-56.5 610.5,-56.5"/>
<text text-anchor="middle" x="681.5" y="-63.5" font-family="Helvetica,sans-Serif" font-size="10.00">zwave_node_id_definitions.h</text>
</a>
</g>
</g>
<!-- Node4&#45;&gt;Node7 -->
<g id="edge9" class="edge">
<title>Node4&#45;&gt;Node7</title>
<path fill="none" stroke="midnightblue" d="M603.15,-307.42C653.13,-301.89 736,-289.4 754.5,-266 799.94,-208.55 730.59,-120.13 697.48,-83.64"/>
<polygon fill="midnightblue" stroke="midnightblue" points="699.66,-80.85 690.29,-75.9 694.54,-85.61 699.66,-80.85"/>
</g>
<!-- Node8 -->
<g id="node8" class="node">
<title>Node8</title>
<g id="a_node8"><a xlink:href="zwave__controller__keyset_8h.html" target="_top" xlink:title=" ">
<polygon fill="none" stroke="black" points="612,-241 612,-260 745,-260 745,-241 612,-241"/>
<text text-anchor="middle" x="678.5" y="-248" font-family="Helvetica,sans-Serif" font-size="10.00">zwave_controller_keyset.h</text>
</a>
</g>
</g>
<!-- Node4&#45;&gt;Node8 -->
<g id="edge11" class="edge">
<title>Node4&#45;&gt;Node8</title>
<path fill="none" stroke="midnightblue" d="M580.83,-302.48C599.71,-292.62 631.01,-276.29 653.08,-264.77"/>
<polygon fill="midnightblue" stroke="midnightblue" points="654.95,-267.74 662.2,-260.01 651.71,-261.53 654.95,-267.74"/>
</g>
<!-- Node12 -->
<g id="node12" class="node">
<title>Node12</title>
<g id="a_node12"><a xlink:href="zwave__keyset__definitions_8h.html" target="_top" xlink:title=" ">
<polygon fill="none" stroke="black" points="574,-174 574,-193 711,-193 711,-174 574,-174"/>
<text text-anchor="middle" x="642.5" y="-181" font-family="Helvetica,sans-Serif" font-size="10.00">zwave_keyset_definitions.h</text>
</a>
</g>
</g>
<!-- Node4&#45;&gt;Node12 -->
<g id="edge22" class="edge">
<title>Node4&#45;&gt;Node12</title>
<path fill="none" stroke="midnightblue" d="M568.34,-302.28C574.82,-287.85 588.71,-258.28 603.5,-235 611.05,-223.12 620.71,-210.58 628.53,-200.98"/>
<polygon fill="midnightblue" stroke="midnightblue" points="631.39,-203.01 635.08,-193.08 626.01,-198.54 631.39,-203.01"/>
</g>
<!-- Node13 -->
<g id="node13" class="node">
<title>Node13</title>
<g id="a_node13"><a xlink:href="zwave__command__class__version__types_8h.html" target="_top" xlink:title=" ">
<polygon fill="none" stroke="black" points="83.5,-235.5 83.5,-265.5 205.5,-265.5 205.5,-235.5 83.5,-235.5"/>
<text text-anchor="start" x="91.5" y="-253.5" font-family="Helvetica,sans-Serif" font-size="10.00">zwave_command_class</text>
<text text-anchor="middle" x="144.5" y="-242.5" font-family="Helvetica,sans-Serif" font-size="10.00">_version_types.h</text>
</a>
</g>
</g>
<!-- Node4&#45;&gt;Node13 -->
<g id="edge23" class="edge">
<title>Node4&#45;&gt;Node13</title>
<path fill="none" stroke="midnightblue" d="M525.77,-307C462.85,-300.29 334.31,-285.69 215.53,-266.09"/>
<polygon fill="midnightblue" stroke="midnightblue" points="215.97,-262.62 205.53,-264.43 214.82,-269.52 215.97,-262.62"/>
</g>
<!-- Node14 -->
<g id="node14" class="node">
<title>Node14</title>
<g id="a_node14"><a xlink:href="zwave__command__class__wake__up__types_8h.html" target="_top" xlink:title=" ">
<polygon fill="none" stroke="black" points="223.5,-235.5 223.5,-265.5 345.5,-265.5 345.5,-235.5 223.5,-235.5"/>
<text text-anchor="start" x="231.5" y="-253.5" font-family="Helvetica,sans-Serif" font-size="10.00">zwave_command_class</text>
<text text-anchor="middle" x="284.5" y="-242.5" font-family="Helvetica,sans-Serif" font-size="10.00">_wake_up_types.h</text>
</a>
</g>
</g>
<!-- Node4&#45;&gt;Node14 -->
<g id="edge24" class="edge">
<title>Node4&#45;&gt;Node14</title>
<path fill="none" stroke="midnightblue" d="M525.86,-302.79C482.01,-293.47 409.56,-278.07 355.46,-266.58"/>
<polygon fill="midnightblue" stroke="midnightblue" points="356.09,-263.13 345.58,-264.48 354.63,-269.98 356.09,-263.13"/>
</g>
<!-- Node15 -->
<g id="node15" class="node">
<title>Node15</title>
<g id="a_node15"><a xlink:href="attribute__store__defined__attribute__types_8h.html" target="_top" xlink:title=" ">
<polygon fill="none" stroke="black" points="363.5,-235.5 363.5,-265.5 479.5,-265.5 479.5,-235.5 363.5,-235.5"/>
<text text-anchor="start" x="371.5" y="-253.5" font-family="Helvetica,sans-Serif" font-size="10.00">attribute_store_defined</text>
<text text-anchor="middle" x="421.5" y="-242.5" font-family="Helvetica,sans-Serif" font-size="10.00">_attribute_types.h</text>
</a>
</g>
</g>
<!-- Node4&#45;&gt;Node15 -->
<g id="edge25" class="edge">
<title>Node4&#45;&gt;Node15</title>
<path fill="none" stroke="midnightblue" d="M544.01,-302.48C523.38,-293.89 490.92,-280.38 464.59,-269.43"/>
<polygon fill="midnightblue" stroke="midnightblue" points="465.78,-266.13 455.2,-265.52 463.09,-272.6 465.78,-266.13"/>
</g>
<!-- Node17 -->
<g id="node17" class="node">
<title>Node17</title>
<g id="a_node17"><a xlink:title=" ">
<polygon fill="none" stroke="#bfbfbf" points="430,-174 430,-193 517,-193 517,-174 430,-174"/>
<text text-anchor="middle" x="473.5" y="-181" font-family="Helvetica,sans-Serif" font-size="10.00">attribute_store.h</text>
</a>
</g>
</g>
<!-- Node4&#45;&gt;Node17 -->
<g id="edge30" class="edge">
<title>Node4&#45;&gt;Node17</title>
<path fill="none" stroke="midnightblue" d="M558.14,-302.4C551.46,-293.36 540.69,-278.72 531.5,-266 515.52,-243.88 497.3,-218.2 485.61,-201.67"/>
<polygon fill="midnightblue" stroke="midnightblue" points="488.18,-199.24 479.56,-193.09 482.47,-203.28 488.18,-199.24"/>
</g>
<!-- Node6&#45;&gt;Node3 -->
<g id="edge8" class="edge">
<title>Node6&#45;&gt;Node3</title>
<path fill="none" stroke="midnightblue" d="M799.13,-56.44C763.14,-46.63 704.33,-30.59 667.06,-20.43"/>
<polygon fill="midnightblue" stroke="midnightblue" points="667.73,-16.98 657.16,-17.73 665.89,-23.73 667.73,-16.98"/>
</g>
<!-- Node7&#45;&gt;Node3 -->
<g id="edge10" class="edge">
<title>Node7&#45;&gt;Node3</title>
<path fill="none" stroke="midnightblue" d="M673.41,-56.08C666.34,-48.3 655.91,-36.8 647.35,-27.37"/>
<polygon fill="midnightblue" stroke="midnightblue" points="649.75,-24.8 640.44,-19.75 644.57,-29.51 649.75,-24.8"/>
</g>
<!-- Node8&#45;&gt;Node9 -->
<g id="edge12" class="edge">
<title>Node8&#45;&gt;Node9</title>
<path fill="none" stroke="midnightblue" d="M710.24,-240.87C747.34,-230.78 809.61,-213.84 856.22,-201.16"/>
<polygon fill="midnightblue" stroke="midnightblue" points="857.19,-204.53 865.92,-198.53 855.35,-197.78 857.19,-204.53"/>
</g>
<!-- Node8&#45;&gt;Node12 -->
<g id="edge20" class="edge">
<title>Node8&#45;&gt;Node12</title>
<path fill="none" stroke="midnightblue" d="M673.64,-240.73C668.19,-230.89 659.2,-214.66 652.28,-202.16"/>
<polygon fill="midnightblue" stroke="midnightblue" points="655.19,-200.18 647.28,-193.13 649.06,-203.57 655.19,-200.18"/>
</g>
<!-- Node9&#45;&gt;Node10 -->
<g id="edge13" class="edge">
<title>Node9&#45;&gt;Node10</title>
<path fill="none" stroke="midnightblue" d="M917.74,-168.4C917.87,-160.47 918.04,-150.46 918.18,-141.86"/>
<polygon fill="midnightblue" stroke="midnightblue" points="921.69,-141.72 918.35,-131.66 914.69,-141.6 921.69,-141.72"/>
</g>
<!-- Node10&#45;&gt;Node3 -->
<g id="edge15" class="edge">
<title>Node10&#45;&gt;Node3</title>
<path fill="none" stroke="midnightblue" d="M918.68,-112.34C918.47,-98.26 915.84,-70.53 899.5,-56 865.64,-25.9 731.38,-15.61 667.12,-12.37"/>
<polygon fill="midnightblue" stroke="midnightblue" points="667.23,-8.87 657.07,-11.89 666.89,-15.86 667.23,-8.87"/>
</g>
<!-- Node10&#45;&gt;Node5 -->
<g id="edge14" class="edge">
<title>Node10&#45;&gt;Node5</title>
<path fill="none" stroke="midnightblue" d="M981.51,-112.5C1006.27,-106.18 1033.11,-95.18 1051.5,-76 1063.31,-63.68 1067.84,-44.43 1069.54,-30.07"/>
<polygon fill="midnightblue" stroke="midnightblue" points="1073.05,-30.08 1070.39,-19.83 1066.08,-29.51 1073.05,-30.08"/>
</g>
<!-- Node10&#45;&gt;Node6 -->
<g id="edge17" class="edge">
<title>Node10&#45;&gt;Node6</title>
<path fill="none" stroke="midnightblue" d="M904.36,-112.32C890.63,-103.9 869.56,-90.97 853.44,-81.07"/>
<polygon fill="midnightblue" stroke="midnightblue" points="854.96,-77.9 844.6,-75.65 851.3,-83.87 854.96,-77.9"/>
</g>
<!-- Node10&#45;&gt;Node7 -->
<g id="edge16" class="edge">
<title>Node10&#45;&gt;Node7</title>
<path fill="none" stroke="midnightblue" d="M880.95,-112.44C839.69,-103.04 773.36,-87.93 728.63,-77.74"/>
<polygon fill="midnightblue" stroke="midnightblue" points="729.41,-74.33 718.88,-75.52 727.85,-81.15 729.41,-74.33"/>
</g>
<!-- Node11 -->
<g id="node11" class="node">
<title>Node11</title>
<g id="a_node11"><a xlink:href="zwave__rf__region_8h.html" target="_top" xlink:title=" ">
<polygon fill="none" stroke="black" points="946.5,-56.5 946.5,-75.5 1042.5,-75.5 1042.5,-56.5 946.5,-56.5"/>
<text text-anchor="middle" x="994.5" y="-63.5" font-family="Helvetica,sans-Serif" font-size="10.00">zwave_rf_region.h</text>
</a>
</g>
</g>
<!-- Node10&#45;&gt;Node11 -->
<g id="edge18" class="edge">
<title>Node10&#45;&gt;Node11</title>
<path fill="none" stroke="midnightblue" d="M930.71,-112.32C942.28,-104.11 959.88,-91.6 973.66,-81.81"/>
<polygon fill="midnightblue" stroke="midnightblue" points="975.94,-84.48 982.07,-75.83 971.89,-78.77 975.94,-84.48"/>
</g>
<!-- Node11&#45;&gt;Node5 -->
<g id="edge19" class="edge">
<title>Node11&#45;&gt;Node5</title>
<path fill="none" stroke="midnightblue" d="M1006.71,-56.32C1018.28,-48.11 1035.88,-35.6 1049.66,-25.81"/>
<polygon fill="midnightblue" stroke="midnightblue" points="1051.94,-28.48 1058.07,-19.83 1047.89,-22.77 1051.94,-28.48"/>
</g>
<!-- Node12&#45;&gt;Node3 -->
<g id="edge21" class="edge">
<title>Node12&#45;&gt;Node3</title>
<path fill="none" stroke="midnightblue" d="M637.97,-173.98C628.86,-156.32 608.6,-114.18 601.5,-76 599.88,-67.26 598.86,-64.49 601.5,-56 604.73,-45.62 611.28,-35.52 617.52,-27.53"/>
<polygon fill="midnightblue" stroke="midnightblue" points="620.29,-29.68 624.02,-19.77 614.92,-25.19 620.29,-29.68"/>
</g>
<!-- Node16 -->
<g id="node16" class="node">
<title>Node16</title>
<g id="a_node16"><a xlink:title=" ">
<polygon fill="none" stroke="#bfbfbf" points="323.5,-174 323.5,-193 411.5,-193 411.5,-174 323.5,-174"/>
<text text-anchor="middle" x="367.5" y="-181" font-family="Helvetica,sans-Serif" font-size="10.00">ZW_classcmd.h</text>
</a>
</g>
</g>
<!-- Node15&#45;&gt;Node16 -->
<g id="edge26" class="edge">
<title>Node15&#45;&gt;Node16</title>
<path fill="none" stroke="midnightblue" d="M409.78,-235.4C401.36,-225.26 389.99,-211.57 381.16,-200.94"/>
<polygon fill="midnightblue" stroke="midnightblue" points="383.81,-198.65 374.72,-193.19 378.42,-203.12 383.81,-198.65"/>
</g>
<!-- Node15&#45;&gt;Node17 -->
<g id="edge27" class="edge">
<title>Node15&#45;&gt;Node17</title>
<path fill="none" stroke="midnightblue" d="M432.78,-235.4C440.81,-225.36 451.63,-211.84 460.1,-201.25"/>
<polygon fill="midnightblue" stroke="midnightblue" points="463.03,-203.19 466.54,-193.19 457.56,-198.82 463.03,-203.19"/>
</g>
<!-- Node18 -->
<g id="node18" class="node">
<title>Node18</title>
<g id="a_node18"><a xlink:title=" ">
<polygon fill="none" stroke="#bfbfbf" points="51.5,-174 51.5,-193 179.5,-193 179.5,-174 51.5,-174"/>
<text text-anchor="middle" x="115.5" y="-181" font-family="Helvetica,sans-Serif" font-size="10.00">uic_attribute_definitions.h</text>
</a>
</g>
</g>
<!-- Node15&#45;&gt;Node18 -->
<g id="edge28" class="edge">
<title>Node15&#45;&gt;Node18</title>
<path fill="none" stroke="midnightblue" d="M363.4,-236.91C360.39,-236.26 357.41,-235.62 354.5,-235 289.45,-221.09 214.4,-205.27 166.02,-195.1"/>
<polygon fill="midnightblue" stroke="midnightblue" points="166.62,-191.65 156.11,-193.02 165.18,-198.5 166.62,-191.65"/>
</g>
<!-- Node19 -->
<g id="node19" class="node">
<title>Node19</title>
<g id="a_node19"><a xlink:title=" ">
<polygon fill="none" stroke="#bfbfbf" points="198,-168.5 198,-198.5 305,-198.5 305,-168.5 198,-168.5"/>
<text text-anchor="start" x="206" y="-186.5" font-family="Helvetica,sans-Serif" font-size="10.00">unify_dotdot_defined</text>
<text text-anchor="middle" x="251.5" y="-175.5" font-family="Helvetica,sans-Serif" font-size="10.00">_attribute_types.h</text>
</a>
</g>
</g>
<!-- Node15&#45;&gt;Node19 -->
<g id="edge29" class="edge">
<title>Node15&#45;&gt;Node19</title>
<path fill="none" stroke="midnightblue" d="M384.61,-235.4C359.11,-225.64 324.98,-212.59 297.67,-202.15"/>
<polygon fill="midnightblue" stroke="midnightblue" points="298.91,-198.88 288.32,-198.58 296.41,-205.42 298.91,-198.88"/>
</g>
</g>
</svg>
