<?xml version="1.0" encoding="UTF-8" standalone="no"?>
<!DOCTYPE svg PUBLIC "-//W3C//DTD SVG 1.1//EN"
 "http://www.w3.org/Graphics/SVG/1.1/DTD/svg11.dtd">
<!-- Generated by graphviz version 2.43.0 (0)
 -->
<!-- Title: s0_register_nonce Pages: 1 -->
<svg width="852pt" height="327pt"
 viewBox="0.00 0.00 852.00 327.00" xmlns="http://www.w3.org/2000/svg" xmlns:xlink="http://www.w3.org/1999/xlink">
<g id="graph0" class="graph" transform="scale(1 1) rotate(0) translate(4 323)">
<title>s0_register_nonce</title>
<!-- Node1 -->
<g id="node1" class="node">
<title>Node1</title>
<g id="a_node1"><a xlink:title=" ">
<polygon fill="#bfbfbf" stroke="black" points="0,-223.5 0,-242.5 96,-242.5 96,-223.5 0,-223.5"/>
<text text-anchor="middle" x="48" y="-230.5" font-family="Helvetica,sans-Serif" font-size="10.00">s0_register_nonce</text>
</a>
</g>
</g>
<!-- Node2 -->
<g id="node2" class="node">
<title>Node2</title>
<g id="a_node2"><a xlink:href="zwave__s0__transport_8c.html#ae93eb9dcc0a79cf781c4d6143ae54570" target="_top" xlink:title=" ">
<polygon fill="none" stroke="black" points="132,-299.5 132,-318.5 257,-318.5 257,-299.5 132,-299.5"/>
<text text-anchor="middle" x="194.5" y="-306.5" font-family="Helvetica,sans-Serif" font-size="10.00">get_tx_session_by_node</text>
</a>
</g>
</g>
<!-- Node1&#45;&gt;Node2 -->
<g id="edge1" class="edge">
<title>Node1&#45;&gt;Node2</title>
<path fill="none" stroke="midnightblue" d="M62.63,-242.66C78.71,-253.78 106.48,-272.17 132,-285 139.73,-288.89 148.24,-292.57 156.41,-295.82"/>
<polygon fill="midnightblue" stroke="midnightblue" points="155.18,-299.1 165.77,-299.44 157.71,-292.57 155.18,-299.1"/>
</g>
<!-- Node3 -->
<g id="node3" class="node">
<title>Node3</title>
<g id="a_node3"><a xlink:href="zwave__s0__transport_8c.html#a804b1de1ad94923895000f9f239341e0" target="_top" xlink:title=" ">
<polygon fill="none" stroke="black" points="471,-266.5 471,-285.5 551,-285.5 551,-266.5 471,-266.5"/>
<text text-anchor="middle" x="511" y="-273.5" font-family="Helvetica,sans-Serif" font-size="10.00">register_nonce</text>
</a>
</g>
</g>
<!-- Node1&#45;&gt;Node3 -->
<g id="edge2" class="edge">
<title>Node1&#45;&gt;Node3</title>
<path fill="none" stroke="midnightblue" d="M84.71,-242.51C99.28,-246.03 116.35,-249.73 132,-252 249.07,-269 388.27,-273.96 460.69,-275.41"/>
<polygon fill="midnightblue" stroke="midnightblue" points="460.81,-278.91 470.88,-275.59 460.94,-271.91 460.81,-278.91"/>
</g>
<!-- Node6 -->
<g id="node6" class="node">
<title>Node6</title>
<g id="a_node6"><a xlink:href="zwave__s0__transport_8c.html#a99af3fdea5148c3e041a2a186c7f8a1b" target="_top" xlink:title=" ">
<polygon fill="none" stroke="black" points="151,-223.5 151,-242.5 238,-242.5 238,-223.5 151,-223.5"/>
<text text-anchor="middle" x="194.5" y="-230.5" font-family="Helvetica,sans-Serif" font-size="10.00">s0_block_nonce</text>
</a>
</g>
</g>
<!-- Node1&#45;&gt;Node6 -->
<g id="edge6" class="edge">
<title>Node1&#45;&gt;Node6</title>
<path fill="none" stroke="midnightblue" d="M96.31,-233C110.49,-233 126.12,-233 140.63,-233"/>
<polygon fill="midnightblue" stroke="midnightblue" points="140.96,-236.5 150.96,-233 140.96,-229.5 140.96,-236.5"/>
</g>
<!-- Node7 -->
<g id="node7" class="node">
<title>Node7</title>
<g id="a_node7"><a xlink:href="zwave__s0__transport_8c.html#ac63aa7d8bacc026b675bc0d88747f843" target="_top" xlink:title=" ">
<polygon fill="none" stroke="black" points="139.5,-185.5 139.5,-204.5 249.5,-204.5 249.5,-185.5 139.5,-185.5"/>
<text text-anchor="middle" x="194.5" y="-192.5" font-family="Helvetica,sans-Serif" font-size="10.00">s0_is_nonce_blocked</text>
</a>
</g>
</g>
<!-- Node1&#45;&gt;Node7 -->
<g id="edge7" class="edge">
<title>Node1&#45;&gt;Node7</title>
<path fill="none" stroke="midnightblue" d="M85.46,-223.41C104.27,-218.46 127.41,-212.38 147.45,-207.11"/>
<polygon fill="midnightblue" stroke="midnightblue" points="148.52,-210.45 157.3,-204.52 146.74,-203.68 148.52,-210.45"/>
</g>
<!-- Node8 -->
<g id="node8" class="node">
<title>Node8</title>
<g id="a_node8"><a xlink:href="zwave__s0__transport_8c.html#ab8425b35b3d704f2108b438158fad2f1" target="_top" xlink:title="Move a S0 Tx Session state to a new state.">
<polygon fill="none" stroke="black" points="139.5,-124.5 139.5,-143.5 249.5,-143.5 249.5,-124.5 139.5,-124.5"/>
<text text-anchor="middle" x="194.5" y="-131.5" font-family="Helvetica,sans-Serif" font-size="10.00">tx_session_state_set</text>
</a>
</g>
</g>
<!-- Node1&#45;&gt;Node8 -->
<g id="edge8" class="edge">
<title>Node1&#45;&gt;Node8</title>
<path fill="none" stroke="midnightblue" d="M63.09,-223.31C79.6,-211.96 107.77,-192.59 132,-176 144.92,-167.15 159.38,-157.27 171.03,-149.32"/>
<polygon fill="midnightblue" stroke="midnightblue" points="173.04,-152.19 179.33,-143.66 169.09,-146.41 173.04,-152.19"/>
</g>
<!-- Node4 -->
<g id="node4" class="node">
<title>Node4</title>
<g id="a_node4"><a xlink:href="zwave__s0__transport_8c.html#aed7c30c1d59e44aab5ba91ad6e78d447" target="_top" xlink:title=" ">
<polygon fill="none" stroke="black" points="614,-266.5 614,-285.5 701,-285.5 701,-266.5 614,-266.5"/>
<text text-anchor="middle" x="657.5" y="-273.5" font-family="Helvetica,sans-Serif" font-size="10.00">restart_s0_timer</text>
</a>
</g>
</g>
<!-- Node3&#45;&gt;Node4 -->
<g id="edge3" class="edge">
<title>Node3&#45;&gt;Node4</title>
<path fill="none" stroke="midnightblue" d="M551.1,-276C567.31,-276 586.37,-276 603.78,-276"/>
<polygon fill="midnightblue" stroke="midnightblue" points="603.81,-279.5 613.81,-276 603.81,-272.5 603.81,-279.5"/>
</g>
<!-- Node5 -->
<g id="node5" class="node">
<title>Node5</title>
<g id="a_node5"><a xlink:href="zwave__s0__transport_8c.html#a23cc9cf50d02cdaa152e984177674bf9" target="_top" xlink:title=" ">
<polygon fill="none" stroke="black" points="737,-266.5 737,-285.5 844,-285.5 844,-266.5 737,-266.5"/>
<text text-anchor="middle" x="790.5" y="-273.5" font-family="Helvetica,sans-Serif" font-size="10.00">nonce_timer_timeout</text>
</a>
</g>
</g>
<!-- Node4&#45;&gt;Node5 -->
<g id="edge4" class="edge">
<title>Node4&#45;&gt;Node5</title>
<path fill="none" stroke="midnightblue" d="M701.03,-276C709.19,-276 717.9,-276 726.55,-276"/>
<polygon fill="midnightblue" stroke="midnightblue" points="726.64,-279.5 736.64,-276 726.64,-272.5 726.64,-279.5"/>
</g>
<!-- Node5&#45;&gt;Node5 -->
<g id="edge5" class="edge">
<title>Node5&#45;&gt;Node5</title>
<path fill="none" stroke="midnightblue" d="M770.15,-285.76C760.26,-294.57 767.04,-304 790.5,-304 805.53,-304 813.71,-300.13 815.05,-295.03"/>
<polygon fill="midnightblue" stroke="midnightblue" points="818.17,-293.42 810.85,-285.76 811.79,-296.31 818.17,-293.42"/>
</g>
<!-- Node8&#45;&gt;Node8 -->
<g id="edge26" class="edge">
<title>Node8&#45;&gt;Node8</title>
<path fill="none" stroke="midnightblue" d="M172,-143.76C161.05,-152.57 168.55,-162 194.5,-162 211.53,-162 220.61,-157.94 221.75,-152.65"/>
<polygon fill="midnightblue" stroke="midnightblue" points="224.8,-150.93 217,-143.76 218.62,-154.23 224.8,-150.93"/>
</g>
<!-- Node9 -->
<g id="node9" class="node">
<title>Node9</title>
<g id="a_node9"><a xlink:href="zwave__s0__transport_8c.html#a800e1cc61a01bde0fe6d9a3eddb91b5e" target="_top" xlink:title="Z&#45;Wave Tx Send data callback function.">
<polygon fill="none" stroke="black" points="324,-200.5 324,-219.5 377,-219.5 377,-200.5 324,-200.5"/>
<text text-anchor="middle" x="350.5" y="-207.5" font-family="Helvetica,sans-Serif" font-size="10.00">callback</text>
</a>
</g>
</g>
<!-- Node8&#45;&gt;Node9 -->
<g id="edge9" class="edge">
<title>Node8&#45;&gt;Node9</title>
<path fill="none" stroke="midnightblue" d="M221.21,-143.52C240.43,-154.2 267.65,-170.48 293,-182 304.83,-187.38 318.65,-192.05 329.66,-196.48"/>
<polygon fill="midnightblue" stroke="midnightblue" points="328.27,-199.7 338.84,-200.49 331.08,-193.28 328.27,-199.7"/>
</g>
<!-- Node10 -->
<g id="node10" class="node">
<title>Node10</title>
<g id="a_node10"><a xlink:href="zwave__s0__transport_8c.html#a395227710e5a6b32c1c55b6a389384b3" target="_top" xlink:title="Resets the data from the previous S0 Tx Session.">
<polygon fill="none" stroke="black" points="293,-162.5 293,-181.5 408,-181.5 408,-162.5 293,-162.5"/>
<text text-anchor="middle" x="350.5" y="-169.5" font-family="Helvetica,sans-Serif" font-size="10.00">reset_tx_session_data</text>
</a>
</g>
</g>
<!-- Node8&#45;&gt;Node10 -->
<g id="edge11" class="edge">
<title>Node8&#45;&gt;Node10</title>
<path fill="none" stroke="midnightblue" d="M234.36,-143.59C254.59,-148.58 279.52,-154.73 301,-160.03"/>
<polygon fill="midnightblue" stroke="midnightblue" points="300.37,-163.48 310.92,-162.48 302.05,-156.69 300.37,-163.48"/>
</g>
<!-- Node11 -->
<g id="node11" class="node">
<title>Node11</title>
<g id="a_node11"><a xlink:href="zwave__s0__transport_8c.html#abfe0a749d5d321ae13b810ea1043d90f" target="_top" xlink:title=" ">
<polygon fill="none" stroke="black" points="295.5,-124.5 295.5,-143.5 405.5,-143.5 405.5,-124.5 295.5,-124.5"/>
<text text-anchor="middle" x="350.5" y="-131.5" font-family="Helvetica,sans-Serif" font-size="10.00">s0_encrypt_message</text>
</a>
</g>
</g>
<!-- Node8&#45;&gt;Node11 -->
<g id="edge12" class="edge">
<title>Node8&#45;&gt;Node11</title>
<path fill="none" stroke="midnightblue" d="M249.79,-134C261.25,-134 273.44,-134 285.22,-134"/>
<polygon fill="midnightblue" stroke="midnightblue" points="285.44,-137.5 295.44,-134 285.44,-130.5 285.44,-137.5"/>
</g>
<!-- Node19 -->
<g id="node19" class="node">
<title>Node19</title>
<g id="a_node19"><a xlink:href="zwave__s0__transport_8c.html#ae58733ec136a4bb85e6a2b7ea6aef6bb" target="_top" xlink:title=" ">
<polygon fill="none" stroke="black" points="469.5,-0.5 469.5,-19.5 552.5,-19.5 552.5,-0.5 469.5,-0.5"/>
<text text-anchor="middle" x="511" y="-7.5" font-family="Helvetica,sans-Serif" font-size="10.00">s0_state_name</text>
</a>
</g>
</g>
<!-- Node8&#45;&gt;Node19 -->
<g id="edge22" class="edge">
<title>Node8&#45;&gt;Node19</title>
<path fill="none" stroke="midnightblue" d="M246.09,-124.4C300.19,-113.46 381.74,-94.76 408,-77 430.09,-62.06 422.05,-44.14 444,-29 448.84,-25.66 454.27,-22.9 459.87,-20.63"/>
<polygon fill="midnightblue" stroke="midnightblue" points="461.16,-23.88 469.41,-17.23 458.81,-17.29 461.16,-23.88"/>
</g>
<!-- Node20 -->
<g id="node20" class="node">
<title>Node20</title>
<g id="a_node20"><a xlink:href="zwave__s0__transport_8c.html#adb0e729c11b7fdb81d7c2f776453e8ab" target="_top" xlink:title=" ">
<polygon fill="none" stroke="black" points="318,-48.5 318,-67.5 383,-67.5 383,-48.5 318,-48.5"/>
<text text-anchor="middle" x="350.5" y="-55.5" font-family="Helvetica,sans-Serif" font-size="10.00">s0_timeout</text>
</a>
</g>
</g>
<!-- Node8&#45;&gt;Node20 -->
<g id="edge23" class="edge">
<title>Node8&#45;&gt;Node20</title>
<path fill="none" stroke="midnightblue" d="M203.47,-124.48C219.94,-111.08 259.07,-89.21 293,-73 297.99,-70.62 303.27,-68.21 308.53,-65.97"/>
<polygon fill="midnightblue" stroke="midnightblue" points="309.96,-69.17 317.9,-62.15 307.32,-62.69 309.96,-69.17"/>
</g>
<!-- Node21 -->
<g id="node21" class="node">
<title>Node21</title>
<g id="a_node21"><a xlink:href="group__zwave__tx.html#gad1538f36d226fe8147c5e538625568df" target="_top" xlink:title="Queue and send frames to Z&#45;Wave nodes.">
<polygon fill="none" stroke="black" points="296,-10.5 296,-29.5 405,-29.5 405,-10.5 296,-10.5"/>
<text text-anchor="middle" x="350.5" y="-17.5" font-family="Helvetica,sans-Serif" font-size="10.00">zwave_tx_send_data</text>
</a>
</g>
</g>
<!-- Node8&#45;&gt;Node21 -->
<g id="edge27" class="edge">
<title>Node8&#45;&gt;Node21</title>
<path fill="none" stroke="midnightblue" d="M202.77,-124.48C217.69,-105.57 253.67,-63.03 293,-39 296.38,-36.93 300.01,-35.06 303.75,-33.37"/>
<polygon fill="midnightblue" stroke="midnightblue" points="305.22,-36.55 313.15,-29.53 302.57,-30.07 305.22,-36.55"/>
</g>
<!-- Node9&#45;&gt;Node8 -->
<g id="edge10" class="edge">
<title>Node9&#45;&gt;Node8</title>
<path fill="none" stroke="midnightblue" d="M323.76,-210.97C313.96,-208.43 302.8,-204.45 293,-200 262.49,-186.13 229.26,-165.37 210.54,-150.43"/>
<polygon fill="midnightblue" stroke="midnightblue" points="212.68,-147.65 202.8,-143.81 208.13,-152.97 212.68,-147.65"/>
</g>
<!-- Node11&#45;&gt;Node3 -->
<g id="edge21" class="edge">
<title>Node11&#45;&gt;Node3</title>
<path fill="none" stroke="midnightblue" d="M394.39,-143.61C399.4,-146.06 404.1,-149.14 408,-153 442.74,-187.43 408.51,-223.34 444,-257 448.94,-261.69 454.96,-265.23 461.34,-267.9"/>
<polygon fill="midnightblue" stroke="midnightblue" points="460.25,-271.23 470.84,-271.23 462.56,-264.62 460.25,-271.23"/>
</g>
<!-- Node12 -->
<g id="node12" class="node">
<title>Node12</title>
<g id="a_node12"><a xlink:href="zwave__s0__transport_8c.html#a09886e580f2471de3c1ebe56fabd6891" target="_top" xlink:title=" ">
<polygon fill="none" stroke="black" points="472.5,-228.5 472.5,-247.5 549.5,-247.5 549.5,-228.5 472.5,-228.5"/>
<text text-anchor="middle" x="511" y="-235.5" font-family="Helvetica,sans-Serif" font-size="10.00">aes_cbc_mac</text>
</a>
</g>
</g>
<!-- Node11&#45;&gt;Node12 -->
<g id="edge13" class="edge">
<title>Node11&#45;&gt;Node12</title>
<path fill="none" stroke="midnightblue" d="M392.36,-143.59C397.99,-146.06 403.4,-149.14 408,-153 433.6,-174.47 417.93,-198.1 444,-219 449.44,-223.36 455.83,-226.72 462.47,-229.31"/>
<polygon fill="midnightblue" stroke="midnightblue" points="461.67,-232.73 472.27,-232.58 463.89,-226.09 461.67,-232.73"/>
</g>
<!-- Node14 -->
<g id="node14" class="node">
<title>Node14</title>
<g id="a_node14"><a xlink:href="zwave__s0__transport_8c.html#a64c4a69fb8c2e230b1437142e84c3c62" target="_top" xlink:title=" ">
<polygon fill="none" stroke="black" points="485.5,-190.5 485.5,-209.5 536.5,-209.5 536.5,-190.5 485.5,-190.5"/>
<text text-anchor="middle" x="511" y="-197.5" font-family="Helvetica,sans-Serif" font-size="10.00">aes_ofb</text>
</a>
</g>
</g>
<!-- Node11&#45;&gt;Node14 -->
<g id="edge15" class="edge">
<title>Node11&#45;&gt;Node14</title>
<path fill="none" stroke="midnightblue" d="M386.04,-143.56C393.48,-146.18 401.16,-149.33 408,-153 425.86,-162.59 425.93,-171.81 444,-181 453.83,-186 465.16,-189.87 475.64,-192.77"/>
<polygon fill="midnightblue" stroke="midnightblue" points="474.78,-196.16 485.34,-195.25 476.52,-189.38 474.78,-196.16"/>
</g>
<!-- Node15 -->
<g id="node15" class="node">
<title>Node15</title>
<g id="a_node15"><a xlink:href="zwave__s0__transport_8c.html#aa131994ce2700672584c8e7eb43abbcf" target="_top" xlink:title=" ">
<polygon fill="none" stroke="black" points="466.5,-152.5 466.5,-171.5 555.5,-171.5 555.5,-152.5 466.5,-152.5"/>
<text text-anchor="middle" x="511" y="-159.5" font-family="Helvetica,sans-Serif" font-size="10.00">aes_set_key_tpt</text>
</a>
</g>
</g>
<!-- Node11&#45;&gt;Node15 -->
<g id="edge17" class="edge">
<title>Node11&#45;&gt;Node15</title>
<path fill="none" stroke="midnightblue" d="M405.6,-143.56C422.02,-146.46 440.03,-149.64 456.41,-152.53"/>
<polygon fill="midnightblue" stroke="midnightblue" points="455.91,-156 466.37,-154.29 457.13,-149.11 455.91,-156"/>
</g>
<!-- Node16 -->
<g id="node16" class="node">
<title>Node16</title>
<g id="a_node16"><a xlink:href="zwave__s0__transport_8c.html#aeb22afea5af0dc149f03d08edb74a44a" target="_top" xlink:title=" ">
<polygon fill="none" stroke="black" points="444,-114.5 444,-133.5 578,-133.5 578,-114.5 444,-114.5"/>
<text text-anchor="middle" x="511" y="-121.5" font-family="Helvetica,sans-Serif" font-size="10.00">get_node_max_frame_size</text>
</a>
</g>
</g>
<!-- Node11&#45;&gt;Node16 -->
<g id="edge18" class="edge">
<title>Node11&#45;&gt;Node16</title>
<path fill="none" stroke="midnightblue" d="M405.6,-130.59C414.63,-130.02 424.13,-129.42 433.59,-128.82"/>
<polygon fill="midnightblue" stroke="midnightblue" points="434.04,-132.3 443.8,-128.18 433.6,-125.31 434.04,-132.3"/>
</g>
<!-- Node17 -->
<g id="node17" class="node">
<title>Node17</title>
<g id="a_node17"><a xlink:href="zwave__s0__transport_8c.html#ade289797a519efdfbcbb8176339c60f3" target="_top" xlink:title=" ">
<polygon fill="none" stroke="black" points="472.5,-76.5 472.5,-95.5 549.5,-95.5 549.5,-76.5 472.5,-76.5"/>
<text text-anchor="middle" x="511" y="-83.5" font-family="Helvetica,sans-Serif" font-size="10.00">get_s0_nonce</text>
</a>
</g>
</g>
<!-- Node11&#45;&gt;Node17 -->
<g id="edge19" class="edge">
<title>Node11&#45;&gt;Node17</title>
<path fill="none" stroke="midnightblue" d="M381.44,-124.42C399.52,-118.68 423.05,-111.3 444,-105 451.3,-102.8 459.08,-100.52 466.63,-98.33"/>
<polygon fill="midnightblue" stroke="midnightblue" points="467.74,-101.65 476.38,-95.51 465.8,-94.92 467.74,-101.65"/>
</g>
<!-- Node18 -->
<g id="node18" class="node">
<title>Node18</title>
<g id="a_node18"><a xlink:href="zwave__s0__transport_8c.html#a9944c78203e0b476f5cd80bca6dd76d1" target="_top" xlink:title=" ">
<polygon fill="none" stroke="black" points="476.5,-38.5 476.5,-57.5 545.5,-57.5 545.5,-38.5 476.5,-38.5"/>
<text text-anchor="middle" x="511" y="-45.5" font-family="Helvetica,sans-Serif" font-size="10.00">nonce_clear</text>
</a>
</g>
</g>
<!-- Node11&#45;&gt;Node18 -->
<g id="edge20" class="edge">
<title>Node11&#45;&gt;Node18</title>
<path fill="none" stroke="midnightblue" d="M381.07,-124.5C390.2,-120.78 399.95,-115.96 408,-110 428.03,-95.16 423.11,-80.6 444,-67 450.89,-62.51 458.86,-59.07 466.82,-56.42"/>
<polygon fill="midnightblue" stroke="midnightblue" points="467.86,-59.77 476.46,-53.58 465.88,-53.05 467.86,-59.77"/>
</g>
<!-- Node13 -->
<g id="node13" class="node">
<title>Node13</title>
<g id="a_node13"><a xlink:href="zwave__s0__transport_8c.html#a81a1edfa8dd156b07bbe49d8c85095bf" target="_top" xlink:title=" ">
<polygon fill="none" stroke="black" points="622.5,-209.5 622.5,-228.5 692.5,-228.5 692.5,-209.5 622.5,-209.5"/>
<text text-anchor="middle" x="657.5" y="-216.5" font-family="Helvetica,sans-Serif" font-size="10.00">aes_encrypt</text>
</a>
</g>
</g>
<!-- Node12&#45;&gt;Node13 -->
<g id="edge14" class="edge">
<title>Node12&#45;&gt;Node13</title>
<path fill="none" stroke="midnightblue" d="M549.59,-233.06C568.67,-230.55 591.99,-227.48 611.97,-224.86"/>
<polygon fill="midnightblue" stroke="midnightblue" points="612.61,-228.3 622.07,-223.53 611.7,-221.36 612.61,-228.3"/>
</g>
<!-- Node14&#45;&gt;Node13 -->
<g id="edge16" class="edge">
<title>Node14&#45;&gt;Node13</title>
<path fill="none" stroke="midnightblue" d="M536.51,-203.22C557.25,-205.95 587.48,-209.92 612.41,-213.2"/>
<polygon fill="midnightblue" stroke="midnightblue" points="612,-216.68 622.37,-214.51 612.91,-209.74 612,-216.68"/>
</g>
<!-- Node20&#45;&gt;Node8 -->
<g id="edge25" class="edge">
<title>Node20&#45;&gt;Node8</title>
<path fill="none" stroke="midnightblue" d="M340.97,-67.52C329.82,-74.79 309.73,-83 293,-91 273.87,-100.14 253.08,-111.08 235.64,-119.84"/>
<polygon fill="midnightblue" stroke="midnightblue" points="233.73,-116.88 226.32,-124.46 236.83,-123.16 233.73,-116.88"/>
</g>
<!-- Node20&#45;&gt;Node19 -->
<g id="edge24" class="edge">
<title>Node20&#45;&gt;Node19</title>
<path fill="none" stroke="midnightblue" d="M381.44,-48.42C399.52,-42.68 423.05,-35.3 444,-29 451.3,-26.8 459.08,-24.52 466.63,-22.33"/>
<polygon fill="midnightblue" stroke="midnightblue" points="467.74,-25.65 476.38,-19.51 465.8,-18.92 467.74,-25.65"/>
</g>
</g>
</svg>
