<?xml version="1.0" encoding="UTF-8" standalone="no"?>
<!DOCTYPE svg PUBLIC "-//W3C//DTD SVG 1.1//EN"
 "http://www.w3.org/Graphics/SVG/1.1/DTD/svg11.dtd">
<!-- Generated by graphviz version 2.43.0 (0)
 -->
<!-- Title: applications/zpc/components/zwave_command_classes/src/zwave_command_class_granted_keys_resolver.c Pages: 1 -->
<svg width="2089pt" height="419pt"
 viewBox="0.00 0.00 2089.00 419.00" xmlns="http://www.w3.org/2000/svg" xmlns:xlink="http://www.w3.org/1999/xlink">
<g id="graph0" class="graph" transform="scale(1 1) rotate(0) translate(4 415)">
<title>applications/zpc/components/zwave_command_classes/src/zwave_command_class_granted_keys_resolver.c</title>
<!-- Node1 -->
<g id="node1" class="node">
<title>Node1</title>
<g id="a_node1"><a xlink:title=" ">
<polygon fill="#bfbfbf" stroke="black" points="1204,-358.5 1204,-410.5 1366,-410.5 1366,-358.5 1204,-358.5"/>
<text text-anchor="start" x="1212" y="-398.5" font-family="Helvetica,sans-Serif" font-size="10.00">applications/zpc/components</text>
<text text-anchor="start" x="1212" y="-387.5" font-family="Helvetica,sans-Serif" font-size="10.00">/zwave_command_classes/src</text>
<text text-anchor="start" x="1212" y="-376.5" font-family="Helvetica,sans-Serif" font-size="10.00">/zwave_command_class_granted</text>
<text text-anchor="middle" x="1285" y="-365.5" font-family="Helvetica,sans-Serif" font-size="10.00">_keys_resolver.c</text>
</a>
</g>
</g>
<!-- Node2 -->
<g id="node2" class="node">
<title>Node2</title>
<g id="a_node2"><a xlink:href="zwave__command__class__granted__keys__resolver_8h.html" target="_top" xlink:title=" ">
<polygon fill="none" stroke="black" points="773,-235.5 773,-265.5 901,-265.5 901,-235.5 773,-235.5"/>
<text text-anchor="start" x="781" y="-253.5" font-family="Helvetica,sans-Serif" font-size="10.00">zwave_command_class</text>
<text text-anchor="middle" x="837" y="-242.5" font-family="Helvetica,sans-Serif" font-size="10.00">_granted_keys_resolver.h</text>
</a>
</g>
</g>
<!-- Node1&#45;&gt;Node2 -->
<g id="edge1" class="edge">
<title>Node1&#45;&gt;Node2</title>
<path fill="none" stroke="midnightblue" d="M1203.75,-364.87C1156.06,-353.48 1094.8,-338.04 1041,-322 986.65,-305.79 925.25,-284.1 884.14,-269.08"/>
<polygon fill="midnightblue" stroke="midnightblue" points="885.25,-265.76 874.66,-265.6 882.84,-272.33 885.25,-265.76"/>
</g>
<!-- Node3 -->
<g id="node3" class="node">
<title>Node3</title>
<g id="a_node3"><a xlink:title=" ">
<polygon fill="none" stroke="#bfbfbf" points="509.5,-174 509.5,-193 596.5,-193 596.5,-174 509.5,-174"/>
<text text-anchor="middle" x="553" y="-181" font-family="Helvetica,sans-Serif" font-size="10.00">attribute_store.h</text>
</a>
</g>
</g>
<!-- Node1&#45;&gt;Node3 -->
<g id="edge72" class="edge">
<title>Node1&#45;&gt;Node3</title>
<path fill="none" stroke="midnightblue" d="M1203.92,-384.03C1026.56,-384.1 609.78,-378.1 482,-322 438.99,-303.12 395.42,-273.73 422,-235 439.32,-209.76 471.17,-197.13 499.13,-190.82"/>
<polygon fill="midnightblue" stroke="midnightblue" points="500.12,-194.19 509.22,-188.76 498.72,-187.33 500.12,-194.19"/>
</g>
<!-- Node4 -->
<g id="node4" class="node">
<title>Node4</title>
<g id="a_node4"><a xlink:href="zwave__keyset__definitions_8h.html" target="_top" xlink:title=" ">
<polygon fill="none" stroke="black" points="1099.5,-174 1099.5,-193 1236.5,-193 1236.5,-174 1099.5,-174"/>
<text text-anchor="middle" x="1168" y="-181" font-family="Helvetica,sans-Serif" font-size="10.00">zwave_keyset_definitions.h</text>
</a>
</g>
</g>
<!-- Node1&#45;&gt;Node4 -->
<g id="edge24" class="edge">
<title>Node1&#45;&gt;Node4</title>
<path fill="none" stroke="midnightblue" d="M1283.4,-358.34C1280.27,-326.8 1271.06,-272.37 1244,-235 1232.19,-218.7 1213.38,-206.14 1197.43,-197.62"/>
<polygon fill="midnightblue" stroke="midnightblue" points="1198.95,-194.47 1188.44,-193.08 1195.79,-200.71 1198.95,-194.47"/>
</g>
<!-- Node9 -->
<g id="node9" class="node">
<title>Node9</title>
<g id="a_node9"><a xlink:href="zwave__node__id__definitions_8h.html" target="_top" xlink:title=" ">
<polygon fill="none" stroke="black" points="733,-56.5 733,-75.5 875,-75.5 875,-56.5 733,-56.5"/>
<text text-anchor="middle" x="804" y="-63.5" font-family="Helvetica,sans-Serif" font-size="10.00">zwave_node_id_definitions.h</text>
</a>
</g>
</g>
<!-- Node1&#45;&gt;Node9 -->
<g id="edge25" class="edge">
<title>Node1&#45;&gt;Node9</title>
<path fill="none" stroke="midnightblue" d="M1203.72,-381.88C1004.87,-377.32 505.44,-361.97 442,-322 407.14,-300.04 391.41,-271.77 410,-235 467.6,-121.07 625.13,-84.39 722.66,-72.59"/>
<polygon fill="midnightblue" stroke="midnightblue" points="723.25,-76.05 732.78,-71.43 722.45,-69.09 723.25,-76.05"/>
</g>
<!-- Node13 -->
<g id="node13" class="node">
<title>Node13</title>
<g id="a_node13"><a xlink:href="attribute__store__defined__attribute__types_8h.html" target="_top" xlink:title=" ">
<polygon fill="none" stroke="black" points="221,-235.5 221,-265.5 337,-265.5 337,-235.5 221,-235.5"/>
<text text-anchor="start" x="229" y="-253.5" font-family="Helvetica,sans-Serif" font-size="10.00">attribute_store_defined</text>
<text text-anchor="middle" x="279" y="-242.5" font-family="Helvetica,sans-Serif" font-size="10.00">_attribute_types.h</text>
</a>
</g>
</g>
<!-- Node1&#45;&gt;Node13 -->
<g id="edge19" class="edge">
<title>Node1&#45;&gt;Node13</title>
<path fill="none" stroke="midnightblue" d="M1203.88,-381.37C991.06,-375.35 427.78,-356.31 351,-322 327.74,-311.61 307.65,-290.23 294.64,-273.72"/>
<polygon fill="midnightblue" stroke="midnightblue" points="297.34,-271.48 288.51,-265.62 291.75,-275.7 297.34,-271.48"/>
</g>
<!-- Node17 -->
<g id="node17" class="node">
<title>Node17</title>
<g id="a_node17"><a xlink:href="zwave__helper__macros_8h.html" target="_top" xlink:title=" ">
<polygon fill="none" stroke="black" points="1515,-302.5 1515,-321.5 1637,-321.5 1637,-302.5 1515,-302.5"/>
<text text-anchor="middle" x="1576" y="-309.5" font-family="Helvetica,sans-Serif" font-size="10.00">zwave_helper_macros.h</text>
</a>
</g>
</g>
<!-- Node1&#45;&gt;Node17 -->
<g id="edge26" class="edge">
<title>Node1&#45;&gt;Node17</title>
<path fill="none" stroke="midnightblue" d="M1366.06,-363.86C1419.26,-350.97 1486.87,-334.59 1530.77,-323.96"/>
<polygon fill="midnightblue" stroke="midnightblue" points="1531.68,-327.34 1540.58,-321.58 1530.04,-320.53 1531.68,-327.34"/>
</g>
<!-- Node18 -->
<g id="node18" class="node">
<title>Node18</title>
<g id="a_node18"><a xlink:href="zwave__utils_8h.html" target="_top" xlink:title="Various Z&#45;Wave related utilities.">
<polygon fill="none" stroke="black" points="1049.5,-302.5 1049.5,-321.5 1126.5,-321.5 1126.5,-302.5 1049.5,-302.5"/>
<text text-anchor="middle" x="1088" y="-309.5" font-family="Helvetica,sans-Serif" font-size="10.00">zwave_utils.h</text>
</a>
</g>
</g>
<!-- Node1&#45;&gt;Node18 -->
<g id="edge27" class="edge">
<title>Node1&#45;&gt;Node18</title>
<path fill="none" stroke="midnightblue" d="M1214.99,-358.45C1183.16,-347.06 1146.99,-334.11 1121.42,-324.96"/>
<polygon fill="midnightblue" stroke="midnightblue" points="1122.42,-321.6 1111.83,-321.53 1120.06,-328.19 1122.42,-321.6"/>
</g>
<!-- Node22 -->
<g id="node22" class="node">
<title>Node22</title>
<g id="a_node22"><a xlink:href="zpc__attribute__resolver_8h.html" target="_top" xlink:title=" ">
<polygon fill="none" stroke="black" points="491,-302.5 491,-321.5 611,-321.5 611,-302.5 491,-302.5"/>
<text text-anchor="middle" x="551" y="-309.5" font-family="Helvetica,sans-Serif" font-size="10.00">zpc_attribute_resolver.h</text>
</a>
</g>
</g>
<!-- Node1&#45;&gt;Node22 -->
<g id="edge41" class="edge">
<title>Node1&#45;&gt;Node22</title>
<path fill="none" stroke="midnightblue" d="M1204,-375.72C1059.2,-361.81 758.33,-332.91 621.49,-319.77"/>
<polygon fill="midnightblue" stroke="midnightblue" points="621.43,-316.25 611.14,-318.78 620.76,-323.22 621.43,-316.25"/>
</g>
<!-- Node24 -->
<g id="node24" class="node">
<title>Node24</title>
<g id="a_node24"><a xlink:href="zpc__attribute__store__network__helper_8h.html" target="_top" xlink:title=" ">
<polygon fill="none" stroke="black" points="655,-235.5 655,-265.5 755,-265.5 755,-235.5 655,-235.5"/>
<text text-anchor="start" x="663" y="-253.5" font-family="Helvetica,sans-Serif" font-size="10.00">zpc_attribute_store</text>
<text text-anchor="middle" x="705" y="-242.5" font-family="Helvetica,sans-Serif" font-size="10.00">_network_helper.h</text>
</a>
</g>
</g>
<!-- Node1&#45;&gt;Node24 -->
<g id="edge44" class="edge">
<title>Node1&#45;&gt;Node24</title>
<path fill="none" stroke="midnightblue" d="M1203.84,-368.86C1140.92,-357.16 1051.65,-339.83 974,-322 901.58,-305.36 819,-283.25 764.66,-268.25"/>
<polygon fill="midnightblue" stroke="midnightblue" points="765.42,-264.83 754.85,-265.54 763.55,-271.58 765.42,-264.83"/>
</g>
<!-- Node26 -->
<g id="node26" class="node">
<title>Node26</title>
<g id="a_node26"><a xlink:href="zwave__tx_8h.html" target="_top" xlink:title=" ">
<polygon fill="none" stroke="black" points="1579.5,-241 1579.5,-260 1646.5,-260 1646.5,-241 1579.5,-241"/>
<text text-anchor="middle" x="1613" y="-248" font-family="Helvetica,sans-Serif" font-size="10.00">zwave_tx.h</text>
</a>
</g>
</g>
<!-- Node1&#45;&gt;Node26 -->
<g id="edge51" class="edge">
<title>Node1&#45;&gt;Node26</title>
<path fill="none" stroke="midnightblue" d="M1366.22,-359.3C1398.35,-348.92 1435.34,-335.98 1468,-322 1485.55,-314.49 1488.92,-310.52 1506,-302 1532.62,-288.72 1563.36,-274.3 1585.05,-264.29"/>
<polygon fill="midnightblue" stroke="midnightblue" points="1586.71,-267.38 1594.33,-260.01 1583.78,-261.02 1586.71,-267.38"/>
</g>
<!-- Node30 -->
<g id="node30" class="node">
<title>Node30</title>
<g id="a_node30"><a xlink:href="zwave__tx__scheme__selector_8h.html" target="_top" xlink:title=" ">
<polygon fill="none" stroke="black" points="1313,-302.5 1313,-321.5 1459,-321.5 1459,-302.5 1313,-302.5"/>
<text text-anchor="middle" x="1386" y="-309.5" font-family="Helvetica,sans-Serif" font-size="10.00">zwave_tx_scheme_selector.h</text>
</a>
</g>
</g>
<!-- Node1&#45;&gt;Node30 -->
<g id="edge67" class="edge">
<title>Node1&#45;&gt;Node30</title>
<path fill="none" stroke="midnightblue" d="M1320.89,-358.45C1335.68,-348.13 1352.29,-336.53 1365.03,-327.64"/>
<polygon fill="midnightblue" stroke="midnightblue" points="1367.35,-330.29 1373.54,-321.7 1363.34,-324.55 1367.35,-330.29"/>
</g>
<!-- Node31 -->
<g id="node31" class="node">
<title>Node31</title>
<g id="a_node31"><a xlink:title=" ">
<polygon fill="none" stroke="#bfbfbf" points="1655.5,-302.5 1655.5,-321.5 1758.5,-321.5 1758.5,-302.5 1655.5,-302.5"/>
<text text-anchor="middle" x="1707" y="-309.5" font-family="Helvetica,sans-Serif" font-size="10.00">attribute_timeouts.h</text>
</a>
</g>
</g>
<!-- Node1&#45;&gt;Node31 -->
<g id="edge73" class="edge">
<title>Node1&#45;&gt;Node31</title>
<path fill="none" stroke="midnightblue" d="M1366.37,-369.91C1448.14,-356.24 1572.34,-335.5 1646.01,-323.19"/>
<polygon fill="midnightblue" stroke="midnightblue" points="1646.77,-326.61 1656.06,-321.51 1645.62,-319.71 1646.77,-326.61"/>
</g>
<!-- Node32 -->
<g id="node32" class="node">
<title>Node32</title>
<g id="a_node32"><a xlink:title=" ">
<polygon fill="none" stroke="#bfbfbf" points="1777,-302.5 1777,-321.5 1895,-321.5 1895,-302.5 1777,-302.5"/>
<text text-anchor="middle" x="1836" y="-309.5" font-family="Helvetica,sans-Serif" font-size="10.00">attribute_store_helper.h</text>
</a>
</g>
</g>
<!-- Node1&#45;&gt;Node32 -->
<g id="edge74" class="edge">
<title>Node1&#45;&gt;Node32</title>
<path fill="none" stroke="midnightblue" d="M1366.2,-373.28C1460.04,-361.45 1619.39,-341.27 1766.54,-322.18"/>
<polygon fill="midnightblue" stroke="midnightblue" points="1767.2,-325.63 1776.66,-320.87 1766.3,-318.69 1767.2,-325.63"/>
</g>
<!-- Node33 -->
<g id="node33" class="node">
<title>Node33</title>
<g id="a_node33"><a xlink:title=" ">
<polygon fill="none" stroke="#bfbfbf" points="1913.5,-302.5 1913.5,-321.5 2012.5,-321.5 2012.5,-302.5 1913.5,-302.5"/>
<text text-anchor="middle" x="1963" y="-309.5" font-family="Helvetica,sans-Serif" font-size="10.00">attribute_resolver.h</text>
</a>
</g>
</g>
<!-- Node1&#45;&gt;Node33 -->
<g id="edge75" class="edge">
<title>Node1&#45;&gt;Node33</title>
<path fill="none" stroke="midnightblue" d="M1366.27,-376.79C1482.76,-366.87 1704.16,-346.88 1903.38,-322.01"/>
<polygon fill="midnightblue" stroke="midnightblue" points="1903.97,-325.47 1913.45,-320.75 1903.09,-318.52 1903.97,-325.47"/>
</g>
<!-- Node34 -->
<g id="node34" class="node">
<title>Node34</title>
<g id="a_node34"><a xlink:title=" ">
<polygon fill="none" stroke="#bfbfbf" points="2031,-302.5 2031,-321.5 2081,-321.5 2081,-302.5 2031,-302.5"/>
<text text-anchor="middle" x="2056" y="-309.5" font-family="Helvetica,sans-Serif" font-size="10.00">sl_log.h</text>
</a>
</g>
</g>
<!-- Node1&#45;&gt;Node34 -->
<g id="edge76" class="edge">
<title>Node1&#45;&gt;Node34</title>
<path fill="none" stroke="midnightblue" d="M1366.02,-381.38C1500.48,-376.85 1778.15,-363.16 2020.79,-321.91"/>
<polygon fill="midnightblue" stroke="midnightblue" points="2021.6,-325.33 2030.86,-320.18 2020.41,-318.43 2021.6,-325.33"/>
</g>
<!-- Node2&#45;&gt;Node3 -->
<g id="edge2" class="edge">
<title>Node2&#45;&gt;Node3</title>
<path fill="none" stroke="midnightblue" d="M775.73,-235.48C723.05,-223.42 648.19,-206.29 600.1,-195.28"/>
<polygon fill="midnightblue" stroke="midnightblue" points="600.79,-191.85 590.26,-193.03 599.23,-198.67 600.79,-191.85"/>
</g>
<!-- Node2&#45;&gt;Node4 -->
<g id="edge3" class="edge">
<title>Node2&#45;&gt;Node4</title>
<path fill="none" stroke="midnightblue" d="M901.21,-236.89C963.29,-224.7 1056.25,-206.45 1114.44,-195.02"/>
<polygon fill="midnightblue" stroke="midnightblue" points="1115.4,-198.4 1124.54,-193.03 1114.05,-191.53 1115.4,-198.4"/>
</g>
<!-- Node6 -->
<g id="node6" class="node">
<title>Node6</title>
<g id="a_node6"><a xlink:href="zwave__controller__connection__info_8h.html" target="_top" xlink:title=" ">
<polygon fill="none" stroke="black" points="1331.5,-168.5 1331.5,-198.5 1474.5,-198.5 1474.5,-168.5 1331.5,-168.5"/>
<text text-anchor="start" x="1339.5" y="-186.5" font-family="Helvetica,sans-Serif" font-size="10.00">zwave_controller_connection</text>
<text text-anchor="middle" x="1403" y="-175.5" font-family="Helvetica,sans-Serif" font-size="10.00">_info.h</text>
</a>
</g>
</g>
<!-- Node2&#45;&gt;Node6 -->
<g id="edge5" class="edge">
<title>Node2&#45;&gt;Node6</title>
<path fill="none" stroke="midnightblue" d="M901.25,-240.89C916.56,-238.9 932.85,-236.83 948,-235 1078.43,-219.24 1230.13,-202.78 1321.25,-193.09"/>
<polygon fill="midnightblue" stroke="midnightblue" points="1321.66,-196.57 1331.24,-192.03 1320.92,-189.61 1321.66,-196.57"/>
</g>
<!-- Node2&#45;&gt;Node9 -->
<g id="edge15" class="edge">
<title>Node2&#45;&gt;Node9</title>
<path fill="none" stroke="midnightblue" d="M834.47,-235.48C828.58,-202.96 814.01,-122.34 807.38,-85.68"/>
<polygon fill="midnightblue" stroke="midnightblue" points="810.82,-85.04 805.59,-75.82 803.93,-86.28 810.82,-85.04"/>
</g>
<!-- Node10 -->
<g id="node10" class="node">
<title>Node10</title>
<g id="a_node10"><a xlink:href="zwave__generic__types_8h.html" target="_top" xlink:title=" ">
<polygon fill="none" stroke="black" points="1205.5,-56.5 1205.5,-75.5 1324.5,-75.5 1324.5,-56.5 1205.5,-56.5"/>
<text text-anchor="middle" x="1265" y="-63.5" font-family="Helvetica,sans-Serif" font-size="10.00">zwave_generic_types.h</text>
</a>
</g>
</g>
<!-- Node2&#45;&gt;Node10 -->
<g id="edge16" class="edge">
<title>Node2&#45;&gt;Node10</title>
<path fill="none" stroke="midnightblue" d="M880.09,-235.5C930.58,-219.14 1016.78,-191.33 1091,-168 1142.9,-151.69 1162.33,-161.57 1208,-132 1227.22,-119.55 1243.78,-98.85 1254.02,-84.16"/>
<polygon fill="midnightblue" stroke="midnightblue" points="1257.15,-85.78 1259.8,-75.52 1251.33,-81.88 1257.15,-85.78"/>
</g>
<!-- Node12 -->
<g id="node12" class="node">
<title>Node12</title>
<g id="a_node12"><a xlink:href="sl__status_8h.html" target="_top" xlink:title="SL Status Codes.">
<polygon fill="none" stroke="black" points="905.5,-56.5 905.5,-75.5 970.5,-75.5 970.5,-56.5 905.5,-56.5"/>
<text text-anchor="middle" x="938" y="-63.5" font-family="Helvetica,sans-Serif" font-size="10.00">sl_status.h</text>
</a>
</g>
</g>
<!-- Node2&#45;&gt;Node12 -->
<g id="edge17" class="edge">
<title>Node2&#45;&gt;Node12</title>
<path fill="none" stroke="midnightblue" d="M841.99,-235.28C848.02,-218.72 858.87,-190.72 871,-168 887.6,-136.91 911.16,-103.27 925.46,-83.73"/>
<polygon fill="midnightblue" stroke="midnightblue" points="928.36,-85.69 931.5,-75.57 922.74,-81.52 928.36,-85.69"/>
</g>
<!-- Node5 -->
<g id="node5" class="node">
<title>Node5</title>
<g id="a_node5"><a xlink:title=" ">
<polygon fill="none" stroke="#bfbfbf" points="1017.5,-0.5 1017.5,-19.5 1066.5,-19.5 1066.5,-0.5 1017.5,-0.5"/>
<text text-anchor="middle" x="1042" y="-7.5" font-family="Helvetica,sans-Serif" font-size="10.00">stdint.h</text>
</a>
</g>
</g>
<!-- Node4&#45;&gt;Node5 -->
<g id="edge4" class="edge">
<title>Node4&#45;&gt;Node5</title>
<path fill="none" stroke="midnightblue" d="M1124.64,-173.95C1100.55,-166.86 1072.24,-154.21 1056,-132 1033.92,-101.8 1035.67,-55.56 1038.86,-29.86"/>
<polygon fill="midnightblue" stroke="midnightblue" points="1042.37,-30.04 1040.35,-19.64 1035.45,-29.03 1042.37,-30.04"/>
</g>
<!-- Node7 -->
<g id="node7" class="node">
<title>Node7</title>
<g id="a_node7"><a xlink:href="zwave__controller__types_8h.html" target="_top" xlink:title=" ">
<polygon fill="none" stroke="black" points="1331,-112.5 1331,-131.5 1459,-131.5 1459,-112.5 1331,-112.5"/>
<text text-anchor="middle" x="1395" y="-119.5" font-family="Helvetica,sans-Serif" font-size="10.00">zwave_controller_types.h</text>
</a>
</g>
</g>
<!-- Node6&#45;&gt;Node7 -->
<g id="edge6" class="edge">
<title>Node6&#45;&gt;Node7</title>
<path fill="none" stroke="midnightblue" d="M1401.1,-168.4C1400.03,-160.38 1398.66,-150.23 1397.5,-141.57"/>
<polygon fill="midnightblue" stroke="midnightblue" points="1400.97,-141.1 1396.16,-131.66 1394.03,-142.04 1400.97,-141.1"/>
</g>
<!-- Node7&#45;&gt;Node5 -->
<g id="edge8" class="edge">
<title>Node7&#45;&gt;Node5</title>
<path fill="none" stroke="midnightblue" d="M1389.52,-112.09C1380.13,-97.65 1359.47,-69.42 1334,-56 1289.85,-32.73 1144.11,-18.84 1076.73,-13.51"/>
<polygon fill="midnightblue" stroke="midnightblue" points="1076.85,-10.01 1066.61,-12.73 1076.31,-16.99 1076.85,-10.01"/>
</g>
<!-- Node8 -->
<g id="node8" class="node">
<title>Node8</title>
<g id="a_node8"><a xlink:title=" ">
<polygon fill="none" stroke="#bfbfbf" points="1480,-0.5 1480,-19.5 1536,-19.5 1536,-0.5 1480,-0.5"/>
<text text-anchor="middle" x="1508" y="-7.5" font-family="Helvetica,sans-Serif" font-size="10.00">stdbool.h</text>
</a>
</g>
</g>
<!-- Node7&#45;&gt;Node8 -->
<g id="edge7" class="edge">
<title>Node7&#45;&gt;Node8</title>
<path fill="none" stroke="midnightblue" d="M1401.76,-112.12C1411.82,-99.15 1431.64,-74.55 1451,-56 1462.35,-45.13 1476.16,-34.17 1487.35,-25.79"/>
<polygon fill="midnightblue" stroke="midnightblue" points="1489.68,-28.42 1495.66,-19.68 1485.53,-22.78 1489.68,-28.42"/>
</g>
<!-- Node7&#45;&gt;Node9 -->
<g id="edge9" class="edge">
<title>Node7&#45;&gt;Node9</title>
<path fill="none" stroke="midnightblue" d="M1330.92,-115.34C1236.09,-106.94 1052.8,-90.58 897,-76 893.11,-75.64 889.14,-75.26 885.12,-74.88"/>
<polygon fill="midnightblue" stroke="midnightblue" points="885.37,-71.39 875.08,-73.93 884.71,-78.36 885.37,-71.39"/>
</g>
<!-- Node7&#45;&gt;Node10 -->
<g id="edge11" class="edge">
<title>Node7&#45;&gt;Node10</title>
<path fill="none" stroke="midnightblue" d="M1374.4,-112.44C1353.01,-103.56 1319.32,-89.56 1294.98,-79.45"/>
<polygon fill="midnightblue" stroke="midnightblue" points="1296.08,-76.12 1285.5,-75.52 1293.39,-82.58 1296.08,-76.12"/>
</g>
<!-- Node11 -->
<g id="node11" class="node">
<title>Node11</title>
<g id="a_node11"><a xlink:href="zwave__rf__region_8h.html" target="_top" xlink:title=" ">
<polygon fill="none" stroke="black" points="1460,-56.5 1460,-75.5 1556,-75.5 1556,-56.5 1460,-56.5"/>
<text text-anchor="middle" x="1508" y="-63.5" font-family="Helvetica,sans-Serif" font-size="10.00">zwave_rf_region.h</text>
</a>
</g>
</g>
<!-- Node7&#45;&gt;Node11 -->
<g id="edge13" class="edge">
<title>Node7&#45;&gt;Node11</title>
<path fill="none" stroke="midnightblue" d="M1412.91,-112.44C1431.25,-103.68 1460.01,-89.94 1481.09,-79.86"/>
<polygon fill="midnightblue" stroke="midnightblue" points="1482.67,-82.99 1490.18,-75.52 1479.65,-76.67 1482.67,-82.99"/>
</g>
<!-- Node9&#45;&gt;Node5 -->
<g id="edge10" class="edge">
<title>Node9&#45;&gt;Node5</title>
<path fill="none" stroke="midnightblue" d="M841.71,-56.44C887.22,-46.12 963.1,-28.9 1007.24,-18.89"/>
<polygon fill="midnightblue" stroke="midnightblue" points="1008.23,-22.25 1017.21,-16.62 1006.68,-15.42 1008.23,-22.25"/>
</g>
<!-- Node10&#45;&gt;Node5 -->
<g id="edge12" class="edge">
<title>Node10&#45;&gt;Node5</title>
<path fill="none" stroke="midnightblue" d="M1229.66,-56.44C1187.77,-46.3 1118.41,-29.5 1076.77,-19.42"/>
<polygon fill="midnightblue" stroke="midnightblue" points="1077.36,-15.96 1066.81,-17.01 1075.71,-22.76 1077.36,-15.96"/>
</g>
<!-- Node11&#45;&gt;Node8 -->
<g id="edge14" class="edge">
<title>Node11&#45;&gt;Node8</title>
<path fill="none" stroke="midnightblue" d="M1508,-56.08C1508,-49.01 1508,-38.86 1508,-29.99"/>
<polygon fill="midnightblue" stroke="midnightblue" points="1511.5,-29.75 1508,-19.75 1504.5,-29.75 1511.5,-29.75"/>
</g>
<!-- Node12&#45;&gt;Node5 -->
<g id="edge18" class="edge">
<title>Node12&#45;&gt;Node5</title>
<path fill="none" stroke="midnightblue" d="M954.71,-56.32C971.31,-47.7 997,-34.36 1016.22,-24.39"/>
<polygon fill="midnightblue" stroke="midnightblue" points="1018.07,-27.37 1025.33,-19.65 1014.84,-21.16 1018.07,-27.37"/>
</g>
<!-- Node13&#45;&gt;Node3 -->
<g id="edge21" class="edge">
<title>Node13&#45;&gt;Node3</title>
<path fill="none" stroke="midnightblue" d="M337.11,-235.72C387.75,-223.7 460.2,-206.52 506.92,-195.43"/>
<polygon fill="midnightblue" stroke="midnightblue" points="507.85,-198.81 516.77,-193.09 506.24,-192 507.85,-198.81"/>
</g>
<!-- Node14 -->
<g id="node14" class="node">
<title>Node14</title>
<g id="a_node14"><a xlink:title=" ">
<polygon fill="none" stroke="#bfbfbf" points="300,-174 300,-193 388,-193 388,-174 300,-174"/>
<text text-anchor="middle" x="344" y="-181" font-family="Helvetica,sans-Serif" font-size="10.00">ZW_classcmd.h</text>
</a>
</g>
</g>
<!-- Node13&#45;&gt;Node14 -->
<g id="edge20" class="edge">
<title>Node13&#45;&gt;Node14</title>
<path fill="none" stroke="midnightblue" d="M293.1,-235.4C303.44,-225.06 317.48,-211.02 328.19,-200.31"/>
<polygon fill="midnightblue" stroke="midnightblue" points="330.71,-202.74 335.31,-193.19 325.76,-197.79 330.71,-202.74"/>
</g>
<!-- Node15 -->
<g id="node15" class="node">
<title>Node15</title>
<g id="a_node15"><a xlink:title=" ">
<polygon fill="none" stroke="#bfbfbf" points="28,-174 28,-193 156,-193 156,-174 28,-174"/>
<text text-anchor="middle" x="92" y="-181" font-family="Helvetica,sans-Serif" font-size="10.00">uic_attribute_definitions.h</text>
</a>
</g>
</g>
<!-- Node13&#45;&gt;Node15 -->
<g id="edge22" class="edge">
<title>Node13&#45;&gt;Node15</title>
<path fill="none" stroke="midnightblue" d="M238.42,-235.4C204.89,-223.74 157.8,-207.37 126.17,-196.38"/>
<polygon fill="midnightblue" stroke="midnightblue" points="127.07,-192.98 116.47,-193.01 124.77,-199.6 127.07,-192.98"/>
</g>
<!-- Node16 -->
<g id="node16" class="node">
<title>Node16</title>
<g id="a_node16"><a xlink:title=" ">
<polygon fill="none" stroke="#bfbfbf" points="174.5,-168.5 174.5,-198.5 281.5,-198.5 281.5,-168.5 174.5,-168.5"/>
<text text-anchor="start" x="182.5" y="-186.5" font-family="Helvetica,sans-Serif" font-size="10.00">unify_dotdot_defined</text>
<text text-anchor="middle" x="228" y="-175.5" font-family="Helvetica,sans-Serif" font-size="10.00">_attribute_types.h</text>
</a>
</g>
</g>
<!-- Node13&#45;&gt;Node16 -->
<g id="edge23" class="edge">
<title>Node13&#45;&gt;Node16</title>
<path fill="none" stroke="midnightblue" d="M267.93,-235.4C261.32,-226.96 252.77,-216.07 245.28,-206.52"/>
<polygon fill="midnightblue" stroke="midnightblue" points="247.97,-204.28 239.04,-198.58 242.46,-208.6 247.97,-204.28"/>
</g>
<!-- Node18&#45;&gt;Node3 -->
<g id="edge40" class="edge">
<title>Node18&#45;&gt;Node3</title>
<path fill="none" stroke="midnightblue" d="M1049.21,-311.33C949.57,-311.56 687.24,-308.05 613,-266 587.6,-251.61 569.9,-221.57 560.6,-202.26"/>
<polygon fill="midnightblue" stroke="midnightblue" points="563.73,-200.69 556.4,-193.04 557.36,-203.59 563.73,-200.69"/>
</g>
<!-- Node18&#45;&gt;Node4 -->
<g id="edge36" class="edge">
<title>Node18&#45;&gt;Node4</title>
<path fill="none" stroke="midnightblue" d="M1126.58,-310.34C1159.48,-307.47 1204.99,-297.56 1228,-266 1245.25,-242.33 1214.59,-214.93 1191.11,-198.69"/>
<polygon fill="midnightblue" stroke="midnightblue" points="1192.84,-195.64 1182.57,-193.05 1188.98,-201.48 1192.84,-195.64"/>
</g>
<!-- Node18&#45;&gt;Node5 -->
<g id="edge28" class="edge">
<title>Node18&#45;&gt;Node5</title>
<path fill="none" stroke="midnightblue" d="M1049.41,-310.46C902.19,-308.2 375.94,-297.99 212,-266 112.92,-246.67 0,-285.44 0,-184.5 0,-184.5 0,-184.5 0,-121 0,-17.33 826.23,-11.07 1007.23,-10.94"/>
<polygon fill="midnightblue" stroke="midnightblue" points="1007.27,-14.44 1017.27,-10.94 1007.27,-7.44 1007.27,-14.44"/>
</g>
<!-- Node18&#45;&gt;Node8 -->
<g id="edge29" class="edge">
<title>Node18&#45;&gt;Node8</title>
<path fill="none" stroke="midnightblue" d="M1126.58,-309.33C1246.45,-303.95 1607.36,-286.22 1656,-266 1707.37,-244.64 1751,-240.13 1751,-184.5 1751,-184.5 1751,-184.5 1751,-121 1751,-32.43 1615.35,-14.8 1546.75,-11.55"/>
<polygon fill="midnightblue" stroke="midnightblue" points="1546.48,-8.04 1536.35,-11.15 1546.21,-15.03 1546.48,-8.04"/>
</g>
<!-- Node18&#45;&gt;Node9 -->
<g id="edge32" class="edge">
<title>Node18&#45;&gt;Node9</title>
<path fill="none" stroke="midnightblue" d="M1049.31,-309.96C946.55,-306.81 672.82,-295.69 646,-266 615.6,-232.35 599.52,-197.76 678,-112 693.16,-95.43 714.85,-84.96 735.96,-78.34"/>
<polygon fill="midnightblue" stroke="midnightblue" points="736.96,-81.7 745.6,-75.56 735.02,-74.97 736.96,-81.7"/>
</g>
<!-- Node18&#45;&gt;Node10 -->
<g id="edge31" class="edge">
<title>Node18&#45;&gt;Node10</title>
<path fill="none" stroke="midnightblue" d="M1126.5,-311.27C1162.67,-309.27 1215.39,-300.13 1244,-266 1287.87,-213.66 1276.75,-124.35 1269.22,-85.72"/>
<polygon fill="midnightblue" stroke="midnightblue" points="1272.63,-84.92 1267.15,-75.84 1265.78,-86.35 1272.63,-84.92"/>
</g>
<!-- Node18&#45;&gt;Node12 -->
<g id="edge30" class="edge">
<title>Node18&#45;&gt;Node12</title>
<path fill="none" stroke="midnightblue" d="M1049.3,-303.67C1012.34,-295.81 960.48,-282.25 948,-266 906.57,-212.07 922.88,-123.61 932.67,-85.46"/>
<polygon fill="midnightblue" stroke="midnightblue" points="936.08,-86.28 935.32,-75.72 929.32,-84.45 936.08,-86.28"/>
</g>
<!-- Node18&#45;&gt;Node13 -->
<g id="edge39" class="edge">
<title>Node18&#45;&gt;Node13</title>
<path fill="none" stroke="midnightblue" d="M1049.3,-308.84C946.87,-303.03 660.17,-286.12 422,-266 397.52,-263.93 370.73,-261.31 347.01,-258.87"/>
<polygon fill="midnightblue" stroke="midnightblue" points="347.36,-255.39 337.06,-257.83 346.64,-262.35 347.36,-255.39"/>
</g>
<!-- Node19 -->
<g id="node19" class="node">
<title>Node19</title>
<g id="a_node19"><a xlink:href="zwave__controller__keyset_8h.html" target="_top" xlink:title=" ">
<polygon fill="none" stroke="black" points="1351.5,-241 1351.5,-260 1484.5,-260 1484.5,-241 1351.5,-241"/>
<text text-anchor="middle" x="1418" y="-248" font-family="Helvetica,sans-Serif" font-size="10.00">zwave_controller_keyset.h</text>
</a>
</g>
</g>
<!-- Node18&#45;&gt;Node19 -->
<g id="edge33" class="edge">
<title>Node18&#45;&gt;Node19</title>
<path fill="none" stroke="midnightblue" d="M1126.5,-304.06C1184.23,-293.65 1293.61,-273.93 1360.73,-261.83"/>
<polygon fill="midnightblue" stroke="midnightblue" points="1361.5,-265.24 1370.72,-260.03 1360.26,-258.36 1361.5,-265.24"/>
</g>
<!-- Node20 -->
<g id="node20" class="node">
<title>Node20</title>
<g id="a_node20"><a xlink:href="zwave__command__class__version__types_8h.html" target="_top" xlink:title=" ">
<polygon fill="none" stroke="black" points="957,-235.5 957,-265.5 1079,-265.5 1079,-235.5 957,-235.5"/>
<text text-anchor="start" x="965" y="-253.5" font-family="Helvetica,sans-Serif" font-size="10.00">zwave_command_class</text>
<text text-anchor="middle" x="1018" y="-242.5" font-family="Helvetica,sans-Serif" font-size="10.00">_version_types.h</text>
</a>
</g>
</g>
<!-- Node18&#45;&gt;Node20 -->
<g id="edge37" class="edge">
<title>Node18&#45;&gt;Node20</title>
<path fill="none" stroke="midnightblue" d="M1077.97,-302.48C1068.67,-294.57 1054.45,-282.48 1042.2,-272.07"/>
<polygon fill="midnightblue" stroke="midnightblue" points="1044.38,-269.33 1034.5,-265.52 1039.85,-274.67 1044.38,-269.33"/>
</g>
<!-- Node21 -->
<g id="node21" class="node">
<title>Node21</title>
<g id="a_node21"><a xlink:href="zwave__command__class__wake__up__types_8h.html" target="_top" xlink:title=" ">
<polygon fill="none" stroke="black" points="1097,-235.5 1097,-265.5 1219,-265.5 1219,-235.5 1097,-235.5"/>
<text text-anchor="start" x="1105" y="-253.5" font-family="Helvetica,sans-Serif" font-size="10.00">zwave_command_class</text>
<text text-anchor="middle" x="1158" y="-242.5" font-family="Helvetica,sans-Serif" font-size="10.00">_wake_up_types.h</text>
</a>
</g>
</g>
<!-- Node18&#45;&gt;Node21 -->
<g id="edge38" class="edge">
<title>Node18&#45;&gt;Node21</title>
<path fill="none" stroke="midnightblue" d="M1098.03,-302.48C1107.33,-294.57 1121.55,-282.48 1133.8,-272.07"/>
<polygon fill="midnightblue" stroke="midnightblue" points="1136.15,-274.67 1141.5,-265.52 1131.62,-269.33 1136.15,-274.67"/>
</g>
<!-- Node19&#45;&gt;Node4 -->
<g id="edge35" class="edge">
<title>Node19&#45;&gt;Node4</title>
<path fill="none" stroke="midnightblue" d="M1385.06,-240.94C1340.28,-229.29 1260.13,-208.45 1210.76,-195.62"/>
<polygon fill="midnightblue" stroke="midnightblue" points="1211.57,-192.21 1201.01,-193.08 1209.81,-198.99 1211.57,-192.21"/>
</g>
<!-- Node19&#45;&gt;Node6 -->
<g id="edge34" class="edge">
<title>Node19&#45;&gt;Node6</title>
<path fill="none" stroke="midnightblue" d="M1415.98,-240.73C1414.07,-232.46 1411.11,-219.66 1408.51,-208.37"/>
<polygon fill="midnightblue" stroke="midnightblue" points="1411.91,-207.55 1406.25,-198.59 1405.09,-209.12 1411.91,-207.55"/>
</g>
<!-- Node22&#45;&gt;Node3 -->
<g id="edge42" class="edge">
<title>Node22&#45;&gt;Node3</title>
<path fill="none" stroke="midnightblue" d="M551.14,-302.31C551.46,-281.99 552.26,-231.05 552.7,-203.28"/>
<polygon fill="midnightblue" stroke="midnightblue" points="556.2,-203.31 552.86,-193.26 549.2,-203.2 556.2,-203.31"/>
</g>
<!-- Node23 -->
<g id="node23" class="node">
<title>Node23</title>
<g id="a_node23"><a xlink:title=" ">
<polygon fill="none" stroke="#bfbfbf" points="431,-235.5 431,-265.5 523,-265.5 523,-235.5 431,-235.5"/>
<text text-anchor="start" x="439" y="-253.5" font-family="Helvetica,sans-Serif" font-size="10.00">attribute_resolver</text>
<text text-anchor="middle" x="477" y="-242.5" font-family="Helvetica,sans-Serif" font-size="10.00">_rule.h</text>
</a>
</g>
</g>
<!-- Node22&#45;&gt;Node23 -->
<g id="edge43" class="edge">
<title>Node22&#45;&gt;Node23</title>
<path fill="none" stroke="midnightblue" d="M540.4,-302.48C530.56,-294.57 515.54,-282.48 502.58,-272.07"/>
<polygon fill="midnightblue" stroke="midnightblue" points="504.43,-269.06 494.44,-265.52 500.04,-274.52 504.43,-269.06"/>
</g>
<!-- Node24&#45;&gt;Node3 -->
<g id="edge45" class="edge">
<title>Node24&#45;&gt;Node3</title>
<path fill="none" stroke="midnightblue" d="M672.02,-235.4C645.23,-223.94 607.81,-207.94 582.12,-196.95"/>
<polygon fill="midnightblue" stroke="midnightblue" points="583.46,-193.72 572.89,-193.01 580.71,-200.16 583.46,-193.72"/>
</g>
<!-- Node24&#45;&gt;Node7 -->
<g id="edge50" class="edge">
<title>Node24&#45;&gt;Node7</title>
<path fill="none" stroke="midnightblue" d="M755.18,-237.03C758.16,-236.33 761.12,-235.65 764,-235 908.73,-202.4 944.9,-193.76 1091,-168 1169.14,-154.22 1259.09,-141.27 1320.75,-132.83"/>
<polygon fill="midnightblue" stroke="midnightblue" points="1321.35,-136.28 1330.78,-131.46 1320.4,-129.34 1321.35,-136.28"/>
</g>
<!-- Node24&#45;&gt;Node12 -->
<g id="edge46" class="edge">
<title>Node24&#45;&gt;Node12</title>
<path fill="none" stroke="midnightblue" d="M722.9,-235.48C765.95,-201.76 875.02,-116.33 919.09,-81.81"/>
<polygon fill="midnightblue" stroke="midnightblue" points="921.29,-84.54 927,-75.62 916.97,-79.03 921.29,-84.54"/>
</g>
<!-- Node25 -->
<g id="node25" class="node">
<title>Node25</title>
<g id="a_node25"><a xlink:href="zwave__unid_8h.html" target="_top" xlink:title=" ">
<polygon fill="none" stroke="black" points="686.5,-112.5 686.5,-131.5 763.5,-131.5 763.5,-112.5 686.5,-112.5"/>
<text text-anchor="middle" x="725" y="-119.5" font-family="Helvetica,sans-Serif" font-size="10.00">zwave_unid.h</text>
</a>
</g>
</g>
<!-- Node24&#45;&gt;Node25 -->
<g id="edge47" class="edge">
<title>Node24&#45;&gt;Node25</title>
<path fill="none" stroke="midnightblue" d="M707.22,-235.48C710.83,-212.62 718,-167.3 722.04,-141.71"/>
<polygon fill="midnightblue" stroke="midnightblue" points="725.51,-142.21 723.61,-131.79 718.59,-141.12 725.51,-142.21"/>
</g>
<!-- Node25&#45;&gt;Node9 -->
<g id="edge48" class="edge">
<title>Node25&#45;&gt;Node9</title>
<path fill="none" stroke="midnightblue" d="M737.69,-112.32C749.9,-103.98 768.58,-91.21 783,-81.35"/>
<polygon fill="midnightblue" stroke="midnightblue" points="785.06,-84.19 791.34,-75.65 781.11,-78.41 785.06,-84.19"/>
</g>
<!-- Node25&#45;&gt;Node12 -->
<g id="edge49" class="edge">
<title>Node25&#45;&gt;Node12</title>
<path fill="none" stroke="midnightblue" d="M758.75,-112.44C795.84,-103.04 855.49,-87.92 895.68,-77.73"/>
<polygon fill="midnightblue" stroke="midnightblue" points="896.62,-81.1 905.46,-75.25 894.9,-74.32 896.62,-81.1"/>
</g>
<!-- Node26&#45;&gt;Node6 -->
<g id="edge53" class="edge">
<title>Node26&#45;&gt;Node6</title>
<path fill="none" stroke="midnightblue" d="M1585.11,-240.87C1552.85,-230.88 1498.94,-214.2 1458.13,-201.56"/>
<polygon fill="midnightblue" stroke="midnightblue" points="1458.91,-198.14 1448.32,-198.53 1456.84,-204.83 1458.91,-198.14"/>
</g>
<!-- Node26&#45;&gt;Node12 -->
<g id="edge52" class="edge">
<title>Node26&#45;&gt;Node12</title>
<path fill="none" stroke="midnightblue" d="M1592.98,-240.9C1572.9,-231.84 1541.54,-216.49 1517,-199 1500.61,-187.32 1502.38,-176.19 1484,-168 1309.62,-90.33 1238.72,-187.26 1056,-132 1019.01,-120.81 980.61,-96.99 958.03,-81.5"/>
<polygon fill="midnightblue" stroke="midnightblue" points="959.84,-78.5 949.65,-75.63 955.83,-84.23 959.84,-78.5"/>
</g>
<!-- Node27 -->
<g id="node27" class="node">
<title>Node27</title>
<g id="a_node27"><a xlink:href="zwapi__protocol__transport_8h.html" target="_top" xlink:title="Z&#45;Wave API for transport application layer interface.">
<polygon fill="none" stroke="black" points="1065,-112.5 1065,-131.5 1199,-131.5 1199,-112.5 1065,-112.5"/>
<text text-anchor="middle" x="1132" y="-119.5" font-family="Helvetica,sans-Serif" font-size="10.00">zwapi_protocol_transport.h</text>
</a>
</g>
</g>
<!-- Node26&#45;&gt;Node27 -->
<g id="edge54" class="edge">
<title>Node26&#45;&gt;Node27</title>
<path fill="none" stroke="midnightblue" d="M1604.11,-240.76C1584.37,-221.56 1537.05,-176.72 1517,-168 1463.48,-144.73 1305.78,-132.34 1209.62,-126.76"/>
<polygon fill="midnightblue" stroke="midnightblue" points="1209.54,-123.25 1199.36,-126.18 1209.14,-130.24 1209.54,-123.25"/>
</g>
<!-- Node28 -->
<g id="node28" class="node">
<title>Node28</title>
<g id="a_node28"><a xlink:href="zwapi__protocol__basis_8h.html" target="_top" xlink:title="Z&#45;Wave API for basis controller/end node application interface.">
<polygon fill="none" stroke="black" points="1477.5,-112.5 1477.5,-131.5 1596.5,-131.5 1596.5,-112.5 1477.5,-112.5"/>
<text text-anchor="middle" x="1537" y="-119.5" font-family="Helvetica,sans-Serif" font-size="10.00">zwapi_protocol_basis.h</text>
</a>
</g>
</g>
<!-- Node26&#45;&gt;Node28 -->
<g id="edge59" class="edge">
<title>Node26&#45;&gt;Node28</title>
<path fill="none" stroke="midnightblue" d="M1639.3,-240.94C1658.24,-233.24 1682.42,-219.87 1694,-199 1700.69,-186.95 1702.29,-179 1694,-168 1682.53,-152.77 1639.78,-141.13 1601.79,-133.5"/>
<polygon fill="midnightblue" stroke="midnightblue" points="1602.22,-130.02 1591.74,-131.55 1600.89,-136.89 1602.22,-130.02"/>
</g>
<!-- Node29 -->
<g id="node29" class="node">
<title>Node29</title>
<g id="a_node29"><a xlink:href="zwave__tx__definitions_8h.html" target="_top" xlink:title=" ">
<polygon fill="none" stroke="black" points="1569,-174 1569,-193 1685,-193 1685,-174 1569,-174"/>
<text text-anchor="middle" x="1627" y="-181" font-family="Helvetica,sans-Serif" font-size="10.00">zwave_tx_definitions.h</text>
</a>
</g>
</g>
<!-- Node26&#45;&gt;Node29 -->
<g id="edge65" class="edge">
<title>Node26&#45;&gt;Node29</title>
<path fill="none" stroke="midnightblue" d="M1614.89,-240.73C1616.97,-231.09 1620.37,-215.3 1623.04,-202.91"/>
<polygon fill="midnightblue" stroke="midnightblue" points="1626.46,-203.64 1625.14,-193.13 1619.61,-202.17 1626.46,-203.64"/>
</g>
<!-- Node27&#45;&gt;Node5 -->
<g id="edge55" class="edge">
<title>Node27&#45;&gt;Node5</title>
<path fill="none" stroke="midnightblue" d="M1124.94,-112.37C1109.95,-94.05 1074.77,-51.05 1055.39,-27.36"/>
<polygon fill="midnightblue" stroke="midnightblue" points="1058.07,-25.11 1049.03,-19.59 1052.65,-29.55 1058.07,-25.11"/>
</g>
<!-- Node27&#45;&gt;Node8 -->
<g id="edge56" class="edge">
<title>Node27&#45;&gt;Node8</title>
<path fill="none" stroke="midnightblue" d="M1137.97,-112.06C1148.17,-97.59 1170.46,-69.3 1197,-56 1244.18,-32.35 1397.7,-18.75 1469.86,-13.51"/>
<polygon fill="midnightblue" stroke="midnightblue" points="1470.17,-17 1479.89,-12.8 1469.67,-10.01 1470.17,-17"/>
</g>
<!-- Node27&#45;&gt;Node9 -->
<g id="edge58" class="edge">
<title>Node27&#45;&gt;Node9</title>
<path fill="none" stroke="midnightblue" d="M1080.03,-112.44C1021.85,-102.87 927.64,-87.36 865.75,-77.17"/>
<polygon fill="midnightblue" stroke="midnightblue" points="866.17,-73.69 855.73,-75.52 865.03,-80.59 866.17,-73.69"/>
</g>
<!-- Node27&#45;&gt;Node12 -->
<g id="edge57" class="edge">
<title>Node27&#45;&gt;Node12</title>
<path fill="none" stroke="midnightblue" d="M1101.26,-112.44C1068.06,-103.2 1015.01,-88.44 978.44,-78.26"/>
<polygon fill="midnightblue" stroke="midnightblue" points="979.17,-74.83 968.6,-75.52 977.29,-81.57 979.17,-74.83"/>
</g>
<!-- Node28&#45;&gt;Node5 -->
<g id="edge60" class="edge">
<title>Node28&#45;&gt;Node5</title>
<path fill="none" stroke="midnightblue" d="M1517.78,-112.41C1485.73,-98.43 1419.05,-70.84 1360,-56 1258.95,-30.6 1135.98,-18.3 1076.94,-13.52"/>
<polygon fill="midnightblue" stroke="midnightblue" points="1076.92,-10 1066.68,-12.71 1076.37,-16.98 1076.92,-10"/>
</g>
<!-- Node28&#45;&gt;Node8 -->
<g id="edge61" class="edge">
<title>Node28&#45;&gt;Node8</title>
<path fill="none" stroke="midnightblue" d="M1545.49,-112.48C1556.88,-99.95 1574.65,-75.9 1565,-56 1558.6,-42.8 1546.25,-32.3 1534.67,-24.78"/>
<polygon fill="midnightblue" stroke="midnightblue" points="1536.45,-21.77 1526.08,-19.61 1532.84,-27.77 1536.45,-21.77"/>
</g>
<!-- Node28&#45;&gt;Node9 -->
<g id="edge64" class="edge">
<title>Node28&#45;&gt;Node9</title>
<path fill="none" stroke="midnightblue" d="M1477.19,-112.95C1474.08,-112.61 1471.01,-112.29 1468,-112 1214.9,-87.54 1150.47,-96.25 897,-76 893.11,-75.69 889.13,-75.36 885.11,-75.01"/>
<polygon fill="midnightblue" stroke="midnightblue" points="885.33,-71.52 875.06,-74.12 884.72,-78.49 885.33,-71.52"/>
</g>
<!-- Node28&#45;&gt;Node11 -->
<g id="edge63" class="edge">
<title>Node28&#45;&gt;Node11</title>
<path fill="none" stroke="midnightblue" d="M1532.21,-112.08C1528.24,-104.69 1522.47,-93.95 1517.57,-84.81"/>
<polygon fill="midnightblue" stroke="midnightblue" points="1520.51,-82.91 1512.7,-75.75 1514.35,-86.22 1520.51,-82.91"/>
</g>
<!-- Node28&#45;&gt;Node12 -->
<g id="edge62" class="edge">
<title>Node28&#45;&gt;Node12</title>
<path fill="none" stroke="midnightblue" d="M1477.18,-113.03C1474.08,-112.67 1471,-112.32 1468,-112 1287.17,-92.54 1070.88,-76.39 980.72,-69.97"/>
<polygon fill="midnightblue" stroke="midnightblue" points="980.84,-66.47 970.62,-69.26 980.34,-73.45 980.84,-66.47"/>
</g>
<!-- Node29&#45;&gt;Node7 -->
<g id="edge66" class="edge">
<title>Node29&#45;&gt;Node7</title>
<path fill="none" stroke="midnightblue" d="M1593.76,-173.98C1552.76,-163.46 1482.97,-145.56 1437.95,-134.01"/>
<polygon fill="midnightblue" stroke="midnightblue" points="1438.73,-130.6 1428.18,-131.51 1437,-137.38 1438.73,-130.6"/>
</g>
<!-- Node30&#45;&gt;Node6 -->
<g id="edge69" class="edge">
<title>Node30&#45;&gt;Node6</title>
<path fill="none" stroke="midnightblue" d="M1459.05,-305.15C1484.76,-299.16 1511.16,-287.68 1527,-266 1548.24,-236.92 1509.31,-215.3 1469.59,-201.66"/>
<polygon fill="midnightblue" stroke="midnightblue" points="1470.64,-198.32 1460.05,-198.53 1468.46,-204.97 1470.64,-198.32"/>
</g>
<!-- Node30&#45;&gt;Node10 -->
<g id="edge68" class="edge">
<title>Node30&#45;&gt;Node10</title>
<path fill="none" stroke="midnightblue" d="M1437.53,-302.44C1458.73,-296.1 1481.27,-285.1 1494,-266 1501.64,-254.54 1502.68,-245.7 1494,-235 1445.06,-174.69 1383.29,-247.97 1323,-199 1304.5,-183.97 1281.42,-118.24 1270.82,-85.57"/>
<polygon fill="midnightblue" stroke="midnightblue" points="1274.1,-84.34 1267.73,-75.88 1267.43,-86.47 1274.1,-84.34"/>
</g>
<!-- Node30&#45;&gt;Node19 -->
<g id="edge70" class="edge">
<title>Node30&#45;&gt;Node19</title>
<path fill="none" stroke="midnightblue" d="M1390.58,-302.48C1395.24,-293.82 1402.59,-280.15 1408.51,-269.15"/>
<polygon fill="midnightblue" stroke="midnightblue" points="1411.77,-270.47 1413.42,-260.01 1405.6,-267.16 1411.77,-270.47"/>
</g>
<!-- Node30&#45;&gt;Node26 -->
<g id="edge71" class="edge">
<title>Node30&#45;&gt;Node26</title>
<path fill="none" stroke="midnightblue" d="M1422.13,-302.45C1458.38,-293.74 1515.74,-279.62 1565,-266 1568.57,-265.01 1572.27,-263.96 1575.97,-262.88"/>
<polygon fill="midnightblue" stroke="midnightblue" points="1577.06,-266.2 1585.65,-260 1575.07,-259.49 1577.06,-266.2"/>
</g>
</g>
</svg>
