<?xml version="1.0" encoding="UTF-8" standalone="no"?>
<!DOCTYPE svg PUBLIC "-//W3C//DTD SVG 1.1//EN"
 "http://www.w3.org/Graphics/SVG/1.1/DTD/svg11.dtd">
<!-- Generated by graphviz version 2.43.0 (0)
 -->
<!-- Title: zwave_command_class_version_support_handler Pages: 1 -->
<svg width="1642pt" height="541pt"
 viewBox="0.00 0.00 1642.00 541.00" xmlns="http://www.w3.org/2000/svg" xmlns:xlink="http://www.w3.org/1999/xlink">
<g id="graph0" class="graph" transform="scale(1 1) rotate(0) translate(4 537)">
<title>zwave_command_class_version_support_handler</title>
<!-- Node1 -->
<g id="node1" class="node">
<title>Node1</title>
<g id="a_node1"><a xlink:title=" ">
<polygon fill="#bfbfbf" stroke="black" points="0,-332.5 0,-362.5 128,-362.5 128,-332.5 0,-332.5"/>
<text text-anchor="start" x="8" y="-350.5" font-family="Helvetica,sans-Serif" font-size="10.00">zwave_command_class</text>
<text text-anchor="middle" x="64" y="-339.5" font-family="Helvetica,sans-Serif" font-size="10.00">_version_support_handler</text>
</a>
</g>
</g>
<!-- Node2 -->
<g id="node2" class="node">
<title>Node2</title>
<g id="a_node2"><a xlink:href="zwave__command__class__version_8c.html#a5dd14321965d6474d3e3ef0dfe73a561" target="_top" xlink:title=" ">
<polygon fill="none" stroke="black" points="164,-360.5 164,-390.5 327,-390.5 327,-360.5 164,-360.5"/>
<text text-anchor="start" x="172" y="-378.5" font-family="Helvetica,sans-Serif" font-size="10.00">zwave_command_classes</text>
<text text-anchor="middle" x="245.5" y="-367.5" font-family="Helvetica,sans-Serif" font-size="10.00">_version_handler_capabilities_get</text>
</a>
</g>
</g>
<!-- Node1&#45;&gt;Node2 -->
<g id="edge1" class="edge">
<title>Node1&#45;&gt;Node2</title>
<path fill="none" stroke="midnightblue" d="M128.03,-357.33C136.47,-358.65 145.26,-360.02 154.06,-361.39"/>
<polygon fill="midnightblue" stroke="midnightblue" points="153.55,-364.86 163.97,-362.94 154.63,-357.94 153.55,-364.86"/>
</g>
<!-- Node6 -->
<g id="node6" class="node">
<title>Node6</title>
<g id="a_node6"><a xlink:href="zwave__command__class__version_8c.html#ab59ed649c84a333b9a7f4e1ebf42a11f" target="_top" xlink:title=" ">
<polygon fill="none" stroke="black" points="179.5,-410 179.5,-451 311.5,-451 311.5,-410 179.5,-410"/>
<text text-anchor="start" x="187.5" y="-439" font-family="Helvetica,sans-Serif" font-size="10.00">zwave_command_classes</text>
<text text-anchor="start" x="187.5" y="-428" font-family="Helvetica,sans-Serif" font-size="10.00">_version_handler_version</text>
<text text-anchor="middle" x="245.5" y="-417" font-family="Helvetica,sans-Serif" font-size="10.00">_cc_get</text>
</a>
</g>
</g>
<!-- Node1&#45;&gt;Node6 -->
<g id="edge5" class="edge">
<title>Node1&#45;&gt;Node6</title>
<path fill="none" stroke="midnightblue" d="M90.99,-362.66C110.68,-373.83 138.59,-389.03 164,-400.5 168.28,-402.43 172.72,-404.34 177.22,-406.21"/>
<polygon fill="midnightblue" stroke="midnightblue" points="175.93,-409.46 186.51,-409.96 178.55,-402.97 175.93,-409.46"/>
</g>
<!-- Node10 -->
<g id="node10" class="node">
<title>Node10</title>
<g id="a_node10"><a xlink:href="zwave__command__class__version_8c.html#a49e98971c907a7d4b0ab3b86f941df0e" target="_top" xlink:title=" ">
<polygon fill="none" stroke="black" points="172.5,-250.5 172.5,-280.5 318.5,-280.5 318.5,-250.5 172.5,-250.5"/>
<text text-anchor="start" x="180.5" y="-268.5" font-family="Helvetica,sans-Serif" font-size="10.00">zwave_command_classes</text>
<text text-anchor="middle" x="245.5" y="-257.5" font-family="Helvetica,sans-Serif" font-size="10.00">_version_handler_version_get</text>
</a>
</g>
</g>
<!-- Node1&#45;&gt;Node10 -->
<g id="edge10" class="edge">
<title>Node1&#45;&gt;Node10</title>
<path fill="none" stroke="midnightblue" d="M87.84,-332.4C107.43,-319.93 136.74,-302.41 164,-290.5 169.33,-288.17 174.94,-285.97 180.62,-283.9"/>
<polygon fill="midnightblue" stroke="midnightblue" points="181.91,-287.15 190.2,-280.56 179.61,-280.55 181.91,-287.15"/>
</g>
<!-- Node42 -->
<g id="node42" class="node">
<title>Node42</title>
<g id="a_node42"><a xlink:href="zwave__command__class__version_8c.html#a56dc326e5f799651f923c5bdf81c79d4" target="_top" xlink:title=" ">
<polygon fill="none" stroke="black" points="179.5,-300 179.5,-341 311.5,-341 311.5,-300 179.5,-300"/>
<text text-anchor="start" x="187.5" y="-329" font-family="Helvetica,sans-Serif" font-size="10.00">zwave_command_classes</text>
<text text-anchor="start" x="187.5" y="-318" font-family="Helvetica,sans-Serif" font-size="10.00">_version_handler_version</text>
<text text-anchor="middle" x="245.5" y="-307" font-family="Helvetica,sans-Serif" font-size="10.00">_software_get</text>
</a>
</g>
</g>
<!-- Node1&#45;&gt;Node42 -->
<g id="edge61" class="edge">
<title>Node1&#45;&gt;Node42</title>
<path fill="none" stroke="midnightblue" d="M128.03,-338.02C141.45,-336 155.73,-333.85 169.54,-331.78"/>
<polygon fill="midnightblue" stroke="midnightblue" points="170.12,-335.23 179.49,-330.28 169.08,-328.3 170.12,-335.23"/>
</g>
<!-- Node3 -->
<g id="node3" class="node">
<title>Node3</title>
<g id="a_node3"><a xlink:href="group__command__classes__utils.html#ga9a9c99943bf863fde841149699d15593" target="_top" xlink:title="function to send report frames with default tx options.">
<polygon fill="none" stroke="black" points="369,-357.5 369,-387.5 491,-387.5 491,-357.5 369,-357.5"/>
<text text-anchor="start" x="377" y="-375.5" font-family="Helvetica,sans-Serif" font-size="10.00">zwave_command_class</text>
<text text-anchor="middle" x="430" y="-364.5" font-family="Helvetica,sans-Serif" font-size="10.00">_send_report</text>
</a>
</g>
</g>
<!-- Node2&#45;&gt;Node3 -->
<g id="edge2" class="edge">
<title>Node2&#45;&gt;Node3</title>
<path fill="none" stroke="midnightblue" d="M327.08,-374.18C337.61,-374 348.33,-373.83 358.67,-373.66"/>
<polygon fill="midnightblue" stroke="midnightblue" points="358.92,-377.15 368.86,-373.49 358.8,-370.15 358.92,-377.15"/>
</g>
<!-- Node4 -->
<g id="node4" class="node">
<title>Node4</title>
<g id="a_node4"><a xlink:href="group__zwave__tx__scheme__selector.html#ga8f8d4442ddf4c165d5a79b9a25d6420d" target="_top" xlink:title="Define a Z&#45;Wave frame transmission options.">
<polygon fill="none" stroke="black" points="533.5,-338.5 533.5,-368.5 650.5,-368.5 650.5,-338.5 533.5,-338.5"/>
<text text-anchor="start" x="541.5" y="-356.5" font-family="Helvetica,sans-Serif" font-size="10.00">zwave_tx_scheme_get</text>
<text text-anchor="middle" x="592" y="-345.5" font-family="Helvetica,sans-Serif" font-size="10.00">_node_tx_options</text>
</a>
</g>
</g>
<!-- Node3&#45;&gt;Node4 -->
<g id="edge3" class="edge">
<title>Node3&#45;&gt;Node4</title>
<path fill="none" stroke="midnightblue" d="M491.03,-365.37C501.52,-364.13 512.49,-362.82 523.16,-361.56"/>
<polygon fill="midnightblue" stroke="midnightblue" points="523.76,-365.01 533.28,-360.35 522.94,-358.06 523.76,-365.01"/>
</g>
<!-- Node5 -->
<g id="node5" class="node">
<title>Node5</title>
<g id="a_node5"><a xlink:href="group__zwave__tx.html#gad1538f36d226fe8147c5e538625568df" target="_top" xlink:title="Queue and send frames to Z&#45;Wave nodes.">
<polygon fill="none" stroke="black" points="537.5,-388 537.5,-407 646.5,-407 646.5,-388 537.5,-388"/>
<text text-anchor="middle" x="592" y="-395" font-family="Helvetica,sans-Serif" font-size="10.00">zwave_tx_send_data</text>
</a>
</g>
</g>
<!-- Node3&#45;&gt;Node5 -->
<g id="edge4" class="edge">
<title>Node3&#45;&gt;Node5</title>
<path fill="none" stroke="midnightblue" d="M491.03,-381.88C502.95,-383.74 515.5,-385.7 527.52,-387.58"/>
<polygon fill="midnightblue" stroke="midnightblue" points="527.06,-391.05 537.48,-389.14 528.14,-384.13 527.06,-391.05"/>
</g>
<!-- Node6&#45;&gt;Node3 -->
<g id="edge6" class="edge">
<title>Node6&#45;&gt;Node3</title>
<path fill="none" stroke="midnightblue" d="M311.1,-409.97C331.01,-403.64 352.78,-396.72 372.13,-390.57"/>
<polygon fill="midnightblue" stroke="midnightblue" points="373.24,-393.89 381.71,-387.53 371.12,-387.22 373.24,-393.89"/>
</g>
<!-- Node7 -->
<g id="node7" class="node">
<title>Node7</title>
<g id="a_node7"><a xlink:href="group__zwave__command__handler.html#gaac5bc2ca2660912ba6bda3ca8a6b1912" target="_top" xlink:title="Get the version of Command Class that the handler handles.">
<polygon fill="none" stroke="black" points="365,-409.5 365,-439.5 495,-439.5 495,-409.5 365,-409.5"/>
<text text-anchor="start" x="373" y="-427.5" font-family="Helvetica,sans-Serif" font-size="10.00">zwave_command_handler</text>
<text text-anchor="middle" x="430" y="-416.5" font-family="Helvetica,sans-Serif" font-size="10.00">_get_version</text>
</a>
</g>
</g>
<!-- Node6&#45;&gt;Node7 -->
<g id="edge7" class="edge">
<title>Node6&#45;&gt;Node7</title>
<path fill="none" stroke="midnightblue" d="M311.61,-428.36C325.53,-427.9 340.34,-427.41 354.58,-426.95"/>
<polygon fill="midnightblue" stroke="midnightblue" points="354.95,-430.44 364.83,-426.61 354.72,-423.44 354.95,-430.44"/>
</g>
<!-- Node8 -->
<g id="node8" class="node">
<title>Node8</title>
<g id="a_node8"><a xlink:href="group__zwave__controller__transport.html#gac2a2517636452c80d8b6384fbc6963ac" target="_top" xlink:title="check if a command class is registered as an encapsulation cc in Z&#45;Wave controller transport framewor...">
<polygon fill="none" stroke="black" points="363,-458.5 363,-488.5 497,-488.5 497,-458.5 363,-458.5"/>
<text text-anchor="start" x="371" y="-476.5" font-family="Helvetica,sans-Serif" font-size="10.00">zwave_controller_transport</text>
<text text-anchor="middle" x="430" y="-465.5" font-family="Helvetica,sans-Serif" font-size="10.00">_is_encapsulation_cc</text>
</a>
</g>
</g>
<!-- Node6&#45;&gt;Node8 -->
<g id="edge8" class="edge">
<title>Node6&#45;&gt;Node8</title>
<path fill="none" stroke="midnightblue" d="M311.61,-445.84C325.75,-449.17 340.81,-452.72 355.25,-456.12"/>
<polygon fill="midnightblue" stroke="midnightblue" points="354.6,-459.57 365.14,-458.45 356.21,-452.75 354.6,-459.57"/>
</g>
<!-- Node9 -->
<g id="node9" class="node">
<title>Node9</title>
<g id="a_node9"><a xlink:href="zwave__controller__transport_8c.html#a98ff30ad35d280415fc1d0c576dfcbe2" target="_top" xlink:title="Get the transport by class object.">
<polygon fill="none" stroke="black" points="533,-464 533,-483 651,-483 651,-464 533,-464"/>
<text text-anchor="middle" x="592" y="-471" font-family="Helvetica,sans-Serif" font-size="10.00">get_transport_by_class</text>
</a>
</g>
</g>
<!-- Node8&#45;&gt;Node9 -->
<g id="edge9" class="edge">
<title>Node8&#45;&gt;Node9</title>
<path fill="none" stroke="midnightblue" d="M497,-473.5C505.45,-473.5 514.11,-473.5 522.59,-473.5"/>
<polygon fill="midnightblue" stroke="midnightblue" points="522.82,-477 532.82,-473.5 522.82,-470 522.82,-477"/>
</g>
<!-- Node10&#45;&gt;Node3 -->
<g id="edge60" class="edge">
<title>Node10&#45;&gt;Node3</title>
<path fill="none" stroke="midnightblue" d="M309.59,-280.51C315.76,-283.3 321.69,-286.6 327,-290.5 349.66,-307.13 341.43,-324.48 363,-342.5 367.52,-346.27 372.59,-349.67 377.86,-352.7"/>
<polygon fill="midnightblue" stroke="midnightblue" points="376.37,-355.88 386.85,-357.46 379.65,-349.69 376.37,-355.88"/>
</g>
<!-- Node11 -->
<g id="node11" class="node">
<title>Node11</title>
<g id="a_node11"><a xlink:href="group__zpc__config.html#ga4b057e8eb480ccf7000ecdaf97dcc168" target="_top" xlink:title="Get the current configuration. This must only be called after zpc_config_init.">
<polygon fill="none" stroke="black" points="388.5,-188 388.5,-207 471.5,-207 471.5,-188 388.5,-188"/>
<text text-anchor="middle" x="430" y="-195" font-family="Helvetica,sans-Serif" font-size="10.00">zpc_get_config</text>
</a>
</g>
</g>
<!-- Node10&#45;&gt;Node11 -->
<g id="edge11" class="edge">
<title>Node10&#45;&gt;Node11</title>
<path fill="none" stroke="midnightblue" d="M279.49,-250.4C302.59,-240.12 334.34,-226.61 363,-216.5 369.42,-214.23 376.26,-212.03 383.02,-209.98"/>
<polygon fill="midnightblue" stroke="midnightblue" points="384.19,-213.28 392.79,-207.09 382.21,-206.57 384.19,-213.28"/>
</g>
<!-- Node12 -->
<g id="node12" class="node">
<title>Node12</title>
<g id="a_node12"><a xlink:href="group__ZWAPI__INIT.html#gad82597a6e2fbd2ec943527dbcbc7ba4a" target="_top" xlink:title="Get the application version of the serial API on the Z&#45;Wave module.">
<polygon fill="none" stroke="black" points="370.5,-314 370.5,-333 489.5,-333 489.5,-314 370.5,-314"/>
<text text-anchor="middle" x="430" y="-321" font-family="Helvetica,sans-Serif" font-size="10.00">zwapi_get_app_version</text>
</a>
</g>
</g>
<!-- Node10&#45;&gt;Node12 -->
<g id="edge12" class="edge">
<title>Node10&#45;&gt;Node12</title>
<path fill="none" stroke="midnightblue" d="M296.43,-280.62C306.57,-283.8 317.15,-287.19 327,-290.5 343.13,-295.91 346.85,-298.14 363,-303.5 370.59,-306.02 378.71,-308.58 386.57,-311"/>
<polygon fill="midnightblue" stroke="midnightblue" points="385.74,-314.41 396.33,-313.97 387.78,-307.71 385.74,-314.41"/>
</g>
<!-- Node13 -->
<g id="node13" class="node">
<title>Node13</title>
<g id="a_node13"><a xlink:href="group__ZWAPI__INIT.html#ga347e74a3d3fa874fb48cc294a16a9d05" target="_top" xlink:title="returns the cached value of the library type for the module">
<polygon fill="none" stroke="black" points="372,-226 372,-245 488,-245 488,-226 372,-226"/>
<text text-anchor="middle" x="430" y="-233" font-family="Helvetica,sans-Serif" font-size="10.00">zwapi_get_library_type</text>
</a>
</g>
</g>
<!-- Node10&#45;&gt;Node13 -->
<g id="edge13" class="edge">
<title>Node10&#45;&gt;Node13</title>
<path fill="none" stroke="midnightblue" d="M318.63,-253.64C332.82,-251.31 347.66,-248.87 361.68,-246.57"/>
<polygon fill="midnightblue" stroke="midnightblue" points="362.43,-249.99 371.73,-244.91 361.29,-243.08 362.43,-249.99"/>
</g>
<!-- Node14 -->
<g id="node14" class="node">
<title>Node14</title>
<g id="a_node14"><a xlink:href="group__ZWAPI__INIT.html#gaf13ded01e7cae8823db451f5526a0dc9" target="_top" xlink:title="Retrieves versioning data from the Z&#45;Wave API Module.">
<polygon fill="none" stroke="black" points="379.5,-264.5 379.5,-294.5 480.5,-294.5 480.5,-264.5 379.5,-264.5"/>
<text text-anchor="start" x="387.5" y="-282.5" font-family="Helvetica,sans-Serif" font-size="10.00">zwapi_get_protocol</text>
<text text-anchor="middle" x="430" y="-271.5" font-family="Helvetica,sans-Serif" font-size="10.00">_version</text>
</a>
</g>
</g>
<!-- Node10&#45;&gt;Node14 -->
<g id="edge14" class="edge">
<title>Node10&#45;&gt;Node14</title>
<path fill="none" stroke="midnightblue" d="M318.63,-271.03C335.3,-272.31 352.87,-273.66 368.96,-274.89"/>
<polygon fill="midnightblue" stroke="midnightblue" points="369.06,-278.41 379.3,-275.69 369.59,-271.43 369.06,-278.41"/>
</g>
<!-- Node15 -->
<g id="node15" class="node">
<title>Node15</title>
<g id="a_node15"><a xlink:href="zwapi__session_8c.html#abf613a2ad7710ac80fb239ba55e621d7" target="_top" xlink:title="Send data frame to Z&#45;Wave chip via serial API, wait for ACK and a RES frame.">
<polygon fill="none" stroke="black" points="534.5,-264.5 534.5,-294.5 649.5,-294.5 649.5,-264.5 534.5,-264.5"/>
<text text-anchor="start" x="542.5" y="-282.5" font-family="Helvetica,sans-Serif" font-size="10.00">zwapi_session_send</text>
<text text-anchor="middle" x="592" y="-271.5" font-family="Helvetica,sans-Serif" font-size="10.00">_frame_with_response</text>
</a>
</g>
</g>
<!-- Node14&#45;&gt;Node15 -->
<g id="edge15" class="edge">
<title>Node14&#45;&gt;Node15</title>
<path fill="none" stroke="midnightblue" d="M480.75,-279.5C494.4,-279.5 509.44,-279.5 523.9,-279.5"/>
<polygon fill="midnightblue" stroke="midnightblue" points="524.3,-283 534.3,-279.5 524.3,-276 524.3,-283"/>
</g>
<!-- Node16 -->
<g id="node16" class="node">
<title>Node16</title>
<g id="a_node16"><a xlink:href="zwapi__connection_8c.html#a91ce3acd7eff779496789637a9c27f40" target="_top" xlink:title="Provides the data of the serial buffer for the last received frame.">
<polygon fill="none" stroke="black" points="1182.5,-502.5 1182.5,-532.5 1295.5,-532.5 1295.5,-502.5 1182.5,-502.5"/>
<text text-anchor="start" x="1190.5" y="-520.5" font-family="Helvetica,sans-Serif" font-size="10.00">zwapi_connection_get</text>
<text text-anchor="middle" x="1239" y="-509.5" font-family="Helvetica,sans-Serif" font-size="10.00">_last_rx_frame</text>
</a>
</g>
</g>
<!-- Node15&#45;&gt;Node16 -->
<g id="edge16" class="edge">
<title>Node15&#45;&gt;Node16</title>
<path fill="none" stroke="midnightblue" d="M612.38,-294.61C624.07,-304.1 638.98,-316.9 651,-329.5 668.92,-348.29 665.56,-360.85 687,-375.5 839.11,-479.42 1061.99,-507.29 1171.83,-514.76"/>
<polygon fill="midnightblue" stroke="midnightblue" points="1171.89,-518.28 1182.1,-515.43 1172.34,-511.29 1171.89,-518.28"/>
</g>
<!-- Node17 -->
<g id="node17" class="node">
<title>Node17</title>
<g id="a_node17"><a xlink:href="zwapi__connection_8c.html#a86b069d152a5c2f8ac95774a688dff48" target="_top" xlink:title="make the zwapi_connection_status types human readable.">
<polygon fill="none" stroke="black" points="687,-176.5 687,-206.5 814,-206.5 814,-176.5 687,-176.5"/>
<text text-anchor="start" x="695" y="-194.5" font-family="Helvetica,sans-Serif" font-size="10.00">zwapi_connection_status</text>
<text text-anchor="middle" x="750.5" y="-183.5" font-family="Helvetica,sans-Serif" font-size="10.00">_to_string</text>
</a>
</g>
</g>
<!-- Node15&#45;&gt;Node17 -->
<g id="edge17" class="edge">
<title>Node15&#45;&gt;Node17</title>
<path fill="none" stroke="midnightblue" d="M616.16,-264.26C634.94,-252.14 662.26,-235.02 687,-221.5 693.46,-217.97 700.41,-214.41 707.23,-211.04"/>
<polygon fill="midnightblue" stroke="midnightblue" points="708.94,-214.1 716.41,-206.58 705.89,-207.8 708.94,-214.1"/>
</g>
<!-- Node18 -->
<g id="node18" class="node">
<title>Node18</title>
<g id="a_node18"><a xlink:href="zwapi__session_8c.html#a1f2b3e7c2dcf31708ef8d333747352ba" target="_top" xlink:title=" ">
<polygon fill="none" stroke="black" points="1012.5,-409.5 1012.5,-439.5 1135.5,-439.5 1135.5,-409.5 1012.5,-409.5"/>
<text text-anchor="start" x="1020.5" y="-427.5" font-family="Helvetica,sans-Serif" font-size="10.00">zwapi_session_enqueue</text>
<text text-anchor="middle" x="1074" y="-416.5" font-family="Helvetica,sans-Serif" font-size="10.00">_frame</text>
</a>
</g>
</g>
<!-- Node15&#45;&gt;Node18 -->
<g id="edge18" class="edge">
<title>Node15&#45;&gt;Node18</title>
<path fill="none" stroke="midnightblue" d="M617.42,-294.6C661.84,-321.25 759.63,-376.2 850,-401.5 899.72,-415.42 957.8,-421.09 1002.22,-423.32"/>
<polygon fill="midnightblue" stroke="midnightblue" points="1002.19,-426.82 1012.34,-423.78 1002.51,-419.83 1002.19,-426.82"/>
</g>
<!-- Node21 -->
<g id="node21" class="node">
<title>Node21</title>
<g id="a_node21"><a xlink:href="zwapi__session_8c.html#a32577f3500efc3d937dbc68eebb3c370" target="_top" xlink:title="Send data frame to Z&#45;Wave chip via serial port and wait for ACK.">
<polygon fill="none" stroke="black" points="697,-264.5 697,-294.5 804,-294.5 804,-264.5 697,-264.5"/>
<text text-anchor="start" x="705" y="-282.5" font-family="Helvetica,sans-Serif" font-size="10.00">zwapi_session_send</text>
<text text-anchor="middle" x="750.5" y="-271.5" font-family="Helvetica,sans-Serif" font-size="10.00">_frame</text>
</a>
</g>
</g>
<!-- Node15&#45;&gt;Node21 -->
<g id="edge22" class="edge">
<title>Node15&#45;&gt;Node21</title>
<path fill="none" stroke="midnightblue" d="M649.5,-279.5C661.61,-279.5 674.47,-279.5 686.79,-279.5"/>
<polygon fill="midnightblue" stroke="midnightblue" points="686.99,-283 696.99,-279.5 686.99,-276 686.99,-283"/>
</g>
<!-- Node41 -->
<g id="node41" class="node">
<title>Node41</title>
<g id="a_node41"><a xlink:href="zwapi__session_8c.html#a9d30e1677f02d7730ab035aa9333235d" target="_top" xlink:title=" ">
<polygon fill="none" stroke="black" points="859.5,-163.5 859.5,-193.5 963.5,-193.5 963.5,-163.5 859.5,-163.5"/>
<text text-anchor="start" x="867.5" y="-181.5" font-family="Helvetica,sans-Serif" font-size="10.00">zwapi_session_wait</text>
<text text-anchor="middle" x="911.5" y="-170.5" font-family="Helvetica,sans-Serif" font-size="10.00">_for_response</text>
</a>
</g>
</g>
<!-- Node15&#45;&gt;Node41 -->
<g id="edge59" class="edge">
<title>Node15&#45;&gt;Node41</title>
<path fill="none" stroke="midnightblue" d="M649.72,-264.49C694.61,-252.27 758.72,-234.07 814,-215.5 830.34,-210.01 848,-203.43 863.7,-197.35"/>
<polygon fill="midnightblue" stroke="midnightblue" points="865.15,-200.55 873.19,-193.65 862.6,-194.03 865.15,-200.55"/>
</g>
<!-- Node18&#45;&gt;Node16 -->
<g id="edge19" class="edge">
<title>Node18&#45;&gt;Node16</title>
<path fill="none" stroke="midnightblue" d="M1094.04,-439.71C1113.53,-454.77 1145.13,-477.8 1175,-493.5 1178.25,-495.21 1181.64,-496.86 1185.1,-498.44"/>
<polygon fill="midnightblue" stroke="midnightblue" points="1183.79,-501.68 1194.36,-502.45 1186.57,-495.26 1183.79,-501.68"/>
</g>
<!-- Node19 -->
<g id="node19" class="node">
<title>Node19</title>
<g id="a_node19"><a xlink:href="zwapi__session_8c.html#ad7bac697ee2388b38ed3777b5a3862bc" target="_top" xlink:title=" ">
<polygon fill="none" stroke="black" points="1182.5,-453.5 1182.5,-483.5 1295.5,-483.5 1295.5,-453.5 1182.5,-453.5"/>
<text text-anchor="start" x="1190.5" y="-471.5" font-family="Helvetica,sans-Serif" font-size="10.00">zwapi_session_get_rx</text>
<text text-anchor="middle" x="1239" y="-460.5" font-family="Helvetica,sans-Serif" font-size="10.00">_queue_length</text>
</a>
</g>
</g>
<!-- Node18&#45;&gt;Node19 -->
<g id="edge20" class="edge">
<title>Node18&#45;&gt;Node19</title>
<path fill="none" stroke="midnightblue" d="M1130.64,-439.52C1144.07,-443.15 1158.55,-447.05 1172.39,-450.79"/>
<polygon fill="midnightblue" stroke="midnightblue" points="1171.77,-454.25 1182.33,-453.47 1173.59,-447.49 1171.77,-454.25"/>
</g>
<!-- Node20 -->
<g id="node20" class="node">
<title>Node20</title>
<g id="a_node20"><a xlink:href="group__ZWAPI__INIT.html#ga438a74c9752197d20d377874d5a61694" target="_top" xlink:title="Returns the pointer to the callbacks registered at init.">
<polygon fill="none" stroke="black" points="1175,-415 1175,-434 1303,-434 1303,-415 1175,-415"/>
<text text-anchor="middle" x="1239" y="-422" font-family="Helvetica,sans-Serif" font-size="10.00">zwave_api_get_callbacks</text>
</a>
</g>
</g>
<!-- Node18&#45;&gt;Node20 -->
<g id="edge21" class="edge">
<title>Node18&#45;&gt;Node20</title>
<path fill="none" stroke="midnightblue" d="M1135.7,-424.5C1145.17,-424.5 1155.04,-424.5 1164.76,-424.5"/>
<polygon fill="midnightblue" stroke="midnightblue" points="1164.8,-428 1174.8,-424.5 1164.8,-421 1164.8,-428"/>
</g>
<!-- Node21&#45;&gt;Node18 -->
<g id="edge40" class="edge">
<title>Node21&#45;&gt;Node18</title>
<path fill="none" stroke="midnightblue" d="M764.21,-294.69C781.56,-314.43 814.59,-348.62 850,-367.5 897.54,-392.84 956.84,-407.3 1002.35,-415.31"/>
<polygon fill="midnightblue" stroke="midnightblue" points="1001.98,-418.79 1012.42,-417.02 1003.15,-411.89 1001.98,-418.79"/>
</g>
<!-- Node22 -->
<g id="node22" class="node">
<title>Node22</title>
<g id="a_node22"><a xlink:href="zwapi__connection_8c.html#a13b6e6b6c56844f4344fabe490bc5eac" target="_top" xlink:title="Closes and re&#45;initializes the zwapi_connection to the Z&#45;Wave module.">
<polygon fill="none" stroke="black" points="1010,-251 1010,-270 1138,-270 1138,-251 1010,-251"/>
<text text-anchor="middle" x="1074" y="-258" font-family="Helvetica,sans-Serif" font-size="10.00">zwapi_connection_restart</text>
</a>
</g>
</g>
<!-- Node21&#45;&gt;Node22 -->
<g id="edge23" class="edge">
<title>Node21&#45;&gt;Node22</title>
<path fill="none" stroke="midnightblue" d="M804.23,-276.38C857.44,-273.24 940.05,-268.36 999.64,-264.84"/>
<polygon fill="midnightblue" stroke="midnightblue" points="999.97,-268.32 1009.74,-264.24 999.55,-261.33 999.97,-268.32"/>
</g>
<!-- Node32 -->
<g id="node32" class="node">
<title>Node32</title>
<g id="a_node32"><a xlink:href="zwapi__timestamp_8c.html#a6ebe1ddfe689bce6ee72fc12f708aece" target="_top" xlink:title="get the timestamp">
<polygon fill="none" stroke="black" points="1183,-213 1183,-232 1295,-232 1295,-213 1183,-213"/>
<text text-anchor="middle" x="1239" y="-220" font-family="Helvetica,sans-Serif" font-size="10.00">zwapi_timestamp_get</text>
</a>
</g>
</g>
<!-- Node21&#45;&gt;Node32 -->
<g id="edge58" class="edge">
<title>Node21&#45;&gt;Node32</title>
<path fill="none" stroke="midnightblue" d="M804.12,-270.72C818.94,-268.31 835.09,-265.74 850,-263.5 920.55,-252.89 938.09,-249.34 1009,-241.5 1064.11,-235.41 1126.88,-230.33 1172.75,-226.96"/>
<polygon fill="midnightblue" stroke="midnightblue" points="1173.14,-230.44 1182.86,-226.23 1172.63,-223.46 1173.14,-230.44"/>
</g>
<!-- Node33 -->
<g id="node33" class="node">
<title>Node33</title>
<g id="a_node33"><a xlink:href="zwapi__connection_8c.html#af47f8cbd93974d5c91d659fdeb7a870b" target="_top" xlink:title="Transmit a frame via serial port by adding SOF, Len, Type, cmd and Checksum.">
<polygon fill="none" stroke="black" points="1020,-289 1020,-308 1128,-308 1128,-289 1020,-289"/>
<text text-anchor="middle" x="1074" y="-296" font-family="Helvetica,sans-Serif" font-size="10.00">zwapi_connection_tx</text>
</a>
</g>
</g>
<!-- Node21&#45;&gt;Node33 -->
<g id="edge34" class="edge">
<title>Node21&#45;&gt;Node33</title>
<path fill="none" stroke="midnightblue" d="M804.23,-282.62C860.56,-285.95 949.83,-291.22 1009.86,-294.77"/>
<polygon fill="midnightblue" stroke="midnightblue" points="1009.79,-298.27 1019.97,-295.37 1010.2,-291.28 1009.79,-298.27"/>
</g>
<!-- Node35 -->
<g id="node35" class="node">
<title>Node35</title>
<g id="a_node35"><a xlink:href="zwapi__timestamp_8c.html#a3925f2732e344672608db38351236688" target="_top" xlink:title="compare the current timestamp with the timestamp passed as an argument">
<polygon fill="none" stroke="black" points="1186,-0.5 1186,-30.5 1292,-30.5 1292,-0.5 1186,-0.5"/>
<text text-anchor="start" x="1194" y="-18.5" font-family="Helvetica,sans-Serif" font-size="10.00">zwapi_is_timestamp</text>
<text text-anchor="middle" x="1239" y="-7.5" font-family="Helvetica,sans-Serif" font-size="10.00">_elapsed</text>
</a>
</g>
</g>
<!-- Node21&#45;&gt;Node35 -->
<g id="edge39" class="edge">
<title>Node21&#45;&gt;Node35</title>
<path fill="none" stroke="midnightblue" d="M768.33,-264.46C781.63,-252.08 800.19,-233.68 814,-215.5 833.28,-190.13 827.87,-176.43 850,-153.5 907.98,-93.44 930.96,-83.14 1009,-53.5 1063.05,-32.97 1128.45,-23.52 1175.49,-19.17"/>
<polygon fill="midnightblue" stroke="midnightblue" points="1175.88,-22.65 1185.54,-18.3 1175.27,-15.68 1175.88,-22.65"/>
</g>
<!-- Node36 -->
<g id="node36" class="node">
<title>Node36</title>
<g id="a_node36"><a xlink:href="zwapi__session_8c.html#a2875fbfa250b7b25ecb6bc4f0b032cb8" target="_top" xlink:title="Loads the received frames from the serial device into the zwapi_session receive queue.">
<polygon fill="none" stroke="black" points="850,-327.5 850,-357.5 973,-357.5 973,-327.5 850,-327.5"/>
<text text-anchor="start" x="858" y="-345.5" font-family="Helvetica,sans-Serif" font-size="10.00">zwapi_session_enqueue</text>
<text text-anchor="middle" x="911.5" y="-334.5" font-family="Helvetica,sans-Serif" font-size="10.00">_rx_frames</text>
</a>
</g>
</g>
<!-- Node21&#45;&gt;Node36 -->
<g id="edge41" class="edge">
<title>Node21&#45;&gt;Node36</title>
<path fill="none" stroke="midnightblue" d="M789.58,-294.59C811.63,-303.32 839.57,-314.39 863.03,-323.69"/>
<polygon fill="midnightblue" stroke="midnightblue" points="861.86,-326.99 872.45,-327.42 864.44,-320.49 861.86,-326.99"/>
</g>
<!-- Node21&#45;&gt;Node41 -->
<g id="edge54" class="edge">
<title>Node21&#45;&gt;Node41</title>
<path fill="none" stroke="midnightblue" d="M789.28,-264.39C797.8,-260.17 806.52,-255.17 814,-249.5 833.32,-234.85 830.77,-223.28 850,-208.5 854.7,-204.88 859.91,-201.53 865.24,-198.46"/>
<polygon fill="midnightblue" stroke="midnightblue" points="867.12,-201.43 874.26,-193.6 863.8,-195.27 867.12,-201.43"/>
</g>
<!-- Node23 -->
<g id="node23" class="node">
<title>Node23</title>
<g id="a_node23"><a xlink:href="zwapi__serial_8c.html#a3f2b3bd848e9fe0e6e137482bed06b46" target="_top" xlink:title="Flush the serial output if using buffered output.">
<polygon fill="none" stroke="black" points="1190.5,-251.5 1190.5,-281.5 1287.5,-281.5 1287.5,-251.5 1190.5,-251.5"/>
<text text-anchor="start" x="1198.5" y="-269.5" font-family="Helvetica,sans-Serif" font-size="10.00">zwapi_serial_drain</text>
<text text-anchor="middle" x="1239" y="-258.5" font-family="Helvetica,sans-Serif" font-size="10.00">_buffer</text>
</a>
</g>
</g>
<!-- Node22&#45;&gt;Node23 -->
<g id="edge24" class="edge">
<title>Node22&#45;&gt;Node23</title>
<path fill="none" stroke="midnightblue" d="M1138.02,-262.82C1151.87,-263.33 1166.47,-263.87 1180.11,-264.37"/>
<polygon fill="midnightblue" stroke="midnightblue" points="1180.2,-267.87 1190.32,-264.74 1180.45,-260.88 1180.2,-267.87"/>
</g>
<!-- Node24 -->
<g id="node24" class="node">
<title>Node24</title>
<g id="a_node24"><a xlink:href="zwapi__serial_8c.html#a7762d0358e9f398b92edbfd6a550984a" target="_top" xlink:title="Write a byte to serial port device.">
<polygon fill="none" stroke="black" points="1182.5,-175 1182.5,-194 1295.5,-194 1295.5,-175 1182.5,-175"/>
<text text-anchor="middle" x="1239" y="-182" font-family="Helvetica,sans-Serif" font-size="10.00">zwapi_serial_put_byte</text>
</a>
</g>
</g>
<!-- Node22&#45;&gt;Node24 -->
<g id="edge25" class="edge">
<title>Node22&#45;&gt;Node24</title>
<path fill="none" stroke="midnightblue" d="M1089.37,-250.92C1108.33,-238.62 1143.05,-217.22 1175,-203.5 1180.31,-201.22 1185.99,-199.1 1191.67,-197.16"/>
<polygon fill="midnightblue" stroke="midnightblue" points="1192.75,-200.49 1201.19,-194.08 1190.6,-193.83 1192.75,-200.49"/>
</g>
<!-- Node28 -->
<g id="node28" class="node">
<title>Node28</title>
<g id="a_node28"><a xlink:href="zwapi__serial_8c.html#aadf3397d0bd2c1657d4b1a373599acfe" target="_top" xlink:title="Closes and re&#45;initialize the last open serial port.">
<polygon fill="none" stroke="black" points="1187,-339 1187,-358 1291,-358 1291,-339 1187,-339"/>
<text text-anchor="middle" x="1239" y="-346" font-family="Helvetica,sans-Serif" font-size="10.00">zwapi_serial_restart</text>
</a>
</g>
</g>
<!-- Node22&#45;&gt;Node28 -->
<g id="edge29" class="edge">
<title>Node22&#45;&gt;Node28</title>
<path fill="none" stroke="midnightblue" d="M1114.33,-270.01C1122.66,-272.62 1131.27,-275.78 1139,-279.5 1168.96,-293.92 1199.82,-316.98 1218.95,-332.42"/>
<polygon fill="midnightblue" stroke="midnightblue" points="1216.92,-335.28 1226.87,-338.92 1221.36,-329.87 1216.92,-335.28"/>
</g>
<!-- Node22&#45;&gt;Node32 -->
<g id="edge33" class="edge">
<title>Node22&#45;&gt;Node32</title>
<path fill="none" stroke="midnightblue" d="M1116.13,-250.91C1137.74,-245.87 1164.41,-239.66 1187.29,-234.32"/>
<polygon fill="midnightblue" stroke="midnightblue" points="1188.22,-237.7 1197.16,-232.02 1186.63,-230.88 1188.22,-237.7"/>
</g>
<!-- Node25 -->
<g id="node25" class="node">
<title>Node25</title>
<g id="a_node25"><a xlink:href="zwapi__serial_8c.html#af9054824651df422bab5076d16a80fda" target="_top" xlink:title="Writes the content of a buffer to the serial port device.">
<polygon fill="none" stroke="black" points="1339,-176 1339,-195 1458,-195 1458,-176 1339,-176"/>
<text text-anchor="middle" x="1398.5" y="-183" font-family="Helvetica,sans-Serif" font-size="10.00">zwapi_serial_put_buffer</text>
</a>
</g>
</g>
<!-- Node24&#45;&gt;Node25 -->
<g id="edge26" class="edge">
<title>Node24&#45;&gt;Node25</title>
<path fill="none" stroke="midnightblue" d="M1295.53,-184.85C1306.24,-184.92 1317.59,-184.99 1328.66,-185.06"/>
<polygon fill="midnightblue" stroke="midnightblue" points="1328.71,-188.56 1338.74,-185.13 1328.76,-181.56 1328.71,-188.56"/>
</g>
<!-- Node26 -->
<g id="node26" class="node">
<title>Node26</title>
<g id="a_node26"><a xlink:href="zwapi__serial_8c.html#a0accbbf7ddb7aeab10f5df1fe3df6642" target="_top" xlink:title=" ">
<polygon fill="none" stroke="black" points="1494,-133 1494,-152 1634,-152 1634,-133 1494,-133"/>
<text text-anchor="middle" x="1564" y="-140" font-family="Helvetica,sans-Serif" font-size="10.00">zwapi_serial_log_timestamp</text>
</a>
</g>
</g>
<!-- Node25&#45;&gt;Node26 -->
<g id="edge27" class="edge">
<title>Node25&#45;&gt;Node26</title>
<path fill="none" stroke="midnightblue" d="M1435.79,-175.96C1459.71,-169.67 1491.24,-161.37 1516.93,-154.62"/>
<polygon fill="midnightblue" stroke="midnightblue" points="1518.03,-157.94 1526.82,-152.02 1516.25,-151.18 1518.03,-157.94"/>
</g>
<!-- Node27 -->
<g id="node27" class="node">
<title>Node27</title>
<g id="a_node27"><a xlink:href="zwapi__serial_8c.html#abf18afb71e14daaf65d937149ef1639f" target="_top" xlink:title="Test if a is less than b + ms.">
<polygon fill="none" stroke="black" points="1510.5,-171.5 1510.5,-201.5 1617.5,-201.5 1617.5,-171.5 1510.5,-171.5"/>
<text text-anchor="start" x="1518.5" y="-189.5" font-family="Helvetica,sans-Serif" font-size="10.00">zwapi_serial_timeval</text>
<text text-anchor="middle" x="1564" y="-178.5" font-family="Helvetica,sans-Serif" font-size="10.00">_a_lt_b_milis</text>
</a>
</g>
</g>
<!-- Node25&#45;&gt;Node27 -->
<g id="edge28" class="edge">
<title>Node25&#45;&gt;Node27</title>
<path fill="none" stroke="midnightblue" d="M1458.07,-185.86C1471.65,-185.94 1486.16,-186.03 1499.92,-186.11"/>
<polygon fill="midnightblue" stroke="midnightblue" points="1500.26,-189.62 1510.28,-186.18 1500.3,-182.62 1500.26,-189.62"/>
</g>
<!-- Node29 -->
<g id="node29" class="node">
<title>Node29</title>
<g id="a_node29"><a xlink:href="zwapi__serial_8c.html#aae586785021ac9a605cd77651429f0c9" target="_top" xlink:title="De&#45;Initialize the serial port.">
<polygon fill="none" stroke="black" points="1349,-358 1349,-377 1448,-377 1448,-358 1349,-358"/>
<text text-anchor="middle" x="1398.5" y="-365" font-family="Helvetica,sans-Serif" font-size="10.00">zwapi_serial_close</text>
</a>
</g>
</g>
<!-- Node28&#45;&gt;Node29 -->
<g id="edge30" class="edge">
<title>Node28&#45;&gt;Node29</title>
<path fill="none" stroke="midnightblue" d="M1291.14,-354.67C1306.31,-356.5 1323.06,-358.52 1338.68,-360.4"/>
<polygon fill="midnightblue" stroke="midnightblue" points="1338.42,-363.9 1348.76,-361.62 1339.25,-356.95 1338.42,-363.9"/>
</g>
<!-- Node30 -->
<g id="node30" class="node">
<title>Node30</title>
<g id="a_node30"><a xlink:href="zwapi__serial_8c.html#a07b09de97f4932d882fc77e191c44638" target="_top" xlink:title="Initialize the serial port to 115200 BAUD 8N1.">
<polygon fill="none" stroke="black" points="1354,-320 1354,-339 1443,-339 1443,-320 1354,-320"/>
<text text-anchor="middle" x="1398.5" y="-327" font-family="Helvetica,sans-Serif" font-size="10.00">zwapi_serial_init</text>
</a>
</g>
</g>
<!-- Node28&#45;&gt;Node30 -->
<g id="edge31" class="edge">
<title>Node28&#45;&gt;Node30</title>
<path fill="none" stroke="midnightblue" d="M1291.14,-342.33C1307.87,-340.31 1326.51,-338.06 1343.46,-336.02"/>
<polygon fill="midnightblue" stroke="midnightblue" points="1344.25,-339.45 1353.76,-334.78 1343.41,-332.5 1344.25,-339.45"/>
</g>
<!-- Node31 -->
<g id="node31" class="node">
<title>Node31</title>
<g id="a_node31"><a xlink:href="zwapi__serial_8c.html#aefeac5909b0bf6411db1492f69c3bc68" target="_top" xlink:title=" ">
<polygon fill="none" stroke="black" points="1504.5,-320 1504.5,-339 1623.5,-339 1623.5,-320 1504.5,-320"/>
<text text-anchor="middle" x="1564" y="-327" font-family="Helvetica,sans-Serif" font-size="10.00">zwapi_open_serial_port</text>
</a>
</g>
</g>
<!-- Node30&#45;&gt;Node31 -->
<g id="edge32" class="edge">
<title>Node30&#45;&gt;Node31</title>
<path fill="none" stroke="midnightblue" d="M1443.31,-329.5C1458.97,-329.5 1477.01,-329.5 1494.26,-329.5"/>
<polygon fill="midnightblue" stroke="midnightblue" points="1494.3,-333 1504.3,-329.5 1494.3,-326 1494.3,-333"/>
</g>
<!-- Node33&#45;&gt;Node23 -->
<g id="edge36" class="edge">
<title>Node33&#45;&gt;Node23</title>
<path fill="none" stroke="midnightblue" d="M1123.46,-288.99C1141.36,-285.47 1161.82,-281.46 1180.44,-277.8"/>
<polygon fill="midnightblue" stroke="midnightblue" points="1181.15,-281.23 1190.28,-275.87 1179.8,-274.36 1181.15,-281.23"/>
</g>
<!-- Node33&#45;&gt;Node25 -->
<g id="edge37" class="edge">
<title>Node33&#45;&gt;Node25</title>
<path fill="none" stroke="midnightblue" d="M1128.42,-307.98C1176.44,-313.95 1247.72,-316.29 1303,-290.5 1342.44,-272.1 1372.61,-228.76 1387.41,-203.9"/>
<polygon fill="midnightblue" stroke="midnightblue" points="1390.53,-205.49 1392.47,-195.07 1384.46,-202 1390.53,-205.49"/>
</g>
<!-- Node33&#45;&gt;Node32 -->
<g id="edge38" class="edge">
<title>Node33&#45;&gt;Node32</title>
<path fill="none" stroke="midnightblue" d="M1118.67,-288.9C1125.74,-286.41 1132.78,-283.32 1139,-279.5 1158.83,-267.33 1155.2,-253.71 1175,-241.5 1178.4,-239.4 1182.05,-237.52 1185.82,-235.84"/>
<polygon fill="midnightblue" stroke="midnightblue" points="1187.34,-239 1195.34,-232.05 1184.76,-232.49 1187.34,-239"/>
</g>
<!-- Node34 -->
<g id="node34" class="node">
<title>Node34</title>
<g id="a_node34"><a xlink:href="zwapi__connection_8c.html#a96d24d537c5b8d6aa0aa6a7638ba2f09" target="_top" xlink:title=" ">
<polygon fill="none" stroke="black" points="1181.5,-377 1181.5,-396 1296.5,-396 1296.5,-377 1181.5,-377"/>
<text text-anchor="middle" x="1239" y="-384" font-family="Helvetica,sans-Serif" font-size="10.00">zwapi_frame_to_string</text>
</a>
</g>
</g>
<!-- Node33&#45;&gt;Node34 -->
<g id="edge35" class="edge">
<title>Node33&#45;&gt;Node34</title>
<path fill="none" stroke="midnightblue" d="M1086.27,-308.05C1104.06,-322.7 1140.22,-350.76 1175,-367.5 1179.64,-369.73 1184.6,-371.77 1189.63,-373.61"/>
<polygon fill="midnightblue" stroke="midnightblue" points="1188.71,-376.99 1199.3,-376.9 1190.96,-370.37 1188.71,-376.99"/>
</g>
<!-- Node36&#45;&gt;Node18 -->
<g id="edge53" class="edge">
<title>Node36&#45;&gt;Node18</title>
<path fill="none" stroke="midnightblue" d="M943.34,-357.65C952.86,-362.37 963.38,-367.62 973,-372.5 993.6,-382.96 1016.46,-394.83 1035.13,-404.59"/>
<polygon fill="midnightblue" stroke="midnightblue" points="1033.71,-407.8 1044.19,-409.33 1036.96,-401.6 1033.71,-407.8"/>
</g>
<!-- Node37 -->
<g id="node37" class="node">
<title>Node37</title>
<g id="a_node37"><a xlink:href="zwapi__connection_8c.html#a1e45c6c9695b5e7b415adfad40080720" target="_top" xlink:title="Parses serial data sent from the Z&#45;Wave module to the serial port. Should be frequently called by mai...">
<polygon fill="none" stroke="black" points="1009,-137 1009,-156 1139,-156 1139,-137 1009,-137"/>
<text text-anchor="middle" x="1074" y="-144" font-family="Helvetica,sans-Serif" font-size="10.00">zwapi_connection_refresh</text>
</a>
</g>
</g>
<!-- Node36&#45;&gt;Node37 -->
<g id="edge42" class="edge">
<title>Node36&#45;&gt;Node37</title>
<path fill="none" stroke="midnightblue" d="M924.83,-327.45C953.91,-291.93 1026.72,-203.01 1058.16,-164.62"/>
<polygon fill="midnightblue" stroke="midnightblue" points="1061.25,-166.37 1064.88,-156.42 1055.84,-161.93 1061.25,-166.37"/>
</g>
<!-- Node37&#45;&gt;Node23 -->
<g id="edge44" class="edge">
<title>Node37&#45;&gt;Node23</title>
<path fill="none" stroke="midnightblue" d="M1082.87,-156.11C1098.61,-174.82 1135.86,-216.48 1175,-241.5 1177.97,-243.4 1181.1,-245.19 1184.32,-246.88"/>
<polygon fill="midnightblue" stroke="midnightblue" points="1183.03,-250.15 1193.56,-251.37 1186.09,-243.85 1183.03,-250.15"/>
</g>
<!-- Node37&#45;&gt;Node24 -->
<g id="edge51" class="edge">
<title>Node37&#45;&gt;Node24</title>
<path fill="none" stroke="midnightblue" d="M1116.13,-156.09C1137.74,-161.13 1164.41,-167.34 1187.29,-172.68"/>
<polygon fill="midnightblue" stroke="midnightblue" points="1186.63,-176.12 1197.16,-174.98 1188.22,-169.3 1186.63,-176.12"/>
</g>
<!-- Node37&#45;&gt;Node32 -->
<g id="edge52" class="edge">
<title>Node37&#45;&gt;Node32</title>
<path fill="none" stroke="midnightblue" d="M1107.7,-156.04C1118.1,-159.78 1129.39,-164.6 1139,-170.5 1157.5,-181.85 1156.14,-192.76 1175,-203.5 1178.85,-205.69 1182.97,-207.65 1187.2,-209.4"/>
<polygon fill="midnightblue" stroke="midnightblue" points="1185.97,-212.68 1196.56,-212.91 1188.43,-206.13 1185.97,-212.68"/>
</g>
<!-- Node37&#45;&gt;Node35 -->
<g id="edge43" class="edge">
<title>Node37&#45;&gt;Node35</title>
<path fill="none" stroke="midnightblue" d="M1097.55,-136.96C1110.88,-130.46 1127.36,-120.79 1139,-108.5 1162.78,-83.38 1149.15,-62.49 1175,-39.5 1176.32,-38.32 1177.71,-37.2 1179.15,-36.13"/>
<polygon fill="midnightblue" stroke="midnightblue" points="1181.31,-38.9 1187.86,-30.58 1177.55,-33 1181.31,-38.9"/>
</g>
<!-- Node38 -->
<g id="node38" class="node">
<title>Node38</title>
<g id="a_node38"><a xlink:href="zwapi__serial_8c.html#a538134f9fdbb1ce052667b3a041357bd" target="_top" xlink:title="Reads the output of the serial port device and stores the content in a buffer.">
<polygon fill="none" stroke="black" points="1339,-136 1339,-155 1458,-155 1458,-136 1339,-136"/>
<text text-anchor="middle" x="1398.5" y="-143" font-family="Helvetica,sans-Serif" font-size="10.00">zwapi_serial_get_buffer</text>
</a>
</g>
</g>
<!-- Node37&#45;&gt;Node38 -->
<g id="edge45" class="edge">
<title>Node37&#45;&gt;Node38</title>
<path fill="none" stroke="midnightblue" d="M1139.1,-146.3C1193.92,-146.13 1272.62,-145.89 1328.74,-145.71"/>
<polygon fill="midnightblue" stroke="midnightblue" points="1328.96,-149.21 1338.95,-145.68 1328.93,-142.21 1328.96,-149.21"/>
</g>
<!-- Node39 -->
<g id="node39" class="node">
<title>Node39</title>
<g id="a_node39"><a xlink:href="zwapi__serial_8c.html#abb082b1e7e727203e3ca5fbeb41f7c2b" target="_top" xlink:title="Reads a byte from the serial port device.">
<polygon fill="none" stroke="black" points="1182.5,-99 1182.5,-118 1295.5,-118 1295.5,-99 1182.5,-99"/>
<text text-anchor="middle" x="1239" y="-106" font-family="Helvetica,sans-Serif" font-size="10.00">zwapi_serial_get_byte</text>
</a>
</g>
</g>
<!-- Node37&#45;&gt;Node39 -->
<g id="edge48" class="edge">
<title>Node37&#45;&gt;Node39</title>
<path fill="none" stroke="midnightblue" d="M1116.13,-136.91C1137.74,-131.87 1164.41,-125.66 1187.29,-120.32"/>
<polygon fill="midnightblue" stroke="midnightblue" points="1188.22,-123.7 1197.16,-118.02 1186.63,-116.88 1188.22,-123.7"/>
</g>
<!-- Node40 -->
<g id="node40" class="node">
<title>Node40</title>
<g id="a_node40"><a xlink:href="zwapi__serial_8c.html#a9a952dc2b34d92960246f6dc4e7d58f7" target="_top" xlink:title="Check the file descriptor for the serial device is available for I/O operations.">
<polygon fill="none" stroke="black" points="1188.5,-49.5 1188.5,-79.5 1289.5,-79.5 1289.5,-49.5 1188.5,-49.5"/>
<text text-anchor="start" x="1196.5" y="-67.5" font-family="Helvetica,sans-Serif" font-size="10.00">zwapi_serial_is_file</text>
<text text-anchor="middle" x="1239" y="-56.5" font-family="Helvetica,sans-Serif" font-size="10.00">_available</text>
</a>
</g>
</g>
<!-- Node37&#45;&gt;Node40 -->
<g id="edge50" class="edge">
<title>Node37&#45;&gt;Node40</title>
<path fill="none" stroke="midnightblue" d="M1091.13,-136.94C1114.98,-122.86 1158.61,-97.38 1175,-89.5 1179.28,-87.44 1183.78,-85.41 1188.32,-83.45"/>
<polygon fill="midnightblue" stroke="midnightblue" points="1189.78,-86.64 1197.64,-79.54 1187.07,-80.18 1189.78,-86.64"/>
</g>
<!-- Node38&#45;&gt;Node26 -->
<g id="edge46" class="edge">
<title>Node38&#45;&gt;Node26</title>
<path fill="none" stroke="midnightblue" d="M1458.07,-144.43C1466.43,-144.27 1475.15,-144.11 1483.82,-143.95"/>
<polygon fill="midnightblue" stroke="midnightblue" points="1484.04,-147.45 1493.97,-143.77 1483.91,-140.45 1484.04,-147.45"/>
</g>
<!-- Node38&#45;&gt;Node27 -->
<g id="edge47" class="edge">
<title>Node38&#45;&gt;Node27</title>
<path fill="none" stroke="midnightblue" d="M1437.42,-155.01C1456.15,-159.71 1479.24,-165.5 1500.49,-170.82"/>
<polygon fill="midnightblue" stroke="midnightblue" points="1499.87,-174.28 1510.42,-173.32 1501.58,-167.49 1499.87,-174.28"/>
</g>
<!-- Node39&#45;&gt;Node38 -->
<g id="edge49" class="edge">
<title>Node39&#45;&gt;Node38</title>
<path fill="none" stroke="midnightblue" d="M1280.56,-118.03C1300.78,-122.78 1325.44,-128.57 1346.88,-133.61"/>
<polygon fill="midnightblue" stroke="midnightblue" points="1346.27,-137.06 1356.8,-135.94 1347.87,-130.25 1346.27,-137.06"/>
</g>
<!-- Node41&#45;&gt;Node32 -->
<g id="edge57" class="edge">
<title>Node41&#45;&gt;Node32</title>
<path fill="none" stroke="midnightblue" d="M963.79,-185.16C1009.71,-191.16 1078.87,-200.27 1139,-208.5 1149.86,-209.99 1161.39,-211.59 1172.6,-213.17"/>
<polygon fill="midnightblue" stroke="midnightblue" points="1172.38,-216.67 1182.77,-214.6 1173.36,-209.74 1172.38,-216.67"/>
</g>
<!-- Node41&#45;&gt;Node35 -->
<g id="edge56" class="edge">
<title>Node41&#45;&gt;Node35</title>
<path fill="none" stroke="midnightblue" d="M938.42,-163.4C984.92,-136.62 1085.99,-79.84 1175,-39.5 1178.84,-37.76 1182.84,-36.04 1186.89,-34.36"/>
<polygon fill="midnightblue" stroke="midnightblue" points="1188.4,-37.52 1196.36,-30.53 1185.77,-31.03 1188.4,-37.52"/>
</g>
<!-- Node41&#45;&gt;Node37 -->
<g id="edge55" class="edge">
<title>Node41&#45;&gt;Node37</title>
<path fill="none" stroke="midnightblue" d="M963.72,-168.29C980.06,-165.03 998.25,-161.4 1015.02,-158.06"/>
<polygon fill="midnightblue" stroke="midnightblue" points="1016.14,-161.41 1025.26,-156.02 1014.77,-154.54 1016.14,-161.41"/>
</g>
<!-- Node42&#45;&gt;Node3 -->
<g id="edge64" class="edge">
<title>Node42&#45;&gt;Node3</title>
<path fill="none" stroke="midnightblue" d="M311.61,-339.05C329.49,-344.15 348.83,-349.66 366.56,-354.71"/>
<polygon fill="midnightblue" stroke="midnightblue" points="365.64,-358.09 376.22,-357.46 367.56,-351.35 365.64,-358.09"/>
</g>
<!-- Node42&#45;&gt;Node12 -->
<g id="edge62" class="edge">
<title>Node42&#45;&gt;Node12</title>
<path fill="none" stroke="midnightblue" d="M311.61,-321.57C327.32,-321.83 344.15,-322.11 360.02,-322.37"/>
<polygon fill="midnightblue" stroke="midnightblue" points="360.23,-325.87 370.29,-322.53 360.35,-318.87 360.23,-325.87"/>
</g>
<!-- Node42&#45;&gt;Node14 -->
<g id="edge63" class="edge">
<title>Node42&#45;&gt;Node14</title>
<path fill="none" stroke="midnightblue" d="M311.61,-305.87C330.53,-301.62 351.08,-297 369.63,-292.84"/>
<polygon fill="midnightblue" stroke="midnightblue" points="370.42,-296.25 379.41,-290.64 368.88,-289.42 370.42,-296.25"/>
</g>
</g>
</svg>
