<?xml version="1.0" encoding="UTF-8" standalone="no"?>
<!DOCTYPE svg PUBLIC "-//W3C//DTD SVG 1.1//EN"
 "http://www.w3.org/Graphics/SVG/1.1/DTD/svg11.dtd">
<!-- Generated by graphviz version 2.43.0 (0)
 -->
<!-- Title: zwave_command_classes_version_handler_version_get Pages: 1 -->
<svg width="1448pt" height="541pt"
 viewBox="0.00 0.00 1448.00 541.00" xmlns="http://www.w3.org/2000/svg" xmlns:xlink="http://www.w3.org/1999/xlink">
<g id="graph0" class="graph" transform="scale(1 1) rotate(0) translate(4 537)">
<title>zwave_command_classes_version_handler_version_get</title>
<!-- Node1 -->
<g id="node1" class="node">
<title>Node1</title>
<g id="a_node1"><a xlink:title=" ">
<polygon fill="#bfbfbf" stroke="black" points="0,-308.5 0,-338.5 146,-338.5 146,-308.5 0,-308.5"/>
<text text-anchor="start" x="8" y="-326.5" font-family="Helvetica,sans-Serif" font-size="10.00">zwave_command_classes</text>
<text text-anchor="middle" x="73" y="-315.5" font-family="Helvetica,sans-Serif" font-size="10.00">_version_handler_version_get</text>
</a>
</g>
</g>
<!-- Node2 -->
<g id="node2" class="node">
<title>Node2</title>
<g id="a_node2"><a xlink:href="group__zpc__config.html#ga4b057e8eb480ccf7000ecdaf97dcc168" target="_top" xlink:title="Get the current configuration. This must only be called after zpc_config_init.">
<polygon fill="none" stroke="black" points="201.5,-390 201.5,-409 284.5,-409 284.5,-390 201.5,-390"/>
<text text-anchor="middle" x="243" y="-397" font-family="Helvetica,sans-Serif" font-size="10.00">zpc_get_config</text>
</a>
</g>
</g>
<!-- Node1&#45;&gt;Node2 -->
<g id="edge1" class="edge">
<title>Node1&#45;&gt;Node2</title>
<path fill="none" stroke="midnightblue" d="M99.56,-338.66C121.05,-351 152.86,-368.31 182,-380.5 187.36,-382.74 193.08,-384.87 198.78,-386.84"/>
<polygon fill="midnightblue" stroke="midnightblue" points="197.7,-390.17 208.29,-389.99 199.9,-383.52 197.7,-390.17"/>
</g>
<!-- Node3 -->
<g id="node3" class="node">
<title>Node3</title>
<g id="a_node3"><a xlink:href="group__ZWAPI__INIT.html#gad82597a6e2fbd2ec943527dbcbc7ba4a" target="_top" xlink:title="Get the application version of the serial API on the Z&#45;Wave module.">
<polygon fill="none" stroke="black" points="183.5,-352 183.5,-371 302.5,-371 302.5,-352 183.5,-352"/>
<text text-anchor="middle" x="243" y="-359" font-family="Helvetica,sans-Serif" font-size="10.00">zwapi_get_app_version</text>
</a>
</g>
</g>
<!-- Node1&#45;&gt;Node3 -->
<g id="edge2" class="edge">
<title>Node1&#45;&gt;Node3</title>
<path fill="none" stroke="midnightblue" d="M140.4,-338.52C156.8,-342.23 174.14,-346.15 189.76,-349.68"/>
<polygon fill="midnightblue" stroke="midnightblue" points="189.22,-353.15 199.75,-351.94 190.77,-346.32 189.22,-353.15"/>
</g>
<!-- Node4 -->
<g id="node4" class="node">
<title>Node4</title>
<g id="a_node4"><a xlink:href="group__ZWAPI__INIT.html#ga347e74a3d3fa874fb48cc294a16a9d05" target="_top" xlink:title="returns the cached value of the library type for the module">
<polygon fill="none" stroke="black" points="185,-314 185,-333 301,-333 301,-314 185,-314"/>
<text text-anchor="middle" x="243" y="-321" font-family="Helvetica,sans-Serif" font-size="10.00">zwapi_get_library_type</text>
</a>
</g>
</g>
<!-- Node1&#45;&gt;Node4 -->
<g id="edge3" class="edge">
<title>Node1&#45;&gt;Node4</title>
<path fill="none" stroke="midnightblue" d="M146.22,-323.5C155.69,-323.5 165.37,-323.5 174.75,-323.5"/>
<polygon fill="midnightblue" stroke="midnightblue" points="174.79,-327 184.79,-323.5 174.79,-320 174.79,-327"/>
</g>
<!-- Node5 -->
<g id="node5" class="node">
<title>Node5</title>
<g id="a_node5"><a xlink:href="group__ZWAPI__INIT.html#gaf13ded01e7cae8823db451f5526a0dc9" target="_top" xlink:title="Retrieves versioning data from the Z&#45;Wave API Module.">
<polygon fill="none" stroke="black" points="192.5,-264.5 192.5,-294.5 293.5,-294.5 293.5,-264.5 192.5,-264.5"/>
<text text-anchor="start" x="200.5" y="-282.5" font-family="Helvetica,sans-Serif" font-size="10.00">zwapi_get_protocol</text>
<text text-anchor="middle" x="243" y="-271.5" font-family="Helvetica,sans-Serif" font-size="10.00">_version</text>
</a>
</g>
</g>
<!-- Node1&#45;&gt;Node5 -->
<g id="edge4" class="edge">
<title>Node1&#45;&gt;Node5</title>
<path fill="none" stroke="midnightblue" d="M131.35,-308.48C147.8,-304.17 165.77,-299.46 182.36,-295.12"/>
<polygon fill="midnightblue" stroke="midnightblue" points="183.69,-298.39 192.48,-292.47 181.92,-291.62 183.69,-298.39"/>
</g>
<!-- Node33 -->
<g id="node33" class="node">
<title>Node33</title>
<g id="a_node33"><a xlink:href="group__command__classes__utils.html#ga9a9c99943bf863fde841149699d15593" target="_top" xlink:title="function to send report frames with default tx options.">
<polygon fill="none" stroke="black" points="182,-215.5 182,-245.5 304,-245.5 304,-215.5 182,-215.5"/>
<text text-anchor="start" x="190" y="-233.5" font-family="Helvetica,sans-Serif" font-size="10.00">zwave_command_class</text>
<text text-anchor="middle" x="243" y="-222.5" font-family="Helvetica,sans-Serif" font-size="10.00">_send_report</text>
</a>
</g>
</g>
<!-- Node1&#45;&gt;Node33 -->
<g id="edge50" class="edge">
<title>Node1&#45;&gt;Node33</title>
<path fill="none" stroke="midnightblue" d="M95.21,-308.25C116.49,-293.37 150.53,-270.66 182,-254.5 185.14,-252.89 188.41,-251.31 191.74,-249.78"/>
<polygon fill="midnightblue" stroke="midnightblue" points="193.45,-252.85 201.19,-245.62 190.63,-246.44 193.45,-252.85"/>
</g>
<!-- Node6 -->
<g id="node6" class="node">
<title>Node6</title>
<g id="a_node6"><a xlink:href="zwapi__session_8c.html#abf613a2ad7710ac80fb239ba55e621d7" target="_top" xlink:title="Send data frame to Z&#45;Wave chip via serial API, wait for ACK and a RES frame.">
<polygon fill="none" stroke="black" points="341,-264.5 341,-294.5 456,-294.5 456,-264.5 341,-264.5"/>
<text text-anchor="start" x="349" y="-282.5" font-family="Helvetica,sans-Serif" font-size="10.00">zwapi_session_send</text>
<text text-anchor="middle" x="398.5" y="-271.5" font-family="Helvetica,sans-Serif" font-size="10.00">_frame_with_response</text>
</a>
</g>
</g>
<!-- Node5&#45;&gt;Node6 -->
<g id="edge5" class="edge">
<title>Node5&#45;&gt;Node6</title>
<path fill="none" stroke="midnightblue" d="M293.84,-279.5C305.6,-279.5 318.33,-279.5 330.71,-279.5"/>
<polygon fill="midnightblue" stroke="midnightblue" points="330.99,-283 340.99,-279.5 330.99,-276 330.99,-283"/>
</g>
<!-- Node7 -->
<g id="node7" class="node">
<title>Node7</title>
<g id="a_node7"><a xlink:href="zwapi__connection_8c.html#a91ce3acd7eff779496789637a9c27f40" target="_top" xlink:title="Provides the data of the serial buffer for the last received frame.">
<polygon fill="none" stroke="black" points="988.5,-502.5 988.5,-532.5 1101.5,-532.5 1101.5,-502.5 988.5,-502.5"/>
<text text-anchor="start" x="996.5" y="-520.5" font-family="Helvetica,sans-Serif" font-size="10.00">zwapi_connection_get</text>
<text text-anchor="middle" x="1045" y="-509.5" font-family="Helvetica,sans-Serif" font-size="10.00">_last_rx_frame</text>
</a>
</g>
</g>
<!-- Node6&#45;&gt;Node7 -->
<g id="edge6" class="edge">
<title>Node6&#45;&gt;Node7</title>
<path fill="none" stroke="midnightblue" d="M410.09,-294.63C425.79,-315.96 457.26,-354.69 493,-376.5 649.78,-472.17 869.61,-503.25 978.1,-513.1"/>
<polygon fill="midnightblue" stroke="midnightblue" points="977.98,-516.6 988.25,-513.98 978.59,-509.63 977.98,-516.6"/>
</g>
<!-- Node8 -->
<g id="node8" class="node">
<title>Node8</title>
<g id="a_node8"><a xlink:href="zwapi__connection_8c.html#a86b069d152a5c2f8ac95774a688dff48" target="_top" xlink:title="make the zwapi_connection_status types human readable.">
<polygon fill="none" stroke="black" points="493,-176.5 493,-206.5 620,-206.5 620,-176.5 493,-176.5"/>
<text text-anchor="start" x="501" y="-194.5" font-family="Helvetica,sans-Serif" font-size="10.00">zwapi_connection_status</text>
<text text-anchor="middle" x="556.5" y="-183.5" font-family="Helvetica,sans-Serif" font-size="10.00">_to_string</text>
</a>
</g>
</g>
<!-- Node6&#45;&gt;Node8 -->
<g id="edge7" class="edge">
<title>Node6&#45;&gt;Node8</title>
<path fill="none" stroke="midnightblue" d="M435.59,-264.4C442.87,-260.84 450.34,-256.82 457,-252.5 474.72,-241.02 475.33,-233.06 493,-221.5 498.62,-217.83 504.75,-214.33 510.91,-211.11"/>
<polygon fill="midnightblue" stroke="midnightblue" points="512.54,-214.21 519.9,-206.59 509.4,-207.95 512.54,-214.21"/>
</g>
<!-- Node9 -->
<g id="node9" class="node">
<title>Node9</title>
<g id="a_node9"><a xlink:href="zwapi__session_8c.html#a1f2b3e7c2dcf31708ef8d333747352ba" target="_top" xlink:title=" ">
<polygon fill="none" stroke="black" points="818.5,-409.5 818.5,-439.5 941.5,-439.5 941.5,-409.5 818.5,-409.5"/>
<text text-anchor="start" x="826.5" y="-427.5" font-family="Helvetica,sans-Serif" font-size="10.00">zwapi_session_enqueue</text>
<text text-anchor="middle" x="880" y="-416.5" font-family="Helvetica,sans-Serif" font-size="10.00">_frame</text>
</a>
</g>
</g>
<!-- Node6&#45;&gt;Node9 -->
<g id="edge8" class="edge">
<title>Node6&#45;&gt;Node9</title>
<path fill="none" stroke="midnightblue" d="M423.87,-294.6C468.19,-321.25 565.79,-376.21 656,-401.5 705.72,-415.44 763.79,-421.11 808.21,-423.34"/>
<polygon fill="midnightblue" stroke="midnightblue" points="808.19,-426.84 818.33,-423.8 808.5,-419.84 808.19,-426.84"/>
</g>
<!-- Node12 -->
<g id="node12" class="node">
<title>Node12</title>
<g id="a_node12"><a xlink:href="zwapi__session_8c.html#a32577f3500efc3d937dbc68eebb3c370" target="_top" xlink:title="Send data frame to Z&#45;Wave chip via serial port and wait for ACK.">
<polygon fill="none" stroke="black" points="503,-264.5 503,-294.5 610,-294.5 610,-264.5 503,-264.5"/>
<text text-anchor="start" x="511" y="-282.5" font-family="Helvetica,sans-Serif" font-size="10.00">zwapi_session_send</text>
<text text-anchor="middle" x="556.5" y="-271.5" font-family="Helvetica,sans-Serif" font-size="10.00">_frame</text>
</a>
</g>
</g>
<!-- Node6&#45;&gt;Node12 -->
<g id="edge12" class="edge">
<title>Node6&#45;&gt;Node12</title>
<path fill="none" stroke="midnightblue" d="M456.26,-279.5C468.17,-279.5 480.8,-279.5 492.91,-279.5"/>
<polygon fill="midnightblue" stroke="midnightblue" points="492.93,-283 502.93,-279.5 492.93,-276 492.93,-283"/>
</g>
<!-- Node32 -->
<g id="node32" class="node">
<title>Node32</title>
<g id="a_node32"><a xlink:href="zwapi__session_8c.html#a9d30e1677f02d7730ab035aa9333235d" target="_top" xlink:title=" ">
<polygon fill="none" stroke="black" points="665.5,-163.5 665.5,-193.5 769.5,-193.5 769.5,-163.5 665.5,-163.5"/>
<text text-anchor="start" x="673.5" y="-181.5" font-family="Helvetica,sans-Serif" font-size="10.00">zwapi_session_wait</text>
<text text-anchor="middle" x="717.5" y="-170.5" font-family="Helvetica,sans-Serif" font-size="10.00">_for_response</text>
</a>
</g>
</g>
<!-- Node6&#45;&gt;Node32 -->
<g id="edge49" class="edge">
<title>Node6&#45;&gt;Node32</title>
<path fill="none" stroke="midnightblue" d="M456.09,-264.48C500.87,-252.25 564.84,-234.04 620,-215.5 636.34,-210.01 654,-203.43 669.7,-197.35"/>
<polygon fill="midnightblue" stroke="midnightblue" points="671.14,-200.54 679.19,-193.64 668.6,-194.02 671.14,-200.54"/>
</g>
<!-- Node9&#45;&gt;Node7 -->
<g id="edge9" class="edge">
<title>Node9&#45;&gt;Node7</title>
<path fill="none" stroke="midnightblue" d="M900.49,-439.66C920.07,-454.42 951.51,-476.86 981,-492.5 984.91,-494.57 989.02,-496.57 993.21,-498.48"/>
<polygon fill="midnightblue" stroke="midnightblue" points="991.84,-501.7 1002.41,-502.5 994.64,-495.29 991.84,-501.7"/>
</g>
<!-- Node10 -->
<g id="node10" class="node">
<title>Node10</title>
<g id="a_node10"><a xlink:href="zwapi__session_8c.html#ad7bac697ee2388b38ed3777b5a3862bc" target="_top" xlink:title=" ">
<polygon fill="none" stroke="black" points="988.5,-453.5 988.5,-483.5 1101.5,-483.5 1101.5,-453.5 988.5,-453.5"/>
<text text-anchor="start" x="996.5" y="-471.5" font-family="Helvetica,sans-Serif" font-size="10.00">zwapi_session_get_rx</text>
<text text-anchor="middle" x="1045" y="-460.5" font-family="Helvetica,sans-Serif" font-size="10.00">_queue_length</text>
</a>
</g>
</g>
<!-- Node9&#45;&gt;Node10 -->
<g id="edge10" class="edge">
<title>Node9&#45;&gt;Node10</title>
<path fill="none" stroke="midnightblue" d="M936.64,-439.52C950.07,-443.15 964.55,-447.05 978.39,-450.79"/>
<polygon fill="midnightblue" stroke="midnightblue" points="977.77,-454.25 988.33,-453.47 979.59,-447.49 977.77,-454.25"/>
</g>
<!-- Node11 -->
<g id="node11" class="node">
<title>Node11</title>
<g id="a_node11"><a xlink:href="group__ZWAPI__INIT.html#ga438a74c9752197d20d377874d5a61694" target="_top" xlink:title="Returns the pointer to the callbacks registered at init.">
<polygon fill="none" stroke="black" points="981,-415 981,-434 1109,-434 1109,-415 981,-415"/>
<text text-anchor="middle" x="1045" y="-422" font-family="Helvetica,sans-Serif" font-size="10.00">zwave_api_get_callbacks</text>
</a>
</g>
</g>
<!-- Node9&#45;&gt;Node11 -->
<g id="edge11" class="edge">
<title>Node9&#45;&gt;Node11</title>
<path fill="none" stroke="midnightblue" d="M941.7,-424.5C951.17,-424.5 961.04,-424.5 970.76,-424.5"/>
<polygon fill="midnightblue" stroke="midnightblue" points="970.8,-428 980.8,-424.5 970.8,-421 970.8,-428"/>
</g>
<!-- Node12&#45;&gt;Node9 -->
<g id="edge30" class="edge">
<title>Node12&#45;&gt;Node9</title>
<path fill="none" stroke="midnightblue" d="M570.56,-294.82C588.04,-314.36 620.95,-347.85 656,-366.5 703.61,-391.83 762.91,-406.57 808.39,-414.84"/>
<polygon fill="midnightblue" stroke="midnightblue" points="808.01,-418.33 818.46,-416.61 809.22,-411.43 808.01,-418.33"/>
</g>
<!-- Node13 -->
<g id="node13" class="node">
<title>Node13</title>
<g id="a_node13"><a xlink:href="zwapi__connection_8c.html#a13b6e6b6c56844f4344fabe490bc5eac" target="_top" xlink:title="Closes and re&#45;initializes the zwapi_connection to the Z&#45;Wave module.">
<polygon fill="none" stroke="black" points="816,-251 816,-270 944,-270 944,-251 816,-251"/>
<text text-anchor="middle" x="880" y="-258" font-family="Helvetica,sans-Serif" font-size="10.00">zwapi_connection_restart</text>
</a>
</g>
</g>
<!-- Node12&#45;&gt;Node13 -->
<g id="edge13" class="edge">
<title>Node12&#45;&gt;Node13</title>
<path fill="none" stroke="midnightblue" d="M610.23,-276.38C663.44,-273.24 746.05,-268.36 805.64,-264.84"/>
<polygon fill="midnightblue" stroke="midnightblue" points="805.97,-268.32 815.74,-264.24 805.55,-261.33 805.97,-268.32"/>
</g>
<!-- Node23 -->
<g id="node23" class="node">
<title>Node23</title>
<g id="a_node23"><a xlink:href="zwapi__timestamp_8c.html#a6ebe1ddfe689bce6ee72fc12f708aece" target="_top" xlink:title="get the timestamp">
<polygon fill="none" stroke="black" points="989,-213 989,-232 1101,-232 1101,-213 989,-213"/>
<text text-anchor="middle" x="1045" y="-220" font-family="Helvetica,sans-Serif" font-size="10.00">zwapi_timestamp_get</text>
</a>
</g>
</g>
<!-- Node12&#45;&gt;Node23 -->
<g id="edge48" class="edge">
<title>Node12&#45;&gt;Node23</title>
<path fill="none" stroke="midnightblue" d="M610.12,-270.72C624.94,-268.31 641.09,-265.74 656,-263.5 726.55,-252.89 744.09,-249.34 815,-241.5 870.11,-235.41 932.88,-230.33 978.75,-226.96"/>
<polygon fill="midnightblue" stroke="midnightblue" points="979.14,-230.44 988.86,-226.23 978.63,-223.46 979.14,-230.44"/>
</g>
<!-- Node24 -->
<g id="node24" class="node">
<title>Node24</title>
<g id="a_node24"><a xlink:href="zwapi__connection_8c.html#af47f8cbd93974d5c91d659fdeb7a870b" target="_top" xlink:title="Transmit a frame via serial port by adding SOF, Len, Type, cmd and Checksum.">
<polygon fill="none" stroke="black" points="826,-289 826,-308 934,-308 934,-289 826,-289"/>
<text text-anchor="middle" x="880" y="-296" font-family="Helvetica,sans-Serif" font-size="10.00">zwapi_connection_tx</text>
</a>
</g>
</g>
<!-- Node12&#45;&gt;Node24 -->
<g id="edge24" class="edge">
<title>Node12&#45;&gt;Node24</title>
<path fill="none" stroke="midnightblue" d="M610.23,-282.62C666.56,-285.95 755.83,-291.22 815.86,-294.77"/>
<polygon fill="midnightblue" stroke="midnightblue" points="815.79,-298.27 825.97,-295.37 816.2,-291.28 815.79,-298.27"/>
</g>
<!-- Node26 -->
<g id="node26" class="node">
<title>Node26</title>
<g id="a_node26"><a xlink:href="zwapi__timestamp_8c.html#a3925f2732e344672608db38351236688" target="_top" xlink:title="compare the current timestamp with the timestamp passed as an argument">
<polygon fill="none" stroke="black" points="992,-0.5 992,-30.5 1098,-30.5 1098,-0.5 992,-0.5"/>
<text text-anchor="start" x="1000" y="-18.5" font-family="Helvetica,sans-Serif" font-size="10.00">zwapi_is_timestamp</text>
<text text-anchor="middle" x="1045" y="-7.5" font-family="Helvetica,sans-Serif" font-size="10.00">_elapsed</text>
</a>
</g>
</g>
<!-- Node12&#45;&gt;Node26 -->
<g id="edge29" class="edge">
<title>Node12&#45;&gt;Node26</title>
<path fill="none" stroke="midnightblue" d="M574.33,-264.46C587.63,-252.08 606.19,-233.68 620,-215.5 639.28,-190.13 633.87,-176.43 656,-153.5 713.98,-93.44 736.96,-83.14 815,-53.5 869.05,-32.97 934.45,-23.52 981.49,-19.17"/>
<polygon fill="midnightblue" stroke="midnightblue" points="981.88,-22.65 991.54,-18.3 981.27,-15.68 981.88,-22.65"/>
</g>
<!-- Node27 -->
<g id="node27" class="node">
<title>Node27</title>
<g id="a_node27"><a xlink:href="zwapi__session_8c.html#a2875fbfa250b7b25ecb6bc4f0b032cb8" target="_top" xlink:title="Loads the received frames from the serial device into the zwapi_session receive queue.">
<polygon fill="none" stroke="black" points="656,-327.5 656,-357.5 779,-357.5 779,-327.5 656,-327.5"/>
<text text-anchor="start" x="664" y="-345.5" font-family="Helvetica,sans-Serif" font-size="10.00">zwapi_session_enqueue</text>
<text text-anchor="middle" x="717.5" y="-334.5" font-family="Helvetica,sans-Serif" font-size="10.00">_rx_frames</text>
</a>
</g>
</g>
<!-- Node12&#45;&gt;Node27 -->
<g id="edge31" class="edge">
<title>Node12&#45;&gt;Node27</title>
<path fill="none" stroke="midnightblue" d="M595.58,-294.59C617.63,-303.32 645.57,-314.39 669.03,-323.69"/>
<polygon fill="midnightblue" stroke="midnightblue" points="667.86,-326.99 678.45,-327.42 670.44,-320.49 667.86,-326.99"/>
</g>
<!-- Node12&#45;&gt;Node32 -->
<g id="edge44" class="edge">
<title>Node12&#45;&gt;Node32</title>
<path fill="none" stroke="midnightblue" d="M595.28,-264.39C603.8,-260.17 612.52,-255.17 620,-249.5 639.32,-234.85 636.77,-223.28 656,-208.5 660.7,-204.88 665.91,-201.53 671.24,-198.46"/>
<polygon fill="midnightblue" stroke="midnightblue" points="673.12,-201.43 680.26,-193.6 669.8,-195.27 673.12,-201.43"/>
</g>
<!-- Node14 -->
<g id="node14" class="node">
<title>Node14</title>
<g id="a_node14"><a xlink:href="zwapi__serial_8c.html#a3f2b3bd848e9fe0e6e137482bed06b46" target="_top" xlink:title="Flush the serial output if using buffered output.">
<polygon fill="none" stroke="black" points="996.5,-251.5 996.5,-281.5 1093.5,-281.5 1093.5,-251.5 996.5,-251.5"/>
<text text-anchor="start" x="1004.5" y="-269.5" font-family="Helvetica,sans-Serif" font-size="10.00">zwapi_serial_drain</text>
<text text-anchor="middle" x="1045" y="-258.5" font-family="Helvetica,sans-Serif" font-size="10.00">_buffer</text>
</a>
</g>
</g>
<!-- Node13&#45;&gt;Node14 -->
<g id="edge14" class="edge">
<title>Node13&#45;&gt;Node14</title>
<path fill="none" stroke="midnightblue" d="M944.02,-262.82C957.87,-263.33 972.47,-263.87 986.11,-264.37"/>
<polygon fill="midnightblue" stroke="midnightblue" points="986.2,-267.87 996.32,-264.74 986.45,-260.88 986.2,-267.87"/>
</g>
<!-- Node15 -->
<g id="node15" class="node">
<title>Node15</title>
<g id="a_node15"><a xlink:href="zwapi__serial_8c.html#a7762d0358e9f398b92edbfd6a550984a" target="_top" xlink:title="Write a byte to serial port device.">
<polygon fill="none" stroke="black" points="988.5,-175 988.5,-194 1101.5,-194 1101.5,-175 988.5,-175"/>
<text text-anchor="middle" x="1045" y="-182" font-family="Helvetica,sans-Serif" font-size="10.00">zwapi_serial_put_byte</text>
</a>
</g>
</g>
<!-- Node13&#45;&gt;Node15 -->
<g id="edge15" class="edge">
<title>Node13&#45;&gt;Node15</title>
<path fill="none" stroke="midnightblue" d="M895.37,-250.92C914.33,-238.62 949.05,-217.22 981,-203.5 986.31,-201.22 991.99,-199.1 997.67,-197.16"/>
<polygon fill="midnightblue" stroke="midnightblue" points="998.75,-200.49 1007.19,-194.08 996.6,-193.83 998.75,-200.49"/>
</g>
<!-- Node19 -->
<g id="node19" class="node">
<title>Node19</title>
<g id="a_node19"><a xlink:href="zwapi__serial_8c.html#aadf3397d0bd2c1657d4b1a373599acfe" target="_top" xlink:title="Closes and re&#45;initialize the last open serial port.">
<polygon fill="none" stroke="black" points="993,-339 993,-358 1097,-358 1097,-339 993,-339"/>
<text text-anchor="middle" x="1045" y="-346" font-family="Helvetica,sans-Serif" font-size="10.00">zwapi_serial_restart</text>
</a>
</g>
</g>
<!-- Node13&#45;&gt;Node19 -->
<g id="edge19" class="edge">
<title>Node13&#45;&gt;Node19</title>
<path fill="none" stroke="midnightblue" d="M920.33,-270.01C928.66,-272.62 937.27,-275.78 945,-279.5 974.96,-293.92 1005.82,-316.98 1024.95,-332.42"/>
<polygon fill="midnightblue" stroke="midnightblue" points="1022.92,-335.28 1032.87,-338.92 1027.36,-329.87 1022.92,-335.28"/>
</g>
<!-- Node13&#45;&gt;Node23 -->
<g id="edge23" class="edge">
<title>Node13&#45;&gt;Node23</title>
<path fill="none" stroke="midnightblue" d="M922.13,-250.91C943.74,-245.87 970.41,-239.66 993.29,-234.32"/>
<polygon fill="midnightblue" stroke="midnightblue" points="994.22,-237.7 1003.16,-232.02 992.63,-230.88 994.22,-237.7"/>
</g>
<!-- Node16 -->
<g id="node16" class="node">
<title>Node16</title>
<g id="a_node16"><a xlink:href="zwapi__serial_8c.html#af9054824651df422bab5076d16a80fda" target="_top" xlink:title="Writes the content of a buffer to the serial port device.">
<polygon fill="none" stroke="black" points="1145,-176 1145,-195 1264,-195 1264,-176 1145,-176"/>
<text text-anchor="middle" x="1204.5" y="-183" font-family="Helvetica,sans-Serif" font-size="10.00">zwapi_serial_put_buffer</text>
</a>
</g>
</g>
<!-- Node15&#45;&gt;Node16 -->
<g id="edge16" class="edge">
<title>Node15&#45;&gt;Node16</title>
<path fill="none" stroke="midnightblue" d="M1101.53,-184.85C1112.24,-184.92 1123.59,-184.99 1134.66,-185.06"/>
<polygon fill="midnightblue" stroke="midnightblue" points="1134.71,-188.56 1144.74,-185.13 1134.76,-181.56 1134.71,-188.56"/>
</g>
<!-- Node17 -->
<g id="node17" class="node">
<title>Node17</title>
<g id="a_node17"><a xlink:href="zwapi__serial_8c.html#a0accbbf7ddb7aeab10f5df1fe3df6642" target="_top" xlink:title=" ">
<polygon fill="none" stroke="black" points="1300,-133 1300,-152 1440,-152 1440,-133 1300,-133"/>
<text text-anchor="middle" x="1370" y="-140" font-family="Helvetica,sans-Serif" font-size="10.00">zwapi_serial_log_timestamp</text>
</a>
</g>
</g>
<!-- Node16&#45;&gt;Node17 -->
<g id="edge17" class="edge">
<title>Node16&#45;&gt;Node17</title>
<path fill="none" stroke="midnightblue" d="M1241.79,-175.96C1265.71,-169.67 1297.24,-161.37 1322.93,-154.62"/>
<polygon fill="midnightblue" stroke="midnightblue" points="1324.03,-157.94 1332.82,-152.02 1322.25,-151.18 1324.03,-157.94"/>
</g>
<!-- Node18 -->
<g id="node18" class="node">
<title>Node18</title>
<g id="a_node18"><a xlink:href="zwapi__serial_8c.html#abf18afb71e14daaf65d937149ef1639f" target="_top" xlink:title="Test if a is less than b + ms.">
<polygon fill="none" stroke="black" points="1316.5,-171.5 1316.5,-201.5 1423.5,-201.5 1423.5,-171.5 1316.5,-171.5"/>
<text text-anchor="start" x="1324.5" y="-189.5" font-family="Helvetica,sans-Serif" font-size="10.00">zwapi_serial_timeval</text>
<text text-anchor="middle" x="1370" y="-178.5" font-family="Helvetica,sans-Serif" font-size="10.00">_a_lt_b_milis</text>
</a>
</g>
</g>
<!-- Node16&#45;&gt;Node18 -->
<g id="edge18" class="edge">
<title>Node16&#45;&gt;Node18</title>
<path fill="none" stroke="midnightblue" d="M1264.07,-185.86C1277.65,-185.94 1292.16,-186.03 1305.92,-186.11"/>
<polygon fill="midnightblue" stroke="midnightblue" points="1306.26,-189.62 1316.28,-186.18 1306.3,-182.62 1306.26,-189.62"/>
</g>
<!-- Node20 -->
<g id="node20" class="node">
<title>Node20</title>
<g id="a_node20"><a xlink:href="zwapi__serial_8c.html#aae586785021ac9a605cd77651429f0c9" target="_top" xlink:title="De&#45;Initialize the serial port.">
<polygon fill="none" stroke="black" points="1155,-358 1155,-377 1254,-377 1254,-358 1155,-358"/>
<text text-anchor="middle" x="1204.5" y="-365" font-family="Helvetica,sans-Serif" font-size="10.00">zwapi_serial_close</text>
</a>
</g>
</g>
<!-- Node19&#45;&gt;Node20 -->
<g id="edge20" class="edge">
<title>Node19&#45;&gt;Node20</title>
<path fill="none" stroke="midnightblue" d="M1097.14,-354.67C1112.31,-356.5 1129.06,-358.52 1144.68,-360.4"/>
<polygon fill="midnightblue" stroke="midnightblue" points="1144.42,-363.9 1154.76,-361.62 1145.25,-356.95 1144.42,-363.9"/>
</g>
<!-- Node21 -->
<g id="node21" class="node">
<title>Node21</title>
<g id="a_node21"><a xlink:href="zwapi__serial_8c.html#a07b09de97f4932d882fc77e191c44638" target="_top" xlink:title="Initialize the serial port to 115200 BAUD 8N1.">
<polygon fill="none" stroke="black" points="1160,-320 1160,-339 1249,-339 1249,-320 1160,-320"/>
<text text-anchor="middle" x="1204.5" y="-327" font-family="Helvetica,sans-Serif" font-size="10.00">zwapi_serial_init</text>
</a>
</g>
</g>
<!-- Node19&#45;&gt;Node21 -->
<g id="edge21" class="edge">
<title>Node19&#45;&gt;Node21</title>
<path fill="none" stroke="midnightblue" d="M1097.14,-342.33C1113.87,-340.31 1132.51,-338.06 1149.46,-336.02"/>
<polygon fill="midnightblue" stroke="midnightblue" points="1150.25,-339.45 1159.76,-334.78 1149.41,-332.5 1150.25,-339.45"/>
</g>
<!-- Node22 -->
<g id="node22" class="node">
<title>Node22</title>
<g id="a_node22"><a xlink:href="zwapi__serial_8c.html#aefeac5909b0bf6411db1492f69c3bc68" target="_top" xlink:title=" ">
<polygon fill="none" stroke="black" points="1310.5,-320 1310.5,-339 1429.5,-339 1429.5,-320 1310.5,-320"/>
<text text-anchor="middle" x="1370" y="-327" font-family="Helvetica,sans-Serif" font-size="10.00">zwapi_open_serial_port</text>
</a>
</g>
</g>
<!-- Node21&#45;&gt;Node22 -->
<g id="edge22" class="edge">
<title>Node21&#45;&gt;Node22</title>
<path fill="none" stroke="midnightblue" d="M1249.31,-329.5C1264.97,-329.5 1283.01,-329.5 1300.26,-329.5"/>
<polygon fill="midnightblue" stroke="midnightblue" points="1300.3,-333 1310.3,-329.5 1300.3,-326 1300.3,-333"/>
</g>
<!-- Node24&#45;&gt;Node14 -->
<g id="edge26" class="edge">
<title>Node24&#45;&gt;Node14</title>
<path fill="none" stroke="midnightblue" d="M929.46,-288.99C947.36,-285.47 967.82,-281.46 986.44,-277.8"/>
<polygon fill="midnightblue" stroke="midnightblue" points="987.15,-281.23 996.28,-275.87 985.8,-274.36 987.15,-281.23"/>
</g>
<!-- Node24&#45;&gt;Node16 -->
<g id="edge27" class="edge">
<title>Node24&#45;&gt;Node16</title>
<path fill="none" stroke="midnightblue" d="M934.42,-307.98C982.44,-313.95 1053.72,-316.29 1109,-290.5 1148.44,-272.1 1178.61,-228.76 1193.41,-203.9"/>
<polygon fill="midnightblue" stroke="midnightblue" points="1196.53,-205.49 1198.47,-195.07 1190.46,-202 1196.53,-205.49"/>
</g>
<!-- Node24&#45;&gt;Node23 -->
<g id="edge28" class="edge">
<title>Node24&#45;&gt;Node23</title>
<path fill="none" stroke="midnightblue" d="M924.67,-288.9C931.74,-286.41 938.78,-283.32 945,-279.5 964.83,-267.33 961.2,-253.71 981,-241.5 984.4,-239.4 988.05,-237.52 991.82,-235.84"/>
<polygon fill="midnightblue" stroke="midnightblue" points="993.34,-239 1001.34,-232.05 990.76,-232.49 993.34,-239"/>
</g>
<!-- Node25 -->
<g id="node25" class="node">
<title>Node25</title>
<g id="a_node25"><a xlink:href="zwapi__connection_8c.html#a96d24d537c5b8d6aa0aa6a7638ba2f09" target="_top" xlink:title=" ">
<polygon fill="none" stroke="black" points="987.5,-377 987.5,-396 1102.5,-396 1102.5,-377 987.5,-377"/>
<text text-anchor="middle" x="1045" y="-384" font-family="Helvetica,sans-Serif" font-size="10.00">zwapi_frame_to_string</text>
</a>
</g>
</g>
<!-- Node24&#45;&gt;Node25 -->
<g id="edge25" class="edge">
<title>Node24&#45;&gt;Node25</title>
<path fill="none" stroke="midnightblue" d="M892.27,-308.05C910.06,-322.7 946.22,-350.76 981,-367.5 985.64,-369.73 990.6,-371.77 995.63,-373.61"/>
<polygon fill="midnightblue" stroke="midnightblue" points="994.71,-376.99 1005.3,-376.9 996.96,-370.37 994.71,-376.99"/>
</g>
<!-- Node27&#45;&gt;Node9 -->
<g id="edge43" class="edge">
<title>Node27&#45;&gt;Node9</title>
<path fill="none" stroke="midnightblue" d="M749.34,-357.65C758.86,-362.37 769.38,-367.62 779,-372.5 799.6,-382.96 822.46,-394.83 841.13,-404.59"/>
<polygon fill="midnightblue" stroke="midnightblue" points="839.71,-407.8 850.19,-409.33 842.96,-401.6 839.71,-407.8"/>
</g>
<!-- Node28 -->
<g id="node28" class="node">
<title>Node28</title>
<g id="a_node28"><a xlink:href="zwapi__connection_8c.html#a1e45c6c9695b5e7b415adfad40080720" target="_top" xlink:title="Parses serial data sent from the Z&#45;Wave module to the serial port. Should be frequently called by mai...">
<polygon fill="none" stroke="black" points="815,-137 815,-156 945,-156 945,-137 815,-137"/>
<text text-anchor="middle" x="880" y="-144" font-family="Helvetica,sans-Serif" font-size="10.00">zwapi_connection_refresh</text>
</a>
</g>
</g>
<!-- Node27&#45;&gt;Node28 -->
<g id="edge32" class="edge">
<title>Node27&#45;&gt;Node28</title>
<path fill="none" stroke="midnightblue" d="M730.83,-327.45C759.91,-291.93 832.72,-203.01 864.16,-164.62"/>
<polygon fill="midnightblue" stroke="midnightblue" points="867.25,-166.37 870.88,-156.42 861.84,-161.93 867.25,-166.37"/>
</g>
<!-- Node28&#45;&gt;Node14 -->
<g id="edge34" class="edge">
<title>Node28&#45;&gt;Node14</title>
<path fill="none" stroke="midnightblue" d="M888.87,-156.11C904.61,-174.82 941.86,-216.48 981,-241.5 983.97,-243.4 987.1,-245.19 990.32,-246.88"/>
<polygon fill="midnightblue" stroke="midnightblue" points="989.03,-250.15 999.56,-251.37 992.09,-243.85 989.03,-250.15"/>
</g>
<!-- Node28&#45;&gt;Node15 -->
<g id="edge41" class="edge">
<title>Node28&#45;&gt;Node15</title>
<path fill="none" stroke="midnightblue" d="M922.13,-156.09C943.74,-161.13 970.41,-167.34 993.29,-172.68"/>
<polygon fill="midnightblue" stroke="midnightblue" points="992.63,-176.12 1003.16,-174.98 994.22,-169.3 992.63,-176.12"/>
</g>
<!-- Node28&#45;&gt;Node23 -->
<g id="edge42" class="edge">
<title>Node28&#45;&gt;Node23</title>
<path fill="none" stroke="midnightblue" d="M913.7,-156.04C924.1,-159.78 935.39,-164.6 945,-170.5 963.5,-181.85 962.14,-192.76 981,-203.5 984.85,-205.69 988.97,-207.65 993.2,-209.4"/>
<polygon fill="midnightblue" stroke="midnightblue" points="991.97,-212.68 1002.56,-212.91 994.43,-206.13 991.97,-212.68"/>
</g>
<!-- Node28&#45;&gt;Node26 -->
<g id="edge33" class="edge">
<title>Node28&#45;&gt;Node26</title>
<path fill="none" stroke="midnightblue" d="M903.55,-136.96C916.88,-130.46 933.36,-120.79 945,-108.5 968.78,-83.38 955.15,-62.49 981,-39.5 982.32,-38.32 983.71,-37.2 985.15,-36.13"/>
<polygon fill="midnightblue" stroke="midnightblue" points="987.31,-38.9 993.86,-30.58 983.55,-33 987.31,-38.9"/>
</g>
<!-- Node29 -->
<g id="node29" class="node">
<title>Node29</title>
<g id="a_node29"><a xlink:href="zwapi__serial_8c.html#a538134f9fdbb1ce052667b3a041357bd" target="_top" xlink:title="Reads the output of the serial port device and stores the content in a buffer.">
<polygon fill="none" stroke="black" points="1145,-136 1145,-155 1264,-155 1264,-136 1145,-136"/>
<text text-anchor="middle" x="1204.5" y="-143" font-family="Helvetica,sans-Serif" font-size="10.00">zwapi_serial_get_buffer</text>
</a>
</g>
</g>
<!-- Node28&#45;&gt;Node29 -->
<g id="edge35" class="edge">
<title>Node28&#45;&gt;Node29</title>
<path fill="none" stroke="midnightblue" d="M945.1,-146.3C999.92,-146.13 1078.62,-145.89 1134.74,-145.71"/>
<polygon fill="midnightblue" stroke="midnightblue" points="1134.96,-149.21 1144.95,-145.68 1134.93,-142.21 1134.96,-149.21"/>
</g>
<!-- Node30 -->
<g id="node30" class="node">
<title>Node30</title>
<g id="a_node30"><a xlink:href="zwapi__serial_8c.html#abb082b1e7e727203e3ca5fbeb41f7c2b" target="_top" xlink:title="Reads a byte from the serial port device.">
<polygon fill="none" stroke="black" points="988.5,-99 988.5,-118 1101.5,-118 1101.5,-99 988.5,-99"/>
<text text-anchor="middle" x="1045" y="-106" font-family="Helvetica,sans-Serif" font-size="10.00">zwapi_serial_get_byte</text>
</a>
</g>
</g>
<!-- Node28&#45;&gt;Node30 -->
<g id="edge38" class="edge">
<title>Node28&#45;&gt;Node30</title>
<path fill="none" stroke="midnightblue" d="M922.13,-136.91C943.74,-131.87 970.41,-125.66 993.29,-120.32"/>
<polygon fill="midnightblue" stroke="midnightblue" points="994.22,-123.7 1003.16,-118.02 992.63,-116.88 994.22,-123.7"/>
</g>
<!-- Node31 -->
<g id="node31" class="node">
<title>Node31</title>
<g id="a_node31"><a xlink:href="zwapi__serial_8c.html#a9a952dc2b34d92960246f6dc4e7d58f7" target="_top" xlink:title="Check the file descriptor for the serial device is available for I/O operations.">
<polygon fill="none" stroke="black" points="994.5,-49.5 994.5,-79.5 1095.5,-79.5 1095.5,-49.5 994.5,-49.5"/>
<text text-anchor="start" x="1002.5" y="-67.5" font-family="Helvetica,sans-Serif" font-size="10.00">zwapi_serial_is_file</text>
<text text-anchor="middle" x="1045" y="-56.5" font-family="Helvetica,sans-Serif" font-size="10.00">_available</text>
</a>
</g>
</g>
<!-- Node28&#45;&gt;Node31 -->
<g id="edge40" class="edge">
<title>Node28&#45;&gt;Node31</title>
<path fill="none" stroke="midnightblue" d="M897.13,-136.94C920.98,-122.86 964.61,-97.38 981,-89.5 985.28,-87.44 989.78,-85.41 994.32,-83.45"/>
<polygon fill="midnightblue" stroke="midnightblue" points="995.78,-86.64 1003.64,-79.54 993.07,-80.18 995.78,-86.64"/>
</g>
<!-- Node29&#45;&gt;Node17 -->
<g id="edge36" class="edge">
<title>Node29&#45;&gt;Node17</title>
<path fill="none" stroke="midnightblue" d="M1264.07,-144.43C1272.43,-144.27 1281.15,-144.11 1289.82,-143.95"/>
<polygon fill="midnightblue" stroke="midnightblue" points="1290.04,-147.45 1299.97,-143.77 1289.91,-140.45 1290.04,-147.45"/>
</g>
<!-- Node29&#45;&gt;Node18 -->
<g id="edge37" class="edge">
<title>Node29&#45;&gt;Node18</title>
<path fill="none" stroke="midnightblue" d="M1243.42,-155.01C1262.15,-159.71 1285.24,-165.5 1306.49,-170.82"/>
<polygon fill="midnightblue" stroke="midnightblue" points="1305.87,-174.28 1316.42,-173.32 1307.58,-167.49 1305.87,-174.28"/>
</g>
<!-- Node30&#45;&gt;Node29 -->
<g id="edge39" class="edge">
<title>Node30&#45;&gt;Node29</title>
<path fill="none" stroke="midnightblue" d="M1086.56,-118.03C1106.78,-122.78 1131.44,-128.57 1152.88,-133.61"/>
<polygon fill="midnightblue" stroke="midnightblue" points="1152.27,-137.06 1162.8,-135.94 1153.87,-130.25 1152.27,-137.06"/>
</g>
<!-- Node32&#45;&gt;Node23 -->
<g id="edge47" class="edge">
<title>Node32&#45;&gt;Node23</title>
<path fill="none" stroke="midnightblue" d="M769.79,-185.16C815.71,-191.16 884.87,-200.27 945,-208.5 955.86,-209.99 967.39,-211.59 978.6,-213.17"/>
<polygon fill="midnightblue" stroke="midnightblue" points="978.38,-216.67 988.77,-214.6 979.36,-209.74 978.38,-216.67"/>
</g>
<!-- Node32&#45;&gt;Node26 -->
<g id="edge46" class="edge">
<title>Node32&#45;&gt;Node26</title>
<path fill="none" stroke="midnightblue" d="M744.42,-163.4C790.92,-136.62 891.99,-79.84 981,-39.5 984.84,-37.76 988.84,-36.04 992.89,-34.36"/>
<polygon fill="midnightblue" stroke="midnightblue" points="994.4,-37.52 1002.36,-30.53 991.77,-31.03 994.4,-37.52"/>
</g>
<!-- Node32&#45;&gt;Node28 -->
<g id="edge45" class="edge">
<title>Node32&#45;&gt;Node28</title>
<path fill="none" stroke="midnightblue" d="M769.72,-168.29C786.06,-165.03 804.25,-161.4 821.02,-158.06"/>
<polygon fill="midnightblue" stroke="midnightblue" points="822.14,-161.41 831.26,-156.02 820.77,-154.54 822.14,-161.41"/>
</g>
<!-- Node34 -->
<g id="node34" class="node">
<title>Node34</title>
<g id="a_node34"><a xlink:href="group__zwave__tx__scheme__selector.html#ga8f8d4442ddf4c165d5a79b9a25d6420d" target="_top" xlink:title="Define a Z&#45;Wave frame transmission options.">
<polygon fill="none" stroke="black" points="340,-174.5 340,-204.5 457,-204.5 457,-174.5 340,-174.5"/>
<text text-anchor="start" x="348" y="-192.5" font-family="Helvetica,sans-Serif" font-size="10.00">zwave_tx_scheme_get</text>
<text text-anchor="middle" x="398.5" y="-181.5" font-family="Helvetica,sans-Serif" font-size="10.00">_node_tx_options</text>
</a>
</g>
</g>
<!-- Node33&#45;&gt;Node34 -->
<g id="edge51" class="edge">
<title>Node33&#45;&gt;Node34</title>
<path fill="none" stroke="midnightblue" d="M300.29,-215.47C310.4,-212.76 321.03,-209.93 331.39,-207.16"/>
<polygon fill="midnightblue" stroke="midnightblue" points="332.46,-210.49 341.22,-204.53 330.66,-203.73 332.46,-210.49"/>
</g>
<!-- Node35 -->
<g id="node35" class="node">
<title>Node35</title>
<g id="a_node35"><a xlink:href="group__zwave__tx.html#gad1538f36d226fe8147c5e538625568df" target="_top" xlink:title="Queue and send frames to Z&#45;Wave nodes.">
<polygon fill="none" stroke="black" points="344,-224 344,-243 453,-243 453,-224 344,-224"/>
<text text-anchor="middle" x="398.5" y="-231" font-family="Helvetica,sans-Serif" font-size="10.00">zwave_tx_send_data</text>
</a>
</g>
</g>
<!-- Node33&#45;&gt;Node35 -->
<g id="edge52" class="edge">
<title>Node33&#45;&gt;Node35</title>
<path fill="none" stroke="midnightblue" d="M304.23,-231.68C313.95,-231.87 324.05,-232.06 333.85,-232.26"/>
<polygon fill="midnightblue" stroke="midnightblue" points="333.86,-235.76 343.93,-232.45 334,-228.76 333.86,-235.76"/>
</g>
</g>
</svg>
