<?xml version="1.0" encoding="UTF-8" standalone="no"?>
<!DOCTYPE svg PUBLIC "-//W3C//DTD SVG 1.1//EN"
 "http://www.w3.org/Graphics/SVG/1.1/DTD/svg11.dtd">
<!-- Generated by graphviz version 2.43.0 (0)
 -->
<!-- Title: is_humidity_control_mode_supported Pages: 1 -->
<svg width="267pt" height="100pt"
 viewBox="0.00 0.00 267.00 99.50" xmlns="http://www.w3.org/2000/svg" xmlns:xlink="http://www.w3.org/1999/xlink">
<g id="graph0" class="graph" transform="scale(1 1) rotate(0) translate(4 95.5)">
<title>is_humidity_control_mode_supported</title>
<!-- Node1 -->
<g id="node1" class="node">
<title>Node1</title>
<g id="a_node1"><a xlink:title=" ">
<polygon fill="#bfbfbf" stroke="black" points="0,-33 0,-63 101,-63 101,-33 0,-33"/>
<text text-anchor="start" x="8" y="-51" font-family="Helvetica,sans-Serif" font-size="10.00">is_humidity_control</text>
<text text-anchor="middle" x="50.5" y="-40" font-family="Helvetica,sans-Serif" font-size="10.00">_mode_supported</text>
</a>
</g>
</g>
<!-- Node2 -->
<g id="node2" class="node">
<title>Node2</title>
<g id="a_node2"><a xlink:href="zwave__command__class__humidity__control__mode_8c.html#a4b93f5ddec722694aa269971adbc95a0" target="_top" xlink:title="Get current humidity control mode version of the CC.">
<polygon fill="none" stroke="black" points="144.5,-61 144.5,-91 251.5,-91 251.5,-61 144.5,-61"/>
<text text-anchor="start" x="152.5" y="-79" font-family="Helvetica,sans-Serif" font-size="10.00">get_humidity_control</text>
<text text-anchor="middle" x="198" y="-68" font-family="Helvetica,sans-Serif" font-size="10.00">_mode_version</text>
</a>
</g>
</g>
<!-- Node1&#45;&gt;Node2 -->
<g id="edge1" class="edge">
<title>Node1&#45;&gt;Node2</title>
<path fill="none" stroke="midnightblue" d="M101.17,-57.56C111.75,-59.6 123.07,-61.77 134.08,-63.89"/>
<polygon fill="midnightblue" stroke="midnightblue" points="133.6,-67.36 144.08,-65.82 134.92,-60.49 133.6,-67.36"/>
</g>
<!-- Node3 -->
<g id="node3" class="node">
<title>Node3</title>
<g id="a_node3"><a xlink:href="zwave__command__class__humidity__control__mode_8c.html#a855235dff678ce15fd0cd972f853e7d8" target="_top" xlink:title="Check if the humidity control mode is compatible with the current version.">
<polygon fill="none" stroke="black" points="137,-0.5 137,-41.5 259,-41.5 259,-0.5 137,-0.5"/>
<text text-anchor="start" x="145" y="-29.5" font-family="Helvetica,sans-Serif" font-size="10.00">is_humidity_control</text>
<text text-anchor="start" x="145" y="-18.5" font-family="Helvetica,sans-Serif" font-size="10.00">_mode_compatible_with</text>
<text text-anchor="middle" x="198" y="-7.5" font-family="Helvetica,sans-Serif" font-size="10.00">_version</text>
</a>
</g>
</g>
<!-- Node1&#45;&gt;Node3 -->
<g id="edge2" class="edge">
<title>Node1&#45;&gt;Node3</title>
<path fill="none" stroke="midnightblue" d="M101.17,-38.78C109.54,-37.23 118.37,-35.59 127.14,-33.96"/>
<polygon fill="midnightblue" stroke="midnightblue" points="127.8,-37.4 137,-32.13 126.53,-30.52 127.8,-37.4"/>
</g>
</g>
</svg>
