<?xml version="1.0" encoding="UTF-8" standalone="no"?>
<!DOCTYPE svg PUBLIC "-//W3C//DTD SVG 1.1//EN"
 "http://www.w3.org/Graphics/SVG/1.1/DTD/svg11.dtd">
<!-- Generated by graphviz version 2.43.0 (0)
 -->
<!-- Title: zwave_command_class_supervision_handle_supervision_report Pages: 1 -->
<svg width="305pt" height="237pt"
 viewBox="0.00 0.00 305.00 236.50" xmlns="http://www.w3.org/2000/svg" xmlns:xlink="http://www.w3.org/1999/xlink">
<g id="graph0" class="graph" transform="scale(1 1) rotate(0) translate(4 232.5)">
<title>zwave_command_class_supervision_handle_supervision_report</title>
<!-- Node1 -->
<g id="node1" class="node">
<title>Node1</title>
<g id="a_node1"><a xlink:title=" ">
<polygon fill="#bfbfbf" stroke="black" points="0,-88.5 0,-129.5 122,-129.5 122,-88.5 0,-88.5"/>
<text text-anchor="start" x="8" y="-117.5" font-family="Helvetica,sans-Serif" font-size="10.00">zwave_command_class</text>
<text text-anchor="start" x="8" y="-106.5" font-family="Helvetica,sans-Serif" font-size="10.00">_supervision_handle</text>
<text text-anchor="middle" x="61" y="-95.5" font-family="Helvetica,sans-Serif" font-size="10.00">_supervision_report</text>
</a>
</g>
</g>
<!-- Node2 -->
<g id="node2" class="node">
<title>Node2</title>
<g id="a_node2"><a xlink:href="group__zwave__command__class__supervision__process.html#ga76afa571a1b7e0f43fd6e417266e47a0" target="_top" xlink:title="Closes a supervised session.">
<polygon fill="none" stroke="black" points="158,-198 158,-228 297,-228 297,-198 158,-198"/>
<text text-anchor="start" x="166" y="-216" font-family="Helvetica,sans-Serif" font-size="10.00">zwave_command_class</text>
<text text-anchor="middle" x="227.5" y="-205" font-family="Helvetica,sans-Serif" font-size="10.00">_supervision_close_session</text>
</a>
</g>
</g>
<!-- Node1&#45;&gt;Node2 -->
<g id="edge1" class="edge">
<title>Node1&#45;&gt;Node2</title>
<path fill="none" stroke="midnightblue" d="M82.46,-129.83C100.85,-147.58 129.31,-172.73 158,-189 161,-190.7 164.13,-192.31 167.35,-193.83"/>
<polygon fill="midnightblue" stroke="midnightblue" points="165.99,-197.05 176.55,-197.87 168.81,-190.65 165.99,-197.05"/>
</g>
<!-- Node3 -->
<g id="node3" class="node">
<title>Node3</title>
<g id="a_node3"><a xlink:href="group__zwave__command__class__supervision__process.html#ga82915680357c49b850517be161425e93" target="_top" xlink:title="Retrieves a supervised session based on its ID.">
<polygon fill="none" stroke="black" points="162,-149 162,-179 293,-179 293,-149 162,-149"/>
<text text-anchor="start" x="170" y="-167" font-family="Helvetica,sans-Serif" font-size="10.00">zwave_command_class</text>
<text text-anchor="middle" x="227.5" y="-156" font-family="Helvetica,sans-Serif" font-size="10.00">_supervision_find_session</text>
</a>
</g>
</g>
<!-- Node1&#45;&gt;Node3 -->
<g id="edge2" class="edge">
<title>Node1&#45;&gt;Node3</title>
<path fill="none" stroke="midnightblue" d="M122.32,-129.17C138.49,-134.58 155.89,-140.39 171.74,-145.69"/>
<polygon fill="midnightblue" stroke="midnightblue" points="170.8,-149.07 181.39,-148.92 173.02,-142.43 170.8,-149.07"/>
</g>
<!-- Node4 -->
<g id="node4" class="node">
<title>Node4</title>
<g id="a_node4"><a xlink:href="group__zwave__command__class__supervision__process.html#ga91640ed2880586dce469b65e3a888355" target="_top" xlink:title=" ">
<polygon fill="none" stroke="black" points="162,-88.5 162,-129.5 293,-129.5 293,-88.5 162,-88.5"/>
<text text-anchor="start" x="170" y="-117.5" font-family="Helvetica,sans-Serif" font-size="10.00">zwave_command_class</text>
<text text-anchor="start" x="170" y="-106.5" font-family="Helvetica,sans-Serif" font-size="10.00">_supervision_find_session</text>
<text text-anchor="middle" x="227.5" y="-95.5" font-family="Helvetica,sans-Serif" font-size="10.00">_by_unique_id</text>
</a>
</g>
</g>
<!-- Node1&#45;&gt;Node4 -->
<g id="edge3" class="edge">
<title>Node1&#45;&gt;Node4</title>
<path fill="none" stroke="midnightblue" d="M122.32,-109C131.85,-109 141.8,-109 151.61,-109"/>
<polygon fill="midnightblue" stroke="midnightblue" points="151.76,-112.5 161.76,-109 151.76,-105.5 151.76,-112.5"/>
</g>
<!-- Node5 -->
<g id="node5" class="node">
<title>Node5</title>
<g id="a_node5"><a xlink:href="group__zwave__command__class__supervision__process.html#gafcf27d707708434ed099675c564a4b6c" target="_top" xlink:title="Logs the state of the Supervision process, with sessions and timers.">
<polygon fill="none" stroke="black" points="163,-39 163,-69 292,-69 292,-39 163,-39"/>
<text text-anchor="start" x="171" y="-57" font-family="Helvetica,sans-Serif" font-size="10.00">zwave_command_class</text>
<text text-anchor="middle" x="227.5" y="-46" font-family="Helvetica,sans-Serif" font-size="10.00">_supervision_process_log</text>
</a>
</g>
</g>
<!-- Node1&#45;&gt;Node5 -->
<g id="edge4" class="edge">
<title>Node1&#45;&gt;Node5</title>
<path fill="none" stroke="midnightblue" d="M122.32,-88.83C138.49,-83.42 155.89,-77.61 171.74,-72.31"/>
<polygon fill="midnightblue" stroke="midnightblue" points="173.02,-75.57 181.39,-69.08 170.8,-68.93 173.02,-75.57"/>
</g>
<!-- Node6 -->
<g id="node6" class="node">
<title>Node6</title>
<g id="a_node6"><a xlink:href="group__command__classes__utils.html#gacb7b8e51dfc36e8bac2676255441bf26" target="_top" xlink:title="Converts a duration byte encoded for a Z&#45;Wave command class and returns its corresponding value in cl...">
<polygon fill="none" stroke="black" points="166.5,-0.5 166.5,-19.5 288.5,-19.5 288.5,-0.5 166.5,-0.5"/>
<text text-anchor="middle" x="227.5" y="-7.5" font-family="Helvetica,sans-Serif" font-size="10.00">zwave_duration_to_time</text>
</a>
</g>
</g>
<!-- Node1&#45;&gt;Node6 -->
<g id="edge5" class="edge">
<title>Node1&#45;&gt;Node6</title>
<path fill="none" stroke="midnightblue" d="M81.94,-88.42C100.22,-70.64 128.8,-45.43 158,-30 163.12,-27.29 168.66,-24.91 174.29,-22.81"/>
<polygon fill="midnightblue" stroke="midnightblue" points="175.46,-26.11 183.79,-19.57 173.2,-19.49 175.46,-26.11"/>
</g>
</g>
</svg>
