<?xml version="1.0" encoding="UTF-8" standalone="no"?>
<!DOCTYPE svg PUBLIC "-//W3C//DTD SVG 1.1//EN"
 "http://www.w3.org/Graphics/SVG/1.1/DTD/svg11.dtd">
<!-- Generated by graphviz version 2.43.0 (0)
 -->
<!-- Title: applications/zpc/components/zwave/zwave_rx/src/zwave_rx_zwapi_callbacks.h Pages: 1 -->
<svg width="200pt" height="162pt"
 viewBox="0.00 0.00 199.50 162.00" xmlns="http://www.w3.org/2000/svg" xmlns:xlink="http://www.w3.org/1999/xlink">
<g id="graph0" class="graph" transform="scale(1 1) rotate(0) translate(4 158)">
<title>applications/zpc/components/zwave/zwave_rx/src/zwave_rx_zwapi_callbacks.h</title>
<!-- Node1 -->
<g id="node1" class="node">
<title>Node1</title>
<g id="a_node1"><a xlink:title=" ">
<polygon fill="#bfbfbf" stroke="black" points="48.5,-112.5 48.5,-153.5 191.5,-153.5 191.5,-112.5 48.5,-112.5"/>
<text text-anchor="start" x="56.5" y="-141.5" font-family="Helvetica,sans-Serif" font-size="10.00">applications/zpc/components</text>
<text text-anchor="start" x="56.5" y="-130.5" font-family="Helvetica,sans-Serif" font-size="10.00">/zwave/zwave_rx/src/zwave</text>
<text text-anchor="middle" x="120" y="-119.5" font-family="Helvetica,sans-Serif" font-size="10.00">_rx_zwapi_callbacks.h</text>
</a>
</g>
</g>
<!-- Node2 -->
<g id="node2" class="node">
<title>Node2</title>
<g id="a_node2"><a xlink:href="zwave__node__id__definitions_8h.html" target="_top" xlink:title=" ">
<polygon fill="none" stroke="black" points="0,-56.5 0,-75.5 142,-75.5 142,-56.5 0,-56.5"/>
<text text-anchor="middle" x="71" y="-63.5" font-family="Helvetica,sans-Serif" font-size="10.00">zwave_node_id_definitions.h</text>
</a>
</g>
</g>
<!-- Node1&#45;&gt;Node2 -->
<g id="edge1" class="edge">
<title>Node1&#45;&gt;Node2</title>
<path fill="none" stroke="midnightblue" d="M105.3,-112.5C98.44,-103.39 90.35,-92.66 83.75,-83.91"/>
<polygon fill="midnightblue" stroke="midnightblue" points="86.34,-81.53 77.52,-75.65 80.75,-85.74 86.34,-81.53"/>
</g>
<!-- Node3 -->
<g id="node3" class="node">
<title>Node3</title>
<g id="a_node3"><a xlink:title=" ">
<polygon fill="none" stroke="#bfbfbf" points="95.5,-0.5 95.5,-19.5 144.5,-19.5 144.5,-0.5 95.5,-0.5"/>
<text text-anchor="middle" x="120" y="-7.5" font-family="Helvetica,sans-Serif" font-size="10.00">stdint.h</text>
</a>
</g>
</g>
<!-- Node1&#45;&gt;Node3 -->
<g id="edge3" class="edge">
<title>Node1&#45;&gt;Node3</title>
<path fill="none" stroke="midnightblue" d="M136.11,-112.34C146.53,-97.19 157.1,-75.59 151,-56 147.77,-45.62 141.22,-35.52 134.98,-27.53"/>
<polygon fill="midnightblue" stroke="midnightblue" points="137.58,-25.19 128.48,-19.77 132.21,-29.68 137.58,-25.19"/>
</g>
<!-- Node2&#45;&gt;Node3 -->
<g id="edge2" class="edge">
<title>Node2&#45;&gt;Node3</title>
<path fill="none" stroke="midnightblue" d="M79.09,-56.08C86.16,-48.3 96.59,-36.8 105.15,-27.37"/>
<polygon fill="midnightblue" stroke="midnightblue" points="107.93,-29.51 112.06,-19.75 102.75,-24.8 107.93,-29.51"/>
</g>
</g>
</svg>
