<?xml version="1.0" encoding="UTF-8" standalone="no"?>
<!DOCTYPE svg PUBLIC "-//W3C//DTD SVG 1.1//EN"
 "http://www.w3.org/Graphics/SVG/1.1/DTD/svg11.dtd">
<!-- Generated by graphviz version 2.43.0 (0)
 -->
<!-- Title: applications/zpc/components/zwave_command_classes/include/zwave_command_class_association_helper.h Pages: 1 -->
<svg width="348pt" height="240pt"
 viewBox="0.00 0.00 347.50 240.00" xmlns="http://www.w3.org/2000/svg" xmlns:xlink="http://www.w3.org/1999/xlink">
<g id="graph0" class="graph" transform="scale(1 1) rotate(0) translate(4 236)">
<title>applications/zpc/components/zwave_command_classes/include/zwave_command_class_association_helper.h</title>
<!-- Node1 -->
<g id="node1" class="node">
<title>Node1</title>
<g id="a_node1"><a xlink:title=" ">
<polygon fill="#bfbfbf" stroke="black" points="121,-179.5 121,-231.5 300,-231.5 300,-179.5 121,-179.5"/>
<text text-anchor="start" x="129" y="-219.5" font-family="Helvetica,sans-Serif" font-size="10.00">applications/zpc/components</text>
<text text-anchor="start" x="129" y="-208.5" font-family="Helvetica,sans-Serif" font-size="10.00">/zwave_command_classes/include</text>
<text text-anchor="start" x="129" y="-197.5" font-family="Helvetica,sans-Serif" font-size="10.00">/zwave_command_class_association</text>
<text text-anchor="middle" x="210.5" y="-186.5" font-family="Helvetica,sans-Serif" font-size="10.00">_helper.h</text>
</a>
</g>
</g>
<!-- Node2 -->
<g id="node2" class="node">
<title>Node2</title>
<g id="a_node2"><a xlink:title=" ">
<polygon fill="none" stroke="#bfbfbf" points="0,-118 0,-137 87,-137 87,-118 0,-118"/>
<text text-anchor="middle" x="43.5" y="-125" font-family="Helvetica,sans-Serif" font-size="10.00">attribute_store.h</text>
</a>
</g>
</g>
<!-- Node1&#45;&gt;Node2 -->
<g id="edge1" class="edge">
<title>Node1&#45;&gt;Node2</title>
<path fill="none" stroke="midnightblue" d="M155.36,-179.4C127.26,-166.62 94.3,-151.62 71.47,-141.23"/>
<polygon fill="midnightblue" stroke="midnightblue" points="72.9,-138.03 62.35,-137.08 70,-144.41 72.9,-138.03"/>
</g>
<!-- Node3 -->
<g id="node3" class="node">
<title>Node3</title>
<g id="a_node3"><a xlink:href="zwave__command__class__association__types_8h.html" target="_top" xlink:title=" ">
<polygon fill="none" stroke="black" points="105.5,-112.5 105.5,-142.5 227.5,-142.5 227.5,-112.5 105.5,-112.5"/>
<text text-anchor="start" x="113.5" y="-130.5" font-family="Helvetica,sans-Serif" font-size="10.00">zwave_command_class</text>
<text text-anchor="middle" x="166.5" y="-119.5" font-family="Helvetica,sans-Serif" font-size="10.00">_association_types.h</text>
</a>
</g>
</g>
<!-- Node1&#45;&gt;Node3 -->
<g id="edge2" class="edge">
<title>Node1&#45;&gt;Node3</title>
<path fill="none" stroke="midnightblue" d="M195.85,-179.19C190.71,-170.31 184.96,-160.39 179.93,-151.69"/>
<polygon fill="midnightblue" stroke="midnightblue" points="182.84,-149.75 174.81,-142.85 176.79,-153.25 182.84,-149.75"/>
</g>
<!-- Node4 -->
<g id="node4" class="node">
<title>Node4</title>
<g id="a_node4"><a xlink:href="zwave__node__id__definitions_8h.html" target="_top" xlink:title=" ">
<polygon fill="none" stroke="black" points="139.5,-56.5 139.5,-75.5 281.5,-75.5 281.5,-56.5 139.5,-56.5"/>
<text text-anchor="middle" x="210.5" y="-63.5" font-family="Helvetica,sans-Serif" font-size="10.00">zwave_node_id_definitions.h</text>
</a>
</g>
</g>
<!-- Node1&#45;&gt;Node4 -->
<g id="edge5" class="edge">
<title>Node1&#45;&gt;Node4</title>
<path fill="none" stroke="midnightblue" d="M225.03,-179.42C233.96,-160.84 242.63,-134.88 236.5,-112 233.85,-102.1 228.43,-92.13 223.23,-84.1"/>
<polygon fill="midnightblue" stroke="midnightblue" points="225.96,-81.91 217.39,-75.68 220.21,-85.89 225.96,-81.91"/>
</g>
<!-- Node6 -->
<g id="node6" class="node">
<title>Node6</title>
<g id="a_node6"><a xlink:title=" ">
<polygon fill="none" stroke="#bfbfbf" points="283.5,-118 283.5,-137 339.5,-137 339.5,-118 283.5,-118"/>
<text text-anchor="middle" x="311.5" y="-125" font-family="Helvetica,sans-Serif" font-size="10.00">stdbool.h</text>
</a>
</g>
</g>
<!-- Node1&#45;&gt;Node6 -->
<g id="edge6" class="edge">
<title>Node1&#45;&gt;Node6</title>
<path fill="none" stroke="midnightblue" d="M243.85,-179.4C259.69,-167.49 278.08,-153.65 291.68,-143.41"/>
<polygon fill="midnightblue" stroke="midnightblue" points="293.97,-146.07 299.86,-137.26 289.76,-140.48 293.97,-146.07"/>
</g>
<!-- Node3&#45;&gt;Node4 -->
<g id="edge3" class="edge">
<title>Node3&#45;&gt;Node4</title>
<path fill="none" stroke="midnightblue" d="M176.93,-112.4C183.26,-103.84 191.37,-92.87 198.03,-83.86"/>
<polygon fill="midnightblue" stroke="midnightblue" points="200.97,-85.78 204.1,-75.66 195.34,-81.62 200.97,-85.78"/>
</g>
<!-- Node5 -->
<g id="node5" class="node">
<title>Node5</title>
<g id="a_node5"><a xlink:title=" ">
<polygon fill="none" stroke="#bfbfbf" points="186,-0.5 186,-19.5 235,-19.5 235,-0.5 186,-0.5"/>
<text text-anchor="middle" x="210.5" y="-7.5" font-family="Helvetica,sans-Serif" font-size="10.00">stdint.h</text>
</a>
</g>
</g>
<!-- Node4&#45;&gt;Node5 -->
<g id="edge4" class="edge">
<title>Node4&#45;&gt;Node5</title>
<path fill="none" stroke="midnightblue" d="M210.5,-56.08C210.5,-49.01 210.5,-38.86 210.5,-29.99"/>
<polygon fill="midnightblue" stroke="midnightblue" points="214,-29.75 210.5,-19.75 207,-29.75 214,-29.75"/>
</g>
</g>
</svg>
