<?xml version="1.0" encoding="UTF-8" standalone="no"?>
<!DOCTYPE svg PUBLIC "-//W3C//DTD SVG 1.1//EN"
 "http://www.w3.org/Graphics/SVG/1.1/DTD/svg11.dtd">
<!-- Generated by graphviz version 2.43.0 (0)
 -->
<!-- Title: S2_get_commands_supported Pages: 1 -->
<svg width="315pt" height="88pt"
 viewBox="0.00 0.00 315.00 88.00" xmlns="http://www.w3.org/2000/svg" xmlns:xlink="http://www.w3.org/1999/xlink">
<g id="graph0" class="graph" transform="scale(1 1) rotate(0) translate(4 84)">
<title>S2_get_commands_supported</title>
<!-- Node1 -->
<g id="node1" class="node">
<title>Node1</title>
<g id="a_node1"><a xlink:title=" ">
<polygon fill="#bfbfbf" stroke="black" points="0,-30 0,-49 149,-49 149,-30 0,-30"/>
<text text-anchor="middle" x="74.5" y="-37" font-family="Helvetica,sans-Serif" font-size="10.00">S2_get_commands_supported</text>
</a>
</g>
</g>
<!-- Node2 -->
<g id="node2" class="node">
<title>Node2</title>
<g id="a_node2"><a xlink:href="zwave__s2__transport_8c.html#af96e0dcea652ffcb0c8b68aa70a635bd" target="_top" xlink:title=" ">
<polygon fill="none" stroke="black" points="192.5,-49.5 192.5,-79.5 299.5,-79.5 299.5,-49.5 192.5,-49.5"/>
<text text-anchor="start" x="200.5" y="-67.5" font-family="Helvetica,sans-Serif" font-size="10.00">convert_lr_to_zwave</text>
<text text-anchor="middle" x="246" y="-56.5" font-family="Helvetica,sans-Serif" font-size="10.00">_class_id</text>
</a>
</g>
</g>
<!-- Node1&#45;&gt;Node2 -->
<g id="edge1" class="edge">
<title>Node1&#45;&gt;Node2</title>
<path fill="none" stroke="midnightblue" d="M140.06,-49.02C153.99,-51.08 168.69,-53.25 182.54,-55.29"/>
<polygon fill="midnightblue" stroke="midnightblue" points="182.04,-58.75 192.44,-56.75 183.06,-51.83 182.04,-58.75"/>
</g>
<!-- Node3 -->
<g id="node3" class="node">
<title>Node3</title>
<g id="a_node3"><a xlink:href="group__zwave__s2__keystore.html#ga42cbe7b3856c32fcde78b52c3b0be2ae" target="_top" xlink:title="Get the set of the currently assigned keys.">
<polygon fill="none" stroke="black" points="185,-0.5 185,-30.5 307,-30.5 307,-0.5 185,-0.5"/>
<text text-anchor="start" x="193" y="-18.5" font-family="Helvetica,sans-Serif" font-size="10.00">zwave_s2_keystore_get</text>
<text text-anchor="middle" x="246" y="-7.5" font-family="Helvetica,sans-Serif" font-size="10.00">_assigned_keys</text>
</a>
</g>
</g>
<!-- Node1&#45;&gt;Node3 -->
<g id="edge2" class="edge">
<title>Node1&#45;&gt;Node3</title>
<path fill="none" stroke="midnightblue" d="M142.98,-29.95C153.47,-28.46 164.34,-26.92 174.89,-25.43"/>
<polygon fill="midnightblue" stroke="midnightblue" points="175.47,-28.88 184.88,-24.01 174.49,-21.95 175.47,-28.88"/>
</g>
</g>
</svg>
