<?xml version="1.0" encoding="UTF-8" standalone="no"?>
<!DOCTYPE svg PUBLIC "-//W3C//DTD SVG 1.1//EN"
 "http://www.w3.org/Graphics/SVG/1.1/DTD/svg11.dtd">
<!-- Generated by graphviz version 2.43.0 (0)
 -->
<!-- Title: applications/zpc/components/zwave/zwave_rx/src/zwave_rx_fixt.c Pages: 1 -->
<svg width="1385pt" height="341pt"
 viewBox="0.00 0.00 1384.50 341.00" xmlns="http://www.w3.org/2000/svg" xmlns:xlink="http://www.w3.org/1999/xlink">
<g id="graph0" class="graph" transform="scale(1 1) rotate(0) translate(4 337)">
<title>applications/zpc/components/zwave/zwave_rx/src/zwave_rx_fixt.c</title>
<!-- Node1 -->
<g id="node1" class="node">
<title>Node1</title>
<g id="a_node1"><a xlink:title=" ">
<polygon fill="#bfbfbf" stroke="black" points="314.5,-291.5 314.5,-332.5 457.5,-332.5 457.5,-291.5 314.5,-291.5"/>
<text text-anchor="start" x="322.5" y="-320.5" font-family="Helvetica,sans-Serif" font-size="10.00">applications/zpc/components</text>
<text text-anchor="start" x="322.5" y="-309.5" font-family="Helvetica,sans-Serif" font-size="10.00">/zwave/zwave_rx/src/zwave</text>
<text text-anchor="middle" x="386" y="-298.5" font-family="Helvetica,sans-Serif" font-size="10.00">_rx_fixt.c</text>
</a>
</g>
</g>
<!-- Node2 -->
<g id="node2" class="node">
<title>Node2</title>
<g id="a_node2"><a xlink:title=" ">
<polygon fill="none" stroke="#bfbfbf" points="0,-235.5 0,-254.5 48,-254.5 48,-235.5 0,-235.5"/>
<text text-anchor="middle" x="24" y="-242.5" font-family="Helvetica,sans-Serif" font-size="10.00">stdlib.h</text>
</a>
</g>
</g>
<!-- Node1&#45;&gt;Node2 -->
<g id="edge1" class="edge">
<title>Node1&#45;&gt;Node2</title>
<path fill="none" stroke="midnightblue" d="M314.37,-300.87C249.75,-291.26 151.94,-275.55 58.04,-255.05"/>
<polygon fill="midnightblue" stroke="midnightblue" points="58.6,-251.6 48.08,-252.86 57.09,-258.43 58.6,-251.6"/>
</g>
<!-- Node3 -->
<g id="node3" class="node">
<title>Node3</title>
<g id="a_node3"><a xlink:title=" ">
<polygon fill="none" stroke="#bfbfbf" points="66.5,-235.5 66.5,-254.5 115.5,-254.5 115.5,-235.5 66.5,-235.5"/>
<text text-anchor="middle" x="91" y="-242.5" font-family="Helvetica,sans-Serif" font-size="10.00">string.h</text>
</a>
</g>
</g>
<!-- Node1&#45;&gt;Node3 -->
<g id="edge2" class="edge">
<title>Node1&#45;&gt;Node3</title>
<path fill="none" stroke="midnightblue" d="M314.34,-296.58C264.15,-286.26 195.29,-271.66 125.67,-255.08"/>
<polygon fill="midnightblue" stroke="midnightblue" points="126.39,-251.65 115.85,-252.72 124.76,-258.45 126.39,-251.65"/>
</g>
<!-- Node4 -->
<g id="node4" class="node">
<title>Node4</title>
<g id="a_node4"><a xlink:title=" ">
<polygon fill="none" stroke="#bfbfbf" points="134,-235.5 134,-254.5 180,-254.5 180,-235.5 134,-235.5"/>
<text text-anchor="middle" x="157" y="-242.5" font-family="Helvetica,sans-Serif" font-size="10.00">stdio.h</text>
</a>
</g>
</g>
<!-- Node1&#45;&gt;Node4 -->
<g id="edge3" class="edge">
<title>Node1&#45;&gt;Node4</title>
<path fill="none" stroke="midnightblue" d="M317.29,-291.5C275.03,-279.5 222.79,-264.68 189.68,-255.28"/>
<polygon fill="midnightblue" stroke="midnightblue" points="190.62,-251.91 180.05,-252.54 188.71,-258.64 190.62,-251.91"/>
</g>
<!-- Node5 -->
<g id="node5" class="node">
<title>Node5</title>
<g id="a_node5"><a xlink:href="sl__status_8h.html" target="_top" xlink:title="SL Status Codes.">
<polygon fill="none" stroke="black" points="989.5,-56.5 989.5,-75.5 1054.5,-75.5 1054.5,-56.5 989.5,-56.5"/>
<text text-anchor="middle" x="1022" y="-63.5" font-family="Helvetica,sans-Serif" font-size="10.00">sl_status.h</text>
</a>
</g>
</g>
<!-- Node1&#45;&gt;Node5 -->
<g id="edge4" class="edge">
<title>Node1&#45;&gt;Node5</title>
<path fill="none" stroke="midnightblue" d="M457.61,-308.61C646.2,-300.46 1147.26,-266.32 1222,-132 1226.32,-124.23 1227.55,-118.94 1222,-112 1202.72,-87.9 1117.77,-75.8 1064.97,-70.5"/>
<polygon fill="midnightblue" stroke="midnightblue" points="1065.16,-67 1054.87,-69.53 1064.49,-73.97 1065.16,-67"/>
</g>
<!-- Node7 -->
<g id="node7" class="node">
<title>Node7</title>
<g id="a_node7"><a xlink:href="zpc__config_8h.html" target="_top" xlink:title=" ">
<polygon fill="none" stroke="black" points="69,-56.5 69,-75.5 141,-75.5 141,-56.5 69,-56.5"/>
<text text-anchor="middle" x="105" y="-63.5" font-family="Helvetica,sans-Serif" font-size="10.00">zpc_config.h</text>
</a>
</g>
</g>
<!-- Node1&#45;&gt;Node7 -->
<g id="edge6" class="edge">
<title>Node1&#45;&gt;Node7</title>
<path fill="none" stroke="midnightblue" d="M326.27,-291.39C303.89,-282.37 279.05,-270.24 259,-255 192.99,-204.83 137.57,-120.9 115.39,-84.6"/>
<polygon fill="midnightblue" stroke="midnightblue" points="118.18,-82.46 110.03,-75.7 112.18,-86.07 118.18,-82.46"/>
</g>
<!-- Node10 -->
<g id="node10" class="node">
<title>Node10</title>
<g id="a_node10"><a xlink:title=" ">
<polygon fill="none" stroke="#bfbfbf" points="395.5,-235.5 395.5,-254.5 504.5,-254.5 504.5,-235.5 395.5,-235.5"/>
<text text-anchor="middle" x="450" y="-242.5" font-family="Helvetica,sans-Serif" font-size="10.00">uic_main_externals.h</text>
</a>
</g>
</g>
<!-- Node1&#45;&gt;Node10 -->
<g id="edge10" class="edge">
<title>Node1&#45;&gt;Node10</title>
<path fill="none" stroke="midnightblue" d="M405.2,-291.5C414.54,-282.01 425.63,-270.76 434.43,-261.81"/>
<polygon fill="midnightblue" stroke="midnightblue" points="436.96,-264.23 441.48,-254.65 431.97,-259.32 436.96,-264.23"/>
</g>
<!-- Node11 -->
<g id="node11" class="node">
<title>Node11</title>
<g id="a_node11"><a xlink:href="zwave__api_8h.html" target="_top" xlink:title="Main include file for the Z&#45;Wave API (only need to include this one)">
<polygon fill="none" stroke="black" points="607.5,-235.5 607.5,-254.5 678.5,-254.5 678.5,-235.5 607.5,-235.5"/>
<text text-anchor="middle" x="643" y="-242.5" font-family="Helvetica,sans-Serif" font-size="10.00">zwave_api.h</text>
</a>
</g>
</g>
<!-- Node1&#45;&gt;Node11 -->
<g id="edge11" class="edge">
<title>Node1&#45;&gt;Node11</title>
<path fill="none" stroke="midnightblue" d="M457.59,-292.89C503.13,-281.38 560.61,-266.84 599.41,-257.02"/>
<polygon fill="midnightblue" stroke="midnightblue" points="600.5,-260.36 609.34,-254.51 598.79,-253.57 600.5,-260.36"/>
</g>
<!-- Node20 -->
<g id="node20" class="node">
<title>Node20</title>
<g id="a_node20"><a xlink:href="zwave__rx_8h.html" target="_top" xlink:title=" ">
<polygon fill="none" stroke="black" points="522.5,-235.5 522.5,-254.5 589.5,-254.5 589.5,-235.5 522.5,-235.5"/>
<text text-anchor="middle" x="556" y="-242.5" font-family="Helvetica,sans-Serif" font-size="10.00">zwave_rx.h</text>
</a>
</g>
</g>
<!-- Node1&#45;&gt;Node20 -->
<g id="edge42" class="edge">
<title>Node1&#45;&gt;Node20</title>
<path fill="none" stroke="midnightblue" d="M437.01,-291.5C465.2,-280.72 499.37,-267.65 523.85,-258.29"/>
<polygon fill="midnightblue" stroke="midnightblue" points="525.28,-261.49 533.37,-254.65 522.78,-254.95 525.28,-261.49"/>
</g>
<!-- Node24 -->
<g id="node24" class="node">
<title>Node24</title>
<g id="a_node24"><a xlink:href="zwave__rx__internals_8h.html" target="_top" xlink:title=" ">
<polygon fill="none" stroke="black" points="268.5,-235.5 268.5,-254.5 377.5,-254.5 377.5,-235.5 268.5,-235.5"/>
<text text-anchor="middle" x="323" y="-242.5" font-family="Helvetica,sans-Serif" font-size="10.00">zwave_rx_internals.h</text>
</a>
</g>
</g>
<!-- Node1&#45;&gt;Node24 -->
<g id="edge52" class="edge">
<title>Node1&#45;&gt;Node24</title>
<path fill="none" stroke="midnightblue" d="M367.1,-291.5C358,-282.11 347.21,-270.98 338.59,-262.08"/>
<polygon fill="midnightblue" stroke="midnightblue" points="340.86,-259.4 331.39,-254.65 335.83,-264.27 340.86,-259.4"/>
</g>
<!-- Node25 -->
<g id="node25" class="node">
<title>Node25</title>
<g id="a_node25"><a xlink:href="zwave__rx__process_8h.html" target="_top" xlink:title=" ">
<polygon fill="none" stroke="black" points="1269.5,-235.5 1269.5,-254.5 1376.5,-254.5 1376.5,-235.5 1269.5,-235.5"/>
<text text-anchor="middle" x="1323" y="-242.5" font-family="Helvetica,sans-Serif" font-size="10.00">zwave_rx_process.h</text>
</a>
</g>
</g>
<!-- Node1&#45;&gt;Node25 -->
<g id="edge55" class="edge">
<title>Node1&#45;&gt;Node25</title>
<path fill="none" stroke="midnightblue" d="M457.66,-308.01C606.48,-301.46 959.73,-284.02 1255,-255 1256.3,-254.87 1257.61,-254.74 1258.94,-254.6"/>
<polygon fill="midnightblue" stroke="midnightblue" points="1259.66,-258.04 1269.22,-253.46 1258.89,-251.08 1259.66,-258.04"/>
</g>
<!-- Node6 -->
<g id="node6" class="node">
<title>Node6</title>
<g id="a_node6"><a xlink:title=" ">
<polygon fill="none" stroke="#bfbfbf" points="662.5,-0.5 662.5,-19.5 711.5,-19.5 711.5,-0.5 662.5,-0.5"/>
<text text-anchor="middle" x="687" y="-7.5" font-family="Helvetica,sans-Serif" font-size="10.00">stdint.h</text>
</a>
</g>
</g>
<!-- Node5&#45;&gt;Node6 -->
<g id="edge5" class="edge">
<title>Node5&#45;&gt;Node6</title>
<path fill="none" stroke="midnightblue" d="M989.41,-58.61C984.58,-57.71 979.67,-56.81 975,-56 883.85,-40.16 776.02,-23.99 721.81,-16.05"/>
<polygon fill="midnightblue" stroke="midnightblue" points="722.1,-12.55 711.7,-14.57 721.09,-19.48 722.1,-12.55"/>
</g>
<!-- Node7&#45;&gt;Node6 -->
<g id="edge7" class="edge">
<title>Node7&#45;&gt;Node6</title>
<path fill="none" stroke="midnightblue" d="M141.35,-60.91C155.85,-59.32 172.71,-57.52 188,-56 362.17,-38.71 570.82,-20.8 652.15,-13.92"/>
<polygon fill="midnightblue" stroke="midnightblue" points="652.65,-17.39 662.32,-13.07 652.06,-10.42 652.65,-17.39"/>
</g>
<!-- Node8 -->
<g id="node8" class="node">
<title>Node8</title>
<g id="a_node8"><a xlink:title=" ">
<polygon fill="none" stroke="#bfbfbf" points="293,-0.5 293,-19.5 349,-19.5 349,-0.5 293,-0.5"/>
<text text-anchor="middle" x="321" y="-7.5" font-family="Helvetica,sans-Serif" font-size="10.00">stdbool.h</text>
</a>
</g>
</g>
<!-- Node7&#45;&gt;Node8 -->
<g id="edge8" class="edge">
<title>Node7&#45;&gt;Node8</title>
<path fill="none" stroke="midnightblue" d="M139.23,-56.44C178.38,-46.66 242.3,-30.67 282.97,-20.51"/>
<polygon fill="midnightblue" stroke="midnightblue" points="283.93,-23.87 292.79,-18.05 282.23,-17.08 283.93,-23.87"/>
</g>
<!-- Node9 -->
<g id="node9" class="node">
<title>Node9</title>
<g id="a_node9"><a xlink:title=" ">
<polygon fill="none" stroke="#bfbfbf" points="68,-0.5 68,-19.5 142,-19.5 142,-0.5 68,-0.5"/>
<text text-anchor="middle" x="105" y="-7.5" font-family="Helvetica,sans-Serif" font-size="10.00">uic_version.h</text>
</a>
</g>
</g>
<!-- Node7&#45;&gt;Node9 -->
<g id="edge9" class="edge">
<title>Node7&#45;&gt;Node9</title>
<path fill="none" stroke="midnightblue" d="M105,-56.08C105,-49.01 105,-38.86 105,-29.99"/>
<polygon fill="midnightblue" stroke="midnightblue" points="108.5,-29.75 105,-19.75 101.5,-29.75 108.5,-29.75"/>
</g>
<!-- Node12 -->
<g id="node12" class="node">
<title>Node12</title>
<g id="a_node12"><a xlink:href="zwapi__init_8h.html" target="_top" xlink:title="Z&#45;Wave API initialization functions.">
<polygon fill="none" stroke="black" points="529,-174 529,-193 597,-193 597,-174 529,-174"/>
<text text-anchor="middle" x="563" y="-181" font-family="Helvetica,sans-Serif" font-size="10.00">zwapi_init.h</text>
</a>
</g>
</g>
<!-- Node11&#45;&gt;Node12 -->
<g id="edge12" class="edge">
<title>Node11&#45;&gt;Node12</title>
<path fill="none" stroke="midnightblue" d="M631.54,-235.48C618.83,-226.02 598.09,-210.6 582.75,-199.19"/>
<polygon fill="midnightblue" stroke="midnightblue" points="584.55,-196.17 574.44,-193.01 580.38,-201.79 584.55,-196.17"/>
</g>
<!-- Node13 -->
<g id="node13" class="node">
<title>Node13</title>
<g id="a_node13"><a xlink:href="zwapi__protocol__basis_8h.html" target="_top" xlink:title="Z&#45;Wave API for basis controller/end node application interface.">
<polygon fill="none" stroke="black" points="577.5,-112.5 577.5,-131.5 696.5,-131.5 696.5,-112.5 577.5,-112.5"/>
<text text-anchor="middle" x="637" y="-119.5" font-family="Helvetica,sans-Serif" font-size="10.00">zwapi_protocol_basis.h</text>
</a>
</g>
</g>
<!-- Node11&#45;&gt;Node13 -->
<g id="edge25" class="edge">
<title>Node11&#45;&gt;Node13</title>
<path fill="none" stroke="midnightblue" d="M642.57,-235.3C641.6,-215.85 639.26,-168.49 637.94,-141.9"/>
<polygon fill="midnightblue" stroke="midnightblue" points="641.42,-141.44 637.43,-131.62 634.43,-141.78 641.42,-141.44"/>
</g>
<!-- Node16 -->
<g id="node16" class="node">
<title>Node16</title>
<g id="a_node16"><a xlink:href="zwapi__protocol__controller_8h.html" target="_top" xlink:title="Z&#45;Wave API for Z&#45;Wave controllers (network setup and maintenance)">
<polygon fill="none" stroke="black" points="696,-174 696,-193 830,-193 830,-174 696,-174"/>
<text text-anchor="middle" x="763" y="-181" font-family="Helvetica,sans-Serif" font-size="10.00">zwapi_protocol_controller.h</text>
</a>
</g>
</g>
<!-- Node11&#45;&gt;Node16 -->
<g id="edge26" class="edge">
<title>Node11&#45;&gt;Node16</title>
<path fill="none" stroke="midnightblue" d="M660.19,-235.48C680.24,-225.53 713.6,-208.99 736.86,-197.46"/>
<polygon fill="midnightblue" stroke="midnightblue" points="738.43,-200.59 745.84,-193.01 735.32,-194.32 738.43,-200.59"/>
</g>
<!-- Node17 -->
<g id="node17" class="node">
<title>Node17</title>
<g id="a_node17"><a xlink:href="zwapi__protocol__transport_8h.html" target="_top" xlink:title="Z&#45;Wave API for transport application layer interface.">
<polygon fill="none" stroke="black" points="791,-112.5 791,-131.5 925,-131.5 925,-112.5 791,-112.5"/>
<text text-anchor="middle" x="858" y="-119.5" font-family="Helvetica,sans-Serif" font-size="10.00">zwapi_protocol_transport.h</text>
</a>
</g>
</g>
<!-- Node11&#45;&gt;Node17 -->
<g id="edge41" class="edge">
<title>Node11&#45;&gt;Node17</title>
<path fill="none" stroke="midnightblue" d="M678.64,-240.27C728.78,-234.31 816.57,-221 839,-199 854.21,-184.08 857.92,-158.95 858.51,-141.7"/>
<polygon fill="midnightblue" stroke="midnightblue" points="862.01,-141.7 858.53,-131.69 855.01,-141.68 862.01,-141.7"/>
</g>
<!-- Node18 -->
<g id="node18" class="node">
<title>Node18</title>
<g id="a_node18"><a xlink:href="zwapi__protocol__mem_8h.html" target="_top" xlink:title="Z&#45;Wave API for module memory manipulation.">
<polygon fill="none" stroke="black" points="1095.5,-112.5 1095.5,-131.5 1212.5,-131.5 1212.5,-112.5 1095.5,-112.5"/>
<text text-anchor="middle" x="1154" y="-119.5" font-family="Helvetica,sans-Serif" font-size="10.00">zwapi_protocol_mem.h</text>
</a>
</g>
</g>
<!-- Node11&#45;&gt;Node18 -->
<g id="edge35" class="edge">
<title>Node11&#45;&gt;Node18</title>
<path fill="none" stroke="midnightblue" d="M678.5,-243.47C769.74,-241.63 1010.24,-233.53 1081,-199 1107.88,-185.88 1130.2,-158.52 1142.82,-140.46"/>
<polygon fill="midnightblue" stroke="midnightblue" points="1145.84,-142.24 1148.51,-131.99 1140.03,-138.34 1145.84,-142.24"/>
</g>
<!-- Node19 -->
<g id="node19" class="node">
<title>Node19</title>
<g id="a_node19"><a xlink:href="zwapi__protocol__nvm_8h.html" target="_top" xlink:title="Z&#45;Wave API for NVM manipulation.">
<polygon fill="none" stroke="black" points="407,-112.5 407,-131.5 521,-131.5 521,-112.5 407,-112.5"/>
<text text-anchor="middle" x="464" y="-119.5" font-family="Helvetica,sans-Serif" font-size="10.00">zwapi_protocol_nvm.h</text>
</a>
</g>
</g>
<!-- Node11&#45;&gt;Node19 -->
<g id="edge39" class="edge">
<title>Node11&#45;&gt;Node19</title>
<path fill="none" stroke="midnightblue" d="M607.47,-236.84C581.35,-230.26 546.02,-218.5 520,-199 499.06,-183.3 482.46,-157.62 472.93,-140.52"/>
<polygon fill="midnightblue" stroke="midnightblue" points="475.95,-138.75 468.15,-131.58 469.78,-142.05 475.95,-138.75"/>
</g>
<!-- Node12&#45;&gt;Node5 -->
<g id="edge15" class="edge">
<title>Node12&#45;&gt;Node5</title>
<path fill="none" stroke="midnightblue" d="M597.18,-178.31C686.03,-167.37 918.44,-138.32 934,-132 948.93,-125.94 982.71,-99.37 1003.81,-82.13"/>
<polygon fill="midnightblue" stroke="midnightblue" points="1006.22,-84.68 1011.72,-75.62 1001.77,-79.27 1006.22,-84.68"/>
</g>
<!-- Node12&#45;&gt;Node6 -->
<g id="edge13" class="edge">
<title>Node12&#45;&gt;Node6</title>
<path fill="none" stroke="midnightblue" d="M561.54,-173.69C559.68,-159.75 557.8,-132.14 568,-112 588.35,-71.82 632.44,-41.24 660.86,-24.73"/>
<polygon fill="midnightblue" stroke="midnightblue" points="662.85,-27.63 669.84,-19.68 659.41,-21.53 662.85,-27.63"/>
</g>
<!-- Node12&#45;&gt;Node8 -->
<g id="edge14" class="edge">
<title>Node12&#45;&gt;Node8</title>
<path fill="none" stroke="midnightblue" d="M528.84,-180.05C456.15,-174.38 288.76,-158.76 239,-132 209.35,-116.06 200.15,-107.39 188,-76 171.99,-34.64 237.99,-19.51 282.72,-14.03"/>
<polygon fill="midnightblue" stroke="midnightblue" points="283.18,-17.5 292.73,-12.92 282.41,-10.55 283.18,-17.5"/>
</g>
<!-- Node12&#45;&gt;Node13 -->
<g id="edge16" class="edge">
<title>Node12&#45;&gt;Node13</title>
<path fill="none" stroke="midnightblue" d="M573.6,-173.98C585.25,-164.61 604.19,-149.38 618.33,-138.01"/>
<polygon fill="midnightblue" stroke="midnightblue" points="620.82,-140.5 626.42,-131.51 616.43,-135.05 620.82,-140.5"/>
</g>
<!-- Node14 -->
<g id="node14" class="node">
<title>Node14</title>
<g id="a_node14"><a xlink:href="zwave__rf__region_8h.html" target="_top" xlink:title=" ">
<polygon fill="none" stroke="black" points="197,-56.5 197,-75.5 293,-75.5 293,-56.5 197,-56.5"/>
<text text-anchor="middle" x="245" y="-63.5" font-family="Helvetica,sans-Serif" font-size="10.00">zwave_rf_region.h</text>
</a>
</g>
</g>
<!-- Node12&#45;&gt;Node14 -->
<g id="edge24" class="edge">
<title>Node12&#45;&gt;Node14</title>
<path fill="none" stroke="midnightblue" d="M528.72,-179.27C451.85,-171.7 270.91,-151.95 252,-132 240.55,-119.92 239.92,-100.36 241.47,-85.84"/>
<polygon fill="midnightblue" stroke="midnightblue" points="244.94,-86.34 242.94,-75.94 238.01,-85.31 244.94,-86.34"/>
</g>
<!-- Node13&#45;&gt;Node5 -->
<g id="edge19" class="edge">
<title>Node13&#45;&gt;Node5</title>
<path fill="none" stroke="midnightblue" d="M696.73,-112.62C775.08,-101.63 910.64,-82.62 979.39,-72.98"/>
<polygon fill="midnightblue" stroke="midnightblue" points="980.01,-76.42 989.43,-71.57 979.04,-69.49 980.01,-76.42"/>
</g>
<!-- Node13&#45;&gt;Node6 -->
<g id="edge17" class="edge">
<title>Node13&#45;&gt;Node6</title>
<path fill="none" stroke="midnightblue" d="M640.92,-112.37C649.07,-94.46 667.94,-52.92 678.84,-28.95"/>
<polygon fill="midnightblue" stroke="midnightblue" points="682.14,-30.14 683.09,-19.59 675.77,-27.25 682.14,-30.14"/>
</g>
<!-- Node13&#45;&gt;Node8 -->
<g id="edge18" class="edge">
<title>Node13&#45;&gt;Node8</title>
<path fill="none" stroke="midnightblue" d="M617.55,-112.32C587.68,-99.18 528.56,-73.86 477,-56 437.22,-42.23 390.77,-29.21 358.96,-20.75"/>
<polygon fill="midnightblue" stroke="midnightblue" points="359.74,-17.34 349.18,-18.17 357.95,-24.11 359.74,-17.34"/>
</g>
<!-- Node13&#45;&gt;Node14 -->
<g id="edge20" class="edge">
<title>Node13&#45;&gt;Node14</title>
<path fill="none" stroke="midnightblue" d="M577.46,-112.8C503.11,-102.56 376.73,-85.15 303.07,-75"/>
<polygon fill="midnightblue" stroke="midnightblue" points="303.42,-71.51 293.03,-73.62 302.46,-78.45 303.42,-71.51"/>
</g>
<!-- Node15 -->
<g id="node15" class="node">
<title>Node15</title>
<g id="a_node15"><a xlink:href="zwave__node__id__definitions_8h.html" target="_top" xlink:title=" ">
<polygon fill="none" stroke="black" points="791,-56.5 791,-75.5 933,-75.5 933,-56.5 791,-56.5"/>
<text text-anchor="middle" x="862" y="-63.5" font-family="Helvetica,sans-Serif" font-size="10.00">zwave_node_id_definitions.h</text>
</a>
</g>
</g>
<!-- Node13&#45;&gt;Node15 -->
<g id="edge22" class="edge">
<title>Node13&#45;&gt;Node15</title>
<path fill="none" stroke="midnightblue" d="M672.65,-112.44C711.66,-103.08 774.27,-88.06 816.72,-77.87"/>
<polygon fill="midnightblue" stroke="midnightblue" points="817.61,-81.25 826.51,-75.52 815.97,-74.45 817.61,-81.25"/>
</g>
<!-- Node14&#45;&gt;Node8 -->
<g id="edge21" class="edge">
<title>Node14&#45;&gt;Node8</title>
<path fill="none" stroke="midnightblue" d="M257.21,-56.32C268.78,-48.11 286.38,-35.6 300.16,-25.81"/>
<polygon fill="midnightblue" stroke="midnightblue" points="302.44,-28.48 308.57,-19.83 298.39,-22.77 302.44,-28.48"/>
</g>
<!-- Node15&#45;&gt;Node6 -->
<g id="edge23" class="edge">
<title>Node15&#45;&gt;Node6</title>
<path fill="none" stroke="midnightblue" d="M834.27,-56.44C803.7,-47.01 754.49,-31.82 721.46,-21.63"/>
<polygon fill="midnightblue" stroke="midnightblue" points="722.36,-18.25 711.77,-18.64 720.29,-24.94 722.36,-18.25"/>
</g>
<!-- Node16&#45;&gt;Node5 -->
<g id="edge29" class="edge">
<title>Node16&#45;&gt;Node5</title>
<path fill="none" stroke="midnightblue" d="M830,-176.52C871.92,-170.32 925.62,-157.69 967,-132 986.16,-120.1 1002.02,-99.3 1011.71,-84.43"/>
<polygon fill="midnightblue" stroke="midnightblue" points="1014.84,-86.01 1017.15,-75.67 1008.9,-82.31 1014.84,-86.01"/>
</g>
<!-- Node16&#45;&gt;Node6 -->
<g id="edge27" class="edge">
<title>Node16&#45;&gt;Node6</title>
<path fill="none" stroke="midnightblue" d="M760.45,-173.66C756.45,-160.15 748.2,-133.66 739,-112 726.2,-81.88 708.14,-48.36 697.02,-28.51"/>
<polygon fill="midnightblue" stroke="midnightblue" points="700.01,-26.69 692.04,-19.71 693.92,-30.13 700.01,-26.69"/>
</g>
<!-- Node16&#45;&gt;Node8 -->
<g id="edge28" class="edge">
<title>Node16&#45;&gt;Node8</title>
<path fill="none" stroke="midnightblue" d="M758.28,-173.71C749.8,-158.77 730.58,-128.47 706,-112 595.19,-37.78 432.63,-18.06 359.33,-12.85"/>
<polygon fill="midnightblue" stroke="midnightblue" points="359.39,-9.35 349.18,-12.19 358.93,-16.34 359.39,-9.35"/>
</g>
<!-- Node16&#45;&gt;Node17 -->
<g id="edge30" class="edge">
<title>Node16&#45;&gt;Node17</title>
<path fill="none" stroke="midnightblue" d="M776.61,-173.98C792.06,-164.3 817.49,-148.37 835.82,-136.89"/>
<polygon fill="midnightblue" stroke="midnightblue" points="837.8,-139.78 844.41,-131.51 834.08,-133.85 837.8,-139.78"/>
</g>
<!-- Node17&#45;&gt;Node5 -->
<g id="edge33" class="edge">
<title>Node17&#45;&gt;Node5</title>
<path fill="none" stroke="midnightblue" d="M883.99,-112.44C911.7,-103.32 955.75,-88.81 986.62,-78.65"/>
<polygon fill="midnightblue" stroke="midnightblue" points="987.73,-81.97 996.14,-75.52 985.54,-75.32 987.73,-81.97"/>
</g>
<!-- Node17&#45;&gt;Node6 -->
<g id="edge31" class="edge">
<title>Node17&#45;&gt;Node6</title>
<path fill="none" stroke="midnightblue" d="M885.78,-112.45C917.46,-101.29 962.39,-80.3 942,-56 914.34,-23.04 785.47,-14.21 722.21,-11.85"/>
<polygon fill="midnightblue" stroke="midnightblue" points="722.04,-8.35 711.92,-11.51 721.8,-15.34 722.04,-8.35"/>
</g>
<!-- Node17&#45;&gt;Node8 -->
<g id="edge32" class="edge">
<title>Node17&#45;&gt;Node8</title>
<path fill="none" stroke="midnightblue" d="M836.74,-112.42C801.31,-98.46 727.68,-70.89 663,-56 554.37,-30.99 422.9,-18.56 359.24,-13.64"/>
<polygon fill="midnightblue" stroke="midnightblue" points="359.49,-10.15 349.25,-12.88 358.96,-17.13 359.49,-10.15"/>
</g>
<!-- Node17&#45;&gt;Node15 -->
<g id="edge34" class="edge">
<title>Node17&#45;&gt;Node15</title>
<path fill="none" stroke="midnightblue" d="M858.66,-112.08C859.18,-105.01 859.94,-94.86 860.59,-85.99"/>
<polygon fill="midnightblue" stroke="midnightblue" points="864.1,-85.98 861.35,-75.75 857.12,-85.47 864.1,-85.98"/>
</g>
<!-- Node18&#45;&gt;Node5 -->
<g id="edge37" class="edge">
<title>Node18&#45;&gt;Node5</title>
<path fill="none" stroke="midnightblue" d="M1133.08,-112.44C1111.26,-103.52 1076.85,-89.44 1052.11,-79.32"/>
<polygon fill="midnightblue" stroke="midnightblue" points="1053.4,-76.06 1042.82,-75.52 1050.75,-82.54 1053.4,-76.06"/>
</g>
<!-- Node18&#45;&gt;Node6 -->
<g id="edge36" class="edge">
<title>Node18&#45;&gt;Node6</title>
<path fill="none" stroke="midnightblue" d="M1145.47,-112.47C1130.47,-98.05 1097.75,-69.18 1064,-56 1001.93,-31.77 802.77,-17.75 721.76,-12.92"/>
<polygon fill="midnightblue" stroke="midnightblue" points="721.77,-9.41 711.59,-12.32 721.37,-16.4 721.77,-9.41"/>
</g>
<!-- Node18&#45;&gt;Node15 -->
<g id="edge38" class="edge">
<title>Node18&#45;&gt;Node15</title>
<path fill="none" stroke="midnightblue" d="M1107.73,-112.44C1056.26,-102.92 973.11,-87.55 918,-77.36"/>
<polygon fill="midnightblue" stroke="midnightblue" points="918.52,-73.89 908.05,-75.52 917.25,-80.78 918.52,-73.89"/>
</g>
<!-- Node19&#45;&gt;Node6 -->
<g id="edge40" class="edge">
<title>Node19&#45;&gt;Node6</title>
<path fill="none" stroke="midnightblue" d="M474.53,-112.41C491.47,-98.93 526.2,-72.62 559,-56 589.24,-40.68 625.92,-28.36 652.26,-20.52"/>
<polygon fill="midnightblue" stroke="midnightblue" points="653.53,-23.79 662.16,-17.63 651.58,-17.07 653.53,-23.79"/>
</g>
<!-- Node20&#45;&gt;Node5 -->
<g id="edge51" class="edge">
<title>Node20&#45;&gt;Node5</title>
<path fill="none" stroke="midnightblue" d="M589.73,-236.52C592.85,-235.96 595.98,-235.44 599,-235 647.99,-227.92 1009.45,-235.39 1043,-199 1072.13,-167.41 1048.13,-112.46 1032.62,-84.47"/>
<polygon fill="midnightblue" stroke="midnightblue" points="1035.63,-82.68 1027.59,-75.78 1029.57,-86.18 1035.63,-82.68"/>
</g>
<!-- Node21 -->
<g id="node21" class="node">
<title>Node21</title>
<g id="a_node21"><a xlink:href="zwave__controller__connection__info_8h.html" target="_top" xlink:title=" ">
<polygon fill="none" stroke="black" points="253.5,-168.5 253.5,-198.5 396.5,-198.5 396.5,-168.5 253.5,-168.5"/>
<text text-anchor="start" x="261.5" y="-186.5" font-family="Helvetica,sans-Serif" font-size="10.00">zwave_controller_connection</text>
<text text-anchor="middle" x="325" y="-175.5" font-family="Helvetica,sans-Serif" font-size="10.00">_info.h</text>
</a>
</g>
</g>
<!-- Node20&#45;&gt;Node21 -->
<g id="edge43" class="edge">
<title>Node20&#45;&gt;Node21</title>
<path fill="none" stroke="midnightblue" d="M522.9,-235.48C488.18,-226.53 432.73,-212.25 389.35,-201.07"/>
<polygon fill="midnightblue" stroke="midnightblue" points="390,-197.63 379.44,-198.52 388.25,-204.41 390,-197.63"/>
</g>
<!-- Node22 -->
<g id="node22" class="node">
<title>Node22</title>
<g id="a_node22"><a xlink:href="zwave__controller__types_8h.html" target="_top" xlink:title=" ">
<polygon fill="none" stroke="black" points="261,-112.5 261,-131.5 389,-131.5 389,-112.5 261,-112.5"/>
<text text-anchor="middle" x="325" y="-119.5" font-family="Helvetica,sans-Serif" font-size="10.00">zwave_controller_types.h</text>
</a>
</g>
</g>
<!-- Node21&#45;&gt;Node22 -->
<g id="edge44" class="edge">
<title>Node21&#45;&gt;Node22</title>
<path fill="none" stroke="midnightblue" d="M325,-168.4C325,-160.47 325,-150.46 325,-141.86"/>
<polygon fill="midnightblue" stroke="midnightblue" points="328.5,-141.66 325,-131.66 321.5,-141.66 328.5,-141.66"/>
</g>
<!-- Node22&#45;&gt;Node6 -->
<g id="edge46" class="edge">
<title>Node22&#45;&gt;Node6</title>
<path fill="none" stroke="midnightblue" d="M357.99,-112.49C389.04,-104.18 436.66,-90.68 477,-76 497.95,-68.38 501.98,-63.41 523,-56 567.03,-40.47 619.25,-26.96 652.73,-18.89"/>
<polygon fill="midnightblue" stroke="midnightblue" points="653.57,-22.29 662.49,-16.57 651.95,-15.48 653.57,-22.29"/>
</g>
<!-- Node22&#45;&gt;Node8 -->
<g id="edge45" class="edge">
<title>Node22&#45;&gt;Node8</title>
<path fill="none" stroke="midnightblue" d="M324.69,-112.37C324.04,-94.62 322.55,-53.67 321.68,-29.6"/>
<polygon fill="midnightblue" stroke="midnightblue" points="325.17,-29.46 321.31,-19.59 318.18,-29.71 325.17,-29.46"/>
</g>
<!-- Node22&#45;&gt;Node14 -->
<g id="edge50" class="edge">
<title>Node22&#45;&gt;Node14</title>
<path fill="none" stroke="midnightblue" d="M312.15,-112.32C299.78,-103.98 280.87,-91.21 266.26,-81.35"/>
<polygon fill="midnightblue" stroke="midnightblue" points="268.07,-78.35 257.82,-75.65 264.15,-84.15 268.07,-78.35"/>
</g>
<!-- Node22&#45;&gt;Node15 -->
<g id="edge47" class="edge">
<title>Node22&#45;&gt;Node15</title>
<path fill="none" stroke="midnightblue" d="M389.08,-113C392.1,-112.66 395.08,-112.32 398,-112 531.95,-97.25 687.95,-82.65 780.64,-74.25"/>
<polygon fill="midnightblue" stroke="midnightblue" points="781.15,-77.71 790.8,-73.33 780.52,-70.74 781.15,-77.71"/>
</g>
<!-- Node23 -->
<g id="node23" class="node">
<title>Node23</title>
<g id="a_node23"><a xlink:href="zwave__generic__types_8h.html" target="_top" xlink:title=" ">
<polygon fill="none" stroke="black" points="349.5,-56.5 349.5,-75.5 468.5,-75.5 468.5,-56.5 349.5,-56.5"/>
<text text-anchor="middle" x="409" y="-63.5" font-family="Helvetica,sans-Serif" font-size="10.00">zwave_generic_types.h</text>
</a>
</g>
</g>
<!-- Node22&#45;&gt;Node23 -->
<g id="edge48" class="edge">
<title>Node22&#45;&gt;Node23</title>
<path fill="none" stroke="midnightblue" d="M338.5,-112.32C351.6,-103.9 371.71,-90.97 387.11,-81.07"/>
<polygon fill="midnightblue" stroke="midnightblue" points="389.02,-84.01 395.54,-75.65 385.23,-78.12 389.02,-84.01"/>
</g>
<!-- Node23&#45;&gt;Node6 -->
<g id="edge49" class="edge">
<title>Node23&#45;&gt;Node6</title>
<path fill="none" stroke="midnightblue" d="M453.05,-56.44C508.22,-45.73 601.63,-27.58 652.11,-17.78"/>
<polygon fill="midnightblue" stroke="midnightblue" points="653.06,-21.16 662.21,-15.82 651.72,-14.29 653.06,-21.16"/>
</g>
<!-- Node24&#45;&gt;Node5 -->
<g id="edge54" class="edge">
<title>Node24&#45;&gt;Node5</title>
<path fill="none" stroke="midnightblue" d="M377.61,-235.99C380.44,-235.64 383.25,-235.3 386,-235 586.73,-212.71 643.11,-248.19 839,-199 911,-180.92 939,-183.97 992,-132 1005.01,-119.24 1012.96,-99.77 1017.38,-85.47"/>
<polygon fill="midnightblue" stroke="midnightblue" points="1020.78,-86.31 1020.09,-75.73 1014.03,-84.43 1020.78,-86.31"/>
</g>
<!-- Node24&#45;&gt;Node21 -->
<g id="edge53" class="edge">
<title>Node24&#45;&gt;Node21</title>
<path fill="none" stroke="midnightblue" d="M323.29,-235.48C323.52,-228.47 323.87,-218.19 324.19,-208.7"/>
<polygon fill="midnightblue" stroke="midnightblue" points="327.69,-208.63 324.53,-198.52 320.69,-208.4 327.69,-208.63"/>
</g>
<!-- Node26 -->
<g id="node26" class="node">
<title>Node26</title>
<g id="a_node26"><a xlink:title=" ">
<polygon fill="none" stroke="#bfbfbf" points="1293.5,-174 1293.5,-193 1352.5,-193 1352.5,-174 1293.5,-174"/>
<text text-anchor="middle" x="1323" y="-181" font-family="Helvetica,sans-Serif" font-size="10.00">process.h</text>
</a>
</g>
</g>
<!-- Node25&#45;&gt;Node26 -->
<g id="edge56" class="edge">
<title>Node25&#45;&gt;Node26</title>
<path fill="none" stroke="midnightblue" d="M1323,-235.48C1323,-227.08 1323,-213.98 1323,-203.16"/>
<polygon fill="midnightblue" stroke="midnightblue" points="1326.5,-203.01 1323,-193.01 1319.5,-203.01 1326.5,-203.01"/>
</g>
</g>
</svg>
