<?xml version="1.0" encoding="UTF-8" standalone="no"?>
<!DOCTYPE svg PUBLIC "-//W3C//DTD SVG 1.1//EN"
 "http://www.w3.org/Graphics/SVG/1.1/DTD/svg11.dtd">
<!-- Generated by graphviz version 2.43.0 (0)
 -->
<!-- Title: save_parameter_value Pages: 1 -->
<svg width="804pt" height="170pt"
 viewBox="0.00 0.00 804.00 170.00" xmlns="http://www.w3.org/2000/svg" xmlns:xlink="http://www.w3.org/1999/xlink">
<g id="graph0" class="graph" transform="scale(1 1) rotate(0) translate(4 166)">
<title>save_parameter_value</title>
<!-- Node1 -->
<g id="node1" class="node">
<title>Node1</title>
<g id="a_node1"><a xlink:title=" ">
<polygon fill="#bfbfbf" stroke="black" points="681,-71.5 681,-90.5 796,-90.5 796,-71.5 681,-71.5"/>
<text text-anchor="middle" x="738.5" y="-78.5" font-family="Helvetica,sans-Serif" font-size="10.00">save_parameter_value</text>
</a>
</g>
</g>
<!-- Node2 -->
<g id="node2" class="node">
<title>Node2</title>
<g id="a_node2"><a xlink:href="zwave__command__class__configuration__control_8c.html#accd85e03b56e05ab3299ece4ee2f07a3" target="_top" xlink:title="Handle incoming Configuration Bulk Report Commands.">
<polygon fill="none" stroke="black" points="512.5,-120.5 512.5,-161.5 634.5,-161.5 634.5,-120.5 512.5,-120.5"/>
<text text-anchor="start" x="520.5" y="-149.5" font-family="Helvetica,sans-Serif" font-size="10.00">zwave_command_class</text>
<text text-anchor="start" x="520.5" y="-138.5" font-family="Helvetica,sans-Serif" font-size="10.00">_configuration_handle</text>
<text text-anchor="middle" x="573.5" y="-127.5" font-family="Helvetica,sans-Serif" font-size="10.00">_bulk_report_command</text>
</a>
</g>
</g>
<!-- Node1&#45;&gt;Node2 -->
<g id="edge1" class="edge">
<title>Node1&#45;&gt;Node2</title>
<path fill="none" stroke="midnightblue" d="M702.19,-94C681.19,-101.73 654.08,-111.71 630.24,-120.48"/>
<polygon fill="midnightblue" stroke="midnightblue" points="703.5,-97.25 711.67,-90.51 701.08,-90.68 703.5,-97.25"/>
</g>
<!-- Node6 -->
<g id="node6" class="node">
<title>Node6</title>
<g id="a_node6"><a xlink:href="zwave__command__class__configuration__control_8c.html#ad744ab83042de2b3c67bcc7b9411b874" target="_top" xlink:title="Handle incoming Configuration Properties Report Commands.">
<polygon fill="none" stroke="black" points="502,-60.5 502,-101.5 645,-101.5 645,-60.5 502,-60.5"/>
<text text-anchor="start" x="510" y="-89.5" font-family="Helvetica,sans-Serif" font-size="10.00">zwave_command_class</text>
<text text-anchor="start" x="510" y="-78.5" font-family="Helvetica,sans-Serif" font-size="10.00">_configuration_handle</text>
<text text-anchor="middle" x="573.5" y="-67.5" font-family="Helvetica,sans-Serif" font-size="10.00">_properties_report_command</text>
</a>
</g>
</g>
<!-- Node1&#45;&gt;Node6 -->
<g id="edge5" class="edge">
<title>Node1&#45;&gt;Node6</title>
<path fill="none" stroke="midnightblue" d="M670.74,-81C662.26,-81 653.56,-81 645.03,-81"/>
<polygon fill="midnightblue" stroke="midnightblue" points="670.95,-84.5 680.95,-81 670.95,-77.5 670.95,-84.5"/>
</g>
<!-- Node7 -->
<g id="node7" class="node">
<title>Node7</title>
<g id="a_node7"><a xlink:href="zwave__command__class__configuration__control_8c.html#a442abc571c14d1dce6c70bf877dbac9c" target="_top" xlink:title="Handle incoming Configuration Report Commands.">
<polygon fill="none" stroke="black" points="512.5,-0.5 512.5,-41.5 634.5,-41.5 634.5,-0.5 512.5,-0.5"/>
<text text-anchor="start" x="520.5" y="-29.5" font-family="Helvetica,sans-Serif" font-size="10.00">zwave_command_class</text>
<text text-anchor="start" x="520.5" y="-18.5" font-family="Helvetica,sans-Serif" font-size="10.00">_configuration_handle</text>
<text text-anchor="middle" x="573.5" y="-7.5" font-family="Helvetica,sans-Serif" font-size="10.00">_report_command</text>
</a>
</g>
</g>
<!-- Node1&#45;&gt;Node7 -->
<g id="edge7" class="edge">
<title>Node1&#45;&gt;Node7</title>
<path fill="none" stroke="midnightblue" d="M702.19,-68C681.19,-60.27 654.08,-50.29 630.24,-41.52"/>
<polygon fill="midnightblue" stroke="midnightblue" points="701.08,-71.32 711.67,-71.49 703.5,-64.75 701.08,-71.32"/>
</g>
<!-- Node3 -->
<g id="node3" class="node">
<title>Node3</title>
<g id="a_node3"><a xlink:href="zwave__command__class__configuration__control_8c.html#a47d754a17f1ac5b2d479005308d7084f" target="_top" xlink:title="Dispatches incoming Configuration Commands to individual command handlers.">
<polygon fill="none" stroke="black" points="344,-60.5 344,-101.5 466,-101.5 466,-60.5 344,-60.5"/>
<text text-anchor="start" x="352" y="-89.5" font-family="Helvetica,sans-Serif" font-size="10.00">zwave_command_class</text>
<text text-anchor="start" x="352" y="-78.5" font-family="Helvetica,sans-Serif" font-size="10.00">_configuration_control</text>
<text text-anchor="middle" x="405" y="-67.5" font-family="Helvetica,sans-Serif" font-size="10.00">_handler</text>
</a>
</g>
</g>
<!-- Node2&#45;&gt;Node3 -->
<g id="edge2" class="edge">
<title>Node2&#45;&gt;Node3</title>
<path fill="none" stroke="midnightblue" d="M505.58,-116.89C491.51,-111.82 476.8,-106.51 463.12,-101.58"/>
<polygon fill="midnightblue" stroke="midnightblue" points="504.61,-120.25 515.2,-120.35 506.98,-113.67 504.61,-120.25"/>
</g>
<!-- Node4 -->
<g id="node4" class="node">
<title>Node4</title>
<g id="a_node4"><a xlink:href="group__zwave__command__class__configuration.html#gacc11ad9afa837acce0d1aada6408e1ce" target="_top" xlink:title="This function initialize the Configuration Command Class handler.">
<polygon fill="none" stroke="black" points="186,-66 186,-96 308,-96 308,-66 186,-66"/>
<text text-anchor="start" x="194" y="-84" font-family="Helvetica,sans-Serif" font-size="10.00">zwave_command_class</text>
<text text-anchor="middle" x="247" y="-73" font-family="Helvetica,sans-Serif" font-size="10.00">_configuration_init</text>
</a>
</g>
</g>
<!-- Node3&#45;&gt;Node4 -->
<g id="edge3" class="edge">
<title>Node3&#45;&gt;Node4</title>
<path fill="none" stroke="midnightblue" d="M333.46,-81C325.01,-81 316.44,-81 308.15,-81"/>
<polygon fill="midnightblue" stroke="midnightblue" points="333.69,-84.5 343.69,-81 333.69,-77.5 333.69,-84.5"/>
</g>
<!-- Node5 -->
<g id="node5" class="node">
<title>Node5</title>
<g id="a_node5"><a xlink:href="group__command__classes__fixt.html#ga5272651939ced1723158340039e8da19" target="_top" xlink:title="Setup fixture for Z&#45;Wave Command Classes.">
<polygon fill="none" stroke="black" points="0,-71.5 0,-90.5 150,-90.5 150,-71.5 0,-71.5"/>
<text text-anchor="middle" x="75" y="-78.5" font-family="Helvetica,sans-Serif" font-size="10.00">zwave_command_classes_init</text>
</a>
</g>
</g>
<!-- Node4&#45;&gt;Node5 -->
<g id="edge4" class="edge">
<title>Node4&#45;&gt;Node5</title>
<path fill="none" stroke="midnightblue" d="M175.51,-81C167.16,-81 158.61,-81 150.21,-81"/>
<polygon fill="midnightblue" stroke="midnightblue" points="175.59,-84.5 185.59,-81 175.59,-77.5 175.59,-84.5"/>
</g>
<!-- Node6&#45;&gt;Node3 -->
<g id="edge6" class="edge">
<title>Node6&#45;&gt;Node3</title>
<path fill="none" stroke="midnightblue" d="M491.81,-81C483.19,-81 474.53,-81 466.2,-81"/>
<polygon fill="midnightblue" stroke="midnightblue" points="491.89,-84.5 501.89,-81 491.89,-77.5 491.89,-84.5"/>
</g>
<!-- Node7&#45;&gt;Node3 -->
<g id="edge8" class="edge">
<title>Node7&#45;&gt;Node3</title>
<path fill="none" stroke="midnightblue" d="M505.58,-45.11C491.51,-50.18 476.8,-55.49 463.12,-60.42"/>
<polygon fill="midnightblue" stroke="midnightblue" points="506.98,-48.33 515.2,-41.65 504.61,-41.75 506.98,-48.33"/>
</g>
</g>
</svg>
