<?xml version="1.0" encoding="UTF-8" standalone="no"?>
<!DOCTYPE svg PUBLIC "-//W3C//DTD SVG 1.1//EN"
 "http://www.w3.org/Graphics/SVG/1.1/DTD/svg11.dtd">
<!-- Generated by graphviz version 2.43.0 (0)
 -->
<!-- Title: handle_wake_up_notification Pages: 1 -->
<svg width="1006pt" height="374pt"
 viewBox="0.00 0.00 1006.00 373.50" xmlns="http://www.w3.org/2000/svg" xmlns:xlink="http://www.w3.org/1999/xlink">
<g id="graph0" class="graph" transform="scale(1 1) rotate(0) translate(4 369.5)">
<title>handle_wake_up_notification</title>
<!-- Node1 -->
<g id="node1" class="node">
<title>Node1</title>
<g id="a_node1"><a xlink:title=" ">
<polygon fill="#bfbfbf" stroke="black" points="0,-112.5 0,-131.5 142,-131.5 142,-112.5 0,-112.5"/>
<text text-anchor="middle" x="71" y="-119.5" font-family="Helvetica,sans-Serif" font-size="10.00">handle_wake_up_notification</text>
</a>
</g>
</g>
<!-- Node2 -->
<g id="node2" class="node">
<title>Node2</title>
<g id="a_node2"><a xlink:href="zwave__command__class__wake__up_8c.html#ab1683172e412f4f4b4f3090e6e2ac2b8" target="_top" xlink:title="Check if we need and send a Wake Up No more command to a node and puts it in the Tx Queue.">
<polygon fill="none" stroke="black" points="178,-181.5 178,-200.5 303,-200.5 303,-181.5 178,-181.5"/>
<text text-anchor="middle" x="240.5" y="-188.5" font-family="Helvetica,sans-Serif" font-size="10.00">send_wake_up_no_more</text>
</a>
</g>
</g>
<!-- Node1&#45;&gt;Node2 -->
<g id="edge1" class="edge">
<title>Node1&#45;&gt;Node2</title>
<path fill="none" stroke="midnightblue" d="M95.29,-131.59C124.29,-143.54 174,-164.02 206.81,-177.53"/>
<polygon fill="midnightblue" stroke="midnightblue" points="205.83,-180.91 216.41,-181.49 208.49,-174.44 205.83,-180.91"/>
</g>
<!-- Node13 -->
<g id="node13" class="node">
<title>Node13</title>
<g id="a_node13"><a xlink:href="group__command__classes__utils.html#gaff12f5d1f5b9eed08201efab5854190c" target="_top" xlink:title="Find the Z&#45;Wave Endpoint ID Node attribute based on a const zwave_controller_connection_info_t object...">
<polygon fill="none" stroke="black" points="179.5,-39 179.5,-69 301.5,-69 301.5,-39 179.5,-39"/>
<text text-anchor="start" x="187.5" y="-57" font-family="Helvetica,sans-Serif" font-size="10.00">zwave_command_class</text>
<text text-anchor="middle" x="240.5" y="-46" font-family="Helvetica,sans-Serif" font-size="10.00">_get_endpoint_node</text>
</a>
</g>
</g>
<!-- Node1&#45;&gt;Node13 -->
<g id="edge13" class="edge">
<title>Node1&#45;&gt;Node13</title>
<path fill="none" stroke="midnightblue" d="M95.64,-112.4C120.81,-102.18 161.3,-85.75 192.91,-72.91"/>
<polygon fill="midnightblue" stroke="midnightblue" points="194.46,-76.06 202.41,-69.06 191.83,-69.57 194.46,-76.06"/>
</g>
<!-- Node2&#45;&gt;Node2 -->
<g id="edge2" class="edge">
<title>Node2&#45;&gt;Node2</title>
<path fill="none" stroke="midnightblue" d="M214.61,-200.76C202.01,-209.57 210.64,-219 240.5,-219 260.56,-219 271.04,-214.74 271.94,-209.27"/>
<polygon fill="midnightblue" stroke="midnightblue" points="274.78,-207.23 266.39,-200.76 268.92,-211.05 274.78,-207.23"/>
</g>
<!-- Node3 -->
<g id="node3" class="node">
<title>Node3</title>
<g id="a_node3"><a xlink:href="zwave__command__class__wake__up_8c.html#acc185d175a4ebc31e69cd02437d885dd" target="_top" xlink:title="Verifies if we are the Wake Up destination of a NodeID.">
<polygon fill="none" stroke="black" points="356.5,-335 356.5,-365 467.5,-365 467.5,-335 356.5,-335"/>
<text text-anchor="start" x="364.5" y="-353" font-family="Helvetica,sans-Serif" font-size="10.00">we_are_the_wake_up</text>
<text text-anchor="middle" x="412" y="-342" font-family="Helvetica,sans-Serif" font-size="10.00">_destination</text>
</a>
</g>
</g>
<!-- Node2&#45;&gt;Node3 -->
<g id="edge3" class="edge">
<title>Node2&#45;&gt;Node3</title>
<path fill="none" stroke="midnightblue" d="M245.93,-200.65C257.6,-225.08 291.62,-289.87 339,-325 341.66,-326.97 344.48,-328.79 347.42,-330.48"/>
<polygon fill="midnightblue" stroke="midnightblue" points="346,-333.69 356.49,-335.14 349.2,-327.46 346,-333.69"/>
</g>
<!-- Node5 -->
<g id="node5" class="node">
<title>Node5</title>
<g id="a_node5"><a xlink:href="group__zwave__network__management.html#ga38921e3a42a10fc5135615b50f0573cd" target="_top" xlink:title="Checks if the protocol may be sending some frames to a particular NodeID.">
<polygon fill="none" stroke="black" points="339,-274.5 339,-315.5 485,-315.5 485,-274.5 339,-274.5"/>
<text text-anchor="start" x="347" y="-303.5" font-family="Helvetica,sans-Serif" font-size="10.00">zwave_network_management</text>
<text text-anchor="start" x="347" y="-292.5" font-family="Helvetica,sans-Serif" font-size="10.00">_is_protocol_sending_frames</text>
<text text-anchor="middle" x="412" y="-281.5" font-family="Helvetica,sans-Serif" font-size="10.00">_to_node</text>
</a>
</g>
</g>
<!-- Node2&#45;&gt;Node5 -->
<g id="edge5" class="edge">
<title>Node2&#45;&gt;Node5</title>
<path fill="none" stroke="midnightblue" d="M252.26,-200.64C269.57,-215.8 305.11,-245.5 339,-265 341.97,-266.71 345.05,-268.37 348.19,-269.98"/>
<polygon fill="midnightblue" stroke="midnightblue" points="346.66,-273.12 357.19,-274.37 349.73,-266.83 346.66,-273.12"/>
</g>
<!-- Node7 -->
<g id="node7" class="node">
<title>Node7</title>
<g id="a_node7"><a xlink:href="group__zwave__tx.html#gabb799c67f2008618877071e96e2fca77" target="_top" xlink:title="Verifies if we have frames in the queue to send to a NodeID.">
<polygon fill="none" stroke="black" points="354.5,-225 354.5,-255 469.5,-255 469.5,-225 354.5,-225"/>
<text text-anchor="start" x="362.5" y="-243" font-family="Helvetica,sans-Serif" font-size="10.00">zwave_tx_has_frames</text>
<text text-anchor="middle" x="412" y="-232" font-family="Helvetica,sans-Serif" font-size="10.00">_for_node</text>
</a>
</g>
</g>
<!-- Node2&#45;&gt;Node7 -->
<g id="edge7" class="edge">
<title>Node2&#45;&gt;Node7</title>
<path fill="none" stroke="midnightblue" d="M274.58,-200.56C295.76,-206.69 323.9,-214.82 349.12,-222.11"/>
<polygon fill="midnightblue" stroke="midnightblue" points="348.41,-225.55 358.98,-224.96 350.35,-218.82 348.41,-225.55"/>
</g>
<!-- Node8 -->
<g id="node8" class="node">
<title>Node8</title>
<g id="a_node8"><a xlink:href="group__zwave__tx__scheme__selector.html#ga2c884bc863b6f63eac2a074fdde828d8" target="_top" xlink:title="Return a connection info parameters for sending a Z&#45;Wave frame.">
<polygon fill="none" stroke="black" points="353.5,-176 353.5,-206 470.5,-206 470.5,-176 353.5,-176"/>
<text text-anchor="start" x="361.5" y="-194" font-family="Helvetica,sans-Serif" font-size="10.00">zwave_tx_scheme_get</text>
<text text-anchor="middle" x="412" y="-183" font-family="Helvetica,sans-Serif" font-size="10.00">_node_connection_info</text>
</a>
</g>
</g>
<!-- Node2&#45;&gt;Node8 -->
<g id="edge8" class="edge">
<title>Node2&#45;&gt;Node8</title>
<path fill="none" stroke="midnightblue" d="M303.17,-191C316.22,-191 330.06,-191 343.32,-191"/>
<polygon fill="midnightblue" stroke="midnightblue" points="343.32,-194.5 353.32,-191 343.32,-187.5 343.32,-194.5"/>
</g>
<!-- Node11 -->
<g id="node11" class="node">
<title>Node11</title>
<g id="a_node11"><a xlink:href="group__zwave__tx__scheme__selector.html#ga8f8d4442ddf4c165d5a79b9a25d6420d" target="_top" xlink:title="Define a Z&#45;Wave frame transmission options.">
<polygon fill="none" stroke="black" points="353.5,-127 353.5,-157 470.5,-157 470.5,-127 353.5,-127"/>
<text text-anchor="start" x="361.5" y="-145" font-family="Helvetica,sans-Serif" font-size="10.00">zwave_tx_scheme_get</text>
<text text-anchor="middle" x="412" y="-134" font-family="Helvetica,sans-Serif" font-size="10.00">_node_tx_options</text>
</a>
</g>
</g>
<!-- Node2&#45;&gt;Node11 -->
<g id="edge11" class="edge">
<title>Node2&#45;&gt;Node11</title>
<path fill="none" stroke="midnightblue" d="M274.58,-181.44C295.76,-175.31 323.9,-167.18 349.12,-159.89"/>
<polygon fill="midnightblue" stroke="midnightblue" points="350.35,-163.18 358.98,-157.04 348.41,-156.45 350.35,-163.18"/>
</g>
<!-- Node12 -->
<g id="node12" class="node">
<title>Node12</title>
<g id="a_node12"><a xlink:href="group__zwave__tx.html#gad1538f36d226fe8147c5e538625568df" target="_top" xlink:title="Queue and send frames to Z&#45;Wave nodes.">
<polygon fill="none" stroke="black" points="357.5,-88.5 357.5,-107.5 466.5,-107.5 466.5,-88.5 357.5,-88.5"/>
<text text-anchor="middle" x="412" y="-95.5" font-family="Helvetica,sans-Serif" font-size="10.00">zwave_tx_send_data</text>
</a>
</g>
</g>
<!-- Node2&#45;&gt;Node12 -->
<g id="edge12" class="edge">
<title>Node2&#45;&gt;Node12</title>
<path fill="none" stroke="midnightblue" d="M251.74,-181.25C268.61,-165.69 303.89,-135.26 339,-118 344.65,-115.22 350.75,-112.78 356.93,-110.64"/>
<polygon fill="midnightblue" stroke="midnightblue" points="358.18,-113.91 366.63,-107.53 356.04,-107.25 358.18,-113.91"/>
</g>
<!-- Node4 -->
<g id="node4" class="node">
<title>Node4</title>
<g id="a_node4"><a xlink:href="group__zwave__network__management.html#gae265f1e935804f3f0b971755ab0ee61e" target="_top" xlink:title="Get the cached NodeID.">
<polygon fill="none" stroke="black" points="521,-335 521,-365 667,-365 667,-335 521,-335"/>
<text text-anchor="start" x="529" y="-353" font-family="Helvetica,sans-Serif" font-size="10.00">zwave_network_management</text>
<text text-anchor="middle" x="594" y="-342" font-family="Helvetica,sans-Serif" font-size="10.00">_get_node_id</text>
</a>
</g>
</g>
<!-- Node3&#45;&gt;Node4 -->
<g id="edge4" class="edge">
<title>Node3&#45;&gt;Node4</title>
<path fill="none" stroke="midnightblue" d="M467.98,-350C481.38,-350 496,-350 510.37,-350"/>
<polygon fill="midnightblue" stroke="midnightblue" points="510.76,-353.5 520.76,-350 510.76,-346.5 510.76,-353.5"/>
</g>
<!-- Node6 -->
<g id="node6" class="node">
<title>Node6</title>
<g id="a_node6"><a xlink:href="group__zwave__network__management.html#ga90aba971e0bdba90096c533bcd803dc4" target="_top" xlink:title="Checks if we have return routes to assign for a given NodeID.">
<polygon fill="none" stroke="black" points="535,-280 535,-310 653,-310 653,-280 535,-280"/>
<text text-anchor="start" x="543" y="-298" font-family="Helvetica,sans-Serif" font-size="10.00">we_have_return_routes</text>
<text text-anchor="middle" x="594" y="-287" font-family="Helvetica,sans-Serif" font-size="10.00">_to_assign</text>
</a>
</g>
</g>
<!-- Node5&#45;&gt;Node6 -->
<g id="edge6" class="edge">
<title>Node5&#45;&gt;Node6</title>
<path fill="none" stroke="midnightblue" d="M485.18,-295C498.22,-295 511.78,-295 524.71,-295"/>
<polygon fill="midnightblue" stroke="midnightblue" points="524.92,-298.5 534.92,-295 524.92,-291.5 524.92,-298.5"/>
</g>
<!-- Node9 -->
<g id="node9" class="node">
<title>Node9</title>
<g id="a_node9"><a xlink:href="group__zwave__controller__keyset.html#ga43a73c5ae7dc860fa2e5edb9814c432f" target="_top" xlink:title="Get the hight encapsulation supported by a given key set.">
<polygon fill="none" stroke="black" points="534.5,-200 534.5,-230 653.5,-230 653.5,-200 534.5,-200"/>
<text text-anchor="start" x="542.5" y="-218" font-family="Helvetica,sans-Serif" font-size="10.00">zwave_controller_get</text>
<text text-anchor="middle" x="594" y="-207" font-family="Helvetica,sans-Serif" font-size="10.00">_highest_encapsulation</text>
</a>
</g>
</g>
<!-- Node8&#45;&gt;Node9 -->
<g id="edge9" class="edge">
<title>Node8&#45;&gt;Node9</title>
<path fill="none" stroke="midnightblue" d="M470.94,-198.73C487.87,-200.98 506.53,-203.47 524.07,-205.81"/>
<polygon fill="midnightblue" stroke="midnightblue" points="523.86,-209.31 534.24,-207.17 524.79,-202.37 523.86,-209.31"/>
</g>
<!-- Node10 -->
<g id="node10" class="node">
<title>Node10</title>
<g id="a_node10"><a xlink:href="group__zwave__controller__storage.html#ga771d01deff646dfda3f8406d6fbf5736" target="_top" xlink:title="Return the granted keys for a node.">
<polygon fill="none" stroke="black" points="530,-151 530,-181 658,-181 658,-151 530,-151"/>
<text text-anchor="start" x="538" y="-169" font-family="Helvetica,sans-Serif" font-size="10.00">zwave_controller_storage</text>
<text text-anchor="middle" x="594" y="-158" font-family="Helvetica,sans-Serif" font-size="10.00">_get_node_granted_keys</text>
</a>
</g>
</g>
<!-- Node8&#45;&gt;Node10 -->
<g id="edge10" class="edge">
<title>Node8&#45;&gt;Node10</title>
<path fill="none" stroke="midnightblue" d="M470.94,-182.95C486.52,-180.79 503.57,-178.42 519.85,-176.16"/>
<polygon fill="midnightblue" stroke="midnightblue" points="520.45,-179.61 529.87,-174.77 519.49,-172.68 520.45,-179.61"/>
</g>
<!-- Node14 -->
<g id="node14" class="node">
<title>Node14</title>
<g id="a_node14"><a xlink:href="group__zpc__attribute__store__network__helpers.html#gae4d15b8e0c61c88d94c8f342bd2014fc" target="_top" xlink:title="Take a UNID/endpoint combination and returns its attribute store node.">
<polygon fill="none" stroke="black" points="344.5,-39 344.5,-69 479.5,-69 479.5,-39 344.5,-39"/>
<text text-anchor="start" x="352.5" y="-57" font-family="Helvetica,sans-Serif" font-size="10.00">attribute_store_network</text>
<text text-anchor="middle" x="412" y="-46" font-family="Helvetica,sans-Serif" font-size="10.00">_helper_get_endpoint_node</text>
</a>
</g>
</g>
<!-- Node13&#45;&gt;Node14 -->
<g id="edge14" class="edge">
<title>Node13&#45;&gt;Node14</title>
<path fill="none" stroke="midnightblue" d="M301.74,-54C312.19,-54 323.19,-54 334.02,-54"/>
<polygon fill="midnightblue" stroke="midnightblue" points="334.33,-57.5 344.33,-54 334.33,-50.5 334.33,-57.5"/>
</g>
<!-- Node19 -->
<g id="node19" class="node">
<title>Node19</title>
<g id="a_node19"><a xlink:href="group__zwave__unid.html#ga421deceb8a12916f049e4f3446774439" target="_top" xlink:title="Form a UNID.">
<polygon fill="none" stroke="black" points="346,-0.5 346,-19.5 478,-19.5 478,-0.5 346,-0.5"/>
<text text-anchor="middle" x="412" y="-7.5" font-family="Helvetica,sans-Serif" font-size="10.00">zwave_unid_from_node_id</text>
</a>
</g>
</g>
<!-- Node13&#45;&gt;Node19 -->
<g id="edge19" class="edge">
<title>Node13&#45;&gt;Node19</title>
<path fill="none" stroke="midnightblue" d="M299.36,-38.98C320.61,-33.46 344.37,-27.3 364.5,-22.07"/>
<polygon fill="midnightblue" stroke="midnightblue" points="365.56,-25.41 374.36,-19.51 363.8,-18.64 365.56,-25.41"/>
</g>
<!-- Node15 -->
<g id="node15" class="node">
<title>Node15</title>
<g id="a_node15"><a xlink:href="group__zpc__attribute__store__network__helpers.html#gafb993ff484b3c826743c4695d6659cf0" target="_top" xlink:title="Take a UNID and return its attribute store node representing the NodeID.">
<polygon fill="none" stroke="black" points="528,-39 528,-69 660,-69 660,-39 528,-39"/>
<text text-anchor="start" x="536" y="-57" font-family="Helvetica,sans-Serif" font-size="10.00">attribute_store_network</text>
<text text-anchor="middle" x="594" y="-46" font-family="Helvetica,sans-Serif" font-size="10.00">_helper_get_node_id_node</text>
</a>
</g>
</g>
<!-- Node14&#45;&gt;Node15 -->
<g id="edge15" class="edge">
<title>Node14&#45;&gt;Node15</title>
<path fill="none" stroke="midnightblue" d="M479.51,-54C492,-54 505.13,-54 517.86,-54"/>
<polygon fill="midnightblue" stroke="midnightblue" points="517.96,-57.5 527.96,-54 517.96,-50.5 517.96,-57.5"/>
</g>
<!-- Node16 -->
<g id="node16" class="node">
<title>Node16</title>
<g id="a_node16"><a xlink:href="group__zpc__attribute__store__network__helpers.html#ga05cb572c96f7dc8e6657f86e135fafed" target="_top" xlink:title="Take a UNID and return its attribute store node representing the HomeID.">
<polygon fill="none" stroke="black" points="703,-61 703,-91 838,-91 838,-61 703,-61"/>
<text text-anchor="start" x="711" y="-79" font-family="Helvetica,sans-Serif" font-size="10.00">attribute_store_network</text>
<text text-anchor="middle" x="770.5" y="-68" font-family="Helvetica,sans-Serif" font-size="10.00">_helper_get_home_id_node</text>
</a>
</g>
</g>
<!-- Node15&#45;&gt;Node16 -->
<g id="edge16" class="edge">
<title>Node15&#45;&gt;Node16</title>
<path fill="none" stroke="midnightblue" d="M660.47,-62.25C670.95,-63.58 681.88,-64.95 692.6,-66.3"/>
<polygon fill="midnightblue" stroke="midnightblue" points="692.43,-69.81 702.79,-67.59 693.3,-62.87 692.43,-69.81"/>
</g>
<!-- Node18 -->
<g id="node18" class="node">
<title>Node18</title>
<g id="a_node18"><a xlink:href="group__zwave__unid.html#ga76885767debd174e96e6df00b0a368c3" target="_top" xlink:title="Convert a UNID to a node ID.">
<polygon fill="none" stroke="black" points="710,-22.5 710,-41.5 831,-41.5 831,-22.5 710,-22.5"/>
<text text-anchor="middle" x="770.5" y="-29.5" font-family="Helvetica,sans-Serif" font-size="10.00">zwave_unid_to_node_id</text>
</a>
</g>
</g>
<!-- Node15&#45;&gt;Node18 -->
<g id="edge18" class="edge">
<title>Node15&#45;&gt;Node18</title>
<path fill="none" stroke="midnightblue" d="M660.47,-45.75C673.29,-44.13 686.78,-42.43 699.74,-40.8"/>
<polygon fill="midnightblue" stroke="midnightblue" points="700.5,-44.23 709.99,-39.5 699.63,-37.28 700.5,-44.23"/>
</g>
<!-- Node17 -->
<g id="node17" class="node">
<title>Node17</title>
<g id="a_node17"><a xlink:href="group__zwave__unid.html#ga92f9808a08c2ce1c0a6a9dc2debf3580" target="_top" xlink:title="Convert a UNID to a Home ID.">
<polygon fill="none" stroke="black" points="874,-66.5 874,-85.5 998,-85.5 998,-66.5 874,-66.5"/>
<text text-anchor="middle" x="936" y="-73.5" font-family="Helvetica,sans-Serif" font-size="10.00">zwave_unid_to_home_id</text>
</a>
</g>
</g>
<!-- Node16&#45;&gt;Node17 -->
<g id="edge17" class="edge">
<title>Node16&#45;&gt;Node17</title>
<path fill="none" stroke="midnightblue" d="M838,-76C846.42,-76 855.07,-76 863.57,-76"/>
<polygon fill="midnightblue" stroke="midnightblue" points="863.83,-79.5 873.83,-76 863.83,-72.5 863.83,-79.5"/>
</g>
</g>
</svg>
