<?xml version="1.0" encoding="UTF-8" standalone="no"?>
<!DOCTYPE svg PUBLIC "-//W3C//DTD SVG 1.1//EN"
 "http://www.w3.org/Graphics/SVG/1.1/DTD/svg11.dtd">
<!-- Generated by graphviz version 2.43.0 (0)
 -->
<!-- Title: zwave_command_class_powerlevel_handle_powerlevel_test_node_get Pages: 1 -->
<svg width="1006pt" height="87pt"
 viewBox="0.00 0.00 1006.00 86.50" xmlns="http://www.w3.org/2000/svg" xmlns:xlink="http://www.w3.org/1999/xlink">
<g id="graph0" class="graph" transform="scale(1 1) rotate(0) translate(4 82.5)">
<title>zwave_command_class_powerlevel_handle_powerlevel_test_node_get</title>
<!-- Node1 -->
<g id="node1" class="node">
<title>Node1</title>
<g id="a_node1"><a xlink:title=" ">
<polygon fill="#bfbfbf" stroke="black" points="844,-0.5 844,-41.5 998,-41.5 998,-0.5 844,-0.5"/>
<text text-anchor="start" x="852" y="-29.5" font-family="Helvetica,sans-Serif" font-size="10.00">zwave_command_class</text>
<text text-anchor="start" x="852" y="-18.5" font-family="Helvetica,sans-Serif" font-size="10.00">_powerlevel_handle_powerlevel</text>
<text text-anchor="middle" x="921" y="-7.5" font-family="Helvetica,sans-Serif" font-size="10.00">_test_node_get</text>
</a>
</g>
</g>
<!-- Node2 -->
<g id="node2" class="node">
<title>Node2</title>
<g id="a_node2"><a xlink:href="zwave__command__class__powerlevel_8c.html#a0b112f916811acbf4303242c7ff5940e" target="_top" xlink:title=" ">
<polygon fill="none" stroke="black" points="692,-30 692,-60 808,-60 808,-30 692,-30"/>
<text text-anchor="start" x="700" y="-48" font-family="Helvetica,sans-Serif" font-size="10.00">power_level_test_send</text>
<text text-anchor="middle" x="750" y="-37" font-family="Helvetica,sans-Serif" font-size="10.00">_data_callback</text>
</a>
</g>
</g>
<!-- Node1&#45;&gt;Node2 -->
<g id="edge1" class="edge">
<title>Node1&#45;&gt;Node2</title>
<path fill="none" stroke="midnightblue" d="M833.74,-33.25C825.08,-34.48 816.44,-35.71 808.19,-36.88"/>
<polygon fill="midnightblue" stroke="midnightblue" points="834.5,-36.68 843.9,-31.81 833.51,-29.75 834.5,-36.68"/>
</g>
<!-- Node4 -->
<g id="node4" class="node">
<title>Node4</title>
<g id="a_node4"><a xlink:href="zwave__command__class__powerlevel_8c.html#adadb52502e81ed531e5a992d83e7eeca" target="_top" xlink:title="Handles incoming powerlevel commands.">
<polygon fill="none" stroke="black" points="344,-2.5 344,-43.5 466,-43.5 466,-2.5 344,-2.5"/>
<text text-anchor="start" x="352" y="-31.5" font-family="Helvetica,sans-Serif" font-size="10.00">zwave_command_class</text>
<text text-anchor="start" x="352" y="-20.5" font-family="Helvetica,sans-Serif" font-size="10.00">_powerlevel_support</text>
<text text-anchor="middle" x="405" y="-9.5" font-family="Helvetica,sans-Serif" font-size="10.00">_handler</text>
</a>
</g>
</g>
<!-- Node1&#45;&gt;Node4 -->
<g id="edge7" class="edge">
<title>Node1&#45;&gt;Node4</title>
<path fill="none" stroke="midnightblue" d="M833.64,-18.71C749.11,-16.86 616.68,-15.02 502,-18 490.4,-18.3 478.03,-18.81 466.15,-19.39"/>
<polygon fill="midnightblue" stroke="midnightblue" points="833.63,-22.21 843.71,-18.93 833.79,-15.21 833.63,-22.21"/>
</g>
<!-- Node2&#45;&gt;Node2 -->
<g id="edge2" class="edge">
<title>Node2&#45;&gt;Node2</title>
<path fill="none" stroke="midnightblue" d="M780.21,-70.46C776.46,-75.18 766.39,-78.5 750,-78.5 723.11,-78.5 713.23,-69.56 720.37,-60.16"/>
<polygon fill="midnightblue" stroke="midnightblue" points="783.68,-69.95 779.63,-60.16 776.69,-70.34 783.68,-69.95"/>
</g>
<!-- Node3 -->
<g id="node3" class="node">
<title>Node3</title>
<g id="a_node3"><a xlink:href="zwave__command__class__powerlevel_8c.html#acf1c511a05d36f9c5a134c5a68e3fc02" target="_top" xlink:title=" ">
<polygon fill="none" stroke="black" points="502,-27.5 502,-68.5 656,-68.5 656,-27.5 502,-27.5"/>
<text text-anchor="start" x="510" y="-56.5" font-family="Helvetica,sans-Serif" font-size="10.00">zwave_command_class</text>
<text text-anchor="start" x="510" y="-45.5" font-family="Helvetica,sans-Serif" font-size="10.00">_powerlevel_handle_powerlevel</text>
<text text-anchor="middle" x="579" y="-34.5" font-family="Helvetica,sans-Serif" font-size="10.00">_test_node_set</text>
</a>
</g>
</g>
<!-- Node2&#45;&gt;Node3 -->
<g id="edge3" class="edge">
<title>Node2&#45;&gt;Node3</title>
<path fill="none" stroke="midnightblue" d="M681.65,-46.2C673.23,-46.34 664.58,-46.5 656.03,-46.65"/>
<polygon fill="midnightblue" stroke="midnightblue" points="681.85,-49.69 691.78,-46.02 681.72,-42.69 681.85,-49.69"/>
</g>
<!-- Node3&#45;&gt;Node4 -->
<g id="edge4" class="edge">
<title>Node3&#45;&gt;Node4</title>
<path fill="none" stroke="midnightblue" d="M491.68,-35.45C483.04,-34.2 474.41,-32.94 466.13,-31.74"/>
<polygon fill="midnightblue" stroke="midnightblue" points="491.41,-38.95 501.81,-36.93 492.41,-32.02 491.41,-38.95"/>
</g>
<!-- Node5 -->
<g id="node5" class="node">
<title>Node5</title>
<g id="a_node5"><a xlink:href="zwave__command__class__powerlevel_8c.html#a514166d46bd0d8be676c70d0c506aaca" target="_top" xlink:title="setup for powerelvel command class">
<polygon fill="none" stroke="black" points="186,-8 186,-38 308,-38 308,-8 186,-8"/>
<text text-anchor="start" x="194" y="-26" font-family="Helvetica,sans-Serif" font-size="10.00">zwave_command_class</text>
<text text-anchor="middle" x="247" y="-15" font-family="Helvetica,sans-Serif" font-size="10.00">_powerlevel_init</text>
</a>
</g>
</g>
<!-- Node4&#45;&gt;Node5 -->
<g id="edge5" class="edge">
<title>Node4&#45;&gt;Node5</title>
<path fill="none" stroke="midnightblue" d="M333.46,-23C325.01,-23 316.44,-23 308.15,-23"/>
<polygon fill="midnightblue" stroke="midnightblue" points="333.69,-26.5 343.69,-23 333.69,-19.5 333.69,-26.5"/>
</g>
<!-- Node6 -->
<g id="node6" class="node">
<title>Node6</title>
<g id="a_node6"><a xlink:href="group__command__classes__fixt.html#ga5272651939ced1723158340039e8da19" target="_top" xlink:title="Setup fixture for Z&#45;Wave Command Classes.">
<polygon fill="none" stroke="black" points="0,-13.5 0,-32.5 150,-32.5 150,-13.5 0,-13.5"/>
<text text-anchor="middle" x="75" y="-20.5" font-family="Helvetica,sans-Serif" font-size="10.00">zwave_command_classes_init</text>
</a>
</g>
</g>
<!-- Node5&#45;&gt;Node6 -->
<g id="edge6" class="edge">
<title>Node5&#45;&gt;Node6</title>
<path fill="none" stroke="midnightblue" d="M175.51,-23C167.16,-23 158.61,-23 150.21,-23"/>
<polygon fill="midnightblue" stroke="midnightblue" points="175.59,-26.5 185.59,-23 175.59,-19.5 175.59,-26.5"/>
</g>
</g>
</svg>
