<?xml version="1.0" encoding="UTF-8" standalone="no"?>
<!DOCTYPE svg PUBLIC "-//W3C//DTD SVG 1.1//EN"
 "http://www.w3.org/Graphics/SVG/1.1/DTD/svg11.dtd">
<!-- Generated by graphviz version 2.43.0 (0)
 -->
<!-- Title: applications/zpc/components/zwave/zwave_controller/src/zwave_controller_storage.c Pages: 1 -->
<svg width="674pt" height="285pt"
 viewBox="0.00 0.00 674.33 285.00" xmlns="http://www.w3.org/2000/svg" xmlns:xlink="http://www.w3.org/1999/xlink">
<g id="graph0" class="graph" transform="scale(1 1) rotate(0) translate(4 281)">
<title>applications/zpc/components/zwave/zwave_controller/src/zwave_controller_storage.c</title>
<!-- Node1 -->
<g id="node1" class="node">
<title>Node1</title>
<g id="a_node1"><a xlink:title=" ">
<polygon fill="#bfbfbf" stroke="black" points="427.83,-235.5 427.83,-276.5 582.83,-276.5 582.83,-235.5 427.83,-235.5"/>
<text text-anchor="start" x="435.83" y="-264.5" font-family="Helvetica,sans-Serif" font-size="10.00">applications/zpc/components</text>
<text text-anchor="start" x="435.83" y="-253.5" font-family="Helvetica,sans-Serif" font-size="10.00">/zwave/zwave_controller</text>
<text text-anchor="middle" x="505.33" y="-242.5" font-family="Helvetica,sans-Serif" font-size="10.00">/src/zwave_controller_storage.c</text>
</a>
</g>
</g>
<!-- Node2 -->
<g id="node2" class="node">
<title>Node2</title>
<g id="a_node2"><a xlink:href="zwave__controller__storage_8h.html" target="_top" xlink:title=" ">
<polygon fill="none" stroke="black" points="326.33,-179.5 326.33,-198.5 462.33,-198.5 462.33,-179.5 326.33,-179.5"/>
<text text-anchor="middle" x="394.33" y="-186.5" font-family="Helvetica,sans-Serif" font-size="10.00">zwave_controller_storage.h</text>
</a>
</g>
</g>
<!-- Node1&#45;&gt;Node2 -->
<g id="edge1" class="edge">
<title>Node1&#45;&gt;Node2</title>
<path fill="none" stroke="midnightblue" d="M472.02,-235.5C454.68,-225.34 433.87,-213.16 418.15,-203.95"/>
<polygon fill="midnightblue" stroke="midnightblue" points="419.5,-200.69 409.1,-198.65 415.96,-206.73 419.5,-200.69"/>
</g>
<!-- Node12 -->
<g id="node12" class="node">
<title>Node12</title>
<g id="a_node12"><a xlink:title=" ">
<polygon fill="none" stroke="#bfbfbf" points="480.33,-179.5 480.33,-198.5 530.33,-198.5 530.33,-179.5 480.33,-179.5"/>
<text text-anchor="middle" x="505.33" y="-186.5" font-family="Helvetica,sans-Serif" font-size="10.00">sl_log.h</text>
</a>
</g>
</g>
<!-- Node1&#45;&gt;Node12 -->
<g id="edge19" class="edge">
<title>Node1&#45;&gt;Node12</title>
<path fill="none" stroke="midnightblue" d="M505.33,-235.5C505.33,-227.07 505.33,-217.24 505.33,-208.87"/>
<polygon fill="midnightblue" stroke="midnightblue" points="508.83,-208.65 505.33,-198.65 501.83,-208.65 508.83,-208.65"/>
</g>
<!-- Node13 -->
<g id="node13" class="node">
<title>Node13</title>
<g id="a_node13"><a xlink:title=" ">
<polygon fill="none" stroke="#bfbfbf" points="548.33,-179.5 548.33,-198.5 600.33,-198.5 600.33,-179.5 548.33,-179.5"/>
<text text-anchor="middle" x="574.33" y="-186.5" font-family="Helvetica,sans-Serif" font-size="10.00">assert.h</text>
</a>
</g>
</g>
<!-- Node1&#45;&gt;Node13 -->
<g id="edge20" class="edge">
<title>Node1&#45;&gt;Node13</title>
<path fill="none" stroke="midnightblue" d="M526.03,-235.5C536.2,-225.92 548.29,-214.53 557.83,-205.54"/>
<polygon fill="midnightblue" stroke="midnightblue" points="560.26,-208.06 565.14,-198.65 555.46,-202.96 560.26,-208.06"/>
</g>
<!-- Node3 -->
<g id="node3" class="node">
<title>Node3</title>
<g id="a_node3"><a xlink:title=" ">
<polygon fill="none" stroke="#bfbfbf" points="32.33,-0.5 32.33,-19.5 88.33,-19.5 88.33,-0.5 32.33,-0.5"/>
<text text-anchor="middle" x="60.33" y="-7.5" font-family="Helvetica,sans-Serif" font-size="10.00">stdbool.h</text>
</a>
</g>
</g>
<!-- Node2&#45;&gt;Node3 -->
<g id="edge2" class="edge">
<title>Node2&#45;&gt;Node3</title>
<path fill="none" stroke="midnightblue" d="M326.27,-185.67C266.11,-181.71 176.89,-171.13 104.33,-143 54.1,-123.53 28.8,-123.46 3.33,-76 -7.38,-56.04 14.34,-37.03 33.98,-24.78"/>
<polygon fill="midnightblue" stroke="midnightblue" points="35.87,-27.73 42.73,-19.65 32.33,-21.69 35.87,-27.73"/>
</g>
<!-- Node4 -->
<g id="node4" class="node">
<title>Node4</title>
<g id="a_node4"><a xlink:href="zwave__node__id__definitions_8h.html" target="_top" xlink:title=" ">
<polygon fill="none" stroke="black" points="202.33,-56.5 202.33,-75.5 344.33,-75.5 344.33,-56.5 202.33,-56.5"/>
<text text-anchor="middle" x="273.33" y="-63.5" font-family="Helvetica,sans-Serif" font-size="10.00">zwave_node_id_definitions.h</text>
</a>
</g>
</g>
<!-- Node2&#45;&gt;Node4 -->
<g id="edge3" class="edge">
<title>Node2&#45;&gt;Node4</title>
<path fill="none" stroke="midnightblue" d="M385.63,-179.3C365.39,-159.07 314.95,-108.62 289.12,-82.79"/>
<polygon fill="midnightblue" stroke="midnightblue" points="291.5,-80.22 281.95,-75.62 286.55,-85.17 291.5,-80.22"/>
</g>
<!-- Node6 -->
<g id="node6" class="node">
<title>Node6</title>
<g id="a_node6"><a xlink:href="zwave__controller__types_8h.html" target="_top" xlink:title=" ">
<polygon fill="none" stroke="black" points="113.33,-118 113.33,-137 241.33,-137 241.33,-118 113.33,-118"/>
<text text-anchor="middle" x="177.33" y="-125" font-family="Helvetica,sans-Serif" font-size="10.00">zwave_controller_types.h</text>
</a>
</g>
</g>
<!-- Node2&#45;&gt;Node6 -->
<g id="edge5" class="edge">
<title>Node2&#45;&gt;Node6</title>
<path fill="none" stroke="midnightblue" d="M363.24,-179.48C325.05,-169 260.16,-151.21 218.03,-139.66"/>
<polygon fill="midnightblue" stroke="midnightblue" points="218.93,-136.28 208.36,-137.01 217.08,-143.03 218.93,-136.28"/>
</g>
<!-- Node7 -->
<g id="node7" class="node">
<title>Node7</title>
<g id="a_node7"><a xlink:href="zwave__generic__types_8h.html" target="_top" xlink:title=" ">
<polygon fill="none" stroke="black" points="362.83,-56.5 362.83,-75.5 481.83,-75.5 481.83,-56.5 362.83,-56.5"/>
<text text-anchor="middle" x="422.33" y="-63.5" font-family="Helvetica,sans-Serif" font-size="10.00">zwave_generic_types.h</text>
</a>
</g>
</g>
<!-- Node2&#45;&gt;Node7 -->
<g id="edge15" class="edge">
<title>Node2&#45;&gt;Node7</title>
<path fill="none" stroke="midnightblue" d="M396.34,-179.3C400.86,-159.76 411.9,-112.06 418.04,-85.55"/>
<polygon fill="midnightblue" stroke="midnightblue" points="421.49,-86.15 420.33,-75.62 414.67,-84.58 421.49,-86.15"/>
</g>
<!-- Node9 -->
<g id="node9" class="node">
<title>Node9</title>
<g id="a_node9"><a xlink:href="zwave__keyset__definitions_8h.html" target="_top" xlink:title=" ">
<polygon fill="none" stroke="black" points="499.83,-56.5 499.83,-75.5 636.83,-75.5 636.83,-56.5 499.83,-56.5"/>
<text text-anchor="middle" x="568.33" y="-63.5" font-family="Helvetica,sans-Serif" font-size="10.00">zwave_keyset_definitions.h</text>
</a>
</g>
</g>
<!-- Node2&#45;&gt;Node9 -->
<g id="edge13" class="edge">
<title>Node2&#45;&gt;Node9</title>
<path fill="none" stroke="midnightblue" d="M398.88,-179.23C407.38,-163.63 427.12,-130.95 452.33,-112 473.01,-96.46 499.73,-85.61 522.32,-78.46"/>
<polygon fill="midnightblue" stroke="midnightblue" points="523.47,-81.77 532.04,-75.53 521.45,-75.07 523.47,-81.77"/>
</g>
<!-- Node10 -->
<g id="node10" class="node">
<title>Node10</title>
<g id="a_node10"><a xlink:href="zwave__command__class__version__types_8h.html" target="_top" xlink:title=" ">
<polygon fill="none" stroke="black" points="544.33,-112.5 544.33,-142.5 666.33,-142.5 666.33,-112.5 544.33,-112.5"/>
<text text-anchor="start" x="552.33" y="-130.5" font-family="Helvetica,sans-Serif" font-size="10.00">zwave_command_class</text>
<text text-anchor="middle" x="605.33" y="-119.5" font-family="Helvetica,sans-Serif" font-size="10.00">_version_types.h</text>
</a>
</g>
</g>
<!-- Node2&#45;&gt;Node10 -->
<g id="edge16" class="edge">
<title>Node2&#45;&gt;Node10</title>
<path fill="none" stroke="midnightblue" d="M424.56,-179.48C456.07,-170.59 506.29,-156.43 545.8,-145.29"/>
<polygon fill="midnightblue" stroke="midnightblue" points="546.92,-148.61 555.6,-142.52 545.02,-141.87 546.92,-148.61"/>
</g>
<!-- Node11 -->
<g id="node11" class="node">
<title>Node11</title>
<g id="a_node11"><a xlink:href="sl__status_8h.html" target="_top" xlink:title="SL Status Codes.">
<polygon fill="none" stroke="black" points="460.83,-118 460.83,-137 525.83,-137 525.83,-118 460.83,-118"/>
<text text-anchor="middle" x="493.33" y="-125" font-family="Helvetica,sans-Serif" font-size="10.00">sl_status.h</text>
</a>
</g>
</g>
<!-- Node2&#45;&gt;Node11 -->
<g id="edge17" class="edge">
<title>Node2&#45;&gt;Node11</title>
<path fill="none" stroke="midnightblue" d="M408.51,-179.48C424.69,-169.75 451.35,-153.73 470.47,-142.24"/>
<polygon fill="midnightblue" stroke="midnightblue" points="472.4,-145.16 479.17,-137.01 468.8,-139.16 472.4,-145.16"/>
</g>
<!-- Node5 -->
<g id="node5" class="node">
<title>Node5</title>
<g id="a_node5"><a xlink:title=" ">
<polygon fill="none" stroke="#bfbfbf" points="397.83,-0.5 397.83,-19.5 446.83,-19.5 446.83,-0.5 397.83,-0.5"/>
<text text-anchor="middle" x="422.33" y="-7.5" font-family="Helvetica,sans-Serif" font-size="10.00">stdint.h</text>
</a>
</g>
</g>
<!-- Node4&#45;&gt;Node5 -->
<g id="edge4" class="edge">
<title>Node4&#45;&gt;Node5</title>
<path fill="none" stroke="midnightblue" d="M296.94,-56.44C321.79,-47.44 361.1,-33.19 389.08,-23.05"/>
<polygon fill="midnightblue" stroke="midnightblue" points="390.62,-26.21 398.83,-19.52 388.23,-19.63 390.62,-26.21"/>
</g>
<!-- Node6&#45;&gt;Node3 -->
<g id="edge6" class="edge">
<title>Node6&#45;&gt;Node3</title>
<path fill="none" stroke="midnightblue" d="M170.81,-117.78C160.3,-103.96 138.62,-76.52 117.33,-56 106.01,-45.09 92.2,-34.14 81,-25.77"/>
<polygon fill="midnightblue" stroke="midnightblue" points="82.82,-22.75 72.69,-19.66 78.67,-28.4 82.82,-22.75"/>
</g>
<!-- Node6&#45;&gt;Node4 -->
<g id="edge8" class="edge">
<title>Node6&#45;&gt;Node4</title>
<path fill="none" stroke="midnightblue" d="M191.08,-117.98C206.69,-108.3 232.39,-92.37 250.91,-80.89"/>
<polygon fill="midnightblue" stroke="midnightblue" points="252.94,-83.75 259.6,-75.51 249.26,-77.8 252.94,-83.75"/>
</g>
<!-- Node6&#45;&gt;Node5 -->
<g id="edge7" class="edge">
<title>Node6&#45;&gt;Node5</title>
<path fill="none" stroke="midnightblue" d="M176.53,-117.7C175.71,-102.75 176.4,-72.44 193.33,-56 220.55,-29.56 330.57,-17.72 387.62,-13.27"/>
<polygon fill="midnightblue" stroke="midnightblue" points="387.91,-16.76 397.63,-12.52 387.39,-9.78 387.91,-16.76"/>
</g>
<!-- Node6&#45;&gt;Node7 -->
<g id="edge9" class="edge">
<title>Node6&#45;&gt;Node7</title>
<path fill="none" stroke="midnightblue" d="M212.43,-117.98C255.82,-107.44 329.74,-89.49 377.27,-77.94"/>
<polygon fill="midnightblue" stroke="midnightblue" points="378.4,-81.27 387.29,-75.51 376.75,-74.47 378.4,-81.27"/>
</g>
<!-- Node8 -->
<g id="node8" class="node">
<title>Node8</title>
<g id="a_node8"><a xlink:href="zwave__rf__region_8h.html" target="_top" xlink:title=" ">
<polygon fill="none" stroke="black" points="12.33,-56.5 12.33,-75.5 108.33,-75.5 108.33,-56.5 12.33,-56.5"/>
<text text-anchor="middle" x="60.33" y="-63.5" font-family="Helvetica,sans-Serif" font-size="10.00">zwave_rf_region.h</text>
</a>
</g>
</g>
<!-- Node6&#45;&gt;Node8 -->
<g id="edge11" class="edge">
<title>Node6&#45;&gt;Node8</title>
<path fill="none" stroke="midnightblue" d="M160.56,-117.98C141.1,-108.08 108.78,-91.64 86.12,-80.12"/>
<polygon fill="midnightblue" stroke="midnightblue" points="87.56,-76.92 77.06,-75.51 84.39,-83.16 87.56,-76.92"/>
</g>
<!-- Node7&#45;&gt;Node5 -->
<g id="edge10" class="edge">
<title>Node7&#45;&gt;Node5</title>
<path fill="none" stroke="midnightblue" d="M422.33,-56.08C422.33,-49.01 422.33,-38.86 422.33,-29.99"/>
<polygon fill="midnightblue" stroke="midnightblue" points="425.83,-29.75 422.33,-19.75 418.83,-29.75 425.83,-29.75"/>
</g>
<!-- Node8&#45;&gt;Node3 -->
<g id="edge12" class="edge">
<title>Node8&#45;&gt;Node3</title>
<path fill="none" stroke="midnightblue" d="M60.33,-56.08C60.33,-49.01 60.33,-38.86 60.33,-29.99"/>
<polygon fill="midnightblue" stroke="midnightblue" points="63.83,-29.75 60.33,-19.75 56.83,-29.75 63.83,-29.75"/>
</g>
<!-- Node9&#45;&gt;Node5 -->
<g id="edge14" class="edge">
<title>Node9&#45;&gt;Node5</title>
<path fill="none" stroke="midnightblue" d="M545.19,-56.44C520.85,-47.44 482.32,-33.19 454.9,-23.05"/>
<polygon fill="midnightblue" stroke="midnightblue" points="455.95,-19.7 445.35,-19.52 453.52,-26.27 455.95,-19.7"/>
</g>
<!-- Node11&#45;&gt;Node5 -->
<g id="edge18" class="edge">
<title>Node11&#45;&gt;Node5</title>
<path fill="none" stroke="midnightblue" d="M517.73,-117.99C523.49,-116 529.62,-113.91 535.33,-112 587.73,-94.46 681.34,-98.75 646.33,-56 622.83,-27.32 514.19,-16.53 457.3,-12.79"/>
<polygon fill="midnightblue" stroke="midnightblue" points="457.17,-9.28 446.98,-12.16 456.74,-16.27 457.17,-9.28"/>
</g>
</g>
</svg>
