<?xml version="1.0" encoding="UTF-8" standalone="no"?>
<!DOCTYPE svg PUBLIC "-//W3C//DTD SVG 1.1//EN"
 "http://www.w3.org/Graphics/SVG/1.1/DTD/svg11.dtd">
<!-- Generated by graphviz version 2.43.0 (0)
 -->
<!-- Title: handle_scene_actuator_configuration_report Pages: 1 -->
<svg width="953pt" height="100pt"
 viewBox="0.00 0.00 953.00 99.50" xmlns="http://www.w3.org/2000/svg" xmlns:xlink="http://www.w3.org/1999/xlink">
<g id="graph0" class="graph" transform="scale(1 1) rotate(0) translate(4 95.5)">
<title>handle_scene_actuator_configuration_report</title>
<!-- Node1 -->
<g id="node1" class="node">
<title>Node1</title>
<g id="a_node1"><a xlink:title="Process an incoming Scene Actuator Configuration Report Command.">
<polygon fill="#bfbfbf" stroke="black" points="0,-17 0,-47 117,-47 117,-17 0,-17"/>
<text text-anchor="start" x="8" y="-35" font-family="Helvetica,sans-Serif" font-size="10.00">handle_scene_actuator</text>
<text text-anchor="middle" x="58.5" y="-24" font-family="Helvetica,sans-Serif" font-size="10.00">_configuration_report</text>
</a>
</g>
</g>
<!-- Node2 -->
<g id="node2" class="node">
<title>Node2</title>
<g id="a_node2"><a xlink:href="group__command__classes__utils.html#gaff12f5d1f5b9eed08201efab5854190c" target="_top" xlink:title="Find the Z&#45;Wave Endpoint ID Node attribute based on a const zwave_controller_connection_info_t object...">
<polygon fill="none" stroke="black" points="153,-17 153,-47 275,-47 275,-17 153,-17"/>
<text text-anchor="start" x="161" y="-35" font-family="Helvetica,sans-Serif" font-size="10.00">zwave_command_class</text>
<text text-anchor="middle" x="214" y="-24" font-family="Helvetica,sans-Serif" font-size="10.00">_get_endpoint_node</text>
</a>
</g>
</g>
<!-- Node1&#45;&gt;Node2 -->
<g id="edge1" class="edge">
<title>Node1&#45;&gt;Node2</title>
<path fill="none" stroke="midnightblue" d="M117.09,-32C125.47,-32 134.17,-32 142.77,-32"/>
<polygon fill="midnightblue" stroke="midnightblue" points="142.78,-35.5 152.78,-32 142.78,-28.5 142.78,-35.5"/>
</g>
<!-- Node3 -->
<g id="node3" class="node">
<title>Node3</title>
<g id="a_node3"><a xlink:href="group__zpc__attribute__store__network__helpers.html#gae4d15b8e0c61c88d94c8f342bd2014fc" target="_top" xlink:title="Take a UNID/endpoint combination and returns its attribute store node.">
<polygon fill="none" stroke="black" points="311,-39 311,-69 446,-69 446,-39 311,-39"/>
<text text-anchor="start" x="319" y="-57" font-family="Helvetica,sans-Serif" font-size="10.00">attribute_store_network</text>
<text text-anchor="middle" x="378.5" y="-46" font-family="Helvetica,sans-Serif" font-size="10.00">_helper_get_endpoint_node</text>
</a>
</g>
</g>
<!-- Node2&#45;&gt;Node3 -->
<g id="edge2" class="edge">
<title>Node2&#45;&gt;Node3</title>
<path fill="none" stroke="midnightblue" d="M275.05,-40.13C283.43,-41.26 292.14,-42.44 300.77,-43.61"/>
<polygon fill="midnightblue" stroke="midnightblue" points="300.48,-47.1 310.86,-44.98 301.42,-40.17 300.48,-47.1"/>
</g>
<!-- Node8 -->
<g id="node8" class="node">
<title>Node8</title>
<g id="a_node8"><a xlink:href="group__zwave__unid.html#ga421deceb8a12916f049e4f3446774439" target="_top" xlink:title="Form a UNID.">
<polygon fill="none" stroke="black" points="312.5,-0.5 312.5,-19.5 444.5,-19.5 444.5,-0.5 312.5,-0.5"/>
<text text-anchor="middle" x="378.5" y="-7.5" font-family="Helvetica,sans-Serif" font-size="10.00">zwave_unid_from_node_id</text>
</a>
</g>
</g>
<!-- Node2&#45;&gt;Node8 -->
<g id="edge7" class="edge">
<title>Node2&#45;&gt;Node8</title>
<path fill="none" stroke="midnightblue" d="M275.05,-23.87C283.85,-22.68 293.01,-21.44 302.07,-20.21"/>
<polygon fill="midnightblue" stroke="midnightblue" points="302.8,-23.65 312.24,-18.84 301.86,-16.71 302.8,-23.65"/>
</g>
<!-- Node4 -->
<g id="node4" class="node">
<title>Node4</title>
<g id="a_node4"><a xlink:href="group__zpc__attribute__store__network__helpers.html#gafb993ff484b3c826743c4695d6659cf0" target="_top" xlink:title="Take a UNID and return its attribute store node representing the NodeID.">
<polygon fill="none" stroke="black" points="482,-39 482,-69 614,-69 614,-39 482,-39"/>
<text text-anchor="start" x="490" y="-57" font-family="Helvetica,sans-Serif" font-size="10.00">attribute_store_network</text>
<text text-anchor="middle" x="548" y="-46" font-family="Helvetica,sans-Serif" font-size="10.00">_helper_get_node_id_node</text>
</a>
</g>
</g>
<!-- Node3&#45;&gt;Node4 -->
<g id="edge3" class="edge">
<title>Node3&#45;&gt;Node4</title>
<path fill="none" stroke="midnightblue" d="M446.18,-54C454.55,-54 463.15,-54 471.64,-54"/>
<polygon fill="midnightblue" stroke="midnightblue" points="471.91,-57.5 481.91,-54 471.91,-50.5 471.91,-57.5"/>
</g>
<!-- Node5 -->
<g id="node5" class="node">
<title>Node5</title>
<g id="a_node5"><a xlink:href="group__zpc__attribute__store__network__helpers.html#ga05cb572c96f7dc8e6657f86e135fafed" target="_top" xlink:title="Take a UNID and return its attribute store node representing the HomeID.">
<polygon fill="none" stroke="black" points="650,-61 650,-91 785,-91 785,-61 650,-61"/>
<text text-anchor="start" x="658" y="-79" font-family="Helvetica,sans-Serif" font-size="10.00">attribute_store_network</text>
<text text-anchor="middle" x="717.5" y="-68" font-family="Helvetica,sans-Serif" font-size="10.00">_helper_get_home_id_node</text>
</a>
</g>
</g>
<!-- Node4&#45;&gt;Node5 -->
<g id="edge4" class="edge">
<title>Node4&#45;&gt;Node5</title>
<path fill="none" stroke="midnightblue" d="M614.24,-62.57C622.62,-63.67 631.27,-64.81 639.82,-65.93"/>
<polygon fill="midnightblue" stroke="midnightblue" points="639.41,-69.4 649.78,-67.24 640.32,-62.46 639.41,-69.4"/>
</g>
<!-- Node7 -->
<g id="node7" class="node">
<title>Node7</title>
<g id="a_node7"><a xlink:href="group__zwave__unid.html#ga76885767debd174e96e6df00b0a368c3" target="_top" xlink:title="Convert a UNID to a node ID.">
<polygon fill="none" stroke="black" points="657,-22.5 657,-41.5 778,-41.5 778,-22.5 657,-22.5"/>
<text text-anchor="middle" x="717.5" y="-29.5" font-family="Helvetica,sans-Serif" font-size="10.00">zwave_unid_to_node_id</text>
</a>
</g>
</g>
<!-- Node4&#45;&gt;Node7 -->
<g id="edge6" class="edge">
<title>Node4&#45;&gt;Node7</title>
<path fill="none" stroke="midnightblue" d="M614.24,-45.43C624.89,-44.03 635.96,-42.58 646.72,-41.17"/>
<polygon fill="midnightblue" stroke="midnightblue" points="647.45,-44.6 656.91,-39.83 646.54,-37.66 647.45,-44.6"/>
</g>
<!-- Node6 -->
<g id="node6" class="node">
<title>Node6</title>
<g id="a_node6"><a xlink:href="group__zwave__unid.html#ga92f9808a08c2ce1c0a6a9dc2debf3580" target="_top" xlink:title="Convert a UNID to a Home ID.">
<polygon fill="none" stroke="black" points="821,-66.5 821,-85.5 945,-85.5 945,-66.5 821,-66.5"/>
<text text-anchor="middle" x="883" y="-73.5" font-family="Helvetica,sans-Serif" font-size="10.00">zwave_unid_to_home_id</text>
</a>
</g>
</g>
<!-- Node5&#45;&gt;Node6 -->
<g id="edge5" class="edge">
<title>Node5&#45;&gt;Node6</title>
<path fill="none" stroke="midnightblue" d="M785,-76C793.42,-76 802.07,-76 810.57,-76"/>
<polygon fill="midnightblue" stroke="midnightblue" points="810.83,-79.5 820.83,-76 810.83,-72.5 810.83,-79.5"/>
</g>
</g>
</svg>
