<?xml version="1.0" encoding="UTF-8" standalone="no"?>
<!DOCTYPE svg PUBLIC "-//W3C//DTD SVG 1.1//EN"
 "http://www.w3.org/Graphics/SVG/1.1/DTD/svg11.dtd">
<!-- Generated by graphviz version 2.43.0 (0)
 -->
<!-- Title: S2_notify_nls_state_report Pages: 1 -->
<svg width="1618pt" height="542pt"
 viewBox="0.00 0.00 1618.00 542.00" xmlns="http://www.w3.org/2000/svg" xmlns:xlink="http://www.w3.org/1999/xlink">
<g id="graph0" class="graph" transform="scale(1 1) rotate(0) translate(4 538)">
<title>S2_notify_nls_state_report</title>
<!-- Node1 -->
<g id="node1" class="node">
<title>Node1</title>
<g id="a_node1"><a xlink:title=" ">
<polygon fill="#bfbfbf" stroke="black" points="0,-91.5 0,-121.5 103,-121.5 103,-91.5 0,-91.5"/>
<text text-anchor="start" x="8" y="-109.5" font-family="Helvetica,sans-Serif" font-size="10.00">S2_notify_nls_state</text>
<text text-anchor="middle" x="51.5" y="-98.5" font-family="Helvetica,sans-Serif" font-size="10.00">_report</text>
</a>
</g>
</g>
<!-- Node2 -->
<g id="node2" class="node">
<title>Node2</title>
<g id="a_node2"><a xlink:href="group__ZWAPI__CONTROLLER.html#ga8efa0b52dad35d456462947d33f7b149" target="_top" xlink:title="Set the NLS State of the node in the controller NVM.">
<polygon fill="none" stroke="black" points="143,-173 143,-192 263,-192 263,-173 143,-173"/>
<text text-anchor="middle" x="203" y="-180" font-family="Helvetica,sans-Serif" font-size="10.00">zwapi_enable_node_nls</text>
</a>
</g>
</g>
<!-- Node1&#45;&gt;Node2 -->
<g id="edge1" class="edge">
<title>Node1&#45;&gt;Node2</title>
<path fill="none" stroke="midnightblue" d="M82.04,-121.52C108.71,-135.08 147.7,-154.9 173.92,-168.22"/>
<polygon fill="midnightblue" stroke="midnightblue" points="172.45,-171.4 182.95,-172.82 175.62,-165.16 172.45,-171.4"/>
</g>
<!-- Node34 -->
<g id="node34" class="node">
<title>Node34</title>
<g id="a_node34"><a xlink:href="group__zwave__utils.html#ga10f8af9e5904d0f990dfafe02680fce7" target="_top" xlink:title="Stores Network Layer Security (NLS) state for a NodeID in the attribute store.">
<polygon fill="none" stroke="black" points="144.5,-97 144.5,-116 261.5,-116 261.5,-97 144.5,-97"/>
<text text-anchor="middle" x="203" y="-104" font-family="Helvetica,sans-Serif" font-size="10.00">zwave_store_nls_state</text>
</a>
</g>
</g>
<!-- Node1&#45;&gt;Node34 -->
<g id="edge51" class="edge">
<title>Node1&#45;&gt;Node34</title>
<path fill="none" stroke="midnightblue" d="M103.11,-106.5C113.19,-106.5 123.93,-106.5 134.47,-106.5"/>
<polygon fill="midnightblue" stroke="midnightblue" points="134.49,-110 144.49,-106.5 134.49,-103 134.49,-110"/>
</g>
<!-- Node41 -->
<g id="node41" class="node">
<title>Node41</title>
<g id="a_node41"><a xlink:href="group__zwave__utils.html#ga841ef8cdf7a65d3b358e3fe43163d366" target="_top" xlink:title="Stores Network Layer Security (NLS) support for a NodeID in the attribute store.">
<polygon fill="none" stroke="black" points="139,-59 139,-78 267,-78 267,-59 139,-59"/>
<text text-anchor="middle" x="203" y="-66" font-family="Helvetica,sans-Serif" font-size="10.00">zwave_store_nls_support</text>
</a>
</g>
</g>
<!-- Node1&#45;&gt;Node41 -->
<g id="edge58" class="edge">
<title>Node1&#45;&gt;Node41</title>
<path fill="none" stroke="midnightblue" d="M103.11,-93.63C119.67,-89.43 137.99,-84.77 154.33,-80.62"/>
<polygon fill="midnightblue" stroke="midnightblue" points="155.37,-83.96 164.2,-78.11 153.65,-77.18 155.37,-83.96"/>
</g>
<!-- Node3 -->
<g id="node3" class="node">
<title>Node3</title>
<g id="a_node3"><a xlink:href="zwapi__init_8c.html#a5ec89d5817b8ce00454fce891ae8400e" target="_top" xlink:title="Send a command to the Z&#45;Wave module and waits for an ACK.">
<polygon fill="none" stroke="black" points="308.5,-230.5 308.5,-260.5 424.5,-260.5 424.5,-230.5 308.5,-230.5"/>
<text text-anchor="start" x="316.5" y="-248.5" font-family="Helvetica,sans-Serif" font-size="10.00">zwapi_send_command</text>
<text text-anchor="middle" x="366.5" y="-237.5" font-family="Helvetica,sans-Serif" font-size="10.00">_with_response</text>
</a>
</g>
</g>
<!-- Node2&#45;&gt;Node3 -->
<g id="edge2" class="edge">
<title>Node2&#45;&gt;Node3</title>
<path fill="none" stroke="midnightblue" d="M228.53,-192.07C251.99,-201.22 288.04,-215.28 317.26,-226.68"/>
<polygon fill="midnightblue" stroke="midnightblue" points="316.29,-230.06 326.88,-230.43 318.84,-223.54 316.29,-230.06"/>
</g>
<!-- Node32 -->
<g id="node32" class="node">
<title>Node32</title>
<g id="a_node32"><a xlink:href="zwapi__utils_8c.html#aeea16d7db2f976466a2c0f4aa9b0416f" target="_top" xlink:title="Write the node ID in buffer based on node ID basetype. Note that this helper also advances the index.">
<polygon fill="none" stroke="black" points="313,-173 313,-192 420,-192 420,-173 313,-173"/>
<text text-anchor="middle" x="366.5" y="-180" font-family="Helvetica,sans-Serif" font-size="10.00">zwapi_write_node_id</text>
</a>
</g>
</g>
<!-- Node2&#45;&gt;Node32 -->
<g id="edge49" class="edge">
<title>Node2&#45;&gt;Node32</title>
<path fill="none" stroke="midnightblue" d="M263.22,-182.5C276.08,-182.5 289.72,-182.5 302.71,-182.5"/>
<polygon fill="midnightblue" stroke="midnightblue" points="302.96,-186 312.96,-182.5 302.96,-179 302.96,-186"/>
</g>
<!-- Node4 -->
<g id="node4" class="node">
<title>Node4</title>
<g id="a_node4"><a xlink:href="zwapi__session_8c.html#abf613a2ad7710ac80fb239ba55e621d7" target="_top" xlink:title="Send data frame to Z&#45;Wave chip via serial API, wait for ACK and a RES frame.">
<polygon fill="none" stroke="black" points="484.5,-230.5 484.5,-260.5 599.5,-260.5 599.5,-230.5 484.5,-230.5"/>
<text text-anchor="start" x="492.5" y="-248.5" font-family="Helvetica,sans-Serif" font-size="10.00">zwapi_session_send</text>
<text text-anchor="middle" x="542" y="-237.5" font-family="Helvetica,sans-Serif" font-size="10.00">_frame_with_response</text>
</a>
</g>
</g>
<!-- Node3&#45;&gt;Node4 -->
<g id="edge3" class="edge">
<title>Node3&#45;&gt;Node4</title>
<path fill="none" stroke="midnightblue" d="M424.79,-245.5C440.65,-245.5 458,-245.5 474.34,-245.5"/>
<polygon fill="midnightblue" stroke="midnightblue" points="474.36,-249 484.36,-245.5 474.36,-242 474.36,-249"/>
</g>
<!-- Node31 -->
<g id="node31" class="node">
<title>Node31</title>
<g id="a_node31"><a xlink:href="group__ZWAPI__INIT.html#ga0a823074baec69913d0e8590b46e4e33" target="_top" xlink:title="Check if a command is supported by the connected Z&#45;Wave module.">
<polygon fill="none" stroke="black" points="466,-280 466,-299 618,-299 618,-280 466,-280"/>
<text text-anchor="middle" x="542" y="-287" font-family="Helvetica,sans-Serif" font-size="10.00">zwapi_support_command_func</text>
</a>
</g>
</g>
<!-- Node3&#45;&gt;Node31 -->
<g id="edge48" class="edge">
<title>Node3&#45;&gt;Node31</title>
<path fill="none" stroke="midnightblue" d="M424.53,-259.98C438.12,-263.43 452.58,-267.1 466,-270.5 474.89,-272.75 484.38,-275.16 493.51,-277.47"/>
<polygon fill="midnightblue" stroke="midnightblue" points="492.68,-280.87 503.23,-279.93 494.4,-274.09 492.68,-280.87"/>
</g>
<!-- Node5 -->
<g id="node5" class="node">
<title>Node5</title>
<g id="a_node5"><a xlink:href="zwapi__connection_8c.html#a91ce3acd7eff779496789637a9c27f40" target="_top" xlink:title="Provides the data of the serial buffer for the last received frame.">
<polygon fill="none" stroke="black" points="1158.5,-88.5 1158.5,-118.5 1271.5,-118.5 1271.5,-88.5 1158.5,-88.5"/>
<text text-anchor="start" x="1166.5" y="-106.5" font-family="Helvetica,sans-Serif" font-size="10.00">zwapi_connection_get</text>
<text text-anchor="middle" x="1215" y="-95.5" font-family="Helvetica,sans-Serif" font-size="10.00">_last_rx_frame</text>
</a>
</g>
</g>
<!-- Node4&#45;&gt;Node5 -->
<g id="edge4" class="edge">
<title>Node4&#45;&gt;Node5</title>
<path fill="none" stroke="midnightblue" d="M599.75,-235.72C702.88,-217.62 927.7,-176.58 1115,-131.5 1127.73,-128.44 1141.29,-124.83 1154.16,-121.25"/>
<polygon fill="midnightblue" stroke="midnightblue" points="1155.16,-124.6 1163.84,-118.52 1153.26,-117.86 1155.16,-124.6"/>
</g>
<!-- Node6 -->
<g id="node6" class="node">
<title>Node6</title>
<g id="a_node6"><a xlink:href="zwapi__connection_8c.html#a86b069d152a5c2f8ac95774a688dff48" target="_top" xlink:title="make the zwapi_connection_status types human readable.">
<polygon fill="none" stroke="black" points="658,-337.5 658,-367.5 785,-367.5 785,-337.5 658,-337.5"/>
<text text-anchor="start" x="666" y="-355.5" font-family="Helvetica,sans-Serif" font-size="10.00">zwapi_connection_status</text>
<text text-anchor="middle" x="721.5" y="-344.5" font-family="Helvetica,sans-Serif" font-size="10.00">_to_string</text>
</a>
</g>
</g>
<!-- Node4&#45;&gt;Node6 -->
<g id="edge5" class="edge">
<title>Node4&#45;&gt;Node6</title>
<path fill="none" stroke="midnightblue" d="M599.87,-260.01C606.3,-262.92 612.51,-266.38 618,-270.5 640.49,-287.37 632.4,-304.51 654,-322.5 658.55,-326.29 663.66,-329.7 668.97,-332.73"/>
<polygon fill="midnightblue" stroke="midnightblue" points="667.55,-335.94 678.03,-337.5 670.81,-329.75 667.55,-335.94"/>
</g>
<!-- Node7 -->
<g id="node7" class="node">
<title>Node7</title>
<g id="a_node7"><a xlink:href="zwapi__session_8c.html#a1f2b3e7c2dcf31708ef8d333747352ba" target="_top" xlink:title=" ">
<polygon fill="none" stroke="black" points="988.5,-91.5 988.5,-121.5 1111.5,-121.5 1111.5,-91.5 988.5,-91.5"/>
<text text-anchor="start" x="996.5" y="-109.5" font-family="Helvetica,sans-Serif" font-size="10.00">zwapi_session_enqueue</text>
<text text-anchor="middle" x="1050" y="-98.5" font-family="Helvetica,sans-Serif" font-size="10.00">_frame</text>
</a>
</g>
</g>
<!-- Node4&#45;&gt;Node7 -->
<g id="edge6" class="edge">
<title>Node4&#45;&gt;Node7</title>
<path fill="none" stroke="midnightblue" d="M577.04,-230.49C590.93,-223.18 606.4,-213.39 618,-201.5 641.06,-177.86 626.2,-154.33 654,-136.5 705.92,-103.19 879.06,-101.83 978.02,-104"/>
<polygon fill="midnightblue" stroke="midnightblue" points="978.16,-107.51 988.24,-104.25 978.32,-100.51 978.16,-107.51"/>
</g>
<!-- Node10 -->
<g id="node10" class="node">
<title>Node10</title>
<g id="a_node10"><a xlink:href="zwapi__session_8c.html#a32577f3500efc3d937dbc68eebb3c370" target="_top" xlink:title="Send data frame to Z&#45;Wave chip via serial port and wait for ACK.">
<polygon fill="none" stroke="black" points="668,-249.5 668,-279.5 775,-279.5 775,-249.5 668,-249.5"/>
<text text-anchor="start" x="676" y="-267.5" font-family="Helvetica,sans-Serif" font-size="10.00">zwapi_session_send</text>
<text text-anchor="middle" x="721.5" y="-256.5" font-family="Helvetica,sans-Serif" font-size="10.00">_frame</text>
</a>
</g>
</g>
<!-- Node4&#45;&gt;Node10 -->
<g id="edge10" class="edge">
<title>Node4&#45;&gt;Node10</title>
<path fill="none" stroke="midnightblue" d="M599.65,-251.56C618.14,-253.54 638.78,-255.75 657.69,-257.78"/>
<polygon fill="midnightblue" stroke="midnightblue" points="657.39,-261.26 667.7,-258.85 658.13,-254.3 657.39,-261.26"/>
</g>
<!-- Node30 -->
<g id="node30" class="node">
<title>Node30</title>
<g id="a_node30"><a xlink:href="zwapi__session_8c.html#a9d30e1677f02d7730ab035aa9333235d" target="_top" xlink:title=" ">
<polygon fill="none" stroke="black" points="835,-380.5 835,-410.5 939,-410.5 939,-380.5 835,-380.5"/>
<text text-anchor="start" x="843" y="-398.5" font-family="Helvetica,sans-Serif" font-size="10.00">zwapi_session_wait</text>
<text text-anchor="middle" x="887" y="-387.5" font-family="Helvetica,sans-Serif" font-size="10.00">_for_response</text>
</a>
</g>
</g>
<!-- Node4&#45;&gt;Node30 -->
<g id="edge47" class="edge">
<title>Node4&#45;&gt;Node30</title>
<path fill="none" stroke="midnightblue" d="M592.25,-260.63C600.92,-263.66 609.8,-267 618,-270.5 634.64,-277.61 637.22,-282.73 654,-289.5 711.92,-312.86 736.67,-294.4 789,-328.5 809.88,-342.11 804.78,-356.93 825,-371.5 826.88,-372.85 828.84,-374.14 830.86,-375.37"/>
<polygon fill="midnightblue" stroke="midnightblue" points="829.58,-378.65 840.04,-380.35 832.92,-372.5 829.58,-378.65"/>
</g>
<!-- Node7&#45;&gt;Node5 -->
<g id="edge7" class="edge">
<title>Node7&#45;&gt;Node5</title>
<path fill="none" stroke="midnightblue" d="M1111.7,-105.38C1123.65,-105.16 1136.24,-104.93 1148.34,-104.71"/>
<polygon fill="midnightblue" stroke="midnightblue" points="1148.44,-108.21 1158.37,-104.52 1148.31,-101.21 1148.44,-108.21"/>
</g>
<!-- Node8 -->
<g id="node8" class="node">
<title>Node8</title>
<g id="a_node8"><a xlink:href="zwapi__session_8c.html#ad7bac697ee2388b38ed3777b5a3862bc" target="_top" xlink:title=" ">
<polygon fill="none" stroke="black" points="1158.5,-0.5 1158.5,-30.5 1271.5,-30.5 1271.5,-0.5 1158.5,-0.5"/>
<text text-anchor="start" x="1166.5" y="-18.5" font-family="Helvetica,sans-Serif" font-size="10.00">zwapi_session_get_rx</text>
<text text-anchor="middle" x="1215" y="-7.5" font-family="Helvetica,sans-Serif" font-size="10.00">_queue_length</text>
</a>
</g>
</g>
<!-- Node7&#45;&gt;Node8 -->
<g id="edge8" class="edge">
<title>Node7&#45;&gt;Node8</title>
<path fill="none" stroke="midnightblue" d="M1071.31,-91.3C1090.99,-77 1122.04,-55.6 1151,-40.5 1154.92,-38.46 1159.05,-36.47 1163.24,-34.58"/>
<polygon fill="midnightblue" stroke="midnightblue" points="1164.67,-37.77 1172.45,-30.58 1161.88,-31.35 1164.67,-37.77"/>
</g>
<!-- Node9 -->
<g id="node9" class="node">
<title>Node9</title>
<g id="a_node9"><a xlink:href="group__ZWAPI__INIT.html#ga438a74c9752197d20d377874d5a61694" target="_top" xlink:title="Returns the pointer to the callbacks registered at init.">
<polygon fill="none" stroke="black" points="1151,-50 1151,-69 1279,-69 1279,-50 1151,-50"/>
<text text-anchor="middle" x="1215" y="-57" font-family="Helvetica,sans-Serif" font-size="10.00">zwave_api_get_callbacks</text>
</a>
</g>
</g>
<!-- Node7&#45;&gt;Node9 -->
<g id="edge9" class="edge">
<title>Node7&#45;&gt;Node9</title>
<path fill="none" stroke="midnightblue" d="M1103.02,-91.5C1124.96,-85.17 1150.19,-77.9 1171.05,-71.88"/>
<polygon fill="midnightblue" stroke="midnightblue" points="1172.26,-75.18 1180.9,-69.04 1170.32,-68.45 1172.26,-75.18"/>
</g>
<!-- Node10&#45;&gt;Node7 -->
<g id="edge28" class="edge">
<title>Node10&#45;&gt;Node7</title>
<path fill="none" stroke="midnightblue" d="M753.51,-249.49C812.83,-220.79 942.35,-158.11 1008.44,-126.13"/>
<polygon fill="midnightblue" stroke="midnightblue" points="1010.24,-129.14 1017.72,-121.64 1007.19,-122.84 1010.24,-129.14"/>
</g>
<!-- Node11 -->
<g id="node11" class="node">
<title>Node11</title>
<g id="a_node11"><a xlink:href="zwapi__connection_8c.html#a13b6e6b6c56844f4344fabe490bc5eac" target="_top" xlink:title="Closes and re&#45;initializes the zwapi_connection to the Z&#45;Wave module.">
<polygon fill="none" stroke="black" points="986,-255 986,-274 1114,-274 1114,-255 986,-255"/>
<text text-anchor="middle" x="1050" y="-262" font-family="Helvetica,sans-Serif" font-size="10.00">zwapi_connection_restart</text>
</a>
</g>
</g>
<!-- Node10&#45;&gt;Node11 -->
<g id="edge11" class="edge">
<title>Node10&#45;&gt;Node11</title>
<path fill="none" stroke="midnightblue" d="M775.32,-264.5C829.66,-264.5 914.73,-264.5 975.6,-264.5"/>
<polygon fill="midnightblue" stroke="midnightblue" points="975.91,-268 985.91,-264.5 975.91,-261 975.91,-268"/>
</g>
<!-- Node21 -->
<g id="node21" class="node">
<title>Node21</title>
<g id="a_node21"><a xlink:href="zwapi__timestamp_8c.html#a6ebe1ddfe689bce6ee72fc12f708aece" target="_top" xlink:title="get the timestamp">
<polygon fill="none" stroke="black" points="1159,-302 1159,-321 1271,-321 1271,-302 1159,-302"/>
<text text-anchor="middle" x="1215" y="-309" font-family="Helvetica,sans-Serif" font-size="10.00">zwapi_timestamp_get</text>
</a>
</g>
</g>
<!-- Node10&#45;&gt;Node21 -->
<g id="edge46" class="edge">
<title>Node10&#45;&gt;Node21</title>
<path fill="none" stroke="midnightblue" d="M775.11,-272.21C791.11,-274.41 808.76,-276.7 825,-278.5 938.63,-291.07 1071.4,-301.4 1148.76,-306.99"/>
<polygon fill="midnightblue" stroke="midnightblue" points="1148.61,-310.49 1158.84,-307.71 1149.11,-303.51 1148.61,-310.49"/>
</g>
<!-- Node22 -->
<g id="node22" class="node">
<title>Node22</title>
<g id="a_node22"><a xlink:href="zwapi__connection_8c.html#af47f8cbd93974d5c91d659fdeb7a870b" target="_top" xlink:title="Transmit a frame via serial port by adding SOF, Len, Type, cmd and Checksum.">
<polygon fill="none" stroke="black" points="996,-217 996,-236 1104,-236 1104,-217 996,-217"/>
<text text-anchor="middle" x="1050" y="-224" font-family="Helvetica,sans-Serif" font-size="10.00">zwapi_connection_tx</text>
</a>
</g>
</g>
<!-- Node10&#45;&gt;Node22 -->
<g id="edge22" class="edge">
<title>Node10&#45;&gt;Node22</title>
<path fill="none" stroke="midnightblue" d="M775.32,-258.35C832.73,-251.67 924.44,-241 985.68,-233.87"/>
<polygon fill="midnightblue" stroke="midnightblue" points="986.46,-237.3 995.98,-232.67 985.65,-230.35 986.46,-237.3"/>
</g>
<!-- Node24 -->
<g id="node24" class="node">
<title>Node24</title>
<g id="a_node24"><a xlink:href="zwapi__timestamp_8c.html#a3925f2732e344672608db38351236688" target="_top" xlink:title="compare the current timestamp with the timestamp passed as an argument">
<polygon fill="none" stroke="black" points="1162,-503.5 1162,-533.5 1268,-533.5 1268,-503.5 1162,-503.5"/>
<text text-anchor="start" x="1170" y="-521.5" font-family="Helvetica,sans-Serif" font-size="10.00">zwapi_is_timestamp</text>
<text text-anchor="middle" x="1215" y="-510.5" font-family="Helvetica,sans-Serif" font-size="10.00">_elapsed</text>
</a>
</g>
</g>
<!-- Node10&#45;&gt;Node24 -->
<g id="edge27" class="edge">
<title>Node10&#45;&gt;Node24</title>
<path fill="none" stroke="midnightblue" d="M742.19,-279.51C756.75,-291.46 776.19,-309.31 789,-328.5 813.38,-365.01 792.88,-390.56 825,-420.5 915.32,-504.7 1067.11,-519.28 1151.91,-520.28"/>
<polygon fill="midnightblue" stroke="midnightblue" points="1151.89,-523.78 1161.91,-520.34 1151.93,-516.78 1151.89,-523.78"/>
</g>
<!-- Node25 -->
<g id="node25" class="node">
<title>Node25</title>
<g id="a_node25"><a xlink:href="zwapi__session_8c.html#a2875fbfa250b7b25ecb6bc4f0b032cb8" target="_top" xlink:title="Loads the received frames from the serial device into the zwapi_session receive queue.">
<polygon fill="none" stroke="black" points="825.5,-331.5 825.5,-361.5 948.5,-361.5 948.5,-331.5 825.5,-331.5"/>
<text text-anchor="start" x="833.5" y="-349.5" font-family="Helvetica,sans-Serif" font-size="10.00">zwapi_session_enqueue</text>
<text text-anchor="middle" x="887" y="-338.5" font-family="Helvetica,sans-Serif" font-size="10.00">_rx_frames</text>
</a>
</g>
</g>
<!-- Node10&#45;&gt;Node25 -->
<g id="edge29" class="edge">
<title>Node10&#45;&gt;Node25</title>
<path fill="none" stroke="midnightblue" d="M758.1,-279.57C768.21,-284.12 779.15,-289.29 789,-294.5 805.58,-303.26 808.57,-307.46 825,-316.5 831.4,-320.02 838.27,-323.59 845.01,-326.98"/>
<polygon fill="midnightblue" stroke="midnightblue" points="843.54,-330.16 854.06,-331.47 846.66,-323.89 843.54,-330.16"/>
</g>
<!-- Node10&#45;&gt;Node30 -->
<g id="edge42" class="edge">
<title>Node10&#45;&gt;Node30</title>
<path fill="none" stroke="midnightblue" d="M767.84,-279.67C775.53,-283.65 782.96,-288.54 789,-294.5 815.89,-321.03 797.47,-345.63 825,-371.5 826.25,-372.68 827.57,-373.8 828.95,-374.87"/>
<polygon fill="midnightblue" stroke="midnightblue" points="827.03,-377.8 837.3,-380.44 830.92,-371.98 827.03,-377.8"/>
</g>
<!-- Node12 -->
<g id="node12" class="node">
<title>Node12</title>
<g id="a_node12"><a xlink:href="zwapi__serial_8c.html#a3f2b3bd848e9fe0e6e137482bed06b46" target="_top" xlink:title="Flush the serial output if using buffered output.">
<polygon fill="none" stroke="black" points="1166.5,-252.5 1166.5,-282.5 1263.5,-282.5 1263.5,-252.5 1166.5,-252.5"/>
<text text-anchor="start" x="1174.5" y="-270.5" font-family="Helvetica,sans-Serif" font-size="10.00">zwapi_serial_drain</text>
<text text-anchor="middle" x="1215" y="-259.5" font-family="Helvetica,sans-Serif" font-size="10.00">_buffer</text>
</a>
</g>
</g>
<!-- Node11&#45;&gt;Node12 -->
<g id="edge12" class="edge">
<title>Node11&#45;&gt;Node12</title>
<path fill="none" stroke="midnightblue" d="M1114.02,-265.66C1127.87,-265.91 1142.47,-266.18 1156.11,-266.43"/>
<polygon fill="midnightblue" stroke="midnightblue" points="1156.26,-269.94 1166.32,-266.62 1156.38,-262.94 1156.26,-269.94"/>
</g>
<!-- Node13 -->
<g id="node13" class="node">
<title>Node13</title>
<g id="a_node13"><a xlink:href="zwapi__serial_8c.html#a7762d0358e9f398b92edbfd6a550984a" target="_top" xlink:title="Write a byte to serial port device.">
<polygon fill="none" stroke="black" points="1158.5,-340 1158.5,-359 1271.5,-359 1271.5,-340 1158.5,-340"/>
<text text-anchor="middle" x="1215" y="-347" font-family="Helvetica,sans-Serif" font-size="10.00">zwapi_serial_put_byte</text>
</a>
</g>
</g>
<!-- Node11&#45;&gt;Node13 -->
<g id="edge13" class="edge">
<title>Node11&#45;&gt;Node13</title>
<path fill="none" stroke="midnightblue" d="M1062.94,-274.06C1081.03,-288.15 1116.91,-314.53 1151,-330.5 1155.91,-332.8 1161.17,-334.9 1166.48,-336.8"/>
<polygon fill="midnightblue" stroke="midnightblue" points="1165.43,-340.14 1176.02,-339.99 1167.65,-333.5 1165.43,-340.14"/>
</g>
<!-- Node17 -->
<g id="node17" class="node">
<title>Node17</title>
<g id="a_node17"><a xlink:href="zwapi__serial_8c.html#aadf3397d0bd2c1657d4b1a373599acfe" target="_top" xlink:title="Closes and re&#45;initialize the last open serial port.">
<polygon fill="none" stroke="black" points="1163,-176 1163,-195 1267,-195 1267,-176 1163,-176"/>
<text text-anchor="middle" x="1215" y="-183" font-family="Helvetica,sans-Serif" font-size="10.00">zwapi_serial_restart</text>
</a>
</g>
</g>
<!-- Node11&#45;&gt;Node17 -->
<g id="edge17" class="edge">
<title>Node11&#45;&gt;Node17</title>
<path fill="none" stroke="midnightblue" d="M1089.14,-254.92C1097.8,-252.27 1106.84,-249.11 1115,-245.5 1143.08,-233.07 1172.91,-214.1 1192.4,-200.83"/>
<polygon fill="midnightblue" stroke="midnightblue" points="1194.59,-203.57 1200.83,-195 1190.61,-197.81 1194.59,-203.57"/>
</g>
<!-- Node11&#45;&gt;Node21 -->
<g id="edge21" class="edge">
<title>Node11&#45;&gt;Node21</title>
<path fill="none" stroke="midnightblue" d="M1083.99,-274.01C1109.09,-281.25 1143.85,-291.27 1171.11,-299.13"/>
<polygon fill="midnightblue" stroke="midnightblue" points="1170.21,-302.51 1180.78,-301.92 1172.15,-295.79 1170.21,-302.51"/>
</g>
<!-- Node14 -->
<g id="node14" class="node">
<title>Node14</title>
<g id="a_node14"><a xlink:href="zwapi__serial_8c.html#af9054824651df422bab5076d16a80fda" target="_top" xlink:title="Writes the content of a buffer to the serial port device.">
<polygon fill="none" stroke="black" points="1315,-338 1315,-357 1434,-357 1434,-338 1315,-338"/>
<text text-anchor="middle" x="1374.5" y="-345" font-family="Helvetica,sans-Serif" font-size="10.00">zwapi_serial_put_buffer</text>
</a>
</g>
</g>
<!-- Node13&#45;&gt;Node14 -->
<g id="edge14" class="edge">
<title>Node13&#45;&gt;Node14</title>
<path fill="none" stroke="midnightblue" d="M1271.53,-348.79C1282.24,-348.66 1293.59,-348.51 1304.66,-348.37"/>
<polygon fill="midnightblue" stroke="midnightblue" points="1304.78,-351.87 1314.74,-348.25 1304.69,-344.87 1304.78,-351.87"/>
</g>
<!-- Node15 -->
<g id="node15" class="node">
<title>Node15</title>
<g id="a_node15"><a xlink:href="zwapi__serial_8c.html#a0accbbf7ddb7aeab10f5df1fe3df6642" target="_top" xlink:title=" ">
<polygon fill="none" stroke="black" points="1470,-380 1470,-399 1610,-399 1610,-380 1470,-380"/>
<text text-anchor="middle" x="1540" y="-387" font-family="Helvetica,sans-Serif" font-size="10.00">zwapi_serial_log_timestamp</text>
</a>
</g>
</g>
<!-- Node14&#45;&gt;Node15 -->
<g id="edge15" class="edge">
<title>Node14&#45;&gt;Node15</title>
<path fill="none" stroke="midnightblue" d="M1412.6,-357.03C1436.14,-363.08 1466.8,-370.95 1492.03,-377.44"/>
<polygon fill="midnightblue" stroke="midnightblue" points="1491.21,-380.84 1501.76,-379.93 1492.95,-374.06 1491.21,-380.84"/>
</g>
<!-- Node16 -->
<g id="node16" class="node">
<title>Node16</title>
<g id="a_node16"><a xlink:href="zwapi__serial_8c.html#abf18afb71e14daaf65d937149ef1639f" target="_top" xlink:title="Test if a is less than b + ms.">
<polygon fill="none" stroke="black" points="1486.5,-330.5 1486.5,-360.5 1593.5,-360.5 1593.5,-330.5 1486.5,-330.5"/>
<text text-anchor="start" x="1494.5" y="-348.5" font-family="Helvetica,sans-Serif" font-size="10.00">zwapi_serial_timeval</text>
<text text-anchor="middle" x="1540" y="-337.5" font-family="Helvetica,sans-Serif" font-size="10.00">_a_lt_b_milis</text>
</a>
</g>
</g>
<!-- Node14&#45;&gt;Node16 -->
<g id="edge16" class="edge">
<title>Node14&#45;&gt;Node16</title>
<path fill="none" stroke="midnightblue" d="M1434.07,-346.78C1447.65,-346.62 1462.16,-346.44 1475.92,-346.27"/>
<polygon fill="midnightblue" stroke="midnightblue" points="1476.32,-349.77 1486.28,-346.14 1476.24,-342.77 1476.32,-349.77"/>
</g>
<!-- Node18 -->
<g id="node18" class="node">
<title>Node18</title>
<g id="a_node18"><a xlink:href="zwapi__serial_8c.html#aae586785021ac9a605cd77651429f0c9" target="_top" xlink:title="De&#45;Initialize the serial port.">
<polygon fill="none" stroke="black" points="1325,-157 1325,-176 1424,-176 1424,-157 1325,-157"/>
<text text-anchor="middle" x="1374.5" y="-164" font-family="Helvetica,sans-Serif" font-size="10.00">zwapi_serial_close</text>
</a>
</g>
</g>
<!-- Node17&#45;&gt;Node18 -->
<g id="edge18" class="edge">
<title>Node17&#45;&gt;Node18</title>
<path fill="none" stroke="midnightblue" d="M1267.14,-179.33C1282.31,-177.5 1299.06,-175.48 1314.68,-173.6"/>
<polygon fill="midnightblue" stroke="midnightblue" points="1315.25,-177.05 1324.76,-172.38 1314.42,-170.1 1315.25,-177.05"/>
</g>
<!-- Node19 -->
<g id="node19" class="node">
<title>Node19</title>
<g id="a_node19"><a xlink:href="zwapi__serial_8c.html#a07b09de97f4932d882fc77e191c44638" target="_top" xlink:title="Initialize the serial port to 115200 BAUD 8N1.">
<polygon fill="none" stroke="black" points="1330,-195 1330,-214 1419,-214 1419,-195 1330,-195"/>
<text text-anchor="middle" x="1374.5" y="-202" font-family="Helvetica,sans-Serif" font-size="10.00">zwapi_serial_init</text>
</a>
</g>
</g>
<!-- Node17&#45;&gt;Node19 -->
<g id="edge19" class="edge">
<title>Node17&#45;&gt;Node19</title>
<path fill="none" stroke="midnightblue" d="M1267.14,-191.67C1283.87,-193.69 1302.51,-195.94 1319.46,-197.98"/>
<polygon fill="midnightblue" stroke="midnightblue" points="1319.41,-201.5 1329.76,-199.22 1320.25,-194.55 1319.41,-201.5"/>
</g>
<!-- Node20 -->
<g id="node20" class="node">
<title>Node20</title>
<g id="a_node20"><a xlink:href="zwapi__serial_8c.html#aefeac5909b0bf6411db1492f69c3bc68" target="_top" xlink:title=" ">
<polygon fill="none" stroke="black" points="1480.5,-195 1480.5,-214 1599.5,-214 1599.5,-195 1480.5,-195"/>
<text text-anchor="middle" x="1540" y="-202" font-family="Helvetica,sans-Serif" font-size="10.00">zwapi_open_serial_port</text>
</a>
</g>
</g>
<!-- Node19&#45;&gt;Node20 -->
<g id="edge20" class="edge">
<title>Node19&#45;&gt;Node20</title>
<path fill="none" stroke="midnightblue" d="M1419.31,-204.5C1434.97,-204.5 1453.01,-204.5 1470.26,-204.5"/>
<polygon fill="midnightblue" stroke="midnightblue" points="1470.3,-208 1480.3,-204.5 1470.3,-201 1470.3,-208"/>
</g>
<!-- Node22&#45;&gt;Node12 -->
<g id="edge24" class="edge">
<title>Node22&#45;&gt;Node12</title>
<path fill="none" stroke="midnightblue" d="M1088.81,-236.01C1108.96,-241.08 1134.17,-247.42 1156.68,-253.08"/>
<polygon fill="midnightblue" stroke="midnightblue" points="1155.92,-256.5 1166.47,-255.54 1157.63,-249.71 1155.92,-256.5"/>
</g>
<!-- Node22&#45;&gt;Node14 -->
<g id="edge25" class="edge">
<title>Node22&#45;&gt;Node14</title>
<path fill="none" stroke="midnightblue" d="M1104.11,-219.72C1152.25,-215.99 1223.88,-216.61 1279,-243.5 1317.71,-262.38 1347.98,-304.69 1363.03,-329.13"/>
<polygon fill="midnightblue" stroke="midnightblue" points="1360.08,-331.02 1368.21,-337.82 1366.1,-327.44 1360.08,-331.02"/>
</g>
<!-- Node22&#45;&gt;Node21 -->
<g id="edge26" class="edge">
<title>Node22&#45;&gt;Node21</title>
<path fill="none" stroke="midnightblue" d="M1096.36,-236.05C1102.93,-238.52 1109.37,-241.62 1115,-245.5 1136.67,-260.42 1129.36,-277.53 1151,-292.5 1153.91,-294.51 1157.03,-296.31 1160.28,-297.93"/>
<polygon fill="midnightblue" stroke="midnightblue" points="1159.11,-301.23 1169.67,-302 1161.89,-294.81 1159.11,-301.23"/>
</g>
<!-- Node23 -->
<g id="node23" class="node">
<title>Node23</title>
<g id="a_node23"><a xlink:href="zwapi__connection_8c.html#a96d24d537c5b8d6aa0aa6a7638ba2f09" target="_top" xlink:title=" ">
<polygon fill="none" stroke="black" points="1157.5,-138 1157.5,-157 1272.5,-157 1272.5,-138 1157.5,-138"/>
<text text-anchor="middle" x="1215" y="-145" font-family="Helvetica,sans-Serif" font-size="10.00">zwapi_frame_to_string</text>
</a>
</g>
</g>
<!-- Node22&#45;&gt;Node23 -->
<g id="edge23" class="edge">
<title>Node22&#45;&gt;Node23</title>
<path fill="none" stroke="midnightblue" d="M1064.65,-216.81C1083.37,-203.87 1118.42,-180.92 1151,-166.5 1156.09,-164.25 1161.53,-162.16 1167,-160.26"/>
<polygon fill="midnightblue" stroke="midnightblue" points="1168.39,-163.49 1176.8,-157.05 1166.21,-156.84 1168.39,-163.49"/>
</g>
<!-- Node25&#45;&gt;Node7 -->
<g id="edge41" class="edge">
<title>Node25&#45;&gt;Node7</title>
<path fill="none" stroke="midnightblue" d="M898.07,-331.49C925.29,-290.91 1000.48,-178.83 1033.32,-129.88"/>
<polygon fill="midnightblue" stroke="midnightblue" points="1036.27,-131.76 1038.93,-121.51 1030.45,-127.86 1036.27,-131.76"/>
</g>
<!-- Node26 -->
<g id="node26" class="node">
<title>Node26</title>
<g id="a_node26"><a xlink:href="zwapi__connection_8c.html#a1e45c6c9695b5e7b415adfad40080720" target="_top" xlink:title="Parses serial data sent from the Z&#45;Wave module to the serial port. Should be frequently called by mai...">
<polygon fill="none" stroke="black" points="985,-378 985,-397 1115,-397 1115,-378 985,-378"/>
<text text-anchor="middle" x="1050" y="-385" font-family="Helvetica,sans-Serif" font-size="10.00">zwapi_connection_refresh</text>
</a>
</g>
</g>
<!-- Node25&#45;&gt;Node26 -->
<g id="edge30" class="edge">
<title>Node25&#45;&gt;Node26</title>
<path fill="none" stroke="midnightblue" d="M947.04,-361.53C965.04,-366.12 984.59,-371.1 1001.71,-375.46"/>
<polygon fill="midnightblue" stroke="midnightblue" points="1000.93,-378.87 1011.48,-377.95 1002.65,-372.09 1000.93,-378.87"/>
</g>
<!-- Node26&#45;&gt;Node12 -->
<g id="edge32" class="edge">
<title>Node26&#45;&gt;Node12</title>
<path fill="none" stroke="midnightblue" d="M1058.87,-377.89C1074.61,-359.18 1111.86,-317.52 1151,-292.5 1153.97,-290.6 1157.1,-288.81 1160.32,-287.12"/>
<polygon fill="midnightblue" stroke="midnightblue" points="1162.09,-290.15 1169.56,-282.63 1159.03,-283.85 1162.09,-290.15"/>
</g>
<!-- Node26&#45;&gt;Node13 -->
<g id="edge39" class="edge">
<title>Node26&#45;&gt;Node13</title>
<path fill="none" stroke="midnightblue" d="M1092.13,-377.91C1113.74,-372.87 1140.41,-366.66 1163.29,-361.32"/>
<polygon fill="midnightblue" stroke="midnightblue" points="1164.22,-364.7 1173.16,-359.02 1162.63,-357.88 1164.22,-364.7"/>
</g>
<!-- Node26&#45;&gt;Node21 -->
<g id="edge40" class="edge">
<title>Node26&#45;&gt;Node21</title>
<path fill="none" stroke="midnightblue" d="M1074.4,-377.91C1086.78,-372.5 1102.06,-365.27 1115,-357.5 1132.14,-347.2 1133.15,-339.53 1151,-330.5 1155.36,-328.3 1160.02,-326.3 1164.76,-324.5"/>
<polygon fill="midnightblue" stroke="midnightblue" points="1166.24,-327.69 1174.52,-321.08 1163.93,-321.08 1166.24,-327.69"/>
</g>
<!-- Node26&#45;&gt;Node24 -->
<g id="edge31" class="edge">
<title>Node26&#45;&gt;Node24</title>
<path fill="none" stroke="midnightblue" d="M1065.6,-397.06C1079.36,-406.52 1100.05,-421.95 1115,-438.5 1134.83,-460.46 1128.03,-475.86 1151,-494.5 1152.57,-495.77 1154.21,-496.98 1155.91,-498.13"/>
<polygon fill="midnightblue" stroke="midnightblue" points="1154.42,-501.32 1164.81,-503.39 1157.98,-495.29 1154.42,-501.32"/>
</g>
<!-- Node27 -->
<g id="node27" class="node">
<title>Node27</title>
<g id="a_node27"><a xlink:href="zwapi__serial_8c.html#a538134f9fdbb1ce052667b3a041357bd" target="_top" xlink:title="Reads the output of the serial port device and stores the content in a buffer.">
<polygon fill="none" stroke="black" points="1315,-379 1315,-398 1434,-398 1434,-379 1315,-379"/>
<text text-anchor="middle" x="1374.5" y="-386" font-family="Helvetica,sans-Serif" font-size="10.00">zwapi_serial_get_buffer</text>
</a>
</g>
</g>
<!-- Node26&#45;&gt;Node27 -->
<g id="edge33" class="edge">
<title>Node26&#45;&gt;Node27</title>
<path fill="none" stroke="midnightblue" d="M1091.62,-397.01C1109.69,-400.78 1131.29,-404.64 1151,-406.5 1207.64,-411.83 1222.36,-411.85 1279,-406.5 1293.18,-405.16 1308.41,-402.72 1322.4,-400.05"/>
<polygon fill="midnightblue" stroke="midnightblue" points="1323.21,-403.46 1332.34,-398.08 1321.85,-396.59 1323.21,-403.46"/>
</g>
<!-- Node28 -->
<g id="node28" class="node">
<title>Node28</title>
<g id="a_node28"><a xlink:href="zwapi__serial_8c.html#abb082b1e7e727203e3ca5fbeb41f7c2b" target="_top" xlink:title="Reads a byte from the serial port device.">
<polygon fill="none" stroke="black" points="1158.5,-378 1158.5,-397 1271.5,-397 1271.5,-378 1158.5,-378"/>
<text text-anchor="middle" x="1215" y="-385" font-family="Helvetica,sans-Serif" font-size="10.00">zwapi_serial_get_byte</text>
</a>
</g>
</g>
<!-- Node26&#45;&gt;Node28 -->
<g id="edge36" class="edge">
<title>Node26&#45;&gt;Node28</title>
<path fill="none" stroke="midnightblue" d="M1115.42,-387.5C1126.21,-387.5 1137.42,-387.5 1148.24,-387.5"/>
<polygon fill="midnightblue" stroke="midnightblue" points="1148.47,-391 1158.47,-387.5 1148.47,-384 1148.47,-391"/>
</g>
<!-- Node29 -->
<g id="node29" class="node">
<title>Node29</title>
<g id="a_node29"><a xlink:href="zwapi__serial_8c.html#a9a952dc2b34d92960246f6dc4e7d58f7" target="_top" xlink:title="Check the file descriptor for the serial device is available for I/O operations.">
<polygon fill="none" stroke="black" points="1164.5,-454.5 1164.5,-484.5 1265.5,-484.5 1265.5,-454.5 1164.5,-454.5"/>
<text text-anchor="start" x="1172.5" y="-472.5" font-family="Helvetica,sans-Serif" font-size="10.00">zwapi_serial_is_file</text>
<text text-anchor="middle" x="1215" y="-461.5" font-family="Helvetica,sans-Serif" font-size="10.00">_available</text>
</a>
</g>
</g>
<!-- Node26&#45;&gt;Node29 -->
<g id="edge38" class="edge">
<title>Node26&#45;&gt;Node29</title>
<path fill="none" stroke="midnightblue" d="M1068.97,-397.09C1088.91,-407.67 1122.1,-425.11 1151,-439.5 1158.01,-442.99 1165.51,-446.64 1172.79,-450.13"/>
<polygon fill="midnightblue" stroke="midnightblue" points="1171.31,-453.3 1181.84,-454.45 1174.33,-446.99 1171.31,-453.3"/>
</g>
<!-- Node27&#45;&gt;Node15 -->
<g id="edge34" class="edge">
<title>Node27&#45;&gt;Node15</title>
<path fill="none" stroke="midnightblue" d="M1434.07,-388.86C1442.43,-388.91 1451.15,-388.96 1459.82,-389.02"/>
<polygon fill="midnightblue" stroke="midnightblue" points="1459.95,-392.52 1469.97,-389.08 1459.99,-385.52 1459.95,-392.52"/>
</g>
<!-- Node27&#45;&gt;Node16 -->
<g id="edge35" class="edge">
<title>Node27&#45;&gt;Node16</title>
<path fill="none" stroke="midnightblue" d="M1411.79,-378.96C1430.8,-373.96 1454.61,-367.69 1476.48,-361.94"/>
<polygon fill="midnightblue" stroke="midnightblue" points="1477.59,-365.27 1486.37,-359.34 1475.81,-358.5 1477.59,-365.27"/>
</g>
<!-- Node28&#45;&gt;Node27 -->
<g id="edge37" class="edge">
<title>Node28&#45;&gt;Node27</title>
<path fill="none" stroke="midnightblue" d="M1271.53,-387.85C1282.24,-387.92 1293.59,-387.99 1304.66,-388.06"/>
<polygon fill="midnightblue" stroke="midnightblue" points="1304.71,-391.56 1314.74,-388.13 1304.76,-384.56 1304.71,-391.56"/>
</g>
<!-- Node30&#45;&gt;Node21 -->
<g id="edge45" class="edge">
<title>Node30&#45;&gt;Node21</title>
<path fill="none" stroke="midnightblue" d="M939.03,-381.01C953.83,-376.89 970.04,-372.44 985,-368.5 1046.64,-352.25 1117.94,-334.7 1164.39,-323.43"/>
<polygon fill="midnightblue" stroke="midnightblue" points="1165.31,-326.81 1174.2,-321.05 1163.66,-320.01 1165.31,-326.81"/>
</g>
<!-- Node30&#45;&gt;Node24 -->
<g id="edge44" class="edge">
<title>Node30&#45;&gt;Node24</title>
<path fill="none" stroke="midnightblue" d="M927.97,-410.58C987.65,-433.1 1099.92,-475.46 1164.63,-499.87"/>
<polygon fill="midnightblue" stroke="midnightblue" points="1163.62,-503.23 1174.21,-503.49 1166.09,-496.68 1163.62,-503.23"/>
</g>
<!-- Node30&#45;&gt;Node26 -->
<g id="edge43" class="edge">
<title>Node30&#45;&gt;Node26</title>
<path fill="none" stroke="midnightblue" d="M939.38,-392.95C950.67,-392.39 962.84,-391.78 974.82,-391.19"/>
<polygon fill="midnightblue" stroke="midnightblue" points="975.01,-394.68 984.82,-390.69 974.66,-387.69 975.01,-394.68"/>
</g>
<!-- Node33 -->
<g id="node33" class="node">
<title>Node33</title>
<g id="a_node33"><a xlink:href="group__ZWAPI__BASIS.html#ga956fbfe63267baacd31dd20aa1c444d1" target="_top" xlink:title="Get the current node ID basetype setting.">
<polygon fill="none" stroke="black" points="469.5,-173 469.5,-192 614.5,-192 614.5,-173 469.5,-173"/>
<text text-anchor="middle" x="542" y="-180" font-family="Helvetica,sans-Serif" font-size="10.00">zwapi_get_node_id_basetype</text>
</a>
</g>
</g>
<!-- Node32&#45;&gt;Node33 -->
<g id="edge50" class="edge">
<title>Node32&#45;&gt;Node33</title>
<path fill="none" stroke="midnightblue" d="M420.03,-182.5C432.43,-182.5 445.93,-182.5 459.28,-182.5"/>
<polygon fill="midnightblue" stroke="midnightblue" points="459.44,-186 469.44,-182.5 459.44,-179 459.44,-186"/>
</g>
<!-- Node35 -->
<g id="node35" class="node">
<title>Node35</title>
<g id="a_node35"><a xlink:href="group__zpc__attribute__store__network__helpers.html#ga7a3f40a9cbc90f2674b9e9e454fd6207" target="_top" xlink:title="Take a Z&#45;Wave NodeID and return its Attribute Store node representing the NodeID.">
<polygon fill="none" stroke="black" points="303,-48 303,-89 430,-89 430,-48 303,-48"/>
<text text-anchor="start" x="311" y="-77" font-family="Helvetica,sans-Serif" font-size="10.00">attribute_store_network</text>
<text text-anchor="start" x="311" y="-66" font-family="Helvetica,sans-Serif" font-size="10.00">_helper_get_zwave_node</text>
<text text-anchor="middle" x="366.5" y="-55" font-family="Helvetica,sans-Serif" font-size="10.00">_id_node</text>
</a>
</g>
</g>
<!-- Node34&#45;&gt;Node35 -->
<g id="edge52" class="edge">
<title>Node34&#45;&gt;Node35</title>
<path fill="none" stroke="midnightblue" d="M244.75,-96.91C259.3,-93.49 276.17,-89.52 292.59,-85.65"/>
<polygon fill="midnightblue" stroke="midnightblue" points="293.81,-88.96 302.74,-83.27 292.21,-82.15 293.81,-88.96"/>
</g>
<!-- Node36 -->
<g id="node36" class="node">
<title>Node36</title>
<g id="a_node36"><a xlink:href="group__zpc__attribute__store__network__helpers.html#gafb993ff484b3c826743c4695d6659cf0" target="_top" xlink:title="Take a UNID and return its attribute store node representing the NodeID.">
<polygon fill="none" stroke="black" points="476,-53.5 476,-83.5 608,-83.5 608,-53.5 476,-53.5"/>
<text text-anchor="start" x="484" y="-71.5" font-family="Helvetica,sans-Serif" font-size="10.00">attribute_store_network</text>
<text text-anchor="middle" x="542" y="-60.5" font-family="Helvetica,sans-Serif" font-size="10.00">_helper_get_node_id_node</text>
</a>
</g>
</g>
<!-- Node35&#45;&gt;Node36 -->
<g id="edge53" class="edge">
<title>Node35&#45;&gt;Node36</title>
<path fill="none" stroke="midnightblue" d="M430.14,-68.5C441.62,-68.5 453.72,-68.5 465.54,-68.5"/>
<polygon fill="midnightblue" stroke="midnightblue" points="465.82,-72 475.82,-68.5 465.82,-65 465.82,-72"/>
</g>
<!-- Node40 -->
<g id="node40" class="node">
<title>Node40</title>
<g id="a_node40"><a xlink:href="group__zwave__unid.html#ga421deceb8a12916f049e4f3446774439" target="_top" xlink:title="Form a UNID.">
<polygon fill="none" stroke="black" points="476,-15 476,-34 608,-34 608,-15 476,-15"/>
<text text-anchor="middle" x="542" y="-22" font-family="Helvetica,sans-Serif" font-size="10.00">zwave_unid_from_node_id</text>
</a>
</g>
</g>
<!-- Node35&#45;&gt;Node40 -->
<g id="edge57" class="edge">
<title>Node35&#45;&gt;Node40</title>
<path fill="none" stroke="midnightblue" d="M430.14,-52.61C451.05,-47.31 473.99,-41.49 493.55,-36.53"/>
<polygon fill="midnightblue" stroke="midnightblue" points="494.61,-39.87 503.45,-34.02 492.89,-33.09 494.61,-39.87"/>
</g>
<!-- Node37 -->
<g id="node37" class="node">
<title>Node37</title>
<g id="a_node37"><a xlink:href="group__zpc__attribute__store__network__helpers.html#ga05cb572c96f7dc8e6657f86e135fafed" target="_top" xlink:title="Take a UNID and return its attribute store node representing the HomeID.">
<polygon fill="none" stroke="black" points="654,-53.5 654,-83.5 789,-83.5 789,-53.5 654,-53.5"/>
<text text-anchor="start" x="662" y="-71.5" font-family="Helvetica,sans-Serif" font-size="10.00">attribute_store_network</text>
<text text-anchor="middle" x="721.5" y="-60.5" font-family="Helvetica,sans-Serif" font-size="10.00">_helper_get_home_id_node</text>
</a>
</g>
</g>
<!-- Node36&#45;&gt;Node37 -->
<g id="edge54" class="edge">
<title>Node36&#45;&gt;Node37</title>
<path fill="none" stroke="midnightblue" d="M608.09,-68.5C619.64,-68.5 631.77,-68.5 643.62,-68.5"/>
<polygon fill="midnightblue" stroke="midnightblue" points="643.93,-72 653.93,-68.5 643.93,-65 643.93,-72"/>
</g>
<!-- Node39 -->
<g id="node39" class="node">
<title>Node39</title>
<g id="a_node39"><a xlink:href="group__zwave__unid.html#ga76885767debd174e96e6df00b0a368c3" target="_top" xlink:title="Convert a UNID to a node ID.">
<polygon fill="none" stroke="black" points="661,-15 661,-34 782,-34 782,-15 661,-15"/>
<text text-anchor="middle" x="721.5" y="-22" font-family="Helvetica,sans-Serif" font-size="10.00">zwave_unid_to_node_id</text>
</a>
</g>
</g>
<!-- Node36&#45;&gt;Node39 -->
<g id="edge56" class="edge">
<title>Node36&#45;&gt;Node39</title>
<path fill="none" stroke="midnightblue" d="M603.59,-53.48C626.04,-47.91 651.18,-41.68 672.38,-36.43"/>
<polygon fill="midnightblue" stroke="midnightblue" points="673.26,-39.82 682.13,-34.01 671.58,-33.02 673.26,-39.82"/>
</g>
<!-- Node38 -->
<g id="node38" class="node">
<title>Node38</title>
<g id="a_node38"><a xlink:href="group__zwave__unid.html#ga92f9808a08c2ce1c0a6a9dc2debf3580" target="_top" xlink:title="Convert a UNID to a Home ID.">
<polygon fill="none" stroke="black" points="825,-59 825,-78 949,-78 949,-59 825,-59"/>
<text text-anchor="middle" x="887" y="-66" font-family="Helvetica,sans-Serif" font-size="10.00">zwave_unid_to_home_id</text>
</a>
</g>
</g>
<!-- Node37&#45;&gt;Node38 -->
<g id="edge55" class="edge">
<title>Node37&#45;&gt;Node38</title>
<path fill="none" stroke="midnightblue" d="M789,-68.5C797.42,-68.5 806.07,-68.5 814.57,-68.5"/>
<polygon fill="midnightblue" stroke="midnightblue" points="814.83,-72 824.83,-68.5 814.83,-65 814.83,-72"/>
</g>
<!-- Node41&#45;&gt;Node35 -->
<g id="edge59" class="edge">
<title>Node41&#45;&gt;Node35</title>
<path fill="none" stroke="midnightblue" d="M267.37,-68.5C275.66,-68.5 284.21,-68.5 292.64,-68.5"/>
<polygon fill="midnightblue" stroke="midnightblue" points="292.85,-72 302.85,-68.5 292.85,-65 292.85,-72"/>
</g>
</g>
</svg>
