<?xml version="1.0" encoding="UTF-8" standalone="no"?>
<!DOCTYPE svg PUBLIC "-//W3C//DTD SVG 1.1//EN"
 "http://www.w3.org/Graphics/SVG/1.1/DTD/svg11.dtd">
<!-- Generated by graphviz version 2.43.0 (0)
 -->
<!-- Title: zwave_command_class_multilevel_sensor_handle_supported_report Pages: 1 -->
<svg width="1167pt" height="154pt"
 viewBox="0.00 0.00 1167.00 154.00" xmlns="http://www.w3.org/2000/svg" xmlns:xlink="http://www.w3.org/1999/xlink">
<g id="graph0" class="graph" transform="scale(1 1) rotate(0) translate(4 150)">
<title>zwave_command_class_multilevel_sensor_handle_supported_report</title>
<!-- Node1 -->
<g id="node1" class="node">
<title>Node1</title>
<g id="a_node1"><a xlink:title=" ">
<polygon fill="#bfbfbf" stroke="black" points="0,-44 0,-85 131,-85 131,-44 0,-44"/>
<text text-anchor="start" x="8" y="-73" font-family="Helvetica,sans-Serif" font-size="10.00">zwave_command_class</text>
<text text-anchor="start" x="8" y="-62" font-family="Helvetica,sans-Serif" font-size="10.00">_multilevel_sensor_handle</text>
<text text-anchor="middle" x="65.5" y="-51" font-family="Helvetica,sans-Serif" font-size="10.00">_supported_report</text>
</a>
</g>
</g>
<!-- Node2 -->
<g id="node2" class="node">
<title>Node2</title>
<g id="a_node2"><a xlink:href="group__command__classes__utils.html#gaff12f5d1f5b9eed08201efab5854190c" target="_top" xlink:title="Find the Z&#45;Wave Endpoint ID Node attribute based on a const zwave_controller_connection_info_t object...">
<polygon fill="none" stroke="black" points="362,-93.5 362,-123.5 484,-123.5 484,-93.5 362,-93.5"/>
<text text-anchor="start" x="370" y="-111.5" font-family="Helvetica,sans-Serif" font-size="10.00">zwave_command_class</text>
<text text-anchor="middle" x="423" y="-100.5" font-family="Helvetica,sans-Serif" font-size="10.00">_get_endpoint_node</text>
</a>
</g>
</g>
<!-- Node1&#45;&gt;Node2 -->
<g id="edge1" class="edge">
<title>Node1&#45;&gt;Node2</title>
<path fill="none" stroke="midnightblue" d="M131.08,-81.49C142.96,-84.17 155.3,-86.66 167,-88.5 229.1,-98.29 300.49,-103.37 351.91,-105.95"/>
<polygon fill="midnightblue" stroke="midnightblue" points="351.77,-109.45 361.92,-106.44 352.1,-102.46 351.77,-109.45"/>
</g>
<!-- Node9 -->
<g id="node9" class="node">
<title>Node9</title>
<g id="a_node9"><a xlink:href="zwave__command__class__multilevel__sensor_8c.html#a4ba40eb5b003a48d178274fbb562842d" target="_top" xlink:title=" ">
<polygon fill="none" stroke="black" points="167,-0.5 167,-30.5 321,-30.5 321,-0.5 167,-0.5"/>
<text text-anchor="start" x="175" y="-18.5" font-family="Helvetica,sans-Serif" font-size="10.00">zwave_command_class</text>
<text text-anchor="middle" x="244" y="-7.5" font-family="Helvetica,sans-Serif" font-size="10.00">_multilevel_sensor_create_type</text>
</a>
</g>
</g>
<!-- Node1&#45;&gt;Node9 -->
<g id="edge8" class="edge">
<title>Node1&#45;&gt;Node9</title>
<path fill="none" stroke="midnightblue" d="M131.22,-46.53C146.72,-42.23 163.26,-37.64 178.73,-33.34"/>
<polygon fill="midnightblue" stroke="midnightblue" points="180.03,-36.62 188.72,-30.57 178.15,-29.87 180.03,-36.62"/>
</g>
<!-- Node10 -->
<g id="node10" class="node">
<title>Node10</title>
<g id="a_node10"><a xlink:href="group__zwave__utils.html#ga1fb87a67860c11e6e89930eb51fda21f" target="_top" xlink:title="Return the version of a Command Class implemented by a node.">
<polygon fill="none" stroke="black" points="175,-49.5 175,-79.5 313,-79.5 313,-49.5 175,-49.5"/>
<text text-anchor="start" x="183" y="-67.5" font-family="Helvetica,sans-Serif" font-size="10.00">zwave_node_get_command</text>
<text text-anchor="middle" x="244" y="-56.5" font-family="Helvetica,sans-Serif" font-size="10.00">_class_version</text>
</a>
</g>
</g>
<!-- Node1&#45;&gt;Node10 -->
<g id="edge9" class="edge">
<title>Node1&#45;&gt;Node10</title>
<path fill="none" stroke="midnightblue" d="M131.22,-64.5C142.07,-64.5 153.43,-64.5 164.57,-64.5"/>
<polygon fill="midnightblue" stroke="midnightblue" points="164.73,-68 174.73,-64.5 164.73,-61 164.73,-68"/>
</g>
<!-- Node3 -->
<g id="node3" class="node">
<title>Node3</title>
<g id="a_node3"><a xlink:href="group__zpc__attribute__store__network__helpers.html#gae4d15b8e0c61c88d94c8f342bd2014fc" target="_top" xlink:title="Take a UNID/endpoint combination and returns its attribute store node.">
<polygon fill="none" stroke="black" points="525,-93.5 525,-123.5 660,-123.5 660,-93.5 525,-93.5"/>
<text text-anchor="start" x="533" y="-111.5" font-family="Helvetica,sans-Serif" font-size="10.00">attribute_store_network</text>
<text text-anchor="middle" x="592.5" y="-100.5" font-family="Helvetica,sans-Serif" font-size="10.00">_helper_get_endpoint_node</text>
</a>
</g>
</g>
<!-- Node2&#45;&gt;Node3 -->
<g id="edge2" class="edge">
<title>Node2&#45;&gt;Node3</title>
<path fill="none" stroke="midnightblue" d="M484.47,-108.5C494.31,-108.5 504.62,-108.5 514.78,-108.5"/>
<polygon fill="midnightblue" stroke="midnightblue" points="514.88,-112 524.88,-108.5 514.88,-105 514.88,-112"/>
</g>
<!-- Node8 -->
<g id="node8" class="node">
<title>Node8</title>
<g id="a_node8"><a xlink:href="group__zwave__unid.html#ga421deceb8a12916f049e4f3446774439" target="_top" xlink:title="Form a UNID.">
<polygon fill="none" stroke="black" points="526.5,-55 526.5,-74 658.5,-74 658.5,-55 526.5,-55"/>
<text text-anchor="middle" x="592.5" y="-62" font-family="Helvetica,sans-Serif" font-size="10.00">zwave_unid_from_node_id</text>
</a>
</g>
</g>
<!-- Node2&#45;&gt;Node8 -->
<g id="edge7" class="edge">
<title>Node2&#45;&gt;Node8</title>
<path fill="none" stroke="midnightblue" d="M481.18,-93.48C502.17,-87.96 525.66,-81.8 545.55,-76.57"/>
<polygon fill="midnightblue" stroke="midnightblue" points="546.51,-79.94 555.29,-74.01 544.73,-73.17 546.51,-79.94"/>
</g>
<!-- Node4 -->
<g id="node4" class="node">
<title>Node4</title>
<g id="a_node4"><a xlink:href="group__zpc__attribute__store__network__helpers.html#gafb993ff484b3c826743c4695d6659cf0" target="_top" xlink:title="Take a UNID and return its attribute store node representing the NodeID.">
<polygon fill="none" stroke="black" points="696,-93.5 696,-123.5 828,-123.5 828,-93.5 696,-93.5"/>
<text text-anchor="start" x="704" y="-111.5" font-family="Helvetica,sans-Serif" font-size="10.00">attribute_store_network</text>
<text text-anchor="middle" x="762" y="-100.5" font-family="Helvetica,sans-Serif" font-size="10.00">_helper_get_node_id_node</text>
</a>
</g>
</g>
<!-- Node3&#45;&gt;Node4 -->
<g id="edge3" class="edge">
<title>Node3&#45;&gt;Node4</title>
<path fill="none" stroke="midnightblue" d="M660.18,-108.5C668.55,-108.5 677.15,-108.5 685.64,-108.5"/>
<polygon fill="midnightblue" stroke="midnightblue" points="685.91,-112 695.91,-108.5 685.91,-105 685.91,-112"/>
</g>
<!-- Node5 -->
<g id="node5" class="node">
<title>Node5</title>
<g id="a_node5"><a xlink:href="group__zpc__attribute__store__network__helpers.html#ga05cb572c96f7dc8e6657f86e135fafed" target="_top" xlink:title="Take a UNID and return its attribute store node representing the HomeID.">
<polygon fill="none" stroke="black" points="864,-115.5 864,-145.5 999,-145.5 999,-115.5 864,-115.5"/>
<text text-anchor="start" x="872" y="-133.5" font-family="Helvetica,sans-Serif" font-size="10.00">attribute_store_network</text>
<text text-anchor="middle" x="931.5" y="-122.5" font-family="Helvetica,sans-Serif" font-size="10.00">_helper_get_home_id_node</text>
</a>
</g>
</g>
<!-- Node4&#45;&gt;Node5 -->
<g id="edge4" class="edge">
<title>Node4&#45;&gt;Node5</title>
<path fill="none" stroke="midnightblue" d="M828.24,-117.07C836.62,-118.17 845.27,-119.31 853.82,-120.43"/>
<polygon fill="midnightblue" stroke="midnightblue" points="853.41,-123.9 863.78,-121.74 854.32,-116.96 853.41,-123.9"/>
</g>
<!-- Node7 -->
<g id="node7" class="node">
<title>Node7</title>
<g id="a_node7"><a xlink:href="group__zwave__unid.html#ga76885767debd174e96e6df00b0a368c3" target="_top" xlink:title="Convert a UNID to a node ID.">
<polygon fill="none" stroke="black" points="871,-77 871,-96 992,-96 992,-77 871,-77"/>
<text text-anchor="middle" x="931.5" y="-84" font-family="Helvetica,sans-Serif" font-size="10.00">zwave_unid_to_node_id</text>
</a>
</g>
</g>
<!-- Node4&#45;&gt;Node7 -->
<g id="edge6" class="edge">
<title>Node4&#45;&gt;Node7</title>
<path fill="none" stroke="midnightblue" d="M828.24,-99.93C838.89,-98.53 849.96,-97.08 860.72,-95.67"/>
<polygon fill="midnightblue" stroke="midnightblue" points="861.45,-99.1 870.91,-94.33 860.54,-92.16 861.45,-99.1"/>
</g>
<!-- Node6 -->
<g id="node6" class="node">
<title>Node6</title>
<g id="a_node6"><a xlink:href="group__zwave__unid.html#ga92f9808a08c2ce1c0a6a9dc2debf3580" target="_top" xlink:title="Convert a UNID to a Home ID.">
<polygon fill="none" stroke="black" points="1035,-121 1035,-140 1159,-140 1159,-121 1035,-121"/>
<text text-anchor="middle" x="1097" y="-128" font-family="Helvetica,sans-Serif" font-size="10.00">zwave_unid_to_home_id</text>
</a>
</g>
</g>
<!-- Node5&#45;&gt;Node6 -->
<g id="edge5" class="edge">
<title>Node5&#45;&gt;Node6</title>
<path fill="none" stroke="midnightblue" d="M999,-130.5C1007.42,-130.5 1016.07,-130.5 1024.57,-130.5"/>
<polygon fill="midnightblue" stroke="midnightblue" points="1024.83,-134 1034.83,-130.5 1024.83,-127 1024.83,-134"/>
</g>
<!-- Node11 -->
<g id="node11" class="node">
<title>Node11</title>
<g id="a_node11"><a xlink:href="group__zwave__utils.html#ga6f7851dd2a96668e3a246c0292607579" target="_top" xlink:title="Get endpoint node associated with the ZWave NodeID and Endpoint ID.">
<polygon fill="none" stroke="black" points="357,-55 357,-74 489,-74 489,-55 357,-55"/>
<text text-anchor="middle" x="423" y="-62" font-family="Helvetica,sans-Serif" font-size="10.00">zwave_get_endpoint_node</text>
</a>
</g>
</g>
<!-- Node10&#45;&gt;Node11 -->
<g id="edge10" class="edge">
<title>Node10&#45;&gt;Node11</title>
<path fill="none" stroke="midnightblue" d="M313.18,-64.5C324.14,-64.5 335.54,-64.5 346.66,-64.5"/>
<polygon fill="midnightblue" stroke="midnightblue" points="346.77,-68 356.77,-64.5 346.77,-61 346.77,-68"/>
</g>
<!-- Node11&#45;&gt;Node3 -->
<g id="edge11" class="edge">
<title>Node11&#45;&gt;Node3</title>
<path fill="none" stroke="midnightblue" d="M460.35,-74.05C479.04,-78.96 502.42,-85.1 524.25,-90.83"/>
<polygon fill="midnightblue" stroke="midnightblue" points="523.59,-94.28 534.15,-93.43 525.37,-87.51 523.59,-94.28"/>
</g>
<!-- Node11&#45;&gt;Node8 -->
<g id="edge12" class="edge">
<title>Node11&#45;&gt;Node8</title>
<path fill="none" stroke="midnightblue" d="M489.24,-64.5C498.12,-64.5 507.28,-64.5 516.32,-64.5"/>
<polygon fill="midnightblue" stroke="midnightblue" points="516.44,-68 526.44,-64.5 516.44,-61 516.44,-68"/>
</g>
</g>
</svg>
