<?xml version="1.0" encoding="UTF-8" standalone="no"?>
<!DOCTYPE svg PUBLIC "-//W3C//DTD SVG 1.1//EN"
 "http://www.w3.org/Graphics/SVG/1.1/DTD/svg11.dtd">
<!-- Generated by graphviz version 2.43.0 (0)
 -->
<!-- Title: applications/zpc/components/zwave/zwave_controller/src/zwave_controller_callbacks.c Pages: 1 -->
<svg width="1218pt" height="542pt"
 viewBox="0.00 0.00 1218.00 542.00" xmlns="http://www.w3.org/2000/svg" xmlns:xlink="http://www.w3.org/1999/xlink">
<g id="graph0" class="graph" transform="scale(1 1) rotate(0) translate(4 538)">
<title>applications/zpc/components/zwave/zwave_controller/src/zwave_controller_callbacks.c</title>
<!-- Node1 -->
<g id="node1" class="node">
<title>Node1</title>
<g id="a_node1"><a xlink:title=" ">
<polygon fill="#bfbfbf" stroke="black" points="522,-492.5 522,-533.5 686,-533.5 686,-492.5 522,-492.5"/>
<text text-anchor="start" x="530" y="-521.5" font-family="Helvetica,sans-Serif" font-size="10.00">applications/zpc/components</text>
<text text-anchor="start" x="530" y="-510.5" font-family="Helvetica,sans-Serif" font-size="10.00">/zwave/zwave_controller</text>
<text text-anchor="middle" x="604" y="-499.5" font-family="Helvetica,sans-Serif" font-size="10.00">/src/zwave_controller_callbacks.c</text>
</a>
</g>
</g>
<!-- Node2 -->
<g id="node2" class="node">
<title>Node2</title>
<g id="a_node2"><a xlink:href="zwave__controller__callbacks_8h.html" target="_top" xlink:title=" ">
<polygon fill="none" stroke="black" points="207.5,-313.5 207.5,-332.5 352.5,-332.5 352.5,-313.5 207.5,-313.5"/>
<text text-anchor="middle" x="280" y="-320.5" font-family="Helvetica,sans-Serif" font-size="10.00">zwave_controller_callbacks.h</text>
</a>
</g>
</g>
<!-- Node1&#45;&gt;Node2 -->
<g id="edge1" class="edge">
<title>Node1&#45;&gt;Node2</title>
<path fill="none" stroke="midnightblue" d="M521.75,-504.32C450.91,-496.13 355.69,-480.86 327,-456 293.24,-426.74 283.73,-371.54 281.05,-342.67"/>
<polygon fill="midnightblue" stroke="midnightblue" points="284.54,-342.4 280.3,-332.69 277.56,-342.92 284.54,-342.4"/>
</g>
<!-- Node15 -->
<g id="node15" class="node">
<title>Node15</title>
<g id="a_node15"><a xlink:href="zwave__controller__transport__internal_8h.html" target="_top" xlink:title=" ">
<polygon fill="none" stroke="black" points="490,-425.5 490,-455.5 624,-455.5 624,-425.5 490,-425.5"/>
<text text-anchor="start" x="498" y="-443.5" font-family="Helvetica,sans-Serif" font-size="10.00">zwave_controller_transport</text>
<text text-anchor="middle" x="557" y="-432.5" font-family="Helvetica,sans-Serif" font-size="10.00">_internal.h</text>
</a>
</g>
</g>
<!-- Node1&#45;&gt;Node15 -->
<g id="edge25" class="edge">
<title>Node1&#45;&gt;Node15</title>
<path fill="none" stroke="midnightblue" d="M590.91,-492.36C585.12,-483.68 578.28,-473.42 572.27,-464.4"/>
<polygon fill="midnightblue" stroke="midnightblue" points="575.05,-462.27 566.59,-455.89 569.23,-466.15 575.05,-462.27"/>
</g>
<!-- Node17 -->
<g id="node17" class="node">
<title>Node17</title>
<g id="a_node17"><a xlink:href="zwave__network__management_8h.html" target="_top" xlink:title=" ">
<polygon fill="none" stroke="black" points="430.5,-313.5 430.5,-332.5 585.5,-332.5 585.5,-313.5 430.5,-313.5"/>
<text text-anchor="middle" x="508" y="-320.5" font-family="Helvetica,sans-Serif" font-size="10.00">zwave_network_management.h</text>
</a>
</g>
</g>
<!-- Node1&#45;&gt;Node17 -->
<g id="edge67" class="edge">
<title>Node1&#45;&gt;Node17</title>
<path fill="none" stroke="midnightblue" d="M618.95,-492.46C630.76,-474.46 643.64,-447.27 633,-425 613.14,-383.43 566.89,-353.46 536.56,-337.43"/>
<polygon fill="midnightblue" stroke="midnightblue" points="537.83,-334.14 527.33,-332.72 534.64,-340.38 537.83,-334.14"/>
</g>
<!-- Node22 -->
<g id="node22" class="node">
<title>Node22</title>
<g id="a_node22"><a xlink:href="zwave__controller__internal_8h.html" target="_top" xlink:title=" ">
<polygon fill="none" stroke="black" points="335.5,-431 335.5,-450 470.5,-450 470.5,-431 335.5,-431"/>
<text text-anchor="middle" x="403" y="-438" font-family="Helvetica,sans-Serif" font-size="10.00">zwave_controller_internal.h</text>
</a>
</g>
</g>
<!-- Node1&#45;&gt;Node22 -->
<g id="edge50" class="edge">
<title>Node1&#45;&gt;Node22</title>
<path fill="none" stroke="midnightblue" d="M548.28,-492.46C512.58,-479.93 467.41,-464.09 436.99,-453.42"/>
<polygon fill="midnightblue" stroke="midnightblue" points="437.87,-450.02 427.27,-450.01 435.55,-456.63 437.87,-450.02"/>
</g>
<!-- Node23 -->
<g id="node23" class="node">
<title>Node23</title>
<g id="a_node23"><a xlink:href="zwapi__protocol__controller_8h.html" target="_top" xlink:title="Z&#45;Wave API for Z&#45;Wave controllers (network setup and maintenance)">
<polygon fill="none" stroke="black" points="0,-185 0,-204 134,-204 134,-185 0,-185"/>
<text text-anchor="middle" x="67" y="-192" font-family="Helvetica,sans-Serif" font-size="10.00">zwapi_protocol_controller.h</text>
</a>
</g>
</g>
<!-- Node1&#45;&gt;Node23 -->
<g id="edge66" class="edge">
<title>Node1&#45;&gt;Node23</title>
<path fill="none" stroke="midnightblue" d="M521.75,-508.55C372.42,-500.04 72,-471.53 72,-380 72,-380 72,-380 72,-322 72,-283.67 69.68,-238.86 68.2,-214.19"/>
<polygon fill="midnightblue" stroke="midnightblue" points="71.69,-213.85 67.57,-204.08 64.7,-214.28 71.69,-213.85"/>
</g>
<!-- Node24 -->
<g id="node24" class="node">
<title>Node24</title>
<g id="a_node24"><a xlink:href="zwave__controller__utils_8h.html" target="_top" xlink:title=" ">
<polygon fill="none" stroke="black" points="729,-313.5 729,-332.5 851,-332.5 851,-313.5 729,-313.5"/>
<text text-anchor="middle" x="790" y="-320.5" font-family="Helvetica,sans-Serif" font-size="10.00">zwave_controller_utils.h</text>
</a>
</g>
</g>
<!-- Node1&#45;&gt;Node24 -->
<g id="edge60" class="edge">
<title>Node1&#45;&gt;Node24</title>
<path fill="none" stroke="midnightblue" d="M623.55,-492.24C660.51,-454.88 739.95,-374.59 773.99,-340.18"/>
<polygon fill="midnightblue" stroke="midnightblue" points="776.71,-342.41 781.25,-332.84 771.73,-337.49 776.71,-342.41"/>
</g>
<!-- Node26 -->
<g id="node26" class="node">
<title>Node26</title>
<g id="a_node26"><a xlink:title=" ">
<polygon fill="none" stroke="#bfbfbf" points="1158,-252 1158,-271 1210,-271 1210,-252 1158,-252"/>
<text text-anchor="middle" x="1184" y="-259" font-family="Helvetica,sans-Serif" font-size="10.00">stddef.h</text>
</a>
</g>
</g>
<!-- Node1&#45;&gt;Node26 -->
<g id="edge68" class="edge">
<title>Node1&#45;&gt;Node26</title>
<path fill="none" stroke="midnightblue" d="M649.51,-492.42C763.9,-443.22 1060.98,-315.42 1155.02,-274.97"/>
<polygon fill="midnightblue" stroke="midnightblue" points="1156.42,-278.18 1164.22,-271.01 1153.65,-271.75 1156.42,-278.18"/>
</g>
<!-- Node27 -->
<g id="node27" class="node">
<title>Node27</title>
<g id="a_node27"><a xlink:title=" ">
<polygon fill="none" stroke="#bfbfbf" points="907,-431 907,-450 957,-450 957,-431 907,-431"/>
<text text-anchor="middle" x="932" y="-438" font-family="Helvetica,sans-Serif" font-size="10.00">sl_log.h</text>
</a>
</g>
</g>
<!-- Node1&#45;&gt;Node27 -->
<g id="edge69" class="edge">
<title>Node1&#45;&gt;Node27</title>
<path fill="none" stroke="midnightblue" d="M686.12,-499.79C744.43,-490.22 824.24,-475.3 893,-456 895.65,-455.26 898.37,-454.41 901.09,-453.52"/>
<polygon fill="midnightblue" stroke="midnightblue" points="902.48,-456.74 910.75,-450.12 900.16,-450.13 902.48,-456.74"/>
</g>
<!-- Node3 -->
<g id="node3" class="node">
<title>Node3</title>
<g id="a_node3"><a xlink:href="zwave__rx__definitions_8h.html" target="_top" xlink:title=" ">
<polygon fill="none" stroke="black" points="646,-252 646,-271 762,-271 762,-252 646,-252"/>
<text text-anchor="middle" x="704" y="-259" font-family="Helvetica,sans-Serif" font-size="10.00">zwave_rx_definitions.h</text>
</a>
</g>
</g>
<!-- Node2&#45;&gt;Node3 -->
<g id="edge2" class="edge">
<title>Node2&#45;&gt;Node3</title>
<path fill="none" stroke="midnightblue" d="M340.75,-313.48C418.81,-302.52 553.97,-283.55 635.58,-272.1"/>
<polygon fill="midnightblue" stroke="midnightblue" points="636.33,-275.53 645.75,-270.67 635.36,-268.6 636.33,-275.53"/>
</g>
<!-- Node9 -->
<g id="node9" class="node">
<title>Node9</title>
<g id="a_node9"><a xlink:href="zwave__generic__types_8h.html" target="_top" xlink:title=" ">
<polygon fill="none" stroke="black" points="492.5,-56.5 492.5,-75.5 611.5,-75.5 611.5,-56.5 492.5,-56.5"/>
<text text-anchor="middle" x="552" y="-63.5" font-family="Helvetica,sans-Serif" font-size="10.00">zwave_generic_types.h</text>
</a>
</g>
</g>
<!-- Node2&#45;&gt;Node9 -->
<g id="edge18" class="edge">
<title>Node2&#45;&gt;Node9</title>
<path fill="none" stroke="midnightblue" d="M270.76,-313.41C246.45,-289.77 184.9,-222.64 220,-179 266.77,-120.85 313.17,-166.51 384,-143 411.72,-133.8 485.26,-99.11 525.23,-79.94"/>
<polygon fill="midnightblue" stroke="midnightblue" points="526.9,-83.02 534.39,-75.53 523.86,-76.71 526.9,-83.02"/>
</g>
<!-- Node11 -->
<g id="node11" class="node">
<title>Node11</title>
<g id="a_node11"><a xlink:href="zwave__network__management__types_8h.html" target="_top" xlink:title=" ">
<polygon fill="none" stroke="black" points="469,-112.5 469,-142.5 615,-142.5 615,-112.5 469,-112.5"/>
<text text-anchor="start" x="477" y="-130.5" font-family="Helvetica,sans-Serif" font-size="10.00">zwave_network_management</text>
<text text-anchor="middle" x="542" y="-119.5" font-family="Helvetica,sans-Serif" font-size="10.00">_types.h</text>
</a>
</g>
</g>
<!-- Node2&#45;&gt;Node11 -->
<g id="edge13" class="edge">
<title>Node2&#45;&gt;Node11</title>
<path fill="none" stroke="midnightblue" d="M279.45,-313.44C278.93,-298.17 279.98,-266 296,-246 320.12,-215.89 340.1,-226.46 375,-210 419.81,-188.86 470.95,-163.76 504.7,-147.05"/>
<polygon fill="midnightblue" stroke="midnightblue" points="506.34,-150.15 513.74,-142.57 503.23,-143.88 506.34,-150.15"/>
</g>
<!-- Node12 -->
<g id="node12" class="node">
<title>Node12</title>
<g id="a_node12"><a xlink:href="zwave__keyset__definitions_8h.html" target="_top" xlink:title=" ">
<polygon fill="none" stroke="black" points="228.5,-185 228.5,-204 365.5,-204 365.5,-185 228.5,-185"/>
<text text-anchor="middle" x="297" y="-192" font-family="Helvetica,sans-Serif" font-size="10.00">zwave_keyset_definitions.h</text>
</a>
</g>
</g>
<!-- Node2&#45;&gt;Node12 -->
<g id="edge16" class="edge">
<title>Node2&#45;&gt;Node12</title>
<path fill="none" stroke="midnightblue" d="M275.01,-313.46C267.39,-299.28 254.47,-270.07 262,-246 265.95,-233.37 274.29,-221.13 281.83,-211.86"/>
<polygon fill="midnightblue" stroke="midnightblue" points="284.51,-214.11 288.39,-204.25 279.21,-209.54 284.51,-214.11"/>
</g>
<!-- Node13 -->
<g id="node13" class="node">
<title>Node13</title>
<g id="a_node13"><a xlink:href="zwapi__protocol__transport_8h.html" target="_top" xlink:title="Z&#45;Wave API for transport application layer interface.">
<polygon fill="none" stroke="black" points="241,-118 241,-137 375,-137 375,-118 241,-118"/>
<text text-anchor="middle" x="308" y="-125" font-family="Helvetica,sans-Serif" font-size="10.00">zwapi_protocol_transport.h</text>
</a>
</g>
</g>
<!-- Node2&#45;&gt;Node13 -->
<g id="edge19" class="edge">
<title>Node2&#45;&gt;Node13</title>
<path fill="none" stroke="midnightblue" d="M239.85,-313.43C220.03,-306.95 197.86,-295.83 186,-277 162.78,-240.15 161.8,-215.21 186,-179 199.15,-159.33 221.53,-147.31 243.56,-139.97"/>
<polygon fill="midnightblue" stroke="midnightblue" points="244.74,-143.27 253.28,-137.01 242.7,-136.57 244.74,-143.27"/>
</g>
<!-- Node4 -->
<g id="node4" class="node">
<title>Node4</title>
<g id="a_node4"><a xlink:href="zwave__controller__connection__info_8h.html" target="_top" xlink:title=" ">
<polygon fill="none" stroke="black" points="646.5,-179.5 646.5,-209.5 789.5,-209.5 789.5,-179.5 646.5,-179.5"/>
<text text-anchor="start" x="654.5" y="-197.5" font-family="Helvetica,sans-Serif" font-size="10.00">zwave_controller_connection</text>
<text text-anchor="middle" x="718" y="-186.5" font-family="Helvetica,sans-Serif" font-size="10.00">_info.h</text>
</a>
</g>
</g>
<!-- Node3&#45;&gt;Node4 -->
<g id="edge3" class="edge">
<title>Node3&#45;&gt;Node4</title>
<path fill="none" stroke="midnightblue" d="M705.89,-251.73C707.67,-243.46 710.43,-230.66 712.86,-219.37"/>
<polygon fill="midnightblue" stroke="midnightblue" points="716.28,-220.1 714.97,-209.59 709.44,-218.63 716.28,-220.1"/>
</g>
<!-- Node5 -->
<g id="node5" class="node">
<title>Node5</title>
<g id="a_node5"><a xlink:href="zwave__controller__types_8h.html" target="_top" xlink:title=" ">
<polygon fill="none" stroke="black" points="746,-118 746,-137 874,-137 874,-118 746,-118"/>
<text text-anchor="middle" x="810" y="-125" font-family="Helvetica,sans-Serif" font-size="10.00">zwave_controller_types.h</text>
</a>
</g>
</g>
<!-- Node4&#45;&gt;Node5 -->
<g id="edge4" class="edge">
<title>Node4&#45;&gt;Node5</title>
<path fill="none" stroke="midnightblue" d="M737.96,-179.4C753.25,-168.6 774.25,-153.76 789.64,-142.89"/>
<polygon fill="midnightblue" stroke="midnightblue" points="791.81,-145.64 797.96,-137.01 787.77,-139.92 791.81,-145.64"/>
</g>
<!-- Node6 -->
<g id="node6" class="node">
<title>Node6</title>
<g id="a_node6"><a xlink:title=" ">
<polygon fill="none" stroke="#bfbfbf" points="810,-0.5 810,-19.5 866,-19.5 866,-0.5 810,-0.5"/>
<text text-anchor="middle" x="838" y="-7.5" font-family="Helvetica,sans-Serif" font-size="10.00">stdbool.h</text>
</a>
</g>
</g>
<!-- Node5&#45;&gt;Node6 -->
<g id="edge5" class="edge">
<title>Node5&#45;&gt;Node6</title>
<path fill="none" stroke="midnightblue" d="M812.1,-117.82C816.62,-99.17 827.35,-54.94 833.48,-29.63"/>
<polygon fill="midnightblue" stroke="midnightblue" points="836.92,-30.33 835.87,-19.78 830.11,-28.68 836.92,-30.33"/>
</g>
<!-- Node7 -->
<g id="node7" class="node">
<title>Node7</title>
<g id="a_node7"><a xlink:title=" ">
<polygon fill="none" stroke="#bfbfbf" points="371.5,-0.5 371.5,-19.5 420.5,-19.5 420.5,-0.5 371.5,-0.5"/>
<text text-anchor="middle" x="396" y="-7.5" font-family="Helvetica,sans-Serif" font-size="10.00">stdint.h</text>
</a>
</g>
</g>
<!-- Node5&#45;&gt;Node7 -->
<g id="edge6" class="edge">
<title>Node5&#45;&gt;Node7</title>
<path fill="none" stroke="midnightblue" d="M809.21,-117.89C807.31,-102.67 801.04,-71.19 781,-56 726.35,-14.59 514.74,-10.59 430.7,-10.68"/>
<polygon fill="midnightblue" stroke="midnightblue" points="430.62,-7.18 420.63,-10.72 430.65,-14.18 430.62,-7.18"/>
</g>
<!-- Node8 -->
<g id="node8" class="node">
<title>Node8</title>
<g id="a_node8"><a xlink:href="zwave__node__id__definitions_8h.html" target="_top" xlink:title=" ">
<polygon fill="none" stroke="black" points="630,-56.5 630,-75.5 772,-75.5 772,-56.5 630,-56.5"/>
<text text-anchor="middle" x="701" y="-63.5" font-family="Helvetica,sans-Serif" font-size="10.00">zwave_node_id_definitions.h</text>
</a>
</g>
</g>
<!-- Node5&#45;&gt;Node8 -->
<g id="edge7" class="edge">
<title>Node5&#45;&gt;Node8</title>
<path fill="none" stroke="midnightblue" d="M794.38,-117.98C776.41,-108.17 746.68,-91.93 725.59,-80.42"/>
<polygon fill="midnightblue" stroke="midnightblue" points="727.04,-77.23 716.59,-75.51 723.69,-83.37 727.04,-77.23"/>
</g>
<!-- Node5&#45;&gt;Node9 -->
<g id="edge9" class="edge">
<title>Node5&#45;&gt;Node9</title>
<path fill="none" stroke="midnightblue" d="M773.03,-117.98C727.15,-107.39 648.85,-89.34 598.82,-77.8"/>
<polygon fill="midnightblue" stroke="midnightblue" points="599.43,-74.35 588.9,-75.51 597.85,-81.17 599.43,-74.35"/>
</g>
<!-- Node10 -->
<g id="node10" class="node">
<title>Node10</title>
<g id="a_node10"><a xlink:href="zwave__rf__region_8h.html" target="_top" xlink:title=" ">
<polygon fill="none" stroke="black" points="904,-56.5 904,-75.5 1000,-75.5 1000,-56.5 904,-56.5"/>
<text text-anchor="middle" x="952" y="-63.5" font-family="Helvetica,sans-Serif" font-size="10.00">zwave_rf_region.h</text>
</a>
</g>
</g>
<!-- Node5&#45;&gt;Node10 -->
<g id="edge11" class="edge">
<title>Node5&#45;&gt;Node10</title>
<path fill="none" stroke="midnightblue" d="M830.35,-117.98C854.39,-107.9 894.6,-91.05 922.16,-79.5"/>
<polygon fill="midnightblue" stroke="midnightblue" points="923.82,-82.6 931.69,-75.51 921.12,-76.15 923.82,-82.6"/>
</g>
<!-- Node8&#45;&gt;Node7 -->
<g id="edge8" class="edge">
<title>Node8&#45;&gt;Node7</title>
<path fill="none" stroke="midnightblue" d="M652.67,-56.44C590.81,-45.49 485.15,-26.78 430.7,-17.14"/>
<polygon fill="midnightblue" stroke="midnightblue" points="431.3,-13.69 420.84,-15.4 430.07,-20.59 431.3,-13.69"/>
</g>
<!-- Node9&#45;&gt;Node7 -->
<g id="edge10" class="edge">
<title>Node9&#45;&gt;Node7</title>
<path fill="none" stroke="midnightblue" d="M527.28,-56.44C501.15,-47.4 459.74,-33.06 430.42,-22.92"/>
<polygon fill="midnightblue" stroke="midnightblue" points="431.2,-19.48 420.6,-19.52 428.91,-26.1 431.2,-19.48"/>
</g>
<!-- Node10&#45;&gt;Node6 -->
<g id="edge12" class="edge">
<title>Node10&#45;&gt;Node6</title>
<path fill="none" stroke="midnightblue" d="M933.94,-56.44C915.43,-47.68 886.42,-33.94 865.14,-23.86"/>
<polygon fill="midnightblue" stroke="midnightblue" points="866.51,-20.63 855.98,-19.52 863.52,-26.96 866.51,-20.63"/>
</g>
<!-- Node11&#45;&gt;Node6 -->
<g id="edge14" class="edge">
<title>Node11&#45;&gt;Node6</title>
<path fill="none" stroke="midnightblue" d="M517,-112.49C494.42,-98.1 467.13,-75.15 484,-56 504.66,-32.55 712.71,-18.11 799.89,-13.04"/>
<polygon fill="midnightblue" stroke="midnightblue" points="800.12,-16.54 809.9,-12.47 799.72,-9.55 800.12,-16.54"/>
</g>
<!-- Node11&#45;&gt;Node7 -->
<g id="edge15" class="edge">
<title>Node11&#45;&gt;Node7</title>
<path fill="none" stroke="midnightblue" d="M509.49,-112.38C490.99,-103.47 467.99,-90.84 450,-76 433.1,-62.06 417.55,-42.27 407.52,-28.2"/>
<polygon fill="midnightblue" stroke="midnightblue" points="410.34,-26.12 401.76,-19.89 404.58,-30.11 410.34,-26.12"/>
</g>
<!-- Node12&#45;&gt;Node7 -->
<g id="edge17" class="edge">
<title>Node12&#45;&gt;Node7</title>
<path fill="none" stroke="midnightblue" d="M260.54,-184.94C238.58,-177.71 212.35,-164.9 199,-143 178.87,-109.99 174.89,-86.23 199,-56 218.91,-31.03 310.13,-18.82 361.17,-13.85"/>
<polygon fill="midnightblue" stroke="midnightblue" points="361.77,-17.3 371.41,-12.89 361.13,-10.33 361.77,-17.3"/>
</g>
<!-- Node13&#45;&gt;Node6 -->
<g id="edge21" class="edge">
<title>Node13&#45;&gt;Node6</title>
<path fill="none" stroke="midnightblue" d="M307.06,-117.98C305.92,-102.92 306.03,-71.68 324,-56 359.63,-24.9 686.28,-14.49 799.54,-11.8"/>
<polygon fill="midnightblue" stroke="midnightblue" points="799.9,-15.29 809.82,-11.56 799.74,-8.29 799.9,-15.29"/>
</g>
<!-- Node13&#45;&gt;Node7 -->
<g id="edge20" class="edge">
<title>Node13&#45;&gt;Node7</title>
<path fill="none" stroke="midnightblue" d="M301.79,-117.96C292.41,-103.93 277.03,-75.59 290,-56 305.74,-32.22 336.84,-20.97 361.3,-15.67"/>
<polygon fill="midnightblue" stroke="midnightblue" points="362.16,-19.07 371.32,-13.74 360.84,-12.2 362.16,-19.07"/>
</g>
<!-- Node13&#45;&gt;Node8 -->
<g id="edge24" class="edge">
<title>Node13&#45;&gt;Node8</title>
<path fill="none" stroke="midnightblue" d="M364.31,-117.98C435.81,-107.15 558.98,-88.5 634.87,-77.01"/>
<polygon fill="midnightblue" stroke="midnightblue" points="635.43,-80.47 644.8,-75.51 634.39,-73.55 635.43,-80.47"/>
</g>
<!-- Node14 -->
<g id="node14" class="node">
<title>Node14</title>
<g id="a_node14"><a xlink:href="sl__status_8h.html" target="_top" xlink:title="SL Status Codes.">
<polygon fill="none" stroke="black" points="332.5,-56.5 332.5,-75.5 397.5,-75.5 397.5,-56.5 332.5,-56.5"/>
<text text-anchor="middle" x="365" y="-63.5" font-family="Helvetica,sans-Serif" font-size="10.00">sl_status.h</text>
</a>
</g>
</g>
<!-- Node13&#45;&gt;Node14 -->
<g id="edge22" class="edge">
<title>Node13&#45;&gt;Node14</title>
<path fill="none" stroke="midnightblue" d="M316.17,-117.98C324.89,-108.87 338.9,-94.24 349.69,-82.98"/>
<polygon fill="midnightblue" stroke="midnightblue" points="352.46,-85.15 356.85,-75.51 347.4,-80.31 352.46,-85.15"/>
</g>
<!-- Node14&#45;&gt;Node7 -->
<g id="edge23" class="edge">
<title>Node14&#45;&gt;Node7</title>
<path fill="none" stroke="midnightblue" d="M370.12,-56.08C374.41,-48.61 380.66,-37.72 385.94,-28.52"/>
<polygon fill="midnightblue" stroke="midnightblue" points="389.03,-30.17 390.98,-19.75 382.96,-26.68 389.03,-30.17"/>
</g>
<!-- Node16 -->
<g id="node16" class="node">
<title>Node16</title>
<g id="a_node16"><a xlink:href="zwave__controller_8h.html" target="_top" xlink:title=" ">
<polygon fill="none" stroke="black" points="440,-369.5 440,-388.5 538,-388.5 538,-369.5 440,-369.5"/>
<text text-anchor="middle" x="489" y="-376.5" font-family="Helvetica,sans-Serif" font-size="10.00">zwave_controller.h</text>
</a>
</g>
</g>
<!-- Node15&#45;&gt;Node16 -->
<g id="edge26" class="edge">
<title>Node15&#45;&gt;Node16</title>
<path fill="none" stroke="midnightblue" d="M540.88,-425.4C530.6,-416.4 517.25,-404.72 506.67,-395.47"/>
<polygon fill="midnightblue" stroke="midnightblue" points="508.73,-392.61 498.89,-388.66 504.12,-397.88 508.73,-392.61"/>
</g>
<!-- Node19 -->
<g id="node19" class="node">
<title>Node19</title>
<g id="a_node19"><a xlink:href="zwave__tx_8h.html" target="_top" xlink:title=" ">
<polygon fill="none" stroke="black" points="818.5,-252 818.5,-271 885.5,-271 885.5,-252 818.5,-252"/>
<text text-anchor="middle" x="852" y="-259" font-family="Helvetica,sans-Serif" font-size="10.00">zwave_tx.h</text>
</a>
</g>
</g>
<!-- Node15&#45;&gt;Node19 -->
<g id="edge38" class="edge">
<title>Node15&#45;&gt;Node19</title>
<path fill="none" stroke="midnightblue" d="M577.79,-425.3C592.1,-415.39 611.44,-401.71 628,-389 670.08,-356.72 674.18,-339.72 720,-313 749.04,-296.07 784.8,-282.8 811.77,-274.11"/>
<polygon fill="midnightblue" stroke="midnightblue" points="813.15,-277.35 821.65,-271.01 811.06,-270.67 813.15,-277.35"/>
</g>
<!-- Node16&#45;&gt;Node2 -->
<g id="edge37" class="edge">
<title>Node16&#45;&gt;Node2</title>
<path fill="none" stroke="midnightblue" d="M455.88,-369.44C419.88,-360.14 362.23,-345.25 322.81,-335.06"/>
<polygon fill="midnightblue" stroke="midnightblue" points="323.52,-331.63 312.96,-332.52 321.77,-338.41 323.52,-331.63"/>
</g>
<!-- Node16&#45;&gt;Node17 -->
<g id="edge27" class="edge">
<title>Node16&#45;&gt;Node17</title>
<path fill="none" stroke="midnightblue" d="M492.14,-369.08C494.68,-361.85 498.36,-351.41 501.53,-342.4"/>
<polygon fill="midnightblue" stroke="midnightblue" points="504.9,-343.35 504.92,-332.75 498.3,-341.02 504.9,-343.35"/>
</g>
<!-- Node17&#45;&gt;Node5 -->
<g id="edge30" class="edge">
<title>Node17&#45;&gt;Node5</title>
<path fill="none" stroke="midnightblue" d="M534.61,-313.39C553.28,-306.19 577.71,-294.3 594,-277 626.73,-242.24 602.02,-210.38 638,-179 665,-155.46 702.48,-142.88 735.57,-136.16"/>
<polygon fill="midnightblue" stroke="midnightblue" points="736.5,-139.55 745.68,-134.26 735.21,-132.67 736.5,-139.55"/>
</g>
<!-- Node17&#45;&gt;Node6 -->
<g id="edge29" class="edge">
<title>Node17&#45;&gt;Node6</title>
<path fill="none" stroke="midnightblue" d="M585.66,-321.11C665.01,-318.33 790.99,-308.7 895,-277 957.18,-258.05 991.17,-265.5 1025,-210 1060.63,-151.56 1067.36,-109.76 1025,-56 1006.82,-32.92 925.26,-20.31 876.06,-14.68"/>
<polygon fill="midnightblue" stroke="midnightblue" points="876.41,-11.19 866.08,-13.58 875.64,-18.15 876.41,-11.19"/>
</g>
<!-- Node17&#45;&gt;Node7 -->
<g id="edge28" class="edge">
<title>Node17&#45;&gt;Node7</title>
<path fill="none" stroke="midnightblue" d="M502.94,-313.47C487.45,-288.16 437.85,-213.17 375,-179 317.42,-147.69 272.29,-194.69 232,-143 189.09,-87.95 301.44,-41.58 361.31,-21.57"/>
<polygon fill="midnightblue" stroke="midnightblue" points="362.71,-24.8 371.13,-18.37 360.54,-18.14 362.71,-24.8"/>
</g>
<!-- Node17&#45;&gt;Node9 -->
<g id="edge31" class="edge">
<title>Node17&#45;&gt;Node9</title>
<path fill="none" stroke="midnightblue" d="M516.4,-313.27C539.23,-288.87 602.16,-216.86 624,-143 627.91,-129.79 630.68,-124.05 624,-112 615.91,-97.41 600.9,-86.92 586.66,-79.76"/>
<polygon fill="midnightblue" stroke="midnightblue" points="588.05,-76.55 577.5,-75.53 585.11,-82.9 588.05,-76.55"/>
</g>
<!-- Node17&#45;&gt;Node11 -->
<g id="edge32" class="edge">
<title>Node17&#45;&gt;Node11</title>
<path fill="none" stroke="midnightblue" d="M510.07,-313.4C512.2,-304.37 515.56,-289.73 518,-277 526.33,-233.56 534.14,-182.6 538.48,-153.09"/>
<polygon fill="midnightblue" stroke="midnightblue" points="541.98,-153.28 539.96,-142.88 535.06,-152.28 541.98,-153.28"/>
</g>
<!-- Node17&#45;&gt;Node14 -->
<g id="edge36" class="edge">
<title>Node17&#45;&gt;Node14</title>
<path fill="none" stroke="midnightblue" d="M505.48,-313.31C501.16,-298.92 491.66,-269.41 480,-246 448.66,-183.07 400.36,-114.78 377.64,-83.88"/>
<polygon fill="midnightblue" stroke="midnightblue" points="380.22,-81.49 371.46,-75.54 374.6,-85.65 380.22,-81.49"/>
</g>
<!-- Node18 -->
<g id="node18" class="node">
<title>Node18</title>
<g id="a_node18"><a xlink:href="zwave__controller__keyset_8h.html" target="_top" xlink:title=" ">
<polygon fill="none" stroke="black" points="304.5,-252 304.5,-271 437.5,-271 437.5,-252 304.5,-252"/>
<text text-anchor="middle" x="371" y="-259" font-family="Helvetica,sans-Serif" font-size="10.00">zwave_controller_keyset.h</text>
</a>
</g>
</g>
<!-- Node17&#45;&gt;Node18 -->
<g id="edge33" class="edge">
<title>Node17&#45;&gt;Node18</title>
<path fill="none" stroke="midnightblue" d="M488.37,-313.48C465.18,-303.4 426.38,-286.55 399.79,-275"/>
<polygon fill="midnightblue" stroke="midnightblue" points="401.16,-271.78 390.59,-271.01 398.37,-278.2 401.16,-271.78"/>
</g>
<!-- Node18&#45;&gt;Node4 -->
<g id="edge34" class="edge">
<title>Node18&#45;&gt;Node4</title>
<path fill="none" stroke="midnightblue" d="M416.72,-251.94C472.5,-241.49 567.82,-223.63 636.32,-210.8"/>
<polygon fill="midnightblue" stroke="midnightblue" points="637.04,-214.23 646.22,-208.95 635.75,-207.35 637.04,-214.23"/>
</g>
<!-- Node18&#45;&gt;Node12 -->
<g id="edge35" class="edge">
<title>Node18&#45;&gt;Node12</title>
<path fill="none" stroke="midnightblue" d="M361.02,-251.73C349.15,-241.31 329.11,-223.71 314.62,-210.97"/>
<polygon fill="midnightblue" stroke="midnightblue" points="316.64,-208.1 306.82,-204.13 312.03,-213.36 316.64,-208.1"/>
</g>
<!-- Node19&#45;&gt;Node4 -->
<g id="edge40" class="edge">
<title>Node19&#45;&gt;Node4</title>
<path fill="none" stroke="midnightblue" d="M834.21,-251.87C814.36,-242.24 781.68,-226.39 756.02,-213.94"/>
<polygon fill="midnightblue" stroke="midnightblue" points="757.44,-210.74 746.92,-209.53 754.39,-217.04 757.44,-210.74"/>
</g>
<!-- Node19&#45;&gt;Node13 -->
<g id="edge41" class="edge">
<title>Node19&#45;&gt;Node13</title>
<path fill="none" stroke="midnightblue" d="M849.19,-251.75C843.14,-234.46 827.09,-196.16 799,-179 794.62,-176.33 522.16,-149.41 385.06,-136"/>
<polygon fill="midnightblue" stroke="midnightblue" points="385.32,-132.51 375.02,-135.02 384.64,-139.48 385.32,-132.51"/>
</g>
<!-- Node19&#45;&gt;Node14 -->
<g id="edge39" class="edge">
<title>Node19&#45;&gt;Node14</title>
<path fill="none" stroke="midnightblue" d="M851.82,-251.57C851,-235 846.88,-199.3 827,-179 810.38,-162.03 647.04,-117.77 624,-112 548.83,-93.17 459.43,-79.52 407.75,-72.47"/>
<polygon fill="midnightblue" stroke="midnightblue" points="408,-68.97 397.62,-71.1 407.07,-75.91 408,-68.97"/>
</g>
<!-- Node20 -->
<g id="node20" class="node">
<title>Node20</title>
<g id="a_node20"><a xlink:href="zwapi__protocol__basis_8h.html" target="_top" xlink:title="Z&#45;Wave API for basis controller/end node application interface.">
<polygon fill="none" stroke="black" points="892.5,-118 892.5,-137 1011.5,-137 1011.5,-118 892.5,-118"/>
<text text-anchor="middle" x="952" y="-125" font-family="Helvetica,sans-Serif" font-size="10.00">zwapi_protocol_basis.h</text>
</a>
</g>
</g>
<!-- Node19&#45;&gt;Node20 -->
<g id="edge42" class="edge">
<title>Node19&#45;&gt;Node20</title>
<path fill="none" stroke="midnightblue" d="M885.52,-260.44C922.61,-258.36 980.84,-248.64 1009,-210 1025.88,-186.84 996.91,-159.46 974.45,-143.06"/>
<polygon fill="midnightblue" stroke="midnightblue" points="976.18,-139.99 965.98,-137.14 972.17,-145.74 976.18,-139.99"/>
</g>
<!-- Node21 -->
<g id="node21" class="node">
<title>Node21</title>
<g id="a_node21"><a xlink:href="zwave__tx__definitions_8h.html" target="_top" xlink:title=" ">
<polygon fill="none" stroke="black" points="884,-185 884,-204 1000,-204 1000,-185 884,-185"/>
<text text-anchor="middle" x="942" y="-192" font-family="Helvetica,sans-Serif" font-size="10.00">zwave_tx_definitions.h</text>
</a>
</g>
</g>
<!-- Node19&#45;&gt;Node21 -->
<g id="edge48" class="edge">
<title>Node19&#45;&gt;Node21</title>
<path fill="none" stroke="midnightblue" d="M864.14,-251.73C878.85,-241.11 903.86,-223.05 921.56,-210.26"/>
<polygon fill="midnightblue" stroke="midnightblue" points="924,-212.82 930.05,-204.13 919.9,-207.14 924,-212.82"/>
</g>
<!-- Node20&#45;&gt;Node6 -->
<g id="edge44" class="edge">
<title>Node20&#45;&gt;Node6</title>
<path fill="none" stroke="midnightblue" d="M967.92,-117.92C990.3,-104.75 1026.49,-78.69 1009,-56 992.92,-35.14 921.54,-22.02 876.24,-15.64"/>
<polygon fill="midnightblue" stroke="midnightblue" points="876.54,-12.15 866.16,-14.27 875.6,-19.09 876.54,-12.15"/>
</g>
<!-- Node20&#45;&gt;Node7 -->
<g id="edge43" class="edge">
<title>Node20&#45;&gt;Node7</title>
<path fill="none" stroke="midnightblue" d="M937.72,-117.82C911.76,-102.49 854.62,-70.84 802,-56 668.58,-18.38 502.21,-11.97 430.99,-11.05"/>
<polygon fill="midnightblue" stroke="midnightblue" points="430.82,-7.55 420.79,-10.94 430.75,-14.55 430.82,-7.55"/>
</g>
<!-- Node20&#45;&gt;Node8 -->
<g id="edge47" class="edge">
<title>Node20&#45;&gt;Node8</title>
<path fill="none" stroke="midnightblue" d="M916.04,-117.98C871.49,-107.42 795.54,-89.41 746.85,-77.87"/>
<polygon fill="midnightblue" stroke="midnightblue" points="747.43,-74.41 736.9,-75.51 745.82,-81.22 747.43,-74.41"/>
</g>
<!-- Node20&#45;&gt;Node10 -->
<g id="edge46" class="edge">
<title>Node20&#45;&gt;Node10</title>
<path fill="none" stroke="midnightblue" d="M952,-117.98C952,-109.58 952,-96.48 952,-85.66"/>
<polygon fill="midnightblue" stroke="midnightblue" points="955.5,-85.51 952,-75.51 948.5,-85.51 955.5,-85.51"/>
</g>
<!-- Node20&#45;&gt;Node14 -->
<g id="edge45" class="edge">
<title>Node20&#45;&gt;Node14</title>
<path fill="none" stroke="midnightblue" d="M915.62,-118C905.14,-115.78 893.66,-113.58 883,-112 836.56,-105.13 523.61,-79.72 407.9,-70.43"/>
<polygon fill="midnightblue" stroke="midnightblue" points="407.9,-66.92 397.65,-69.61 407.34,-73.89 407.9,-66.92"/>
</g>
<!-- Node21&#45;&gt;Node5 -->
<g id="edge49" class="edge">
<title>Node21&#45;&gt;Node5</title>
<path fill="none" stroke="midnightblue" d="M924.47,-184.87C901.99,-173.8 862.77,-154.49 836.6,-141.6"/>
<polygon fill="midnightblue" stroke="midnightblue" points="838.12,-138.44 827.6,-137.17 835.03,-144.72 838.12,-138.44"/>
</g>
<!-- Node22&#45;&gt;Node2 -->
<g id="edge51" class="edge">
<title>Node22&#45;&gt;Node2</title>
<path fill="none" stroke="midnightblue" d="M393.76,-430.82C373.1,-411.42 322.95,-364.33 296.68,-339.66"/>
<polygon fill="midnightblue" stroke="midnightblue" points="299.04,-337.08 289.35,-332.78 294.25,-342.18 299.04,-337.08"/>
</g>
<!-- Node22&#45;&gt;Node16 -->
<g id="edge53" class="edge">
<title>Node22&#45;&gt;Node16</title>
<path fill="none" stroke="midnightblue" d="M415.32,-430.98C429.12,-421.43 451.7,-405.81 468.23,-394.37"/>
<polygon fill="midnightblue" stroke="midnightblue" points="470.47,-397.08 476.7,-388.51 466.49,-391.32 470.47,-397.08"/>
</g>
<!-- Node22&#45;&gt;Node18 -->
<g id="edge52" class="edge">
<title>Node22&#45;&gt;Node18</title>
<path fill="none" stroke="midnightblue" d="M401.46,-430.96C396.57,-403.93 381.35,-319.74 374.45,-281.61"/>
<polygon fill="midnightblue" stroke="midnightblue" points="377.83,-280.59 372.6,-271.37 370.94,-281.83 377.83,-280.59"/>
</g>
<!-- Node22&#45;&gt;Node19 -->
<g id="edge54" class="edge">
<title>Node22&#45;&gt;Node19</title>
<path fill="none" stroke="midnightblue" d="M431.66,-430.94C461.1,-421.8 508.01,-406.29 547,-389 611.72,-360.3 621.71,-340.39 687,-313 727.06,-296.2 774.67,-282.23 808.43,-273.27"/>
<polygon fill="midnightblue" stroke="midnightblue" points="809.65,-276.57 818.44,-270.66 807.88,-269.8 809.65,-276.57"/>
</g>
<!-- Node22&#45;&gt;Node23 -->
<g id="edge55" class="edge">
<title>Node22&#45;&gt;Node23</title>
<path fill="none" stroke="midnightblue" d="M381.42,-431C342.69,-415.15 259.73,-378.54 199,-333 149.55,-295.92 101.99,-239.75 79.89,-212.09"/>
<polygon fill="midnightblue" stroke="midnightblue" points="82.58,-209.85 73.63,-204.17 77.08,-214.18 82.58,-209.85"/>
</g>
<!-- Node23&#45;&gt;Node6 -->
<g id="edge57" class="edge">
<title>Node23&#45;&gt;Node6</title>
<path fill="none" stroke="midnightblue" d="M76.49,-184.84C97.01,-166.22 145.18,-123.18 164,-112 222.68,-77.14 240.53,-71.49 307,-56 487.96,-13.84 711.8,-10.13 799.87,-10.49"/>
<polygon fill="midnightblue" stroke="midnightblue" points="799.9,-14 809.92,-10.56 799.94,-7 799.9,-14"/>
</g>
<!-- Node23&#45;&gt;Node7 -->
<g id="edge56" class="edge">
<title>Node23&#45;&gt;Node7</title>
<path fill="none" stroke="midnightblue" d="M71.57,-184.68C84.88,-159.94 126.24,-89.48 182,-56 238.5,-22.07 316.77,-13.47 361.31,-11.44"/>
<polygon fill="midnightblue" stroke="midnightblue" points="361.48,-14.94 371.34,-11.07 361.22,-7.94 361.48,-14.94"/>
</g>
<!-- Node23&#45;&gt;Node13 -->
<g id="edge59" class="edge">
<title>Node23&#45;&gt;Node13</title>
<path fill="none" stroke="midnightblue" d="M99,-184.87C142.16,-173.23 219.06,-152.49 266.58,-139.67"/>
<polygon fill="midnightblue" stroke="midnightblue" points="267.5,-143.05 276.25,-137.06 265.68,-136.29 267.5,-143.05"/>
</g>
<!-- Node23&#45;&gt;Node14 -->
<g id="edge58" class="edge">
<title>Node23&#45;&gt;Node14</title>
<path fill="none" stroke="midnightblue" d="M82.61,-184.92C111.52,-169.22 175.62,-135.34 232,-112 263.15,-99.1 299.47,-87 326.28,-78.61"/>
<polygon fill="midnightblue" stroke="midnightblue" points="327.54,-81.88 336.06,-75.58 325.47,-75.19 327.54,-81.88"/>
</g>
<!-- Node24&#45;&gt;Node3 -->
<g id="edge62" class="edge">
<title>Node24&#45;&gt;Node3</title>
<path fill="none" stroke="midnightblue" d="M777.68,-313.48C763.88,-303.93 741.3,-288.31 724.77,-276.87"/>
<polygon fill="midnightblue" stroke="midnightblue" points="726.51,-273.82 716.3,-271.01 722.53,-279.58 726.51,-273.82"/>
</g>
<!-- Node24&#45;&gt;Node4 -->
<g id="edge61" class="edge">
<title>Node24&#45;&gt;Node4</title>
<path fill="none" stroke="midnightblue" d="M789.41,-313.44C788.08,-298.73 783.87,-268.1 771,-246 764.46,-234.76 754.67,-224.43 745.29,-216.09"/>
<polygon fill="midnightblue" stroke="midnightblue" points="747.47,-213.36 737.58,-209.57 742.95,-218.7 747.47,-213.36"/>
</g>
<!-- Node24&#45;&gt;Node19 -->
<g id="edge63" class="edge">
<title>Node24&#45;&gt;Node19</title>
<path fill="none" stroke="midnightblue" d="M798.88,-313.48C808.46,-304.28 823.91,-289.46 835.69,-278.16"/>
<polygon fill="midnightblue" stroke="midnightblue" points="838.34,-280.46 843.13,-271.01 833.49,-275.41 838.34,-280.46"/>
</g>
<!-- Node25 -->
<g id="node25" class="node">
<title>Node25</title>
<g id="a_node25"><a xlink:href="zwave__command__class__version__types_8h.html" target="_top" xlink:title=" ">
<polygon fill="none" stroke="black" points="1018,-246.5 1018,-276.5 1140,-276.5 1140,-246.5 1018,-246.5"/>
<text text-anchor="start" x="1026" y="-264.5" font-family="Helvetica,sans-Serif" font-size="10.00">zwave_command_class</text>
<text text-anchor="middle" x="1079" y="-253.5" font-family="Helvetica,sans-Serif" font-size="10.00">_version_types.h</text>
</a>
</g>
</g>
<!-- Node24&#45;&gt;Node25 -->
<g id="edge64" class="edge">
<title>Node24&#45;&gt;Node25</title>
<path fill="none" stroke="midnightblue" d="M831.41,-313.48C877.32,-304.02 952.22,-288.6 1007.63,-277.19"/>
<polygon fill="midnightblue" stroke="midnightblue" points="1008.65,-280.56 1017.74,-275.11 1007.24,-273.7 1008.65,-280.56"/>
</g>
<!-- Node24&#45;&gt;Node26 -->
<g id="edge65" class="edge">
<title>Node24&#45;&gt;Node26</title>
<path fill="none" stroke="midnightblue" d="M851.02,-314.56C951.6,-302.27 1141.86,-278.89 1149,-277 1151.45,-276.35 1153.95,-275.57 1156.44,-274.71"/>
<polygon fill="midnightblue" stroke="midnightblue" points="1157.71,-277.97 1165.79,-271.12 1155.2,-271.44 1157.71,-277.97"/>
</g>
</g>
</svg>
