<?xml version="1.0" encoding="UTF-8" standalone="no"?>
<!DOCTYPE svg PUBLIC "-//W3C//DTD SVG 1.1//EN"
 "http://www.w3.org/Graphics/SVG/1.1/DTD/svg11.dtd">
<!-- Generated by graphviz version 2.43.0 (0)
 -->
<!-- Title: applications/zpc/components/zwave_command_classes/src/zwave_command_class_supervision_internals.h Pages: 1 -->
<svg width="251pt" height="228pt"
 viewBox="0.00 0.00 250.50 228.00" xmlns="http://www.w3.org/2000/svg" xmlns:xlink="http://www.w3.org/1999/xlink">
<g id="graph0" class="graph" transform="scale(1 1) rotate(0) translate(4 224)">
<title>applications/zpc/components/zwave_command_classes/src/zwave_command_class_supervision_internals.h</title>
<!-- Node1 -->
<g id="node1" class="node">
<title>Node1</title>
<g id="a_node1"><a xlink:title=" ">
<polygon fill="#bfbfbf" stroke="black" points="4.5,-167.5 4.5,-219.5 183.5,-219.5 183.5,-167.5 4.5,-167.5"/>
<text text-anchor="start" x="12.5" y="-207.5" font-family="Helvetica,sans-Serif" font-size="10.00">applications/zpc/components</text>
<text text-anchor="start" x="12.5" y="-196.5" font-family="Helvetica,sans-Serif" font-size="10.00">/zwave_command_classes/src</text>
<text text-anchor="start" x="12.5" y="-185.5" font-family="Helvetica,sans-Serif" font-size="10.00">/zwave_command_class_supervision</text>
<text text-anchor="middle" x="94" y="-174.5" font-family="Helvetica,sans-Serif" font-size="10.00">_internals.h</text>
</a>
</g>
</g>
<!-- Node2 -->
<g id="node2" class="node">
<title>Node2</title>
<g id="a_node2"><a xlink:href="zwave__command__class__supervision_8c.html" target="_top" xlink:title=" ">
<polygon fill="none" stroke="black" points="0,-0.5 0,-41.5 188,-41.5 188,-0.5 0,-0.5"/>
<text text-anchor="start" x="8" y="-29.5" font-family="Helvetica,sans-Serif" font-size="10.00">applications/zpc/components</text>
<text text-anchor="start" x="8" y="-18.5" font-family="Helvetica,sans-Serif" font-size="10.00">/zwave_command_classes/src</text>
<text text-anchor="middle" x="94" y="-7.5" font-family="Helvetica,sans-Serif" font-size="10.00">/zwave_command_class_supervision.c</text>
</a>
</g>
</g>
<!-- Node1&#45;&gt;Node2 -->
<g id="edge1" class="edge">
<title>Node1&#45;&gt;Node2</title>
<path fill="none" stroke="midnightblue" d="M67.11,-158.68C61.72,-150.12 56.85,-140.61 54,-131 47.3,-108.42 46.81,-100.43 54,-78 58.3,-64.57 67.14,-51.63 75.41,-41.57"/>
<polygon fill="midnightblue" stroke="midnightblue" points="64.37,-160.88 72.85,-167.23 70.18,-156.98 64.37,-160.88"/>
</g>
<!-- Node3 -->
<g id="node3" class="node">
<title>Node3</title>
<g id="a_node3"><a xlink:href="zwave__command__class__supervision__process_8h.html" target="_top" xlink:title=" ">
<polygon fill="none" stroke="black" points="63.5,-78.5 63.5,-130.5 242.5,-130.5 242.5,-78.5 63.5,-78.5"/>
<text text-anchor="start" x="71.5" y="-118.5" font-family="Helvetica,sans-Serif" font-size="10.00">applications/zpc/components</text>
<text text-anchor="start" x="71.5" y="-107.5" font-family="Helvetica,sans-Serif" font-size="10.00">/zwave_command_classes/src</text>
<text text-anchor="start" x="71.5" y="-96.5" font-family="Helvetica,sans-Serif" font-size="10.00">/zwave_command_class_supervision</text>
<text text-anchor="middle" x="153" y="-85.5" font-family="Helvetica,sans-Serif" font-size="10.00">_process.h</text>
</a>
</g>
</g>
<!-- Node1&#45;&gt;Node3 -->
<g id="edge2" class="edge">
<title>Node1&#45;&gt;Node3</title>
<path fill="none" stroke="midnightblue" d="M116.77,-158.93C123.15,-149.51 129.98,-139.44 135.97,-130.61"/>
<polygon fill="midnightblue" stroke="midnightblue" points="113.78,-157.1 111.07,-167.34 119.57,-161.02 113.78,-157.1"/>
</g>
<!-- Node3&#45;&gt;Node2 -->
<g id="edge3" class="edge">
<title>Node3&#45;&gt;Node2</title>
<path fill="none" stroke="midnightblue" d="M128.68,-69.9C121.71,-60.28 114.35,-50.11 108.21,-41.63"/>
<polygon fill="midnightblue" stroke="midnightblue" points="125.96,-72.11 134.66,-78.16 131.63,-68.01 125.96,-72.11"/>
</g>
</g>
</svg>
