<?xml version="1.0" encoding="UTF-8" standalone="no"?>
<!DOCTYPE svg PUBLIC "-//W3C//DTD SVG 1.1//EN"
 "http://www.w3.org/Graphics/SVG/1.1/DTD/svg11.dtd">
<!-- Generated by graphviz version 2.43.0 (0)
 -->
<!-- Title: configure_wake_up_interval Pages: 1 -->
<svg width="647pt" height="52pt"
 viewBox="0.00 0.00 647.00 51.50" xmlns="http://www.w3.org/2000/svg" xmlns:xlink="http://www.w3.org/1999/xlink">
<g id="graph0" class="graph" transform="scale(1 1) rotate(0) translate(4 47.5)">
<title>configure_wake_up_interval</title>
<!-- Node1 -->
<g id="node1" class="node">
<title>Node1</title>
<g id="a_node1"><a xlink:title="Configures the Wake Up Interval setting for a node.">
<polygon fill="#bfbfbf" stroke="black" points="502,-6 502,-25 639,-25 639,-6 502,-6"/>
<text text-anchor="middle" x="570.5" y="-13" font-family="Helvetica,sans-Serif" font-size="10.00">configure_wake_up_interval</text>
</a>
</g>
</g>
<!-- Node1&#45;&gt;Node1 -->
<g id="edge1" class="edge">
<title>Node1&#45;&gt;Node1</title>
<path fill="none" stroke="midnightblue" d="M601.19,-33.77C600.31,-39.24 590.08,-43.5 570.5,-43.5 541.35,-43.5 532.93,-34.07 545.22,-25.26"/>
<polygon fill="midnightblue" stroke="midnightblue" points="604.09,-31.82 595.78,-25.26 598.19,-35.57 604.09,-31.82"/>
</g>
<!-- Node2 -->
<g id="node2" class="node">
<title>Node2</title>
<g id="a_node2"><a xlink:href="zwave__command__class__wake__up_8c.html#af927fc2e0ebd3d6502c5167a6e8c6e27" target="_top" xlink:title="Verifies if we are resolving capabilities, and if yes, set a resolutio listener to set the Wake Up In...">
<polygon fill="none" stroke="black" points="344,-0.5 344,-30.5 466,-30.5 466,-0.5 344,-0.5"/>
<text text-anchor="start" x="352" y="-18.5" font-family="Helvetica,sans-Serif" font-size="10.00">on_capabilities_attribute</text>
<text text-anchor="middle" x="405" y="-7.5" font-family="Helvetica,sans-Serif" font-size="10.00">_update</text>
</a>
</g>
</g>
<!-- Node1&#45;&gt;Node2 -->
<g id="edge2" class="edge">
<title>Node1&#45;&gt;Node2</title>
<path fill="none" stroke="midnightblue" d="M491.31,-15.5C482.85,-15.5 474.34,-15.5 466.14,-15.5"/>
<polygon fill="midnightblue" stroke="midnightblue" points="491.58,-19 501.58,-15.5 491.58,-12 491.58,-19"/>
</g>
<!-- Node3 -->
<g id="node3" class="node">
<title>Node3</title>
<g id="a_node3"><a xlink:href="group__zwave__command__class__wake__up.html#ga11866ec0935bee3fba386bc3ed28e0b6" target="_top" xlink:title="Initializes the Wake Up Command Class handler.">
<polygon fill="none" stroke="black" points="186,-0.5 186,-30.5 308,-30.5 308,-0.5 186,-0.5"/>
<text text-anchor="start" x="194" y="-18.5" font-family="Helvetica,sans-Serif" font-size="10.00">zwave_command_class</text>
<text text-anchor="middle" x="247" y="-7.5" font-family="Helvetica,sans-Serif" font-size="10.00">_wake_up_init</text>
</a>
</g>
</g>
<!-- Node2&#45;&gt;Node3 -->
<g id="edge3" class="edge">
<title>Node2&#45;&gt;Node3</title>
<path fill="none" stroke="midnightblue" d="M333.46,-15.5C325.01,-15.5 316.44,-15.5 308.15,-15.5"/>
<polygon fill="midnightblue" stroke="midnightblue" points="333.69,-19 343.69,-15.5 333.69,-12 333.69,-19"/>
</g>
<!-- Node4 -->
<g id="node4" class="node">
<title>Node4</title>
<g id="a_node4"><a xlink:href="group__command__classes__fixt.html#ga5272651939ced1723158340039e8da19" target="_top" xlink:title="Setup fixture for Z&#45;Wave Command Classes.">
<polygon fill="none" stroke="black" points="0,-6 0,-25 150,-25 150,-6 0,-6"/>
<text text-anchor="middle" x="75" y="-13" font-family="Helvetica,sans-Serif" font-size="10.00">zwave_command_classes_init</text>
</a>
</g>
</g>
<!-- Node3&#45;&gt;Node4 -->
<g id="edge4" class="edge">
<title>Node3&#45;&gt;Node4</title>
<path fill="none" stroke="midnightblue" d="M175.51,-15.5C167.16,-15.5 158.61,-15.5 150.21,-15.5"/>
<polygon fill="midnightblue" stroke="midnightblue" points="175.59,-19 185.59,-15.5 175.59,-12 175.59,-19"/>
</g>
</g>
</svg>
