<?xml version="1.0" encoding="UTF-8" standalone="no"?>
<!DOCTYPE svg PUBLIC "-//W3C//DTD SVG 1.1//EN"
 "http://www.w3.org/Graphics/SVG/1.1/DTD/svg11.dtd">
<!-- Generated by graphviz version 2.43.0 (0)
 -->
<!-- Title: get_rx_session_by_nodes Pages: 1 -->
<svg width="938pt" height="39pt"
 viewBox="0.00 0.00 938.00 39.00" xmlns="http://www.w3.org/2000/svg" xmlns:xlink="http://www.w3.org/1999/xlink">
<g id="graph0" class="graph" transform="scale(1 1) rotate(0) translate(4 35)">
<title>get_rx_session_by_nodes</title>
<!-- Node1 -->
<g id="node1" class="node">
<title>Node1</title>
<g id="a_node1"><a xlink:title=" ">
<polygon fill="#bfbfbf" stroke="black" points="800,-6 800,-25 930,-25 930,-6 800,-6"/>
<text text-anchor="middle" x="865" y="-13" font-family="Helvetica,sans-Serif" font-size="10.00">get_rx_session_by_nodes</text>
</a>
</g>
</g>
<!-- Node2 -->
<g id="node2" class="node">
<title>Node2</title>
<g id="a_node2"><a xlink:href="zwave__s0__transport_8c.html#a764e435a218a773ffc2d08378a3bcc04" target="_top" xlink:title=" ">
<polygon fill="none" stroke="black" points="654,-6 654,-25 764,-25 764,-6 654,-6"/>
<text text-anchor="middle" x="709" y="-13" font-family="Helvetica,sans-Serif" font-size="10.00">s0_decrypt_message</text>
</a>
</g>
</g>
<!-- Node1&#45;&gt;Node2 -->
<g id="edge1" class="edge">
<title>Node1&#45;&gt;Node2</title>
<path fill="none" stroke="midnightblue" d="M789.36,-15.5C780.94,-15.5 772.49,-15.5 764.4,-15.5"/>
<polygon fill="midnightblue" stroke="midnightblue" points="789.58,-19 799.58,-15.5 789.58,-12 789.58,-19"/>
</g>
<!-- Node3 -->
<g id="node3" class="node">
<title>Node3</title>
<g id="a_node3"><a xlink:href="zwave__s0__transport_8c.html#a03d95837da2b91dfbf98786f7e753fe4" target="_top" xlink:title=" ">
<polygon fill="none" stroke="black" points="491,-0.5 491,-30.5 618,-30.5 618,-0.5 491,-0.5"/>
<text text-anchor="start" x="499" y="-18.5" font-family="Helvetica,sans-Serif" font-size="10.00">s0_application_command</text>
<text text-anchor="middle" x="554.5" y="-7.5" font-family="Helvetica,sans-Serif" font-size="10.00">_handler</text>
</a>
</g>
</g>
<!-- Node2&#45;&gt;Node3 -->
<g id="edge2" class="edge">
<title>Node2&#45;&gt;Node3</title>
<path fill="none" stroke="midnightblue" d="M643.63,-15.5C635.18,-15.5 626.53,-15.5 618.11,-15.5"/>
<polygon fill="midnightblue" stroke="midnightblue" points="643.8,-19 653.8,-15.5 643.8,-12 643.8,-19"/>
</g>
<!-- Node4 -->
<g id="node4" class="node">
<title>Node4</title>
<g id="a_node4"><a xlink:href="group__zwave__s0__transport.html#ga075cd6959f4f2b9cbd757c5d43f97820" target="_top" xlink:title="Entry point of S0 frames received from the PHY/radio stack.">
<polygon fill="none" stroke="black" points="306,-6 306,-25 455,-25 455,-6 306,-6"/>
<text text-anchor="middle" x="380.5" y="-13" font-family="Helvetica,sans-Serif" font-size="10.00">zwave_s0_on_frame_received</text>
</a>
</g>
</g>
<!-- Node3&#45;&gt;Node4 -->
<g id="edge3" class="edge">
<title>Node3&#45;&gt;Node4</title>
<path fill="none" stroke="midnightblue" d="M480.71,-15.5C472.25,-15.5 463.61,-15.5 455.14,-15.5"/>
<polygon fill="midnightblue" stroke="midnightblue" points="480.92,-19 490.92,-15.5 480.92,-12 480.92,-19"/>
</g>
<!-- Node5 -->
<g id="node5" class="node">
<title>Node5</title>
<g id="a_node5"><a xlink:href="group__zwave__s0__transport.html#ga7fcd7083b5fe3b6b2838d0d64f815f53" target="_top" xlink:title="Initialize the S0 Transport Also calls zwave_s0_network_init() which aborts all tx sessions and frees...">
<polygon fill="none" stroke="black" points="148,-6 148,-25 270,-25 270,-6 148,-6"/>
<text text-anchor="middle" x="209" y="-13" font-family="Helvetica,sans-Serif" font-size="10.00">zwave_s0_transport_init</text>
</a>
</g>
</g>
<!-- Node4&#45;&gt;Node5 -->
<g id="edge4" class="edge">
<title>Node4&#45;&gt;Node5</title>
<path fill="none" stroke="midnightblue" d="M295.59,-15.5C287,-15.5 278.4,-15.5 270.13,-15.5"/>
<polygon fill="midnightblue" stroke="midnightblue" points="295.65,-19 305.65,-15.5 295.65,-12 295.65,-19"/>
</g>
<!-- Node6 -->
<g id="node6" class="node">
<title>Node6</title>
<g id="a_node6"><a xlink:href="group__zwave__transports__fixt.html#ga26fb2571e272a5094bd0320eca3a896d" target="_top" xlink:title="Setup fixture for Z&#45;Wave Transports.">
<polygon fill="none" stroke="black" points="0,-6 0,-25 112,-25 112,-6 0,-6"/>
<text text-anchor="middle" x="56" y="-13" font-family="Helvetica,sans-Serif" font-size="10.00">zwave_transports_init</text>
</a>
</g>
</g>
<!-- Node5&#45;&gt;Node6 -->
<g id="edge5" class="edge">
<title>Node5&#45;&gt;Node6</title>
<path fill="none" stroke="midnightblue" d="M137.8,-15.5C129.14,-15.5 120.39,-15.5 112.01,-15.5"/>
<polygon fill="midnightblue" stroke="midnightblue" points="137.89,-19 147.89,-15.5 137.89,-12 137.89,-19"/>
</g>
</g>
</svg>
