<?xml version="1.0" encoding="UTF-8" standalone="no"?>
<!DOCTYPE svg PUBLIC "-//W3C//DTD SVG 1.1//EN"
 "http://www.w3.org/Graphics/SVG/1.1/DTD/svg11.dtd">
<!-- Generated by graphviz version 2.43.0 (0)
 -->
<!-- Title: applications/zpc/components/zwave/zwave_network_management/src/zwave_network_management_callbacks.c Pages: 1 -->
<svg width="1238pt" height="553pt"
 viewBox="0.00 0.00 1237.93 553.00" xmlns="http://www.w3.org/2000/svg" xmlns:xlink="http://www.w3.org/1999/xlink">
<g id="graph0" class="graph" transform="scale(1 1) rotate(0) translate(4 549)">
<title>applications/zpc/components/zwave/zwave_network_management/src/zwave_network_management_callbacks.c</title>
<!-- Node1 -->
<g id="node1" class="node">
<title>Node1</title>
<g id="a_node1"><a xlink:title=" ">
<polygon fill="#bfbfbf" stroke="black" points="641.5,-492.5 641.5,-544.5 822.5,-544.5 822.5,-492.5 641.5,-492.5"/>
<text text-anchor="start" x="649.5" y="-532.5" font-family="Helvetica,sans-Serif" font-size="10.00">applications/zpc/components</text>
<text text-anchor="start" x="649.5" y="-521.5" font-family="Helvetica,sans-Serif" font-size="10.00">/zwave/zwave_network_management</text>
<text text-anchor="start" x="649.5" y="-510.5" font-family="Helvetica,sans-Serif" font-size="10.00">/src/zwave_network_management</text>
<text text-anchor="middle" x="732" y="-499.5" font-family="Helvetica,sans-Serif" font-size="10.00">_callbacks.c</text>
</a>
</g>
</g>
<!-- Node2 -->
<g id="node2" class="node">
<title>Node2</title>
<g id="a_node2"><a xlink:href="zwave__network__management__callbacks_8h.html" target="_top" xlink:title=" ">
<polygon fill="none" stroke="black" points="808,-425.5 808,-455.5 954,-455.5 954,-425.5 808,-425.5"/>
<text text-anchor="start" x="816" y="-443.5" font-family="Helvetica,sans-Serif" font-size="10.00">zwave_network_management</text>
<text text-anchor="middle" x="881" y="-432.5" font-family="Helvetica,sans-Serif" font-size="10.00">_callbacks.h</text>
</a>
</g>
</g>
<!-- Node1&#45;&gt;Node2 -->
<g id="edge1" class="edge">
<title>Node1&#45;&gt;Node2</title>
<path fill="none" stroke="midnightblue" d="M781.2,-492.4C801.74,-481.93 825.2,-469.96 844.21,-460.27"/>
<polygon fill="midnightblue" stroke="midnightblue" points="845.83,-463.37 853.15,-455.71 842.65,-457.13 845.83,-463.37"/>
</g>
<!-- Node9 -->
<g id="node9" class="node">
<title>Node9</title>
<g id="a_node9"><a xlink:href="zwave__network__management__process_8h.html" target="_top" xlink:title="Interface to zwave_network_management_process.">
<polygon fill="none" stroke="black" points="264,-302.5 264,-332.5 410,-332.5 410,-302.5 264,-302.5"/>
<text text-anchor="start" x="272" y="-320.5" font-family="Helvetica,sans-Serif" font-size="10.00">zwave_network_management</text>
<text text-anchor="middle" x="337" y="-309.5" font-family="Helvetica,sans-Serif" font-size="10.00">_process.h</text>
</a>
</g>
</g>
<!-- Node1&#45;&gt;Node9 -->
<g id="edge13" class="edge">
<title>Node1&#45;&gt;Node9</title>
<path fill="none" stroke="midnightblue" d="M655.37,-492.45C591.23,-469.88 498.5,-433.47 424,-389 400.33,-374.87 376.19,-354.76 359.36,-339.64"/>
<polygon fill="midnightblue" stroke="midnightblue" points="361.47,-336.82 351.72,-332.66 356.75,-341.99 361.47,-336.82"/>
</g>
<!-- Node11 -->
<g id="node11" class="node">
<title>Node11</title>
<g id="a_node11"><a xlink:href="zwave__network__management__helpers_8h.html" target="_top" xlink:title=" ">
<polygon fill="none" stroke="black" points="0,-168.5 0,-198.5 146,-198.5 146,-168.5 0,-168.5"/>
<text text-anchor="start" x="8" y="-186.5" font-family="Helvetica,sans-Serif" font-size="10.00">zwave_network_management</text>
<text text-anchor="middle" x="73" y="-175.5" font-family="Helvetica,sans-Serif" font-size="10.00">_helpers.h</text>
</a>
</g>
</g>
<!-- Node1&#45;&gt;Node11 -->
<g id="edge15" class="edge">
<title>Node1&#45;&gt;Node11</title>
<path fill="none" stroke="midnightblue" d="M641.35,-517.87C456.22,-516.18 52,-498.86 52,-380 52,-380 52,-380 52,-316.5 52,-278.36 60.66,-234.79 66.85,-208.47"/>
<polygon fill="midnightblue" stroke="midnightblue" points="70.28,-209.19 69.25,-198.64 63.48,-207.53 70.28,-209.19"/>
</g>
<!-- Node15 -->
<g id="node15" class="node">
<title>Node15</title>
<g id="a_node15"><a xlink:href="nm__state__machine_8h.html" target="_top" xlink:title=" ">
<polygon fill="none" stroke="black" points="1020.5,-369.5 1020.5,-388.5 1127.5,-388.5 1127.5,-369.5 1020.5,-369.5"/>
<text text-anchor="middle" x="1074" y="-376.5" font-family="Helvetica,sans-Serif" font-size="10.00">nm_state_machine.h</text>
</a>
</g>
</g>
<!-- Node1&#45;&gt;Node15 -->
<g id="edge25" class="edge">
<title>Node1&#45;&gt;Node15</title>
<path fill="none" stroke="midnightblue" d="M743.27,-492.37C754.29,-470.86 773.18,-440.94 799,-425 807.95,-419.47 931.69,-400.68 1010.11,-389.2"/>
<polygon fill="midnightblue" stroke="midnightblue" points="1010.99,-392.61 1020.38,-387.7 1009.98,-385.69 1010.99,-392.61"/>
</g>
<!-- Node22 -->
<g id="node22" class="node">
<title>Node22</title>
<g id="a_node22"><a xlink:href="zwave__controller__internal_8h.html" target="_top" xlink:title=" ">
<polygon fill="none" stroke="black" points="616.5,-431 616.5,-450 751.5,-450 751.5,-431 616.5,-431"/>
<text text-anchor="middle" x="684" y="-438" font-family="Helvetica,sans-Serif" font-size="10.00">zwave_controller_internal.h</text>
</a>
</g>
</g>
<!-- Node1&#45;&gt;Node22 -->
<g id="edge45" class="edge">
<title>Node1&#45;&gt;Node22</title>
<path fill="none" stroke="midnightblue" d="M716.02,-492.19C709.07,-481.2 701.12,-468.6 694.87,-458.72"/>
<polygon fill="midnightblue" stroke="midnightblue" points="697.8,-456.79 689.5,-450.21 691.88,-460.53 697.8,-456.79"/>
</g>
<!-- Node29 -->
<g id="node29" class="node">
<title>Node29</title>
<g id="a_node29"><a xlink:title=" ">
<polygon fill="none" stroke="#bfbfbf" points="972,-431 972,-450 1022,-450 1022,-431 972,-431"/>
<text text-anchor="middle" x="997" y="-438" font-family="Helvetica,sans-Serif" font-size="10.00">sl_log.h</text>
</a>
</g>
</g>
<!-- Node1&#45;&gt;Node29 -->
<g id="edge70" class="edge">
<title>Node1&#45;&gt;Node29</title>
<path fill="none" stroke="midnightblue" d="M822.58,-496.57C865.56,-485.83 917.38,-471.71 963,-456 964.87,-455.36 966.77,-454.66 968.69,-453.93"/>
<polygon fill="midnightblue" stroke="midnightblue" points="970.17,-457.11 978.13,-450.12 967.54,-450.62 970.17,-457.11"/>
</g>
<!-- Node3 -->
<g id="node3" class="node">
<title>Node3</title>
<g id="a_node3"><a xlink:href="zwapi__protocol__controller_8h.html" target="_top" xlink:title="Z&#45;Wave API for Z&#45;Wave controllers (network setup and maintenance)">
<polygon fill="none" stroke="black" points="1084,-174 1084,-193 1218,-193 1218,-174 1084,-174"/>
<text text-anchor="middle" x="1151" y="-181" font-family="Helvetica,sans-Serif" font-size="10.00">zwapi_protocol_controller.h</text>
</a>
</g>
</g>
<!-- Node2&#45;&gt;Node3 -->
<g id="edge2" class="edge">
<title>Node2&#45;&gt;Node3</title>
<path fill="none" stroke="midnightblue" d="M954.17,-426.12C1028.69,-412.33 1133.8,-392.39 1137,-389 1185.46,-337.68 1167.23,-243.12 1156.56,-203.13"/>
<polygon fill="midnightblue" stroke="midnightblue" points="1159.9,-202.06 1153.82,-193.38 1153.16,-203.96 1159.9,-202.06"/>
</g>
<!-- Node4 -->
<g id="node4" class="node">
<title>Node4</title>
<g id="a_node4"><a xlink:title=" ">
<polygon fill="none" stroke="#bfbfbf" points="764.5,-0.5 764.5,-19.5 813.5,-19.5 813.5,-0.5 764.5,-0.5"/>
<text text-anchor="middle" x="789" y="-7.5" font-family="Helvetica,sans-Serif" font-size="10.00">stdint.h</text>
</a>
</g>
</g>
<!-- Node3&#45;&gt;Node4 -->
<g id="edge3" class="edge">
<title>Node3&#45;&gt;Node4</title>
<path fill="none" stroke="midnightblue" d="M1160.09,-173.84C1169.16,-164.51 1182.53,-148.73 1188,-132 1198.5,-99.9 1210.51,-81.19 1188,-56 1163.9,-29.03 916.65,-16.21 823.9,-12.33"/>
<polygon fill="midnightblue" stroke="midnightblue" points="823.77,-8.82 813.63,-11.91 823.48,-15.81 823.77,-8.82"/>
</g>
<!-- Node5 -->
<g id="node5" class="node">
<title>Node5</title>
<g id="a_node5"><a xlink:title=" ">
<polygon fill="none" stroke="#bfbfbf" points="552,-0.5 552,-19.5 608,-19.5 608,-0.5 552,-0.5"/>
<text text-anchor="middle" x="580" y="-7.5" font-family="Helvetica,sans-Serif" font-size="10.00">stdbool.h</text>
</a>
</g>
</g>
<!-- Node3&#45;&gt;Node5 -->
<g id="edge4" class="edge">
<title>Node3&#45;&gt;Node5</title>
<path fill="none" stroke="midnightblue" d="M1154.07,-173.99C1161.63,-151.31 1178.39,-88.92 1147,-56 1137.85,-46.41 745.09,-21.24 618.72,-13.38"/>
<polygon fill="midnightblue" stroke="midnightblue" points="618.57,-9.87 608.37,-12.74 618.13,-16.85 618.57,-9.87"/>
</g>
<!-- Node6 -->
<g id="node6" class="node">
<title>Node6</title>
<g id="a_node6"><a xlink:href="sl__status_8h.html" target="_top" xlink:title="SL Status Codes.">
<polygon fill="none" stroke="black" points="1072.5,-56.5 1072.5,-75.5 1137.5,-75.5 1137.5,-56.5 1072.5,-56.5"/>
<text text-anchor="middle" x="1105" y="-63.5" font-family="Helvetica,sans-Serif" font-size="10.00">sl_status.h</text>
</a>
</g>
</g>
<!-- Node3&#45;&gt;Node6 -->
<g id="edge5" class="edge">
<title>Node3&#45;&gt;Node6</title>
<path fill="none" stroke="midnightblue" d="M1147.54,-173.82C1140.08,-155.09 1122.34,-110.55 1112.29,-85.29"/>
<polygon fill="midnightblue" stroke="midnightblue" points="1115.45,-83.78 1108.5,-75.78 1108.95,-86.37 1115.45,-83.78"/>
</g>
<!-- Node7 -->
<g id="node7" class="node">
<title>Node7</title>
<g id="a_node7"><a xlink:href="zwapi__protocol__transport_8h.html" target="_top" xlink:title="Z&#45;Wave API for transport application layer interface.">
<polygon fill="none" stroke="black" points="898,-112.5 898,-131.5 1032,-131.5 1032,-112.5 898,-112.5"/>
<text text-anchor="middle" x="965" y="-119.5" font-family="Helvetica,sans-Serif" font-size="10.00">zwapi_protocol_transport.h</text>
</a>
</g>
</g>
<!-- Node3&#45;&gt;Node7 -->
<g id="edge7" class="edge">
<title>Node3&#45;&gt;Node7</title>
<path fill="none" stroke="midnightblue" d="M1124.35,-173.98C1092.03,-163.64 1037.4,-146.16 1001.27,-134.6"/>
<polygon fill="midnightblue" stroke="midnightblue" points="1002.19,-131.22 991.6,-131.51 1000.06,-137.89 1002.19,-131.22"/>
</g>
<!-- Node6&#45;&gt;Node4 -->
<g id="edge6" class="edge">
<title>Node6&#45;&gt;Node4</title>
<path fill="none" stroke="midnightblue" d="M1072.4,-58.66C1067.58,-57.75 1062.66,-56.84 1058,-56 973.85,-40.91 874.58,-24.72 823.39,-16.49"/>
<polygon fill="midnightblue" stroke="midnightblue" points="823.94,-13.03 813.51,-14.9 822.83,-19.94 823.94,-13.03"/>
</g>
<!-- Node7&#45;&gt;Node4 -->
<g id="edge8" class="edge">
<title>Node7&#45;&gt;Node4</title>
<path fill="none" stroke="midnightblue" d="M981.5,-112.44C1003.23,-100.06 1036.83,-76.42 1020,-56 995.54,-26.32 882.11,-15.95 823.81,-12.55"/>
<polygon fill="midnightblue" stroke="midnightblue" points="823.77,-9.04 813.6,-11.99 823.39,-16.03 823.77,-9.04"/>
</g>
<!-- Node7&#45;&gt;Node5 -->
<g id="edge9" class="edge">
<title>Node7&#45;&gt;Node5</title>
<path fill="none" stroke="midnightblue" d="M972.71,-112.34C983.86,-98.76 1001.62,-72.33 987,-56 974.76,-42.33 717.5,-21.44 618.43,-13.87"/>
<polygon fill="midnightblue" stroke="midnightblue" points="618.48,-10.36 608.25,-13.09 617.95,-17.34 618.48,-10.36"/>
</g>
<!-- Node7&#45;&gt;Node6 -->
<g id="edge10" class="edge">
<title>Node7&#45;&gt;Node6</title>
<path fill="none" stroke="midnightblue" d="M987.18,-112.44C1010.43,-103.48 1047.15,-89.31 1073.42,-79.18"/>
<polygon fill="midnightblue" stroke="midnightblue" points="1074.85,-82.38 1082.92,-75.52 1072.33,-75.85 1074.85,-82.38"/>
</g>
<!-- Node8 -->
<g id="node8" class="node">
<title>Node8</title>
<g id="a_node8"><a xlink:href="zwave__node__id__definitions_8h.html" target="_top" xlink:title=" ">
<polygon fill="none" stroke="black" points="836,-56.5 836,-75.5 978,-75.5 978,-56.5 836,-56.5"/>
<text text-anchor="middle" x="907" y="-63.5" font-family="Helvetica,sans-Serif" font-size="10.00">zwave_node_id_definitions.h</text>
</a>
</g>
</g>
<!-- Node7&#45;&gt;Node8 -->
<g id="edge11" class="edge">
<title>Node7&#45;&gt;Node8</title>
<path fill="none" stroke="midnightblue" d="M955.68,-112.32C947.11,-104.34 934.19,-92.31 923.81,-82.65"/>
<polygon fill="midnightblue" stroke="midnightblue" points="926.19,-80.09 916.49,-75.83 921.42,-85.21 926.19,-80.09"/>
</g>
<!-- Node8&#45;&gt;Node4 -->
<g id="edge12" class="edge">
<title>Node8&#45;&gt;Node4</title>
<path fill="none" stroke="midnightblue" d="M888.3,-56.44C869.06,-47.64 838.85,-33.81 816.8,-23.72"/>
<polygon fill="midnightblue" stroke="midnightblue" points="818.16,-20.5 807.61,-19.52 815.25,-26.86 818.16,-20.5"/>
</g>
<!-- Node10 -->
<g id="node10" class="node">
<title>Node10</title>
<g id="a_node10"><a xlink:title=" ">
<polygon fill="none" stroke="#bfbfbf" points="80.5,-241 80.5,-260 139.5,-260 139.5,-241 80.5,-241"/>
<text text-anchor="middle" x="110" y="-248" font-family="Helvetica,sans-Serif" font-size="10.00">process.h</text>
</a>
</g>
</g>
<!-- Node9&#45;&gt;Node10 -->
<g id="edge14" class="edge">
<title>Node9&#45;&gt;Node10</title>
<path fill="none" stroke="midnightblue" d="M283.55,-302.49C246.95,-292.72 197.38,-279.12 154,-266 151.09,-265.12 148.08,-264.18 145.07,-263.23"/>
<polygon fill="midnightblue" stroke="midnightblue" points="146.12,-259.89 135.53,-260.15 143.97,-266.55 146.12,-259.89"/>
</g>
<!-- Node11&#45;&gt;Node5 -->
<g id="edge16" class="edge">
<title>Node11&#45;&gt;Node5</title>
<path fill="none" stroke="midnightblue" d="M85.96,-168.11C111.36,-140.98 170.75,-82.57 234,-56 288.87,-32.95 463.37,-18.77 541.52,-13.43"/>
<polygon fill="midnightblue" stroke="midnightblue" points="542.14,-16.89 551.88,-12.73 541.67,-9.91 542.14,-16.89"/>
</g>
<!-- Node12 -->
<g id="node12" class="node">
<title>Node12</title>
<g id="a_node12"><a xlink:href="zwave__controller__types_8h.html" target="_top" xlink:title=" ">
<polygon fill="none" stroke="black" points="440,-112.5 440,-131.5 568,-131.5 568,-112.5 440,-112.5"/>
<text text-anchor="middle" x="504" y="-119.5" font-family="Helvetica,sans-Serif" font-size="10.00">zwave_controller_types.h</text>
</a>
</g>
</g>
<!-- Node11&#45;&gt;Node12 -->
<g id="edge17" class="edge">
<title>Node11&#45;&gt;Node12</title>
<path fill="none" stroke="midnightblue" d="M146.29,-169.37C149.23,-168.89 152.14,-168.44 155,-168 249.54,-153.55 358.97,-139.95 429.72,-131.56"/>
<polygon fill="midnightblue" stroke="midnightblue" points="430.35,-135.01 439.87,-130.36 429.53,-128.05 430.35,-135.01"/>
</g>
<!-- Node12&#45;&gt;Node4 -->
<g id="edge19" class="edge">
<title>Node12&#45;&gt;Node4</title>
<path fill="none" stroke="midnightblue" d="M509.03,-112.2C517.68,-97.94 536.81,-69.94 561,-56 622.45,-20.58 707.03,-12.59 753.99,-11.05"/>
<polygon fill="midnightblue" stroke="midnightblue" points="754.34,-14.55 764.25,-10.8 754.17,-7.55 754.34,-14.55"/>
</g>
<!-- Node12&#45;&gt;Node5 -->
<g id="edge18" class="edge">
<title>Node12&#45;&gt;Node5</title>
<path fill="none" stroke="midnightblue" d="M488.32,-112.42C468.08,-100.22 437.13,-76.99 452,-56 472.16,-27.54 511.81,-16.95 541.67,-13.08"/>
<polygon fill="midnightblue" stroke="midnightblue" points="542.21,-16.54 551.77,-11.97 541.45,-9.58 542.21,-16.54"/>
</g>
<!-- Node12&#45;&gt;Node8 -->
<g id="edge20" class="edge">
<title>Node12&#45;&gt;Node8</title>
<path fill="none" stroke="midnightblue" d="M567.86,-112.44C640.07,-102.77 757.48,-87.04 833.47,-76.85"/>
<polygon fill="midnightblue" stroke="midnightblue" points="834,-80.31 843.44,-75.52 833.07,-73.38 834,-80.31"/>
</g>
<!-- Node13 -->
<g id="node13" class="node">
<title>Node13</title>
<g id="a_node13"><a xlink:href="zwave__generic__types_8h.html" target="_top" xlink:title=" ">
<polygon fill="none" stroke="black" points="280.5,-56.5 280.5,-75.5 399.5,-75.5 399.5,-56.5 280.5,-56.5"/>
<text text-anchor="middle" x="340" y="-63.5" font-family="Helvetica,sans-Serif" font-size="10.00">zwave_generic_types.h</text>
</a>
</g>
</g>
<!-- Node12&#45;&gt;Node13 -->
<g id="edge21" class="edge">
<title>Node12&#45;&gt;Node13</title>
<path fill="none" stroke="midnightblue" d="M478.01,-112.44C450.3,-103.32 406.25,-88.81 375.38,-78.65"/>
<polygon fill="midnightblue" stroke="midnightblue" points="376.46,-75.32 365.86,-75.52 374.27,-81.97 376.46,-75.32"/>
</g>
<!-- Node14 -->
<g id="node14" class="node">
<title>Node14</title>
<g id="a_node14"><a xlink:href="zwave__rf__region_8h.html" target="_top" xlink:title=" ">
<polygon fill="none" stroke="black" points="570,-56.5 570,-75.5 666,-75.5 666,-56.5 570,-56.5"/>
<text text-anchor="middle" x="618" y="-63.5" font-family="Helvetica,sans-Serif" font-size="10.00">zwave_rf_region.h</text>
</a>
</g>
</g>
<!-- Node12&#45;&gt;Node14 -->
<g id="edge23" class="edge">
<title>Node12&#45;&gt;Node14</title>
<path fill="none" stroke="midnightblue" d="M522.06,-112.44C540.57,-103.68 569.58,-89.94 590.86,-79.86"/>
<polygon fill="midnightblue" stroke="midnightblue" points="592.48,-82.96 600.02,-75.52 589.49,-76.63 592.48,-82.96"/>
</g>
<!-- Node13&#45;&gt;Node4 -->
<g id="edge22" class="edge">
<title>Node13&#45;&gt;Node4</title>
<path fill="none" stroke="midnightblue" d="M399.62,-57.83C494.63,-46.4 677.43,-24.42 753.96,-15.21"/>
<polygon fill="midnightblue" stroke="midnightblue" points="754.52,-18.67 764.03,-14 753.69,-11.72 754.52,-18.67"/>
</g>
<!-- Node14&#45;&gt;Node5 -->
<g id="edge24" class="edge">
<title>Node14&#45;&gt;Node5</title>
<path fill="none" stroke="midnightblue" d="M611.73,-56.08C606.36,-48.46 598.48,-37.26 591.92,-27.94"/>
<polygon fill="midnightblue" stroke="midnightblue" points="594.78,-25.91 586.16,-19.75 589.05,-29.94 594.78,-25.91"/>
</g>
<!-- Node15&#45;&gt;Node3 -->
<g id="edge42" class="edge">
<title>Node15&#45;&gt;Node3</title>
<path fill="none" stroke="midnightblue" d="M1083.78,-369.31C1092.67,-360.87 1105.52,-347.29 1113,-333 1135.67,-289.71 1145.37,-232.12 1149.04,-203.02"/>
<polygon fill="midnightblue" stroke="midnightblue" points="1152.52,-203.37 1150.2,-193.03 1145.57,-202.56 1152.52,-203.37"/>
</g>
<!-- Node15&#45;&gt;Node6 -->
<g id="edge44" class="edge">
<title>Node15&#45;&gt;Node6</title>
<path fill="none" stroke="midnightblue" d="M1087.6,-369.4C1100.21,-361.03 1119.08,-347.49 1133,-333 1183.41,-280.54 1205.09,-268.37 1227,-199 1244.13,-144.75 1175,-100.83 1133.77,-80.03"/>
<polygon fill="midnightblue" stroke="midnightblue" points="1135.22,-76.85 1124.7,-75.6 1132.15,-83.14 1135.22,-76.85"/>
</g>
<!-- Node15&#45;&gt;Node9 -->
<g id="edge41" class="edge">
<title>Node15&#45;&gt;Node9</title>
<path fill="none" stroke="midnightblue" d="M1020.37,-374.92C913.33,-368.59 665.6,-353.01 458,-333 445.79,-331.82 432.9,-330.43 420.26,-328.99"/>
<polygon fill="midnightblue" stroke="midnightblue" points="420.54,-325.5 410.21,-327.83 419.74,-332.45 420.54,-325.5"/>
</g>
<!-- Node16 -->
<g id="node16" class="node">
<title>Node16</title>
<g id="a_node16"><a xlink:href="zwave__network__management__types_8h.html" target="_top" xlink:title=" ">
<polygon fill="none" stroke="black" points="634,-235.5 634,-265.5 780,-265.5 780,-235.5 634,-235.5"/>
<text text-anchor="start" x="642" y="-253.5" font-family="Helvetica,sans-Serif" font-size="10.00">zwave_network_management</text>
<text text-anchor="middle" x="707" y="-242.5" font-family="Helvetica,sans-Serif" font-size="10.00">_types.h</text>
</a>
</g>
</g>
<!-- Node15&#45;&gt;Node16 -->
<g id="edge26" class="edge">
<title>Node15&#45;&gt;Node16</title>
<path fill="none" stroke="midnightblue" d="M1049.06,-369.4C989.34,-348.82 837.18,-296.37 757.46,-268.89"/>
<polygon fill="midnightblue" stroke="midnightblue" points="758.23,-265.46 747.64,-265.51 755.95,-272.07 758.23,-265.46"/>
</g>
<!-- Node17 -->
<g id="node17" class="node">
<title>Node17</title>
<g id="a_node17"><a xlink:href="zwave__network__management_8h.html" target="_top" xlink:title=" ">
<polygon fill="none" stroke="black" points="629.5,-308 629.5,-327 784.5,-327 784.5,-308 629.5,-308"/>
<text text-anchor="middle" x="707" y="-315" font-family="Helvetica,sans-Serif" font-size="10.00">zwave_network_management.h</text>
</a>
</g>
</g>
<!-- Node15&#45;&gt;Node17 -->
<g id="edge29" class="edge">
<title>Node15&#45;&gt;Node17</title>
<path fill="none" stroke="midnightblue" d="M1021.42,-369.48C954.92,-358.69 840.57,-340.15 769.63,-328.65"/>
<polygon fill="midnightblue" stroke="midnightblue" points="769.92,-325.15 759.48,-327.01 768.8,-332.06 769.92,-325.15"/>
</g>
<!-- Node21 -->
<g id="node21" class="node">
<title>Node21</title>
<g id="a_node21"><a xlink:title=" ">
<polygon fill="none" stroke="#bfbfbf" points="1034,-308 1034,-327 1104,-327 1104,-308 1034,-308"/>
<text text-anchor="middle" x="1069" y="-315" font-family="Helvetica,sans-Serif" font-size="10.00">sys/etimer.h</text>
</a>
</g>
</g>
<!-- Node15&#45;&gt;Node21 -->
<g id="edge43" class="edge">
<title>Node15&#45;&gt;Node21</title>
<path fill="none" stroke="midnightblue" d="M1073.28,-369.48C1072.58,-361.08 1071.48,-347.98 1070.57,-337.16"/>
<polygon fill="midnightblue" stroke="midnightblue" points="1074.04,-336.68 1069.72,-327.01 1067.06,-337.27 1074.04,-336.68"/>
</g>
<!-- Node16&#45;&gt;Node4 -->
<g id="edge28" class="edge">
<title>Node16&#45;&gt;Node4</title>
<path fill="none" stroke="midnightblue" d="M705.81,-235.35C704.16,-209.87 702.91,-154.93 718,-112 729.89,-78.18 756.55,-45.44 773.6,-26.81"/>
<polygon fill="midnightblue" stroke="midnightblue" points="776.17,-29.19 780.47,-19.5 771.07,-24.39 776.17,-29.19"/>
</g>
<!-- Node16&#45;&gt;Node5 -->
<g id="edge27" class="edge">
<title>Node16&#45;&gt;Node5</title>
<path fill="none" stroke="midnightblue" d="M699.94,-235.32C686.26,-208.82 654.03,-150.96 615,-112 594.59,-91.62 574.61,-101.43 561,-76 552.96,-60.99 560.1,-42.15 567.82,-28.63"/>
<polygon fill="midnightblue" stroke="midnightblue" points="570.98,-30.18 573.33,-19.85 565.05,-26.46 570.98,-30.18"/>
</g>
<!-- Node17&#45;&gt;Node4 -->
<g id="edge30" class="edge">
<title>Node17&#45;&gt;Node4</title>
<path fill="none" stroke="midnightblue" d="M734.01,-307.87C753.12,-300.18 777.34,-286.87 789,-266 795.72,-253.97 794.44,-247.66 789,-235 779.81,-213.63 760.19,-220.37 751,-199 748.14,-192.36 748.42,-131.21 752,-112 757.63,-81.81 771.3,-48.73 780.35,-28.93"/>
<polygon fill="midnightblue" stroke="midnightblue" points="783.63,-30.18 784.71,-19.64 777.29,-27.2 783.63,-30.18"/>
</g>
<!-- Node17&#45;&gt;Node5 -->
<g id="edge31" class="edge">
<title>Node17&#45;&gt;Node5</title>
<path fill="none" stroke="midnightblue" d="M684.38,-307.88C665.89,-299.74 640.39,-285.8 625,-266 581.02,-209.38 607.87,-176.71 577,-112 568.72,-94.64 558.57,-94.4 553,-76 547.88,-59.09 557.16,-40.54 566.21,-27.6"/>
<polygon fill="midnightblue" stroke="midnightblue" points="569,-29.71 572.25,-19.63 563.42,-25.48 569,-29.71"/>
</g>
<!-- Node17&#45;&gt;Node6 -->
<g id="edge40" class="edge">
<title>Node17&#45;&gt;Node6</title>
<path fill="none" stroke="midnightblue" d="M784.73,-313.85C835.95,-309.05 902.77,-296.73 954,-266 1028.42,-221.35 1078.76,-124.91 1097.19,-84.93"/>
<polygon fill="midnightblue" stroke="midnightblue" points="1100.46,-86.19 1101.37,-75.64 1094.08,-83.33 1100.46,-86.19"/>
</g>
<!-- Node17&#45;&gt;Node12 -->
<g id="edge32" class="edge">
<title>Node17&#45;&gt;Node12</title>
<path fill="none" stroke="midnightblue" d="M670.32,-307.93C645.49,-300.48 613.43,-287.44 592,-266 558.37,-232.36 575.83,-207.27 549,-168 541.56,-157.1 531.26,-146.58 522.4,-138.45"/>
<polygon fill="midnightblue" stroke="midnightblue" points="524.59,-135.72 514.78,-131.72 519.96,-140.97 524.59,-135.72"/>
</g>
<!-- Node17&#45;&gt;Node13 -->
<g id="edge33" class="edge">
<title>Node17&#45;&gt;Node13</title>
<path fill="none" stroke="midnightblue" d="M679.88,-307.98C651.51,-298.77 605.92,-283.09 568,-266 541.71,-254.15 537.66,-246 511,-235 458.35,-213.27 429.55,-237.97 388,-199 371.14,-183.18 352.92,-118.36 344.6,-85.82"/>
<polygon fill="midnightblue" stroke="midnightblue" points="347.92,-84.64 342.1,-75.79 341.13,-86.34 347.92,-84.64"/>
</g>
<!-- Node17&#45;&gt;Node16 -->
<g id="edge34" class="edge">
<title>Node17&#45;&gt;Node16</title>
<path fill="none" stroke="midnightblue" d="M707,-307.73C707,-299.54 707,-286.92 707,-275.71"/>
<polygon fill="midnightblue" stroke="midnightblue" points="710.5,-275.59 707,-265.59 703.5,-275.59 710.5,-275.59"/>
</g>
<!-- Node18 -->
<g id="node18" class="node">
<title>Node18</title>
<g id="a_node18"><a xlink:href="zwave__controller__keyset_8h.html" target="_top" xlink:title=" ">
<polygon fill="none" stroke="black" points="196.5,-241 196.5,-260 329.5,-260 329.5,-241 196.5,-241"/>
<text text-anchor="middle" x="263" y="-248" font-family="Helvetica,sans-Serif" font-size="10.00">zwave_controller_keyset.h</text>
</a>
</g>
</g>
<!-- Node17&#45;&gt;Node18 -->
<g id="edge35" class="edge">
<title>Node17&#45;&gt;Node18</title>
<path fill="none" stroke="midnightblue" d="M657.92,-307.99C645.86,-305.96 632.97,-303.85 621,-302 522.95,-286.82 409.5,-271.13 337.05,-261.35"/>
<polygon fill="midnightblue" stroke="midnightblue" points="337.48,-257.88 327.1,-260.01 336.54,-264.82 337.48,-257.88"/>
</g>
<!-- Node19 -->
<g id="node19" class="node">
<title>Node19</title>
<g id="a_node19"><a xlink:href="zwave__controller__connection__info_8h.html" target="_top" xlink:title=" ">
<polygon fill="none" stroke="black" points="396.5,-168.5 396.5,-198.5 539.5,-198.5 539.5,-168.5 396.5,-168.5"/>
<text text-anchor="start" x="404.5" y="-186.5" font-family="Helvetica,sans-Serif" font-size="10.00">zwave_controller_connection</text>
<text text-anchor="middle" x="468" y="-175.5" font-family="Helvetica,sans-Serif" font-size="10.00">_info.h</text>
</a>
</g>
</g>
<!-- Node18&#45;&gt;Node19 -->
<g id="edge36" class="edge">
<title>Node18&#45;&gt;Node19</title>
<path fill="none" stroke="midnightblue" d="M290.22,-240.87C321.72,-230.88 374.34,-214.2 414.18,-201.56"/>
<polygon fill="midnightblue" stroke="midnightblue" points="415.28,-204.89 423.76,-198.53 413.17,-198.21 415.28,-204.89"/>
</g>
<!-- Node20 -->
<g id="node20" class="node">
<title>Node20</title>
<g id="a_node20"><a xlink:href="zwave__keyset__definitions_8h.html" target="_top" xlink:title=" ">
<polygon fill="none" stroke="black" points="164.5,-174 164.5,-193 301.5,-193 301.5,-174 164.5,-174"/>
<text text-anchor="middle" x="233" y="-181" font-family="Helvetica,sans-Serif" font-size="10.00">zwave_keyset_definitions.h</text>
</a>
</g>
</g>
<!-- Node18&#45;&gt;Node20 -->
<g id="edge38" class="edge">
<title>Node18&#45;&gt;Node20</title>
<path fill="none" stroke="midnightblue" d="M258.95,-240.73C254.46,-230.99 247.07,-214.98 241.32,-202.53"/>
<polygon fill="midnightblue" stroke="midnightblue" points="244.35,-200.74 236.98,-193.13 237.99,-203.67 244.35,-200.74"/>
</g>
<!-- Node19&#45;&gt;Node12 -->
<g id="edge37" class="edge">
<title>Node19&#45;&gt;Node12</title>
<path fill="none" stroke="midnightblue" d="M476.53,-168.4C481.6,-160.02 488.07,-149.33 493.46,-140.42"/>
<polygon fill="midnightblue" stroke="midnightblue" points="496.58,-142.03 498.76,-131.66 490.59,-138.4 496.58,-142.03"/>
</g>
<!-- Node20&#45;&gt;Node4 -->
<g id="edge39" class="edge">
<title>Node20&#45;&gt;Node4</title>
<path fill="none" stroke="midnightblue" d="M232.68,-173.99C232.31,-150.77 234.81,-86.03 272,-56 290.8,-40.82 641.31,-19.47 754.25,-12.96"/>
<polygon fill="midnightblue" stroke="midnightblue" points="754.64,-16.44 764.42,-12.38 754.24,-9.46 754.64,-16.44"/>
</g>
<!-- Node22&#45;&gt;Node3 -->
<g id="edge69" class="edge">
<title>Node22&#45;&gt;Node3</title>
<path fill="none" stroke="midnightblue" d="M699.81,-430.87C768.54,-393.34 1041.73,-244.16 1126.07,-198.11"/>
<polygon fill="midnightblue" stroke="midnightblue" points="1127.86,-201.12 1134.96,-193.26 1124.5,-194.98 1127.86,-201.12"/>
</g>
<!-- Node22&#45;&gt;Node18 -->
<g id="edge53" class="edge">
<title>Node22&#45;&gt;Node18</title>
<path fill="none" stroke="midnightblue" d="M661.63,-430.97C620.01,-414.69 528.55,-376.84 458,-333 439.19,-321.31 438.51,-312.47 419,-302 385.16,-283.85 343.66,-270.8 311.98,-262.52"/>
<polygon fill="midnightblue" stroke="midnightblue" points="312.61,-259.07 302.06,-260 310.89,-265.86 312.61,-259.07"/>
</g>
<!-- Node23 -->
<g id="node23" class="node">
<title>Node23</title>
<g id="a_node23"><a xlink:href="zwave__controller__callbacks_8h.html" target="_top" xlink:title=" ">
<polygon fill="none" stroke="black" points="466.5,-308 466.5,-327 611.5,-327 611.5,-308 466.5,-308"/>
<text text-anchor="middle" x="539" y="-315" font-family="Helvetica,sans-Serif" font-size="10.00">zwave_controller_callbacks.h</text>
</a>
</g>
</g>
<!-- Node22&#45;&gt;Node23 -->
<g id="edge46" class="edge">
<title>Node22&#45;&gt;Node23</title>
<path fill="none" stroke="midnightblue" d="M673.57,-430.8C649.12,-410.39 587.83,-359.25 557.13,-333.63"/>
<polygon fill="midnightblue" stroke="midnightblue" points="559.25,-330.84 549.33,-327.12 554.77,-336.22 559.25,-330.84"/>
</g>
<!-- Node25 -->
<g id="node25" class="node">
<title>Node25</title>
<g id="a_node25"><a xlink:href="zwave__controller_8h.html" target="_top" xlink:title=" ">
<polygon fill="none" stroke="black" points="635,-369.5 635,-388.5 733,-388.5 733,-369.5 635,-369.5"/>
<text text-anchor="middle" x="684" y="-376.5" font-family="Helvetica,sans-Serif" font-size="10.00">zwave_controller.h</text>
</a>
</g>
</g>
<!-- Node22&#45;&gt;Node25 -->
<g id="edge54" class="edge">
<title>Node22&#45;&gt;Node25</title>
<path fill="none" stroke="midnightblue" d="M684,-430.98C684,-422.58 684,-409.48 684,-398.66"/>
<polygon fill="midnightblue" stroke="midnightblue" points="687.5,-398.51 684,-388.51 680.5,-398.51 687.5,-398.51"/>
</g>
<!-- Node26 -->
<g id="node26" class="node">
<title>Node26</title>
<g id="a_node26"><a xlink:href="zwave__tx_8h.html" target="_top" xlink:title=" ">
<polygon fill="none" stroke="black" points="853.5,-241 853.5,-260 920.5,-260 920.5,-241 853.5,-241"/>
<text text-anchor="middle" x="887" y="-248" font-family="Helvetica,sans-Serif" font-size="10.00">zwave_tx.h</text>
</a>
</g>
</g>
<!-- Node22&#45;&gt;Node26 -->
<g id="edge57" class="edge">
<title>Node22&#45;&gt;Node26</title>
<path fill="none" stroke="midnightblue" d="M694.38,-430.69C706.08,-420.71 725.6,-403.91 742,-389 789.7,-345.65 844.53,-292.81 871.02,-267.08"/>
<polygon fill="midnightblue" stroke="midnightblue" points="873.57,-269.48 878.3,-260 868.69,-264.47 873.57,-269.48"/>
</g>
<!-- Node23&#45;&gt;Node7 -->
<g id="edge52" class="edge">
<title>Node23&#45;&gt;Node7</title>
<path fill="none" stroke="midnightblue" d="M584.46,-307.97C596.33,-305.88 609.13,-303.74 621,-302 689.4,-291.98 878.18,-311.76 930,-266 965.68,-234.5 967.97,-173.16 966.57,-142.06"/>
<polygon fill="midnightblue" stroke="midnightblue" points="970.04,-141.51 965.91,-131.75 963.05,-141.95 970.04,-141.51"/>
</g>
<!-- Node23&#45;&gt;Node13 -->
<g id="edge51" class="edge">
<title>Node23&#45;&gt;Node13</title>
<path fill="none" stroke="midnightblue" d="M497.21,-307.97C455.19,-298.63 394.22,-282.73 377,-266 327.23,-217.63 332.23,-125.45 337.12,-85.85"/>
<polygon fill="midnightblue" stroke="midnightblue" points="340.61,-86.13 338.51,-75.75 333.68,-85.18 340.61,-86.13"/>
</g>
<!-- Node23&#45;&gt;Node16 -->
<g id="edge49" class="edge">
<title>Node23&#45;&gt;Node16</title>
<path fill="none" stroke="midnightblue" d="M561.31,-307.87C586.63,-298.07 628.61,-281.83 661.02,-269.29"/>
<polygon fill="midnightblue" stroke="midnightblue" points="662.68,-272.4 670.74,-265.53 660.15,-265.87 662.68,-272.4"/>
</g>
<!-- Node23&#45;&gt;Node20 -->
<g id="edge50" class="edge">
<title>Node23&#45;&gt;Node20</title>
<path fill="none" stroke="midnightblue" d="M471.82,-307.98C370.97,-295.04 191.64,-271.36 187,-266 169.22,-245.48 194.26,-217.02 213.79,-199.73"/>
<polygon fill="midnightblue" stroke="midnightblue" points="216.3,-202.19 221.68,-193.06 211.78,-196.84 216.3,-202.19"/>
</g>
<!-- Node24 -->
<g id="node24" class="node">
<title>Node24</title>
<g id="a_node24"><a xlink:href="zwave__rx__definitions_8h.html" target="_top" xlink:title=" ">
<polygon fill="none" stroke="black" points="386,-241 386,-260 502,-260 502,-241 386,-241"/>
<text text-anchor="middle" x="444" y="-248" font-family="Helvetica,sans-Serif" font-size="10.00">zwave_rx_definitions.h</text>
</a>
</g>
</g>
<!-- Node23&#45;&gt;Node24 -->
<g id="edge47" class="edge">
<title>Node23&#45;&gt;Node24</title>
<path fill="none" stroke="midnightblue" d="M526.19,-307.73C510.52,-297.01 483.78,-278.72 465.07,-265.91"/>
<polygon fill="midnightblue" stroke="midnightblue" points="466.84,-262.89 456.61,-260.13 462.89,-268.66 466.84,-262.89"/>
</g>
<!-- Node24&#45;&gt;Node19 -->
<g id="edge48" class="edge">
<title>Node24&#45;&gt;Node19</title>
<path fill="none" stroke="midnightblue" d="M447.24,-240.73C450.32,-232.37 455.11,-219.4 459.31,-208.02"/>
<polygon fill="midnightblue" stroke="midnightblue" points="462.62,-209.18 462.8,-198.59 456.05,-206.76 462.62,-209.18"/>
</g>
<!-- Node25&#45;&gt;Node17 -->
<g id="edge55" class="edge">
<title>Node25&#45;&gt;Node17</title>
<path fill="none" stroke="midnightblue" d="M687.3,-369.48C690.61,-360.9 695.82,-347.43 700.05,-336.48"/>
<polygon fill="midnightblue" stroke="midnightblue" points="703.37,-337.6 703.71,-327.01 696.84,-335.07 703.37,-337.6"/>
</g>
<!-- Node25&#45;&gt;Node23 -->
<g id="edge56" class="edge">
<title>Node25&#45;&gt;Node23</title>
<path fill="none" stroke="midnightblue" d="M663.23,-369.48C638.57,-359.36 597.25,-342.4 569.1,-330.85"/>
<polygon fill="midnightblue" stroke="midnightblue" points="570.32,-327.57 559.74,-327.01 567.66,-334.04 570.32,-327.57"/>
</g>
<!-- Node26&#45;&gt;Node6 -->
<g id="edge58" class="edge">
<title>Node26&#45;&gt;Node6</title>
<path fill="none" stroke="midnightblue" d="M899.44,-240.92C926.24,-222.24 991.05,-176.03 1041,-132 1058.71,-116.39 1077.49,-96.92 1090.1,-83.38"/>
<polygon fill="midnightblue" stroke="midnightblue" points="1092.88,-85.53 1097.08,-75.8 1087.73,-80.78 1092.88,-85.53"/>
</g>
<!-- Node26&#45;&gt;Node7 -->
<g id="edge60" class="edge">
<title>Node26&#45;&gt;Node7</title>
<path fill="none" stroke="midnightblue" d="M892.36,-240.81C905.11,-220.13 937.42,-167.73 954.32,-140.32"/>
<polygon fill="midnightblue" stroke="midnightblue" points="957.33,-142.1 959.6,-131.76 951.37,-138.43 957.33,-142.1"/>
</g>
<!-- Node26&#45;&gt;Node19 -->
<g id="edge59" class="edge">
<title>Node26&#45;&gt;Node19</title>
<path fill="none" stroke="midnightblue" d="M853.42,-244.29C788.1,-234.16 642.24,-211.53 549.87,-197.2"/>
<polygon fill="midnightblue" stroke="midnightblue" points="550.13,-193.7 539.71,-195.62 549.06,-200.62 550.13,-193.7"/>
</g>
<!-- Node27 -->
<g id="node27" class="node">
<title>Node27</title>
<g id="a_node27"><a xlink:href="zwapi__protocol__basis_8h.html" target="_top" xlink:title="Z&#45;Wave API for basis controller/end node application interface.">
<polygon fill="none" stroke="black" points="760.5,-112.5 760.5,-131.5 879.5,-131.5 879.5,-112.5 760.5,-112.5"/>
<text text-anchor="middle" x="820" y="-119.5" font-family="Helvetica,sans-Serif" font-size="10.00">zwapi_protocol_basis.h</text>
</a>
</g>
</g>
<!-- Node26&#45;&gt;Node27 -->
<g id="edge61" class="edge">
<title>Node26&#45;&gt;Node27</title>
<path fill="none" stroke="midnightblue" d="M889.22,-240.76C892.69,-225.1 897.77,-191.67 885,-168 877.55,-154.2 863.8,-143.75 850.86,-136.42"/>
<polygon fill="midnightblue" stroke="midnightblue" points="852.17,-133.15 841.68,-131.62 848.92,-139.35 852.17,-133.15"/>
</g>
<!-- Node28 -->
<g id="node28" class="node">
<title>Node28</title>
<g id="a_node28"><a xlink:href="zwave__tx__definitions_8h.html" target="_top" xlink:title=" ">
<polygon fill="none" stroke="black" points="760,-174 760,-193 876,-193 876,-174 760,-174"/>
<text text-anchor="middle" x="818" y="-181" font-family="Helvetica,sans-Serif" font-size="10.00">zwave_tx_definitions.h</text>
</a>
</g>
</g>
<!-- Node26&#45;&gt;Node28 -->
<g id="edge67" class="edge">
<title>Node26&#45;&gt;Node28</title>
<path fill="none" stroke="midnightblue" d="M877.69,-240.73C866.73,-230.4 848.29,-213.04 834.81,-200.33"/>
<polygon fill="midnightblue" stroke="midnightblue" points="836.84,-197.44 827.16,-193.13 832.04,-202.53 836.84,-197.44"/>
</g>
<!-- Node27&#45;&gt;Node4 -->
<g id="edge62" class="edge">
<title>Node27&#45;&gt;Node4</title>
<path fill="none" stroke="midnightblue" d="M817.57,-112.37C812.54,-94.54 800.92,-53.3 794.15,-29.27"/>
<polygon fill="midnightblue" stroke="midnightblue" points="797.5,-28.27 791.42,-19.59 790.77,-30.17 797.5,-28.27"/>
</g>
<!-- Node27&#45;&gt;Node5 -->
<g id="edge63" class="edge">
<title>Node27&#45;&gt;Node5</title>
<path fill="none" stroke="midnightblue" d="M801.17,-112.37C759.11,-93.09 657.35,-46.45 607.9,-23.79"/>
<polygon fill="midnightblue" stroke="midnightblue" points="609.29,-20.58 598.74,-19.59 606.38,-26.94 609.29,-20.58"/>
</g>
<!-- Node27&#45;&gt;Node6 -->
<g id="edge64" class="edge">
<title>Node27&#45;&gt;Node6</title>
<path fill="none" stroke="midnightblue" d="M865.16,-112.44C919.31,-102.18 1009.38,-85.12 1062.38,-75.08"/>
<polygon fill="midnightblue" stroke="midnightblue" points="1063.29,-78.47 1072.46,-73.16 1061.99,-71.59 1063.29,-78.47"/>
</g>
<!-- Node27&#45;&gt;Node8 -->
<g id="edge66" class="edge">
<title>Node27&#45;&gt;Node8</title>
<path fill="none" stroke="midnightblue" d="M833.98,-112.32C847.55,-103.9 868.38,-90.97 884.32,-81.07"/>
<polygon fill="midnightblue" stroke="midnightblue" points="886.41,-83.9 893.06,-75.65 882.71,-77.95 886.41,-83.9"/>
</g>
<!-- Node27&#45;&gt;Node14 -->
<g id="edge65" class="edge">
<title>Node27&#45;&gt;Node14</title>
<path fill="none" stroke="midnightblue" d="M787.99,-112.44C753.27,-103.16 697.71,-88.31 659.62,-78.13"/>
<polygon fill="midnightblue" stroke="midnightblue" points="660.42,-74.72 649.86,-75.52 658.61,-81.48 660.42,-74.72"/>
</g>
<!-- Node28&#45;&gt;Node12 -->
<g id="edge68" class="edge">
<title>Node28&#45;&gt;Node12</title>
<path fill="none" stroke="midnightblue" d="M773.01,-173.98C716.58,-163.28 619.88,-144.96 559.08,-133.44"/>
<polygon fill="midnightblue" stroke="midnightblue" points="559.38,-129.93 548.91,-131.51 558.08,-136.81 559.38,-129.93"/>
</g>
</g>
</svg>
