<?xml version="1.0" encoding="UTF-8" standalone="no"?>
<!DOCTYPE svg PUBLIC "-//W3C//DTD SVG 1.1//EN"
 "http://www.w3.org/Graphics/SVG/1.1/DTD/svg11.dtd">
<!-- Generated by graphviz version 2.43.0 (0)
 -->
<!-- Title: s0_bootstrap_frames_generic_send Pages: 1 -->
<svg width="1279pt" height="266pt"
 viewBox="0.00 0.00 1279.00 266.01" xmlns="http://www.w3.org/2000/svg" xmlns:xlink="http://www.w3.org/1999/xlink">
<g id="graph0" class="graph" transform="scale(1 1) rotate(0) translate(4 262.01)">
<title>s0_bootstrap_frames_generic_send</title>
<!-- Node1 -->
<g id="node1" class="node">
<title>Node1</title>
<g id="a_node1"><a xlink:title=" ">
<polygon fill="#bfbfbf" stroke="black" points="1163,-73.01 1163,-103.01 1271,-103.01 1271,-73.01 1163,-73.01"/>
<text text-anchor="start" x="1171" y="-91.01" font-family="Helvetica,sans-Serif" font-size="10.00">s0_bootstrap_frames</text>
<text text-anchor="middle" x="1217" y="-80.01" font-family="Helvetica,sans-Serif" font-size="10.00">_generic_send</text>
</a>
</g>
</g>
<!-- Node2 -->
<g id="node2" class="node">
<title>Node2</title>
<g id="a_node2"><a xlink:href="zwave__s0__sm_8c.html#a18d289e278b9c3e3e7b023fb315bff7e" target="_top" xlink:title=" ">
<polygon fill="none" stroke="black" points="1018,-135.51 1018,-154.51 1111,-154.51 1111,-135.51 1018,-135.51"/>
<text text-anchor="middle" x="1064.5" y="-142.51" font-family="Helvetica,sans-Serif" font-size="10.00">s0_send_key_set</text>
</a>
</g>
</g>
<!-- Node1&#45;&gt;Node2 -->
<g id="edge1" class="edge">
<title>Node1&#45;&gt;Node2</title>
<path fill="none" stroke="midnightblue" d="M1173.63,-107.17C1158.99,-113.5 1142.4,-120.37 1127,-126.01 1117.87,-129.36 1107.85,-132.63 1098.59,-135.48"/>
<polygon fill="midnightblue" stroke="midnightblue" points="1175.18,-110.31 1182.94,-103.1 1172.38,-103.9 1175.18,-110.31"/>
</g>
<!-- Node17 -->
<g id="node17" class="node">
<title>Node17</title>
<g id="a_node17"><a xlink:href="zwave__s0__sm_8c.html#aa3efb68081afc5686d48ee8ee23696a1" target="_top" xlink:title=" ">
<polygon fill="none" stroke="black" points="1008.5,-97.51 1008.5,-116.51 1120.5,-116.51 1120.5,-97.51 1008.5,-97.51"/>
<text text-anchor="middle" x="1064.5" y="-104.51" font-family="Helvetica,sans-Serif" font-size="10.00">s0_send_scheme_get</text>
</a>
</g>
</g>
<!-- Node1&#45;&gt;Node17 -->
<g id="edge22" class="edge">
<title>Node1&#45;&gt;Node17</title>
<path fill="none" stroke="midnightblue" d="M1152.82,-95.99C1142.12,-97.34 1131.1,-98.73 1120.63,-100.06"/>
<polygon fill="midnightblue" stroke="midnightblue" points="1153.46,-99.44 1162.94,-94.71 1152.58,-92.49 1153.46,-99.44"/>
</g>
<!-- Node18 -->
<g id="node18" class="node">
<title>Node18</title>
<g id="a_node18"><a xlink:href="zwave__s0__sm_8c.html#a042415cb1b240d0867977bb22cd4e0a7" target="_top" xlink:title=" ">
<polygon fill="none" stroke="black" points="1002,-59.51 1002,-78.51 1127,-78.51 1127,-59.51 1002,-59.51"/>
<text text-anchor="middle" x="1064.5" y="-66.51" font-family="Helvetica,sans-Serif" font-size="10.00">s0_send_scheme_inherit</text>
</a>
</g>
</g>
<!-- Node1&#45;&gt;Node18 -->
<g id="edge24" class="edge">
<title>Node1&#45;&gt;Node18</title>
<path fill="none" stroke="midnightblue" d="M1153,-80.06C1144.43,-78.98 1135.63,-77.87 1127.08,-76.79"/>
<polygon fill="midnightblue" stroke="midnightblue" points="1152.58,-83.54 1162.94,-81.32 1153.46,-76.59 1152.58,-83.54"/>
</g>
<!-- Node3 -->
<g id="node3" class="node">
<title>Node3</title>
<g id="a_node3"><a xlink:href="zwave__s0__sm_8c.html#a84e7be6182bb4e2f919fb2a3733e6ca1" target="_top" xlink:title=" ">
<polygon fill="none" stroke="black" points="851,-116.51 851,-135.51 966,-135.51 966,-116.51 851,-116.51"/>
<text text-anchor="middle" x="908.5" y="-123.51" font-family="Helvetica,sans-Serif" font-size="10.00">s0_sm_process_event</text>
</a>
</g>
</g>
<!-- Node2&#45;&gt;Node3 -->
<g id="edge2" class="edge">
<title>Node2&#45;&gt;Node3</title>
<path fill="none" stroke="midnightblue" d="M1007.58,-138.12C994.05,-136.45 979.58,-134.66 966.02,-132.99"/>
<polygon fill="midnightblue" stroke="midnightblue" points="1007.36,-141.61 1017.71,-139.37 1008.22,-134.67 1007.36,-141.61"/>
</g>
<!-- Node3&#45;&gt;Node3 -->
<g id="edge19" class="edge">
<title>Node3&#45;&gt;Node3</title>
<path fill="none" stroke="midnightblue" d="M937.62,-144.67C936.4,-149.95 926.7,-154.01 908.5,-154.01 880.77,-154.01 872.76,-144.58 884.46,-135.77"/>
<polygon fill="midnightblue" stroke="midnightblue" points="940.54,-142.72 932.54,-135.77 934.46,-146.19 940.54,-142.72"/>
</g>
<!-- Node4 -->
<g id="node4" class="node">
<title>Node4</title>
<g id="a_node4"><a xlink:href="group__zwave__s0__inclusion__state__machine.html#gaf4d6768672314f24fe46c7d19b5b433f" target="_top" xlink:title="Start the S0 add node process.">
<polygon fill="none" stroke="black" points="687.5,-220.51 687.5,-239.51 803.5,-239.51 803.5,-220.51 687.5,-220.51"/>
<text text-anchor="middle" x="745.5" y="-227.51" font-family="Helvetica,sans-Serif" font-size="10.00">s0_bootstrapping_start</text>
</a>
</g>
</g>
<!-- Node3&#45;&gt;Node4 -->
<g id="edge3" class="edge">
<title>Node3&#45;&gt;Node4</title>
<path fill="none" stroke="midnightblue" d="M893.09,-143.5C876.28,-162.78 846.72,-193.4 815,-211.01 808.09,-214.85 800.36,-217.95 792.64,-220.45"/>
<polygon fill="midnightblue" stroke="midnightblue" points="895.86,-145.64 899.68,-135.76 890.53,-141.1 895.86,-145.64"/>
</g>
<!-- Node8 -->
<g id="node8" class="node">
<title>Node8</title>
<g id="a_node8"><a xlink:href="zwave__s0__sm_8c.html#ab4101f12d142bd597954a665c6acc700" target="_top" xlink:title=" ">
<polygon fill="none" stroke="black" points="680.5,-182.51 680.5,-201.51 810.5,-201.51 810.5,-182.51 680.5,-182.51"/>
<text text-anchor="middle" x="745.5" y="-189.51" font-family="Helvetica,sans-Serif" font-size="10.00">s0_handle_net_key_verify</text>
</a>
</g>
</g>
<!-- Node3&#45;&gt;Node8 -->
<g id="edge8" class="edge">
<title>Node3&#45;&gt;Node8</title>
<path fill="none" stroke="midnightblue" d="M867.85,-140C851.78,-147.83 832.83,-157.09 815,-164.01 796.36,-171.25 773.88,-176.94 759.89,-182.42"/>
<polygon fill="midnightblue" stroke="midnightblue" points="869.48,-143.1 876.95,-135.58 866.43,-136.8 869.48,-143.1"/>
</g>
<!-- Node9 -->
<g id="node9" class="node">
<title>Node9</title>
<g id="a_node9"><a xlink:href="group__zwave__s0__inclusion__state__machine.html#ga324baa22838a503a6e1df7375e7deaaa" target="_top" xlink:title="This function is used to notify the S0 Inclusion state machine that S0 network key verify frame was r...">
<polygon fill="none" stroke="black" points="687,-133.01 687,-163.01 804,-163.01 804,-133.01 687,-133.01"/>
<text text-anchor="start" x="695" y="-151.01" font-family="Helvetica,sans-Serif" font-size="10.00">s0_network_key_verify</text>
<text text-anchor="middle" x="745.5" y="-140.01" font-family="Helvetica,sans-Serif" font-size="10.00">_received</text>
</a>
</g>
</g>
<!-- Node3&#45;&gt;Node9 -->
<g id="edge10" class="edge">
<title>Node3&#45;&gt;Node9</title>
<path fill="none" stroke="midnightblue" d="M840.66,-135.15C828.52,-136.81 815.96,-138.52 804.11,-140.14"/>
<polygon fill="midnightblue" stroke="midnightblue" points="841.3,-138.59 850.74,-133.77 840.36,-131.66 841.3,-138.59"/>
</g>
<!-- Node14 -->
<g id="node14" class="node">
<title>Node14</title>
<g id="a_node14"><a xlink:href="group__zwave__s0__inclusion__state__machine.html#ga27a97b6299c3fda3115f715b23902a60" target="_top" xlink:title="This function is used to notify the S0 Inclusion state machine that S0 Scheme report frame was receiv...">
<polygon fill="none" stroke="black" points="676,-94.51 676,-113.51 815,-113.51 815,-94.51 676,-94.51"/>
<text text-anchor="middle" x="745.5" y="-101.51" font-family="Helvetica,sans-Serif" font-size="10.00">s0_scheme_report_received</text>
</a>
</g>
</g>
<!-- Node3&#45;&gt;Node14 -->
<g id="edge15" class="edge">
<title>Node3&#45;&gt;Node14</title>
<path fill="none" stroke="midnightblue" d="M840.61,-116.88C832.21,-115.73 823.61,-114.55 815.18,-113.4"/>
<polygon fill="midnightblue" stroke="midnightblue" points="840.36,-120.37 850.74,-118.26 841.3,-113.44 840.36,-120.37"/>
</g>
<!-- Node15 -->
<g id="node15" class="node">
<title>Node15</title>
<g id="a_node15"><a xlink:href="zwave__s0__sm_8c.html#a4f4ada1cafbd76ff9d9af5fab6fe23eb" target="_top" xlink:title=" ">
<polygon fill="none" stroke="black" points="506,-18.51 506,-37.51 625,-37.51 625,-18.51 506,-18.51"/>
<text text-anchor="middle" x="565.5" y="-25.51" font-family="Helvetica,sans-Serif" font-size="10.00">s0_send_data_callback</text>
</a>
</g>
</g>
<!-- Node3&#45;&gt;Node15 -->
<g id="edge17" class="edge">
<title>Node3&#45;&gt;Node15</title>
<path fill="none" stroke="midnightblue" d="M879.44,-111.89C861.38,-103.22 837.22,-92.41 815,-85.01 750.11,-63.42 673.04,-47.13 622.12,-37.6"/>
<polygon fill="midnightblue" stroke="midnightblue" points="878.27,-115.21 888.79,-116.44 881.33,-108.92 878.27,-115.21"/>
</g>
<!-- Node16 -->
<g id="node16" class="node">
<title>Node16</title>
<g id="a_node16"><a xlink:href="zwave__s0__sm_8c.html#aaf909f4fdf4e6d4d910f4ab30f2e9c21" target="_top" xlink:title=" ">
<polygon fill="none" stroke="black" points="713,-18.51 713,-37.51 778,-37.51 778,-18.51 713,-18.51"/>
<text text-anchor="middle" x="745.5" y="-25.51" font-family="Helvetica,sans-Serif" font-size="10.00">s0_timeout</text>
</a>
</g>
</g>
<!-- Node3&#45;&gt;Node16 -->
<g id="edge20" class="edge">
<title>Node3&#45;&gt;Node16</title>
<path fill="none" stroke="midnightblue" d="M890.52,-109.46C872.88,-93.01 843.86,-68 815,-52.01 803.54,-45.66 790.08,-40.51 778.15,-36.63"/>
<polygon fill="midnightblue" stroke="midnightblue" points="888.12,-112.01 897.78,-116.35 892.94,-106.93 888.12,-112.01"/>
</g>
<!-- Node5 -->
<g id="node5" class="node">
<title>Node5</title>
<g id="a_node5"><a xlink:href="group__zwave__s0__network.html#ga27e4137188b19b88cf40318f7fea87dc" target="_top" xlink:title="Start the S0 add node process.">
<polygon fill="none" stroke="black" points="491,-220.51 491,-239.51 640,-239.51 640,-220.51 491,-220.51"/>
<text text-anchor="middle" x="565.5" y="-227.51" font-family="Helvetica,sans-Serif" font-size="10.00">zwave_s0_start_bootstrapping</text>
</a>
</g>
</g>
<!-- Node4&#45;&gt;Node5 -->
<g id="edge4" class="edge">
<title>Node4&#45;&gt;Node5</title>
<path fill="none" stroke="midnightblue" d="M676.86,-230.01C664.9,-230.01 652.4,-230.01 640.29,-230.01"/>
<polygon fill="midnightblue" stroke="midnightblue" points="677.2,-233.52 687.2,-230.01 677.2,-226.52 677.2,-233.52"/>
</g>
<!-- Node6 -->
<g id="node6" class="node">
<title>Node6</title>
<g id="a_node6"><a xlink:href="nm__state__machine_8c.html#ac9fe4041f9ca45bad16c9b6ad7bae02f" target="_top" xlink:title=" ">
<polygon fill="none" stroke="black" points="328,-220.51 328,-239.51 433,-239.51 433,-220.51 328,-220.51"/>
<text text-anchor="middle" x="380.5" y="-227.51" font-family="Helvetica,sans-Serif" font-size="10.00">nm_fsm_post_event</text>
</a>
</g>
</g>
<!-- Node5&#45;&gt;Node6 -->
<g id="edge5" class="edge">
<title>Node5&#45;&gt;Node6</title>
<path fill="none" stroke="midnightblue" d="M480.79,-230.01C464.53,-230.01 447.93,-230.01 433.08,-230.01"/>
<polygon fill="midnightblue" stroke="midnightblue" points="480.86,-233.52 490.86,-230.01 480.86,-226.52 480.86,-233.52"/>
</g>
<!-- Node6&#45;&gt;Node6 -->
<g id="edge6" class="edge">
<title>Node6&#45;&gt;Node6</title>
<path fill="none" stroke="midnightblue" d="M412.31,-248.29C411.4,-253.76 400.8,-258.01 380.5,-258.01 350.29,-258.01 341.55,-248.58 354.3,-239.77"/>
<polygon fill="midnightblue" stroke="midnightblue" points="415.13,-246.2 406.7,-239.77 409.28,-250.05 415.13,-246.2"/>
</g>
<!-- Node7 -->
<g id="node7" class="node">
<title>Node7</title>
<g id="a_node7"><a xlink:href="zwave__network__management__process_8c.html#a59cf655b084839b45cc25e23b3aef04c" target="_top" xlink:title=" ">
<polygon fill="none" stroke="black" points="152.5,-220.51 152.5,-239.51 265.5,-239.51 265.5,-220.51 152.5,-220.51"/>
<text text-anchor="middle" x="209" y="-227.51" font-family="Helvetica,sans-Serif" font-size="10.00">PROCESS_THREAD</text>
</a>
</g>
</g>
<!-- Node6&#45;&gt;Node7 -->
<g id="edge7" class="edge">
<title>Node6&#45;&gt;Node7</title>
<path fill="none" stroke="midnightblue" d="M317.36,-230.01C300.41,-230.01 282.15,-230.01 265.58,-230.01"/>
<polygon fill="midnightblue" stroke="midnightblue" points="317.72,-233.52 327.72,-230.01 317.72,-226.52 317.72,-233.52"/>
</g>
<!-- Node8&#45;&gt;Node3 -->
<g id="edge9" class="edge">
<title>Node8&#45;&gt;Node3</title>
<path fill="none" stroke="midnightblue" d="M820.26,-179.8C853.67,-165.9 885.25,-147.77 899.58,-135.81"/>
<polygon fill="midnightblue" stroke="midnightblue" points="818.78,-176.62 810.8,-183.6 821.38,-183.12 818.78,-176.62"/>
</g>
<!-- Node10 -->
<g id="node10" class="node">
<title>Node10</title>
<g id="a_node10"><a xlink:href="zwave__s0__transport_8c.html#a03d95837da2b91dfbf98786f7e753fe4" target="_top" xlink:title=" ">
<polygon fill="none" stroke="black" points="502,-111.01 502,-141.01 629,-141.01 629,-111.01 502,-111.01"/>
<text text-anchor="start" x="510" y="-129.01" font-family="Helvetica,sans-Serif" font-size="10.00">s0_application_command</text>
<text text-anchor="middle" x="565.5" y="-118.01" font-family="Helvetica,sans-Serif" font-size="10.00">_handler</text>
</a>
</g>
</g>
<!-- Node9&#45;&gt;Node10 -->
<g id="edge11" class="edge">
<title>Node9&#45;&gt;Node10</title>
<path fill="none" stroke="midnightblue" d="M676.63,-139.63C661.06,-137.7 644.57,-135.66 629.22,-133.77"/>
<polygon fill="midnightblue" stroke="midnightblue" points="676.35,-143.12 686.71,-140.87 677.21,-136.17 676.35,-143.12"/>
</g>
<!-- Node11 -->
<g id="node11" class="node">
<title>Node11</title>
<g id="a_node11"><a xlink:href="group__zwave__s0__transport.html#ga075cd6959f4f2b9cbd757c5d43f97820" target="_top" xlink:title="Entry point of S0 frames received from the PHY/radio stack.">
<polygon fill="none" stroke="black" points="306,-116.51 306,-135.51 455,-135.51 455,-116.51 306,-116.51"/>
<text text-anchor="middle" x="380.5" y="-123.51" font-family="Helvetica,sans-Serif" font-size="10.00">zwave_s0_on_frame_received</text>
</a>
</g>
</g>
<!-- Node10&#45;&gt;Node11 -->
<g id="edge12" class="edge">
<title>Node10&#45;&gt;Node11</title>
<path fill="none" stroke="midnightblue" d="M491.43,-126.01C479.49,-126.01 467.12,-126.01 455.18,-126.01"/>
<polygon fill="midnightblue" stroke="midnightblue" points="491.78,-129.52 501.78,-126.01 491.78,-122.52 491.78,-129.52"/>
</g>
<!-- Node12 -->
<g id="node12" class="node">
<title>Node12</title>
<g id="a_node12"><a xlink:href="group__zwave__s0__transport.html#ga7fcd7083b5fe3b6b2838d0d64f815f53" target="_top" xlink:title="Initialize the S0 Transport Also calls zwave_s0_network_init() which aborts all tx sessions and frees...">
<polygon fill="none" stroke="black" points="148,-116.51 148,-135.51 270,-135.51 270,-116.51 148,-116.51"/>
<text text-anchor="middle" x="209" y="-123.51" font-family="Helvetica,sans-Serif" font-size="10.00">zwave_s0_transport_init</text>
</a>
</g>
</g>
<!-- Node11&#45;&gt;Node12 -->
<g id="edge13" class="edge">
<title>Node11&#45;&gt;Node12</title>
<path fill="none" stroke="midnightblue" d="M295.59,-126.01C287,-126.01 278.4,-126.01 270.13,-126.01"/>
<polygon fill="midnightblue" stroke="midnightblue" points="295.65,-129.52 305.65,-126.01 295.65,-122.52 295.65,-129.52"/>
</g>
<!-- Node13 -->
<g id="node13" class="node">
<title>Node13</title>
<g id="a_node13"><a xlink:href="group__zwave__transports__fixt.html#ga26fb2571e272a5094bd0320eca3a896d" target="_top" xlink:title="Setup fixture for Z&#45;Wave Transports.">
<polygon fill="none" stroke="black" points="0,-116.51 0,-135.51 112,-135.51 112,-116.51 0,-116.51"/>
<text text-anchor="middle" x="56" y="-123.51" font-family="Helvetica,sans-Serif" font-size="10.00">zwave_transports_init</text>
</a>
</g>
</g>
<!-- Node12&#45;&gt;Node13 -->
<g id="edge14" class="edge">
<title>Node12&#45;&gt;Node13</title>
<path fill="none" stroke="midnightblue" d="M137.8,-126.01C129.14,-126.01 120.39,-126.01 112.01,-126.01"/>
<polygon fill="midnightblue" stroke="midnightblue" points="137.89,-129.52 147.89,-126.01 137.89,-122.52 137.89,-129.52"/>
</g>
<!-- Node14&#45;&gt;Node10 -->
<g id="edge16" class="edge">
<title>Node14&#45;&gt;Node10</title>
<path fill="none" stroke="midnightblue" d="M665.74,-113.75C653.51,-115.26 641.01,-116.81 629.2,-118.27"/>
<polygon fill="midnightblue" stroke="midnightblue" points="666.44,-117.19 675.94,-112.49 665.58,-110.24 666.44,-117.19"/>
</g>
<!-- Node15&#45;&gt;Node1 -->
<g id="edge18" class="edge">
<title>Node15&#45;&gt;Node1</title>
<path fill="none" stroke="midnightblue" d="M621.05,-16.65C638.52,-13.52 658,-10.56 676,-9.01 876.53,8.25 932.87,3.11 1127,-50.01 1147.42,-55.6 1169.3,-64.89 1186.25,-72.89"/>
<polygon fill="midnightblue" stroke="midnightblue" points="620.22,-13.24 611.03,-18.5 621.49,-20.13 620.22,-13.24"/>
</g>
<!-- Node16&#45;&gt;Node15 -->
<g id="edge21" class="edge">
<title>Node16&#45;&gt;Node15</title>
<path fill="none" stroke="midnightblue" d="M702.51,-28.01C679.39,-28.01 650.34,-28.01 625.03,-28.01"/>
<polygon fill="midnightblue" stroke="midnightblue" points="702.68,-31.52 712.68,-28.01 702.68,-24.52 702.68,-31.52"/>
</g>
<!-- Node17&#45;&gt;Node3 -->
<g id="edge23" class="edge">
<title>Node17&#45;&gt;Node3</title>
<path fill="none" stroke="midnightblue" d="M998.22,-115.07C987.53,-116.39 976.54,-117.74 966.09,-119.03"/>
<polygon fill="midnightblue" stroke="midnightblue" points="998.84,-118.52 1008.34,-113.82 997.98,-111.57 998.84,-118.52"/>
</g>
<!-- Node18&#45;&gt;Node3 -->
<g id="edge25" class="edge">
<title>Node18&#45;&gt;Node3</title>
<path fill="none" stroke="midnightblue" d="M1020.9,-81.63C1014.54,-83.67 1008.07,-85.83 1002,-88.01 977.49,-96.82 949.95,-108.35 931.34,-116.39"/>
<polygon fill="midnightblue" stroke="midnightblue" points="1022.27,-84.87 1030.76,-78.53 1020.17,-78.19 1022.27,-84.87"/>
</g>
</g>
</svg>
