<?xml version="1.0" encoding="UTF-8" standalone="no"?>
<!DOCTYPE svg PUBLIC "-//W3C//DTD SVG 1.1//EN"
 "http://www.w3.org/Graphics/SVG/1.1/DTD/svg11.dtd">
<!-- Generated by graphviz version 2.43.0 (0)
 -->
<!-- Title: applications/zpc/components/zwave/zwave_rx/src/zwave_rx_callbacks.c Pages: 1 -->
<svg width="519pt" height="341pt"
 viewBox="0.00 0.00 518.50 341.00" xmlns="http://www.w3.org/2000/svg" xmlns:xlink="http://www.w3.org/1999/xlink">
<g id="graph0" class="graph" transform="scale(1 1) rotate(0) translate(4 337)">
<title>applications/zpc/components/zwave/zwave_rx/src/zwave_rx_callbacks.c</title>
<!-- Node1 -->
<g id="node1" class="node">
<title>Node1</title>
<g id="a_node1"><a xlink:title=" ">
<polygon fill="#bfbfbf" stroke="black" points="85,-291.5 85,-332.5 228,-332.5 228,-291.5 85,-291.5"/>
<text text-anchor="start" x="93" y="-320.5" font-family="Helvetica,sans-Serif" font-size="10.00">applications/zpc/components</text>
<text text-anchor="start" x="93" y="-309.5" font-family="Helvetica,sans-Serif" font-size="10.00">/zwave/zwave_rx/src/zwave</text>
<text text-anchor="middle" x="156.5" y="-298.5" font-family="Helvetica,sans-Serif" font-size="10.00">_rx_callbacks.c</text>
</a>
</g>
</g>
<!-- Node2 -->
<g id="node2" class="node">
<title>Node2</title>
<g id="a_node2"><a xlink:href="zwave__rx__callbacks_8h.html" target="_top" xlink:title=" ">
<polygon fill="none" stroke="black" points="0,-235.5 0,-254.5 113,-254.5 113,-235.5 0,-235.5"/>
<text text-anchor="middle" x="56.5" y="-242.5" font-family="Helvetica,sans-Serif" font-size="10.00">zwave_rx_callbacks.h</text>
</a>
</g>
</g>
<!-- Node1&#45;&gt;Node2 -->
<g id="edge1" class="edge">
<title>Node1&#45;&gt;Node2</title>
<path fill="none" stroke="midnightblue" d="M126.5,-291.5C111.02,-281.44 92.48,-269.38 78.37,-260.21"/>
<polygon fill="midnightblue" stroke="midnightblue" points="80.1,-257.17 69.81,-254.65 76.29,-263.04 80.1,-257.17"/>
</g>
<!-- Node5 -->
<g id="node5" class="node">
<title>Node5</title>
<g id="a_node5"><a xlink:title=" ">
<polygon fill="none" stroke="#bfbfbf" points="131.5,-235.5 131.5,-254.5 181.5,-254.5 181.5,-235.5 131.5,-235.5"/>
<text text-anchor="middle" x="156.5" y="-242.5" font-family="Helvetica,sans-Serif" font-size="10.00">sl_log.h</text>
</a>
</g>
</g>
<!-- Node1&#45;&gt;Node5 -->
<g id="edge4" class="edge">
<title>Node1&#45;&gt;Node5</title>
<path fill="none" stroke="midnightblue" d="M156.5,-291.5C156.5,-283.07 156.5,-273.24 156.5,-264.87"/>
<polygon fill="midnightblue" stroke="midnightblue" points="160,-264.65 156.5,-254.65 153,-264.65 160,-264.65"/>
</g>
<!-- Node6 -->
<g id="node6" class="node">
<title>Node6</title>
<g id="a_node6"><a xlink:href="zwave__rx__internals_8h.html" target="_top" xlink:title=" ">
<polygon fill="none" stroke="black" points="200,-235.5 200,-254.5 309,-254.5 309,-235.5 200,-235.5"/>
<text text-anchor="middle" x="254.5" y="-242.5" font-family="Helvetica,sans-Serif" font-size="10.00">zwave_rx_internals.h</text>
</a>
</g>
</g>
<!-- Node1&#45;&gt;Node6 -->
<g id="edge5" class="edge">
<title>Node1&#45;&gt;Node6</title>
<path fill="none" stroke="midnightblue" d="M185.9,-291.5C201.07,-281.44 219.24,-269.38 233.07,-260.21"/>
<polygon fill="midnightblue" stroke="midnightblue" points="235.06,-263.1 241.45,-254.65 231.19,-257.26 235.06,-263.1"/>
</g>
<!-- Node3 -->
<g id="node3" class="node">
<title>Node3</title>
<g id="a_node3"><a xlink:href="sl__status_8h.html" target="_top" xlink:title="SL Status Codes.">
<polygon fill="none" stroke="black" points="24,-174 24,-193 89,-193 89,-174 24,-174"/>
<text text-anchor="middle" x="56.5" y="-181" font-family="Helvetica,sans-Serif" font-size="10.00">sl_status.h</text>
</a>
</g>
</g>
<!-- Node2&#45;&gt;Node3 -->
<g id="edge2" class="edge">
<title>Node2&#45;&gt;Node3</title>
<path fill="none" stroke="midnightblue" d="M56.5,-235.48C56.5,-227.08 56.5,-213.98 56.5,-203.16"/>
<polygon fill="midnightblue" stroke="midnightblue" points="60,-203.01 56.5,-193.01 53,-203.01 60,-203.01"/>
</g>
<!-- Node4 -->
<g id="node4" class="node">
<title>Node4</title>
<g id="a_node4"><a xlink:title=" ">
<polygon fill="none" stroke="#bfbfbf" points="76,-0.5 76,-19.5 125,-19.5 125,-0.5 76,-0.5"/>
<text text-anchor="middle" x="100.5" y="-7.5" font-family="Helvetica,sans-Serif" font-size="10.00">stdint.h</text>
</a>
</g>
</g>
<!-- Node3&#45;&gt;Node4 -->
<g id="edge3" class="edge">
<title>Node3&#45;&gt;Node4</title>
<path fill="none" stroke="midnightblue" d="M54.94,-173.81C51.56,-152.72 45.08,-97.49 61.5,-56 65.89,-44.9 74.26,-34.65 82.12,-26.75"/>
<polygon fill="midnightblue" stroke="midnightblue" points="84.75,-29.08 89.65,-19.69 79.96,-23.98 84.75,-29.08"/>
</g>
<!-- Node6&#45;&gt;Node3 -->
<g id="edge16" class="edge">
<title>Node6&#45;&gt;Node3</title>
<path fill="none" stroke="midnightblue" d="M226.13,-235.48C191.58,-225.09 133.08,-207.51 94.62,-195.95"/>
<polygon fill="midnightblue" stroke="midnightblue" points="95.4,-192.54 84.82,-193.01 93.39,-199.24 95.4,-192.54"/>
</g>
<!-- Node7 -->
<g id="node7" class="node">
<title>Node7</title>
<g id="a_node7"><a xlink:href="zwave__controller__connection__info_8h.html" target="_top" xlink:title=" ">
<polygon fill="none" stroke="black" points="205,-168.5 205,-198.5 348,-198.5 348,-168.5 205,-168.5"/>
<text text-anchor="start" x="213" y="-186.5" font-family="Helvetica,sans-Serif" font-size="10.00">zwave_controller_connection</text>
<text text-anchor="middle" x="276.5" y="-175.5" font-family="Helvetica,sans-Serif" font-size="10.00">_info.h</text>
</a>
</g>
</g>
<!-- Node6&#45;&gt;Node7 -->
<g id="edge6" class="edge">
<title>Node6&#45;&gt;Node7</title>
<path fill="none" stroke="midnightblue" d="M257.65,-235.48C260.3,-228.32 264.21,-217.75 267.78,-208.08"/>
<polygon fill="midnightblue" stroke="midnightblue" points="271.13,-209.12 271.32,-198.52 264.56,-206.69 271.13,-209.12"/>
</g>
<!-- Node8 -->
<g id="node8" class="node">
<title>Node8</title>
<g id="a_node8"><a xlink:href="zwave__controller__types_8h.html" target="_top" xlink:title=" ">
<polygon fill="none" stroke="black" points="223.5,-112.5 223.5,-131.5 351.5,-131.5 351.5,-112.5 223.5,-112.5"/>
<text text-anchor="middle" x="287.5" y="-119.5" font-family="Helvetica,sans-Serif" font-size="10.00">zwave_controller_types.h</text>
</a>
</g>
</g>
<!-- Node7&#45;&gt;Node8 -->
<g id="edge7" class="edge">
<title>Node7&#45;&gt;Node8</title>
<path fill="none" stroke="midnightblue" d="M279.11,-168.4C280.59,-160.38 282.47,-150.23 284.07,-141.57"/>
<polygon fill="midnightblue" stroke="midnightblue" points="287.52,-142.13 285.9,-131.66 280.64,-140.85 287.52,-142.13"/>
</g>
<!-- Node8&#45;&gt;Node4 -->
<g id="edge9" class="edge">
<title>Node8&#45;&gt;Node4</title>
<path fill="none" stroke="midnightblue" d="M223.23,-116.54C166.07,-111.08 88.63,-99.48 69.5,-76 57.49,-61.25 70.7,-41.08 83.4,-27.13"/>
<polygon fill="midnightblue" stroke="midnightblue" points="86.14,-29.33 90.62,-19.73 81.13,-24.44 86.14,-29.33"/>
</g>
<!-- Node9 -->
<g id="node9" class="node">
<title>Node9</title>
<g id="a_node9"><a xlink:title=" ">
<polygon fill="none" stroke="#bfbfbf" points="396.5,-0.5 396.5,-19.5 452.5,-19.5 452.5,-0.5 396.5,-0.5"/>
<text text-anchor="middle" x="424.5" y="-7.5" font-family="Helvetica,sans-Serif" font-size="10.00">stdbool.h</text>
</a>
</g>
</g>
<!-- Node8&#45;&gt;Node9 -->
<g id="edge8" class="edge">
<title>Node8&#45;&gt;Node9</title>
<path fill="none" stroke="midnightblue" d="M306.74,-112.47C323.69,-104.44 348.57,-91.36 367.5,-76 384.9,-61.88 401.39,-42.12 412.12,-28.11"/>
<polygon fill="midnightblue" stroke="midnightblue" points="415.11,-29.95 418.28,-19.84 409.5,-25.76 415.11,-29.95"/>
</g>
<!-- Node10 -->
<g id="node10" class="node">
<title>Node10</title>
<g id="a_node10"><a xlink:href="zwave__node__id__definitions_8h.html" target="_top" xlink:title=" ">
<polygon fill="none" stroke="black" points="78.5,-56.5 78.5,-75.5 220.5,-75.5 220.5,-56.5 78.5,-56.5"/>
<text text-anchor="middle" x="149.5" y="-63.5" font-family="Helvetica,sans-Serif" font-size="10.00">zwave_node_id_definitions.h</text>
</a>
</g>
</g>
<!-- Node8&#45;&gt;Node10 -->
<g id="edge10" class="edge">
<title>Node8&#45;&gt;Node10</title>
<path fill="none" stroke="midnightblue" d="M265.63,-112.44C242.72,-103.48 206.52,-89.31 180.63,-79.18"/>
<polygon fill="midnightblue" stroke="midnightblue" points="181.85,-75.9 171.26,-75.52 179.3,-82.42 181.85,-75.9"/>
</g>
<!-- Node11 -->
<g id="node11" class="node">
<title>Node11</title>
<g id="a_node11"><a xlink:href="zwave__generic__types_8h.html" target="_top" xlink:title=" ">
<polygon fill="none" stroke="black" points="239,-56.5 239,-75.5 358,-75.5 358,-56.5 239,-56.5"/>
<text text-anchor="middle" x="298.5" y="-63.5" font-family="Helvetica,sans-Serif" font-size="10.00">zwave_generic_types.h</text>
</a>
</g>
</g>
<!-- Node8&#45;&gt;Node11 -->
<g id="edge12" class="edge">
<title>Node8&#45;&gt;Node11</title>
<path fill="none" stroke="midnightblue" d="M289.32,-112.08C290.77,-104.93 292.87,-94.64 294.69,-85.69"/>
<polygon fill="midnightblue" stroke="midnightblue" points="298.15,-86.25 296.72,-75.75 291.29,-84.85 298.15,-86.25"/>
</g>
<!-- Node12 -->
<g id="node12" class="node">
<title>Node12</title>
<g id="a_node12"><a xlink:href="zwave__rf__region_8h.html" target="_top" xlink:title=" ">
<polygon fill="none" stroke="black" points="414.5,-56.5 414.5,-75.5 510.5,-75.5 510.5,-56.5 414.5,-56.5"/>
<text text-anchor="middle" x="462.5" y="-63.5" font-family="Helvetica,sans-Serif" font-size="10.00">zwave_rf_region.h</text>
</a>
</g>
</g>
<!-- Node8&#45;&gt;Node12 -->
<g id="edge14" class="edge">
<title>Node8&#45;&gt;Node12</title>
<path fill="none" stroke="midnightblue" d="M315.23,-112.44C344.93,-103.28 392.22,-88.69 425.17,-78.52"/>
<polygon fill="midnightblue" stroke="midnightblue" points="426.38,-81.81 434.9,-75.52 424.31,-75.12 426.38,-81.81"/>
</g>
<!-- Node10&#45;&gt;Node4 -->
<g id="edge11" class="edge">
<title>Node10&#45;&gt;Node4</title>
<path fill="none" stroke="midnightblue" d="M141.41,-56.08C134.34,-48.3 123.91,-36.8 115.35,-27.37"/>
<polygon fill="midnightblue" stroke="midnightblue" points="117.75,-24.8 108.44,-19.75 112.57,-29.51 117.75,-24.8"/>
</g>
<!-- Node11&#45;&gt;Node4 -->
<g id="edge13" class="edge">
<title>Node11&#45;&gt;Node4</title>
<path fill="none" stroke="midnightblue" d="M267.13,-56.44C231.14,-46.63 172.33,-30.59 135.06,-20.43"/>
<polygon fill="midnightblue" stroke="midnightblue" points="135.73,-16.98 125.16,-17.73 133.89,-23.73 135.73,-16.98"/>
</g>
<!-- Node12&#45;&gt;Node9 -->
<g id="edge15" class="edge">
<title>Node12&#45;&gt;Node9</title>
<path fill="none" stroke="midnightblue" d="M456.23,-56.08C450.86,-48.46 442.98,-37.26 436.42,-27.94"/>
<polygon fill="midnightblue" stroke="midnightblue" points="439.28,-25.91 430.66,-19.75 433.55,-29.94 439.28,-25.91"/>
</g>
</g>
</svg>
