<?xml version="1.0" encoding="UTF-8" standalone="no"?>
<!DOCTYPE svg PUBLIC "-//W3C//DTD SVG 1.1//EN"
 "http://www.w3.org/Graphics/SVG/1.1/DTD/svg11.dtd">
<!-- Generated by graphviz version 2.43.0 (0)
 -->
<!-- Title: applications/zpc/components/zwave/zwave_transports/multi_channel/include/zwave_multi_channel_transport.h Pages: 1 -->
<svg width="312pt" height="150pt"
 viewBox="0.00 0.00 312.00 150.00" xmlns="http://www.w3.org/2000/svg" xmlns:xlink="http://www.w3.org/1999/xlink">
<g id="graph0" class="graph" transform="scale(1 1) rotate(0) translate(4 146)">
<title>applications/zpc/components/zwave/zwave_transports/multi_channel/include/zwave_multi_channel_transport.h</title>
<!-- Node1 -->
<g id="node1" class="node">
<title>Node1</title>
<g id="a_node1"><a xlink:title=" ">
<polygon fill="#bfbfbf" stroke="black" points="79,-89.5 79,-141.5 224,-141.5 224,-89.5 79,-89.5"/>
<text text-anchor="start" x="87" y="-129.5" font-family="Helvetica,sans-Serif" font-size="10.00">applications/zpc/components</text>
<text text-anchor="start" x="87" y="-118.5" font-family="Helvetica,sans-Serif" font-size="10.00">/zwave/zwave_transports</text>
<text text-anchor="start" x="87" y="-107.5" font-family="Helvetica,sans-Serif" font-size="10.00">/multi_channel/include/zwave</text>
<text text-anchor="middle" x="151.5" y="-96.5" font-family="Helvetica,sans-Serif" font-size="10.00">_multi_channel_transport.h</text>
</a>
</g>
</g>
<!-- Node2 -->
<g id="node2" class="node">
<title>Node2</title>
<g id="a_node2"><a xlink:href="zwave__multi__channel__transport_8c.html" target="_top" xlink:title=" ">
<polygon fill="none" stroke="black" points="0,-0.5 0,-52.5 143,-52.5 143,-0.5 0,-0.5"/>
<text text-anchor="start" x="8" y="-40.5" font-family="Helvetica,sans-Serif" font-size="10.00">applications/zpc/components</text>
<text text-anchor="start" x="8" y="-29.5" font-family="Helvetica,sans-Serif" font-size="10.00">/zwave/zwave_transports</text>
<text text-anchor="start" x="8" y="-18.5" font-family="Helvetica,sans-Serif" font-size="10.00">/multi_channel/src/zwave</text>
<text text-anchor="middle" x="71.5" y="-7.5" font-family="Helvetica,sans-Serif" font-size="10.00">_multi_channel_transport.c</text>
</a>
</g>
</g>
<!-- Node1&#45;&gt;Node2 -->
<g id="edge1" class="edge">
<title>Node1&#45;&gt;Node2</title>
<path fill="none" stroke="midnightblue" d="M121.42,-81.79C112.54,-72.13 102.96,-61.71 94.59,-52.61"/>
<polygon fill="midnightblue" stroke="midnightblue" points="119.02,-84.34 128.36,-89.34 124.17,-79.61 119.02,-84.34"/>
</g>
<!-- Node3 -->
<g id="node3" class="node">
<title>Node3</title>
<g id="a_node3"><a xlink:href="zwave__transports__fixt_8c.html" target="_top" xlink:title=" ">
<polygon fill="none" stroke="black" points="161,-6 161,-47 304,-47 304,-6 161,-6"/>
<text text-anchor="start" x="169" y="-35" font-family="Helvetica,sans-Serif" font-size="10.00">applications/zpc/components</text>
<text text-anchor="start" x="169" y="-24" font-family="Helvetica,sans-Serif" font-size="10.00">/zwave/zwave_transports</text>
<text text-anchor="middle" x="232.5" y="-13" font-family="Helvetica,sans-Serif" font-size="10.00">/src/zwave_transports_fixt.c</text>
</a>
</g>
</g>
<!-- Node1&#45;&gt;Node3 -->
<g id="edge2" class="edge">
<title>Node1&#45;&gt;Node3</title>
<path fill="none" stroke="midnightblue" d="M181.9,-81.85C192.79,-70.15 204.73,-57.33 214.27,-47.08"/>
<polygon fill="midnightblue" stroke="midnightblue" points="179.18,-79.63 174.93,-89.34 184.3,-84.4 179.18,-79.63"/>
</g>
</g>
</svg>
