<?xml version="1.0" encoding="UTF-8" standalone="no"?>
<!DOCTYPE svg PUBLIC "-//W3C//DTD SVG 1.1//EN"
 "http://www.w3.org/Graphics/SVG/1.1/DTD/svg11.dtd">
<!-- Generated by graphviz version 2.43.0 (0)
 -->
<!-- Title: get_configuration_parameter_value Pages: 1 -->
<svg width="831pt" height="100pt"
 viewBox="0.00 0.00 831.00 99.50" xmlns="http://www.w3.org/2000/svg" xmlns:xlink="http://www.w3.org/1999/xlink">
<g id="graph0" class="graph" transform="scale(1 1) rotate(0) translate(4 95.5)">
<title>get_configuration_parameter_value</title>
<!-- Node1 -->
<g id="node1" class="node">
<title>Node1</title>
<g id="a_node1"><a xlink:title="Get the configuration parameter value for a given parameter id.">
<polygon fill="#bfbfbf" stroke="black" points="683,-27.5 683,-57.5 823,-57.5 823,-27.5 683,-27.5"/>
<text text-anchor="start" x="691" y="-45.5" font-family="Helvetica,sans-Serif" font-size="10.00">get_configuration_parameter</text>
<text text-anchor="middle" x="753" y="-34.5" font-family="Helvetica,sans-Serif" font-size="10.00">_value</text>
</a>
</g>
</g>
<!-- Node2 -->
<g id="node2" class="node">
<title>Node2</title>
<g id="a_node2"><a xlink:href="zwave__command__class__configuration__control_8c.html#a1223d03c608c7bb10a384acefb70f507" target="_top" xlink:title="Sets the default parameters properties for a parameter in case a node does not support Properties Get...">
<polygon fill="none" stroke="black" points="534,-27.5 534,-57.5 647,-57.5 647,-27.5 534,-27.5"/>
<text text-anchor="start" x="542" y="-45.5" font-family="Helvetica,sans-Serif" font-size="10.00">set_default_parameter</text>
<text text-anchor="middle" x="590.5" y="-34.5" font-family="Helvetica,sans-Serif" font-size="10.00">_properties</text>
</a>
</g>
</g>
<!-- Node1&#45;&gt;Node2 -->
<g id="edge1" class="edge">
<title>Node1&#45;&gt;Node2</title>
<path fill="none" stroke="midnightblue" d="M672.48,-42.5C663.88,-42.5 655.28,-42.5 647.05,-42.5"/>
<polygon fill="midnightblue" stroke="midnightblue" points="672.54,-46 682.54,-42.5 672.54,-39 672.54,-46"/>
</g>
<!-- Node3 -->
<g id="node3" class="node">
<title>Node3</title>
<g id="a_node3"><a xlink:href="zwave__command__class__configuration__control_8c.html#a3c833fc536b7107f042ee17ae8e95ac4" target="_top" xlink:title="Attribute callback function listening for Configuration Paramter ID creations and creating all the su...">
<polygon fill="none" stroke="black" points="344,-50 344,-91 498,-91 498,-50 344,-50"/>
<text text-anchor="start" x="352" y="-79" font-family="Helvetica,sans-Serif" font-size="10.00">zwave_command_class</text>
<text text-anchor="start" x="352" y="-68" font-family="Helvetica,sans-Serif" font-size="10.00">_configuration_on_configuration</text>
<text text-anchor="middle" x="421" y="-57" font-family="Helvetica,sans-Serif" font-size="10.00">_parameter_created</text>
</a>
</g>
</g>
<!-- Node2&#45;&gt;Node3 -->
<g id="edge2" class="edge">
<title>Node2&#45;&gt;Node3</title>
<path fill="none" stroke="midnightblue" d="M523.65,-53.51C515.27,-54.91 506.63,-56.35 498.11,-57.78"/>
<polygon fill="midnightblue" stroke="midnightblue" points="524.44,-56.92 533.72,-51.82 523.28,-50.02 524.44,-56.92"/>
</g>
<!-- Node6 -->
<g id="node6" class="node">
<title>Node6</title>
<g id="a_node6"><a xlink:href="zwave__command__class__configuration__control_8c.html#a8e3d58cc2dd59303c0affd4e8305acc9" target="_top" xlink:title="Generates a Configuration Properties Get or fills up data automatically if the command is not support...">
<polygon fill="none" stroke="black" points="349,-0.5 349,-30.5 493,-30.5 493,-0.5 349,-0.5"/>
<text text-anchor="start" x="357" y="-18.5" font-family="Helvetica,sans-Serif" font-size="10.00">zwave_command_class</text>
<text text-anchor="middle" x="421" y="-7.5" font-family="Helvetica,sans-Serif" font-size="10.00">_configuration_properties_get</text>
</a>
</g>
</g>
<!-- Node2&#45;&gt;Node6 -->
<g id="edge5" class="edge">
<title>Node2&#45;&gt;Node6</title>
<path fill="none" stroke="midnightblue" d="M523.78,-31.91C513.69,-30.28 503.23,-28.59 493.03,-26.95"/>
<polygon fill="midnightblue" stroke="midnightblue" points="523.3,-35.37 533.72,-33.51 524.41,-28.46 523.3,-35.37"/>
</g>
<!-- Node4 -->
<g id="node4" class="node">
<title>Node4</title>
<g id="a_node4"><a xlink:href="group__zwave__command__class__configuration.html#gacc11ad9afa837acce0d1aada6408e1ce" target="_top" xlink:title="This function initialize the Configuration Command Class handler.">
<polygon fill="none" stroke="black" points="186,-27.5 186,-57.5 308,-57.5 308,-27.5 186,-27.5"/>
<text text-anchor="start" x="194" y="-45.5" font-family="Helvetica,sans-Serif" font-size="10.00">zwave_command_class</text>
<text text-anchor="middle" x="247" y="-34.5" font-family="Helvetica,sans-Serif" font-size="10.00">_configuration_init</text>
</a>
</g>
</g>
<!-- Node3&#45;&gt;Node4 -->
<g id="edge3" class="edge">
<title>Node3&#45;&gt;Node4</title>
<path fill="none" stroke="midnightblue" d="M333.68,-56.45C325.04,-55.04 316.41,-53.64 308.13,-52.29"/>
<polygon fill="midnightblue" stroke="midnightblue" points="333.37,-59.94 343.81,-58.1 334.5,-53.04 333.37,-59.94"/>
</g>
<!-- Node5 -->
<g id="node5" class="node">
<title>Node5</title>
<g id="a_node5"><a xlink:href="group__command__classes__fixt.html#ga5272651939ced1723158340039e8da19" target="_top" xlink:title="Setup fixture for Z&#45;Wave Command Classes.">
<polygon fill="none" stroke="black" points="0,-33 0,-52 150,-52 150,-33 0,-33"/>
<text text-anchor="middle" x="75" y="-40" font-family="Helvetica,sans-Serif" font-size="10.00">zwave_command_classes_init</text>
</a>
</g>
</g>
<!-- Node4&#45;&gt;Node5 -->
<g id="edge4" class="edge">
<title>Node4&#45;&gt;Node5</title>
<path fill="none" stroke="midnightblue" d="M175.51,-42.5C167.16,-42.5 158.61,-42.5 150.21,-42.5"/>
<polygon fill="midnightblue" stroke="midnightblue" points="175.59,-46 185.59,-42.5 175.59,-39 175.59,-46"/>
</g>
<!-- Node6&#45;&gt;Node4 -->
<g id="edge6" class="edge">
<title>Node6&#45;&gt;Node4</title>
<path fill="none" stroke="midnightblue" d="M338.37,-28.31C328.15,-29.92 317.84,-31.54 308.03,-33.08"/>
<polygon fill="midnightblue" stroke="midnightblue" points="339.21,-31.72 348.55,-26.72 338.13,-24.81 339.21,-31.72"/>
</g>
</g>
</svg>
