<?xml version="1.0" encoding="UTF-8" standalone="no"?>
<!DOCTYPE svg PUBLIC "-//W3C//DTD SVG 1.1//EN"
 "http://www.w3.org/Graphics/SVG/1.1/DTD/svg11.dtd">
<!-- Generated by graphviz version 2.43.0 (0)
 -->
<!-- Title: applications/zpc/components/zwave_command_classes/include/zwave_command_class_supervision.h Pages: 1 -->
<svg width="562pt" height="128pt"
 viewBox="0.00 0.00 561.50 128.00" xmlns="http://www.w3.org/2000/svg" xmlns:xlink="http://www.w3.org/1999/xlink">
<g id="graph0" class="graph" transform="scale(1 1) rotate(0) translate(4 124)">
<title>applications/zpc/components/zwave_command_classes/include/zwave_command_class_supervision.h</title>
<!-- Node1 -->
<g id="node1" class="node">
<title>Node1</title>
<g id="a_node1"><a xlink:title=" ">
<polygon fill="#bfbfbf" stroke="black" points="185.5,-78.5 185.5,-119.5 373.5,-119.5 373.5,-78.5 185.5,-78.5"/>
<text text-anchor="start" x="193.5" y="-107.5" font-family="Helvetica,sans-Serif" font-size="10.00">applications/zpc/components</text>
<text text-anchor="start" x="193.5" y="-96.5" font-family="Helvetica,sans-Serif" font-size="10.00">/zwave_command_classes/include</text>
<text text-anchor="middle" x="279.5" y="-85.5" font-family="Helvetica,sans-Serif" font-size="10.00">/zwave_command_class_supervision.h</text>
</a>
</g>
</g>
<!-- Node2 -->
<g id="node2" class="node">
<title>Node2</title>
<g id="a_node2"><a xlink:href="zpc__attribute__resolver__send_8c.html" target="_top" xlink:title=" ">
<polygon fill="none" stroke="black" points="0,-0.5 0,-41.5 167,-41.5 167,-0.5 0,-0.5"/>
<text text-anchor="start" x="8" y="-29.5" font-family="Helvetica,sans-Serif" font-size="10.00">applications/zpc/components</text>
<text text-anchor="start" x="8" y="-18.5" font-family="Helvetica,sans-Serif" font-size="10.00">/zpc_attribute_resolver</text>
<text text-anchor="middle" x="83.5" y="-7.5" font-family="Helvetica,sans-Serif" font-size="10.00">/src/zpc_attribute_resolver_send.c</text>
</a>
</g>
</g>
<!-- Node1&#45;&gt;Node2 -->
<g id="edge1" class="edge">
<title>Node1&#45;&gt;Node2</title>
<path fill="none" stroke="midnightblue" d="M219.53,-74.75C192.1,-64.11 159.95,-51.65 133.8,-41.51"/>
<polygon fill="midnightblue" stroke="midnightblue" points="218.44,-78.08 229.03,-78.43 220.97,-71.55 218.44,-78.08"/>
</g>
<!-- Node3 -->
<g id="node3" class="node">
<title>Node3</title>
<g id="a_node3"><a xlink:href="zwave__command__class__supervision_8c.html" target="_top" xlink:title=" ">
<polygon fill="none" stroke="black" points="185.5,-0.5 185.5,-41.5 373.5,-41.5 373.5,-0.5 185.5,-0.5"/>
<text text-anchor="start" x="193.5" y="-29.5" font-family="Helvetica,sans-Serif" font-size="10.00">applications/zpc/components</text>
<text text-anchor="start" x="193.5" y="-18.5" font-family="Helvetica,sans-Serif" font-size="10.00">/zwave_command_classes/src</text>
<text text-anchor="middle" x="279.5" y="-7.5" font-family="Helvetica,sans-Serif" font-size="10.00">/zwave_command_class_supervision.c</text>
</a>
</g>
</g>
<!-- Node1&#45;&gt;Node3 -->
<g id="edge2" class="edge">
<title>Node1&#45;&gt;Node3</title>
<path fill="none" stroke="midnightblue" d="M279.5,-68.3C279.5,-59.3 279.5,-49.65 279.5,-41.51"/>
<polygon fill="midnightblue" stroke="midnightblue" points="276,-68.43 279.5,-78.43 283,-68.43 276,-68.43"/>
</g>
<!-- Node4 -->
<g id="node4" class="node">
<title>Node4</title>
<g id="a_node4"><a xlink:href="zwave__command__classes__fixt_8c.html" target="_top" xlink:title=" ">
<polygon fill="none" stroke="black" points="391.5,-0.5 391.5,-41.5 553.5,-41.5 553.5,-0.5 391.5,-0.5"/>
<text text-anchor="start" x="399.5" y="-29.5" font-family="Helvetica,sans-Serif" font-size="10.00">applications/zpc/components</text>
<text text-anchor="start" x="399.5" y="-18.5" font-family="Helvetica,sans-Serif" font-size="10.00">/zwave_command_classes/src</text>
<text text-anchor="middle" x="472.5" y="-7.5" font-family="Helvetica,sans-Serif" font-size="10.00">/zwave_command_classes_fixt.c</text>
</a>
</g>
</g>
<!-- Node1&#45;&gt;Node4 -->
<g id="edge3" class="edge">
<title>Node1&#45;&gt;Node4</title>
<path fill="none" stroke="midnightblue" d="M338.55,-74.75C365.56,-64.11 397.22,-51.65 422.97,-41.51"/>
<polygon fill="midnightblue" stroke="midnightblue" points="337.22,-71.51 329.2,-78.43 339.79,-78.02 337.22,-71.51"/>
</g>
</g>
</svg>
