<?xml version="1.0" encoding="UTF-8" standalone="no"?>
<!DOCTYPE svg PUBLIC "-//W3C//DTD SVG 1.1//EN"
 "http://www.w3.org/Graphics/SVG/1.1/DTD/svg11.dtd">
<!-- Generated by graphviz version 2.43.0 (0)
 -->
<!-- Title: set_user_code_to_available Pages: 1 -->
<svg width="959pt" height="88pt"
 viewBox="0.00 0.00 959.00 88.00" xmlns="http://www.w3.org/2000/svg" xmlns:xlink="http://www.w3.org/1999/xlink">
<g id="graph0" class="graph" transform="scale(1 1) rotate(0) translate(4 84)">
<title>set_user_code_to_available</title>
<!-- Node1 -->
<g id="node1" class="node">
<title>Node1</title>
<g id="a_node1"><a xlink:title="Checks if the user_id_node type is correct and sets the user code data to Available underneath.">
<polygon fill="#bfbfbf" stroke="black" points="814,-30 814,-49 951,-49 951,-30 814,-30"/>
<text text-anchor="middle" x="882.5" y="-37" font-family="Helvetica,sans-Serif" font-size="10.00">set_user_code_to_available</text>
</a>
</g>
</g>
<!-- Node2 -->
<g id="node2" class="node">
<title>Node2</title>
<g id="a_node2"><a xlink:href="zwave__command__class__user__code_8c.html#ac760e0661dfab5ccfd5defe73c919103" target="_top" xlink:title="Navigates up the tree from a node and makes sure that all user codes are set to &quot;disabled&quot; with no pi...">
<polygon fill="none" stroke="black" points="672.5,-49.5 672.5,-79.5 773.5,-79.5 773.5,-49.5 672.5,-49.5"/>
<text text-anchor="start" x="680.5" y="-67.5" font-family="Helvetica,sans-Serif" font-size="10.00">set_all_user_codes</text>
<text text-anchor="middle" x="723" y="-56.5" font-family="Helvetica,sans-Serif" font-size="10.00">_to_available</text>
</a>
</g>
</g>
<!-- Node1&#45;&gt;Node2 -->
<g id="edge1" class="edge">
<title>Node1&#45;&gt;Node2</title>
<path fill="none" stroke="midnightblue" d="M811.38,-50.63C798.63,-52.65 785.58,-54.72 773.59,-56.63"/>
<polygon fill="midnightblue" stroke="midnightblue" points="812.18,-54.05 821.51,-49.02 811.08,-47.13 812.18,-54.05"/>
</g>
<!-- Node6 -->
<g id="node6" class="node">
<title>Node6</title>
<g id="a_node6"><a xlink:href="zwave__command__class__user__code_8c.html#ab55b297e55eb5c9214fba171dc0687f2" target="_top" xlink:title="Sets all users Id in the Range [first_id..last_id[ to available (user code not set)">
<polygon fill="none" stroke="black" points="668,-0.5 668,-30.5 778,-30.5 778,-0.5 668,-0.5"/>
<text text-anchor="start" x="676" y="-18.5" font-family="Helvetica,sans-Serif" font-size="10.00">set_user_code_range</text>
<text text-anchor="middle" x="723" y="-7.5" font-family="Helvetica,sans-Serif" font-size="10.00">_to_available</text>
</a>
</g>
</g>
<!-- Node1&#45;&gt;Node6 -->
<g id="edge5" class="edge">
<title>Node1&#45;&gt;Node6</title>
<path fill="none" stroke="midnightblue" d="M808.6,-28.39C798.33,-26.83 787.93,-25.24 778.1,-23.74"/>
<polygon fill="midnightblue" stroke="midnightblue" points="808.39,-31.9 818.8,-29.95 809.44,-24.98 808.39,-31.9"/>
</g>
<!-- Node3 -->
<g id="node3" class="node">
<title>Node3</title>
<g id="a_node3"><a xlink:href="zwave__command__class__user__code_8c.html#ac1b7b4decaac08fb1c13f86d1f7ce134" target="_top" xlink:title="Handles the Send Data Complete for a &quot;delete all user codes&quot;.">
<polygon fill="none" stroke="black" points="363,-49.5 363,-79.5 463,-79.5 463,-49.5 363,-49.5"/>
<text text-anchor="start" x="371" y="-67.5" font-family="Helvetica,sans-Serif" font-size="10.00">on_delete_all_send</text>
<text text-anchor="middle" x="413" y="-56.5" font-family="Helvetica,sans-Serif" font-size="10.00">_data_complete</text>
</a>
</g>
</g>
<!-- Node2&#45;&gt;Node3 -->
<g id="edge2" class="edge">
<title>Node2&#45;&gt;Node3</title>
<path fill="none" stroke="midnightblue" d="M662.06,-64.5C604.09,-64.5 517.3,-64.5 463.25,-64.5"/>
<polygon fill="midnightblue" stroke="midnightblue" points="662.17,-68 672.17,-64.5 662.17,-61 662.17,-68"/>
</g>
<!-- Node4 -->
<g id="node4" class="node">
<title>Node4</title>
<g id="a_node4"><a xlink:href="group__zwave__command__class__user__code.html#ga3903c1853dfc3b999bcb5570d3355a35" target="_top" xlink:title="Initializes the User Code Command Class handler.">
<polygon fill="none" stroke="black" points="186,-24.5 186,-54.5 308,-54.5 308,-24.5 186,-24.5"/>
<text text-anchor="start" x="194" y="-42.5" font-family="Helvetica,sans-Serif" font-size="10.00">zwave_command_class</text>
<text text-anchor="middle" x="247" y="-31.5" font-family="Helvetica,sans-Serif" font-size="10.00">_user_code_init</text>
</a>
</g>
</g>
<!-- Node3&#45;&gt;Node4 -->
<g id="edge3" class="edge">
<title>Node3&#45;&gt;Node4</title>
<path fill="none" stroke="midnightblue" d="M352.5,-55.43C338.08,-53.23 322.65,-50.88 308.19,-48.68"/>
<polygon fill="midnightblue" stroke="midnightblue" points="352.38,-58.95 362.79,-57 353.44,-52.03 352.38,-58.95"/>
</g>
<!-- Node5 -->
<g id="node5" class="node">
<title>Node5</title>
<g id="a_node5"><a xlink:href="group__command__classes__fixt.html#ga5272651939ced1723158340039e8da19" target="_top" xlink:title="Setup fixture for Z&#45;Wave Command Classes.">
<polygon fill="none" stroke="black" points="0,-30 0,-49 150,-49 150,-30 0,-30"/>
<text text-anchor="middle" x="75" y="-37" font-family="Helvetica,sans-Serif" font-size="10.00">zwave_command_classes_init</text>
</a>
</g>
</g>
<!-- Node4&#45;&gt;Node5 -->
<g id="edge4" class="edge">
<title>Node4&#45;&gt;Node5</title>
<path fill="none" stroke="midnightblue" d="M175.51,-39.5C167.16,-39.5 158.61,-39.5 150.21,-39.5"/>
<polygon fill="midnightblue" stroke="midnightblue" points="175.59,-43 185.59,-39.5 175.59,-36 175.59,-43"/>
</g>
<!-- Node7 -->
<g id="node7" class="node">
<title>Node7</title>
<g id="a_node7"><a xlink:href="zwave__command__class__user__code_8c.html#a7950ee5e786a47a099c4a4a4f74f65bb" target="_top" xlink:title="Process an incoming Extended User Code Report Command.">
<polygon fill="none" stroke="black" points="518,-0.5 518,-30.5 632,-30.5 632,-0.5 518,-0.5"/>
<text text-anchor="start" x="526" y="-18.5" font-family="Helvetica,sans-Serif" font-size="10.00">handle_extended_user</text>
<text text-anchor="middle" x="575" y="-7.5" font-family="Helvetica,sans-Serif" font-size="10.00">_code_report</text>
</a>
</g>
</g>
<!-- Node6&#45;&gt;Node7 -->
<g id="edge6" class="edge">
<title>Node6&#45;&gt;Node7</title>
<path fill="none" stroke="midnightblue" d="M657.52,-15.5C649.13,-15.5 640.6,-15.5 632.36,-15.5"/>
<polygon fill="midnightblue" stroke="midnightblue" points="657.64,-19 667.63,-15.5 657.63,-12 657.64,-19"/>
</g>
<!-- Node8 -->
<g id="node8" class="node">
<title>Node8</title>
<g id="a_node8"><a xlink:href="zwave__command__class__user__code_8c.html#aab7f614cc08c431edb13947ead318558" target="_top" xlink:title="Dispatches incoming User Code Commands to individual command handlers.">
<polygon fill="none" stroke="black" points="344,-0.5 344,-30.5 482,-30.5 482,-0.5 344,-0.5"/>
<text text-anchor="start" x="352" y="-18.5" font-family="Helvetica,sans-Serif" font-size="10.00">zwave_command_class</text>
<text text-anchor="middle" x="413" y="-7.5" font-family="Helvetica,sans-Serif" font-size="10.00">_user_code_control_handler</text>
</a>
</g>
</g>
<!-- Node7&#45;&gt;Node8 -->
<g id="edge7" class="edge">
<title>Node7&#45;&gt;Node8</title>
<path fill="none" stroke="midnightblue" d="M507.53,-15.5C499.18,-15.5 490.63,-15.5 482.25,-15.5"/>
<polygon fill="midnightblue" stroke="midnightblue" points="507.59,-19 517.59,-15.5 507.59,-12 507.59,-19"/>
</g>
<!-- Node8&#45;&gt;Node4 -->
<g id="edge8" class="edge">
<title>Node8&#45;&gt;Node4</title>
<path fill="none" stroke="midnightblue" d="M333.78,-26.95C325.14,-28.21 316.44,-29.48 308.07,-30.71"/>
<polygon fill="midnightblue" stroke="midnightblue" points="334.49,-30.38 343.87,-25.47 333.47,-23.45 334.49,-30.38"/>
</g>
</g>
</svg>
