<?xml version="1.0" encoding="UTF-8" standalone="no"?>
<!DOCTYPE svg PUBLIC "-//W3C//DTD SVG 1.1//EN"
 "http://www.w3.org/Graphics/SVG/1.1/DTD/svg11.dtd">
<!-- Generated by graphviz version 2.43.0 (0)
 -->
<!-- Title: applications/zpc/components/zwave_command_classes/src/zwave_command_class_multi_channel.c Pages: 1 -->
<svg width="1966pt" height="575pt"
 viewBox="0.00 0.00 1965.50 575.00" xmlns="http://www.w3.org/2000/svg" xmlns:xlink="http://www.w3.org/1999/xlink">
<g id="graph0" class="graph" transform="scale(1 1) rotate(0) translate(4 571)">
<title>applications/zpc/components/zwave_command_classes/src/zwave_command_class_multi_channel.c</title>
<!-- Node1 -->
<g id="node1" class="node">
<title>Node1</title>
<g id="a_node1"><a xlink:title=" ">
<polygon fill="#bfbfbf" stroke="black" points="1121,-514.5 1121,-566.5 1273,-566.5 1273,-514.5 1121,-514.5"/>
<text text-anchor="start" x="1129" y="-554.5" font-family="Helvetica,sans-Serif" font-size="10.00">applications/zpc/components</text>
<text text-anchor="start" x="1129" y="-543.5" font-family="Helvetica,sans-Serif" font-size="10.00">/zwave_command_classes/src</text>
<text text-anchor="start" x="1129" y="-532.5" font-family="Helvetica,sans-Serif" font-size="10.00">/zwave_command_class_multi</text>
<text text-anchor="middle" x="1197" y="-521.5" font-family="Helvetica,sans-Serif" font-size="10.00">_channel.c</text>
</a>
</g>
</g>
<!-- Node2 -->
<g id="node2" class="node">
<title>Node2</title>
<g id="a_node2"><a xlink:href="zwave__command__class__multi__channel_8h.html" target="_top" xlink:title=" ">
<polygon fill="none" stroke="black" points="1226,-313.5 1226,-343.5 1348,-343.5 1348,-313.5 1226,-313.5"/>
<text text-anchor="start" x="1234" y="-331.5" font-family="Helvetica,sans-Serif" font-size="10.00">zwave_command_class</text>
<text text-anchor="middle" x="1287" y="-320.5" font-family="Helvetica,sans-Serif" font-size="10.00">_multi_channel.h</text>
</a>
</g>
</g>
<!-- Node1&#45;&gt;Node2 -->
<g id="edge1" class="edge">
<title>Node1&#45;&gt;Node2</title>
<path fill="none" stroke="midnightblue" d="M1186.04,-514.37C1173.3,-480.97 1157.11,-421.35 1183,-380 1191.95,-365.7 1206.24,-355.35 1221.39,-347.89"/>
<polygon fill="midnightblue" stroke="midnightblue" points="1223.21,-350.91 1230.9,-343.61 1220.34,-344.52 1223.21,-350.91"/>
</g>
<!-- Node5 -->
<g id="node5" class="node">
<title>Node5</title>
<g id="a_node5"><a xlink:href="zwave__controller__connection__info_8h.html" target="_top" xlink:title=" ">
<polygon fill="none" stroke="black" points="518.5,-179.5 518.5,-209.5 661.5,-209.5 661.5,-179.5 518.5,-179.5"/>
<text text-anchor="start" x="526.5" y="-197.5" font-family="Helvetica,sans-Serif" font-size="10.00">zwave_controller_connection</text>
<text text-anchor="middle" x="590" y="-186.5" font-family="Helvetica,sans-Serif" font-size="10.00">_info.h</text>
</a>
</g>
</g>
<!-- Node1&#45;&gt;Node5 -->
<g id="edge53" class="edge">
<title>Node1&#45;&gt;Node5</title>
<path fill="none" stroke="midnightblue" d="M1120.99,-533.08C1072.43,-525.86 1010.16,-510.54 964,-478 861.83,-405.98 908.15,-316.62 805,-246 793.62,-238.21 727.13,-223.23 671.07,-211.6"/>
<polygon fill="midnightblue" stroke="midnightblue" points="671.6,-208.13 661.1,-209.54 670.18,-214.99 671.6,-208.13"/>
</g>
<!-- Node7 -->
<g id="node7" class="node">
<title>Node7</title>
<g id="a_node7"><a xlink:title=" ">
<polygon fill="none" stroke="#bfbfbf" points="178,-0.5 178,-19.5 234,-19.5 234,-0.5 178,-0.5"/>
<text text-anchor="middle" x="206" y="-7.5" font-family="Helvetica,sans-Serif" font-size="10.00">stdbool.h</text>
</a>
</g>
</g>
<!-- Node1&#45;&gt;Node7 -->
<g id="edge18" class="edge">
<title>Node1&#45;&gt;Node7</title>
<path fill="none" stroke="midnightblue" d="M1120.76,-538.44C857.1,-533.76 0,-509.84 0,-396.5 0,-396.5 0,-396.5 0,-126.5 0,-50.5 108.01,-24 167.61,-15.17"/>
<polygon fill="midnightblue" stroke="midnightblue" points="168.36,-18.6 177.79,-13.76 167.4,-11.66 168.36,-18.6"/>
</g>
<!-- Node11 -->
<g id="node11" class="node">
<title>Node11</title>
<g id="a_node11"><a xlink:title=" ">
<polygon fill="none" stroke="#bfbfbf" points="1487.5,-252 1487.5,-271 1574.5,-271 1574.5,-252 1487.5,-252"/>
<text text-anchor="middle" x="1531" y="-259" font-family="Helvetica,sans-Serif" font-size="10.00">attribute_store.h</text>
</a>
</g>
</g>
<!-- Node1&#45;&gt;Node11 -->
<g id="edge73" class="edge">
<title>Node1&#45;&gt;Node11</title>
<path fill="none" stroke="midnightblue" d="M1273.25,-536.34C1361.22,-530.92 1497.9,-516.39 1530,-478 1554.61,-448.57 1540.43,-327.98 1533.82,-281.19"/>
<polygon fill="midnightblue" stroke="midnightblue" points="1537.27,-280.6 1532.36,-271.21 1530.34,-281.61 1537.27,-280.6"/>
</g>
<!-- Node13 -->
<g id="node13" class="node">
<title>Node13</title>
<g id="a_node13"><a xlink:title=" ">
<polygon fill="none" stroke="#bfbfbf" points="973,-453 973,-472 1025,-472 1025,-453 973,-453"/>
<text text-anchor="middle" x="999" y="-460" font-family="Helvetica,sans-Serif" font-size="10.00">assert.h</text>
</a>
</g>
</g>
<!-- Node1&#45;&gt;Node13 -->
<g id="edge17" class="edge">
<title>Node1&#45;&gt;Node13</title>
<path fill="none" stroke="midnightblue" d="M1129.01,-514.4C1099.7,-503.44 1065.08,-490.3 1034,-478 1032.36,-477.35 1030.68,-476.68 1028.99,-476"/>
<polygon fill="midnightblue" stroke="midnightblue" points="1029.89,-472.59 1019.31,-472.04 1027.25,-479.07 1029.89,-472.59"/>
</g>
<!-- Node14 -->
<g id="node14" class="node">
<title>Node14</title>
<g id="a_node14"><a xlink:title=" ">
<polygon fill="none" stroke="#bfbfbf" points="1043.5,-453 1043.5,-472 1092.5,-472 1092.5,-453 1043.5,-453"/>
<text text-anchor="middle" x="1068" y="-460" font-family="Helvetica,sans-Serif" font-size="10.00">string.h</text>
</a>
</g>
</g>
<!-- Node1&#45;&gt;Node14 -->
<g id="edge19" class="edge">
<title>Node1&#45;&gt;Node14</title>
<path fill="none" stroke="midnightblue" d="M1154.4,-514.4C1133.47,-502.07 1109.05,-487.69 1091.52,-477.36"/>
<polygon fill="midnightblue" stroke="midnightblue" points="1092.95,-474.14 1082.56,-472.08 1089.4,-480.17 1092.95,-474.14"/>
</g>
<!-- Node15 -->
<g id="node15" class="node">
<title>Node15</title>
<g id="a_node15"><a xlink:title=" ">
<polygon fill="none" stroke="#bfbfbf" points="1560,-386 1560,-405 1648,-405 1648,-386 1560,-386"/>
<text text-anchor="middle" x="1604" y="-393" font-family="Helvetica,sans-Serif" font-size="10.00">ZW_classcmd.h</text>
</a>
</g>
</g>
<!-- Node1&#45;&gt;Node15 -->
<g id="edge20" class="edge">
<title>Node1&#45;&gt;Node15</title>
<path fill="none" stroke="midnightblue" d="M1273.33,-534.73C1366.77,-527.54 1518.15,-511.09 1563,-478 1583.78,-462.67 1594.72,-433.82 1599.92,-414.88"/>
<polygon fill="midnightblue" stroke="midnightblue" points="1603.35,-415.6 1602.36,-405.05 1596.56,-413.92 1603.35,-415.6"/>
</g>
<!-- Node16 -->
<g id="node16" class="node">
<title>Node16</title>
<g id="a_node16"><a xlink:href="zwave__command__handler_8h.html" target="_top" xlink:title=" ">
<polygon fill="none" stroke="black" points="501.5,-453 501.5,-472 638.5,-472 638.5,-453 501.5,-453"/>
<text text-anchor="middle" x="570" y="-460" font-family="Helvetica,sans-Serif" font-size="10.00">zwave_command_handler.h</text>
</a>
</g>
</g>
<!-- Node1&#45;&gt;Node16 -->
<g id="edge21" class="edge">
<title>Node1&#45;&gt;Node16</title>
<path fill="none" stroke="midnightblue" d="M1120.74,-530.26C1000.91,-515.73 769.71,-487.71 648.5,-473.02"/>
<polygon fill="midnightblue" stroke="midnightblue" points="648.89,-469.54 638.54,-471.81 648.05,-476.49 648.89,-469.54"/>
</g>
<!-- Node24 -->
<g id="node24" class="node">
<title>Node24</title>
<g id="a_node24"><a xlink:href="zwave__rx_8h.html" target="_top" xlink:title=" ">
<polygon fill="none" stroke="black" points="678.5,-386 678.5,-405 745.5,-405 745.5,-386 678.5,-386"/>
<text text-anchor="middle" x="712" y="-393" font-family="Helvetica,sans-Serif" font-size="10.00">zwave_rx.h</text>
</a>
</g>
</g>
<!-- Node1&#45;&gt;Node24 -->
<g id="edge72" class="edge">
<title>Node1&#45;&gt;Node24</title>
<path fill="none" stroke="midnightblue" d="M1120.88,-531.76C1053.12,-523.36 952.02,-507.07 868,-478 817.45,-460.51 763.09,-428.83 733.76,-410.55"/>
<polygon fill="midnightblue" stroke="midnightblue" points="735.49,-407.49 725.16,-405.11 731.75,-413.41 735.49,-407.49"/>
</g>
<!-- Node26 -->
<g id="node26" class="node">
<title>Node26</title>
<g id="a_node26"><a xlink:href="zwave__controller__utils_8h.html" target="_top" xlink:title=" ">
<polygon fill="none" stroke="black" points="962,-319 962,-338 1084,-338 1084,-319 962,-319"/>
<text text-anchor="middle" x="1023" y="-326" font-family="Helvetica,sans-Serif" font-size="10.00">zwave_controller_utils.h</text>
</a>
</g>
</g>
<!-- Node1&#45;&gt;Node26 -->
<g id="edge54" class="edge">
<title>Node1&#45;&gt;Node26</title>
<path fill="none" stroke="midnightblue" d="M1176.01,-514.17C1139.86,-470.54 1066.83,-382.39 1036.59,-345.9"/>
<polygon fill="midnightblue" stroke="midnightblue" points="1039.25,-343.63 1030.18,-338.17 1033.86,-348.1 1039.25,-343.63"/>
</g>
<!-- Node31 -->
<g id="node31" class="node">
<title>Node31</title>
<g id="a_node31"><a xlink:href="zwave__command__class__indices_8h.html" target="_top" xlink:title=" ">
<polygon fill="none" stroke="black" points="1263,-447.5 1263,-477.5 1385,-477.5 1385,-447.5 1263,-447.5"/>
<text text-anchor="start" x="1271" y="-465.5" font-family="Helvetica,sans-Serif" font-size="10.00">zwave_command_class</text>
<text text-anchor="middle" x="1324" y="-454.5" font-family="Helvetica,sans-Serif" font-size="10.00">_indices.h</text>
</a>
</g>
</g>
<!-- Node1&#45;&gt;Node31 -->
<g id="edge71" class="edge">
<title>Node1&#45;&gt;Node31</title>
<path fill="none" stroke="midnightblue" d="M1238.94,-514.4C1255.97,-504.21 1275.35,-492.61 1291.3,-483.07"/>
<polygon fill="midnightblue" stroke="midnightblue" points="1293.48,-485.84 1300.26,-477.71 1289.88,-479.84 1293.48,-485.84"/>
</g>
<!-- Node32 -->
<g id="node32" class="node">
<title>Node32</title>
<g id="a_node32"><a xlink:title=" ">
<polygon fill="none" stroke="#bfbfbf" points="1403,-453 1403,-472 1521,-472 1521,-453 1403,-453"/>
<text text-anchor="middle" x="1462" y="-460" font-family="Helvetica,sans-Serif" font-size="10.00">attribute_store_helper.h</text>
</a>
</g>
</g>
<!-- Node1&#45;&gt;Node32 -->
<g id="edge74" class="edge">
<title>Node1&#45;&gt;Node32</title>
<path fill="none" stroke="midnightblue" d="M1273.29,-517.62C1321.96,-503.66 1383.05,-486.14 1422.3,-474.88"/>
<polygon fill="midnightblue" stroke="midnightblue" points="1423.39,-478.21 1432.04,-472.09 1421.46,-471.49 1423.39,-478.21"/>
</g>
<!-- Node33 -->
<g id="node33" class="node">
<title>Node33</title>
<g id="a_node33"><a xlink:href="zpc__attribute__store__network__helper_8h.html" target="_top" xlink:title=" ">
<polygon fill="none" stroke="black" points="1404,-313.5 1404,-343.5 1504,-343.5 1504,-313.5 1404,-313.5"/>
<text text-anchor="start" x="1412" y="-331.5" font-family="Helvetica,sans-Serif" font-size="10.00">zpc_attribute_store</text>
<text text-anchor="middle" x="1454" y="-320.5" font-family="Helvetica,sans-Serif" font-size="10.00">_network_helper.h</text>
</a>
</g>
</g>
<!-- Node1&#45;&gt;Node33 -->
<g id="edge75" class="edge">
<title>Node1&#45;&gt;Node33</title>
<path fill="none" stroke="midnightblue" d="M1208.22,-514.43C1218.12,-494.4 1234.05,-466.53 1254,-447 1299.97,-401.98 1366.47,-367.39 1409.96,-347.74"/>
<polygon fill="midnightblue" stroke="midnightblue" points="1411.43,-350.92 1419.14,-343.66 1408.58,-344.52 1411.43,-350.92"/>
</g>
<!-- Node34 -->
<g id="node34" class="node">
<title>Node34</title>
<g id="a_node34"><a xlink:href="zwave__unid_8h.html" target="_top" xlink:title=" ">
<polygon fill="none" stroke="black" points="1408.5,-185 1408.5,-204 1485.5,-204 1485.5,-185 1408.5,-185"/>
<text text-anchor="middle" x="1447" y="-192" font-family="Helvetica,sans-Serif" font-size="10.00">zwave_unid.h</text>
</a>
</g>
</g>
<!-- Node1&#45;&gt;Node34 -->
<g id="edge88" class="edge">
<title>Node1&#45;&gt;Node34</title>
<path fill="none" stroke="midnightblue" d="M1201.41,-514.13C1205.6,-494.7 1213.2,-467.78 1226,-447 1248.41,-410.6 1260.93,-405.81 1295,-380 1320.4,-360.76 1334.26,-366.32 1357,-344 1397.23,-304.52 1426.7,-243.51 1439.67,-213.46"/>
<polygon fill="midnightblue" stroke="midnightblue" points="1442.91,-214.79 1443.56,-204.22 1436.46,-212.08 1442.91,-214.79"/>
</g>
<!-- Node35 -->
<g id="node35" class="node">
<title>Node35</title>
<g id="a_node35"><a xlink:href="attribute__store__defined__attribute__types_8h.html" target="_top" xlink:title=" ">
<polygon fill="none" stroke="black" points="1615,-447.5 1615,-477.5 1731,-477.5 1731,-447.5 1615,-447.5"/>
<text text-anchor="start" x="1623" y="-465.5" font-family="Helvetica,sans-Serif" font-size="10.00">attribute_store_defined</text>
<text text-anchor="middle" x="1673" y="-454.5" font-family="Helvetica,sans-Serif" font-size="10.00">_attribute_types.h</text>
</a>
</g>
</g>
<!-- Node1&#45;&gt;Node35 -->
<g id="edge82" class="edge">
<title>Node1&#45;&gt;Node35</title>
<path fill="none" stroke="midnightblue" d="M1273.13,-529.02C1354.47,-517.55 1487.12,-498.12 1601,-478 1602.27,-477.78 1603.55,-477.55 1604.85,-477.31"/>
<polygon fill="midnightblue" stroke="midnightblue" points="1605.69,-480.72 1614.89,-475.45 1604.42,-473.83 1605.69,-480.72"/>
</g>
<!-- Node38 -->
<g id="node38" class="node">
<title>Node38</title>
<g id="a_node38"><a xlink:title=" ">
<polygon fill="none" stroke="#bfbfbf" points="1749.5,-453 1749.5,-472 1848.5,-472 1848.5,-453 1749.5,-453"/>
<text text-anchor="middle" x="1799" y="-460" font-family="Helvetica,sans-Serif" font-size="10.00">attribute_resolver.h</text>
</a>
</g>
</g>
<!-- Node1&#45;&gt;Node38 -->
<g id="edge87" class="edge">
<title>Node1&#45;&gt;Node38</title>
<path fill="none" stroke="midnightblue" d="M1273.44,-533.95C1378.95,-525.59 1574.93,-507.51 1740,-478 1745.79,-476.97 1751.85,-475.69 1757.8,-474.34"/>
<polygon fill="midnightblue" stroke="midnightblue" points="1758.7,-477.72 1767.62,-472 1757.08,-470.91 1758.7,-477.72"/>
</g>
<!-- Node39 -->
<g id="node39" class="node">
<title>Node39</title>
<g id="a_node39"><a xlink:title=" ">
<polygon fill="none" stroke="#bfbfbf" points="1867,-453 1867,-472 1917,-472 1917,-453 1867,-453"/>
<text text-anchor="middle" x="1892" y="-460" font-family="Helvetica,sans-Serif" font-size="10.00">sl_log.h</text>
</a>
</g>
</g>
<!-- Node1&#45;&gt;Node39 -->
<g id="edge89" class="edge">
<title>Node1&#45;&gt;Node39</title>
<path fill="none" stroke="midnightblue" d="M1273.13,-540.01C1397.47,-539.17 1651.02,-530.4 1858,-478 1860.36,-477.4 1862.77,-476.66 1865.16,-475.84"/>
<polygon fill="midnightblue" stroke="midnightblue" points="1866.68,-479 1874.71,-472.1 1864.13,-472.48 1866.68,-479"/>
</g>
<!-- Node3 -->
<g id="node3" class="node">
<title>Node3</title>
<g id="a_node3"><a xlink:href="sl__status_8h.html" target="_top" xlink:title="SL Status Codes.">
<polygon fill="none" stroke="black" points="1176.5,-118 1176.5,-137 1241.5,-137 1241.5,-118 1176.5,-118"/>
<text text-anchor="middle" x="1209" y="-125" font-family="Helvetica,sans-Serif" font-size="10.00">sl_status.h</text>
</a>
</g>
</g>
<!-- Node2&#45;&gt;Node3 -->
<g id="edge2" class="edge">
<title>Node2&#45;&gt;Node3</title>
<path fill="none" stroke="midnightblue" d="M1290.19,-313.32C1295.64,-285.57 1304,-222.95 1280,-179 1270.99,-162.51 1254.01,-150.13 1238.91,-141.76"/>
<polygon fill="midnightblue" stroke="midnightblue" points="1240.33,-138.55 1229.84,-137.06 1237.11,-144.77 1240.33,-138.55"/>
</g>
<!-- Node2&#45;&gt;Node5 -->
<g id="edge4" class="edge">
<title>Node2&#45;&gt;Node5</title>
<path fill="none" stroke="midnightblue" d="M1225.97,-314.68C1194.11,-306.53 1155.17,-294.22 1123,-277 1103.78,-266.71 1105.2,-254.2 1085,-246 916.87,-177.77 856.22,-232.31 671.95,-210"/>
<polygon fill="midnightblue" stroke="midnightblue" points="672.3,-206.51 661.94,-208.73 671.41,-213.46 672.3,-206.51"/>
</g>
<!-- Node2&#45;&gt;Node11 -->
<g id="edge14" class="edge">
<title>Node2&#45;&gt;Node11</title>
<path fill="none" stroke="midnightblue" d="M1339.64,-313.48C1384.42,-301.55 1447.87,-284.64 1489.23,-273.63"/>
<polygon fill="midnightblue" stroke="midnightblue" points="1490.22,-276.98 1498.98,-271.03 1488.42,-270.22 1490.22,-276.98"/>
</g>
<!-- Node12 -->
<g id="node12" class="node">
<title>Node12</title>
<g id="a_node12"><a xlink:href="zwave__rx__definitions_8h.html" target="_top" xlink:title=" ">
<polygon fill="none" stroke="black" points="852,-252 852,-271 968,-271 968,-252 852,-252"/>
<text text-anchor="middle" x="910" y="-259" font-family="Helvetica,sans-Serif" font-size="10.00">zwave_rx_definitions.h</text>
</a>
</g>
</g>
<!-- Node2&#45;&gt;Node12 -->
<g id="edge15" class="edge">
<title>Node2&#45;&gt;Node12</title>
<path fill="none" stroke="midnightblue" d="M1225.59,-316.91C1154.79,-304.71 1039.23,-284.78 969.32,-272.73"/>
<polygon fill="midnightblue" stroke="midnightblue" points="969.8,-269.26 959.35,-271.01 968.61,-276.16 969.8,-269.26"/>
</g>
<!-- Node4 -->
<g id="node4" class="node">
<title>Node4</title>
<g id="a_node4"><a xlink:title=" ">
<polygon fill="none" stroke="#bfbfbf" points="660.5,-0.5 660.5,-19.5 709.5,-19.5 709.5,-0.5 660.5,-0.5"/>
<text text-anchor="middle" x="685" y="-7.5" font-family="Helvetica,sans-Serif" font-size="10.00">stdint.h</text>
</a>
</g>
</g>
<!-- Node3&#45;&gt;Node4 -->
<g id="edge3" class="edge">
<title>Node3&#45;&gt;Node4</title>
<path fill="none" stroke="midnightblue" d="M1196.07,-117.81C1172.54,-102.47 1120.62,-70.8 1072,-56 946.39,-17.76 788.76,-11.64 719.89,-10.91"/>
<polygon fill="midnightblue" stroke="midnightblue" points="719.64,-7.41 709.62,-10.84 719.59,-14.41 719.64,-7.41"/>
</g>
<!-- Node6 -->
<g id="node6" class="node">
<title>Node6</title>
<g id="a_node6"><a xlink:href="zwave__controller__types_8h.html" target="_top" xlink:title=" ">
<polygon fill="none" stroke="black" points="522,-118 522,-137 650,-137 650,-118 522,-118"/>
<text text-anchor="middle" x="586" y="-125" font-family="Helvetica,sans-Serif" font-size="10.00">zwave_controller_types.h</text>
</a>
</g>
</g>
<!-- Node5&#45;&gt;Node6 -->
<g id="edge5" class="edge">
<title>Node5&#45;&gt;Node6</title>
<path fill="none" stroke="midnightblue" d="M589.13,-179.4C588.55,-169.96 587.78,-157.45 587.15,-147.19"/>
<polygon fill="midnightblue" stroke="midnightblue" points="590.64,-146.96 586.54,-137.19 583.66,-147.39 590.64,-146.96"/>
</g>
<!-- Node6&#45;&gt;Node4 -->
<g id="edge7" class="edge">
<title>Node6&#45;&gt;Node4</title>
<path fill="none" stroke="midnightblue" d="M593.44,-117.82C609.85,-98.67 649.39,-52.54 670.75,-27.63"/>
<polygon fill="midnightblue" stroke="midnightblue" points="673.62,-29.65 677.47,-19.78 668.31,-25.1 673.62,-29.65"/>
</g>
<!-- Node6&#45;&gt;Node7 -->
<g id="edge6" class="edge">
<title>Node6&#45;&gt;Node7</title>
<path fill="none" stroke="midnightblue" d="M585.57,-117.94C584.32,-102.79 579.4,-71.43 560,-56 511.92,-17.75 325.84,-11.76 244.46,-11"/>
<polygon fill="midnightblue" stroke="midnightblue" points="244.18,-7.5 234.16,-10.93 244.13,-14.5 244.18,-7.5"/>
</g>
<!-- Node8 -->
<g id="node8" class="node">
<title>Node8</title>
<g id="a_node8"><a xlink:href="zwave__node__id__definitions_8h.html" target="_top" xlink:title=" ">
<polygon fill="none" stroke="black" points="865,-56.5 865,-75.5 1007,-75.5 1007,-56.5 865,-56.5"/>
<text text-anchor="middle" x="936" y="-63.5" font-family="Helvetica,sans-Serif" font-size="10.00">zwave_node_id_definitions.h</text>
</a>
</g>
</g>
<!-- Node6&#45;&gt;Node8 -->
<g id="edge8" class="edge">
<title>Node6&#45;&gt;Node8</title>
<path fill="none" stroke="midnightblue" d="M636.15,-117.98C699.43,-107.22 808.17,-88.73 875.86,-77.22"/>
<polygon fill="midnightblue" stroke="midnightblue" points="876.67,-80.64 885.95,-75.51 875.5,-73.73 876.67,-80.64"/>
</g>
<!-- Node9 -->
<g id="node9" class="node">
<title>Node9</title>
<g id="a_node9"><a xlink:href="zwave__generic__types_8h.html" target="_top" xlink:title=" ">
<polygon fill="none" stroke="black" points="432.5,-56.5 432.5,-75.5 551.5,-75.5 551.5,-56.5 432.5,-56.5"/>
<text text-anchor="middle" x="492" y="-63.5" font-family="Helvetica,sans-Serif" font-size="10.00">zwave_generic_types.h</text>
</a>
</g>
</g>
<!-- Node6&#45;&gt;Node9 -->
<g id="edge10" class="edge">
<title>Node6&#45;&gt;Node9</title>
<path fill="none" stroke="midnightblue" d="M572.53,-117.98C557.32,-108.34 532.31,-92.52 514.2,-81.05"/>
<polygon fill="midnightblue" stroke="midnightblue" points="515.76,-77.9 505.44,-75.51 512.02,-83.81 515.76,-77.9"/>
</g>
<!-- Node10 -->
<g id="node10" class="node">
<title>Node10</title>
<g id="a_node10"><a xlink:href="zwave__rf__region_8h.html" target="_top" xlink:title=" ">
<polygon fill="none" stroke="black" points="713,-56.5 713,-75.5 809,-75.5 809,-56.5 713,-56.5"/>
<text text-anchor="middle" x="761" y="-63.5" font-family="Helvetica,sans-Serif" font-size="10.00">zwave_rf_region.h</text>
</a>
</g>
</g>
<!-- Node6&#45;&gt;Node10 -->
<g id="edge12" class="edge">
<title>Node6&#45;&gt;Node10</title>
<path fill="none" stroke="midnightblue" d="M611.07,-117.98C641.35,-107.68 692.44,-90.31 726.44,-78.75"/>
<polygon fill="midnightblue" stroke="midnightblue" points="727.63,-82.04 735.97,-75.51 725.38,-75.41 727.63,-82.04"/>
</g>
<!-- Node8&#45;&gt;Node4 -->
<g id="edge9" class="edge">
<title>Node8&#45;&gt;Node4</title>
<path fill="none" stroke="midnightblue" d="M896.23,-56.44C847.52,-45.96 765.82,-28.39 719.6,-18.44"/>
<polygon fill="midnightblue" stroke="midnightblue" points="720.26,-15.01 709.75,-16.32 718.79,-21.85 720.26,-15.01"/>
</g>
<!-- Node9&#45;&gt;Node4 -->
<g id="edge11" class="edge">
<title>Node9&#45;&gt;Node4</title>
<path fill="none" stroke="midnightblue" d="M522.58,-56.44C557.46,-46.68 614.35,-30.77 650.7,-20.6"/>
<polygon fill="midnightblue" stroke="midnightblue" points="651.69,-23.95 660.38,-17.89 649.81,-17.21 651.69,-23.95"/>
</g>
<!-- Node10&#45;&gt;Node7 -->
<g id="edge13" class="edge">
<title>Node10&#45;&gt;Node7</title>
<path fill="none" stroke="midnightblue" d="M712.72,-60.3C604.19,-49.74 342.79,-24.31 244.36,-14.73"/>
<polygon fill="midnightblue" stroke="midnightblue" points="244.55,-11.23 234.26,-13.75 243.88,-18.2 244.55,-11.23"/>
</g>
<!-- Node12&#45;&gt;Node5 -->
<g id="edge16" class="edge">
<title>Node12&#45;&gt;Node5</title>
<path fill="none" stroke="midnightblue" d="M867.84,-251.94C817.41,-241.69 731.95,-224.33 669.1,-211.57"/>
<polygon fill="midnightblue" stroke="midnightblue" points="669.71,-208.12 659.21,-209.56 668.32,-214.98 669.71,-208.12"/>
</g>
<!-- Node16&#45;&gt;Node3 -->
<g id="edge50" class="edge">
<title>Node16&#45;&gt;Node3</title>
<path fill="none" stroke="midnightblue" d="M638.6,-458.57C750.71,-451.45 977.82,-427.07 1149,-344 1190.42,-323.9 1206.21,-317.55 1228,-277 1248.69,-238.51 1246.62,-221.39 1236,-179 1233.06,-167.26 1226.81,-155.27 1221.07,-145.92"/>
<polygon fill="midnightblue" stroke="midnightblue" points="1223.81,-143.72 1215.42,-137.25 1217.94,-147.54 1223.81,-143.72"/>
</g>
<!-- Node16&#45;&gt;Node5 -->
<g id="edge22" class="edge">
<title>Node16&#45;&gt;Node5</title>
<path fill="none" stroke="midnightblue" d="M570.64,-452.95C573.35,-416.94 583.89,-276.81 588.17,-219.81"/>
<polygon fill="midnightblue" stroke="midnightblue" points="591.68,-219.81 588.94,-209.58 584.7,-219.29 591.68,-219.81"/>
</g>
<!-- Node16&#45;&gt;Node7 -->
<g id="edge52" class="edge">
<title>Node16&#45;&gt;Node7</title>
<path fill="none" stroke="midnightblue" d="M501.27,-458.79C357.45,-451.26 38,-423.89 38,-329.5 38,-329.5 38,-329.5 38,-126.5 38,-63.75 118.57,-32.52 168.12,-19.25"/>
<polygon fill="midnightblue" stroke="midnightblue" points="169.06,-22.62 177.88,-16.75 167.33,-15.84 169.06,-22.62"/>
</g>
<!-- Node17 -->
<g id="node17" class="node">
<title>Node17</title>
<g id="a_node17"><a xlink:href="zwave__controller_8h.html" target="_top" xlink:title=" ">
<polygon fill="none" stroke="black" points="382,-386 382,-405 480,-405 480,-386 382,-386"/>
<text text-anchor="middle" x="431" y="-393" font-family="Helvetica,sans-Serif" font-size="10.00">zwave_controller.h</text>
</a>
</g>
</g>
<!-- Node16&#45;&gt;Node17 -->
<g id="edge23" class="edge">
<title>Node16&#45;&gt;Node17</title>
<path fill="none" stroke="midnightblue" d="M551.54,-452.87C527.76,-441.75 486.21,-422.32 458.65,-409.43"/>
<polygon fill="midnightblue" stroke="midnightblue" points="460.08,-406.23 449.53,-405.17 457.11,-412.57 460.08,-406.23"/>
</g>
<!-- Node16&#45;&gt;Node24 -->
<g id="edge47" class="edge">
<title>Node16&#45;&gt;Node24</title>
<path fill="none" stroke="midnightblue" d="M588.86,-452.87C613.15,-441.75 655.6,-422.32 683.76,-409.43"/>
<polygon fill="midnightblue" stroke="midnightblue" points="685.43,-412.51 693.07,-405.17 682.52,-406.15 685.43,-412.51"/>
</g>
<!-- Node25 -->
<g id="node25" class="node">
<title>Node25</title>
<g id="a_node25"><a xlink:href="zwave__command__class__version__types_8h.html" target="_top" xlink:title=" ">
<polygon fill="none" stroke="black" points="674,-246.5 674,-276.5 796,-276.5 796,-246.5 674,-246.5"/>
<text text-anchor="start" x="682" y="-264.5" font-family="Helvetica,sans-Serif" font-size="10.00">zwave_command_class</text>
<text text-anchor="middle" x="735" y="-253.5" font-family="Helvetica,sans-Serif" font-size="10.00">_version_types.h</text>
</a>
</g>
</g>
<!-- Node16&#45;&gt;Node25 -->
<g id="edge51" class="edge">
<title>Node16&#45;&gt;Node25</title>
<path fill="none" stroke="midnightblue" d="M577.09,-452.95C601.25,-423.81 680.89,-327.76 716.96,-284.26"/>
<polygon fill="midnightblue" stroke="midnightblue" points="719.68,-286.46 723.36,-276.53 714.29,-282 719.68,-286.46"/>
</g>
<!-- Node18 -->
<g id="node18" class="node">
<title>Node18</title>
<g id="a_node18"><a xlink:href="zwave__network__management_8h.html" target="_top" xlink:title=" ">
<polygon fill="none" stroke="black" points="168.5,-319 168.5,-338 323.5,-338 323.5,-319 168.5,-319"/>
<text text-anchor="middle" x="246" y="-326" font-family="Helvetica,sans-Serif" font-size="10.00">zwave_network_management.h</text>
</a>
</g>
</g>
<!-- Node17&#45;&gt;Node18 -->
<g id="edge24" class="edge">
<title>Node17&#45;&gt;Node18</title>
<path fill="none" stroke="midnightblue" d="M406.43,-385.87C374,-374.47 316.73,-354.35 280.12,-341.49"/>
<polygon fill="midnightblue" stroke="midnightblue" points="280.97,-338.08 270.37,-338.06 278.65,-344.68 280.97,-338.08"/>
</g>
<!-- Node22 -->
<g id="node22" class="node">
<title>Node22</title>
<g id="a_node22"><a xlink:href="zwave__controller__callbacks_8h.html" target="_top" xlink:title=" ">
<polygon fill="none" stroke="black" points="358.5,-319 358.5,-338 503.5,-338 503.5,-319 358.5,-319"/>
<text text-anchor="middle" x="431" y="-326" font-family="Helvetica,sans-Serif" font-size="10.00">zwave_controller_callbacks.h</text>
</a>
</g>
</g>
<!-- Node17&#45;&gt;Node22 -->
<g id="edge37" class="edge">
<title>Node17&#45;&gt;Node22</title>
<path fill="none" stroke="midnightblue" d="M431,-385.73C431,-376.18 431,-360.62 431,-348.28"/>
<polygon fill="midnightblue" stroke="midnightblue" points="434.5,-348.13 431,-338.13 427.5,-348.13 434.5,-348.13"/>
</g>
<!-- Node18&#45;&gt;Node3 -->
<g id="edge36" class="edge">
<title>Node18&#45;&gt;Node3</title>
<path fill="none" stroke="midnightblue" d="M282.2,-319C354.51,-302.33 522.17,-265.33 665,-246 768.15,-232.04 1038.07,-254.84 1132,-210 1161.59,-195.88 1185.58,-165.06 1198.52,-145.62"/>
<polygon fill="midnightblue" stroke="midnightblue" points="1201.52,-147.43 1203.97,-137.12 1195.63,-143.66 1201.52,-147.43"/>
</g>
<!-- Node18&#45;&gt;Node4 -->
<g id="edge25" class="edge">
<title>Node18&#45;&gt;Node4</title>
<path fill="none" stroke="midnightblue" d="M242.68,-318.73C234.11,-294.59 213.74,-225.81 240,-179 284.06,-100.47 318.23,-91.46 401,-56 485.32,-19.88 594.91,-12.43 650.05,-11.1"/>
<polygon fill="midnightblue" stroke="midnightblue" points="650.4,-14.59 660.33,-10.91 650.27,-7.59 650.4,-14.59"/>
</g>
<!-- Node18&#45;&gt;Node6 -->
<g id="edge27" class="edge">
<title>Node18&#45;&gt;Node6</title>
<path fill="none" stroke="midnightblue" d="M245.34,-318.86C243.91,-293.22 243.47,-216.93 285,-179 301.59,-163.85 428.32,-146.61 511.96,-136.7"/>
<polygon fill="midnightblue" stroke="midnightblue" points="512.42,-140.17 521.94,-135.52 511.6,-133.21 512.42,-140.17"/>
</g>
<!-- Node18&#45;&gt;Node7 -->
<g id="edge26" class="edge">
<title>Node18&#45;&gt;Node7</title>
<path fill="none" stroke="midnightblue" d="M206.51,-318.94C179.86,-311.52 145.26,-298.5 121,-277 90.03,-249.56 76,-236.88 76,-195.5 76,-195.5 76,-195.5 76,-126.5 76,-74.73 134.32,-40.5 172.84,-23.53"/>
<polygon fill="midnightblue" stroke="midnightblue" points="174.31,-26.71 182.16,-19.59 171.58,-20.26 174.31,-26.71"/>
</g>
<!-- Node18&#45;&gt;Node9 -->
<g id="edge28" class="edge">
<title>Node18&#45;&gt;Node9</title>
<path fill="none" stroke="midnightblue" d="M243.8,-318.94C237.99,-294.13 224.89,-221.31 259,-179 304.92,-122.05 386.82,-92.22 440.27,-78.06"/>
<polygon fill="midnightblue" stroke="midnightblue" points="441.41,-81.38 450.23,-75.51 439.68,-74.6 441.41,-81.38"/>
</g>
<!-- Node19 -->
<g id="node19" class="node">
<title>Node19</title>
<g id="a_node19"><a xlink:href="zwave__network__management__types_8h.html" target="_top" xlink:title=" ">
<polygon fill="none" stroke="black" points="104,-112.5 104,-142.5 250,-142.5 250,-112.5 104,-112.5"/>
<text text-anchor="start" x="112" y="-130.5" font-family="Helvetica,sans-Serif" font-size="10.00">zwave_network_management</text>
<text text-anchor="middle" x="177" y="-119.5" font-family="Helvetica,sans-Serif" font-size="10.00">_types.h</text>
</a>
</g>
</g>
<!-- Node18&#45;&gt;Node19 -->
<g id="edge29" class="edge">
<title>Node18&#45;&gt;Node19</title>
<path fill="none" stroke="midnightblue" d="M202.39,-318.93C179.01,-311.88 152.17,-299.27 138,-277 114.62,-240.25 123.94,-220.22 138,-179 141.54,-168.62 148.18,-158.72 154.98,-150.47"/>
<polygon fill="midnightblue" stroke="midnightblue" points="157.74,-152.64 161.74,-142.83 152.49,-148 157.74,-152.64"/>
</g>
<!-- Node20 -->
<g id="node20" class="node">
<title>Node20</title>
<g id="a_node20"><a xlink:href="zwave__controller__keyset_8h.html" target="_top" xlink:title=" ">
<polygon fill="none" stroke="black" points="294.5,-252 294.5,-271 427.5,-271 427.5,-252 294.5,-252"/>
<text text-anchor="middle" x="361" y="-259" font-family="Helvetica,sans-Serif" font-size="10.00">zwave_controller_keyset.h</text>
</a>
</g>
</g>
<!-- Node18&#45;&gt;Node20 -->
<g id="edge32" class="edge">
<title>Node18&#45;&gt;Node20</title>
<path fill="none" stroke="midnightblue" d="M261.51,-318.73C280.91,-307.77 314.33,-288.88 337.03,-276.05"/>
<polygon fill="midnightblue" stroke="midnightblue" points="338.75,-279.09 345.74,-271.13 335.31,-273 338.75,-279.09"/>
</g>
<!-- Node19&#45;&gt;Node4 -->
<g id="edge31" class="edge">
<title>Node19&#45;&gt;Node4</title>
<path fill="none" stroke="midnightblue" d="M194.12,-112.36C215.23,-95.79 252.88,-68.95 290,-56 356.32,-32.87 566.89,-18.07 650.4,-12.98"/>
<polygon fill="midnightblue" stroke="midnightblue" points="650.62,-16.47 660.39,-12.38 650.2,-9.49 650.62,-16.47"/>
</g>
<!-- Node19&#45;&gt;Node7 -->
<g id="edge30" class="edge">
<title>Node19&#45;&gt;Node7</title>
<path fill="none" stroke="midnightblue" d="M180.56,-112.34C185.78,-91.53 195.54,-52.66 201.33,-29.58"/>
<polygon fill="midnightblue" stroke="midnightblue" points="204.78,-30.22 203.82,-19.67 197.99,-28.52 204.78,-30.22"/>
</g>
<!-- Node20&#45;&gt;Node5 -->
<g id="edge33" class="edge">
<title>Node20&#45;&gt;Node5</title>
<path fill="none" stroke="midnightblue" d="M391.41,-251.87C426.81,-241.82 486.12,-224.99 530.73,-212.32"/>
<polygon fill="midnightblue" stroke="midnightblue" points="531.91,-215.63 540.58,-209.53 530,-208.89 531.91,-215.63"/>
</g>
<!-- Node21 -->
<g id="node21" class="node">
<title>Node21</title>
<g id="a_node21"><a xlink:href="zwave__keyset__definitions_8h.html" target="_top" xlink:title=" ">
<polygon fill="none" stroke="black" points="294.5,-185 294.5,-204 431.5,-204 431.5,-185 294.5,-185"/>
<text text-anchor="middle" x="363" y="-192" font-family="Helvetica,sans-Serif" font-size="10.00">zwave_keyset_definitions.h</text>
</a>
</g>
</g>
<!-- Node20&#45;&gt;Node21 -->
<g id="edge34" class="edge">
<title>Node20&#45;&gt;Node21</title>
<path fill="none" stroke="midnightblue" d="M361.27,-251.73C361.56,-242.18 362.04,-226.62 362.42,-214.28"/>
<polygon fill="midnightblue" stroke="midnightblue" points="365.93,-214.23 362.73,-204.13 358.93,-214.01 365.93,-214.23"/>
</g>
<!-- Node21&#45;&gt;Node4 -->
<g id="edge35" class="edge">
<title>Node21&#45;&gt;Node4</title>
<path fill="none" stroke="midnightblue" d="M363.99,-184.69C367.28,-159.98 380.15,-89.58 423,-56 457.77,-28.75 587.04,-17.09 650.04,-12.94"/>
<polygon fill="midnightblue" stroke="midnightblue" points="650.51,-16.42 660.27,-12.3 650.07,-9.43 650.51,-16.42"/>
</g>
<!-- Node22&#45;&gt;Node9 -->
<g id="edge41" class="edge">
<title>Node22&#45;&gt;Node9</title>
<path fill="none" stroke="midnightblue" d="M435.76,-318.82C440.97,-308.97 449.23,-292.26 454,-277 475.46,-208.4 486.22,-123.17 490.17,-85.91"/>
<polygon fill="midnightblue" stroke="midnightblue" points="493.69,-85.89 491.22,-75.58 486.73,-85.18 493.69,-85.89"/>
</g>
<!-- Node22&#45;&gt;Node12 -->
<g id="edge38" class="edge">
<title>Node22&#45;&gt;Node12</title>
<path fill="none" stroke="midnightblue" d="M494.54,-318.98C568.95,-308.99 695.94,-291.89 805,-277 816.89,-275.38 829.54,-273.64 841.79,-271.95"/>
<polygon fill="midnightblue" stroke="midnightblue" points="842.54,-275.38 851.96,-270.55 841.58,-268.45 842.54,-275.38"/>
</g>
<!-- Node22&#45;&gt;Node19 -->
<g id="edge39" class="edge">
<title>Node22&#45;&gt;Node19</title>
<path fill="none" stroke="midnightblue" d="M384.16,-318.93C353.68,-311.61 314.31,-298.71 285,-277 239.27,-243.13 204.79,-184.28 188.12,-151.76"/>
<polygon fill="midnightblue" stroke="midnightblue" points="191.13,-149.95 183.52,-142.57 184.87,-153.08 191.13,-149.95"/>
</g>
<!-- Node22&#45;&gt;Node21 -->
<g id="edge40" class="edge">
<title>Node22&#45;&gt;Node21</title>
<path fill="none" stroke="midnightblue" d="M434.32,-318.8C439.69,-303.19 448.5,-269.86 436,-246 427.23,-229.27 410.13,-216.99 394.68,-208.72"/>
<polygon fill="midnightblue" stroke="midnightblue" points="395.87,-205.41 385.36,-204.09 392.76,-211.68 395.87,-205.41"/>
</g>
<!-- Node23 -->
<g id="node23" class="node">
<title>Node23</title>
<g id="a_node23"><a xlink:href="zwapi__protocol__transport_8h.html" target="_top" xlink:title="Z&#45;Wave API for transport application layer interface.">
<polygon fill="none" stroke="black" points="852,-185 852,-204 986,-204 986,-185 852,-185"/>
<text text-anchor="middle" x="919" y="-192" font-family="Helvetica,sans-Serif" font-size="10.00">zwapi_protocol_transport.h</text>
</a>
</g>
</g>
<!-- Node22&#45;&gt;Node23 -->
<g id="edge42" class="edge">
<title>Node22&#45;&gt;Node23</title>
<path fill="none" stroke="midnightblue" d="M452.3,-318.96C493.05,-302.87 585.1,-267.75 665,-246 728.65,-228.68 802.77,-214.62 854.46,-205.78"/>
<polygon fill="midnightblue" stroke="midnightblue" points="855.21,-209.2 864.48,-204.08 854.04,-202.3 855.21,-209.2"/>
</g>
<!-- Node23&#45;&gt;Node3 -->
<g id="edge45" class="edge">
<title>Node23&#45;&gt;Node3</title>
<path fill="none" stroke="midnightblue" d="M957.21,-184.94C1011.22,-172.83 1109.58,-150.78 1166.05,-138.13"/>
<polygon fill="midnightblue" stroke="midnightblue" points="1167.1,-141.48 1176.09,-135.88 1165.56,-134.65 1167.1,-141.48"/>
</g>
<!-- Node23&#45;&gt;Node4 -->
<g id="edge43" class="edge">
<title>Node23&#45;&gt;Node4</title>
<path fill="none" stroke="midnightblue" d="M915.09,-184.99C903.66,-161.07 867.96,-92.56 818,-56 788.57,-34.46 748.11,-22.73 719.56,-16.7"/>
<polygon fill="midnightblue" stroke="midnightblue" points="720.12,-13.24 709.63,-14.72 718.75,-20.1 720.12,-13.24"/>
</g>
<!-- Node23&#45;&gt;Node7 -->
<g id="edge44" class="edge">
<title>Node23&#45;&gt;Node7</title>
<path fill="none" stroke="midnightblue" d="M852.4,-184.98C836.84,-183.01 820.34,-180.92 805,-179 675.25,-162.75 639.22,-177.17 513,-143 403.04,-113.23 281.16,-51.48 230.33,-24.31"/>
<polygon fill="midnightblue" stroke="midnightblue" points="231.87,-21.17 221.41,-19.51 228.55,-27.33 231.87,-21.17"/>
</g>
<!-- Node23&#45;&gt;Node8 -->
<g id="edge46" class="edge">
<title>Node23&#45;&gt;Node8</title>
<path fill="none" stroke="midnightblue" d="M920.17,-184.81C922.9,-164.49 929.74,-113.55 933.48,-85.78"/>
<polygon fill="midnightblue" stroke="midnightblue" points="936.96,-86.13 934.82,-75.76 930.02,-85.2 936.96,-86.13"/>
</g>
<!-- Node24&#45;&gt;Node3 -->
<g id="edge49" class="edge">
<title>Node24&#45;&gt;Node3</title>
<path fill="none" stroke="midnightblue" d="M745.75,-390.39C835.9,-379.37 1076.61,-349.61 1093,-344 1148.97,-324.85 1178.35,-328.19 1208,-277 1231.83,-235.85 1221.84,-176.91 1214.4,-147.18"/>
<polygon fill="midnightblue" stroke="midnightblue" points="1217.72,-146.06 1211.74,-137.31 1210.96,-147.88 1217.72,-146.06"/>
</g>
<!-- Node24&#45;&gt;Node5 -->
<g id="edge48" class="edge">
<title>Node24&#45;&gt;Node5</title>
<path fill="none" stroke="midnightblue" d="M706.76,-385.95C689,-356.99 630.74,-261.96 603.84,-218.08"/>
<polygon fill="midnightblue" stroke="midnightblue" points="606.81,-216.23 598.6,-209.53 600.85,-219.89 606.81,-216.23"/>
</g>
<!-- Node26&#45;&gt;Node5 -->
<g id="edge55" class="edge">
<title>Node26&#45;&gt;Node5</title>
<path fill="none" stroke="midnightblue" d="M1020.9,-318.81C1016.26,-301.65 1003.38,-263.55 977,-246 922.33,-209.63 753.39,-219.14 671.53,-209.84"/>
<polygon fill="midnightblue" stroke="midnightblue" points="671.88,-206.36 661.52,-208.54 670.98,-213.3 671.88,-206.36"/>
</g>
<!-- Node26&#45;&gt;Node12 -->
<g id="edge56" class="edge">
<title>Node26&#45;&gt;Node12</title>
<path fill="none" stroke="midnightblue" d="M1007.76,-318.73C988.78,-307.82 956.15,-289.05 933.85,-276.22"/>
<polygon fill="midnightblue" stroke="midnightblue" points="935.41,-273.08 925,-271.13 931.92,-279.15 935.41,-273.08"/>
</g>
<!-- Node26&#45;&gt;Node25 -->
<g id="edge69" class="edge">
<title>Node26&#45;&gt;Node25</title>
<path fill="none" stroke="midnightblue" d="M985.05,-318.94C939.66,-308.69 862.73,-291.33 806.16,-278.56"/>
<polygon fill="midnightblue" stroke="midnightblue" points="806.73,-275.1 796.2,-276.31 805.18,-281.93 806.73,-275.1"/>
</g>
<!-- Node27 -->
<g id="node27" class="node">
<title>Node27</title>
<g id="a_node27"><a xlink:href="zwave__tx_8h.html" target="_top" xlink:title=" ">
<polygon fill="none" stroke="black" points="1132.5,-252 1132.5,-271 1199.5,-271 1199.5,-252 1132.5,-252"/>
<text text-anchor="middle" x="1166" y="-259" font-family="Helvetica,sans-Serif" font-size="10.00">zwave_tx.h</text>
</a>
</g>
</g>
<!-- Node26&#45;&gt;Node27 -->
<g id="edge57" class="edge">
<title>Node26&#45;&gt;Node27</title>
<path fill="none" stroke="midnightblue" d="M1041.99,-318.87C1066.46,-307.75 1109.2,-288.32 1137.56,-275.43"/>
<polygon fill="midnightblue" stroke="midnightblue" points="1139.28,-278.49 1146.93,-271.17 1136.38,-272.12 1139.28,-278.49"/>
</g>
<!-- Node30 -->
<g id="node30" class="node">
<title>Node30</title>
<g id="a_node30"><a xlink:title=" ">
<polygon fill="none" stroke="#bfbfbf" points="1024,-252 1024,-271 1076,-271 1076,-252 1024,-252"/>
<text text-anchor="middle" x="1050" y="-259" font-family="Helvetica,sans-Serif" font-size="10.00">stddef.h</text>
</a>
</g>
</g>
<!-- Node26&#45;&gt;Node30 -->
<g id="edge70" class="edge">
<title>Node26&#45;&gt;Node30</title>
<path fill="none" stroke="midnightblue" d="M1026.64,-318.73C1030.69,-308.99 1037.34,-292.98 1042.51,-280.53"/>
<polygon fill="midnightblue" stroke="midnightblue" points="1045.81,-281.7 1046.42,-271.13 1039.35,-279.02 1045.81,-281.7"/>
</g>
<!-- Node27&#45;&gt;Node3 -->
<g id="edge58" class="edge">
<title>Node27&#45;&gt;Node3</title>
<path fill="none" stroke="midnightblue" d="M1168.82,-251.84C1175.75,-230.58 1193.7,-175.46 1203.09,-146.65"/>
<polygon fill="midnightblue" stroke="midnightblue" points="1206.45,-147.61 1206.22,-137.02 1199.8,-145.45 1206.45,-147.61"/>
</g>
<!-- Node27&#45;&gt;Node5 -->
<g id="edge59" class="edge">
<title>Node27&#45;&gt;Node5</title>
<path fill="none" stroke="midnightblue" d="M1141.34,-251.95C1133.92,-249.68 1125.7,-247.46 1118,-246 925.41,-209.59 870.48,-234.72 672.1,-210.04"/>
<polygon fill="midnightblue" stroke="midnightblue" points="672.29,-206.54 661.93,-208.75 671.41,-213.48 672.29,-206.54"/>
</g>
<!-- Node27&#45;&gt;Node23 -->
<g id="edge60" class="edge">
<title>Node27&#45;&gt;Node23</title>
<path fill="none" stroke="midnightblue" d="M1138.39,-251.93C1131.73,-249.93 1124.63,-247.84 1118,-246 1065.6,-231.45 1004.98,-216.3 964.54,-206.44"/>
<polygon fill="midnightblue" stroke="midnightblue" points="965.26,-203.01 954.72,-204.05 963.61,-209.82 965.26,-203.01"/>
</g>
<!-- Node28 -->
<g id="node28" class="node">
<title>Node28</title>
<g id="a_node28"><a xlink:href="zwapi__protocol__basis_8h.html" target="_top" xlink:title="Z&#45;Wave API for basis controller/end node application interface.">
<polygon fill="none" stroke="black" points="1004.5,-185 1004.5,-204 1123.5,-204 1123.5,-185 1004.5,-185"/>
<text text-anchor="middle" x="1064" y="-192" font-family="Helvetica,sans-Serif" font-size="10.00">zwapi_protocol_basis.h</text>
</a>
</g>
</g>
<!-- Node27&#45;&gt;Node28 -->
<g id="edge61" class="edge">
<title>Node27&#45;&gt;Node28</title>
<path fill="none" stroke="midnightblue" d="M1152.24,-251.73C1135.27,-240.92 1106.19,-222.38 1086.07,-209.57"/>
<polygon fill="midnightblue" stroke="midnightblue" points="1087.85,-206.55 1077.54,-204.13 1084.09,-212.45 1087.85,-206.55"/>
</g>
<!-- Node29 -->
<g id="node29" class="node">
<title>Node29</title>
<g id="a_node29"><a xlink:href="zwave__tx__definitions_8h.html" target="_top" xlink:title=" ">
<polygon fill="none" stroke="black" points="680,-185 680,-204 796,-204 796,-185 680,-185"/>
<text text-anchor="middle" x="738" y="-192" font-family="Helvetica,sans-Serif" font-size="10.00">zwave_tx_definitions.h</text>
</a>
</g>
</g>
<!-- Node27&#45;&gt;Node29 -->
<g id="edge67" class="edge">
<title>Node27&#45;&gt;Node29</title>
<path fill="none" stroke="midnightblue" d="M1140.81,-251.98C1133.52,-249.76 1125.5,-247.56 1118,-246 983.06,-217.96 946.11,-231.62 810,-210 802.64,-208.83 794.9,-207.44 787.32,-205.99"/>
<polygon fill="midnightblue" stroke="midnightblue" points="787.99,-202.56 777.51,-204.07 786.64,-209.43 787.99,-202.56"/>
</g>
<!-- Node28&#45;&gt;Node3 -->
<g id="edge64" class="edge">
<title>Node28&#45;&gt;Node3</title>
<path fill="none" stroke="midnightblue" d="M1083.25,-184.87C1108.17,-173.7 1151.79,-154.15 1180.53,-141.26"/>
<polygon fill="midnightblue" stroke="midnightblue" points="1181.97,-144.45 1189.67,-137.17 1179.11,-138.06 1181.97,-144.45"/>
</g>
<!-- Node28&#45;&gt;Node4 -->
<g id="edge62" class="edge">
<title>Node28&#45;&gt;Node4</title>
<path fill="none" stroke="midnightblue" d="M1063.88,-184.68C1063.02,-159.92 1056.92,-89.43 1016,-56 971.27,-19.45 795.73,-12.54 720.04,-11.27"/>
<polygon fill="midnightblue" stroke="midnightblue" points="719.68,-7.76 709.63,-11.12 719.58,-14.76 719.68,-7.76"/>
</g>
<!-- Node28&#45;&gt;Node7 -->
<g id="edge63" class="edge">
<title>Node28&#45;&gt;Node7</title>
<path fill="none" stroke="midnightblue" d="M1030.44,-184.97C992.23,-175.19 927.97,-158.48 873,-143 743.06,-106.41 714.17,-83.45 582,-56 460.1,-30.68 312.8,-18.2 244.38,-13.41"/>
<polygon fill="midnightblue" stroke="midnightblue" points="244.31,-9.9 234.09,-12.71 243.83,-16.88 244.31,-9.9"/>
</g>
<!-- Node28&#45;&gt;Node8 -->
<g id="edge66" class="edge">
<title>Node28&#45;&gt;Node8</title>
<path fill="none" stroke="midnightblue" d="M1055.2,-184.81C1033.92,-163.77 979.4,-109.89 952.09,-82.9"/>
<polygon fill="midnightblue" stroke="midnightblue" points="954.43,-80.3 944.86,-75.76 949.51,-85.27 954.43,-80.3"/>
</g>
<!-- Node28&#45;&gt;Node10 -->
<g id="edge65" class="edge">
<title>Node28&#45;&gt;Node10</title>
<path fill="none" stroke="midnightblue" d="M1043.17,-184.81C990.61,-162.86 852.42,-105.17 791.07,-79.56"/>
<polygon fill="midnightblue" stroke="midnightblue" points="792.15,-76.21 781.57,-75.59 789.45,-82.67 792.15,-76.21"/>
</g>
<!-- Node29&#45;&gt;Node6 -->
<g id="edge68" class="edge">
<title>Node29&#45;&gt;Node6</title>
<path fill="none" stroke="midnightblue" d="M717.82,-184.87C691.7,-173.7 645.97,-154.15 615.84,-141.26"/>
<polygon fill="midnightblue" stroke="midnightblue" points="616.84,-137.88 606.27,-137.17 614.09,-144.32 616.84,-137.88"/>
</g>
<!-- Node33&#45;&gt;Node3 -->
<g id="edge77" class="edge">
<title>Node33&#45;&gt;Node3</title>
<path fill="none" stroke="midnightblue" d="M1441.35,-313.16C1416.15,-285.13 1357.09,-222.04 1299,-179 1279.26,-164.38 1254.85,-150.93 1236.44,-141.6"/>
<polygon fill="midnightblue" stroke="midnightblue" points="1237.92,-138.43 1227.41,-137.11 1234.8,-144.69 1237.92,-138.43"/>
</g>
<!-- Node33&#45;&gt;Node6 -->
<g id="edge81" class="edge">
<title>Node33&#45;&gt;Node6</title>
<path fill="none" stroke="midnightblue" d="M1419.64,-313.41C1372.69,-294.8 1285.46,-262.44 1208,-246 1048.54,-212.16 993.69,-272.17 843,-210 822.85,-201.69 824.57,-188.59 805,-179 759.65,-156.79 704.18,-144.13 660.42,-137.04"/>
<polygon fill="midnightblue" stroke="midnightblue" points="660.83,-133.56 650.41,-135.48 659.76,-140.48 660.83,-133.56"/>
</g>
<!-- Node33&#45;&gt;Node11 -->
<g id="edge76" class="edge">
<title>Node33&#45;&gt;Node11</title>
<path fill="none" stroke="midnightblue" d="M1470.71,-313.4C1483.19,-302.86 1500.23,-288.48 1513.01,-277.69"/>
<polygon fill="midnightblue" stroke="midnightblue" points="1515.32,-280.32 1520.7,-271.19 1510.8,-274.97 1515.32,-280.32"/>
</g>
<!-- Node33&#45;&gt;Node34 -->
<g id="edge78" class="edge">
<title>Node33&#45;&gt;Node34</title>
<path fill="none" stroke="midnightblue" d="M1453.25,-313.37C1451.99,-289.5 1449.42,-241.18 1448,-214.41"/>
<polygon fill="midnightblue" stroke="midnightblue" points="1451.48,-213.9 1447.46,-204.1 1444.49,-214.27 1451.48,-213.9"/>
</g>
<!-- Node34&#45;&gt;Node3 -->
<g id="edge80" class="edge">
<title>Node34&#45;&gt;Node3</title>
<path fill="none" stroke="midnightblue" d="M1415.89,-184.99C1408.7,-183.02 1401.09,-180.94 1394,-179 1344.68,-165.52 1287.96,-150.04 1250.47,-139.81"/>
<polygon fill="midnightblue" stroke="midnightblue" points="1250.99,-136.33 1240.43,-137.07 1249.15,-143.08 1250.99,-136.33"/>
</g>
<!-- Node34&#45;&gt;Node8 -->
<g id="edge79" class="edge">
<title>Node34&#45;&gt;Node8</title>
<path fill="none" stroke="midnightblue" d="M1430.38,-184.94C1397.08,-168.18 1319.43,-131.01 1250,-112 1172.48,-90.77 1081.3,-79.12 1017.22,-73.03"/>
<polygon fill="midnightblue" stroke="midnightblue" points="1017.46,-69.54 1007.18,-72.1 1016.81,-76.51 1017.46,-69.54"/>
</g>
<!-- Node35&#45;&gt;Node11 -->
<g id="edge84" class="edge">
<title>Node35&#45;&gt;Node11</title>
<path fill="none" stroke="midnightblue" d="M1731.38,-448.7C1775.57,-436.08 1825.17,-413.72 1803,-380 1754.59,-306.35 1649.14,-278.65 1584.69,-268.39"/>
<polygon fill="midnightblue" stroke="midnightblue" points="1585.12,-264.91 1574.71,-266.89 1584.08,-271.84 1585.12,-264.91"/>
</g>
<!-- Node35&#45;&gt;Node15 -->
<g id="edge83" class="edge">
<title>Node35&#45;&gt;Node15</title>
<path fill="none" stroke="midnightblue" d="M1658.03,-447.4C1647.06,-437.06 1632.16,-423.02 1620.78,-412.31"/>
<polygon fill="midnightblue" stroke="midnightblue" points="1622.91,-409.5 1613.23,-405.19 1618.11,-414.6 1622.91,-409.5"/>
</g>
<!-- Node36 -->
<g id="node36" class="node">
<title>Node36</title>
<g id="a_node36"><a xlink:title=" ">
<polygon fill="none" stroke="#bfbfbf" points="1666,-386 1666,-405 1794,-405 1794,-386 1666,-386"/>
<text text-anchor="middle" x="1730" y="-393" font-family="Helvetica,sans-Serif" font-size="10.00">uic_attribute_definitions.h</text>
</a>
</g>
</g>
<!-- Node35&#45;&gt;Node36 -->
<g id="edge85" class="edge">
<title>Node35&#45;&gt;Node36</title>
<path fill="none" stroke="midnightblue" d="M1685.37,-447.4C1694.26,-437.26 1706.26,-423.57 1715.59,-412.94"/>
<polygon fill="midnightblue" stroke="midnightblue" points="1718.41,-415.02 1722.38,-405.19 1713.15,-410.41 1718.41,-415.02"/>
</g>
<!-- Node37 -->
<g id="node37" class="node">
<title>Node37</title>
<g id="a_node37"><a xlink:title=" ">
<polygon fill="none" stroke="#bfbfbf" points="1850.5,-380.5 1850.5,-410.5 1957.5,-410.5 1957.5,-380.5 1850.5,-380.5"/>
<text text-anchor="start" x="1858.5" y="-398.5" font-family="Helvetica,sans-Serif" font-size="10.00">unify_dotdot_defined</text>
<text text-anchor="middle" x="1904" y="-387.5" font-family="Helvetica,sans-Serif" font-size="10.00">_attribute_types.h</text>
</a>
</g>
</g>
<!-- Node35&#45;&gt;Node37 -->
<g id="edge86" class="edge">
<title>Node35&#45;&gt;Node37</title>
<path fill="none" stroke="midnightblue" d="M1722.84,-447.48C1758.39,-437.47 1806.37,-423.97 1844.02,-413.38"/>
<polygon fill="midnightblue" stroke="midnightblue" points="1845.17,-416.69 1853.85,-410.61 1843.28,-409.95 1845.17,-416.69"/>
</g>
</g>
</svg>
