<?xml version="1.0" encoding="UTF-8" standalone="no"?>
<!DOCTYPE svg PUBLIC "-//W3C//DTD SVG 1.1//EN"
 "http://www.w3.org/Graphics/SVG/1.1/DTD/svg11.dtd">
<!-- Generated by graphviz version 2.43.0 (0)
 -->
<!-- Title: zwave_command_class_humidity_control_mode_control_handler Pages: 1 -->
<svg width="1122pt" height="189pt"
 viewBox="0.00 0.00 1122.00 188.50" xmlns="http://www.w3.org/2000/svg" xmlns:xlink="http://www.w3.org/1999/xlink">
<g id="graph0" class="graph" transform="scale(1 1) rotate(0) translate(4 184.5)">
<title>zwave_command_class_humidity_control_mode_control_handler</title>
<!-- Node1 -->
<g id="node1" class="node">
<title>Node1</title>
<g id="a_node1"><a xlink:title=" ">
<polygon fill="#bfbfbf" stroke="black" points="0,-60.5 0,-101.5 122,-101.5 122,-60.5 0,-60.5"/>
<text text-anchor="start" x="8" y="-89.5" font-family="Helvetica,sans-Serif" font-size="10.00">zwave_command_class</text>
<text text-anchor="start" x="8" y="-78.5" font-family="Helvetica,sans-Serif" font-size="10.00">_humidity_control_mode</text>
<text text-anchor="middle" x="61" y="-67.5" font-family="Helvetica,sans-Serif" font-size="10.00">_control_handler</text>
</a>
</g>
</g>
<!-- Node2 -->
<g id="node2" class="node">
<title>Node2</title>
<g id="a_node2"><a xlink:href="zwave__command__class__humidity__control__mode_8c.html#a4686c2712a99c1d7535b732689ba2d60" target="_top" xlink:title=" ">
<polygon fill="none" stroke="black" points="161,-90.5 161,-131.5 283,-131.5 283,-90.5 161,-90.5"/>
<text text-anchor="start" x="169" y="-119.5" font-family="Helvetica,sans-Serif" font-size="10.00">zwave_command_class</text>
<text text-anchor="start" x="169" y="-108.5" font-family="Helvetica,sans-Serif" font-size="10.00">_humidity_control_mode</text>
<text text-anchor="middle" x="222" y="-97.5" font-family="Helvetica,sans-Serif" font-size="10.00">_handle_report</text>
</a>
</g>
</g>
<!-- Node1&#45;&gt;Node2 -->
<g id="edge1" class="edge">
<title>Node1&#45;&gt;Node2</title>
<path fill="none" stroke="midnightblue" d="M122.11,-92.34C131.51,-94.12 141.29,-95.96 150.89,-97.77"/>
<polygon fill="midnightblue" stroke="midnightblue" points="150.33,-101.23 160.8,-99.64 151.63,-94.35 150.33,-101.23"/>
</g>
<!-- Node13 -->
<g id="node13" class="node">
<title>Node13</title>
<g id="a_node13"><a xlink:href="zwave__command__class__humidity__control__mode_8c.html#a8ebabe0501ee1aa20d16268b74b4a97c" target="_top" xlink:title=" ">
<polygon fill="none" stroke="black" points="158,-30.5 158,-71.5 286,-71.5 286,-30.5 158,-30.5"/>
<text text-anchor="start" x="166" y="-59.5" font-family="Helvetica,sans-Serif" font-size="10.00">zwave_command_class</text>
<text text-anchor="start" x="166" y="-48.5" font-family="Helvetica,sans-Serif" font-size="10.00">_humidity_control_mode</text>
<text text-anchor="middle" x="222" y="-37.5" font-family="Helvetica,sans-Serif" font-size="10.00">_supported_handle_report</text>
</a>
</g>
</g>
<!-- Node1&#45;&gt;Node13 -->
<g id="edge12" class="edge">
<title>Node1&#45;&gt;Node13</title>
<path fill="none" stroke="midnightblue" d="M122.11,-69.66C130.52,-68.07 139.23,-66.43 147.85,-64.8"/>
<polygon fill="midnightblue" stroke="midnightblue" points="148.71,-68.2 157.89,-62.91 147.41,-61.32 148.71,-68.2"/>
</g>
<!-- Node3 -->
<g id="node3" class="node">
<title>Node3</title>
<g id="a_node3"><a xlink:href="zwave__command__class__humidity__control__mode_8c.html#a0ce9a042556f2c248cf378ca41e8a445" target="_top" xlink:title=" ">
<polygon fill="none" stroke="black" points="332.5,-96 332.5,-126 433.5,-126 433.5,-96 332.5,-96"/>
<text text-anchor="start" x="340.5" y="-114" font-family="Helvetica,sans-Serif" font-size="10.00">is_humidity_control</text>
<text text-anchor="middle" x="383" y="-103" font-family="Helvetica,sans-Serif" font-size="10.00">_mode_supported</text>
</a>
</g>
</g>
<!-- Node2&#45;&gt;Node3 -->
<g id="edge2" class="edge">
<title>Node2&#45;&gt;Node3</title>
<path fill="none" stroke="midnightblue" d="M283.11,-111C295.95,-111 309.5,-111 322.33,-111"/>
<polygon fill="midnightblue" stroke="midnightblue" points="322.42,-114.5 332.42,-111 322.42,-107.5 322.42,-114.5"/>
</g>
<!-- Node6 -->
<g id="node6" class="node">
<title>Node6</title>
<g id="a_node6"><a xlink:href="group__command__classes__utils.html#gaff12f5d1f5b9eed08201efab5854190c" target="_top" xlink:title="Find the Z&#45;Wave Endpoint ID Node attribute based on a const zwave_controller_connection_info_t object...">
<polygon fill="none" stroke="black" points="322,-38 322,-68 444,-68 444,-38 322,-38"/>
<text text-anchor="start" x="330" y="-56" font-family="Helvetica,sans-Serif" font-size="10.00">zwave_command_class</text>
<text text-anchor="middle" x="383" y="-45" font-family="Helvetica,sans-Serif" font-size="10.00">_get_endpoint_node</text>
</a>
</g>
</g>
<!-- Node2&#45;&gt;Node6 -->
<g id="edge5" class="edge">
<title>Node2&#45;&gt;Node6</title>
<path fill="none" stroke="midnightblue" d="M279.51,-90.39C296.37,-84.24 314.74,-77.53 331.22,-71.53"/>
<polygon fill="midnightblue" stroke="midnightblue" points="332.47,-74.79 340.67,-68.08 330.07,-68.22 332.47,-74.79"/>
</g>
<!-- Node4 -->
<g id="node4" class="node">
<title>Node4</title>
<g id="a_node4"><a xlink:href="zwave__command__class__humidity__control__mode_8c.html#a4b93f5ddec722694aa269971adbc95a0" target="_top" xlink:title="Get current humidity control mode version of the CC.">
<polygon fill="none" stroke="black" points="494,-150 494,-180 601,-180 601,-150 494,-150"/>
<text text-anchor="start" x="502" y="-168" font-family="Helvetica,sans-Serif" font-size="10.00">get_humidity_control</text>
<text text-anchor="middle" x="547.5" y="-157" font-family="Helvetica,sans-Serif" font-size="10.00">_mode_version</text>
</a>
</g>
</g>
<!-- Node3&#45;&gt;Node4 -->
<g id="edge3" class="edge">
<title>Node3&#45;&gt;Node4</title>
<path fill="none" stroke="midnightblue" d="M429.27,-126.04C448.55,-132.45 471.23,-139.99 491.48,-146.72"/>
<polygon fill="midnightblue" stroke="midnightblue" points="490.6,-150.11 501.2,-149.95 492.81,-143.47 490.6,-150.11"/>
</g>
<!-- Node5 -->
<g id="node5" class="node">
<title>Node5</title>
<g id="a_node5"><a xlink:href="zwave__command__class__humidity__control__mode_8c.html#a855235dff678ce15fd0cd972f853e7d8" target="_top" xlink:title="Check if the humidity control mode is compatible with the current version.">
<polygon fill="none" stroke="black" points="486.5,-89.5 486.5,-130.5 608.5,-130.5 608.5,-89.5 486.5,-89.5"/>
<text text-anchor="start" x="494.5" y="-118.5" font-family="Helvetica,sans-Serif" font-size="10.00">is_humidity_control</text>
<text text-anchor="start" x="494.5" y="-107.5" font-family="Helvetica,sans-Serif" font-size="10.00">_mode_compatible_with</text>
<text text-anchor="middle" x="547.5" y="-96.5" font-family="Helvetica,sans-Serif" font-size="10.00">_version</text>
</a>
</g>
</g>
<!-- Node3&#45;&gt;Node5 -->
<g id="edge4" class="edge">
<title>Node3&#45;&gt;Node5</title>
<path fill="none" stroke="midnightblue" d="M433.64,-110.69C447.01,-110.61 461.73,-110.52 476,-110.43"/>
<polygon fill="midnightblue" stroke="midnightblue" points="476.31,-113.93 486.29,-110.37 476.27,-106.93 476.31,-113.93"/>
</g>
<!-- Node7 -->
<g id="node7" class="node">
<title>Node7</title>
<g id="a_node7"><a xlink:href="group__zpc__attribute__store__network__helpers.html#gae4d15b8e0c61c88d94c8f342bd2014fc" target="_top" xlink:title="Take a UNID/endpoint combination and returns its attribute store node.">
<polygon fill="none" stroke="black" points="480,-39 480,-69 615,-69 615,-39 480,-39"/>
<text text-anchor="start" x="488" y="-57" font-family="Helvetica,sans-Serif" font-size="10.00">attribute_store_network</text>
<text text-anchor="middle" x="547.5" y="-46" font-family="Helvetica,sans-Serif" font-size="10.00">_helper_get_endpoint_node</text>
</a>
</g>
</g>
<!-- Node6&#45;&gt;Node7 -->
<g id="edge6" class="edge">
<title>Node6&#45;&gt;Node7</title>
<path fill="none" stroke="midnightblue" d="M444.05,-53.37C452.43,-53.42 461.14,-53.47 469.77,-53.53"/>
<polygon fill="midnightblue" stroke="midnightblue" points="469.84,-57.03 479.86,-53.59 469.88,-50.03 469.84,-57.03"/>
</g>
<!-- Node12 -->
<g id="node12" class="node">
<title>Node12</title>
<g id="a_node12"><a xlink:href="group__zwave__unid.html#ga421deceb8a12916f049e4f3446774439" target="_top" xlink:title="Form a UNID.">
<polygon fill="none" stroke="black" points="481.5,-0.5 481.5,-19.5 613.5,-19.5 613.5,-0.5 481.5,-0.5"/>
<text text-anchor="middle" x="547.5" y="-7.5" font-family="Helvetica,sans-Serif" font-size="10.00">zwave_unid_from_node_id</text>
</a>
</g>
</g>
<!-- Node6&#45;&gt;Node12 -->
<g id="edge11" class="edge">
<title>Node6&#45;&gt;Node12</title>
<path fill="none" stroke="midnightblue" d="M440.83,-37.96C460.39,-32.79 482.01,-27.06 500.59,-22.15"/>
<polygon fill="midnightblue" stroke="midnightblue" points="501.5,-25.53 510.27,-19.59 499.71,-18.76 501.5,-25.53"/>
</g>
<!-- Node8 -->
<g id="node8" class="node">
<title>Node8</title>
<g id="a_node8"><a xlink:href="group__zpc__attribute__store__network__helpers.html#gafb993ff484b3c826743c4695d6659cf0" target="_top" xlink:title="Take a UNID and return its attribute store node representing the NodeID.">
<polygon fill="none" stroke="black" points="651,-39 651,-69 783,-69 783,-39 651,-39"/>
<text text-anchor="start" x="659" y="-57" font-family="Helvetica,sans-Serif" font-size="10.00">attribute_store_network</text>
<text text-anchor="middle" x="717" y="-46" font-family="Helvetica,sans-Serif" font-size="10.00">_helper_get_node_id_node</text>
</a>
</g>
</g>
<!-- Node7&#45;&gt;Node8 -->
<g id="edge7" class="edge">
<title>Node7&#45;&gt;Node8</title>
<path fill="none" stroke="midnightblue" d="M615.18,-54C623.55,-54 632.15,-54 640.64,-54"/>
<polygon fill="midnightblue" stroke="midnightblue" points="640.91,-57.5 650.91,-54 640.91,-50.5 640.91,-57.5"/>
</g>
<!-- Node9 -->
<g id="node9" class="node">
<title>Node9</title>
<g id="a_node9"><a xlink:href="group__zpc__attribute__store__network__helpers.html#ga05cb572c96f7dc8e6657f86e135fafed" target="_top" xlink:title="Take a UNID and return its attribute store node representing the HomeID.">
<polygon fill="none" stroke="black" points="819,-61 819,-91 954,-91 954,-61 819,-61"/>
<text text-anchor="start" x="827" y="-79" font-family="Helvetica,sans-Serif" font-size="10.00">attribute_store_network</text>
<text text-anchor="middle" x="886.5" y="-68" font-family="Helvetica,sans-Serif" font-size="10.00">_helper_get_home_id_node</text>
</a>
</g>
</g>
<!-- Node8&#45;&gt;Node9 -->
<g id="edge8" class="edge">
<title>Node8&#45;&gt;Node9</title>
<path fill="none" stroke="midnightblue" d="M783.24,-62.57C791.62,-63.67 800.27,-64.81 808.82,-65.93"/>
<polygon fill="midnightblue" stroke="midnightblue" points="808.41,-69.4 818.78,-67.24 809.32,-62.46 808.41,-69.4"/>
</g>
<!-- Node11 -->
<g id="node11" class="node">
<title>Node11</title>
<g id="a_node11"><a xlink:href="group__zwave__unid.html#ga76885767debd174e96e6df00b0a368c3" target="_top" xlink:title="Convert a UNID to a node ID.">
<polygon fill="none" stroke="black" points="826,-22.5 826,-41.5 947,-41.5 947,-22.5 826,-22.5"/>
<text text-anchor="middle" x="886.5" y="-29.5" font-family="Helvetica,sans-Serif" font-size="10.00">zwave_unid_to_node_id</text>
</a>
</g>
</g>
<!-- Node8&#45;&gt;Node11 -->
<g id="edge10" class="edge">
<title>Node8&#45;&gt;Node11</title>
<path fill="none" stroke="midnightblue" d="M783.24,-45.43C793.89,-44.03 804.96,-42.58 815.72,-41.17"/>
<polygon fill="midnightblue" stroke="midnightblue" points="816.45,-44.6 825.91,-39.83 815.54,-37.66 816.45,-44.6"/>
</g>
<!-- Node10 -->
<g id="node10" class="node">
<title>Node10</title>
<g id="a_node10"><a xlink:href="group__zwave__unid.html#ga92f9808a08c2ce1c0a6a9dc2debf3580" target="_top" xlink:title="Convert a UNID to a Home ID.">
<polygon fill="none" stroke="black" points="990,-66.5 990,-85.5 1114,-85.5 1114,-66.5 990,-66.5"/>
<text text-anchor="middle" x="1052" y="-73.5" font-family="Helvetica,sans-Serif" font-size="10.00">zwave_unid_to_home_id</text>
</a>
</g>
</g>
<!-- Node9&#45;&gt;Node10 -->
<g id="edge9" class="edge">
<title>Node9&#45;&gt;Node10</title>
<path fill="none" stroke="midnightblue" d="M954,-76C962.42,-76 971.07,-76 979.57,-76"/>
<polygon fill="midnightblue" stroke="midnightblue" points="979.83,-79.5 989.83,-76 979.83,-72.5 979.83,-79.5"/>
</g>
<!-- Node13&#45;&gt;Node6 -->
<g id="edge13" class="edge">
<title>Node13&#45;&gt;Node6</title>
<path fill="none" stroke="midnightblue" d="M286.3,-51.8C294.61,-51.9 303.17,-52.01 311.59,-52.11"/>
<polygon fill="midnightblue" stroke="midnightblue" points="311.72,-55.62 321.77,-52.24 311.81,-48.62 311.72,-55.62"/>
</g>
</g>
</svg>
