<?xml version="1.0" encoding="UTF-8" standalone="no"?>
<!DOCTYPE svg PUBLIC "-//W3C//DTD SVG 1.1//EN"
 "http://www.w3.org/Graphics/SVG/1.1/DTD/svg11.dtd">
<!-- Generated by graphviz version 2.43.0 (0)
 -->
<!-- Title: zwave_rx_poll Pages: 1 -->
<svg width="1022pt" height="690pt"
 viewBox="0.00 0.00 1022.00 689.50" xmlns="http://www.w3.org/2000/svg" xmlns:xlink="http://www.w3.org/1999/xlink">
<g id="graph0" class="graph" transform="scale(1 1) rotate(0) translate(4 685.5)">
<title>zwave_rx_poll</title>
<!-- Node1 -->
<g id="node1" class="node">
<title>Node1</title>
<g id="a_node1"><a xlink:title="Polls for incoming messages from the Z&#45;Wave Module.">
<polygon fill="#bfbfbf" stroke="black" points="0,-306.5 0,-325.5 79,-325.5 79,-306.5 0,-306.5"/>
<text text-anchor="middle" x="39.5" y="-313.5" font-family="Helvetica,sans-Serif" font-size="10.00">zwave_rx_poll</text>
</a>
</g>
</g>
<!-- Node2 -->
<g id="node2" class="node">
<title>Node2</title>
<g id="a_node2"><a xlink:href="group__ZWAPI__INIT.html#gad44a77c9f06a6a5b81d5b3fd1f38e6b1" target="_top" xlink:title="Main poll loop for the Z&#45;Wave API.">
<polygon fill="none" stroke="black" points="115,-306.5 115,-325.5 177,-325.5 177,-306.5 115,-306.5"/>
<text text-anchor="middle" x="146" y="-313.5" font-family="Helvetica,sans-Serif" font-size="10.00">zwapi_poll</text>
</a>
</g>
</g>
<!-- Node1&#45;&gt;Node2 -->
<g id="edge1" class="edge">
<title>Node1&#45;&gt;Node2</title>
<path fill="none" stroke="midnightblue" d="M79.12,-316C87.37,-316 96.12,-316 104.45,-316"/>
<polygon fill="midnightblue" stroke="midnightblue" points="104.71,-319.5 114.71,-316 104.71,-312.5 104.71,-319.5"/>
</g>
<!-- Node3 -->
<g id="node3" class="node">
<title>Node3</title>
<g id="a_node3"><a xlink:href="zwapi__session_8c.html#a1487322fab4900d52efac24a2042e781" target="_top" xlink:title="Get the next frame from the zwapi_session receive queue.">
<polygon fill="none" stroke="black" points="213,-350 213,-380 336,-380 336,-350 213,-350"/>
<text text-anchor="start" x="221" y="-368" font-family="Helvetica,sans-Serif" font-size="10.00">zwapi_session_dequeue</text>
<text text-anchor="middle" x="274.5" y="-357" font-family="Helvetica,sans-Serif" font-size="10.00">_frame</text>
</a>
</g>
</g>
<!-- Node2&#45;&gt;Node3 -->
<g id="edge2" class="edge">
<title>Node2&#45;&gt;Node3</title>
<path fill="none" stroke="midnightblue" d="M171.69,-325.56C186.88,-331.45 206.86,-339.18 225.09,-346.25"/>
<polygon fill="midnightblue" stroke="midnightblue" points="223.84,-349.52 234.43,-349.87 226.37,-342.99 223.84,-349.52"/>
</g>
<!-- Node4 -->
<g id="node4" class="node">
<title>Node4</title>
<g id="a_node4"><a xlink:href="zwapi__session_8c.html#a2875fbfa250b7b25ecb6bc4f0b032cb8" target="_top" xlink:title="Loads the received frames from the serial device into the zwapi_session receive queue.">
<polygon fill="none" stroke="black" points="213,-301 213,-331 336,-331 336,-301 213,-301"/>
<text text-anchor="start" x="221" y="-319" font-family="Helvetica,sans-Serif" font-size="10.00">zwapi_session_enqueue</text>
<text text-anchor="middle" x="274.5" y="-308" font-family="Helvetica,sans-Serif" font-size="10.00">_rx_frames</text>
</a>
</g>
</g>
<!-- Node2&#45;&gt;Node4 -->
<g id="edge3" class="edge">
<title>Node2&#45;&gt;Node4</title>
<path fill="none" stroke="midnightblue" d="M177.3,-316C185.11,-316 193.84,-316 202.78,-316"/>
<polygon fill="midnightblue" stroke="midnightblue" points="202.92,-319.5 212.92,-316 202.92,-312.5 202.92,-319.5"/>
</g>
<!-- Node20 -->
<g id="node20" class="node">
<title>Node20</title>
<g id="a_node20"><a xlink:href="zwapi__protocol__rx__dispatch_8c.html#adae889855e6d3fcf03c1723303a9ab13" target="_top" xlink:title="Execute a callback based on a received frame from the Z&#45;Wave module.">
<polygon fill="none" stroke="black" points="223,-159 223,-189 326,-189 326,-159 223,-159"/>
<text text-anchor="start" x="231" y="-177" font-family="Helvetica,sans-Serif" font-size="10.00">zwave_api_protocol</text>
<text text-anchor="middle" x="274.5" y="-166" font-family="Helvetica,sans-Serif" font-size="10.00">_rx_dispatch</text>
</a>
</g>
</g>
<!-- Node2&#45;&gt;Node20 -->
<g id="edge22" class="edge">
<title>Node2&#45;&gt;Node20</title>
<path fill="none" stroke="midnightblue" d="M155.69,-306.24C175.58,-283.92 224.81,-228.66 252.93,-197.09"/>
<polygon fill="midnightblue" stroke="midnightblue" points="255.89,-199.03 259.93,-189.23 250.66,-194.37 255.89,-199.03"/>
</g>
<!-- Node5 -->
<g id="node5" class="node">
<title>Node5</title>
<g id="a_node5"><a xlink:href="zwapi__connection_8c.html#a1e45c6c9695b5e7b415adfad40080720" target="_top" xlink:title="Parses serial data sent from the Z&#45;Wave module to the serial port. Should be frequently called by mai...">
<polygon fill="none" stroke="black" points="372,-514.5 372,-533.5 502,-533.5 502,-514.5 372,-514.5"/>
<text text-anchor="middle" x="437" y="-521.5" font-family="Helvetica,sans-Serif" font-size="10.00">zwapi_connection_refresh</text>
</a>
</g>
</g>
<!-- Node4&#45;&gt;Node5 -->
<g id="edge4" class="edge">
<title>Node4&#45;&gt;Node5</title>
<path fill="none" stroke="midnightblue" d="M321.76,-331.14C326.89,-333.94 331.77,-337.21 336,-341 387.77,-387.45 418.16,-467.25 430.1,-504.18"/>
<polygon fill="midnightblue" stroke="midnightblue" points="426.9,-505.68 433.22,-514.18 433.58,-503.59 426.9,-505.68"/>
</g>
<!-- Node16 -->
<g id="node16" class="node">
<title>Node16</title>
<g id="a_node16"><a xlink:href="zwapi__session_8c.html#a1f2b3e7c2dcf31708ef8d333747352ba" target="_top" xlink:title=" ">
<polygon fill="none" stroke="black" points="375.5,-301 375.5,-331 498.5,-331 498.5,-301 375.5,-301"/>
<text text-anchor="start" x="383.5" y="-319" font-family="Helvetica,sans-Serif" font-size="10.00">zwapi_session_enqueue</text>
<text text-anchor="middle" x="437" y="-308" font-family="Helvetica,sans-Serif" font-size="10.00">_frame</text>
</a>
</g>
</g>
<!-- Node4&#45;&gt;Node16 -->
<g id="edge18" class="edge">
<title>Node4&#45;&gt;Node16</title>
<path fill="none" stroke="midnightblue" d="M336.18,-316C345.67,-316 355.54,-316 365.23,-316"/>
<polygon fill="midnightblue" stroke="midnightblue" points="365.24,-319.5 375.24,-316 365.24,-312.5 365.24,-319.5"/>
</g>
<!-- Node6 -->
<g id="node6" class="node">
<title>Node6</title>
<g id="a_node6"><a xlink:href="zwapi__timestamp_8c.html#a3925f2732e344672608db38351236688" target="_top" xlink:title="compare the current timestamp with the timestamp passed as an argument">
<polygon fill="none" stroke="black" points="557.5,-399 557.5,-429 663.5,-429 663.5,-399 557.5,-399"/>
<text text-anchor="start" x="565.5" y="-417" font-family="Helvetica,sans-Serif" font-size="10.00">zwapi_is_timestamp</text>
<text text-anchor="middle" x="610.5" y="-406" font-family="Helvetica,sans-Serif" font-size="10.00">_elapsed</text>
</a>
</g>
</g>
<!-- Node5&#45;&gt;Node6 -->
<g id="edge5" class="edge">
<title>Node5&#45;&gt;Node6</title>
<path fill="none" stroke="midnightblue" d="M447.02,-514.26C463.55,-496.92 500.44,-460.53 538,-439 541.66,-436.9 545.52,-434.94 549.48,-433.11"/>
<polygon fill="midnightblue" stroke="midnightblue" points="551.04,-436.25 558.84,-429.08 548.28,-429.82 551.04,-436.25"/>
</g>
<!-- Node7 -->
<g id="node7" class="node">
<title>Node7</title>
<g id="a_node7"><a xlink:href="zwapi__serial_8c.html#a3f2b3bd848e9fe0e6e137482bed06b46" target="_top" xlink:title="Flush the serial output if using buffered output.">
<polygon fill="none" stroke="black" points="562,-651 562,-681 659,-681 659,-651 562,-651"/>
<text text-anchor="start" x="570" y="-669" font-family="Helvetica,sans-Serif" font-size="10.00">zwapi_serial_drain</text>
<text text-anchor="middle" x="610.5" y="-658" font-family="Helvetica,sans-Serif" font-size="10.00">_buffer</text>
</a>
</g>
</g>
<!-- Node5&#45;&gt;Node7 -->
<g id="edge6" class="edge">
<title>Node5&#45;&gt;Node7</title>
<path fill="none" stroke="midnightblue" d="M444.38,-533.7C458.77,-554.91 495.77,-605.88 538,-636 543.45,-639.89 549.48,-643.4 555.66,-646.53"/>
<polygon fill="midnightblue" stroke="midnightblue" points="554.23,-649.72 564.77,-650.84 557.23,-643.4 554.23,-649.72"/>
</g>
<!-- Node8 -->
<g id="node8" class="node">
<title>Node8</title>
<g id="a_node8"><a xlink:href="zwapi__serial_8c.html#a538134f9fdbb1ce052667b3a041357bd" target="_top" xlink:title="Reads the output of the serial port device and stores the content in a buffer.">
<polygon fill="none" stroke="black" points="719,-575.5 719,-594.5 838,-594.5 838,-575.5 719,-575.5"/>
<text text-anchor="middle" x="778.5" y="-582.5" font-family="Helvetica,sans-Serif" font-size="10.00">zwapi_serial_get_buffer</text>
</a>
</g>
</g>
<!-- Node5&#45;&gt;Node8 -->
<g id="edge7" class="edge">
<title>Node5&#45;&gt;Node8</title>
<path fill="none" stroke="midnightblue" d="M446.1,-533.73C461.69,-551.59 497.87,-589.06 538,-603 605.48,-626.44 689.9,-610.45 738.37,-597.3"/>
<polygon fill="midnightblue" stroke="midnightblue" points="739.46,-600.63 748.14,-594.55 737.57,-593.89 739.46,-600.63"/>
</g>
<!-- Node11 -->
<g id="node11" class="node">
<title>Node11</title>
<g id="a_node11"><a xlink:href="zwapi__serial_8c.html#abb082b1e7e727203e3ca5fbeb41f7c2b" target="_top" xlink:title="Reads a byte from the serial port device.">
<polygon fill="none" stroke="black" points="554,-574.5 554,-593.5 667,-593.5 667,-574.5 554,-574.5"/>
<text text-anchor="middle" x="610.5" y="-581.5" font-family="Helvetica,sans-Serif" font-size="10.00">zwapi_serial_get_byte</text>
</a>
</g>
</g>
<!-- Node5&#45;&gt;Node11 -->
<g id="edge10" class="edge">
<title>Node5&#45;&gt;Node11</title>
<path fill="none" stroke="midnightblue" d="M459.16,-533.61C479.19,-542.49 510.26,-555.67 538,-565 545.11,-567.39 552.7,-569.68 560.18,-571.79"/>
<polygon fill="midnightblue" stroke="midnightblue" points="559.32,-575.18 569.89,-574.45 561.17,-568.43 559.32,-575.18"/>
</g>
<!-- Node12 -->
<g id="node12" class="node">
<title>Node12</title>
<g id="a_node12"><a xlink:href="zwapi__serial_8c.html#a9a952dc2b34d92960246f6dc4e7d58f7" target="_top" xlink:title="Check the file descriptor for the serial device is available for I/O operations.">
<polygon fill="none" stroke="black" points="560,-487 560,-517 661,-517 661,-487 560,-487"/>
<text text-anchor="start" x="568" y="-505" font-family="Helvetica,sans-Serif" font-size="10.00">zwapi_serial_is_file</text>
<text text-anchor="middle" x="610.5" y="-494" font-family="Helvetica,sans-Serif" font-size="10.00">_available</text>
</a>
</g>
</g>
<!-- Node5&#45;&gt;Node12 -->
<g id="edge12" class="edge">
<title>Node5&#45;&gt;Node12</title>
<path fill="none" stroke="midnightblue" d="M502.35,-515.75C517.79,-513.76 534.23,-511.66 549.47,-509.7"/>
<polygon fill="midnightblue" stroke="midnightblue" points="550.33,-513.12 559.8,-508.38 549.44,-506.18 550.33,-513.12"/>
</g>
<!-- Node13 -->
<g id="node13" class="node">
<title>Node13</title>
<g id="a_node13"><a xlink:href="zwapi__serial_8c.html#a7762d0358e9f398b92edbfd6a550984a" target="_top" xlink:title="Write a byte to serial port device.">
<polygon fill="none" stroke="black" points="554,-536.5 554,-555.5 667,-555.5 667,-536.5 554,-536.5"/>
<text text-anchor="middle" x="610.5" y="-543.5" font-family="Helvetica,sans-Serif" font-size="10.00">zwapi_serial_put_byte</text>
</a>
</g>
</g>
<!-- Node5&#45;&gt;Node13 -->
<g id="edge13" class="edge">
<title>Node5&#45;&gt;Node13</title>
<path fill="none" stroke="midnightblue" d="M502.35,-532.25C515.83,-533.98 530.07,-535.81 543.6,-537.55"/>
<polygon fill="midnightblue" stroke="midnightblue" points="543.43,-541.05 553.79,-538.85 544.32,-534.11 543.43,-541.05"/>
</g>
<!-- Node15 -->
<g id="node15" class="node">
<title>Node15</title>
<g id="a_node15"><a xlink:href="zwapi__timestamp_8c.html#a6ebe1ddfe689bce6ee72fc12f708aece" target="_top" xlink:title="get the timestamp">
<polygon fill="none" stroke="black" points="554.5,-448.5 554.5,-467.5 666.5,-467.5 666.5,-448.5 554.5,-448.5"/>
<text text-anchor="middle" x="610.5" y="-455.5" font-family="Helvetica,sans-Serif" font-size="10.00">zwapi_timestamp_get</text>
</a>
</g>
</g>
<!-- Node5&#45;&gt;Node15 -->
<g id="edge17" class="edge">
<title>Node5&#45;&gt;Node15</title>
<path fill="none" stroke="midnightblue" d="M456.43,-514.45C476.21,-504.45 508.76,-488.74 538,-478 545.4,-475.28 553.35,-472.72 561.16,-470.4"/>
<polygon fill="midnightblue" stroke="midnightblue" points="562.28,-473.72 570.92,-467.59 560.35,-466.99 562.28,-473.72"/>
</g>
<!-- Node9 -->
<g id="node9" class="node">
<title>Node9</title>
<g id="a_node9"><a xlink:href="zwapi__serial_8c.html#a0accbbf7ddb7aeab10f5df1fe3df6642" target="_top" xlink:title=" ">
<polygon fill="none" stroke="black" points="874,-533.5 874,-552.5 1014,-552.5 1014,-533.5 874,-533.5"/>
<text text-anchor="middle" x="944" y="-540.5" font-family="Helvetica,sans-Serif" font-size="10.00">zwapi_serial_log_timestamp</text>
</a>
</g>
</g>
<!-- Node8&#45;&gt;Node9 -->
<g id="edge8" class="edge">
<title>Node8&#45;&gt;Node9</title>
<path fill="none" stroke="midnightblue" d="M816.6,-575.47C840.14,-569.42 870.8,-561.55 896.03,-555.06"/>
<polygon fill="midnightblue" stroke="midnightblue" points="896.95,-558.44 905.76,-552.57 895.21,-551.66 896.95,-558.44"/>
</g>
<!-- Node10 -->
<g id="node10" class="node">
<title>Node10</title>
<g id="a_node10"><a xlink:href="zwapi__serial_8c.html#abf18afb71e14daaf65d937149ef1639f" target="_top" xlink:title="Test if a is less than b + ms.">
<polygon fill="none" stroke="black" points="890.5,-572 890.5,-602 997.5,-602 997.5,-572 890.5,-572"/>
<text text-anchor="start" x="898.5" y="-590" font-family="Helvetica,sans-Serif" font-size="10.00">zwapi_serial_timeval</text>
<text text-anchor="middle" x="944" y="-579" font-family="Helvetica,sans-Serif" font-size="10.00">_a_lt_b_milis</text>
</a>
</g>
</g>
<!-- Node8&#45;&gt;Node10 -->
<g id="edge9" class="edge">
<title>Node8&#45;&gt;Node10</title>
<path fill="none" stroke="midnightblue" d="M838.07,-585.72C851.65,-585.88 866.16,-586.06 879.92,-586.23"/>
<polygon fill="midnightblue" stroke="midnightblue" points="880.24,-589.73 890.28,-586.36 880.32,-582.73 880.24,-589.73"/>
</g>
<!-- Node11&#45;&gt;Node8 -->
<g id="edge11" class="edge">
<title>Node11&#45;&gt;Node8</title>
<path fill="none" stroke="midnightblue" d="M667.24,-584.34C680.45,-584.42 694.69,-584.5 708.42,-584.58"/>
<polygon fill="midnightblue" stroke="midnightblue" points="708.76,-588.09 718.78,-584.65 708.81,-581.09 708.76,-588.09"/>
</g>
<!-- Node14 -->
<g id="node14" class="node">
<title>Node14</title>
<g id="a_node14"><a xlink:href="zwapi__serial_8c.html#af9054824651df422bab5076d16a80fda" target="_top" xlink:title="Writes the content of a buffer to the serial port device.">
<polygon fill="none" stroke="black" points="719,-536.5 719,-555.5 838,-555.5 838,-536.5 719,-536.5"/>
<text text-anchor="middle" x="778.5" y="-543.5" font-family="Helvetica,sans-Serif" font-size="10.00">zwapi_serial_put_buffer</text>
</a>
</g>
</g>
<!-- Node13&#45;&gt;Node14 -->
<g id="edge14" class="edge">
<title>Node13&#45;&gt;Node14</title>
<path fill="none" stroke="midnightblue" d="M667.24,-546C680.45,-546 694.69,-546 708.42,-546"/>
<polygon fill="midnightblue" stroke="midnightblue" points="708.78,-549.5 718.78,-546 708.78,-542.5 708.78,-549.5"/>
</g>
<!-- Node14&#45;&gt;Node9 -->
<g id="edge15" class="edge">
<title>Node14&#45;&gt;Node9</title>
<path fill="none" stroke="midnightblue" d="M838.07,-544.93C846.43,-544.77 855.15,-544.61 863.82,-544.45"/>
<polygon fill="midnightblue" stroke="midnightblue" points="864.04,-547.95 873.97,-544.27 863.91,-540.95 864.04,-547.95"/>
</g>
<!-- Node14&#45;&gt;Node10 -->
<g id="edge16" class="edge">
<title>Node14&#45;&gt;Node10</title>
<path fill="none" stroke="midnightblue" d="M817.42,-555.51C836.15,-560.21 859.24,-566 880.49,-571.32"/>
<polygon fill="midnightblue" stroke="midnightblue" points="879.87,-574.78 890.42,-573.82 881.58,-567.99 879.87,-574.78"/>
</g>
<!-- Node17 -->
<g id="node17" class="node">
<title>Node17</title>
<g id="a_node17"><a xlink:href="zwapi__connection_8c.html#a91ce3acd7eff779496789637a9c27f40" target="_top" xlink:title="Provides the data of the serial buffer for the last received frame.">
<polygon fill="none" stroke="black" points="554,-301 554,-331 667,-331 667,-301 554,-301"/>
<text text-anchor="start" x="562" y="-319" font-family="Helvetica,sans-Serif" font-size="10.00">zwapi_connection_get</text>
<text text-anchor="middle" x="610.5" y="-308" font-family="Helvetica,sans-Serif" font-size="10.00">_last_rx_frame</text>
</a>
</g>
</g>
<!-- Node16&#45;&gt;Node17 -->
<g id="edge19" class="edge">
<title>Node16&#45;&gt;Node17</title>
<path fill="none" stroke="midnightblue" d="M498.95,-316C513.5,-316 529.09,-316 543.84,-316"/>
<polygon fill="midnightblue" stroke="midnightblue" points="543.9,-319.5 553.9,-316 543.9,-312.5 543.9,-319.5"/>
</g>
<!-- Node18 -->
<g id="node18" class="node">
<title>Node18</title>
<g id="a_node18"><a xlink:href="zwapi__session_8c.html#ad7bac697ee2388b38ed3777b5a3862bc" target="_top" xlink:title=" ">
<polygon fill="none" stroke="black" points="554,-350 554,-380 667,-380 667,-350 554,-350"/>
<text text-anchor="start" x="562" y="-368" font-family="Helvetica,sans-Serif" font-size="10.00">zwapi_session_get_rx</text>
<text text-anchor="middle" x="610.5" y="-357" font-family="Helvetica,sans-Serif" font-size="10.00">_queue_length</text>
</a>
</g>
</g>
<!-- Node16&#45;&gt;Node18 -->
<g id="edge20" class="edge">
<title>Node16&#45;&gt;Node18</title>
<path fill="none" stroke="midnightblue" d="M490.86,-331.1C508.62,-336.18 528.62,-341.89 547.05,-347.16"/>
<polygon fill="midnightblue" stroke="midnightblue" points="546.24,-350.57 556.82,-349.95 548.17,-343.84 546.24,-350.57"/>
</g>
<!-- Node19 -->
<g id="node19" class="node">
<title>Node19</title>
<g id="a_node19"><a xlink:href="group__ZWAPI__INIT.html#ga438a74c9752197d20d377874d5a61694" target="_top" xlink:title="Returns the pointer to the callbacks registered at init.">
<polygon fill="none" stroke="black" points="546.5,-262.5 546.5,-281.5 674.5,-281.5 674.5,-262.5 546.5,-262.5"/>
<text text-anchor="middle" x="610.5" y="-269.5" font-family="Helvetica,sans-Serif" font-size="10.00">zwave_api_get_callbacks</text>
</a>
</g>
</g>
<!-- Node16&#45;&gt;Node19 -->
<g id="edge21" class="edge">
<title>Node16&#45;&gt;Node19</title>
<path fill="none" stroke="midnightblue" d="M496.54,-300.98C518.14,-295.44 542.31,-289.24 562.73,-284"/>
<polygon fill="midnightblue" stroke="midnightblue" points="563.61,-287.39 572.42,-281.51 561.87,-280.61 563.61,-287.39"/>
</g>
<!-- Node20&#45;&gt;Node19 -->
<g id="edge30" class="edge">
<title>Node20&#45;&gt;Node19</title>
<path fill="none" stroke="midnightblue" d="M295.03,-189.09C313.73,-202.76 343.28,-222.33 372,-233 425.02,-252.7 488.38,-262.47 536.32,-267.31"/>
<polygon fill="midnightblue" stroke="midnightblue" points="536.01,-270.79 546.3,-268.26 536.68,-263.82 536.01,-270.79"/>
</g>
<!-- Node21 -->
<g id="node21" class="node">
<title>Node21</title>
<g id="a_node21"><a xlink:href="zwapi__protocol__rx__dispatch_8c.html#affd1799acf38ff38beb2e80c1bf60eca" target="_top" xlink:title="Fills default values in the Tx Report in case it is too short or incomplete coming from the Z&#45;Wave AP...">
<polygon fill="none" stroke="black" points="385,-39 385,-69 489,-69 489,-39 385,-39"/>
<text text-anchor="start" x="393" y="-57" font-family="Helvetica,sans-Serif" font-size="10.00">fill_default_tx_report</text>
<text text-anchor="middle" x="437" y="-46" font-family="Helvetica,sans-Serif" font-size="10.00">_values</text>
</a>
</g>
</g>
<!-- Node20&#45;&gt;Node21 -->
<g id="edge23" class="edge">
<title>Node20&#45;&gt;Node21</title>
<path fill="none" stroke="midnightblue" d="M287.34,-158.67C304.15,-137.84 336.8,-100.6 372,-78 374.43,-76.44 376.98,-74.95 379.61,-73.55"/>
<polygon fill="midnightblue" stroke="midnightblue" points="381.3,-76.62 388.74,-69.08 378.22,-70.33 381.3,-76.62"/>
</g>
<!-- Node22 -->
<g id="node22" class="node">
<title>Node22</title>
<g id="a_node22"><a xlink:href="zwapi__protocol__rx__dispatch_8c.html#a96d24d537c5b8d6aa0aa6a7638ba2f09" target="_top" xlink:title=" ">
<polygon fill="none" stroke="black" points="379.5,-0.5 379.5,-19.5 494.5,-19.5 494.5,-0.5 379.5,-0.5"/>
<text text-anchor="middle" x="437" y="-7.5" font-family="Helvetica,sans-Serif" font-size="10.00">zwapi_frame_to_string</text>
</a>
</g>
</g>
<!-- Node20&#45;&gt;Node22 -->
<g id="edge24" class="edge">
<title>Node20&#45;&gt;Node22</title>
<path fill="none" stroke="midnightblue" d="M281.44,-158.74C293.72,-129.15 324.81,-63.85 372,-29 374.53,-27.13 377.24,-25.45 380.07,-23.93"/>
<polygon fill="midnightblue" stroke="midnightblue" points="381.8,-26.98 389.41,-19.61 378.86,-20.63 381.8,-26.98"/>
</g>
<!-- Node23 -->
<g id="node23" class="node">
<title>Node23</title>
<g id="a_node23"><a xlink:href="group__ZWAPI__BASIS.html#ga956fbfe63267baacd31dd20aa1c444d1" target="_top" xlink:title="Get the current node ID basetype setting.">
<polygon fill="none" stroke="black" points="538,-205.5 538,-224.5 683,-224.5 683,-205.5 538,-205.5"/>
<text text-anchor="middle" x="610.5" y="-212.5" font-family="Helvetica,sans-Serif" font-size="10.00">zwapi_get_node_id_basetype</text>
</a>
</g>
</g>
<!-- Node20&#45;&gt;Node23 -->
<g id="edge25" class="edge">
<title>Node20&#45;&gt;Node23</title>
<path fill="none" stroke="midnightblue" d="M302.83,-189.12C321.64,-198.63 347.56,-210.02 372,-215 422.99,-225.38 481.43,-225.53 527.58,-223.01"/>
<polygon fill="midnightblue" stroke="midnightblue" points="528.05,-226.49 537.83,-222.39 527.64,-219.5 528.05,-226.49"/>
</g>
<!-- Node24 -->
<g id="node24" class="node">
<title>Node24</title>
<g id="a_node24"><a xlink:href="zwapi__utils_8c.html#a6d88e95211c894df11d77b32fb987108" target="_top" xlink:title="Read the node ID from buffer based on node ID basetype. Note that this helper also advances the index...">
<polygon fill="none" stroke="black" points="384.5,-186.5 384.5,-205.5 489.5,-205.5 489.5,-186.5 384.5,-186.5"/>
<text text-anchor="middle" x="437" y="-193.5" font-family="Helvetica,sans-Serif" font-size="10.00">zwapi_read_node_id</text>
</a>
</g>
</g>
<!-- Node20&#45;&gt;Node24 -->
<g id="edge26" class="edge">
<title>Node20&#45;&gt;Node24</title>
<path fill="none" stroke="midnightblue" d="M326.28,-180.96C341.5,-183.05 358.36,-185.36 374.21,-187.53"/>
<polygon fill="midnightblue" stroke="midnightblue" points="374.06,-191.04 384.44,-188.93 375.01,-184.11 374.06,-191.04"/>
</g>
<!-- Node25 -->
<g id="node25" class="node">
<title>Node25</title>
<g id="a_node25"><a xlink:href="group__ZWAPI__INIT.html#gac747addbb718dc86d958ba5f38bb5ad5" target="_top" xlink:title="Sets the value of &quot;awaiting a Z&#45;Wave API started callback&quot;.">
<polygon fill="none" stroke="black" points="385,-137 385,-167 489,-167 489,-137 385,-137"/>
<text text-anchor="start" x="393" y="-155" font-family="Helvetica,sans-Serif" font-size="10.00">zwapi_set_awaiting</text>
<text text-anchor="middle" x="437" y="-144" font-family="Helvetica,sans-Serif" font-size="10.00">_zwave_api_started</text>
</a>
</g>
</g>
<!-- Node20&#45;&gt;Node25 -->
<g id="edge28" class="edge">
<title>Node20&#45;&gt;Node25</title>
<path fill="none" stroke="midnightblue" d="M326.28,-167.04C341.65,-164.93 358.69,-162.6 374.68,-160.41"/>
<polygon fill="midnightblue" stroke="midnightblue" points="375.56,-163.82 385,-158.99 374.61,-156.88 375.56,-163.82"/>
</g>
<!-- Node26 -->
<g id="node26" class="node">
<title>Node26</title>
<g id="a_node26"><a xlink:href="zwapi__protocol__rx__dispatch_8c.html#a66feac9effd6731812c0d38f9811977e" target="_top" xlink:title=" ">
<polygon fill="none" stroke="black" points="374.5,-88 374.5,-118 499.5,-118 499.5,-88 374.5,-88"/>
<text text-anchor="start" x="382.5" y="-106" font-family="Helvetica,sans-Serif" font-size="10.00">zwave_api_detect_buffer</text>
<text text-anchor="middle" x="437" y="-95" font-family="Helvetica,sans-Serif" font-size="10.00">_overflow</text>
</a>
</g>
</g>
<!-- Node20&#45;&gt;Node26 -->
<g id="edge29" class="edge">
<title>Node20&#45;&gt;Node26</title>
<path fill="none" stroke="midnightblue" d="M304.73,-158.87C323.69,-149.28 349.06,-136.86 372,-127 376.1,-125.24 380.37,-123.48 384.68,-121.75"/>
<polygon fill="midnightblue" stroke="midnightblue" points="386.08,-124.96 394.12,-118.06 383.53,-118.45 386.08,-124.96"/>
</g>
<!-- Node24&#45;&gt;Node23 -->
<g id="edge27" class="edge">
<title>Node24&#45;&gt;Node23</title>
<path fill="none" stroke="midnightblue" d="M489.92,-201.75C501.82,-203.07 514.76,-204.5 527.58,-205.92"/>
<polygon fill="midnightblue" stroke="midnightblue" points="527.5,-209.44 537.82,-207.06 528.27,-202.48 527.5,-209.44"/>
</g>
</g>
</svg>
