<?xml version="1.0" encoding="UTF-8" standalone="no"?>
<!DOCTYPE svg PUBLIC "-//W3C//DTD SVG 1.1//EN"
 "http://www.w3.org/Graphics/SVG/1.1/DTD/svg11.dtd">
<!-- Generated by graphviz version 2.43.0 (0)
 -->
<!-- Title: handle_keypad_mode_report Pages: 1 -->
<svg width="1114pt" height="100pt"
 viewBox="0.00 0.00 1114.00 99.50" xmlns="http://www.w3.org/2000/svg" xmlns:xlink="http://www.w3.org/1999/xlink">
<g id="graph0" class="graph" transform="scale(1 1) rotate(0) translate(4 95.5)">
<title>handle_keypad_mode_report</title>
<!-- Node1 -->
<g id="node1" class="node">
<title>Node1</title>
<g id="a_node1"><a xlink:title="Process an incoming Keypad Mode Report Command.">
<polygon fill="#bfbfbf" stroke="black" points="0,-17 0,-47 111,-47 111,-17 0,-17"/>
<text text-anchor="start" x="8" y="-35" font-family="Helvetica,sans-Serif" font-size="10.00">handle_keypad_mode</text>
<text text-anchor="middle" x="55.5" y="-24" font-family="Helvetica,sans-Serif" font-size="10.00">_report</text>
</a>
</g>
</g>
<!-- Node2 -->
<g id="node2" class="node">
<title>Node2</title>
<g id="a_node2"><a xlink:href="zwave__command__class__user__code_8c.html#a8496f07f3edc07cf184f5ca3c7f3f23c" target="_top" xlink:title=" ">
<polygon fill="none" stroke="black" points="147,-22.5 147,-41.5 278,-41.5 278,-22.5 147,-22.5"/>
<text text-anchor="middle" x="212.5" y="-29.5" font-family="Helvetica,sans-Serif" font-size="10.00">get_user_code_data_node</text>
</a>
</g>
</g>
<!-- Node1&#45;&gt;Node2 -->
<g id="edge1" class="edge">
<title>Node1&#45;&gt;Node2</title>
<path fill="none" stroke="midnightblue" d="M111.15,-32C119.48,-32 128.2,-32 136.87,-32"/>
<polygon fill="midnightblue" stroke="midnightblue" points="137,-35.5 147,-32 137,-28.5 137,-35.5"/>
</g>
<!-- Node3 -->
<g id="node3" class="node">
<title>Node3</title>
<g id="a_node3"><a xlink:href="group__command__classes__utils.html#gaff12f5d1f5b9eed08201efab5854190c" target="_top" xlink:title="Find the Z&#45;Wave Endpoint ID Node attribute based on a const zwave_controller_connection_info_t object...">
<polygon fill="none" stroke="black" points="314,-17 314,-47 436,-47 436,-17 314,-17"/>
<text text-anchor="start" x="322" y="-35" font-family="Helvetica,sans-Serif" font-size="10.00">zwave_command_class</text>
<text text-anchor="middle" x="375" y="-24" font-family="Helvetica,sans-Serif" font-size="10.00">_get_endpoint_node</text>
</a>
</g>
</g>
<!-- Node2&#45;&gt;Node3 -->
<g id="edge2" class="edge">
<title>Node2&#45;&gt;Node3</title>
<path fill="none" stroke="midnightblue" d="M278.32,-32C286.67,-32 295.25,-32 303.68,-32"/>
<polygon fill="midnightblue" stroke="midnightblue" points="303.87,-35.5 313.87,-32 303.87,-28.5 303.87,-35.5"/>
</g>
<!-- Node4 -->
<g id="node4" class="node">
<title>Node4</title>
<g id="a_node4"><a xlink:href="group__zpc__attribute__store__network__helpers.html#gae4d15b8e0c61c88d94c8f342bd2014fc" target="_top" xlink:title="Take a UNID/endpoint combination and returns its attribute store node.">
<polygon fill="none" stroke="black" points="472,-39 472,-69 607,-69 607,-39 472,-39"/>
<text text-anchor="start" x="480" y="-57" font-family="Helvetica,sans-Serif" font-size="10.00">attribute_store_network</text>
<text text-anchor="middle" x="539.5" y="-46" font-family="Helvetica,sans-Serif" font-size="10.00">_helper_get_endpoint_node</text>
</a>
</g>
</g>
<!-- Node3&#45;&gt;Node4 -->
<g id="edge3" class="edge">
<title>Node3&#45;&gt;Node4</title>
<path fill="none" stroke="midnightblue" d="M436.05,-40.13C444.43,-41.26 453.14,-42.44 461.77,-43.61"/>
<polygon fill="midnightblue" stroke="midnightblue" points="461.48,-47.1 471.86,-44.98 462.42,-40.17 461.48,-47.1"/>
</g>
<!-- Node9 -->
<g id="node9" class="node">
<title>Node9</title>
<g id="a_node9"><a xlink:href="group__zwave__unid.html#ga421deceb8a12916f049e4f3446774439" target="_top" xlink:title="Form a UNID.">
<polygon fill="none" stroke="black" points="473.5,-0.5 473.5,-19.5 605.5,-19.5 605.5,-0.5 473.5,-0.5"/>
<text text-anchor="middle" x="539.5" y="-7.5" font-family="Helvetica,sans-Serif" font-size="10.00">zwave_unid_from_node_id</text>
</a>
</g>
</g>
<!-- Node3&#45;&gt;Node9 -->
<g id="edge8" class="edge">
<title>Node3&#45;&gt;Node9</title>
<path fill="none" stroke="midnightblue" d="M436.05,-23.87C444.85,-22.68 454.01,-21.44 463.07,-20.21"/>
<polygon fill="midnightblue" stroke="midnightblue" points="463.8,-23.65 473.24,-18.84 462.86,-16.71 463.8,-23.65"/>
</g>
<!-- Node5 -->
<g id="node5" class="node">
<title>Node5</title>
<g id="a_node5"><a xlink:href="group__zpc__attribute__store__network__helpers.html#gafb993ff484b3c826743c4695d6659cf0" target="_top" xlink:title="Take a UNID and return its attribute store node representing the NodeID.">
<polygon fill="none" stroke="black" points="643,-39 643,-69 775,-69 775,-39 643,-39"/>
<text text-anchor="start" x="651" y="-57" font-family="Helvetica,sans-Serif" font-size="10.00">attribute_store_network</text>
<text text-anchor="middle" x="709" y="-46" font-family="Helvetica,sans-Serif" font-size="10.00">_helper_get_node_id_node</text>
</a>
</g>
</g>
<!-- Node4&#45;&gt;Node5 -->
<g id="edge4" class="edge">
<title>Node4&#45;&gt;Node5</title>
<path fill="none" stroke="midnightblue" d="M607.18,-54C615.55,-54 624.15,-54 632.64,-54"/>
<polygon fill="midnightblue" stroke="midnightblue" points="632.91,-57.5 642.91,-54 632.91,-50.5 632.91,-57.5"/>
</g>
<!-- Node6 -->
<g id="node6" class="node">
<title>Node6</title>
<g id="a_node6"><a xlink:href="group__zpc__attribute__store__network__helpers.html#ga05cb572c96f7dc8e6657f86e135fafed" target="_top" xlink:title="Take a UNID and return its attribute store node representing the HomeID.">
<polygon fill="none" stroke="black" points="811,-61 811,-91 946,-91 946,-61 811,-61"/>
<text text-anchor="start" x="819" y="-79" font-family="Helvetica,sans-Serif" font-size="10.00">attribute_store_network</text>
<text text-anchor="middle" x="878.5" y="-68" font-family="Helvetica,sans-Serif" font-size="10.00">_helper_get_home_id_node</text>
</a>
</g>
</g>
<!-- Node5&#45;&gt;Node6 -->
<g id="edge5" class="edge">
<title>Node5&#45;&gt;Node6</title>
<path fill="none" stroke="midnightblue" d="M775.24,-62.57C783.62,-63.67 792.27,-64.81 800.82,-65.93"/>
<polygon fill="midnightblue" stroke="midnightblue" points="800.41,-69.4 810.78,-67.24 801.32,-62.46 800.41,-69.4"/>
</g>
<!-- Node8 -->
<g id="node8" class="node">
<title>Node8</title>
<g id="a_node8"><a xlink:href="group__zwave__unid.html#ga76885767debd174e96e6df00b0a368c3" target="_top" xlink:title="Convert a UNID to a node ID.">
<polygon fill="none" stroke="black" points="818,-22.5 818,-41.5 939,-41.5 939,-22.5 818,-22.5"/>
<text text-anchor="middle" x="878.5" y="-29.5" font-family="Helvetica,sans-Serif" font-size="10.00">zwave_unid_to_node_id</text>
</a>
</g>
</g>
<!-- Node5&#45;&gt;Node8 -->
<g id="edge7" class="edge">
<title>Node5&#45;&gt;Node8</title>
<path fill="none" stroke="midnightblue" d="M775.24,-45.43C785.89,-44.03 796.96,-42.58 807.72,-41.17"/>
<polygon fill="midnightblue" stroke="midnightblue" points="808.45,-44.6 817.91,-39.83 807.54,-37.66 808.45,-44.6"/>
</g>
<!-- Node7 -->
<g id="node7" class="node">
<title>Node7</title>
<g id="a_node7"><a xlink:href="group__zwave__unid.html#ga92f9808a08c2ce1c0a6a9dc2debf3580" target="_top" xlink:title="Convert a UNID to a Home ID.">
<polygon fill="none" stroke="black" points="982,-66.5 982,-85.5 1106,-85.5 1106,-66.5 982,-66.5"/>
<text text-anchor="middle" x="1044" y="-73.5" font-family="Helvetica,sans-Serif" font-size="10.00">zwave_unid_to_home_id</text>
</a>
</g>
</g>
<!-- Node6&#45;&gt;Node7 -->
<g id="edge6" class="edge">
<title>Node6&#45;&gt;Node7</title>
<path fill="none" stroke="midnightblue" d="M946,-76C954.42,-76 963.07,-76 971.57,-76"/>
<polygon fill="midnightblue" stroke="midnightblue" points="971.83,-79.5 981.83,-76 971.83,-72.5 971.83,-79.5"/>
</g>
</g>
</svg>
