<?xml version="1.0" encoding="UTF-8" standalone="no"?>
<!DOCTYPE svg PUBLIC "-//W3C//DTD SVG 1.1//EN"
 "http://www.w3.org/Graphics/SVG/1.1/DTD/svg11.dtd">
<!-- Generated by graphviz version 2.43.0 (0)
 -->
<!-- Title: applications/zpc/components/zwave/zwave_controller/include/zwave_controller_crc16.h Pages: 1 -->
<svg width="352pt" height="161pt"
 viewBox="0.00 0.00 351.50 161.00" xmlns="http://www.w3.org/2000/svg" xmlns:xlink="http://www.w3.org/1999/xlink">
<g id="graph0" class="graph" transform="scale(1 1) rotate(0) translate(4 157)">
<title>applications/zpc/components/zwave/zwave_controller/include/zwave_controller_crc16.h</title>
<!-- Node1 -->
<g id="node1" class="node">
<title>Node1</title>
<g id="a_node1"><a xlink:title=" ">
<polygon fill="#bfbfbf" stroke="black" points="105,-100.5 105,-152.5 248,-152.5 248,-100.5 105,-100.5"/>
<text text-anchor="start" x="113" y="-140.5" font-family="Helvetica,sans-Serif" font-size="10.00">applications/zpc/components</text>
<text text-anchor="start" x="113" y="-129.5" font-family="Helvetica,sans-Serif" font-size="10.00">/zwave/zwave_controller</text>
<text text-anchor="start" x="113" y="-118.5" font-family="Helvetica,sans-Serif" font-size="10.00">/include/zwave_controller</text>
<text text-anchor="middle" x="176.5" y="-107.5" font-family="Helvetica,sans-Serif" font-size="10.00">_crc16.h</text>
</a>
</g>
</g>
<!-- Node2 -->
<g id="node2" class="node">
<title>Node2</title>
<g id="a_node2"><a xlink:href="zwave__crc16__transport_8c.html" target="_top" xlink:title=" ">
<polygon fill="none" stroke="black" points="0,-11.5 0,-52.5 173,-52.5 173,-11.5 0,-11.5"/>
<text text-anchor="start" x="8" y="-40.5" font-family="Helvetica,sans-Serif" font-size="10.00">applications/zpc/components</text>
<text text-anchor="start" x="8" y="-29.5" font-family="Helvetica,sans-Serif" font-size="10.00">/zwave/zwave_transports</text>
<text text-anchor="middle" x="86.5" y="-18.5" font-family="Helvetica,sans-Serif" font-size="10.00">/crc16/src/zwave_crc16_transport.c</text>
</a>
</g>
</g>
<!-- Node1&#45;&gt;Node2 -->
<g id="edge1" class="edge">
<title>Node1&#45;&gt;Node2</title>
<path fill="none" stroke="midnightblue" d="M144.84,-92.96C131.76,-79.52 117.03,-64.38 105.64,-52.67"/>
<polygon fill="midnightblue" stroke="midnightblue" points="142.42,-95.5 151.91,-100.22 147.44,-90.62 142.42,-95.5"/>
</g>
<!-- Node3 -->
<g id="node3" class="node">
<title>Node3</title>
<g id="a_node3"><a xlink:href="transport__service_8c.html" target="_top" xlink:title=" ">
<polygon fill="none" stroke="black" points="191.5,-0.5 191.5,-63.5 343.5,-63.5 343.5,-0.5 191.5,-0.5"/>
<text text-anchor="start" x="199.5" y="-51.5" font-family="Helvetica,sans-Serif" font-size="10.00">applications/zpc/components</text>
<text text-anchor="start" x="199.5" y="-40.5" font-family="Helvetica,sans-Serif" font-size="10.00">/zwave/zwave_transports</text>
<text text-anchor="start" x="199.5" y="-29.5" font-family="Helvetica,sans-Serif" font-size="10.00">/transport_service_wrapper</text>
<text text-anchor="start" x="199.5" y="-18.5" font-family="Helvetica,sans-Serif" font-size="10.00">/transport_service/src/transport</text>
<text text-anchor="middle" x="267.5" y="-7.5" font-family="Helvetica,sans-Serif" font-size="10.00">_service.c</text>
</a>
</g>
</g>
<!-- Node1&#45;&gt;Node3 -->
<g id="edge2" class="edge">
<title>Node1&#45;&gt;Node3</title>
<path fill="none" stroke="midnightblue" d="M208.39,-93.08C217.84,-83.47 228.16,-72.99 237.48,-63.51"/>
<polygon fill="midnightblue" stroke="midnightblue" points="205.88,-90.64 201.37,-100.22 210.87,-95.55 205.88,-90.64"/>
</g>
</g>
</svg>
