<?xml version="1.0" encoding="UTF-8" standalone="no"?>
<!DOCTYPE svg PUBLIC "-//W3C//DTD SVG 1.1//EN"
 "http://www.w3.org/Graphics/SVG/1.1/DTD/svg11.dtd">
<!-- Generated by graphviz version 2.43.0 (0)
 -->
<!-- Title: applications/zpc/components/zwave_command_classes/src/zwave_command_class_agi.h Pages: 1 -->
<svg width="1138pt" height="486pt"
 viewBox="0.00 0.00 1137.50 486.00" xmlns="http://www.w3.org/2000/svg" xmlns:xlink="http://www.w3.org/1999/xlink">
<g id="graph0" class="graph" transform="scale(1 1) rotate(0) translate(4 482)">
<title>applications/zpc/components/zwave_command_classes/src/zwave_command_class_agi.h</title>
<!-- Node1 -->
<g id="node1" class="node">
<title>Node1</title>
<g id="a_node1"><a xlink:title=" ">
<polygon fill="#bfbfbf" stroke="black" points="821.5,-436.5 821.5,-477.5 973.5,-477.5 973.5,-436.5 821.5,-436.5"/>
<text text-anchor="start" x="829.5" y="-465.5" font-family="Helvetica,sans-Serif" font-size="10.00">applications/zpc/components</text>
<text text-anchor="start" x="829.5" y="-454.5" font-family="Helvetica,sans-Serif" font-size="10.00">/zwave_command_classes/src</text>
<text text-anchor="middle" x="897.5" y="-443.5" font-family="Helvetica,sans-Serif" font-size="10.00">/zwave_command_class_agi.h</text>
</a>
</g>
</g>
<!-- Node2 -->
<g id="node2" class="node">
<title>Node2</title>
<g id="a_node2"><a xlink:href="sl__status_8h.html" target="_top" xlink:title="SL Status Codes.">
<polygon fill="none" stroke="black" points="0,-252 0,-271 65,-271 65,-252 0,-252"/>
<text text-anchor="middle" x="32.5" y="-259" font-family="Helvetica,sans-Serif" font-size="10.00">sl_status.h</text>
</a>
</g>
</g>
<!-- Node1&#45;&gt;Node2 -->
<g id="edge1" class="edge">
<title>Node1&#45;&gt;Node2</title>
<path fill="none" stroke="midnightblue" d="M821.47,-454.53C637.51,-449.48 174.97,-427.48 58.5,-333 42.86,-320.31 36.63,-297.29 34.14,-281.01"/>
<polygon fill="midnightblue" stroke="midnightblue" points="37.61,-280.54 32.96,-271.03 30.66,-281.37 37.61,-280.54"/>
</g>
<!-- Node4 -->
<g id="node4" class="node">
<title>Node4</title>
<g id="a_node4"><a xlink:href="zwave__command__class__association__internals_8h.html" target="_top" xlink:title=" ">
<polygon fill="none" stroke="black" points="553.5,-369.5 553.5,-399.5 675.5,-399.5 675.5,-369.5 553.5,-369.5"/>
<text text-anchor="start" x="561.5" y="-387.5" font-family="Helvetica,sans-Serif" font-size="10.00">zwave_command_class</text>
<text text-anchor="middle" x="614.5" y="-376.5" font-family="Helvetica,sans-Serif" font-size="10.00">_association_internals.h</text>
</a>
</g>
</g>
<!-- Node1&#45;&gt;Node4 -->
<g id="edge3" class="edge">
<title>Node1&#45;&gt;Node4</title>
<path fill="none" stroke="midnightblue" d="M821.29,-437.01C777.49,-426.1 723,-412.53 680.95,-402.05"/>
<polygon fill="midnightblue" stroke="midnightblue" points="681.64,-398.62 671.09,-399.6 679.94,-405.41 681.64,-398.62"/>
</g>
<!-- Node11 -->
<g id="node11" class="node">
<title>Node11</title>
<g id="a_node11"><a xlink:href="zwave__controller__types_8h.html" target="_top" xlink:title=" ">
<polygon fill="none" stroke="black" points="463.5,-118 463.5,-137 591.5,-137 591.5,-118 463.5,-118"/>
<text text-anchor="middle" x="527.5" y="-125" font-family="Helvetica,sans-Serif" font-size="10.00">zwave_controller_types.h</text>
</a>
</g>
</g>
<!-- Node1&#45;&gt;Node11 -->
<g id="edge37" class="edge">
<title>Node1&#45;&gt;Node11</title>
<path fill="none" stroke="midnightblue" d="M973.79,-444.9C1041.41,-430.23 1129.5,-397.1 1129.5,-324 1129.5,-324 1129.5,-324 1129.5,-260.5 1129.5,-212.17 1100.57,-200.94 1057.5,-179 979.72,-139.38 728.19,-130.73 601.65,-128.92"/>
<polygon fill="midnightblue" stroke="midnightblue" points="601.69,-125.42 591.65,-128.79 601.6,-132.42 601.69,-125.42"/>
</g>
<!-- Node17 -->
<g id="node17" class="node">
<title>Node17</title>
<g id="a_node17"><a xlink:title=" ">
<polygon fill="none" stroke="#bfbfbf" points="937.5,-185 937.5,-204 1025.5,-204 1025.5,-185 937.5,-185"/>
<text text-anchor="middle" x="981.5" y="-192" font-family="Helvetica,sans-Serif" font-size="10.00">ZW_classcmd.h</text>
</a>
</g>
</g>
<!-- Node1&#45;&gt;Node17 -->
<g id="edge38" class="edge">
<title>Node1&#45;&gt;Node17</title>
<path fill="none" stroke="midnightblue" d="M903.81,-436.42C919.53,-387.68 960.24,-261.43 975.56,-213.93"/>
<polygon fill="midnightblue" stroke="midnightblue" points="978.91,-214.93 978.65,-204.34 972.25,-212.78 978.91,-214.93"/>
</g>
<!-- Node3 -->
<g id="node3" class="node">
<title>Node3</title>
<g id="a_node3"><a xlink:title=" ">
<polygon fill="none" stroke="#bfbfbf" points="289,-0.5 289,-19.5 338,-19.5 338,-0.5 289,-0.5"/>
<text text-anchor="middle" x="313.5" y="-7.5" font-family="Helvetica,sans-Serif" font-size="10.00">stdint.h</text>
</a>
</g>
</g>
<!-- Node2&#45;&gt;Node3 -->
<g id="edge2" class="edge">
<title>Node2&#45;&gt;Node3</title>
<path fill="none" stroke="midnightblue" d="M29.67,-251.8C22.43,-227.82 5.46,-159.42 30.5,-112 77.45,-23.07 214.16,-10.8 278.83,-10.17"/>
<polygon fill="midnightblue" stroke="midnightblue" points="278.93,-13.67 288.93,-10.16 278.93,-6.67 278.93,-13.67"/>
</g>
<!-- Node4&#45;&gt;Node2 -->
<g id="edge4" class="edge">
<title>Node4&#45;&gt;Node2</title>
<path fill="none" stroke="midnightblue" d="M553.16,-383.69C431.64,-383.08 165.22,-376.65 86.5,-333 65.28,-321.24 49.75,-297.3 40.93,-280.6"/>
<polygon fill="midnightblue" stroke="midnightblue" points="43.89,-278.71 36.31,-271.31 37.62,-281.82 43.89,-278.71"/>
</g>
<!-- Node5 -->
<g id="node5" class="node">
<title>Node5</title>
<g id="a_node5"><a xlink:href="zwave__utils_8h.html" target="_top" xlink:title="Various Z&#45;Wave related utilities.">
<polygon fill="none" stroke="black" points="458,-313.5 458,-332.5 535,-332.5 535,-313.5 458,-313.5"/>
<text text-anchor="middle" x="496.5" y="-320.5" font-family="Helvetica,sans-Serif" font-size="10.00">zwave_utils.h</text>
</a>
</g>
</g>
<!-- Node4&#45;&gt;Node5 -->
<g id="edge5" class="edge">
<title>Node4&#45;&gt;Node5</title>
<path fill="none" stroke="midnightblue" d="M586.54,-369.4C567.18,-359.64 541.59,-346.74 522.64,-337.18"/>
<polygon fill="midnightblue" stroke="midnightblue" points="524.17,-334.04 513.67,-332.66 521.02,-340.29 524.17,-334.04"/>
</g>
<!-- Node4&#45;&gt;Node11 -->
<g id="edge33" class="edge">
<title>Node4&#45;&gt;Node11</title>
<path fill="none" stroke="midnightblue" d="M675.52,-376.49C816.56,-358.05 1144.93,-300.97 1034.5,-179 1006.04,-147.56 735.76,-134.89 601.89,-130.51"/>
<polygon fill="midnightblue" stroke="midnightblue" points="601.82,-127 591.71,-130.18 601.59,-134 601.82,-127"/>
</g>
<!-- Node18 -->
<g id="node18" class="node">
<title>Node18</title>
<g id="a_node18"><a xlink:title=" ">
<polygon fill="none" stroke="#bfbfbf" points="832,-185 832,-204 919,-204 919,-185 832,-185"/>
<text text-anchor="middle" x="875.5" y="-192" font-family="Helvetica,sans-Serif" font-size="10.00">attribute_store.h</text>
</a>
</g>
</g>
<!-- Node4&#45;&gt;Node18 -->
<g id="edge36" class="edge">
<title>Node4&#45;&gt;Node18</title>
<path fill="none" stroke="midnightblue" d="M675.77,-377.67C737.93,-368.13 831.14,-343.01 875.5,-277 888.05,-258.33 885.01,-231.41 880.9,-213.69"/>
<polygon fill="midnightblue" stroke="midnightblue" points="884.28,-212.78 878.34,-204.01 877.52,-214.57 884.28,-212.78"/>
</g>
<!-- Node21 -->
<g id="node21" class="node">
<title>Node21</title>
<g id="a_node21"><a xlink:href="zwave__command__class__association__types_8h.html" target="_top" xlink:title=" ">
<polygon fill="none" stroke="black" points="39.5,-112.5 39.5,-142.5 161.5,-142.5 161.5,-112.5 39.5,-112.5"/>
<text text-anchor="start" x="47.5" y="-130.5" font-family="Helvetica,sans-Serif" font-size="10.00">zwave_command_class</text>
<text text-anchor="middle" x="100.5" y="-119.5" font-family="Helvetica,sans-Serif" font-size="10.00">_association_types.h</text>
</a>
</g>
</g>
<!-- Node4&#45;&gt;Node21 -->
<g id="edge34" class="edge">
<title>Node4&#45;&gt;Node21</title>
<path fill="none" stroke="midnightblue" d="M553.24,-376.59C442.11,-362.9 213.34,-329.1 154.5,-277 118.15,-244.81 106.25,-186.15 102.37,-153"/>
<polygon fill="midnightblue" stroke="midnightblue" points="105.83,-152.41 101.34,-142.82 98.86,-153.12 105.83,-152.41"/>
</g>
<!-- Node5&#45;&gt;Node2 -->
<g id="edge8" class="edge">
<title>Node5&#45;&gt;Node2</title>
<path fill="none" stroke="midnightblue" d="M457.88,-317.79C390.24,-310.32 245.96,-293.91 124.5,-277 108.5,-274.77 90.97,-272.07 75.54,-269.61"/>
<polygon fill="midnightblue" stroke="midnightblue" points="75.67,-266.09 65.24,-267.95 74.56,-273 75.67,-266.09"/>
</g>
<!-- Node5&#45;&gt;Node3 -->
<g id="edge6" class="edge">
<title>Node5&#45;&gt;Node3</title>
<path fill="none" stroke="midnightblue" d="M457.78,-317.44C430.65,-312.2 395.6,-300.99 374.5,-277 310.32,-204.04 309.82,-77.26 312.16,-29.72"/>
<polygon fill="midnightblue" stroke="midnightblue" points="315.66,-29.84 312.77,-19.65 308.67,-29.42 315.66,-29.84"/>
</g>
<!-- Node6 -->
<g id="node6" class="node">
<title>Node6</title>
<g id="a_node6"><a xlink:title=" ">
<polygon fill="none" stroke="#bfbfbf" points="594.5,-0.5 594.5,-19.5 650.5,-19.5 650.5,-0.5 594.5,-0.5"/>
<text text-anchor="middle" x="622.5" y="-7.5" font-family="Helvetica,sans-Serif" font-size="10.00">stdbool.h</text>
</a>
</g>
</g>
<!-- Node5&#45;&gt;Node6 -->
<g id="edge7" class="edge">
<title>Node5&#45;&gt;Node6</title>
<path fill="none" stroke="midnightblue" d="M535.22,-321.5C661.54,-318.83 1053.5,-301.98 1053.5,-195.5 1053.5,-195.5 1053.5,-195.5 1053.5,-126.5 1053.5,-45.61 766.7,-19.83 661.01,-13.08"/>
<polygon fill="midnightblue" stroke="midnightblue" points="660.98,-9.57 650.78,-12.45 660.55,-16.56 660.98,-9.57"/>
</g>
<!-- Node7 -->
<g id="node7" class="node">
<title>Node7</title>
<g id="a_node7"><a xlink:href="zwave__generic__types_8h.html" target="_top" xlink:title=" ">
<polygon fill="none" stroke="black" points="361,-56.5 361,-75.5 480,-75.5 480,-56.5 361,-56.5"/>
<text text-anchor="middle" x="420.5" y="-63.5" font-family="Helvetica,sans-Serif" font-size="10.00">zwave_generic_types.h</text>
</a>
</g>
</g>
<!-- Node5&#45;&gt;Node7 -->
<g id="edge9" class="edge">
<title>Node5&#45;&gt;Node7</title>
<path fill="none" stroke="midnightblue" d="M504.98,-313.22C518.45,-298.17 541.68,-267.05 525.5,-246 487.67,-196.76 428.33,-259.24 390.5,-210 361.62,-172.41 390.89,-113.5 408.8,-84.43"/>
<polygon fill="midnightblue" stroke="midnightblue" points="411.89,-86.09 414.34,-75.78 406,-82.31 411.89,-86.09"/>
</g>
<!-- Node8 -->
<g id="node8" class="node">
<title>Node8</title>
<g id="a_node8"><a xlink:href="zwave__node__id__definitions_8h.html" target="_top" xlink:title=" ">
<polygon fill="none" stroke="black" points="121.5,-56.5 121.5,-75.5 263.5,-75.5 263.5,-56.5 121.5,-56.5"/>
<text text-anchor="middle" x="192.5" y="-63.5" font-family="Helvetica,sans-Serif" font-size="10.00">zwave_node_id_definitions.h</text>
</a>
</g>
</g>
<!-- Node5&#45;&gt;Node8 -->
<g id="edge11" class="edge">
<title>Node5&#45;&gt;Node8</title>
<path fill="none" stroke="midnightblue" d="M457.77,-321.17C383.8,-318.85 226.05,-310.05 184.5,-277 149.23,-248.95 151.28,-223.48 158.5,-179 161.2,-162.35 165.49,-159.1 170.5,-143 176.54,-123.58 182.96,-101.2 187.29,-85.78"/>
<polygon fill="midnightblue" stroke="midnightblue" points="190.72,-86.5 190.04,-75.93 183.98,-84.62 190.72,-86.5"/>
</g>
<!-- Node9 -->
<g id="node9" class="node">
<title>Node9</title>
<g id="a_node9"><a xlink:href="zwave__controller__keyset_8h.html" target="_top" xlink:title=" ">
<polygon fill="none" stroke="black" points="383,-252 383,-271 516,-271 516,-252 383,-252"/>
<text text-anchor="middle" x="449.5" y="-259" font-family="Helvetica,sans-Serif" font-size="10.00">zwave_controller_keyset.h</text>
</a>
</g>
</g>
<!-- Node5&#45;&gt;Node9 -->
<g id="edge13" class="edge">
<title>Node5&#45;&gt;Node9</title>
<path fill="none" stroke="midnightblue" d="M489.77,-313.48C482.72,-304.55 471.47,-290.31 462.65,-279.14"/>
<polygon fill="midnightblue" stroke="midnightblue" points="465.17,-276.69 456.22,-271.01 459.67,-281.03 465.17,-276.69"/>
</g>
<!-- Node13 -->
<g id="node13" class="node">
<title>Node13</title>
<g id="a_node13"><a xlink:href="zwave__keyset__definitions_8h.html" target="_top" xlink:title=" ">
<polygon fill="none" stroke="black" points="167,-185 167,-204 304,-204 304,-185 167,-185"/>
<text text-anchor="middle" x="235.5" y="-192" font-family="Helvetica,sans-Serif" font-size="10.00">zwave_keyset_definitions.h</text>
</a>
</g>
</g>
<!-- Node5&#45;&gt;Node13 -->
<g id="edge24" class="edge">
<title>Node5&#45;&gt;Node13</title>
<path fill="none" stroke="midnightblue" d="M457.97,-322.19C384.56,-321.65 228.95,-315.83 195.5,-277 178.46,-257.22 200.21,-228.92 217.7,-211.4"/>
<polygon fill="midnightblue" stroke="midnightblue" points="220.45,-213.62 225.27,-204.18 215.62,-208.55 220.45,-213.62"/>
</g>
<!-- Node14 -->
<g id="node14" class="node">
<title>Node14</title>
<g id="a_node14"><a xlink:href="zwave__command__class__version__types_8h.html" target="_top" xlink:title=" ">
<polygon fill="none" stroke="black" points="744.5,-246.5 744.5,-276.5 866.5,-276.5 866.5,-246.5 744.5,-246.5"/>
<text text-anchor="start" x="752.5" y="-264.5" font-family="Helvetica,sans-Serif" font-size="10.00">zwave_command_class</text>
<text text-anchor="middle" x="805.5" y="-253.5" font-family="Helvetica,sans-Serif" font-size="10.00">_version_types.h</text>
</a>
</g>
</g>
<!-- Node5&#45;&gt;Node14 -->
<g id="edge25" class="edge">
<title>Node5&#45;&gt;Node14</title>
<path fill="none" stroke="midnightblue" d="M535.01,-314.61C581.39,-305.7 661.65,-290.28 730.5,-277 731.75,-276.76 733,-276.52 734.27,-276.27"/>
<polygon fill="midnightblue" stroke="midnightblue" points="734.95,-279.71 744.11,-274.37 733.62,-272.83 734.95,-279.71"/>
</g>
<!-- Node15 -->
<g id="node15" class="node">
<title>Node15</title>
<g id="a_node15"><a xlink:href="zwave__command__class__wake__up__types_8h.html" target="_top" xlink:title=" ">
<polygon fill="none" stroke="black" points="204.5,-246.5 204.5,-276.5 326.5,-276.5 326.5,-246.5 204.5,-246.5"/>
<text text-anchor="start" x="212.5" y="-264.5" font-family="Helvetica,sans-Serif" font-size="10.00">zwave_command_class</text>
<text text-anchor="middle" x="265.5" y="-253.5" font-family="Helvetica,sans-Serif" font-size="10.00">_wake_up_types.h</text>
</a>
</g>
</g>
<!-- Node5&#45;&gt;Node15 -->
<g id="edge26" class="edge">
<title>Node5&#45;&gt;Node15</title>
<path fill="none" stroke="midnightblue" d="M463.4,-313.48C428.68,-304.53 373.23,-290.25 329.85,-279.07"/>
<polygon fill="midnightblue" stroke="midnightblue" points="330.5,-275.63 319.94,-276.52 328.75,-282.41 330.5,-275.63"/>
</g>
<!-- Node16 -->
<g id="node16" class="node">
<title>Node16</title>
<g id="a_node16"><a xlink:href="attribute__store__defined__attribute__types_8h.html" target="_top" xlink:title=" ">
<polygon fill="none" stroke="black" points="572.5,-246.5 572.5,-276.5 688.5,-276.5 688.5,-246.5 572.5,-246.5"/>
<text text-anchor="start" x="580.5" y="-264.5" font-family="Helvetica,sans-Serif" font-size="10.00">attribute_store_defined</text>
<text text-anchor="middle" x="630.5" y="-253.5" font-family="Helvetica,sans-Serif" font-size="10.00">_attribute_types.h</text>
</a>
</g>
</g>
<!-- Node5&#45;&gt;Node16 -->
<g id="edge27" class="edge">
<title>Node5&#45;&gt;Node16</title>
<path fill="none" stroke="midnightblue" d="M515.7,-313.48C534.87,-304.96 564.92,-291.62 589.47,-280.72"/>
<polygon fill="midnightblue" stroke="midnightblue" points="591.2,-283.78 598.92,-276.52 588.36,-277.38 591.2,-283.78"/>
</g>
<!-- Node5&#45;&gt;Node18 -->
<g id="edge32" class="edge">
<title>Node5&#45;&gt;Node18</title>
<path fill="none" stroke="midnightblue" d="M535.28,-318.67C577.1,-313.89 644.75,-302.63 697.5,-277 717.1,-267.47 716.53,-256.74 735.5,-246 753.46,-235.83 803.51,-218.69 838.62,-207.24"/>
<polygon fill="midnightblue" stroke="midnightblue" points="840.1,-210.44 848.53,-204.03 837.94,-203.78 840.1,-210.44"/>
</g>
<!-- Node7&#45;&gt;Node3 -->
<g id="edge10" class="edge">
<title>Node7&#45;&gt;Node3</title>
<path fill="none" stroke="midnightblue" d="M403.31,-56.32C386.15,-47.66 359.55,-34.24 339.75,-24.25"/>
<polygon fill="midnightblue" stroke="midnightblue" points="341.15,-21.04 330.65,-19.65 338,-27.28 341.15,-21.04"/>
</g>
<!-- Node8&#45;&gt;Node3 -->
<g id="edge12" class="edge">
<title>Node8&#45;&gt;Node3</title>
<path fill="none" stroke="midnightblue" d="M211.67,-56.44C231.41,-47.64 262.39,-33.81 284.99,-23.72"/>
<polygon fill="midnightblue" stroke="midnightblue" points="286.71,-26.79 294.42,-19.52 283.86,-20.4 286.71,-26.79"/>
</g>
<!-- Node10 -->
<g id="node10" class="node">
<title>Node10</title>
<g id="a_node10"><a xlink:href="zwave__controller__connection__info_8h.html" target="_top" xlink:title=" ">
<polygon fill="none" stroke="black" points="399,-179.5 399,-209.5 542,-209.5 542,-179.5 399,-179.5"/>
<text text-anchor="start" x="407" y="-197.5" font-family="Helvetica,sans-Serif" font-size="10.00">zwave_controller_connection</text>
<text text-anchor="middle" x="470.5" y="-186.5" font-family="Helvetica,sans-Serif" font-size="10.00">_info.h</text>
</a>
</g>
</g>
<!-- Node9&#45;&gt;Node10 -->
<g id="edge14" class="edge">
<title>Node9&#45;&gt;Node10</title>
<path fill="none" stroke="midnightblue" d="M452.33,-251.73C455.01,-243.46 459.14,-230.66 462.79,-219.37"/>
<polygon fill="midnightblue" stroke="midnightblue" points="466.2,-220.18 465.95,-209.59 459.54,-218.03 466.2,-220.18"/>
</g>
<!-- Node9&#45;&gt;Node13 -->
<g id="edge22" class="edge">
<title>Node9&#45;&gt;Node13</title>
<path fill="none" stroke="midnightblue" d="M421.08,-251.87C383.08,-240.33 315.62,-219.84 273.35,-207"/>
<polygon fill="midnightblue" stroke="midnightblue" points="274.28,-203.62 263.69,-204.06 272.25,-210.32 274.28,-203.62"/>
</g>
<!-- Node10&#45;&gt;Node11 -->
<g id="edge15" class="edge">
<title>Node10&#45;&gt;Node11</title>
<path fill="none" stroke="midnightblue" d="M482.87,-179.4C491.76,-169.26 503.76,-155.57 513.09,-144.94"/>
<polygon fill="midnightblue" stroke="midnightblue" points="515.91,-147.02 519.88,-137.19 510.65,-142.41 515.91,-147.02"/>
</g>
<!-- Node11&#45;&gt;Node3 -->
<g id="edge17" class="edge">
<title>Node11&#45;&gt;Node3</title>
<path fill="none" stroke="midnightblue" d="M525.24,-117.63C520.94,-102.57 510.1,-72.1 489.5,-56 448.27,-23.78 386.57,-14.42 348.24,-11.83"/>
<polygon fill="midnightblue" stroke="midnightblue" points="348.26,-8.32 338.08,-11.26 347.87,-15.31 348.26,-8.32"/>
</g>
<!-- Node11&#45;&gt;Node6 -->
<g id="edge16" class="edge">
<title>Node11&#45;&gt;Node6</title>
<path fill="none" stroke="midnightblue" d="M530.92,-117.56C536.62,-103.44 549.05,-75.59 565.5,-56 575.35,-44.27 588.69,-33.53 599.99,-25.49"/>
<polygon fill="midnightblue" stroke="midnightblue" points="602.24,-28.2 608.51,-19.66 598.28,-22.42 602.24,-28.2"/>
</g>
<!-- Node11&#45;&gt;Node7 -->
<g id="edge19" class="edge">
<title>Node11&#45;&gt;Node7</title>
<path fill="none" stroke="midnightblue" d="M512.17,-117.98C494.53,-108.17 465.34,-91.93 444.64,-80.42"/>
<polygon fill="midnightblue" stroke="midnightblue" points="446.24,-77.31 435.8,-75.51 442.84,-83.43 446.24,-77.31"/>
</g>
<!-- Node11&#45;&gt;Node8 -->
<g id="edge18" class="edge">
<title>Node11&#45;&gt;Node8</title>
<path fill="none" stroke="midnightblue" d="M479.5,-117.98C419.05,-107.24 315.27,-88.81 250.46,-77.29"/>
<polygon fill="midnightblue" stroke="midnightblue" points="250.87,-73.81 240.41,-75.51 249.64,-80.7 250.87,-73.81"/>
</g>
<!-- Node12 -->
<g id="node12" class="node">
<title>Node12</title>
<g id="a_node12"><a xlink:href="zwave__rf__region_8h.html" target="_top" xlink:title=" ">
<polygon fill="none" stroke="black" points="574.5,-56.5 574.5,-75.5 670.5,-75.5 670.5,-56.5 574.5,-56.5"/>
<text text-anchor="middle" x="622.5" y="-63.5" font-family="Helvetica,sans-Serif" font-size="10.00">zwave_rf_region.h</text>
</a>
</g>
</g>
<!-- Node11&#45;&gt;Node12 -->
<g id="edge20" class="edge">
<title>Node11&#45;&gt;Node12</title>
<path fill="none" stroke="midnightblue" d="M541.11,-117.98C556.56,-108.3 581.99,-92.37 600.32,-80.89"/>
<polygon fill="midnightblue" stroke="midnightblue" points="602.3,-83.78 608.91,-75.51 598.58,-77.85 602.3,-83.78"/>
</g>
<!-- Node12&#45;&gt;Node6 -->
<g id="edge21" class="edge">
<title>Node12&#45;&gt;Node6</title>
<path fill="none" stroke="midnightblue" d="M622.5,-56.08C622.5,-49.01 622.5,-38.86 622.5,-29.99"/>
<polygon fill="midnightblue" stroke="midnightblue" points="626,-29.75 622.5,-19.75 619,-29.75 626,-29.75"/>
</g>
<!-- Node13&#45;&gt;Node3 -->
<g id="edge23" class="edge">
<title>Node13&#45;&gt;Node3</title>
<path fill="none" stroke="midnightblue" d="M239.26,-184.7C251.33,-156.45 289.27,-67.7 305.74,-29.16"/>
<polygon fill="midnightblue" stroke="midnightblue" points="309.06,-30.28 309.78,-19.71 302.63,-27.53 309.06,-30.28"/>
</g>
<!-- Node16&#45;&gt;Node17 -->
<g id="edge28" class="edge">
<title>Node16&#45;&gt;Node17</title>
<path fill="none" stroke="midnightblue" d="M688.51,-252.41C748.81,-243.6 845.75,-228.28 928.5,-210 932.97,-209.01 937.63,-207.89 942.24,-206.71"/>
<polygon fill="midnightblue" stroke="midnightblue" points="943.42,-210.02 952.19,-204.08 941.63,-203.25 943.42,-210.02"/>
</g>
<!-- Node16&#45;&gt;Node18 -->
<g id="edge29" class="edge">
<title>Node16&#45;&gt;Node18</title>
<path fill="none" stroke="midnightblue" d="M685.05,-246.47C723.74,-236.47 776.86,-222.6 823.5,-210 827.36,-208.96 831.38,-207.86 835.39,-206.75"/>
<polygon fill="midnightblue" stroke="midnightblue" points="836.57,-210.06 845.28,-204.02 834.7,-203.31 836.57,-210.06"/>
</g>
<!-- Node19 -->
<g id="node19" class="node">
<title>Node19</title>
<g id="a_node19"><a xlink:title=" ">
<polygon fill="none" stroke="#bfbfbf" points="560.5,-185 560.5,-204 688.5,-204 688.5,-185 560.5,-185"/>
<text text-anchor="middle" x="624.5" y="-192" font-family="Helvetica,sans-Serif" font-size="10.00">uic_attribute_definitions.h</text>
</a>
</g>
</g>
<!-- Node16&#45;&gt;Node19 -->
<g id="edge30" class="edge">
<title>Node16&#45;&gt;Node19</title>
<path fill="none" stroke="midnightblue" d="M629.2,-246.4C628.33,-236.96 627.17,-224.45 626.23,-214.19"/>
<polygon fill="midnightblue" stroke="midnightblue" points="629.71,-213.83 625.3,-204.19 622.74,-214.47 629.71,-213.83"/>
</g>
<!-- Node20 -->
<g id="node20" class="node">
<title>Node20</title>
<g id="a_node20"><a xlink:title=" ">
<polygon fill="none" stroke="#bfbfbf" points="707,-179.5 707,-209.5 814,-209.5 814,-179.5 707,-179.5"/>
<text text-anchor="start" x="715" y="-197.5" font-family="Helvetica,sans-Serif" font-size="10.00">unify_dotdot_defined</text>
<text text-anchor="middle" x="760.5" y="-186.5" font-family="Helvetica,sans-Serif" font-size="10.00">_attribute_types.h</text>
</a>
</g>
</g>
<!-- Node16&#45;&gt;Node20 -->
<g id="edge31" class="edge">
<title>Node16&#45;&gt;Node20</title>
<path fill="none" stroke="midnightblue" d="M658.71,-246.4C677.62,-236.94 702.72,-224.39 723.27,-214.12"/>
<polygon fill="midnightblue" stroke="midnightblue" points="724.97,-217.18 732.35,-209.58 721.84,-210.92 724.97,-217.18"/>
</g>
<!-- Node21&#45;&gt;Node8 -->
<g id="edge35" class="edge">
<title>Node21&#45;&gt;Node8</title>
<path fill="none" stroke="midnightblue" d="M122.3,-112.4C136.91,-102.95 156.07,-90.56 170.68,-81.11"/>
<polygon fill="midnightblue" stroke="midnightblue" points="172.62,-84.03 179.11,-75.66 168.82,-78.15 172.62,-84.03"/>
</g>
</g>
</svg>
