<?xml version="1.0" encoding="UTF-8" standalone="no"?>
<!DOCTYPE svg PUBLIC "-//W3C//DTD SVG 1.1//EN"
 "http://www.w3.org/Graphics/SVG/1.1/DTD/svg11.dtd">
<!-- Generated by graphviz version 2.43.0 (0)
 -->
<!-- Title: zwave_command_class_multi_channel_handle_endpoint_find_report_command Pages: 1 -->
<svg width="804pt" height="195pt"
 viewBox="0.00 0.00 804.00 194.50" xmlns="http://www.w3.org/2000/svg" xmlns:xlink="http://www.w3.org/1999/xlink">
<g id="graph0" class="graph" transform="scale(1 1) rotate(0) translate(4 190.5)">
<title>zwave_command_class_multi_channel_handle_endpoint_find_report_command</title>
<!-- Node1 -->
<g id="node1" class="node">
<title>Node1</title>
<g id="a_node1"><a xlink:title=" ">
<polygon fill="#bfbfbf" stroke="black" points="0,-17 0,-69 122,-69 122,-17 0,-17"/>
<text text-anchor="start" x="8" y="-57" font-family="Helvetica,sans-Serif" font-size="10.00">zwave_command_class</text>
<text text-anchor="start" x="8" y="-46" font-family="Helvetica,sans-Serif" font-size="10.00">_multi_channel_handle</text>
<text text-anchor="start" x="8" y="-35" font-family="Helvetica,sans-Serif" font-size="10.00">_endpoint_find_report</text>
<text text-anchor="middle" x="61" y="-24" font-family="Helvetica,sans-Serif" font-size="10.00">_command</text>
</a>
</g>
</g>
<!-- Node2 -->
<g id="node2" class="node">
<title>Node2</title>
<g id="a_node2"><a xlink:href="group__zpc__attribute__store__network__helpers.html#ga7a3f40a9cbc90f2674b9e9e454fd6207" target="_top" xlink:title="Take a Z&#45;Wave NodeID and return its Attribute Store node representing the NodeID.">
<polygon fill="none" stroke="black" points="158,-84.5 158,-125.5 285,-125.5 285,-84.5 158,-84.5"/>
<text text-anchor="start" x="166" y="-113.5" font-family="Helvetica,sans-Serif" font-size="10.00">attribute_store_network</text>
<text text-anchor="start" x="166" y="-102.5" font-family="Helvetica,sans-Serif" font-size="10.00">_helper_get_zwave_node</text>
<text text-anchor="middle" x="221.5" y="-91.5" font-family="Helvetica,sans-Serif" font-size="10.00">_id_node</text>
</a>
</g>
</g>
<!-- Node1&#45;&gt;Node2 -->
<g id="edge1" class="edge">
<title>Node1&#45;&gt;Node2</title>
<path fill="none" stroke="midnightblue" d="M122.37,-66.62C134.25,-71.26 146.72,-76.14 158.64,-80.8"/>
<polygon fill="midnightblue" stroke="midnightblue" points="157.47,-84.1 168.06,-84.49 160.02,-77.59 157.47,-84.1"/>
</g>
<!-- Node8 -->
<g id="node8" class="node">
<title>Node8</title>
<g id="a_node8"><a xlink:href="zwave__command__class__multi__channel_8c.html#ac53692def1299e29f1d962a4da4af295" target="_top" xlink:title="Counts in the attribute store if the number of individual endpoints attribute matches the current lis...">
<polygon fill="none" stroke="black" points="164.5,-28 164.5,-58 278.5,-58 278.5,-28 164.5,-28"/>
<text text-anchor="start" x="172.5" y="-46" font-family="Helvetica,sans-Serif" font-size="10.00">check_if_all_individual</text>
<text text-anchor="middle" x="221.5" y="-35" font-family="Helvetica,sans-Serif" font-size="10.00">_endpoints_are_found</text>
</a>
</g>
</g>
<!-- Node1&#45;&gt;Node8 -->
<g id="edge7" class="edge">
<title>Node1&#45;&gt;Node8</title>
<path fill="none" stroke="midnightblue" d="M122.37,-43C132.85,-43 143.79,-43 154.41,-43"/>
<polygon fill="midnightblue" stroke="midnightblue" points="154.46,-46.5 164.46,-43 154.46,-39.5 154.46,-46.5"/>
</g>
<!-- Node10 -->
<g id="node10" class="node">
<title>Node10</title>
<g id="a_node10"><a xlink:href="zwave__command__class__multi__channel_8c.html#a2d182b7aae379e1581d3df4b0981489e" target="_top" xlink:title="Creates a new endpoint in the attribute store.">
<polygon fill="none" stroke="black" points="514,-0.5 514,-19.5 623,-19.5 623,-0.5 514,-0.5"/>
<text text-anchor="middle" x="568.5" y="-7.5" font-family="Helvetica,sans-Serif" font-size="10.00">create_new_endpoint</text>
</a>
</g>
</g>
<!-- Node1&#45;&gt;Node10 -->
<g id="edge12" class="edge">
<title>Node1&#45;&gt;Node10</title>
<path fill="none" stroke="midnightblue" d="M122.08,-26.13C133.9,-23.33 146.28,-20.77 158,-19 279.2,-0.67 422.85,-2.95 503.76,-6.39"/>
<polygon fill="midnightblue" stroke="midnightblue" points="503.65,-9.89 513.79,-6.83 503.96,-2.89 503.65,-9.89"/>
</g>
<!-- Node3 -->
<g id="node3" class="node">
<title>Node3</title>
<g id="a_node3"><a xlink:href="group__zpc__attribute__store__network__helpers.html#gafb993ff484b3c826743c4695d6659cf0" target="_top" xlink:title="Take a UNID and return its attribute store node representing the NodeID.">
<polygon fill="none" stroke="black" points="327,-134 327,-164 459,-164 459,-134 327,-134"/>
<text text-anchor="start" x="335" y="-152" font-family="Helvetica,sans-Serif" font-size="10.00">attribute_store_network</text>
<text text-anchor="middle" x="393" y="-141" font-family="Helvetica,sans-Serif" font-size="10.00">_helper_get_node_id_node</text>
</a>
</g>
</g>
<!-- Node2&#45;&gt;Node3 -->
<g id="edge2" class="edge">
<title>Node2&#45;&gt;Node3</title>
<path fill="none" stroke="midnightblue" d="M285.13,-121.26C297.91,-124.58 311.41,-128.08 324.35,-131.44"/>
<polygon fill="midnightblue" stroke="midnightblue" points="323.56,-134.85 334.11,-133.97 325.31,-128.07 323.56,-134.85"/>
</g>
<!-- Node7 -->
<g id="node7" class="node">
<title>Node7</title>
<g id="a_node7"><a xlink:href="group__zwave__unid.html#ga421deceb8a12916f049e4f3446774439" target="_top" xlink:title="Form a UNID.">
<polygon fill="none" stroke="black" points="327,-95.5 327,-114.5 459,-114.5 459,-95.5 327,-95.5"/>
<text text-anchor="middle" x="393" y="-102.5" font-family="Helvetica,sans-Serif" font-size="10.00">zwave_unid_from_node_id</text>
</a>
</g>
</g>
<!-- Node2&#45;&gt;Node7 -->
<g id="edge6" class="edge">
<title>Node2&#45;&gt;Node7</title>
<path fill="none" stroke="midnightblue" d="M285.13,-105C295.43,-105 306.18,-105 316.74,-105"/>
<polygon fill="midnightblue" stroke="midnightblue" points="316.79,-108.5 326.79,-105 316.79,-101.5 316.79,-108.5"/>
</g>
<!-- Node4 -->
<g id="node4" class="node">
<title>Node4</title>
<g id="a_node4"><a xlink:href="group__zpc__attribute__store__network__helpers.html#ga05cb572c96f7dc8e6657f86e135fafed" target="_top" xlink:title="Take a UNID and return its attribute store node representing the HomeID.">
<polygon fill="none" stroke="black" points="501,-156 501,-186 636,-186 636,-156 501,-156"/>
<text text-anchor="start" x="509" y="-174" font-family="Helvetica,sans-Serif" font-size="10.00">attribute_store_network</text>
<text text-anchor="middle" x="568.5" y="-163" font-family="Helvetica,sans-Serif" font-size="10.00">_helper_get_home_id_node</text>
</a>
</g>
</g>
<!-- Node3&#45;&gt;Node4 -->
<g id="edge3" class="edge">
<title>Node3&#45;&gt;Node4</title>
<path fill="none" stroke="midnightblue" d="M459.1,-157.25C469.45,-158.57 480.23,-159.93 490.82,-161.28"/>
<polygon fill="midnightblue" stroke="midnightblue" points="490.52,-164.77 500.88,-162.55 491.4,-157.82 490.52,-164.77"/>
</g>
<!-- Node6 -->
<g id="node6" class="node">
<title>Node6</title>
<g id="a_node6"><a xlink:href="group__zwave__unid.html#ga76885767debd174e96e6df00b0a368c3" target="_top" xlink:title="Convert a UNID to a node ID.">
<polygon fill="none" stroke="black" points="508,-117.5 508,-136.5 629,-136.5 629,-117.5 508,-117.5"/>
<text text-anchor="middle" x="568.5" y="-124.5" font-family="Helvetica,sans-Serif" font-size="10.00">zwave_unid_to_node_id</text>
</a>
</g>
</g>
<!-- Node3&#45;&gt;Node6 -->
<g id="edge5" class="edge">
<title>Node3&#45;&gt;Node6</title>
<path fill="none" stroke="midnightblue" d="M459.1,-140.75C471.69,-139.15 484.94,-137.47 497.68,-135.85"/>
<polygon fill="midnightblue" stroke="midnightblue" points="498.28,-139.3 507.76,-134.57 497.4,-132.36 498.28,-139.3"/>
</g>
<!-- Node5 -->
<g id="node5" class="node">
<title>Node5</title>
<g id="a_node5"><a xlink:href="group__zwave__unid.html#ga92f9808a08c2ce1c0a6a9dc2debf3580" target="_top" xlink:title="Convert a UNID to a Home ID.">
<polygon fill="none" stroke="black" points="672,-161.5 672,-180.5 796,-180.5 796,-161.5 672,-161.5"/>
<text text-anchor="middle" x="734" y="-168.5" font-family="Helvetica,sans-Serif" font-size="10.00">zwave_unid_to_home_id</text>
</a>
</g>
</g>
<!-- Node4&#45;&gt;Node5 -->
<g id="edge4" class="edge">
<title>Node4&#45;&gt;Node5</title>
<path fill="none" stroke="midnightblue" d="M636,-171C644.42,-171 653.07,-171 661.57,-171"/>
<polygon fill="midnightblue" stroke="midnightblue" points="661.83,-174.5 671.83,-171 661.83,-167.5 661.83,-174.5"/>
</g>
<!-- Node9 -->
<g id="node9" class="node">
<title>Node9</title>
<g id="a_node9"><a xlink:href="zwave__command__class__multi__channel_8c.html#a16daf353476dffd2f848569ce30974b9" target="_top" xlink:title="Creates aggregated endpoints for a Z&#45;Wave Node.">
<polygon fill="none" stroke="black" points="321,-19.5 321,-38.5 465,-38.5 465,-19.5 321,-19.5"/>
<text text-anchor="middle" x="393" y="-26.5" font-family="Helvetica,sans-Serif" font-size="10.00">create_aggregated_endpoints</text>
</a>
</g>
</g>
<!-- Node8&#45;&gt;Node9 -->
<g id="edge8" class="edge">
<title>Node8&#45;&gt;Node9</title>
<path fill="none" stroke="midnightblue" d="M278.94,-38.34C289.09,-37.5 299.84,-36.61 310.53,-35.73"/>
<polygon fill="midnightblue" stroke="midnightblue" points="311.05,-39.2 320.73,-34.89 310.47,-32.22 311.05,-39.2"/>
</g>
<!-- Node11 -->
<g id="node11" class="node">
<title>Node11</title>
<g id="a_node11"><a xlink:href="group__multi__channel__command__class.html#ga0d968501f62f2aad4faf3be6e3d7601a" target="_top" xlink:title="Checks if an endpoints is aggregated.">
<polygon fill="none" stroke="black" points="509,-48.5 509,-67.5 628,-67.5 628,-48.5 509,-48.5"/>
<text text-anchor="middle" x="568.5" y="-55.5" font-family="Helvetica,sans-Serif" font-size="10.00">is_endpoint_aggregated</text>
</a>
</g>
</g>
<!-- Node8&#45;&gt;Node11 -->
<g id="edge11" class="edge">
<title>Node8&#45;&gt;Node11</title>
<path fill="none" stroke="midnightblue" d="M278.75,-45.95C292.57,-46.65 307.32,-47.38 321,-48 380.92,-50.74 449.04,-53.47 498.47,-55.39"/>
<polygon fill="midnightblue" stroke="midnightblue" points="498.59,-58.89 508.72,-55.78 498.86,-51.9 498.59,-58.89"/>
</g>
<!-- Node9&#45;&gt;Node10 -->
<g id="edge9" class="edge">
<title>Node9&#45;&gt;Node10</title>
<path fill="none" stroke="midnightblue" d="M465.07,-21.22C477.92,-19.81 491.24,-18.35 503.86,-16.97"/>
<polygon fill="midnightblue" stroke="midnightblue" points="504.25,-20.45 513.81,-15.88 503.49,-13.49 504.25,-20.45"/>
</g>
<!-- Node9&#45;&gt;Node11 -->
<g id="edge10" class="edge">
<title>Node9&#45;&gt;Node11</title>
<path fill="none" stroke="midnightblue" d="M451.29,-38.58C467.07,-41.21 484.32,-44.1 500.59,-46.82"/>
<polygon fill="midnightblue" stroke="midnightblue" points="500.12,-50.29 510.56,-48.48 501.28,-43.38 500.12,-50.29"/>
</g>
</g>
</svg>
