<?xml version="1.0" encoding="UTF-8" standalone="no"?>
<!DOCTYPE svg PUBLIC "-//W3C//DTD SVG 1.1//EN"
 "http://www.w3.org/Graphics/SVG/1.1/DTD/svg11.dtd">
<!-- Generated by graphviz version 2.43.0 (0)
 -->
<!-- Title: send_data Pages: 1 -->
<svg width="549pt" height="116pt"
 viewBox="0.00 0.00 549.00 115.50" xmlns="http://www.w3.org/2000/svg" xmlns:xlink="http://www.w3.org/1999/xlink">
<g id="graph0" class="graph" transform="scale(1 1) rotate(0) translate(4 111.5)">
<title>send_data</title>
<!-- Node1 -->
<g id="node1" class="node">
<title>Node1</title>
<g id="a_node1"><a xlink:title=" ">
<polygon fill="#bfbfbf" stroke="black" points="479,-50 479,-69 541,-69 541,-50 479,-50"/>
<text text-anchor="middle" x="510" y="-57" font-family="Helvetica,sans-Serif" font-size="10.00">send_data</text>
</a>
</g>
</g>
<!-- Node2 -->
<g id="node2" class="node">
<title>Node2</title>
<g id="a_node2"><a xlink:href="group__transport__service.html#gaccda0665f8cf81da0902333186d0c107" target="_top" xlink:title="Initialize the Transport Service.">
<polygon fill="none" stroke="black" points="321,-88 321,-107 431,-107 431,-88 321,-88"/>
<text text-anchor="middle" x="376" y="-95" font-family="Helvetica,sans-Serif" font-size="10.00">transport_service_init</text>
</a>
</g>
</g>
<!-- Node1&#45;&gt;Node2 -->
<g id="edge1" class="edge">
<title>Node1&#45;&gt;Node2</title>
<path fill="none" stroke="midnightblue" d="M468.98,-71.02C450.25,-76.41 428.2,-82.76 410.39,-87.89"/>
<polygon fill="midnightblue" stroke="midnightblue" points="470.08,-74.35 478.72,-68.22 468.14,-67.62 470.08,-74.35"/>
</g>
<!-- Node3 -->
<g id="node3" class="node">
<title>Node3</title>
<g id="a_node3"><a xlink:href="group__transport__service__transport__wrapper.html#gad02263e40b63853166ac8a7601954f33" target="_top" xlink:title=" ">
<polygon fill="none" stroke="black" points="148,-63.5 148,-93.5 273,-93.5 273,-63.5 148,-63.5"/>
<text text-anchor="start" x="156" y="-81.5" font-family="Helvetica,sans-Serif" font-size="10.00">zwave_transport_service</text>
<text text-anchor="middle" x="210.5" y="-70.5" font-family="Helvetica,sans-Serif" font-size="10.00">_transport_init</text>
</a>
</g>
</g>
<!-- Node1&#45;&gt;Node3 -->
<g id="edge5" class="edge">
<title>Node1&#45;&gt;Node3</title>
<path fill="none" stroke="midnightblue" d="M468.68,-62.08C418.38,-65.29 331.88,-70.81 273.22,-74.56"/>
<polygon fill="midnightblue" stroke="midnightblue" points="469.08,-65.56 478.84,-61.43 468.63,-58.57 469.08,-65.56"/>
</g>
<!-- Node5 -->
<g id="node5" class="node">
<title>Node5</title>
<g id="a_node5"><a xlink:href="group__zwave__controller__internal.html#gaf85e8cb66047a273304b481d0e1c46c2" target="_top" xlink:title="Send a frame with transport plugin system.">
<polygon fill="none" stroke="black" points="309,-0.5 309,-30.5 443,-30.5 443,-0.5 309,-0.5"/>
<text text-anchor="start" x="317" y="-18.5" font-family="Helvetica,sans-Serif" font-size="10.00">zwave_controller_transport</text>
<text text-anchor="middle" x="376" y="-7.5" font-family="Helvetica,sans-Serif" font-size="10.00">_send_data</text>
</a>
</g>
</g>
<!-- Node1&#45;&gt;Node5 -->
<g id="edge4" class="edge">
<title>Node1&#45;&gt;Node5</title>
<path fill="none" stroke="midnightblue" d="M470.77,-46.76C455.59,-41.7 438,-35.83 422.2,-30.57"/>
<polygon fill="midnightblue" stroke="midnightblue" points="469.76,-50.11 480.36,-49.95 471.98,-43.47 469.76,-50.11"/>
</g>
<!-- Node2&#45;&gt;Node3 -->
<g id="edge2" class="edge">
<title>Node2&#45;&gt;Node3</title>
<path fill="none" stroke="midnightblue" d="M310.38,-89.99C298.08,-88.56 285.24,-87.07 273.04,-85.65"/>
<polygon fill="midnightblue" stroke="midnightblue" points="310.22,-93.5 320.56,-91.17 311.03,-86.54 310.22,-93.5"/>
</g>
<!-- Node4 -->
<g id="node4" class="node">
<title>Node4</title>
<g id="a_node4"><a xlink:href="group__zwave__transports__fixt.html#ga26fb2571e272a5094bd0320eca3a896d" target="_top" xlink:title="Setup fixture for Z&#45;Wave Transports.">
<polygon fill="none" stroke="black" points="0,-69 0,-88 112,-88 112,-69 0,-69"/>
<text text-anchor="middle" x="56" y="-76" font-family="Helvetica,sans-Serif" font-size="10.00">zwave_transports_init</text>
</a>
</g>
</g>
<!-- Node3&#45;&gt;Node4 -->
<g id="edge3" class="edge">
<title>Node3&#45;&gt;Node4</title>
<path fill="none" stroke="midnightblue" d="M137.64,-78.5C129.17,-78.5 120.62,-78.5 112.42,-78.5"/>
<polygon fill="midnightblue" stroke="midnightblue" points="137.91,-82 147.91,-78.5 137.91,-75 137.91,-82"/>
</g>
</g>
</svg>
