<?xml version="1.0" encoding="UTF-8" standalone="no"?>
<!DOCTYPE svg PUBLIC "-//W3C//DTD SVG 1.1//EN"
 "http://www.w3.org/Graphics/SVG/1.1/DTD/svg11.dtd">
<!-- Generated by graphviz version 2.43.0 (0)
 -->
<!-- Title: applications/zpc/components/zwave/zwave_tx/src/zwave_tx_incoming_frames.hpp Pages: 1 -->
<svg width="945pt" height="341pt"
 viewBox="0.00 0.00 945.00 341.00" xmlns="http://www.w3.org/2000/svg" xmlns:xlink="http://www.w3.org/1999/xlink">
<g id="graph0" class="graph" transform="scale(1 1) rotate(0) translate(4 337)">
<title>applications/zpc/components/zwave/zwave_tx/src/zwave_tx_incoming_frames.hpp</title>
<!-- Node1 -->
<g id="node1" class="node">
<title>Node1</title>
<g id="a_node1"><a xlink:title=" ">
<polygon fill="#bfbfbf" stroke="black" points="487.5,-291.5 487.5,-332.5 630.5,-332.5 630.5,-291.5 487.5,-291.5"/>
<text text-anchor="start" x="495.5" y="-320.5" font-family="Helvetica,sans-Serif" font-size="10.00">applications/zpc/components</text>
<text text-anchor="start" x="495.5" y="-309.5" font-family="Helvetica,sans-Serif" font-size="10.00">/zwave/zwave_tx/src/zwave</text>
<text text-anchor="middle" x="559" y="-298.5" font-family="Helvetica,sans-Serif" font-size="10.00">_tx_incoming_frames.hpp</text>
</a>
</g>
</g>
<!-- Node2 -->
<g id="node2" class="node">
<title>Node2</title>
<g id="a_node2"><a xlink:href="zwave__tx_8h.html" target="_top" xlink:title=" ">
<polygon fill="none" stroke="black" points="241.5,-235.5 241.5,-254.5 308.5,-254.5 308.5,-235.5 241.5,-235.5"/>
<text text-anchor="middle" x="275" y="-242.5" font-family="Helvetica,sans-Serif" font-size="10.00">zwave_tx.h</text>
</a>
</g>
</g>
<!-- Node1&#45;&gt;Node2 -->
<g id="edge1" class="edge">
<title>Node1&#45;&gt;Node2</title>
<path fill="none" stroke="midnightblue" d="M487.33,-294.6C434.28,-282.46 363.71,-266.3 318.8,-256.03"/>
<polygon fill="midnightblue" stroke="midnightblue" points="319.33,-252.56 308.8,-253.74 317.77,-259.38 319.33,-252.56"/>
</g>
<!-- Node6 -->
<g id="node6" class="node">
<title>Node6</title>
<g id="a_node6"><a xlink:href="zwave__controller__types_8h.html" target="_top" xlink:title=" ">
<polygon fill="none" stroke="black" points="452,-112.5 452,-131.5 580,-131.5 580,-112.5 452,-112.5"/>
<text text-anchor="middle" x="516" y="-119.5" font-family="Helvetica,sans-Serif" font-size="10.00">zwave_controller_types.h</text>
</a>
</g>
</g>
<!-- Node1&#45;&gt;Node6 -->
<g id="edge33" class="edge">
<title>Node1&#45;&gt;Node6</title>
<path fill="none" stroke="midnightblue" d="M558.58,-291.08C557.5,-263 553.64,-210.44 540,-168 536.88,-158.31 531.72,-148.24 526.99,-140.09"/>
<polygon fill="midnightblue" stroke="midnightblue" points="529.97,-138.26 521.76,-131.55 523.99,-141.91 529.97,-138.26"/>
</g>
<!-- Node14 -->
<g id="node14" class="node">
<title>Node14</title>
<g id="a_node14"><a xlink:href="priority__queue_8hpp.html" target="_top" xlink:title=" ">
<polygon fill="none" stroke="black" points="680,-235.5 680,-254.5 776,-254.5 776,-235.5 680,-235.5"/>
<text text-anchor="middle" x="728" y="-242.5" font-family="Helvetica,sans-Serif" font-size="10.00">priority_queue.hpp</text>
</a>
</g>
</g>
<!-- Node1&#45;&gt;Node14 -->
<g id="edge27" class="edge">
<title>Node1&#45;&gt;Node14</title>
<path fill="none" stroke="midnightblue" d="M609.71,-291.5C637.73,-280.72 671.7,-267.65 696.04,-258.29"/>
<polygon fill="midnightblue" stroke="midnightblue" points="697.43,-261.51 705.5,-254.65 694.91,-254.98 697.43,-261.51"/>
</g>
<!-- Node3 -->
<g id="node3" class="node">
<title>Node3</title>
<g id="a_node3"><a xlink:href="sl__status_8h.html" target="_top" xlink:title="SL Status Codes.">
<polygon fill="none" stroke="black" points="57.5,-56.5 57.5,-75.5 122.5,-75.5 122.5,-56.5 57.5,-56.5"/>
<text text-anchor="middle" x="90" y="-63.5" font-family="Helvetica,sans-Serif" font-size="10.00">sl_status.h</text>
</a>
</g>
</g>
<!-- Node2&#45;&gt;Node3 -->
<g id="edge2" class="edge">
<title>Node2&#45;&gt;Node3</title>
<path fill="none" stroke="midnightblue" d="M266.89,-235.42C246.57,-214.02 191.61,-156.81 143,-112 131.91,-101.77 119.01,-90.81 108.72,-82.26"/>
<polygon fill="midnightblue" stroke="midnightblue" points="110.72,-79.38 100.78,-75.72 106.27,-84.78 110.72,-79.38"/>
</g>
<!-- Node5 -->
<g id="node5" class="node">
<title>Node5</title>
<g id="a_node5"><a xlink:href="zwave__controller__connection__info_8h.html" target="_top" xlink:title=" ">
<polygon fill="none" stroke="black" points="253.5,-168.5 253.5,-198.5 396.5,-198.5 396.5,-168.5 253.5,-168.5"/>
<text text-anchor="start" x="261.5" y="-186.5" font-family="Helvetica,sans-Serif" font-size="10.00">zwave_controller_connection</text>
<text text-anchor="middle" x="325" y="-175.5" font-family="Helvetica,sans-Serif" font-size="10.00">_info.h</text>
</a>
</g>
</g>
<!-- Node2&#45;&gt;Node5 -->
<g id="edge4" class="edge">
<title>Node2&#45;&gt;Node5</title>
<path fill="none" stroke="midnightblue" d="M282.16,-235.48C288.56,-227.87 298.19,-216.4 306.71,-206.26"/>
<polygon fill="midnightblue" stroke="midnightblue" points="309.46,-208.43 313.22,-198.52 304.1,-203.93 309.46,-208.43"/>
</g>
<!-- Node11 -->
<g id="node11" class="node">
<title>Node11</title>
<g id="a_node11"><a xlink:href="zwapi__protocol__transport_8h.html" target="_top" xlink:title="Z&#45;Wave API for transport application layer interface.">
<polygon fill="none" stroke="black" points="0,-112.5 0,-131.5 134,-131.5 134,-112.5 0,-112.5"/>
<text text-anchor="middle" x="67" y="-119.5" font-family="Helvetica,sans-Serif" font-size="10.00">zwapi_protocol_transport.h</text>
</a>
</g>
</g>
<!-- Node2&#45;&gt;Node11 -->
<g id="edge14" class="edge">
<title>Node2&#45;&gt;Node11</title>
<path fill="none" stroke="midnightblue" d="M241.24,-236.13C214.63,-228.99 177.27,-216.83 148,-199 121.35,-182.77 96.03,-156.7 81.01,-139.71"/>
<polygon fill="midnightblue" stroke="midnightblue" points="83.32,-137.03 74.14,-131.75 78.02,-141.61 83.32,-137.03"/>
</g>
<!-- Node12 -->
<g id="node12" class="node">
<title>Node12</title>
<g id="a_node12"><a xlink:href="zwapi__protocol__basis_8h.html" target="_top" xlink:title="Z&#45;Wave API for basis controller/end node application interface.">
<polygon fill="none" stroke="black" points="190.5,-112.5 190.5,-131.5 309.5,-131.5 309.5,-112.5 190.5,-112.5"/>
<text text-anchor="middle" x="250" y="-119.5" font-family="Helvetica,sans-Serif" font-size="10.00">zwapi_protocol_basis.h</text>
</a>
</g>
</g>
<!-- Node2&#45;&gt;Node12 -->
<g id="edge19" class="edge">
<title>Node2&#45;&gt;Node12</title>
<path fill="none" stroke="midnightblue" d="M266.52,-235.23C258.95,-226.75 248.4,-213.13 244,-199 238.12,-180.08 241.16,-157.31 244.71,-141.65"/>
<polygon fill="midnightblue" stroke="midnightblue" points="248.18,-142.22 247.26,-131.67 241.39,-140.49 248.18,-142.22"/>
</g>
<!-- Node13 -->
<g id="node13" class="node">
<title>Node13</title>
<g id="a_node13"><a xlink:href="zwave__tx__definitions_8h.html" target="_top" xlink:title=" ">
<polygon fill="none" stroke="black" points="415,-174 415,-193 531,-193 531,-174 415,-174"/>
<text text-anchor="middle" x="473" y="-181" font-family="Helvetica,sans-Serif" font-size="10.00">zwave_tx_definitions.h</text>
</a>
</g>
</g>
<!-- Node2&#45;&gt;Node13 -->
<g id="edge25" class="edge">
<title>Node2&#45;&gt;Node13</title>
<path fill="none" stroke="midnightblue" d="M303.37,-235.48C337.92,-225.09 396.42,-207.51 434.88,-195.95"/>
<polygon fill="midnightblue" stroke="midnightblue" points="436.11,-199.24 444.68,-193.01 434.1,-192.54 436.11,-199.24"/>
</g>
<!-- Node4 -->
<g id="node4" class="node">
<title>Node4</title>
<g id="a_node4"><a xlink:title=" ">
<polygon fill="none" stroke="#bfbfbf" points="176.5,-0.5 176.5,-19.5 225.5,-19.5 225.5,-0.5 176.5,-0.5"/>
<text text-anchor="middle" x="201" y="-7.5" font-family="Helvetica,sans-Serif" font-size="10.00">stdint.h</text>
</a>
</g>
</g>
<!-- Node3&#45;&gt;Node4 -->
<g id="edge3" class="edge">
<title>Node3&#45;&gt;Node4</title>
<path fill="none" stroke="midnightblue" d="M107.83,-56.32C125.72,-47.62 153.48,-34.12 174.05,-24.11"/>
<polygon fill="midnightblue" stroke="midnightblue" points="175.75,-27.18 183.21,-19.65 172.69,-20.88 175.75,-27.18"/>
</g>
<!-- Node5&#45;&gt;Node6 -->
<g id="edge5" class="edge">
<title>Node5&#45;&gt;Node6</title>
<path fill="none" stroke="midnightblue" d="M370.26,-168.4C403.41,-158.07 447.85,-144.23 478.9,-134.56"/>
<polygon fill="midnightblue" stroke="midnightblue" points="479.98,-137.89 488.49,-131.57 477.9,-131.2 479.98,-137.89"/>
</g>
<!-- Node6&#45;&gt;Node4 -->
<g id="edge7" class="edge">
<title>Node6&#45;&gt;Node4</title>
<path fill="none" stroke="midnightblue" d="M553.25,-112.42C591.57,-101.93 642.6,-82.27 619,-56 606.21,-41.76 333.5,-20.63 235.6,-13.47"/>
<polygon fill="midnightblue" stroke="midnightblue" points="235.85,-9.98 225.62,-12.75 235.34,-16.96 235.85,-9.98"/>
</g>
<!-- Node7 -->
<g id="node7" class="node">
<title>Node7</title>
<g id="a_node7"><a xlink:title=" ">
<polygon fill="none" stroke="#bfbfbf" points="359,-0.5 359,-19.5 415,-19.5 415,-0.5 359,-0.5"/>
<text text-anchor="middle" x="387" y="-7.5" font-family="Helvetica,sans-Serif" font-size="10.00">stdbool.h</text>
</a>
</g>
</g>
<!-- Node6&#45;&gt;Node7 -->
<g id="edge6" class="edge">
<title>Node6&#45;&gt;Node7</title>
<path fill="none" stroke="midnightblue" d="M579.18,-112.49C626.38,-103.52 678.66,-86.36 653,-56 624.3,-22.04 491.89,-13.7 425.36,-11.66"/>
<polygon fill="midnightblue" stroke="midnightblue" points="425.37,-8.16 415.28,-11.38 425.18,-15.16 425.37,-8.16"/>
</g>
<!-- Node8 -->
<g id="node8" class="node">
<title>Node8</title>
<g id="a_node8"><a xlink:href="zwave__node__id__definitions_8h.html" target="_top" xlink:title=" ">
<polygon fill="none" stroke="black" points="179,-56.5 179,-75.5 321,-75.5 321,-56.5 179,-56.5"/>
<text text-anchor="middle" x="250" y="-63.5" font-family="Helvetica,sans-Serif" font-size="10.00">zwave_node_id_definitions.h</text>
</a>
</g>
</g>
<!-- Node6&#45;&gt;Node8 -->
<g id="edge8" class="edge">
<title>Node6&#45;&gt;Node8</title>
<path fill="none" stroke="midnightblue" d="M473.85,-112.44C427.25,-102.98 352.16,-87.74 301.95,-77.55"/>
<polygon fill="midnightblue" stroke="midnightblue" points="302.45,-74.08 291.95,-75.52 301.06,-80.94 302.45,-74.08"/>
</g>
<!-- Node9 -->
<g id="node9" class="node">
<title>Node9</title>
<g id="a_node9"><a xlink:href="zwave__generic__types_8h.html" target="_top" xlink:title=" ">
<polygon fill="none" stroke="black" points="491.5,-56.5 491.5,-75.5 610.5,-75.5 610.5,-56.5 491.5,-56.5"/>
<text text-anchor="middle" x="551" y="-63.5" font-family="Helvetica,sans-Serif" font-size="10.00">zwave_generic_types.h</text>
</a>
</g>
</g>
<!-- Node6&#45;&gt;Node9 -->
<g id="edge10" class="edge">
<title>Node6&#45;&gt;Node9</title>
<path fill="none" stroke="midnightblue" d="M521.78,-112.08C526.67,-104.53 533.83,-93.49 539.83,-84.23"/>
<polygon fill="midnightblue" stroke="midnightblue" points="542.83,-86.05 545.33,-75.75 536.95,-82.24 542.83,-86.05"/>
</g>
<!-- Node10 -->
<g id="node10" class="node">
<title>Node10</title>
<g id="a_node10"><a xlink:href="zwave__rf__region_8h.html" target="_top" xlink:title=" ">
<polygon fill="none" stroke="black" points="377,-56.5 377,-75.5 473,-75.5 473,-56.5 377,-56.5"/>
<text text-anchor="middle" x="425" y="-63.5" font-family="Helvetica,sans-Serif" font-size="10.00">zwave_rf_region.h</text>
</a>
</g>
</g>
<!-- Node6&#45;&gt;Node10 -->
<g id="edge12" class="edge">
<title>Node6&#45;&gt;Node10</title>
<path fill="none" stroke="midnightblue" d="M501.38,-112.32C487.05,-103.82 464.99,-90.73 448.25,-80.8"/>
<polygon fill="midnightblue" stroke="midnightblue" points="449.97,-77.75 439.58,-75.65 446.4,-83.77 449.97,-77.75"/>
</g>
<!-- Node8&#45;&gt;Node4 -->
<g id="edge9" class="edge">
<title>Node8&#45;&gt;Node4</title>
<path fill="none" stroke="midnightblue" d="M241.91,-56.08C234.84,-48.3 224.41,-36.8 215.85,-27.37"/>
<polygon fill="midnightblue" stroke="midnightblue" points="218.25,-24.8 208.94,-19.75 213.07,-29.51 218.25,-24.8"/>
</g>
<!-- Node9&#45;&gt;Node4 -->
<g id="edge11" class="edge">
<title>Node9&#45;&gt;Node4</title>
<path fill="none" stroke="midnightblue" d="M495.54,-56.44C422.62,-45.19 296.67,-25.76 235.85,-16.38"/>
<polygon fill="midnightblue" stroke="midnightblue" points="236.05,-12.87 225.63,-14.8 234.98,-19.78 236.05,-12.87"/>
</g>
<!-- Node10&#45;&gt;Node7 -->
<g id="edge13" class="edge">
<title>Node10&#45;&gt;Node7</title>
<path fill="none" stroke="midnightblue" d="M418.73,-56.08C413.36,-48.46 405.48,-37.26 398.92,-27.94"/>
<polygon fill="midnightblue" stroke="midnightblue" points="401.78,-25.91 393.16,-19.75 396.05,-29.94 401.78,-25.91"/>
</g>
<!-- Node11&#45;&gt;Node3 -->
<g id="edge17" class="edge">
<title>Node11&#45;&gt;Node3</title>
<path fill="none" stroke="midnightblue" d="M70.8,-112.08C73.91,-104.77 78.42,-94.18 82.29,-85.1"/>
<polygon fill="midnightblue" stroke="midnightblue" points="85.57,-86.32 86.27,-75.75 79.13,-83.58 85.57,-86.32"/>
</g>
<!-- Node11&#45;&gt;Node4 -->
<g id="edge15" class="edge">
<title>Node11&#45;&gt;Node4</title>
<path fill="none" stroke="midnightblue" d="M51.38,-112.41C30.8,-100.01 -1,-76.33 15,-56 33.47,-32.53 117.75,-19.83 166.29,-14.35"/>
<polygon fill="midnightblue" stroke="midnightblue" points="166.79,-17.81 176.35,-13.26 166.03,-10.86 166.79,-17.81"/>
</g>
<!-- Node11&#45;&gt;Node7 -->
<g id="edge16" class="edge">
<title>Node11&#45;&gt;Node7</title>
<path fill="none" stroke="midnightblue" d="M59.95,-112.33C49.8,-98.73 33.75,-72.27 48,-56 67.6,-33.62 264.31,-18.7 348.78,-13.28"/>
<polygon fill="midnightblue" stroke="midnightblue" points="349.22,-16.76 358.98,-12.63 348.78,-9.77 349.22,-16.76"/>
</g>
<!-- Node11&#45;&gt;Node8 -->
<g id="edge18" class="edge">
<title>Node11&#45;&gt;Node8</title>
<path fill="none" stroke="midnightblue" d="M96,-112.44C127.18,-103.24 176.93,-88.56 211.41,-78.39"/>
<polygon fill="midnightblue" stroke="midnightblue" points="212.54,-81.7 221.14,-75.52 210.56,-74.99 212.54,-81.7"/>
</g>
<!-- Node12&#45;&gt;Node3 -->
<g id="edge22" class="edge">
<title>Node12&#45;&gt;Node3</title>
<path fill="none" stroke="midnightblue" d="M224.65,-112.44C197.73,-103.36 155,-88.94 124.91,-78.78"/>
<polygon fill="midnightblue" stroke="midnightblue" points="125.83,-75.4 115.23,-75.52 123.59,-82.03 125.83,-75.4"/>
</g>
<!-- Node12&#45;&gt;Node4 -->
<g id="edge20" class="edge">
<title>Node12&#45;&gt;Node4</title>
<path fill="none" stroke="midnightblue" d="M219.75,-112.49C201.87,-105.73 180.7,-94.29 170,-76 160.59,-59.91 172.65,-40.52 184.37,-27.13"/>
<polygon fill="midnightblue" stroke="midnightblue" points="187.11,-29.32 191.42,-19.65 182.01,-24.52 187.11,-29.32"/>
</g>
<!-- Node12&#45;&gt;Node7 -->
<g id="edge21" class="edge">
<title>Node12&#45;&gt;Node7</title>
<path fill="none" stroke="midnightblue" d="M269.24,-112.47C286.19,-104.44 311.07,-91.36 330,-76 347.4,-61.88 363.89,-42.12 374.62,-28.11"/>
<polygon fill="midnightblue" stroke="midnightblue" points="377.61,-29.95 380.78,-19.84 372,-25.76 377.61,-29.95"/>
</g>
<!-- Node12&#45;&gt;Node8 -->
<g id="edge24" class="edge">
<title>Node12&#45;&gt;Node8</title>
<path fill="none" stroke="midnightblue" d="M250,-112.08C250,-105.01 250,-94.86 250,-85.99"/>
<polygon fill="midnightblue" stroke="midnightblue" points="253.5,-85.75 250,-75.75 246.5,-85.75 253.5,-85.75"/>
</g>
<!-- Node12&#45;&gt;Node10 -->
<g id="edge23" class="edge">
<title>Node12&#45;&gt;Node10</title>
<path fill="none" stroke="midnightblue" d="M277.73,-112.44C307.43,-103.28 354.72,-88.69 387.67,-78.52"/>
<polygon fill="midnightblue" stroke="midnightblue" points="388.88,-81.81 397.4,-75.52 386.81,-75.12 388.88,-81.81"/>
</g>
<!-- Node13&#45;&gt;Node6 -->
<g id="edge26" class="edge">
<title>Node13&#45;&gt;Node6</title>
<path fill="none" stroke="midnightblue" d="M479.16,-173.98C485.61,-165.05 495.9,-150.81 503.97,-139.64"/>
<polygon fill="midnightblue" stroke="midnightblue" points="506.83,-141.66 509.85,-131.51 501.16,-137.56 506.83,-141.66"/>
</g>
<!-- Node15 -->
<g id="node15" class="node">
<title>Node15</title>
<g id="a_node15"><a xlink:title=" ">
<polygon fill="none" stroke="#bfbfbf" points="875,-174 875,-193 937,-193 937,-174 875,-174"/>
<text text-anchor="middle" x="906" y="-181" font-family="Helvetica,sans-Serif" font-size="10.00">type_traits</text>
</a>
</g>
</g>
<!-- Node14&#45;&gt;Node15 -->
<g id="edge28" class="edge">
<title>Node14&#45;&gt;Node15</title>
<path fill="none" stroke="midnightblue" d="M755.06,-235.46C782.95,-226.6 827.64,-212.2 866,-199 868.38,-198.18 870.84,-197.32 873.31,-196.45"/>
<polygon fill="midnightblue" stroke="midnightblue" points="874.54,-199.73 882.78,-193.06 872.18,-193.13 874.54,-199.73"/>
</g>
<!-- Node16 -->
<g id="node16" class="node">
<title>Node16</title>
<g id="a_node16"><a xlink:title=" ">
<polygon fill="none" stroke="#bfbfbf" points="587.5,-174 587.5,-193 646.5,-193 646.5,-174 587.5,-174"/>
<text text-anchor="middle" x="617" y="-181" font-family="Helvetica,sans-Serif" font-size="10.00">functional</text>
</a>
</g>
</g>
<!-- Node14&#45;&gt;Node16 -->
<g id="edge29" class="edge">
<title>Node14&#45;&gt;Node16</title>
<path fill="none" stroke="midnightblue" d="M712.1,-235.48C693.72,-225.62 663.24,-209.29 641.76,-197.77"/>
<polygon fill="midnightblue" stroke="midnightblue" points="643.34,-194.65 632.87,-193.01 640.03,-200.82 643.34,-194.65"/>
</g>
<!-- Node17 -->
<g id="node17" class="node">
<title>Node17</title>
<g id="a_node17"><a xlink:title=" ">
<polygon fill="none" stroke="#bfbfbf" points="665,-174 665,-193 721,-193 721,-174 665,-174"/>
<text text-anchor="middle" x="693" y="-181" font-family="Helvetica,sans-Serif" font-size="10.00">algorithm</text>
</a>
</g>
</g>
<!-- Node14&#45;&gt;Node17 -->
<g id="edge30" class="edge">
<title>Node14&#45;&gt;Node17</title>
<path fill="none" stroke="midnightblue" d="M722.99,-235.48C717.84,-226.73 709.69,-212.87 703.18,-201.81"/>
<polygon fill="midnightblue" stroke="midnightblue" points="706.09,-199.85 698.01,-193.01 700.06,-203.4 706.09,-199.85"/>
</g>
<!-- Node18 -->
<g id="node18" class="node">
<title>Node18</title>
<g id="a_node18"><a xlink:title=" ">
<polygon fill="none" stroke="#bfbfbf" points="739.5,-174 739.5,-193 788.5,-193 788.5,-174 739.5,-174"/>
<text text-anchor="middle" x="764" y="-181" font-family="Helvetica,sans-Serif" font-size="10.00">cassert</text>
</a>
</g>
</g>
<!-- Node14&#45;&gt;Node18 -->
<g id="edge31" class="edge">
<title>Node14&#45;&gt;Node18</title>
<path fill="none" stroke="midnightblue" d="M733.16,-235.48C738.45,-226.73 746.84,-212.87 753.53,-201.81"/>
<polygon fill="midnightblue" stroke="midnightblue" points="756.67,-203.38 758.85,-193.01 750.68,-199.75 756.67,-203.38"/>
</g>
<!-- Node19 -->
<g id="node19" class="node">
<title>Node19</title>
<g id="a_node19"><a xlink:title=" ">
<polygon fill="none" stroke="#bfbfbf" points="807,-174 807,-193 857,-193 857,-174 807,-174"/>
<text text-anchor="middle" x="832" y="-181" font-family="Helvetica,sans-Serif" font-size="10.00">sl_log.h</text>
</a>
</g>
</g>
<!-- Node14&#45;&gt;Node19 -->
<g id="edge32" class="edge">
<title>Node14&#45;&gt;Node19</title>
<path fill="none" stroke="midnightblue" d="M742.9,-235.48C759.97,-225.71 788.16,-209.58 808.26,-198.08"/>
<polygon fill="midnightblue" stroke="midnightblue" points="810.19,-201.01 817.13,-193.01 806.71,-194.94 810.19,-201.01"/>
</g>
</g>
</svg>
