<?xml version="1.0" encoding="UTF-8" standalone="no"?>
<!DOCTYPE svg PUBLIC "-//W3C//DTD SVG 1.1//EN"
 "http://www.w3.org/Graphics/SVG/1.1/DTD/svg11.dtd">
<!-- Generated by graphviz version 2.43.0 (0)
 -->
<!-- Title: on_zwave_api_started Pages: 1 -->
<svg width="424pt" height="78pt"
 viewBox="0.00 0.00 424.00 77.50" xmlns="http://www.w3.org/2000/svg" xmlns:xlink="http://www.w3.org/1999/xlink">
<g id="graph0" class="graph" transform="scale(1 1) rotate(0) translate(4 73.5)">
<title>on_zwave_api_started</title>
<!-- Node1 -->
<g id="node1" class="node">
<title>Node1</title>
<g id="a_node1"><a xlink:title=" ">
<polygon fill="#bfbfbf" stroke="black" points="0,-28 0,-47 114,-47 114,-28 0,-28"/>
<text text-anchor="middle" x="57" y="-35" font-family="Helvetica,sans-Serif" font-size="10.00">on_zwave_api_started</text>
</a>
</g>
</g>
<!-- Node2 -->
<g id="node2" class="node">
<title>Node2</title>
<g id="a_node2"><a xlink:href="zwave__api__transport_8c.html#a4319ec7c7ecc0ff9fd4706f65960d3a9" target="_top" xlink:title=" ">
<polygon fill="none" stroke="black" points="150,-22.5 150,-52.5 263,-52.5 263,-22.5 150,-22.5"/>
<text text-anchor="start" x="158" y="-40.5" font-family="Helvetica,sans-Serif" font-size="10.00">zwave_api_send_data</text>
<text text-anchor="middle" x="206.5" y="-29.5" font-family="Helvetica,sans-Serif" font-size="10.00">_callback</text>
</a>
</g>
</g>
<!-- Node1&#45;&gt;Node2 -->
<g id="edge1" class="edge">
<title>Node1&#45;&gt;Node2</title>
<path fill="none" stroke="midnightblue" d="M114.18,-37.5C122.52,-37.5 131.17,-37.5 139.68,-37.5"/>
<polygon fill="midnightblue" stroke="midnightblue" points="139.96,-41 149.96,-37.5 139.96,-34 139.96,-41"/>
</g>
<!-- Node3 -->
<g id="node3" class="node">
<title>Node3</title>
<g id="a_node3"><a xlink:href="zwave__api__transport_8c.html#add367e9875b60a3e2f8e2c470f4ca998" target="_top" xlink:title=" ">
<polygon fill="none" stroke="black" points="299,-50 299,-69 416,-69 416,-50 299,-50"/>
<text text-anchor="middle" x="357.5" y="-57" font-family="Helvetica,sans-Serif" font-size="10.00">zwave_api_reset_state</text>
</a>
</g>
</g>
<!-- Node2&#45;&gt;Node3 -->
<g id="edge2" class="edge">
<title>Node2&#45;&gt;Node3</title>
<path fill="none" stroke="midnightblue" d="M263.41,-45.75C271.72,-46.98 280.35,-48.26 288.87,-49.51"/>
<polygon fill="midnightblue" stroke="midnightblue" points="288.39,-52.98 298.79,-50.98 289.41,-46.06 288.39,-52.98"/>
</g>
<!-- Node4 -->
<g id="node4" class="node">
<title>Node4</title>
<g id="a_node4"><a xlink:href="group__zwave__controller__internal.html#ga37f3eb5b079a43384fe3158cdc563a8d" target="_top" xlink:title="see zwave_controller_callbacks_t">
<polygon fill="none" stroke="black" points="304,-0.5 304,-30.5 411,-30.5 411,-0.5 304,-0.5"/>
<text text-anchor="start" x="312" y="-18.5" font-family="Helvetica,sans-Serif" font-size="10.00">zwave_controller_on</text>
<text text-anchor="middle" x="357.5" y="-7.5" font-family="Helvetica,sans-Serif" font-size="10.00">_frame_transmission</text>
</a>
</g>
</g>
<!-- Node2&#45;&gt;Node4 -->
<g id="edge3" class="edge">
<title>Node2&#45;&gt;Node4</title>
<path fill="none" stroke="midnightblue" d="M263.41,-29.25C273.32,-27.78 283.69,-26.25 293.78,-24.76"/>
<polygon fill="midnightblue" stroke="midnightblue" points="294.35,-28.21 303.73,-23.29 293.33,-21.29 294.35,-28.21"/>
</g>
</g>
</svg>
