<?xml version="1.0" encoding="UTF-8" standalone="no"?>
<!DOCTYPE svg PUBLIC "-//W3C//DTD SVG 1.1//EN"
 "http://www.w3.org/Graphics/SVG/1.1/DTD/svg11.dtd">
<!-- Generated by graphviz version 2.43.0 (0)
 -->
<!-- Title: zwave_command_class_humidity_control_setpoint_capabilities_handle_report Pages: 1 -->
<svg width="970pt" height="176pt"
 viewBox="0.00 0.00 970.00 175.50" xmlns="http://www.w3.org/2000/svg" xmlns:xlink="http://www.w3.org/1999/xlink">
<g id="graph0" class="graph" transform="scale(1 1) rotate(0) translate(4 171.5)">
<title>zwave_command_class_humidity_control_setpoint_capabilities_handle_report</title>
<!-- Node1 -->
<g id="node1" class="node">
<title>Node1</title>
<g id="a_node1"><a xlink:title=" ">
<polygon fill="#bfbfbf" stroke="black" points="0,-82.5 0,-123.5 134,-123.5 134,-82.5 0,-82.5"/>
<text text-anchor="start" x="8" y="-111.5" font-family="Helvetica,sans-Serif" font-size="10.00">zwave_command_class</text>
<text text-anchor="start" x="8" y="-100.5" font-family="Helvetica,sans-Serif" font-size="10.00">_humidity_control_setpoint</text>
<text text-anchor="middle" x="67" y="-89.5" font-family="Helvetica,sans-Serif" font-size="10.00">_capabilities_handle_report</text>
</a>
</g>
</g>
<!-- Node2 -->
<g id="node2" class="node">
<title>Node2</title>
<g id="a_node2"><a xlink:href="zwave__command__class__humidity__control__setpoint_8c.html#a9754026f7ea0ba4dda768e557c6b583d" target="_top" xlink:title=" ">
<polygon fill="none" stroke="black" points="183,-137.5 183,-156.5 279,-156.5 279,-137.5 183,-137.5"/>
<text text-anchor="middle" x="231" y="-144.5" font-family="Helvetica,sans-Serif" font-size="10.00">get_setpoint_node</text>
</a>
</g>
</g>
<!-- Node1&#45;&gt;Node2 -->
<g id="edge1" class="edge">
<title>Node1&#45;&gt;Node2</title>
<path fill="none" stroke="midnightblue" d="M134.36,-121.02C151.42,-125.66 169.37,-130.53 185.06,-134.79"/>
<polygon fill="midnightblue" stroke="midnightblue" points="184.44,-138.25 195.01,-137.5 186.28,-131.5 184.44,-138.25"/>
</g>
<!-- Node3 -->
<g id="node3" class="node">
<title>Node3</title>
<g id="a_node3"><a xlink:href="zwave__command__class__humidity__control__setpoint_8c.html#a86136ea4618086291f3a5d2984e0b9ee" target="_top" xlink:title="Interpret value from a report frame and store it in the attribute store.">
<polygon fill="none" stroke="black" points="178.5,-88 178.5,-118 283.5,-118 283.5,-88 178.5,-88"/>
<text text-anchor="start" x="186.5" y="-106" font-family="Helvetica,sans-Serif" font-size="10.00">interpret_value_from</text>
<text text-anchor="middle" x="231" y="-95" font-family="Helvetica,sans-Serif" font-size="10.00">_report</text>
</a>
</g>
</g>
<!-- Node1&#45;&gt;Node3 -->
<g id="edge2" class="edge">
<title>Node1&#45;&gt;Node3</title>
<path fill="none" stroke="midnightblue" d="M134.36,-103C145.6,-103 157.23,-103 168.34,-103"/>
<polygon fill="midnightblue" stroke="midnightblue" points="168.37,-106.5 178.37,-103 168.37,-99.5 168.37,-106.5"/>
</g>
<!-- Node8 -->
<g id="node8" class="node">
<title>Node8</title>
<g id="a_node8"><a xlink:href="group__command__classes__utils.html#gaff12f5d1f5b9eed08201efab5854190c" target="_top" xlink:title="Find the Z&#45;Wave Endpoint ID Node attribute based on a const zwave_controller_connection_info_t object...">
<polygon fill="none" stroke="black" points="170,-39 170,-69 292,-69 292,-39 170,-39"/>
<text text-anchor="start" x="178" y="-57" font-family="Helvetica,sans-Serif" font-size="10.00">zwave_command_class</text>
<text text-anchor="middle" x="231" y="-46" font-family="Helvetica,sans-Serif" font-size="10.00">_get_endpoint_node</text>
</a>
</g>
</g>
<!-- Node1&#45;&gt;Node8 -->
<g id="edge7" class="edge">
<title>Node1&#45;&gt;Node8</title>
<path fill="none" stroke="midnightblue" d="M134.36,-82.93C146.37,-79.29 158.83,-75.53 170.63,-71.96"/>
<polygon fill="midnightblue" stroke="midnightblue" points="171.8,-75.26 180.36,-69.01 169.78,-68.56 171.8,-75.26"/>
</g>
<!-- Node4 -->
<g id="node4" class="node">
<title>Node4</title>
<g id="a_node4"><a xlink:href="zwave__command__class__humidity__control__setpoint_8c.html#af2f354d9414e81ab49257fd59a1704e5" target="_top" xlink:title="Check if current value can be set (in bounds of value_min and value_max)">
<polygon fill="none" stroke="black" points="340,-137 340,-167 451,-167 451,-137 340,-137"/>
<text text-anchor="start" x="348" y="-155" font-family="Helvetica,sans-Serif" font-size="10.00">check_setpoint_value</text>
<text text-anchor="middle" x="395.5" y="-144" font-family="Helvetica,sans-Serif" font-size="10.00">_bounds</text>
</a>
</g>
</g>
<!-- Node3&#45;&gt;Node4 -->
<g id="edge3" class="edge">
<title>Node3&#45;&gt;Node4</title>
<path fill="none" stroke="midnightblue" d="M282.08,-118.1C298.69,-123.11 317.34,-128.73 334.6,-133.94"/>
<polygon fill="midnightblue" stroke="midnightblue" points="334,-137.41 344.58,-136.95 336.02,-130.71 334,-137.41"/>
</g>
<!-- Node6 -->
<g id="node6" class="node">
<title>Node6</title>
<g id="a_node6"><a xlink:href="group__command__classes__utils.html#ga359fa8c1765274e72fa964e94b772f97" target="_top" xlink:title="Extracts a 1,2 or 4 bytes signed value from a frame.">
<polygon fill="none" stroke="black" points="337,-88 337,-118 454,-118 454,-88 337,-88"/>
<text text-anchor="start" x="345" y="-106" font-family="Helvetica,sans-Serif" font-size="10.00">get_signed_value_from</text>
<text text-anchor="middle" x="395.5" y="-95" font-family="Helvetica,sans-Serif" font-size="10.00">_frame_and_size</text>
</a>
</g>
</g>
<!-- Node3&#45;&gt;Node6 -->
<g id="edge5" class="edge">
<title>Node3&#45;&gt;Node6</title>
<path fill="none" stroke="midnightblue" d="M283.86,-103C297.47,-103 312.34,-103 326.64,-103"/>
<polygon fill="midnightblue" stroke="midnightblue" points="326.93,-106.5 336.93,-103 326.93,-99.5 326.93,-106.5"/>
</g>
<!-- Node5 -->
<g id="node5" class="node">
<title>Node5</title>
<g id="a_node5"><a xlink:href="zwave__command__class__humidity__control__setpoint_8c.html#a5ccf3422e402339de56cefc742a1d4a6" target="_top" xlink:title="Get setpoint real value from raw value and precision.">
<polygon fill="none" stroke="black" points="516,-142.5 516,-161.5 614,-161.5 614,-142.5 516,-142.5"/>
<text text-anchor="middle" x="565" y="-149.5" font-family="Helvetica,sans-Serif" font-size="10.00">get_setpoint_value</text>
</a>
</g>
</g>
<!-- Node4&#45;&gt;Node5 -->
<g id="edge4" class="edge">
<title>Node4&#45;&gt;Node5</title>
<path fill="none" stroke="midnightblue" d="M451.35,-152C468.73,-152 488.01,-152 505.64,-152"/>
<polygon fill="midnightblue" stroke="midnightblue" points="505.8,-155.5 515.8,-152 505.8,-148.5 505.8,-155.5"/>
</g>
<!-- Node7 -->
<g id="node7" class="node">
<title>Node7</title>
<g id="a_node7"><a xlink:href="group__command__classes__utils.html#ga22eef0dea00ab9f526c038009481e814" target="_top" xlink:title="Extracts a 1,2 or 4 bytes unsigned value from a frame.">
<polygon fill="none" stroke="black" points="507,-88 507,-118 623,-118 623,-88 507,-88"/>
<text text-anchor="start" x="515" y="-106" font-family="Helvetica,sans-Serif" font-size="10.00">get_unsigned_value</text>
<text text-anchor="middle" x="565" y="-95" font-family="Helvetica,sans-Serif" font-size="10.00">_from_frame_and_size</text>
</a>
</g>
</g>
<!-- Node6&#45;&gt;Node7 -->
<g id="edge6" class="edge">
<title>Node6&#45;&gt;Node7</title>
<path fill="none" stroke="midnightblue" d="M454.14,-103C467.85,-103 482.59,-103 496.69,-103"/>
<polygon fill="midnightblue" stroke="midnightblue" points="496.82,-106.5 506.82,-103 496.82,-99.5 496.82,-106.5"/>
</g>
<!-- Node9 -->
<g id="node9" class="node">
<title>Node9</title>
<g id="a_node9"><a xlink:href="group__zpc__attribute__store__network__helpers.html#gae4d15b8e0c61c88d94c8f342bd2014fc" target="_top" xlink:title="Take a UNID/endpoint combination and returns its attribute store node.">
<polygon fill="none" stroke="black" points="328,-39 328,-69 463,-69 463,-39 328,-39"/>
<text text-anchor="start" x="336" y="-57" font-family="Helvetica,sans-Serif" font-size="10.00">attribute_store_network</text>
<text text-anchor="middle" x="395.5" y="-46" font-family="Helvetica,sans-Serif" font-size="10.00">_helper_get_endpoint_node</text>
</a>
</g>
</g>
<!-- Node8&#45;&gt;Node9 -->
<g id="edge8" class="edge">
<title>Node8&#45;&gt;Node9</title>
<path fill="none" stroke="midnightblue" d="M292.05,-54C300.43,-54 309.14,-54 317.77,-54"/>
<polygon fill="midnightblue" stroke="midnightblue" points="317.86,-57.5 327.86,-54 317.86,-50.5 317.86,-57.5"/>
</g>
<!-- Node14 -->
<g id="node14" class="node">
<title>Node14</title>
<g id="a_node14"><a xlink:href="group__zwave__unid.html#ga421deceb8a12916f049e4f3446774439" target="_top" xlink:title="Form a UNID.">
<polygon fill="none" stroke="black" points="329.5,-0.5 329.5,-19.5 461.5,-19.5 461.5,-0.5 329.5,-0.5"/>
<text text-anchor="middle" x="395.5" y="-7.5" font-family="Helvetica,sans-Serif" font-size="10.00">zwave_unid_from_node_id</text>
</a>
</g>
</g>
<!-- Node8&#45;&gt;Node14 -->
<g id="edge13" class="edge">
<title>Node8&#45;&gt;Node14</title>
<path fill="none" stroke="midnightblue" d="M287.47,-38.98C307.67,-33.51 330.24,-27.4 349.43,-22.2"/>
<polygon fill="midnightblue" stroke="midnightblue" points="350.39,-25.57 359.13,-19.58 348.56,-18.81 350.39,-25.57"/>
</g>
<!-- Node10 -->
<g id="node10" class="node">
<title>Node10</title>
<g id="a_node10"><a xlink:href="group__zpc__attribute__store__network__helpers.html#gafb993ff484b3c826743c4695d6659cf0" target="_top" xlink:title="Take a UNID and return its attribute store node representing the NodeID.">
<polygon fill="none" stroke="black" points="499,-39 499,-69 631,-69 631,-39 499,-39"/>
<text text-anchor="start" x="507" y="-57" font-family="Helvetica,sans-Serif" font-size="10.00">attribute_store_network</text>
<text text-anchor="middle" x="565" y="-46" font-family="Helvetica,sans-Serif" font-size="10.00">_helper_get_node_id_node</text>
</a>
</g>
</g>
<!-- Node9&#45;&gt;Node10 -->
<g id="edge9" class="edge">
<title>Node9&#45;&gt;Node10</title>
<path fill="none" stroke="midnightblue" d="M463.18,-54C471.55,-54 480.15,-54 488.64,-54"/>
<polygon fill="midnightblue" stroke="midnightblue" points="488.91,-57.5 498.91,-54 488.91,-50.5 488.91,-57.5"/>
</g>
<!-- Node11 -->
<g id="node11" class="node">
<title>Node11</title>
<g id="a_node11"><a xlink:href="group__zpc__attribute__store__network__helpers.html#ga05cb572c96f7dc8e6657f86e135fafed" target="_top" xlink:title="Take a UNID and return its attribute store node representing the HomeID.">
<polygon fill="none" stroke="black" points="667,-61 667,-91 802,-91 802,-61 667,-61"/>
<text text-anchor="start" x="675" y="-79" font-family="Helvetica,sans-Serif" font-size="10.00">attribute_store_network</text>
<text text-anchor="middle" x="734.5" y="-68" font-family="Helvetica,sans-Serif" font-size="10.00">_helper_get_home_id_node</text>
</a>
</g>
</g>
<!-- Node10&#45;&gt;Node11 -->
<g id="edge10" class="edge">
<title>Node10&#45;&gt;Node11</title>
<path fill="none" stroke="midnightblue" d="M631.24,-62.57C639.62,-63.67 648.27,-64.81 656.82,-65.93"/>
<polygon fill="midnightblue" stroke="midnightblue" points="656.41,-69.4 666.78,-67.24 657.32,-62.46 656.41,-69.4"/>
</g>
<!-- Node13 -->
<g id="node13" class="node">
<title>Node13</title>
<g id="a_node13"><a xlink:href="group__zwave__unid.html#ga76885767debd174e96e6df00b0a368c3" target="_top" xlink:title="Convert a UNID to a node ID.">
<polygon fill="none" stroke="black" points="674,-22.5 674,-41.5 795,-41.5 795,-22.5 674,-22.5"/>
<text text-anchor="middle" x="734.5" y="-29.5" font-family="Helvetica,sans-Serif" font-size="10.00">zwave_unid_to_node_id</text>
</a>
</g>
</g>
<!-- Node10&#45;&gt;Node13 -->
<g id="edge12" class="edge">
<title>Node10&#45;&gt;Node13</title>
<path fill="none" stroke="midnightblue" d="M631.24,-45.43C641.89,-44.03 652.96,-42.58 663.72,-41.17"/>
<polygon fill="midnightblue" stroke="midnightblue" points="664.45,-44.6 673.91,-39.83 663.54,-37.66 664.45,-44.6"/>
</g>
<!-- Node12 -->
<g id="node12" class="node">
<title>Node12</title>
<g id="a_node12"><a xlink:href="group__zwave__unid.html#ga92f9808a08c2ce1c0a6a9dc2debf3580" target="_top" xlink:title="Convert a UNID to a Home ID.">
<polygon fill="none" stroke="black" points="838,-66.5 838,-85.5 962,-85.5 962,-66.5 838,-66.5"/>
<text text-anchor="middle" x="900" y="-73.5" font-family="Helvetica,sans-Serif" font-size="10.00">zwave_unid_to_home_id</text>
</a>
</g>
</g>
<!-- Node11&#45;&gt;Node12 -->
<g id="edge11" class="edge">
<title>Node11&#45;&gt;Node12</title>
<path fill="none" stroke="midnightblue" d="M802,-76C810.42,-76 819.07,-76 827.57,-76"/>
<polygon fill="midnightblue" stroke="midnightblue" points="827.83,-79.5 837.83,-76 827.83,-72.5 827.83,-79.5"/>
</g>
</g>
</svg>
