<?xml version="1.0" encoding="UTF-8" standalone="no"?>
<!DOCTYPE svg PUBLIC "-//W3C//DTD SVG 1.1//EN"
 "http://www.w3.org/Graphics/SVG/1.1/DTD/svg11.dtd">
<!-- Generated by graphviz version 2.43.0 (0)
 -->
<!-- Title: verify_if_wake_up_setting_needs_resolution Pages: 1 -->
<svg width="807pt" height="83pt"
 viewBox="0.00 0.00 807.00 83.00" xmlns="http://www.w3.org/2000/svg" xmlns:xlink="http://www.w3.org/1999/xlink">
<g id="graph0" class="graph" transform="scale(1 1) rotate(0) translate(4 79)">
<title>verify_if_wake_up_setting_needs_resolution</title>
<!-- Node1 -->
<g id="node1" class="node">
<title>Node1</title>
<g id="a_node1"><a xlink:title="Verifies if either NodeID / Wake Up interval settings are still undefined or mismatched and a resolut...">
<polygon fill="#bfbfbf" stroke="black" points="669,-22.5 669,-52.5 799,-52.5 799,-22.5 669,-22.5"/>
<text text-anchor="start" x="677" y="-40.5" font-family="Helvetica,sans-Serif" font-size="10.00">verify_if_wake_up_setting</text>
<text text-anchor="middle" x="734" y="-29.5" font-family="Helvetica,sans-Serif" font-size="10.00">_needs_resolution</text>
</a>
</g>
</g>
<!-- Node2 -->
<g id="node2" class="node">
<title>Node2</title>
<g id="a_node2"><a xlink:href="zwave__command__class__wake__up_8c.html#a113c3f11c4fb5f5eb6abccec9cf51535" target="_top" xlink:title=" ">
<polygon fill="none" stroke="black" points="507,-44.5 507,-74.5 633,-74.5 633,-44.5 507,-44.5"/>
<text text-anchor="start" x="515" y="-62.5" font-family="Helvetica,sans-Serif" font-size="10.00">handle_wake_up_interval</text>
<text text-anchor="middle" x="570" y="-51.5" font-family="Helvetica,sans-Serif" font-size="10.00">_report</text>
</a>
</g>
</g>
<!-- Node1&#45;&gt;Node2 -->
<g id="edge1" class="edge">
<title>Node1&#45;&gt;Node2</title>
<path fill="none" stroke="midnightblue" d="M658.95,-47.56C650.36,-48.72 641.65,-49.9 633.24,-51.05"/>
<polygon fill="midnightblue" stroke="midnightblue" points="659.54,-51.01 668.97,-46.19 658.59,-44.07 659.54,-51.01"/>
</g>
<!-- Node6 -->
<g id="node6" class="node">
<title>Node6</title>
<g id="a_node6"><a xlink:href="zwave__command__class__wake__up_8c.html#ae5ff8372dbe888c88db63f4ba9198fa2" target="_top" xlink:title="Verifies if either NodeID / Wake Up interval settings have changed and need resolution in this case,...">
<polygon fill="none" stroke="black" points="353.5,-0.5 353.5,-30.5 461.5,-30.5 461.5,-0.5 353.5,-0.5"/>
<text text-anchor="start" x="361.5" y="-18.5" font-family="Helvetica,sans-Serif" font-size="10.00">on_desired_wake_up</text>
<text text-anchor="middle" x="407.5" y="-7.5" font-family="Helvetica,sans-Serif" font-size="10.00">_setting_update</text>
</a>
</g>
</g>
<!-- Node1&#45;&gt;Node6 -->
<g id="edge5" class="edge">
<title>Node1&#45;&gt;Node6</title>
<path fill="none" stroke="midnightblue" d="M658.7,-32.46C598.58,-28.39 515.38,-22.75 461.74,-19.11"/>
<polygon fill="midnightblue" stroke="midnightblue" points="658.68,-35.97 668.89,-33.15 659.15,-28.99 658.68,-35.97"/>
</g>
<!-- Node3 -->
<g id="node3" class="node">
<title>Node3</title>
<g id="a_node3"><a xlink:href="zwave__command__class__wake__up_8c.html#a88bb847c5b28073f2eebf61a9c6fe6f6" target="_top" xlink:title=" ">
<polygon fill="none" stroke="black" points="344,-50 344,-69 471,-69 471,-50 344,-50"/>
<text text-anchor="middle" x="407.5" y="-57" font-family="Helvetica,sans-Serif" font-size="10.00">wake_up_control_handler</text>
</a>
</g>
</g>
<!-- Node2&#45;&gt;Node3 -->
<g id="edge2" class="edge">
<title>Node2&#45;&gt;Node3</title>
<path fill="none" stroke="midnightblue" d="M496.94,-59.5C488.35,-59.5 479.63,-59.5 471.18,-59.5"/>
<polygon fill="midnightblue" stroke="midnightblue" points="496.95,-63 506.95,-59.5 496.95,-56 496.95,-63"/>
</g>
<!-- Node4 -->
<g id="node4" class="node">
<title>Node4</title>
<g id="a_node4"><a xlink:href="group__zwave__command__class__wake__up.html#ga11866ec0935bee3fba386bc3ed28e0b6" target="_top" xlink:title="Initializes the Wake Up Command Class handler.">
<polygon fill="none" stroke="black" points="186,-22.5 186,-52.5 308,-52.5 308,-22.5 186,-22.5"/>
<text text-anchor="start" x="194" y="-40.5" font-family="Helvetica,sans-Serif" font-size="10.00">zwave_command_class</text>
<text text-anchor="middle" x="247" y="-29.5" font-family="Helvetica,sans-Serif" font-size="10.00">_wake_up_init</text>
</a>
</g>
</g>
<!-- Node3&#45;&gt;Node4 -->
<g id="edge3" class="edge">
<title>Node3&#45;&gt;Node4</title>
<path fill="none" stroke="midnightblue" d="M333.83,-49.41C325.23,-48.22 316.52,-47.01 308.12,-45.84"/>
<polygon fill="midnightblue" stroke="midnightblue" points="333.47,-52.9 343.86,-50.81 334.43,-45.96 333.47,-52.9"/>
</g>
<!-- Node5 -->
<g id="node5" class="node">
<title>Node5</title>
<g id="a_node5"><a xlink:href="group__command__classes__fixt.html#ga5272651939ced1723158340039e8da19" target="_top" xlink:title="Setup fixture for Z&#45;Wave Command Classes.">
<polygon fill="none" stroke="black" points="0,-28 0,-47 150,-47 150,-28 0,-28"/>
<text text-anchor="middle" x="75" y="-35" font-family="Helvetica,sans-Serif" font-size="10.00">zwave_command_classes_init</text>
</a>
</g>
</g>
<!-- Node4&#45;&gt;Node5 -->
<g id="edge4" class="edge">
<title>Node4&#45;&gt;Node5</title>
<path fill="none" stroke="midnightblue" d="M175.51,-37.5C167.16,-37.5 158.61,-37.5 150.21,-37.5"/>
<polygon fill="midnightblue" stroke="midnightblue" points="175.59,-41 185.59,-37.5 175.59,-34 175.59,-41"/>
</g>
<!-- Node6&#45;&gt;Node4 -->
<g id="edge6" class="edge">
<title>Node6&#45;&gt;Node4</title>
<path fill="none" stroke="midnightblue" d="M343.26,-24.28C331.7,-25.88 319.66,-27.55 308.18,-29.15"/>
<polygon fill="midnightblue" stroke="midnightblue" points="343.86,-27.73 353.28,-22.89 342.89,-20.8 343.86,-27.73"/>
</g>
</g>
</svg>
