<?xml version="1.0" encoding="UTF-8" standalone="no"?>
<!DOCTYPE svg PUBLIC "-//W3C//DTD SVG 1.1//EN"
 "http://www.w3.org/Graphics/SVG/1.1/DTD/svg11.dtd">
<!-- Generated by graphviz version 2.43.0 (0)
 -->
<!-- Title: undefine_user_code Pages: 1 -->
<svg width="752pt" height="39pt"
 viewBox="0.00 0.00 752.00 39.00" xmlns="http://www.w3.org/2000/svg" xmlns:xlink="http://www.w3.org/1999/xlink">
<g id="graph0" class="graph" transform="scale(1 1) rotate(0) translate(4 35)">
<title>undefine_user_code</title>
<!-- Node1 -->
<g id="node1" class="node">
<title>Node1</title>
<g id="a_node1"><a xlink:title="Checks if the User ID node matches what we expect and undefines the User Code data underneath.">
<polygon fill="#bfbfbf" stroke="black" points="640,-6 640,-25 744,-25 744,-6 640,-6"/>
<text text-anchor="middle" x="692" y="-13" font-family="Helvetica,sans-Serif" font-size="10.00">undefine_user_code</text>
</a>
</g>
</g>
<!-- Node2 -->
<g id="node2" class="node">
<title>Node2</title>
<g id="a_node2"><a xlink:href="zwave__command__class__user__code_8c.html#a51703dc3e67743e057b64aa954cb6502" target="_top" xlink:title="Navigates under the endpoint node and undefines all the known user code data.">
<polygon fill="none" stroke="black" points="480,-6 480,-25 604,-25 604,-6 480,-6"/>
<text text-anchor="middle" x="542" y="-13" font-family="Helvetica,sans-Serif" font-size="10.00">undefine_all_user_codes</text>
</a>
</g>
</g>
<!-- Node1&#45;&gt;Node2 -->
<g id="edge1" class="edge">
<title>Node1&#45;&gt;Node2</title>
<path fill="none" stroke="midnightblue" d="M629.56,-15.5C621.18,-15.5 612.57,-15.5 604.19,-15.5"/>
<polygon fill="midnightblue" stroke="midnightblue" points="629.65,-19 639.65,-15.5 629.65,-12 629.65,-19"/>
</g>
<!-- Node3 -->
<g id="node3" class="node">
<title>Node3</title>
<g id="a_node3"><a xlink:href="zwave__command__class__user__code_8c.html#ac1b7b4decaac08fb1c13f86d1f7ce134" target="_top" xlink:title="Handles the Send Data Complete for a &quot;delete all user codes&quot;.">
<polygon fill="none" stroke="black" points="344,-0.5 344,-30.5 444,-30.5 444,-0.5 344,-0.5"/>
<text text-anchor="start" x="352" y="-18.5" font-family="Helvetica,sans-Serif" font-size="10.00">on_delete_all_send</text>
<text text-anchor="middle" x="394" y="-7.5" font-family="Helvetica,sans-Serif" font-size="10.00">_data_complete</text>
</a>
</g>
</g>
<!-- Node2&#45;&gt;Node3 -->
<g id="edge2" class="edge">
<title>Node2&#45;&gt;Node3</title>
<path fill="none" stroke="midnightblue" d="M469.83,-15.5C461.2,-15.5 452.52,-15.5 444.3,-15.5"/>
<polygon fill="midnightblue" stroke="midnightblue" points="469.93,-19 479.93,-15.5 469.93,-12 469.93,-19"/>
</g>
<!-- Node4 -->
<g id="node4" class="node">
<title>Node4</title>
<g id="a_node4"><a xlink:href="group__zwave__command__class__user__code.html#ga3903c1853dfc3b999bcb5570d3355a35" target="_top" xlink:title="Initializes the User Code Command Class handler.">
<polygon fill="none" stroke="black" points="186,-0.5 186,-30.5 308,-30.5 308,-0.5 186,-0.5"/>
<text text-anchor="start" x="194" y="-18.5" font-family="Helvetica,sans-Serif" font-size="10.00">zwave_command_class</text>
<text text-anchor="middle" x="247" y="-7.5" font-family="Helvetica,sans-Serif" font-size="10.00">_user_code_init</text>
</a>
</g>
</g>
<!-- Node3&#45;&gt;Node4 -->
<g id="edge3" class="edge">
<title>Node3&#45;&gt;Node4</title>
<path fill="none" stroke="midnightblue" d="M333.75,-15.5C325.29,-15.5 316.58,-15.5 308.1,-15.5"/>
<polygon fill="midnightblue" stroke="midnightblue" points="333.91,-19 343.91,-15.5 333.91,-12 333.91,-19"/>
</g>
<!-- Node5 -->
<g id="node5" class="node">
<title>Node5</title>
<g id="a_node5"><a xlink:href="group__command__classes__fixt.html#ga5272651939ced1723158340039e8da19" target="_top" xlink:title="Setup fixture for Z&#45;Wave Command Classes.">
<polygon fill="none" stroke="black" points="0,-6 0,-25 150,-25 150,-6 0,-6"/>
<text text-anchor="middle" x="75" y="-13" font-family="Helvetica,sans-Serif" font-size="10.00">zwave_command_classes_init</text>
</a>
</g>
</g>
<!-- Node4&#45;&gt;Node5 -->
<g id="edge4" class="edge">
<title>Node4&#45;&gt;Node5</title>
<path fill="none" stroke="midnightblue" d="M175.51,-15.5C167.16,-15.5 158.61,-15.5 150.21,-15.5"/>
<polygon fill="midnightblue" stroke="midnightblue" points="175.59,-19 185.59,-15.5 175.59,-12 175.59,-19"/>
</g>
</g>
</svg>
