<?xml version="1.0" encoding="UTF-8" standalone="no"?>
<!DOCTYPE svg PUBLIC "-//W3C//DTD SVG 1.1//EN"
 "http://www.w3.org/Graphics/SVG/1.1/DTD/svg11.dtd">
<!-- Generated by graphviz version 2.43.0 (0)
 -->
<!-- Title: zwave_command_class_security_2_commands_supported_report Pages: 1 -->
<svg width="1015pt" height="335pt"
 viewBox="0.00 0.00 1015.00 335.00" xmlns="http://www.w3.org/2000/svg" xmlns:xlink="http://www.w3.org/1999/xlink">
<g id="graph0" class="graph" transform="scale(1 1) rotate(0) translate(4 331)">
<title>zwave_command_class_security_2_commands_supported_report</title>
<!-- Node1 -->
<g id="node1" class="node">
<title>Node1</title>
<g id="a_node1"><a xlink:title=" ">
<polygon fill="#bfbfbf" stroke="black" points="0,-137 0,-178 122,-178 122,-137 0,-137"/>
<text text-anchor="start" x="8" y="-166" font-family="Helvetica,sans-Serif" font-size="10.00">zwave_command_class</text>
<text text-anchor="start" x="8" y="-155" font-family="Helvetica,sans-Serif" font-size="10.00">_security_2_commands</text>
<text text-anchor="middle" x="61" y="-144" font-family="Helvetica,sans-Serif" font-size="10.00">_supported_report</text>
</a>
</g>
</g>
<!-- Node2 -->
<g id="node2" class="node">
<title>Node2</title>
<g id="a_node2"><a xlink:href="group__command__classes__utils.html#ga9c5cc33bc4f4b02b55abb6d39878d1fe" target="_top" xlink:title="function helper function that determines if a transmission was done using the ZPC&#39;s highest security ...">
<polygon fill="none" stroke="black" points="177,-167.5 177,-197.5 287,-197.5 287,-167.5 177,-167.5"/>
<text text-anchor="start" x="185" y="-185.5" font-family="Helvetica,sans-Serif" font-size="10.00">is_using_zpc_highest</text>
<text text-anchor="middle" x="232" y="-174.5" font-family="Helvetica,sans-Serif" font-size="10.00">_security_class</text>
</a>
</g>
</g>
<!-- Node1&#45;&gt;Node2 -->
<g id="edge1" class="edge">
<title>Node1&#45;&gt;Node2</title>
<path fill="none" stroke="midnightblue" d="M122.06,-166.38C136.55,-168.53 152.09,-170.83 166.77,-173"/>
<polygon fill="midnightblue" stroke="midnightblue" points="166.36,-176.48 176.76,-174.48 167.38,-169.55 166.36,-176.48"/>
</g>
<!-- Node7 -->
<g id="node7" class="node">
<title>Node7</title>
<g id="a_node7"><a xlink:href="group__command__classes__utils.html#gaff12f5d1f5b9eed08201efab5854190c" target="_top" xlink:title="Find the Z&#45;Wave Endpoint ID Node attribute based on a const zwave_controller_connection_info_t object...">
<polygon fill="none" stroke="black" points="171,-230.5 171,-260.5 293,-260.5 293,-230.5 171,-230.5"/>
<text text-anchor="start" x="179" y="-248.5" font-family="Helvetica,sans-Serif" font-size="10.00">zwave_command_class</text>
<text text-anchor="middle" x="232" y="-237.5" font-family="Helvetica,sans-Serif" font-size="10.00">_get_endpoint_node</text>
</a>
</g>
</g>
<!-- Node1&#45;&gt;Node7 -->
<g id="edge6" class="edge">
<title>Node1&#45;&gt;Node7</title>
<path fill="none" stroke="midnightblue" d="M101.62,-178.13C129.2,-192.49 165.76,-211.53 192.98,-225.7"/>
<polygon fill="midnightblue" stroke="midnightblue" points="191.7,-228.98 202.19,-230.5 194.94,-222.78 191.7,-228.98"/>
</g>
<!-- Node14 -->
<g id="node14" class="node">
<title>Node14</title>
<g id="a_node14"><a xlink:href="group__zwave__granted__keys.html#gacb95eae0e7a3adbbba13fd3116addd46" target="_top" xlink:title="Updates the Attribute Store to indicate that the Security key and Protocol that we just used are work...">
<polygon fill="none" stroke="black" points="171,-44 171,-85 293,-85 293,-44 171,-44"/>
<text text-anchor="start" x="179" y="-73" font-family="Helvetica,sans-Serif" font-size="10.00">zwave_command_class</text>
<text text-anchor="start" x="179" y="-62" font-family="Helvetica,sans-Serif" font-size="10.00">_mark_key_protocol_as</text>
<text text-anchor="middle" x="232" y="-51" font-family="Helvetica,sans-Serif" font-size="10.00">_supported</text>
</a>
</g>
</g>
<!-- Node1&#45;&gt;Node14 -->
<g id="edge13" class="edge">
<title>Node1&#45;&gt;Node14</title>
<path fill="none" stroke="midnightblue" d="M99.51,-136.86C124.67,-123.01 157.98,-104.68 184.78,-89.93"/>
<polygon fill="midnightblue" stroke="midnightblue" points="186.52,-92.97 193.6,-85.08 183.15,-86.84 186.52,-92.97"/>
</g>
<!-- Node18 -->
<g id="node18" class="node">
<title>Node18</title>
<g id="a_node18"><a xlink:href="group__zwave__tx__scheme__selector.html#ga0efa34ef87df3cef0f14ac47c733d491" target="_top" xlink:title="Return the Highest security Class of a NodeID.">
<polygon fill="none" stroke="black" points="158,-118.5 158,-148.5 306,-148.5 306,-118.5 158,-118.5"/>
<text text-anchor="start" x="166" y="-136.5" font-family="Helvetica,sans-Serif" font-size="10.00">zwave_tx_scheme_get</text>
<text text-anchor="middle" x="232" y="-125.5" font-family="Helvetica,sans-Serif" font-size="10.00">_node_highest_security_class</text>
</a>
</g>
</g>
<!-- Node1&#45;&gt;Node18 -->
<g id="edge17" class="edge">
<title>Node1&#45;&gt;Node18</title>
<path fill="none" stroke="midnightblue" d="M122.06,-148.97C130.38,-147.79 139.04,-146.56 147.69,-145.33"/>
<polygon fill="midnightblue" stroke="midnightblue" points="148.41,-148.76 157.81,-143.89 147.42,-141.83 148.41,-148.76"/>
</g>
<!-- Node3 -->
<g id="node3" class="node">
<title>Node3</title>
<g id="a_node3"><a xlink:href="group__zwave__controller__keyset.html#ga43a73c5ae7dc860fa2e5edb9814c432f" target="_top" xlink:title="Get the hight encapsulation supported by a given key set.">
<polygon fill="none" stroke="black" points="358.5,-137.5 358.5,-167.5 477.5,-167.5 477.5,-137.5 358.5,-137.5"/>
<text text-anchor="start" x="366.5" y="-155.5" font-family="Helvetica,sans-Serif" font-size="10.00">zwave_controller_get</text>
<text text-anchor="middle" x="418" y="-144.5" font-family="Helvetica,sans-Serif" font-size="10.00">_highest_encapsulation</text>
</a>
</g>
</g>
<!-- Node2&#45;&gt;Node3 -->
<g id="edge2" class="edge">
<title>Node2&#45;&gt;Node3</title>
<path fill="none" stroke="midnightblue" d="M287.21,-173.66C306.35,-170.54 328.12,-166.99 348.29,-163.7"/>
<polygon fill="midnightblue" stroke="midnightblue" points="349.06,-167.12 358.36,-162.06 347.93,-160.22 349.06,-167.12"/>
</g>
<!-- Node4 -->
<g id="node4" class="node">
<title>Node4</title>
<g id="a_node4"><a xlink:href="group__zwave__tx__scheme__selector.html#ga13b472eb06e679638bad680aa33825db" target="_top" xlink:title="Return a list of security keys which the controller can use.">
<polygon fill="none" stroke="black" points="359.5,-186.5 359.5,-216.5 476.5,-216.5 476.5,-186.5 359.5,-186.5"/>
<text text-anchor="start" x="367.5" y="-204.5" font-family="Helvetica,sans-Serif" font-size="10.00">zwave_tx_scheme_get</text>
<text text-anchor="middle" x="418" y="-193.5" font-family="Helvetica,sans-Serif" font-size="10.00">_zpc_granted_keys</text>
</a>
</g>
</g>
<!-- Node2&#45;&gt;Node4 -->
<g id="edge3" class="edge">
<title>Node2&#45;&gt;Node4</title>
<path fill="none" stroke="midnightblue" d="M287.21,-188.1C306.62,-190.1 328.74,-192.39 349.15,-194.49"/>
<polygon fill="midnightblue" stroke="midnightblue" points="349.03,-198 359.33,-195.55 349.75,-191.04 349.03,-198"/>
</g>
<!-- Node5 -->
<g id="node5" class="node">
<title>Node5</title>
<g id="a_node5"><a xlink:href="group__zwave__controller__storage.html#ga771d01deff646dfda3f8406d6fbf5736" target="_top" xlink:title="Return the granted keys for a node.">
<polygon fill="none" stroke="black" points="539,-115.5 539,-145.5 667,-145.5 667,-115.5 539,-115.5"/>
<text text-anchor="start" x="547" y="-133.5" font-family="Helvetica,sans-Serif" font-size="10.00">zwave_controller_storage</text>
<text text-anchor="middle" x="603" y="-122.5" font-family="Helvetica,sans-Serif" font-size="10.00">_get_node_granted_keys</text>
</a>
</g>
</g>
<!-- Node4&#45;&gt;Node5 -->
<g id="edge4" class="edge">
<title>Node4&#45;&gt;Node5</title>
<path fill="none" stroke="midnightblue" d="M466.02,-186.48C475.34,-183.32 485.02,-179.9 494,-176.5 515.78,-168.25 539.64,-158.19 559.38,-149.59"/>
<polygon fill="midnightblue" stroke="midnightblue" points="560.96,-152.72 568.72,-145.5 558.15,-146.31 560.96,-152.72"/>
</g>
<!-- Node6 -->
<g id="node6" class="node">
<title>Node6</title>
<g id="a_node6"><a xlink:href="group__zwave__network__management.html#gae265f1e935804f3f0b971755ab0ee61e" target="_top" xlink:title="Get the cached NodeID.">
<polygon fill="none" stroke="black" points="530,-186.5 530,-216.5 676,-216.5 676,-186.5 530,-186.5"/>
<text text-anchor="start" x="538" y="-204.5" font-family="Helvetica,sans-Serif" font-size="10.00">zwave_network_management</text>
<text text-anchor="middle" x="603" y="-193.5" font-family="Helvetica,sans-Serif" font-size="10.00">_get_node_id</text>
</a>
</g>
</g>
<!-- Node4&#45;&gt;Node6 -->
<g id="edge5" class="edge">
<title>Node4&#45;&gt;Node6</title>
<path fill="none" stroke="midnightblue" d="M476.65,-201.5C490.36,-201.5 505.24,-201.5 519.81,-201.5"/>
<polygon fill="midnightblue" stroke="midnightblue" points="519.82,-205 529.82,-201.5 519.82,-198 519.82,-205"/>
</g>
<!-- Node8 -->
<g id="node8" class="node">
<title>Node8</title>
<g id="a_node8"><a xlink:href="group__zpc__attribute__store__network__helpers.html#gae4d15b8e0c61c88d94c8f342bd2014fc" target="_top" xlink:title="Take a UNID/endpoint combination and returns its attribute store node.">
<polygon fill="none" stroke="black" points="350.5,-274.5 350.5,-304.5 485.5,-304.5 485.5,-274.5 350.5,-274.5"/>
<text text-anchor="start" x="358.5" y="-292.5" font-family="Helvetica,sans-Serif" font-size="10.00">attribute_store_network</text>
<text text-anchor="middle" x="418" y="-281.5" font-family="Helvetica,sans-Serif" font-size="10.00">_helper_get_endpoint_node</text>
</a>
</g>
</g>
<!-- Node7&#45;&gt;Node8 -->
<g id="edge7" class="edge">
<title>Node7&#45;&gt;Node8</title>
<path fill="none" stroke="midnightblue" d="M293.25,-259.91C309.54,-263.8 327.36,-268.06 344.26,-272.11"/>
<polygon fill="midnightblue" stroke="midnightblue" points="343.55,-275.53 354.09,-274.46 345.18,-268.73 343.55,-275.53"/>
</g>
<!-- Node13 -->
<g id="node13" class="node">
<title>Node13</title>
<g id="a_node13"><a xlink:href="group__zwave__unid.html#ga421deceb8a12916f049e4f3446774439" target="_top" xlink:title="Form a UNID.">
<polygon fill="none" stroke="black" points="352,-236 352,-255 484,-255 484,-236 352,-236"/>
<text text-anchor="middle" x="418" y="-243" font-family="Helvetica,sans-Serif" font-size="10.00">zwave_unid_from_node_id</text>
</a>
</g>
</g>
<!-- Node7&#45;&gt;Node13 -->
<g id="edge12" class="edge">
<title>Node7&#45;&gt;Node13</title>
<path fill="none" stroke="midnightblue" d="M293.25,-245.5C308.64,-245.5 325.38,-245.5 341.43,-245.5"/>
<polygon fill="midnightblue" stroke="midnightblue" points="341.86,-249 351.86,-245.5 341.86,-242 341.86,-249"/>
</g>
<!-- Node9 -->
<g id="node9" class="node">
<title>Node9</title>
<g id="a_node9"><a xlink:href="group__zpc__attribute__store__network__helpers.html#gafb993ff484b3c826743c4695d6659cf0" target="_top" xlink:title="Take a UNID and return its attribute store node representing the NodeID.">
<polygon fill="none" stroke="black" points="537,-274.5 537,-304.5 669,-304.5 669,-274.5 537,-274.5"/>
<text text-anchor="start" x="545" y="-292.5" font-family="Helvetica,sans-Serif" font-size="10.00">attribute_store_network</text>
<text text-anchor="middle" x="603" y="-281.5" font-family="Helvetica,sans-Serif" font-size="10.00">_helper_get_node_id_node</text>
</a>
</g>
</g>
<!-- Node8&#45;&gt;Node9 -->
<g id="edge8" class="edge">
<title>Node8&#45;&gt;Node9</title>
<path fill="none" stroke="midnightblue" d="M485.58,-289.5C498.94,-289.5 513.06,-289.5 526.69,-289.5"/>
<polygon fill="midnightblue" stroke="midnightblue" points="526.99,-293 536.99,-289.5 526.99,-286 526.99,-293"/>
</g>
<!-- Node10 -->
<g id="node10" class="node">
<title>Node10</title>
<g id="a_node10"><a xlink:href="group__zpc__attribute__store__network__helpers.html#ga05cb572c96f7dc8e6657f86e135fafed" target="_top" xlink:title="Take a UNID and return its attribute store node representing the HomeID.">
<polygon fill="none" stroke="black" points="712,-296.5 712,-326.5 847,-326.5 847,-296.5 712,-296.5"/>
<text text-anchor="start" x="720" y="-314.5" font-family="Helvetica,sans-Serif" font-size="10.00">attribute_store_network</text>
<text text-anchor="middle" x="779.5" y="-303.5" font-family="Helvetica,sans-Serif" font-size="10.00">_helper_get_home_id_node</text>
</a>
</g>
</g>
<!-- Node9&#45;&gt;Node10 -->
<g id="edge9" class="edge">
<title>Node9&#45;&gt;Node10</title>
<path fill="none" stroke="midnightblue" d="M669.47,-297.75C679.95,-299.08 690.88,-300.45 701.6,-301.8"/>
<polygon fill="midnightblue" stroke="midnightblue" points="701.43,-305.31 711.79,-303.09 702.3,-298.37 701.43,-305.31"/>
</g>
<!-- Node12 -->
<g id="node12" class="node">
<title>Node12</title>
<g id="a_node12"><a xlink:href="group__zwave__unid.html#ga76885767debd174e96e6df00b0a368c3" target="_top" xlink:title="Convert a UNID to a node ID.">
<polygon fill="none" stroke="black" points="719,-258 719,-277 840,-277 840,-258 719,-258"/>
<text text-anchor="middle" x="779.5" y="-265" font-family="Helvetica,sans-Serif" font-size="10.00">zwave_unid_to_node_id</text>
</a>
</g>
</g>
<!-- Node9&#45;&gt;Node12 -->
<g id="edge11" class="edge">
<title>Node9&#45;&gt;Node12</title>
<path fill="none" stroke="midnightblue" d="M669.47,-281.25C682.29,-279.63 695.78,-277.93 708.74,-276.3"/>
<polygon fill="midnightblue" stroke="midnightblue" points="709.5,-279.73 718.99,-275 708.63,-272.78 709.5,-279.73"/>
</g>
<!-- Node11 -->
<g id="node11" class="node">
<title>Node11</title>
<g id="a_node11"><a xlink:href="group__zwave__unid.html#ga92f9808a08c2ce1c0a6a9dc2debf3580" target="_top" xlink:title="Convert a UNID to a Home ID.">
<polygon fill="none" stroke="black" points="883,-302 883,-321 1007,-321 1007,-302 883,-302"/>
<text text-anchor="middle" x="945" y="-309" font-family="Helvetica,sans-Serif" font-size="10.00">zwave_unid_to_home_id</text>
</a>
</g>
</g>
<!-- Node10&#45;&gt;Node11 -->
<g id="edge10" class="edge">
<title>Node10&#45;&gt;Node11</title>
<path fill="none" stroke="midnightblue" d="M847,-311.5C855.42,-311.5 864.07,-311.5 872.57,-311.5"/>
<polygon fill="midnightblue" stroke="midnightblue" points="872.83,-315 882.83,-311.5 872.83,-308 872.83,-315"/>
</g>
<!-- Node15 -->
<g id="node15" class="node">
<title>Node15</title>
<g id="a_node15"><a xlink:href="zwave__command__class__granted__keys__resolver_8c.html#a89837c6f52ad963a8943085fec4afa5d" target="_top" xlink:title="Remove some discovery combinations if we know the protocol.">
<polygon fill="none" stroke="black" points="342,-0.5 342,-30.5 494,-30.5 494,-0.5 342,-0.5"/>
<text text-anchor="start" x="350" y="-18.5" font-family="Helvetica,sans-Serif" font-size="10.00">exclude_combinations</text>
<text text-anchor="middle" x="418" y="-7.5" font-family="Helvetica,sans-Serif" font-size="10.00">_with_protocol_from_discovery</text>
</a>
</g>
</g>
<!-- Node14&#45;&gt;Node15 -->
<g id="edge14" class="edge">
<title>Node14&#45;&gt;Node15</title>
<path fill="none" stroke="midnightblue" d="M293.25,-48.46C311.72,-43.54 332.15,-38.1 350.98,-33.08"/>
<polygon fill="midnightblue" stroke="midnightblue" points="351.91,-36.46 360.67,-30.5 350.11,-29.69 351.91,-36.46"/>
</g>
<!-- Node17 -->
<g id="node17" class="node">
<title>Node17</title>
<g id="a_node17"><a xlink:href="group__zwave__controller__keyset.html#gad06107f2d1f4698eb96817423dc98d74" target="_top" xlink:title="Get the Z&#45;Wave Key used for a given encapsulation.">
<polygon fill="none" stroke="black" points="354,-49.5 354,-79.5 482,-79.5 482,-49.5 354,-49.5"/>
<text text-anchor="start" x="362" y="-67.5" font-family="Helvetica,sans-Serif" font-size="10.00">zwave_controller_get</text>
<text text-anchor="middle" x="418" y="-56.5" font-family="Helvetica,sans-Serif" font-size="10.00">_key_from_encapsulation</text>
</a>
</g>
</g>
<!-- Node14&#45;&gt;Node17 -->
<g id="edge16" class="edge">
<title>Node14&#45;&gt;Node17</title>
<path fill="none" stroke="midnightblue" d="M293.25,-64.5C309.31,-64.5 326.83,-64.5 343.51,-64.5"/>
<polygon fill="midnightblue" stroke="midnightblue" points="343.77,-68 353.77,-64.5 343.77,-61 343.77,-68"/>
</g>
<!-- Node16 -->
<g id="node16" class="node">
<title>Node16</title>
<g id="a_node16"><a xlink:href="group__zpc__attribute__store__network__helpers.html#ga1148a8bb5e8a4630bf6d6f5361f17770" target="_top" xlink:title="Returns the Attribute Store node for Endpoint 0, under a NodeID node.">
<polygon fill="none" stroke="black" points="554,-0.5 554,-30.5 652,-30.5 652,-0.5 554,-0.5"/>
<text text-anchor="start" x="562" y="-18.5" font-family="Helvetica,sans-Serif" font-size="10.00">attribute_store_get</text>
<text text-anchor="middle" x="603" y="-7.5" font-family="Helvetica,sans-Serif" font-size="10.00">_endpoint_0_node</text>
</a>
</g>
</g>
<!-- Node15&#45;&gt;Node16 -->
<g id="edge15" class="edge">
<title>Node15&#45;&gt;Node16</title>
<path fill="none" stroke="midnightblue" d="M494.23,-15.5C510.72,-15.5 527.95,-15.5 543.67,-15.5"/>
<polygon fill="midnightblue" stroke="midnightblue" points="543.75,-19 553.75,-15.5 543.75,-12 543.75,-19"/>
</g>
<!-- Node18&#45;&gt;Node3 -->
<g id="edge18" class="edge">
<title>Node18&#45;&gt;Node3</title>
<path fill="none" stroke="midnightblue" d="M306.25,-141.06C320.07,-142.49 334.47,-143.98 348.15,-145.39"/>
<polygon fill="midnightblue" stroke="midnightblue" points="348.13,-148.91 358.44,-146.45 348.85,-141.94 348.13,-148.91"/>
</g>
<!-- Node18&#45;&gt;Node5 -->
<g id="edge19" class="edge">
<title>Node18&#45;&gt;Node5</title>
<path fill="none" stroke="midnightblue" d="M306.27,-128.91C318.21,-128.32 330.44,-127.82 342,-127.5 409.53,-125.64 426.45,-126.56 494,-127.5 505.24,-127.66 517.14,-127.9 528.77,-128.19"/>
<polygon fill="midnightblue" stroke="midnightblue" points="528.81,-131.69 538.9,-128.45 529,-124.7 528.81,-131.69"/>
</g>
</g>
</svg>
