<?xml version="1.0" encoding="UTF-8" standalone="no"?>
<!DOCTYPE svg PUBLIC "-//W3C//DTD SVG 1.1//EN"
 "http://www.w3.org/Graphics/SVG/1.1/DTD/svg11.dtd">
<!-- Generated by graphviz version 2.43.0 (0)
 -->
<!-- Title: get_associated_setpoint_type Pages: 1 -->
<svg width="529pt" height="149pt"
 viewBox="0.00 0.00 529.00 148.50" xmlns="http://www.w3.org/2000/svg" xmlns:xlink="http://www.w3.org/1999/xlink">
<g id="graph0" class="graph" transform="scale(1 1) rotate(0) translate(4 144.5)">
<title>get_associated_setpoint_type</title>
<!-- Node1 -->
<g id="node1" class="node">
<title>Node1</title>
<g id="a_node1"><a xlink:title=" ">
<polygon fill="#bfbfbf" stroke="black" points="375,-55 375,-74 521,-74 521,-55 375,-55"/>
<text text-anchor="middle" x="448" y="-62" font-family="Helvetica,sans-Serif" font-size="10.00">get_associated_setpoint_type</text>
</a>
</g>
</g>
<!-- Node2 -->
<g id="node2" class="node">
<title>Node2</title>
<g id="a_node2"><a xlink:href="zwave__command__class__humidity__control__setpoint_8c.html#a8fd407c37af22f32231258bbbf7e5fdc" target="_top" xlink:title=" ">
<polygon fill="none" stroke="black" points="196.5,-99 196.5,-140 329.5,-140 329.5,-99 196.5,-99"/>
<text text-anchor="start" x="204.5" y="-128" font-family="Helvetica,sans-Serif" font-size="10.00">zwave_command_class</text>
<text text-anchor="start" x="204.5" y="-117" font-family="Helvetica,sans-Serif" font-size="10.00">_humidity_control_setpoint</text>
<text text-anchor="middle" x="263" y="-106" font-family="Helvetica,sans-Serif" font-size="10.00">_capabilities_get</text>
</a>
</g>
</g>
<!-- Node1&#45;&gt;Node2 -->
<g id="edge1" class="edge">
<title>Node1&#45;&gt;Node2</title>
<path fill="none" stroke="midnightblue" d="M405.28,-77.04C382.9,-83.76 354.82,-92.2 329.6,-99.78"/>
<polygon fill="midnightblue" stroke="midnightblue" points="406.55,-80.31 415.12,-74.08 404.54,-73.61 406.55,-80.31"/>
</g>
<!-- Node4 -->
<g id="node4" class="node">
<title>Node4</title>
<g id="a_node4"><a xlink:href="zwave__command__class__humidity__control__setpoint_8c.html#afc25c5f7a806d9441c466aa7b4228ea5" target="_top" xlink:title=" ">
<polygon fill="none" stroke="black" points="187,-49.5 187,-79.5 339,-79.5 339,-49.5 187,-49.5"/>
<text text-anchor="start" x="195" y="-67.5" font-family="Helvetica,sans-Serif" font-size="10.00">zwave_command_class</text>
<text text-anchor="middle" x="263" y="-56.5" font-family="Helvetica,sans-Serif" font-size="10.00">_humidity_control_setpoint_get</text>
</a>
</g>
</g>
<!-- Node1&#45;&gt;Node4 -->
<g id="edge3" class="edge">
<title>Node1&#45;&gt;Node4</title>
<path fill="none" stroke="midnightblue" d="M364.89,-64.5C356.27,-64.5 347.54,-64.5 339.01,-64.5"/>
<polygon fill="midnightblue" stroke="midnightblue" points="364.94,-68 374.94,-64.5 364.94,-61 364.94,-68"/>
</g>
<!-- Node5 -->
<g id="node5" class="node">
<title>Node5</title>
<g id="a_node5"><a xlink:href="zwave__command__class__humidity__control__setpoint_8c.html#a5e0a7b0a327c064542e438d7021ea4fc" target="_top" xlink:title=" ">
<polygon fill="none" stroke="black" points="187,-0.5 187,-30.5 339,-30.5 339,-0.5 187,-0.5"/>
<text text-anchor="start" x="195" y="-18.5" font-family="Helvetica,sans-Serif" font-size="10.00">zwave_command_class</text>
<text text-anchor="middle" x="263" y="-7.5" font-family="Helvetica,sans-Serif" font-size="10.00">_humidity_control_setpoint_set</text>
</a>
</g>
</g>
<!-- Node1&#45;&gt;Node5 -->
<g id="edge5" class="edge">
<title>Node1&#45;&gt;Node5</title>
<path fill="none" stroke="midnightblue" d="M401.48,-52.31C376.86,-45.72 346.24,-37.52 320.16,-30.54"/>
<polygon fill="midnightblue" stroke="midnightblue" points="400.72,-55.73 411.28,-54.94 402.53,-48.97 400.72,-55.73"/>
</g>
<!-- Node3 -->
<g id="node3" class="node">
<title>Node3</title>
<g id="a_node3"><a xlink:href="group__zwave__command__class__humidity__control__setpoint.html#ga4abb01b3b103b452e9d967c16c521f24" target="_top" xlink:title=" ">
<polygon fill="none" stroke="black" points="0,-49.5 0,-79.5 151,-79.5 151,-49.5 0,-49.5"/>
<text text-anchor="start" x="8" y="-67.5" font-family="Helvetica,sans-Serif" font-size="10.00">zwave_command_class</text>
<text text-anchor="middle" x="75.5" y="-56.5" font-family="Helvetica,sans-Serif" font-size="10.00">_humidity_control_setpoint_init</text>
</a>
</g>
</g>
<!-- Node2&#45;&gt;Node3 -->
<g id="edge2" class="edge">
<title>Node2&#45;&gt;Node3</title>
<path fill="none" stroke="midnightblue" d="M186.63,-97.15C166.63,-91.22 145.52,-84.96 127.19,-79.53"/>
<polygon fill="midnightblue" stroke="midnightblue" points="185.76,-100.54 196.34,-100.03 187.75,-93.83 185.76,-100.54"/>
</g>
<!-- Node4&#45;&gt;Node3 -->
<g id="edge4" class="edge">
<title>Node4&#45;&gt;Node3</title>
<path fill="none" stroke="midnightblue" d="M176.55,-64.5C168.08,-64.5 159.53,-64.5 151.19,-64.5"/>
<polygon fill="midnightblue" stroke="midnightblue" points="176.82,-68 186.82,-64.5 176.82,-61 176.82,-68"/>
</g>
<!-- Node5&#45;&gt;Node3 -->
<g id="edge6" class="edge">
<title>Node5&#45;&gt;Node3</title>
<path fill="none" stroke="midnightblue" d="M195.28,-33.12C174.99,-38.48 152.89,-44.32 133.31,-49.49"/>
<polygon fill="midnightblue" stroke="midnightblue" points="196.31,-36.47 205.08,-30.53 194.52,-29.7 196.31,-36.47"/>
</g>
</g>
</svg>
