<?xml version="1.0" encoding="UTF-8" standalone="no"?>
<!DOCTYPE svg PUBLIC "-//W3C//DTD SVG 1.1//EN"
 "http://www.w3.org/Graphics/SVG/1.1/DTD/svg11.dtd">
<!-- Generated by graphviz version 2.43.0 (0)
 -->
<!-- Title: applications/zpc/components/zwave_command_classes/src/zwave_command_class_association_internals.h Pages: 1 -->
<svg width="1068pt" height="430pt"
 viewBox="0.00 0.00 1068.00 430.00" xmlns="http://www.w3.org/2000/svg" xmlns:xlink="http://www.w3.org/1999/xlink">
<g id="graph0" class="graph" transform="scale(1 1) rotate(0) translate(4 426)">
<title>applications/zpc/components/zwave_command_classes/src/zwave_command_class_association_internals.h</title>
<!-- Node1 -->
<g id="node1" class="node">
<title>Node1</title>
<g id="a_node1"><a xlink:title=" ">
<polygon fill="#bfbfbf" stroke="black" points="881,-369.5 881,-421.5 1060,-421.5 1060,-369.5 881,-369.5"/>
<text text-anchor="start" x="889" y="-409.5" font-family="Helvetica,sans-Serif" font-size="10.00">applications/zpc/components</text>
<text text-anchor="start" x="889" y="-398.5" font-family="Helvetica,sans-Serif" font-size="10.00">/zwave_command_classes/src</text>
<text text-anchor="start" x="889" y="-387.5" font-family="Helvetica,sans-Serif" font-size="10.00">/zwave_command_class_association</text>
<text text-anchor="middle" x="970.5" y="-376.5" font-family="Helvetica,sans-Serif" font-size="10.00">_internals.h</text>
</a>
</g>
</g>
<!-- Node2 -->
<g id="node2" class="node">
<title>Node2</title>
<g id="a_node2"><a xlink:href="sl__status_8h.html" target="_top" xlink:title="SL Status Codes.">
<polygon fill="none" stroke="black" points="0,-252 0,-271 65,-271 65,-252 0,-252"/>
<text text-anchor="middle" x="32.5" y="-259" font-family="Helvetica,sans-Serif" font-size="10.00">sl_status.h</text>
</a>
</g>
</g>
<!-- Node1&#45;&gt;Node2 -->
<g id="edge1" class="edge">
<title>Node1&#45;&gt;Node2</title>
<path fill="none" stroke="midnightblue" d="M880.8,-387.69C719.17,-374.32 368.92,-340.26 79.5,-277 75.58,-276.14 71.51,-275.11 67.48,-274"/>
<polygon fill="midnightblue" stroke="midnightblue" points="68.24,-270.57 57.66,-271.12 66.27,-277.29 68.24,-270.57"/>
</g>
<!-- Node4 -->
<g id="node4" class="node">
<title>Node4</title>
<g id="a_node4"><a xlink:href="zwave__utils_8h.html" target="_top" xlink:title="Various Z&#45;Wave related utilities.">
<polygon fill="none" stroke="black" points="516,-313.5 516,-332.5 593,-332.5 593,-313.5 516,-313.5"/>
<text text-anchor="middle" x="554.5" y="-320.5" font-family="Helvetica,sans-Serif" font-size="10.00">zwave_utils.h</text>
</a>
</g>
</g>
<!-- Node1&#45;&gt;Node4 -->
<g id="edge3" class="edge">
<title>Node1&#45;&gt;Node4</title>
<path fill="none" stroke="midnightblue" d="M880.75,-379.29C795.66,-364.87 671.05,-343.75 603.1,-332.24"/>
<polygon fill="midnightblue" stroke="midnightblue" points="603.54,-328.76 593.1,-330.54 602.37,-335.66 603.54,-328.76"/>
</g>
<!-- Node10 -->
<g id="node10" class="node">
<title>Node10</title>
<g id="a_node10"><a xlink:href="zwave__controller__types_8h.html" target="_top" xlink:title=" ">
<polygon fill="none" stroke="black" points="608.5,-118 608.5,-137 736.5,-137 736.5,-118 608.5,-118"/>
<text text-anchor="middle" x="672.5" y="-125" font-family="Helvetica,sans-Serif" font-size="10.00">zwave_controller_types.h</text>
</a>
</g>
</g>
<!-- Node1&#45;&gt;Node10 -->
<g id="edge31" class="edge">
<title>Node1&#45;&gt;Node10</title>
<path fill="none" stroke="midnightblue" d="M976.96,-369.42C986.77,-324.88 999.61,-231.71 951.5,-179 924.6,-149.53 819.87,-137.13 746.68,-132"/>
<polygon fill="midnightblue" stroke="midnightblue" points="746.79,-128.5 736.58,-131.33 746.32,-135.49 746.79,-128.5"/>
</g>
<!-- Node17 -->
<g id="node17" class="node">
<title>Node17</title>
<g id="a_node17"><a xlink:title=" ">
<polygon fill="none" stroke="#bfbfbf" points="855,-185 855,-204 942,-204 942,-185 855,-185"/>
<text text-anchor="middle" x="898.5" y="-192" font-family="Helvetica,sans-Serif" font-size="10.00">attribute_store.h</text>
</a>
</g>
</g>
<!-- Node1&#45;&gt;Node17 -->
<g id="edge34" class="edge">
<title>Node1&#45;&gt;Node17</title>
<path fill="none" stroke="midnightblue" d="M961.38,-369.3C946.7,-328.73 918.18,-249.88 905.21,-214.04"/>
<polygon fill="midnightblue" stroke="midnightblue" points="908.41,-212.6 901.71,-204.38 901.83,-214.98 908.41,-212.6"/>
</g>
<!-- Node20 -->
<g id="node20" class="node">
<title>Node20</title>
<g id="a_node20"><a xlink:href="zwave__command__class__association__types_8h.html" target="_top" xlink:title=" ">
<polygon fill="none" stroke="black" points="896.5,-112.5 896.5,-142.5 1018.5,-142.5 1018.5,-112.5 896.5,-112.5"/>
<text text-anchor="start" x="904.5" y="-130.5" font-family="Helvetica,sans-Serif" font-size="10.00">zwave_command_class</text>
<text text-anchor="middle" x="957.5" y="-119.5" font-family="Helvetica,sans-Serif" font-size="10.00">_association_types.h</text>
</a>
</g>
</g>
<!-- Node1&#45;&gt;Node20 -->
<g id="edge32" class="edge">
<title>Node1&#45;&gt;Node20</title>
<path fill="none" stroke="midnightblue" d="M998.71,-369.35C1008.16,-359.12 1017.55,-346.52 1022.5,-333 1046.03,-268.73 1052.59,-240.48 1022.5,-179 1016.39,-166.52 1005.55,-156.24 994.45,-148.28"/>
<polygon fill="midnightblue" stroke="midnightblue" points="996.25,-145.28 985.98,-142.65 992.37,-151.1 996.25,-145.28"/>
</g>
<!-- Node3 -->
<g id="node3" class="node">
<title>Node3</title>
<g id="a_node3"><a xlink:title=" ">
<polygon fill="none" stroke="#bfbfbf" points="295,-0.5 295,-19.5 344,-19.5 344,-0.5 295,-0.5"/>
<text text-anchor="middle" x="319.5" y="-7.5" font-family="Helvetica,sans-Serif" font-size="10.00">stdint.h</text>
</a>
</g>
</g>
<!-- Node2&#45;&gt;Node3 -->
<g id="edge2" class="edge">
<title>Node2&#45;&gt;Node3</title>
<path fill="none" stroke="midnightblue" d="M31.51,-251.96C28.41,-220.62 22.22,-111 79.5,-56 108.42,-28.23 225.62,-16.93 284.86,-12.92"/>
<polygon fill="midnightblue" stroke="midnightblue" points="285.12,-16.41 294.87,-12.28 284.67,-9.43 285.12,-16.41"/>
</g>
<!-- Node4&#45;&gt;Node2 -->
<g id="edge6" class="edge">
<title>Node4&#45;&gt;Node2</title>
<path fill="none" stroke="midnightblue" d="M515.94,-321.02C434.55,-318.36 239.53,-308.92 79.5,-277 75.35,-276.17 71.06,-275.12 66.82,-273.97"/>
<polygon fill="midnightblue" stroke="midnightblue" points="67.72,-270.59 57.14,-271.14 65.75,-277.3 67.72,-270.59"/>
</g>
<!-- Node4&#45;&gt;Node3 -->
<g id="edge4" class="edge">
<title>Node4&#45;&gt;Node3</title>
<path fill="none" stroke="midnightblue" d="M515.8,-319.79C418.95,-313.96 171.57,-297.27 140.5,-277 105.48,-254.16 93.5,-237.31 93.5,-195.5 93.5,-195.5 93.5,-195.5 93.5,-126.5 93.5,-41.74 221.12,-19.14 284.56,-13.15"/>
<polygon fill="midnightblue" stroke="midnightblue" points="285.22,-16.61 294.88,-12.27 284.62,-9.63 285.22,-16.61"/>
</g>
<!-- Node5 -->
<g id="node5" class="node">
<title>Node5</title>
<g id="a_node5"><a xlink:title=" ">
<polygon fill="none" stroke="#bfbfbf" points="720.5,-0.5 720.5,-19.5 776.5,-19.5 776.5,-0.5 720.5,-0.5"/>
<text text-anchor="middle" x="748.5" y="-7.5" font-family="Helvetica,sans-Serif" font-size="10.00">stdbool.h</text>
</a>
</g>
</g>
<!-- Node4&#45;&gt;Node5 -->
<g id="edge5" class="edge">
<title>Node4&#45;&gt;Node5</title>
<path fill="none" stroke="midnightblue" d="M593.11,-320.36C709.09,-314.39 1046.5,-288.99 1046.5,-195.5 1046.5,-195.5 1046.5,-195.5 1046.5,-126.5 1046.5,-71.41 867.18,-32.29 786.75,-17.51"/>
<polygon fill="midnightblue" stroke="midnightblue" points="787,-14 776.54,-15.67 785.75,-20.89 787,-14"/>
</g>
<!-- Node6 -->
<g id="node6" class="node">
<title>Node6</title>
<g id="a_node6"><a xlink:href="zwave__generic__types_8h.html" target="_top" xlink:title=" ">
<polygon fill="none" stroke="black" points="389,-56.5 389,-75.5 508,-75.5 508,-56.5 389,-56.5"/>
<text text-anchor="middle" x="448.5" y="-63.5" font-family="Helvetica,sans-Serif" font-size="10.00">zwave_generic_types.h</text>
</a>
</g>
</g>
<!-- Node4&#45;&gt;Node6 -->
<g id="edge7" class="edge">
<title>Node4&#45;&gt;Node6</title>
<path fill="none" stroke="midnightblue" d="M562.69,-313.27C575.72,-298.3 598.15,-267.3 582.5,-246 550.79,-202.84 501.99,-250.97 467.5,-210 437.61,-174.49 441.04,-115.45 445.21,-85.56"/>
<polygon fill="midnightblue" stroke="midnightblue" points="448.67,-86.06 446.78,-75.64 441.76,-84.97 448.67,-86.06"/>
</g>
<!-- Node7 -->
<g id="node7" class="node">
<title>Node7</title>
<g id="a_node7"><a xlink:href="zwave__node__id__definitions_8h.html" target="_top" xlink:title=" ">
<polygon fill="none" stroke="black" points="787.5,-56.5 787.5,-75.5 929.5,-75.5 929.5,-56.5 787.5,-56.5"/>
<text text-anchor="middle" x="858.5" y="-63.5" font-family="Helvetica,sans-Serif" font-size="10.00">zwave_node_id_definitions.h</text>
</a>
</g>
</g>
<!-- Node4&#45;&gt;Node7 -->
<g id="edge9" class="edge">
<title>Node4&#45;&gt;Node7</title>
<path fill="none" stroke="midnightblue" d="M593.05,-317.45C684.84,-305.7 911.68,-270.91 951.5,-210 959.04,-198.47 958.46,-190.89 951.5,-179 935.02,-150.83 908.81,-167.72 887.5,-143 873.41,-126.66 865.81,-102.76 861.97,-86.14"/>
<polygon fill="midnightblue" stroke="midnightblue" points="865.33,-85.07 859.88,-75.98 858.47,-86.48 865.33,-85.07"/>
</g>
<!-- Node8 -->
<g id="node8" class="node">
<title>Node8</title>
<g id="a_node8"><a xlink:href="zwave__controller__keyset_8h.html" target="_top" xlink:title=" ">
<polygon fill="none" stroke="black" points="440,-252 440,-271 573,-271 573,-252 440,-252"/>
<text text-anchor="middle" x="506.5" y="-259" font-family="Helvetica,sans-Serif" font-size="10.00">zwave_controller_keyset.h</text>
</a>
</g>
</g>
<!-- Node4&#45;&gt;Node8 -->
<g id="edge11" class="edge">
<title>Node4&#45;&gt;Node8</title>
<path fill="none" stroke="midnightblue" d="M547.62,-313.48C540.35,-304.46 528.7,-290.02 519.66,-278.81"/>
<polygon fill="midnightblue" stroke="midnightblue" points="522.37,-276.59 513.36,-271.01 516.92,-280.99 522.37,-276.59"/>
</g>
<!-- Node12 -->
<g id="node12" class="node">
<title>Node12</title>
<g id="a_node12"><a xlink:href="zwave__keyset__definitions_8h.html" target="_top" xlink:title=" ">
<polygon fill="none" stroke="black" points="122,-185 122,-204 259,-204 259,-185 122,-185"/>
<text text-anchor="middle" x="190.5" y="-192" font-family="Helvetica,sans-Serif" font-size="10.00">zwave_keyset_definitions.h</text>
</a>
</g>
</g>
<!-- Node4&#45;&gt;Node12 -->
<g id="edge22" class="edge">
<title>Node4&#45;&gt;Node12</title>
<path fill="none" stroke="midnightblue" d="M515.66,-320.56C419.17,-316.6 174.62,-303.95 150.5,-277 133,-257.44 155.18,-228.85 172.83,-211.25"/>
<polygon fill="midnightblue" stroke="midnightblue" points="175.62,-213.43 180.47,-204.01 170.8,-208.35 175.62,-213.43"/>
</g>
<!-- Node13 -->
<g id="node13" class="node">
<title>Node13</title>
<g id="a_node13"><a xlink:href="zwave__command__class__version__types_8h.html" target="_top" xlink:title=" ">
<polygon fill="none" stroke="black" points="159.5,-246.5 159.5,-276.5 281.5,-276.5 281.5,-246.5 159.5,-246.5"/>
<text text-anchor="start" x="167.5" y="-264.5" font-family="Helvetica,sans-Serif" font-size="10.00">zwave_command_class</text>
<text text-anchor="middle" x="220.5" y="-253.5" font-family="Helvetica,sans-Serif" font-size="10.00">_version_types.h</text>
</a>
</g>
</g>
<!-- Node4&#45;&gt;Node13 -->
<g id="edge23" class="edge">
<title>Node4&#45;&gt;Node13</title>
<path fill="none" stroke="midnightblue" d="M515.95,-315.87C466.37,-307.89 377.37,-293.23 291.47,-277.15"/>
<polygon fill="midnightblue" stroke="midnightblue" points="292.03,-273.69 281.56,-275.28 290.74,-280.57 292.03,-273.69"/>
</g>
<!-- Node14 -->
<g id="node14" class="node">
<title>Node14</title>
<g id="a_node14"><a xlink:href="zwave__command__class__wake__up__types_8h.html" target="_top" xlink:title=" ">
<polygon fill="none" stroke="black" points="299.5,-246.5 299.5,-276.5 421.5,-276.5 421.5,-246.5 299.5,-246.5"/>
<text text-anchor="start" x="307.5" y="-264.5" font-family="Helvetica,sans-Serif" font-size="10.00">zwave_command_class</text>
<text text-anchor="middle" x="360.5" y="-253.5" font-family="Helvetica,sans-Serif" font-size="10.00">_wake_up_types.h</text>
</a>
</g>
</g>
<!-- Node4&#45;&gt;Node14 -->
<g id="edge24" class="edge">
<title>Node4&#45;&gt;Node14</title>
<path fill="none" stroke="midnightblue" d="M526.7,-313.48C497.97,-304.66 452.34,-290.67 416.16,-279.57"/>
<polygon fill="midnightblue" stroke="midnightblue" points="416.81,-276.11 406.22,-276.52 414.76,-282.8 416.81,-276.11"/>
</g>
<!-- Node15 -->
<g id="node15" class="node">
<title>Node15</title>
<g id="a_node15"><a xlink:href="attribute__store__defined__attribute__types_8h.html" target="_top" xlink:title=" ">
<polygon fill="none" stroke="black" points="629.5,-246.5 629.5,-276.5 745.5,-276.5 745.5,-246.5 629.5,-246.5"/>
<text text-anchor="start" x="637.5" y="-264.5" font-family="Helvetica,sans-Serif" font-size="10.00">attribute_store_defined</text>
<text text-anchor="middle" x="687.5" y="-253.5" font-family="Helvetica,sans-Serif" font-size="10.00">_attribute_types.h</text>
</a>
</g>
</g>
<!-- Node4&#45;&gt;Node15 -->
<g id="edge25" class="edge">
<title>Node4&#45;&gt;Node15</title>
<path fill="none" stroke="midnightblue" d="M573.56,-313.48C592.58,-304.96 622.41,-291.62 646.78,-280.72"/>
<polygon fill="midnightblue" stroke="midnightblue" points="648.46,-283.8 656.15,-276.52 645.6,-277.41 648.46,-283.8"/>
</g>
<!-- Node4&#45;&gt;Node17 -->
<g id="edge30" class="edge">
<title>Node4&#45;&gt;Node17</title>
<path fill="none" stroke="midnightblue" d="M593.08,-316.76C634.09,-310.41 700.38,-297.88 754.5,-277 800.97,-259.07 850.56,-228.04 877.71,-209.88"/>
<polygon fill="midnightblue" stroke="midnightblue" points="879.71,-212.76 886.03,-204.25 875.78,-206.96 879.71,-212.76"/>
</g>
<!-- Node6&#45;&gt;Node3 -->
<g id="edge8" class="edge">
<title>Node6&#45;&gt;Node3</title>
<path fill="none" stroke="midnightblue" d="M428.06,-56.44C406.83,-47.56 373.4,-33.56 349.25,-23.45"/>
<polygon fill="midnightblue" stroke="midnightblue" points="350.42,-20.15 339.84,-19.52 347.72,-26.61 350.42,-20.15"/>
</g>
<!-- Node7&#45;&gt;Node3 -->
<g id="edge10" class="edge">
<title>Node7&#45;&gt;Node3</title>
<path fill="none" stroke="midnightblue" d="M787.48,-57.88C670.44,-46.16 441.34,-23.21 354.23,-14.48"/>
<polygon fill="midnightblue" stroke="midnightblue" points="354.39,-10.98 344.09,-13.46 353.69,-17.94 354.39,-10.98"/>
</g>
<!-- Node9 -->
<g id="node9" class="node">
<title>Node9</title>
<g id="a_node9"><a xlink:href="zwave__controller__connection__info_8h.html" target="_top" xlink:title=" ">
<polygon fill="none" stroke="black" points="277,-179.5 277,-209.5 420,-209.5 420,-179.5 277,-179.5"/>
<text text-anchor="start" x="285" y="-197.5" font-family="Helvetica,sans-Serif" font-size="10.00">zwave_controller_connection</text>
<text text-anchor="middle" x="348.5" y="-186.5" font-family="Helvetica,sans-Serif" font-size="10.00">_info.h</text>
</a>
</g>
</g>
<!-- Node8&#45;&gt;Node9 -->
<g id="edge12" class="edge">
<title>Node8&#45;&gt;Node9</title>
<path fill="none" stroke="midnightblue" d="M485.52,-251.87C461.81,-242.12 422.56,-225.97 392.14,-213.45"/>
<polygon fill="midnightblue" stroke="midnightblue" points="393.18,-210.1 382.6,-209.53 390.52,-216.57 393.18,-210.1"/>
</g>
<!-- Node8&#45;&gt;Node12 -->
<g id="edge20" class="edge">
<title>Node8&#45;&gt;Node12</title>
<path fill="none" stroke="midnightblue" d="M464.86,-251.94C407.47,-240.13 304.12,-218.87 241.96,-206.09"/>
<polygon fill="midnightblue" stroke="midnightblue" points="242.48,-202.62 231.98,-204.03 241.07,-209.47 242.48,-202.62"/>
</g>
<!-- Node9&#45;&gt;Node10 -->
<g id="edge13" class="edge">
<title>Node9&#45;&gt;Node10</title>
<path fill="none" stroke="midnightblue" d="M418.4,-179.48C479,-167.32 565.34,-150 620.14,-139.01"/>
<polygon fill="midnightblue" stroke="midnightblue" points="620.87,-142.43 629.99,-137.03 619.49,-135.56 620.87,-142.43"/>
</g>
<!-- Node10&#45;&gt;Node3 -->
<g id="edge15" class="edge">
<title>Node10&#45;&gt;Node3</title>
<path fill="none" stroke="midnightblue" d="M656.65,-117.98C629.07,-103.45 570.16,-73.76 517.5,-56 461.54,-37.13 394.03,-23.69 354.05,-16.65"/>
<polygon fill="midnightblue" stroke="midnightblue" points="354.47,-13.17 344.02,-14.92 353.27,-20.07 354.47,-13.17"/>
</g>
<!-- Node10&#45;&gt;Node5 -->
<g id="edge14" class="edge">
<title>Node10&#45;&gt;Node5</title>
<path fill="none" stroke="midnightblue" d="M686.25,-117.72C699.22,-108.74 718.31,-93.64 729.5,-76 738.45,-61.88 743.32,-43.39 745.88,-29.75"/>
<polygon fill="midnightblue" stroke="midnightblue" points="749.38,-30.06 747.53,-19.62 742.47,-28.93 749.38,-30.06"/>
</g>
<!-- Node10&#45;&gt;Node6 -->
<g id="edge17" class="edge">
<title>Node10&#45;&gt;Node6</title>
<path fill="none" stroke="midnightblue" d="M640.41,-117.98C600.9,-107.48 533.72,-89.64 490.24,-78.09"/>
<polygon fill="midnightblue" stroke="midnightblue" points="491.1,-74.69 480.53,-75.51 489.3,-81.46 491.1,-74.69"/>
</g>
<!-- Node10&#45;&gt;Node7 -->
<g id="edge16" class="edge">
<title>Node10&#45;&gt;Node7</title>
<path fill="none" stroke="midnightblue" d="M699.15,-117.98C731.47,-107.64 786.1,-90.16 822.23,-78.6"/>
<polygon fill="midnightblue" stroke="midnightblue" points="823.44,-81.89 831.9,-75.51 821.31,-75.22 823.44,-81.89"/>
</g>
<!-- Node11 -->
<g id="node11" class="node">
<title>Node11</title>
<g id="a_node11"><a xlink:href="zwave__rf__region_8h.html" target="_top" xlink:title=" ">
<polygon fill="none" stroke="black" points="624.5,-56.5 624.5,-75.5 720.5,-75.5 720.5,-56.5 624.5,-56.5"/>
<text text-anchor="middle" x="672.5" y="-63.5" font-family="Helvetica,sans-Serif" font-size="10.00">zwave_rf_region.h</text>
</a>
</g>
</g>
<!-- Node10&#45;&gt;Node11 -->
<g id="edge18" class="edge">
<title>Node10&#45;&gt;Node11</title>
<path fill="none" stroke="midnightblue" d="M672.5,-117.98C672.5,-109.58 672.5,-96.48 672.5,-85.66"/>
<polygon fill="midnightblue" stroke="midnightblue" points="676,-85.51 672.5,-75.51 669,-85.51 676,-85.51"/>
</g>
<!-- Node11&#45;&gt;Node5 -->
<g id="edge19" class="edge">
<title>Node11&#45;&gt;Node5</title>
<path fill="none" stroke="midnightblue" d="M684.71,-56.32C696.28,-48.11 713.88,-35.6 727.66,-25.81"/>
<polygon fill="midnightblue" stroke="midnightblue" points="729.94,-28.48 736.07,-19.83 725.89,-22.77 729.94,-28.48"/>
</g>
<!-- Node12&#45;&gt;Node3 -->
<g id="edge21" class="edge">
<title>Node12&#45;&gt;Node3</title>
<path fill="none" stroke="midnightblue" d="M196.72,-184.7C216.86,-156.21 280.5,-66.18 307.35,-28.18"/>
<polygon fill="midnightblue" stroke="midnightblue" points="310.43,-29.9 313.34,-19.71 304.71,-25.86 310.43,-29.9"/>
</g>
<!-- Node16 -->
<g id="node16" class="node">
<title>Node16</title>
<g id="a_node16"><a xlink:title=" ">
<polygon fill="none" stroke="#bfbfbf" points="748.5,-185 748.5,-204 836.5,-204 836.5,-185 748.5,-185"/>
<text text-anchor="middle" x="792.5" y="-192" font-family="Helvetica,sans-Serif" font-size="10.00">ZW_classcmd.h</text>
</a>
</g>
</g>
<!-- Node15&#45;&gt;Node16 -->
<g id="edge26" class="edge">
<title>Node15&#45;&gt;Node16</title>
<path fill="none" stroke="midnightblue" d="M710.28,-246.4C728.05,-235.39 752.6,-220.2 770.24,-209.28"/>
<polygon fill="midnightblue" stroke="midnightblue" points="772.1,-212.25 778.76,-204.01 768.41,-206.29 772.1,-212.25"/>
</g>
<!-- Node15&#45;&gt;Node17 -->
<g id="edge27" class="edge">
<title>Node15&#45;&gt;Node17</title>
<path fill="none" stroke="midnightblue" d="M733.02,-246.48C771.34,-234.67 825.46,-218 861.24,-206.98"/>
<polygon fill="midnightblue" stroke="midnightblue" points="862.29,-210.32 870.81,-204.03 860.23,-203.63 862.29,-210.32"/>
</g>
<!-- Node18 -->
<g id="node18" class="node">
<title>Node18</title>
<g id="a_node18"><a xlink:title=" ">
<polygon fill="none" stroke="#bfbfbf" points="476.5,-185 476.5,-204 604.5,-204 604.5,-185 476.5,-185"/>
<text text-anchor="middle" x="540.5" y="-192" font-family="Helvetica,sans-Serif" font-size="10.00">uic_attribute_definitions.h</text>
</a>
</g>
</g>
<!-- Node15&#45;&gt;Node18 -->
<g id="edge28" class="edge">
<title>Node15&#45;&gt;Node18</title>
<path fill="none" stroke="midnightblue" d="M655.6,-246.4C629.81,-234.99 593.83,-219.08 568.99,-208.1"/>
<polygon fill="midnightblue" stroke="midnightblue" points="570.3,-204.85 559.74,-204.01 567.47,-211.25 570.3,-204.85"/>
</g>
<!-- Node19 -->
<g id="node19" class="node">
<title>Node19</title>
<g id="a_node19"><a xlink:title=" ">
<polygon fill="none" stroke="#bfbfbf" points="623,-179.5 623,-209.5 730,-209.5 730,-179.5 623,-179.5"/>
<text text-anchor="start" x="631" y="-197.5" font-family="Helvetica,sans-Serif" font-size="10.00">unify_dotdot_defined</text>
<text text-anchor="middle" x="676.5" y="-186.5" font-family="Helvetica,sans-Serif" font-size="10.00">_attribute_types.h</text>
</a>
</g>
</g>
<!-- Node15&#45;&gt;Node19 -->
<g id="edge29" class="edge">
<title>Node15&#45;&gt;Node19</title>
<path fill="none" stroke="midnightblue" d="M685.11,-246.4C683.79,-238.56 682.1,-228.6 680.57,-219.57"/>
<polygon fill="midnightblue" stroke="midnightblue" points="684,-218.85 678.88,-209.58 677.1,-220.02 684,-218.85"/>
</g>
<!-- Node20&#45;&gt;Node7 -->
<g id="edge33" class="edge">
<title>Node20&#45;&gt;Node7</title>
<path fill="none" stroke="midnightblue" d="M934.04,-112.4C918.17,-102.86 897.31,-90.32 881.53,-80.84"/>
<polygon fill="midnightblue" stroke="midnightblue" points="883.28,-77.81 872.91,-75.66 879.67,-83.81 883.28,-77.81"/>
</g>
</g>
</svg>
