<?xml version="1.0" encoding="UTF-8" standalone="no"?>
<!DOCTYPE svg PUBLIC "-//W3C//DTD SVG 1.1//EN"
 "http://www.w3.org/Graphics/SVG/1.1/DTD/svg11.dtd">
<!-- Generated by graphviz version 2.43.0 (0)
 -->
<!-- Title: send_wake_up_no_more Pages: 1 -->
<svg width="497pt" height="286pt"
 viewBox="0.00 0.00 497.00 285.50" xmlns="http://www.w3.org/2000/svg" xmlns:xlink="http://www.w3.org/1999/xlink">
<g id="graph0" class="graph" transform="scale(1 1) rotate(0) translate(4 281.5)">
<title>send_wake_up_no_more</title>
<!-- Node1 -->
<g id="node1" class="node">
<title>Node1</title>
<g id="a_node1"><a xlink:title="Check if we need and send a Wake Up No more command to a node and puts it in the Tx Queue.">
<polygon fill="#bfbfbf" stroke="black" points="0,-117.5 0,-136.5 125,-136.5 125,-117.5 0,-117.5"/>
<text text-anchor="middle" x="62.5" y="-124.5" font-family="Helvetica,sans-Serif" font-size="10.00">send_wake_up_no_more</text>
</a>
</g>
</g>
<!-- Node1&#45;&gt;Node1 -->
<g id="edge1" class="edge">
<title>Node1&#45;&gt;Node1</title>
<path fill="none" stroke="midnightblue" d="M36.3,-136.76C23.55,-145.57 32.29,-155 62.5,-155 82.8,-155 93.4,-150.74 94.31,-145.27"/>
<polygon fill="midnightblue" stroke="midnightblue" points="97.13,-143.18 88.7,-136.76 91.28,-147.03 97.13,-143.18"/>
</g>
<!-- Node2 -->
<g id="node2" class="node">
<title>Node2</title>
<g id="a_node2"><a xlink:href="zwave__command__class__wake__up_8c.html#acc185d175a4ebc31e69cd02437d885dd" target="_top" xlink:title="Verifies if we are the Wake Up destination of a NodeID.">
<polygon fill="none" stroke="black" points="178.5,-247 178.5,-277 289.5,-277 289.5,-247 178.5,-247"/>
<text text-anchor="start" x="186.5" y="-265" font-family="Helvetica,sans-Serif" font-size="10.00">we_are_the_wake_up</text>
<text text-anchor="middle" x="234" y="-254" font-family="Helvetica,sans-Serif" font-size="10.00">_destination</text>
</a>
</g>
</g>
<!-- Node1&#45;&gt;Node2 -->
<g id="edge2" class="edge">
<title>Node1&#45;&gt;Node2</title>
<path fill="none" stroke="midnightblue" d="M69.57,-136.73C83.29,-157.95 118.8,-208.75 161,-237 163.95,-238.97 167.07,-240.81 170.29,-242.51"/>
<polygon fill="midnightblue" stroke="midnightblue" points="169.07,-245.8 179.6,-246.97 172.09,-239.49 169.07,-245.8"/>
</g>
<!-- Node4 -->
<g id="node4" class="node">
<title>Node4</title>
<g id="a_node4"><a xlink:href="group__zwave__network__management.html#ga38921e3a42a10fc5135615b50f0573cd" target="_top" xlink:title="Checks if the protocol may be sending some frames to a particular NodeID.">
<polygon fill="none" stroke="black" points="161,-186.5 161,-227.5 307,-227.5 307,-186.5 161,-186.5"/>
<text text-anchor="start" x="169" y="-215.5" font-family="Helvetica,sans-Serif" font-size="10.00">zwave_network_management</text>
<text text-anchor="start" x="169" y="-204.5" font-family="Helvetica,sans-Serif" font-size="10.00">_is_protocol_sending_frames</text>
<text text-anchor="middle" x="234" y="-193.5" font-family="Helvetica,sans-Serif" font-size="10.00">_to_node</text>
</a>
</g>
</g>
<!-- Node1&#45;&gt;Node4 -->
<g id="edge4" class="edge">
<title>Node1&#45;&gt;Node4</title>
<path fill="none" stroke="midnightblue" d="M81.26,-136.64C100.64,-147.04 132.7,-163.87 161,-177 164.8,-178.76 168.73,-180.54 172.71,-182.3"/>
<polygon fill="midnightblue" stroke="midnightblue" points="171.47,-185.57 182.04,-186.36 174.27,-179.15 171.47,-185.57"/>
</g>
<!-- Node6 -->
<g id="node6" class="node">
<title>Node6</title>
<g id="a_node6"><a xlink:href="group__zwave__tx.html#gabb799c67f2008618877071e96e2fca77" target="_top" xlink:title="Verifies if we have frames in the queue to send to a NodeID.">
<polygon fill="none" stroke="black" points="176.5,-137 176.5,-167 291.5,-167 291.5,-137 176.5,-137"/>
<text text-anchor="start" x="184.5" y="-155" font-family="Helvetica,sans-Serif" font-size="10.00">zwave_tx_has_frames</text>
<text text-anchor="middle" x="234" y="-144" font-family="Helvetica,sans-Serif" font-size="10.00">_for_node</text>
</a>
</g>
</g>
<!-- Node1&#45;&gt;Node6 -->
<g id="edge6" class="edge">
<title>Node1&#45;&gt;Node6</title>
<path fill="none" stroke="midnightblue" d="M125.17,-136.1C138.52,-138.07 152.7,-140.16 166.24,-142.15"/>
<polygon fill="midnightblue" stroke="midnightblue" points="166.04,-145.66 176.44,-143.66 167.06,-138.74 166.04,-145.66"/>
</g>
<!-- Node7 -->
<g id="node7" class="node">
<title>Node7</title>
<g id="a_node7"><a xlink:href="group__zwave__tx__scheme__selector.html#ga2c884bc863b6f63eac2a074fdde828d8" target="_top" xlink:title="Return a connection info parameters for sending a Z&#45;Wave frame.">
<polygon fill="none" stroke="black" points="175.5,-88 175.5,-118 292.5,-118 292.5,-88 175.5,-88"/>
<text text-anchor="start" x="183.5" y="-106" font-family="Helvetica,sans-Serif" font-size="10.00">zwave_tx_scheme_get</text>
<text text-anchor="middle" x="234" y="-95" font-family="Helvetica,sans-Serif" font-size="10.00">_node_connection_info</text>
</a>
</g>
</g>
<!-- Node1&#45;&gt;Node7 -->
<g id="edge7" class="edge">
<title>Node1&#45;&gt;Node7</title>
<path fill="none" stroke="midnightblue" d="M125.17,-118.27C138.22,-116.42 152.06,-114.46 165.32,-112.58"/>
<polygon fill="midnightblue" stroke="midnightblue" points="165.91,-116.03 175.32,-111.17 164.93,-109.1 165.91,-116.03"/>
</g>
<!-- Node10 -->
<g id="node10" class="node">
<title>Node10</title>
<g id="a_node10"><a xlink:href="group__zwave__tx__scheme__selector.html#ga8f8d4442ddf4c165d5a79b9a25d6420d" target="_top" xlink:title="Define a Z&#45;Wave frame transmission options.">
<polygon fill="none" stroke="black" points="175.5,-39 175.5,-69 292.5,-69 292.5,-39 175.5,-39"/>
<text text-anchor="start" x="183.5" y="-57" font-family="Helvetica,sans-Serif" font-size="10.00">zwave_tx_scheme_get</text>
<text text-anchor="middle" x="234" y="-46" font-family="Helvetica,sans-Serif" font-size="10.00">_node_tx_options</text>
</a>
</g>
</g>
<!-- Node1&#45;&gt;Node10 -->
<g id="edge10" class="edge">
<title>Node1&#45;&gt;Node10</title>
<path fill="none" stroke="midnightblue" d="M80.76,-117.37C99.97,-106.88 132.13,-89.99 161,-78 165.48,-76.14 170.16,-74.32 174.89,-72.56"/>
<polygon fill="midnightblue" stroke="midnightblue" points="176.4,-75.74 184.62,-69.06 174.03,-69.15 176.4,-75.74"/>
</g>
<!-- Node11 -->
<g id="node11" class="node">
<title>Node11</title>
<g id="a_node11"><a xlink:href="group__zwave__tx.html#gad1538f36d226fe8147c5e538625568df" target="_top" xlink:title="Queue and send frames to Z&#45;Wave nodes.">
<polygon fill="none" stroke="black" points="179.5,-0.5 179.5,-19.5 288.5,-19.5 288.5,-0.5 179.5,-0.5"/>
<text text-anchor="middle" x="234" y="-7.5" font-family="Helvetica,sans-Serif" font-size="10.00">zwave_tx_send_data</text>
</a>
</g>
</g>
<!-- Node1&#45;&gt;Node11 -->
<g id="edge11" class="edge">
<title>Node1&#45;&gt;Node11</title>
<path fill="none" stroke="midnightblue" d="M70.34,-117.25C84.74,-97.46 120.25,-52.49 161,-29 164.88,-26.76 169.04,-24.78 173.32,-23.03"/>
<polygon fill="midnightblue" stroke="midnightblue" points="174.64,-26.27 182.83,-19.55 172.23,-19.7 174.64,-26.27"/>
</g>
<!-- Node3 -->
<g id="node3" class="node">
<title>Node3</title>
<g id="a_node3"><a xlink:href="group__zwave__network__management.html#gae265f1e935804f3f0b971755ab0ee61e" target="_top" xlink:title="Get the cached NodeID.">
<polygon fill="none" stroke="black" points="343,-247 343,-277 489,-277 489,-247 343,-247"/>
<text text-anchor="start" x="351" y="-265" font-family="Helvetica,sans-Serif" font-size="10.00">zwave_network_management</text>
<text text-anchor="middle" x="416" y="-254" font-family="Helvetica,sans-Serif" font-size="10.00">_get_node_id</text>
</a>
</g>
</g>
<!-- Node2&#45;&gt;Node3 -->
<g id="edge3" class="edge">
<title>Node2&#45;&gt;Node3</title>
<path fill="none" stroke="midnightblue" d="M289.98,-262C303.38,-262 318,-262 332.37,-262"/>
<polygon fill="midnightblue" stroke="midnightblue" points="332.76,-265.5 342.76,-262 332.76,-258.5 332.76,-265.5"/>
</g>
<!-- Node5 -->
<g id="node5" class="node">
<title>Node5</title>
<g id="a_node5"><a xlink:href="group__zwave__network__management.html#ga90aba971e0bdba90096c533bcd803dc4" target="_top" xlink:title="Checks if we have return routes to assign for a given NodeID.">
<polygon fill="none" stroke="black" points="357,-192 357,-222 475,-222 475,-192 357,-192"/>
<text text-anchor="start" x="365" y="-210" font-family="Helvetica,sans-Serif" font-size="10.00">we_have_return_routes</text>
<text text-anchor="middle" x="416" y="-199" font-family="Helvetica,sans-Serif" font-size="10.00">_to_assign</text>
</a>
</g>
</g>
<!-- Node4&#45;&gt;Node5 -->
<g id="edge5" class="edge">
<title>Node4&#45;&gt;Node5</title>
<path fill="none" stroke="midnightblue" d="M307.18,-207C320.22,-207 333.78,-207 346.71,-207"/>
<polygon fill="midnightblue" stroke="midnightblue" points="346.92,-210.5 356.92,-207 346.92,-203.5 346.92,-210.5"/>
</g>
<!-- Node8 -->
<g id="node8" class="node">
<title>Node8</title>
<g id="a_node8"><a xlink:href="group__zwave__controller__keyset.html#ga43a73c5ae7dc860fa2e5edb9814c432f" target="_top" xlink:title="Get the hight encapsulation supported by a given key set.">
<polygon fill="none" stroke="black" points="356.5,-112 356.5,-142 475.5,-142 475.5,-112 356.5,-112"/>
<text text-anchor="start" x="364.5" y="-130" font-family="Helvetica,sans-Serif" font-size="10.00">zwave_controller_get</text>
<text text-anchor="middle" x="416" y="-119" font-family="Helvetica,sans-Serif" font-size="10.00">_highest_encapsulation</text>
</a>
</g>
</g>
<!-- Node7&#45;&gt;Node8 -->
<g id="edge8" class="edge">
<title>Node7&#45;&gt;Node8</title>
<path fill="none" stroke="midnightblue" d="M292.94,-110.73C309.87,-112.98 328.53,-115.47 346.07,-117.81"/>
<polygon fill="midnightblue" stroke="midnightblue" points="345.86,-121.31 356.24,-119.17 346.79,-114.37 345.86,-121.31"/>
</g>
<!-- Node9 -->
<g id="node9" class="node">
<title>Node9</title>
<g id="a_node9"><a xlink:href="group__zwave__controller__storage.html#ga771d01deff646dfda3f8406d6fbf5736" target="_top" xlink:title="Return the granted keys for a node.">
<polygon fill="none" stroke="black" points="352,-63 352,-93 480,-93 480,-63 352,-63"/>
<text text-anchor="start" x="360" y="-81" font-family="Helvetica,sans-Serif" font-size="10.00">zwave_controller_storage</text>
<text text-anchor="middle" x="416" y="-70" font-family="Helvetica,sans-Serif" font-size="10.00">_get_node_granted_keys</text>
</a>
</g>
</g>
<!-- Node7&#45;&gt;Node9 -->
<g id="edge9" class="edge">
<title>Node7&#45;&gt;Node9</title>
<path fill="none" stroke="midnightblue" d="M292.94,-94.95C308.52,-92.79 325.57,-90.42 341.85,-88.16"/>
<polygon fill="midnightblue" stroke="midnightblue" points="342.45,-91.61 351.87,-86.77 341.49,-84.68 342.45,-91.61"/>
</g>
</g>
</svg>
