<?xml version="1.0" encoding="UTF-8" standalone="no"?>
<!DOCTYPE svg PUBLIC "-//W3C//DTD SVG 1.1//EN"
 "http://www.w3.org/Graphics/SVG/1.1/DTD/svg11.dtd">
<!-- Generated by graphviz version 2.43.0 (0)
 -->
<!-- Title: s0_send_data_callback Pages: 1 -->
<svg width="878pt" height="436pt"
 viewBox="0.00 0.00 878.00 435.86" xmlns="http://www.w3.org/2000/svg" xmlns:xlink="http://www.w3.org/1999/xlink">
<g id="graph0" class="graph" transform="scale(1 1) rotate(0) translate(4 431.86)">
<title>s0_send_data_callback</title>
<!-- Node1 -->
<g id="node1" class="node">
<title>Node1</title>
<g id="a_node1"><a xlink:title=" ">
<polygon fill="#bfbfbf" stroke="black" points="0,-275.36 0,-294.36 119,-294.36 119,-275.36 0,-275.36"/>
<text text-anchor="middle" x="59.5" y="-282.36" font-family="Helvetica,sans-Serif" font-size="10.00">s0_send_data_callback</text>
</a>
</g>
</g>
<!-- Node2 -->
<g id="node2" class="node">
<title>Node2</title>
<g id="a_node2"><a xlink:href="zwave__s0__sm_8c.html#a20cff68208370a488cd06efdfeaaa7cb" target="_top" xlink:title=" ">
<polygon fill="none" stroke="black" points="420,-408.36 420,-427.36 524,-427.36 524,-408.36 420,-408.36"/>
<text text-anchor="middle" x="472" y="-415.36" font-family="Helvetica,sans-Serif" font-size="10.00">s0_incl_state_name</text>
</a>
</g>
</g>
<!-- Node1&#45;&gt;Node2 -->
<g id="edge1" class="edge">
<title>Node1&#45;&gt;Node2</title>
<path fill="none" stroke="midnightblue" d="M80.35,-294.47C115.22,-311.06 190.04,-345.36 256,-366.86 307.27,-383.56 367.05,-397.3 410.54,-406.29"/>
<polygon fill="midnightblue" stroke="midnightblue" points="409.9,-409.73 420.4,-408.3 411.3,-402.87 409.9,-409.73"/>
</g>
<!-- Node3 -->
<g id="node3" class="node">
<title>Node3</title>
<g id="a_node3"><a xlink:href="zwave__s0__sm_8c.html#a84e7be6182bb4e2f919fb2a3733e6ca1" target="_top" xlink:title=" ">
<polygon fill="none" stroke="black" points="256,-256.36 256,-275.36 371,-275.36 371,-256.36 256,-256.36"/>
<text text-anchor="middle" x="313.5" y="-263.36" font-family="Helvetica,sans-Serif" font-size="10.00">s0_sm_process_event</text>
</a>
</g>
</g>
<!-- Node1&#45;&gt;Node3 -->
<g id="edge2" class="edge">
<title>Node1&#45;&gt;Node3</title>
<path fill="none" stroke="midnightblue" d="M119.26,-280.43C157.13,-277.57 206.45,-273.85 245.78,-270.89"/>
<polygon fill="midnightblue" stroke="midnightblue" points="246.1,-274.37 255.81,-270.13 245.58,-267.39 246.1,-274.37"/>
</g>
<!-- Node18 -->
<g id="node18" class="node">
<title>Node18</title>
<g id="a_node18"><a xlink:href="zwave__s0__sm_8c.html#aaf909f4fdf4e6d4d910f4ab30f2e9c21" target="_top" xlink:title=" ">
<polygon fill="none" stroke="black" points="155,-294.36 155,-313.36 220,-313.36 220,-294.36 155,-294.36"/>
<text text-anchor="middle" x="187.5" y="-301.36" font-family="Helvetica,sans-Serif" font-size="10.00">s0_timeout</text>
</a>
</g>
</g>
<!-- Node1&#45;&gt;Node18 -->
<g id="edge25" class="edge">
<title>Node1&#45;&gt;Node18</title>
<path fill="none" stroke="midnightblue" d="M119.07,-293.69C127.75,-295 136.54,-296.32 144.78,-297.57"/>
<polygon fill="midnightblue" stroke="midnightblue" points="144.46,-301.06 154.87,-299.09 145.5,-294.14 144.46,-301.06"/>
</g>
<!-- Node3&#45;&gt;Node2 -->
<g id="edge11" class="edge">
<title>Node3&#45;&gt;Node2</title>
<path fill="none" stroke="midnightblue" d="M322.9,-275.7C334.26,-289.17 354.94,-314.26 371,-336.86 388.35,-361.28 383.76,-374.94 407,-393.86 412.01,-397.94 417.79,-401.37 423.78,-404.24"/>
<polygon fill="midnightblue" stroke="midnightblue" points="422.72,-407.59 433.29,-408.31 425.47,-401.16 422.72,-407.59"/>
</g>
<!-- Node3&#45;&gt;Node3 -->
<g id="edge24" class="edge">
<title>Node3&#45;&gt;Node3</title>
<path fill="none" stroke="midnightblue" d="M294.08,-275.61C284.63,-284.42 291.11,-293.86 313.5,-293.86 327.85,-293.86 335.66,-289.99 336.94,-284.89"/>
<polygon fill="midnightblue" stroke="midnightblue" points="340.11,-283.4 332.92,-275.61 333.68,-286.18 340.11,-283.4"/>
</g>
<!-- Node4 -->
<g id="node4" class="node">
<title>Node4</title>
<g id="a_node4"><a xlink:href="zwave__s2__keystore_8c.html#a1f1d747c23d661a2e64ebb4812ed2faa" target="_top" xlink:title=" ">
<polygon fill="none" stroke="black" points="573,-351.36 573,-370.36 712,-370.36 712,-351.36 573,-351.36"/>
<text text-anchor="middle" x="642.5" y="-358.36" font-family="Helvetica,sans-Serif" font-size="10.00">keystore_network_key_read</text>
</a>
</g>
</g>
<!-- Node3&#45;&gt;Node4 -->
<g id="edge3" class="edge">
<title>Node3&#45;&gt;Node4</title>
<path fill="none" stroke="midnightblue" d="M322.25,-275.55C340.37,-297.9 385.58,-351.82 407,-360.86 465.65,-385.61 540.15,-380.12 589.25,-372.1"/>
<polygon fill="midnightblue" stroke="midnightblue" points="590.07,-375.52 599.33,-370.36 588.88,-368.62 590.07,-375.52"/>
</g>
<!-- Node6 -->
<g id="node6" class="node">
<title>Node6</title>
<g id="a_node6"><a xlink:href="zwave__s0__sm_8c.html#add560d910f441570d80bd78fb591f7f0" target="_top" xlink:title=" ">
<polygon fill="none" stroke="black" points="435.5,-142.36 435.5,-161.36 508.5,-161.36 508.5,-142.36 435.5,-142.36"/>
<text text-anchor="middle" x="472" y="-149.36" font-family="Helvetica,sans-Serif" font-size="10.00">reset_s0_sm</text>
</a>
</g>
</g>
<!-- Node3&#45;&gt;Node6 -->
<g id="edge5" class="edge">
<title>Node3&#45;&gt;Node6</title>
<path fill="none" stroke="midnightblue" d="M321.21,-256.2C335.02,-237.04 368.58,-194.08 407,-170.86 412.8,-167.35 419.29,-164.46 425.84,-162.08"/>
<polygon fill="midnightblue" stroke="midnightblue" points="427.01,-165.38 435.43,-158.95 424.84,-158.72 427.01,-165.38"/>
</g>
<!-- Node7 -->
<g id="node7" class="node">
<title>Node7</title>
<g id="a_node7"><a xlink:href="zwave__s0__sm_8c.html#a5535f6c7a7f108f00512a88bbc3cf015" target="_top" xlink:title=" ">
<polygon fill="none" stroke="black" points="422,-104.36 422,-123.36 522,-123.36 522,-104.36 422,-104.36"/>
<text text-anchor="middle" x="472" y="-111.36" font-family="Helvetica,sans-Serif" font-size="10.00">s0_abort_bootstrap</text>
</a>
</g>
</g>
<!-- Node3&#45;&gt;Node7 -->
<g id="edge6" class="edge">
<title>Node3&#45;&gt;Node7</title>
<path fill="none" stroke="midnightblue" d="M318.49,-256.15C329.07,-231.6 360.27,-166.63 407,-132.86 409.68,-130.92 412.55,-129.18 415.55,-127.62"/>
<polygon fill="midnightblue" stroke="midnightblue" points="417.14,-130.74 424.81,-123.44 414.26,-124.36 417.14,-130.74"/>
</g>
<!-- Node8 -->
<g id="node8" class="node">
<title>Node8</title>
<g id="a_node8"><a xlink:href="zwave__s0__sm_8c.html#ac4a1feff6714dea8c75a7bf410f8e7b3" target="_top" xlink:title=" ">
<polygon fill="none" stroke="black" points="428,-66.36 428,-85.36 516,-85.36 516,-66.36 428,-66.36"/>
<text text-anchor="middle" x="472" y="-73.36" font-family="Helvetica,sans-Serif" font-size="10.00">s0_action_name</text>
</a>
</g>
</g>
<!-- Node3&#45;&gt;Node8 -->
<g id="edge7" class="edge">
<title>Node3&#45;&gt;Node8</title>
<path fill="none" stroke="midnightblue" d="M316.94,-256.02C324.72,-226.8 351.7,-139.74 407,-94.86 410.49,-92.03 414.38,-89.62 418.48,-87.57"/>
<polygon fill="midnightblue" stroke="midnightblue" points="419.89,-90.78 427.72,-83.63 417.14,-84.34 419.89,-90.78"/>
</g>
<!-- Node9 -->
<g id="node9" class="node">
<title>Node9</title>
<g id="a_node9"><a xlink:href="zwave__s0__sm_8c.html#ae7d7875e43e863fb4d53684caa29c328" target="_top" xlink:title=" ">
<polygon fill="none" stroke="black" points="429,-28.36 429,-47.36 515,-47.36 515,-28.36 429,-28.36"/>
<text text-anchor="middle" x="472" y="-35.36" font-family="Helvetica,sans-Serif" font-size="10.00">s0_event_name</text>
</a>
</g>
</g>
<!-- Node3&#45;&gt;Node9 -->
<g id="edge8" class="edge">
<title>Node3&#45;&gt;Node9</title>
<path fill="none" stroke="midnightblue" d="M315.86,-256.29C321.04,-223.34 342.64,-113.46 407,-56.86 410.67,-53.63 414.87,-50.95 419.32,-48.73"/>
<polygon fill="midnightblue" stroke="midnightblue" points="420.86,-51.87 428.72,-44.77 418.14,-45.42 420.86,-51.87"/>
</g>
<!-- Node10 -->
<g id="node10" class="node">
<title>Node10</title>
<g id="a_node10"><a xlink:href="zwave__s0__sm_8c.html#ab4101f12d142bd597954a665c6acc700" target="_top" xlink:title=" ">
<polygon fill="none" stroke="black" points="407,-294.36 407,-313.36 537,-313.36 537,-294.36 407,-294.36"/>
<text text-anchor="middle" x="472" y="-301.36" font-family="Helvetica,sans-Serif" font-size="10.00">s0_handle_net_key_verify</text>
</a>
</g>
</g>
<!-- Node3&#45;&gt;Node10 -->
<g id="edge9" class="edge">
<title>Node3&#45;&gt;Node10</title>
<path fill="none" stroke="midnightblue" d="M371,-273.06C394.71,-278.29 421.31,-285.11 441.12,-291.16"/>
<polygon fill="midnightblue" stroke="midnightblue" points="440.21,-294.55 450.8,-294.25 442.33,-287.88 440.21,-294.55"/>
</g>
<!-- Node11 -->
<g id="node11" class="node">
<title>Node11</title>
<g id="a_node11"><a xlink:href="zwave__s0__sm_8c.html#a18d289e278b9c3e3e7b023fb315bff7e" target="_top" xlink:title=" ">
<polygon fill="none" stroke="black" points="425.5,-332.36 425.5,-351.36 518.5,-351.36 518.5,-332.36 425.5,-332.36"/>
<text text-anchor="middle" x="472" y="-339.36" font-family="Helvetica,sans-Serif" font-size="10.00">s0_send_key_set</text>
</a>
</g>
</g>
<!-- Node3&#45;&gt;Node11 -->
<g id="edge12" class="edge">
<title>Node3&#45;&gt;Node11</title>
<path fill="none" stroke="midnightblue" d="M327.67,-275.53C345.07,-287.94 377.04,-309.46 407,-322.86 412.09,-325.13 417.53,-327.23 423.01,-329.12"/>
<polygon fill="midnightblue" stroke="midnightblue" points="422.24,-332.56 432.84,-332.32 424.41,-325.9 422.24,-332.56"/>
</g>
<!-- Node14 -->
<g id="node14" class="node">
<title>Node14</title>
<g id="a_node14"><a xlink:href="group__zwave__s0__transport.html#ga0751a5b8e725df3e789789230b886395" target="_top" xlink:title="Set the S0 network key.">
<polygon fill="none" stroke="black" points="609,-267.36 609,-286.36 676,-286.36 676,-267.36 609,-267.36"/>
<text text-anchor="middle" x="642.5" y="-274.36" font-family="Helvetica,sans-Serif" font-size="10.00">s0_set_key</text>
</a>
</g>
</g>
<!-- Node3&#45;&gt;Node14 -->
<g id="edge23" class="edge">
<title>Node3&#45;&gt;Node14</title>
<path fill="none" stroke="midnightblue" d="M371.09,-267.76C435.79,-269.94 540.27,-273.45 598.61,-275.42"/>
<polygon fill="midnightblue" stroke="midnightblue" points="598.83,-278.92 608.95,-275.76 599.07,-271.93 598.83,-278.92"/>
</g>
<!-- Node16 -->
<g id="node16" class="node">
<title>Node16</title>
<g id="a_node16"><a xlink:href="zwave__s0__sm_8c.html#aa3efb68081afc5686d48ee8ee23696a1" target="_top" xlink:title=" ">
<polygon fill="none" stroke="black" points="416,-218.36 416,-237.36 528,-237.36 528,-218.36 416,-218.36"/>
<text text-anchor="middle" x="472" y="-225.36" font-family="Helvetica,sans-Serif" font-size="10.00">s0_send_scheme_get</text>
</a>
</g>
</g>
<!-- Node3&#45;&gt;Node16 -->
<g id="edge19" class="edge">
<title>Node3&#45;&gt;Node16</title>
<path fill="none" stroke="midnightblue" d="M353.99,-256.27C374.64,-251.25 400.11,-245.07 422.01,-239.75"/>
<polygon fill="midnightblue" stroke="midnightblue" points="422.9,-243.14 431.79,-237.38 421.25,-236.34 422.9,-243.14"/>
</g>
<!-- Node17 -->
<g id="node17" class="node">
<title>Node17</title>
<g id="a_node17"><a xlink:href="zwave__s0__sm_8c.html#a042415cb1b240d0867977bb22cd4e0a7" target="_top" xlink:title=" ">
<polygon fill="none" stroke="black" points="409.5,-180.36 409.5,-199.36 534.5,-199.36 534.5,-180.36 409.5,-180.36"/>
<text text-anchor="middle" x="472" y="-187.36" font-family="Helvetica,sans-Serif" font-size="10.00">s0_send_scheme_inherit</text>
</a>
</g>
</g>
<!-- Node3&#45;&gt;Node17 -->
<g id="edge21" class="edge">
<title>Node3&#45;&gt;Node17</title>
<path fill="none" stroke="midnightblue" d="M327.67,-256.18C345.07,-243.77 377.04,-222.25 407,-208.86 412.09,-206.58 417.53,-204.49 423.01,-202.59"/>
<polygon fill="midnightblue" stroke="midnightblue" points="424.41,-205.82 432.84,-199.39 422.24,-199.16 424.41,-205.82"/>
</g>
<!-- Node5 -->
<g id="node5" class="node">
<title>Node5</title>
<g id="a_node5"><a xlink:href="group__zwave__s2__keystore.html#ga42cbe7b3856c32fcde78b52c3b0be2ae" target="_top" xlink:title="Get the set of the currently assigned keys.">
<polygon fill="none" stroke="black" points="748,-345.86 748,-375.86 870,-375.86 870,-345.86 748,-345.86"/>
<text text-anchor="start" x="756" y="-363.86" font-family="Helvetica,sans-Serif" font-size="10.00">zwave_s2_keystore_get</text>
<text text-anchor="middle" x="809" y="-352.86" font-family="Helvetica,sans-Serif" font-size="10.00">_assigned_keys</text>
</a>
</g>
</g>
<!-- Node4&#45;&gt;Node5 -->
<g id="edge4" class="edge">
<title>Node4&#45;&gt;Node5</title>
<path fill="none" stroke="midnightblue" d="M712.31,-360.86C720.7,-360.86 729.28,-360.86 737.68,-360.86"/>
<polygon fill="midnightblue" stroke="midnightblue" points="737.83,-364.36 747.83,-360.86 737.83,-357.36 737.83,-364.36"/>
</g>
<!-- Node10&#45;&gt;Node3 -->
<g id="edge10" class="edge">
<title>Node10&#45;&gt;Node3</title>
<path fill="none" stroke="midnightblue" d="M406.96,-294.96C385.29,-290 362.12,-283.97 344.39,-278.56"/>
<polygon fill="midnightblue" stroke="midnightblue" points="345.23,-275.15 334.64,-275.45 343.11,-281.82 345.23,-275.15"/>
</g>
<!-- Node11&#45;&gt;Node4 -->
<g id="edge13" class="edge">
<title>Node11&#45;&gt;Node4</title>
<path fill="none" stroke="midnightblue" d="M518.6,-347C532.14,-348.53 547.38,-350.25 562.41,-351.94"/>
<polygon fill="midnightblue" stroke="midnightblue" points="562.42,-355.46 572.75,-353.11 563.2,-348.51 562.42,-355.46"/>
</g>
<!-- Node12 -->
<g id="node12" class="node">
<title>Node12</title>
<g id="a_node12"><a xlink:href="zwave__s0__sm_8c.html#ad13d142fc4acb596e25c9e0b0afa6b8a" target="_top" xlink:title=" ">
<polygon fill="none" stroke="black" points="588.5,-201.86 588.5,-231.86 696.5,-231.86 696.5,-201.86 588.5,-201.86"/>
<text text-anchor="start" x="596.5" y="-219.86" font-family="Helvetica,sans-Serif" font-size="10.00">s0_bootstrap_frames</text>
<text text-anchor="middle" x="642.5" y="-208.86" font-family="Helvetica,sans-Serif" font-size="10.00">_generic_send</text>
</a>
</g>
</g>
<!-- Node11&#45;&gt;Node12 -->
<g id="edge14" class="edge">
<title>Node11&#45;&gt;Node12</title>
<path fill="none" stroke="midnightblue" d="M518.57,-333.16C525.18,-330.57 531.58,-327.21 537,-322.86 562.74,-302.18 550.04,-281.6 573,-257.86 580.75,-249.85 590.38,-242.83 599.96,-236.96"/>
<polygon fill="midnightblue" stroke="midnightblue" points="601.78,-239.95 608.68,-231.9 598.27,-233.89 601.78,-239.95"/>
</g>
<!-- Node11&#45;&gt;Node14 -->
<g id="edge17" class="edge">
<title>Node11&#45;&gt;Node14</title>
<path fill="none" stroke="midnightblue" d="M508.14,-332.29C517.59,-329.49 527.75,-326.25 537,-322.86 563.03,-313.31 591.8,-300.47 612.56,-290.78"/>
<polygon fill="midnightblue" stroke="midnightblue" points="614.22,-293.86 621.77,-286.44 611.23,-287.53 614.22,-293.86"/>
</g>
<!-- Node12&#45;&gt;Node1 -->
<g id="edge15" class="edge">
<title>Node12&#45;&gt;Node1</title>
<path fill="none" stroke="midnightblue" d="M638.89,-201.6C631.33,-162.72 605.4,-60.1 537,-18.86 487.52,10.98 461.71,-0.28 407,-18.86 255.96,-70.15 119.21,-216.72 75.23,-267.38"/>
<polygon fill="midnightblue" stroke="midnightblue" points="72.4,-265.3 68.54,-275.17 77.71,-269.86 72.4,-265.3"/>
</g>
<!-- Node13 -->
<g id="node13" class="node">
<title>Node13</title>
<g id="a_node13"><a xlink:href="group__zwave__tx.html#gad1538f36d226fe8147c5e538625568df" target="_top" xlink:title="Queue and send frames to Z&#45;Wave nodes.">
<polygon fill="none" stroke="black" points="754.5,-207.36 754.5,-226.36 863.5,-226.36 863.5,-207.36 754.5,-207.36"/>
<text text-anchor="middle" x="809" y="-214.36" font-family="Helvetica,sans-Serif" font-size="10.00">zwave_tx_send_data</text>
</a>
</g>
</g>
<!-- Node12&#45;&gt;Node13 -->
<g id="edge16" class="edge">
<title>Node12&#45;&gt;Node13</title>
<path fill="none" stroke="midnightblue" d="M696.91,-216.86C711.99,-216.86 728.56,-216.86 744.19,-216.86"/>
<polygon fill="midnightblue" stroke="midnightblue" points="744.3,-220.36 754.3,-216.86 744.3,-213.36 744.3,-220.36"/>
</g>
<!-- Node15 -->
<g id="node15" class="node">
<title>Node15</title>
<g id="a_node15"><a xlink:href="zwave__s0__transport_8c.html#a81a1edfa8dd156b07bbe49d8c85095bf" target="_top" xlink:title=" ">
<polygon fill="none" stroke="black" points="774,-267.36 774,-286.36 844,-286.36 844,-267.36 774,-267.36"/>
<text text-anchor="middle" x="809" y="-274.36" font-family="Helvetica,sans-Serif" font-size="10.00">aes_encrypt</text>
</a>
</g>
</g>
<!-- Node14&#45;&gt;Node15 -->
<g id="edge18" class="edge">
<title>Node14&#45;&gt;Node15</title>
<path fill="none" stroke="midnightblue" d="M676.39,-276.86C701.42,-276.86 736.12,-276.86 763.6,-276.86"/>
<polygon fill="midnightblue" stroke="midnightblue" points="763.75,-280.36 773.75,-276.86 763.75,-273.36 763.75,-280.36"/>
</g>
<!-- Node16&#45;&gt;Node12 -->
<g id="edge20" class="edge">
<title>Node16&#45;&gt;Node12</title>
<path fill="none" stroke="midnightblue" d="M528.17,-224.26C544.23,-223.21 561.89,-222.05 578.39,-220.98"/>
<polygon fill="midnightblue" stroke="midnightblue" points="578.75,-224.46 588.5,-220.32 578.29,-217.48 578.75,-224.46"/>
</g>
<!-- Node17&#45;&gt;Node12 -->
<g id="edge22" class="edge">
<title>Node17&#45;&gt;Node12</title>
<path fill="none" stroke="midnightblue" d="M532.41,-199.38C547.19,-201.75 563.09,-204.29 578.06,-206.69"/>
<polygon fill="midnightblue" stroke="midnightblue" points="577.82,-210.2 588.24,-208.32 578.92,-203.29 577.82,-210.2"/>
</g>
<!-- Node18&#45;&gt;Node2 -->
<g id="edge26" class="edge">
<title>Node18&#45;&gt;Node2</title>
<path fill="none" stroke="midnightblue" d="M212.1,-313.38C262.37,-333.67 380.12,-381.18 437.87,-404.49"/>
<polygon fill="midnightblue" stroke="midnightblue" points="436.69,-407.78 447.27,-408.28 439.3,-401.29 436.69,-407.78"/>
</g>
<!-- Node18&#45;&gt;Node3 -->
<g id="edge27" class="edge">
<title>Node18&#45;&gt;Node3</title>
<path fill="none" stroke="midnightblue" d="M219.79,-294.27C235.5,-289.45 254.74,-283.56 271.61,-278.39"/>
<polygon fill="midnightblue" stroke="midnightblue" points="272.68,-281.72 281.22,-275.44 270.63,-275.03 272.68,-281.72"/>
</g>
</g>
</svg>
