<?xml version="1.0" encoding="UTF-8" standalone="no"?>
<!DOCTYPE svg PUBLIC "-//W3C//DTD SVG 1.1//EN"
 "http://www.w3.org/Graphics/SVG/1.1/DTD/svg11.dtd">
<!-- Generated by graphviz version 2.43.0 (0)
 -->
<!-- Title: applications/zpc/components/zwave_command_classes/src/zwave_command_class_meter_control.h Pages: 1 -->
<svg width="344pt" height="150pt"
 viewBox="0.00 0.00 343.50 150.00" xmlns="http://www.w3.org/2000/svg" xmlns:xlink="http://www.w3.org/1999/xlink">
<g id="graph0" class="graph" transform="scale(1 1) rotate(0) translate(4 146)">
<title>applications/zpc/components/zwave_command_classes/src/zwave_command_class_meter_control.h</title>
<!-- Node1 -->
<g id="node1" class="node">
<title>Node1</title>
<g id="a_node1"><a xlink:title=" ">
<polygon fill="#bfbfbf" stroke="black" points="88,-89.5 88,-141.5 243,-141.5 243,-89.5 88,-89.5"/>
<text text-anchor="start" x="96" y="-129.5" font-family="Helvetica,sans-Serif" font-size="10.00">applications/zpc/components</text>
<text text-anchor="start" x="96" y="-118.5" font-family="Helvetica,sans-Serif" font-size="10.00">/zwave_command_classes/src</text>
<text text-anchor="start" x="96" y="-107.5" font-family="Helvetica,sans-Serif" font-size="10.00">/zwave_command_class_meter</text>
<text text-anchor="middle" x="165.5" y="-96.5" font-family="Helvetica,sans-Serif" font-size="10.00">_control.h</text>
</a>
</g>
</g>
<!-- Node2 -->
<g id="node2" class="node">
<title>Node2</title>
<g id="a_node2"><a xlink:href="zwave__command__class__meter__control_8c.html" target="_top" xlink:title=" ">
<polygon fill="none" stroke="black" points="0,-0.5 0,-52.5 155,-52.5 155,-0.5 0,-0.5"/>
<text text-anchor="start" x="8" y="-40.5" font-family="Helvetica,sans-Serif" font-size="10.00">applications/zpc/components</text>
<text text-anchor="start" x="8" y="-29.5" font-family="Helvetica,sans-Serif" font-size="10.00">/zwave_command_classes/src</text>
<text text-anchor="start" x="8" y="-18.5" font-family="Helvetica,sans-Serif" font-size="10.00">/zwave_command_class_meter</text>
<text text-anchor="middle" x="77.5" y="-7.5" font-family="Helvetica,sans-Serif" font-size="10.00">_control.c</text>
</a>
</g>
</g>
<!-- Node1&#45;&gt;Node2 -->
<g id="edge1" class="edge">
<title>Node1&#45;&gt;Node2</title>
<path fill="none" stroke="midnightblue" d="M132.7,-82.08C122.85,-72.34 112.19,-61.8 102.9,-52.61"/>
<polygon fill="midnightblue" stroke="midnightblue" points="130.47,-84.79 140.05,-89.34 135.4,-79.82 130.47,-84.79"/>
</g>
<!-- Node3 -->
<g id="node3" class="node">
<title>Node3</title>
<g id="a_node3"><a xlink:href="zwave__command__classes__fixt_8c.html" target="_top" xlink:title=" ">
<polygon fill="none" stroke="black" points="173.5,-6 173.5,-47 335.5,-47 335.5,-6 173.5,-6"/>
<text text-anchor="start" x="181.5" y="-35" font-family="Helvetica,sans-Serif" font-size="10.00">applications/zpc/components</text>
<text text-anchor="start" x="181.5" y="-24" font-family="Helvetica,sans-Serif" font-size="10.00">/zwave_command_classes/src</text>
<text text-anchor="middle" x="254.5" y="-13" font-family="Helvetica,sans-Serif" font-size="10.00">/zwave_command_classes_fixt.c</text>
</a>
</g>
</g>
<!-- Node1&#45;&gt;Node3 -->
<g id="edge2" class="edge">
<title>Node1&#45;&gt;Node3</title>
<path fill="none" stroke="midnightblue" d="M198.56,-82.18C210.62,-70.39 223.88,-57.43 234.47,-47.08"/>
<polygon fill="midnightblue" stroke="midnightblue" points="195.95,-79.84 191.24,-89.34 200.84,-84.85 195.95,-79.84"/>
</g>
</g>
</svg>
