<?xml version="1.0" encoding="UTF-8" standalone="no"?>
<!DOCTYPE svg PUBLIC "-//W3C//DTD SVG 1.1//EN"
 "http://www.w3.org/Graphics/SVG/1.1/DTD/svg11.dtd">
<!-- Generated by graphviz version 2.43.0 (0)
 -->
<!-- Title: get_closest_supported_interval Pages: 1 -->
<svg width="804pt" height="88pt"
 viewBox="0.00 0.00 804.00 88.00" xmlns="http://www.w3.org/2000/svg" xmlns:xlink="http://www.w3.org/1999/xlink">
<g id="graph0" class="graph" transform="scale(1 1) rotate(0) translate(4 84)">
<title>get_closest_supported_interval</title>
<!-- Node1 -->
<g id="node1" class="node">
<title>Node1</title>
<g id="a_node1"><a xlink:title="Finds the closest supported value for a Wake Up Interval.">
<polygon fill="#bfbfbf" stroke="black" points="681,-17 681,-47 796,-47 796,-17 681,-17"/>
<text text-anchor="start" x="689" y="-35" font-family="Helvetica,sans-Serif" font-size="10.00">get_closest_supported</text>
<text text-anchor="middle" x="738.5" y="-24" font-family="Helvetica,sans-Serif" font-size="10.00">_interval</text>
</a>
</g>
</g>
<!-- Node2 -->
<g id="node2" class="node">
<title>Node2</title>
<g id="a_node2"><a xlink:href="zwave__command__class__wake__up_8c.html#aaff9153e6b7f2f12495d4528a1e348f5" target="_top" xlink:title="Configures the Wake Up Interval setting for a node.">
<polygon fill="none" stroke="black" points="508,-42.5 508,-61.5 645,-61.5 645,-42.5 508,-42.5"/>
<text text-anchor="middle" x="576.5" y="-49.5" font-family="Helvetica,sans-Serif" font-size="10.00">configure_wake_up_interval</text>
</a>
</g>
</g>
<!-- Node1&#45;&gt;Node2 -->
<g id="edge1" class="edge">
<title>Node1&#45;&gt;Node2</title>
<path fill="none" stroke="midnightblue" d="M670.52,-40.37C662.12,-41.42 653.53,-42.5 645.12,-43.55"/>
<polygon fill="midnightblue" stroke="midnightblue" points="671.15,-43.82 680.64,-39.11 670.28,-36.88 671.15,-43.82"/>
</g>
<!-- Node6 -->
<g id="node6" class="node">
<title>Node6</title>
<g id="a_node6"><a xlink:href="zwave__command__class__wake__up_8c.html#a9a61799d62b6c368681fb8a80b0ddf43" target="_top" xlink:title="Writes down assumed non&#45;advertised capabilities for a v1 node.">
<polygon fill="none" stroke="black" points="509.5,-3.5 509.5,-22.5 643.5,-22.5 643.5,-3.5 509.5,-3.5"/>
<text text-anchor="middle" x="576.5" y="-10.5" font-family="Helvetica,sans-Serif" font-size="10.00">set_default_v1_capabilities</text>
</a>
</g>
</g>
<!-- Node1&#45;&gt;Node6 -->
<g id="edge6" class="edge">
<title>Node1&#45;&gt;Node6</title>
<path fill="none" stroke="midnightblue" d="M670.7,-24.07C661.78,-23.01 652.64,-21.92 643.74,-20.87"/>
<polygon fill="midnightblue" stroke="midnightblue" points="670.3,-27.54 680.64,-25.25 671.12,-20.59 670.3,-27.54"/>
</g>
<!-- Node2&#45;&gt;Node2 -->
<g id="edge2" class="edge">
<title>Node2&#45;&gt;Node2</title>
<path fill="none" stroke="midnightblue" d="M606.81,-70.27C605.95,-75.74 595.85,-80 576.5,-80 547.71,-80 539.38,-70.57 551.53,-61.76"/>
<polygon fill="midnightblue" stroke="midnightblue" points="609.75,-68.37 601.47,-61.76 603.82,-72.09 609.75,-68.37"/>
</g>
<!-- Node3 -->
<g id="node3" class="node">
<title>Node3</title>
<g id="a_node3"><a xlink:href="zwave__command__class__wake__up_8c.html#af927fc2e0ebd3d6502c5167a6e8c6e27" target="_top" xlink:title="Verifies if we are resolving capabilities, and if yes, set a resolutio listener to set the Wake Up In...">
<polygon fill="none" stroke="black" points="347,-39 347,-69 469,-69 469,-39 347,-39"/>
<text text-anchor="start" x="355" y="-57" font-family="Helvetica,sans-Serif" font-size="10.00">on_capabilities_attribute</text>
<text text-anchor="middle" x="408" y="-46" font-family="Helvetica,sans-Serif" font-size="10.00">_update</text>
</a>
</g>
</g>
<!-- Node2&#45;&gt;Node3 -->
<g id="edge3" class="edge">
<title>Node2&#45;&gt;Node3</title>
<path fill="none" stroke="midnightblue" d="M497.51,-52.94C487.99,-53.05 478.37,-53.17 469.17,-53.28"/>
<polygon fill="midnightblue" stroke="midnightblue" points="497.82,-56.43 507.78,-52.81 497.74,-49.43 497.82,-56.43"/>
</g>
<!-- Node4 -->
<g id="node4" class="node">
<title>Node4</title>
<g id="a_node4"><a xlink:href="group__zwave__command__class__wake__up.html#ga11866ec0935bee3fba386bc3ed28e0b6" target="_top" xlink:title="Initializes the Wake Up Command Class handler.">
<polygon fill="none" stroke="black" points="186,-17 186,-47 308,-47 308,-17 186,-17"/>
<text text-anchor="start" x="194" y="-35" font-family="Helvetica,sans-Serif" font-size="10.00">zwave_command_class</text>
<text text-anchor="middle" x="247" y="-24" font-family="Helvetica,sans-Serif" font-size="10.00">_wake_up_init</text>
</a>
</g>
</g>
<!-- Node3&#45;&gt;Node4 -->
<g id="edge4" class="edge">
<title>Node3&#45;&gt;Node4</title>
<path fill="none" stroke="midnightblue" d="M336.98,-44.31C327.38,-42.98 317.6,-41.63 308.2,-40.33"/>
<polygon fill="midnightblue" stroke="midnightblue" points="336.5,-47.78 346.89,-45.68 337.46,-40.85 336.5,-47.78"/>
</g>
<!-- Node5 -->
<g id="node5" class="node">
<title>Node5</title>
<g id="a_node5"><a xlink:href="group__command__classes__fixt.html#ga5272651939ced1723158340039e8da19" target="_top" xlink:title="Setup fixture for Z&#45;Wave Command Classes.">
<polygon fill="none" stroke="black" points="0,-22.5 0,-41.5 150,-41.5 150,-22.5 0,-22.5"/>
<text text-anchor="middle" x="75" y="-29.5" font-family="Helvetica,sans-Serif" font-size="10.00">zwave_command_classes_init</text>
</a>
</g>
</g>
<!-- Node4&#45;&gt;Node5 -->
<g id="edge5" class="edge">
<title>Node4&#45;&gt;Node5</title>
<path fill="none" stroke="midnightblue" d="M175.51,-32C167.16,-32 158.61,-32 150.21,-32"/>
<polygon fill="midnightblue" stroke="midnightblue" points="175.59,-35.5 185.59,-32 175.59,-28.5 175.59,-35.5"/>
</g>
<!-- Node7 -->
<g id="node7" class="node">
<title>Node7</title>
<g id="a_node7"><a xlink:href="zwave__command__class__wake__up_8c.html#a8f966daf7a0db642b035c023a4877115" target="_top" xlink:title=" ">
<polygon fill="none" stroke="black" points="344,-0.5 344,-19.5 472,-19.5 472,-0.5 344,-0.5"/>
<text text-anchor="middle" x="408" y="-7.5" font-family="Helvetica,sans-Serif" font-size="10.00">wake_up_capabilities_get</text>
</a>
</g>
</g>
<!-- Node6&#45;&gt;Node7 -->
<g id="edge7" class="edge">
<title>Node6&#45;&gt;Node7</title>
<path fill="none" stroke="midnightblue" d="M499.08,-11.62C490.04,-11.46 480.9,-11.3 472.08,-11.14"/>
<polygon fill="midnightblue" stroke="midnightblue" points="499.15,-15.12 509.22,-11.81 499.28,-8.13 499.15,-15.12"/>
</g>
<!-- Node7&#45;&gt;Node4 -->
<g id="edge8" class="edge">
<title>Node7&#45;&gt;Node4</title>
<path fill="none" stroke="midnightblue" d="M333.75,-20.14C325.21,-21.32 316.57,-22.51 308.23,-23.67"/>
<polygon fill="midnightblue" stroke="midnightblue" points="334.28,-23.6 343.7,-18.76 333.32,-16.66 334.28,-23.6"/>
</g>
</g>
</svg>
