<?xml version="1.0" encoding="UTF-8" standalone="no"?>
<!DOCTYPE svg PUBLIC "-//W3C//DTD SVG 1.1//EN"
 "http://www.w3.org/Graphics/SVG/1.1/DTD/svg11.dtd">
<!-- Generated by graphviz version 2.43.0 (0)
 -->
<!-- Title: s0_send_key_set Pages: 1 -->
<svg width="1106pt" height="328pt"
 viewBox="0.00 0.00 1106.00 327.96" xmlns="http://www.w3.org/2000/svg" xmlns:xlink="http://www.w3.org/1999/xlink">
<g id="graph0" class="graph" transform="scale(1 1) rotate(0) translate(4 323.96)">
<title>s0_send_key_set</title>
<!-- Node1 -->
<g id="node1" class="node">
<title>Node1</title>
<g id="a_node1"><a xlink:title=" ">
<polygon fill="#bfbfbf" stroke="black" points="1005,-42.46 1005,-61.46 1098,-61.46 1098,-42.46 1005,-42.46"/>
<text text-anchor="middle" x="1051.5" y="-49.46" font-family="Helvetica,sans-Serif" font-size="10.00">s0_send_key_set</text>
</a>
</g>
</g>
<!-- Node2 -->
<g id="node2" class="node">
<title>Node2</title>
<g id="a_node2"><a xlink:href="zwave__s0__sm_8c.html#a84e7be6182bb4e2f919fb2a3733e6ca1" target="_top" xlink:title=" ">
<polygon fill="none" stroke="black" points="854,-118.46 854,-137.46 969,-137.46 969,-118.46 854,-118.46"/>
<text text-anchor="middle" x="911.5" y="-125.46" font-family="Helvetica,sans-Serif" font-size="10.00">s0_sm_process_event</text>
</a>
</g>
</g>
<!-- Node1&#45;&gt;Node2 -->
<g id="edge1" class="edge">
<title>Node1&#45;&gt;Node2</title>
<path fill="none" stroke="midnightblue" d="M1024.25,-66.42C996.53,-81.69 953.61,-105.33 929.84,-118.42"/>
<polygon fill="midnightblue" stroke="midnightblue" points="1025.95,-69.48 1033.02,-61.59 1022.57,-63.35 1025.95,-69.48"/>
</g>
<!-- Node2&#45;&gt;Node2 -->
<g id="edge23" class="edge">
<title>Node2&#45;&gt;Node2</title>
<path fill="none" stroke="midnightblue" d="M937.54,-146.99C936.12,-152.09 927.44,-155.96 911.5,-155.96 886.62,-155.96 879.42,-146.53 889.92,-137.72"/>
<polygon fill="midnightblue" stroke="midnightblue" points="940.57,-145.21 933.08,-137.72 934.26,-148.25 940.57,-145.21"/>
</g>
<!-- Node3 -->
<g id="node3" class="node">
<title>Node3</title>
<g id="a_node3"><a xlink:href="group__zwave__s0__inclusion__state__machine.html#gaf4d6768672314f24fe46c7d19b5b433f" target="_top" xlink:title="Start the S0 add node process.">
<polygon fill="none" stroke="black" points="690.5,-282.46 690.5,-301.46 806.5,-301.46 806.5,-282.46 690.5,-282.46"/>
<text text-anchor="middle" x="748.5" y="-289.46" font-family="Helvetica,sans-Serif" font-size="10.00">s0_bootstrapping_start</text>
</a>
</g>
</g>
<!-- Node2&#45;&gt;Node3 -->
<g id="edge2" class="edge">
<title>Node2&#45;&gt;Node3</title>
<path fill="none" stroke="midnightblue" d="M903.38,-147.57C890.99,-178.91 862.46,-240.09 818,-272.96 812.74,-276.85 806.72,-279.95 800.49,-282.41"/>
<polygon fill="midnightblue" stroke="midnightblue" points="906.81,-148.42 907.09,-137.83 900.26,-145.93 906.81,-148.42"/>
</g>
<!-- Node7 -->
<g id="node7" class="node">
<title>Node7</title>
<g id="a_node7"><a xlink:href="zwave__s0__sm_8c.html#ab4101f12d142bd597954a665c6acc700" target="_top" xlink:title=" ">
<polygon fill="none" stroke="black" points="683.5,-118.46 683.5,-137.46 813.5,-137.46 813.5,-118.46 683.5,-118.46"/>
<text text-anchor="middle" x="748.5" y="-125.46" font-family="Helvetica,sans-Serif" font-size="10.00">s0_handle_net_key_verify</text>
</a>
</g>
</g>
<!-- Node2&#45;&gt;Node7 -->
<g id="edge7" class="edge">
<title>Node2&#45;&gt;Node7</title>
<path fill="none" stroke="midnightblue" d="M843.57,-121.3C833.69,-121.17 823.53,-121.19 813.71,-121.34"/>
<polygon fill="midnightblue" stroke="midnightblue" points="843.68,-124.8 853.74,-121.48 843.8,-117.8 843.68,-124.8"/>
</g>
<!-- Node8 -->
<g id="node8" class="node">
<title>Node8</title>
<g id="a_node8"><a xlink:href="group__zwave__s0__inclusion__state__machine.html#ga324baa22838a503a6e1df7375e7deaaa" target="_top" xlink:title="This function is used to notify the S0 Inclusion state machine that S0 network key verify frame was r...">
<polygon fill="none" stroke="black" points="690,-194.96 690,-224.96 807,-224.96 807,-194.96 690,-194.96"/>
<text text-anchor="start" x="698" y="-212.96" font-family="Helvetica,sans-Serif" font-size="10.00">s0_network_key_verify</text>
<text text-anchor="middle" x="748.5" y="-201.96" font-family="Helvetica,sans-Serif" font-size="10.00">_received</text>
</a>
</g>
</g>
<!-- Node2&#45;&gt;Node8 -->
<g id="edge9" class="edge">
<title>Node2&#45;&gt;Node8</title>
<path fill="none" stroke="midnightblue" d="M886.07,-142.58C867.63,-153.39 841.55,-168.22 818,-179.96 807.66,-185.12 796.23,-190.32 785.72,-194.9"/>
<polygon fill="midnightblue" stroke="midnightblue" points="887.88,-145.57 894.72,-137.47 884.33,-139.54 887.88,-145.57"/>
</g>
<!-- Node13 -->
<g id="node13" class="node">
<title>Node13</title>
<g id="a_node13"><a xlink:href="group__zwave__s0__inclusion__state__machine.html#ga27a97b6299c3fda3115f715b23902a60" target="_top" xlink:title="This function is used to notify the S0 Inclusion state machine that S0 Scheme report frame was receiv...">
<polygon fill="none" stroke="black" points="679,-244.46 679,-263.46 818,-263.46 818,-244.46 679,-244.46"/>
<text text-anchor="middle" x="748.5" y="-251.46" font-family="Helvetica,sans-Serif" font-size="10.00">s0_scheme_report_received</text>
</a>
</g>
</g>
<!-- Node2&#45;&gt;Node13 -->
<g id="edge14" class="edge">
<title>Node2&#45;&gt;Node13</title>
<path fill="none" stroke="midnightblue" d="M899.66,-146.14C884.44,-170.1 854.45,-211.89 818,-234.96 811.85,-238.86 804.89,-241.97 797.83,-244.45"/>
<polygon fill="midnightblue" stroke="midnightblue" points="902.64,-147.98 904.93,-137.63 896.69,-144.29 902.64,-147.98"/>
</g>
<!-- Node14 -->
<g id="node14" class="node">
<title>Node14</title>
<g id="a_node14"><a xlink:href="zwave__s0__sm_8c.html#a4f4ada1cafbd76ff9d9af5fab6fe23eb" target="_top" xlink:title=" ">
<polygon fill="none" stroke="black" points="509,-48.46 509,-67.46 628,-67.46 628,-48.46 509,-48.46"/>
<text text-anchor="middle" x="568.5" y="-55.46" font-family="Helvetica,sans-Serif" font-size="10.00">s0_send_data_callback</text>
</a>
</g>
</g>
<!-- Node2&#45;&gt;Node14 -->
<g id="edge16" class="edge">
<title>Node2&#45;&gt;Node14</title>
<path fill="none" stroke="midnightblue" d="M891.3,-112.1C873.51,-98.44 845.7,-79.6 818,-70.96 755.31,-51.42 679.46,-50.5 628.18,-52.98"/>
<polygon fill="midnightblue" stroke="midnightblue" points="889.16,-114.87 899.18,-118.32 893.5,-109.38 889.16,-114.87"/>
</g>
<!-- Node18 -->
<g id="node18" class="node">
<title>Node18</title>
<g id="a_node18"><a xlink:href="zwave__s0__sm_8c.html#aaf909f4fdf4e6d4d910f4ab30f2e9c21" target="_top" xlink:title=" ">
<polygon fill="none" stroke="black" points="716,-80.46 716,-99.46 781,-99.46 781,-80.46 716,-80.46"/>
<text text-anchor="middle" x="748.5" y="-87.46" font-family="Helvetica,sans-Serif" font-size="10.00">s0_timeout</text>
</a>
</g>
</g>
<!-- Node2&#45;&gt;Node18 -->
<g id="edge24" class="edge">
<title>Node2&#45;&gt;Node18</title>
<path fill="none" stroke="midnightblue" d="M859.9,-116.02C834.15,-109.94 803.64,-102.74 781.23,-97.45"/>
<polygon fill="midnightblue" stroke="midnightblue" points="859.34,-119.49 869.87,-118.38 860.94,-112.67 859.34,-119.49"/>
</g>
<!-- Node4 -->
<g id="node4" class="node">
<title>Node4</title>
<g id="a_node4"><a xlink:href="group__zwave__s0__network.html#ga27e4137188b19b88cf40318f7fea87dc" target="_top" xlink:title="Start the S0 add node process.">
<polygon fill="none" stroke="black" points="494,-282.46 494,-301.46 643,-301.46 643,-282.46 494,-282.46"/>
<text text-anchor="middle" x="568.5" y="-289.46" font-family="Helvetica,sans-Serif" font-size="10.00">zwave_s0_start_bootstrapping</text>
</a>
</g>
</g>
<!-- Node3&#45;&gt;Node4 -->
<g id="edge3" class="edge">
<title>Node3&#45;&gt;Node4</title>
<path fill="none" stroke="midnightblue" d="M679.86,-291.96C667.9,-291.96 655.4,-291.96 643.29,-291.96"/>
<polygon fill="midnightblue" stroke="midnightblue" points="680.2,-295.46 690.2,-291.96 680.2,-288.46 680.2,-295.46"/>
</g>
<!-- Node5 -->
<g id="node5" class="node">
<title>Node5</title>
<g id="a_node5"><a xlink:href="nm__state__machine_8c.html#ac9fe4041f9ca45bad16c9b6ad7bae02f" target="_top" xlink:title=" ">
<polygon fill="none" stroke="black" points="331,-282.46 331,-301.46 436,-301.46 436,-282.46 331,-282.46"/>
<text text-anchor="middle" x="383.5" y="-289.46" font-family="Helvetica,sans-Serif" font-size="10.00">nm_fsm_post_event</text>
</a>
</g>
</g>
<!-- Node4&#45;&gt;Node5 -->
<g id="edge4" class="edge">
<title>Node4&#45;&gt;Node5</title>
<path fill="none" stroke="midnightblue" d="M483.79,-291.96C467.53,-291.96 450.93,-291.96 436.08,-291.96"/>
<polygon fill="midnightblue" stroke="midnightblue" points="483.86,-295.46 493.86,-291.96 483.86,-288.46 483.86,-295.46"/>
</g>
<!-- Node5&#45;&gt;Node5 -->
<g id="edge5" class="edge">
<title>Node5&#45;&gt;Node5</title>
<path fill="none" stroke="midnightblue" d="M415.69,-310.24C414.77,-315.71 404.04,-319.96 383.5,-319.96 352.93,-319.96 344.09,-310.53 356.99,-301.72"/>
<polygon fill="midnightblue" stroke="midnightblue" points="418.47,-308.1 410.01,-301.72 412.64,-311.98 418.47,-308.1"/>
</g>
<!-- Node6 -->
<g id="node6" class="node">
<title>Node6</title>
<g id="a_node6"><a xlink:href="zwave__network__management__process_8c.html#a59cf655b084839b45cc25e23b3aef04c" target="_top" xlink:title=" ">
<polygon fill="none" stroke="black" points="154,-282.46 154,-301.46 267,-301.46 267,-282.46 154,-282.46"/>
<text text-anchor="middle" x="210.5" y="-289.46" font-family="Helvetica,sans-Serif" font-size="10.00">PROCESS_THREAD</text>
</a>
</g>
</g>
<!-- Node5&#45;&gt;Node6 -->
<g id="edge6" class="edge">
<title>Node5&#45;&gt;Node6</title>
<path fill="none" stroke="midnightblue" d="M320.65,-291.96C303.2,-291.96 284.33,-291.96 267.26,-291.96"/>
<polygon fill="midnightblue" stroke="midnightblue" points="320.73,-295.46 330.73,-291.96 320.73,-288.46 320.73,-295.46"/>
</g>
<!-- Node7&#45;&gt;Node2 -->
<g id="edge8" class="edge">
<title>Node7&#45;&gt;Node2</title>
<path fill="none" stroke="midnightblue" d="M823.73,-134.7C833.81,-134.76 844.03,-134.67 853.74,-134.45"/>
<polygon fill="midnightblue" stroke="midnightblue" points="823.75,-131.2 813.71,-134.59 823.67,-138.2 823.75,-131.2"/>
</g>
<!-- Node9 -->
<g id="node9" class="node">
<title>Node9</title>
<g id="a_node9"><a xlink:href="zwave__s0__transport_8c.html#a03d95837da2b91dfbf98786f7e753fe4" target="_top" xlink:title=" ">
<polygon fill="none" stroke="black" points="505,-213.96 505,-243.96 632,-243.96 632,-213.96 505,-213.96"/>
<text text-anchor="start" x="513" y="-231.96" font-family="Helvetica,sans-Serif" font-size="10.00">s0_application_command</text>
<text text-anchor="middle" x="568.5" y="-220.96" font-family="Helvetica,sans-Serif" font-size="10.00">_handler</text>
</a>
</g>
</g>
<!-- Node8&#45;&gt;Node9 -->
<g id="edge10" class="edge">
<title>Node8&#45;&gt;Node9</title>
<path fill="none" stroke="midnightblue" d="M679.63,-217.21C664.06,-218.87 647.57,-220.63 632.22,-222.27"/>
<polygon fill="midnightblue" stroke="midnightblue" points="680.14,-220.68 689.71,-216.13 679.39,-213.71 680.14,-220.68"/>
</g>
<!-- Node10 -->
<g id="node10" class="node">
<title>Node10</title>
<g id="a_node10"><a xlink:href="group__zwave__s0__transport.html#ga075cd6959f4f2b9cbd757c5d43f97820" target="_top" xlink:title="Entry point of S0 frames received from the PHY/radio stack.">
<polygon fill="none" stroke="black" points="309,-219.46 309,-238.46 458,-238.46 458,-219.46 309,-219.46"/>
<text text-anchor="middle" x="383.5" y="-226.46" font-family="Helvetica,sans-Serif" font-size="10.00">zwave_s0_on_frame_received</text>
</a>
</g>
</g>
<!-- Node9&#45;&gt;Node10 -->
<g id="edge11" class="edge">
<title>Node9&#45;&gt;Node10</title>
<path fill="none" stroke="midnightblue" d="M494.43,-228.96C482.49,-228.96 470.12,-228.96 458.18,-228.96"/>
<polygon fill="midnightblue" stroke="midnightblue" points="494.78,-232.46 504.78,-228.96 494.78,-225.46 494.78,-232.46"/>
</g>
<!-- Node11 -->
<g id="node11" class="node">
<title>Node11</title>
<g id="a_node11"><a xlink:href="group__zwave__s0__transport.html#ga7fcd7083b5fe3b6b2838d0d64f815f53" target="_top" xlink:title="Initialize the S0 Transport Also calls zwave_s0_network_init() which aborts all tx sessions and frees...">
<polygon fill="none" stroke="black" points="149.5,-219.46 149.5,-238.46 271.5,-238.46 271.5,-219.46 149.5,-219.46"/>
<text text-anchor="middle" x="210.5" y="-226.46" font-family="Helvetica,sans-Serif" font-size="10.00">zwave_s0_transport_init</text>
</a>
</g>
</g>
<!-- Node10&#45;&gt;Node11 -->
<g id="edge12" class="edge">
<title>Node10&#45;&gt;Node11</title>
<path fill="none" stroke="midnightblue" d="M298.98,-228.96C289.73,-228.96 280.44,-228.96 271.56,-228.96"/>
<polygon fill="midnightblue" stroke="midnightblue" points="298.99,-232.46 308.99,-228.96 298.99,-225.46 298.99,-232.46"/>
</g>
<!-- Node12 -->
<g id="node12" class="node">
<title>Node12</title>
<g id="a_node12"><a xlink:href="group__zwave__transports__fixt.html#ga26fb2571e272a5094bd0320eca3a896d" target="_top" xlink:title="Setup fixture for Z&#45;Wave Transports.">
<polygon fill="none" stroke="black" points="0,-219.46 0,-238.46 112,-238.46 112,-219.46 0,-219.46"/>
<text text-anchor="middle" x="56" y="-226.46" font-family="Helvetica,sans-Serif" font-size="10.00">zwave_transports_init</text>
</a>
</g>
</g>
<!-- Node11&#45;&gt;Node12 -->
<g id="edge13" class="edge">
<title>Node11&#45;&gt;Node12</title>
<path fill="none" stroke="midnightblue" d="M139.16,-228.96C130.17,-228.96 121.08,-228.96 112.37,-228.96"/>
<polygon fill="midnightblue" stroke="midnightblue" points="139.23,-232.46 149.23,-228.96 139.23,-225.46 139.23,-232.46"/>
</g>
<!-- Node13&#45;&gt;Node9 -->
<g id="edge15" class="edge">
<title>Node13&#45;&gt;Node9</title>
<path fill="none" stroke="midnightblue" d="M669.71,-243.04C657.15,-241.27 644.28,-239.47 632.14,-237.76"/>
<polygon fill="midnightblue" stroke="midnightblue" points="669.31,-246.52 679.7,-244.44 670.28,-239.59 669.31,-246.52"/>
</g>
<!-- Node15 -->
<g id="node15" class="node">
<title>Node15</title>
<g id="a_node15"><a xlink:href="zwave__s0__sm_8c.html#ad13d142fc4acb596e25c9e0b0afa6b8a" target="_top" xlink:title=" ">
<polygon fill="none" stroke="black" points="329.5,-42.96 329.5,-72.96 437.5,-72.96 437.5,-42.96 329.5,-42.96"/>
<text text-anchor="start" x="337.5" y="-60.96" font-family="Helvetica,sans-Serif" font-size="10.00">s0_bootstrap_frames</text>
<text text-anchor="middle" x="383.5" y="-49.96" font-family="Helvetica,sans-Serif" font-size="10.00">_generic_send</text>
</a>
</g>
</g>
<!-- Node14&#45;&gt;Node15 -->
<g id="edge17" class="edge">
<title>Node14&#45;&gt;Node15</title>
<path fill="none" stroke="midnightblue" d="M498.74,-57.96C478.49,-57.96 456.66,-57.96 437.56,-57.96"/>
<polygon fill="midnightblue" stroke="midnightblue" points="498.84,-61.46 508.84,-57.96 498.84,-54.46 498.84,-61.46"/>
</g>
<!-- Node15&#45;&gt;Node1 -->
<g id="edge18" class="edge">
<title>Node15&#45;&gt;Node1</title>
<path fill="none" stroke="midnightblue" d="M447.95,-45.05C462.98,-42.52 479.01,-40.26 494,-38.96 683.2,-22.67 909.82,-39.05 1004.95,-47.54"/>
<polygon fill="midnightblue" stroke="midnightblue" points="446.98,-41.67 437.73,-46.84 448.18,-48.57 446.98,-41.67"/>
</g>
<!-- Node16 -->
<g id="node16" class="node">
<title>Node16</title>
<g id="a_node16"><a xlink:href="zwave__s0__sm_8c.html#aa3efb68081afc5686d48ee8ee23696a1" target="_top" xlink:title=" ">
<polygon fill="none" stroke="black" points="154.5,-27.46 154.5,-46.46 266.5,-46.46 266.5,-27.46 154.5,-27.46"/>
<text text-anchor="middle" x="210.5" y="-34.46" font-family="Helvetica,sans-Serif" font-size="10.00">s0_send_scheme_get</text>
</a>
</g>
</g>
<!-- Node15&#45;&gt;Node16 -->
<g id="edge19" class="edge">
<title>Node15&#45;&gt;Node16</title>
<path fill="none" stroke="midnightblue" d="M319.34,-50.21C302.07,-48.09 283.49,-45.81 266.7,-43.74"/>
<polygon fill="midnightblue" stroke="midnightblue" points="318.98,-53.69 329.33,-51.44 319.83,-46.74 318.98,-53.69"/>
</g>
<!-- Node17 -->
<g id="node17" class="node">
<title>Node17</title>
<g id="a_node17"><a xlink:href="zwave__s0__sm_8c.html#a042415cb1b240d0867977bb22cd4e0a7" target="_top" xlink:title=" ">
<polygon fill="none" stroke="black" points="148,-68.46 148,-87.46 273,-87.46 273,-68.46 148,-68.46"/>
<text text-anchor="middle" x="210.5" y="-75.46" font-family="Helvetica,sans-Serif" font-size="10.00">s0_send_scheme_inherit</text>
</a>
</g>
</g>
<!-- Node15&#45;&gt;Node17 -->
<g id="edge21" class="edge">
<title>Node15&#45;&gt;Node17</title>
<path fill="none" stroke="midnightblue" d="M319.09,-65.38C304.03,-67.14 287.99,-69.02 273.01,-70.77"/>
<polygon fill="midnightblue" stroke="midnightblue" points="319.81,-68.82 329.33,-64.18 318.99,-61.87 319.81,-68.82"/>
</g>
<!-- Node16&#45;&gt;Node2 -->
<g id="edge20" class="edge">
<title>Node16&#45;&gt;Node2</title>
<path fill="none" stroke="midnightblue" d="M266.01,-25.48C375.4,-5.07 627.5,28.62 818,-47.96 855.82,-63.17 888.94,-100.57 903.14,-118.32"/>
<polygon fill="midnightblue" stroke="midnightblue" points="265.04,-22.1 255.87,-27.41 266.35,-28.98 265.04,-22.1"/>
</g>
<!-- Node17&#45;&gt;Node2 -->
<g id="edge22" class="edge">
<title>Node17&#45;&gt;Node2</title>
<path fill="none" stroke="midnightblue" d="M257.6,-90C358.9,-114.94 608.53,-168.26 818,-146.96 836.27,-145.11 856.26,-141.24 872.96,-137.47"/>
<polygon fill="midnightblue" stroke="midnightblue" points="258.25,-86.55 247.7,-87.53 256.56,-93.34 258.25,-86.55"/>
</g>
<!-- Node18&#45;&gt;Node14 -->
<g id="edge25" class="edge">
<title>Node18&#45;&gt;Node14</title>
<path fill="none" stroke="midnightblue" d="M705.52,-82.42C680.75,-77.97 649.18,-72.29 622.68,-67.53"/>
<polygon fill="midnightblue" stroke="midnightblue" points="705.22,-85.92 715.68,-84.24 706.45,-79.03 705.22,-85.92"/>
</g>
</g>
</svg>
