<?xml version="1.0" encoding="UTF-8" standalone="no"?>
<!DOCTYPE svg PUBLIC "-//W3C//DTD SVG 1.1//EN"
 "http://www.w3.org/Graphics/SVG/1.1/DTD/svg11.dtd">
<!-- Generated by graphviz version 2.43.0 (0)
 -->
<!-- Title: applications/zpc/components/zwave/zwave_transports/s0/src/zwave_s0_network.c Pages: 1 -->
<svg width="1087pt" height="576pt"
 viewBox="0.00 0.00 1086.58 576.00" xmlns="http://www.w3.org/2000/svg" xmlns:xlink="http://www.w3.org/1999/xlink">
<g id="graph0" class="graph" transform="scale(1 1) rotate(0) translate(4 572)">
<title>applications/zpc/components/zwave/zwave_transports/s0/src/zwave_s0_network.c</title>
<!-- Node1 -->
<g id="node1" class="node">
<title>Node1</title>
<g id="a_node1"><a xlink:title=" ">
<polygon fill="#bfbfbf" stroke="black" points="633.08,-526.5 633.08,-567.5 776.08,-567.5 776.08,-526.5 633.08,-526.5"/>
<text text-anchor="start" x="641.08" y="-555.5" font-family="Helvetica,sans-Serif" font-size="10.00">applications/zpc/components</text>
<text text-anchor="start" x="641.08" y="-544.5" font-family="Helvetica,sans-Serif" font-size="10.00">/zwave/zwave_transports</text>
<text text-anchor="middle" x="704.58" y="-533.5" font-family="Helvetica,sans-Serif" font-size="10.00">/s0/src/zwave_s0_network.c</text>
</a>
</g>
</g>
<!-- Node2 -->
<g id="node2" class="node">
<title>Node2</title>
<g id="a_node2"><a xlink:href="zwave__s0__network_8h.html" target="_top" xlink:title=" ">
<polygon fill="none" stroke="black" points="341.08,-347.5 341.08,-366.5 450.08,-366.5 450.08,-347.5 341.08,-347.5"/>
<text text-anchor="middle" x="395.58" y="-354.5" font-family="Helvetica,sans-Serif" font-size="10.00">zwave_s0_network.h</text>
</a>
</g>
</g>
<!-- Node1&#45;&gt;Node2 -->
<g id="edge1" class="edge">
<title>Node1&#45;&gt;Node2</title>
<path fill="none" stroke="midnightblue" d="M633.03,-544.74C581.44,-540.42 512.69,-527.28 464.58,-490 427.04,-460.92 407.85,-405.64 400,-376.71"/>
<polygon fill="midnightblue" stroke="midnightblue" points="403.32,-375.54 397.46,-366.71 396.53,-377.26 403.32,-375.54"/>
</g>
<!-- Node15 -->
<g id="node15" class="node">
<title>Node15</title>
<g id="a_node15"><a xlink:href="zwave__s0__internal_8h.html" target="_top" xlink:title=" ">
<polygon fill="none" stroke="black" points="715.58,-470.5 715.58,-489.5 821.58,-489.5 821.58,-470.5 715.58,-470.5"/>
<text text-anchor="middle" x="768.58" y="-477.5" font-family="Helvetica,sans-Serif" font-size="10.00">zwave_s0_internal.h</text>
</a>
</g>
</g>
<!-- Node1&#45;&gt;Node15 -->
<g id="edge26" class="edge">
<title>Node1&#45;&gt;Node15</title>
<path fill="none" stroke="midnightblue" d="M723.78,-526.5C733.12,-517.01 744.2,-505.76 753.01,-496.81"/>
<polygon fill="midnightblue" stroke="midnightblue" points="755.54,-499.23 760.06,-489.65 750.55,-494.32 755.54,-499.23"/>
</g>
<!-- Node16 -->
<g id="node16" class="node">
<title>Node16</title>
<g id="a_node16"><a xlink:href="zwave__s0__sm_8h.html" target="_top" xlink:title=" ">
<polygon fill="none" stroke="black" points="473.58,-470.5 473.58,-489.5 561.58,-489.5 561.58,-470.5 473.58,-470.5"/>
<text text-anchor="middle" x="517.58" y="-477.5" font-family="Helvetica,sans-Serif" font-size="10.00">zwave_s0_sm.h</text>
</a>
</g>
</g>
<!-- Node1&#45;&gt;Node16 -->
<g id="edge27" class="edge">
<title>Node1&#45;&gt;Node16</title>
<path fill="none" stroke="midnightblue" d="M648.47,-526.5C617.18,-515.62 579.2,-502.42 552.23,-493.05"/>
<polygon fill="midnightblue" stroke="midnightblue" points="553.06,-489.63 542.47,-489.65 550.77,-496.24 553.06,-489.63"/>
</g>
<!-- Node17 -->
<g id="node17" class="node">
<title>Node17</title>
<g id="a_node17"><a xlink:href="zwave__s0__transport_8h.html" target="_top" xlink:title=" ">
<polygon fill="none" stroke="black" points="584.08,-470.5 584.08,-489.5 697.08,-489.5 697.08,-470.5 584.08,-470.5"/>
<text text-anchor="middle" x="640.58" y="-477.5" font-family="Helvetica,sans-Serif" font-size="10.00">zwave_s0_transport.h</text>
</a>
</g>
</g>
<!-- Node1&#45;&gt;Node17 -->
<g id="edge29" class="edge">
<title>Node1&#45;&gt;Node17</title>
<path fill="none" stroke="midnightblue" d="M685.38,-526.5C676.03,-517.01 664.95,-505.76 656.15,-496.81"/>
<polygon fill="midnightblue" stroke="midnightblue" points="658.61,-494.32 649.1,-489.65 653.62,-499.23 658.61,-494.32"/>
</g>
<!-- Node27 -->
<g id="node27" class="node">
<title>Node27</title>
<g id="a_node27"><a xlink:title=" ">
<polygon fill="none" stroke="#bfbfbf" points="839.58,-470.5 839.58,-489.5 889.58,-489.5 889.58,-470.5 839.58,-470.5"/>
<text text-anchor="middle" x="864.58" y="-477.5" font-family="Helvetica,sans-Serif" font-size="10.00">sl_log.h</text>
</a>
</g>
</g>
<!-- Node1&#45;&gt;Node27 -->
<g id="edge60" class="edge">
<title>Node1&#45;&gt;Node27</title>
<path fill="none" stroke="midnightblue" d="M752.58,-526.5C779,-515.77 810.99,-502.77 834.01,-493.42"/>
<polygon fill="midnightblue" stroke="midnightblue" points="835.33,-496.66 843.28,-489.65 832.7,-490.17 835.33,-496.66"/>
</g>
<!-- Node28 -->
<g id="node28" class="node">
<title>Node28</title>
<g id="a_node28"><a xlink:title=" ">
<polygon fill="none" stroke="#bfbfbf" points="907.58,-470.5 907.58,-489.5 985.58,-489.5 985.58,-470.5 907.58,-470.5"/>
<text text-anchor="middle" x="946.58" y="-477.5" font-family="Helvetica,sans-Serif" font-size="10.00">s2_keystore.h</text>
</a>
</g>
</g>
<!-- Node1&#45;&gt;Node28 -->
<g id="edge61" class="edge">
<title>Node1&#45;&gt;Node28</title>
<path fill="none" stroke="midnightblue" d="M776.2,-526.76C818.06,-515.52 869.44,-501.72 904.77,-492.23"/>
<polygon fill="midnightblue" stroke="midnightblue" points="905.98,-495.53 914.73,-489.55 904.17,-488.77 905.98,-495.53"/>
</g>
<!-- Node3 -->
<g id="node3" class="node">
<title>Node3</title>
<g id="a_node3"><a xlink:title=" ">
<polygon fill="none" stroke="#bfbfbf" points="507.08,-0.5 507.08,-19.5 556.08,-19.5 556.08,-0.5 507.08,-0.5"/>
<text text-anchor="middle" x="531.58" y="-7.5" font-family="Helvetica,sans-Serif" font-size="10.00">stdint.h</text>
</a>
</g>
</g>
<!-- Node2&#45;&gt;Node3 -->
<g id="edge2" class="edge">
<title>Node2&#45;&gt;Node3</title>
<path fill="none" stroke="midnightblue" d="M340.88,-349.93C278.74,-340.25 178.03,-315.75 116.58,-255 71.36,-210.3 84.16,-168.88 112.58,-112 126.36,-84.41 126.94,-71.56 153.58,-56 168.35,-47.37 406.5,-23.26 497.02,-14.36"/>
<polygon fill="midnightblue" stroke="midnightblue" points="497.45,-17.84 507.06,-13.38 496.77,-10.87 497.45,-17.84"/>
</g>
<!-- Node4 -->
<g id="node4" class="node">
<title>Node4</title>
<g id="a_node4"><a xlink:href="zwave__network__management_8h.html" target="_top" xlink:title=" ">
<polygon fill="none" stroke="black" points="284.08,-291.5 284.08,-310.5 439.08,-310.5 439.08,-291.5 284.08,-291.5"/>
<text text-anchor="middle" x="361.58" y="-298.5" font-family="Helvetica,sans-Serif" font-size="10.00">zwave_network_management.h</text>
</a>
</g>
</g>
<!-- Node2&#45;&gt;Node4 -->
<g id="edge3" class="edge">
<title>Node2&#45;&gt;Node4</title>
<path fill="none" stroke="midnightblue" d="M389.96,-347.08C385.21,-339.53 378.26,-328.49 372.43,-319.23"/>
<polygon fill="midnightblue" stroke="midnightblue" points="375.38,-317.35 367.09,-310.75 369.45,-321.08 375.38,-317.35"/>
</g>
<!-- Node4&#45;&gt;Node3 -->
<g id="edge4" class="edge">
<title>Node4&#45;&gt;Node3</title>
<path fill="none" stroke="midnightblue" d="M283.96,-292.82C198.2,-280.8 75.49,-249.27 102.58,-168 122.25,-108.97 132.84,-87.37 186.58,-56 199.9,-48.22 411.61,-24.21 496.63,-14.82"/>
<polygon fill="midnightblue" stroke="midnightblue" points="497.27,-18.27 506.82,-13.7 496.5,-11.31 497.27,-18.27"/>
</g>
<!-- Node5 -->
<g id="node5" class="node">
<title>Node5</title>
<g id="a_node5"><a xlink:title=" ">
<polygon fill="none" stroke="#bfbfbf" points="370.58,-0.5 370.58,-19.5 426.58,-19.5 426.58,-0.5 370.58,-0.5"/>
<text text-anchor="middle" x="398.58" y="-7.5" font-family="Helvetica,sans-Serif" font-size="10.00">stdbool.h</text>
</a>
</g>
</g>
<!-- Node4&#45;&gt;Node5 -->
<g id="edge5" class="edge">
<title>Node4&#45;&gt;Node5</title>
<path fill="none" stroke="midnightblue" d="M283.89,-297.76C208.01,-293.91 99.68,-283.45 69.58,-255 4.14,-193.15 -28.09,-123.43 31.58,-56 53.14,-31.64 270.69,-17.64 360.31,-12.87"/>
<polygon fill="midnightblue" stroke="midnightblue" points="360.53,-16.36 370.33,-12.35 360.16,-9.37 360.53,-16.36"/>
</g>
<!-- Node6 -->
<g id="node6" class="node">
<title>Node6</title>
<g id="a_node6"><a xlink:href="zwave__controller__types_8h.html" target="_top" xlink:title=" ">
<polygon fill="none" stroke="black" points="383.58,-112.5 383.58,-131.5 511.58,-131.5 511.58,-112.5 383.58,-112.5"/>
<text text-anchor="middle" x="447.58" y="-119.5" font-family="Helvetica,sans-Serif" font-size="10.00">zwave_controller_types.h</text>
</a>
</g>
</g>
<!-- Node4&#45;&gt;Node6 -->
<g id="edge6" class="edge">
<title>Node4&#45;&gt;Node6</title>
<path fill="none" stroke="midnightblue" d="M360.56,-291.48C358.36,-269.25 355.2,-208.38 380.58,-168 389.24,-154.22 403.84,-143.68 417.21,-136.27"/>
<polygon fill="midnightblue" stroke="midnightblue" points="418.89,-139.34 426.17,-131.65 415.68,-133.12 418.89,-139.34"/>
</g>
<!-- Node8 -->
<g id="node8" class="node">
<title>Node8</title>
<g id="a_node8"><a xlink:href="zwave__generic__types_8h.html" target="_top" xlink:title=" ">
<polygon fill="none" stroke="black" points="213.08,-56.5 213.08,-75.5 332.08,-75.5 332.08,-56.5 213.08,-56.5"/>
<text text-anchor="middle" x="272.58" y="-63.5" font-family="Helvetica,sans-Serif" font-size="10.00">zwave_generic_types.h</text>
</a>
</g>
</g>
<!-- Node4&#45;&gt;Node8 -->
<g id="edge15" class="edge">
<title>Node4&#45;&gt;Node8</title>
<path fill="none" stroke="midnightblue" d="M346.84,-291.21C334.87,-283.28 318.57,-270.49 309.58,-255 277.47,-199.68 272.72,-121.41 272.35,-85.87"/>
<polygon fill="midnightblue" stroke="midnightblue" points="275.85,-85.55 272.35,-75.55 268.85,-85.55 275.85,-85.55"/>
</g>
<!-- Node10 -->
<g id="node10" class="node">
<title>Node10</title>
<g id="a_node10"><a xlink:href="zwave__network__management__types_8h.html" target="_top" xlink:title=" ">
<polygon fill="none" stroke="black" points="111.58,-168.5 111.58,-198.5 257.58,-198.5 257.58,-168.5 111.58,-168.5"/>
<text text-anchor="start" x="119.58" y="-186.5" font-family="Helvetica,sans-Serif" font-size="10.00">zwave_network_management</text>
<text text-anchor="middle" x="184.58" y="-175.5" font-family="Helvetica,sans-Serif" font-size="10.00">_types.h</text>
</a>
</g>
</g>
<!-- Node4&#45;&gt;Node10 -->
<g id="edge16" class="edge">
<title>Node4&#45;&gt;Node10</title>
<path fill="none" stroke="midnightblue" d="M309.76,-291.43C283.03,-284.95 251.17,-273.83 227.58,-255 212.23,-242.75 200.99,-223.42 193.86,-208.1"/>
<polygon fill="midnightblue" stroke="midnightblue" points="196.98,-206.49 189.77,-198.72 190.56,-209.29 196.98,-206.49"/>
</g>
<!-- Node11 -->
<g id="node11" class="node">
<title>Node11</title>
<g id="a_node11"><a xlink:href="zwave__controller__keyset_8h.html" target="_top" xlink:title=" ">
<polygon fill="none" stroke="black" points="390.08,-235.5 390.08,-254.5 523.08,-254.5 523.08,-235.5 390.08,-235.5"/>
<text text-anchor="middle" x="456.58" y="-242.5" font-family="Helvetica,sans-Serif" font-size="10.00">zwave_controller_keyset.h</text>
</a>
</g>
</g>
<!-- Node4&#45;&gt;Node11 -->
<g id="edge19" class="edge">
<title>Node4&#45;&gt;Node11</title>
<path fill="none" stroke="midnightblue" d="M376.84,-291.32C391.8,-282.82 414.83,-269.73 432.3,-259.8"/>
<polygon fill="midnightblue" stroke="midnightblue" points="434.39,-262.64 441.35,-254.65 430.93,-256.55 434.39,-262.64"/>
</g>
<!-- Node14 -->
<g id="node14" class="node">
<title>Node14</title>
<g id="a_node14"><a xlink:href="sl__status_8h.html" target="_top" xlink:title="SL Status Codes.">
<polygon fill="none" stroke="black" points="893.08,-56.5 893.08,-75.5 958.08,-75.5 958.08,-56.5 893.08,-56.5"/>
<text text-anchor="middle" x="925.58" y="-63.5" font-family="Helvetica,sans-Serif" font-size="10.00">sl_status.h</text>
</a>
</g>
</g>
<!-- Node4&#45;&gt;Node14 -->
<g id="edge24" class="edge">
<title>Node4&#45;&gt;Node14</title>
<path fill="none" stroke="midnightblue" d="M439.18,-293.58C588.95,-281.2 903.27,-255.18 903.58,-255 954.49,-224.83 948.49,-190.87 954.58,-132 955.49,-123.16 957.09,-120.53 954.58,-112 951.57,-101.76 945.42,-91.66 939.56,-83.63"/>
<polygon fill="midnightblue" stroke="midnightblue" points="942.16,-81.27 933.25,-75.54 936.65,-85.58 942.16,-81.27"/>
</g>
<!-- Node6&#45;&gt;Node3 -->
<g id="edge8" class="edge">
<title>Node6&#45;&gt;Node3</title>
<path fill="none" stroke="midnightblue" d="M457.87,-112.38C467.74,-103.8 482.72,-89.92 493.58,-76 505.11,-61.22 515.65,-42.6 522.69,-29.08"/>
<polygon fill="midnightblue" stroke="midnightblue" points="525.95,-30.38 527.35,-19.88 519.71,-27.22 525.95,-30.38"/>
</g>
<!-- Node6&#45;&gt;Node5 -->
<g id="edge7" class="edge">
<title>Node6&#45;&gt;Node5</title>
<path fill="none" stroke="midnightblue" d="M424.12,-112.41C408.42,-105.28 388.96,-93.46 379.58,-76 371.52,-61 378.66,-42.17 386.38,-28.64"/>
<polygon fill="midnightblue" stroke="midnightblue" points="389.54,-30.19 391.9,-19.86 383.62,-26.46 389.54,-30.19"/>
</g>
<!-- Node7 -->
<g id="node7" class="node">
<title>Node7</title>
<g id="a_node7"><a xlink:href="zwave__node__id__definitions_8h.html" target="_top" xlink:title=" ">
<polygon fill="none" stroke="black" points="616.58,-56.5 616.58,-75.5 758.58,-75.5 758.58,-56.5 616.58,-56.5"/>
<text text-anchor="middle" x="687.58" y="-63.5" font-family="Helvetica,sans-Serif" font-size="10.00">zwave_node_id_definitions.h</text>
</a>
</g>
</g>
<!-- Node6&#45;&gt;Node7 -->
<g id="edge9" class="edge">
<title>Node6&#45;&gt;Node7</title>
<path fill="none" stroke="midnightblue" d="M485.61,-112.44C527.39,-103.04 594.56,-87.93 639.85,-77.74"/>
<polygon fill="midnightblue" stroke="midnightblue" points="640.74,-81.13 649.73,-75.52 639.2,-74.3 640.74,-81.13"/>
</g>
<!-- Node6&#45;&gt;Node8 -->
<g id="edge11" class="edge">
<title>Node6&#45;&gt;Node8</title>
<path fill="none" stroke="midnightblue" d="M419.85,-112.44C390.15,-103.28 342.86,-88.69 309.91,-78.52"/>
<polygon fill="midnightblue" stroke="midnightblue" points="310.76,-75.12 300.18,-75.52 308.7,-81.81 310.76,-75.12"/>
</g>
<!-- Node9 -->
<g id="node9" class="node">
<title>Node9</title>
<g id="a_node9"><a xlink:href="zwave__rf__region_8h.html" target="_top" xlink:title=" ">
<polygon fill="none" stroke="black" points="388.58,-56.5 388.58,-75.5 484.58,-75.5 484.58,-56.5 388.58,-56.5"/>
<text text-anchor="middle" x="436.58" y="-63.5" font-family="Helvetica,sans-Serif" font-size="10.00">zwave_rf_region.h</text>
</a>
</g>
</g>
<!-- Node6&#45;&gt;Node9 -->
<g id="edge13" class="edge">
<title>Node6&#45;&gt;Node9</title>
<path fill="none" stroke="midnightblue" d="M445.76,-112.08C444.3,-104.93 442.21,-94.64 440.38,-85.69"/>
<polygon fill="midnightblue" stroke="midnightblue" points="443.79,-84.85 438.36,-75.75 436.93,-86.25 443.79,-84.85"/>
</g>
<!-- Node7&#45;&gt;Node3 -->
<g id="edge10" class="edge">
<title>Node7&#45;&gt;Node3</title>
<path fill="none" stroke="midnightblue" d="M662.86,-56.44C636.73,-47.4 595.32,-33.06 566,-22.92"/>
<polygon fill="midnightblue" stroke="midnightblue" points="566.78,-19.48 556.18,-19.52 564.49,-26.1 566.78,-19.48"/>
</g>
<!-- Node8&#45;&gt;Node3 -->
<g id="edge12" class="edge">
<title>Node8&#45;&gt;Node3</title>
<path fill="none" stroke="midnightblue" d="M313.62,-56.44C364.25,-45.89 449.43,-28.13 496.93,-18.22"/>
<polygon fill="midnightblue" stroke="midnightblue" points="497.67,-21.64 506.75,-16.18 496.24,-14.79 497.67,-21.64"/>
</g>
<!-- Node9&#45;&gt;Node5 -->
<g id="edge14" class="edge">
<title>Node9&#45;&gt;Node5</title>
<path fill="none" stroke="midnightblue" d="M430.3,-56.08C424.94,-48.46 417.06,-37.26 410.5,-27.94"/>
<polygon fill="midnightblue" stroke="midnightblue" points="413.35,-25.91 404.74,-19.75 407.63,-29.94 413.35,-25.91"/>
</g>
<!-- Node10&#45;&gt;Node3 -->
<g id="edge18" class="edge">
<title>Node10&#45;&gt;Node3</title>
<path fill="none" stroke="midnightblue" d="M181.86,-168.35C177.72,-142.14 173.24,-85.96 203.58,-56 213.97,-45.74 414.79,-23.39 496.97,-14.63"/>
<polygon fill="midnightblue" stroke="midnightblue" points="497.49,-18.09 507.06,-13.55 496.75,-11.13 497.49,-18.09"/>
</g>
<!-- Node10&#45;&gt;Node5 -->
<g id="edge17" class="edge">
<title>Node10&#45;&gt;Node5</title>
<path fill="none" stroke="midnightblue" d="M177.15,-168.48C164.76,-142.97 143.78,-88.6 170.58,-56 194.14,-27.33 301.57,-16.63 360.17,-12.87"/>
<polygon fill="midnightblue" stroke="midnightblue" points="360.39,-16.37 370.17,-12.27 359.97,-9.38 360.39,-16.37"/>
</g>
<!-- Node12 -->
<g id="node12" class="node">
<title>Node12</title>
<g id="a_node12"><a xlink:href="zwave__controller__connection__info_8h.html" target="_top" xlink:title=" ">
<polygon fill="none" stroke="black" points="545.08,-168.5 545.08,-198.5 688.08,-198.5 688.08,-168.5 545.08,-168.5"/>
<text text-anchor="start" x="553.08" y="-186.5" font-family="Helvetica,sans-Serif" font-size="10.00">zwave_controller_connection</text>
<text text-anchor="middle" x="616.58" y="-175.5" font-family="Helvetica,sans-Serif" font-size="10.00">_info.h</text>
</a>
</g>
</g>
<!-- Node11&#45;&gt;Node12 -->
<g id="edge20" class="edge">
<title>Node11&#45;&gt;Node12</title>
<path fill="none" stroke="midnightblue" d="M479.5,-235.48C502.79,-226.81 539.55,-213.15 569.14,-202.14"/>
<polygon fill="midnightblue" stroke="midnightblue" points="570.72,-205.29 578.87,-198.52 568.28,-198.73 570.72,-205.29"/>
</g>
<!-- Node13 -->
<g id="node13" class="node">
<title>Node13</title>
<g id="a_node13"><a xlink:href="zwave__keyset__definitions_8h.html" target="_top" xlink:title=" ">
<polygon fill="none" stroke="black" points="390.08,-174 390.08,-193 527.08,-193 527.08,-174 390.08,-174"/>
<text text-anchor="middle" x="458.58" y="-181" font-family="Helvetica,sans-Serif" font-size="10.00">zwave_keyset_definitions.h</text>
</a>
</g>
</g>
<!-- Node11&#45;&gt;Node13 -->
<g id="edge22" class="edge">
<title>Node11&#45;&gt;Node13</title>
<path fill="none" stroke="midnightblue" d="M456.86,-235.48C457.15,-227.08 457.59,-213.98 457.95,-203.16"/>
<polygon fill="midnightblue" stroke="midnightblue" points="461.45,-203.12 458.29,-193.01 454.46,-202.89 461.45,-203.12"/>
</g>
<!-- Node12&#45;&gt;Node6 -->
<g id="edge21" class="edge">
<title>Node12&#45;&gt;Node6</title>
<path fill="none" stroke="midnightblue" d="M576.53,-168.4C547.67,-158.24 509.13,-144.67 481.72,-135.02"/>
<polygon fill="midnightblue" stroke="midnightblue" points="482.76,-131.68 472.17,-131.66 480.44,-138.28 482.76,-131.68"/>
</g>
<!-- Node13&#45;&gt;Node3 -->
<g id="edge23" class="edge">
<title>Node13&#45;&gt;Node3</title>
<path fill="none" stroke="midnightblue" d="M475.19,-173.99C489.87,-165.5 510.47,-151 520.58,-132 537.94,-99.37 536.69,-54.71 534.17,-29.78"/>
<polygon fill="midnightblue" stroke="midnightblue" points="537.61,-29.06 532.94,-19.55 530.66,-29.9 537.61,-29.06"/>
</g>
<!-- Node14&#45;&gt;Node3 -->
<g id="edge25" class="edge">
<title>Node14&#45;&gt;Node3</title>
<path fill="none" stroke="midnightblue" d="M892.93,-58.76C887.48,-57.79 881.88,-56.83 876.58,-56 763.48,-38.25 628.74,-22.12 566.4,-14.94"/>
<polygon fill="midnightblue" stroke="midnightblue" points="566.66,-11.44 556.32,-13.78 565.86,-18.4 566.66,-11.44"/>
</g>
<!-- Node16&#45;&gt;Node2 -->
<g id="edge28" class="edge">
<title>Node16&#45;&gt;Node2</title>
<path fill="none" stroke="midnightblue" d="M510.72,-470.12C499.23,-455.45 475,-425.54 451.58,-403 440.37,-392.22 426.8,-381.26 415.82,-372.86"/>
<polygon fill="midnightblue" stroke="midnightblue" points="417.77,-369.94 407.67,-366.73 413.56,-375.54 417.77,-369.94"/>
</g>
<!-- Node17&#45;&gt;Node14 -->
<g id="edge30" class="edge">
<title>Node17&#45;&gt;Node14</title>
<path fill="none" stroke="midnightblue" d="M690.82,-470.44C805.87,-450.14 1078.58,-397.84 1078.58,-358 1078.58,-358 1078.58,-358 1078.58,-182.5 1078.58,-126.53 1012.56,-94.26 967.26,-78.7"/>
<polygon fill="midnightblue" stroke="midnightblue" points="968.24,-75.34 957.65,-75.54 966.06,-81.99 968.24,-75.34"/>
</g>
<!-- Node18 -->
<g id="node18" class="node">
<title>Node18</title>
<g id="a_node18"><a xlink:href="zwave__controller__transport__internal_8h.html" target="_top" xlink:title=" ">
<polygon fill="none" stroke="black" points="573.58,-403.5 573.58,-433.5 707.58,-433.5 707.58,-403.5 573.58,-403.5"/>
<text text-anchor="start" x="581.58" y="-421.5" font-family="Helvetica,sans-Serif" font-size="10.00">zwave_controller_transport</text>
<text text-anchor="middle" x="640.58" y="-410.5" font-family="Helvetica,sans-Serif" font-size="10.00">_internal.h</text>
</a>
</g>
</g>
<!-- Node17&#45;&gt;Node18 -->
<g id="edge31" class="edge">
<title>Node17&#45;&gt;Node18</title>
<path fill="none" stroke="midnightblue" d="M640.58,-470.48C640.58,-463.47 640.58,-453.19 640.58,-443.7"/>
<polygon fill="midnightblue" stroke="midnightblue" points="644.08,-443.52 640.58,-433.52 637.08,-443.52 644.08,-443.52"/>
</g>
<!-- Node26 -->
<g id="node26" class="node">
<title>Node26</title>
<g id="a_node26"><a xlink:href="zwave__rx_8h.html" target="_top" xlink:title=" ">
<polygon fill="none" stroke="black" points="714.08,-235.5 714.08,-254.5 781.08,-254.5 781.08,-235.5 714.08,-235.5"/>
<text text-anchor="middle" x="747.58" y="-242.5" font-family="Helvetica,sans-Serif" font-size="10.00">zwave_rx.h</text>
</a>
</g>
</g>
<!-- Node17&#45;&gt;Node26 -->
<g id="edge57" class="edge">
<title>Node17&#45;&gt;Node26</title>
<path fill="none" stroke="midnightblue" d="M666.15,-470.42C683.17,-463.35 704.55,-451.59 716.58,-434 752.64,-381.27 751.93,-301.12 749.41,-264.92"/>
<polygon fill="midnightblue" stroke="midnightblue" points="752.89,-264.48 748.57,-254.8 745.91,-265.06 752.89,-264.48"/>
</g>
<!-- Node19 -->
<g id="node19" class="node">
<title>Node19</title>
<g id="a_node19"><a xlink:href="zwave__controller_8h.html" target="_top" xlink:title=" ">
<polygon fill="none" stroke="black" points="502.58,-347.5 502.58,-366.5 600.58,-366.5 600.58,-347.5 502.58,-347.5"/>
<text text-anchor="middle" x="551.58" y="-354.5" font-family="Helvetica,sans-Serif" font-size="10.00">zwave_controller.h</text>
</a>
</g>
</g>
<!-- Node18&#45;&gt;Node19 -->
<g id="edge32" class="edge">
<title>Node18&#45;&gt;Node19</title>
<path fill="none" stroke="midnightblue" d="M619.49,-403.4C605.49,-394.04 587.17,-381.79 573.08,-372.38"/>
<polygon fill="midnightblue" stroke="midnightblue" points="574.79,-369.31 564.53,-366.66 570.9,-375.13 574.79,-369.31"/>
</g>
<!-- Node23 -->
<g id="node23" class="node">
<title>Node23</title>
<g id="a_node23"><a xlink:href="zwave__tx_8h.html" target="_top" xlink:title=" ">
<polygon fill="none" stroke="black" points="827.08,-235.5 827.08,-254.5 894.08,-254.5 894.08,-235.5 827.08,-235.5"/>
<text text-anchor="middle" x="860.58" y="-242.5" font-family="Helvetica,sans-Serif" font-size="10.00">zwave_tx.h</text>
</a>
</g>
</g>
<!-- Node18&#45;&gt;Node23 -->
<g id="edge45" class="edge">
<title>Node18&#45;&gt;Node23</title>
<path fill="none" stroke="midnightblue" d="M658.58,-403.47C699.59,-371.5 799.62,-293.52 841.57,-260.82"/>
<polygon fill="midnightblue" stroke="midnightblue" points="843.86,-263.47 849.6,-254.56 839.56,-257.95 843.86,-263.47"/>
</g>
<!-- Node19&#45;&gt;Node4 -->
<g id="edge33" class="edge">
<title>Node19&#45;&gt;Node4</title>
<path fill="none" stroke="midnightblue" d="M521.47,-347.44C488.95,-338.2 437,-323.44 401.19,-313.26"/>
<polygon fill="midnightblue" stroke="midnightblue" points="402.12,-309.88 391.54,-310.52 400.2,-316.62 402.12,-309.88"/>
</g>
<!-- Node20 -->
<g id="node20" class="node">
<title>Node20</title>
<g id="a_node20"><a xlink:href="zwave__controller__callbacks_8h.html" target="_top" xlink:title=" ">
<polygon fill="none" stroke="black" points="479.08,-291.5 479.08,-310.5 624.08,-310.5 624.08,-291.5 479.08,-291.5"/>
<text text-anchor="middle" x="551.58" y="-298.5" font-family="Helvetica,sans-Serif" font-size="10.00">zwave_controller_callbacks.h</text>
</a>
</g>
</g>
<!-- Node19&#45;&gt;Node20 -->
<g id="edge34" class="edge">
<title>Node19&#45;&gt;Node20</title>
<path fill="none" stroke="midnightblue" d="M551.58,-347.08C551.58,-340.01 551.58,-329.86 551.58,-320.99"/>
<polygon fill="midnightblue" stroke="midnightblue" points="555.08,-320.75 551.58,-310.75 548.08,-320.75 555.08,-320.75"/>
</g>
<!-- Node20&#45;&gt;Node8 -->
<g id="edge39" class="edge">
<title>Node20&#45;&gt;Node8</title>
<path fill="none" stroke="midnightblue" d="M479.03,-293.69C446.29,-287.82 408.73,-276.55 380.58,-255 350.27,-231.8 300.2,-127.36 280.7,-84.97"/>
<polygon fill="midnightblue" stroke="midnightblue" points="283.77,-83.26 276.43,-75.61 277.4,-86.17 283.77,-83.26"/>
</g>
<!-- Node20&#45;&gt;Node10 -->
<g id="edge37" class="edge">
<title>Node20&#45;&gt;Node10</title>
<path fill="none" stroke="midnightblue" d="M478.99,-292.84C430.04,-286.48 364.6,-275 309.58,-255 274.54,-242.26 237.76,-220.33 213.24,-204.3"/>
<polygon fill="midnightblue" stroke="midnightblue" points="215.06,-201.31 204.79,-198.69 211.19,-207.14 215.06,-201.31"/>
</g>
<!-- Node20&#45;&gt;Node13 -->
<g id="edge38" class="edge">
<title>Node20&#45;&gt;Node13</title>
<path fill="none" stroke="midnightblue" d="M550.88,-291.19C549.45,-277.86 545.15,-252.31 532.58,-235 521,-219.05 502.75,-206.52 487.28,-197.93"/>
<polygon fill="midnightblue" stroke="midnightblue" points="488.56,-194.65 478.08,-193.1 485.3,-200.85 488.56,-194.65"/>
</g>
<!-- Node21 -->
<g id="node21" class="node">
<title>Node21</title>
<g id="a_node21"><a xlink:href="zwave__rx__definitions_8h.html" target="_top" xlink:title=" ">
<polygon fill="none" stroke="black" points="579.58,-235.5 579.58,-254.5 695.58,-254.5 695.58,-235.5 579.58,-235.5"/>
<text text-anchor="middle" x="637.58" y="-242.5" font-family="Helvetica,sans-Serif" font-size="10.00">zwave_rx_definitions.h</text>
</a>
</g>
</g>
<!-- Node20&#45;&gt;Node21 -->
<g id="edge35" class="edge">
<title>Node20&#45;&gt;Node21</title>
<path fill="none" stroke="midnightblue" d="M565.39,-291.32C578.81,-282.9 599.4,-269.97 615.16,-260.07"/>
<polygon fill="midnightblue" stroke="midnightblue" points="617.19,-262.94 623.79,-254.65 613.46,-257.01 617.19,-262.94"/>
</g>
<!-- Node22 -->
<g id="node22" class="node">
<title>Node22</title>
<g id="a_node22"><a xlink:href="zwapi__protocol__transport_8h.html" target="_top" xlink:title="Z&#45;Wave API for transport application layer interface.">
<polygon fill="none" stroke="black" points="763.58,-112.5 763.58,-131.5 897.58,-131.5 897.58,-112.5 763.58,-112.5"/>
<text text-anchor="middle" x="830.58" y="-119.5" font-family="Helvetica,sans-Serif" font-size="10.00">zwapi_protocol_transport.h</text>
</a>
</g>
</g>
<!-- Node20&#45;&gt;Node22 -->
<g id="edge40" class="edge">
<title>Node20&#45;&gt;Node22</title>
<path fill="none" stroke="midnightblue" d="M624.36,-299.96C715.1,-298.38 863.21,-290.27 903.58,-255 933.12,-229.18 939.05,-201.47 918.58,-168 909.07,-152.46 892.31,-142.07 875.96,-135.23"/>
<polygon fill="midnightblue" stroke="midnightblue" points="877.02,-131.89 866.43,-131.6 874.53,-138.43 877.02,-131.89"/>
</g>
<!-- Node21&#45;&gt;Node12 -->
<g id="edge36" class="edge">
<title>Node21&#45;&gt;Node12</title>
<path fill="none" stroke="midnightblue" d="M634.57,-235.48C632.04,-228.32 628.31,-217.75 624.9,-208.08"/>
<polygon fill="midnightblue" stroke="midnightblue" points="628.16,-206.79 621.53,-198.52 621.55,-209.12 628.16,-206.79"/>
</g>
<!-- Node22&#45;&gt;Node3 -->
<g id="edge41" class="edge">
<title>Node22&#45;&gt;Node3</title>
<path fill="none" stroke="midnightblue" d="M826.88,-112.17C820.38,-97.85 805.51,-69.77 783.58,-56 747.9,-33.59 626.82,-19.69 566.43,-13.99"/>
<polygon fill="midnightblue" stroke="midnightblue" points="566.52,-10.48 556.24,-13.05 565.87,-17.45 566.52,-10.48"/>
</g>
<!-- Node22&#45;&gt;Node5 -->
<g id="edge42" class="edge">
<title>Node22&#45;&gt;Node5</title>
<path fill="none" stroke="midnightblue" d="M825.2,-112.46C815.61,-98.04 794.04,-69.15 767.58,-56 752.88,-48.7 528.5,-24.58 436.99,-14.99"/>
<polygon fill="midnightblue" stroke="midnightblue" points="437.08,-11.48 426.77,-13.92 436.35,-18.44 437.08,-11.48"/>
</g>
<!-- Node22&#45;&gt;Node7 -->
<g id="edge44" class="edge">
<title>Node22&#45;&gt;Node7</title>
<path fill="none" stroke="midnightblue" d="M807.92,-112.44C784.18,-103.48 746.67,-89.31 719.84,-79.18"/>
<polygon fill="midnightblue" stroke="midnightblue" points="720.72,-75.77 710.13,-75.52 718.25,-82.32 720.72,-75.77"/>
</g>
<!-- Node22&#45;&gt;Node14 -->
<g id="edge43" class="edge">
<title>Node22&#45;&gt;Node14</title>
<path fill="none" stroke="midnightblue" d="M845.84,-112.32C860.8,-103.82 883.83,-90.73 901.3,-80.8"/>
<polygon fill="midnightblue" stroke="midnightblue" points="903.39,-83.64 910.35,-75.65 899.93,-77.55 903.39,-83.64"/>
</g>
<!-- Node23&#45;&gt;Node12 -->
<g id="edge47" class="edge">
<title>Node23&#45;&gt;Node12</title>
<path fill="none" stroke="midnightblue" d="M826.91,-235.79C790.25,-226.85 730.65,-212.32 684.24,-201"/>
<polygon fill="midnightblue" stroke="midnightblue" points="684.79,-197.53 674.25,-198.56 683.14,-204.33 684.79,-197.53"/>
</g>
<!-- Node23&#45;&gt;Node14 -->
<g id="edge46" class="edge">
<title>Node23&#45;&gt;Node14</title>
<path fill="none" stroke="midnightblue" d="M876.3,-235.47C889.39,-227.62 907.59,-214.8 918.58,-199 941.28,-166.34 945.55,-151.33 939.58,-112 938.21,-103 935.39,-93.33 932.63,-85.26"/>
<polygon fill="midnightblue" stroke="midnightblue" points="935.89,-83.98 929.18,-75.78 929.31,-86.37 935.89,-83.98"/>
</g>
<!-- Node23&#45;&gt;Node22 -->
<g id="edge48" class="edge">
<title>Node23&#45;&gt;Node22</title>
<path fill="none" stroke="midnightblue" d="M872.79,-235.24C882.93,-227.14 896.62,-214.11 902.58,-199 907.63,-186.18 909.26,-180.05 902.58,-168 894.49,-153.41 879.47,-142.92 865.24,-135.76"/>
<polygon fill="midnightblue" stroke="midnightblue" points="866.63,-132.55 856.08,-131.53 863.69,-138.9 866.63,-132.55"/>
</g>
<!-- Node24 -->
<g id="node24" class="node">
<title>Node24</title>
<g id="a_node24"><a xlink:href="zwapi__protocol__basis_8h.html" target="_top" xlink:title="Z&#45;Wave API for basis controller/end node application interface.">
<polygon fill="none" stroke="black" points="626.08,-112.5 626.08,-131.5 745.08,-131.5 745.08,-112.5 626.08,-112.5"/>
<text text-anchor="middle" x="685.58" y="-119.5" font-family="Helvetica,sans-Serif" font-size="10.00">zwapi_protocol_basis.h</text>
</a>
</g>
</g>
<!-- Node23&#45;&gt;Node24 -->
<g id="edge49" class="edge">
<title>Node23&#45;&gt;Node24</title>
<path fill="none" stroke="midnightblue" d="M865.17,-235.41C872.66,-220.1 885.16,-187.86 869.58,-168 861.61,-157.84 794.18,-143.22 743.24,-133.42"/>
<polygon fill="midnightblue" stroke="midnightblue" points="743.77,-129.96 733.29,-131.53 742.47,-136.84 743.77,-129.96"/>
</g>
<!-- Node25 -->
<g id="node25" class="node">
<title>Node25</title>
<g id="a_node25"><a xlink:href="zwave__tx__definitions_8h.html" target="_top" xlink:title=" ">
<polygon fill="none" stroke="black" points="744.58,-174 744.58,-193 860.58,-193 860.58,-174 744.58,-174"/>
<text text-anchor="middle" x="802.58" y="-181" font-family="Helvetica,sans-Serif" font-size="10.00">zwave_tx_definitions.h</text>
</a>
</g>
</g>
<!-- Node23&#45;&gt;Node25 -->
<g id="edge55" class="edge">
<title>Node23&#45;&gt;Node25</title>
<path fill="none" stroke="midnightblue" d="M852.27,-235.48C843.4,-226.37 829.13,-211.74 818.16,-200.48"/>
<polygon fill="midnightblue" stroke="midnightblue" points="820.36,-197.73 810.87,-193.01 815.35,-202.61 820.36,-197.73"/>
</g>
<!-- Node24&#45;&gt;Node3 -->
<g id="edge50" class="edge">
<title>Node24&#45;&gt;Node3</title>
<path fill="none" stroke="midnightblue" d="M712.43,-112.47C743.38,-101.26 787.55,-80.14 767.58,-56 742.43,-25.61 625.61,-15.56 566.31,-12.39"/>
<polygon fill="midnightblue" stroke="midnightblue" points="566.45,-8.89 556.29,-11.89 566.1,-15.88 566.45,-8.89"/>
</g>
<!-- Node24&#45;&gt;Node5 -->
<g id="edge51" class="edge">
<title>Node24&#45;&gt;Node5</title>
<path fill="none" stroke="midnightblue" d="M663.06,-112.37C612.34,-92.93 489.05,-45.67 430.48,-23.23"/>
<polygon fill="midnightblue" stroke="midnightblue" points="431.58,-19.9 420.99,-19.59 429.08,-26.44 431.58,-19.9"/>
</g>
<!-- Node24&#45;&gt;Node7 -->
<g id="edge54" class="edge">
<title>Node24&#45;&gt;Node7</title>
<path fill="none" stroke="midnightblue" d="M685.91,-112.08C686.17,-105.01 686.55,-94.86 686.87,-85.99"/>
<polygon fill="midnightblue" stroke="midnightblue" points="690.38,-85.87 687.25,-75.75 683.39,-85.61 690.38,-85.87"/>
</g>
<!-- Node24&#45;&gt;Node9 -->
<g id="edge53" class="edge">
<title>Node24&#45;&gt;Node9</title>
<path fill="none" stroke="midnightblue" d="M646.12,-112.44C602.69,-103.02 532.79,-87.87 485.8,-77.68"/>
<polygon fill="midnightblue" stroke="midnightblue" points="486.36,-74.22 475.85,-75.52 484.88,-81.06 486.36,-74.22"/>
</g>
<!-- Node24&#45;&gt;Node14 -->
<g id="edge52" class="edge">
<title>Node24&#45;&gt;Node14</title>
<path fill="none" stroke="midnightblue" d="M723.61,-112.44C766.98,-102.68 837.73,-86.77 882.94,-76.59"/>
<polygon fill="midnightblue" stroke="midnightblue" points="883.75,-80 892.74,-74.39 882.22,-73.17 883.75,-80"/>
</g>
<!-- Node25&#45;&gt;Node6 -->
<g id="edge56" class="edge">
<title>Node25&#45;&gt;Node6</title>
<path fill="none" stroke="midnightblue" d="M751.71,-173.98C687.52,-163.22 577.23,-144.73 508.58,-133.22"/>
<polygon fill="midnightblue" stroke="midnightblue" points="508.79,-129.71 498.35,-131.51 507.63,-136.61 508.79,-129.71"/>
</g>
<!-- Node26&#45;&gt;Node12 -->
<g id="edge58" class="edge">
<title>Node26&#45;&gt;Node12</title>
<path fill="none" stroke="midnightblue" d="M728.81,-235.48C710.07,-226.96 680.69,-213.62 656.69,-202.72"/>
<polygon fill="midnightblue" stroke="midnightblue" points="658,-199.47 647.45,-198.52 655.11,-205.85 658,-199.47"/>
</g>
<!-- Node26&#45;&gt;Node14 -->
<g id="edge59" class="edge">
<title>Node26&#45;&gt;Node14</title>
<path fill="none" stroke="midnightblue" d="M742.41,-235.38C733.94,-220.03 719.59,-187.71 735.58,-168 784.51,-107.69 849.59,-184.77 906.58,-132 919.24,-120.28 923.63,-100.63 925.07,-86"/>
<polygon fill="midnightblue" stroke="midnightblue" points="928.59,-85.78 925.69,-75.59 921.6,-85.36 928.59,-85.78"/>
</g>
</g>
</svg>
