<?xml version="1.0" encoding="UTF-8" standalone="no"?>
<!DOCTYPE svg PUBLIC "-//W3C//DTD SVG 1.1//EN"
 "http://www.w3.org/Graphics/SVG/1.1/DTD/svg11.dtd">
<!-- Generated by graphviz version 2.43.0 (0)
 -->
<!-- Title: s0_send_key_set Pages: 1 -->
<svg width="985pt" height="376pt"
 viewBox="0.00 0.00 985.00 375.50" xmlns="http://www.w3.org/2000/svg" xmlns:xlink="http://www.w3.org/1999/xlink">
<g id="graph0" class="graph" transform="scale(1 1) rotate(0) translate(4 371.5)">
<title>s0_send_key_set</title>
<!-- Node1 -->
<g id="node1" class="node">
<title>Node1</title>
<g id="a_node1"><a xlink:title=" ">
<polygon fill="#bfbfbf" stroke="black" points="0,-209.5 0,-228.5 93,-228.5 93,-209.5 0,-209.5"/>
<text text-anchor="middle" x="46.5" y="-216.5" font-family="Helvetica,sans-Serif" font-size="10.00">s0_send_key_set</text>
</a>
</g>
</g>
<!-- Node2 -->
<g id="node2" class="node">
<title>Node2</title>
<g id="a_node2"><a xlink:href="zwave__s2__keystore_8c.html#a1f1d747c23d661a2e64ebb4812ed2faa" target="_top" xlink:title=" ">
<polygon fill="none" stroke="black" points="680,-342.5 680,-361.5 819,-361.5 819,-342.5 680,-342.5"/>
<text text-anchor="middle" x="749.5" y="-349.5" font-family="Helvetica,sans-Serif" font-size="10.00">keystore_network_key_read</text>
</a>
</g>
</g>
<!-- Node1&#45;&gt;Node2 -->
<g id="edge1" class="edge">
<title>Node1&#45;&gt;Node2</title>
<path fill="none" stroke="midnightblue" d="M58.52,-228.57C94.81,-259.06 214.99,-352 331.5,-352 331.5,-352 331.5,-352 461.5,-352 531.89,-352 611.99,-352 669.65,-352"/>
<polygon fill="midnightblue" stroke="midnightblue" points="669.78,-355.5 679.78,-352 669.78,-348.5 669.78,-355.5"/>
</g>
<!-- Node4 -->
<g id="node4" class="node">
<title>Node4</title>
<g id="a_node4"><a xlink:href="zwave__s0__sm_8c.html#ad13d142fc4acb596e25c9e0b0afa6b8a" target="_top" xlink:title=" ">
<polygon fill="none" stroke="black" points="129,-226 129,-256 237,-256 237,-226 129,-226"/>
<text text-anchor="start" x="137" y="-244" font-family="Helvetica,sans-Serif" font-size="10.00">s0_bootstrap_frames</text>
<text text-anchor="middle" x="183" y="-233" font-family="Helvetica,sans-Serif" font-size="10.00">_generic_send</text>
</a>
</g>
</g>
<!-- Node1&#45;&gt;Node4 -->
<g id="edge3" class="edge">
<title>Node1&#45;&gt;Node4</title>
<path fill="none" stroke="midnightblue" d="M93.04,-226.45C101.25,-227.79 109.95,-229.22 118.57,-230.62"/>
<polygon fill="midnightblue" stroke="midnightblue" points="118.18,-234.11 128.61,-232.27 119.31,-227.2 118.18,-234.11"/>
</g>
<!-- Node15 -->
<g id="node15" class="node">
<title>Node15</title>
<g id="a_node15"><a xlink:href="group__zwave__s0__transport.html#ga0751a5b8e725df3e789789230b886395" target="_top" xlink:title="Set the S0 network key.">
<polygon fill="none" stroke="black" points="716,-0.5 716,-19.5 783,-19.5 783,-0.5 716,-0.5"/>
<text text-anchor="middle" x="749.5" y="-7.5" font-family="Helvetica,sans-Serif" font-size="10.00">s0_set_key</text>
</a>
</g>
</g>
<!-- Node1&#45;&gt;Node15 -->
<g id="edge27" class="edge">
<title>Node1&#45;&gt;Node15</title>
<path fill="none" stroke="midnightblue" d="M54.09,-209.26C82.25,-168.91 197.18,-17 331.5,-17 331.5,-17 331.5,-17 461.5,-17 548.12,-17 649.41,-13.77 705.52,-11.7"/>
<polygon fill="midnightblue" stroke="midnightblue" points="705.93,-15.19 715.79,-11.32 705.67,-8.19 705.93,-15.19"/>
</g>
<!-- Node3 -->
<g id="node3" class="node">
<title>Node3</title>
<g id="a_node3"><a xlink:href="group__zwave__s2__keystore.html#ga42cbe7b3856c32fcde78b52c3b0be2ae" target="_top" xlink:title="Get the set of the currently assigned keys.">
<polygon fill="none" stroke="black" points="855,-337 855,-367 977,-367 977,-337 855,-337"/>
<text text-anchor="start" x="863" y="-355" font-family="Helvetica,sans-Serif" font-size="10.00">zwave_s2_keystore_get</text>
<text text-anchor="middle" x="916" y="-344" font-family="Helvetica,sans-Serif" font-size="10.00">_assigned_keys</text>
</a>
</g>
</g>
<!-- Node2&#45;&gt;Node3 -->
<g id="edge2" class="edge">
<title>Node2&#45;&gt;Node3</title>
<path fill="none" stroke="midnightblue" d="M819.31,-352C827.7,-352 836.28,-352 844.68,-352"/>
<polygon fill="midnightblue" stroke="midnightblue" points="844.83,-355.5 854.83,-352 844.83,-348.5 844.83,-355.5"/>
</g>
<!-- Node5 -->
<g id="node5" class="node">
<title>Node5</title>
<g id="a_node5"><a xlink:href="zwave__s0__sm_8c.html#a4f4ada1cafbd76ff9d9af5fab6fe23eb" target="_top" xlink:title=" ">
<polygon fill="none" stroke="black" points="273,-130.5 273,-149.5 392,-149.5 392,-130.5 273,-130.5"/>
<text text-anchor="middle" x="332.5" y="-137.5" font-family="Helvetica,sans-Serif" font-size="10.00">s0_send_data_callback</text>
</a>
</g>
</g>
<!-- Node4&#45;&gt;Node5 -->
<g id="edge4" class="edge">
<title>Node4&#45;&gt;Node5</title>
<path fill="none" stroke="midnightblue" d="M206.08,-225.88C233.78,-206.91 281.03,-174.56 308.95,-155.44"/>
<polygon fill="midnightblue" stroke="midnightblue" points="311.01,-158.27 317.29,-149.73 307.06,-152.49 311.01,-158.27"/>
</g>
<!-- Node18 -->
<g id="node18" class="node">
<title>Node18</title>
<g id="a_node18"><a xlink:href="group__zwave__tx.html#gad1538f36d226fe8147c5e538625568df" target="_top" xlink:title="Queue and send frames to Z&#45;Wave nodes.">
<polygon fill="none" stroke="black" points="278,-266.5 278,-285.5 387,-285.5 387,-266.5 278,-266.5"/>
<text text-anchor="middle" x="332.5" y="-273.5" font-family="Helvetica,sans-Serif" font-size="10.00">zwave_tx_send_data</text>
</a>
</g>
</g>
<!-- Node4&#45;&gt;Node18 -->
<g id="edge26" class="edge">
<title>Node4&#45;&gt;Node18</title>
<path fill="none" stroke="midnightblue" d="M237.25,-253.64C251.59,-257.04 267.06,-260.71 281.23,-264.07"/>
<polygon fill="midnightblue" stroke="midnightblue" points="280.75,-267.56 291.29,-266.46 282.37,-260.74 280.75,-267.56"/>
</g>
<!-- Node6 -->
<g id="node6" class="node">
<title>Node6</title>
<g id="a_node6"><a xlink:href="zwave__s0__sm_8c.html#a20cff68208370a488cd06efdfeaaa7cb" target="_top" xlink:title=" ">
<polygon fill="none" stroke="black" points="697.5,-38.5 697.5,-57.5 801.5,-57.5 801.5,-38.5 697.5,-38.5"/>
<text text-anchor="middle" x="749.5" y="-45.5" font-family="Helvetica,sans-Serif" font-size="10.00">s0_incl_state_name</text>
</a>
</g>
</g>
<!-- Node5&#45;&gt;Node6 -->
<g id="edge5" class="edge">
<title>Node5&#45;&gt;Node6</title>
<path fill="none" stroke="midnightblue" d="M353.7,-130.39C372.54,-121.8 401.62,-109.43 428,-102 516.42,-77.09 621.98,-62.02 687.14,-54.36"/>
<polygon fill="midnightblue" stroke="midnightblue" points="687.71,-57.81 697.24,-53.19 686.9,-50.86 687.71,-57.81"/>
</g>
<!-- Node7 -->
<g id="node7" class="node">
<title>Node7</title>
<g id="a_node7"><a xlink:href="zwave__s0__sm_8c.html#a84e7be6182bb4e2f919fb2a3733e6ca1" target="_top" xlink:title=" ">
<polygon fill="none" stroke="black" points="529,-152.5 529,-171.5 644,-171.5 644,-152.5 529,-152.5"/>
<text text-anchor="middle" x="586.5" y="-159.5" font-family="Helvetica,sans-Serif" font-size="10.00">s0_sm_process_event</text>
</a>
</g>
</g>
<!-- Node5&#45;&gt;Node7 -->
<g id="edge6" class="edge">
<title>Node5&#45;&gt;Node7</title>
<path fill="none" stroke="midnightblue" d="M392.26,-145.13C430.13,-148.44 479.45,-152.74 518.78,-156.18"/>
<polygon fill="midnightblue" stroke="midnightblue" points="518.55,-159.67 528.81,-157.05 519.15,-152.69 518.55,-159.67"/>
</g>
<!-- Node17 -->
<g id="node17" class="node">
<title>Node17</title>
<g id="a_node17"><a xlink:href="zwave__s0__sm_8c.html#aaf909f4fdf4e6d4d910f4ab30f2e9c21" target="_top" xlink:title=" ">
<polygon fill="none" stroke="black" points="428,-111.5 428,-130.5 493,-130.5 493,-111.5 428,-111.5"/>
<text text-anchor="middle" x="460.5" y="-118.5" font-family="Helvetica,sans-Serif" font-size="10.00">s0_timeout</text>
</a>
</g>
</g>
<!-- Node5&#45;&gt;Node17 -->
<g id="edge23" class="edge">
<title>Node5&#45;&gt;Node17</title>
<path fill="none" stroke="midnightblue" d="M392.07,-131.17C400.75,-129.86 409.54,-128.53 417.78,-127.29"/>
<polygon fill="midnightblue" stroke="midnightblue" points="418.5,-130.72 427.87,-125.77 417.46,-123.8 418.5,-130.72"/>
</g>
<!-- Node7&#45;&gt;Node1 -->
<g id="edge15" class="edge">
<title>Node7&#45;&gt;Node1</title>
<path fill="none" stroke="midnightblue" d="M528.99,-167.99C425.51,-178.95 206.74,-202.13 103.58,-213.06"/>
<polygon fill="midnightblue" stroke="midnightblue" points="102.95,-209.61 93.37,-214.14 103.68,-216.57 102.95,-209.61"/>
</g>
<!-- Node7&#45;&gt;Node2 -->
<g id="edge7" class="edge">
<title>Node7&#45;&gt;Node2</title>
<path fill="none" stroke="midnightblue" d="M589.91,-171.88C597.58,-201.23 624.3,-288.62 680,-333 682.26,-334.8 684.68,-336.43 687.22,-337.91"/>
<polygon fill="midnightblue" stroke="midnightblue" points="685.68,-341.05 696.19,-342.36 688.79,-334.78 685.68,-341.05"/>
</g>
<!-- Node7&#45;&gt;Node6 -->
<g id="edge14" class="edge">
<title>Node7&#45;&gt;Node6</title>
<path fill="none" stroke="midnightblue" d="M611.72,-152.38C622.52,-147.22 634.85,-140.05 644,-131 667.2,-108.05 654.31,-87.12 680,-67 682.57,-64.98 685.35,-63.18 688.26,-61.57"/>
<polygon fill="midnightblue" stroke="midnightblue" points="689.77,-64.73 697.31,-57.29 686.77,-58.4 689.77,-64.73"/>
</g>
<!-- Node7&#45;&gt;Node7 -->
<g id="edge22" class="edge">
<title>Node7&#45;&gt;Node7</title>
<path fill="none" stroke="midnightblue" d="M567.08,-171.76C557.63,-180.57 564.11,-190 586.5,-190 600.85,-190 608.66,-186.13 609.94,-181.03"/>
<polygon fill="midnightblue" stroke="midnightblue" points="613.11,-179.54 605.92,-171.76 606.68,-182.32 613.11,-179.54"/>
</g>
<!-- Node8 -->
<g id="node8" class="node">
<title>Node8</title>
<g id="a_node8"><a xlink:href="zwave__s0__sm_8c.html#add560d910f441570d80bd78fb591f7f0" target="_top" xlink:title=" ">
<polygon fill="none" stroke="black" points="713,-114.5 713,-133.5 786,-133.5 786,-114.5 713,-114.5"/>
<text text-anchor="middle" x="749.5" y="-121.5" font-family="Helvetica,sans-Serif" font-size="10.00">reset_s0_sm</text>
</a>
</g>
</g>
<!-- Node7&#45;&gt;Node8 -->
<g id="edge8" class="edge">
<title>Node7&#45;&gt;Node8</title>
<path fill="none" stroke="midnightblue" d="M628.13,-152.41C650.95,-147.02 679.49,-140.29 703.06,-134.73"/>
<polygon fill="midnightblue" stroke="midnightblue" points="703.89,-138.13 712.82,-132.42 702.28,-131.31 703.89,-138.13"/>
</g>
<!-- Node9 -->
<g id="node9" class="node">
<title>Node9</title>
<g id="a_node9"><a xlink:href="zwave__s0__sm_8c.html#a5535f6c7a7f108f00512a88bbc3cf015" target="_top" xlink:title=" ">
<polygon fill="none" stroke="black" points="699.5,-76.5 699.5,-95.5 799.5,-95.5 799.5,-76.5 699.5,-76.5"/>
<text text-anchor="middle" x="749.5" y="-83.5" font-family="Helvetica,sans-Serif" font-size="10.00">s0_abort_bootstrap</text>
</a>
</g>
</g>
<!-- Node7&#45;&gt;Node9 -->
<g id="edge9" class="edge">
<title>Node7&#45;&gt;Node9</title>
<path fill="none" stroke="midnightblue" d="M606.41,-152.38C617.55,-146.52 631.8,-138.71 644,-131 660.68,-120.46 662.21,-113.55 680,-105 684.87,-102.66 690.07,-100.57 695.35,-98.7"/>
<polygon fill="midnightblue" stroke="midnightblue" points="696.47,-102.02 704.89,-95.59 694.3,-95.36 696.47,-102.02"/>
</g>
<!-- Node10 -->
<g id="node10" class="node">
<title>Node10</title>
<g id="a_node10"><a xlink:href="zwave__s0__sm_8c.html#ac4a1feff6714dea8c75a7bf410f8e7b3" target="_top" xlink:title=" ">
<polygon fill="none" stroke="black" points="705.5,-228.5 705.5,-247.5 793.5,-247.5 793.5,-228.5 705.5,-228.5"/>
<text text-anchor="middle" x="749.5" y="-235.5" font-family="Helvetica,sans-Serif" font-size="10.00">s0_action_name</text>
</a>
</g>
</g>
<!-- Node7&#45;&gt;Node10 -->
<g id="edge10" class="edge">
<title>Node7&#45;&gt;Node10</title>
<path fill="none" stroke="midnightblue" d="M600.33,-171.54C617.63,-184.01 649.74,-205.8 680,-219 685.43,-221.37 691.24,-223.52 697.09,-225.45"/>
<polygon fill="midnightblue" stroke="midnightblue" points="696.33,-228.88 706.92,-228.49 698.4,-222.19 696.33,-228.88"/>
</g>
<!-- Node11 -->
<g id="node11" class="node">
<title>Node11</title>
<g id="a_node11"><a xlink:href="zwave__s0__sm_8c.html#ae7d7875e43e863fb4d53684caa29c328" target="_top" xlink:title=" ">
<polygon fill="none" stroke="black" points="706.5,-190.5 706.5,-209.5 792.5,-209.5 792.5,-190.5 706.5,-190.5"/>
<text text-anchor="middle" x="749.5" y="-197.5" font-family="Helvetica,sans-Serif" font-size="10.00">s0_event_name</text>
</a>
</g>
</g>
<!-- Node7&#45;&gt;Node11 -->
<g id="edge11" class="edge">
<title>Node7&#45;&gt;Node11</title>
<path fill="none" stroke="midnightblue" d="M628.13,-171.59C649.47,-176.63 675.81,-182.84 698.41,-188.18"/>
<polygon fill="midnightblue" stroke="midnightblue" points="697.63,-191.59 708.17,-190.48 699.24,-184.78 697.63,-191.59"/>
</g>
<!-- Node12 -->
<g id="node12" class="node">
<title>Node12</title>
<g id="a_node12"><a xlink:href="zwave__s0__sm_8c.html#ab4101f12d142bd597954a665c6acc700" target="_top" xlink:title=" ">
<polygon fill="none" stroke="black" points="684.5,-152.5 684.5,-171.5 814.5,-171.5 814.5,-152.5 684.5,-152.5"/>
<text text-anchor="middle" x="749.5" y="-159.5" font-family="Helvetica,sans-Serif" font-size="10.00">s0_handle_net_key_verify</text>
</a>
</g>
</g>
<!-- Node7&#45;&gt;Node12 -->
<g id="edge12" class="edge">
<title>Node7&#45;&gt;Node12</title>
<path fill="none" stroke="midnightblue" d="M644.26,-155.52C653.97,-155.29 664.19,-155.21 674.27,-155.27"/>
<polygon fill="midnightblue" stroke="midnightblue" points="674.25,-158.77 684.29,-155.37 674.33,-151.77 674.25,-158.77"/>
</g>
<!-- Node13 -->
<g id="node13" class="node">
<title>Node13</title>
<g id="a_node13"><a xlink:href="zwave__s0__sm_8c.html#aa3efb68081afc5686d48ee8ee23696a1" target="_top" xlink:title=" ">
<polygon fill="none" stroke="black" points="693.5,-304.5 693.5,-323.5 805.5,-323.5 805.5,-304.5 693.5,-304.5"/>
<text text-anchor="middle" x="749.5" y="-311.5" font-family="Helvetica,sans-Serif" font-size="10.00">s0_send_scheme_get</text>
</a>
</g>
</g>
<!-- Node7&#45;&gt;Node13 -->
<g id="edge16" class="edge">
<title>Node7&#45;&gt;Node13</title>
<path fill="none" stroke="midnightblue" d="M591.45,-171.76C601.95,-196.42 632.97,-261.65 680,-295 682.72,-296.93 685.62,-298.66 688.65,-300.22"/>
<polygon fill="midnightblue" stroke="midnightblue" points="687.45,-303.51 698.01,-304.38 690.3,-297.12 687.45,-303.51"/>
</g>
<!-- Node14 -->
<g id="node14" class="node">
<title>Node14</title>
<g id="a_node14"><a xlink:href="zwave__s0__sm_8c.html#a042415cb1b240d0867977bb22cd4e0a7" target="_top" xlink:title=" ">
<polygon fill="none" stroke="black" points="687,-266.5 687,-285.5 812,-285.5 812,-266.5 687,-266.5"/>
<text text-anchor="middle" x="749.5" y="-273.5" font-family="Helvetica,sans-Serif" font-size="10.00">s0_send_scheme_inherit</text>
</a>
</g>
</g>
<!-- Node7&#45;&gt;Node14 -->
<g id="edge18" class="edge">
<title>Node7&#45;&gt;Node14</title>
<path fill="none" stroke="midnightblue" d="M596.46,-171.76C617.67,-194.8 669.95,-251.05 680,-257 683.64,-259.16 687.54,-261.08 691.56,-262.79"/>
<polygon fill="midnightblue" stroke="midnightblue" points="690.5,-266.13 701.09,-266.4 692.98,-259.58 690.5,-266.13"/>
</g>
<!-- Node7&#45;&gt;Node15 -->
<g id="edge20" class="edge">
<title>Node7&#45;&gt;Node15</title>
<path fill="none" stroke="midnightblue" d="M591.45,-152.24C601.95,-127.58 632.97,-62.35 680,-29 687.69,-23.55 696.89,-19.66 706.01,-16.88"/>
<polygon fill="midnightblue" stroke="midnightblue" points="707.03,-20.23 715.8,-14.29 705.24,-13.47 707.03,-20.23"/>
</g>
<!-- Node12&#45;&gt;Node7 -->
<g id="edge13" class="edge">
<title>Node12&#45;&gt;Node7</title>
<path fill="none" stroke="midnightblue" d="M684.29,-168.63C674.47,-168.78 664.31,-168.79 654.43,-168.66"/>
<polygon fill="midnightblue" stroke="midnightblue" points="654.32,-165.16 644.26,-168.48 654.2,-172.16 654.32,-165.16"/>
</g>
<!-- Node13&#45;&gt;Node4 -->
<g id="edge17" class="edge">
<title>Node13&#45;&gt;Node4</title>
<path fill="none" stroke="midnightblue" d="M693.2,-320.57C602.99,-329.35 419.54,-339.15 273,-295 250.31,-288.16 227.51,-274.16 210.67,-262.13"/>
<polygon fill="midnightblue" stroke="midnightblue" points="212.56,-259.18 202.44,-256.06 208.41,-264.81 212.56,-259.18"/>
</g>
<!-- Node14&#45;&gt;Node4 -->
<g id="edge19" class="edge">
<title>Node14&#45;&gt;Node4</title>
<path fill="none" stroke="midnightblue" d="M686.61,-272.16C578.51,-265.46 356.4,-251.69 247.3,-244.92"/>
<polygon fill="midnightblue" stroke="midnightblue" points="247.3,-241.42 237.11,-244.29 246.87,-248.4 247.3,-241.42"/>
</g>
<!-- Node16 -->
<g id="node16" class="node">
<title>Node16</title>
<g id="a_node16"><a xlink:href="zwave__s0__transport_8c.html#a81a1edfa8dd156b07bbe49d8c85095bf" target="_top" xlink:title=" ">
<polygon fill="none" stroke="black" points="881,-0.5 881,-19.5 951,-19.5 951,-0.5 881,-0.5"/>
<text text-anchor="middle" x="916" y="-7.5" font-family="Helvetica,sans-Serif" font-size="10.00">aes_encrypt</text>
</a>
</g>
</g>
<!-- Node15&#45;&gt;Node16 -->
<g id="edge21" class="edge">
<title>Node15&#45;&gt;Node16</title>
<path fill="none" stroke="midnightblue" d="M783.39,-10C808.42,-10 843.12,-10 870.6,-10"/>
<polygon fill="midnightblue" stroke="midnightblue" points="870.75,-13.5 880.75,-10 870.75,-6.5 870.75,-13.5"/>
</g>
<!-- Node17&#45;&gt;Node6 -->
<g id="edge24" class="edge">
<title>Node17&#45;&gt;Node6</title>
<path fill="none" stroke="midnightblue" d="M493.17,-117.38C530.11,-112.56 592.66,-102.54 644,-85 660.93,-79.22 663.3,-73.42 680,-67 686.05,-64.67 692.5,-62.5 698.93,-60.52"/>
<polygon fill="midnightblue" stroke="midnightblue" points="700.35,-63.75 708.95,-57.57 698.37,-57.04 700.35,-63.75"/>
</g>
<!-- Node17&#45;&gt;Node7 -->
<g id="edge25" class="edge">
<title>Node17&#45;&gt;Node7</title>
<path fill="none" stroke="midnightblue" d="M490.26,-130.51C507.12,-136.08 528.63,-143.2 546.95,-149.25"/>
<polygon fill="midnightblue" stroke="midnightblue" points="545.87,-152.58 556.47,-152.4 548.07,-145.94 545.87,-152.58"/>
</g>
</g>
</svg>
