<?xml version="1.0" encoding="UTF-8" standalone="no"?>
<!DOCTYPE svg PUBLIC "-//W3C//DTD SVG 1.1//EN"
 "http://www.w3.org/Graphics/SVG/1.1/DTD/svg11.dtd">
<!-- Generated by graphviz version 2.43.0 (0)
 -->
<!-- Title: applications/zpc/components/zwave/zwave_tx/include/zwave_tx.h Pages: 1 -->
<svg width="671pt" height="285pt"
 viewBox="0.00 0.00 671.10 285.00" xmlns="http://www.w3.org/2000/svg" xmlns:xlink="http://www.w3.org/1999/xlink">
<g id="graph0" class="graph" transform="scale(1 1) rotate(0) translate(4 281)">
<title>applications/zpc/components/zwave/zwave_tx/include/zwave_tx.h</title>
<!-- Node1 -->
<g id="node1" class="node">
<title>Node1</title>
<g id="a_node1"><a xlink:title=" ">
<polygon fill="#bfbfbf" stroke="black" points="139.12,-235.5 139.12,-276.5 282.12,-276.5 282.12,-235.5 139.12,-235.5"/>
<text text-anchor="start" x="147.12" y="-264.5" font-family="Helvetica,sans-Serif" font-size="10.00">applications/zpc/components</text>
<text text-anchor="start" x="147.12" y="-253.5" font-family="Helvetica,sans-Serif" font-size="10.00">/zwave/zwave_tx/include</text>
<text text-anchor="middle" x="210.62" y="-242.5" font-family="Helvetica,sans-Serif" font-size="10.00">/zwave_tx.h</text>
</a>
</g>
</g>
<!-- Node2 -->
<g id="node2" class="node">
<title>Node2</title>
<g id="a_node2"><a xlink:href="sl__status_8h.html" target="_top" xlink:title="SL Status Codes.">
<polygon fill="none" stroke="black" points="15.12,-56.5 15.12,-75.5 80.12,-75.5 80.12,-56.5 15.12,-56.5"/>
<text text-anchor="middle" x="47.62" y="-63.5" font-family="Helvetica,sans-Serif" font-size="10.00">sl_status.h</text>
</a>
</g>
</g>
<!-- Node1&#45;&gt;Node2 -->
<g id="edge1" class="edge">
<title>Node1&#45;&gt;Node2</title>
<path fill="none" stroke="midnightblue" d="M159.07,-235.44C116.54,-216.22 59.06,-182.4 32.62,-132 24.91,-117.29 30.55,-98.66 37,-85.12"/>
<polygon fill="midnightblue" stroke="midnightblue" points="40.29,-86.38 41.88,-75.9 34.11,-83.1 40.29,-86.38"/>
</g>
<!-- Node4 -->
<g id="node4" class="node">
<title>Node4</title>
<g id="a_node4"><a xlink:href="zwave__controller__connection__info_8h.html" target="_top" xlink:title=" ">
<polygon fill="none" stroke="black" points="239.12,-168.5 239.12,-198.5 382.12,-198.5 382.12,-168.5 239.12,-168.5"/>
<text text-anchor="start" x="247.12" y="-186.5" font-family="Helvetica,sans-Serif" font-size="10.00">zwave_controller_connection</text>
<text text-anchor="middle" x="310.62" y="-175.5" font-family="Helvetica,sans-Serif" font-size="10.00">_info.h</text>
</a>
</g>
</g>
<!-- Node1&#45;&gt;Node4 -->
<g id="edge3" class="edge">
<title>Node1&#45;&gt;Node4</title>
<path fill="none" stroke="midnightblue" d="M238.48,-235.36C252.04,-225.8 268.32,-214.33 281.98,-204.69"/>
<polygon fill="midnightblue" stroke="midnightblue" points="284.37,-207.29 290.52,-198.67 280.33,-201.57 284.37,-207.29"/>
</g>
<!-- Node10 -->
<g id="node10" class="node">
<title>Node10</title>
<g id="a_node10"><a xlink:href="zwapi__protocol__transport_8h.html" target="_top" xlink:title="Z&#45;Wave API for transport application layer interface.">
<polygon fill="none" stroke="black" points="41.62,-112.5 41.62,-131.5 175.62,-131.5 175.62,-112.5 41.62,-112.5"/>
<text text-anchor="middle" x="108.62" y="-119.5" font-family="Helvetica,sans-Serif" font-size="10.00">zwapi_protocol_transport.h</text>
</a>
</g>
</g>
<!-- Node1&#45;&gt;Node10 -->
<g id="edge13" class="edge">
<title>Node1&#45;&gt;Node10</title>
<path fill="none" stroke="midnightblue" d="M195.35,-235.24C175.26,-209.23 140.29,-163.98 121.48,-139.63"/>
<polygon fill="midnightblue" stroke="midnightblue" points="124.22,-137.46 115.34,-131.69 118.68,-141.74 124.22,-137.46"/>
</g>
<!-- Node11 -->
<g id="node11" class="node">
<title>Node11</title>
<g id="a_node11"><a xlink:href="zwapi__protocol__basis_8h.html" target="_top" xlink:title="Z&#45;Wave API for basis controller/end node application interface.">
<polygon fill="none" stroke="black" points="194.12,-112.5 194.12,-131.5 313.12,-131.5 313.12,-112.5 194.12,-112.5"/>
<text text-anchor="middle" x="253.62" y="-119.5" font-family="Helvetica,sans-Serif" font-size="10.00">zwapi_protocol_basis.h</text>
</a>
</g>
</g>
<!-- Node1&#45;&gt;Node11 -->
<g id="edge18" class="edge">
<title>Node1&#45;&gt;Node11</title>
<path fill="none" stroke="midnightblue" d="M213.35,-235.21C216.2,-217.29 221.4,-190.34 229.62,-168 233.1,-158.55 238.23,-148.61 242.85,-140.49"/>
<polygon fill="midnightblue" stroke="midnightblue" points="246.01,-142.02 248.09,-131.63 239.99,-138.45 246.01,-142.02"/>
</g>
<!-- Node12 -->
<g id="node12" class="node">
<title>Node12</title>
<g id="a_node12"><a xlink:href="zwave__tx__definitions_8h.html" target="_top" xlink:title=" ">
<polygon fill="none" stroke="black" points="400.62,-174 400.62,-193 516.62,-193 516.62,-174 400.62,-174"/>
<text text-anchor="middle" x="458.62" y="-181" font-family="Helvetica,sans-Serif" font-size="10.00">zwave_tx_definitions.h</text>
</a>
</g>
</g>
<!-- Node1&#45;&gt;Node12 -->
<g id="edge24" class="edge">
<title>Node1&#45;&gt;Node12</title>
<path fill="none" stroke="midnightblue" d="M279.38,-235.46C324.19,-222.72 381.1,-206.54 418.63,-195.87"/>
<polygon fill="midnightblue" stroke="midnightblue" points="420.02,-199.11 428.68,-193.01 418.1,-192.38 420.02,-199.11"/>
</g>
<!-- Node3 -->
<g id="node3" class="node">
<title>Node3</title>
<g id="a_node3"><a xlink:title=" ">
<polygon fill="none" stroke="#bfbfbf" points="172.12,-0.5 172.12,-19.5 221.12,-19.5 221.12,-0.5 172.12,-0.5"/>
<text text-anchor="middle" x="196.62" y="-7.5" font-family="Helvetica,sans-Serif" font-size="10.00">stdint.h</text>
</a>
</g>
</g>
<!-- Node2&#45;&gt;Node3 -->
<g id="edge2" class="edge">
<title>Node2&#45;&gt;Node3</title>
<path fill="none" stroke="midnightblue" d="M71.23,-56.44C96.08,-47.44 135.4,-33.19 163.38,-23.05"/>
<polygon fill="midnightblue" stroke="midnightblue" points="164.92,-26.21 173.12,-19.52 162.53,-19.63 164.92,-26.21"/>
</g>
<!-- Node5 -->
<g id="node5" class="node">
<title>Node5</title>
<g id="a_node5"><a xlink:href="zwave__controller__types_8h.html" target="_top" xlink:title=" ">
<polygon fill="none" stroke="black" points="394.62,-112.5 394.62,-131.5 522.62,-131.5 522.62,-112.5 394.62,-112.5"/>
<text text-anchor="middle" x="458.62" y="-119.5" font-family="Helvetica,sans-Serif" font-size="10.00">zwave_controller_types.h</text>
</a>
</g>
</g>
<!-- Node4&#45;&gt;Node5 -->
<g id="edge4" class="edge">
<title>Node4&#45;&gt;Node5</title>
<path fill="none" stroke="midnightblue" d="M345.7,-168.4C370.64,-158.37 403.83,-145.03 427.77,-135.4"/>
<polygon fill="midnightblue" stroke="midnightblue" points="429.12,-138.64 437.09,-131.66 426.5,-132.14 429.12,-138.64"/>
</g>
<!-- Node5&#45;&gt;Node3 -->
<g id="edge6" class="edge">
<title>Node5&#45;&gt;Node3</title>
<path fill="none" stroke="midnightblue" d="M465.62,-112.37C475.7,-98.84 491.66,-72.46 477.62,-56 461.81,-37.45 303.35,-20.75 231.6,-14.08"/>
<polygon fill="midnightblue" stroke="midnightblue" points="231.55,-10.56 221.27,-13.13 230.91,-17.53 231.55,-10.56"/>
</g>
<!-- Node6 -->
<g id="node6" class="node">
<title>Node6</title>
<g id="a_node6"><a xlink:title=" ">
<polygon fill="none" stroke="#bfbfbf" points="354.62,-0.5 354.62,-19.5 410.62,-19.5 410.62,-0.5 354.62,-0.5"/>
<text text-anchor="middle" x="382.62" y="-7.5" font-family="Helvetica,sans-Serif" font-size="10.00">stdbool.h</text>
</a>
</g>
</g>
<!-- Node5&#45;&gt;Node6 -->
<g id="edge5" class="edge">
<title>Node5&#45;&gt;Node6</title>
<path fill="none" stroke="midnightblue" d="M522.83,-119.61C593.7,-115.8 692.91,-102.35 653.62,-56 624.28,-21.38 488.79,-13.36 421.19,-11.53"/>
<polygon fill="midnightblue" stroke="midnightblue" points="421.03,-8.03 410.95,-11.29 420.87,-15.02 421.03,-8.03"/>
</g>
<!-- Node7 -->
<g id="node7" class="node">
<title>Node7</title>
<g id="a_node7"><a xlink:href="zwave__node__id__definitions_8h.html" target="_top" xlink:title=" ">
<polygon fill="none" stroke="black" points="174.62,-56.5 174.62,-75.5 316.62,-75.5 316.62,-56.5 174.62,-56.5"/>
<text text-anchor="middle" x="245.62" y="-63.5" font-family="Helvetica,sans-Serif" font-size="10.00">zwave_node_id_definitions.h</text>
</a>
</g>
</g>
<!-- Node5&#45;&gt;Node7 -->
<g id="edge7" class="edge">
<title>Node5&#45;&gt;Node7</title>
<path fill="none" stroke="midnightblue" d="M424.87,-112.44C388.11,-103.12 329.18,-88.18 289,-78"/>
<polygon fill="midnightblue" stroke="midnightblue" points="289.77,-74.58 279.22,-75.52 288.05,-81.37 289.77,-74.58"/>
</g>
<!-- Node8 -->
<g id="node8" class="node">
<title>Node8</title>
<g id="a_node8"><a xlink:href="zwave__generic__types_8h.html" target="_top" xlink:title=" ">
<polygon fill="none" stroke="black" points="525.12,-56.5 525.12,-75.5 644.12,-75.5 644.12,-56.5 525.12,-56.5"/>
<text text-anchor="middle" x="584.62" y="-63.5" font-family="Helvetica,sans-Serif" font-size="10.00">zwave_generic_types.h</text>
</a>
</g>
</g>
<!-- Node5&#45;&gt;Node8 -->
<g id="edge9" class="edge">
<title>Node5&#45;&gt;Node8</title>
<path fill="none" stroke="midnightblue" d="M478.59,-112.44C499.23,-103.6 531.69,-89.69 555.26,-79.59"/>
<polygon fill="midnightblue" stroke="midnightblue" points="556.94,-82.67 564.75,-75.52 554.18,-76.24 556.94,-82.67"/>
</g>
<!-- Node9 -->
<g id="node9" class="node">
<title>Node9</title>
<g id="a_node9"><a xlink:href="zwave__rf__region_8h.html" target="_top" xlink:title=" ">
<polygon fill="none" stroke="black" points="372.62,-56.5 372.62,-75.5 468.62,-75.5 468.62,-56.5 372.62,-56.5"/>
<text text-anchor="middle" x="420.62" y="-63.5" font-family="Helvetica,sans-Serif" font-size="10.00">zwave_rf_region.h</text>
</a>
</g>
</g>
<!-- Node5&#45;&gt;Node9 -->
<g id="edge11" class="edge">
<title>Node5&#45;&gt;Node9</title>
<path fill="none" stroke="midnightblue" d="M452.35,-112.08C446.98,-104.46 439.11,-93.26 432.54,-83.94"/>
<polygon fill="midnightblue" stroke="midnightblue" points="435.4,-81.91 426.78,-75.75 429.67,-85.94 435.4,-81.91"/>
</g>
<!-- Node7&#45;&gt;Node3 -->
<g id="edge8" class="edge">
<title>Node7&#45;&gt;Node3</title>
<path fill="none" stroke="midnightblue" d="M237.53,-56.08C230.47,-48.3 220.04,-36.8 211.47,-27.37"/>
<polygon fill="midnightblue" stroke="midnightblue" points="213.88,-24.8 204.56,-19.75 208.69,-29.51 213.88,-24.8"/>
</g>
<!-- Node8&#45;&gt;Node3 -->
<g id="edge10" class="edge">
<title>Node8&#45;&gt;Node3</title>
<path fill="none" stroke="midnightblue" d="M524.85,-56.68C442.73,-45.25 297.66,-25.06 231.39,-15.84"/>
<polygon fill="midnightblue" stroke="midnightblue" points="231.85,-12.37 221.46,-14.46 230.88,-19.3 231.85,-12.37"/>
</g>
<!-- Node9&#45;&gt;Node6 -->
<g id="edge12" class="edge">
<title>Node9&#45;&gt;Node6</title>
<path fill="none" stroke="midnightblue" d="M414.35,-56.08C408.98,-48.46 401.11,-37.26 394.54,-27.94"/>
<polygon fill="midnightblue" stroke="midnightblue" points="397.4,-25.91 388.78,-19.75 391.67,-29.94 397.4,-25.91"/>
</g>
<!-- Node10&#45;&gt;Node2 -->
<g id="edge16" class="edge">
<title>Node10&#45;&gt;Node2</title>
<path fill="none" stroke="midnightblue" d="M98.82,-112.32C89.81,-104.34 76.22,-92.31 65.31,-82.65"/>
<polygon fill="midnightblue" stroke="midnightblue" points="67.41,-79.84 57.6,-75.83 62.77,-85.08 67.41,-79.84"/>
</g>
<!-- Node10&#45;&gt;Node3 -->
<g id="edge14" class="edge">
<title>Node10&#45;&gt;Node3</title>
<path fill="none" stroke="midnightblue" d="M70.28,-112.48C32.72,-102.33 -15.97,-83.27 5.62,-56 24.77,-31.81 112.43,-19.33 162.07,-14.09"/>
<polygon fill="midnightblue" stroke="midnightblue" points="162.45,-17.57 172.05,-13.08 161.75,-10.6 162.45,-17.57"/>
</g>
<!-- Node10&#45;&gt;Node6 -->
<g id="edge15" class="edge">
<title>Node10&#45;&gt;Node6</title>
<path fill="none" stroke="midnightblue" d="M113.67,-112.23C122.34,-98 141.5,-70.06 165.62,-56 222.06,-23.11 299.08,-14.05 344.56,-11.68"/>
<polygon fill="midnightblue" stroke="midnightblue" points="344.75,-15.18 354.59,-11.24 344.45,-8.18 344.75,-15.18"/>
</g>
<!-- Node10&#45;&gt;Node7 -->
<g id="edge17" class="edge">
<title>Node10&#45;&gt;Node7</title>
<path fill="none" stroke="midnightblue" d="M130.33,-112.44C152.98,-103.52 188.7,-89.44 214.38,-79.32"/>
<polygon fill="midnightblue" stroke="midnightblue" points="216,-82.44 224.02,-75.52 213.43,-75.93 216,-82.44"/>
</g>
<!-- Node11&#45;&gt;Node2 -->
<g id="edge21" class="edge">
<title>Node11&#45;&gt;Node2</title>
<path fill="none" stroke="midnightblue" d="M220.98,-112.44C185.57,-103.16 128.91,-88.31 90.07,-78.13"/>
<polygon fill="midnightblue" stroke="midnightblue" points="90.67,-74.67 80.11,-75.52 88.9,-81.44 90.67,-74.67"/>
</g>
<!-- Node11&#45;&gt;Node3 -->
<g id="edge19" class="edge">
<title>Node11&#45;&gt;Node3</title>
<path fill="none" stroke="midnightblue" d="M217.77,-112.4C198.74,-105.81 177,-94.59 165.62,-76 155.9,-60.1 168.01,-40.68 179.82,-27.23"/>
<polygon fill="midnightblue" stroke="midnightblue" points="182.61,-29.38 186.94,-19.71 177.53,-24.56 182.61,-29.38"/>
</g>
<!-- Node11&#45;&gt;Node6 -->
<g id="edge20" class="edge">
<title>Node11&#45;&gt;Node6</title>
<path fill="none" stroke="midnightblue" d="M270.27,-112.43C285.5,-104.18 308.22,-90.8 325.62,-76 342.69,-61.48 359.24,-41.79 370.07,-27.9"/>
<polygon fill="midnightblue" stroke="midnightblue" points="373.02,-29.79 376.3,-19.72 367.46,-25.55 373.02,-29.79"/>
</g>
<!-- Node11&#45;&gt;Node7 -->
<g id="edge23" class="edge">
<title>Node11&#45;&gt;Node7</title>
<path fill="none" stroke="midnightblue" d="M252.3,-112.08C251.24,-104.93 249.72,-94.64 248.39,-85.69"/>
<polygon fill="midnightblue" stroke="midnightblue" points="251.85,-85.13 246.92,-75.75 244.92,-86.16 251.85,-85.13"/>
</g>
<!-- Node11&#45;&gt;Node9 -->
<g id="edge22" class="edge">
<title>Node11&#45;&gt;Node9</title>
<path fill="none" stroke="midnightblue" d="M280.09,-112.44C308.3,-103.32 353.16,-88.81 384.59,-78.65"/>
<polygon fill="midnightblue" stroke="midnightblue" points="385.85,-81.92 394.29,-75.52 383.69,-75.26 385.85,-81.92"/>
</g>
<!-- Node12&#45;&gt;Node5 -->
<g id="edge25" class="edge">
<title>Node12&#45;&gt;Node5</title>
<path fill="none" stroke="midnightblue" d="M458.62,-173.98C458.62,-165.58 458.62,-152.48 458.62,-141.66"/>
<polygon fill="midnightblue" stroke="midnightblue" points="462.12,-141.51 458.62,-131.51 455.12,-141.51 462.12,-141.51"/>
</g>
</g>
</svg>
