<?xml version="1.0" encoding="UTF-8" standalone="no"?>
<!DOCTYPE svg PUBLIC "-//W3C//DTD SVG 1.1//EN"
 "http://www.w3.org/Graphics/SVG/1.1/DTD/svg11.dtd">
<!-- Generated by graphviz version 2.43.0 (0)
 -->
<!-- Title: create_list_of_keys_protocol_to_resolve Pages: 1 -->
<svg width="633pt" height="88pt"
 viewBox="0.00 0.00 633.00 88.00" xmlns="http://www.w3.org/2000/svg" xmlns:xlink="http://www.w3.org/1999/xlink">
<g id="graph0" class="graph" transform="scale(1 1) rotate(0) translate(4 84)">
<title>create_list_of_keys_protocol_to_resolve</title>
<!-- Node1 -->
<g id="node1" class="node">
<title>Node1</title>
<g id="a_node1"><a xlink:title="Create a list of keys/protocol objects to resolve.">
<polygon fill="#bfbfbf" stroke="black" points="518,-24.5 518,-54.5 625,-54.5 625,-24.5 518,-24.5"/>
<text text-anchor="start" x="526" y="-42.5" font-family="Helvetica,sans-Serif" font-size="10.00">create_list_of_keys</text>
<text text-anchor="middle" x="571.5" y="-31.5" font-family="Helvetica,sans-Serif" font-size="10.00">_protocol_to_resolve</text>
</a>
</g>
</g>
<!-- Node2 -->
<g id="node2" class="node">
<title>Node2</title>
<g id="a_node2"><a xlink:href="zwave__command__class__granted__keys__resolver_8c.html#a74a98b0cd4bbe97369750b3f46c1fbee" target="_top" xlink:title=" ">
<polygon fill="none" stroke="black" points="360,-49.5 360,-79.5 482,-79.5 482,-49.5 360,-49.5"/>
<text text-anchor="start" x="368" y="-67.5" font-family="Helvetica,sans-Serif" font-size="10.00">zwave_command_class</text>
<text text-anchor="middle" x="421" y="-56.5" font-family="Helvetica,sans-Serif" font-size="10.00">_get_granted_keys</text>
</a>
</g>
</g>
<!-- Node1&#45;&gt;Node2 -->
<g id="edge1" class="edge">
<title>Node1&#45;&gt;Node2</title>
<path fill="none" stroke="midnightblue" d="M507.59,-50.09C499.18,-51.51 490.56,-52.96 482.2,-54.37"/>
<polygon fill="midnightblue" stroke="midnightblue" points="508.45,-53.5 517.73,-48.38 507.28,-46.59 508.45,-53.5"/>
</g>
<!-- Node5 -->
<g id="node5" class="node">
<title>Node5</title>
<g id="a_node5"><a xlink:href="zwave__command__class__granted__keys__resolver_8c.html#a01f00fa8761d22472cefe7c8d53266cf" target="_top" xlink:title=" ">
<polygon fill="none" stroke="black" points="360,-0.5 360,-30.5 482,-30.5 482,-0.5 360,-0.5"/>
<text text-anchor="start" x="368" y="-18.5" font-family="Helvetica,sans-Serif" font-size="10.00">zwave_command_class</text>
<text text-anchor="middle" x="421" y="-7.5" font-family="Helvetica,sans-Serif" font-size="10.00">_get_inclusion_protocol</text>
</a>
</g>
</g>
<!-- Node1&#45;&gt;Node5 -->
<g id="edge4" class="edge">
<title>Node1&#45;&gt;Node5</title>
<path fill="none" stroke="midnightblue" d="M507.59,-29.33C499.18,-27.97 490.56,-26.58 482.2,-25.23"/>
<polygon fill="midnightblue" stroke="midnightblue" points="507.3,-32.83 517.73,-30.97 508.41,-25.92 507.3,-32.83"/>
</g>
<!-- Node3 -->
<g id="node3" class="node">
<title>Node3</title>
<g id="a_node3"><a xlink:href="group__zwave__granted__keys.html#ga1e9daa986c6a8ce94e4301aaa01e74a4" target="_top" xlink:title="Registers callbacks to the attribute store and rules to the attribute resolver to be able to resolve ...">
<polygon fill="none" stroke="black" points="186,-24.5 186,-54.5 324,-54.5 324,-24.5 186,-24.5"/>
<text text-anchor="start" x="194" y="-42.5" font-family="Helvetica,sans-Serif" font-size="10.00">zwave_command_class</text>
<text text-anchor="middle" x="255" y="-31.5" font-family="Helvetica,sans-Serif" font-size="10.00">_granted_keys_resolver_init</text>
</a>
</g>
</g>
<!-- Node2&#45;&gt;Node3 -->
<g id="edge2" class="edge">
<title>Node2&#45;&gt;Node3</title>
<path fill="none" stroke="midnightblue" d="M349.94,-53.82C341.4,-52.52 332.68,-51.19 324.17,-49.89"/>
<polygon fill="midnightblue" stroke="midnightblue" points="349.45,-57.29 359.86,-55.33 350.51,-50.37 349.45,-57.29"/>
</g>
<!-- Node4 -->
<g id="node4" class="node">
<title>Node4</title>
<g id="a_node4"><a xlink:href="group__command__classes__fixt.html#ga5272651939ced1723158340039e8da19" target="_top" xlink:title="Setup fixture for Z&#45;Wave Command Classes.">
<polygon fill="none" stroke="black" points="0,-30 0,-49 150,-49 150,-30 0,-30"/>
<text text-anchor="middle" x="75" y="-37" font-family="Helvetica,sans-Serif" font-size="10.00">zwave_command_classes_init</text>
</a>
</g>
</g>
<!-- Node3&#45;&gt;Node4 -->
<g id="edge3" class="edge">
<title>Node3&#45;&gt;Node4</title>
<path fill="none" stroke="midnightblue" d="M175.71,-39.5C167.25,-39.5 158.66,-39.5 150.24,-39.5"/>
<polygon fill="midnightblue" stroke="midnightblue" points="175.94,-43 185.94,-39.5 175.94,-36 175.94,-43"/>
</g>
<!-- Node5&#45;&gt;Node3 -->
<g id="edge5" class="edge">
<title>Node5&#45;&gt;Node3</title>
<path fill="none" stroke="midnightblue" d="M349.94,-25.75C341.4,-27 332.68,-28.28 324.17,-29.52"/>
<polygon fill="midnightblue" stroke="midnightblue" points="350.48,-29.21 359.86,-24.3 349.46,-22.29 350.48,-29.21"/>
</g>
</g>
</svg>
