<?xml version="1.0" encoding="UTF-8" standalone="no"?>
<!DOCTYPE svg PUBLIC "-//W3C//DTD SVG 1.1//EN"
 "http://www.w3.org/Graphics/SVG/1.1/DTD/svg11.dtd">
<!-- Generated by graphviz version 2.43.0 (0)
 -->
<!-- Title: zwave_command_class_version_handle_report_command Pages: 1 -->
<svg width="635pt" height="50pt"
 viewBox="0.00 0.00 635.00 50.00" xmlns="http://www.w3.org/2000/svg" xmlns:xlink="http://www.w3.org/1999/xlink">
<g id="graph0" class="graph" transform="scale(1 1) rotate(0) translate(4 46)">
<title>zwave_command_class_version_handle_report_command</title>
<!-- Node1 -->
<g id="node1" class="node">
<title>Node1</title>
<g id="a_node1"><a xlink:title=" ">
<polygon fill="#bfbfbf" stroke="black" points="505,-0.5 505,-41.5 627,-41.5 627,-0.5 505,-0.5"/>
<text text-anchor="start" x="513" y="-29.5" font-family="Helvetica,sans-Serif" font-size="10.00">zwave_command_class</text>
<text text-anchor="start" x="513" y="-18.5" font-family="Helvetica,sans-Serif" font-size="10.00">_version_handle_report</text>
<text text-anchor="middle" x="566" y="-7.5" font-family="Helvetica,sans-Serif" font-size="10.00">_command</text>
</a>
</g>
</g>
<!-- Node2 -->
<g id="node2" class="node">
<title>Node2</title>
<g id="a_node2"><a xlink:href="zwave__command__class__version_8c.html#accef6ff50ab7cccaa46da3b8699ef072" target="_top" xlink:title=" ">
<polygon fill="none" stroke="black" points="344,-6 344,-36 469,-36 469,-6 344,-6"/>
<text text-anchor="start" x="352" y="-24" font-family="Helvetica,sans-Serif" font-size="10.00">zwave_command_class</text>
<text text-anchor="middle" x="406.5" y="-13" font-family="Helvetica,sans-Serif" font-size="10.00">_version_control_handler</text>
</a>
</g>
</g>
<!-- Node1&#45;&gt;Node2 -->
<g id="edge1" class="edge">
<title>Node1&#45;&gt;Node2</title>
<path fill="none" stroke="midnightblue" d="M494.36,-21C485.93,-21 477.37,-21 469.08,-21"/>
<polygon fill="midnightblue" stroke="midnightblue" points="494.56,-24.5 504.56,-21 494.56,-17.5 494.56,-24.5"/>
</g>
<!-- Node3 -->
<g id="node3" class="node">
<title>Node3</title>
<g id="a_node3"><a xlink:href="group__zwave__command__class__version.html#gabae96a5c6c82334f5979f3b407b973e3" target="_top" xlink:title="Intitialize the Version Command Class control APIs.">
<polygon fill="none" stroke="black" points="186,-6 186,-36 308,-36 308,-6 186,-6"/>
<text text-anchor="start" x="194" y="-24" font-family="Helvetica,sans-Serif" font-size="10.00">zwave_command_class</text>
<text text-anchor="middle" x="247" y="-13" font-family="Helvetica,sans-Serif" font-size="10.00">_version_init</text>
</a>
</g>
</g>
<!-- Node2&#45;&gt;Node3 -->
<g id="edge2" class="edge">
<title>Node2&#45;&gt;Node3</title>
<path fill="none" stroke="midnightblue" d="M333.43,-21C324.95,-21 316.36,-21 308.07,-21"/>
<polygon fill="midnightblue" stroke="midnightblue" points="333.7,-24.5 343.7,-21 333.7,-17.5 333.7,-24.5"/>
</g>
<!-- Node4 -->
<g id="node4" class="node">
<title>Node4</title>
<g id="a_node4"><a xlink:href="group__command__classes__fixt.html#ga5272651939ced1723158340039e8da19" target="_top" xlink:title="Setup fixture for Z&#45;Wave Command Classes.">
<polygon fill="none" stroke="black" points="0,-11.5 0,-30.5 150,-30.5 150,-11.5 0,-11.5"/>
<text text-anchor="middle" x="75" y="-18.5" font-family="Helvetica,sans-Serif" font-size="10.00">zwave_command_classes_init</text>
</a>
</g>
</g>
<!-- Node3&#45;&gt;Node4 -->
<g id="edge3" class="edge">
<title>Node3&#45;&gt;Node4</title>
<path fill="none" stroke="midnightblue" d="M175.51,-21C167.16,-21 158.61,-21 150.21,-21"/>
<polygon fill="midnightblue" stroke="midnightblue" points="175.59,-24.5 185.59,-21 175.59,-17.5 175.59,-24.5"/>
</g>
</g>
</svg>
