<?xml version="1.0" encoding="UTF-8" standalone="no"?>
<!DOCTYPE svg PUBLIC "-//W3C//DTD SVG 1.1//EN"
 "http://www.w3.org/Graphics/SVG/1.1/DTD/svg11.dtd">
<!-- Generated by graphviz version 2.43.0 (0)
 -->
<!-- Title: on_zwave_tx_send_data_complete Pages: 1 -->
<svg width="773pt" height="138pt"
 viewBox="0.00 0.00 773.00 138.34" xmlns="http://www.w3.org/2000/svg" xmlns:xlink="http://www.w3.org/1999/xlink">
<g id="graph0" class="graph" transform="scale(1 1) rotate(0) translate(4 134.34)">
<title>on_zwave_tx_send_data_complete</title>
<!-- Node1 -->
<g id="node1" class="node">
<title>Node1</title>
<g id="a_node1"><a xlink:title=" ">
<polygon fill="#bfbfbf" stroke="black" points="640,-23.34 640,-53.34 765,-53.34 765,-23.34 640,-23.34"/>
<text text-anchor="start" x="648" y="-41.34" font-family="Helvetica,sans-Serif" font-size="10.00">on_zwave_tx_send_data</text>
<text text-anchor="middle" x="702.5" y="-30.34" font-family="Helvetica,sans-Serif" font-size="10.00">_complete</text>
</a>
</g>
</g>
<!-- Node2 -->
<g id="node2" class="node">
<title>Node2</title>
<g id="a_node2"><a xlink:href="zwave__transport__service__wrapper_8c.html#a1ecdc6b768ff564a70d88b535b5296db" target="_top" xlink:title=" ">
<polygon fill="none" stroke="black" points="510.5,-61.84 510.5,-80.84 572.5,-80.84 572.5,-61.84 510.5,-61.84"/>
<text text-anchor="middle" x="541.5" y="-68.84" font-family="Helvetica,sans-Serif" font-size="10.00">send_data</text>
</a>
</g>
</g>
<!-- Node1&#45;&gt;Node2 -->
<g id="edge1" class="edge">
<title>Node1&#45;&gt;Node2</title>
<path fill="none" stroke="midnightblue" d="M629.76,-53.23C609.62,-57.41 588.8,-61.73 572.56,-65.1"/>
<polygon fill="midnightblue" stroke="midnightblue" points="630.49,-56.65 639.57,-51.19 629.07,-49.8 630.49,-56.65"/>
</g>
<!-- Node7 -->
<g id="node7" class="node">
<title>Node7</title>
<g id="a_node7"><a xlink:href="group__transport__service__transport__wrapper.html#ga6216ae3a018a4028bfc3025695784f0e" target="_top" xlink:title="Sending a frame with Transport service.">
<polygon fill="none" stroke="black" points="479,-1.34 479,-31.34 604,-31.34 604,-1.34 479,-1.34"/>
<text text-anchor="start" x="487" y="-19.34" font-family="Helvetica,sans-Serif" font-size="10.00">zwave_transport_service</text>
<text text-anchor="middle" x="541.5" y="-8.34" font-family="Helvetica,sans-Serif" font-size="10.00">_send_data</text>
</a>
</g>
</g>
<!-- Node1&#45;&gt;Node7 -->
<g id="edge7" class="edge">
<title>Node1&#45;&gt;Node7</title>
<path fill="none" stroke="midnightblue" d="M629.41,-28.36C621.01,-27.2 612.5,-26.02 604.26,-24.88"/>
<polygon fill="midnightblue" stroke="midnightblue" points="629.19,-31.87 639.57,-29.77 630.15,-24.93 629.19,-31.87"/>
</g>
<!-- Node3 -->
<g id="node3" class="node">
<title>Node3</title>
<g id="a_node3"><a xlink:href="group__transport__service.html#gaccda0665f8cf81da0902333186d0c107" target="_top" xlink:title="Initialize the Transport Service.">
<polygon fill="none" stroke="black" points="321,-110.84 321,-129.84 431,-129.84 431,-110.84 321,-110.84"/>
<text text-anchor="middle" x="376" y="-117.84" font-family="Helvetica,sans-Serif" font-size="10.00">transport_service_init</text>
</a>
</g>
</g>
<!-- Node2&#45;&gt;Node3 -->
<g id="edge2" class="edge">
<title>Node2&#45;&gt;Node3</title>
<path fill="none" stroke="midnightblue" d="M500.2,-83.42C472.05,-91.85 434.98,-102.96 408.88,-110.78"/>
<polygon fill="midnightblue" stroke="midnightblue" points="501.56,-86.66 510.13,-80.44 499.55,-79.96 501.56,-86.66"/>
</g>
<!-- Node4 -->
<g id="node4" class="node">
<title>Node4</title>
<g id="a_node4"><a xlink:href="group__transport__service__transport__wrapper.html#gad02263e40b63853166ac8a7601954f33" target="_top" xlink:title=" ">
<polygon fill="none" stroke="black" points="148,-67.34 148,-97.34 273,-97.34 273,-67.34 148,-67.34"/>
<text text-anchor="start" x="156" y="-85.34" font-family="Helvetica,sans-Serif" font-size="10.00">zwave_transport_service</text>
<text text-anchor="middle" x="210.5" y="-74.34" font-family="Helvetica,sans-Serif" font-size="10.00">_transport_init</text>
</a>
</g>
</g>
<!-- Node2&#45;&gt;Node4 -->
<g id="edge6" class="edge">
<title>Node2&#45;&gt;Node4</title>
<path fill="none" stroke="midnightblue" d="M500.41,-72.68C443.71,-74.58 339.57,-78.06 273.03,-80.28"/>
<polygon fill="midnightblue" stroke="midnightblue" points="500.55,-76.18 510.43,-72.34 500.32,-69.18 500.55,-76.18"/>
</g>
<!-- Node6 -->
<g id="node6" class="node">
<title>Node6</title>
<g id="a_node6"><a xlink:href="group__zwave__controller__internal.html#gaf85e8cb66047a273304b481d0e1c46c2" target="_top" xlink:title="Send a frame with transport plugin system.">
<polygon fill="none" stroke="black" points="309,-23.34 309,-53.34 443,-53.34 443,-23.34 309,-23.34"/>
<text text-anchor="start" x="317" y="-41.34" font-family="Helvetica,sans-Serif" font-size="10.00">zwave_controller_transport</text>
<text text-anchor="middle" x="376" y="-30.34" font-family="Helvetica,sans-Serif" font-size="10.00">_send_data</text>
</a>
</g>
</g>
<!-- Node2&#45;&gt;Node6 -->
<g id="edge5" class="edge">
<title>Node2&#45;&gt;Node6</title>
<path fill="none" stroke="midnightblue" d="M499.91,-63.15C482.76,-59.69 462.34,-55.56 443.12,-51.68"/>
<polygon fill="midnightblue" stroke="midnightblue" points="499.64,-66.66 510.13,-65.21 501.02,-59.8 499.64,-66.66"/>
</g>
<!-- Node3&#45;&gt;Node4 -->
<g id="edge3" class="edge">
<title>Node3&#45;&gt;Node4</title>
<path fill="none" stroke="midnightblue" d="M323.98,-108.48C307.88,-104.74 289.92,-100.56 273.15,-96.67"/>
<polygon fill="midnightblue" stroke="midnightblue" points="323.21,-111.9 333.74,-110.75 324.79,-105.08 323.21,-111.9"/>
</g>
<!-- Node5 -->
<g id="node5" class="node">
<title>Node5</title>
<g id="a_node5"><a xlink:href="group__zwave__transports__fixt.html#ga26fb2571e272a5094bd0320eca3a896d" target="_top" xlink:title="Setup fixture for Z&#45;Wave Transports.">
<polygon fill="none" stroke="black" points="0,-72.84 0,-91.84 112,-91.84 112,-72.84 0,-72.84"/>
<text text-anchor="middle" x="56" y="-79.84" font-family="Helvetica,sans-Serif" font-size="10.00">zwave_transports_init</text>
</a>
</g>
</g>
<!-- Node4&#45;&gt;Node5 -->
<g id="edge4" class="edge">
<title>Node4&#45;&gt;Node5</title>
<path fill="none" stroke="midnightblue" d="M137.64,-82.34C129.17,-82.34 120.62,-82.34 112.42,-82.34"/>
<polygon fill="midnightblue" stroke="midnightblue" points="137.91,-85.84 147.91,-82.34 137.91,-78.84 137.91,-85.84"/>
</g>
<!-- Node7&#45;&gt;Node4 -->
<g id="edge8" class="edge">
<title>Node7&#45;&gt;Node4</title>
<path fill="none" stroke="midnightblue" d="M468.98,-3.95C422.34,1.37 360.74,3.12 309,-13.34 275.8,-23.9 244.19,-50.31 226.37,-67.23"/>
<polygon fill="midnightblue" stroke="midnightblue" points="468.65,-7.43 479,-5.17 469.5,-0.49 468.65,-7.43"/>
</g>
</g>
</svg>
