<?xml version="1.0" encoding="UTF-8" standalone="no"?>
<!DOCTYPE svg PUBLIC "-//W3C//DTD SVG 1.1//EN"
 "http://www.w3.org/Graphics/SVG/1.1/DTD/svg11.dtd">
<!-- Generated by graphviz version 2.43.0 (0)
 -->
<!-- Title: applications/zpc/components/zwave/zwave_tx_scheme_selector/src/zwave_tx_scheme_selector.c Pages: 1 -->
<svg width="1412pt" height="419pt"
 viewBox="0.00 0.00 1411.50 419.00" xmlns="http://www.w3.org/2000/svg" xmlns:xlink="http://www.w3.org/1999/xlink">
<g id="graph0" class="graph" transform="scale(1 1) rotate(0) translate(4 415)">
<title>applications/zpc/components/zwave/zwave_tx_scheme_selector/src/zwave_tx_scheme_selector.c</title>
<!-- Node1 -->
<g id="node1" class="node">
<title>Node1</title>
<g id="a_node1"><a xlink:title=" ">
<polygon fill="#bfbfbf" stroke="black" points="374,-369.5 374,-410.5 547,-410.5 547,-369.5 374,-369.5"/>
<text text-anchor="start" x="382" y="-398.5" font-family="Helvetica,sans-Serif" font-size="10.00">applications/zpc/components</text>
<text text-anchor="start" x="382" y="-387.5" font-family="Helvetica,sans-Serif" font-size="10.00">/zwave/zwave_tx_scheme_selector</text>
<text text-anchor="middle" x="460.5" y="-376.5" font-family="Helvetica,sans-Serif" font-size="10.00">/src/zwave_tx_scheme_selector.c</text>
</a>
</g>
</g>
<!-- Node2 -->
<g id="node2" class="node">
<title>Node2</title>
<g id="a_node2"><a xlink:href="zwave__tx__scheme__selector_8h.html" target="_top" xlink:title=" ">
<polygon fill="none" stroke="black" points="504.5,-313.5 504.5,-332.5 650.5,-332.5 650.5,-313.5 504.5,-313.5"/>
<text text-anchor="middle" x="577.5" y="-320.5" font-family="Helvetica,sans-Serif" font-size="10.00">zwave_tx_scheme_selector.h</text>
</a>
</g>
</g>
<!-- Node1&#45;&gt;Node2 -->
<g id="edge1" class="edge">
<title>Node1&#45;&gt;Node2</title>
<path fill="none" stroke="midnightblue" d="M495.6,-369.5C514.06,-359.24 536.23,-346.93 552.85,-337.69"/>
<polygon fill="midnightblue" stroke="midnightblue" points="554.88,-340.57 561.93,-332.65 551.48,-334.45 554.88,-340.57"/>
</g>
<!-- Node10 -->
<g id="node10" class="node">
<title>Node10</title>
<g id="a_node10"><a xlink:href="zwave__controller__keyset_8h.html" target="_top" xlink:title=" ">
<polygon fill="none" stroke="black" points="274,-257.5 274,-276.5 407,-276.5 407,-257.5 274,-257.5"/>
<text text-anchor="middle" x="340.5" y="-264.5" font-family="Helvetica,sans-Serif" font-size="10.00">zwave_controller_keyset.h</text>
</a>
</g>
</g>
<!-- Node1&#45;&gt;Node10 -->
<g id="edge46" class="edge">
<title>Node1&#45;&gt;Node10</title>
<path fill="none" stroke="midnightblue" d="M407.64,-369.4C390.17,-360.63 372.02,-348.66 359.5,-333 348.84,-319.67 344.16,-300.55 342.11,-286.5"/>
<polygon fill="midnightblue" stroke="midnightblue" points="345.58,-286.06 340.96,-276.52 338.62,-286.86 345.58,-286.06"/>
</g>
<!-- Node15 -->
<g id="node15" class="node">
<title>Node15</title>
<g id="a_node15"><a xlink:href="zwapi__protocol__basis_8h.html" target="_top" xlink:title="Z&#45;Wave API for basis controller/end node application interface.">
<polygon fill="none" stroke="black" points="1056,-129 1056,-148 1175,-148 1175,-129 1056,-129"/>
<text text-anchor="middle" x="1115.5" y="-136" font-family="Helvetica,sans-Serif" font-size="10.00">zwapi_protocol_basis.h</text>
</a>
</g>
</g>
<!-- Node1&#45;&gt;Node15 -->
<g id="edge50" class="edge">
<title>Node1&#45;&gt;Node15</title>
<path fill="none" stroke="midnightblue" d="M547.32,-386.47C650.15,-381.89 825.97,-369.03 972.5,-333 1038.78,-316.7 1077.03,-333.38 1115.5,-277 1140.09,-240.97 1129.57,-186.31 1121.54,-157.98"/>
<polygon fill="midnightblue" stroke="midnightblue" points="1124.82,-156.74 1118.56,-148.2 1118.13,-158.78 1124.82,-156.74"/>
</g>
<!-- Node17 -->
<g id="node17" class="node">
<title>Node17</title>
<g id="a_node17"><a xlink:title=" ">
<polygon fill="none" stroke="#bfbfbf" points="368.5,-313.5 368.5,-332.5 416.5,-332.5 416.5,-313.5 368.5,-313.5"/>
<text text-anchor="middle" x="392.5" y="-320.5" font-family="Helvetica,sans-Serif" font-size="10.00">stdlib.h</text>
</a>
</g>
</g>
<!-- Node1&#45;&gt;Node17 -->
<g id="edge34" class="edge">
<title>Node1&#45;&gt;Node17</title>
<path fill="none" stroke="midnightblue" d="M440.1,-369.5C430.17,-360.01 418.4,-348.76 409.04,-339.81"/>
<polygon fill="midnightblue" stroke="midnightblue" points="411.2,-337.03 401.55,-332.65 406.36,-342.09 411.2,-337.03"/>
</g>
<!-- Node18 -->
<g id="node18" class="node">
<title>Node18</title>
<g id="a_node18"><a xlink:title=" ">
<polygon fill="none" stroke="#bfbfbf" points="434.5,-313.5 434.5,-332.5 486.5,-332.5 486.5,-313.5 434.5,-313.5"/>
<text text-anchor="middle" x="460.5" y="-320.5" font-family="Helvetica,sans-Serif" font-size="10.00">assert.h</text>
</a>
</g>
</g>
<!-- Node1&#45;&gt;Node18 -->
<g id="edge35" class="edge">
<title>Node1&#45;&gt;Node18</title>
<path fill="none" stroke="midnightblue" d="M460.5,-369.5C460.5,-361.07 460.5,-351.24 460.5,-342.87"/>
<polygon fill="midnightblue" stroke="midnightblue" points="464,-342.65 460.5,-332.65 457,-342.65 464,-342.65"/>
</g>
<!-- Node19 -->
<g id="node19" class="node">
<title>Node19</title>
<g id="a_node19"><a xlink:href="zwave__network__management_8h.html" target="_top" xlink:title=" ">
<polygon fill="none" stroke="black" points="809,-313.5 809,-332.5 964,-332.5 964,-313.5 809,-313.5"/>
<text text-anchor="middle" x="886.5" y="-320.5" font-family="Helvetica,sans-Serif" font-size="10.00">zwave_network_management.h</text>
</a>
</g>
</g>
<!-- Node1&#45;&gt;Node19 -->
<g id="edge36" class="edge">
<title>Node1&#45;&gt;Node19</title>
<path fill="none" stroke="midnightblue" d="M547.22,-375.77C628.19,-363.41 747.27,-345.24 820.69,-334.04"/>
<polygon fill="midnightblue" stroke="midnightblue" points="821.38,-337.48 830.74,-332.51 820.33,-330.56 821.38,-337.48"/>
</g>
<!-- Node21 -->
<g id="node21" class="node">
<title>Node21</title>
<g id="a_node21"><a xlink:href="zwave__tx__groups_8h.html" target="_top" xlink:title=" ">
<polygon fill="none" stroke="black" points="486,-196 486,-215 587,-215 587,-196 486,-196"/>
<text text-anchor="middle" x="536.5" y="-203" font-family="Helvetica,sans-Serif" font-size="10.00">zwave_tx_groups.h</text>
</a>
</g>
</g>
<!-- Node1&#45;&gt;Node21 -->
<g id="edge47" class="edge">
<title>Node1&#45;&gt;Node21</title>
<path fill="none" stroke="midnightblue" d="M383.77,-369.45C312.06,-347.51 221.94,-308.18 264.5,-257 277.93,-240.85 399.96,-223.2 475.94,-213.63"/>
<polygon fill="midnightblue" stroke="midnightblue" points="476.39,-217.1 485.88,-212.39 475.53,-210.16 476.39,-217.1"/>
</g>
<!-- Node22 -->
<g id="node22" class="node">
<title>Node22</title>
<g id="a_node22"><a xlink:href="zwave__controller__storage_8h.html" target="_top" xlink:title=" ">
<polygon fill="none" stroke="black" points="221.5,-196 221.5,-215 357.5,-215 357.5,-196 221.5,-196"/>
<text text-anchor="middle" x="289.5" y="-203" font-family="Helvetica,sans-Serif" font-size="10.00">zwave_controller_storage.h</text>
</a>
</g>
</g>
<!-- Node1&#45;&gt;Node22 -->
<g id="edge51" class="edge">
<title>Node1&#45;&gt;Node22</title>
<path fill="none" stroke="midnightblue" d="M373.64,-383.68C335.32,-376.91 292.67,-362.62 264.5,-333 240.88,-308.17 240.64,-289.5 251.5,-257 255.81,-244.09 264.87,-231.84 273.06,-222.63"/>
<polygon fill="midnightblue" stroke="midnightblue" points="275.84,-224.78 280.17,-215.11 270.76,-219.97 275.84,-224.78"/>
</g>
<!-- Node24 -->
<g id="node24" class="node">
<title>Node24</title>
<g id="a_node24"><a xlink:title=" ">
<polygon fill="none" stroke="#bfbfbf" points="1167.5,-313.5 1167.5,-332.5 1217.5,-332.5 1217.5,-313.5 1167.5,-313.5"/>
<text text-anchor="middle" x="1192.5" y="-320.5" font-family="Helvetica,sans-Serif" font-size="10.00">sl_log.h</text>
</a>
</g>
</g>
<!-- Node1&#45;&gt;Node24 -->
<g id="edge59" class="edge">
<title>Node1&#45;&gt;Node24</title>
<path fill="none" stroke="midnightblue" d="M547.13,-386.07C678.79,-380.69 936.86,-366.57 1153.5,-333 1154.77,-332.8 1156.07,-332.59 1157.37,-332.36"/>
<polygon fill="midnightblue" stroke="midnightblue" points="1158.31,-335.74 1167.43,-330.35 1156.94,-328.87 1158.31,-335.74"/>
</g>
<!-- Node3 -->
<g id="node3" class="node">
<title>Node3</title>
<g id="a_node3"><a xlink:href="zwave__generic__types_8h.html" target="_top" xlink:title=" ">
<polygon fill="none" stroke="black" points="398,-62 398,-81 517,-81 517,-62 398,-62"/>
<text text-anchor="middle" x="457.5" y="-69" font-family="Helvetica,sans-Serif" font-size="10.00">zwave_generic_types.h</text>
</a>
</g>
</g>
<!-- Node2&#45;&gt;Node3 -->
<g id="edge2" class="edge">
<title>Node2&#45;&gt;Node3</title>
<path fill="none" stroke="midnightblue" d="M526.85,-313.49C503.43,-307.11 476.99,-296.06 459.5,-277 411.79,-225 436.96,-130.46 450.6,-90.79"/>
<polygon fill="midnightblue" stroke="midnightblue" points="453.91,-91.93 454,-81.34 447.32,-89.57 453.91,-91.93"/>
</g>
<!-- Node5 -->
<g id="node5" class="node">
<title>Node5</title>
<g id="a_node5"><a xlink:href="zwave__controller__connection__info_8h.html" target="_top" xlink:title=" ">
<polygon fill="none" stroke="black" points="644,-190.5 644,-220.5 787,-220.5 787,-190.5 644,-190.5"/>
<text text-anchor="start" x="652" y="-208.5" font-family="Helvetica,sans-Serif" font-size="10.00">zwave_controller_connection</text>
<text text-anchor="middle" x="715.5" y="-197.5" font-family="Helvetica,sans-Serif" font-size="10.00">_info.h</text>
</a>
</g>
</g>
<!-- Node2&#45;&gt;Node5 -->
<g id="edge4" class="edge">
<title>Node2&#45;&gt;Node5</title>
<path fill="none" stroke="midnightblue" d="M587.87,-313.32C609.53,-295.19 660.08,-252.88 690.66,-227.29"/>
<polygon fill="midnightblue" stroke="midnightblue" points="693.3,-229.65 698.72,-220.55 688.8,-224.28 693.3,-229.65"/>
</g>
<!-- Node2&#45;&gt;Node10 -->
<g id="edge13" class="edge">
<title>Node2&#45;&gt;Node10</title>
<path fill="none" stroke="midnightblue" d="M539.95,-313.44C498.69,-304.04 432.36,-288.93 387.63,-278.74"/>
<polygon fill="midnightblue" stroke="midnightblue" points="388.41,-275.33 377.88,-276.52 386.85,-282.15 388.41,-275.33"/>
</g>
<!-- Node12 -->
<g id="node12" class="node">
<title>Node12</title>
<g id="a_node12"><a xlink:href="zwave__tx_8h.html" target="_top" xlink:title=" ">
<polygon fill="none" stroke="black" points="801,-257.5 801,-276.5 868,-276.5 868,-257.5 801,-257.5"/>
<text text-anchor="middle" x="834.5" y="-264.5" font-family="Helvetica,sans-Serif" font-size="10.00">zwave_tx.h</text>
</a>
</g>
</g>
<!-- Node2&#45;&gt;Node12 -->
<g id="edge17" class="edge">
<title>Node2&#45;&gt;Node12</title>
<path fill="none" stroke="midnightblue" d="M618.22,-313.44C665.4,-303.53 742.8,-287.27 791.09,-277.12"/>
<polygon fill="midnightblue" stroke="midnightblue" points="791.86,-280.54 800.93,-275.05 790.42,-273.68 791.86,-280.54"/>
</g>
<!-- Node4 -->
<g id="node4" class="node">
<title>Node4</title>
<g id="a_node4"><a xlink:title=" ">
<polygon fill="none" stroke="#bfbfbf" points="812,-0.5 812,-19.5 861,-19.5 861,-0.5 812,-0.5"/>
<text text-anchor="middle" x="836.5" y="-7.5" font-family="Helvetica,sans-Serif" font-size="10.00">stdint.h</text>
</a>
</g>
</g>
<!-- Node3&#45;&gt;Node4 -->
<g id="edge3" class="edge">
<title>Node3&#45;&gt;Node4</title>
<path fill="none" stroke="midnightblue" d="M511.8,-61.98C590.88,-49.56 735.49,-26.86 801.71,-16.46"/>
<polygon fill="midnightblue" stroke="midnightblue" points="802.31,-19.91 811.64,-14.9 801.22,-13 802.31,-19.91"/>
</g>
<!-- Node6 -->
<g id="node6" class="node">
<title>Node6</title>
<g id="a_node6"><a xlink:href="zwave__controller__types_8h.html" target="_top" xlink:title=" ">
<polygon fill="none" stroke="black" points="871.5,-129 871.5,-148 999.5,-148 999.5,-129 871.5,-129"/>
<text text-anchor="middle" x="935.5" y="-136" font-family="Helvetica,sans-Serif" font-size="10.00">zwave_controller_types.h</text>
</a>
</g>
</g>
<!-- Node5&#45;&gt;Node6 -->
<g id="edge5" class="edge">
<title>Node5&#45;&gt;Node6</title>
<path fill="none" stroke="midnightblue" d="M762.97,-190.48C802.92,-178.67 859.34,-162 896.65,-150.98"/>
<polygon fill="midnightblue" stroke="midnightblue" points="898.04,-154.22 906.63,-148.03 896.05,-147.51 898.04,-154.22"/>
</g>
<!-- Node6&#45;&gt;Node3 -->
<g id="edge10" class="edge">
<title>Node6&#45;&gt;Node3</title>
<path fill="none" stroke="midnightblue" d="M872.52,-128.94C783.21,-116.79 620.31,-94.64 527.38,-82"/>
<polygon fill="midnightblue" stroke="midnightblue" points="527.61,-78.5 517.23,-80.62 526.67,-85.44 527.61,-78.5"/>
</g>
<!-- Node6&#45;&gt;Node4 -->
<g id="edge7" class="edge">
<title>Node6&#45;&gt;Node4</title>
<path fill="none" stroke="midnightblue" d="M935.67,-128.95C935.56,-113 933.24,-78.31 916.5,-56 904.99,-40.66 886.61,-29.79 870.38,-22.59"/>
<polygon fill="midnightblue" stroke="midnightblue" points="871.71,-19.35 861.13,-18.76 869.03,-25.82 871.71,-19.35"/>
</g>
<!-- Node7 -->
<g id="node7" class="node">
<title>Node7</title>
<g id="a_node7"><a xlink:title=" ">
<polygon fill="none" stroke="#bfbfbf" points="1097.5,-0.5 1097.5,-19.5 1153.5,-19.5 1153.5,-0.5 1097.5,-0.5"/>
<text text-anchor="middle" x="1125.5" y="-7.5" font-family="Helvetica,sans-Serif" font-size="10.00">stdbool.h</text>
</a>
</g>
</g>
<!-- Node6&#45;&gt;Node7 -->
<g id="edge6" class="edge">
<title>Node6&#45;&gt;Node7</title>
<path fill="none" stroke="midnightblue" d="M948.56,-128.81C980.77,-107.36 1064.27,-51.76 1103.95,-25.35"/>
<polygon fill="midnightblue" stroke="midnightblue" points="1106.22,-28.04 1112.6,-19.59 1102.34,-22.22 1106.22,-28.04"/>
</g>
<!-- Node8 -->
<g id="node8" class="node">
<title>Node8</title>
<g id="a_node8"><a xlink:href="zwave__node__id__definitions_8h.html" target="_top" xlink:title=" ">
<polygon fill="none" stroke="black" points="765.5,-62 765.5,-81 907.5,-81 907.5,-62 765.5,-62"/>
<text text-anchor="middle" x="836.5" y="-69" font-family="Helvetica,sans-Serif" font-size="10.00">zwave_node_id_definitions.h</text>
</a>
</g>
</g>
<!-- Node6&#45;&gt;Node8 -->
<g id="edge8" class="edge">
<title>Node6&#45;&gt;Node8</title>
<path fill="none" stroke="midnightblue" d="M922.15,-128.73C905.75,-117.96 877.7,-99.55 858.19,-86.74"/>
<polygon fill="midnightblue" stroke="midnightblue" points="859.92,-83.69 849.64,-81.13 856.08,-89.54 859.92,-83.69"/>
</g>
<!-- Node9 -->
<g id="node9" class="node">
<title>Node9</title>
<g id="a_node9"><a xlink:href="zwave__rf__region_8h.html" target="_top" xlink:title=" ">
<polygon fill="none" stroke="black" points="1077.5,-62 1077.5,-81 1173.5,-81 1173.5,-62 1077.5,-62"/>
<text text-anchor="middle" x="1125.5" y="-69" font-family="Helvetica,sans-Serif" font-size="10.00">zwave_rf_region.h</text>
</a>
</g>
</g>
<!-- Node6&#45;&gt;Node9 -->
<g id="edge11" class="edge">
<title>Node6&#45;&gt;Node9</title>
<path fill="none" stroke="midnightblue" d="M960.73,-128.87C994.18,-117.42 1053.36,-97.18 1090.94,-84.32"/>
<polygon fill="midnightblue" stroke="midnightblue" points="1092.14,-87.61 1100.47,-81.06 1089.87,-80.99 1092.14,-87.61"/>
</g>
<!-- Node8&#45;&gt;Node4 -->
<g id="edge9" class="edge">
<title>Node8&#45;&gt;Node4</title>
<path fill="none" stroke="midnightblue" d="M836.5,-61.98C836.5,-53.58 836.5,-40.48 836.5,-29.66"/>
<polygon fill="midnightblue" stroke="midnightblue" points="840,-29.51 836.5,-19.51 833,-29.51 840,-29.51"/>
</g>
<!-- Node9&#45;&gt;Node7 -->
<g id="edge12" class="edge">
<title>Node9&#45;&gt;Node7</title>
<path fill="none" stroke="midnightblue" d="M1125.5,-61.98C1125.5,-53.58 1125.5,-40.48 1125.5,-29.66"/>
<polygon fill="midnightblue" stroke="midnightblue" points="1129,-29.51 1125.5,-19.51 1122,-29.51 1129,-29.51"/>
</g>
<!-- Node10&#45;&gt;Node5 -->
<g id="edge14" class="edge">
<title>Node10&#45;&gt;Node5</title>
<path fill="none" stroke="midnightblue" d="M394.23,-257.48C456.9,-247.53 561.17,-230.99 633.86,-219.45"/>
<polygon fill="midnightblue" stroke="midnightblue" points="634.57,-222.88 643.9,-217.86 633.48,-215.97 634.57,-222.88"/>
</g>
<!-- Node11 -->
<g id="node11" class="node">
<title>Node11</title>
<g id="a_node11"><a xlink:href="zwave__keyset__definitions_8h.html" target="_top" xlink:title=" ">
<polygon fill="none" stroke="black" points="0,-129 0,-148 137,-148 137,-129 0,-129"/>
<text text-anchor="middle" x="68.5" y="-136" font-family="Helvetica,sans-Serif" font-size="10.00">zwave_keyset_definitions.h</text>
</a>
</g>
</g>
<!-- Node10&#45;&gt;Node11 -->
<g id="edge15" class="edge">
<title>Node10&#45;&gt;Node11</title>
<path fill="none" stroke="midnightblue" d="M311.72,-257.49C285.39,-249.33 245.63,-236.06 212.5,-221 167.62,-200.61 118.21,-170.93 90.5,-153.58"/>
<polygon fill="midnightblue" stroke="midnightblue" points="92.3,-150.58 81.98,-148.2 88.56,-156.5 92.3,-150.58"/>
</g>
<!-- Node11&#45;&gt;Node4 -->
<g id="edge16" class="edge">
<title>Node11&#45;&gt;Node4</title>
<path fill="none" stroke="midnightblue" d="M90.43,-128.89C134.79,-111.86 238.7,-73.99 329.5,-56 504.72,-21.28 719.33,-13.34 801.88,-11.53"/>
<polygon fill="midnightblue" stroke="midnightblue" points="802.04,-15.03 811.96,-11.32 801.9,-8.03 802.04,-15.03"/>
</g>
<!-- Node12&#45;&gt;Node5 -->
<g id="edge20" class="edge">
<title>Node12&#45;&gt;Node5</title>
<path fill="none" stroke="midnightblue" d="M817.45,-257.48C800.58,-249.04 774.21,-235.86 752.52,-225.01"/>
<polygon fill="midnightblue" stroke="midnightblue" points="754.06,-221.86 743.55,-220.52 750.92,-228.13 754.06,-221.86"/>
</g>
<!-- Node13 -->
<g id="node13" class="node">
<title>Node13</title>
<g id="a_node13"><a xlink:href="sl__status_8h.html" target="_top" xlink:title="SL Status Codes.">
<polygon fill="none" stroke="black" points="606,-62 606,-81 671,-81 671,-62 606,-62"/>
<text text-anchor="middle" x="638.5" y="-69" font-family="Helvetica,sans-Serif" font-size="10.00">sl_status.h</text>
</a>
</g>
</g>
<!-- Node12&#45;&gt;Node13 -->
<g id="edge18" class="edge">
<title>Node12&#45;&gt;Node13</title>
<path fill="none" stroke="midnightblue" d="M832.46,-257.28C828.3,-241.47 817.33,-208.05 795.5,-190 751.6,-153.71 714.94,-191.99 672.5,-154 654.06,-137.49 645.36,-109.4 641.44,-90.9"/>
<polygon fill="midnightblue" stroke="midnightblue" points="644.88,-90.23 639.62,-81.03 638,-91.51 644.88,-90.23"/>
</g>
<!-- Node14 -->
<g id="node14" class="node">
<title>Node14</title>
<g id="a_node14"><a xlink:href="zwapi__protocol__transport_8h.html" target="_top" xlink:title="Z&#45;Wave API for transport application layer interface.">
<polygon fill="none" stroke="black" points="681.5,-129 681.5,-148 815.5,-148 815.5,-129 681.5,-129"/>
<text text-anchor="middle" x="748.5" y="-136" font-family="Helvetica,sans-Serif" font-size="10.00">zwapi_protocol_transport.h</text>
</a>
</g>
</g>
<!-- Node12&#45;&gt;Node14 -->
<g id="edge21" class="edge">
<title>Node12&#45;&gt;Node14</title>
<path fill="none" stroke="midnightblue" d="M836.33,-257.28C838.98,-242.32 842.27,-211.33 829.5,-190 819.08,-172.61 800.12,-160.3 783.17,-152.2"/>
<polygon fill="midnightblue" stroke="midnightblue" points="784.58,-148.99 774.02,-148.12 781.73,-155.39 784.58,-148.99"/>
</g>
<!-- Node12&#45;&gt;Node15 -->
<g id="edge26" class="edge">
<title>Node12&#45;&gt;Node15</title>
<path fill="none" stroke="midnightblue" d="M868.16,-261.14C903.84,-255.11 961.17,-242.84 1006.5,-221 1042.8,-203.51 1079.1,-173.17 1099.29,-154.85"/>
<polygon fill="midnightblue" stroke="midnightblue" points="1101.71,-157.38 1106.68,-148.02 1096.96,-152.24 1101.71,-157.38"/>
</g>
<!-- Node16 -->
<g id="node16" class="node">
<title>Node16</title>
<g id="a_node16"><a xlink:href="zwave__tx__definitions_8h.html" target="_top" xlink:title=" ">
<polygon fill="none" stroke="black" points="881.5,-196 881.5,-215 997.5,-215 997.5,-196 881.5,-196"/>
<text text-anchor="middle" x="939.5" y="-203" font-family="Helvetica,sans-Serif" font-size="10.00">zwave_tx_definitions.h</text>
</a>
</g>
</g>
<!-- Node12&#45;&gt;Node16 -->
<g id="edge32" class="edge">
<title>Node12&#45;&gt;Node16</title>
<path fill="none" stroke="midnightblue" d="M849.54,-257.48C866.78,-247.71 895.24,-231.58 915.53,-220.08"/>
<polygon fill="midnightblue" stroke="midnightblue" points="917.51,-222.98 924.48,-215.01 914.06,-216.89 917.51,-222.98"/>
</g>
<!-- Node13&#45;&gt;Node4 -->
<g id="edge19" class="edge">
<title>Node13&#45;&gt;Node4</title>
<path fill="none" stroke="midnightblue" d="M666.32,-61.87C672.62,-59.93 679.29,-57.88 685.5,-56 725.48,-43.88 771.5,-30.2 802.13,-21.14"/>
<polygon fill="midnightblue" stroke="midnightblue" points="803.3,-24.45 811.89,-18.25 801.31,-17.73 803.3,-24.45"/>
</g>
<!-- Node14&#45;&gt;Node4 -->
<g id="edge22" class="edge">
<title>Node14&#45;&gt;Node4</title>
<path fill="none" stroke="midnightblue" d="M741.41,-128.93C729.36,-113.25 707.63,-79.4 723.5,-56 740.87,-30.39 775.38,-19.35 801.72,-14.6"/>
<polygon fill="midnightblue" stroke="midnightblue" points="802.39,-18.04 811.72,-13.02 801.29,-11.12 802.39,-18.04"/>
</g>
<!-- Node14&#45;&gt;Node7 -->
<g id="edge23" class="edge">
<title>Node14&#45;&gt;Node7</title>
<path fill="none" stroke="midnightblue" d="M746.29,-128.95C742.57,-112.36 737.23,-75.73 756.5,-56 779.35,-32.6 997.41,-18.04 1087.18,-13"/>
<polygon fill="midnightblue" stroke="midnightblue" points="1087.42,-16.49 1097.22,-12.44 1087.04,-9.5 1087.42,-16.49"/>
</g>
<!-- Node14&#45;&gt;Node8 -->
<g id="edge25" class="edge">
<title>Node14&#45;&gt;Node8</title>
<path fill="none" stroke="midnightblue" d="M760.37,-128.73C774.75,-118.11 799.2,-100.05 816.51,-87.26"/>
<polygon fill="midnightblue" stroke="midnightblue" points="818.86,-89.88 824.82,-81.13 814.7,-84.25 818.86,-89.88"/>
</g>
<!-- Node14&#45;&gt;Node13 -->
<g id="edge24" class="edge">
<title>Node14&#45;&gt;Node13</title>
<path fill="none" stroke="midnightblue" d="M733.66,-128.73C715.19,-117.82 683.43,-99.05 661.72,-86.22"/>
<polygon fill="midnightblue" stroke="midnightblue" points="663.49,-83.2 653.1,-81.13 659.93,-89.23 663.49,-83.2"/>
</g>
<!-- Node15&#45;&gt;Node4 -->
<g id="edge27" class="edge">
<title>Node15&#45;&gt;Node4</title>
<path fill="none" stroke="midnightblue" d="M1104.46,-128.96C1083.02,-112.72 1033.75,-77.12 987.5,-56 949.16,-38.49 902.27,-25.76 871.01,-18.39"/>
<polygon fill="midnightblue" stroke="midnightblue" points="871.58,-14.93 861.05,-16.1 870.01,-21.75 871.58,-14.93"/>
</g>
<!-- Node15&#45;&gt;Node7 -->
<g id="edge28" class="edge">
<title>Node15&#45;&gt;Node7</title>
<path fill="none" stroke="midnightblue" d="M1175.1,-132.81C1236.25,-126.61 1325.36,-113.26 1346.5,-87 1396.5,-24.89 1239.52,-13.35 1163.86,-11.34"/>
<polygon fill="midnightblue" stroke="midnightblue" points="1163.83,-7.84 1153.75,-11.12 1163.67,-14.84 1163.83,-7.84"/>
</g>
<!-- Node15&#45;&gt;Node8 -->
<g id="edge31" class="edge">
<title>Node15&#45;&gt;Node8</title>
<path fill="none" stroke="midnightblue" d="M1078.74,-128.94C1028.45,-117.22 938.2,-96.19 883.19,-83.38"/>
<polygon fill="midnightblue" stroke="midnightblue" points="883.88,-79.94 873.34,-81.08 882.29,-86.76 883.88,-79.94"/>
</g>
<!-- Node15&#45;&gt;Node9 -->
<g id="edge30" class="edge">
<title>Node15&#45;&gt;Node9</title>
<path fill="none" stroke="midnightblue" d="M1116.85,-128.73C1118.32,-119.18 1120.71,-103.62 1122.61,-91.28"/>
<polygon fill="midnightblue" stroke="midnightblue" points="1126.11,-91.54 1124.17,-81.13 1119.19,-90.48 1126.11,-91.54"/>
</g>
<!-- Node15&#45;&gt;Node13 -->
<g id="edge29" class="edge">
<title>Node15&#45;&gt;Node13</title>
<path fill="none" stroke="midnightblue" d="M1055.57,-129.33C957.81,-116.01 766.38,-89.93 681.17,-78.31"/>
<polygon fill="midnightblue" stroke="midnightblue" points="681.46,-74.82 671.08,-76.94 680.51,-81.76 681.46,-74.82"/>
</g>
<!-- Node16&#45;&gt;Node6 -->
<g id="edge33" class="edge">
<title>Node16&#45;&gt;Node6</title>
<path fill="none" stroke="midnightblue" d="M938.96,-195.73C938.37,-186.18 937.41,-170.62 936.66,-158.28"/>
<polygon fill="midnightblue" stroke="midnightblue" points="940.14,-157.89 936.03,-148.13 933.15,-158.32 940.14,-157.89"/>
</g>
<!-- Node19&#45;&gt;Node3 -->
<g id="edge40" class="edge">
<title>Node19&#45;&gt;Node3</title>
<path fill="none" stroke="midnightblue" d="M808.64,-313.58C702.04,-300.34 518.99,-270.87 476.5,-221 445.11,-184.16 449.33,-122.34 453.97,-91.38"/>
<polygon fill="midnightblue" stroke="midnightblue" points="457.48,-91.58 455.69,-81.14 450.58,-90.42 457.48,-91.58"/>
</g>
<!-- Node19&#45;&gt;Node4 -->
<g id="edge37" class="edge">
<title>Node19&#45;&gt;Node4</title>
<path fill="none" stroke="midnightblue" d="M915.72,-313.46C936.79,-306.24 965.01,-294.28 985.5,-277 1017.76,-249.8 1028.14,-231.94 1023.5,-190 1020.15,-159.67 1023.59,-149.52 1008.5,-123 987.04,-85.29 973.61,-80.06 937.5,-56 916.77,-42.19 891.1,-30.81 870.83,-22.96"/>
<polygon fill="midnightblue" stroke="midnightblue" points="871.95,-19.64 861.36,-19.39 869.48,-26.19 871.95,-19.64"/>
</g>
<!-- Node19&#45;&gt;Node6 -->
<g id="edge39" class="edge">
<title>Node19&#45;&gt;Node6</title>
<path fill="none" stroke="midnightblue" d="M904.62,-313.31C932.62,-298.73 985.36,-266.43 1006.5,-221 1012.31,-208.51 1012.82,-202.24 1006.5,-190 997.94,-173.41 981.14,-161.08 966.03,-152.76"/>
<polygon fill="midnightblue" stroke="midnightblue" points="967.42,-149.54 956.93,-148.09 964.23,-155.77 967.42,-149.54"/>
</g>
<!-- Node19&#45;&gt;Node7 -->
<g id="edge38" class="edge">
<title>Node19&#45;&gt;Node7</title>
<path fill="none" stroke="midnightblue" d="M964.18,-320.61C1108.51,-315.91 1403.5,-295.42 1403.5,-206.5 1403.5,-206.5 1403.5,-206.5 1403.5,-137.5 1403.5,-97.34 1396.34,-80.47 1364.5,-56 1333.63,-32.27 1223.2,-19.38 1163.86,-14.02"/>
<polygon fill="midnightblue" stroke="midnightblue" points="1164.02,-10.52 1153.75,-13.14 1163.41,-17.5 1164.02,-10.52"/>
</g>
<!-- Node19&#45;&gt;Node10 -->
<g id="edge44" class="edge">
<title>Node19&#45;&gt;Node10</title>
<path fill="none" stroke="midnightblue" d="M808.85,-314.32C704.71,-304.02 520.92,-285.84 417.25,-275.59"/>
<polygon fill="midnightblue" stroke="midnightblue" points="417.46,-272.09 407.16,-274.59 416.77,-279.06 417.46,-272.09"/>
</g>
<!-- Node19&#45;&gt;Node13 -->
<g id="edge45" class="edge">
<title>Node19&#45;&gt;Node13</title>
<path fill="none" stroke="midnightblue" d="M808.86,-313.76C750.13,-303 673.19,-278.19 634.5,-221 607.6,-181.24 621.93,-120.79 631.76,-90.76"/>
<polygon fill="midnightblue" stroke="midnightblue" points="635.12,-91.76 635.09,-81.16 628.5,-89.46 635.12,-91.76"/>
</g>
<!-- Node20 -->
<g id="node20" class="node">
<title>Node20</title>
<g id="a_node20"><a xlink:href="zwave__network__management__types_8h.html" target="_top" xlink:title=" ">
<polygon fill="none" stroke="black" points="1191.5,-56.5 1191.5,-86.5 1337.5,-86.5 1337.5,-56.5 1191.5,-56.5"/>
<text text-anchor="start" x="1199.5" y="-74.5" font-family="Helvetica,sans-Serif" font-size="10.00">zwave_network_management</text>
<text text-anchor="middle" x="1264.5" y="-63.5" font-family="Helvetica,sans-Serif" font-size="10.00">_types.h</text>
</a>
</g>
</g>
<!-- Node19&#45;&gt;Node20 -->
<g id="edge41" class="edge">
<title>Node19&#45;&gt;Node20</title>
<path fill="none" stroke="midnightblue" d="M964.16,-320.77C1011.15,-316.78 1070.49,-305.7 1115.5,-277 1186.63,-231.65 1234.89,-139.26 1254.57,-95.92"/>
<polygon fill="midnightblue" stroke="midnightblue" points="1257.79,-97.3 1258.64,-86.74 1251.39,-94.46 1257.79,-97.3"/>
</g>
<!-- Node20&#45;&gt;Node4 -->
<g id="edge43" class="edge">
<title>Node20&#45;&gt;Node4</title>
<path fill="none" stroke="midnightblue" d="M1191.21,-57.37C1188.27,-56.9 1185.36,-56.44 1182.5,-56 1069.02,-38.6 933.91,-22.3 871.41,-15.01"/>
<polygon fill="midnightblue" stroke="midnightblue" points="871.65,-11.51 861.31,-13.83 870.84,-18.46 871.65,-11.51"/>
</g>
<!-- Node20&#45;&gt;Node7 -->
<g id="edge42" class="edge">
<title>Node20&#45;&gt;Node7</title>
<path fill="none" stroke="midnightblue" d="M1231.56,-56.4C1208.34,-46.46 1177.51,-33.26 1155.08,-23.66"/>
<polygon fill="midnightblue" stroke="midnightblue" points="1156.3,-20.38 1145.73,-19.66 1153.54,-26.81 1156.3,-20.38"/>
</g>
<!-- Node21&#45;&gt;Node6 -->
<g id="edge49" class="edge">
<title>Node21&#45;&gt;Node6</title>
<path fill="none" stroke="midnightblue" d="M587.16,-196.97C650.49,-187.46 762.14,-170.36 857.5,-154 864.96,-152.72 872.8,-151.32 880.53,-149.92"/>
<polygon fill="midnightblue" stroke="midnightblue" points="881.38,-153.32 890.58,-148.07 880.11,-146.43 881.38,-153.32"/>
</g>
<!-- Node21&#45;&gt;Node13 -->
<g id="edge48" class="edge">
<title>Node21&#45;&gt;Node13</title>
<path fill="none" stroke="midnightblue" d="M543.19,-195.84C559.91,-174.21 603.72,-117.51 625.63,-89.15"/>
<polygon fill="midnightblue" stroke="midnightblue" points="628.57,-91.07 631.92,-81.02 623.03,-86.79 628.57,-91.07"/>
</g>
<!-- Node22&#45;&gt;Node3 -->
<g id="edge56" class="edge">
<title>Node22&#45;&gt;Node3</title>
<path fill="none" stroke="midnightblue" d="M261.19,-195.99C221.69,-182.71 157.71,-155.2 184.5,-123 209.84,-92.54 315.24,-80.38 387.41,-75.57"/>
<polygon fill="midnightblue" stroke="midnightblue" points="388.04,-79.04 397.8,-74.91 387.6,-72.05 388.04,-79.04"/>
</g>
<!-- Node22&#45;&gt;Node6 -->
<g id="edge54" class="edge">
<title>Node22&#45;&gt;Node6</title>
<path fill="none" stroke="midnightblue" d="M357.57,-199.27C486.65,-189.2 762.6,-167.01 857.5,-154 865.93,-152.84 874.84,-151.4 883.51,-149.88"/>
<polygon fill="midnightblue" stroke="midnightblue" points="884.3,-153.29 893.52,-148.06 883.06,-146.4 884.3,-153.29"/>
</g>
<!-- Node22&#45;&gt;Node7 -->
<g id="edge52" class="edge">
<title>Node22&#45;&gt;Node7</title>
<path fill="none" stroke="midnightblue" d="M295.52,-195.97C302.55,-185.97 314.5,-168.87 324.5,-154 353.54,-110.84 343.53,-82.15 388.5,-56 418.91,-38.32 939.02,-17.87 1086.69,-12.4"/>
<polygon fill="midnightblue" stroke="midnightblue" points="1087.2,-15.89 1097.07,-12.02 1086.94,-8.89 1087.2,-15.89"/>
</g>
<!-- Node22&#45;&gt;Node8 -->
<g id="edge53" class="edge">
<title>Node22&#45;&gt;Node8</title>
<path fill="none" stroke="midnightblue" d="M357.61,-199.16C499.87,-187.88 816.12,-161.96 824.5,-154 841.24,-138.11 841.64,-109.85 839.65,-91.15"/>
<polygon fill="midnightblue" stroke="midnightblue" points="843.11,-90.59 838.27,-81.16 836.18,-91.55 843.11,-90.59"/>
</g>
<!-- Node22&#45;&gt;Node11 -->
<g id="edge55" class="edge">
<title>Node22&#45;&gt;Node11</title>
<path fill="none" stroke="midnightblue" d="M260.15,-195.87C220.83,-184.3 150.95,-163.75 107.31,-150.91"/>
<polygon fill="midnightblue" stroke="midnightblue" points="108.2,-147.53 97.62,-148.06 106.22,-154.24 108.2,-147.53"/>
</g>
<!-- Node22&#45;&gt;Node13 -->
<g id="edge58" class="edge">
<title>Node22&#45;&gt;Node13</title>
<path fill="none" stroke="midnightblue" d="M312.13,-195.94C372.31,-173.18 536.45,-111.1 606.32,-84.67"/>
<polygon fill="midnightblue" stroke="midnightblue" points="607.81,-87.85 615.92,-81.04 605.33,-81.3 607.81,-87.85"/>
</g>
<!-- Node23 -->
<g id="node23" class="node">
<title>Node23</title>
<g id="a_node23"><a xlink:href="zwave__command__class__version__types_8h.html" target="_top" xlink:title=" ">
<polygon fill="none" stroke="black" points="193.5,-123.5 193.5,-153.5 315.5,-153.5 315.5,-123.5 193.5,-123.5"/>
<text text-anchor="start" x="201.5" y="-141.5" font-family="Helvetica,sans-Serif" font-size="10.00">zwave_command_class</text>
<text text-anchor="middle" x="254.5" y="-130.5" font-family="Helvetica,sans-Serif" font-size="10.00">_version_types.h</text>
</a>
</g>
</g>
<!-- Node22&#45;&gt;Node23 -->
<g id="edge57" class="edge">
<title>Node22&#45;&gt;Node23</title>
<path fill="none" stroke="midnightblue" d="M284.78,-195.73C280.23,-187.29 273.15,-174.14 266.98,-162.68"/>
<polygon fill="midnightblue" stroke="midnightblue" points="269.91,-160.73 262.09,-153.59 263.75,-164.05 269.91,-160.73"/>
</g>
</g>
</svg>
