<?xml version="1.0" encoding="UTF-8" standalone="no"?>
<!DOCTYPE svg PUBLIC "-//W3C//DTD SVG 1.1//EN"
 "http://www.w3.org/Graphics/SVG/1.1/DTD/svg11.dtd">
<!-- Generated by graphviz version 2.43.0 (0)
 -->
<!-- Title: wake_up_control_handler Pages: 1 -->
<svg width="1174pt" height="418pt"
 viewBox="0.00 0.00 1174.00 417.50" xmlns="http://www.w3.org/2000/svg" xmlns:xlink="http://www.w3.org/1999/xlink">
<g id="graph0" class="graph" transform="scale(1 1) rotate(0) translate(4 413.5)">
<title>wake_up_control_handler</title>
<!-- Node1 -->
<g id="node1" class="node">
<title>Node1</title>
<g id="a_node1"><a xlink:title=" ">
<polygon fill="#bfbfbf" stroke="black" points="0,-296.5 0,-315.5 127,-315.5 127,-296.5 0,-296.5"/>
<text text-anchor="middle" x="63.5" y="-303.5" font-family="Helvetica,sans-Serif" font-size="10.00">wake_up_control_handler</text>
</a>
</g>
</g>
<!-- Node2 -->
<g id="node2" class="node">
<title>Node2</title>
<g id="a_node2"><a xlink:href="zwave__command__class__wake__up_8c.html#a9f8081a6c4ea47edf7b8345a0689a1c3" target="_top" xlink:title=" ">
<polygon fill="none" stroke="black" points="171,-291 171,-321 297,-321 297,-291 171,-291"/>
<text text-anchor="start" x="179" y="-309" font-family="Helvetica,sans-Serif" font-size="10.00">handle_wake_up_interval</text>
<text text-anchor="middle" x="234" y="-298" font-family="Helvetica,sans-Serif" font-size="10.00">_capabilities_report</text>
</a>
</g>
</g>
<!-- Node1&#45;&gt;Node2 -->
<g id="edge1" class="edge">
<title>Node1&#45;&gt;Node2</title>
<path fill="none" stroke="midnightblue" d="M127.24,-306C138.13,-306 149.53,-306 160.66,-306"/>
<polygon fill="midnightblue" stroke="midnightblue" points="160.77,-309.5 170.77,-306 160.77,-302.5 160.77,-309.5"/>
</g>
<!-- Node11 -->
<g id="node11" class="node">
<title>Node11</title>
<g id="a_node11"><a xlink:href="zwave__command__class__wake__up_8c.html#a113c3f11c4fb5f5eb6abccec9cf51535" target="_top" xlink:title=" ">
<polygon fill="none" stroke="black" points="171,-340 171,-370 297,-370 297,-340 171,-340"/>
<text text-anchor="start" x="179" y="-358" font-family="Helvetica,sans-Serif" font-size="10.00">handle_wake_up_interval</text>
<text text-anchor="middle" x="234" y="-347" font-family="Helvetica,sans-Serif" font-size="10.00">_report</text>
</a>
</g>
</g>
<!-- Node1&#45;&gt;Node11 -->
<g id="edge10" class="edge">
<title>Node1&#45;&gt;Node11</title>
<path fill="none" stroke="midnightblue" d="M97.39,-315.56C118.44,-321.69 146.41,-329.82 171.48,-337.11"/>
<polygon fill="midnightblue" stroke="midnightblue" points="170.71,-340.53 181.29,-339.96 172.67,-333.81 170.71,-340.53"/>
</g>
<!-- Node13 -->
<g id="node13" class="node">
<title>Node13</title>
<g id="a_node13"><a xlink:href="zwave__command__class__wake__up_8c.html#a37cb450d8a624bde29f877595e193d16" target="_top" xlink:title=" ">
<polygon fill="none" stroke="black" points="163,-252.5 163,-271.5 305,-271.5 305,-252.5 163,-252.5"/>
<text text-anchor="middle" x="234" y="-259.5" font-family="Helvetica,sans-Serif" font-size="10.00">handle_wake_up_notification</text>
</a>
</g>
</g>
<!-- Node1&#45;&gt;Node13 -->
<g id="edge14" class="edge">
<title>Node1&#45;&gt;Node13</title>
<path fill="none" stroke="midnightblue" d="M101.06,-296.45C126.12,-289.91 159.58,-281.17 186.53,-274.13"/>
<polygon fill="midnightblue" stroke="midnightblue" points="187.72,-277.44 196.51,-271.53 185.95,-270.67 187.72,-277.44"/>
</g>
<!-- Node3 -->
<g id="node3" class="node">
<title>Node3</title>
<g id="a_node3"><a xlink:href="zwave__command__class__wake__up_8c.html#a7610a0e7b1f581a8a1991541eda124ea" target="_top" xlink:title="Takes the 3 bytes of a wake_up_interval_t and saves it in the attribute store.">
<polygon fill="none" stroke="black" points="348.5,-340.5 348.5,-359.5 463.5,-359.5 463.5,-340.5 348.5,-340.5"/>
<text text-anchor="middle" x="406" y="-347.5" font-family="Helvetica,sans-Serif" font-size="10.00">save_reported_interval</text>
</a>
</g>
</g>
<!-- Node2&#45;&gt;Node3 -->
<g id="edge2" class="edge">
<title>Node2&#45;&gt;Node3</title>
<path fill="none" stroke="midnightblue" d="M293.03,-321.02C314.34,-326.54 338.18,-332.7 358.36,-337.93"/>
<polygon fill="midnightblue" stroke="midnightblue" points="357.69,-341.37 368.25,-340.49 359.44,-334.59 357.69,-341.37"/>
</g>
<!-- Node4 -->
<g id="node4" class="node">
<title>Node4</title>
<g id="a_node4"><a xlink:href="group__command__classes__utils.html#gaff12f5d1f5b9eed08201efab5854190c" target="_top" xlink:title="Find the Z&#45;Wave Endpoint ID Node attribute based on a const zwave_controller_connection_info_t object...">
<polygon fill="none" stroke="black" points="345,-291 345,-321 467,-321 467,-291 345,-291"/>
<text text-anchor="start" x="353" y="-309" font-family="Helvetica,sans-Serif" font-size="10.00">zwave_command_class</text>
<text text-anchor="middle" x="406" y="-298" font-family="Helvetica,sans-Serif" font-size="10.00">_get_endpoint_node</text>
</a>
</g>
</g>
<!-- Node2&#45;&gt;Node4 -->
<g id="edge3" class="edge">
<title>Node2&#45;&gt;Node4</title>
<path fill="none" stroke="midnightblue" d="M297.34,-306C309.48,-306 322.28,-306 334.66,-306"/>
<polygon fill="midnightblue" stroke="midnightblue" points="334.94,-309.5 344.94,-306 334.94,-302.5 334.94,-309.5"/>
</g>
<!-- Node5 -->
<g id="node5" class="node">
<title>Node5</title>
<g id="a_node5"><a xlink:href="group__zpc__attribute__store__network__helpers.html#gae4d15b8e0c61c88d94c8f342bd2014fc" target="_top" xlink:title="Take a UNID/endpoint combination and returns its attribute store node.">
<polygon fill="none" stroke="black" points="512.5,-335 512.5,-365 647.5,-365 647.5,-335 512.5,-335"/>
<text text-anchor="start" x="520.5" y="-353" font-family="Helvetica,sans-Serif" font-size="10.00">attribute_store_network</text>
<text text-anchor="middle" x="580" y="-342" font-family="Helvetica,sans-Serif" font-size="10.00">_helper_get_endpoint_node</text>
</a>
</g>
</g>
<!-- Node4&#45;&gt;Node5 -->
<g id="edge4" class="edge">
<title>Node4&#45;&gt;Node5</title>
<path fill="none" stroke="midnightblue" d="M465.71,-321.02C480.02,-324.68 495.46,-328.63 510.19,-332.4"/>
<polygon fill="midnightblue" stroke="midnightblue" points="509.71,-335.89 520.26,-334.97 511.44,-329.1 509.71,-335.89"/>
</g>
<!-- Node10 -->
<g id="node10" class="node">
<title>Node10</title>
<g id="a_node10"><a xlink:href="group__zwave__unid.html#ga421deceb8a12916f049e4f3446774439" target="_top" xlink:title="Form a UNID.">
<polygon fill="none" stroke="black" points="514,-296.5 514,-315.5 646,-315.5 646,-296.5 514,-296.5"/>
<text text-anchor="middle" x="580" y="-303.5" font-family="Helvetica,sans-Serif" font-size="10.00">zwave_unid_from_node_id</text>
</a>
</g>
</g>
<!-- Node4&#45;&gt;Node10 -->
<g id="edge9" class="edge">
<title>Node4&#45;&gt;Node10</title>
<path fill="none" stroke="midnightblue" d="M467.16,-306C478.96,-306 491.49,-306 503.72,-306"/>
<polygon fill="midnightblue" stroke="midnightblue" points="503.9,-309.5 513.9,-306 503.9,-302.5 503.9,-309.5"/>
</g>
<!-- Node6 -->
<g id="node6" class="node">
<title>Node6</title>
<g id="a_node6"><a xlink:href="group__zpc__attribute__store__network__helpers.html#gafb993ff484b3c826743c4695d6659cf0" target="_top" xlink:title="Take a UNID and return its attribute store node representing the NodeID.">
<polygon fill="none" stroke="black" points="696,-335 696,-365 828,-365 828,-335 696,-335"/>
<text text-anchor="start" x="704" y="-353" font-family="Helvetica,sans-Serif" font-size="10.00">attribute_store_network</text>
<text text-anchor="middle" x="762" y="-342" font-family="Helvetica,sans-Serif" font-size="10.00">_helper_get_node_id_node</text>
</a>
</g>
</g>
<!-- Node5&#45;&gt;Node6 -->
<g id="edge5" class="edge">
<title>Node5&#45;&gt;Node6</title>
<path fill="none" stroke="midnightblue" d="M647.51,-350C660,-350 673.13,-350 685.86,-350"/>
<polygon fill="midnightblue" stroke="midnightblue" points="685.96,-353.5 695.96,-350 685.96,-346.5 685.96,-353.5"/>
</g>
<!-- Node7 -->
<g id="node7" class="node">
<title>Node7</title>
<g id="a_node7"><a xlink:href="group__zpc__attribute__store__network__helpers.html#ga05cb572c96f7dc8e6657f86e135fafed" target="_top" xlink:title="Take a UNID and return its attribute store node representing the HomeID.">
<polygon fill="none" stroke="black" points="871,-357 871,-387 1006,-387 1006,-357 871,-357"/>
<text text-anchor="start" x="879" y="-375" font-family="Helvetica,sans-Serif" font-size="10.00">attribute_store_network</text>
<text text-anchor="middle" x="938.5" y="-364" font-family="Helvetica,sans-Serif" font-size="10.00">_helper_get_home_id_node</text>
</a>
</g>
</g>
<!-- Node6&#45;&gt;Node7 -->
<g id="edge6" class="edge">
<title>Node6&#45;&gt;Node7</title>
<path fill="none" stroke="midnightblue" d="M828.47,-358.25C838.95,-359.58 849.88,-360.95 860.6,-362.3"/>
<polygon fill="midnightblue" stroke="midnightblue" points="860.43,-365.81 870.79,-363.59 861.3,-358.87 860.43,-365.81"/>
</g>
<!-- Node9 -->
<g id="node9" class="node">
<title>Node9</title>
<g id="a_node9"><a xlink:href="group__zwave__unid.html#ga76885767debd174e96e6df00b0a368c3" target="_top" xlink:title="Convert a UNID to a node ID.">
<polygon fill="none" stroke="black" points="878,-318.5 878,-337.5 999,-337.5 999,-318.5 878,-318.5"/>
<text text-anchor="middle" x="938.5" y="-325.5" font-family="Helvetica,sans-Serif" font-size="10.00">zwave_unid_to_node_id</text>
</a>
</g>
</g>
<!-- Node6&#45;&gt;Node9 -->
<g id="edge8" class="edge">
<title>Node6&#45;&gt;Node9</title>
<path fill="none" stroke="midnightblue" d="M828.47,-341.75C841.29,-340.13 854.78,-338.43 867.74,-336.8"/>
<polygon fill="midnightblue" stroke="midnightblue" points="868.5,-340.23 877.99,-335.5 867.63,-333.28 868.5,-340.23"/>
</g>
<!-- Node8 -->
<g id="node8" class="node">
<title>Node8</title>
<g id="a_node8"><a xlink:href="group__zwave__unid.html#ga92f9808a08c2ce1c0a6a9dc2debf3580" target="_top" xlink:title="Convert a UNID to a Home ID.">
<polygon fill="none" stroke="black" points="1042,-362.5 1042,-381.5 1166,-381.5 1166,-362.5 1042,-362.5"/>
<text text-anchor="middle" x="1104" y="-369.5" font-family="Helvetica,sans-Serif" font-size="10.00">zwave_unid_to_home_id</text>
</a>
</g>
</g>
<!-- Node7&#45;&gt;Node8 -->
<g id="edge7" class="edge">
<title>Node7&#45;&gt;Node8</title>
<path fill="none" stroke="midnightblue" d="M1006,-372C1014.42,-372 1023.07,-372 1031.57,-372"/>
<polygon fill="midnightblue" stroke="midnightblue" points="1031.83,-375.5 1041.83,-372 1031.83,-368.5 1031.83,-375.5"/>
</g>
<!-- Node11&#45;&gt;Node3 -->
<g id="edge11" class="edge">
<title>Node11&#45;&gt;Node3</title>
<path fill="none" stroke="midnightblue" d="M297.34,-353.17C310.63,-352.78 324.71,-352.36 338.17,-351.97"/>
<polygon fill="midnightblue" stroke="midnightblue" points="338.41,-355.46 348.3,-351.67 338.21,-348.46 338.41,-355.46"/>
</g>
<!-- Node11&#45;&gt;Node4 -->
<g id="edge13" class="edge">
<title>Node11&#45;&gt;Node4</title>
<path fill="none" stroke="midnightblue" d="M287.39,-339.9C305.01,-334.82 324.82,-329.11 343.1,-323.84"/>
<polygon fill="midnightblue" stroke="midnightblue" points="344.14,-327.18 352.78,-321.05 342.2,-320.46 344.14,-327.18"/>
</g>
<!-- Node12 -->
<g id="node12" class="node">
<title>Node12</title>
<g id="a_node12"><a xlink:href="zwave__command__class__wake__up_8c.html#a719d1633ae7a1ff72a7073da6a741c29" target="_top" xlink:title="Verifies if either NodeID / Wake Up interval settings are still undefined or mismatched and a resolut...">
<polygon fill="none" stroke="black" points="341,-379 341,-409 471,-409 471,-379 341,-379"/>
<text text-anchor="start" x="349" y="-397" font-family="Helvetica,sans-Serif" font-size="10.00">verify_if_wake_up_setting</text>
<text text-anchor="middle" x="406" y="-386" font-family="Helvetica,sans-Serif" font-size="10.00">_needs_resolution</text>
</a>
</g>
</g>
<!-- Node11&#45;&gt;Node12 -->
<g id="edge12" class="edge">
<title>Node11&#45;&gt;Node12</title>
<path fill="none" stroke="midnightblue" d="M297.34,-369.3C308.33,-371.82 319.87,-374.47 331.14,-377.06"/>
<polygon fill="midnightblue" stroke="midnightblue" points="330.43,-380.48 340.96,-379.31 332,-373.66 330.43,-380.48"/>
</g>
<!-- Node13&#45;&gt;Node4 -->
<g id="edge27" class="edge">
<title>Node13&#45;&gt;Node4</title>
<path fill="none" stroke="midnightblue" d="M271.89,-271.55C290.94,-276.48 314.81,-282.66 337.05,-288.41"/>
<polygon fill="midnightblue" stroke="midnightblue" points="336.23,-291.82 346.79,-290.93 337.99,-285.04 336.23,-291.82"/>
</g>
<!-- Node14 -->
<g id="node14" class="node">
<title>Node14</title>
<g id="a_node14"><a xlink:href="zwave__command__class__wake__up_8c.html#ab1683172e412f4f4b4f3090e6e2ac2b8" target="_top" xlink:title="Check if we need and send a Wake Up No more command to a node and puts it in the Tx Queue.">
<polygon fill="none" stroke="black" points="343.5,-142.5 343.5,-161.5 468.5,-161.5 468.5,-142.5 343.5,-142.5"/>
<text text-anchor="middle" x="406" y="-149.5" font-family="Helvetica,sans-Serif" font-size="10.00">send_wake_up_no_more</text>
</a>
</g>
</g>
<!-- Node13&#45;&gt;Node14 -->
<g id="edge15" class="edge">
<title>Node13&#45;&gt;Node14</title>
<path fill="none" stroke="midnightblue" d="M249.79,-252.43C279.3,-233.33 345.73,-190.35 381.36,-167.3"/>
<polygon fill="midnightblue" stroke="midnightblue" points="383.63,-170 390.12,-161.63 379.83,-164.12 383.63,-170"/>
</g>
<!-- Node14&#45;&gt;Node14 -->
<g id="edge16" class="edge">
<title>Node14&#45;&gt;Node14</title>
<path fill="none" stroke="midnightblue" d="M379.49,-161.76C366.59,-170.57 375.43,-180 406,-180 426.54,-180 437.27,-175.74 438.19,-170.27"/>
<polygon fill="midnightblue" stroke="midnightblue" points="440.97,-168.14 432.51,-161.76 435.14,-172.02 440.97,-168.14"/>
</g>
<!-- Node15 -->
<g id="node15" class="node">
<title>Node15</title>
<g id="a_node15"><a xlink:href="zwave__command__class__wake__up_8c.html#acc185d175a4ebc31e69cd02437d885dd" target="_top" xlink:title="Verifies if we are the Wake Up destination of a NodeID.">
<polygon fill="none" stroke="black" points="524.5,-247 524.5,-277 635.5,-277 635.5,-247 524.5,-247"/>
<text text-anchor="start" x="532.5" y="-265" font-family="Helvetica,sans-Serif" font-size="10.00">we_are_the_wake_up</text>
<text text-anchor="middle" x="580" y="-254" font-family="Helvetica,sans-Serif" font-size="10.00">_destination</text>
</a>
</g>
</g>
<!-- Node14&#45;&gt;Node15 -->
<g id="edge17" class="edge">
<title>Node14&#45;&gt;Node15</title>
<path fill="none" stroke="midnightblue" d="M416.02,-161.75C432.54,-179.1 469.42,-215.51 507,-237 510.68,-239.11 514.57,-241.08 518.56,-242.91"/>
<polygon fill="midnightblue" stroke="midnightblue" points="517.42,-246.23 527.99,-246.95 520.18,-239.8 517.42,-246.23"/>
</g>
<!-- Node17 -->
<g id="node17" class="node">
<title>Node17</title>
<g id="a_node17"><a xlink:href="group__zwave__network__management.html#ga38921e3a42a10fc5135615b50f0573cd" target="_top" xlink:title="Checks if the protocol may be sending some frames to a particular NodeID.">
<polygon fill="none" stroke="black" points="507,-186.5 507,-227.5 653,-227.5 653,-186.5 507,-186.5"/>
<text text-anchor="start" x="515" y="-215.5" font-family="Helvetica,sans-Serif" font-size="10.00">zwave_network_management</text>
<text text-anchor="start" x="515" y="-204.5" font-family="Helvetica,sans-Serif" font-size="10.00">_is_protocol_sending_frames</text>
<text text-anchor="middle" x="580" y="-193.5" font-family="Helvetica,sans-Serif" font-size="10.00">_to_node</text>
</a>
</g>
</g>
<!-- Node14&#45;&gt;Node17 -->
<g id="edge19" class="edge">
<title>Node14&#45;&gt;Node17</title>
<path fill="none" stroke="midnightblue" d="M436.96,-161.58C455.82,-167.61 481.06,-175.68 505.03,-183.35"/>
<polygon fill="midnightblue" stroke="midnightblue" points="504.25,-186.77 514.84,-186.48 506.38,-180.1 504.25,-186.77"/>
</g>
<!-- Node19 -->
<g id="node19" class="node">
<title>Node19</title>
<g id="a_node19"><a xlink:href="group__zwave__tx.html#gabb799c67f2008618877071e96e2fca77" target="_top" xlink:title="Verifies if we have frames in the queue to send to a NodeID.">
<polygon fill="none" stroke="black" points="522.5,-137 522.5,-167 637.5,-167 637.5,-137 522.5,-137"/>
<text text-anchor="start" x="530.5" y="-155" font-family="Helvetica,sans-Serif" font-size="10.00">zwave_tx_has_frames</text>
<text text-anchor="middle" x="580" y="-144" font-family="Helvetica,sans-Serif" font-size="10.00">_for_node</text>
</a>
</g>
</g>
<!-- Node14&#45;&gt;Node19 -->
<g id="edge21" class="edge">
<title>Node14&#45;&gt;Node19</title>
<path fill="none" stroke="midnightblue" d="M468.61,-152C482.73,-152 497.8,-152 512.13,-152"/>
<polygon fill="midnightblue" stroke="midnightblue" points="512.4,-155.5 522.4,-152 512.4,-148.5 512.4,-155.5"/>
</g>
<!-- Node20 -->
<g id="node20" class="node">
<title>Node20</title>
<g id="a_node20"><a xlink:href="group__zwave__tx__scheme__selector.html#ga2c884bc863b6f63eac2a074fdde828d8" target="_top" xlink:title="Return a connection info parameters for sending a Z&#45;Wave frame.">
<polygon fill="none" stroke="black" points="521.5,-88 521.5,-118 638.5,-118 638.5,-88 521.5,-88"/>
<text text-anchor="start" x="529.5" y="-106" font-family="Helvetica,sans-Serif" font-size="10.00">zwave_tx_scheme_get</text>
<text text-anchor="middle" x="580" y="-95" font-family="Helvetica,sans-Serif" font-size="10.00">_node_connection_info</text>
</a>
</g>
</g>
<!-- Node14&#45;&gt;Node20 -->
<g id="edge22" class="edge">
<title>Node14&#45;&gt;Node20</title>
<path fill="none" stroke="midnightblue" d="M440.57,-142.44C462.16,-136.29 490.87,-128.11 516.55,-120.79"/>
<polygon fill="midnightblue" stroke="midnightblue" points="517.56,-124.14 526.22,-118.04 515.64,-117.41 517.56,-124.14"/>
</g>
<!-- Node23 -->
<g id="node23" class="node">
<title>Node23</title>
<g id="a_node23"><a xlink:href="group__zwave__tx__scheme__selector.html#ga8f8d4442ddf4c165d5a79b9a25d6420d" target="_top" xlink:title="Define a Z&#45;Wave frame transmission options.">
<polygon fill="none" stroke="black" points="521.5,-39 521.5,-69 638.5,-69 638.5,-39 521.5,-39"/>
<text text-anchor="start" x="529.5" y="-57" font-family="Helvetica,sans-Serif" font-size="10.00">zwave_tx_scheme_get</text>
<text text-anchor="middle" x="580" y="-46" font-family="Helvetica,sans-Serif" font-size="10.00">_node_tx_options</text>
</a>
</g>
</g>
<!-- Node14&#45;&gt;Node23 -->
<g id="edge25" class="edge">
<title>Node14&#45;&gt;Node23</title>
<path fill="none" stroke="midnightblue" d="M417.97,-142.28C435.63,-127.03 471.96,-97.35 507,-79 511.18,-76.81 515.58,-74.75 520.08,-72.82"/>
<polygon fill="midnightblue" stroke="midnightblue" points="521.43,-76.05 529.38,-69.05 518.8,-69.56 521.43,-76.05"/>
</g>
<!-- Node24 -->
<g id="node24" class="node">
<title>Node24</title>
<g id="a_node24"><a xlink:href="group__zwave__tx.html#gad1538f36d226fe8147c5e538625568df" target="_top" xlink:title="Queue and send frames to Z&#45;Wave nodes.">
<polygon fill="none" stroke="black" points="525.5,-0.5 525.5,-19.5 634.5,-19.5 634.5,-0.5 525.5,-0.5"/>
<text text-anchor="middle" x="580" y="-7.5" font-family="Helvetica,sans-Serif" font-size="10.00">zwave_tx_send_data</text>
</a>
</g>
</g>
<!-- Node14&#45;&gt;Node24 -->
<g id="edge26" class="edge">
<title>Node14&#45;&gt;Node24</title>
<path fill="none" stroke="midnightblue" d="M412.05,-142.26C424.68,-118.89 460.06,-59.29 507,-29 510.17,-26.95 513.56,-25.12 517.07,-23.49"/>
<polygon fill="midnightblue" stroke="midnightblue" points="518.65,-26.63 526.59,-19.62 516.01,-20.15 518.65,-26.63"/>
</g>
<!-- Node16 -->
<g id="node16" class="node">
<title>Node16</title>
<g id="a_node16"><a xlink:href="group__zwave__network__management.html#gae265f1e935804f3f0b971755ab0ee61e" target="_top" xlink:title="Get the cached NodeID.">
<polygon fill="none" stroke="black" points="689,-247 689,-277 835,-277 835,-247 689,-247"/>
<text text-anchor="start" x="697" y="-265" font-family="Helvetica,sans-Serif" font-size="10.00">zwave_network_management</text>
<text text-anchor="middle" x="762" y="-254" font-family="Helvetica,sans-Serif" font-size="10.00">_get_node_id</text>
</a>
</g>
</g>
<!-- Node15&#45;&gt;Node16 -->
<g id="edge18" class="edge">
<title>Node15&#45;&gt;Node16</title>
<path fill="none" stroke="midnightblue" d="M635.98,-262C649.38,-262 664,-262 678.37,-262"/>
<polygon fill="midnightblue" stroke="midnightblue" points="678.76,-265.5 688.76,-262 678.76,-258.5 678.76,-265.5"/>
</g>
<!-- Node18 -->
<g id="node18" class="node">
<title>Node18</title>
<g id="a_node18"><a xlink:href="group__zwave__network__management.html#ga90aba971e0bdba90096c533bcd803dc4" target="_top" xlink:title="Checks if we have return routes to assign for a given NodeID.">
<polygon fill="none" stroke="black" points="703,-192 703,-222 821,-222 821,-192 703,-192"/>
<text text-anchor="start" x="711" y="-210" font-family="Helvetica,sans-Serif" font-size="10.00">we_have_return_routes</text>
<text text-anchor="middle" x="762" y="-199" font-family="Helvetica,sans-Serif" font-size="10.00">_to_assign</text>
</a>
</g>
</g>
<!-- Node17&#45;&gt;Node18 -->
<g id="edge20" class="edge">
<title>Node17&#45;&gt;Node18</title>
<path fill="none" stroke="midnightblue" d="M653.18,-207C666.22,-207 679.78,-207 692.71,-207"/>
<polygon fill="midnightblue" stroke="midnightblue" points="692.92,-210.5 702.92,-207 692.92,-203.5 692.92,-210.5"/>
</g>
<!-- Node21 -->
<g id="node21" class="node">
<title>Node21</title>
<g id="a_node21"><a xlink:href="group__zwave__controller__keyset.html#ga43a73c5ae7dc860fa2e5edb9814c432f" target="_top" xlink:title="Get the hight encapsulation supported by a given key set.">
<polygon fill="none" stroke="black" points="702.5,-63 702.5,-93 821.5,-93 821.5,-63 702.5,-63"/>
<text text-anchor="start" x="710.5" y="-81" font-family="Helvetica,sans-Serif" font-size="10.00">zwave_controller_get</text>
<text text-anchor="middle" x="762" y="-70" font-family="Helvetica,sans-Serif" font-size="10.00">_highest_encapsulation</text>
</a>
</g>
</g>
<!-- Node20&#45;&gt;Node21 -->
<g id="edge23" class="edge">
<title>Node20&#45;&gt;Node21</title>
<path fill="none" stroke="midnightblue" d="M638.94,-94.95C655.87,-92.6 674.53,-90.01 692.07,-87.57"/>
<polygon fill="midnightblue" stroke="midnightblue" points="692.81,-91 702.24,-86.16 691.85,-84.07 692.81,-91"/>
</g>
<!-- Node22 -->
<g id="node22" class="node">
<title>Node22</title>
<g id="a_node22"><a xlink:href="group__zwave__controller__storage.html#ga771d01deff646dfda3f8406d6fbf5736" target="_top" xlink:title="Return the granted keys for a node.">
<polygon fill="none" stroke="black" points="698,-112 698,-142 826,-142 826,-112 698,-112"/>
<text text-anchor="start" x="706" y="-130" font-family="Helvetica,sans-Serif" font-size="10.00">zwave_controller_storage</text>
<text text-anchor="middle" x="762" y="-119" font-family="Helvetica,sans-Serif" font-size="10.00">_get_node_granted_keys</text>
</a>
</g>
</g>
<!-- Node20&#45;&gt;Node22 -->
<g id="edge24" class="edge">
<title>Node20&#45;&gt;Node22</title>
<path fill="none" stroke="midnightblue" d="M638.94,-110.73C654.52,-112.8 671.57,-115.08 687.85,-117.25"/>
<polygon fill="midnightblue" stroke="midnightblue" points="687.5,-120.73 697.87,-118.58 688.42,-113.79 687.5,-120.73"/>
</g>
</g>
</svg>
