<?xml version="1.0" encoding="UTF-8" standalone="no"?>
<!DOCTYPE svg PUBLIC "-//W3C//DTD SVG 1.1//EN"
 "http://www.w3.org/Graphics/SVG/1.1/DTD/svg11.dtd">
<!-- Generated by graphviz version 2.43.0 (0)
 -->
<!-- Title: applications/zpc/components/zwave/zwave_transports/s2/src/zwave_s2_network.c Pages: 1 -->
<svg width="1900pt" height="576pt"
 viewBox="0.00 0.00 1900.00 576.00" xmlns="http://www.w3.org/2000/svg" xmlns:xlink="http://www.w3.org/1999/xlink">
<g id="graph0" class="graph" transform="scale(1 1) rotate(0) translate(4 572)">
<title>applications/zpc/components/zwave/zwave_transports/s2/src/zwave_s2_network.c</title>
<!-- Node1 -->
<g id="node1" class="node">
<title>Node1</title>
<g id="a_node1"><a xlink:title=" ">
<polygon fill="#bfbfbf" stroke="black" points="1308.5,-526.5 1308.5,-567.5 1451.5,-567.5 1451.5,-526.5 1308.5,-526.5"/>
<text text-anchor="start" x="1316.5" y="-555.5" font-family="Helvetica,sans-Serif" font-size="10.00">applications/zpc/components</text>
<text text-anchor="start" x="1316.5" y="-544.5" font-family="Helvetica,sans-Serif" font-size="10.00">/zwave/zwave_transports</text>
<text text-anchor="middle" x="1380" y="-533.5" font-family="Helvetica,sans-Serif" font-size="10.00">/s2/src/zwave_s2_network.c</text>
</a>
</g>
</g>
<!-- Node2 -->
<g id="node2" class="node">
<title>Node2</title>
<g id="a_node2"><a xlink:href="zwave__s2__network_8h.html" target="_top" xlink:title=" ">
<polygon fill="none" stroke="black" points="314.5,-347.5 314.5,-366.5 423.5,-366.5 423.5,-347.5 314.5,-347.5"/>
<text text-anchor="middle" x="369" y="-354.5" font-family="Helvetica,sans-Serif" font-size="10.00">zwave_s2_network.h</text>
</a>
</g>
</g>
<!-- Node1&#45;&gt;Node2 -->
<g id="edge1" class="edge">
<title>Node1&#45;&gt;Node2</title>
<path fill="none" stroke="midnightblue" d="M1308.4,-543.58C1198.82,-538.87 983.37,-525.57 804,-490 650.16,-459.49 473.03,-396.81 401.48,-370.28"/>
<polygon fill="midnightblue" stroke="midnightblue" points="402.29,-366.85 391.7,-366.64 399.85,-373.41 402.29,-366.85"/>
</g>
<!-- Node15 -->
<g id="node15" class="node">
<title>Node15</title>
<g id="a_node15"><a xlink:title=" ">
<polygon fill="none" stroke="#bfbfbf" points="1312.5,-470.5 1312.5,-489.5 1363.5,-489.5 1363.5,-470.5 1312.5,-470.5"/>
<text text-anchor="middle" x="1338" y="-477.5" font-family="Helvetica,sans-Serif" font-size="10.00">etimer.h</text>
</a>
</g>
</g>
<!-- Node1&#45;&gt;Node15 -->
<g id="edge25" class="edge">
<title>Node1&#45;&gt;Node15</title>
<path fill="none" stroke="midnightblue" d="M1367.4,-526.5C1361.58,-517.49 1354.73,-506.89 1349.1,-498.19"/>
<polygon fill="midnightblue" stroke="midnightblue" points="1351.96,-496.15 1343.59,-489.65 1346.08,-499.95 1351.96,-496.15"/>
</g>
<!-- Node16 -->
<g id="node16" class="node">
<title>Node16</title>
<g id="a_node16"><a xlink:title=" ">
<polygon fill="none" stroke="#bfbfbf" points="1381.5,-470.5 1381.5,-489.5 1464.5,-489.5 1464.5,-470.5 1381.5,-470.5"/>
<text text-anchor="middle" x="1423" y="-477.5" font-family="Helvetica,sans-Serif" font-size="10.00">s2_classcmd.h</text>
</a>
</g>
</g>
<!-- Node1&#45;&gt;Node16 -->
<g id="edge26" class="edge">
<title>Node1&#45;&gt;Node16</title>
<path fill="none" stroke="midnightblue" d="M1392.9,-526.5C1398.86,-517.49 1405.87,-506.89 1411.63,-498.19"/>
<polygon fill="midnightblue" stroke="midnightblue" points="1414.68,-499.92 1417.28,-489.65 1408.84,-496.06 1414.68,-499.92"/>
</g>
<!-- Node17 -->
<g id="node17" class="node">
<title>Node17</title>
<g id="a_node17"><a xlink:title=" ">
<polygon fill="none" stroke="#bfbfbf" points="1482.5,-470.5 1482.5,-489.5 1561.5,-489.5 1561.5,-470.5 1482.5,-470.5"/>
<text text-anchor="middle" x="1522" y="-477.5" font-family="Helvetica,sans-Serif" font-size="10.00">s2_inclusion.h</text>
</a>
</g>
</g>
<!-- Node1&#45;&gt;Node17 -->
<g id="edge27" class="edge">
<title>Node1&#45;&gt;Node17</title>
<path fill="none" stroke="midnightblue" d="M1422.6,-526.5C1445.63,-515.96 1473.43,-503.23 1493.77,-493.92"/>
<polygon fill="midnightblue" stroke="midnightblue" points="1495.46,-497 1503.1,-489.65 1492.55,-490.63 1495.46,-497"/>
</g>
<!-- Node18 -->
<g id="node18" class="node">
<title>Node18</title>
<g id="a_node18"><a xlink:title=" ">
<polygon fill="none" stroke="#bfbfbf" points="1580,-470.5 1580,-489.5 1658,-489.5 1658,-470.5 1580,-470.5"/>
<text text-anchor="middle" x="1619" y="-477.5" font-family="Helvetica,sans-Serif" font-size="10.00">s2_keystore.h</text>
</a>
</g>
</g>
<!-- Node1&#45;&gt;Node18 -->
<g id="edge28" class="edge">
<title>Node1&#45;&gt;Node18</title>
<path fill="none" stroke="midnightblue" d="M1451.71,-526.5C1492.88,-515.3 1543.12,-501.64 1577.73,-492.22"/>
<polygon fill="midnightblue" stroke="midnightblue" points="1578.77,-495.57 1587.5,-489.57 1576.93,-488.81 1578.77,-495.57"/>
</g>
<!-- Node19 -->
<g id="node19" class="node">
<title>Node19</title>
<g id="a_node19"><a xlink:title=" ">
<polygon fill="none" stroke="#bfbfbf" points="1676.5,-470.5 1676.5,-489.5 1751.5,-489.5 1751.5,-470.5 1676.5,-470.5"/>
<text text-anchor="middle" x="1714" y="-477.5" font-family="Helvetica,sans-Serif" font-size="10.00">s2_protocol.h</text>
</a>
</g>
</g>
<!-- Node1&#45;&gt;Node19 -->
<g id="edge29" class="edge">
<title>Node1&#45;&gt;Node19</title>
<path fill="none" stroke="midnightblue" d="M1451.65,-532.06C1516.43,-519.45 1610,-501.24 1666.13,-490.32"/>
<polygon fill="midnightblue" stroke="midnightblue" points="1667.01,-493.71 1676.15,-488.37 1665.67,-486.84 1667.01,-493.71"/>
</g>
<!-- Node20 -->
<g id="node20" class="node">
<title>Node20</title>
<g id="a_node20"><a xlink:title=" ">
<polygon fill="none" stroke="#bfbfbf" points="1243,-112.5 1243,-131.5 1293,-131.5 1293,-112.5 1243,-112.5"/>
<text text-anchor="middle" x="1268" y="-119.5" font-family="Helvetica,sans-Serif" font-size="10.00">sl_log.h</text>
</a>
</g>
</g>
<!-- Node1&#45;&gt;Node20 -->
<g id="edge30" class="edge">
<title>Node1&#45;&gt;Node20</title>
<path fill="none" stroke="midnightblue" d="M1343.67,-526.34C1329.47,-517.01 1314.18,-504.68 1304,-490 1285.45,-463.23 1284,-452.07 1284,-419.5 1284,-419.5 1284,-419.5 1284,-244 1284,-207.58 1276.79,-165.52 1272.05,-141.81"/>
<polygon fill="midnightblue" stroke="midnightblue" points="1275.42,-140.83 1269.96,-131.75 1268.57,-142.26 1275.42,-140.83"/>
</g>
<!-- Node21 -->
<g id="node21" class="node">
<title>Node21</title>
<g id="a_node21"><a xlink:href="zwave__s2__internal_8h.html" target="_top" xlink:title=" ">
<polygon fill="none" stroke="black" points="813,-470.5 813,-489.5 919,-489.5 919,-470.5 813,-470.5"/>
<text text-anchor="middle" x="866" y="-477.5" font-family="Helvetica,sans-Serif" font-size="10.00">zwave_s2_internal.h</text>
</a>
</g>
</g>
<!-- Node1&#45;&gt;Node21 -->
<g id="edge31" class="edge">
<title>Node1&#45;&gt;Node21</title>
<path fill="none" stroke="midnightblue" d="M1308.26,-536.93C1207.44,-524.18 1025.44,-501.16 929.36,-489.01"/>
<polygon fill="midnightblue" stroke="midnightblue" points="929.57,-485.51 919.21,-487.73 928.69,-492.46 929.57,-485.51"/>
</g>
<!-- Node32 -->
<g id="node32" class="node">
<title>Node32</title>
<g id="a_node32"><a xlink:href="zwave__s2__keystore__int_8h.html" target="_top" xlink:title=" ">
<polygon fill="none" stroke="black" points="1095,-235.5 1095,-254.5 1223,-254.5 1223,-235.5 1095,-235.5"/>
<text text-anchor="middle" x="1159" y="-242.5" font-family="Helvetica,sans-Serif" font-size="10.00">zwave_s2_keystore_int.h</text>
</a>
</g>
</g>
<!-- Node1&#45;&gt;Node32 -->
<g id="edge62" class="edge">
<title>Node1&#45;&gt;Node32</title>
<path fill="none" stroke="midnightblue" d="M1320.05,-526.32C1274.27,-507.09 1219,-472.82 1219,-419.5 1219,-419.5 1219,-419.5 1219,-356 1219,-318.88 1192.35,-282.38 1174.57,-262.16"/>
<polygon fill="midnightblue" stroke="midnightblue" points="1176.93,-259.55 1167.6,-254.53 1171.76,-264.28 1176.93,-259.55"/>
</g>
<!-- Node35 -->
<g id="node35" class="node">
<title>Node35</title>
<g id="a_node35"><a xlink:href="zwave__helper__macros_8h.html" target="_top" xlink:title=" ">
<polygon fill="none" stroke="black" points="1770,-470.5 1770,-489.5 1892,-489.5 1892,-470.5 1770,-470.5"/>
<text text-anchor="middle" x="1831" y="-477.5" font-family="Helvetica,sans-Serif" font-size="10.00">zwave_helper_macros.h</text>
</a>
</g>
</g>
<!-- Node1&#45;&gt;Node35 -->
<g id="edge72" class="edge">
<title>Node1&#45;&gt;Node35</title>
<path fill="none" stroke="midnightblue" d="M1451.96,-535.63C1537.16,-523.35 1678.03,-503.05 1761.94,-490.95"/>
<polygon fill="midnightblue" stroke="midnightblue" points="1762.48,-494.41 1771.88,-489.52 1761.49,-487.48 1762.48,-494.41"/>
</g>
<!-- Node3 -->
<g id="node3" class="node">
<title>Node3</title>
<g id="a_node3"><a xlink:href="zwave__network__management_8h.html" target="_top" xlink:title=" ">
<polygon fill="none" stroke="black" points="200.5,-291.5 200.5,-310.5 355.5,-310.5 355.5,-291.5 200.5,-291.5"/>
<text text-anchor="middle" x="278" y="-298.5" font-family="Helvetica,sans-Serif" font-size="10.00">zwave_network_management.h</text>
</a>
</g>
</g>
<!-- Node2&#45;&gt;Node3 -->
<g id="edge2" class="edge">
<title>Node2&#45;&gt;Node3</title>
<path fill="none" stroke="midnightblue" d="M354.38,-347.32C340.05,-338.82 317.99,-325.73 301.25,-315.8"/>
<polygon fill="midnightblue" stroke="midnightblue" points="302.97,-312.75 292.58,-310.65 299.4,-318.77 302.97,-312.75"/>
</g>
<!-- Node4 -->
<g id="node4" class="node">
<title>Node4</title>
<g id="a_node4"><a xlink:title=" ">
<polygon fill="none" stroke="#bfbfbf" points="706.5,-0.5 706.5,-19.5 755.5,-19.5 755.5,-0.5 706.5,-0.5"/>
<text text-anchor="middle" x="731" y="-7.5" font-family="Helvetica,sans-Serif" font-size="10.00">stdint.h</text>
</a>
</g>
</g>
<!-- Node3&#45;&gt;Node4 -->
<g id="edge3" class="edge">
<title>Node3&#45;&gt;Node4</title>
<path fill="none" stroke="midnightblue" d="M267.11,-291.42C246.1,-273.82 202,-231.31 202,-184.5 202,-184.5 202,-184.5 202,-121 202,-74.84 240.28,-73.47 283,-56 357.9,-25.37 604.7,-14.85 696.34,-11.95"/>
<polygon fill="midnightblue" stroke="midnightblue" points="696.59,-15.44 706.48,-11.64 696.38,-8.44 696.59,-15.44"/>
</g>
<!-- Node5 -->
<g id="node5" class="node">
<title>Node5</title>
<g id="a_node5"><a xlink:title=" ">
<polygon fill="none" stroke="#bfbfbf" points="464,-0.5 464,-19.5 520,-19.5 520,-0.5 464,-0.5"/>
<text text-anchor="middle" x="492" y="-7.5" font-family="Helvetica,sans-Serif" font-size="10.00">stdbool.h</text>
</a>
</g>
</g>
<!-- Node3&#45;&gt;Node5 -->
<g id="edge4" class="edge">
<title>Node3&#45;&gt;Node5</title>
<path fill="none" stroke="midnightblue" d="M200.19,-299.45C117.95,-294.27 0,-271.65 0,-184.5 0,-184.5 0,-184.5 0,-121 0,-28.17 337.82,-13.65 453.6,-11.41"/>
<polygon fill="midnightblue" stroke="midnightblue" points="453.84,-14.9 463.78,-11.23 453.72,-7.9 453.84,-14.9"/>
</g>
<!-- Node6 -->
<g id="node6" class="node">
<title>Node6</title>
<g id="a_node6"><a xlink:href="zwave__controller__types_8h.html" target="_top" xlink:title=" ">
<polygon fill="none" stroke="black" points="466,-112.5 466,-131.5 594,-131.5 594,-112.5 466,-112.5"/>
<text text-anchor="middle" x="530" y="-119.5" font-family="Helvetica,sans-Serif" font-size="10.00">zwave_controller_types.h</text>
</a>
</g>
</g>
<!-- Node3&#45;&gt;Node6 -->
<g id="edge5" class="edge">
<title>Node3&#45;&gt;Node6</title>
<path fill="none" stroke="midnightblue" d="M279.41,-291.32C283.74,-267.59 299.12,-201.2 340,-168 372.37,-141.71 417.5,-130.3 455.65,-125.53"/>
<polygon fill="midnightblue" stroke="midnightblue" points="456.15,-129 465.7,-124.41 455.37,-122.04 456.15,-129"/>
</g>
<!-- Node8 -->
<g id="node8" class="node">
<title>Node8</title>
<g id="a_node8"><a xlink:href="zwave__generic__types_8h.html" target="_top" xlink:title=" ">
<polygon fill="none" stroke="black" points="306.5,-56.5 306.5,-75.5 425.5,-75.5 425.5,-56.5 306.5,-56.5"/>
<text text-anchor="middle" x="366" y="-63.5" font-family="Helvetica,sans-Serif" font-size="10.00">zwave_generic_types.h</text>
</a>
</g>
</g>
<!-- Node3&#45;&gt;Node8 -->
<g id="edge14" class="edge">
<title>Node3&#45;&gt;Node8</title>
<path fill="none" stroke="midnightblue" d="M278.21,-291.46C278.67,-278.92 280.17,-254.85 285,-235 299.31,-176.21 335.89,-113.73 354.6,-84.27"/>
<polygon fill="midnightblue" stroke="midnightblue" points="357.72,-85.9 360.2,-75.6 351.84,-82.1 357.72,-85.9"/>
</g>
<!-- Node10 -->
<g id="node10" class="node">
<title>Node10</title>
<g id="a_node10"><a xlink:href="zwave__network__management__types_8h.html" target="_top" xlink:title=" ">
<polygon fill="none" stroke="black" points="28,-168.5 28,-198.5 174,-198.5 174,-168.5 28,-168.5"/>
<text text-anchor="start" x="36" y="-186.5" font-family="Helvetica,sans-Serif" font-size="10.00">zwave_network_management</text>
<text text-anchor="middle" x="101" y="-175.5" font-family="Helvetica,sans-Serif" font-size="10.00">_types.h</text>
</a>
</g>
</g>
<!-- Node3&#45;&gt;Node10 -->
<g id="edge15" class="edge">
<title>Node3&#45;&gt;Node10</title>
<path fill="none" stroke="midnightblue" d="M257.66,-291.36C238.95,-283.07 210.76,-269.66 188,-255 164.97,-240.16 140.93,-220.29 123.97,-205.43"/>
<polygon fill="midnightblue" stroke="midnightblue" points="126.05,-202.6 116.25,-198.58 121.41,-207.84 126.05,-202.6"/>
</g>
<!-- Node11 -->
<g id="node11" class="node">
<title>Node11</title>
<g id="a_node11"><a xlink:href="zwave__controller__keyset_8h.html" target="_top" xlink:title=" ">
<polygon fill="none" stroke="black" points="382.5,-235.5 382.5,-254.5 515.5,-254.5 515.5,-235.5 382.5,-235.5"/>
<text text-anchor="middle" x="449" y="-242.5" font-family="Helvetica,sans-Serif" font-size="10.00">zwave_controller_keyset.h</text>
</a>
</g>
</g>
<!-- Node3&#45;&gt;Node11 -->
<g id="edge18" class="edge">
<title>Node3&#45;&gt;Node11</title>
<path fill="none" stroke="midnightblue" d="M305.1,-291.44C333.99,-282.32 379.92,-267.81 412.11,-257.65"/>
<polygon fill="midnightblue" stroke="midnightblue" points="413.55,-260.87 422.03,-254.52 411.44,-254.19 413.55,-260.87"/>
</g>
<!-- Node14 -->
<g id="node14" class="node">
<title>Node14</title>
<g id="a_node14"><a xlink:href="sl__status_8h.html" target="_top" xlink:title="SL Status Codes.">
<polygon fill="none" stroke="black" points="870.5,-56.5 870.5,-75.5 935.5,-75.5 935.5,-56.5 870.5,-56.5"/>
<text text-anchor="middle" x="903" y="-63.5" font-family="Helvetica,sans-Serif" font-size="10.00">sl_status.h</text>
</a>
</g>
</g>
<!-- Node3&#45;&gt;Node14 -->
<g id="edge23" class="edge">
<title>Node3&#45;&gt;Node14</title>
<path fill="none" stroke="midnightblue" d="M283.77,-291.12C302.32,-262.71 359.91,-175.54 373,-168 444.22,-127.01 661.24,-151.73 741,-132 763.83,-126.35 768.18,-120.8 790,-112 817.64,-100.86 849.14,-88.33 871.85,-79.32"/>
<polygon fill="midnightblue" stroke="midnightblue" points="873.31,-82.51 881.32,-75.57 870.73,-76 873.31,-82.51"/>
</g>
<!-- Node6&#45;&gt;Node4 -->
<g id="edge7" class="edge">
<title>Node6&#45;&gt;Node4</title>
<path fill="none" stroke="midnightblue" d="M545.77,-112.37C580.63,-93.29 664.45,-47.42 706.32,-24.51"/>
<polygon fill="midnightblue" stroke="midnightblue" points="708.21,-27.46 715.3,-19.59 704.85,-21.32 708.21,-27.46"/>
</g>
<!-- Node6&#45;&gt;Node5 -->
<g id="edge6" class="edge">
<title>Node6&#45;&gt;Node5</title>
<path fill="none" stroke="midnightblue" d="M511.92,-112.39C498.44,-104.87 481.03,-92.57 473,-76 465.57,-60.68 472.63,-41.88 480.16,-28.45"/>
<polygon fill="midnightblue" stroke="midnightblue" points="483.26,-30.1 485.53,-19.75 477.3,-26.43 483.26,-30.1"/>
</g>
<!-- Node7 -->
<g id="node7" class="node">
<title>Node7</title>
<g id="a_node7"><a xlink:href="zwave__node__id__definitions_8h.html" target="_top" xlink:title=" ">
<polygon fill="none" stroke="black" points="710,-56.5 710,-75.5 852,-75.5 852,-56.5 710,-56.5"/>
<text text-anchor="middle" x="781" y="-63.5" font-family="Helvetica,sans-Serif" font-size="10.00">zwave_node_id_definitions.h</text>
</a>
</g>
</g>
<!-- Node6&#45;&gt;Node7 -->
<g id="edge8" class="edge">
<title>Node6&#45;&gt;Node7</title>
<path fill="none" stroke="midnightblue" d="M569.77,-112.44C613.56,-103.02 684.01,-87.87 731.38,-77.68"/>
<polygon fill="midnightblue" stroke="midnightblue" points="732.37,-81.04 741.41,-75.52 730.9,-74.2 732.37,-81.04"/>
</g>
<!-- Node6&#45;&gt;Node8 -->
<g id="edge10" class="edge">
<title>Node6&#45;&gt;Node8</title>
<path fill="none" stroke="midnightblue" d="M504.01,-112.44C476.3,-103.32 432.25,-88.81 401.38,-78.65"/>
<polygon fill="midnightblue" stroke="midnightblue" points="402.46,-75.32 391.86,-75.52 400.27,-81.97 402.46,-75.32"/>
</g>
<!-- Node9 -->
<g id="node9" class="node">
<title>Node9</title>
<g id="a_node9"><a xlink:href="zwave__rf__region_8h.html" target="_top" xlink:title=" ">
<polygon fill="none" stroke="black" points="482,-56.5 482,-75.5 578,-75.5 578,-56.5 482,-56.5"/>
<text text-anchor="middle" x="530" y="-63.5" font-family="Helvetica,sans-Serif" font-size="10.00">zwave_rf_region.h</text>
</a>
</g>
</g>
<!-- Node6&#45;&gt;Node9 -->
<g id="edge12" class="edge">
<title>Node6&#45;&gt;Node9</title>
<path fill="none" stroke="midnightblue" d="M530,-112.08C530,-105.01 530,-94.86 530,-85.99"/>
<polygon fill="midnightblue" stroke="midnightblue" points="533.5,-85.75 530,-75.75 526.5,-85.75 533.5,-85.75"/>
</g>
<!-- Node7&#45;&gt;Node4 -->
<g id="edge9" class="edge">
<title>Node7&#45;&gt;Node4</title>
<path fill="none" stroke="midnightblue" d="M772.74,-56.08C765.54,-48.3 754.89,-36.8 746.15,-27.37"/>
<polygon fill="midnightblue" stroke="midnightblue" points="748.47,-24.71 739.1,-19.75 743.33,-29.47 748.47,-24.71"/>
</g>
<!-- Node8&#45;&gt;Node4 -->
<g id="edge11" class="edge">
<title>Node8&#45;&gt;Node4</title>
<path fill="none" stroke="midnightblue" d="M423.84,-56.44C500.41,-45.11 633.09,-25.49 695.99,-16.18"/>
<polygon fill="midnightblue" stroke="midnightblue" points="696.8,-19.6 706.18,-14.67 695.77,-12.67 696.8,-19.6"/>
</g>
<!-- Node9&#45;&gt;Node5 -->
<g id="edge13" class="edge">
<title>Node9&#45;&gt;Node5</title>
<path fill="none" stroke="midnightblue" d="M523.73,-56.08C518.36,-48.46 510.48,-37.26 503.92,-27.94"/>
<polygon fill="midnightblue" stroke="midnightblue" points="506.78,-25.91 498.16,-19.75 501.05,-29.94 506.78,-25.91"/>
</g>
<!-- Node10&#45;&gt;Node4 -->
<g id="edge17" class="edge">
<title>Node10&#45;&gt;Node4</title>
<path fill="none" stroke="midnightblue" d="M105.97,-168.4C116.37,-141.21 143.27,-81.94 188,-56 210.05,-43.22 579.83,-20.06 696.22,-13.06"/>
<polygon fill="midnightblue" stroke="midnightblue" points="696.59,-16.54 706.36,-12.45 696.17,-9.56 696.59,-16.54"/>
</g>
<!-- Node10&#45;&gt;Node5 -->
<g id="edge16" class="edge">
<title>Node10&#45;&gt;Node5</title>
<path fill="none" stroke="midnightblue" d="M101.24,-168.44C102.51,-141.85 109.36,-84.35 144,-56 190.7,-17.78 373.52,-11.77 453.82,-11"/>
<polygon fill="midnightblue" stroke="midnightblue" points="454.02,-14.5 464,-10.93 453.97,-7.5 454.02,-14.5"/>
</g>
<!-- Node12 -->
<g id="node12" class="node">
<title>Node12</title>
<g id="a_node12"><a xlink:href="zwave__controller__connection__info_8h.html" target="_top" xlink:title=" ">
<polygon fill="none" stroke="black" points="576.5,-168.5 576.5,-198.5 719.5,-198.5 719.5,-168.5 576.5,-168.5"/>
<text text-anchor="start" x="584.5" y="-186.5" font-family="Helvetica,sans-Serif" font-size="10.00">zwave_controller_connection</text>
<text text-anchor="middle" x="648" y="-175.5" font-family="Helvetica,sans-Serif" font-size="10.00">_info.h</text>
</a>
</g>
</g>
<!-- Node11&#45;&gt;Node12 -->
<g id="edge19" class="edge">
<title>Node11&#45;&gt;Node12</title>
<path fill="none" stroke="midnightblue" d="M477.51,-235.48C507.11,-226.63 554.19,-212.55 591.38,-201.43"/>
<polygon fill="midnightblue" stroke="midnightblue" points="592.52,-204.74 601.1,-198.52 590.52,-198.03 592.52,-204.74"/>
</g>
<!-- Node13 -->
<g id="node13" class="node">
<title>Node13</title>
<g id="a_node13"><a xlink:href="zwave__keyset__definitions_8h.html" target="_top" xlink:title=" ">
<polygon fill="none" stroke="black" points="382.5,-174 382.5,-193 519.5,-193 519.5,-174 382.5,-174"/>
<text text-anchor="middle" x="451" y="-181" font-family="Helvetica,sans-Serif" font-size="10.00">zwave_keyset_definitions.h</text>
</a>
</g>
</g>
<!-- Node11&#45;&gt;Node13 -->
<g id="edge21" class="edge">
<title>Node11&#45;&gt;Node13</title>
<path fill="none" stroke="midnightblue" d="M449.29,-235.48C449.57,-227.08 450.01,-213.98 450.37,-203.16"/>
<polygon fill="midnightblue" stroke="midnightblue" points="453.88,-203.12 450.71,-193.01 446.88,-202.89 453.88,-203.12"/>
</g>
<!-- Node12&#45;&gt;Node6 -->
<g id="edge20" class="edge">
<title>Node12&#45;&gt;Node6</title>
<path fill="none" stroke="midnightblue" d="M620.04,-168.4C600.68,-158.64 575.09,-145.74 556.14,-136.18"/>
<polygon fill="midnightblue" stroke="midnightblue" points="557.67,-133.04 547.17,-131.66 554.52,-139.29 557.67,-133.04"/>
</g>
<!-- Node13&#45;&gt;Node4 -->
<g id="edge22" class="edge">
<title>Node13&#45;&gt;Node4</title>
<path fill="none" stroke="midnightblue" d="M424.22,-173.94C368.93,-154.97 251.01,-107.01 297,-56 310.35,-41.19 595.39,-20.3 696.12,-13.35"/>
<polygon fill="midnightblue" stroke="midnightblue" points="696.64,-16.82 706.37,-12.65 696.16,-9.84 696.64,-16.82"/>
</g>
<!-- Node14&#45;&gt;Node4 -->
<g id="edge24" class="edge">
<title>Node14&#45;&gt;Node4</title>
<path fill="none" stroke="midnightblue" d="M875.75,-56.44C845.92,-47.08 798.02,-32.04 765.57,-21.85"/>
<polygon fill="midnightblue" stroke="midnightblue" points="766.21,-18.39 755.62,-18.73 764.11,-25.06 766.21,-18.39"/>
</g>
<!-- Node22 -->
<g id="node22" class="node">
<title>Node22</title>
<g id="a_node22"><a xlink:title=" ">
<polygon fill="none" stroke="#bfbfbf" points="870.5,-409 870.5,-428 907.5,-428 907.5,-409 870.5,-409"/>
<text text-anchor="middle" x="889" y="-416" font-family="Helvetica,sans-Serif" font-size="10.00">S2.h</text>
</a>
</g>
</g>
<!-- Node21&#45;&gt;Node22 -->
<g id="edge32" class="edge">
<title>Node21&#45;&gt;Node22</title>
<path fill="none" stroke="midnightblue" d="M869.3,-470.48C872.61,-461.9 877.82,-448.43 882.05,-437.48"/>
<polygon fill="midnightblue" stroke="midnightblue" points="885.37,-438.6 885.71,-428.01 878.84,-436.07 885.37,-438.6"/>
</g>
<!-- Node23 -->
<g id="node23" class="node">
<title>Node23</title>
<g id="a_node23"><a xlink:href="zwave__rx_8h.html" target="_top" xlink:title=" ">
<polygon fill="none" stroke="black" points="744.5,-235.5 744.5,-254.5 811.5,-254.5 811.5,-235.5 744.5,-235.5"/>
<text text-anchor="middle" x="778" y="-242.5" font-family="Helvetica,sans-Serif" font-size="10.00">zwave_rx.h</text>
</a>
</g>
</g>
<!-- Node21&#45;&gt;Node23 -->
<g id="edge33" class="edge">
<title>Node21&#45;&gt;Node23</title>
<path fill="none" stroke="midnightblue" d="M862.76,-470.43C849.99,-436.61 802.91,-311.95 784.99,-264.5"/>
<polygon fill="midnightblue" stroke="midnightblue" points="788.17,-263.01 781.36,-254.9 781.62,-265.49 788.17,-263.01"/>
</g>
<!-- Node24 -->
<g id="node24" class="node">
<title>Node24</title>
<g id="a_node24"><a xlink:href="zwave__controller__transport__internal_8h.html" target="_top" xlink:title=" ">
<polygon fill="none" stroke="black" points="680,-403.5 680,-433.5 814,-433.5 814,-403.5 680,-403.5"/>
<text text-anchor="start" x="688" y="-421.5" font-family="Helvetica,sans-Serif" font-size="10.00">zwave_controller_transport</text>
<text text-anchor="middle" x="747" y="-410.5" font-family="Helvetica,sans-Serif" font-size="10.00">_internal.h</text>
</a>
</g>
</g>
<!-- Node21&#45;&gt;Node24 -->
<g id="edge36" class="edge">
<title>Node21&#45;&gt;Node24</title>
<path fill="none" stroke="midnightblue" d="M848.95,-470.48C832.08,-462.04 805.71,-448.86 784.02,-438.01"/>
<polygon fill="midnightblue" stroke="midnightblue" points="785.56,-434.86 775.05,-433.52 782.42,-441.13 785.56,-434.86"/>
</g>
<!-- Node23&#45;&gt;Node12 -->
<g id="edge34" class="edge">
<title>Node23&#45;&gt;Node12</title>
<path fill="none" stroke="midnightblue" d="M759.37,-235.48C740.78,-226.96 711.62,-213.62 687.8,-202.72"/>
<polygon fill="midnightblue" stroke="midnightblue" points="689.19,-199.5 678.64,-198.52 686.27,-205.87 689.19,-199.5"/>
</g>
<!-- Node23&#45;&gt;Node14 -->
<g id="edge35" class="edge">
<title>Node23&#45;&gt;Node14</title>
<path fill="none" stroke="midnightblue" d="M773.48,-235.03C766.71,-220.23 755.86,-190.15 767,-168 788.83,-124.6 839.12,-95.15 872.04,-79.73"/>
<polygon fill="midnightblue" stroke="midnightblue" points="873.57,-82.88 881.24,-75.57 870.69,-76.5 873.57,-82.88"/>
</g>
<!-- Node25 -->
<g id="node25" class="node">
<title>Node25</title>
<g id="a_node25"><a xlink:href="zwave__controller_8h.html" target="_top" xlink:title=" ">
<polygon fill="none" stroke="black" points="533,-347.5 533,-366.5 631,-366.5 631,-347.5 533,-347.5"/>
<text text-anchor="middle" x="582" y="-354.5" font-family="Helvetica,sans-Serif" font-size="10.00">zwave_controller.h</text>
</a>
</g>
</g>
<!-- Node24&#45;&gt;Node25 -->
<g id="edge37" class="edge">
<title>Node24&#45;&gt;Node25</title>
<path fill="none" stroke="midnightblue" d="M707.9,-403.4C679.84,-393.28 642.43,-379.79 615.69,-370.15"/>
<polygon fill="midnightblue" stroke="midnightblue" points="616.6,-366.76 606.01,-366.66 614.23,-373.34 616.6,-366.76"/>
</g>
<!-- Node29 -->
<g id="node29" class="node">
<title>Node29</title>
<g id="a_node29"><a xlink:href="zwave__tx_8h.html" target="_top" xlink:title=" ">
<polygon fill="none" stroke="black" points="860.5,-235.5 860.5,-254.5 927.5,-254.5 927.5,-235.5 860.5,-235.5"/>
<text text-anchor="middle" x="894" y="-242.5" font-family="Helvetica,sans-Serif" font-size="10.00">zwave_tx.h</text>
</a>
</g>
</g>
<!-- Node24&#45;&gt;Node29 -->
<g id="edge50" class="edge">
<title>Node24&#45;&gt;Node29</title>
<path fill="none" stroke="midnightblue" d="M759.03,-403.47C785.97,-372.03 851.04,-296.12 879.86,-262.5"/>
<polygon fill="midnightblue" stroke="midnightblue" points="882.81,-264.43 886.66,-254.56 877.5,-259.87 882.81,-264.43"/>
</g>
<!-- Node25&#45;&gt;Node3 -->
<g id="edge38" class="edge">
<title>Node25&#45;&gt;Node3</title>
<path fill="none" stroke="midnightblue" d="M533.83,-347.44C480.13,-337.9 393.31,-322.48 335.95,-312.29"/>
<polygon fill="midnightblue" stroke="midnightblue" points="336.4,-308.82 325.94,-310.52 335.18,-315.71 336.4,-308.82"/>
</g>
<!-- Node26 -->
<g id="node26" class="node">
<title>Node26</title>
<g id="a_node26"><a xlink:href="zwave__controller__callbacks_8h.html" target="_top" xlink:title=" ">
<polygon fill="none" stroke="black" points="509.5,-291.5 509.5,-310.5 654.5,-310.5 654.5,-291.5 509.5,-291.5"/>
<text text-anchor="middle" x="582" y="-298.5" font-family="Helvetica,sans-Serif" font-size="10.00">zwave_controller_callbacks.h</text>
</a>
</g>
</g>
<!-- Node25&#45;&gt;Node26 -->
<g id="edge39" class="edge">
<title>Node25&#45;&gt;Node26</title>
<path fill="none" stroke="midnightblue" d="M582,-347.08C582,-340.01 582,-329.86 582,-320.99"/>
<polygon fill="midnightblue" stroke="midnightblue" points="585.5,-320.75 582,-310.75 578.5,-320.75 585.5,-320.75"/>
</g>
<!-- Node26&#45;&gt;Node8 -->
<g id="edge44" class="edge">
<title>Node26&#45;&gt;Node8</title>
<path fill="none" stroke="midnightblue" d="M580.73,-291.48C576.91,-268.7 563.64,-205.59 529,-168 504.76,-141.69 487.65,-150.45 457,-132 430.99,-116.34 402.79,-95.55 384.79,-81.75"/>
<polygon fill="midnightblue" stroke="midnightblue" points="386.88,-78.94 376.83,-75.58 382.59,-84.47 386.88,-78.94"/>
</g>
<!-- Node26&#45;&gt;Node10 -->
<g id="edge42" class="edge">
<title>Node26&#45;&gt;Node10</title>
<path fill="none" stroke="midnightblue" d="M539.85,-291.46C497.56,-282.77 430.6,-268.66 373,-255 300.39,-237.78 217.43,-215.97 162.42,-201.2"/>
<polygon fill="midnightblue" stroke="midnightblue" points="163.05,-197.74 152.48,-198.52 161.23,-204.5 163.05,-197.74"/>
</g>
<!-- Node26&#45;&gt;Node13 -->
<g id="edge43" class="edge">
<title>Node26&#45;&gt;Node13</title>
<path fill="none" stroke="midnightblue" d="M575.59,-291.39C565.63,-278.32 545.45,-253.11 525,-235 509.38,-221.17 489.81,-207.96 474.72,-198.53"/>
<polygon fill="midnightblue" stroke="midnightblue" points="476.33,-195.41 465.98,-193.17 472.67,-201.38 476.33,-195.41"/>
</g>
<!-- Node27 -->
<g id="node27" class="node">
<title>Node27</title>
<g id="a_node27"><a xlink:href="zwave__rx__definitions_8h.html" target="_top" xlink:title=" ">
<polygon fill="none" stroke="black" points="610,-235.5 610,-254.5 726,-254.5 726,-235.5 610,-235.5"/>
<text text-anchor="middle" x="668" y="-242.5" font-family="Helvetica,sans-Serif" font-size="10.00">zwave_rx_definitions.h</text>
</a>
</g>
</g>
<!-- Node26&#45;&gt;Node27 -->
<g id="edge40" class="edge">
<title>Node26&#45;&gt;Node27</title>
<path fill="none" stroke="midnightblue" d="M595.82,-291.32C609.23,-282.9 629.82,-269.97 645.59,-260.07"/>
<polygon fill="midnightblue" stroke="midnightblue" points="647.61,-262.94 654.22,-254.65 643.89,-257.01 647.61,-262.94"/>
</g>
<!-- Node28 -->
<g id="node28" class="node">
<title>Node28</title>
<g id="a_node28"><a xlink:href="zwapi__protocol__transport_8h.html" target="_top" xlink:title="Z&#45;Wave API for transport application layer interface.">
<polygon fill="none" stroke="black" points="864,-112.5 864,-131.5 998,-131.5 998,-112.5 864,-112.5"/>
<text text-anchor="middle" x="931" y="-119.5" font-family="Helvetica,sans-Serif" font-size="10.00">zwapi_protocol_transport.h</text>
</a>
</g>
</g>
<!-- Node26&#45;&gt;Node28 -->
<g id="edge45" class="edge">
<title>Node26&#45;&gt;Node28</title>
<path fill="none" stroke="midnightblue" d="M654.71,-296.69C743.96,-291.61 889.31,-279.77 937,-255 976.77,-234.34 1007.55,-208.33 988,-168 981.6,-154.8 969.25,-144.3 957.67,-136.78"/>
<polygon fill="midnightblue" stroke="midnightblue" points="959.45,-133.77 949.08,-131.61 955.84,-139.77 959.45,-133.77"/>
</g>
<!-- Node27&#45;&gt;Node12 -->
<g id="edge41" class="edge">
<title>Node27&#45;&gt;Node12</title>
<path fill="none" stroke="midnightblue" d="M665.13,-235.48C662.73,-228.32 659.18,-217.75 655.93,-208.08"/>
<polygon fill="midnightblue" stroke="midnightblue" points="659.22,-206.89 652.71,-198.52 652.58,-209.12 659.22,-206.89"/>
</g>
<!-- Node28&#45;&gt;Node4 -->
<g id="edge46" class="edge">
<title>Node28&#45;&gt;Node4</title>
<path fill="none" stroke="midnightblue" d="M945.21,-112.3C964.3,-99.56 994.06,-75.25 978,-56 951.34,-24.04 827.03,-14.72 765.57,-12.05"/>
<polygon fill="midnightblue" stroke="midnightblue" points="765.7,-8.55 755.57,-11.65 765.42,-15.55 765.7,-8.55"/>
</g>
<!-- Node28&#45;&gt;Node5 -->
<g id="edge47" class="edge">
<title>Node28&#45;&gt;Node5</title>
<path fill="none" stroke="midnightblue" d="M937.08,-112.2C945.79,-98.43 959.26,-71.74 945,-56 931.11,-40.66 636.51,-20.29 530,-13.39"/>
<polygon fill="midnightblue" stroke="midnightblue" points="530.2,-9.9 520,-12.75 529.76,-16.89 530.2,-9.9"/>
</g>
<!-- Node28&#45;&gt;Node7 -->
<g id="edge49" class="edge">
<title>Node28&#45;&gt;Node7</title>
<path fill="none" stroke="midnightblue" d="M907.23,-112.44C882.11,-103.4 842.29,-89.06 814.1,-78.92"/>
<polygon fill="midnightblue" stroke="midnightblue" points="815.25,-75.61 804.66,-75.52 812.88,-82.2 815.25,-75.61"/>
</g>
<!-- Node28&#45;&gt;Node14 -->
<g id="edge48" class="edge">
<title>Node28&#45;&gt;Node14</title>
<path fill="none" stroke="midnightblue" d="M926.38,-112.08C922.54,-104.69 916.98,-93.95 912.24,-84.81"/>
<polygon fill="midnightblue" stroke="midnightblue" points="915.25,-83.02 907.54,-75.75 909.03,-86.24 915.25,-83.02"/>
</g>
<!-- Node29&#45;&gt;Node12 -->
<g id="edge52" class="edge">
<title>Node29&#45;&gt;Node12</title>
<path fill="none" stroke="midnightblue" d="M860.31,-235.85C823.33,-226.91 762.99,-212.31 716.07,-200.96"/>
<polygon fill="midnightblue" stroke="midnightblue" points="716.82,-197.54 706.27,-198.59 715.17,-204.35 716.82,-197.54"/>
</g>
<!-- Node29&#45;&gt;Node14 -->
<g id="edge51" class="edge">
<title>Node29&#45;&gt;Node14</title>
<path fill="none" stroke="midnightblue" d="M901.51,-235.06C912.94,-220.32 932.04,-190.3 919,-168 902.52,-139.83 871.48,-160.17 855,-132 850.51,-124.33 851.47,-120.16 855,-112 860.27,-99.84 870.62,-89.46 880.36,-81.74"/>
<polygon fill="midnightblue" stroke="midnightblue" points="882.64,-84.41 888.63,-75.67 878.5,-78.77 882.64,-84.41"/>
</g>
<!-- Node29&#45;&gt;Node28 -->
<g id="edge53" class="edge">
<title>Node29&#45;&gt;Node28</title>
<path fill="none" stroke="midnightblue" d="M923.12,-235.44C940.64,-228.62 961.52,-217.14 972,-199 978.89,-187.07 976.98,-180.85 972,-168 967.55,-156.5 958.63,-146.13 950.25,-138.25"/>
<polygon fill="midnightblue" stroke="midnightblue" points="952.37,-135.46 942.54,-131.51 947.76,-140.73 952.37,-135.46"/>
</g>
<!-- Node30 -->
<g id="node30" class="node">
<title>Node30</title>
<g id="a_node30"><a xlink:href="zwapi__protocol__basis_8h.html" target="_top" xlink:title="Z&#45;Wave API for basis controller/end node application interface.">
<polygon fill="none" stroke="black" points="612.5,-112.5 612.5,-131.5 731.5,-131.5 731.5,-112.5 612.5,-112.5"/>
<text text-anchor="middle" x="672" y="-119.5" font-family="Helvetica,sans-Serif" font-size="10.00">zwapi_protocol_basis.h</text>
</a>
</g>
</g>
<!-- Node29&#45;&gt;Node30 -->
<g id="edge54" class="edge">
<title>Node29&#45;&gt;Node30</title>
<path fill="none" stroke="midnightblue" d="M898.35,-235.33C905.39,-219.89 916.99,-187.44 901,-168 881.08,-143.78 801.52,-132.4 741.73,-127.18"/>
<polygon fill="midnightblue" stroke="midnightblue" points="741.82,-123.68 731.57,-126.34 741.24,-130.65 741.82,-123.68"/>
</g>
<!-- Node31 -->
<g id="node31" class="node">
<title>Node31</title>
<g id="a_node31"><a xlink:href="zwave__tx__definitions_8h.html" target="_top" xlink:title=" ">
<polygon fill="none" stroke="black" points="776,-174 776,-193 892,-193 892,-174 776,-174"/>
<text text-anchor="middle" x="834" y="-181" font-family="Helvetica,sans-Serif" font-size="10.00">zwave_tx_definitions.h</text>
</a>
</g>
</g>
<!-- Node29&#45;&gt;Node31 -->
<g id="edge60" class="edge">
<title>Node29&#45;&gt;Node31</title>
<path fill="none" stroke="midnightblue" d="M885.4,-235.48C876.14,-226.28 861.18,-211.46 849.79,-200.16"/>
<polygon fill="midnightblue" stroke="midnightblue" points="852.15,-197.57 842.58,-193.01 847.22,-202.54 852.15,-197.57"/>
</g>
<!-- Node30&#45;&gt;Node4 -->
<g id="edge55" class="edge">
<title>Node30&#45;&gt;Node4</title>
<path fill="none" stroke="midnightblue" d="M675.31,-112.37C680.29,-99.7 690.26,-75.48 701,-56 706.27,-46.44 712.94,-36.28 718.65,-28.04"/>
<polygon fill="midnightblue" stroke="midnightblue" points="721.65,-29.87 724.57,-19.69 715.93,-25.83 721.65,-29.87"/>
</g>
<!-- Node30&#45;&gt;Node5 -->
<g id="edge56" class="edge">
<title>Node30&#45;&gt;Node5</title>
<path fill="none" stroke="midnightblue" d="M662.29,-112.48C646.99,-99.31 616.03,-73.7 587,-56 566.43,-43.46 541.82,-31.89 522.8,-23.62"/>
<polygon fill="midnightblue" stroke="midnightblue" points="523.99,-20.32 513.42,-19.61 521.24,-26.76 523.99,-20.32"/>
</g>
<!-- Node30&#45;&gt;Node7 -->
<g id="edge59" class="edge">
<title>Node30&#45;&gt;Node7</title>
<path fill="none" stroke="midnightblue" d="M689.51,-112.32C707.07,-103.62 734.33,-90.12 754.53,-80.11"/>
<polygon fill="midnightblue" stroke="midnightblue" points="756.12,-83.23 763.53,-75.65 753.02,-76.96 756.12,-83.23"/>
</g>
<!-- Node30&#45;&gt;Node9 -->
<g id="edge58" class="edge">
<title>Node30&#45;&gt;Node9</title>
<path fill="none" stroke="midnightblue" d="M649.5,-112.44C625.92,-103.48 588.68,-89.31 562.04,-79.18"/>
<polygon fill="midnightblue" stroke="midnightblue" points="562.99,-75.8 552.4,-75.52 560.5,-82.34 562.99,-75.8"/>
</g>
<!-- Node30&#45;&gt;Node14 -->
<g id="edge57" class="edge">
<title>Node30&#45;&gt;Node14</title>
<path fill="none" stroke="midnightblue" d="M708.6,-112.44C749.82,-102.81 816.73,-87.17 860.3,-76.98"/>
<polygon fill="midnightblue" stroke="midnightblue" points="861.36,-80.33 870.3,-74.64 859.77,-73.51 861.36,-80.33"/>
</g>
<!-- Node31&#45;&gt;Node6 -->
<g id="edge61" class="edge">
<title>Node31&#45;&gt;Node6</title>
<path fill="none" stroke="midnightblue" d="M790.44,-173.98C735.81,-163.28 642.19,-144.96 583.33,-133.44"/>
<polygon fill="midnightblue" stroke="midnightblue" points="583.96,-130 573.47,-131.51 582.62,-136.86 583.96,-130"/>
</g>
<!-- Node32&#45;&gt;Node4 -->
<g id="edge63" class="edge">
<title>Node32&#45;&gt;Node4</title>
<path fill="none" stroke="midnightblue" d="M1152.63,-235.23C1146.74,-226.53 1138.39,-212.57 1135,-199 1127.73,-169.91 1139.73,-161.81 1143,-132 1143.97,-123.16 1147.77,-119.5 1143,-112 1102.04,-47.69 857.83,-21.34 765.93,-13.61"/>
<polygon fill="midnightblue" stroke="midnightblue" points="766.01,-10.11 755.76,-12.78 765.44,-17.08 766.01,-10.11"/>
</g>
<!-- Node33 -->
<g id="node33" class="node">
<title>Node33</title>
<g id="a_node33"><a xlink:href="zwave__s2__keystore_8h.html" target="_top" xlink:title=" ">
<polygon fill="none" stroke="black" points="1144,-174 1144,-193 1256,-193 1256,-174 1144,-174"/>
<text text-anchor="middle" x="1200" y="-181" font-family="Helvetica,sans-Serif" font-size="10.00">zwave_s2_keystore.h</text>
</a>
</g>
</g>
<!-- Node32&#45;&gt;Node33 -->
<g id="edge64" class="edge">
<title>Node32&#45;&gt;Node33</title>
<path fill="none" stroke="midnightblue" d="M1164.87,-235.48C1170.96,-226.64 1180.64,-212.59 1188.3,-201.48"/>
<polygon fill="midnightblue" stroke="midnightblue" points="1191.34,-203.23 1194.14,-193.01 1185.58,-199.26 1191.34,-203.23"/>
</g>
<!-- Node34 -->
<g id="node34" class="node">
<title>Node34</title>
<g id="a_node34"><a xlink:href="zwapi__protocol__mem_8h.html" target="_top" xlink:title="Z&#45;Wave API for module memory manipulation.">
<polygon fill="none" stroke="black" points="1016.5,-112.5 1016.5,-131.5 1133.5,-131.5 1133.5,-112.5 1016.5,-112.5"/>
<text text-anchor="middle" x="1075" y="-119.5" font-family="Helvetica,sans-Serif" font-size="10.00">zwapi_protocol_mem.h</text>
</a>
</g>
</g>
<!-- Node32&#45;&gt;Node34 -->
<g id="edge68" class="edge">
<title>Node32&#45;&gt;Node34</title>
<path fill="none" stroke="midnightblue" d="M1143.95,-235.47C1131.17,-227.52 1113.17,-214.58 1102,-199 1089.54,-181.62 1082.34,-157.92 1078.55,-141.63"/>
<polygon fill="midnightblue" stroke="midnightblue" points="1081.95,-140.77 1076.46,-131.71 1075.1,-142.22 1081.95,-140.77"/>
</g>
<!-- Node33&#45;&gt;Node4 -->
<g id="edge67" class="edge">
<title>Node33&#45;&gt;Node4</title>
<path fill="none" stroke="midnightblue" d="M1201.45,-173.81C1204.75,-150.68 1210.11,-87.27 1176,-56 1145.94,-28.44 865.5,-15.81 765.89,-12.16"/>
<polygon fill="midnightblue" stroke="midnightblue" points="765.87,-8.66 755.75,-11.8 765.62,-15.66 765.87,-8.66"/>
</g>
<!-- Node33&#45;&gt;Node6 -->
<g id="edge65" class="edge">
<title>Node33&#45;&gt;Node6</title>
<path fill="none" stroke="midnightblue" d="M1143.65,-178.41C1039.5,-170.71 809.63,-153.01 604.23,-131.98"/>
<polygon fill="midnightblue" stroke="midnightblue" points="604.46,-128.49 594.16,-130.95 603.75,-135.45 604.46,-128.49"/>
</g>
<!-- Node33&#45;&gt;Node20 -->
<g id="edge66" class="edge">
<title>Node33&#45;&gt;Node20</title>
<path fill="none" stroke="midnightblue" d="M1209.74,-173.98C1220.35,-164.7 1237.52,-149.67 1250.48,-138.33"/>
<polygon fill="midnightblue" stroke="midnightblue" points="1253.05,-140.73 1258.28,-131.51 1248.44,-135.46 1253.05,-140.73"/>
</g>
<!-- Node34&#45;&gt;Node4 -->
<g id="edge69" class="edge">
<title>Node34&#45;&gt;Node4</title>
<path fill="none" stroke="midnightblue" d="M1067,-112.16C1053.48,-97.84 1024.58,-69.76 994,-56 917.53,-21.59 817.7,-13.34 765.78,-11.46"/>
<polygon fill="midnightblue" stroke="midnightblue" points="765.86,-7.96 755.76,-11.16 765.65,-14.96 765.86,-7.96"/>
</g>
<!-- Node34&#45;&gt;Node7 -->
<g id="edge71" class="edge">
<title>Node34&#45;&gt;Node7</title>
<path fill="none" stroke="midnightblue" d="M1028.41,-112.44C976.59,-102.92 892.87,-87.55 837.38,-77.36"/>
<polygon fill="midnightblue" stroke="midnightblue" points="837.84,-73.88 827.37,-75.52 836.57,-80.77 837.84,-73.88"/>
</g>
<!-- Node34&#45;&gt;Node14 -->
<g id="edge70" class="edge">
<title>Node34&#45;&gt;Node14</title>
<path fill="none" stroke="midnightblue" d="M1047.75,-112.44C1018.56,-103.28 972.08,-88.69 939.69,-78.52"/>
<polygon fill="midnightblue" stroke="midnightblue" points="940.72,-75.17 930.13,-75.52 938.62,-81.85 940.72,-75.17"/>
</g>
</g>
</svg>
