<?xml version="1.0" encoding="UTF-8" standalone="no"?>
<!DOCTYPE svg PUBLIC "-//W3C//DTD SVG 1.1//EN"
 "http://www.w3.org/Graphics/SVG/1.1/DTD/svg11.dtd">
<!-- Generated by graphviz version 2.43.0 (0)
 -->
<!-- Title: zwave_command_class_version_handle_software_report_command Pages: 1 -->
<svg width="966pt" height="105pt"
 viewBox="0.00 0.00 966.00 104.50" xmlns="http://www.w3.org/2000/svg" xmlns:xlink="http://www.w3.org/1999/xlink">
<g id="graph0" class="graph" transform="scale(1 1) rotate(0) translate(4 100.5)">
<title>zwave_command_class_version_handle_software_report_command</title>
<!-- Node1 -->
<g id="node1" class="node">
<title>Node1</title>
<g id="a_node1"><a xlink:title=" ">
<polygon fill="#bfbfbf" stroke="black" points="0,-35.5 0,-76.5 130,-76.5 130,-35.5 0,-35.5"/>
<text text-anchor="start" x="8" y="-64.5" font-family="Helvetica,sans-Serif" font-size="10.00">zwave_command_class</text>
<text text-anchor="start" x="8" y="-53.5" font-family="Helvetica,sans-Serif" font-size="10.00">_version_handle_software</text>
<text text-anchor="middle" x="65" y="-42.5" font-family="Helvetica,sans-Serif" font-size="10.00">_report_command</text>
</a>
</g>
</g>
<!-- Node2 -->
<g id="node2" class="node">
<title>Node2</title>
<g id="a_node2"><a xlink:href="zwave__command__class__version_8c.html#a84c943ed3a8ffa85515e93dda3c2e249" target="_top" xlink:title="Retrieves (and create if needed) the firmware ID node for a given ID under the version report data.">
<polygon fill="none" stroke="black" points="167.5,-66 167.5,-96 286.5,-96 286.5,-66 167.5,-66"/>
<text text-anchor="start" x="175.5" y="-84" font-family="Helvetica,sans-Serif" font-size="10.00">get_or_create_firmware</text>
<text text-anchor="middle" x="227" y="-73" font-family="Helvetica,sans-Serif" font-size="10.00">_id_node</text>
</a>
</g>
</g>
<!-- Node1&#45;&gt;Node2 -->
<g id="edge1" class="edge">
<title>Node1&#45;&gt;Node2</title>
<path fill="none" stroke="midnightblue" d="M130.16,-66.02C139.06,-67.42 148.24,-68.85 157.23,-70.25"/>
<polygon fill="midnightblue" stroke="midnightblue" points="156.85,-73.74 167.27,-71.82 157.93,-66.82 156.85,-73.74"/>
</g>
<!-- Node3 -->
<g id="node3" class="node">
<title>Node3</title>
<g id="a_node3"><a xlink:href="group__command__classes__utils.html#gaff12f5d1f5b9eed08201efab5854190c" target="_top" xlink:title="Find the Z&#45;Wave Endpoint ID Node attribute based on a const zwave_controller_connection_info_t object...">
<polygon fill="none" stroke="black" points="166,-17 166,-47 288,-47 288,-17 166,-17"/>
<text text-anchor="start" x="174" y="-35" font-family="Helvetica,sans-Serif" font-size="10.00">zwave_command_class</text>
<text text-anchor="middle" x="227" y="-24" font-family="Helvetica,sans-Serif" font-size="10.00">_get_endpoint_node</text>
</a>
</g>
</g>
<!-- Node1&#45;&gt;Node3 -->
<g id="edge2" class="edge">
<title>Node1&#45;&gt;Node3</title>
<path fill="none" stroke="midnightblue" d="M130.16,-46.38C138.65,-45.1 147.4,-43.79 155.99,-42.5"/>
<polygon fill="midnightblue" stroke="midnightblue" points="156.61,-45.95 165.98,-41 155.57,-39.03 156.61,-45.95"/>
</g>
<!-- Node4 -->
<g id="node4" class="node">
<title>Node4</title>
<g id="a_node4"><a xlink:href="group__zpc__attribute__store__network__helpers.html#gae4d15b8e0c61c88d94c8f342bd2014fc" target="_top" xlink:title="Take a UNID/endpoint combination and returns its attribute store node.">
<polygon fill="none" stroke="black" points="324,-39 324,-69 459,-69 459,-39 324,-39"/>
<text text-anchor="start" x="332" y="-57" font-family="Helvetica,sans-Serif" font-size="10.00">attribute_store_network</text>
<text text-anchor="middle" x="391.5" y="-46" font-family="Helvetica,sans-Serif" font-size="10.00">_helper_get_endpoint_node</text>
</a>
</g>
</g>
<!-- Node3&#45;&gt;Node4 -->
<g id="edge3" class="edge">
<title>Node3&#45;&gt;Node4</title>
<path fill="none" stroke="midnightblue" d="M288.05,-40.13C296.43,-41.26 305.14,-42.44 313.77,-43.61"/>
<polygon fill="midnightblue" stroke="midnightblue" points="313.48,-47.1 323.86,-44.98 314.42,-40.17 313.48,-47.1"/>
</g>
<!-- Node9 -->
<g id="node9" class="node">
<title>Node9</title>
<g id="a_node9"><a xlink:href="group__zwave__unid.html#ga421deceb8a12916f049e4f3446774439" target="_top" xlink:title="Form a UNID.">
<polygon fill="none" stroke="black" points="325.5,-0.5 325.5,-19.5 457.5,-19.5 457.5,-0.5 325.5,-0.5"/>
<text text-anchor="middle" x="391.5" y="-7.5" font-family="Helvetica,sans-Serif" font-size="10.00">zwave_unid_from_node_id</text>
</a>
</g>
</g>
<!-- Node3&#45;&gt;Node9 -->
<g id="edge8" class="edge">
<title>Node3&#45;&gt;Node9</title>
<path fill="none" stroke="midnightblue" d="M288.05,-23.87C296.85,-22.68 306.01,-21.44 315.07,-20.21"/>
<polygon fill="midnightblue" stroke="midnightblue" points="315.8,-23.65 325.24,-18.84 314.86,-16.71 315.8,-23.65"/>
</g>
<!-- Node5 -->
<g id="node5" class="node">
<title>Node5</title>
<g id="a_node5"><a xlink:href="group__zpc__attribute__store__network__helpers.html#gafb993ff484b3c826743c4695d6659cf0" target="_top" xlink:title="Take a UNID and return its attribute store node representing the NodeID.">
<polygon fill="none" stroke="black" points="495,-39 495,-69 627,-69 627,-39 495,-39"/>
<text text-anchor="start" x="503" y="-57" font-family="Helvetica,sans-Serif" font-size="10.00">attribute_store_network</text>
<text text-anchor="middle" x="561" y="-46" font-family="Helvetica,sans-Serif" font-size="10.00">_helper_get_node_id_node</text>
</a>
</g>
</g>
<!-- Node4&#45;&gt;Node5 -->
<g id="edge4" class="edge">
<title>Node4&#45;&gt;Node5</title>
<path fill="none" stroke="midnightblue" d="M459.18,-54C467.55,-54 476.15,-54 484.64,-54"/>
<polygon fill="midnightblue" stroke="midnightblue" points="484.91,-57.5 494.91,-54 484.91,-50.5 484.91,-57.5"/>
</g>
<!-- Node6 -->
<g id="node6" class="node">
<title>Node6</title>
<g id="a_node6"><a xlink:href="group__zpc__attribute__store__network__helpers.html#ga05cb572c96f7dc8e6657f86e135fafed" target="_top" xlink:title="Take a UNID and return its attribute store node representing the HomeID.">
<polygon fill="none" stroke="black" points="663,-61 663,-91 798,-91 798,-61 663,-61"/>
<text text-anchor="start" x="671" y="-79" font-family="Helvetica,sans-Serif" font-size="10.00">attribute_store_network</text>
<text text-anchor="middle" x="730.5" y="-68" font-family="Helvetica,sans-Serif" font-size="10.00">_helper_get_home_id_node</text>
</a>
</g>
</g>
<!-- Node5&#45;&gt;Node6 -->
<g id="edge5" class="edge">
<title>Node5&#45;&gt;Node6</title>
<path fill="none" stroke="midnightblue" d="M627.24,-62.57C635.62,-63.67 644.27,-64.81 652.82,-65.93"/>
<polygon fill="midnightblue" stroke="midnightblue" points="652.41,-69.4 662.78,-67.24 653.32,-62.46 652.41,-69.4"/>
</g>
<!-- Node8 -->
<g id="node8" class="node">
<title>Node8</title>
<g id="a_node8"><a xlink:href="group__zwave__unid.html#ga76885767debd174e96e6df00b0a368c3" target="_top" xlink:title="Convert a UNID to a node ID.">
<polygon fill="none" stroke="black" points="670,-22.5 670,-41.5 791,-41.5 791,-22.5 670,-22.5"/>
<text text-anchor="middle" x="730.5" y="-29.5" font-family="Helvetica,sans-Serif" font-size="10.00">zwave_unid_to_node_id</text>
</a>
</g>
</g>
<!-- Node5&#45;&gt;Node8 -->
<g id="edge7" class="edge">
<title>Node5&#45;&gt;Node8</title>
<path fill="none" stroke="midnightblue" d="M627.24,-45.43C637.89,-44.03 648.96,-42.58 659.72,-41.17"/>
<polygon fill="midnightblue" stroke="midnightblue" points="660.45,-44.6 669.91,-39.83 659.54,-37.66 660.45,-44.6"/>
</g>
<!-- Node7 -->
<g id="node7" class="node">
<title>Node7</title>
<g id="a_node7"><a xlink:href="group__zwave__unid.html#ga92f9808a08c2ce1c0a6a9dc2debf3580" target="_top" xlink:title="Convert a UNID to a Home ID.">
<polygon fill="none" stroke="black" points="834,-66.5 834,-85.5 958,-85.5 958,-66.5 834,-66.5"/>
<text text-anchor="middle" x="896" y="-73.5" font-family="Helvetica,sans-Serif" font-size="10.00">zwave_unid_to_home_id</text>
</a>
</g>
</g>
<!-- Node6&#45;&gt;Node7 -->
<g id="edge6" class="edge">
<title>Node6&#45;&gt;Node7</title>
<path fill="none" stroke="midnightblue" d="M798,-76C806.42,-76 815.07,-76 823.57,-76"/>
<polygon fill="midnightblue" stroke="midnightblue" points="823.83,-79.5 833.83,-76 823.83,-72.5 823.83,-79.5"/>
</g>
</g>
</svg>
