<?xml version="1.0" encoding="UTF-8" standalone="no"?>
<!DOCTYPE svg PUBLIC "-//W3C//DTD SVG 1.1//EN"
 "http://www.w3.org/Graphics/SVG/1.1/DTD/svg11.dtd">
<!-- Generated by graphviz version 2.43.0 (0)
 -->
<!-- Title: applications/zpc/components/zwave_command_classes/src/zwave_command_class_zwave_plus_info.h Pages: 1 -->
<svg width="513pt" height="352pt"
 viewBox="0.00 0.00 513.00 352.00" xmlns="http://www.w3.org/2000/svg" xmlns:xlink="http://www.w3.org/1999/xlink">
<g id="graph0" class="graph" transform="scale(1 1) rotate(0) translate(4 348)">
<title>applications/zpc/components/zwave_command_classes/src/zwave_command_class_zwave_plus_info.h</title>
<!-- Node1 -->
<g id="node1" class="node">
<title>Node1</title>
<g id="a_node1"><a xlink:title=" ">
<polygon fill="#bfbfbf" stroke="black" points="0,-291.5 0,-343.5 158,-343.5 158,-291.5 0,-291.5"/>
<text text-anchor="start" x="8" y="-331.5" font-family="Helvetica,sans-Serif" font-size="10.00">applications/zpc/components</text>
<text text-anchor="start" x="8" y="-320.5" font-family="Helvetica,sans-Serif" font-size="10.00">/zwave_command_classes/src</text>
<text text-anchor="start" x="8" y="-309.5" font-family="Helvetica,sans-Serif" font-size="10.00">/zwave_command_class_zwave</text>
<text text-anchor="middle" x="79" y="-298.5" font-family="Helvetica,sans-Serif" font-size="10.00">_plus_info.h</text>
</a>
</g>
</g>
<!-- Node2 -->
<g id="node2" class="node">
<title>Node2</title>
<g id="a_node2"><a xlink:href="sl__status_8h.html" target="_top" xlink:title="SL Status Codes.">
<polygon fill="none" stroke="black" points="15.5,-174 15.5,-193 80.5,-193 80.5,-174 15.5,-174"/>
<text text-anchor="middle" x="48" y="-181" font-family="Helvetica,sans-Serif" font-size="10.00">sl_status.h</text>
</a>
</g>
</g>
<!-- Node1&#45;&gt;Node2 -->
<g id="edge1" class="edge">
<title>Node1&#45;&gt;Node2</title>
<path fill="none" stroke="midnightblue" d="M73.1,-291.36C67.03,-265.52 57.72,-225.9 52.31,-202.86"/>
<polygon fill="midnightblue" stroke="midnightblue" points="55.69,-201.95 50,-193.01 48.88,-203.55 55.69,-201.95"/>
</g>
<!-- Node4 -->
<g id="node4" class="node">
<title>Node4</title>
<g id="a_node4"><a xlink:href="zwave__rx_8h.html" target="_top" xlink:title=" ">
<polygon fill="none" stroke="black" points="76.5,-235.5 76.5,-254.5 143.5,-254.5 143.5,-235.5 76.5,-235.5"/>
<text text-anchor="middle" x="110" y="-242.5" font-family="Helvetica,sans-Serif" font-size="10.00">zwave_rx.h</text>
</a>
</g>
</g>
<!-- Node1&#45;&gt;Node4 -->
<g id="edge3" class="edge">
<title>Node1&#45;&gt;Node4</title>
<path fill="none" stroke="midnightblue" d="M90.02,-291.45C94.03,-282.33 98.47,-272.22 102.15,-263.85"/>
<polygon fill="midnightblue" stroke="midnightblue" points="105.36,-265.26 106.18,-254.7 98.95,-262.44 105.36,-265.26"/>
</g>
<!-- Node3 -->
<g id="node3" class="node">
<title>Node3</title>
<g id="a_node3"><a xlink:title=" ">
<polygon fill="none" stroke="#bfbfbf" points="70.5,-0.5 70.5,-19.5 119.5,-19.5 119.5,-0.5 70.5,-0.5"/>
<text text-anchor="middle" x="95" y="-7.5" font-family="Helvetica,sans-Serif" font-size="10.00">stdint.h</text>
</a>
</g>
</g>
<!-- Node2&#45;&gt;Node3 -->
<g id="edge2" class="edge">
<title>Node2&#45;&gt;Node3</title>
<path fill="none" stroke="midnightblue" d="M46.59,-173.79C43.55,-152.64 37.98,-97.28 55,-56 59.65,-44.72 68.37,-34.37 76.49,-26.45"/>
<polygon fill="midnightblue" stroke="midnightblue" points="78.91,-28.98 83.93,-19.65 74.19,-23.81 78.91,-28.98"/>
</g>
<!-- Node4&#45;&gt;Node2 -->
<g id="edge14" class="edge">
<title>Node4&#45;&gt;Node2</title>
<path fill="none" stroke="midnightblue" d="M101.12,-235.48C91.54,-226.28 76.09,-211.46 64.31,-200.16"/>
<polygon fill="midnightblue" stroke="midnightblue" points="66.51,-197.41 56.87,-193.01 61.66,-202.46 66.51,-197.41"/>
</g>
<!-- Node5 -->
<g id="node5" class="node">
<title>Node5</title>
<g id="a_node5"><a xlink:href="zwave__controller__connection__info_8h.html" target="_top" xlink:title=" ">
<polygon fill="none" stroke="black" points="105.5,-168.5 105.5,-198.5 248.5,-198.5 248.5,-168.5 105.5,-168.5"/>
<text text-anchor="start" x="113.5" y="-186.5" font-family="Helvetica,sans-Serif" font-size="10.00">zwave_controller_connection</text>
<text text-anchor="middle" x="177" y="-175.5" font-family="Helvetica,sans-Serif" font-size="10.00">_info.h</text>
</a>
</g>
</g>
<!-- Node4&#45;&gt;Node5 -->
<g id="edge4" class="edge">
<title>Node4&#45;&gt;Node5</title>
<path fill="none" stroke="midnightblue" d="M119.6,-235.48C128.42,-227.64 141.85,-215.71 153.5,-205.37"/>
<polygon fill="midnightblue" stroke="midnightblue" points="156.06,-207.78 161.21,-198.52 151.41,-202.55 156.06,-207.78"/>
</g>
<!-- Node6 -->
<g id="node6" class="node">
<title>Node6</title>
<g id="a_node6"><a xlink:href="zwave__controller__types_8h.html" target="_top" xlink:title=" ">
<polygon fill="none" stroke="black" points="154,-112.5 154,-131.5 282,-131.5 282,-112.5 154,-112.5"/>
<text text-anchor="middle" x="218" y="-119.5" font-family="Helvetica,sans-Serif" font-size="10.00">zwave_controller_types.h</text>
</a>
</g>
</g>
<!-- Node5&#45;&gt;Node6 -->
<g id="edge5" class="edge">
<title>Node5&#45;&gt;Node6</title>
<path fill="none" stroke="midnightblue" d="M186.72,-168.4C192.55,-159.93 200.02,-149.1 206.19,-140.14"/>
<polygon fill="midnightblue" stroke="midnightblue" points="209.24,-141.88 212.03,-131.66 203.48,-137.91 209.24,-141.88"/>
</g>
<!-- Node6&#45;&gt;Node3 -->
<g id="edge7" class="edge">
<title>Node6&#45;&gt;Node3</title>
<path fill="none" stroke="midnightblue" d="M165.1,-112.46C125.57,-104.87 76.32,-92.44 64,-76 52.59,-60.78 65.69,-40.69 78.2,-26.9"/>
<polygon fill="midnightblue" stroke="midnightblue" points="80.84,-29.2 85.31,-19.59 75.83,-24.32 80.84,-29.2"/>
</g>
<!-- Node7 -->
<g id="node7" class="node">
<title>Node7</title>
<g id="a_node7"><a xlink:title=" ">
<polygon fill="none" stroke="#bfbfbf" points="391,-0.5 391,-19.5 447,-19.5 447,-0.5 391,-0.5"/>
<text text-anchor="middle" x="419" y="-7.5" font-family="Helvetica,sans-Serif" font-size="10.00">stdbool.h</text>
</a>
</g>
</g>
<!-- Node6&#45;&gt;Node7 -->
<g id="edge6" class="edge">
<title>Node6&#45;&gt;Node7</title>
<path fill="none" stroke="midnightblue" d="M267.91,-112.45C297.05,-105.8 333.57,-94.5 362,-76 381.19,-63.51 397.76,-42.82 408.01,-28.14"/>
<polygon fill="midnightblue" stroke="midnightblue" points="411.13,-29.76 413.79,-19.51 405.32,-25.86 411.13,-29.76"/>
</g>
<!-- Node8 -->
<g id="node8" class="node">
<title>Node8</title>
<g id="a_node8"><a xlink:href="zwave__node__id__definitions_8h.html" target="_top" xlink:title=" ">
<polygon fill="none" stroke="black" points="73,-56.5 73,-75.5 215,-75.5 215,-56.5 73,-56.5"/>
<text text-anchor="middle" x="144" y="-63.5" font-family="Helvetica,sans-Serif" font-size="10.00">zwave_node_id_definitions.h</text>
</a>
</g>
</g>
<!-- Node6&#45;&gt;Node8 -->
<g id="edge8" class="edge">
<title>Node6&#45;&gt;Node8</title>
<path fill="none" stroke="midnightblue" d="M206.11,-112.32C194.85,-104.11 177.71,-91.6 164.29,-81.81"/>
<polygon fill="midnightblue" stroke="midnightblue" points="166.25,-78.9 156.11,-75.83 162.12,-84.56 166.25,-78.9"/>
</g>
<!-- Node9 -->
<g id="node9" class="node">
<title>Node9</title>
<g id="a_node9"><a xlink:href="zwave__generic__types_8h.html" target="_top" xlink:title=" ">
<polygon fill="none" stroke="black" points="233.5,-56.5 233.5,-75.5 352.5,-75.5 352.5,-56.5 233.5,-56.5"/>
<text text-anchor="middle" x="293" y="-63.5" font-family="Helvetica,sans-Serif" font-size="10.00">zwave_generic_types.h</text>
</a>
</g>
</g>
<!-- Node6&#45;&gt;Node9 -->
<g id="edge10" class="edge">
<title>Node6&#45;&gt;Node9</title>
<path fill="none" stroke="midnightblue" d="M230.05,-112.32C241.46,-104.11 258.83,-91.6 272.43,-81.81"/>
<polygon fill="midnightblue" stroke="midnightblue" points="274.66,-84.52 280.73,-75.83 270.57,-78.84 274.66,-84.52"/>
</g>
<!-- Node10 -->
<g id="node10" class="node">
<title>Node10</title>
<g id="a_node10"><a xlink:href="zwave__rf__region_8h.html" target="_top" xlink:title=" ">
<polygon fill="none" stroke="black" points="409,-56.5 409,-75.5 505,-75.5 505,-56.5 409,-56.5"/>
<text text-anchor="middle" x="457" y="-63.5" font-family="Helvetica,sans-Serif" font-size="10.00">zwave_rf_region.h</text>
</a>
</g>
</g>
<!-- Node6&#45;&gt;Node10 -->
<g id="edge12" class="edge">
<title>Node6&#45;&gt;Node10</title>
<path fill="none" stroke="midnightblue" d="M255.87,-112.44C297.48,-103.04 364.37,-87.93 409.47,-77.74"/>
<polygon fill="midnightblue" stroke="midnightblue" points="410.32,-81.13 419.31,-75.52 408.78,-74.31 410.32,-81.13"/>
</g>
<!-- Node8&#45;&gt;Node3 -->
<g id="edge9" class="edge">
<title>Node8&#45;&gt;Node3</title>
<path fill="none" stroke="midnightblue" d="M135.91,-56.08C128.84,-48.3 118.41,-36.8 109.85,-27.37"/>
<polygon fill="midnightblue" stroke="midnightblue" points="112.25,-24.8 102.94,-19.75 107.07,-29.51 112.25,-24.8"/>
</g>
<!-- Node9&#45;&gt;Node3 -->
<g id="edge11" class="edge">
<title>Node9&#45;&gt;Node3</title>
<path fill="none" stroke="midnightblue" d="M261.63,-56.44C225.64,-46.63 166.83,-30.59 129.56,-20.43"/>
<polygon fill="midnightblue" stroke="midnightblue" points="130.23,-16.98 119.66,-17.73 128.39,-23.73 130.23,-16.98"/>
</g>
<!-- Node10&#45;&gt;Node7 -->
<g id="edge13" class="edge">
<title>Node10&#45;&gt;Node7</title>
<path fill="none" stroke="midnightblue" d="M450.73,-56.08C445.36,-48.46 437.48,-37.26 430.92,-27.94"/>
<polygon fill="midnightblue" stroke="midnightblue" points="433.78,-25.91 425.16,-19.75 428.05,-29.94 433.78,-25.91"/>
</g>
</g>
</svg>
