<?xml version="1.0" encoding="UTF-8" standalone="no"?>
<!DOCTYPE svg PUBLIC "-//W3C//DTD SVG 1.1//EN"
 "http://www.w3.org/Graphics/SVG/1.1/DTD/svg11.dtd">
<!-- Generated by graphviz version 2.43.0 (0)
 -->
<!-- Title: get_parameter_id_node Pages: 1 -->
<svg width="619pt" height="39pt"
 viewBox="0.00 0.00 619.00 39.00" xmlns="http://www.w3.org/2000/svg" xmlns:xlink="http://www.w3.org/1999/xlink">
<g id="graph0" class="graph" transform="scale(1 1) rotate(0) translate(4 35)">
<title>get_parameter_id_node</title>
<!-- Node1 -->
<g id="node1" class="node">
<title>Node1</title>
<g id="a_node1"><a xlink:title=" ">
<polygon fill="#bfbfbf" stroke="black" points="0,-6 0,-25 118,-25 118,-6 0,-6"/>
<text text-anchor="middle" x="59" y="-13" font-family="Helvetica,sans-Serif" font-size="10.00">get_parameter_id_node</text>
</a>
</g>
</g>
<!-- Node2 -->
<g id="node2" class="node">
<title>Node2</title>
<g id="a_node2"><a xlink:href="group__zpc__attribute__store__network__helpers.html#ga39def804d7d68ac6f534f61a9528c8be" target="_top" xlink:title="Gets the Attribute Store Endpoint ID node for a given Z&#45;Wave NodeID / Endpoint ID in our network.">
<polygon fill="none" stroke="black" points="154,-0.5 154,-30.5 276,-30.5 276,-0.5 154,-0.5"/>
<text text-anchor="start" x="162" y="-18.5" font-family="Helvetica,sans-Serif" font-size="10.00">zwave_command_class</text>
<text text-anchor="middle" x="215" y="-7.5" font-family="Helvetica,sans-Serif" font-size="10.00">_get_endpoint_id_node</text>
</a>
</g>
</g>
<!-- Node1&#45;&gt;Node2 -->
<g id="edge1" class="edge">
<title>Node1&#45;&gt;Node2</title>
<path fill="none" stroke="midnightblue" d="M118.22,-15.5C126.61,-15.5 135.31,-15.5 143.9,-15.5"/>
<polygon fill="midnightblue" stroke="midnightblue" points="143.9,-19 153.9,-15.5 143.9,-12 143.9,-19"/>
</g>
<!-- Node3 -->
<g id="node3" class="node">
<title>Node3</title>
<g id="a_node3"><a xlink:href="group__zpc__attribute__store.html#gaa77e8f9b18958337bb68279c8c53ccdc" target="_top" xlink:title="Returns the HomeID (attribute store) node of our current network.">
<polygon fill="none" stroke="black" points="312,-6 312,-25 429,-25 429,-6 312,-6"/>
<text text-anchor="middle" x="370.5" y="-13" font-family="Helvetica,sans-Serif" font-size="10.00">get_zpc_network_node</text>
</a>
</g>
</g>
<!-- Node2&#45;&gt;Node3 -->
<g id="edge2" class="edge">
<title>Node2&#45;&gt;Node3</title>
<path fill="none" stroke="midnightblue" d="M276.23,-15.5C284.59,-15.5 293.22,-15.5 301.71,-15.5"/>
<polygon fill="midnightblue" stroke="midnightblue" points="301.96,-19 311.96,-15.5 301.96,-12 301.96,-19"/>
</g>
<!-- Node4 -->
<g id="node4" class="node">
<title>Node4</title>
<g id="a_node4"><a xlink:href="group__zwave__network__management.html#gac01bf38badf30f94eac9a04b486cb967" target="_top" xlink:title="Get the cached HomeID.">
<polygon fill="none" stroke="black" points="465,-0.5 465,-30.5 611,-30.5 611,-0.5 465,-0.5"/>
<text text-anchor="start" x="473" y="-18.5" font-family="Helvetica,sans-Serif" font-size="10.00">zwave_network_management</text>
<text text-anchor="middle" x="538" y="-7.5" font-family="Helvetica,sans-Serif" font-size="10.00">_get_home_id</text>
</a>
</g>
</g>
<!-- Node3&#45;&gt;Node4 -->
<g id="edge3" class="edge">
<title>Node3&#45;&gt;Node4</title>
<path fill="none" stroke="midnightblue" d="M429.38,-15.5C437.62,-15.5 446.23,-15.5 454.82,-15.5"/>
<polygon fill="midnightblue" stroke="midnightblue" points="454.89,-19 464.89,-15.5 454.89,-12 454.89,-19"/>
</g>
</g>
</svg>
