<?xml version="1.0" encoding="UTF-8" standalone="no"?>
<!DOCTYPE svg PUBLIC "-//W3C//DTD SVG 1.1//EN"
 "http://www.w3.org/Graphics/SVG/1.1/DTD/svg11.dtd">
<!-- Generated by graphviz version 2.43.0 (0)
 -->
<!-- Title: on_send_protocol_data_callback_received Pages: 1 -->
<svg width="1609pt" height="541pt"
 viewBox="0.00 0.00 1609.00 541.00" xmlns="http://www.w3.org/2000/svg" xmlns:xlink="http://www.w3.org/1999/xlink">
<g id="graph0" class="graph" transform="scale(1 1) rotate(0) translate(4 537)">
<title>on_send_protocol_data_callback_received</title>
<!-- Node1 -->
<g id="node1" class="node">
<title>Node1</title>
<g id="a_node1"><a xlink:title=" ">
<polygon fill="#bfbfbf" stroke="black" points="0,-222 0,-252 117,-252 117,-222 0,-222"/>
<text text-anchor="start" x="8" y="-240" font-family="Helvetica,sans-Serif" font-size="10.00">on_send_protocol_data</text>
<text text-anchor="middle" x="58.5" y="-229" font-family="Helvetica,sans-Serif" font-size="10.00">_callback_received</text>
</a>
</g>
</g>
<!-- Node2 -->
<g id="node2" class="node">
<title>Node2</title>
<g id="a_node2"><a xlink:href="group__zwave__controller__component.html#ga664548dbf9fade0a3416bf7191d3b32b" target="_top" xlink:title="Callback function for requesting protocol Command Class encryption.">
<polygon fill="none" stroke="black" points="153,-216.5 153,-257.5 281,-257.5 281,-216.5 153,-216.5"/>
<text text-anchor="start" x="161" y="-245.5" font-family="Helvetica,sans-Serif" font-size="10.00">zwave_controller_request</text>
<text text-anchor="start" x="161" y="-234.5" font-family="Helvetica,sans-Serif" font-size="10.00">_protocol_cc_encryption</text>
<text text-anchor="middle" x="217" y="-223.5" font-family="Helvetica,sans-Serif" font-size="10.00">_callback</text>
</a>
</g>
</g>
<!-- Node1&#45;&gt;Node2 -->
<g id="edge1" class="edge">
<title>Node1&#45;&gt;Node2</title>
<path fill="none" stroke="midnightblue" d="M117.33,-237C125.65,-237 134.31,-237 142.88,-237"/>
<polygon fill="midnightblue" stroke="midnightblue" points="142.88,-240.5 152.88,-237 142.88,-233.5 142.88,-240.5"/>
</g>
<!-- Node3 -->
<g id="node3" class="node">
<title>Node3</title>
<g id="a_node3"><a xlink:href="group__ZWAPI__CONTROLLER.html#gaf87c30a585843d4d452c9ff4e0eab5ec" target="_top" xlink:title="Sends TX status, TX report and session ID of the ongoing protocol command class encryption session to...">
<polygon fill="none" stroke="black" points="317,-222 317,-252 441,-252 441,-222 317,-222"/>
<text text-anchor="start" x="325" y="-240" font-family="Helvetica,sans-Serif" font-size="10.00">zwapi_request_protocol</text>
<text text-anchor="middle" x="379" y="-229" font-family="Helvetica,sans-Serif" font-size="10.00">_cc_encryption_callback</text>
</a>
</g>
</g>
<!-- Node2&#45;&gt;Node3 -->
<g id="edge2" class="edge">
<title>Node2&#45;&gt;Node3</title>
<path fill="none" stroke="midnightblue" d="M281.24,-237C289.56,-237 298.13,-237 306.58,-237"/>
<polygon fill="midnightblue" stroke="midnightblue" points="306.79,-240.5 316.79,-237 306.79,-233.5 306.79,-240.5"/>
</g>
<!-- Node4 -->
<g id="node4" class="node">
<title>Node4</title>
<g id="a_node4"><a xlink:href="zwapi__init_8c.html#a67064ee382c07d0af51a9d9339b3fcde" target="_top" xlink:title="Verifies that the command is supported by the Z&#45;Wave module.">
<polygon fill="none" stroke="black" points="477,-227.5 477,-246.5 593,-246.5 593,-227.5 477,-227.5"/>
<text text-anchor="middle" x="535" y="-234.5" font-family="Helvetica,sans-Serif" font-size="10.00">zwapi_send_command</text>
</a>
</g>
</g>
<!-- Node3&#45;&gt;Node4 -->
<g id="edge3" class="edge">
<title>Node3&#45;&gt;Node4</title>
<path fill="none" stroke="midnightblue" d="M441.31,-237C449.66,-237 458.26,-237 466.71,-237"/>
<polygon fill="midnightblue" stroke="midnightblue" points="466.91,-240.5 476.91,-237 466.91,-233.5 466.91,-240.5"/>
</g>
<!-- Node5 -->
<g id="node5" class="node">
<title>Node5</title>
<g id="a_node5"><a xlink:href="zwapi__session_8c.html#a32577f3500efc3d937dbc68eebb3c370" target="_top" xlink:title="Send data frame to Z&#45;Wave chip via serial port and wait for ACK.">
<polygon fill="none" stroke="black" points="651.5,-244 651.5,-274 758.5,-274 758.5,-244 651.5,-244"/>
<text text-anchor="start" x="659.5" y="-262" font-family="Helvetica,sans-Serif" font-size="10.00">zwapi_session_send</text>
<text text-anchor="middle" x="705" y="-251" font-family="Helvetica,sans-Serif" font-size="10.00">_frame</text>
</a>
</g>
</g>
<!-- Node4&#45;&gt;Node5 -->
<g id="edge4" class="edge">
<title>Node4&#45;&gt;Node5</title>
<path fill="none" stroke="midnightblue" d="M593.35,-244.51C608.79,-246.53 625.56,-248.73 641.28,-250.79"/>
<polygon fill="midnightblue" stroke="midnightblue" points="641.06,-254.29 651.43,-252.12 641.97,-247.35 641.06,-254.29"/>
</g>
<!-- Node30 -->
<g id="node30" class="node">
<title>Node30</title>
<g id="a_node30"><a xlink:href="group__ZWAPI__INIT.html#ga0a823074baec69913d0e8590b46e4e33" target="_top" xlink:title="Check if a command is supported by the connected Z&#45;Wave module.">
<polygon fill="none" stroke="black" points="629,-205.5 629,-224.5 781,-224.5 781,-205.5 629,-205.5"/>
<text text-anchor="middle" x="705" y="-212.5" font-family="Helvetica,sans-Serif" font-size="10.00">zwapi_support_command_func</text>
</a>
</g>
</g>
<!-- Node4&#45;&gt;Node30 -->
<g id="edge44" class="edge">
<title>Node4&#45;&gt;Node30</title>
<path fill="none" stroke="midnightblue" d="M593.35,-229.49C602.28,-228.32 611.67,-227.09 621.03,-225.86"/>
<polygon fill="midnightblue" stroke="midnightblue" points="621.71,-229.31 631.17,-224.54 620.8,-222.37 621.71,-229.31"/>
</g>
<!-- Node6 -->
<g id="node6" class="node">
<title>Node6</title>
<g id="a_node6"><a xlink:href="zwapi__connection_8c.html#a13b6e6b6c56844f4344fabe490bc5eac" target="_top" xlink:title="Closes and re&#45;initializes the zwapi_connection to the Z&#45;Wave module.">
<polygon fill="none" stroke="black" points="977,-363.5 977,-382.5 1105,-382.5 1105,-363.5 977,-363.5"/>
<text text-anchor="middle" x="1041" y="-370.5" font-family="Helvetica,sans-Serif" font-size="10.00">zwapi_connection_restart</text>
</a>
</g>
</g>
<!-- Node5&#45;&gt;Node6 -->
<g id="edge5" class="edge">
<title>Node5&#45;&gt;Node6</title>
<path fill="none" stroke="midnightblue" d="M719.28,-274.25C738.49,-295.15 776.23,-332.04 817,-349 864.2,-368.63 921.63,-374.44 966.39,-375.44"/>
<polygon fill="midnightblue" stroke="midnightblue" points="966.55,-378.95 976.6,-375.59 966.66,-371.95 966.55,-378.95"/>
</g>
<!-- Node16 -->
<g id="node16" class="node">
<title>Node16</title>
<g id="a_node16"><a xlink:href="zwapi__timestamp_8c.html#a6ebe1ddfe689bce6ee72fc12f708aece" target="_top" xlink:title="get the timestamp">
<polygon fill="none" stroke="black" points="1150,-349.5 1150,-368.5 1262,-368.5 1262,-349.5 1150,-349.5"/>
<text text-anchor="middle" x="1206" y="-356.5" font-family="Helvetica,sans-Serif" font-size="10.00">zwapi_timestamp_get</text>
</a>
</g>
</g>
<!-- Node5&#45;&gt;Node16 -->
<g id="edge43" class="edge">
<title>Node5&#45;&gt;Node16</title>
<path fill="none" stroke="midnightblue" d="M758.77,-270.5C777.19,-274.49 798,-278.97 817,-283 887.61,-297.96 905.2,-302.01 976,-316 1032.38,-327.14 1096.71,-339.16 1142.81,-347.65"/>
<polygon fill="midnightblue" stroke="midnightblue" points="1142.18,-351.1 1152.65,-349.46 1143.45,-344.21 1142.18,-351.1"/>
</g>
<!-- Node17 -->
<g id="node17" class="node">
<title>Node17</title>
<g id="a_node17"><a xlink:href="zwapi__connection_8c.html#af47f8cbd93974d5c91d659fdeb7a870b" target="_top" xlink:title="Transmit a frame via serial port by adding SOF, Len, Type, cmd and Checksum.">
<polygon fill="none" stroke="black" points="987,-401.5 987,-420.5 1095,-420.5 1095,-401.5 987,-401.5"/>
<text text-anchor="middle" x="1041" y="-408.5" font-family="Helvetica,sans-Serif" font-size="10.00">zwapi_connection_tx</text>
</a>
</g>
</g>
<!-- Node5&#45;&gt;Node17 -->
<g id="edge16" class="edge">
<title>Node5&#45;&gt;Node17</title>
<path fill="none" stroke="midnightblue" d="M715.47,-274.2C732.38,-299.9 770.4,-351.52 817,-376 866.51,-402.01 930.12,-409.9 976.72,-411.78"/>
<polygon fill="midnightblue" stroke="midnightblue" points="976.88,-415.29 986.99,-412.11 977.11,-408.29 976.88,-415.29"/>
</g>
<!-- Node19 -->
<g id="node19" class="node">
<title>Node19</title>
<g id="a_node19"><a xlink:href="zwapi__timestamp_8c.html#a3925f2732e344672608db38351236688" target="_top" xlink:title="compare the current timestamp with the timestamp passed as an argument">
<polygon fill="none" stroke="black" points="1153,-137 1153,-167 1259,-167 1259,-137 1153,-137"/>
<text text-anchor="start" x="1161" y="-155" font-family="Helvetica,sans-Serif" font-size="10.00">zwapi_is_timestamp</text>
<text text-anchor="middle" x="1206" y="-144" font-family="Helvetica,sans-Serif" font-size="10.00">_elapsed</text>
</a>
</g>
</g>
<!-- Node5&#45;&gt;Node19 -->
<g id="edge21" class="edge">
<title>Node5&#45;&gt;Node19</title>
<path fill="none" stroke="midnightblue" d="M758.66,-246.39C813,-233.5 900.27,-213.13 976,-197 1032.3,-185.01 1096.64,-172.47 1142.76,-163.68"/>
<polygon fill="midnightblue" stroke="midnightblue" points="1143.44,-167.11 1152.61,-161.81 1142.13,-160.24 1143.44,-167.11"/>
</g>
<!-- Node20 -->
<g id="node20" class="node">
<title>Node20</title>
<g id="a_node20"><a xlink:href="zwapi__session_8c.html#a1f2b3e7c2dcf31708ef8d333747352ba" target="_top" xlink:title=" ">
<polygon fill="none" stroke="black" points="979.5,-80 979.5,-110 1102.5,-110 1102.5,-80 979.5,-80"/>
<text text-anchor="start" x="987.5" y="-98" font-family="Helvetica,sans-Serif" font-size="10.00">zwapi_session_enqueue</text>
<text text-anchor="middle" x="1041" y="-87" font-family="Helvetica,sans-Serif" font-size="10.00">_frame</text>
</a>
</g>
</g>
<!-- Node5&#45;&gt;Node20 -->
<g id="edge22" class="edge">
<title>Node5&#45;&gt;Node20</title>
<path fill="none" stroke="midnightblue" d="M758.58,-248.71C766.9,-245.17 774.79,-240.4 781,-234 819.77,-194.04 773.78,-149.11 817,-114 858.95,-79.92 921.16,-77.27 969.22,-81.95"/>
<polygon fill="midnightblue" stroke="midnightblue" points="968.92,-85.44 979.25,-83.05 969.69,-78.48 968.92,-85.44"/>
</g>
<!-- Node24 -->
<g id="node24" class="node">
<title>Node24</title>
<g id="a_node24"><a xlink:href="zwapi__session_8c.html#a2875fbfa250b7b25ecb6bc4f0b032cb8" target="_top" xlink:title="Loads the received frames from the serial device into the zwapi_session receive queue.">
<polygon fill="none" stroke="black" points="817,-124 817,-154 940,-154 940,-124 817,-124"/>
<text text-anchor="start" x="825" y="-142" font-family="Helvetica,sans-Serif" font-size="10.00">zwapi_session_enqueue</text>
<text text-anchor="middle" x="878.5" y="-131" font-family="Helvetica,sans-Serif" font-size="10.00">_rx_frames</text>
</a>
</g>
</g>
<!-- Node5&#45;&gt;Node24 -->
<g id="edge26" class="edge">
<title>Node5&#45;&gt;Node24</title>
<path fill="none" stroke="midnightblue" d="M758.66,-247.06C766.68,-243.71 774.46,-239.44 781,-234 806.4,-212.89 793.12,-191.81 817,-169 820.77,-165.4 825.06,-162.14 829.57,-159.22"/>
<polygon fill="midnightblue" stroke="midnightblue" points="831.59,-162.09 838.44,-154.01 828.04,-156.05 831.59,-162.09"/>
</g>
<!-- Node29 -->
<g id="node29" class="node">
<title>Node29</title>
<g id="a_node29"><a xlink:href="zwapi__session_8c.html#a9d30e1677f02d7730ab035aa9333235d" target="_top" xlink:title=" ">
<polygon fill="none" stroke="black" points="826.5,-244 826.5,-274 930.5,-274 930.5,-244 826.5,-244"/>
<text text-anchor="start" x="834.5" y="-262" font-family="Helvetica,sans-Serif" font-size="10.00">zwapi_session_wait</text>
<text text-anchor="middle" x="878.5" y="-251" font-family="Helvetica,sans-Serif" font-size="10.00">_for_response</text>
</a>
</g>
</g>
<!-- Node5&#45;&gt;Node29 -->
<g id="edge39" class="edge">
<title>Node5&#45;&gt;Node29</title>
<path fill="none" stroke="midnightblue" d="M758.86,-259C776.96,-259 797.37,-259 816.09,-259"/>
<polygon fill="midnightblue" stroke="midnightblue" points="816.29,-262.5 826.29,-259 816.29,-255.5 816.29,-262.5"/>
</g>
<!-- Node7 -->
<g id="node7" class="node">
<title>Node7</title>
<g id="a_node7"><a xlink:href="zwapi__serial_8c.html#a3f2b3bd848e9fe0e6e137482bed06b46" target="_top" xlink:title="Flush the serial output if using buffered output.">
<polygon fill="none" stroke="black" points="1157.5,-388 1157.5,-418 1254.5,-418 1254.5,-388 1157.5,-388"/>
<text text-anchor="start" x="1165.5" y="-406" font-family="Helvetica,sans-Serif" font-size="10.00">zwapi_serial_drain</text>
<text text-anchor="middle" x="1206" y="-395" font-family="Helvetica,sans-Serif" font-size="10.00">_buffer</text>
</a>
</g>
</g>
<!-- Node6&#45;&gt;Node7 -->
<g id="edge6" class="edge">
<title>Node6&#45;&gt;Node7</title>
<path fill="none" stroke="midnightblue" d="M1094.02,-382.57C1111,-385.7 1129.95,-389.19 1147.32,-392.38"/>
<polygon fill="midnightblue" stroke="midnightblue" points="1146.87,-395.86 1157.34,-394.23 1148.14,-388.98 1146.87,-395.86"/>
</g>
<!-- Node8 -->
<g id="node8" class="node">
<title>Node8</title>
<g id="a_node8"><a xlink:href="zwapi__serial_8c.html#a7762d0358e9f398b92edbfd6a550984a" target="_top" xlink:title="Write a byte to serial port device.">
<polygon fill="none" stroke="black" points="1149.5,-311.5 1149.5,-330.5 1262.5,-330.5 1262.5,-311.5 1149.5,-311.5"/>
<text text-anchor="middle" x="1206" y="-318.5" font-family="Helvetica,sans-Serif" font-size="10.00">zwapi_serial_put_byte</text>
</a>
</g>
</g>
<!-- Node6&#45;&gt;Node8 -->
<g id="edge7" class="edge">
<title>Node6&#45;&gt;Node8</title>
<path fill="none" stroke="midnightblue" d="M1070.39,-363.42C1090.37,-356.72 1117.77,-347.65 1142,-340 1148.73,-337.87 1155.89,-335.67 1162.87,-333.54"/>
<polygon fill="midnightblue" stroke="midnightblue" points="1164.34,-336.75 1172.9,-330.51 1162.32,-330.05 1164.34,-336.75"/>
</g>
<!-- Node12 -->
<g id="node12" class="node">
<title>Node12</title>
<g id="a_node12"><a xlink:href="zwapi__serial_8c.html#aadf3397d0bd2c1657d4b1a373599acfe" target="_top" xlink:title="Closes and re&#45;initialize the last open serial port.">
<polygon fill="none" stroke="black" points="1154,-475.5 1154,-494.5 1258,-494.5 1258,-475.5 1154,-475.5"/>
<text text-anchor="middle" x="1206" y="-482.5" font-family="Helvetica,sans-Serif" font-size="10.00">zwapi_serial_restart</text>
</a>
</g>
</g>
<!-- Node6&#45;&gt;Node12 -->
<g id="edge11" class="edge">
<title>Node6&#45;&gt;Node12</title>
<path fill="none" stroke="midnightblue" d="M1084.86,-382.59C1092.17,-385.09 1099.5,-388.19 1106,-392 1125.25,-403.28 1125.79,-411.66 1142,-427 1156.88,-441.08 1174,-456.81 1186.63,-468.33"/>
<polygon fill="midnightblue" stroke="midnightblue" points="1184.47,-471.09 1194.22,-475.24 1189.18,-465.92 1184.47,-471.09"/>
</g>
<!-- Node6&#45;&gt;Node16 -->
<g id="edge15" class="edge">
<title>Node6&#45;&gt;Node16</title>
<path fill="none" stroke="midnightblue" d="M1105.02,-367.59C1116.34,-366.62 1128.16,-365.6 1139.54,-364.62"/>
<polygon fill="midnightblue" stroke="midnightblue" points="1140.18,-368.08 1149.85,-363.74 1139.58,-361.11 1140.18,-368.08"/>
</g>
<!-- Node9 -->
<g id="node9" class="node">
<title>Node9</title>
<g id="a_node9"><a xlink:href="zwapi__serial_8c.html#af9054824651df422bab5076d16a80fda" target="_top" xlink:title="Writes the content of a buffer to the serial port device.">
<polygon fill="none" stroke="black" points="1306,-312.5 1306,-331.5 1425,-331.5 1425,-312.5 1306,-312.5"/>
<text text-anchor="middle" x="1365.5" y="-319.5" font-family="Helvetica,sans-Serif" font-size="10.00">zwapi_serial_put_buffer</text>
</a>
</g>
</g>
<!-- Node8&#45;&gt;Node9 -->
<g id="edge8" class="edge">
<title>Node8&#45;&gt;Node9</title>
<path fill="none" stroke="midnightblue" d="M1262.53,-321.35C1273.24,-321.42 1284.59,-321.49 1295.66,-321.56"/>
<polygon fill="midnightblue" stroke="midnightblue" points="1295.71,-325.06 1305.74,-321.63 1295.76,-318.06 1295.71,-325.06"/>
</g>
<!-- Node10 -->
<g id="node10" class="node">
<title>Node10</title>
<g id="a_node10"><a xlink:href="zwapi__serial_8c.html#a0accbbf7ddb7aeab10f5df1fe3df6642" target="_top" xlink:title=" ">
<polygon fill="none" stroke="black" points="1461,-313.5 1461,-332.5 1601,-332.5 1601,-313.5 1461,-313.5"/>
<text text-anchor="middle" x="1531" y="-320.5" font-family="Helvetica,sans-Serif" font-size="10.00">zwapi_serial_log_timestamp</text>
</a>
</g>
</g>
<!-- Node9&#45;&gt;Node10 -->
<g id="edge9" class="edge">
<title>Node9&#45;&gt;Node10</title>
<path fill="none" stroke="midnightblue" d="M1425.07,-322.36C1433.43,-322.41 1442.15,-322.46 1450.82,-322.52"/>
<polygon fill="midnightblue" stroke="midnightblue" points="1450.95,-326.02 1460.97,-322.58 1450.99,-319.02 1450.95,-326.02"/>
</g>
<!-- Node11 -->
<g id="node11" class="node">
<title>Node11</title>
<g id="a_node11"><a xlink:href="zwapi__serial_8c.html#abf18afb71e14daaf65d937149ef1639f" target="_top" xlink:title="Test if a is less than b + ms.">
<polygon fill="none" stroke="black" points="1477.5,-264 1477.5,-294 1584.5,-294 1584.5,-264 1477.5,-264"/>
<text text-anchor="start" x="1485.5" y="-282" font-family="Helvetica,sans-Serif" font-size="10.00">zwapi_serial_timeval</text>
<text text-anchor="middle" x="1531" y="-271" font-family="Helvetica,sans-Serif" font-size="10.00">_a_lt_b_milis</text>
</a>
</g>
</g>
<!-- Node9&#45;&gt;Node11 -->
<g id="edge10" class="edge">
<title>Node9&#45;&gt;Node11</title>
<path fill="none" stroke="midnightblue" d="M1402.79,-312.46C1421.8,-307.46 1445.61,-301.19 1467.48,-295.44"/>
<polygon fill="midnightblue" stroke="midnightblue" points="1468.59,-298.77 1477.37,-292.84 1466.81,-292 1468.59,-298.77"/>
</g>
<!-- Node13 -->
<g id="node13" class="node">
<title>Node13</title>
<g id="a_node13"><a xlink:href="zwapi__serial_8c.html#aae586785021ac9a605cd77651429f0c9" target="_top" xlink:title="De&#45;Initialize the serial port.">
<polygon fill="none" stroke="black" points="1316,-494.5 1316,-513.5 1415,-513.5 1415,-494.5 1316,-494.5"/>
<text text-anchor="middle" x="1365.5" y="-501.5" font-family="Helvetica,sans-Serif" font-size="10.00">zwapi_serial_close</text>
</a>
</g>
</g>
<!-- Node12&#45;&gt;Node13 -->
<g id="edge12" class="edge">
<title>Node12&#45;&gt;Node13</title>
<path fill="none" stroke="midnightblue" d="M1258.14,-491.17C1273.31,-493 1290.06,-495.02 1305.68,-496.9"/>
<polygon fill="midnightblue" stroke="midnightblue" points="1305.42,-500.4 1315.76,-498.12 1306.25,-493.45 1305.42,-500.4"/>
</g>
<!-- Node14 -->
<g id="node14" class="node">
<title>Node14</title>
<g id="a_node14"><a xlink:href="zwapi__serial_8c.html#a07b09de97f4932d882fc77e191c44638" target="_top" xlink:title="Initialize the serial port to 115200 BAUD 8N1.">
<polygon fill="none" stroke="black" points="1321,-456.5 1321,-475.5 1410,-475.5 1410,-456.5 1321,-456.5"/>
<text text-anchor="middle" x="1365.5" y="-463.5" font-family="Helvetica,sans-Serif" font-size="10.00">zwapi_serial_init</text>
</a>
</g>
</g>
<!-- Node12&#45;&gt;Node14 -->
<g id="edge13" class="edge">
<title>Node12&#45;&gt;Node14</title>
<path fill="none" stroke="midnightblue" d="M1258.14,-478.83C1274.87,-476.81 1293.51,-474.56 1310.46,-472.52"/>
<polygon fill="midnightblue" stroke="midnightblue" points="1311.25,-475.95 1320.76,-471.28 1310.41,-469 1311.25,-475.95"/>
</g>
<!-- Node15 -->
<g id="node15" class="node">
<title>Node15</title>
<g id="a_node15"><a xlink:href="zwapi__serial_8c.html#aefeac5909b0bf6411db1492f69c3bc68" target="_top" xlink:title=" ">
<polygon fill="none" stroke="black" points="1471.5,-456.5 1471.5,-475.5 1590.5,-475.5 1590.5,-456.5 1471.5,-456.5"/>
<text text-anchor="middle" x="1531" y="-463.5" font-family="Helvetica,sans-Serif" font-size="10.00">zwapi_open_serial_port</text>
</a>
</g>
</g>
<!-- Node14&#45;&gt;Node15 -->
<g id="edge14" class="edge">
<title>Node14&#45;&gt;Node15</title>
<path fill="none" stroke="midnightblue" d="M1410.31,-466C1425.97,-466 1444.01,-466 1461.26,-466"/>
<polygon fill="midnightblue" stroke="midnightblue" points="1461.3,-469.5 1471.3,-466 1461.3,-462.5 1461.3,-469.5"/>
</g>
<!-- Node17&#45;&gt;Node7 -->
<g id="edge18" class="edge">
<title>Node17&#45;&gt;Node7</title>
<path fill="none" stroke="midnightblue" d="M1095.37,-408.38C1111.9,-407.57 1130.19,-406.67 1147.02,-405.85"/>
<polygon fill="midnightblue" stroke="midnightblue" points="1147.47,-409.33 1157.28,-405.34 1147.12,-402.34 1147.47,-409.33"/>
</g>
<!-- Node17&#45;&gt;Node9 -->
<g id="edge19" class="edge">
<title>Node17&#45;&gt;Node9</title>
<path fill="none" stroke="midnightblue" d="M1068.34,-420.55C1112.29,-434.86 1202.4,-457.11 1270,-427 1309.75,-409.3 1339.8,-365.69 1354.5,-340.59"/>
<polygon fill="midnightblue" stroke="midnightblue" points="1357.66,-342.11 1359.52,-331.68 1351.56,-338.67 1357.66,-342.11"/>
</g>
<!-- Node17&#45;&gt;Node16 -->
<g id="edge20" class="edge">
<title>Node17&#45;&gt;Node16</title>
<path fill="none" stroke="midnightblue" d="M1076.04,-401.46C1085.77,-398.58 1096.35,-395.3 1106,-392 1122.24,-386.44 1125.77,-383.59 1142,-378 1148.39,-375.8 1155.18,-373.6 1161.86,-371.52"/>
<polygon fill="midnightblue" stroke="midnightblue" points="1162.96,-374.85 1171.49,-368.58 1160.91,-368.15 1162.96,-374.85"/>
</g>
<!-- Node18 -->
<g id="node18" class="node">
<title>Node18</title>
<g id="a_node18"><a xlink:href="zwapi__connection_8c.html#a96d24d537c5b8d6aa0aa6a7638ba2f09" target="_top" xlink:title=" ">
<polygon fill="none" stroke="black" points="1148.5,-513.5 1148.5,-532.5 1263.5,-532.5 1263.5,-513.5 1148.5,-513.5"/>
<text text-anchor="middle" x="1206" y="-520.5" font-family="Helvetica,sans-Serif" font-size="10.00">zwapi_frame_to_string</text>
</a>
</g>
</g>
<!-- Node17&#45;&gt;Node18 -->
<g id="edge17" class="edge">
<title>Node17&#45;&gt;Node18</title>
<path fill="none" stroke="midnightblue" d="M1049.74,-420.69C1065.25,-439.5 1102.11,-481.11 1142,-504 1145.73,-506.14 1149.73,-508.07 1153.84,-509.79"/>
<polygon fill="midnightblue" stroke="midnightblue" points="1152.95,-513.19 1163.54,-513.45 1155.42,-506.65 1152.95,-513.19"/>
</g>
<!-- Node21 -->
<g id="node21" class="node">
<title>Node21</title>
<g id="a_node21"><a xlink:href="zwapi__connection_8c.html#a91ce3acd7eff779496789637a9c27f40" target="_top" xlink:title="Provides the data of the serial buffer for the last received frame.">
<polygon fill="none" stroke="black" points="1149.5,-88 1149.5,-118 1262.5,-118 1262.5,-88 1149.5,-88"/>
<text text-anchor="start" x="1157.5" y="-106" font-family="Helvetica,sans-Serif" font-size="10.00">zwapi_connection_get</text>
<text text-anchor="middle" x="1206" y="-95" font-family="Helvetica,sans-Serif" font-size="10.00">_last_rx_frame</text>
</a>
</g>
</g>
<!-- Node20&#45;&gt;Node21 -->
<g id="edge23" class="edge">
<title>Node20&#45;&gt;Node21</title>
<path fill="none" stroke="midnightblue" d="M1102.7,-97.98C1114.65,-98.57 1127.24,-99.18 1139.34,-99.78"/>
<polygon fill="midnightblue" stroke="midnightblue" points="1139.21,-103.28 1149.37,-100.27 1139.55,-96.28 1139.21,-103.28"/>
</g>
<!-- Node22 -->
<g id="node22" class="node">
<title>Node22</title>
<g id="a_node22"><a xlink:href="zwapi__session_8c.html#ad7bac697ee2388b38ed3777b5a3862bc" target="_top" xlink:title=" ">
<polygon fill="none" stroke="black" points="1149.5,-39 1149.5,-69 1262.5,-69 1262.5,-39 1149.5,-39"/>
<text text-anchor="start" x="1157.5" y="-57" font-family="Helvetica,sans-Serif" font-size="10.00">zwapi_session_get_rx</text>
<text text-anchor="middle" x="1206" y="-46" font-family="Helvetica,sans-Serif" font-size="10.00">_queue_length</text>
</a>
</g>
</g>
<!-- Node20&#45;&gt;Node22 -->
<g id="edge24" class="edge">
<title>Node20&#45;&gt;Node22</title>
<path fill="none" stroke="midnightblue" d="M1101.77,-79.97C1114.03,-76.88 1127,-73.62 1139.45,-70.49"/>
<polygon fill="midnightblue" stroke="midnightblue" points="1140.45,-73.84 1149.3,-68.01 1138.75,-67.06 1140.45,-73.84"/>
</g>
<!-- Node23 -->
<g id="node23" class="node">
<title>Node23</title>
<g id="a_node23"><a xlink:href="group__ZWAPI__INIT.html#ga438a74c9752197d20d377874d5a61694" target="_top" xlink:title="Returns the pointer to the callbacks registered at init.">
<polygon fill="none" stroke="black" points="1142,-0.5 1142,-19.5 1270,-19.5 1270,-0.5 1142,-0.5"/>
<text text-anchor="middle" x="1206" y="-7.5" font-family="Helvetica,sans-Serif" font-size="10.00">zwave_api_get_callbacks</text>
</a>
</g>
</g>
<!-- Node20&#45;&gt;Node23 -->
<g id="edge25" class="edge">
<title>Node20&#45;&gt;Node23</title>
<path fill="none" stroke="midnightblue" d="M1061.29,-79.8C1080.73,-65.09 1112.05,-43.03 1142,-29 1146.91,-26.7 1152.17,-24.6 1157.48,-22.7"/>
<polygon fill="midnightblue" stroke="midnightblue" points="1158.65,-26 1167.02,-19.51 1156.43,-19.36 1158.65,-26"/>
</g>
<!-- Node24&#45;&gt;Node20 -->
<g id="edge38" class="edge">
<title>Node24&#45;&gt;Node20</title>
<path fill="none" stroke="midnightblue" d="M934.29,-123.98C947.51,-120.35 961.77,-116.45 975.4,-112.71"/>
<polygon fill="midnightblue" stroke="midnightblue" points="976.47,-116.05 985.19,-110.03 974.62,-109.29 976.47,-116.05"/>
</g>
<!-- Node25 -->
<g id="node25" class="node">
<title>Node25</title>
<g id="a_node25"><a xlink:href="zwapi__connection_8c.html#a1e45c6c9695b5e7b415adfad40080720" target="_top" xlink:title="Parses serial data sent from the Z&#45;Wave module to the serial port. Should be frequently called by mai...">
<polygon fill="none" stroke="black" points="976,-249.5 976,-268.5 1106,-268.5 1106,-249.5 976,-249.5"/>
<text text-anchor="middle" x="1041" y="-256.5" font-family="Helvetica,sans-Serif" font-size="10.00">zwapi_connection_refresh</text>
</a>
</g>
</g>
<!-- Node24&#45;&gt;Node25 -->
<g id="edge27" class="edge">
<title>Node24&#45;&gt;Node25</title>
<path fill="none" stroke="midnightblue" d="M899.83,-154.2C930.38,-177.04 987.87,-220.02 1018.88,-243.21"/>
<polygon fill="midnightblue" stroke="midnightblue" points="1017.14,-246.28 1027.24,-249.46 1021.33,-240.67 1017.14,-246.28"/>
</g>
<!-- Node25&#45;&gt;Node7 -->
<g id="edge29" class="edge">
<title>Node25&#45;&gt;Node7</title>
<path fill="none" stroke="midnightblue" d="M1047.77,-268.72C1061.45,-291.01 1098.01,-346.27 1142,-378 1144.62,-379.89 1147.41,-381.67 1150.3,-383.33"/>
<polygon fill="midnightblue" stroke="midnightblue" points="1148.7,-386.44 1159.18,-387.97 1151.94,-380.24 1148.7,-386.44"/>
</g>
<!-- Node25&#45;&gt;Node8 -->
<g id="edge36" class="edge">
<title>Node25&#45;&gt;Node8</title>
<path fill="none" stroke="midnightblue" d="M1069.72,-268.52C1081.09,-272.66 1094.31,-277.75 1106,-283 1122.5,-290.41 1125.26,-295.13 1142,-302 1147.48,-304.25 1153.33,-306.37 1159.18,-308.32"/>
<polygon fill="midnightblue" stroke="midnightblue" points="1158.34,-311.72 1168.93,-311.43 1160.47,-305.05 1158.34,-311.72"/>
</g>
<!-- Node25&#45;&gt;Node16 -->
<g id="edge37" class="edge">
<title>Node25&#45;&gt;Node16</title>
<path fill="none" stroke="midnightblue" d="M1079.71,-268.55C1088.95,-272.07 1098.36,-276.78 1106,-283 1129.24,-301.91 1118.15,-321.86 1142,-340 1144.47,-341.88 1147.12,-343.57 1149.89,-345.09"/>
<polygon fill="midnightblue" stroke="midnightblue" points="1148.51,-348.31 1159.05,-349.42 1151.5,-341.99 1148.51,-348.31"/>
</g>
<!-- Node25&#45;&gt;Node19 -->
<g id="edge28" class="edge">
<title>Node25&#45;&gt;Node19</title>
<path fill="none" stroke="midnightblue" d="M1080.11,-249.4C1089.24,-245.89 1098.5,-241.2 1106,-235 1129.67,-215.43 1118.38,-195.64 1142,-176 1143.55,-174.71 1145.18,-173.48 1146.87,-172.32"/>
<polygon fill="midnightblue" stroke="midnightblue" points="1148.95,-175.15 1155.73,-167.01 1145.35,-169.15 1148.95,-175.15"/>
</g>
<!-- Node26 -->
<g id="node26" class="node">
<title>Node26</title>
<g id="a_node26"><a xlink:href="zwapi__serial_8c.html#a538134f9fdbb1ce052667b3a041357bd" target="_top" xlink:title="Reads the output of the serial port device and stores the content in a buffer.">
<polygon fill="none" stroke="black" points="1306,-272.5 1306,-291.5 1425,-291.5 1425,-272.5 1306,-272.5"/>
<text text-anchor="middle" x="1365.5" y="-279.5" font-family="Helvetica,sans-Serif" font-size="10.00">zwapi_serial_get_buffer</text>
</a>
</g>
</g>
<!-- Node25&#45;&gt;Node26 -->
<g id="edge30" class="edge">
<title>Node25&#45;&gt;Node26</title>
<path fill="none" stroke="midnightblue" d="M1106.06,-257.57C1151.86,-257.24 1214.88,-258.19 1270,-264 1283.76,-265.45 1298.52,-267.85 1312.18,-270.43"/>
<polygon fill="midnightblue" stroke="midnightblue" points="1311.9,-273.94 1322.39,-272.43 1313.24,-267.07 1311.9,-273.94"/>
</g>
<!-- Node27 -->
<g id="node27" class="node">
<title>Node27</title>
<g id="a_node27"><a xlink:href="zwapi__serial_8c.html#abb082b1e7e727203e3ca5fbeb41f7c2b" target="_top" xlink:title="Reads a byte from the serial port device.">
<polygon fill="none" stroke="black" points="1149.5,-273.5 1149.5,-292.5 1262.5,-292.5 1262.5,-273.5 1149.5,-273.5"/>
<text text-anchor="middle" x="1206" y="-280.5" font-family="Helvetica,sans-Serif" font-size="10.00">zwapi_serial_get_byte</text>
</a>
</g>
</g>
<!-- Node25&#45;&gt;Node27 -->
<g id="edge33" class="edge">
<title>Node25&#45;&gt;Node27</title>
<path fill="none" stroke="midnightblue" d="M1106.42,-268.49C1117.32,-270.09 1128.65,-271.76 1139.58,-273.37"/>
<polygon fill="midnightblue" stroke="midnightblue" points="1139.07,-276.83 1149.47,-274.82 1140.09,-269.91 1139.07,-276.83"/>
</g>
<!-- Node28 -->
<g id="node28" class="node">
<title>Node28</title>
<g id="a_node28"><a xlink:href="zwapi__serial_8c.html#a9a952dc2b34d92960246f6dc4e7d58f7" target="_top" xlink:title="Check the file descriptor for the serial device is available for I/O operations.">
<polygon fill="none" stroke="black" points="1155.5,-186 1155.5,-216 1256.5,-216 1256.5,-186 1155.5,-186"/>
<text text-anchor="start" x="1163.5" y="-204" font-family="Helvetica,sans-Serif" font-size="10.00">zwapi_serial_is_file</text>
<text text-anchor="middle" x="1206" y="-193" font-family="Helvetica,sans-Serif" font-size="10.00">_available</text>
</a>
</g>
</g>
<!-- Node25&#45;&gt;Node28 -->
<g id="edge35" class="edge">
<title>Node25&#45;&gt;Node28</title>
<path fill="none" stroke="midnightblue" d="M1068.92,-249.42C1091.73,-241.31 1125.09,-229.43 1153.08,-219.48"/>
<polygon fill="midnightblue" stroke="midnightblue" points="1154.48,-222.69 1162.73,-216.04 1152.13,-216.1 1154.48,-222.69"/>
</g>
<!-- Node26&#45;&gt;Node10 -->
<g id="edge31" class="edge">
<title>Node26&#45;&gt;Node10</title>
<path fill="none" stroke="midnightblue" d="M1404.42,-291.51C1427.55,-297.31 1457.33,-304.78 1482.09,-310.99"/>
<polygon fill="midnightblue" stroke="midnightblue" points="1481.45,-314.43 1492,-313.47 1483.15,-307.64 1481.45,-314.43"/>
</g>
<!-- Node26&#45;&gt;Node11 -->
<g id="edge32" class="edge">
<title>Node26&#45;&gt;Node11</title>
<path fill="none" stroke="midnightblue" d="M1425.07,-280.93C1438.65,-280.68 1453.16,-280.41 1466.92,-280.16"/>
<polygon fill="midnightblue" stroke="midnightblue" points="1467.34,-283.65 1477.28,-279.97 1467.22,-276.65 1467.34,-283.65"/>
</g>
<!-- Node27&#45;&gt;Node26 -->
<g id="edge34" class="edge">
<title>Node27&#45;&gt;Node26</title>
<path fill="none" stroke="midnightblue" d="M1262.53,-282.65C1273.24,-282.58 1284.59,-282.51 1295.66,-282.44"/>
<polygon fill="midnightblue" stroke="midnightblue" points="1295.76,-285.94 1305.74,-282.37 1295.71,-278.94 1295.76,-285.94"/>
</g>
<!-- Node29&#45;&gt;Node16 -->
<g id="edge42" class="edge">
<title>Node29&#45;&gt;Node16</title>
<path fill="none" stroke="midnightblue" d="M930.91,-269.69C977.51,-280.17 1047.61,-297.92 1106,-321 1122.83,-327.65 1125.26,-333.13 1142,-340 1147.48,-342.25 1153.33,-344.37 1159.18,-346.32"/>
<polygon fill="midnightblue" stroke="midnightblue" points="1158.34,-349.72 1168.93,-349.43 1160.47,-343.05 1158.34,-349.72"/>
</g>
<!-- Node29&#45;&gt;Node19 -->
<g id="edge41" class="edge">
<title>Node29&#45;&gt;Node19</title>
<path fill="none" stroke="midnightblue" d="M930.7,-248.99C977.45,-238.92 1047.93,-221.39 1106,-197 1123.08,-189.83 1125.29,-183.99 1142,-176 1145.58,-174.29 1149.32,-172.61 1153.11,-170.98"/>
<polygon fill="midnightblue" stroke="midnightblue" points="1154.67,-174.12 1162.57,-167.07 1152,-167.65 1154.67,-174.12"/>
</g>
<!-- Node29&#45;&gt;Node25 -->
<g id="edge40" class="edge">
<title>Node29&#45;&gt;Node25</title>
<path fill="none" stroke="midnightblue" d="M930.72,-259C941.79,-259 953.71,-259 965.47,-259"/>
<polygon fill="midnightblue" stroke="midnightblue" points="965.73,-262.5 975.73,-259 965.73,-255.5 965.73,-262.5"/>
</g>
</g>
</svg>
