<?xml version="1.0" encoding="UTF-8" standalone="no"?>
<!DOCTYPE svg PUBLIC "-//W3C//DTD SVG 1.1//EN"
 "http://www.w3.org/Graphics/SVG/1.1/DTD/svg11.dtd">
<!-- Generated by graphviz version 2.43.0 (0)
 -->
<!-- Title: zwave_api_transport_on_node_information Pages: 1 -->
<svg width="422pt" height="78pt"
 viewBox="0.00 0.00 422.00 77.50" xmlns="http://www.w3.org/2000/svg" xmlns:xlink="http://www.w3.org/1999/xlink">
<g id="graph0" class="graph" transform="scale(1 1) rotate(0) translate(4 73.5)">
<title>zwave_api_transport_on_node_information</title>
<!-- Node1 -->
<g id="node1" class="node">
<title>Node1</title>
<g id="a_node1"><a xlink:title=" ">
<polygon fill="#bfbfbf" stroke="black" points="0,-22.5 0,-52.5 112,-52.5 112,-22.5 0,-22.5"/>
<text text-anchor="start" x="8" y="-40.5" font-family="Helvetica,sans-Serif" font-size="10.00">zwave_api_transport</text>
<text text-anchor="middle" x="56" y="-29.5" font-family="Helvetica,sans-Serif" font-size="10.00">_on_node_information</text>
</a>
</g>
</g>
<!-- Node2 -->
<g id="node2" class="node">
<title>Node2</title>
<g id="a_node2"><a xlink:href="zwave__api__transport_8c.html#a4319ec7c7ecc0ff9fd4706f65960d3a9" target="_top" xlink:title=" ">
<polygon fill="none" stroke="black" points="148,-22.5 148,-52.5 261,-52.5 261,-22.5 148,-22.5"/>
<text text-anchor="start" x="156" y="-40.5" font-family="Helvetica,sans-Serif" font-size="10.00">zwave_api_send_data</text>
<text text-anchor="middle" x="204.5" y="-29.5" font-family="Helvetica,sans-Serif" font-size="10.00">_callback</text>
</a>
</g>
</g>
<!-- Node1&#45;&gt;Node2 -->
<g id="edge1" class="edge">
<title>Node1&#45;&gt;Node2</title>
<path fill="none" stroke="midnightblue" d="M112.39,-37.5C120.57,-37.5 129.06,-37.5 137.43,-37.5"/>
<polygon fill="midnightblue" stroke="midnightblue" points="137.55,-41 147.55,-37.5 137.55,-34 137.55,-41"/>
</g>
<!-- Node3 -->
<g id="node3" class="node">
<title>Node3</title>
<g id="a_node3"><a xlink:href="zwave__api__transport_8c.html#add367e9875b60a3e2f8e2c470f4ca998" target="_top" xlink:title=" ">
<polygon fill="none" stroke="black" points="297,-50 297,-69 414,-69 414,-50 297,-50"/>
<text text-anchor="middle" x="355.5" y="-57" font-family="Helvetica,sans-Serif" font-size="10.00">zwave_api_reset_state</text>
</a>
</g>
</g>
<!-- Node2&#45;&gt;Node3 -->
<g id="edge2" class="edge">
<title>Node2&#45;&gt;Node3</title>
<path fill="none" stroke="midnightblue" d="M261.41,-45.75C269.72,-46.98 278.35,-48.26 286.87,-49.51"/>
<polygon fill="midnightblue" stroke="midnightblue" points="286.39,-52.98 296.79,-50.98 287.41,-46.06 286.39,-52.98"/>
</g>
<!-- Node4 -->
<g id="node4" class="node">
<title>Node4</title>
<g id="a_node4"><a xlink:href="group__zwave__controller__internal.html#ga37f3eb5b079a43384fe3158cdc563a8d" target="_top" xlink:title="see zwave_controller_callbacks_t">
<polygon fill="none" stroke="black" points="302,-0.5 302,-30.5 409,-30.5 409,-0.5 302,-0.5"/>
<text text-anchor="start" x="310" y="-18.5" font-family="Helvetica,sans-Serif" font-size="10.00">zwave_controller_on</text>
<text text-anchor="middle" x="355.5" y="-7.5" font-family="Helvetica,sans-Serif" font-size="10.00">_frame_transmission</text>
</a>
</g>
</g>
<!-- Node2&#45;&gt;Node4 -->
<g id="edge3" class="edge">
<title>Node2&#45;&gt;Node4</title>
<path fill="none" stroke="midnightblue" d="M261.41,-29.25C271.32,-27.78 281.69,-26.25 291.78,-24.76"/>
<polygon fill="midnightblue" stroke="midnightblue" points="292.35,-28.21 301.73,-23.29 291.33,-21.29 292.35,-28.21"/>
</g>
</g>
</svg>
