<?xml version="1.0" encoding="UTF-8" standalone="no"?>
<!DOCTYPE svg PUBLIC "-//W3C//DTD SVG 1.1//EN"
 "http://www.w3.org/Graphics/SVG/1.1/DTD/svg11.dtd">
<!-- Generated by graphviz version 2.43.0 (0)
 -->
<!-- Title: on_secure_node_info_no_response Pages: 1 -->
<svg width="461pt" height="39pt"
 viewBox="0.00 0.00 461.00 39.00" xmlns="http://www.w3.org/2000/svg" xmlns:xlink="http://www.w3.org/1999/xlink">
<g id="graph0" class="graph" transform="scale(1 1) rotate(0) translate(4 35)">
<title>on_secure_node_info_no_response</title>
<!-- Node1 -->
<g id="node1" class="node">
<title>Node1</title>
<g id="a_node1"><a xlink:title=" ">
<polygon fill="#bfbfbf" stroke="black" points="344,-0.5 344,-30.5 453,-30.5 453,-0.5 344,-0.5"/>
<text text-anchor="start" x="352" y="-18.5" font-family="Helvetica,sans-Serif" font-size="10.00">on_secure_node_info</text>
<text text-anchor="middle" x="398.5" y="-7.5" font-family="Helvetica,sans-Serif" font-size="10.00">_no_response</text>
</a>
</g>
</g>
<!-- Node2 -->
<g id="node2" class="node">
<title>Node2</title>
<g id="a_node2"><a xlink:href="group__zwave__nif__resolver.html#gae3d7718b1013ff52f8ea4984621b762c" target="_top" xlink:title="Registers callbacks to the attribute store and rules to the attribute resolver to be able to resolve ...">
<polygon fill="none" stroke="black" points="186,-0.5 186,-30.5 308,-30.5 308,-0.5 186,-0.5"/>
<text text-anchor="start" x="194" y="-18.5" font-family="Helvetica,sans-Serif" font-size="10.00">zwave_command_class</text>
<text text-anchor="middle" x="247" y="-7.5" font-family="Helvetica,sans-Serif" font-size="10.00">_node_info_resolver_init</text>
</a>
</g>
</g>
<!-- Node1&#45;&gt;Node2 -->
<g id="edge1" class="edge">
<title>Node1&#45;&gt;Node2</title>
<path fill="none" stroke="midnightblue" d="M333.69,-15.5C325.18,-15.5 316.48,-15.5 308.03,-15.5"/>
<polygon fill="midnightblue" stroke="midnightblue" points="333.95,-19 343.95,-15.5 333.95,-12 333.95,-19"/>
</g>
<!-- Node3 -->
<g id="node3" class="node">
<title>Node3</title>
<g id="a_node3"><a xlink:href="group__command__classes__fixt.html#ga5272651939ced1723158340039e8da19" target="_top" xlink:title="Setup fixture for Z&#45;Wave Command Classes.">
<polygon fill="none" stroke="black" points="0,-6 0,-25 150,-25 150,-6 0,-6"/>
<text text-anchor="middle" x="75" y="-13" font-family="Helvetica,sans-Serif" font-size="10.00">zwave_command_classes_init</text>
</a>
</g>
</g>
<!-- Node2&#45;&gt;Node3 -->
<g id="edge2" class="edge">
<title>Node2&#45;&gt;Node3</title>
<path fill="none" stroke="midnightblue" d="M175.51,-15.5C167.16,-15.5 158.61,-15.5 150.21,-15.5"/>
<polygon fill="midnightblue" stroke="midnightblue" points="175.59,-19 185.59,-15.5 175.59,-12 175.59,-19"/>
</g>
</g>
</svg>
