<?xml version="1.0" encoding="UTF-8" standalone="no"?>
<!DOCTYPE svg PUBLIC "-//W3C//DTD SVG 1.1//EN"
 "http://www.w3.org/Graphics/SVG/1.1/DTD/svg11.dtd">
<!-- Generated by graphviz version 2.43.0 (0)
 -->
<!-- Title: get_or_create_firmware_id_node Pages: 1 -->
<svg width="798pt" height="110pt"
 viewBox="0.00 0.00 798.00 110.00" xmlns="http://www.w3.org/2000/svg" xmlns:xlink="http://www.w3.org/1999/xlink">
<g id="graph0" class="graph" transform="scale(1 1) rotate(0) translate(4 106)">
<title>get_or_create_firmware_id_node</title>
<!-- Node1 -->
<g id="node1" class="node">
<title>Node1</title>
<g id="a_node1"><a xlink:title="Retrieves (and create if needed) the firmware ID node for a given ID under the version report data.">
<polygon fill="#bfbfbf" stroke="black" points="671,-36 671,-66 790,-66 790,-36 671,-36"/>
<text text-anchor="start" x="679" y="-54" font-family="Helvetica,sans-Serif" font-size="10.00">get_or_create_firmware</text>
<text text-anchor="middle" x="730.5" y="-43" font-family="Helvetica,sans-Serif" font-size="10.00">_id_node</text>
</a>
</g>
</g>
<!-- Node2 -->
<g id="node2" class="node">
<title>Node2</title>
<g id="a_node2"><a xlink:href="zwave__command__class__version_8c.html#a5d79c86203fe208104202d66f0ca2399" target="_top" xlink:title=" ">
<polygon fill="none" stroke="black" points="509,-60.5 509,-101.5 631,-101.5 631,-60.5 509,-60.5"/>
<text text-anchor="start" x="517" y="-89.5" font-family="Helvetica,sans-Serif" font-size="10.00">zwave_command_class</text>
<text text-anchor="start" x="517" y="-78.5" font-family="Helvetica,sans-Serif" font-size="10.00">_version_handle_report</text>
<text text-anchor="middle" x="570" y="-67.5" font-family="Helvetica,sans-Serif" font-size="10.00">_command</text>
</a>
</g>
</g>
<!-- Node1&#45;&gt;Node2 -->
<g id="edge1" class="edge">
<title>Node1&#45;&gt;Node2</title>
<path fill="none" stroke="midnightblue" d="M661.08,-63.95C651.13,-65.83 640.95,-67.76 631.18,-69.61"/>
<polygon fill="midnightblue" stroke="midnightblue" points="661.76,-67.38 670.93,-62.09 660.45,-60.51 661.76,-67.38"/>
</g>
<!-- Node6 -->
<g id="node6" class="node">
<title>Node6</title>
<g id="a_node6"><a xlink:href="zwave__command__class__version_8c.html#a0a4414dccf0c308a49bff798b23231aa" target="_top" xlink:title=" ">
<polygon fill="none" stroke="black" points="505,-0.5 505,-41.5 635,-41.5 635,-0.5 505,-0.5"/>
<text text-anchor="start" x="513" y="-29.5" font-family="Helvetica,sans-Serif" font-size="10.00">zwave_command_class</text>
<text text-anchor="start" x="513" y="-18.5" font-family="Helvetica,sans-Serif" font-size="10.00">_version_handle_software</text>
<text text-anchor="middle" x="570" y="-7.5" font-family="Helvetica,sans-Serif" font-size="10.00">_report_command</text>
</a>
</g>
</g>
<!-- Node1&#45;&gt;Node6 -->
<g id="edge5" class="edge">
<title>Node1&#45;&gt;Node6</title>
<path fill="none" stroke="midnightblue" d="M660.98,-38.03C652.42,-36.41 643.69,-34.76 635.19,-33.15"/>
<polygon fill="midnightblue" stroke="midnightblue" points="660.45,-41.49 670.93,-39.91 661.76,-34.62 660.45,-41.49"/>
</g>
<!-- Node3 -->
<g id="node3" class="node">
<title>Node3</title>
<g id="a_node3"><a xlink:href="zwave__command__class__version_8c.html#accef6ff50ab7cccaa46da3b8699ef072" target="_top" xlink:title=" ">
<polygon fill="none" stroke="black" points="344,-36 344,-66 469,-66 469,-36 344,-36"/>
<text text-anchor="start" x="352" y="-54" font-family="Helvetica,sans-Serif" font-size="10.00">zwave_command_class</text>
<text text-anchor="middle" x="406.5" y="-43" font-family="Helvetica,sans-Serif" font-size="10.00">_version_control_handler</text>
</a>
</g>
</g>
<!-- Node2&#45;&gt;Node3 -->
<g id="edge2" class="edge">
<title>Node2&#45;&gt;Node3</title>
<path fill="none" stroke="midnightblue" d="M498.99,-68C489.02,-66.14 478.83,-64.25 469.03,-62.43"/>
<polygon fill="midnightblue" stroke="midnightblue" points="498.39,-71.44 508.86,-69.83 499.67,-64.56 498.39,-71.44"/>
</g>
<!-- Node4 -->
<g id="node4" class="node">
<title>Node4</title>
<g id="a_node4"><a xlink:href="group__zwave__command__class__version.html#gabae96a5c6c82334f5979f3b407b973e3" target="_top" xlink:title="Intitialize the Version Command Class control APIs.">
<polygon fill="none" stroke="black" points="186,-36 186,-66 308,-66 308,-36 186,-36"/>
<text text-anchor="start" x="194" y="-54" font-family="Helvetica,sans-Serif" font-size="10.00">zwave_command_class</text>
<text text-anchor="middle" x="247" y="-43" font-family="Helvetica,sans-Serif" font-size="10.00">_version_init</text>
</a>
</g>
</g>
<!-- Node3&#45;&gt;Node4 -->
<g id="edge3" class="edge">
<title>Node3&#45;&gt;Node4</title>
<path fill="none" stroke="midnightblue" d="M333.43,-51C324.95,-51 316.36,-51 308.07,-51"/>
<polygon fill="midnightblue" stroke="midnightblue" points="333.7,-54.5 343.7,-51 333.7,-47.5 333.7,-54.5"/>
</g>
<!-- Node5 -->
<g id="node5" class="node">
<title>Node5</title>
<g id="a_node5"><a xlink:href="group__command__classes__fixt.html#ga5272651939ced1723158340039e8da19" target="_top" xlink:title="Setup fixture for Z&#45;Wave Command Classes.">
<polygon fill="none" stroke="black" points="0,-41.5 0,-60.5 150,-60.5 150,-41.5 0,-41.5"/>
<text text-anchor="middle" x="75" y="-48.5" font-family="Helvetica,sans-Serif" font-size="10.00">zwave_command_classes_init</text>
</a>
</g>
</g>
<!-- Node4&#45;&gt;Node5 -->
<g id="edge4" class="edge">
<title>Node4&#45;&gt;Node5</title>
<path fill="none" stroke="midnightblue" d="M175.51,-51C167.16,-51 158.61,-51 150.21,-51"/>
<polygon fill="midnightblue" stroke="midnightblue" points="175.59,-54.5 185.59,-51 175.59,-47.5 175.59,-54.5"/>
</g>
<!-- Node6&#45;&gt;Node3 -->
<g id="edge6" class="edge">
<title>Node6&#45;&gt;Node3</title>
<path fill="none" stroke="midnightblue" d="M494.74,-34.79C486.2,-36.38 477.56,-37.99 469.21,-39.54"/>
<polygon fill="midnightblue" stroke="midnightblue" points="495.51,-38.21 504.71,-32.94 494.24,-31.33 495.51,-38.21"/>
</g>
</g>
</svg>
