<?xml version="1.0" encoding="UTF-8" standalone="no"?>
<!DOCTYPE svg PUBLIC "-//W3C//DTD SVG 1.1//EN"
 "http://www.w3.org/Graphics/SVG/1.1/DTD/svg11.dtd">
<!-- Generated by graphviz version 2.43.0 (0)
 -->
<!-- Title: zwave_command_class_powerlevel_handle_powerlevel_test_node_set Pages: 1 -->
<svg width="815pt" height="116pt"
 viewBox="0.00 0.00 815.00 116.00" xmlns="http://www.w3.org/2000/svg" xmlns:xlink="http://www.w3.org/1999/xlink">
<g id="graph0" class="graph" transform="scale(1 1) rotate(0) translate(4 112)">
<title>zwave_command_class_powerlevel_handle_powerlevel_test_node_set</title>
<!-- Node1 -->
<g id="node1" class="node">
<title>Node1</title>
<g id="a_node1"><a xlink:title=" ">
<polygon fill="#bfbfbf" stroke="black" points="0,-17 0,-58 154,-58 154,-17 0,-17"/>
<text text-anchor="start" x="8" y="-46" font-family="Helvetica,sans-Serif" font-size="10.00">zwave_command_class</text>
<text text-anchor="start" x="8" y="-35" font-family="Helvetica,sans-Serif" font-size="10.00">_powerlevel_handle_powerlevel</text>
<text text-anchor="middle" x="77" y="-24" font-family="Helvetica,sans-Serif" font-size="10.00">_test_node_set</text>
</a>
</g>
</g>
<!-- Node2 -->
<g id="node2" class="node">
<title>Node2</title>
<g id="a_node2"><a xlink:href="zwave__command__class__powerlevel_8c.html#a0b112f916811acbf4303242c7ff5940e" target="_top" xlink:title=" ">
<polygon fill="none" stroke="black" points="190,-44.5 190,-74.5 306,-74.5 306,-44.5 190,-44.5"/>
<text text-anchor="start" x="198" y="-62.5" font-family="Helvetica,sans-Serif" font-size="10.00">power_level_test_send</text>
<text text-anchor="middle" x="248" y="-51.5" font-family="Helvetica,sans-Serif" font-size="10.00">_data_callback</text>
</a>
</g>
</g>
<!-- Node1&#45;&gt;Node2 -->
<g id="edge1" class="edge">
<title>Node1&#45;&gt;Node2</title>
<path fill="none" stroke="midnightblue" d="M154.1,-47.41C162.63,-48.52 171.28,-49.64 179.69,-50.74"/>
<polygon fill="midnightblue" stroke="midnightblue" points="179.44,-54.23 189.81,-52.05 180.34,-47.29 179.44,-54.23"/>
</g>
<!-- Node7 -->
<g id="node7" class="node">
<title>Node7</title>
<g id="a_node7"><a xlink:href="group__zwave__tx.html#gaa9f1d1d606b194a14547c2fd1d4e18e2" target="_top" xlink:title="Queues and send a test frame to a Z&#45;Wave node.">
<polygon fill="none" stroke="black" points="365.5,-0.5 365.5,-30.5 472.5,-30.5 472.5,-0.5 365.5,-0.5"/>
<text text-anchor="start" x="373.5" y="-18.5" font-family="Helvetica,sans-Serif" font-size="10.00">zwave_tx_send_test</text>
<text text-anchor="middle" x="419" y="-7.5" font-family="Helvetica,sans-Serif" font-size="10.00">_frame</text>
</a>
</g>
</g>
<!-- Node1&#45;&gt;Node7 -->
<g id="edge8" class="edge">
<title>Node1&#45;&gt;Node7</title>
<path fill="none" stroke="midnightblue" d="M154.3,-32.56C214.85,-28.64 298.46,-23.24 355.18,-19.56"/>
<polygon fill="midnightblue" stroke="midnightblue" points="355.69,-23.04 365.45,-18.9 355.24,-16.05 355.69,-23.04"/>
</g>
<!-- Node2&#45;&gt;Node2 -->
<g id="edge2" class="edge">
<title>Node2&#45;&gt;Node2</title>
<path fill="none" stroke="midnightblue" d="M218.37,-74.66C211.23,-84.06 221.11,-93 248,-93 264.39,-93 274.46,-89.68 278.21,-84.96"/>
<polygon fill="midnightblue" stroke="midnightblue" points="281.68,-84.45 277.63,-74.66 274.69,-84.84 281.68,-84.45"/>
</g>
<!-- Node3 -->
<g id="node3" class="node">
<title>Node3</title>
<g id="a_node3"><a xlink:href="zwave__command__class__powerlevel_8c.html#a0e2ba932ae548ac11826215f6920b830" target="_top" xlink:title=" ">
<polygon fill="none" stroke="black" points="342,-50 342,-91 496,-91 496,-50 342,-50"/>
<text text-anchor="start" x="350" y="-79" font-family="Helvetica,sans-Serif" font-size="10.00">zwave_command_class</text>
<text text-anchor="start" x="350" y="-68" font-family="Helvetica,sans-Serif" font-size="10.00">_powerlevel_handle_powerlevel</text>
<text text-anchor="middle" x="419" y="-57" font-family="Helvetica,sans-Serif" font-size="10.00">_test_node_get</text>
</a>
</g>
</g>
<!-- Node2&#45;&gt;Node3 -->
<g id="edge3" class="edge">
<title>Node2&#45;&gt;Node3</title>
<path fill="none" stroke="midnightblue" d="M306.22,-63.22C314.47,-63.76 323.12,-64.32 331.8,-64.89"/>
<polygon fill="midnightblue" stroke="midnightblue" points="331.76,-68.39 341.97,-65.55 332.21,-61.41 331.76,-68.39"/>
</g>
<!-- Node2&#45;&gt;Node7 -->
<g id="edge7" class="edge">
<title>Node2&#45;&gt;Node7</title>
<path fill="none" stroke="midnightblue" d="M306.22,-44.6C322.08,-40.47 339.37,-35.97 355.52,-31.77"/>
<polygon fill="midnightblue" stroke="midnightblue" points="356.6,-35.1 365.4,-29.2 354.84,-28.33 356.6,-35.1"/>
</g>
<!-- Node4 -->
<g id="node4" class="node">
<title>Node4</title>
<g id="a_node4"><a xlink:href="group__command__classes__utils.html#ga9a9c99943bf863fde841149699d15593" target="_top" xlink:title="function to send report frames with default tx options.">
<polygon fill="none" stroke="black" points="532,-55.5 532,-85.5 654,-85.5 654,-55.5 532,-55.5"/>
<text text-anchor="start" x="540" y="-73.5" font-family="Helvetica,sans-Serif" font-size="10.00">zwave_command_class</text>
<text text-anchor="middle" x="593" y="-62.5" font-family="Helvetica,sans-Serif" font-size="10.00">_send_report</text>
</a>
</g>
</g>
<!-- Node3&#45;&gt;Node4 -->
<g id="edge4" class="edge">
<title>Node3&#45;&gt;Node4</title>
<path fill="none" stroke="midnightblue" d="M496.19,-70.5C504.69,-70.5 513.32,-70.5 521.73,-70.5"/>
<polygon fill="midnightblue" stroke="midnightblue" points="521.87,-74 531.87,-70.5 521.87,-67 521.87,-74"/>
</g>
<!-- Node5 -->
<g id="node5" class="node">
<title>Node5</title>
<g id="a_node5"><a xlink:href="group__zwave__tx__scheme__selector.html#ga8f8d4442ddf4c165d5a79b9a25d6420d" target="_top" xlink:title="Define a Z&#45;Wave frame transmission options.">
<polygon fill="none" stroke="black" points="690,-77.5 690,-107.5 807,-107.5 807,-77.5 690,-77.5"/>
<text text-anchor="start" x="698" y="-95.5" font-family="Helvetica,sans-Serif" font-size="10.00">zwave_tx_scheme_get</text>
<text text-anchor="middle" x="748.5" y="-84.5" font-family="Helvetica,sans-Serif" font-size="10.00">_node_tx_options</text>
</a>
</g>
</g>
<!-- Node4&#45;&gt;Node5 -->
<g id="edge5" class="edge">
<title>Node4&#45;&gt;Node5</title>
<path fill="none" stroke="midnightblue" d="M654.23,-79.13C662.68,-80.34 671.41,-81.59 679.99,-82.82"/>
<polygon fill="midnightblue" stroke="midnightblue" points="679.56,-86.3 689.96,-84.25 680.55,-79.37 679.56,-86.3"/>
</g>
<!-- Node6 -->
<g id="node6" class="node">
<title>Node6</title>
<g id="a_node6"><a xlink:href="group__zwave__tx.html#gad1538f36d226fe8147c5e538625568df" target="_top" xlink:title="Queue and send frames to Z&#45;Wave nodes.">
<polygon fill="none" stroke="black" points="694,-39 694,-58 803,-58 803,-39 694,-39"/>
<text text-anchor="middle" x="748.5" y="-46" font-family="Helvetica,sans-Serif" font-size="10.00">zwave_tx_send_data</text>
</a>
</g>
</g>
<!-- Node4&#45;&gt;Node6 -->
<g id="edge6" class="edge">
<title>Node4&#45;&gt;Node6</title>
<path fill="none" stroke="midnightblue" d="M654.23,-61.87C663.95,-60.47 674.05,-59.03 683.85,-57.62"/>
<polygon fill="midnightblue" stroke="midnightblue" points="684.53,-61.06 693.93,-56.18 683.54,-54.13 684.53,-61.06"/>
</g>
</g>
</svg>
