<?xml version="1.0" encoding="UTF-8" standalone="no"?>
<!DOCTYPE svg PUBLIC "-//W3C//DTD SVG 1.1//EN"
 "http://www.w3.org/Graphics/SVG/1.1/DTD/svg11.dtd">
<!-- Generated by graphviz version 2.43.0 (0)
 -->
<!-- Title: on_non_secure_nif_update Pages: 1 -->
<svg width="1143pt" height="261pt"
 viewBox="0.00 0.00 1143.00 260.50" xmlns="http://www.w3.org/2000/svg" xmlns:xlink="http://www.w3.org/1999/xlink">
<g id="graph0" class="graph" transform="scale(1 1) rotate(0) translate(4 256.5)">
<title>on_non_secure_nif_update</title>
<!-- Node1 -->
<g id="node1" class="node">
<title>Node1</title>
<g id="a_node1"><a xlink:title=" ">
<polygon fill="#bfbfbf" stroke="black" points="0,-123.5 0,-142.5 133,-142.5 133,-123.5 0,-123.5"/>
<text text-anchor="middle" x="66.5" y="-130.5" font-family="Helvetica,sans-Serif" font-size="10.00">on_non_secure_nif_update</text>
</a>
</g>
</g>
<!-- Node2 -->
<g id="node2" class="node">
<title>Node2</title>
<g id="a_node2"><a xlink:href="zwave__command__class__node__info__resolver_8c.html#a1ead83b0b81912e1938044ad2fb86368" target="_top" xlink:title=" ">
<polygon fill="none" stroke="black" points="169,-118 169,-148 268,-148 268,-118 169,-118"/>
<text text-anchor="start" x="177" y="-136" font-family="Helvetica,sans-Serif" font-size="10.00">create_secure_nifs</text>
<text text-anchor="middle" x="218.5" y="-125" font-family="Helvetica,sans-Serif" font-size="10.00">_if_missing</text>
</a>
</g>
</g>
<!-- Node1&#45;&gt;Node2 -->
<g id="edge1" class="edge">
<title>Node1&#45;&gt;Node2</title>
<path fill="none" stroke="midnightblue" d="M133.29,-133C141.8,-133 150.47,-133 158.85,-133"/>
<polygon fill="midnightblue" stroke="midnightblue" points="158.9,-136.5 168.9,-133 158.9,-129.5 158.9,-136.5"/>
</g>
<!-- Node3 -->
<g id="node3" class="node">
<title>Node3</title>
<g id="a_node3"><a xlink:href="group__zpc__attribute__store.html#ga4c4a364eb42142672d0a42f3c09b43b4" target="_top" xlink:title="Returns the NodeID (attribute store) node of our current network / NodeID.">
<polygon fill="none" stroke="black" points="323.5,-189.5 323.5,-208.5 439.5,-208.5 439.5,-189.5 323.5,-189.5"/>
<text text-anchor="middle" x="381.5" y="-196.5" font-family="Helvetica,sans-Serif" font-size="10.00">get_zpc_node_id_node</text>
</a>
</g>
</g>
<!-- Node2&#45;&gt;Node3 -->
<g id="edge2" class="edge">
<title>Node2&#45;&gt;Node3</title>
<path fill="none" stroke="midnightblue" d="M254.35,-148.12C269.56,-154.64 287.62,-162.3 304,-169 317.68,-174.59 332.81,-180.57 345.99,-185.71"/>
<polygon fill="midnightblue" stroke="midnightblue" points="345.03,-189.09 355.62,-189.45 347.57,-182.57 345.03,-189.09"/>
</g>
<!-- Node7 -->
<g id="node7" class="node">
<title>Node7</title>
<g id="a_node7"><a xlink:href="group__zwave__controller__keyset.html#gaf257c77b34f1b306368474dffce4950b" target="_top" xlink:title="Function to tell whether scheme k is greater or equal to scheme v.">
<polygon fill="none" stroke="black" points="304,-96 304,-126 459,-126 459,-96 304,-96"/>
<text text-anchor="start" x="312" y="-114" font-family="Helvetica,sans-Serif" font-size="10.00">zwave_controller_encapsulation</text>
<text text-anchor="middle" x="381.5" y="-103" font-family="Helvetica,sans-Serif" font-size="10.00">_scheme_greater_equal</text>
</a>
</g>
</g>
<!-- Node2&#45;&gt;Node7 -->
<g id="edge6" class="edge">
<title>Node2&#45;&gt;Node7</title>
<path fill="none" stroke="midnightblue" d="M268.24,-126.34C276.45,-125.22 285.17,-124.03 294,-122.82"/>
<polygon fill="midnightblue" stroke="midnightblue" points="294.55,-126.28 303.98,-121.46 293.6,-119.34 294.55,-126.28"/>
</g>
<!-- Node8 -->
<g id="node8" class="node">
<title>Node8</title>
<g id="a_node8"><a xlink:href="group__zwave__controller__keyset.html#ga43a73c5ae7dc860fa2e5edb9814c432f" target="_top" xlink:title="Get the hight encapsulation supported by a given key set.">
<polygon fill="none" stroke="black" points="499,-140 499,-170 618,-170 618,-140 499,-140"/>
<text text-anchor="start" x="507" y="-158" font-family="Helvetica,sans-Serif" font-size="10.00">zwave_controller_get</text>
<text text-anchor="middle" x="558.5" y="-147" font-family="Helvetica,sans-Serif" font-size="10.00">_highest_encapsulation</text>
</a>
</g>
</g>
<!-- Node2&#45;&gt;Node8 -->
<g id="edge11" class="edge">
<title>Node2&#45;&gt;Node8</title>
<path fill="none" stroke="midnightblue" d="M268.29,-136.18C326.16,-139.94 423.03,-146.25 488.55,-150.51"/>
<polygon fill="midnightblue" stroke="midnightblue" points="488.58,-154.02 498.79,-151.18 489.03,-147.04 488.58,-154.02"/>
</g>
<!-- Node11 -->
<g id="node11" class="node">
<title>Node11</title>
<g id="a_node11"><a xlink:href="group__zwave__utils.html#ga0419a6dc8b195016ac1010d4dd7d85e0" target="_top" xlink:title="Get the node granted keys object.">
<polygon fill="none" stroke="black" points="304.5,-49.5 304.5,-68.5 458.5,-68.5 458.5,-49.5 304.5,-49.5"/>
<text text-anchor="middle" x="381.5" y="-56.5" font-family="Helvetica,sans-Serif" font-size="10.00">zwave_get_node_granted_keys</text>
</a>
</g>
</g>
<!-- Node2&#45;&gt;Node11 -->
<g id="edge12" class="edge">
<title>Node2&#45;&gt;Node11</title>
<path fill="none" stroke="midnightblue" d="M244.89,-117.9C261.41,-108.39 283.61,-96.22 304,-87 316.1,-81.53 329.62,-76.3 341.88,-71.88"/>
<polygon fill="midnightblue" stroke="midnightblue" points="343.14,-75.15 351.4,-68.52 340.8,-68.55 343.14,-75.15"/>
</g>
<!-- Node4 -->
<g id="node4" class="node">
<title>Node4</title>
<g id="a_node4"><a xlink:href="group__zpc__attribute__store.html#gaa77e8f9b18958337bb68279c8c53ccdc" target="_top" xlink:title="Returns the HomeID (attribute store) node of our current network.">
<polygon fill="none" stroke="black" points="500,-227.5 500,-246.5 617,-246.5 617,-227.5 500,-227.5"/>
<text text-anchor="middle" x="558.5" y="-234.5" font-family="Helvetica,sans-Serif" font-size="10.00">get_zpc_network_node</text>
</a>
</g>
</g>
<!-- Node3&#45;&gt;Node4 -->
<g id="edge3" class="edge">
<title>Node3&#45;&gt;Node4</title>
<path fill="none" stroke="midnightblue" d="M426.66,-208.59C450.07,-213.67 479.01,-219.96 503.71,-225.32"/>
<polygon fill="midnightblue" stroke="midnightblue" points="503.14,-228.78 513.66,-227.48 504.63,-221.94 503.14,-228.78"/>
</g>
<!-- Node6 -->
<g id="node6" class="node">
<title>Node6</title>
<g id="a_node6"><a xlink:href="group__zwave__network__management.html#gae265f1e935804f3f0b971755ab0ee61e" target="_top" xlink:title="Get the cached NodeID.">
<polygon fill="none" stroke="black" points="658,-157 658,-187 804,-187 804,-157 658,-157"/>
<text text-anchor="start" x="666" y="-175" font-family="Helvetica,sans-Serif" font-size="10.00">zwave_network_management</text>
<text text-anchor="middle" x="731" y="-164" font-family="Helvetica,sans-Serif" font-size="10.00">_get_node_id</text>
</a>
</g>
</g>
<!-- Node3&#45;&gt;Node6 -->
<g id="edge5" class="edge">
<title>Node3&#45;&gt;Node6</title>
<path fill="none" stroke="midnightblue" d="M439.88,-194.54C496.52,-190.14 583.68,-183.37 647.68,-178.4"/>
<polygon fill="midnightblue" stroke="midnightblue" points="648.05,-181.88 657.75,-177.61 647.51,-174.9 648.05,-181.88"/>
</g>
<!-- Node5 -->
<g id="node5" class="node">
<title>Node5</title>
<g id="a_node5"><a xlink:href="group__zwave__network__management.html#gac01bf38badf30f94eac9a04b486cb967" target="_top" xlink:title="Get the cached HomeID.">
<polygon fill="none" stroke="black" points="658,-222 658,-252 804,-252 804,-222 658,-222"/>
<text text-anchor="start" x="666" y="-240" font-family="Helvetica,sans-Serif" font-size="10.00">zwave_network_management</text>
<text text-anchor="middle" x="731" y="-229" font-family="Helvetica,sans-Serif" font-size="10.00">_get_home_id</text>
</a>
</g>
</g>
<!-- Node4&#45;&gt;Node5 -->
<g id="edge4" class="edge">
<title>Node4&#45;&gt;Node5</title>
<path fill="none" stroke="midnightblue" d="M617.22,-237C627.01,-237 637.33,-237 647.6,-237"/>
<polygon fill="midnightblue" stroke="midnightblue" points="647.82,-240.5 657.82,-237 647.82,-233.5 647.82,-240.5"/>
</g>
<!-- Node7&#45;&gt;Node8 -->
<g id="edge7" class="edge">
<title>Node7&#45;&gt;Node8</title>
<path fill="none" stroke="midnightblue" d="M442.24,-126.02C457.26,-129.8 473.51,-133.88 488.93,-137.76"/>
<polygon fill="midnightblue" stroke="midnightblue" points="488.37,-141.23 498.92,-140.27 490.08,-134.44 488.37,-141.23"/>
</g>
<!-- Node9 -->
<g id="node9" class="node">
<title>Node9</title>
<g id="a_node9"><a xlink:href="group__zwave__tx__scheme__selector.html#ga13b472eb06e679638bad680aa33825db" target="_top" xlink:title="Return a list of security keys which the controller can use.">
<polygon fill="none" stroke="black" points="500,-91 500,-121 617,-121 617,-91 500,-91"/>
<text text-anchor="start" x="508" y="-109" font-family="Helvetica,sans-Serif" font-size="10.00">zwave_tx_scheme_get</text>
<text text-anchor="middle" x="558.5" y="-98" font-family="Helvetica,sans-Serif" font-size="10.00">_zpc_granted_keys</text>
</a>
</g>
</g>
<!-- Node7&#45;&gt;Node9 -->
<g id="edge8" class="edge">
<title>Node7&#45;&gt;Node9</title>
<path fill="none" stroke="midnightblue" d="M459,-108.81C469.17,-108.52 479.55,-108.23 489.56,-107.94"/>
<polygon fill="midnightblue" stroke="midnightblue" points="489.94,-111.43 499.84,-107.65 489.74,-104.43 489.94,-111.43"/>
</g>
<!-- Node9&#45;&gt;Node6 -->
<g id="edge10" class="edge">
<title>Node9&#45;&gt;Node6</title>
<path fill="none" stroke="midnightblue" d="M598.62,-121.14C623.31,-130.7 655.39,-143.12 681.67,-153.29"/>
<polygon fill="midnightblue" stroke="midnightblue" points="680.48,-156.58 691.07,-156.93 683,-150.05 680.48,-156.58"/>
</g>
<!-- Node10 -->
<g id="node10" class="node">
<title>Node10</title>
<g id="a_node10"><a xlink:href="group__zwave__controller__storage.html#ga771d01deff646dfda3f8406d6fbf5736" target="_top" xlink:title="Return the granted keys for a node.">
<polygon fill="none" stroke="black" points="667,-91 667,-121 795,-121 795,-91 667,-91"/>
<text text-anchor="start" x="675" y="-109" font-family="Helvetica,sans-Serif" font-size="10.00">zwave_controller_storage</text>
<text text-anchor="middle" x="731" y="-98" font-family="Helvetica,sans-Serif" font-size="10.00">_get_node_granted_keys</text>
</a>
</g>
</g>
<!-- Node9&#45;&gt;Node10 -->
<g id="edge9" class="edge">
<title>Node9&#45;&gt;Node10</title>
<path fill="none" stroke="midnightblue" d="M617.22,-106C629.93,-106 643.54,-106 656.76,-106"/>
<polygon fill="midnightblue" stroke="midnightblue" points="656.78,-109.5 666.78,-106 656.78,-102.5 656.78,-109.5"/>
</g>
<!-- Node12 -->
<g id="node12" class="node">
<title>Node12</title>
<g id="a_node12"><a xlink:href="group__zpc__attribute__store__network__helpers.html#ga7a3f40a9cbc90f2674b9e9e454fd6207" target="_top" xlink:title="Take a Z&#45;Wave NodeID and return its Attribute Store node representing the NodeID.">
<polygon fill="none" stroke="black" points="495,-30.5 495,-71.5 622,-71.5 622,-30.5 495,-30.5"/>
<text text-anchor="start" x="503" y="-59.5" font-family="Helvetica,sans-Serif" font-size="10.00">attribute_store_network</text>
<text text-anchor="start" x="503" y="-48.5" font-family="Helvetica,sans-Serif" font-size="10.00">_helper_get_zwave_node</text>
<text text-anchor="middle" x="558.5" y="-37.5" font-family="Helvetica,sans-Serif" font-size="10.00">_id_node</text>
</a>
</g>
</g>
<!-- Node11&#45;&gt;Node12 -->
<g id="edge13" class="edge">
<title>Node11&#45;&gt;Node12</title>
<path fill="none" stroke="midnightblue" d="M458.75,-55.51C467.42,-55.12 476.24,-54.71 484.87,-54.32"/>
<polygon fill="midnightblue" stroke="midnightblue" points="485.05,-57.82 494.88,-53.86 484.73,-50.82 485.05,-57.82"/>
</g>
<!-- Node13 -->
<g id="node13" class="node">
<title>Node13</title>
<g id="a_node13"><a xlink:href="group__zpc__attribute__store__network__helpers.html#gafb993ff484b3c826743c4695d6659cf0" target="_top" xlink:title="Take a UNID and return its attribute store node representing the NodeID.">
<polygon fill="none" stroke="black" points="665,-39 665,-69 797,-69 797,-39 665,-39"/>
<text text-anchor="start" x="673" y="-57" font-family="Helvetica,sans-Serif" font-size="10.00">attribute_store_network</text>
<text text-anchor="middle" x="731" y="-46" font-family="Helvetica,sans-Serif" font-size="10.00">_helper_get_node_id_node</text>
</a>
</g>
</g>
<!-- Node12&#45;&gt;Node13 -->
<g id="edge14" class="edge">
<title>Node12&#45;&gt;Node13</title>
<path fill="none" stroke="midnightblue" d="M622.02,-52.1C632.72,-52.29 643.93,-52.49 654.91,-52.68"/>
<polygon fill="midnightblue" stroke="midnightblue" points="654.85,-56.18 664.91,-52.85 654.98,-49.18 654.85,-56.18"/>
</g>
<!-- Node17 -->
<g id="node17" class="node">
<title>Node17</title>
<g id="a_node17"><a xlink:href="group__zwave__unid.html#ga421deceb8a12916f049e4f3446774439" target="_top" xlink:title="Form a UNID.">
<polygon fill="none" stroke="black" points="665,-0.5 665,-19.5 797,-19.5 797,-0.5 665,-0.5"/>
<text text-anchor="middle" x="731" y="-7.5" font-family="Helvetica,sans-Serif" font-size="10.00">zwave_unid_from_node_id</text>
</a>
</g>
</g>
<!-- Node12&#45;&gt;Node17 -->
<g id="edge18" class="edge">
<title>Node12&#45;&gt;Node17</title>
<path fill="none" stroke="midnightblue" d="M622.02,-35.97C641.27,-31.34 662.18,-26.31 680.43,-21.92"/>
<polygon fill="midnightblue" stroke="midnightblue" points="681.36,-25.3 690.27,-19.55 679.73,-18.49 681.36,-25.3"/>
</g>
<!-- Node14 -->
<g id="node14" class="node">
<title>Node14</title>
<g id="a_node14"><a xlink:href="group__zpc__attribute__store__network__helpers.html#ga05cb572c96f7dc8e6657f86e135fafed" target="_top" xlink:title="Take a UNID and return its attribute store node representing the HomeID.">
<polygon fill="none" stroke="black" points="840,-61 840,-91 975,-91 975,-61 840,-61"/>
<text text-anchor="start" x="848" y="-79" font-family="Helvetica,sans-Serif" font-size="10.00">attribute_store_network</text>
<text text-anchor="middle" x="907.5" y="-68" font-family="Helvetica,sans-Serif" font-size="10.00">_helper_get_home_id_node</text>
</a>
</g>
</g>
<!-- Node13&#45;&gt;Node14 -->
<g id="edge15" class="edge">
<title>Node13&#45;&gt;Node14</title>
<path fill="none" stroke="midnightblue" d="M797.47,-62.25C807.95,-63.58 818.88,-64.95 829.6,-66.3"/>
<polygon fill="midnightblue" stroke="midnightblue" points="829.43,-69.81 839.79,-67.59 830.3,-62.87 829.43,-69.81"/>
</g>
<!-- Node16 -->
<g id="node16" class="node">
<title>Node16</title>
<g id="a_node16"><a xlink:href="group__zwave__unid.html#ga76885767debd174e96e6df00b0a368c3" target="_top" xlink:title="Convert a UNID to a node ID.">
<polygon fill="none" stroke="black" points="847,-22.5 847,-41.5 968,-41.5 968,-22.5 847,-22.5"/>
<text text-anchor="middle" x="907.5" y="-29.5" font-family="Helvetica,sans-Serif" font-size="10.00">zwave_unid_to_node_id</text>
</a>
</g>
</g>
<!-- Node13&#45;&gt;Node16 -->
<g id="edge17" class="edge">
<title>Node13&#45;&gt;Node16</title>
<path fill="none" stroke="midnightblue" d="M797.47,-45.75C810.29,-44.13 823.78,-42.43 836.74,-40.8"/>
<polygon fill="midnightblue" stroke="midnightblue" points="837.5,-44.23 846.99,-39.5 836.63,-37.28 837.5,-44.23"/>
</g>
<!-- Node15 -->
<g id="node15" class="node">
<title>Node15</title>
<g id="a_node15"><a xlink:href="group__zwave__unid.html#ga92f9808a08c2ce1c0a6a9dc2debf3580" target="_top" xlink:title="Convert a UNID to a Home ID.">
<polygon fill="none" stroke="black" points="1011,-66.5 1011,-85.5 1135,-85.5 1135,-66.5 1011,-66.5"/>
<text text-anchor="middle" x="1073" y="-73.5" font-family="Helvetica,sans-Serif" font-size="10.00">zwave_unid_to_home_id</text>
</a>
</g>
</g>
<!-- Node14&#45;&gt;Node15 -->
<g id="edge16" class="edge">
<title>Node14&#45;&gt;Node15</title>
<path fill="none" stroke="midnightblue" d="M975,-76C983.42,-76 992.07,-76 1000.57,-76"/>
<polygon fill="midnightblue" stroke="midnightblue" points="1000.83,-79.5 1010.83,-76 1000.83,-72.5 1000.83,-79.5"/>
</g>
</g>
</svg>
