<?xml version="1.0" encoding="UTF-8" standalone="no"?>
<!DOCTYPE svg PUBLIC "-//W3C//DTD SVG 1.1//EN"
 "http://www.w3.org/Graphics/SVG/1.1/DTD/svg11.dtd">
<!-- Generated by graphviz version 2.43.0 (0)
 -->
<!-- Title: power_level_test_send_data_callback Pages: 1 -->
<svg width="625pt" height="116pt"
 viewBox="0.00 0.00 625.00 116.00" xmlns="http://www.w3.org/2000/svg" xmlns:xlink="http://www.w3.org/1999/xlink">
<g id="graph0" class="graph" transform="scale(1 1) rotate(0) translate(4 112)">
<title>power_level_test_send_data_callback</title>
<!-- Node1 -->
<g id="node1" class="node">
<title>Node1</title>
<g id="a_node1"><a xlink:title=" ">
<polygon fill="#bfbfbf" stroke="black" points="0,-27.5 0,-57.5 116,-57.5 116,-27.5 0,-27.5"/>
<text text-anchor="start" x="8" y="-45.5" font-family="Helvetica,sans-Serif" font-size="10.00">power_level_test_send</text>
<text text-anchor="middle" x="58" y="-34.5" font-family="Helvetica,sans-Serif" font-size="10.00">_data_callback</text>
</a>
</g>
</g>
<!-- Node1&#45;&gt;Node1 -->
<g id="edge1" class="edge">
<title>Node1&#45;&gt;Node1</title>
<path fill="none" stroke="midnightblue" d="M28.37,-57.66C21.23,-67.06 31.11,-76 58,-76 74.39,-76 84.46,-72.68 88.21,-67.96"/>
<polygon fill="midnightblue" stroke="midnightblue" points="91.68,-67.45 87.63,-57.66 84.69,-67.84 91.68,-67.45"/>
</g>
<!-- Node2 -->
<g id="node2" class="node">
<title>Node2</title>
<g id="a_node2"><a xlink:href="zwave__command__class__powerlevel_8c.html#a0e2ba932ae548ac11826215f6920b830" target="_top" xlink:title=" ">
<polygon fill="none" stroke="black" points="152,-50 152,-91 306,-91 306,-50 152,-50"/>
<text text-anchor="start" x="160" y="-79" font-family="Helvetica,sans-Serif" font-size="10.00">zwave_command_class</text>
<text text-anchor="start" x="160" y="-68" font-family="Helvetica,sans-Serif" font-size="10.00">_powerlevel_handle_powerlevel</text>
<text text-anchor="middle" x="229" y="-57" font-family="Helvetica,sans-Serif" font-size="10.00">_test_node_get</text>
</a>
</g>
</g>
<!-- Node1&#45;&gt;Node2 -->
<g id="edge2" class="edge">
<title>Node1&#45;&gt;Node2</title>
<path fill="none" stroke="midnightblue" d="M116.22,-51.98C124.56,-53.36 133.31,-54.81 142.08,-56.26"/>
<polygon fill="midnightblue" stroke="midnightblue" points="141.53,-59.72 151.97,-57.9 142.67,-52.82 141.53,-59.72"/>
</g>
<!-- Node6 -->
<g id="node6" class="node">
<title>Node6</title>
<g id="a_node6"><a xlink:href="group__zwave__tx.html#gaa9f1d1d606b194a14547c2fd1d4e18e2" target="_top" xlink:title="Queues and send a test frame to a Z&#45;Wave node.">
<polygon fill="none" stroke="black" points="175.5,-0.5 175.5,-30.5 282.5,-30.5 282.5,-0.5 175.5,-0.5"/>
<text text-anchor="start" x="183.5" y="-18.5" font-family="Helvetica,sans-Serif" font-size="10.00">zwave_tx_send_test</text>
<text text-anchor="middle" x="229" y="-7.5" font-family="Helvetica,sans-Serif" font-size="10.00">_frame</text>
</a>
</g>
</g>
<!-- Node1&#45;&gt;Node6 -->
<g id="edge6" class="edge">
<title>Node1&#45;&gt;Node6</title>
<path fill="none" stroke="midnightblue" d="M116.22,-33.36C132.08,-30.83 149.37,-28.06 165.52,-25.48"/>
<polygon fill="midnightblue" stroke="midnightblue" points="166.07,-28.94 175.4,-23.9 164.97,-22.03 166.07,-28.94"/>
</g>
<!-- Node3 -->
<g id="node3" class="node">
<title>Node3</title>
<g id="a_node3"><a xlink:href="group__command__classes__utils.html#ga9a9c99943bf863fde841149699d15593" target="_top" xlink:title="function to send report frames with default tx options.">
<polygon fill="none" stroke="black" points="342,-55.5 342,-85.5 464,-85.5 464,-55.5 342,-55.5"/>
<text text-anchor="start" x="350" y="-73.5" font-family="Helvetica,sans-Serif" font-size="10.00">zwave_command_class</text>
<text text-anchor="middle" x="403" y="-62.5" font-family="Helvetica,sans-Serif" font-size="10.00">_send_report</text>
</a>
</g>
</g>
<!-- Node2&#45;&gt;Node3 -->
<g id="edge3" class="edge">
<title>Node2&#45;&gt;Node3</title>
<path fill="none" stroke="midnightblue" d="M306.19,-70.5C314.69,-70.5 323.32,-70.5 331.73,-70.5"/>
<polygon fill="midnightblue" stroke="midnightblue" points="331.87,-74 341.87,-70.5 331.87,-67 331.87,-74"/>
</g>
<!-- Node4 -->
<g id="node4" class="node">
<title>Node4</title>
<g id="a_node4"><a xlink:href="group__zwave__tx__scheme__selector.html#ga8f8d4442ddf4c165d5a79b9a25d6420d" target="_top" xlink:title="Define a Z&#45;Wave frame transmission options.">
<polygon fill="none" stroke="black" points="500,-77.5 500,-107.5 617,-107.5 617,-77.5 500,-77.5"/>
<text text-anchor="start" x="508" y="-95.5" font-family="Helvetica,sans-Serif" font-size="10.00">zwave_tx_scheme_get</text>
<text text-anchor="middle" x="558.5" y="-84.5" font-family="Helvetica,sans-Serif" font-size="10.00">_node_tx_options</text>
</a>
</g>
</g>
<!-- Node3&#45;&gt;Node4 -->
<g id="edge4" class="edge">
<title>Node3&#45;&gt;Node4</title>
<path fill="none" stroke="midnightblue" d="M464.23,-79.13C472.68,-80.34 481.41,-81.59 489.99,-82.82"/>
<polygon fill="midnightblue" stroke="midnightblue" points="489.56,-86.3 499.96,-84.25 490.55,-79.37 489.56,-86.3"/>
</g>
<!-- Node5 -->
<g id="node5" class="node">
<title>Node5</title>
<g id="a_node5"><a xlink:href="group__zwave__tx.html#gad1538f36d226fe8147c5e538625568df" target="_top" xlink:title="Queue and send frames to Z&#45;Wave nodes.">
<polygon fill="none" stroke="black" points="504,-39 504,-58 613,-58 613,-39 504,-39"/>
<text text-anchor="middle" x="558.5" y="-46" font-family="Helvetica,sans-Serif" font-size="10.00">zwave_tx_send_data</text>
</a>
</g>
</g>
<!-- Node3&#45;&gt;Node5 -->
<g id="edge5" class="edge">
<title>Node3&#45;&gt;Node5</title>
<path fill="none" stroke="midnightblue" d="M464.23,-61.87C473.95,-60.47 484.05,-59.03 493.85,-57.62"/>
<polygon fill="midnightblue" stroke="midnightblue" points="494.53,-61.06 503.93,-56.18 493.54,-54.13 494.53,-61.06"/>
</g>
</g>
</svg>
