<?xml version="1.0" encoding="UTF-8" standalone="no"?>
<!DOCTYPE svg PUBLIC "-//W3C//DTD SVG 1.1//EN"
 "http://www.w3.org/Graphics/SVG/1.1/DTD/svg11.dtd">
<!-- Generated by graphviz version 2.43.0 (0)
 -->
<!-- Title: zwave_command_class_basic_handle_report Pages: 1 -->
<svg width="958pt" height="154pt"
 viewBox="0.00 0.00 958.00 154.00" xmlns="http://www.w3.org/2000/svg" xmlns:xlink="http://www.w3.org/1999/xlink">
<g id="graph0" class="graph" transform="scale(1 1) rotate(0) translate(4 150)">
<title>zwave_command_class_basic_handle_report</title>
<!-- Node1 -->
<g id="node1" class="node">
<title>Node1</title>
<g id="a_node1"><a xlink:title=" ">
<polygon fill="#bfbfbf" stroke="black" points="0,-61 0,-91 122,-91 122,-61 0,-61"/>
<text text-anchor="start" x="8" y="-79" font-family="Helvetica,sans-Serif" font-size="10.00">zwave_command_class</text>
<text text-anchor="middle" x="61" y="-68" font-family="Helvetica,sans-Serif" font-size="10.00">_basic_handle_report</text>
</a>
</g>
</g>
<!-- Node2 -->
<g id="node2" class="node">
<title>Node2</title>
<g id="a_node2"><a xlink:href="zwave__command__class__basic_8c.html#ad9a5bd805178a882e104a8c0796c75f3" target="_top" xlink:title="get the Basic probe status for an endpoint node">
<polygon fill="none" stroke="black" points="159,-126.5 159,-145.5 279,-145.5 279,-126.5 159,-126.5"/>
<text text-anchor="middle" x="219" y="-133.5" font-family="Helvetica,sans-Serif" font-size="10.00">get_basic_probe_status</text>
</a>
</g>
</g>
<!-- Node1&#45;&gt;Node2 -->
<g id="edge1" class="edge">
<title>Node1&#45;&gt;Node2</title>
<path fill="none" stroke="midnightblue" d="M95,-91.03C113.37,-99.16 136.76,-109.12 158,-117 163.71,-119.12 169.78,-121.21 175.78,-123.2"/>
<polygon fill="midnightblue" stroke="midnightblue" points="175.14,-126.67 185.73,-126.41 177.29,-120.01 175.14,-126.67"/>
</g>
<!-- Node3 -->
<g id="node3" class="node">
<title>Node3</title>
<g id="a_node3"><a xlink:href="zwave__command__class__basic_8c.html#a6215b1131af3db05bf8c1e5a06a7493c" target="_top" xlink:title="Sets the Basic probe status for an endpoint node.">
<polygon fill="none" stroke="black" points="159,-88.5 159,-107.5 279,-107.5 279,-88.5 159,-88.5"/>
<text text-anchor="middle" x="219" y="-95.5" font-family="Helvetica,sans-Serif" font-size="10.00">set_basic_probe_status</text>
</a>
</g>
</g>
<!-- Node1&#45;&gt;Node3 -->
<g id="edge2" class="edge">
<title>Node1&#45;&gt;Node3</title>
<path fill="none" stroke="midnightblue" d="M122.31,-84.51C131.03,-85.74 140.07,-87.01 148.94,-88.26"/>
<polygon fill="midnightblue" stroke="midnightblue" points="148.48,-91.73 158.87,-89.66 149.46,-84.8 148.48,-91.73"/>
</g>
<!-- Node4 -->
<g id="node4" class="node">
<title>Node4</title>
<g id="a_node4"><a xlink:href="group__command__classes__utils.html#gaff12f5d1f5b9eed08201efab5854190c" target="_top" xlink:title="Find the Z&#45;Wave Endpoint ID Node attribute based on a const zwave_controller_connection_info_t object...">
<polygon fill="none" stroke="black" points="158,-39 158,-69 280,-69 280,-39 158,-39"/>
<text text-anchor="start" x="166" y="-57" font-family="Helvetica,sans-Serif" font-size="10.00">zwave_command_class</text>
<text text-anchor="middle" x="219" y="-46" font-family="Helvetica,sans-Serif" font-size="10.00">_get_endpoint_node</text>
</a>
</g>
</g>
<!-- Node1&#45;&gt;Node4 -->
<g id="edge3" class="edge">
<title>Node1&#45;&gt;Node4</title>
<path fill="none" stroke="midnightblue" d="M122.31,-67.49C130.69,-66.31 139.36,-65.09 147.9,-63.89"/>
<polygon fill="midnightblue" stroke="midnightblue" points="148.43,-67.35 157.85,-62.48 147.46,-60.41 148.43,-67.35"/>
</g>
<!-- Node11 -->
<g id="node11" class="node">
<title>Node11</title>
<g id="a_node11"><a xlink:href="group__command__classes__utils.html#gacb7b8e51dfc36e8bac2676255441bf26" target="_top" xlink:title="Converts a duration byte encoded for a Z&#45;Wave command class and returns its corresponding value in cl...">
<polygon fill="none" stroke="black" points="158,-0.5 158,-19.5 280,-19.5 280,-0.5 158,-0.5"/>
<text text-anchor="middle" x="219" y="-7.5" font-family="Helvetica,sans-Serif" font-size="10.00">zwave_duration_to_time</text>
</a>
</g>
</g>
<!-- Node1&#45;&gt;Node11 -->
<g id="edge10" class="edge">
<title>Node1&#45;&gt;Node11</title>
<path fill="none" stroke="midnightblue" d="M90.06,-60.89C108.94,-51.06 134.57,-38.38 158,-29 163.46,-26.81 169.27,-24.71 175.05,-22.74"/>
<polygon fill="midnightblue" stroke="midnightblue" points="176.27,-26.03 184.68,-19.58 174.09,-19.38 176.27,-26.03"/>
</g>
<!-- Node5 -->
<g id="node5" class="node">
<title>Node5</title>
<g id="a_node5"><a xlink:href="group__zpc__attribute__store__network__helpers.html#gae4d15b8e0c61c88d94c8f342bd2014fc" target="_top" xlink:title="Take a UNID/endpoint combination and returns its attribute store node.">
<polygon fill="none" stroke="black" points="316,-61 316,-91 451,-91 451,-61 316,-61"/>
<text text-anchor="start" x="324" y="-79" font-family="Helvetica,sans-Serif" font-size="10.00">attribute_store_network</text>
<text text-anchor="middle" x="383.5" y="-68" font-family="Helvetica,sans-Serif" font-size="10.00">_helper_get_endpoint_node</text>
</a>
</g>
</g>
<!-- Node4&#45;&gt;Node5 -->
<g id="edge4" class="edge">
<title>Node4&#45;&gt;Node5</title>
<path fill="none" stroke="midnightblue" d="M280.05,-62.13C288.43,-63.26 297.14,-64.44 305.77,-65.61"/>
<polygon fill="midnightblue" stroke="midnightblue" points="305.48,-69.1 315.86,-66.98 306.42,-62.17 305.48,-69.1"/>
</g>
<!-- Node10 -->
<g id="node10" class="node">
<title>Node10</title>
<g id="a_node10"><a xlink:href="group__zwave__unid.html#ga421deceb8a12916f049e4f3446774439" target="_top" xlink:title="Form a UNID.">
<polygon fill="none" stroke="black" points="317.5,-22.5 317.5,-41.5 449.5,-41.5 449.5,-22.5 317.5,-22.5"/>
<text text-anchor="middle" x="383.5" y="-29.5" font-family="Helvetica,sans-Serif" font-size="10.00">zwave_unid_from_node_id</text>
</a>
</g>
</g>
<!-- Node4&#45;&gt;Node10 -->
<g id="edge9" class="edge">
<title>Node4&#45;&gt;Node10</title>
<path fill="none" stroke="midnightblue" d="M280.05,-45.87C288.85,-44.68 298.01,-43.44 307.07,-42.21"/>
<polygon fill="midnightblue" stroke="midnightblue" points="307.8,-45.65 317.24,-40.84 306.86,-38.71 307.8,-45.65"/>
</g>
<!-- Node6 -->
<g id="node6" class="node">
<title>Node6</title>
<g id="a_node6"><a xlink:href="group__zpc__attribute__store__network__helpers.html#gafb993ff484b3c826743c4695d6659cf0" target="_top" xlink:title="Take a UNID and return its attribute store node representing the NodeID.">
<polygon fill="none" stroke="black" points="487,-61 487,-91 619,-91 619,-61 487,-61"/>
<text text-anchor="start" x="495" y="-79" font-family="Helvetica,sans-Serif" font-size="10.00">attribute_store_network</text>
<text text-anchor="middle" x="553" y="-68" font-family="Helvetica,sans-Serif" font-size="10.00">_helper_get_node_id_node</text>
</a>
</g>
</g>
<!-- Node5&#45;&gt;Node6 -->
<g id="edge5" class="edge">
<title>Node5&#45;&gt;Node6</title>
<path fill="none" stroke="midnightblue" d="M451.18,-76C459.55,-76 468.15,-76 476.64,-76"/>
<polygon fill="midnightblue" stroke="midnightblue" points="476.91,-79.5 486.91,-76 476.91,-72.5 476.91,-79.5"/>
</g>
<!-- Node7 -->
<g id="node7" class="node">
<title>Node7</title>
<g id="a_node7"><a xlink:href="group__zpc__attribute__store__network__helpers.html#ga05cb572c96f7dc8e6657f86e135fafed" target="_top" xlink:title="Take a UNID and return its attribute store node representing the HomeID.">
<polygon fill="none" stroke="black" points="655,-83 655,-113 790,-113 790,-83 655,-83"/>
<text text-anchor="start" x="663" y="-101" font-family="Helvetica,sans-Serif" font-size="10.00">attribute_store_network</text>
<text text-anchor="middle" x="722.5" y="-90" font-family="Helvetica,sans-Serif" font-size="10.00">_helper_get_home_id_node</text>
</a>
</g>
</g>
<!-- Node6&#45;&gt;Node7 -->
<g id="edge6" class="edge">
<title>Node6&#45;&gt;Node7</title>
<path fill="none" stroke="midnightblue" d="M619.24,-84.57C627.62,-85.67 636.27,-86.81 644.82,-87.93"/>
<polygon fill="midnightblue" stroke="midnightblue" points="644.41,-91.4 654.78,-89.24 645.32,-84.46 644.41,-91.4"/>
</g>
<!-- Node9 -->
<g id="node9" class="node">
<title>Node9</title>
<g id="a_node9"><a xlink:href="group__zwave__unid.html#ga76885767debd174e96e6df00b0a368c3" target="_top" xlink:title="Convert a UNID to a node ID.">
<polygon fill="none" stroke="black" points="662,-44.5 662,-63.5 783,-63.5 783,-44.5 662,-44.5"/>
<text text-anchor="middle" x="722.5" y="-51.5" font-family="Helvetica,sans-Serif" font-size="10.00">zwave_unid_to_node_id</text>
</a>
</g>
</g>
<!-- Node6&#45;&gt;Node9 -->
<g id="edge8" class="edge">
<title>Node6&#45;&gt;Node9</title>
<path fill="none" stroke="midnightblue" d="M619.24,-67.43C629.89,-66.03 640.96,-64.58 651.72,-63.17"/>
<polygon fill="midnightblue" stroke="midnightblue" points="652.45,-66.6 661.91,-61.83 651.54,-59.66 652.45,-66.6"/>
</g>
<!-- Node8 -->
<g id="node8" class="node">
<title>Node8</title>
<g id="a_node8"><a xlink:href="group__zwave__unid.html#ga92f9808a08c2ce1c0a6a9dc2debf3580" target="_top" xlink:title="Convert a UNID to a Home ID.">
<polygon fill="none" stroke="black" points="826,-88.5 826,-107.5 950,-107.5 950,-88.5 826,-88.5"/>
<text text-anchor="middle" x="888" y="-95.5" font-family="Helvetica,sans-Serif" font-size="10.00">zwave_unid_to_home_id</text>
</a>
</g>
</g>
<!-- Node7&#45;&gt;Node8 -->
<g id="edge7" class="edge">
<title>Node7&#45;&gt;Node8</title>
<path fill="none" stroke="midnightblue" d="M790,-98C798.42,-98 807.07,-98 815.57,-98"/>
<polygon fill="midnightblue" stroke="midnightblue" points="815.83,-101.5 825.83,-98 815.83,-94.5 815.83,-101.5"/>
</g>
</g>
</svg>
