<?xml version="1.0" encoding="UTF-8" standalone="no"?>
<!DOCTYPE svg PUBLIC "-//W3C//DTD SVG 1.1//EN"
 "http://www.w3.org/Graphics/SVG/1.1/DTD/svg11.dtd">
<!-- Generated by graphviz version 2.43.0 (0)
 -->
<!-- Title: on_meter_reset_send_data_complete Pages: 1 -->
<svg width="277pt" height="78pt"
 viewBox="0.00 0.00 277.00 77.50" xmlns="http://www.w3.org/2000/svg" xmlns:xlink="http://www.w3.org/1999/xlink">
<g id="graph0" class="graph" transform="scale(1 1) rotate(0) translate(4 73.5)">
<title>on_meter_reset_send_data_complete</title>
<!-- Node1 -->
<g id="node1" class="node">
<title>Node1</title>
<g id="a_node1"><a xlink:title="Decides what to do after we&#39;ve sent a Meter Reset Command.">
<polygon fill="#bfbfbf" stroke="black" points="0,-22.5 0,-52.5 110,-52.5 110,-22.5 0,-22.5"/>
<text text-anchor="start" x="8" y="-40.5" font-family="Helvetica,sans-Serif" font-size="10.00">on_meter_reset_send</text>
<text text-anchor="middle" x="55" y="-29.5" font-family="Helvetica,sans-Serif" font-size="10.00">_data_complete</text>
</a>
</g>
</g>
<!-- Node2 -->
<g id="node2" class="node">
<title>Node2</title>
<g id="a_node2"><a xlink:href="zwave__command__class__meter__control_8c.html#a617c1df46b8a5f1c4b3959fd8a31d52a" target="_top" xlink:title="Checks if an attribute is a Meter value, and undefines its Reported/ Desired values if it is.">
<polygon fill="none" stroke="black" points="149,-50 149,-69 266,-69 266,-50 149,-50"/>
<text text-anchor="middle" x="207.5" y="-57" font-family="Helvetica,sans-Serif" font-size="10.00">undefine_meter_values</text>
</a>
</g>
</g>
<!-- Node1&#45;&gt;Node2 -->
<g id="edge1" class="edge">
<title>Node1&#45;&gt;Node2</title>
<path fill="none" stroke="midnightblue" d="M110.33,-45.44C119.64,-46.8 129.42,-48.23 139.02,-49.64"/>
<polygon fill="midnightblue" stroke="midnightblue" points="138.54,-53.1 148.94,-51.09 139.56,-46.18 138.54,-53.1"/>
</g>
<!-- Node3 -->
<g id="node3" class="node">
<title>Node3</title>
<g id="a_node3"><a xlink:href="group__command__classes__utils.html#ga0d2a21af7db2d395401331ec806b1bd3" target="_top" xlink:title="Find the version of the command class by navigating up to the endpoint from a given attribute store n...">
<polygon fill="none" stroke="black" points="146,-0.5 146,-30.5 269,-30.5 269,-0.5 146,-0.5"/>
<text text-anchor="start" x="154" y="-18.5" font-family="Helvetica,sans-Serif" font-size="10.00">zwave_command_class</text>
<text text-anchor="middle" x="207.5" y="-7.5" font-family="Helvetica,sans-Serif" font-size="10.00">_get_version_from_node</text>
</a>
</g>
</g>
<!-- Node1&#45;&gt;Node3 -->
<g id="edge2" class="edge">
<title>Node1&#45;&gt;Node3</title>
<path fill="none" stroke="midnightblue" d="M110.33,-29.56C118.62,-28.35 127.28,-27.08 135.86,-25.83"/>
<polygon fill="midnightblue" stroke="midnightblue" points="136.48,-29.27 145.87,-24.36 135.47,-22.35 136.48,-29.27"/>
</g>
</g>
</svg>
