<?xml version="1.0" encoding="UTF-8" standalone="no"?>
<!DOCTYPE svg PUBLIC "-//W3C//DTD SVG 1.1//EN"
 "http://www.w3.org/Graphics/SVG/1.1/DTD/svg11.dtd">
<!-- Generated by graphviz version 2.43.0 (0)
 -->
<!-- Title: zwave_s2_configure_span_table_entry Pages: 1 -->
<svg width="442pt" height="39pt"
 viewBox="0.00 0.00 442.00 39.00" xmlns="http://www.w3.org/2000/svg" xmlns:xlink="http://www.w3.org/1999/xlink">
<g id="graph0" class="graph" transform="scale(1 1) rotate(0) translate(4 35)">
<title>zwave_s2_configure_span_table_entry</title>
<!-- Node1 -->
<g id="node1" class="node">
<title>Node1</title>
<g id="a_node1"><a xlink:title="Copies a Span entry object into an entry of the S2 Context SPAN table.">
<polygon fill="#bfbfbf" stroke="black" points="328,-0.5 328,-30.5 434,-30.5 434,-0.5 328,-0.5"/>
<text text-anchor="start" x="336" y="-18.5" font-family="Helvetica,sans-Serif" font-size="10.00">zwave_s2_configure</text>
<text text-anchor="middle" x="381" y="-7.5" font-family="Helvetica,sans-Serif" font-size="10.00">_span_table_entry</text>
</a>
</g>
</g>
<!-- Node2 -->
<g id="node2" class="node">
<title>Node2</title>
<g id="a_node2"><a xlink:href="group__zwave__s2__nonce__management.html#gac266476283e7d528976748c4627680cb" target="_top" xlink:title="Copies a Span entry object into an entry of the S2 SPAN table.">
<polygon fill="none" stroke="black" points="160,-6 160,-25 292,-25 292,-6 160,-6"/>
<text text-anchor="middle" x="226" y="-13" font-family="Helvetica,sans-Serif" font-size="10.00">zwave_s2_set_span_table</text>
</a>
</g>
</g>
<!-- Node1&#45;&gt;Node2 -->
<g id="edge1" class="edge">
<title>Node1&#45;&gt;Node2</title>
<path fill="none" stroke="midnightblue" d="M317.69,-15.5C309.31,-15.5 300.68,-15.5 292.25,-15.5"/>
<polygon fill="midnightblue" stroke="midnightblue" points="317.77,-19 327.77,-15.5 317.77,-12 317.77,-19"/>
</g>
<!-- Node3 -->
<g id="node3" class="node">
<title>Node3</title>
<g id="a_node3"><a xlink:href="group__network__monitor__span__persistence.html#gab9993e21007a2ae5604142a10e0f376e" target="_top" xlink:title="Restores all the SPAN data to Z&#45;Wave S2 from the Attribute Store.">
<polygon fill="none" stroke="black" points="0,-0.5 0,-30.5 124,-30.5 124,-0.5 0,-0.5"/>
<text text-anchor="start" x="8" y="-18.5" font-family="Helvetica,sans-Serif" font-size="10.00">network_monitor_restore</text>
<text text-anchor="middle" x="62" y="-7.5" font-family="Helvetica,sans-Serif" font-size="10.00">_span_table_data</text>
</a>
</g>
</g>
<!-- Node2&#45;&gt;Node3 -->
<g id="edge2" class="edge">
<title>Node2&#45;&gt;Node3</title>
<path fill="none" stroke="midnightblue" d="M149.36,-15.5C140.93,-15.5 132.43,-15.5 124.21,-15.5"/>
<polygon fill="midnightblue" stroke="midnightblue" points="149.58,-19 159.58,-15.5 149.58,-12 149.58,-19"/>
</g>
</g>
</svg>
