<?xml version="1.0" encoding="UTF-8" standalone="no"?>
<!DOCTYPE svg PUBLIC "-//W3C//DTD SVG 1.1//EN"
 "http://www.w3.org/Graphics/SVG/1.1/DTD/svg11.dtd">
<!-- Generated by graphviz version 2.43.0 (0)
 -->
<!-- Title: zwave_api_transport_intercept_payload Pages: 1 -->
<svg width="1602pt" height="541pt"
 viewBox="0.00 0.00 1602.00 541.00" xmlns="http://www.w3.org/2000/svg" xmlns:xlink="http://www.w3.org/1999/xlink">
<g id="graph0" class="graph" transform="scale(1 1) rotate(0) translate(4 537)">
<title>zwave_api_transport_intercept_payload</title>
<!-- Node1 -->
<g id="node1" class="node">
<title>Node1</title>
<g id="a_node1"><a xlink:title=" ">
<polygon fill="#bfbfbf" stroke="black" points="0,-221.5 0,-251.5 107,-251.5 107,-221.5 0,-221.5"/>
<text text-anchor="start" x="8" y="-239.5" font-family="Helvetica,sans-Serif" font-size="10.00">zwave_api_transport</text>
<text text-anchor="middle" x="53.5" y="-228.5" font-family="Helvetica,sans-Serif" font-size="10.00">_intercept_payload</text>
</a>
</g>
</g>
<!-- Node2 -->
<g id="node2" class="node">
<title>Node2</title>
<g id="a_node2"><a xlink:href="group__ZWAPI__CONTROLLER.html#ga7f0684275070545db6dfb2b534e93b01" target="_top" xlink:title="Request node information from a node.">
<polygon fill="none" stroke="black" points="143,-265 143,-284 270,-284 270,-265 143,-265"/>
<text text-anchor="middle" x="206.5" y="-272" font-family="Helvetica,sans-Serif" font-size="10.00">zwapi_request_node_info</text>
</a>
</g>
</g>
<!-- Node1&#45;&gt;Node2 -->
<g id="edge1" class="edge">
<title>Node1&#45;&gt;Node2</title>
<path fill="none" stroke="midnightblue" d="M107.31,-249.79C123.79,-253.94 141.86,-258.49 157.96,-262.54"/>
<polygon fill="midnightblue" stroke="midnightblue" points="157.14,-265.94 167.69,-264.99 158.85,-259.15 157.14,-265.94"/>
</g>
<!-- Node34 -->
<g id="node34" class="node">
<title>Node34</title>
<g id="a_node34"><a xlink:href="group__ZWAPI__TRANSPORT.html#ga2475e2eb87efe6379c0e58840465cda4" target="_top" xlink:title="Sends a NOP to a NodeID destination.">
<polygon fill="none" stroke="black" points="162,-227 162,-246 251,-246 251,-227 162,-227"/>
<text text-anchor="middle" x="206.5" y="-234" font-family="Helvetica,sans-Serif" font-size="10.00">zwapi_send_nop</text>
</a>
</g>
</g>
<!-- Node1&#45;&gt;Node34 -->
<g id="edge51" class="edge">
<title>Node1&#45;&gt;Node34</title>
<path fill="none" stroke="midnightblue" d="M107.31,-236.5C121.68,-236.5 137.26,-236.5 151.69,-236.5"/>
<polygon fill="midnightblue" stroke="midnightblue" points="151.96,-240 161.96,-236.5 151.96,-233 151.96,-240"/>
</g>
<!-- Node35 -->
<g id="node35" class="node">
<title>Node35</title>
<g id="a_node35"><a xlink:href="zwave__api__transport_8c.html#a4319ec7c7ecc0ff9fd4706f65960d3a9" target="_top" xlink:title=" ">
<polygon fill="none" stroke="black" points="150,-177.5 150,-207.5 263,-207.5 263,-177.5 150,-177.5"/>
<text text-anchor="start" x="158" y="-195.5" font-family="Helvetica,sans-Serif" font-size="10.00">zwave_api_send_data</text>
<text text-anchor="middle" x="206.5" y="-184.5" font-family="Helvetica,sans-Serif" font-size="10.00">_callback</text>
</a>
</g>
</g>
<!-- Node1&#45;&gt;Node35 -->
<g id="edge54" class="edge">
<title>Node1&#45;&gt;Node35</title>
<path fill="none" stroke="midnightblue" d="M106.04,-221.48C118.25,-217.93 131.38,-214.1 143.97,-210.43"/>
<polygon fill="midnightblue" stroke="midnightblue" points="145.31,-213.68 153.93,-207.53 143.35,-206.96 145.31,-213.68"/>
</g>
<!-- Node3 -->
<g id="node3" class="node">
<title>Node3</title>
<g id="a_node3"><a xlink:href="zwapi__init_8c.html#a5ec89d5817b8ce00454fce891ae8400e" target="_top" xlink:title="Send a command to the Z&#45;Wave module and waits for an ACK.">
<polygon fill="none" stroke="black" points="306.5,-264.5 306.5,-294.5 422.5,-294.5 422.5,-264.5 306.5,-264.5"/>
<text text-anchor="start" x="314.5" y="-282.5" font-family="Helvetica,sans-Serif" font-size="10.00">zwapi_send_command</text>
<text text-anchor="middle" x="364.5" y="-271.5" font-family="Helvetica,sans-Serif" font-size="10.00">_with_response</text>
</a>
</g>
</g>
<!-- Node2&#45;&gt;Node3 -->
<g id="edge2" class="edge">
<title>Node2&#45;&gt;Node3</title>
<path fill="none" stroke="midnightblue" d="M270.05,-276.5C278.7,-276.78 287.62,-277.07 296.35,-277.35"/>
<polygon fill="midnightblue" stroke="midnightblue" points="296.38,-280.85 306.49,-277.67 296.6,-273.85 296.38,-280.85"/>
</g>
<!-- Node32 -->
<g id="node32" class="node">
<title>Node32</title>
<g id="a_node32"><a xlink:href="zwapi__utils_8c.html#aeea16d7db2f976466a2c0f4aa9b0416f" target="_top" xlink:title="Write the node ID in buffer based on node ID basetype. Note that this helper also advances the index.">
<polygon fill="none" stroke="black" points="311,-226 311,-245 418,-245 418,-226 311,-226"/>
<text text-anchor="middle" x="364.5" y="-233" font-family="Helvetica,sans-Serif" font-size="10.00">zwapi_write_node_id</text>
</a>
</g>
</g>
<!-- Node2&#45;&gt;Node32 -->
<g id="edge49" class="edge">
<title>Node2&#45;&gt;Node32</title>
<path fill="none" stroke="midnightblue" d="M245.66,-264.96C266.7,-259.7 293.03,-253.12 315.46,-247.51"/>
<polygon fill="midnightblue" stroke="midnightblue" points="316.61,-250.83 325.46,-245.01 314.91,-244.04 316.61,-250.83"/>
</g>
<!-- Node4 -->
<g id="node4" class="node">
<title>Node4</title>
<g id="a_node4"><a xlink:href="zwapi__session_8c.html#abf613a2ad7710ac80fb239ba55e621d7" target="_top" xlink:title="Send data frame to Z&#45;Wave chip via serial API, wait for ACK and a RES frame.">
<polygon fill="none" stroke="black" points="477.5,-264.5 477.5,-294.5 592.5,-294.5 592.5,-264.5 477.5,-264.5"/>
<text text-anchor="start" x="485.5" y="-282.5" font-family="Helvetica,sans-Serif" font-size="10.00">zwapi_session_send</text>
<text text-anchor="middle" x="535" y="-271.5" font-family="Helvetica,sans-Serif" font-size="10.00">_frame_with_response</text>
</a>
</g>
</g>
<!-- Node3&#45;&gt;Node4 -->
<g id="edge3" class="edge">
<title>Node3&#45;&gt;Node4</title>
<path fill="none" stroke="midnightblue" d="M422.55,-279.5C436.9,-279.5 452.43,-279.5 467.21,-279.5"/>
<polygon fill="midnightblue" stroke="midnightblue" points="467.3,-283 477.3,-279.5 467.3,-276 467.3,-283"/>
</g>
<!-- Node31 -->
<g id="node31" class="node">
<title>Node31</title>
<g id="a_node31"><a xlink:href="group__ZWAPI__INIT.html#ga0a823074baec69913d0e8590b46e4e33" target="_top" xlink:title="Check if a command is supported by the connected Z&#45;Wave module.">
<polygon fill="none" stroke="black" points="459,-314 459,-333 611,-333 611,-314 459,-314"/>
<text text-anchor="middle" x="535" y="-321" font-family="Helvetica,sans-Serif" font-size="10.00">zwapi_support_command_func</text>
</a>
</g>
</g>
<!-- Node3&#45;&gt;Node31 -->
<g id="edge48" class="edge">
<title>Node3&#45;&gt;Node31</title>
<path fill="none" stroke="midnightblue" d="M421.34,-294.56C433.73,-297.86 446.8,-301.32 459,-304.5 467.69,-306.76 476.95,-309.14 485.9,-311.41"/>
<polygon fill="midnightblue" stroke="midnightblue" points="485.27,-314.86 495.82,-313.93 486.99,-308.08 485.27,-314.86"/>
</g>
<!-- Node5 -->
<g id="node5" class="node">
<title>Node5</title>
<g id="a_node5"><a xlink:href="zwapi__connection_8c.html#a91ce3acd7eff779496789637a9c27f40" target="_top" xlink:title="Provides the data of the serial buffer for the last received frame.">
<polygon fill="none" stroke="black" points="1142.5,-502.5 1142.5,-532.5 1255.5,-532.5 1255.5,-502.5 1142.5,-502.5"/>
<text text-anchor="start" x="1150.5" y="-520.5" font-family="Helvetica,sans-Serif" font-size="10.00">zwapi_connection_get</text>
<text text-anchor="middle" x="1199" y="-509.5" font-family="Helvetica,sans-Serif" font-size="10.00">_last_rx_frame</text>
</a>
</g>
</g>
<!-- Node4&#45;&gt;Node5 -->
<g id="edge4" class="edge">
<title>Node4&#45;&gt;Node5</title>
<path fill="none" stroke="midnightblue" d="M592.52,-293.13C599.16,-296.2 605.51,-299.94 611,-304.5 636.4,-325.61 621.64,-348.35 647,-369.5 789.91,-488.71 1019.84,-512.66 1132.08,-516.96"/>
<polygon fill="midnightblue" stroke="midnightblue" points="1132.13,-520.46 1142.25,-517.31 1132.37,-513.47 1132.13,-520.46"/>
</g>
<!-- Node6 -->
<g id="node6" class="node">
<title>Node6</title>
<g id="a_node6"><a xlink:href="zwapi__connection_8c.html#a86b069d152a5c2f8ac95774a688dff48" target="_top" xlink:title="make the zwapi_connection_status types human readable.">
<polygon fill="none" stroke="black" points="647,-176.5 647,-206.5 774,-206.5 774,-176.5 647,-176.5"/>
<text text-anchor="start" x="655" y="-194.5" font-family="Helvetica,sans-Serif" font-size="10.00">zwapi_connection_status</text>
<text text-anchor="middle" x="710.5" y="-183.5" font-family="Helvetica,sans-Serif" font-size="10.00">_to_string</text>
</a>
</g>
</g>
<!-- Node4&#45;&gt;Node6 -->
<g id="edge5" class="edge">
<title>Node4&#45;&gt;Node6</title>
<path fill="none" stroke="midnightblue" d="M590.46,-264.39C597.58,-261.54 604.61,-258.26 611,-254.5 629.71,-243.49 629.02,-233.66 647,-221.5 652.36,-217.87 658.24,-214.44 664.16,-211.29"/>
<polygon fill="midnightblue" stroke="midnightblue" points="666.12,-214.22 673.46,-206.57 662.96,-207.98 666.12,-214.22"/>
</g>
<!-- Node7 -->
<g id="node7" class="node">
<title>Node7</title>
<g id="a_node7"><a xlink:href="zwapi__session_8c.html#a1f2b3e7c2dcf31708ef8d333747352ba" target="_top" xlink:title=" ">
<polygon fill="none" stroke="black" points="972.5,-409.5 972.5,-439.5 1095.5,-439.5 1095.5,-409.5 972.5,-409.5"/>
<text text-anchor="start" x="980.5" y="-427.5" font-family="Helvetica,sans-Serif" font-size="10.00">zwapi_session_enqueue</text>
<text text-anchor="middle" x="1034" y="-416.5" font-family="Helvetica,sans-Serif" font-size="10.00">_frame</text>
</a>
</g>
</g>
<!-- Node4&#45;&gt;Node7 -->
<g id="edge6" class="edge">
<title>Node4&#45;&gt;Node7</title>
<path fill="none" stroke="midnightblue" d="M584.36,-294.57C593.29,-297.65 602.49,-301.02 611,-304.5 702.09,-341.69 715.39,-374.48 810,-401.5 859.65,-415.68 917.73,-421.34 962.17,-423.5"/>
<polygon fill="midnightblue" stroke="midnightblue" points="962.15,-427 972.29,-423.95 962.45,-420.01 962.15,-427"/>
</g>
<!-- Node10 -->
<g id="node10" class="node">
<title>Node10</title>
<g id="a_node10"><a xlink:href="zwapi__session_8c.html#a32577f3500efc3d937dbc68eebb3c370" target="_top" xlink:title="Send data frame to Z&#45;Wave chip via serial port and wait for ACK.">
<polygon fill="none" stroke="black" points="657,-264.5 657,-294.5 764,-294.5 764,-264.5 657,-264.5"/>
<text text-anchor="start" x="665" y="-282.5" font-family="Helvetica,sans-Serif" font-size="10.00">zwapi_session_send</text>
<text text-anchor="middle" x="710.5" y="-271.5" font-family="Helvetica,sans-Serif" font-size="10.00">_frame</text>
</a>
</g>
</g>
<!-- Node4&#45;&gt;Node10 -->
<g id="edge10" class="edge">
<title>Node4&#45;&gt;Node10</title>
<path fill="none" stroke="midnightblue" d="M592.81,-279.5C610.08,-279.5 629.15,-279.5 646.78,-279.5"/>
<polygon fill="midnightblue" stroke="midnightblue" points="646.97,-283 656.97,-279.5 646.97,-276 646.97,-283"/>
</g>
<!-- Node30 -->
<g id="node30" class="node">
<title>Node30</title>
<g id="a_node30"><a xlink:href="zwapi__session_8c.html#a9d30e1677f02d7730ab035aa9333235d" target="_top" xlink:title=" ">
<polygon fill="none" stroke="black" points="819.5,-163.5 819.5,-193.5 923.5,-193.5 923.5,-163.5 819.5,-163.5"/>
<text text-anchor="start" x="827.5" y="-181.5" font-family="Helvetica,sans-Serif" font-size="10.00">zwapi_session_wait</text>
<text text-anchor="middle" x="871.5" y="-170.5" font-family="Helvetica,sans-Serif" font-size="10.00">_for_response</text>
</a>
</g>
</g>
<!-- Node4&#45;&gt;Node30 -->
<g id="edge47" class="edge">
<title>Node4&#45;&gt;Node30</title>
<path fill="none" stroke="midnightblue" d="M592.8,-266.44C641.36,-254.8 712.88,-236.55 774,-216.5 791,-210.92 809.35,-203.95 825.43,-197.5"/>
<polygon fill="midnightblue" stroke="midnightblue" points="827.16,-200.58 835.12,-193.58 824.53,-194.09 827.16,-200.58"/>
</g>
<!-- Node7&#45;&gt;Node5 -->
<g id="edge7" class="edge">
<title>Node7&#45;&gt;Node5</title>
<path fill="none" stroke="midnightblue" d="M1054.04,-439.71C1073.53,-454.77 1105.13,-477.8 1135,-493.5 1138.25,-495.21 1141.64,-496.86 1145.1,-498.44"/>
<polygon fill="midnightblue" stroke="midnightblue" points="1143.79,-501.68 1154.36,-502.45 1146.57,-495.26 1143.79,-501.68"/>
</g>
<!-- Node8 -->
<g id="node8" class="node">
<title>Node8</title>
<g id="a_node8"><a xlink:href="zwapi__session_8c.html#ad7bac697ee2388b38ed3777b5a3862bc" target="_top" xlink:title=" ">
<polygon fill="none" stroke="black" points="1142.5,-453.5 1142.5,-483.5 1255.5,-483.5 1255.5,-453.5 1142.5,-453.5"/>
<text text-anchor="start" x="1150.5" y="-471.5" font-family="Helvetica,sans-Serif" font-size="10.00">zwapi_session_get_rx</text>
<text text-anchor="middle" x="1199" y="-460.5" font-family="Helvetica,sans-Serif" font-size="10.00">_queue_length</text>
</a>
</g>
</g>
<!-- Node7&#45;&gt;Node8 -->
<g id="edge8" class="edge">
<title>Node7&#45;&gt;Node8</title>
<path fill="none" stroke="midnightblue" d="M1090.64,-439.52C1104.07,-443.15 1118.55,-447.05 1132.39,-450.79"/>
<polygon fill="midnightblue" stroke="midnightblue" points="1131.77,-454.25 1142.33,-453.47 1133.59,-447.49 1131.77,-454.25"/>
</g>
<!-- Node9 -->
<g id="node9" class="node">
<title>Node9</title>
<g id="a_node9"><a xlink:href="group__ZWAPI__INIT.html#ga438a74c9752197d20d377874d5a61694" target="_top" xlink:title="Returns the pointer to the callbacks registered at init.">
<polygon fill="none" stroke="black" points="1135,-415 1135,-434 1263,-434 1263,-415 1135,-415"/>
<text text-anchor="middle" x="1199" y="-422" font-family="Helvetica,sans-Serif" font-size="10.00">zwave_api_get_callbacks</text>
</a>
</g>
</g>
<!-- Node7&#45;&gt;Node9 -->
<g id="edge9" class="edge">
<title>Node7&#45;&gt;Node9</title>
<path fill="none" stroke="midnightblue" d="M1095.7,-424.5C1105.17,-424.5 1115.04,-424.5 1124.76,-424.5"/>
<polygon fill="midnightblue" stroke="midnightblue" points="1124.8,-428 1134.8,-424.5 1124.8,-421 1124.8,-428"/>
</g>
<!-- Node10&#45;&gt;Node7 -->
<g id="edge28" class="edge">
<title>Node10&#45;&gt;Node7</title>
<path fill="none" stroke="midnightblue" d="M724.21,-294.69C741.56,-314.43 774.59,-348.62 810,-367.5 857.54,-392.84 916.84,-407.3 962.35,-415.31"/>
<polygon fill="midnightblue" stroke="midnightblue" points="961.98,-418.79 972.42,-417.02 963.15,-411.89 961.98,-418.79"/>
</g>
<!-- Node11 -->
<g id="node11" class="node">
<title>Node11</title>
<g id="a_node11"><a xlink:href="zwapi__connection_8c.html#a13b6e6b6c56844f4344fabe490bc5eac" target="_top" xlink:title="Closes and re&#45;initializes the zwapi_connection to the Z&#45;Wave module.">
<polygon fill="none" stroke="black" points="970,-251 970,-270 1098,-270 1098,-251 970,-251"/>
<text text-anchor="middle" x="1034" y="-258" font-family="Helvetica,sans-Serif" font-size="10.00">zwapi_connection_restart</text>
</a>
</g>
</g>
<!-- Node10&#45;&gt;Node11 -->
<g id="edge11" class="edge">
<title>Node10&#45;&gt;Node11</title>
<path fill="none" stroke="midnightblue" d="M764.23,-276.38C817.44,-273.24 900.05,-268.36 959.64,-264.84"/>
<polygon fill="midnightblue" stroke="midnightblue" points="959.97,-268.32 969.74,-264.24 959.55,-261.33 959.97,-268.32"/>
</g>
<!-- Node21 -->
<g id="node21" class="node">
<title>Node21</title>
<g id="a_node21"><a xlink:href="zwapi__timestamp_8c.html#a6ebe1ddfe689bce6ee72fc12f708aece" target="_top" xlink:title="get the timestamp">
<polygon fill="none" stroke="black" points="1143,-213 1143,-232 1255,-232 1255,-213 1143,-213"/>
<text text-anchor="middle" x="1199" y="-220" font-family="Helvetica,sans-Serif" font-size="10.00">zwapi_timestamp_get</text>
</a>
</g>
</g>
<!-- Node10&#45;&gt;Node21 -->
<g id="edge46" class="edge">
<title>Node10&#45;&gt;Node21</title>
<path fill="none" stroke="midnightblue" d="M764.09,-270.03C778.92,-267.46 795.07,-264.77 810,-262.5 880.47,-251.77 898.13,-249.12 969,-241.5 1024.13,-235.58 1086.9,-230.48 1132.76,-227.07"/>
<polygon fill="midnightblue" stroke="midnightblue" points="1133.15,-230.55 1142.87,-226.32 1132.64,-223.57 1133.15,-230.55"/>
</g>
<!-- Node22 -->
<g id="node22" class="node">
<title>Node22</title>
<g id="a_node22"><a xlink:href="zwapi__connection_8c.html#af47f8cbd93974d5c91d659fdeb7a870b" target="_top" xlink:title="Transmit a frame via serial port by adding SOF, Len, Type, cmd and Checksum.">
<polygon fill="none" stroke="black" points="980,-289 980,-308 1088,-308 1088,-289 980,-289"/>
<text text-anchor="middle" x="1034" y="-296" font-family="Helvetica,sans-Serif" font-size="10.00">zwapi_connection_tx</text>
</a>
</g>
</g>
<!-- Node10&#45;&gt;Node22 -->
<g id="edge22" class="edge">
<title>Node10&#45;&gt;Node22</title>
<path fill="none" stroke="midnightblue" d="M764.23,-282.62C820.56,-285.95 909.83,-291.22 969.86,-294.77"/>
<polygon fill="midnightblue" stroke="midnightblue" points="969.79,-298.27 979.97,-295.37 970.2,-291.28 969.79,-298.27"/>
</g>
<!-- Node24 -->
<g id="node24" class="node">
<title>Node24</title>
<g id="a_node24"><a xlink:href="zwapi__timestamp_8c.html#a3925f2732e344672608db38351236688" target="_top" xlink:title="compare the current timestamp with the timestamp passed as an argument">
<polygon fill="none" stroke="black" points="1146,-0.5 1146,-30.5 1252,-30.5 1252,-0.5 1146,-0.5"/>
<text text-anchor="start" x="1154" y="-18.5" font-family="Helvetica,sans-Serif" font-size="10.00">zwapi_is_timestamp</text>
<text text-anchor="middle" x="1199" y="-7.5" font-family="Helvetica,sans-Serif" font-size="10.00">_elapsed</text>
</a>
</g>
</g>
<!-- Node10&#45;&gt;Node24 -->
<g id="edge27" class="edge">
<title>Node10&#45;&gt;Node24</title>
<path fill="none" stroke="midnightblue" d="M728.93,-264.27C742.22,-252.13 760.48,-234.28 774,-216.5 793.52,-190.83 787.68,-176.78 810,-153.5 867.77,-93.24 890.96,-83.14 969,-53.5 1023.05,-32.97 1088.45,-23.52 1135.49,-19.17"/>
<polygon fill="midnightblue" stroke="midnightblue" points="1135.88,-22.65 1145.54,-18.3 1135.27,-15.68 1135.88,-22.65"/>
</g>
<!-- Node25 -->
<g id="node25" class="node">
<title>Node25</title>
<g id="a_node25"><a xlink:href="zwapi__session_8c.html#a2875fbfa250b7b25ecb6bc4f0b032cb8" target="_top" xlink:title="Loads the received frames from the serial device into the zwapi_session receive queue.">
<polygon fill="none" stroke="black" points="810,-327.5 810,-357.5 933,-357.5 933,-327.5 810,-327.5"/>
<text text-anchor="start" x="818" y="-345.5" font-family="Helvetica,sans-Serif" font-size="10.00">zwapi_session_enqueue</text>
<text text-anchor="middle" x="871.5" y="-334.5" font-family="Helvetica,sans-Serif" font-size="10.00">_rx_frames</text>
</a>
</g>
</g>
<!-- Node10&#45;&gt;Node25 -->
<g id="edge29" class="edge">
<title>Node10&#45;&gt;Node25</title>
<path fill="none" stroke="midnightblue" d="M749.58,-294.59C771.63,-303.32 799.57,-314.39 823.03,-323.69"/>
<polygon fill="midnightblue" stroke="midnightblue" points="821.86,-326.99 832.45,-327.42 824.44,-320.49 821.86,-326.99"/>
</g>
<!-- Node10&#45;&gt;Node30 -->
<g id="edge42" class="edge">
<title>Node10&#45;&gt;Node30</title>
<path fill="none" stroke="midnightblue" d="M749.28,-264.39C757.8,-260.17 766.52,-255.17 774,-249.5 793.32,-234.85 790.77,-223.28 810,-208.5 814.7,-204.88 819.91,-201.53 825.24,-198.46"/>
<polygon fill="midnightblue" stroke="midnightblue" points="827.12,-201.43 834.26,-193.6 823.8,-195.27 827.12,-201.43"/>
</g>
<!-- Node12 -->
<g id="node12" class="node">
<title>Node12</title>
<g id="a_node12"><a xlink:href="zwapi__serial_8c.html#a3f2b3bd848e9fe0e6e137482bed06b46" target="_top" xlink:title="Flush the serial output if using buffered output.">
<polygon fill="none" stroke="black" points="1150.5,-251.5 1150.5,-281.5 1247.5,-281.5 1247.5,-251.5 1150.5,-251.5"/>
<text text-anchor="start" x="1158.5" y="-269.5" font-family="Helvetica,sans-Serif" font-size="10.00">zwapi_serial_drain</text>
<text text-anchor="middle" x="1199" y="-258.5" font-family="Helvetica,sans-Serif" font-size="10.00">_buffer</text>
</a>
</g>
</g>
<!-- Node11&#45;&gt;Node12 -->
<g id="edge12" class="edge">
<title>Node11&#45;&gt;Node12</title>
<path fill="none" stroke="midnightblue" d="M1098.02,-262.82C1111.87,-263.33 1126.47,-263.87 1140.11,-264.37"/>
<polygon fill="midnightblue" stroke="midnightblue" points="1140.2,-267.87 1150.32,-264.74 1140.45,-260.88 1140.2,-267.87"/>
</g>
<!-- Node13 -->
<g id="node13" class="node">
<title>Node13</title>
<g id="a_node13"><a xlink:href="zwapi__serial_8c.html#a7762d0358e9f398b92edbfd6a550984a" target="_top" xlink:title="Write a byte to serial port device.">
<polygon fill="none" stroke="black" points="1142.5,-175 1142.5,-194 1255.5,-194 1255.5,-175 1142.5,-175"/>
<text text-anchor="middle" x="1199" y="-182" font-family="Helvetica,sans-Serif" font-size="10.00">zwapi_serial_put_byte</text>
</a>
</g>
</g>
<!-- Node11&#45;&gt;Node13 -->
<g id="edge13" class="edge">
<title>Node11&#45;&gt;Node13</title>
<path fill="none" stroke="midnightblue" d="M1049.37,-250.92C1068.33,-238.62 1103.05,-217.22 1135,-203.5 1140.31,-201.22 1145.99,-199.1 1151.67,-197.16"/>
<polygon fill="midnightblue" stroke="midnightblue" points="1152.75,-200.49 1161.19,-194.08 1150.6,-193.83 1152.75,-200.49"/>
</g>
<!-- Node17 -->
<g id="node17" class="node">
<title>Node17</title>
<g id="a_node17"><a xlink:href="zwapi__serial_8c.html#aadf3397d0bd2c1657d4b1a373599acfe" target="_top" xlink:title="Closes and re&#45;initialize the last open serial port.">
<polygon fill="none" stroke="black" points="1147,-339 1147,-358 1251,-358 1251,-339 1147,-339"/>
<text text-anchor="middle" x="1199" y="-346" font-family="Helvetica,sans-Serif" font-size="10.00">zwapi_serial_restart</text>
</a>
</g>
</g>
<!-- Node11&#45;&gt;Node17 -->
<g id="edge17" class="edge">
<title>Node11&#45;&gt;Node17</title>
<path fill="none" stroke="midnightblue" d="M1074.33,-270.01C1082.66,-272.62 1091.27,-275.78 1099,-279.5 1128.96,-293.92 1159.82,-316.98 1178.95,-332.42"/>
<polygon fill="midnightblue" stroke="midnightblue" points="1176.92,-335.28 1186.87,-338.92 1181.36,-329.87 1176.92,-335.28"/>
</g>
<!-- Node11&#45;&gt;Node21 -->
<g id="edge21" class="edge">
<title>Node11&#45;&gt;Node21</title>
<path fill="none" stroke="midnightblue" d="M1076.13,-250.91C1097.74,-245.87 1124.41,-239.66 1147.29,-234.32"/>
<polygon fill="midnightblue" stroke="midnightblue" points="1148.22,-237.7 1157.16,-232.02 1146.63,-230.88 1148.22,-237.7"/>
</g>
<!-- Node14 -->
<g id="node14" class="node">
<title>Node14</title>
<g id="a_node14"><a xlink:href="zwapi__serial_8c.html#af9054824651df422bab5076d16a80fda" target="_top" xlink:title="Writes the content of a buffer to the serial port device.">
<polygon fill="none" stroke="black" points="1299,-176 1299,-195 1418,-195 1418,-176 1299,-176"/>
<text text-anchor="middle" x="1358.5" y="-183" font-family="Helvetica,sans-Serif" font-size="10.00">zwapi_serial_put_buffer</text>
</a>
</g>
</g>
<!-- Node13&#45;&gt;Node14 -->
<g id="edge14" class="edge">
<title>Node13&#45;&gt;Node14</title>
<path fill="none" stroke="midnightblue" d="M1255.53,-184.85C1266.24,-184.92 1277.59,-184.99 1288.66,-185.06"/>
<polygon fill="midnightblue" stroke="midnightblue" points="1288.71,-188.56 1298.74,-185.13 1288.76,-181.56 1288.71,-188.56"/>
</g>
<!-- Node15 -->
<g id="node15" class="node">
<title>Node15</title>
<g id="a_node15"><a xlink:href="zwapi__serial_8c.html#a0accbbf7ddb7aeab10f5df1fe3df6642" target="_top" xlink:title=" ">
<polygon fill="none" stroke="black" points="1454,-133 1454,-152 1594,-152 1594,-133 1454,-133"/>
<text text-anchor="middle" x="1524" y="-140" font-family="Helvetica,sans-Serif" font-size="10.00">zwapi_serial_log_timestamp</text>
</a>
</g>
</g>
<!-- Node14&#45;&gt;Node15 -->
<g id="edge15" class="edge">
<title>Node14&#45;&gt;Node15</title>
<path fill="none" stroke="midnightblue" d="M1395.79,-175.96C1419.71,-169.67 1451.24,-161.37 1476.93,-154.62"/>
<polygon fill="midnightblue" stroke="midnightblue" points="1478.03,-157.94 1486.82,-152.02 1476.25,-151.18 1478.03,-157.94"/>
</g>
<!-- Node16 -->
<g id="node16" class="node">
<title>Node16</title>
<g id="a_node16"><a xlink:href="zwapi__serial_8c.html#abf18afb71e14daaf65d937149ef1639f" target="_top" xlink:title="Test if a is less than b + ms.">
<polygon fill="none" stroke="black" points="1470.5,-171.5 1470.5,-201.5 1577.5,-201.5 1577.5,-171.5 1470.5,-171.5"/>
<text text-anchor="start" x="1478.5" y="-189.5" font-family="Helvetica,sans-Serif" font-size="10.00">zwapi_serial_timeval</text>
<text text-anchor="middle" x="1524" y="-178.5" font-family="Helvetica,sans-Serif" font-size="10.00">_a_lt_b_milis</text>
</a>
</g>
</g>
<!-- Node14&#45;&gt;Node16 -->
<g id="edge16" class="edge">
<title>Node14&#45;&gt;Node16</title>
<path fill="none" stroke="midnightblue" d="M1418.07,-185.86C1431.65,-185.94 1446.16,-186.03 1459.92,-186.11"/>
<polygon fill="midnightblue" stroke="midnightblue" points="1460.26,-189.62 1470.28,-186.18 1460.3,-182.62 1460.26,-189.62"/>
</g>
<!-- Node18 -->
<g id="node18" class="node">
<title>Node18</title>
<g id="a_node18"><a xlink:href="zwapi__serial_8c.html#aae586785021ac9a605cd77651429f0c9" target="_top" xlink:title="De&#45;Initialize the serial port.">
<polygon fill="none" stroke="black" points="1309,-358 1309,-377 1408,-377 1408,-358 1309,-358"/>
<text text-anchor="middle" x="1358.5" y="-365" font-family="Helvetica,sans-Serif" font-size="10.00">zwapi_serial_close</text>
</a>
</g>
</g>
<!-- Node17&#45;&gt;Node18 -->
<g id="edge18" class="edge">
<title>Node17&#45;&gt;Node18</title>
<path fill="none" stroke="midnightblue" d="M1251.14,-354.67C1266.31,-356.5 1283.06,-358.52 1298.68,-360.4"/>
<polygon fill="midnightblue" stroke="midnightblue" points="1298.42,-363.9 1308.76,-361.62 1299.25,-356.95 1298.42,-363.9"/>
</g>
<!-- Node19 -->
<g id="node19" class="node">
<title>Node19</title>
<g id="a_node19"><a xlink:href="zwapi__serial_8c.html#a07b09de97f4932d882fc77e191c44638" target="_top" xlink:title="Initialize the serial port to 115200 BAUD 8N1.">
<polygon fill="none" stroke="black" points="1314,-320 1314,-339 1403,-339 1403,-320 1314,-320"/>
<text text-anchor="middle" x="1358.5" y="-327" font-family="Helvetica,sans-Serif" font-size="10.00">zwapi_serial_init</text>
</a>
</g>
</g>
<!-- Node17&#45;&gt;Node19 -->
<g id="edge19" class="edge">
<title>Node17&#45;&gt;Node19</title>
<path fill="none" stroke="midnightblue" d="M1251.14,-342.33C1267.87,-340.31 1286.51,-338.06 1303.46,-336.02"/>
<polygon fill="midnightblue" stroke="midnightblue" points="1304.25,-339.45 1313.76,-334.78 1303.41,-332.5 1304.25,-339.45"/>
</g>
<!-- Node20 -->
<g id="node20" class="node">
<title>Node20</title>
<g id="a_node20"><a xlink:href="zwapi__serial_8c.html#aefeac5909b0bf6411db1492f69c3bc68" target="_top" xlink:title=" ">
<polygon fill="none" stroke="black" points="1464.5,-320 1464.5,-339 1583.5,-339 1583.5,-320 1464.5,-320"/>
<text text-anchor="middle" x="1524" y="-327" font-family="Helvetica,sans-Serif" font-size="10.00">zwapi_open_serial_port</text>
</a>
</g>
</g>
<!-- Node19&#45;&gt;Node20 -->
<g id="edge20" class="edge">
<title>Node19&#45;&gt;Node20</title>
<path fill="none" stroke="midnightblue" d="M1403.31,-329.5C1418.97,-329.5 1437.01,-329.5 1454.26,-329.5"/>
<polygon fill="midnightblue" stroke="midnightblue" points="1454.3,-333 1464.3,-329.5 1454.3,-326 1454.3,-333"/>
</g>
<!-- Node22&#45;&gt;Node12 -->
<g id="edge24" class="edge">
<title>Node22&#45;&gt;Node12</title>
<path fill="none" stroke="midnightblue" d="M1083.46,-288.99C1101.36,-285.47 1121.82,-281.46 1140.44,-277.8"/>
<polygon fill="midnightblue" stroke="midnightblue" points="1141.15,-281.23 1150.28,-275.87 1139.8,-274.36 1141.15,-281.23"/>
</g>
<!-- Node22&#45;&gt;Node14 -->
<g id="edge25" class="edge">
<title>Node22&#45;&gt;Node14</title>
<path fill="none" stroke="midnightblue" d="M1086.1,-308.03C1134.14,-314.49 1206.84,-317.71 1263,-291.5 1302.64,-273 1332.73,-229.22 1347.46,-204.09"/>
<polygon fill="midnightblue" stroke="midnightblue" points="1350.63,-205.6 1352.51,-195.17 1344.54,-202.16 1350.63,-205.6"/>
</g>
<!-- Node22&#45;&gt;Node21 -->
<g id="edge26" class="edge">
<title>Node22&#45;&gt;Node21</title>
<path fill="none" stroke="midnightblue" d="M1078.29,-288.95C1085.48,-286.44 1092.65,-283.34 1099,-279.5 1118.63,-267.63 1115.48,-254.56 1135,-242.5 1139.12,-239.96 1143.58,-237.71 1148.18,-235.73"/>
<polygon fill="midnightblue" stroke="midnightblue" points="1149.65,-238.91 1157.71,-232.03 1147.12,-232.39 1149.65,-238.91"/>
</g>
<!-- Node23 -->
<g id="node23" class="node">
<title>Node23</title>
<g id="a_node23"><a xlink:href="zwapi__connection_8c.html#a96d24d537c5b8d6aa0aa6a7638ba2f09" target="_top" xlink:title=" ">
<polygon fill="none" stroke="black" points="1141.5,-377 1141.5,-396 1256.5,-396 1256.5,-377 1141.5,-377"/>
<text text-anchor="middle" x="1199" y="-384" font-family="Helvetica,sans-Serif" font-size="10.00">zwapi_frame_to_string</text>
</a>
</g>
</g>
<!-- Node22&#45;&gt;Node23 -->
<g id="edge23" class="edge">
<title>Node22&#45;&gt;Node23</title>
<path fill="none" stroke="midnightblue" d="M1046.27,-308.05C1064.06,-322.7 1100.22,-350.76 1135,-367.5 1139.64,-369.73 1144.6,-371.77 1149.63,-373.61"/>
<polygon fill="midnightblue" stroke="midnightblue" points="1148.71,-376.99 1159.3,-376.9 1150.96,-370.37 1148.71,-376.99"/>
</g>
<!-- Node25&#45;&gt;Node7 -->
<g id="edge41" class="edge">
<title>Node25&#45;&gt;Node7</title>
<path fill="none" stroke="midnightblue" d="M903.34,-357.65C912.86,-362.37 923.38,-367.62 933,-372.5 953.6,-382.96 976.46,-394.83 995.13,-404.59"/>
<polygon fill="midnightblue" stroke="midnightblue" points="993.71,-407.8 1004.19,-409.33 996.96,-401.6 993.71,-407.8"/>
</g>
<!-- Node26 -->
<g id="node26" class="node">
<title>Node26</title>
<g id="a_node26"><a xlink:href="zwapi__connection_8c.html#a1e45c6c9695b5e7b415adfad40080720" target="_top" xlink:title="Parses serial data sent from the Z&#45;Wave module to the serial port. Should be frequently called by mai...">
<polygon fill="none" stroke="black" points="969,-137 969,-156 1099,-156 1099,-137 969,-137"/>
<text text-anchor="middle" x="1034" y="-144" font-family="Helvetica,sans-Serif" font-size="10.00">zwapi_connection_refresh</text>
</a>
</g>
</g>
<!-- Node25&#45;&gt;Node26 -->
<g id="edge30" class="edge">
<title>Node25&#45;&gt;Node26</title>
<path fill="none" stroke="midnightblue" d="M884.83,-327.45C913.91,-291.93 986.72,-203.01 1018.16,-164.62"/>
<polygon fill="midnightblue" stroke="midnightblue" points="1021.25,-166.37 1024.88,-156.42 1015.84,-161.93 1021.25,-166.37"/>
</g>
<!-- Node26&#45;&gt;Node12 -->
<g id="edge32" class="edge">
<title>Node26&#45;&gt;Node12</title>
<path fill="none" stroke="midnightblue" d="M1042.87,-156.11C1058.61,-174.82 1095.86,-216.48 1135,-241.5 1137.97,-243.4 1141.1,-245.19 1144.32,-246.88"/>
<polygon fill="midnightblue" stroke="midnightblue" points="1143.03,-250.15 1153.56,-251.37 1146.09,-243.85 1143.03,-250.15"/>
</g>
<!-- Node26&#45;&gt;Node13 -->
<g id="edge39" class="edge">
<title>Node26&#45;&gt;Node13</title>
<path fill="none" stroke="midnightblue" d="M1076.13,-156.09C1097.74,-161.13 1124.41,-167.34 1147.29,-172.68"/>
<polygon fill="midnightblue" stroke="midnightblue" points="1146.63,-176.12 1157.16,-174.98 1148.22,-169.3 1146.63,-176.12"/>
</g>
<!-- Node26&#45;&gt;Node21 -->
<g id="edge40" class="edge">
<title>Node26&#45;&gt;Node21</title>
<path fill="none" stroke="midnightblue" d="M1067.7,-156.04C1078.1,-159.78 1089.39,-164.6 1099,-170.5 1117.5,-181.85 1116.14,-192.76 1135,-203.5 1138.85,-205.69 1142.97,-207.65 1147.2,-209.4"/>
<polygon fill="midnightblue" stroke="midnightblue" points="1145.97,-212.68 1156.56,-212.91 1148.43,-206.13 1145.97,-212.68"/>
</g>
<!-- Node26&#45;&gt;Node24 -->
<g id="edge31" class="edge">
<title>Node26&#45;&gt;Node24</title>
<path fill="none" stroke="midnightblue" d="M1057.55,-136.96C1070.88,-130.46 1087.36,-120.79 1099,-108.5 1122.78,-83.38 1109.15,-62.49 1135,-39.5 1136.32,-38.32 1137.71,-37.2 1139.15,-36.13"/>
<polygon fill="midnightblue" stroke="midnightblue" points="1141.31,-38.9 1147.86,-30.58 1137.55,-33 1141.31,-38.9"/>
</g>
<!-- Node27 -->
<g id="node27" class="node">
<title>Node27</title>
<g id="a_node27"><a xlink:href="zwapi__serial_8c.html#a538134f9fdbb1ce052667b3a041357bd" target="_top" xlink:title="Reads the output of the serial port device and stores the content in a buffer.">
<polygon fill="none" stroke="black" points="1299,-136 1299,-155 1418,-155 1418,-136 1299,-136"/>
<text text-anchor="middle" x="1358.5" y="-143" font-family="Helvetica,sans-Serif" font-size="10.00">zwapi_serial_get_buffer</text>
</a>
</g>
</g>
<!-- Node26&#45;&gt;Node27 -->
<g id="edge33" class="edge">
<title>Node26&#45;&gt;Node27</title>
<path fill="none" stroke="midnightblue" d="M1099.1,-146.3C1153.92,-146.13 1232.62,-145.89 1288.74,-145.71"/>
<polygon fill="midnightblue" stroke="midnightblue" points="1288.96,-149.21 1298.95,-145.68 1288.93,-142.21 1288.96,-149.21"/>
</g>
<!-- Node28 -->
<g id="node28" class="node">
<title>Node28</title>
<g id="a_node28"><a xlink:href="zwapi__serial_8c.html#abb082b1e7e727203e3ca5fbeb41f7c2b" target="_top" xlink:title="Reads a byte from the serial port device.">
<polygon fill="none" stroke="black" points="1142.5,-99 1142.5,-118 1255.5,-118 1255.5,-99 1142.5,-99"/>
<text text-anchor="middle" x="1199" y="-106" font-family="Helvetica,sans-Serif" font-size="10.00">zwapi_serial_get_byte</text>
</a>
</g>
</g>
<!-- Node26&#45;&gt;Node28 -->
<g id="edge36" class="edge">
<title>Node26&#45;&gt;Node28</title>
<path fill="none" stroke="midnightblue" d="M1076.13,-136.91C1097.74,-131.87 1124.41,-125.66 1147.29,-120.32"/>
<polygon fill="midnightblue" stroke="midnightblue" points="1148.22,-123.7 1157.16,-118.02 1146.63,-116.88 1148.22,-123.7"/>
</g>
<!-- Node29 -->
<g id="node29" class="node">
<title>Node29</title>
<g id="a_node29"><a xlink:href="zwapi__serial_8c.html#a9a952dc2b34d92960246f6dc4e7d58f7" target="_top" xlink:title="Check the file descriptor for the serial device is available for I/O operations.">
<polygon fill="none" stroke="black" points="1148.5,-49.5 1148.5,-79.5 1249.5,-79.5 1249.5,-49.5 1148.5,-49.5"/>
<text text-anchor="start" x="1156.5" y="-67.5" font-family="Helvetica,sans-Serif" font-size="10.00">zwapi_serial_is_file</text>
<text text-anchor="middle" x="1199" y="-56.5" font-family="Helvetica,sans-Serif" font-size="10.00">_available</text>
</a>
</g>
</g>
<!-- Node26&#45;&gt;Node29 -->
<g id="edge38" class="edge">
<title>Node26&#45;&gt;Node29</title>
<path fill="none" stroke="midnightblue" d="M1051.13,-136.94C1074.98,-122.86 1118.61,-97.38 1135,-89.5 1139.28,-87.44 1143.78,-85.41 1148.32,-83.45"/>
<polygon fill="midnightblue" stroke="midnightblue" points="1149.78,-86.64 1157.64,-79.54 1147.07,-80.18 1149.78,-86.64"/>
</g>
<!-- Node27&#45;&gt;Node15 -->
<g id="edge34" class="edge">
<title>Node27&#45;&gt;Node15</title>
<path fill="none" stroke="midnightblue" d="M1418.07,-144.43C1426.43,-144.27 1435.15,-144.11 1443.82,-143.95"/>
<polygon fill="midnightblue" stroke="midnightblue" points="1444.04,-147.45 1453.97,-143.77 1443.91,-140.45 1444.04,-147.45"/>
</g>
<!-- Node27&#45;&gt;Node16 -->
<g id="edge35" class="edge">
<title>Node27&#45;&gt;Node16</title>
<path fill="none" stroke="midnightblue" d="M1397.42,-155.01C1416.15,-159.71 1439.24,-165.5 1460.49,-170.82"/>
<polygon fill="midnightblue" stroke="midnightblue" points="1459.87,-174.28 1470.42,-173.32 1461.58,-167.49 1459.87,-174.28"/>
</g>
<!-- Node28&#45;&gt;Node27 -->
<g id="edge37" class="edge">
<title>Node28&#45;&gt;Node27</title>
<path fill="none" stroke="midnightblue" d="M1240.56,-118.03C1260.78,-122.78 1285.44,-128.57 1306.88,-133.61"/>
<polygon fill="midnightblue" stroke="midnightblue" points="1306.27,-137.06 1316.8,-135.94 1307.87,-130.25 1306.27,-137.06"/>
</g>
<!-- Node30&#45;&gt;Node21 -->
<g id="edge45" class="edge">
<title>Node30&#45;&gt;Node21</title>
<path fill="none" stroke="midnightblue" d="M923.79,-185.16C969.71,-191.16 1038.87,-200.27 1099,-208.5 1109.86,-209.99 1121.39,-211.59 1132.6,-213.17"/>
<polygon fill="midnightblue" stroke="midnightblue" points="1132.38,-216.67 1142.77,-214.6 1133.36,-209.74 1132.38,-216.67"/>
</g>
<!-- Node30&#45;&gt;Node24 -->
<g id="edge44" class="edge">
<title>Node30&#45;&gt;Node24</title>
<path fill="none" stroke="midnightblue" d="M898.42,-163.4C944.92,-136.62 1045.99,-79.84 1135,-39.5 1138.84,-37.76 1142.84,-36.04 1146.89,-34.36"/>
<polygon fill="midnightblue" stroke="midnightblue" points="1148.4,-37.52 1156.36,-30.53 1145.77,-31.03 1148.4,-37.52"/>
</g>
<!-- Node30&#45;&gt;Node26 -->
<g id="edge43" class="edge">
<title>Node30&#45;&gt;Node26</title>
<path fill="none" stroke="midnightblue" d="M923.72,-168.29C940.06,-165.03 958.25,-161.4 975.02,-158.06"/>
<polygon fill="midnightblue" stroke="midnightblue" points="976.14,-161.41 985.26,-156.02 974.77,-154.54 976.14,-161.41"/>
</g>
<!-- Node33 -->
<g id="node33" class="node">
<title>Node33</title>
<g id="a_node33"><a xlink:href="group__ZWAPI__BASIS.html#ga956fbfe63267baacd31dd20aa1c444d1" target="_top" xlink:title="Get the current node ID basetype setting.">
<polygon fill="none" stroke="black" points="462.5,-226 462.5,-245 607.5,-245 607.5,-226 462.5,-226"/>
<text text-anchor="middle" x="535" y="-233" font-family="Helvetica,sans-Serif" font-size="10.00">zwapi_get_node_id_basetype</text>
</a>
</g>
</g>
<!-- Node32&#45;&gt;Node33 -->
<g id="edge50" class="edge">
<title>Node32&#45;&gt;Node33</title>
<path fill="none" stroke="midnightblue" d="M418.35,-235.5C429.18,-235.5 440.81,-235.5 452.37,-235.5"/>
<polygon fill="midnightblue" stroke="midnightblue" points="452.5,-239 462.5,-235.5 452.5,-232 452.5,-239"/>
</g>
<!-- Node34&#45;&gt;Node3 -->
<g id="edge52" class="edge">
<title>Node34&#45;&gt;Node3</title>
<path fill="none" stroke="midnightblue" d="M242.12,-246.04C258.94,-250.68 279.7,-256.4 299.27,-261.79"/>
<polygon fill="midnightblue" stroke="midnightblue" points="298.49,-265.21 309.06,-264.49 300.35,-258.46 298.49,-265.21"/>
</g>
<!-- Node34&#45;&gt;Node32 -->
<g id="edge53" class="edge">
<title>Node34&#45;&gt;Node32</title>
<path fill="none" stroke="midnightblue" d="M251.37,-236.22C266.67,-236.12 284.15,-236.01 300.68,-235.9"/>
<polygon fill="midnightblue" stroke="midnightblue" points="300.85,-239.4 310.83,-235.84 300.81,-232.4 300.85,-239.4"/>
</g>
<!-- Node36 -->
<g id="node36" class="node">
<title>Node36</title>
<g id="a_node36"><a xlink:href="zwave__api__transport_8c.html#add367e9875b60a3e2f8e2c470f4ca998" target="_top" xlink:title=" ">
<polygon fill="none" stroke="black" points="306,-185 306,-204 423,-204 423,-185 306,-185"/>
<text text-anchor="middle" x="364.5" y="-192" font-family="Helvetica,sans-Serif" font-size="10.00">zwave_api_reset_state</text>
</a>
</g>
</g>
<!-- Node35&#45;&gt;Node36 -->
<g id="edge55" class="edge">
<title>Node35&#45;&gt;Node36</title>
<path fill="none" stroke="midnightblue" d="M263.38,-193.22C273.85,-193.35 284.89,-193.49 295.68,-193.63"/>
<polygon fill="midnightblue" stroke="midnightblue" points="295.86,-197.13 305.91,-193.76 295.95,-190.13 295.86,-197.13"/>
</g>
<!-- Node37 -->
<g id="node37" class="node">
<title>Node37</title>
<g id="a_node37"><a xlink:href="group__zwave__controller__internal.html#ga37f3eb5b079a43384fe3158cdc563a8d" target="_top" xlink:title="see zwave_controller_callbacks_t">
<polygon fill="none" stroke="black" points="311,-135.5 311,-165.5 418,-165.5 418,-135.5 311,-135.5"/>
<text text-anchor="start" x="319" y="-153.5" font-family="Helvetica,sans-Serif" font-size="10.00">zwave_controller_on</text>
<text text-anchor="middle" x="364.5" y="-142.5" font-family="Helvetica,sans-Serif" font-size="10.00">_frame_transmission</text>
</a>
</g>
</g>
<!-- Node35&#45;&gt;Node37 -->
<g id="edge56" class="edge">
<title>Node35&#45;&gt;Node37</title>
<path fill="none" stroke="midnightblue" d="M263.38,-177.46C275.59,-174.17 288.59,-170.67 301.04,-167.32"/>
<polygon fill="midnightblue" stroke="midnightblue" points="302.13,-170.65 310.88,-164.67 300.31,-163.89 302.13,-170.65"/>
</g>
</g>
</svg>
