<?xml version="1.0" encoding="UTF-8" standalone="no"?>
<!DOCTYPE svg PUBLIC "-//W3C//DTD SVG 1.1//EN"
 "http://www.w3.org/Graphics/SVG/1.1/DTD/svg11.dtd">
<!-- Generated by graphviz version 2.43.0 (0)
 -->
<!-- Title: applications/zpc/components/zwave/zwave_transports/zwave_api_transport/include/zwave_api_transport.h Pages: 1 -->
<svg width="693pt" height="352pt"
 viewBox="0.00 0.00 692.96 352.00" xmlns="http://www.w3.org/2000/svg" xmlns:xlink="http://www.w3.org/1999/xlink">
<g id="graph0" class="graph" transform="scale(1 1) rotate(0) translate(4 348)">
<title>applications/zpc/components/zwave/zwave_transports/zwave_api_transport/include/zwave_api_transport.h</title>
<!-- Node1 -->
<g id="node1" class="node">
<title>Node1</title>
<g id="a_node1"><a xlink:title=" ">
<polygon fill="#bfbfbf" stroke="black" points="98,-291.5 98,-343.5 241,-343.5 241,-291.5 98,-291.5"/>
<text text-anchor="start" x="106" y="-331.5" font-family="Helvetica,sans-Serif" font-size="10.00">applications/zpc/components</text>
<text text-anchor="start" x="106" y="-320.5" font-family="Helvetica,sans-Serif" font-size="10.00">/zwave/zwave_transports</text>
<text text-anchor="start" x="106" y="-309.5" font-family="Helvetica,sans-Serif" font-size="10.00">/zwave_api_transport/include</text>
<text text-anchor="middle" x="169.5" y="-298.5" font-family="Helvetica,sans-Serif" font-size="10.00">/zwave_api_transport.h</text>
</a>
</g>
</g>
<!-- Node2 -->
<g id="node2" class="node">
<title>Node2</title>
<g id="a_node2"><a xlink:href="sl__status_8h.html" target="_top" xlink:title="SL Status Codes.">
<polygon fill="none" stroke="black" points="0,-56.5 0,-75.5 65,-75.5 65,-56.5 0,-56.5"/>
<text text-anchor="middle" x="32.5" y="-63.5" font-family="Helvetica,sans-Serif" font-size="10.00">sl_status.h</text>
</a>
</g>
</g>
<!-- Node1&#45;&gt;Node2 -->
<g id="edge1" class="edge">
<title>Node1&#45;&gt;Node2</title>
<path fill="none" stroke="midnightblue" d="M150.62,-291.49C125.45,-257.14 80.9,-192.69 53.5,-132 46.64,-116.8 40.98,-98.69 37.27,-85.45"/>
<polygon fill="midnightblue" stroke="midnightblue" points="40.61,-84.39 34.63,-75.64 33.85,-86.21 40.61,-84.39"/>
</g>
<!-- Node4 -->
<g id="node4" class="node">
<title>Node4</title>
<g id="a_node4"><a xlink:href="zwave__tx_8h.html" target="_top" xlink:title=" ">
<polygon fill="none" stroke="black" points="136,-235.5 136,-254.5 203,-254.5 203,-235.5 136,-235.5"/>
<text text-anchor="middle" x="169.5" y="-242.5" font-family="Helvetica,sans-Serif" font-size="10.00">zwave_tx.h</text>
</a>
</g>
</g>
<!-- Node1&#45;&gt;Node4 -->
<g id="edge3" class="edge">
<title>Node1&#45;&gt;Node4</title>
<path fill="none" stroke="midnightblue" d="M169.5,-291.45C169.5,-282.73 169.5,-273.1 169.5,-264.96"/>
<polygon fill="midnightblue" stroke="midnightblue" points="173,-264.7 169.5,-254.7 166,-264.7 173,-264.7"/>
</g>
<!-- Node14 -->
<g id="node14" class="node">
<title>Node14</title>
<g id="a_node14"><a xlink:title=" ">
<polygon fill="none" stroke="#bfbfbf" points="221,-235.5 221,-254.5 272,-254.5 272,-235.5 221,-235.5"/>
<text text-anchor="middle" x="246.5" y="-242.5" font-family="Helvetica,sans-Serif" font-size="10.00">etimer.h</text>
</a>
</g>
</g>
<!-- Node1&#45;&gt;Node14 -->
<g id="edge28" class="edge">
<title>Node1&#45;&gt;Node14</title>
<path fill="none" stroke="midnightblue" d="M196.86,-291.45C207.7,-281.53 219.82,-270.43 229.37,-261.69"/>
<polygon fill="midnightblue" stroke="midnightblue" points="231.99,-264.03 237,-254.7 227.26,-258.87 231.99,-264.03"/>
</g>
<!-- Node3 -->
<g id="node3" class="node">
<title>Node3</title>
<g id="a_node3"><a xlink:title=" ">
<polygon fill="none" stroke="#bfbfbf" points="176,-0.5 176,-19.5 225,-19.5 225,-0.5 176,-0.5"/>
<text text-anchor="middle" x="200.5" y="-7.5" font-family="Helvetica,sans-Serif" font-size="10.00">stdint.h</text>
</a>
</g>
</g>
<!-- Node2&#45;&gt;Node3 -->
<g id="edge2" class="edge">
<title>Node2&#45;&gt;Node3</title>
<path fill="none" stroke="midnightblue" d="M59.12,-56.44C88.09,-47.13 134.5,-32.21 166.19,-22.03"/>
<polygon fill="midnightblue" stroke="midnightblue" points="167.47,-25.29 175.92,-18.9 165.33,-18.63 167.47,-25.29"/>
</g>
<!-- Node4&#45;&gt;Node2 -->
<g id="edge4" class="edge">
<title>Node4&#45;&gt;Node2</title>
<path fill="none" stroke="midnightblue" d="M160.92,-235.49C142.94,-217.41 100.47,-173.42 70.5,-132 59.51,-116.81 48.9,-98.24 41.7,-84.84"/>
<polygon fill="midnightblue" stroke="midnightblue" points="44.67,-82.96 36.91,-75.74 38.48,-86.22 44.67,-82.96"/>
</g>
<!-- Node5 -->
<g id="node5" class="node">
<title>Node5</title>
<g id="a_node5"><a xlink:href="zwave__controller__connection__info_8h.html" target="_top" xlink:title=" ">
<polygon fill="none" stroke="black" points="361,-168.5 361,-198.5 504,-198.5 504,-168.5 361,-168.5"/>
<text text-anchor="start" x="369" y="-186.5" font-family="Helvetica,sans-Serif" font-size="10.00">zwave_controller_connection</text>
<text text-anchor="middle" x="432.5" y="-175.5" font-family="Helvetica,sans-Serif" font-size="10.00">_info.h</text>
</a>
</g>
</g>
<!-- Node4&#45;&gt;Node5 -->
<g id="edge5" class="edge">
<title>Node4&#45;&gt;Node5</title>
<path fill="none" stroke="midnightblue" d="M203.08,-236.4C242.54,-227.48 309.16,-212.4 360.47,-200.8"/>
<polygon fill="midnightblue" stroke="midnightblue" points="361.53,-204.14 370.52,-198.52 359.99,-197.32 361.53,-204.14"/>
</g>
<!-- Node11 -->
<g id="node11" class="node">
<title>Node11</title>
<g id="a_node11"><a xlink:href="zwapi__protocol__transport_8h.html" target="_top" xlink:title="Z&#45;Wave API for transport application layer interface.">
<polygon fill="none" stroke="black" points="79.5,-112.5 79.5,-131.5 213.5,-131.5 213.5,-112.5 79.5,-112.5"/>
<text text-anchor="middle" x="146.5" y="-119.5" font-family="Helvetica,sans-Serif" font-size="10.00">zwapi_protocol_transport.h</text>
</a>
</g>
</g>
<!-- Node4&#45;&gt;Node11 -->
<g id="edge15" class="edge">
<title>Node4&#45;&gt;Node11</title>
<path fill="none" stroke="midnightblue" d="M167.85,-235.3C164.13,-215.76 155.07,-168.06 150.03,-141.55"/>
<polygon fill="midnightblue" stroke="midnightblue" points="153.45,-140.79 148.14,-131.62 146.57,-142.1 153.45,-140.79"/>
</g>
<!-- Node12 -->
<g id="node12" class="node">
<title>Node12</title>
<g id="a_node12"><a xlink:href="zwapi__protocol__basis_8h.html" target="_top" xlink:title="Z&#45;Wave API for basis controller/end node application interface.">
<polygon fill="none" stroke="black" points="232,-112.5 232,-131.5 351,-131.5 351,-112.5 232,-112.5"/>
<text text-anchor="middle" x="291.5" y="-119.5" font-family="Helvetica,sans-Serif" font-size="10.00">zwapi_protocol_basis.h</text>
</a>
</g>
</g>
<!-- Node4&#45;&gt;Node12 -->
<g id="edge20" class="edge">
<title>Node4&#45;&gt;Node12</title>
<path fill="none" stroke="midnightblue" d="M173.15,-235.08C179.75,-219.83 194.9,-188.4 215.5,-168 228.94,-154.69 247.08,-143.75 262.27,-136"/>
<polygon fill="midnightblue" stroke="midnightblue" points="263.83,-139.13 271.28,-131.59 260.76,-132.84 263.83,-139.13"/>
</g>
<!-- Node13 -->
<g id="node13" class="node">
<title>Node13</title>
<g id="a_node13"><a xlink:href="zwave__tx__definitions_8h.html" target="_top" xlink:title=" ">
<polygon fill="none" stroke="black" points="224.5,-174 224.5,-193 340.5,-193 340.5,-174 224.5,-174"/>
<text text-anchor="middle" x="282.5" y="-181" font-family="Helvetica,sans-Serif" font-size="10.00">zwave_tx_definitions.h</text>
</a>
</g>
</g>
<!-- Node4&#45;&gt;Node13 -->
<g id="edge26" class="edge">
<title>Node4&#45;&gt;Node13</title>
<path fill="none" stroke="midnightblue" d="M185.69,-235.48C204.4,-225.62 235.42,-209.29 257.3,-197.77"/>
<polygon fill="midnightblue" stroke="midnightblue" points="259.12,-200.77 266.34,-193.01 255.86,-194.57 259.12,-200.77"/>
</g>
<!-- Node6 -->
<g id="node6" class="node">
<title>Node6</title>
<g id="a_node6"><a xlink:href="zwave__controller__types_8h.html" target="_top" xlink:title=" ">
<polygon fill="none" stroke="black" points="369.5,-112.5 369.5,-131.5 497.5,-131.5 497.5,-112.5 369.5,-112.5"/>
<text text-anchor="middle" x="433.5" y="-119.5" font-family="Helvetica,sans-Serif" font-size="10.00">zwave_controller_types.h</text>
</a>
</g>
</g>
<!-- Node5&#45;&gt;Node6 -->
<g id="edge6" class="edge">
<title>Node5&#45;&gt;Node6</title>
<path fill="none" stroke="midnightblue" d="M432.74,-168.4C432.87,-160.47 433.04,-150.46 433.18,-141.86"/>
<polygon fill="midnightblue" stroke="midnightblue" points="436.69,-141.72 433.35,-131.66 429.69,-141.6 436.69,-141.72"/>
</g>
<!-- Node6&#45;&gt;Node3 -->
<g id="edge8" class="edge">
<title>Node6&#45;&gt;Node3</title>
<path fill="none" stroke="midnightblue" d="M424.33,-112.17C409.52,-98.36 378.91,-71.6 348.5,-56 311.79,-37.17 265.84,-24.73 234.96,-17.8"/>
<polygon fill="midnightblue" stroke="midnightblue" points="235.61,-14.36 225.1,-15.66 234.13,-21.2 235.61,-14.36"/>
</g>
<!-- Node7 -->
<g id="node7" class="node">
<title>Node7</title>
<g id="a_node7"><a xlink:title=" ">
<polygon fill="none" stroke="#bfbfbf" points="465.5,-0.5 465.5,-19.5 521.5,-19.5 521.5,-0.5 465.5,-0.5"/>
<text text-anchor="middle" x="493.5" y="-7.5" font-family="Helvetica,sans-Serif" font-size="10.00">stdbool.h</text>
</a>
</g>
</g>
<!-- Node6&#45;&gt;Node7 -->
<g id="edge7" class="edge">
<title>Node6&#45;&gt;Node7</title>
<path fill="none" stroke="midnightblue" d="M497.55,-118.14C561.74,-113.78 654.14,-102.88 676.5,-76 717.45,-26.77 596.91,-14.81 531.96,-11.92"/>
<polygon fill="midnightblue" stroke="midnightblue" points="531.8,-8.41 521.67,-11.51 531.52,-15.4 531.8,-8.41"/>
</g>
<!-- Node8 -->
<g id="node8" class="node">
<title>Node8</title>
<g id="a_node8"><a xlink:href="zwave__node__id__definitions_8h.html" target="_top" xlink:title=" ">
<polygon fill="none" stroke="black" points="197.5,-56.5 197.5,-75.5 339.5,-75.5 339.5,-56.5 197.5,-56.5"/>
<text text-anchor="middle" x="268.5" y="-63.5" font-family="Helvetica,sans-Serif" font-size="10.00">zwave_node_id_definitions.h</text>
</a>
</g>
</g>
<!-- Node6&#45;&gt;Node8 -->
<g id="edge9" class="edge">
<title>Node6&#45;&gt;Node8</title>
<path fill="none" stroke="midnightblue" d="M407.36,-112.44C379.48,-103.32 335.15,-88.81 304.1,-78.65"/>
<polygon fill="midnightblue" stroke="midnightblue" points="305.12,-75.3 294.52,-75.52 302.94,-81.95 305.12,-75.3"/>
</g>
<!-- Node9 -->
<g id="node9" class="node">
<title>Node9</title>
<g id="a_node9"><a xlink:href="zwave__generic__types_8h.html" target="_top" xlink:title=" ">
<polygon fill="none" stroke="black" points="434,-56.5 434,-75.5 553,-75.5 553,-56.5 434,-56.5"/>
<text text-anchor="middle" x="493.5" y="-63.5" font-family="Helvetica,sans-Serif" font-size="10.00">zwave_generic_types.h</text>
</a>
</g>
</g>
<!-- Node6&#45;&gt;Node9 -->
<g id="edge11" class="edge">
<title>Node6&#45;&gt;Node9</title>
<path fill="none" stroke="midnightblue" d="M443.14,-112.32C452.01,-104.34 465.37,-92.31 476.11,-82.65"/>
<polygon fill="midnightblue" stroke="midnightblue" points="478.59,-85.13 483.68,-75.83 473.91,-79.92 478.59,-85.13"/>
</g>
<!-- Node10 -->
<g id="node10" class="node">
<title>Node10</title>
<g id="a_node10"><a xlink:href="zwave__rf__region_8h.html" target="_top" xlink:title=" ">
<polygon fill="none" stroke="black" points="571.5,-56.5 571.5,-75.5 667.5,-75.5 667.5,-56.5 571.5,-56.5"/>
<text text-anchor="middle" x="619.5" y="-63.5" font-family="Helvetica,sans-Serif" font-size="10.00">zwave_rf_region.h</text>
</a>
</g>
</g>
<!-- Node6&#45;&gt;Node10 -->
<g id="edge13" class="edge">
<title>Node6&#45;&gt;Node10</title>
<path fill="none" stroke="midnightblue" d="M462.97,-112.44C494.67,-103.24 545.23,-88.56 580.27,-78.39"/>
<polygon fill="midnightblue" stroke="midnightblue" points="581.54,-81.67 590.17,-75.52 579.59,-74.94 581.54,-81.67"/>
</g>
<!-- Node8&#45;&gt;Node3 -->
<g id="edge10" class="edge">
<title>Node8&#45;&gt;Node3</title>
<path fill="none" stroke="midnightblue" d="M257.57,-56.32C247.33,-48.18 231.78,-35.84 219.5,-26.09"/>
<polygon fill="midnightblue" stroke="midnightblue" points="221.63,-23.31 211.62,-19.83 217.28,-28.79 221.63,-23.31"/>
</g>
<!-- Node9&#45;&gt;Node3 -->
<g id="edge12" class="edge">
<title>Node9&#45;&gt;Node3</title>
<path fill="none" stroke="midnightblue" d="M447.07,-56.44C388.07,-45.57 287.6,-27.05 234.97,-17.35"/>
<polygon fill="midnightblue" stroke="midnightblue" points="235.58,-13.91 225.11,-15.54 234.31,-20.79 235.58,-13.91"/>
</g>
<!-- Node10&#45;&gt;Node7 -->
<g id="edge14" class="edge">
<title>Node10&#45;&gt;Node7</title>
<path fill="none" stroke="midnightblue" d="M599.53,-56.44C578.89,-47.6 546.44,-33.69 522.87,-23.59"/>
<polygon fill="midnightblue" stroke="midnightblue" points="523.94,-20.24 513.37,-19.52 521.18,-26.67 523.94,-20.24"/>
</g>
<!-- Node11&#45;&gt;Node2 -->
<g id="edge18" class="edge">
<title>Node11&#45;&gt;Node2</title>
<path fill="none" stroke="midnightblue" d="M128.44,-112.44C109.93,-103.68 80.92,-89.94 59.64,-79.86"/>
<polygon fill="midnightblue" stroke="midnightblue" points="61.01,-76.63 50.48,-75.52 58.02,-82.96 61.01,-76.63"/>
</g>
<!-- Node11&#45;&gt;Node3 -->
<g id="edge16" class="edge">
<title>Node11&#45;&gt;Node3</title>
<path fill="none" stroke="midnightblue" d="M137.34,-112.27C125.08,-99.48 106.12,-75.11 117.5,-56 128.04,-38.29 148.25,-27.13 166.08,-20.34"/>
<polygon fill="midnightblue" stroke="midnightblue" points="167.37,-23.6 175.67,-17.01 165.07,-16.99 167.37,-23.6"/>
</g>
<!-- Node11&#45;&gt;Node7 -->
<g id="edge17" class="edge">
<title>Node11&#45;&gt;Node7</title>
<path fill="none" stroke="midnightblue" d="M149.49,-112.11C154.84,-97.71 167.49,-69.52 188.5,-56 231.94,-28.05 383.24,-16.66 455.08,-12.76"/>
<polygon fill="midnightblue" stroke="midnightblue" points="455.27,-16.25 465.08,-12.23 454.91,-9.26 455.27,-16.25"/>
</g>
<!-- Node11&#45;&gt;Node8 -->
<g id="edge19" class="edge">
<title>Node11&#45;&gt;Node8</title>
<path fill="none" stroke="midnightblue" d="M165.83,-112.44C185.82,-103.6 217.24,-89.69 240.06,-79.59"/>
<polygon fill="midnightblue" stroke="midnightblue" points="241.53,-82.76 249.26,-75.52 238.7,-76.36 241.53,-82.76"/>
</g>
<!-- Node12&#45;&gt;Node2 -->
<g id="edge23" class="edge">
<title>Node12&#45;&gt;Node2</title>
<path fill="none" stroke="midnightblue" d="M250.46,-112.44C202.52,-102.45 123.6,-85.99 75.03,-75.87"/>
<polygon fill="midnightblue" stroke="midnightblue" points="75.65,-72.42 65.15,-73.81 74.22,-79.27 75.65,-72.42"/>
</g>
<!-- Node12&#45;&gt;Node3 -->
<g id="edge21" class="edge">
<title>Node12&#45;&gt;Node3</title>
<path fill="none" stroke="midnightblue" d="M244.17,-112.42C223.4,-106.05 200.95,-95.02 188.5,-76 179.3,-61.94 184.55,-42.69 190.73,-28.8"/>
<polygon fill="midnightblue" stroke="midnightblue" points="193.9,-30.29 195.2,-19.77 187.63,-27.18 193.9,-30.29"/>
</g>
<!-- Node12&#45;&gt;Node7 -->
<g id="edge22" class="edge">
<title>Node12&#45;&gt;Node7</title>
<path fill="none" stroke="midnightblue" d="M307.35,-112.37C342.38,-93.29 426.62,-47.42 468.7,-24.51"/>
<polygon fill="midnightblue" stroke="midnightblue" points="470.61,-27.45 477.72,-19.59 467.27,-21.3 470.61,-27.45"/>
</g>
<!-- Node12&#45;&gt;Node8 -->
<g id="edge25" class="edge">
<title>Node12&#45;&gt;Node8</title>
<path fill="none" stroke="midnightblue" d="M287.7,-112.08C284.59,-104.77 280.08,-94.18 276.21,-85.1"/>
<polygon fill="midnightblue" stroke="midnightblue" points="279.37,-83.58 272.23,-75.75 272.93,-86.32 279.37,-83.58"/>
</g>
<!-- Node12&#45;&gt;Node10 -->
<g id="edge24" class="edge">
<title>Node12&#45;&gt;Node10</title>
<path fill="none" stroke="midnightblue" d="M343.47,-112.44C402.76,-102.68 499.47,-86.76 561.26,-76.59"/>
<polygon fill="midnightblue" stroke="midnightblue" points="561.94,-80.02 571.24,-74.94 560.81,-73.12 561.94,-80.02"/>
</g>
<!-- Node13&#45;&gt;Node6 -->
<g id="edge27" class="edge">
<title>Node13&#45;&gt;Node6</title>
<path fill="none" stroke="midnightblue" d="M304.13,-173.98C329.92,-163.81 373.21,-146.76 402.54,-135.2"/>
<polygon fill="midnightblue" stroke="midnightblue" points="403.88,-138.43 411.91,-131.51 401.32,-131.92 403.88,-138.43"/>
</g>
</g>
</svg>
