<?xml version="1.0" encoding="UTF-8" standalone="no"?>
<!DOCTYPE svg PUBLIC "-//W3C//DTD SVG 1.1//EN"
 "http://www.w3.org/Graphics/SVG/1.1/DTD/svg11.dtd">
<!-- Generated by graphviz version 2.43.0 (0)
 -->
<!-- Title: on_node_information_update Pages: 1 -->
<svg width="967pt" height="324pt"
 viewBox="0.00 0.00 967.00 324.00" xmlns="http://www.w3.org/2000/svg" xmlns:xlink="http://www.w3.org/1999/xlink">
<g id="graph0" class="graph" transform="scale(1 1) rotate(0) translate(4 320)">
<title>on_node_information_update</title>
<!-- Node1 -->
<g id="node1" class="node">
<title>Node1</title>
<g id="a_node1"><a xlink:title=" ">
<polygon fill="#bfbfbf" stroke="black" points="0,-153.5 0,-183.5 107,-183.5 107,-153.5 0,-153.5"/>
<text text-anchor="start" x="8" y="-171.5" font-family="Helvetica,sans-Serif" font-size="10.00">on_node_information</text>
<text text-anchor="middle" x="53.5" y="-160.5" font-family="Helvetica,sans-Serif" font-size="10.00">_update</text>
</a>
</g>
</g>
<!-- Node2 -->
<g id="node2" class="node">
<title>Node2</title>
<g id="a_node2"><a xlink:href="group__zpc__attribute__store__network__helpers.html#gae4d15b8e0c61c88d94c8f342bd2014fc" target="_top" xlink:title="Take a UNID/endpoint combination and returns its attribute store node.">
<polygon fill="none" stroke="black" points="325,-285.5 325,-315.5 460,-315.5 460,-285.5 325,-285.5"/>
<text text-anchor="start" x="333" y="-303.5" font-family="Helvetica,sans-Serif" font-size="10.00">attribute_store_network</text>
<text text-anchor="middle" x="392.5" y="-292.5" font-family="Helvetica,sans-Serif" font-size="10.00">_helper_get_endpoint_node</text>
</a>
</g>
</g>
<!-- Node1&#45;&gt;Node2 -->
<g id="edge1" class="edge">
<title>Node1&#45;&gt;Node2</title>
<path fill="none" stroke="midnightblue" d="M62.74,-183.74C76.17,-206.9 105.11,-250.38 143,-270.5 195.71,-298.49 263.39,-305.08 314.8,-305.18"/>
<polygon fill="midnightblue" stroke="midnightblue" points="314.88,-308.68 324.86,-305.12 314.84,-301.68 314.88,-308.68"/>
</g>
<!-- Node7 -->
<g id="node7" class="node">
<title>Node7</title>
<g id="a_node7"><a xlink:href="group__zwave__controller__utils.html#gac6028ff4c772ca1a731dffaf4b530e15" target="_top" xlink:title="Pack the given NIF into a uint8_t array.">
<polygon fill="none" stroke="black" points="155,-0.5 155,-30.5 277,-30.5 277,-0.5 155,-0.5"/>
<text text-anchor="start" x="163" y="-18.5" font-family="Helvetica,sans-Serif" font-size="10.00">zwave_command_class</text>
<text text-anchor="middle" x="216" y="-7.5" font-family="Helvetica,sans-Serif" font-size="10.00">_list_pack</text>
</a>
</g>
</g>
<!-- Node1&#45;&gt;Node7 -->
<g id="edge6" class="edge">
<title>Node1&#45;&gt;Node7</title>
<path fill="none" stroke="midnightblue" d="M61.92,-153.18C75.01,-127.62 104.47,-76.09 143,-45.5 147.87,-41.63 153.31,-38.19 158.96,-35.14"/>
<polygon fill="midnightblue" stroke="midnightblue" points="160.57,-38.25 167.96,-30.66 157.45,-31.98 160.57,-38.25"/>
</g>
<!-- Node8 -->
<g id="node8" class="node">
<title>Node8</title>
<g id="a_node8"><a xlink:href="group__zwave__utils.html#gaaa5d4e371acabd40b10dcf27edd993ff" target="_top" xlink:title="Verify whether a node/endpoint supports a Command Class using the attribute Store.">
<polygon fill="none" stroke="black" points="159,-181.5 159,-211.5 273,-211.5 273,-181.5 159,-181.5"/>
<text text-anchor="start" x="167" y="-199.5" font-family="Helvetica,sans-Serif" font-size="10.00">zwave_node_supports</text>
<text text-anchor="middle" x="216" y="-188.5" font-family="Helvetica,sans-Serif" font-size="10.00">_command_class</text>
</a>
</g>
</g>
<!-- Node1&#45;&gt;Node8 -->
<g id="edge7" class="edge">
<title>Node1&#45;&gt;Node8</title>
<path fill="none" stroke="midnightblue" d="M107.05,-177.67C120.37,-179.99 134.84,-182.52 148.74,-184.94"/>
<polygon fill="midnightblue" stroke="midnightblue" points="148.28,-188.41 158.73,-186.68 149.48,-181.52 148.28,-188.41"/>
</g>
<!-- Node10 -->
<g id="node10" class="node">
<title>Node10</title>
<g id="a_node10"><a xlink:href="group__zwave__unid.html#ga421deceb8a12916f049e4f3446774439" target="_top" xlink:title="Form a UNID.">
<polygon fill="none" stroke="black" points="496,-187 496,-206 628,-206 628,-187 496,-187"/>
<text text-anchor="middle" x="562" y="-194" font-family="Helvetica,sans-Serif" font-size="10.00">zwave_unid_from_node_id</text>
</a>
</g>
</g>
<!-- Node1&#45;&gt;Node10 -->
<g id="edge18" class="edge">
<title>Node1&#45;&gt;Node10</title>
<path fill="none" stroke="midnightblue" d="M72.98,-153.48C90.11,-140.36 116.82,-121.83 143,-111.5 274.77,-59.51 331.33,-19.27 460,-78.5 504.5,-98.99 536.71,-149.83 551.66,-177.62"/>
<polygon fill="midnightblue" stroke="midnightblue" points="548.67,-179.45 556.38,-186.72 554.88,-176.23 548.67,-179.45"/>
</g>
<!-- Node11 -->
<g id="node11" class="node">
<title>Node11</title>
<g id="a_node11"><a xlink:href="group__zwave__security__validation.html#ga83d2429dc872b553f71b3ca3d1ff1108" target="_top" xlink:title="Verifies if a the S2 Command Class has disappeared from the NIF, whereas it was reported as supported...">
<polygon fill="none" stroke="black" points="143,-121 143,-162 289,-162 289,-121 143,-121"/>
<text text-anchor="start" x="151" y="-150" font-family="Helvetica,sans-Serif" font-size="10.00">zwave_security_validation</text>
<text text-anchor="start" x="151" y="-139" font-family="Helvetica,sans-Serif" font-size="10.00">_is_s2_nif_downgrade_attack</text>
<text text-anchor="middle" x="216" y="-128" font-family="Helvetica,sans-Serif" font-size="10.00">_detected</text>
</a>
</g>
</g>
<!-- Node1&#45;&gt;Node11 -->
<g id="edge11" class="edge">
<title>Node1&#45;&gt;Node11</title>
<path fill="none" stroke="midnightblue" d="M107.05,-159.66C115.36,-158.26 124.11,-156.79 132.89,-155.31"/>
<polygon fill="midnightblue" stroke="midnightblue" points="133.52,-158.76 142.8,-153.65 132.36,-151.85 133.52,-158.76"/>
</g>
<!-- Node13 -->
<g id="node13" class="node">
<title>Node13</title>
<g id="a_node13"><a xlink:href="group__zwave__utils.html#ga65be55bf46158201858695ec961f5b52" target="_top" xlink:title="Sets a node as S2 capable, meaning that we know it supports S2, and it will forever do.">
<polygon fill="none" stroke="black" points="150,-230.5 150,-260.5 282,-260.5 282,-230.5 150,-230.5"/>
<text text-anchor="start" x="158" y="-248.5" font-family="Helvetica,sans-Serif" font-size="10.00">zwave_security_validation</text>
<text text-anchor="middle" x="216" y="-237.5" font-family="Helvetica,sans-Serif" font-size="10.00">_set_node_as_s2_capable</text>
</a>
</g>
</g>
<!-- Node1&#45;&gt;Node13 -->
<g id="edge14" class="edge">
<title>Node1&#45;&gt;Node13</title>
<path fill="none" stroke="midnightblue" d="M76.68,-183.64C94.14,-195.1 119.4,-210.66 143,-221.5 147.01,-223.34 151.21,-225.12 155.48,-226.81"/>
<polygon fill="midnightblue" stroke="midnightblue" points="154.28,-230.1 164.88,-230.36 156.76,-223.55 154.28,-230.1"/>
</g>
<!-- Node3 -->
<g id="node3" class="node">
<title>Node3</title>
<g id="a_node3"><a xlink:href="group__zpc__attribute__store__network__helpers.html#gafb993ff484b3c826743c4695d6659cf0" target="_top" xlink:title="Take a UNID and return its attribute store node representing the NodeID.">
<polygon fill="none" stroke="black" points="496,-257.5 496,-287.5 628,-287.5 628,-257.5 496,-257.5"/>
<text text-anchor="start" x="504" y="-275.5" font-family="Helvetica,sans-Serif" font-size="10.00">attribute_store_network</text>
<text text-anchor="middle" x="562" y="-264.5" font-family="Helvetica,sans-Serif" font-size="10.00">_helper_get_node_id_node</text>
</a>
</g>
</g>
<!-- Node2&#45;&gt;Node3 -->
<g id="edge2" class="edge">
<title>Node2&#45;&gt;Node3</title>
<path fill="none" stroke="midnightblue" d="M460.18,-289.35C468.64,-287.94 477.34,-286.48 485.92,-285.05"/>
<polygon fill="midnightblue" stroke="midnightblue" points="486.63,-288.48 495.91,-283.38 485.47,-281.58 486.63,-288.48"/>
</g>
<!-- Node4 -->
<g id="node4" class="node">
<title>Node4</title>
<g id="a_node4"><a xlink:href="group__zpc__attribute__store__network__helpers.html#ga05cb572c96f7dc8e6657f86e135fafed" target="_top" xlink:title="Take a UNID and return its attribute store node representing the HomeID.">
<polygon fill="none" stroke="black" points="664,-279.5 664,-309.5 799,-309.5 799,-279.5 664,-279.5"/>
<text text-anchor="start" x="672" y="-297.5" font-family="Helvetica,sans-Serif" font-size="10.00">attribute_store_network</text>
<text text-anchor="middle" x="731.5" y="-286.5" font-family="Helvetica,sans-Serif" font-size="10.00">_helper_get_home_id_node</text>
</a>
</g>
</g>
<!-- Node3&#45;&gt;Node4 -->
<g id="edge3" class="edge">
<title>Node3&#45;&gt;Node4</title>
<path fill="none" stroke="midnightblue" d="M628.24,-281.07C636.62,-282.17 645.27,-283.31 653.82,-284.43"/>
<polygon fill="midnightblue" stroke="midnightblue" points="653.41,-287.9 663.78,-285.74 654.32,-280.96 653.41,-287.9"/>
</g>
<!-- Node6 -->
<g id="node6" class="node">
<title>Node6</title>
<g id="a_node6"><a xlink:href="group__zwave__unid.html#ga76885767debd174e96e6df00b0a368c3" target="_top" xlink:title="Convert a UNID to a node ID.">
<polygon fill="none" stroke="black" points="671,-241 671,-260 792,-260 792,-241 671,-241"/>
<text text-anchor="middle" x="731.5" y="-248" font-family="Helvetica,sans-Serif" font-size="10.00">zwave_unid_to_node_id</text>
</a>
</g>
</g>
<!-- Node3&#45;&gt;Node6 -->
<g id="edge5" class="edge">
<title>Node3&#45;&gt;Node6</title>
<path fill="none" stroke="midnightblue" d="M628.24,-263.93C638.89,-262.53 649.96,-261.08 660.72,-259.67"/>
<polygon fill="midnightblue" stroke="midnightblue" points="661.45,-263.1 670.91,-258.33 660.54,-256.16 661.45,-263.1"/>
</g>
<!-- Node5 -->
<g id="node5" class="node">
<title>Node5</title>
<g id="a_node5"><a xlink:href="group__zwave__unid.html#ga92f9808a08c2ce1c0a6a9dc2debf3580" target="_top" xlink:title="Convert a UNID to a Home ID.">
<polygon fill="none" stroke="black" points="835,-285 835,-304 959,-304 959,-285 835,-285"/>
<text text-anchor="middle" x="897" y="-292" font-family="Helvetica,sans-Serif" font-size="10.00">zwave_unid_to_home_id</text>
</a>
</g>
</g>
<!-- Node4&#45;&gt;Node5 -->
<g id="edge4" class="edge">
<title>Node4&#45;&gt;Node5</title>
<path fill="none" stroke="midnightblue" d="M799,-294.5C807.42,-294.5 816.07,-294.5 824.57,-294.5"/>
<polygon fill="midnightblue" stroke="midnightblue" points="824.83,-298 834.83,-294.5 824.83,-291 824.83,-298"/>
</g>
<!-- Node8&#45;&gt;Node2 -->
<g id="edge8" class="edge">
<title>Node8&#45;&gt;Node2</title>
<path fill="none" stroke="midnightblue" d="M272.78,-211.67C278.54,-214.44 284.08,-217.69 289,-221.5 311.81,-239.15 302.41,-257.56 325,-275.5 327.26,-277.3 329.67,-278.98 332.17,-280.54"/>
<polygon fill="midnightblue" stroke="midnightblue" points="330.56,-283.65 341,-285.44 333.95,-277.53 330.56,-283.65"/>
</g>
<!-- Node9 -->
<g id="node9" class="node">
<title>Node9</title>
<g id="a_node9"><a xlink:href="group__zwave__controller__utils.html#ga4b9cc899709547a170141ba7e0583e16" target="_top" xlink:title="Verifies if a CC is in a raw array of Command Classes.">
<polygon fill="none" stroke="black" points="336,-137.5 336,-167.5 449,-167.5 449,-137.5 336,-137.5"/>
<text text-anchor="start" x="344" y="-155.5" font-family="Helvetica,sans-Serif" font-size="10.00">is_command_class_in</text>
<text text-anchor="middle" x="392.5" y="-144.5" font-family="Helvetica,sans-Serif" font-size="10.00">_supported_list</text>
</a>
</g>
</g>
<!-- Node8&#45;&gt;Node9 -->
<g id="edge9" class="edge">
<title>Node8&#45;&gt;Node9</title>
<path fill="none" stroke="midnightblue" d="M273.17,-182.34C289.91,-178.11 308.41,-173.45 325.71,-169.09"/>
<polygon fill="midnightblue" stroke="midnightblue" points="326.89,-172.4 335.73,-166.56 325.18,-165.61 326.89,-172.4"/>
</g>
<!-- Node8&#45;&gt;Node10 -->
<g id="edge10" class="edge">
<title>Node8&#45;&gt;Node10</title>
<path fill="none" stroke="midnightblue" d="M273.04,-196.5C330.95,-196.5 421.71,-196.5 485.84,-196.5"/>
<polygon fill="midnightblue" stroke="midnightblue" points="485.89,-200 495.89,-196.5 485.89,-193 485.89,-200"/>
</g>
<!-- Node11&#45;&gt;Node9 -->
<g id="edge12" class="edge">
<title>Node11&#45;&gt;Node9</title>
<path fill="none" stroke="midnightblue" d="M289.24,-146.05C301.27,-146.81 313.7,-147.6 325.58,-148.34"/>
<polygon fill="midnightblue" stroke="midnightblue" points="325.64,-151.86 335.84,-148.99 326.08,-144.87 325.64,-151.86"/>
</g>
<!-- Node12 -->
<g id="node12" class="node">
<title>Node12</title>
<g id="a_node12"><a xlink:href="group__zwave__controller__storage.html#ga893570dd5418a9662eb5af8478580e6f" target="_top" xlink:title="Verify if the registered node is supporting S2.">
<polygon fill="none" stroke="black" points="328.5,-88.5 328.5,-118.5 456.5,-118.5 456.5,-88.5 328.5,-88.5"/>
<text text-anchor="start" x="336.5" y="-106.5" font-family="Helvetica,sans-Serif" font-size="10.00">zwave_controller_storage</text>
<text text-anchor="middle" x="392.5" y="-95.5" font-family="Helvetica,sans-Serif" font-size="10.00">_is_node_s2_capable</text>
</a>
</g>
</g>
<!-- Node11&#45;&gt;Node12 -->
<g id="edge13" class="edge">
<title>Node11&#45;&gt;Node12</title>
<path fill="none" stroke="midnightblue" d="M289.24,-125.77C298.84,-123.68 308.69,-121.53 318.31,-119.44"/>
<polygon fill="midnightblue" stroke="midnightblue" points="319.2,-122.83 328.23,-117.28 317.71,-115.99 319.2,-122.83"/>
</g>
<!-- Node14 -->
<g id="node14" class="node">
<title>Node14</title>
<g id="a_node14"><a xlink:href="group__zpc__attribute__store__network__helpers.html#ga7a3f40a9cbc90f2674b9e9e454fd6207" target="_top" xlink:title="Take a Z&#45;Wave NodeID and return its Attribute Store node representing the NodeID.">
<polygon fill="none" stroke="black" points="329,-225 329,-266 456,-266 456,-225 329,-225"/>
<text text-anchor="start" x="337" y="-254" font-family="Helvetica,sans-Serif" font-size="10.00">attribute_store_network</text>
<text text-anchor="start" x="337" y="-243" font-family="Helvetica,sans-Serif" font-size="10.00">_helper_get_zwave_node</text>
<text text-anchor="middle" x="392.5" y="-232" font-family="Helvetica,sans-Serif" font-size="10.00">_id_node</text>
</a>
</g>
</g>
<!-- Node13&#45;&gt;Node14 -->
<g id="edge15" class="edge">
<title>Node13&#45;&gt;Node14</title>
<path fill="none" stroke="midnightblue" d="M282.47,-245.5C294.34,-245.5 306.77,-245.5 318.83,-245.5"/>
<polygon fill="midnightblue" stroke="midnightblue" points="318.84,-249 328.84,-245.5 318.84,-242 318.84,-249"/>
</g>
<!-- Node14&#45;&gt;Node3 -->
<g id="edge16" class="edge">
<title>Node14&#45;&gt;Node3</title>
<path fill="none" stroke="midnightblue" d="M456.35,-255.63C465.92,-257.17 475.89,-258.78 485.7,-260.36"/>
<polygon fill="midnightblue" stroke="midnightblue" points="485.41,-263.86 495.84,-262 486.53,-256.95 485.41,-263.86"/>
</g>
<!-- Node14&#45;&gt;Node10 -->
<g id="edge17" class="edge">
<title>Node14&#45;&gt;Node10</title>
<path fill="none" stroke="midnightblue" d="M456.35,-227.11C477.12,-221.04 499.73,-214.42 518.6,-208.9"/>
<polygon fill="midnightblue" stroke="midnightblue" points="519.76,-212.21 528.38,-206.04 517.79,-205.49 519.76,-212.21"/>
</g>
</g>
</svg>
