<?xml version="1.0" encoding="UTF-8" standalone="no"?>
<!DOCTYPE svg PUBLIC "-//W3C//DTD SVG 1.1//EN"
 "http://www.w3.org/Graphics/SVG/1.1/DTD/svg11.dtd">
<!-- Generated by graphviz version 2.43.0 (0)
 -->
<!-- Title: zwave_command_class_configuration_properties_get Pages: 1 -->
<svg width="510pt" height="105pt"
 viewBox="0.00 0.00 510.00 104.50" xmlns="http://www.w3.org/2000/svg" xmlns:xlink="http://www.w3.org/1999/xlink">
<g id="graph0" class="graph" transform="scale(1 1) rotate(0) translate(4 100.5)">
<title>zwave_command_class_configuration_properties_get</title>
<!-- Node1 -->
<g id="node1" class="node">
<title>Node1</title>
<g id="a_node1"><a xlink:title="Generates a Configuration Properties Get or fills up data automatically if the command is not support...">
<polygon fill="#bfbfbf" stroke="black" points="0,-24.5 0,-54.5 144,-54.5 144,-24.5 0,-24.5"/>
<text text-anchor="start" x="8" y="-42.5" font-family="Helvetica,sans-Serif" font-size="10.00">zwave_command_class</text>
<text text-anchor="middle" x="72" y="-31.5" font-family="Helvetica,sans-Serif" font-size="10.00">_configuration_properties_get</text>
</a>
</g>
</g>
<!-- Node2 -->
<g id="node2" class="node">
<title>Node2</title>
<g id="a_node2"><a xlink:href="zwave__command__class__configuration__control_8c.html#a1223d03c608c7bb10a384acefb70f507" target="_top" xlink:title="Sets the default parameters properties for a parameter in case a node does not support Properties Get...">
<polygon fill="none" stroke="black" points="185,-49.5 185,-79.5 298,-79.5 298,-49.5 185,-49.5"/>
<text text-anchor="start" x="193" y="-67.5" font-family="Helvetica,sans-Serif" font-size="10.00">set_default_parameter</text>
<text text-anchor="middle" x="241.5" y="-56.5" font-family="Helvetica,sans-Serif" font-size="10.00">_properties</text>
</a>
</g>
</g>
<!-- Node1&#45;&gt;Node2 -->
<g id="edge1" class="edge">
<title>Node1&#45;&gt;Node2</title>
<path fill="none" stroke="midnightblue" d="M144.04,-50.1C154.27,-51.63 164.76,-53.2 174.88,-54.71"/>
<polygon fill="midnightblue" stroke="midnightblue" points="174.44,-58.18 184.85,-56.19 175.48,-51.26 174.44,-58.18"/>
</g>
<!-- Node5 -->
<g id="node5" class="node">
<title>Node5</title>
<g id="a_node5"><a xlink:href="group__command__classes__utils.html#ga0d2a21af7db2d395401331ec806b1bd3" target="_top" xlink:title="Find the version of the command class by navigating up to the endpoint from a given attribute store n...">
<polygon fill="none" stroke="black" points="180,-0.5 180,-30.5 303,-30.5 303,-0.5 180,-0.5"/>
<text text-anchor="start" x="188" y="-18.5" font-family="Helvetica,sans-Serif" font-size="10.00">zwave_command_class</text>
<text text-anchor="middle" x="241.5" y="-7.5" font-family="Helvetica,sans-Serif" font-size="10.00">_get_version_from_node</text>
</a>
</g>
</g>
<!-- Node1&#45;&gt;Node5 -->
<g id="edge4" class="edge">
<title>Node1&#45;&gt;Node5</title>
<path fill="none" stroke="midnightblue" d="M144.04,-29.32C152.62,-28.09 161.39,-26.83 169.97,-25.61"/>
<polygon fill="midnightblue" stroke="midnightblue" points="170.53,-29.06 179.94,-24.18 169.54,-22.13 170.53,-29.06"/>
</g>
<!-- Node3 -->
<g id="node3" class="node">
<title>Node3</title>
<g id="a_node3"><a xlink:href="zwave__command__class__configuration__control_8c.html#ad053137c859692d75d92873d5847f276" target="_top" xlink:title="Get the configuration parameter size for a given parameter id.">
<polygon fill="none" stroke="black" points="339,-77 339,-96 502,-96 502,-77 339,-77"/>
<text text-anchor="middle" x="420.5" y="-84" font-family="Helvetica,sans-Serif" font-size="10.00">get_configuration_parameter_size</text>
</a>
</g>
</g>
<!-- Node2&#45;&gt;Node3 -->
<g id="edge2" class="edge">
<title>Node2&#45;&gt;Node3</title>
<path fill="none" stroke="midnightblue" d="M298.02,-71.4C309.11,-72.78 321,-74.26 332.85,-75.73"/>
<polygon fill="midnightblue" stroke="midnightblue" points="332.42,-79.2 342.78,-76.96 333.29,-72.26 332.42,-79.2"/>
</g>
<!-- Node4 -->
<g id="node4" class="node">
<title>Node4</title>
<g id="a_node4"><a xlink:href="zwave__command__class__configuration__control_8c.html#af5d4e7a6599363c98f44ec7d97b0e67e" target="_top" xlink:title="Get the configuration parameter value for a given parameter id.">
<polygon fill="none" stroke="black" points="350.5,-27.5 350.5,-57.5 490.5,-57.5 490.5,-27.5 350.5,-27.5"/>
<text text-anchor="start" x="358.5" y="-45.5" font-family="Helvetica,sans-Serif" font-size="10.00">get_configuration_parameter</text>
<text text-anchor="middle" x="420.5" y="-34.5" font-family="Helvetica,sans-Serif" font-size="10.00">_value</text>
</a>
</g>
</g>
<!-- Node2&#45;&gt;Node4 -->
<g id="edge3" class="edge">
<title>Node2&#45;&gt;Node4</title>
<path fill="none" stroke="midnightblue" d="M298.02,-57.6C311.4,-55.94 325.95,-54.13 340.18,-52.36"/>
<polygon fill="midnightblue" stroke="midnightblue" points="340.98,-55.79 350.47,-51.08 340.11,-48.84 340.98,-55.79"/>
</g>
</g>
</svg>
