<?xml version="1.0" encoding="UTF-8" standalone="no"?>
<!DOCTYPE svg PUBLIC "-//W3C//DTD SVG 1.1//EN"
 "http://www.w3.org/Graphics/SVG/1.1/DTD/svg11.dtd">
<!-- Generated by graphviz version 2.43.0 (0)
 -->
<!-- Title: applications/zpc/components/zwave/zwave_network_management/src/zwave_network_management_fixt.c Pages: 1 -->
<svg width="1492pt" height="486pt"
 viewBox="0.00 0.00 1491.50 486.00" xmlns="http://www.w3.org/2000/svg" xmlns:xlink="http://www.w3.org/1999/xlink">
<g id="graph0" class="graph" transform="scale(1 1) rotate(0) translate(4 482)">
<title>applications/zpc/components/zwave/zwave_network_management/src/zwave_network_management_fixt.c</title>
<!-- Node1 -->
<g id="node1" class="node">
<title>Node1</title>
<g id="a_node1"><a xlink:title=" ">
<polygon fill="#bfbfbf" stroke="black" points="400.5,-436.5 400.5,-477.5 593.5,-477.5 593.5,-436.5 400.5,-436.5"/>
<text text-anchor="start" x="408.5" y="-465.5" font-family="Helvetica,sans-Serif" font-size="10.00">applications/zpc/components</text>
<text text-anchor="start" x="408.5" y="-454.5" font-family="Helvetica,sans-Serif" font-size="10.00">/zwave/zwave_network_management</text>
<text text-anchor="middle" x="497" y="-443.5" font-family="Helvetica,sans-Serif" font-size="10.00">/src/zwave_network_management_fixt.c</text>
</a>
</g>
</g>
<!-- Node2 -->
<g id="node2" class="node">
<title>Node2</title>
<g id="a_node2"><a xlink:href="zwave__network__management__fixt_8h.html" target="_top" xlink:title=" ">
<polygon fill="none" stroke="black" points="164,-235.5 164,-265.5 310,-265.5 310,-235.5 164,-235.5"/>
<text text-anchor="start" x="172" y="-253.5" font-family="Helvetica,sans-Serif" font-size="10.00">zwave_network_management</text>
<text text-anchor="middle" x="237" y="-242.5" font-family="Helvetica,sans-Serif" font-size="10.00">_fixt.h</text>
</a>
</g>
</g>
<!-- Node1&#45;&gt;Node2 -->
<g id="edge1" class="edge">
<title>Node1&#45;&gt;Node2</title>
<path fill="none" stroke="midnightblue" d="M400.15,-438.07C373.48,-429.73 345.9,-417.6 324,-400 282.6,-366.73 256.74,-308.06 244.81,-275.31"/>
<polygon fill="midnightblue" stroke="midnightblue" points="248.03,-273.93 241.42,-265.65 241.43,-276.25 248.03,-273.93"/>
</g>
<!-- Node4 -->
<g id="node4" class="node">
<title>Node4</title>
<g id="a_node4"><a xlink:href="sl__status_8h.html" target="_top" xlink:title="SL Status Codes.">
<polygon fill="none" stroke="black" points="396.5,-174 396.5,-193 461.5,-193 461.5,-174 396.5,-174"/>
<text text-anchor="middle" x="429" y="-181" font-family="Helvetica,sans-Serif" font-size="10.00">sl_status.h</text>
</a>
</g>
</g>
<!-- Node1&#45;&gt;Node4 -->
<g id="edge50" class="edge">
<title>Node1&#45;&gt;Node4</title>
<path fill="none" stroke="midnightblue" d="M403.59,-436.47C385.25,-428.26 368.23,-416.58 357,-400 312.57,-334.38 382.21,-239.04 414.25,-201.04"/>
<polygon fill="midnightblue" stroke="midnightblue" points="417.27,-202.9 421.15,-193.05 411.97,-198.32 417.27,-202.9"/>
</g>
<!-- Node6 -->
<g id="node6" class="node">
<title>Node6</title>
<g id="a_node6"><a xlink:href="nm__state__machine_8h.html" target="_top" xlink:title=" ">
<polygon fill="none" stroke="black" points="697.5,-375 697.5,-394 804.5,-394 804.5,-375 697.5,-375"/>
<text text-anchor="middle" x="751" y="-382" font-family="Helvetica,sans-Serif" font-size="10.00">nm_state_machine.h</text>
</a>
</g>
</g>
<!-- Node1&#45;&gt;Node6 -->
<g id="edge5" class="edge">
<title>Node1&#45;&gt;Node6</title>
<path fill="none" stroke="midnightblue" d="M567.42,-436.46C613.51,-423.66 672.1,-407.4 710.53,-396.73"/>
<polygon fill="midnightblue" stroke="midnightblue" points="711.63,-400.06 720.33,-394.01 709.76,-393.32 711.63,-400.06"/>
</g>
<!-- Node16 -->
<g id="node16" class="node">
<title>Node16</title>
<g id="a_node16"><a xlink:href="zwave__network__management__process_8h.html" target="_top" xlink:title="Interface to zwave_network_management_process.">
<polygon fill="none" stroke="black" points="1205,-302.5 1205,-332.5 1351,-332.5 1351,-302.5 1205,-302.5"/>
<text text-anchor="start" x="1213" y="-320.5" font-family="Helvetica,sans-Serif" font-size="10.00">zwave_network_management</text>
<text text-anchor="middle" x="1278" y="-309.5" font-family="Helvetica,sans-Serif" font-size="10.00">_process.h</text>
</a>
</g>
</g>
<!-- Node1&#45;&gt;Node16 -->
<g id="edge42" class="edge">
<title>Node1&#45;&gt;Node16</title>
<path fill="none" stroke="midnightblue" d="M593.78,-444.01C673.5,-433.69 789.38,-417.72 890,-400 1001.42,-380.38 1129.72,-352.36 1207.28,-334.81"/>
<polygon fill="midnightblue" stroke="midnightblue" points="1208.44,-338.14 1217.42,-332.51 1206.89,-331.31 1208.44,-338.14"/>
</g>
<!-- Node21 -->
<g id="node21" class="node">
<title>Node21</title>
<g id="a_node21"><a xlink:href="zwave__network__management__return__route__queue_8h.html" target="_top" xlink:title=" ">
<polygon fill="none" stroke="black" points="0,-235.5 0,-265.5 146,-265.5 146,-235.5 0,-235.5"/>
<text text-anchor="start" x="8" y="-253.5" font-family="Helvetica,sans-Serif" font-size="10.00">zwave_network_management</text>
<text text-anchor="middle" x="73" y="-242.5" font-family="Helvetica,sans-Serif" font-size="10.00">_return_route_queue.h</text>
</a>
</g>
</g>
<!-- Node1&#45;&gt;Node21 -->
<g id="edge43" class="edge">
<title>Node1&#45;&gt;Node21</title>
<path fill="none" stroke="midnightblue" d="M400.79,-436.44C365.95,-427.59 326.87,-415.57 293,-400 216.51,-364.84 137.16,-304.24 97.98,-272.41"/>
<polygon fill="midnightblue" stroke="midnightblue" points="99.75,-269.34 89.8,-265.71 95.31,-274.75 99.75,-269.34"/>
</g>
<!-- Node23 -->
<g id="node23" class="node">
<title>Node23</title>
<g id="a_node23"><a xlink:href="zwave__network__management__callbacks_8h.html" target="_top" xlink:title=" ">
<polygon fill="none" stroke="black" points="498,-369.5 498,-399.5 644,-399.5 644,-369.5 498,-369.5"/>
<text text-anchor="start" x="506" y="-387.5" font-family="Helvetica,sans-Serif" font-size="10.00">zwave_network_management</text>
<text text-anchor="middle" x="571" y="-376.5" font-family="Helvetica,sans-Serif" font-size="10.00">_callbacks.h</text>
</a>
</g>
</g>
<!-- Node1&#45;&gt;Node23 -->
<g id="edge48" class="edge">
<title>Node1&#45;&gt;Node23</title>
<path fill="none" stroke="midnightblue" d="M517.61,-436.36C527.2,-427.23 538.62,-416.35 548.43,-407"/>
<polygon fill="midnightblue" stroke="midnightblue" points="551.07,-409.32 555.89,-399.89 546.24,-404.26 551.07,-409.32"/>
</g>
<!-- Node24 -->
<g id="node24" class="node">
<title>Node24</title>
<g id="a_node24"><a xlink:href="zwave__controller__callbacks_8h.html" target="_top" xlink:title=" ">
<polygon fill="none" stroke="black" points="1041.5,-308 1041.5,-327 1186.5,-327 1186.5,-308 1041.5,-308"/>
<text text-anchor="middle" x="1114" y="-315" font-family="Helvetica,sans-Serif" font-size="10.00">zwave_controller_callbacks.h</text>
</a>
</g>
</g>
<!-- Node1&#45;&gt;Node24 -->
<g id="edge51" class="edge">
<title>Node1&#45;&gt;Node24</title>
<path fill="none" stroke="midnightblue" d="M593.52,-441.28C656.56,-431.09 740.51,-416.44 814,-400 909.15,-378.72 1019.4,-346.89 1076.06,-329.99"/>
<polygon fill="midnightblue" stroke="midnightblue" points="1077.1,-333.34 1085.67,-327.12 1075.09,-326.63 1077.1,-333.34"/>
</g>
<!-- Node26 -->
<g id="node26" class="node">
<title>Node26</title>
<g id="a_node26"><a xlink:href="zwave__rx__callbacks_8h.html" target="_top" xlink:title=" ">
<polygon fill="none" stroke="black" points="366.5,-375 366.5,-394 479.5,-394 479.5,-375 366.5,-375"/>
<text text-anchor="middle" x="423" y="-382" font-family="Helvetica,sans-Serif" font-size="10.00">zwave_rx_callbacks.h</text>
</a>
</g>
</g>
<!-- Node1&#45;&gt;Node26 -->
<g id="edge58" class="edge">
<title>Node1&#45;&gt;Node26</title>
<path fill="none" stroke="midnightblue" d="M476.39,-436.36C464.8,-425.32 450.53,-411.72 439.65,-401.37"/>
<polygon fill="midnightblue" stroke="midnightblue" points="441.76,-398.54 432.1,-394.17 436.93,-403.61 441.76,-398.54"/>
</g>
<!-- Node3 -->
<g id="node3" class="node">
<title>Node3</title>
<g id="a_node3"><a xlink:title=" ">
<polygon fill="none" stroke="#bfbfbf" points="519,-0.5 519,-19.5 575,-19.5 575,-0.5 519,-0.5"/>
<text text-anchor="middle" x="547" y="-7.5" font-family="Helvetica,sans-Serif" font-size="10.00">stdbool.h</text>
</a>
</g>
</g>
<!-- Node2&#45;&gt;Node3 -->
<g id="edge2" class="edge">
<title>Node2&#45;&gt;Node3</title>
<path fill="none" stroke="midnightblue" d="M248.27,-235.48C276.76,-200.84 355.29,-110.07 438,-56 459.99,-41.62 487.33,-30.35 509.13,-22.68"/>
<polygon fill="midnightblue" stroke="midnightblue" points="510.38,-25.96 518.71,-19.42 508.12,-19.33 510.38,-25.96"/>
</g>
<!-- Node2&#45;&gt;Node4 -->
<g id="edge3" class="edge">
<title>Node2&#45;&gt;Node4</title>
<path fill="none" stroke="midnightblue" d="M278.66,-235.4C313.24,-223.69 361.86,-207.23 394.34,-196.23"/>
<polygon fill="midnightblue" stroke="midnightblue" points="395.52,-199.53 403.87,-193.01 393.28,-192.9 395.52,-199.53"/>
</g>
<!-- Node5 -->
<g id="node5" class="node">
<title>Node5</title>
<g id="a_node5"><a xlink:title=" ">
<polygon fill="none" stroke="#bfbfbf" points="891.5,-0.5 891.5,-19.5 940.5,-19.5 940.5,-0.5 891.5,-0.5"/>
<text text-anchor="middle" x="916" y="-7.5" font-family="Helvetica,sans-Serif" font-size="10.00">stdint.h</text>
</a>
</g>
</g>
<!-- Node4&#45;&gt;Node5 -->
<g id="edge4" class="edge">
<title>Node4&#45;&gt;Node5</title>
<path fill="none" stroke="midnightblue" d="M443.23,-173.95C465.96,-160.38 512.01,-133.26 552,-112 601.85,-85.51 612.37,-73.62 666,-56 740.56,-31.51 832.25,-19.33 881.24,-14.17"/>
<polygon fill="midnightblue" stroke="midnightblue" points="881.72,-17.64 891.31,-13.15 881.01,-10.68 881.72,-17.64"/>
</g>
<!-- Node6&#45;&gt;Node4 -->
<g id="edge41" class="edge">
<title>Node6&#45;&gt;Node4</title>
<path fill="none" stroke="midnightblue" d="M697.34,-375.32C626.53,-364.17 508.86,-344.31 492,-333 447.9,-303.4 434.57,-236.16 430.62,-203.3"/>
<polygon fill="midnightblue" stroke="midnightblue" points="434.08,-202.81 429.57,-193.22 427.12,-203.53 434.08,-202.81"/>
</g>
<!-- Node7 -->
<g id="node7" class="node">
<title>Node7</title>
<g id="a_node7"><a xlink:href="zwave__network__management__types_8h.html" target="_top" xlink:title=" ">
<polygon fill="none" stroke="black" points="784,-235.5 784,-265.5 930,-265.5 930,-235.5 784,-235.5"/>
<text text-anchor="start" x="792" y="-253.5" font-family="Helvetica,sans-Serif" font-size="10.00">zwave_network_management</text>
<text text-anchor="middle" x="857" y="-242.5" font-family="Helvetica,sans-Serif" font-size="10.00">_types.h</text>
</a>
</g>
</g>
<!-- Node6&#45;&gt;Node7 -->
<g id="edge6" class="edge">
<title>Node6&#45;&gt;Node7</title>
<path fill="none" stroke="midnightblue" d="M750.99,-374.97C751.39,-359.06 754.29,-324.43 771,-302 781.02,-288.55 795.78,-278.04 810.25,-270.18"/>
<polygon fill="midnightblue" stroke="midnightblue" points="811.86,-273.29 819.17,-265.63 808.68,-267.06 811.86,-273.29"/>
</g>
<!-- Node8 -->
<g id="node8" class="node">
<title>Node8</title>
<g id="a_node8"><a xlink:href="zwave__network__management_8h.html" target="_top" xlink:title=" ">
<polygon fill="none" stroke="black" points="779.5,-308 779.5,-327 934.5,-327 934.5,-308 779.5,-308"/>
<text text-anchor="middle" x="857" y="-315" font-family="Helvetica,sans-Serif" font-size="10.00">zwave_network_management.h</text>
</a>
</g>
</g>
<!-- Node6&#45;&gt;Node8 -->
<g id="edge9" class="edge">
<title>Node6&#45;&gt;Node8</title>
<path fill="none" stroke="midnightblue" d="M765.3,-374.73C783.02,-363.87 813.43,-345.22 834.34,-332.39"/>
<polygon fill="midnightblue" stroke="midnightblue" points="836.24,-335.34 842.93,-327.13 832.58,-329.37 836.24,-335.34"/>
</g>
<!-- Node6&#45;&gt;Node16 -->
<g id="edge29" class="edge">
<title>Node6&#45;&gt;Node16</title>
<path fill="none" stroke="midnightblue" d="M804.57,-378.5C886.42,-370.63 1047.73,-354.18 1194.62,-333.15"/>
<polygon fill="midnightblue" stroke="midnightblue" points="1195.32,-336.58 1204.72,-331.69 1194.32,-329.65 1195.32,-336.58"/>
</g>
<!-- Node18 -->
<g id="node18" class="node">
<title>Node18</title>
<g id="a_node18"><a xlink:href="zwapi__protocol__controller_8h.html" target="_top" xlink:title="Z&#45;Wave API for Z&#45;Wave controllers (network setup and maintenance)">
<polygon fill="none" stroke="black" points="501,-308 501,-327 635,-327 635,-308 501,-308"/>
<text text-anchor="middle" x="568" y="-315" font-family="Helvetica,sans-Serif" font-size="10.00">zwapi_protocol_controller.h</text>
</a>
</g>
</g>
<!-- Node6&#45;&gt;Node18 -->
<g id="edge31" class="edge">
<title>Node6&#45;&gt;Node18</title>
<path fill="none" stroke="midnightblue" d="M726.7,-374.87C694.62,-363.47 637.97,-343.35 601.75,-330.49"/>
<polygon fill="midnightblue" stroke="midnightblue" points="602.7,-327.11 592.11,-327.06 600.36,-333.71 602.7,-327.11"/>
</g>
<!-- Node20 -->
<g id="node20" class="node">
<title>Node20</title>
<g id="a_node20"><a xlink:title=" ">
<polygon fill="none" stroke="#bfbfbf" points="953,-308 953,-327 1023,-327 1023,-308 953,-308"/>
<text text-anchor="middle" x="988" y="-315" font-family="Helvetica,sans-Serif" font-size="10.00">sys/etimer.h</text>
</a>
</g>
</g>
<!-- Node6&#45;&gt;Node20 -->
<g id="edge40" class="edge">
<title>Node6&#45;&gt;Node20</title>
<path fill="none" stroke="midnightblue" d="M786.4,-374.94C825.25,-365.39 889.36,-349.14 944,-333 946.99,-332.12 950.08,-331.17 953.18,-330.2"/>
<polygon fill="midnightblue" stroke="midnightblue" points="954.51,-333.45 962.96,-327.05 952.36,-326.78 954.51,-333.45"/>
</g>
<!-- Node7&#45;&gt;Node3 -->
<g id="edge7" class="edge">
<title>Node7&#45;&gt;Node3</title>
<path fill="none" stroke="midnightblue" d="M838.54,-235.29C783.73,-193.13 622.3,-68.93 566.35,-25.89"/>
<polygon fill="midnightblue" stroke="midnightblue" points="568.37,-23.03 558.31,-19.7 564.1,-28.57 568.37,-23.03"/>
</g>
<!-- Node7&#45;&gt;Node5 -->
<g id="edge8" class="edge">
<title>Node7&#45;&gt;Node5</title>
<path fill="none" stroke="midnightblue" d="M860.51,-235.29C870.64,-194.35 899.91,-76.05 911.34,-29.83"/>
<polygon fill="midnightblue" stroke="midnightblue" points="914.78,-30.49 913.79,-19.95 907.99,-28.81 914.78,-30.49"/>
</g>
<!-- Node8&#45;&gt;Node3 -->
<g id="edge11" class="edge">
<title>Node8&#45;&gt;Node3</title>
<path fill="none" stroke="midnightblue" d="M840.04,-307.93C822.76,-298.79 795.65,-283.27 775,-266 681.63,-187.92 591.62,-71.41 559.44,-28.06"/>
<polygon fill="midnightblue" stroke="midnightblue" points="562.06,-25.71 553.31,-19.74 556.43,-29.86 562.06,-25.71"/>
</g>
<!-- Node8&#45;&gt;Node4 -->
<g id="edge28" class="edge">
<title>Node8&#45;&gt;Node4</title>
<path fill="none" stroke="midnightblue" d="M779.22,-308.31C723.95,-300.99 648.56,-287.95 585,-266 534.44,-248.54 480.08,-216.85 450.76,-198.55"/>
<polygon fill="midnightblue" stroke="midnightblue" points="452.48,-195.5 442.16,-193.12 448.74,-201.42 452.48,-195.5"/>
</g>
<!-- Node8&#45;&gt;Node5 -->
<g id="edge10" class="edge">
<title>Node8&#45;&gt;Node5</title>
<path fill="none" stroke="midnightblue" d="M884.01,-307.87C903.12,-300.18 927.34,-286.87 939,-266 983.06,-187.13 942.66,-72.76 924.14,-28.98"/>
<polygon fill="midnightblue" stroke="midnightblue" points="927.28,-27.41 920.07,-19.64 920.86,-30.21 927.28,-27.41"/>
</g>
<!-- Node8&#45;&gt;Node7 -->
<g id="edge22" class="edge">
<title>Node8&#45;&gt;Node7</title>
<path fill="none" stroke="midnightblue" d="M857,-307.73C857,-299.54 857,-286.92 857,-275.71"/>
<polygon fill="midnightblue" stroke="midnightblue" points="860.5,-275.59 857,-265.59 853.5,-275.59 860.5,-275.59"/>
</g>
<!-- Node9 -->
<g id="node9" class="node">
<title>Node9</title>
<g id="a_node9"><a xlink:href="zwave__controller__types_8h.html" target="_top" xlink:title=" ">
<polygon fill="none" stroke="black" points="982,-112.5 982,-131.5 1110,-131.5 1110,-112.5 982,-112.5"/>
<text text-anchor="middle" x="1046" y="-119.5" font-family="Helvetica,sans-Serif" font-size="10.00">zwave_controller_types.h</text>
</a>
</g>
</g>
<!-- Node8&#45;&gt;Node9 -->
<g id="edge12" class="edge">
<title>Node8&#45;&gt;Node9</title>
<path fill="none" stroke="midnightblue" d="M892.34,-307.97C917.18,-300.44 949.81,-287.28 972,-266 1007,-232.43 997.19,-210.8 1020,-168 1024.94,-158.73 1030.77,-148.58 1035.65,-140.27"/>
<polygon fill="midnightblue" stroke="midnightblue" points="1038.75,-141.91 1040.84,-131.53 1032.73,-138.34 1038.75,-141.91"/>
</g>
<!-- Node11 -->
<g id="node11" class="node">
<title>Node11</title>
<g id="a_node11"><a xlink:href="zwave__generic__types_8h.html" target="_top" xlink:title=" ">
<polygon fill="none" stroke="black" points="1172.5,-56.5 1172.5,-75.5 1291.5,-75.5 1291.5,-56.5 1172.5,-56.5"/>
<text text-anchor="middle" x="1232" y="-63.5" font-family="Helvetica,sans-Serif" font-size="10.00">zwave_generic_types.h</text>
</a>
</g>
</g>
<!-- Node8&#45;&gt;Node11 -->
<g id="edge21" class="edge">
<title>Node8&#45;&gt;Node11</title>
<path fill="none" stroke="midnightblue" d="M904.62,-307.97C933.85,-300.78 970.61,-288.01 997,-266 1035.7,-233.73 1018,-203.25 1054,-168 1077.6,-144.9 1090.24,-148.23 1119,-132 1150.01,-114.5 1185.58,-93.96 1208.4,-80.73"/>
<polygon fill="midnightblue" stroke="midnightblue" points="1210.16,-83.75 1217.06,-75.7 1206.65,-77.69 1210.16,-83.75"/>
</g>
<!-- Node13 -->
<g id="node13" class="node">
<title>Node13</title>
<g id="a_node13"><a xlink:href="zwave__controller__keyset_8h.html" target="_top" xlink:title=" ">
<polygon fill="none" stroke="black" points="1062.5,-241 1062.5,-260 1195.5,-260 1195.5,-241 1062.5,-241"/>
<text text-anchor="middle" x="1129" y="-248" font-family="Helvetica,sans-Serif" font-size="10.00">zwave_controller_keyset.h</text>
</a>
</g>
</g>
<!-- Node8&#45;&gt;Node13 -->
<g id="edge23" class="edge">
<title>Node8&#45;&gt;Node13</title>
<path fill="none" stroke="midnightblue" d="M892.84,-307.94C941.76,-296.24 1029.49,-275.28 1083.15,-262.46"/>
<polygon fill="midnightblue" stroke="midnightblue" points="1084.17,-265.81 1093.08,-260.08 1082.54,-259 1084.17,-265.81"/>
</g>
<!-- Node9&#45;&gt;Node3 -->
<g id="edge13" class="edge">
<title>Node9&#45;&gt;Node3</title>
<path fill="none" stroke="midnightblue" d="M1058.42,-112.33C1075.78,-99.18 1103.44,-73.87 1087,-56 1053.14,-19.2 703.05,-12.49 585.36,-11.27"/>
<polygon fill="midnightblue" stroke="midnightblue" points="585.06,-7.77 575.03,-11.17 585,-14.77 585.06,-7.77"/>
</g>
<!-- Node9&#45;&gt;Node5 -->
<g id="edge14" class="edge">
<title>Node9&#45;&gt;Node5</title>
<path fill="none" stroke="midnightblue" d="M1069.65,-112.4C1097.75,-100.89 1138.64,-79.19 1120,-56 1099.17,-30.08 1003.52,-18.2 950.92,-13.55"/>
<polygon fill="midnightblue" stroke="midnightblue" points="950.96,-10.04 940.7,-12.69 950.37,-17.02 950.96,-10.04"/>
</g>
<!-- Node10 -->
<g id="node10" class="node">
<title>Node10</title>
<g id="a_node10"><a xlink:href="zwave__node__id__definitions_8h.html" target="_top" xlink:title=" ">
<polygon fill="none" stroke="black" points="746,-56.5 746,-75.5 888,-75.5 888,-56.5 746,-56.5"/>
<text text-anchor="middle" x="817" y="-63.5" font-family="Helvetica,sans-Serif" font-size="10.00">zwave_node_id_definitions.h</text>
</a>
</g>
</g>
<!-- Node9&#45;&gt;Node10 -->
<g id="edge15" class="edge">
<title>Node9&#45;&gt;Node10</title>
<path fill="none" stroke="midnightblue" d="M1009.71,-112.44C970.02,-103.08 906.29,-88.06 863.09,-77.87"/>
<polygon fill="midnightblue" stroke="midnightblue" points="863.65,-74.41 853.12,-75.52 862.05,-81.22 863.65,-74.41"/>
</g>
<!-- Node9&#45;&gt;Node11 -->
<g id="edge17" class="edge">
<title>Node9&#45;&gt;Node11</title>
<path fill="none" stroke="midnightblue" d="M1075.47,-112.44C1107.17,-103.24 1157.73,-88.56 1192.77,-78.39"/>
<polygon fill="midnightblue" stroke="midnightblue" points="1194.04,-81.67 1202.67,-75.52 1192.09,-74.94 1194.04,-81.67"/>
</g>
<!-- Node12 -->
<g id="node12" class="node">
<title>Node12</title>
<g id="a_node12"><a xlink:href="zwave__rf__region_8h.html" target="_top" xlink:title=" ">
<polygon fill="none" stroke="black" points="982,-56.5 982,-75.5 1078,-75.5 1078,-56.5 982,-56.5"/>
<text text-anchor="middle" x="1030" y="-63.5" font-family="Helvetica,sans-Serif" font-size="10.00">zwave_rf_region.h</text>
</a>
</g>
</g>
<!-- Node9&#45;&gt;Node12 -->
<g id="edge19" class="edge">
<title>Node9&#45;&gt;Node12</title>
<path fill="none" stroke="midnightblue" d="M1043.36,-112.08C1041.21,-104.85 1038.12,-94.41 1035.45,-85.4"/>
<polygon fill="midnightblue" stroke="midnightblue" points="1038.79,-84.34 1032.59,-75.75 1032.08,-86.33 1038.79,-84.34"/>
</g>
<!-- Node10&#45;&gt;Node5 -->
<g id="edge16" class="edge">
<title>Node10&#45;&gt;Node5</title>
<path fill="none" stroke="midnightblue" d="M832.91,-56.32C848.64,-47.74 872.94,-34.49 891.21,-24.52"/>
<polygon fill="midnightblue" stroke="midnightblue" points="893.03,-27.52 900.13,-19.65 889.68,-21.37 893.03,-27.52"/>
</g>
<!-- Node11&#45;&gt;Node5 -->
<g id="edge18" class="edge">
<title>Node11&#45;&gt;Node5</title>
<path fill="none" stroke="midnightblue" d="M1181.93,-56.44C1117.35,-45.41 1006.69,-26.5 950.67,-16.92"/>
<polygon fill="midnightblue" stroke="midnightblue" points="950.99,-13.43 940.54,-15.19 949.81,-20.33 950.99,-13.43"/>
</g>
<!-- Node12&#45;&gt;Node3 -->
<g id="edge20" class="edge">
<title>Node12&#45;&gt;Node3</title>
<path fill="none" stroke="midnightblue" d="M981.92,-59.62C885.96,-48.9 672.43,-25.02 585.22,-15.27"/>
<polygon fill="midnightblue" stroke="midnightblue" points="585.55,-11.79 575.22,-14.16 584.77,-18.75 585.55,-11.79"/>
</g>
<!-- Node14 -->
<g id="node14" class="node">
<title>Node14</title>
<g id="a_node14"><a xlink:href="zwave__controller__connection__info_8h.html" target="_top" xlink:title=" ">
<polygon fill="none" stroke="black" points="1062.5,-168.5 1062.5,-198.5 1205.5,-198.5 1205.5,-168.5 1062.5,-168.5"/>
<text text-anchor="start" x="1070.5" y="-186.5" font-family="Helvetica,sans-Serif" font-size="10.00">zwave_controller_connection</text>
<text text-anchor="middle" x="1134" y="-175.5" font-family="Helvetica,sans-Serif" font-size="10.00">_info.h</text>
</a>
</g>
</g>
<!-- Node13&#45;&gt;Node14 -->
<g id="edge24" class="edge">
<title>Node13&#45;&gt;Node14</title>
<path fill="none" stroke="midnightblue" d="M1129.67,-240.73C1130.3,-232.54 1131.28,-219.92 1132.14,-208.71"/>
<polygon fill="midnightblue" stroke="midnightblue" points="1135.64,-208.83 1132.92,-198.59 1128.66,-208.29 1135.64,-208.83"/>
</g>
<!-- Node15 -->
<g id="node15" class="node">
<title>Node15</title>
<g id="a_node15"><a xlink:href="zwave__keyset__definitions_8h.html" target="_top" xlink:title=" ">
<polygon fill="none" stroke="black" points="1230.5,-174 1230.5,-193 1367.5,-193 1367.5,-174 1230.5,-174"/>
<text text-anchor="middle" x="1299" y="-181" font-family="Helvetica,sans-Serif" font-size="10.00">zwave_keyset_definitions.h</text>
</a>
</g>
</g>
<!-- Node13&#45;&gt;Node15 -->
<g id="edge26" class="edge">
<title>Node13&#45;&gt;Node15</title>
<path fill="none" stroke="midnightblue" d="M1151.57,-240.87C1181.25,-229.52 1233.55,-209.52 1267.22,-196.65"/>
<polygon fill="midnightblue" stroke="midnightblue" points="1268.51,-199.9 1276.6,-193.06 1266.01,-193.37 1268.51,-199.9"/>
</g>
<!-- Node14&#45;&gt;Node9 -->
<g id="edge25" class="edge">
<title>Node14&#45;&gt;Node9</title>
<path fill="none" stroke="midnightblue" d="M1113.15,-168.4C1099.3,-159.04 1081.19,-146.79 1067.26,-137.38"/>
<polygon fill="midnightblue" stroke="midnightblue" points="1069.05,-134.36 1058.8,-131.66 1065.13,-140.16 1069.05,-134.36"/>
</g>
<!-- Node15&#45;&gt;Node5 -->
<g id="edge27" class="edge">
<title>Node15&#45;&gt;Node5</title>
<path fill="none" stroke="midnightblue" d="M1302.64,-173.78C1311.45,-151.11 1331.08,-89.8 1301,-56 1277.87,-30.01 1040.85,-16.64 950.62,-12.47"/>
<polygon fill="midnightblue" stroke="midnightblue" points="950.76,-8.97 940.61,-12.01 950.44,-15.96 950.76,-8.97"/>
</g>
<!-- Node17 -->
<g id="node17" class="node">
<title>Node17</title>
<g id="a_node17"><a xlink:title=" ">
<polygon fill="none" stroke="#bfbfbf" points="1424.5,-241 1424.5,-260 1483.5,-260 1483.5,-241 1424.5,-241"/>
<text text-anchor="middle" x="1454" y="-248" font-family="Helvetica,sans-Serif" font-size="10.00">process.h</text>
</a>
</g>
</g>
<!-- Node16&#45;&gt;Node17 -->
<g id="edge30" class="edge">
<title>Node16&#45;&gt;Node17</title>
<path fill="none" stroke="midnightblue" d="M1316.19,-302.4C1347.62,-290.79 1391.68,-274.51 1421.46,-263.52"/>
<polygon fill="midnightblue" stroke="midnightblue" points="1422.8,-266.75 1430.97,-260.01 1420.37,-260.19 1422.8,-266.75"/>
</g>
<!-- Node18&#45;&gt;Node3 -->
<g id="edge33" class="edge">
<title>Node18&#45;&gt;Node3</title>
<path fill="none" stroke="midnightblue" d="M564.46,-307.74C560.62,-297.8 554.69,-281.03 552,-266 537.11,-182.78 545,-160.52 543,-76 542.79,-67.11 542.61,-64.88 543,-56 543.38,-47.37 544.18,-37.84 544.96,-29.78"/>
<polygon fill="midnightblue" stroke="midnightblue" points="548.46,-29.92 546.01,-19.61 541.5,-29.2 548.46,-29.92"/>
</g>
<!-- Node18&#45;&gt;Node4 -->
<g id="edge34" class="edge">
<title>Node18&#45;&gt;Node4</title>
<path fill="none" stroke="midnightblue" d="M544.58,-307.86C524.51,-299.55 495.79,-285.38 476,-266 457.27,-247.66 443.55,-220.28 435.92,-202.41"/>
<polygon fill="midnightblue" stroke="midnightblue" points="439.15,-201.06 432.14,-193.12 432.67,-203.7 439.15,-201.06"/>
</g>
<!-- Node18&#45;&gt;Node5 -->
<g id="edge32" class="edge">
<title>Node18&#45;&gt;Node5</title>
<path fill="none" stroke="midnightblue" d="M568.63,-307.56C569.99,-292.15 574,-259.85 585,-235 624.81,-145.1 632.84,-110 715,-56 766.1,-22.41 838.62,-13.62 881.14,-11.48"/>
<polygon fill="midnightblue" stroke="midnightblue" points="881.43,-14.97 891.28,-11.07 881.14,-7.98 881.43,-14.97"/>
</g>
<!-- Node19 -->
<g id="node19" class="node">
<title>Node19</title>
<g id="a_node19"><a xlink:href="zwapi__protocol__transport_8h.html" target="_top" xlink:title="Z&#45;Wave API for transport application layer interface.">
<polygon fill="none" stroke="black" points="594,-241 594,-260 728,-260 728,-241 594,-241"/>
<text text-anchor="middle" x="661" y="-248" font-family="Helvetica,sans-Serif" font-size="10.00">zwapi_protocol_transport.h</text>
</a>
</g>
</g>
<!-- Node18&#45;&gt;Node19 -->
<g id="edge35" class="edge">
<title>Node18&#45;&gt;Node19</title>
<path fill="none" stroke="midnightblue" d="M580.54,-307.73C595.88,-297.01 622.06,-278.72 640.38,-265.91"/>
<polygon fill="midnightblue" stroke="midnightblue" points="642.46,-268.72 648.66,-260.13 638.45,-262.99 642.46,-268.72"/>
</g>
<!-- Node19&#45;&gt;Node3 -->
<g id="edge37" class="edge">
<title>Node19&#45;&gt;Node3</title>
<path fill="none" stroke="midnightblue" d="M653.36,-240.91C632.56,-216.92 574.93,-146.35 552,-76 547.12,-61.02 546.07,-43.11 546.12,-29.89"/>
<polygon fill="midnightblue" stroke="midnightblue" points="549.63,-29.75 546.39,-19.66 542.63,-29.57 549.63,-29.75"/>
</g>
<!-- Node19&#45;&gt;Node4 -->
<g id="edge38" class="edge">
<title>Node19&#45;&gt;Node4</title>
<path fill="none" stroke="midnightblue" d="M630.19,-240.87C588.82,-229.28 515.24,-208.66 469.45,-195.83"/>
<polygon fill="midnightblue" stroke="midnightblue" points="470.14,-192.39 459.57,-193.06 468.25,-199.13 470.14,-192.39"/>
</g>
<!-- Node19&#45;&gt;Node5 -->
<g id="edge36" class="edge">
<title>Node19&#45;&gt;Node5</title>
<path fill="none" stroke="midnightblue" d="M661.66,-241C664.47,-210.79 678.19,-107.73 737,-56 777.33,-20.52 841.6,-12.21 881.16,-10.7"/>
<polygon fill="midnightblue" stroke="midnightblue" points="881.47,-14.2 891.38,-10.44 881.29,-7.2 881.47,-14.2"/>
</g>
<!-- Node19&#45;&gt;Node10 -->
<g id="edge39" class="edge">
<title>Node19&#45;&gt;Node10</title>
<path fill="none" stroke="midnightblue" d="M676.41,-240.91C691.73,-231.85 715.29,-216.5 732,-199 766.22,-163.17 794.7,-111.67 808.34,-84.82"/>
<polygon fill="midnightblue" stroke="midnightblue" points="811.49,-86.33 812.82,-75.82 805.23,-83.21 811.49,-86.33"/>
</g>
<!-- Node21&#45;&gt;Node3 -->
<g id="edge44" class="edge">
<title>Node21&#45;&gt;Node3</title>
<path fill="none" stroke="midnightblue" d="M72.42,-235.27C72.47,-217.38 75.26,-186.75 92,-168 204.01,-42.49 421.23,-17.29 508.92,-12.25"/>
<polygon fill="midnightblue" stroke="midnightblue" points="509.15,-15.74 518.96,-11.73 508.79,-8.75 509.15,-15.74"/>
</g>
<!-- Node21&#45;&gt;Node4 -->
<g id="edge45" class="edge">
<title>Node21&#45;&gt;Node4</title>
<path fill="none" stroke="midnightblue" d="M146.31,-236.47C149.24,-235.97 152.15,-235.48 155,-235 255.74,-218.11 282.5,-222.12 382,-199 385.82,-198.11 389.78,-197.08 393.72,-195.97"/>
<polygon fill="midnightblue" stroke="midnightblue" points="394.72,-199.33 403.32,-193.14 392.74,-192.61 394.72,-199.33"/>
</g>
<!-- Node21&#45;&gt;Node10 -->
<g id="edge46" class="edge">
<title>Node21&#45;&gt;Node10</title>
<path fill="none" stroke="midnightblue" d="M125.86,-235.45C188.36,-218.91 295.6,-190.83 388,-168 526.27,-133.84 690.28,-95.96 769.49,-77.83"/>
<polygon fill="midnightblue" stroke="midnightblue" points="770.67,-81.15 779.63,-75.51 769.11,-74.32 770.67,-81.15"/>
</g>
<!-- Node22 -->
<g id="node22" class="node">
<title>Node22</title>
<g id="a_node22"><a xlink:title=" ">
<polygon fill="none" stroke="#bfbfbf" points="101,-174 101,-193 149,-193 149,-174 101,-174"/>
<text text-anchor="middle" x="125" y="-181" font-family="Helvetica,sans-Serif" font-size="10.00">clock.h</text>
</a>
</g>
</g>
<!-- Node21&#45;&gt;Node22 -->
<g id="edge47" class="edge">
<title>Node21&#45;&gt;Node22</title>
<path fill="none" stroke="midnightblue" d="M84.28,-235.4C92.31,-225.36 103.13,-211.84 111.6,-201.25"/>
<polygon fill="midnightblue" stroke="midnightblue" points="114.53,-203.19 118.04,-193.19 109.06,-198.82 114.53,-203.19"/>
</g>
<!-- Node23&#45;&gt;Node18 -->
<g id="edge49" class="edge">
<title>Node23&#45;&gt;Node18</title>
<path fill="none" stroke="midnightblue" d="M570.35,-369.4C569.91,-359.96 569.34,-347.45 568.86,-337.19"/>
<polygon fill="midnightblue" stroke="midnightblue" points="572.36,-337.02 568.4,-327.19 565.37,-337.35 572.36,-337.02"/>
</g>
<!-- Node24&#45;&gt;Node7 -->
<g id="edge54" class="edge">
<title>Node24&#45;&gt;Node7</title>
<path fill="none" stroke="midnightblue" d="M1080.14,-307.94C1040.14,-297.82 972.7,-280.76 922.4,-268.04"/>
<polygon fill="midnightblue" stroke="midnightblue" points="923.14,-264.62 912.59,-265.56 921.42,-271.4 923.14,-264.62"/>
</g>
<!-- Node24&#45;&gt;Node11 -->
<g id="edge56" class="edge">
<title>Node24&#45;&gt;Node11</title>
<path fill="none" stroke="midnightblue" d="M1160.67,-307.96C1228.67,-295.34 1347.74,-272.49 1355,-266 1388.26,-236.23 1397.66,-207.57 1377,-168 1353.7,-123.38 1300.71,-94.47 1265.65,-79.46"/>
<polygon fill="midnightblue" stroke="midnightblue" points="1266.86,-76.17 1256.28,-75.59 1264.19,-82.64 1266.86,-76.17"/>
</g>
<!-- Node24&#45;&gt;Node15 -->
<g id="edge55" class="edge">
<title>Node24&#45;&gt;Node15</title>
<path fill="none" stroke="midnightblue" d="M1158.63,-307.96C1222.6,-295.51 1333.32,-273.09 1339,-266 1355.31,-245.62 1333.77,-217.49 1316.53,-200.18"/>
<polygon fill="midnightblue" stroke="midnightblue" points="1318.72,-197.42 1309.07,-193.05 1313.88,-202.49 1318.72,-197.42"/>
</g>
<!-- Node24&#45;&gt;Node19 -->
<g id="edge57" class="edge">
<title>Node24&#45;&gt;Node19</title>
<path fill="none" stroke="midnightblue" d="M1067.65,-307.97C1056.03,-305.93 1043.57,-303.81 1032,-302 976.6,-293.33 827.36,-273.41 735.93,-261.34"/>
<polygon fill="midnightblue" stroke="midnightblue" points="736.27,-257.86 725.9,-260.02 735.36,-264.8 736.27,-257.86"/>
</g>
<!-- Node25 -->
<g id="node25" class="node">
<title>Node25</title>
<g id="a_node25"><a xlink:href="zwave__rx__definitions_8h.html" target="_top" xlink:title=" ">
<polygon fill="none" stroke="black" points="1214,-241 1214,-260 1330,-260 1330,-241 1214,-241"/>
<text text-anchor="middle" x="1272" y="-248" font-family="Helvetica,sans-Serif" font-size="10.00">zwave_rx_definitions.h</text>
</a>
</g>
</g>
<!-- Node24&#45;&gt;Node25 -->
<g id="edge52" class="edge">
<title>Node24&#45;&gt;Node25</title>
<path fill="none" stroke="midnightblue" d="M1134.98,-307.87C1162.25,-296.65 1210.07,-276.98 1241.39,-264.09"/>
<polygon fill="midnightblue" stroke="midnightblue" points="1243.02,-267.21 1250.93,-260.17 1240.35,-260.74 1243.02,-267.21"/>
</g>
<!-- Node25&#45;&gt;Node14 -->
<g id="edge53" class="edge">
<title>Node25&#45;&gt;Node14</title>
<path fill="none" stroke="midnightblue" d="M1253.67,-240.87C1233.24,-231.24 1199.58,-215.39 1173.15,-202.94"/>
<polygon fill="midnightblue" stroke="midnightblue" points="1174.32,-199.62 1163.78,-198.53 1171.34,-205.96 1174.32,-199.62"/>
</g>
<!-- Node26&#45;&gt;Node4 -->
<g id="edge59" class="edge">
<title>Node26&#45;&gt;Node4</title>
<path fill="none" stroke="midnightblue" d="M417.73,-374.96C412.06,-365.22 403.39,-348.63 400,-333 390.76,-290.44 388.78,-277.08 400,-235 403.2,-222.98 410.02,-210.86 416.25,-201.5"/>
<polygon fill="midnightblue" stroke="midnightblue" points="419.21,-203.36 422.11,-193.17 413.49,-199.33 419.21,-203.36"/>
</g>
</g>
</svg>
