<?xml version="1.0" encoding="UTF-8" standalone="no"?>
<!DOCTYPE svg PUBLIC "-//W3C//DTD SVG 1.1//EN"
 "http://www.w3.org/Graphics/SVG/1.1/DTD/svg11.dtd">
<!-- Generated by graphviz version 2.43.0 (0)
 -->
<!-- Title: keystore_dynamic_public_key_read Pages: 1 -->
<svg width="1938pt" height="541pt"
 viewBox="0.00 0.00 1938.00 541.00" xmlns="http://www.w3.org/2000/svg" xmlns:xlink="http://www.w3.org/1999/xlink">
<g id="graph0" class="graph" transform="scale(1 1) rotate(0) translate(4 537)">
<title>keystore_dynamic_public_key_read</title>
<!-- Node1 -->
<g id="node1" class="node">
<title>Node1</title>
<g id="a_node1"><a xlink:title=" ">
<polygon fill="#bfbfbf" stroke="black" points="0,-264.5 0,-294.5 127,-294.5 127,-264.5 0,-264.5"/>
<text text-anchor="start" x="8" y="-282.5" font-family="Helvetica,sans-Serif" font-size="10.00">keystore_dynamic_public</text>
<text text-anchor="middle" x="63.5" y="-271.5" font-family="Helvetica,sans-Serif" font-size="10.00">_key_read</text>
</a>
</g>
</g>
<!-- Node2 -->
<g id="node2" class="node">
<title>Node2</title>
<g id="a_node2"><a xlink:href="zwave__s2__keystore_8c.html#aa323c8ede63b6d4587771d0b1d649e59" target="_top" xlink:title=" ">
<polygon fill="none" stroke="black" points="163,-270 163,-289 293,-289 293,-270 163,-270"/>
<text text-anchor="middle" x="228" y="-277" font-family="Helvetica,sans-Serif" font-size="10.00">keystore_public_key_read</text>
</a>
</g>
</g>
<!-- Node1&#45;&gt;Node2 -->
<g id="edge1" class="edge">
<title>Node1&#45;&gt;Node2</title>
<path fill="none" stroke="midnightblue" d="M127.33,-279.5C135.64,-279.5 144.23,-279.5 152.72,-279.5"/>
<polygon fill="midnightblue" stroke="midnightblue" points="153,-283 163,-279.5 153,-276 153,-283"/>
</g>
<!-- Node3 -->
<g id="node3" class="node">
<title>Node3</title>
<g id="a_node3"><a xlink:href="zwave__s2__keystore_8c.html#ab73089bba5953748dc5c48f73c47f8f0" target="_top" xlink:title=" ">
<polygon fill="none" stroke="black" points="329,-270 329,-289 463,-289 463,-270 329,-270"/>
<text text-anchor="middle" x="396" y="-277" font-family="Helvetica,sans-Serif" font-size="10.00">keystore_private_key_read</text>
</a>
</g>
</g>
<!-- Node2&#45;&gt;Node3 -->
<g id="edge2" class="edge">
<title>Node2&#45;&gt;Node3</title>
<path fill="none" stroke="midnightblue" d="M293.18,-279.5C301.48,-279.5 310.05,-279.5 318.53,-279.5"/>
<polygon fill="midnightblue" stroke="midnightblue" points="318.8,-283 328.8,-279.5 318.8,-276 318.8,-283"/>
</g>
<!-- Node4 -->
<g id="node4" class="node">
<title>Node4</title>
<g id="a_node4"><a xlink:href="group__ZWAPI__INIT.html#gaeb0651d0effa49459616b58cc026e80b" target="_top" xlink:title="Look up the cached chip type and chip version.">
<polygon fill="none" stroke="black" points="499,-286.5 499,-316.5 607,-316.5 607,-286.5 499,-286.5"/>
<text text-anchor="start" x="507" y="-304.5" font-family="Helvetica,sans-Serif" font-size="10.00">zwapi_get_chip_type</text>
<text text-anchor="middle" x="553" y="-293.5" font-family="Helvetica,sans-Serif" font-size="10.00">_version</text>
</a>
</g>
</g>
<!-- Node3&#45;&gt;Node4 -->
<g id="edge3" class="edge">
<title>Node3&#45;&gt;Node4</title>
<path fill="none" stroke="midnightblue" d="M463.18,-288.89C471.61,-290.09 480.21,-291.31 488.59,-292.5"/>
<polygon fill="midnightblue" stroke="midnightblue" points="488.28,-295.99 498.67,-293.93 489.26,-289.06 488.28,-295.99"/>
</g>
<!-- Node5 -->
<g id="node5" class="node">
<title>Node5</title>
<g id="a_node5"><a xlink:href="group__ZWAPI__MEM.html#gaa55944ff269122a5747d7a1868ff93ef" target="_top" xlink:title="Get a value from the NVR flash page.">
<polygon fill="none" stroke="black" points="499,-248 499,-267 607,-267 607,-248 499,-248"/>
<text text-anchor="middle" x="553" y="-255" font-family="Helvetica,sans-Serif" font-size="10.00">zwapi_nvr_get_value</text>
</a>
</g>
</g>
<!-- Node3&#45;&gt;Node5 -->
<g id="edge4" class="edge">
<title>Node3&#45;&gt;Node5</title>
<path fill="none" stroke="midnightblue" d="M463.18,-270.11C471.61,-268.91 480.21,-267.69 488.59,-266.5"/>
<polygon fill="midnightblue" stroke="midnightblue" points="489.26,-269.94 498.67,-265.07 488.28,-263.01 489.26,-269.94"/>
</g>
<!-- Node6 -->
<g id="node6" class="node">
<title>Node6</title>
<g id="a_node6"><a xlink:href="zwapi__init_8c.html#a5ec89d5817b8ce00454fce891ae8400e" target="_top" xlink:title="Send a command to the Z&#45;Wave module and waits for an ACK.">
<polygon fill="none" stroke="black" points="643,-242.5 643,-272.5 759,-272.5 759,-242.5 643,-242.5"/>
<text text-anchor="start" x="651" y="-260.5" font-family="Helvetica,sans-Serif" font-size="10.00">zwapi_send_command</text>
<text text-anchor="middle" x="701" y="-249.5" font-family="Helvetica,sans-Serif" font-size="10.00">_with_response</text>
</a>
</g>
</g>
<!-- Node5&#45;&gt;Node6 -->
<g id="edge5" class="edge">
<title>Node5&#45;&gt;Node6</title>
<path fill="none" stroke="midnightblue" d="M607.12,-257.5C615.44,-257.5 624.14,-257.5 632.73,-257.5"/>
<polygon fill="midnightblue" stroke="midnightblue" points="632.73,-261 642.73,-257.5 632.73,-254 632.73,-261"/>
</g>
<!-- Node7 -->
<g id="node7" class="node">
<title>Node7</title>
<g id="a_node7"><a xlink:href="zwapi__session_8c.html#abf613a2ad7710ac80fb239ba55e621d7" target="_top" xlink:title="Send data frame to Z&#45;Wave chip via serial API, wait for ACK and a RES frame.">
<polygon fill="none" stroke="black" points="813.5,-264.5 813.5,-294.5 928.5,-294.5 928.5,-264.5 813.5,-264.5"/>
<text text-anchor="start" x="821.5" y="-282.5" font-family="Helvetica,sans-Serif" font-size="10.00">zwapi_session_send</text>
<text text-anchor="middle" x="871" y="-271.5" font-family="Helvetica,sans-Serif" font-size="10.00">_frame_with_response</text>
</a>
</g>
</g>
<!-- Node6&#45;&gt;Node7 -->
<g id="edge6" class="edge">
<title>Node6&#45;&gt;Node7</title>
<path fill="none" stroke="midnightblue" d="M759.35,-265.01C773.56,-266.87 788.9,-268.88 803.51,-270.79"/>
<polygon fill="midnightblue" stroke="midnightblue" points="803.11,-274.27 813.48,-272.1 804.02,-267.33 803.11,-274.27"/>
</g>
<!-- Node34 -->
<g id="node34" class="node">
<title>Node34</title>
<g id="a_node34"><a xlink:href="group__ZWAPI__INIT.html#ga0a823074baec69913d0e8590b46e4e33" target="_top" xlink:title="Check if a command is supported by the connected Z&#45;Wave module.">
<polygon fill="none" stroke="black" points="795,-226 795,-245 947,-245 947,-226 795,-226"/>
<text text-anchor="middle" x="871" y="-233" font-family="Helvetica,sans-Serif" font-size="10.00">zwapi_support_command_func</text>
</a>
</g>
</g>
<!-- Node6&#45;&gt;Node34 -->
<g id="edge51" class="edge">
<title>Node6&#45;&gt;Node34</title>
<path fill="none" stroke="midnightblue" d="M759.35,-249.99C768.28,-248.82 777.67,-247.59 787.03,-246.36"/>
<polygon fill="midnightblue" stroke="midnightblue" points="787.71,-249.81 797.17,-245.04 786.8,-242.87 787.71,-249.81"/>
</g>
<!-- Node8 -->
<g id="node8" class="node">
<title>Node8</title>
<g id="a_node8"><a xlink:href="zwapi__connection_8c.html#a91ce3acd7eff779496789637a9c27f40" target="_top" xlink:title="Provides the data of the serial buffer for the last received frame.">
<polygon fill="none" stroke="black" points="1478.5,-502.5 1478.5,-532.5 1591.5,-532.5 1591.5,-502.5 1478.5,-502.5"/>
<text text-anchor="start" x="1486.5" y="-520.5" font-family="Helvetica,sans-Serif" font-size="10.00">zwapi_connection_get</text>
<text text-anchor="middle" x="1535" y="-509.5" font-family="Helvetica,sans-Serif" font-size="10.00">_last_rx_frame</text>
</a>
</g>
</g>
<!-- Node7&#45;&gt;Node8 -->
<g id="edge7" class="edge">
<title>Node7&#45;&gt;Node8</title>
<path fill="none" stroke="midnightblue" d="M885.14,-294.76C904.47,-316.27 942.66,-355.36 983,-377.5 1143.51,-465.61 1360.74,-499.54 1468.2,-511.54"/>
<polygon fill="midnightblue" stroke="midnightblue" points="1467.93,-515.03 1478.25,-512.64 1468.68,-508.07 1467.93,-515.03"/>
</g>
<!-- Node9 -->
<g id="node9" class="node">
<title>Node9</title>
<g id="a_node9"><a xlink:href="zwapi__connection_8c.html#a86b069d152a5c2f8ac95774a688dff48" target="_top" xlink:title="make the zwapi_connection_status types human readable.">
<polygon fill="none" stroke="black" points="983,-176.5 983,-206.5 1110,-206.5 1110,-176.5 983,-176.5"/>
<text text-anchor="start" x="991" y="-194.5" font-family="Helvetica,sans-Serif" font-size="10.00">zwapi_connection_status</text>
<text text-anchor="middle" x="1046.5" y="-183.5" font-family="Helvetica,sans-Serif" font-size="10.00">_to_string</text>
</a>
</g>
</g>
<!-- Node7&#45;&gt;Node9 -->
<g id="edge8" class="edge">
<title>Node7&#45;&gt;Node9</title>
<path fill="none" stroke="midnightblue" d="M926.46,-264.39C933.58,-261.54 940.61,-258.26 947,-254.5 965.71,-243.49 965.02,-233.66 983,-221.5 988.36,-217.87 994.24,-214.44 1000.16,-211.29"/>
<polygon fill="midnightblue" stroke="midnightblue" points="1002.12,-214.22 1009.46,-206.57 998.96,-207.98 1002.12,-214.22"/>
</g>
<!-- Node10 -->
<g id="node10" class="node">
<title>Node10</title>
<g id="a_node10"><a xlink:href="zwapi__session_8c.html#a1f2b3e7c2dcf31708ef8d333747352ba" target="_top" xlink:title=" ">
<polygon fill="none" stroke="black" points="1308.5,-409.5 1308.5,-439.5 1431.5,-439.5 1431.5,-409.5 1308.5,-409.5"/>
<text text-anchor="start" x="1316.5" y="-427.5" font-family="Helvetica,sans-Serif" font-size="10.00">zwapi_session_enqueue</text>
<text text-anchor="middle" x="1370" y="-416.5" font-family="Helvetica,sans-Serif" font-size="10.00">_frame</text>
</a>
</g>
</g>
<!-- Node7&#45;&gt;Node10 -->
<g id="edge9" class="edge">
<title>Node7&#45;&gt;Node10</title>
<path fill="none" stroke="midnightblue" d="M898.18,-294.56C945.78,-321.14 1050.41,-375.99 1146,-401.5 1195.89,-414.82 1253.96,-420.51 1298.33,-422.9"/>
<polygon fill="midnightblue" stroke="midnightblue" points="1298.28,-426.4 1308.44,-423.4 1298.63,-419.41 1298.28,-426.4"/>
</g>
<!-- Node13 -->
<g id="node13" class="node">
<title>Node13</title>
<g id="a_node13"><a xlink:href="zwapi__session_8c.html#a32577f3500efc3d937dbc68eebb3c370" target="_top" xlink:title="Send data frame to Z&#45;Wave chip via serial port and wait for ACK.">
<polygon fill="none" stroke="black" points="993,-264.5 993,-294.5 1100,-294.5 1100,-264.5 993,-264.5"/>
<text text-anchor="start" x="1001" y="-282.5" font-family="Helvetica,sans-Serif" font-size="10.00">zwapi_session_send</text>
<text text-anchor="middle" x="1046.5" y="-271.5" font-family="Helvetica,sans-Serif" font-size="10.00">_frame</text>
</a>
</g>
</g>
<!-- Node7&#45;&gt;Node13 -->
<g id="edge13" class="edge">
<title>Node7&#45;&gt;Node13</title>
<path fill="none" stroke="midnightblue" d="M928.81,-279.5C946.08,-279.5 965.15,-279.5 982.78,-279.5"/>
<polygon fill="midnightblue" stroke="midnightblue" points="982.97,-283 992.97,-279.5 982.97,-276 982.97,-283"/>
</g>
<!-- Node33 -->
<g id="node33" class="node">
<title>Node33</title>
<g id="a_node33"><a xlink:href="zwapi__session_8c.html#a9d30e1677f02d7730ab035aa9333235d" target="_top" xlink:title=" ">
<polygon fill="none" stroke="black" points="1155.5,-163.5 1155.5,-193.5 1259.5,-193.5 1259.5,-163.5 1155.5,-163.5"/>
<text text-anchor="start" x="1163.5" y="-181.5" font-family="Helvetica,sans-Serif" font-size="10.00">zwapi_session_wait</text>
<text text-anchor="middle" x="1207.5" y="-170.5" font-family="Helvetica,sans-Serif" font-size="10.00">_for_response</text>
</a>
</g>
</g>
<!-- Node7&#45;&gt;Node33 -->
<g id="edge50" class="edge">
<title>Node7&#45;&gt;Node33</title>
<path fill="none" stroke="midnightblue" d="M928.75,-266C977.27,-254.03 1048.76,-235.41 1110,-215.5 1126.53,-210.12 1144.37,-203.52 1160.17,-197.38"/>
<polygon fill="midnightblue" stroke="midnightblue" points="1161.67,-200.55 1169.7,-193.64 1159.12,-194.03 1161.67,-200.55"/>
</g>
<!-- Node10&#45;&gt;Node8 -->
<g id="edge10" class="edge">
<title>Node10&#45;&gt;Node8</title>
<path fill="none" stroke="midnightblue" d="M1390.04,-439.71C1409.53,-454.77 1441.13,-477.8 1471,-493.5 1474.25,-495.21 1477.64,-496.86 1481.1,-498.44"/>
<polygon fill="midnightblue" stroke="midnightblue" points="1479.79,-501.68 1490.36,-502.45 1482.57,-495.26 1479.79,-501.68"/>
</g>
<!-- Node11 -->
<g id="node11" class="node">
<title>Node11</title>
<g id="a_node11"><a xlink:href="zwapi__session_8c.html#ad7bac697ee2388b38ed3777b5a3862bc" target="_top" xlink:title=" ">
<polygon fill="none" stroke="black" points="1478.5,-453.5 1478.5,-483.5 1591.5,-483.5 1591.5,-453.5 1478.5,-453.5"/>
<text text-anchor="start" x="1486.5" y="-471.5" font-family="Helvetica,sans-Serif" font-size="10.00">zwapi_session_get_rx</text>
<text text-anchor="middle" x="1535" y="-460.5" font-family="Helvetica,sans-Serif" font-size="10.00">_queue_length</text>
</a>
</g>
</g>
<!-- Node10&#45;&gt;Node11 -->
<g id="edge11" class="edge">
<title>Node10&#45;&gt;Node11</title>
<path fill="none" stroke="midnightblue" d="M1426.64,-439.52C1440.07,-443.15 1454.55,-447.05 1468.39,-450.79"/>
<polygon fill="midnightblue" stroke="midnightblue" points="1467.77,-454.25 1478.33,-453.47 1469.59,-447.49 1467.77,-454.25"/>
</g>
<!-- Node12 -->
<g id="node12" class="node">
<title>Node12</title>
<g id="a_node12"><a xlink:href="group__ZWAPI__INIT.html#ga438a74c9752197d20d377874d5a61694" target="_top" xlink:title="Returns the pointer to the callbacks registered at init.">
<polygon fill="none" stroke="black" points="1471,-415 1471,-434 1599,-434 1599,-415 1471,-415"/>
<text text-anchor="middle" x="1535" y="-422" font-family="Helvetica,sans-Serif" font-size="10.00">zwave_api_get_callbacks</text>
</a>
</g>
</g>
<!-- Node10&#45;&gt;Node12 -->
<g id="edge12" class="edge">
<title>Node10&#45;&gt;Node12</title>
<path fill="none" stroke="midnightblue" d="M1431.7,-424.5C1441.17,-424.5 1451.04,-424.5 1460.76,-424.5"/>
<polygon fill="midnightblue" stroke="midnightblue" points="1460.8,-428 1470.8,-424.5 1460.8,-421 1460.8,-428"/>
</g>
<!-- Node13&#45;&gt;Node10 -->
<g id="edge31" class="edge">
<title>Node13&#45;&gt;Node10</title>
<path fill="none" stroke="midnightblue" d="M1060.21,-294.69C1077.56,-314.43 1110.59,-348.62 1146,-367.5 1193.54,-392.84 1252.84,-407.3 1298.35,-415.31"/>
<polygon fill="midnightblue" stroke="midnightblue" points="1297.98,-418.79 1308.42,-417.02 1299.15,-411.89 1297.98,-418.79"/>
</g>
<!-- Node14 -->
<g id="node14" class="node">
<title>Node14</title>
<g id="a_node14"><a xlink:href="zwapi__connection_8c.html#a13b6e6b6c56844f4344fabe490bc5eac" target="_top" xlink:title="Closes and re&#45;initializes the zwapi_connection to the Z&#45;Wave module.">
<polygon fill="none" stroke="black" points="1306,-251 1306,-270 1434,-270 1434,-251 1306,-251"/>
<text text-anchor="middle" x="1370" y="-258" font-family="Helvetica,sans-Serif" font-size="10.00">zwapi_connection_restart</text>
</a>
</g>
</g>
<!-- Node13&#45;&gt;Node14 -->
<g id="edge14" class="edge">
<title>Node13&#45;&gt;Node14</title>
<path fill="none" stroke="midnightblue" d="M1100.23,-276.38C1153.44,-273.24 1236.05,-268.36 1295.64,-264.84"/>
<polygon fill="midnightblue" stroke="midnightblue" points="1295.97,-268.32 1305.74,-264.24 1295.55,-261.33 1295.97,-268.32"/>
</g>
<!-- Node24 -->
<g id="node24" class="node">
<title>Node24</title>
<g id="a_node24"><a xlink:href="zwapi__timestamp_8c.html#a6ebe1ddfe689bce6ee72fc12f708aece" target="_top" xlink:title="get the timestamp">
<polygon fill="none" stroke="black" points="1479,-213 1479,-232 1591,-232 1591,-213 1479,-213"/>
<text text-anchor="middle" x="1535" y="-220" font-family="Helvetica,sans-Serif" font-size="10.00">zwapi_timestamp_get</text>
</a>
</g>
</g>
<!-- Node13&#45;&gt;Node24 -->
<g id="edge49" class="edge">
<title>Node13&#45;&gt;Node24</title>
<path fill="none" stroke="midnightblue" d="M1100.12,-270.72C1114.94,-268.31 1131.09,-265.74 1146,-263.5 1216.55,-252.89 1234.09,-249.34 1305,-241.5 1360.11,-235.41 1422.88,-230.33 1468.75,-226.96"/>
<polygon fill="midnightblue" stroke="midnightblue" points="1469.14,-230.44 1478.86,-226.23 1468.63,-223.46 1469.14,-230.44"/>
</g>
<!-- Node25 -->
<g id="node25" class="node">
<title>Node25</title>
<g id="a_node25"><a xlink:href="zwapi__connection_8c.html#af47f8cbd93974d5c91d659fdeb7a870b" target="_top" xlink:title="Transmit a frame via serial port by adding SOF, Len, Type, cmd and Checksum.">
<polygon fill="none" stroke="black" points="1316,-289 1316,-308 1424,-308 1424,-289 1316,-289"/>
<text text-anchor="middle" x="1370" y="-296" font-family="Helvetica,sans-Serif" font-size="10.00">zwapi_connection_tx</text>
</a>
</g>
</g>
<!-- Node13&#45;&gt;Node25 -->
<g id="edge25" class="edge">
<title>Node13&#45;&gt;Node25</title>
<path fill="none" stroke="midnightblue" d="M1100.23,-282.62C1156.56,-285.95 1245.83,-291.22 1305.86,-294.77"/>
<polygon fill="midnightblue" stroke="midnightblue" points="1305.79,-298.27 1315.97,-295.37 1306.2,-291.28 1305.79,-298.27"/>
</g>
<!-- Node27 -->
<g id="node27" class="node">
<title>Node27</title>
<g id="a_node27"><a xlink:href="zwapi__timestamp_8c.html#a3925f2732e344672608db38351236688" target="_top" xlink:title="compare the current timestamp with the timestamp passed as an argument">
<polygon fill="none" stroke="black" points="1482,-0.5 1482,-30.5 1588,-30.5 1588,-0.5 1482,-0.5"/>
<text text-anchor="start" x="1490" y="-18.5" font-family="Helvetica,sans-Serif" font-size="10.00">zwapi_is_timestamp</text>
<text text-anchor="middle" x="1535" y="-7.5" font-family="Helvetica,sans-Serif" font-size="10.00">_elapsed</text>
</a>
</g>
</g>
<!-- Node13&#45;&gt;Node27 -->
<g id="edge30" class="edge">
<title>Node13&#45;&gt;Node27</title>
<path fill="none" stroke="midnightblue" d="M1064.33,-264.46C1077.63,-252.08 1096.19,-233.68 1110,-215.5 1129.28,-190.13 1123.87,-176.43 1146,-153.5 1203.98,-93.44 1226.96,-83.14 1305,-53.5 1359.05,-32.97 1424.45,-23.52 1471.49,-19.17"/>
<polygon fill="midnightblue" stroke="midnightblue" points="1471.88,-22.65 1481.54,-18.3 1471.27,-15.68 1471.88,-22.65"/>
</g>
<!-- Node28 -->
<g id="node28" class="node">
<title>Node28</title>
<g id="a_node28"><a xlink:href="zwapi__session_8c.html#a2875fbfa250b7b25ecb6bc4f0b032cb8" target="_top" xlink:title="Loads the received frames from the serial device into the zwapi_session receive queue.">
<polygon fill="none" stroke="black" points="1146,-327.5 1146,-357.5 1269,-357.5 1269,-327.5 1146,-327.5"/>
<text text-anchor="start" x="1154" y="-345.5" font-family="Helvetica,sans-Serif" font-size="10.00">zwapi_session_enqueue</text>
<text text-anchor="middle" x="1207.5" y="-334.5" font-family="Helvetica,sans-Serif" font-size="10.00">_rx_frames</text>
</a>
</g>
</g>
<!-- Node13&#45;&gt;Node28 -->
<g id="edge32" class="edge">
<title>Node13&#45;&gt;Node28</title>
<path fill="none" stroke="midnightblue" d="M1085.58,-294.59C1107.63,-303.32 1135.57,-314.39 1159.03,-323.69"/>
<polygon fill="midnightblue" stroke="midnightblue" points="1157.86,-326.99 1168.45,-327.42 1160.44,-320.49 1157.86,-326.99"/>
</g>
<!-- Node13&#45;&gt;Node33 -->
<g id="edge45" class="edge">
<title>Node13&#45;&gt;Node33</title>
<path fill="none" stroke="midnightblue" d="M1085.28,-264.39C1093.8,-260.17 1102.52,-255.17 1110,-249.5 1129.32,-234.85 1126.77,-223.28 1146,-208.5 1150.7,-204.88 1155.91,-201.53 1161.24,-198.46"/>
<polygon fill="midnightblue" stroke="midnightblue" points="1163.12,-201.43 1170.26,-193.6 1159.8,-195.27 1163.12,-201.43"/>
</g>
<!-- Node15 -->
<g id="node15" class="node">
<title>Node15</title>
<g id="a_node15"><a xlink:href="zwapi__serial_8c.html#a3f2b3bd848e9fe0e6e137482bed06b46" target="_top" xlink:title="Flush the serial output if using buffered output.">
<polygon fill="none" stroke="black" points="1486.5,-251.5 1486.5,-281.5 1583.5,-281.5 1583.5,-251.5 1486.5,-251.5"/>
<text text-anchor="start" x="1494.5" y="-269.5" font-family="Helvetica,sans-Serif" font-size="10.00">zwapi_serial_drain</text>
<text text-anchor="middle" x="1535" y="-258.5" font-family="Helvetica,sans-Serif" font-size="10.00">_buffer</text>
</a>
</g>
</g>
<!-- Node14&#45;&gt;Node15 -->
<g id="edge15" class="edge">
<title>Node14&#45;&gt;Node15</title>
<path fill="none" stroke="midnightblue" d="M1434.02,-262.82C1447.87,-263.33 1462.47,-263.87 1476.11,-264.37"/>
<polygon fill="midnightblue" stroke="midnightblue" points="1476.2,-267.87 1486.32,-264.74 1476.45,-260.88 1476.2,-267.87"/>
</g>
<!-- Node16 -->
<g id="node16" class="node">
<title>Node16</title>
<g id="a_node16"><a xlink:href="zwapi__serial_8c.html#a7762d0358e9f398b92edbfd6a550984a" target="_top" xlink:title="Write a byte to serial port device.">
<polygon fill="none" stroke="black" points="1478.5,-175 1478.5,-194 1591.5,-194 1591.5,-175 1478.5,-175"/>
<text text-anchor="middle" x="1535" y="-182" font-family="Helvetica,sans-Serif" font-size="10.00">zwapi_serial_put_byte</text>
</a>
</g>
</g>
<!-- Node14&#45;&gt;Node16 -->
<g id="edge16" class="edge">
<title>Node14&#45;&gt;Node16</title>
<path fill="none" stroke="midnightblue" d="M1385.37,-250.92C1404.33,-238.62 1439.05,-217.22 1471,-203.5 1476.31,-201.22 1481.99,-199.1 1487.67,-197.16"/>
<polygon fill="midnightblue" stroke="midnightblue" points="1488.75,-200.49 1497.19,-194.08 1486.6,-193.83 1488.75,-200.49"/>
</g>
<!-- Node20 -->
<g id="node20" class="node">
<title>Node20</title>
<g id="a_node20"><a xlink:href="zwapi__serial_8c.html#aadf3397d0bd2c1657d4b1a373599acfe" target="_top" xlink:title="Closes and re&#45;initialize the last open serial port.">
<polygon fill="none" stroke="black" points="1483,-339 1483,-358 1587,-358 1587,-339 1483,-339"/>
<text text-anchor="middle" x="1535" y="-346" font-family="Helvetica,sans-Serif" font-size="10.00">zwapi_serial_restart</text>
</a>
</g>
</g>
<!-- Node14&#45;&gt;Node20 -->
<g id="edge20" class="edge">
<title>Node14&#45;&gt;Node20</title>
<path fill="none" stroke="midnightblue" d="M1410.33,-270.01C1418.66,-272.62 1427.27,-275.78 1435,-279.5 1464.96,-293.92 1495.82,-316.98 1514.95,-332.42"/>
<polygon fill="midnightblue" stroke="midnightblue" points="1512.92,-335.28 1522.87,-338.92 1517.36,-329.87 1512.92,-335.28"/>
</g>
<!-- Node14&#45;&gt;Node24 -->
<g id="edge24" class="edge">
<title>Node14&#45;&gt;Node24</title>
<path fill="none" stroke="midnightblue" d="M1412.13,-250.91C1433.74,-245.87 1460.41,-239.66 1483.29,-234.32"/>
<polygon fill="midnightblue" stroke="midnightblue" points="1484.22,-237.7 1493.16,-232.02 1482.63,-230.88 1484.22,-237.7"/>
</g>
<!-- Node17 -->
<g id="node17" class="node">
<title>Node17</title>
<g id="a_node17"><a xlink:href="zwapi__serial_8c.html#af9054824651df422bab5076d16a80fda" target="_top" xlink:title="Writes the content of a buffer to the serial port device.">
<polygon fill="none" stroke="black" points="1635,-176 1635,-195 1754,-195 1754,-176 1635,-176"/>
<text text-anchor="middle" x="1694.5" y="-183" font-family="Helvetica,sans-Serif" font-size="10.00">zwapi_serial_put_buffer</text>
</a>
</g>
</g>
<!-- Node16&#45;&gt;Node17 -->
<g id="edge17" class="edge">
<title>Node16&#45;&gt;Node17</title>
<path fill="none" stroke="midnightblue" d="M1591.53,-184.85C1602.24,-184.92 1613.59,-184.99 1624.66,-185.06"/>
<polygon fill="midnightblue" stroke="midnightblue" points="1624.71,-188.56 1634.74,-185.13 1624.76,-181.56 1624.71,-188.56"/>
</g>
<!-- Node18 -->
<g id="node18" class="node">
<title>Node18</title>
<g id="a_node18"><a xlink:href="zwapi__serial_8c.html#a0accbbf7ddb7aeab10f5df1fe3df6642" target="_top" xlink:title=" ">
<polygon fill="none" stroke="black" points="1790,-133 1790,-152 1930,-152 1930,-133 1790,-133"/>
<text text-anchor="middle" x="1860" y="-140" font-family="Helvetica,sans-Serif" font-size="10.00">zwapi_serial_log_timestamp</text>
</a>
</g>
</g>
<!-- Node17&#45;&gt;Node18 -->
<g id="edge18" class="edge">
<title>Node17&#45;&gt;Node18</title>
<path fill="none" stroke="midnightblue" d="M1731.79,-175.96C1755.71,-169.67 1787.24,-161.37 1812.93,-154.62"/>
<polygon fill="midnightblue" stroke="midnightblue" points="1814.03,-157.94 1822.82,-152.02 1812.25,-151.18 1814.03,-157.94"/>
</g>
<!-- Node19 -->
<g id="node19" class="node">
<title>Node19</title>
<g id="a_node19"><a xlink:href="zwapi__serial_8c.html#abf18afb71e14daaf65d937149ef1639f" target="_top" xlink:title="Test if a is less than b + ms.">
<polygon fill="none" stroke="black" points="1806.5,-171.5 1806.5,-201.5 1913.5,-201.5 1913.5,-171.5 1806.5,-171.5"/>
<text text-anchor="start" x="1814.5" y="-189.5" font-family="Helvetica,sans-Serif" font-size="10.00">zwapi_serial_timeval</text>
<text text-anchor="middle" x="1860" y="-178.5" font-family="Helvetica,sans-Serif" font-size="10.00">_a_lt_b_milis</text>
</a>
</g>
</g>
<!-- Node17&#45;&gt;Node19 -->
<g id="edge19" class="edge">
<title>Node17&#45;&gt;Node19</title>
<path fill="none" stroke="midnightblue" d="M1754.07,-185.86C1767.65,-185.94 1782.16,-186.03 1795.92,-186.11"/>
<polygon fill="midnightblue" stroke="midnightblue" points="1796.26,-189.62 1806.28,-186.18 1796.3,-182.62 1796.26,-189.62"/>
</g>
<!-- Node21 -->
<g id="node21" class="node">
<title>Node21</title>
<g id="a_node21"><a xlink:href="zwapi__serial_8c.html#aae586785021ac9a605cd77651429f0c9" target="_top" xlink:title="De&#45;Initialize the serial port.">
<polygon fill="none" stroke="black" points="1645,-358 1645,-377 1744,-377 1744,-358 1645,-358"/>
<text text-anchor="middle" x="1694.5" y="-365" font-family="Helvetica,sans-Serif" font-size="10.00">zwapi_serial_close</text>
</a>
</g>
</g>
<!-- Node20&#45;&gt;Node21 -->
<g id="edge21" class="edge">
<title>Node20&#45;&gt;Node21</title>
<path fill="none" stroke="midnightblue" d="M1587.14,-354.67C1602.31,-356.5 1619.06,-358.52 1634.68,-360.4"/>
<polygon fill="midnightblue" stroke="midnightblue" points="1634.42,-363.9 1644.76,-361.62 1635.25,-356.95 1634.42,-363.9"/>
</g>
<!-- Node22 -->
<g id="node22" class="node">
<title>Node22</title>
<g id="a_node22"><a xlink:href="zwapi__serial_8c.html#a07b09de97f4932d882fc77e191c44638" target="_top" xlink:title="Initialize the serial port to 115200 BAUD 8N1.">
<polygon fill="none" stroke="black" points="1650,-320 1650,-339 1739,-339 1739,-320 1650,-320"/>
<text text-anchor="middle" x="1694.5" y="-327" font-family="Helvetica,sans-Serif" font-size="10.00">zwapi_serial_init</text>
</a>
</g>
</g>
<!-- Node20&#45;&gt;Node22 -->
<g id="edge22" class="edge">
<title>Node20&#45;&gt;Node22</title>
<path fill="none" stroke="midnightblue" d="M1587.14,-342.33C1603.87,-340.31 1622.51,-338.06 1639.46,-336.02"/>
<polygon fill="midnightblue" stroke="midnightblue" points="1640.25,-339.45 1649.76,-334.78 1639.41,-332.5 1640.25,-339.45"/>
</g>
<!-- Node23 -->
<g id="node23" class="node">
<title>Node23</title>
<g id="a_node23"><a xlink:href="zwapi__serial_8c.html#aefeac5909b0bf6411db1492f69c3bc68" target="_top" xlink:title=" ">
<polygon fill="none" stroke="black" points="1800.5,-320 1800.5,-339 1919.5,-339 1919.5,-320 1800.5,-320"/>
<text text-anchor="middle" x="1860" y="-327" font-family="Helvetica,sans-Serif" font-size="10.00">zwapi_open_serial_port</text>
</a>
</g>
</g>
<!-- Node22&#45;&gt;Node23 -->
<g id="edge23" class="edge">
<title>Node22&#45;&gt;Node23</title>
<path fill="none" stroke="midnightblue" d="M1739.31,-329.5C1754.97,-329.5 1773.01,-329.5 1790.26,-329.5"/>
<polygon fill="midnightblue" stroke="midnightblue" points="1790.3,-333 1800.3,-329.5 1790.3,-326 1790.3,-333"/>
</g>
<!-- Node25&#45;&gt;Node15 -->
<g id="edge27" class="edge">
<title>Node25&#45;&gt;Node15</title>
<path fill="none" stroke="midnightblue" d="M1419.46,-288.99C1437.36,-285.47 1457.82,-281.46 1476.44,-277.8"/>
<polygon fill="midnightblue" stroke="midnightblue" points="1477.15,-281.23 1486.28,-275.87 1475.8,-274.36 1477.15,-281.23"/>
</g>
<!-- Node25&#45;&gt;Node17 -->
<g id="edge28" class="edge">
<title>Node25&#45;&gt;Node17</title>
<path fill="none" stroke="midnightblue" d="M1424.42,-307.98C1472.44,-313.95 1543.72,-316.29 1599,-290.5 1638.44,-272.1 1668.61,-228.76 1683.41,-203.9"/>
<polygon fill="midnightblue" stroke="midnightblue" points="1686.53,-205.49 1688.47,-195.07 1680.46,-202 1686.53,-205.49"/>
</g>
<!-- Node25&#45;&gt;Node24 -->
<g id="edge29" class="edge">
<title>Node25&#45;&gt;Node24</title>
<path fill="none" stroke="midnightblue" d="M1414.67,-288.9C1421.74,-286.41 1428.78,-283.32 1435,-279.5 1454.83,-267.33 1451.2,-253.71 1471,-241.5 1474.4,-239.4 1478.05,-237.52 1481.82,-235.84"/>
<polygon fill="midnightblue" stroke="midnightblue" points="1483.34,-239 1491.34,-232.05 1480.76,-232.49 1483.34,-239"/>
</g>
<!-- Node26 -->
<g id="node26" class="node">
<title>Node26</title>
<g id="a_node26"><a xlink:href="zwapi__connection_8c.html#a96d24d537c5b8d6aa0aa6a7638ba2f09" target="_top" xlink:title=" ">
<polygon fill="none" stroke="black" points="1477.5,-377 1477.5,-396 1592.5,-396 1592.5,-377 1477.5,-377"/>
<text text-anchor="middle" x="1535" y="-384" font-family="Helvetica,sans-Serif" font-size="10.00">zwapi_frame_to_string</text>
</a>
</g>
</g>
<!-- Node25&#45;&gt;Node26 -->
<g id="edge26" class="edge">
<title>Node25&#45;&gt;Node26</title>
<path fill="none" stroke="midnightblue" d="M1382.27,-308.05C1400.06,-322.7 1436.22,-350.76 1471,-367.5 1475.64,-369.73 1480.6,-371.77 1485.63,-373.61"/>
<polygon fill="midnightblue" stroke="midnightblue" points="1484.71,-376.99 1495.3,-376.9 1486.96,-370.37 1484.71,-376.99"/>
</g>
<!-- Node28&#45;&gt;Node10 -->
<g id="edge44" class="edge">
<title>Node28&#45;&gt;Node10</title>
<path fill="none" stroke="midnightblue" d="M1239.34,-357.65C1248.86,-362.37 1259.38,-367.62 1269,-372.5 1289.6,-382.96 1312.46,-394.83 1331.13,-404.59"/>
<polygon fill="midnightblue" stroke="midnightblue" points="1329.71,-407.8 1340.19,-409.33 1332.96,-401.6 1329.71,-407.8"/>
</g>
<!-- Node29 -->
<g id="node29" class="node">
<title>Node29</title>
<g id="a_node29"><a xlink:href="zwapi__connection_8c.html#a1e45c6c9695b5e7b415adfad40080720" target="_top" xlink:title="Parses serial data sent from the Z&#45;Wave module to the serial port. Should be frequently called by mai...">
<polygon fill="none" stroke="black" points="1305,-137 1305,-156 1435,-156 1435,-137 1305,-137"/>
<text text-anchor="middle" x="1370" y="-144" font-family="Helvetica,sans-Serif" font-size="10.00">zwapi_connection_refresh</text>
</a>
</g>
</g>
<!-- Node28&#45;&gt;Node29 -->
<g id="edge33" class="edge">
<title>Node28&#45;&gt;Node29</title>
<path fill="none" stroke="midnightblue" d="M1220.83,-327.45C1249.91,-291.93 1322.72,-203.01 1354.16,-164.62"/>
<polygon fill="midnightblue" stroke="midnightblue" points="1357.25,-166.37 1360.88,-156.42 1351.84,-161.93 1357.25,-166.37"/>
</g>
<!-- Node29&#45;&gt;Node15 -->
<g id="edge35" class="edge">
<title>Node29&#45;&gt;Node15</title>
<path fill="none" stroke="midnightblue" d="M1378.87,-156.11C1394.61,-174.82 1431.86,-216.48 1471,-241.5 1473.97,-243.4 1477.1,-245.19 1480.32,-246.88"/>
<polygon fill="midnightblue" stroke="midnightblue" points="1479.03,-250.15 1489.56,-251.37 1482.09,-243.85 1479.03,-250.15"/>
</g>
<!-- Node29&#45;&gt;Node16 -->
<g id="edge42" class="edge">
<title>Node29&#45;&gt;Node16</title>
<path fill="none" stroke="midnightblue" d="M1412.13,-156.09C1433.74,-161.13 1460.41,-167.34 1483.29,-172.68"/>
<polygon fill="midnightblue" stroke="midnightblue" points="1482.63,-176.12 1493.16,-174.98 1484.22,-169.3 1482.63,-176.12"/>
</g>
<!-- Node29&#45;&gt;Node24 -->
<g id="edge43" class="edge">
<title>Node29&#45;&gt;Node24</title>
<path fill="none" stroke="midnightblue" d="M1403.7,-156.04C1414.1,-159.78 1425.39,-164.6 1435,-170.5 1453.5,-181.85 1452.14,-192.76 1471,-203.5 1474.85,-205.69 1478.97,-207.65 1483.2,-209.4"/>
<polygon fill="midnightblue" stroke="midnightblue" points="1481.97,-212.68 1492.56,-212.91 1484.43,-206.13 1481.97,-212.68"/>
</g>
<!-- Node29&#45;&gt;Node27 -->
<g id="edge34" class="edge">
<title>Node29&#45;&gt;Node27</title>
<path fill="none" stroke="midnightblue" d="M1393.55,-136.96C1406.88,-130.46 1423.36,-120.79 1435,-108.5 1458.78,-83.38 1445.15,-62.49 1471,-39.5 1472.32,-38.32 1473.71,-37.2 1475.15,-36.13"/>
<polygon fill="midnightblue" stroke="midnightblue" points="1477.31,-38.9 1483.86,-30.58 1473.55,-33 1477.31,-38.9"/>
</g>
<!-- Node30 -->
<g id="node30" class="node">
<title>Node30</title>
<g id="a_node30"><a xlink:href="zwapi__serial_8c.html#a538134f9fdbb1ce052667b3a041357bd" target="_top" xlink:title="Reads the output of the serial port device and stores the content in a buffer.">
<polygon fill="none" stroke="black" points="1635,-136 1635,-155 1754,-155 1754,-136 1635,-136"/>
<text text-anchor="middle" x="1694.5" y="-143" font-family="Helvetica,sans-Serif" font-size="10.00">zwapi_serial_get_buffer</text>
</a>
</g>
</g>
<!-- Node29&#45;&gt;Node30 -->
<g id="edge36" class="edge">
<title>Node29&#45;&gt;Node30</title>
<path fill="none" stroke="midnightblue" d="M1435.1,-146.3C1489.92,-146.13 1568.62,-145.89 1624.74,-145.71"/>
<polygon fill="midnightblue" stroke="midnightblue" points="1624.96,-149.21 1634.95,-145.68 1624.93,-142.21 1624.96,-149.21"/>
</g>
<!-- Node31 -->
<g id="node31" class="node">
<title>Node31</title>
<g id="a_node31"><a xlink:href="zwapi__serial_8c.html#abb082b1e7e727203e3ca5fbeb41f7c2b" target="_top" xlink:title="Reads a byte from the serial port device.">
<polygon fill="none" stroke="black" points="1478.5,-99 1478.5,-118 1591.5,-118 1591.5,-99 1478.5,-99"/>
<text text-anchor="middle" x="1535" y="-106" font-family="Helvetica,sans-Serif" font-size="10.00">zwapi_serial_get_byte</text>
</a>
</g>
</g>
<!-- Node29&#45;&gt;Node31 -->
<g id="edge39" class="edge">
<title>Node29&#45;&gt;Node31</title>
<path fill="none" stroke="midnightblue" d="M1412.13,-136.91C1433.74,-131.87 1460.41,-125.66 1483.29,-120.32"/>
<polygon fill="midnightblue" stroke="midnightblue" points="1484.22,-123.7 1493.16,-118.02 1482.63,-116.88 1484.22,-123.7"/>
</g>
<!-- Node32 -->
<g id="node32" class="node">
<title>Node32</title>
<g id="a_node32"><a xlink:href="zwapi__serial_8c.html#a9a952dc2b34d92960246f6dc4e7d58f7" target="_top" xlink:title="Check the file descriptor for the serial device is available for I/O operations.">
<polygon fill="none" stroke="black" points="1484.5,-49.5 1484.5,-79.5 1585.5,-79.5 1585.5,-49.5 1484.5,-49.5"/>
<text text-anchor="start" x="1492.5" y="-67.5" font-family="Helvetica,sans-Serif" font-size="10.00">zwapi_serial_is_file</text>
<text text-anchor="middle" x="1535" y="-56.5" font-family="Helvetica,sans-Serif" font-size="10.00">_available</text>
</a>
</g>
</g>
<!-- Node29&#45;&gt;Node32 -->
<g id="edge41" class="edge">
<title>Node29&#45;&gt;Node32</title>
<path fill="none" stroke="midnightblue" d="M1387.13,-136.94C1410.98,-122.86 1454.61,-97.38 1471,-89.5 1475.28,-87.44 1479.78,-85.41 1484.32,-83.45"/>
<polygon fill="midnightblue" stroke="midnightblue" points="1485.78,-86.64 1493.64,-79.54 1483.07,-80.18 1485.78,-86.64"/>
</g>
<!-- Node30&#45;&gt;Node18 -->
<g id="edge37" class="edge">
<title>Node30&#45;&gt;Node18</title>
<path fill="none" stroke="midnightblue" d="M1754.07,-144.43C1762.43,-144.27 1771.15,-144.11 1779.82,-143.95"/>
<polygon fill="midnightblue" stroke="midnightblue" points="1780.04,-147.45 1789.97,-143.77 1779.91,-140.45 1780.04,-147.45"/>
</g>
<!-- Node30&#45;&gt;Node19 -->
<g id="edge38" class="edge">
<title>Node30&#45;&gt;Node19</title>
<path fill="none" stroke="midnightblue" d="M1733.42,-155.01C1752.15,-159.71 1775.24,-165.5 1796.49,-170.82"/>
<polygon fill="midnightblue" stroke="midnightblue" points="1795.87,-174.28 1806.42,-173.32 1797.58,-167.49 1795.87,-174.28"/>
</g>
<!-- Node31&#45;&gt;Node30 -->
<g id="edge40" class="edge">
<title>Node31&#45;&gt;Node30</title>
<path fill="none" stroke="midnightblue" d="M1576.56,-118.03C1596.78,-122.78 1621.44,-128.57 1642.88,-133.61"/>
<polygon fill="midnightblue" stroke="midnightblue" points="1642.27,-137.06 1652.8,-135.94 1643.87,-130.25 1642.27,-137.06"/>
</g>
<!-- Node33&#45;&gt;Node24 -->
<g id="edge48" class="edge">
<title>Node33&#45;&gt;Node24</title>
<path fill="none" stroke="midnightblue" d="M1259.79,-185.16C1305.71,-191.16 1374.87,-200.27 1435,-208.5 1445.86,-209.99 1457.39,-211.59 1468.6,-213.17"/>
<polygon fill="midnightblue" stroke="midnightblue" points="1468.38,-216.67 1478.77,-214.6 1469.36,-209.74 1468.38,-216.67"/>
</g>
<!-- Node33&#45;&gt;Node27 -->
<g id="edge47" class="edge">
<title>Node33&#45;&gt;Node27</title>
<path fill="none" stroke="midnightblue" d="M1234.42,-163.4C1280.92,-136.62 1381.99,-79.84 1471,-39.5 1474.84,-37.76 1478.84,-36.04 1482.89,-34.36"/>
<polygon fill="midnightblue" stroke="midnightblue" points="1484.4,-37.52 1492.36,-30.53 1481.77,-31.03 1484.4,-37.52"/>
</g>
<!-- Node33&#45;&gt;Node29 -->
<g id="edge46" class="edge">
<title>Node33&#45;&gt;Node29</title>
<path fill="none" stroke="midnightblue" d="M1259.72,-168.29C1276.06,-165.03 1294.25,-161.4 1311.02,-158.06"/>
<polygon fill="midnightblue" stroke="midnightblue" points="1312.14,-161.41 1321.26,-156.02 1310.77,-154.54 1312.14,-161.41"/>
</g>
</g>
</svg>
