<?xml version="1.0" encoding="UTF-8" standalone="no"?>
<!DOCTYPE svg PUBLIC "-//W3C//DTD SVG 1.1//EN"
 "http://www.w3.org/Graphics/SVG/1.1/DTD/svg11.dtd">
<!-- Generated by graphviz version 2.43.0 (0)
 -->
<!-- Title: applications/zpc/components/zwave_command_classes/src/zwave_command_class_switch_color.h Pages: 1 -->
<svg width="344pt" height="139pt"
 viewBox="0.00 0.00 344.00 139.00" xmlns="http://www.w3.org/2000/svg" xmlns:xlink="http://www.w3.org/1999/xlink">
<g id="graph0" class="graph" transform="scale(1 1) rotate(0) translate(4 135)">
<title>applications/zpc/components/zwave_command_classes/src/zwave_command_class_switch_color.h</title>
<!-- Node1 -->
<g id="node1" class="node">
<title>Node1</title>
<g id="a_node1"><a xlink:title=" ">
<polygon fill="#bfbfbf" stroke="black" points="70,-89.5 70,-130.5 262,-130.5 262,-89.5 70,-89.5"/>
<text text-anchor="start" x="78" y="-118.5" font-family="Helvetica,sans-Serif" font-size="10.00">applications/zpc/components</text>
<text text-anchor="start" x="78" y="-107.5" font-family="Helvetica,sans-Serif" font-size="10.00">/zwave_command_classes/src</text>
<text text-anchor="middle" x="166" y="-96.5" font-family="Helvetica,sans-Serif" font-size="10.00">/zwave_command_class_switch_color.h</text>
</a>
</g>
</g>
<!-- Node2 -->
<g id="node2" class="node">
<title>Node2</title>
<g id="a_node2"><a xlink:href="zwave__command__class__scene__activation__control_8c.html" target="_top" xlink:title=" ">
<polygon fill="none" stroke="black" points="0,-0.5 0,-52.5 156,-52.5 156,-0.5 0,-0.5"/>
<text text-anchor="start" x="8" y="-40.5" font-family="Helvetica,sans-Serif" font-size="10.00">applications/zpc/components</text>
<text text-anchor="start" x="8" y="-29.5" font-family="Helvetica,sans-Serif" font-size="10.00">/zwave_command_classes/src</text>
<text text-anchor="start" x="8" y="-18.5" font-family="Helvetica,sans-Serif" font-size="10.00">/zwave_command_class_scene</text>
<text text-anchor="middle" x="78" y="-7.5" font-family="Helvetica,sans-Serif" font-size="10.00">_activation_control.c</text>
</a>
</g>
</g>
<!-- Node1&#45;&gt;Node2 -->
<g id="edge1" class="edge">
<title>Node1&#45;&gt;Node2</title>
<path fill="none" stroke="midnightblue" d="M137.11,-82.24C126.81,-72.71 115.25,-62 105.11,-52.61"/>
<polygon fill="midnightblue" stroke="midnightblue" points="134.98,-85.04 144.7,-89.27 139.74,-79.91 134.98,-85.04"/>
</g>
<!-- Node3 -->
<g id="node3" class="node">
<title>Node3</title>
<g id="a_node3"><a xlink:href="zwave__command__classes__fixt_8c.html" target="_top" xlink:title=" ">
<polygon fill="none" stroke="black" points="174,-6 174,-47 336,-47 336,-6 174,-6"/>
<text text-anchor="start" x="182" y="-35" font-family="Helvetica,sans-Serif" font-size="10.00">applications/zpc/components</text>
<text text-anchor="start" x="182" y="-24" font-family="Helvetica,sans-Serif" font-size="10.00">/zwave_command_classes/src</text>
<text text-anchor="middle" x="255" y="-13" font-family="Helvetica,sans-Serif" font-size="10.00">/zwave_command_classes_fixt.c</text>
</a>
</g>
</g>
<!-- Node1&#45;&gt;Node3 -->
<g id="edge2" class="edge">
<title>Node1&#45;&gt;Node3</title>
<path fill="none" stroke="midnightblue" d="M195.09,-82.36C207.66,-70.85 222.1,-57.63 233.65,-47.05"/>
<polygon fill="midnightblue" stroke="midnightblue" points="192.56,-79.94 187.54,-89.27 197.28,-85.1 192.56,-79.94"/>
</g>
</g>
</svg>
