<?xml version="1.0" encoding="UTF-8" standalone="no"?>
<!DOCTYPE svg PUBLIC "-//W3C//DTD SVG 1.1//EN"
 "http://www.w3.org/Graphics/SVG/1.1/DTD/svg11.dtd">
<!-- Generated by graphviz version 2.43.0 (0)
 -->
<!-- Title: applications/zpc/components/zwave_command_handler/include/zwave_command_handler.h Pages: 1 -->
<svg width="6610pt" height="139pt"
 viewBox="0.00 0.00 6609.50 139.00" xmlns="http://www.w3.org/2000/svg" xmlns:xlink="http://www.w3.org/1999/xlink">
<g id="graph0" class="graph" transform="scale(1 1) rotate(0) translate(4 135)">
<title>applications/zpc/components/zwave_command_handler/include/zwave_command_handler.h</title>
<!-- Node1 -->
<g id="node1" class="node">
<title>Node1</title>
<g id="a_node1"><a xlink:title=" ">
<polygon fill="#bfbfbf" stroke="black" points="3158.5,-89.5 3158.5,-130.5 3325.5,-130.5 3325.5,-89.5 3158.5,-89.5"/>
<text text-anchor="start" x="3166.5" y="-118.5" font-family="Helvetica,sans-Serif" font-size="10.00">applications/zpc/components</text>
<text text-anchor="start" x="3166.5" y="-107.5" font-family="Helvetica,sans-Serif" font-size="10.00">/zwave_command_handler/include</text>
<text text-anchor="middle" x="3242" y="-96.5" font-family="Helvetica,sans-Serif" font-size="10.00">/zwave_command_handler.h</text>
</a>
</g>
</g>
<!-- Node2 -->
<g id="node2" class="node">
<title>Node2</title>
<g id="a_node2"><a xlink:href="zwave__command__class__alarm__sensor_8c.html" target="_top" xlink:title=" ">
<polygon fill="none" stroke="black" points="0,-0.5 0,-52.5 154,-52.5 154,-0.5 0,-0.5"/>
<text text-anchor="start" x="8" y="-40.5" font-family="Helvetica,sans-Serif" font-size="10.00">applications/zpc/components</text>
<text text-anchor="start" x="8" y="-29.5" font-family="Helvetica,sans-Serif" font-size="10.00">/zwave_command_classes/src</text>
<text text-anchor="start" x="8" y="-18.5" font-family="Helvetica,sans-Serif" font-size="10.00">/zwave_command_class_alarm</text>
<text text-anchor="middle" x="77" y="-7.5" font-family="Helvetica,sans-Serif" font-size="10.00">_sensor.c</text>
</a>
</g>
</g>
<!-- Node1&#45;&gt;Node2 -->
<g id="edge1" class="edge">
<title>Node1&#45;&gt;Node2</title>
<path fill="none" stroke="midnightblue" d="M3148.39,-108.8C2665.17,-107.57 463.76,-99.45 163,-53 160.08,-52.55 157.11,-52.02 154.13,-51.44"/>
<polygon fill="midnightblue" stroke="midnightblue" points="3148.46,-112.3 3158.47,-108.83 3148.48,-105.3 3148.46,-112.3"/>
</g>
<!-- Node3 -->
<g id="node3" class="node">
<title>Node3</title>
<g id="a_node3"><a xlink:href="zwave__command__class__barrier__operator_8c.html" target="_top" xlink:title=" ">
<polygon fill="none" stroke="black" points="172.5,-0.5 172.5,-52.5 329.5,-52.5 329.5,-0.5 172.5,-0.5"/>
<text text-anchor="start" x="180.5" y="-40.5" font-family="Helvetica,sans-Serif" font-size="10.00">applications/zpc/components</text>
<text text-anchor="start" x="180.5" y="-29.5" font-family="Helvetica,sans-Serif" font-size="10.00">/zwave_command_classes/src</text>
<text text-anchor="start" x="180.5" y="-18.5" font-family="Helvetica,sans-Serif" font-size="10.00">/zwave_command_class_barrier</text>
<text text-anchor="middle" x="251" y="-7.5" font-family="Helvetica,sans-Serif" font-size="10.00">_operator.c</text>
</a>
</g>
</g>
<!-- Node1&#45;&gt;Node3 -->
<g id="edge2" class="edge">
<title>Node1&#45;&gt;Node3</title>
<path fill="none" stroke="midnightblue" d="M3148.08,-108.67C2681.13,-106.84 620.57,-96.34 338,-53 335.2,-52.57 332.36,-52.08 329.51,-51.53"/>
<polygon fill="midnightblue" stroke="midnightblue" points="3148.14,-112.17 3158.16,-108.71 3148.17,-105.17 3148.14,-112.17"/>
</g>
<!-- Node4 -->
<g id="node4" class="node">
<title>Node4</title>
<g id="a_node4"><a xlink:href="zwave__command__class__basic_8c.html" target="_top" xlink:title=" ">
<polygon fill="none" stroke="black" points="347.5,-6 347.5,-47 508.5,-47 508.5,-6 347.5,-6"/>
<text text-anchor="start" x="355.5" y="-35" font-family="Helvetica,sans-Serif" font-size="10.00">applications/zpc/components</text>
<text text-anchor="start" x="355.5" y="-24" font-family="Helvetica,sans-Serif" font-size="10.00">/zwave_command_classes/src</text>
<text text-anchor="middle" x="428" y="-13" font-family="Helvetica,sans-Serif" font-size="10.00">/zwave_command_class_basic.c</text>
</a>
</g>
</g>
<!-- Node1&#45;&gt;Node4 -->
<g id="edge3" class="edge">
<title>Node1&#45;&gt;Node4</title>
<path fill="none" stroke="midnightblue" d="M3148.45,-108.51C2699.99,-105.98 781.17,-92.87 517,-53 507.62,-51.58 497.84,-49.47 488.34,-47.05"/>
<polygon fill="midnightblue" stroke="midnightblue" points="3148.43,-112.01 3158.45,-108.57 3148.47,-105.01 3148.43,-112.01"/>
</g>
<!-- Node5 -->
<g id="node5" class="node">
<title>Node5</title>
<g id="a_node5"><a xlink:href="zwave__command__class__central__scene_8c.html" target="_top" xlink:title=" ">
<polygon fill="none" stroke="black" points="526.5,-6 526.5,-47 725.5,-47 725.5,-6 526.5,-6"/>
<text text-anchor="start" x="534.5" y="-35" font-family="Helvetica,sans-Serif" font-size="10.00">applications/zpc/components</text>
<text text-anchor="start" x="534.5" y="-24" font-family="Helvetica,sans-Serif" font-size="10.00">/zwave_command_classes/src</text>
<text text-anchor="middle" x="626" y="-13" font-family="Helvetica,sans-Serif" font-size="10.00">/zwave_command_class_central_scene.c</text>
</a>
</g>
</g>
<!-- Node1&#45;&gt;Node5 -->
<g id="edge4" class="edge">
<title>Node1&#45;&gt;Node5</title>
<path fill="none" stroke="midnightblue" d="M3148.38,-108.07C2722.27,-103.69 976.46,-83.98 734,-53 722.73,-51.56 710.91,-49.43 699.4,-47"/>
<polygon fill="midnightblue" stroke="midnightblue" points="3148.46,-111.57 3158.5,-108.18 3148.54,-104.57 3148.46,-111.57"/>
</g>
<!-- Node6 -->
<g id="node6" class="node">
<title>Node6</title>
<g id="a_node6"><a xlink:href="zwave__command__class__configuration__control_8c.html" target="_top" xlink:title=" ">
<polygon fill="none" stroke="black" points="743.5,-0.5 743.5,-52.5 928.5,-52.5 928.5,-0.5 743.5,-0.5"/>
<text text-anchor="start" x="751.5" y="-40.5" font-family="Helvetica,sans-Serif" font-size="10.00">applications/zpc/components</text>
<text text-anchor="start" x="751.5" y="-29.5" font-family="Helvetica,sans-Serif" font-size="10.00">/zwave_command_classes/src</text>
<text text-anchor="start" x="751.5" y="-18.5" font-family="Helvetica,sans-Serif" font-size="10.00">/zwave_command_class_configuration</text>
<text text-anchor="middle" x="836" y="-7.5" font-family="Helvetica,sans-Serif" font-size="10.00">_control.c</text>
</a>
</g>
</g>
<!-- Node1&#45;&gt;Node6 -->
<g id="edge5" class="edge">
<title>Node1&#45;&gt;Node6</title>
<path fill="none" stroke="midnightblue" d="M3148.08,-107.96C2743.27,-103.28 1158.12,-83.21 937,-53 934.22,-52.62 931.41,-52.19 928.58,-51.73"/>
<polygon fill="midnightblue" stroke="midnightblue" points="3148.24,-111.46 3158.28,-108.07 3148.32,-104.46 3148.24,-111.46"/>
</g>
<!-- Node7 -->
<g id="node7" class="node">
<title>Node7</title>
<g id="a_node7"><a xlink:href="zwave__command__class__humidity__control__mode_8c.html" target="_top" xlink:title=" ">
<polygon fill="none" stroke="black" points="946.5,-0.5 946.5,-52.5 1113.5,-52.5 1113.5,-0.5 946.5,-0.5"/>
<text text-anchor="start" x="954.5" y="-40.5" font-family="Helvetica,sans-Serif" font-size="10.00">applications/zpc/components</text>
<text text-anchor="start" x="954.5" y="-29.5" font-family="Helvetica,sans-Serif" font-size="10.00">/zwave_command_classes/src</text>
<text text-anchor="start" x="954.5" y="-18.5" font-family="Helvetica,sans-Serif" font-size="10.00">/zwave_command_class_humidity</text>
<text text-anchor="middle" x="1030" y="-7.5" font-family="Helvetica,sans-Serif" font-size="10.00">_control_mode.c</text>
</a>
</g>
</g>
<!-- Node1&#45;&gt;Node7 -->
<g id="edge6" class="edge">
<title>Node1&#45;&gt;Node7</title>
<path fill="none" stroke="midnightblue" d="M3148.08,-107.87C2764,-103.06 1323.68,-83.15 1122,-53 1119.21,-52.58 1116.39,-52.11 1113.55,-51.59"/>
<polygon fill="midnightblue" stroke="midnightblue" points="3148.27,-111.37 3158.32,-108 3148.36,-104.37 3148.27,-111.37"/>
</g>
<!-- Node8 -->
<g id="node8" class="node">
<title>Node8</title>
<g id="a_node8"><a xlink:href="zwave__command__class__humidity__control__operating__state_8c.html" target="_top" xlink:title=" ">
<polygon fill="none" stroke="black" points="1131.5,-0.5 1131.5,-52.5 1298.5,-52.5 1298.5,-0.5 1131.5,-0.5"/>
<text text-anchor="start" x="1139.5" y="-40.5" font-family="Helvetica,sans-Serif" font-size="10.00">applications/zpc/components</text>
<text text-anchor="start" x="1139.5" y="-29.5" font-family="Helvetica,sans-Serif" font-size="10.00">/zwave_command_classes/src</text>
<text text-anchor="start" x="1139.5" y="-18.5" font-family="Helvetica,sans-Serif" font-size="10.00">/zwave_command_class_humidity</text>
<text text-anchor="middle" x="1215" y="-7.5" font-family="Helvetica,sans-Serif" font-size="10.00">_control_operating_state.c</text>
</a>
</g>
</g>
<!-- Node1&#45;&gt;Node8 -->
<g id="edge7" class="edge">
<title>Node1&#45;&gt;Node8</title>
<path fill="none" stroke="midnightblue" d="M3148.09,-109.28C2811.77,-109.81 1668.29,-107.48 1307,-53 1304.21,-52.58 1301.39,-52.1 1298.55,-51.58"/>
<polygon fill="midnightblue" stroke="midnightblue" points="3148.29,-112.78 3158.28,-109.26 3148.27,-105.78 3148.29,-112.78"/>
</g>
<!-- Node9 -->
<g id="node9" class="node">
<title>Node9</title>
<g id="a_node9"><a xlink:href="zwave__command__class__humidity__control__setpoint_8c.html" target="_top" xlink:title=" ">
<polygon fill="none" stroke="black" points="1316.5,-0.5 1316.5,-52.5 1483.5,-52.5 1483.5,-0.5 1316.5,-0.5"/>
<text text-anchor="start" x="1324.5" y="-40.5" font-family="Helvetica,sans-Serif" font-size="10.00">applications/zpc/components</text>
<text text-anchor="start" x="1324.5" y="-29.5" font-family="Helvetica,sans-Serif" font-size="10.00">/zwave_command_classes/src</text>
<text text-anchor="start" x="1324.5" y="-18.5" font-family="Helvetica,sans-Serif" font-size="10.00">/zwave_command_class_humidity</text>
<text text-anchor="middle" x="1400" y="-7.5" font-family="Helvetica,sans-Serif" font-size="10.00">_control_setpoint.c</text>
</a>
</g>
</g>
<!-- Node1&#45;&gt;Node9 -->
<g id="edge8" class="edge">
<title>Node1&#45;&gt;Node9</title>
<path fill="none" stroke="midnightblue" d="M3147.97,-108.91C2832.95,-108.13 1816.39,-101.81 1493,-53 1489.94,-52.54 1486.83,-52.01 1483.71,-51.43"/>
<polygon fill="midnightblue" stroke="midnightblue" points="3148.43,-112.41 3158.44,-108.93 3148.44,-105.41 3148.43,-112.41"/>
</g>
<!-- Node10 -->
<g id="node10" class="node">
<title>Node10</title>
<g id="a_node10"><a xlink:href="zwave__command__class__indicator_8c.html" target="_top" xlink:title=" ">
<polygon fill="none" stroke="black" points="1502,-6 1502,-47 1676,-47 1676,-6 1502,-6"/>
<text text-anchor="start" x="1510" y="-35" font-family="Helvetica,sans-Serif" font-size="10.00">applications/zpc/components</text>
<text text-anchor="start" x="1510" y="-24" font-family="Helvetica,sans-Serif" font-size="10.00">/zwave_command_classes/src</text>
<text text-anchor="middle" x="1589" y="-13" font-family="Helvetica,sans-Serif" font-size="10.00">/zwave_command_class_indicator.c</text>
</a>
</g>
</g>
<!-- Node1&#45;&gt;Node10 -->
<g id="edge9" class="edge">
<title>Node1&#45;&gt;Node10</title>
<path fill="none" stroke="midnightblue" d="M3147.97,-108.37C2856.32,-105.99 1969.56,-95.36 1685,-53 1675.11,-51.53 1664.77,-49.41 1654.7,-47.02"/>
<polygon fill="midnightblue" stroke="midnightblue" points="3148.06,-111.87 3158.09,-108.45 3148.12,-104.87 3148.06,-111.87"/>
</g>
<!-- Node11 -->
<g id="node11" class="node">
<title>Node11</title>
<g id="a_node11"><a xlink:href="zwave__command__class__manufacturer__specific_8c.html" target="_top" xlink:title=" ">
<polygon fill="none" stroke="black" points="1694.5,-0.5 1694.5,-52.5 1881.5,-52.5 1881.5,-0.5 1694.5,-0.5"/>
<text text-anchor="start" x="1702.5" y="-40.5" font-family="Helvetica,sans-Serif" font-size="10.00">applications/zpc/components</text>
<text text-anchor="start" x="1702.5" y="-29.5" font-family="Helvetica,sans-Serif" font-size="10.00">/zwave_command_classes/src</text>
<text text-anchor="start" x="1702.5" y="-18.5" font-family="Helvetica,sans-Serif" font-size="10.00">/zwave_command_class_manufacturer</text>
<text text-anchor="middle" x="1788" y="-7.5" font-family="Helvetica,sans-Serif" font-size="10.00">_specific.c</text>
</a>
</g>
</g>
<!-- Node1&#45;&gt;Node11 -->
<g id="edge10" class="edge">
<title>Node1&#45;&gt;Node11</title>
<path fill="none" stroke="midnightblue" d="M3147.84,-107.59C2882.7,-103.24 2133.36,-88.09 1890,-53 1887.2,-52.6 1884.36,-52.15 1881.51,-51.66"/>
<polygon fill="midnightblue" stroke="midnightblue" points="3148.15,-111.1 3158.21,-107.76 3148.26,-104.1 3148.15,-111.1"/>
</g>
<!-- Node12 -->
<g id="node12" class="node">
<title>Node12</title>
<g id="a_node12"><a xlink:href="zwave__command__class__meter__control_8c.html" target="_top" xlink:title=" ">
<polygon fill="none" stroke="black" points="1899.5,-0.5 1899.5,-52.5 2054.5,-52.5 2054.5,-0.5 1899.5,-0.5"/>
<text text-anchor="start" x="1907.5" y="-40.5" font-family="Helvetica,sans-Serif" font-size="10.00">applications/zpc/components</text>
<text text-anchor="start" x="1907.5" y="-29.5" font-family="Helvetica,sans-Serif" font-size="10.00">/zwave_command_classes/src</text>
<text text-anchor="start" x="1907.5" y="-18.5" font-family="Helvetica,sans-Serif" font-size="10.00">/zwave_command_class_meter</text>
<text text-anchor="middle" x="1977" y="-7.5" font-family="Helvetica,sans-Serif" font-size="10.00">_control.c</text>
</a>
</g>
</g>
<!-- Node1&#45;&gt;Node12 -->
<g id="edge11" class="edge">
<title>Node1&#45;&gt;Node12</title>
<path fill="none" stroke="midnightblue" d="M3148.25,-107.42C2907.51,-102.89 2271.89,-87.9 2064,-53 2060.9,-52.48 2057.75,-51.88 2054.57,-51.23"/>
<polygon fill="midnightblue" stroke="midnightblue" points="3148.32,-110.92 3158.38,-107.6 3148.45,-103.92 3148.32,-110.92"/>
</g>
<!-- Node13 -->
<g id="node13" class="node">
<title>Node13</title>
<g id="a_node13"><a xlink:href="zwave__command__class__multi__channel_8c.html" target="_top" xlink:title=" ">
<polygon fill="none" stroke="black" points="2073,-0.5 2073,-52.5 2225,-52.5 2225,-0.5 2073,-0.5"/>
<text text-anchor="start" x="2081" y="-40.5" font-family="Helvetica,sans-Serif" font-size="10.00">applications/zpc/components</text>
<text text-anchor="start" x="2081" y="-29.5" font-family="Helvetica,sans-Serif" font-size="10.00">/zwave_command_classes/src</text>
<text text-anchor="start" x="2081" y="-18.5" font-family="Helvetica,sans-Serif" font-size="10.00">/zwave_command_class_multi</text>
<text text-anchor="middle" x="2149" y="-7.5" font-family="Helvetica,sans-Serif" font-size="10.00">_channel.c</text>
</a>
</g>
</g>
<!-- Node1&#45;&gt;Node13 -->
<g id="edge12" class="edge">
<title>Node1&#45;&gt;Node13</title>
<path fill="none" stroke="midnightblue" d="M3148.21,-106.62C2932.82,-100.68 2407.98,-83.49 2234,-53 2231.12,-52.49 2228.19,-51.92 2225.25,-51.3"/>
<polygon fill="midnightblue" stroke="midnightblue" points="3148.14,-110.11 3158.23,-106.89 3148.33,-103.12 3148.14,-110.11"/>
</g>
<!-- Node14 -->
<g id="node14" class="node">
<title>Node14</title>
<g id="a_node14"><a xlink:href="zwave__command__class__multi__command_8c.html" target="_top" xlink:title=" ">
<polygon fill="none" stroke="black" points="2243,-0.5 2243,-52.5 2395,-52.5 2395,-0.5 2243,-0.5"/>
<text text-anchor="start" x="2251" y="-40.5" font-family="Helvetica,sans-Serif" font-size="10.00">applications/zpc/components</text>
<text text-anchor="start" x="2251" y="-29.5" font-family="Helvetica,sans-Serif" font-size="10.00">/zwave_command_classes/src</text>
<text text-anchor="start" x="2251" y="-18.5" font-family="Helvetica,sans-Serif" font-size="10.00">/zwave_command_class_multi</text>
<text text-anchor="middle" x="2319" y="-7.5" font-family="Helvetica,sans-Serif" font-size="10.00">_command.c</text>
</a>
</g>
</g>
<!-- Node1&#45;&gt;Node14 -->
<g id="edge13" class="edge">
<title>Node1&#45;&gt;Node14</title>
<path fill="none" stroke="midnightblue" d="M3148.26,-109.57C2992.46,-108.99 2670.93,-101.32 2404,-53 2401.12,-52.48 2398.2,-51.89 2395.26,-51.26"/>
<polygon fill="midnightblue" stroke="midnightblue" points="3148.27,-113.07 3158.28,-109.59 3148.29,-106.07 3148.27,-113.07"/>
</g>
<!-- Node15 -->
<g id="node15" class="node">
<title>Node15</title>
<g id="a_node15"><a xlink:href="zwave__command__class__multilevel__sensor_8c.html" target="_top" xlink:title=" ">
<polygon fill="none" stroke="black" points="2413.5,-0.5 2413.5,-52.5 2584.5,-52.5 2584.5,-0.5 2413.5,-0.5"/>
<text text-anchor="start" x="2421.5" y="-40.5" font-family="Helvetica,sans-Serif" font-size="10.00">applications/zpc/components</text>
<text text-anchor="start" x="2421.5" y="-29.5" font-family="Helvetica,sans-Serif" font-size="10.00">/zwave_command_classes/src</text>
<text text-anchor="start" x="2421.5" y="-18.5" font-family="Helvetica,sans-Serif" font-size="10.00">/zwave_command_class_multilevel</text>
<text text-anchor="middle" x="2499" y="-7.5" font-family="Helvetica,sans-Serif" font-size="10.00">_sensor.c</text>
</a>
</g>
</g>
<!-- Node1&#45;&gt;Node15 -->
<g id="edge14" class="edge">
<title>Node1&#45;&gt;Node15</title>
<path fill="none" stroke="midnightblue" d="M3148.33,-106.17C3021.56,-101.15 2788.7,-87.7 2593,-53 2590.25,-52.51 2587.47,-51.98 2584.67,-51.42"/>
<polygon fill="midnightblue" stroke="midnightblue" points="3148.27,-109.67 3158.4,-106.56 3148.54,-102.68 3148.27,-109.67"/>
</g>
<!-- Node16 -->
<g id="node16" class="node">
<title>Node16</title>
<g id="a_node16"><a xlink:href="zwave__command__class__powerlevel_8c.html" target="_top" xlink:title=" ">
<polygon fill="none" stroke="black" points="2602.5,-6 2602.5,-47 2787.5,-47 2787.5,-6 2602.5,-6"/>
<text text-anchor="start" x="2610.5" y="-35" font-family="Helvetica,sans-Serif" font-size="10.00">applications/zpc/components</text>
<text text-anchor="start" x="2610.5" y="-24" font-family="Helvetica,sans-Serif" font-size="10.00">/zwave_command_classes/src</text>
<text text-anchor="middle" x="2695" y="-13" font-family="Helvetica,sans-Serif" font-size="10.00">/zwave_command_class_powerlevel.c</text>
</a>
</g>
</g>
<!-- Node1&#45;&gt;Node16 -->
<g id="edge15" class="edge">
<title>Node1&#45;&gt;Node16</title>
<path fill="none" stroke="midnightblue" d="M3148.34,-100.51C3057.94,-91.53 2917.43,-75.55 2797,-53 2787.76,-51.27 2778.11,-49.2 2768.59,-47.01"/>
<polygon fill="midnightblue" stroke="midnightblue" points="3148,-103.99 3158.29,-101.49 3148.68,-97.02 3148,-103.99"/>
</g>
<!-- Node17 -->
<g id="node17" class="node">
<title>Node17</title>
<g id="a_node17"><a xlink:href="zwave__command__class__scene__activation__control_8c.html" target="_top" xlink:title=" ">
<polygon fill="none" stroke="black" points="2806,-0.5 2806,-52.5 2962,-52.5 2962,-0.5 2806,-0.5"/>
<text text-anchor="start" x="2814" y="-40.5" font-family="Helvetica,sans-Serif" font-size="10.00">applications/zpc/components</text>
<text text-anchor="start" x="2814" y="-29.5" font-family="Helvetica,sans-Serif" font-size="10.00">/zwave_command_classes/src</text>
<text text-anchor="start" x="2814" y="-18.5" font-family="Helvetica,sans-Serif" font-size="10.00">/zwave_command_class_scene</text>
<text text-anchor="middle" x="2884" y="-7.5" font-family="Helvetica,sans-Serif" font-size="10.00">_activation_control.c</text>
</a>
</g>
</g>
<!-- Node1&#45;&gt;Node17 -->
<g id="edge16" class="edge">
<title>Node1&#45;&gt;Node17</title>
<path fill="none" stroke="midnightblue" d="M3148.33,-91.59C3095.93,-81.37 3029.57,-67.61 2971,-53 2968.1,-52.28 2965.15,-51.52 2962.17,-50.74"/>
<polygon fill="midnightblue" stroke="midnightblue" points="3147.79,-95.05 3158.28,-93.52 3149.13,-88.18 3147.79,-95.05"/>
</g>
<!-- Node18 -->
<g id="node18" class="node">
<title>Node18</title>
<g id="a_node18"><a xlink:href="zwave__command__class__scene__actuator__configuration__control_8c.html" target="_top" xlink:title=" ">
<polygon fill="none" stroke="black" points="2980.5,-0.5 2980.5,-52.5 3141.5,-52.5 3141.5,-0.5 2980.5,-0.5"/>
<text text-anchor="start" x="2988.5" y="-40.5" font-family="Helvetica,sans-Serif" font-size="10.00">applications/zpc/components</text>
<text text-anchor="start" x="2988.5" y="-29.5" font-family="Helvetica,sans-Serif" font-size="10.00">/zwave_command_classes/src</text>
<text text-anchor="start" x="2988.5" y="-18.5" font-family="Helvetica,sans-Serif" font-size="10.00">/zwave_command_class_scene</text>
<text text-anchor="middle" x="3061" y="-7.5" font-family="Helvetica,sans-Serif" font-size="10.00">_actuator_configuration_control.c</text>
</a>
</g>
</g>
<!-- Node1&#45;&gt;Node18 -->
<g id="edge17" class="edge">
<title>Node1&#45;&gt;Node18</title>
<path fill="none" stroke="midnightblue" d="M3189.45,-85.34C3166.63,-75.06 3139.86,-63.01 3116.69,-52.58"/>
<polygon fill="midnightblue" stroke="midnightblue" points="3188.09,-88.56 3198.65,-89.48 3190.96,-82.18 3188.09,-88.56"/>
</g>
<!-- Node19 -->
<g id="node19" class="node">
<title>Node19</title>
<g id="a_node19"><a xlink:href="zwave__command__class__scene__controller__configuration__control_8c.html" target="_top" xlink:title=" ">
<polygon fill="none" stroke="black" points="3159.5,-0.5 3159.5,-52.5 3324.5,-52.5 3324.5,-0.5 3159.5,-0.5"/>
<text text-anchor="start" x="3167.5" y="-40.5" font-family="Helvetica,sans-Serif" font-size="10.00">applications/zpc/components</text>
<text text-anchor="start" x="3167.5" y="-29.5" font-family="Helvetica,sans-Serif" font-size="10.00">/zwave_command_classes/src</text>
<text text-anchor="start" x="3167.5" y="-18.5" font-family="Helvetica,sans-Serif" font-size="10.00">/zwave_command_class_scene</text>
<text text-anchor="middle" x="3242" y="-7.5" font-family="Helvetica,sans-Serif" font-size="10.00">_controller_configuration_control.c</text>
</a>
</g>
</g>
<!-- Node1&#45;&gt;Node19 -->
<g id="edge18" class="edge">
<title>Node1&#45;&gt;Node19</title>
<path fill="none" stroke="midnightblue" d="M3242,-79.12C3242,-70.41 3242,-60.99 3242,-52.61"/>
<polygon fill="midnightblue" stroke="midnightblue" points="3238.5,-79.27 3242,-89.27 3245.5,-79.27 3238.5,-79.27"/>
</g>
<!-- Node20 -->
<g id="node20" class="node">
<title>Node20</title>
<g id="a_node20"><a xlink:href="zwave__command__class__security__0_8c.html" target="_top" xlink:title=" ">
<polygon fill="none" stroke="black" points="3342.5,-6 3342.5,-47 3525.5,-47 3525.5,-6 3342.5,-6"/>
<text text-anchor="start" x="3350.5" y="-35" font-family="Helvetica,sans-Serif" font-size="10.00">applications/zpc/components</text>
<text text-anchor="start" x="3350.5" y="-24" font-family="Helvetica,sans-Serif" font-size="10.00">/zwave_command_classes/src</text>
<text text-anchor="middle" x="3434" y="-13" font-family="Helvetica,sans-Serif" font-size="10.00">/zwave_command_class_security_0.c</text>
</a>
</g>
</g>
<!-- Node1&#45;&gt;Node20 -->
<g id="edge19" class="edge">
<title>Node1&#45;&gt;Node20</title>
<path fill="none" stroke="midnightblue" d="M3297.48,-85.45C3326.2,-73.26 3360.85,-58.55 3388.05,-47"/>
<polygon fill="midnightblue" stroke="midnightblue" points="3295.83,-82.35 3287.99,-89.48 3298.56,-88.79 3295.83,-82.35"/>
</g>
<!-- Node21 -->
<g id="node21" class="node">
<title>Node21</title>
<g id="a_node21"><a xlink:href="zwave__command__class__security__2_8c.html" target="_top" xlink:title=" ">
<polygon fill="none" stroke="black" points="3543.5,-6 3543.5,-47 3726.5,-47 3726.5,-6 3543.5,-6"/>
<text text-anchor="start" x="3551.5" y="-35" font-family="Helvetica,sans-Serif" font-size="10.00">applications/zpc/components</text>
<text text-anchor="start" x="3551.5" y="-24" font-family="Helvetica,sans-Serif" font-size="10.00">/zwave_command_classes/src</text>
<text text-anchor="middle" x="3635" y="-13" font-family="Helvetica,sans-Serif" font-size="10.00">/zwave_command_class_security_2.c</text>
</a>
</g>
</g>
<!-- Node1&#45;&gt;Node21 -->
<g id="edge20" class="edge">
<title>Node1&#45;&gt;Node21</title>
<path fill="none" stroke="midnightblue" d="M3335.82,-92.57C3393.46,-82.1 3468.72,-67.77 3535,-53 3543.31,-51.15 3551.97,-49.11 3560.58,-47.01"/>
<polygon fill="midnightblue" stroke="midnightblue" points="3334.85,-89.19 3325.63,-94.41 3336.1,-96.08 3334.85,-89.19"/>
</g>
<!-- Node22 -->
<g id="node22" class="node">
<title>Node22</title>
<g id="a_node22"><a xlink:href="zwave__command__class__sound__switch_8c.html" target="_top" xlink:title=" ">
<polygon fill="none" stroke="black" points="3745,-0.5 3745,-52.5 3901,-52.5 3901,-0.5 3745,-0.5"/>
<text text-anchor="start" x="3753" y="-40.5" font-family="Helvetica,sans-Serif" font-size="10.00">applications/zpc/components</text>
<text text-anchor="start" x="3753" y="-29.5" font-family="Helvetica,sans-Serif" font-size="10.00">/zwave_command_classes/src</text>
<text text-anchor="start" x="3753" y="-18.5" font-family="Helvetica,sans-Serif" font-size="10.00">/zwave_command_class_sound</text>
<text text-anchor="middle" x="3823" y="-7.5" font-family="Helvetica,sans-Serif" font-size="10.00">_switch.c</text>
</a>
</g>
</g>
<!-- Node1&#45;&gt;Node22 -->
<g id="edge21" class="edge">
<title>Node1&#45;&gt;Node22</title>
<path fill="none" stroke="midnightblue" d="M3335.79,-103.2C3435.71,-95.89 3598.17,-80.8 3736,-53 3738.93,-52.41 3741.91,-51.76 3744.9,-51.08"/>
<polygon fill="midnightblue" stroke="midnightblue" points="3335.44,-99.71 3325.72,-103.92 3335.94,-106.69 3335.44,-99.71"/>
</g>
<!-- Node23 -->
<g id="node23" class="node">
<title>Node23</title>
<g id="a_node23"><a xlink:href="zwave__command__class__supervision_8c.html" target="_top" xlink:title=" ">
<polygon fill="none" stroke="black" points="3919,-6 3919,-47 4107,-47 4107,-6 3919,-6"/>
<text text-anchor="start" x="3927" y="-35" font-family="Helvetica,sans-Serif" font-size="10.00">applications/zpc/components</text>
<text text-anchor="start" x="3927" y="-24" font-family="Helvetica,sans-Serif" font-size="10.00">/zwave_command_classes/src</text>
<text text-anchor="middle" x="4013" y="-13" font-family="Helvetica,sans-Serif" font-size="10.00">/zwave_command_class_supervision.c</text>
</a>
</g>
</g>
<!-- Node1&#45;&gt;Node23 -->
<g id="edge22" class="edge">
<title>Node1&#45;&gt;Node23</title>
<path fill="none" stroke="midnightblue" d="M3335.87,-105.84C3465.67,-100.4 3706.93,-86.43 3910,-53 3919.82,-51.38 3930.07,-49.32 3940.15,-47.06"/>
<polygon fill="midnightblue" stroke="midnightblue" points="3335.42,-102.35 3325.58,-106.26 3335.71,-109.35 3335.42,-102.35"/>
</g>
<!-- Node24 -->
<g id="node24" class="node">
<title>Node24</title>
<g id="a_node24"><a xlink:href="zwave__command__class__switch__multilevel_8c.html" target="_top" xlink:title=" ">
<polygon fill="none" stroke="black" points="4125,-0.5 4125,-52.5 4283,-52.5 4283,-0.5 4125,-0.5"/>
<text text-anchor="start" x="4133" y="-40.5" font-family="Helvetica,sans-Serif" font-size="10.00">applications/zpc/components</text>
<text text-anchor="start" x="4133" y="-29.5" font-family="Helvetica,sans-Serif" font-size="10.00">/zwave_command_classes/src</text>
<text text-anchor="start" x="4133" y="-18.5" font-family="Helvetica,sans-Serif" font-size="10.00">/zwave_command_class_switch</text>
<text text-anchor="middle" x="4204" y="-7.5" font-family="Helvetica,sans-Serif" font-size="10.00">_multilevel.c</text>
</a>
</g>
</g>
<!-- Node1&#45;&gt;Node24 -->
<g id="edge23" class="edge">
<title>Node1&#45;&gt;Node24</title>
<path fill="none" stroke="midnightblue" d="M3335.9,-109.66C3496.83,-109.31 3835.16,-102.08 4116,-53 4118.82,-52.51 4121.68,-51.96 4124.56,-51.36"/>
<polygon fill="midnightblue" stroke="midnightblue" points="3335.55,-106.16 3325.56,-109.67 3335.56,-113.16 3335.55,-106.16"/>
</g>
<!-- Node25 -->
<g id="node25" class="node">
<title>Node25</title>
<g id="a_node25"><a xlink:href="zwave__command__class__thermostat__fan__mode_8c.html" target="_top" xlink:title=" ">
<polygon fill="none" stroke="black" points="4301,-0.5 4301,-52.5 4477,-52.5 4477,-0.5 4301,-0.5"/>
<text text-anchor="start" x="4309" y="-40.5" font-family="Helvetica,sans-Serif" font-size="10.00">applications/zpc/components</text>
<text text-anchor="start" x="4309" y="-29.5" font-family="Helvetica,sans-Serif" font-size="10.00">/zwave_command_classes/src</text>
<text text-anchor="start" x="4309" y="-18.5" font-family="Helvetica,sans-Serif" font-size="10.00">/zwave_command_class_thermostat</text>
<text text-anchor="middle" x="4389" y="-7.5" font-family="Helvetica,sans-Serif" font-size="10.00">_fan_mode.c</text>
</a>
</g>
</g>
<!-- Node1&#45;&gt;Node25 -->
<g id="edge24" class="edge">
<title>Node1&#45;&gt;Node25</title>
<path fill="none" stroke="midnightblue" d="M3335.96,-106.44C3557.82,-100.01 4109.25,-81.59 4292,-53 4294.92,-52.54 4297.89,-52.03 4300.87,-51.48"/>
<polygon fill="midnightblue" stroke="midnightblue" points="3335.54,-102.95 3325.65,-106.74 3335.74,-109.95 3335.54,-102.95"/>
</g>
<!-- Node26 -->
<g id="node26" class="node">
<title>Node26</title>
<g id="a_node26"><a xlink:href="zwave__command__class__thermostat__fan__state_8c.html" target="_top" xlink:title=" ">
<polygon fill="none" stroke="black" points="4495,-0.5 4495,-52.5 4671,-52.5 4671,-0.5 4495,-0.5"/>
<text text-anchor="start" x="4503" y="-40.5" font-family="Helvetica,sans-Serif" font-size="10.00">applications/zpc/components</text>
<text text-anchor="start" x="4503" y="-29.5" font-family="Helvetica,sans-Serif" font-size="10.00">/zwave_command_classes/src</text>
<text text-anchor="start" x="4503" y="-18.5" font-family="Helvetica,sans-Serif" font-size="10.00">/zwave_command_class_thermostat</text>
<text text-anchor="middle" x="4583" y="-7.5" font-family="Helvetica,sans-Serif" font-size="10.00">_fan_state.c</text>
</a>
</g>
</g>
<!-- Node1&#45;&gt;Node26 -->
<g id="edge25" class="edge">
<title>Node1&#45;&gt;Node26</title>
<path fill="none" stroke="midnightblue" d="M3336.05,-107.35C3586.31,-102.54 4264.52,-86.71 4486,-53 4488.93,-52.55 4491.89,-52.06 4494.88,-51.51"/>
<polygon fill="midnightblue" stroke="midnightblue" points="3335.83,-103.85 3325.89,-107.54 3335.96,-110.85 3335.83,-103.85"/>
</g>
<!-- Node27 -->
<g id="node27" class="node">
<title>Node27</title>
<g id="a_node27"><a xlink:href="zwave__command__class__thermostat__mode_8c.html" target="_top" xlink:title=" ">
<polygon fill="none" stroke="black" points="4689,-6 4689,-47 4903,-47 4903,-6 4689,-6"/>
<text text-anchor="start" x="4697" y="-35" font-family="Helvetica,sans-Serif" font-size="10.00">applications/zpc/components</text>
<text text-anchor="start" x="4697" y="-24" font-family="Helvetica,sans-Serif" font-size="10.00">/zwave_command_classes/src</text>
<text text-anchor="middle" x="4796" y="-13" font-family="Helvetica,sans-Serif" font-size="10.00">/zwave_command_class_thermostat_mode.c</text>
</a>
</g>
</g>
<!-- Node1&#45;&gt;Node27 -->
<g id="edge26" class="edge">
<title>Node1&#45;&gt;Node27</title>
<path fill="none" stroke="midnightblue" d="M3336.27,-107.51C3612.81,-102.81 4418.82,-86.52 4680,-53 4691.66,-51.5 4703.87,-49.41 4715.82,-47.06"/>
<polygon fill="midnightblue" stroke="midnightblue" points="3335.81,-104.02 3325.87,-107.69 3335.92,-111.02 3335.81,-104.02"/>
</g>
<!-- Node28 -->
<g id="node28" class="node">
<title>Node28</title>
<g id="a_node28"><a xlink:href="zwave__command__class__thermostat__operating__state_8c.html" target="_top" xlink:title=" ">
<polygon fill="none" stroke="black" points="4921,-0.5 4921,-52.5 5097,-52.5 5097,-0.5 4921,-0.5"/>
<text text-anchor="start" x="4929" y="-40.5" font-family="Helvetica,sans-Serif" font-size="10.00">applications/zpc/components</text>
<text text-anchor="start" x="4929" y="-29.5" font-family="Helvetica,sans-Serif" font-size="10.00">/zwave_command_classes/src</text>
<text text-anchor="start" x="4929" y="-18.5" font-family="Helvetica,sans-Serif" font-size="10.00">/zwave_command_class_thermostat</text>
<text text-anchor="middle" x="5009" y="-7.5" font-family="Helvetica,sans-Serif" font-size="10.00">_operating_state.c</text>
</a>
</g>
</g>
<!-- Node1&#45;&gt;Node28 -->
<g id="edge27" class="edge">
<title>Node1&#45;&gt;Node28</title>
<path fill="none" stroke="midnightblue" d="M3335.68,-108.61C3640.85,-106.91 4604.33,-98.02 4912,-53 4914.93,-52.57 4917.9,-52.09 4920.88,-51.56"/>
<polygon fill="midnightblue" stroke="midnightblue" points="3335.52,-105.11 3325.54,-108.67 3335.56,-112.11 3335.52,-105.11"/>
</g>
<!-- Node29 -->
<g id="node29" class="node">
<title>Node29</title>
<g id="a_node29"><a xlink:href="zwave__command__class__time_8c.html" target="_top" xlink:title=" ">
<polygon fill="none" stroke="black" points="5115.5,-6 5115.5,-47 5272.5,-47 5272.5,-6 5115.5,-6"/>
<text text-anchor="start" x="5123.5" y="-35" font-family="Helvetica,sans-Serif" font-size="10.00">applications/zpc/components</text>
<text text-anchor="start" x="5123.5" y="-24" font-family="Helvetica,sans-Serif" font-size="10.00">/zwave_command_classes/src</text>
<text text-anchor="middle" x="5194" y="-13" font-family="Helvetica,sans-Serif" font-size="10.00">/zwave_command_class_time.c</text>
</a>
</g>
</g>
<!-- Node1&#45;&gt;Node29 -->
<g id="edge28" class="edge">
<title>Node1&#45;&gt;Node29</title>
<path fill="none" stroke="midnightblue" d="M3336.04,-109.3C3664.51,-109.86 4759.56,-107.5 5106,-53 5115.11,-51.57 5124.61,-49.47 5133.86,-47.09"/>
<polygon fill="midnightblue" stroke="midnightblue" points="3335.62,-105.8 3325.61,-109.28 3335.6,-112.8 3335.62,-105.8"/>
</g>
<!-- Node30 -->
<g id="node30" class="node">
<title>Node30</title>
<g id="a_node30"><a xlink:href="zwave__command__class__transport__service_8c.html" target="_top" xlink:title=" ">
<polygon fill="none" stroke="black" points="5291,-0.5 5291,-52.5 5459,-52.5 5459,-0.5 5291,-0.5"/>
<text text-anchor="start" x="5299" y="-40.5" font-family="Helvetica,sans-Serif" font-size="10.00">applications/zpc/components</text>
<text text-anchor="start" x="5299" y="-29.5" font-family="Helvetica,sans-Serif" font-size="10.00">/zwave_command_classes/src</text>
<text text-anchor="start" x="5299" y="-18.5" font-family="Helvetica,sans-Serif" font-size="10.00">/zwave_command_class_transport</text>
<text text-anchor="middle" x="5375" y="-7.5" font-family="Helvetica,sans-Serif" font-size="10.00">_service.c</text>
</a>
</g>
</g>
<!-- Node1&#45;&gt;Node30 -->
<g id="edge29" class="edge">
<title>Node1&#45;&gt;Node30</title>
<path fill="none" stroke="midnightblue" d="M3335.7,-109.41C3683.35,-110.46 4899.08,-109.91 5282,-53 5284.9,-52.57 5287.83,-52.08 5290.79,-51.54"/>
<polygon fill="midnightblue" stroke="midnightblue" points="3335.68,-105.91 3325.66,-109.38 3335.65,-112.91 3335.68,-105.91"/>
</g>
<!-- Node31 -->
<g id="node31" class="node">
<title>Node31</title>
<g id="a_node31"><a xlink:href="zwave__command__class__user__code_8c.html" target="_top" xlink:title=" ">
<polygon fill="none" stroke="black" points="5477.5,-6 5477.5,-47 5660.5,-47 5660.5,-6 5477.5,-6"/>
<text text-anchor="start" x="5485.5" y="-35" font-family="Helvetica,sans-Serif" font-size="10.00">applications/zpc/components</text>
<text text-anchor="start" x="5485.5" y="-24" font-family="Helvetica,sans-Serif" font-size="10.00">/zwave_command_classes/src</text>
<text text-anchor="middle" x="5569" y="-13" font-family="Helvetica,sans-Serif" font-size="10.00">/zwave_command_class_user_code.c</text>
</a>
</g>
</g>
<!-- Node1&#45;&gt;Node31 -->
<g id="edge30" class="edge">
<title>Node1&#45;&gt;Node31</title>
<path fill="none" stroke="midnightblue" d="M3335.74,-109.41C3703.26,-110.6 5046.34,-110.8 5468,-53 5478.48,-51.56 5489.45,-49.45 5500.13,-47.05"/>
<polygon fill="midnightblue" stroke="midnightblue" points="3335.69,-105.91 3325.67,-109.38 3335.66,-112.91 3335.69,-105.91"/>
</g>
<!-- Node32 -->
<g id="node32" class="node">
<title>Node32</title>
<g id="a_node32"><a xlink:href="zwave__command__class__version_8c.html" target="_top" xlink:title=" ">
<polygon fill="none" stroke="black" points="5679,-6 5679,-47 5849,-47 5849,-6 5679,-6"/>
<text text-anchor="start" x="5687" y="-35" font-family="Helvetica,sans-Serif" font-size="10.00">applications/zpc/components</text>
<text text-anchor="start" x="5687" y="-24" font-family="Helvetica,sans-Serif" font-size="10.00">/zwave_command_classes/src</text>
<text text-anchor="middle" x="5764" y="-13" font-family="Helvetica,sans-Serif" font-size="10.00">/zwave_command_class_version.c</text>
</a>
</g>
</g>
<!-- Node1&#45;&gt;Node32 -->
<g id="edge31" class="edge">
<title>Node1&#45;&gt;Node32</title>
<path fill="none" stroke="midnightblue" d="M3336.07,-108.18C3754.51,-104.33 5436.45,-86.86 5670,-53 5679.87,-51.57 5690.19,-49.44 5700.22,-47.02"/>
<polygon fill="midnightblue" stroke="midnightblue" points="3335.8,-104.68 3325.83,-108.27 3335.86,-111.68 3335.8,-104.68"/>
</g>
<!-- Node33 -->
<g id="node33" class="node">
<title>Node33</title>
<g id="a_node33"><a xlink:href="zwave__command__class__wake__up_8c.html" target="_top" xlink:title=" ">
<polygon fill="none" stroke="black" points="5867.5,-6 5867.5,-47 6044.5,-47 6044.5,-6 5867.5,-6"/>
<text text-anchor="start" x="5875.5" y="-35" font-family="Helvetica,sans-Serif" font-size="10.00">applications/zpc/components</text>
<text text-anchor="start" x="5875.5" y="-24" font-family="Helvetica,sans-Serif" font-size="10.00">/zwave_command_classes/src</text>
<text text-anchor="middle" x="5956" y="-13" font-family="Helvetica,sans-Serif" font-size="10.00">/zwave_command_class_wake_up.c</text>
</a>
</g>
</g>
<!-- Node1&#45;&gt;Node33 -->
<g id="edge32" class="edge">
<title>Node1&#45;&gt;Node33</title>
<path fill="none" stroke="midnightblue" d="M3335.69,-108.29C3773.23,-104.79 5604.72,-88.17 5858,-53 5868.27,-51.57 5879.02,-49.45 5889.47,-47.03"/>
<polygon fill="midnightblue" stroke="midnightblue" points="3335.59,-104.79 3325.62,-108.37 3335.65,-111.79 3335.59,-104.79"/>
</g>
<!-- Node34 -->
<g id="node34" class="node">
<title>Node34</title>
<g id="a_node34"><a xlink:href="zwave__command__class__zwave__plus__info_8c.html" target="_top" xlink:title=" ">
<polygon fill="none" stroke="black" points="6062,-0.5 6062,-52.5 6220,-52.5 6220,-0.5 6062,-0.5"/>
<text text-anchor="start" x="6070" y="-40.5" font-family="Helvetica,sans-Serif" font-size="10.00">applications/zpc/components</text>
<text text-anchor="start" x="6070" y="-29.5" font-family="Helvetica,sans-Serif" font-size="10.00">/zwave_command_classes/src</text>
<text text-anchor="start" x="6070" y="-18.5" font-family="Helvetica,sans-Serif" font-size="10.00">/zwave_command_class_zwave</text>
<text text-anchor="middle" x="6141" y="-7.5" font-family="Helvetica,sans-Serif" font-size="10.00">_plus_info.c</text>
</a>
</g>
</g>
<!-- Node1&#45;&gt;Node34 -->
<g id="edge33" class="edge">
<title>Node1&#45;&gt;Node34</title>
<path fill="none" stroke="midnightblue" d="M3335.89,-108.61C3793.72,-106.5 5780.99,-94.96 6054,-53 6056.49,-52.62 6059.01,-52.18 6061.54,-51.7"/>
<polygon fill="midnightblue" stroke="midnightblue" points="3335.67,-105.11 3325.69,-108.65 3335.7,-112.11 3335.67,-105.11"/>
</g>
<!-- Node35 -->
<g id="node35" class="node">
<title>Node35</title>
<g id="a_node35"><a xlink:href="zwave__command__classes__fixt_8c.html" target="_top" xlink:title=" ">
<polygon fill="none" stroke="black" points="6238,-6 6238,-47 6400,-47 6400,-6 6238,-6"/>
<text text-anchor="start" x="6246" y="-35" font-family="Helvetica,sans-Serif" font-size="10.00">applications/zpc/components</text>
<text text-anchor="start" x="6246" y="-24" font-family="Helvetica,sans-Serif" font-size="10.00">/zwave_command_classes/src</text>
<text text-anchor="middle" x="6319" y="-13" font-family="Helvetica,sans-Serif" font-size="10.00">/zwave_command_classes_fixt.c</text>
</a>
</g>
</g>
<!-- Node1&#45;&gt;Node35 -->
<g id="edge34" class="edge">
<title>Node1&#45;&gt;Node35</title>
<path fill="none" stroke="midnightblue" d="M3335.85,-108.68C3810.73,-106.85 5937.59,-96.27 6229,-53 6238.48,-51.59 6248.37,-49.48 6257.98,-47.06"/>
<polygon fill="midnightblue" stroke="midnightblue" points="3335.6,-105.18 3325.61,-108.72 3335.62,-112.18 3335.6,-105.18"/>
</g>
<!-- Node36 -->
<g id="node36" class="node">
<title>Node36</title>
<g id="a_node36"><a xlink:href="zwave__command__handler__internals_8h.html" target="_top" xlink:title=" ">
<polygon fill="none" stroke="black" points="6418.5,-6 6418.5,-47 6601.5,-47 6601.5,-6 6418.5,-6"/>
<text text-anchor="start" x="6426.5" y="-35" font-family="Helvetica,sans-Serif" font-size="10.00">applications/zpc/components</text>
<text text-anchor="start" x="6426.5" y="-24" font-family="Helvetica,sans-Serif" font-size="10.00">/zwave_command_handler/src</text>
<text text-anchor="middle" x="6510" y="-13" font-family="Helvetica,sans-Serif" font-size="10.00">/zwave_command_handler_internals.h</text>
</a>
</g>
</g>
<!-- Node1&#45;&gt;Node36 -->
<g id="edge35" class="edge">
<title>Node1&#45;&gt;Node36</title>
<path fill="none" stroke="midnightblue" d="M3335.82,-108.62C3827.71,-106.48 6098.21,-94.42 6409,-53 6419.58,-51.59 6430.64,-49.48 6441.41,-47.06"/>
<polygon fill="midnightblue" stroke="midnightblue" points="3335.56,-105.13 3325.57,-108.67 3335.59,-112.13 3335.56,-105.13"/>
</g>
</g>
</svg>
