<?xml version="1.0" encoding="UTF-8" standalone="no"?>
<!DOCTYPE svg PUBLIC "-//W3C//DTD SVG 1.1//EN"
 "http://www.w3.org/Graphics/SVG/1.1/DTD/svg11.dtd">
<!-- Generated by graphviz version 2.43.0 (0)
 -->
<!-- Title: applications/zpc/components/zwave_command_classes/src/zwave_command_class_security_0.h Pages: 1 -->
<svg width="518pt" height="341pt"
 viewBox="0.00 0.00 517.50 341.00" xmlns="http://www.w3.org/2000/svg" xmlns:xlink="http://www.w3.org/1999/xlink">
<g id="graph0" class="graph" transform="scale(1 1) rotate(0) translate(4 337)">
<title>applications/zpc/components/zwave_command_classes/src/zwave_command_class_security_0.h</title>
<!-- Node1 -->
<g id="node1" class="node">
<title>Node1</title>
<g id="a_node1"><a xlink:title=" ">
<polygon fill="#bfbfbf" stroke="black" points="326.5,-291.5 326.5,-332.5 509.5,-332.5 509.5,-291.5 326.5,-291.5"/>
<text text-anchor="start" x="334.5" y="-320.5" font-family="Helvetica,sans-Serif" font-size="10.00">applications/zpc/components</text>
<text text-anchor="start" x="334.5" y="-309.5" font-family="Helvetica,sans-Serif" font-size="10.00">/zwave_command_classes/src</text>
<text text-anchor="middle" x="418" y="-298.5" font-family="Helvetica,sans-Serif" font-size="10.00">/zwave_command_class_security_0.h</text>
</a>
</g>
</g>
<!-- Node2 -->
<g id="node2" class="node">
<title>Node2</title>
<g id="a_node2"><a xlink:href="zwave__rx_8h.html" target="_top" xlink:title=" ">
<polygon fill="none" stroke="black" points="353.5,-235.5 353.5,-254.5 420.5,-254.5 420.5,-235.5 353.5,-235.5"/>
<text text-anchor="middle" x="387" y="-242.5" font-family="Helvetica,sans-Serif" font-size="10.00">zwave_rx.h</text>
</a>
</g>
</g>
<!-- Node1&#45;&gt;Node2 -->
<g id="edge1" class="edge">
<title>Node1&#45;&gt;Node2</title>
<path fill="none" stroke="midnightblue" d="M408.7,-291.5C404.49,-282.68 399.56,-272.34 395.46,-263.74"/>
<polygon fill="midnightblue" stroke="midnightblue" points="398.59,-262.17 391.13,-254.65 392.27,-265.19 398.59,-262.17"/>
</g>
<!-- Node10 -->
<g id="node10" class="node">
<title>Node10</title>
<g id="a_node10"><a xlink:href="sl__status_8h.html" target="_top" xlink:title="SL Status Codes.">
<polygon fill="none" stroke="black" points="416.5,-174 416.5,-193 481.5,-193 481.5,-174 416.5,-174"/>
<text text-anchor="middle" x="449" y="-181" font-family="Helvetica,sans-Serif" font-size="10.00">sl_status.h</text>
</a>
</g>
</g>
<!-- Node1&#45;&gt;Node10 -->
<g id="edge14" class="edge">
<title>Node1&#45;&gt;Node10</title>
<path fill="none" stroke="midnightblue" d="M422.84,-291.23C428.75,-267.12 438.67,-226.66 444.44,-203.09"/>
<polygon fill="midnightblue" stroke="midnightblue" points="447.86,-203.84 446.84,-193.29 441.07,-202.17 447.86,-203.84"/>
</g>
<!-- Node3 -->
<g id="node3" class="node">
<title>Node3</title>
<g id="a_node3"><a xlink:href="zwave__controller__connection__info_8h.html" target="_top" xlink:title=" ">
<polygon fill="none" stroke="black" points="148.5,-168.5 148.5,-198.5 291.5,-198.5 291.5,-168.5 148.5,-168.5"/>
<text text-anchor="start" x="156.5" y="-186.5" font-family="Helvetica,sans-Serif" font-size="10.00">zwave_controller_connection</text>
<text text-anchor="middle" x="220" y="-175.5" font-family="Helvetica,sans-Serif" font-size="10.00">_info.h</text>
</a>
</g>
</g>
<!-- Node2&#45;&gt;Node3 -->
<g id="edge2" class="edge">
<title>Node2&#45;&gt;Node3</title>
<path fill="none" stroke="midnightblue" d="M363.07,-235.48C338.66,-226.78 300.07,-213.03 269.11,-202"/>
<polygon fill="midnightblue" stroke="midnightblue" points="269.95,-198.58 259.36,-198.52 267.6,-205.18 269.95,-198.58"/>
</g>
<!-- Node2&#45;&gt;Node10 -->
<g id="edge12" class="edge">
<title>Node2&#45;&gt;Node10</title>
<path fill="none" stroke="midnightblue" d="M395.88,-235.48C405.46,-226.28 420.91,-211.46 432.69,-200.16"/>
<polygon fill="midnightblue" stroke="midnightblue" points="435.34,-202.46 440.13,-193.01 430.49,-197.41 435.34,-202.46"/>
</g>
<!-- Node4 -->
<g id="node4" class="node">
<title>Node4</title>
<g id="a_node4"><a xlink:href="zwave__controller__types_8h.html" target="_top" xlink:title=" ">
<polygon fill="none" stroke="black" points="127,-112.5 127,-131.5 255,-131.5 255,-112.5 127,-112.5"/>
<text text-anchor="middle" x="191" y="-119.5" font-family="Helvetica,sans-Serif" font-size="10.00">zwave_controller_types.h</text>
</a>
</g>
</g>
<!-- Node3&#45;&gt;Node4 -->
<g id="edge3" class="edge">
<title>Node3&#45;&gt;Node4</title>
<path fill="none" stroke="midnightblue" d="M213.13,-168.4C209.09,-160.11 203.94,-149.55 199.63,-140.71"/>
<polygon fill="midnightblue" stroke="midnightblue" points="202.75,-139.11 195.22,-131.66 196.45,-142.18 202.75,-139.11"/>
</g>
<!-- Node5 -->
<g id="node5" class="node">
<title>Node5</title>
<g id="a_node5"><a xlink:title=" ">
<polygon fill="none" stroke="#bfbfbf" points="0,-0.5 0,-19.5 56,-19.5 56,-0.5 0,-0.5"/>
<text text-anchor="middle" x="28" y="-7.5" font-family="Helvetica,sans-Serif" font-size="10.00">stdbool.h</text>
</a>
</g>
</g>
<!-- Node4&#45;&gt;Node5 -->
<g id="edge4" class="edge">
<title>Node4&#45;&gt;Node5</title>
<path fill="none" stroke="midnightblue" d="M126.7,-113.51C80.39,-106.63 23.6,-94.65 9,-76 -1.82,-62.18 6.44,-42.37 15.21,-28.26"/>
<polygon fill="midnightblue" stroke="midnightblue" points="18.14,-30.17 20.85,-19.93 12.34,-26.25 18.14,-30.17"/>
</g>
<!-- Node6 -->
<g id="node6" class="node">
<title>Node6</title>
<g id="a_node6"><a xlink:title=" ">
<polygon fill="none" stroke="#bfbfbf" points="290.5,-0.5 290.5,-19.5 339.5,-19.5 339.5,-0.5 290.5,-0.5"/>
<text text-anchor="middle" x="315" y="-7.5" font-family="Helvetica,sans-Serif" font-size="10.00">stdint.h</text>
</a>
</g>
</g>
<!-- Node4&#45;&gt;Node6 -->
<g id="edge5" class="edge">
<title>Node4&#45;&gt;Node6</title>
<path fill="none" stroke="midnightblue" d="M181.53,-112.38C168.32,-99.32 147.43,-74.1 161,-56 175.29,-36.93 239.28,-23.25 280.14,-16.27"/>
<polygon fill="midnightblue" stroke="midnightblue" points="280.94,-19.69 290.24,-14.6 279.8,-12.78 280.94,-19.69"/>
</g>
<!-- Node7 -->
<g id="node7" class="node">
<title>Node7</title>
<g id="a_node7"><a xlink:href="zwave__node__id__definitions_8h.html" target="_top" xlink:title=" ">
<polygon fill="none" stroke="black" points="170,-56.5 170,-75.5 312,-75.5 312,-56.5 170,-56.5"/>
<text text-anchor="middle" x="241" y="-63.5" font-family="Helvetica,sans-Serif" font-size="10.00">zwave_node_id_definitions.h</text>
</a>
</g>
</g>
<!-- Node4&#45;&gt;Node7 -->
<g id="edge6" class="edge">
<title>Node4&#45;&gt;Node7</title>
<path fill="none" stroke="midnightblue" d="M199.26,-112.08C206.46,-104.3 217.11,-92.8 225.85,-83.37"/>
<polygon fill="midnightblue" stroke="midnightblue" points="228.67,-85.47 232.9,-75.75 223.53,-80.71 228.67,-85.47"/>
</g>
<!-- Node8 -->
<g id="node8" class="node">
<title>Node8</title>
<g id="a_node8"><a xlink:href="zwave__generic__types_8h.html" target="_top" xlink:title=" ">
<polygon fill="none" stroke="black" points="330.5,-56.5 330.5,-75.5 449.5,-75.5 449.5,-56.5 330.5,-56.5"/>
<text text-anchor="middle" x="390" y="-63.5" font-family="Helvetica,sans-Serif" font-size="10.00">zwave_generic_types.h</text>
</a>
</g>
</g>
<!-- Node4&#45;&gt;Node8 -->
<g id="edge8" class="edge">
<title>Node4&#45;&gt;Node8</title>
<path fill="none" stroke="midnightblue" d="M222.53,-112.44C256.59,-103.2 311.01,-88.44 348.52,-78.26"/>
<polygon fill="midnightblue" stroke="midnightblue" points="349.88,-81.51 358.62,-75.52 348.05,-74.76 349.88,-81.51"/>
</g>
<!-- Node9 -->
<g id="node9" class="node">
<title>Node9</title>
<g id="a_node9"><a xlink:href="zwave__rf__region_8h.html" target="_top" xlink:title=" ">
<polygon fill="none" stroke="black" points="18,-56.5 18,-75.5 114,-75.5 114,-56.5 18,-56.5"/>
<text text-anchor="middle" x="66" y="-63.5" font-family="Helvetica,sans-Serif" font-size="10.00">zwave_rf_region.h</text>
</a>
</g>
</g>
<!-- Node4&#45;&gt;Node9 -->
<g id="edge10" class="edge">
<title>Node4&#45;&gt;Node9</title>
<path fill="none" stroke="midnightblue" d="M171.19,-112.44C150.71,-103.6 118.52,-89.69 95.14,-79.59"/>
<polygon fill="midnightblue" stroke="midnightblue" points="96.28,-76.27 85.71,-75.52 93.51,-82.7 96.28,-76.27"/>
</g>
<!-- Node7&#45;&gt;Node6 -->
<g id="edge7" class="edge">
<title>Node7&#45;&gt;Node6</title>
<path fill="none" stroke="midnightblue" d="M252.89,-56.32C264.15,-48.11 281.29,-35.6 294.71,-25.81"/>
<polygon fill="midnightblue" stroke="midnightblue" points="296.88,-28.56 302.89,-19.83 292.75,-22.9 296.88,-28.56"/>
</g>
<!-- Node8&#45;&gt;Node6 -->
<g id="edge9" class="edge">
<title>Node8&#45;&gt;Node6</title>
<path fill="none" stroke="midnightblue" d="M377.95,-56.32C366.54,-48.11 349.17,-35.6 335.57,-25.81"/>
<polygon fill="midnightblue" stroke="midnightblue" points="337.43,-22.84 327.27,-19.83 333.34,-28.52 337.43,-22.84"/>
</g>
<!-- Node9&#45;&gt;Node5 -->
<g id="edge11" class="edge">
<title>Node9&#45;&gt;Node5</title>
<path fill="none" stroke="midnightblue" d="M59.73,-56.08C54.36,-48.46 46.48,-37.26 39.92,-27.94"/>
<polygon fill="midnightblue" stroke="midnightblue" points="42.78,-25.91 34.16,-19.75 37.05,-29.94 42.78,-25.91"/>
</g>
<!-- Node10&#45;&gt;Node6 -->
<g id="edge13" class="edge">
<title>Node10&#45;&gt;Node6</title>
<path fill="none" stroke="midnightblue" d="M453.11,-173.77C462.87,-151.62 484.7,-92.39 458,-56 433.41,-22.48 383.84,-13.27 350.03,-11.09"/>
<polygon fill="midnightblue" stroke="midnightblue" points="349.82,-7.57 339.66,-10.6 349.49,-14.56 349.82,-7.57"/>
</g>
</g>
</svg>
