<?xml version="1.0" encoding="UTF-8" standalone="no"?>
<!DOCTYPE svg PUBLIC "-//W3C//DTD SVG 1.1//EN"
 "http://www.w3.org/Graphics/SVG/1.1/DTD/svg11.dtd">
<!-- Generated by graphviz version 2.43.0 (0)
 -->
<!-- Title: is_free Pages: 1 -->
<svg width="1020pt" height="66pt"
 viewBox="0.00 0.00 1020.00 66.00" xmlns="http://www.w3.org/2000/svg" xmlns:xlink="http://www.w3.org/1999/xlink">
<g id="graph0" class="graph" transform="scale(1 1) rotate(0) translate(4 62)">
<title>is_free</title>
<!-- Node1 -->
<g id="node1" class="node">
<title>Node1</title>
<g id="a_node1"><a xlink:title=" ">
<polygon fill="#bfbfbf" stroke="black" points="966,-19.5 966,-38.5 1012,-38.5 1012,-19.5 966,-19.5"/>
<text text-anchor="middle" x="989" y="-26.5" font-family="Helvetica,sans-Serif" font-size="10.00">is_free</text>
</a>
</g>
</g>
<!-- Node2 -->
<g id="node2" class="node">
<title>Node2</title>
<g id="a_node2"><a xlink:href="zwave__s0__transport_8c.html#aaecefd9c8e3db1ecf5fad29e9c33b724" target="_top" xlink:title=" ">
<polygon fill="none" stroke="black" points="800,-38.5 800,-57.5 930,-57.5 930,-38.5 800,-38.5"/>
<text text-anchor="middle" x="865" y="-45.5" font-family="Helvetica,sans-Serif" font-size="10.00">get_rx_session_by_nodes</text>
</a>
</g>
</g>
<!-- Node1&#45;&gt;Node2 -->
<g id="edge1" class="edge">
<title>Node1&#45;&gt;Node2</title>
<path fill="none" stroke="midnightblue" d="M956.02,-33.98C947.11,-35.37 937.14,-36.92 927.16,-38.48"/>
<polygon fill="midnightblue" stroke="midnightblue" points="956.56,-37.44 965.91,-32.44 955.49,-30.52 956.56,-37.44"/>
</g>
<!-- Node8 -->
<g id="node8" class="node">
<title>Node8</title>
<g id="a_node8"><a xlink:href="zwave__s0__transport_8c.html#a4634ec78bb78104c61bdecffc033c235" target="_top" xlink:title=" ">
<polygon fill="none" stroke="black" points="821.5,-0.5 821.5,-19.5 908.5,-19.5 908.5,-0.5 821.5,-0.5"/>
<text text-anchor="middle" x="865" y="-7.5" font-family="Helvetica,sans-Serif" font-size="10.00">new_rx_session</text>
</a>
</g>
</g>
<!-- Node1&#45;&gt;Node8 -->
<g id="edge7" class="edge">
<title>Node1&#45;&gt;Node8</title>
<path fill="none" stroke="midnightblue" d="M955.94,-24.01C941.48,-21.76 924.2,-19.06 908.66,-16.64"/>
<polygon fill="midnightblue" stroke="midnightblue" points="955.49,-27.48 965.91,-25.56 956.56,-20.56 955.49,-27.48"/>
</g>
<!-- Node3 -->
<g id="node3" class="node">
<title>Node3</title>
<g id="a_node3"><a xlink:href="zwave__s0__transport_8c.html#a764e435a218a773ffc2d08378a3bcc04" target="_top" xlink:title=" ">
<polygon fill="none" stroke="black" points="654,-19.5 654,-38.5 764,-38.5 764,-19.5 654,-19.5"/>
<text text-anchor="middle" x="709" y="-26.5" font-family="Helvetica,sans-Serif" font-size="10.00">s0_decrypt_message</text>
</a>
</g>
</g>
<!-- Node2&#45;&gt;Node3 -->
<g id="edge2" class="edge">
<title>Node2&#45;&gt;Node3</title>
<path fill="none" stroke="midnightblue" d="M789.64,-38.83C781.13,-37.78 772.58,-36.72 764.4,-35.71"/>
<polygon fill="midnightblue" stroke="midnightblue" points="789.23,-42.3 799.58,-40.05 790.09,-35.35 789.23,-42.3"/>
</g>
<!-- Node4 -->
<g id="node4" class="node">
<title>Node4</title>
<g id="a_node4"><a xlink:href="zwave__s0__transport_8c.html#a03d95837da2b91dfbf98786f7e753fe4" target="_top" xlink:title=" ">
<polygon fill="none" stroke="black" points="491,-14 491,-44 618,-44 618,-14 491,-14"/>
<text text-anchor="start" x="499" y="-32" font-family="Helvetica,sans-Serif" font-size="10.00">s0_application_command</text>
<text text-anchor="middle" x="554.5" y="-21" font-family="Helvetica,sans-Serif" font-size="10.00">_handler</text>
</a>
</g>
</g>
<!-- Node3&#45;&gt;Node4 -->
<g id="edge3" class="edge">
<title>Node3&#45;&gt;Node4</title>
<path fill="none" stroke="midnightblue" d="M643.63,-29C635.18,-29 626.53,-29 618.11,-29"/>
<polygon fill="midnightblue" stroke="midnightblue" points="643.8,-32.5 653.8,-29 643.8,-25.5 643.8,-32.5"/>
</g>
<!-- Node5 -->
<g id="node5" class="node">
<title>Node5</title>
<g id="a_node5"><a xlink:href="group__zwave__s0__transport.html#ga075cd6959f4f2b9cbd757c5d43f97820" target="_top" xlink:title="Entry point of S0 frames received from the PHY/radio stack.">
<polygon fill="none" stroke="black" points="306,-19.5 306,-38.5 455,-38.5 455,-19.5 306,-19.5"/>
<text text-anchor="middle" x="380.5" y="-26.5" font-family="Helvetica,sans-Serif" font-size="10.00">zwave_s0_on_frame_received</text>
</a>
</g>
</g>
<!-- Node4&#45;&gt;Node5 -->
<g id="edge4" class="edge">
<title>Node4&#45;&gt;Node5</title>
<path fill="none" stroke="midnightblue" d="M480.71,-29C472.25,-29 463.61,-29 455.14,-29"/>
<polygon fill="midnightblue" stroke="midnightblue" points="480.92,-32.5 490.92,-29 480.92,-25.5 480.92,-32.5"/>
</g>
<!-- Node6 -->
<g id="node6" class="node">
<title>Node6</title>
<g id="a_node6"><a xlink:href="group__zwave__s0__transport.html#ga7fcd7083b5fe3b6b2838d0d64f815f53" target="_top" xlink:title="Initialize the S0 Transport Also calls zwave_s0_network_init() which aborts all tx sessions and frees...">
<polygon fill="none" stroke="black" points="148,-19.5 148,-38.5 270,-38.5 270,-19.5 148,-19.5"/>
<text text-anchor="middle" x="209" y="-26.5" font-family="Helvetica,sans-Serif" font-size="10.00">zwave_s0_transport_init</text>
</a>
</g>
</g>
<!-- Node5&#45;&gt;Node6 -->
<g id="edge5" class="edge">
<title>Node5&#45;&gt;Node6</title>
<path fill="none" stroke="midnightblue" d="M295.59,-29C287,-29 278.4,-29 270.13,-29"/>
<polygon fill="midnightblue" stroke="midnightblue" points="295.65,-32.5 305.65,-29 295.65,-25.5 295.65,-32.5"/>
</g>
<!-- Node7 -->
<g id="node7" class="node">
<title>Node7</title>
<g id="a_node7"><a xlink:href="group__zwave__transports__fixt.html#ga26fb2571e272a5094bd0320eca3a896d" target="_top" xlink:title="Setup fixture for Z&#45;Wave Transports.">
<polygon fill="none" stroke="black" points="0,-19.5 0,-38.5 112,-38.5 112,-19.5 0,-19.5"/>
<text text-anchor="middle" x="56" y="-26.5" font-family="Helvetica,sans-Serif" font-size="10.00">zwave_transports_init</text>
</a>
</g>
</g>
<!-- Node6&#45;&gt;Node7 -->
<g id="edge6" class="edge">
<title>Node6&#45;&gt;Node7</title>
<path fill="none" stroke="midnightblue" d="M137.8,-29C129.14,-29 120.39,-29 112.01,-29"/>
<polygon fill="midnightblue" stroke="midnightblue" points="137.89,-32.5 147.89,-29 137.89,-25.5 137.89,-32.5"/>
</g>
<!-- Node8&#45;&gt;Node3 -->
<g id="edge8" class="edge">
<title>Node8&#45;&gt;Node3</title>
<path fill="none" stroke="midnightblue" d="M810.91,-16.55C795.82,-18.41 779.38,-20.44 764.22,-22.31"/>
<polygon fill="midnightblue" stroke="midnightblue" points="811.61,-19.99 821.1,-15.29 810.75,-13.04 811.61,-19.99"/>
</g>
</g>
</svg>
