<?xml version="1.0" encoding="UTF-8" standalone="no"?>
<!DOCTYPE svg PUBLIC "-//W3C//DTD SVG 1.1//EN"
 "http://www.w3.org/Graphics/SVG/1.1/DTD/svg11.dtd">
<!-- Generated by graphviz version 2.43.0 (0)
 -->
<!-- Title: update_indicator Pages: 1 -->
<svg width="1068pt" height="83pt"
 viewBox="0.00 0.00 1068.00 83.00" xmlns="http://www.w3.org/2000/svg" xmlns:xlink="http://www.w3.org/1999/xlink">
<g id="graph0" class="graph" transform="scale(1 1) rotate(0) translate(4 79)">
<title>update_indicator</title>
<!-- Node1 -->
<g id="node1" class="node">
<title>Node1</title>
<g id="a_node1"><a xlink:title=" ">
<polygon fill="#bfbfbf" stroke="black" points="972,-25 972,-44 1060,-44 1060,-25 972,-25"/>
<text text-anchor="middle" x="1016" y="-32" font-family="Helvetica,sans-Serif" font-size="10.00">update_indicator</text>
</a>
</g>
</g>
<!-- Node2 -->
<g id="node2" class="node">
<title>Node2</title>
<g id="a_node2"><a xlink:href="zwave__command__class__indicator_8c.html#a0668453715098a687b70377cc1068db2" target="_top" xlink:title=" ">
<polygon fill="none" stroke="black" points="830,-47 830,-66 936,-66 936,-47 830,-47"/>
<text text-anchor="middle" x="883" y="-54" font-family="Helvetica,sans-Serif" font-size="10.00">set_indicator_value0</text>
</a>
</g>
</g>
<!-- Node1&#45;&gt;Node2 -->
<g id="edge1" class="edge">
<title>Node1&#45;&gt;Node2</title>
<path fill="none" stroke="midnightblue" d="M961.71,-43.45C953.33,-44.86 944.68,-46.31 936.33,-47.71"/>
<polygon fill="midnightblue" stroke="midnightblue" points="962.46,-46.87 971.74,-41.76 961.3,-39.97 962.46,-46.87"/>
</g>
<!-- Node4 -->
<g id="node4" class="node">
<title>Node4</title>
<g id="a_node4"><a xlink:href="zwave__command__class__indicator_8c.html#ae25d2fbb010340256e6872be3884d931" target="_top" xlink:title=" ">
<polygon fill="none" stroke="black" points="513,-0.5 513,-30.5 636,-30.5 636,-0.5 513,-0.5"/>
<text text-anchor="start" x="521" y="-18.5" font-family="Helvetica,sans-Serif" font-size="10.00">zwave_command_class</text>
<text text-anchor="middle" x="574.5" y="-7.5" font-family="Helvetica,sans-Serif" font-size="10.00">_indicator_handle_setV3</text>
</a>
</g>
</g>
<!-- Node1&#45;&gt;Node4 -->
<g id="edge8" class="edge">
<title>Node1&#45;&gt;Node4</title>
<path fill="none" stroke="midnightblue" d="M961.54,-32.19C879.4,-28.64 722.62,-21.86 636.28,-18.13"/>
<polygon fill="midnightblue" stroke="midnightblue" points="961.51,-35.69 971.66,-32.63 961.82,-28.7 961.51,-35.69"/>
</g>
<!-- Node3 -->
<g id="node3" class="node">
<title>Node3</title>
<g id="a_node3"><a xlink:href="zwave__command__class__indicator_8c.html#af0248cbbbc84def2ec2f5aa5ea67a1e9" target="_top" xlink:title=" ">
<polygon fill="none" stroke="black" points="672,-44.5 672,-74.5 794,-74.5 794,-44.5 672,-44.5"/>
<text text-anchor="start" x="680" y="-62.5" font-family="Helvetica,sans-Serif" font-size="10.00">zwave_command_class</text>
<text text-anchor="middle" x="733" y="-51.5" font-family="Helvetica,sans-Serif" font-size="10.00">_indicator_handle_set</text>
</a>
</g>
</g>
<!-- Node2&#45;&gt;Node3 -->
<g id="edge2" class="edge">
<title>Node2&#45;&gt;Node3</title>
<path fill="none" stroke="midnightblue" d="M819.62,-57.76C811.15,-57.94 802.48,-58.11 794.05,-58.28"/>
<polygon fill="midnightblue" stroke="midnightblue" points="819.89,-61.26 829.82,-57.56 819.75,-54.26 819.89,-61.26"/>
</g>
<!-- Node3&#45;&gt;Node4 -->
<g id="edge3" class="edge">
<title>Node3&#45;&gt;Node4</title>
<path fill="none" stroke="midnightblue" d="M668.65,-41.69C655.47,-37.98 641.72,-34.12 628.95,-30.53"/>
<polygon fill="midnightblue" stroke="midnightblue" points="668.01,-45.14 678.58,-44.48 669.9,-38.4 668.01,-45.14"/>
</g>
<!-- Node5 -->
<g id="node5" class="node">
<title>Node5</title>
<g id="a_node5"><a xlink:href="group__zwave__command__class__indicator__support.html#ga8953f10489f199eee92bdc7ebae05e3f" target="_top" xlink:title="Handles incoming indicator encapsulated commands.">
<polygon fill="none" stroke="black" points="344,-22.5 344,-52.5 477,-52.5 477,-22.5 344,-22.5"/>
<text text-anchor="start" x="352" y="-40.5" font-family="Helvetica,sans-Serif" font-size="10.00">zwave_command_class</text>
<text text-anchor="middle" x="410.5" y="-29.5" font-family="Helvetica,sans-Serif" font-size="10.00">_indicator_support_handler</text>
</a>
</g>
</g>
<!-- Node3&#45;&gt;Node5 -->
<g id="edge7" class="edge">
<title>Node3&#45;&gt;Node5</title>
<path fill="none" stroke="midnightblue" d="M661.7,-54.67C606.69,-50.9 530.77,-45.69 477.03,-42"/>
<polygon fill="midnightblue" stroke="midnightblue" points="661.5,-58.17 671.72,-55.36 661.98,-51.19 661.5,-58.17"/>
</g>
<!-- Node4&#45;&gt;Node5 -->
<g id="edge4" class="edge">
<title>Node4&#45;&gt;Node5</title>
<path fill="none" stroke="midnightblue" d="M502.55,-25.14C494.14,-26.28 485.57,-27.44 477.24,-28.57"/>
<polygon fill="midnightblue" stroke="midnightblue" points="503.28,-28.57 512.72,-23.75 502.34,-21.63 503.28,-28.57"/>
</g>
<!-- Node6 -->
<g id="node6" class="node">
<title>Node6</title>
<g id="a_node6"><a xlink:href="group__zwave__command__class__indicator__support.html#ga0f4f581c0adc3e8018e4ade3858017fb" target="_top" xlink:title="setup for indicator command class">
<polygon fill="none" stroke="black" points="186,-22.5 186,-52.5 308,-52.5 308,-22.5 186,-22.5"/>
<text text-anchor="start" x="194" y="-40.5" font-family="Helvetica,sans-Serif" font-size="10.00">zwave_command_class</text>
<text text-anchor="middle" x="247" y="-29.5" font-family="Helvetica,sans-Serif" font-size="10.00">_indicator_init</text>
</a>
</g>
</g>
<!-- Node5&#45;&gt;Node6 -->
<g id="edge5" class="edge">
<title>Node5&#45;&gt;Node6</title>
<path fill="none" stroke="midnightblue" d="M333.78,-37.5C325.19,-37.5 316.52,-37.5 308.17,-37.5"/>
<polygon fill="midnightblue" stroke="midnightblue" points="333.81,-41 343.81,-37.5 333.81,-34 333.81,-41"/>
</g>
<!-- Node7 -->
<g id="node7" class="node">
<title>Node7</title>
<g id="a_node7"><a xlink:href="group__command__classes__fixt.html#ga5272651939ced1723158340039e8da19" target="_top" xlink:title="Setup fixture for Z&#45;Wave Command Classes.">
<polygon fill="none" stroke="black" points="0,-28 0,-47 150,-47 150,-28 0,-28"/>
<text text-anchor="middle" x="75" y="-35" font-family="Helvetica,sans-Serif" font-size="10.00">zwave_command_classes_init</text>
</a>
</g>
</g>
<!-- Node6&#45;&gt;Node7 -->
<g id="edge6" class="edge">
<title>Node6&#45;&gt;Node7</title>
<path fill="none" stroke="midnightblue" d="M175.51,-37.5C167.16,-37.5 158.61,-37.5 150.21,-37.5"/>
<polygon fill="midnightblue" stroke="midnightblue" points="175.59,-41 185.59,-37.5 175.59,-34 175.59,-41"/>
</g>
</g>
</svg>
