<?xml version="1.0" encoding="UTF-8" standalone="no"?>
<!DOCTYPE svg PUBLIC "-//W3C//DTD SVG 1.1//EN"
 "http://www.w3.org/Graphics/SVG/1.1/DTD/svg11.dtd">
<!-- Generated by graphviz version 2.43.0 (0)
 -->
<!-- Title: applications/zpc/components/zwave/zwave_tx/src/zwave_tx_process.h Pages: 1 -->
<svg width="312pt" height="206pt"
 viewBox="0.00 0.00 312.00 206.00" xmlns="http://www.w3.org/2000/svg" xmlns:xlink="http://www.w3.org/1999/xlink">
<g id="graph0" class="graph" transform="scale(1 1) rotate(0) translate(4 202)">
<title>applications/zpc/components/zwave/zwave_tx/src/zwave_tx_process.h</title>
<!-- Node1 -->
<g id="node1" class="node">
<title>Node1</title>
<g id="a_node1"><a xlink:title=" ">
<polygon fill="#bfbfbf" stroke="black" points="80,-156.5 80,-197.5 223,-197.5 223,-156.5 80,-156.5"/>
<text text-anchor="start" x="88" y="-185.5" font-family="Helvetica,sans-Serif" font-size="10.00">applications/zpc/components</text>
<text text-anchor="start" x="88" y="-174.5" font-family="Helvetica,sans-Serif" font-size="10.00">/zwave/zwave_tx/src/zwave</text>
<text text-anchor="middle" x="151.5" y="-163.5" font-family="Helvetica,sans-Serif" font-size="10.00">_tx_process.h</text>
</a>
</g>
</g>
<!-- Node2 -->
<g id="node2" class="node">
<title>Node2</title>
<g id="a_node2"><a xlink:href="zwave__tx__fixt_8c.html" target="_top" xlink:title=" ">
<polygon fill="none" stroke="black" points="0,-78.5 0,-119.5 143,-119.5 143,-78.5 0,-78.5"/>
<text text-anchor="start" x="8" y="-107.5" font-family="Helvetica,sans-Serif" font-size="10.00">applications/zpc/components</text>
<text text-anchor="start" x="8" y="-96.5" font-family="Helvetica,sans-Serif" font-size="10.00">/zwave/zwave_tx/src/zwave</text>
<text text-anchor="middle" x="71.5" y="-85.5" font-family="Helvetica,sans-Serif" font-size="10.00">_tx_fixt.c</text>
</a>
</g>
</g>
<!-- Node1&#45;&gt;Node2 -->
<g id="edge1" class="edge">
<title>Node1&#45;&gt;Node2</title>
<path fill="none" stroke="midnightblue" d="M123.6,-149.49C113.22,-139.63 101.63,-128.63 92.03,-119.51"/>
<polygon fill="midnightblue" stroke="midnightblue" points="121.24,-152.08 130.9,-156.43 126.06,-147 121.24,-152.08"/>
</g>
<!-- Node3 -->
<g id="node3" class="node">
<title>Node3</title>
<g id="a_node3"><a xlink:href="zwave__tx__state__logging_8h.html" target="_top" xlink:title="Logging helpers for Z&#45;Wave TX states and events.">
<polygon fill="none" stroke="black" points="161,-78.5 161,-119.5 304,-119.5 304,-78.5 161,-78.5"/>
<text text-anchor="start" x="169" y="-107.5" font-family="Helvetica,sans-Serif" font-size="10.00">applications/zpc/components</text>
<text text-anchor="start" x="169" y="-96.5" font-family="Helvetica,sans-Serif" font-size="10.00">/zwave/zwave_tx/src/zwave</text>
<text text-anchor="middle" x="232.5" y="-85.5" font-family="Helvetica,sans-Serif" font-size="10.00">_tx_state_logging.h</text>
</a>
</g>
</g>
<!-- Node1&#45;&gt;Node3 -->
<g id="edge2" class="edge">
<title>Node1&#45;&gt;Node3</title>
<path fill="none" stroke="midnightblue" d="M179.75,-149.49C190.26,-139.63 201.99,-128.63 211.71,-119.51"/>
<polygon fill="midnightblue" stroke="midnightblue" points="177.26,-147.03 172.36,-156.43 182.05,-152.14 177.26,-147.03"/>
</g>
<!-- Node4 -->
<g id="node4" class="node">
<title>Node4</title>
<g id="a_node4"><a xlink:href="zwave__tx__state__logging_8c.html" target="_top" xlink:title=" ">
<polygon fill="none" stroke="black" points="161,-0.5 161,-41.5 304,-41.5 304,-0.5 161,-0.5"/>
<text text-anchor="start" x="169" y="-29.5" font-family="Helvetica,sans-Serif" font-size="10.00">applications/zpc/components</text>
<text text-anchor="start" x="169" y="-18.5" font-family="Helvetica,sans-Serif" font-size="10.00">/zwave/zwave_tx/src/zwave</text>
<text text-anchor="middle" x="232.5" y="-7.5" font-family="Helvetica,sans-Serif" font-size="10.00">_tx_state_logging.c</text>
</a>
</g>
</g>
<!-- Node3&#45;&gt;Node4 -->
<g id="edge3" class="edge">
<title>Node3&#45;&gt;Node4</title>
<path fill="none" stroke="midnightblue" d="M232.5,-68.3C232.5,-59.3 232.5,-49.65 232.5,-41.51"/>
<polygon fill="midnightblue" stroke="midnightblue" points="229,-68.43 232.5,-78.43 236,-68.43 229,-68.43"/>
</g>
</g>
</svg>
