<?xml version="1.0" encoding="UTF-8" standalone="no"?>
<!DOCTYPE svg PUBLIC "-//W3C//DTD SVG 1.1//EN"
 "http://www.w3.org/Graphics/SVG/1.1/DTD/svg11.dtd">
<!-- Generated by graphviz version 2.43.0 (0)
 -->
<!-- Title: applications/zpc/components/zwave_command_classes/src/zwave_command_class_alarm_sensor.c Pages: 1 -->
<svg width="2876pt" height="586pt"
 viewBox="0.00 0.00 2876.00 586.00" xmlns="http://www.w3.org/2000/svg" xmlns:xlink="http://www.w3.org/1999/xlink">
<g id="graph0" class="graph" transform="scale(1 1) rotate(0) translate(4 582)">
<title>applications/zpc/components/zwave_command_classes/src/zwave_command_class_alarm_sensor.c</title>
<!-- Node1 -->
<g id="node1" class="node">
<title>Node1</title>
<g id="a_node1"><a xlink:title=" ">
<polygon fill="#bfbfbf" stroke="black" points="2139,-525.5 2139,-577.5 2293,-577.5 2293,-525.5 2139,-525.5"/>
<text text-anchor="start" x="2147" y="-565.5" font-family="Helvetica,sans-Serif" font-size="10.00">applications/zpc/components</text>
<text text-anchor="start" x="2147" y="-554.5" font-family="Helvetica,sans-Serif" font-size="10.00">/zwave_command_classes/src</text>
<text text-anchor="start" x="2147" y="-543.5" font-family="Helvetica,sans-Serif" font-size="10.00">/zwave_command_class_alarm</text>
<text text-anchor="middle" x="2216" y="-532.5" font-family="Helvetica,sans-Serif" font-size="10.00">_sensor.c</text>
</a>
</g>
</g>
<!-- Node2 -->
<g id="node2" class="node">
<title>Node2</title>
<g id="a_node2"><a xlink:href="zwave__command__class__alarm__sensor_8h.html" target="_top" xlink:title=" ">
<polygon fill="none" stroke="black" points="1408,-257.5 1408,-287.5 1530,-287.5 1530,-257.5 1408,-257.5"/>
<text text-anchor="start" x="1416" y="-275.5" font-family="Helvetica,sans-Serif" font-size="10.00">zwave_command_class</text>
<text text-anchor="middle" x="1469" y="-264.5" font-family="Helvetica,sans-Serif" font-size="10.00">_alarm_sensor.h</text>
</a>
</g>
</g>
<!-- Node1&#45;&gt;Node2 -->
<g id="edge1" class="edge">
<title>Node1&#45;&gt;Node2</title>
<path fill="none" stroke="midnightblue" d="M2142.79,-525.37C2037.68,-489.04 1838.15,-419.16 1670,-355 1615.12,-334.06 1552.49,-308.38 1511.93,-291.51"/>
<polygon fill="midnightblue" stroke="midnightblue" points="1513.19,-288.24 1502.62,-287.63 1510.5,-294.7 1513.19,-288.24"/>
</g>
<!-- Node6 -->
<g id="node6" class="node">
<title>Node6</title>
<g id="a_node6"><a xlink:href="zwave__command__classes__utils_8h.html" target="_top" xlink:title=" ">
<polygon fill="none" stroke="black" points="1374,-391.5 1374,-421.5 1506,-421.5 1506,-391.5 1374,-391.5"/>
<text text-anchor="start" x="1382" y="-409.5" font-family="Helvetica,sans-Serif" font-size="10.00">zwave_command_classes</text>
<text text-anchor="middle" x="1440" y="-398.5" font-family="Helvetica,sans-Serif" font-size="10.00">_utils.h</text>
</a>
</g>
</g>
<!-- Node1&#45;&gt;Node6 -->
<g id="edge5" class="edge">
<title>Node1&#45;&gt;Node6</title>
<path fill="none" stroke="midnightblue" d="M2138.81,-549.35C1984.38,-546.09 1643.06,-533.89 1536,-489 1504.63,-475.85 1475.94,-448.58 1458.25,-429.22"/>
<polygon fill="midnightblue" stroke="midnightblue" points="1460.85,-426.87 1451.59,-421.72 1455.61,-431.52 1460.85,-426.87"/>
</g>
<!-- Node19 -->
<g id="node19" class="node">
<title>Node19</title>
<g id="a_node19"><a xlink:href="attribute__store__defined__attribute__types_8h.html" target="_top" xlink:title=" ">
<polygon fill="none" stroke="black" points="2094,-257.5 2094,-287.5 2210,-287.5 2210,-257.5 2094,-257.5"/>
<text text-anchor="start" x="2102" y="-275.5" font-family="Helvetica,sans-Serif" font-size="10.00">attribute_store_defined</text>
<text text-anchor="middle" x="2152" y="-264.5" font-family="Helvetica,sans-Serif" font-size="10.00">_attribute_types.h</text>
</a>
</g>
</g>
<!-- Node1&#45;&gt;Node19 -->
<g id="edge47" class="edge">
<title>Node1&#45;&gt;Node19</title>
<path fill="none" stroke="midnightblue" d="M2195.79,-525.29C2188.34,-514.68 2180.59,-501.83 2176,-489 2152.29,-422.77 2150.41,-338.41 2151.12,-297.67"/>
<polygon fill="midnightblue" stroke="midnightblue" points="2154.62,-297.7 2151.36,-287.61 2147.62,-297.52 2154.62,-297.7"/>
</g>
<!-- Node20 -->
<g id="node20" class="node">
<title>Node20</title>
<g id="a_node20"><a xlink:title=" ">
<polygon fill="none" stroke="#bfbfbf" points="2366,-196 2366,-215 2454,-215 2454,-196 2366,-196"/>
<text text-anchor="middle" x="2410" y="-203" font-family="Helvetica,sans-Serif" font-size="10.00">ZW_classcmd.h</text>
</a>
</g>
</g>
<!-- Node1&#45;&gt;Node20 -->
<g id="edge46" class="edge">
<title>Node1&#45;&gt;Node20</title>
<path fill="none" stroke="midnightblue" d="M2208.75,-525.44C2204.5,-506.42 2201.33,-479.89 2209,-458 2246.19,-351.9 2349.02,-257.27 2391.39,-221.58"/>
<polygon fill="midnightblue" stroke="midnightblue" points="2393.79,-224.14 2399.24,-215.06 2389.31,-218.75 2393.79,-224.14"/>
</g>
<!-- Node25 -->
<g id="node25" class="node">
<title>Node25</title>
<g id="a_node25"><a xlink:title=" ">
<polygon fill="none" stroke="#bfbfbf" points="2218,-464 2218,-483 2266,-483 2266,-464 2218,-464"/>
<text text-anchor="middle" x="2242" y="-471" font-family="Helvetica,sans-Serif" font-size="10.00">stdlib.h</text>
</a>
</g>
</g>
<!-- Node1&#45;&gt;Node25 -->
<g id="edge44" class="edge">
<title>Node1&#45;&gt;Node25</title>
<path fill="none" stroke="midnightblue" d="M2224.66,-525.19C2228.26,-514.65 2232.37,-502.64 2235.69,-492.95"/>
<polygon fill="midnightblue" stroke="midnightblue" points="2239.1,-493.8 2239.02,-483.21 2232.47,-491.54 2239.1,-493.8"/>
</g>
<!-- Node26 -->
<g id="node26" class="node">
<title>Node26</title>
<g id="a_node26"><a xlink:href="zwave__command__class__alarm__sensor__types_8h.html" target="_top" xlink:title=" ">
<polygon fill="none" stroke="black" points="2284,-458.5 2284,-488.5 2406,-488.5 2406,-458.5 2284,-458.5"/>
<text text-anchor="start" x="2292" y="-476.5" font-family="Helvetica,sans-Serif" font-size="10.00">zwave_command_class</text>
<text text-anchor="middle" x="2345" y="-465.5" font-family="Helvetica,sans-Serif" font-size="10.00">_alarm_sensor_types.h</text>
</a>
</g>
</g>
<!-- Node1&#45;&gt;Node26 -->
<g id="edge45" class="edge">
<title>Node1&#45;&gt;Node26</title>
<path fill="none" stroke="midnightblue" d="M2258.6,-525.4C2276.06,-515.12 2295.95,-503.4 2312.24,-493.8"/>
<polygon fill="midnightblue" stroke="midnightblue" points="2314.05,-496.8 2320.89,-488.71 2310.49,-490.77 2314.05,-496.8"/>
</g>
<!-- Node27 -->
<g id="node27" class="node">
<title>Node27</title>
<g id="a_node27"><a xlink:href="zpc__attribute__store__network__helper_8h.html" target="_top" xlink:title=" ">
<polygon fill="none" stroke="black" points="321,-324.5 321,-354.5 421,-354.5 421,-324.5 321,-324.5"/>
<text text-anchor="start" x="329" y="-342.5" font-family="Helvetica,sans-Serif" font-size="10.00">zpc_attribute_store</text>
<text text-anchor="middle" x="371" y="-331.5" font-family="Helvetica,sans-Serif" font-size="10.00">_network_helper.h</text>
</a>
</g>
</g>
<!-- Node1&#45;&gt;Node27 -->
<g id="edge48" class="edge">
<title>Node1&#45;&gt;Node27</title>
<path fill="none" stroke="midnightblue" d="M2138.84,-549.9C1808.61,-547.06 527.86,-533.22 455,-489 409.33,-461.29 386.32,-398.92 376.71,-364.48"/>
<polygon fill="midnightblue" stroke="midnightblue" points="380.08,-363.54 374.14,-354.76 373.31,-365.32 380.08,-363.54"/>
</g>
<!-- Node29 -->
<g id="node29" class="node">
<title>Node29</title>
<g id="a_node29"><a xlink:href="zwave__command__class__indices_8h.html" target="_top" xlink:title=" ">
<polygon fill="none" stroke="black" points="2424,-458.5 2424,-488.5 2546,-488.5 2546,-458.5 2424,-458.5"/>
<text text-anchor="start" x="2432" y="-476.5" font-family="Helvetica,sans-Serif" font-size="10.00">zwave_command_class</text>
<text text-anchor="middle" x="2485" y="-465.5" font-family="Helvetica,sans-Serif" font-size="10.00">_indices.h</text>
</a>
</g>
</g>
<!-- Node1&#45;&gt;Node29 -->
<g id="edge55" class="edge">
<title>Node1&#45;&gt;Node29</title>
<path fill="none" stroke="midnightblue" d="M2293.08,-528.72C2335.16,-516.83 2386.47,-502.34 2425.45,-491.33"/>
<polygon fill="midnightblue" stroke="midnightblue" points="2426.4,-494.69 2435.08,-488.61 2424.5,-487.96 2426.4,-494.69"/>
</g>
<!-- Node30 -->
<g id="node30" class="node">
<title>Node30</title>
<g id="a_node30"><a xlink:href="zwave__command__handler_8h.html" target="_top" xlink:title=" ">
<polygon fill="none" stroke="black" points="463.5,-464 463.5,-483 600.5,-483 600.5,-464 463.5,-464"/>
<text text-anchor="middle" x="532" y="-471" font-family="Helvetica,sans-Serif" font-size="10.00">zwave_command_handler.h</text>
</a>
</g>
</g>
<!-- Node1&#45;&gt;Node30 -->
<g id="edge56" class="edge">
<title>Node1&#45;&gt;Node30</title>
<path fill="none" stroke="midnightblue" d="M2138.99,-547.02C1858.64,-534.37 894.16,-490.84 610.85,-478.06"/>
<polygon fill="midnightblue" stroke="midnightblue" points="610.81,-474.55 600.66,-477.6 610.49,-481.55 610.81,-474.55"/>
</g>
<!-- Node38 -->
<g id="node38" class="node">
<title>Node38</title>
<g id="a_node38"><a xlink:title=" ">
<polygon fill="none" stroke="#bfbfbf" points="2564.5,-464 2564.5,-483 2663.5,-483 2663.5,-464 2564.5,-464"/>
<text text-anchor="middle" x="2614" y="-471" font-family="Helvetica,sans-Serif" font-size="10.00">attribute_resolver.h</text>
</a>
</g>
</g>
<!-- Node1&#45;&gt;Node38 -->
<g id="edge86" class="edge">
<title>Node1&#45;&gt;Node38</title>
<path fill="none" stroke="midnightblue" d="M2293.01,-537.92C2361.89,-526.34 2465.5,-508.1 2555,-489 2560.09,-487.91 2565.41,-486.71 2570.69,-485.47"/>
<polygon fill="midnightblue" stroke="midnightblue" points="2571.79,-488.8 2580.7,-483.06 2570.16,-482 2571.79,-488.8"/>
</g>
<!-- Node39 -->
<g id="node39" class="node">
<title>Node39</title>
<g id="a_node39"><a xlink:title=" ">
<polygon fill="none" stroke="#bfbfbf" points="2682,-464 2682,-483 2800,-483 2800,-464 2682,-464"/>
<text text-anchor="middle" x="2741" y="-471" font-family="Helvetica,sans-Serif" font-size="10.00">attribute_store_helper.h</text>
</a>
</g>
</g>
<!-- Node1&#45;&gt;Node39 -->
<g id="edge87" class="edge">
<title>Node1&#45;&gt;Node39</title>
<path fill="none" stroke="midnightblue" d="M2293.09,-541.95C2384.16,-531.42 2540.1,-512.08 2673,-489 2679.63,-487.85 2686.6,-486.51 2693.45,-485.12"/>
<polygon fill="midnightblue" stroke="midnightblue" points="2694.25,-488.53 2703.33,-483.07 2692.83,-481.68 2694.25,-488.53"/>
</g>
<!-- Node40 -->
<g id="node40" class="node">
<title>Node40</title>
<g id="a_node40"><a xlink:title=" ">
<polygon fill="none" stroke="#bfbfbf" points="2818,-464 2818,-483 2868,-483 2868,-464 2818,-464"/>
<text text-anchor="middle" x="2843" y="-471" font-family="Helvetica,sans-Serif" font-size="10.00">sl_log.h</text>
</a>
</g>
</g>
<!-- Node1&#45;&gt;Node40 -->
<g id="edge88" class="edge">
<title>Node1&#45;&gt;Node40</title>
<path fill="none" stroke="midnightblue" d="M2293.12,-549.82C2407.52,-547.18 2628.13,-535.81 2809,-489 2811.36,-488.39 2813.77,-487.64 2816.15,-486.81"/>
<polygon fill="midnightblue" stroke="midnightblue" points="2817.68,-489.97 2825.7,-483.06 2815.12,-483.46 2817.68,-489.97"/>
</g>
<!-- Node3 -->
<g id="node3" class="node">
<title>Node3</title>
<g id="a_node3"><a xlink:href="sl__status_8h.html" target="_top" xlink:title="SL Status Codes.">
<polygon fill="none" stroke="black" points="570.5,-196 570.5,-215 635.5,-215 635.5,-196 570.5,-196"/>
<text text-anchor="middle" x="603" y="-203" font-family="Helvetica,sans-Serif" font-size="10.00">sl_status.h</text>
</a>
</g>
</g>
<!-- Node2&#45;&gt;Node3 -->
<g id="edge2" class="edge">
<title>Node2&#45;&gt;Node3</title>
<path fill="none" stroke="midnightblue" d="M1407.96,-264.86C1381.82,-262.17 1350.93,-259.18 1323,-257 1042.95,-235.11 971.23,-251.63 692,-221 676.97,-219.35 660.62,-216.88 646.08,-214.45"/>
<polygon fill="midnightblue" stroke="midnightblue" points="646.3,-210.94 635.86,-212.69 645.12,-217.84 646.3,-210.94"/>
</g>
<!-- Node5 -->
<g id="node5" class="node">
<title>Node5</title>
<g id="a_node5"><a xlink:title=" ">
<polygon fill="none" stroke="#bfbfbf" points="1874.5,-196 1874.5,-215 1961.5,-215 1961.5,-196 1874.5,-196"/>
<text text-anchor="middle" x="1918" y="-203" font-family="Helvetica,sans-Serif" font-size="10.00">attribute_store.h</text>
</a>
</g>
</g>
<!-- Node2&#45;&gt;Node5 -->
<g id="edge4" class="edge">
<title>Node2&#45;&gt;Node5</title>
<path fill="none" stroke="midnightblue" d="M1530.03,-258.59C1533.06,-258.03 1536.06,-257.5 1539,-257 1654.47,-237.37 1790.82,-220.81 1864.41,-212.41"/>
<polygon fill="midnightblue" stroke="midnightblue" points="1864.82,-215.89 1874.36,-211.28 1864.03,-208.93 1864.82,-215.89"/>
</g>
<!-- Node4 -->
<g id="node4" class="node">
<title>Node4</title>
<g id="a_node4"><a xlink:title=" ">
<polygon fill="none" stroke="#bfbfbf" points="910.5,-0.5 910.5,-19.5 959.5,-19.5 959.5,-0.5 910.5,-0.5"/>
<text text-anchor="middle" x="935" y="-7.5" font-family="Helvetica,sans-Serif" font-size="10.00">stdint.h</text>
</a>
</g>
</g>
<!-- Node3&#45;&gt;Node4 -->
<g id="edge3" class="edge">
<title>Node3&#45;&gt;Node4</title>
<path fill="none" stroke="midnightblue" d="M602.74,-195.88C602.71,-179.82 604.79,-144.95 622,-123 690.83,-35.24 834.09,-16.15 900.2,-12.07"/>
<polygon fill="midnightblue" stroke="midnightblue" points="900.7,-15.55 910.5,-11.52 900.32,-8.56 900.7,-15.55"/>
</g>
<!-- Node6&#45;&gt;Node3 -->
<g id="edge8" class="edge">
<title>Node6&#45;&gt;Node3</title>
<path fill="none" stroke="midnightblue" d="M1373.71,-404.29C1186.12,-400.48 660.59,-387.04 590,-355 542.18,-333.29 498.78,-303.06 524,-257 533.48,-239.69 551.69,-227.46 568.24,-219.36"/>
<polygon fill="midnightblue" stroke="midnightblue" points="570.05,-222.39 577.72,-215.07 567.16,-216.01 570.05,-222.39"/>
</g>
<!-- Node6&#45;&gt;Node5 -->
<g id="edge20" class="edge">
<title>Node6&#45;&gt;Node5</title>
<path fill="none" stroke="midnightblue" d="M1506.23,-400.74C1631.54,-390.13 1895.24,-359.61 1945,-288 1958.83,-268.09 1944.19,-240.58 1931.67,-223.17"/>
<polygon fill="midnightblue" stroke="midnightblue" points="1934.34,-220.89 1925.48,-215.07 1928.78,-225.14 1934.34,-220.89"/>
</g>
<!-- Node7 -->
<g id="node7" class="node">
<title>Node7</title>
<g id="a_node7"><a xlink:title=" ">
<polygon fill="none" stroke="#bfbfbf" points="226,-0.5 226,-19.5 282,-19.5 282,-0.5 226,-0.5"/>
<text text-anchor="middle" x="254" y="-7.5" font-family="Helvetica,sans-Serif" font-size="10.00">stdbool.h</text>
</a>
</g>
</g>
<!-- Node6&#45;&gt;Node7 -->
<g id="edge6" class="edge">
<title>Node6&#45;&gt;Node7</title>
<path fill="none" stroke="midnightblue" d="M1373.87,-403.79C1111.55,-396.9 157.14,-370.8 130,-355 62.91,-315.93 38,-284.14 38,-206.5 38,-206.5 38,-206.5 38,-137.5 38,-97.9 43.71,-81.51 74,-56 114.15,-22.19 176.11,-13.19 215.85,-11.11"/>
<polygon fill="midnightblue" stroke="midnightblue" points="216.09,-14.61 225.94,-10.71 215.81,-7.61 216.09,-14.61"/>
</g>
<!-- Node8 -->
<g id="node8" class="node">
<title>Node8</title>
<g id="a_node8"><a xlink:title=" ">
<polygon fill="none" stroke="#bfbfbf" points="1398.5,-330 1398.5,-349 1447.5,-349 1447.5,-330 1398.5,-330"/>
<text text-anchor="middle" x="1423" y="-337" font-family="Helvetica,sans-Serif" font-size="10.00">string.h</text>
</a>
</g>
</g>
<!-- Node6&#45;&gt;Node8 -->
<g id="edge7" class="edge">
<title>Node6&#45;&gt;Node8</title>
<path fill="none" stroke="midnightblue" d="M1436.31,-391.4C1433.84,-381.96 1430.57,-369.45 1427.89,-359.19"/>
<polygon fill="midnightblue" stroke="midnightblue" points="1431.19,-357.98 1425.27,-349.19 1424.42,-359.75 1431.19,-357.98"/>
</g>
<!-- Node9 -->
<g id="node9" class="node">
<title>Node9</title>
<g id="a_node9"><a xlink:href="zwave__controller__connection__info_8h.html" target="_top" xlink:title=" ">
<polygon fill="none" stroke="black" points="700.5,-190.5 700.5,-220.5 843.5,-220.5 843.5,-190.5 700.5,-190.5"/>
<text text-anchor="start" x="708.5" y="-208.5" font-family="Helvetica,sans-Serif" font-size="10.00">zwave_controller_connection</text>
<text text-anchor="middle" x="772" y="-197.5" font-family="Helvetica,sans-Serif" font-size="10.00">_info.h</text>
</a>
</g>
</g>
<!-- Node6&#45;&gt;Node9 -->
<g id="edge9" class="edge">
<title>Node6&#45;&gt;Node9</title>
<path fill="none" stroke="midnightblue" d="M1373.93,-404.81C1240.6,-402.61 944.09,-393.41 851,-355 808.13,-337.31 790.62,-330.02 771,-288 762.65,-270.12 763.7,-247.54 766.38,-230.68"/>
<polygon fill="midnightblue" stroke="midnightblue" points="769.88,-231.01 768.29,-220.53 763,-229.71 769.88,-231.01"/>
</g>
<!-- Node12 -->
<g id="node12" class="node">
<title>Node12</title>
<g id="a_node12"><a xlink:href="zwave__generic__types_8h.html" target="_top" xlink:title=" ">
<polygon fill="none" stroke="black" points="1117.5,-62 1117.5,-81 1236.5,-81 1236.5,-62 1117.5,-62"/>
<text text-anchor="middle" x="1177" y="-69" font-family="Helvetica,sans-Serif" font-size="10.00">zwave_generic_types.h</text>
</a>
</g>
</g>
<!-- Node6&#45;&gt;Node12 -->
<g id="edge19" class="edge">
<title>Node6&#45;&gt;Node12</title>
<path fill="none" stroke="midnightblue" d="M1506.1,-405.41C1667.02,-403.41 2066,-387 2066,-273.5 2066,-273.5 2066,-273.5 2066,-204.5 2066,-121.83 1456.78,-85.58 1246.99,-75.54"/>
<polygon fill="midnightblue" stroke="midnightblue" points="1246.86,-72.03 1236.71,-75.05 1246.53,-79.02 1246.86,-72.03"/>
</g>
<!-- Node14 -->
<g id="node14" class="node">
<title>Node14</title>
<g id="a_node14"><a xlink:href="zwave__utils_8h.html" target="_top" xlink:title="Various Z&#45;Wave related utilities.">
<polygon fill="none" stroke="black" points="1678.5,-330 1678.5,-349 1755.5,-349 1755.5,-330 1678.5,-330"/>
<text text-anchor="middle" x="1717" y="-337" font-family="Helvetica,sans-Serif" font-size="10.00">zwave_utils.h</text>
</a>
</g>
</g>
<!-- Node6&#45;&gt;Node14 -->
<g id="edge21" class="edge">
<title>Node6&#45;&gt;Node14</title>
<path fill="none" stroke="midnightblue" d="M1499.76,-391.48C1551.03,-379.45 1623.85,-362.36 1670.77,-351.35"/>
<polygon fill="midnightblue" stroke="midnightblue" points="1671.72,-354.72 1680.65,-349.03 1670.12,-347.91 1671.72,-354.72"/>
</g>
<!-- Node23 -->
<g id="node23" class="node">
<title>Node23</title>
<g id="a_node23"><a xlink:href="zwave__command__class__generic__types_8h.html" target="_top" xlink:title=" ">
<polygon fill="none" stroke="black" points="104,-56.5 104,-86.5 226,-86.5 226,-56.5 104,-56.5"/>
<text text-anchor="start" x="112" y="-74.5" font-family="Helvetica,sans-Serif" font-size="10.00">zwave_command_class</text>
<text text-anchor="middle" x="165" y="-63.5" font-family="Helvetica,sans-Serif" font-size="10.00">_generic_types.h</text>
</a>
</g>
</g>
<!-- Node6&#45;&gt;Node23 -->
<g id="edge40" class="edge">
<title>Node6&#45;&gt;Node23</title>
<path fill="none" stroke="midnightblue" d="M1373.95,-403.87C1148.19,-398.12 415.42,-377.87 312,-355 219.08,-334.45 114,-368.66 114,-273.5 114,-273.5 114,-273.5 114,-204.5 114,-164.02 135.13,-120.97 150.18,-95.42"/>
<polygon fill="midnightblue" stroke="midnightblue" points="153.2,-97.2 155.41,-86.84 147.22,-93.56 153.2,-97.2"/>
</g>
<!-- Node24 -->
<g id="node24" class="node">
<title>Node24</title>
<g id="a_node24"><a xlink:title=" ">
<polygon fill="none" stroke="#bfbfbf" points="1466,-330 1466,-349 1514,-349 1514,-330 1466,-330"/>
<text text-anchor="middle" x="1490" y="-337" font-family="Helvetica,sans-Serif" font-size="10.00">clock.h</text>
</a>
</g>
</g>
<!-- Node6&#45;&gt;Node24 -->
<g id="edge43" class="edge">
<title>Node6&#45;&gt;Node24</title>
<path fill="none" stroke="midnightblue" d="M1450.85,-391.4C1458.57,-381.36 1468.97,-367.84 1477.11,-357.25"/>
<polygon fill="midnightblue" stroke="midnightblue" points="1479.99,-359.25 1483.31,-349.19 1474.44,-354.99 1479.99,-359.25"/>
</g>
<!-- Node10 -->
<g id="node10" class="node">
<title>Node10</title>
<g id="a_node10"><a xlink:href="zwave__controller__types_8h.html" target="_top" xlink:title=" ">
<polygon fill="none" stroke="black" points="631,-129 631,-148 759,-148 759,-129 631,-129"/>
<text text-anchor="middle" x="695" y="-136" font-family="Helvetica,sans-Serif" font-size="10.00">zwave_controller_types.h</text>
</a>
</g>
</g>
<!-- Node9&#45;&gt;Node10 -->
<g id="edge10" class="edge">
<title>Node9&#45;&gt;Node10</title>
<path fill="none" stroke="midnightblue" d="M755.29,-190.4C742.81,-179.86 725.77,-165.48 712.99,-154.69"/>
<polygon fill="midnightblue" stroke="midnightblue" points="715.2,-151.97 705.3,-148.19 710.68,-157.32 715.2,-151.97"/>
</g>
<!-- Node10&#45;&gt;Node4 -->
<g id="edge12" class="edge">
<title>Node10&#45;&gt;Node4</title>
<path fill="none" stroke="midnightblue" d="M704.73,-128.77C723.25,-112.53 765.38,-77.38 806,-56 836.52,-39.93 874,-27.6 900.67,-19.94"/>
<polygon fill="midnightblue" stroke="midnightblue" points="901.64,-23.3 910.33,-17.24 899.76,-16.56 901.64,-23.3"/>
</g>
<!-- Node10&#45;&gt;Node7 -->
<g id="edge11" class="edge">
<title>Node10&#45;&gt;Node7</title>
<path fill="none" stroke="midnightblue" d="M639.4,-128.94C588.89,-120.51 512.64,-106.11 448,-87 387.34,-69.06 319.03,-40.17 281.82,-23.66"/>
<polygon fill="midnightblue" stroke="midnightblue" points="283.18,-20.43 272.62,-19.54 280.32,-26.82 283.18,-20.43"/>
</g>
<!-- Node11 -->
<g id="node11" class="node">
<title>Node11</title>
<g id="a_node11"><a xlink:href="zwave__node__id__definitions_8h.html" target="_top" xlink:title=" ">
<polygon fill="none" stroke="black" points="815,-62 815,-81 957,-81 957,-62 815,-62"/>
<text text-anchor="middle" x="886" y="-69" font-family="Helvetica,sans-Serif" font-size="10.00">zwave_node_id_definitions.h</text>
</a>
</g>
</g>
<!-- Node10&#45;&gt;Node11 -->
<g id="edge13" class="edge">
<title>Node10&#45;&gt;Node11</title>
<path fill="none" stroke="midnightblue" d="M720.36,-128.87C753.99,-117.42 813.48,-97.18 851.26,-84.32"/>
<polygon fill="midnightblue" stroke="midnightblue" points="852.5,-87.6 860.84,-81.06 850.24,-80.97 852.5,-87.6"/>
</g>
<!-- Node10&#45;&gt;Node12 -->
<g id="edge15" class="edge">
<title>Node10&#45;&gt;Node12</title>
<path fill="none" stroke="midnightblue" d="M758.51,-128.94C848.78,-116.76 1013.61,-94.53 1107.2,-81.91"/>
<polygon fill="midnightblue" stroke="midnightblue" points="1107.7,-85.38 1117.14,-80.57 1106.77,-78.44 1107.7,-85.38"/>
</g>
<!-- Node13 -->
<g id="node13" class="node">
<title>Node13</title>
<g id="a_node13"><a xlink:href="zwave__rf__region_8h.html" target="_top" xlink:title=" ">
<polygon fill="none" stroke="black" points="457,-62 457,-81 553,-81 553,-62 457,-62"/>
<text text-anchor="middle" x="505" y="-69" font-family="Helvetica,sans-Serif" font-size="10.00">zwave_rf_region.h</text>
</a>
</g>
</g>
<!-- Node10&#45;&gt;Node13 -->
<g id="edge17" class="edge">
<title>Node10&#45;&gt;Node13</title>
<path fill="none" stroke="midnightblue" d="M669.77,-128.87C636.32,-117.42 577.14,-97.18 539.56,-84.32"/>
<polygon fill="midnightblue" stroke="midnightblue" points="540.63,-80.99 530.03,-81.06 538.36,-87.61 540.63,-80.99"/>
</g>
<!-- Node11&#45;&gt;Node4 -->
<g id="edge14" class="edge">
<title>Node11&#45;&gt;Node4</title>
<path fill="none" stroke="midnightblue" d="M893.02,-61.98C900.44,-52.96 912.33,-38.52 921.57,-27.31"/>
<polygon fill="midnightblue" stroke="midnightblue" points="924.34,-29.45 927.99,-19.51 918.93,-25 924.34,-29.45"/>
</g>
<!-- Node12&#45;&gt;Node4 -->
<g id="edge16" class="edge">
<title>Node12&#45;&gt;Node4</title>
<path fill="none" stroke="midnightblue" d="M1142.33,-61.98C1096.28,-50.65 1015.42,-30.77 969.47,-19.48"/>
<polygon fill="midnightblue" stroke="midnightblue" points="970.22,-16.06 959.67,-17.07 968.55,-22.85 970.22,-16.06"/>
</g>
<!-- Node13&#45;&gt;Node7 -->
<g id="edge18" class="edge">
<title>Node13&#45;&gt;Node7</title>
<path fill="none" stroke="midnightblue" d="M469.04,-61.98C422.06,-50.84 340.15,-31.42 292.13,-20.04"/>
<polygon fill="midnightblue" stroke="midnightblue" points="292.67,-16.57 282.13,-17.67 291.05,-23.38 292.67,-16.57"/>
</g>
<!-- Node14&#45;&gt;Node3 -->
<g id="edge24" class="edge">
<title>Node14&#45;&gt;Node3</title>
<path fill="none" stroke="midnightblue" d="M1678.37,-335.31C1639.23,-332.14 1576.94,-327.31 1523,-324 1356.01,-313.76 933.11,-329.35 771,-288 715.2,-273.77 655.96,-240.05 624.91,-220.74"/>
<polygon fill="midnightblue" stroke="midnightblue" points="626.54,-217.63 616.21,-215.24 622.8,-223.54 626.54,-217.63"/>
</g>
<!-- Node14&#45;&gt;Node4 -->
<g id="edge22" class="edge">
<title>Node14&#45;&gt;Node4</title>
<path fill="none" stroke="midnightblue" d="M1755.65,-339.26C1804.46,-338.3 1888.83,-330.01 1945,-288 1978.14,-263.22 1990,-247.88 1990,-206.5 1990,-206.5 1990,-206.5 1990,-137.5 1990,-32.26 1151.66,-14.12 969.61,-11.43"/>
<polygon fill="midnightblue" stroke="midnightblue" points="969.57,-7.93 959.53,-11.28 969.47,-14.93 969.57,-7.93"/>
</g>
<!-- Node14&#45;&gt;Node5 -->
<g id="edge39" class="edge">
<title>Node14&#45;&gt;Node5</title>
<path fill="none" stroke="midnightblue" d="M1755.74,-334.88C1810.69,-328.85 1906.95,-314.69 1928,-288 1942.24,-269.95 1934.57,-242.31 1926.95,-224.31"/>
<polygon fill="midnightblue" stroke="midnightblue" points="1930.11,-222.82 1922.74,-215.21 1923.76,-225.75 1930.11,-222.82"/>
</g>
<!-- Node14&#45;&gt;Node7 -->
<g id="edge23" class="edge">
<title>Node14&#45;&gt;Node7</title>
<path fill="none" stroke="midnightblue" d="M1678.38,-335.1C1639.26,-331.78 1576.97,-326.82 1523,-324 1456.39,-320.51 371.16,-334.15 323,-288 269.91,-237.13 330.73,-193.83 311,-123 301,-87.09 278.96,-49.23 265.41,-28.02"/>
<polygon fill="midnightblue" stroke="midnightblue" points="268.25,-25.97 259.85,-19.51 262.39,-29.79 268.25,-25.97"/>
</g>
<!-- Node14&#45;&gt;Node11 -->
<g id="edge26" class="edge">
<title>Node14&#45;&gt;Node11</title>
<path fill="none" stroke="midnightblue" d="M1715.5,-329.87C1712.14,-313.14 1702.36,-276.28 1679,-257 1569.94,-166.95 1146.82,-104.95 967.28,-82.16"/>
<polygon fill="midnightblue" stroke="midnightblue" points="967.46,-78.66 957.1,-80.88 966.59,-85.61 967.46,-78.66"/>
</g>
<!-- Node14&#45;&gt;Node12 -->
<g id="edge25" class="edge">
<title>Node14&#45;&gt;Node12</title>
<path fill="none" stroke="midnightblue" d="M1719.16,-329.94C1722.66,-313.96 1727.69,-279.24 1712,-257 1605.24,-105.66 1365.62,-77.16 1246.69,-72.65"/>
<polygon fill="midnightblue" stroke="midnightblue" points="1246.72,-69.15 1236.61,-72.32 1246.49,-76.15 1246.72,-69.15"/>
</g>
<!-- Node15 -->
<g id="node15" class="node">
<title>Node15</title>
<g id="a_node15"><a xlink:href="zwave__controller__keyset_8h.html" target="_top" xlink:title=" ">
<polygon fill="none" stroke="black" points="1180.5,-263 1180.5,-282 1313.5,-282 1313.5,-263 1180.5,-263"/>
<text text-anchor="middle" x="1247" y="-270" font-family="Helvetica,sans-Serif" font-size="10.00">zwave_controller_keyset.h</text>
</a>
</g>
</g>
<!-- Node14&#45;&gt;Node15 -->
<g id="edge27" class="edge">
<title>Node14&#45;&gt;Node15</title>
<path fill="none" stroke="midnightblue" d="M1678.14,-333.13C1599.25,-322.22 1419.3,-297.33 1318.61,-283.4"/>
<polygon fill="midnightblue" stroke="midnightblue" points="1318.9,-279.91 1308.52,-282.01 1317.94,-286.84 1318.9,-279.91"/>
</g>
<!-- Node16 -->
<g id="node16" class="node">
<title>Node16</title>
<g id="a_node16"><a xlink:href="zwave__keyset__definitions_8h.html" target="_top" xlink:title=" ">
<polygon fill="none" stroke="black" points="1265.5,-196 1265.5,-215 1402.5,-215 1402.5,-196 1265.5,-196"/>
<text text-anchor="middle" x="1334" y="-203" font-family="Helvetica,sans-Serif" font-size="10.00">zwave_keyset_definitions.h</text>
</a>
</g>
</g>
<!-- Node14&#45;&gt;Node16 -->
<g id="edge31" class="edge">
<title>Node14&#45;&gt;Node16</title>
<path fill="none" stroke="midnightblue" d="M1755.59,-334.48C1820.04,-326.36 1938.45,-304.54 1895,-257 1863.13,-222.13 1559.73,-211.13 1412.88,-207.83"/>
<polygon fill="midnightblue" stroke="midnightblue" points="1412.66,-204.32 1402.58,-207.61 1412.5,-211.32 1412.66,-204.32"/>
</g>
<!-- Node17 -->
<g id="node17" class="node">
<title>Node17</title>
<g id="a_node17"><a xlink:href="zwave__command__class__version__types_8h.html" target="_top" xlink:title=" ">
<polygon fill="none" stroke="black" points="1548,-257.5 1548,-287.5 1670,-287.5 1670,-257.5 1548,-257.5"/>
<text text-anchor="start" x="1556" y="-275.5" font-family="Helvetica,sans-Serif" font-size="10.00">zwave_command_class</text>
<text text-anchor="middle" x="1609" y="-264.5" font-family="Helvetica,sans-Serif" font-size="10.00">_version_types.h</text>
</a>
</g>
</g>
<!-- Node14&#45;&gt;Node17 -->
<g id="edge32" class="edge">
<title>Node14&#45;&gt;Node17</title>
<path fill="none" stroke="midnightblue" d="M1702.43,-329.73C1686.79,-320.32 1661.42,-305.05 1641.07,-292.8"/>
<polygon fill="midnightblue" stroke="midnightblue" points="1642.78,-289.75 1632.41,-287.59 1639.17,-295.74 1642.78,-289.75"/>
</g>
<!-- Node18 -->
<g id="node18" class="node">
<title>Node18</title>
<g id="a_node18"><a xlink:href="zwave__command__class__wake__up__types_8h.html" target="_top" xlink:title=" ">
<polygon fill="none" stroke="black" points="1764,-257.5 1764,-287.5 1886,-287.5 1886,-257.5 1764,-257.5"/>
<text text-anchor="start" x="1772" y="-275.5" font-family="Helvetica,sans-Serif" font-size="10.00">zwave_command_class</text>
<text text-anchor="middle" x="1825" y="-264.5" font-family="Helvetica,sans-Serif" font-size="10.00">_wake_up_types.h</text>
</a>
</g>
</g>
<!-- Node14&#45;&gt;Node18 -->
<g id="edge33" class="edge">
<title>Node14&#45;&gt;Node18</title>
<path fill="none" stroke="midnightblue" d="M1731.57,-329.73C1747.21,-320.32 1772.58,-305.05 1792.93,-292.8"/>
<polygon fill="midnightblue" stroke="midnightblue" points="1794.83,-295.74 1801.59,-287.59 1791.22,-289.75 1794.83,-295.74"/>
</g>
<!-- Node14&#45;&gt;Node19 -->
<g id="edge34" class="edge">
<title>Node14&#45;&gt;Node19</title>
<path fill="none" stroke="midnightblue" d="M1755.6,-332.73C1829.36,-321.71 1991.17,-297.53 2083.63,-283.72"/>
<polygon fill="midnightblue" stroke="midnightblue" points="2084.36,-287.15 2093.73,-282.21 2083.32,-280.22 2084.36,-287.15"/>
</g>
<!-- Node15&#45;&gt;Node9 -->
<g id="edge28" class="edge">
<title>Node15&#45;&gt;Node9</title>
<path fill="none" stroke="midnightblue" d="M1184.41,-262.94C1099.46,-251.31 947.52,-230.52 853.67,-217.68"/>
<polygon fill="midnightblue" stroke="midnightblue" points="854.03,-214.19 843.65,-216.31 853.09,-221.13 854.03,-214.19"/>
</g>
<!-- Node15&#45;&gt;Node16 -->
<g id="edge29" class="edge">
<title>Node15&#45;&gt;Node16</title>
<path fill="none" stroke="midnightblue" d="M1258.73,-262.73C1272.95,-252.11 1297.13,-234.05 1314.24,-221.26"/>
<polygon fill="midnightblue" stroke="midnightblue" points="1316.54,-223.92 1322.45,-215.13 1312.35,-218.31 1316.54,-223.92"/>
</g>
<!-- Node16&#45;&gt;Node4 -->
<g id="edge30" class="edge">
<title>Node16&#45;&gt;Node4</title>
<path fill="none" stroke="midnightblue" d="M1331.77,-195.98C1324.5,-169.99 1298.8,-91.33 1246,-56 1201.37,-26.13 1041.42,-15.59 969.94,-12.31"/>
<polygon fill="midnightblue" stroke="midnightblue" points="969.81,-8.8 959.66,-11.86 969.5,-15.8 969.81,-8.8"/>
</g>
<!-- Node19&#45;&gt;Node5 -->
<g id="edge36" class="edge">
<title>Node19&#45;&gt;Node5</title>
<path fill="none" stroke="midnightblue" d="M2101.51,-257.48C2058.75,-245.6 1998.23,-228.79 1958.56,-217.77"/>
<polygon fill="midnightblue" stroke="midnightblue" points="1959.28,-214.33 1948.7,-215.03 1957.4,-221.08 1959.28,-214.33"/>
</g>
<!-- Node19&#45;&gt;Node20 -->
<g id="edge35" class="edge">
<title>Node19&#45;&gt;Node20</title>
<path fill="none" stroke="midnightblue" d="M2210.42,-257.53C2251.49,-247.6 2307.69,-233.82 2357,-221 2361.05,-219.95 2365.27,-218.83 2369.48,-217.7"/>
<polygon fill="midnightblue" stroke="midnightblue" points="2370.47,-221.06 2379.21,-215.07 2368.64,-214.3 2370.47,-221.06"/>
</g>
<!-- Node21 -->
<g id="node21" class="node">
<title>Node21</title>
<g id="a_node21"><a xlink:title=" ">
<polygon fill="none" stroke="#bfbfbf" points="2220,-196 2220,-215 2348,-215 2348,-196 2220,-196"/>
<text text-anchor="middle" x="2284" y="-203" font-family="Helvetica,sans-Serif" font-size="10.00">uic_attribute_definitions.h</text>
</a>
</g>
</g>
<!-- Node19&#45;&gt;Node21 -->
<g id="edge37" class="edge">
<title>Node19&#45;&gt;Node21</title>
<path fill="none" stroke="midnightblue" d="M2180.64,-257.4C2203.5,-246.14 2235.26,-230.5 2257.52,-219.54"/>
<polygon fill="midnightblue" stroke="midnightblue" points="2259.3,-222.56 2266.72,-215.01 2256.21,-216.28 2259.3,-222.56"/>
</g>
<!-- Node22 -->
<g id="node22" class="node">
<title>Node22</title>
<g id="a_node22"><a xlink:title=" ">
<polygon fill="none" stroke="#bfbfbf" points="2094.5,-190.5 2094.5,-220.5 2201.5,-220.5 2201.5,-190.5 2094.5,-190.5"/>
<text text-anchor="start" x="2102.5" y="-208.5" font-family="Helvetica,sans-Serif" font-size="10.00">unify_dotdot_defined</text>
<text text-anchor="middle" x="2148" y="-197.5" font-family="Helvetica,sans-Serif" font-size="10.00">_attribute_types.h</text>
</a>
</g>
</g>
<!-- Node19&#45;&gt;Node22 -->
<g id="edge38" class="edge">
<title>Node19&#45;&gt;Node22</title>
<path fill="none" stroke="midnightblue" d="M2151.13,-257.4C2150.65,-249.56 2150.04,-239.6 2149.48,-230.57"/>
<polygon fill="midnightblue" stroke="midnightblue" points="2152.97,-230.34 2148.87,-220.58 2145.99,-230.77 2152.97,-230.34"/>
</g>
<!-- Node23&#45;&gt;Node4 -->
<g id="edge42" class="edge">
<title>Node23&#45;&gt;Node4</title>
<path fill="none" stroke="midnightblue" d="M226.21,-61.97C242.98,-59.82 261.17,-57.65 278,-56 515.44,-32.66 802.33,-17.47 900.29,-12.65"/>
<polygon fill="midnightblue" stroke="midnightblue" points="900.68,-16.14 910.5,-12.15 900.34,-9.15 900.68,-16.14"/>
</g>
<!-- Node23&#45;&gt;Node7 -->
<g id="edge41" class="edge">
<title>Node23&#45;&gt;Node7</title>
<path fill="none" stroke="midnightblue" d="M186.09,-56.4C200.09,-47.04 218.41,-34.79 232.49,-25.38"/>
<polygon fill="midnightblue" stroke="midnightblue" points="234.68,-28.13 241.05,-19.66 230.79,-22.31 234.68,-28.13"/>
</g>
<!-- Node27&#45;&gt;Node3 -->
<g id="edge50" class="edge">
<title>Node27&#45;&gt;Node3</title>
<path fill="none" stroke="midnightblue" d="M383.55,-324.27C400,-306.39 430.48,-275.77 462,-257 479.82,-246.39 530.17,-229.4 565.6,-218.09"/>
<polygon fill="midnightblue" stroke="midnightblue" points="566.68,-221.42 575.15,-215.07 564.56,-214.75 566.68,-221.42"/>
</g>
<!-- Node27&#45;&gt;Node5 -->
<g id="edge49" class="edge">
<title>Node27&#45;&gt;Node5</title>
<path fill="none" stroke="midnightblue" d="M421.44,-334.92C465.81,-331.82 532.18,-327.33 590,-324 752.81,-314.61 1163.78,-323.3 1323,-288 1358.61,-280.1 1363.58,-265.75 1399,-257 1565.04,-215.99 1768.66,-208.01 1863.97,-206.64"/>
<polygon fill="midnightblue" stroke="midnightblue" points="1864.27,-210.13 1874.22,-206.51 1864.18,-203.13 1864.27,-210.13"/>
</g>
<!-- Node27&#45;&gt;Node10 -->
<g id="edge54" class="edge">
<title>Node27&#45;&gt;Node10</title>
<path fill="none" stroke="midnightblue" d="M352.49,-324.44C332.84,-307.79 306.71,-279.47 323,-257 359.82,-206.23 538.05,-167.42 633.82,-149.84"/>
<polygon fill="midnightblue" stroke="midnightblue" points="634.45,-153.28 643.67,-148.06 633.21,-146.4 634.45,-153.28"/>
</g>
<!-- Node28 -->
<g id="node28" class="node">
<title>Node28</title>
<g id="a_node28"><a xlink:href="zwave__unid_8h.html" target="_top" xlink:title=" ">
<polygon fill="none" stroke="black" points="332.5,-263 332.5,-282 409.5,-282 409.5,-263 332.5,-263"/>
<text text-anchor="middle" x="371" y="-270" font-family="Helvetica,sans-Serif" font-size="10.00">zwave_unid.h</text>
</a>
</g>
</g>
<!-- Node27&#45;&gt;Node28 -->
<g id="edge51" class="edge">
<title>Node27&#45;&gt;Node28</title>
<path fill="none" stroke="midnightblue" d="M371,-324.4C371,-315.06 371,-302.71 371,-292.52"/>
<polygon fill="midnightblue" stroke="midnightblue" points="374.5,-292.19 371,-282.19 367.5,-292.19 374.5,-292.19"/>
</g>
<!-- Node28&#45;&gt;Node3 -->
<g id="edge53" class="edge">
<title>Node28&#45;&gt;Node3</title>
<path fill="none" stroke="midnightblue" d="M402.11,-262.99C409.3,-261.02 416.91,-258.94 424,-257 482.66,-240.98 497.61,-237.97 556,-221 559.2,-220.07 562.51,-219.09 565.83,-218.09"/>
<polygon fill="midnightblue" stroke="midnightblue" points="567.16,-221.35 575.71,-215.09 565.12,-214.65 567.16,-221.35"/>
</g>
<!-- Node28&#45;&gt;Node11 -->
<g id="edge52" class="edge">
<title>Node28&#45;&gt;Node11</title>
<path fill="none" stroke="midnightblue" d="M387.38,-262.97C419.83,-246.43 494.94,-209.88 562,-190 651.11,-163.59 681.99,-189.23 768,-154 807.66,-137.76 847.34,-106.5 869.08,-87.77"/>
<polygon fill="midnightblue" stroke="midnightblue" points="871.54,-90.27 876.75,-81.04 866.92,-85.01 871.54,-90.27"/>
</g>
<!-- Node30&#45;&gt;Node3 -->
<g id="edge83" class="edge">
<title>Node30&#45;&gt;Node3</title>
<path fill="none" stroke="midnightblue" d="M490.67,-463.95C438.46,-450.68 350.74,-419.62 312,-355 299.94,-334.89 313.49,-266.66 323,-257 355.42,-224.06 490.08,-212.29 560.16,-208.35"/>
<polygon fill="midnightblue" stroke="midnightblue" points="560.63,-211.83 570.42,-207.8 560.25,-204.84 560.63,-211.83"/>
</g>
<!-- Node30&#45;&gt;Node7 -->
<g id="edge85" class="edge">
<title>Node30&#45;&gt;Node7</title>
<path fill="none" stroke="midnightblue" d="M463.27,-469.79C319.45,-462.26 0,-434.89 0,-340.5 0,-340.5 0,-340.5 0,-137.5 0,-96.34 11.07,-80.7 44,-56 70.71,-35.97 162.8,-21.95 215.73,-15.32"/>
<polygon fill="midnightblue" stroke="midnightblue" points="216.27,-18.78 225.77,-14.1 215.42,-11.84 216.27,-18.78"/>
</g>
<!-- Node30&#45;&gt;Node9 -->
<g id="edge57" class="edge">
<title>Node30&#45;&gt;Node9</title>
<path fill="none" stroke="midnightblue" d="M533.45,-463.85C537.9,-439.43 553.4,-368.8 590,-324 627.53,-278.06 687.89,-244.13 728.71,-224.85"/>
<polygon fill="midnightblue" stroke="midnightblue" points="730.27,-227.98 737.88,-220.61 727.33,-221.63 730.27,-227.98"/>
</g>
<!-- Node30&#45;&gt;Node17 -->
<g id="edge84" class="edge">
<title>Node30&#45;&gt;Node17</title>
<path fill="none" stroke="midnightblue" d="M580.8,-463.97C725.28,-438.63 1163.56,-361.13 1537.99,-288.18"/>
<polygon fill="midnightblue" stroke="midnightblue" points="1538.79,-291.59 1547.93,-286.24 1537.45,-284.71 1538.79,-291.59"/>
</g>
<!-- Node31 -->
<g id="node31" class="node">
<title>Node31</title>
<g id="a_node31"><a xlink:href="zwave__controller_8h.html" target="_top" xlink:title=" ">
<polygon fill="none" stroke="black" points="627,-397 627,-416 725,-416 725,-397 627,-397"/>
<text text-anchor="middle" x="676" y="-404" font-family="Helvetica,sans-Serif" font-size="10.00">zwave_controller.h</text>
</a>
</g>
</g>
<!-- Node30&#45;&gt;Node31 -->
<g id="edge58" class="edge">
<title>Node30&#45;&gt;Node31</title>
<path fill="none" stroke="midnightblue" d="M551.12,-463.87C575.76,-452.75 618.81,-433.32 647.36,-420.43"/>
<polygon fill="midnightblue" stroke="midnightblue" points="649.12,-423.47 656.8,-416.17 646.24,-417.09 649.12,-423.47"/>
</g>
<!-- Node37 -->
<g id="node37" class="node">
<title>Node37</title>
<g id="a_node37"><a xlink:href="zwave__rx_8h.html" target="_top" xlink:title=" ">
<polygon fill="none" stroke="black" points="542.5,-263 542.5,-282 609.5,-282 609.5,-263 542.5,-263"/>
<text text-anchor="middle" x="576" y="-270" font-family="Helvetica,sans-Serif" font-size="10.00">zwave_rx.h</text>
</a>
</g>
</g>
<!-- Node30&#45;&gt;Node37 -->
<g id="edge80" class="edge">
<title>Node30&#45;&gt;Node37</title>
<path fill="none" stroke="midnightblue" d="M528.35,-463.97C518.87,-440.42 495.68,-373.02 518,-324 524.9,-308.84 538.84,-296.47 551.33,-287.76"/>
<polygon fill="midnightblue" stroke="midnightblue" points="553.58,-290.48 560.04,-282.08 549.75,-284.61 553.58,-290.48"/>
</g>
<!-- Node32 -->
<g id="node32" class="node">
<title>Node32</title>
<g id="a_node32"><a xlink:href="zwave__network__management_8h.html" target="_top" xlink:title=" ">
<polygon fill="none" stroke="black" points="598.5,-330 598.5,-349 753.5,-349 753.5,-330 598.5,-330"/>
<text text-anchor="middle" x="676" y="-337" font-family="Helvetica,sans-Serif" font-size="10.00">zwave_network_management.h</text>
</a>
</g>
</g>
<!-- Node31&#45;&gt;Node32 -->
<g id="edge59" class="edge">
<title>Node31&#45;&gt;Node32</title>
<path fill="none" stroke="midnightblue" d="M676,-396.73C676,-387.18 676,-371.62 676,-359.28"/>
<polygon fill="midnightblue" stroke="midnightblue" points="679.5,-359.13 676,-349.13 672.5,-359.13 679.5,-359.13"/>
</g>
<!-- Node34 -->
<g id="node34" class="node">
<title>Node34</title>
<g id="a_node34"><a xlink:href="zwave__controller__callbacks_8h.html" target="_top" xlink:title=" ">
<polygon fill="none" stroke="black" points="859.5,-330 859.5,-349 1004.5,-349 1004.5,-330 859.5,-330"/>
<text text-anchor="middle" x="932" y="-337" font-family="Helvetica,sans-Serif" font-size="10.00">zwave_controller_callbacks.h</text>
</a>
</g>
</g>
<!-- Node31&#45;&gt;Node34 -->
<g id="edge69" class="edge">
<title>Node31&#45;&gt;Node34</title>
<path fill="none" stroke="midnightblue" d="M709.73,-396.94C755.59,-385.29 837.66,-364.45 888.22,-351.62"/>
<polygon fill="midnightblue" stroke="midnightblue" points="889.36,-354.94 898.19,-349.08 887.64,-348.15 889.36,-354.94"/>
</g>
<!-- Node32&#45;&gt;Node3 -->
<g id="edge68" class="edge">
<title>Node32&#45;&gt;Node3</title>
<path fill="none" stroke="midnightblue" d="M602.6,-329.95C576.58,-322.98 549.84,-310.45 534,-288 526.06,-276.74 527.77,-269.29 534,-257 542.34,-240.56 558.84,-228.18 573.6,-219.8"/>
<polygon fill="midnightblue" stroke="midnightblue" points="575.29,-222.86 582.49,-215.09 572.01,-216.68 575.29,-222.86"/>
</g>
<!-- Node32&#45;&gt;Node4 -->
<g id="edge60" class="edge">
<title>Node32&#45;&gt;Node4</title>
<path fill="none" stroke="midnightblue" d="M753.86,-330.46C862.04,-318.96 1045.88,-298.09 1057,-288 1084.55,-263.01 1076,-243.69 1076,-206.5 1076,-206.5 1076,-206.5 1076,-137.5 1076,-79.68 1009.5,-41.62 967.84,-23.44"/>
<polygon fill="midnightblue" stroke="midnightblue" points="969.18,-20.21 958.6,-19.56 966.46,-26.66 969.18,-20.21"/>
</g>
<!-- Node32&#45;&gt;Node7 -->
<g id="edge61" class="edge">
<title>Node32&#45;&gt;Node7</title>
<path fill="none" stroke="midnightblue" d="M598.07,-333.27C478.36,-324.71 259.75,-306.76 229,-288 127.34,-226 23.18,-150.97 95,-56 109.55,-36.76 173.57,-23.38 215.81,-16.47"/>
<polygon fill="midnightblue" stroke="midnightblue" points="216.44,-19.91 225.77,-14.89 215.35,-13 216.44,-19.91"/>
</g>
<!-- Node32&#45;&gt;Node10 -->
<g id="edge62" class="edge">
<title>Node32&#45;&gt;Node10</title>
<path fill="none" stroke="midnightblue" d="M676.82,-329.95C679.67,-300.1 689.22,-200.08 693.21,-158.2"/>
<polygon fill="midnightblue" stroke="midnightblue" points="696.7,-158.53 694.17,-148.24 689.73,-157.87 696.7,-158.53"/>
</g>
<!-- Node32&#45;&gt;Node12 -->
<g id="edge63" class="edge">
<title>Node32&#45;&gt;Node12</title>
<path fill="none" stroke="midnightblue" d="M753.64,-331.08C869.82,-319.67 1076.82,-298.11 1090,-288 1154.23,-238.74 1171.22,-134.35 1175.56,-91.48"/>
<polygon fill="midnightblue" stroke="midnightblue" points="1179.07,-91.6 1176.47,-81.33 1172.09,-90.98 1179.07,-91.6"/>
</g>
<!-- Node32&#45;&gt;Node15 -->
<g id="edge67" class="edge">
<title>Node32&#45;&gt;Node15</title>
<path fill="none" stroke="midnightblue" d="M753.61,-330.07C843.67,-320.23 996.63,-303.34 1128,-288 1141.64,-286.41 1156.15,-284.67 1170.19,-282.97"/>
<polygon fill="midnightblue" stroke="midnightblue" points="1170.79,-286.43 1180.3,-281.75 1169.95,-279.48 1170.79,-286.43"/>
</g>
<!-- Node33 -->
<g id="node33" class="node">
<title>Node33</title>
<g id="a_node33"><a xlink:href="zwave__network__management__types_8h.html" target="_top" xlink:title=" ">
<polygon fill="none" stroke="black" points="156,-123.5 156,-153.5 302,-153.5 302,-123.5 156,-123.5"/>
<text text-anchor="start" x="164" y="-141.5" font-family="Helvetica,sans-Serif" font-size="10.00">zwave_network_management</text>
<text text-anchor="middle" x="229" y="-130.5" font-family="Helvetica,sans-Serif" font-size="10.00">_types.h</text>
</a>
</g>
</g>
<!-- Node32&#45;&gt;Node33 -->
<g id="edge64" class="edge">
<title>Node32&#45;&gt;Node33</title>
<path fill="none" stroke="midnightblue" d="M598.18,-334.27C482.58,-327.24 276.4,-311.56 252,-288 218.78,-255.93 220.5,-197.22 224.73,-164.04"/>
<polygon fill="midnightblue" stroke="midnightblue" points="228.24,-164.24 226.21,-153.84 221.31,-163.23 228.24,-164.24"/>
</g>
<!-- Node33&#45;&gt;Node4 -->
<g id="edge66" class="edge">
<title>Node33&#45;&gt;Node4</title>
<path fill="none" stroke="midnightblue" d="M259.05,-123.41C300.54,-104.63 378.19,-71.92 448,-56 614.38,-18.06 819.67,-11.96 900.24,-11.08"/>
<polygon fill="midnightblue" stroke="midnightblue" points="900.35,-14.58 910.32,-11 900.29,-7.58 900.35,-14.58"/>
</g>
<!-- Node33&#45;&gt;Node7 -->
<g id="edge65" class="edge">
<title>Node33&#45;&gt;Node7</title>
<path fill="none" stroke="midnightblue" d="M231.77,-123.48C236.29,-100.62 245.25,-55.3 250.3,-29.71"/>
<polygon fill="midnightblue" stroke="midnightblue" points="253.76,-30.28 252.26,-19.79 246.89,-28.92 253.76,-30.28"/>
</g>
<!-- Node34&#45;&gt;Node12 -->
<g id="edge74" class="edge">
<title>Node34&#45;&gt;Node12</title>
<path fill="none" stroke="midnightblue" d="M992.06,-330C1042.48,-321.64 1109.2,-307.34 1128,-288 1181.28,-233.17 1181.31,-133.13 1178.7,-91.48"/>
<polygon fill="midnightblue" stroke="midnightblue" points="1182.18,-91.08 1177.93,-81.37 1175.2,-91.61 1182.18,-91.08"/>
</g>
<!-- Node34&#45;&gt;Node16 -->
<g id="edge73" class="edge">
<title>Node34&#45;&gt;Node16</title>
<path fill="none" stroke="midnightblue" d="M1004.71,-333.85C1111.57,-326.31 1300.86,-310.02 1323,-288 1339.34,-271.75 1339.45,-243.59 1337.3,-225"/>
<polygon fill="midnightblue" stroke="midnightblue" points="1340.76,-224.47 1335.83,-215.09 1333.83,-225.49 1340.76,-224.47"/>
</g>
<!-- Node34&#45;&gt;Node33 -->
<g id="edge72" class="edge">
<title>Node34&#45;&gt;Node33</title>
<path fill="none" stroke="midnightblue" d="M859.23,-332.1C829.41,-329.52 794.55,-326.55 763,-324 710.46,-319.75 332.64,-318.99 290,-288 269.03,-272.76 246.33,-201.26 235.48,-163.31"/>
<polygon fill="midnightblue" stroke="midnightblue" points="238.82,-162.25 232.75,-153.57 232.08,-164.14 238.82,-162.25"/>
</g>
<!-- Node35 -->
<g id="node35" class="node">
<title>Node35</title>
<g id="a_node35"><a xlink:href="zwave__rx__definitions_8h.html" target="_top" xlink:title=" ">
<polygon fill="none" stroke="black" points="780,-263 780,-282 896,-282 896,-263 780,-263"/>
<text text-anchor="middle" x="838" y="-270" font-family="Helvetica,sans-Serif" font-size="10.00">zwave_rx_definitions.h</text>
</a>
</g>
</g>
<!-- Node34&#45;&gt;Node35 -->
<g id="edge70" class="edge">
<title>Node34&#45;&gt;Node35</title>
<path fill="none" stroke="midnightblue" d="M919.32,-329.73C903.82,-319.01 877.36,-300.72 858.84,-287.91"/>
<polygon fill="midnightblue" stroke="midnightblue" points="860.69,-284.94 850.48,-282.13 856.71,-290.69 860.69,-284.94"/>
</g>
<!-- Node36 -->
<g id="node36" class="node">
<title>Node36</title>
<g id="a_node36"><a xlink:href="zwapi__protocol__transport_8h.html" target="_top" xlink:title="Z&#45;Wave API for transport application layer interface.">
<polygon fill="none" stroke="black" points="914,-263 914,-282 1048,-282 1048,-263 914,-263"/>
<text text-anchor="middle" x="981" y="-270" font-family="Helvetica,sans-Serif" font-size="10.00">zwapi_protocol_transport.h</text>
</a>
</g>
</g>
<!-- Node34&#45;&gt;Node36 -->
<g id="edge75" class="edge">
<title>Node34&#45;&gt;Node36</title>
<path fill="none" stroke="midnightblue" d="M938.61,-329.73C946.18,-319.7 958.75,-303.01 968.24,-290.42"/>
<polygon fill="midnightblue" stroke="midnightblue" points="971.27,-292.22 974.5,-282.13 965.68,-288.01 971.27,-292.22"/>
</g>
<!-- Node35&#45;&gt;Node9 -->
<g id="edge71" class="edge">
<title>Node35&#45;&gt;Node9</title>
<path fill="none" stroke="midnightblue" d="M829.1,-262.73C820.01,-253.78 805.55,-239.54 793.46,-227.63"/>
<polygon fill="midnightblue" stroke="midnightblue" points="795.89,-225.11 786.31,-220.59 790.97,-230.1 795.89,-225.11"/>
</g>
<!-- Node36&#45;&gt;Node3 -->
<g id="edge78" class="edge">
<title>Node36&#45;&gt;Node3</title>
<path fill="none" stroke="midnightblue" d="M937.23,-262.97C926.68,-260.97 915.45,-258.87 905,-257 855.87,-248.21 716.35,-225.15 645.46,-213.48"/>
<polygon fill="midnightblue" stroke="midnightblue" points="645.95,-210.01 635.52,-211.84 644.81,-216.92 645.95,-210.01"/>
</g>
<!-- Node36&#45;&gt;Node4 -->
<g id="edge76" class="edge">
<title>Node36&#45;&gt;Node4</title>
<path fill="none" stroke="midnightblue" d="M981.97,-262.96C985.03,-233.31 992.74,-132.47 966,-56 962.37,-45.61 955.66,-35.39 949.41,-27.33"/>
<polygon fill="midnightblue" stroke="midnightblue" points="952.03,-25.01 942.98,-19.51 946.63,-29.46 952.03,-25.01"/>
</g>
<!-- Node36&#45;&gt;Node7 -->
<g id="edge77" class="edge">
<title>Node36&#45;&gt;Node7</title>
<path fill="none" stroke="midnightblue" d="M971.05,-262.92C941.79,-238.08 852.76,-165.17 768,-123 603.58,-41.2 380.34,-18.8 292.12,-12.96"/>
<polygon fill="midnightblue" stroke="midnightblue" points="292.25,-9.46 282.05,-12.32 291.81,-16.45 292.25,-9.46"/>
</g>
<!-- Node36&#45;&gt;Node11 -->
<g id="edge79" class="edge">
<title>Node36&#45;&gt;Node11</title>
<path fill="none" stroke="midnightblue" d="M976.92,-262.95C962.58,-232.91 914.31,-131.8 894.55,-90.4"/>
<polygon fill="midnightblue" stroke="midnightblue" points="897.64,-88.76 890.17,-81.24 891.32,-91.78 897.64,-88.76"/>
</g>
<!-- Node37&#45;&gt;Node3 -->
<g id="edge82" class="edge">
<title>Node37&#45;&gt;Node3</title>
<path fill="none" stroke="midnightblue" d="M579.64,-262.73C583.69,-252.99 590.34,-236.98 595.51,-224.53"/>
<polygon fill="midnightblue" stroke="midnightblue" points="598.81,-225.7 599.42,-215.13 592.35,-223.02 598.81,-225.7"/>
</g>
<!-- Node37&#45;&gt;Node9 -->
<g id="edge81" class="edge">
<title>Node37&#45;&gt;Node9</title>
<path fill="none" stroke="midnightblue" d="M602.03,-262.87C631.95,-252.95 681.81,-236.41 719.82,-223.81"/>
<polygon fill="midnightblue" stroke="midnightblue" points="721.31,-227 729.7,-220.53 719.11,-220.35 721.31,-227"/>
</g>
</g>
</svg>
