<?xml version="1.0" encoding="UTF-8" standalone="no"?>
<!DOCTYPE svg PUBLIC "-//W3C//DTD SVG 1.1//EN"
 "http://www.w3.org/Graphics/SVG/1.1/DTD/svg11.dtd">
<!-- Generated by graphviz version 2.43.0 (0)
 -->
<!-- Title: free_rx_session Pages: 1 -->
<svg width="894pt" height="110pt"
 viewBox="0.00 0.00 894.00 109.50" xmlns="http://www.w3.org/2000/svg" xmlns:xlink="http://www.w3.org/1999/xlink">
<g id="graph0" class="graph" transform="scale(1 1) rotate(0) translate(4 105.5)">
<title>free_rx_session</title>
<!-- Node1 -->
<g id="node1" class="node">
<title>Node1</title>
<g id="a_node1"><a xlink:title=" ">
<polygon fill="#bfbfbf" stroke="black" points="800,-28 800,-47 886,-47 886,-28 800,-28"/>
<text text-anchor="middle" x="843" y="-35" font-family="Helvetica,sans-Serif" font-size="10.00">free_rx_session</text>
</a>
</g>
</g>
<!-- Node2 -->
<g id="node2" class="node">
<title>Node2</title>
<g id="a_node2"><a xlink:href="group__zwave__s0__internal.html#ga883ef7108e614b9324f5bc8f5abc7151" target="_top" xlink:title="Free all S0 RX sessions.">
<polygon fill="none" stroke="black" points="658.5,-48 658.5,-67 759.5,-67 759.5,-48 658.5,-48"/>
<text text-anchor="middle" x="709" y="-55" font-family="Helvetica,sans-Serif" font-size="10.00">free_all_rx_session</text>
</a>
</g>
</g>
<!-- Node1&#45;&gt;Node2 -->
<g id="edge1" class="edge">
<title>Node1&#45;&gt;Node2</title>
<path fill="none" stroke="midnightblue" d="M789.71,-45.42C779.78,-46.93 769.41,-48.5 759.56,-49.99"/>
<polygon fill="midnightblue" stroke="midnightblue" points="790.51,-48.84 799.87,-43.88 789.46,-41.92 790.51,-48.84"/>
</g>
<!-- Node7 -->
<g id="node7" class="node">
<title>Node7</title>
<g id="a_node7"><a xlink:href="zwave__s0__transport_8c.html#a764e435a218a773ffc2d08378a3bcc04" target="_top" xlink:title=" ">
<polygon fill="none" stroke="black" points="654,-9 654,-28 764,-28 764,-9 654,-9"/>
<text text-anchor="middle" x="709" y="-16" font-family="Helvetica,sans-Serif" font-size="10.00">s0_decrypt_message</text>
</a>
</g>
</g>
<!-- Node1&#45;&gt;Node7 -->
<g id="edge6" class="edge">
<title>Node1&#45;&gt;Node7</title>
<path fill="none" stroke="midnightblue" d="M789.82,-29.99C781.43,-28.78 772.72,-27.53 764.28,-26.31"/>
<polygon fill="midnightblue" stroke="midnightblue" points="789.47,-33.48 799.87,-31.44 790.47,-26.55 789.47,-33.48"/>
</g>
<!-- Node3 -->
<g id="node3" class="node">
<title>Node3</title>
<g id="a_node3"><a xlink:href="group__zwave__s0__network.html#ga62613f2673f05d300b1f7c8b09d981da" target="_top" xlink:title="Initialize the S0 network layer.">
<polygon fill="none" stroke="black" points="495,-50 495,-69 614,-69 614,-50 495,-50"/>
<text text-anchor="middle" x="554.5" y="-57" font-family="Helvetica,sans-Serif" font-size="10.00">zwave_s0_network_init</text>
</a>
</g>
</g>
<!-- Node2&#45;&gt;Node3 -->
<g id="edge2" class="edge">
<title>Node2&#45;&gt;Node3</title>
<path fill="none" stroke="midnightblue" d="M648.32,-58.28C637.06,-58.43 625.29,-58.58 614.06,-58.73"/>
<polygon fill="midnightblue" stroke="midnightblue" points="648.53,-61.78 658.49,-58.15 648.44,-54.78 648.53,-61.78"/>
</g>
<!-- Node4 -->
<g id="node4" class="node">
<title>Node4</title>
<g id="a_node4"><a xlink:href="zwave__s0__transport_8c.html#afb2b8b738d550a23573273ecf1436311" target="_top" xlink:title=" ">
<polygon fill="none" stroke="black" points="327.5,-82 327.5,-101 433.5,-101 433.5,-82 327.5,-82"/>
<text text-anchor="middle" x="380.5" y="-89" font-family="Helvetica,sans-Serif" font-size="10.00">s0_on_new_network</text>
</a>
</g>
</g>
<!-- Node3&#45;&gt;Node4 -->
<g id="edge3" class="edge">
<title>Node3&#45;&gt;Node4</title>
<path fill="none" stroke="midnightblue" d="M492.35,-70.88C472.84,-74.51 451.47,-78.48 432.74,-81.97"/>
<polygon fill="midnightblue" stroke="midnightblue" points="493.17,-74.28 502.36,-69.01 491.89,-67.4 493.17,-74.28"/>
</g>
<!-- Node5 -->
<g id="node5" class="node">
<title>Node5</title>
<g id="a_node5"><a xlink:href="group__zwave__s0__transport.html#ga7fcd7083b5fe3b6b2838d0d64f815f53" target="_top" xlink:title="Initialize the S0 Transport Also calls zwave_s0_network_init() which aborts all tx sessions and frees...">
<polygon fill="none" stroke="black" points="148,-25 148,-44 270,-44 270,-25 148,-25"/>
<text text-anchor="middle" x="209" y="-32" font-family="Helvetica,sans-Serif" font-size="10.00">zwave_s0_transport_init</text>
</a>
</g>
</g>
<!-- Node3&#45;&gt;Node5 -->
<g id="edge4" class="edge">
<title>Node3&#45;&gt;Node5</title>
<path fill="none" stroke="midnightblue" d="M484.64,-54.49C421.86,-49.92 330.04,-43.24 270.15,-38.88"/>
<polygon fill="midnightblue" stroke="midnightblue" points="484.61,-58 494.84,-55.23 485.12,-51.01 484.61,-58"/>
</g>
<!-- Node6 -->
<g id="node6" class="node">
<title>Node6</title>
<g id="a_node6"><a xlink:href="group__zwave__transports__fixt.html#ga26fb2571e272a5094bd0320eca3a896d" target="_top" xlink:title="Setup fixture for Z&#45;Wave Transports.">
<polygon fill="none" stroke="black" points="0,-25 0,-44 112,-44 112,-25 0,-25"/>
<text text-anchor="middle" x="56" y="-32" font-family="Helvetica,sans-Serif" font-size="10.00">zwave_transports_init</text>
</a>
</g>
</g>
<!-- Node5&#45;&gt;Node6 -->
<g id="edge5" class="edge">
<title>Node5&#45;&gt;Node6</title>
<path fill="none" stroke="midnightblue" d="M137.8,-34.5C129.14,-34.5 120.39,-34.5 112.01,-34.5"/>
<polygon fill="midnightblue" stroke="midnightblue" points="137.89,-38 147.89,-34.5 137.89,-31 137.89,-38"/>
</g>
<!-- Node8 -->
<g id="node8" class="node">
<title>Node8</title>
<g id="a_node8"><a xlink:href="zwave__s0__transport_8c.html#a03d95837da2b91dfbf98786f7e753fe4" target="_top" xlink:title=" ">
<polygon fill="none" stroke="black" points="491,-0.5 491,-30.5 618,-30.5 618,-0.5 491,-0.5"/>
<text text-anchor="start" x="499" y="-18.5" font-family="Helvetica,sans-Serif" font-size="10.00">s0_application_command</text>
<text text-anchor="middle" x="554.5" y="-7.5" font-family="Helvetica,sans-Serif" font-size="10.00">_handler</text>
</a>
</g>
</g>
<!-- Node7&#45;&gt;Node8 -->
<g id="edge7" class="edge">
<title>Node7&#45;&gt;Node8</title>
<path fill="none" stroke="midnightblue" d="M643.63,-17.23C635.18,-17.07 626.53,-16.9 618.11,-16.73"/>
<polygon fill="midnightblue" stroke="midnightblue" points="643.74,-20.74 653.8,-17.43 643.88,-13.74 643.74,-20.74"/>
</g>
<!-- Node9 -->
<g id="node9" class="node">
<title>Node9</title>
<g id="a_node9"><a xlink:href="group__zwave__s0__transport.html#ga075cd6959f4f2b9cbd757c5d43f97820" target="_top" xlink:title="Entry point of S0 frames received from the PHY/radio stack.">
<polygon fill="none" stroke="black" points="306,-6 306,-25 455,-25 455,-6 306,-6"/>
<text text-anchor="middle" x="380.5" y="-13" font-family="Helvetica,sans-Serif" font-size="10.00">zwave_s0_on_frame_received</text>
</a>
</g>
</g>
<!-- Node8&#45;&gt;Node9 -->
<g id="edge8" class="edge">
<title>Node8&#45;&gt;Node9</title>
<path fill="none" stroke="midnightblue" d="M480.71,-15.5C472.25,-15.5 463.61,-15.5 455.14,-15.5"/>
<polygon fill="midnightblue" stroke="midnightblue" points="480.92,-19 490.92,-15.5 480.92,-12 480.92,-19"/>
</g>
<!-- Node9&#45;&gt;Node5 -->
<g id="edge9" class="edge">
<title>Node9&#45;&gt;Node5</title>
<path fill="none" stroke="midnightblue" d="M295.59,-24.91C287,-25.87 278.4,-26.83 270.13,-27.76"/>
<polygon fill="midnightblue" stroke="midnightblue" points="296.1,-28.37 305.65,-23.78 295.32,-21.41 296.1,-28.37"/>
</g>
</g>
</svg>
