<?xml version="1.0" encoding="UTF-8" standalone="no"?>
<!DOCTYPE svg PUBLIC "-//W3C//DTD SVG 1.1//EN"
 "http://www.w3.org/Graphics/SVG/1.1/DTD/svg11.dtd">
<!-- Generated by graphviz version 2.43.0 (0)
 -->
<!-- Title: zwave_command_class_alarm_sensor_on_version_attribute_update Pages: 1 -->
<svg width="1323pt" height="281pt"
 viewBox="0.00 0.00 1323.00 280.50" xmlns="http://www.w3.org/2000/svg" xmlns:xlink="http://www.w3.org/1999/xlink">
<g id="graph0" class="graph" transform="scale(1 1) rotate(0) translate(4 276.5)">
<title>zwave_command_class_alarm_sensor_on_version_attribute_update</title>
<!-- Node1 -->
<g id="node1" class="node">
<title>Node1</title>
<g id="a_node1"><a xlink:title=" ">
<polygon fill="#bfbfbf" stroke="black" points="0,-132 0,-173 133,-173 133,-132 0,-132"/>
<text text-anchor="start" x="8" y="-161" font-family="Helvetica,sans-Serif" font-size="10.00">zwave_command_class</text>
<text text-anchor="start" x="8" y="-150" font-family="Helvetica,sans-Serif" font-size="10.00">_alarm_sensor_on_version</text>
<text text-anchor="middle" x="66.5" y="-139" font-family="Helvetica,sans-Serif" font-size="10.00">_attribute_update</text>
</a>
</g>
</g>
<!-- Node2 -->
<g id="node2" class="node">
<title>Node2</title>
<g id="a_node2"><a xlink:href="group__command__classes__utils.html#gab8c8edb0b4667b409c3ec1e67ae71361" target="_top" xlink:title="function helper function to help Command Classes decide if they should create the supporting node att...">
<polygon fill="none" stroke="black" points="169,-137.5 169,-167.5 303,-167.5 303,-137.5 169,-137.5"/>
<text text-anchor="start" x="177" y="-155.5" font-family="Helvetica,sans-Serif" font-size="10.00">is_zwave_command_class</text>
<text text-anchor="middle" x="236" y="-144.5" font-family="Helvetica,sans-Serif" font-size="10.00">_filtered_for_root_device</text>
</a>
</g>
</g>
<!-- Node1&#45;&gt;Node2 -->
<g id="edge1" class="edge">
<title>Node1&#45;&gt;Node2</title>
<path fill="none" stroke="midnightblue" d="M133.22,-152.5C141.65,-152.5 150.34,-152.5 158.92,-152.5"/>
<polygon fill="midnightblue" stroke="midnightblue" points="158.92,-156 168.92,-152.5 158.92,-149 158.92,-156"/>
</g>
<!-- Node3 -->
<g id="node3" class="node">
<title>Node3</title>
<g id="a_node3"><a xlink:href="group__zpc__attribute__store__network__helpers.html#gacd36836093319f5642cf566d6f26cb61" target="_top" xlink:title="Traverse up the tree from a node and finds under which Z&#45;Wave NodeID/endpoint id it is located.">
<polygon fill="none" stroke="black" points="348.5,-231 348.5,-272 467.5,-272 467.5,-231 348.5,-231"/>
<text text-anchor="start" x="356.5" y="-260" font-family="Helvetica,sans-Serif" font-size="10.00">attribute_store_network</text>
<text text-anchor="start" x="356.5" y="-249" font-family="Helvetica,sans-Serif" font-size="10.00">_helper_get_zwave_ids</text>
<text text-anchor="middle" x="408" y="-238" font-family="Helvetica,sans-Serif" font-size="10.00">_from_node</text>
</a>
</g>
</g>
<!-- Node2&#45;&gt;Node3 -->
<g id="edge2" class="edge">
<title>Node2&#45;&gt;Node3</title>
<path fill="none" stroke="midnightblue" d="M257.02,-167.63C277.11,-182.42 309.25,-205.05 339,-221.5 342.03,-223.17 345.17,-224.83 348.36,-226.44"/>
<polygon fill="midnightblue" stroke="midnightblue" points="346.94,-229.65 357.46,-230.9 350.02,-223.36 346.94,-229.65"/>
</g>
<!-- Node4 -->
<g id="node4" class="node">
<title>Node4</title>
<g id="a_node4"><a xlink:href="group__command__classes__utils.html#gadfa3418577b4f55243888933db59bc0f" target="_top" xlink:title="Verifies if a Command Class is an actuator Command Class.">
<polygon fill="none" stroke="black" points="351.5,-181.5 351.5,-211.5 464.5,-211.5 464.5,-181.5 351.5,-181.5"/>
<text text-anchor="start" x="359.5" y="-199.5" font-family="Helvetica,sans-Serif" font-size="10.00">is_actuator_command</text>
<text text-anchor="middle" x="408" y="-188.5" font-family="Helvetica,sans-Serif" font-size="10.00">_class</text>
</a>
</g>
</g>
<!-- Node2&#45;&gt;Node4 -->
<g id="edge3" class="edge">
<title>Node2&#45;&gt;Node4</title>
<path fill="none" stroke="midnightblue" d="M295.03,-167.52C309.94,-171.38 326.09,-175.56 341.36,-179.51"/>
<polygon fill="midnightblue" stroke="midnightblue" points="340.68,-182.95 351.24,-182.07 342.44,-176.17 340.68,-182.95"/>
</g>
<!-- Node5 -->
<g id="node5" class="node">
<title>Node5</title>
<g id="a_node5"><a xlink:href="group__zwave__command__class__version.html#ga6d1fd9e5a91e2a18487d313684db45b3" target="_top" xlink:title="Checks we know that the version CC is supported by the node.">
<polygon fill="none" stroke="black" points="355,-143 355,-162 461,-162 461,-143 355,-143"/>
<text text-anchor="middle" x="408" y="-150" font-family="Helvetica,sans-Serif" font-size="10.00">is_version_cc_found</text>
</a>
</g>
</g>
<!-- Node2&#45;&gt;Node5 -->
<g id="edge4" class="edge">
<title>Node2&#45;&gt;Node5</title>
<path fill="none" stroke="midnightblue" d="M303.21,-152.5C316.88,-152.5 331.23,-152.5 344.76,-152.5"/>
<polygon fill="midnightblue" stroke="midnightblue" points="344.91,-156 354.91,-152.5 344.91,-149 344.91,-156"/>
</g>
<!-- Node6 -->
<g id="node6" class="node">
<title>Node6</title>
<g id="a_node6"><a xlink:href="group__zwave__utils.html#ga1fb87a67860c11e6e89930eb51fda21f" target="_top" xlink:title="Return the version of a Command Class implemented by a node.">
<polygon fill="none" stroke="black" points="339,-93.5 339,-123.5 477,-123.5 477,-93.5 339,-93.5"/>
<text text-anchor="start" x="347" y="-111.5" font-family="Helvetica,sans-Serif" font-size="10.00">zwave_node_get_command</text>
<text text-anchor="middle" x="408" y="-100.5" font-family="Helvetica,sans-Serif" font-size="10.00">_class_version</text>
</a>
</g>
</g>
<!-- Node2&#45;&gt;Node6 -->
<g id="edge5" class="edge">
<title>Node2&#45;&gt;Node6</title>
<path fill="none" stroke="midnightblue" d="M295.03,-137.48C309.17,-133.82 324.43,-129.87 338.99,-126.1"/>
<polygon fill="midnightblue" stroke="midnightblue" points="340.14,-129.42 348.94,-123.53 338.39,-122.64 340.14,-129.42"/>
</g>
<!-- Node14 -->
<g id="node14" class="node">
<title>Node14</title>
<g id="a_node14"><a xlink:href="group__zwave__utils.html#gaaa5d4e371acabd40b10dcf27edd993ff" target="_top" xlink:title="Verify whether a node/endpoint supports a Command Class using the attribute Store.">
<polygon fill="none" stroke="black" points="522,-49.5 522,-79.5 636,-79.5 636,-49.5 522,-49.5"/>
<text text-anchor="start" x="530" y="-67.5" font-family="Helvetica,sans-Serif" font-size="10.00">zwave_node_supports</text>
<text text-anchor="middle" x="579" y="-56.5" font-family="Helvetica,sans-Serif" font-size="10.00">_command_class</text>
</a>
</g>
</g>
<!-- Node2&#45;&gt;Node14 -->
<g id="edge13" class="edge">
<title>Node2&#45;&gt;Node14</title>
<path fill="none" stroke="midnightblue" d="M253.54,-137.26C272.56,-120.76 305.51,-95.24 339,-83.5 394.93,-63.9 462.57,-60.23 511.6,-60.82"/>
<polygon fill="midnightblue" stroke="midnightblue" points="511.7,-64.33 521.77,-61.01 511.83,-57.33 511.7,-64.33"/>
</g>
<!-- Node7 -->
<g id="node7" class="node">
<title>Node7</title>
<g id="a_node7"><a xlink:href="group__zwave__utils.html#ga6f7851dd2a96668e3a246c0292607579" target="_top" xlink:title="Get endpoint node associated with the ZWave NodeID and Endpoint ID.">
<polygon fill="none" stroke="black" points="513,-99 513,-118 645,-118 645,-99 513,-99"/>
<text text-anchor="middle" x="579" y="-106" font-family="Helvetica,sans-Serif" font-size="10.00">zwave_get_endpoint_node</text>
</a>
</g>
</g>
<!-- Node6&#45;&gt;Node7 -->
<g id="edge6" class="edge">
<title>Node6&#45;&gt;Node7</title>
<path fill="none" stroke="midnightblue" d="M477.25,-108.5C485.59,-108.5 494.14,-108.5 502.58,-108.5"/>
<polygon fill="midnightblue" stroke="midnightblue" points="502.78,-112 512.78,-108.5 502.78,-105 502.78,-112"/>
</g>
<!-- Node8 -->
<g id="node8" class="node">
<title>Node8</title>
<g id="a_node8"><a xlink:href="group__zpc__attribute__store__network__helpers.html#gae4d15b8e0c61c88d94c8f342bd2014fc" target="_top" xlink:title="Take a UNID/endpoint combination and returns its attribute store node.">
<polygon fill="none" stroke="black" points="681,-49.5 681,-79.5 816,-79.5 816,-49.5 681,-49.5"/>
<text text-anchor="start" x="689" y="-67.5" font-family="Helvetica,sans-Serif" font-size="10.00">attribute_store_network</text>
<text text-anchor="middle" x="748.5" y="-56.5" font-family="Helvetica,sans-Serif" font-size="10.00">_helper_get_endpoint_node</text>
</a>
</g>
</g>
<!-- Node7&#45;&gt;Node8 -->
<g id="edge7" class="edge">
<title>Node7&#45;&gt;Node8</title>
<path fill="none" stroke="midnightblue" d="M616.35,-98.95C635.04,-94.04 658.42,-87.9 680.25,-82.17"/>
<polygon fill="midnightblue" stroke="midnightblue" points="681.37,-85.49 690.15,-79.57 679.59,-78.72 681.37,-85.49"/>
</g>
<!-- Node13 -->
<g id="node13" class="node">
<title>Node13</title>
<g id="a_node13"><a xlink:href="group__zwave__unid.html#ga421deceb8a12916f049e4f3446774439" target="_top" xlink:title="Form a UNID.">
<polygon fill="none" stroke="black" points="682.5,-99 682.5,-118 814.5,-118 814.5,-99 682.5,-99"/>
<text text-anchor="middle" x="748.5" y="-106" font-family="Helvetica,sans-Serif" font-size="10.00">zwave_unid_from_node_id</text>
</a>
</g>
</g>
<!-- Node7&#45;&gt;Node13 -->
<g id="edge12" class="edge">
<title>Node7&#45;&gt;Node13</title>
<path fill="none" stroke="midnightblue" d="M645.24,-108.5C654.12,-108.5 663.28,-108.5 672.32,-108.5"/>
<polygon fill="midnightblue" stroke="midnightblue" points="672.44,-112 682.44,-108.5 672.44,-105 672.44,-112"/>
</g>
<!-- Node9 -->
<g id="node9" class="node">
<title>Node9</title>
<g id="a_node9"><a xlink:href="group__zpc__attribute__store__network__helpers.html#gafb993ff484b3c826743c4695d6659cf0" target="_top" xlink:title="Take a UNID and return its attribute store node representing the NodeID.">
<polygon fill="none" stroke="black" points="852,-49.5 852,-79.5 984,-79.5 984,-49.5 852,-49.5"/>
<text text-anchor="start" x="860" y="-67.5" font-family="Helvetica,sans-Serif" font-size="10.00">attribute_store_network</text>
<text text-anchor="middle" x="918" y="-56.5" font-family="Helvetica,sans-Serif" font-size="10.00">_helper_get_node_id_node</text>
</a>
</g>
</g>
<!-- Node8&#45;&gt;Node9 -->
<g id="edge8" class="edge">
<title>Node8&#45;&gt;Node9</title>
<path fill="none" stroke="midnightblue" d="M816.18,-64.5C824.55,-64.5 833.15,-64.5 841.64,-64.5"/>
<polygon fill="midnightblue" stroke="midnightblue" points="841.91,-68 851.91,-64.5 841.91,-61 841.91,-68"/>
</g>
<!-- Node10 -->
<g id="node10" class="node">
<title>Node10</title>
<g id="a_node10"><a xlink:href="group__zpc__attribute__store__network__helpers.html#ga05cb572c96f7dc8e6657f86e135fafed" target="_top" xlink:title="Take a UNID and return its attribute store node representing the HomeID.">
<polygon fill="none" stroke="black" points="1020,-71.5 1020,-101.5 1155,-101.5 1155,-71.5 1020,-71.5"/>
<text text-anchor="start" x="1028" y="-89.5" font-family="Helvetica,sans-Serif" font-size="10.00">attribute_store_network</text>
<text text-anchor="middle" x="1087.5" y="-78.5" font-family="Helvetica,sans-Serif" font-size="10.00">_helper_get_home_id_node</text>
</a>
</g>
</g>
<!-- Node9&#45;&gt;Node10 -->
<g id="edge9" class="edge">
<title>Node9&#45;&gt;Node10</title>
<path fill="none" stroke="midnightblue" d="M984.24,-73.07C992.62,-74.17 1001.27,-75.31 1009.82,-76.43"/>
<polygon fill="midnightblue" stroke="midnightblue" points="1009.41,-79.9 1019.78,-77.74 1010.32,-72.96 1009.41,-79.9"/>
</g>
<!-- Node12 -->
<g id="node12" class="node">
<title>Node12</title>
<g id="a_node12"><a xlink:href="group__zwave__unid.html#ga76885767debd174e96e6df00b0a368c3" target="_top" xlink:title="Convert a UNID to a node ID.">
<polygon fill="none" stroke="black" points="1027,-33 1027,-52 1148,-52 1148,-33 1027,-33"/>
<text text-anchor="middle" x="1087.5" y="-40" font-family="Helvetica,sans-Serif" font-size="10.00">zwave_unid_to_node_id</text>
</a>
</g>
</g>
<!-- Node9&#45;&gt;Node12 -->
<g id="edge11" class="edge">
<title>Node9&#45;&gt;Node12</title>
<path fill="none" stroke="midnightblue" d="M984.24,-55.93C994.89,-54.53 1005.96,-53.08 1016.72,-51.67"/>
<polygon fill="midnightblue" stroke="midnightblue" points="1017.45,-55.1 1026.91,-50.33 1016.54,-48.16 1017.45,-55.1"/>
</g>
<!-- Node11 -->
<g id="node11" class="node">
<title>Node11</title>
<g id="a_node11"><a xlink:href="group__zwave__unid.html#ga92f9808a08c2ce1c0a6a9dc2debf3580" target="_top" xlink:title="Convert a UNID to a Home ID.">
<polygon fill="none" stroke="black" points="1191,-77 1191,-96 1315,-96 1315,-77 1191,-77"/>
<text text-anchor="middle" x="1253" y="-84" font-family="Helvetica,sans-Serif" font-size="10.00">zwave_unid_to_home_id</text>
</a>
</g>
</g>
<!-- Node10&#45;&gt;Node11 -->
<g id="edge10" class="edge">
<title>Node10&#45;&gt;Node11</title>
<path fill="none" stroke="midnightblue" d="M1155,-86.5C1163.42,-86.5 1172.07,-86.5 1180.57,-86.5"/>
<polygon fill="midnightblue" stroke="midnightblue" points="1180.83,-90 1190.83,-86.5 1180.83,-83 1180.83,-90"/>
</g>
<!-- Node14&#45;&gt;Node8 -->
<g id="edge14" class="edge">
<title>Node14&#45;&gt;Node8</title>
<path fill="none" stroke="midnightblue" d="M636.24,-64.5C647.34,-64.5 659.17,-64.5 670.81,-64.5"/>
<polygon fill="midnightblue" stroke="midnightblue" points="670.97,-68 680.97,-64.5 670.97,-61 670.97,-68"/>
</g>
<!-- Node14&#45;&gt;Node13 -->
<g id="edge16" class="edge">
<title>Node14&#45;&gt;Node13</title>
<path fill="none" stroke="midnightblue" d="M636.24,-79.27C657.38,-84.83 681.15,-91.07 701.27,-96.36"/>
<polygon fill="midnightblue" stroke="midnightblue" points="700.57,-99.79 711.13,-98.95 702.35,-93.02 700.57,-99.79"/>
</g>
<!-- Node15 -->
<g id="node15" class="node">
<title>Node15</title>
<g id="a_node15"><a xlink:href="group__zwave__controller__utils.html#ga4b9cc899709547a170141ba7e0583e16" target="_top" xlink:title="Verifies if a CC is in a raw array of Command Classes.">
<polygon fill="none" stroke="black" points="692,-0.5 692,-30.5 805,-30.5 805,-0.5 692,-0.5"/>
<text text-anchor="start" x="700" y="-18.5" font-family="Helvetica,sans-Serif" font-size="10.00">is_command_class_in</text>
<text text-anchor="middle" x="748.5" y="-7.5" font-family="Helvetica,sans-Serif" font-size="10.00">_supported_list</text>
</a>
</g>
</g>
<!-- Node14&#45;&gt;Node15 -->
<g id="edge15" class="edge">
<title>Node14&#45;&gt;Node15</title>
<path fill="none" stroke="midnightblue" d="M631.62,-49.4C648.9,-44.34 668.32,-38.66 686.26,-33.42"/>
<polygon fill="midnightblue" stroke="midnightblue" points="687.43,-36.72 696.05,-30.55 685.47,-30 687.43,-36.72"/>
</g>
</g>
</svg>
