<?xml version="1.0" encoding="UTF-8" standalone="no"?>
<!DOCTYPE svg PUBLIC "-//W3C//DTD SVG 1.1//EN"
 "http://www.w3.org/Graphics/SVG/1.1/DTD/svg11.dtd">
<!-- Generated by graphviz version 2.43.0 (0)
 -->
<!-- Title: on_capabilities_attribute_update Pages: 1 -->
<svg width="1519pt" height="323pt"
 viewBox="0.00 0.00 1519.00 323.00" xmlns="http://www.w3.org/2000/svg" xmlns:xlink="http://www.w3.org/1999/xlink">
<g id="graph0" class="graph" transform="scale(1 1) rotate(0) translate(4 319)">
<title>on_capabilities_attribute_update</title>
<!-- Node1 -->
<g id="node1" class="node">
<title>Node1</title>
<g id="a_node1"><a xlink:title="Verifies if we are resolving capabilities, and if yes, set a resolutio listener to set the Wake Up In...">
<polygon fill="#bfbfbf" stroke="black" points="0,-142.5 0,-172.5 122,-172.5 122,-142.5 0,-142.5"/>
<text text-anchor="start" x="8" y="-160.5" font-family="Helvetica,sans-Serif" font-size="10.00">on_capabilities_attribute</text>
<text text-anchor="middle" x="61" y="-149.5" font-family="Helvetica,sans-Serif" font-size="10.00">_update</text>
</a>
</g>
</g>
<!-- Node2 -->
<g id="node2" class="node">
<title>Node2</title>
<g id="a_node2"><a xlink:href="zwave__command__class__wake__up_8c.html#aaff9153e6b7f2f12495d4528a1e348f5" target="_top" xlink:title="Configures the Wake Up Interval setting for a node.">
<polygon fill="none" stroke="black" points="158,-148 158,-167 295,-167 295,-148 158,-148"/>
<text text-anchor="middle" x="226.5" y="-155" font-family="Helvetica,sans-Serif" font-size="10.00">configure_wake_up_interval</text>
</a>
</g>
</g>
<!-- Node1&#45;&gt;Node2 -->
<g id="edge1" class="edge">
<title>Node1&#45;&gt;Node2</title>
<path fill="none" stroke="midnightblue" d="M122.42,-157.5C130.63,-157.5 139.15,-157.5 147.62,-157.5"/>
<polygon fill="midnightblue" stroke="midnightblue" points="147.89,-161 157.89,-157.5 147.89,-154 147.89,-161"/>
</g>
<!-- Node2&#45;&gt;Node2 -->
<g id="edge2" class="edge">
<title>Node2&#45;&gt;Node2</title>
<path fill="none" stroke="midnightblue" d="M201.22,-167.26C188.93,-176.07 197.35,-185.5 226.5,-185.5 246.08,-185.5 256.31,-181.24 257.19,-175.77"/>
<polygon fill="midnightblue" stroke="midnightblue" points="260.09,-173.82 251.78,-167.26 254.19,-177.57 260.09,-173.82"/>
</g>
<!-- Node3 -->
<g id="node3" class="node">
<title>Node3</title>
<g id="a_node3"><a xlink:href="zwave__command__class__wake__up_8c.html#aafee6942702a86d4aaea1f91c18ccce7" target="_top" xlink:title="Finds the closest supported value for a Wake Up Interval.">
<polygon fill="none" stroke="black" points="346.5,-284.5 346.5,-314.5 461.5,-314.5 461.5,-284.5 346.5,-284.5"/>
<text text-anchor="start" x="354.5" y="-302.5" font-family="Helvetica,sans-Serif" font-size="10.00">get_closest_supported</text>
<text text-anchor="middle" x="404" y="-291.5" font-family="Helvetica,sans-Serif" font-size="10.00">_interval</text>
</a>
</g>
</g>
<!-- Node2&#45;&gt;Node3 -->
<g id="edge3" class="edge">
<title>Node2&#45;&gt;Node3</title>
<path fill="none" stroke="midnightblue" d="M233.46,-167.3C247.59,-189.74 285.37,-245.2 331,-275.5 333.42,-277.11 335.95,-278.61 338.57,-280.03"/>
<polygon fill="midnightblue" stroke="midnightblue" points="337.18,-283.25 347.7,-284.48 340.25,-276.95 337.18,-283.25"/>
</g>
<!-- Node4 -->
<g id="node4" class="node">
<title>Node4</title>
<g id="a_node4"><a xlink:href="zwave__command__class__wake__up_8c.html#a86fe76f7c6c116734a69cb35ef264f26" target="_top" xlink:title="Finds the value that would lead to the largest time between Wake Ups for a node.">
<polygon fill="none" stroke="black" points="344.5,-235.5 344.5,-265.5 463.5,-265.5 463.5,-235.5 344.5,-235.5"/>
<text text-anchor="start" x="352.5" y="-253.5" font-family="Helvetica,sans-Serif" font-size="10.00">get_maximum_possible</text>
<text text-anchor="middle" x="404" y="-242.5" font-family="Helvetica,sans-Serif" font-size="10.00">_interval</text>
</a>
</g>
</g>
<!-- Node2&#45;&gt;Node4 -->
<g id="edge4" class="edge">
<title>Node2&#45;&gt;Node4</title>
<path fill="none" stroke="midnightblue" d="M241.84,-167.19C261.46,-180.23 298,-203.71 331,-220.5 338.46,-224.3 346.51,-228.01 354.44,-231.46"/>
<polygon fill="midnightblue" stroke="midnightblue" points="353.08,-234.68 363.65,-235.37 355.81,-228.24 353.08,-234.68"/>
</g>
<!-- Node5 -->
<g id="node5" class="node">
<title>Node5</title>
<g id="a_node5"><a xlink:href="group__command__classes__utils.html#ga7dd7a32346c549c1f82f97037625db40" target="_top" xlink:title="Verifies if a Node is a Portable End Node. (PS / PEN Role type)">
<polygon fill="none" stroke="black" points="536,-197 536,-216 647,-216 647,-197 536,-197"/>
<text text-anchor="middle" x="591.5" y="-204" font-family="Helvetica,sans-Serif" font-size="10.00">is_portable_end_node</text>
</a>
</g>
</g>
<!-- Node2&#45;&gt;Node5 -->
<g id="edge5" class="edge">
<title>Node2&#45;&gt;Node5</title>
<path fill="none" stroke="midnightblue" d="M254.8,-167.11C275.46,-173.97 304.67,-182.77 331,-187.5 396.65,-199.28 472.9,-203.8 525.68,-205.5"/>
<polygon fill="midnightblue" stroke="midnightblue" points="525.81,-209.01 535.91,-205.81 526.02,-202.01 525.81,-209.01"/>
</g>
<!-- Node13 -->
<g id="node13" class="node">
<title>Node13</title>
<g id="a_node13"><a xlink:href="group__zpc__config.html#ga4b057e8eb480ccf7000ecdaf97dcc168" target="_top" xlink:title="Get the current configuration. This must only be called after zpc_config_init.">
<polygon fill="none" stroke="black" points="362.5,-99 362.5,-118 445.5,-118 445.5,-99 362.5,-99"/>
<text text-anchor="middle" x="404" y="-106" font-family="Helvetica,sans-Serif" font-size="10.00">zpc_get_config</text>
</a>
</g>
</g>
<!-- Node2&#45;&gt;Node13 -->
<g id="edge13" class="edge">
<title>Node2&#45;&gt;Node13</title>
<path fill="none" stroke="midnightblue" d="M259.61,-147.98C280.02,-141.98 307.02,-134.14 331,-127.5 339.15,-125.24 347.83,-122.9 356.25,-120.66"/>
<polygon fill="midnightblue" stroke="midnightblue" points="357.18,-124.03 365.96,-118.09 355.39,-117.27 357.18,-124.03"/>
</g>
<!-- Node14 -->
<g id="node14" class="node">
<title>Node14</title>
<g id="a_node14"><a xlink:href="group__zwave__command__class__wake__up.html#ga3f21bf48988be7063716ec5cbddd37fa" target="_top" xlink:title="Verifies if a Node supports the Wake Up on demand functionality.">
<polygon fill="none" stroke="black" points="338,-137 338,-178 470,-178 470,-137 338,-137"/>
<text text-anchor="start" x="346" y="-166" font-family="Helvetica,sans-Serif" font-size="10.00">zwave_command_class</text>
<text text-anchor="start" x="346" y="-155" font-family="Helvetica,sans-Serif" font-size="10.00">_wake_up_supports_wake</text>
<text text-anchor="middle" x="404" y="-144" font-family="Helvetica,sans-Serif" font-size="10.00">_up_on_demand</text>
</a>
</g>
</g>
<!-- Node2&#45;&gt;Node14 -->
<g id="edge14" class="edge">
<title>Node2&#45;&gt;Node14</title>
<path fill="none" stroke="midnightblue" d="M295.1,-157.5C305.71,-157.5 316.74,-157.5 327.51,-157.5"/>
<polygon fill="midnightblue" stroke="midnightblue" points="327.74,-161 337.74,-157.5 327.74,-154 327.74,-161"/>
</g>
<!-- Node18 -->
<g id="node18" class="node">
<title>Node18</title>
<g id="a_node18"><a xlink:href="group__zwave__network__management.html#gae265f1e935804f3f0b971755ab0ee61e" target="_top" xlink:title="Get the cached NodeID.">
<polygon fill="none" stroke="black" points="331,-49.5 331,-79.5 477,-79.5 477,-49.5 331,-49.5"/>
<text text-anchor="start" x="339" y="-67.5" font-family="Helvetica,sans-Serif" font-size="10.00">zwave_network_management</text>
<text text-anchor="middle" x="404" y="-56.5" font-family="Helvetica,sans-Serif" font-size="10.00">_get_node_id</text>
</a>
</g>
</g>
<!-- Node2&#45;&gt;Node18 -->
<g id="edge20" class="edge">
<title>Node2&#45;&gt;Node18</title>
<path fill="none" stroke="midnightblue" d="M239.96,-147.84C258.81,-133.57 296.09,-106.7 331,-89.5 335.37,-87.35 339.97,-85.3 344.65,-83.36"/>
<polygon fill="midnightblue" stroke="midnightblue" points="346.28,-86.48 354.3,-79.57 343.72,-79.97 346.28,-86.48"/>
</g>
<!-- Node19 -->
<g id="node19" class="node">
<title>Node19</title>
<g id="a_node19"><a xlink:href="group__zwave__network__management.html#ga10d248f803b45c70adf8ecec24308109" target="_top" xlink:title="Checks if we have the SIS role in the current network.">
<polygon fill="none" stroke="black" points="331,-0.5 331,-30.5 477,-30.5 477,-0.5 331,-0.5"/>
<text text-anchor="start" x="339" y="-18.5" font-family="Helvetica,sans-Serif" font-size="10.00">zwave_network_management</text>
<text text-anchor="middle" x="404" y="-7.5" font-family="Helvetica,sans-Serif" font-size="10.00">_is_zpc_sis</text>
</a>
</g>
</g>
<!-- Node2&#45;&gt;Node19 -->
<g id="edge21" class="edge">
<title>Node2&#45;&gt;Node19</title>
<path fill="none" stroke="midnightblue" d="M233.46,-147.7C247.59,-125.26 285.37,-69.8 331,-39.5 333.42,-37.89 335.95,-36.39 338.57,-34.97"/>
<polygon fill="midnightblue" stroke="midnightblue" points="340.25,-38.05 347.7,-30.52 337.18,-31.75 340.25,-38.05"/>
</g>
<!-- Node6 -->
<g id="node6" class="node">
<title>Node6</title>
<g id="a_node6"><a xlink:href="group__command__classes__utils.html#gaf1fbb6a0e57bf5218e97120ed7adc966" target="_top" xlink:title="Provides the Role Type of a node.">
<polygon fill="none" stroke="black" points="706,-172 706,-191 841,-191 841,-172 706,-172"/>
<text text-anchor="middle" x="773.5" y="-179" font-family="Helvetica,sans-Serif" font-size="10.00">get_zwave_node_role_type</text>
</a>
</g>
</g>
<!-- Node5&#45;&gt;Node6 -->
<g id="edge6" class="edge">
<title>Node5&#45;&gt;Node6</title>
<path fill="none" stroke="midnightblue" d="M647.48,-198.86C662.72,-196.75 679.55,-194.41 695.79,-192.15"/>
<polygon fill="midnightblue" stroke="midnightblue" points="696.38,-195.61 705.8,-190.76 695.42,-188.67 696.38,-195.61"/>
</g>
<!-- Node7 -->
<g id="node7" class="node">
<title>Node7</title>
<g id="a_node7"><a xlink:href="group__zpc__attribute__store__network__helpers.html#gae4d15b8e0c61c88d94c8f342bd2014fc" target="_top" xlink:title="Take a UNID/endpoint combination and returns its attribute store node.">
<polygon fill="none" stroke="black" points="877,-166.5 877,-196.5 1012,-196.5 1012,-166.5 877,-166.5"/>
<text text-anchor="start" x="885" y="-184.5" font-family="Helvetica,sans-Serif" font-size="10.00">attribute_store_network</text>
<text text-anchor="middle" x="944.5" y="-173.5" font-family="Helvetica,sans-Serif" font-size="10.00">_helper_get_endpoint_node</text>
</a>
</g>
</g>
<!-- Node6&#45;&gt;Node7 -->
<g id="edge7" class="edge">
<title>Node6&#45;&gt;Node7</title>
<path fill="none" stroke="midnightblue" d="M841.29,-181.5C849.62,-181.5 858.19,-181.5 866.66,-181.5"/>
<polygon fill="midnightblue" stroke="midnightblue" points="866.92,-185 876.92,-181.5 866.92,-178 866.92,-185"/>
</g>
<!-- Node12 -->
<g id="node12" class="node">
<title>Node12</title>
<g id="a_node12"><a xlink:href="group__zwave__unid.html#ga421deceb8a12916f049e4f3446774439" target="_top" xlink:title="Form a UNID.">
<polygon fill="none" stroke="black" points="878.5,-128 878.5,-147 1010.5,-147 1010.5,-128 878.5,-128"/>
<text text-anchor="middle" x="944.5" y="-135" font-family="Helvetica,sans-Serif" font-size="10.00">zwave_unid_from_node_id</text>
</a>
</g>
</g>
<!-- Node6&#45;&gt;Node12 -->
<g id="edge12" class="edge">
<title>Node6&#45;&gt;Node12</title>
<path fill="none" stroke="midnightblue" d="M811.17,-171.95C836.31,-165.41 869.86,-156.67 896.89,-149.63"/>
<polygon fill="midnightblue" stroke="midnightblue" points="898.11,-152.94 906.9,-147.03 896.34,-146.16 898.11,-152.94"/>
</g>
<!-- Node8 -->
<g id="node8" class="node">
<title>Node8</title>
<g id="a_node8"><a xlink:href="group__zpc__attribute__store__network__helpers.html#gafb993ff484b3c826743c4695d6659cf0" target="_top" xlink:title="Take a UNID and return its attribute store node representing the NodeID.">
<polygon fill="none" stroke="black" points="1048,-166.5 1048,-196.5 1180,-196.5 1180,-166.5 1048,-166.5"/>
<text text-anchor="start" x="1056" y="-184.5" font-family="Helvetica,sans-Serif" font-size="10.00">attribute_store_network</text>
<text text-anchor="middle" x="1114" y="-173.5" font-family="Helvetica,sans-Serif" font-size="10.00">_helper_get_node_id_node</text>
</a>
</g>
</g>
<!-- Node7&#45;&gt;Node8 -->
<g id="edge8" class="edge">
<title>Node7&#45;&gt;Node8</title>
<path fill="none" stroke="midnightblue" d="M1012.18,-181.5C1020.55,-181.5 1029.15,-181.5 1037.64,-181.5"/>
<polygon fill="midnightblue" stroke="midnightblue" points="1037.91,-185 1047.91,-181.5 1037.91,-178 1037.91,-185"/>
</g>
<!-- Node9 -->
<g id="node9" class="node">
<title>Node9</title>
<g id="a_node9"><a xlink:href="group__zpc__attribute__store__network__helpers.html#ga05cb572c96f7dc8e6657f86e135fafed" target="_top" xlink:title="Take a UNID and return its attribute store node representing the HomeID.">
<polygon fill="none" stroke="black" points="1216,-188.5 1216,-218.5 1351,-218.5 1351,-188.5 1216,-188.5"/>
<text text-anchor="start" x="1224" y="-206.5" font-family="Helvetica,sans-Serif" font-size="10.00">attribute_store_network</text>
<text text-anchor="middle" x="1283.5" y="-195.5" font-family="Helvetica,sans-Serif" font-size="10.00">_helper_get_home_id_node</text>
</a>
</g>
</g>
<!-- Node8&#45;&gt;Node9 -->
<g id="edge9" class="edge">
<title>Node8&#45;&gt;Node9</title>
<path fill="none" stroke="midnightblue" d="M1180.24,-190.07C1188.62,-191.17 1197.27,-192.31 1205.82,-193.43"/>
<polygon fill="midnightblue" stroke="midnightblue" points="1205.41,-196.9 1215.78,-194.74 1206.32,-189.96 1205.41,-196.9"/>
</g>
<!-- Node11 -->
<g id="node11" class="node">
<title>Node11</title>
<g id="a_node11"><a xlink:href="group__zwave__unid.html#ga76885767debd174e96e6df00b0a368c3" target="_top" xlink:title="Convert a UNID to a node ID.">
<polygon fill="none" stroke="black" points="1223,-150 1223,-169 1344,-169 1344,-150 1223,-150"/>
<text text-anchor="middle" x="1283.5" y="-157" font-family="Helvetica,sans-Serif" font-size="10.00">zwave_unid_to_node_id</text>
</a>
</g>
</g>
<!-- Node8&#45;&gt;Node11 -->
<g id="edge11" class="edge">
<title>Node8&#45;&gt;Node11</title>
<path fill="none" stroke="midnightblue" d="M1180.24,-172.93C1190.89,-171.53 1201.96,-170.08 1212.72,-168.67"/>
<polygon fill="midnightblue" stroke="midnightblue" points="1213.45,-172.1 1222.91,-167.33 1212.54,-165.16 1213.45,-172.1"/>
</g>
<!-- Node10 -->
<g id="node10" class="node">
<title>Node10</title>
<g id="a_node10"><a xlink:href="group__zwave__unid.html#ga92f9808a08c2ce1c0a6a9dc2debf3580" target="_top" xlink:title="Convert a UNID to a Home ID.">
<polygon fill="none" stroke="black" points="1387,-194 1387,-213 1511,-213 1511,-194 1387,-194"/>
<text text-anchor="middle" x="1449" y="-201" font-family="Helvetica,sans-Serif" font-size="10.00">zwave_unid_to_home_id</text>
</a>
</g>
</g>
<!-- Node9&#45;&gt;Node10 -->
<g id="edge10" class="edge">
<title>Node9&#45;&gt;Node10</title>
<path fill="none" stroke="midnightblue" d="M1351,-203.5C1359.42,-203.5 1368.07,-203.5 1376.57,-203.5"/>
<polygon fill="midnightblue" stroke="midnightblue" points="1376.83,-207 1386.83,-203.5 1376.83,-200 1376.83,-207"/>
</g>
<!-- Node15 -->
<g id="node15" class="node">
<title>Node15</title>
<g id="a_node15"><a xlink:href="group__zpc__attribute__store__network__helpers.html#ga715be25ab9c545f84ff524bc5a7eb7db" target="_top" xlink:title="Traverse up the tree from a node and finds under which Z&#45;Wave NodeID it is.">
<polygon fill="none" stroke="black" points="513,-147.5 513,-177.5 670,-177.5 670,-147.5 513,-147.5"/>
<text text-anchor="start" x="521" y="-165.5" font-family="Helvetica,sans-Serif" font-size="10.00">attribute_store_network</text>
<text text-anchor="middle" x="591.5" y="-154.5" font-family="Helvetica,sans-Serif" font-size="10.00">_helper_get_node_id_from_node</text>
</a>
</g>
</g>
<!-- Node14&#45;&gt;Node15 -->
<g id="edge15" class="edge">
<title>Node14&#45;&gt;Node15</title>
<path fill="none" stroke="midnightblue" d="M470.14,-159.26C480.69,-159.54 491.76,-159.84 502.75,-160.13"/>
<polygon fill="midnightblue" stroke="midnightblue" points="502.7,-163.63 512.79,-160.41 502.88,-156.64 502.7,-163.63"/>
</g>
<!-- Node16 -->
<g id="node16" class="node">
<title>Node16</title>
<g id="a_node16"><a xlink:href="group__zwave__utils.html#ga1fb87a67860c11e6e89930eb51fda21f" target="_top" xlink:title="Return the version of a Command Class implemented by a node.">
<polygon fill="none" stroke="black" points="522.5,-98.5 522.5,-128.5 660.5,-128.5 660.5,-98.5 522.5,-98.5"/>
<text text-anchor="start" x="530.5" y="-116.5" font-family="Helvetica,sans-Serif" font-size="10.00">zwave_node_get_command</text>
<text text-anchor="middle" x="591.5" y="-105.5" font-family="Helvetica,sans-Serif" font-size="10.00">_class_version</text>
</a>
</g>
</g>
<!-- Node14&#45;&gt;Node16 -->
<g id="edge16" class="edge">
<title>Node14&#45;&gt;Node16</title>
<path fill="none" stroke="midnightblue" d="M470.14,-142.05C485.3,-138.45 501.54,-134.6 517.03,-130.93"/>
<polygon fill="midnightblue" stroke="midnightblue" points="518.16,-134.26 527.08,-128.54 516.54,-127.45 518.16,-134.26"/>
</g>
<!-- Node17 -->
<g id="node17" class="node">
<title>Node17</title>
<g id="a_node17"><a xlink:href="group__zwave__utils.html#ga6f7851dd2a96668e3a246c0292607579" target="_top" xlink:title="Get endpoint node associated with the ZWave NodeID and Endpoint ID.">
<polygon fill="none" stroke="black" points="707.5,-128 707.5,-147 839.5,-147 839.5,-128 707.5,-128"/>
<text text-anchor="middle" x="773.5" y="-135" font-family="Helvetica,sans-Serif" font-size="10.00">zwave_get_endpoint_node</text>
</a>
</g>
</g>
<!-- Node16&#45;&gt;Node17 -->
<g id="edge17" class="edge">
<title>Node16&#45;&gt;Node17</title>
<path fill="none" stroke="midnightblue" d="M660.55,-122.57C672.53,-124.17 685.06,-125.84 697.22,-127.46"/>
<polygon fill="midnightblue" stroke="midnightblue" points="696.95,-130.96 707.33,-128.81 697.88,-124.02 696.95,-130.96"/>
</g>
<!-- Node17&#45;&gt;Node7 -->
<g id="edge18" class="edge">
<title>Node17&#45;&gt;Node7</title>
<path fill="none" stroke="midnightblue" d="M811.17,-147.05C830.11,-151.98 853.84,-158.16 875.95,-163.91"/>
<polygon fill="midnightblue" stroke="midnightblue" points="875.08,-167.3 885.64,-166.43 876.84,-160.53 875.08,-167.3"/>
</g>
<!-- Node17&#45;&gt;Node12 -->
<g id="edge19" class="edge">
<title>Node17&#45;&gt;Node12</title>
<path fill="none" stroke="midnightblue" d="M839.84,-137.5C849.12,-137.5 858.72,-137.5 868.17,-137.5"/>
<polygon fill="midnightblue" stroke="midnightblue" points="868.33,-141 878.33,-137.5 868.33,-134 868.33,-141"/>
</g>
</g>
</svg>
