<?xml version="1.0" encoding="UTF-8" standalone="no"?>
<!DOCTYPE svg PUBLIC "-//W3C//DTD SVG 1.1//EN"
 "http://www.w3.org/Graphics/SVG/1.1/DTD/svg11.dtd">
<!-- Generated by graphviz version 2.43.0 (0)
 -->
<!-- Title: zwave_command_class_thermostat_fan_mode_handle_report Pages: 1 -->
<svg width="958pt" height="176pt"
 viewBox="0.00 0.00 958.00 175.50" xmlns="http://www.w3.org/2000/svg" xmlns:xlink="http://www.w3.org/1999/xlink">
<g id="graph0" class="graph" transform="scale(1 1) rotate(0) translate(4 171.5)">
<title>zwave_command_class_thermostat_fan_mode_handle_report</title>
<!-- Node1 -->
<g id="node1" class="node">
<title>Node1</title>
<g id="a_node1"><a xlink:title=" ">
<polygon fill="#bfbfbf" stroke="black" points="0,-84.5 0,-125.5 122,-125.5 122,-84.5 0,-84.5"/>
<text text-anchor="start" x="8" y="-113.5" font-family="Helvetica,sans-Serif" font-size="10.00">zwave_command_class</text>
<text text-anchor="start" x="8" y="-102.5" font-family="Helvetica,sans-Serif" font-size="10.00">_thermostat_fan_mode</text>
<text text-anchor="middle" x="61" y="-91.5" font-family="Helvetica,sans-Serif" font-size="10.00">_handle_report</text>
</a>
</g>
</g>
<!-- Node2 -->
<g id="node2" class="node">
<title>Node2</title>
<g id="a_node2"><a xlink:href="zwave__command__class__thermostat__fan__mode_8c.html#a2d602b7c21ebec120b16b157dd1fc67b" target="_top" xlink:title="Get current thermostat fan version of the CC.">
<polygon fill="none" stroke="black" points="333,-137 333,-167 434,-167 434,-137 333,-137"/>
<text text-anchor="start" x="341" y="-155" font-family="Helvetica,sans-Serif" font-size="10.00">get_thermostat_fan</text>
<text text-anchor="middle" x="383.5" y="-144" font-family="Helvetica,sans-Serif" font-size="10.00">_version</text>
</a>
</g>
</g>
<!-- Node1&#45;&gt;Node2 -->
<g id="edge1" class="edge">
<title>Node1&#45;&gt;Node2</title>
<path fill="none" stroke="midnightblue" d="M122.11,-122.2C133.93,-125.14 146.3,-127.92 158,-130 213.38,-139.86 277.29,-145.58 322.72,-148.71"/>
<polygon fill="midnightblue" stroke="midnightblue" points="322.49,-152.2 332.7,-149.37 322.96,-145.21 322.49,-152.2"/>
</g>
<!-- Node3 -->
<g id="node3" class="node">
<title>Node3</title>
<g id="a_node3"><a xlink:href="zwave__command__class__thermostat__fan__mode_8c.html#a46cd113426682eb1ca9b73b9e10c0da7" target="_top" xlink:title=" ">
<polygon fill="none" stroke="black" points="165.5,-90 165.5,-120 272.5,-120 272.5,-90 165.5,-90"/>
<text text-anchor="start" x="173.5" y="-108" font-family="Helvetica,sans-Serif" font-size="10.00">is_fan_control_mode</text>
<text text-anchor="middle" x="219" y="-97" font-family="Helvetica,sans-Serif" font-size="10.00">_supported</text>
</a>
</g>
</g>
<!-- Node1&#45;&gt;Node3 -->
<g id="edge2" class="edge">
<title>Node1&#45;&gt;Node3</title>
<path fill="none" stroke="midnightblue" d="M122.31,-105C133.1,-105 144.36,-105 155.21,-105"/>
<polygon fill="midnightblue" stroke="midnightblue" points="155.47,-108.5 165.47,-105 155.47,-101.5 155.47,-108.5"/>
</g>
<!-- Node5 -->
<g id="node5" class="node">
<title>Node5</title>
<g id="a_node5"><a xlink:href="group__command__classes__utils.html#gaff12f5d1f5b9eed08201efab5854190c" target="_top" xlink:title="Find the Z&#45;Wave Endpoint ID Node attribute based on a const zwave_controller_connection_info_t object...">
<polygon fill="none" stroke="black" points="158,-39 158,-69 280,-69 280,-39 158,-39"/>
<text text-anchor="start" x="166" y="-57" font-family="Helvetica,sans-Serif" font-size="10.00">zwave_command_class</text>
<text text-anchor="middle" x="219" y="-46" font-family="Helvetica,sans-Serif" font-size="10.00">_get_endpoint_node</text>
</a>
</g>
</g>
<!-- Node1&#45;&gt;Node5 -->
<g id="edge5" class="edge">
<title>Node1&#45;&gt;Node5</title>
<path fill="none" stroke="midnightblue" d="M122.31,-85.28C135.43,-80.99 149.25,-76.47 162.19,-72.25"/>
<polygon fill="midnightblue" stroke="midnightblue" points="163.46,-75.51 171.88,-69.08 161.29,-68.86 163.46,-75.51"/>
</g>
<!-- Node3&#45;&gt;Node2 -->
<g id="edge3" class="edge">
<title>Node3&#45;&gt;Node2</title>
<path fill="none" stroke="midnightblue" d="M271.86,-120C288.17,-124.72 306.3,-129.96 323.09,-134.82"/>
<polygon fill="midnightblue" stroke="midnightblue" points="322.21,-138.21 332.79,-137.62 324.16,-131.48 322.21,-138.21"/>
</g>
<!-- Node4 -->
<g id="node4" class="node">
<title>Node4</title>
<g id="a_node4"><a xlink:href="zwave__command__class__thermostat__fan__mode_8c.html#a95fd24ff5786b3ccf70e74292a98a4ea" target="_top" xlink:title=" ">
<polygon fill="none" stroke="black" points="321,-88 321,-118 446,-118 446,-88 321,-88"/>
<text text-anchor="start" x="329" y="-106" font-family="Helvetica,sans-Serif" font-size="10.00">is_fan_mode_compatible</text>
<text text-anchor="middle" x="383.5" y="-95" font-family="Helvetica,sans-Serif" font-size="10.00">_with_version</text>
</a>
</g>
</g>
<!-- Node3&#45;&gt;Node4 -->
<g id="edge4" class="edge">
<title>Node3&#45;&gt;Node4</title>
<path fill="none" stroke="midnightblue" d="M272.76,-104.35C284.9,-104.2 298.01,-104.04 310.8,-103.88"/>
<polygon fill="midnightblue" stroke="midnightblue" points="311.01,-107.38 320.96,-103.76 310.92,-100.38 311.01,-107.38"/>
</g>
<!-- Node6 -->
<g id="node6" class="node">
<title>Node6</title>
<g id="a_node6"><a xlink:href="group__zpc__attribute__store__network__helpers.html#gae4d15b8e0c61c88d94c8f342bd2014fc" target="_top" xlink:title="Take a UNID/endpoint combination and returns its attribute store node.">
<polygon fill="none" stroke="black" points="316,-39 316,-69 451,-69 451,-39 316,-39"/>
<text text-anchor="start" x="324" y="-57" font-family="Helvetica,sans-Serif" font-size="10.00">attribute_store_network</text>
<text text-anchor="middle" x="383.5" y="-46" font-family="Helvetica,sans-Serif" font-size="10.00">_helper_get_endpoint_node</text>
</a>
</g>
</g>
<!-- Node5&#45;&gt;Node6 -->
<g id="edge6" class="edge">
<title>Node5&#45;&gt;Node6</title>
<path fill="none" stroke="midnightblue" d="M280.05,-54C288.43,-54 297.14,-54 305.77,-54"/>
<polygon fill="midnightblue" stroke="midnightblue" points="305.86,-57.5 315.86,-54 305.86,-50.5 305.86,-57.5"/>
</g>
<!-- Node11 -->
<g id="node11" class="node">
<title>Node11</title>
<g id="a_node11"><a xlink:href="group__zwave__unid.html#ga421deceb8a12916f049e4f3446774439" target="_top" xlink:title="Form a UNID.">
<polygon fill="none" stroke="black" points="317.5,-0.5 317.5,-19.5 449.5,-19.5 449.5,-0.5 317.5,-0.5"/>
<text text-anchor="middle" x="383.5" y="-7.5" font-family="Helvetica,sans-Serif" font-size="10.00">zwave_unid_from_node_id</text>
</a>
</g>
</g>
<!-- Node5&#45;&gt;Node11 -->
<g id="edge11" class="edge">
<title>Node5&#45;&gt;Node11</title>
<path fill="none" stroke="midnightblue" d="M275.47,-38.98C295.67,-33.51 318.24,-27.4 337.43,-22.2"/>
<polygon fill="midnightblue" stroke="midnightblue" points="338.39,-25.57 347.13,-19.58 336.56,-18.81 338.39,-25.57"/>
</g>
<!-- Node7 -->
<g id="node7" class="node">
<title>Node7</title>
<g id="a_node7"><a xlink:href="group__zpc__attribute__store__network__helpers.html#gafb993ff484b3c826743c4695d6659cf0" target="_top" xlink:title="Take a UNID and return its attribute store node representing the NodeID.">
<polygon fill="none" stroke="black" points="487,-39 487,-69 619,-69 619,-39 487,-39"/>
<text text-anchor="start" x="495" y="-57" font-family="Helvetica,sans-Serif" font-size="10.00">attribute_store_network</text>
<text text-anchor="middle" x="553" y="-46" font-family="Helvetica,sans-Serif" font-size="10.00">_helper_get_node_id_node</text>
</a>
</g>
</g>
<!-- Node6&#45;&gt;Node7 -->
<g id="edge7" class="edge">
<title>Node6&#45;&gt;Node7</title>
<path fill="none" stroke="midnightblue" d="M451.18,-54C459.55,-54 468.15,-54 476.64,-54"/>
<polygon fill="midnightblue" stroke="midnightblue" points="476.91,-57.5 486.91,-54 476.91,-50.5 476.91,-57.5"/>
</g>
<!-- Node8 -->
<g id="node8" class="node">
<title>Node8</title>
<g id="a_node8"><a xlink:href="group__zpc__attribute__store__network__helpers.html#ga05cb572c96f7dc8e6657f86e135fafed" target="_top" xlink:title="Take a UNID and return its attribute store node representing the HomeID.">
<polygon fill="none" stroke="black" points="655,-61 655,-91 790,-91 790,-61 655,-61"/>
<text text-anchor="start" x="663" y="-79" font-family="Helvetica,sans-Serif" font-size="10.00">attribute_store_network</text>
<text text-anchor="middle" x="722.5" y="-68" font-family="Helvetica,sans-Serif" font-size="10.00">_helper_get_home_id_node</text>
</a>
</g>
</g>
<!-- Node7&#45;&gt;Node8 -->
<g id="edge8" class="edge">
<title>Node7&#45;&gt;Node8</title>
<path fill="none" stroke="midnightblue" d="M619.24,-62.57C627.62,-63.67 636.27,-64.81 644.82,-65.93"/>
<polygon fill="midnightblue" stroke="midnightblue" points="644.41,-69.4 654.78,-67.24 645.32,-62.46 644.41,-69.4"/>
</g>
<!-- Node10 -->
<g id="node10" class="node">
<title>Node10</title>
<g id="a_node10"><a xlink:href="group__zwave__unid.html#ga76885767debd174e96e6df00b0a368c3" target="_top" xlink:title="Convert a UNID to a node ID.">
<polygon fill="none" stroke="black" points="662,-22.5 662,-41.5 783,-41.5 783,-22.5 662,-22.5"/>
<text text-anchor="middle" x="722.5" y="-29.5" font-family="Helvetica,sans-Serif" font-size="10.00">zwave_unid_to_node_id</text>
</a>
</g>
</g>
<!-- Node7&#45;&gt;Node10 -->
<g id="edge10" class="edge">
<title>Node7&#45;&gt;Node10</title>
<path fill="none" stroke="midnightblue" d="M619.24,-45.43C629.89,-44.03 640.96,-42.58 651.72,-41.17"/>
<polygon fill="midnightblue" stroke="midnightblue" points="652.45,-44.6 661.91,-39.83 651.54,-37.66 652.45,-44.6"/>
</g>
<!-- Node9 -->
<g id="node9" class="node">
<title>Node9</title>
<g id="a_node9"><a xlink:href="group__zwave__unid.html#ga92f9808a08c2ce1c0a6a9dc2debf3580" target="_top" xlink:title="Convert a UNID to a Home ID.">
<polygon fill="none" stroke="black" points="826,-66.5 826,-85.5 950,-85.5 950,-66.5 826,-66.5"/>
<text text-anchor="middle" x="888" y="-73.5" font-family="Helvetica,sans-Serif" font-size="10.00">zwave_unid_to_home_id</text>
</a>
</g>
</g>
<!-- Node8&#45;&gt;Node9 -->
<g id="edge9" class="edge">
<title>Node8&#45;&gt;Node9</title>
<path fill="none" stroke="midnightblue" d="M790,-76C798.42,-76 807.07,-76 815.57,-76"/>
<polygon fill="midnightblue" stroke="midnightblue" points="815.83,-79.5 825.83,-76 815.83,-72.5 815.83,-79.5"/>
</g>
</g>
</svg>
