<?xml version="1.0" encoding="UTF-8" standalone="no"?>
<!DOCTYPE svg PUBLIC "-//W3C//DTD SVG 1.1//EN"
 "http://www.w3.org/Graphics/SVG/1.1/DTD/svg11.dtd">
<!-- Generated by graphviz version 2.43.0 (0)
 -->
<!-- Title: applications/zpc/components/zwave_command_classes/src/zwave_command_class_manufacturer_specific.h Pages: 1 -->
<svg width="376pt" height="150pt"
 viewBox="0.00 0.00 375.50 150.00" xmlns="http://www.w3.org/2000/svg" xmlns:xlink="http://www.w3.org/1999/xlink">
<g id="graph0" class="graph" transform="scale(1 1) rotate(0) translate(4 146)">
<title>applications/zpc/components/zwave_command_classes/src/zwave_command_class_manufacturer_specific.h</title>
<!-- Node1 -->
<g id="node1" class="node">
<title>Node1</title>
<g id="a_node1"><a xlink:title=" ">
<polygon fill="#bfbfbf" stroke="black" points="96,-89.5 96,-141.5 283,-141.5 283,-89.5 96,-89.5"/>
<text text-anchor="start" x="104" y="-129.5" font-family="Helvetica,sans-Serif" font-size="10.00">applications/zpc/components</text>
<text text-anchor="start" x="104" y="-118.5" font-family="Helvetica,sans-Serif" font-size="10.00">/zwave_command_classes/src</text>
<text text-anchor="start" x="104" y="-107.5" font-family="Helvetica,sans-Serif" font-size="10.00">/zwave_command_class_manufacturer</text>
<text text-anchor="middle" x="189.5" y="-96.5" font-family="Helvetica,sans-Serif" font-size="10.00">_specific.h</text>
</a>
</g>
</g>
<!-- Node2 -->
<g id="node2" class="node">
<title>Node2</title>
<g id="a_node2"><a xlink:href="zwave__command__class__manufacturer__specific_8c.html" target="_top" xlink:title=" ">
<polygon fill="none" stroke="black" points="0,-0.5 0,-52.5 187,-52.5 187,-0.5 0,-0.5"/>
<text text-anchor="start" x="8" y="-40.5" font-family="Helvetica,sans-Serif" font-size="10.00">applications/zpc/components</text>
<text text-anchor="start" x="8" y="-29.5" font-family="Helvetica,sans-Serif" font-size="10.00">/zwave_command_classes/src</text>
<text text-anchor="start" x="8" y="-18.5" font-family="Helvetica,sans-Serif" font-size="10.00">/zwave_command_class_manufacturer</text>
<text text-anchor="middle" x="93.5" y="-7.5" font-family="Helvetica,sans-Serif" font-size="10.00">_specific.c</text>
</a>
</g>
</g>
<!-- Node1&#45;&gt;Node2 -->
<g id="edge1" class="edge">
<title>Node1&#45;&gt;Node2</title>
<path fill="none" stroke="midnightblue" d="M154.04,-82.36C143.2,-72.54 131.45,-61.89 121.2,-52.61"/>
<polygon fill="midnightblue" stroke="midnightblue" points="151.97,-85.21 161.73,-89.34 156.67,-80.03 151.97,-85.21"/>
</g>
<!-- Node3 -->
<g id="node3" class="node">
<title>Node3</title>
<g id="a_node3"><a xlink:href="zwave__command__classes__fixt_8c.html" target="_top" xlink:title=" ">
<polygon fill="none" stroke="black" points="205.5,-6 205.5,-47 367.5,-47 367.5,-6 205.5,-6"/>
<text text-anchor="start" x="213.5" y="-35" font-family="Helvetica,sans-Serif" font-size="10.00">applications/zpc/components</text>
<text text-anchor="start" x="213.5" y="-24" font-family="Helvetica,sans-Serif" font-size="10.00">/zwave_command_classes/src</text>
<text text-anchor="middle" x="286.5" y="-13" font-family="Helvetica,sans-Serif" font-size="10.00">/zwave_command_classes_fixt.c</text>
</a>
</g>
</g>
<!-- Node1&#45;&gt;Node3 -->
<g id="edge2" class="edge">
<title>Node1&#45;&gt;Node3</title>
<path fill="none" stroke="midnightblue" d="M225.16,-82.51C238.4,-70.64 253.02,-57.53 264.67,-47.08"/>
<polygon fill="midnightblue" stroke="midnightblue" points="222.66,-80.05 217.56,-89.34 227.34,-85.26 222.66,-80.05"/>
</g>
</g>
</svg>
