<?xml version="1.0" encoding="UTF-8" standalone="no"?>
<!DOCTYPE svg PUBLIC "-//W3C//DTD SVG 1.1//EN"
 "http://www.w3.org/Graphics/SVG/1.1/DTD/svg11.dtd">
<!-- Generated by graphviz version 2.43.0 (0)
 -->
<!-- Title: zwave_command_class_thermostat_operating_state_logging_supported_report Pages: 1 -->
<svg width="638pt" height="61pt"
 viewBox="0.00 0.00 638.00 61.00" xmlns="http://www.w3.org/2000/svg" xmlns:xlink="http://www.w3.org/1999/xlink">
<g id="graph0" class="graph" transform="scale(1 1) rotate(0) translate(4 57)">
<title>zwave_command_class_thermostat_operating_state_logging_supported_report</title>
<!-- Node1 -->
<g id="node1" class="node">
<title>Node1</title>
<g id="a_node1"><a xlink:title=" ">
<polygon fill="#bfbfbf" stroke="black" points="502,-0.5 502,-52.5 630,-52.5 630,-0.5 502,-0.5"/>
<text text-anchor="start" x="510" y="-40.5" font-family="Helvetica,sans-Serif" font-size="10.00">zwave_command_class</text>
<text text-anchor="start" x="510" y="-29.5" font-family="Helvetica,sans-Serif" font-size="10.00">_thermostat_operating</text>
<text text-anchor="start" x="510" y="-18.5" font-family="Helvetica,sans-Serif" font-size="10.00">_state_logging_supported</text>
<text text-anchor="middle" x="566" y="-7.5" font-family="Helvetica,sans-Serif" font-size="10.00">_report</text>
</a>
</g>
</g>
<!-- Node2 -->
<g id="node2" class="node">
<title>Node2</title>
<g id="a_node2"><a xlink:href="zwave__command__class__thermostat__operating__state_8c.html#ac9c44793f894cd9af3d27cc4cd0d2030" target="_top" xlink:title=" ">
<polygon fill="none" stroke="black" points="344,-6 344,-47 466,-47 466,-6 344,-6"/>
<text text-anchor="start" x="352" y="-35" font-family="Helvetica,sans-Serif" font-size="10.00">zwave_command_class</text>
<text text-anchor="start" x="352" y="-24" font-family="Helvetica,sans-Serif" font-size="10.00">_thermostat_operating</text>
<text text-anchor="middle" x="405" y="-13" font-family="Helvetica,sans-Serif" font-size="10.00">_state_control_handler</text>
</a>
</g>
</g>
<!-- Node1&#45;&gt;Node2 -->
<g id="edge1" class="edge">
<title>Node1&#45;&gt;Node2</title>
<path fill="none" stroke="midnightblue" d="M491.47,-26.5C483.02,-26.5 474.48,-26.5 466.23,-26.5"/>
<polygon fill="midnightblue" stroke="midnightblue" points="491.7,-30 501.7,-26.5 491.7,-23 491.7,-30"/>
</g>
<!-- Node3 -->
<g id="node3" class="node">
<title>Node3</title>
<g id="a_node3"><a xlink:href="group__zwave__command__class__thermostat__operating__state.html#ga59d01d7fd66888f028c206b31f718980" target="_top" xlink:title=" ">
<polygon fill="none" stroke="black" points="186,-6 186,-47 308,-47 308,-6 186,-6"/>
<text text-anchor="start" x="194" y="-35" font-family="Helvetica,sans-Serif" font-size="10.00">zwave_command_class</text>
<text text-anchor="start" x="194" y="-24" font-family="Helvetica,sans-Serif" font-size="10.00">_thermostat_operating</text>
<text text-anchor="middle" x="247" y="-13" font-family="Helvetica,sans-Serif" font-size="10.00">_state_init</text>
</a>
</g>
</g>
<!-- Node2&#45;&gt;Node3 -->
<g id="edge2" class="edge">
<title>Node2&#45;&gt;Node3</title>
<path fill="none" stroke="midnightblue" d="M333.46,-26.5C325.01,-26.5 316.44,-26.5 308.15,-26.5"/>
<polygon fill="midnightblue" stroke="midnightblue" points="333.69,-30 343.69,-26.5 333.69,-23 333.69,-30"/>
</g>
<!-- Node4 -->
<g id="node4" class="node">
<title>Node4</title>
<g id="a_node4"><a xlink:href="group__command__classes__fixt.html#ga5272651939ced1723158340039e8da19" target="_top" xlink:title="Setup fixture for Z&#45;Wave Command Classes.">
<polygon fill="none" stroke="black" points="0,-17 0,-36 150,-36 150,-17 0,-17"/>
<text text-anchor="middle" x="75" y="-24" font-family="Helvetica,sans-Serif" font-size="10.00">zwave_command_classes_init</text>
</a>
</g>
</g>
<!-- Node3&#45;&gt;Node4 -->
<g id="edge3" class="edge">
<title>Node3&#45;&gt;Node4</title>
<path fill="none" stroke="midnightblue" d="M175.51,-26.5C167.16,-26.5 158.61,-26.5 150.21,-26.5"/>
<polygon fill="midnightblue" stroke="midnightblue" points="175.59,-30 185.59,-26.5 175.59,-23 175.59,-30"/>
</g>
</g>
</svg>
