<?xml version="1.0" encoding="UTF-8" standalone="no"?>
<!DOCTYPE svg PUBLIC "-//W3C//DTD SVG 1.1//EN"
 "http://www.w3.org/Graphics/SVG/1.1/DTD/svg11.dtd">
<!-- Generated by graphviz version 2.43.0 (0)
 -->
<!-- Title: zwave_command_class_indicator_get_indicator_values Pages: 1 -->
<svg width="802pt" height="50pt"
 viewBox="0.00 0.00 802.00 50.00" xmlns="http://www.w3.org/2000/svg" xmlns:xlink="http://www.w3.org/1999/xlink">
<g id="graph0" class="graph" transform="scale(1 1) rotate(0) translate(4 46)">
<title>zwave_command_class_indicator_get_indicator_values</title>
<!-- Node1 -->
<g id="node1" class="node">
<title>Node1</title>
<g id="a_node1"><a xlink:title=" ">
<polygon fill="#bfbfbf" stroke="black" points="672,-0.5 672,-41.5 794,-41.5 794,-0.5 672,-0.5"/>
<text text-anchor="start" x="680" y="-29.5" font-family="Helvetica,sans-Serif" font-size="10.00">zwave_command_class</text>
<text text-anchor="start" x="680" y="-18.5" font-family="Helvetica,sans-Serif" font-size="10.00">_indicator_get_indicator</text>
<text text-anchor="middle" x="733" y="-7.5" font-family="Helvetica,sans-Serif" font-size="10.00">_values</text>
</a>
</g>
</g>
<!-- Node2 -->
<g id="node2" class="node">
<title>Node2</title>
<g id="a_node2"><a xlink:href="zwave__command__class__indicator_8c.html#ae25d2fbb010340256e6872be3884d931" target="_top" xlink:title=" ">
<polygon fill="none" stroke="black" points="513,-6 513,-36 636,-36 636,-6 513,-6"/>
<text text-anchor="start" x="521" y="-24" font-family="Helvetica,sans-Serif" font-size="10.00">zwave_command_class</text>
<text text-anchor="middle" x="574.5" y="-13" font-family="Helvetica,sans-Serif" font-size="10.00">_indicator_handle_setV3</text>
</a>
</g>
</g>
<!-- Node1&#45;&gt;Node2 -->
<g id="edge1" class="edge">
<title>Node1&#45;&gt;Node2</title>
<path fill="none" stroke="midnightblue" d="M661.94,-21C653.34,-21 644.62,-21 636.17,-21"/>
<polygon fill="midnightblue" stroke="midnightblue" points="661.94,-24.5 671.94,-21 661.94,-17.5 661.94,-24.5"/>
</g>
<!-- Node3 -->
<g id="node3" class="node">
<title>Node3</title>
<g id="a_node3"><a xlink:href="group__zwave__command__class__indicator__support.html#ga8953f10489f199eee92bdc7ebae05e3f" target="_top" xlink:title="Handles incoming indicator encapsulated commands.">
<polygon fill="none" stroke="black" points="344,-6 344,-36 477,-36 477,-6 344,-6"/>
<text text-anchor="start" x="352" y="-24" font-family="Helvetica,sans-Serif" font-size="10.00">zwave_command_class</text>
<text text-anchor="middle" x="410.5" y="-13" font-family="Helvetica,sans-Serif" font-size="10.00">_indicator_support_handler</text>
</a>
</g>
</g>
<!-- Node2&#45;&gt;Node3 -->
<g id="edge2" class="edge">
<title>Node2&#45;&gt;Node3</title>
<path fill="none" stroke="midnightblue" d="M502.55,-21C494.14,-21 485.57,-21 477.24,-21"/>
<polygon fill="midnightblue" stroke="midnightblue" points="502.72,-24.5 512.72,-21 502.72,-17.5 502.72,-24.5"/>
</g>
<!-- Node4 -->
<g id="node4" class="node">
<title>Node4</title>
<g id="a_node4"><a xlink:href="group__zwave__command__class__indicator__support.html#ga0f4f581c0adc3e8018e4ade3858017fb" target="_top" xlink:title="setup for indicator command class">
<polygon fill="none" stroke="black" points="186,-6 186,-36 308,-36 308,-6 186,-6"/>
<text text-anchor="start" x="194" y="-24" font-family="Helvetica,sans-Serif" font-size="10.00">zwave_command_class</text>
<text text-anchor="middle" x="247" y="-13" font-family="Helvetica,sans-Serif" font-size="10.00">_indicator_init</text>
</a>
</g>
</g>
<!-- Node3&#45;&gt;Node4 -->
<g id="edge3" class="edge">
<title>Node3&#45;&gt;Node4</title>
<path fill="none" stroke="midnightblue" d="M333.78,-21C325.19,-21 316.52,-21 308.17,-21"/>
<polygon fill="midnightblue" stroke="midnightblue" points="333.81,-24.5 343.81,-21 333.81,-17.5 333.81,-24.5"/>
</g>
<!-- Node5 -->
<g id="node5" class="node">
<title>Node5</title>
<g id="a_node5"><a xlink:href="group__command__classes__fixt.html#ga5272651939ced1723158340039e8da19" target="_top" xlink:title="Setup fixture for Z&#45;Wave Command Classes.">
<polygon fill="none" stroke="black" points="0,-11.5 0,-30.5 150,-30.5 150,-11.5 0,-11.5"/>
<text text-anchor="middle" x="75" y="-18.5" font-family="Helvetica,sans-Serif" font-size="10.00">zwave_command_classes_init</text>
</a>
</g>
</g>
<!-- Node4&#45;&gt;Node5 -->
<g id="edge4" class="edge">
<title>Node4&#45;&gt;Node5</title>
<path fill="none" stroke="midnightblue" d="M175.51,-21C167.16,-21 158.61,-21 150.21,-21"/>
<polygon fill="midnightblue" stroke="midnightblue" points="175.59,-24.5 185.59,-21 175.59,-17.5 175.59,-24.5"/>
</g>
</g>
</svg>
