<?xml version="1.0" encoding="UTF-8" standalone="no"?>
<!DOCTYPE svg PUBLIC "-//W3C//DTD SVG 1.1//EN"
 "http://www.w3.org/Graphics/SVG/1.1/DTD/svg11.dtd">
<!-- Generated by graphviz version 2.43.0 (0)
 -->
<!-- Title: zwave_command_class_multilevel_sensor_control_handler Pages: 1 -->
<svg width="1335pt" height="200pt"
 viewBox="0.00 0.00 1335.00 199.50" xmlns="http://www.w3.org/2000/svg" xmlns:xlink="http://www.w3.org/1999/xlink">
<g id="graph0" class="graph" transform="scale(1 1) rotate(0) translate(4 195.5)">
<title>zwave_command_class_multilevel_sensor_control_handler</title>
<!-- Node1 -->
<g id="node1" class="node">
<title>Node1</title>
<g id="a_node1"><a xlink:title=" ">
<polygon fill="#bfbfbf" stroke="black" points="0,-60.5 0,-101.5 132,-101.5 132,-60.5 0,-60.5"/>
<text text-anchor="start" x="8" y="-89.5" font-family="Helvetica,sans-Serif" font-size="10.00">zwave_command_class</text>
<text text-anchor="start" x="8" y="-78.5" font-family="Helvetica,sans-Serif" font-size="10.00">_multilevel_sensor_control</text>
<text text-anchor="middle" x="66" y="-67.5" font-family="Helvetica,sans-Serif" font-size="10.00">_handler</text>
</a>
</g>
</g>
<!-- Node2 -->
<g id="node2" class="node">
<title>Node2</title>
<g id="a_node2"><a xlink:href="zwave__command__class__multilevel__sensor_8c.html#aab8e97fb91292b61b6d8597ce2b546e0" target="_top" xlink:title=" ">
<polygon fill="none" stroke="black" points="168,-120.5 168,-161.5 299,-161.5 299,-120.5 168,-120.5"/>
<text text-anchor="start" x="176" y="-149.5" font-family="Helvetica,sans-Serif" font-size="10.00">zwave_command_class</text>
<text text-anchor="start" x="176" y="-138.5" font-family="Helvetica,sans-Serif" font-size="10.00">_multilevel_sensor_handle</text>
<text text-anchor="middle" x="233.5" y="-127.5" font-family="Helvetica,sans-Serif" font-size="10.00">_report</text>
</a>
</g>
</g>
<!-- Node1&#45;&gt;Node2 -->
<g id="edge1" class="edge">
<title>Node1&#45;&gt;Node2</title>
<path fill="none" stroke="midnightblue" d="M123.96,-101.65C137.55,-106.58 152.19,-111.88 166.17,-116.95"/>
<polygon fill="midnightblue" stroke="midnightblue" points="165.13,-120.3 175.72,-120.42 167.51,-113.72 165.13,-120.3"/>
</g>
<!-- Node14 -->
<g id="node14" class="node">
<title>Node14</title>
<g id="a_node14"><a xlink:href="zwave__command__class__multilevel__sensor_8c.html#a21e1bcf070f6c2e6cb3002cdaf6dfd15" target="_top" xlink:title=" ">
<polygon fill="none" stroke="black" points="168,-60.5 168,-101.5 299,-101.5 299,-60.5 168,-60.5"/>
<text text-anchor="start" x="176" y="-89.5" font-family="Helvetica,sans-Serif" font-size="10.00">zwave_command_class</text>
<text text-anchor="start" x="176" y="-78.5" font-family="Helvetica,sans-Serif" font-size="10.00">_multilevel_sensor_handle</text>
<text text-anchor="middle" x="233.5" y="-67.5" font-family="Helvetica,sans-Serif" font-size="10.00">_supported_report</text>
</a>
</g>
</g>
<!-- Node1&#45;&gt;Node14 -->
<g id="edge13" class="edge">
<title>Node1&#45;&gt;Node14</title>
<path fill="none" stroke="midnightblue" d="M132.41,-81C140.7,-81 149.23,-81 157.64,-81"/>
<polygon fill="midnightblue" stroke="midnightblue" points="157.84,-84.5 167.84,-81 157.84,-77.5 157.84,-84.5"/>
</g>
<!-- Node17 -->
<g id="node17" class="node">
<title>Node17</title>
<g id="a_node17"><a xlink:href="zwave__command__class__multilevel__sensor_8c.html#ac5420a8bd5113831db4ed5801c898ce1" target="_top" xlink:title=" ">
<polygon fill="none" stroke="black" points="168,-0.5 168,-41.5 299,-41.5 299,-0.5 168,-0.5"/>
<text text-anchor="start" x="176" y="-29.5" font-family="Helvetica,sans-Serif" font-size="10.00">zwave_command_class</text>
<text text-anchor="start" x="176" y="-18.5" font-family="Helvetica,sans-Serif" font-size="10.00">_multilevel_sensor_handle</text>
<text text-anchor="middle" x="233.5" y="-7.5" font-family="Helvetica,sans-Serif" font-size="10.00">_supported_scale_report</text>
</a>
</g>
</g>
<!-- Node1&#45;&gt;Node17 -->
<g id="edge20" class="edge">
<title>Node1&#45;&gt;Node17</title>
<path fill="none" stroke="midnightblue" d="M123.96,-60.35C137.55,-55.42 152.19,-50.12 166.17,-45.05"/>
<polygon fill="midnightblue" stroke="midnightblue" points="167.51,-48.28 175.72,-41.58 165.13,-41.7 167.51,-48.28"/>
</g>
<!-- Node3 -->
<g id="node3" class="node">
<title>Node3</title>
<g id="a_node3"><a xlink:href="group__command__classes__utils.html#gab7746d5f57493bb03d29c539c2fd523d" target="_top" xlink:title="Parse a value and pack it into a uint32.">
<polygon fill="none" stroke="black" points="345.5,-161 345.5,-191 478.5,-191 478.5,-161 345.5,-161"/>
<text text-anchor="start" x="353.5" y="-179" font-family="Helvetica,sans-Serif" font-size="10.00">command_class_get_int32</text>
<text text-anchor="middle" x="412" y="-168" font-family="Helvetica,sans-Serif" font-size="10.00">_value</text>
</a>
</g>
</g>
<!-- Node2&#45;&gt;Node3 -->
<g id="edge2" class="edge">
<title>Node2&#45;&gt;Node3</title>
<path fill="none" stroke="midnightblue" d="M299.22,-153.83C310.98,-156.17 323.34,-158.62 335.38,-161.01"/>
<polygon fill="midnightblue" stroke="midnightblue" points="334.91,-164.48 345.4,-162.99 336.27,-157.61 334.91,-164.48"/>
</g>
<!-- Node6 -->
<g id="node6" class="node">
<title>Node6</title>
<g id="a_node6"><a xlink:href="group__command__classes__utils.html#gaff12f5d1f5b9eed08201efab5854190c" target="_top" xlink:title="Find the Z&#45;Wave Endpoint ID Node attribute based on a const zwave_controller_connection_info_t object...">
<polygon fill="none" stroke="black" points="351,-63 351,-93 473,-93 473,-63 351,-63"/>
<text text-anchor="start" x="359" y="-81" font-family="Helvetica,sans-Serif" font-size="10.00">zwave_command_class</text>
<text text-anchor="middle" x="412" y="-70" font-family="Helvetica,sans-Serif" font-size="10.00">_get_endpoint_node</text>
</a>
</g>
</g>
<!-- Node2&#45;&gt;Node6 -->
<g id="edge5" class="edge">
<title>Node2&#45;&gt;Node6</title>
<path fill="none" stroke="midnightblue" d="M287.54,-120.45C302.81,-114.67 319.52,-108.47 335,-103 341.34,-100.76 347.99,-98.48 354.62,-96.24"/>
<polygon fill="midnightblue" stroke="midnightblue" points="355.89,-99.51 364.27,-93.02 353.67,-92.87 355.89,-99.51"/>
</g>
<!-- Node13 -->
<g id="node13" class="node">
<title>Node13</title>
<g id="a_node13"><a xlink:href="zwave__command__class__multilevel__sensor_8c.html#a4ba40eb5b003a48d178274fbb562842d" target="_top" xlink:title=" ">
<polygon fill="none" stroke="black" points="335,-112 335,-142 489,-142 489,-112 335,-112"/>
<text text-anchor="start" x="343" y="-130" font-family="Helvetica,sans-Serif" font-size="10.00">zwave_command_class</text>
<text text-anchor="middle" x="412" y="-119" font-family="Helvetica,sans-Serif" font-size="10.00">_multilevel_sensor_create_type</text>
</a>
</g>
</g>
<!-- Node2&#45;&gt;Node13 -->
<g id="edge12" class="edge">
<title>Node2&#45;&gt;Node13</title>
<path fill="none" stroke="midnightblue" d="M299.22,-135.87C307.56,-135.2 316.21,-134.52 324.83,-133.83"/>
<polygon fill="midnightblue" stroke="midnightblue" points="325.23,-137.31 334.92,-133.03 324.67,-130.34 325.23,-137.31"/>
</g>
<!-- Node4 -->
<g id="node4" class="node">
<title>Node4</title>
<g id="a_node4"><a xlink:href="group__command__classes__utils.html#ga359fa8c1765274e72fa964e94b772f97" target="_top" xlink:title="Extracts a 1,2 or 4 bytes signed value from a frame.">
<polygon fill="none" stroke="black" points="532.5,-161 532.5,-191 649.5,-191 649.5,-161 532.5,-161"/>
<text text-anchor="start" x="540.5" y="-179" font-family="Helvetica,sans-Serif" font-size="10.00">get_signed_value_from</text>
<text text-anchor="middle" x="591" y="-168" font-family="Helvetica,sans-Serif" font-size="10.00">_frame_and_size</text>
</a>
</g>
</g>
<!-- Node3&#45;&gt;Node4 -->
<g id="edge3" class="edge">
<title>Node3&#45;&gt;Node4</title>
<path fill="none" stroke="midnightblue" d="M478.66,-176C492.83,-176 507.84,-176 522.09,-176"/>
<polygon fill="midnightblue" stroke="midnightblue" points="522.32,-179.5 532.32,-176 522.32,-172.5 522.32,-179.5"/>
</g>
<!-- Node5 -->
<g id="node5" class="node">
<title>Node5</title>
<g id="a_node5"><a xlink:href="group__command__classes__utils.html#ga22eef0dea00ab9f526c038009481e814" target="_top" xlink:title="Extracts a 1,2 or 4 bytes unsigned value from a frame.">
<polygon fill="none" stroke="black" points="702.5,-161 702.5,-191 818.5,-191 818.5,-161 702.5,-161"/>
<text text-anchor="start" x="710.5" y="-179" font-family="Helvetica,sans-Serif" font-size="10.00">get_unsigned_value</text>
<text text-anchor="middle" x="760.5" y="-168" font-family="Helvetica,sans-Serif" font-size="10.00">_from_frame_and_size</text>
</a>
</g>
</g>
<!-- Node4&#45;&gt;Node5 -->
<g id="edge4" class="edge">
<title>Node4&#45;&gt;Node5</title>
<path fill="none" stroke="midnightblue" d="M649.64,-176C663.35,-176 678.09,-176 692.19,-176"/>
<polygon fill="midnightblue" stroke="midnightblue" points="692.32,-179.5 702.32,-176 692.32,-172.5 692.32,-179.5"/>
</g>
<!-- Node7 -->
<g id="node7" class="node">
<title>Node7</title>
<g id="a_node7"><a xlink:href="group__zpc__attribute__store__network__helpers.html#gae4d15b8e0c61c88d94c8f342bd2014fc" target="_top" xlink:title="Take a UNID/endpoint combination and returns its attribute store node.">
<polygon fill="none" stroke="black" points="693,-79 693,-109 828,-109 828,-79 693,-79"/>
<text text-anchor="start" x="701" y="-97" font-family="Helvetica,sans-Serif" font-size="10.00">attribute_store_network</text>
<text text-anchor="middle" x="760.5" y="-86" font-family="Helvetica,sans-Serif" font-size="10.00">_helper_get_endpoint_node</text>
</a>
</g>
</g>
<!-- Node6&#45;&gt;Node7 -->
<g id="edge6" class="edge">
<title>Node6&#45;&gt;Node7</title>
<path fill="none" stroke="midnightblue" d="M473.36,-80.79C531.4,-83.47 619.38,-87.53 682.45,-90.44"/>
<polygon fill="midnightblue" stroke="midnightblue" points="682.59,-93.95 692.74,-90.92 682.91,-86.96 682.59,-93.95"/>
</g>
<!-- Node12 -->
<g id="node12" class="node">
<title>Node12</title>
<g id="a_node12"><a xlink:href="group__zwave__unid.html#ga421deceb8a12916f049e4f3446774439" target="_top" xlink:title="Form a UNID.">
<polygon fill="none" stroke="black" points="694.5,-24.5 694.5,-43.5 826.5,-43.5 826.5,-24.5 694.5,-24.5"/>
<text text-anchor="middle" x="760.5" y="-31.5" font-family="Helvetica,sans-Serif" font-size="10.00">zwave_unid_from_node_id</text>
</a>
</g>
</g>
<!-- Node6&#45;&gt;Node12 -->
<g id="edge11" class="edge">
<title>Node6&#45;&gt;Node12</title>
<path fill="none" stroke="midnightblue" d="M473.36,-70.34C531.85,-62.91 620.77,-51.62 683.94,-43.59"/>
<polygon fill="midnightblue" stroke="midnightblue" points="684.76,-47.02 694.24,-42.29 683.88,-40.07 684.76,-47.02"/>
</g>
<!-- Node8 -->
<g id="node8" class="node">
<title>Node8</title>
<g id="a_node8"><a xlink:href="group__zpc__attribute__store__network__helpers.html#gafb993ff484b3c826743c4695d6659cf0" target="_top" xlink:title="Take a UNID and return its attribute store node representing the NodeID.">
<polygon fill="none" stroke="black" points="864,-79 864,-109 996,-109 996,-79 864,-79"/>
<text text-anchor="start" x="872" y="-97" font-family="Helvetica,sans-Serif" font-size="10.00">attribute_store_network</text>
<text text-anchor="middle" x="930" y="-86" font-family="Helvetica,sans-Serif" font-size="10.00">_helper_get_node_id_node</text>
</a>
</g>
</g>
<!-- Node7&#45;&gt;Node8 -->
<g id="edge7" class="edge">
<title>Node7&#45;&gt;Node8</title>
<path fill="none" stroke="midnightblue" d="M828.18,-94C836.55,-94 845.15,-94 853.64,-94"/>
<polygon fill="midnightblue" stroke="midnightblue" points="853.91,-97.5 863.91,-94 853.91,-90.5 853.91,-97.5"/>
</g>
<!-- Node9 -->
<g id="node9" class="node">
<title>Node9</title>
<g id="a_node9"><a xlink:href="group__zpc__attribute__store__network__helpers.html#ga05cb572c96f7dc8e6657f86e135fafed" target="_top" xlink:title="Take a UNID and return its attribute store node representing the HomeID.">
<polygon fill="none" stroke="black" points="1032,-101 1032,-131 1167,-131 1167,-101 1032,-101"/>
<text text-anchor="start" x="1040" y="-119" font-family="Helvetica,sans-Serif" font-size="10.00">attribute_store_network</text>
<text text-anchor="middle" x="1099.5" y="-108" font-family="Helvetica,sans-Serif" font-size="10.00">_helper_get_home_id_node</text>
</a>
</g>
</g>
<!-- Node8&#45;&gt;Node9 -->
<g id="edge8" class="edge">
<title>Node8&#45;&gt;Node9</title>
<path fill="none" stroke="midnightblue" d="M996.24,-102.57C1004.62,-103.67 1013.27,-104.81 1021.82,-105.93"/>
<polygon fill="midnightblue" stroke="midnightblue" points="1021.41,-109.4 1031.78,-107.24 1022.32,-102.46 1021.41,-109.4"/>
</g>
<!-- Node11 -->
<g id="node11" class="node">
<title>Node11</title>
<g id="a_node11"><a xlink:href="group__zwave__unid.html#ga76885767debd174e96e6df00b0a368c3" target="_top" xlink:title="Convert a UNID to a node ID.">
<polygon fill="none" stroke="black" points="1039,-62.5 1039,-81.5 1160,-81.5 1160,-62.5 1039,-62.5"/>
<text text-anchor="middle" x="1099.5" y="-69.5" font-family="Helvetica,sans-Serif" font-size="10.00">zwave_unid_to_node_id</text>
</a>
</g>
</g>
<!-- Node8&#45;&gt;Node11 -->
<g id="edge10" class="edge">
<title>Node8&#45;&gt;Node11</title>
<path fill="none" stroke="midnightblue" d="M996.24,-85.43C1006.89,-84.03 1017.96,-82.58 1028.72,-81.17"/>
<polygon fill="midnightblue" stroke="midnightblue" points="1029.45,-84.6 1038.91,-79.83 1028.54,-77.66 1029.45,-84.6"/>
</g>
<!-- Node10 -->
<g id="node10" class="node">
<title>Node10</title>
<g id="a_node10"><a xlink:href="group__zwave__unid.html#ga92f9808a08c2ce1c0a6a9dc2debf3580" target="_top" xlink:title="Convert a UNID to a Home ID.">
<polygon fill="none" stroke="black" points="1203,-106.5 1203,-125.5 1327,-125.5 1327,-106.5 1203,-106.5"/>
<text text-anchor="middle" x="1265" y="-113.5" font-family="Helvetica,sans-Serif" font-size="10.00">zwave_unid_to_home_id</text>
</a>
</g>
</g>
<!-- Node9&#45;&gt;Node10 -->
<g id="edge9" class="edge">
<title>Node9&#45;&gt;Node10</title>
<path fill="none" stroke="midnightblue" d="M1167,-116C1175.42,-116 1184.07,-116 1192.57,-116"/>
<polygon fill="midnightblue" stroke="midnightblue" points="1192.83,-119.5 1202.83,-116 1192.83,-112.5 1192.83,-119.5"/>
</g>
<!-- Node14&#45;&gt;Node6 -->
<g id="edge14" class="edge">
<title>Node14&#45;&gt;Node6</title>
<path fill="none" stroke="midnightblue" d="M299.22,-79.9C312.7,-79.67 326.98,-79.43 340.66,-79.2"/>
<polygon fill="midnightblue" stroke="midnightblue" points="341.04,-82.69 350.98,-79.02 340.92,-75.69 341.04,-82.69"/>
</g>
<!-- Node14&#45;&gt;Node13 -->
<g id="edge15" class="edge">
<title>Node14&#45;&gt;Node13</title>
<path fill="none" stroke="midnightblue" d="M299.22,-97.87C313.61,-101.62 328.9,-105.6 343.4,-109.38"/>
<polygon fill="midnightblue" stroke="midnightblue" points="342.73,-112.82 353.29,-111.96 344.5,-106.05 342.73,-112.82"/>
</g>
<!-- Node15 -->
<g id="node15" class="node">
<title>Node15</title>
<g id="a_node15"><a xlink:href="group__zwave__utils.html#ga1fb87a67860c11e6e89930eb51fda21f" target="_top" xlink:title="Return the version of a Command Class implemented by a node.">
<polygon fill="none" stroke="black" points="343,-11 343,-41 481,-41 481,-11 343,-11"/>
<text text-anchor="start" x="351" y="-29" font-family="Helvetica,sans-Serif" font-size="10.00">zwave_node_get_command</text>
<text text-anchor="middle" x="412" y="-18" font-family="Helvetica,sans-Serif" font-size="10.00">_class_version</text>
</a>
</g>
</g>
<!-- Node14&#45;&gt;Node15 -->
<g id="edge16" class="edge">
<title>Node14&#45;&gt;Node15</title>
<path fill="none" stroke="midnightblue" d="M299.22,-60.83C316.74,-55.37 335.59,-49.5 352.73,-44.16"/>
<polygon fill="midnightblue" stroke="midnightblue" points="354.1,-47.4 362.6,-41.08 352.01,-40.72 354.1,-47.4"/>
</g>
<!-- Node16 -->
<g id="node16" class="node">
<title>Node16</title>
<g id="a_node16"><a xlink:href="group__zwave__utils.html#ga6f7851dd2a96668e3a246c0292607579" target="_top" xlink:title="Get endpoint node associated with the ZWave NodeID and Endpoint ID.">
<polygon fill="none" stroke="black" points="525,-16.5 525,-35.5 657,-35.5 657,-16.5 525,-16.5"/>
<text text-anchor="middle" x="591" y="-23.5" font-family="Helvetica,sans-Serif" font-size="10.00">zwave_get_endpoint_node</text>
</a>
</g>
</g>
<!-- Node15&#45;&gt;Node16 -->
<g id="edge17" class="edge">
<title>Node15&#45;&gt;Node16</title>
<path fill="none" stroke="midnightblue" d="M481.18,-26C492.14,-26 503.54,-26 514.66,-26"/>
<polygon fill="midnightblue" stroke="midnightblue" points="514.77,-29.5 524.77,-26 514.77,-22.5 514.77,-29.5"/>
</g>
<!-- Node16&#45;&gt;Node7 -->
<g id="edge18" class="edge">
<title>Node16&#45;&gt;Node7</title>
<path fill="none" stroke="midnightblue" d="M615.64,-35.6C640.81,-45.82 681.3,-62.25 712.91,-75.09"/>
<polygon fill="midnightblue" stroke="midnightblue" points="711.83,-78.43 722.41,-78.94 714.46,-71.94 711.83,-78.43"/>
</g>
<!-- Node16&#45;&gt;Node12 -->
<g id="edge19" class="edge">
<title>Node16&#45;&gt;Node12</title>
<path fill="none" stroke="midnightblue" d="M657.24,-29.12C666.12,-29.54 675.28,-29.98 684.32,-30.41"/>
<polygon fill="midnightblue" stroke="midnightblue" points="684.28,-33.91 694.44,-30.89 684.62,-26.92 684.28,-33.91"/>
</g>
<!-- Node17&#45;&gt;Node6 -->
<g id="edge21" class="edge">
<title>Node17&#45;&gt;Node6</title>
<path fill="none" stroke="midnightblue" d="M298.22,-41.58C316.72,-47.55 336.77,-54.03 354.77,-59.84"/>
<polygon fill="midnightblue" stroke="midnightblue" points="353.95,-63.25 364.54,-63 356.1,-56.59 353.95,-63.25"/>
</g>
<!-- Node17&#45;&gt;Node15 -->
<g id="edge22" class="edge">
<title>Node17&#45;&gt;Node15</title>
<path fill="none" stroke="midnightblue" d="M299.22,-22.83C310.07,-23.14 321.43,-23.46 332.57,-23.78"/>
<polygon fill="midnightblue" stroke="midnightblue" points="332.63,-27.28 342.73,-24.07 332.83,-20.28 332.63,-27.28"/>
</g>
</g>
</svg>
