<?xml version="1.0" encoding="UTF-8" standalone="no"?>
<!DOCTYPE svg PUBLIC "-//W3C//DTD SVG 1.1//EN"
 "http://www.w3.org/Graphics/SVG/1.1/DTD/svg11.dtd">
<!-- Generated by graphviz version 2.43.0 (0)
 -->
<!-- Title: applications/zpc/components/zwave/zwave_transports/zwave_api_transport/src/zwave_api_transport.c Pages: 1 -->
<svg width="1926pt" height="553pt"
 viewBox="0.00 0.00 1925.50 553.00" xmlns="http://www.w3.org/2000/svg" xmlns:xlink="http://www.w3.org/1999/xlink">
<g id="graph0" class="graph" transform="scale(1 1) rotate(0) translate(4 549)">
<title>applications/zpc/components/zwave/zwave_transports/zwave_api_transport/src/zwave_api_transport.c</title>
<!-- Node1 -->
<g id="node1" class="node">
<title>Node1</title>
<g id="a_node1"><a xlink:title=" ">
<polygon fill="#bfbfbf" stroke="black" points="1266,-492.5 1266,-544.5 1409,-544.5 1409,-492.5 1266,-492.5"/>
<text text-anchor="start" x="1274" y="-532.5" font-family="Helvetica,sans-Serif" font-size="10.00">applications/zpc/components</text>
<text text-anchor="start" x="1274" y="-521.5" font-family="Helvetica,sans-Serif" font-size="10.00">/zwave/zwave_transports</text>
<text text-anchor="start" x="1274" y="-510.5" font-family="Helvetica,sans-Serif" font-size="10.00">/zwave_api_transport/src</text>
<text text-anchor="middle" x="1337.5" y="-499.5" font-family="Helvetica,sans-Serif" font-size="10.00">/zwave_api_transport.c</text>
</a>
</g>
</g>
<!-- Node2 -->
<g id="node2" class="node">
<title>Node2</title>
<g id="a_node2"><a xlink:href="zwave__api__transport_8h.html" target="_top" xlink:title=" ">
<polygon fill="none" stroke="black" points="1334,-302.5 1334,-321.5 1449,-321.5 1449,-302.5 1334,-302.5"/>
<text text-anchor="middle" x="1391.5" y="-309.5" font-family="Helvetica,sans-Serif" font-size="10.00">zwave_api_transport.h</text>
</a>
</g>
</g>
<!-- Node1&#45;&gt;Node2 -->
<g id="edge1" class="edge">
<title>Node1&#45;&gt;Node2</title>
<path fill="none" stroke="midnightblue" d="M1339.18,-492.49C1341.93,-460.48 1348.87,-403.71 1365.5,-358 1369.05,-348.25 1374.65,-338.18 1379.75,-330.04"/>
<polygon fill="midnightblue" stroke="midnightblue" points="1382.79,-331.79 1385.36,-321.51 1376.94,-327.95 1382.79,-331.79"/>
</g>
<!-- Node5 -->
<g id="node5" class="node">
<title>Node5</title>
<g id="a_node5"><a xlink:href="zwave__tx_8h.html" target="_top" xlink:title=" ">
<polygon fill="none" stroke="black" points="1063,-246.5 1063,-265.5 1130,-265.5 1130,-246.5 1063,-246.5"/>
<text text-anchor="middle" x="1096.5" y="-253.5" font-family="Helvetica,sans-Serif" font-size="10.00">zwave_tx.h</text>
</a>
</g>
</g>
<!-- Node1&#45;&gt;Node5 -->
<g id="edge71" class="edge">
<title>Node1&#45;&gt;Node5</title>
<path fill="none" stroke="midnightblue" d="M1290.5,-492.45C1275.3,-482.63 1259.34,-470.28 1247.5,-456 1217.14,-419.39 1231.99,-396.82 1204.5,-358 1179.5,-322.7 1140.63,-290.12 1116.97,-271.97"/>
<polygon fill="midnightblue" stroke="midnightblue" points="1118.81,-268.96 1108.71,-265.74 1114.59,-274.55 1118.81,-268.96"/>
</g>
<!-- Node6 -->
<g id="node6" class="node">
<title>Node6</title>
<g id="a_node6"><a xlink:href="zwave__controller__connection__info_8h.html" target="_top" xlink:title=" ">
<polygon fill="none" stroke="black" points="693,-179.5 693,-209.5 836,-209.5 836,-179.5 693,-179.5"/>
<text text-anchor="start" x="701" y="-197.5" font-family="Helvetica,sans-Serif" font-size="10.00">zwave_controller_connection</text>
<text text-anchor="middle" x="764.5" y="-186.5" font-family="Helvetica,sans-Serif" font-size="10.00">_info.h</text>
</a>
</g>
</g>
<!-- Node1&#45;&gt;Node6 -->
<g id="edge34" class="edge">
<title>Node1&#45;&gt;Node6</title>
<path fill="none" stroke="midnightblue" d="M1265.99,-511.73C1180.16,-503.57 1042.61,-486.18 1001.5,-456 968.48,-431.77 958.5,-415.45 958.5,-374.5 958.5,-374.5 958.5,-374.5 958.5,-311 958.5,-255.46 899.08,-226.02 846.01,-210.8"/>
<polygon fill="midnightblue" stroke="midnightblue" points="846.76,-207.38 836.19,-208.12 844.91,-214.13 846.76,-207.38"/>
</g>
<!-- Node8 -->
<g id="node8" class="node">
<title>Node8</title>
<g id="a_node8"><a xlink:title=" ">
<polygon fill="none" stroke="#bfbfbf" points="1487.5,-0.5 1487.5,-19.5 1543.5,-19.5 1543.5,-0.5 1487.5,-0.5"/>
<text text-anchor="middle" x="1515.5" y="-7.5" font-family="Helvetica,sans-Serif" font-size="10.00">stdbool.h</text>
</a>
</g>
</g>
<!-- Node1&#45;&gt;Node8 -->
<g id="edge30" class="edge">
<title>Node1&#45;&gt;Node8</title>
<path fill="none" stroke="midnightblue" d="M1363.05,-492.3C1389.87,-465.91 1428.68,-427.86 1432.5,-425 1458.63,-405.45 1470.93,-409.29 1496.5,-389 1581.02,-321.93 1619.9,-309.97 1660.5,-210 1687.33,-143.93 1672.36,-99.02 1615.5,-56 1596.67,-41.75 1572.61,-30.75 1552.81,-23.19"/>
<polygon fill="midnightblue" stroke="midnightblue" points="1553.77,-19.81 1543.18,-19.65 1551.36,-26.38 1553.77,-19.81"/>
</g>
<!-- Node12 -->
<g id="node12" class="node">
<title>Node12</title>
<g id="a_node12"><a xlink:href="zwapi__protocol__transport_8h.html" target="_top" xlink:title="Z&#45;Wave API for transport application layer interface.">
<polygon fill="none" stroke="black" points="1184.5,-185 1184.5,-204 1318.5,-204 1318.5,-185 1184.5,-185"/>
<text text-anchor="middle" x="1251.5" y="-192" font-family="Helvetica,sans-Serif" font-size="10.00">zwapi_protocol_transport.h</text>
</a>
</g>
</g>
<!-- Node1&#45;&gt;Node12 -->
<g id="edge75" class="edge">
<title>Node1&#45;&gt;Node12</title>
<path fill="none" stroke="midnightblue" d="M1320.42,-492.43C1280.67,-433.88 1184.82,-291.15 1177.5,-266 1175.02,-257.47 1173.35,-253.86 1177.5,-246 1186.49,-228.99 1204.07,-216.62 1219.84,-208.39"/>
<polygon fill="midnightblue" stroke="midnightblue" points="1221.38,-211.53 1228.84,-204.01 1218.32,-205.24 1221.38,-211.53"/>
</g>
<!-- Node16 -->
<g id="node16" class="node">
<title>Node16</title>
<g id="a_node16"><a xlink:title=" ">
<polygon fill="none" stroke="#bfbfbf" points="1442,-431 1442,-450 1491,-450 1491,-431 1442,-431"/>
<text text-anchor="middle" x="1466.5" y="-438" font-family="Helvetica,sans-Serif" font-size="10.00">string.h</text>
</a>
</g>
</g>
<!-- Node1&#45;&gt;Node16 -->
<g id="edge31" class="edge">
<title>Node1&#45;&gt;Node16</title>
<path fill="none" stroke="midnightblue" d="M1380.1,-492.4C1401.03,-480.07 1425.45,-465.69 1442.98,-455.36"/>
<polygon fill="midnightblue" stroke="midnightblue" points="1445.1,-458.17 1451.94,-450.08 1441.55,-452.14 1445.1,-458.17"/>
</g>
<!-- Node17 -->
<g id="node17" class="node">
<title>Node17</title>
<g id="a_node17"><a xlink:href="zwave__helper__macros_8h.html" target="_top" xlink:title=" ">
<polygon fill="none" stroke="black" points="1509.5,-431 1509.5,-450 1631.5,-450 1631.5,-431 1509.5,-431"/>
<text text-anchor="middle" x="1570.5" y="-438" font-family="Helvetica,sans-Serif" font-size="10.00">zwave_helper_macros.h</text>
</a>
</g>
</g>
<!-- Node1&#45;&gt;Node17 -->
<g id="edge32" class="edge">
<title>Node1&#45;&gt;Node17</title>
<path fill="none" stroke="midnightblue" d="M1409.31,-494.08C1450.87,-480.52 1501.38,-464.04 1534.65,-453.19"/>
<polygon fill="midnightblue" stroke="midnightblue" points="1535.98,-456.44 1544.4,-450.01 1533.81,-449.79 1535.98,-456.44"/>
</g>
<!-- Node18 -->
<g id="node18" class="node">
<title>Node18</title>
<g id="a_node18"><a xlink:href="zwave__command__class__indices_8h.html" target="_top" xlink:title=" ">
<polygon fill="none" stroke="black" points="1649.5,-425.5 1649.5,-455.5 1771.5,-455.5 1771.5,-425.5 1649.5,-425.5"/>
<text text-anchor="start" x="1657.5" y="-443.5" font-family="Helvetica,sans-Serif" font-size="10.00">zwave_command_class</text>
<text text-anchor="middle" x="1710.5" y="-432.5" font-family="Helvetica,sans-Serif" font-size="10.00">_indices.h</text>
</a>
</g>
</g>
<!-- Node1&#45;&gt;Node18 -->
<g id="edge33" class="edge">
<title>Node1&#45;&gt;Node18</title>
<path fill="none" stroke="midnightblue" d="M1409.14,-503.04C1468.27,-491.09 1554.66,-473.59 1639.61,-456.18"/>
<polygon fill="midnightblue" stroke="midnightblue" points="1640.33,-459.6 1649.42,-454.17 1638.92,-452.75 1640.33,-459.6"/>
</g>
<!-- Node19 -->
<g id="node19" class="node">
<title>Node19</title>
<g id="a_node19"><a xlink:href="zwave__controller__transport_8h.html" target="_top" xlink:title=" ">
<polygon fill="none" stroke="black" points="1030.5,-431 1030.5,-450 1172.5,-450 1172.5,-431 1030.5,-431"/>
<text text-anchor="middle" x="1101.5" y="-438" font-family="Helvetica,sans-Serif" font-size="10.00">zwave_controller_transport.h</text>
</a>
</g>
</g>
<!-- Node1&#45;&gt;Node19 -->
<g id="edge35" class="edge">
<title>Node1&#45;&gt;Node19</title>
<path fill="none" stroke="midnightblue" d="M1265.73,-494.39C1223.58,-480.81 1172.07,-464.23 1138.11,-453.29"/>
<polygon fill="midnightblue" stroke="midnightblue" points="1138.76,-449.82 1128.16,-450.09 1136.61,-456.48 1138.76,-449.82"/>
</g>
<!-- Node28 -->
<g id="node28" class="node">
<title>Node28</title>
<g id="a_node28"><a xlink:href="zwave__controller__internal_8h.html" target="_top" xlink:title=" ">
<polygon fill="none" stroke="black" points="707,-431 707,-450 842,-450 842,-431 707,-431"/>
<text text-anchor="middle" x="774.5" y="-438" font-family="Helvetica,sans-Serif" font-size="10.00">zwave_controller_internal.h</text>
</a>
</g>
</g>
<!-- Node1&#45;&gt;Node28 -->
<g id="edge59" class="edge">
<title>Node1&#45;&gt;Node28</title>
<path fill="none" stroke="midnightblue" d="M1265.91,-507.84C1158.46,-493.33 956.55,-466.08 848,-451.42"/>
<polygon fill="midnightblue" stroke="midnightblue" points="848.17,-447.91 837.79,-450.04 847.23,-454.85 848.17,-447.91"/>
</g>
<!-- Node29 -->
<g id="node29" class="node">
<title>Node29</title>
<g id="a_node29"><a xlink:href="zwapi__protocol__controller_8h.html" target="_top" xlink:title="Z&#45;Wave API for Z&#45;Wave controllers (network setup and maintenance)">
<polygon fill="none" stroke="black" points="1186.5,-246.5 1186.5,-265.5 1320.5,-265.5 1320.5,-246.5 1186.5,-246.5"/>
<text text-anchor="middle" x="1253.5" y="-253.5" font-family="Helvetica,sans-Serif" font-size="10.00">zwapi_protocol_controller.h</text>
</a>
</g>
</g>
<!-- Node1&#45;&gt;Node29 -->
<g id="edge76" class="edge">
<title>Node1&#45;&gt;Node29</title>
<path fill="none" stroke="midnightblue" d="M1331.81,-492.48C1322.23,-451.82 1301.37,-369.21 1275.5,-302 1271.95,-292.77 1267.21,-282.86 1263.04,-274.69"/>
<polygon fill="midnightblue" stroke="midnightblue" points="1266.1,-272.99 1258.35,-265.76 1259.9,-276.24 1266.1,-272.99"/>
</g>
<!-- Node30 -->
<g id="node30" class="node">
<title>Node30</title>
<g id="a_node30"><a xlink:href="zwave__rx__callbacks_8h.html" target="_top" xlink:title=" ">
<polygon fill="none" stroke="black" points="1375,-364 1375,-383 1488,-383 1488,-364 1375,-364"/>
<text text-anchor="middle" x="1431.5" y="-371" font-family="Helvetica,sans-Serif" font-size="10.00">zwave_rx_callbacks.h</text>
</a>
</g>
</g>
<!-- Node1&#45;&gt;Node30 -->
<g id="edge69" class="edge">
<title>Node1&#45;&gt;Node30</title>
<path fill="none" stroke="midnightblue" d="M1354.09,-492.26C1373.16,-463.26 1403.93,-416.44 1420.34,-391.47"/>
<polygon fill="midnightblue" stroke="midnightblue" points="1423.31,-393.33 1425.88,-383.05 1417.46,-389.49 1423.31,-393.33"/>
</g>
<!-- Node31 -->
<g id="node31" class="node">
<title>Node31</title>
<g id="a_node31"><a xlink:href="zwave__tx__groups_8h.html" target="_top" xlink:title=" ">
<polygon fill="none" stroke="black" points="1027,-185 1027,-204 1128,-204 1128,-185 1027,-185"/>
<text text-anchor="middle" x="1077.5" y="-192" font-family="Helvetica,sans-Serif" font-size="10.00">zwave_tx_groups.h</text>
</a>
</g>
</g>
<!-- Node1&#45;&gt;Node31 -->
<g id="edge72" class="edge">
<title>Node1&#45;&gt;Node31</title>
<path fill="none" stroke="midnightblue" d="M1265.81,-513.83C1182.29,-507.88 1051.85,-492.82 1021.5,-456 960.8,-382.35 1034.32,-258.2 1065.14,-212.8"/>
<polygon fill="midnightblue" stroke="midnightblue" points="1068.17,-214.56 1071,-204.35 1062.42,-210.57 1068.17,-214.56"/>
</g>
<!-- Node32 -->
<g id="node32" class="node">
<title>Node32</title>
<g id="a_node32"><a xlink:title=" ">
<polygon fill="none" stroke="#bfbfbf" points="1790,-431 1790,-450 1849,-450 1849,-431 1790,-431"/>
<text text-anchor="middle" x="1819.5" y="-438" font-family="Helvetica,sans-Serif" font-size="10.00">process.h</text>
</a>
</g>
</g>
<!-- Node1&#45;&gt;Node32 -->
<g id="edge77" class="edge">
<title>Node1&#45;&gt;Node32</title>
<path fill="none" stroke="midnightblue" d="M1409,-512.4C1497.34,-504.99 1651.75,-488.46 1780.5,-456 1783.49,-455.25 1786.56,-454.34 1789.61,-453.36"/>
<polygon fill="midnightblue" stroke="midnightblue" points="1790.84,-456.64 1799.12,-450.03 1788.53,-450.03 1790.84,-456.64"/>
</g>
<!-- Node33 -->
<g id="node33" class="node">
<title>Node33</title>
<g id="a_node33"><a xlink:title=" ">
<polygon fill="none" stroke="#bfbfbf" points="1867.5,-431 1867.5,-450 1917.5,-450 1917.5,-431 1867.5,-431"/>
<text text-anchor="middle" x="1892.5" y="-438" font-family="Helvetica,sans-Serif" font-size="10.00">sl_log.h</text>
</a>
</g>
</g>
<!-- Node1&#45;&gt;Node33 -->
<g id="edge78" class="edge">
<title>Node1&#45;&gt;Node33</title>
<path fill="none" stroke="midnightblue" d="M1409.07,-515.49C1510.62,-511.2 1701.62,-497.78 1858.5,-456 1860.85,-455.37 1863.26,-454.61 1865.65,-453.77"/>
<polygon fill="midnightblue" stroke="midnightblue" points="1867.17,-456.93 1875.19,-450.01 1864.61,-450.42 1867.17,-456.93"/>
</g>
<!-- Node3 -->
<g id="node3" class="node">
<title>Node3</title>
<g id="a_node3"><a xlink:href="sl__status_8h.html" target="_top" xlink:title="SL Status Codes.">
<polygon fill="none" stroke="black" points="1346,-118 1346,-137 1411,-137 1411,-118 1346,-118"/>
<text text-anchor="middle" x="1378.5" y="-125" font-family="Helvetica,sans-Serif" font-size="10.00">sl_status.h</text>
</a>
</g>
</g>
<!-- Node2&#45;&gt;Node3 -->
<g id="edge2" class="edge">
<title>Node2&#45;&gt;Node3</title>
<path fill="none" stroke="midnightblue" d="M1404.56,-302.44C1415.41,-294.47 1430.07,-281.52 1436.5,-266 1439.9,-257.79 1438.52,-254.66 1436.5,-246 1427.58,-207.79 1404.35,-167.73 1390.15,-145.66"/>
<polygon fill="midnightblue" stroke="midnightblue" points="1392.93,-143.53 1384.51,-137.11 1387.09,-147.38 1392.93,-143.53"/>
</g>
<!-- Node2&#45;&gt;Node5 -->
<g id="edge4" class="edge">
<title>Node2&#45;&gt;Node5</title>
<path fill="none" stroke="midnightblue" d="M1344.76,-302.44C1288.59,-292.16 1195.08,-275.05 1140.27,-265.01"/>
<polygon fill="midnightblue" stroke="midnightblue" points="1140.65,-261.52 1130.18,-263.16 1139.38,-268.41 1140.65,-261.52"/>
</g>
<!-- Node15 -->
<g id="node15" class="node">
<title>Node15</title>
<g id="a_node15"><a xlink:title=" ">
<polygon fill="none" stroke="#bfbfbf" points="1377,-246.5 1377,-265.5 1428,-265.5 1428,-246.5 1377,-246.5"/>
<text text-anchor="middle" x="1402.5" y="-253.5" font-family="Helvetica,sans-Serif" font-size="10.00">etimer.h</text>
</a>
</g>
</g>
<!-- Node2&#45;&gt;Node15 -->
<g id="edge29" class="edge">
<title>Node2&#45;&gt;Node15</title>
<path fill="none" stroke="midnightblue" d="M1393.32,-302.08C1394.77,-294.93 1396.87,-284.64 1398.69,-275.69"/>
<polygon fill="midnightblue" stroke="midnightblue" points="1402.15,-276.25 1400.72,-265.75 1395.29,-274.85 1402.15,-276.25"/>
</g>
<!-- Node4 -->
<g id="node4" class="node">
<title>Node4</title>
<g id="a_node4"><a xlink:title=" ">
<polygon fill="none" stroke="#bfbfbf" points="1000,-0.5 1000,-19.5 1049,-19.5 1049,-0.5 1000,-0.5"/>
<text text-anchor="middle" x="1024.5" y="-7.5" font-family="Helvetica,sans-Serif" font-size="10.00">stdint.h</text>
</a>
</g>
</g>
<!-- Node3&#45;&gt;Node4 -->
<g id="edge3" class="edge">
<title>Node3&#45;&gt;Node4</title>
<path fill="none" stroke="midnightblue" d="M1371.07,-117.88C1357.4,-102.65 1326.63,-71.16 1293.5,-56 1215.15,-20.15 1112.27,-12.53 1059.32,-11.12"/>
<polygon fill="midnightblue" stroke="midnightblue" points="1059.19,-7.62 1049.12,-10.91 1059.04,-14.61 1059.19,-7.62"/>
</g>
<!-- Node5&#45;&gt;Node3 -->
<g id="edge5" class="edge">
<title>Node5&#45;&gt;Node3</title>
<path fill="none" stroke="midnightblue" d="M1130.03,-249.98C1190.11,-240.76 1311.38,-221.08 1327.5,-210 1350.03,-194.52 1364.61,-165.49 1372.18,-146.59"/>
<polygon fill="midnightblue" stroke="midnightblue" points="1375.53,-147.63 1375.76,-137.04 1368.98,-145.17 1375.53,-147.63"/>
</g>
<!-- Node5&#45;&gt;Node6 -->
<g id="edge6" class="edge">
<title>Node5&#45;&gt;Node6</title>
<path fill="none" stroke="midnightblue" d="M1062.84,-248.97C1012.48,-239.94 916.01,-222.65 846.38,-210.17"/>
<polygon fill="midnightblue" stroke="midnightblue" points="846.77,-206.69 836.31,-208.37 845.54,-213.58 846.77,-206.69"/>
</g>
<!-- Node5&#45;&gt;Node12 -->
<g id="edge16" class="edge">
<title>Node5&#45;&gt;Node12</title>
<path fill="none" stroke="midnightblue" d="M1118.71,-246.48C1145.18,-236.31 1189.61,-219.26 1219.72,-207.7"/>
<polygon fill="midnightblue" stroke="midnightblue" points="1221.25,-210.86 1229.33,-204.01 1218.74,-204.33 1221.25,-210.86"/>
</g>
<!-- Node13 -->
<g id="node13" class="node">
<title>Node13</title>
<g id="a_node13"><a xlink:href="zwapi__protocol__basis_8h.html" target="_top" xlink:title="Z&#45;Wave API for basis controller/end node application interface.">
<polygon fill="none" stroke="black" points="1489,-185 1489,-204 1608,-204 1608,-185 1489,-185"/>
<text text-anchor="middle" x="1548.5" y="-192" font-family="Helvetica,sans-Serif" font-size="10.00">zwapi_protocol_basis.h</text>
</a>
</g>
</g>
<!-- Node5&#45;&gt;Node13 -->
<g id="edge21" class="edge">
<title>Node5&#45;&gt;Node13</title>
<path fill="none" stroke="midnightblue" d="M1130.1,-250.58C1203.61,-240.9 1379.98,-217.68 1478.66,-204.69"/>
<polygon fill="midnightblue" stroke="midnightblue" points="1479.37,-208.13 1488.83,-203.35 1478.46,-201.19 1479.37,-208.13"/>
</g>
<!-- Node14 -->
<g id="node14" class="node">
<title>Node14</title>
<g id="a_node14"><a xlink:href="zwave__tx__definitions_8h.html" target="_top" xlink:title=" ">
<polygon fill="none" stroke="black" points="854.5,-185 854.5,-204 970.5,-204 970.5,-185 854.5,-185"/>
<text text-anchor="middle" x="912.5" y="-192" font-family="Helvetica,sans-Serif" font-size="10.00">zwave_tx_definitions.h</text>
</a>
</g>
</g>
<!-- Node5&#45;&gt;Node14 -->
<g id="edge27" class="edge">
<title>Node5&#45;&gt;Node14</title>
<path fill="none" stroke="midnightblue" d="M1070.14,-246.48C1038.16,-236.14 984.12,-218.66 948.38,-207.1"/>
<polygon fill="midnightblue" stroke="midnightblue" points="949.41,-203.76 938.81,-204.01 947.25,-210.42 949.41,-203.76"/>
</g>
<!-- Node7 -->
<g id="node7" class="node">
<title>Node7</title>
<g id="a_node7"><a xlink:href="zwave__controller__types_8h.html" target="_top" xlink:title=" ">
<polygon fill="none" stroke="black" points="941.5,-118 941.5,-137 1069.5,-137 1069.5,-118 941.5,-118"/>
<text text-anchor="middle" x="1005.5" y="-125" font-family="Helvetica,sans-Serif" font-size="10.00">zwave_controller_types.h</text>
</a>
</g>
</g>
<!-- Node6&#45;&gt;Node7 -->
<g id="edge7" class="edge">
<title>Node6&#45;&gt;Node7</title>
<path fill="none" stroke="midnightblue" d="M816.5,-179.48C860.63,-167.57 923.13,-150.72 963.98,-139.7"/>
<polygon fill="midnightblue" stroke="midnightblue" points="965.13,-143.01 973.88,-137.03 963.31,-136.25 965.13,-143.01"/>
</g>
<!-- Node7&#45;&gt;Node4 -->
<g id="edge9" class="edge">
<title>Node7&#45;&gt;Node4</title>
<path fill="none" stroke="midnightblue" d="M1006.93,-117.82C1009.98,-99.26 1017.21,-55.34 1021.38,-29.97"/>
<polygon fill="midnightblue" stroke="midnightblue" points="1024.89,-30.22 1023.06,-19.78 1017.98,-29.08 1024.89,-30.22"/>
</g>
<!-- Node7&#45;&gt;Node8 -->
<g id="edge8" class="edge">
<title>Node7&#45;&gt;Node8</title>
<path fill="none" stroke="midnightblue" d="M1013.94,-117.7C1029.43,-102.17 1064.16,-70.23 1100.5,-56 1168.67,-29.31 1387.72,-16.72 1477.04,-12.6"/>
<polygon fill="midnightblue" stroke="midnightblue" points="1477.44,-16.08 1487.27,-12.14 1477.12,-9.09 1477.44,-16.08"/>
</g>
<!-- Node9 -->
<g id="node9" class="node">
<title>Node9</title>
<g id="a_node9"><a xlink:href="zwave__node__id__definitions_8h.html" target="_top" xlink:title=" ">
<polygon fill="none" stroke="black" points="1109.5,-56.5 1109.5,-75.5 1251.5,-75.5 1251.5,-56.5 1109.5,-56.5"/>
<text text-anchor="middle" x="1180.5" y="-63.5" font-family="Helvetica,sans-Serif" font-size="10.00">zwave_node_id_definitions.h</text>
</a>
</g>
</g>
<!-- Node7&#45;&gt;Node9 -->
<g id="edge10" class="edge">
<title>Node7&#45;&gt;Node9</title>
<path fill="none" stroke="midnightblue" d="M1030.57,-117.98C1060.85,-107.68 1111.94,-90.31 1145.94,-78.75"/>
<polygon fill="midnightblue" stroke="midnightblue" points="1147.13,-82.04 1155.47,-75.51 1144.88,-75.41 1147.13,-82.04"/>
</g>
<!-- Node10 -->
<g id="node10" class="node">
<title>Node10</title>
<g id="a_node10"><a xlink:href="zwave__generic__types_8h.html" target="_top" xlink:title=" ">
<polygon fill="none" stroke="black" points="441,-56.5 441,-75.5 560,-75.5 560,-56.5 441,-56.5"/>
<text text-anchor="middle" x="500.5" y="-63.5" font-family="Helvetica,sans-Serif" font-size="10.00">zwave_generic_types.h</text>
</a>
</g>
</g>
<!-- Node7&#45;&gt;Node10 -->
<g id="edge12" class="edge">
<title>Node7&#45;&gt;Node10</title>
<path fill="none" stroke="midnightblue" d="M941.29,-118.93C846.22,-107.73 668.73,-86.82 570.47,-75.24"/>
<polygon fill="midnightblue" stroke="midnightblue" points="570.68,-71.74 560.34,-74.05 569.86,-78.7 570.68,-71.74"/>
</g>
<!-- Node11 -->
<g id="node11" class="node">
<title>Node11</title>
<g id="a_node11"><a xlink:href="zwave__rf__region_8h.html" target="_top" xlink:title=" ">
<polygon fill="none" stroke="black" points="1429.5,-56.5 1429.5,-75.5 1525.5,-75.5 1525.5,-56.5 1429.5,-56.5"/>
<text text-anchor="middle" x="1477.5" y="-63.5" font-family="Helvetica,sans-Serif" font-size="10.00">zwave_rf_region.h</text>
</a>
</g>
</g>
<!-- Node7&#45;&gt;Node11 -->
<g id="edge14" class="edge">
<title>Node7&#45;&gt;Node11</title>
<path fill="none" stroke="midnightblue" d="M1069.65,-118.41C1161.78,-106.8 1330.24,-85.56 1419.08,-74.36"/>
<polygon fill="midnightblue" stroke="midnightblue" points="1419.77,-77.81 1429.25,-73.08 1418.89,-70.86 1419.77,-77.81"/>
</g>
<!-- Node9&#45;&gt;Node4 -->
<g id="edge11" class="edge">
<title>Node9&#45;&gt;Node4</title>
<path fill="none" stroke="midnightblue" d="M1155.78,-56.44C1129.65,-47.4 1088.24,-33.06 1058.92,-22.92"/>
<polygon fill="midnightblue" stroke="midnightblue" points="1059.7,-19.48 1049.1,-19.52 1057.41,-26.1 1059.7,-19.48"/>
</g>
<!-- Node10&#45;&gt;Node4 -->
<g id="edge13" class="edge">
<title>Node10&#45;&gt;Node4</title>
<path fill="none" stroke="midnightblue" d="M560.26,-57.62C565.08,-57.06 569.87,-56.51 574.5,-56 728.84,-38.9 913.28,-21.36 989.2,-14.27"/>
<polygon fill="midnightblue" stroke="midnightblue" points="989.97,-17.71 999.6,-13.3 989.32,-10.75 989.97,-17.71"/>
</g>
<!-- Node11&#45;&gt;Node8 -->
<g id="edge15" class="edge">
<title>Node11&#45;&gt;Node8</title>
<path fill="none" stroke="midnightblue" d="M1483.77,-56.08C1489.14,-48.46 1497.02,-37.26 1503.58,-27.94"/>
<polygon fill="midnightblue" stroke="midnightblue" points="1506.45,-29.94 1509.34,-19.75 1500.72,-25.91 1506.45,-29.94"/>
</g>
<!-- Node12&#45;&gt;Node3 -->
<g id="edge19" class="edge">
<title>Node12&#45;&gt;Node3</title>
<path fill="none" stroke="midnightblue" d="M1268.36,-184.87C1289.9,-173.84 1327.4,-154.66 1352.58,-141.77"/>
<polygon fill="midnightblue" stroke="midnightblue" points="1354.26,-144.84 1361.57,-137.17 1351.07,-138.61 1354.26,-144.84"/>
</g>
<!-- Node12&#45;&gt;Node4 -->
<g id="edge17" class="edge">
<title>Node12&#45;&gt;Node4</title>
<path fill="none" stroke="midnightblue" d="M1255.68,-184.85C1266.45,-161.15 1292.22,-94.34 1260.5,-56 1235.35,-25.61 1118.54,-15.56 1059.24,-12.39"/>
<polygon fill="midnightblue" stroke="midnightblue" points="1059.37,-8.89 1049.21,-11.89 1059.02,-15.88 1059.37,-8.89"/>
</g>
<!-- Node12&#45;&gt;Node8 -->
<g id="edge18" class="edge">
<title>Node12&#45;&gt;Node8</title>
<path fill="none" stroke="midnightblue" d="M1259.49,-184.89C1274.06,-169.43 1306.2,-136.31 1336.5,-112 1371.5,-83.92 1381.45,-78.11 1420.5,-56 1441.73,-43.98 1466.7,-32.24 1485.71,-23.77"/>
<polygon fill="midnightblue" stroke="midnightblue" points="1487.31,-26.89 1495.05,-19.65 1484.49,-20.48 1487.31,-26.89"/>
</g>
<!-- Node12&#45;&gt;Node9 -->
<g id="edge20" class="edge">
<title>Node12&#45;&gt;Node9</title>
<path fill="none" stroke="midnightblue" d="M1246.62,-184.81C1235.07,-164.22 1205.86,-112.19 1190.42,-84.68"/>
<polygon fill="midnightblue" stroke="midnightblue" points="1193.36,-82.76 1185.41,-75.76 1187.26,-86.19 1193.36,-82.76"/>
</g>
<!-- Node13&#45;&gt;Node3 -->
<g id="edge24" class="edge">
<title>Node13&#45;&gt;Node3</title>
<path fill="none" stroke="midnightblue" d="M1525.93,-184.87C1496.25,-173.52 1443.95,-153.52 1410.28,-140.65"/>
<polygon fill="midnightblue" stroke="midnightblue" points="1411.49,-137.37 1400.9,-137.06 1408.99,-143.9 1411.49,-137.37"/>
</g>
<!-- Node13&#45;&gt;Node4 -->
<g id="edge22" class="edge">
<title>Node13&#45;&gt;Node4</title>
<path fill="none" stroke="midnightblue" d="M1540.52,-184.87C1525.27,-168.8 1490.41,-133.91 1455.5,-112 1325.87,-30.65 1137.12,-14.75 1059.66,-11.7"/>
<polygon fill="midnightblue" stroke="midnightblue" points="1059.6,-8.19 1049.49,-11.34 1059.36,-15.19 1059.6,-8.19"/>
</g>
<!-- Node13&#45;&gt;Node8 -->
<g id="edge23" class="edge">
<title>Node13&#45;&gt;Node8</title>
<path fill="none" stroke="midnightblue" d="M1548.51,-184.98C1548.34,-163.16 1546.69,-103.65 1534.5,-56 1532.14,-46.76 1528.18,-36.95 1524.49,-28.85"/>
<polygon fill="midnightblue" stroke="midnightblue" points="1527.57,-27.2 1520.09,-19.69 1521.26,-30.22 1527.57,-27.2"/>
</g>
<!-- Node13&#45;&gt;Node9 -->
<g id="edge26" class="edge">
<title>Node13&#45;&gt;Node9</title>
<path fill="none" stroke="midnightblue" d="M1533.24,-184.91C1516.05,-175.13 1487.41,-158.49 1463.5,-143 1443.42,-129.99 1441.53,-121.31 1419.5,-112 1369.3,-90.78 1308.97,-79.52 1261.48,-73.57"/>
<polygon fill="midnightblue" stroke="midnightblue" points="1261.9,-70.09 1251.55,-72.38 1261.06,-77.04 1261.9,-70.09"/>
</g>
<!-- Node13&#45;&gt;Node11 -->
<g id="edge25" class="edge">
<title>Node13&#45;&gt;Node11</title>
<path fill="none" stroke="midnightblue" d="M1543.62,-184.81C1532.07,-164.22 1502.86,-112.19 1487.42,-84.68"/>
<polygon fill="midnightblue" stroke="midnightblue" points="1490.36,-82.76 1482.41,-75.76 1484.26,-86.19 1490.36,-82.76"/>
</g>
<!-- Node14&#45;&gt;Node7 -->
<g id="edge28" class="edge">
<title>Node14&#45;&gt;Node7</title>
<path fill="none" stroke="midnightblue" d="M925.04,-184.73C940.38,-174.01 966.56,-155.72 984.88,-142.91"/>
<polygon fill="midnightblue" stroke="midnightblue" points="986.96,-145.72 993.16,-137.13 982.95,-139.99 986.96,-145.72"/>
</g>
<!-- Node19&#45;&gt;Node5 -->
<g id="edge57" class="edge">
<title>Node19&#45;&gt;Node5</title>
<path fill="none" stroke="midnightblue" d="M1092.41,-430.84C1083.34,-421.51 1069.97,-405.73 1064.5,-389 1051.36,-348.84 1072.3,-300.22 1086.04,-274.66"/>
<polygon fill="midnightblue" stroke="midnightblue" points="1089.19,-276.21 1091.04,-265.78 1083.09,-272.78 1089.19,-276.21"/>
</g>
<!-- Node20 -->
<g id="node20" class="node">
<title>Node20</title>
<g id="a_node20"><a xlink:href="zwave__controller_8h.html" target="_top" xlink:title=" ">
<polygon fill="none" stroke="black" points="648.5,-364 648.5,-383 746.5,-383 746.5,-364 648.5,-364"/>
<text text-anchor="middle" x="697.5" y="-371" font-family="Helvetica,sans-Serif" font-size="10.00">zwave_controller.h</text>
</a>
</g>
</g>
<!-- Node19&#45;&gt;Node20 -->
<g id="edge36" class="edge">
<title>Node19&#45;&gt;Node20</title>
<path fill="none" stroke="midnightblue" d="M1048.27,-430.94C972.91,-418.81 835.56,-396.71 756.95,-384.07"/>
<polygon fill="midnightblue" stroke="midnightblue" points="757.16,-380.55 746.73,-382.42 756.05,-387.47 757.16,-380.55"/>
</g>
<!-- Node27 -->
<g id="node27" class="node">
<title>Node27</title>
<g id="a_node27"><a xlink:href="zwave__command__class__version__types_8h.html" target="_top" xlink:title=" ">
<polygon fill="none" stroke="black" points="1073.5,-358.5 1073.5,-388.5 1195.5,-388.5 1195.5,-358.5 1073.5,-358.5"/>
<text text-anchor="start" x="1081.5" y="-376.5" font-family="Helvetica,sans-Serif" font-size="10.00">zwave_command_class</text>
<text text-anchor="middle" x="1134.5" y="-365.5" font-family="Helvetica,sans-Serif" font-size="10.00">_version_types.h</text>
</a>
</g>
</g>
<!-- Node19&#45;&gt;Node27 -->
<g id="edge58" class="edge">
<title>Node19&#45;&gt;Node27</title>
<path fill="none" stroke="midnightblue" d="M1105.95,-430.73C1110.24,-422.29 1116.91,-409.14 1122.73,-397.68"/>
<polygon fill="midnightblue" stroke="midnightblue" points="1125.94,-399.09 1127.35,-388.59 1119.7,-395.92 1125.94,-399.09"/>
</g>
<!-- Node21 -->
<g id="node21" class="node">
<title>Node21</title>
<g id="a_node21"><a xlink:href="zwave__network__management_8h.html" target="_top" xlink:title=" ">
<polygon fill="none" stroke="black" points="568,-302.5 568,-321.5 723,-321.5 723,-302.5 568,-302.5"/>
<text text-anchor="middle" x="645.5" y="-309.5" font-family="Helvetica,sans-Serif" font-size="10.00">zwave_network_management.h</text>
</a>
</g>
</g>
<!-- Node20&#45;&gt;Node21 -->
<g id="edge37" class="edge">
<title>Node20&#45;&gt;Node21</title>
<path fill="none" stroke="midnightblue" d="M690.05,-363.98C682.17,-354.96 669.56,-340.52 659.76,-329.31"/>
<polygon fill="midnightblue" stroke="midnightblue" points="662.15,-326.74 652.94,-321.51 656.88,-331.34 662.15,-326.74"/>
</g>
<!-- Node25 -->
<g id="node25" class="node">
<title>Node25</title>
<g id="a_node25"><a xlink:href="zwave__controller__callbacks_8h.html" target="_top" xlink:title=" ">
<polygon fill="none" stroke="black" points="354,-302.5 354,-321.5 499,-321.5 499,-302.5 354,-302.5"/>
<text text-anchor="middle" x="426.5" y="-309.5" font-family="Helvetica,sans-Serif" font-size="10.00">zwave_controller_callbacks.h</text>
</a>
</g>
</g>
<!-- Node20&#45;&gt;Node25 -->
<g id="edge50" class="edge">
<title>Node20&#45;&gt;Node25</title>
<path fill="none" stroke="midnightblue" d="M658.67,-363.98C610.38,-353.37 527.89,-335.26 475.35,-323.72"/>
<polygon fill="midnightblue" stroke="midnightblue" points="475.77,-320.24 465.26,-321.51 474.27,-327.07 475.77,-320.24"/>
</g>
<!-- Node21&#45;&gt;Node3 -->
<g id="edge49" class="edge">
<title>Node21&#45;&gt;Node3</title>
<path fill="none" stroke="midnightblue" d="M694.25,-302.47C761.41,-289.37 884.84,-260.37 979.5,-210 998.74,-199.76 997.52,-187.72 1017.5,-179 1073.88,-154.38 1252.86,-138.03 1335.69,-131.59"/>
<polygon fill="midnightblue" stroke="midnightblue" points="1336.07,-135.07 1345.77,-130.81 1335.53,-128.09 1336.07,-135.07"/>
</g>
<!-- Node21&#45;&gt;Node4 -->
<g id="edge38" class="edge">
<title>Node21&#45;&gt;Node4</title>
<path fill="none" stroke="midnightblue" d="M637.81,-302.44C622.25,-284.2 588.5,-239.55 588.5,-195.5 588.5,-195.5 588.5,-195.5 588.5,-126.5 588.5,-43.69 886.14,-18.87 989.58,-12.75"/>
<polygon fill="midnightblue" stroke="midnightblue" points="990.02,-16.23 999.81,-12.17 989.63,-9.24 990.02,-16.23"/>
</g>
<!-- Node21&#45;&gt;Node7 -->
<g id="edge40" class="edge">
<title>Node21&#45;&gt;Node7</title>
<path fill="none" stroke="midnightblue" d="M646.8,-302.12C650.92,-275.27 664.55,-195.73 683.5,-179 701.81,-162.84 841.8,-145.52 931.07,-135.94"/>
<polygon fill="midnightblue" stroke="midnightblue" points="931.58,-139.41 941.15,-134.87 930.84,-132.45 931.58,-139.41"/>
</g>
<!-- Node21&#45;&gt;Node8 -->
<g id="edge39" class="edge">
<title>Node21&#45;&gt;Node8</title>
<path fill="none" stroke="midnightblue" d="M723.29,-309.94C877.68,-307.18 1217.54,-297.6 1329.5,-266 1347.87,-260.82 1349.31,-251.79 1367.5,-246 1425.39,-227.57 1598.47,-255.7 1638.5,-210 1685.74,-156.07 1644.01,-103.71 1590.5,-56 1576.37,-43.4 1558.21,-32.4 1543.3,-24.43"/>
<polygon fill="midnightblue" stroke="midnightblue" points="1544.54,-21.13 1534.05,-19.64 1541.32,-27.34 1544.54,-21.13"/>
</g>
<!-- Node21&#45;&gt;Node10 -->
<g id="edge41" class="edge">
<title>Node21&#45;&gt;Node10</title>
<path fill="none" stroke="midnightblue" d="M624.87,-302.38C609.12,-294.86 587.91,-282.55 574.5,-266 529.08,-209.94 509.85,-123.26 503.32,-85.56"/>
<polygon fill="midnightblue" stroke="midnightblue" points="506.75,-84.83 501.68,-75.53 499.84,-85.96 506.75,-84.83"/>
</g>
<!-- Node22 -->
<g id="node22" class="node">
<title>Node22</title>
<g id="a_node22"><a xlink:href="zwave__network__management__types_8h.html" target="_top" xlink:title=" ">
<polygon fill="none" stroke="black" points="699.5,-112.5 699.5,-142.5 845.5,-142.5 845.5,-112.5 699.5,-112.5"/>
<text text-anchor="start" x="707.5" y="-130.5" font-family="Helvetica,sans-Serif" font-size="10.00">zwave_network_management</text>
<text text-anchor="middle" x="772.5" y="-119.5" font-family="Helvetica,sans-Serif" font-size="10.00">_types.h</text>
</a>
</g>
</g>
<!-- Node21&#45;&gt;Node22 -->
<g id="edge42" class="edge">
<title>Node21&#45;&gt;Node22</title>
<path fill="none" stroke="midnightblue" d="M642.91,-302.3C636.72,-279.62 623.51,-217.77 650.5,-179 660.68,-164.37 675.93,-153.97 692.23,-146.58"/>
<polygon fill="midnightblue" stroke="midnightblue" points="694.02,-149.63 701.92,-142.57 691.34,-143.16 694.02,-149.63"/>
</g>
<!-- Node23 -->
<g id="node23" class="node">
<title>Node23</title>
<g id="a_node23"><a xlink:href="zwave__controller__keyset_8h.html" target="_top" xlink:title=" ">
<polygon fill="none" stroke="black" points="179,-246.5 179,-265.5 312,-265.5 312,-246.5 179,-246.5"/>
<text text-anchor="middle" x="245.5" y="-253.5" font-family="Helvetica,sans-Serif" font-size="10.00">zwave_controller_keyset.h</text>
</a>
</g>
</g>
<!-- Node21&#45;&gt;Node23 -->
<g id="edge45" class="edge">
<title>Node21&#45;&gt;Node23</title>
<path fill="none" stroke="midnightblue" d="M582.12,-302.44C510.58,-292.79 394.38,-277.1 318.95,-266.92"/>
<polygon fill="midnightblue" stroke="midnightblue" points="318.96,-263.39 308.58,-265.52 318.03,-270.32 318.96,-263.39"/>
</g>
<!-- Node22&#45;&gt;Node4 -->
<g id="edge44" class="edge">
<title>Node22&#45;&gt;Node4</title>
<path fill="none" stroke="midnightblue" d="M799.44,-112.39C827.8,-97.72 873.87,-74.37 914.5,-56 940.59,-44.21 970.71,-31.98 992.83,-23.25"/>
<polygon fill="midnightblue" stroke="midnightblue" points="994.36,-26.41 1002.39,-19.5 991.8,-19.9 994.36,-26.41"/>
</g>
<!-- Node22&#45;&gt;Node8 -->
<g id="edge43" class="edge">
<title>Node22&#45;&gt;Node8</title>
<path fill="none" stroke="midnightblue" d="M821.07,-112.49C878.32,-96.49 976.56,-70.64 1062.5,-56 1214.86,-30.04 1398.78,-17.48 1477.14,-13"/>
<polygon fill="midnightblue" stroke="midnightblue" points="1477.69,-16.48 1487.48,-12.42 1477.3,-9.49 1477.69,-16.48"/>
</g>
<!-- Node23&#45;&gt;Node6 -->
<g id="edge46" class="edge">
<title>Node23&#45;&gt;Node6</title>
<path fill="none" stroke="midnightblue" d="M312.02,-247.37C406.79,-236.51 580.49,-216.6 682.91,-204.85"/>
<polygon fill="midnightblue" stroke="midnightblue" points="683.36,-208.33 692.9,-203.71 682.56,-201.37 683.36,-208.33"/>
</g>
<!-- Node24 -->
<g id="node24" class="node">
<title>Node24</title>
<g id="a_node24"><a xlink:href="zwave__keyset__definitions_8h.html" target="_top" xlink:title=" ">
<polygon fill="none" stroke="black" points="0,-185 0,-204 137,-204 137,-185 0,-185"/>
<text text-anchor="middle" x="68.5" y="-192" font-family="Helvetica,sans-Serif" font-size="10.00">zwave_keyset_definitions.h</text>
</a>
</g>
</g>
<!-- Node23&#45;&gt;Node24 -->
<g id="edge47" class="edge">
<title>Node23&#45;&gt;Node24</title>
<path fill="none" stroke="midnightblue" d="M220.14,-246.48C189.52,-236.18 137.84,-218.81 103.45,-207.25"/>
<polygon fill="midnightblue" stroke="midnightblue" points="104.41,-203.88 93.81,-204.01 102.18,-210.51 104.41,-203.88"/>
</g>
<!-- Node24&#45;&gt;Node4 -->
<g id="edge48" class="edge">
<title>Node24&#45;&gt;Node4</title>
<path fill="none" stroke="midnightblue" d="M74.46,-184.96C86.76,-168.07 116.69,-130.42 151.5,-112 300.98,-32.88 846.3,-15.05 989.74,-11.69"/>
<polygon fill="midnightblue" stroke="midnightblue" points="989.82,-15.19 999.74,-11.47 989.66,-8.19 989.82,-15.19"/>
</g>
<!-- Node25&#45;&gt;Node10 -->
<g id="edge55" class="edge">
<title>Node25&#45;&gt;Node10</title>
<path fill="none" stroke="midnightblue" d="M353.75,-308.39C286.19,-304.25 192.66,-293.57 169.5,-266 163.78,-259.19 164.95,-253.64 169.5,-246 230.08,-144.36 370.62,-96.94 447.66,-77.9"/>
<polygon fill="midnightblue" stroke="midnightblue" points="448.73,-81.24 457.64,-75.5 447.1,-74.43 448.73,-81.24"/>
</g>
<!-- Node25&#45;&gt;Node12 -->
<g id="edge56" class="edge">
<title>Node25&#45;&gt;Node12</title>
<path fill="none" stroke="midnightblue" d="M487.5,-302.46C636.96,-281.54 1020.86,-227.79 1180.36,-205.46"/>
<polygon fill="midnightblue" stroke="midnightblue" points="1181.12,-208.89 1190.53,-204.04 1180.15,-201.96 1181.12,-208.89"/>
</g>
<!-- Node25&#45;&gt;Node22 -->
<g id="edge53" class="edge">
<title>Node25&#45;&gt;Node22</title>
<path fill="none" stroke="midnightblue" d="M405.49,-302.39C379.99,-290.7 342.41,-268.63 359.5,-246 399.14,-193.5 580.42,-157.54 689.2,-140.27"/>
<polygon fill="midnightblue" stroke="midnightblue" points="689.83,-143.71 699.17,-138.71 688.75,-136.8 689.83,-143.71"/>
</g>
<!-- Node25&#45;&gt;Node24 -->
<g id="edge54" class="edge">
<title>Node25&#45;&gt;Node24</title>
<path fill="none" stroke="midnightblue" d="M353.75,-305.04C280.52,-298.1 173.3,-285.1 136.5,-266 112.3,-253.44 91.74,-228.97 79.76,-212.42"/>
<polygon fill="midnightblue" stroke="midnightblue" points="82.6,-210.38 74.01,-204.17 76.86,-214.38 82.6,-210.38"/>
</g>
<!-- Node26 -->
<g id="node26" class="node">
<title>Node26</title>
<g id="a_node26"><a xlink:href="zwave__rx__definitions_8h.html" target="_top" xlink:title=" ">
<polygon fill="none" stroke="black" points="368.5,-246.5 368.5,-265.5 484.5,-265.5 484.5,-246.5 368.5,-246.5"/>
<text text-anchor="middle" x="426.5" y="-253.5" font-family="Helvetica,sans-Serif" font-size="10.00">zwave_rx_definitions.h</text>
</a>
</g>
</g>
<!-- Node25&#45;&gt;Node26 -->
<g id="edge51" class="edge">
<title>Node25&#45;&gt;Node26</title>
<path fill="none" stroke="midnightblue" d="M426.5,-302.08C426.5,-295.01 426.5,-284.86 426.5,-275.99"/>
<polygon fill="midnightblue" stroke="midnightblue" points="430,-275.75 426.5,-265.75 423,-275.75 430,-275.75"/>
</g>
<!-- Node26&#45;&gt;Node6 -->
<g id="edge52" class="edge">
<title>Node26&#45;&gt;Node6</title>
<path fill="none" stroke="midnightblue" d="M474.93,-246.48C529.07,-236.94 617.68,-221.35 682.64,-209.91"/>
<polygon fill="midnightblue" stroke="midnightblue" points="683.61,-213.29 692.85,-208.11 682.39,-206.4 683.61,-213.29"/>
</g>
<!-- Node28&#45;&gt;Node5 -->
<g id="edge63" class="edge">
<title>Node28&#45;&gt;Node5</title>
<path fill="none" stroke="midnightblue" d="M787.82,-430.88C811.44,-415.68 862.35,-383.33 906.5,-358 964.21,-324.89 1033.57,-288.97 1070.45,-270.17"/>
<polygon fill="midnightblue" stroke="midnightblue" points="1072.2,-273.21 1079.53,-265.56 1069.03,-266.97 1072.2,-273.21"/>
</g>
<!-- Node28&#45;&gt;Node20 -->
<g id="edge62" class="edge">
<title>Node28&#45;&gt;Node20</title>
<path fill="none" stroke="midnightblue" d="M764.12,-430.73C751.65,-420.21 730.53,-402.38 715.41,-389.62"/>
<polygon fill="midnightblue" stroke="midnightblue" points="717.62,-386.9 707.72,-383.13 713.1,-392.25 717.62,-386.9"/>
</g>
<!-- Node28&#45;&gt;Node23 -->
<g id="edge61" class="edge">
<title>Node28&#45;&gt;Node23</title>
<path fill="none" stroke="midnightblue" d="M719.71,-430.96C635.81,-416.48 471.85,-382.61 344.5,-322 314.88,-307.9 283.72,-286.13 264.45,-271.72"/>
<polygon fill="midnightblue" stroke="midnightblue" points="266.56,-268.93 256.48,-265.67 262.33,-274.51 266.56,-268.93"/>
</g>
<!-- Node28&#45;&gt;Node25 -->
<g id="edge60" class="edge">
<title>Node28&#45;&gt;Node25</title>
<path fill="none" stroke="midnightblue" d="M750.85,-430.9C690.34,-408.91 529.74,-350.53 459.81,-325.11"/>
<polygon fill="midnightblue" stroke="midnightblue" points="460.77,-321.73 450.18,-321.61 458.38,-328.31 460.77,-321.73"/>
</g>
<!-- Node28&#45;&gt;Node29 -->
<g id="edge64" class="edge">
<title>Node28&#45;&gt;Node29</title>
<path fill="none" stroke="midnightblue" d="M796.96,-430.94C874.51,-401.4 1131.21,-303.59 1221.64,-269.14"/>
<polygon fill="midnightblue" stroke="midnightblue" points="1222.99,-272.37 1231.09,-265.54 1220.5,-265.83 1222.99,-272.37"/>
</g>
<!-- Node29&#45;&gt;Node3 -->
<g id="edge67" class="edge">
<title>Node29&#45;&gt;Node3</title>
<path fill="none" stroke="midnightblue" d="M1297.82,-246.44C1319.72,-239.99 1344.75,-228.88 1360.5,-210 1375.19,-192.39 1378.59,-165.41 1379.05,-147.37"/>
<polygon fill="midnightblue" stroke="midnightblue" points="1382.55,-147.22 1379.03,-137.23 1375.55,-147.24 1382.55,-147.22"/>
</g>
<!-- Node29&#45;&gt;Node4 -->
<g id="edge65" class="edge">
<title>Node29&#45;&gt;Node4</title>
<path fill="none" stroke="midnightblue" d="M1233.84,-246.38C1217.16,-238.46 1193.21,-225.61 1175.5,-210 1111.27,-153.38 1056.3,-65.73 1034.51,-28.59"/>
<polygon fill="midnightblue" stroke="midnightblue" points="1037.3,-26.42 1029.26,-19.52 1031.24,-29.93 1037.3,-26.42"/>
</g>
<!-- Node29&#45;&gt;Node8 -->
<g id="edge66" class="edge">
<title>Node29&#45;&gt;Node8</title>
<path fill="none" stroke="midnightblue" d="M1320.56,-247.27C1425.03,-235.15 1615.06,-212.77 1617.5,-210 1669.34,-151.36 1576.27,-61.66 1534.38,-26.19"/>
<polygon fill="midnightblue" stroke="midnightblue" points="1536.44,-23.36 1526.51,-19.66 1531.97,-28.74 1536.44,-23.36"/>
</g>
<!-- Node29&#45;&gt;Node12 -->
<g id="edge68" class="edge">
<title>Node29&#45;&gt;Node12</title>
<path fill="none" stroke="midnightblue" d="M1253.21,-246.48C1252.93,-238.08 1252.49,-224.98 1252.13,-214.16"/>
<polygon fill="midnightblue" stroke="midnightblue" points="1255.62,-213.89 1251.79,-204.01 1248.62,-214.12 1255.62,-213.89"/>
</g>
<!-- Node30&#45;&gt;Node3 -->
<g id="edge70" class="edge">
<title>Node30&#45;&gt;Node3</title>
<path fill="none" stroke="midnightblue" d="M1437.68,-363.71C1444.09,-354.02 1453.69,-337.72 1457.5,-322 1461.35,-306.09 1455.88,-262.97 1452.5,-246 1446.41,-215.39 1447.99,-205.5 1431.5,-179 1422.94,-165.24 1409.76,-152.66 1398.68,-143.5"/>
<polygon fill="midnightblue" stroke="midnightblue" points="1400.75,-140.67 1390.74,-137.19 1396.4,-146.15 1400.75,-140.67"/>
</g>
<!-- Node31&#45;&gt;Node3 -->
<g id="edge73" class="edge">
<title>Node31&#45;&gt;Node3</title>
<path fill="none" stroke="midnightblue" d="M1117.16,-184.94C1173.78,-172.71 1277.38,-150.34 1335.69,-137.74"/>
<polygon fill="midnightblue" stroke="midnightblue" points="1336.65,-141.12 1345.68,-135.59 1335.17,-134.28 1336.65,-141.12"/>
</g>
<!-- Node31&#45;&gt;Node7 -->
<g id="edge74" class="edge">
<title>Node31&#45;&gt;Node7</title>
<path fill="none" stroke="midnightblue" d="M1067.79,-184.73C1056.24,-174.31 1036.75,-156.71 1022.64,-143.97"/>
<polygon fill="midnightblue" stroke="midnightblue" points="1024.82,-141.23 1015.06,-137.13 1020.13,-146.43 1024.82,-141.23"/>
</g>
</g>
</svg>
