<?xml version="1.0" encoding="UTF-8" standalone="no"?>
<!DOCTYPE svg PUBLIC "-//W3C//DTD SVG 1.1//EN"
 "http://www.w3.org/Graphics/SVG/1.1/DTD/svg11.dtd">
<!-- Generated by graphviz version 2.43.0 (0)
 -->
<!-- Title: create_aggregated_endpoints Pages: 1 -->
<svg width="962pt" height="61pt"
 viewBox="0.00 0.00 962.00 61.00" xmlns="http://www.w3.org/2000/svg" xmlns:xlink="http://www.w3.org/1999/xlink">
<g id="graph0" class="graph" transform="scale(1 1) rotate(0) translate(4 57)">
<title>create_aggregated_endpoints</title>
<!-- Node1 -->
<g id="node1" class="node">
<title>Node1</title>
<g id="a_node1"><a xlink:title="Creates aggregated endpoints for a Z&#45;Wave Node.">
<polygon fill="#bfbfbf" stroke="black" points="810,-17 810,-36 954,-36 954,-17 810,-17"/>
<text text-anchor="middle" x="882" y="-24" font-family="Helvetica,sans-Serif" font-size="10.00">create_aggregated_endpoints</text>
</a>
</g>
</g>
<!-- Node2 -->
<g id="node2" class="node">
<title>Node2</title>
<g id="a_node2"><a xlink:href="zwave__command__class__multi__channel_8c.html#ac53692def1299e29f1d962a4da4af295" target="_top" xlink:title="Counts in the attribute store if the number of individual endpoints attribute matches the current lis...">
<polygon fill="none" stroke="black" points="660,-11.5 660,-41.5 774,-41.5 774,-11.5 660,-11.5"/>
<text text-anchor="start" x="668" y="-29.5" font-family="Helvetica,sans-Serif" font-size="10.00">check_if_all_individual</text>
<text text-anchor="middle" x="717" y="-18.5" font-family="Helvetica,sans-Serif" font-size="10.00">_endpoints_are_found</text>
</a>
</g>
</g>
<!-- Node1&#45;&gt;Node2 -->
<g id="edge1" class="edge">
<title>Node1&#45;&gt;Node2</title>
<path fill="none" stroke="midnightblue" d="M799.8,-26.5C791.1,-26.5 782.4,-26.5 774.09,-26.5"/>
<polygon fill="midnightblue" stroke="midnightblue" points="799.98,-30 809.98,-26.5 799.98,-23 799.98,-30"/>
</g>
<!-- Node3 -->
<g id="node3" class="node">
<title>Node3</title>
<g id="a_node3"><a xlink:href="zwave__command__class__multi__channel_8c.html#ac31f5557f92c30177a3d9d97fb2f70ee" target="_top" xlink:title=" ">
<polygon fill="none" stroke="black" points="502,-0.5 502,-52.5 624,-52.5 624,-0.5 502,-0.5"/>
<text text-anchor="start" x="510" y="-40.5" font-family="Helvetica,sans-Serif" font-size="10.00">zwave_command_class</text>
<text text-anchor="start" x="510" y="-29.5" font-family="Helvetica,sans-Serif" font-size="10.00">_multi_channel_handle</text>
<text text-anchor="start" x="510" y="-18.5" font-family="Helvetica,sans-Serif" font-size="10.00">_endpoint_find_report</text>
<text text-anchor="middle" x="563" y="-7.5" font-family="Helvetica,sans-Serif" font-size="10.00">_command</text>
</a>
</g>
</g>
<!-- Node2&#45;&gt;Node3 -->
<g id="edge2" class="edge">
<title>Node2&#45;&gt;Node3</title>
<path fill="none" stroke="midnightblue" d="M649.57,-26.5C641.07,-26.5 632.41,-26.5 624.02,-26.5"/>
<polygon fill="midnightblue" stroke="midnightblue" points="649.83,-30 659.83,-26.5 649.83,-23 649.83,-30"/>
</g>
<!-- Node4 -->
<g id="node4" class="node">
<title>Node4</title>
<g id="a_node4"><a xlink:href="zwave__command__class__multi__channel_8c.html#a88ad4dc75b1c623b46ed20d5dc40fced" target="_top" xlink:title=" ">
<polygon fill="none" stroke="black" points="344,-6 344,-47 466,-47 466,-6 344,-6"/>
<text text-anchor="start" x="352" y="-35" font-family="Helvetica,sans-Serif" font-size="10.00">zwave_command_class</text>
<text text-anchor="start" x="352" y="-24" font-family="Helvetica,sans-Serif" font-size="10.00">_multi_channel_control</text>
<text text-anchor="middle" x="405" y="-13" font-family="Helvetica,sans-Serif" font-size="10.00">_handler</text>
</a>
</g>
</g>
<!-- Node3&#45;&gt;Node4 -->
<g id="edge3" class="edge">
<title>Node3&#45;&gt;Node4</title>
<path fill="none" stroke="midnightblue" d="M491.46,-26.5C483.01,-26.5 474.44,-26.5 466.15,-26.5"/>
<polygon fill="midnightblue" stroke="midnightblue" points="491.69,-30 501.69,-26.5 491.69,-23 491.69,-30"/>
</g>
<!-- Node5 -->
<g id="node5" class="node">
<title>Node5</title>
<g id="a_node5"><a xlink:href="group__multi__channel__command__class.html#ga6abc4c22f5e74b009f78dfe072511cc0" target="_top" xlink:title="Initialize the Multi Channel Command Class (handler) *.">
<polygon fill="none" stroke="black" points="186,-11.5 186,-41.5 308,-41.5 308,-11.5 186,-11.5"/>
<text text-anchor="start" x="194" y="-29.5" font-family="Helvetica,sans-Serif" font-size="10.00">zwave_command_class</text>
<text text-anchor="middle" x="247" y="-18.5" font-family="Helvetica,sans-Serif" font-size="10.00">_multi_channel_init</text>
</a>
</g>
</g>
<!-- Node4&#45;&gt;Node5 -->
<g id="edge4" class="edge">
<title>Node4&#45;&gt;Node5</title>
<path fill="none" stroke="midnightblue" d="M333.46,-26.5C325.01,-26.5 316.44,-26.5 308.15,-26.5"/>
<polygon fill="midnightblue" stroke="midnightblue" points="333.69,-30 343.69,-26.5 333.69,-23 333.69,-30"/>
</g>
<!-- Node6 -->
<g id="node6" class="node">
<title>Node6</title>
<g id="a_node6"><a xlink:href="group__command__classes__fixt.html#ga5272651939ced1723158340039e8da19" target="_top" xlink:title="Setup fixture for Z&#45;Wave Command Classes.">
<polygon fill="none" stroke="black" points="0,-17 0,-36 150,-36 150,-17 0,-17"/>
<text text-anchor="middle" x="75" y="-24" font-family="Helvetica,sans-Serif" font-size="10.00">zwave_command_classes_init</text>
</a>
</g>
</g>
<!-- Node5&#45;&gt;Node6 -->
<g id="edge5" class="edge">
<title>Node5&#45;&gt;Node6</title>
<path fill="none" stroke="midnightblue" d="M175.51,-26.5C167.16,-26.5 158.61,-26.5 150.21,-26.5"/>
<polygon fill="midnightblue" stroke="midnightblue" points="175.59,-30 185.59,-26.5 175.59,-23 175.59,-30"/>
</g>
</g>
</svg>
