<?xml version="1.0" encoding="UTF-8" standalone="no"?>
<!DOCTYPE svg PUBLIC "-//W3C//DTD SVG 1.1//EN"
 "http://www.w3.org/Graphics/SVG/1.1/DTD/svg11.dtd">
<!-- Generated by graphviz version 2.43.0 (0)
 -->
<!-- Title: is_humidity_control_mode_supported Pages: 1 -->
<svg width="806pt" height="100pt"
 viewBox="0.00 0.00 806.00 99.50" xmlns="http://www.w3.org/2000/svg" xmlns:xlink="http://www.w3.org/1999/xlink">
<g id="graph0" class="graph" transform="scale(1 1) rotate(0) translate(4 95.5)">
<title>is_humidity_control_mode_supported</title>
<!-- Node1 -->
<g id="node1" class="node">
<title>Node1</title>
<g id="a_node1"><a xlink:title=" ">
<polygon fill="#bfbfbf" stroke="black" points="697,-27.5 697,-57.5 798,-57.5 798,-27.5 697,-27.5"/>
<text text-anchor="start" x="705" y="-45.5" font-family="Helvetica,sans-Serif" font-size="10.00">is_humidity_control</text>
<text text-anchor="middle" x="747.5" y="-34.5" font-family="Helvetica,sans-Serif" font-size="10.00">_mode_supported</text>
</a>
</g>
</g>
<!-- Node2 -->
<g id="node2" class="node">
<title>Node2</title>
<g id="a_node2"><a xlink:href="zwave__command__class__humidity__control__mode_8c.html#a4686c2712a99c1d7535b732689ba2d60" target="_top" xlink:title=" ">
<polygon fill="none" stroke="black" points="539,-48 539,-89 661,-89 661,-48 539,-48"/>
<text text-anchor="start" x="547" y="-77" font-family="Helvetica,sans-Serif" font-size="10.00">zwave_command_class</text>
<text text-anchor="start" x="547" y="-66" font-family="Helvetica,sans-Serif" font-size="10.00">_humidity_control_mode</text>
<text text-anchor="middle" x="600" y="-55" font-family="Helvetica,sans-Serif" font-size="10.00">_handle_report</text>
</a>
</g>
</g>
<!-- Node1&#45;&gt;Node2 -->
<g id="edge1" class="edge">
<title>Node1&#45;&gt;Node2</title>
<path fill="none" stroke="midnightblue" d="M686.93,-53.14C678.38,-54.67 669.57,-56.25 661,-57.78"/>
<polygon fill="midnightblue" stroke="midnightblue" points="687.61,-56.58 696.83,-51.38 686.37,-49.69 687.61,-56.58"/>
</g>
<!-- Node6 -->
<g id="node6" class="node">
<title>Node6</title>
<g id="a_node6"><a xlink:href="zwave__command__class__humidity__control__mode_8c.html#a90a64957ff4cf0d25fdde5e30b371ea8" target="_top" xlink:title=" ">
<polygon fill="none" stroke="black" points="362,-0.5 362,-30.5 503,-30.5 503,-0.5 362,-0.5"/>
<text text-anchor="start" x="370" y="-18.5" font-family="Helvetica,sans-Serif" font-size="10.00">zwave_command_class</text>
<text text-anchor="middle" x="432.5" y="-7.5" font-family="Helvetica,sans-Serif" font-size="10.00">_humidity_control_mode_set</text>
</a>
</g>
</g>
<!-- Node1&#45;&gt;Node6 -->
<g id="edge5" class="edge">
<title>Node1&#45;&gt;Node6</title>
<path fill="none" stroke="midnightblue" d="M686.77,-37.35C634.43,-32.83 558.34,-26.27 503.23,-21.52"/>
<polygon fill="midnightblue" stroke="midnightblue" points="686.64,-40.85 696.9,-38.22 687.24,-33.88 686.64,-40.85"/>
</g>
<!-- Node3 -->
<g id="node3" class="node">
<title>Node3</title>
<g id="a_node3"><a xlink:href="zwave__command__class__humidity__control__mode_8c.html#abff21e05c1a840abc87b7d28eb7caad7" target="_top" xlink:title=" ">
<polygon fill="none" stroke="black" points="371.5,-50 371.5,-91 493.5,-91 493.5,-50 371.5,-50"/>
<text text-anchor="start" x="379.5" y="-79" font-family="Helvetica,sans-Serif" font-size="10.00">zwave_command_class</text>
<text text-anchor="start" x="379.5" y="-68" font-family="Helvetica,sans-Serif" font-size="10.00">_humidity_control_mode</text>
<text text-anchor="middle" x="432.5" y="-57" font-family="Helvetica,sans-Serif" font-size="10.00">_control_handler</text>
</a>
</g>
</g>
<!-- Node2&#45;&gt;Node3 -->
<g id="edge2" class="edge">
<title>Node2&#45;&gt;Node3</title>
<path fill="none" stroke="midnightblue" d="M528.66,-69.35C517.02,-69.49 505.04,-69.64 493.67,-69.77"/>
<polygon fill="midnightblue" stroke="midnightblue" points="528.83,-72.85 538.78,-69.23 528.74,-65.85 528.83,-72.85"/>
</g>
<!-- Node4 -->
<g id="node4" class="node">
<title>Node4</title>
<g id="a_node4"><a xlink:href="group__zwave__command__class__humidity__control__mode.html#ga4defd78d724f1338489c14c68b22ef54" target="_top" xlink:title=" ">
<polygon fill="none" stroke="black" points="186,-27.5 186,-57.5 326,-57.5 326,-27.5 186,-27.5"/>
<text text-anchor="start" x="194" y="-45.5" font-family="Helvetica,sans-Serif" font-size="10.00">zwave_command_class</text>
<text text-anchor="middle" x="256" y="-34.5" font-family="Helvetica,sans-Serif" font-size="10.00">_humidity_control_mode_init</text>
</a>
</g>
</g>
<!-- Node3&#45;&gt;Node4 -->
<g id="edge3" class="edge">
<title>Node3&#45;&gt;Node4</title>
<path fill="none" stroke="midnightblue" d="M361.38,-59.25C349.77,-57.39 337.74,-55.46 326.16,-53.6"/>
<polygon fill="midnightblue" stroke="midnightblue" points="361.02,-62.74 371.45,-60.86 362.13,-55.82 361.02,-62.74"/>
</g>
<!-- Node5 -->
<g id="node5" class="node">
<title>Node5</title>
<g id="a_node5"><a xlink:href="group__command__classes__fixt.html#ga5272651939ced1723158340039e8da19" target="_top" xlink:title="Setup fixture for Z&#45;Wave Command Classes.">
<polygon fill="none" stroke="black" points="0,-33 0,-52 150,-52 150,-33 0,-33"/>
<text text-anchor="middle" x="75" y="-40" font-family="Helvetica,sans-Serif" font-size="10.00">zwave_command_classes_init</text>
</a>
</g>
</g>
<!-- Node4&#45;&gt;Node5 -->
<g id="edge4" class="edge">
<title>Node4&#45;&gt;Node5</title>
<path fill="none" stroke="midnightblue" d="M175.54,-42.5C167.07,-42.5 158.47,-42.5 150.06,-42.5"/>
<polygon fill="midnightblue" stroke="midnightblue" points="175.79,-46 185.79,-42.5 175.79,-39 175.79,-46"/>
</g>
<!-- Node6&#45;&gt;Node4 -->
<g id="edge6" class="edge">
<title>Node6&#45;&gt;Node4</title>
<path fill="none" stroke="midnightblue" d="M351.76,-27.84C343.17,-29.17 334.49,-30.51 326.04,-31.82"/>
<polygon fill="midnightblue" stroke="midnightblue" points="352.43,-31.28 361.78,-26.29 351.36,-24.36 352.43,-31.28"/>
</g>
</g>
</svg>
