<?xml version="1.0" encoding="UTF-8" standalone="no"?>
<!DOCTYPE svg PUBLIC "-//W3C//DTD SVG 1.1//EN"
 "http://www.w3.org/Graphics/SVG/1.1/DTD/svg11.dtd">
<!-- Generated by graphviz version 2.43.0 (0)
 -->
<!-- Title: keystore_network_key_clear Pages: 1 -->
<svg width="538pt" height="79pt"
 viewBox="0.00 0.00 538.00 79.00" xmlns="http://www.w3.org/2000/svg" xmlns:xlink="http://www.w3.org/1999/xlink">
<g id="graph0" class="graph" transform="scale(1 1) rotate(0) translate(4 75)">
<title>keystore_network_key_clear</title>
<!-- Node1 -->
<g id="node1" class="node">
<title>Node1</title>
<g id="a_node1"><a xlink:title=" ">
<polygon fill="#bfbfbf" stroke="black" points="0,-22.5 0,-52.5 115,-52.5 115,-22.5 0,-22.5"/>
<text text-anchor="start" x="8" y="-40.5" font-family="Helvetica,sans-Serif" font-size="10.00">keystore_network_key</text>
<text text-anchor="middle" x="57.5" y="-29.5" font-family="Helvetica,sans-Serif" font-size="10.00">_clear</text>
</a>
</g>
</g>
<!-- Node1&#45;&gt;Node1 -->
<g id="edge1" class="edge">
<title>Node1&#45;&gt;Node1</title>
<path fill="none" stroke="midnightblue" d="M31.36,-52.66C25.06,-62.06 33.77,-71 57.5,-71 71.96,-71 80.85,-67.68 84.15,-62.96"/>
<polygon fill="midnightblue" stroke="midnightblue" points="87.63,-62.47 83.64,-52.66 80.64,-62.82 87.63,-62.47"/>
</g>
<!-- Node2 -->
<g id="node2" class="node">
<title>Node2</title>
<g id="a_node2"><a xlink:href="zwave__s2__keystore_8c.html#a31a90d54793018a56888b3d269bb62cc" target="_top" xlink:title=" ">
<polygon fill="none" stroke="black" points="151,-22.5 151,-52.5 266,-52.5 266,-22.5 151,-22.5"/>
<text text-anchor="start" x="159" y="-40.5" font-family="Helvetica,sans-Serif" font-size="10.00">keystore_network_key</text>
<text text-anchor="middle" x="208.5" y="-29.5" font-family="Helvetica,sans-Serif" font-size="10.00">_write</text>
</a>
</g>
</g>
<!-- Node1&#45;&gt;Node2 -->
<g id="edge2" class="edge">
<title>Node1&#45;&gt;Node2</title>
<path fill="none" stroke="midnightblue" d="M115.26,-37.5C123.56,-37.5 132.17,-37.5 140.65,-37.5"/>
<polygon fill="midnightblue" stroke="midnightblue" points="140.9,-41 150.9,-37.5 140.9,-34 140.9,-41"/>
</g>
<!-- Node3 -->
<g id="node3" class="node">
<title>Node3</title>
<g id="a_node3"><a xlink:href="group__zwave__s0__transport.html#ga0751a5b8e725df3e789789230b886395" target="_top" xlink:title="Set the S0 network key.">
<polygon fill="none" stroke="black" points="329.5,-50 329.5,-69 396.5,-69 396.5,-50 329.5,-50"/>
<text text-anchor="middle" x="363" y="-57" font-family="Helvetica,sans-Serif" font-size="10.00">s0_set_key</text>
</a>
</g>
</g>
<!-- Node2&#45;&gt;Node3 -->
<g id="edge3" class="edge">
<title>Node2&#45;&gt;Node3</title>
<path fill="none" stroke="midnightblue" d="M266.29,-45.69C283.65,-48.2 302.46,-50.91 318.77,-53.26"/>
<polygon fill="midnightblue" stroke="midnightblue" points="318.69,-56.79 329.09,-54.75 319.69,-49.86 318.69,-56.79"/>
</g>
<!-- Node5 -->
<g id="node5" class="node">
<title>Node5</title>
<g id="a_node5"><a xlink:href="group__zwave__s2__keystore.html#ga42cbe7b3856c32fcde78b52c3b0be2ae" target="_top" xlink:title="Get the set of the currently assigned keys.">
<polygon fill="none" stroke="black" points="302,-0.5 302,-30.5 424,-30.5 424,-0.5 302,-0.5"/>
<text text-anchor="start" x="310" y="-18.5" font-family="Helvetica,sans-Serif" font-size="10.00">zwave_s2_keystore_get</text>
<text text-anchor="middle" x="363" y="-7.5" font-family="Helvetica,sans-Serif" font-size="10.00">_assigned_keys</text>
</a>
</g>
</g>
<!-- Node2&#45;&gt;Node5 -->
<g id="edge5" class="edge">
<title>Node2&#45;&gt;Node5</title>
<path fill="none" stroke="midnightblue" d="M266.29,-29.31C274.62,-28.11 283.3,-26.85 291.86,-25.62"/>
<polygon fill="midnightblue" stroke="midnightblue" points="292.45,-29.07 301.85,-24.18 291.45,-22.14 292.45,-29.07"/>
</g>
<!-- Node4 -->
<g id="node4" class="node">
<title>Node4</title>
<g id="a_node4"><a xlink:href="zwave__s0__transport_8c.html#a81a1edfa8dd156b07bbe49d8c85095bf" target="_top" xlink:title=" ">
<polygon fill="none" stroke="black" points="460,-50 460,-69 530,-69 530,-50 460,-50"/>
<text text-anchor="middle" x="495" y="-57" font-family="Helvetica,sans-Serif" font-size="10.00">aes_encrypt</text>
</a>
</g>
</g>
<!-- Node3&#45;&gt;Node4 -->
<g id="edge4" class="edge">
<title>Node3&#45;&gt;Node4</title>
<path fill="none" stroke="midnightblue" d="M396.8,-59.5C412.75,-59.5 432.16,-59.5 449.42,-59.5"/>
<polygon fill="midnightblue" stroke="midnightblue" points="449.84,-63 459.84,-59.5 449.84,-56 449.84,-63"/>
</g>
</g>
</svg>
