<?xml version="1.0" encoding="UTF-8" standalone="no"?>
<!DOCTYPE svg PUBLIC "-//W3C//DTD SVG 1.1//EN"
 "http://www.w3.org/Graphics/SVG/1.1/DTD/svg11.dtd">
<!-- Generated by graphviz version 2.43.0 (0)
 -->
<!-- Title: applications/zpc/components/zwave/zwave_tx_groups/include/zwave_tx_groups.h Pages: 1 -->
<svg width="869pt" height="139pt"
 viewBox="0.00 0.00 868.50 139.00" xmlns="http://www.w3.org/2000/svg" xmlns:xlink="http://www.w3.org/1999/xlink">
<g id="graph0" class="graph" transform="scale(1 1) rotate(0) translate(4 135)">
<title>applications/zpc/components/zwave/zwave_tx_groups/include/zwave_tx_groups.h</title>
<!-- Node1 -->
<g id="node1" class="node">
<title>Node1</title>
<g id="a_node1"><a xlink:title=" ">
<polygon fill="#bfbfbf" stroke="black" points="354.5,-89.5 354.5,-130.5 515.5,-130.5 515.5,-89.5 354.5,-89.5"/>
<text text-anchor="start" x="362.5" y="-118.5" font-family="Helvetica,sans-Serif" font-size="10.00">applications/zpc/components</text>
<text text-anchor="start" x="362.5" y="-107.5" font-family="Helvetica,sans-Serif" font-size="10.00">/zwave/zwave_tx_groups/include</text>
<text text-anchor="middle" x="435" y="-96.5" font-family="Helvetica,sans-Serif" font-size="10.00">/zwave_tx_groups.h</text>
</a>
</g>
</g>
<!-- Node2 -->
<g id="node2" class="node">
<title>Node2</title>
<g id="a_node2"><a xlink:href="network__monitor__span__persistence_8c.html" target="_top" xlink:title=" ">
<polygon fill="none" stroke="black" points="0,-6 0,-47 146,-47 146,-6 0,-6"/>
<text text-anchor="start" x="8" y="-35" font-family="Helvetica,sans-Serif" font-size="10.00">applications/zpc/components</text>
<text text-anchor="start" x="8" y="-24" font-family="Helvetica,sans-Serif" font-size="10.00">/network_monitor/src/network</text>
<text text-anchor="middle" x="73" y="-13" font-family="Helvetica,sans-Serif" font-size="10.00">_monitor_span_persistence.c</text>
</a>
</g>
</g>
<!-- Node1&#45;&gt;Node2 -->
<g id="edge1" class="edge">
<title>Node1&#45;&gt;Node2</title>
<path fill="none" stroke="midnightblue" d="M344.16,-93.31C289.1,-83.19 217.64,-68.96 155,-53 147.92,-51.2 140.55,-49.15 133.25,-47.02"/>
<polygon fill="midnightblue" stroke="midnightblue" points="343.77,-96.8 354.24,-95.15 345.03,-89.91 343.77,-96.8"/>
</g>
<!-- Node3 -->
<g id="node3" class="node">
<title>Node3</title>
<g id="a_node3"><a xlink:href="multicast__follow__ups__transport_8c.html" target="_top" xlink:title=" ">
<polygon fill="none" stroke="black" points="164.5,-0.5 164.5,-52.5 343.5,-52.5 343.5,-0.5 164.5,-0.5"/>
<text text-anchor="start" x="172.5" y="-40.5" font-family="Helvetica,sans-Serif" font-size="10.00">applications/zpc/components</text>
<text text-anchor="start" x="172.5" y="-29.5" font-family="Helvetica,sans-Serif" font-size="10.00">/zwave/zwave_transports</text>
<text text-anchor="start" x="172.5" y="-18.5" font-family="Helvetica,sans-Serif" font-size="10.00">/multicast_follow_ups_transport</text>
<text text-anchor="middle" x="254" y="-7.5" font-family="Helvetica,sans-Serif" font-size="10.00">/src/multicast_follow_ups_transport.c</text>
</a>
</g>
</g>
<!-- Node1&#45;&gt;Node3 -->
<g id="edge2" class="edge">
<title>Node1&#45;&gt;Node3</title>
<path fill="none" stroke="midnightblue" d="M382.45,-85.34C359.63,-75.06 332.86,-63.01 309.69,-52.58"/>
<polygon fill="midnightblue" stroke="midnightblue" points="381.09,-88.56 391.65,-89.48 383.96,-82.18 381.09,-88.56"/>
</g>
<!-- Node4 -->
<g id="node4" class="node">
<title>Node4</title>
<g id="a_node4"><a xlink:href="zwave__s2__transport_8c.html" target="_top" xlink:title=" ">
<polygon fill="none" stroke="black" points="362,-6 362,-47 508,-47 508,-6 362,-6"/>
<text text-anchor="start" x="370" y="-35" font-family="Helvetica,sans-Serif" font-size="10.00">applications/zpc/components</text>
<text text-anchor="start" x="370" y="-24" font-family="Helvetica,sans-Serif" font-size="10.00">/zwave/zwave_transports</text>
<text text-anchor="middle" x="435" y="-13" font-family="Helvetica,sans-Serif" font-size="10.00">/s2/src/zwave_s2_transport.c</text>
</a>
</g>
</g>
<!-- Node1&#45;&gt;Node4 -->
<g id="edge3" class="edge">
<title>Node1&#45;&gt;Node4</title>
<path fill="none" stroke="midnightblue" d="M435,-79.06C435,-68.38 435,-56.63 435,-47.05"/>
<polygon fill="midnightblue" stroke="midnightblue" points="431.5,-79.27 435,-89.27 438.5,-79.27 431.5,-79.27"/>
</g>
<!-- Node5 -->
<g id="node5" class="node">
<title>Node5</title>
<g id="a_node5"><a xlink:href="zwave__api__transport_8c.html" target="_top" xlink:title=" ">
<polygon fill="none" stroke="black" points="526.5,-0.5 526.5,-52.5 669.5,-52.5 669.5,-0.5 526.5,-0.5"/>
<text text-anchor="start" x="534.5" y="-40.5" font-family="Helvetica,sans-Serif" font-size="10.00">applications/zpc/components</text>
<text text-anchor="start" x="534.5" y="-29.5" font-family="Helvetica,sans-Serif" font-size="10.00">/zwave/zwave_transports</text>
<text text-anchor="start" x="534.5" y="-18.5" font-family="Helvetica,sans-Serif" font-size="10.00">/zwave_api_transport/src</text>
<text text-anchor="middle" x="598" y="-7.5" font-family="Helvetica,sans-Serif" font-size="10.00">/zwave_api_transport.c</text>
</a>
</g>
</g>
<!-- Node1&#45;&gt;Node5 -->
<g id="edge4" class="edge">
<title>Node1&#45;&gt;Node5</title>
<path fill="none" stroke="midnightblue" d="M483.14,-84.93C503.52,-74.74 527.26,-62.87 547.85,-52.58"/>
<polygon fill="midnightblue" stroke="midnightblue" points="481.42,-81.88 474.04,-89.48 484.55,-88.14 481.42,-81.88"/>
</g>
<!-- Node6 -->
<g id="node6" class="node">
<title>Node6</title>
<g id="a_node6"><a xlink:href="zwave__tx__scheme__selector_8c.html" target="_top" xlink:title=" ">
<polygon fill="none" stroke="black" points="687.5,-6 687.5,-47 860.5,-47 860.5,-6 687.5,-6"/>
<text text-anchor="start" x="695.5" y="-35" font-family="Helvetica,sans-Serif" font-size="10.00">applications/zpc/components</text>
<text text-anchor="start" x="695.5" y="-24" font-family="Helvetica,sans-Serif" font-size="10.00">/zwave/zwave_tx_scheme_selector</text>
<text text-anchor="middle" x="774" y="-13" font-family="Helvetica,sans-Serif" font-size="10.00">/src/zwave_tx_scheme_selector.c</text>
</a>
</g>
</g>
<!-- Node1&#45;&gt;Node6 -->
<g id="edge5" class="edge">
<title>Node1&#45;&gt;Node6</title>
<path fill="none" stroke="midnightblue" d="M525.63,-89.03C571.66,-78.68 628.41,-65.59 679,-53 686.54,-51.12 694.4,-49.11 702.23,-47.06"/>
<polygon fill="midnightblue" stroke="midnightblue" points="524.67,-85.66 515.68,-91.26 526.2,-92.49 524.67,-85.66"/>
</g>
</g>
</svg>
