<?xml version="1.0" encoding="UTF-8" standalone="no"?>
<!DOCTYPE svg PUBLIC "-//W3C//DTD SVG 1.1//EN"
 "http://www.w3.org/Graphics/SVG/1.1/DTD/svg11.dtd">
<!-- Generated by graphviz version 2.43.0 (0)
 -->
<!-- Title: zwave_command_class_humidity_control_setpoint_supported_handle_report Pages: 1 -->
<svg width="973pt" height="154pt"
 viewBox="0.00 0.00 973.00 153.50" xmlns="http://www.w3.org/2000/svg" xmlns:xlink="http://www.w3.org/1999/xlink">
<g id="graph0" class="graph" transform="scale(1 1) rotate(0) translate(4 149.5)">
<title>zwave_command_class_humidity_control_setpoint_supported_handle_report</title>
<!-- Node1 -->
<g id="node1" class="node">
<title>Node1</title>
<g id="a_node1"><a xlink:title=" ">
<polygon fill="#bfbfbf" stroke="black" points="0,-60.5 0,-101.5 133,-101.5 133,-60.5 0,-60.5"/>
<text text-anchor="start" x="8" y="-89.5" font-family="Helvetica,sans-Serif" font-size="10.00">zwave_command_class</text>
<text text-anchor="start" x="8" y="-78.5" font-family="Helvetica,sans-Serif" font-size="10.00">_humidity_control_setpoint</text>
<text text-anchor="middle" x="66.5" y="-67.5" font-family="Helvetica,sans-Serif" font-size="10.00">_supported_handle_report</text>
</a>
</g>
</g>
<!-- Node2 -->
<g id="node2" class="node">
<title>Node2</title>
<g id="a_node2"><a xlink:href="zwave__command__class__humidity__control__setpoint_8c.html#a73c3b6669aceee0a35ac471469841d4b" target="_top" xlink:title=" ">
<polygon fill="none" stroke="black" points="171,-115 171,-145 293,-145 293,-115 171,-115"/>
<text text-anchor="start" x="179" y="-133" font-family="Helvetica,sans-Serif" font-size="10.00">create_all_supported</text>
<text text-anchor="middle" x="232" y="-122" font-family="Helvetica,sans-Serif" font-size="10.00">_humidity_setpoint_type</text>
</a>
</g>
</g>
<!-- Node1&#45;&gt;Node2 -->
<g id="edge1" class="edge">
<title>Node1&#45;&gt;Node2</title>
<path fill="none" stroke="midnightblue" d="M133.06,-100.65C145.61,-104.41 158.69,-108.33 171.05,-112.03"/>
<polygon fill="midnightblue" stroke="midnightblue" points="170.2,-115.43 180.78,-114.95 172.21,-108.73 170.2,-115.43"/>
</g>
<!-- Node4 -->
<g id="node4" class="node">
<title>Node4</title>
<g id="a_node4"><a xlink:href="zwave__command__class__humidity__control__setpoint_8c.html#aad3f468e506c98091e99feb3230e16ff" target="_top" xlink:title=" ">
<polygon fill="none" stroke="black" points="169,-66 169,-96 295,-96 295,-66 169,-66"/>
<text text-anchor="start" x="177" y="-84" font-family="Helvetica,sans-Serif" font-size="10.00">remove_all_humidity</text>
<text text-anchor="middle" x="232" y="-73" font-family="Helvetica,sans-Serif" font-size="10.00">_setpoint_type_attributes</text>
</a>
</g>
</g>
<!-- Node1&#45;&gt;Node4 -->
<g id="edge3" class="edge">
<title>Node1&#45;&gt;Node4</title>
<path fill="none" stroke="midnightblue" d="M133.06,-81C141.46,-81 150.1,-81 158.6,-81"/>
<polygon fill="midnightblue" stroke="midnightblue" points="158.88,-84.5 168.88,-81 158.88,-77.5 158.88,-84.5"/>
</g>
<!-- Node5 -->
<g id="node5" class="node">
<title>Node5</title>
<g id="a_node5"><a xlink:href="group__command__classes__utils.html#gaff12f5d1f5b9eed08201efab5854190c" target="_top" xlink:title="Find the Z&#45;Wave Endpoint ID Node attribute based on a const zwave_controller_connection_info_t object...">
<polygon fill="none" stroke="black" points="171,-17 171,-47 293,-47 293,-17 171,-17"/>
<text text-anchor="start" x="179" y="-35" font-family="Helvetica,sans-Serif" font-size="10.00">zwave_command_class</text>
<text text-anchor="middle" x="232" y="-24" font-family="Helvetica,sans-Serif" font-size="10.00">_get_endpoint_node</text>
</a>
</g>
</g>
<!-- Node1&#45;&gt;Node5 -->
<g id="edge4" class="edge">
<title>Node1&#45;&gt;Node5</title>
<path fill="none" stroke="midnightblue" d="M133.06,-61.35C145.61,-57.59 158.69,-53.67 171.05,-49.97"/>
<polygon fill="midnightblue" stroke="midnightblue" points="172.21,-53.27 180.78,-47.05 170.2,-46.57 172.21,-53.27"/>
</g>
<!-- Node3 -->
<g id="node3" class="node">
<title>Node3</title>
<g id="a_node3"><a xlink:href="zwave__command__class__humidity__control__setpoint_8c.html#a649c8282d2b6add197a8f077767921d2" target="_top" xlink:title=" ">
<polygon fill="none" stroke="black" points="336,-115 336,-145 461,-145 461,-115 336,-115"/>
<text text-anchor="start" x="344" y="-133" font-family="Helvetica,sans-Serif" font-size="10.00">create_humidity_setpoint</text>
<text text-anchor="middle" x="398.5" y="-122" font-family="Helvetica,sans-Serif" font-size="10.00">_type_node</text>
</a>
</g>
</g>
<!-- Node2&#45;&gt;Node3 -->
<g id="edge2" class="edge">
<title>Node2&#45;&gt;Node3</title>
<path fill="none" stroke="midnightblue" d="M293.32,-130C303.81,-130 314.82,-130 325.59,-130"/>
<polygon fill="midnightblue" stroke="midnightblue" points="325.81,-133.5 335.81,-130 325.81,-126.5 325.81,-133.5"/>
</g>
<!-- Node6 -->
<g id="node6" class="node">
<title>Node6</title>
<g id="a_node6"><a xlink:href="group__zpc__attribute__store__network__helpers.html#gae4d15b8e0c61c88d94c8f342bd2014fc" target="_top" xlink:title="Take a UNID/endpoint combination and returns its attribute store node.">
<polygon fill="none" stroke="black" points="331,-39 331,-69 466,-69 466,-39 331,-39"/>
<text text-anchor="start" x="339" y="-57" font-family="Helvetica,sans-Serif" font-size="10.00">attribute_store_network</text>
<text text-anchor="middle" x="398.5" y="-46" font-family="Helvetica,sans-Serif" font-size="10.00">_helper_get_endpoint_node</text>
</a>
</g>
</g>
<!-- Node5&#45;&gt;Node6 -->
<g id="edge5" class="edge">
<title>Node5&#45;&gt;Node6</title>
<path fill="none" stroke="midnightblue" d="M293.32,-40.07C302.28,-41.26 311.61,-42.51 320.84,-43.75"/>
<polygon fill="midnightblue" stroke="midnightblue" points="320.43,-47.22 330.8,-45.08 321.36,-40.29 320.43,-47.22"/>
</g>
<!-- Node11 -->
<g id="node11" class="node">
<title>Node11</title>
<g id="a_node11"><a xlink:href="group__zwave__unid.html#ga421deceb8a12916f049e4f3446774439" target="_top" xlink:title="Form a UNID.">
<polygon fill="none" stroke="black" points="332.5,-0.5 332.5,-19.5 464.5,-19.5 464.5,-0.5 332.5,-0.5"/>
<text text-anchor="middle" x="398.5" y="-7.5" font-family="Helvetica,sans-Serif" font-size="10.00">zwave_unid_from_node_id</text>
</a>
</g>
</g>
<!-- Node5&#45;&gt;Node11 -->
<g id="edge10" class="edge">
<title>Node5&#45;&gt;Node11</title>
<path fill="none" stroke="midnightblue" d="M293.32,-23.93C302.78,-22.67 312.66,-21.35 322.4,-20.04"/>
<polygon fill="midnightblue" stroke="midnightblue" points="323.03,-23.49 332.48,-18.7 322.1,-16.55 323.03,-23.49"/>
</g>
<!-- Node7 -->
<g id="node7" class="node">
<title>Node7</title>
<g id="a_node7"><a xlink:href="group__zpc__attribute__store__network__helpers.html#gafb993ff484b3c826743c4695d6659cf0" target="_top" xlink:title="Take a UNID and return its attribute store node representing the NodeID.">
<polygon fill="none" stroke="black" points="502,-39 502,-69 634,-69 634,-39 502,-39"/>
<text text-anchor="start" x="510" y="-57" font-family="Helvetica,sans-Serif" font-size="10.00">attribute_store_network</text>
<text text-anchor="middle" x="568" y="-46" font-family="Helvetica,sans-Serif" font-size="10.00">_helper_get_node_id_node</text>
</a>
</g>
</g>
<!-- Node6&#45;&gt;Node7 -->
<g id="edge6" class="edge">
<title>Node6&#45;&gt;Node7</title>
<path fill="none" stroke="midnightblue" d="M466.18,-54C474.55,-54 483.15,-54 491.64,-54"/>
<polygon fill="midnightblue" stroke="midnightblue" points="491.91,-57.5 501.91,-54 491.91,-50.5 491.91,-57.5"/>
</g>
<!-- Node8 -->
<g id="node8" class="node">
<title>Node8</title>
<g id="a_node8"><a xlink:href="group__zpc__attribute__store__network__helpers.html#ga05cb572c96f7dc8e6657f86e135fafed" target="_top" xlink:title="Take a UNID and return its attribute store node representing the HomeID.">
<polygon fill="none" stroke="black" points="670,-61 670,-91 805,-91 805,-61 670,-61"/>
<text text-anchor="start" x="678" y="-79" font-family="Helvetica,sans-Serif" font-size="10.00">attribute_store_network</text>
<text text-anchor="middle" x="737.5" y="-68" font-family="Helvetica,sans-Serif" font-size="10.00">_helper_get_home_id_node</text>
</a>
</g>
</g>
<!-- Node7&#45;&gt;Node8 -->
<g id="edge7" class="edge">
<title>Node7&#45;&gt;Node8</title>
<path fill="none" stroke="midnightblue" d="M634.24,-62.57C642.62,-63.67 651.27,-64.81 659.82,-65.93"/>
<polygon fill="midnightblue" stroke="midnightblue" points="659.41,-69.4 669.78,-67.24 660.32,-62.46 659.41,-69.4"/>
</g>
<!-- Node10 -->
<g id="node10" class="node">
<title>Node10</title>
<g id="a_node10"><a xlink:href="group__zwave__unid.html#ga76885767debd174e96e6df00b0a368c3" target="_top" xlink:title="Convert a UNID to a node ID.">
<polygon fill="none" stroke="black" points="677,-22.5 677,-41.5 798,-41.5 798,-22.5 677,-22.5"/>
<text text-anchor="middle" x="737.5" y="-29.5" font-family="Helvetica,sans-Serif" font-size="10.00">zwave_unid_to_node_id</text>
</a>
</g>
</g>
<!-- Node7&#45;&gt;Node10 -->
<g id="edge9" class="edge">
<title>Node7&#45;&gt;Node10</title>
<path fill="none" stroke="midnightblue" d="M634.24,-45.43C644.89,-44.03 655.96,-42.58 666.72,-41.17"/>
<polygon fill="midnightblue" stroke="midnightblue" points="667.45,-44.6 676.91,-39.83 666.54,-37.66 667.45,-44.6"/>
</g>
<!-- Node9 -->
<g id="node9" class="node">
<title>Node9</title>
<g id="a_node9"><a xlink:href="group__zwave__unid.html#ga92f9808a08c2ce1c0a6a9dc2debf3580" target="_top" xlink:title="Convert a UNID to a Home ID.">
<polygon fill="none" stroke="black" points="841,-66.5 841,-85.5 965,-85.5 965,-66.5 841,-66.5"/>
<text text-anchor="middle" x="903" y="-73.5" font-family="Helvetica,sans-Serif" font-size="10.00">zwave_unid_to_home_id</text>
</a>
</g>
</g>
<!-- Node8&#45;&gt;Node9 -->
<g id="edge8" class="edge">
<title>Node8&#45;&gt;Node9</title>
<path fill="none" stroke="midnightblue" d="M805,-76C813.42,-76 822.07,-76 830.57,-76"/>
<polygon fill="midnightblue" stroke="midnightblue" points="830.83,-79.5 840.83,-76 830.83,-72.5 830.83,-79.5"/>
</g>
</g>
</svg>
