<?xml version="1.0" encoding="UTF-8" standalone="no"?>
<!DOCTYPE svg PUBLIC "-//W3C//DTD SVG 1.1//EN"
 "http://www.w3.org/Graphics/SVG/1.1/DTD/svg11.dtd">
<!-- Generated by graphviz version 2.43.0 (0)
 -->
<!-- Title: zwave_command_class_sound_switch_control_handler Pages: 1 -->
<svg width="1116pt" height="230pt"
 viewBox="0.00 0.00 1116.00 230.00" xmlns="http://www.w3.org/2000/svg" xmlns:xlink="http://www.w3.org/1999/xlink">
<g id="graph0" class="graph" transform="scale(1 1) rotate(0) translate(4 226)">
<title>zwave_command_class_sound_switch_control_handler</title>
<!-- Node1 -->
<g id="node1" class="node">
<title>Node1</title>
<g id="a_node1"><a xlink:title=" ">
<polygon fill="#bfbfbf" stroke="black" points="0,-90.5 0,-131.5 122,-131.5 122,-90.5 0,-90.5"/>
<text text-anchor="start" x="8" y="-119.5" font-family="Helvetica,sans-Serif" font-size="10.00">zwave_command_class</text>
<text text-anchor="start" x="8" y="-108.5" font-family="Helvetica,sans-Serif" font-size="10.00">_sound_switch_control</text>
<text text-anchor="middle" x="61" y="-97.5" font-family="Helvetica,sans-Serif" font-size="10.00">_handler</text>
</a>
</g>
</g>
<!-- Node2 -->
<g id="node2" class="node">
<title>Node2</title>
<g id="a_node2"><a xlink:href="zwave__command__class__sound__switch_8c.html#ae4e624c1ca47b1030fa6ed3125e65c3f" target="_top" xlink:title=" ">
<polygon fill="none" stroke="black" points="158,-180.5 158,-221.5 280,-221.5 280,-180.5 158,-180.5"/>
<text text-anchor="start" x="166" y="-209.5" font-family="Helvetica,sans-Serif" font-size="10.00">zwave_command_class</text>
<text text-anchor="start" x="166" y="-198.5" font-family="Helvetica,sans-Serif" font-size="10.00">_sound_switch_handle</text>
<text text-anchor="middle" x="219" y="-187.5" font-family="Helvetica,sans-Serif" font-size="10.00">_configuration_report</text>
</a>
</g>
</g>
<!-- Node1&#45;&gt;Node2 -->
<g id="edge1" class="edge">
<title>Node1&#45;&gt;Node2</title>
<path fill="none" stroke="midnightblue" d="M93.54,-131.77C112.06,-143.69 136.06,-158.69 158,-171 160.71,-172.52 163.5,-174.04 166.33,-175.56"/>
<polygon fill="midnightblue" stroke="midnightblue" points="164.97,-178.8 175.45,-180.35 168.23,-172.6 164.97,-178.8"/>
</g>
<!-- Node10 -->
<g id="node10" class="node">
<title>Node10</title>
<g id="a_node10"><a xlink:href="zwave__command__class__sound__switch_8c.html#a9705171955f1437991ae8918083b0889" target="_top" xlink:title=" ">
<polygon fill="none" stroke="black" points="158,-120.5 158,-161.5 280,-161.5 280,-120.5 158,-120.5"/>
<text text-anchor="start" x="166" y="-149.5" font-family="Helvetica,sans-Serif" font-size="10.00">zwave_command_class</text>
<text text-anchor="start" x="166" y="-138.5" font-family="Helvetica,sans-Serif" font-size="10.00">_sound_switch_handle</text>
<text text-anchor="middle" x="219" y="-127.5" font-family="Helvetica,sans-Serif" font-size="10.00">_tone_info_report</text>
</a>
</g>
</g>
<!-- Node1&#45;&gt;Node10 -->
<g id="edge9" class="edge">
<title>Node1&#45;&gt;Node10</title>
<path fill="none" stroke="midnightblue" d="M122.31,-122.6C130.69,-124.21 139.36,-125.88 147.9,-127.52"/>
<polygon fill="midnightblue" stroke="midnightblue" points="147.37,-130.98 157.85,-129.43 148.69,-124.11 147.37,-130.98"/>
</g>
<!-- Node11 -->
<g id="node11" class="node">
<title>Node11</title>
<g id="a_node11"><a xlink:href="zwave__command__class__sound__switch_8c.html#a86987665981b0f53fb4527a80885d3df" target="_top" xlink:title=" ">
<polygon fill="none" stroke="black" points="158,-60.5 158,-101.5 280,-101.5 280,-60.5 158,-60.5"/>
<text text-anchor="start" x="166" y="-89.5" font-family="Helvetica,sans-Serif" font-size="10.00">zwave_command_class</text>
<text text-anchor="start" x="166" y="-78.5" font-family="Helvetica,sans-Serif" font-size="10.00">_sound_switch_handle</text>
<text text-anchor="middle" x="219" y="-67.5" font-family="Helvetica,sans-Serif" font-size="10.00">_tone_play_report</text>
</a>
</g>
</g>
<!-- Node1&#45;&gt;Node11 -->
<g id="edge11" class="edge">
<title>Node1&#45;&gt;Node11</title>
<path fill="none" stroke="midnightblue" d="M122.31,-99.4C130.69,-97.79 139.36,-96.12 147.9,-94.48"/>
<polygon fill="midnightblue" stroke="midnightblue" points="148.69,-97.89 157.85,-92.57 147.37,-91.02 148.69,-97.89"/>
</g>
<!-- Node12 -->
<g id="node12" class="node">
<title>Node12</title>
<g id="a_node12"><a xlink:href="zwave__command__class__sound__switch_8c.html#a2c93cfd990b04a4d959e9cafa5966231" target="_top" xlink:title=" ">
<polygon fill="none" stroke="black" points="158,-0.5 158,-41.5 280,-41.5 280,-0.5 158,-0.5"/>
<text text-anchor="start" x="166" y="-29.5" font-family="Helvetica,sans-Serif" font-size="10.00">zwave_command_class</text>
<text text-anchor="start" x="166" y="-18.5" font-family="Helvetica,sans-Serif" font-size="10.00">_sound_switch_handle</text>
<text text-anchor="middle" x="219" y="-7.5" font-family="Helvetica,sans-Serif" font-size="10.00">_tones_number_report</text>
</a>
</g>
</g>
<!-- Node1&#45;&gt;Node12 -->
<g id="edge13" class="edge">
<title>Node1&#45;&gt;Node12</title>
<path fill="none" stroke="midnightblue" d="M93.54,-90.23C112.06,-78.31 136.06,-63.31 158,-51 160.71,-49.48 163.5,-47.96 166.33,-46.44"/>
<polygon fill="midnightblue" stroke="midnightblue" points="168.23,-49.4 175.45,-41.65 164.97,-43.2 168.23,-49.4"/>
</g>
<!-- Node3 -->
<g id="node3" class="node">
<title>Node3</title>
<g id="a_node3"><a xlink:href="group__command__classes__utils.html#gaff12f5d1f5b9eed08201efab5854190c" target="_top" xlink:title="Find the Z&#45;Wave Endpoint ID Node attribute based on a const zwave_controller_connection_info_t object...">
<polygon fill="none" stroke="black" points="316,-96 316,-126 438,-126 438,-96 316,-96"/>
<text text-anchor="start" x="324" y="-114" font-family="Helvetica,sans-Serif" font-size="10.00">zwave_command_class</text>
<text text-anchor="middle" x="377" y="-103" font-family="Helvetica,sans-Serif" font-size="10.00">_get_endpoint_node</text>
</a>
</g>
</g>
<!-- Node2&#45;&gt;Node3 -->
<g id="edge2" class="edge">
<title>Node2&#45;&gt;Node3</title>
<path fill="none" stroke="midnightblue" d="M262.55,-180.35C268.46,-177.3 274.41,-174.13 280,-171 301.95,-158.69 325.96,-143.68 344.48,-131.76"/>
<polygon fill="midnightblue" stroke="midnightblue" points="346.6,-134.55 353.09,-126.18 342.8,-128.68 346.6,-134.55"/>
</g>
<!-- Node4 -->
<g id="node4" class="node">
<title>Node4</title>
<g id="a_node4"><a xlink:href="group__zpc__attribute__store__network__helpers.html#gae4d15b8e0c61c88d94c8f342bd2014fc" target="_top" xlink:title="Take a UNID/endpoint combination and returns its attribute store node.">
<polygon fill="none" stroke="black" points="474,-118 474,-148 609,-148 609,-118 474,-118"/>
<text text-anchor="start" x="482" y="-136" font-family="Helvetica,sans-Serif" font-size="10.00">attribute_store_network</text>
<text text-anchor="middle" x="541.5" y="-125" font-family="Helvetica,sans-Serif" font-size="10.00">_helper_get_endpoint_node</text>
</a>
</g>
</g>
<!-- Node3&#45;&gt;Node4 -->
<g id="edge3" class="edge">
<title>Node3&#45;&gt;Node4</title>
<path fill="none" stroke="midnightblue" d="M438.05,-119.13C446.43,-120.26 455.14,-121.44 463.77,-122.61"/>
<polygon fill="midnightblue" stroke="midnightblue" points="463.48,-126.1 473.86,-123.98 464.42,-119.17 463.48,-126.1"/>
</g>
<!-- Node9 -->
<g id="node9" class="node">
<title>Node9</title>
<g id="a_node9"><a xlink:href="group__zwave__unid.html#ga421deceb8a12916f049e4f3446774439" target="_top" xlink:title="Form a UNID.">
<polygon fill="none" stroke="black" points="475.5,-79.5 475.5,-98.5 607.5,-98.5 607.5,-79.5 475.5,-79.5"/>
<text text-anchor="middle" x="541.5" y="-86.5" font-family="Helvetica,sans-Serif" font-size="10.00">zwave_unid_from_node_id</text>
</a>
</g>
</g>
<!-- Node3&#45;&gt;Node9 -->
<g id="edge8" class="edge">
<title>Node3&#45;&gt;Node9</title>
<path fill="none" stroke="midnightblue" d="M438.05,-102.87C446.85,-101.68 456.01,-100.44 465.07,-99.21"/>
<polygon fill="midnightblue" stroke="midnightblue" points="465.8,-102.65 475.24,-97.84 464.86,-95.71 465.8,-102.65"/>
</g>
<!-- Node5 -->
<g id="node5" class="node">
<title>Node5</title>
<g id="a_node5"><a xlink:href="group__zpc__attribute__store__network__helpers.html#gafb993ff484b3c826743c4695d6659cf0" target="_top" xlink:title="Take a UNID and return its attribute store node representing the NodeID.">
<polygon fill="none" stroke="black" points="645,-118 645,-148 777,-148 777,-118 645,-118"/>
<text text-anchor="start" x="653" y="-136" font-family="Helvetica,sans-Serif" font-size="10.00">attribute_store_network</text>
<text text-anchor="middle" x="711" y="-125" font-family="Helvetica,sans-Serif" font-size="10.00">_helper_get_node_id_node</text>
</a>
</g>
</g>
<!-- Node4&#45;&gt;Node5 -->
<g id="edge4" class="edge">
<title>Node4&#45;&gt;Node5</title>
<path fill="none" stroke="midnightblue" d="M609.18,-133C617.55,-133 626.15,-133 634.64,-133"/>
<polygon fill="midnightblue" stroke="midnightblue" points="634.91,-136.5 644.91,-133 634.91,-129.5 634.91,-136.5"/>
</g>
<!-- Node6 -->
<g id="node6" class="node">
<title>Node6</title>
<g id="a_node6"><a xlink:href="group__zpc__attribute__store__network__helpers.html#ga05cb572c96f7dc8e6657f86e135fafed" target="_top" xlink:title="Take a UNID and return its attribute store node representing the HomeID.">
<polygon fill="none" stroke="black" points="813,-140 813,-170 948,-170 948,-140 813,-140"/>
<text text-anchor="start" x="821" y="-158" font-family="Helvetica,sans-Serif" font-size="10.00">attribute_store_network</text>
<text text-anchor="middle" x="880.5" y="-147" font-family="Helvetica,sans-Serif" font-size="10.00">_helper_get_home_id_node</text>
</a>
</g>
</g>
<!-- Node5&#45;&gt;Node6 -->
<g id="edge5" class="edge">
<title>Node5&#45;&gt;Node6</title>
<path fill="none" stroke="midnightblue" d="M777.24,-141.57C785.62,-142.67 794.27,-143.81 802.82,-144.93"/>
<polygon fill="midnightblue" stroke="midnightblue" points="802.41,-148.4 812.78,-146.24 803.32,-141.46 802.41,-148.4"/>
</g>
<!-- Node8 -->
<g id="node8" class="node">
<title>Node8</title>
<g id="a_node8"><a xlink:href="group__zwave__unid.html#ga76885767debd174e96e6df00b0a368c3" target="_top" xlink:title="Convert a UNID to a node ID.">
<polygon fill="none" stroke="black" points="820,-101.5 820,-120.5 941,-120.5 941,-101.5 820,-101.5"/>
<text text-anchor="middle" x="880.5" y="-108.5" font-family="Helvetica,sans-Serif" font-size="10.00">zwave_unid_to_node_id</text>
</a>
</g>
</g>
<!-- Node5&#45;&gt;Node8 -->
<g id="edge7" class="edge">
<title>Node5&#45;&gt;Node8</title>
<path fill="none" stroke="midnightblue" d="M777.24,-124.43C787.89,-123.03 798.96,-121.58 809.72,-120.17"/>
<polygon fill="midnightblue" stroke="midnightblue" points="810.45,-123.6 819.91,-118.83 809.54,-116.66 810.45,-123.6"/>
</g>
<!-- Node7 -->
<g id="node7" class="node">
<title>Node7</title>
<g id="a_node7"><a xlink:href="group__zwave__unid.html#ga92f9808a08c2ce1c0a6a9dc2debf3580" target="_top" xlink:title="Convert a UNID to a Home ID.">
<polygon fill="none" stroke="black" points="984,-145.5 984,-164.5 1108,-164.5 1108,-145.5 984,-145.5"/>
<text text-anchor="middle" x="1046" y="-152.5" font-family="Helvetica,sans-Serif" font-size="10.00">zwave_unid_to_home_id</text>
</a>
</g>
</g>
<!-- Node6&#45;&gt;Node7 -->
<g id="edge6" class="edge">
<title>Node6&#45;&gt;Node7</title>
<path fill="none" stroke="midnightblue" d="M948,-155C956.42,-155 965.07,-155 973.57,-155"/>
<polygon fill="midnightblue" stroke="midnightblue" points="973.83,-158.5 983.83,-155 973.83,-151.5 973.83,-158.5"/>
</g>
<!-- Node10&#45;&gt;Node3 -->
<g id="edge10" class="edge">
<title>Node10&#45;&gt;Node3</title>
<path fill="none" stroke="midnightblue" d="M280.31,-129.4C288.69,-127.79 297.36,-126.12 305.9,-124.48"/>
<polygon fill="midnightblue" stroke="midnightblue" points="306.69,-127.89 315.85,-122.57 305.37,-121.02 306.69,-127.89"/>
</g>
<!-- Node11&#45;&gt;Node3 -->
<g id="edge12" class="edge">
<title>Node11&#45;&gt;Node3</title>
<path fill="none" stroke="midnightblue" d="M280.31,-92.6C288.69,-94.21 297.36,-95.88 305.9,-97.52"/>
<polygon fill="midnightblue" stroke="midnightblue" points="305.37,-100.98 315.85,-99.43 306.69,-94.11 305.37,-100.98"/>
</g>
<!-- Node12&#45;&gt;Node3 -->
<g id="edge14" class="edge">
<title>Node12&#45;&gt;Node3</title>
<path fill="none" stroke="midnightblue" d="M262.55,-41.65C268.46,-44.7 274.41,-47.87 280,-51 301.95,-63.31 325.96,-78.32 344.48,-90.24"/>
<polygon fill="midnightblue" stroke="midnightblue" points="342.8,-93.32 353.09,-95.82 346.6,-87.45 342.8,-93.32"/>
</g>
</g>
</svg>
