<?xml version="1.0" encoding="UTF-8" standalone="no"?>
<!DOCTYPE svg PUBLIC "-//W3C//DTD SVG 1.1//EN"
 "http://www.w3.org/Graphics/SVG/1.1/DTD/svg11.dtd">
<!-- Generated by graphviz version 2.43.0 (0)
 -->
<!-- Title: applications/zpc/components/zpc_attribute_store/include/command_class_types/zwave_command_class_generic_types.h Pages: 1 -->
<svg width="6070pt" height="228pt"
 viewBox="0.00 0.00 6069.50 228.00" xmlns="http://www.w3.org/2000/svg" xmlns:xlink="http://www.w3.org/1999/xlink">
<g id="graph0" class="graph" transform="scale(1 1) rotate(0) translate(4 224)">
<title>applications/zpc/components/zpc_attribute_store/include/command_class_types/zwave_command_class_generic_types.h</title>
<!-- Node1 -->
<g id="node1" class="node">
<title>Node1</title>
<g id="a_node1"><a xlink:title=" ">
<polygon fill="#bfbfbf" stroke="black" points="2911.5,-167.5 2911.5,-219.5 3078.5,-219.5 3078.5,-167.5 2911.5,-167.5"/>
<text text-anchor="start" x="2919.5" y="-207.5" font-family="Helvetica,sans-Serif" font-size="10.00">applications/zpc/components</text>
<text text-anchor="start" x="2919.5" y="-196.5" font-family="Helvetica,sans-Serif" font-size="10.00">/zpc_attribute_store/include</text>
<text text-anchor="start" x="2919.5" y="-185.5" font-family="Helvetica,sans-Serif" font-size="10.00">/command_class_types/zwave</text>
<text text-anchor="middle" x="2995" y="-174.5" font-family="Helvetica,sans-Serif" font-size="10.00">_command_class_generic_types.h</text>
</a>
</g>
</g>
<!-- Node2 -->
<g id="node2" class="node">
<title>Node2</title>
<g id="a_node2"><a xlink:href="zwave__command__classes__utils_8h.html" target="_top" xlink:title=" ">
<polygon fill="none" stroke="black" points="2910.5,-89.5 2910.5,-130.5 3079.5,-130.5 3079.5,-89.5 2910.5,-89.5"/>
<text text-anchor="start" x="2918.5" y="-118.5" font-family="Helvetica,sans-Serif" font-size="10.00">applications/zpc/components</text>
<text text-anchor="start" x="2918.5" y="-107.5" font-family="Helvetica,sans-Serif" font-size="10.00">/zwave_command_classes/include</text>
<text text-anchor="middle" x="2995" y="-96.5" font-family="Helvetica,sans-Serif" font-size="10.00">/zwave_command_classes_utils.h</text>
</a>
</g>
</g>
<!-- Node1&#45;&gt;Node2 -->
<g id="edge1" class="edge">
<title>Node1&#45;&gt;Node2</title>
<path fill="none" stroke="midnightblue" d="M2995,-157.15C2995,-148.05 2995,-138.6 2995,-130.63"/>
<polygon fill="midnightblue" stroke="midnightblue" points="2991.5,-157.16 2995,-167.16 2998.5,-157.16 2991.5,-157.16"/>
</g>
<!-- Node3 -->
<g id="node3" class="node">
<title>Node3</title>
<g id="a_node3"><a xlink:href="zwave__command__class__alarm__sensor_8c.html" target="_top" xlink:title=" ">
<polygon fill="none" stroke="black" points="0,-0.5 0,-52.5 154,-52.5 154,-0.5 0,-0.5"/>
<text text-anchor="start" x="8" y="-40.5" font-family="Helvetica,sans-Serif" font-size="10.00">applications/zpc/components</text>
<text text-anchor="start" x="8" y="-29.5" font-family="Helvetica,sans-Serif" font-size="10.00">/zwave_command_classes/src</text>
<text text-anchor="start" x="8" y="-18.5" font-family="Helvetica,sans-Serif" font-size="10.00">/zwave_command_class_alarm</text>
<text text-anchor="middle" x="77" y="-7.5" font-family="Helvetica,sans-Serif" font-size="10.00">_sensor.c</text>
</a>
</g>
</g>
<!-- Node2&#45;&gt;Node3 -->
<g id="edge2" class="edge">
<title>Node2&#45;&gt;Node3</title>
<path fill="none" stroke="midnightblue" d="M2900.06,-108.63C2438.25,-106.65 437.82,-95.66 163,-53 160.08,-52.55 157.11,-52.02 154.13,-51.43"/>
<polygon fill="midnightblue" stroke="midnightblue" points="2900.34,-112.14 2910.35,-108.68 2900.37,-105.14 2900.34,-112.14"/>
</g>
<!-- Node4 -->
<g id="node4" class="node">
<title>Node4</title>
<g id="a_node4"><a xlink:href="zwave__command__class__barrier__operator_8c.html" target="_top" xlink:title=" ">
<polygon fill="none" stroke="black" points="172.5,-0.5 172.5,-52.5 329.5,-52.5 329.5,-0.5 172.5,-0.5"/>
<text text-anchor="start" x="180.5" y="-40.5" font-family="Helvetica,sans-Serif" font-size="10.00">applications/zpc/components</text>
<text text-anchor="start" x="180.5" y="-29.5" font-family="Helvetica,sans-Serif" font-size="10.00">/zwave_command_classes/src</text>
<text text-anchor="start" x="180.5" y="-18.5" font-family="Helvetica,sans-Serif" font-size="10.00">/zwave_command_class_barrier</text>
<text text-anchor="middle" x="251" y="-7.5" font-family="Helvetica,sans-Serif" font-size="10.00">_operator.c</text>
</a>
</g>
</g>
<!-- Node2&#45;&gt;Node4 -->
<g id="edge3" class="edge">
<title>Node2&#45;&gt;Node4</title>
<path fill="none" stroke="midnightblue" d="M2900.18,-108.48C2456.33,-105.87 594.75,-92.62 338,-53 335.2,-52.57 332.36,-52.07 329.51,-51.52"/>
<polygon fill="midnightblue" stroke="midnightblue" points="2900.38,-111.99 2910.4,-108.54 2900.42,-104.99 2900.38,-111.99"/>
</g>
<!-- Node5 -->
<g id="node5" class="node">
<title>Node5</title>
<g id="a_node5"><a xlink:href="zwave__command__class__basic_8c.html" target="_top" xlink:title=" ">
<polygon fill="none" stroke="black" points="347.5,-6 347.5,-47 508.5,-47 508.5,-6 347.5,-6"/>
<text text-anchor="start" x="355.5" y="-35" font-family="Helvetica,sans-Serif" font-size="10.00">applications/zpc/components</text>
<text text-anchor="start" x="355.5" y="-24" font-family="Helvetica,sans-Serif" font-size="10.00">/zwave_command_classes/src</text>
<text text-anchor="middle" x="428" y="-13" font-family="Helvetica,sans-Serif" font-size="10.00">/zwave_command_class_basic.c</text>
</a>
</g>
</g>
<!-- Node2&#45;&gt;Node5 -->
<g id="edge4" class="edge">
<title>Node2&#45;&gt;Node5</title>
<path fill="none" stroke="midnightblue" d="M2900.36,-108.3C2475.58,-104.94 755.37,-89.23 517,-53 507.62,-51.58 497.84,-49.45 488.34,-47.03"/>
<polygon fill="midnightblue" stroke="midnightblue" points="2900.42,-111.8 2910.45,-108.38 2900.48,-104.8 2900.42,-111.8"/>
</g>
<!-- Node6 -->
<g id="node6" class="node">
<title>Node6</title>
<g id="a_node6"><a xlink:href="zwave__command__class__central__scene_8c.html" target="_top" xlink:title=" ">
<polygon fill="none" stroke="black" points="526.5,-6 526.5,-47 725.5,-47 725.5,-6 526.5,-6"/>
<text text-anchor="start" x="534.5" y="-35" font-family="Helvetica,sans-Serif" font-size="10.00">applications/zpc/components</text>
<text text-anchor="start" x="534.5" y="-24" font-family="Helvetica,sans-Serif" font-size="10.00">/zwave_command_classes/src</text>
<text text-anchor="middle" x="626" y="-13" font-family="Helvetica,sans-Serif" font-size="10.00">/zwave_command_class_central_scene.c</text>
</a>
</g>
</g>
<!-- Node2&#45;&gt;Node6 -->
<g id="edge5" class="edge">
<title>Node2&#45;&gt;Node6</title>
<path fill="none" stroke="midnightblue" d="M2900.13,-109.27C2527.38,-109.91 1162.86,-108.33 734,-53 722.82,-51.56 711.11,-49.44 699.7,-47.04"/>
<polygon fill="midnightblue" stroke="midnightblue" points="2900.34,-112.77 2910.33,-109.25 2900.33,-105.77 2900.34,-112.77"/>
</g>
<!-- Node7 -->
<g id="node7" class="node">
<title>Node7</title>
<g id="a_node7"><a xlink:href="zwave__command__class__configuration__control_8c.html" target="_top" xlink:title=" ">
<polygon fill="none" stroke="black" points="743.5,-0.5 743.5,-52.5 928.5,-52.5 928.5,-0.5 743.5,-0.5"/>
<text text-anchor="start" x="751.5" y="-40.5" font-family="Helvetica,sans-Serif" font-size="10.00">applications/zpc/components</text>
<text text-anchor="start" x="751.5" y="-29.5" font-family="Helvetica,sans-Serif" font-size="10.00">/zwave_command_classes/src</text>
<text text-anchor="start" x="751.5" y="-18.5" font-family="Helvetica,sans-Serif" font-size="10.00">/zwave_command_class_configuration</text>
<text text-anchor="middle" x="836" y="-7.5" font-family="Helvetica,sans-Serif" font-size="10.00">_control.c</text>
</a>
</g>
</g>
<!-- Node2&#45;&gt;Node7 -->
<g id="edge6" class="edge">
<title>Node2&#45;&gt;Node7</title>
<path fill="none" stroke="midnightblue" d="M2900.22,-109.19C2549.22,-109.45 1323.76,-106.42 937,-53 934.22,-52.62 931.41,-52.19 928.58,-51.72"/>
<polygon fill="midnightblue" stroke="midnightblue" points="2900.35,-112.69 2910.34,-109.18 2900.34,-105.69 2900.35,-112.69"/>
</g>
<!-- Node8 -->
<g id="node8" class="node">
<title>Node8</title>
<g id="a_node8"><a xlink:href="zwave__command__class__firmware__update_8c.html" target="_top" xlink:title=" ">
<polygon fill="none" stroke="black" points="946.5,-0.5 946.5,-52.5 1113.5,-52.5 1113.5,-0.5 946.5,-0.5"/>
<text text-anchor="start" x="954.5" y="-40.5" font-family="Helvetica,sans-Serif" font-size="10.00">applications/zpc/components</text>
<text text-anchor="start" x="954.5" y="-29.5" font-family="Helvetica,sans-Serif" font-size="10.00">/zwave_command_classes/src</text>
<text text-anchor="start" x="954.5" y="-18.5" font-family="Helvetica,sans-Serif" font-size="10.00">/zwave_command_class_firmware</text>
<text text-anchor="middle" x="1030" y="-7.5" font-family="Helvetica,sans-Serif" font-size="10.00">_update.c</text>
</a>
</g>
</g>
<!-- Node2&#45;&gt;Node8 -->
<g id="edge7" class="edge">
<title>Node2&#45;&gt;Node8</title>
<path fill="none" stroke="midnightblue" d="M2900.45,-109.17C2570.37,-109.31 1470.41,-105.71 1122,-53 1119.21,-52.58 1116.39,-52.1 1113.55,-51.58"/>
<polygon fill="midnightblue" stroke="midnightblue" points="2900.46,-112.67 2910.46,-109.17 2900.46,-105.67 2900.46,-112.67"/>
</g>
<!-- Node9 -->
<g id="node9" class="node">
<title>Node9</title>
<g id="a_node9"><a xlink:href="zwave__command__class__humidity__control__mode_8c.html" target="_top" xlink:title=" ">
<polygon fill="none" stroke="black" points="1131.5,-0.5 1131.5,-52.5 1298.5,-52.5 1298.5,-0.5 1131.5,-0.5"/>
<text text-anchor="start" x="1139.5" y="-40.5" font-family="Helvetica,sans-Serif" font-size="10.00">applications/zpc/components</text>
<text text-anchor="start" x="1139.5" y="-29.5" font-family="Helvetica,sans-Serif" font-size="10.00">/zwave_command_classes/src</text>
<text text-anchor="start" x="1139.5" y="-18.5" font-family="Helvetica,sans-Serif" font-size="10.00">/zwave_command_class_humidity</text>
<text text-anchor="middle" x="1215" y="-7.5" font-family="Helvetica,sans-Serif" font-size="10.00">_control_mode.c</text>
</a>
</g>
</g>
<!-- Node2&#45;&gt;Node9 -->
<g id="edge8" class="edge">
<title>Node2&#45;&gt;Node9</title>
<path fill="none" stroke="midnightblue" d="M2900.02,-108.81C2591.19,-107.72 1617.59,-100.51 1307,-53 1304.21,-52.57 1301.39,-52.09 1298.55,-51.56"/>
<polygon fill="midnightblue" stroke="midnightblue" points="2900.27,-112.31 2910.28,-108.84 2900.29,-105.31 2900.27,-112.31"/>
</g>
<!-- Node10 -->
<g id="node10" class="node">
<title>Node10</title>
<g id="a_node10"><a xlink:href="zwave__command__class__humidity__control__operating__state_8c.html" target="_top" xlink:title=" ">
<polygon fill="none" stroke="black" points="1316.5,-0.5 1316.5,-52.5 1483.5,-52.5 1483.5,-0.5 1316.5,-0.5"/>
<text text-anchor="start" x="1324.5" y="-40.5" font-family="Helvetica,sans-Serif" font-size="10.00">applications/zpc/components</text>
<text text-anchor="start" x="1324.5" y="-29.5" font-family="Helvetica,sans-Serif" font-size="10.00">/zwave_command_classes/src</text>
<text text-anchor="start" x="1324.5" y="-18.5" font-family="Helvetica,sans-Serif" font-size="10.00">/zwave_command_class_humidity</text>
<text text-anchor="middle" x="1400" y="-7.5" font-family="Helvetica,sans-Serif" font-size="10.00">_control_operating_state.c</text>
</a>
</g>
</g>
<!-- Node2&#45;&gt;Node10 -->
<g id="edge9" class="edge">
<title>Node2&#45;&gt;Node10</title>
<path fill="none" stroke="midnightblue" d="M2899.83,-108.35C2613.83,-105.94 1765.05,-95.33 1492,-53 1489.22,-52.57 1486.4,-52.08 1483.56,-51.55"/>
<polygon fill="midnightblue" stroke="midnightblue" points="2900.14,-111.85 2910.17,-108.44 2900.2,-104.85 2900.14,-111.85"/>
</g>
<!-- Node11 -->
<g id="node11" class="node">
<title>Node11</title>
<g id="a_node11"><a xlink:href="zwave__command__class__humidity__control__setpoint_8c.html" target="_top" xlink:title=" ">
<polygon fill="none" stroke="black" points="1501.5,-0.5 1501.5,-52.5 1668.5,-52.5 1668.5,-0.5 1501.5,-0.5"/>
<text text-anchor="start" x="1509.5" y="-40.5" font-family="Helvetica,sans-Serif" font-size="10.00">applications/zpc/components</text>
<text text-anchor="start" x="1509.5" y="-29.5" font-family="Helvetica,sans-Serif" font-size="10.00">/zwave_command_classes/src</text>
<text text-anchor="start" x="1509.5" y="-18.5" font-family="Helvetica,sans-Serif" font-size="10.00">/zwave_command_class_humidity</text>
<text text-anchor="middle" x="1585" y="-7.5" font-family="Helvetica,sans-Serif" font-size="10.00">_control_setpoint.c</text>
</a>
</g>
</g>
<!-- Node2&#45;&gt;Node11 -->
<g id="edge10" class="edge">
<title>Node2&#45;&gt;Node11</title>
<path fill="none" stroke="midnightblue" d="M2900.02,-107.74C2638.84,-103.81 1913.68,-89.84 1678,-53 1674.94,-52.52 1671.84,-51.98 1668.71,-51.38"/>
<polygon fill="midnightblue" stroke="midnightblue" points="2900.18,-111.24 2910.23,-107.89 2900.29,-104.24 2900.18,-111.24"/>
</g>
<!-- Node12 -->
<g id="node12" class="node">
<title>Node12</title>
<g id="a_node12"><a xlink:href="zwave__command__class__indicator_8c.html" target="_top" xlink:title=" ">
<polygon fill="none" stroke="black" points="1687,-6 1687,-47 1861,-47 1861,-6 1687,-6"/>
<text text-anchor="start" x="1695" y="-35" font-family="Helvetica,sans-Serif" font-size="10.00">applications/zpc/components</text>
<text text-anchor="start" x="1695" y="-24" font-family="Helvetica,sans-Serif" font-size="10.00">/zwave_command_classes/src</text>
<text text-anchor="middle" x="1774" y="-13" font-family="Helvetica,sans-Serif" font-size="10.00">/zwave_command_class_indicator.c</text>
</a>
</g>
</g>
<!-- Node2&#45;&gt;Node12 -->
<g id="edge11" class="edge">
<title>Node2&#45;&gt;Node12</title>
<path fill="none" stroke="midnightblue" d="M2900.16,-106.84C2666.43,-101.1 2067.41,-83.78 1870,-53 1860.29,-51.49 1850.14,-49.38 1840.24,-47.03"/>
<polygon fill="midnightblue" stroke="midnightblue" points="2900.26,-110.34 2910.34,-107.09 2900.43,-103.34 2900.26,-110.34"/>
</g>
<!-- Node13 -->
<g id="node13" class="node">
<title>Node13</title>
<g id="a_node13"><a xlink:href="zwave__command__class__manufacturer__specific_8c.html" target="_top" xlink:title=" ">
<polygon fill="none" stroke="black" points="1879.5,-0.5 1879.5,-52.5 2066.5,-52.5 2066.5,-0.5 1879.5,-0.5"/>
<text text-anchor="start" x="1887.5" y="-40.5" font-family="Helvetica,sans-Serif" font-size="10.00">applications/zpc/components</text>
<text text-anchor="start" x="1887.5" y="-29.5" font-family="Helvetica,sans-Serif" font-size="10.00">/zwave_command_classes/src</text>
<text text-anchor="start" x="1887.5" y="-18.5" font-family="Helvetica,sans-Serif" font-size="10.00">/zwave_command_class_manufacturer</text>
<text text-anchor="middle" x="1973" y="-7.5" font-family="Helvetica,sans-Serif" font-size="10.00">_specific.c</text>
</a>
</g>
</g>
<!-- Node2&#45;&gt;Node13 -->
<g id="edge12" class="edge">
<title>Node2&#45;&gt;Node13</title>
<path fill="none" stroke="midnightblue" d="M2900.39,-108.97C2732.97,-107.63 2373.93,-99.06 2075,-53 2072.2,-52.57 2069.37,-52.1 2066.52,-51.59"/>
<polygon fill="midnightblue" stroke="midnightblue" points="2900.39,-112.47 2910.41,-109.04 2900.44,-105.47 2900.39,-112.47"/>
</g>
<!-- Node14 -->
<g id="node14" class="node">
<title>Node14</title>
<g id="a_node14"><a xlink:href="zwave__command__class__meter__control_8c.html" target="_top" xlink:title=" ">
<polygon fill="none" stroke="black" points="2084.5,-0.5 2084.5,-52.5 2239.5,-52.5 2239.5,-0.5 2084.5,-0.5"/>
<text text-anchor="start" x="2092.5" y="-40.5" font-family="Helvetica,sans-Serif" font-size="10.00">applications/zpc/components</text>
<text text-anchor="start" x="2092.5" y="-29.5" font-family="Helvetica,sans-Serif" font-size="10.00">/zwave_command_classes/src</text>
<text text-anchor="start" x="2092.5" y="-18.5" font-family="Helvetica,sans-Serif" font-size="10.00">/zwave_command_class_meter</text>
<text text-anchor="middle" x="2162" y="-7.5" font-family="Helvetica,sans-Serif" font-size="10.00">_control.c</text>
</a>
</g>
</g>
<!-- Node2&#45;&gt;Node14 -->
<g id="edge13" class="edge">
<title>Node2&#45;&gt;Node14</title>
<path fill="none" stroke="midnightblue" d="M2900.2,-108.35C2757.55,-105.91 2479.72,-95.53 2248,-53 2245.24,-52.49 2242.45,-51.93 2239.64,-51.33"/>
<polygon fill="midnightblue" stroke="midnightblue" points="2900.18,-111.85 2910.23,-108.51 2900.29,-104.85 2900.18,-111.85"/>
</g>
<!-- Node15 -->
<g id="node15" class="node">
<title>Node15</title>
<g id="a_node15"><a xlink:href="zwave__command__class__multilevel__sensor_8c.html" target="_top" xlink:title=" ">
<polygon fill="none" stroke="black" points="2257.5,-0.5 2257.5,-52.5 2428.5,-52.5 2428.5,-0.5 2257.5,-0.5"/>
<text text-anchor="start" x="2265.5" y="-40.5" font-family="Helvetica,sans-Serif" font-size="10.00">applications/zpc/components</text>
<text text-anchor="start" x="2265.5" y="-29.5" font-family="Helvetica,sans-Serif" font-size="10.00">/zwave_command_classes/src</text>
<text text-anchor="start" x="2265.5" y="-18.5" font-family="Helvetica,sans-Serif" font-size="10.00">/zwave_command_class_multilevel</text>
<text text-anchor="middle" x="2343" y="-7.5" font-family="Helvetica,sans-Serif" font-size="10.00">_sensor.c</text>
</a>
</g>
</g>
<!-- Node2&#45;&gt;Node15 -->
<g id="edge14" class="edge">
<title>Node2&#45;&gt;Node15</title>
<path fill="none" stroke="midnightblue" d="M2900.04,-104.25C2788.46,-97.57 2598.09,-82.72 2437,-53 2434.26,-52.49 2431.48,-51.95 2428.67,-51.37"/>
<polygon fill="midnightblue" stroke="midnightblue" points="2900.07,-107.76 2910.25,-104.85 2900.48,-100.77 2900.07,-107.76"/>
</g>
<!-- Node16 -->
<g id="node16" class="node">
<title>Node16</title>
<g id="a_node16"><a xlink:href="zwave__command__class__powerlevel_8c.html" target="_top" xlink:title=" ">
<polygon fill="none" stroke="black" points="2446.5,-6 2446.5,-47 2631.5,-47 2631.5,-6 2446.5,-6"/>
<text text-anchor="start" x="2454.5" y="-35" font-family="Helvetica,sans-Serif" font-size="10.00">applications/zpc/components</text>
<text text-anchor="start" x="2454.5" y="-24" font-family="Helvetica,sans-Serif" font-size="10.00">/zwave_command_classes/src</text>
<text text-anchor="middle" x="2539" y="-13" font-family="Helvetica,sans-Serif" font-size="10.00">/zwave_command_class_powerlevel.c</text>
</a>
</g>
</g>
<!-- Node2&#45;&gt;Node16 -->
<g id="edge15" class="edge">
<title>Node2&#45;&gt;Node16</title>
<path fill="none" stroke="midnightblue" d="M2899.89,-96.27C2828.38,-86.14 2728.17,-70.75 2641,-53 2632.24,-51.21 2623.09,-49.18 2614.03,-47.05"/>
<polygon fill="midnightblue" stroke="midnightblue" points="2899.83,-99.8 2910.22,-97.73 2900.81,-92.87 2899.83,-99.8"/>
</g>
<!-- Node17 -->
<g id="node17" class="node">
<title>Node17</title>
<g id="a_node17"><a xlink:href="zwave__command__class__scene__activation__control_8c.html" target="_top" xlink:title=" ">
<polygon fill="none" stroke="black" points="2650,-0.5 2650,-52.5 2806,-52.5 2806,-0.5 2650,-0.5"/>
<text text-anchor="start" x="2658" y="-40.5" font-family="Helvetica,sans-Serif" font-size="10.00">applications/zpc/components</text>
<text text-anchor="start" x="2658" y="-29.5" font-family="Helvetica,sans-Serif" font-size="10.00">/zwave_command_classes/src</text>
<text text-anchor="start" x="2658" y="-18.5" font-family="Helvetica,sans-Serif" font-size="10.00">/zwave_command_class_scene</text>
<text text-anchor="middle" x="2728" y="-7.5" font-family="Helvetica,sans-Serif" font-size="10.00">_activation_control.c</text>
</a>
</g>
</g>
<!-- Node2&#45;&gt;Node17 -->
<g id="edge16" class="edge">
<title>Node2&#45;&gt;Node17</title>
<path fill="none" stroke="midnightblue" d="M2921.17,-86.46C2885.43,-75.55 2842.5,-62.45 2806.2,-51.37"/>
<polygon fill="midnightblue" stroke="midnightblue" points="2920.46,-89.91 2931.05,-89.48 2922.5,-83.21 2920.46,-89.91"/>
</g>
<!-- Node18 -->
<g id="node18" class="node">
<title>Node18</title>
<g id="a_node18"><a xlink:href="zwave__command__class__scene__actuator__configuration__control_8c.html" target="_top" xlink:title=" ">
<polygon fill="none" stroke="black" points="2824.5,-0.5 2824.5,-52.5 2985.5,-52.5 2985.5,-0.5 2824.5,-0.5"/>
<text text-anchor="start" x="2832.5" y="-40.5" font-family="Helvetica,sans-Serif" font-size="10.00">applications/zpc/components</text>
<text text-anchor="start" x="2832.5" y="-29.5" font-family="Helvetica,sans-Serif" font-size="10.00">/zwave_command_classes/src</text>
<text text-anchor="start" x="2832.5" y="-18.5" font-family="Helvetica,sans-Serif" font-size="10.00">/zwave_command_class_scene</text>
<text text-anchor="middle" x="2905" y="-7.5" font-family="Helvetica,sans-Serif" font-size="10.00">_actuator_configuration_control.c</text>
</a>
</g>
</g>
<!-- Node2&#45;&gt;Node18 -->
<g id="edge17" class="edge">
<title>Node2&#45;&gt;Node18</title>
<path fill="none" stroke="midnightblue" d="M2965.76,-82.52C2955.15,-72.92 2943.2,-62.09 2932.73,-52.61"/>
<polygon fill="midnightblue" stroke="midnightblue" points="2963.45,-85.15 2973.21,-89.27 2968.15,-79.96 2963.45,-85.15"/>
</g>
<!-- Node19 -->
<g id="node19" class="node">
<title>Node19</title>
<g id="a_node19"><a xlink:href="zwave__command__class__scene__controller__configuration__control_8c.html" target="_top" xlink:title=" ">
<polygon fill="none" stroke="black" points="3003.5,-0.5 3003.5,-52.5 3168.5,-52.5 3168.5,-0.5 3003.5,-0.5"/>
<text text-anchor="start" x="3011.5" y="-40.5" font-family="Helvetica,sans-Serif" font-size="10.00">applications/zpc/components</text>
<text text-anchor="start" x="3011.5" y="-29.5" font-family="Helvetica,sans-Serif" font-size="10.00">/zwave_command_classes/src</text>
<text text-anchor="start" x="3011.5" y="-18.5" font-family="Helvetica,sans-Serif" font-size="10.00">/zwave_command_class_scene</text>
<text text-anchor="middle" x="3086" y="-7.5" font-family="Helvetica,sans-Serif" font-size="10.00">_controller_configuration_control.c</text>
</a>
</g>
</g>
<!-- Node2&#45;&gt;Node19 -->
<g id="edge18" class="edge">
<title>Node2&#45;&gt;Node19</title>
<path fill="none" stroke="midnightblue" d="M3024.56,-82.52C3035.29,-72.92 3047.37,-62.09 3057.97,-52.61"/>
<polygon fill="midnightblue" stroke="midnightblue" points="3022.14,-79.99 3017.03,-89.27 3026.81,-85.21 3022.14,-79.99"/>
</g>
<!-- Node20 -->
<g id="node20" class="node">
<title>Node20</title>
<g id="a_node20"><a xlink:href="zwave__command__class__security__0_8c.html" target="_top" xlink:title=" ">
<polygon fill="none" stroke="black" points="3186.5,-6 3186.5,-47 3369.5,-47 3369.5,-6 3186.5,-6"/>
<text text-anchor="start" x="3194.5" y="-35" font-family="Helvetica,sans-Serif" font-size="10.00">applications/zpc/components</text>
<text text-anchor="start" x="3194.5" y="-24" font-family="Helvetica,sans-Serif" font-size="10.00">/zwave_command_classes/src</text>
<text text-anchor="middle" x="3278" y="-13" font-family="Helvetica,sans-Serif" font-size="10.00">/zwave_command_class_security_0.c</text>
</a>
</g>
</g>
<!-- Node2&#45;&gt;Node20 -->
<g id="edge19" class="edge">
<title>Node2&#45;&gt;Node20</title>
<path fill="none" stroke="midnightblue" d="M3072.67,-86.63C3115.77,-74.22 3168.87,-58.93 3210.28,-47"/>
<polygon fill="midnightblue" stroke="midnightblue" points="3071.43,-83.35 3062.79,-89.48 3073.36,-90.07 3071.43,-83.35"/>
</g>
<!-- Node21 -->
<g id="node21" class="node">
<title>Node21</title>
<g id="a_node21"><a xlink:href="zwave__command__class__security__2_8c.html" target="_top" xlink:title=" ">
<polygon fill="none" stroke="black" points="3387.5,-6 3387.5,-47 3570.5,-47 3570.5,-6 3387.5,-6"/>
<text text-anchor="start" x="3395.5" y="-35" font-family="Helvetica,sans-Serif" font-size="10.00">applications/zpc/components</text>
<text text-anchor="start" x="3395.5" y="-24" font-family="Helvetica,sans-Serif" font-size="10.00">/zwave_command_classes/src</text>
<text text-anchor="middle" x="3479" y="-13" font-family="Helvetica,sans-Serif" font-size="10.00">/zwave_command_class_security_2.c</text>
</a>
</g>
</g>
<!-- Node2&#45;&gt;Node21 -->
<g id="edge20" class="edge">
<title>Node2&#45;&gt;Node21</title>
<path fill="none" stroke="midnightblue" d="M3090,-97.96C3168,-88.23 3281.16,-72.55 3379,-53 3387.78,-51.24 3396.95,-49.2 3406.02,-47.05"/>
<polygon fill="midnightblue" stroke="midnightblue" points="3089.2,-94.53 3079.71,-99.24 3090.07,-101.48 3089.2,-94.53"/>
</g>
<!-- Node22 -->
<g id="node22" class="node">
<title>Node22</title>
<g id="a_node22"><a xlink:href="zwave__command__class__sound__switch_8c.html" target="_top" xlink:title=" ">
<polygon fill="none" stroke="black" points="3589,-0.5 3589,-52.5 3745,-52.5 3745,-0.5 3589,-0.5"/>
<text text-anchor="start" x="3597" y="-40.5" font-family="Helvetica,sans-Serif" font-size="10.00">applications/zpc/components</text>
<text text-anchor="start" x="3597" y="-29.5" font-family="Helvetica,sans-Serif" font-size="10.00">/zwave_command_classes/src</text>
<text text-anchor="start" x="3597" y="-18.5" font-family="Helvetica,sans-Serif" font-size="10.00">/zwave_command_class_sound</text>
<text text-anchor="middle" x="3667" y="-7.5" font-family="Helvetica,sans-Serif" font-size="10.00">_switch.c</text>
</a>
</g>
</g>
<!-- Node2&#45;&gt;Node22 -->
<g id="edge21" class="edge">
<title>Node2&#45;&gt;Node22</title>
<path fill="none" stroke="midnightblue" d="M3089.81,-105.45C3206.17,-99.83 3409.08,-85.92 3580,-53 3582.94,-52.43 3585.92,-51.81 3588.92,-51.15"/>
<polygon fill="midnightblue" stroke="midnightblue" points="3089.33,-101.97 3079.51,-105.94 3089.66,-108.96 3089.33,-101.97"/>
</g>
<!-- Node23 -->
<g id="node23" class="node">
<title>Node23</title>
<g id="a_node23"><a xlink:href="zwave__command__class__supervision_8c.html" target="_top" xlink:title=" ">
<polygon fill="none" stroke="black" points="3763,-6 3763,-47 3951,-47 3951,-6 3763,-6"/>
<text text-anchor="start" x="3771" y="-35" font-family="Helvetica,sans-Serif" font-size="10.00">applications/zpc/components</text>
<text text-anchor="start" x="3771" y="-24" font-family="Helvetica,sans-Serif" font-size="10.00">/zwave_command_classes/src</text>
<text text-anchor="middle" x="3857" y="-13" font-family="Helvetica,sans-Serif" font-size="10.00">/zwave_command_class_supervision.c</text>
</a>
</g>
</g>
<!-- Node2&#45;&gt;Node23 -->
<g id="edge22" class="edge">
<title>Node2&#45;&gt;Node23</title>
<path fill="none" stroke="midnightblue" d="M3089.92,-107.14C3234.21,-103.15 3517,-90.8 3754,-53 3764.01,-51.4 3774.47,-49.32 3784.72,-47.02"/>
<polygon fill="midnightblue" stroke="midnightblue" points="3089.68,-103.64 3079.78,-107.41 3089.87,-110.64 3089.68,-103.64"/>
</g>
<!-- Node24 -->
<g id="node24" class="node">
<title>Node24</title>
<g id="a_node24"><a xlink:href="zwave__command__class__switch__multilevel_8c.html" target="_top" xlink:title=" ">
<polygon fill="none" stroke="black" points="3969,-0.5 3969,-52.5 4127,-52.5 4127,-0.5 3969,-0.5"/>
<text text-anchor="start" x="3977" y="-40.5" font-family="Helvetica,sans-Serif" font-size="10.00">applications/zpc/components</text>
<text text-anchor="start" x="3977" y="-29.5" font-family="Helvetica,sans-Serif" font-size="10.00">/zwave_command_classes/src</text>
<text text-anchor="start" x="3977" y="-18.5" font-family="Helvetica,sans-Serif" font-size="10.00">/zwave_command_class_switch</text>
<text text-anchor="middle" x="4048" y="-7.5" font-family="Helvetica,sans-Serif" font-size="10.00">_multilevel.c</text>
</a>
</g>
</g>
<!-- Node2&#45;&gt;Node24 -->
<g id="edge23" class="edge">
<title>Node2&#45;&gt;Node24</title>
<path fill="none" stroke="midnightblue" d="M3089.66,-106.21C3298.77,-99.6 3794.62,-81.39 3960,-53 3962.82,-52.52 3965.68,-51.97 3968.56,-51.38"/>
<polygon fill="midnightblue" stroke="midnightblue" points="3089.51,-102.71 3079.62,-106.52 3089.73,-109.71 3089.51,-102.71"/>
</g>
<!-- Node25 -->
<g id="node25" class="node">
<title>Node25</title>
<g id="a_node25"><a xlink:href="zwave__command__class__thermostat__fan__mode_8c.html" target="_top" xlink:title=" ">
<polygon fill="none" stroke="black" points="4145,-0.5 4145,-52.5 4321,-52.5 4321,-0.5 4145,-0.5"/>
<text text-anchor="start" x="4153" y="-40.5" font-family="Helvetica,sans-Serif" font-size="10.00">applications/zpc/components</text>
<text text-anchor="start" x="4153" y="-29.5" font-family="Helvetica,sans-Serif" font-size="10.00">/zwave_command_classes/src</text>
<text text-anchor="start" x="4153" y="-18.5" font-family="Helvetica,sans-Serif" font-size="10.00">/zwave_command_class_thermostat</text>
<text text-anchor="middle" x="4233" y="-7.5" font-family="Helvetica,sans-Serif" font-size="10.00">_fan_mode.c</text>
</a>
</g>
</g>
<!-- Node2&#45;&gt;Node25 -->
<g id="edge24" class="edge">
<title>Node2&#45;&gt;Node25</title>
<path fill="none" stroke="midnightblue" d="M3089.9,-106.88C3326.03,-101.21 3935.38,-83.95 4136,-53 4138.93,-52.55 4141.89,-52.04 4144.88,-51.5"/>
<polygon fill="midnightblue" stroke="midnightblue" points="3089.53,-103.39 3079.62,-107.13 3089.7,-110.39 3089.53,-103.39"/>
</g>
<!-- Node26 -->
<g id="node26" class="node">
<title>Node26</title>
<g id="a_node26"><a xlink:href="zwave__command__class__thermostat__fan__state_8c.html" target="_top" xlink:title=" ">
<polygon fill="none" stroke="black" points="4339,-0.5 4339,-52.5 4515,-52.5 4515,-0.5 4339,-0.5"/>
<text text-anchor="start" x="4347" y="-40.5" font-family="Helvetica,sans-Serif" font-size="10.00">applications/zpc/components</text>
<text text-anchor="start" x="4347" y="-29.5" font-family="Helvetica,sans-Serif" font-size="10.00">/zwave_command_classes/src</text>
<text text-anchor="start" x="4347" y="-18.5" font-family="Helvetica,sans-Serif" font-size="10.00">/zwave_command_class_thermostat</text>
<text text-anchor="middle" x="4427" y="-7.5" font-family="Helvetica,sans-Serif" font-size="10.00">_fan_state.c</text>
</a>
</g>
</g>
<!-- Node2&#45;&gt;Node26 -->
<g id="edge25" class="edge">
<title>Node2&#45;&gt;Node26</title>
<path fill="none" stroke="midnightblue" d="M3089.86,-107.67C3353.34,-103.56 4090.48,-89.08 4330,-53 4332.93,-52.56 4335.89,-52.06 4338.88,-51.52"/>
<polygon fill="midnightblue" stroke="midnightblue" points="3089.5,-104.18 3079.55,-107.83 3089.6,-111.18 3089.5,-104.18"/>
</g>
<!-- Node27 -->
<g id="node27" class="node">
<title>Node27</title>
<g id="a_node27"><a xlink:href="zwave__command__class__thermostat__mode_8c.html" target="_top" xlink:title=" ">
<polygon fill="none" stroke="black" points="4533,-6 4533,-47 4747,-47 4747,-6 4533,-6"/>
<text text-anchor="start" x="4541" y="-35" font-family="Helvetica,sans-Serif" font-size="10.00">applications/zpc/components</text>
<text text-anchor="start" x="4541" y="-24" font-family="Helvetica,sans-Serif" font-size="10.00">/zwave_command_classes/src</text>
<text text-anchor="middle" x="4640" y="-13" font-family="Helvetica,sans-Serif" font-size="10.00">/zwave_command_class_thermostat_mode.c</text>
</a>
</g>
</g>
<!-- Node2&#45;&gt;Node27 -->
<g id="edge26" class="edge">
<title>Node2&#45;&gt;Node27</title>
<path fill="none" stroke="midnightblue" d="M3089.77,-107.76C3378.51,-103.63 4244.54,-88.54 4524,-53 4535.76,-51.5 4548.09,-49.39 4560.14,-47.02"/>
<polygon fill="midnightblue" stroke="midnightblue" points="3089.7,-104.26 3079.75,-107.9 3089.8,-111.26 3089.7,-104.26"/>
</g>
<!-- Node28 -->
<g id="node28" class="node">
<title>Node28</title>
<g id="a_node28"><a xlink:href="zwave__command__class__thermostat__operating__state_8c.html" target="_top" xlink:title=" ">
<polygon fill="none" stroke="black" points="4765,-0.5 4765,-52.5 4941,-52.5 4941,-0.5 4765,-0.5"/>
<text text-anchor="start" x="4773" y="-40.5" font-family="Helvetica,sans-Serif" font-size="10.00">applications/zpc/components</text>
<text text-anchor="start" x="4773" y="-29.5" font-family="Helvetica,sans-Serif" font-size="10.00">/zwave_command_classes/src</text>
<text text-anchor="start" x="4773" y="-18.5" font-family="Helvetica,sans-Serif" font-size="10.00">/zwave_command_class_thermostat</text>
<text text-anchor="middle" x="4853" y="-7.5" font-family="Helvetica,sans-Serif" font-size="10.00">_operating_state.c</text>
</a>
</g>
</g>
<!-- Node2&#45;&gt;Node28 -->
<g id="edge27" class="edge">
<title>Node2&#45;&gt;Node28</title>
<path fill="none" stroke="midnightblue" d="M3089.73,-108.8C3406.94,-107.68 4430.16,-100.39 4756,-53 4758.93,-52.57 4761.9,-52.09 4764.89,-51.56"/>
<polygon fill="midnightblue" stroke="midnightblue" points="3089.63,-105.3 3079.65,-108.83 3089.66,-112.3 3089.63,-105.3"/>
</g>
<!-- Node29 -->
<g id="node29" class="node">
<title>Node29</title>
<g id="a_node29"><a xlink:href="zwave__command__class__time_8c.html" target="_top" xlink:title=" ">
<polygon fill="none" stroke="black" points="4959.5,-6 4959.5,-47 5116.5,-47 5116.5,-6 4959.5,-6"/>
<text text-anchor="start" x="4967.5" y="-35" font-family="Helvetica,sans-Serif" font-size="10.00">applications/zpc/components</text>
<text text-anchor="start" x="4967.5" y="-24" font-family="Helvetica,sans-Serif" font-size="10.00">/zwave_command_classes/src</text>
<text text-anchor="middle" x="5038" y="-13" font-family="Helvetica,sans-Serif" font-size="10.00">/zwave_command_class_time.c</text>
</a>
</g>
</g>
<!-- Node2&#45;&gt;Node29 -->
<g id="edge28" class="edge">
<title>Node2&#45;&gt;Node29</title>
<path fill="none" stroke="midnightblue" d="M3089.65,-109.46C3429.2,-110.61 4585.21,-110.13 4950,-53 4959.11,-51.57 4968.62,-49.48 4977.86,-47.1"/>
<polygon fill="midnightblue" stroke="midnightblue" points="3089.62,-105.96 3079.6,-109.42 3089.59,-112.96 3089.62,-105.96"/>
</g>
<!-- Node30 -->
<g id="node30" class="node">
<title>Node30</title>
<g id="a_node30"><a xlink:href="zwave__command__class__user__code_8c.html" target="_top" xlink:title=" ">
<polygon fill="none" stroke="black" points="5134.5,-6 5134.5,-47 5317.5,-47 5317.5,-6 5134.5,-6"/>
<text text-anchor="start" x="5142.5" y="-35" font-family="Helvetica,sans-Serif" font-size="10.00">applications/zpc/components</text>
<text text-anchor="start" x="5142.5" y="-24" font-family="Helvetica,sans-Serif" font-size="10.00">/zwave_command_classes/src</text>
<text text-anchor="middle" x="5226" y="-13" font-family="Helvetica,sans-Serif" font-size="10.00">/zwave_command_class_user_code.c</text>
</a>
</g>
</g>
<!-- Node2&#45;&gt;Node30 -->
<g id="edge29" class="edge">
<title>Node2&#45;&gt;Node30</title>
<path fill="none" stroke="midnightblue" d="M3089.82,-109.32C3448.78,-110.1 4724.34,-108.77 5126,-53 5136.38,-51.56 5147.24,-49.44 5157.82,-47.04"/>
<polygon fill="midnightblue" stroke="midnightblue" points="3089.73,-105.82 3079.72,-109.3 3089.71,-112.82 3089.73,-105.82"/>
</g>
<!-- Node31 -->
<g id="node31" class="node">
<title>Node31</title>
<g id="a_node31"><a xlink:href="zwave__command__class__version_8c.html" target="_top" xlink:title=" ">
<polygon fill="none" stroke="black" points="5336,-6 5336,-47 5506,-47 5506,-6 5336,-6"/>
<text text-anchor="start" x="5344" y="-35" font-family="Helvetica,sans-Serif" font-size="10.00">applications/zpc/components</text>
<text text-anchor="start" x="5344" y="-24" font-family="Helvetica,sans-Serif" font-size="10.00">/zwave_command_classes/src</text>
<text text-anchor="middle" x="5421" y="-13" font-family="Helvetica,sans-Serif" font-size="10.00">/zwave_command_class_version.c</text>
</a>
</g>
</g>
<!-- Node2&#45;&gt;Node31 -->
<g id="edge30" class="edge">
<title>Node2&#45;&gt;Node31</title>
<path fill="none" stroke="midnightblue" d="M3089.74,-108.07C3498.86,-103.88 5103.51,-85.51 5327,-53 5336.87,-51.56 5347.19,-49.44 5357.22,-47.01"/>
<polygon fill="midnightblue" stroke="midnightblue" points="3089.68,-104.57 3079.72,-108.17 3089.75,-111.57 3089.68,-104.57"/>
</g>
<!-- Node32 -->
<g id="node32" class="node">
<title>Node32</title>
<g id="a_node32"><a xlink:href="zwave__command__class__wake__up_8c.html" target="_top" xlink:title=" ">
<polygon fill="none" stroke="black" points="5524.5,-6 5524.5,-47 5701.5,-47 5701.5,-6 5524.5,-6"/>
<text text-anchor="start" x="5532.5" y="-35" font-family="Helvetica,sans-Serif" font-size="10.00">applications/zpc/components</text>
<text text-anchor="start" x="5532.5" y="-24" font-family="Helvetica,sans-Serif" font-size="10.00">/zwave_command_classes/src</text>
<text text-anchor="middle" x="5613" y="-13" font-family="Helvetica,sans-Serif" font-size="10.00">/zwave_command_class_wake_up.c</text>
</a>
</g>
</g>
<!-- Node2&#45;&gt;Node32 -->
<g id="edge31" class="edge">
<title>Node2&#45;&gt;Node32</title>
<path fill="none" stroke="midnightblue" d="M3089.8,-108.2C3519.24,-104.38 5271.89,-86.86 5515,-53 5525.27,-51.57 5536.02,-49.44 5546.47,-47.02"/>
<polygon fill="midnightblue" stroke="midnightblue" points="3089.56,-104.7 3079.6,-108.29 3089.63,-111.7 3089.56,-104.7"/>
</g>
<!-- Node33 -->
<g id="node33" class="node">
<title>Node33</title>
<g id="a_node33"><a xlink:href="zwave__command__class__zwave__plus__info_8c.html" target="_top" xlink:title=" ">
<polygon fill="none" stroke="black" points="5719,-0.5 5719,-52.5 5877,-52.5 5877,-0.5 5719,-0.5"/>
<text text-anchor="start" x="5727" y="-40.5" font-family="Helvetica,sans-Serif" font-size="10.00">applications/zpc/components</text>
<text text-anchor="start" x="5727" y="-29.5" font-family="Helvetica,sans-Serif" font-size="10.00">/zwave_command_classes/src</text>
<text text-anchor="start" x="5727" y="-18.5" font-family="Helvetica,sans-Serif" font-size="10.00">/zwave_command_class_zwave</text>
<text text-anchor="middle" x="5798" y="-7.5" font-family="Helvetica,sans-Serif" font-size="10.00">_plus_info.c</text>
</a>
</g>
</g>
<!-- Node2&#45;&gt;Node33 -->
<g id="edge32" class="edge">
<title>Node2&#45;&gt;Node33</title>
<path fill="none" stroke="midnightblue" d="M3089.73,-108.53C3539.45,-106.11 5448.11,-93.5 5711,-53 5713.49,-52.62 5716.01,-52.18 5718.54,-51.7"/>
<polygon fill="midnightblue" stroke="midnightblue" points="3089.68,-105.03 3079.7,-108.59 3089.71,-112.03 3089.68,-105.03"/>
</g>
<!-- Node34 -->
<g id="node34" class="node">
<title>Node34</title>
<g id="a_node34"><a xlink:href="zwave__command__classes__utils_8c.html" target="_top" xlink:title=" ">
<polygon fill="none" stroke="black" points="5894.5,-6 5894.5,-47 6061.5,-47 6061.5,-6 5894.5,-6"/>
<text text-anchor="start" x="5902.5" y="-35" font-family="Helvetica,sans-Serif" font-size="10.00">applications/zpc/components</text>
<text text-anchor="start" x="5902.5" y="-24" font-family="Helvetica,sans-Serif" font-size="10.00">/zwave_command_classes/src</text>
<text text-anchor="middle" x="5978" y="-13" font-family="Helvetica,sans-Serif" font-size="10.00">/zwave_command_classes_utils.c</text>
</a>
</g>
</g>
<!-- Node2&#45;&gt;Node34 -->
<g id="edge33" class="edge">
<title>Node2&#45;&gt;Node34</title>
<path fill="none" stroke="midnightblue" d="M3089.63,-108.58C3556.65,-106.3 5604.62,-94.05 5886,-53 5895.68,-51.59 5905.78,-49.47 5915.6,-47.05"/>
<polygon fill="midnightblue" stroke="midnightblue" points="3089.54,-105.08 3079.55,-108.63 3089.57,-112.08 3089.54,-105.08"/>
</g>
</g>
</svg>
