<?xml version="1.0" encoding="UTF-8" standalone="no"?>
<!DOCTYPE svg PUBLIC "-//W3C//DTD SVG 1.1//EN"
 "http://www.w3.org/Graphics/SVG/1.1/DTD/svg11.dtd">
<!-- Generated by graphviz version 2.43.0 (0)
 -->
<!-- Title: on_version_attribute_update Pages: 1 -->
<svg width="637pt" height="286pt"
 viewBox="0.00 0.00 637.00 285.50" xmlns="http://www.w3.org/2000/svg" xmlns:xlink="http://www.w3.org/1999/xlink">
<g id="graph0" class="graph" transform="scale(1 1) rotate(0) translate(4 281.5)">
<title>on_version_attribute_update</title>
<!-- Node1 -->
<g id="node1" class="node">
<title>Node1</title>
<g id="a_node1"><a xlink:title=" ">
<polygon fill="#bfbfbf" stroke="black" points="0,-112 0,-142 104,-142 104,-112 0,-112"/>
<text text-anchor="start" x="8" y="-130" font-family="Helvetica,sans-Serif" font-size="10.00">on_version_attribute</text>
<text text-anchor="middle" x="52" y="-119" font-family="Helvetica,sans-Serif" font-size="10.00">_update</text>
</a>
</g>
</g>
<!-- Node2 -->
<g id="node2" class="node">
<title>Node2</title>
<g id="a_node2"><a xlink:href="zwave__command__class__wake__up_8c.html#ab1683172e412f4f4b4f3090e6e2ac2b8" target="_top" xlink:title="Check if we need and send a Wake Up No more command to a node and puts it in the Tx Queue.">
<polygon fill="none" stroke="black" points="140,-117.5 140,-136.5 265,-136.5 265,-117.5 140,-117.5"/>
<text text-anchor="middle" x="202.5" y="-124.5" font-family="Helvetica,sans-Serif" font-size="10.00">send_wake_up_no_more</text>
</a>
</g>
</g>
<!-- Node1&#45;&gt;Node2 -->
<g id="edge1" class="edge">
<title>Node1&#45;&gt;Node2</title>
<path fill="none" stroke="midnightblue" d="M104.11,-127C112.37,-127 121.05,-127 129.69,-127"/>
<polygon fill="midnightblue" stroke="midnightblue" points="129.79,-130.5 139.79,-127 129.79,-123.5 129.79,-130.5"/>
</g>
<!-- Node2&#45;&gt;Node2 -->
<g id="edge2" class="edge">
<title>Node2&#45;&gt;Node2</title>
<path fill="none" stroke="midnightblue" d="M179.38,-136.76C168.13,-145.57 175.84,-155 202.5,-155 220,-155 229.33,-150.94 230.5,-145.65"/>
<polygon fill="midnightblue" stroke="midnightblue" points="233.5,-143.84 225.62,-136.76 227.36,-147.21 233.5,-143.84"/>
</g>
<!-- Node3 -->
<g id="node3" class="node">
<title>Node3</title>
<g id="a_node3"><a xlink:href="zwave__command__class__wake__up_8c.html#acc185d175a4ebc31e69cd02437d885dd" target="_top" xlink:title="Verifies if we are the Wake Up destination of a NodeID.">
<polygon fill="none" stroke="black" points="318.5,-247 318.5,-277 429.5,-277 429.5,-247 318.5,-247"/>
<text text-anchor="start" x="326.5" y="-265" font-family="Helvetica,sans-Serif" font-size="10.00">we_are_the_wake_up</text>
<text text-anchor="middle" x="374" y="-254" font-family="Helvetica,sans-Serif" font-size="10.00">_destination</text>
</a>
</g>
</g>
<!-- Node2&#45;&gt;Node3 -->
<g id="edge3" class="edge">
<title>Node2&#45;&gt;Node3</title>
<path fill="none" stroke="midnightblue" d="M209.57,-136.73C223.29,-157.95 258.8,-208.75 301,-237 303.95,-238.97 307.07,-240.81 310.29,-242.51"/>
<polygon fill="midnightblue" stroke="midnightblue" points="309.07,-245.8 319.6,-246.97 312.09,-239.49 309.07,-245.8"/>
</g>
<!-- Node5 -->
<g id="node5" class="node">
<title>Node5</title>
<g id="a_node5"><a xlink:href="group__zwave__network__management.html#ga38921e3a42a10fc5135615b50f0573cd" target="_top" xlink:title="Checks if the protocol may be sending some frames to a particular NodeID.">
<polygon fill="none" stroke="black" points="301,-186.5 301,-227.5 447,-227.5 447,-186.5 301,-186.5"/>
<text text-anchor="start" x="309" y="-215.5" font-family="Helvetica,sans-Serif" font-size="10.00">zwave_network_management</text>
<text text-anchor="start" x="309" y="-204.5" font-family="Helvetica,sans-Serif" font-size="10.00">_is_protocol_sending_frames</text>
<text text-anchor="middle" x="374" y="-193.5" font-family="Helvetica,sans-Serif" font-size="10.00">_to_node</text>
</a>
</g>
</g>
<!-- Node2&#45;&gt;Node5 -->
<g id="edge5" class="edge">
<title>Node2&#45;&gt;Node5</title>
<path fill="none" stroke="midnightblue" d="M221.26,-136.64C240.64,-147.04 272.7,-163.87 301,-177 304.8,-178.76 308.73,-180.54 312.71,-182.3"/>
<polygon fill="midnightblue" stroke="midnightblue" points="311.47,-185.57 322.04,-186.36 314.27,-179.15 311.47,-185.57"/>
</g>
<!-- Node7 -->
<g id="node7" class="node">
<title>Node7</title>
<g id="a_node7"><a xlink:href="group__zwave__tx.html#gabb799c67f2008618877071e96e2fca77" target="_top" xlink:title="Verifies if we have frames in the queue to send to a NodeID.">
<polygon fill="none" stroke="black" points="316.5,-137 316.5,-167 431.5,-167 431.5,-137 316.5,-137"/>
<text text-anchor="start" x="324.5" y="-155" font-family="Helvetica,sans-Serif" font-size="10.00">zwave_tx_has_frames</text>
<text text-anchor="middle" x="374" y="-144" font-family="Helvetica,sans-Serif" font-size="10.00">_for_node</text>
</a>
</g>
</g>
<!-- Node2&#45;&gt;Node7 -->
<g id="edge7" class="edge">
<title>Node2&#45;&gt;Node7</title>
<path fill="none" stroke="midnightblue" d="M265.17,-136.1C278.52,-138.07 292.7,-140.16 306.24,-142.15"/>
<polygon fill="midnightblue" stroke="midnightblue" points="306.04,-145.66 316.44,-143.66 307.06,-138.74 306.04,-145.66"/>
</g>
<!-- Node8 -->
<g id="node8" class="node">
<title>Node8</title>
<g id="a_node8"><a xlink:href="group__zwave__tx__scheme__selector.html#ga2c884bc863b6f63eac2a074fdde828d8" target="_top" xlink:title="Return a connection info parameters for sending a Z&#45;Wave frame.">
<polygon fill="none" stroke="black" points="315.5,-88 315.5,-118 432.5,-118 432.5,-88 315.5,-88"/>
<text text-anchor="start" x="323.5" y="-106" font-family="Helvetica,sans-Serif" font-size="10.00">zwave_tx_scheme_get</text>
<text text-anchor="middle" x="374" y="-95" font-family="Helvetica,sans-Serif" font-size="10.00">_node_connection_info</text>
</a>
</g>
</g>
<!-- Node2&#45;&gt;Node8 -->
<g id="edge8" class="edge">
<title>Node2&#45;&gt;Node8</title>
<path fill="none" stroke="midnightblue" d="M265.17,-118.27C278.22,-116.42 292.06,-114.46 305.32,-112.58"/>
<polygon fill="midnightblue" stroke="midnightblue" points="305.91,-116.03 315.32,-111.17 304.93,-109.1 305.91,-116.03"/>
</g>
<!-- Node11 -->
<g id="node11" class="node">
<title>Node11</title>
<g id="a_node11"><a xlink:href="group__zwave__tx__scheme__selector.html#ga8f8d4442ddf4c165d5a79b9a25d6420d" target="_top" xlink:title="Define a Z&#45;Wave frame transmission options.">
<polygon fill="none" stroke="black" points="315.5,-39 315.5,-69 432.5,-69 432.5,-39 315.5,-39"/>
<text text-anchor="start" x="323.5" y="-57" font-family="Helvetica,sans-Serif" font-size="10.00">zwave_tx_scheme_get</text>
<text text-anchor="middle" x="374" y="-46" font-family="Helvetica,sans-Serif" font-size="10.00">_node_tx_options</text>
</a>
</g>
</g>
<!-- Node2&#45;&gt;Node11 -->
<g id="edge11" class="edge">
<title>Node2&#45;&gt;Node11</title>
<path fill="none" stroke="midnightblue" d="M220.76,-117.37C239.97,-106.88 272.13,-89.99 301,-78 305.48,-76.14 310.16,-74.32 314.89,-72.56"/>
<polygon fill="midnightblue" stroke="midnightblue" points="316.4,-75.74 324.62,-69.06 314.03,-69.15 316.4,-75.74"/>
</g>
<!-- Node12 -->
<g id="node12" class="node">
<title>Node12</title>
<g id="a_node12"><a xlink:href="group__zwave__tx.html#gad1538f36d226fe8147c5e538625568df" target="_top" xlink:title="Queue and send frames to Z&#45;Wave nodes.">
<polygon fill="none" stroke="black" points="319.5,-0.5 319.5,-19.5 428.5,-19.5 428.5,-0.5 319.5,-0.5"/>
<text text-anchor="middle" x="374" y="-7.5" font-family="Helvetica,sans-Serif" font-size="10.00">zwave_tx_send_data</text>
</a>
</g>
</g>
<!-- Node2&#45;&gt;Node12 -->
<g id="edge12" class="edge">
<title>Node2&#45;&gt;Node12</title>
<path fill="none" stroke="midnightblue" d="M210.34,-117.25C224.74,-97.46 260.25,-52.49 301,-29 304.88,-26.76 309.04,-24.78 313.32,-23.03"/>
<polygon fill="midnightblue" stroke="midnightblue" points="314.64,-26.27 322.83,-19.55 312.23,-19.7 314.64,-26.27"/>
</g>
<!-- Node4 -->
<g id="node4" class="node">
<title>Node4</title>
<g id="a_node4"><a xlink:href="group__zwave__network__management.html#gae265f1e935804f3f0b971755ab0ee61e" target="_top" xlink:title="Get the cached NodeID.">
<polygon fill="none" stroke="black" points="483,-247 483,-277 629,-277 629,-247 483,-247"/>
<text text-anchor="start" x="491" y="-265" font-family="Helvetica,sans-Serif" font-size="10.00">zwave_network_management</text>
<text text-anchor="middle" x="556" y="-254" font-family="Helvetica,sans-Serif" font-size="10.00">_get_node_id</text>
</a>
</g>
</g>
<!-- Node3&#45;&gt;Node4 -->
<g id="edge4" class="edge">
<title>Node3&#45;&gt;Node4</title>
<path fill="none" stroke="midnightblue" d="M429.98,-262C443.38,-262 458,-262 472.37,-262"/>
<polygon fill="midnightblue" stroke="midnightblue" points="472.76,-265.5 482.76,-262 472.76,-258.5 472.76,-265.5"/>
</g>
<!-- Node6 -->
<g id="node6" class="node">
<title>Node6</title>
<g id="a_node6"><a xlink:href="group__zwave__network__management.html#ga90aba971e0bdba90096c533bcd803dc4" target="_top" xlink:title="Checks if we have return routes to assign for a given NodeID.">
<polygon fill="none" stroke="black" points="497,-192 497,-222 615,-222 615,-192 497,-192"/>
<text text-anchor="start" x="505" y="-210" font-family="Helvetica,sans-Serif" font-size="10.00">we_have_return_routes</text>
<text text-anchor="middle" x="556" y="-199" font-family="Helvetica,sans-Serif" font-size="10.00">_to_assign</text>
</a>
</g>
</g>
<!-- Node5&#45;&gt;Node6 -->
<g id="edge6" class="edge">
<title>Node5&#45;&gt;Node6</title>
<path fill="none" stroke="midnightblue" d="M447.18,-207C460.22,-207 473.78,-207 486.71,-207"/>
<polygon fill="midnightblue" stroke="midnightblue" points="486.92,-210.5 496.92,-207 486.92,-203.5 486.92,-210.5"/>
</g>
<!-- Node9 -->
<g id="node9" class="node">
<title>Node9</title>
<g id="a_node9"><a xlink:href="group__zwave__controller__keyset.html#ga43a73c5ae7dc860fa2e5edb9814c432f" target="_top" xlink:title="Get the hight encapsulation supported by a given key set.">
<polygon fill="none" stroke="black" points="496.5,-112 496.5,-142 615.5,-142 615.5,-112 496.5,-112"/>
<text text-anchor="start" x="504.5" y="-130" font-family="Helvetica,sans-Serif" font-size="10.00">zwave_controller_get</text>
<text text-anchor="middle" x="556" y="-119" font-family="Helvetica,sans-Serif" font-size="10.00">_highest_encapsulation</text>
</a>
</g>
</g>
<!-- Node8&#45;&gt;Node9 -->
<g id="edge9" class="edge">
<title>Node8&#45;&gt;Node9</title>
<path fill="none" stroke="midnightblue" d="M432.94,-110.73C449.87,-112.98 468.53,-115.47 486.07,-117.81"/>
<polygon fill="midnightblue" stroke="midnightblue" points="485.86,-121.31 496.24,-119.17 486.79,-114.37 485.86,-121.31"/>
</g>
<!-- Node10 -->
<g id="node10" class="node">
<title>Node10</title>
<g id="a_node10"><a xlink:href="group__zwave__controller__storage.html#ga771d01deff646dfda3f8406d6fbf5736" target="_top" xlink:title="Return the granted keys for a node.">
<polygon fill="none" stroke="black" points="492,-63 492,-93 620,-93 620,-63 492,-63"/>
<text text-anchor="start" x="500" y="-81" font-family="Helvetica,sans-Serif" font-size="10.00">zwave_controller_storage</text>
<text text-anchor="middle" x="556" y="-70" font-family="Helvetica,sans-Serif" font-size="10.00">_get_node_granted_keys</text>
</a>
</g>
</g>
<!-- Node8&#45;&gt;Node10 -->
<g id="edge10" class="edge">
<title>Node8&#45;&gt;Node10</title>
<path fill="none" stroke="midnightblue" d="M432.94,-94.95C448.52,-92.79 465.57,-90.42 481.85,-88.16"/>
<polygon fill="midnightblue" stroke="midnightblue" points="482.45,-91.61 491.87,-86.77 481.49,-84.68 482.45,-91.61"/>
</g>
</g>
</svg>
