<?xml version="1.0" encoding="UTF-8" standalone="no"?>
<!DOCTYPE svg PUBLIC "-//W3C//DTD SVG 1.1//EN"
 "http://www.w3.org/Graphics/SVG/1.1/DTD/svg11.dtd">
<!-- Generated by graphviz version 2.43.0 (0)
 -->
<!-- Title: get_s2_keyset_from_group Pages: 1 -->
<svg width="444pt" height="72pt"
 viewBox="0.00 0.00 444.00 71.50" xmlns="http://www.w3.org/2000/svg" xmlns:xlink="http://www.w3.org/1999/xlink">
<g id="graph0" class="graph" transform="scale(1 1) rotate(0) translate(4 67.5)">
<title>get_s2_keyset_from_group</title>
<!-- Node1 -->
<g id="node1" class="node">
<title>Node1</title>
<g id="a_node1"><a xlink:title="Finds out which keyset to use for S2 transmissions to a Group ID.">
<polygon fill="#bfbfbf" stroke="black" points="0,-14 0,-44 105,-44 105,-14 0,-14"/>
<text text-anchor="start" x="8" y="-32" font-family="Helvetica,sans-Serif" font-size="10.00">get_s2_keyset_from</text>
<text text-anchor="middle" x="52.5" y="-21" font-family="Helvetica,sans-Serif" font-size="10.00">_group</text>
</a>
</g>
</g>
<!-- Node2 -->
<g id="node2" class="node">
<title>Node2</title>
<g id="a_node2"><a xlink:href="zwave__s2__transport_8c.html#a941224c0fe3a7bdef2ee00d21c72e4bb" target="_top" xlink:title="Finds out which keyset to use for S2 transmissions to a NodeID.">
<polygon fill="none" stroke="black" points="141,-38.5 141,-57.5 272,-57.5 272,-38.5 141,-38.5"/>
<text text-anchor="middle" x="206.5" y="-45.5" font-family="Helvetica,sans-Serif" font-size="10.00">get_s2_keyset_from_node</text>
</a>
</g>
</g>
<!-- Node1&#45;&gt;Node2 -->
<g id="edge1" class="edge">
<title>Node1&#45;&gt;Node2</title>
<path fill="none" stroke="midnightblue" d="M105.38,-35.49C113.61,-36.51 122.25,-37.59 130.87,-38.67"/>
<polygon fill="midnightblue" stroke="midnightblue" points="130.59,-42.16 140.94,-39.93 131.46,-35.22 130.59,-42.16"/>
</g>
<!-- Node4 -->
<g id="node4" class="node">
<title>Node4</title>
<g id="a_node4"><a xlink:href="group__zwave__tx__groups.html#ga03f0e364d262928c9617a70b656755e7" target="_top" xlink:title="Returns the list of NodeIDs part of a group.">
<polygon fill="none" stroke="black" points="152,-0.5 152,-19.5 261,-19.5 261,-0.5 152,-0.5"/>
<text text-anchor="middle" x="206.5" y="-7.5" font-family="Helvetica,sans-Serif" font-size="10.00">zwave_tx_get_nodes</text>
</a>
</g>
</g>
<!-- Node1&#45;&gt;Node4 -->
<g id="edge3" class="edge">
<title>Node1&#45;&gt;Node4</title>
<path fill="none" stroke="midnightblue" d="M105.38,-22.51C117.08,-21.05 129.62,-19.49 141.73,-17.97"/>
<polygon fill="midnightblue" stroke="midnightblue" points="142.29,-21.43 151.78,-16.72 141.42,-14.48 142.29,-21.43"/>
</g>
<!-- Node3 -->
<g id="node3" class="node">
<title>Node3</title>
<g id="a_node3"><a xlink:href="group__zwave__controller__storage.html#ga2461e01bf9de1c7d0bd739c2ebb2bed9" target="_top" xlink:title="Returns the protocol that the node is running in this network.">
<polygon fill="none" stroke="black" points="308,-33 308,-63 436,-63 436,-33 308,-33"/>
<text text-anchor="start" x="316" y="-51" font-family="Helvetica,sans-Serif" font-size="10.00">zwave_controller_storage</text>
<text text-anchor="middle" x="372" y="-40" font-family="Helvetica,sans-Serif" font-size="10.00">_inclusion_protocol</text>
</a>
</g>
</g>
<!-- Node2&#45;&gt;Node3 -->
<g id="edge2" class="edge">
<title>Node2&#45;&gt;Node3</title>
<path fill="none" stroke="midnightblue" d="M272.12,-48C280.59,-48 289.31,-48 297.91,-48"/>
<polygon fill="midnightblue" stroke="midnightblue" points="297.92,-51.5 307.92,-48 297.92,-44.5 297.92,-51.5"/>
</g>
</g>
</svg>
