<?xml version="1.0" encoding="UTF-8" standalone="no"?>
<!DOCTYPE svg PUBLIC "-//W3C//DTD SVG 1.1//EN"
 "http://www.w3.org/Graphics/SVG/1.1/DTD/svg11.dtd">
<!-- Generated by graphviz version 2.43.0 (0)
 -->
<!-- Title: is_pin_code_supported Pages: 1 -->
<svg width="647pt" height="88pt"
 viewBox="0.00 0.00 647.00 88.00" xmlns="http://www.w3.org/2000/svg" xmlns:xlink="http://www.w3.org/1999/xlink">
<g id="graph0" class="graph" transform="scale(1 1) rotate(0) translate(4 84)">
<title>is_pin_code_supported</title>
<!-- Node1 -->
<g id="node1" class="node">
<title>Node1</title>
<g id="a_node1"><a xlink:title="Checks the nodes capabilities and verifies if a character is supported for setting in a PIN code.">
<polygon fill="#bfbfbf" stroke="black" points="523,-30 523,-49 639,-49 639,-30 523,-30"/>
<text text-anchor="middle" x="581" y="-37" font-family="Helvetica,sans-Serif" font-size="10.00">is_pin_code_supported</text>
</a>
</g>
</g>
<!-- Node2 -->
<g id="node2" class="node">
<title>Node2</title>
<g id="a_node2"><a xlink:href="zwave__command__class__user__code_8c.html#a0329fcb7ce08f7c5a9ec4b45d1dd3109" target="_top" xlink:title="Generates a Admin Code Set Command.">
<polygon fill="none" stroke="black" points="344,-49.5 344,-79.5 487,-79.5 487,-49.5 344,-49.5"/>
<text text-anchor="start" x="352" y="-67.5" font-family="Helvetica,sans-Serif" font-size="10.00">zwave_command_class</text>
<text text-anchor="middle" x="415.5" y="-56.5" font-family="Helvetica,sans-Serif" font-size="10.00">_user_code_admin_code_set</text>
</a>
</g>
</g>
<!-- Node1&#45;&gt;Node2 -->
<g id="edge1" class="edge">
<title>Node1&#45;&gt;Node2</title>
<path fill="none" stroke="midnightblue" d="M512.68,-49.79C504.26,-51.08 495.64,-52.4 487.17,-53.69"/>
<polygon fill="midnightblue" stroke="midnightblue" points="513.46,-53.22 522.82,-48.24 512.4,-46.3 513.46,-53.22"/>
</g>
<!-- Node5 -->
<g id="node5" class="node">
<title>Node5</title>
<g id="a_node5"><a xlink:href="zwave__command__class__user__code_8c.html#a7cdebc2520254f905894447c217876db" target="_top" xlink:title="Generates a (opt. Extended) User Code Set Command.">
<polygon fill="none" stroke="black" points="354.5,-0.5 354.5,-30.5 476.5,-30.5 476.5,-0.5 354.5,-0.5"/>
<text text-anchor="start" x="362.5" y="-18.5" font-family="Helvetica,sans-Serif" font-size="10.00">zwave_command_class</text>
<text text-anchor="middle" x="415.5" y="-7.5" font-family="Helvetica,sans-Serif" font-size="10.00">_user_code_set</text>
</a>
</g>
</g>
<!-- Node1&#45;&gt;Node5 -->
<g id="edge4" class="edge">
<title>Node1&#45;&gt;Node5</title>
<path fill="none" stroke="midnightblue" d="M512.88,-29.65C500.89,-27.89 488.48,-26.07 476.71,-24.34"/>
<polygon fill="midnightblue" stroke="midnightblue" points="512.41,-33.12 522.82,-31.11 513.43,-26.19 512.41,-33.12"/>
</g>
<!-- Node3 -->
<g id="node3" class="node">
<title>Node3</title>
<g id="a_node3"><a xlink:href="group__zwave__command__class__user__code.html#ga3903c1853dfc3b999bcb5570d3355a35" target="_top" xlink:title="Initializes the User Code Command Class handler.">
<polygon fill="none" stroke="black" points="186,-24.5 186,-54.5 308,-54.5 308,-24.5 186,-24.5"/>
<text text-anchor="start" x="194" y="-42.5" font-family="Helvetica,sans-Serif" font-size="10.00">zwave_command_class</text>
<text text-anchor="middle" x="247" y="-31.5" font-family="Helvetica,sans-Serif" font-size="10.00">_user_code_init</text>
</a>
</g>
</g>
<!-- Node2&#45;&gt;Node3 -->
<g id="edge2" class="edge">
<title>Node2&#45;&gt;Node3</title>
<path fill="none" stroke="midnightblue" d="M333.81,-52.38C325.19,-51.09 316.53,-49.79 308.2,-48.54"/>
<polygon fill="midnightblue" stroke="midnightblue" points="333.48,-55.87 343.89,-53.9 334.52,-48.95 333.48,-55.87"/>
</g>
<!-- Node4 -->
<g id="node4" class="node">
<title>Node4</title>
<g id="a_node4"><a xlink:href="group__command__classes__fixt.html#ga5272651939ced1723158340039e8da19" target="_top" xlink:title="Setup fixture for Z&#45;Wave Command Classes.">
<polygon fill="none" stroke="black" points="0,-30 0,-49 150,-49 150,-30 0,-30"/>
<text text-anchor="middle" x="75" y="-37" font-family="Helvetica,sans-Serif" font-size="10.00">zwave_command_classes_init</text>
</a>
</g>
</g>
<!-- Node3&#45;&gt;Node4 -->
<g id="edge3" class="edge">
<title>Node3&#45;&gt;Node4</title>
<path fill="none" stroke="midnightblue" d="M175.51,-39.5C167.16,-39.5 158.61,-39.5 150.21,-39.5"/>
<polygon fill="midnightblue" stroke="midnightblue" points="175.59,-43 185.59,-39.5 175.59,-36 175.59,-43"/>
</g>
<!-- Node5&#45;&gt;Node3 -->
<g id="edge5" class="edge">
<title>Node5&#45;&gt;Node3</title>
<path fill="none" stroke="midnightblue" d="M344.35,-25.61C332.27,-27.35 319.81,-29.15 308.02,-30.85"/>
<polygon fill="midnightblue" stroke="midnightblue" points="344.99,-29.06 354.39,-24.16 343.99,-22.13 344.99,-29.06"/>
</g>
</g>
</svg>
